<?xml version="1.0" encoding="utf-8" standalone="no"?>
<!DOCTYPE svg PUBLIC "-//W3C//DTD SVG 1.1//EN"
  "http://www.w3.org/Graphics/SVG/1.1/DTD/svg11.dtd">
<!-- Created with matplotlib (https://matplotlib.org/) -->
<svg height="518.716875pt" version="1.1" viewBox="0 0 610.843125 518.716875" width="610.843125pt" xmlns="http://www.w3.org/2000/svg" xmlns:xlink="http://www.w3.org/1999/xlink">
 <defs>
  <style type="text/css">
*{stroke-linecap:butt;stroke-linejoin:round;}
  </style>
 </defs>
 <g id="figure_1">
  <g id="patch_1">
   <path d="M 0 518.716875 
L 610.843125 518.716875 
L 610.843125 0 
L 0 0 
z
" style="fill:#ffffff;"/>
  </g>
  <g id="axes_1">
   <g id="patch_2">
    <path d="M 140.230625 442.021562 
L 530.830625 442.021562 
L 530.830625 61.501562 
L 140.230625 61.501562 
z
" style="fill:#ffffff;"/>
   </g>
   <g id="matplotlib.axis_1">
    <g id="xtick_1">
     <g id="line2d_1">
      <defs>
       <path d="M 0 0 
L 0 3.5 
" id="m1a47d9240b" style="stroke:#000000;stroke-width:0.8;"/>
      </defs>
      <g>
       <use style="stroke:#000000;stroke-width:0.8;" x="140.230625" xlink:href="#m1a47d9240b" y="442.021562"/>
      </g>
     </g>
     <g id="text_1">
      <!-- 0 -->
      <defs>
       <path d="M 31.78125 66.40625 
Q 24.171875 66.40625 20.328125 58.90625 
Q 16.5 51.421875 16.5 36.375 
Q 16.5 21.390625 20.328125 13.890625 
Q 24.171875 6.390625 31.78125 6.390625 
Q 39.453125 6.390625 43.28125 13.890625 
Q 47.125 21.390625 47.125 36.375 
Q 47.125 51.421875 43.28125 58.90625 
Q 39.453125 66.40625 31.78125 66.40625 
z
M 31.78125 74.21875 
Q 44.046875 74.21875 50.515625 64.515625 
Q 56.984375 54.828125 56.984375 36.375 
Q 56.984375 17.96875 50.515625 8.265625 
Q 44.046875 -1.421875 31.78125 -1.421875 
Q 19.53125 -1.421875 13.0625 8.265625 
Q 6.59375 17.96875 6.59375 36.375 
Q 6.59375 54.828125 13.0625 64.515625 
Q 19.53125 74.21875 31.78125 74.21875 
z
" id="DejaVuSans-48"/>
      </defs>
      <g transform="translate(130.686875 471.816875)scale(0.3 -0.3)">
       <use xlink:href="#DejaVuSans-48"/>
      </g>
     </g>
    </g>
    <g id="xtick_2">
     <g id="line2d_2">
      <g>
       <use style="stroke:#000000;stroke-width:0.8;" x="196.030625" xlink:href="#m1a47d9240b" y="442.021562"/>
      </g>
     </g>
     <g id="text_2">
      <!-- 1 -->
      <defs>
       <path d="M 12.40625 8.296875 
L 28.515625 8.296875 
L 28.515625 63.921875 
L 10.984375 60.40625 
L 10.984375 69.390625 
L 28.421875 72.90625 
L 38.28125 72.90625 
L 38.28125 8.296875 
L 54.390625 8.296875 
L 54.390625 0 
L 12.40625 0 
z
" id="DejaVuSans-49"/>
      </defs>
      <g transform="translate(186.486875 471.816875)scale(0.3 -0.3)">
       <use xlink:href="#DejaVuSans-49"/>
      </g>
     </g>
    </g>
    <g id="xtick_3">
     <g id="line2d_3">
      <g>
       <use style="stroke:#000000;stroke-width:0.8;" x="251.830625" xlink:href="#m1a47d9240b" y="442.021562"/>
      </g>
     </g>
     <g id="text_3">
      <!-- 2 -->
      <defs>
       <path d="M 19.1875 8.296875 
L 53.609375 8.296875 
L 53.609375 0 
L 7.328125 0 
L 7.328125 8.296875 
Q 12.9375 14.109375 22.625 23.890625 
Q 32.328125 33.6875 34.8125 36.53125 
Q 39.546875 41.84375 41.421875 45.53125 
Q 43.3125 49.21875 43.3125 52.78125 
Q 43.3125 58.59375 39.234375 62.25 
Q 35.15625 65.921875 28.609375 65.921875 
Q 23.96875 65.921875 18.8125 64.3125 
Q 13.671875 62.703125 7.8125 59.421875 
L 7.8125 69.390625 
Q 13.765625 71.78125 18.9375 73 
Q 24.125 74.21875 28.421875 74.21875 
Q 39.75 74.21875 46.484375 68.546875 
Q 53.21875 62.890625 53.21875 53.421875 
Q 53.21875 48.921875 51.53125 44.890625 
Q 49.859375 40.875 45.40625 35.40625 
Q 44.1875 33.984375 37.640625 27.21875 
Q 31.109375 20.453125 19.1875 8.296875 
z
" id="DejaVuSans-50"/>
      </defs>
      <g transform="translate(242.286875 471.816875)scale(0.3 -0.3)">
       <use xlink:href="#DejaVuSans-50"/>
      </g>
     </g>
    </g>
    <g id="xtick_4">
     <g id="line2d_4">
      <g>
       <use style="stroke:#000000;stroke-width:0.8;" x="307.630625" xlink:href="#m1a47d9240b" y="442.021562"/>
      </g>
     </g>
     <g id="text_4">
      <!-- 3 -->
      <defs>
       <path d="M 40.578125 39.3125 
Q 47.65625 37.796875 51.625 33 
Q 55.609375 28.21875 55.609375 21.1875 
Q 55.609375 10.40625 48.1875 4.484375 
Q 40.765625 -1.421875 27.09375 -1.421875 
Q 22.515625 -1.421875 17.65625 -0.515625 
Q 12.796875 0.390625 7.625 2.203125 
L 7.625 11.71875 
Q 11.71875 9.328125 16.59375 8.109375 
Q 21.484375 6.890625 26.8125 6.890625 
Q 36.078125 6.890625 40.9375 10.546875 
Q 45.796875 14.203125 45.796875 21.1875 
Q 45.796875 27.640625 41.28125 31.265625 
Q 36.765625 34.90625 28.71875 34.90625 
L 20.21875 34.90625 
L 20.21875 43.015625 
L 29.109375 43.015625 
Q 36.375 43.015625 40.234375 45.921875 
Q 44.09375 48.828125 44.09375 54.296875 
Q 44.09375 59.90625 40.109375 62.90625 
Q 36.140625 65.921875 28.71875 65.921875 
Q 24.65625 65.921875 20.015625 65.03125 
Q 15.375 64.15625 9.8125 62.3125 
L 9.8125 71.09375 
Q 15.4375 72.65625 20.34375 73.4375 
Q 25.25 74.21875 29.59375 74.21875 
Q 40.828125 74.21875 47.359375 69.109375 
Q 53.90625 64.015625 53.90625 55.328125 
Q 53.90625 49.265625 50.4375 45.09375 
Q 46.96875 40.921875 40.578125 39.3125 
z
" id="DejaVuSans-51"/>
      </defs>
      <g transform="translate(298.086875 471.816875)scale(0.3 -0.3)">
       <use xlink:href="#DejaVuSans-51"/>
      </g>
     </g>
    </g>
    <g id="xtick_5">
     <g id="line2d_5">
      <g>
       <use style="stroke:#000000;stroke-width:0.8;" x="363.430625" xlink:href="#m1a47d9240b" y="442.021562"/>
      </g>
     </g>
     <g id="text_5">
      <!-- 4 -->
      <defs>
       <path d="M 37.796875 64.3125 
L 12.890625 25.390625 
L 37.796875 25.390625 
z
M 35.203125 72.90625 
L 47.609375 72.90625 
L 47.609375 25.390625 
L 58.015625 25.390625 
L 58.015625 17.1875 
L 47.609375 17.1875 
L 47.609375 0 
L 37.796875 0 
L 37.796875 17.1875 
L 4.890625 17.1875 
L 4.890625 26.703125 
z
" id="DejaVuSans-52"/>
      </defs>
      <g transform="translate(353.886875 471.816875)scale(0.3 -0.3)">
       <use xlink:href="#DejaVuSans-52"/>
      </g>
     </g>
    </g>
    <g id="xtick_6">
     <g id="line2d_6">
      <g>
       <use style="stroke:#000000;stroke-width:0.8;" x="419.230625" xlink:href="#m1a47d9240b" y="442.021562"/>
      </g>
     </g>
     <g id="text_6">
      <!-- 5 -->
      <defs>
       <path d="M 10.796875 72.90625 
L 49.515625 72.90625 
L 49.515625 64.59375 
L 19.828125 64.59375 
L 19.828125 46.734375 
Q 21.96875 47.46875 24.109375 47.828125 
Q 26.265625 48.1875 28.421875 48.1875 
Q 40.625 48.1875 47.75 41.5 
Q 54.890625 34.8125 54.890625 23.390625 
Q 54.890625 11.625 47.5625 5.09375 
Q 40.234375 -1.421875 26.90625 -1.421875 
Q 22.3125 -1.421875 17.546875 -0.640625 
Q 12.796875 0.140625 7.71875 1.703125 
L 7.71875 11.625 
Q 12.109375 9.234375 16.796875 8.0625 
Q 21.484375 6.890625 26.703125 6.890625 
Q 35.15625 6.890625 40.078125 11.328125 
Q 45.015625 15.765625 45.015625 23.390625 
Q 45.015625 31 40.078125 35.4375 
Q 35.15625 39.890625 26.703125 39.890625 
Q 22.75 39.890625 18.8125 39.015625 
Q 14.890625 38.140625 10.796875 36.28125 
z
" id="DejaVuSans-53"/>
      </defs>
      <g transform="translate(409.686875 471.816875)scale(0.3 -0.3)">
       <use xlink:href="#DejaVuSans-53"/>
      </g>
     </g>
    </g>
    <g id="xtick_7">
     <g id="line2d_7">
      <g>
       <use style="stroke:#000000;stroke-width:0.8;" x="475.030625" xlink:href="#m1a47d9240b" y="442.021562"/>
      </g>
     </g>
     <g id="text_7">
      <!-- 6 -->
      <defs>
       <path d="M 33.015625 40.375 
Q 26.375 40.375 22.484375 35.828125 
Q 18.609375 31.296875 18.609375 23.390625 
Q 18.609375 15.53125 22.484375 10.953125 
Q 26.375 6.390625 33.015625 6.390625 
Q 39.65625 6.390625 43.53125 10.953125 
Q 47.40625 15.53125 47.40625 23.390625 
Q 47.40625 31.296875 43.53125 35.828125 
Q 39.65625 40.375 33.015625 40.375 
z
M 52.59375 71.296875 
L 52.59375 62.3125 
Q 48.875 64.0625 45.09375 64.984375 
Q 41.3125 65.921875 37.59375 65.921875 
Q 27.828125 65.921875 22.671875 59.328125 
Q 17.53125 52.734375 16.796875 39.40625 
Q 19.671875 43.65625 24.015625 45.921875 
Q 28.375 48.1875 33.59375 48.1875 
Q 44.578125 48.1875 50.953125 41.515625 
Q 57.328125 34.859375 57.328125 23.390625 
Q 57.328125 12.15625 50.6875 5.359375 
Q 44.046875 -1.421875 33.015625 -1.421875 
Q 20.359375 -1.421875 13.671875 8.265625 
Q 6.984375 17.96875 6.984375 36.375 
Q 6.984375 53.65625 15.1875 63.9375 
Q 23.390625 74.21875 37.203125 74.21875 
Q 40.921875 74.21875 44.703125 73.484375 
Q 48.484375 72.75 52.59375 71.296875 
z
" id="DejaVuSans-54"/>
      </defs>
      <g transform="translate(465.486875 471.816875)scale(0.3 -0.3)">
       <use xlink:href="#DejaVuSans-54"/>
      </g>
     </g>
    </g>
    <g id="xtick_8">
     <g id="line2d_8">
      <g>
       <use style="stroke:#000000;stroke-width:0.8;" x="530.830625" xlink:href="#m1a47d9240b" y="442.021562"/>
      </g>
     </g>
     <g id="text_8">
      <!-- 7 -->
      <defs>
       <path d="M 8.203125 72.90625 
L 55.078125 72.90625 
L 55.078125 68.703125 
L 28.609375 0 
L 18.3125 0 
L 43.21875 64.59375 
L 8.203125 64.59375 
z
" id="DejaVuSans-55"/>
      </defs>
      <g transform="translate(521.286875 471.816875)scale(0.3 -0.3)">
       <use xlink:href="#DejaVuSans-55"/>
      </g>
     </g>
    </g>
    <g id="text_9">
     <!-- TIME (DAYS) -->
     <defs>
      <path d="M 23.390625 0 
L 23.390625 59.46875 
L 2.15625 59.46875 
L 2.15625 71.578125 
L 59.03125 71.578125 
L 59.03125 59.46875 
L 37.84375 59.46875 
L 37.84375 0 
z
" id="Arial-BoldMT-84"/>
      <path d="M 6.84375 0 
L 6.84375 71.578125 
L 21.296875 71.578125 
L 21.296875 0 
z
" id="Arial-BoldMT-73"/>
      <path d="M 7.078125 0 
L 7.078125 71.578125 
L 28.71875 71.578125 
L 41.703125 22.75 
L 54.546875 71.578125 
L 76.21875 71.578125 
L 76.21875 0 
L 62.796875 0 
L 62.796875 56.34375 
L 48.578125 0 
L 34.671875 0 
L 20.515625 56.34375 
L 20.515625 0 
z
" id="Arial-BoldMT-77"/>
      <path d="M 7.28125 0 
L 7.28125 71.578125 
L 60.359375 71.578125 
L 60.359375 59.46875 
L 21.734375 59.46875 
L 21.734375 43.609375 
L 57.671875 43.609375 
L 57.671875 31.546875 
L 21.734375 31.546875 
L 21.734375 12.0625 
L 61.71875 12.0625 
L 61.71875 0 
z
" id="Arial-BoldMT-69"/>
      <path id="Arial-BoldMT-32"/>
      <path d="M 29.9375 -21.046875 
L 20.515625 -21.046875 
Q 13.03125 -9.765625 9.125 2.390625 
Q 5.21875 14.546875 5.21875 25.921875 
Q 5.21875 40.046875 10.0625 52.640625 
Q 14.265625 63.578125 20.703125 72.796875 
L 30.078125 72.796875 
Q 23.390625 58.015625 20.875 47.625 
Q 18.359375 37.25 18.359375 25.640625 
Q 18.359375 17.625 19.84375 9.21875 
Q 21.34375 0.828125 23.921875 -6.734375 
Q 25.640625 -11.71875 29.9375 -21.046875 
z
" id="Arial-BoldMT-40"/>
      <path d="M 7.234375 71.578125 
L 33.640625 71.578125 
Q 42.578125 71.578125 47.265625 70.21875 
Q 53.5625 68.359375 58.046875 63.625 
Q 62.546875 58.890625 64.890625 52.03125 
Q 67.234375 45.171875 67.234375 35.109375 
Q 67.234375 26.265625 65.046875 19.875 
Q 62.359375 12.0625 57.375 7.234375 
Q 53.609375 3.5625 47.21875 1.515625 
Q 42.4375 0 34.421875 0 
L 7.234375 0 
z
M 21.6875 59.46875 
L 21.6875 12.0625 
L 32.46875 12.0625 
Q 38.53125 12.0625 41.21875 12.75 
Q 44.734375 13.625 47.046875 15.71875 
Q 49.359375 17.828125 50.828125 22.625 
Q 52.296875 27.4375 52.296875 35.75 
Q 52.296875 44.046875 50.828125 48.484375 
Q 49.359375 52.9375 46.71875 55.421875 
Q 44.09375 57.90625 40.046875 58.796875 
Q 37.015625 59.46875 28.171875 59.46875 
z
" id="Arial-BoldMT-68"/>
      <path d="M 71.828125 0 
L 56.109375 0 
L 49.859375 16.265625 
L 21.234375 16.265625 
L 15.328125 0 
L 0 0 
L 27.875 71.578125 
L 43.171875 71.578125 
z
M 45.21875 28.328125 
L 35.359375 54.890625 
L 25.6875 28.328125 
z
" id="Arial-BoldMT-65"/>
      <path d="M 26.078125 0 
L 26.078125 30.125 
L -0.140625 71.578125 
L 16.796875 71.578125 
L 33.640625 43.265625 
L 50.140625 71.578125 
L 66.796875 71.578125 
L 40.484375 30.03125 
L 40.484375 0 
z
" id="Arial-BoldMT-89"/>
      <path d="M 3.609375 23.296875 
L 17.671875 24.65625 
Q 18.953125 17.578125 22.828125 14.25 
Q 26.703125 10.9375 33.296875 10.9375 
Q 40.28125 10.9375 43.8125 13.890625 
Q 47.359375 16.84375 47.359375 20.796875 
Q 47.359375 23.34375 45.875 25.125 
Q 44.390625 26.90625 40.671875 28.21875 
Q 38.140625 29.109375 29.109375 31.34375 
Q 17.484375 34.234375 12.796875 38.421875 
Q 6.203125 44.34375 6.203125 52.828125 
Q 6.203125 58.296875 9.296875 63.0625 
Q 12.40625 67.828125 18.234375 70.3125 
Q 24.078125 72.796875 32.328125 72.796875 
Q 45.796875 72.796875 52.609375 66.890625 
Q 59.421875 60.984375 59.765625 51.125 
L 45.3125 50.484375 
Q 44.390625 56 41.328125 58.421875 
Q 38.28125 60.84375 32.171875 60.84375 
Q 25.875 60.84375 22.3125 58.25 
Q 20.015625 56.59375 20.015625 53.8125 
Q 20.015625 51.265625 22.171875 49.46875 
Q 24.90625 47.171875 35.453125 44.671875 
Q 46 42.1875 51.046875 39.515625 
Q 56.109375 36.859375 58.953125 32.25 
Q 61.8125 27.640625 61.8125 20.84375 
Q 61.8125 14.703125 58.390625 9.328125 
Q 54.984375 3.953125 48.734375 1.34375 
Q 42.484375 -1.265625 33.15625 -1.265625 
Q 19.578125 -1.265625 12.296875 5 
Q 5.03125 11.28125 3.609375 23.296875 
z
" id="Arial-BoldMT-83"/>
      <path d="M 3.375 -21.046875 
Q 7.421875 -12.359375 9.078125 -7.71875 
Q 10.75 -3.078125 12.15625 2.96875 
Q 13.578125 9.03125 14.25 14.46875 
Q 14.9375 19.921875 14.9375 25.640625 
Q 14.9375 37.25 12.453125 47.625 
Q 9.96875 58.015625 3.265625 72.796875 
L 12.59375 72.796875 
Q 19.96875 62.3125 24.046875 50.53125 
Q 28.125 38.765625 28.125 26.65625 
Q 28.125 16.453125 24.90625 4.78125 
Q 21.234375 -8.296875 12.84375 -21.046875 
z
" id="Arial-BoldMT-41"/>
     </defs>
     <g transform="translate(259.163437 506.255156)scale(0.25 -0.25)">
      <use xlink:href="#Arial-BoldMT-84"/>
      <use x="61.083984" xlink:href="#Arial-BoldMT-73"/>
      <use x="88.867188" xlink:href="#Arial-BoldMT-77"/>
      <use x="172.167969" xlink:href="#Arial-BoldMT-69"/>
      <use x="238.867188" xlink:href="#Arial-BoldMT-32"/>
      <use x="266.650391" xlink:href="#Arial-BoldMT-40"/>
      <use x="299.951172" xlink:href="#Arial-BoldMT-68"/>
      <use x="372.167969" xlink:href="#Arial-BoldMT-65"/>
      <use x="444.244141" xlink:href="#Arial-BoldMT-89"/>
      <use x="510.943359" xlink:href="#Arial-BoldMT-83"/>
      <use x="577.642578" xlink:href="#Arial-BoldMT-41"/>
     </g>
    </g>
   </g>
   <g id="matplotlib.axis_2">
    <g id="ytick_1">
     <g id="line2d_9">
      <defs>
       <path d="M 0 0 
L -3.5 0 
" id="m3df882c3c0" style="stroke:#000000;stroke-width:0.8;"/>
      </defs>
      <g>
       <use style="stroke:#000000;stroke-width:0.8;" x="140.230625" xlink:href="#m3df882c3c0" y="442.021562"/>
      </g>
     </g>
     <g id="text_10">
      <!-- 0 -->
      <g transform="translate(114.143125 453.419219)scale(0.3 -0.3)">
       <use xlink:href="#DejaVuSans-48"/>
      </g>
     </g>
    </g>
    <g id="ytick_2">
     <g id="line2d_10">
      <g>
       <use style="stroke:#000000;stroke-width:0.8;" x="140.230625" xlink:href="#m3df882c3c0" y="378.601562"/>
      </g>
     </g>
     <g id="text_11">
      <!-- 1000 -->
      <g transform="translate(56.880625 389.999219)scale(0.3 -0.3)">
       <use xlink:href="#DejaVuSans-49"/>
       <use x="63.623047" xlink:href="#DejaVuSans-48"/>
       <use x="127.246094" xlink:href="#DejaVuSans-48"/>
       <use x="190.869141" xlink:href="#DejaVuSans-48"/>
      </g>
     </g>
    </g>
    <g id="ytick_3">
     <g id="line2d_11">
      <g>
       <use style="stroke:#000000;stroke-width:0.8;" x="140.230625" xlink:href="#m3df882c3c0" y="315.181562"/>
      </g>
     </g>
     <g id="text_12">
      <!-- 2000 -->
      <g transform="translate(56.880625 326.579219)scale(0.3 -0.3)">
       <use xlink:href="#DejaVuSans-50"/>
       <use x="63.623047" xlink:href="#DejaVuSans-48"/>
       <use x="127.246094" xlink:href="#DejaVuSans-48"/>
       <use x="190.869141" xlink:href="#DejaVuSans-48"/>
      </g>
     </g>
    </g>
    <g id="ytick_4">
     <g id="line2d_12">
      <g>
       <use style="stroke:#000000;stroke-width:0.8;" x="140.230625" xlink:href="#m3df882c3c0" y="251.761562"/>
      </g>
     </g>
     <g id="text_13">
      <!-- 3000 -->
      <g transform="translate(56.880625 263.159219)scale(0.3 -0.3)">
       <use xlink:href="#DejaVuSans-51"/>
       <use x="63.623047" xlink:href="#DejaVuSans-48"/>
       <use x="127.246094" xlink:href="#DejaVuSans-48"/>
       <use x="190.869141" xlink:href="#DejaVuSans-48"/>
      </g>
     </g>
    </g>
    <g id="ytick_5">
     <g id="line2d_13">
      <g>
       <use style="stroke:#000000;stroke-width:0.8;" x="140.230625" xlink:href="#m3df882c3c0" y="188.341563"/>
      </g>
     </g>
     <g id="text_14">
      <!-- 4000 -->
      <g transform="translate(56.880625 199.739219)scale(0.3 -0.3)">
       <use xlink:href="#DejaVuSans-52"/>
       <use x="63.623047" xlink:href="#DejaVuSans-48"/>
       <use x="127.246094" xlink:href="#DejaVuSans-48"/>
       <use x="190.869141" xlink:href="#DejaVuSans-48"/>
      </g>
     </g>
    </g>
    <g id="ytick_6">
     <g id="line2d_14">
      <g>
       <use style="stroke:#000000;stroke-width:0.8;" x="140.230625" xlink:href="#m3df882c3c0" y="124.921562"/>
      </g>
     </g>
     <g id="text_15">
      <!-- 5000 -->
      <g transform="translate(56.880625 136.319219)scale(0.3 -0.3)">
       <use xlink:href="#DejaVuSans-53"/>
       <use x="63.623047" xlink:href="#DejaVuSans-48"/>
       <use x="127.246094" xlink:href="#DejaVuSans-48"/>
       <use x="190.869141" xlink:href="#DejaVuSans-48"/>
      </g>
     </g>
    </g>
    <g id="ytick_7">
     <g id="line2d_15">
      <g>
       <use style="stroke:#000000;stroke-width:0.8;" x="140.230625" xlink:href="#m3df882c3c0" y="61.501563"/>
      </g>
     </g>
     <g id="text_16">
      <!-- 6000 -->
      <g transform="translate(56.880625 72.899219)scale(0.3 -0.3)">
       <use xlink:href="#DejaVuSans-54"/>
       <use x="63.623047" xlink:href="#DejaVuSans-48"/>
       <use x="127.246094" xlink:href="#DejaVuSans-48"/>
       <use x="190.869141" xlink:href="#DejaVuSans-48"/>
      </g>
     </g>
    </g>
    <g id="text_17">
     <!-- CANCER CELL COUNTS -->
     <defs>
      <path d="M 53.078125 26.3125 
L 67.09375 21.875 
Q 63.875 10.15625 56.375 4.46875 
Q 48.875 -1.21875 37.359375 -1.21875 
Q 23.09375 -1.21875 13.90625 8.515625 
Q 4.734375 18.265625 4.734375 35.15625 
Q 4.734375 53.03125 13.953125 62.90625 
Q 23.1875 72.796875 38.234375 72.796875 
Q 51.375 72.796875 59.578125 65.046875 
Q 64.453125 60.453125 66.890625 51.859375 
L 52.59375 48.4375 
Q 51.3125 54 47.28125 57.21875 
Q 43.265625 60.453125 37.5 60.453125 
Q 29.546875 60.453125 24.578125 54.734375 
Q 19.625 49.03125 19.625 36.234375 
Q 19.625 22.65625 24.5 16.890625 
Q 29.390625 11.140625 37.203125 11.140625 
Q 42.96875 11.140625 47.109375 14.796875 
Q 51.265625 18.453125 53.078125 26.3125 
z
" id="Arial-BoldMT-67"/>
      <path d="M 7.421875 0 
L 7.421875 71.578125 
L 21.484375 71.578125 
L 50.78125 23.78125 
L 50.78125 71.578125 
L 64.203125 71.578125 
L 64.203125 0 
L 49.703125 0 
L 20.84375 46.6875 
L 20.84375 0 
z
" id="Arial-BoldMT-78"/>
      <path d="M 7.328125 0 
L 7.328125 71.578125 
L 37.75 71.578125 
Q 49.21875 71.578125 54.421875 69.640625 
Q 59.625 67.71875 62.75 62.78125 
Q 65.875 57.859375 65.875 51.515625 
Q 65.875 43.453125 61.125 38.203125 
Q 56.390625 32.953125 46.96875 31.59375 
Q 51.65625 28.859375 54.703125 25.578125 
Q 57.765625 22.3125 62.9375 13.96875 
L 71.6875 0 
L 54.390625 0 
L 43.953125 15.578125 
Q 38.375 23.921875 36.328125 26.09375 
Q 34.28125 28.265625 31.984375 29.078125 
Q 29.6875 29.890625 24.703125 29.890625 
L 21.78125 29.890625 
L 21.78125 0 
z
M 21.78125 41.3125 
L 32.46875 41.3125 
Q 42.875 41.3125 45.453125 42.1875 
Q 48.046875 43.0625 49.515625 45.203125 
Q 50.984375 47.359375 50.984375 50.59375 
Q 50.984375 54.203125 49.046875 56.421875 
Q 47.125 58.640625 43.609375 59.234375 
Q 41.84375 59.46875 33.0625 59.46875 
L 21.78125 59.46875 
z
" id="Arial-BoldMT-82"/>
      <path d="M 7.671875 0 
L 7.671875 71 
L 22.125 71 
L 22.125 12.0625 
L 58.0625 12.0625 
L 58.0625 0 
z
" id="Arial-BoldMT-76"/>
      <path d="M 4.34375 35.359375 
Q 4.34375 46.296875 7.625 53.71875 
Q 10.0625 59.1875 14.28125 63.53125 
Q 18.5 67.875 23.53125 69.96875 
Q 30.21875 72.796875 38.96875 72.796875 
Q 54.78125 72.796875 64.28125 62.984375 
Q 73.78125 53.171875 73.78125 35.6875 
Q 73.78125 18.359375 64.359375 8.5625 
Q 54.9375 -1.21875 39.15625 -1.21875 
Q 23.1875 -1.21875 13.765625 8.515625 
Q 4.34375 18.265625 4.34375 35.359375 
z
M 19.234375 35.84375 
Q 19.234375 23.6875 24.84375 17.40625 
Q 30.46875 11.140625 39.109375 11.140625 
Q 47.75 11.140625 53.296875 17.359375 
Q 58.84375 23.578125 58.84375 36.03125 
Q 58.84375 48.34375 53.4375 54.390625 
Q 48.046875 60.453125 39.109375 60.453125 
Q 30.171875 60.453125 24.703125 54.3125 
Q 19.234375 48.1875 19.234375 35.84375 
z
" id="Arial-BoldMT-79"/>
      <path d="M 7.171875 71.578125 
L 21.625 71.578125 
L 21.625 32.8125 
Q 21.625 23.578125 22.171875 20.84375 
Q 23.09375 16.453125 26.578125 13.796875 
Q 30.078125 11.140625 36.140625 11.140625 
Q 42.28125 11.140625 45.40625 13.640625 
Q 48.53125 16.15625 49.171875 19.8125 
Q 49.8125 23.484375 49.8125 31.984375 
L 49.8125 71.578125 
L 64.265625 71.578125 
L 64.265625 33.984375 
Q 64.265625 21.09375 63.09375 15.765625 
Q 61.921875 10.453125 58.765625 6.78125 
Q 55.609375 3.125 50.328125 0.953125 
Q 45.0625 -1.21875 36.578125 -1.21875 
Q 26.3125 -1.21875 21.015625 1.140625 
Q 15.71875 3.515625 12.640625 7.296875 
Q 9.578125 11.078125 8.59375 15.234375 
Q 7.171875 21.390625 7.171875 33.40625 
z
" id="Arial-BoldMT-85"/>
     </defs>
     <g transform="translate(21.253125 368.425625)rotate(-90)scale(0.2 -0.2)">
      <use xlink:href="#Arial-BoldMT-67"/>
      <use x="72.216797" xlink:href="#Arial-BoldMT-65"/>
      <use x="144.433594" xlink:href="#Arial-BoldMT-78"/>
      <use x="216.650391" xlink:href="#Arial-BoldMT-67"/>
      <use x="288.867188" xlink:href="#Arial-BoldMT-69"/>
      <use x="355.566406" xlink:href="#Arial-BoldMT-82"/>
      <use x="427.783203" xlink:href="#Arial-BoldMT-32"/>
      <use x="455.566406" xlink:href="#Arial-BoldMT-67"/>
      <use x="527.783203" xlink:href="#Arial-BoldMT-69"/>
      <use x="594.482422" xlink:href="#Arial-BoldMT-76"/>
      <use x="655.566406" xlink:href="#Arial-BoldMT-76"/>
      <use x="716.634766" xlink:href="#Arial-BoldMT-32"/>
      <use x="744.417969" xlink:href="#Arial-BoldMT-67"/>
      <use x="816.634766" xlink:href="#Arial-BoldMT-79"/>
      <use x="894.417969" xlink:href="#Arial-BoldMT-85"/>
      <use x="966.634766" xlink:href="#Arial-BoldMT-78"/>
      <use x="1038.851562" xlink:href="#Arial-BoldMT-84"/>
      <use x="1099.935547" xlink:href="#Arial-BoldMT-83"/>
     </g>
     <!-- (NUMBERS) -->
     <defs>
      <path d="M 7.328125 71.578125 
L 35.9375 71.578125 
Q 44.4375 71.578125 48.609375 70.875 
Q 52.78125 70.171875 56.078125 67.921875 
Q 59.375 65.671875 61.5625 61.9375 
Q 63.765625 58.203125 63.765625 53.5625 
Q 63.765625 48.53125 61.046875 44.328125 
Q 58.34375 40.140625 53.71875 38.03125 
Q 60.25 36.140625 63.765625 31.546875 
Q 67.28125 26.953125 67.28125 20.75 
Q 67.28125 15.875 65.015625 11.25 
Q 62.75 6.640625 58.8125 3.875 
Q 54.890625 1.125 49.125 0.484375 
Q 45.515625 0.09375 31.6875 0 
L 7.328125 0 
z
M 21.78125 59.671875 
L 21.78125 43.109375 
L 31.25 43.109375 
Q 39.703125 43.109375 41.75 43.359375 
Q 45.453125 43.796875 47.578125 45.921875 
Q 49.703125 48.046875 49.703125 51.515625 
Q 49.703125 54.828125 47.875 56.90625 
Q 46.046875 58.984375 42.4375 59.421875 
Q 40.28125 59.671875 30.078125 59.671875 
z
M 21.78125 31.203125 
L 21.78125 12.0625 
L 35.15625 12.0625 
Q 42.96875 12.0625 45.0625 12.5 
Q 48.296875 13.09375 50.3125 15.359375 
Q 52.34375 17.625 52.34375 21.4375 
Q 52.34375 24.65625 50.78125 26.90625 
Q 49.21875 29.15625 46.265625 30.171875 
Q 43.3125 31.203125 33.453125 31.203125 
z
" id="Arial-BoldMT-66"/>
     </defs>
     <g transform="translate(42.67125 308.97875)rotate(-90)scale(0.2 -0.2)">
      <use xlink:href="#Arial-BoldMT-40"/>
      <use x="33.300781" xlink:href="#Arial-BoldMT-78"/>
      <use x="105.517578" xlink:href="#Arial-BoldMT-85"/>
      <use x="177.734375" xlink:href="#Arial-BoldMT-77"/>
      <use x="261.035156" xlink:href="#Arial-BoldMT-66"/>
      <use x="333.251953" xlink:href="#Arial-BoldMT-69"/>
      <use x="399.951172" xlink:href="#Arial-BoldMT-82"/>
      <use x="472.167969" xlink:href="#Arial-BoldMT-83"/>
      <use x="538.867188" xlink:href="#Arial-BoldMT-41"/>
     </g>
    </g>
   </g>
   <g id="line2d_16">
    <path clip-path="url(#p0b8fe7e2f2)" d="M 140.230625 378.601562 
L 168.130625 378.601562 
L 196.030625 383.484902 
L 223.930625 329.133962 
L 251.830625 327.104522 
L 279.730625 284.549702 
L 307.630625 285.183902 
L 335.530625 282.710523 
L 363.430625 308.395622 
L 391.330625 374.923203 
L 419.230625 421.917422 
L 447.130625 429.844922 
L 475.030625 434.791682 
L 502.930625 436.630862 
L 530.830625 437.899262 
" style="fill:none;stroke:#08306b;stroke-linecap:square;stroke-width:1.5;"/>
   </g>
   <g id="line2d_17">
    <path clip-path="url(#p0b8fe7e2f2)" d="M 140.230625 378.601562 
L 168.130625 378.601562 
L 196.030625 384.245942 
L 223.930625 330.085262 
L 251.830625 325.709282 
L 279.730625 284.296022 
L 307.630625 282.964202 
L 335.530625 279.095582 
L 363.430625 309.410342 
L 391.330625 380.821262 
L 419.230625 423.439502 
L 447.130625 433.586702 
L 475.030625 437.709002 
L 502.930625 439.421342 
L 530.830625 439.865282 
" style="fill:none;stroke:#08306b;stroke-linecap:square;stroke-width:1.5;"/>
   </g>
   <g id="line2d_18">
    <path clip-path="url(#p0b8fe7e2f2)" d="M 140.230625 378.601562 
L 168.130625 378.601562 
L 196.030625 384.499622 
L 223.930625 332.178122 
L 251.830625 329.133962 
L 279.730625 288.164643 
L 307.630625 290.320922 
L 335.530625 286.452302 
L 363.430625 313.596063 
L 391.330625 384.943562 
L 419.230625 428.132582 
L 447.130625 435.806402 
L 475.030625 439.104242 
L 502.930625 439.992122 
L 530.830625 440.562902 
" style="fill:none;stroke:#08306b;stroke-linecap:square;stroke-width:1.5;"/>
   </g>
   <g id="line2d_19">
    <path clip-path="url(#p0b8fe7e2f2)" d="M 140.230625 378.601562 
L 168.130625 378.601562 
L 196.030625 384.372782 
L 223.930625 329.387642 
L 251.830625 325.519023 
L 279.730625 282.393422 
L 307.630625 283.661822 
L 335.530625 278.080862 
L 363.430625 306.239343 
L 391.330625 378.474722 
L 419.230625 424.771322 
L 447.130625 433.586702 
L 475.030625 438.470042 
L 502.930625 439.738442 
L 530.830625 440.245802 
" style="fill:none;stroke:#08306b;stroke-linecap:square;stroke-width:1.5;"/>
   </g>
   <g id="line2d_20">
    <path clip-path="url(#p0b8fe7e2f2)" d="M 140.230625 378.601562 
L 168.130625 378.601562 
L 196.030625 383.421482 
L 223.930625 327.738722 
L 251.830625 322.918802 
L 279.730625 278.080862 
L 307.630625 276.495362 
L 335.530625 274.339083 
L 363.430625 302.117042 
L 391.330625 370.166702 
L 419.230625 424.390802 
L 447.130625 433.586702 
L 475.030625 436.884542 
L 502.930625 438.787142 
L 530.830625 439.548182 
" style="fill:none;stroke:#08306b;stroke-linecap:square;stroke-width:1.5;"/>
   </g>
   <g id="line2d_21">
    <path clip-path="url(#p0b8fe7e2f2)" d="M 140.230625 378.601562 
L 168.130625 378.601562 
L 196.030625 383.294642 
L 223.930625 328.372922 
L 251.830625 323.235902 
L 279.730625 277.383242 
L 307.630625 276.685623 
L 335.530625 270.026522 
L 363.430625 297.233702 
L 391.330625 363.380762 
L 419.230625 417.224342 
L 447.130625 431.240162 
L 475.030625 435.996662 
L 502.930625 439.167662 
L 530.830625 440.182382 
" style="fill:none;stroke:#08306b;stroke-linecap:square;stroke-width:1.5;"/>
   </g>
   <g id="line2d_22">
    <path clip-path="url(#p0b8fe7e2f2)" d="M 140.230625 378.601562 
L 168.130625 378.601562 
L 196.030625 383.865422 
L 223.930625 329.387642 
L 251.830625 327.167942 
L 279.730625 284.930223 
L 307.630625 285.627842 
L 335.530625 279.539522 
L 363.430625 307.317482 
L 391.330625 379.235762 
L 419.230625 424.581062 
L 447.130625 432.952502 
L 475.030625 437.391902 
L 502.930625 439.294502 
L 530.830625 439.992122 
" style="fill:none;stroke:#08306b;stroke-linecap:square;stroke-width:1.5;"/>
   </g>
   <g id="line2d_23">
    <path clip-path="url(#p0b8fe7e2f2)" d="M 140.230625 378.601562 
L 168.130625 378.601562 
L 196.030625 383.675162 
L 223.930625 328.753443 
L 251.830625 323.996942 
L 279.730625 280.807923 
L 307.630625 281.442122 
L 335.530625 277.890602 
L 363.430625 303.004923 
L 391.330625 379.108922 
L 419.230625 425.722622 
L 447.130625 433.333022 
L 475.030625 437.455322 
L 502.930625 438.470042 
L 530.830625 439.421342 
" style="fill:none;stroke:#08306b;stroke-linecap:square;stroke-width:1.5;"/>
   </g>
   <g id="line2d_24">
    <path clip-path="url(#p0b8fe7e2f2)" d="M 140.230625 378.601562 
L 168.130625 378.601562 
L 196.030625 383.484902 
L 223.930625 330.782882 
L 251.830625 326.597162 
L 279.730625 282.456842 
L 307.630625 283.788662 
L 335.530625 276.114843 
L 363.430625 306.366182 
L 391.330625 375.050042 
L 419.230625 428.196002 
L 447.130625 437.391902 
L 475.030625 440.562902 
L 502.930625 441.641042 
L 530.830625 442.021562 
" style="fill:none;stroke:#08306b;stroke-linecap:square;stroke-width:1.5;"/>
   </g>
   <g id="line2d_25">
    <path clip-path="url(#p0b8fe7e2f2)" d="M 140.230625 378.601562 
L 168.130625 378.601562 
L 196.030625 383.421482 
L 223.930625 329.958422 
L 251.830625 327.358202 
L 279.730625 285.754682 
L 307.630625 288.735422 
L 335.530625 285.818103 
L 363.430625 312.073982 
L 391.330625 380.694422 
L 419.230625 429.337562 
L 447.130625 437.455322 
L 475.030625 440.626322 
L 502.930625 441.197102 
L 530.830625 441.450782 
" style="fill:none;stroke:#08306b;stroke-linecap:square;stroke-width:1.5;"/>
   </g>
   <g id="line2d_26">
    <path clip-path="url(#p0b8fe7e2f2)" d="M 140.230625 378.601562 
L 168.130625 378.601562 
L 196.030625 379.616282 
L 223.930625 317.718363 
L 251.830625 305.985662 
L 279.730625 242.565663 
L 307.630625 227.344863 
L 335.530625 187.897623 
L 363.430625 187.897623 
L 391.330625 212.885102 
L 419.230625 273.070682 
L 447.130625 320.699102 
L 475.030625 345.369483 
L 502.930625 376.889222 
L 530.830625 399.593582 
" style="fill:none;stroke:#4a98c9;stroke-linecap:square;stroke-width:1.5;"/>
   </g>
   <g id="line2d_27">
    <path clip-path="url(#p0b8fe7e2f2)" d="M 140.230625 378.601562 
L 168.130625 378.601562 
L 196.030625 379.616282 
L 223.930625 318.352562 
L 251.830625 307.127223 
L 279.730625 246.370862 
L 307.630625 231.657422 
L 335.530625 194.746983 
L 363.430625 196.839843 
L 391.330625 222.651782 
L 419.230625 293.935862 
L 447.130625 342.008222 
L 475.030625 359.575562 
L 502.930625 384.753302 
L 530.830625 405.174542 
" style="fill:none;stroke:#4a98c9;stroke-linecap:square;stroke-width:1.5;"/>
   </g>
   <g id="line2d_28">
    <path clip-path="url(#p0b8fe7e2f2)" d="M 140.230625 378.601562 
L 168.130625 378.601562 
L 196.030625 379.299182 
L 223.930625 318.225722 
L 251.830625 307.127223 
L 279.730625 244.531682 
L 307.630625 228.169322 
L 335.530625 190.180743 
L 363.430625 190.117323 
L 391.330625 213.836402 
L 419.230625 276.368522 
L 447.130625 322.157762 
L 475.030625 346.764722 
L 502.930625 369.469082 
L 530.830625 392.617382 
" style="fill:none;stroke:#4a98c9;stroke-linecap:square;stroke-width:1.5;"/>
   </g>
   <g id="line2d_29">
    <path clip-path="url(#p0b8fe7e2f2)" d="M 140.230625 378.601562 
L 168.130625 378.601562 
L 196.030625 379.489442 
L 223.930625 318.606243 
L 251.830625 306.873542 
L 279.730625 243.073022 
L 307.630625 229.310882 
L 335.530625 189.673383 
L 363.430625 191.512563 
L 391.330625 215.739002 
L 419.230625 288.228062 
L 447.130625 338.076182 
L 475.030625 357.355862 
L 502.930625 381.011522 
L 530.830625 400.227782 
" style="fill:none;stroke:#4a98c9;stroke-linecap:square;stroke-width:1.5;"/>
   </g>
   <g id="line2d_30">
    <path clip-path="url(#p0b8fe7e2f2)" d="M 140.230625 378.601562 
L 168.130625 378.601562 
L 196.030625 379.426022 
L 223.930625 317.528102 
L 251.830625 306.873542 
L 279.730625 241.043582 
L 307.630625 226.456982 
L 335.530625 187.263422 
L 363.430625 189.927063 
L 391.330625 215.929262 
L 419.230625 282.520262 
L 447.130625 330.021842 
L 475.030625 353.931182 
L 502.930625 380.377322 
L 530.830625 400.291202 
" style="fill:none;stroke:#4a98c9;stroke-linecap:square;stroke-width:1.5;"/>
   </g>
   <g id="line2d_31">
    <path clip-path="url(#p0b8fe7e2f2)" d="M 140.230625 378.601562 
L 168.130625 378.601562 
L 196.030625 379.616282 
L 223.930625 317.972042 
L 251.830625 307.571163 
L 279.730625 243.326702 
L 307.630625 229.057202 
L 335.530625 190.053902 
L 363.430625 191.639402 
L 391.330625 215.168222 
L 419.230625 279.032162 
L 447.130625 326.153222 
L 475.030625 351.457802 
L 502.930625 376.572122 
L 530.830625 399.910682 
" style="fill:none;stroke:#4a98c9;stroke-linecap:square;stroke-width:1.5;"/>
   </g>
   <g id="line2d_32">
    <path clip-path="url(#p0b8fe7e2f2)" d="M 140.230625 378.601562 
L 168.130625 378.601562 
L 196.030625 379.552862 
L 223.930625 318.162303 
L 251.830625 307.317482 
L 279.730625 243.453542 
L 307.630625 229.881663 
L 335.530625 193.161483 
L 363.430625 192.463863 
L 391.330625 223.032302 
L 419.230625 291.589322 
L 447.130625 329.895002 
L 475.030625 353.423822 
L 502.930625 382.153082 
L 530.830625 399.720422 
" style="fill:none;stroke:#4a98c9;stroke-linecap:square;stroke-width:1.5;"/>
   </g>
   <g id="line2d_33">
    <path clip-path="url(#p0b8fe7e2f2)" d="M 140.230625 378.601562 
L 168.130625 378.601562 
L 196.030625 379.743122 
L 223.930625 318.733082 
L 251.830625 307.190642 
L 279.730625 242.565663 
L 307.630625 230.198762 
L 335.530625 195.571442 
L 363.430625 195.571442 
L 391.330625 226.266722 
L 419.230625 290.955123 
L 447.130625 337.505402 
L 475.030625 359.195042 
L 502.930625 387.670622 
L 530.830625 405.174542 
" style="fill:none;stroke:#4a98c9;stroke-linecap:square;stroke-width:1.5;"/>
   </g>
   <g id="line2d_34">
    <path clip-path="url(#p0b8fe7e2f2)" d="M 140.230625 378.601562 
L 168.130625 378.601562 
L 196.030625 379.679702 
L 223.930625 319.113602 
L 251.830625 309.156662 
L 279.730625 245.165882 
L 307.630625 232.291622 
L 335.530625 192.083342 
L 363.430625 195.444603 
L 391.330625 221.383382 
L 419.230625 293.682182 
L 447.130625 346.193942 
L 475.030625 366.615182 
L 502.930625 392.997902 
L 530.830625 412.341002 
" style="fill:none;stroke:#4a98c9;stroke-linecap:square;stroke-width:1.5;"/>
   </g>
   <g id="line2d_35">
    <path clip-path="url(#p0b8fe7e2f2)" d="M 140.230625 378.601562 
L 168.130625 378.601562 
L 196.030625 379.743122 
L 223.930625 318.542822 
L 251.830625 307.507742 
L 279.730625 248.083202 
L 307.630625 233.496602 
L 335.530625 195.127502 
L 363.430625 197.664302 
L 391.330625 225.442262 
L 419.230625 288.989102 
L 447.130625 340.803242 
L 475.030625 365.854142 
L 502.930625 389.509802 
L 530.830625 407.140562 
" style="fill:none;stroke:#4a98c9;stroke-linecap:square;stroke-width:1.5;"/>
   </g>
   <g id="line2d_36">
    <path clip-path="url(#p0b8fe7e2f2)" d="M 140.230625 378.601562 
L 168.130625 378.601562 
L 196.030625 378.728402 
L 223.930625 316.006022 
L 251.830625 304.717262 
L 279.730625 238.697042 
L 307.630625 222.398102 
L 335.530625 175.023363 
L 363.430625 169.696082 
L 391.330625 166.207983 
L 419.230625 168.237422 
L 447.130625 175.086783 
L 475.030625 182.443503 
L 502.930625 189.419702 
L 530.830625 194.937242 
" style="fill:none;stroke:#d0e1f2;stroke-linecap:square;stroke-width:1.5;"/>
   </g>
   <g id="line2d_37">
    <path clip-path="url(#p0b8fe7e2f2)" d="M 140.230625 378.601562 
L 168.130625 378.601562 
L 196.030625 378.918662 
L 223.930625 316.893902 
L 251.830625 304.844102 
L 279.730625 239.204402 
L 307.630625 223.159143 
L 335.530625 179.145663 
L 363.430625 175.403883 
L 391.330625 171.345003 
L 419.230625 177.116222 
L 447.130625 183.331383 
L 475.030625 188.024462 
L 502.930625 194.239622 
L 530.830625 200.010842 
" style="fill:none;stroke:#d0e1f2;stroke-linecap:square;stroke-width:1.5;"/>
   </g>
   <g id="line2d_38">
    <path clip-path="url(#p0b8fe7e2f2)" d="M 140.230625 378.601562 
L 168.130625 378.601562 
L 196.030625 378.918662 
L 223.930625 317.211002 
L 251.830625 305.414882 
L 279.730625 242.438822 
L 307.630625 225.378842 
L 335.530625 179.462762 
L 363.430625 174.072063 
L 391.330625 169.696082 
L 419.230625 173.818382 
L 447.130625 180.160383 
L 475.030625 185.677923 
L 502.930625 190.688102 
L 530.830625 195.951963 
" style="fill:none;stroke:#d0e1f2;stroke-linecap:square;stroke-width:1.5;"/>
   </g>
   <g id="line2d_39">
    <path clip-path="url(#p0b8fe7e2f2)" d="M 140.230625 378.601562 
L 168.130625 378.601562 
L 196.030625 378.791822 
L 223.930625 316.386542 
L 251.830625 304.653842 
L 279.730625 238.126262 
L 307.630625 222.588362 
L 335.530625 176.989382 
L 363.430625 173.057343 
L 391.330625 170.013183 
L 419.230625 174.072063 
L 447.130625 183.331383 
L 475.030625 191.195462 
L 502.930625 197.283783 
L 530.830625 204.577082 
" style="fill:none;stroke:#d0e1f2;stroke-linecap:square;stroke-width:1.5;"/>
   </g>
   <g id="line2d_40">
    <path clip-path="url(#p0b8fe7e2f2)" d="M 140.230625 378.601562 
L 168.130625 378.601562 
L 196.030625 378.728402 
L 223.930625 315.942602 
L 251.830625 303.829382 
L 279.730625 237.048122 
L 307.630625 220.558922 
L 335.530625 173.374442 
L 363.430625 168.300842 
L 391.330625 163.544343 
L 419.230625 170.964482 
L 447.130625 176.355183 
L 475.030625 180.667742 
L 502.930625 189.483123 
L 530.830625 195.254343 
" style="fill:none;stroke:#d0e1f2;stroke-linecap:square;stroke-width:1.5;"/>
   </g>
   <g id="line2d_41">
    <path clip-path="url(#p0b8fe7e2f2)" d="M 140.230625 378.601562 
L 168.130625 378.601562 
L 196.030625 378.855242 
L 223.930625 316.069442 
L 251.830625 305.161202 
L 279.730625 237.174962 
L 307.630625 222.144422 
L 335.530625 173.628123 
L 363.430625 169.252142 
L 391.330625 164.939583 
L 419.230625 169.125302 
L 447.130625 179.018822 
L 475.030625 183.965582 
L 502.930625 189.166022 
L 530.830625 196.522742 
" style="fill:none;stroke:#d0e1f2;stroke-linecap:square;stroke-width:1.5;"/>
   </g>
   <g id="line2d_42">
    <path clip-path="url(#p0b8fe7e2f2)" d="M 140.230625 378.601562 
L 168.130625 378.601562 
L 196.030625 378.791822 
L 223.930625 316.703643 
L 251.830625 305.097782 
L 279.730625 238.823882 
L 307.630625 223.539662 
L 335.530625 175.086783 
L 363.430625 170.901063 
L 391.330625 167.476382 
L 419.230625 169.252142 
L 447.130625 176.418603 
L 475.030625 183.014282 
L 502.930625 187.897623 
L 530.830625 195.064082 
" style="fill:none;stroke:#d0e1f2;stroke-linecap:square;stroke-width:1.5;"/>
   </g>
   <g id="line2d_43">
    <path clip-path="url(#p0b8fe7e2f2)" d="M 140.230625 378.601562 
L 168.130625 378.601562 
L 196.030625 378.982082 
L 223.930625 316.830482 
L 251.830625 304.844102 
L 279.730625 239.014142 
L 307.630625 224.808063 
L 335.530625 179.018822 
L 363.430625 173.691543 
L 391.330625 170.837643 
L 419.230625 173.881802 
L 447.130625 180.984843 
L 475.030625 186.248703 
L 502.930625 194.810403 
L 530.830625 201.850022 
" style="fill:none;stroke:#d0e1f2;stroke-linecap:square;stroke-width:1.5;"/>
   </g>
   <g id="line2d_44">
    <path clip-path="url(#p0b8fe7e2f2)" d="M 140.230625 378.601562 
L 168.130625 378.601562 
L 196.030625 378.728402 
L 223.930625 317.084162 
L 251.830625 306.302762 
L 279.730625 239.648342 
L 307.630625 226.013042 
L 335.530625 179.082243 
L 363.430625 175.150202 
L 391.330625 172.042622 
L 419.230625 175.784402 
L 447.130625 184.282683 
L 475.030625 191.449142 
L 502.930625 197.410622 
L 530.830625 204.006303 
" style="fill:none;stroke:#d0e1f2;stroke-linecap:square;stroke-width:1.5;"/>
   </g>
   <g id="line2d_45">
    <path clip-path="url(#p0b8fe7e2f2)" d="M 140.230625 378.601562 
L 168.130625 378.601562 
L 196.030625 379.045502 
L 223.930625 317.084162 
L 251.830625 304.970942 
L 279.730625 242.248562 
L 307.630625 225.759362 
L 335.530625 177.369903 
L 363.430625 173.120763 
L 391.330625 169.822923 
L 419.230625 171.662103 
L 447.130625 179.272502 
L 475.030625 185.677923 
L 502.930625 191.512563 
L 530.830625 197.347203 
" style="fill:none;stroke:#d0e1f2;stroke-linecap:square;stroke-width:1.5;"/>
   </g>
   <g id="line2d_46">
    <path clip-path="url(#p0b8fe7e2f2)" d="M 140.230625 378.601562 
L 168.130625 378.601562 
L 196.030625 381.265202 
L 223.930625 322.918802 
L 251.830625 316.006022 
L 279.730625 261.528242 
L 307.630625 254.298362 
L 335.530625 235.969982 
L 363.430625 260.513523 
L 391.330625 340.676402 
L 419.230625 408.599222 
L 447.130625 424.517642 
L 475.030625 430.796222 
L 502.930625 433.776962 
L 530.830625 435.489302 
" style="fill:none;stroke:#1764ab;stroke-linecap:square;stroke-width:1.5;"/>
   </g>
   <g id="line2d_47">
    <path clip-path="url(#p0b8fe7e2f2)" d="M 140.230625 378.601562 
L 168.130625 378.601562 
L 196.030625 381.899402 
L 223.930625 324.377462 
L 251.830625 315.879182 
L 279.730625 263.684522 
L 307.630625 255.883862 
L 335.530625 237.809162 
L 363.430625 264.382142 
L 391.330625 339.344583 
L 419.230625 403.715882 
L 447.130625 424.073702 
L 475.030625 434.157482 
L 502.930625 438.533462 
L 530.830625 439.801862 
" style="fill:none;stroke:#1764ab;stroke-linecap:square;stroke-width:1.5;"/>
   </g>
   <g id="line2d_48">
    <path clip-path="url(#p0b8fe7e2f2)" d="M 140.230625 378.601562 
L 168.130625 378.601562 
L 196.030625 381.709142 
L 223.930625 324.377462 
L 251.830625 316.640222 
L 279.730625 263.874782 
L 307.630625 256.708323 
L 335.530625 238.506782 
L 363.430625 261.147722 
L 391.330625 341.374022 
L 419.230625 410.438402 
L 447.130625 423.312662 
L 475.030625 431.493842 
L 502.930625 436.504022 
L 530.830625 437.772422 
" style="fill:none;stroke:#1764ab;stroke-linecap:square;stroke-width:1.5;"/>
   </g>
   <g id="line2d_49">
    <path clip-path="url(#p0b8fe7e2f2)" d="M 140.230625 378.601562 
L 168.130625 378.601562 
L 196.030625 381.962822 
L 223.930625 323.553002 
L 251.830625 315.688922 
L 279.730625 261.274563 
L 307.630625 255.566762 
L 335.530625 236.921282 
L 363.430625 263.113742 
L 391.330625 345.052382 
L 419.230625 413.038622 
L 447.130625 427.308122 
L 475.030625 435.933242 
L 502.930625 439.040822 
L 530.830625 439.865282 
" style="fill:none;stroke:#1764ab;stroke-linecap:square;stroke-width:1.5;"/>
   </g>
   <g id="line2d_50">
    <path clip-path="url(#p0b8fe7e2f2)" d="M 140.230625 378.601562 
L 168.130625 378.601562 
L 196.030625 381.518882 
L 223.930625 322.411442 
L 251.830625 316.323122 
L 279.730625 260.894042 
L 307.630625 254.678882 
L 335.530625 236.921282 
L 363.430625 261.211142 
L 391.330625 334.841762 
L 419.230625 407.203982 
L 447.130625 425.151842 
L 475.030625 433.206182 
L 502.930625 438.089522 
L 530.830625 438.850562 
" style="fill:none;stroke:#1764ab;stroke-linecap:square;stroke-width:1.5;"/>
   </g>
   <g id="line2d_51">
    <path clip-path="url(#p0b8fe7e2f2)" d="M 140.230625 378.601562 
L 168.130625 378.601562 
L 196.030625 381.709142 
L 223.930625 323.489582 
L 251.830625 314.674202 
L 279.730625 260.259842 
L 307.630625 254.044682 
L 335.530625 239.204402 
L 363.430625 258.991442 
L 391.330625 329.260802 
L 419.230625 404.857442 
L 447.130625 424.834742 
L 475.030625 432.381722 
L 502.930625 437.011382 
L 530.830625 439.167662 
" style="fill:none;stroke:#1764ab;stroke-linecap:square;stroke-width:1.5;"/>
   </g>
   <g id="line2d_52">
    <path clip-path="url(#p0b8fe7e2f2)" d="M 140.230625 378.601562 
L 168.130625 378.601562 
L 196.030625 382.470182 
L 223.930625 325.519023 
L 251.830625 318.225722 
L 279.730625 265.270022 
L 307.630625 261.274563 
L 335.530625 249.097922 
L 363.430625 272.880423 
L 391.330625 353.487242 
L 419.230625 410.501822 
L 447.130625 427.625222 
L 475.030625 434.284322 
L 502.930625 437.328482 
L 530.830625 438.343202 
" style="fill:none;stroke:#1764ab;stroke-linecap:square;stroke-width:1.5;"/>
   </g>
   <g id="line2d_53">
    <path clip-path="url(#p0b8fe7e2f2)" d="M 140.230625 378.601562 
L 168.130625 378.601562 
L 196.030625 381.772562 
L 223.930625 324.250622 
L 251.830625 316.196282 
L 279.730625 264.699242 
L 307.630625 259.498803 
L 335.530625 245.673242 
L 363.430625 269.075222 
L 391.330625 348.096542 
L 419.230625 414.243602 
L 447.130625 429.464402 
L 475.030625 436.757702 
L 502.930625 438.533462 
L 530.830625 439.294502 
" style="fill:none;stroke:#1764ab;stroke-linecap:square;stroke-width:1.5;"/>
   </g>
   <g id="line2d_54">
    <path clip-path="url(#p0b8fe7e2f2)" d="M 140.230625 378.601562 
L 168.130625 378.601562 
L 196.030625 381.835983 
L 223.930625 324.694562 
L 251.830625 317.781782 
L 279.730625 264.572402 
L 307.630625 258.357242 
L 335.530625 241.804622 
L 363.430625 265.713962 
L 391.330625 349.682042 
L 419.230625 410.565242 
L 447.130625 425.532362 
L 475.030625 434.918522 
L 502.930625 439.231082 
L 530.830625 440.626322 
" style="fill:none;stroke:#1764ab;stroke-linecap:square;stroke-width:1.5;"/>
   </g>
   <g id="line2d_55">
    <path clip-path="url(#p0b8fe7e2f2)" d="M 140.230625 378.601562 
L 168.130625 378.601562 
L 196.030625 382.343342 
L 223.930625 324.567722 
L 251.830625 316.513382 
L 279.730625 265.143182 
L 307.630625 260.513523 
L 335.530625 248.336883 
L 363.430625 271.612022 
L 391.330625 352.853042 
L 419.230625 412.467842 
L 447.130625 427.117862 
L 475.030625 435.172202 
L 502.930625 438.977402 
L 530.830625 440.562902 
" style="fill:none;stroke:#1764ab;stroke-linecap:square;stroke-width:1.5;"/>
   </g>
   <g id="line2d_56">
    <path clip-path="url(#p0b8fe7e2f2)" d="M 140.230625 378.601562 
L 168.130625 378.601562 
L 196.030625 379.235762 
L 223.930625 317.020742 
L 251.830625 305.668563 
L 279.730625 239.077562 
L 307.630625 224.871482 
L 335.530625 181.365363 
L 363.430625 178.701723 
L 391.330625 187.136583 
L 419.230625 230.071922 
L 447.130625 272.055962 
L 475.030625 291.525902 
L 502.930625 315.118142 
L 530.830625 342.959522 
" style="fill:none;stroke:#94c4df;stroke-linecap:square;stroke-width:1.5;"/>
   </g>
   <g id="line2d_57">
    <path clip-path="url(#p0b8fe7e2f2)" d="M 140.230625 378.601562 
L 168.130625 378.601562 
L 196.030625 378.918662 
L 223.930625 316.893902 
L 251.830625 304.780683 
L 279.730625 242.755922 
L 307.630625 226.393563 
L 335.530625 183.585062 
L 363.430625 180.477483 
L 391.330625 187.073162 
L 419.230625 222.081002 
L 447.130625 252.776282 
L 475.030625 271.802282 
L 502.930625 302.434143 
L 530.830625 328.055822 
" style="fill:none;stroke:#94c4df;stroke-linecap:square;stroke-width:1.5;"/>
   </g>
   <g id="line2d_58">
    <path clip-path="url(#p0b8fe7e2f2)" d="M 140.230625 378.601562 
L 168.130625 378.601562 
L 196.030625 379.235762 
L 223.930625 317.845202 
L 251.830625 306.366182 
L 279.730625 243.073022 
L 307.630625 228.613262 
L 335.530625 187.707362 
L 363.430625 184.663203 
L 391.330625 199.757162 
L 419.230625 233.306342 
L 447.130625 265.016342 
L 475.030625 288.672002 
L 502.930625 314.547362 
L 530.830625 336.363842 
" style="fill:none;stroke:#94c4df;stroke-linecap:square;stroke-width:1.5;"/>
   </g>
   <g id="line2d_59">
    <path clip-path="url(#p0b8fe7e2f2)" d="M 140.230625 378.601562 
L 168.130625 378.601562 
L 196.030625 379.235762 
L 223.930625 317.274422 
L 251.830625 305.541722 
L 279.730625 242.375402 
L 307.630625 226.583822 
L 335.530625 184.853462 
L 363.430625 183.014282 
L 391.330625 191.068623 
L 419.230625 227.979062 
L 447.130625 267.109202 
L 475.030625 291.272222 
L 502.930625 319.874642 
L 530.830625 344.545022 
" style="fill:none;stroke:#94c4df;stroke-linecap:square;stroke-width:1.5;"/>
   </g>
   <g id="line2d_60">
    <path clip-path="url(#p0b8fe7e2f2)" d="M 140.230625 378.601562 
L 168.130625 378.601562 
L 196.030625 379.108922 
L 223.930625 316.767062 
L 251.830625 305.858822 
L 279.730625 238.697042 
L 307.630625 224.490962 
L 335.530625 183.331383 
L 363.430625 180.604323 
L 391.330625 190.561262 
L 419.230625 223.729922 
L 447.130625 253.473902 
L 475.030625 279.285842 
L 502.930625 301.926782 
L 530.830625 324.694562 
" style="fill:none;stroke:#94c4df;stroke-linecap:square;stroke-width:1.5;"/>
   </g>
   <g id="line2d_61">
    <path clip-path="url(#p0b8fe7e2f2)" d="M 140.230625 378.601562 
L 168.130625 378.601562 
L 196.030625 379.235762 
L 223.930625 316.830482 
L 251.830625 306.429602 
L 279.730625 240.726483 
L 307.630625 224.554383 
L 335.530625 183.141122 
L 363.430625 180.160383 
L 391.330625 189.483123 
L 419.230625 224.110443 
L 447.130625 263.240582 
L 475.030625 282.900782 
L 502.930625 309.917703 
L 530.830625 334.461242 
" style="fill:none;stroke:#94c4df;stroke-linecap:square;stroke-width:1.5;"/>
   </g>
   <g id="line2d_62">
    <path clip-path="url(#p0b8fe7e2f2)" d="M 140.230625 378.601562 
L 168.130625 378.601562 
L 196.030625 379.045502 
L 223.930625 317.211002 
L 251.830625 305.795402 
L 279.730625 242.565663 
L 307.630625 227.344863 
L 335.530625 184.092422 
L 363.430625 181.745882 
L 391.330625 191.956502 
L 419.230625 227.408282 
L 447.130625 265.523703 
L 475.030625 288.354902 
L 502.930625 314.991302 
L 530.830625 337.315142 
" style="fill:none;stroke:#94c4df;stroke-linecap:square;stroke-width:1.5;"/>
   </g>
   <g id="line2d_63">
    <path clip-path="url(#p0b8fe7e2f2)" d="M 140.230625 378.601562 
L 168.130625 378.601562 
L 196.030625 379.489442 
L 223.930625 317.908622 
L 251.830625 305.922242 
L 279.730625 240.536222 
L 307.630625 228.105902 
L 335.530625 185.107143 
L 363.430625 185.297402 
L 391.330625 194.493302 
L 419.230625 229.184043 
L 447.130625 267.299463 
L 475.030625 290.320922 
L 502.930625 315.181562 
L 530.830625 341.310602 
" style="fill:none;stroke:#94c4df;stroke-linecap:square;stroke-width:1.5;"/>
   </g>
   <g id="line2d_64">
    <path clip-path="url(#p0b8fe7e2f2)" d="M 140.230625 378.601562 
L 168.130625 378.601562 
L 196.030625 378.982082 
L 223.930625 317.845202 
L 251.830625 308.205362 
L 279.730625 241.043582 
L 307.630625 228.486423 
L 335.530625 185.677923 
L 363.430625 184.092422 
L 391.330625 190.053902 
L 419.230625 223.349402 
L 447.130625 268.187342 
L 475.030625 291.018542 
L 502.930625 314.737622 
L 530.830625 342.515582 
" style="fill:none;stroke:#94c4df;stroke-linecap:square;stroke-width:1.5;"/>
   </g>
   <g id="line2d_65">
    <path clip-path="url(#p0b8fe7e2f2)" d="M 140.230625 378.601562 
L 168.130625 378.601562 
L 196.030625 379.616282 
L 223.930625 318.289142 
L 251.830625 306.366182 
L 279.730625 243.390122 
L 307.630625 229.120622 
L 335.530625 189.292862 
L 363.430625 188.341563 
L 391.330625 202.611063 
L 419.230625 248.083202 
L 447.130625 294.062703 
L 475.030625 314.610782 
L 502.930625 337.759082 
L 530.830625 357.990062 
" style="fill:none;stroke:#94c4df;stroke-linecap:square;stroke-width:1.5;"/>
   </g>
   <g id="line2d_66">
    <path clip-path="url(#p0b8fe7e2f2)" d="M 140.230625 378.601562 
L 168.130625 378.601562 
L 196.030625 378.728402 
L 223.930625 315.879182 
L 251.830625 306.366182 
L 279.730625 234.003963 
L 307.630625 218.148962 
L 335.530625 146.040422 
L 363.430625 135.893222 
L 391.330625 117.755103 
L 419.230625 109.066563 
L 447.130625 101.773262 
L 475.030625 95.621523 
L 502.930625 92.767623 
L 530.830625 89.152683 
" style="fill:none;stroke:#000000;stroke-linecap:square;stroke-width:1.5;"/>
   </g>
   <g id="line2d_67">
    <path clip-path="url(#p0b8fe7e2f2)" d="M 140.230625 378.601562 
L 168.130625 378.601562 
L 196.030625 378.791822 
L 223.930625 316.640222 
L 251.830625 307.000383 
L 279.730625 238.126262 
L 307.630625 221.319963 
L 335.530625 152.382423 
L 363.430625 142.932842 
L 391.330625 123.526322 
L 419.230625 117.438002 
L 447.130625 109.954443 
L 475.030625 103.422183 
L 502.930625 100.187763 
L 530.830625 97.777803 
" style="fill:none;stroke:#000000;stroke-linecap:square;stroke-width:1.5;"/>
   </g>
   <g id="line2d_68">
    <path clip-path="url(#p0b8fe7e2f2)" d="M 140.230625 378.601562 
L 168.130625 378.601562 
L 196.030625 378.791822 
L 223.930625 316.893902 
L 251.830625 307.063802 
L 279.730625 237.492063 
L 307.630625 219.861302 
L 335.530625 146.103842 
L 363.430625 137.415302 
L 391.330625 117.881943 
L 419.230625 110.905743 
L 447.130625 104.183222 
L 475.030625 97.841223 
L 502.930625 94.226283 
L 530.830625 91.499223 
" style="fill:none;stroke:#000000;stroke-linecap:square;stroke-width:1.5;"/>
   </g>
   <g id="line2d_69">
    <path clip-path="url(#p0b8fe7e2f2)" d="M 140.230625 378.601562 
L 168.130625 378.601562 
L 196.030625 378.791822 
L 223.930625 316.386542 
L 251.830625 306.746702 
L 279.730625 236.287082 
L 307.630625 220.558922 
L 335.530625 150.733502 
L 363.430625 141.537602 
L 391.330625 121.560303 
L 419.230625 114.140163 
L 447.130625 107.481063 
L 475.030625 101.392742 
L 502.930625 97.460703 
L 530.830625 94.987323 
" style="fill:none;stroke:#000000;stroke-linecap:square;stroke-width:1.5;"/>
   </g>
   <g id="line2d_70">
    <path clip-path="url(#p0b8fe7e2f2)" d="M 140.230625 378.601562 
L 168.130625 378.601562 
L 196.030625 378.664982 
L 223.930625 315.752342 
L 251.830625 306.366182 
L 279.730625 233.179502 
L 307.630625 216.690303 
L 335.530625 145.533063 
L 363.430625 137.288462 
L 391.330625 115.789083 
L 419.230625 109.383663 
L 447.130625 102.914823 
L 475.030625 97.841223 
L 502.930625 95.431263 
L 530.830625 92.894463 
" style="fill:none;stroke:#000000;stroke-linecap:square;stroke-width:1.5;"/>
   </g>
   <g id="line2d_71">
    <path clip-path="url(#p0b8fe7e2f2)" d="M 140.230625 378.601562 
L 168.130625 378.601562 
L 196.030625 378.664982 
L 223.930625 315.688922 
L 251.830625 306.049082 
L 279.730625 234.257643 
L 307.630625 219.290522 
L 335.530625 146.864883 
L 363.430625 136.971362 
L 391.330625 117.564842 
L 419.230625 109.764183 
L 447.130625 103.041663 
L 475.030625 97.016763 
L 502.930625 93.718923 
L 530.830625 91.689482 
" style="fill:none;stroke:#000000;stroke-linecap:square;stroke-width:1.5;"/>
   </g>
   <g id="line2d_72">
    <path clip-path="url(#p0b8fe7e2f2)" d="M 140.230625 378.601562 
L 168.130625 378.601562 
L 196.030625 378.791822 
L 223.930625 316.386542 
L 251.830625 307.190642 
L 279.730625 237.365222 
L 307.630625 220.749182 
L 335.530625 150.416403 
L 363.430625 139.888683 
L 391.330625 118.769823 
L 419.230625 111.666783 
L 447.130625 105.261363 
L 475.030625 100.314603 
L 502.930625 97.777803 
L 530.830625 95.241003 
" style="fill:none;stroke:#000000;stroke-linecap:square;stroke-width:1.5;"/>
   </g>
   <g id="line2d_73">
    <path clip-path="url(#p0b8fe7e2f2)" d="M 140.230625 378.601562 
L 168.130625 378.601562 
L 196.030625 378.855242 
L 223.930625 316.576802 
L 251.830625 306.683283 
L 279.730625 235.462622 
L 307.630625 220.685762 
L 335.530625 152.572682 
L 363.430625 142.806002 
L 391.330625 123.780003 
L 419.230625 115.852503 
L 447.130625 108.749462 
L 475.030625 102.534303 
L 502.930625 99.426723 
L 530.830625 96.128883 
" style="fill:none;stroke:#000000;stroke-linecap:square;stroke-width:1.5;"/>
   </g>
   <g id="line2d_74">
    <path clip-path="url(#p0b8fe7e2f2)" d="M 140.230625 378.601562 
L 168.130625 378.601562 
L 196.030625 378.664982 
L 223.930625 316.830482 
L 251.830625 308.712722 
L 279.730625 235.526042 
L 307.630625 221.510222 
L 335.530625 149.465103 
L 363.430625 140.142362 
L 391.330625 118.642983 
L 419.230625 112.427822 
L 447.130625 104.944263 
L 475.030625 98.919363 
L 502.930625 96.002043 
L 530.830625 94.099443 
" style="fill:none;stroke:#000000;stroke-linecap:square;stroke-width:1.5;"/>
   </g>
   <g id="line2d_75">
    <path clip-path="url(#p0b8fe7e2f2)" d="M 140.230625 378.601562 
L 168.130625 378.601562 
L 196.030625 378.918662 
L 223.930625 316.767062 
L 251.830625 306.112503 
L 279.730625 236.477342 
L 307.630625 222.842042 
L 335.530625 154.285023 
L 363.430625 145.469643 
L 391.330625 126.380223 
L 419.230625 118.389302 
L 447.130625 110.652062 
L 475.030625 104.183222 
L 502.930625 99.807243 
L 530.830625 95.748362 
" style="fill:none;stroke:#000000;stroke-linecap:square;stroke-width:1.5;"/>
   </g>
   <g id="line2d_76">
    <path clip-path="url(#p0b8fe7e2f2)" d="M 140.230625 442.021562 
" style="fill:none;stroke:#000000;stroke-linecap:square;stroke-width:1.5;"/>
   </g>
   <g id="line2d_77">
    <path clip-path="url(#p0b8fe7e2f2)" d="M 140.230625 442.021562 
" style="fill:none;stroke:#d0e1f2;stroke-linecap:square;stroke-width:1.5;"/>
   </g>
   <g id="line2d_78">
    <path clip-path="url(#p0b8fe7e2f2)" d="M 140.230625 442.021562 
" style="fill:none;stroke:#94c4df;stroke-linecap:square;stroke-width:1.5;"/>
   </g>
   <g id="line2d_79">
    <path clip-path="url(#p0b8fe7e2f2)" d="M 140.230625 442.021562 
" style="fill:none;stroke:#4a98c9;stroke-linecap:square;stroke-width:1.5;"/>
   </g>
   <g id="line2d_80">
    <path clip-path="url(#p0b8fe7e2f2)" d="M 140.230625 442.021562 
" style="fill:none;stroke:#1764ab;stroke-linecap:square;stroke-width:1.5;"/>
   </g>
   <g id="line2d_81">
    <path clip-path="url(#p0b8fe7e2f2)" d="M 140.230625 442.021562 
" style="fill:none;stroke:#08306b;stroke-linecap:square;stroke-width:1.5;"/>
   </g>
   <g id="patch_3">
    <path d="M 140.230625 442.021562 
L 140.230625 61.501563 
" style="fill:none;stroke:#000000;stroke-linecap:square;stroke-linejoin:miter;stroke-width:0.8;"/>
   </g>
   <g id="patch_4">
    <path d="M 530.830625 442.021562 
L 530.830625 61.501563 
" style="fill:none;stroke:#000000;stroke-linecap:square;stroke-linejoin:miter;stroke-width:0.8;"/>
   </g>
   <g id="patch_5">
    <path d="M 140.230625 442.021562 
L 530.830625 442.021562 
" style="fill:none;stroke:#000000;stroke-linecap:square;stroke-linejoin:miter;stroke-width:0.8;"/>
   </g>
   <g id="patch_6">
    <path d="M 140.230625 61.501562 
L 530.830625 61.501562 
" style="fill:none;stroke:#000000;stroke-linecap:square;stroke-linejoin:miter;stroke-width:0.8;"/>
   </g>
   <g id="text_18">
    <!-- CANCER COUNT -->
    <g transform="translate(234.143906 25.094531)scale(0.25 -0.25)">
     <use xlink:href="#Arial-BoldMT-67"/>
     <use x="72.216797" xlink:href="#Arial-BoldMT-65"/>
     <use x="144.433594" xlink:href="#Arial-BoldMT-78"/>
     <use x="216.650391" xlink:href="#Arial-BoldMT-67"/>
     <use x="288.867188" xlink:href="#Arial-BoldMT-69"/>
     <use x="355.566406" xlink:href="#Arial-BoldMT-82"/>
     <use x="427.783203" xlink:href="#Arial-BoldMT-32"/>
     <use x="455.566406" xlink:href="#Arial-BoldMT-67"/>
     <use x="527.783203" xlink:href="#Arial-BoldMT-79"/>
     <use x="605.566406" xlink:href="#Arial-BoldMT-85"/>
     <use x="677.783203" xlink:href="#Arial-BoldMT-78"/>
     <use x="750" xlink:href="#Arial-BoldMT-84"/>
    </g>
    <!-- OVER TIME -->
    <defs>
     <path d="M 25.53125 0 
L -0.046875 71.578125 
L 15.625 71.578125 
L 33.734375 18.609375 
L 51.265625 71.578125 
L 66.609375 71.578125 
L 40.96875 0 
z
" id="Arial-BoldMT-86"/>
    </defs>
    <g transform="translate(266.774766 51.501562)scale(0.25 -0.25)">
     <use xlink:href="#Arial-BoldMT-79"/>
     <use x="77.783203" xlink:href="#Arial-BoldMT-86"/>
     <use x="144.482422" xlink:href="#Arial-BoldMT-69"/>
     <use x="211.181641" xlink:href="#Arial-BoldMT-82"/>
     <use x="283.398438" xlink:href="#Arial-BoldMT-32"/>
     <use x="311.181641" xlink:href="#Arial-BoldMT-84"/>
     <use x="372.265625" xlink:href="#Arial-BoldMT-73"/>
     <use x="400.048828" xlink:href="#Arial-BoldMT-77"/>
     <use x="483.349609" xlink:href="#Arial-BoldMT-69"/>
    </g>
   </g>
   <g id="legend_1">
    <g id="line2d_82">
     <path d="M 539.830625 74.6 
L 559.830625 74.6 
" style="fill:none;stroke:#000000;stroke-linecap:square;stroke-width:1.5;"/>
    </g>
    <g id="line2d_83"/>
    <g id="text_19">
     <!-- 0 -->
     <g transform="translate(567.830625 78.1)scale(0.1 -0.1)">
      <use xlink:href="#DejaVuSans-48"/>
     </g>
    </g>
    <g id="line2d_84">
     <path d="M 539.830625 89.278125 
L 559.830625 89.278125 
" style="fill:none;stroke:#d0e1f2;stroke-linecap:square;stroke-width:1.5;"/>
    </g>
    <g id="line2d_85"/>
    <g id="text_20">
     <!-- 100 -->
     <g transform="translate(567.830625 92.778125)scale(0.1 -0.1)">
      <use xlink:href="#DejaVuSans-49"/>
      <use x="63.623047" xlink:href="#DejaVuSans-48"/>
      <use x="127.246094" xlink:href="#DejaVuSans-48"/>
     </g>
    </g>
    <g id="line2d_86">
     <path d="M 539.830625 103.95625 
L 559.830625 103.95625 
" style="fill:none;stroke:#94c4df;stroke-linecap:square;stroke-width:1.5;"/>
    </g>
    <g id="line2d_87"/>
    <g id="text_21">
     <!-- 500 -->
     <g transform="translate(567.830625 107.45625)scale(0.1 -0.1)">
      <use xlink:href="#DejaVuSans-53"/>
      <use x="63.623047" xlink:href="#DejaVuSans-48"/>
      <use x="127.246094" xlink:href="#DejaVuSans-48"/>
     </g>
    </g>
    <g id="line2d_88">
     <path d="M 539.830625 118.634375 
L 559.830625 118.634375 
" style="fill:none;stroke:#4a98c9;stroke-linecap:square;stroke-width:1.5;"/>
    </g>
    <g id="line2d_89"/>
    <g id="text_22">
     <!-- 1000 -->
     <g transform="translate(567.830625 122.134375)scale(0.1 -0.1)">
      <use xlink:href="#DejaVuSans-49"/>
      <use x="63.623047" xlink:href="#DejaVuSans-48"/>
      <use x="127.246094" xlink:href="#DejaVuSans-48"/>
      <use x="190.869141" xlink:href="#DejaVuSans-48"/>
     </g>
    </g>
    <g id="line2d_90">
     <path d="M 539.830625 133.3125 
L 559.830625 133.3125 
" style="fill:none;stroke:#1764ab;stroke-linecap:square;stroke-width:1.5;"/>
    </g>
    <g id="line2d_91"/>
    <g id="text_23">
     <!-- 5000 -->
     <g transform="translate(567.830625 136.8125)scale(0.1 -0.1)">
      <use xlink:href="#DejaVuSans-53"/>
      <use x="63.623047" xlink:href="#DejaVuSans-48"/>
      <use x="127.246094" xlink:href="#DejaVuSans-48"/>
      <use x="190.869141" xlink:href="#DejaVuSans-48"/>
     </g>
    </g>
    <g id="line2d_92">
     <path d="M 539.830625 147.990625 
L 559.830625 147.990625 
" style="fill:none;stroke:#08306b;stroke-linecap:square;stroke-width:1.5;"/>
    </g>
    <g id="line2d_93"/>
    <g id="text_24">
     <!-- 10000 -->
     <g transform="translate(567.830625 151.490625)scale(0.1 -0.1)">
      <use xlink:href="#DejaVuSans-49"/>
      <use x="63.623047" xlink:href="#DejaVuSans-48"/>
      <use x="127.246094" xlink:href="#DejaVuSans-48"/>
      <use x="190.869141" xlink:href="#DejaVuSans-48"/>
      <use x="254.492188" xlink:href="#DejaVuSans-48"/>
     </g>
    </g>
   </g>
  </g>
 </g>
 <defs>
  <clipPath id="p0b8fe7e2f2">
   <rect height="380.52" width="390.6" x="140.230625" y="61.501562"/>
  </clipPath>
 </defs>
</svg>
