<?xml version="1.0" encoding="utf-8" standalone="no"?>
<!DOCTYPE svg PUBLIC "-//W3C//DTD SVG 1.1//EN"
  "http://www.w3.org/Graphics/SVG/1.1/DTD/svg11.dtd">
<!-- Created with matplotlib (https://matplotlib.org/) -->
<svg height="514.024687pt" version="1.1" viewBox="0 0 528.194375 514.024687" width="528.194375pt" xmlns="http://www.w3.org/2000/svg" xmlns:xlink="http://www.w3.org/1999/xlink">
 <defs>
  <style type="text/css">
*{stroke-linecap:butt;stroke-linejoin:round;}
  </style>
 </defs>
 <g id="figure_1">
  <g id="patch_1">
   <path d="M -0 514.024687 
L 528.194375 514.024687 
L 528.194375 0 
L -0 0 
z
" style="fill:#ffffff;"/>
  </g>
  <g id="axes_1">
   <g id="patch_2">
    <path d="M 120.850625 442.021562 
L 511.450625 442.021562 
L 511.450625 61.501562 
L 120.850625 61.501562 
z
" style="fill:#ffffff;"/>
   </g>
   <g id="matplotlib.axis_1">
    <g id="xtick_1">
     <g id="line2d_1">
      <defs>
       <path d="M 0 0 
L 0 3.5 
" id="m4903f62a91" style="stroke:#000000;stroke-width:0.8;"/>
      </defs>
      <g>
       <use style="stroke:#000000;stroke-width:0.8;" x="120.850625" xlink:href="#m4903f62a91" y="442.021562"/>
      </g>
     </g>
     <g id="text_1">
      <!-- 0 -->
      <defs>
       <path d="M 31.78125 66.40625 
Q 24.171875 66.40625 20.328125 58.90625 
Q 16.5 51.421875 16.5 36.375 
Q 16.5 21.390625 20.328125 13.890625 
Q 24.171875 6.390625 31.78125 6.390625 
Q 39.453125 6.390625 43.28125 13.890625 
Q 47.125 21.390625 47.125 36.375 
Q 47.125 51.421875 43.28125 58.90625 
Q 39.453125 66.40625 31.78125 66.40625 
z
M 31.78125 74.21875 
Q 44.046875 74.21875 50.515625 64.515625 
Q 56.984375 54.828125 56.984375 36.375 
Q 56.984375 17.96875 50.515625 8.265625 
Q 44.046875 -1.421875 31.78125 -1.421875 
Q 19.53125 -1.421875 13.0625 8.265625 
Q 6.59375 17.96875 6.59375 36.375 
Q 6.59375 54.828125 13.0625 64.515625 
Q 19.53125 74.21875 31.78125 74.21875 
z
" id="DejaVuSans-48"/>
      </defs>
      <g transform="translate(111.306875 471.816875)scale(0.3 -0.3)">
       <use xlink:href="#DejaVuSans-48"/>
      </g>
     </g>
    </g>
    <g id="xtick_2">
     <g id="line2d_2">
      <g>
       <use style="stroke:#000000;stroke-width:0.8;" x="176.650625" xlink:href="#m4903f62a91" y="442.021562"/>
      </g>
     </g>
     <g id="text_2">
      <!-- 1 -->
      <defs>
       <path d="M 12.40625 8.296875 
L 28.515625 8.296875 
L 28.515625 63.921875 
L 10.984375 60.40625 
L 10.984375 69.390625 
L 28.421875 72.90625 
L 38.28125 72.90625 
L 38.28125 8.296875 
L 54.390625 8.296875 
L 54.390625 0 
L 12.40625 0 
z
" id="DejaVuSans-49"/>
      </defs>
      <g transform="translate(167.106875 471.816875)scale(0.3 -0.3)">
       <use xlink:href="#DejaVuSans-49"/>
      </g>
     </g>
    </g>
    <g id="xtick_3">
     <g id="line2d_3">
      <g>
       <use style="stroke:#000000;stroke-width:0.8;" x="232.450625" xlink:href="#m4903f62a91" y="442.021562"/>
      </g>
     </g>
     <g id="text_3">
      <!-- 2 -->
      <defs>
       <path d="M 19.1875 8.296875 
L 53.609375 8.296875 
L 53.609375 0 
L 7.328125 0 
L 7.328125 8.296875 
Q 12.9375 14.109375 22.625 23.890625 
Q 32.328125 33.6875 34.8125 36.53125 
Q 39.546875 41.84375 41.421875 45.53125 
Q 43.3125 49.21875 43.3125 52.78125 
Q 43.3125 58.59375 39.234375 62.25 
Q 35.15625 65.921875 28.609375 65.921875 
Q 23.96875 65.921875 18.8125 64.3125 
Q 13.671875 62.703125 7.8125 59.421875 
L 7.8125 69.390625 
Q 13.765625 71.78125 18.9375 73 
Q 24.125 74.21875 28.421875 74.21875 
Q 39.75 74.21875 46.484375 68.546875 
Q 53.21875 62.890625 53.21875 53.421875 
Q 53.21875 48.921875 51.53125 44.890625 
Q 49.859375 40.875 45.40625 35.40625 
Q 44.1875 33.984375 37.640625 27.21875 
Q 31.109375 20.453125 19.1875 8.296875 
z
" id="DejaVuSans-50"/>
      </defs>
      <g transform="translate(222.906875 471.816875)scale(0.3 -0.3)">
       <use xlink:href="#DejaVuSans-50"/>
      </g>
     </g>
    </g>
    <g id="xtick_4">
     <g id="line2d_4">
      <g>
       <use style="stroke:#000000;stroke-width:0.8;" x="288.250625" xlink:href="#m4903f62a91" y="442.021562"/>
      </g>
     </g>
     <g id="text_4">
      <!-- 3 -->
      <defs>
       <path d="M 40.578125 39.3125 
Q 47.65625 37.796875 51.625 33 
Q 55.609375 28.21875 55.609375 21.1875 
Q 55.609375 10.40625 48.1875 4.484375 
Q 40.765625 -1.421875 27.09375 -1.421875 
Q 22.515625 -1.421875 17.65625 -0.515625 
Q 12.796875 0.390625 7.625 2.203125 
L 7.625 11.71875 
Q 11.71875 9.328125 16.59375 8.109375 
Q 21.484375 6.890625 26.8125 6.890625 
Q 36.078125 6.890625 40.9375 10.546875 
Q 45.796875 14.203125 45.796875 21.1875 
Q 45.796875 27.640625 41.28125 31.265625 
Q 36.765625 34.90625 28.71875 34.90625 
L 20.21875 34.90625 
L 20.21875 43.015625 
L 29.109375 43.015625 
Q 36.375 43.015625 40.234375 45.921875 
Q 44.09375 48.828125 44.09375 54.296875 
Q 44.09375 59.90625 40.109375 62.90625 
Q 36.140625 65.921875 28.71875 65.921875 
Q 24.65625 65.921875 20.015625 65.03125 
Q 15.375 64.15625 9.8125 62.3125 
L 9.8125 71.09375 
Q 15.4375 72.65625 20.34375 73.4375 
Q 25.25 74.21875 29.59375 74.21875 
Q 40.828125 74.21875 47.359375 69.109375 
Q 53.90625 64.015625 53.90625 55.328125 
Q 53.90625 49.265625 50.4375 45.09375 
Q 46.96875 40.921875 40.578125 39.3125 
z
" id="DejaVuSans-51"/>
      </defs>
      <g transform="translate(278.706875 471.816875)scale(0.3 -0.3)">
       <use xlink:href="#DejaVuSans-51"/>
      </g>
     </g>
    </g>
    <g id="xtick_5">
     <g id="line2d_5">
      <g>
       <use style="stroke:#000000;stroke-width:0.8;" x="344.050625" xlink:href="#m4903f62a91" y="442.021562"/>
      </g>
     </g>
     <g id="text_5">
      <!-- 4 -->
      <defs>
       <path d="M 37.796875 64.3125 
L 12.890625 25.390625 
L 37.796875 25.390625 
z
M 35.203125 72.90625 
L 47.609375 72.90625 
L 47.609375 25.390625 
L 58.015625 25.390625 
L 58.015625 17.1875 
L 47.609375 17.1875 
L 47.609375 0 
L 37.796875 0 
L 37.796875 17.1875 
L 4.890625 17.1875 
L 4.890625 26.703125 
z
" id="DejaVuSans-52"/>
      </defs>
      <g transform="translate(334.506875 471.816875)scale(0.3 -0.3)">
       <use xlink:href="#DejaVuSans-52"/>
      </g>
     </g>
    </g>
    <g id="xtick_6">
     <g id="line2d_6">
      <g>
       <use style="stroke:#000000;stroke-width:0.8;" x="399.850625" xlink:href="#m4903f62a91" y="442.021562"/>
      </g>
     </g>
     <g id="text_6">
      <!-- 5 -->
      <defs>
       <path d="M 10.796875 72.90625 
L 49.515625 72.90625 
L 49.515625 64.59375 
L 19.828125 64.59375 
L 19.828125 46.734375 
Q 21.96875 47.46875 24.109375 47.828125 
Q 26.265625 48.1875 28.421875 48.1875 
Q 40.625 48.1875 47.75 41.5 
Q 54.890625 34.8125 54.890625 23.390625 
Q 54.890625 11.625 47.5625 5.09375 
Q 40.234375 -1.421875 26.90625 -1.421875 
Q 22.3125 -1.421875 17.546875 -0.640625 
Q 12.796875 0.140625 7.71875 1.703125 
L 7.71875 11.625 
Q 12.109375 9.234375 16.796875 8.0625 
Q 21.484375 6.890625 26.703125 6.890625 
Q 35.15625 6.890625 40.078125 11.328125 
Q 45.015625 15.765625 45.015625 23.390625 
Q 45.015625 31 40.078125 35.4375 
Q 35.15625 39.890625 26.703125 39.890625 
Q 22.75 39.890625 18.8125 39.015625 
Q 14.890625 38.140625 10.796875 36.28125 
z
" id="DejaVuSans-53"/>
      </defs>
      <g transform="translate(390.306875 471.816875)scale(0.3 -0.3)">
       <use xlink:href="#DejaVuSans-53"/>
      </g>
     </g>
    </g>
    <g id="xtick_7">
     <g id="line2d_7">
      <g>
       <use style="stroke:#000000;stroke-width:0.8;" x="455.650625" xlink:href="#m4903f62a91" y="442.021562"/>
      </g>
     </g>
     <g id="text_7">
      <!-- 6 -->
      <defs>
       <path d="M 33.015625 40.375 
Q 26.375 40.375 22.484375 35.828125 
Q 18.609375 31.296875 18.609375 23.390625 
Q 18.609375 15.53125 22.484375 10.953125 
Q 26.375 6.390625 33.015625 6.390625 
Q 39.65625 6.390625 43.53125 10.953125 
Q 47.40625 15.53125 47.40625 23.390625 
Q 47.40625 31.296875 43.53125 35.828125 
Q 39.65625 40.375 33.015625 40.375 
z
M 52.59375 71.296875 
L 52.59375 62.3125 
Q 48.875 64.0625 45.09375 64.984375 
Q 41.3125 65.921875 37.59375 65.921875 
Q 27.828125 65.921875 22.671875 59.328125 
Q 17.53125 52.734375 16.796875 39.40625 
Q 19.671875 43.65625 24.015625 45.921875 
Q 28.375 48.1875 33.59375 48.1875 
Q 44.578125 48.1875 50.953125 41.515625 
Q 57.328125 34.859375 57.328125 23.390625 
Q 57.328125 12.15625 50.6875 5.359375 
Q 44.046875 -1.421875 33.015625 -1.421875 
Q 20.359375 -1.421875 13.671875 8.265625 
Q 6.984375 17.96875 6.984375 36.375 
Q 6.984375 53.65625 15.1875 63.9375 
Q 23.390625 74.21875 37.203125 74.21875 
Q 40.921875 74.21875 44.703125 73.484375 
Q 48.484375 72.75 52.59375 71.296875 
z
" id="DejaVuSans-54"/>
      </defs>
      <g transform="translate(446.106875 471.816875)scale(0.3 -0.3)">
       <use xlink:href="#DejaVuSans-54"/>
      </g>
     </g>
    </g>
    <g id="xtick_8">
     <g id="line2d_8">
      <g>
       <use style="stroke:#000000;stroke-width:0.8;" x="511.450625" xlink:href="#m4903f62a91" y="442.021562"/>
      </g>
     </g>
     <g id="text_8">
      <!-- 7 -->
      <defs>
       <path d="M 8.203125 72.90625 
L 55.078125 72.90625 
L 55.078125 68.703125 
L 28.609375 0 
L 18.3125 0 
L 43.21875 64.59375 
L 8.203125 64.59375 
z
" id="DejaVuSans-55"/>
      </defs>
      <g transform="translate(501.906875 471.816875)scale(0.3 -0.3)">
       <use xlink:href="#DejaVuSans-55"/>
      </g>
     </g>
    </g>
    <g id="text_9">
     <!-- TIME (DAYS) -->
     <defs>
      <path d="M 23.390625 0 
L 23.390625 59.46875 
L 2.15625 59.46875 
L 2.15625 71.578125 
L 59.03125 71.578125 
L 59.03125 59.46875 
L 37.84375 59.46875 
L 37.84375 0 
z
" id="Arial-BoldMT-84"/>
      <path d="M 6.84375 0 
L 6.84375 71.578125 
L 21.296875 71.578125 
L 21.296875 0 
z
" id="Arial-BoldMT-73"/>
      <path d="M 7.078125 0 
L 7.078125 71.578125 
L 28.71875 71.578125 
L 41.703125 22.75 
L 54.546875 71.578125 
L 76.21875 71.578125 
L 76.21875 0 
L 62.796875 0 
L 62.796875 56.34375 
L 48.578125 0 
L 34.671875 0 
L 20.515625 56.34375 
L 20.515625 0 
z
" id="Arial-BoldMT-77"/>
      <path d="M 7.28125 0 
L 7.28125 71.578125 
L 60.359375 71.578125 
L 60.359375 59.46875 
L 21.734375 59.46875 
L 21.734375 43.609375 
L 57.671875 43.609375 
L 57.671875 31.546875 
L 21.734375 31.546875 
L 21.734375 12.0625 
L 61.71875 12.0625 
L 61.71875 0 
z
" id="Arial-BoldMT-69"/>
      <path id="Arial-BoldMT-32"/>
      <path d="M 29.9375 -21.046875 
L 20.515625 -21.046875 
Q 13.03125 -9.765625 9.125 2.390625 
Q 5.21875 14.546875 5.21875 25.921875 
Q 5.21875 40.046875 10.0625 52.640625 
Q 14.265625 63.578125 20.703125 72.796875 
L 30.078125 72.796875 
Q 23.390625 58.015625 20.875 47.625 
Q 18.359375 37.25 18.359375 25.640625 
Q 18.359375 17.625 19.84375 9.21875 
Q 21.34375 0.828125 23.921875 -6.734375 
Q 25.640625 -11.71875 29.9375 -21.046875 
z
" id="Arial-BoldMT-40"/>
      <path d="M 7.234375 71.578125 
L 33.640625 71.578125 
Q 42.578125 71.578125 47.265625 70.21875 
Q 53.5625 68.359375 58.046875 63.625 
Q 62.546875 58.890625 64.890625 52.03125 
Q 67.234375 45.171875 67.234375 35.109375 
Q 67.234375 26.265625 65.046875 19.875 
Q 62.359375 12.0625 57.375 7.234375 
Q 53.609375 3.5625 47.21875 1.515625 
Q 42.4375 0 34.421875 0 
L 7.234375 0 
z
M 21.6875 59.46875 
L 21.6875 12.0625 
L 32.46875 12.0625 
Q 38.53125 12.0625 41.21875 12.75 
Q 44.734375 13.625 47.046875 15.71875 
Q 49.359375 17.828125 50.828125 22.625 
Q 52.296875 27.4375 52.296875 35.75 
Q 52.296875 44.046875 50.828125 48.484375 
Q 49.359375 52.9375 46.71875 55.421875 
Q 44.09375 57.90625 40.046875 58.796875 
Q 37.015625 59.46875 28.171875 59.46875 
z
" id="Arial-BoldMT-68"/>
      <path d="M 71.828125 0 
L 56.109375 0 
L 49.859375 16.265625 
L 21.234375 16.265625 
L 15.328125 0 
L 0 0 
L 27.875 71.578125 
L 43.171875 71.578125 
z
M 45.21875 28.328125 
L 35.359375 54.890625 
L 25.6875 28.328125 
z
" id="Arial-BoldMT-65"/>
      <path d="M 26.078125 0 
L 26.078125 30.125 
L -0.140625 71.578125 
L 16.796875 71.578125 
L 33.640625 43.265625 
L 50.140625 71.578125 
L 66.796875 71.578125 
L 40.484375 30.03125 
L 40.484375 0 
z
" id="Arial-BoldMT-89"/>
      <path d="M 3.609375 23.296875 
L 17.671875 24.65625 
Q 18.953125 17.578125 22.828125 14.25 
Q 26.703125 10.9375 33.296875 10.9375 
Q 40.28125 10.9375 43.8125 13.890625 
Q 47.359375 16.84375 47.359375 20.796875 
Q 47.359375 23.34375 45.875 25.125 
Q 44.390625 26.90625 40.671875 28.21875 
Q 38.140625 29.109375 29.109375 31.34375 
Q 17.484375 34.234375 12.796875 38.421875 
Q 6.203125 44.34375 6.203125 52.828125 
Q 6.203125 58.296875 9.296875 63.0625 
Q 12.40625 67.828125 18.234375 70.3125 
Q 24.078125 72.796875 32.328125 72.796875 
Q 45.796875 72.796875 52.609375 66.890625 
Q 59.421875 60.984375 59.765625 51.125 
L 45.3125 50.484375 
Q 44.390625 56 41.328125 58.421875 
Q 38.28125 60.84375 32.171875 60.84375 
Q 25.875 60.84375 22.3125 58.25 
Q 20.015625 56.59375 20.015625 53.8125 
Q 20.015625 51.265625 22.171875 49.46875 
Q 24.90625 47.171875 35.453125 44.671875 
Q 46 42.1875 51.046875 39.515625 
Q 56.109375 36.859375 58.953125 32.25 
Q 61.8125 27.640625 61.8125 20.84375 
Q 61.8125 14.703125 58.390625 9.328125 
Q 54.984375 3.953125 48.734375 1.34375 
Q 42.484375 -1.265625 33.15625 -1.265625 
Q 19.578125 -1.265625 12.296875 5 
Q 5.03125 11.28125 3.609375 23.296875 
z
" id="Arial-BoldMT-83"/>
      <path d="M 3.375 -21.046875 
Q 7.421875 -12.359375 9.078125 -7.71875 
Q 10.75 -3.078125 12.15625 2.96875 
Q 13.578125 9.03125 14.25 14.46875 
Q 14.9375 19.921875 14.9375 25.640625 
Q 14.9375 37.25 12.453125 47.625 
Q 9.96875 58.015625 3.265625 72.796875 
L 12.59375 72.796875 
Q 19.96875 62.3125 24.046875 50.53125 
Q 28.125 38.765625 28.125 26.65625 
Q 28.125 16.453125 24.90625 4.78125 
Q 21.234375 -8.296875 12.84375 -21.046875 
z
" id="Arial-BoldMT-41"/>
     </defs>
     <g transform="translate(255.056875 502.615312)scale(0.2 -0.2)">
      <use xlink:href="#Arial-BoldMT-84"/>
      <use x="61.083984" xlink:href="#Arial-BoldMT-73"/>
      <use x="88.867188" xlink:href="#Arial-BoldMT-77"/>
      <use x="172.167969" xlink:href="#Arial-BoldMT-69"/>
      <use x="238.867188" xlink:href="#Arial-BoldMT-32"/>
      <use x="266.650391" xlink:href="#Arial-BoldMT-40"/>
      <use x="299.951172" xlink:href="#Arial-BoldMT-68"/>
      <use x="372.167969" xlink:href="#Arial-BoldMT-65"/>
      <use x="444.244141" xlink:href="#Arial-BoldMT-89"/>
      <use x="510.943359" xlink:href="#Arial-BoldMT-83"/>
      <use x="577.642578" xlink:href="#Arial-BoldMT-41"/>
     </g>
    </g>
   </g>
   <g id="matplotlib.axis_2">
    <g id="ytick_1">
     <g id="line2d_9">
      <defs>
       <path d="M 0 0 
L -3.5 0 
" id="m78277b44a1" style="stroke:#000000;stroke-width:0.8;"/>
      </defs>
      <g>
       <use style="stroke:#000000;stroke-width:0.8;" x="120.850625" xlink:href="#m78277b44a1" y="442.021562"/>
      </g>
     </g>
     <g id="text_10">
      <!-- 0 -->
      <g transform="translate(94.763125 453.419219)scale(0.3 -0.3)">
       <use xlink:href="#DejaVuSans-48"/>
      </g>
     </g>
    </g>
    <g id="ytick_2">
     <g id="line2d_10">
      <g>
       <use style="stroke:#000000;stroke-width:0.8;" x="120.850625" xlink:href="#m78277b44a1" y="365.917562"/>
      </g>
     </g>
     <g id="text_11">
      <!-- 50 -->
      <g transform="translate(75.675625 377.315219)scale(0.3 -0.3)">
       <use xlink:href="#DejaVuSans-53"/>
       <use x="63.623047" xlink:href="#DejaVuSans-48"/>
      </g>
     </g>
    </g>
    <g id="ytick_3">
     <g id="line2d_11">
      <g>
       <use style="stroke:#000000;stroke-width:0.8;" x="120.850625" xlink:href="#m78277b44a1" y="289.813562"/>
      </g>
     </g>
     <g id="text_12">
      <!-- 100 -->
      <g transform="translate(56.588125 301.211219)scale(0.3 -0.3)">
       <use xlink:href="#DejaVuSans-49"/>
       <use x="63.623047" xlink:href="#DejaVuSans-48"/>
       <use x="127.246094" xlink:href="#DejaVuSans-48"/>
      </g>
     </g>
    </g>
    <g id="ytick_4">
     <g id="line2d_12">
      <g>
       <use style="stroke:#000000;stroke-width:0.8;" x="120.850625" xlink:href="#m78277b44a1" y="213.709562"/>
      </g>
     </g>
     <g id="text_13">
      <!-- 150 -->
      <g transform="translate(56.588125 225.107219)scale(0.3 -0.3)">
       <use xlink:href="#DejaVuSans-49"/>
       <use x="63.623047" xlink:href="#DejaVuSans-53"/>
       <use x="127.246094" xlink:href="#DejaVuSans-48"/>
      </g>
     </g>
    </g>
    <g id="ytick_5">
     <g id="line2d_13">
      <g>
       <use style="stroke:#000000;stroke-width:0.8;" x="120.850625" xlink:href="#m78277b44a1" y="137.605562"/>
      </g>
     </g>
     <g id="text_14">
      <!-- 200 -->
      <g transform="translate(56.588125 149.003219)scale(0.3 -0.3)">
       <use xlink:href="#DejaVuSans-50"/>
       <use x="63.623047" xlink:href="#DejaVuSans-48"/>
       <use x="127.246094" xlink:href="#DejaVuSans-48"/>
      </g>
     </g>
    </g>
    <g id="ytick_6">
     <g id="line2d_14">
      <g>
       <use style="stroke:#000000;stroke-width:0.8;" x="120.850625" xlink:href="#m78277b44a1" y="61.501562"/>
      </g>
     </g>
     <g id="text_15">
      <!-- 250 -->
      <g transform="translate(56.588125 72.899219)scale(0.3 -0.3)">
       <use xlink:href="#DejaVuSans-50"/>
       <use x="63.623047" xlink:href="#DejaVuSans-53"/>
       <use x="127.246094" xlink:href="#DejaVuSans-48"/>
      </g>
     </g>
    </g>
    <g id="text_16">
     <!-- CD4 CELL -->
     <defs>
      <path d="M 53.078125 26.3125 
L 67.09375 21.875 
Q 63.875 10.15625 56.375 4.46875 
Q 48.875 -1.21875 37.359375 -1.21875 
Q 23.09375 -1.21875 13.90625 8.515625 
Q 4.734375 18.265625 4.734375 35.15625 
Q 4.734375 53.03125 13.953125 62.90625 
Q 23.1875 72.796875 38.234375 72.796875 
Q 51.375 72.796875 59.578125 65.046875 
Q 64.453125 60.453125 66.890625 51.859375 
L 52.59375 48.4375 
Q 51.3125 54 47.28125 57.21875 
Q 43.265625 60.453125 37.5 60.453125 
Q 29.546875 60.453125 24.578125 54.734375 
Q 19.625 49.03125 19.625 36.234375 
Q 19.625 22.65625 24.5 16.890625 
Q 29.390625 11.140625 37.203125 11.140625 
Q 42.96875 11.140625 47.109375 14.796875 
Q 51.265625 18.453125 53.078125 26.3125 
z
" id="Arial-BoldMT-67"/>
      <path d="M 31.15625 0 
L 31.15625 14.40625 
L 1.859375 14.40625 
L 1.859375 26.421875 
L 32.90625 71.875 
L 44.4375 71.875 
L 44.4375 26.46875 
L 53.328125 26.46875 
L 53.328125 14.40625 
L 44.4375 14.40625 
L 44.4375 0 
z
M 31.15625 26.46875 
L 31.15625 50.921875 
L 14.703125 26.46875 
z
" id="Arial-BoldMT-52"/>
      <path d="M 7.671875 0 
L 7.671875 71 
L 22.125 71 
L 22.125 12.0625 
L 58.0625 12.0625 
L 58.0625 0 
z
" id="Arial-BoldMT-76"/>
     </defs>
     <g transform="translate(21.515625 300.652187)rotate(-90)scale(0.2 -0.2)">
      <use xlink:href="#Arial-BoldMT-67"/>
      <use x="72.216797" xlink:href="#Arial-BoldMT-68"/>
      <use x="144.433594" xlink:href="#Arial-BoldMT-52"/>
      <use x="200.048828" xlink:href="#Arial-BoldMT-32"/>
      <use x="227.832031" xlink:href="#Arial-BoldMT-67"/>
      <use x="300.048828" xlink:href="#Arial-BoldMT-69"/>
      <use x="366.748047" xlink:href="#Arial-BoldMT-76"/>
      <use x="427.832031" xlink:href="#Arial-BoldMT-76"/>
     </g>
     <!-- COUNTS NORAMLIZED -->
     <defs>
      <path d="M 4.34375 35.359375 
Q 4.34375 46.296875 7.625 53.71875 
Q 10.0625 59.1875 14.28125 63.53125 
Q 18.5 67.875 23.53125 69.96875 
Q 30.21875 72.796875 38.96875 72.796875 
Q 54.78125 72.796875 64.28125 62.984375 
Q 73.78125 53.171875 73.78125 35.6875 
Q 73.78125 18.359375 64.359375 8.5625 
Q 54.9375 -1.21875 39.15625 -1.21875 
Q 23.1875 -1.21875 13.765625 8.515625 
Q 4.34375 18.265625 4.34375 35.359375 
z
M 19.234375 35.84375 
Q 19.234375 23.6875 24.84375 17.40625 
Q 30.46875 11.140625 39.109375 11.140625 
Q 47.75 11.140625 53.296875 17.359375 
Q 58.84375 23.578125 58.84375 36.03125 
Q 58.84375 48.34375 53.4375 54.390625 
Q 48.046875 60.453125 39.109375 60.453125 
Q 30.171875 60.453125 24.703125 54.3125 
Q 19.234375 48.1875 19.234375 35.84375 
z
" id="Arial-BoldMT-79"/>
      <path d="M 7.171875 71.578125 
L 21.625 71.578125 
L 21.625 32.8125 
Q 21.625 23.578125 22.171875 20.84375 
Q 23.09375 16.453125 26.578125 13.796875 
Q 30.078125 11.140625 36.140625 11.140625 
Q 42.28125 11.140625 45.40625 13.640625 
Q 48.53125 16.15625 49.171875 19.8125 
Q 49.8125 23.484375 49.8125 31.984375 
L 49.8125 71.578125 
L 64.265625 71.578125 
L 64.265625 33.984375 
Q 64.265625 21.09375 63.09375 15.765625 
Q 61.921875 10.453125 58.765625 6.78125 
Q 55.609375 3.125 50.328125 0.953125 
Q 45.0625 -1.21875 36.578125 -1.21875 
Q 26.3125 -1.21875 21.015625 1.140625 
Q 15.71875 3.515625 12.640625 7.296875 
Q 9.578125 11.078125 8.59375 15.234375 
Q 7.171875 21.390625 7.171875 33.40625 
z
" id="Arial-BoldMT-85"/>
      <path d="M 7.421875 0 
L 7.421875 71.578125 
L 21.484375 71.578125 
L 50.78125 23.78125 
L 50.78125 71.578125 
L 64.203125 71.578125 
L 64.203125 0 
L 49.703125 0 
L 20.84375 46.6875 
L 20.84375 0 
z
" id="Arial-BoldMT-78"/>
      <path d="M 7.328125 0 
L 7.328125 71.578125 
L 37.75 71.578125 
Q 49.21875 71.578125 54.421875 69.640625 
Q 59.625 67.71875 62.75 62.78125 
Q 65.875 57.859375 65.875 51.515625 
Q 65.875 43.453125 61.125 38.203125 
Q 56.390625 32.953125 46.96875 31.59375 
Q 51.65625 28.859375 54.703125 25.578125 
Q 57.765625 22.3125 62.9375 13.96875 
L 71.6875 0 
L 54.390625 0 
L 43.953125 15.578125 
Q 38.375 23.921875 36.328125 26.09375 
Q 34.28125 28.265625 31.984375 29.078125 
Q 29.6875 29.890625 24.703125 29.890625 
L 21.78125 29.890625 
L 21.78125 0 
z
M 21.78125 41.3125 
L 32.46875 41.3125 
Q 42.875 41.3125 45.453125 42.1875 
Q 48.046875 43.0625 49.515625 45.203125 
Q 50.984375 47.359375 50.984375 50.59375 
Q 50.984375 54.203125 49.046875 56.421875 
Q 47.125 58.640625 43.609375 59.234375 
Q 41.84375 59.46875 33.0625 59.46875 
L 21.78125 59.46875 
z
" id="Arial-BoldMT-82"/>
      <path d="M 1.078125 0 
L 1.078125 13.03125 
L 38.671875 59.46875 
L 5.328125 59.46875 
L 5.328125 71.578125 
L 57.71875 71.578125 
L 57.71875 60.359375 
L 18.5 12.0625 
L 59.234375 12.0625 
L 59.234375 0 
z
" id="Arial-BoldMT-90"/>
     </defs>
     <g transform="translate(42.64125 363.420937)rotate(-90)scale(0.2 -0.2)">
      <use xlink:href="#Arial-BoldMT-67"/>
      <use x="72.216797" xlink:href="#Arial-BoldMT-79"/>
      <use x="150" xlink:href="#Arial-BoldMT-85"/>
      <use x="222.216797" xlink:href="#Arial-BoldMT-78"/>
      <use x="294.433594" xlink:href="#Arial-BoldMT-84"/>
      <use x="355.517578" xlink:href="#Arial-BoldMT-83"/>
      <use x="422.216797" xlink:href="#Arial-BoldMT-32"/>
      <use x="450" xlink:href="#Arial-BoldMT-78"/>
      <use x="522.216797" xlink:href="#Arial-BoldMT-79"/>
      <use x="600" xlink:href="#Arial-BoldMT-82"/>
      <use x="672.216797" xlink:href="#Arial-BoldMT-65"/>
      <use x="744.433594" xlink:href="#Arial-BoldMT-77"/>
      <use x="827.734375" xlink:href="#Arial-BoldMT-76"/>
      <use x="888.818359" xlink:href="#Arial-BoldMT-73"/>
      <use x="916.601562" xlink:href="#Arial-BoldMT-90"/>
      <use x="977.685547" xlink:href="#Arial-BoldMT-69"/>
      <use x="1044.384766" xlink:href="#Arial-BoldMT-68"/>
     </g>
    </g>
   </g>
   <g id="line2d_15">
    <path clip-path="url(#p7ef87dc6c8)" d="M 120.850625 442.021562 
L 148.750625 440.499482 
L 176.650625 439.099169 
L 204.550625 436.852579 
L 232.450625 432.554225 
L 260.350625 422.325847 
L 288.250625 402.989343 
L 316.150625 365.473115 
L 344.050625 328.632691 
L 371.950625 289.302144 
L 399.850625 234.963888 
L 427.750625 218.294067 
L 455.650625 210.123542 
L 483.550625 202.348757 
L 511.450625 200.27264 
" style="fill:none;stroke:#08306b;stroke-linecap:square;stroke-width:1.5;"/>
   </g>
   <g id="line2d_16">
    <path clip-path="url(#p7ef87dc6c8)" d="M 120.850625 442.021562 
L 148.750625 440.499482 
L 176.650625 439.099169 
L 204.550625 436.852579 
L 232.450625 432.560313 
L 260.350625 422.338024 
L 288.250625 402.995431 
L 316.150625 365.479203 
L 344.050625 328.657044 
L 371.950625 289.429998 
L 399.850625 237.74625 
L 427.750625 224.029265 
L 455.650625 214.945491 
L 483.550625 208.75367 
L 511.450625 205.806923 
" style="fill:none;stroke:#08306b;stroke-dasharray:5.55,2.4;stroke-dashoffset:0;stroke-width:1.5;"/>
   </g>
   <g id="line2d_17">
    <path clip-path="url(#p7ef87dc6c8)" d="M 120.850625 442.021562 
L 148.750625 440.499482 
L 176.650625 439.062639 
L 204.550625 436.797784 
L 232.450625 433.004761 
L 260.350625 423.373038 
L 288.250625 405.442936 
L 316.150625 372.937395 
L 344.050625 339.457724 
L 371.950625 297.746643 
L 399.850625 250.42822 
L 427.750625 230.744682 
L 455.650625 221.995766 
L 483.550625 214.220981 
L 511.450625 212.583223 
" style="fill:none;stroke:#08306b;stroke-linecap:square;stroke-width:1.5;"/>
   </g>
   <g id="line2d_18">
    <path clip-path="url(#p7ef87dc6c8)" d="M 120.850625 442.021562 
L 148.750625 440.499482 
L 176.650625 439.062639 
L 204.550625 436.797784 
L 232.450625 433.004761 
L 260.350625 423.373038 
L 288.250625 405.455113 
L 316.150625 372.949572 
L 344.050625 339.494254 
L 371.950625 297.844057 
L 399.850625 252.455631 
L 427.750625 235.944107 
L 455.650625 227.96232 
L 483.550625 221.429552 
L 511.450625 218.269714 
" style="fill:none;stroke:#08306b;stroke-dasharray:5.55,2.4;stroke-dashoffset:0;stroke-width:1.5;"/>
   </g>
   <g id="line2d_19">
    <path clip-path="url(#p7ef87dc6c8)" d="M 120.850625 442.021562 
L 148.750625 440.499482 
L 176.650625 439.050462 
L 204.550625 436.828226 
L 232.450625 432.773404 
L 260.350625 422.806825 
L 288.250625 404.219184 
L 316.150625 370.288976 
L 344.050625 333.990412 
L 371.950625 292.894252 
L 399.850625 244.108544 
L 427.750625 226.397621 
L 455.650625 218.312332 
L 483.550625 209.715625 
L 511.450625 207.505564 
" style="fill:none;stroke:#08306b;stroke-linecap:square;stroke-width:1.5;"/>
   </g>
   <g id="line2d_20">
    <path clip-path="url(#p7ef87dc6c8)" d="M 120.850625 442.021562 
L 148.750625 440.499482 
L 176.650625 439.050462 
L 204.550625 436.828226 
L 232.450625 432.779493 
L 260.350625 422.806825 
L 288.250625 404.219184 
L 316.150625 370.295065 
L 344.050625 334.039119 
L 371.950625 293.04646 
L 399.850625 246.80567 
L 427.750625 232.175437 
L 455.650625 224.297151 
L 483.550625 217.441703 
L 511.450625 213.496471 
" style="fill:none;stroke:#08306b;stroke-dasharray:5.55,2.4;stroke-dashoffset:0;stroke-width:1.5;"/>
   </g>
   <g id="line2d_21">
    <path clip-path="url(#p7ef87dc6c8)" d="M 120.850625 442.021562 
L 148.750625 440.499482 
L 176.650625 439.12961 
L 204.550625 436.91955 
L 232.450625 432.828199 
L 260.350625 423.22083 
L 288.250625 404.828016 
L 316.150625 371.03784 
L 344.050625 336.273532 
L 371.950625 292.760309 
L 399.850625 240.692997 
L 427.750625 225.855761 
L 455.650625 215.980506 
L 483.550625 208.924143 
L 511.450625 207.572536 
" style="fill:none;stroke:#08306b;stroke-linecap:square;stroke-width:1.5;"/>
   </g>
   <g id="line2d_22">
    <path clip-path="url(#p7ef87dc6c8)" d="M 120.850625 442.021562 
L 148.750625 440.499482 
L 176.650625 439.12961 
L 204.550625 436.91955 
L 232.450625 432.828199 
L 260.350625 423.226919 
L 288.250625 404.834104 
L 316.150625 371.050016 
L 344.050625 336.303974 
L 371.950625 293.00993 
L 399.850625 243.408387 
L 427.750625 231.268277 
L 455.650625 222.434125 
L 483.550625 216.278834 
L 511.450625 213.21032 
" style="fill:none;stroke:#08306b;stroke-dasharray:5.55,2.4;stroke-dashoffset:0;stroke-width:1.5;"/>
   </g>
   <g id="line2d_23">
    <path clip-path="url(#p7ef87dc6c8)" d="M 120.850625 442.021562 
L 148.750625 440.499482 
L 176.650625 439.080904 
L 204.550625 436.962169 
L 232.450625 432.937789 
L 260.350625 423.14777 
L 288.250625 405.302905 
L 316.150625 371.177871 
L 344.050625 334.568803 
L 371.950625 300.778627 
L 399.850625 240.120695 
L 427.750625 220.382361 
L 455.650625 215.310791 
L 483.550625 206.878467 
L 511.450625 204.777997 
" style="fill:none;stroke:#08306b;stroke-linecap:square;stroke-width:1.5;"/>
   </g>
   <g id="line2d_24">
    <path clip-path="url(#p7ef87dc6c8)" d="M 120.850625 442.021562 
L 148.750625 440.499482 
L 176.650625 439.080904 
L 204.550625 436.962169 
L 232.450625 432.937789 
L 260.350625 423.14777 
L 288.250625 405.308993 
L 316.150625 371.202224 
L 344.050625 334.635774 
L 371.950625 300.888217 
L 399.850625 243.158766 
L 427.750625 226.36718 
L 455.650625 220.522393 
L 483.550625 213.4295 
L 511.450625 210.013952 
" style="fill:none;stroke:#08306b;stroke-dasharray:5.55,2.4;stroke-dashoffset:0;stroke-width:1.5;"/>
   </g>
   <g id="line2d_25">
    <path clip-path="url(#p7ef87dc6c8)" d="M 120.850625 442.021562 
L 148.750625 440.499482 
L 176.650625 439.074816 
L 204.550625 436.773431 
L 232.450625 433.04129 
L 260.350625 423.421745 
L 288.250625 405.564702 
L 316.150625 374.301179 
L 344.050625 339.786493 
L 371.950625 302.690359 
L 399.850625 249.08879 
L 427.750625 227.523961 
L 455.650625 218.5376 
L 483.550625 211.487326 
L 511.450625 207.219413 
" style="fill:none;stroke:#08306b;stroke-linecap:square;stroke-width:1.5;"/>
   </g>
   <g id="line2d_26">
    <path clip-path="url(#p7ef87dc6c8)" d="M 120.850625 442.021562 
L 148.750625 440.499482 
L 176.650625 439.074816 
L 204.550625 436.773431 
L 232.450625 433.04129 
L 260.350625 423.421745 
L 288.250625 405.564702 
L 316.150625 374.307267 
L 344.050625 339.8352 
L 371.950625 302.964334 
L 399.850625 251.840711 
L 427.750625 234.01411 
L 455.650625 224.979043 
L 483.550625 218.945518 
L 511.450625 214.050508 
" style="fill:none;stroke:#08306b;stroke-dasharray:5.55,2.4;stroke-dashoffset:0;stroke-width:1.5;"/>
   </g>
   <g id="line2d_27">
    <path clip-path="url(#p7ef87dc6c8)" d="M 120.850625 442.021562 
L 148.750625 440.499482 
L 176.650625 439.074816 
L 204.550625 436.779519 
L 232.450625 432.432458 
L 260.350625 422.490232 
L 288.250625 404.109594 
L 316.150625 369.345287 
L 344.050625 336.961513 
L 371.950625 296.553333 
L 399.850625 242.154194 
L 427.750625 226.598536 
L 455.650625 219.128167 
L 483.550625 213.587796 
L 511.450625 210.848052 
" style="fill:none;stroke:#08306b;stroke-linecap:square;stroke-width:1.5;"/>
   </g>
   <g id="line2d_28">
    <path clip-path="url(#p7ef87dc6c8)" d="M 120.850625 442.021562 
L 148.750625 440.499482 
L 176.650625 439.074816 
L 204.550625 436.785607 
L 232.450625 432.432458 
L 260.350625 422.49632 
L 288.250625 404.115682 
L 316.150625 369.357463 
L 344.050625 336.991954 
L 371.950625 296.705541 
L 399.850625 245.374915 
L 427.750625 233.210451 
L 455.650625 225.691376 
L 483.550625 220.181447 
L 511.450625 216.771987 
" style="fill:none;stroke:#08306b;stroke-dasharray:5.55,2.4;stroke-dashoffset:0;stroke-width:1.5;"/>
   </g>
   <g id="line2d_29">
    <path clip-path="url(#p7ef87dc6c8)" d="M 120.850625 442.021562 
L 148.750625 440.499482 
L 176.650625 439.086992 
L 204.550625 436.925639 
L 232.450625 432.809934 
L 260.350625 422.898149 
L 288.250625 404.444451 
L 316.150625 370.282888 
L 344.050625 335.26896 
L 371.950625 294.227594 
L 399.850625 239.864985 
L 427.750625 223.061222 
L 455.650625 214.385366 
L 483.550625 208.351841 
L 511.450625 206.622758 
" style="fill:none;stroke:#08306b;stroke-linecap:square;stroke-width:1.5;"/>
   </g>
   <g id="line2d_30">
    <path clip-path="url(#p7ef87dc6c8)" d="M 120.850625 442.021562 
L 148.750625 440.499482 
L 176.650625 439.086992 
L 204.550625 436.925639 
L 232.450625 432.809934 
L 260.350625 422.904238 
L 288.250625 404.45054 
L 316.150625 370.295065 
L 344.050625 335.299401 
L 371.950625 294.325008 
L 399.850625 242.641259 
L 427.750625 228.187587 
L 455.650625 219.182962 
L 483.550625 214.087038 
L 511.450625 210.96373 
" style="fill:none;stroke:#08306b;stroke-dasharray:5.55,2.4;stroke-dashoffset:0;stroke-width:1.5;"/>
   </g>
   <g id="line2d_31">
    <path clip-path="url(#p7ef87dc6c8)" d="M 120.850625 442.021562 
L 148.750625 440.499482 
L 176.650625 439.080904 
L 204.550625 436.852579 
L 232.450625 432.785581 
L 260.350625 422.624175 
L 288.250625 403.531203 
L 316.150625 370.142857 
L 344.050625 333.259814 
L 371.950625 289.984035 
L 399.850625 232.979095 
L 427.750625 214.074862 
L 455.650625 208.473607 
L 483.550625 203.992604 
L 511.450625 202.391376 
" style="fill:none;stroke:#08306b;stroke-linecap:square;stroke-width:1.5;"/>
   </g>
   <g id="line2d_32">
    <path clip-path="url(#p7ef87dc6c8)" d="M 120.850625 442.021562 
L 148.750625 440.499482 
L 176.650625 439.080904 
L 204.550625 436.852579 
L 232.450625 432.785581 
L 260.350625 422.624175 
L 288.250625 403.537292 
L 316.150625 370.155033 
L 344.050625 333.296344 
L 371.950625 290.166685 
L 399.850625 235.96846 
L 427.750625 220.260595 
L 455.650625 213.332087 
L 483.550625 208.97285 
L 511.450625 206.482727 
" style="fill:none;stroke:#08306b;stroke-dasharray:5.55,2.4;stroke-dashoffset:0;stroke-width:1.5;"/>
   </g>
   <g id="line2d_33">
    <path clip-path="url(#p7ef87dc6c8)" d="M 120.850625 442.021562 
L 148.750625 440.499482 
L 176.650625 439.062639 
L 204.550625 436.694282 
L 232.450625 432.468988 
L 260.350625 421.966636 
L 288.250625 402.003035 
L 316.150625 365.56444 
L 344.050625 327.920357 
L 371.950625 281.095088 
L 399.850625 229.198249 
L 427.750625 212.808491 
L 455.650625 207.061117 
L 483.550625 202.433994 
L 511.450625 200.644028 
" style="fill:none;stroke:#08306b;stroke-linecap:square;stroke-width:1.5;"/>
   </g>
   <g id="line2d_34">
    <path clip-path="url(#p7ef87dc6c8)" d="M 120.850625 442.021562 
L 148.750625 440.499482 
L 176.650625 439.062639 
L 204.550625 436.694282 
L 232.450625 432.468988 
L 260.350625 421.972725 
L 288.250625 402.009123 
L 316.150625 365.570528 
L 344.050625 328.029947 
L 371.950625 281.393416 
L 399.850625 232.778181 
L 427.750625 219.036842 
L 455.650625 212.364044 
L 483.550625 207.889129 
L 511.450625 204.668407 
" style="fill:none;stroke:#08306b;stroke-dasharray:5.55,2.4;stroke-dashoffset:0;stroke-width:1.5;"/>
   </g>
   <g id="line2d_35">
    <path clip-path="url(#p7ef87dc6c8)" d="M 120.850625 442.021562 
L 148.750625 440.499482 
L 176.650625 439.068727 
L 204.550625 437.467499 
L 232.450625 435.348764 
L 260.350625 429.662273 
L 288.250625 421.114272 
L 316.150625 406.782366 
L 344.050625 385.759397 
L 371.950625 369.284403 
L 399.850625 344.492764 
L 427.750625 308.553411 
L 455.650625 285.953568 
L 483.550625 254.988372 
L 511.450625 228.528533 
" style="fill:none;stroke:#4a98c9;stroke-linecap:square;stroke-width:1.5;"/>
   </g>
   <g id="line2d_36">
    <path clip-path="url(#p7ef87dc6c8)" d="M 120.850625 442.021562 
L 148.750625 440.499482 
L 176.650625 439.068727 
L 204.550625 437.467499 
L 232.450625 435.348764 
L 260.350625 429.662273 
L 288.250625 421.114272 
L 316.150625 406.782366 
L 344.050625 385.765486 
L 371.950625 369.345287 
L 399.850625 345.107685 
L 427.750625 312.839589 
L 455.650625 294.306743 
L 483.550625 271.962608 
L 511.450625 250.568252 
" style="fill:none;stroke:#4a98c9;stroke-dasharray:5.55,2.4;stroke-dashoffset:0;stroke-width:1.5;"/>
   </g>
   <g id="line2d_37">
    <path clip-path="url(#p7ef87dc6c8)" d="M 120.850625 442.021562 
L 148.750625 440.499482 
L 176.650625 439.032197 
L 204.550625 437.223966 
L 232.450625 434.879963 
L 260.350625 428.201076 
L 288.250625 418.070112 
L 316.150625 400.590545 
L 344.050625 378.276852 
L 371.950625 365.278289 
L 399.850625 338.89151 
L 427.750625 296.602039 
L 455.650625 276.802823 
L 483.550625 253.271466 
L 511.450625 227.316958 
" style="fill:none;stroke:#4a98c9;stroke-linecap:square;stroke-width:1.5;"/>
   </g>
   <g id="line2d_38">
    <path clip-path="url(#p7ef87dc6c8)" d="M 120.850625 442.021562 
L 148.750625 440.499482 
L 176.650625 439.032197 
L 204.550625 437.223966 
L 232.450625 434.879963 
L 260.350625 428.201076 
L 288.250625 418.070112 
L 316.150625 400.590545 
L 344.050625 378.295117 
L 371.950625 365.430497 
L 399.850625 339.993496 
L 427.750625 304.358559 
L 455.650625 287.926183 
L 483.550625 268.863653 
L 511.450625 248.90614 
" style="fill:none;stroke:#4a98c9;stroke-dasharray:5.55,2.4;stroke-dashoffset:0;stroke-width:1.5;"/>
   </g>
   <g id="line2d_39">
    <path clip-path="url(#p7ef87dc6c8)" d="M 120.850625 442.021562 
L 148.750625 440.499482 
L 176.650625 439.050462 
L 204.550625 437.17526 
L 232.450625 435.026083 
L 260.350625 428.736848 
L 288.250625 419.52522 
L 316.150625 403.47032 
L 344.050625 381.777636 
L 371.950625 366.264597 
L 399.850625 339.153308 
L 427.750625 307.226158 
L 455.650625 283.761772 
L 483.550625 258.215182 
L 511.450625 233.472249 
" style="fill:none;stroke:#4a98c9;stroke-linecap:square;stroke-width:1.5;"/>
   </g>
   <g id="line2d_40">
    <path clip-path="url(#p7ef87dc6c8)" d="M 120.850625 442.021562 
L 148.750625 440.499482 
L 176.650625 439.050462 
L 204.550625 437.17526 
L 232.450625 435.026083 
L 260.350625 428.736848 
L 288.250625 419.52522 
L 316.150625 403.476409 
L 344.050625 381.789813 
L 371.950625 366.873429 
L 399.850625 342.739328 
L 427.750625 313.819808 
L 455.650625 293.509173 
L 483.550625 273.155919 
L 511.450625 251.98683 
" style="fill:none;stroke:#4a98c9;stroke-dasharray:5.55,2.4;stroke-dashoffset:0;stroke-width:1.5;"/>
   </g>
   <g id="line2d_41">
    <path clip-path="url(#p7ef87dc6c8)" d="M 120.850625 442.021562 
L 148.750625 440.499482 
L 176.650625 439.044374 
L 204.550625 437.351821 
L 232.450625 435.32441 
L 260.350625 429.449182 
L 288.250625 421.035123 
L 316.150625 407.226814 
L 344.050625 386.684822 
L 371.950625 372.657333 
L 399.850625 349.223389 
L 427.750625 314.343404 
L 455.650625 291.481762 
L 483.550625 268.540972 
L 511.450625 245.868069 
" style="fill:none;stroke:#4a98c9;stroke-linecap:square;stroke-width:1.5;"/>
   </g>
   <g id="line2d_42">
    <path clip-path="url(#p7ef87dc6c8)" d="M 120.850625 442.021562 
L 148.750625 440.499482 
L 176.650625 439.044374 
L 204.550625 437.351821 
L 232.450625 435.32441 
L 260.350625 429.449182 
L 288.250625 421.035123 
L 316.150625 407.226814 
L 344.050625 386.709175 
L 371.950625 372.742569 
L 399.850625 350.964649 
L 427.750625 320.456077 
L 455.650625 301.387459 
L 483.550625 281.649125 
L 511.450625 263.231957 
" style="fill:none;stroke:#4a98c9;stroke-dasharray:5.55,2.4;stroke-dashoffset:0;stroke-width:1.5;"/>
   </g>
   <g id="line2d_43">
    <path clip-path="url(#p7ef87dc6c8)" d="M 120.850625 442.021562 
L 148.750625 440.499482 
L 176.650625 439.032197 
L 204.550625 437.217878 
L 232.450625 434.953023 
L 260.350625 428.54811 
L 288.250625 419.050331 
L 316.150625 402.861488 
L 344.050625 382.319497 
L 371.950625 368.024121 
L 399.850625 339.737786 
L 427.750625 299.761877 
L 455.650625 273.228979 
L 483.550625 242.89088 
L 511.450625 216.972902 
" style="fill:none;stroke:#4a98c9;stroke-linecap:square;stroke-width:1.5;"/>
   </g>
   <g id="line2d_44">
    <path clip-path="url(#p7ef87dc6c8)" d="M 120.850625 442.021562 
L 148.750625 440.499482 
L 176.650625 439.032197 
L 204.550625 437.217878 
L 232.450625 434.953023 
L 260.350625 428.54811 
L 288.250625 419.050331 
L 316.150625 402.861488 
L 344.050625 382.319497 
L 371.950625 368.078916 
L 399.850625 341.491223 
L 427.750625 307.262688 
L 455.650625 284.16969 
L 483.550625 260.711393 
L 511.450625 239.603187 
" style="fill:none;stroke:#4a98c9;stroke-dasharray:5.55,2.4;stroke-dashoffset:0;stroke-width:1.5;"/>
   </g>
   <g id="line2d_45">
    <path clip-path="url(#p7ef87dc6c8)" d="M 120.850625 442.021562 
L 148.750625 440.499482 
L 176.650625 439.056551 
L 204.550625 437.21179 
L 232.450625 435.038259 
L 260.350625 428.62117 
L 288.250625 418.9103 
L 316.150625 402.423129 
L 344.050625 381.771548 
L 371.950625 368.212859 
L 399.850625 342.532325 
L 427.750625 308.425557 
L 455.650625 284.522812 
L 483.550625 257.685498 
L 511.450625 231.201306 
" style="fill:none;stroke:#4a98c9;stroke-linecap:square;stroke-width:1.5;"/>
   </g>
   <g id="line2d_46">
    <path clip-path="url(#p7ef87dc6c8)" d="M 120.850625 442.021562 
L 148.750625 440.499482 
L 176.650625 439.056551 
L 204.550625 437.21179 
L 232.450625 435.038259 
L 260.350625 428.62117 
L 288.250625 418.916388 
L 316.150625 402.423129 
L 344.050625 381.783724 
L 371.950625 368.304184 
L 399.850625 343.896109 
L 427.750625 314.982677 
L 455.650625 295.213902 
L 483.550625 274.647557 
L 511.450625 252.236451 
" style="fill:none;stroke:#4a98c9;stroke-dasharray:5.55,2.4;stroke-dashoffset:0;stroke-width:1.5;"/>
   </g>
   <g id="line2d_47">
    <path clip-path="url(#p7ef87dc6c8)" d="M 120.850625 442.021562 
L 148.750625 440.499482 
L 176.650625 439.099169 
L 204.550625 437.236143 
L 232.450625 434.776462 
L 260.350625 428.109751 
L 288.250625 416.925507 
L 316.150625 399.281556 
L 344.050625 378.940479 
L 371.950625 363.214348 
L 399.850625 331.329817 
L 427.750625 292.528953 
L 455.650625 271.804312 
L 483.550625 244.498197 
L 511.450625 220.157093 
" style="fill:none;stroke:#4a98c9;stroke-linecap:square;stroke-width:1.5;"/>
   </g>
   <g id="line2d_48">
    <path clip-path="url(#p7ef87dc6c8)" d="M 120.850625 442.021562 
L 148.750625 440.499482 
L 176.650625 439.099169 
L 204.550625 437.236143 
L 232.450625 434.776462 
L 260.350625 428.109751 
L 288.250625 416.925507 
L 316.150625 399.287644 
L 344.050625 378.970921 
L 371.950625 363.263055 
L 399.850625 333.509435 
L 427.750625 302.696448 
L 455.650625 285.131644 
L 483.550625 263.073661 
L 511.450625 241.813248 
" style="fill:none;stroke:#4a98c9;stroke-dasharray:5.55,2.4;stroke-dashoffset:0;stroke-width:1.5;"/>
   </g>
   <g id="line2d_49">
    <path clip-path="url(#p7ef87dc6c8)" d="M 120.850625 442.021562 
L 148.750625 440.499482 
L 176.650625 439.099169 
L 204.550625 437.309203 
L 232.450625 435.062613 
L 260.350625 429.083882 
L 288.250625 420.109699 
L 316.150625 404.48707 
L 344.050625 383.993785 
L 371.950625 367.549232 
L 399.850625 341.479046 
L 427.750625 305.795402 
L 455.650625 282.958114 
L 483.550625 254.093389 
L 511.450625 230.82383 
" style="fill:none;stroke:#4a98c9;stroke-linecap:square;stroke-width:1.5;"/>
   </g>
   <g id="line2d_50">
    <path clip-path="url(#p7ef87dc6c8)" d="M 120.850625 442.021562 
L 148.750625 440.499482 
L 176.650625 439.099169 
L 204.550625 437.309203 
L 232.450625 435.062613 
L 260.350625 429.083882 
L 288.250625 420.109699 
L 316.150625 404.48707 
L 344.050625 383.999873 
L 371.950625 367.92062 
L 399.850625 344.285762 
L 427.750625 313.984193 
L 455.650625 295.36611 
L 483.550625 271.968697 
L 511.450625 252.35213 
" style="fill:none;stroke:#4a98c9;stroke-dasharray:5.55,2.4;stroke-dashoffset:0;stroke-width:1.5;"/>
   </g>
   <g id="line2d_51">
    <path clip-path="url(#p7ef87dc6c8)" d="M 120.850625 442.021562 
L 148.750625 440.499482 
L 176.650625 439.062639 
L 204.550625 437.303114 
L 232.450625 435.220909 
L 260.350625 429.102147 
L 288.250625 420.109699 
L 316.150625 404.651454 
L 344.050625 384.450409 
L 371.950625 370.562951 
L 399.850625 342.91589 
L 427.750625 302.732978 
L 455.650625 279.092031 
L 483.550625 251.018787 
L 511.450625 224.479801 
" style="fill:none;stroke:#4a98c9;stroke-linecap:square;stroke-width:1.5;"/>
   </g>
   <g id="line2d_52">
    <path clip-path="url(#p7ef87dc6c8)" d="M 120.850625 442.021562 
L 148.750625 440.499482 
L 176.650625 439.062639 
L 204.550625 437.303114 
L 232.450625 435.220909 
L 260.350625 429.102147 
L 288.250625 420.109699 
L 316.150625 404.651454 
L 344.050625 384.450409 
L 371.950625 370.648187 
L 399.850625 344.602354 
L 427.750625 310.58691 
L 455.650625 291.414791 
L 483.550625 267.231984 
L 511.450625 246.032453 
" style="fill:none;stroke:#4a98c9;stroke-dasharray:5.55,2.4;stroke-dashoffset:0;stroke-width:1.5;"/>
   </g>
   <g id="line2d_53">
    <path clip-path="url(#p7ef87dc6c8)" d="M 120.850625 442.021562 
L 148.750625 440.499482 
L 176.650625 439.068727 
L 204.550625 437.290938 
L 232.450625 435.062613 
L 260.350625 428.736848 
L 288.250625 419.677428 
L 316.150625 404.828016 
L 344.050625 383.348423 
L 371.950625 366.081947 
L 399.850625 336.784951 
L 427.750625 300.090647 
L 455.650625 274.464908 
L 483.550625 245.42971 
L 511.450625 223.456963 
" style="fill:none;stroke:#4a98c9;stroke-linecap:square;stroke-width:1.5;"/>
   </g>
   <g id="line2d_54">
    <path clip-path="url(#p7ef87dc6c8)" d="M 120.850625 442.021562 
L 148.750625 440.499482 
L 176.650625 439.068727 
L 204.550625 437.290938 
L 232.450625 435.062613 
L 260.350625 428.736848 
L 288.250625 419.677428 
L 316.150625 404.834104 
L 344.050625 383.360599 
L 371.950625 366.118477 
L 399.850625 338.836715 
L 427.750625 307.743665 
L 455.650625 285.685682 
L 483.550625 263.274576 
L 511.450625 244.120721 
" style="fill:none;stroke:#4a98c9;stroke-dasharray:5.55,2.4;stroke-dashoffset:0;stroke-width:1.5;"/>
   </g>
   <g id="line2d_55">
    <path clip-path="url(#p7ef87dc6c8)" d="M 120.850625 442.021562 
L 148.750625 440.499482 
L 176.650625 439.093081 
L 204.550625 437.662325 
L 232.450625 435.988037 
L 260.350625 431.391356 
L 288.250625 426.612025 
L 316.150625 417.443015 
L 344.050625 402.009123 
L 371.950625 389.187122 
L 399.850625 379.068334 
L 427.750625 373.17484 
L 455.650625 366.909959 
L 483.550625 359.847507 
L 511.450625 353.42433 
" style="fill:none;stroke:#d0e1f2;stroke-linecap:square;stroke-width:1.5;"/>
   </g>
   <g id="line2d_56">
    <path clip-path="url(#p7ef87dc6c8)" d="M 120.850625 442.021562 
L 148.750625 440.499482 
L 176.650625 439.093081 
L 204.550625 437.662325 
L 232.450625 435.988037 
L 260.350625 431.391356 
L 288.250625 426.612025 
L 316.150625 417.443015 
L 344.050625 402.015212 
L 371.950625 389.19321 
L 399.850625 379.22663 
L 427.750625 373.576669 
L 455.650625 367.70144 
L 483.550625 361.418294 
L 511.450625 355.214296 
" style="fill:none;stroke:#d0e1f2;stroke-dasharray:5.55,2.4;stroke-dashoffset:0;stroke-width:1.5;"/>
   </g>
   <g id="line2d_57">
    <path clip-path="url(#p7ef87dc6c8)" d="M 120.850625 442.021562 
L 148.750625 440.499482 
L 176.650625 439.074816 
L 204.550625 437.75365 
L 232.450625 435.975861 
L 260.350625 431.464416 
L 288.250625 427.141708 
L 316.150625 418.240585 
L 344.050625 404.018269 
L 371.950625 391.774658 
L 399.850625 381.564545 
L 427.750625 374.106353 
L 455.650625 369.229609 
L 483.550625 362.739459 
L 511.450625 356.389342 
" style="fill:none;stroke:#d0e1f2;stroke-linecap:square;stroke-width:1.5;"/>
   </g>
   <g id="line2d_58">
    <path clip-path="url(#p7ef87dc6c8)" d="M 120.850625 442.021562 
L 148.750625 440.499482 
L 176.650625 439.074816 
L 204.550625 437.75365 
L 232.450625 435.975861 
L 260.350625 431.464416 
L 288.250625 427.141708 
L 316.150625 418.240585 
L 344.050625 404.018269 
L 371.950625 391.774658 
L 399.850625 381.801989 
L 427.750625 374.581242 
L 455.650625 369.625349 
L 483.550625 363.829269 
L 511.450625 357.978393 
" style="fill:none;stroke:#d0e1f2;stroke-dasharray:5.55,2.4;stroke-dashoffset:0;stroke-width:1.5;"/>
   </g>
   <g id="line2d_59">
    <path clip-path="url(#p7ef87dc6c8)" d="M 120.850625 442.021562 
L 148.750625 440.499482 
L 176.650625 439.12961 
L 204.550625 437.759738 
L 232.450625 435.963684 
L 260.350625 431.385267 
L 288.250625 426.502435 
L 316.150625 417.175129 
L 344.050625 401.662089 
L 371.950625 388.718321 
L 399.850625 378.891772 
L 427.750625 372.657333 
L 455.650625 366.86734 
L 483.550625 360.626812 
L 511.450625 354.081868 
" style="fill:none;stroke:#d0e1f2;stroke-linecap:square;stroke-width:1.5;"/>
   </g>
   <g id="line2d_60">
    <path clip-path="url(#p7ef87dc6c8)" d="M 120.850625 442.021562 
L 148.750625 440.499482 
L 176.650625 439.12961 
L 204.550625 437.759738 
L 232.450625 435.963684 
L 260.350625 431.385267 
L 288.250625 426.502435 
L 316.150625 417.175129 
L 344.050625 401.662089 
L 371.950625 388.718321 
L 399.850625 378.995274 
L 427.750625 372.980014 
L 455.650625 367.354406 
L 483.550625 361.777505 
L 511.450625 355.950983 
" style="fill:none;stroke:#d0e1f2;stroke-dasharray:5.55,2.4;stroke-dashoffset:0;stroke-width:1.5;"/>
   </g>
   <g id="line2d_61">
    <path clip-path="url(#p7ef87dc6c8)" d="M 120.850625 442.021562 
L 148.750625 440.499482 
L 176.650625 439.074816 
L 204.550625 437.528382 
L 232.450625 435.933242 
L 260.350625 431.19653 
L 288.250625 425.948398 
L 316.150625 417.248188 
L 344.050625 401.36985 
L 371.950625 388.438258 
L 399.850625 378.215969 
L 427.750625 371.165694 
L 455.650625 364.718163 
L 483.550625 357.838362 
L 511.450625 350.130549 
" style="fill:none;stroke:#d0e1f2;stroke-linecap:square;stroke-width:1.5;"/>
   </g>
   <g id="line2d_62">
    <path clip-path="url(#p7ef87dc6c8)" d="M 120.850625 442.021562 
L 148.750625 440.499482 
L 176.650625 439.074816 
L 204.550625 437.528382 
L 232.450625 435.933242 
L 260.350625 431.19653 
L 288.250625 425.948398 
L 316.150625 417.248188 
L 344.050625 401.36985 
L 371.950625 388.438258 
L 399.850625 378.398618 
L 427.750625 371.853674 
L 455.650625 366.124565 
L 483.550625 359.646593 
L 511.450625 352.44411 
" style="fill:none;stroke:#d0e1f2;stroke-dasharray:5.55,2.4;stroke-dashoffset:0;stroke-width:1.5;"/>
   </g>
   <g id="line2d_63">
    <path clip-path="url(#p7ef87dc6c8)" d="M 120.850625 442.021562 
L 148.750625 440.499482 
L 176.650625 439.044374 
L 204.550625 437.686679 
L 232.450625 435.902801 
L 260.350625 431.153911 
L 288.250625 426.283255 
L 316.150625 417.406485 
L 344.050625 402.770163 
L 371.950625 390.727466 
L 399.850625 380.864388 
L 427.750625 374.44121 
L 455.650625 370.033267 
L 483.550625 363.573559 
L 511.450625 356.32237 
" style="fill:none;stroke:#d0e1f2;stroke-linecap:square;stroke-width:1.5;"/>
   </g>
   <g id="line2d_64">
    <path clip-path="url(#p7ef87dc6c8)" d="M 120.850625 442.021562 
L 148.750625 440.499482 
L 176.650625 439.044374 
L 204.550625 437.686679 
L 232.450625 435.902801 
L 260.350625 431.153911 
L 288.250625 426.283255 
L 316.150625 417.406485 
L 344.050625 402.770163 
L 371.950625 390.727466 
L 399.850625 380.913095 
L 427.750625 374.611683 
L 455.650625 370.24027 
L 483.550625 363.987565 
L 511.450625 357.04688 
" style="fill:none;stroke:#d0e1f2;stroke-dasharray:5.55,2.4;stroke-dashoffset:0;stroke-width:1.5;"/>
   </g>
   <g id="line2d_65">
    <path clip-path="url(#p7ef87dc6c8)" d="M 120.850625 442.021562 
L 148.750625 440.499482 
L 176.650625 439.062639 
L 204.550625 437.424881 
L 232.450625 435.854094 
L 260.350625 430.83123 
L 288.250625 425.826631 
L 316.150625 416.657621 
L 344.050625 401.235907 
L 371.950625 389.217563 
L 399.850625 380.511266 
L 427.750625 374.642125 
L 455.650625 368.53554 
L 483.550625 362.727283 
L 511.450625 355.354327 
" style="fill:none;stroke:#d0e1f2;stroke-linecap:square;stroke-width:1.5;"/>
   </g>
   <g id="line2d_66">
    <path clip-path="url(#p7ef87dc6c8)" d="M 120.850625 442.021562 
L 148.750625 440.499482 
L 176.650625 439.062639 
L 204.550625 437.424881 
L 232.450625 435.854094 
L 260.350625 430.83123 
L 288.250625 425.826631 
L 316.150625 416.657621 
L 344.050625 401.235907 
L 371.950625 389.223651 
L 399.850625 381.047038 
L 427.750625 375.336194 
L 455.650625 369.698409 
L 483.550625 364.133685 
L 511.450625 357.126028 
" style="fill:none;stroke:#d0e1f2;stroke-dasharray:5.55,2.4;stroke-dashoffset:0;stroke-width:1.5;"/>
   </g>
   <g id="line2d_67">
    <path clip-path="url(#p7ef87dc6c8)" d="M 120.850625 442.021562 
L 148.750625 440.499482 
L 176.650625 439.105257 
L 204.550625 437.637972 
L 232.450625 435.774946 
L 260.350625 430.898202 
L 288.250625 425.656158 
L 316.150625 415.79308 
L 344.050625 399.567707 
L 371.950625 387.208418 
L 399.850625 379.573664 
L 427.750625 373.978498 
L 455.650625 368.085004 
L 483.550625 362.800343 
L 511.450625 355.342151 
" style="fill:none;stroke:#d0e1f2;stroke-linecap:square;stroke-width:1.5;"/>
   </g>
   <g id="line2d_68">
    <path clip-path="url(#p7ef87dc6c8)" d="M 120.850625 442.021562 
L 148.750625 440.499482 
L 176.650625 439.105257 
L 204.550625 437.637972 
L 232.450625 435.774946 
L 260.350625 430.898202 
L 288.250625 425.656158 
L 316.150625 415.79308 
L 344.050625 399.567707 
L 371.950625 387.251036 
L 399.850625 379.774579 
L 427.750625 374.368151 
L 455.650625 368.724278 
L 483.550625 363.731856 
L 511.450625 356.705934 
" style="fill:none;stroke:#d0e1f2;stroke-dasharray:5.55,2.4;stroke-dashoffset:0;stroke-width:1.5;"/>
   </g>
   <g id="line2d_69">
    <path clip-path="url(#p7ef87dc6c8)" d="M 120.850625 442.021562 
L 148.750625 440.499482 
L 176.650625 439.086992 
L 204.550625 437.589266 
L 232.450625 435.896713 
L 260.350625 431.178265 
L 288.250625 426.179754 
L 316.150625 416.852448 
L 344.050625 400.827989 
L 371.950625 388.13993 
L 399.850625 377.649755 
L 427.750625 370.690805 
L 455.650625 364.699898 
L 483.550625 357.88098 
L 511.450625 350.215785 
" style="fill:none;stroke:#d0e1f2;stroke-linecap:square;stroke-width:1.5;"/>
   </g>
   <g id="line2d_70">
    <path clip-path="url(#p7ef87dc6c8)" d="M 120.850625 442.021562 
L 148.750625 440.499482 
L 176.650625 439.086992 
L 204.550625 437.589266 
L 232.450625 435.896713 
L 260.350625 431.178265 
L 288.250625 426.179754 
L 316.150625 416.852448 
L 344.050625 400.827989 
L 371.950625 388.146019 
L 399.850625 377.820228 
L 427.750625 371.719731 
L 455.650625 366.124565 
L 483.550625 359.768359 
L 511.450625 352.578053 
" style="fill:none;stroke:#d0e1f2;stroke-dasharray:5.55,2.4;stroke-dashoffset:0;stroke-width:1.5;"/>
   </g>
   <g id="line2d_71">
    <path clip-path="url(#p7ef87dc6c8)" d="M 120.850625 442.021562 
L 148.750625 440.499482 
L 176.650625 439.099169 
L 204.550625 437.504029 
L 232.450625 435.744505 
L 260.350625 430.94082 
L 288.250625 425.412626 
L 316.150625 415.927023 
L 344.050625 400.407895 
L 371.950625 387.762455 
L 399.850625 379.068334 
L 427.750625 373.071338 
L 455.650625 366.118477 
L 483.550625 359.969274 
L 511.450625 353.27821 
" style="fill:none;stroke:#d0e1f2;stroke-linecap:square;stroke-width:1.5;"/>
   </g>
   <g id="line2d_72">
    <path clip-path="url(#p7ef87dc6c8)" d="M 120.850625 442.021562 
L 148.750625 440.499482 
L 176.650625 439.099169 
L 204.550625 437.504029 
L 232.450625 435.744505 
L 260.350625 430.94082 
L 288.250625 425.412626 
L 316.150625 415.927023 
L 344.050625 400.407895 
L 371.950625 387.847691 
L 399.850625 379.457986 
L 427.750625 373.607111 
L 455.650625 366.849075 
L 483.550625 361.126055 
L 511.450625 354.818555 
" style="fill:none;stroke:#d0e1f2;stroke-dasharray:5.55,2.4;stroke-dashoffset:0;stroke-width:1.5;"/>
   </g>
   <g id="line2d_73">
    <path clip-path="url(#p7ef87dc6c8)" d="M 120.850625 442.021562 
L 148.750625 440.499482 
L 176.650625 439.062639 
L 204.550625 437.601442 
L 232.450625 435.866271 
L 260.350625 431.044322 
L 288.250625 425.777925 
L 316.150625 416.255792 
L 344.050625 400.073038 
L 371.950625 387.549363 
L 399.850625 377.765433 
L 427.750625 370.587304 
L 455.650625 364.206745 
L 483.550625 357.801832 
L 511.450625 350.788087 
" style="fill:none;stroke:#d0e1f2;stroke-linecap:square;stroke-width:1.5;"/>
   </g>
   <g id="line2d_74">
    <path clip-path="url(#p7ef87dc6c8)" d="M 120.850625 442.021562 
L 148.750625 440.499482 
L 176.650625 439.062639 
L 204.550625 437.601442 
L 232.450625 435.866271 
L 260.350625 431.044322 
L 288.250625 425.777925 
L 316.150625 416.255792 
L 344.050625 400.073038 
L 371.950625 387.549363 
L 399.850625 378.416883 
L 427.750625 371.305726 
L 455.650625 365.540087 
L 483.550625 359.932744 
L 511.450625 353.192974 
" style="fill:none;stroke:#d0e1f2;stroke-dasharray:5.55,2.4;stroke-dashoffset:0;stroke-width:1.5;"/>
   </g>
   <g id="line2d_75">
    <path clip-path="url(#p7ef87dc6c8)" d="M 120.850625 442.021562 
L 148.750625 440.499482 
L 176.650625 439.044374 
L 204.550625 436.925639 
L 232.450625 433.583151 
L 260.350625 424.846412 
L 288.250625 408.864572 
L 316.150625 381.424514 
L 344.050625 350.842882 
L 371.950625 314.933971 
L 399.850625 258.215182 
L 427.750625 236.126757 
L 455.650625 223.694407 
L 483.550625 214.592369 
L 511.450625 209.837391 
" style="fill:none;stroke:#1764ab;stroke-linecap:square;stroke-width:1.5;"/>
   </g>
   <g id="line2d_76">
    <path clip-path="url(#p7ef87dc6c8)" d="M 120.850625 442.021562 
L 148.750625 440.499482 
L 176.650625 439.044374 
L 204.550625 436.925639 
L 232.450625 433.583151 
L 260.350625 424.846412 
L 288.250625 408.864572 
L 316.150625 381.442778 
L 344.050625 350.891589 
L 371.950625 315.007031 
L 399.850625 260.626156 
L 427.750625 242.05678 
L 455.650625 231.968434 
L 483.550625 223.743114 
L 511.450625 218.087065 
" style="fill:none;stroke:#1764ab;stroke-dasharray:5.55,2.4;stroke-dashoffset:0;stroke-width:1.5;"/>
   </g>
   <g id="line2d_77">
    <path clip-path="url(#p7ef87dc6c8)" d="M 120.850625 442.021562 
L 148.750625 440.499482 
L 176.650625 439.062639 
L 204.550625 436.931727 
L 232.450625 433.430943 
L 260.350625 424.475024 
L 288.250625 408.395771 
L 316.150625 380.219026 
L 344.050625 349.180771 
L 371.950625 310.227699 
L 399.850625 255.085785 
L 427.750625 227.791847 
L 455.650625 218.46454 
L 483.550625 206.756701 
L 511.450625 205.064148 
" style="fill:none;stroke:#1764ab;stroke-linecap:square;stroke-width:1.5;"/>
   </g>
   <g id="line2d_78">
    <path clip-path="url(#p7ef87dc6c8)" d="M 120.850625 442.021562 
L 148.750625 440.499482 
L 176.650625 439.062639 
L 204.550625 436.931727 
L 232.450625 433.430943 
L 260.350625 424.475024 
L 288.250625 408.395771 
L 316.150625 380.231203 
L 344.050625 349.223389 
L 371.950625 310.410349 
L 399.850625 259.073635 
L 427.750625 238.008048 
L 455.650625 226.829892 
L 483.550625 217.77656 
L 511.450625 213.155525 
" style="fill:none;stroke:#1764ab;stroke-dasharray:5.55,2.4;stroke-dashoffset:0;stroke-width:1.5;"/>
   </g>
   <g id="line2d_79">
    <path clip-path="url(#p7ef87dc6c8)" d="M 120.850625 442.021562 
L 148.750625 440.499482 
L 176.650625 439.074816 
L 204.550625 436.998698 
L 232.450625 433.899744 
L 260.350625 425.674423 
L 288.250625 410.764128 
L 316.150625 383.476277 
L 344.050625 352.754615 
L 371.950625 319.768097 
L 399.850625 262.343063 
L 427.750625 237.484452 
L 455.650625 230.361118 
L 483.550625 215.736973 
L 511.450625 214.251423 
" style="fill:none;stroke:#1764ab;stroke-linecap:square;stroke-width:1.5;"/>
   </g>
   <g id="line2d_80">
    <path clip-path="url(#p7ef87dc6c8)" d="M 120.850625 442.021562 
L 148.750625 440.499482 
L 176.650625 439.074816 
L 204.550625 436.998698 
L 232.450625 433.899744 
L 260.350625 425.680512 
L 288.250625 410.764128 
L 316.150625 383.494542 
L 344.050625 352.778968 
L 371.950625 320.48043 
L 399.850625 266.830154 
L 427.750625 247.998981 
L 455.650625 238.336817 
L 483.550625 226.860334 
L 511.450625 221.953148 
" style="fill:none;stroke:#1764ab;stroke-dasharray:5.55,2.4;stroke-dashoffset:0;stroke-width:1.5;"/>
   </g>
   <g id="line2d_81">
    <path clip-path="url(#p7ef87dc6c8)" d="M 120.850625 442.021562 
L 148.750625 440.499482 
L 176.650625 439.074816 
L 204.550625 437.016963 
L 232.450625 433.771889 
L 260.350625 425.315212 
L 288.250625 410.551036 
L 316.150625 385.990754 
L 344.050625 358.782051 
L 371.950625 321.31453 
L 399.850625 267.341573 
L 427.750625 244.869584 
L 455.650625 232.814711 
L 483.550625 221.825293 
L 511.450625 217.587822 
" style="fill:none;stroke:#1764ab;stroke-linecap:square;stroke-width:1.5;"/>
   </g>
   <g id="line2d_82">
    <path clip-path="url(#p7ef87dc6c8)" d="M 120.850625 442.021562 
L 148.750625 440.499482 
L 176.650625 439.074816 
L 204.550625 437.016963 
L 232.450625 433.777977 
L 260.350625 425.315212 
L 288.250625 410.563213 
L 316.150625 386.015107 
L 344.050625 358.806405 
L 371.950625 321.332795 
L 399.850625 270.525765 
L 427.750625 251.944212 
L 455.650625 240.419022 
L 483.550625 231.43875 
L 511.450625 225.880114 
" style="fill:none;stroke:#1764ab;stroke-dasharray:5.55,2.4;stroke-dashoffset:0;stroke-width:1.5;"/>
   </g>
   <g id="line2d_83">
    <path clip-path="url(#p7ef87dc6c8)" d="M 120.850625 442.021562 
L 148.750625 440.499482 
L 176.650625 439.026109 
L 204.550625 437.010875 
L 232.450625 433.625769 
L 260.350625 424.901207 
L 288.250625 409.108105 
L 316.150625 380.407764 
L 344.050625 349.789603 
L 371.950625 313.734572 
L 399.850625 255.743324 
L 427.750625 227.578755 
L 455.650625 218.354951 
L 483.550625 204.595347 
L 511.450625 199.968224 
" style="fill:none;stroke:#1764ab;stroke-linecap:square;stroke-width:1.5;"/>
   </g>
   <g id="line2d_84">
    <path clip-path="url(#p7ef87dc6c8)" d="M 120.850625 442.021562 
L 148.750625 440.499482 
L 176.650625 439.026109 
L 204.550625 437.010875 
L 232.450625 433.625769 
L 260.350625 424.901207 
L 288.250625 409.114193 
L 316.150625 380.419941 
L 344.050625 349.807868 
L 371.950625 313.789367 
L 399.850625 259.895558 
L 427.750625 236.906062 
L 455.650625 226.568094 
L 483.550625 215.931799 
L 511.450625 210.117454 
" style="fill:none;stroke:#1764ab;stroke-dasharray:5.55,2.4;stroke-dashoffset:0;stroke-width:1.5;"/>
   </g>
   <g id="line2d_85">
    <path clip-path="url(#p7ef87dc6c8)" d="M 120.850625 442.021562 
L 148.750625 440.499482 
L 176.650625 439.074816 
L 204.550625 436.870844 
L 232.450625 433.400501 
L 260.350625 424.389788 
L 288.250625 408.243563 
L 316.150625 380.955713 
L 344.050625 352.419757 
L 371.950625 319.64633 
L 399.850625 265.393311 
L 427.750625 233.210451 
L 455.650625 224.583302 
L 483.550625 212.528428 
L 511.450625 206.896732 
" style="fill:none;stroke:#1764ab;stroke-linecap:square;stroke-width:1.5;"/>
   </g>
   <g id="line2d_86">
    <path clip-path="url(#p7ef87dc6c8)" d="M 120.850625 442.021562 
L 148.750625 440.499482 
L 176.650625 439.074816 
L 204.550625 436.870844 
L 232.450625 433.400501 
L 260.350625 424.395876 
L 288.250625 408.25574 
L 316.150625 380.96789 
L 344.050625 352.456287 
L 371.950625 319.798538 
L 399.850625 268.8393 
L 427.750625 242.641259 
L 455.650625 232.406793 
L 483.550625 221.83747 
L 511.450625 215.937888 
" style="fill:none;stroke:#1764ab;stroke-dasharray:5.55,2.4;stroke-dashoffset:0;stroke-width:1.5;"/>
   </g>
   <g id="line2d_87">
    <path clip-path="url(#p7ef87dc6c8)" d="M 120.850625 442.021562 
L 148.750625 440.499482 
L 176.650625 439.086992 
L 204.550625 436.949992 
L 232.450625 433.363971 
L 260.350625 423.94534 
L 288.250625 406.983281 
L 316.150625 378.155086 
L 344.050625 351.543039 
L 371.950625 310.264229 
L 399.850625 260.875778 
L 427.750625 240.315521 
L 455.650625 229.624431 
L 483.550625 221.995766 
L 511.450625 216.692839 
" style="fill:none;stroke:#1764ab;stroke-linecap:square;stroke-width:1.5;"/>
   </g>
   <g id="line2d_88">
    <path clip-path="url(#p7ef87dc6c8)" d="M 120.850625 442.021562 
L 148.750625 440.499482 
L 176.650625 439.086992 
L 204.550625 436.949992 
L 232.450625 433.363971 
L 260.350625 423.94534 
L 288.250625 406.983281 
L 316.150625 378.161174 
L 344.050625 351.579569 
L 371.950625 310.489497 
L 399.850625 264.821009 
L 427.750625 247.767625 
L 455.650625 237.295714 
L 483.550625 230.257616 
L 511.450625 225.039926 
" style="fill:none;stroke:#1764ab;stroke-dasharray:5.55,2.4;stroke-dashoffset:0;stroke-width:1.5;"/>
   </g>
   <g id="line2d_89">
    <path clip-path="url(#p7ef87dc6c8)" d="M 120.850625 442.021562 
L 148.750625 440.499482 
L 176.650625 439.074816 
L 204.550625 436.901285 
L 232.450625 433.418766 
L 260.350625 424.663762 
L 288.250625 408.523626 
L 316.150625 380.669562 
L 344.050625 352.675466 
L 371.950625 314.75741 
L 399.850625 255.725059 
L 427.750625 231.65793 
L 455.650625 220.236242 
L 483.550625 211.950038 
L 511.450625 209.557328 
" style="fill:none;stroke:#1764ab;stroke-linecap:square;stroke-width:1.5;"/>
   </g>
   <g id="line2d_90">
    <path clip-path="url(#p7ef87dc6c8)" d="M 120.850625 442.021562 
L 148.750625 440.499482 
L 176.650625 439.074816 
L 204.550625 436.901285 
L 232.450625 433.418766 
L 260.350625 424.663762 
L 288.250625 408.523626 
L 316.150625 380.693915 
L 344.050625 352.718085 
L 371.950625 314.830469 
L 399.850625 258.531774 
L 427.750625 239.34139 
L 455.650625 227.822288 
L 483.550625 221.094695 
L 511.450625 216.686751 
" style="fill:none;stroke:#1764ab;stroke-dasharray:5.55,2.4;stroke-dashoffset:0;stroke-width:1.5;"/>
   </g>
   <g id="line2d_91">
    <path clip-path="url(#p7ef87dc6c8)" d="M 120.850625 442.021562 
L 148.750625 440.499482 
L 176.650625 439.062639 
L 204.550625 436.895197 
L 232.450625 433.382236 
L 260.350625 424.261933 
L 288.250625 407.622554 
L 316.150625 380.407764 
L 344.050625 352.967706 
L 371.950625 309.570161 
L 399.850625 253.843768 
L 427.750625 233.07042 
L 455.650625 220.979017 
L 483.550625 210.695844 
L 511.450625 206.446197 
" style="fill:none;stroke:#1764ab;stroke-linecap:square;stroke-width:1.5;"/>
   </g>
   <g id="line2d_92">
    <path clip-path="url(#p7ef87dc6c8)" d="M 120.850625 442.021562 
L 148.750625 440.499482 
L 176.650625 439.062639 
L 204.550625 436.895197 
L 232.450625 433.382236 
L 260.350625 424.261933 
L 288.250625 407.622554 
L 316.150625 380.432117 
L 344.050625 353.004236 
L 371.950625 309.704104 
L 399.850625 259.037105 
L 427.750625 242.659524 
L 455.650625 230.836007 
L 483.550625 223.189077 
L 511.450625 217.673059 
" style="fill:none;stroke:#1764ab;stroke-dasharray:5.55,2.4;stroke-dashoffset:0;stroke-width:1.5;"/>
   </g>
   <g id="line2d_93">
    <path clip-path="url(#p7ef87dc6c8)" d="M 120.850625 442.021562 
L 148.750625 440.499482 
L 176.650625 439.111346 
L 204.550625 437.1022 
L 232.450625 433.625769 
L 260.350625 424.919472 
L 288.250625 409.716937 
L 316.150625 382.149024 
L 344.050625 353.844424 
L 371.950625 317.290151 
L 399.850625 262.501359 
L 427.750625 243.816305 
L 455.650625 231.877109 
L 483.550625 221.758322 
L 511.450625 217.417349 
" style="fill:none;stroke:#1764ab;stroke-linecap:square;stroke-width:1.5;"/>
   </g>
   <g id="line2d_94">
    <path clip-path="url(#p7ef87dc6c8)" d="M 120.850625 442.021562 
L 148.750625 440.499482 
L 176.650625 439.111346 
L 204.550625 437.1022 
L 232.450625 433.625769 
L 260.350625 424.919472 
L 288.250625 409.716937 
L 316.150625 382.1612 
L 344.050625 353.874866 
L 371.950625 317.539772 
L 399.850625 266.720565 
L 427.750625 250.817873 
L 455.650625 239.34139 
L 483.550625 230.93342 
L 511.450625 225.453932 
" style="fill:none;stroke:#1764ab;stroke-dasharray:5.55,2.4;stroke-dashoffset:0;stroke-width:1.5;"/>
   </g>
   <g id="line2d_95">
    <path clip-path="url(#p7ef87dc6c8)" d="M 120.850625 442.021562 
L 148.750625 440.499482 
L 176.650625 439.086992 
L 204.550625 437.485764 
L 232.450625 435.65318 
L 260.350625 430.21631 
L 288.250625 422.885973 
L 316.150625 410.636273 
L 344.050625 391.926866 
L 371.950625 378.696946 
L 399.850625 364.11542 
L 427.750625 339.65255 
L 455.650625 317.905071 
L 483.550625 296.967338 
L 511.450625 269.05848 
" style="fill:none;stroke:#94c4df;stroke-linecap:square;stroke-width:1.5;"/>
   </g>
   <g id="line2d_96">
    <path clip-path="url(#p7ef87dc6c8)" d="M 120.850625 442.021562 
L 148.750625 440.499482 
L 176.650625 439.086992 
L 204.550625 437.485764 
L 232.450625 435.65318 
L 260.350625 430.21631 
L 288.250625 422.885973 
L 316.150625 410.642361 
L 344.050625 391.939042 
L 371.950625 378.709123 
L 399.850625 364.626839 
L 427.750625 342.702798 
L 455.650625 325.558089 
L 483.550625 307.122656 
L 511.450625 285.070761 
" style="fill:none;stroke:#94c4df;stroke-dasharray:5.55,2.4;stroke-dashoffset:0;stroke-width:1.5;"/>
   </g>
   <g id="line2d_97">
    <path clip-path="url(#p7ef87dc6c8)" d="M 120.850625 442.021562 
L 148.750625 440.499482 
L 176.650625 439.117434 
L 204.550625 437.516206 
L 232.450625 435.671445 
L 260.350625 430.526814 
L 288.250625 423.433922 
L 316.150625 412.207059 
L 344.050625 394.563108 
L 371.950625 380.700003 
L 399.850625 365.899298 
L 427.750625 343.737813 
L 455.650625 329.716412 
L 483.550625 306.379881 
L 511.450625 279.475595 
" style="fill:none;stroke:#94c4df;stroke-linecap:square;stroke-width:1.5;"/>
   </g>
   <g id="line2d_98">
    <path clip-path="url(#p7ef87dc6c8)" d="M 120.850625 442.021562 
L 148.750625 440.499482 
L 176.650625 439.117434 
L 204.550625 437.516206 
L 232.450625 435.671445 
L 260.350625 430.526814 
L 288.250625 423.433922 
L 316.150625 412.213148 
L 344.050625 394.59355 
L 371.950625 380.74871 
L 399.850625 366.422893 
L 427.750625 346.100081 
L 455.650625 334.130444 
L 483.550625 316.839615 
L 511.450625 295.335669 
" style="fill:none;stroke:#94c4df;stroke-dasharray:5.55,2.4;stroke-dashoffset:0;stroke-width:1.5;"/>
   </g>
   <g id="line2d_99">
    <path clip-path="url(#p7ef87dc6c8)" d="M 120.850625 442.021562 
L 148.750625 440.499482 
L 176.650625 439.038286 
L 204.550625 437.254408 
L 232.450625 435.172202 
L 260.350625 429.284797 
L 288.250625 420.986417 
L 316.150625 406.070033 
L 344.050625 384.255582 
L 371.950625 370.398566 
L 399.850625 352.73635 
L 427.750625 333.819939 
L 455.650625 314.142489 
L 483.550625 291.88968 
L 511.450625 270.629266 
" style="fill:none;stroke:#94c4df;stroke-linecap:square;stroke-width:1.5;"/>
   </g>
   <g id="line2d_100">
    <path clip-path="url(#p7ef87dc6c8)" d="M 120.850625 442.021562 
L 148.750625 440.499482 
L 176.650625 439.038286 
L 204.550625 437.254408 
L 232.450625 435.172202 
L 260.350625 429.284797 
L 288.250625 420.986417 
L 316.150625 406.070033 
L 344.050625 384.255582 
L 371.950625 370.739512 
L 399.850625 355.049911 
L 427.750625 337.51555 
L 455.650625 321.186675 
L 483.550625 302.47118 
L 511.450625 284.626314 
" style="fill:none;stroke:#94c4df;stroke-dasharray:5.55,2.4;stroke-dashoffset:0;stroke-width:1.5;"/>
   </g>
   <g id="line2d_101">
    <path clip-path="url(#p7ef87dc6c8)" d="M 120.850625 442.021562 
L 148.750625 440.499482 
L 176.650625 439.062639 
L 204.550625 437.461411 
L 232.450625 435.50706 
L 260.350625 430.015395 
L 288.250625 422.867708 
L 316.150625 410.490153 
L 344.050625 392.718347 
L 371.950625 380.8583 
L 399.850625 366.465511 
L 427.750625 345.144215 
L 455.650625 324.407397 
L 483.550625 302.270265 
L 511.450625 279.920042 
" style="fill:none;stroke:#94c4df;stroke-linecap:square;stroke-width:1.5;"/>
   </g>
   <g id="line2d_102">
    <path clip-path="url(#p7ef87dc6c8)" d="M 120.850625 442.021562 
L 148.750625 440.499482 
L 176.650625 439.062639 
L 204.550625 437.461411 
L 232.450625 435.50706 
L 260.350625 430.015395 
L 288.250625 422.867708 
L 316.150625 410.490153 
L 344.050625 392.718347 
L 371.950625 380.937448 
L 399.850625 367.439642 
L 427.750625 347.896135 
L 455.650625 330.136506 
L 483.550625 312.188138 
L 511.450625 293.454378 
" style="fill:none;stroke:#94c4df;stroke-dasharray:5.55,2.4;stroke-dashoffset:0;stroke-width:1.5;"/>
   </g>
   <g id="line2d_103">
    <path clip-path="url(#p7ef87dc6c8)" d="M 120.850625 442.021562 
L 148.750625 440.499482 
L 176.650625 439.074816 
L 204.550625 437.437058 
L 232.450625 435.275704 
L 260.350625 429.485712 
L 288.250625 421.680485 
L 316.150625 408.012207 
L 344.050625 387.713748 
L 371.950625 373.290518 
L 399.850625 357.162558 
L 427.750625 339.159396 
L 455.650625 320.297781 
L 483.550625 298.525948 
L 511.450625 275.207683 
" style="fill:none;stroke:#94c4df;stroke-linecap:square;stroke-width:1.5;"/>
   </g>
   <g id="line2d_104">
    <path clip-path="url(#p7ef87dc6c8)" d="M 120.850625 442.021562 
L 148.750625 440.499482 
L 176.650625 439.074816 
L 204.550625 437.437058 
L 232.450625 435.275704 
L 260.350625 429.485712 
L 288.250625 421.680485 
L 316.150625 408.012207 
L 344.050625 387.713748 
L 371.950625 373.314871 
L 399.850625 358.78814 
L 427.750625 342.581032 
L 455.650625 325.874682 
L 483.550625 308.084611 
L 511.450625 288.364542 
" style="fill:none;stroke:#94c4df;stroke-dasharray:5.55,2.4;stroke-dashoffset:0;stroke-width:1.5;"/>
   </g>
   <g id="line2d_105">
    <path clip-path="url(#p7ef87dc6c8)" d="M 120.850625 442.021562 
L 148.750625 440.499482 
L 176.650625 439.044374 
L 204.550625 437.278761 
L 232.450625 435.379205 
L 260.350625 429.60139 
L 288.250625 421.8814 
L 316.150625 409.716937 
L 344.050625 390.800526 
L 371.950625 377.81414 
L 399.850625 363.853622 
L 427.750625 343.195952 
L 455.650625 324.450015 
L 483.550625 302.038909 
L 511.450625 276.699321 
" style="fill:none;stroke:#94c4df;stroke-linecap:square;stroke-width:1.5;"/>
   </g>
   <g id="line2d_106">
    <path clip-path="url(#p7ef87dc6c8)" d="M 120.850625 442.021562 
L 148.750625 440.499482 
L 176.650625 439.044374 
L 204.550625 437.278761 
L 232.450625 435.379205 
L 260.350625 429.60139 
L 288.250625 421.8814 
L 316.150625 409.716937 
L 344.050625 390.812703 
L 371.950625 377.881111 
L 399.850625 364.69381 
L 427.750625 346.727178 
L 455.650625 330.818398 
L 483.550625 311.968959 
L 511.450625 290.215392 
" style="fill:none;stroke:#94c4df;stroke-dasharray:5.55,2.4;stroke-dashoffset:0;stroke-width:1.5;"/>
   </g>
   <g id="line2d_107">
    <path clip-path="url(#p7ef87dc6c8)" d="M 120.850625 442.021562 
L 148.750625 440.499482 
L 176.650625 439.080904 
L 204.550625 437.382263 
L 232.450625 435.452265 
L 260.350625 429.966689 
L 288.250625 422.654617 
L 316.150625 410.97113 
L 344.050625 392.34696 
L 371.950625 379.945052 
L 399.850625 364.413747 
L 427.750625 342.495795 
L 455.650625 322.617431 
L 483.550625 299.408755 
L 511.450625 273.831722 
" style="fill:none;stroke:#94c4df;stroke-linecap:square;stroke-width:1.5;"/>
   </g>
   <g id="line2d_108">
    <path clip-path="url(#p7ef87dc6c8)" d="M 120.850625 442.021562 
L 148.750625 440.499482 
L 176.650625 439.080904 
L 204.550625 437.382263 
L 232.450625 435.452265 
L 260.350625 429.966689 
L 288.250625 422.654617 
L 316.150625 410.97113 
L 344.050625 392.34696 
L 371.950625 379.963317 
L 399.850625 365.278289 
L 427.750625 345.7774 
L 455.650625 329.052785 
L 483.550625 310.245964 
L 511.450625 289.222995 
" style="fill:none;stroke:#94c4df;stroke-dasharray:5.55,2.4;stroke-dashoffset:0;stroke-width:1.5;"/>
   </g>
   <g id="line2d_109">
    <path clip-path="url(#p7ef87dc6c8)" d="M 120.850625 442.021562 
L 148.750625 440.499482 
L 176.650625 439.062639 
L 204.550625 437.278761 
L 232.450625 435.147849 
L 260.350625 429.022999 
L 288.250625 420.328878 
L 316.150625 405.838677 
L 344.050625 385.083594 
L 371.950625 371.464022 
L 399.850625 354.227988 
L 427.750625 331.055842 
L 455.650625 311.043534 
L 483.550625 287.573061 
L 511.450625 262.446564 
" style="fill:none;stroke:#94c4df;stroke-linecap:square;stroke-width:1.5;"/>
   </g>
   <g id="line2d_110">
    <path clip-path="url(#p7ef87dc6c8)" d="M 120.850625 442.021562 
L 148.750625 440.499482 
L 176.650625 439.062639 
L 204.550625 437.278761 
L 232.450625 435.147849 
L 260.350625 429.022999 
L 288.250625 420.328878 
L 316.150625 405.838677 
L 344.050625 385.083594 
L 371.950625 371.683202 
L 399.850625 356.334547 
L 427.750625 335.682965 
L 455.650625 318.95835 
L 483.550625 299.140869 
L 511.450625 278.452757 
" style="fill:none;stroke:#94c4df;stroke-dasharray:5.55,2.4;stroke-dashoffset:0;stroke-width:1.5;"/>
   </g>
   <g id="line2d_111">
    <path clip-path="url(#p7ef87dc6c8)" d="M 120.850625 442.021562 
L 148.750625 440.499482 
L 176.650625 439.093081 
L 204.550625 437.546647 
L 232.450625 435.683621 
L 260.350625 430.392871 
L 288.250625 423.847927 
L 316.150625 411.872202 
L 344.050625 395.403296 
L 371.950625 383.275363 
L 399.850625 368.316361 
L 427.750625 346.453203 
L 455.650625 323.969038 
L 483.550625 300.157618 
L 511.450625 276.30358 
" style="fill:none;stroke:#94c4df;stroke-linecap:square;stroke-width:1.5;"/>
   </g>
   <g id="line2d_112">
    <path clip-path="url(#p7ef87dc6c8)" d="M 120.850625 442.021562 
L 148.750625 440.499482 
L 176.650625 439.093081 
L 204.550625 437.546647 
L 232.450625 435.683621 
L 260.350625 430.392871 
L 288.250625 423.847927 
L 316.150625 411.872202 
L 344.050625 395.403296 
L 371.950625 383.305804 
L 399.850625 369.089577 
L 427.750625 348.778942 
L 455.650625 329.308494 
L 483.550625 310.136375 
L 511.450625 287.926183 
" style="fill:none;stroke:#94c4df;stroke-dasharray:5.55,2.4;stroke-dashoffset:0;stroke-width:1.5;"/>
   </g>
   <g id="line2d_113">
    <path clip-path="url(#p7ef87dc6c8)" d="M 120.850625 442.021562 
L 148.750625 440.499482 
L 176.650625 439.074816 
L 204.550625 437.443146 
L 232.450625 435.458354 
L 260.350625 430.039749 
L 288.250625 422.502409 
L 316.150625 409.662142 
L 344.050625 390.818791 
L 371.950625 378.934391 
L 399.850625 361.637474 
L 427.750625 335.396814 
L 455.650625 315.347977 
L 483.550625 294.051033 
L 511.450625 269.119363 
" style="fill:none;stroke:#94c4df;stroke-linecap:square;stroke-width:1.5;"/>
   </g>
   <g id="line2d_114">
    <path clip-path="url(#p7ef87dc6c8)" d="M 120.850625 442.021562 
L 148.750625 440.499482 
L 176.650625 439.074816 
L 204.550625 437.443146 
L 232.450625 435.458354 
L 260.350625 430.039749 
L 288.250625 422.502409 
L 316.150625 409.662142 
L 344.050625 390.830968 
L 371.950625 379.001362 
L 399.850625 362.885579 
L 427.750625 339.488165 
L 455.650625 323.244528 
L 483.550625 304.565562 
L 511.450625 283.384297 
" style="fill:none;stroke:#94c4df;stroke-dasharray:5.55,2.4;stroke-dashoffset:0;stroke-width:1.5;"/>
   </g>
   <g id="line2d_115">
    <path clip-path="url(#p7ef87dc6c8)" d="M 120.850625 442.021562 
" style="fill:none;stroke:#000000;stroke-linecap:square;stroke-width:1.5;"/>
   </g>
   <g id="line2d_116">
    <path clip-path="url(#p7ef87dc6c8)" d="M 120.850625 442.021562 
" style="fill:none;stroke:#d0e1f2;stroke-linecap:square;stroke-width:1.5;"/>
   </g>
   <g id="line2d_117">
    <path clip-path="url(#p7ef87dc6c8)" d="M 120.850625 442.021562 
" style="fill:none;stroke:#94c4df;stroke-linecap:square;stroke-width:1.5;"/>
   </g>
   <g id="line2d_118">
    <path clip-path="url(#p7ef87dc6c8)" d="M 120.850625 442.021562 
" style="fill:none;stroke:#4a98c9;stroke-linecap:square;stroke-width:1.5;"/>
   </g>
   <g id="line2d_119">
    <path clip-path="url(#p7ef87dc6c8)" d="M 120.850625 442.021562 
" style="fill:none;stroke:#1764ab;stroke-linecap:square;stroke-width:1.5;"/>
   </g>
   <g id="line2d_120">
    <path clip-path="url(#p7ef87dc6c8)" d="M 120.850625 442.021562 
" style="fill:none;stroke:#08306b;stroke-linecap:square;stroke-width:1.5;"/>
   </g>
   <g id="line2d_121">
    <path clip-path="url(#p7ef87dc6c8)" d="M 120.850625 442.021562 
" style="fill:none;stroke:#000000;stroke-dasharray:5.55,2.4;stroke-dashoffset:0;stroke-width:1.5;"/>
   </g>
   <g id="line2d_122">
    <path clip-path="url(#p7ef87dc6c8)" d="M 120.850625 442.021562 
" style="fill:none;stroke:#000000;stroke-linecap:square;stroke-width:1.5;"/>
   </g>
   <g id="patch_3">
    <path d="M 120.850625 442.021562 
L 120.850625 61.501562 
" style="fill:none;stroke:#000000;stroke-linecap:square;stroke-linejoin:miter;stroke-width:0.8;"/>
   </g>
   <g id="patch_4">
    <path d="M 511.450625 442.021562 
L 511.450625 61.501562 
" style="fill:none;stroke:#000000;stroke-linecap:square;stroke-linejoin:miter;stroke-width:0.8;"/>
   </g>
   <g id="patch_5">
    <path d="M 120.850625 442.021562 
L 511.450625 442.021562 
" style="fill:none;stroke:#000000;stroke-linecap:square;stroke-linejoin:miter;stroke-width:0.8;"/>
   </g>
   <g id="patch_6">
    <path d="M 120.850625 61.501562 
L 511.450625 61.501562 
" style="fill:none;stroke:#000000;stroke-linecap:square;stroke-linejoin:miter;stroke-width:0.8;"/>
   </g>
   <g id="text_17">
    <!-- CD4 COUNT -->
    <g transform="translate(243.232656 25.094531)scale(0.25 -0.25)">
     <use xlink:href="#Arial-BoldMT-67"/>
     <use x="72.216797" xlink:href="#Arial-BoldMT-68"/>
     <use x="144.433594" xlink:href="#Arial-BoldMT-52"/>
     <use x="200.048828" xlink:href="#Arial-BoldMT-32"/>
     <use x="227.832031" xlink:href="#Arial-BoldMT-67"/>
     <use x="300.048828" xlink:href="#Arial-BoldMT-79"/>
     <use x="377.832031" xlink:href="#Arial-BoldMT-85"/>
     <use x="450.048828" xlink:href="#Arial-BoldMT-78"/>
     <use x="522.265625" xlink:href="#Arial-BoldMT-84"/>
    </g>
    <!-- OVER TIME NORAMLIZED -->
    <defs>
     <path d="M 25.53125 0 
L -0.046875 71.578125 
L 15.625 71.578125 
L 33.734375 18.609375 
L 51.265625 71.578125 
L 66.609375 71.578125 
L 40.96875 0 
z
" id="Arial-BoldMT-86"/>
    </defs>
    <g transform="translate(160.597891 51.501562)scale(0.25 -0.25)">
     <use xlink:href="#Arial-BoldMT-79"/>
     <use x="77.783203" xlink:href="#Arial-BoldMT-86"/>
     <use x="144.482422" xlink:href="#Arial-BoldMT-69"/>
     <use x="211.181641" xlink:href="#Arial-BoldMT-82"/>
     <use x="283.398438" xlink:href="#Arial-BoldMT-32"/>
     <use x="311.181641" xlink:href="#Arial-BoldMT-84"/>
     <use x="372.265625" xlink:href="#Arial-BoldMT-73"/>
     <use x="400.048828" xlink:href="#Arial-BoldMT-77"/>
     <use x="483.349609" xlink:href="#Arial-BoldMT-69"/>
     <use x="550.048828" xlink:href="#Arial-BoldMT-32"/>
     <use x="577.832031" xlink:href="#Arial-BoldMT-78"/>
     <use x="650.048828" xlink:href="#Arial-BoldMT-79"/>
     <use x="727.832031" xlink:href="#Arial-BoldMT-82"/>
     <use x="800.048828" xlink:href="#Arial-BoldMT-65"/>
     <use x="872.265625" xlink:href="#Arial-BoldMT-77"/>
     <use x="955.566406" xlink:href="#Arial-BoldMT-76"/>
     <use x="1016.650391" xlink:href="#Arial-BoldMT-73"/>
     <use x="1044.433594" xlink:href="#Arial-BoldMT-90"/>
     <use x="1105.517578" xlink:href="#Arial-BoldMT-69"/>
     <use x="1172.216797" xlink:href="#Arial-BoldMT-68"/>
    </g>
   </g>
   <g id="legend_1">
    <g id="line2d_123">
     <path d="M 441.961563 74.6 
L 461.961563 74.6 
" style="fill:none;stroke:#000000;stroke-linecap:square;stroke-width:1.5;"/>
    </g>
    <g id="line2d_124"/>
    <g id="text_18">
     <!-- 0 -->
     <g transform="translate(469.961563 78.1)scale(0.1 -0.1)">
      <use xlink:href="#DejaVuSans-48"/>
     </g>
    </g>
    <g id="line2d_125">
     <path d="M 441.961563 89.278125 
L 461.961563 89.278125 
" style="fill:none;stroke:#d0e1f2;stroke-linecap:square;stroke-width:1.5;"/>
    </g>
    <g id="line2d_126"/>
    <g id="text_19">
     <!-- 100 -->
     <g transform="translate(469.961563 92.778125)scale(0.1 -0.1)">
      <use xlink:href="#DejaVuSans-49"/>
      <use x="63.623047" xlink:href="#DejaVuSans-48"/>
      <use x="127.246094" xlink:href="#DejaVuSans-48"/>
     </g>
    </g>
    <g id="line2d_127">
     <path d="M 441.961563 103.95625 
L 461.961563 103.95625 
" style="fill:none;stroke:#94c4df;stroke-linecap:square;stroke-width:1.5;"/>
    </g>
    <g id="line2d_128"/>
    <g id="text_20">
     <!-- 500 -->
     <g transform="translate(469.961563 107.45625)scale(0.1 -0.1)">
      <use xlink:href="#DejaVuSans-53"/>
      <use x="63.623047" xlink:href="#DejaVuSans-48"/>
      <use x="127.246094" xlink:href="#DejaVuSans-48"/>
     </g>
    </g>
    <g id="line2d_129">
     <path d="M 441.961563 118.634375 
L 461.961563 118.634375 
" style="fill:none;stroke:#4a98c9;stroke-linecap:square;stroke-width:1.5;"/>
    </g>
    <g id="line2d_130"/>
    <g id="text_21">
     <!-- 1000 -->
     <g transform="translate(469.961563 122.134375)scale(0.1 -0.1)">
      <use xlink:href="#DejaVuSans-49"/>
      <use x="63.623047" xlink:href="#DejaVuSans-48"/>
      <use x="127.246094" xlink:href="#DejaVuSans-48"/>
      <use x="190.869141" xlink:href="#DejaVuSans-48"/>
     </g>
    </g>
    <g id="line2d_131">
     <path d="M 441.961563 133.3125 
L 461.961563 133.3125 
" style="fill:none;stroke:#1764ab;stroke-linecap:square;stroke-width:1.5;"/>
    </g>
    <g id="line2d_132"/>
    <g id="text_22">
     <!-- 5000 -->
     <g transform="translate(469.961563 136.8125)scale(0.1 -0.1)">
      <use xlink:href="#DejaVuSans-53"/>
      <use x="63.623047" xlink:href="#DejaVuSans-48"/>
      <use x="127.246094" xlink:href="#DejaVuSans-48"/>
      <use x="190.869141" xlink:href="#DejaVuSans-48"/>
     </g>
    </g>
    <g id="line2d_133">
     <path d="M 441.961563 147.990625 
L 461.961563 147.990625 
" style="fill:none;stroke:#08306b;stroke-linecap:square;stroke-width:1.5;"/>
    </g>
    <g id="line2d_134"/>
    <g id="text_23">
     <!-- 10000 -->
     <g transform="translate(469.961563 151.490625)scale(0.1 -0.1)">
      <use xlink:href="#DejaVuSans-49"/>
      <use x="63.623047" xlink:href="#DejaVuSans-48"/>
      <use x="127.246094" xlink:href="#DejaVuSans-48"/>
      <use x="190.869141" xlink:href="#DejaVuSans-48"/>
      <use x="254.492188" xlink:href="#DejaVuSans-48"/>
     </g>
    </g>
    <g id="line2d_135">
     <path d="M 441.961563 162.66875 
L 461.961563 162.66875 
" style="fill:none;stroke:#000000;stroke-dasharray:5.55,2.4;stroke-dashoffset:0;stroke-width:1.5;"/>
    </g>
    <g id="line2d_136"/>
    <g id="text_24">
     <!-- LIVE -->
     <defs>
      <path d="M 9.8125 72.90625 
L 19.671875 72.90625 
L 19.671875 8.296875 
L 55.171875 8.296875 
L 55.171875 0 
L 9.8125 0 
z
" id="DejaVuSans-76"/>
      <path d="M 9.8125 72.90625 
L 19.671875 72.90625 
L 19.671875 0 
L 9.8125 0 
z
" id="DejaVuSans-73"/>
      <path d="M 28.609375 0 
L 0.78125 72.90625 
L 11.078125 72.90625 
L 34.1875 11.53125 
L 57.328125 72.90625 
L 67.578125 72.90625 
L 39.796875 0 
z
" id="DejaVuSans-86"/>
      <path d="M 9.8125 72.90625 
L 55.90625 72.90625 
L 55.90625 64.59375 
L 19.671875 64.59375 
L 19.671875 43.015625 
L 54.390625 43.015625 
L 54.390625 34.71875 
L 19.671875 34.71875 
L 19.671875 8.296875 
L 56.78125 8.296875 
L 56.78125 0 
L 9.8125 0 
z
" id="DejaVuSans-69"/>
     </defs>
     <g transform="translate(469.961563 166.16875)scale(0.1 -0.1)">
      <use xlink:href="#DejaVuSans-76"/>
      <use x="55.712891" xlink:href="#DejaVuSans-73"/>
      <use x="85.205078" xlink:href="#DejaVuSans-86"/>
      <use x="153.613281" xlink:href="#DejaVuSans-69"/>
     </g>
    </g>
    <g id="line2d_137">
     <path d="M 441.961563 177.346875 
L 461.961563 177.346875 
" style="fill:none;stroke:#000000;stroke-linecap:square;stroke-width:1.5;"/>
    </g>
    <g id="line2d_138"/>
    <g id="text_25">
     <!-- TOTAL -->
     <defs>
      <path d="M -0.296875 72.90625 
L 61.375 72.90625 
L 61.375 64.59375 
L 35.5 64.59375 
L 35.5 0 
L 25.59375 0 
L 25.59375 64.59375 
L -0.296875 64.59375 
z
" id="DejaVuSans-84"/>
      <path d="M 39.40625 66.21875 
Q 28.65625 66.21875 22.328125 58.203125 
Q 16.015625 50.203125 16.015625 36.375 
Q 16.015625 22.609375 22.328125 14.59375 
Q 28.65625 6.59375 39.40625 6.59375 
Q 50.140625 6.59375 56.421875 14.59375 
Q 62.703125 22.609375 62.703125 36.375 
Q 62.703125 50.203125 56.421875 58.203125 
Q 50.140625 66.21875 39.40625 66.21875 
z
M 39.40625 74.21875 
Q 54.734375 74.21875 63.90625 63.9375 
Q 73.09375 53.65625 73.09375 36.375 
Q 73.09375 19.140625 63.90625 8.859375 
Q 54.734375 -1.421875 39.40625 -1.421875 
Q 24.03125 -1.421875 14.8125 8.828125 
Q 5.609375 19.09375 5.609375 36.375 
Q 5.609375 53.65625 14.8125 63.9375 
Q 24.03125 74.21875 39.40625 74.21875 
z
" id="DejaVuSans-79"/>
      <path d="M 34.1875 63.1875 
L 20.796875 26.90625 
L 47.609375 26.90625 
z
M 28.609375 72.90625 
L 39.796875 72.90625 
L 67.578125 0 
L 57.328125 0 
L 50.6875 18.703125 
L 17.828125 18.703125 
L 11.1875 0 
L 0.78125 0 
z
" id="DejaVuSans-65"/>
     </defs>
     <g transform="translate(469.961563 180.846875)scale(0.1 -0.1)">
      <use xlink:href="#DejaVuSans-84"/>
      <use x="61.083984" xlink:href="#DejaVuSans-79"/>
      <use x="139.794922" xlink:href="#DejaVuSans-84"/>
      <use x="200.769531" xlink:href="#DejaVuSans-65"/>
      <use x="269.177734" xlink:href="#DejaVuSans-76"/>
     </g>
    </g>
   </g>
  </g>
 </g>
 <defs>
  <clipPath id="p7ef87dc6c8">
   <rect height="380.52" width="390.6" x="120.850625" y="61.501562"/>
  </clipPath>
 </defs>
</svg>
