<?xml version="1.0" encoding="utf-8" standalone="no"?>
<!DOCTYPE svg PUBLIC "-//W3C//DTD SVG 1.1//EN"
  "http://www.w3.org/Graphics/SVG/1.1/DTD/svg11.dtd">
<!-- Created with matplotlib (https://matplotlib.org/) -->
<svg height="534.644062pt" version="1.1" viewBox="0 0 518.64125 534.644062" width="518.64125pt" xmlns="http://www.w3.org/2000/svg" xmlns:xlink="http://www.w3.org/1999/xlink">
 <defs>
  <style type="text/css">
*{stroke-linecap:butt;stroke-linejoin:round;}
  </style>
 </defs>
 <g id="figure_1">
  <g id="patch_1">
   <path d="M 0 534.644062 
L 518.64125 534.644062 
L 518.64125 0 
L 0 0 
z
" style="fill:#ffffff;"/>
  </g>
  <g id="axes_1">
   <g id="patch_2">
    <path d="M 111.2975 442.021562 
L 501.8975 442.021562 
L 501.8975 61.501562 
L 111.2975 61.501562 
z
" style="fill:#ffffff;"/>
   </g>
   <g id="line2d_1">
    <path clip-path="url(#p0c30ab2c64)" d="M 176.3975 442.021562 
L 176.3975 61.501562 
" style="fill:none;stroke:#d3d3d3;stroke-linecap:square;stroke-width:5;"/>
   </g>
   <g id="line2d_2">
    <path clip-path="url(#p0c30ab2c64)" d="M 111.2975 170.221562 
L 501.8975 170.221562 
" style="fill:none;stroke:#d3d3d3;stroke-linecap:square;stroke-width:5;"/>
   </g>
   <g id="PathCollection_1">
    <defs>
     <path d="M 0 6.123724 
C 1.624031 6.123724 3.181764 5.47849 4.330127 4.330127 
C 5.47849 3.181764 6.123724 1.624031 6.123724 0 
C 6.123724 -1.624031 5.47849 -3.181764 4.330127 -4.330127 
C 3.181764 -5.47849 1.624031 -6.123724 0 -6.123724 
C -1.624031 -6.123724 -3.181764 -5.47849 -4.330127 -4.330127 
C -5.47849 -3.181764 -6.123724 -1.624031 -6.123724 0 
C -6.123724 1.624031 -5.47849 3.181764 -4.330127 4.330127 
C -3.181764 5.47849 -1.624031 6.123724 0 6.123724 
z
" id="md7acbf4a28" style="stroke:#08306b;"/>
    </defs>
    <g clip-path="url(#p0c30ab2c64)">
     <use style="fill:#08306b;stroke:#08306b;" x="114.8129" xlink:href="#md7acbf4a28" y="408.318362"/>
    </g>
   </g>
   <g id="PathCollection_2">
    <g clip-path="url(#p0c30ab2c64)">
     <use style="fill:#08306b;stroke:#08306b;" x="112.7948" xlink:href="#md7acbf4a28" y="406.415762"/>
    </g>
   </g>
   <g id="PathCollection_3">
    <g clip-path="url(#p0c30ab2c64)">
     <use style="fill:#08306b;stroke:#08306b;" x="112.3391" xlink:href="#md7acbf4a28" y="408.861962"/>
    </g>
   </g>
   <g id="PathCollection_4">
    <g clip-path="url(#p0c30ab2c64)">
     <use style="fill:#08306b;stroke:#08306b;" x="112.7948" xlink:href="#md7acbf4a28" y="406.143962"/>
    </g>
   </g>
   <g id="PathCollection_5">
    <g clip-path="url(#p0c30ab2c64)">
     <use style="fill:#08306b;stroke:#08306b;" x="113.3807" xlink:href="#md7acbf4a28" y="408.590162"/>
    </g>
   </g>
   <g id="PathCollection_6">
    <g clip-path="url(#p0c30ab2c64)">
     <use style="fill:#08306b;stroke:#08306b;" x="112.5344" xlink:href="#md7acbf4a28" y="416.472362"/>
    </g>
   </g>
   <g id="PathCollection_7">
    <g clip-path="url(#p0c30ab2c64)">
     <use style="fill:#08306b;stroke:#08306b;" x="112.7948" xlink:href="#md7acbf4a28" y="412.123562"/>
    </g>
   </g>
   <g id="PathCollection_8">
    <g clip-path="url(#p0c30ab2c64)">
     <use style="fill:#08306b;stroke:#08306b;" x="113.3807" xlink:href="#md7acbf4a28" y="415.113362"/>
    </g>
   </g>
   <g id="PathCollection_9">
    <g clip-path="url(#p0c30ab2c64)">
     <use style="fill:#08306b;stroke:#08306b;" x="111.2975" xlink:href="#md7acbf4a28" y="420.005762"/>
    </g>
   </g>
   <g id="PathCollection_10">
    <g clip-path="url(#p0c30ab2c64)">
     <use style="fill:#08306b;stroke:#08306b;" x="111.7532" xlink:href="#md7acbf4a28" y="410.764562"/>
    </g>
   </g>
   <g id="PathCollection_11">
    <defs>
     <path d="M 0 6.123724 
C 1.624031 6.123724 3.181764 5.47849 4.330127 4.330127 
C 5.47849 3.181764 6.123724 1.624031 6.123724 0 
C 6.123724 -1.624031 5.47849 -3.181764 4.330127 -4.330127 
C 3.181764 -5.47849 1.624031 -6.123724 0 -6.123724 
C -1.624031 -6.123724 -3.181764 -5.47849 -4.330127 -4.330127 
C -5.47849 -3.181764 -6.123724 -1.624031 -6.123724 0 
C -6.123724 1.624031 -5.47849 3.181764 -4.330127 4.330127 
C -3.181764 5.47849 -1.624031 6.123724 0 6.123724 
z
" id="mc82c7ae330" style="stroke:#4a98c9;"/>
    </defs>
    <g clip-path="url(#p0c30ab2c64)">
     <use style="fill:#4a98c9;stroke:#4a98c9;" x="141.3737" xlink:href="#mc82c7ae330" y="296.064962"/>
    </g>
   </g>
   <g id="PathCollection_12">
    <g clip-path="url(#p0c30ab2c64)">
     <use style="fill:#4a98c9;stroke:#4a98c9;" x="136.2959" xlink:href="#mc82c7ae330" y="306.936962"/>
    </g>
   </g>
   <g id="PathCollection_13">
    <g clip-path="url(#p0c30ab2c64)">
     <use style="fill:#4a98c9;stroke:#4a98c9;" x="146.4515" xlink:href="#mc82c7ae330" y="298.782962"/>
    </g>
   </g>
   <g id="PathCollection_14">
    <g clip-path="url(#p0c30ab2c64)">
     <use style="fill:#4a98c9;stroke:#4a98c9;" x="140.3321" xlink:href="#mc82c7ae330" y="303.947162"/>
    </g>
   </g>
   <g id="PathCollection_15">
    <g clip-path="url(#p0c30ab2c64)">
     <use style="fill:#4a98c9;stroke:#4a98c9;" x="139.0301" xlink:href="#mc82c7ae330" y="303.947162"/>
    </g>
   </g>
   <g id="PathCollection_16">
    <g clip-path="url(#p0c30ab2c64)">
     <use style="fill:#4a98c9;stroke:#4a98c9;" x="139.2905" xlink:href="#mc82c7ae330" y="306.121562"/>
    </g>
   </g>
   <g id="PathCollection_17">
    <g clip-path="url(#p0c30ab2c64)">
     <use style="fill:#4a98c9;stroke:#4a98c9;" x="140.0717" xlink:href="#mc82c7ae330" y="305.034362"/>
    </g>
   </g>
   <g id="PathCollection_18">
    <g clip-path="url(#p0c30ab2c64)">
     <use style="fill:#4a98c9;stroke:#4a98c9;" x="137.0771" xlink:href="#mc82c7ae330" y="310.198562"/>
    </g>
   </g>
   <g id="PathCollection_19">
    <g clip-path="url(#p0c30ab2c64)">
     <use style="fill:#4a98c9;stroke:#4a98c9;" x="131.9342" xlink:href="#mc82c7ae330" y="313.731962"/>
    </g>
   </g>
   <g id="PathCollection_20">
    <g clip-path="url(#p0c30ab2c64)">
     <use style="fill:#4a98c9;stroke:#4a98c9;" x="133.106" xlink:href="#mc82c7ae330" y="303.403562"/>
    </g>
   </g>
   <g id="PathCollection_21">
    <defs>
     <path d="M 0 6.123724 
C 1.624031 6.123724 3.181764 5.47849 4.330127 4.330127 
C 5.47849 3.181764 6.123724 1.624031 6.123724 0 
C 6.123724 -1.624031 5.47849 -3.181764 4.330127 -4.330127 
C 3.181764 -5.47849 1.624031 -6.123724 0 -6.123724 
C -1.624031 -6.123724 -3.181764 -5.47849 -4.330127 -4.330127 
C -5.47849 -3.181764 -6.123724 -1.624031 -6.123724 0 
C -6.123724 1.624031 -5.47849 3.181764 -4.330127 4.330127 
C -3.181764 5.47849 -1.624031 6.123724 0 6.123724 
z
" id="mc8750045d4" style="stroke:#d0e1f2;"/>
    </defs>
    <g clip-path="url(#p0c30ab2c64)">
     <use style="fill:#d0e1f2;stroke:#d0e1f2;" x="354.6413" xlink:href="#mc8750045d4" y="226.484162"/>
    </g>
   </g>
   <g id="PathCollection_22">
    <g clip-path="url(#p0c30ab2c64)">
     <use style="fill:#d0e1f2;stroke:#d0e1f2;" x="350.7353" xlink:href="#mc8750045d4" y="221.319962"/>
    </g>
   </g>
   <g id="PathCollection_23">
    <g clip-path="url(#p0c30ab2c64)">
     <use style="fill:#d0e1f2;stroke:#d0e1f2;" x="355.0319" xlink:href="#mc8750045d4" y="220.504562"/>
    </g>
   </g>
   <g id="PathCollection_24">
    <g clip-path="url(#p0c30ab2c64)">
     <use style="fill:#d0e1f2;stroke:#d0e1f2;" x="344.6159" xlink:href="#mc8750045d4" y="230.289362"/>
    </g>
   </g>
   <g id="PathCollection_25">
    <g clip-path="url(#p0c30ab2c64)">
     <use style="fill:#d0e1f2;stroke:#d0e1f2;" x="355.097" xlink:href="#mc8750045d4" y="226.212362"/>
    </g>
   </g>
   <g id="PathCollection_26">
    <g clip-path="url(#p0c30ab2c64)">
     <use style="fill:#d0e1f2;stroke:#d0e1f2;" x="354.5762" xlink:href="#mc8750045d4" y="226.484162"/>
    </g>
   </g>
   <g id="PathCollection_27">
    <g clip-path="url(#p0c30ab2c64)">
     <use style="fill:#d0e1f2;stroke:#d0e1f2;" x="356.6594" xlink:href="#mc8750045d4" y="228.658562"/>
    </g>
   </g>
   <g id="PathCollection_28">
    <g clip-path="url(#p0c30ab2c64)">
     <use style="fill:#d0e1f2;stroke:#d0e1f2;" x="348.7172" xlink:href="#mc8750045d4" y="225.396962"/>
    </g>
   </g>
   <g id="PathCollection_29">
    <g clip-path="url(#p0c30ab2c64)">
     <use style="fill:#d0e1f2;stroke:#d0e1f2;" x="345.9179" xlink:href="#mc8750045d4" y="226.755962"/>
    </g>
   </g>
   <g id="PathCollection_30">
    <g clip-path="url(#p0c30ab2c64)">
     <use style="fill:#d0e1f2;stroke:#d0e1f2;" x="353.795" xlink:href="#mc8750045d4" y="225.668762"/>
    </g>
   </g>
   <g id="PathCollection_31">
    <defs>
     <path d="M 0 6.123724 
C 1.624031 6.123724 3.181764 5.47849 4.330127 4.330127 
C 5.47849 3.181764 6.123724 1.624031 6.123724 0 
C 6.123724 -1.624031 5.47849 -3.181764 4.330127 -4.330127 
C 3.181764 -5.47849 1.624031 -6.123724 0 -6.123724 
C -1.624031 -6.123724 -3.181764 -5.47849 -4.330127 -4.330127 
C -5.47849 -3.181764 -6.123724 -1.624031 -6.123724 0 
C -6.123724 1.624031 -5.47849 3.181764 -4.330127 4.330127 
C -3.181764 5.47849 -1.624031 6.123724 0 6.123724 
z
" id="m24c8da15c8" style="stroke:#1764ab;"/>
    </defs>
    <g clip-path="url(#p0c30ab2c64)">
     <use style="fill:#1764ab;stroke:#1764ab;" x="116.2451" xlink:href="#m24c8da15c8" y="395.815562"/>
    </g>
   </g>
   <g id="PathCollection_32">
    <g clip-path="url(#p0c30ab2c64)">
     <use style="fill:#1764ab;stroke:#1764ab;" x="112.7948" xlink:href="#m24c8da15c8" y="400.979762"/>
    </g>
   </g>
   <g id="PathCollection_33">
    <g clip-path="url(#p0c30ab2c64)">
     <use style="fill:#1764ab;stroke:#1764ab;" x="113.1854" xlink:href="#m24c8da15c8" y="394.456562"/>
    </g>
   </g>
   <g id="PathCollection_34">
    <g clip-path="url(#p0c30ab2c64)">
     <use style="fill:#1764ab;stroke:#1764ab;" x="112.4042" xlink:href="#m24c8da15c8" y="400.436162"/>
    </g>
   </g>
   <g id="PathCollection_35">
    <g clip-path="url(#p0c30ab2c64)">
     <use style="fill:#1764ab;stroke:#1764ab;" x="113.3156" xlink:href="#m24c8da15c8" y="395.543762"/>
    </g>
   </g>
   <g id="PathCollection_36">
    <g clip-path="url(#p0c30ab2c64)">
     <use style="fill:#1764ab;stroke:#1764ab;" x="112.8599" xlink:href="#m24c8da15c8" y="399.077162"/>
    </g>
   </g>
   <g id="PathCollection_37">
    <g clip-path="url(#p0c30ab2c64)">
     <use style="fill:#1764ab;stroke:#1764ab;" x="113.9015" xlink:href="#m24c8da15c8" y="394.728362"/>
    </g>
   </g>
   <g id="PathCollection_38">
    <g clip-path="url(#p0c30ab2c64)">
     <use style="fill:#1764ab;stroke:#1764ab;" x="113.3807" xlink:href="#m24c8da15c8" y="403.969562"/>
    </g>
   </g>
   <g id="PathCollection_39">
    <g clip-path="url(#p0c30ab2c64)">
     <use style="fill:#1764ab;stroke:#1764ab;" x="112.1438" xlink:href="#m24c8da15c8" y="399.077162"/>
    </g>
   </g>
   <g id="PathCollection_40">
    <g clip-path="url(#p0c30ab2c64)">
     <use style="fill:#1764ab;stroke:#1764ab;" x="111.8834" xlink:href="#m24c8da15c8" y="401.523362"/>
    </g>
   </g>
   <g id="PathCollection_41">
    <defs>
     <path d="M 0 6.123724 
C 1.624031 6.123724 3.181764 5.47849 4.330127 4.330127 
C 5.47849 3.181764 6.123724 1.624031 6.123724 0 
C 6.123724 -1.624031 5.47849 -3.181764 4.330127 -4.330127 
C 3.181764 -5.47849 1.624031 -6.123724 0 -6.123724 
C -1.624031 -6.123724 -3.181764 -5.47849 -4.330127 -4.330127 
C -5.47849 -3.181764 -6.123724 -1.624031 -6.123724 0 
C -6.123724 1.624031 -5.47849 3.181764 -4.330127 4.330127 
C -3.181764 5.47849 -1.624031 6.123724 0 6.123724 
z
" id="m3e30cf710d" style="stroke:#94c4df;"/>
    </defs>
    <g clip-path="url(#p0c30ab2c64)">
     <use style="fill:#94c4df;stroke:#94c4df;" x="191.045" xlink:href="#m3e30cf710d" y="278.397962"/>
    </g>
   </g>
   <g id="PathCollection_42">
    <g clip-path="url(#p0c30ab2c64)">
     <use style="fill:#94c4df;stroke:#94c4df;" x="202.8281" xlink:href="#m3e30cf710d" y="259.371962"/>
    </g>
   </g>
   <g id="PathCollection_43">
    <g clip-path="url(#p0c30ab2c64)">
     <use style="fill:#94c4df;stroke:#94c4df;" x="198.3362" xlink:href="#m3e30cf710d" y="266.166962"/>
    </g>
   </g>
   <g id="PathCollection_44">
    <g clip-path="url(#p0c30ab2c64)">
     <use style="fill:#94c4df;stroke:#94c4df;" x="189.6128" xlink:href="#m3e30cf710d" y="269.972162"/>
    </g>
   </g>
   <g id="PathCollection_45">
    <g clip-path="url(#p0c30ab2c64)">
     <use style="fill:#94c4df;stroke:#94c4df;" x="204.5207" xlink:href="#m3e30cf710d" y="258.828362"/>
    </g>
   </g>
   <g id="PathCollection_46">
    <g clip-path="url(#p0c30ab2c64)">
     <use style="fill:#94c4df;stroke:#94c4df;" x="194.3" xlink:href="#m3e30cf710d" y="266.438762"/>
    </g>
   </g>
   <g id="PathCollection_47">
    <g clip-path="url(#p0c30ab2c64)">
     <use style="fill:#94c4df;stroke:#94c4df;" x="194.1047" xlink:href="#m3e30cf710d" y="272.961962"/>
    </g>
   </g>
   <g id="PathCollection_48">
    <g clip-path="url(#p0c30ab2c64)">
     <use style="fill:#94c4df;stroke:#94c4df;" x="190.7846" xlink:href="#m3e30cf710d" y="266.166962"/>
    </g>
   </g>
   <g id="PathCollection_49">
    <g clip-path="url(#p0c30ab2c64)">
     <use style="fill:#94c4df;stroke:#94c4df;" x="188.7014" xlink:href="#m3e30cf710d" y="264.807962"/>
    </g>
   </g>
   <g id="PathCollection_50">
    <g clip-path="url(#p0c30ab2c64)">
     <use style="fill:#94c4df;stroke:#94c4df;" x="179.9129" xlink:href="#m3e30cf710d" y="277.038962"/>
    </g>
   </g>
   <g id="PathCollection_51">
    <defs>
     <path d="M 0 6.123724 
C 1.624031 6.123724 3.181764 5.47849 4.330127 4.330127 
C 5.47849 3.181764 6.123724 1.624031 6.123724 0 
C 6.123724 -1.624031 5.47849 -3.181764 4.330127 -4.330127 
C 3.181764 -5.47849 1.624031 -6.123724 0 -6.123724 
C -1.624031 -6.123724 -3.181764 -5.47849 -4.330127 -4.330127 
C -5.47849 -3.181764 -6.123724 -1.624031 -6.123724 0 
C -6.123724 1.624031 -5.47849 3.181764 -4.330127 4.330127 
C -3.181764 5.47849 -1.624031 6.123724 0 6.123724 
z
" id="mb68c7ea343" style="stroke:#000000;"/>
    </defs>
    <g clip-path="url(#p0c30ab2c64)">
     <use style="stroke:#000000;" x="472.8629" xlink:href="#mb68c7ea343" y="185.985962"/>
    </g>
   </g>
   <g id="PathCollection_52">
    <g clip-path="url(#p0c30ab2c64)">
     <use style="stroke:#000000;" x="463.8791" xlink:href="#mb68c7ea343" y="184.355162"/>
    </g>
   </g>
   <g id="PathCollection_53">
    <g clip-path="url(#p0c30ab2c64)">
     <use style="stroke:#000000;" x="470.3891" xlink:href="#mb68c7ea343" y="181.637162"/>
    </g>
   </g>
   <g id="PathCollection_54">
    <g clip-path="url(#p0c30ab2c64)">
     <use style="stroke:#000000;" x="466.5482" xlink:href="#mb68c7ea343" y="184.898762"/>
    </g>
   </g>
   <g id="PathCollection_55">
    <g clip-path="url(#p0c30ab2c64)">
     <use style="stroke:#000000;" x="469.3475" xlink:href="#mb68c7ea343" y="184.898762"/>
    </g>
   </g>
   <g id="PathCollection_56">
    <g clip-path="url(#p0c30ab2c64)">
     <use style="stroke:#000000;" x="470.2589" xlink:href="#mb68c7ea343" y="189.247562"/>
    </g>
   </g>
   <g id="PathCollection_57">
    <g clip-path="url(#p0c30ab2c64)">
     <use style="stroke:#000000;" x="466.6133" xlink:href="#mb68c7ea343" y="185.442362"/>
    </g>
   </g>
   <g id="PathCollection_58">
    <g clip-path="url(#p0c30ab2c64)">
     <use style="stroke:#000000;" x="465.8972" xlink:href="#mb68c7ea343" y="185.170562"/>
    </g>
   </g>
   <g id="PathCollection_59">
    <g clip-path="url(#p0c30ab2c64)">
     <use style="stroke:#000000;" x="467.9804" xlink:href="#mb68c7ea343" y="184.355162"/>
    </g>
   </g>
   <g id="PathCollection_60">
    <g clip-path="url(#p0c30ab2c64)">
     <use style="stroke:#000000;" x="466.2878" xlink:href="#mb68c7ea343" y="184.898762"/>
    </g>
   </g>
   <g id="matplotlib.axis_1">
    <g id="xtick_1">
     <g id="line2d_3">
      <defs>
       <path d="M 0 0 
L 0 3.5 
" id="m28d3756eeb" style="stroke:#000000;stroke-width:0.8;"/>
      </defs>
      <g>
       <use style="stroke:#000000;stroke-width:0.8;" x="111.2975" xlink:href="#m28d3756eeb" y="442.021562"/>
      </g>
     </g>
     <g id="text_1">
      <!-- 0 -->
      <defs>
       <path d="M 31.78125 66.40625 
Q 24.171875 66.40625 20.328125 58.90625 
Q 16.5 51.421875 16.5 36.375 
Q 16.5 21.390625 20.328125 13.890625 
Q 24.171875 6.390625 31.78125 6.390625 
Q 39.453125 6.390625 43.28125 13.890625 
Q 47.125 21.390625 47.125 36.375 
Q 47.125 51.421875 43.28125 58.90625 
Q 39.453125 66.40625 31.78125 66.40625 
z
M 31.78125 74.21875 
Q 44.046875 74.21875 50.515625 64.515625 
Q 56.984375 54.828125 56.984375 36.375 
Q 56.984375 17.96875 50.515625 8.265625 
Q 44.046875 -1.421875 31.78125 -1.421875 
Q 19.53125 -1.421875 13.0625 8.265625 
Q 6.59375 17.96875 6.59375 36.375 
Q 6.59375 54.828125 13.0625 64.515625 
Q 19.53125 74.21875 31.78125 74.21875 
z
" id="DejaVuSans-48"/>
      </defs>
      <g transform="translate(101.75375 471.816875)scale(0.3 -0.3)">
       <use xlink:href="#DejaVuSans-48"/>
      </g>
     </g>
    </g>
    <g id="xtick_2">
     <g id="line2d_4">
      <g>
       <use style="stroke:#000000;stroke-width:0.8;" x="176.3975" xlink:href="#m28d3756eeb" y="442.021562"/>
      </g>
     </g>
     <g id="text_2">
      <!-- 1 -->
      <defs>
       <path d="M 12.40625 8.296875 
L 28.515625 8.296875 
L 28.515625 63.921875 
L 10.984375 60.40625 
L 10.984375 69.390625 
L 28.421875 72.90625 
L 38.28125 72.90625 
L 38.28125 8.296875 
L 54.390625 8.296875 
L 54.390625 0 
L 12.40625 0 
z
" id="DejaVuSans-49"/>
      </defs>
      <g transform="translate(166.85375 471.816875)scale(0.3 -0.3)">
       <use xlink:href="#DejaVuSans-49"/>
      </g>
     </g>
    </g>
    <g id="xtick_3">
     <g id="line2d_5">
      <g>
       <use style="stroke:#000000;stroke-width:0.8;" x="241.4975" xlink:href="#m28d3756eeb" y="442.021562"/>
      </g>
     </g>
     <g id="text_3">
      <!-- 2 -->
      <defs>
       <path d="M 19.1875 8.296875 
L 53.609375 8.296875 
L 53.609375 0 
L 7.328125 0 
L 7.328125 8.296875 
Q 12.9375 14.109375 22.625 23.890625 
Q 32.328125 33.6875 34.8125 36.53125 
Q 39.546875 41.84375 41.421875 45.53125 
Q 43.3125 49.21875 43.3125 52.78125 
Q 43.3125 58.59375 39.234375 62.25 
Q 35.15625 65.921875 28.609375 65.921875 
Q 23.96875 65.921875 18.8125 64.3125 
Q 13.671875 62.703125 7.8125 59.421875 
L 7.8125 69.390625 
Q 13.765625 71.78125 18.9375 73 
Q 24.125 74.21875 28.421875 74.21875 
Q 39.75 74.21875 46.484375 68.546875 
Q 53.21875 62.890625 53.21875 53.421875 
Q 53.21875 48.921875 51.53125 44.890625 
Q 49.859375 40.875 45.40625 35.40625 
Q 44.1875 33.984375 37.640625 27.21875 
Q 31.109375 20.453125 19.1875 8.296875 
z
" id="DejaVuSans-50"/>
      </defs>
      <g transform="translate(231.95375 471.816875)scale(0.3 -0.3)">
       <use xlink:href="#DejaVuSans-50"/>
      </g>
     </g>
    </g>
    <g id="xtick_4">
     <g id="line2d_6">
      <g>
       <use style="stroke:#000000;stroke-width:0.8;" x="306.5975" xlink:href="#m28d3756eeb" y="442.021562"/>
      </g>
     </g>
     <g id="text_4">
      <!-- 3 -->
      <defs>
       <path d="M 40.578125 39.3125 
Q 47.65625 37.796875 51.625 33 
Q 55.609375 28.21875 55.609375 21.1875 
Q 55.609375 10.40625 48.1875 4.484375 
Q 40.765625 -1.421875 27.09375 -1.421875 
Q 22.515625 -1.421875 17.65625 -0.515625 
Q 12.796875 0.390625 7.625 2.203125 
L 7.625 11.71875 
Q 11.71875 9.328125 16.59375 8.109375 
Q 21.484375 6.890625 26.8125 6.890625 
Q 36.078125 6.890625 40.9375 10.546875 
Q 45.796875 14.203125 45.796875 21.1875 
Q 45.796875 27.640625 41.28125 31.265625 
Q 36.765625 34.90625 28.71875 34.90625 
L 20.21875 34.90625 
L 20.21875 43.015625 
L 29.109375 43.015625 
Q 36.375 43.015625 40.234375 45.921875 
Q 44.09375 48.828125 44.09375 54.296875 
Q 44.09375 59.90625 40.109375 62.90625 
Q 36.140625 65.921875 28.71875 65.921875 
Q 24.65625 65.921875 20.015625 65.03125 
Q 15.375 64.15625 9.8125 62.3125 
L 9.8125 71.09375 
Q 15.4375 72.65625 20.34375 73.4375 
Q 25.25 74.21875 29.59375 74.21875 
Q 40.828125 74.21875 47.359375 69.109375 
Q 53.90625 64.015625 53.90625 55.328125 
Q 53.90625 49.265625 50.4375 45.09375 
Q 46.96875 40.921875 40.578125 39.3125 
z
" id="DejaVuSans-51"/>
      </defs>
      <g transform="translate(297.05375 471.816875)scale(0.3 -0.3)">
       <use xlink:href="#DejaVuSans-51"/>
      </g>
     </g>
    </g>
    <g id="xtick_5">
     <g id="line2d_7">
      <g>
       <use style="stroke:#000000;stroke-width:0.8;" x="371.6975" xlink:href="#m28d3756eeb" y="442.021562"/>
      </g>
     </g>
     <g id="text_5">
      <!-- 4 -->
      <defs>
       <path d="M 37.796875 64.3125 
L 12.890625 25.390625 
L 37.796875 25.390625 
z
M 35.203125 72.90625 
L 47.609375 72.90625 
L 47.609375 25.390625 
L 58.015625 25.390625 
L 58.015625 17.1875 
L 47.609375 17.1875 
L 47.609375 0 
L 37.796875 0 
L 37.796875 17.1875 
L 4.890625 17.1875 
L 4.890625 26.703125 
z
" id="DejaVuSans-52"/>
      </defs>
      <g transform="translate(362.15375 471.816875)scale(0.3 -0.3)">
       <use xlink:href="#DejaVuSans-52"/>
      </g>
     </g>
    </g>
    <g id="xtick_6">
     <g id="line2d_8">
      <g>
       <use style="stroke:#000000;stroke-width:0.8;" x="436.7975" xlink:href="#m28d3756eeb" y="442.021562"/>
      </g>
     </g>
     <g id="text_6">
      <!-- 5 -->
      <defs>
       <path d="M 10.796875 72.90625 
L 49.515625 72.90625 
L 49.515625 64.59375 
L 19.828125 64.59375 
L 19.828125 46.734375 
Q 21.96875 47.46875 24.109375 47.828125 
Q 26.265625 48.1875 28.421875 48.1875 
Q 40.625 48.1875 47.75 41.5 
Q 54.890625 34.8125 54.890625 23.390625 
Q 54.890625 11.625 47.5625 5.09375 
Q 40.234375 -1.421875 26.90625 -1.421875 
Q 22.3125 -1.421875 17.546875 -0.640625 
Q 12.796875 0.140625 7.71875 1.703125 
L 7.71875 11.625 
Q 12.109375 9.234375 16.796875 8.0625 
Q 21.484375 6.890625 26.703125 6.890625 
Q 35.15625 6.890625 40.078125 11.328125 
Q 45.015625 15.765625 45.015625 23.390625 
Q 45.015625 31 40.078125 35.4375 
Q 35.15625 39.890625 26.703125 39.890625 
Q 22.75 39.890625 18.8125 39.015625 
Q 14.890625 38.140625 10.796875 36.28125 
z
" id="DejaVuSans-53"/>
      </defs>
      <g transform="translate(427.25375 471.816875)scale(0.3 -0.3)">
       <use xlink:href="#DejaVuSans-53"/>
      </g>
     </g>
    </g>
    <g id="xtick_7">
     <g id="line2d_9">
      <g>
       <use style="stroke:#000000;stroke-width:0.8;" x="501.8975" xlink:href="#m28d3756eeb" y="442.021562"/>
      </g>
     </g>
     <g id="text_7">
      <!-- 6 -->
      <defs>
       <path d="M 33.015625 40.375 
Q 26.375 40.375 22.484375 35.828125 
Q 18.609375 31.296875 18.609375 23.390625 
Q 18.609375 15.53125 22.484375 10.953125 
Q 26.375 6.390625 33.015625 6.390625 
Q 39.65625 6.390625 43.53125 10.953125 
Q 47.40625 15.53125 47.40625 23.390625 
Q 47.40625 31.296875 43.53125 35.828125 
Q 39.65625 40.375 33.015625 40.375 
z
M 52.59375 71.296875 
L 52.59375 62.3125 
Q 48.875 64.0625 45.09375 64.984375 
Q 41.3125 65.921875 37.59375 65.921875 
Q 27.828125 65.921875 22.671875 59.328125 
Q 17.53125 52.734375 16.796875 39.40625 
Q 19.671875 43.65625 24.015625 45.921875 
Q 28.375 48.1875 33.59375 48.1875 
Q 44.578125 48.1875 50.953125 41.515625 
Q 57.328125 34.859375 57.328125 23.390625 
Q 57.328125 12.15625 50.6875 5.359375 
Q 44.046875 -1.421875 33.015625 -1.421875 
Q 20.359375 -1.421875 13.671875 8.265625 
Q 6.984375 17.96875 6.984375 36.375 
Q 6.984375 53.65625 15.1875 63.9375 
Q 23.390625 74.21875 37.203125 74.21875 
Q 40.921875 74.21875 44.703125 73.484375 
Q 48.484375 72.75 52.59375 71.296875 
z
" id="DejaVuSans-54"/>
      </defs>
      <g transform="translate(492.35375 471.816875)scale(0.3 -0.3)">
       <use xlink:href="#DejaVuSans-54"/>
      </g>
     </g>
    </g>
    <g id="text_8">
     <!-- LIVING CANCER CELL -->
     <defs>
      <path d="M 7.671875 0 
L 7.671875 71 
L 22.125 71 
L 22.125 12.0625 
L 58.0625 12.0625 
L 58.0625 0 
z
" id="Arial-BoldMT-76"/>
      <path d="M 6.84375 0 
L 6.84375 71.578125 
L 21.296875 71.578125 
L 21.296875 0 
z
" id="Arial-BoldMT-73"/>
      <path d="M 25.53125 0 
L -0.046875 71.578125 
L 15.625 71.578125 
L 33.734375 18.609375 
L 51.265625 71.578125 
L 66.609375 71.578125 
L 40.96875 0 
z
" id="Arial-BoldMT-86"/>
      <path d="M 7.421875 0 
L 7.421875 71.578125 
L 21.484375 71.578125 
L 50.78125 23.78125 
L 50.78125 71.578125 
L 64.203125 71.578125 
L 64.203125 0 
L 49.703125 0 
L 20.84375 46.6875 
L 20.84375 0 
z
" id="Arial-BoldMT-78"/>
      <path d="M 40.578125 26.3125 
L 40.578125 38.375 
L 71.734375 38.375 
L 71.734375 9.859375 
Q 67.1875 5.46875 58.5625 2.125 
Q 49.953125 -1.21875 41.109375 -1.21875 
Q 29.890625 -1.21875 21.53125 3.484375 
Q 13.1875 8.203125 8.984375 16.96875 
Q 4.78125 25.734375 4.78125 36.03125 
Q 4.78125 47.21875 9.46875 55.90625 
Q 14.15625 64.59375 23.1875 69.234375 
Q 30.078125 72.796875 40.328125 72.796875 
Q 53.65625 72.796875 61.15625 67.203125 
Q 68.65625 61.625 70.796875 51.765625 
L 56.453125 49.078125 
Q 54.9375 54.34375 50.75 57.390625 
Q 46.578125 60.453125 40.328125 60.453125 
Q 30.859375 60.453125 25.265625 54.4375 
Q 19.671875 48.4375 19.671875 36.625 
Q 19.671875 23.875 25.328125 17.5 
Q 31 11.140625 40.1875 11.140625 
Q 44.734375 11.140625 49.296875 12.921875 
Q 53.859375 14.703125 57.125 17.234375 
L 57.125 26.3125 
z
" id="Arial-BoldMT-71"/>
      <path id="Arial-BoldMT-32"/>
      <path d="M 53.078125 26.3125 
L 67.09375 21.875 
Q 63.875 10.15625 56.375 4.46875 
Q 48.875 -1.21875 37.359375 -1.21875 
Q 23.09375 -1.21875 13.90625 8.515625 
Q 4.734375 18.265625 4.734375 35.15625 
Q 4.734375 53.03125 13.953125 62.90625 
Q 23.1875 72.796875 38.234375 72.796875 
Q 51.375 72.796875 59.578125 65.046875 
Q 64.453125 60.453125 66.890625 51.859375 
L 52.59375 48.4375 
Q 51.3125 54 47.28125 57.21875 
Q 43.265625 60.453125 37.5 60.453125 
Q 29.546875 60.453125 24.578125 54.734375 
Q 19.625 49.03125 19.625 36.234375 
Q 19.625 22.65625 24.5 16.890625 
Q 29.390625 11.140625 37.203125 11.140625 
Q 42.96875 11.140625 47.109375 14.796875 
Q 51.265625 18.453125 53.078125 26.3125 
z
" id="Arial-BoldMT-67"/>
      <path d="M 71.828125 0 
L 56.109375 0 
L 49.859375 16.265625 
L 21.234375 16.265625 
L 15.328125 0 
L 0 0 
L 27.875 71.578125 
L 43.171875 71.578125 
z
M 45.21875 28.328125 
L 35.359375 54.890625 
L 25.6875 28.328125 
z
" id="Arial-BoldMT-65"/>
      <path d="M 7.28125 0 
L 7.28125 71.578125 
L 60.359375 71.578125 
L 60.359375 59.46875 
L 21.734375 59.46875 
L 21.734375 43.609375 
L 57.671875 43.609375 
L 57.671875 31.546875 
L 21.734375 31.546875 
L 21.734375 12.0625 
L 61.71875 12.0625 
L 61.71875 0 
z
" id="Arial-BoldMT-69"/>
      <path d="M 7.328125 0 
L 7.328125 71.578125 
L 37.75 71.578125 
Q 49.21875 71.578125 54.421875 69.640625 
Q 59.625 67.71875 62.75 62.78125 
Q 65.875 57.859375 65.875 51.515625 
Q 65.875 43.453125 61.125 38.203125 
Q 56.390625 32.953125 46.96875 31.59375 
Q 51.65625 28.859375 54.703125 25.578125 
Q 57.765625 22.3125 62.9375 13.96875 
L 71.6875 0 
L 54.390625 0 
L 43.953125 15.578125 
Q 38.375 23.921875 36.328125 26.09375 
Q 34.28125 28.265625 31.984375 29.078125 
Q 29.6875 29.890625 24.703125 29.890625 
L 21.78125 29.890625 
L 21.78125 0 
z
M 21.78125 41.3125 
L 32.46875 41.3125 
Q 42.875 41.3125 45.453125 42.1875 
Q 48.046875 43.0625 49.515625 45.203125 
Q 50.984375 47.359375 50.984375 50.59375 
Q 50.984375 54.203125 49.046875 56.421875 
Q 47.125 58.640625 43.609375 59.234375 
Q 41.84375 59.46875 33.0625 59.46875 
L 21.78125 59.46875 
z
" id="Arial-BoldMT-82"/>
     </defs>
     <g transform="translate(198.819375 502.371562)scale(0.2 -0.2)">
      <use xlink:href="#Arial-BoldMT-76"/>
      <use x="61.083984" xlink:href="#Arial-BoldMT-73"/>
      <use x="88.867188" xlink:href="#Arial-BoldMT-86"/>
      <use x="155.566406" xlink:href="#Arial-BoldMT-73"/>
      <use x="183.349609" xlink:href="#Arial-BoldMT-78"/>
      <use x="255.566406" xlink:href="#Arial-BoldMT-71"/>
      <use x="333.349609" xlink:href="#Arial-BoldMT-32"/>
      <use x="361.132812" xlink:href="#Arial-BoldMT-67"/>
      <use x="433.349609" xlink:href="#Arial-BoldMT-65"/>
      <use x="505.566406" xlink:href="#Arial-BoldMT-78"/>
      <use x="577.783203" xlink:href="#Arial-BoldMT-67"/>
      <use x="650" xlink:href="#Arial-BoldMT-69"/>
      <use x="716.699219" xlink:href="#Arial-BoldMT-82"/>
      <use x="788.916016" xlink:href="#Arial-BoldMT-32"/>
      <use x="816.699219" xlink:href="#Arial-BoldMT-67"/>
      <use x="888.916016" xlink:href="#Arial-BoldMT-69"/>
      <use x="955.615234" xlink:href="#Arial-BoldMT-76"/>
      <use x="1016.699219" xlink:href="#Arial-BoldMT-76"/>
     </g>
     <!-- COUNT NORMALIZED -->
     <defs>
      <path d="M 4.34375 35.359375 
Q 4.34375 46.296875 7.625 53.71875 
Q 10.0625 59.1875 14.28125 63.53125 
Q 18.5 67.875 23.53125 69.96875 
Q 30.21875 72.796875 38.96875 72.796875 
Q 54.78125 72.796875 64.28125 62.984375 
Q 73.78125 53.171875 73.78125 35.6875 
Q 73.78125 18.359375 64.359375 8.5625 
Q 54.9375 -1.21875 39.15625 -1.21875 
Q 23.1875 -1.21875 13.765625 8.515625 
Q 4.34375 18.265625 4.34375 35.359375 
z
M 19.234375 35.84375 
Q 19.234375 23.6875 24.84375 17.40625 
Q 30.46875 11.140625 39.109375 11.140625 
Q 47.75 11.140625 53.296875 17.359375 
Q 58.84375 23.578125 58.84375 36.03125 
Q 58.84375 48.34375 53.4375 54.390625 
Q 48.046875 60.453125 39.109375 60.453125 
Q 30.171875 60.453125 24.703125 54.3125 
Q 19.234375 48.1875 19.234375 35.84375 
z
" id="Arial-BoldMT-79"/>
      <path d="M 7.171875 71.578125 
L 21.625 71.578125 
L 21.625 32.8125 
Q 21.625 23.578125 22.171875 20.84375 
Q 23.09375 16.453125 26.578125 13.796875 
Q 30.078125 11.140625 36.140625 11.140625 
Q 42.28125 11.140625 45.40625 13.640625 
Q 48.53125 16.15625 49.171875 19.8125 
Q 49.8125 23.484375 49.8125 31.984375 
L 49.8125 71.578125 
L 64.265625 71.578125 
L 64.265625 33.984375 
Q 64.265625 21.09375 63.09375 15.765625 
Q 61.921875 10.453125 58.765625 6.78125 
Q 55.609375 3.125 50.328125 0.953125 
Q 45.0625 -1.21875 36.578125 -1.21875 
Q 26.3125 -1.21875 21.015625 1.140625 
Q 15.71875 3.515625 12.640625 7.296875 
Q 9.578125 11.078125 8.59375 15.234375 
Q 7.171875 21.390625 7.171875 33.40625 
z
" id="Arial-BoldMT-85"/>
      <path d="M 23.390625 0 
L 23.390625 59.46875 
L 2.15625 59.46875 
L 2.15625 71.578125 
L 59.03125 71.578125 
L 59.03125 59.46875 
L 37.84375 59.46875 
L 37.84375 0 
z
" id="Arial-BoldMT-84"/>
      <path d="M 7.078125 0 
L 7.078125 71.578125 
L 28.71875 71.578125 
L 41.703125 22.75 
L 54.546875 71.578125 
L 76.21875 71.578125 
L 76.21875 0 
L 62.796875 0 
L 62.796875 56.34375 
L 48.578125 0 
L 34.671875 0 
L 20.515625 56.34375 
L 20.515625 0 
z
" id="Arial-BoldMT-77"/>
      <path d="M 1.078125 0 
L 1.078125 13.03125 
L 38.671875 59.46875 
L 5.328125 59.46875 
L 5.328125 71.578125 
L 57.71875 71.578125 
L 57.71875 60.359375 
L 18.5 12.0625 
L 59.234375 12.0625 
L 59.234375 0 
z
" id="Arial-BoldMT-90"/>
      <path d="M 7.234375 71.578125 
L 33.640625 71.578125 
Q 42.578125 71.578125 47.265625 70.21875 
Q 53.5625 68.359375 58.046875 63.625 
Q 62.546875 58.890625 64.890625 52.03125 
Q 67.234375 45.171875 67.234375 35.109375 
Q 67.234375 26.265625 65.046875 19.875 
Q 62.359375 12.0625 57.375 7.234375 
Q 53.609375 3.5625 47.21875 1.515625 
Q 42.4375 0 34.421875 0 
L 7.234375 0 
z
M 21.6875 59.46875 
L 21.6875 12.0625 
L 32.46875 12.0625 
Q 38.53125 12.0625 41.21875 12.75 
Q 44.734375 13.625 47.046875 15.71875 
Q 49.359375 17.828125 50.828125 22.625 
Q 52.296875 27.4375 52.296875 35.75 
Q 52.296875 44.046875 50.828125 48.484375 
Q 49.359375 52.9375 46.71875 55.421875 
Q 44.09375 57.90625 40.046875 58.796875 
Q 37.015625 59.46875 28.171875 59.46875 
z
" id="Arial-BoldMT-68"/>
     </defs>
     <g transform="translate(201.608438 523.497187)scale(0.2 -0.2)">
      <use xlink:href="#Arial-BoldMT-67"/>
      <use x="72.216797" xlink:href="#Arial-BoldMT-79"/>
      <use x="150" xlink:href="#Arial-BoldMT-85"/>
      <use x="222.216797" xlink:href="#Arial-BoldMT-78"/>
      <use x="294.433594" xlink:href="#Arial-BoldMT-84"/>
      <use x="355.517578" xlink:href="#Arial-BoldMT-32"/>
      <use x="383.300781" xlink:href="#Arial-BoldMT-78"/>
      <use x="455.517578" xlink:href="#Arial-BoldMT-79"/>
      <use x="533.300781" xlink:href="#Arial-BoldMT-82"/>
      <use x="605.517578" xlink:href="#Arial-BoldMT-77"/>
      <use x="688.818359" xlink:href="#Arial-BoldMT-65"/>
      <use x="761.035156" xlink:href="#Arial-BoldMT-76"/>
      <use x="822.119141" xlink:href="#Arial-BoldMT-73"/>
      <use x="849.902344" xlink:href="#Arial-BoldMT-90"/>
      <use x="910.986328" xlink:href="#Arial-BoldMT-69"/>
      <use x="977.685547" xlink:href="#Arial-BoldMT-68"/>
     </g>
    </g>
   </g>
   <g id="matplotlib.axis_2">
    <g id="ytick_1">
     <g id="line2d_10">
      <defs>
       <path d="M 0 0 
L -3.5 0 
" id="m22d0d37e21" style="stroke:#000000;stroke-width:0.8;"/>
      </defs>
      <g>
       <use style="stroke:#000000;stroke-width:0.8;" x="111.2975" xlink:href="#m22d0d37e21" y="442.021562"/>
      </g>
     </g>
     <g id="text_9">
      <!-- 0.0 -->
      <defs>
       <path d="M 10.6875 12.40625 
L 21 12.40625 
L 21 0 
L 10.6875 0 
z
" id="DejaVuSans-46"/>
      </defs>
      <g transform="translate(56.588125 453.419219)scale(0.3 -0.3)">
       <use xlink:href="#DejaVuSans-48"/>
       <use x="63.623047" xlink:href="#DejaVuSans-46"/>
       <use x="95.410156" xlink:href="#DejaVuSans-48"/>
      </g>
     </g>
    </g>
    <g id="ytick_2">
     <g id="line2d_11">
      <g>
       <use style="stroke:#000000;stroke-width:0.8;" x="111.2975" xlink:href="#m22d0d37e21" y="387.661562"/>
      </g>
     </g>
     <g id="text_10">
      <!-- 0.2 -->
      <g transform="translate(56.588125 399.059219)scale(0.3 -0.3)">
       <use xlink:href="#DejaVuSans-48"/>
       <use x="63.623047" xlink:href="#DejaVuSans-46"/>
       <use x="95.410156" xlink:href="#DejaVuSans-50"/>
      </g>
     </g>
    </g>
    <g id="ytick_3">
     <g id="line2d_12">
      <g>
       <use style="stroke:#000000;stroke-width:0.8;" x="111.2975" xlink:href="#m22d0d37e21" y="333.301562"/>
      </g>
     </g>
     <g id="text_11">
      <!-- 0.4 -->
      <g transform="translate(56.588125 344.699219)scale(0.3 -0.3)">
       <use xlink:href="#DejaVuSans-48"/>
       <use x="63.623047" xlink:href="#DejaVuSans-46"/>
       <use x="95.410156" xlink:href="#DejaVuSans-52"/>
      </g>
     </g>
    </g>
    <g id="ytick_4">
     <g id="line2d_13">
      <g>
       <use style="stroke:#000000;stroke-width:0.8;" x="111.2975" xlink:href="#m22d0d37e21" y="278.941562"/>
      </g>
     </g>
     <g id="text_12">
      <!-- 0.6 -->
      <g transform="translate(56.588125 290.339219)scale(0.3 -0.3)">
       <use xlink:href="#DejaVuSans-48"/>
       <use x="63.623047" xlink:href="#DejaVuSans-46"/>
       <use x="95.410156" xlink:href="#DejaVuSans-54"/>
      </g>
     </g>
    </g>
    <g id="ytick_5">
     <g id="line2d_14">
      <g>
       <use style="stroke:#000000;stroke-width:0.8;" x="111.2975" xlink:href="#m22d0d37e21" y="224.581562"/>
      </g>
     </g>
     <g id="text_13">
      <!-- 0.8 -->
      <defs>
       <path d="M 31.78125 34.625 
Q 24.75 34.625 20.71875 30.859375 
Q 16.703125 27.09375 16.703125 20.515625 
Q 16.703125 13.921875 20.71875 10.15625 
Q 24.75 6.390625 31.78125 6.390625 
Q 38.8125 6.390625 42.859375 10.171875 
Q 46.921875 13.96875 46.921875 20.515625 
Q 46.921875 27.09375 42.890625 30.859375 
Q 38.875 34.625 31.78125 34.625 
z
M 21.921875 38.8125 
Q 15.578125 40.375 12.03125 44.71875 
Q 8.5 49.078125 8.5 55.328125 
Q 8.5 64.0625 14.71875 69.140625 
Q 20.953125 74.21875 31.78125 74.21875 
Q 42.671875 74.21875 48.875 69.140625 
Q 55.078125 64.0625 55.078125 55.328125 
Q 55.078125 49.078125 51.53125 44.71875 
Q 48 40.375 41.703125 38.8125 
Q 48.828125 37.15625 52.796875 32.3125 
Q 56.78125 27.484375 56.78125 20.515625 
Q 56.78125 9.90625 50.3125 4.234375 
Q 43.84375 -1.421875 31.78125 -1.421875 
Q 19.734375 -1.421875 13.25 4.234375 
Q 6.78125 9.90625 6.78125 20.515625 
Q 6.78125 27.484375 10.78125 32.3125 
Q 14.796875 37.15625 21.921875 38.8125 
z
M 18.3125 54.390625 
Q 18.3125 48.734375 21.84375 45.5625 
Q 25.390625 42.390625 31.78125 42.390625 
Q 38.140625 42.390625 41.71875 45.5625 
Q 45.3125 48.734375 45.3125 54.390625 
Q 45.3125 60.0625 41.71875 63.234375 
Q 38.140625 66.40625 31.78125 66.40625 
Q 25.390625 66.40625 21.84375 63.234375 
Q 18.3125 60.0625 18.3125 54.390625 
z
" id="DejaVuSans-56"/>
      </defs>
      <g transform="translate(56.588125 235.979219)scale(0.3 -0.3)">
       <use xlink:href="#DejaVuSans-48"/>
       <use x="63.623047" xlink:href="#DejaVuSans-46"/>
       <use x="95.410156" xlink:href="#DejaVuSans-56"/>
      </g>
     </g>
    </g>
    <g id="ytick_6">
     <g id="line2d_15">
      <g>
       <use style="stroke:#000000;stroke-width:0.8;" x="111.2975" xlink:href="#m22d0d37e21" y="170.221562"/>
      </g>
     </g>
     <g id="text_14">
      <!-- 1.0 -->
      <g transform="translate(56.588125 181.619219)scale(0.3 -0.3)">
       <use xlink:href="#DejaVuSans-49"/>
       <use x="63.623047" xlink:href="#DejaVuSans-46"/>
       <use x="95.410156" xlink:href="#DejaVuSans-48"/>
      </g>
     </g>
    </g>
    <g id="ytick_7">
     <g id="line2d_16">
      <g>
       <use style="stroke:#000000;stroke-width:0.8;" x="111.2975" xlink:href="#m22d0d37e21" y="115.861562"/>
      </g>
     </g>
     <g id="text_15">
      <!-- 1.2 -->
      <g transform="translate(56.588125 127.259219)scale(0.3 -0.3)">
       <use xlink:href="#DejaVuSans-49"/>
       <use x="63.623047" xlink:href="#DejaVuSans-46"/>
       <use x="95.410156" xlink:href="#DejaVuSans-50"/>
      </g>
     </g>
    </g>
    <g id="ytick_8">
     <g id="line2d_17">
      <g>
       <use style="stroke:#000000;stroke-width:0.8;" x="111.2975" xlink:href="#m22d0d37e21" y="61.501562"/>
      </g>
     </g>
     <g id="text_16">
      <!-- 1.4 -->
      <g transform="translate(56.588125 72.899219)scale(0.3 -0.3)">
       <use xlink:href="#DejaVuSans-49"/>
       <use x="63.623047" xlink:href="#DejaVuSans-46"/>
       <use x="95.410156" xlink:href="#DejaVuSans-52"/>
      </g>
     </g>
    </g>
    <g id="text_17">
     <!-- LIVING HEALTHY CELL -->
     <defs>
      <path d="M 7.328125 0 
L 7.328125 71.578125 
L 21.78125 71.578125 
L 21.78125 43.40625 
L 50.09375 43.40625 
L 50.09375 71.578125 
L 64.546875 71.578125 
L 64.546875 0 
L 50.09375 0 
L 50.09375 31.296875 
L 21.78125 31.296875 
L 21.78125 0 
z
" id="Arial-BoldMT-72"/>
      <path d="M 26.078125 0 
L 26.078125 30.125 
L -0.140625 71.578125 
L 16.796875 71.578125 
L 33.640625 43.265625 
L 50.140625 71.578125 
L 66.796875 71.578125 
L 40.484375 30.03125 
L 40.484375 0 
z
" id="Arial-BoldMT-89"/>
     </defs>
     <g transform="translate(21.515625 363.969375)rotate(-90)scale(0.2 -0.2)">
      <use xlink:href="#Arial-BoldMT-76"/>
      <use x="61.083984" xlink:href="#Arial-BoldMT-73"/>
      <use x="88.867188" xlink:href="#Arial-BoldMT-86"/>
      <use x="155.566406" xlink:href="#Arial-BoldMT-73"/>
      <use x="183.349609" xlink:href="#Arial-BoldMT-78"/>
      <use x="255.566406" xlink:href="#Arial-BoldMT-71"/>
      <use x="333.349609" xlink:href="#Arial-BoldMT-32"/>
      <use x="361.132812" xlink:href="#Arial-BoldMT-72"/>
      <use x="433.349609" xlink:href="#Arial-BoldMT-69"/>
      <use x="500.048828" xlink:href="#Arial-BoldMT-65"/>
      <use x="572.265625" xlink:href="#Arial-BoldMT-76"/>
      <use x="633.240234" xlink:href="#Arial-BoldMT-84"/>
      <use x="694.324219" xlink:href="#Arial-BoldMT-72"/>
      <use x="766.541016" xlink:href="#Arial-BoldMT-89"/>
      <use x="833.224609" xlink:href="#Arial-BoldMT-32"/>
      <use x="861.007812" xlink:href="#Arial-BoldMT-67"/>
      <use x="933.224609" xlink:href="#Arial-BoldMT-69"/>
      <use x="999.923828" xlink:href="#Arial-BoldMT-76"/>
      <use x="1061.007812" xlink:href="#Arial-BoldMT-76"/>
     </g>
     <!-- COUNT NORMALIZED -->
     <g transform="translate(42.64125 356.750625)rotate(-90)scale(0.2 -0.2)">
      <use xlink:href="#Arial-BoldMT-67"/>
      <use x="72.216797" xlink:href="#Arial-BoldMT-79"/>
      <use x="150" xlink:href="#Arial-BoldMT-85"/>
      <use x="222.216797" xlink:href="#Arial-BoldMT-78"/>
      <use x="294.433594" xlink:href="#Arial-BoldMT-84"/>
      <use x="355.517578" xlink:href="#Arial-BoldMT-32"/>
      <use x="383.300781" xlink:href="#Arial-BoldMT-78"/>
      <use x="455.517578" xlink:href="#Arial-BoldMT-79"/>
      <use x="533.300781" xlink:href="#Arial-BoldMT-82"/>
      <use x="605.517578" xlink:href="#Arial-BoldMT-77"/>
      <use x="688.818359" xlink:href="#Arial-BoldMT-65"/>
      <use x="761.035156" xlink:href="#Arial-BoldMT-76"/>
      <use x="822.119141" xlink:href="#Arial-BoldMT-73"/>
      <use x="849.902344" xlink:href="#Arial-BoldMT-90"/>
      <use x="910.986328" xlink:href="#Arial-BoldMT-69"/>
      <use x="977.685547" xlink:href="#Arial-BoldMT-68"/>
     </g>
    </g>
   </g>
   <g id="line2d_18">
    <path clip-path="url(#p0c30ab2c64)" d="M 111.2975 442.021562 
" style="fill:none;stroke:#000000;stroke-linecap:square;stroke-width:1.5;"/>
   </g>
   <g id="line2d_19">
    <path clip-path="url(#p0c30ab2c64)" d="M 111.2975 442.021562 
" style="fill:none;stroke:#d0e1f2;stroke-linecap:square;stroke-width:1.5;"/>
   </g>
   <g id="line2d_20">
    <path clip-path="url(#p0c30ab2c64)" d="M 111.2975 442.021562 
" style="fill:none;stroke:#94c4df;stroke-linecap:square;stroke-width:1.5;"/>
   </g>
   <g id="line2d_21">
    <path clip-path="url(#p0c30ab2c64)" d="M 111.2975 442.021562 
" style="fill:none;stroke:#4a98c9;stroke-linecap:square;stroke-width:1.5;"/>
   </g>
   <g id="line2d_22">
    <path clip-path="url(#p0c30ab2c64)" d="M 111.2975 442.021562 
" style="fill:none;stroke:#1764ab;stroke-linecap:square;stroke-width:1.5;"/>
   </g>
   <g id="line2d_23">
    <path clip-path="url(#p0c30ab2c64)" d="M 111.2975 442.021562 
" style="fill:none;stroke:#08306b;stroke-linecap:square;stroke-width:1.5;"/>
   </g>
   <g id="patch_3">
    <path d="M 111.2975 442.021562 
L 111.2975 61.501562 
" style="fill:none;stroke:#000000;stroke-linecap:square;stroke-linejoin:miter;stroke-width:0.8;"/>
   </g>
   <g id="patch_4">
    <path d="M 501.8975 442.021562 
L 501.8975 61.501562 
" style="fill:none;stroke:#000000;stroke-linecap:square;stroke-linejoin:miter;stroke-width:0.8;"/>
   </g>
   <g id="patch_5">
    <path d="M 111.2975 442.021562 
L 501.8975 442.021562 
" style="fill:none;stroke:#000000;stroke-linecap:square;stroke-linejoin:miter;stroke-width:0.8;"/>
   </g>
   <g id="patch_6">
    <path d="M 111.2975 61.501562 
L 501.8975 61.501562 
" style="fill:none;stroke:#000000;stroke-linecap:square;stroke-linejoin:miter;stroke-width:0.8;"/>
   </g>
   <g id="text_18">
    <!-- LIVING CANCER VS HEALTHY -->
    <defs>
     <path d="M 3.609375 23.296875 
L 17.671875 24.65625 
Q 18.953125 17.578125 22.828125 14.25 
Q 26.703125 10.9375 33.296875 10.9375 
Q 40.28125 10.9375 43.8125 13.890625 
Q 47.359375 16.84375 47.359375 20.796875 
Q 47.359375 23.34375 45.875 25.125 
Q 44.390625 26.90625 40.671875 28.21875 
Q 38.140625 29.109375 29.109375 31.34375 
Q 17.484375 34.234375 12.796875 38.421875 
Q 6.203125 44.34375 6.203125 52.828125 
Q 6.203125 58.296875 9.296875 63.0625 
Q 12.40625 67.828125 18.234375 70.3125 
Q 24.078125 72.796875 32.328125 72.796875 
Q 45.796875 72.796875 52.609375 66.890625 
Q 59.421875 60.984375 59.765625 51.125 
L 45.3125 50.484375 
Q 44.390625 56 41.328125 58.421875 
Q 38.28125 60.84375 32.171875 60.84375 
Q 25.875 60.84375 22.3125 58.25 
Q 20.015625 56.59375 20.015625 53.8125 
Q 20.015625 51.265625 22.171875 49.46875 
Q 24.90625 47.171875 35.453125 44.671875 
Q 46 42.1875 51.046875 39.515625 
Q 56.109375 36.859375 58.953125 32.25 
Q 61.8125 27.640625 61.8125 20.84375 
Q 61.8125 14.703125 58.390625 9.328125 
Q 54.984375 3.953125 48.734375 1.34375 
Q 42.484375 -1.265625 33.15625 -1.265625 
Q 19.578125 -1.265625 12.296875 5 
Q 5.03125 11.28125 3.609375 23.296875 
z
" id="Arial-BoldMT-83"/>
    </defs>
    <g transform="translate(125.3475 25.094531)scale(0.25 -0.25)">
     <use xlink:href="#Arial-BoldMT-76"/>
     <use x="61.083984" xlink:href="#Arial-BoldMT-73"/>
     <use x="88.867188" xlink:href="#Arial-BoldMT-86"/>
     <use x="155.566406" xlink:href="#Arial-BoldMT-73"/>
     <use x="183.349609" xlink:href="#Arial-BoldMT-78"/>
     <use x="255.566406" xlink:href="#Arial-BoldMT-71"/>
     <use x="333.349609" xlink:href="#Arial-BoldMT-32"/>
     <use x="361.132812" xlink:href="#Arial-BoldMT-67"/>
     <use x="433.349609" xlink:href="#Arial-BoldMT-65"/>
     <use x="505.566406" xlink:href="#Arial-BoldMT-78"/>
     <use x="577.783203" xlink:href="#Arial-BoldMT-67"/>
     <use x="650" xlink:href="#Arial-BoldMT-69"/>
     <use x="716.699219" xlink:href="#Arial-BoldMT-82"/>
     <use x="788.916016" xlink:href="#Arial-BoldMT-32"/>
     <use x="816.699219" xlink:href="#Arial-BoldMT-86"/>
     <use x="883.398438" xlink:href="#Arial-BoldMT-83"/>
     <use x="950.097656" xlink:href="#Arial-BoldMT-32"/>
     <use x="977.880859" xlink:href="#Arial-BoldMT-72"/>
     <use x="1050.097656" xlink:href="#Arial-BoldMT-69"/>
     <use x="1116.796875" xlink:href="#Arial-BoldMT-65"/>
     <use x="1189.013672" xlink:href="#Arial-BoldMT-76"/>
     <use x="1249.988281" xlink:href="#Arial-BoldMT-84"/>
     <use x="1311.072266" xlink:href="#Arial-BoldMT-72"/>
     <use x="1383.289062" xlink:href="#Arial-BoldMT-89"/>
    </g>
    <!-- CELLS NORMALIZED -->
    <g transform="translate(178.827969 51.501562)scale(0.25 -0.25)">
     <use xlink:href="#Arial-BoldMT-67"/>
     <use x="72.216797" xlink:href="#Arial-BoldMT-69"/>
     <use x="138.916016" xlink:href="#Arial-BoldMT-76"/>
     <use x="200" xlink:href="#Arial-BoldMT-76"/>
     <use x="261.083984" xlink:href="#Arial-BoldMT-83"/>
     <use x="327.783203" xlink:href="#Arial-BoldMT-32"/>
     <use x="355.566406" xlink:href="#Arial-BoldMT-78"/>
     <use x="427.783203" xlink:href="#Arial-BoldMT-79"/>
     <use x="505.566406" xlink:href="#Arial-BoldMT-82"/>
     <use x="577.783203" xlink:href="#Arial-BoldMT-77"/>
     <use x="661.083984" xlink:href="#Arial-BoldMT-65"/>
     <use x="733.300781" xlink:href="#Arial-BoldMT-76"/>
     <use x="794.384766" xlink:href="#Arial-BoldMT-73"/>
     <use x="822.167969" xlink:href="#Arial-BoldMT-90"/>
     <use x="883.251953" xlink:href="#Arial-BoldMT-69"/>
     <use x="949.951172" xlink:href="#Arial-BoldMT-68"/>
    </g>
   </g>
   <g id="legend_1">
    <g id="line2d_24">
     <path d="M 433.085 74.6 
L 453.085 74.6 
" style="fill:none;stroke:#000000;stroke-linecap:square;stroke-width:1.5;"/>
    </g>
    <g id="line2d_25"/>
    <g id="text_19">
     <!-- 0 -->
     <g transform="translate(461.085 78.1)scale(0.1 -0.1)">
      <use xlink:href="#DejaVuSans-48"/>
     </g>
    </g>
    <g id="line2d_26">
     <path d="M 433.085 89.278125 
L 453.085 89.278125 
" style="fill:none;stroke:#d0e1f2;stroke-linecap:square;stroke-width:1.5;"/>
    </g>
    <g id="line2d_27"/>
    <g id="text_20">
     <!-- 100 -->
     <g transform="translate(461.085 92.778125)scale(0.1 -0.1)">
      <use xlink:href="#DejaVuSans-49"/>
      <use x="63.623047" xlink:href="#DejaVuSans-48"/>
      <use x="127.246094" xlink:href="#DejaVuSans-48"/>
     </g>
    </g>
    <g id="line2d_28">
     <path d="M 433.085 103.95625 
L 453.085 103.95625 
" style="fill:none;stroke:#94c4df;stroke-linecap:square;stroke-width:1.5;"/>
    </g>
    <g id="line2d_29"/>
    <g id="text_21">
     <!-- 500 -->
     <g transform="translate(461.085 107.45625)scale(0.1 -0.1)">
      <use xlink:href="#DejaVuSans-53"/>
      <use x="63.623047" xlink:href="#DejaVuSans-48"/>
      <use x="127.246094" xlink:href="#DejaVuSans-48"/>
     </g>
    </g>
    <g id="line2d_30">
     <path d="M 433.085 118.634375 
L 453.085 118.634375 
" style="fill:none;stroke:#4a98c9;stroke-linecap:square;stroke-width:1.5;"/>
    </g>
    <g id="line2d_31"/>
    <g id="text_22">
     <!-- 1000 -->
     <g transform="translate(461.085 122.134375)scale(0.1 -0.1)">
      <use xlink:href="#DejaVuSans-49"/>
      <use x="63.623047" xlink:href="#DejaVuSans-48"/>
      <use x="127.246094" xlink:href="#DejaVuSans-48"/>
      <use x="190.869141" xlink:href="#DejaVuSans-48"/>
     </g>
    </g>
    <g id="line2d_32">
     <path d="M 433.085 133.3125 
L 453.085 133.3125 
" style="fill:none;stroke:#1764ab;stroke-linecap:square;stroke-width:1.5;"/>
    </g>
    <g id="line2d_33"/>
    <g id="text_23">
     <!-- 5000 -->
     <g transform="translate(461.085 136.8125)scale(0.1 -0.1)">
      <use xlink:href="#DejaVuSans-53"/>
      <use x="63.623047" xlink:href="#DejaVuSans-48"/>
      <use x="127.246094" xlink:href="#DejaVuSans-48"/>
      <use x="190.869141" xlink:href="#DejaVuSans-48"/>
     </g>
    </g>
    <g id="line2d_34">
     <path d="M 433.085 147.990625 
L 453.085 147.990625 
" style="fill:none;stroke:#08306b;stroke-linecap:square;stroke-width:1.5;"/>
    </g>
    <g id="line2d_35"/>
    <g id="text_24">
     <!-- 10000 -->
     <g transform="translate(461.085 151.490625)scale(0.1 -0.1)">
      <use xlink:href="#DejaVuSans-49"/>
      <use x="63.623047" xlink:href="#DejaVuSans-48"/>
      <use x="127.246094" xlink:href="#DejaVuSans-48"/>
      <use x="190.869141" xlink:href="#DejaVuSans-48"/>
      <use x="254.492188" xlink:href="#DejaVuSans-48"/>
     </g>
    </g>
   </g>
  </g>
 </g>
 <defs>
  <clipPath id="p0c30ab2c64">
   <rect height="380.52" width="390.6" x="111.2975" y="61.501562"/>
  </clipPath>
 </defs>
</svg>
