<?xml version="1.0" encoding="utf-8" standalone="no"?>
<!DOCTYPE svg PUBLIC "-//W3C//DTD SVG 1.1//EN"
  "http://www.w3.org/Graphics/SVG/1.1/DTD/svg11.dtd">
<!-- Created with matplotlib (https://matplotlib.org/) -->
<svg height="518.716875pt" version="1.1" viewBox="0 0 629.930625 518.716875" width="629.930625pt" xmlns="http://www.w3.org/2000/svg" xmlns:xlink="http://www.w3.org/1999/xlink">
 <defs>
  <style type="text/css">
*{stroke-linecap:butt;stroke-linejoin:round;}
  </style>
 </defs>
 <g id="figure_1">
  <g id="patch_1">
   <path d="M 0 518.716875 
L 629.930625 518.716875 
L 629.930625 0 
L 0 0 
z
" style="fill:#ffffff;"/>
  </g>
  <g id="axes_1">
   <g id="patch_2">
    <path d="M 159.318125 442.021562 
L 549.918125 442.021562 
L 549.918125 61.501562 
L 159.318125 61.501562 
z
" style="fill:#ffffff;"/>
   </g>
   <g id="matplotlib.axis_1">
    <g id="xtick_1">
     <g id="line2d_1">
      <defs>
       <path d="M 0 0 
L 0 3.5 
" id="m0e3c5a65d1" style="stroke:#000000;stroke-width:0.8;"/>
      </defs>
      <g>
       <use style="stroke:#000000;stroke-width:0.8;" x="159.318125" xlink:href="#m0e3c5a65d1" y="442.021562"/>
      </g>
     </g>
     <g id="text_1">
      <!-- 0 -->
      <defs>
       <path d="M 31.78125 66.40625 
Q 24.171875 66.40625 20.328125 58.90625 
Q 16.5 51.421875 16.5 36.375 
Q 16.5 21.390625 20.328125 13.890625 
Q 24.171875 6.390625 31.78125 6.390625 
Q 39.453125 6.390625 43.28125 13.890625 
Q 47.125 21.390625 47.125 36.375 
Q 47.125 51.421875 43.28125 58.90625 
Q 39.453125 66.40625 31.78125 66.40625 
z
M 31.78125 74.21875 
Q 44.046875 74.21875 50.515625 64.515625 
Q 56.984375 54.828125 56.984375 36.375 
Q 56.984375 17.96875 50.515625 8.265625 
Q 44.046875 -1.421875 31.78125 -1.421875 
Q 19.53125 -1.421875 13.0625 8.265625 
Q 6.59375 17.96875 6.59375 36.375 
Q 6.59375 54.828125 13.0625 64.515625 
Q 19.53125 74.21875 31.78125 74.21875 
z
" id="DejaVuSans-48"/>
      </defs>
      <g transform="translate(149.774375 471.816875)scale(0.3 -0.3)">
       <use xlink:href="#DejaVuSans-48"/>
      </g>
     </g>
    </g>
    <g id="xtick_2">
     <g id="line2d_2">
      <g>
       <use style="stroke:#000000;stroke-width:0.8;" x="215.118125" xlink:href="#m0e3c5a65d1" y="442.021562"/>
      </g>
     </g>
     <g id="text_2">
      <!-- 1 -->
      <defs>
       <path d="M 12.40625 8.296875 
L 28.515625 8.296875 
L 28.515625 63.921875 
L 10.984375 60.40625 
L 10.984375 69.390625 
L 28.421875 72.90625 
L 38.28125 72.90625 
L 38.28125 8.296875 
L 54.390625 8.296875 
L 54.390625 0 
L 12.40625 0 
z
" id="DejaVuSans-49"/>
      </defs>
      <g transform="translate(205.574375 471.816875)scale(0.3 -0.3)">
       <use xlink:href="#DejaVuSans-49"/>
      </g>
     </g>
    </g>
    <g id="xtick_3">
     <g id="line2d_3">
      <g>
       <use style="stroke:#000000;stroke-width:0.8;" x="270.918125" xlink:href="#m0e3c5a65d1" y="442.021562"/>
      </g>
     </g>
     <g id="text_3">
      <!-- 2 -->
      <defs>
       <path d="M 19.1875 8.296875 
L 53.609375 8.296875 
L 53.609375 0 
L 7.328125 0 
L 7.328125 8.296875 
Q 12.9375 14.109375 22.625 23.890625 
Q 32.328125 33.6875 34.8125 36.53125 
Q 39.546875 41.84375 41.421875 45.53125 
Q 43.3125 49.21875 43.3125 52.78125 
Q 43.3125 58.59375 39.234375 62.25 
Q 35.15625 65.921875 28.609375 65.921875 
Q 23.96875 65.921875 18.8125 64.3125 
Q 13.671875 62.703125 7.8125 59.421875 
L 7.8125 69.390625 
Q 13.765625 71.78125 18.9375 73 
Q 24.125 74.21875 28.421875 74.21875 
Q 39.75 74.21875 46.484375 68.546875 
Q 53.21875 62.890625 53.21875 53.421875 
Q 53.21875 48.921875 51.53125 44.890625 
Q 49.859375 40.875 45.40625 35.40625 
Q 44.1875 33.984375 37.640625 27.21875 
Q 31.109375 20.453125 19.1875 8.296875 
z
" id="DejaVuSans-50"/>
      </defs>
      <g transform="translate(261.374375 471.816875)scale(0.3 -0.3)">
       <use xlink:href="#DejaVuSans-50"/>
      </g>
     </g>
    </g>
    <g id="xtick_4">
     <g id="line2d_4">
      <g>
       <use style="stroke:#000000;stroke-width:0.8;" x="326.718125" xlink:href="#m0e3c5a65d1" y="442.021562"/>
      </g>
     </g>
     <g id="text_4">
      <!-- 3 -->
      <defs>
       <path d="M 40.578125 39.3125 
Q 47.65625 37.796875 51.625 33 
Q 55.609375 28.21875 55.609375 21.1875 
Q 55.609375 10.40625 48.1875 4.484375 
Q 40.765625 -1.421875 27.09375 -1.421875 
Q 22.515625 -1.421875 17.65625 -0.515625 
Q 12.796875 0.390625 7.625 2.203125 
L 7.625 11.71875 
Q 11.71875 9.328125 16.59375 8.109375 
Q 21.484375 6.890625 26.8125 6.890625 
Q 36.078125 6.890625 40.9375 10.546875 
Q 45.796875 14.203125 45.796875 21.1875 
Q 45.796875 27.640625 41.28125 31.265625 
Q 36.765625 34.90625 28.71875 34.90625 
L 20.21875 34.90625 
L 20.21875 43.015625 
L 29.109375 43.015625 
Q 36.375 43.015625 40.234375 45.921875 
Q 44.09375 48.828125 44.09375 54.296875 
Q 44.09375 59.90625 40.109375 62.90625 
Q 36.140625 65.921875 28.71875 65.921875 
Q 24.65625 65.921875 20.015625 65.03125 
Q 15.375 64.15625 9.8125 62.3125 
L 9.8125 71.09375 
Q 15.4375 72.65625 20.34375 73.4375 
Q 25.25 74.21875 29.59375 74.21875 
Q 40.828125 74.21875 47.359375 69.109375 
Q 53.90625 64.015625 53.90625 55.328125 
Q 53.90625 49.265625 50.4375 45.09375 
Q 46.96875 40.921875 40.578125 39.3125 
z
" id="DejaVuSans-51"/>
      </defs>
      <g transform="translate(317.174375 471.816875)scale(0.3 -0.3)">
       <use xlink:href="#DejaVuSans-51"/>
      </g>
     </g>
    </g>
    <g id="xtick_5">
     <g id="line2d_5">
      <g>
       <use style="stroke:#000000;stroke-width:0.8;" x="382.518125" xlink:href="#m0e3c5a65d1" y="442.021562"/>
      </g>
     </g>
     <g id="text_5">
      <!-- 4 -->
      <defs>
       <path d="M 37.796875 64.3125 
L 12.890625 25.390625 
L 37.796875 25.390625 
z
M 35.203125 72.90625 
L 47.609375 72.90625 
L 47.609375 25.390625 
L 58.015625 25.390625 
L 58.015625 17.1875 
L 47.609375 17.1875 
L 47.609375 0 
L 37.796875 0 
L 37.796875 17.1875 
L 4.890625 17.1875 
L 4.890625 26.703125 
z
" id="DejaVuSans-52"/>
      </defs>
      <g transform="translate(372.974375 471.816875)scale(0.3 -0.3)">
       <use xlink:href="#DejaVuSans-52"/>
      </g>
     </g>
    </g>
    <g id="xtick_6">
     <g id="line2d_6">
      <g>
       <use style="stroke:#000000;stroke-width:0.8;" x="438.318125" xlink:href="#m0e3c5a65d1" y="442.021562"/>
      </g>
     </g>
     <g id="text_6">
      <!-- 5 -->
      <defs>
       <path d="M 10.796875 72.90625 
L 49.515625 72.90625 
L 49.515625 64.59375 
L 19.828125 64.59375 
L 19.828125 46.734375 
Q 21.96875 47.46875 24.109375 47.828125 
Q 26.265625 48.1875 28.421875 48.1875 
Q 40.625 48.1875 47.75 41.5 
Q 54.890625 34.8125 54.890625 23.390625 
Q 54.890625 11.625 47.5625 5.09375 
Q 40.234375 -1.421875 26.90625 -1.421875 
Q 22.3125 -1.421875 17.546875 -0.640625 
Q 12.796875 0.140625 7.71875 1.703125 
L 7.71875 11.625 
Q 12.109375 9.234375 16.796875 8.0625 
Q 21.484375 6.890625 26.703125 6.890625 
Q 35.15625 6.890625 40.078125 11.328125 
Q 45.015625 15.765625 45.015625 23.390625 
Q 45.015625 31 40.078125 35.4375 
Q 35.15625 39.890625 26.703125 39.890625 
Q 22.75 39.890625 18.8125 39.015625 
Q 14.890625 38.140625 10.796875 36.28125 
z
" id="DejaVuSans-53"/>
      </defs>
      <g transform="translate(428.774375 471.816875)scale(0.3 -0.3)">
       <use xlink:href="#DejaVuSans-53"/>
      </g>
     </g>
    </g>
    <g id="xtick_7">
     <g id="line2d_7">
      <g>
       <use style="stroke:#000000;stroke-width:0.8;" x="494.118125" xlink:href="#m0e3c5a65d1" y="442.021562"/>
      </g>
     </g>
     <g id="text_7">
      <!-- 6 -->
      <defs>
       <path d="M 33.015625 40.375 
Q 26.375 40.375 22.484375 35.828125 
Q 18.609375 31.296875 18.609375 23.390625 
Q 18.609375 15.53125 22.484375 10.953125 
Q 26.375 6.390625 33.015625 6.390625 
Q 39.65625 6.390625 43.53125 10.953125 
Q 47.40625 15.53125 47.40625 23.390625 
Q 47.40625 31.296875 43.53125 35.828125 
Q 39.65625 40.375 33.015625 40.375 
z
M 52.59375 71.296875 
L 52.59375 62.3125 
Q 48.875 64.0625 45.09375 64.984375 
Q 41.3125 65.921875 37.59375 65.921875 
Q 27.828125 65.921875 22.671875 59.328125 
Q 17.53125 52.734375 16.796875 39.40625 
Q 19.671875 43.65625 24.015625 45.921875 
Q 28.375 48.1875 33.59375 48.1875 
Q 44.578125 48.1875 50.953125 41.515625 
Q 57.328125 34.859375 57.328125 23.390625 
Q 57.328125 12.15625 50.6875 5.359375 
Q 44.046875 -1.421875 33.015625 -1.421875 
Q 20.359375 -1.421875 13.671875 8.265625 
Q 6.984375 17.96875 6.984375 36.375 
Q 6.984375 53.65625 15.1875 63.9375 
Q 23.390625 74.21875 37.203125 74.21875 
Q 40.921875 74.21875 44.703125 73.484375 
Q 48.484375 72.75 52.59375 71.296875 
z
" id="DejaVuSans-54"/>
      </defs>
      <g transform="translate(484.574375 471.816875)scale(0.3 -0.3)">
       <use xlink:href="#DejaVuSans-54"/>
      </g>
     </g>
    </g>
    <g id="xtick_8">
     <g id="line2d_8">
      <g>
       <use style="stroke:#000000;stroke-width:0.8;" x="549.918125" xlink:href="#m0e3c5a65d1" y="442.021562"/>
      </g>
     </g>
     <g id="text_8">
      <!-- 7 -->
      <defs>
       <path d="M 8.203125 72.90625 
L 55.078125 72.90625 
L 55.078125 68.703125 
L 28.609375 0 
L 18.3125 0 
L 43.21875 64.59375 
L 8.203125 64.59375 
z
" id="DejaVuSans-55"/>
      </defs>
      <g transform="translate(540.374375 471.816875)scale(0.3 -0.3)">
       <use xlink:href="#DejaVuSans-55"/>
      </g>
     </g>
    </g>
    <g id="text_9">
     <!-- TIME (DAYS) -->
     <defs>
      <path d="M 23.390625 0 
L 23.390625 59.46875 
L 2.15625 59.46875 
L 2.15625 71.578125 
L 59.03125 71.578125 
L 59.03125 59.46875 
L 37.84375 59.46875 
L 37.84375 0 
z
" id="Arial-BoldMT-84"/>
      <path d="M 6.84375 0 
L 6.84375 71.578125 
L 21.296875 71.578125 
L 21.296875 0 
z
" id="Arial-BoldMT-73"/>
      <path d="M 7.078125 0 
L 7.078125 71.578125 
L 28.71875 71.578125 
L 41.703125 22.75 
L 54.546875 71.578125 
L 76.21875 71.578125 
L 76.21875 0 
L 62.796875 0 
L 62.796875 56.34375 
L 48.578125 0 
L 34.671875 0 
L 20.515625 56.34375 
L 20.515625 0 
z
" id="Arial-BoldMT-77"/>
      <path d="M 7.28125 0 
L 7.28125 71.578125 
L 60.359375 71.578125 
L 60.359375 59.46875 
L 21.734375 59.46875 
L 21.734375 43.609375 
L 57.671875 43.609375 
L 57.671875 31.546875 
L 21.734375 31.546875 
L 21.734375 12.0625 
L 61.71875 12.0625 
L 61.71875 0 
z
" id="Arial-BoldMT-69"/>
      <path id="Arial-BoldMT-32"/>
      <path d="M 29.9375 -21.046875 
L 20.515625 -21.046875 
Q 13.03125 -9.765625 9.125 2.390625 
Q 5.21875 14.546875 5.21875 25.921875 
Q 5.21875 40.046875 10.0625 52.640625 
Q 14.265625 63.578125 20.703125 72.796875 
L 30.078125 72.796875 
Q 23.390625 58.015625 20.875 47.625 
Q 18.359375 37.25 18.359375 25.640625 
Q 18.359375 17.625 19.84375 9.21875 
Q 21.34375 0.828125 23.921875 -6.734375 
Q 25.640625 -11.71875 29.9375 -21.046875 
z
" id="Arial-BoldMT-40"/>
      <path d="M 7.234375 71.578125 
L 33.640625 71.578125 
Q 42.578125 71.578125 47.265625 70.21875 
Q 53.5625 68.359375 58.046875 63.625 
Q 62.546875 58.890625 64.890625 52.03125 
Q 67.234375 45.171875 67.234375 35.109375 
Q 67.234375 26.265625 65.046875 19.875 
Q 62.359375 12.0625 57.375 7.234375 
Q 53.609375 3.5625 47.21875 1.515625 
Q 42.4375 0 34.421875 0 
L 7.234375 0 
z
M 21.6875 59.46875 
L 21.6875 12.0625 
L 32.46875 12.0625 
Q 38.53125 12.0625 41.21875 12.75 
Q 44.734375 13.625 47.046875 15.71875 
Q 49.359375 17.828125 50.828125 22.625 
Q 52.296875 27.4375 52.296875 35.75 
Q 52.296875 44.046875 50.828125 48.484375 
Q 49.359375 52.9375 46.71875 55.421875 
Q 44.09375 57.90625 40.046875 58.796875 
Q 37.015625 59.46875 28.171875 59.46875 
z
" id="Arial-BoldMT-68"/>
      <path d="M 71.828125 0 
L 56.109375 0 
L 49.859375 16.265625 
L 21.234375 16.265625 
L 15.328125 0 
L 0 0 
L 27.875 71.578125 
L 43.171875 71.578125 
z
M 45.21875 28.328125 
L 35.359375 54.890625 
L 25.6875 28.328125 
z
" id="Arial-BoldMT-65"/>
      <path d="M 26.078125 0 
L 26.078125 30.125 
L -0.140625 71.578125 
L 16.796875 71.578125 
L 33.640625 43.265625 
L 50.140625 71.578125 
L 66.796875 71.578125 
L 40.484375 30.03125 
L 40.484375 0 
z
" id="Arial-BoldMT-89"/>
      <path d="M 3.609375 23.296875 
L 17.671875 24.65625 
Q 18.953125 17.578125 22.828125 14.25 
Q 26.703125 10.9375 33.296875 10.9375 
Q 40.28125 10.9375 43.8125 13.890625 
Q 47.359375 16.84375 47.359375 20.796875 
Q 47.359375 23.34375 45.875 25.125 
Q 44.390625 26.90625 40.671875 28.21875 
Q 38.140625 29.109375 29.109375 31.34375 
Q 17.484375 34.234375 12.796875 38.421875 
Q 6.203125 44.34375 6.203125 52.828125 
Q 6.203125 58.296875 9.296875 63.0625 
Q 12.40625 67.828125 18.234375 70.3125 
Q 24.078125 72.796875 32.328125 72.796875 
Q 45.796875 72.796875 52.609375 66.890625 
Q 59.421875 60.984375 59.765625 51.125 
L 45.3125 50.484375 
Q 44.390625 56 41.328125 58.421875 
Q 38.28125 60.84375 32.171875 60.84375 
Q 25.875 60.84375 22.3125 58.25 
Q 20.015625 56.59375 20.015625 53.8125 
Q 20.015625 51.265625 22.171875 49.46875 
Q 24.90625 47.171875 35.453125 44.671875 
Q 46 42.1875 51.046875 39.515625 
Q 56.109375 36.859375 58.953125 32.25 
Q 61.8125 27.640625 61.8125 20.84375 
Q 61.8125 14.703125 58.390625 9.328125 
Q 54.984375 3.953125 48.734375 1.34375 
Q 42.484375 -1.265625 33.15625 -1.265625 
Q 19.578125 -1.265625 12.296875 5 
Q 5.03125 11.28125 3.609375 23.296875 
z
" id="Arial-BoldMT-83"/>
      <path d="M 3.375 -21.046875 
Q 7.421875 -12.359375 9.078125 -7.71875 
Q 10.75 -3.078125 12.15625 2.96875 
Q 13.578125 9.03125 14.25 14.46875 
Q 14.9375 19.921875 14.9375 25.640625 
Q 14.9375 37.25 12.453125 47.625 
Q 9.96875 58.015625 3.265625 72.796875 
L 12.59375 72.796875 
Q 19.96875 62.3125 24.046875 50.53125 
Q 28.125 38.765625 28.125 26.65625 
Q 28.125 16.453125 24.90625 4.78125 
Q 21.234375 -8.296875 12.84375 -21.046875 
z
" id="Arial-BoldMT-41"/>
     </defs>
     <g transform="translate(278.250938 506.255156)scale(0.25 -0.25)">
      <use xlink:href="#Arial-BoldMT-84"/>
      <use x="61.083984" xlink:href="#Arial-BoldMT-73"/>
      <use x="88.867188" xlink:href="#Arial-BoldMT-77"/>
      <use x="172.167969" xlink:href="#Arial-BoldMT-69"/>
      <use x="238.867188" xlink:href="#Arial-BoldMT-32"/>
      <use x="266.650391" xlink:href="#Arial-BoldMT-40"/>
      <use x="299.951172" xlink:href="#Arial-BoldMT-68"/>
      <use x="372.167969" xlink:href="#Arial-BoldMT-65"/>
      <use x="444.244141" xlink:href="#Arial-BoldMT-89"/>
      <use x="510.943359" xlink:href="#Arial-BoldMT-83"/>
      <use x="577.642578" xlink:href="#Arial-BoldMT-41"/>
     </g>
    </g>
   </g>
   <g id="matplotlib.axis_2">
    <g id="ytick_1">
     <g id="line2d_9">
      <defs>
       <path d="M 0 0 
L -3.5 0 
" id="me8ef3bb980" style="stroke:#000000;stroke-width:0.8;"/>
      </defs>
      <g>
       <use style="stroke:#000000;stroke-width:0.8;" x="159.318125" xlink:href="#me8ef3bb980" y="442.021562"/>
      </g>
     </g>
     <g id="text_10">
      <!-- 0 -->
      <g transform="translate(133.230625 453.419219)scale(0.3 -0.3)">
       <use xlink:href="#DejaVuSans-48"/>
      </g>
     </g>
    </g>
    <g id="ytick_2">
     <g id="line2d_10">
      <g>
       <use style="stroke:#000000;stroke-width:0.8;" x="159.318125" xlink:href="#me8ef3bb980" y="394.456562"/>
      </g>
     </g>
     <g id="text_11">
      <!-- 10000 -->
      <g transform="translate(56.880625 405.854219)scale(0.3 -0.3)">
       <use xlink:href="#DejaVuSans-49"/>
       <use x="63.623047" xlink:href="#DejaVuSans-48"/>
       <use x="127.246094" xlink:href="#DejaVuSans-48"/>
       <use x="190.869141" xlink:href="#DejaVuSans-48"/>
       <use x="254.492188" xlink:href="#DejaVuSans-48"/>
      </g>
     </g>
    </g>
    <g id="ytick_3">
     <g id="line2d_11">
      <g>
       <use style="stroke:#000000;stroke-width:0.8;" x="159.318125" xlink:href="#me8ef3bb980" y="346.891562"/>
      </g>
     </g>
     <g id="text_12">
      <!-- 20000 -->
      <g transform="translate(56.880625 358.289219)scale(0.3 -0.3)">
       <use xlink:href="#DejaVuSans-50"/>
       <use x="63.623047" xlink:href="#DejaVuSans-48"/>
       <use x="127.246094" xlink:href="#DejaVuSans-48"/>
       <use x="190.869141" xlink:href="#DejaVuSans-48"/>
       <use x="254.492188" xlink:href="#DejaVuSans-48"/>
      </g>
     </g>
    </g>
    <g id="ytick_4">
     <g id="line2d_12">
      <g>
       <use style="stroke:#000000;stroke-width:0.8;" x="159.318125" xlink:href="#me8ef3bb980" y="299.326562"/>
      </g>
     </g>
     <g id="text_13">
      <!-- 30000 -->
      <g transform="translate(56.880625 310.724219)scale(0.3 -0.3)">
       <use xlink:href="#DejaVuSans-51"/>
       <use x="63.623047" xlink:href="#DejaVuSans-48"/>
       <use x="127.246094" xlink:href="#DejaVuSans-48"/>
       <use x="190.869141" xlink:href="#DejaVuSans-48"/>
       <use x="254.492188" xlink:href="#DejaVuSans-48"/>
      </g>
     </g>
    </g>
    <g id="ytick_5">
     <g id="line2d_13">
      <g>
       <use style="stroke:#000000;stroke-width:0.8;" x="159.318125" xlink:href="#me8ef3bb980" y="251.761562"/>
      </g>
     </g>
     <g id="text_14">
      <!-- 40000 -->
      <g transform="translate(56.880625 263.159219)scale(0.3 -0.3)">
       <use xlink:href="#DejaVuSans-52"/>
       <use x="63.623047" xlink:href="#DejaVuSans-48"/>
       <use x="127.246094" xlink:href="#DejaVuSans-48"/>
       <use x="190.869141" xlink:href="#DejaVuSans-48"/>
       <use x="254.492188" xlink:href="#DejaVuSans-48"/>
      </g>
     </g>
    </g>
    <g id="ytick_6">
     <g id="line2d_14">
      <g>
       <use style="stroke:#000000;stroke-width:0.8;" x="159.318125" xlink:href="#me8ef3bb980" y="204.196562"/>
      </g>
     </g>
     <g id="text_15">
      <!-- 50000 -->
      <g transform="translate(56.880625 215.594219)scale(0.3 -0.3)">
       <use xlink:href="#DejaVuSans-53"/>
       <use x="63.623047" xlink:href="#DejaVuSans-48"/>
       <use x="127.246094" xlink:href="#DejaVuSans-48"/>
       <use x="190.869141" xlink:href="#DejaVuSans-48"/>
       <use x="254.492188" xlink:href="#DejaVuSans-48"/>
      </g>
     </g>
    </g>
    <g id="ytick_7">
     <g id="line2d_15">
      <g>
       <use style="stroke:#000000;stroke-width:0.8;" x="159.318125" xlink:href="#me8ef3bb980" y="156.631562"/>
      </g>
     </g>
     <g id="text_16">
      <!-- 60000 -->
      <g transform="translate(56.880625 168.029219)scale(0.3 -0.3)">
       <use xlink:href="#DejaVuSans-54"/>
       <use x="63.623047" xlink:href="#DejaVuSans-48"/>
       <use x="127.246094" xlink:href="#DejaVuSans-48"/>
       <use x="190.869141" xlink:href="#DejaVuSans-48"/>
       <use x="254.492188" xlink:href="#DejaVuSans-48"/>
      </g>
     </g>
    </g>
    <g id="ytick_8">
     <g id="line2d_16">
      <g>
       <use style="stroke:#000000;stroke-width:0.8;" x="159.318125" xlink:href="#me8ef3bb980" y="109.066562"/>
      </g>
     </g>
     <g id="text_17">
      <!-- 70000 -->
      <g transform="translate(56.880625 120.464219)scale(0.3 -0.3)">
       <use xlink:href="#DejaVuSans-55"/>
       <use x="63.623047" xlink:href="#DejaVuSans-48"/>
       <use x="127.246094" xlink:href="#DejaVuSans-48"/>
       <use x="190.869141" xlink:href="#DejaVuSans-48"/>
       <use x="254.492188" xlink:href="#DejaVuSans-48"/>
      </g>
     </g>
    </g>
    <g id="ytick_9">
     <g id="line2d_17">
      <g>
       <use style="stroke:#000000;stroke-width:0.8;" x="159.318125" xlink:href="#me8ef3bb980" y="61.501562"/>
      </g>
     </g>
     <g id="text_18">
      <!-- 80000 -->
      <defs>
       <path d="M 31.78125 34.625 
Q 24.75 34.625 20.71875 30.859375 
Q 16.703125 27.09375 16.703125 20.515625 
Q 16.703125 13.921875 20.71875 10.15625 
Q 24.75 6.390625 31.78125 6.390625 
Q 38.8125 6.390625 42.859375 10.171875 
Q 46.921875 13.96875 46.921875 20.515625 
Q 46.921875 27.09375 42.890625 30.859375 
Q 38.875 34.625 31.78125 34.625 
z
M 21.921875 38.8125 
Q 15.578125 40.375 12.03125 44.71875 
Q 8.5 49.078125 8.5 55.328125 
Q 8.5 64.0625 14.71875 69.140625 
Q 20.953125 74.21875 31.78125 74.21875 
Q 42.671875 74.21875 48.875 69.140625 
Q 55.078125 64.0625 55.078125 55.328125 
Q 55.078125 49.078125 51.53125 44.71875 
Q 48 40.375 41.703125 38.8125 
Q 48.828125 37.15625 52.796875 32.3125 
Q 56.78125 27.484375 56.78125 20.515625 
Q 56.78125 9.90625 50.3125 4.234375 
Q 43.84375 -1.421875 31.78125 -1.421875 
Q 19.734375 -1.421875 13.25 4.234375 
Q 6.78125 9.90625 6.78125 20.515625 
Q 6.78125 27.484375 10.78125 32.3125 
Q 14.796875 37.15625 21.921875 38.8125 
z
M 18.3125 54.390625 
Q 18.3125 48.734375 21.84375 45.5625 
Q 25.390625 42.390625 31.78125 42.390625 
Q 38.140625 42.390625 41.71875 45.5625 
Q 45.3125 48.734375 45.3125 54.390625 
Q 45.3125 60.0625 41.71875 63.234375 
Q 38.140625 66.40625 31.78125 66.40625 
Q 25.390625 66.40625 21.84375 63.234375 
Q 18.3125 60.0625 18.3125 54.390625 
z
" id="DejaVuSans-56"/>
      </defs>
      <g transform="translate(56.880625 72.899219)scale(0.3 -0.3)">
       <use xlink:href="#DejaVuSans-56"/>
       <use x="63.623047" xlink:href="#DejaVuSans-48"/>
       <use x="127.246094" xlink:href="#DejaVuSans-48"/>
       <use x="190.869141" xlink:href="#DejaVuSans-48"/>
       <use x="254.492188" xlink:href="#DejaVuSans-48"/>
      </g>
     </g>
    </g>
    <g id="text_19">
     <!-- CD8 LIVE CELL COUNTS -->
     <defs>
      <path d="M 53.078125 26.3125 
L 67.09375 21.875 
Q 63.875 10.15625 56.375 4.46875 
Q 48.875 -1.21875 37.359375 -1.21875 
Q 23.09375 -1.21875 13.90625 8.515625 
Q 4.734375 18.265625 4.734375 35.15625 
Q 4.734375 53.03125 13.953125 62.90625 
Q 23.1875 72.796875 38.234375 72.796875 
Q 51.375 72.796875 59.578125 65.046875 
Q 64.453125 60.453125 66.890625 51.859375 
L 52.59375 48.4375 
Q 51.3125 54 47.28125 57.21875 
Q 43.265625 60.453125 37.5 60.453125 
Q 29.546875 60.453125 24.578125 54.734375 
Q 19.625 49.03125 19.625 36.234375 
Q 19.625 22.65625 24.5 16.890625 
Q 29.390625 11.140625 37.203125 11.140625 
Q 42.96875 11.140625 47.109375 14.796875 
Q 51.265625 18.453125 53.078125 26.3125 
z
" id="Arial-BoldMT-67"/>
      <path d="M 16.015625 38.625 
Q 10.6875 40.875 8.265625 44.796875 
Q 5.859375 48.734375 5.859375 53.421875 
Q 5.859375 61.421875 11.453125 66.640625 
Q 17.046875 71.875 27.34375 71.875 
Q 37.546875 71.875 43.1875 66.640625 
Q 48.828125 61.421875 48.828125 53.421875 
Q 48.828125 48.4375 46.234375 44.546875 
Q 43.65625 40.671875 38.96875 38.625 
Q 44.921875 36.234375 48.015625 31.640625 
Q 51.125 27.046875 51.125 21.046875 
Q 51.125 11.140625 44.796875 4.9375 
Q 38.484375 -1.265625 27.984375 -1.265625 
Q 18.21875 -1.265625 11.71875 3.859375 
Q 4.046875 9.90625 4.046875 20.453125 
Q 4.046875 26.265625 6.921875 31.125 
Q 9.8125 35.984375 16.015625 38.625 
z
M 18.84375 52.4375 
Q 18.84375 48.34375 21.15625 46.046875 
Q 23.484375 43.75 27.34375 43.75 
Q 31.25 43.75 33.59375 46.0625 
Q 35.9375 48.390625 35.9375 52.484375 
Q 35.9375 56.34375 33.609375 58.65625 
Q 31.296875 60.984375 27.484375 60.984375 
Q 23.53125 60.984375 21.1875 58.640625 
Q 18.84375 56.296875 18.84375 52.4375 
z
M 17.578125 21.78125 
Q 17.578125 16.109375 20.484375 12.9375 
Q 23.390625 9.765625 27.734375 9.765625 
Q 31.984375 9.765625 34.765625 12.8125 
Q 37.546875 15.875 37.546875 21.625 
Q 37.546875 26.65625 34.71875 29.703125 
Q 31.890625 32.765625 27.546875 32.765625 
Q 22.515625 32.765625 20.046875 29.296875 
Q 17.578125 25.828125 17.578125 21.78125 
z
" id="Arial-BoldMT-56"/>
      <path d="M 7.671875 0 
L 7.671875 71 
L 22.125 71 
L 22.125 12.0625 
L 58.0625 12.0625 
L 58.0625 0 
z
" id="Arial-BoldMT-76"/>
      <path d="M 25.53125 0 
L -0.046875 71.578125 
L 15.625 71.578125 
L 33.734375 18.609375 
L 51.265625 71.578125 
L 66.609375 71.578125 
L 40.96875 0 
z
" id="Arial-BoldMT-86"/>
      <path d="M 4.34375 35.359375 
Q 4.34375 46.296875 7.625 53.71875 
Q 10.0625 59.1875 14.28125 63.53125 
Q 18.5 67.875 23.53125 69.96875 
Q 30.21875 72.796875 38.96875 72.796875 
Q 54.78125 72.796875 64.28125 62.984375 
Q 73.78125 53.171875 73.78125 35.6875 
Q 73.78125 18.359375 64.359375 8.5625 
Q 54.9375 -1.21875 39.15625 -1.21875 
Q 23.1875 -1.21875 13.765625 8.515625 
Q 4.34375 18.265625 4.34375 35.359375 
z
M 19.234375 35.84375 
Q 19.234375 23.6875 24.84375 17.40625 
Q 30.46875 11.140625 39.109375 11.140625 
Q 47.75 11.140625 53.296875 17.359375 
Q 58.84375 23.578125 58.84375 36.03125 
Q 58.84375 48.34375 53.4375 54.390625 
Q 48.046875 60.453125 39.109375 60.453125 
Q 30.171875 60.453125 24.703125 54.3125 
Q 19.234375 48.1875 19.234375 35.84375 
z
" id="Arial-BoldMT-79"/>
      <path d="M 7.171875 71.578125 
L 21.625 71.578125 
L 21.625 32.8125 
Q 21.625 23.578125 22.171875 20.84375 
Q 23.09375 16.453125 26.578125 13.796875 
Q 30.078125 11.140625 36.140625 11.140625 
Q 42.28125 11.140625 45.40625 13.640625 
Q 48.53125 16.15625 49.171875 19.8125 
Q 49.8125 23.484375 49.8125 31.984375 
L 49.8125 71.578125 
L 64.265625 71.578125 
L 64.265625 33.984375 
Q 64.265625 21.09375 63.09375 15.765625 
Q 61.921875 10.453125 58.765625 6.78125 
Q 55.609375 3.125 50.328125 0.953125 
Q 45.0625 -1.21875 36.578125 -1.21875 
Q 26.3125 -1.21875 21.015625 1.140625 
Q 15.71875 3.515625 12.640625 7.296875 
Q 9.578125 11.078125 8.59375 15.234375 
Q 7.171875 21.390625 7.171875 33.40625 
z
" id="Arial-BoldMT-85"/>
      <path d="M 7.421875 0 
L 7.421875 71.578125 
L 21.484375 71.578125 
L 50.78125 23.78125 
L 50.78125 71.578125 
L 64.203125 71.578125 
L 64.203125 0 
L 49.703125 0 
L 20.84375 46.6875 
L 20.84375 0 
z
" id="Arial-BoldMT-78"/>
     </defs>
     <g transform="translate(21.253125 370.655312)rotate(-90)scale(0.2 -0.2)">
      <use xlink:href="#Arial-BoldMT-67"/>
      <use x="72.216797" xlink:href="#Arial-BoldMT-68"/>
      <use x="144.433594" xlink:href="#Arial-BoldMT-56"/>
      <use x="200.048828" xlink:href="#Arial-BoldMT-32"/>
      <use x="227.832031" xlink:href="#Arial-BoldMT-76"/>
      <use x="288.916016" xlink:href="#Arial-BoldMT-73"/>
      <use x="316.699219" xlink:href="#Arial-BoldMT-86"/>
      <use x="383.398438" xlink:href="#Arial-BoldMT-69"/>
      <use x="450.097656" xlink:href="#Arial-BoldMT-32"/>
      <use x="477.880859" xlink:href="#Arial-BoldMT-67"/>
      <use x="550.097656" xlink:href="#Arial-BoldMT-69"/>
      <use x="616.796875" xlink:href="#Arial-BoldMT-76"/>
      <use x="677.880859" xlink:href="#Arial-BoldMT-76"/>
      <use x="738.949219" xlink:href="#Arial-BoldMT-32"/>
      <use x="766.732422" xlink:href="#Arial-BoldMT-67"/>
      <use x="838.949219" xlink:href="#Arial-BoldMT-79"/>
      <use x="916.732422" xlink:href="#Arial-BoldMT-85"/>
      <use x="988.949219" xlink:href="#Arial-BoldMT-78"/>
      <use x="1061.166016" xlink:href="#Arial-BoldMT-84"/>
      <use x="1122.25" xlink:href="#Arial-BoldMT-83"/>
     </g>
     <!-- (NUMBERS) -->
     <defs>
      <path d="M 7.328125 71.578125 
L 35.9375 71.578125 
Q 44.4375 71.578125 48.609375 70.875 
Q 52.78125 70.171875 56.078125 67.921875 
Q 59.375 65.671875 61.5625 61.9375 
Q 63.765625 58.203125 63.765625 53.5625 
Q 63.765625 48.53125 61.046875 44.328125 
Q 58.34375 40.140625 53.71875 38.03125 
Q 60.25 36.140625 63.765625 31.546875 
Q 67.28125 26.953125 67.28125 20.75 
Q 67.28125 15.875 65.015625 11.25 
Q 62.75 6.640625 58.8125 3.875 
Q 54.890625 1.125 49.125 0.484375 
Q 45.515625 0.09375 31.6875 0 
L 7.328125 0 
z
M 21.78125 59.671875 
L 21.78125 43.109375 
L 31.25 43.109375 
Q 39.703125 43.109375 41.75 43.359375 
Q 45.453125 43.796875 47.578125 45.921875 
Q 49.703125 48.046875 49.703125 51.515625 
Q 49.703125 54.828125 47.875 56.90625 
Q 46.046875 58.984375 42.4375 59.421875 
Q 40.28125 59.671875 30.078125 59.671875 
z
M 21.78125 31.203125 
L 21.78125 12.0625 
L 35.15625 12.0625 
Q 42.96875 12.0625 45.0625 12.5 
Q 48.296875 13.09375 50.3125 15.359375 
Q 52.34375 17.625 52.34375 21.4375 
Q 52.34375 24.65625 50.78125 26.90625 
Q 49.21875 29.15625 46.265625 30.171875 
Q 43.3125 31.203125 33.453125 31.203125 
z
" id="Arial-BoldMT-66"/>
      <path d="M 7.328125 0 
L 7.328125 71.578125 
L 37.75 71.578125 
Q 49.21875 71.578125 54.421875 69.640625 
Q 59.625 67.71875 62.75 62.78125 
Q 65.875 57.859375 65.875 51.515625 
Q 65.875 43.453125 61.125 38.203125 
Q 56.390625 32.953125 46.96875 31.59375 
Q 51.65625 28.859375 54.703125 25.578125 
Q 57.765625 22.3125 62.9375 13.96875 
L 71.6875 0 
L 54.390625 0 
L 43.953125 15.578125 
Q 38.375 23.921875 36.328125 26.09375 
Q 34.28125 28.265625 31.984375 29.078125 
Q 29.6875 29.890625 24.703125 29.890625 
L 21.78125 29.890625 
L 21.78125 0 
z
M 21.78125 41.3125 
L 32.46875 41.3125 
Q 42.875 41.3125 45.453125 42.1875 
Q 48.046875 43.0625 49.515625 45.203125 
Q 50.984375 47.359375 50.984375 50.59375 
Q 50.984375 54.203125 49.046875 56.421875 
Q 47.125 58.640625 43.609375 59.234375 
Q 41.84375 59.46875 33.0625 59.46875 
L 21.78125 59.46875 
z
" id="Arial-BoldMT-82"/>
     </defs>
     <g transform="translate(42.67125 308.97875)rotate(-90)scale(0.2 -0.2)">
      <use xlink:href="#Arial-BoldMT-40"/>
      <use x="33.300781" xlink:href="#Arial-BoldMT-78"/>
      <use x="105.517578" xlink:href="#Arial-BoldMT-85"/>
      <use x="177.734375" xlink:href="#Arial-BoldMT-77"/>
      <use x="261.035156" xlink:href="#Arial-BoldMT-66"/>
      <use x="333.251953" xlink:href="#Arial-BoldMT-69"/>
      <use x="399.951172" xlink:href="#Arial-BoldMT-82"/>
      <use x="472.167969" xlink:href="#Arial-BoldMT-83"/>
      <use x="538.867188" xlink:href="#Arial-BoldMT-41"/>
     </g>
    </g>
   </g>
   <g id="line2d_18">
    <path clip-path="url(#pb017e7fe89)" d="M 159.318125 442.021562 
L 187.218125 440.832437 
L 215.118125 439.671851 
L 243.018125 437.70266 
L 270.918125 434.258954 
L 298.818125 425.54029 
L 326.718125 409.187443 
L 354.618125 376.657739 
L 382.518125 338.125333 
L 410.418125 298.879451 
L 438.318125 252.508333 
L 466.218125 243.052411 
L 494.118125 239.047438 
L 522.018125 235.998521 
L 549.918125 234.267155 
" style="fill:none;stroke:#08306b;stroke-linecap:square;stroke-width:1.5;"/>
   </g>
   <g id="line2d_19">
    <path clip-path="url(#pb017e7fe89)" d="M 159.318125 442.021562 
L 187.218125 440.832437 
L 215.118125 439.695634 
L 243.018125 437.678878 
L 270.918125 433.89746 
L 298.818125 424.926701 
L 326.718125 407.541694 
L 354.618125 373.875187 
L 382.518125 335.190572 
L 410.418125 285.39953 
L 438.318125 246.548438 
L 466.218125 236.198294 
L 494.118125 231.27056 
L 522.018125 226.81372 
L 549.918125 224.568652 
" style="fill:none;stroke:#08306b;stroke-linecap:square;stroke-width:1.5;"/>
   </g>
   <g id="line2d_20">
    <path clip-path="url(#pb017e7fe89)" d="M 159.318125 442.021562 
L 187.218125 440.832437 
L 215.118125 439.695634 
L 243.018125 437.712173 
L 270.918125 433.650122 
L 298.818125 424.336895 
L 326.718125 406.504777 
L 354.618125 371.268625 
L 382.518125 330.457855 
L 410.418125 284.781185 
L 438.318125 245.568599 
L 466.218125 234.999656 
L 494.118125 230.404877 
L 522.018125 226.461739 
L 549.918125 224.354609 
" style="fill:none;stroke:#08306b;stroke-linecap:square;stroke-width:1.5;"/>
   </g>
   <g id="line2d_21">
    <path clip-path="url(#pb017e7fe89)" d="M 159.318125 442.021562 
L 187.218125 440.832437 
L 215.118125 439.686121 
L 243.018125 437.678878 
L 270.918125 433.973564 
L 298.818125 425.107448 
L 326.718125 407.779519 
L 354.618125 373.247329 
L 382.518125 332.798053 
L 410.418125 290.160787 
L 438.318125 244.536439 
L 466.218125 237.102029 
L 494.118125 232.369312 
L 522.018125 229.244291 
L 549.918125 226.680538 
" style="fill:none;stroke:#08306b;stroke-linecap:square;stroke-width:1.5;"/>
   </g>
   <g id="line2d_22">
    <path clip-path="url(#pb017e7fe89)" d="M 159.318125 442.021562 
L 187.218125 440.832437 
L 215.118125 439.676608 
L 243.018125 437.674121 
L 270.918125 434.311276 
L 298.818125 425.90654 
L 326.718125 409.881892 
L 354.618125 378.117985 
L 382.518125 336.59374 
L 410.418125 300.572765 
L 438.318125 251.304938 
L 466.218125 239.770426 
L 494.118125 236.907013 
L 522.018125 233.56795 
L 549.918125 231.774749 
" style="fill:none;stroke:#08306b;stroke-linecap:square;stroke-width:1.5;"/>
   </g>
   <g id="line2d_23">
    <path clip-path="url(#pb017e7fe89)" d="M 159.318125 442.021562 
L 187.218125 440.832437 
L 215.118125 439.728929 
L 243.018125 437.831086 
L 270.918125 434.696552 
L 298.818125 426.76271 
L 326.718125 411.675092 
L 354.618125 382.574825 
L 382.518125 343.604821 
L 410.418125 302.99858 
L 438.318125 256.032899 
L 466.218125 242.809829 
L 494.118125 237.420715 
L 522.018125 234.547789 
L 549.918125 231.893662 
" style="fill:none;stroke:#08306b;stroke-linecap:square;stroke-width:1.5;"/>
   </g>
   <g id="line2d_24">
    <path clip-path="url(#pb017e7fe89)" d="M 159.318125 442.021562 
L 187.218125 440.832437 
L 215.118125 439.690877 
L 243.018125 437.664608 
L 270.918125 433.849895 
L 298.818125 424.841084 
L 326.718125 407.446564 
L 354.618125 372.995234 
L 382.518125 330.148682 
L 410.418125 291.816049 
L 438.318125 245.230888 
L 466.218125 235.903391 
L 494.118125 230.80918 
L 522.018125 227.579516 
L 549.918125 224.811233 
" style="fill:none;stroke:#08306b;stroke-linecap:square;stroke-width:1.5;"/>
   </g>
   <g id="line2d_25">
    <path clip-path="url(#pb017e7fe89)" d="M 159.318125 442.021562 
L 187.218125 440.832437 
L 215.118125 439.681364 
L 243.018125 437.683634 
L 270.918125 434.206633 
L 298.818125 425.82568 
L 326.718125 409.468076 
L 354.618125 377.204737 
L 382.518125 336.717409 
L 410.418125 293.20019 
L 438.318125 248.094301 
L 466.218125 238.709726 
L 494.118125 235.437254 
L 522.018125 232.569085 
L 549.918125 231.09457 
" style="fill:none;stroke:#08306b;stroke-linecap:square;stroke-width:1.5;"/>
   </g>
   <g id="line2d_26">
    <path clip-path="url(#pb017e7fe89)" d="M 159.318125 442.021562 
L 187.218125 440.832437 
L 215.118125 439.71466 
L 243.018125 437.831086 
L 270.918125 434.230415 
L 298.818125 425.735306 
L 326.718125 409.130365 
L 354.618125 376.81946 
L 382.518125 335.970638 
L 410.418125 295.645031 
L 438.318125 247.766102 
L 466.218125 238.790587 
L 494.118125 234.70951 
L 522.018125 231.784262 
L 549.918125 229.715185 
" style="fill:none;stroke:#08306b;stroke-linecap:square;stroke-width:1.5;"/>
   </g>
   <g id="line2d_27">
    <path clip-path="url(#pb017e7fe89)" d="M 159.318125 442.021562 
L 187.218125 440.832437 
L 215.118125 439.71466 
L 243.018125 437.712173 
L 270.918125 434.439701 
L 298.818125 426.0968 
L 326.718125 409.677362 
L 354.618125 377.808812 
L 382.518125 337.364293 
L 410.418125 295.392937 
L 438.318125 253.9115 
L 466.218125 242.914472 
L 494.118125 239.037925 
L 522.018125 235.922417 
L 549.918125 233.558437 
" style="fill:none;stroke:#08306b;stroke-linecap:square;stroke-width:1.5;"/>
   </g>
   <g id="line2d_28">
    <path clip-path="url(#pb017e7fe89)" d="M 159.318125 442.021562 
L 187.218125 440.832437 
L 215.118125 439.70039 
L 243.018125 438.4637 
L 270.918125 436.622935 
L 298.818125 431.918756 
L 326.718125 425.055127 
L 354.618125 412.807139 
L 382.518125 395.217602 
L 410.418125 380.05388 
L 438.318125 350.653954 
L 466.218125 320.264675 
L 494.118125 303.555091 
L 522.018125 288.034631 
L 549.918125 271.591411 
" style="fill:none;stroke:#4a98c9;stroke-linecap:square;stroke-width:1.5;"/>
   </g>
   <g id="line2d_29">
    <path clip-path="url(#pb017e7fe89)" d="M 159.318125 442.021562 
L 187.218125 440.832437 
L 215.118125 439.71466 
L 243.018125 438.397109 
L 270.918125 436.48024 
L 298.818125 431.657149 
L 326.718125 424.489103 
L 354.618125 411.342137 
L 382.518125 393.172307 
L 410.418125 378.198845 
L 438.318125 345.04604 
L 466.218125 312.777944 
L 494.118125 298.365749 
L 522.018125 283.230566 
L 549.918125 267.71962 
" style="fill:none;stroke:#4a98c9;stroke-linecap:square;stroke-width:1.5;"/>
   </g>
   <g id="line2d_30">
    <path clip-path="url(#pb017e7fe89)" d="M 159.318125 442.021562 
L 187.218125 440.832437 
L 215.118125 439.719416 
L 243.018125 438.47797 
L 270.918125 436.6705 
L 298.818125 432.00913 
L 326.718125 425.516507 
L 354.618125 413.620501 
L 382.518125 397.120202 
L 410.418125 383.430995 
L 438.318125 355.381915 
L 466.218125 323.489582 
L 494.118125 306.461312 
L 522.018125 290.574602 
L 549.918125 275.082682 
" style="fill:none;stroke:#4a98c9;stroke-linecap:square;stroke-width:1.5;"/>
   </g>
   <g id="line2d_31">
    <path clip-path="url(#pb017e7fe89)" d="M 159.318125 442.021562 
L 187.218125 440.832437 
L 215.118125 439.733686 
L 243.018125 438.378083 
L 270.918125 436.603909 
L 298.818125 431.62861 
L 326.718125 424.260791 
L 354.618125 411.675092 
L 382.518125 392.168686 
L 410.418125 375.549475 
L 438.318125 343.790324 
L 466.218125 308.715893 
L 494.118125 291.035983 
L 522.018125 272.699675 
L 549.918125 257.702431 
" style="fill:none;stroke:#4a98c9;stroke-linecap:square;stroke-width:1.5;"/>
   </g>
   <g id="line2d_32">
    <path clip-path="url(#pb017e7fe89)" d="M 159.318125 442.021562 
L 187.218125 440.832437 
L 215.118125 439.71466 
L 243.018125 438.230632 
L 270.918125 436.57537 
L 298.818125 431.752279 
L 326.718125 424.284574 
L 354.618125 412.184038 
L 382.518125 395.041612 
L 410.418125 380.106202 
L 438.318125 350.078417 
L 466.218125 319.717678 
L 494.118125 302.161436 
L 522.018125 287.444825 
L 549.918125 272.08133 
" style="fill:none;stroke:#4a98c9;stroke-linecap:square;stroke-width:1.5;"/>
   </g>
   <g id="line2d_33">
    <path clip-path="url(#pb017e7fe89)" d="M 159.318125 442.021562 
L 187.218125 440.832437 
L 215.118125 439.71466 
L 243.018125 438.244901 
L 270.918125 436.584883 
L 298.818125 431.652392 
L 326.718125 424.260791 
L 354.618125 411.570449 
L 382.518125 393.229385 
L 410.418125 378.013342 
L 438.318125 349.174682 
L 466.218125 318.809186 
L 494.118125 301.695299 
L 522.018125 285.994093 
L 549.918125 268.342721 
" style="fill:none;stroke:#4a98c9;stroke-linecap:square;stroke-width:1.5;"/>
   </g>
   <g id="line2d_34">
    <path clip-path="url(#pb017e7fe89)" d="M 159.318125 442.021562 
L 187.218125 440.832437 
L 215.118125 439.719416 
L 243.018125 438.340031 
L 270.918125 436.456457 
L 298.818125 431.652392 
L 326.718125 424.184687 
L 354.618125 411.427754 
L 382.518125 395.032099 
L 410.418125 379.335649 
L 438.318125 347.552716 
L 466.218125 319.26581 
L 494.118125 304.672868 
L 522.018125 285.846641 
L 549.918125 271.819723 
" style="fill:none;stroke:#4a98c9;stroke-linecap:square;stroke-width:1.5;"/>
   </g>
   <g id="line2d_35">
    <path clip-path="url(#pb017e7fe89)" d="M 159.318125 442.021562 
L 187.218125 440.832437 
L 215.118125 439.728929 
L 243.018125 438.263927 
L 270.918125 436.508779 
L 298.818125 431.419324 
L 326.718125 424.013453 
L 354.618125 410.661958 
L 382.518125 393.605149 
L 410.418125 376.120255 
L 438.318125 340.536878 
L 466.218125 309.096413 
L 494.118125 293.633032 
L 522.018125 275.819939 
L 549.918125 260.641948 
" style="fill:none;stroke:#4a98c9;stroke-linecap:square;stroke-width:1.5;"/>
   </g>
   <g id="line2d_36">
    <path clip-path="url(#pb017e7fe89)" d="M 159.318125 442.021562 
L 187.218125 440.832437 
L 215.118125 439.71466 
L 243.018125 438.263927 
L 270.918125 436.413649 
L 298.818125 431.24809 
L 326.718125 423.071666 
L 354.618125 408.921079 
L 382.518125 388.782058 
L 410.418125 370.564663 
L 438.318125 335.380832 
L 466.218125 301.861777 
L 494.118125 285.204514 
L 522.018125 271.134787 
L 549.918125 254.848531 
" style="fill:none;stroke:#4a98c9;stroke-linecap:square;stroke-width:1.5;"/>
   </g>
   <g id="line2d_37">
    <path clip-path="url(#pb017e7fe89)" d="M 159.318125 442.021562 
L 187.218125 440.832437 
L 215.118125 439.676608 
L 243.018125 438.206849 
L 270.918125 436.418405 
L 298.818125 431.271872 
L 326.718125 423.685255 
L 354.618125 410.885513 
L 382.518125 391.440941 
L 410.418125 372.196142 
L 438.318125 343.029284 
L 466.218125 312.345103 
L 494.118125 292.871992 
L 522.018125 276.666596 
L 549.918125 262.259158 
" style="fill:none;stroke:#4a98c9;stroke-linecap:square;stroke-width:1.5;"/>
   </g>
   <g id="line2d_38">
    <path clip-path="url(#pb017e7fe89)" d="M 159.318125 442.021562 
L 187.218125 440.832437 
L 215.118125 439.728929 
L 243.018125 438.682499 
L 270.918125 437.207984 
L 298.818125 433.42181 
L 326.718125 429.445376 
L 354.618125 421.692281 
L 382.518125 409.339651 
L 410.418125 397.629148 
L 438.318125 389.300516 
L 466.218125 382.589095 
L 494.118125 375.920482 
L 522.018125 370.188899 
L 549.918125 363.972154 
" style="fill:none;stroke:#d0e1f2;stroke-linecap:square;stroke-width:1.5;"/>
   </g>
   <g id="line2d_39">
    <path clip-path="url(#pb017e7fe89)" d="M 159.318125 442.021562 
L 187.218125 440.832437 
L 215.118125 439.70039 
L 243.018125 438.587369 
L 270.918125 437.155663 
L 298.818125 433.283872 
L 326.718125 429.159986 
L 354.618125 420.978806 
L 382.518125 408.069665 
L 410.418125 398.52337 
L 438.318125 387.578663 
L 466.218125 379.544935 
L 494.118125 374.574392 
L 522.018125 368.486072 
L 549.918125 362.697412 
" style="fill:none;stroke:#d0e1f2;stroke-linecap:square;stroke-width:1.5;"/>
   </g>
   <g id="line2d_40">
    <path clip-path="url(#pb017e7fe89)" d="M 159.318125 442.021562 
L 187.218125 440.832437 
L 215.118125 439.738442 
L 243.018125 438.606395 
L 270.918125 437.160419 
L 298.818125 433.312411 
L 326.718125 429.102908 
L 354.618125 421.43543 
L 382.518125 408.597637 
L 410.418125 398.304571 
L 438.318125 389.29576 
L 466.218125 382.73179 
L 494.118125 377.352188 
L 522.018125 371.615849 
L 549.918125 365.793893 
" style="fill:none;stroke:#d0e1f2;stroke-linecap:square;stroke-width:1.5;"/>
   </g>
   <g id="line2d_41">
    <path clip-path="url(#pb017e7fe89)" d="M 159.318125 442.021562 
L 187.218125 440.832437 
L 215.118125 439.709903 
L 243.018125 438.439918 
L 270.918125 437.127124 
L 298.818125 433.179229 
L 326.718125 428.670067 
L 354.618125 420.95978 
L 382.518125 407.403755 
L 410.418125 396.268789 
L 438.318125 388.168469 
L 466.218125 379.977776 
L 494.118125 374.788435 
L 522.018125 368.419481 
L 549.918125 361.59866 
" style="fill:none;stroke:#d0e1f2;stroke-linecap:square;stroke-width:1.5;"/>
   </g>
   <g id="line2d_42">
    <path clip-path="url(#pb017e7fe89)" d="M 159.318125 442.021562 
L 187.218125 440.832437 
L 215.118125 439.733686 
L 243.018125 438.520778 
L 270.918125 437.184202 
L 298.818125 433.478888 
L 326.718125 429.302681 
L 354.618125 421.877785 
L 382.518125 409.572719 
L 410.418125 398.88962 
L 438.318125 387.94967 
L 466.218125 379.811299 
L 494.118125 375.235546 
L 522.018125 368.547907 
L 549.918125 362.478613 
" style="fill:none;stroke:#d0e1f2;stroke-linecap:square;stroke-width:1.5;"/>
   </g>
   <g id="line2d_43">
    <path clip-path="url(#pb017e7fe89)" d="M 159.318125 442.021562 
L 187.218125 440.832437 
L 215.118125 439.752712 
L 243.018125 438.530291 
L 270.918125 437.179445 
L 298.818125 433.402784 
L 326.718125 428.879353 
L 354.618125 421.473482 
L 382.518125 407.294356 
L 410.418125 396.596987 
L 438.318125 387.982966 
L 466.218125 380.125228 
L 494.118125 373.837135 
L 522.018125 368.205439 
L 549.918125 361.170575 
" style="fill:none;stroke:#d0e1f2;stroke-linecap:square;stroke-width:1.5;"/>
   </g>
   <g id="line2d_44">
    <path clip-path="url(#pb017e7fe89)" d="M 159.318125 442.021562 
L 187.218125 440.832437 
L 215.118125 439.728929 
L 243.018125 438.554074 
L 270.918125 437.188958 
L 298.818125 433.383758 
L 326.718125 429.402568 
L 354.618125 422.120366 
L 382.518125 408.78314 
L 410.418125 398.004911 
L 438.318125 390.228034 
L 466.218125 383.792489 
L 494.118125 377.247545 
L 522.018125 372.219925 
L 549.918125 365.427643 
" style="fill:none;stroke:#d0e1f2;stroke-linecap:square;stroke-width:1.5;"/>
   </g>
   <g id="line2d_45">
    <path clip-path="url(#pb017e7fe89)" d="M 159.318125 442.021562 
L 187.218125 440.832437 
L 215.118125 439.705147 
L 243.018125 438.525535 
L 270.918125 437.155663 
L 298.818125 433.241063 
L 326.718125 429.04583 
L 354.618125 421.392622 
L 382.518125 408.954374 
L 410.418125 398.870594 
L 438.318125 390.061556 
L 466.218125 382.903024 
L 494.118125 377.271328 
L 522.018125 370.792975 
L 549.918125 364.07204 
" style="fill:none;stroke:#d0e1f2;stroke-linecap:square;stroke-width:1.5;"/>
   </g>
   <g id="line2d_46">
    <path clip-path="url(#pb017e7fe89)" d="M 159.318125 442.021562 
L 187.218125 440.832437 
L 215.118125 439.738442 
L 243.018125 438.5731 
L 270.918125 437.212741 
L 298.818125 433.383758 
L 326.718125 429.107665 
L 354.618125 421.597151 
L 382.518125 408.968644 
L 410.418125 397.063124 
L 438.318125 388.092365 
L 466.218125 380.500991 
L 494.118125 373.099877 
L 522.018125 367.073392 
L 549.918125 360.83762 
" style="fill:none;stroke:#d0e1f2;stroke-linecap:square;stroke-width:1.5;"/>
   </g>
   <g id="line2d_47">
    <path clip-path="url(#pb017e7fe89)" d="M 159.318125 442.021562 
L 187.218125 440.832437 
L 215.118125 439.709903 
L 243.018125 438.568343 
L 270.918125 437.203228 
L 298.818125 433.412297 
L 326.718125 429.198038 
L 354.618125 421.682768 
L 382.518125 409.315868 
L 410.418125 397.976372 
L 438.318125 387.626228 
L 466.218125 380.33927 
L 494.118125 373.418563 
L 522.018125 367.715519 
L 549.918125 361.455965 
" style="fill:none;stroke:#d0e1f2;stroke-linecap:square;stroke-width:1.5;"/>
   </g>
   <g id="line2d_48">
    <path clip-path="url(#pb017e7fe89)" d="M 159.318125 442.021562 
L 187.218125 440.832437 
L 215.118125 439.70039 
L 243.018125 438.030859 
L 270.918125 435.33868 
L 298.818125 428.256251 
L 326.718125 415.232954 
L 354.618125 390.889187 
L 382.518125 359.187115 
L 410.418125 319.180193 
L 438.318125 266.064358 
L 466.218125 253.331207 
L 494.118125 247.395095 
L 522.018125 242.533952 
L 549.918125 238.899986 
" style="fill:none;stroke:#1764ab;stroke-linecap:square;stroke-width:1.5;"/>
   </g>
   <g id="line2d_49">
    <path clip-path="url(#pb017e7fe89)" d="M 159.318125 442.021562 
L 187.218125 440.832437 
L 215.118125 439.728929 
L 243.018125 437.997563 
L 270.918125 435.043777 
L 298.818125 427.947079 
L 326.718125 414.69547 
L 354.618125 389.728601 
L 382.518125 362.416778 
L 410.418125 318.932855 
L 438.318125 273.684271 
L 466.218125 256.974686 
L 494.118125 249.692485 
L 522.018125 244.469848 
L 549.918125 240.716969 
" style="fill:none;stroke:#1764ab;stroke-linecap:square;stroke-width:1.5;"/>
   </g>
   <g id="line2d_50">
    <path clip-path="url(#pb017e7fe89)" d="M 159.318125 442.021562 
L 187.218125 440.832437 
L 215.118125 439.695634 
L 243.018125 437.883407 
L 270.918125 434.905838 
L 298.818125 427.480942 
L 326.718125 413.696605 
L 354.618125 387.312299 
L 382.518125 354.811135 
L 410.418125 314.561632 
L 438.318125 258.425419 
L 466.218125 245.3498 
L 494.118125 240.422066 
L 522.018125 234.443146 
L 549.918125 231.123109 
" style="fill:none;stroke:#1764ab;stroke-linecap:square;stroke-width:1.5;"/>
   </g>
   <g id="line2d_51">
    <path clip-path="url(#pb017e7fe89)" d="M 159.318125 442.021562 
L 187.218125 440.832437 
L 215.118125 439.690877 
L 243.018125 437.902433 
L 270.918125 434.929621 
L 298.818125 427.295438 
L 326.718125 413.235224 
L 354.618125 387.103013 
L 382.518125 356.36651 
L 410.418125 311.645897 
L 438.318125 258.035386 
L 466.218125 244.707673 
L 494.118125 238.628866 
L 522.018125 233.739184 
L 549.918125 229.76275 
" style="fill:none;stroke:#1764ab;stroke-linecap:square;stroke-width:1.5;"/>
   </g>
   <g id="line2d_52">
    <path clip-path="url(#pb017e7fe89)" d="M 159.318125 442.021562 
L 187.218125 440.832437 
L 215.118125 439.686121 
L 243.018125 438.021346 
L 270.918125 435.319654 
L 298.818125 428.170634 
L 326.718125 415.294789 
L 354.618125 391.37435 
L 382.518125 361.013611 
L 410.418125 320.89729 
L 438.318125 271.505794 
L 466.218125 257.702431 
L 494.118125 252.256238 
L 522.018125 247.428391 
L 549.918125 244.03225 
" style="fill:none;stroke:#1764ab;stroke-linecap:square;stroke-width:1.5;"/>
   </g>
   <g id="line2d_53">
    <path clip-path="url(#pb017e7fe89)" d="M 159.318125 442.021562 
L 187.218125 440.832437 
L 215.118125 439.719416 
L 243.018125 437.978537 
L 270.918125 435.058046 
L 298.818125 428.032696 
L 326.718125 415.209172 
L 354.618125 391.065178 
L 382.518125 359.277488 
L 410.418125 323.247001 
L 438.318125 275.225377 
L 466.218125 254.315803 
L 494.118125 248.512873 
L 522.018125 244.008467 
L 549.918125 240.379258 
" style="fill:none;stroke:#1764ab;stroke-linecap:square;stroke-width:1.5;"/>
   </g>
   <g id="line2d_54">
    <path clip-path="url(#pb017e7fe89)" d="M 159.318125 442.021562 
L 187.218125 440.832437 
L 215.118125 439.695634 
L 243.018125 437.845355 
L 270.918125 434.610935 
L 298.818125 426.581963 
L 326.718125 411.774979 
L 354.618125 384.073123 
L 382.518125 350.834701 
L 410.418125 302.765512 
L 438.318125 255.752266 
L 466.218125 242.709943 
L 494.118125 237.244724 
L 522.018125 233.196943 
L 549.918125 229.582003 
" style="fill:none;stroke:#1764ab;stroke-linecap:square;stroke-width:1.5;"/>
   </g>
   <g id="line2d_55">
    <path clip-path="url(#pb017e7fe89)" d="M 159.318125 442.021562 
L 187.218125 440.832437 
L 215.118125 439.71466 
L 243.018125 437.978537 
L 270.918125 434.915351 
L 298.818125 427.804384 
L 326.718125 414.243602 
L 354.618125 387.997235 
L 382.518125 356.689952 
L 410.418125 312.264242 
L 438.318125 260.561087 
L 466.218125 246.77675 
L 494.118125 241.311532 
L 522.018125 236.797613 
L 549.918125 234.095921 
" style="fill:none;stroke:#1764ab;stroke-linecap:square;stroke-width:1.5;"/>
   </g>
   <g id="line2d_56">
    <path clip-path="url(#pb017e7fe89)" d="M 159.318125 442.021562 
L 187.218125 440.832437 
L 215.118125 439.70039 
L 243.018125 437.911946 
L 270.918125 434.820221 
L 298.818125 427.228847 
L 326.718125 412.883243 
L 354.618125 386.741519 
L 382.518125 357.275002 
L 410.418125 311.760053 
L 438.318125 262.192567 
L 466.218125 251.304938 
L 494.118125 243.932363 
L 522.018125 239.92739 
L 549.918125 235.55141 
" style="fill:none;stroke:#1764ab;stroke-linecap:square;stroke-width:1.5;"/>
   </g>
   <g id="line2d_57">
    <path clip-path="url(#pb017e7fe89)" d="M 159.318125 442.021562 
L 187.218125 440.832437 
L 215.118125 439.70039 
L 243.018125 437.883407 
L 270.918125 434.668013 
L 298.818125 426.791249 
L 326.718125 412.145986 
L 354.618125 384.577312 
L 382.518125 351.62428 
L 410.418125 304.953502 
L 438.318125 252.303803 
L 466.218125 241.35434 
L 494.118125 234.780857 
L 522.018125 229.672376 
L 549.918125 225.824368 
" style="fill:none;stroke:#1764ab;stroke-linecap:square;stroke-width:1.5;"/>
   </g>
   <g id="line2d_58">
    <path clip-path="url(#pb017e7fe89)" d="M 159.318125 442.021562 
L 187.218125 440.832437 
L 215.118125 439.695634 
L 243.018125 438.496996 
L 270.918125 436.836977 
L 298.818125 432.418189 
L 326.718125 426.639041 
L 354.618125 415.737143 
L 382.518125 398.789734 
L 410.418125 386.598824 
L 438.318125 366.626281 
L 466.218125 341.14571 
L 494.118125 323.908154 
L 522.018125 311.569793 
L 549.918125 292.0729 
" style="fill:none;stroke:#94c4df;stroke-linecap:square;stroke-width:1.5;"/>
   </g>
   <g id="line2d_59">
    <path clip-path="url(#pb017e7fe89)" d="M 159.318125 442.021562 
L 187.218125 440.832437 
L 215.118125 439.733686 
L 243.018125 438.439918 
L 270.918125 436.984429 
L 298.818125 432.817735 
L 326.718125 427.552289 
L 354.618125 418.243819 
L 382.518125 403.788815 
L 410.418125 393.84773 
L 438.318125 375.373484 
L 466.218125 352.723031 
L 494.118125 341.15998 
L 522.018125 325.977232 
L 549.918125 306.694381 
" style="fill:none;stroke:#94c4df;stroke-linecap:square;stroke-width:1.5;"/>
   </g>
   <g id="line2d_60">
    <path clip-path="url(#pb017e7fe89)" d="M 159.318125 442.021562 
L 187.218125 440.832437 
L 215.118125 439.728929 
L 243.018125 438.420892 
L 270.918125 436.832221 
L 298.818125 432.29452 
L 326.718125 426.0968 
L 354.618125 415.713361 
L 382.518125 401.220305 
L 410.418125 388.515694 
L 438.318125 367.472938 
L 466.218125 348.223382 
L 494.118125 334.272568 
L 522.018125 318.428666 
L 549.918125 305.086684 
" style="fill:none;stroke:#94c4df;stroke-linecap:square;stroke-width:1.5;"/>
   </g>
   <g id="line2d_61">
    <path clip-path="url(#pb017e7fe89)" d="M 159.318125 442.021562 
L 187.218125 440.832437 
L 215.118125 439.709903 
L 243.018125 438.354301 
L 270.918125 436.870273 
L 298.818125 432.499049 
L 326.718125 426.634285 
L 354.618125 416.365001 
L 382.518125 400.563908 
L 410.418125 387.022153 
L 438.318125 365.955614 
L 466.218125 342.234949 
L 494.118125 324.669194 
L 522.018125 308.254513 
L 549.918125 288.781402 
" style="fill:none;stroke:#94c4df;stroke-linecap:square;stroke-width:1.5;"/>
   </g>
   <g id="line2d_62">
    <path clip-path="url(#pb017e7fe89)" d="M 159.318125 442.021562 
L 187.218125 440.832437 
L 215.118125 439.705147 
L 243.018125 438.411379 
L 270.918125 436.856003 
L 298.818125 432.613205 
L 326.718125 426.710389 
L 354.618125 417.007129 
L 382.518125 402.699577 
L 410.418125 390.42305 
L 438.318125 370.831027 
L 466.218125 353.550662 
L 494.118125 338.910155 
L 522.018125 324.179275 
L 549.918125 309.177274 
" style="fill:none;stroke:#94c4df;stroke-linecap:square;stroke-width:1.5;"/>
   </g>
   <g id="line2d_63">
    <path clip-path="url(#pb017e7fe89)" d="M 159.318125 442.021562 
L 187.218125 440.832437 
L 215.118125 439.743199 
L 243.018125 438.444674 
L 270.918125 436.808438 
L 298.818125 432.560884 
L 326.718125 426.57245 
L 354.618125 415.875082 
L 382.518125 400.321327 
L 410.418125 387.48829 
L 438.318125 367.98664 
L 466.218125 347.072309 
L 494.118125 332.355698 
L 522.018125 317.058794 
L 549.918125 298.598818 
" style="fill:none;stroke:#94c4df;stroke-linecap:square;stroke-width:1.5;"/>
   </g>
   <g id="line2d_64">
    <path clip-path="url(#pb017e7fe89)" d="M 159.318125 442.021562 
L 187.218125 440.832437 
L 215.118125 439.719416 
L 243.018125 438.435161 
L 270.918125 436.865516 
L 298.818125 432.384893 
L 326.718125 426.524885 
L 354.618125 416.560018 
L 382.518125 401.063341 
L 410.418125 387.711845 
L 438.318125 368.167387 
L 466.218125 347.229274 
L 494.118125 331.009609 
L 522.018125 314.804213 
L 549.918125 296.239594 
" style="fill:none;stroke:#94c4df;stroke-linecap:square;stroke-width:1.5;"/>
   </g>
   <g id="line2d_65">
    <path clip-path="url(#pb017e7fe89)" d="M 159.318125 442.021562 
L 187.218125 440.832437 
L 215.118125 439.71466 
L 243.018125 438.420892 
L 270.918125 436.84649 
L 298.818125 432.365867 
L 326.718125 426.329869 
L 354.618125 416.455375 
L 382.518125 402.114527 
L 410.418125 389.29576 
L 438.318125 371.534989 
L 466.218125 351.933452 
L 494.118125 336.194194 
L 522.018125 321.577469 
L 549.918125 304.592008 
" style="fill:none;stroke:#94c4df;stroke-linecap:square;stroke-width:1.5;"/>
   </g>
   <g id="line2d_66">
    <path clip-path="url(#pb017e7fe89)" d="M 159.318125 442.021562 
L 187.218125 440.832437 
L 215.118125 439.71466 
L 243.018125 438.397109 
L 270.918125 436.870273 
L 298.818125 432.589423 
L 326.718125 427.081396 
L 354.618125 417.325814 
L 382.518125 401.629364 
L 410.418125 387.331325 
L 438.318125 370.574176 
L 466.218125 346.411156 
L 494.118125 327.565903 
L 522.018125 313.662653 
L 549.918125 296.044577 
" style="fill:none;stroke:#94c4df;stroke-linecap:square;stroke-width:1.5;"/>
   </g>
   <g id="line2d_67">
    <path clip-path="url(#pb017e7fe89)" d="M 159.318125 442.021562 
L 187.218125 440.832437 
L 215.118125 439.705147 
L 243.018125 438.325762 
L 270.918125 436.718065 
L 298.818125 431.980591 
L 326.718125 425.269169 
L 354.618125 413.287546 
L 382.518125 394.975021 
L 410.418125 379.663847 
L 438.318125 355.367645 
L 466.218125 328.854914 
L 494.118125 312.806483 
L 522.018125 296.819887 
L 549.918125 279.591844 
" style="fill:none;stroke:#94c4df;stroke-linecap:square;stroke-width:1.5;"/>
   </g>
   <g id="line2d_68">
    <path clip-path="url(#pb017e7fe89)" d="M 159.318125 442.021562 
L 187.218125 442.021562 
L 215.118125 442.021562 
L 243.018125 442.021562 
L 270.918125 442.021562 
L 298.818125 442.021562 
L 326.718125 442.021562 
L 354.618125 442.021562 
L 382.518125 442.021562 
L 410.418125 442.021562 
L 438.318125 442.021562 
L 466.218125 442.021562 
L 494.118125 442.021562 
L 522.018125 442.021562 
L 549.918125 442.021562 
" style="fill:none;stroke:#000000;stroke-linecap:square;stroke-width:1.5;"/>
   </g>
   <g id="line2d_69">
    <path clip-path="url(#pb017e7fe89)" d="M 159.318125 442.021562 
L 187.218125 442.021562 
L 215.118125 442.021562 
L 243.018125 442.021562 
L 270.918125 442.021562 
L 298.818125 442.021562 
L 326.718125 442.021562 
L 354.618125 442.021562 
L 382.518125 442.021562 
L 410.418125 442.021562 
L 438.318125 442.021562 
L 466.218125 442.021562 
L 494.118125 442.021562 
L 522.018125 442.021562 
L 549.918125 442.021562 
" style="fill:none;stroke:#000000;stroke-linecap:square;stroke-width:1.5;"/>
   </g>
   <g id="line2d_70">
    <path clip-path="url(#pb017e7fe89)" d="M 159.318125 442.021562 
L 187.218125 442.021562 
L 215.118125 442.021562 
L 243.018125 442.021562 
L 270.918125 442.021562 
L 298.818125 442.021562 
L 326.718125 442.021562 
L 354.618125 442.021562 
L 382.518125 442.021562 
L 410.418125 442.021562 
L 438.318125 442.021562 
L 466.218125 442.021562 
L 494.118125 442.021562 
L 522.018125 442.021562 
L 549.918125 442.021562 
" style="fill:none;stroke:#000000;stroke-linecap:square;stroke-width:1.5;"/>
   </g>
   <g id="line2d_71">
    <path clip-path="url(#pb017e7fe89)" d="M 159.318125 442.021562 
L 187.218125 442.021562 
L 215.118125 442.021562 
L 243.018125 442.021562 
L 270.918125 442.021562 
L 298.818125 442.021562 
L 326.718125 442.021562 
L 354.618125 442.021562 
L 382.518125 442.021562 
L 410.418125 442.021562 
L 438.318125 442.021562 
L 466.218125 442.021562 
L 494.118125 442.021562 
L 522.018125 442.021562 
L 549.918125 442.021562 
" style="fill:none;stroke:#000000;stroke-linecap:square;stroke-width:1.5;"/>
   </g>
   <g id="line2d_72">
    <path clip-path="url(#pb017e7fe89)" d="M 159.318125 442.021562 
L 187.218125 442.021562 
L 215.118125 442.021562 
L 243.018125 442.021562 
L 270.918125 442.021562 
L 298.818125 442.021562 
L 326.718125 442.021562 
L 354.618125 442.021562 
L 382.518125 442.021562 
L 410.418125 442.021562 
L 438.318125 442.021562 
L 466.218125 442.021562 
L 494.118125 442.021562 
L 522.018125 442.021562 
L 549.918125 442.021562 
" style="fill:none;stroke:#000000;stroke-linecap:square;stroke-width:1.5;"/>
   </g>
   <g id="line2d_73">
    <path clip-path="url(#pb017e7fe89)" d="M 159.318125 442.021562 
L 187.218125 442.021562 
L 215.118125 442.021562 
L 243.018125 442.021562 
L 270.918125 442.021562 
L 298.818125 442.021562 
L 326.718125 442.021562 
L 354.618125 442.021562 
L 382.518125 442.021562 
L 410.418125 442.021562 
L 438.318125 442.021562 
L 466.218125 442.021562 
L 494.118125 442.021562 
L 522.018125 442.021562 
L 549.918125 442.021562 
" style="fill:none;stroke:#000000;stroke-linecap:square;stroke-width:1.5;"/>
   </g>
   <g id="line2d_74">
    <path clip-path="url(#pb017e7fe89)" d="M 159.318125 442.021562 
L 187.218125 442.021562 
L 215.118125 442.021562 
L 243.018125 442.021562 
L 270.918125 442.021562 
L 298.818125 442.021562 
L 326.718125 442.021562 
L 354.618125 442.021562 
L 382.518125 442.021562 
L 410.418125 442.021562 
L 438.318125 442.021562 
L 466.218125 442.021562 
L 494.118125 442.021562 
L 522.018125 442.021562 
L 549.918125 442.021562 
" style="fill:none;stroke:#000000;stroke-linecap:square;stroke-width:1.5;"/>
   </g>
   <g id="line2d_75">
    <path clip-path="url(#pb017e7fe89)" d="M 159.318125 442.021562 
L 187.218125 442.021562 
L 215.118125 442.021562 
L 243.018125 442.021562 
L 270.918125 442.021562 
L 298.818125 442.021562 
L 326.718125 442.021562 
L 354.618125 442.021562 
L 382.518125 442.021562 
L 410.418125 442.021562 
L 438.318125 442.021562 
L 466.218125 442.021562 
L 494.118125 442.021562 
L 522.018125 442.021562 
L 549.918125 442.021562 
" style="fill:none;stroke:#000000;stroke-linecap:square;stroke-width:1.5;"/>
   </g>
   <g id="line2d_76">
    <path clip-path="url(#pb017e7fe89)" d="M 159.318125 442.021562 
L 187.218125 442.021562 
L 215.118125 442.021562 
L 243.018125 442.021562 
L 270.918125 442.021562 
L 298.818125 442.021562 
L 326.718125 442.021562 
L 354.618125 442.021562 
L 382.518125 442.021562 
L 410.418125 442.021562 
L 438.318125 442.021562 
L 466.218125 442.021562 
L 494.118125 442.021562 
L 522.018125 442.021562 
L 549.918125 442.021562 
" style="fill:none;stroke:#000000;stroke-linecap:square;stroke-width:1.5;"/>
   </g>
   <g id="line2d_77">
    <path clip-path="url(#pb017e7fe89)" d="M 159.318125 442.021562 
L 187.218125 442.021562 
L 215.118125 442.021562 
L 243.018125 442.021562 
L 270.918125 442.021562 
L 298.818125 442.021562 
L 326.718125 442.021562 
L 354.618125 442.021562 
L 382.518125 442.021562 
L 410.418125 442.021562 
L 438.318125 442.021562 
L 466.218125 442.021562 
L 494.118125 442.021562 
L 522.018125 442.021562 
L 549.918125 442.021562 
" style="fill:none;stroke:#000000;stroke-linecap:square;stroke-width:1.5;"/>
   </g>
   <g id="line2d_78">
    <path clip-path="url(#pb017e7fe89)" d="M 159.318125 442.021562 
" style="fill:none;stroke:#000000;stroke-linecap:square;stroke-width:1.5;"/>
   </g>
   <g id="line2d_79">
    <path clip-path="url(#pb017e7fe89)" d="M 159.318125 442.021562 
" style="fill:none;stroke:#d0e1f2;stroke-linecap:square;stroke-width:1.5;"/>
   </g>
   <g id="line2d_80">
    <path clip-path="url(#pb017e7fe89)" d="M 159.318125 442.021562 
" style="fill:none;stroke:#94c4df;stroke-linecap:square;stroke-width:1.5;"/>
   </g>
   <g id="line2d_81">
    <path clip-path="url(#pb017e7fe89)" d="M 159.318125 442.021562 
" style="fill:none;stroke:#4a98c9;stroke-linecap:square;stroke-width:1.5;"/>
   </g>
   <g id="line2d_82">
    <path clip-path="url(#pb017e7fe89)" d="M 159.318125 442.021562 
" style="fill:none;stroke:#1764ab;stroke-linecap:square;stroke-width:1.5;"/>
   </g>
   <g id="line2d_83">
    <path clip-path="url(#pb017e7fe89)" d="M 159.318125 442.021562 
" style="fill:none;stroke:#08306b;stroke-linecap:square;stroke-width:1.5;"/>
   </g>
   <g id="line2d_84">
    <path clip-path="url(#pb017e7fe89)" d="M 159.318125 442.021562 
" style="fill:none;stroke:#000000;stroke-linecap:square;stroke-width:1.5;"/>
   </g>
   <g id="line2d_85">
    <path clip-path="url(#pb017e7fe89)" d="M 159.318125 442.021562 
" style="fill:none;stroke:#000000;stroke-dasharray:1.5,2.475;stroke-dashoffset:0;stroke-width:1.5;"/>
   </g>
   <g id="line2d_86">
    <path clip-path="url(#pb017e7fe89)" d="M 159.318125 442.021562 
" style="fill:none;stroke:#000000;stroke-linecap:square;stroke-width:1.5;"/>
   </g>
   <g id="line2d_87">
    <path clip-path="url(#pb017e7fe89)" d="M 159.318125 442.021562 
" style="fill:none;stroke:#000000;stroke-dasharray:5.55,2.4;stroke-dashoffset:0;stroke-width:1.5;"/>
   </g>
   <g id="line2d_88">
    <path clip-path="url(#pb017e7fe89)" d="M 159.318125 442.021562 
" style="fill:none;stroke:#000000;stroke-dasharray:9.6,2.4,1.5,2.4;stroke-dashoffset:0;stroke-width:1.5;"/>
   </g>
   <g id="line2d_89">
    <path clip-path="url(#pb017e7fe89)" d="M 159.318125 442.021562 
" style="fill:none;stroke:#000000;stroke-dasharray:9.6,2.4,1.5,2.4;stroke-dashoffset:0;stroke-width:1.5;"/>
   </g>
   <g id="patch_3">
    <path d="M 159.318125 442.021562 
L 159.318125 61.501562 
" style="fill:none;stroke:#000000;stroke-linecap:square;stroke-linejoin:miter;stroke-width:0.8;"/>
   </g>
   <g id="patch_4">
    <path d="M 549.918125 442.021562 
L 549.918125 61.501562 
" style="fill:none;stroke:#000000;stroke-linecap:square;stroke-linejoin:miter;stroke-width:0.8;"/>
   </g>
   <g id="patch_5">
    <path d="M 159.318125 442.021562 
L 549.918125 442.021562 
" style="fill:none;stroke:#000000;stroke-linecap:square;stroke-linejoin:miter;stroke-width:0.8;"/>
   </g>
   <g id="patch_6">
    <path d="M 159.318125 61.501562 
L 549.918125 61.501562 
" style="fill:none;stroke:#000000;stroke-linecap:square;stroke-linejoin:miter;stroke-width:0.8;"/>
   </g>
   <g id="text_20">
    <!-- CD8 LIVE COUNT -->
    <g transform="translate(250.444297 25.094531)scale(0.25 -0.25)">
     <use xlink:href="#Arial-BoldMT-67"/>
     <use x="72.216797" xlink:href="#Arial-BoldMT-68"/>
     <use x="144.433594" xlink:href="#Arial-BoldMT-56"/>
     <use x="200.048828" xlink:href="#Arial-BoldMT-32"/>
     <use x="227.832031" xlink:href="#Arial-BoldMT-76"/>
     <use x="288.916016" xlink:href="#Arial-BoldMT-73"/>
     <use x="316.699219" xlink:href="#Arial-BoldMT-86"/>
     <use x="383.398438" xlink:href="#Arial-BoldMT-69"/>
     <use x="450.097656" xlink:href="#Arial-BoldMT-32"/>
     <use x="477.880859" xlink:href="#Arial-BoldMT-67"/>
     <use x="550.097656" xlink:href="#Arial-BoldMT-79"/>
     <use x="627.880859" xlink:href="#Arial-BoldMT-85"/>
     <use x="700.097656" xlink:href="#Arial-BoldMT-78"/>
     <use x="772.314453" xlink:href="#Arial-BoldMT-84"/>
    </g>
    <!-- OVER TIME -->
    <g transform="translate(285.862266 51.501562)scale(0.25 -0.25)">
     <use xlink:href="#Arial-BoldMT-79"/>
     <use x="77.783203" xlink:href="#Arial-BoldMT-86"/>
     <use x="144.482422" xlink:href="#Arial-BoldMT-69"/>
     <use x="211.181641" xlink:href="#Arial-BoldMT-82"/>
     <use x="283.398438" xlink:href="#Arial-BoldMT-32"/>
     <use x="311.181641" xlink:href="#Arial-BoldMT-84"/>
     <use x="372.265625" xlink:href="#Arial-BoldMT-73"/>
     <use x="400.048828" xlink:href="#Arial-BoldMT-77"/>
     <use x="483.349609" xlink:href="#Arial-BoldMT-69"/>
    </g>
   </g>
   <g id="legend_1">
    <g id="line2d_90">
     <path d="M 558.918125 74.6 
L 578.918125 74.6 
" style="fill:none;stroke:#000000;stroke-linecap:square;stroke-width:1.5;"/>
    </g>
    <g id="line2d_91"/>
    <g id="text_21">
     <!-- 0 -->
     <g transform="translate(586.918125 78.1)scale(0.1 -0.1)">
      <use xlink:href="#DejaVuSans-48"/>
     </g>
    </g>
    <g id="line2d_92">
     <path d="M 558.918125 89.278125 
L 578.918125 89.278125 
" style="fill:none;stroke:#d0e1f2;stroke-linecap:square;stroke-width:1.5;"/>
    </g>
    <g id="line2d_93"/>
    <g id="text_22">
     <!-- 100 -->
     <g transform="translate(586.918125 92.778125)scale(0.1 -0.1)">
      <use xlink:href="#DejaVuSans-49"/>
      <use x="63.623047" xlink:href="#DejaVuSans-48"/>
      <use x="127.246094" xlink:href="#DejaVuSans-48"/>
     </g>
    </g>
    <g id="line2d_94">
     <path d="M 558.918125 103.95625 
L 578.918125 103.95625 
" style="fill:none;stroke:#94c4df;stroke-linecap:square;stroke-width:1.5;"/>
    </g>
    <g id="line2d_95"/>
    <g id="text_23">
     <!-- 500 -->
     <g transform="translate(586.918125 107.45625)scale(0.1 -0.1)">
      <use xlink:href="#DejaVuSans-53"/>
      <use x="63.623047" xlink:href="#DejaVuSans-48"/>
      <use x="127.246094" xlink:href="#DejaVuSans-48"/>
     </g>
    </g>
    <g id="line2d_96">
     <path d="M 558.918125 118.634375 
L 578.918125 118.634375 
" style="fill:none;stroke:#4a98c9;stroke-linecap:square;stroke-width:1.5;"/>
    </g>
    <g id="line2d_97"/>
    <g id="text_24">
     <!-- 1000 -->
     <g transform="translate(586.918125 122.134375)scale(0.1 -0.1)">
      <use xlink:href="#DejaVuSans-49"/>
      <use x="63.623047" xlink:href="#DejaVuSans-48"/>
      <use x="127.246094" xlink:href="#DejaVuSans-48"/>
      <use x="190.869141" xlink:href="#DejaVuSans-48"/>
     </g>
    </g>
    <g id="line2d_98">
     <path d="M 558.918125 133.3125 
L 578.918125 133.3125 
" style="fill:none;stroke:#1764ab;stroke-linecap:square;stroke-width:1.5;"/>
    </g>
    <g id="line2d_99"/>
    <g id="text_25">
     <!-- 5000 -->
     <g transform="translate(586.918125 136.8125)scale(0.1 -0.1)">
      <use xlink:href="#DejaVuSans-53"/>
      <use x="63.623047" xlink:href="#DejaVuSans-48"/>
      <use x="127.246094" xlink:href="#DejaVuSans-48"/>
      <use x="190.869141" xlink:href="#DejaVuSans-48"/>
     </g>
    </g>
    <g id="line2d_100">
     <path d="M 558.918125 147.990625 
L 578.918125 147.990625 
" style="fill:none;stroke:#08306b;stroke-linecap:square;stroke-width:1.5;"/>
    </g>
    <g id="line2d_101"/>
    <g id="text_26">
     <!-- 10000 -->
     <g transform="translate(586.918125 151.490625)scale(0.1 -0.1)">
      <use xlink:href="#DejaVuSans-49"/>
      <use x="63.623047" xlink:href="#DejaVuSans-48"/>
      <use x="127.246094" xlink:href="#DejaVuSans-48"/>
      <use x="190.869141" xlink:href="#DejaVuSans-48"/>
      <use x="254.492188" xlink:href="#DejaVuSans-48"/>
     </g>
    </g>
    <g id="line2d_102">
     <path d="M 558.918125 162.66875 
L 578.918125 162.66875 
" style="fill:none;stroke:#000000;stroke-linecap:square;stroke-width:1.5;"/>
    </g>
    <g id="line2d_103"/>
    <g id="text_27">
     <!-- 0 -->
     <g transform="translate(586.918125 166.16875)scale(0.1 -0.1)">
      <use xlink:href="#DejaVuSans-48"/>
     </g>
    </g>
    <g id="line2d_104">
     <path d="M 558.918125 177.346875 
L 578.918125 177.346875 
" style="fill:none;stroke:#000000;stroke-dasharray:1.5,2.475;stroke-dashoffset:0;stroke-width:1.5;"/>
    </g>
    <g id="line2d_105"/>
    <g id="text_28">
     <!-- 250 -->
     <g transform="translate(586.918125 180.846875)scale(0.1 -0.1)">
      <use xlink:href="#DejaVuSans-50"/>
      <use x="63.623047" xlink:href="#DejaVuSans-53"/>
      <use x="127.246094" xlink:href="#DejaVuSans-48"/>
     </g>
    </g>
    <g id="line2d_106">
     <path d="M 558.918125 192.025 
L 578.918125 192.025 
" style="fill:none;stroke:#000000;stroke-linecap:square;stroke-width:1.5;"/>
    </g>
    <g id="line2d_107"/>
    <g id="text_29">
     <!-- 500 -->
     <g transform="translate(586.918125 195.525)scale(0.1 -0.1)">
      <use xlink:href="#DejaVuSans-53"/>
      <use x="63.623047" xlink:href="#DejaVuSans-48"/>
      <use x="127.246094" xlink:href="#DejaVuSans-48"/>
     </g>
    </g>
    <g id="line2d_108">
     <path d="M 558.918125 206.703125 
L 578.918125 206.703125 
" style="fill:none;stroke:#000000;stroke-dasharray:5.55,2.4;stroke-dashoffset:0;stroke-width:1.5;"/>
    </g>
    <g id="line2d_109"/>
    <g id="text_30">
     <!-- 1000 -->
     <g transform="translate(586.918125 210.203125)scale(0.1 -0.1)">
      <use xlink:href="#DejaVuSans-49"/>
      <use x="63.623047" xlink:href="#DejaVuSans-48"/>
      <use x="127.246094" xlink:href="#DejaVuSans-48"/>
      <use x="190.869141" xlink:href="#DejaVuSans-48"/>
     </g>
    </g>
    <g id="line2d_110">
     <path d="M 558.918125 221.38125 
L 578.918125 221.38125 
" style="fill:none;stroke:#000000;stroke-dasharray:9.6,2.4,1.5,2.4;stroke-dashoffset:0;stroke-width:1.5;"/>
    </g>
    <g id="line2d_111"/>
    <g id="text_31">
     <!-- 5000 -->
     <g transform="translate(586.918125 224.88125)scale(0.1 -0.1)">
      <use xlink:href="#DejaVuSans-53"/>
      <use x="63.623047" xlink:href="#DejaVuSans-48"/>
      <use x="127.246094" xlink:href="#DejaVuSans-48"/>
      <use x="190.869141" xlink:href="#DejaVuSans-48"/>
     </g>
    </g>
    <g id="line2d_112">
     <path d="M 558.918125 236.059375 
L 578.918125 236.059375 
" style="fill:none;stroke:#000000;stroke-dasharray:9.6,2.4,1.5,2.4;stroke-dashoffset:0;stroke-width:1.5;"/>
    </g>
    <g id="line2d_113"/>
    <g id="text_32">
     <!-- 10000 -->
     <g transform="translate(586.918125 239.559375)scale(0.1 -0.1)">
      <use xlink:href="#DejaVuSans-49"/>
      <use x="63.623047" xlink:href="#DejaVuSans-48"/>
      <use x="127.246094" xlink:href="#DejaVuSans-48"/>
      <use x="190.869141" xlink:href="#DejaVuSans-48"/>
      <use x="254.492188" xlink:href="#DejaVuSans-48"/>
     </g>
    </g>
   </g>
  </g>
 </g>
 <defs>
  <clipPath id="pb017e7fe89">
   <rect height="380.52" width="390.6" x="159.318125" y="61.501562"/>
  </clipPath>
 </defs>
</svg>
