<?xml version="1.0" encoding="utf-8" standalone="no"?>
<!DOCTYPE svg PUBLIC "-//W3C//DTD SVG 1.1//EN"
  "http://www.w3.org/Graphics/SVG/1.1/DTD/svg11.dtd">
<!-- Created with matplotlib (https://matplotlib.org/) -->
<svg height="514.024687pt" version="1.1" viewBox="0 0 581.91 514.024687" width="581.91pt" xmlns="http://www.w3.org/2000/svg" xmlns:xlink="http://www.w3.org/1999/xlink">
 <defs>
  <style type="text/css">
*{stroke-linecap:butt;stroke-linejoin:round;}
  </style>
 </defs>
 <g id="figure_1">
  <g id="patch_1">
   <path d="M 0 514.024687 
L 581.91 514.024687 
L 581.91 0 
L 0 0 
z
" style="fill:#ffffff;"/>
  </g>
  <g id="axes_1">
   <g id="patch_2">
    <path d="M 111.2975 442.021562 
L 501.8975 442.021562 
L 501.8975 61.501562 
L 111.2975 61.501562 
z
" style="fill:#ffffff;"/>
   </g>
   <g id="matplotlib.axis_1">
    <g id="xtick_1">
     <g id="line2d_1">
      <defs>
       <path d="M 0 0 
L 0 3.5 
" id="m73f2a3b306" style="stroke:#000000;stroke-width:0.8;"/>
      </defs>
      <g>
       <use style="stroke:#000000;stroke-width:0.8;" x="111.2975" xlink:href="#m73f2a3b306" y="442.021562"/>
      </g>
     </g>
     <g id="text_1">
      <!-- 0 -->
      <defs>
       <path d="M 31.78125 66.40625 
Q 24.171875 66.40625 20.328125 58.90625 
Q 16.5 51.421875 16.5 36.375 
Q 16.5 21.390625 20.328125 13.890625 
Q 24.171875 6.390625 31.78125 6.390625 
Q 39.453125 6.390625 43.28125 13.890625 
Q 47.125 21.390625 47.125 36.375 
Q 47.125 51.421875 43.28125 58.90625 
Q 39.453125 66.40625 31.78125 66.40625 
z
M 31.78125 74.21875 
Q 44.046875 74.21875 50.515625 64.515625 
Q 56.984375 54.828125 56.984375 36.375 
Q 56.984375 17.96875 50.515625 8.265625 
Q 44.046875 -1.421875 31.78125 -1.421875 
Q 19.53125 -1.421875 13.0625 8.265625 
Q 6.59375 17.96875 6.59375 36.375 
Q 6.59375 54.828125 13.0625 64.515625 
Q 19.53125 74.21875 31.78125 74.21875 
z
" id="DejaVuSans-48"/>
      </defs>
      <g transform="translate(101.75375 471.816875)scale(0.3 -0.3)">
       <use xlink:href="#DejaVuSans-48"/>
      </g>
     </g>
    </g>
    <g id="xtick_2">
     <g id="line2d_2">
      <g>
       <use style="stroke:#000000;stroke-width:0.8;" x="167.0975" xlink:href="#m73f2a3b306" y="442.021562"/>
      </g>
     </g>
     <g id="text_2">
      <!-- 1 -->
      <defs>
       <path d="M 12.40625 8.296875 
L 28.515625 8.296875 
L 28.515625 63.921875 
L 10.984375 60.40625 
L 10.984375 69.390625 
L 28.421875 72.90625 
L 38.28125 72.90625 
L 38.28125 8.296875 
L 54.390625 8.296875 
L 54.390625 0 
L 12.40625 0 
z
" id="DejaVuSans-49"/>
      </defs>
      <g transform="translate(157.55375 471.816875)scale(0.3 -0.3)">
       <use xlink:href="#DejaVuSans-49"/>
      </g>
     </g>
    </g>
    <g id="xtick_3">
     <g id="line2d_3">
      <g>
       <use style="stroke:#000000;stroke-width:0.8;" x="222.8975" xlink:href="#m73f2a3b306" y="442.021562"/>
      </g>
     </g>
     <g id="text_3">
      <!-- 2 -->
      <defs>
       <path d="M 19.1875 8.296875 
L 53.609375 8.296875 
L 53.609375 0 
L 7.328125 0 
L 7.328125 8.296875 
Q 12.9375 14.109375 22.625 23.890625 
Q 32.328125 33.6875 34.8125 36.53125 
Q 39.546875 41.84375 41.421875 45.53125 
Q 43.3125 49.21875 43.3125 52.78125 
Q 43.3125 58.59375 39.234375 62.25 
Q 35.15625 65.921875 28.609375 65.921875 
Q 23.96875 65.921875 18.8125 64.3125 
Q 13.671875 62.703125 7.8125 59.421875 
L 7.8125 69.390625 
Q 13.765625 71.78125 18.9375 73 
Q 24.125 74.21875 28.421875 74.21875 
Q 39.75 74.21875 46.484375 68.546875 
Q 53.21875 62.890625 53.21875 53.421875 
Q 53.21875 48.921875 51.53125 44.890625 
Q 49.859375 40.875 45.40625 35.40625 
Q 44.1875 33.984375 37.640625 27.21875 
Q 31.109375 20.453125 19.1875 8.296875 
z
" id="DejaVuSans-50"/>
      </defs>
      <g transform="translate(213.35375 471.816875)scale(0.3 -0.3)">
       <use xlink:href="#DejaVuSans-50"/>
      </g>
     </g>
    </g>
    <g id="xtick_4">
     <g id="line2d_4">
      <g>
       <use style="stroke:#000000;stroke-width:0.8;" x="278.6975" xlink:href="#m73f2a3b306" y="442.021562"/>
      </g>
     </g>
     <g id="text_4">
      <!-- 3 -->
      <defs>
       <path d="M 40.578125 39.3125 
Q 47.65625 37.796875 51.625 33 
Q 55.609375 28.21875 55.609375 21.1875 
Q 55.609375 10.40625 48.1875 4.484375 
Q 40.765625 -1.421875 27.09375 -1.421875 
Q 22.515625 -1.421875 17.65625 -0.515625 
Q 12.796875 0.390625 7.625 2.203125 
L 7.625 11.71875 
Q 11.71875 9.328125 16.59375 8.109375 
Q 21.484375 6.890625 26.8125 6.890625 
Q 36.078125 6.890625 40.9375 10.546875 
Q 45.796875 14.203125 45.796875 21.1875 
Q 45.796875 27.640625 41.28125 31.265625 
Q 36.765625 34.90625 28.71875 34.90625 
L 20.21875 34.90625 
L 20.21875 43.015625 
L 29.109375 43.015625 
Q 36.375 43.015625 40.234375 45.921875 
Q 44.09375 48.828125 44.09375 54.296875 
Q 44.09375 59.90625 40.109375 62.90625 
Q 36.140625 65.921875 28.71875 65.921875 
Q 24.65625 65.921875 20.015625 65.03125 
Q 15.375 64.15625 9.8125 62.3125 
L 9.8125 71.09375 
Q 15.4375 72.65625 20.34375 73.4375 
Q 25.25 74.21875 29.59375 74.21875 
Q 40.828125 74.21875 47.359375 69.109375 
Q 53.90625 64.015625 53.90625 55.328125 
Q 53.90625 49.265625 50.4375 45.09375 
Q 46.96875 40.921875 40.578125 39.3125 
z
" id="DejaVuSans-51"/>
      </defs>
      <g transform="translate(269.15375 471.816875)scale(0.3 -0.3)">
       <use xlink:href="#DejaVuSans-51"/>
      </g>
     </g>
    </g>
    <g id="xtick_5">
     <g id="line2d_5">
      <g>
       <use style="stroke:#000000;stroke-width:0.8;" x="334.4975" xlink:href="#m73f2a3b306" y="442.021562"/>
      </g>
     </g>
     <g id="text_5">
      <!-- 4 -->
      <defs>
       <path d="M 37.796875 64.3125 
L 12.890625 25.390625 
L 37.796875 25.390625 
z
M 35.203125 72.90625 
L 47.609375 72.90625 
L 47.609375 25.390625 
L 58.015625 25.390625 
L 58.015625 17.1875 
L 47.609375 17.1875 
L 47.609375 0 
L 37.796875 0 
L 37.796875 17.1875 
L 4.890625 17.1875 
L 4.890625 26.703125 
z
" id="DejaVuSans-52"/>
      </defs>
      <g transform="translate(324.95375 471.816875)scale(0.3 -0.3)">
       <use xlink:href="#DejaVuSans-52"/>
      </g>
     </g>
    </g>
    <g id="xtick_6">
     <g id="line2d_6">
      <g>
       <use style="stroke:#000000;stroke-width:0.8;" x="390.2975" xlink:href="#m73f2a3b306" y="442.021562"/>
      </g>
     </g>
     <g id="text_6">
      <!-- 5 -->
      <defs>
       <path d="M 10.796875 72.90625 
L 49.515625 72.90625 
L 49.515625 64.59375 
L 19.828125 64.59375 
L 19.828125 46.734375 
Q 21.96875 47.46875 24.109375 47.828125 
Q 26.265625 48.1875 28.421875 48.1875 
Q 40.625 48.1875 47.75 41.5 
Q 54.890625 34.8125 54.890625 23.390625 
Q 54.890625 11.625 47.5625 5.09375 
Q 40.234375 -1.421875 26.90625 -1.421875 
Q 22.3125 -1.421875 17.546875 -0.640625 
Q 12.796875 0.140625 7.71875 1.703125 
L 7.71875 11.625 
Q 12.109375 9.234375 16.796875 8.0625 
Q 21.484375 6.890625 26.703125 6.890625 
Q 35.15625 6.890625 40.078125 11.328125 
Q 45.015625 15.765625 45.015625 23.390625 
Q 45.015625 31 40.078125 35.4375 
Q 35.15625 39.890625 26.703125 39.890625 
Q 22.75 39.890625 18.8125 39.015625 
Q 14.890625 38.140625 10.796875 36.28125 
z
" id="DejaVuSans-53"/>
      </defs>
      <g transform="translate(380.75375 471.816875)scale(0.3 -0.3)">
       <use xlink:href="#DejaVuSans-53"/>
      </g>
     </g>
    </g>
    <g id="xtick_7">
     <g id="line2d_7">
      <g>
       <use style="stroke:#000000;stroke-width:0.8;" x="446.0975" xlink:href="#m73f2a3b306" y="442.021562"/>
      </g>
     </g>
     <g id="text_7">
      <!-- 6 -->
      <defs>
       <path d="M 33.015625 40.375 
Q 26.375 40.375 22.484375 35.828125 
Q 18.609375 31.296875 18.609375 23.390625 
Q 18.609375 15.53125 22.484375 10.953125 
Q 26.375 6.390625 33.015625 6.390625 
Q 39.65625 6.390625 43.53125 10.953125 
Q 47.40625 15.53125 47.40625 23.390625 
Q 47.40625 31.296875 43.53125 35.828125 
Q 39.65625 40.375 33.015625 40.375 
z
M 52.59375 71.296875 
L 52.59375 62.3125 
Q 48.875 64.0625 45.09375 64.984375 
Q 41.3125 65.921875 37.59375 65.921875 
Q 27.828125 65.921875 22.671875 59.328125 
Q 17.53125 52.734375 16.796875 39.40625 
Q 19.671875 43.65625 24.015625 45.921875 
Q 28.375 48.1875 33.59375 48.1875 
Q 44.578125 48.1875 50.953125 41.515625 
Q 57.328125 34.859375 57.328125 23.390625 
Q 57.328125 12.15625 50.6875 5.359375 
Q 44.046875 -1.421875 33.015625 -1.421875 
Q 20.359375 -1.421875 13.671875 8.265625 
Q 6.984375 17.96875 6.984375 36.375 
Q 6.984375 53.65625 15.1875 63.9375 
Q 23.390625 74.21875 37.203125 74.21875 
Q 40.921875 74.21875 44.703125 73.484375 
Q 48.484375 72.75 52.59375 71.296875 
z
" id="DejaVuSans-54"/>
      </defs>
      <g transform="translate(436.55375 471.816875)scale(0.3 -0.3)">
       <use xlink:href="#DejaVuSans-54"/>
      </g>
     </g>
    </g>
    <g id="xtick_8">
     <g id="line2d_8">
      <g>
       <use style="stroke:#000000;stroke-width:0.8;" x="501.8975" xlink:href="#m73f2a3b306" y="442.021562"/>
      </g>
     </g>
     <g id="text_8">
      <!-- 7 -->
      <defs>
       <path d="M 8.203125 72.90625 
L 55.078125 72.90625 
L 55.078125 68.703125 
L 28.609375 0 
L 18.3125 0 
L 43.21875 64.59375 
L 8.203125 64.59375 
z
" id="DejaVuSans-55"/>
      </defs>
      <g transform="translate(492.35375 471.816875)scale(0.3 -0.3)">
       <use xlink:href="#DejaVuSans-55"/>
      </g>
     </g>
    </g>
    <g id="text_9">
     <!-- TIME (DAYS) -->
     <defs>
      <path d="M 23.390625 0 
L 23.390625 59.46875 
L 2.15625 59.46875 
L 2.15625 71.578125 
L 59.03125 71.578125 
L 59.03125 59.46875 
L 37.84375 59.46875 
L 37.84375 0 
z
" id="Arial-BoldMT-84"/>
      <path d="M 6.84375 0 
L 6.84375 71.578125 
L 21.296875 71.578125 
L 21.296875 0 
z
" id="Arial-BoldMT-73"/>
      <path d="M 7.078125 0 
L 7.078125 71.578125 
L 28.71875 71.578125 
L 41.703125 22.75 
L 54.546875 71.578125 
L 76.21875 71.578125 
L 76.21875 0 
L 62.796875 0 
L 62.796875 56.34375 
L 48.578125 0 
L 34.671875 0 
L 20.515625 56.34375 
L 20.515625 0 
z
" id="Arial-BoldMT-77"/>
      <path d="M 7.28125 0 
L 7.28125 71.578125 
L 60.359375 71.578125 
L 60.359375 59.46875 
L 21.734375 59.46875 
L 21.734375 43.609375 
L 57.671875 43.609375 
L 57.671875 31.546875 
L 21.734375 31.546875 
L 21.734375 12.0625 
L 61.71875 12.0625 
L 61.71875 0 
z
" id="Arial-BoldMT-69"/>
      <path id="Arial-BoldMT-32"/>
      <path d="M 29.9375 -21.046875 
L 20.515625 -21.046875 
Q 13.03125 -9.765625 9.125 2.390625 
Q 5.21875 14.546875 5.21875 25.921875 
Q 5.21875 40.046875 10.0625 52.640625 
Q 14.265625 63.578125 20.703125 72.796875 
L 30.078125 72.796875 
Q 23.390625 58.015625 20.875 47.625 
Q 18.359375 37.25 18.359375 25.640625 
Q 18.359375 17.625 19.84375 9.21875 
Q 21.34375 0.828125 23.921875 -6.734375 
Q 25.640625 -11.71875 29.9375 -21.046875 
z
" id="Arial-BoldMT-40"/>
      <path d="M 7.234375 71.578125 
L 33.640625 71.578125 
Q 42.578125 71.578125 47.265625 70.21875 
Q 53.5625 68.359375 58.046875 63.625 
Q 62.546875 58.890625 64.890625 52.03125 
Q 67.234375 45.171875 67.234375 35.109375 
Q 67.234375 26.265625 65.046875 19.875 
Q 62.359375 12.0625 57.375 7.234375 
Q 53.609375 3.5625 47.21875 1.515625 
Q 42.4375 0 34.421875 0 
L 7.234375 0 
z
M 21.6875 59.46875 
L 21.6875 12.0625 
L 32.46875 12.0625 
Q 38.53125 12.0625 41.21875 12.75 
Q 44.734375 13.625 47.046875 15.71875 
Q 49.359375 17.828125 50.828125 22.625 
Q 52.296875 27.4375 52.296875 35.75 
Q 52.296875 44.046875 50.828125 48.484375 
Q 49.359375 52.9375 46.71875 55.421875 
Q 44.09375 57.90625 40.046875 58.796875 
Q 37.015625 59.46875 28.171875 59.46875 
z
" id="Arial-BoldMT-68"/>
      <path d="M 71.828125 0 
L 56.109375 0 
L 49.859375 16.265625 
L 21.234375 16.265625 
L 15.328125 0 
L 0 0 
L 27.875 71.578125 
L 43.171875 71.578125 
z
M 45.21875 28.328125 
L 35.359375 54.890625 
L 25.6875 28.328125 
z
" id="Arial-BoldMT-65"/>
      <path d="M 26.078125 0 
L 26.078125 30.125 
L -0.140625 71.578125 
L 16.796875 71.578125 
L 33.640625 43.265625 
L 50.140625 71.578125 
L 66.796875 71.578125 
L 40.484375 30.03125 
L 40.484375 0 
z
" id="Arial-BoldMT-89"/>
      <path d="M 3.609375 23.296875 
L 17.671875 24.65625 
Q 18.953125 17.578125 22.828125 14.25 
Q 26.703125 10.9375 33.296875 10.9375 
Q 40.28125 10.9375 43.8125 13.890625 
Q 47.359375 16.84375 47.359375 20.796875 
Q 47.359375 23.34375 45.875 25.125 
Q 44.390625 26.90625 40.671875 28.21875 
Q 38.140625 29.109375 29.109375 31.34375 
Q 17.484375 34.234375 12.796875 38.421875 
Q 6.203125 44.34375 6.203125 52.828125 
Q 6.203125 58.296875 9.296875 63.0625 
Q 12.40625 67.828125 18.234375 70.3125 
Q 24.078125 72.796875 32.328125 72.796875 
Q 45.796875 72.796875 52.609375 66.890625 
Q 59.421875 60.984375 59.765625 51.125 
L 45.3125 50.484375 
Q 44.390625 56 41.328125 58.421875 
Q 38.28125 60.84375 32.171875 60.84375 
Q 25.875 60.84375 22.3125 58.25 
Q 20.015625 56.59375 20.015625 53.8125 
Q 20.015625 51.265625 22.171875 49.46875 
Q 24.90625 47.171875 35.453125 44.671875 
Q 46 42.1875 51.046875 39.515625 
Q 56.109375 36.859375 58.953125 32.25 
Q 61.8125 27.640625 61.8125 20.84375 
Q 61.8125 14.703125 58.390625 9.328125 
Q 54.984375 3.953125 48.734375 1.34375 
Q 42.484375 -1.265625 33.15625 -1.265625 
Q 19.578125 -1.265625 12.296875 5 
Q 5.03125 11.28125 3.609375 23.296875 
z
" id="Arial-BoldMT-83"/>
      <path d="M 3.375 -21.046875 
Q 7.421875 -12.359375 9.078125 -7.71875 
Q 10.75 -3.078125 12.15625 2.96875 
Q 13.578125 9.03125 14.25 14.46875 
Q 14.9375 19.921875 14.9375 25.640625 
Q 14.9375 37.25 12.453125 47.625 
Q 9.96875 58.015625 3.265625 72.796875 
L 12.59375 72.796875 
Q 19.96875 62.3125 24.046875 50.53125 
Q 28.125 38.765625 28.125 26.65625 
Q 28.125 16.453125 24.90625 4.78125 
Q 21.234375 -8.296875 12.84375 -21.046875 
z
" id="Arial-BoldMT-41"/>
     </defs>
     <g transform="translate(245.50375 502.615312)scale(0.2 -0.2)">
      <use xlink:href="#Arial-BoldMT-84"/>
      <use x="61.083984" xlink:href="#Arial-BoldMT-73"/>
      <use x="88.867188" xlink:href="#Arial-BoldMT-77"/>
      <use x="172.167969" xlink:href="#Arial-BoldMT-69"/>
      <use x="238.867188" xlink:href="#Arial-BoldMT-32"/>
      <use x="266.650391" xlink:href="#Arial-BoldMT-40"/>
      <use x="299.951172" xlink:href="#Arial-BoldMT-68"/>
      <use x="372.167969" xlink:href="#Arial-BoldMT-65"/>
      <use x="444.244141" xlink:href="#Arial-BoldMT-89"/>
      <use x="510.943359" xlink:href="#Arial-BoldMT-83"/>
      <use x="577.642578" xlink:href="#Arial-BoldMT-41"/>
     </g>
    </g>
   </g>
   <g id="matplotlib.axis_2">
    <g id="ytick_1">
     <g id="line2d_9">
      <defs>
       <path d="M 0 0 
L -3.5 0 
" id="mdf07c6400a" style="stroke:#000000;stroke-width:0.8;"/>
      </defs>
      <g>
       <use style="stroke:#000000;stroke-width:0.8;" x="111.2975" xlink:href="#mdf07c6400a" y="442.021562"/>
      </g>
     </g>
     <g id="text_10">
      <!-- 0.0 -->
      <defs>
       <path d="M 10.6875 12.40625 
L 21 12.40625 
L 21 0 
L 10.6875 0 
z
" id="DejaVuSans-46"/>
      </defs>
      <g transform="translate(56.588125 453.419219)scale(0.3 -0.3)">
       <use xlink:href="#DejaVuSans-48"/>
       <use x="63.623047" xlink:href="#DejaVuSans-46"/>
       <use x="95.410156" xlink:href="#DejaVuSans-48"/>
      </g>
     </g>
    </g>
    <g id="ytick_2">
     <g id="line2d_10">
      <g>
       <use style="stroke:#000000;stroke-width:0.8;" x="111.2975" xlink:href="#mdf07c6400a" y="387.661562"/>
      </g>
     </g>
     <g id="text_11">
      <!-- 0.2 -->
      <g transform="translate(56.588125 399.059219)scale(0.3 -0.3)">
       <use xlink:href="#DejaVuSans-48"/>
       <use x="63.623047" xlink:href="#DejaVuSans-46"/>
       <use x="95.410156" xlink:href="#DejaVuSans-50"/>
      </g>
     </g>
    </g>
    <g id="ytick_3">
     <g id="line2d_11">
      <g>
       <use style="stroke:#000000;stroke-width:0.8;" x="111.2975" xlink:href="#mdf07c6400a" y="333.301562"/>
      </g>
     </g>
     <g id="text_12">
      <!-- 0.4 -->
      <g transform="translate(56.588125 344.699219)scale(0.3 -0.3)">
       <use xlink:href="#DejaVuSans-48"/>
       <use x="63.623047" xlink:href="#DejaVuSans-46"/>
       <use x="95.410156" xlink:href="#DejaVuSans-52"/>
      </g>
     </g>
    </g>
    <g id="ytick_4">
     <g id="line2d_12">
      <g>
       <use style="stroke:#000000;stroke-width:0.8;" x="111.2975" xlink:href="#mdf07c6400a" y="278.941562"/>
      </g>
     </g>
     <g id="text_13">
      <!-- 0.6 -->
      <g transform="translate(56.588125 290.339219)scale(0.3 -0.3)">
       <use xlink:href="#DejaVuSans-48"/>
       <use x="63.623047" xlink:href="#DejaVuSans-46"/>
       <use x="95.410156" xlink:href="#DejaVuSans-54"/>
      </g>
     </g>
    </g>
    <g id="ytick_5">
     <g id="line2d_13">
      <g>
       <use style="stroke:#000000;stroke-width:0.8;" x="111.2975" xlink:href="#mdf07c6400a" y="224.581562"/>
      </g>
     </g>
     <g id="text_14">
      <!-- 0.8 -->
      <defs>
       <path d="M 31.78125 34.625 
Q 24.75 34.625 20.71875 30.859375 
Q 16.703125 27.09375 16.703125 20.515625 
Q 16.703125 13.921875 20.71875 10.15625 
Q 24.75 6.390625 31.78125 6.390625 
Q 38.8125 6.390625 42.859375 10.171875 
Q 46.921875 13.96875 46.921875 20.515625 
Q 46.921875 27.09375 42.890625 30.859375 
Q 38.875 34.625 31.78125 34.625 
z
M 21.921875 38.8125 
Q 15.578125 40.375 12.03125 44.71875 
Q 8.5 49.078125 8.5 55.328125 
Q 8.5 64.0625 14.71875 69.140625 
Q 20.953125 74.21875 31.78125 74.21875 
Q 42.671875 74.21875 48.875 69.140625 
Q 55.078125 64.0625 55.078125 55.328125 
Q 55.078125 49.078125 51.53125 44.71875 
Q 48 40.375 41.703125 38.8125 
Q 48.828125 37.15625 52.796875 32.3125 
Q 56.78125 27.484375 56.78125 20.515625 
Q 56.78125 9.90625 50.3125 4.234375 
Q 43.84375 -1.421875 31.78125 -1.421875 
Q 19.734375 -1.421875 13.25 4.234375 
Q 6.78125 9.90625 6.78125 20.515625 
Q 6.78125 27.484375 10.78125 32.3125 
Q 14.796875 37.15625 21.921875 38.8125 
z
M 18.3125 54.390625 
Q 18.3125 48.734375 21.84375 45.5625 
Q 25.390625 42.390625 31.78125 42.390625 
Q 38.140625 42.390625 41.71875 45.5625 
Q 45.3125 48.734375 45.3125 54.390625 
Q 45.3125 60.0625 41.71875 63.234375 
Q 38.140625 66.40625 31.78125 66.40625 
Q 25.390625 66.40625 21.84375 63.234375 
Q 18.3125 60.0625 18.3125 54.390625 
z
" id="DejaVuSans-56"/>
      </defs>
      <g transform="translate(56.588125 235.979219)scale(0.3 -0.3)">
       <use xlink:href="#DejaVuSans-48"/>
       <use x="63.623047" xlink:href="#DejaVuSans-46"/>
       <use x="95.410156" xlink:href="#DejaVuSans-56"/>
      </g>
     </g>
    </g>
    <g id="ytick_6">
     <g id="line2d_14">
      <g>
       <use style="stroke:#000000;stroke-width:0.8;" x="111.2975" xlink:href="#mdf07c6400a" y="170.221562"/>
      </g>
     </g>
     <g id="text_15">
      <!-- 1.0 -->
      <g transform="translate(56.588125 181.619219)scale(0.3 -0.3)">
       <use xlink:href="#DejaVuSans-49"/>
       <use x="63.623047" xlink:href="#DejaVuSans-46"/>
       <use x="95.410156" xlink:href="#DejaVuSans-48"/>
      </g>
     </g>
    </g>
    <g id="ytick_7">
     <g id="line2d_15">
      <g>
       <use style="stroke:#000000;stroke-width:0.8;" x="111.2975" xlink:href="#mdf07c6400a" y="115.861562"/>
      </g>
     </g>
     <g id="text_16">
      <!-- 1.2 -->
      <g transform="translate(56.588125 127.259219)scale(0.3 -0.3)">
       <use xlink:href="#DejaVuSans-49"/>
       <use x="63.623047" xlink:href="#DejaVuSans-46"/>
       <use x="95.410156" xlink:href="#DejaVuSans-50"/>
      </g>
     </g>
    </g>
    <g id="ytick_8">
     <g id="line2d_16">
      <g>
       <use style="stroke:#000000;stroke-width:0.8;" x="111.2975" xlink:href="#mdf07c6400a" y="61.501562"/>
      </g>
     </g>
     <g id="text_17">
      <!-- 1.4 -->
      <g transform="translate(56.588125 72.899219)scale(0.3 -0.3)">
       <use xlink:href="#DejaVuSans-49"/>
       <use x="63.623047" xlink:href="#DejaVuSans-46"/>
       <use x="95.410156" xlink:href="#DejaVuSans-52"/>
      </g>
     </g>
    </g>
    <g id="text_18">
     <!-- HEALTHY LIVE CELL -->
     <defs>
      <path d="M 7.328125 0 
L 7.328125 71.578125 
L 21.78125 71.578125 
L 21.78125 43.40625 
L 50.09375 43.40625 
L 50.09375 71.578125 
L 64.546875 71.578125 
L 64.546875 0 
L 50.09375 0 
L 50.09375 31.296875 
L 21.78125 31.296875 
L 21.78125 0 
z
" id="Arial-BoldMT-72"/>
      <path d="M 7.671875 0 
L 7.671875 71 
L 22.125 71 
L 22.125 12.0625 
L 58.0625 12.0625 
L 58.0625 0 
z
" id="Arial-BoldMT-76"/>
      <path d="M 25.53125 0 
L -0.046875 71.578125 
L 15.625 71.578125 
L 33.734375 18.609375 
L 51.265625 71.578125 
L 66.609375 71.578125 
L 40.96875 0 
z
" id="Arial-BoldMT-86"/>
      <path d="M 53.078125 26.3125 
L 67.09375 21.875 
Q 63.875 10.15625 56.375 4.46875 
Q 48.875 -1.21875 37.359375 -1.21875 
Q 23.09375 -1.21875 13.90625 8.515625 
Q 4.734375 18.265625 4.734375 35.15625 
Q 4.734375 53.03125 13.953125 62.90625 
Q 23.1875 72.796875 38.234375 72.796875 
Q 51.375 72.796875 59.578125 65.046875 
Q 64.453125 60.453125 66.890625 51.859375 
L 52.59375 48.4375 
Q 51.3125 54 47.28125 57.21875 
Q 43.265625 60.453125 37.5 60.453125 
Q 29.546875 60.453125 24.578125 54.734375 
Q 19.625 49.03125 19.625 36.234375 
Q 19.625 22.65625 24.5 16.890625 
Q 29.390625 11.140625 37.203125 11.140625 
Q 42.96875 11.140625 47.109375 14.796875 
Q 51.265625 18.453125 53.078125 26.3125 
z
" id="Arial-BoldMT-67"/>
     </defs>
     <g transform="translate(21.515625 352.861562)rotate(-90)scale(0.2 -0.2)">
      <use xlink:href="#Arial-BoldMT-72"/>
      <use x="72.216797" xlink:href="#Arial-BoldMT-69"/>
      <use x="138.916016" xlink:href="#Arial-BoldMT-65"/>
      <use x="211.132812" xlink:href="#Arial-BoldMT-76"/>
      <use x="272.107422" xlink:href="#Arial-BoldMT-84"/>
      <use x="333.191406" xlink:href="#Arial-BoldMT-72"/>
      <use x="405.408203" xlink:href="#Arial-BoldMT-89"/>
      <use x="472.091797" xlink:href="#Arial-BoldMT-32"/>
      <use x="499.875" xlink:href="#Arial-BoldMT-76"/>
      <use x="560.958984" xlink:href="#Arial-BoldMT-73"/>
      <use x="588.742188" xlink:href="#Arial-BoldMT-86"/>
      <use x="655.441406" xlink:href="#Arial-BoldMT-69"/>
      <use x="722.140625" xlink:href="#Arial-BoldMT-32"/>
      <use x="749.923828" xlink:href="#Arial-BoldMT-67"/>
      <use x="822.140625" xlink:href="#Arial-BoldMT-69"/>
      <use x="888.839844" xlink:href="#Arial-BoldMT-76"/>
      <use x="949.923828" xlink:href="#Arial-BoldMT-76"/>
     </g>
     <!-- COUNTS NORAMLIZED -->
     <defs>
      <path d="M 4.34375 35.359375 
Q 4.34375 46.296875 7.625 53.71875 
Q 10.0625 59.1875 14.28125 63.53125 
Q 18.5 67.875 23.53125 69.96875 
Q 30.21875 72.796875 38.96875 72.796875 
Q 54.78125 72.796875 64.28125 62.984375 
Q 73.78125 53.171875 73.78125 35.6875 
Q 73.78125 18.359375 64.359375 8.5625 
Q 54.9375 -1.21875 39.15625 -1.21875 
Q 23.1875 -1.21875 13.765625 8.515625 
Q 4.34375 18.265625 4.34375 35.359375 
z
M 19.234375 35.84375 
Q 19.234375 23.6875 24.84375 17.40625 
Q 30.46875 11.140625 39.109375 11.140625 
Q 47.75 11.140625 53.296875 17.359375 
Q 58.84375 23.578125 58.84375 36.03125 
Q 58.84375 48.34375 53.4375 54.390625 
Q 48.046875 60.453125 39.109375 60.453125 
Q 30.171875 60.453125 24.703125 54.3125 
Q 19.234375 48.1875 19.234375 35.84375 
z
" id="Arial-BoldMT-79"/>
      <path d="M 7.171875 71.578125 
L 21.625 71.578125 
L 21.625 32.8125 
Q 21.625 23.578125 22.171875 20.84375 
Q 23.09375 16.453125 26.578125 13.796875 
Q 30.078125 11.140625 36.140625 11.140625 
Q 42.28125 11.140625 45.40625 13.640625 
Q 48.53125 16.15625 49.171875 19.8125 
Q 49.8125 23.484375 49.8125 31.984375 
L 49.8125 71.578125 
L 64.265625 71.578125 
L 64.265625 33.984375 
Q 64.265625 21.09375 63.09375 15.765625 
Q 61.921875 10.453125 58.765625 6.78125 
Q 55.609375 3.125 50.328125 0.953125 
Q 45.0625 -1.21875 36.578125 -1.21875 
Q 26.3125 -1.21875 21.015625 1.140625 
Q 15.71875 3.515625 12.640625 7.296875 
Q 9.578125 11.078125 8.59375 15.234375 
Q 7.171875 21.390625 7.171875 33.40625 
z
" id="Arial-BoldMT-85"/>
      <path d="M 7.421875 0 
L 7.421875 71.578125 
L 21.484375 71.578125 
L 50.78125 23.78125 
L 50.78125 71.578125 
L 64.203125 71.578125 
L 64.203125 0 
L 49.703125 0 
L 20.84375 46.6875 
L 20.84375 0 
z
" id="Arial-BoldMT-78"/>
      <path d="M 7.328125 0 
L 7.328125 71.578125 
L 37.75 71.578125 
Q 49.21875 71.578125 54.421875 69.640625 
Q 59.625 67.71875 62.75 62.78125 
Q 65.875 57.859375 65.875 51.515625 
Q 65.875 43.453125 61.125 38.203125 
Q 56.390625 32.953125 46.96875 31.59375 
Q 51.65625 28.859375 54.703125 25.578125 
Q 57.765625 22.3125 62.9375 13.96875 
L 71.6875 0 
L 54.390625 0 
L 43.953125 15.578125 
Q 38.375 23.921875 36.328125 26.09375 
Q 34.28125 28.265625 31.984375 29.078125 
Q 29.6875 29.890625 24.703125 29.890625 
L 21.78125 29.890625 
L 21.78125 0 
z
M 21.78125 41.3125 
L 32.46875 41.3125 
Q 42.875 41.3125 45.453125 42.1875 
Q 48.046875 43.0625 49.515625 45.203125 
Q 50.984375 47.359375 50.984375 50.59375 
Q 50.984375 54.203125 49.046875 56.421875 
Q 47.125 58.640625 43.609375 59.234375 
Q 41.84375 59.46875 33.0625 59.46875 
L 21.78125 59.46875 
z
" id="Arial-BoldMT-82"/>
      <path d="M 1.078125 0 
L 1.078125 13.03125 
L 38.671875 59.46875 
L 5.328125 59.46875 
L 5.328125 71.578125 
L 57.71875 71.578125 
L 57.71875 60.359375 
L 18.5 12.0625 
L 59.234375 12.0625 
L 59.234375 0 
z
" id="Arial-BoldMT-90"/>
     </defs>
     <g transform="translate(42.64125 363.420937)rotate(-90)scale(0.2 -0.2)">
      <use xlink:href="#Arial-BoldMT-67"/>
      <use x="72.216797" xlink:href="#Arial-BoldMT-79"/>
      <use x="150" xlink:href="#Arial-BoldMT-85"/>
      <use x="222.216797" xlink:href="#Arial-BoldMT-78"/>
      <use x="294.433594" xlink:href="#Arial-BoldMT-84"/>
      <use x="355.517578" xlink:href="#Arial-BoldMT-83"/>
      <use x="422.216797" xlink:href="#Arial-BoldMT-32"/>
      <use x="450" xlink:href="#Arial-BoldMT-78"/>
      <use x="522.216797" xlink:href="#Arial-BoldMT-79"/>
      <use x="600" xlink:href="#Arial-BoldMT-82"/>
      <use x="672.216797" xlink:href="#Arial-BoldMT-65"/>
      <use x="744.433594" xlink:href="#Arial-BoldMT-77"/>
      <use x="827.734375" xlink:href="#Arial-BoldMT-76"/>
      <use x="888.818359" xlink:href="#Arial-BoldMT-73"/>
      <use x="916.601562" xlink:href="#Arial-BoldMT-90"/>
      <use x="977.685547" xlink:href="#Arial-BoldMT-69"/>
      <use x="1044.384766" xlink:href="#Arial-BoldMT-68"/>
     </g>
    </g>
   </g>
   <g id="line2d_17">
    <path clip-path="url(#pcd8ed21c3e)" d="M 111.2975 170.221562 
L 139.1975 171.852362 
L 167.0975 173.483162 
L 194.9975 175.657562 
L 222.8975 162.339362 
L 250.7975 161.252162 
L 278.6975 145.759562 
L 306.5975 147.118562 
L 334.4975 207.729962 
L 362.3975 281.659562 
L 390.2975 328.952762 
L 418.1975 371.081762 
L 446.0975 389.564162 
L 473.9975 401.251562 
L 501.8975 408.318362 
" style="fill:none;stroke:#08306b;stroke-linecap:square;stroke-width:1.5;"/>
   </g>
   <g id="line2d_18">
    <path clip-path="url(#pcd8ed21c3e)" d="M 111.2975 170.221562 
L 139.1975 171.852362 
L 167.0975 173.754962 
L 194.9975 174.842162 
L 222.8975 156.903362 
L 250.7975 156.087962 
L 278.6975 141.682562 
L 306.5975 145.487762 
L 334.4975 204.468362 
L 362.3975 272.146562 
L 390.2975 327.865562 
L 418.1975 369.994562 
L 446.0975 391.194962 
L 473.9975 398.533562 
L 501.8975 406.415762 
" style="fill:none;stroke:#08306b;stroke-linecap:square;stroke-width:1.5;"/>
   </g>
   <g id="line2d_19">
    <path clip-path="url(#pcd8ed21c3e)" d="M 111.2975 170.221562 
L 139.1975 172.667762 
L 167.0975 173.754962 
L 194.9975 175.929362 
L 222.8975 157.718762 
L 250.7975 155.816162 
L 278.6975 133.256762 
L 306.5975 135.159362 
L 334.4975 202.837562 
L 362.3975 280.572362 
L 390.2975 332.214362 
L 418.1975 374.886962 
L 446.0975 393.641162 
L 473.9975 402.338762 
L 501.8975 408.861962 
" style="fill:none;stroke:#08306b;stroke-linecap:square;stroke-width:1.5;"/>
   </g>
   <g id="line2d_20">
    <path clip-path="url(#pcd8ed21c3e)" d="M 111.2975 170.221562 
L 139.1975 171.036962 
L 167.0975 172.667762 
L 194.9975 174.842162 
L 222.8975 160.164962 
L 250.7975 160.436762 
L 278.6975 146.846762 
L 306.5975 146.574962 
L 334.4975 209.632562 
L 362.3975 281.659562 
L 390.2975 326.778362 
L 418.1975 372.712562 
L 446.0975 389.835962 
L 473.9975 398.805362 
L 501.8975 406.143962 
" style="fill:none;stroke:#08306b;stroke-linecap:square;stroke-width:1.5;"/>
   </g>
   <g id="line2d_21">
    <path clip-path="url(#pcd8ed21c3e)" d="M 111.2975 170.221562 
L 139.1975 173.483162 
L 167.0975 175.385762 
L 194.9975 176.744762 
L 222.8975 163.154762 
L 250.7975 163.426562 
L 278.6975 149.292962 
L 306.5975 148.477562 
L 334.4975 203.652962 
L 362.3975 280.300562 
L 390.2975 320.526962 
L 418.1975 369.450962 
L 446.0975 392.010362 
L 473.9975 401.795162 
L 501.8975 408.590162 
" style="fill:none;stroke:#08306b;stroke-linecap:square;stroke-width:1.5;"/>
   </g>
   <g id="line2d_22">
    <path clip-path="url(#pcd8ed21c3e)" d="M 111.2975 170.221562 
L 139.1975 173.211362 
L 167.0975 175.385762 
L 194.9975 177.831962 
L 222.8975 164.241962 
L 250.7975 163.426562 
L 278.6975 148.205762 
L 306.5975 149.564762 
L 334.4975 198.216962 
L 362.3975 270.243962 
L 390.2975 326.234762 
L 418.1975 371.897162 
L 446.0975 391.738562 
L 473.9975 405.872162 
L 501.8975 416.472362 
" style="fill:none;stroke:#08306b;stroke-linecap:square;stroke-width:1.5;"/>
   </g>
   <g id="line2d_23">
    <path clip-path="url(#pcd8ed21c3e)" d="M 111.2975 170.221562 
L 139.1975 171.852362 
L 167.0975 174.026762 
L 194.9975 176.472962 
L 222.8975 161.523962 
L 250.7975 160.164962 
L 278.6975 144.400562 
L 306.5975 144.128762 
L 334.4975 211.535162 
L 362.3975 281.931362 
L 390.2975 333.301562 
L 418.1975 373.527962 
L 446.0975 396.087362 
L 473.9975 407.231162 
L 501.8975 412.123562 
" style="fill:none;stroke:#08306b;stroke-linecap:square;stroke-width:1.5;"/>
   </g>
   <g id="line2d_24">
    <path clip-path="url(#pcd8ed21c3e)" d="M 111.2975 170.221562 
L 139.1975 171.852362 
L 167.0975 174.298562 
L 194.9975 175.113962 
L 222.8975 160.708562 
L 250.7975 160.164962 
L 278.6975 145.215962 
L 306.5975 144.400562 
L 334.4975 193.868162 
L 362.3975 282.746762 
L 390.2975 331.398962 
L 418.1975 376.517762 
L 446.0975 400.707962 
L 473.9975 409.677362 
L 501.8975 415.113362 
" style="fill:none;stroke:#08306b;stroke-linecap:square;stroke-width:1.5;"/>
   </g>
   <g id="line2d_25">
    <path clip-path="url(#pcd8ed21c3e)" d="M 111.2975 170.221562 
L 139.1975 172.395962 
L 167.0975 173.483162 
L 194.9975 176.201162 
L 222.8975 163.698362 
L 250.7975 160.164962 
L 278.6975 146.031362 
L 306.5975 146.303162 
L 334.4975 196.857962 
L 362.3975 277.038962 
L 390.2975 331.127162 
L 418.1975 379.507562 
L 446.0975 402.066962 
L 473.9975 414.026162 
L 501.8975 420.005762 
" style="fill:none;stroke:#08306b;stroke-linecap:square;stroke-width:1.5;"/>
   </g>
   <g id="line2d_26">
    <path clip-path="url(#pcd8ed21c3e)" d="M 111.2975 170.221562 
L 139.1975 171.852362 
L 167.0975 172.667762 
L 194.9975 174.298562 
L 222.8975 158.805962 
L 250.7975 157.175162 
L 278.6975 140.867162 
L 306.5975 138.149162 
L 334.4975 193.596362 
L 362.3975 269.428562 
L 390.2975 321.614162 
L 418.1975 363.743162 
L 446.0975 391.194962 
L 473.9975 403.697762 
L 501.8975 410.764562 
" style="fill:none;stroke:#08306b;stroke-linecap:square;stroke-width:1.5;"/>
   </g>
   <g id="line2d_27">
    <path clip-path="url(#pcd8ed21c3e)" d="M 111.2975 170.221562 
L 139.1975 172.124162 
L 167.0975 173.754962 
L 194.9975 174.842162 
L 222.8975 172.667762 
L 250.7975 174.026762 
L 278.6975 173.754962 
L 306.5975 174.298562 
L 334.4975 192.509162 
L 362.3975 220.504562 
L 390.2975 232.735562 
L 418.1975 245.781962 
L 446.0975 268.613162 
L 473.9975 284.649362 
L 501.8975 296.064962 
" style="fill:none;stroke:#4a98c9;stroke-linecap:square;stroke-width:1.5;"/>
   </g>
   <g id="line2d_28">
    <path clip-path="url(#pcd8ed21c3e)" d="M 111.2975 170.221562 
L 139.1975 171.852362 
L 167.0975 173.754962 
L 194.9975 174.842162 
L 222.8975 173.211362 
L 250.7975 174.298562 
L 278.6975 175.657562 
L 306.5975 177.016562 
L 334.4975 198.488762 
L 362.3975 228.114962 
L 390.2975 240.889562 
L 418.1975 257.741162 
L 446.0975 281.387762 
L 473.9975 293.890562 
L 501.8975 306.936962 
" style="fill:none;stroke:#4a98c9;stroke-linecap:square;stroke-width:1.5;"/>
   </g>
   <g id="line2d_29">
    <path clip-path="url(#pcd8ed21c3e)" d="M 111.2975 170.221562 
L 139.1975 172.667762 
L 167.0975 173.754962 
L 194.9975 175.657562 
L 222.8975 174.026762 
L 250.7975 174.298562 
L 278.6975 174.026762 
L 306.5975 176.744762 
L 334.4975 195.227162 
L 362.3975 216.699362 
L 390.2975 233.279162 
L 418.1975 250.674362 
L 446.0975 274.049162 
L 473.9975 288.998162 
L 501.8975 298.782962 
" style="fill:none;stroke:#4a98c9;stroke-linecap:square;stroke-width:1.5;"/>
   </g>
   <g id="line2d_30">
    <path clip-path="url(#pcd8ed21c3e)" d="M 111.2975 170.221562 
L 139.1975 170.765162 
L 167.0975 172.124162 
L 194.9975 174.298562 
L 222.8975 172.395962 
L 250.7975 172.124162 
L 278.6975 171.036962 
L 306.5975 174.570362 
L 334.4975 189.519362 
L 362.3975 218.058362 
L 390.2975 233.279162 
L 418.1975 249.858962 
L 446.0975 276.767162 
L 473.9975 293.075162 
L 501.8975 303.947162 
" style="fill:none;stroke:#4a98c9;stroke-linecap:square;stroke-width:1.5;"/>
   </g>
   <g id="line2d_31">
    <path clip-path="url(#pcd8ed21c3e)" d="M 111.2975 170.221562 
L 139.1975 173.483162 
L 167.0975 175.385762 
L 194.9975 176.744762 
L 222.8975 175.113962 
L 250.7975 174.570362 
L 278.6975 173.754962 
L 306.5975 173.483162 
L 334.4975 193.052762 
L 362.3975 220.504562 
L 390.2975 234.094562 
L 418.1975 251.217962 
L 446.0975 276.767162 
L 473.9975 291.716162 
L 501.8975 303.947162 
" style="fill:none;stroke:#4a98c9;stroke-linecap:square;stroke-width:1.5;"/>
   </g>
   <g id="line2d_32">
    <path clip-path="url(#pcd8ed21c3e)" d="M 111.2975 170.221562 
L 139.1975 172.939562 
L 167.0975 174.842162 
L 194.9975 177.288362 
L 222.8975 173.754962 
L 250.7975 173.483162 
L 278.6975 169.949762 
L 306.5975 172.939562 
L 334.4975 191.150162 
L 362.3975 224.037962 
L 390.2975 237.627962 
L 418.1975 253.392362 
L 446.0975 276.495362 
L 473.9975 294.705962 
L 501.8975 306.121562 
" style="fill:none;stroke:#4a98c9;stroke-linecap:square;stroke-width:1.5;"/>
   </g>
   <g id="line2d_33">
    <path clip-path="url(#pcd8ed21c3e)" d="M 111.2975 170.221562 
L 139.1975 172.124162 
L 167.0975 174.026762 
L 194.9975 176.201162 
L 222.8975 175.113962 
L 250.7975 174.298562 
L 278.6975 174.026762 
L 306.5975 177.560162 
L 334.4975 197.673362 
L 362.3975 227.027762 
L 390.2975 240.617762 
L 418.1975 253.935962 
L 446.0975 280.300562 
L 473.9975 293.618762 
L 501.8975 305.034362 
" style="fill:none;stroke:#4a98c9;stroke-linecap:square;stroke-width:1.5;"/>
   </g>
   <g id="line2d_34">
    <path clip-path="url(#pcd8ed21c3e)" d="M 111.2975 170.221562 
L 139.1975 171.852362 
L 167.0975 174.298562 
L 194.9975 174.842162 
L 222.8975 172.395962 
L 250.7975 173.211362 
L 278.6975 171.852362 
L 306.5975 173.754962 
L 334.4975 193.868162 
L 362.3975 222.678962 
L 390.2975 237.356162 
L 418.1975 255.294962 
L 446.0975 281.659562 
L 473.9975 297.423962 
L 501.8975 310.198562 
" style="fill:none;stroke:#4a98c9;stroke-linecap:square;stroke-width:1.5;"/>
   </g>
   <g id="line2d_35">
    <path clip-path="url(#pcd8ed21c3e)" d="M 111.2975 170.221562 
L 139.1975 172.667762 
L 167.0975 173.483162 
L 194.9975 175.385762 
L 222.8975 172.667762 
L 250.7975 171.852362 
L 278.6975 172.939562 
L 306.5975 174.570362 
L 334.4975 194.411762 
L 362.3975 226.212362 
L 390.2975 243.607562 
L 418.1975 261.818162 
L 446.0975 293.075162 
L 473.9975 303.403562 
L 501.8975 313.731962 
" style="fill:none;stroke:#4a98c9;stroke-linecap:square;stroke-width:1.5;"/>
   </g>
   <g id="line2d_36">
    <path clip-path="url(#pcd8ed21c3e)" d="M 111.2975 170.221562 
L 139.1975 171.308762 
L 167.0975 172.124162 
L 194.9975 173.483162 
L 222.8975 169.949762 
L 250.7975 170.221562 
L 278.6975 168.590762 
L 306.5975 171.308762 
L 334.4975 188.975762 
L 362.3975 215.612162 
L 390.2975 235.725362 
L 418.1975 259.371962 
L 446.0975 279.756962 
L 473.9975 294.434162 
L 501.8975 303.403562 
" style="fill:none;stroke:#4a98c9;stroke-linecap:square;stroke-width:1.5;"/>
   </g>
   <g id="line2d_37">
    <path clip-path="url(#pcd8ed21c3e)" d="M 111.2975 170.221562 
L 139.1975 172.395962 
L 167.0975 174.026762 
L 194.9975 175.113962 
L 222.8975 175.657562 
L 250.7975 176.201162 
L 278.6975 177.560162 
L 306.5975 177.831962 
L 334.4975 179.734562 
L 362.3975 190.606562 
L 390.2975 201.206762 
L 418.1975 206.642762 
L 446.0975 213.165962 
L 473.9975 219.145562 
L 501.8975 226.484162 
" style="fill:none;stroke:#d0e1f2;stroke-linecap:square;stroke-width:1.5;"/>
   </g>
   <g id="line2d_38">
    <path clip-path="url(#pcd8ed21c3e)" d="M 111.2975 170.221562 
L 139.1975 172.395962 
L 167.0975 174.298562 
L 194.9975 175.385762 
L 222.8975 175.113962 
L 250.7975 175.113962 
L 278.6975 175.929362 
L 306.5975 175.385762 
L 334.4975 179.734562 
L 362.3975 188.703962 
L 390.2975 194.955362 
L 418.1975 203.109362 
L 446.0975 209.088962 
L 473.9975 216.427562 
L 501.8975 221.319962 
" style="fill:none;stroke:#d0e1f2;stroke-linecap:square;stroke-width:1.5;"/>
   </g>
   <g id="line2d_39">
    <path clip-path="url(#pcd8ed21c3e)" d="M 111.2975 170.221562 
L 139.1975 172.124162 
L 167.0975 173.211362 
L 194.9975 175.113962 
L 222.8975 174.570362 
L 250.7975 174.298562 
L 278.6975 174.026762 
L 306.5975 175.113962 
L 334.4975 180.278162 
L 362.3975 187.616762 
L 390.2975 194.683562 
L 418.1975 202.837562 
L 446.0975 208.817162 
L 473.9975 214.253162 
L 501.8975 220.504562 
" style="fill:none;stroke:#d0e1f2;stroke-linecap:square;stroke-width:1.5;"/>
   </g>
   <g id="line2d_40">
    <path clip-path="url(#pcd8ed21c3e)" d="M 111.2975 170.221562 
L 139.1975 171.580562 
L 167.0975 172.939562 
L 194.9975 175.113962 
L 222.8975 174.570362 
L 250.7975 176.201162 
L 278.6975 174.842162 
L 306.5975 176.201162 
L 334.4975 182.452562 
L 362.3975 192.509162 
L 390.2975 203.109362 
L 418.1975 210.176162 
L 446.0975 219.145562 
L 473.9975 225.668762 
L 501.8975 230.289362 
" style="fill:none;stroke:#d0e1f2;stroke-linecap:square;stroke-width:1.5;"/>
   </g>
   <g id="line2d_41">
    <path clip-path="url(#pcd8ed21c3e)" d="M 111.2975 170.221562 
L 139.1975 173.483162 
L 167.0975 175.385762 
L 194.9975 176.744762 
L 222.8975 176.744762 
L 250.7975 176.744762 
L 278.6975 176.744762 
L 306.5975 175.113962 
L 334.4975 183.267962 
L 362.3975 194.683562 
L 390.2975 198.760562 
L 418.1975 207.186362 
L 446.0975 215.883962 
L 473.9975 220.776362 
L 501.8975 226.212362 
" style="fill:none;stroke:#d0e1f2;stroke-linecap:square;stroke-width:1.5;"/>
   </g>
   <g id="line2d_42">
    <path clip-path="url(#pcd8ed21c3e)" d="M 111.2975 170.221562 
L 139.1975 172.939562 
L 167.0975 174.842162 
L 194.9975 177.288362 
L 222.8975 176.472962 
L 250.7975 176.472962 
L 278.6975 176.472962 
L 306.5975 178.919162 
L 334.4975 182.724362 
L 362.3975 194.139962 
L 390.2975 202.022162 
L 418.1975 207.458162 
L 446.0975 212.350562 
L 473.9975 220.776362 
L 501.8975 226.484162 
" style="fill:none;stroke:#d0e1f2;stroke-linecap:square;stroke-width:1.5;"/>
   </g>
   <g id="line2d_43">
    <path clip-path="url(#pcd8ed21c3e)" d="M 111.2975 170.221562 
L 139.1975 171.852362 
L 167.0975 173.754962 
L 194.9975 175.929362 
L 222.8975 176.472962 
L 250.7975 175.657562 
L 278.6975 175.929362 
L 306.5975 177.016562 
L 334.4975 179.190962 
L 362.3975 187.616762 
L 390.2975 197.401562 
L 418.1975 202.565762 
L 446.0975 210.991562 
L 473.9975 221.048162 
L 501.8975 228.658562 
" style="fill:none;stroke:#d0e1f2;stroke-linecap:square;stroke-width:1.5;"/>
   </g>
   <g id="line2d_44">
    <path clip-path="url(#pcd8ed21c3e)" d="M 111.2975 170.221562 
L 139.1975 171.852362 
L 167.0975 174.298562 
L 194.9975 174.842162 
L 222.8975 175.113962 
L 250.7975 175.657562 
L 278.6975 175.385762 
L 306.5975 176.201162 
L 334.4975 180.278162 
L 362.3975 187.616762 
L 390.2975 197.945162 
L 418.1975 205.827362 
L 446.0975 213.165962 
L 473.9975 219.960962 
L 501.8975 225.396962 
" style="fill:none;stroke:#d0e1f2;stroke-linecap:square;stroke-width:1.5;"/>
   </g>
   <g id="line2d_45">
    <path clip-path="url(#pcd8ed21c3e)" d="M 111.2975 170.221562 
L 139.1975 172.124162 
L 167.0975 172.939562 
L 194.9975 174.842162 
L 222.8975 175.385762 
L 250.7975 174.298562 
L 278.6975 176.201162 
L 306.5975 177.288362 
L 334.4975 179.190962 
L 362.3975 184.898762 
L 390.2975 196.857962 
L 418.1975 207.458162 
L 446.0975 213.981362 
L 473.9975 221.048162 
L 501.8975 226.755962 
" style="fill:none;stroke:#d0e1f2;stroke-linecap:square;stroke-width:1.5;"/>
   </g>
   <g id="line2d_46">
    <path clip-path="url(#pcd8ed21c3e)" d="M 111.2975 170.221562 
L 139.1975 171.580562 
L 167.0975 172.395962 
L 194.9975 173.754962 
L 222.8975 171.852362 
L 250.7975 171.580562 
L 278.6975 172.395962 
L 306.5975 173.483162 
L 334.4975 177.560162 
L 362.3975 182.452562 
L 390.2975 192.509162 
L 418.1975 202.837562 
L 446.0975 210.176162 
L 473.9975 217.786562 
L 501.8975 225.668762 
" style="fill:none;stroke:#d0e1f2;stroke-linecap:square;stroke-width:1.5;"/>
   </g>
   <g id="line2d_47">
    <path clip-path="url(#pcd8ed21c3e)" d="M 111.2975 170.221562 
L 139.1975 171.852362 
L 167.0975 174.026762 
L 194.9975 175.113962 
L 222.8975 169.949762 
L 250.7975 169.677962 
L 278.6975 166.688162 
L 306.5975 168.047162 
L 334.4975 207.458162 
L 362.3975 256.653962 
L 390.2975 293.346962 
L 418.1975 346.347962 
L 446.0975 373.527962 
L 473.9975 386.574362 
L 501.8975 395.815562 
" style="fill:none;stroke:#1764ab;stroke-linecap:square;stroke-width:1.5;"/>
   </g>
   <g id="line2d_48">
    <path clip-path="url(#pcd8ed21c3e)" d="M 111.2975 170.221562 
L 139.1975 171.852362 
L 167.0975 173.754962 
L 194.9975 174.842162 
L 222.8975 166.416362 
L 250.7975 166.416362 
L 278.6975 160.980362 
L 306.5975 165.329162 
L 334.4975 212.350562 
L 362.3975 259.643762 
L 390.2975 303.675362 
L 418.1975 346.347962 
L 446.0975 376.245962 
L 473.9975 392.553962 
L 501.8975 400.979762 
" style="fill:none;stroke:#1764ab;stroke-linecap:square;stroke-width:1.5;"/>
   </g>
   <g id="line2d_49">
    <path clip-path="url(#pcd8ed21c3e)" d="M 111.2975 170.221562 
L 139.1975 172.667762 
L 167.0975 173.754962 
L 194.9975 176.472962 
L 222.8975 168.318962 
L 250.7975 167.775362 
L 278.6975 163.698362 
L 306.5975 165.057362 
L 334.4975 212.622362 
L 362.3975 271.602962 
L 390.2975 304.218962 
L 418.1975 355.860962 
L 446.0975 373.527962 
L 473.9975 384.943562 
L 501.8975 394.456562 
" style="fill:none;stroke:#1764ab;stroke-linecap:square;stroke-width:1.5;"/>
   </g>
   <g id="line2d_50">
    <path clip-path="url(#pcd8ed21c3e)" d="M 111.2975 170.221562 
L 139.1975 170.765162 
L 167.0975 172.124162 
L 194.9975 174.570362 
L 222.8975 165.057362 
L 250.7975 165.872762 
L 278.6975 160.436762 
L 306.5975 161.523962 
L 334.4975 208.545362 
L 362.3975 260.730962 
L 390.2975 300.685562 
L 418.1975 349.337762 
L 446.0975 377.061362 
L 473.9975 391.466762 
L 501.8975 400.436162 
" style="fill:none;stroke:#1764ab;stroke-linecap:square;stroke-width:1.5;"/>
   </g>
   <g id="line2d_51">
    <path clip-path="url(#pcd8ed21c3e)" d="M 111.2975 170.221562 
L 139.1975 172.939562 
L 167.0975 174.842162 
L 194.9975 176.201162 
L 222.8975 169.134362 
L 250.7975 169.406162 
L 278.6975 165.057362 
L 306.5975 167.503562 
L 334.4975 210.176162 
L 362.3975 261.818162 
L 390.2975 300.141962 
L 418.1975 346.619762 
L 446.0975 370.538162 
L 473.9975 387.117962 
L 501.8975 395.543762 
" style="fill:none;stroke:#1764ab;stroke-linecap:square;stroke-width:1.5;"/>
   </g>
   <g id="line2d_52">
    <path clip-path="url(#pcd8ed21c3e)" d="M 111.2975 170.221562 
L 139.1975 172.939562 
L 167.0975 174.842162 
L 194.9975 177.288362 
L 222.8975 168.318962 
L 250.7975 166.688162 
L 278.6975 159.349562 
L 306.5975 165.057362 
L 334.4975 207.186362 
L 362.3975 260.730962 
L 390.2975 293.075162 
L 418.1975 342.270962 
L 446.0975 370.538162 
L 473.9975 388.476962 
L 501.8975 399.077162 
" style="fill:none;stroke:#1764ab;stroke-linecap:square;stroke-width:1.5;"/>
   </g>
   <g id="line2d_53">
    <path clip-path="url(#pcd8ed21c3e)" d="M 111.2975 170.221562 
L 139.1975 172.124162 
L 167.0975 174.026762 
L 194.9975 176.201162 
L 222.8975 167.231763 
L 250.7975 165.872762 
L 278.6975 157.718762 
L 306.5975 163.698362 
L 334.4975 216.155762 
L 362.3975 271.331162 
L 390.2975 307.752362 
L 418.1975 350.424962 
L 446.0975 374.886962 
L 473.9975 387.389762 
L 501.8975 394.728362 
" style="fill:none;stroke:#1764ab;stroke-linecap:square;stroke-width:1.5;"/>
   </g>
   <g id="line2d_54">
    <path clip-path="url(#pcd8ed21c3e)" d="M 111.2975 170.221562 
L 139.1975 171.580562 
L 167.0975 174.026762 
L 194.9975 174.842162 
L 222.8975 166.416362 
L 250.7975 166.688162 
L 278.6975 159.349562 
L 306.5975 159.893162 
L 334.4975 213.437762 
L 362.3975 263.720762 
L 390.2975 310.470362 
L 418.1975 357.763562 
L 446.0975 382.225562 
L 473.9975 394.184762 
L 501.8975 403.969562 
" style="fill:none;stroke:#1764ab;stroke-linecap:square;stroke-width:1.5;"/>
   </g>
   <g id="line2d_55">
    <path clip-path="url(#pcd8ed21c3e)" d="M 111.2975 170.221562 
L 139.1975 173.211362 
L 167.0975 174.026762 
L 194.9975 176.201162 
L 222.8975 167.775362 
L 250.7975 165.329162 
L 278.6975 158.805962 
L 306.5975 166.416362 
L 334.4975 214.524962 
L 362.3975 264.807962 
L 390.2975 301.500962 
L 418.1975 346.619762 
L 446.0975 375.702362 
L 473.9975 392.010362 
L 501.8975 399.077162 
" style="fill:none;stroke:#1764ab;stroke-linecap:square;stroke-width:1.5;"/>
   </g>
   <g id="line2d_56">
    <path clip-path="url(#pcd8ed21c3e)" d="M 111.2975 170.221562 
L 139.1975 171.580562 
L 167.0975 172.395962 
L 194.9975 173.754962 
L 222.8975 161.523962 
L 250.7975 160.708562 
L 278.6975 153.913562 
L 306.5975 156.631562 
L 334.4975 207.186362 
L 362.3975 261.002762 
L 390.2975 305.034362 
L 418.1975 356.676362 
L 446.0975 377.333162 
L 473.9975 393.369362 
L 501.8975 401.523362 
" style="fill:none;stroke:#1764ab;stroke-linecap:square;stroke-width:1.5;"/>
   </g>
   <g id="line2d_57">
    <path clip-path="url(#pcd8ed21c3e)" d="M 111.2975 170.221562 
L 139.1975 172.395962 
L 167.0975 174.026762 
L 194.9975 175.113962 
L 222.8975 175.113962 
L 250.7975 176.472962 
L 278.6975 176.744762 
L 306.5975 176.744762 
L 334.4975 187.616762 
L 362.3975 212.350562 
L 390.2975 227.027762 
L 418.1975 240.345962 
L 446.0975 259.643762 
L 473.9975 270.243962 
L 501.8975 278.397962 
" style="fill:none;stroke:#94c4df;stroke-linecap:square;stroke-width:1.5;"/>
   </g>
   <g id="line2d_58">
    <path clip-path="url(#pcd8ed21c3e)" d="M 111.2975 170.221562 
L 139.1975 172.124162 
L 167.0975 174.026762 
L 194.9975 175.113962 
L 222.8975 175.385762 
L 250.7975 175.657562 
L 278.6975 176.201162 
L 306.5975 176.472962 
L 334.4975 185.170562 
L 362.3975 201.478562 
L 390.2975 210.447962 
L 418.1975 221.319962 
L 446.0975 238.171562 
L 473.9975 249.587162 
L 501.8975 259.371962 
" style="fill:none;stroke:#94c4df;stroke-linecap:square;stroke-width:1.5;"/>
   </g>
   <g id="line2d_59">
    <path clip-path="url(#pcd8ed21c3e)" d="M 111.2975 170.221562 
L 139.1975 172.667762 
L 167.0975 173.754962 
L 194.9975 175.657562 
L 222.8975 174.026762 
L 250.7975 175.113962 
L 278.6975 175.385762 
L 306.5975 178.647362 
L 334.4975 191.693762 
L 362.3975 207.186362 
L 390.2975 221.319962 
L 418.1975 237.627962 
L 446.0975 247.412762 
L 473.9975 257.741162 
L 501.8975 266.166962 
" style="fill:none;stroke:#94c4df;stroke-linecap:square;stroke-width:1.5;"/>
   </g>
   <g id="line2d_60">
    <path clip-path="url(#pcd8ed21c3e)" d="M 111.2975 170.221562 
L 139.1975 171.036962 
L 167.0975 172.395962 
L 194.9975 174.570362 
L 222.8975 172.939562 
L 250.7975 173.754962 
L 278.6975 173.754962 
L 306.5975 175.113962 
L 334.4975 188.703962 
L 362.3975 210.176162 
L 390.2975 225.396962 
L 418.1975 234.638162 
L 446.0975 251.217962 
L 473.9975 263.177162 
L 501.8975 269.972162 
" style="fill:none;stroke:#94c4df;stroke-linecap:square;stroke-width:1.5;"/>
   </g>
   <g id="line2d_61">
    <path clip-path="url(#pcd8ed21c3e)" d="M 111.2975 170.221562 
L 139.1975 172.939562 
L 167.0975 174.842162 
L 194.9975 176.201162 
L 222.8975 175.113962 
L 250.7975 174.570362 
L 278.6975 174.570362 
L 306.5975 174.842162 
L 334.4975 187.616762 
L 362.3975 203.652962 
L 390.2975 212.894162 
L 418.1975 224.581562 
L 446.0975 237.084362 
L 473.9975 247.956362 
L 501.8975 258.828362 
" style="fill:none;stroke:#94c4df;stroke-linecap:square;stroke-width:1.5;"/>
   </g>
   <g id="line2d_62">
    <path clip-path="url(#pcd8ed21c3e)" d="M 111.2975 170.221562 
L 139.1975 172.939562 
L 167.0975 174.842162 
L 194.9975 177.288362 
L 222.8975 176.201162 
L 250.7975 176.472962 
L 278.6975 177.016562 
L 306.5975 180.549962 
L 334.4975 191.693762 
L 362.3975 206.914562 
L 390.2975 222.135362 
L 418.1975 231.920162 
L 446.0975 247.140962 
L 473.9975 258.828362 
L 501.8975 266.438762 
" style="fill:none;stroke:#94c4df;stroke-linecap:square;stroke-width:1.5;"/>
   </g>
   <g id="line2d_63">
    <path clip-path="url(#pcd8ed21c3e)" d="M 111.2975 170.221562 
L 139.1975 172.395962 
L 167.0975 174.298562 
L 194.9975 176.472962 
L 222.8975 176.744762 
L 250.7975 175.929362 
L 278.6975 176.744762 
L 306.5975 178.103762 
L 334.4975 192.509162 
L 362.3975 209.632562 
L 390.2975 221.048162 
L 418.1975 236.268962 
L 446.0975 250.402562 
L 473.9975 262.905362 
L 501.8975 272.961962 
" style="fill:none;stroke:#94c4df;stroke-linecap:square;stroke-width:1.5;"/>
   </g>
   <g id="line2d_64">
    <path clip-path="url(#pcd8ed21c3e)" d="M 111.2975 170.221562 
L 139.1975 172.124162 
L 167.0975 174.570362 
L 194.9975 175.113962 
L 222.8975 173.483162 
L 250.7975 174.298562 
L 278.6975 173.483162 
L 306.5975 174.570362 
L 334.4975 184.898762 
L 362.3975 203.924762 
L 390.2975 216.155762 
L 418.1975 225.396962 
L 446.0975 240.889562 
L 473.9975 254.751362 
L 501.8975 266.166962 
" style="fill:none;stroke:#94c4df;stroke-linecap:square;stroke-width:1.5;"/>
   </g>
   <g id="line2d_65">
    <path clip-path="url(#pcd8ed21c3e)" d="M 111.2975 170.221562 
L 139.1975 172.395962 
L 167.0975 173.211362 
L 194.9975 175.113962 
L 222.8975 174.298562 
L 250.7975 172.667762 
L 278.6975 173.483162 
L 306.5975 174.570362 
L 334.4975 184.355162 
L 362.3975 202.022162 
L 390.2975 217.514762 
L 418.1975 230.017562 
L 446.0975 244.422962 
L 473.9975 256.110362 
L 501.8975 264.807962 
" style="fill:none;stroke:#94c4df;stroke-linecap:square;stroke-width:1.5;"/>
   </g>
   <g id="line2d_66">
    <path clip-path="url(#pcd8ed21c3e)" d="M 111.2975 170.221562 
L 139.1975 171.580562 
L 167.0975 172.395962 
L 194.9975 173.754962 
L 222.8975 171.852362 
L 250.7975 172.124162 
L 278.6975 171.852362 
L 306.5975 173.211362 
L 334.4975 185.170562 
L 362.3975 208.273562 
L 390.2975 230.289362 
L 418.1975 242.792162 
L 446.0975 259.643762 
L 473.9975 268.884962 
L 501.8975 277.038962 
" style="fill:none;stroke:#94c4df;stroke-linecap:square;stroke-width:1.5;"/>
   </g>
   <g id="line2d_67">
    <path clip-path="url(#pcd8ed21c3e)" d="M 111.2975 170.221562 
L 139.1975 171.852362 
L 167.0975 173.483162 
L 194.9975 174.570362 
L 222.8975 175.657562 
L 250.7975 176.472962 
L 278.6975 177.560162 
L 306.5975 176.744762 
L 334.4975 178.103762 
L 362.3975 179.734562 
L 390.2975 180.278162 
L 418.1975 181.908962 
L 446.0975 183.539762 
L 473.9975 184.355162 
L 501.8975 185.985962 
" style="fill:none;stroke:#000000;stroke-linecap:square;stroke-width:1.5;"/>
   </g>
   <g id="line2d_68">
    <path clip-path="url(#pcd8ed21c3e)" d="M 111.2975 170.221562 
L 139.1975 171.580562 
L 167.0975 173.483162 
L 194.9975 174.570362 
L 222.8975 175.385762 
L 250.7975 175.385762 
L 278.6975 175.385762 
L 306.5975 175.113962 
L 334.4975 175.113962 
L 362.3975 175.929362 
L 390.2975 177.560162 
L 418.1975 179.190962 
L 446.0975 180.549962 
L 473.9975 182.180762 
L 501.8975 184.355162 
" style="fill:none;stroke:#000000;stroke-linecap:square;stroke-width:1.5;"/>
   </g>
   <g id="line2d_69">
    <path clip-path="url(#pcd8ed21c3e)" d="M 111.2975 170.221562 
L 139.1975 171.852362 
L 167.0975 172.939562 
L 194.9975 174.842162 
L 222.8975 175.113962 
L 250.7975 174.842162 
L 278.6975 174.570362 
L 306.5975 174.298562 
L 334.4975 175.113962 
L 362.3975 175.385762 
L 390.2975 175.929362 
L 418.1975 178.103762 
L 446.0975 178.919162 
L 473.9975 180.006362 
L 501.8975 181.637162 
" style="fill:none;stroke:#000000;stroke-linecap:square;stroke-width:1.5;"/>
   </g>
   <g id="line2d_70">
    <path clip-path="url(#pcd8ed21c3e)" d="M 111.2975 170.221562 
L 139.1975 170.765162 
L 167.0975 172.124162 
L 194.9975 174.298562 
L 222.8975 174.842162 
L 250.7975 175.657562 
L 278.6975 175.385762 
L 306.5975 176.472962 
L 334.4975 178.103762 
L 362.3975 179.190962 
L 390.2975 179.734562 
L 418.1975 179.734562 
L 446.0975 181.365362 
L 473.9975 183.811562 
L 501.8975 184.898762 
" style="fill:none;stroke:#000000;stroke-linecap:square;stroke-width:1.5;"/>
   </g>
   <g id="line2d_71">
    <path clip-path="url(#pcd8ed21c3e)" d="M 111.2975 170.221562 
L 139.1975 172.939562 
L 167.0975 174.842162 
L 194.9975 176.201162 
L 222.8975 177.016562 
L 250.7975 177.016562 
L 278.6975 176.201162 
L 306.5975 175.657562 
L 334.4975 178.103762 
L 362.3975 179.462762 
L 390.2975 180.278162 
L 418.1975 182.452562 
L 446.0975 183.267962 
L 473.9975 183.811562 
L 501.8975 184.898762 
" style="fill:none;stroke:#000000;stroke-linecap:square;stroke-width:1.5;"/>
   </g>
   <g id="line2d_72">
    <path clip-path="url(#pcd8ed21c3e)" d="M 111.2975 170.221562 
L 139.1975 172.939562 
L 167.0975 174.842162 
L 194.9975 177.288362 
L 222.8975 177.016562 
L 250.7975 177.288362 
L 278.6975 177.288362 
L 306.5975 178.375562 
L 334.4975 179.190962 
L 362.3975 180.821762 
L 390.2975 183.267962 
L 418.1975 184.355162 
L 446.0975 185.442362 
L 473.9975 187.888562 
L 501.8975 189.247562 
" style="fill:none;stroke:#000000;stroke-linecap:square;stroke-width:1.5;"/>
   </g>
   <g id="line2d_73">
    <path clip-path="url(#pcd8ed21c3e)" d="M 111.2975 170.221562 
L 139.1975 171.580562 
L 167.0975 173.483162 
L 194.9975 175.657562 
L 222.8975 176.472962 
L 250.7975 175.113962 
L 278.6975 176.201162 
L 306.5975 176.472962 
L 334.4975 177.016562 
L 362.3975 178.375562 
L 390.2975 179.462762 
L 418.1975 180.278162 
L 446.0975 182.180762 
L 473.9975 183.811562 
L 501.8975 185.442362 
" style="fill:none;stroke:#000000;stroke-linecap:square;stroke-width:1.5;"/>
   </g>
   <g id="line2d_74">
    <path clip-path="url(#pcd8ed21c3e)" d="M 111.2975 170.221562 
L 139.1975 171.580562 
L 167.0975 174.026762 
L 194.9975 174.570362 
L 222.8975 174.570362 
L 250.7975 175.929362 
L 278.6975 175.657562 
L 306.5975 176.201162 
L 334.4975 176.744762 
L 362.3975 178.375562 
L 390.2975 179.462762 
L 418.1975 180.549962 
L 446.0975 181.637162 
L 473.9975 183.539762 
L 501.8975 185.170562 
" style="fill:none;stroke:#000000;stroke-linecap:square;stroke-width:1.5;"/>
   </g>
   <g id="line2d_75">
    <path clip-path="url(#pcd8ed21c3e)" d="M 111.2975 170.221562 
L 139.1975 172.124162 
L 167.0975 172.939562 
L 194.9975 174.842162 
L 222.8975 175.657562 
L 250.7975 174.298562 
L 278.6975 175.657562 
L 306.5975 174.842162 
L 334.4975 175.113962 
L 362.3975 177.016562 
L 390.2975 178.375562 
L 418.1975 179.462762 
L 446.0975 181.365362 
L 473.9975 182.996162 
L 501.8975 184.355162 
" style="fill:none;stroke:#000000;stroke-linecap:square;stroke-width:1.5;"/>
   </g>
   <g id="line2d_76">
    <path clip-path="url(#pcd8ed21c3e)" d="M 111.2975 170.221562 
L 139.1975 171.308762 
L 167.0975 172.124162 
L 194.9975 173.483162 
L 222.8975 172.667762 
L 250.7975 173.483162 
L 278.6975 174.842162 
L 306.5975 175.385762 
L 334.4975 177.016562 
L 362.3975 177.831962 
L 390.2975 180.006362 
L 418.1975 181.093562 
L 446.0975 181.908962 
L 473.9975 182.996162 
L 501.8975 184.898762 
" style="fill:none;stroke:#000000;stroke-linecap:square;stroke-width:1.5;"/>
   </g>
   <g id="line2d_77">
    <path clip-path="url(#pcd8ed21c3e)" d="M 111.2975 442.021562 
" style="fill:none;stroke:#000000;stroke-linecap:square;stroke-width:1.5;"/>
   </g>
   <g id="line2d_78">
    <path clip-path="url(#pcd8ed21c3e)" d="M 111.2975 442.021562 
" style="fill:none;stroke:#d0e1f2;stroke-linecap:square;stroke-width:1.5;"/>
   </g>
   <g id="line2d_79">
    <path clip-path="url(#pcd8ed21c3e)" d="M 111.2975 442.021562 
" style="fill:none;stroke:#94c4df;stroke-linecap:square;stroke-width:1.5;"/>
   </g>
   <g id="line2d_80">
    <path clip-path="url(#pcd8ed21c3e)" d="M 111.2975 442.021562 
" style="fill:none;stroke:#4a98c9;stroke-linecap:square;stroke-width:1.5;"/>
   </g>
   <g id="line2d_81">
    <path clip-path="url(#pcd8ed21c3e)" d="M 111.2975 442.021562 
" style="fill:none;stroke:#1764ab;stroke-linecap:square;stroke-width:1.5;"/>
   </g>
   <g id="line2d_82">
    <path clip-path="url(#pcd8ed21c3e)" d="M 111.2975 442.021562 
" style="fill:none;stroke:#08306b;stroke-linecap:square;stroke-width:1.5;"/>
   </g>
   <g id="line2d_83">
    <path clip-path="url(#pcd8ed21c3e)" d="M 111.2975 442.021562 
" style="fill:none;stroke:#000000;stroke-linecap:square;stroke-width:1.5;"/>
   </g>
   <g id="line2d_84">
    <path clip-path="url(#pcd8ed21c3e)" d="M 111.2975 442.021562 
" style="fill:none;stroke:#000000;stroke-dasharray:1.5,2.475;stroke-dashoffset:0;stroke-width:1.5;"/>
   </g>
   <g id="line2d_85">
    <path clip-path="url(#pcd8ed21c3e)" d="M 111.2975 442.021562 
" style="fill:none;stroke:#000000;stroke-linecap:square;stroke-width:1.5;"/>
   </g>
   <g id="line2d_86">
    <path clip-path="url(#pcd8ed21c3e)" d="M 111.2975 442.021562 
" style="fill:none;stroke:#000000;stroke-dasharray:5.55,2.4;stroke-dashoffset:0;stroke-width:1.5;"/>
   </g>
   <g id="line2d_87">
    <path clip-path="url(#pcd8ed21c3e)" d="M 111.2975 442.021562 
" style="fill:none;stroke:#000000;stroke-dasharray:9.6,2.4,1.5,2.4;stroke-dashoffset:0;stroke-width:1.5;"/>
   </g>
   <g id="line2d_88">
    <path clip-path="url(#pcd8ed21c3e)" d="M 111.2975 442.021562 
" style="fill:none;stroke:#000000;stroke-dasharray:9.6,2.4,1.5,2.4;stroke-dashoffset:0;stroke-width:1.5;"/>
   </g>
   <g id="patch_3">
    <path d="M 111.2975 442.021562 
L 111.2975 61.501562 
" style="fill:none;stroke:#000000;stroke-linecap:square;stroke-linejoin:miter;stroke-width:0.8;"/>
   </g>
   <g id="patch_4">
    <path d="M 501.8975 442.021562 
L 501.8975 61.501562 
" style="fill:none;stroke:#000000;stroke-linecap:square;stroke-linejoin:miter;stroke-width:0.8;"/>
   </g>
   <g id="patch_5">
    <path d="M 111.2975 442.021562 
L 501.8975 442.021562 
" style="fill:none;stroke:#000000;stroke-linecap:square;stroke-linejoin:miter;stroke-width:0.8;"/>
   </g>
   <g id="patch_6">
    <path d="M 111.2975 61.501562 
L 501.8975 61.501562 
" style="fill:none;stroke:#000000;stroke-linecap:square;stroke-linejoin:miter;stroke-width:0.8;"/>
   </g>
   <g id="text_19">
    <!-- HEALTHY LIVE COUNT -->
    <g transform="translate(168.417813 25.094531)scale(0.25 -0.25)">
     <use xlink:href="#Arial-BoldMT-72"/>
     <use x="72.216797" xlink:href="#Arial-BoldMT-69"/>
     <use x="138.916016" xlink:href="#Arial-BoldMT-65"/>
     <use x="211.132812" xlink:href="#Arial-BoldMT-76"/>
     <use x="272.107422" xlink:href="#Arial-BoldMT-84"/>
     <use x="333.191406" xlink:href="#Arial-BoldMT-72"/>
     <use x="405.408203" xlink:href="#Arial-BoldMT-89"/>
     <use x="472.091797" xlink:href="#Arial-BoldMT-32"/>
     <use x="499.875" xlink:href="#Arial-BoldMT-76"/>
     <use x="560.958984" xlink:href="#Arial-BoldMT-73"/>
     <use x="588.742188" xlink:href="#Arial-BoldMT-86"/>
     <use x="655.441406" xlink:href="#Arial-BoldMT-69"/>
     <use x="722.140625" xlink:href="#Arial-BoldMT-32"/>
     <use x="749.923828" xlink:href="#Arial-BoldMT-67"/>
     <use x="822.140625" xlink:href="#Arial-BoldMT-79"/>
     <use x="899.923828" xlink:href="#Arial-BoldMT-85"/>
     <use x="972.140625" xlink:href="#Arial-BoldMT-78"/>
     <use x="1044.357422" xlink:href="#Arial-BoldMT-84"/>
    </g>
    <!-- OVER TIME NORAMLIZED -->
    <g transform="translate(151.044766 51.501562)scale(0.25 -0.25)">
     <use xlink:href="#Arial-BoldMT-79"/>
     <use x="77.783203" xlink:href="#Arial-BoldMT-86"/>
     <use x="144.482422" xlink:href="#Arial-BoldMT-69"/>
     <use x="211.181641" xlink:href="#Arial-BoldMT-82"/>
     <use x="283.398438" xlink:href="#Arial-BoldMT-32"/>
     <use x="311.181641" xlink:href="#Arial-BoldMT-84"/>
     <use x="372.265625" xlink:href="#Arial-BoldMT-73"/>
     <use x="400.048828" xlink:href="#Arial-BoldMT-77"/>
     <use x="483.349609" xlink:href="#Arial-BoldMT-69"/>
     <use x="550.048828" xlink:href="#Arial-BoldMT-32"/>
     <use x="577.832031" xlink:href="#Arial-BoldMT-78"/>
     <use x="650.048828" xlink:href="#Arial-BoldMT-79"/>
     <use x="727.832031" xlink:href="#Arial-BoldMT-82"/>
     <use x="800.048828" xlink:href="#Arial-BoldMT-65"/>
     <use x="872.265625" xlink:href="#Arial-BoldMT-77"/>
     <use x="955.566406" xlink:href="#Arial-BoldMT-76"/>
     <use x="1016.650391" xlink:href="#Arial-BoldMT-73"/>
     <use x="1044.433594" xlink:href="#Arial-BoldMT-90"/>
     <use x="1105.517578" xlink:href="#Arial-BoldMT-69"/>
     <use x="1172.216797" xlink:href="#Arial-BoldMT-68"/>
    </g>
   </g>
   <g id="legend_1">
    <g id="line2d_89">
     <path d="M 510.8975 74.6 
L 530.8975 74.6 
" style="fill:none;stroke:#000000;stroke-linecap:square;stroke-width:1.5;"/>
    </g>
    <g id="line2d_90"/>
    <g id="text_20">
     <!-- 0 -->
     <g transform="translate(538.8975 78.1)scale(0.1 -0.1)">
      <use xlink:href="#DejaVuSans-48"/>
     </g>
    </g>
    <g id="line2d_91">
     <path d="M 510.8975 89.278125 
L 530.8975 89.278125 
" style="fill:none;stroke:#d0e1f2;stroke-linecap:square;stroke-width:1.5;"/>
    </g>
    <g id="line2d_92"/>
    <g id="text_21">
     <!-- 100 -->
     <g transform="translate(538.8975 92.778125)scale(0.1 -0.1)">
      <use xlink:href="#DejaVuSans-49"/>
      <use x="63.623047" xlink:href="#DejaVuSans-48"/>
      <use x="127.246094" xlink:href="#DejaVuSans-48"/>
     </g>
    </g>
    <g id="line2d_93">
     <path d="M 510.8975 103.95625 
L 530.8975 103.95625 
" style="fill:none;stroke:#94c4df;stroke-linecap:square;stroke-width:1.5;"/>
    </g>
    <g id="line2d_94"/>
    <g id="text_22">
     <!-- 500 -->
     <g transform="translate(538.8975 107.45625)scale(0.1 -0.1)">
      <use xlink:href="#DejaVuSans-53"/>
      <use x="63.623047" xlink:href="#DejaVuSans-48"/>
      <use x="127.246094" xlink:href="#DejaVuSans-48"/>
     </g>
    </g>
    <g id="line2d_95">
     <path d="M 510.8975 118.634375 
L 530.8975 118.634375 
" style="fill:none;stroke:#4a98c9;stroke-linecap:square;stroke-width:1.5;"/>
    </g>
    <g id="line2d_96"/>
    <g id="text_23">
     <!-- 1000 -->
     <g transform="translate(538.8975 122.134375)scale(0.1 -0.1)">
      <use xlink:href="#DejaVuSans-49"/>
      <use x="63.623047" xlink:href="#DejaVuSans-48"/>
      <use x="127.246094" xlink:href="#DejaVuSans-48"/>
      <use x="190.869141" xlink:href="#DejaVuSans-48"/>
     </g>
    </g>
    <g id="line2d_97">
     <path d="M 510.8975 133.3125 
L 530.8975 133.3125 
" style="fill:none;stroke:#1764ab;stroke-linecap:square;stroke-width:1.5;"/>
    </g>
    <g id="line2d_98"/>
    <g id="text_24">
     <!-- 5000 -->
     <g transform="translate(538.8975 136.8125)scale(0.1 -0.1)">
      <use xlink:href="#DejaVuSans-53"/>
      <use x="63.623047" xlink:href="#DejaVuSans-48"/>
      <use x="127.246094" xlink:href="#DejaVuSans-48"/>
      <use x="190.869141" xlink:href="#DejaVuSans-48"/>
     </g>
    </g>
    <g id="line2d_99">
     <path d="M 510.8975 147.990625 
L 530.8975 147.990625 
" style="fill:none;stroke:#08306b;stroke-linecap:square;stroke-width:1.5;"/>
    </g>
    <g id="line2d_100"/>
    <g id="text_25">
     <!-- 10000 -->
     <g transform="translate(538.8975 151.490625)scale(0.1 -0.1)">
      <use xlink:href="#DejaVuSans-49"/>
      <use x="63.623047" xlink:href="#DejaVuSans-48"/>
      <use x="127.246094" xlink:href="#DejaVuSans-48"/>
      <use x="190.869141" xlink:href="#DejaVuSans-48"/>
      <use x="254.492188" xlink:href="#DejaVuSans-48"/>
     </g>
    </g>
    <g id="line2d_101">
     <path d="M 510.8975 162.66875 
L 530.8975 162.66875 
" style="fill:none;stroke:#000000;stroke-linecap:square;stroke-width:1.5;"/>
    </g>
    <g id="line2d_102"/>
    <g id="text_26">
     <!-- 0 -->
     <g transform="translate(538.8975 166.16875)scale(0.1 -0.1)">
      <use xlink:href="#DejaVuSans-48"/>
     </g>
    </g>
    <g id="line2d_103">
     <path d="M 510.8975 177.346875 
L 530.8975 177.346875 
" style="fill:none;stroke:#000000;stroke-dasharray:1.5,2.475;stroke-dashoffset:0;stroke-width:1.5;"/>
    </g>
    <g id="line2d_104"/>
    <g id="text_27">
     <!-- 250 -->
     <g transform="translate(538.8975 180.846875)scale(0.1 -0.1)">
      <use xlink:href="#DejaVuSans-50"/>
      <use x="63.623047" xlink:href="#DejaVuSans-53"/>
      <use x="127.246094" xlink:href="#DejaVuSans-48"/>
     </g>
    </g>
    <g id="line2d_105">
     <path d="M 510.8975 192.025 
L 530.8975 192.025 
" style="fill:none;stroke:#000000;stroke-linecap:square;stroke-width:1.5;"/>
    </g>
    <g id="line2d_106"/>
    <g id="text_28">
     <!-- 500 -->
     <g transform="translate(538.8975 195.525)scale(0.1 -0.1)">
      <use xlink:href="#DejaVuSans-53"/>
      <use x="63.623047" xlink:href="#DejaVuSans-48"/>
      <use x="127.246094" xlink:href="#DejaVuSans-48"/>
     </g>
    </g>
    <g id="line2d_107">
     <path d="M 510.8975 206.703125 
L 530.8975 206.703125 
" style="fill:none;stroke:#000000;stroke-dasharray:5.55,2.4;stroke-dashoffset:0;stroke-width:1.5;"/>
    </g>
    <g id="line2d_108"/>
    <g id="text_29">
     <!-- 1000 -->
     <g transform="translate(538.8975 210.203125)scale(0.1 -0.1)">
      <use xlink:href="#DejaVuSans-49"/>
      <use x="63.623047" xlink:href="#DejaVuSans-48"/>
      <use x="127.246094" xlink:href="#DejaVuSans-48"/>
      <use x="190.869141" xlink:href="#DejaVuSans-48"/>
     </g>
    </g>
    <g id="line2d_109">
     <path d="M 510.8975 221.38125 
L 530.8975 221.38125 
" style="fill:none;stroke:#000000;stroke-dasharray:9.6,2.4,1.5,2.4;stroke-dashoffset:0;stroke-width:1.5;"/>
    </g>
    <g id="line2d_110"/>
    <g id="text_30">
     <!-- 5000 -->
     <g transform="translate(538.8975 224.88125)scale(0.1 -0.1)">
      <use xlink:href="#DejaVuSans-53"/>
      <use x="63.623047" xlink:href="#DejaVuSans-48"/>
      <use x="127.246094" xlink:href="#DejaVuSans-48"/>
      <use x="190.869141" xlink:href="#DejaVuSans-48"/>
     </g>
    </g>
    <g id="line2d_111">
     <path d="M 510.8975 236.059375 
L 530.8975 236.059375 
" style="fill:none;stroke:#000000;stroke-dasharray:9.6,2.4,1.5,2.4;stroke-dashoffset:0;stroke-width:1.5;"/>
    </g>
    <g id="line2d_112"/>
    <g id="text_31">
     <!-- 10000 -->
     <g transform="translate(538.8975 239.559375)scale(0.1 -0.1)">
      <use xlink:href="#DejaVuSans-49"/>
      <use x="63.623047" xlink:href="#DejaVuSans-48"/>
      <use x="127.246094" xlink:href="#DejaVuSans-48"/>
      <use x="190.869141" xlink:href="#DejaVuSans-48"/>
      <use x="254.492188" xlink:href="#DejaVuSans-48"/>
     </g>
    </g>
   </g>
  </g>
 </g>
 <defs>
  <clipPath id="pcd8ed21c3e">
   <rect height="380.52" width="390.6" x="111.2975" y="61.501562"/>
  </clipPath>
 </defs>
</svg>
