<?xml version="1.0" encoding="utf-8" standalone="no"?>
<!DOCTYPE svg PUBLIC "-//W3C//DTD SVG 1.1//EN"
  "http://www.w3.org/Graphics/SVG/1.1/DTD/svg11.dtd">
<!-- Created with matplotlib (https://matplotlib.org/) -->
<svg height="514.024687pt" version="1.1" viewBox="0 0 592.139688 514.024687" width="592.139688pt" xmlns="http://www.w3.org/2000/svg" xmlns:xlink="http://www.w3.org/1999/xlink">
 <defs>
  <style type="text/css">
*{stroke-linecap:butt;stroke-linejoin:round;}
  </style>
 </defs>
 <g id="figure_1">
  <g id="patch_1">
   <path d="M -0 514.024687 
L 592.139688 514.024687 
L 592.139688 0 
L -0 0 
z
" style="fill:#ffffff;"/>
  </g>
  <g id="axes_1">
   <g id="patch_2">
    <path d="M 120.850625 442.021562 
L 511.450625 442.021562 
L 511.450625 61.501562 
L 120.850625 61.501562 
z
" style="fill:#ffffff;"/>
   </g>
   <g id="matplotlib.axis_1">
    <g id="xtick_1">
     <g id="line2d_1">
      <defs>
       <path d="M 0 0 
L 0 3.5 
" id="m90e2dd8b78" style="stroke:#000000;stroke-width:0.8;"/>
      </defs>
      <g>
       <use style="stroke:#000000;stroke-width:0.8;" x="120.850625" xlink:href="#m90e2dd8b78" y="442.021562"/>
      </g>
     </g>
     <g id="text_1">
      <!-- 0 -->
      <defs>
       <path d="M 31.78125 66.40625 
Q 24.171875 66.40625 20.328125 58.90625 
Q 16.5 51.421875 16.5 36.375 
Q 16.5 21.390625 20.328125 13.890625 
Q 24.171875 6.390625 31.78125 6.390625 
Q 39.453125 6.390625 43.28125 13.890625 
Q 47.125 21.390625 47.125 36.375 
Q 47.125 51.421875 43.28125 58.90625 
Q 39.453125 66.40625 31.78125 66.40625 
z
M 31.78125 74.21875 
Q 44.046875 74.21875 50.515625 64.515625 
Q 56.984375 54.828125 56.984375 36.375 
Q 56.984375 17.96875 50.515625 8.265625 
Q 44.046875 -1.421875 31.78125 -1.421875 
Q 19.53125 -1.421875 13.0625 8.265625 
Q 6.59375 17.96875 6.59375 36.375 
Q 6.59375 54.828125 13.0625 64.515625 
Q 19.53125 74.21875 31.78125 74.21875 
z
" id="DejaVuSans-48"/>
      </defs>
      <g transform="translate(111.306875 471.816875)scale(0.3 -0.3)">
       <use xlink:href="#DejaVuSans-48"/>
      </g>
     </g>
    </g>
    <g id="xtick_2">
     <g id="line2d_2">
      <g>
       <use style="stroke:#000000;stroke-width:0.8;" x="176.650625" xlink:href="#m90e2dd8b78" y="442.021562"/>
      </g>
     </g>
     <g id="text_2">
      <!-- 1 -->
      <defs>
       <path d="M 12.40625 8.296875 
L 28.515625 8.296875 
L 28.515625 63.921875 
L 10.984375 60.40625 
L 10.984375 69.390625 
L 28.421875 72.90625 
L 38.28125 72.90625 
L 38.28125 8.296875 
L 54.390625 8.296875 
L 54.390625 0 
L 12.40625 0 
z
" id="DejaVuSans-49"/>
      </defs>
      <g transform="translate(167.106875 471.816875)scale(0.3 -0.3)">
       <use xlink:href="#DejaVuSans-49"/>
      </g>
     </g>
    </g>
    <g id="xtick_3">
     <g id="line2d_3">
      <g>
       <use style="stroke:#000000;stroke-width:0.8;" x="232.450625" xlink:href="#m90e2dd8b78" y="442.021562"/>
      </g>
     </g>
     <g id="text_3">
      <!-- 2 -->
      <defs>
       <path d="M 19.1875 8.296875 
L 53.609375 8.296875 
L 53.609375 0 
L 7.328125 0 
L 7.328125 8.296875 
Q 12.9375 14.109375 22.625 23.890625 
Q 32.328125 33.6875 34.8125 36.53125 
Q 39.546875 41.84375 41.421875 45.53125 
Q 43.3125 49.21875 43.3125 52.78125 
Q 43.3125 58.59375 39.234375 62.25 
Q 35.15625 65.921875 28.609375 65.921875 
Q 23.96875 65.921875 18.8125 64.3125 
Q 13.671875 62.703125 7.8125 59.421875 
L 7.8125 69.390625 
Q 13.765625 71.78125 18.9375 73 
Q 24.125 74.21875 28.421875 74.21875 
Q 39.75 74.21875 46.484375 68.546875 
Q 53.21875 62.890625 53.21875 53.421875 
Q 53.21875 48.921875 51.53125 44.890625 
Q 49.859375 40.875 45.40625 35.40625 
Q 44.1875 33.984375 37.640625 27.21875 
Q 31.109375 20.453125 19.1875 8.296875 
z
" id="DejaVuSans-50"/>
      </defs>
      <g transform="translate(222.906875 471.816875)scale(0.3 -0.3)">
       <use xlink:href="#DejaVuSans-50"/>
      </g>
     </g>
    </g>
    <g id="xtick_4">
     <g id="line2d_4">
      <g>
       <use style="stroke:#000000;stroke-width:0.8;" x="288.250625" xlink:href="#m90e2dd8b78" y="442.021562"/>
      </g>
     </g>
     <g id="text_4">
      <!-- 3 -->
      <defs>
       <path d="M 40.578125 39.3125 
Q 47.65625 37.796875 51.625 33 
Q 55.609375 28.21875 55.609375 21.1875 
Q 55.609375 10.40625 48.1875 4.484375 
Q 40.765625 -1.421875 27.09375 -1.421875 
Q 22.515625 -1.421875 17.65625 -0.515625 
Q 12.796875 0.390625 7.625 2.203125 
L 7.625 11.71875 
Q 11.71875 9.328125 16.59375 8.109375 
Q 21.484375 6.890625 26.8125 6.890625 
Q 36.078125 6.890625 40.9375 10.546875 
Q 45.796875 14.203125 45.796875 21.1875 
Q 45.796875 27.640625 41.28125 31.265625 
Q 36.765625 34.90625 28.71875 34.90625 
L 20.21875 34.90625 
L 20.21875 43.015625 
L 29.109375 43.015625 
Q 36.375 43.015625 40.234375 45.921875 
Q 44.09375 48.828125 44.09375 54.296875 
Q 44.09375 59.90625 40.109375 62.90625 
Q 36.140625 65.921875 28.71875 65.921875 
Q 24.65625 65.921875 20.015625 65.03125 
Q 15.375 64.15625 9.8125 62.3125 
L 9.8125 71.09375 
Q 15.4375 72.65625 20.34375 73.4375 
Q 25.25 74.21875 29.59375 74.21875 
Q 40.828125 74.21875 47.359375 69.109375 
Q 53.90625 64.015625 53.90625 55.328125 
Q 53.90625 49.265625 50.4375 45.09375 
Q 46.96875 40.921875 40.578125 39.3125 
z
" id="DejaVuSans-51"/>
      </defs>
      <g transform="translate(278.706875 471.816875)scale(0.3 -0.3)">
       <use xlink:href="#DejaVuSans-51"/>
      </g>
     </g>
    </g>
    <g id="xtick_5">
     <g id="line2d_5">
      <g>
       <use style="stroke:#000000;stroke-width:0.8;" x="344.050625" xlink:href="#m90e2dd8b78" y="442.021562"/>
      </g>
     </g>
     <g id="text_5">
      <!-- 4 -->
      <defs>
       <path d="M 37.796875 64.3125 
L 12.890625 25.390625 
L 37.796875 25.390625 
z
M 35.203125 72.90625 
L 47.609375 72.90625 
L 47.609375 25.390625 
L 58.015625 25.390625 
L 58.015625 17.1875 
L 47.609375 17.1875 
L 47.609375 0 
L 37.796875 0 
L 37.796875 17.1875 
L 4.890625 17.1875 
L 4.890625 26.703125 
z
" id="DejaVuSans-52"/>
      </defs>
      <g transform="translate(334.506875 471.816875)scale(0.3 -0.3)">
       <use xlink:href="#DejaVuSans-52"/>
      </g>
     </g>
    </g>
    <g id="xtick_6">
     <g id="line2d_6">
      <g>
       <use style="stroke:#000000;stroke-width:0.8;" x="399.850625" xlink:href="#m90e2dd8b78" y="442.021562"/>
      </g>
     </g>
     <g id="text_6">
      <!-- 5 -->
      <defs>
       <path d="M 10.796875 72.90625 
L 49.515625 72.90625 
L 49.515625 64.59375 
L 19.828125 64.59375 
L 19.828125 46.734375 
Q 21.96875 47.46875 24.109375 47.828125 
Q 26.265625 48.1875 28.421875 48.1875 
Q 40.625 48.1875 47.75 41.5 
Q 54.890625 34.8125 54.890625 23.390625 
Q 54.890625 11.625 47.5625 5.09375 
Q 40.234375 -1.421875 26.90625 -1.421875 
Q 22.3125 -1.421875 17.546875 -0.640625 
Q 12.796875 0.140625 7.71875 1.703125 
L 7.71875 11.625 
Q 12.109375 9.234375 16.796875 8.0625 
Q 21.484375 6.890625 26.703125 6.890625 
Q 35.15625 6.890625 40.078125 11.328125 
Q 45.015625 15.765625 45.015625 23.390625 
Q 45.015625 31 40.078125 35.4375 
Q 35.15625 39.890625 26.703125 39.890625 
Q 22.75 39.890625 18.8125 39.015625 
Q 14.890625 38.140625 10.796875 36.28125 
z
" id="DejaVuSans-53"/>
      </defs>
      <g transform="translate(390.306875 471.816875)scale(0.3 -0.3)">
       <use xlink:href="#DejaVuSans-53"/>
      </g>
     </g>
    </g>
    <g id="xtick_7">
     <g id="line2d_7">
      <g>
       <use style="stroke:#000000;stroke-width:0.8;" x="455.650625" xlink:href="#m90e2dd8b78" y="442.021562"/>
      </g>
     </g>
     <g id="text_7">
      <!-- 6 -->
      <defs>
       <path d="M 33.015625 40.375 
Q 26.375 40.375 22.484375 35.828125 
Q 18.609375 31.296875 18.609375 23.390625 
Q 18.609375 15.53125 22.484375 10.953125 
Q 26.375 6.390625 33.015625 6.390625 
Q 39.65625 6.390625 43.53125 10.953125 
Q 47.40625 15.53125 47.40625 23.390625 
Q 47.40625 31.296875 43.53125 35.828125 
Q 39.65625 40.375 33.015625 40.375 
z
M 52.59375 71.296875 
L 52.59375 62.3125 
Q 48.875 64.0625 45.09375 64.984375 
Q 41.3125 65.921875 37.59375 65.921875 
Q 27.828125 65.921875 22.671875 59.328125 
Q 17.53125 52.734375 16.796875 39.40625 
Q 19.671875 43.65625 24.015625 45.921875 
Q 28.375 48.1875 33.59375 48.1875 
Q 44.578125 48.1875 50.953125 41.515625 
Q 57.328125 34.859375 57.328125 23.390625 
Q 57.328125 12.15625 50.6875 5.359375 
Q 44.046875 -1.421875 33.015625 -1.421875 
Q 20.359375 -1.421875 13.671875 8.265625 
Q 6.984375 17.96875 6.984375 36.375 
Q 6.984375 53.65625 15.1875 63.9375 
Q 23.390625 74.21875 37.203125 74.21875 
Q 40.921875 74.21875 44.703125 73.484375 
Q 48.484375 72.75 52.59375 71.296875 
z
" id="DejaVuSans-54"/>
      </defs>
      <g transform="translate(446.106875 471.816875)scale(0.3 -0.3)">
       <use xlink:href="#DejaVuSans-54"/>
      </g>
     </g>
    </g>
    <g id="xtick_8">
     <g id="line2d_8">
      <g>
       <use style="stroke:#000000;stroke-width:0.8;" x="511.450625" xlink:href="#m90e2dd8b78" y="442.021562"/>
      </g>
     </g>
     <g id="text_8">
      <!-- 7 -->
      <defs>
       <path d="M 8.203125 72.90625 
L 55.078125 72.90625 
L 55.078125 68.703125 
L 28.609375 0 
L 18.3125 0 
L 43.21875 64.59375 
L 8.203125 64.59375 
z
" id="DejaVuSans-55"/>
      </defs>
      <g transform="translate(501.906875 471.816875)scale(0.3 -0.3)">
       <use xlink:href="#DejaVuSans-55"/>
      </g>
     </g>
    </g>
    <g id="text_9">
     <!-- TIME (DAYS) -->
     <defs>
      <path d="M 23.390625 0 
L 23.390625 59.46875 
L 2.15625 59.46875 
L 2.15625 71.578125 
L 59.03125 71.578125 
L 59.03125 59.46875 
L 37.84375 59.46875 
L 37.84375 0 
z
" id="Arial-BoldMT-84"/>
      <path d="M 6.84375 0 
L 6.84375 71.578125 
L 21.296875 71.578125 
L 21.296875 0 
z
" id="Arial-BoldMT-73"/>
      <path d="M 7.078125 0 
L 7.078125 71.578125 
L 28.71875 71.578125 
L 41.703125 22.75 
L 54.546875 71.578125 
L 76.21875 71.578125 
L 76.21875 0 
L 62.796875 0 
L 62.796875 56.34375 
L 48.578125 0 
L 34.671875 0 
L 20.515625 56.34375 
L 20.515625 0 
z
" id="Arial-BoldMT-77"/>
      <path d="M 7.28125 0 
L 7.28125 71.578125 
L 60.359375 71.578125 
L 60.359375 59.46875 
L 21.734375 59.46875 
L 21.734375 43.609375 
L 57.671875 43.609375 
L 57.671875 31.546875 
L 21.734375 31.546875 
L 21.734375 12.0625 
L 61.71875 12.0625 
L 61.71875 0 
z
" id="Arial-BoldMT-69"/>
      <path id="Arial-BoldMT-32"/>
      <path d="M 29.9375 -21.046875 
L 20.515625 -21.046875 
Q 13.03125 -9.765625 9.125 2.390625 
Q 5.21875 14.546875 5.21875 25.921875 
Q 5.21875 40.046875 10.0625 52.640625 
Q 14.265625 63.578125 20.703125 72.796875 
L 30.078125 72.796875 
Q 23.390625 58.015625 20.875 47.625 
Q 18.359375 37.25 18.359375 25.640625 
Q 18.359375 17.625 19.84375 9.21875 
Q 21.34375 0.828125 23.921875 -6.734375 
Q 25.640625 -11.71875 29.9375 -21.046875 
z
" id="Arial-BoldMT-40"/>
      <path d="M 7.234375 71.578125 
L 33.640625 71.578125 
Q 42.578125 71.578125 47.265625 70.21875 
Q 53.5625 68.359375 58.046875 63.625 
Q 62.546875 58.890625 64.890625 52.03125 
Q 67.234375 45.171875 67.234375 35.109375 
Q 67.234375 26.265625 65.046875 19.875 
Q 62.359375 12.0625 57.375 7.234375 
Q 53.609375 3.5625 47.21875 1.515625 
Q 42.4375 0 34.421875 0 
L 7.234375 0 
z
M 21.6875 59.46875 
L 21.6875 12.0625 
L 32.46875 12.0625 
Q 38.53125 12.0625 41.21875 12.75 
Q 44.734375 13.625 47.046875 15.71875 
Q 49.359375 17.828125 50.828125 22.625 
Q 52.296875 27.4375 52.296875 35.75 
Q 52.296875 44.046875 50.828125 48.484375 
Q 49.359375 52.9375 46.71875 55.421875 
Q 44.09375 57.90625 40.046875 58.796875 
Q 37.015625 59.46875 28.171875 59.46875 
z
" id="Arial-BoldMT-68"/>
      <path d="M 71.828125 0 
L 56.109375 0 
L 49.859375 16.265625 
L 21.234375 16.265625 
L 15.328125 0 
L 0 0 
L 27.875 71.578125 
L 43.171875 71.578125 
z
M 45.21875 28.328125 
L 35.359375 54.890625 
L 25.6875 28.328125 
z
" id="Arial-BoldMT-65"/>
      <path d="M 26.078125 0 
L 26.078125 30.125 
L -0.140625 71.578125 
L 16.796875 71.578125 
L 33.640625 43.265625 
L 50.140625 71.578125 
L 66.796875 71.578125 
L 40.484375 30.03125 
L 40.484375 0 
z
" id="Arial-BoldMT-89"/>
      <path d="M 3.609375 23.296875 
L 17.671875 24.65625 
Q 18.953125 17.578125 22.828125 14.25 
Q 26.703125 10.9375 33.296875 10.9375 
Q 40.28125 10.9375 43.8125 13.890625 
Q 47.359375 16.84375 47.359375 20.796875 
Q 47.359375 23.34375 45.875 25.125 
Q 44.390625 26.90625 40.671875 28.21875 
Q 38.140625 29.109375 29.109375 31.34375 
Q 17.484375 34.234375 12.796875 38.421875 
Q 6.203125 44.34375 6.203125 52.828125 
Q 6.203125 58.296875 9.296875 63.0625 
Q 12.40625 67.828125 18.234375 70.3125 
Q 24.078125 72.796875 32.328125 72.796875 
Q 45.796875 72.796875 52.609375 66.890625 
Q 59.421875 60.984375 59.765625 51.125 
L 45.3125 50.484375 
Q 44.390625 56 41.328125 58.421875 
Q 38.28125 60.84375 32.171875 60.84375 
Q 25.875 60.84375 22.3125 58.25 
Q 20.015625 56.59375 20.015625 53.8125 
Q 20.015625 51.265625 22.171875 49.46875 
Q 24.90625 47.171875 35.453125 44.671875 
Q 46 42.1875 51.046875 39.515625 
Q 56.109375 36.859375 58.953125 32.25 
Q 61.8125 27.640625 61.8125 20.84375 
Q 61.8125 14.703125 58.390625 9.328125 
Q 54.984375 3.953125 48.734375 1.34375 
Q 42.484375 -1.265625 33.15625 -1.265625 
Q 19.578125 -1.265625 12.296875 5 
Q 5.03125 11.28125 3.609375 23.296875 
z
" id="Arial-BoldMT-83"/>
      <path d="M 3.375 -21.046875 
Q 7.421875 -12.359375 9.078125 -7.71875 
Q 10.75 -3.078125 12.15625 2.96875 
Q 13.578125 9.03125 14.25 14.46875 
Q 14.9375 19.921875 14.9375 25.640625 
Q 14.9375 37.25 12.453125 47.625 
Q 9.96875 58.015625 3.265625 72.796875 
L 12.59375 72.796875 
Q 19.96875 62.3125 24.046875 50.53125 
Q 28.125 38.765625 28.125 26.65625 
Q 28.125 16.453125 24.90625 4.78125 
Q 21.234375 -8.296875 12.84375 -21.046875 
z
" id="Arial-BoldMT-41"/>
     </defs>
     <g transform="translate(255.056875 502.615312)scale(0.2 -0.2)">
      <use xlink:href="#Arial-BoldMT-84"/>
      <use x="61.083984" xlink:href="#Arial-BoldMT-73"/>
      <use x="88.867188" xlink:href="#Arial-BoldMT-77"/>
      <use x="172.167969" xlink:href="#Arial-BoldMT-69"/>
      <use x="238.867188" xlink:href="#Arial-BoldMT-32"/>
      <use x="266.650391" xlink:href="#Arial-BoldMT-40"/>
      <use x="299.951172" xlink:href="#Arial-BoldMT-68"/>
      <use x="372.167969" xlink:href="#Arial-BoldMT-65"/>
      <use x="444.244141" xlink:href="#Arial-BoldMT-89"/>
      <use x="510.943359" xlink:href="#Arial-BoldMT-83"/>
      <use x="577.642578" xlink:href="#Arial-BoldMT-41"/>
     </g>
    </g>
   </g>
   <g id="matplotlib.axis_2">
    <g id="ytick_1">
     <g id="line2d_9">
      <defs>
       <path d="M 0 0 
L -3.5 0 
" id="m0e46e3dca2" style="stroke:#000000;stroke-width:0.8;"/>
      </defs>
      <g>
       <use style="stroke:#000000;stroke-width:0.8;" x="120.850625" xlink:href="#m0e46e3dca2" y="442.021562"/>
      </g>
     </g>
     <g id="text_10">
      <!-- 0 -->
      <g transform="translate(94.763125 453.419219)scale(0.3 -0.3)">
       <use xlink:href="#DejaVuSans-48"/>
      </g>
     </g>
    </g>
    <g id="ytick_2">
     <g id="line2d_10">
      <g>
       <use style="stroke:#000000;stroke-width:0.8;" x="120.850625" xlink:href="#m0e46e3dca2" y="365.917562"/>
      </g>
     </g>
     <g id="text_11">
      <!-- 50 -->
      <g transform="translate(75.675625 377.315219)scale(0.3 -0.3)">
       <use xlink:href="#DejaVuSans-53"/>
       <use x="63.623047" xlink:href="#DejaVuSans-48"/>
      </g>
     </g>
    </g>
    <g id="ytick_3">
     <g id="line2d_11">
      <g>
       <use style="stroke:#000000;stroke-width:0.8;" x="120.850625" xlink:href="#m0e46e3dca2" y="289.813562"/>
      </g>
     </g>
     <g id="text_12">
      <!-- 100 -->
      <g transform="translate(56.588125 301.211219)scale(0.3 -0.3)">
       <use xlink:href="#DejaVuSans-49"/>
       <use x="63.623047" xlink:href="#DejaVuSans-48"/>
       <use x="127.246094" xlink:href="#DejaVuSans-48"/>
      </g>
     </g>
    </g>
    <g id="ytick_4">
     <g id="line2d_12">
      <g>
       <use style="stroke:#000000;stroke-width:0.8;" x="120.850625" xlink:href="#m0e46e3dca2" y="213.709562"/>
      </g>
     </g>
     <g id="text_13">
      <!-- 150 -->
      <g transform="translate(56.588125 225.107219)scale(0.3 -0.3)">
       <use xlink:href="#DejaVuSans-49"/>
       <use x="63.623047" xlink:href="#DejaVuSans-53"/>
       <use x="127.246094" xlink:href="#DejaVuSans-48"/>
      </g>
     </g>
    </g>
    <g id="ytick_5">
     <g id="line2d_13">
      <g>
       <use style="stroke:#000000;stroke-width:0.8;" x="120.850625" xlink:href="#m0e46e3dca2" y="137.605562"/>
      </g>
     </g>
     <g id="text_14">
      <!-- 200 -->
      <g transform="translate(56.588125 149.003219)scale(0.3 -0.3)">
       <use xlink:href="#DejaVuSans-50"/>
       <use x="63.623047" xlink:href="#DejaVuSans-48"/>
       <use x="127.246094" xlink:href="#DejaVuSans-48"/>
      </g>
     </g>
    </g>
    <g id="ytick_6">
     <g id="line2d_14">
      <g>
       <use style="stroke:#000000;stroke-width:0.8;" x="120.850625" xlink:href="#m0e46e3dca2" y="61.501562"/>
      </g>
     </g>
     <g id="text_15">
      <!-- 250 -->
      <g transform="translate(56.588125 72.899219)scale(0.3 -0.3)">
       <use xlink:href="#DejaVuSans-50"/>
       <use x="63.623047" xlink:href="#DejaVuSans-53"/>
       <use x="127.246094" xlink:href="#DejaVuSans-48"/>
      </g>
     </g>
    </g>
    <g id="text_16">
     <!-- T-CELL CELL -->
     <defs>
      <path d="M 5.609375 19.09375 
L 5.609375 32.8125 
L 32.5625 32.8125 
L 32.5625 19.09375 
z
" id="Arial-BoldMT-45"/>
      <path d="M 53.078125 26.3125 
L 67.09375 21.875 
Q 63.875 10.15625 56.375 4.46875 
Q 48.875 -1.21875 37.359375 -1.21875 
Q 23.09375 -1.21875 13.90625 8.515625 
Q 4.734375 18.265625 4.734375 35.15625 
Q 4.734375 53.03125 13.953125 62.90625 
Q 23.1875 72.796875 38.234375 72.796875 
Q 51.375 72.796875 59.578125 65.046875 
Q 64.453125 60.453125 66.890625 51.859375 
L 52.59375 48.4375 
Q 51.3125 54 47.28125 57.21875 
Q 43.265625 60.453125 37.5 60.453125 
Q 29.546875 60.453125 24.578125 54.734375 
Q 19.625 49.03125 19.625 36.234375 
Q 19.625 22.65625 24.5 16.890625 
Q 29.390625 11.140625 37.203125 11.140625 
Q 42.96875 11.140625 47.109375 14.796875 
Q 51.265625 18.453125 53.078125 26.3125 
z
" id="Arial-BoldMT-67"/>
      <path d="M 7.671875 0 
L 7.671875 71 
L 22.125 71 
L 22.125 12.0625 
L 58.0625 12.0625 
L 58.0625 0 
z
" id="Arial-BoldMT-76"/>
     </defs>
     <g transform="translate(21.515625 316.183437)rotate(-90)scale(0.2 -0.2)">
      <use xlink:href="#Arial-BoldMT-84"/>
      <use x="61.005859" xlink:href="#Arial-BoldMT-45"/>
      <use x="94.306641" xlink:href="#Arial-BoldMT-67"/>
      <use x="166.523438" xlink:href="#Arial-BoldMT-69"/>
      <use x="233.222656" xlink:href="#Arial-BoldMT-76"/>
      <use x="294.306641" xlink:href="#Arial-BoldMT-76"/>
      <use x="355.375" xlink:href="#Arial-BoldMT-32"/>
      <use x="383.158203" xlink:href="#Arial-BoldMT-67"/>
      <use x="455.375" xlink:href="#Arial-BoldMT-69"/>
      <use x="522.074219" xlink:href="#Arial-BoldMT-76"/>
      <use x="583.158203" xlink:href="#Arial-BoldMT-76"/>
     </g>
     <!-- COUNTS NORAMLIZED -->
     <defs>
      <path d="M 4.34375 35.359375 
Q 4.34375 46.296875 7.625 53.71875 
Q 10.0625 59.1875 14.28125 63.53125 
Q 18.5 67.875 23.53125 69.96875 
Q 30.21875 72.796875 38.96875 72.796875 
Q 54.78125 72.796875 64.28125 62.984375 
Q 73.78125 53.171875 73.78125 35.6875 
Q 73.78125 18.359375 64.359375 8.5625 
Q 54.9375 -1.21875 39.15625 -1.21875 
Q 23.1875 -1.21875 13.765625 8.515625 
Q 4.34375 18.265625 4.34375 35.359375 
z
M 19.234375 35.84375 
Q 19.234375 23.6875 24.84375 17.40625 
Q 30.46875 11.140625 39.109375 11.140625 
Q 47.75 11.140625 53.296875 17.359375 
Q 58.84375 23.578125 58.84375 36.03125 
Q 58.84375 48.34375 53.4375 54.390625 
Q 48.046875 60.453125 39.109375 60.453125 
Q 30.171875 60.453125 24.703125 54.3125 
Q 19.234375 48.1875 19.234375 35.84375 
z
" id="Arial-BoldMT-79"/>
      <path d="M 7.171875 71.578125 
L 21.625 71.578125 
L 21.625 32.8125 
Q 21.625 23.578125 22.171875 20.84375 
Q 23.09375 16.453125 26.578125 13.796875 
Q 30.078125 11.140625 36.140625 11.140625 
Q 42.28125 11.140625 45.40625 13.640625 
Q 48.53125 16.15625 49.171875 19.8125 
Q 49.8125 23.484375 49.8125 31.984375 
L 49.8125 71.578125 
L 64.265625 71.578125 
L 64.265625 33.984375 
Q 64.265625 21.09375 63.09375 15.765625 
Q 61.921875 10.453125 58.765625 6.78125 
Q 55.609375 3.125 50.328125 0.953125 
Q 45.0625 -1.21875 36.578125 -1.21875 
Q 26.3125 -1.21875 21.015625 1.140625 
Q 15.71875 3.515625 12.640625 7.296875 
Q 9.578125 11.078125 8.59375 15.234375 
Q 7.171875 21.390625 7.171875 33.40625 
z
" id="Arial-BoldMT-85"/>
      <path d="M 7.421875 0 
L 7.421875 71.578125 
L 21.484375 71.578125 
L 50.78125 23.78125 
L 50.78125 71.578125 
L 64.203125 71.578125 
L 64.203125 0 
L 49.703125 0 
L 20.84375 46.6875 
L 20.84375 0 
z
" id="Arial-BoldMT-78"/>
      <path d="M 7.328125 0 
L 7.328125 71.578125 
L 37.75 71.578125 
Q 49.21875 71.578125 54.421875 69.640625 
Q 59.625 67.71875 62.75 62.78125 
Q 65.875 57.859375 65.875 51.515625 
Q 65.875 43.453125 61.125 38.203125 
Q 56.390625 32.953125 46.96875 31.59375 
Q 51.65625 28.859375 54.703125 25.578125 
Q 57.765625 22.3125 62.9375 13.96875 
L 71.6875 0 
L 54.390625 0 
L 43.953125 15.578125 
Q 38.375 23.921875 36.328125 26.09375 
Q 34.28125 28.265625 31.984375 29.078125 
Q 29.6875 29.890625 24.703125 29.890625 
L 21.78125 29.890625 
L 21.78125 0 
z
M 21.78125 41.3125 
L 32.46875 41.3125 
Q 42.875 41.3125 45.453125 42.1875 
Q 48.046875 43.0625 49.515625 45.203125 
Q 50.984375 47.359375 50.984375 50.59375 
Q 50.984375 54.203125 49.046875 56.421875 
Q 47.125 58.640625 43.609375 59.234375 
Q 41.84375 59.46875 33.0625 59.46875 
L 21.78125 59.46875 
z
" id="Arial-BoldMT-82"/>
      <path d="M 1.078125 0 
L 1.078125 13.03125 
L 38.671875 59.46875 
L 5.328125 59.46875 
L 5.328125 71.578125 
L 57.71875 71.578125 
L 57.71875 60.359375 
L 18.5 12.0625 
L 59.234375 12.0625 
L 59.234375 0 
z
" id="Arial-BoldMT-90"/>
     </defs>
     <g transform="translate(42.64125 363.420937)rotate(-90)scale(0.2 -0.2)">
      <use xlink:href="#Arial-BoldMT-67"/>
      <use x="72.216797" xlink:href="#Arial-BoldMT-79"/>
      <use x="150" xlink:href="#Arial-BoldMT-85"/>
      <use x="222.216797" xlink:href="#Arial-BoldMT-78"/>
      <use x="294.433594" xlink:href="#Arial-BoldMT-84"/>
      <use x="355.517578" xlink:href="#Arial-BoldMT-83"/>
      <use x="422.216797" xlink:href="#Arial-BoldMT-32"/>
      <use x="450" xlink:href="#Arial-BoldMT-78"/>
      <use x="522.216797" xlink:href="#Arial-BoldMT-79"/>
      <use x="600" xlink:href="#Arial-BoldMT-82"/>
      <use x="672.216797" xlink:href="#Arial-BoldMT-65"/>
      <use x="744.433594" xlink:href="#Arial-BoldMT-77"/>
      <use x="827.734375" xlink:href="#Arial-BoldMT-76"/>
      <use x="888.818359" xlink:href="#Arial-BoldMT-73"/>
      <use x="916.601562" xlink:href="#Arial-BoldMT-90"/>
      <use x="977.685547" xlink:href="#Arial-BoldMT-69"/>
      <use x="1044.384766" xlink:href="#Arial-BoldMT-68"/>
     </g>
    </g>
   </g>
   <g id="line2d_15">
    <path clip-path="url(#p2c5c95685a)" d="M 120.850625 442.021562 
L 148.750625 440.499482 
L 176.650625 439.056551 
L 204.550625 436.672973 
L 232.450625 432.319825 
L 260.350625 421.62569 
L 288.250625 401.491616 
L 316.150625 361.911448 
L 344.050625 318.827451 
L 371.950625 273.816502 
L 399.850625 213.389926 
L 427.750625 197.383732 
L 455.650625 192.132556 
L 483.550625 186.016839 
L 511.450625 185.240578 
" style="fill:none;stroke:#08306b;stroke-linecap:square;stroke-width:1.5;"/>
   </g>
   <g id="line2d_16">
    <path clip-path="url(#p2c5c95685a)" d="M 120.850625 442.021562 
L 148.750625 440.499482 
L 176.650625 439.056551 
L 204.550625 436.672973 
L 232.450625 432.322869 
L 260.350625 421.631779 
L 288.250625 401.49466 
L 316.150625 361.917536 
L 344.050625 318.845716 
L 371.950625 274.114829 
L 399.850625 218.595439 
L 427.750625 205.685157 
L 455.650625 198.580087 
L 483.550625 193.53287 
L 511.450625 190.951422 
" style="fill:none;stroke:#08306b;stroke-dasharray:5.55,2.4;stroke-dashoffset:0;stroke-width:1.5;"/>
   </g>
   <g id="line2d_17">
    <path clip-path="url(#p2c5c95685a)" d="M 120.850625 442.021562 
L 148.750625 440.499482 
L 176.650625 439.053506 
L 204.550625 436.630355 
L 232.450625 432.313736 
L 260.350625 421.756589 
L 288.250625 401.662089 
L 316.150625 363.85971 
L 344.050625 322.340412 
L 371.950625 268.614032 
L 399.850625 215.727841 
L 427.750625 196.041258 
L 455.650625 190.558726 
L 483.550625 185.289285 
L 511.450625 184.041179 
" style="fill:none;stroke:#08306b;stroke-linecap:square;stroke-width:1.5;"/>
   </g>
   <g id="line2d_18">
    <path clip-path="url(#p2c5c95685a)" d="M 120.850625 442.021562 
L 148.750625 440.499482 
L 176.650625 439.053506 
L 204.550625 436.630355 
L 232.450625 432.313736 
L 260.350625 421.756589 
L 288.250625 401.671222 
L 316.150625 363.871887 
L 344.050625 322.386074 
L 371.950625 269.694709 
L 399.850625 222.135797 
L 427.750625 207.255943 
L 455.650625 200.1113 
L 483.550625 193.992538 
L 511.450625 190.975776 
" style="fill:none;stroke:#08306b;stroke-dasharray:5.55,2.4;stroke-dashoffset:0;stroke-width:1.5;"/>
   </g>
   <g id="line2d_19">
    <path clip-path="url(#p2c5c95685a)" d="M 120.850625 442.021562 
L 148.750625 440.499482 
L 176.650625 439.047418 
L 204.550625 436.666885 
L 232.450625 432.039762 
L 260.350625 421.096007 
L 288.250625 400.38963 
L 316.150625 360.864257 
L 344.050625 316.593038 
L 371.950625 266.047805 
L 399.850625 211.316853 
L 427.750625 193.520693 
L 455.650625 188.662214 
L 483.550625 182.765676 
L 511.450625 181.904179 
" style="fill:none;stroke:#08306b;stroke-linecap:square;stroke-width:1.5;"/>
   </g>
   <g id="line2d_20">
    <path clip-path="url(#p2c5c95685a)" d="M 120.850625 442.021562 
L 148.750625 440.499482 
L 176.650625 439.047418 
L 204.550625 436.666885 
L 232.450625 432.042806 
L 260.350625 421.096007 
L 288.250625 400.38963 
L 316.150625 360.876434 
L 344.050625 316.629568 
L 371.950625 266.90017 
L 399.850625 218.68372 
L 427.750625 204.60448 
L 455.650625 197.724678 
L 483.550625 191.773346 
L 511.450625 188.452167 
" style="fill:none;stroke:#08306b;stroke-dasharray:5.55,2.4;stroke-dashoffset:0;stroke-width:1.5;"/>
   </g>
   <g id="line2d_21">
    <path clip-path="url(#p2c5c95685a)" d="M 120.850625 442.021562 
L 148.750625 440.499482 
L 176.650625 439.080904 
L 204.550625 436.691238 
L 232.450625 432.274162 
L 260.350625 421.790075 
L 288.250625 401.506837 
L 316.150625 362.514192 
L 344.050625 319.217104 
L 371.950625 269.399426 
L 399.850625 209.840435 
L 427.750625 195.602899 
L 455.650625 190.433915 
L 483.550625 184.443008 
L 511.450625 183.831132 
" style="fill:none;stroke:#08306b;stroke-linecap:square;stroke-width:1.5;"/>
   </g>
   <g id="line2d_22">
    <path clip-path="url(#p2c5c95685a)" d="M 120.850625 442.021562 
L 148.750625 440.499482 
L 176.650625 439.080904 
L 204.550625 436.691238 
L 232.450625 432.274162 
L 260.350625 421.799208 
L 288.250625 401.512925 
L 316.150625 362.52028 
L 344.050625 319.259722 
L 371.950625 270.32485 
L 399.850625 216.324496 
L 427.750625 205.496419 
L 455.650625 198.050403 
L 483.550625 192.972745 
L 511.450625 189.797686 
" style="fill:none;stroke:#08306b;stroke-dasharray:5.55,2.4;stroke-dashoffset:0;stroke-width:1.5;"/>
   </g>
   <g id="line2d_23">
    <path clip-path="url(#p2c5c95685a)" d="M 120.850625 442.021562 
L 148.750625 440.499482 
L 176.650625 439.050462 
L 204.550625 436.709503 
L 232.450625 432.545092 
L 260.350625 422.271052 
L 288.250625 403.0898 
L 316.150625 365.698383 
L 344.050625 320.812244 
L 371.950625 280.40102 
L 399.850625 213.472118 
L 427.750625 194.351749 
L 455.650625 193.73074 
L 483.550625 187.441506 
L 511.450625 186.06859 
" style="fill:none;stroke:#08306b;stroke-linecap:square;stroke-width:1.5;"/>
   </g>
   <g id="line2d_24">
    <path clip-path="url(#p2c5c95685a)" d="M 120.850625 442.021562 
L 148.750625 440.499482 
L 176.650625 439.050462 
L 204.550625 436.709503 
L 232.450625 432.545092 
L 260.350625 422.271052 
L 288.250625 403.095889 
L 316.150625 365.713604 
L 344.050625 320.854862 
L 371.950625 280.927659 
L 399.850625 220.531525 
L 427.750625 204.753644 
L 455.650625 199.998666 
L 483.550625 194.315219 
L 511.450625 191.459797 
" style="fill:none;stroke:#08306b;stroke-dasharray:5.55,2.4;stroke-dashoffset:0;stroke-width:1.5;"/>
   </g>
   <g id="line2d_25">
    <path clip-path="url(#p2c5c95685a)" d="M 120.850625 442.021562 
L 148.750625 440.499482 
L 176.650625 439.080904 
L 204.550625 436.715592 
L 232.450625 432.84342 
L 260.350625 422.952944 
L 288.250625 404.365303 
L 316.150625 370.115459 
L 344.050625 327.914269 
L 371.950625 283.140764 
L 399.850625 222.814645 
L 427.750625 201.295478 
L 455.650625 194.223894 
L 483.550625 189.271046 
L 511.450625 186.102075 
" style="fill:none;stroke:#08306b;stroke-linecap:square;stroke-width:1.5;"/>
   </g>
   <g id="line2d_26">
    <path clip-path="url(#p2c5c95685a)" d="M 120.850625 442.021562 
L 148.750625 440.499482 
L 176.650625 439.080904 
L 204.550625 436.715592 
L 232.450625 432.84342 
L 260.350625 422.955988 
L 288.250625 404.371392 
L 316.150625 370.118503 
L 344.050625 327.941666 
L 371.950625 283.51824 
L 399.850625 227.898392 
L 427.750625 210.522327 
L 455.650625 202.55576 
L 483.550625 197.700325 
L 511.450625 193.554179 
" style="fill:none;stroke:#08306b;stroke-dasharray:5.55,2.4;stroke-dashoffset:0;stroke-width:1.5;"/>
   </g>
   <g id="line2d_27">
    <path clip-path="url(#p2c5c95685a)" d="M 120.850625 442.021562 
L 148.750625 440.499482 
L 176.650625 439.056551 
L 204.550625 436.61209 
L 232.450625 431.997144 
L 260.350625 421.260391 
L 288.250625 400.934535 
L 316.150625 361.500486 
L 344.050625 317.883762 
L 371.950625 272.641456 
L 399.850625 211.188998 
L 427.750625 196.214775 
L 455.650625 190.662227 
L 483.550625 186.345608 
L 511.450625 183.678924 
" style="fill:none;stroke:#08306b;stroke-linecap:square;stroke-width:1.5;"/>
   </g>
   <g id="line2d_28">
    <path clip-path="url(#p2c5c95685a)" d="M 120.850625 442.021562 
L 148.750625 440.499482 
L 176.650625 439.056551 
L 204.550625 436.615134 
L 232.450625 431.997144 
L 260.350625 421.263435 
L 288.250625 400.940623 
L 316.150625 361.512663 
L 344.050625 317.908115 
L 371.950625 273.232023 
L 399.850625 217.752207 
L 427.750625 205.700378 
L 455.650625 198.680545 
L 483.550625 193.858595 
L 511.450625 190.382164 
" style="fill:none;stroke:#08306b;stroke-dasharray:5.55,2.4;stroke-dashoffset:0;stroke-width:1.5;"/>
   </g>
   <g id="line2d_29">
    <path clip-path="url(#p2c5c95685a)" d="M 120.850625 442.021562 
L 148.750625 440.499482 
L 176.650625 439.056551 
L 204.550625 436.694282 
L 232.450625 432.408105 
L 260.350625 422.091447 
L 288.250625 402.395732 
L 316.150625 364.663369 
L 344.050625 321.244514 
L 371.950625 272.44663 
L 399.850625 211.937861 
L 427.750625 196.385248 
L 455.650625 192.957524 
L 483.550625 187.365402 
L 511.450625 186.72004 
" style="fill:none;stroke:#08306b;stroke-linecap:square;stroke-width:1.5;"/>
   </g>
   <g id="line2d_30">
    <path clip-path="url(#p2c5c95685a)" d="M 120.850625 442.021562 
L 148.750625 440.499482 
L 176.650625 439.056551 
L 204.550625 436.697327 
L 232.450625 432.414194 
L 260.350625 422.097535 
L 288.250625 402.40182 
L 316.150625 364.675545 
L 344.050625 321.265824 
L 371.950625 272.927607 
L 399.850625 218.217963 
L 427.750625 204.985 
L 455.650625 198.388305 
L 483.550625 194.004715 
L 511.450625 191.499371 
" style="fill:none;stroke:#08306b;stroke-dasharray:5.55,2.4;stroke-dashoffset:0;stroke-width:1.5;"/>
   </g>
   <g id="line2d_31">
    <path clip-path="url(#p2c5c95685a)" d="M 120.850625 442.021562 
L 148.750625 440.499482 
L 176.650625 439.074816 
L 204.550625 436.755166 
L 232.450625 432.417238 
L 260.350625 421.899665 
L 288.250625 401.726017 
L 316.150625 364.346776 
L 344.050625 319.765053 
L 371.950625 272.133081 
L 399.850625 208.966761 
L 427.750625 192.570915 
L 455.650625 188.997072 
L 483.550625 184.409522 
L 511.450625 183.444524 
" style="fill:none;stroke:#08306b;stroke-linecap:square;stroke-width:1.5;"/>
   </g>
   <g id="line2d_32">
    <path clip-path="url(#p2c5c95685a)" d="M 120.850625 442.021562 
L 148.750625 440.499482 
L 176.650625 439.074816 
L 204.550625 436.755166 
L 232.450625 432.417238 
L 260.350625 421.899665 
L 288.250625 401.729061 
L 316.150625 364.358953 
L 344.050625 319.786362 
L 371.950625 272.413144 
L 399.850625 214.671517 
L 427.750625 201.073254 
L 455.650625 194.997111 
L 483.550625 190.945334 
L 511.450625 188.376063 
" style="fill:none;stroke:#08306b;stroke-dasharray:5.55,2.4;stroke-dashoffset:0;stroke-width:1.5;"/>
   </g>
   <g id="line2d_33">
    <path clip-path="url(#p2c5c95685a)" d="M 120.850625 442.021562 
L 148.750625 440.499482 
L 176.650625 439.065683 
L 204.550625 436.599914 
L 232.450625 432.392884 
L 260.350625 421.802252 
L 288.250625 401.312011 
L 316.150625 362.690753 
L 344.050625 317.981175 
L 371.950625 267.283734 
L 399.850625 210.689756 
L 427.750625 193.98645 
L 455.650625 190.90576 
L 483.550625 186.540434 
L 511.450625 184.138592 
" style="fill:none;stroke:#08306b;stroke-linecap:square;stroke-width:1.5;"/>
   </g>
   <g id="line2d_34">
    <path clip-path="url(#p2c5c95685a)" d="M 120.850625 442.021562 
L 148.750625 440.499482 
L 176.650625 439.065683 
L 204.550625 436.599914 
L 232.450625 432.392884 
L 260.350625 421.805296 
L 288.250625 401.315055 
L 316.150625 362.699885 
L 344.050625 318.045102 
L 371.950625 267.865169 
L 399.850625 217.009432 
L 427.750625 203.100665 
L 455.650625 197.283275 
L 483.550625 193.051893 
L 511.450625 189.928585 
" style="fill:none;stroke:#08306b;stroke-dasharray:5.55,2.4;stroke-dashoffset:0;stroke-width:1.5;"/>
   </g>
   <g id="line2d_35">
    <path clip-path="url(#p2c5c95685a)" d="M 120.850625 442.021562 
L 148.750625 440.499482 
L 176.650625 439.056551 
L 204.550625 437.464455 
L 232.450625 435.230042 
L 260.350625 429.376122 
L 288.250625 420.709398 
L 316.150625 405.704734 
L 344.050625 383.935946 
L 371.950625 365.911474 
L 399.850625 331.320684 
L 427.750625 285.621754 
L 455.650625 265.094983 
L 483.550625 237.740162 
L 511.450625 213.53909 
" style="fill:none;stroke:#4a98c9;stroke-linecap:square;stroke-width:1.5;"/>
   </g>
   <g id="line2d_36">
    <path clip-path="url(#p2c5c95685a)" d="M 120.850625 442.021562 
L 148.750625 440.499482 
L 176.650625 439.059595 
L 204.550625 437.467499 
L 232.450625 435.230042 
L 260.350625 429.376122 
L 288.250625 420.709398 
L 316.150625 405.704734 
L 344.050625 383.93899 
L 371.950625 366.024108 
L 399.850625 335.089354 
L 427.750625 299.506168 
L 455.650625 279.545611 
L 483.550625 258.44045 
L 511.450625 237.21961 
" style="fill:none;stroke:#4a98c9;stroke-dasharray:5.55,2.4;stroke-dashoffset:0;stroke-width:1.5;"/>
   </g>
   <g id="line2d_37">
    <path clip-path="url(#p2c5c95685a)" d="M 120.850625 442.021562 
L 148.750625 440.499482 
L 176.650625 439.050462 
L 204.550625 437.303114 
L 232.450625 434.904316 
L 260.350625 428.478095 
L 288.250625 418.825063 
L 316.150625 401.671222 
L 344.050625 378.885684 
L 371.950625 362.657267 
L 399.850625 324.261277 
L 427.750625 273.451202 
L 455.650625 254.778325 
L 483.550625 233.715782 
L 511.450625 210.628873 
" style="fill:none;stroke:#4a98c9;stroke-linecap:square;stroke-width:1.5;"/>
   </g>
   <g id="line2d_38">
    <path clip-path="url(#p2c5c95685a)" d="M 120.850625 442.021562 
L 148.750625 440.499482 
L 176.650625 439.050462 
L 204.550625 437.303114 
L 232.450625 434.904316 
L 260.350625 428.478095 
L 288.250625 418.825063 
L 316.150625 401.671222 
L 344.050625 378.894817 
L 371.950625 362.879491 
L 399.850625 328.943195 
L 427.750625 290.474145 
L 455.650625 273.034153 
L 483.550625 253.81637 
L 511.450625 233.910608 
" style="fill:none;stroke:#4a98c9;stroke-dasharray:5.55,2.4;stroke-dashoffset:0;stroke-width:1.5;"/>
   </g>
   <g id="line2d_39">
    <path clip-path="url(#p2c5c95685a)" d="M 120.850625 442.021562 
L 148.750625 440.499482 
L 176.650625 439.062639 
L 204.550625 437.330512 
L 232.450625 435.093054 
L 260.350625 428.96516 
L 288.250625 420.210156 
L 316.150625 404.569262 
L 344.050625 383.159685 
L 371.950625 366.468555 
L 399.850625 332.489642 
L 427.750625 288.315836 
L 455.650625 263.895584 
L 483.550625 239.676247 
L 511.450625 217.828311 
" style="fill:none;stroke:#4a98c9;stroke-linecap:square;stroke-width:1.5;"/>
   </g>
   <g id="line2d_40">
    <path clip-path="url(#p2c5c95685a)" d="M 120.850625 442.021562 
L 148.750625 440.499482 
L 176.650625 439.062639 
L 204.550625 437.330512 
L 232.450625 435.099143 
L 260.350625 428.971249 
L 288.250625 420.210156 
L 316.150625 404.572306 
L 344.050625 383.168817 
L 371.950625 366.949533 
L 399.850625 336.931071 
L 427.750625 302.060218 
L 455.650625 281.006808 
L 483.550625 260.662686 
L 511.450625 240.163313 
" style="fill:none;stroke:#4a98c9;stroke-dasharray:5.55,2.4;stroke-dashoffset:0;stroke-width:1.5;"/>
   </g>
   <g id="line2d_41">
    <path clip-path="url(#p2c5c95685a)" d="M 120.850625 442.021562 
L 148.750625 440.499482 
L 176.650625 439.068727 
L 204.550625 437.354865 
L 232.450625 435.205688 
L 260.350625 429.083882 
L 288.250625 420.16145 
L 316.150625 405.202447 
L 344.050625 382.447351 
L 371.950625 364.745561 
L 399.850625 329.646396 
L 427.750625 279.770879 
L 455.650625 256.142109 
L 483.550625 233.603148 
L 511.450625 211.95917 
" style="fill:none;stroke:#4a98c9;stroke-linecap:square;stroke-width:1.5;"/>
   </g>
   <g id="line2d_42">
    <path clip-path="url(#p2c5c95685a)" d="M 120.850625 442.021562 
L 148.750625 440.499482 
L 176.650625 439.068727 
L 204.550625 437.354865 
L 232.450625 435.205688 
L 260.350625 429.083882 
L 288.250625 420.16145 
L 316.150625 405.202447 
L 344.050625 382.459528 
L 371.950625 364.83993 
L 399.850625 333.625113 
L 427.750625 295.923192 
L 455.650625 275.07374 
L 483.550625 253.469336 
L 511.450625 234.662516 
" style="fill:none;stroke:#4a98c9;stroke-dasharray:5.55,2.4;stroke-dashoffset:0;stroke-width:1.5;"/>
   </g>
   <g id="line2d_43">
    <path clip-path="url(#p2c5c95685a)" d="M 120.850625 442.021562 
L 148.750625 440.499482 
L 176.650625 439.050462 
L 204.550625 437.193525 
L 232.450625 435.00173 
L 260.350625 428.712495 
L 288.250625 419.184274 
L 316.150625 403.34551 
L 344.050625 382.097273 
L 371.950625 365.36657 
L 399.850625 327.941666 
L 427.750625 280.382755 
L 455.650625 256.413039 
L 483.550625 230.64118 
L 511.450625 208.884569 
" style="fill:none;stroke:#4a98c9;stroke-linecap:square;stroke-width:1.5;"/>
   </g>
   <g id="line2d_44">
    <path clip-path="url(#p2c5c95685a)" d="M 120.850625 442.021562 
L 148.750625 440.499482 
L 176.650625 439.050462 
L 204.550625 437.193525 
L 232.450625 435.00173 
L 260.350625 428.712495 
L 288.250625 419.184274 
L 316.150625 403.34551 
L 344.050625 382.103361 
L 371.950625 365.424409 
L 399.850625 332.91278 
L 427.750625 296.367639 
L 455.650625 273.585146 
L 483.550625 252.437366 
L 511.450625 232.050626 
" style="fill:none;stroke:#4a98c9;stroke-dasharray:5.55,2.4;stroke-dashoffset:0;stroke-width:1.5;"/>
   </g>
   <g id="line2d_45">
    <path clip-path="url(#p2c5c95685a)" d="M 120.850625 442.021562 
L 148.750625 440.499482 
L 176.650625 439.062639 
L 204.550625 437.199613 
L 232.450625 435.050436 
L 260.350625 428.685098 
L 288.250625 419.099038 
L 316.150625 402.733634 
L 344.050625 380.669562 
L 371.950625 363.990609 
L 399.850625 329.521586 
L 427.750625 284.270147 
L 455.650625 262.047779 
L 483.550625 236.67775 
L 511.450625 212.74152 
" style="fill:none;stroke:#4a98c9;stroke-linecap:square;stroke-width:1.5;"/>
   </g>
   <g id="line2d_46">
    <path clip-path="url(#p2c5c95685a)" d="M 120.850625 442.021562 
L 148.750625 440.499482 
L 176.650625 439.062639 
L 204.550625 437.199613 
L 232.450625 435.050436 
L 260.350625 428.685098 
L 288.250625 419.102082 
L 316.150625 402.733634 
L 344.050625 380.67565 
L 371.950625 364.197612 
L 399.850625 333.536833 
L 427.750625 299.646199 
L 455.650625 278.808924 
L 483.550625 258.476979 
L 511.450625 235.974549 
" style="fill:none;stroke:#4a98c9;stroke-dasharray:5.55,2.4;stroke-dashoffset:0;stroke-width:1.5;"/>
   </g>
   <g id="line2d_47">
    <path clip-path="url(#p2c5c95685a)" d="M 120.850625 442.021562 
L 148.750625 440.499482 
L 176.650625 439.086992 
L 204.550625 437.272673 
L 232.450625 434.837345 
L 260.350625 428.429388 
L 288.250625 418.057935 
L 316.150625 401.071522 
L 344.050625 380.407764 
L 371.950625 362.276747 
L 399.850625 321.95076 
L 427.750625 276.607996 
L 455.650625 259.024928 
L 483.550625 231.265233 
L 511.450625 209.950025 
" style="fill:none;stroke:#4a98c9;stroke-linecap:square;stroke-width:1.5;"/>
   </g>
   <g id="line2d_48">
    <path clip-path="url(#p2c5c95685a)" d="M 120.850625 442.021562 
L 148.750625 440.499482 
L 176.650625 439.086992 
L 204.550625 437.272673 
L 232.450625 434.837345 
L 260.350625 428.429388 
L 288.250625 418.057935 
L 316.150625 401.074566 
L 344.050625 380.422985 
L 371.950625 362.523324 
L 399.850625 327.305437 
L 427.750625 293.795324 
L 455.650625 275.673439 
L 483.550625 252.595662 
L 511.450625 232.988228 
" style="fill:none;stroke:#4a98c9;stroke-dasharray:5.55,2.4;stroke-dashoffset:0;stroke-width:1.5;"/>
   </g>
   <g id="line2d_49">
    <path clip-path="url(#p2c5c95685a)" d="M 120.850625 442.021562 
L 148.750625 440.499482 
L 176.650625 439.093081 
L 204.550625 437.260496 
L 232.450625 435.013906 
L 260.350625 428.76729 
L 288.250625 419.540441 
L 316.150625 403.181125 
L 344.050625 382.015081 
L 371.950625 362.486794 
L 399.850625 322.501753 
L 427.750625 276.34011 
L 455.650625 254.251685 
L 483.550625 227.718787 
L 511.450625 208.281825 
" style="fill:none;stroke:#4a98c9;stroke-linecap:square;stroke-width:1.5;"/>
   </g>
   <g id="line2d_50">
    <path clip-path="url(#p2c5c95685a)" d="M 120.850625 442.021562 
L 148.750625 440.499482 
L 176.650625 439.093081 
L 204.550625 437.260496 
L 232.450625 435.013906 
L 260.350625 428.76729 
L 288.250625 419.540441 
L 316.150625 403.184169 
L 344.050625 382.024213 
L 371.950625 362.794254 
L 399.850625 328.203464 
L 427.750625 292.930782 
L 455.650625 273.725177 
L 483.550625 250.626091 
L 511.450625 231.103893 
" style="fill:none;stroke:#4a98c9;stroke-dasharray:5.55,2.4;stroke-dashoffset:0;stroke-width:1.5;"/>
   </g>
   <g id="line2d_51">
    <path clip-path="url(#p2c5c95685a)" d="M 120.850625 442.021562 
L 148.750625 440.499482 
L 176.650625 439.065683 
L 204.550625 437.257452 
L 232.450625 435.032171 
L 260.350625 428.666833 
L 288.250625 418.937697 
L 316.150625 402.152199 
L 344.050625 379.15357 
L 371.950625 360.489825 
L 399.850625 319.183618 
L 427.750625 266.875817 
L 455.650625 245.779788 
L 483.550625 222.631995 
L 511.450625 199.5116 
" style="fill:none;stroke:#4a98c9;stroke-linecap:square;stroke-width:1.5;"/>
   </g>
   <g id="line2d_52">
    <path clip-path="url(#p2c5c95685a)" d="M 120.850625 442.021562 
L 148.750625 440.499482 
L 176.650625 439.065683 
L 204.550625 437.257452 
L 232.450625 435.032171 
L 260.350625 428.666833 
L 288.250625 418.937697 
L 316.150625 402.152199 
L 344.050625 379.162703 
L 371.950625 360.602459 
L 399.850625 325.061891 
L 427.750625 286.601974 
L 455.650625 266.355266 
L 483.550625 245.259237 
L 511.450625 224.236268 
" style="fill:none;stroke:#4a98c9;stroke-dasharray:5.55,2.4;stroke-dashoffset:0;stroke-width:1.5;"/>
   </g>
   <g id="line2d_53">
    <path clip-path="url(#p2c5c95685a)" d="M 120.850625 442.021562 
L 148.750625 440.499482 
L 176.650625 439.044374 
L 204.550625 437.214834 
L 232.450625 434.956067 
L 260.350625 428.499404 
L 288.250625 419.111214 
L 316.150625 403.497718 
L 344.050625 380.307307 
L 371.950625 358.98601 
L 399.850625 321.466738 
L 427.750625 275.338582 
L 455.650625 247.770669 
L 483.550625 222.893793 
L 511.450625 204.711026 
" style="fill:none;stroke:#4a98c9;stroke-linecap:square;stroke-width:1.5;"/>
   </g>
   <g id="line2d_54">
    <path clip-path="url(#p2c5c95685a)" d="M 120.850625 442.021562 
L 148.750625 440.499482 
L 176.650625 439.044374 
L 204.550625 437.214834 
L 232.450625 434.956067 
L 260.350625 428.499404 
L 288.250625 419.114258 
L 316.150625 403.500762 
L 344.050625 380.319483 
L 371.950625 359.381751 
L 399.850625 327.074081 
L 427.750625 291.88968 
L 455.650625 268.397897 
L 483.550625 246.820891 
L 511.450625 228.023203 
" style="fill:none;stroke:#4a98c9;stroke-dasharray:5.55,2.4;stroke-dashoffset:0;stroke-width:1.5;"/>
   </g>
   <g id="line2d_55">
    <path clip-path="url(#p2c5c95685a)" d="M 120.850625 442.021562 
L 148.750625 440.499482 
L 176.650625 439.090036 
L 204.550625 437.704944 
L 232.450625 435.92411 
L 260.350625 431.202618 
L 288.250625 426.268034 
L 316.150625 416.721549 
L 344.050625 401.09892 
L 371.950625 387.193197 
L 399.850625 376.395561 
L 427.750625 367.987591 
L 455.650625 358.651153 
L 483.550625 351.835278 
L 511.450625 344.474499 
" style="fill:none;stroke:#d0e1f2;stroke-linecap:square;stroke-width:1.5;"/>
   </g>
   <g id="line2d_56">
    <path clip-path="url(#p2c5c95685a)" d="M 120.850625 442.021562 
L 148.750625 440.499482 
L 176.650625 439.090036 
L 204.550625 437.704944 
L 232.450625 435.92411 
L 260.350625 431.202618 
L 288.250625 426.268034 
L 316.150625 416.721549 
L 344.050625 401.101964 
L 371.950625 387.196241 
L 399.850625 376.882627 
L 427.750625 369.762337 
L 455.650625 362.55681 
L 483.550625 355.747024 
L 511.450625 348.666308 
" style="fill:none;stroke:#d0e1f2;stroke-dasharray:5.55,2.4;stroke-dashoffset:0;stroke-width:1.5;"/>
   </g>
   <g id="line2d_57">
    <path clip-path="url(#p2c5c95685a)" d="M 120.850625 442.021562 
L 148.750625 440.499482 
L 176.650625 439.062639 
L 204.550625 437.689723 
L 232.450625 435.884536 
L 260.350625 431.150867 
L 288.250625 426.350227 
L 316.150625 416.66371 
L 344.050625 401.290702 
L 371.950625 389.04709 
L 399.850625 376.337722 
L 427.750625 365.610102 
L 455.650625 359.993627 
L 483.550625 351.363434 
L 511.450625 345.16248 
" style="fill:none;stroke:#d0e1f2;stroke-linecap:square;stroke-width:1.5;"/>
   </g>
   <g id="line2d_58">
    <path clip-path="url(#p2c5c95685a)" d="M 120.850625 442.021562 
L 148.750625 440.499482 
L 176.650625 439.062639 
L 204.550625 437.689723 
L 232.450625 435.884536 
L 260.350625 431.150867 
L 288.250625 426.350227 
L 316.150625 416.66371 
L 344.050625 401.290702 
L 371.950625 389.059267 
L 399.850625 377.068321 
L 427.750625 368.316361 
L 455.650625 362.657267 
L 483.550625 355.862702 
L 511.450625 349.232522 
" style="fill:none;stroke:#d0e1f2;stroke-dasharray:5.55,2.4;stroke-dashoffset:0;stroke-width:1.5;"/>
   </g>
   <g id="line2d_59">
    <path clip-path="url(#p2c5c95685a)" d="M 120.850625 442.021562 
L 148.750625 440.499482 
L 176.650625 439.11439 
L 204.550625 437.704944 
L 232.450625 435.881492 
L 260.350625 431.129558 
L 288.250625 425.99406 
L 316.150625 416.423221 
L 344.050625 400.450514 
L 371.950625 387.339316 
L 399.850625 375.905451 
L 427.750625 367.223507 
L 455.650625 360.520267 
L 483.550625 353.034677 
L 511.450625 346.270554 
" style="fill:none;stroke:#d0e1f2;stroke-linecap:square;stroke-width:1.5;"/>
   </g>
   <g id="line2d_60">
    <path clip-path="url(#p2c5c95685a)" d="M 120.850625 442.021562 
L 148.750625 440.499482 
L 176.650625 439.11439 
L 204.550625 437.704944 
L 232.450625 435.881492 
L 260.350625 431.129558 
L 288.250625 425.99406 
L 316.150625 416.423221 
L 344.050625 400.450514 
L 371.950625 387.391067 
L 399.850625 376.763905 
L 427.750625 369.555334 
L 455.650625 363.299585 
L 483.550625 356.839877 
L 511.450625 350.200564 
" style="fill:none;stroke:#d0e1f2;stroke-dasharray:5.55,2.4;stroke-dashoffset:0;stroke-width:1.5;"/>
   </g>
   <g id="line2d_61">
    <path clip-path="url(#p2c5c95685a)" d="M 120.850625 442.021562 
L 148.750625 440.499482 
L 176.650625 439.068727 
L 204.550625 437.48272 
L 232.450625 435.844962 
L 260.350625 430.949953 
L 288.250625 425.440023 
L 316.150625 416.155335 
L 344.050625 399.54031 
L 371.950625 385.887252 
L 399.850625 374.876525 
L 427.750625 364.812532 
L 455.650625 356.81248 
L 483.550625 349.007254 
L 511.450625 340.675388 
" style="fill:none;stroke:#d0e1f2;stroke-linecap:square;stroke-width:1.5;"/>
   </g>
   <g id="line2d_62">
    <path clip-path="url(#p2c5c95685a)" d="M 120.850625 442.021562 
L 148.750625 440.499482 
L 176.650625 439.068727 
L 204.550625 437.48272 
L 232.450625 435.844962 
L 260.350625 430.949953 
L 288.250625 425.440023 
L 316.150625 416.155335 
L 344.050625 399.54031 
L 371.950625 385.948135 
L 399.850625 375.744111 
L 427.750625 367.229595 
L 455.650625 361.043862 
L 483.550625 353.728746 
L 511.450625 345.762179 
" style="fill:none;stroke:#d0e1f2;stroke-dasharray:5.55,2.4;stroke-dashoffset:0;stroke-width:1.5;"/>
   </g>
   <g id="line2d_63">
    <path clip-path="url(#p2c5c95685a)" d="M 120.850625 442.021562 
L 148.750625 440.499482 
L 176.650625 439.068727 
L 204.550625 437.613619 
L 232.450625 435.866271 
L 260.350625 431.120426 
L 288.250625 426.012325 
L 316.150625 416.822006 
L 344.050625 401.625559 
L 371.950625 388.754851 
L 399.850625 376.450356 
L 427.750625 366.133698 
L 455.650625 361.226512 
L 483.550625 352.17318 
L 511.450625 345.128994 
" style="fill:none;stroke:#d0e1f2;stroke-linecap:square;stroke-width:1.5;"/>
   </g>
   <g id="line2d_64">
    <path clip-path="url(#p2c5c95685a)" d="M 120.850625 442.021562 
L 148.750625 440.499482 
L 176.650625 439.068727 
L 204.550625 437.613619 
L 232.450625 435.866271 
L 260.350625 431.120426 
L 288.250625 426.012325 
L 316.150625 416.822006 
L 344.050625 401.628603 
L 371.950625 388.770072 
L 399.850625 376.861318 
L 427.750625 368.502054 
L 455.650625 363.387866 
L 483.550625 355.981424 
L 511.450625 348.626734 
" style="fill:none;stroke:#d0e1f2;stroke-dasharray:5.55,2.4;stroke-dashoffset:0;stroke-width:1.5;"/>
   </g>
   <g id="line2d_65">
    <path clip-path="url(#p2c5c95685a)" d="M 120.850625 442.021562 
L 148.750625 440.499482 
L 176.650625 439.090036 
L 204.550625 437.488808 
L 232.450625 435.838874 
L 260.350625 430.910378 
L 288.250625 425.513083 
L 316.150625 416.188821 
L 344.050625 399.403322 
L 371.950625 386.535658 
L 399.850625 376.066792 
L 427.750625 365.214362 
L 455.650625 356.5933 
L 483.550625 351.926603 
L 511.450625 343.546031 
" style="fill:none;stroke:#d0e1f2;stroke-linecap:square;stroke-width:1.5;"/>
   </g>
   <g id="line2d_66">
    <path clip-path="url(#p2c5c95685a)" d="M 120.850625 442.021562 
L 148.750625 440.499482 
L 176.650625 439.090036 
L 204.550625 437.488808 
L 232.450625 435.838874 
L 260.350625 430.910378 
L 288.250625 425.513083 
L 316.150625 416.188821 
L 344.050625 399.403322 
L 371.950625 386.550879 
L 399.850625 376.949598 
L 427.750625 369.065224 
L 455.650625 362.221952 
L 483.550625 355.835305 
L 511.450625 347.829164 
" style="fill:none;stroke:#d0e1f2;stroke-dasharray:5.55,2.4;stroke-dashoffset:0;stroke-width:1.5;"/>
   </g>
   <g id="line2d_67">
    <path clip-path="url(#p2c5c95685a)" d="M 120.850625 442.021562 
L 148.750625 440.499482 
L 176.650625 439.096125 
L 204.550625 437.610575 
L 232.450625 435.805388 
L 260.350625 430.931688 
L 288.250625 425.762704 
L 316.150625 416.170556 
L 344.050625 399.522045 
L 371.950625 386.444333 
L 399.850625 377.247926 
L 427.750625 369.013473 
L 455.650625 360.337617 
L 483.550625 354.489786 
L 511.450625 346.151832 
" style="fill:none;stroke:#d0e1f2;stroke-linecap:square;stroke-width:1.5;"/>
   </g>
   <g id="line2d_68">
    <path clip-path="url(#p2c5c95685a)" d="M 120.850625 442.021562 
L 148.750625 440.499482 
L 176.650625 439.096125 
L 204.550625 437.610575 
L 232.450625 435.805388 
L 260.350625 430.931688 
L 288.250625 425.762704 
L 316.150625 416.170556 
L 344.050625 399.522045 
L 371.950625 386.465642 
L 399.850625 377.750212 
L 427.750625 370.92825 
L 455.650625 363.917549 
L 483.550625 358.203661 
L 511.450625 350.34364 
" style="fill:none;stroke:#d0e1f2;stroke-dasharray:5.55,2.4;stroke-dashoffset:0;stroke-width:1.5;"/>
   </g>
   <g id="line2d_69">
    <path clip-path="url(#p2c5c95685a)" d="M 120.850625 442.021562 
L 148.750625 440.499482 
L 176.650625 439.071771 
L 204.550625 437.567956 
L 232.450625 435.844962 
L 260.350625 430.980394 
L 288.250625 425.79619 
L 316.150625 416.234483 
L 344.050625 400.261776 
L 371.950625 387.454994 
L 399.850625 376.374252 
L 427.750625 367.120006 
L 455.650625 359.460899 
L 483.550625 350.943339 
L 511.450625 342.599297 
" style="fill:none;stroke:#d0e1f2;stroke-linecap:square;stroke-width:1.5;"/>
   </g>
   <g id="line2d_70">
    <path clip-path="url(#p2c5c95685a)" d="M 120.850625 442.021562 
L 148.750625 440.499482 
L 176.650625 439.071771 
L 204.550625 437.567956 
L 232.450625 435.844962 
L 260.350625 430.980394 
L 288.250625 425.79619 
L 316.150625 416.234483 
L 344.050625 400.261776 
L 371.950625 387.467171 
L 399.850625 376.666491 
L 427.750625 369.034782 
L 455.650625 362.632914 
L 483.550625 355.308665 
L 511.450625 347.412114 
" style="fill:none;stroke:#d0e1f2;stroke-dasharray:5.55,2.4;stroke-dashoffset:0;stroke-width:1.5;"/>
   </g>
   <g id="line2d_71">
    <path clip-path="url(#p2c5c95685a)" d="M 120.850625 442.021562 
L 148.750625 440.499482 
L 176.650625 439.099169 
L 204.550625 437.55578 
L 232.450625 435.805388 
L 260.350625 430.952997 
L 288.250625 425.4522 
L 316.150625 415.90267 
L 344.050625 400.060861 
L 371.950625 386.118608 
L 399.850625 375.381856 
L 427.750625 366.291994 
L 455.650625 356.438048 
L 483.550625 349.786559 
L 511.450625 342.103099 
" style="fill:none;stroke:#d0e1f2;stroke-linecap:square;stroke-width:1.5;"/>
   </g>
   <g id="line2d_72">
    <path clip-path="url(#p2c5c95685a)" d="M 120.850625 442.021562 
L 148.750625 440.499482 
L 176.650625 439.099169 
L 204.550625 437.55578 
L 232.450625 435.805388 
L 260.350625 430.952997 
L 288.250625 425.4522 
L 316.150625 415.90267 
L 344.050625 400.060861 
L 371.950625 386.161226 
L 399.850625 376.225088 
L 427.750625 368.441171 
L 455.650625 360.325441 
L 483.550625 353.606979 
L 511.450625 346.462336 
" style="fill:none;stroke:#d0e1f2;stroke-dasharray:5.55,2.4;stroke-dashoffset:0;stroke-width:1.5;"/>
   </g>
   <g id="line2d_73">
    <path clip-path="url(#p2c5c95685a)" d="M 120.850625 442.021562 
L 148.750625 440.499482 
L 176.650625 439.062639 
L 204.550625 437.601442 
L 232.450625 435.860183 
L 260.350625 431.023012 
L 288.250625 425.692688 
L 316.150625 416.121849 
L 344.050625 400.115656 
L 371.950625 386.560011 
L 399.850625 374.538624 
L 427.750625 365.260024 
L 455.650625 356.304105 
L 483.550625 348.78503 
L 511.450625 340.928053 
" style="fill:none;stroke:#d0e1f2;stroke-linecap:square;stroke-width:1.5;"/>
   </g>
   <g id="line2d_74">
    <path clip-path="url(#p2c5c95685a)" d="M 120.850625 442.021562 
L 148.750625 440.499482 
L 176.650625 439.062639 
L 204.550625 437.601442 
L 232.450625 435.860183 
L 260.350625 431.023012 
L 288.250625 425.692688 
L 316.150625 416.121849 
L 344.050625 400.115656 
L 371.950625 386.596541 
L 399.850625 375.406209 
L 427.750625 367.186977 
L 455.650625 359.874905 
L 483.550625 353.421286 
L 511.450625 346.045286 
" style="fill:none;stroke:#d0e1f2;stroke-dasharray:5.55,2.4;stroke-dashoffset:0;stroke-width:1.5;"/>
   </g>
   <g id="line2d_75">
    <path clip-path="url(#p2c5c95685a)" d="M 120.850625 442.021562 
L 148.750625 440.499482 
L 176.650625 439.047418 
L 204.550625 436.91955 
L 232.450625 433.525312 
L 260.350625 424.624188 
L 288.250625 408.298358 
L 316.150625 378.998318 
L 344.050625 343.415132 
L 371.950625 299.539654 
L 399.850625 231.344381 
L 427.750625 208.729317 
L 455.650625 202.379199 
L 483.550625 194.580061 
L 511.450625 191.292368 
" style="fill:none;stroke:#1764ab;stroke-linecap:square;stroke-width:1.5;"/>
   </g>
   <g id="line2d_76">
    <path clip-path="url(#p2c5c95685a)" d="M 120.850625 442.021562 
L 148.750625 440.499482 
L 176.650625 439.047418 
L 204.550625 436.91955 
L 232.450625 433.525312 
L 260.350625 424.624188 
L 288.250625 408.298358 
L 316.150625 379.00745 
L 344.050625 343.442529 
L 371.950625 299.89582 
L 399.850625 238.711249 
L 427.750625 221.277344 
L 455.650625 212.434059 
L 483.550625 205.210268 
L 511.450625 200.056505 
" style="fill:none;stroke:#1764ab;stroke-dasharray:5.55,2.4;stroke-dashoffset:0;stroke-width:1.5;"/>
   </g>
   <g id="line2d_77">
    <path clip-path="url(#p2c5c95685a)" d="M 120.850625 442.021562 
L 148.750625 440.499482 
L 176.650625 439.074816 
L 204.550625 436.901285 
L 232.450625 433.257426 
L 260.350625 424.240624 
L 288.250625 407.719968 
L 316.150625 377.652799 
L 344.050625 344.654105 
L 371.950625 297.064752 
L 399.850625 235.712751 
L 427.750625 209.231603 
L 455.650625 200.771882 
L 483.550625 191.44762 
L 511.450625 189.554153 
" style="fill:none;stroke:#1764ab;stroke-linecap:square;stroke-width:1.5;"/>
   </g>
   <g id="line2d_78">
    <path clip-path="url(#p2c5c95685a)" d="M 120.850625 442.021562 
L 148.750625 440.499482 
L 176.650625 439.074816 
L 204.550625 436.901285 
L 232.450625 433.26047 
L 260.350625 424.240624 
L 288.250625 407.719968 
L 316.150625 377.658888 
L 344.050625 344.675414 
L 371.950625 297.439183 
L 399.850625 242.811732 
L 427.750625 221.584804 
L 455.650625 211.335118 
L 483.550625 203.465964 
L 511.450625 198.753604 
" style="fill:none;stroke:#1764ab;stroke-dasharray:5.55,2.4;stroke-dashoffset:0;stroke-width:1.5;"/>
   </g>
   <g id="line2d_79">
    <path clip-path="url(#p2c5c95685a)" d="M 120.850625 442.021562 
L 148.750625 440.499482 
L 176.650625 439.059595 
L 204.550625 436.861711 
L 232.450625 433.40659 
L 260.350625 424.541996 
L 288.250625 408.264872 
L 316.150625 377.728903 
L 344.050625 341.567327 
L 371.950625 298.918645 
L 399.850625 227.499607 
L 427.750625 203.529891 
L 455.650625 200.68969 
L 483.550625 187.127957 
L 511.450625 187.06403 
" style="fill:none;stroke:#1764ab;stroke-linecap:square;stroke-width:1.5;"/>
   </g>
   <g id="line2d_80">
    <path clip-path="url(#p2c5c95685a)" d="M 120.850625 442.021562 
L 148.750625 440.499482 
L 176.650625 439.059595 
L 204.550625 436.861711 
L 232.450625 433.40659 
L 260.350625 424.54504 
L 288.250625 408.264872 
L 316.150625 377.744124 
L 344.050625 341.585592 
L 371.950625 299.676641 
L 399.850625 236.924327 
L 427.750625 219.140344 
L 455.650625 211.155512 
L 483.550625 201.590762 
L 511.450625 197.012345 
" style="fill:none;stroke:#1764ab;stroke-dasharray:5.55,2.4;stroke-dashoffset:0;stroke-width:1.5;"/>
   </g>
   <g id="line2d_81">
    <path clip-path="url(#p2c5c95685a)" d="M 120.850625 442.021562 
L 148.750625 440.499482 
L 176.650625 439.056551 
L 204.550625 436.88302 
L 232.450625 433.357883 
L 260.350625 424.243668 
L 288.250625 407.863043 
L 316.150625 378.852198 
L 344.050625 345.570397 
L 371.950625 297.780129 
L 399.850625 230.011039 
L 427.750625 205.834321 
L 455.650625 199.630322 
L 483.550625 190.695713 
L 511.450625 188.835731 
" style="fill:none;stroke:#1764ab;stroke-linecap:square;stroke-width:1.5;"/>
   </g>
   <g id="line2d_82">
    <path clip-path="url(#p2c5c95685a)" d="M 120.850625 442.021562 
L 148.750625 440.499482 
L 176.650625 439.056551 
L 204.550625 436.88302 
L 232.450625 433.360927 
L 260.350625 424.243668 
L 288.250625 407.869131 
L 316.150625 378.870463 
L 344.050625 345.59475 
L 371.950625 298.236753 
L 399.850625 238.522511 
L 427.750625 220.701998 
L 455.650625 211.048967 
L 483.550625 203.429434 
L 511.450625 198.105198 
" style="fill:none;stroke:#1764ab;stroke-dasharray:5.55,2.4;stroke-dashoffset:0;stroke-width:1.5;"/>
   </g>
   <g id="line2d_83">
    <path clip-path="url(#p2c5c95685a)" d="M 120.850625 442.021562 
L 148.750625 440.499482 
L 176.650625 439.029153 
L 204.550625 436.95608 
L 232.450625 433.534444 
L 260.350625 424.593746 
L 288.250625 408.456654 
L 316.150625 378.797403 
L 344.050625 344.048317 
L 371.950625 300.166751 
L 399.850625 233.843637 
L 427.750625 207.207237 
L 455.650625 202.239168 
L 483.550625 192.068629 
L 511.450625 188.738318 
" style="fill:none;stroke:#1764ab;stroke-linecap:square;stroke-width:1.5;"/>
   </g>
   <g id="line2d_84">
    <path clip-path="url(#p2c5c95685a)" d="M 120.850625 442.021562 
L 148.750625 440.499482 
L 176.650625 439.029153 
L 204.550625 436.95608 
L 232.450625 433.534444 
L 260.350625 424.596791 
L 288.250625 408.462743 
L 316.150625 378.806536 
L 344.050625 344.069626 
L 371.950625 300.38593 
L 399.850625 241.828468 
L 427.750625 221.499568 
L 455.650625 212.845021 
L 483.550625 204.437051 
L 511.450625 199.356348 
" style="fill:none;stroke:#1764ab;stroke-dasharray:5.55,2.4;stroke-dashoffset:0;stroke-width:1.5;"/>
   </g>
   <g id="line2d_85">
    <path clip-path="url(#p2c5c95685a)" d="M 120.850625 442.021562 
L 148.750625 440.499482 
L 176.650625 439.074816 
L 204.550625 436.858667 
L 232.450625 433.254382 
L 260.350625 424.252801 
L 288.250625 407.972633 
L 316.150625 378.870463 
L 344.050625 344.252276 
L 371.950625 304.513811 
L 399.850625 242.412947 
L 427.750625 208.351841 
L 455.650625 203.496406 
L 483.550625 194.449162 
L 511.450625 189.83726 
" style="fill:none;stroke:#1764ab;stroke-linecap:square;stroke-width:1.5;"/>
   </g>
   <g id="line2d_86">
    <path clip-path="url(#p2c5c95685a)" d="M 120.850625 442.021562 
L 148.750625 440.499482 
L 176.650625 439.074816 
L 204.550625 436.858667 
L 232.450625 433.254382 
L 260.350625 424.255845 
L 288.250625 407.978721 
L 316.150625 378.88264 
L 344.050625 344.282717 
L 371.950625 304.894331 
L 399.850625 248.680873 
L 427.750625 222.199725 
L 455.650625 213.368617 
L 483.550625 205.201135 
L 511.450625 199.92865 
" style="fill:none;stroke:#1764ab;stroke-dasharray:5.55,2.4;stroke-dashoffset:0;stroke-width:1.5;"/>
   </g>
   <g id="line2d_87">
    <path clip-path="url(#p2c5c95685a)" d="M 120.850625 442.021562 
L 148.750625 440.499482 
L 176.650625 439.065683 
L 204.550625 436.813005 
L 232.450625 432.949966 
L 260.350625 423.102108 
L 288.250625 405.141564 
L 316.150625 372.998279 
L 344.050625 338.413577 
L 371.950625 286.738961 
L 399.850625 226.199751 
L 427.750625 205.161561 
L 455.650625 198.863194 
L 483.550625 192.357824 
L 511.450625 188.777892 
" style="fill:none;stroke:#1764ab;stroke-linecap:square;stroke-width:1.5;"/>
   </g>
   <g id="line2d_88">
    <path clip-path="url(#p2c5c95685a)" d="M 120.850625 442.021562 
L 148.750625 440.499482 
L 176.650625 439.065683 
L 204.550625 436.813005 
L 232.450625 432.949966 
L 260.350625 423.102108 
L 288.250625 405.144608 
L 316.150625 373.004367 
L 344.050625 338.440974 
L 371.950625 287.131658 
L 399.850625 234.208936 
L 427.750625 217.335157 
L 455.650625 208.601462 
L 483.550625 202.491833 
L 511.450625 197.569426 
" style="fill:none;stroke:#1764ab;stroke-dasharray:5.55,2.4;stroke-dashoffset:0;stroke-width:1.5;"/>
   </g>
   <g id="line2d_89">
    <path clip-path="url(#p2c5c95685a)" d="M 120.850625 442.021562 
L 148.750625 440.499482 
L 176.650625 439.068727 
L 204.550625 436.870844 
L 232.450625 433.172189 
L 260.350625 424.243668 
L 288.250625 407.4947 
L 316.150625 376.766949 
L 344.050625 342.727152 
L 371.950625 295.055606 
L 399.850625 227.54527 
L 427.750625 204.047399 
L 455.650625 196.537456 
L 483.550625 189.931629 
L 511.450625 188.102089 
" style="fill:none;stroke:#1764ab;stroke-linecap:square;stroke-width:1.5;"/>
   </g>
   <g id="line2d_90">
    <path clip-path="url(#p2c5c95685a)" d="M 120.850625 442.021562 
L 148.750625 440.499482 
L 176.650625 439.071771 
L 204.550625 436.873888 
L 232.450625 433.172189 
L 260.350625 424.243668 
L 288.250625 407.4947 
L 316.150625 376.78217 
L 344.050625 342.757593 
L 371.950625 295.381331 
L 399.850625 234.141964 
L 427.750625 215.724796 
L 455.650625 206.467506 
L 483.550625 200.214801 
L 511.450625 196.281746 
" style="fill:none;stroke:#1764ab;stroke-dasharray:5.55,2.4;stroke-dashoffset:0;stroke-width:1.5;"/>
   </g>
   <g id="line2d_91">
    <path clip-path="url(#p2c5c95685a)" d="M 120.850625 442.021562 
L 148.750625 440.499482 
L 176.650625 439.056551 
L 204.550625 436.825181 
L 232.450625 433.093041 
L 260.350625 423.67441 
L 288.250625 406.173534 
L 316.150625 375.835436 
L 344.050625 343.253791 
L 371.950625 292.102771 
L 399.850625 226.860334 
L 427.750625 207.876952 
L 455.650625 198.257406 
L 483.550625 190.162985 
L 511.450625 185.423228 
" style="fill:none;stroke:#1764ab;stroke-linecap:square;stroke-width:1.5;"/>
   </g>
   <g id="line2d_92">
    <path clip-path="url(#p2c5c95685a)" d="M 120.850625 442.021562 
L 148.750625 440.499482 
L 176.650625 439.056551 
L 204.550625 436.828226 
L 232.450625 433.093041 
L 260.350625 423.67441 
L 288.250625 406.173534 
L 316.150625 375.847612 
L 344.050625 343.2751 
L 371.950625 292.495467 
L 399.850625 235.438777 
L 427.750625 220.281904 
L 455.650625 209.651697 
L 483.550625 203.26505 
L 511.450625 197.706413 
" style="fill:none;stroke:#1764ab;stroke-dasharray:5.55,2.4;stroke-dashoffset:0;stroke-width:1.5;"/>
   </g>
   <g id="line2d_93">
    <path clip-path="url(#p2c5c95685a)" d="M 120.850625 442.021562 
L 148.750625 440.499482 
L 176.650625 439.080904 
L 204.550625 436.913462 
L 232.450625 433.117394 
L 260.350625 423.723117 
L 288.250625 406.745836 
L 316.150625 375.320973 
L 344.050625 340.075688 
L 371.950625 291.603529 
L 399.850625 224.546772 
L 427.750625 205.249842 
L 455.650625 197.392865 
L 483.550625 188.917923 
L 511.450625 185.934647 
" style="fill:none;stroke:#1764ab;stroke-linecap:square;stroke-width:1.5;"/>
   </g>
   <g id="line2d_94">
    <path clip-path="url(#p2c5c95685a)" d="M 120.850625 442.021562 
L 148.750625 440.499482 
L 176.650625 439.080904 
L 204.550625 436.913462 
L 232.450625 433.117394 
L 260.350625 423.723117 
L 288.250625 406.748881 
L 316.150625 375.327061 
L 344.050625 340.093953 
L 371.950625 292.057108 
L 399.850625 232.951698 
L 427.750625 217.992696 
L 455.650625 208.047425 
L 483.550625 200.574012 
L 511.450625 195.371543 
" style="fill:none;stroke:#1764ab;stroke-dasharray:5.55,2.4;stroke-dashoffset:0;stroke-width:1.5;"/>
   </g>
   <g id="line2d_95">
    <path clip-path="url(#p2c5c95685a)" d="M 120.850625 442.021562 
L 148.750625 440.499482 
L 176.650625 439.065683 
L 204.550625 437.497941 
L 232.450625 435.519237 
L 260.350625 429.972777 
L 288.250625 422.608954 
L 316.150625 409.50689 
L 344.050625 389.305844 
L 371.950625 374.763891 
L 399.850625 352.511082 
L 427.750625 315.932455 
L 455.650625 292.230626 
L 483.550625 274.598851 
L 511.450625 246.790449 
" style="fill:none;stroke:#94c4df;stroke-linecap:square;stroke-width:1.5;"/>
   </g>
   <g id="line2d_96">
    <path clip-path="url(#p2c5c95685a)" d="M 120.850625 442.021562 
L 148.750625 440.499482 
L 176.650625 439.065683 
L 204.550625 437.497941 
L 232.450625 435.519237 
L 260.350625 429.972777 
L 288.250625 422.608954 
L 316.150625 409.509934 
L 344.050625 389.311932 
L 371.950625 374.89479 
L 399.850625 355.07122 
L 427.750625 327.801635 
L 455.650625 308.197245 
L 483.550625 291.082977 
L 511.450625 267.579018 
" style="fill:none;stroke:#94c4df;stroke-dasharray:5.55,2.4;stroke-dashoffset:0;stroke-width:1.5;"/>
   </g>
   <g id="line2d_97">
    <path clip-path="url(#p2c5c95685a)" d="M 120.850625 442.021562 
L 148.750625 440.499482 
L 176.650625 439.105257 
L 204.550625 437.476632 
L 232.450625 435.622738 
L 260.350625 430.383739 
L 288.250625 423.467407 
L 316.150625 411.896555 
L 344.050625 393.823377 
L 371.950625 380.432117 
L 399.850625 360.158012 
L 427.750625 330.06649 
L 455.650625 314.526053 
L 483.550625 290.483278 
L 511.450625 264.026483 
" style="fill:none;stroke:#94c4df;stroke-linecap:square;stroke-width:1.5;"/>
   </g>
   <g id="line2d_98">
    <path clip-path="url(#p2c5c95685a)" d="M 120.850625 442.021562 
L 148.750625 440.499482 
L 176.650625 439.105257 
L 204.550625 437.476632 
L 232.450625 435.622738 
L 260.350625 430.383739 
L 288.250625 423.467407 
L 316.150625 411.899599 
L 344.050625 393.838598 
L 371.950625 380.553884 
L 399.850625 361.567458 
L 427.750625 336.909762 
L 455.650625 323.52459 
L 483.550625 305.162217 
L 511.450625 282.069219 
" style="fill:none;stroke:#94c4df;stroke-dasharray:5.55,2.4;stroke-dashoffset:0;stroke-width:1.5;"/>
   </g>
   <g id="line2d_99">
    <path clip-path="url(#p2c5c95685a)" d="M 120.850625 442.021562 
L 148.750625 440.499482 
L 176.650625 439.062639 
L 204.550625 437.333556 
L 232.450625 435.275704 
L 260.350625 429.427873 
L 288.250625 421.312142 
L 316.150625 407.208549 
L 344.050625 387.025768 
L 371.950625 371.8141 
L 399.850625 347.427335 
L 427.750625 320.358664 
L 455.650625 299.0465 
L 483.550625 276.906324 
L 511.450625 259.390227 
" style="fill:none;stroke:#94c4df;stroke-linecap:square;stroke-width:1.5;"/>
   </g>
   <g id="line2d_100">
    <path clip-path="url(#p2c5c95685a)" d="M 120.850625 442.021562 
L 148.750625 440.499482 
L 176.650625 439.062639 
L 204.550625 437.333556 
L 232.450625 435.275704 
L 260.350625 429.427873 
L 288.250625 421.312142 
L 316.150625 407.208549 
L 344.050625 387.025768 
L 371.950625 372.136781 
L 399.850625 350.824617 
L 427.750625 329.737721 
L 455.650625 312.644762 
L 483.550625 293.146918 
L 511.450625 275.685616 
" style="fill:none;stroke:#94c4df;stroke-dasharray:5.55,2.4;stroke-dashoffset:0;stroke-width:1.5;"/>
   </g>
   <g id="line2d_101">
    <path clip-path="url(#p2c5c95685a)" d="M 120.850625 442.021562 
L 148.750625 440.499482 
L 176.650625 439.062639 
L 204.550625 437.394439 
L 232.450625 435.467486 
L 260.350625 429.924071 
L 288.250625 422.596778 
L 316.150625 409.835659 
L 344.050625 390.834012 
L 371.950625 376.231177 
L 399.850625 353.902263 
L 427.750625 320.863994 
L 455.650625 295.682703 
L 483.550625 274.72975 
L 511.450625 249.463222 
" style="fill:none;stroke:#94c4df;stroke-linecap:square;stroke-width:1.5;"/>
   </g>
   <g id="line2d_102">
    <path clip-path="url(#p2c5c95685a)" d="M 120.850625 442.021562 
L 148.750625 440.499482 
L 176.650625 439.062639 
L 204.550625 437.394439 
L 232.450625 435.467486 
L 260.350625 429.924071 
L 288.250625 422.596778 
L 316.150625 409.835659 
L 344.050625 390.837056 
L 371.950625 376.279883 
L 399.850625 356.048396 
L 427.750625 331.095416 
L 455.650625 310.973519 
L 483.550625 291.493939 
L 511.450625 269.664267 
" style="fill:none;stroke:#94c4df;stroke-dasharray:5.55,2.4;stroke-dashoffset:0;stroke-width:1.5;"/>
   </g>
   <g id="line2d_103">
    <path clip-path="url(#p2c5c95685a)" d="M 120.850625 442.021562 
L 148.750625 440.499482 
L 176.650625 439.065683 
L 204.550625 437.415748 
L 232.450625 435.339631 
L 260.350625 429.732289 
L 288.250625 422.051873 
L 316.150625 409.007647 
L 344.050625 389.701585 
L 371.950625 374.611683 
L 399.850625 352.48064 
L 427.750625 327.874695 
L 455.650625 306.008494 
L 483.550625 283.393429 
L 511.450625 263.770774 
" style="fill:none;stroke:#94c4df;stroke-linecap:square;stroke-width:1.5;"/>
   </g>
   <g id="line2d_104">
    <path clip-path="url(#p2c5c95685a)" d="M 120.850625 442.021562 
L 148.750625 440.499482 
L 176.650625 439.065683 
L 204.550625 437.418793 
L 232.450625 435.342675 
L 260.350625 429.732289 
L 288.250625 422.051873 
L 316.150625 409.007647 
L 344.050625 389.701585 
L 371.950625 374.645169 
L 399.850625 354.842908 
L 427.750625 335.679921 
L 455.650625 317.956822 
L 483.550625 299.634023 
L 511.450625 280.172708 
" style="fill:none;stroke:#94c4df;stroke-dasharray:5.55,2.4;stroke-dashoffset:0;stroke-width:1.5;"/>
   </g>
   <g id="line2d_105">
    <path clip-path="url(#p2c5c95685a)" d="M 120.850625 442.021562 
L 148.750625 440.499482 
L 176.650625 439.074816 
L 204.550625 437.360954 
L 232.450625 435.363985 
L 260.350625 429.756642 
L 288.250625 422.06405 
L 316.150625 409.132458 
L 344.050625 389.71985 
L 371.950625 374.940453 
L 399.850625 352.882469 
L 427.750625 323.679842 
L 455.650625 302.248956 
L 483.550625 281.755671 
L 511.450625 257.819441 
" style="fill:none;stroke:#94c4df;stroke-linecap:square;stroke-width:1.5;"/>
   </g>
   <g id="line2d_106">
    <path clip-path="url(#p2c5c95685a)" d="M 120.850625 442.021562 
L 148.750625 440.499482 
L 176.650625 439.074816 
L 204.550625 437.360954 
L 232.450625 435.363985 
L 260.350625 429.756642 
L 288.250625 422.06405 
L 316.150625 409.135502 
L 344.050625 389.728982 
L 371.950625 375.050042 
L 399.850625 355.975336 
L 427.750625 333.606848 
L 455.650625 316.233827 
L 483.550625 297.019089 
L 511.450625 274.327921 
" style="fill:none;stroke:#94c4df;stroke-dasharray:5.55,2.4;stroke-dashoffset:0;stroke-width:1.5;"/>
   </g>
   <g id="line2d_107">
    <path clip-path="url(#p2c5c95685a)" d="M 120.850625 442.021562 
L 148.750625 440.499482 
L 176.650625 439.07786 
L 204.550625 437.403572 
L 232.450625 435.434 
L 260.350625 429.826658 
L 288.250625 422.420216 
L 316.150625 410.200958 
L 344.050625 390.970999 
L 371.950625 376.133763 
L 399.850625 353.476081 
L 427.750625 324.139511 
L 455.650625 301.064778 
L 483.550625 279.636936 
L 511.450625 254.373452 
" style="fill:none;stroke:#94c4df;stroke-linecap:square;stroke-width:1.5;"/>
   </g>
   <g id="line2d_108">
    <path clip-path="url(#p2c5c95685a)" d="M 120.850625 442.021562 
L 148.750625 440.499482 
L 176.650625 439.07786 
L 204.550625 437.406616 
L 232.450625 435.437044 
L 260.350625 429.826658 
L 288.250625 422.420216 
L 316.150625 410.200958 
L 344.050625 390.970999 
L 371.950625 376.234221 
L 399.850625 356.383253 
L 427.750625 333.232417 
L 455.650625 314.489523 
L 483.550625 294.71466 
L 511.450625 272.321819 
" style="fill:none;stroke:#94c4df;stroke-dasharray:5.55,2.4;stroke-dashoffset:0;stroke-width:1.5;"/>
   </g>
   <g id="line2d_109">
    <path clip-path="url(#p2c5c95685a)" d="M 120.850625 442.021562 
L 148.750625 440.499482 
L 176.650625 439.065683 
L 204.550625 437.345733 
L 232.450625 435.27266 
L 260.350625 429.342636 
L 288.250625 421.132537 
L 316.150625 407.56776 
L 344.050625 388.005987 
L 371.950625 372.72126 
L 399.850625 350.395391 
L 427.750625 320.492607 
L 455.650625 298.760349 
L 483.550625 277.399478 
L 511.450625 254.872694 
" style="fill:none;stroke:#94c4df;stroke-linecap:square;stroke-width:1.5;"/>
   </g>
   <g id="line2d_110">
    <path clip-path="url(#p2c5c95685a)" d="M 120.850625 442.021562 
L 148.750625 440.499482 
L 176.650625 439.065683 
L 204.550625 437.345733 
L 232.450625 435.27266 
L 260.350625 429.342636 
L 288.250625 421.132537 
L 316.150625 407.56776 
L 344.050625 388.012076 
L 371.950625 373.107868 
L 399.850625 354.066648 
L 427.750625 331.195874 
L 455.650625 312.760441 
L 483.550625 293.496996 
L 511.450625 272.282245 
" style="fill:none;stroke:#94c4df;stroke-dasharray:5.55,2.4;stroke-dashoffset:0;stroke-width:1.5;"/>
   </g>
   <g id="line2d_111">
    <path clip-path="url(#p2c5c95685a)" d="M 120.850625 442.021562 
L 148.750625 440.499482 
L 176.650625 439.080904 
L 204.550625 437.464455 
L 232.450625 435.555767 
L 260.350625 430.170648 
L 288.250625 423.373038 
L 316.150625 411.141603 
L 344.050625 392.861423 
L 371.950625 377.473194 
L 399.850625 356.596345 
L 427.750625 323.999479 
L 455.650625 299.436152 
L 483.550625 278.358388 
L 511.450625 254.044682 
" style="fill:none;stroke:#94c4df;stroke-linecap:square;stroke-width:1.5;"/>
   </g>
   <g id="line2d_112">
    <path clip-path="url(#p2c5c95685a)" d="M 120.850625 442.021562 
L 148.750625 440.499482 
L 176.650625 439.080904 
L 204.550625 437.464455 
L 232.450625 435.555767 
L 260.350625 430.170648 
L 288.250625 423.373038 
L 316.150625 411.141603 
L 344.050625 392.861423 
L 371.950625 377.661932 
L 399.850625 359.829242 
L 427.750625 334.209592 
L 455.650625 312.413406 
L 483.550625 293.929267 
L 511.450625 271.548602 
" style="fill:none;stroke:#94c4df;stroke-dasharray:5.55,2.4;stroke-dashoffset:0;stroke-width:1.5;"/>
   </g>
   <g id="line2d_113">
    <path clip-path="url(#p2c5c95685a)" d="M 120.850625 442.021562 
L 148.750625 440.499482 
L 176.650625 439.065683 
L 204.550625 437.367042 
L 232.450625 435.34572 
L 260.350625 429.604434 
L 288.250625 421.540454 
L 316.150625 407.449037 
L 344.050625 386.31039 
L 371.950625 370.243314 
L 399.850625 342.468398 
L 427.750625 303.463576 
L 455.650625 279.999191 
L 483.550625 260.73879 
L 511.450625 240.224196 
" style="fill:none;stroke:#94c4df;stroke-linecap:square;stroke-width:1.5;"/>
   </g>
   <g id="line2d_114">
    <path clip-path="url(#p2c5c95685a)" d="M 120.850625 442.021562 
L 148.750625 440.499482 
L 176.650625 439.065683 
L 204.550625 437.367042 
L 232.450625 435.34572 
L 260.350625 429.604434 
L 288.250625 421.540454 
L 316.150625 407.452082 
L 344.050625 386.316479 
L 371.950625 370.602525 
L 399.850625 346.995064 
L 427.750625 318.328209 
L 455.650625 299.935394 
L 483.550625 280.36449 
L 511.450625 258.74791 
" style="fill:none;stroke:#94c4df;stroke-dasharray:5.55,2.4;stroke-dashoffset:0;stroke-width:1.5;"/>
   </g>
   <g id="line2d_115">
    <path clip-path="url(#p2c5c95685a)" d="M 120.850625 442.021562 
" style="fill:none;stroke:#000000;stroke-linecap:square;stroke-width:1.5;"/>
   </g>
   <g id="line2d_116">
    <path clip-path="url(#p2c5c95685a)" d="M 120.850625 442.021562 
" style="fill:none;stroke:#d0e1f2;stroke-linecap:square;stroke-width:1.5;"/>
   </g>
   <g id="line2d_117">
    <path clip-path="url(#p2c5c95685a)" d="M 120.850625 442.021562 
" style="fill:none;stroke:#94c4df;stroke-linecap:square;stroke-width:1.5;"/>
   </g>
   <g id="line2d_118">
    <path clip-path="url(#p2c5c95685a)" d="M 120.850625 442.021562 
" style="fill:none;stroke:#4a98c9;stroke-linecap:square;stroke-width:1.5;"/>
   </g>
   <g id="line2d_119">
    <path clip-path="url(#p2c5c95685a)" d="M 120.850625 442.021562 
" style="fill:none;stroke:#1764ab;stroke-linecap:square;stroke-width:1.5;"/>
   </g>
   <g id="line2d_120">
    <path clip-path="url(#p2c5c95685a)" d="M 120.850625 442.021562 
" style="fill:none;stroke:#08306b;stroke-linecap:square;stroke-width:1.5;"/>
   </g>
   <g id="line2d_121">
    <path clip-path="url(#p2c5c95685a)" d="M 120.850625 442.021562 
" style="fill:none;stroke:#000000;stroke-dasharray:5.55,2.4;stroke-dashoffset:0;stroke-width:1.5;"/>
   </g>
   <g id="line2d_122">
    <path clip-path="url(#p2c5c95685a)" d="M 120.850625 442.021562 
" style="fill:none;stroke:#000000;stroke-linecap:square;stroke-width:1.5;"/>
   </g>
   <g id="patch_3">
    <path d="M 120.850625 442.021562 
L 120.850625 61.501562 
" style="fill:none;stroke:#000000;stroke-linecap:square;stroke-linejoin:miter;stroke-width:0.8;"/>
   </g>
   <g id="patch_4">
    <path d="M 511.450625 442.021562 
L 511.450625 61.501562 
" style="fill:none;stroke:#000000;stroke-linecap:square;stroke-linejoin:miter;stroke-width:0.8;"/>
   </g>
   <g id="patch_5">
    <path d="M 120.850625 442.021562 
L 511.450625 442.021562 
" style="fill:none;stroke:#000000;stroke-linecap:square;stroke-linejoin:miter;stroke-width:0.8;"/>
   </g>
   <g id="patch_6">
    <path d="M 120.850625 61.501562 
L 511.450625 61.501562 
" style="fill:none;stroke:#000000;stroke-linecap:square;stroke-linejoin:miter;stroke-width:0.8;"/>
   </g>
   <g id="text_17">
    <!-- T-CELL COUNT -->
    <g transform="translate(223.818594 25.094531)scale(0.25 -0.25)">
     <use xlink:href="#Arial-BoldMT-84"/>
     <use x="61.005859" xlink:href="#Arial-BoldMT-45"/>
     <use x="94.306641" xlink:href="#Arial-BoldMT-67"/>
     <use x="166.523438" xlink:href="#Arial-BoldMT-69"/>
     <use x="233.222656" xlink:href="#Arial-BoldMT-76"/>
     <use x="294.306641" xlink:href="#Arial-BoldMT-76"/>
     <use x="355.375" xlink:href="#Arial-BoldMT-32"/>
     <use x="383.158203" xlink:href="#Arial-BoldMT-67"/>
     <use x="455.375" xlink:href="#Arial-BoldMT-79"/>
     <use x="533.158203" xlink:href="#Arial-BoldMT-85"/>
     <use x="605.375" xlink:href="#Arial-BoldMT-78"/>
     <use x="677.591797" xlink:href="#Arial-BoldMT-84"/>
    </g>
    <!-- OVER TIME NORAMLIZED -->
    <defs>
     <path d="M 25.53125 0 
L -0.046875 71.578125 
L 15.625 71.578125 
L 33.734375 18.609375 
L 51.265625 71.578125 
L 66.609375 71.578125 
L 40.96875 0 
z
" id="Arial-BoldMT-86"/>
    </defs>
    <g transform="translate(160.597891 51.501562)scale(0.25 -0.25)">
     <use xlink:href="#Arial-BoldMT-79"/>
     <use x="77.783203" xlink:href="#Arial-BoldMT-86"/>
     <use x="144.482422" xlink:href="#Arial-BoldMT-69"/>
     <use x="211.181641" xlink:href="#Arial-BoldMT-82"/>
     <use x="283.398438" xlink:href="#Arial-BoldMT-32"/>
     <use x="311.181641" xlink:href="#Arial-BoldMT-84"/>
     <use x="372.265625" xlink:href="#Arial-BoldMT-73"/>
     <use x="400.048828" xlink:href="#Arial-BoldMT-77"/>
     <use x="483.349609" xlink:href="#Arial-BoldMT-69"/>
     <use x="550.048828" xlink:href="#Arial-BoldMT-32"/>
     <use x="577.832031" xlink:href="#Arial-BoldMT-78"/>
     <use x="650.048828" xlink:href="#Arial-BoldMT-79"/>
     <use x="727.832031" xlink:href="#Arial-BoldMT-82"/>
     <use x="800.048828" xlink:href="#Arial-BoldMT-65"/>
     <use x="872.265625" xlink:href="#Arial-BoldMT-77"/>
     <use x="955.566406" xlink:href="#Arial-BoldMT-76"/>
     <use x="1016.650391" xlink:href="#Arial-BoldMT-73"/>
     <use x="1044.433594" xlink:href="#Arial-BoldMT-90"/>
     <use x="1105.517578" xlink:href="#Arial-BoldMT-69"/>
     <use x="1172.216797" xlink:href="#Arial-BoldMT-68"/>
    </g>
   </g>
   <g id="legend_1">
    <g id="line2d_123">
     <path d="M 520.450625 74.6 
L 540.450625 74.6 
" style="fill:none;stroke:#000000;stroke-linecap:square;stroke-width:1.5;"/>
    </g>
    <g id="line2d_124"/>
    <g id="text_18">
     <!-- 0 -->
     <g transform="translate(548.450625 78.1)scale(0.1 -0.1)">
      <use xlink:href="#DejaVuSans-48"/>
     </g>
    </g>
    <g id="line2d_125">
     <path d="M 520.450625 89.278125 
L 540.450625 89.278125 
" style="fill:none;stroke:#d0e1f2;stroke-linecap:square;stroke-width:1.5;"/>
    </g>
    <g id="line2d_126"/>
    <g id="text_19">
     <!-- 100 -->
     <g transform="translate(548.450625 92.778125)scale(0.1 -0.1)">
      <use xlink:href="#DejaVuSans-49"/>
      <use x="63.623047" xlink:href="#DejaVuSans-48"/>
      <use x="127.246094" xlink:href="#DejaVuSans-48"/>
     </g>
    </g>
    <g id="line2d_127">
     <path d="M 520.450625 103.95625 
L 540.450625 103.95625 
" style="fill:none;stroke:#94c4df;stroke-linecap:square;stroke-width:1.5;"/>
    </g>
    <g id="line2d_128"/>
    <g id="text_20">
     <!-- 500 -->
     <g transform="translate(548.450625 107.45625)scale(0.1 -0.1)">
      <use xlink:href="#DejaVuSans-53"/>
      <use x="63.623047" xlink:href="#DejaVuSans-48"/>
      <use x="127.246094" xlink:href="#DejaVuSans-48"/>
     </g>
    </g>
    <g id="line2d_129">
     <path d="M 520.450625 118.634375 
L 540.450625 118.634375 
" style="fill:none;stroke:#4a98c9;stroke-linecap:square;stroke-width:1.5;"/>
    </g>
    <g id="line2d_130"/>
    <g id="text_21">
     <!-- 1000 -->
     <g transform="translate(548.450625 122.134375)scale(0.1 -0.1)">
      <use xlink:href="#DejaVuSans-49"/>
      <use x="63.623047" xlink:href="#DejaVuSans-48"/>
      <use x="127.246094" xlink:href="#DejaVuSans-48"/>
      <use x="190.869141" xlink:href="#DejaVuSans-48"/>
     </g>
    </g>
    <g id="line2d_131">
     <path d="M 520.450625 133.3125 
L 540.450625 133.3125 
" style="fill:none;stroke:#1764ab;stroke-linecap:square;stroke-width:1.5;"/>
    </g>
    <g id="line2d_132"/>
    <g id="text_22">
     <!-- 5000 -->
     <g transform="translate(548.450625 136.8125)scale(0.1 -0.1)">
      <use xlink:href="#DejaVuSans-53"/>
      <use x="63.623047" xlink:href="#DejaVuSans-48"/>
      <use x="127.246094" xlink:href="#DejaVuSans-48"/>
      <use x="190.869141" xlink:href="#DejaVuSans-48"/>
     </g>
    </g>
    <g id="line2d_133">
     <path d="M 520.450625 147.990625 
L 540.450625 147.990625 
" style="fill:none;stroke:#08306b;stroke-linecap:square;stroke-width:1.5;"/>
    </g>
    <g id="line2d_134"/>
    <g id="text_23">
     <!-- 10000 -->
     <g transform="translate(548.450625 151.490625)scale(0.1 -0.1)">
      <use xlink:href="#DejaVuSans-49"/>
      <use x="63.623047" xlink:href="#DejaVuSans-48"/>
      <use x="127.246094" xlink:href="#DejaVuSans-48"/>
      <use x="190.869141" xlink:href="#DejaVuSans-48"/>
      <use x="254.492188" xlink:href="#DejaVuSans-48"/>
     </g>
    </g>
    <g id="line2d_135">
     <path d="M 520.450625 162.66875 
L 540.450625 162.66875 
" style="fill:none;stroke:#000000;stroke-dasharray:5.55,2.4;stroke-dashoffset:0;stroke-width:1.5;"/>
    </g>
    <g id="line2d_136"/>
    <g id="text_24">
     <!-- LIVE -->
     <defs>
      <path d="M 9.8125 72.90625 
L 19.671875 72.90625 
L 19.671875 8.296875 
L 55.171875 8.296875 
L 55.171875 0 
L 9.8125 0 
z
" id="DejaVuSans-76"/>
      <path d="M 9.8125 72.90625 
L 19.671875 72.90625 
L 19.671875 0 
L 9.8125 0 
z
" id="DejaVuSans-73"/>
      <path d="M 28.609375 0 
L 0.78125 72.90625 
L 11.078125 72.90625 
L 34.1875 11.53125 
L 57.328125 72.90625 
L 67.578125 72.90625 
L 39.796875 0 
z
" id="DejaVuSans-86"/>
      <path d="M 9.8125 72.90625 
L 55.90625 72.90625 
L 55.90625 64.59375 
L 19.671875 64.59375 
L 19.671875 43.015625 
L 54.390625 43.015625 
L 54.390625 34.71875 
L 19.671875 34.71875 
L 19.671875 8.296875 
L 56.78125 8.296875 
L 56.78125 0 
L 9.8125 0 
z
" id="DejaVuSans-69"/>
     </defs>
     <g transform="translate(548.450625 166.16875)scale(0.1 -0.1)">
      <use xlink:href="#DejaVuSans-76"/>
      <use x="55.712891" xlink:href="#DejaVuSans-73"/>
      <use x="85.205078" xlink:href="#DejaVuSans-86"/>
      <use x="153.613281" xlink:href="#DejaVuSans-69"/>
     </g>
    </g>
    <g id="line2d_137">
     <path d="M 520.450625 177.346875 
L 540.450625 177.346875 
" style="fill:none;stroke:#000000;stroke-linecap:square;stroke-width:1.5;"/>
    </g>
    <g id="line2d_138"/>
    <g id="text_25">
     <!-- TOTAL -->
     <defs>
      <path d="M -0.296875 72.90625 
L 61.375 72.90625 
L 61.375 64.59375 
L 35.5 64.59375 
L 35.5 0 
L 25.59375 0 
L 25.59375 64.59375 
L -0.296875 64.59375 
z
" id="DejaVuSans-84"/>
      <path d="M 39.40625 66.21875 
Q 28.65625 66.21875 22.328125 58.203125 
Q 16.015625 50.203125 16.015625 36.375 
Q 16.015625 22.609375 22.328125 14.59375 
Q 28.65625 6.59375 39.40625 6.59375 
Q 50.140625 6.59375 56.421875 14.59375 
Q 62.703125 22.609375 62.703125 36.375 
Q 62.703125 50.203125 56.421875 58.203125 
Q 50.140625 66.21875 39.40625 66.21875 
z
M 39.40625 74.21875 
Q 54.734375 74.21875 63.90625 63.9375 
Q 73.09375 53.65625 73.09375 36.375 
Q 73.09375 19.140625 63.90625 8.859375 
Q 54.734375 -1.421875 39.40625 -1.421875 
Q 24.03125 -1.421875 14.8125 8.828125 
Q 5.609375 19.09375 5.609375 36.375 
Q 5.609375 53.65625 14.8125 63.9375 
Q 24.03125 74.21875 39.40625 74.21875 
z
" id="DejaVuSans-79"/>
      <path d="M 34.1875 63.1875 
L 20.796875 26.90625 
L 47.609375 26.90625 
z
M 28.609375 72.90625 
L 39.796875 72.90625 
L 67.578125 0 
L 57.328125 0 
L 50.6875 18.703125 
L 17.828125 18.703125 
L 11.1875 0 
L 0.78125 0 
z
" id="DejaVuSans-65"/>
     </defs>
     <g transform="translate(548.450625 180.846875)scale(0.1 -0.1)">
      <use xlink:href="#DejaVuSans-84"/>
      <use x="61.083984" xlink:href="#DejaVuSans-79"/>
      <use x="139.794922" xlink:href="#DejaVuSans-84"/>
      <use x="200.769531" xlink:href="#DejaVuSans-65"/>
      <use x="269.177734" xlink:href="#DejaVuSans-76"/>
     </g>
    </g>
   </g>
  </g>
 </g>
 <defs>
  <clipPath id="p2c5c95685a">
   <rect height="380.52" width="390.6" x="120.850625" y="61.501562"/>
  </clipPath>
 </defs>
</svg>
