<?xml version="1.0" encoding="utf-8" standalone="no"?>
<!DOCTYPE svg PUBLIC "-//W3C//DTD SVG 1.1//EN"
  "http://www.w3.org/Graphics/SVG/1.1/DTD/svg11.dtd">
<!-- Created with matplotlib (https://matplotlib.org/) -->
<svg height="514.024687pt" version="1.1" viewBox="0 0 591.463125 514.024687" width="591.463125pt" xmlns="http://www.w3.org/2000/svg" xmlns:xlink="http://www.w3.org/1999/xlink">
 <defs>
  <style type="text/css">
*{stroke-linecap:butt;stroke-linejoin:round;}
  </style>
 </defs>
 <g id="figure_1">
  <g id="patch_1">
   <path d="M -0 514.024687 
L 591.463125 514.024687 
L 591.463125 0 
L -0 0 
z
" style="fill:#ffffff;"/>
  </g>
  <g id="axes_1">
   <g id="patch_2">
    <path d="M 120.850625 442.021562 
L 511.450625 442.021562 
L 511.450625 61.501562 
L 120.850625 61.501562 
z
" style="fill:#ffffff;"/>
   </g>
   <g id="matplotlib.axis_1">
    <g id="xtick_1">
     <g id="line2d_1">
      <defs>
       <path d="M 0 0 
L 0 3.5 
" id="m09c9335e29" style="stroke:#000000;stroke-width:0.8;"/>
      </defs>
      <g>
       <use style="stroke:#000000;stroke-width:0.8;" x="120.850625" xlink:href="#m09c9335e29" y="442.021562"/>
      </g>
     </g>
     <g id="text_1">
      <!-- 0 -->
      <defs>
       <path d="M 31.78125 66.40625 
Q 24.171875 66.40625 20.328125 58.90625 
Q 16.5 51.421875 16.5 36.375 
Q 16.5 21.390625 20.328125 13.890625 
Q 24.171875 6.390625 31.78125 6.390625 
Q 39.453125 6.390625 43.28125 13.890625 
Q 47.125 21.390625 47.125 36.375 
Q 47.125 51.421875 43.28125 58.90625 
Q 39.453125 66.40625 31.78125 66.40625 
z
M 31.78125 74.21875 
Q 44.046875 74.21875 50.515625 64.515625 
Q 56.984375 54.828125 56.984375 36.375 
Q 56.984375 17.96875 50.515625 8.265625 
Q 44.046875 -1.421875 31.78125 -1.421875 
Q 19.53125 -1.421875 13.0625 8.265625 
Q 6.59375 17.96875 6.59375 36.375 
Q 6.59375 54.828125 13.0625 64.515625 
Q 19.53125 74.21875 31.78125 74.21875 
z
" id="DejaVuSans-48"/>
      </defs>
      <g transform="translate(111.306875 471.816875)scale(0.3 -0.3)">
       <use xlink:href="#DejaVuSans-48"/>
      </g>
     </g>
    </g>
    <g id="xtick_2">
     <g id="line2d_2">
      <g>
       <use style="stroke:#000000;stroke-width:0.8;" x="176.650625" xlink:href="#m09c9335e29" y="442.021562"/>
      </g>
     </g>
     <g id="text_2">
      <!-- 1 -->
      <defs>
       <path d="M 12.40625 8.296875 
L 28.515625 8.296875 
L 28.515625 63.921875 
L 10.984375 60.40625 
L 10.984375 69.390625 
L 28.421875 72.90625 
L 38.28125 72.90625 
L 38.28125 8.296875 
L 54.390625 8.296875 
L 54.390625 0 
L 12.40625 0 
z
" id="DejaVuSans-49"/>
      </defs>
      <g transform="translate(167.106875 471.816875)scale(0.3 -0.3)">
       <use xlink:href="#DejaVuSans-49"/>
      </g>
     </g>
    </g>
    <g id="xtick_3">
     <g id="line2d_3">
      <g>
       <use style="stroke:#000000;stroke-width:0.8;" x="232.450625" xlink:href="#m09c9335e29" y="442.021562"/>
      </g>
     </g>
     <g id="text_3">
      <!-- 2 -->
      <defs>
       <path d="M 19.1875 8.296875 
L 53.609375 8.296875 
L 53.609375 0 
L 7.328125 0 
L 7.328125 8.296875 
Q 12.9375 14.109375 22.625 23.890625 
Q 32.328125 33.6875 34.8125 36.53125 
Q 39.546875 41.84375 41.421875 45.53125 
Q 43.3125 49.21875 43.3125 52.78125 
Q 43.3125 58.59375 39.234375 62.25 
Q 35.15625 65.921875 28.609375 65.921875 
Q 23.96875 65.921875 18.8125 64.3125 
Q 13.671875 62.703125 7.8125 59.421875 
L 7.8125 69.390625 
Q 13.765625 71.78125 18.9375 73 
Q 24.125 74.21875 28.421875 74.21875 
Q 39.75 74.21875 46.484375 68.546875 
Q 53.21875 62.890625 53.21875 53.421875 
Q 53.21875 48.921875 51.53125 44.890625 
Q 49.859375 40.875 45.40625 35.40625 
Q 44.1875 33.984375 37.640625 27.21875 
Q 31.109375 20.453125 19.1875 8.296875 
z
" id="DejaVuSans-50"/>
      </defs>
      <g transform="translate(222.906875 471.816875)scale(0.3 -0.3)">
       <use xlink:href="#DejaVuSans-50"/>
      </g>
     </g>
    </g>
    <g id="xtick_4">
     <g id="line2d_4">
      <g>
       <use style="stroke:#000000;stroke-width:0.8;" x="288.250625" xlink:href="#m09c9335e29" y="442.021562"/>
      </g>
     </g>
     <g id="text_4">
      <!-- 3 -->
      <defs>
       <path d="M 40.578125 39.3125 
Q 47.65625 37.796875 51.625 33 
Q 55.609375 28.21875 55.609375 21.1875 
Q 55.609375 10.40625 48.1875 4.484375 
Q 40.765625 -1.421875 27.09375 -1.421875 
Q 22.515625 -1.421875 17.65625 -0.515625 
Q 12.796875 0.390625 7.625 2.203125 
L 7.625 11.71875 
Q 11.71875 9.328125 16.59375 8.109375 
Q 21.484375 6.890625 26.8125 6.890625 
Q 36.078125 6.890625 40.9375 10.546875 
Q 45.796875 14.203125 45.796875 21.1875 
Q 45.796875 27.640625 41.28125 31.265625 
Q 36.765625 34.90625 28.71875 34.90625 
L 20.21875 34.90625 
L 20.21875 43.015625 
L 29.109375 43.015625 
Q 36.375 43.015625 40.234375 45.921875 
Q 44.09375 48.828125 44.09375 54.296875 
Q 44.09375 59.90625 40.109375 62.90625 
Q 36.140625 65.921875 28.71875 65.921875 
Q 24.65625 65.921875 20.015625 65.03125 
Q 15.375 64.15625 9.8125 62.3125 
L 9.8125 71.09375 
Q 15.4375 72.65625 20.34375 73.4375 
Q 25.25 74.21875 29.59375 74.21875 
Q 40.828125 74.21875 47.359375 69.109375 
Q 53.90625 64.015625 53.90625 55.328125 
Q 53.90625 49.265625 50.4375 45.09375 
Q 46.96875 40.921875 40.578125 39.3125 
z
" id="DejaVuSans-51"/>
      </defs>
      <g transform="translate(278.706875 471.816875)scale(0.3 -0.3)">
       <use xlink:href="#DejaVuSans-51"/>
      </g>
     </g>
    </g>
    <g id="xtick_5">
     <g id="line2d_5">
      <g>
       <use style="stroke:#000000;stroke-width:0.8;" x="344.050625" xlink:href="#m09c9335e29" y="442.021562"/>
      </g>
     </g>
     <g id="text_5">
      <!-- 4 -->
      <defs>
       <path d="M 37.796875 64.3125 
L 12.890625 25.390625 
L 37.796875 25.390625 
z
M 35.203125 72.90625 
L 47.609375 72.90625 
L 47.609375 25.390625 
L 58.015625 25.390625 
L 58.015625 17.1875 
L 47.609375 17.1875 
L 47.609375 0 
L 37.796875 0 
L 37.796875 17.1875 
L 4.890625 17.1875 
L 4.890625 26.703125 
z
" id="DejaVuSans-52"/>
      </defs>
      <g transform="translate(334.506875 471.816875)scale(0.3 -0.3)">
       <use xlink:href="#DejaVuSans-52"/>
      </g>
     </g>
    </g>
    <g id="xtick_6">
     <g id="line2d_6">
      <g>
       <use style="stroke:#000000;stroke-width:0.8;" x="399.850625" xlink:href="#m09c9335e29" y="442.021562"/>
      </g>
     </g>
     <g id="text_6">
      <!-- 5 -->
      <defs>
       <path d="M 10.796875 72.90625 
L 49.515625 72.90625 
L 49.515625 64.59375 
L 19.828125 64.59375 
L 19.828125 46.734375 
Q 21.96875 47.46875 24.109375 47.828125 
Q 26.265625 48.1875 28.421875 48.1875 
Q 40.625 48.1875 47.75 41.5 
Q 54.890625 34.8125 54.890625 23.390625 
Q 54.890625 11.625 47.5625 5.09375 
Q 40.234375 -1.421875 26.90625 -1.421875 
Q 22.3125 -1.421875 17.546875 -0.640625 
Q 12.796875 0.140625 7.71875 1.703125 
L 7.71875 11.625 
Q 12.109375 9.234375 16.796875 8.0625 
Q 21.484375 6.890625 26.703125 6.890625 
Q 35.15625 6.890625 40.078125 11.328125 
Q 45.015625 15.765625 45.015625 23.390625 
Q 45.015625 31 40.078125 35.4375 
Q 35.15625 39.890625 26.703125 39.890625 
Q 22.75 39.890625 18.8125 39.015625 
Q 14.890625 38.140625 10.796875 36.28125 
z
" id="DejaVuSans-53"/>
      </defs>
      <g transform="translate(390.306875 471.816875)scale(0.3 -0.3)">
       <use xlink:href="#DejaVuSans-53"/>
      </g>
     </g>
    </g>
    <g id="xtick_7">
     <g id="line2d_7">
      <g>
       <use style="stroke:#000000;stroke-width:0.8;" x="455.650625" xlink:href="#m09c9335e29" y="442.021562"/>
      </g>
     </g>
     <g id="text_7">
      <!-- 6 -->
      <defs>
       <path d="M 33.015625 40.375 
Q 26.375 40.375 22.484375 35.828125 
Q 18.609375 31.296875 18.609375 23.390625 
Q 18.609375 15.53125 22.484375 10.953125 
Q 26.375 6.390625 33.015625 6.390625 
Q 39.65625 6.390625 43.53125 10.953125 
Q 47.40625 15.53125 47.40625 23.390625 
Q 47.40625 31.296875 43.53125 35.828125 
Q 39.65625 40.375 33.015625 40.375 
z
M 52.59375 71.296875 
L 52.59375 62.3125 
Q 48.875 64.0625 45.09375 64.984375 
Q 41.3125 65.921875 37.59375 65.921875 
Q 27.828125 65.921875 22.671875 59.328125 
Q 17.53125 52.734375 16.796875 39.40625 
Q 19.671875 43.65625 24.015625 45.921875 
Q 28.375 48.1875 33.59375 48.1875 
Q 44.578125 48.1875 50.953125 41.515625 
Q 57.328125 34.859375 57.328125 23.390625 
Q 57.328125 12.15625 50.6875 5.359375 
Q 44.046875 -1.421875 33.015625 -1.421875 
Q 20.359375 -1.421875 13.671875 8.265625 
Q 6.984375 17.96875 6.984375 36.375 
Q 6.984375 53.65625 15.1875 63.9375 
Q 23.390625 74.21875 37.203125 74.21875 
Q 40.921875 74.21875 44.703125 73.484375 
Q 48.484375 72.75 52.59375 71.296875 
z
" id="DejaVuSans-54"/>
      </defs>
      <g transform="translate(446.106875 471.816875)scale(0.3 -0.3)">
       <use xlink:href="#DejaVuSans-54"/>
      </g>
     </g>
    </g>
    <g id="xtick_8">
     <g id="line2d_8">
      <g>
       <use style="stroke:#000000;stroke-width:0.8;" x="511.450625" xlink:href="#m09c9335e29" y="442.021562"/>
      </g>
     </g>
     <g id="text_8">
      <!-- 7 -->
      <defs>
       <path d="M 8.203125 72.90625 
L 55.078125 72.90625 
L 55.078125 68.703125 
L 28.609375 0 
L 18.3125 0 
L 43.21875 64.59375 
L 8.203125 64.59375 
z
" id="DejaVuSans-55"/>
      </defs>
      <g transform="translate(501.906875 471.816875)scale(0.3 -0.3)">
       <use xlink:href="#DejaVuSans-55"/>
      </g>
     </g>
    </g>
    <g id="text_9">
     <!-- TIME (DAYS) -->
     <defs>
      <path d="M 23.390625 0 
L 23.390625 59.46875 
L 2.15625 59.46875 
L 2.15625 71.578125 
L 59.03125 71.578125 
L 59.03125 59.46875 
L 37.84375 59.46875 
L 37.84375 0 
z
" id="Arial-BoldMT-84"/>
      <path d="M 6.84375 0 
L 6.84375 71.578125 
L 21.296875 71.578125 
L 21.296875 0 
z
" id="Arial-BoldMT-73"/>
      <path d="M 7.078125 0 
L 7.078125 71.578125 
L 28.71875 71.578125 
L 41.703125 22.75 
L 54.546875 71.578125 
L 76.21875 71.578125 
L 76.21875 0 
L 62.796875 0 
L 62.796875 56.34375 
L 48.578125 0 
L 34.671875 0 
L 20.515625 56.34375 
L 20.515625 0 
z
" id="Arial-BoldMT-77"/>
      <path d="M 7.28125 0 
L 7.28125 71.578125 
L 60.359375 71.578125 
L 60.359375 59.46875 
L 21.734375 59.46875 
L 21.734375 43.609375 
L 57.671875 43.609375 
L 57.671875 31.546875 
L 21.734375 31.546875 
L 21.734375 12.0625 
L 61.71875 12.0625 
L 61.71875 0 
z
" id="Arial-BoldMT-69"/>
      <path id="Arial-BoldMT-32"/>
      <path d="M 29.9375 -21.046875 
L 20.515625 -21.046875 
Q 13.03125 -9.765625 9.125 2.390625 
Q 5.21875 14.546875 5.21875 25.921875 
Q 5.21875 40.046875 10.0625 52.640625 
Q 14.265625 63.578125 20.703125 72.796875 
L 30.078125 72.796875 
Q 23.390625 58.015625 20.875 47.625 
Q 18.359375 37.25 18.359375 25.640625 
Q 18.359375 17.625 19.84375 9.21875 
Q 21.34375 0.828125 23.921875 -6.734375 
Q 25.640625 -11.71875 29.9375 -21.046875 
z
" id="Arial-BoldMT-40"/>
      <path d="M 7.234375 71.578125 
L 33.640625 71.578125 
Q 42.578125 71.578125 47.265625 70.21875 
Q 53.5625 68.359375 58.046875 63.625 
Q 62.546875 58.890625 64.890625 52.03125 
Q 67.234375 45.171875 67.234375 35.109375 
Q 67.234375 26.265625 65.046875 19.875 
Q 62.359375 12.0625 57.375 7.234375 
Q 53.609375 3.5625 47.21875 1.515625 
Q 42.4375 0 34.421875 0 
L 7.234375 0 
z
M 21.6875 59.46875 
L 21.6875 12.0625 
L 32.46875 12.0625 
Q 38.53125 12.0625 41.21875 12.75 
Q 44.734375 13.625 47.046875 15.71875 
Q 49.359375 17.828125 50.828125 22.625 
Q 52.296875 27.4375 52.296875 35.75 
Q 52.296875 44.046875 50.828125 48.484375 
Q 49.359375 52.9375 46.71875 55.421875 
Q 44.09375 57.90625 40.046875 58.796875 
Q 37.015625 59.46875 28.171875 59.46875 
z
" id="Arial-BoldMT-68"/>
      <path d="M 71.828125 0 
L 56.109375 0 
L 49.859375 16.265625 
L 21.234375 16.265625 
L 15.328125 0 
L 0 0 
L 27.875 71.578125 
L 43.171875 71.578125 
z
M 45.21875 28.328125 
L 35.359375 54.890625 
L 25.6875 28.328125 
z
" id="Arial-BoldMT-65"/>
      <path d="M 26.078125 0 
L 26.078125 30.125 
L -0.140625 71.578125 
L 16.796875 71.578125 
L 33.640625 43.265625 
L 50.140625 71.578125 
L 66.796875 71.578125 
L 40.484375 30.03125 
L 40.484375 0 
z
" id="Arial-BoldMT-89"/>
      <path d="M 3.609375 23.296875 
L 17.671875 24.65625 
Q 18.953125 17.578125 22.828125 14.25 
Q 26.703125 10.9375 33.296875 10.9375 
Q 40.28125 10.9375 43.8125 13.890625 
Q 47.359375 16.84375 47.359375 20.796875 
Q 47.359375 23.34375 45.875 25.125 
Q 44.390625 26.90625 40.671875 28.21875 
Q 38.140625 29.109375 29.109375 31.34375 
Q 17.484375 34.234375 12.796875 38.421875 
Q 6.203125 44.34375 6.203125 52.828125 
Q 6.203125 58.296875 9.296875 63.0625 
Q 12.40625 67.828125 18.234375 70.3125 
Q 24.078125 72.796875 32.328125 72.796875 
Q 45.796875 72.796875 52.609375 66.890625 
Q 59.421875 60.984375 59.765625 51.125 
L 45.3125 50.484375 
Q 44.390625 56 41.328125 58.421875 
Q 38.28125 60.84375 32.171875 60.84375 
Q 25.875 60.84375 22.3125 58.25 
Q 20.015625 56.59375 20.015625 53.8125 
Q 20.015625 51.265625 22.171875 49.46875 
Q 24.90625 47.171875 35.453125 44.671875 
Q 46 42.1875 51.046875 39.515625 
Q 56.109375 36.859375 58.953125 32.25 
Q 61.8125 27.640625 61.8125 20.84375 
Q 61.8125 14.703125 58.390625 9.328125 
Q 54.984375 3.953125 48.734375 1.34375 
Q 42.484375 -1.265625 33.15625 -1.265625 
Q 19.578125 -1.265625 12.296875 5 
Q 5.03125 11.28125 3.609375 23.296875 
z
" id="Arial-BoldMT-83"/>
      <path d="M 3.375 -21.046875 
Q 7.421875 -12.359375 9.078125 -7.71875 
Q 10.75 -3.078125 12.15625 2.96875 
Q 13.578125 9.03125 14.25 14.46875 
Q 14.9375 19.921875 14.9375 25.640625 
Q 14.9375 37.25 12.453125 47.625 
Q 9.96875 58.015625 3.265625 72.796875 
L 12.59375 72.796875 
Q 19.96875 62.3125 24.046875 50.53125 
Q 28.125 38.765625 28.125 26.65625 
Q 28.125 16.453125 24.90625 4.78125 
Q 21.234375 -8.296875 12.84375 -21.046875 
z
" id="Arial-BoldMT-41"/>
     </defs>
     <g transform="translate(255.056875 502.615312)scale(0.2 -0.2)">
      <use xlink:href="#Arial-BoldMT-84"/>
      <use x="61.083984" xlink:href="#Arial-BoldMT-73"/>
      <use x="88.867188" xlink:href="#Arial-BoldMT-77"/>
      <use x="172.167969" xlink:href="#Arial-BoldMT-69"/>
      <use x="238.867188" xlink:href="#Arial-BoldMT-32"/>
      <use x="266.650391" xlink:href="#Arial-BoldMT-40"/>
      <use x="299.951172" xlink:href="#Arial-BoldMT-68"/>
      <use x="372.167969" xlink:href="#Arial-BoldMT-65"/>
      <use x="444.244141" xlink:href="#Arial-BoldMT-89"/>
      <use x="510.943359" xlink:href="#Arial-BoldMT-83"/>
      <use x="577.642578" xlink:href="#Arial-BoldMT-41"/>
     </g>
    </g>
   </g>
   <g id="matplotlib.axis_2">
    <g id="ytick_1">
     <g id="line2d_9">
      <defs>
       <path d="M 0 0 
L -3.5 0 
" id="m9131a59beb" style="stroke:#000000;stroke-width:0.8;"/>
      </defs>
      <g>
       <use style="stroke:#000000;stroke-width:0.8;" x="120.850625" xlink:href="#m9131a59beb" y="442.021562"/>
      </g>
     </g>
     <g id="text_10">
      <!-- 0 -->
      <g transform="translate(94.763125 453.419219)scale(0.3 -0.3)">
       <use xlink:href="#DejaVuSans-48"/>
      </g>
     </g>
    </g>
    <g id="ytick_2">
     <g id="line2d_10">
      <g>
       <use style="stroke:#000000;stroke-width:0.8;" x="120.850625" xlink:href="#m9131a59beb" y="365.917562"/>
      </g>
     </g>
     <g id="text_11">
      <!-- 50 -->
      <g transform="translate(75.675625 377.315219)scale(0.3 -0.3)">
       <use xlink:href="#DejaVuSans-53"/>
       <use x="63.623047" xlink:href="#DejaVuSans-48"/>
      </g>
     </g>
    </g>
    <g id="ytick_3">
     <g id="line2d_11">
      <g>
       <use style="stroke:#000000;stroke-width:0.8;" x="120.850625" xlink:href="#m9131a59beb" y="289.813562"/>
      </g>
     </g>
     <g id="text_12">
      <!-- 100 -->
      <g transform="translate(56.588125 301.211219)scale(0.3 -0.3)">
       <use xlink:href="#DejaVuSans-49"/>
       <use x="63.623047" xlink:href="#DejaVuSans-48"/>
       <use x="127.246094" xlink:href="#DejaVuSans-48"/>
      </g>
     </g>
    </g>
    <g id="ytick_4">
     <g id="line2d_12">
      <g>
       <use style="stroke:#000000;stroke-width:0.8;" x="120.850625" xlink:href="#m9131a59beb" y="213.709562"/>
      </g>
     </g>
     <g id="text_13">
      <!-- 150 -->
      <g transform="translate(56.588125 225.107219)scale(0.3 -0.3)">
       <use xlink:href="#DejaVuSans-49"/>
       <use x="63.623047" xlink:href="#DejaVuSans-53"/>
       <use x="127.246094" xlink:href="#DejaVuSans-48"/>
      </g>
     </g>
    </g>
    <g id="ytick_5">
     <g id="line2d_13">
      <g>
       <use style="stroke:#000000;stroke-width:0.8;" x="120.850625" xlink:href="#m9131a59beb" y="137.605562"/>
      </g>
     </g>
     <g id="text_14">
      <!-- 200 -->
      <g transform="translate(56.588125 149.003219)scale(0.3 -0.3)">
       <use xlink:href="#DejaVuSans-50"/>
       <use x="63.623047" xlink:href="#DejaVuSans-48"/>
       <use x="127.246094" xlink:href="#DejaVuSans-48"/>
      </g>
     </g>
    </g>
    <g id="ytick_6">
     <g id="line2d_14">
      <g>
       <use style="stroke:#000000;stroke-width:0.8;" x="120.850625" xlink:href="#m9131a59beb" y="61.501562"/>
      </g>
     </g>
     <g id="text_15">
      <!-- 250 -->
      <g transform="translate(56.588125 72.899219)scale(0.3 -0.3)">
       <use xlink:href="#DejaVuSans-50"/>
       <use x="63.623047" xlink:href="#DejaVuSans-53"/>
       <use x="127.246094" xlink:href="#DejaVuSans-48"/>
      </g>
     </g>
    </g>
    <g id="text_16">
     <!-- CD8 LIVE CELL -->
     <defs>
      <path d="M 53.078125 26.3125 
L 67.09375 21.875 
Q 63.875 10.15625 56.375 4.46875 
Q 48.875 -1.21875 37.359375 -1.21875 
Q 23.09375 -1.21875 13.90625 8.515625 
Q 4.734375 18.265625 4.734375 35.15625 
Q 4.734375 53.03125 13.953125 62.90625 
Q 23.1875 72.796875 38.234375 72.796875 
Q 51.375 72.796875 59.578125 65.046875 
Q 64.453125 60.453125 66.890625 51.859375 
L 52.59375 48.4375 
Q 51.3125 54 47.28125 57.21875 
Q 43.265625 60.453125 37.5 60.453125 
Q 29.546875 60.453125 24.578125 54.734375 
Q 19.625 49.03125 19.625 36.234375 
Q 19.625 22.65625 24.5 16.890625 
Q 29.390625 11.140625 37.203125 11.140625 
Q 42.96875 11.140625 47.109375 14.796875 
Q 51.265625 18.453125 53.078125 26.3125 
z
" id="Arial-BoldMT-67"/>
      <path d="M 16.015625 38.625 
Q 10.6875 40.875 8.265625 44.796875 
Q 5.859375 48.734375 5.859375 53.421875 
Q 5.859375 61.421875 11.453125 66.640625 
Q 17.046875 71.875 27.34375 71.875 
Q 37.546875 71.875 43.1875 66.640625 
Q 48.828125 61.421875 48.828125 53.421875 
Q 48.828125 48.4375 46.234375 44.546875 
Q 43.65625 40.671875 38.96875 38.625 
Q 44.921875 36.234375 48.015625 31.640625 
Q 51.125 27.046875 51.125 21.046875 
Q 51.125 11.140625 44.796875 4.9375 
Q 38.484375 -1.265625 27.984375 -1.265625 
Q 18.21875 -1.265625 11.71875 3.859375 
Q 4.046875 9.90625 4.046875 20.453125 
Q 4.046875 26.265625 6.921875 31.125 
Q 9.8125 35.984375 16.015625 38.625 
z
M 18.84375 52.4375 
Q 18.84375 48.34375 21.15625 46.046875 
Q 23.484375 43.75 27.34375 43.75 
Q 31.25 43.75 33.59375 46.0625 
Q 35.9375 48.390625 35.9375 52.484375 
Q 35.9375 56.34375 33.609375 58.65625 
Q 31.296875 60.984375 27.484375 60.984375 
Q 23.53125 60.984375 21.1875 58.640625 
Q 18.84375 56.296875 18.84375 52.4375 
z
M 17.578125 21.78125 
Q 17.578125 16.109375 20.484375 12.9375 
Q 23.390625 9.765625 27.734375 9.765625 
Q 31.984375 9.765625 34.765625 12.8125 
Q 37.546875 15.875 37.546875 21.625 
Q 37.546875 26.65625 34.71875 29.703125 
Q 31.890625 32.765625 27.546875 32.765625 
Q 22.515625 32.765625 20.046875 29.296875 
Q 17.578125 25.828125 17.578125 21.78125 
z
" id="Arial-BoldMT-56"/>
      <path d="M 7.671875 0 
L 7.671875 71 
L 22.125 71 
L 22.125 12.0625 
L 58.0625 12.0625 
L 58.0625 0 
z
" id="Arial-BoldMT-76"/>
      <path d="M 25.53125 0 
L -0.046875 71.578125 
L 15.625 71.578125 
L 33.734375 18.609375 
L 51.265625 71.578125 
L 66.609375 71.578125 
L 40.96875 0 
z
" id="Arial-BoldMT-86"/>
     </defs>
     <g transform="translate(21.515625 325.656875)rotate(-90)scale(0.2 -0.2)">
      <use xlink:href="#Arial-BoldMT-67"/>
      <use x="72.216797" xlink:href="#Arial-BoldMT-68"/>
      <use x="144.433594" xlink:href="#Arial-BoldMT-56"/>
      <use x="200.048828" xlink:href="#Arial-BoldMT-32"/>
      <use x="227.832031" xlink:href="#Arial-BoldMT-76"/>
      <use x="288.916016" xlink:href="#Arial-BoldMT-73"/>
      <use x="316.699219" xlink:href="#Arial-BoldMT-86"/>
      <use x="383.398438" xlink:href="#Arial-BoldMT-69"/>
      <use x="450.097656" xlink:href="#Arial-BoldMT-32"/>
      <use x="477.880859" xlink:href="#Arial-BoldMT-67"/>
      <use x="550.097656" xlink:href="#Arial-BoldMT-69"/>
      <use x="616.796875" xlink:href="#Arial-BoldMT-76"/>
      <use x="677.880859" xlink:href="#Arial-BoldMT-76"/>
     </g>
     <!-- COUNTS NORAMLIZED -->
     <defs>
      <path d="M 4.34375 35.359375 
Q 4.34375 46.296875 7.625 53.71875 
Q 10.0625 59.1875 14.28125 63.53125 
Q 18.5 67.875 23.53125 69.96875 
Q 30.21875 72.796875 38.96875 72.796875 
Q 54.78125 72.796875 64.28125 62.984375 
Q 73.78125 53.171875 73.78125 35.6875 
Q 73.78125 18.359375 64.359375 8.5625 
Q 54.9375 -1.21875 39.15625 -1.21875 
Q 23.1875 -1.21875 13.765625 8.515625 
Q 4.34375 18.265625 4.34375 35.359375 
z
M 19.234375 35.84375 
Q 19.234375 23.6875 24.84375 17.40625 
Q 30.46875 11.140625 39.109375 11.140625 
Q 47.75 11.140625 53.296875 17.359375 
Q 58.84375 23.578125 58.84375 36.03125 
Q 58.84375 48.34375 53.4375 54.390625 
Q 48.046875 60.453125 39.109375 60.453125 
Q 30.171875 60.453125 24.703125 54.3125 
Q 19.234375 48.1875 19.234375 35.84375 
z
" id="Arial-BoldMT-79"/>
      <path d="M 7.171875 71.578125 
L 21.625 71.578125 
L 21.625 32.8125 
Q 21.625 23.578125 22.171875 20.84375 
Q 23.09375 16.453125 26.578125 13.796875 
Q 30.078125 11.140625 36.140625 11.140625 
Q 42.28125 11.140625 45.40625 13.640625 
Q 48.53125 16.15625 49.171875 19.8125 
Q 49.8125 23.484375 49.8125 31.984375 
L 49.8125 71.578125 
L 64.265625 71.578125 
L 64.265625 33.984375 
Q 64.265625 21.09375 63.09375 15.765625 
Q 61.921875 10.453125 58.765625 6.78125 
Q 55.609375 3.125 50.328125 0.953125 
Q 45.0625 -1.21875 36.578125 -1.21875 
Q 26.3125 -1.21875 21.015625 1.140625 
Q 15.71875 3.515625 12.640625 7.296875 
Q 9.578125 11.078125 8.59375 15.234375 
Q 7.171875 21.390625 7.171875 33.40625 
z
" id="Arial-BoldMT-85"/>
      <path d="M 7.421875 0 
L 7.421875 71.578125 
L 21.484375 71.578125 
L 50.78125 23.78125 
L 50.78125 71.578125 
L 64.203125 71.578125 
L 64.203125 0 
L 49.703125 0 
L 20.84375 46.6875 
L 20.84375 0 
z
" id="Arial-BoldMT-78"/>
      <path d="M 7.328125 0 
L 7.328125 71.578125 
L 37.75 71.578125 
Q 49.21875 71.578125 54.421875 69.640625 
Q 59.625 67.71875 62.75 62.78125 
Q 65.875 57.859375 65.875 51.515625 
Q 65.875 43.453125 61.125 38.203125 
Q 56.390625 32.953125 46.96875 31.59375 
Q 51.65625 28.859375 54.703125 25.578125 
Q 57.765625 22.3125 62.9375 13.96875 
L 71.6875 0 
L 54.390625 0 
L 43.953125 15.578125 
Q 38.375 23.921875 36.328125 26.09375 
Q 34.28125 28.265625 31.984375 29.078125 
Q 29.6875 29.890625 24.703125 29.890625 
L 21.78125 29.890625 
L 21.78125 0 
z
M 21.78125 41.3125 
L 32.46875 41.3125 
Q 42.875 41.3125 45.453125 42.1875 
Q 48.046875 43.0625 49.515625 45.203125 
Q 50.984375 47.359375 50.984375 50.59375 
Q 50.984375 54.203125 49.046875 56.421875 
Q 47.125 58.640625 43.609375 59.234375 
Q 41.84375 59.46875 33.0625 59.46875 
L 21.78125 59.46875 
z
" id="Arial-BoldMT-82"/>
      <path d="M 1.078125 0 
L 1.078125 13.03125 
L 38.671875 59.46875 
L 5.328125 59.46875 
L 5.328125 71.578125 
L 57.71875 71.578125 
L 57.71875 60.359375 
L 18.5 12.0625 
L 59.234375 12.0625 
L 59.234375 0 
z
" id="Arial-BoldMT-90"/>
     </defs>
     <g transform="translate(42.64125 363.420937)rotate(-90)scale(0.2 -0.2)">
      <use xlink:href="#Arial-BoldMT-67"/>
      <use x="72.216797" xlink:href="#Arial-BoldMT-79"/>
      <use x="150" xlink:href="#Arial-BoldMT-85"/>
      <use x="222.216797" xlink:href="#Arial-BoldMT-78"/>
      <use x="294.433594" xlink:href="#Arial-BoldMT-84"/>
      <use x="355.517578" xlink:href="#Arial-BoldMT-83"/>
      <use x="422.216797" xlink:href="#Arial-BoldMT-32"/>
      <use x="450" xlink:href="#Arial-BoldMT-78"/>
      <use x="522.216797" xlink:href="#Arial-BoldMT-79"/>
      <use x="600" xlink:href="#Arial-BoldMT-82"/>
      <use x="672.216797" xlink:href="#Arial-BoldMT-65"/>
      <use x="744.433594" xlink:href="#Arial-BoldMT-77"/>
      <use x="827.734375" xlink:href="#Arial-BoldMT-76"/>
      <use x="888.818359" xlink:href="#Arial-BoldMT-73"/>
      <use x="916.601562" xlink:href="#Arial-BoldMT-90"/>
      <use x="977.685547" xlink:href="#Arial-BoldMT-69"/>
      <use x="1044.384766" xlink:href="#Arial-BoldMT-68"/>
     </g>
    </g>
   </g>
   <g id="line2d_15">
    <path clip-path="url(#p92d4212df2)" d="M 120.850625 442.021562 
L 148.750625 440.499482 
L 176.650625 439.013932 
L 204.550625 436.493368 
L 232.450625 432.085424 
L 260.350625 420.925534 
L 288.250625 399.99389 
L 316.150625 358.355869 
L 344.050625 309.034389 
L 371.950625 258.79966 
L 399.850625 199.444629 
L 427.750625 187.341049 
L 455.650625 182.214683 
L 483.550625 178.31207 
L 511.450625 176.095922 
" style="fill:none;stroke:#08306b;stroke-linecap:square;stroke-width:1.5;"/>
   </g>
   <g id="line2d_16">
    <path clip-path="url(#p92d4212df2)" d="M 120.850625 442.021562 
L 148.750625 440.499482 
L 176.650625 439.044374 
L 204.550625 436.462926 
L 232.450625 431.622712 
L 260.350625 420.14014 
L 288.250625 397.887331 
L 316.150625 354.794202 
L 344.050625 305.277895 
L 371.950625 241.545362 
L 399.850625 191.815964 
L 427.750625 178.567779 
L 455.650625 172.26028 
L 483.550625 166.555524 
L 511.450625 163.681837 
" style="fill:none;stroke:#08306b;stroke-linecap:square;stroke-width:1.5;"/>
   </g>
   <g id="line2d_17">
    <path clip-path="url(#p92d4212df2)" d="M 120.850625 442.021562 
L 148.750625 440.499482 
L 176.650625 439.044374 
L 204.550625 436.505545 
L 232.450625 431.306119 
L 260.350625 419.385189 
L 288.250625 396.560077 
L 316.150625 351.457802 
L 344.050625 299.220017 
L 371.950625 240.75388 
L 399.850625 190.56177 
L 427.750625 177.033523 
L 455.650625 171.152206 
L 483.550625 166.104988 
L 511.450625 163.407863 
" style="fill:none;stroke:#08306b;stroke-linecap:square;stroke-width:1.5;"/>
   </g>
   <g id="line2d_18">
    <path clip-path="url(#p92d4212df2)" d="M 120.850625 442.021562 
L 148.750625 440.499482 
L 176.650625 439.032197 
L 204.550625 436.462926 
L 232.450625 431.720125 
L 260.350625 420.371497 
L 288.250625 398.191747 
L 316.150625 353.990544 
L 344.050625 302.21547 
L 371.950625 247.63977 
L 399.850625 189.240604 
L 427.750625 179.72456 
L 455.650625 173.666682 
L 483.550625 169.666656 
L 511.450625 166.385051 
" style="fill:none;stroke:#08306b;stroke-linecap:square;stroke-width:1.5;"/>
   </g>
   <g id="line2d_19">
    <path clip-path="url(#p92d4212df2)" d="M 120.850625 442.021562 
L 148.750625 440.499482 
L 176.650625 439.020021 
L 204.550625 436.456838 
L 232.450625 432.152396 
L 260.350625 421.394334 
L 288.250625 400.882784 
L 316.150625 360.224983 
L 344.050625 307.07395 
L 371.950625 260.967102 
L 399.850625 197.904284 
L 427.750625 183.140108 
L 455.650625 179.474939 
L 483.550625 175.200938 
L 511.450625 172.905642 
" style="fill:none;stroke:#08306b;stroke-linecap:square;stroke-width:1.5;"/>
   </g>
   <g id="line2d_20">
    <path clip-path="url(#p92d4212df2)" d="M 120.850625 442.021562 
L 148.750625 440.499482 
L 176.650625 439.086992 
L 204.550625 436.657753 
L 232.450625 432.64555 
L 260.350625 422.490232 
L 288.250625 403.178081 
L 316.150625 365.929739 
L 344.050625 316.048133 
L 371.950625 264.072146 
L 399.850625 203.956074 
L 427.750625 187.030544 
L 455.650625 180.132478 
L 483.550625 176.455132 
L 511.450625 173.05785 
" style="fill:none;stroke:#08306b;stroke-linecap:square;stroke-width:1.5;"/>
   </g>
   <g id="line2d_21">
    <path clip-path="url(#p92d4212df2)" d="M 120.850625 442.021562 
L 148.750625 440.499482 
L 176.650625 439.038286 
L 204.550625 436.444661 
L 232.450625 431.561829 
L 260.350625 420.030551 
L 288.250625 397.765564 
L 316.150625 353.667863 
L 344.050625 298.824276 
L 371.950625 249.758505 
L 399.850625 190.129499 
L 427.750625 178.190304 
L 455.650625 171.669713 
L 483.550625 167.535744 
L 511.450625 163.992341 
" style="fill:none;stroke:#08306b;stroke-linecap:square;stroke-width:1.5;"/>
   </g>
   <g id="line2d_22">
    <path clip-path="url(#p92d4212df2)" d="M 120.850625 442.021562 
L 148.750625 440.499482 
L 176.650625 439.026109 
L 204.550625 436.469015 
L 232.450625 432.018453 
L 260.350625 421.290833 
L 288.250625 400.3531 
L 316.150625 359.056026 
L 344.050625 307.232246 
L 371.950625 251.530206 
L 399.850625 193.794668 
L 427.750625 181.782412 
L 455.650625 177.593648 
L 483.550625 173.922391 
L 511.450625 172.035012 
" style="fill:none;stroke:#08306b;stroke-linecap:square;stroke-width:1.5;"/>
   </g>
   <g id="line2d_23">
    <path clip-path="url(#p92d4212df2)" d="M 120.850625 442.021562 
L 148.750625 440.499482 
L 176.650625 439.068727 
L 204.550625 436.657753 
L 232.450625 432.048894 
L 260.350625 421.175155 
L 288.250625 399.92083 
L 316.150625 358.562872 
L 344.050625 306.27638 
L 371.950625 254.659603 
L 399.850625 193.374574 
L 427.750625 181.885914 
L 455.650625 176.662135 
L 483.550625 172.917818 
L 511.450625 170.269399 
" style="fill:none;stroke:#08306b;stroke-linecap:square;stroke-width:1.5;"/>
   </g>
   <g id="line2d_24">
    <path clip-path="url(#p92d4212df2)" d="M 120.850625 442.021562 
L 148.750625 440.499482 
L 176.650625 439.068727 
L 204.550625 436.505545 
L 232.450625 432.31678 
L 260.350625 421.637867 
L 288.250625 400.620986 
L 316.150625 359.829242 
L 344.050625 308.060258 
L 371.950625 254.336922 
L 399.850625 201.240683 
L 427.750625 187.164487 
L 455.650625 182.202506 
L 483.550625 178.214657 
L 511.450625 175.188762 
" style="fill:none;stroke:#08306b;stroke-linecap:square;stroke-width:1.5;"/>
   </g>
   <g id="line2d_25">
    <path clip-path="url(#p92d4212df2)" d="M 120.850625 442.021562 
L 148.750625 440.499482 
L 176.650625 439.050462 
L 204.550625 437.467499 
L 232.450625 435.111319 
L 260.350625 429.089971 
L 288.250625 420.304525 
L 316.150625 404.627101 
L 344.050625 382.112494 
L 371.950625 362.70293 
L 399.850625 325.071024 
L 427.750625 286.172747 
L 455.650625 264.784479 
L 483.550625 244.918291 
L 511.450625 223.870969 
" style="fill:none;stroke:#4a98c9;stroke-linecap:square;stroke-width:1.5;"/>
   </g>
   <g id="line2d_26">
    <path clip-path="url(#p92d4212df2)" d="M 120.850625 442.021562 
L 148.750625 440.499482 
L 176.650625 439.068727 
L 204.550625 437.382263 
L 232.450625 434.92867 
L 260.350625 428.755113 
L 288.250625 419.580015 
L 316.150625 402.751898 
L 344.050625 379.494516 
L 371.950625 360.328485 
L 399.850625 317.892894 
L 427.750625 276.589731 
L 455.650625 258.142122 
L 483.550625 238.769088 
L 511.450625 218.915076 
" style="fill:none;stroke:#4a98c9;stroke-linecap:square;stroke-width:1.5;"/>
   </g>
   <g id="line2d_27">
    <path clip-path="url(#p92d4212df2)" d="M 120.850625 442.021562 
L 148.750625 440.499482 
L 176.650625 439.074816 
L 204.550625 437.485764 
L 232.450625 435.172202 
L 260.350625 429.205649 
L 288.250625 420.895092 
L 316.150625 405.668204 
L 344.050625 384.547822 
L 371.950625 367.025637 
L 399.850625 331.122814 
L 427.750625 290.300628 
L 455.650625 268.504442 
L 483.550625 248.169454 
L 511.450625 228.339795 
" style="fill:none;stroke:#4a98c9;stroke-linecap:square;stroke-width:1.5;"/>
   </g>
   <g id="line2d_28">
    <path clip-path="url(#p92d4212df2)" d="M 120.850625 442.021562 
L 148.750625 440.499482 
L 176.650625 439.093081 
L 204.550625 437.357909 
L 232.450625 435.086966 
L 260.350625 428.718583 
L 288.250625 419.287776 
L 316.150625 403.178081 
L 344.050625 378.209881 
L 371.950625 356.93729 
L 399.850625 316.285578 
L 427.750625 271.390306 
L 455.650625 248.760021 
L 483.550625 225.289547 
L 511.450625 206.093074 
" style="fill:none;stroke:#4a98c9;stroke-linecap:square;stroke-width:1.5;"/>
   </g>
   <g id="line2d_29">
    <path clip-path="url(#p92d4212df2)" d="M 120.850625 442.021562 
L 148.750625 440.499482 
L 176.650625 439.068727 
L 204.550625 437.169171 
L 232.450625 435.050436 
L 260.350625 428.87688 
L 288.250625 419.318217 
L 316.150625 403.829531 
L 344.050625 381.887226 
L 371.950625 362.769901 
L 399.850625 324.334337 
L 427.750625 285.47259 
L 455.650625 263.000601 
L 483.550625 244.163339 
L 511.450625 224.498066 
" style="fill:none;stroke:#4a98c9;stroke-linecap:square;stroke-width:1.5;"/>
   </g>
   <g id="line2d_30">
    <path clip-path="url(#p92d4212df2)" d="M 120.850625 442.021562 
L 148.750625 440.499482 
L 176.650625 439.068727 
L 204.550625 437.187436 
L 232.450625 435.062613 
L 260.350625 428.749025 
L 288.250625 419.287776 
L 316.150625 403.044138 
L 344.050625 379.567576 
L 371.950625 360.09104 
L 399.850625 323.177556 
L 427.750625 284.309721 
L 455.650625 262.403946 
L 483.550625 242.306402 
L 511.450625 219.712646 
" style="fill:none;stroke:#4a98c9;stroke-linecap:square;stroke-width:1.5;"/>
   </g>
   <g id="line2d_31">
    <path clip-path="url(#p92d4212df2)" d="M 120.850625 442.021562 
L 148.750625 440.499482 
L 176.650625 439.074816 
L 204.550625 437.309203 
L 232.450625 434.898228 
L 260.350625 428.749025 
L 288.250625 419.190362 
L 316.150625 402.861488 
L 344.050625 381.875049 
L 371.950625 361.783593 
L 399.850625 321.101439 
L 427.750625 284.8942 
L 455.650625 266.215234 
L 483.550625 242.117664 
L 511.450625 224.163208 
" style="fill:none;stroke:#4a98c9;stroke-linecap:square;stroke-width:1.5;"/>
   </g>
   <g id="line2d_32">
    <path clip-path="url(#p92d4212df2)" d="M 120.850625 442.021562 
L 148.750625 440.499482 
L 176.650625 439.086992 
L 204.550625 437.21179 
L 232.450625 434.9652 
L 260.350625 428.450697 
L 288.250625 418.971183 
L 316.150625 401.881269 
L 344.050625 380.048553 
L 371.950625 357.667889 
L 399.850625 312.121167 
L 427.750625 271.877372 
L 455.650625 252.084243 
L 483.550625 229.283485 
L 511.450625 209.855656 
" style="fill:none;stroke:#4a98c9;stroke-linecap:square;stroke-width:1.5;"/>
   </g>
   <g id="line2d_33">
    <path clip-path="url(#p92d4212df2)" d="M 120.850625 442.021562 
L 148.750625 440.499482 
L 176.650625 439.068727 
L 204.550625 437.21179 
L 232.450625 434.843433 
L 260.350625 428.231518 
L 288.250625 417.765696 
L 316.150625 399.652944 
L 344.050625 373.874997 
L 371.950625 350.556731 
L 399.850625 305.521428 
L 427.750625 262.617037 
L 455.650625 241.29574 
L 483.550625 223.28649 
L 511.450625 202.440082 
" style="fill:none;stroke:#4a98c9;stroke-linecap:square;stroke-width:1.5;"/>
   </g>
   <g id="line2d_34">
    <path clip-path="url(#p92d4212df2)" d="M 120.850625 442.021562 
L 148.750625 440.499482 
L 176.650625 439.020021 
L 204.550625 437.13873 
L 232.450625 434.849522 
L 260.350625 428.261959 
L 288.250625 418.551089 
L 316.150625 402.16742 
L 344.050625 377.278368 
L 371.950625 352.645025 
L 399.850625 315.311447 
L 427.750625 276.035694 
L 455.650625 251.110112 
L 483.550625 230.367206 
L 511.450625 211.925685 
" style="fill:none;stroke:#4a98c9;stroke-linecap:square;stroke-width:1.5;"/>
   </g>
   <g id="line2d_35">
    <path clip-path="url(#p92d4212df2)" d="M 120.850625 442.021562 
L 148.750625 440.499482 
L 176.650625 439.086992 
L 204.550625 437.747562 
L 232.450625 435.860183 
L 260.350625 431.01388 
L 288.250625 425.924044 
L 316.150625 416.000083 
L 344.050625 400.188716 
L 371.950625 385.199272 
L 399.850625 374.538624 
L 427.750625 365.948004 
L 455.650625 357.412179 
L 483.550625 350.075754 
L 511.450625 342.11832 
" style="fill:none;stroke:#d0e1f2;stroke-linecap:square;stroke-width:1.5;"/>
   </g>
   <g id="line2d_36">
    <path clip-path="url(#p92d4212df2)" d="M 120.850625 442.021562 
L 148.750625 440.499482 
L 176.650625 439.050462 
L 204.550625 437.625795 
L 232.450625 435.793211 
L 260.350625 430.837319 
L 288.250625 425.558745 
L 316.150625 415.086835 
L 344.050625 398.563134 
L 371.950625 386.343876 
L 399.850625 372.334652 
L 427.750625 362.051479 
L 455.650625 355.689185 
L 483.550625 347.896135 
L 511.450625 340.48665 
" style="fill:none;stroke:#d0e1f2;stroke-linecap:square;stroke-width:1.5;"/>
   </g>
   <g id="line2d_37">
    <path clip-path="url(#p92d4212df2)" d="M 120.850625 442.021562 
L 148.750625 440.499482 
L 176.650625 439.099169 
L 204.550625 437.650149 
L 232.450625 435.799299 
L 260.350625 430.873849 
L 288.250625 425.485685 
L 316.150625 415.671314 
L 344.050625 399.238938 
L 371.950625 386.063813 
L 399.850625 374.532535 
L 427.750625 366.130654 
L 455.650625 359.244764 
L 483.550625 351.90225 
L 511.450625 344.450146 
" style="fill:none;stroke:#d0e1f2;stroke-linecap:square;stroke-width:1.5;"/>
   </g>
   <g id="line2d_38">
    <path clip-path="url(#p92d4212df2)" d="M 120.850625 442.021562 
L 148.750625 440.499482 
L 176.650625 439.062639 
L 204.550625 437.437058 
L 232.450625 435.756681 
L 260.350625 430.703376 
L 288.250625 424.931648 
L 316.150625 415.062482 
L 344.050625 397.71077 
L 371.950625 383.458012 
L 399.850625 373.089603 
L 427.750625 362.605516 
L 455.650625 355.963159 
L 483.550625 347.810899 
L 511.450625 339.080248 
" style="fill:none;stroke:#d0e1f2;stroke-linecap:square;stroke-width:1.5;"/>
   </g>
   <g id="line2d_39">
    <path clip-path="url(#p92d4212df2)" d="M 120.850625 442.021562 
L 148.750625 440.499482 
L 176.650625 439.093081 
L 204.550625 437.540559 
L 232.450625 435.829741 
L 260.350625 431.08694 
L 288.250625 425.741395 
L 316.150625 416.237527 
L 344.050625 400.487043 
L 371.950625 386.812677 
L 399.850625 372.809541 
L 427.750625 362.392425 
L 455.650625 356.535461 
L 483.550625 347.975283 
L 511.450625 340.206587 
" style="fill:none;stroke:#d0e1f2;stroke-linecap:square;stroke-width:1.5;"/>
   </g>
   <g id="line2d_40">
    <path clip-path="url(#p92d4212df2)" d="M 120.850625 442.021562 
L 148.750625 440.499482 
L 176.650625 439.117434 
L 204.550625 437.552736 
L 232.450625 435.823653 
L 260.350625 430.989527 
L 288.250625 425.199534 
L 316.150625 415.72002 
L 344.050625 397.570738 
L 371.950625 383.878106 
L 399.850625 372.852159 
L 427.750625 362.794254 
L 455.650625 354.745495 
L 483.550625 347.536924 
L 511.450625 338.532299 
" style="fill:none;stroke:#d0e1f2;stroke-linecap:square;stroke-width:1.5;"/>
   </g>
   <g id="line2d_41">
    <path clip-path="url(#p92d4212df2)" d="M 120.850625 442.021562 
L 148.750625 440.499482 
L 176.650625 439.086992 
L 204.550625 437.583177 
L 232.450625 435.835829 
L 260.350625 430.965173 
L 288.250625 425.86925 
L 316.150625 416.548032 
L 344.050625 399.476382 
L 371.950625 385.680249 
L 399.850625 375.725846 
L 427.750625 367.488349 
L 455.650625 359.110821 
L 483.550625 352.675466 
L 511.450625 343.981346 
" style="fill:none;stroke:#d0e1f2;stroke-linecap:square;stroke-width:1.5;"/>
   </g>
   <g id="line2d_42">
    <path clip-path="url(#p92d4212df2)" d="M 120.850625 442.021562 
L 148.750625 440.499482 
L 176.650625 439.056551 
L 204.550625 437.546647 
L 232.450625 435.793211 
L 260.350625 430.782524 
L 288.250625 425.412626 
L 316.150625 415.616519 
L 344.050625 399.695562 
L 371.950625 386.788323 
L 399.850625 375.512755 
L 427.750625 366.349833 
L 455.650625 359.141262 
L 483.550625 350.84897 
L 511.450625 342.246174 
" style="fill:none;stroke:#d0e1f2;stroke-linecap:square;stroke-width:1.5;"/>
   </g>
   <g id="line2d_43">
    <path clip-path="url(#p92d4212df2)" d="M 120.850625 442.021562 
L 148.750625 440.499482 
L 176.650625 439.099169 
L 204.550625 437.60753 
L 232.450625 435.866271 
L 260.350625 430.965173 
L 288.250625 425.491774 
L 316.150625 415.878316 
L 344.050625 399.713827 
L 371.950625 384.474762 
L 399.850625 372.99219 
L 427.750625 363.275232 
L 455.650625 353.801806 
L 483.550625 346.087904 
L 511.450625 338.106117 
" style="fill:none;stroke:#d0e1f2;stroke-linecap:square;stroke-width:1.5;"/>
   </g>
   <g id="line2d_44">
    <path clip-path="url(#p92d4212df2)" d="M 120.850625 442.021562 
L 148.750625 440.499482 
L 176.650625 439.062639 
L 204.550625 437.601442 
L 232.450625 435.854094 
L 260.350625 431.001703 
L 288.250625 425.607452 
L 316.150625 415.987906 
L 344.050625 400.158274 
L 371.950625 385.643719 
L 399.850625 372.395535 
L 427.750625 363.068229 
L 455.650625 354.209723 
L 483.550625 346.909827 
L 511.450625 338.897598 
" style="fill:none;stroke:#d0e1f2;stroke-linecap:square;stroke-width:1.5;"/>
   </g>
   <g id="line2d_45">
    <path clip-path="url(#p92d4212df2)" d="M 120.850625 442.021562 
L 148.750625 440.499482 
L 176.650625 439.050462 
L 204.550625 436.913462 
L 232.450625 433.467473 
L 260.350625 424.401964 
L 288.250625 407.732144 
L 316.150625 376.572122 
L 344.050625 335.99347 
L 371.950625 284.78461 
L 399.850625 216.796341 
L 427.750625 200.497908 
L 455.650625 192.899685 
L 483.550625 186.677422 
L 511.450625 182.025945 
" style="fill:none;stroke:#1764ab;stroke-linecap:square;stroke-width:1.5;"/>
   </g>
   <g id="line2d_46">
    <path clip-path="url(#p92d4212df2)" d="M 120.850625 442.021562 
L 148.750625 440.499482 
L 176.650625 439.086992 
L 204.550625 436.870844 
L 232.450625 433.089997 
L 260.350625 424.006224 
L 288.250625 407.044164 
L 316.150625 375.086572 
L 344.050625 340.127439 
L 371.950625 284.468018 
L 399.850625 226.549829 
L 427.750625 205.161561 
L 455.650625 195.840343 
L 483.550625 189.155368 
L 511.450625 184.351683 
" style="fill:none;stroke:#1764ab;stroke-linecap:square;stroke-width:1.5;"/>
   </g>
   <g id="line2d_47">
    <path clip-path="url(#p92d4212df2)" d="M 120.850625 442.021562 
L 148.750625 440.499482 
L 176.650625 439.044374 
L 204.550625 436.724724 
L 232.450625 432.913436 
L 260.350625 423.409568 
L 288.250625 405.765617 
L 316.150625 371.993706 
L 344.050625 330.392215 
L 371.950625 278.872851 
L 399.850625 207.018499 
L 427.750625 190.281707 
L 455.650625 183.974208 
L 483.550625 176.321189 
L 511.450625 172.071542 
" style="fill:none;stroke:#1764ab;stroke-linecap:square;stroke-width:1.5;"/>
   </g>
   <g id="line2d_48">
    <path clip-path="url(#p92d4212df2)" d="M 120.850625 442.021562 
L 148.750625 440.499482 
L 176.650625 439.038286 
L 204.550625 436.749077 
L 232.450625 432.943877 
L 260.350625 423.172124 
L 288.250625 405.17505 
L 316.150625 371.72582 
L 344.050625 332.383096 
L 371.950625 275.140711 
L 399.850625 206.519257 
L 427.750625 189.459784 
L 455.650625 181.678911 
L 483.550625 175.420118 
L 511.450625 170.330282 
" style="fill:none;stroke:#1764ab;stroke-linecap:square;stroke-width:1.5;"/>
   </g>
   <g id="line2d_49">
    <path clip-path="url(#p92d4212df2)" d="M 120.850625 442.021562 
L 148.750625 440.499482 
L 176.650625 439.032197 
L 204.550625 436.901285 
L 232.450625 433.44312 
L 260.350625 424.292375 
L 288.250625 407.811292 
L 316.150625 377.193131 
L 344.050625 338.331385 
L 371.950625 286.982494 
L 399.850625 223.761379 
L 427.750625 206.093074 
L 455.650625 199.121948 
L 483.550625 192.942303 
L 511.450625 188.595242 
" style="fill:none;stroke:#1764ab;stroke-linecap:square;stroke-width:1.5;"/>
   </g>
   <g id="line2d_50">
    <path clip-path="url(#p92d4212df2)" d="M 120.850625 442.021562 
L 148.750625 440.499482 
L 176.650625 439.074816 
L 204.550625 436.84649 
L 232.450625 433.108262 
L 260.350625 424.115813 
L 288.250625 407.701703 
L 316.150625 376.79739 
L 344.050625 336.109148 
L 371.950625 289.990124 
L 399.850625 228.522445 
L 427.750625 201.75819 
L 455.650625 194.33044 
L 483.550625 188.564801 
L 511.450625 183.919413 
" style="fill:none;stroke:#1764ab;stroke-linecap:square;stroke-width:1.5;"/>
   </g>
   <g id="line2d_51">
    <path clip-path="url(#p92d4212df2)" d="M 120.850625 442.021562 
L 148.750625 440.499482 
L 176.650625 439.044374 
L 204.550625 436.676018 
L 232.450625 432.53596 
L 260.350625 422.258876 
L 288.250625 403.305936 
L 316.150625 367.84756 
L 344.050625 325.30238 
L 371.950625 263.773818 
L 399.850625 203.596863 
L 427.750625 186.90269 
L 455.650625 179.90721 
L 483.550625 174.72605 
L 511.450625 170.098926 
" style="fill:none;stroke:#1764ab;stroke-linecap:square;stroke-width:1.5;"/>
   </g>
   <g id="line2d_52">
    <path clip-path="url(#p92d4212df2)" d="M 120.850625 442.021562 
L 148.750625 440.499482 
L 176.650625 439.068727 
L 204.550625 436.84649 
L 232.450625 432.925612 
L 260.350625 423.823574 
L 288.250625 406.465774 
L 316.150625 372.870424 
L 344.050625 332.797102 
L 371.950625 275.932193 
L 399.850625 209.752154 
L 427.750625 192.108203 
L 455.650625 185.112723 
L 483.550625 179.334908 
L 511.450625 175.876742 
" style="fill:none;stroke:#1764ab;stroke-linecap:square;stroke-width:1.5;"/>
   </g>
   <g id="line2d_53">
    <path clip-path="url(#p92d4212df2)" d="M 120.850625 442.021562 
L 148.750625 440.499482 
L 176.650625 439.050462 
L 204.550625 436.761254 
L 232.450625 432.803846 
L 260.350625 423.086887 
L 288.250625 404.724514 
L 316.150625 371.263107 
L 344.050625 333.545965 
L 371.950625 275.286831 
L 399.850625 211.840448 
L 427.750625 197.904284 
L 455.650625 188.467388 
L 483.550625 183.341022 
L 511.450625 177.739768 
" style="fill:none;stroke:#1764ab;stroke-linecap:square;stroke-width:1.5;"/>
   </g>
   <g id="line2d_54">
    <path clip-path="url(#p92d4212df2)" d="M 120.850625 442.021562 
L 148.750625 440.499482 
L 176.650625 439.050462 
L 204.550625 436.724724 
L 232.450625 432.60902 
L 260.350625 422.526762 
L 288.250625 403.780825 
L 316.150625 368.492922 
L 344.050625 326.313041 
L 371.950625 266.574445 
L 399.850625 199.182831 
L 427.750625 185.167518 
L 455.650625 176.75346 
L 483.550625 170.214604 
L 511.450625 165.289154 
" style="fill:none;stroke:#1764ab;stroke-linecap:square;stroke-width:1.5;"/>
   </g>
   <g id="line2d_55">
    <path clip-path="url(#p92d4212df2)" d="M 120.850625 442.021562 
L 148.750625 440.499482 
L 176.650625 439.044374 
L 204.550625 437.510117 
L 232.450625 435.385294 
L 260.350625 429.729244 
L 288.250625 422.331936 
L 316.150625 408.377506 
L 344.050625 386.684822 
L 371.950625 371.080458 
L 399.850625 345.515602 
L 427.750625 312.900472 
L 455.650625 290.8364 
L 483.550625 275.043298 
L 511.450625 250.087274 
" style="fill:none;stroke:#94c4df;stroke-linecap:square;stroke-width:1.5;"/>
   </g>
   <g id="line2d_56">
    <path clip-path="url(#p92d4212df2)" d="M 120.850625 442.021562 
L 148.750625 440.499482 
L 176.650625 439.093081 
L 204.550625 437.437058 
L 232.450625 435.574032 
L 260.350625 430.240663 
L 288.250625 423.500893 
L 316.150625 411.586051 
L 344.050625 393.083646 
L 371.950625 380.359058 
L 399.850625 356.712023 
L 427.750625 327.719443 
L 455.650625 312.918737 
L 483.550625 293.484819 
L 511.450625 268.80277 
" style="fill:none;stroke:#94c4df;stroke-linecap:square;stroke-width:1.5;"/>
   </g>
   <g id="line2d_57">
    <path clip-path="url(#p92d4212df2)" d="M 120.850625 442.021562 
L 148.750625 440.499482 
L 176.650625 439.086992 
L 204.550625 437.412704 
L 232.450625 435.379205 
L 260.350625 429.570948 
L 288.250625 421.637867 
L 316.150625 408.347065 
L 344.050625 389.795954 
L 371.950625 373.534051 
L 399.850625 346.599323 
L 427.750625 321.959892 
L 455.650625 304.10285 
L 483.550625 283.822656 
L 511.450625 266.744918 
" style="fill:none;stroke:#94c4df;stroke-linecap:square;stroke-width:1.5;"/>
   </g>
   <g id="line2d_58">
    <path clip-path="url(#p92d4212df2)" d="M 120.850625 442.021562 
L 148.750625 440.499482 
L 176.650625 439.062639 
L 204.550625 437.327468 
L 232.450625 435.427912 
L 260.350625 429.832746 
L 288.250625 422.325847 
L 316.150625 409.181164 
L 344.050625 388.955765 
L 371.950625 371.622318 
L 399.850625 344.657149 
L 427.750625 314.294697 
L 455.650625 291.810531 
L 483.550625 270.799739 
L 511.450625 245.874157 
" style="fill:none;stroke:#94c4df;stroke-linecap:square;stroke-width:1.5;"/>
   </g>
   <g id="line2d_59">
    <path clip-path="url(#p92d4212df2)" d="M 120.850625 442.021562 
L 148.750625 440.499482 
L 176.650625 439.056551 
L 204.550625 437.400528 
L 232.450625 435.409647 
L 260.350625 429.978866 
L 288.250625 422.42326 
L 316.150625 410.003088 
L 344.050625 391.689421 
L 371.950625 375.975467 
L 399.850625 350.897677 
L 427.750625 328.77881 
L 455.650625 310.038962 
L 483.550625 291.183434 
L 511.450625 271.980873 
" style="fill:none;stroke:#94c4df;stroke-linecap:square;stroke-width:1.5;"/>
   </g>
   <g id="line2d_60">
    <path clip-path="url(#p92d4212df2)" d="M 120.850625 442.021562 
L 148.750625 440.499482 
L 176.650625 439.105257 
L 204.550625 437.443146 
L 232.450625 435.348764 
L 260.350625 429.911894 
L 288.250625 422.246699 
L 316.150625 408.554067 
L 344.050625 388.645261 
L 371.950625 372.218974 
L 399.850625 347.256862 
L 427.750625 320.486519 
L 455.650625 301.649257 
L 483.550625 282.069219 
L 511.450625 258.44045 
" style="fill:none;stroke:#94c4df;stroke-linecap:square;stroke-width:1.5;"/>
   </g>
   <g id="line2d_61">
    <path clip-path="url(#p92d4212df2)" d="M 120.850625 442.021562 
L 148.750625 440.499482 
L 176.650625 439.074816 
L 204.550625 437.430969 
L 232.450625 435.421824 
L 260.350625 429.686626 
L 288.250625 422.185816 
L 316.150625 409.430786 
L 344.050625 389.595039 
L 371.950625 372.505125 
L 399.850625 347.488218 
L 427.750625 320.687433 
L 455.650625 299.926262 
L 483.550625 279.183356 
L 511.450625 255.420643 
" style="fill:none;stroke:#94c4df;stroke-linecap:square;stroke-width:1.5;"/>
   </g>
   <g id="line2d_62">
    <path clip-path="url(#p92d4212df2)" d="M 120.850625 442.021562 
L 148.750625 440.499482 
L 176.650625 439.068727 
L 204.550625 437.412704 
L 232.450625 435.39747 
L 260.350625 429.662273 
L 288.250625 421.936195 
L 316.150625 409.296842 
L 344.050625 390.940558 
L 371.950625 374.532535 
L 399.850625 351.798748 
L 427.750625 326.708782 
L 455.650625 306.562531 
L 483.550625 287.853123 
L 511.450625 266.111733 
" style="fill:none;stroke:#94c4df;stroke-linecap:square;stroke-width:1.5;"/>
   </g>
   <g id="line2d_63">
    <path clip-path="url(#p92d4212df2)" d="M 120.850625 442.021562 
L 148.750625 440.499482 
L 176.650625 439.068727 
L 204.550625 437.382263 
L 232.450625 435.427912 
L 260.350625 429.948424 
L 288.250625 422.898149 
L 316.150625 410.411005 
L 344.050625 390.319549 
L 371.950625 372.018059 
L 399.850625 350.568908 
L 427.750625 319.640242 
L 455.650625 295.518318 
L 483.550625 277.722159 
L 511.450625 255.171022 
" style="fill:none;stroke:#94c4df;stroke-linecap:square;stroke-width:1.5;"/>
   </g>
   <g id="line2d_64">
    <path clip-path="url(#p92d4212df2)" d="M 120.850625 442.021562 
L 148.750625 440.499482 
L 176.650625 439.056551 
L 204.550625 437.290938 
L 232.450625 435.233086 
L 260.350625 429.169119 
L 288.250625 420.578499 
L 316.150625 405.242021 
L 344.050625 381.801989 
L 371.950625 362.203687 
L 399.850625 331.104549 
L 427.750625 297.168253 
L 455.650625 276.626261 
L 483.550625 256.163418 
L 511.450625 234.111523 
" style="fill:none;stroke:#94c4df;stroke-linecap:square;stroke-width:1.5;"/>
   </g>
   <g id="line2d_65">
    <path clip-path="url(#p92d4212df2)" d="M 120.850625 442.021562 
" style="fill:none;stroke:#000000;stroke-linecap:square;stroke-width:1.5;"/>
   </g>
   <g id="line2d_66">
    <path clip-path="url(#p92d4212df2)" d="M 120.850625 442.021562 
" style="fill:none;stroke:#d0e1f2;stroke-linecap:square;stroke-width:1.5;"/>
   </g>
   <g id="line2d_67">
    <path clip-path="url(#p92d4212df2)" d="M 120.850625 442.021562 
" style="fill:none;stroke:#94c4df;stroke-linecap:square;stroke-width:1.5;"/>
   </g>
   <g id="line2d_68">
    <path clip-path="url(#p92d4212df2)" d="M 120.850625 442.021562 
" style="fill:none;stroke:#4a98c9;stroke-linecap:square;stroke-width:1.5;"/>
   </g>
   <g id="line2d_69">
    <path clip-path="url(#p92d4212df2)" d="M 120.850625 442.021562 
" style="fill:none;stroke:#1764ab;stroke-linecap:square;stroke-width:1.5;"/>
   </g>
   <g id="line2d_70">
    <path clip-path="url(#p92d4212df2)" d="M 120.850625 442.021562 
" style="fill:none;stroke:#08306b;stroke-linecap:square;stroke-width:1.5;"/>
   </g>
   <g id="line2d_71">
    <path clip-path="url(#p92d4212df2)" d="M 120.850625 442.021562 
" style="fill:none;stroke:#000000;stroke-linecap:square;stroke-width:1.5;"/>
   </g>
   <g id="line2d_72">
    <path clip-path="url(#p92d4212df2)" d="M 120.850625 442.021562 
" style="fill:none;stroke:#000000;stroke-dasharray:1.5,2.475;stroke-dashoffset:0;stroke-width:1.5;"/>
   </g>
   <g id="line2d_73">
    <path clip-path="url(#p92d4212df2)" d="M 120.850625 442.021562 
" style="fill:none;stroke:#000000;stroke-linecap:square;stroke-width:1.5;"/>
   </g>
   <g id="line2d_74">
    <path clip-path="url(#p92d4212df2)" d="M 120.850625 442.021562 
" style="fill:none;stroke:#000000;stroke-dasharray:5.55,2.4;stroke-dashoffset:0;stroke-width:1.5;"/>
   </g>
   <g id="line2d_75">
    <path clip-path="url(#p92d4212df2)" d="M 120.850625 442.021562 
" style="fill:none;stroke:#000000;stroke-dasharray:9.6,2.4,1.5,2.4;stroke-dashoffset:0;stroke-width:1.5;"/>
   </g>
   <g id="line2d_76">
    <path clip-path="url(#p92d4212df2)" d="M 120.850625 442.021562 
" style="fill:none;stroke:#000000;stroke-dasharray:9.6,2.4,1.5,2.4;stroke-dashoffset:0;stroke-width:1.5;"/>
   </g>
   <g id="patch_3">
    <path d="M 120.850625 442.021562 
L 120.850625 61.501562 
" style="fill:none;stroke:#000000;stroke-linecap:square;stroke-linejoin:miter;stroke-width:0.8;"/>
   </g>
   <g id="patch_4">
    <path d="M 511.450625 442.021562 
L 511.450625 61.501562 
" style="fill:none;stroke:#000000;stroke-linecap:square;stroke-linejoin:miter;stroke-width:0.8;"/>
   </g>
   <g id="patch_5">
    <path d="M 120.850625 442.021562 
L 511.450625 442.021562 
" style="fill:none;stroke:#000000;stroke-linecap:square;stroke-linejoin:miter;stroke-width:0.8;"/>
   </g>
   <g id="patch_6">
    <path d="M 120.850625 61.501562 
L 511.450625 61.501562 
" style="fill:none;stroke:#000000;stroke-linecap:square;stroke-linejoin:miter;stroke-width:0.8;"/>
   </g>
   <g id="text_17">
    <!-- CD8 LIVE COUNT -->
    <g transform="translate(211.976797 25.094531)scale(0.25 -0.25)">
     <use xlink:href="#Arial-BoldMT-67"/>
     <use x="72.216797" xlink:href="#Arial-BoldMT-68"/>
     <use x="144.433594" xlink:href="#Arial-BoldMT-56"/>
     <use x="200.048828" xlink:href="#Arial-BoldMT-32"/>
     <use x="227.832031" xlink:href="#Arial-BoldMT-76"/>
     <use x="288.916016" xlink:href="#Arial-BoldMT-73"/>
     <use x="316.699219" xlink:href="#Arial-BoldMT-86"/>
     <use x="383.398438" xlink:href="#Arial-BoldMT-69"/>
     <use x="450.097656" xlink:href="#Arial-BoldMT-32"/>
     <use x="477.880859" xlink:href="#Arial-BoldMT-67"/>
     <use x="550.097656" xlink:href="#Arial-BoldMT-79"/>
     <use x="627.880859" xlink:href="#Arial-BoldMT-85"/>
     <use x="700.097656" xlink:href="#Arial-BoldMT-78"/>
     <use x="772.314453" xlink:href="#Arial-BoldMT-84"/>
    </g>
    <!-- OVER TIME NORAMLIZED -->
    <g transform="translate(160.597891 51.501562)scale(0.25 -0.25)">
     <use xlink:href="#Arial-BoldMT-79"/>
     <use x="77.783203" xlink:href="#Arial-BoldMT-86"/>
     <use x="144.482422" xlink:href="#Arial-BoldMT-69"/>
     <use x="211.181641" xlink:href="#Arial-BoldMT-82"/>
     <use x="283.398438" xlink:href="#Arial-BoldMT-32"/>
     <use x="311.181641" xlink:href="#Arial-BoldMT-84"/>
     <use x="372.265625" xlink:href="#Arial-BoldMT-73"/>
     <use x="400.048828" xlink:href="#Arial-BoldMT-77"/>
     <use x="483.349609" xlink:href="#Arial-BoldMT-69"/>
     <use x="550.048828" xlink:href="#Arial-BoldMT-32"/>
     <use x="577.832031" xlink:href="#Arial-BoldMT-78"/>
     <use x="650.048828" xlink:href="#Arial-BoldMT-79"/>
     <use x="727.832031" xlink:href="#Arial-BoldMT-82"/>
     <use x="800.048828" xlink:href="#Arial-BoldMT-65"/>
     <use x="872.265625" xlink:href="#Arial-BoldMT-77"/>
     <use x="955.566406" xlink:href="#Arial-BoldMT-76"/>
     <use x="1016.650391" xlink:href="#Arial-BoldMT-73"/>
     <use x="1044.433594" xlink:href="#Arial-BoldMT-90"/>
     <use x="1105.517578" xlink:href="#Arial-BoldMT-69"/>
     <use x="1172.216797" xlink:href="#Arial-BoldMT-68"/>
    </g>
   </g>
   <g id="legend_1">
    <g id="line2d_77">
     <path d="M 520.450625 74.6 
L 540.450625 74.6 
" style="fill:none;stroke:#000000;stroke-linecap:square;stroke-width:1.5;"/>
    </g>
    <g id="line2d_78"/>
    <g id="text_18">
     <!-- 0 -->
     <g transform="translate(548.450625 78.1)scale(0.1 -0.1)">
      <use xlink:href="#DejaVuSans-48"/>
     </g>
    </g>
    <g id="line2d_79">
     <path d="M 520.450625 89.278125 
L 540.450625 89.278125 
" style="fill:none;stroke:#d0e1f2;stroke-linecap:square;stroke-width:1.5;"/>
    </g>
    <g id="line2d_80"/>
    <g id="text_19">
     <!-- 100 -->
     <g transform="translate(548.450625 92.778125)scale(0.1 -0.1)">
      <use xlink:href="#DejaVuSans-49"/>
      <use x="63.623047" xlink:href="#DejaVuSans-48"/>
      <use x="127.246094" xlink:href="#DejaVuSans-48"/>
     </g>
    </g>
    <g id="line2d_81">
     <path d="M 520.450625 103.95625 
L 540.450625 103.95625 
" style="fill:none;stroke:#94c4df;stroke-linecap:square;stroke-width:1.5;"/>
    </g>
    <g id="line2d_82"/>
    <g id="text_20">
     <!-- 500 -->
     <g transform="translate(548.450625 107.45625)scale(0.1 -0.1)">
      <use xlink:href="#DejaVuSans-53"/>
      <use x="63.623047" xlink:href="#DejaVuSans-48"/>
      <use x="127.246094" xlink:href="#DejaVuSans-48"/>
     </g>
    </g>
    <g id="line2d_83">
     <path d="M 520.450625 118.634375 
L 540.450625 118.634375 
" style="fill:none;stroke:#4a98c9;stroke-linecap:square;stroke-width:1.5;"/>
    </g>
    <g id="line2d_84"/>
    <g id="text_21">
     <!-- 1000 -->
     <g transform="translate(548.450625 122.134375)scale(0.1 -0.1)">
      <use xlink:href="#DejaVuSans-49"/>
      <use x="63.623047" xlink:href="#DejaVuSans-48"/>
      <use x="127.246094" xlink:href="#DejaVuSans-48"/>
      <use x="190.869141" xlink:href="#DejaVuSans-48"/>
     </g>
    </g>
    <g id="line2d_85">
     <path d="M 520.450625 133.3125 
L 540.450625 133.3125 
" style="fill:none;stroke:#1764ab;stroke-linecap:square;stroke-width:1.5;"/>
    </g>
    <g id="line2d_86"/>
    <g id="text_22">
     <!-- 5000 -->
     <g transform="translate(548.450625 136.8125)scale(0.1 -0.1)">
      <use xlink:href="#DejaVuSans-53"/>
      <use x="63.623047" xlink:href="#DejaVuSans-48"/>
      <use x="127.246094" xlink:href="#DejaVuSans-48"/>
      <use x="190.869141" xlink:href="#DejaVuSans-48"/>
     </g>
    </g>
    <g id="line2d_87">
     <path d="M 520.450625 147.990625 
L 540.450625 147.990625 
" style="fill:none;stroke:#08306b;stroke-linecap:square;stroke-width:1.5;"/>
    </g>
    <g id="line2d_88"/>
    <g id="text_23">
     <!-- 10000 -->
     <g transform="translate(548.450625 151.490625)scale(0.1 -0.1)">
      <use xlink:href="#DejaVuSans-49"/>
      <use x="63.623047" xlink:href="#DejaVuSans-48"/>
      <use x="127.246094" xlink:href="#DejaVuSans-48"/>
      <use x="190.869141" xlink:href="#DejaVuSans-48"/>
      <use x="254.492188" xlink:href="#DejaVuSans-48"/>
     </g>
    </g>
    <g id="line2d_89">
     <path d="M 520.450625 162.66875 
L 540.450625 162.66875 
" style="fill:none;stroke:#000000;stroke-linecap:square;stroke-width:1.5;"/>
    </g>
    <g id="line2d_90"/>
    <g id="text_24">
     <!-- 0 -->
     <g transform="translate(548.450625 166.16875)scale(0.1 -0.1)">
      <use xlink:href="#DejaVuSans-48"/>
     </g>
    </g>
    <g id="line2d_91">
     <path d="M 520.450625 177.346875 
L 540.450625 177.346875 
" style="fill:none;stroke:#000000;stroke-dasharray:1.5,2.475;stroke-dashoffset:0;stroke-width:1.5;"/>
    </g>
    <g id="line2d_92"/>
    <g id="text_25">
     <!-- 250 -->
     <g transform="translate(548.450625 180.846875)scale(0.1 -0.1)">
      <use xlink:href="#DejaVuSans-50"/>
      <use x="63.623047" xlink:href="#DejaVuSans-53"/>
      <use x="127.246094" xlink:href="#DejaVuSans-48"/>
     </g>
    </g>
    <g id="line2d_93">
     <path d="M 520.450625 192.025 
L 540.450625 192.025 
" style="fill:none;stroke:#000000;stroke-linecap:square;stroke-width:1.5;"/>
    </g>
    <g id="line2d_94"/>
    <g id="text_26">
     <!-- 500 -->
     <g transform="translate(548.450625 195.525)scale(0.1 -0.1)">
      <use xlink:href="#DejaVuSans-53"/>
      <use x="63.623047" xlink:href="#DejaVuSans-48"/>
      <use x="127.246094" xlink:href="#DejaVuSans-48"/>
     </g>
    </g>
    <g id="line2d_95">
     <path d="M 520.450625 206.703125 
L 540.450625 206.703125 
" style="fill:none;stroke:#000000;stroke-dasharray:5.55,2.4;stroke-dashoffset:0;stroke-width:1.5;"/>
    </g>
    <g id="line2d_96"/>
    <g id="text_27">
     <!-- 1000 -->
     <g transform="translate(548.450625 210.203125)scale(0.1 -0.1)">
      <use xlink:href="#DejaVuSans-49"/>
      <use x="63.623047" xlink:href="#DejaVuSans-48"/>
      <use x="127.246094" xlink:href="#DejaVuSans-48"/>
      <use x="190.869141" xlink:href="#DejaVuSans-48"/>
     </g>
    </g>
    <g id="line2d_97">
     <path d="M 520.450625 221.38125 
L 540.450625 221.38125 
" style="fill:none;stroke:#000000;stroke-dasharray:9.6,2.4,1.5,2.4;stroke-dashoffset:0;stroke-width:1.5;"/>
    </g>
    <g id="line2d_98"/>
    <g id="text_28">
     <!-- 5000 -->
     <g transform="translate(548.450625 224.88125)scale(0.1 -0.1)">
      <use xlink:href="#DejaVuSans-53"/>
      <use x="63.623047" xlink:href="#DejaVuSans-48"/>
      <use x="127.246094" xlink:href="#DejaVuSans-48"/>
      <use x="190.869141" xlink:href="#DejaVuSans-48"/>
     </g>
    </g>
    <g id="line2d_99">
     <path d="M 520.450625 236.059375 
L 540.450625 236.059375 
" style="fill:none;stroke:#000000;stroke-dasharray:9.6,2.4,1.5,2.4;stroke-dashoffset:0;stroke-width:1.5;"/>
    </g>
    <g id="line2d_100"/>
    <g id="text_29">
     <!-- 10000 -->
     <g transform="translate(548.450625 239.559375)scale(0.1 -0.1)">
      <use xlink:href="#DejaVuSans-49"/>
      <use x="63.623047" xlink:href="#DejaVuSans-48"/>
      <use x="127.246094" xlink:href="#DejaVuSans-48"/>
      <use x="190.869141" xlink:href="#DejaVuSans-48"/>
      <use x="254.492188" xlink:href="#DejaVuSans-48"/>
     </g>
    </g>
   </g>
  </g>
 </g>
 <defs>
  <clipPath id="p92d4212df2">
   <rect height="380.52" width="390.6" x="120.850625" y="61.501562"/>
  </clipPath>
 </defs>
</svg>
