<?xml version="1.0" encoding="utf-8" standalone="no"?>
<!DOCTYPE svg PUBLIC "-//W3C//DTD SVG 1.1//EN"
  "http://www.w3.org/Graphics/SVG/1.1/DTD/svg11.dtd">
<!-- Created with matplotlib (https://matplotlib.org/) -->
<svg height="514.024687pt" version="1.1" viewBox="0 0 582.2025 514.024687" width="582.2025pt" xmlns="http://www.w3.org/2000/svg" xmlns:xlink="http://www.w3.org/1999/xlink">
 <defs>
  <style type="text/css">
*{stroke-linecap:butt;stroke-linejoin:round;}
  </style>
 </defs>
 <g id="figure_1">
  <g id="patch_1">
   <path d="M 0 514.024687 
L 582.2025 514.024687 
L 582.2025 0 
L 0 0 
z
" style="fill:#ffffff;"/>
  </g>
  <g id="axes_1">
   <g id="patch_2">
    <path d="M 111.59 442.021562 
L 502.19 442.021562 
L 502.19 61.501562 
L 111.59 61.501562 
z
" style="fill:#ffffff;"/>
   </g>
   <g id="matplotlib.axis_1">
    <g id="xtick_1">
     <g id="line2d_1">
      <defs>
       <path d="M 0 0 
L 0 3.5 
" id="m1ef47b595c" style="stroke:#000000;stroke-width:0.8;"/>
      </defs>
      <g>
       <use style="stroke:#000000;stroke-width:0.8;" x="111.59" xlink:href="#m1ef47b595c" y="442.021562"/>
      </g>
     </g>
     <g id="text_1">
      <!-- 0 -->
      <defs>
       <path d="M 31.78125 66.40625 
Q 24.171875 66.40625 20.328125 58.90625 
Q 16.5 51.421875 16.5 36.375 
Q 16.5 21.390625 20.328125 13.890625 
Q 24.171875 6.390625 31.78125 6.390625 
Q 39.453125 6.390625 43.28125 13.890625 
Q 47.125 21.390625 47.125 36.375 
Q 47.125 51.421875 43.28125 58.90625 
Q 39.453125 66.40625 31.78125 66.40625 
z
M 31.78125 74.21875 
Q 44.046875 74.21875 50.515625 64.515625 
Q 56.984375 54.828125 56.984375 36.375 
Q 56.984375 17.96875 50.515625 8.265625 
Q 44.046875 -1.421875 31.78125 -1.421875 
Q 19.53125 -1.421875 13.0625 8.265625 
Q 6.59375 17.96875 6.59375 36.375 
Q 6.59375 54.828125 13.0625 64.515625 
Q 19.53125 74.21875 31.78125 74.21875 
z
" id="DejaVuSans-48"/>
      </defs>
      <g transform="translate(102.04625 471.816875)scale(0.3 -0.3)">
       <use xlink:href="#DejaVuSans-48"/>
      </g>
     </g>
    </g>
    <g id="xtick_2">
     <g id="line2d_2">
      <g>
       <use style="stroke:#000000;stroke-width:0.8;" x="167.39" xlink:href="#m1ef47b595c" y="442.021562"/>
      </g>
     </g>
     <g id="text_2">
      <!-- 1 -->
      <defs>
       <path d="M 12.40625 8.296875 
L 28.515625 8.296875 
L 28.515625 63.921875 
L 10.984375 60.40625 
L 10.984375 69.390625 
L 28.421875 72.90625 
L 38.28125 72.90625 
L 38.28125 8.296875 
L 54.390625 8.296875 
L 54.390625 0 
L 12.40625 0 
z
" id="DejaVuSans-49"/>
      </defs>
      <g transform="translate(157.84625 471.816875)scale(0.3 -0.3)">
       <use xlink:href="#DejaVuSans-49"/>
      </g>
     </g>
    </g>
    <g id="xtick_3">
     <g id="line2d_3">
      <g>
       <use style="stroke:#000000;stroke-width:0.8;" x="223.19" xlink:href="#m1ef47b595c" y="442.021562"/>
      </g>
     </g>
     <g id="text_3">
      <!-- 2 -->
      <defs>
       <path d="M 19.1875 8.296875 
L 53.609375 8.296875 
L 53.609375 0 
L 7.328125 0 
L 7.328125 8.296875 
Q 12.9375 14.109375 22.625 23.890625 
Q 32.328125 33.6875 34.8125 36.53125 
Q 39.546875 41.84375 41.421875 45.53125 
Q 43.3125 49.21875 43.3125 52.78125 
Q 43.3125 58.59375 39.234375 62.25 
Q 35.15625 65.921875 28.609375 65.921875 
Q 23.96875 65.921875 18.8125 64.3125 
Q 13.671875 62.703125 7.8125 59.421875 
L 7.8125 69.390625 
Q 13.765625 71.78125 18.9375 73 
Q 24.125 74.21875 28.421875 74.21875 
Q 39.75 74.21875 46.484375 68.546875 
Q 53.21875 62.890625 53.21875 53.421875 
Q 53.21875 48.921875 51.53125 44.890625 
Q 49.859375 40.875 45.40625 35.40625 
Q 44.1875 33.984375 37.640625 27.21875 
Q 31.109375 20.453125 19.1875 8.296875 
z
" id="DejaVuSans-50"/>
      </defs>
      <g transform="translate(213.64625 471.816875)scale(0.3 -0.3)">
       <use xlink:href="#DejaVuSans-50"/>
      </g>
     </g>
    </g>
    <g id="xtick_4">
     <g id="line2d_4">
      <g>
       <use style="stroke:#000000;stroke-width:0.8;" x="278.99" xlink:href="#m1ef47b595c" y="442.021562"/>
      </g>
     </g>
     <g id="text_4">
      <!-- 3 -->
      <defs>
       <path d="M 40.578125 39.3125 
Q 47.65625 37.796875 51.625 33 
Q 55.609375 28.21875 55.609375 21.1875 
Q 55.609375 10.40625 48.1875 4.484375 
Q 40.765625 -1.421875 27.09375 -1.421875 
Q 22.515625 -1.421875 17.65625 -0.515625 
Q 12.796875 0.390625 7.625 2.203125 
L 7.625 11.71875 
Q 11.71875 9.328125 16.59375 8.109375 
Q 21.484375 6.890625 26.8125 6.890625 
Q 36.078125 6.890625 40.9375 10.546875 
Q 45.796875 14.203125 45.796875 21.1875 
Q 45.796875 27.640625 41.28125 31.265625 
Q 36.765625 34.90625 28.71875 34.90625 
L 20.21875 34.90625 
L 20.21875 43.015625 
L 29.109375 43.015625 
Q 36.375 43.015625 40.234375 45.921875 
Q 44.09375 48.828125 44.09375 54.296875 
Q 44.09375 59.90625 40.109375 62.90625 
Q 36.140625 65.921875 28.71875 65.921875 
Q 24.65625 65.921875 20.015625 65.03125 
Q 15.375 64.15625 9.8125 62.3125 
L 9.8125 71.09375 
Q 15.4375 72.65625 20.34375 73.4375 
Q 25.25 74.21875 29.59375 74.21875 
Q 40.828125 74.21875 47.359375 69.109375 
Q 53.90625 64.015625 53.90625 55.328125 
Q 53.90625 49.265625 50.4375 45.09375 
Q 46.96875 40.921875 40.578125 39.3125 
z
" id="DejaVuSans-51"/>
      </defs>
      <g transform="translate(269.44625 471.816875)scale(0.3 -0.3)">
       <use xlink:href="#DejaVuSans-51"/>
      </g>
     </g>
    </g>
    <g id="xtick_5">
     <g id="line2d_5">
      <g>
       <use style="stroke:#000000;stroke-width:0.8;" x="334.79" xlink:href="#m1ef47b595c" y="442.021562"/>
      </g>
     </g>
     <g id="text_5">
      <!-- 4 -->
      <defs>
       <path d="M 37.796875 64.3125 
L 12.890625 25.390625 
L 37.796875 25.390625 
z
M 35.203125 72.90625 
L 47.609375 72.90625 
L 47.609375 25.390625 
L 58.015625 25.390625 
L 58.015625 17.1875 
L 47.609375 17.1875 
L 47.609375 0 
L 37.796875 0 
L 37.796875 17.1875 
L 4.890625 17.1875 
L 4.890625 26.703125 
z
" id="DejaVuSans-52"/>
      </defs>
      <g transform="translate(325.24625 471.816875)scale(0.3 -0.3)">
       <use xlink:href="#DejaVuSans-52"/>
      </g>
     </g>
    </g>
    <g id="xtick_6">
     <g id="line2d_6">
      <g>
       <use style="stroke:#000000;stroke-width:0.8;" x="390.59" xlink:href="#m1ef47b595c" y="442.021562"/>
      </g>
     </g>
     <g id="text_6">
      <!-- 5 -->
      <defs>
       <path d="M 10.796875 72.90625 
L 49.515625 72.90625 
L 49.515625 64.59375 
L 19.828125 64.59375 
L 19.828125 46.734375 
Q 21.96875 47.46875 24.109375 47.828125 
Q 26.265625 48.1875 28.421875 48.1875 
Q 40.625 48.1875 47.75 41.5 
Q 54.890625 34.8125 54.890625 23.390625 
Q 54.890625 11.625 47.5625 5.09375 
Q 40.234375 -1.421875 26.90625 -1.421875 
Q 22.3125 -1.421875 17.546875 -0.640625 
Q 12.796875 0.140625 7.71875 1.703125 
L 7.71875 11.625 
Q 12.109375 9.234375 16.796875 8.0625 
Q 21.484375 6.890625 26.703125 6.890625 
Q 35.15625 6.890625 40.078125 11.328125 
Q 45.015625 15.765625 45.015625 23.390625 
Q 45.015625 31 40.078125 35.4375 
Q 35.15625 39.890625 26.703125 39.890625 
Q 22.75 39.890625 18.8125 39.015625 
Q 14.890625 38.140625 10.796875 36.28125 
z
" id="DejaVuSans-53"/>
      </defs>
      <g transform="translate(381.04625 471.816875)scale(0.3 -0.3)">
       <use xlink:href="#DejaVuSans-53"/>
      </g>
     </g>
    </g>
    <g id="xtick_7">
     <g id="line2d_7">
      <g>
       <use style="stroke:#000000;stroke-width:0.8;" x="446.39" xlink:href="#m1ef47b595c" y="442.021562"/>
      </g>
     </g>
     <g id="text_7">
      <!-- 6 -->
      <defs>
       <path d="M 33.015625 40.375 
Q 26.375 40.375 22.484375 35.828125 
Q 18.609375 31.296875 18.609375 23.390625 
Q 18.609375 15.53125 22.484375 10.953125 
Q 26.375 6.390625 33.015625 6.390625 
Q 39.65625 6.390625 43.53125 10.953125 
Q 47.40625 15.53125 47.40625 23.390625 
Q 47.40625 31.296875 43.53125 35.828125 
Q 39.65625 40.375 33.015625 40.375 
z
M 52.59375 71.296875 
L 52.59375 62.3125 
Q 48.875 64.0625 45.09375 64.984375 
Q 41.3125 65.921875 37.59375 65.921875 
Q 27.828125 65.921875 22.671875 59.328125 
Q 17.53125 52.734375 16.796875 39.40625 
Q 19.671875 43.65625 24.015625 45.921875 
Q 28.375 48.1875 33.59375 48.1875 
Q 44.578125 48.1875 50.953125 41.515625 
Q 57.328125 34.859375 57.328125 23.390625 
Q 57.328125 12.15625 50.6875 5.359375 
Q 44.046875 -1.421875 33.015625 -1.421875 
Q 20.359375 -1.421875 13.671875 8.265625 
Q 6.984375 17.96875 6.984375 36.375 
Q 6.984375 53.65625 15.1875 63.9375 
Q 23.390625 74.21875 37.203125 74.21875 
Q 40.921875 74.21875 44.703125 73.484375 
Q 48.484375 72.75 52.59375 71.296875 
z
" id="DejaVuSans-54"/>
      </defs>
      <g transform="translate(436.84625 471.816875)scale(0.3 -0.3)">
       <use xlink:href="#DejaVuSans-54"/>
      </g>
     </g>
    </g>
    <g id="xtick_8">
     <g id="line2d_8">
      <g>
       <use style="stroke:#000000;stroke-width:0.8;" x="502.19" xlink:href="#m1ef47b595c" y="442.021562"/>
      </g>
     </g>
     <g id="text_8">
      <!-- 7 -->
      <defs>
       <path d="M 8.203125 72.90625 
L 55.078125 72.90625 
L 55.078125 68.703125 
L 28.609375 0 
L 18.3125 0 
L 43.21875 64.59375 
L 8.203125 64.59375 
z
" id="DejaVuSans-55"/>
      </defs>
      <g transform="translate(492.64625 471.816875)scale(0.3 -0.3)">
       <use xlink:href="#DejaVuSans-55"/>
      </g>
     </g>
    </g>
    <g id="text_9">
     <!-- TIME (DAYS) -->
     <defs>
      <path d="M 23.390625 0 
L 23.390625 59.46875 
L 2.15625 59.46875 
L 2.15625 71.578125 
L 59.03125 71.578125 
L 59.03125 59.46875 
L 37.84375 59.46875 
L 37.84375 0 
z
" id="Arial-BoldMT-84"/>
      <path d="M 6.84375 0 
L 6.84375 71.578125 
L 21.296875 71.578125 
L 21.296875 0 
z
" id="Arial-BoldMT-73"/>
      <path d="M 7.078125 0 
L 7.078125 71.578125 
L 28.71875 71.578125 
L 41.703125 22.75 
L 54.546875 71.578125 
L 76.21875 71.578125 
L 76.21875 0 
L 62.796875 0 
L 62.796875 56.34375 
L 48.578125 0 
L 34.671875 0 
L 20.515625 56.34375 
L 20.515625 0 
z
" id="Arial-BoldMT-77"/>
      <path d="M 7.28125 0 
L 7.28125 71.578125 
L 60.359375 71.578125 
L 60.359375 59.46875 
L 21.734375 59.46875 
L 21.734375 43.609375 
L 57.671875 43.609375 
L 57.671875 31.546875 
L 21.734375 31.546875 
L 21.734375 12.0625 
L 61.71875 12.0625 
L 61.71875 0 
z
" id="Arial-BoldMT-69"/>
      <path id="Arial-BoldMT-32"/>
      <path d="M 29.9375 -21.046875 
L 20.515625 -21.046875 
Q 13.03125 -9.765625 9.125 2.390625 
Q 5.21875 14.546875 5.21875 25.921875 
Q 5.21875 40.046875 10.0625 52.640625 
Q 14.265625 63.578125 20.703125 72.796875 
L 30.078125 72.796875 
Q 23.390625 58.015625 20.875 47.625 
Q 18.359375 37.25 18.359375 25.640625 
Q 18.359375 17.625 19.84375 9.21875 
Q 21.34375 0.828125 23.921875 -6.734375 
Q 25.640625 -11.71875 29.9375 -21.046875 
z
" id="Arial-BoldMT-40"/>
      <path d="M 7.234375 71.578125 
L 33.640625 71.578125 
Q 42.578125 71.578125 47.265625 70.21875 
Q 53.5625 68.359375 58.046875 63.625 
Q 62.546875 58.890625 64.890625 52.03125 
Q 67.234375 45.171875 67.234375 35.109375 
Q 67.234375 26.265625 65.046875 19.875 
Q 62.359375 12.0625 57.375 7.234375 
Q 53.609375 3.5625 47.21875 1.515625 
Q 42.4375 0 34.421875 0 
L 7.234375 0 
z
M 21.6875 59.46875 
L 21.6875 12.0625 
L 32.46875 12.0625 
Q 38.53125 12.0625 41.21875 12.75 
Q 44.734375 13.625 47.046875 15.71875 
Q 49.359375 17.828125 50.828125 22.625 
Q 52.296875 27.4375 52.296875 35.75 
Q 52.296875 44.046875 50.828125 48.484375 
Q 49.359375 52.9375 46.71875 55.421875 
Q 44.09375 57.90625 40.046875 58.796875 
Q 37.015625 59.46875 28.171875 59.46875 
z
" id="Arial-BoldMT-68"/>
      <path d="M 71.828125 0 
L 56.109375 0 
L 49.859375 16.265625 
L 21.234375 16.265625 
L 15.328125 0 
L 0 0 
L 27.875 71.578125 
L 43.171875 71.578125 
z
M 45.21875 28.328125 
L 35.359375 54.890625 
L 25.6875 28.328125 
z
" id="Arial-BoldMT-65"/>
      <path d="M 26.078125 0 
L 26.078125 30.125 
L -0.140625 71.578125 
L 16.796875 71.578125 
L 33.640625 43.265625 
L 50.140625 71.578125 
L 66.796875 71.578125 
L 40.484375 30.03125 
L 40.484375 0 
z
" id="Arial-BoldMT-89"/>
      <path d="M 3.609375 23.296875 
L 17.671875 24.65625 
Q 18.953125 17.578125 22.828125 14.25 
Q 26.703125 10.9375 33.296875 10.9375 
Q 40.28125 10.9375 43.8125 13.890625 
Q 47.359375 16.84375 47.359375 20.796875 
Q 47.359375 23.34375 45.875 25.125 
Q 44.390625 26.90625 40.671875 28.21875 
Q 38.140625 29.109375 29.109375 31.34375 
Q 17.484375 34.234375 12.796875 38.421875 
Q 6.203125 44.34375 6.203125 52.828125 
Q 6.203125 58.296875 9.296875 63.0625 
Q 12.40625 67.828125 18.234375 70.3125 
Q 24.078125 72.796875 32.328125 72.796875 
Q 45.796875 72.796875 52.609375 66.890625 
Q 59.421875 60.984375 59.765625 51.125 
L 45.3125 50.484375 
Q 44.390625 56 41.328125 58.421875 
Q 38.28125 60.84375 32.171875 60.84375 
Q 25.875 60.84375 22.3125 58.25 
Q 20.015625 56.59375 20.015625 53.8125 
Q 20.015625 51.265625 22.171875 49.46875 
Q 24.90625 47.171875 35.453125 44.671875 
Q 46 42.1875 51.046875 39.515625 
Q 56.109375 36.859375 58.953125 32.25 
Q 61.8125 27.640625 61.8125 20.84375 
Q 61.8125 14.703125 58.390625 9.328125 
Q 54.984375 3.953125 48.734375 1.34375 
Q 42.484375 -1.265625 33.15625 -1.265625 
Q 19.578125 -1.265625 12.296875 5 
Q 5.03125 11.28125 3.609375 23.296875 
z
" id="Arial-BoldMT-83"/>
      <path d="M 3.375 -21.046875 
Q 7.421875 -12.359375 9.078125 -7.71875 
Q 10.75 -3.078125 12.15625 2.96875 
Q 13.578125 9.03125 14.25 14.46875 
Q 14.9375 19.921875 14.9375 25.640625 
Q 14.9375 37.25 12.453125 47.625 
Q 9.96875 58.015625 3.265625 72.796875 
L 12.59375 72.796875 
Q 19.96875 62.3125 24.046875 50.53125 
Q 28.125 38.765625 28.125 26.65625 
Q 28.125 16.453125 24.90625 4.78125 
Q 21.234375 -8.296875 12.84375 -21.046875 
z
" id="Arial-BoldMT-41"/>
     </defs>
     <g transform="translate(245.79625 502.615312)scale(0.2 -0.2)">
      <use xlink:href="#Arial-BoldMT-84"/>
      <use x="61.083984" xlink:href="#Arial-BoldMT-73"/>
      <use x="88.867188" xlink:href="#Arial-BoldMT-77"/>
      <use x="172.167969" xlink:href="#Arial-BoldMT-69"/>
      <use x="238.867188" xlink:href="#Arial-BoldMT-32"/>
      <use x="266.650391" xlink:href="#Arial-BoldMT-40"/>
      <use x="299.951172" xlink:href="#Arial-BoldMT-68"/>
      <use x="372.167969" xlink:href="#Arial-BoldMT-65"/>
      <use x="444.244141" xlink:href="#Arial-BoldMT-89"/>
      <use x="510.943359" xlink:href="#Arial-BoldMT-83"/>
      <use x="577.642578" xlink:href="#Arial-BoldMT-41"/>
     </g>
    </g>
   </g>
   <g id="matplotlib.axis_2">
    <g id="ytick_1">
     <g id="line2d_9">
      <defs>
       <path d="M 0 0 
L -3.5 0 
" id="m63d3894f17" style="stroke:#000000;stroke-width:0.8;"/>
      </defs>
      <g>
       <use style="stroke:#000000;stroke-width:0.8;" x="111.59" xlink:href="#m63d3894f17" y="442.021562"/>
      </g>
     </g>
     <g id="text_10">
      <!-- 0.0 -->
      <defs>
       <path d="M 10.6875 12.40625 
L 21 12.40625 
L 21 0 
L 10.6875 0 
z
" id="DejaVuSans-46"/>
      </defs>
      <g transform="translate(56.880625 453.419219)scale(0.3 -0.3)">
       <use xlink:href="#DejaVuSans-48"/>
       <use x="63.623047" xlink:href="#DejaVuSans-46"/>
       <use x="95.410156" xlink:href="#DejaVuSans-48"/>
      </g>
     </g>
    </g>
    <g id="ytick_2">
     <g id="line2d_10">
      <g>
       <use style="stroke:#000000;stroke-width:0.8;" x="111.59" xlink:href="#m63d3894f17" y="394.456562"/>
      </g>
     </g>
     <g id="text_11">
      <!-- 0.5 -->
      <g transform="translate(56.880625 405.854219)scale(0.3 -0.3)">
       <use xlink:href="#DejaVuSans-48"/>
       <use x="63.623047" xlink:href="#DejaVuSans-46"/>
       <use x="95.410156" xlink:href="#DejaVuSans-53"/>
      </g>
     </g>
    </g>
    <g id="ytick_3">
     <g id="line2d_11">
      <g>
       <use style="stroke:#000000;stroke-width:0.8;" x="111.59" xlink:href="#m63d3894f17" y="346.891562"/>
      </g>
     </g>
     <g id="text_12">
      <!-- 1.0 -->
      <g transform="translate(56.880625 358.289219)scale(0.3 -0.3)">
       <use xlink:href="#DejaVuSans-49"/>
       <use x="63.623047" xlink:href="#DejaVuSans-46"/>
       <use x="95.410156" xlink:href="#DejaVuSans-48"/>
      </g>
     </g>
    </g>
    <g id="ytick_4">
     <g id="line2d_12">
      <g>
       <use style="stroke:#000000;stroke-width:0.8;" x="111.59" xlink:href="#m63d3894f17" y="299.326562"/>
      </g>
     </g>
     <g id="text_13">
      <!-- 1.5 -->
      <g transform="translate(56.880625 310.724219)scale(0.3 -0.3)">
       <use xlink:href="#DejaVuSans-49"/>
       <use x="63.623047" xlink:href="#DejaVuSans-46"/>
       <use x="95.410156" xlink:href="#DejaVuSans-53"/>
      </g>
     </g>
    </g>
    <g id="ytick_5">
     <g id="line2d_13">
      <g>
       <use style="stroke:#000000;stroke-width:0.8;" x="111.59" xlink:href="#m63d3894f17" y="251.761562"/>
      </g>
     </g>
     <g id="text_14">
      <!-- 2.0 -->
      <g transform="translate(56.880625 263.159219)scale(0.3 -0.3)">
       <use xlink:href="#DejaVuSans-50"/>
       <use x="63.623047" xlink:href="#DejaVuSans-46"/>
       <use x="95.410156" xlink:href="#DejaVuSans-48"/>
      </g>
     </g>
    </g>
    <g id="ytick_6">
     <g id="line2d_14">
      <g>
       <use style="stroke:#000000;stroke-width:0.8;" x="111.59" xlink:href="#m63d3894f17" y="204.196562"/>
      </g>
     </g>
     <g id="text_15">
      <!-- 2.5 -->
      <g transform="translate(56.880625 215.594219)scale(0.3 -0.3)">
       <use xlink:href="#DejaVuSans-50"/>
       <use x="63.623047" xlink:href="#DejaVuSans-46"/>
       <use x="95.410156" xlink:href="#DejaVuSans-53"/>
      </g>
     </g>
    </g>
    <g id="ytick_7">
     <g id="line2d_15">
      <g>
       <use style="stroke:#000000;stroke-width:0.8;" x="111.59" xlink:href="#m63d3894f17" y="156.631562"/>
      </g>
     </g>
     <g id="text_16">
      <!-- 3.0 -->
      <g transform="translate(56.880625 168.029219)scale(0.3 -0.3)">
       <use xlink:href="#DejaVuSans-51"/>
       <use x="63.623047" xlink:href="#DejaVuSans-46"/>
       <use x="95.410156" xlink:href="#DejaVuSans-48"/>
      </g>
     </g>
    </g>
    <g id="ytick_8">
     <g id="line2d_16">
      <g>
       <use style="stroke:#000000;stroke-width:0.8;" x="111.59" xlink:href="#m63d3894f17" y="109.066562"/>
      </g>
     </g>
     <g id="text_17">
      <!-- 3.5 -->
      <g transform="translate(56.880625 120.464219)scale(0.3 -0.3)">
       <use xlink:href="#DejaVuSans-51"/>
       <use x="63.623047" xlink:href="#DejaVuSans-46"/>
       <use x="95.410156" xlink:href="#DejaVuSans-53"/>
      </g>
     </g>
    </g>
    <g id="ytick_9">
     <g id="line2d_17">
      <g>
       <use style="stroke:#000000;stroke-width:0.8;" x="111.59" xlink:href="#m63d3894f17" y="61.501562"/>
      </g>
     </g>
     <g id="text_18">
      <!-- 4.0 -->
      <g transform="translate(56.880625 72.899219)scale(0.3 -0.3)">
       <use xlink:href="#DejaVuSans-52"/>
       <use x="63.623047" xlink:href="#DejaVuSans-46"/>
       <use x="95.410156" xlink:href="#DejaVuSans-48"/>
      </g>
     </g>
    </g>
    <g id="text_19">
     <!-- IL-2 CONCENTRATION -->
     <defs>
      <path d="M 7.671875 0 
L 7.671875 71 
L 22.125 71 
L 22.125 12.0625 
L 58.0625 12.0625 
L 58.0625 0 
z
" id="Arial-BoldMT-76"/>
      <path d="M 5.609375 19.09375 
L 5.609375 32.8125 
L 32.5625 32.8125 
L 32.5625 19.09375 
z
" id="Arial-BoldMT-45"/>
      <path d="M 50.59375 12.75 
L 50.59375 0 
L 2.484375 0 
Q 3.265625 7.234375 7.171875 13.703125 
Q 11.078125 20.171875 22.609375 30.859375 
Q 31.890625 39.5 33.984375 42.578125 
Q 36.8125 46.828125 36.8125 50.984375 
Q 36.8125 55.5625 34.34375 58.03125 
Q 31.890625 60.5 27.546875 60.5 
Q 23.25 60.5 20.703125 57.90625 
Q 18.171875 55.328125 17.78125 49.3125 
L 4.109375 50.6875 
Q 5.328125 62.015625 11.765625 66.9375 
Q 18.21875 71.875 27.875 71.875 
Q 38.484375 71.875 44.53125 66.15625 
Q 50.59375 60.453125 50.59375 51.953125 
Q 50.59375 47.125 48.859375 42.75 
Q 47.125 38.375 43.359375 33.59375 
Q 40.875 30.421875 34.375 24.453125 
Q 27.875 18.5 26.140625 16.546875 
Q 24.421875 14.59375 23.34375 12.75 
z
" id="Arial-BoldMT-50"/>
      <path d="M 53.078125 26.3125 
L 67.09375 21.875 
Q 63.875 10.15625 56.375 4.46875 
Q 48.875 -1.21875 37.359375 -1.21875 
Q 23.09375 -1.21875 13.90625 8.515625 
Q 4.734375 18.265625 4.734375 35.15625 
Q 4.734375 53.03125 13.953125 62.90625 
Q 23.1875 72.796875 38.234375 72.796875 
Q 51.375 72.796875 59.578125 65.046875 
Q 64.453125 60.453125 66.890625 51.859375 
L 52.59375 48.4375 
Q 51.3125 54 47.28125 57.21875 
Q 43.265625 60.453125 37.5 60.453125 
Q 29.546875 60.453125 24.578125 54.734375 
Q 19.625 49.03125 19.625 36.234375 
Q 19.625 22.65625 24.5 16.890625 
Q 29.390625 11.140625 37.203125 11.140625 
Q 42.96875 11.140625 47.109375 14.796875 
Q 51.265625 18.453125 53.078125 26.3125 
z
" id="Arial-BoldMT-67"/>
      <path d="M 4.34375 35.359375 
Q 4.34375 46.296875 7.625 53.71875 
Q 10.0625 59.1875 14.28125 63.53125 
Q 18.5 67.875 23.53125 69.96875 
Q 30.21875 72.796875 38.96875 72.796875 
Q 54.78125 72.796875 64.28125 62.984375 
Q 73.78125 53.171875 73.78125 35.6875 
Q 73.78125 18.359375 64.359375 8.5625 
Q 54.9375 -1.21875 39.15625 -1.21875 
Q 23.1875 -1.21875 13.765625 8.515625 
Q 4.34375 18.265625 4.34375 35.359375 
z
M 19.234375 35.84375 
Q 19.234375 23.6875 24.84375 17.40625 
Q 30.46875 11.140625 39.109375 11.140625 
Q 47.75 11.140625 53.296875 17.359375 
Q 58.84375 23.578125 58.84375 36.03125 
Q 58.84375 48.34375 53.4375 54.390625 
Q 48.046875 60.453125 39.109375 60.453125 
Q 30.171875 60.453125 24.703125 54.3125 
Q 19.234375 48.1875 19.234375 35.84375 
z
" id="Arial-BoldMT-79"/>
      <path d="M 7.421875 0 
L 7.421875 71.578125 
L 21.484375 71.578125 
L 50.78125 23.78125 
L 50.78125 71.578125 
L 64.203125 71.578125 
L 64.203125 0 
L 49.703125 0 
L 20.84375 46.6875 
L 20.84375 0 
z
" id="Arial-BoldMT-78"/>
      <path d="M 7.328125 0 
L 7.328125 71.578125 
L 37.75 71.578125 
Q 49.21875 71.578125 54.421875 69.640625 
Q 59.625 67.71875 62.75 62.78125 
Q 65.875 57.859375 65.875 51.515625 
Q 65.875 43.453125 61.125 38.203125 
Q 56.390625 32.953125 46.96875 31.59375 
Q 51.65625 28.859375 54.703125 25.578125 
Q 57.765625 22.3125 62.9375 13.96875 
L 71.6875 0 
L 54.390625 0 
L 43.953125 15.578125 
Q 38.375 23.921875 36.328125 26.09375 
Q 34.28125 28.265625 31.984375 29.078125 
Q 29.6875 29.890625 24.703125 29.890625 
L 21.78125 29.890625 
L 21.78125 0 
z
M 21.78125 41.3125 
L 32.46875 41.3125 
Q 42.875 41.3125 45.453125 42.1875 
Q 48.046875 43.0625 49.515625 45.203125 
Q 50.984375 47.359375 50.984375 50.59375 
Q 50.984375 54.203125 49.046875 56.421875 
Q 47.125 58.640625 43.609375 59.234375 
Q 41.84375 59.46875 33.0625 59.46875 
L 21.78125 59.46875 
z
" id="Arial-BoldMT-82"/>
     </defs>
     <g transform="translate(21.253125 360.07875)rotate(-90)scale(0.2 -0.2)">
      <use xlink:href="#Arial-BoldMT-73"/>
      <use x="27.783203" xlink:href="#Arial-BoldMT-76"/>
      <use x="88.867188" xlink:href="#Arial-BoldMT-45"/>
      <use x="122.167969" xlink:href="#Arial-BoldMT-50"/>
      <use x="177.783203" xlink:href="#Arial-BoldMT-32"/>
      <use x="205.566406" xlink:href="#Arial-BoldMT-67"/>
      <use x="277.783203" xlink:href="#Arial-BoldMT-79"/>
      <use x="355.566406" xlink:href="#Arial-BoldMT-78"/>
      <use x="427.783203" xlink:href="#Arial-BoldMT-67"/>
      <use x="500" xlink:href="#Arial-BoldMT-69"/>
      <use x="566.699219" xlink:href="#Arial-BoldMT-78"/>
      <use x="638.916016" xlink:href="#Arial-BoldMT-84"/>
      <use x="700" xlink:href="#Arial-BoldMT-82"/>
      <use x="772.216797" xlink:href="#Arial-BoldMT-65"/>
      <use x="844.324219" xlink:href="#Arial-BoldMT-84"/>
      <use x="905.408203" xlink:href="#Arial-BoldMT-73"/>
      <use x="933.191406" xlink:href="#Arial-BoldMT-79"/>
      <use x="1010.974609" xlink:href="#Arial-BoldMT-78"/>
     </g>
     <!-- (pg/ml) -->
     <defs>
      <path d="M 6.78125 51.859375 
L 19.578125 51.859375 
L 19.578125 44.234375 
Q 22.078125 48.140625 26.3125 50.578125 
Q 30.5625 53.03125 35.75 53.03125 
Q 44.78125 53.03125 51.078125 45.953125 
Q 57.375 38.875 57.375 26.21875 
Q 57.375 13.234375 51.015625 6.03125 
Q 44.671875 -1.171875 35.640625 -1.171875 
Q 31.34375 -1.171875 27.84375 0.53125 
Q 24.359375 2.25 20.515625 6.390625 
L 20.515625 -19.734375 
L 6.78125 -19.734375 
z
M 20.359375 26.8125 
Q 20.359375 18.0625 23.828125 13.890625 
Q 27.296875 9.71875 32.28125 9.71875 
Q 37.0625 9.71875 40.234375 13.546875 
Q 43.40625 17.390625 43.40625 26.125 
Q 43.40625 34.28125 40.125 38.234375 
Q 36.859375 42.1875 32.03125 42.1875 
Q 27 42.1875 23.671875 38.296875 
Q 20.359375 34.421875 20.359375 26.8125 
z
" id="Arial-BoldMT-112"/>
      <path d="M 5.90625 -3.421875 
L 21.578125 -5.328125 
Q 21.96875 -8.0625 23.390625 -9.078125 
Q 25.34375 -10.546875 29.546875 -10.546875 
Q 34.90625 -10.546875 37.59375 -8.9375 
Q 39.40625 -7.859375 40.328125 -5.46875 
Q 40.96875 -3.765625 40.96875 0.828125 
L 40.96875 8.40625 
Q 34.8125 0 25.4375 0 
Q 14.984375 0 8.890625 8.84375 
Q 4.109375 15.828125 4.109375 26.21875 
Q 4.109375 39.265625 10.375 46.140625 
Q 16.65625 53.03125 25.984375 53.03125 
Q 35.59375 53.03125 41.84375 44.578125 
L 41.84375 51.859375 
L 54.6875 51.859375 
L 54.6875 5.328125 
Q 54.6875 -3.859375 53.171875 -8.390625 
Q 51.65625 -12.9375 48.921875 -15.515625 
Q 46.1875 -18.109375 41.625 -19.578125 
Q 37.0625 -21.046875 30.078125 -21.046875 
Q 16.890625 -21.046875 11.375 -16.53125 
Q 5.859375 -12.015625 5.859375 -5.078125 
Q 5.859375 -4.390625 5.90625 -3.421875 
z
M 18.171875 27 
Q 18.171875 18.75 21.359375 14.90625 
Q 24.5625 11.078125 29.25 11.078125 
Q 34.28125 11.078125 37.75 15.015625 
Q 41.21875 18.953125 41.21875 26.65625 
Q 41.21875 34.71875 37.890625 38.625 
Q 34.578125 42.53125 29.5 42.53125 
Q 24.5625 42.53125 21.359375 38.6875 
Q 18.171875 34.859375 18.171875 27 
z
" id="Arial-BoldMT-103"/>
      <path d="M -0.140625 -1.21875 
L 17.578125 72.796875 
L 27.875 72.796875 
L 9.96875 -1.21875 
z
" id="Arial-BoldMT-47"/>
      <path d="M 6.15625 51.859375 
L 18.796875 51.859375 
L 18.796875 44.78125 
Q 25.59375 53.03125 34.96875 53.03125 
Q 39.9375 53.03125 43.59375 50.96875 
Q 47.265625 48.921875 49.609375 44.78125 
Q 53.03125 48.921875 56.984375 50.96875 
Q 60.9375 53.03125 65.4375 53.03125 
Q 71.140625 53.03125 75.09375 50.703125 
Q 79.046875 48.390625 81 43.890625 
Q 82.421875 40.578125 82.421875 33.15625 
L 82.421875 0 
L 68.703125 0 
L 68.703125 29.640625 
Q 68.703125 37.359375 67.28125 39.59375 
Q 65.375 42.53125 61.421875 42.53125 
Q 58.546875 42.53125 56 40.765625 
Q 53.46875 39.015625 52.34375 35.625 
Q 51.21875 32.234375 51.21875 24.90625 
L 51.21875 0 
L 37.5 0 
L 37.5 28.421875 
Q 37.5 35.984375 36.765625 38.171875 
Q 36.03125 40.375 34.484375 41.453125 
Q 32.953125 42.53125 30.328125 42.53125 
Q 27.15625 42.53125 24.609375 40.8125 
Q 22.078125 39.109375 20.96875 35.890625 
Q 19.875 32.671875 19.875 25.203125 
L 19.875 0 
L 6.15625 0 
z
" id="Arial-BoldMT-109"/>
      <path d="M 7.171875 0 
L 7.171875 71.578125 
L 20.90625 71.578125 
L 20.90625 0 
z
" id="Arial-BoldMT-108"/>
     </defs>
     <g transform="translate(42.67125 285.085)rotate(-90)scale(0.2 -0.2)">
      <use xlink:href="#Arial-BoldMT-40"/>
      <use x="33.300781" xlink:href="#Arial-BoldMT-112"/>
      <use x="94.384766" xlink:href="#Arial-BoldMT-103"/>
      <use x="155.46875" xlink:href="#Arial-BoldMT-47"/>
      <use x="183.251953" xlink:href="#Arial-BoldMT-109"/>
      <use x="272.167969" xlink:href="#Arial-BoldMT-108"/>
      <use x="299.951172" xlink:href="#Arial-BoldMT-41"/>
     </g>
    </g>
    <g id="text_20">
     <!-- 1e7 -->
     <defs>
      <path d="M 56.203125 29.59375 
L 56.203125 25.203125 
L 14.890625 25.203125 
Q 15.484375 15.921875 20.484375 11.0625 
Q 25.484375 6.203125 34.421875 6.203125 
Q 39.59375 6.203125 44.453125 7.46875 
Q 49.3125 8.734375 54.109375 11.28125 
L 54.109375 2.78125 
Q 49.265625 0.734375 44.1875 -0.34375 
Q 39.109375 -1.421875 33.890625 -1.421875 
Q 20.796875 -1.421875 13.15625 6.1875 
Q 5.515625 13.8125 5.515625 26.8125 
Q 5.515625 40.234375 12.765625 48.109375 
Q 20.015625 56 32.328125 56 
Q 43.359375 56 49.78125 48.890625 
Q 56.203125 41.796875 56.203125 29.59375 
z
M 47.21875 32.234375 
Q 47.125 39.59375 43.09375 43.984375 
Q 39.0625 48.390625 32.421875 48.390625 
Q 24.90625 48.390625 20.390625 44.140625 
Q 15.875 39.890625 15.1875 32.171875 
z
" id="DejaVuSans-101"/>
     </defs>
     <g transform="translate(111.59 58.501562)scale(0.1 -0.1)">
      <use xlink:href="#DejaVuSans-49"/>
      <use x="63.623047" xlink:href="#DejaVuSans-101"/>
      <use x="125.146484" xlink:href="#DejaVuSans-55"/>
     </g>
    </g>
   </g>
   <g id="line2d_18">
    <path clip-path="url(#pf62355f981)" d="M 111.59 442.021562 
L 139.49 441.940764 
L 167.39 441.726479 
L 195.29 441.25295 
L 223.19 440.172728 
L 251.09 437.921413 
L 278.99 433.022112 
L 306.89 422.615766 
L 334.79 403.210936 
L 362.69 376.681675 
L 390.59 339.071077 
L 418.49 295.060987 
L 446.39 251.050446 
L 474.29 206.397964 
L 502.19 161.680384 
" style="fill:none;stroke:#08306b;stroke-linecap:square;stroke-width:1.5;"/>
   </g>
   <g id="line2d_19">
    <path clip-path="url(#pf62355f981)" d="M 111.59 442.021562 
L 139.49 441.949782 
L 167.39 441.760627 
L 195.29 441.350005 
L 223.19 440.378817 
L 251.09 438.326118 
L 278.99 433.876316 
L 306.89 424.483074 
L 334.79 407.501842 
L 362.69 383.590737 
L 390.59 349.464384 
L 418.49 308.908193 
L 446.39 267.595765 
L 474.29 226.226594 
L 502.19 184.701352 
" style="fill:none;stroke:#08306b;stroke-linecap:square;stroke-width:1.5;"/>
   </g>
   <g id="line2d_20">
    <path clip-path="url(#pf62355f981)" d="M 111.59 442.021562 
L 139.49 441.946228 
L 167.39 441.746416 
L 195.29 441.29289 
L 223.19 440.275008 
L 251.09 438.132587 
L 278.99 433.492193 
L 306.89 423.608988 
L 334.79 405.69079 
L 362.69 381.140954 
L 390.59 345.696728 
L 418.49 304.222413 
L 446.39 262.487268 
L 474.29 220.638678 
L 502.19 178.846847 
" style="fill:none;stroke:#08306b;stroke-linecap:square;stroke-width:1.5;"/>
   </g>
   <g id="line2d_21">
    <path clip-path="url(#pf62355f981)" d="M 111.59 442.021562 
L 139.49 441.940803 
L 167.39 441.742082 
L 195.29 441.318366 
L 223.19 440.333614 
L 251.09 438.239303 
L 278.99 433.67282 
L 306.89 424.011459 
L 334.79 406.504352 
L 362.69 382.087837 
L 390.59 346.162534 
L 418.49 303.780067 
L 446.39 261.466485 
L 474.29 219.071643 
L 502.19 176.726987 
" style="fill:none;stroke:#08306b;stroke-linecap:square;stroke-width:1.5;"/>
   </g>
   <g id="line2d_22">
    <path clip-path="url(#pf62355f981)" d="M 111.59 442.021562 
L 139.49 441.95598 
L 167.39 441.77177 
L 195.29 441.357663 
L 223.19 440.376449 
L 251.09 438.342998 
L 278.99 433.89308 
L 306.89 424.437962 
L 334.79 406.74136 
L 362.69 382.423376 
L 390.59 347.924891 
L 418.49 304.926572 
L 446.39 261.667698 
L 474.29 218.647784 
L 502.19 175.523527 
" style="fill:none;stroke:#08306b;stroke-linecap:square;stroke-width:1.5;"/>
   </g>
   <g id="line2d_23">
    <path clip-path="url(#pf62355f981)" d="M 111.59 442.021562 
L 139.49 441.947983 
L 167.39 441.76043 
L 195.29 441.340795 
L 223.19 440.371184 
L 251.09 438.341049 
L 278.99 433.946654 
L 306.89 424.719231 
L 334.79 408.067473 
L 362.69 384.172964 
L 390.59 350.986716 
L 418.49 310.562449 
L 446.39 269.082171 
L 474.29 227.344764 
L 502.19 185.648438 
" style="fill:none;stroke:#08306b;stroke-linecap:square;stroke-width:1.5;"/>
   </g>
   <g id="line2d_24">
    <path clip-path="url(#pf62355f981)" d="M 111.59 442.021562 
L 139.49 441.930211 
L 167.39 441.722835 
L 195.29 441.262587 
L 223.19 440.215153 
L 251.09 438.016776 
L 278.99 433.259549 
L 306.89 423.097494 
L 334.79 404.914644 
L 362.69 380.672116 
L 390.59 345.356876 
L 418.49 303.398169 
L 446.39 261.877546 
L 474.29 220.201646 
L 502.19 178.690957 
" style="fill:none;stroke:#08306b;stroke-linecap:square;stroke-width:1.5;"/>
   </g>
   <g id="line2d_25">
    <path clip-path="url(#pf62355f981)" d="M 111.59 442.021562 
L 139.49 441.939053 
L 167.39 441.740099 
L 195.29 441.28895 
L 223.19 440.257918 
L 251.09 438.082444 
L 278.99 433.411295 
L 306.89 423.518694 
L 334.79 405.683671 
L 362.69 380.795278 
L 390.59 345.179319 
L 418.49 302.415702 
L 446.39 259.268656 
L 474.29 215.882249 
L 502.19 172.574419 
" style="fill:none;stroke:#08306b;stroke-linecap:square;stroke-width:1.5;"/>
   </g>
   <g id="line2d_26">
    <path clip-path="url(#pf62355f981)" d="M 111.59 442.021562 
L 139.49 441.942932 
L 167.39 441.733257 
L 195.29 441.268466 
L 223.19 440.200906 
L 251.09 437.94803 
L 278.99 433.089678 
L 306.89 422.902972 
L 334.79 404.915262 
L 362.69 378.907926 
L 390.59 342.055221 
L 418.49 297.465034 
L 446.39 252.641368 
L 474.29 207.904445 
L 502.19 163.326301 
" style="fill:none;stroke:#08306b;stroke-linecap:square;stroke-width:1.5;"/>
   </g>
   <g id="line2d_27">
    <path clip-path="url(#pf62355f981)" d="M 111.59 442.021562 
L 139.49 441.939318 
L 167.39 441.729688 
L 195.29 441.254374 
L 223.19 440.177839 
L 251.09 437.9053 
L 278.99 433.003681 
L 306.89 422.580545 
L 334.79 403.865928 
L 362.69 377.930689 
L 390.59 340.389503 
L 418.49 296.080141 
L 446.39 251.916737 
L 474.29 207.767304 
L 502.19 163.767213 
" style="fill:none;stroke:#08306b;stroke-linecap:square;stroke-width:1.5;"/>
   </g>
   <g id="line2d_28">
    <path clip-path="url(#pf62355f981)" d="M 111.59 442.021562 
L 139.49 442.013999 
L 167.39 441.984776 
L 195.29 441.888071 
L 223.19 441.642363 
L 251.09 441.110378 
L 278.99 439.913593 
L 306.89 437.290061 
L 334.79 432.252364 
L 362.69 424.366636 
L 390.59 413.620346 
L 418.49 398.055803 
L 446.39 378.906966 
L 474.29 359.061292 
L 502.19 337.632776 
" style="fill:none;stroke:#4a98c9;stroke-linecap:square;stroke-width:1.5;"/>
   </g>
   <g id="line2d_29">
    <path clip-path="url(#pf62355f981)" d="M 111.59 442.021562 
L 139.49 442.001512 
L 167.39 441.94893 
L 195.29 441.814202 
L 223.19 441.480438 
L 251.09 440.78169 
L 278.99 439.222984 
L 306.89 435.816899 
L 334.79 429.247306 
L 362.69 419.802266 
L 390.59 407.942988 
L 418.49 391.12102 
L 446.39 371.080655 
L 474.29 350.496963 
L 502.19 329.274984 
" style="fill:none;stroke:#4a98c9;stroke-linecap:square;stroke-width:1.5;"/>
   </g>
   <g id="line2d_30">
    <path clip-path="url(#pf62355f981)" d="M 111.59 442.021562 
L 139.49 442.009535 
L 167.39 441.965976 
L 195.29 441.851918 
L 223.19 441.566723 
L 251.09 440.948875 
L 278.99 439.576479 
L 306.89 436.55994 
L 334.79 430.828293 
L 362.69 422.310713 
L 390.59 411.242811 
L 418.49 396.342955 
L 446.39 378.615962 
L 474.29 359.740806 
L 502.19 339.745958 
" style="fill:none;stroke:#4a98c9;stroke-linecap:square;stroke-width:1.5;"/>
   </g>
   <g id="line2d_31">
    <path clip-path="url(#pf62355f981)" d="M 111.59 442.021562 
L 139.49 442.01253 
L 167.39 441.983498 
L 195.29 441.889446 
L 223.19 441.64768 
L 251.09 441.123196 
L 278.99 439.958224 
L 306.89 437.432228 
L 334.79 432.652739 
L 362.69 425.500876 
L 390.59 415.970945 
L 418.49 402.464526 
L 446.39 386.293404 
L 474.29 369.550208 
L 502.19 351.476374 
" style="fill:none;stroke:#4a98c9;stroke-linecap:square;stroke-width:1.5;"/>
   </g>
   <g id="line2d_32">
    <path clip-path="url(#pf62355f981)" d="M 111.59 442.021562 
L 139.49 442.005801 
L 167.39 441.955849 
L 195.29 441.828369 
L 223.19 441.516647 
L 251.09 440.844094 
L 278.99 439.332227 
L 306.89 436.046744 
L 334.79 430.027662 
L 362.69 421.491057 
L 390.59 409.950288 
L 418.49 393.449408 
L 446.39 373.400687 
L 474.29 352.198438 
L 502.19 329.750774 
" style="fill:none;stroke:#4a98c9;stroke-linecap:square;stroke-width:1.5;"/>
   </g>
   <g id="line2d_33">
    <path clip-path="url(#pf62355f981)" d="M 111.59 442.021562 
L 139.49 442.009234 
L 167.39 441.962815 
L 195.29 441.831853 
L 223.19 441.506872 
L 251.09 440.820015 
L 278.99 439.301795 
L 306.89 436.051971 
L 334.79 429.992511 
L 362.69 421.244881 
L 390.59 409.816319 
L 418.49 393.849167 
L 446.39 374.875452 
L 474.29 355.15518 
L 502.19 334.559227 
" style="fill:none;stroke:#4a98c9;stroke-linecap:square;stroke-width:1.5;"/>
   </g>
   <g id="line2d_34">
    <path clip-path="url(#pf62355f981)" d="M 111.59 442.021562 
L 139.49 442.002866 
L 167.39 441.937819 
L 195.29 441.77812 
L 223.19 441.410813 
L 251.09 440.621842 
L 278.99 438.855348 
L 306.89 434.986599 
L 334.79 427.867198 
L 362.69 417.852318 
L 390.59 404.435675 
L 418.49 385.723308 
L 446.39 364.631652 
L 474.29 343.075698 
L 502.19 320.435067 
" style="fill:none;stroke:#4a98c9;stroke-linecap:square;stroke-width:1.5;"/>
   </g>
   <g id="line2d_35">
    <path clip-path="url(#pf62355f981)" d="M 111.59 442.021562 
L 139.49 442.00934 
L 167.39 441.967709 
L 195.29 441.854949 
L 223.19 441.572762 
L 251.09 440.981624 
L 278.99 439.649693 
L 306.89 436.722725 
L 334.79 431.198521 
L 362.69 422.899695 
L 390.59 411.769659 
L 418.49 396.730592 
L 446.39 379.340403 
L 474.29 361.182067 
L 502.19 341.784216 
" style="fill:none;stroke:#4a98c9;stroke-linecap:square;stroke-width:1.5;"/>
   </g>
   <g id="line2d_36">
    <path clip-path="url(#pf62355f981)" d="M 111.59 442.021562 
L 139.49 442.010588 
L 167.39 441.97079 
L 195.29 441.856481 
L 223.19 441.559313 
L 251.09 440.923662 
L 278.99 439.51468 
L 306.89 436.460453 
L 334.79 430.721387 
L 362.69 422.309067 
L 390.59 411.354976 
L 418.49 395.201737 
L 446.39 375.892453 
L 474.29 355.814768 
L 502.19 334.366158 
" style="fill:none;stroke:#4a98c9;stroke-linecap:square;stroke-width:1.5;"/>
   </g>
   <g id="line2d_37">
    <path clip-path="url(#pf62355f981)" d="M 111.59 442.021562 
L 139.49 442.010405 
L 167.39 441.968298 
L 195.29 441.853447 
L 223.19 441.558495 
L 251.09 440.940481 
L 278.99 439.584257 
L 306.89 436.635564 
L 334.79 431.169649 
L 362.69 422.865708 
L 390.59 410.977135 
L 418.49 394.702101 
L 446.39 375.627759 
L 474.29 355.972531 
L 502.19 335.744289 
" style="fill:none;stroke:#4a98c9;stroke-linecap:square;stroke-width:1.5;"/>
   </g>
   <g id="line2d_38">
    <path clip-path="url(#pf62355f981)" d="M 111.59 442.021562 
L 139.49 442.021145 
L 167.39 442.018318 
L 195.29 442.0067 
L 223.19 441.963166 
L 251.09 441.851076 
L 278.99 441.608643 
L 306.89 441.121792 
L 334.79 440.197397 
L 362.69 438.634131 
L 390.59 436.432812 
L 418.49 433.889872 
L 446.39 431.004014 
L 474.29 427.760782 
L 502.19 424.231719 
" style="fill:none;stroke:#d0e1f2;stroke-linecap:square;stroke-width:1.5;"/>
   </g>
   <g id="line2d_39">
    <path clip-path="url(#pf62355f981)" d="M 111.59 442.021562 
L 139.49 442.021562 
L 167.39 442.020826 
L 195.29 442.016522 
L 223.19 441.999483 
L 251.09 441.939984 
L 278.99 441.766121 
L 306.89 441.394511 
L 334.79 440.705456 
L 362.69 439.463889 
L 390.59 437.722153 
L 418.49 435.681123 
L 446.39 433.159434 
L 474.29 430.260364 
L 502.19 426.888192 
" style="fill:none;stroke:#d0e1f2;stroke-linecap:square;stroke-width:1.5;"/>
   </g>
   <g id="line2d_40">
    <path clip-path="url(#pf62355f981)" d="M 111.59 442.021562 
L 139.49 442.020509 
L 167.39 442.016366 
L 195.29 442.000443 
L 223.19 441.95213 
L 251.09 441.828386 
L 278.99 441.549788 
L 306.89 440.979739 
L 334.79 439.854507 
L 362.69 438.014682 
L 390.59 435.595753 
L 418.49 432.737506 
L 446.39 429.434285 
L 474.29 425.739759 
L 502.19 421.655072 
" style="fill:none;stroke:#d0e1f2;stroke-linecap:square;stroke-width:1.5;"/>
   </g>
   <g id="line2d_41">
    <path clip-path="url(#pf62355f981)" d="M 111.59 442.021562 
L 139.49 442.020769 
L 167.39 442.018041 
L 195.29 442.007085 
L 223.19 441.968415 
L 251.09 441.862504 
L 278.99 441.615827 
L 306.89 441.120824 
L 334.79 440.230864 
L 362.69 438.687344 
L 390.59 436.546035 
L 418.49 433.81569 
L 446.39 430.717675 
L 474.29 427.245482 
L 502.19 423.461377 
" style="fill:none;stroke:#d0e1f2;stroke-linecap:square;stroke-width:1.5;"/>
   </g>
   <g id="line2d_42">
    <path clip-path="url(#pf62355f981)" d="M 111.59 442.021562 
L 139.49 442.020249 
L 167.39 442.016749 
L 195.29 442.004183 
L 223.19 441.966737 
L 251.09 441.873437 
L 278.99 441.662995 
L 306.89 441.234266 
L 334.79 440.447008 
L 362.69 439.252161 
L 390.59 437.656202 
L 418.49 435.752089 
L 446.39 433.519892 
L 474.29 430.961428 
L 502.19 427.897283 
" style="fill:none;stroke:#d0e1f2;stroke-linecap:square;stroke-width:1.5;"/>
   </g>
   <g id="line2d_43">
    <path clip-path="url(#pf62355f981)" d="M 111.59 442.021562 
L 139.49 442.019382 
L 167.39 442.013375 
L 195.29 441.995228 
L 223.19 441.941808 
L 251.09 441.817217 
L 278.99 441.541868 
L 306.89 440.975871 
L 334.79 439.998857 
L 362.69 438.388789 
L 390.59 436.325106 
L 418.49 433.962158 
L 446.39 431.253356 
L 474.29 428.247968 
L 502.19 424.931291 
" style="fill:none;stroke:#d0e1f2;stroke-linecap:square;stroke-width:1.5;"/>
   </g>
   <g id="line2d_44">
    <path clip-path="url(#pf62355f981)" d="M 111.59 442.021562 
L 139.49 442.018456 
L 167.39 442.011214 
L 195.29 441.987219 
L 223.19 441.913166 
L 251.09 441.747306 
L 278.99 441.386359 
L 306.89 440.633897 
L 334.79 439.18644 
L 362.69 436.986399 
L 390.59 434.385751 
L 418.49 431.454187 
L 446.39 428.164789 
L 474.29 424.55493 
L 502.19 420.571378 
" style="fill:none;stroke:#d0e1f2;stroke-linecap:square;stroke-width:1.5;"/>
   </g>
   <g id="line2d_45">
    <path clip-path="url(#pf62355f981)" d="M 111.59 442.021562 
L 139.49 442.020918 
L 167.39 442.01806 
L 195.29 442.006813 
L 223.19 441.960247 
L 251.09 441.836261 
L 278.99 441.567571 
L 306.89 441.014589 
L 334.79 439.957612 
L 362.69 438.173713 
L 390.59 435.652826 
L 418.49 432.652881 
L 446.39 429.338382 
L 474.29 425.648257 
L 502.19 421.589059 
" style="fill:none;stroke:#d0e1f2;stroke-linecap:square;stroke-width:1.5;"/>
   </g>
   <g id="line2d_46">
    <path clip-path="url(#pf62355f981)" d="M 111.59 442.021562 
L 139.49 442.018576 
L 167.39 442.011369 
L 195.29 441.989024 
L 223.19 441.916395 
L 251.09 441.7592 
L 278.99 441.427868 
L 306.89 440.740823 
L 334.79 439.424571 
L 362.69 437.288953 
L 390.59 434.815204 
L 418.49 432.037084 
L 446.39 428.869964 
L 474.29 425.339724 
L 502.19 421.396944 
" style="fill:none;stroke:#d0e1f2;stroke-linecap:square;stroke-width:1.5;"/>
   </g>
   <g id="line2d_47">
    <path clip-path="url(#pf62355f981)" d="M 111.59 442.021562 
L 139.49 442.021054 
L 167.39 442.016598 
L 195.29 441.998635 
L 223.19 441.936145 
L 251.09 441.789698 
L 278.99 441.478685 
L 306.89 440.840634 
L 334.79 439.649247 
L 362.69 437.643908 
L 390.59 435.056925 
L 418.49 432.051425 
L 446.39 428.597846 
L 474.29 424.813711 
L 502.19 420.767632 
" style="fill:none;stroke:#d0e1f2;stroke-linecap:square;stroke-width:1.5;"/>
   </g>
   <g id="line2d_48">
    <path clip-path="url(#pf62355f981)" d="M 111.59 442.021562 
L 139.49 441.975362 
L 167.39 441.837827 
L 195.29 441.516275 
L 223.19 440.750315 
L 251.09 439.110864 
L 278.99 435.473823 
L 306.89 427.734236 
L 334.79 413.962751 
L 362.69 393.99203 
L 390.59 364.353121 
L 418.49 326.460064 
L 446.39 288.32205 
L 474.29 249.922477 
L 502.19 211.448632 
" style="fill:none;stroke:#1764ab;stroke-linecap:square;stroke-width:1.5;"/>
   </g>
   <g id="line2d_49">
    <path clip-path="url(#pf62355f981)" d="M 111.59 442.021562 
L 139.49 441.969736 
L 167.39 441.830934 
L 195.29 441.491848 
L 223.19 440.706569 
L 251.09 439.011083 
L 278.99 435.271032 
L 306.89 427.352906 
L 334.79 413.141706 
L 362.69 392.770599 
L 390.59 362.050935 
L 418.49 324.320513 
L 446.39 285.778323 
L 474.29 246.925838 
L 502.19 207.967043 
" style="fill:none;stroke:#1764ab;stroke-linecap:square;stroke-width:1.5;"/>
   </g>
   <g id="line2d_50">
    <path clip-path="url(#pf62355f981)" d="M 111.59 442.021562 
L 139.49 441.983265 
L 167.39 441.866654 
L 195.29 441.577666 
L 223.19 440.878387 
L 251.09 439.388323 
L 278.99 436.142024 
L 306.89 429.097716 
L 334.79 415.876738 
L 362.69 397.018643 
L 390.59 369.247888 
L 418.49 333.526227 
L 446.39 297.393905 
L 474.29 261.185511 
L 502.19 224.506761 
" style="fill:none;stroke:#1764ab;stroke-linecap:square;stroke-width:1.5;"/>
   </g>
   <g id="line2d_51">
    <path clip-path="url(#pf62355f981)" d="M 111.59 442.021562 
L 139.49 441.980121 
L 167.39 441.850642 
L 195.29 441.53877 
L 223.19 440.828685 
L 251.09 439.304396 
L 278.99 435.974326 
L 306.89 428.846559 
L 334.79 416.370408 
L 362.69 398.592557 
L 390.59 370.723401 
L 418.49 335.404132 
L 446.39 299.463861 
L 474.29 262.917069 
L 502.19 226.298748 
" style="fill:none;stroke:#1764ab;stroke-linecap:square;stroke-width:1.5;"/>
   </g>
   <g id="line2d_52">
    <path clip-path="url(#pf62355f981)" d="M 111.59 442.021562 
L 139.49 441.971175 
L 167.39 441.833593 
L 195.29 441.515188 
L 223.19 440.74233 
L 251.09 439.084951 
L 278.99 435.435799 
L 306.89 427.598659 
L 334.79 413.353263 
L 362.69 392.960796 
L 390.59 363.283971 
L 418.49 325.164815 
L 446.39 285.930758 
L 474.29 246.654304 
L 502.19 207.228391 
" style="fill:none;stroke:#1764ab;stroke-linecap:square;stroke-width:1.5;"/>
   </g>
   <g id="line2d_53">
    <path clip-path="url(#pf62355f981)" d="M 111.59 442.021562 
L 139.49 441.97136 
L 167.39 441.828071 
L 195.29 441.489452 
L 223.19 440.707107 
L 251.09 439.042189 
L 278.99 435.407995 
L 306.89 427.581631 
L 334.79 413.607849 
L 362.69 394.201883 
L 390.59 365.845768 
L 418.49 329.295905 
L 446.39 291.306128 
L 474.29 253.076856 
L 502.19 214.593027 
" style="fill:none;stroke:#1764ab;stroke-linecap:square;stroke-width:1.5;"/>
   </g>
   <g id="line2d_54">
    <path clip-path="url(#pf62355f981)" d="M 111.59 442.021562 
L 139.49 441.969738 
L 167.39 441.819501 
L 195.29 441.455647 
L 223.19 440.620355 
L 251.09 438.837359 
L 278.99 434.89559 
L 306.89 426.518193 
L 334.79 411.973346 
L 362.69 391.807114 
L 390.59 361.459602 
L 418.49 324.883969 
L 446.39 287.573924 
L 474.29 249.865746 
L 502.19 212.407922 
" style="fill:none;stroke:#1764ab;stroke-linecap:square;stroke-width:1.5;"/>
   </g>
   <g id="line2d_55">
    <path clip-path="url(#pf62355f981)" d="M 111.59 442.021562 
L 139.49 441.970254 
L 167.39 441.822182 
L 195.29 441.49399 
L 223.19 440.702168 
L 251.09 439.011051 
L 278.99 435.298463 
L 306.89 427.392002 
L 334.79 413.190843 
L 362.69 393.374642 
L 390.59 363.251021 
L 418.49 324.945673 
L 446.39 286.051243 
L 474.29 246.958674 
L 502.19 207.94348 
" style="fill:none;stroke:#1764ab;stroke-linecap:square;stroke-width:1.5;"/>
   </g>
   <g id="line2d_56">
    <path clip-path="url(#pf62355f981)" d="M 111.59 442.021562 
L 139.49 441.968011 
L 167.39 441.807737 
L 195.29 441.444478 
L 223.19 440.615477 
L 251.09 438.850512 
L 278.99 434.987416 
L 306.89 426.924323 
L 334.79 413.132313 
L 362.69 393.36705 
L 390.59 362.751792 
L 418.49 325.500643 
L 446.39 288.181464 
L 474.29 250.590492 
L 502.19 213.509923 
" style="fill:none;stroke:#1764ab;stroke-linecap:square;stroke-width:1.5;"/>
   </g>
   <g id="line2d_57">
    <path clip-path="url(#pf62355f981)" d="M 111.59 442.021562 
L 139.49 441.966687 
L 167.39 441.819326 
L 195.29 441.490653 
L 223.19 440.728674 
L 251.09 439.084099 
L 278.99 435.519906 
L 306.89 428.065485 
L 334.79 414.576036 
L 362.69 395.493126 
L 390.59 366.807238 
L 418.49 331.026709 
L 446.39 294.657897 
L 474.29 257.662074 
L 502.19 220.632029 
" style="fill:none;stroke:#1764ab;stroke-linecap:square;stroke-width:1.5;"/>
   </g>
   <g id="line2d_58">
    <path clip-path="url(#pf62355f981)" d="M 111.59 442.021562 
L 139.49 442.016185 
L 167.39 441.997164 
L 195.29 441.934829 
L 223.19 441.760083 
L 251.09 441.393584 
L 278.99 440.581551 
L 306.89 438.81788 
L 334.79 435.380445 
L 362.69 429.960766 
L 390.59 422.840815 
L 418.49 413.288987 
L 446.39 401.879834 
L 474.29 389.409989 
L 502.19 375.925577 
" style="fill:none;stroke:#94c4df;stroke-linecap:square;stroke-width:1.5;"/>
   </g>
   <g id="line2d_59">
    <path clip-path="url(#pf62355f981)" d="M 111.59 442.021562 
L 139.49 442.015068 
L 167.39 441.995273 
L 195.29 441.933404 
L 223.19 441.777967 
L 251.09 441.443525 
L 278.99 440.709704 
L 306.89 439.145348 
L 334.79 436.172209 
L 362.69 431.49115 
L 390.59 425.290169 
L 418.49 416.905736 
L 446.39 406.294862 
L 474.29 395.084713 
L 502.19 382.970535 
" style="fill:none;stroke:#94c4df;stroke-linecap:square;stroke-width:1.5;"/>
   </g>
   <g id="line2d_60">
    <path clip-path="url(#pf62355f981)" d="M 111.59 442.021562 
L 139.49 442.010855 
L 167.39 441.973186 
L 195.29 441.86792 
L 223.19 441.612994 
L 251.09 441.080739 
L 278.99 439.914108 
L 306.89 437.39233 
L 334.79 432.450178 
L 362.69 425.04293 
L 390.59 416.156568 
L 418.49 404.955027 
L 446.39 392.305492 
L 474.29 378.340237 
L 502.19 363.297177 
" style="fill:none;stroke:#94c4df;stroke-linecap:square;stroke-width:1.5;"/>
   </g>
   <g id="line2d_61">
    <path clip-path="url(#pf62355f981)" d="M 111.59 442.021562 
L 139.49 442.014062 
L 167.39 441.990564 
L 195.29 441.921013 
L 223.19 441.742908 
L 251.09 441.378168 
L 278.99 440.590106 
L 306.89 438.85335 
L 334.79 435.501384 
L 362.69 430.548404 
L 390.59 424.530777 
L 418.49 416.650252 
L 446.39 406.876419 
L 474.29 396.084908 
L 502.19 384.34522 
" style="fill:none;stroke:#94c4df;stroke-linecap:square;stroke-width:1.5;"/>
   </g>
   <g id="line2d_62">
    <path clip-path="url(#pf62355f981)" d="M 111.59 442.021562 
L 139.49 442.01253 
L 167.39 441.982811 
L 195.29 441.902798 
L 223.19 441.700266 
L 251.09 441.2755 
L 278.99 440.335181 
L 306.89 438.265296 
L 334.79 434.130127 
L 362.69 427.722793 
L 390.59 419.689479 
L 418.49 409.688227 
L 446.39 398.019922 
L 474.29 385.032384 
L 502.19 370.929444 
" style="fill:none;stroke:#94c4df;stroke-linecap:square;stroke-width:1.5;"/>
   </g>
   <g id="line2d_63">
    <path clip-path="url(#pf62355f981)" d="M 111.59 442.021562 
L 139.49 442.014923 
L 167.39 441.991229 
L 195.29 441.91871 
L 223.19 441.727896 
L 251.09 441.325913 
L 278.99 440.452684 
L 306.89 438.547164 
L 334.79 435.000316 
L 362.69 429.612571 
L 390.59 422.500313 
L 418.49 413.476864 
L 446.39 402.8844 
L 474.29 391.309951 
L 502.19 378.472671 
" style="fill:none;stroke:#94c4df;stroke-linecap:square;stroke-width:1.5;"/>
   </g>
   <g id="line2d_64">
    <path clip-path="url(#pf62355f981)" d="M 111.59 442.021562 
L 139.49 442.016191 
L 167.39 441.996567 
L 195.29 441.932768 
L 223.19 441.758761 
L 251.09 441.396889 
L 278.99 440.600785 
L 306.89 438.874921 
L 334.79 435.577602 
L 362.69 430.494495 
L 390.59 423.890177 
L 418.49 414.880057 
L 446.39 404.067164 
L 474.29 392.36956 
L 502.19 379.89794 
" style="fill:none;stroke:#94c4df;stroke-linecap:square;stroke-width:1.5;"/>
   </g>
   <g id="line2d_65">
    <path clip-path="url(#pf62355f981)" d="M 111.59 442.021562 
L 139.49 442.009379 
L 167.39 441.969479 
L 195.29 441.862618 
L 223.19 441.61131 
L 251.09 441.082557 
L 278.99 439.91747 
L 306.89 437.359803 
L 334.79 432.531079 
L 362.69 425.389202 
L 390.59 416.609105 
L 418.49 405.477293 
L 446.39 392.582046 
L 474.29 378.790167 
L 502.19 363.646933 
" style="fill:none;stroke:#94c4df;stroke-linecap:square;stroke-width:1.5;"/>
   </g>
   <g id="line2d_66">
    <path clip-path="url(#pf62355f981)" d="M 111.59 442.021562 
L 139.49 442.018819 
L 167.39 442.003653 
L 195.29 441.951209 
L 223.19 441.797323 
L 251.09 441.473372 
L 278.99 440.769173 
L 306.89 439.236629 
L 334.79 436.286727 
L 362.69 431.807592 
L 390.59 425.920851 
L 418.49 417.713266 
L 446.39 407.316467 
L 474.29 395.896639 
L 502.19 382.863103 
" style="fill:none;stroke:#94c4df;stroke-linecap:square;stroke-width:1.5;"/>
   </g>
   <g id="line2d_67">
    <path clip-path="url(#pf62355f981)" d="M 111.59 442.021562 
L 139.49 442.015696 
L 167.39 441.993425 
L 195.29 441.921753 
L 223.19 441.732667 
L 251.09 441.340445 
L 278.99 440.476817 
L 306.89 438.596162 
L 334.79 434.962395 
L 362.69 429.485207 
L 390.59 422.622994 
L 418.49 413.056415 
L 446.39 401.528398 
L 474.29 389.208156 
L 502.19 375.90198 
" style="fill:none;stroke:#94c4df;stroke-linecap:square;stroke-width:1.5;"/>
   </g>
   <g id="line2d_68">
    <path clip-path="url(#pf62355f981)" d="M 111.59 442.021562 
L 139.49 442.021562 
L 167.39 442.021562 
L 195.29 442.021562 
L 223.19 442.021562 
L 251.09 442.021562 
L 278.99 442.021562 
L 306.89 442.021562 
L 334.79 442.021562 
L 362.69 442.021562 
L 390.59 442.021562 
L 418.49 442.021562 
L 446.39 442.021562 
L 474.29 442.021562 
L 502.19 442.021562 
" style="fill:none;stroke:#000000;stroke-linecap:square;stroke-width:1.5;"/>
   </g>
   <g id="line2d_69">
    <path clip-path="url(#pf62355f981)" d="M 111.59 442.021562 
L 139.49 442.021562 
L 167.39 442.021562 
L 195.29 442.021562 
L 223.19 442.021562 
L 251.09 442.021562 
L 278.99 442.021562 
L 306.89 442.021562 
L 334.79 442.021562 
L 362.69 442.021562 
L 390.59 442.021562 
L 418.49 442.021562 
L 446.39 442.021562 
L 474.29 442.021562 
L 502.19 442.021562 
" style="fill:none;stroke:#000000;stroke-linecap:square;stroke-width:1.5;"/>
   </g>
   <g id="line2d_70">
    <path clip-path="url(#pf62355f981)" d="M 111.59 442.021562 
L 139.49 442.021562 
L 167.39 442.021562 
L 195.29 442.021562 
L 223.19 442.021562 
L 251.09 442.021562 
L 278.99 442.021562 
L 306.89 442.021562 
L 334.79 442.021562 
L 362.69 442.021562 
L 390.59 442.021562 
L 418.49 442.021562 
L 446.39 442.021562 
L 474.29 442.021562 
L 502.19 442.021562 
" style="fill:none;stroke:#000000;stroke-linecap:square;stroke-width:1.5;"/>
   </g>
   <g id="line2d_71">
    <path clip-path="url(#pf62355f981)" d="M 111.59 442.021562 
L 139.49 442.021562 
L 167.39 442.021562 
L 195.29 442.021562 
L 223.19 442.021562 
L 251.09 442.021562 
L 278.99 442.021562 
L 306.89 442.021562 
L 334.79 442.021562 
L 362.69 442.021562 
L 390.59 442.021562 
L 418.49 442.021562 
L 446.39 442.021562 
L 474.29 442.021562 
L 502.19 442.021562 
" style="fill:none;stroke:#000000;stroke-linecap:square;stroke-width:1.5;"/>
   </g>
   <g id="line2d_72">
    <path clip-path="url(#pf62355f981)" d="M 111.59 442.021562 
L 139.49 442.021562 
L 167.39 442.021562 
L 195.29 442.021562 
L 223.19 442.021562 
L 251.09 442.021562 
L 278.99 442.021562 
L 306.89 442.021562 
L 334.79 442.021562 
L 362.69 442.021562 
L 390.59 442.021562 
L 418.49 442.021562 
L 446.39 442.021562 
L 474.29 442.021562 
L 502.19 442.021562 
" style="fill:none;stroke:#000000;stroke-linecap:square;stroke-width:1.5;"/>
   </g>
   <g id="line2d_73">
    <path clip-path="url(#pf62355f981)" d="M 111.59 442.021562 
L 139.49 442.021562 
L 167.39 442.021562 
L 195.29 442.021562 
L 223.19 442.021562 
L 251.09 442.021562 
L 278.99 442.021562 
L 306.89 442.021562 
L 334.79 442.021562 
L 362.69 442.021562 
L 390.59 442.021562 
L 418.49 442.021562 
L 446.39 442.021562 
L 474.29 442.021562 
L 502.19 442.021562 
" style="fill:none;stroke:#000000;stroke-linecap:square;stroke-width:1.5;"/>
   </g>
   <g id="line2d_74">
    <path clip-path="url(#pf62355f981)" d="M 111.59 442.021562 
L 139.49 442.021562 
L 167.39 442.021562 
L 195.29 442.021562 
L 223.19 442.021562 
L 251.09 442.021562 
L 278.99 442.021562 
L 306.89 442.021562 
L 334.79 442.021562 
L 362.69 442.021562 
L 390.59 442.021562 
L 418.49 442.021562 
L 446.39 442.021562 
L 474.29 442.021562 
L 502.19 442.021562 
" style="fill:none;stroke:#000000;stroke-linecap:square;stroke-width:1.5;"/>
   </g>
   <g id="line2d_75">
    <path clip-path="url(#pf62355f981)" d="M 111.59 442.021562 
L 139.49 442.021562 
L 167.39 442.021562 
L 195.29 442.021562 
L 223.19 442.021562 
L 251.09 442.021562 
L 278.99 442.021562 
L 306.89 442.021562 
L 334.79 442.021562 
L 362.69 442.021562 
L 390.59 442.021562 
L 418.49 442.021562 
L 446.39 442.021562 
L 474.29 442.021562 
L 502.19 442.021562 
" style="fill:none;stroke:#000000;stroke-linecap:square;stroke-width:1.5;"/>
   </g>
   <g id="line2d_76">
    <path clip-path="url(#pf62355f981)" d="M 111.59 442.021562 
L 139.49 442.021562 
L 167.39 442.021562 
L 195.29 442.021562 
L 223.19 442.021562 
L 251.09 442.021562 
L 278.99 442.021562 
L 306.89 442.021562 
L 334.79 442.021562 
L 362.69 442.021562 
L 390.59 442.021562 
L 418.49 442.021562 
L 446.39 442.021562 
L 474.29 442.021562 
L 502.19 442.021562 
" style="fill:none;stroke:#000000;stroke-linecap:square;stroke-width:1.5;"/>
   </g>
   <g id="line2d_77">
    <path clip-path="url(#pf62355f981)" d="M 111.59 442.021562 
L 139.49 442.021562 
L 167.39 442.021562 
L 195.29 442.021562 
L 223.19 442.021562 
L 251.09 442.021562 
L 278.99 442.021562 
L 306.89 442.021562 
L 334.79 442.021562 
L 362.69 442.021562 
L 390.59 442.021562 
L 418.49 442.021562 
L 446.39 442.021562 
L 474.29 442.021562 
L 502.19 442.021562 
" style="fill:none;stroke:#000000;stroke-linecap:square;stroke-width:1.5;"/>
   </g>
   <g id="line2d_78">
    <path clip-path="url(#pf62355f981)" d="M 111.59 442.021562 
" style="fill:none;stroke:#000000;stroke-linecap:square;stroke-width:1.5;"/>
   </g>
   <g id="line2d_79">
    <path clip-path="url(#pf62355f981)" d="M 111.59 442.021562 
" style="fill:none;stroke:#d0e1f2;stroke-linecap:square;stroke-width:1.5;"/>
   </g>
   <g id="line2d_80">
    <path clip-path="url(#pf62355f981)" d="M 111.59 442.021562 
" style="fill:none;stroke:#94c4df;stroke-linecap:square;stroke-width:1.5;"/>
   </g>
   <g id="line2d_81">
    <path clip-path="url(#pf62355f981)" d="M 111.59 442.021562 
" style="fill:none;stroke:#4a98c9;stroke-linecap:square;stroke-width:1.5;"/>
   </g>
   <g id="line2d_82">
    <path clip-path="url(#pf62355f981)" d="M 111.59 442.021562 
" style="fill:none;stroke:#1764ab;stroke-linecap:square;stroke-width:1.5;"/>
   </g>
   <g id="line2d_83">
    <path clip-path="url(#pf62355f981)" d="M 111.59 442.021562 
" style="fill:none;stroke:#08306b;stroke-linecap:square;stroke-width:1.5;"/>
   </g>
   <g id="line2d_84">
    <path clip-path="url(#pf62355f981)" d="M 111.59 442.021562 
" style="fill:none;stroke:#000000;stroke-linecap:square;stroke-width:1.5;"/>
   </g>
   <g id="line2d_85">
    <path clip-path="url(#pf62355f981)" d="M 111.59 442.021562 
" style="fill:none;stroke:#000000;stroke-dasharray:1.5,2.475;stroke-dashoffset:0;stroke-width:1.5;"/>
   </g>
   <g id="line2d_86">
    <path clip-path="url(#pf62355f981)" d="M 111.59 442.021562 
" style="fill:none;stroke:#000000;stroke-linecap:square;stroke-width:1.5;"/>
   </g>
   <g id="line2d_87">
    <path clip-path="url(#pf62355f981)" d="M 111.59 442.021562 
" style="fill:none;stroke:#000000;stroke-dasharray:5.55,2.4;stroke-dashoffset:0;stroke-width:1.5;"/>
   </g>
   <g id="line2d_88">
    <path clip-path="url(#pf62355f981)" d="M 111.59 442.021562 
" style="fill:none;stroke:#000000;stroke-dasharray:9.6,2.4,1.5,2.4;stroke-dashoffset:0;stroke-width:1.5;"/>
   </g>
   <g id="line2d_89">
    <path clip-path="url(#pf62355f981)" d="M 111.59 442.021562 
" style="fill:none;stroke:#000000;stroke-dasharray:9.6,2.4,1.5,2.4;stroke-dashoffset:0;stroke-width:1.5;"/>
   </g>
   <g id="patch_3">
    <path d="M 111.59 442.021562 
L 111.59 61.501562 
" style="fill:none;stroke:#000000;stroke-linecap:square;stroke-linejoin:miter;stroke-width:0.8;"/>
   </g>
   <g id="patch_4">
    <path d="M 502.19 442.021562 
L 502.19 61.501562 
" style="fill:none;stroke:#000000;stroke-linecap:square;stroke-linejoin:miter;stroke-width:0.8;"/>
   </g>
   <g id="patch_5">
    <path d="M 111.59 442.021562 
L 502.19 442.021562 
" style="fill:none;stroke:#000000;stroke-linecap:square;stroke-linejoin:miter;stroke-width:0.8;"/>
   </g>
   <g id="patch_6">
    <path d="M 111.59 61.501562 
L 502.19 61.501562 
" style="fill:none;stroke:#000000;stroke-linecap:square;stroke-linejoin:miter;stroke-width:0.8;"/>
   </g>
   <g id="text_21">
    <!-- IL-2 CONCENTRATION -->
    <g transform="translate(171.493516 25.094531)scale(0.25 -0.25)">
     <use xlink:href="#Arial-BoldMT-73"/>
     <use x="27.783203" xlink:href="#Arial-BoldMT-76"/>
     <use x="88.867188" xlink:href="#Arial-BoldMT-45"/>
     <use x="122.167969" xlink:href="#Arial-BoldMT-50"/>
     <use x="177.783203" xlink:href="#Arial-BoldMT-32"/>
     <use x="205.566406" xlink:href="#Arial-BoldMT-67"/>
     <use x="277.783203" xlink:href="#Arial-BoldMT-79"/>
     <use x="355.566406" xlink:href="#Arial-BoldMT-78"/>
     <use x="427.783203" xlink:href="#Arial-BoldMT-67"/>
     <use x="500" xlink:href="#Arial-BoldMT-69"/>
     <use x="566.699219" xlink:href="#Arial-BoldMT-78"/>
     <use x="638.916016" xlink:href="#Arial-BoldMT-84"/>
     <use x="700" xlink:href="#Arial-BoldMT-82"/>
     <use x="772.216797" xlink:href="#Arial-BoldMT-65"/>
     <use x="844.324219" xlink:href="#Arial-BoldMT-84"/>
     <use x="905.408203" xlink:href="#Arial-BoldMT-73"/>
     <use x="933.191406" xlink:href="#Arial-BoldMT-79"/>
     <use x="1010.974609" xlink:href="#Arial-BoldMT-78"/>
    </g>
    <!-- OVER TIME -->
    <defs>
     <path d="M 25.53125 0 
L -0.046875 71.578125 
L 15.625 71.578125 
L 33.734375 18.609375 
L 51.265625 71.578125 
L 66.609375 71.578125 
L 40.96875 0 
z
" id="Arial-BoldMT-86"/>
    </defs>
    <g transform="translate(238.134141 51.501562)scale(0.25 -0.25)">
     <use xlink:href="#Arial-BoldMT-79"/>
     <use x="77.783203" xlink:href="#Arial-BoldMT-86"/>
     <use x="144.482422" xlink:href="#Arial-BoldMT-69"/>
     <use x="211.181641" xlink:href="#Arial-BoldMT-82"/>
     <use x="283.398438" xlink:href="#Arial-BoldMT-32"/>
     <use x="311.181641" xlink:href="#Arial-BoldMT-84"/>
     <use x="372.265625" xlink:href="#Arial-BoldMT-73"/>
     <use x="400.048828" xlink:href="#Arial-BoldMT-77"/>
     <use x="483.349609" xlink:href="#Arial-BoldMT-69"/>
    </g>
   </g>
   <g id="legend_1">
    <g id="line2d_90">
     <path d="M 511.19 74.6 
L 531.19 74.6 
" style="fill:none;stroke:#000000;stroke-linecap:square;stroke-width:1.5;"/>
    </g>
    <g id="line2d_91"/>
    <g id="text_22">
     <!-- 0 -->
     <g transform="translate(539.19 78.1)scale(0.1 -0.1)">
      <use xlink:href="#DejaVuSans-48"/>
     </g>
    </g>
    <g id="line2d_92">
     <path d="M 511.19 89.278125 
L 531.19 89.278125 
" style="fill:none;stroke:#d0e1f2;stroke-linecap:square;stroke-width:1.5;"/>
    </g>
    <g id="line2d_93"/>
    <g id="text_23">
     <!-- 100 -->
     <g transform="translate(539.19 92.778125)scale(0.1 -0.1)">
      <use xlink:href="#DejaVuSans-49"/>
      <use x="63.623047" xlink:href="#DejaVuSans-48"/>
      <use x="127.246094" xlink:href="#DejaVuSans-48"/>
     </g>
    </g>
    <g id="line2d_94">
     <path d="M 511.19 103.95625 
L 531.19 103.95625 
" style="fill:none;stroke:#94c4df;stroke-linecap:square;stroke-width:1.5;"/>
    </g>
    <g id="line2d_95"/>
    <g id="text_24">
     <!-- 500 -->
     <g transform="translate(539.19 107.45625)scale(0.1 -0.1)">
      <use xlink:href="#DejaVuSans-53"/>
      <use x="63.623047" xlink:href="#DejaVuSans-48"/>
      <use x="127.246094" xlink:href="#DejaVuSans-48"/>
     </g>
    </g>
    <g id="line2d_96">
     <path d="M 511.19 118.634375 
L 531.19 118.634375 
" style="fill:none;stroke:#4a98c9;stroke-linecap:square;stroke-width:1.5;"/>
    </g>
    <g id="line2d_97"/>
    <g id="text_25">
     <!-- 1000 -->
     <g transform="translate(539.19 122.134375)scale(0.1 -0.1)">
      <use xlink:href="#DejaVuSans-49"/>
      <use x="63.623047" xlink:href="#DejaVuSans-48"/>
      <use x="127.246094" xlink:href="#DejaVuSans-48"/>
      <use x="190.869141" xlink:href="#DejaVuSans-48"/>
     </g>
    </g>
    <g id="line2d_98">
     <path d="M 511.19 133.3125 
L 531.19 133.3125 
" style="fill:none;stroke:#1764ab;stroke-linecap:square;stroke-width:1.5;"/>
    </g>
    <g id="line2d_99"/>
    <g id="text_26">
     <!-- 5000 -->
     <g transform="translate(539.19 136.8125)scale(0.1 -0.1)">
      <use xlink:href="#DejaVuSans-53"/>
      <use x="63.623047" xlink:href="#DejaVuSans-48"/>
      <use x="127.246094" xlink:href="#DejaVuSans-48"/>
      <use x="190.869141" xlink:href="#DejaVuSans-48"/>
     </g>
    </g>
    <g id="line2d_100">
     <path d="M 511.19 147.990625 
L 531.19 147.990625 
" style="fill:none;stroke:#08306b;stroke-linecap:square;stroke-width:1.5;"/>
    </g>
    <g id="line2d_101"/>
    <g id="text_27">
     <!-- 10000 -->
     <g transform="translate(539.19 151.490625)scale(0.1 -0.1)">
      <use xlink:href="#DejaVuSans-49"/>
      <use x="63.623047" xlink:href="#DejaVuSans-48"/>
      <use x="127.246094" xlink:href="#DejaVuSans-48"/>
      <use x="190.869141" xlink:href="#DejaVuSans-48"/>
      <use x="254.492188" xlink:href="#DejaVuSans-48"/>
     </g>
    </g>
    <g id="line2d_102">
     <path d="M 511.19 162.66875 
L 531.19 162.66875 
" style="fill:none;stroke:#000000;stroke-linecap:square;stroke-width:1.5;"/>
    </g>
    <g id="line2d_103"/>
    <g id="text_28">
     <!-- 0 -->
     <g transform="translate(539.19 166.16875)scale(0.1 -0.1)">
      <use xlink:href="#DejaVuSans-48"/>
     </g>
    </g>
    <g id="line2d_104">
     <path d="M 511.19 177.346875 
L 531.19 177.346875 
" style="fill:none;stroke:#000000;stroke-dasharray:1.5,2.475;stroke-dashoffset:0;stroke-width:1.5;"/>
    </g>
    <g id="line2d_105"/>
    <g id="text_29">
     <!-- 250 -->
     <g transform="translate(539.19 180.846875)scale(0.1 -0.1)">
      <use xlink:href="#DejaVuSans-50"/>
      <use x="63.623047" xlink:href="#DejaVuSans-53"/>
      <use x="127.246094" xlink:href="#DejaVuSans-48"/>
     </g>
    </g>
    <g id="line2d_106">
     <path d="M 511.19 192.025 
L 531.19 192.025 
" style="fill:none;stroke:#000000;stroke-linecap:square;stroke-width:1.5;"/>
    </g>
    <g id="line2d_107"/>
    <g id="text_30">
     <!-- 500 -->
     <g transform="translate(539.19 195.525)scale(0.1 -0.1)">
      <use xlink:href="#DejaVuSans-53"/>
      <use x="63.623047" xlink:href="#DejaVuSans-48"/>
      <use x="127.246094" xlink:href="#DejaVuSans-48"/>
     </g>
    </g>
    <g id="line2d_108">
     <path d="M 511.19 206.703125 
L 531.19 206.703125 
" style="fill:none;stroke:#000000;stroke-dasharray:5.55,2.4;stroke-dashoffset:0;stroke-width:1.5;"/>
    </g>
    <g id="line2d_109"/>
    <g id="text_31">
     <!-- 1000 -->
     <g transform="translate(539.19 210.203125)scale(0.1 -0.1)">
      <use xlink:href="#DejaVuSans-49"/>
      <use x="63.623047" xlink:href="#DejaVuSans-48"/>
      <use x="127.246094" xlink:href="#DejaVuSans-48"/>
      <use x="190.869141" xlink:href="#DejaVuSans-48"/>
     </g>
    </g>
    <g id="line2d_110">
     <path d="M 511.19 221.38125 
L 531.19 221.38125 
" style="fill:none;stroke:#000000;stroke-dasharray:9.6,2.4,1.5,2.4;stroke-dashoffset:0;stroke-width:1.5;"/>
    </g>
    <g id="line2d_111"/>
    <g id="text_32">
     <!-- 5000 -->
     <g transform="translate(539.19 224.88125)scale(0.1 -0.1)">
      <use xlink:href="#DejaVuSans-53"/>
      <use x="63.623047" xlink:href="#DejaVuSans-48"/>
      <use x="127.246094" xlink:href="#DejaVuSans-48"/>
      <use x="190.869141" xlink:href="#DejaVuSans-48"/>
     </g>
    </g>
    <g id="line2d_112">
     <path d="M 511.19 236.059375 
L 531.19 236.059375 
" style="fill:none;stroke:#000000;stroke-dasharray:9.6,2.4,1.5,2.4;stroke-dashoffset:0;stroke-width:1.5;"/>
    </g>
    <g id="line2d_113"/>
    <g id="text_33">
     <!-- 10000 -->
     <g transform="translate(539.19 239.559375)scale(0.1 -0.1)">
      <use xlink:href="#DejaVuSans-49"/>
      <use x="63.623047" xlink:href="#DejaVuSans-48"/>
      <use x="127.246094" xlink:href="#DejaVuSans-48"/>
      <use x="190.869141" xlink:href="#DejaVuSans-48"/>
      <use x="254.492188" xlink:href="#DejaVuSans-48"/>
     </g>
    </g>
   </g>
  </g>
 </g>
 <defs>
  <clipPath id="pf62355f981">
   <rect height="380.52" width="390.6" x="111.59" y="61.501562"/>
  </clipPath>
 </defs>
</svg>
