<?xml version="1.0" encoding="utf-8" standalone="no"?>
<!DOCTYPE svg PUBLIC "-//W3C//DTD SVG 1.1//EN"
  "http://www.w3.org/Graphics/SVG/1.1/DTD/svg11.dtd">
<!-- Created with matplotlib (https://matplotlib.org/) -->
<svg height="579.498969pt" version="1.1" viewBox="0 0 499.935578 579.498969" width="499.935578pt" xmlns="http://www.w3.org/2000/svg" xmlns:xlink="http://www.w3.org/1999/xlink">
 <defs>
  <style type="text/css">
*{stroke-linecap:butt;stroke-linejoin:round;}
  </style>
 </defs>
 <g id="figure_1">
  <g id="patch_1">
   <path d="M 0 579.498969 
L 499.935578 579.498969 
L 499.935578 0 
L 0 0 
z
" style="fill:#ffffff;"/>
  </g>
  <g id="axes_1">
   <g id="patch_2">
    <path d="M 90.678125 449.021562 
L 481.278125 449.021562 
L 481.278125 68.501562 
L 90.678125 68.501562 
z
" style="fill:#ffffff;"/>
   </g>
   <g id="PathCollection_1"/>
   <g id="PathCollection_2"/>
   <g id="PathCollection_3"/>
   <g id="patch_3">
    <path clip-path="url(#pc3bedf7abd)" d="M 97.188125 449.021562 
L 114.548125 449.021562 
L 114.548125 449.021562 
L 97.188125 449.021562 
z
" style="fill:#d9d9d9;"/>
   </g>
   <g id="patch_4">
    <path clip-path="url(#pc3bedf7abd)" d="M 162.288125 449.021562 
L 179.648125 449.021562 
L 179.648125 449.017104 
L 162.288125 449.017104 
z
" style="fill:#d9d9d9;"/>
   </g>
   <g id="patch_5">
    <path clip-path="url(#pc3bedf7abd)" d="M 227.388125 449.021562 
L 244.748125 449.021562 
L 244.748125 448.995589 
L 227.388125 448.995589 
z
" style="fill:#d9d9d9;"/>
   </g>
   <g id="patch_6">
    <path clip-path="url(#pc3bedf7abd)" d="M 292.488125 449.021562 
L 309.848125 449.021562 
L 309.848125 448.967776 
L 292.488125 448.967776 
z
" style="fill:#d9d9d9;"/>
   </g>
   <g id="patch_7">
    <path clip-path="url(#pc3bedf7abd)" d="M 357.588125 449.021562 
L 374.948125 449.021562 
L 374.948125 448.834884 
L 357.588125 448.834884 
z
" style="fill:#d9d9d9;"/>
   </g>
   <g id="patch_8">
    <path clip-path="url(#pc3bedf7abd)" d="M 422.688125 449.021562 
L 440.048125 449.021562 
L 440.048125 448.751231 
L 422.688125 448.751231 
z
" style="fill:#d9d9d9;"/>
   </g>
   <g id="patch_9">
    <path clip-path="url(#pc3bedf7abd)" d="M 114.548125 449.021562 
L 131.908125 449.021562 
L 131.908125 449.021562 
L 114.548125 449.021562 
z
" style="fill:#959595;"/>
   </g>
   <g id="patch_10">
    <path clip-path="url(#pc3bedf7abd)" d="M 179.648125 449.021562 
L 197.008125 449.021562 
L 197.008125 447.266893 
L 179.648125 447.266893 
z
" style="fill:#959595;"/>
   </g>
   <g id="patch_11">
    <path clip-path="url(#pc3bedf7abd)" d="M 244.748125 449.021562 
L 262.108125 449.021562 
L 262.108125 442.956516 
L 244.748125 442.956516 
z
" style="fill:#959595;"/>
   </g>
   <g id="patch_12">
    <path clip-path="url(#pc3bedf7abd)" d="M 309.848125 449.021562 
L 327.208125 449.021562 
L 327.208125 438.065066 
L 309.848125 438.065066 
z
" style="fill:#959595;"/>
   </g>
   <g id="patch_13">
    <path clip-path="url(#pc3bedf7abd)" d="M 374.948125 449.021562 
L 392.308125 449.021562 
L 392.308125 420.658732 
L 374.948125 420.658732 
z
" style="fill:#959595;"/>
   </g>
   <g id="patch_14">
    <path clip-path="url(#pc3bedf7abd)" d="M 440.048125 449.021562 
L 457.408125 449.021562 
L 457.408125 413.393286 
L 440.048125 413.393286 
z
" style="fill:#959595;"/>
   </g>
   <g id="patch_15">
    <path clip-path="url(#pc3bedf7abd)" d="M 131.908125 449.021562 
L 149.268125 449.021562 
L 149.268125 449.021562 
L 131.908125 449.021562 
z
" style="fill:#515151;"/>
   </g>
   <g id="patch_16">
    <path clip-path="url(#pc3bedf7abd)" d="M 197.008125 449.021562 
L 214.368125 449.021562 
L 214.368125 433.372238 
L 197.008125 433.372238 
z
" style="fill:#515151;"/>
   </g>
   <g id="patch_17">
    <path clip-path="url(#pc3bedf7abd)" d="M 262.108125 449.021562 
L 279.468125 449.021562 
L 279.468125 391.50794 
L 262.108125 391.50794 
z
" style="fill:#515151;"/>
   </g>
   <g id="patch_18">
    <path clip-path="url(#pc3bedf7abd)" d="M 327.208125 449.021562 
L 344.568125 449.021562 
L 344.568125 345.739859 
L 327.208125 345.739859 
z
" style="fill:#515151;"/>
   </g>
   <g id="patch_19">
    <path clip-path="url(#pc3bedf7abd)" d="M 392.308125 449.021562 
L 409.668125 449.021562 
L 409.668125 222.999287 
L 392.308125 222.999287 
z
" style="fill:#515151;"/>
   </g>
   <g id="patch_20">
    <path clip-path="url(#pc3bedf7abd)" d="M 457.408125 449.021562 
L 474.768125 449.021562 
L 474.768125 190.878609 
L 457.408125 190.878609 
z
" style="fill:#515151;"/>
   </g>
   <g id="matplotlib.axis_1">
    <g id="xtick_1">
     <g id="line2d_1">
      <defs>
       <path d="M 0 0 
L 0 3.5 
" id="mdb2a361f10" style="stroke:#000000;stroke-width:0.8;"/>
      </defs>
      <g>
       <use style="stroke:#000000;stroke-width:0.8;" x="123.228125" xlink:href="#mdb2a361f10" y="449.021562"/>
      </g>
     </g>
     <g id="text_1">
      <!-- 0 -->
      <defs>
       <path d="M 31.78125 66.40625 
Q 24.171875 66.40625 20.328125 58.90625 
Q 16.5 51.421875 16.5 36.375 
Q 16.5 21.390625 20.328125 13.890625 
Q 24.171875 6.390625 31.78125 6.390625 
Q 39.453125 6.390625 43.28125 13.890625 
Q 47.125 21.390625 47.125 36.375 
Q 47.125 51.421875 43.28125 58.90625 
Q 39.453125 66.40625 31.78125 66.40625 
z
M 31.78125 74.21875 
Q 44.046875 74.21875 50.515625 64.515625 
Q 56.984375 54.828125 56.984375 36.375 
Q 56.984375 17.96875 50.515625 8.265625 
Q 44.046875 -1.421875 31.78125 -1.421875 
Q 19.53125 -1.421875 13.0625 8.265625 
Q 6.59375 17.96875 6.59375 36.375 
Q 6.59375 54.828125 13.0625 64.515625 
Q 19.53125 74.21875 31.78125 74.21875 
z
" id="DejaVuSans-48"/>
      </defs>
      <g transform="translate(122.333193 485.637183)rotate(-45)scale(0.3 -0.3)">
       <use xlink:href="#DejaVuSans-48"/>
      </g>
     </g>
    </g>
    <g id="xtick_2">
     <g id="line2d_2">
      <g>
       <use style="stroke:#000000;stroke-width:0.8;" x="188.328125" xlink:href="#mdb2a361f10" y="449.021562"/>
      </g>
     </g>
     <g id="text_2">
      <!-- 100 -->
      <defs>
       <path d="M 12.40625 8.296875 
L 28.515625 8.296875 
L 28.515625 63.921875 
L 10.984375 60.40625 
L 10.984375 69.390625 
L 28.421875 72.90625 
L 38.28125 72.90625 
L 38.28125 8.296875 
L 54.390625 8.296875 
L 54.390625 0 
L 12.40625 0 
z
" id="DejaVuSans-49"/>
      </defs>
      <g transform="translate(173.936292 512.630985)rotate(-45)scale(0.3 -0.3)">
       <use xlink:href="#DejaVuSans-49"/>
       <use x="63.623047" xlink:href="#DejaVuSans-48"/>
       <use x="127.246094" xlink:href="#DejaVuSans-48"/>
      </g>
     </g>
    </g>
    <g id="xtick_3">
     <g id="line2d_3">
      <g>
       <use style="stroke:#000000;stroke-width:0.8;" x="253.428125" xlink:href="#mdb2a361f10" y="449.021562"/>
      </g>
     </g>
     <g id="text_3">
      <!-- 500 -->
      <defs>
       <path d="M 10.796875 72.90625 
L 49.515625 72.90625 
L 49.515625 64.59375 
L 19.828125 64.59375 
L 19.828125 46.734375 
Q 21.96875 47.46875 24.109375 47.828125 
Q 26.265625 48.1875 28.421875 48.1875 
Q 40.625 48.1875 47.75 41.5 
Q 54.890625 34.8125 54.890625 23.390625 
Q 54.890625 11.625 47.5625 5.09375 
Q 40.234375 -1.421875 26.90625 -1.421875 
Q 22.3125 -1.421875 17.546875 -0.640625 
Q 12.796875 0.140625 7.71875 1.703125 
L 7.71875 11.625 
Q 12.109375 9.234375 16.796875 8.0625 
Q 21.484375 6.890625 26.703125 6.890625 
Q 35.15625 6.890625 40.078125 11.328125 
Q 45.015625 15.765625 45.015625 23.390625 
Q 45.015625 31 40.078125 35.4375 
Q 35.15625 39.890625 26.703125 39.890625 
Q 22.75 39.890625 18.8125 39.015625 
Q 14.890625 38.140625 10.796875 36.28125 
z
" id="DejaVuSans-53"/>
      </defs>
      <g transform="translate(239.036292 512.630985)rotate(-45)scale(0.3 -0.3)">
       <use xlink:href="#DejaVuSans-53"/>
       <use x="63.623047" xlink:href="#DejaVuSans-48"/>
       <use x="127.246094" xlink:href="#DejaVuSans-48"/>
      </g>
     </g>
    </g>
    <g id="xtick_4">
     <g id="line2d_4">
      <g>
       <use style="stroke:#000000;stroke-width:0.8;" x="318.528125" xlink:href="#mdb2a361f10" y="449.021562"/>
      </g>
     </g>
     <g id="text_4">
      <!-- 1000 -->
      <g transform="translate(297.387842 526.127885)rotate(-45)scale(0.3 -0.3)">
       <use xlink:href="#DejaVuSans-49"/>
       <use x="63.623047" xlink:href="#DejaVuSans-48"/>
       <use x="127.246094" xlink:href="#DejaVuSans-48"/>
       <use x="190.869141" xlink:href="#DejaVuSans-48"/>
      </g>
     </g>
    </g>
    <g id="xtick_5">
     <g id="line2d_5">
      <g>
       <use style="stroke:#000000;stroke-width:0.8;" x="383.628125" xlink:href="#mdb2a361f10" y="449.021562"/>
      </g>
     </g>
     <g id="text_5">
      <!-- 5000 -->
      <g transform="translate(362.487842 526.127885)rotate(-45)scale(0.3 -0.3)">
       <use xlink:href="#DejaVuSans-53"/>
       <use x="63.623047" xlink:href="#DejaVuSans-48"/>
       <use x="127.246094" xlink:href="#DejaVuSans-48"/>
       <use x="190.869141" xlink:href="#DejaVuSans-48"/>
      </g>
     </g>
    </g>
    <g id="xtick_6">
     <g id="line2d_6">
      <g>
       <use style="stroke:#000000;stroke-width:0.8;" x="448.728125" xlink:href="#mdb2a361f10" y="449.021562"/>
      </g>
     </g>
     <g id="text_6">
      <!-- 10000 -->
      <g transform="translate(420.839392 539.624786)rotate(-45)scale(0.3 -0.3)">
       <use xlink:href="#DejaVuSans-49"/>
       <use x="63.623047" xlink:href="#DejaVuSans-48"/>
       <use x="127.246094" xlink:href="#DejaVuSans-48"/>
       <use x="190.869141" xlink:href="#DejaVuSans-48"/>
       <use x="254.492188" xlink:href="#DejaVuSans-48"/>
      </g>
     </g>
    </g>
    <g id="text_7">
     <!-- ANTIGENS CANCER -->
     <defs>
      <path d="M 71.828125 0 
L 56.109375 0 
L 49.859375 16.265625 
L 21.234375 16.265625 
L 15.328125 0 
L 0 0 
L 27.875 71.578125 
L 43.171875 71.578125 
z
M 45.21875 28.328125 
L 35.359375 54.890625 
L 25.6875 28.328125 
z
" id="Arial-BoldMT-65"/>
      <path d="M 7.421875 0 
L 7.421875 71.578125 
L 21.484375 71.578125 
L 50.78125 23.78125 
L 50.78125 71.578125 
L 64.203125 71.578125 
L 64.203125 0 
L 49.703125 0 
L 20.84375 46.6875 
L 20.84375 0 
z
" id="Arial-BoldMT-78"/>
      <path d="M 23.390625 0 
L 23.390625 59.46875 
L 2.15625 59.46875 
L 2.15625 71.578125 
L 59.03125 71.578125 
L 59.03125 59.46875 
L 37.84375 59.46875 
L 37.84375 0 
z
" id="Arial-BoldMT-84"/>
      <path d="M 6.84375 0 
L 6.84375 71.578125 
L 21.296875 71.578125 
L 21.296875 0 
z
" id="Arial-BoldMT-73"/>
      <path d="M 40.578125 26.3125 
L 40.578125 38.375 
L 71.734375 38.375 
L 71.734375 9.859375 
Q 67.1875 5.46875 58.5625 2.125 
Q 49.953125 -1.21875 41.109375 -1.21875 
Q 29.890625 -1.21875 21.53125 3.484375 
Q 13.1875 8.203125 8.984375 16.96875 
Q 4.78125 25.734375 4.78125 36.03125 
Q 4.78125 47.21875 9.46875 55.90625 
Q 14.15625 64.59375 23.1875 69.234375 
Q 30.078125 72.796875 40.328125 72.796875 
Q 53.65625 72.796875 61.15625 67.203125 
Q 68.65625 61.625 70.796875 51.765625 
L 56.453125 49.078125 
Q 54.9375 54.34375 50.75 57.390625 
Q 46.578125 60.453125 40.328125 60.453125 
Q 30.859375 60.453125 25.265625 54.4375 
Q 19.671875 48.4375 19.671875 36.625 
Q 19.671875 23.875 25.328125 17.5 
Q 31 11.140625 40.1875 11.140625 
Q 44.734375 11.140625 49.296875 12.921875 
Q 53.859375 14.703125 57.125 17.234375 
L 57.125 26.3125 
z
" id="Arial-BoldMT-71"/>
      <path d="M 7.28125 0 
L 7.28125 71.578125 
L 60.359375 71.578125 
L 60.359375 59.46875 
L 21.734375 59.46875 
L 21.734375 43.609375 
L 57.671875 43.609375 
L 57.671875 31.546875 
L 21.734375 31.546875 
L 21.734375 12.0625 
L 61.71875 12.0625 
L 61.71875 0 
z
" id="Arial-BoldMT-69"/>
      <path d="M 3.609375 23.296875 
L 17.671875 24.65625 
Q 18.953125 17.578125 22.828125 14.25 
Q 26.703125 10.9375 33.296875 10.9375 
Q 40.28125 10.9375 43.8125 13.890625 
Q 47.359375 16.84375 47.359375 20.796875 
Q 47.359375 23.34375 45.875 25.125 
Q 44.390625 26.90625 40.671875 28.21875 
Q 38.140625 29.109375 29.109375 31.34375 
Q 17.484375 34.234375 12.796875 38.421875 
Q 6.203125 44.34375 6.203125 52.828125 
Q 6.203125 58.296875 9.296875 63.0625 
Q 12.40625 67.828125 18.234375 70.3125 
Q 24.078125 72.796875 32.328125 72.796875 
Q 45.796875 72.796875 52.609375 66.890625 
Q 59.421875 60.984375 59.765625 51.125 
L 45.3125 50.484375 
Q 44.390625 56 41.328125 58.421875 
Q 38.28125 60.84375 32.171875 60.84375 
Q 25.875 60.84375 22.3125 58.25 
Q 20.015625 56.59375 20.015625 53.8125 
Q 20.015625 51.265625 22.171875 49.46875 
Q 24.90625 47.171875 35.453125 44.671875 
Q 46 42.1875 51.046875 39.515625 
Q 56.109375 36.859375 58.953125 32.25 
Q 61.8125 27.640625 61.8125 20.84375 
Q 61.8125 14.703125 58.390625 9.328125 
Q 54.984375 3.953125 48.734375 1.34375 
Q 42.484375 -1.265625 33.15625 -1.265625 
Q 19.578125 -1.265625 12.296875 5 
Q 5.03125 11.28125 3.609375 23.296875 
z
" id="Arial-BoldMT-83"/>
      <path id="Arial-BoldMT-32"/>
      <path d="M 53.078125 26.3125 
L 67.09375 21.875 
Q 63.875 10.15625 56.375 4.46875 
Q 48.875 -1.21875 37.359375 -1.21875 
Q 23.09375 -1.21875 13.90625 8.515625 
Q 4.734375 18.265625 4.734375 35.15625 
Q 4.734375 53.03125 13.953125 62.90625 
Q 23.1875 72.796875 38.234375 72.796875 
Q 51.375 72.796875 59.578125 65.046875 
Q 64.453125 60.453125 66.890625 51.859375 
L 52.59375 48.4375 
Q 51.3125 54 47.28125 57.21875 
Q 43.265625 60.453125 37.5 60.453125 
Q 29.546875 60.453125 24.578125 54.734375 
Q 19.625 49.03125 19.625 36.234375 
Q 19.625 22.65625 24.5 16.890625 
Q 29.390625 11.140625 37.203125 11.140625 
Q 42.96875 11.140625 47.109375 14.796875 
Q 51.265625 18.453125 53.078125 26.3125 
z
" id="Arial-BoldMT-67"/>
      <path d="M 7.328125 0 
L 7.328125 71.578125 
L 37.75 71.578125 
Q 49.21875 71.578125 54.421875 69.640625 
Q 59.625 67.71875 62.75 62.78125 
Q 65.875 57.859375 65.875 51.515625 
Q 65.875 43.453125 61.125 38.203125 
Q 56.390625 32.953125 46.96875 31.59375 
Q 51.65625 28.859375 54.703125 25.578125 
Q 57.765625 22.3125 62.9375 13.96875 
L 71.6875 0 
L 54.390625 0 
L 43.953125 15.578125 
Q 38.375 23.921875 36.328125 26.09375 
Q 34.28125 28.265625 31.984375 29.078125 
Q 29.6875 29.890625 24.703125 29.890625 
L 21.78125 29.890625 
L 21.78125 0 
z
M 21.78125 41.3125 
L 32.46875 41.3125 
Q 42.875 41.3125 45.453125 42.1875 
Q 48.046875 43.0625 49.515625 45.203125 
Q 50.984375 47.359375 50.984375 50.59375 
Q 50.984375 54.203125 49.046875 56.421875 
Q 47.125 58.640625 43.609375 59.234375 
Q 41.84375 59.46875 33.0625 59.46875 
L 21.78125 59.46875 
z
" id="Arial-BoldMT-82"/>
     </defs>
     <g transform="translate(188.75 568.352094)scale(0.2 -0.2)">
      <use xlink:href="#Arial-BoldMT-65"/>
      <use x="72.216797" xlink:href="#Arial-BoldMT-78"/>
      <use x="144.433594" xlink:href="#Arial-BoldMT-84"/>
      <use x="205.517578" xlink:href="#Arial-BoldMT-73"/>
      <use x="233.300781" xlink:href="#Arial-BoldMT-71"/>
      <use x="311.083984" xlink:href="#Arial-BoldMT-69"/>
      <use x="377.783203" xlink:href="#Arial-BoldMT-78"/>
      <use x="450" xlink:href="#Arial-BoldMT-83"/>
      <use x="516.699219" xlink:href="#Arial-BoldMT-32"/>
      <use x="544.482422" xlink:href="#Arial-BoldMT-67"/>
      <use x="616.699219" xlink:href="#Arial-BoldMT-65"/>
      <use x="688.916016" xlink:href="#Arial-BoldMT-78"/>
      <use x="761.132812" xlink:href="#Arial-BoldMT-67"/>
      <use x="833.349609" xlink:href="#Arial-BoldMT-69"/>
      <use x="900.048828" xlink:href="#Arial-BoldMT-82"/>
     </g>
    </g>
   </g>
   <g id="matplotlib.axis_2">
    <g id="ytick_1">
     <g id="line2d_7">
      <defs>
       <path d="M 0 0 
L -3.5 0 
" id="ma3f94d6126" style="stroke:#000000;stroke-width:0.8;"/>
      </defs>
      <g>
       <use style="stroke:#000000;stroke-width:0.8;" x="90.678125" xlink:href="#ma3f94d6126" y="449.021562"/>
      </g>
     </g>
     <g id="text_8">
      <!-- 0.0 -->
      <defs>
       <path d="M 10.6875 12.40625 
L 21 12.40625 
L 21 0 
L 10.6875 0 
z
" id="DejaVuSans-46"/>
      </defs>
      <g transform="translate(35.96875 460.419219)scale(0.3 -0.3)">
       <use xlink:href="#DejaVuSans-48"/>
       <use x="63.623047" xlink:href="#DejaVuSans-46"/>
       <use x="95.410156" xlink:href="#DejaVuSans-48"/>
      </g>
     </g>
    </g>
    <g id="ytick_2">
     <g id="line2d_8">
      <g>
       <use style="stroke:#000000;stroke-width:0.8;" x="90.678125" xlink:href="#ma3f94d6126" y="401.456562"/>
      </g>
     </g>
     <g id="text_9">
      <!-- 0.5 -->
      <g transform="translate(35.96875 412.854219)scale(0.3 -0.3)">
       <use xlink:href="#DejaVuSans-48"/>
       <use x="63.623047" xlink:href="#DejaVuSans-46"/>
       <use x="95.410156" xlink:href="#DejaVuSans-53"/>
      </g>
     </g>
    </g>
    <g id="ytick_3">
     <g id="line2d_9">
      <g>
       <use style="stroke:#000000;stroke-width:0.8;" x="90.678125" xlink:href="#ma3f94d6126" y="353.891562"/>
      </g>
     </g>
     <g id="text_10">
      <!-- 1.0 -->
      <g transform="translate(35.96875 365.289219)scale(0.3 -0.3)">
       <use xlink:href="#DejaVuSans-49"/>
       <use x="63.623047" xlink:href="#DejaVuSans-46"/>
       <use x="95.410156" xlink:href="#DejaVuSans-48"/>
      </g>
     </g>
    </g>
    <g id="ytick_4">
     <g id="line2d_10">
      <g>
       <use style="stroke:#000000;stroke-width:0.8;" x="90.678125" xlink:href="#ma3f94d6126" y="306.326562"/>
      </g>
     </g>
     <g id="text_11">
      <!-- 1.5 -->
      <g transform="translate(35.96875 317.724219)scale(0.3 -0.3)">
       <use xlink:href="#DejaVuSans-49"/>
       <use x="63.623047" xlink:href="#DejaVuSans-46"/>
       <use x="95.410156" xlink:href="#DejaVuSans-53"/>
      </g>
     </g>
    </g>
    <g id="ytick_5">
     <g id="line2d_11">
      <g>
       <use style="stroke:#000000;stroke-width:0.8;" x="90.678125" xlink:href="#ma3f94d6126" y="258.761562"/>
      </g>
     </g>
     <g id="text_12">
      <!-- 2.0 -->
      <defs>
       <path d="M 19.1875 8.296875 
L 53.609375 8.296875 
L 53.609375 0 
L 7.328125 0 
L 7.328125 8.296875 
Q 12.9375 14.109375 22.625 23.890625 
Q 32.328125 33.6875 34.8125 36.53125 
Q 39.546875 41.84375 41.421875 45.53125 
Q 43.3125 49.21875 43.3125 52.78125 
Q 43.3125 58.59375 39.234375 62.25 
Q 35.15625 65.921875 28.609375 65.921875 
Q 23.96875 65.921875 18.8125 64.3125 
Q 13.671875 62.703125 7.8125 59.421875 
L 7.8125 69.390625 
Q 13.765625 71.78125 18.9375 73 
Q 24.125 74.21875 28.421875 74.21875 
Q 39.75 74.21875 46.484375 68.546875 
Q 53.21875 62.890625 53.21875 53.421875 
Q 53.21875 48.921875 51.53125 44.890625 
Q 49.859375 40.875 45.40625 35.40625 
Q 44.1875 33.984375 37.640625 27.21875 
Q 31.109375 20.453125 19.1875 8.296875 
z
" id="DejaVuSans-50"/>
      </defs>
      <g transform="translate(35.96875 270.159219)scale(0.3 -0.3)">
       <use xlink:href="#DejaVuSans-50"/>
       <use x="63.623047" xlink:href="#DejaVuSans-46"/>
       <use x="95.410156" xlink:href="#DejaVuSans-48"/>
      </g>
     </g>
    </g>
    <g id="ytick_6">
     <g id="line2d_12">
      <g>
       <use style="stroke:#000000;stroke-width:0.8;" x="90.678125" xlink:href="#ma3f94d6126" y="211.196562"/>
      </g>
     </g>
     <g id="text_13">
      <!-- 2.5 -->
      <g transform="translate(35.96875 222.594219)scale(0.3 -0.3)">
       <use xlink:href="#DejaVuSans-50"/>
       <use x="63.623047" xlink:href="#DejaVuSans-46"/>
       <use x="95.410156" xlink:href="#DejaVuSans-53"/>
      </g>
     </g>
    </g>
    <g id="ytick_7">
     <g id="line2d_13">
      <g>
       <use style="stroke:#000000;stroke-width:0.8;" x="90.678125" xlink:href="#ma3f94d6126" y="163.631562"/>
      </g>
     </g>
     <g id="text_14">
      <!-- 3.0 -->
      <defs>
       <path d="M 40.578125 39.3125 
Q 47.65625 37.796875 51.625 33 
Q 55.609375 28.21875 55.609375 21.1875 
Q 55.609375 10.40625 48.1875 4.484375 
Q 40.765625 -1.421875 27.09375 -1.421875 
Q 22.515625 -1.421875 17.65625 -0.515625 
Q 12.796875 0.390625 7.625 2.203125 
L 7.625 11.71875 
Q 11.71875 9.328125 16.59375 8.109375 
Q 21.484375 6.890625 26.8125 6.890625 
Q 36.078125 6.890625 40.9375 10.546875 
Q 45.796875 14.203125 45.796875 21.1875 
Q 45.796875 27.640625 41.28125 31.265625 
Q 36.765625 34.90625 28.71875 34.90625 
L 20.21875 34.90625 
L 20.21875 43.015625 
L 29.109375 43.015625 
Q 36.375 43.015625 40.234375 45.921875 
Q 44.09375 48.828125 44.09375 54.296875 
Q 44.09375 59.90625 40.109375 62.90625 
Q 36.140625 65.921875 28.71875 65.921875 
Q 24.65625 65.921875 20.015625 65.03125 
Q 15.375 64.15625 9.8125 62.3125 
L 9.8125 71.09375 
Q 15.4375 72.65625 20.34375 73.4375 
Q 25.25 74.21875 29.59375 74.21875 
Q 40.828125 74.21875 47.359375 69.109375 
Q 53.90625 64.015625 53.90625 55.328125 
Q 53.90625 49.265625 50.4375 45.09375 
Q 46.96875 40.921875 40.578125 39.3125 
z
" id="DejaVuSans-51"/>
      </defs>
      <g transform="translate(35.96875 175.029219)scale(0.3 -0.3)">
       <use xlink:href="#DejaVuSans-51"/>
       <use x="63.623047" xlink:href="#DejaVuSans-46"/>
       <use x="95.410156" xlink:href="#DejaVuSans-48"/>
      </g>
     </g>
    </g>
    <g id="ytick_8">
     <g id="line2d_14">
      <g>
       <use style="stroke:#000000;stroke-width:0.8;" x="90.678125" xlink:href="#ma3f94d6126" y="116.066562"/>
      </g>
     </g>
     <g id="text_15">
      <!-- 3.5 -->
      <g transform="translate(35.96875 127.464219)scale(0.3 -0.3)">
       <use xlink:href="#DejaVuSans-51"/>
       <use x="63.623047" xlink:href="#DejaVuSans-46"/>
       <use x="95.410156" xlink:href="#DejaVuSans-53"/>
      </g>
     </g>
    </g>
    <g id="ytick_9">
     <g id="line2d_15">
      <g>
       <use style="stroke:#000000;stroke-width:0.8;" x="90.678125" xlink:href="#ma3f94d6126" y="68.501562"/>
      </g>
     </g>
     <g id="text_16">
      <!-- 4.0 -->
      <defs>
       <path d="M 37.796875 64.3125 
L 12.890625 25.390625 
L 37.796875 25.390625 
z
M 35.203125 72.90625 
L 47.609375 72.90625 
L 47.609375 25.390625 
L 58.015625 25.390625 
L 58.015625 17.1875 
L 47.609375 17.1875 
L 47.609375 0 
L 37.796875 0 
L 37.796875 17.1875 
L 4.890625 17.1875 
L 4.890625 26.703125 
z
" id="DejaVuSans-52"/>
      </defs>
      <g transform="translate(35.96875 79.899219)scale(0.3 -0.3)">
       <use xlink:href="#DejaVuSans-52"/>
       <use x="63.623047" xlink:href="#DejaVuSans-46"/>
       <use x="95.410156" xlink:href="#DejaVuSans-48"/>
      </g>
     </g>
    </g>
    <g id="text_17">
     <!-- IL-2 CONC (pg/ml) -->
     <defs>
      <path d="M 7.671875 0 
L 7.671875 71 
L 22.125 71 
L 22.125 12.0625 
L 58.0625 12.0625 
L 58.0625 0 
z
" id="Arial-BoldMT-76"/>
      <path d="M 5.609375 19.09375 
L 5.609375 32.8125 
L 32.5625 32.8125 
L 32.5625 19.09375 
z
" id="Arial-BoldMT-45"/>
      <path d="M 50.59375 12.75 
L 50.59375 0 
L 2.484375 0 
Q 3.265625 7.234375 7.171875 13.703125 
Q 11.078125 20.171875 22.609375 30.859375 
Q 31.890625 39.5 33.984375 42.578125 
Q 36.8125 46.828125 36.8125 50.984375 
Q 36.8125 55.5625 34.34375 58.03125 
Q 31.890625 60.5 27.546875 60.5 
Q 23.25 60.5 20.703125 57.90625 
Q 18.171875 55.328125 17.78125 49.3125 
L 4.109375 50.6875 
Q 5.328125 62.015625 11.765625 66.9375 
Q 18.21875 71.875 27.875 71.875 
Q 38.484375 71.875 44.53125 66.15625 
Q 50.59375 60.453125 50.59375 51.953125 
Q 50.59375 47.125 48.859375 42.75 
Q 47.125 38.375 43.359375 33.59375 
Q 40.875 30.421875 34.375 24.453125 
Q 27.875 18.5 26.140625 16.546875 
Q 24.421875 14.59375 23.34375 12.75 
z
" id="Arial-BoldMT-50"/>
      <path d="M 4.34375 35.359375 
Q 4.34375 46.296875 7.625 53.71875 
Q 10.0625 59.1875 14.28125 63.53125 
Q 18.5 67.875 23.53125 69.96875 
Q 30.21875 72.796875 38.96875 72.796875 
Q 54.78125 72.796875 64.28125 62.984375 
Q 73.78125 53.171875 73.78125 35.6875 
Q 73.78125 18.359375 64.359375 8.5625 
Q 54.9375 -1.21875 39.15625 -1.21875 
Q 23.1875 -1.21875 13.765625 8.515625 
Q 4.34375 18.265625 4.34375 35.359375 
z
M 19.234375 35.84375 
Q 19.234375 23.6875 24.84375 17.40625 
Q 30.46875 11.140625 39.109375 11.140625 
Q 47.75 11.140625 53.296875 17.359375 
Q 58.84375 23.578125 58.84375 36.03125 
Q 58.84375 48.34375 53.4375 54.390625 
Q 48.046875 60.453125 39.109375 60.453125 
Q 30.171875 60.453125 24.703125 54.3125 
Q 19.234375 48.1875 19.234375 35.84375 
z
" id="Arial-BoldMT-79"/>
      <path d="M 29.9375 -21.046875 
L 20.515625 -21.046875 
Q 13.03125 -9.765625 9.125 2.390625 
Q 5.21875 14.546875 5.21875 25.921875 
Q 5.21875 40.046875 10.0625 52.640625 
Q 14.265625 63.578125 20.703125 72.796875 
L 30.078125 72.796875 
Q 23.390625 58.015625 20.875 47.625 
Q 18.359375 37.25 18.359375 25.640625 
Q 18.359375 17.625 19.84375 9.21875 
Q 21.34375 0.828125 23.921875 -6.734375 
Q 25.640625 -11.71875 29.9375 -21.046875 
z
" id="Arial-BoldMT-40"/>
      <path d="M 6.78125 51.859375 
L 19.578125 51.859375 
L 19.578125 44.234375 
Q 22.078125 48.140625 26.3125 50.578125 
Q 30.5625 53.03125 35.75 53.03125 
Q 44.78125 53.03125 51.078125 45.953125 
Q 57.375 38.875 57.375 26.21875 
Q 57.375 13.234375 51.015625 6.03125 
Q 44.671875 -1.171875 35.640625 -1.171875 
Q 31.34375 -1.171875 27.84375 0.53125 
Q 24.359375 2.25 20.515625 6.390625 
L 20.515625 -19.734375 
L 6.78125 -19.734375 
z
M 20.359375 26.8125 
Q 20.359375 18.0625 23.828125 13.890625 
Q 27.296875 9.71875 32.28125 9.71875 
Q 37.0625 9.71875 40.234375 13.546875 
Q 43.40625 17.390625 43.40625 26.125 
Q 43.40625 34.28125 40.125 38.234375 
Q 36.859375 42.1875 32.03125 42.1875 
Q 27 42.1875 23.671875 38.296875 
Q 20.359375 34.421875 20.359375 26.8125 
z
" id="Arial-BoldMT-112"/>
      <path d="M 5.90625 -3.421875 
L 21.578125 -5.328125 
Q 21.96875 -8.0625 23.390625 -9.078125 
Q 25.34375 -10.546875 29.546875 -10.546875 
Q 34.90625 -10.546875 37.59375 -8.9375 
Q 39.40625 -7.859375 40.328125 -5.46875 
Q 40.96875 -3.765625 40.96875 0.828125 
L 40.96875 8.40625 
Q 34.8125 0 25.4375 0 
Q 14.984375 0 8.890625 8.84375 
Q 4.109375 15.828125 4.109375 26.21875 
Q 4.109375 39.265625 10.375 46.140625 
Q 16.65625 53.03125 25.984375 53.03125 
Q 35.59375 53.03125 41.84375 44.578125 
L 41.84375 51.859375 
L 54.6875 51.859375 
L 54.6875 5.328125 
Q 54.6875 -3.859375 53.171875 -8.390625 
Q 51.65625 -12.9375 48.921875 -15.515625 
Q 46.1875 -18.109375 41.625 -19.578125 
Q 37.0625 -21.046875 30.078125 -21.046875 
Q 16.890625 -21.046875 11.375 -16.53125 
Q 5.859375 -12.015625 5.859375 -5.078125 
Q 5.859375 -4.390625 5.90625 -3.421875 
z
M 18.171875 27 
Q 18.171875 18.75 21.359375 14.90625 
Q 24.5625 11.078125 29.25 11.078125 
Q 34.28125 11.078125 37.75 15.015625 
Q 41.21875 18.953125 41.21875 26.65625 
Q 41.21875 34.71875 37.890625 38.625 
Q 34.578125 42.53125 29.5 42.53125 
Q 24.5625 42.53125 21.359375 38.6875 
Q 18.171875 34.859375 18.171875 27 
z
" id="Arial-BoldMT-103"/>
      <path d="M -0.140625 -1.21875 
L 17.578125 72.796875 
L 27.875 72.796875 
L 9.96875 -1.21875 
z
" id="Arial-BoldMT-47"/>
      <path d="M 6.15625 51.859375 
L 18.796875 51.859375 
L 18.796875 44.78125 
Q 25.59375 53.03125 34.96875 53.03125 
Q 39.9375 53.03125 43.59375 50.96875 
Q 47.265625 48.921875 49.609375 44.78125 
Q 53.03125 48.921875 56.984375 50.96875 
Q 60.9375 53.03125 65.4375 53.03125 
Q 71.140625 53.03125 75.09375 50.703125 
Q 79.046875 48.390625 81 43.890625 
Q 82.421875 40.578125 82.421875 33.15625 
L 82.421875 0 
L 68.703125 0 
L 68.703125 29.640625 
Q 68.703125 37.359375 67.28125 39.59375 
Q 65.375 42.53125 61.421875 42.53125 
Q 58.546875 42.53125 56 40.765625 
Q 53.46875 39.015625 52.34375 35.625 
Q 51.21875 32.234375 51.21875 24.90625 
L 51.21875 0 
L 37.5 0 
L 37.5 28.421875 
Q 37.5 35.984375 36.765625 38.171875 
Q 36.03125 40.375 34.484375 41.453125 
Q 32.953125 42.53125 30.328125 42.53125 
Q 27.15625 42.53125 24.609375 40.8125 
Q 22.078125 39.109375 20.96875 35.890625 
Q 19.875 32.671875 19.875 25.203125 
L 19.875 0 
L 6.15625 0 
z
" id="Arial-BoldMT-109"/>
      <path d="M 7.171875 0 
L 7.171875 71.578125 
L 20.90625 71.578125 
L 20.90625 0 
z
" id="Arial-BoldMT-108"/>
      <path d="M 3.375 -21.046875 
Q 7.421875 -12.359375 9.078125 -7.71875 
Q 10.75 -3.078125 12.15625 2.96875 
Q 13.578125 9.03125 14.25 14.46875 
Q 14.9375 19.921875 14.9375 25.640625 
Q 14.9375 37.25 12.453125 47.625 
Q 9.96875 58.015625 3.265625 72.796875 
L 12.59375 72.796875 
Q 19.96875 62.3125 24.046875 50.53125 
Q 28.125 38.765625 28.125 26.65625 
Q 28.125 16.453125 24.90625 4.78125 
Q 21.234375 -8.296875 12.84375 -21.046875 
z
" id="Arial-BoldMT-41"/>
     </defs>
     <g transform="translate(21.759375 344.861562)rotate(-90)scale(0.2 -0.2)">
      <use xlink:href="#Arial-BoldMT-73"/>
      <use x="27.783203" xlink:href="#Arial-BoldMT-76"/>
      <use x="88.867188" xlink:href="#Arial-BoldMT-45"/>
      <use x="122.167969" xlink:href="#Arial-BoldMT-50"/>
      <use x="177.783203" xlink:href="#Arial-BoldMT-32"/>
      <use x="205.566406" xlink:href="#Arial-BoldMT-67"/>
      <use x="277.783203" xlink:href="#Arial-BoldMT-79"/>
      <use x="355.566406" xlink:href="#Arial-BoldMT-78"/>
      <use x="427.783203" xlink:href="#Arial-BoldMT-67"/>
      <use x="500" xlink:href="#Arial-BoldMT-32"/>
      <use x="527.783203" xlink:href="#Arial-BoldMT-40"/>
      <use x="561.083984" xlink:href="#Arial-BoldMT-112"/>
      <use x="622.167969" xlink:href="#Arial-BoldMT-103"/>
      <use x="683.251953" xlink:href="#Arial-BoldMT-47"/>
      <use x="711.035156" xlink:href="#Arial-BoldMT-109"/>
      <use x="799.951172" xlink:href="#Arial-BoldMT-108"/>
      <use x="827.734375" xlink:href="#Arial-BoldMT-41"/>
     </g>
    </g>
    <g id="text_18">
     <!-- 1e7 -->
     <defs>
      <path d="M 56.203125 29.59375 
L 56.203125 25.203125 
L 14.890625 25.203125 
Q 15.484375 15.921875 20.484375 11.0625 
Q 25.484375 6.203125 34.421875 6.203125 
Q 39.59375 6.203125 44.453125 7.46875 
Q 49.3125 8.734375 54.109375 11.28125 
L 54.109375 2.78125 
Q 49.265625 0.734375 44.1875 -0.34375 
Q 39.109375 -1.421875 33.890625 -1.421875 
Q 20.796875 -1.421875 13.15625 6.1875 
Q 5.515625 13.8125 5.515625 26.8125 
Q 5.515625 40.234375 12.765625 48.109375 
Q 20.015625 56 32.328125 56 
Q 43.359375 56 49.78125 48.890625 
Q 56.203125 41.796875 56.203125 29.59375 
z
M 47.21875 32.234375 
Q 47.125 39.59375 43.09375 43.984375 
Q 39.0625 48.390625 32.421875 48.390625 
Q 24.90625 48.390625 20.390625 44.140625 
Q 15.875 39.890625 15.1875 32.171875 
z
" id="DejaVuSans-101"/>
      <path d="M 8.203125 72.90625 
L 55.078125 72.90625 
L 55.078125 68.703125 
L 28.609375 0 
L 18.3125 0 
L 43.21875 64.59375 
L 8.203125 64.59375 
z
" id="DejaVuSans-55"/>
     </defs>
     <g transform="translate(90.678125 65.501562)scale(0.1 -0.1)">
      <use xlink:href="#DejaVuSans-49"/>
      <use x="63.623047" xlink:href="#DejaVuSans-101"/>
      <use x="125.146484" xlink:href="#DejaVuSans-55"/>
     </g>
    </g>
   </g>
   <g id="line2d_16">
    <path clip-path="url(#pc3bedf7abd)" d="M 105.868125 449.021562 
L 105.868125 449.021562 
" style="fill:none;stroke:#424242;stroke-linecap:square;stroke-width:2.7;"/>
   </g>
   <g id="line2d_17">
    <path clip-path="url(#pc3bedf7abd)" d="M 102.613125 449.021562 
L 109.123125 449.021562 
" style="fill:none;stroke:#424242;stroke-linecap:square;stroke-width:2.7;"/>
   </g>
   <g id="line2d_18">
    <path clip-path="url(#pc3bedf7abd)" d="M 102.613125 449.021562 
L 109.123125 449.021562 
" style="fill:none;stroke:#424242;stroke-linecap:square;stroke-width:2.7;"/>
   </g>
   <g id="line2d_19">
    <path clip-path="url(#pc3bedf7abd)" d="M 170.968125 449.020444 
L 170.968125 449.013764 
" style="fill:none;stroke:#424242;stroke-linecap:square;stroke-width:2.7;"/>
   </g>
   <g id="line2d_20">
    <path clip-path="url(#pc3bedf7abd)" d="M 167.713125 449.020444 
L 174.223125 449.020444 
" style="fill:none;stroke:#424242;stroke-linecap:square;stroke-width:2.7;"/>
   </g>
   <g id="line2d_21">
    <path clip-path="url(#pc3bedf7abd)" d="M 167.713125 449.013764 
L 174.223125 449.013764 
" style="fill:none;stroke:#424242;stroke-linecap:square;stroke-width:2.7;"/>
   </g>
   <g id="line2d_22">
    <path clip-path="url(#pc3bedf7abd)" d="M 236.068125 448.99991 
L 236.068125 448.991268 
" style="fill:none;stroke:#424242;stroke-linecap:square;stroke-width:2.7;"/>
   </g>
   <g id="line2d_23">
    <path clip-path="url(#pc3bedf7abd)" d="M 232.813125 448.99991 
L 239.323125 448.99991 
" style="fill:none;stroke:#424242;stroke-linecap:square;stroke-width:2.7;"/>
   </g>
   <g id="line2d_24">
    <path clip-path="url(#pc3bedf7abd)" d="M 232.813125 448.991268 
L 239.323125 448.991268 
" style="fill:none;stroke:#424242;stroke-linecap:square;stroke-width:2.7;"/>
   </g>
   <g id="line2d_25">
    <path clip-path="url(#pc3bedf7abd)" d="M 301.168125 448.983287 
L 301.168125 448.952264 
" style="fill:none;stroke:#424242;stroke-linecap:square;stroke-width:2.7;"/>
   </g>
   <g id="line2d_26">
    <path clip-path="url(#pc3bedf7abd)" d="M 297.913125 448.983287 
L 304.423125 448.983287 
" style="fill:none;stroke:#424242;stroke-linecap:square;stroke-width:2.7;"/>
   </g>
   <g id="line2d_27">
    <path clip-path="url(#pc3bedf7abd)" d="M 297.913125 448.952264 
L 304.423125 448.952264 
" style="fill:none;stroke:#424242;stroke-linecap:square;stroke-width:2.7;"/>
   </g>
   <g id="line2d_28">
    <path clip-path="url(#pc3bedf7abd)" d="M 366.268125 448.843562 
L 366.268125 448.826206 
" style="fill:none;stroke:#424242;stroke-linecap:square;stroke-width:2.7;"/>
   </g>
   <g id="line2d_29">
    <path clip-path="url(#pc3bedf7abd)" d="M 363.013125 448.843562 
L 369.523125 448.843562 
" style="fill:none;stroke:#424242;stroke-linecap:square;stroke-width:2.7;"/>
   </g>
   <g id="line2d_30">
    <path clip-path="url(#pc3bedf7abd)" d="M 363.013125 448.826206 
L 369.523125 448.826206 
" style="fill:none;stroke:#424242;stroke-linecap:square;stroke-width:2.7;"/>
   </g>
   <g id="line2d_31">
    <path clip-path="url(#pc3bedf7abd)" d="M 431.368125 448.760896 
L 431.368125 448.741566 
" style="fill:none;stroke:#424242;stroke-linecap:square;stroke-width:2.7;"/>
   </g>
   <g id="line2d_32">
    <path clip-path="url(#pc3bedf7abd)" d="M 428.113125 448.760896 
L 434.623125 448.760896 
" style="fill:none;stroke:#424242;stroke-linecap:square;stroke-width:2.7;"/>
   </g>
   <g id="line2d_33">
    <path clip-path="url(#pc3bedf7abd)" d="M 428.113125 448.741566 
L 434.623125 448.741566 
" style="fill:none;stroke:#424242;stroke-linecap:square;stroke-width:2.7;"/>
   </g>
   <g id="line2d_34">
    <path clip-path="url(#pc3bedf7abd)" d="M 123.228125 449.021562 
L 123.228125 449.021562 
" style="fill:none;stroke:#424242;stroke-linecap:square;stroke-width:2.7;"/>
   </g>
   <g id="line2d_35">
    <path clip-path="url(#pc3bedf7abd)" d="M 119.973125 449.021562 
L 126.483125 449.021562 
" style="fill:none;stroke:#424242;stroke-linecap:square;stroke-width:2.7;"/>
   </g>
   <g id="line2d_36">
    <path clip-path="url(#pc3bedf7abd)" d="M 119.973125 449.021562 
L 126.483125 449.021562 
" style="fill:none;stroke:#424242;stroke-linecap:square;stroke-width:2.7;"/>
   </g>
   <g id="line2d_37">
    <path clip-path="url(#pc3bedf7abd)" d="M 188.328125 447.734708 
L 188.328125 446.799079 
" style="fill:none;stroke:#424242;stroke-linecap:square;stroke-width:2.7;"/>
   </g>
   <g id="line2d_38">
    <path clip-path="url(#pc3bedf7abd)" d="M 185.073125 447.734708 
L 191.583125 447.734708 
" style="fill:none;stroke:#424242;stroke-linecap:square;stroke-width:2.7;"/>
   </g>
   <g id="line2d_39">
    <path clip-path="url(#pc3bedf7abd)" d="M 185.073125 446.799079 
L 191.583125 446.799079 
" style="fill:none;stroke:#424242;stroke-linecap:square;stroke-width:2.7;"/>
   </g>
   <g id="line2d_40">
    <path clip-path="url(#pc3bedf7abd)" d="M 253.428125 443.519998 
L 253.428125 442.393033 
" style="fill:none;stroke:#424242;stroke-linecap:square;stroke-width:2.7;"/>
   </g>
   <g id="line2d_41">
    <path clip-path="url(#pc3bedf7abd)" d="M 250.173125 443.519998 
L 256.683125 443.519998 
" style="fill:none;stroke:#424242;stroke-linecap:square;stroke-width:2.7;"/>
   </g>
   <g id="line2d_42">
    <path clip-path="url(#pc3bedf7abd)" d="M 250.173125 442.393033 
L 256.683125 442.393033 
" style="fill:none;stroke:#424242;stroke-linecap:square;stroke-width:2.7;"/>
   </g>
   <g id="line2d_43">
    <path clip-path="url(#pc3bedf7abd)" d="M 318.528125 439.937464 
L 318.528125 436.192668 
" style="fill:none;stroke:#424242;stroke-linecap:square;stroke-width:2.7;"/>
   </g>
   <g id="line2d_44">
    <path clip-path="url(#pc3bedf7abd)" d="M 315.273125 439.937464 
L 321.783125 439.937464 
" style="fill:none;stroke:#424242;stroke-linecap:square;stroke-width:2.7;"/>
   </g>
   <g id="line2d_45">
    <path clip-path="url(#pc3bedf7abd)" d="M 315.273125 436.192668 
L 321.783125 436.192668 
" style="fill:none;stroke:#424242;stroke-linecap:square;stroke-width:2.7;"/>
   </g>
   <g id="line2d_46">
    <path clip-path="url(#pc3bedf7abd)" d="M 383.628125 421.341004 
L 383.628125 419.976461 
" style="fill:none;stroke:#424242;stroke-linecap:square;stroke-width:2.7;"/>
   </g>
   <g id="line2d_47">
    <path clip-path="url(#pc3bedf7abd)" d="M 380.373125 421.341004 
L 386.883125 421.341004 
" style="fill:none;stroke:#424242;stroke-linecap:square;stroke-width:2.7;"/>
   </g>
   <g id="line2d_48">
    <path clip-path="url(#pc3bedf7abd)" d="M 380.373125 419.976461 
L 386.883125 419.976461 
" style="fill:none;stroke:#424242;stroke-linecap:square;stroke-width:2.7;"/>
   </g>
   <g id="line2d_49">
    <path clip-path="url(#pc3bedf7abd)" d="M 448.728125 414.132284 
L 448.728125 412.654288 
" style="fill:none;stroke:#424242;stroke-linecap:square;stroke-width:2.7;"/>
   </g>
   <g id="line2d_50">
    <path clip-path="url(#pc3bedf7abd)" d="M 445.473125 414.132284 
L 451.983125 414.132284 
" style="fill:none;stroke:#424242;stroke-linecap:square;stroke-width:2.7;"/>
   </g>
   <g id="line2d_51">
    <path clip-path="url(#pc3bedf7abd)" d="M 445.473125 412.654288 
L 451.983125 412.654288 
" style="fill:none;stroke:#424242;stroke-linecap:square;stroke-width:2.7;"/>
   </g>
   <g id="line2d_52">
    <path clip-path="url(#pc3bedf7abd)" d="M 140.588125 449.021562 
L 140.588125 449.021562 
" style="fill:none;stroke:#424242;stroke-linecap:square;stroke-width:2.7;"/>
   </g>
   <g id="line2d_53">
    <path clip-path="url(#pc3bedf7abd)" d="M 137.333125 449.021562 
L 143.843125 449.021562 
" style="fill:none;stroke:#424242;stroke-linecap:square;stroke-width:2.7;"/>
   </g>
   <g id="line2d_54">
    <path clip-path="url(#pc3bedf7abd)" d="M 137.333125 449.021562 
L 143.843125 449.021562 
" style="fill:none;stroke:#424242;stroke-linecap:square;stroke-width:2.7;"/>
   </g>
   <g id="line2d_55">
    <path clip-path="url(#pc3bedf7abd)" d="M 205.688125 435.861111 
L 205.688125 430.883364 
" style="fill:none;stroke:#424242;stroke-linecap:square;stroke-width:2.7;"/>
   </g>
   <g id="line2d_56">
    <path clip-path="url(#pc3bedf7abd)" d="M 202.433125 435.861111 
L 208.943125 435.861111 
" style="fill:none;stroke:#424242;stroke-linecap:square;stroke-width:2.7;"/>
   </g>
   <g id="line2d_57">
    <path clip-path="url(#pc3bedf7abd)" d="M 202.433125 430.883364 
L 208.943125 430.883364 
" style="fill:none;stroke:#424242;stroke-linecap:square;stroke-width:2.7;"/>
   </g>
   <g id="line2d_58">
    <path clip-path="url(#pc3bedf7abd)" d="M 270.788125 395.704546 
L 270.788125 387.311333 
" style="fill:none;stroke:#424242;stroke-linecap:square;stroke-width:2.7;"/>
   </g>
   <g id="line2d_59">
    <path clip-path="url(#pc3bedf7abd)" d="M 267.533125 395.704546 
L 274.043125 395.704546 
" style="fill:none;stroke:#424242;stroke-linecap:square;stroke-width:2.7;"/>
   </g>
   <g id="line2d_60">
    <path clip-path="url(#pc3bedf7abd)" d="M 267.533125 387.311333 
L 274.043125 387.311333 
" style="fill:none;stroke:#424242;stroke-linecap:square;stroke-width:2.7;"/>
   </g>
   <g id="line2d_61">
    <path clip-path="url(#pc3bedf7abd)" d="M 335.888125 356.419212 
L 335.888125 335.060506 
" style="fill:none;stroke:#424242;stroke-linecap:square;stroke-width:2.7;"/>
   </g>
   <g id="line2d_62">
    <path clip-path="url(#pc3bedf7abd)" d="M 332.633125 356.419212 
L 339.143125 356.419212 
" style="fill:none;stroke:#424242;stroke-linecap:square;stroke-width:2.7;"/>
   </g>
   <g id="line2d_63">
    <path clip-path="url(#pc3bedf7abd)" d="M 332.633125 335.060506 
L 339.143125 335.060506 
" style="fill:none;stroke:#424242;stroke-linecap:square;stroke-width:2.7;"/>
   </g>
   <g id="line2d_64">
    <path clip-path="url(#pc3bedf7abd)" d="M 400.988125 229.442372 
L 400.988125 216.556203 
" style="fill:none;stroke:#424242;stroke-linecap:square;stroke-width:2.7;"/>
   </g>
   <g id="line2d_65">
    <path clip-path="url(#pc3bedf7abd)" d="M 397.733125 229.442372 
L 404.243125 229.442372 
" style="fill:none;stroke:#424242;stroke-linecap:square;stroke-width:2.7;"/>
   </g>
   <g id="line2d_66">
    <path clip-path="url(#pc3bedf7abd)" d="M 397.733125 216.556203 
L 404.243125 216.556203 
" style="fill:none;stroke:#424242;stroke-linecap:square;stroke-width:2.7;"/>
   </g>
   <g id="line2d_67">
    <path clip-path="url(#pc3bedf7abd)" d="M 466.088125 196.537875 
L 466.088125 185.219342 
" style="fill:none;stroke:#424242;stroke-linecap:square;stroke-width:2.7;"/>
   </g>
   <g id="line2d_68">
    <path clip-path="url(#pc3bedf7abd)" d="M 462.833125 196.537875 
L 469.343125 196.537875 
" style="fill:none;stroke:#424242;stroke-linecap:square;stroke-width:2.7;"/>
   </g>
   <g id="line2d_69">
    <path clip-path="url(#pc3bedf7abd)" d="M 462.833125 185.219342 
L 469.343125 185.219342 
" style="fill:none;stroke:#424242;stroke-linecap:square;stroke-width:2.7;"/>
   </g>
   <g id="patch_21">
    <path d="M 90.678125 449.021562 
L 90.678125 68.501562 
" style="fill:none;stroke:#000000;stroke-linecap:square;stroke-linejoin:miter;stroke-width:0.8;"/>
   </g>
   <g id="patch_22">
    <path d="M 481.278125 449.021562 
L 481.278125 68.501562 
" style="fill:none;stroke:#000000;stroke-linecap:square;stroke-linejoin:miter;stroke-width:0.8;"/>
   </g>
   <g id="patch_23">
    <path d="M 90.678125 449.021562 
L 481.278125 449.021562 
" style="fill:none;stroke:#000000;stroke-linecap:square;stroke-linejoin:miter;stroke-width:0.8;"/>
   </g>
   <g id="patch_24">
    <path d="M 90.678125 68.501562 
L 481.278125 68.501562 
" style="fill:none;stroke:#000000;stroke-linecap:square;stroke-linejoin:miter;stroke-width:0.8;"/>
   </g>
   <g id="PathCollection_4">
    <defs>
     <path d="M 0 2.5 
C 0.663008 2.5 1.29895 2.236584 1.767767 1.767767 
C 2.236584 1.29895 2.5 0.663008 2.5 0 
C 2.5 -0.663008 2.236584 -1.29895 1.767767 -1.767767 
C 1.29895 -2.236584 0.663008 -2.5 0 -2.5 
C -0.663008 -2.5 -1.29895 -2.236584 -1.767767 -1.767767 
C -2.236584 -1.29895 -2.5 -0.663008 -2.5 0 
C -2.5 0.663008 -2.236584 1.29895 -1.767767 1.767767 
C -1.29895 2.236584 -0.663008 2.5 0 2.5 
z
" id="C0_0_5b4ccba2f1"/>
    </defs>
    <g clip-path="url(#pc3bedf7abd)">
     <use style="fill:#222222;" x="105.868125" xlink:href="#C0_0_5b4ccba2f1" y="449.021562"/>
    </g>
    <g clip-path="url(#pc3bedf7abd)">
     <use style="fill:#222222;" x="100.618125" xlink:href="#C0_0_5b4ccba2f1" y="449.021562"/>
    </g>
    <g clip-path="url(#pc3bedf7abd)">
     <use style="fill:#222222;" x="111.118125" xlink:href="#C0_0_5b4ccba2f1" y="449.021562"/>
    </g>
    <g clip-path="url(#pc3bedf7abd)">
     <use style="fill:#222222;" x="97.361725" xlink:href="#C0_0_5b4ccba2f1" y="449.021562"/>
    </g>
    <g clip-path="url(#pc3bedf7abd)">
     <use style="fill:#222222;" x="114.374525" xlink:href="#C0_0_5b4ccba2f1" y="449.021562"/>
    </g>
    <g clip-path="url(#pc3bedf7abd)">
     <use style="fill:#222222;" x="97.361725" xlink:href="#C0_0_5b4ccba2f1" y="449.021562"/>
    </g>
    <g clip-path="url(#pc3bedf7abd)">
     <use style="fill:#222222;" x="114.374525" xlink:href="#C0_0_5b4ccba2f1" y="449.021562"/>
    </g>
    <g clip-path="url(#pc3bedf7abd)">
     <use style="fill:#222222;" x="97.361725" xlink:href="#C0_0_5b4ccba2f1" y="449.021562"/>
    </g>
    <g clip-path="url(#pc3bedf7abd)">
     <use style="fill:#222222;" x="114.374525" xlink:href="#C0_0_5b4ccba2f1" y="449.021562"/>
    </g>
    <g clip-path="url(#pc3bedf7abd)">
     <use style="fill:#222222;" x="97.361725" xlink:href="#C0_0_5b4ccba2f1" y="449.021562"/>
    </g>
   </g>
   <g id="PathCollection_5">
    <defs>
     <path d="M 0 2.5 
C 0.663008 2.5 1.29895 2.236584 1.767767 1.767767 
C 2.236584 1.29895 2.5 0.663008 2.5 0 
C 2.5 -0.663008 2.236584 -1.29895 1.767767 -1.767767 
C 1.29895 -2.236584 0.663008 -2.5 0 -2.5 
C -0.663008 -2.5 -1.29895 -2.236584 -1.767767 -1.767767 
C -2.236584 -1.29895 -2.5 -0.663008 -2.5 0 
C -2.5 0.663008 -2.236584 1.29895 -1.767767 1.767767 
C -1.29895 2.236584 -0.663008 2.5 0 2.5 
z
" id="C1_0_a9f9f80909"/>
    </defs>
    <g clip-path="url(#pc3bedf7abd)">
     <use style="fill:#111111;" x="123.228125" xlink:href="#C1_0_a9f9f80909" y="449.021562"/>
    </g>
    <g clip-path="url(#pc3bedf7abd)">
     <use style="fill:#111111;" x="117.978125" xlink:href="#C1_0_a9f9f80909" y="449.021562"/>
    </g>
    <g clip-path="url(#pc3bedf7abd)">
     <use style="fill:#111111;" x="128.478125" xlink:href="#C1_0_a9f9f80909" y="449.021562"/>
    </g>
    <g clip-path="url(#pc3bedf7abd)">
     <use style="fill:#111111;" x="114.721725" xlink:href="#C1_0_a9f9f80909" y="449.021562"/>
    </g>
    <g clip-path="url(#pc3bedf7abd)">
     <use style="fill:#111111;" x="131.734525" xlink:href="#C1_0_a9f9f80909" y="449.021562"/>
    </g>
    <g clip-path="url(#pc3bedf7abd)">
     <use style="fill:#111111;" x="114.721725" xlink:href="#C1_0_a9f9f80909" y="449.021562"/>
    </g>
    <g clip-path="url(#pc3bedf7abd)">
     <use style="fill:#111111;" x="131.734525" xlink:href="#C1_0_a9f9f80909" y="449.021562"/>
    </g>
    <g clip-path="url(#pc3bedf7abd)">
     <use style="fill:#111111;" x="114.721725" xlink:href="#C1_0_a9f9f80909" y="449.021562"/>
    </g>
    <g clip-path="url(#pc3bedf7abd)">
     <use style="fill:#111111;" x="131.734525" xlink:href="#C1_0_a9f9f80909" y="449.021562"/>
    </g>
    <g clip-path="url(#pc3bedf7abd)">
     <use style="fill:#111111;" x="114.721725" xlink:href="#C1_0_a9f9f80909" y="449.021562"/>
    </g>
   </g>
   <g id="PathCollection_6">
    <defs>
     <path d="M 0 2.5 
C 0.663008 2.5 1.29895 2.236584 1.767767 1.767767 
C 2.236584 1.29895 2.5 0.663008 2.5 0 
C 2.5 -0.663008 2.236584 -1.29895 1.767767 -1.767767 
C 1.29895 -2.236584 0.663008 -2.5 0 -2.5 
C -0.663008 -2.5 -1.29895 -2.236584 -1.767767 -1.767767 
C -2.236584 -1.29895 -2.5 -0.663008 -2.5 0 
C -2.5 0.663008 -2.236584 1.29895 -1.767767 1.767767 
C -1.29895 2.236584 -0.663008 2.5 0 2.5 
z
" id="C2_0_63145835d8"/>
    </defs>
    <g clip-path="url(#pc3bedf7abd)">
     <use x="140.588125" xlink:href="#C2_0_63145835d8" y="449.021562"/>
    </g>
    <g clip-path="url(#pc3bedf7abd)">
     <use x="135.338125" xlink:href="#C2_0_63145835d8" y="449.021562"/>
    </g>
    <g clip-path="url(#pc3bedf7abd)">
     <use x="145.838125" xlink:href="#C2_0_63145835d8" y="449.021562"/>
    </g>
    <g clip-path="url(#pc3bedf7abd)">
     <use x="132.081725" xlink:href="#C2_0_63145835d8" y="449.021562"/>
    </g>
    <g clip-path="url(#pc3bedf7abd)">
     <use x="149.094525" xlink:href="#C2_0_63145835d8" y="449.021562"/>
    </g>
    <g clip-path="url(#pc3bedf7abd)">
     <use x="132.081725" xlink:href="#C2_0_63145835d8" y="449.021562"/>
    </g>
    <g clip-path="url(#pc3bedf7abd)">
     <use x="149.094525" xlink:href="#C2_0_63145835d8" y="449.021562"/>
    </g>
    <g clip-path="url(#pc3bedf7abd)">
     <use x="132.081725" xlink:href="#C2_0_63145835d8" y="449.021562"/>
    </g>
    <g clip-path="url(#pc3bedf7abd)">
     <use x="149.094525" xlink:href="#C2_0_63145835d8" y="449.021562"/>
    </g>
    <g clip-path="url(#pc3bedf7abd)">
     <use x="132.081725" xlink:href="#C2_0_63145835d8" y="449.021562"/>
    </g>
   </g>
   <g id="PathCollection_7">
    <defs>
     <path d="M 0 2.5 
C 0.663008 2.5 1.29895 2.236584 1.767767 1.767767 
C 2.236584 1.29895 2.5 0.663008 2.5 0 
C 2.5 -0.663008 2.236584 -1.29895 1.767767 -1.767767 
C 1.29895 -2.236584 0.663008 -2.5 0 -2.5 
C -0.663008 -2.5 -1.29895 -2.236584 -1.767767 -1.767767 
C -2.236584 -1.29895 -2.5 -0.663008 -2.5 0 
C -2.5 0.663008 -2.236584 1.29895 -1.767767 1.767767 
C -1.29895 2.236584 -0.663008 2.5 0 2.5 
z
" id="C3_0_bcf9728b33"/>
    </defs>
    <g clip-path="url(#pc3bedf7abd)">
     <use style="fill:#222222;" x="170.968125" xlink:href="#C3_0_bcf9728b33" y="449.020987"/>
    </g>
    <g clip-path="url(#pc3bedf7abd)">
     <use style="fill:#222222;" x="165.718125" xlink:href="#C3_0_bcf9728b33" y="449.020804"/>
    </g>
    <g clip-path="url(#pc3bedf7abd)">
     <use style="fill:#222222;" x="176.218125" xlink:href="#C3_0_bcf9728b33" y="449.019639"/>
    </g>
    <g clip-path="url(#pc3bedf7abd)">
     <use style="fill:#222222;" x="162.461725" xlink:href="#C3_0_bcf9728b33" y="449.019399"/>
    </g>
    <g clip-path="url(#pc3bedf7abd)">
     <use style="fill:#222222;" x="179.474525" xlink:href="#C3_0_bcf9728b33" y="449.017475"/>
    </g>
    <g clip-path="url(#pc3bedf7abd)">
     <use style="fill:#222222;" x="162.461725" xlink:href="#C3_0_bcf9728b33" y="449.017219"/>
    </g>
    <g clip-path="url(#pc3bedf7abd)">
     <use style="fill:#222222;" x="179.474525" xlink:href="#C3_0_bcf9728b33" y="449.017166"/>
    </g>
    <g clip-path="url(#pc3bedf7abd)">
     <use style="fill:#222222;" x="162.461725" xlink:href="#C3_0_bcf9728b33" y="449.01572"/>
    </g>
    <g clip-path="url(#pc3bedf7abd)">
     <use style="fill:#222222;" x="179.474525" xlink:href="#C3_0_bcf9728b33" y="449.012325"/>
    </g>
    <g clip-path="url(#pc3bedf7abd)">
     <use style="fill:#222222;" x="162.461725" xlink:href="#C3_0_bcf9728b33" y="449.010309"/>
    </g>
   </g>
   <g id="PathCollection_8">
    <defs>
     <path d="M 0 2.5 
C 0.663008 2.5 1.29895 2.236584 1.767767 1.767767 
C 2.236584 1.29895 2.5 0.663008 2.5 0 
C 2.5 -0.663008 2.236584 -1.29895 1.767767 -1.767767 
C 1.29895 -2.236584 0.663008 -2.5 0 -2.5 
C -0.663008 -2.5 -1.29895 -2.236584 -1.767767 -1.767767 
C -2.236584 -1.29895 -2.5 -0.663008 -2.5 0 
C -2.5 0.663008 -2.236584 1.29895 -1.767767 1.767767 
C -1.29895 2.236584 -0.663008 2.5 0 2.5 
z
" id="C4_0_01b916fd3f"/>
    </defs>
    <g clip-path="url(#pc3bedf7abd)">
     <use style="fill:#111111;" x="188.328125" xlink:href="#C4_0_01b916fd3f" y="448.031217"/>
    </g>
    <g clip-path="url(#pc3bedf7abd)">
     <use style="fill:#111111;" x="183.085897" xlink:href="#C4_0_01b916fd3f" y="447.818691"/>
    </g>
    <g clip-path="url(#pc3bedf7abd)">
     <use style="fill:#111111;" x="193.528805" xlink:href="#C4_0_01b916fd3f" y="447.496891"/>
    </g>
    <g clip-path="url(#pc3bedf7abd)">
     <use style="fill:#111111;" x="196.834525" xlink:href="#C4_0_01b916fd3f" y="447.445879"/>
    </g>
    <g clip-path="url(#pc3bedf7abd)">
     <use style="fill:#111111;" x="179.821725" xlink:href="#C4_0_01b916fd3f" y="447.41843"/>
    </g>
    <g clip-path="url(#pc3bedf7abd)">
     <use style="fill:#111111;" x="196.834525" xlink:href="#C4_0_01b916fd3f" y="447.149902"/>
    </g>
    <g clip-path="url(#pc3bedf7abd)">
     <use style="fill:#111111;" x="179.821725" xlink:href="#C4_0_01b916fd3f" y="447.129504"/>
    </g>
    <g clip-path="url(#pc3bedf7abd)">
     <use style="fill:#111111;" x="196.834525" xlink:href="#C4_0_01b916fd3f" y="446.996334"/>
    </g>
    <g clip-path="url(#pc3bedf7abd)">
     <use style="fill:#111111;" x="179.821725" xlink:href="#C4_0_01b916fd3f" y="446.884828"/>
    </g>
    <g clip-path="url(#pc3bedf7abd)">
     <use style="fill:#111111;" x="196.834525" xlink:href="#C4_0_01b916fd3f" y="446.297256"/>
    </g>
   </g>
   <g id="PathCollection_9">
    <defs>
     <path d="M 0 2.5 
C 0.663008 2.5 1.29895 2.236584 1.767767 1.767767 
C 2.236584 1.29895 2.5 0.663008 2.5 0 
C 2.5 -0.663008 2.236584 -1.29895 1.767767 -1.767767 
C 1.29895 -2.236584 0.663008 -2.5 0 -2.5 
C -0.663008 -2.5 -1.29895 -2.236584 -1.767767 -1.767767 
C -2.236584 -1.29895 -2.5 -0.663008 -2.5 0 
C -2.5 0.663008 -2.236584 1.29895 -1.767767 1.767767 
C -1.29895 2.236584 -0.663008 2.5 0 2.5 
z
" id="C5_0_07a0afc88f"/>
    </defs>
    <g clip-path="url(#pc3bedf7abd)">
     <use x="205.688125" xlink:href="#C5_0_07a0afc88f" y="436.779643"/>
    </g>
    <g clip-path="url(#pc3bedf7abd)">
     <use x="200.5145" xlink:href="#C5_0_07a0afc88f" y="436.115588"/>
    </g>
    <g clip-path="url(#pc3bedf7abd)">
     <use x="210.685479" xlink:href="#C5_0_07a0afc88f" y="435.582125"/>
    </g>
    <g clip-path="url(#pc3bedf7abd)">
     <use x="197.181725" xlink:href="#C5_0_07a0afc88f" y="434.547182"/>
    </g>
    <g clip-path="url(#pc3bedf7abd)">
     <use x="214.194525" xlink:href="#C5_0_07a0afc88f" y="434.001343"/>
    </g>
    <g clip-path="url(#pc3bedf7abd)">
     <use x="214.194525" xlink:href="#C5_0_07a0afc88f" y="433.88828"/>
    </g>
    <g clip-path="url(#pc3bedf7abd)">
     <use x="204.140567" xlink:href="#C5_0_07a0afc88f" y="433.045934"/>
    </g>
    <g clip-path="url(#pc3bedf7abd)">
     <use x="207.488552" xlink:href="#C5_0_07a0afc88f" y="430.03622"/>
    </g>
    <g clip-path="url(#pc3bedf7abd)">
     <use x="200.924786" xlink:href="#C5_0_07a0afc88f" y="429.957401"/>
    </g>
    <g clip-path="url(#pc3bedf7abd)">
     <use x="212.726229" xlink:href="#C5_0_07a0afc88f" y="429.76866"/>
    </g>
   </g>
   <g id="PathCollection_10">
    <defs>
     <path d="M 0 2.5 
C 0.663008 2.5 1.29895 2.236584 1.767767 1.767767 
C 2.236584 1.29895 2.5 0.663008 2.5 0 
C 2.5 -0.663008 2.236584 -1.29895 1.767767 -1.767767 
C 1.29895 -2.236584 0.663008 -2.5 0 -2.5 
C -0.663008 -2.5 -1.29895 -2.236584 -1.767767 -1.767767 
C -2.236584 -1.29895 -2.5 -0.663008 -2.5 0 
C -2.5 0.663008 -2.236584 1.29895 -1.767767 1.767767 
C -1.29895 2.236584 -0.663008 2.5 0 2.5 
z
" id="C6_0_502e664ea0"/>
    </defs>
    <g clip-path="url(#pc3bedf7abd)">
     <use style="fill:#222222;" x="236.068125" xlink:href="#C6_0_502e664ea0" y="449.003386"/>
    </g>
    <g clip-path="url(#pc3bedf7abd)">
     <use style="fill:#222222;" x="230.818125" xlink:href="#C6_0_502e664ea0" y="449.002582"/>
    </g>
    <g clip-path="url(#pc3bedf7abd)">
     <use style="fill:#222222;" x="241.318119" xlink:href="#C6_0_502e664ea0" y="448.997399"/>
    </g>
    <g clip-path="url(#pc3bedf7abd)">
     <use style="fill:#222222;" x="227.561725" xlink:href="#C6_0_502e664ea0" y="448.995744"/>
    </g>
    <g clip-path="url(#pc3bedf7abd)">
     <use style="fill:#222222;" x="244.574525" xlink:href="#C6_0_502e664ea0" y="448.994947"/>
    </g>
    <g clip-path="url(#pc3bedf7abd)">
     <use style="fill:#222222;" x="227.561725" xlink:href="#C6_0_502e664ea0" y="448.994889"/>
    </g>
    <g clip-path="url(#pc3bedf7abd)">
     <use style="fill:#222222;" x="244.574525" xlink:href="#C6_0_502e664ea0" y="448.993602"/>
    </g>
    <g clip-path="url(#pc3bedf7abd)">
     <use style="fill:#222222;" x="227.561725" xlink:href="#C6_0_502e664ea0" y="448.99285"/>
    </g>
    <g clip-path="url(#pc3bedf7abd)">
     <use style="fill:#222222;" x="244.574525" xlink:href="#C6_0_502e664ea0" y="448.991708"/>
    </g>
    <g clip-path="url(#pc3bedf7abd)">
     <use style="fill:#222222;" x="227.561725" xlink:href="#C6_0_502e664ea0" y="448.988782"/>
    </g>
   </g>
   <g id="PathCollection_11">
    <defs>
     <path d="M 0 2.5 
C 0.663008 2.5 1.29895 2.236584 1.767767 1.767767 
C 2.236584 1.29895 2.5 0.663008 2.5 0 
C 2.5 -0.663008 2.236584 -1.29895 1.767767 -1.767767 
C 1.29895 -2.236584 0.663008 -2.5 0 -2.5 
C -0.663008 -2.5 -1.29895 -2.236584 -1.767767 -1.767767 
C -2.236584 -1.29895 -2.5 -0.663008 -2.5 0 
C -2.5 0.663008 -2.236584 1.29895 -1.767767 1.767767 
C -1.29895 2.236584 -0.663008 2.5 0 2.5 
z
" id="C7_0_250c732b3a"/>
    </defs>
    <g clip-path="url(#pc3bedf7abd)">
     <use style="fill:#111111;" x="253.428125" xlink:href="#C7_0_250c732b3a" y="443.953192"/>
    </g>
    <g clip-path="url(#pc3bedf7abd)">
     <use style="fill:#111111;" x="248.18695" xlink:href="#C7_0_250c732b3a" y="443.726736"/>
    </g>
    <g clip-path="url(#pc3bedf7abd)">
     <use style="fill:#111111;" x="258.591033" xlink:href="#C7_0_250c732b3a" y="443.24444"/>
    </g>
    <g clip-path="url(#pc3bedf7abd)">
     <use style="fill:#111111;" x="261.934525" xlink:href="#C7_0_250c732b3a" y="443.057688"/>
    </g>
    <g clip-path="url(#pc3bedf7abd)">
     <use style="fill:#111111;" x="244.921725" xlink:href="#C7_0_250c732b3a" y="443.032607"/>
    </g>
    <g clip-path="url(#pc3bedf7abd)">
     <use style="fill:#111111;" x="261.934525" xlink:href="#C7_0_250c732b3a" y="442.998183"/>
    </g>
    <g clip-path="url(#pc3bedf7abd)">
     <use style="fill:#111111;" x="244.921725" xlink:href="#C7_0_250c732b3a" y="442.687551"/>
    </g>
    <g clip-path="url(#pc3bedf7abd)">
     <use style="fill:#111111;" x="261.934525" xlink:href="#C7_0_250c732b3a" y="442.500822"/>
    </g>
    <g clip-path="url(#pc3bedf7abd)">
     <use style="fill:#111111;" x="244.921725" xlink:href="#C7_0_250c732b3a" y="442.245246"/>
    </g>
    <g clip-path="url(#pc3bedf7abd)">
     <use style="fill:#111111;" x="261.934525" xlink:href="#C7_0_250c732b3a" y="442.11869"/>
    </g>
   </g>
   <g id="PathCollection_12">
    <defs>
     <path d="M 0 2.5 
C 0.663008 2.5 1.29895 2.236584 1.767767 1.767767 
C 2.236584 1.29895 2.5 0.663008 2.5 0 
C 2.5 -0.663008 2.236584 -1.29895 1.767767 -1.767767 
C 1.29895 -2.236584 0.663008 -2.5 0 -2.5 
C -0.663008 -2.5 -1.29895 -2.236584 -1.767767 -1.767767 
C -2.236584 -1.29895 -2.5 -0.663008 -2.5 0 
C -2.5 0.663008 -2.236584 1.29895 -1.767767 1.767767 
C -1.29895 2.236584 -0.663008 2.5 0 2.5 
z
" id="C8_0_029b2e198e"/>
    </defs>
    <g clip-path="url(#pc3bedf7abd)">
     <use x="270.788125" xlink:href="#C8_0_029b2e198e" y="398.206846"/>
    </g>
    <g clip-path="url(#pc3bedf7abd)">
     <use x="265.693732" xlink:href="#C8_0_029b2e198e" y="397.262595"/>
    </g>
    <g clip-path="url(#pc3bedf7abd)">
     <use x="275.164354" xlink:href="#C8_0_029b2e198e" y="396.048372"/>
    </g>
    <g clip-path="url(#pc3bedf7abd)">
     <use x="270.788125" xlink:href="#C8_0_029b2e198e" y="391.606088"/>
    </g>
    <g clip-path="url(#pc3bedf7abd)">
     <use x="265.551044" xlink:href="#C8_0_029b2e198e" y="391.332144"/>
    </g>
    <g clip-path="url(#pc3bedf7abd)">
     <use x="275.981043" xlink:href="#C8_0_029b2e198e" y="391.031468"/>
    </g>
    <g clip-path="url(#pc3bedf7abd)">
     <use x="262.281725" xlink:href="#C8_0_029b2e198e" y="389.740866"/>
    </g>
    <g clip-path="url(#pc3bedf7abd)">
     <use x="269.442105" xlink:href="#C8_0_029b2e198e" y="387.82937"/>
    </g>
    <g clip-path="url(#pc3bedf7abd)">
     <use x="274.264206" xlink:href="#C8_0_029b2e198e" y="386.284291"/>
    </g>
    <g clip-path="url(#pc3bedf7abd)">
     <use x="265.00799" xlink:href="#C8_0_029b2e198e" y="385.737357"/>
    </g>
   </g>
   <g id="PathCollection_13">
    <defs>
     <path d="M 0 2.5 
C 0.663008 2.5 1.29895 2.236584 1.767767 1.767767 
C 2.236584 1.29895 2.5 0.663008 2.5 0 
C 2.5 -0.663008 2.236584 -1.29895 1.767767 -1.767767 
C 1.29895 -2.236584 0.663008 -2.5 0 -2.5 
C -0.663008 -2.5 -1.29895 -2.236584 -1.767767 -1.767767 
C -2.236584 -1.29895 -2.5 -0.663008 -2.5 0 
C -2.5 0.663008 -2.236584 1.29895 -1.767767 1.767767 
C -1.29895 2.236584 -0.663008 2.5 0 2.5 
z
" id="C9_0_66ca2c523a"/>
    </defs>
    <g clip-path="url(#pc3bedf7abd)">
     <use style="fill:#222222;" x="301.168125" xlink:href="#C9_0_66ca2c523a" y="448.987045"/>
    </g>
    <g clip-path="url(#pc3bedf7abd)">
     <use style="fill:#222222;" x="295.918126" xlink:href="#C9_0_66ca2c523a" y="448.984124"/>
    </g>
    <g clip-path="url(#pc3bedf7abd)">
     <use style="fill:#222222;" x="306.418123" xlink:href="#C9_0_66ca2c523a" y="448.983546"/>
    </g>
    <g clip-path="url(#pc3bedf7abd)">
     <use style="fill:#222222;" x="292.661725" xlink:href="#C9_0_66ca2c523a" y="448.980309"/>
    </g>
    <g clip-path="url(#pc3bedf7abd)">
     <use style="fill:#222222;" x="309.674525" xlink:href="#C9_0_66ca2c523a" y="448.96903"/>
    </g>
    <g clip-path="url(#pc3bedf7abd)">
     <use style="fill:#222222;" x="292.661725" xlink:href="#C9_0_66ca2c523a" y="448.965671"/>
    </g>
    <g clip-path="url(#pc3bedf7abd)">
     <use style="fill:#222222;" x="309.674525" xlink:href="#C9_0_66ca2c523a" y="448.963081"/>
    </g>
    <g clip-path="url(#pc3bedf7abd)">
     <use style="fill:#222222;" x="292.661725" xlink:href="#C9_0_66ca2c523a" y="448.957799"/>
    </g>
    <g clip-path="url(#pc3bedf7abd)">
     <use style="fill:#222222;" x="309.674525" xlink:href="#C9_0_66ca2c523a" y="448.949184"/>
    </g>
    <g clip-path="url(#pc3bedf7abd)">
     <use style="fill:#222222;" x="292.661725" xlink:href="#C9_0_66ca2c523a" y="448.937968"/>
    </g>
   </g>
   <g id="PathCollection_14">
    <defs>
     <path d="M 0 2.5 
C 0.663008 2.5 1.29895 2.236584 1.767767 1.767767 
C 2.236584 1.29895 2.5 0.663008 2.5 0 
C 2.5 -0.663008 2.236584 -1.29895 1.767767 -1.767767 
C 1.29895 -2.236584 0.663008 -2.5 0 -2.5 
C -0.663008 -2.5 -1.29895 -2.236584 -1.767767 -1.767767 
C -2.236584 -1.29895 -2.5 -0.663008 -2.5 0 
C -2.5 0.663008 -2.236584 1.29895 -1.767767 1.767767 
C -1.29895 2.236584 -0.663008 2.5 0 2.5 
z
" id="Ca_0_421af28a0c"/>
    </defs>
    <g clip-path="url(#pc3bedf7abd)">
     <use style="fill:#111111;" x="318.528125" xlink:href="#Ca_0_421af28a0c" y="440.596125"/>
    </g>
    <g clip-path="url(#pc3bedf7abd)">
     <use style="fill:#111111;" x="313.33655" xlink:href="#Ca_0_421af28a0c" y="440.014821"/>
    </g>
    <g clip-path="url(#pc3bedf7abd)">
     <use style="fill:#111111;" x="323.70552" xlink:href="#Ca_0_421af28a0c" y="439.948548"/>
    </g>
    <g clip-path="url(#pc3bedf7abd)">
     <use style="fill:#111111;" x="327.034525" xlink:href="#Ca_0_421af28a0c" y="439.709863"/>
    </g>
    <g clip-path="url(#pc3bedf7abd)">
     <use style="fill:#111111;" x="310.021725" xlink:href="#Ca_0_421af28a0c" y="438.586251"/>
    </g>
    <g clip-path="url(#pc3bedf7abd)">
     <use style="fill:#111111;" x="327.034525" xlink:href="#Ca_0_421af28a0c" y="437.089203"/>
    </g>
    <g clip-path="url(#pc3bedf7abd)">
     <use style="fill:#111111;" x="310.021725" xlink:href="#Ca_0_421af28a0c" y="437.054833"/>
    </g>
    <g clip-path="url(#pc3bedf7abd)">
     <use style="fill:#111111;" x="316.868598" xlink:href="#Ca_0_421af28a0c" y="436.889149"/>
    </g>
    <g clip-path="url(#pc3bedf7abd)">
     <use style="fill:#111111;" x="321.951385" xlink:href="#Ca_0_421af28a0c" y="435.910867"/>
    </g>
    <g clip-path="url(#pc3bedf7abd)">
     <use style="fill:#111111;" x="312.389421" xlink:href="#Ca_0_421af28a0c" y="434.851002"/>
    </g>
   </g>
   <g id="PathCollection_15">
    <defs>
     <path d="M 0 2.5 
C 0.663008 2.5 1.29895 2.236584 1.767767 1.767767 
C 2.236584 1.29895 2.5 0.663008 2.5 0 
C 2.5 -0.663008 2.236584 -1.29895 1.767767 -1.767767 
C 1.29895 -2.236584 0.663008 -2.5 0 -2.5 
C -0.663008 -2.5 -1.29895 -2.236584 -1.767767 -1.767767 
C -2.236584 -1.29895 -2.5 -0.663008 -2.5 0 
C -2.5 0.663008 -2.236584 1.29895 -1.767767 1.767767 
C -1.29895 2.236584 -0.663008 2.5 0 2.5 
z
" id="Cb_0_cc28c91240"/>
    </defs>
    <g clip-path="url(#pc3bedf7abd)">
     <use x="335.888125" xlink:href="#Cb_0_cc28c91240" y="363.962086"/>
    </g>
    <g clip-path="url(#pc3bedf7abd)">
     <use x="335.888125" xlink:href="#Cb_0_cc28c91240" y="356.537942"/>
    </g>
    <g clip-path="url(#pc3bedf7abd)">
     <use x="330.64339" xlink:href="#Cb_0_cc28c91240" y="356.362995"/>
    </g>
    <g clip-path="url(#pc3bedf7abd)">
     <use x="333.996104" xlink:href="#Cb_0_cc28c91240" y="352.893178"/>
    </g>
    <g clip-path="url(#pc3bedf7abd)">
     <use x="335.888125" xlink:href="#Cb_0_cc28c91240" y="346.680073"/>
    </g>
    <g clip-path="url(#pc3bedf7abd)">
     <use x="335.888125" xlink:href="#Cb_0_cc28c91240" y="340.890497"/>
    </g>
    <g clip-path="url(#pc3bedf7abd)">
     <use x="331.061582" xlink:href="#Cb_0_cc28c91240" y="339.35312"/>
    </g>
    <g clip-path="url(#pc3bedf7abd)">
     <use x="337.054614" xlink:href="#Cb_0_cc28c91240" y="337.080844"/>
    </g>
    <g clip-path="url(#pc3bedf7abd)">
     <use x="335.888125" xlink:href="#Cb_0_cc28c91240" y="331.995998"/>
    </g>
    <g clip-path="url(#pc3bedf7abd)">
     <use x="330.659733" xlink:href="#Cb_0_cc28c91240" y="331.641856"/>
    </g>
   </g>
   <g id="PathCollection_16">
    <defs>
     <path d="M 0 2.5 
C 0.663008 2.5 1.29895 2.236584 1.767767 1.767767 
C 2.236584 1.29895 2.5 0.663008 2.5 0 
C 2.5 -0.663008 2.236584 -1.29895 1.767767 -1.767767 
C 1.29895 -2.236584 0.663008 -2.5 0 -2.5 
C -0.663008 -2.5 -1.29895 -2.236584 -1.767767 -1.767767 
C -2.236584 -1.29895 -2.5 -0.663008 -2.5 0 
C -2.5 0.663008 -2.236584 1.29895 -1.767767 1.767767 
C -1.29895 2.236584 -0.663008 2.5 0 2.5 
z
" id="Cc_0_ce58bf7ea2"/>
    </defs>
    <g clip-path="url(#pc3bedf7abd)">
     <use style="fill:#222222;" x="366.268125" xlink:href="#Cc_0_ce58bf7ea2" y="448.848659"/>
    </g>
    <g clip-path="url(#pc3bedf7abd)">
     <use style="fill:#222222;" x="361.018128" xlink:href="#Cc_0_ce58bf7ea2" y="448.844719"/>
    </g>
    <g clip-path="url(#pc3bedf7abd)">
     <use style="fill:#222222;" x="371.518117" xlink:href="#Cc_0_ce58bf7ea2" y="448.841951"/>
    </g>
    <g clip-path="url(#pc3bedf7abd)">
     <use style="fill:#222222;" x="357.761725" xlink:href="#Cc_0_ce58bf7ea2" y="448.835857"/>
    </g>
    <g clip-path="url(#pc3bedf7abd)">
     <use style="fill:#222222;" x="374.774525" xlink:href="#Cc_0_ce58bf7ea2" y="448.834754"/>
    </g>
    <g clip-path="url(#pc3bedf7abd)">
     <use style="fill:#222222;" x="357.761725" xlink:href="#Cc_0_ce58bf7ea2" y="448.833679"/>
    </g>
    <g clip-path="url(#pc3bedf7abd)">
     <use style="fill:#222222;" x="374.774525" xlink:href="#Cc_0_ce58bf7ea2" y="448.83284"/>
    </g>
    <g clip-path="url(#pc3bedf7abd)">
     <use style="fill:#222222;" x="357.761725" xlink:href="#Cc_0_ce58bf7ea2" y="448.830729"/>
    </g>
    <g clip-path="url(#pc3bedf7abd)">
     <use style="fill:#222222;" x="374.774525" xlink:href="#Cc_0_ce58bf7ea2" y="448.829976"/>
    </g>
    <g clip-path="url(#pc3bedf7abd)">
     <use style="fill:#222222;" x="357.761725" xlink:href="#Cc_0_ce58bf7ea2" y="448.815681"/>
    </g>
   </g>
   <g id="PathCollection_17">
    <defs>
     <path d="M 0 2.5 
C 0.663008 2.5 1.29895 2.236584 1.767767 1.767767 
C 2.236584 1.29895 2.5 0.663008 2.5 0 
C 2.5 -0.663008 2.236584 -1.29895 1.767767 -1.767767 
C 1.29895 -2.236584 0.663008 -2.5 0 -2.5 
C -0.663008 -2.5 -1.29895 -2.236584 -1.767767 -1.767767 
C -2.236584 -1.29895 -2.5 -0.663008 -2.5 0 
C -2.5 0.663008 -2.236584 1.29895 -1.767767 1.767767 
C -1.29895 2.236584 -0.663008 2.5 0 2.5 
z
" id="Cd_0_76495e4306"/>
    </defs>
    <g clip-path="url(#pc3bedf7abd)">
     <use style="fill:#111111;" x="383.628125" xlink:href="#Cd_0_76495e4306" y="421.655121"/>
    </g>
    <g clip-path="url(#pc3bedf7abd)">
     <use style="fill:#111111;" x="378.381766" xlink:href="#Cd_0_76495e4306" y="421.509616"/>
    </g>
    <g clip-path="url(#pc3bedf7abd)">
     <use style="fill:#111111;" x="388.854782" xlink:href="#Cd_0_76495e4306" y="421.287072"/>
    </g>
    <g clip-path="url(#pc3bedf7abd)">
     <use style="fill:#111111;" x="375.121725" xlink:href="#Cd_0_76495e4306" y="421.054887"/>
    </g>
    <g clip-path="url(#pc3bedf7abd)">
     <use style="fill:#111111;" x="392.134525" xlink:href="#Cd_0_76495e4306" y="420.603072"/>
    </g>
    <g clip-path="url(#pc3bedf7abd)">
     <use style="fill:#111111;" x="392.134525" xlink:href="#Cd_0_76495e4306" y="420.581838"/>
    </g>
    <g clip-path="url(#pc3bedf7abd)">
     <use style="fill:#111111;" x="375.121725" xlink:href="#Cd_0_76495e4306" y="420.54353"/>
    </g>
    <g clip-path="url(#pc3bedf7abd)">
     <use style="fill:#111111;" x="392.134525" xlink:href="#Cd_0_76495e4306" y="419.9026"/>
    </g>
    <g clip-path="url(#pc3bedf7abd)">
     <use style="fill:#111111;" x="375.121725" xlink:href="#Cd_0_76495e4306" y="419.879552"/>
    </g>
    <g clip-path="url(#pc3bedf7abd)">
     <use style="fill:#111111;" x="392.134525" xlink:href="#Cd_0_76495e4306" y="419.570038"/>
    </g>
   </g>
   <g id="PathCollection_18">
    <defs>
     <path d="M 0 2.5 
C 0.663008 2.5 1.29895 2.236584 1.767767 1.767767 
C 2.236584 1.29895 2.5 0.663008 2.5 0 
C 2.5 -0.663008 2.236584 -1.29895 1.767767 -1.767767 
C 1.29895 -2.236584 0.663008 -2.5 0 -2.5 
C -0.663008 -2.5 -1.29895 -2.236584 -1.767767 -1.767767 
C -2.236584 -1.29895 -2.5 -0.663008 -2.5 0 
C -2.5 0.663008 -2.236584 1.29895 -1.767767 1.767767 
C -1.29895 2.236584 -0.663008 2.5 0 2.5 
z
" id="Ce_0_f0e635edb9"/>
    </defs>
    <g clip-path="url(#pc3bedf7abd)">
     <use x="400.988125" xlink:href="#Ce_0_f0e635edb9" y="233.239748"/>
    </g>
    <g clip-path="url(#pc3bedf7abd)">
     <use x="395.74825" xlink:href="#Ce_0_f0e635edb9" y="232.997199"/>
    </g>
    <g clip-path="url(#pc3bedf7abd)">
     <use x="400.988125" xlink:href="#Ce_0_f0e635edb9" y="228.146944"/>
    </g>
    <g clip-path="url(#pc3bedf7abd)">
     <use x="400.988125" xlink:href="#Ce_0_f0e635edb9" y="224.09712"/>
    </g>
    <g clip-path="url(#pc3bedf7abd)">
     <use x="395.856248" xlink:href="#Ce_0_f0e635edb9" y="223.272932"/>
    </g>
    <g clip-path="url(#pc3bedf7abd)">
     <use x="404.565594" xlink:href="#Ce_0_f0e635edb9" y="221.23739"/>
    </g>
    <g clip-path="url(#pc3bedf7abd)">
     <use x="409.494525" xlink:href="#Ce_0_f0e635edb9" y="220.86481"/>
    </g>
    <g clip-path="url(#pc3bedf7abd)">
     <use x="400.988125" xlink:href="#Ce_0_f0e635edb9" y="215.767667"/>
    </g>
    <g clip-path="url(#pc3bedf7abd)">
     <use x="395.74053" xlink:href="#Ce_0_f0e635edb9" y="215.649407"/>
    </g>
    <g clip-path="url(#pc3bedf7abd)">
     <use x="406.045757" xlink:href="#Ce_0_f0e635edb9" y="214.719657"/>
    </g>
   </g>
   <g id="PathCollection_19">
    <defs>
     <path d="M 0 2.5 
C 0.663008 2.5 1.29895 2.236584 1.767767 1.767767 
C 2.236584 1.29895 2.5 0.663008 2.5 0 
C 2.5 -0.663008 2.236584 -1.29895 1.767767 -1.767767 
C 1.29895 -2.236584 0.663008 -2.5 0 -2.5 
C -0.663008 -2.5 -1.29895 -2.236584 -1.767767 -1.767767 
C -2.236584 -1.29895 -2.5 -0.663008 -2.5 0 
C -2.5 0.663008 -2.236584 1.29895 -1.767767 1.767767 
C -1.29895 2.236584 -0.663008 2.5 0 2.5 
z
" id="Cf_0_ec515edf6e"/>
    </defs>
    <g clip-path="url(#pc3bedf7abd)">
     <use style="fill:#222222;" x="431.368125" xlink:href="#Cf_0_ec515edf6e" y="448.769354"/>
    </g>
    <g clip-path="url(#pc3bedf7abd)">
     <use style="fill:#222222;" x="426.118139" xlink:href="#Cf_0_ec515edf6e" y="448.760245"/>
    </g>
    <g clip-path="url(#pc3bedf7abd)">
     <use style="fill:#222222;" x="436.618109" xlink:href="#Cf_0_ec515edf6e" y="448.759666"/>
    </g>
    <g clip-path="url(#pc3bedf7abd)">
     <use style="fill:#222222;" x="439.874525" xlink:href="#Cf_0_ec515edf6e" y="448.754124"/>
    </g>
    <g clip-path="url(#pc3bedf7abd)">
     <use style="fill:#222222;" x="422.861725" xlink:href="#Cf_0_ec515edf6e" y="448.752732"/>
    </g>
    <g clip-path="url(#pc3bedf7abd)">
     <use style="fill:#222222;" x="422.861725" xlink:href="#Cf_0_ec515edf6e" y="448.748757"/>
    </g>
    <g clip-path="url(#pc3bedf7abd)">
     <use style="fill:#222222;" x="439.874525" xlink:href="#Cf_0_ec515edf6e" y="448.747276"/>
    </g>
    <g clip-path="url(#pc3bedf7abd)">
     <use style="fill:#222222;" x="439.874525" xlink:href="#Cf_0_ec515edf6e" y="448.745399"/>
    </g>
    <g clip-path="url(#pc3bedf7abd)">
     <use style="fill:#222222;" x="422.861725" xlink:href="#Cf_0_ec515edf6e" y="448.738603"/>
    </g>
    <g clip-path="url(#pc3bedf7abd)">
     <use style="fill:#222222;" x="422.861725" xlink:href="#Cf_0_ec515edf6e" y="448.736151"/>
    </g>
   </g>
   <g id="PathCollection_20">
    <defs>
     <path d="M 0 2.5 
C 0.663008 2.5 1.29895 2.236584 1.767767 1.767767 
C 2.236584 1.29895 2.5 0.663008 2.5 0 
C 2.5 -0.663008 2.236584 -1.29895 1.767767 -1.767767 
C 1.29895 -2.236584 0.663008 -2.5 0 -2.5 
C -0.663008 -2.5 -1.29895 -2.236584 -1.767767 -1.767767 
C -2.236584 -1.29895 -2.5 -0.663008 -2.5 0 
C -2.5 0.663008 -2.236584 1.29895 -1.767767 1.767767 
C -1.29895 2.236584 -0.663008 2.5 0 2.5 
z
" id="C10_0_b187dc3dbd"/>
    </defs>
    <g clip-path="url(#pc3bedf7abd)">
     <use style="fill:#111111;" x="448.728125" xlink:href="#C10_0_b187dc3dbd" y="414.940785"/>
    </g>
    <g clip-path="url(#pc3bedf7abd)">
     <use style="fill:#111111;" x="443.623124" xlink:href="#C10_0_b187dc3dbd" y="414.028822"/>
    </g>
    <g clip-path="url(#pc3bedf7abd)">
     <use style="fill:#111111;" x="453.740912" xlink:href="#C10_0_b187dc3dbd" y="413.779546"/>
    </g>
    <g clip-path="url(#pc3bedf7abd)">
     <use style="fill:#111111;" x="457.234525" xlink:href="#C10_0_b187dc3dbd" y="413.522133"/>
    </g>
    <g clip-path="url(#pc3bedf7abd)">
     <use style="fill:#111111;" x="440.221725" xlink:href="#C10_0_b187dc3dbd" y="413.517057"/>
    </g>
    <g clip-path="url(#pc3bedf7abd)">
     <use style="fill:#111111;" x="457.234525" xlink:href="#C10_0_b187dc3dbd" y="413.2938"/>
    </g>
    <g clip-path="url(#pc3bedf7abd)">
     <use style="fill:#111111;" x="440.221725" xlink:href="#C10_0_b187dc3dbd" y="413.290884"/>
    </g>
    <g clip-path="url(#pc3bedf7abd)">
     <use style="fill:#111111;" x="457.234525" xlink:href="#C10_0_b187dc3dbd" y="412.856502"/>
    </g>
    <g clip-path="url(#pc3bedf7abd)">
     <use style="fill:#111111;" x="440.221725" xlink:href="#C10_0_b187dc3dbd" y="412.389991"/>
    </g>
    <g clip-path="url(#pc3bedf7abd)">
     <use style="fill:#111111;" x="457.234525" xlink:href="#C10_0_b187dc3dbd" y="412.313341"/>
    </g>
   </g>
   <g id="PathCollection_21">
    <defs>
     <path d="M 0 2.5 
C 0.663008 2.5 1.29895 2.236584 1.767767 1.767767 
C 2.236584 1.29895 2.5 0.663008 2.5 0 
C 2.5 -0.663008 2.236584 -1.29895 1.767767 -1.767767 
C 1.29895 -2.236584 0.663008 -2.5 0 -2.5 
C -0.663008 -2.5 -1.29895 -2.236584 -1.767767 -1.767767 
C -2.236584 -1.29895 -2.5 -0.663008 -2.5 0 
C -2.5 0.663008 -2.236584 1.29895 -1.767767 1.767767 
C -1.29895 2.236584 -0.663008 2.5 0 2.5 
z
" id="C11_0_3fe4b731de"/>
    </defs>
    <g clip-path="url(#pc3bedf7abd)">
     <use x="466.088125" xlink:href="#C11_0_3fe4b731de" y="200.653871"/>
    </g>
    <g clip-path="url(#pc3bedf7abd)">
     <use x="463.366705" xlink:href="#C11_0_3fe4b731de" y="197.312489"/>
    </g>
    <g clip-path="url(#pc3bedf7abd)">
     <use x="467.511806" xlink:href="#C11_0_3fe4b731de" y="194.914585"/>
    </g>
    <g clip-path="url(#pc3bedf7abd)">
     <use x="462.736868" xlink:href="#C11_0_3fe4b731de" y="193.290398"/>
    </g>
    <g clip-path="url(#pc3bedf7abd)">
     <use x="471.388556" xlink:href="#C11_0_3fe4b731de" y="192.279754"/>
    </g>
    <g clip-path="url(#pc3bedf7abd)">
     <use x="458.666315" xlink:href="#C11_0_3fe4b731de" y="190.822769"/>
    </g>
    <g clip-path="url(#pc3bedf7abd)">
     <use x="466.088125" xlink:href="#C11_0_3fe4b731de" y="187.850988"/>
    </g>
    <g clip-path="url(#pc3bedf7abd)">
     <use x="462.293979" xlink:href="#C11_0_3fe4b731de" y="185.150374"/>
    </g>
    <g clip-path="url(#pc3bedf7abd)">
     <use x="467.302255" xlink:href="#C11_0_3fe4b731de" y="183.978401"/>
    </g>
    <g clip-path="url(#pc3bedf7abd)">
     <use x="472.179545" xlink:href="#C11_0_3fe4b731de" y="182.532457"/>
    </g>
   </g>
   <g id="text_19">
    <!-- IL-2  CONCENTRATION -->
    <g transform="translate(147.108984 25.094531)scale(0.25 -0.25)">
     <use xlink:href="#Arial-BoldMT-73"/>
     <use x="27.783203" xlink:href="#Arial-BoldMT-76"/>
     <use x="88.867188" xlink:href="#Arial-BoldMT-45"/>
     <use x="122.167969" xlink:href="#Arial-BoldMT-50"/>
     <use x="177.783203" xlink:href="#Arial-BoldMT-32"/>
     <use x="205.566406" xlink:href="#Arial-BoldMT-32"/>
     <use x="233.349609" xlink:href="#Arial-BoldMT-67"/>
     <use x="305.566406" xlink:href="#Arial-BoldMT-79"/>
     <use x="383.349609" xlink:href="#Arial-BoldMT-78"/>
     <use x="455.566406" xlink:href="#Arial-BoldMT-67"/>
     <use x="527.783203" xlink:href="#Arial-BoldMT-69"/>
     <use x="594.482422" xlink:href="#Arial-BoldMT-78"/>
     <use x="666.699219" xlink:href="#Arial-BoldMT-84"/>
     <use x="727.783203" xlink:href="#Arial-BoldMT-82"/>
     <use x="800" xlink:href="#Arial-BoldMT-65"/>
     <use x="872.107422" xlink:href="#Arial-BoldMT-84"/>
     <use x="933.191406" xlink:href="#Arial-BoldMT-73"/>
     <use x="960.974609" xlink:href="#Arial-BoldMT-79"/>
     <use x="1038.757812" xlink:href="#Arial-BoldMT-78"/>
    </g>
    <!-- OVER TIME 1, 4, 7 -->
    <defs>
     <path d="M 25.53125 0 
L -0.046875 71.578125 
L 15.625 71.578125 
L 33.734375 18.609375 
L 51.265625 71.578125 
L 66.609375 71.578125 
L 40.96875 0 
z
" id="Arial-BoldMT-86"/>
     <path d="M 7.078125 0 
L 7.078125 71.578125 
L 28.71875 71.578125 
L 41.703125 22.75 
L 54.546875 71.578125 
L 76.21875 71.578125 
L 76.21875 0 
L 62.796875 0 
L 62.796875 56.34375 
L 48.578125 0 
L 34.671875 0 
L 20.515625 56.34375 
L 20.515625 0 
z
" id="Arial-BoldMT-77"/>
     <path d="M 39.359375 0 
L 25.640625 0 
L 25.640625 51.703125 
Q 18.109375 44.671875 7.90625 41.3125 
L 7.90625 53.765625 
Q 13.28125 55.515625 19.578125 60.421875 
Q 25.875 65.328125 28.21875 71.875 
L 39.359375 71.875 
z
" id="Arial-BoldMT-49"/>
     <path d="M 6.84375 13.71875 
L 20.5625 13.71875 
L 20.5625 3.90625 
Q 20.5625 -2.046875 19.53125 -5.484375 
Q 18.5 -8.9375 15.640625 -11.671875 
Q 12.796875 -14.40625 8.40625 -15.96875 
L 5.71875 -10.296875 
Q 9.859375 -8.9375 11.609375 -6.546875 
Q 13.375 -4.15625 13.484375 0 
L 6.84375 0 
z
" id="Arial-BoldMT-44"/>
     <path d="M 31.15625 0 
L 31.15625 14.40625 
L 1.859375 14.40625 
L 1.859375 26.421875 
L 32.90625 71.875 
L 44.4375 71.875 
L 44.4375 26.46875 
L 53.328125 26.46875 
L 53.328125 14.40625 
L 44.4375 14.40625 
L 44.4375 0 
z
M 31.15625 26.46875 
L 31.15625 50.921875 
L 14.703125 26.46875 
z
" id="Arial-BoldMT-52"/>
     <path d="M 4.25 57.859375 
L 4.25 70.609375 
L 51.171875 70.609375 
L 51.171875 60.640625 
Q 45.359375 54.9375 39.34375 44.234375 
Q 33.34375 33.546875 30.1875 21.5 
Q 27.046875 9.46875 27.09375 0 
L 13.875 0 
Q 14.203125 14.84375 19.984375 30.265625 
Q 25.78125 45.703125 35.453125 57.859375 
z
" id="Arial-BoldMT-55"/>
    </defs>
    <g transform="translate(179.005469 51.501562)scale(0.25 -0.25)">
     <use xlink:href="#Arial-BoldMT-79"/>
     <use x="77.783203" xlink:href="#Arial-BoldMT-86"/>
     <use x="144.482422" xlink:href="#Arial-BoldMT-69"/>
     <use x="211.181641" xlink:href="#Arial-BoldMT-82"/>
     <use x="283.398438" xlink:href="#Arial-BoldMT-32"/>
     <use x="311.181641" xlink:href="#Arial-BoldMT-84"/>
     <use x="372.265625" xlink:href="#Arial-BoldMT-73"/>
     <use x="400.048828" xlink:href="#Arial-BoldMT-77"/>
     <use x="483.349609" xlink:href="#Arial-BoldMT-69"/>
     <use x="550.048828" xlink:href="#Arial-BoldMT-32"/>
     <use x="577.832031" xlink:href="#Arial-BoldMT-49"/>
     <use x="633.447266" xlink:href="#Arial-BoldMT-44"/>
     <use x="661.230469" xlink:href="#Arial-BoldMT-32"/>
     <use x="689.013672" xlink:href="#Arial-BoldMT-52"/>
     <use x="744.628906" xlink:href="#Arial-BoldMT-44"/>
     <use x="772.412109" xlink:href="#Arial-BoldMT-32"/>
     <use x="800.195312" xlink:href="#Arial-BoldMT-55"/>
    </g>
   </g>
   <g id="legend_1">
    <g id="PathCollection_22">
     <defs>
      <path d="M 0 3.872983 
C 1.027127 3.872983 2.012324 3.464901 2.738613 2.738613 
C 3.464901 2.012324 3.872983 1.027127 3.872983 0 
C 3.872983 -1.027127 3.464901 -2.012324 2.738613 -2.738613 
C 2.012324 -3.464901 1.027127 -3.872983 0 -3.872983 
C -1.027127 -3.872983 -2.012324 -3.464901 -2.738613 -2.738613 
C -3.464901 -2.012324 -3.872983 -1.027127 -3.872983 0 
C -3.872983 1.027127 -3.464901 2.012324 -2.738613 2.738613 
C -2.012324 3.464901 -1.027127 3.872983 0 3.872983 
z
" id="m0f7a8c5571" style="stroke:#222222;"/>
     </defs>
     <g>
      <use style="fill:#222222;stroke:#222222;" x="447.915625" xlink:href="#m0f7a8c5571" y="82.475"/>
     </g>
    </g>
    <g id="text_20">
     <!-- 1 -->
     <g transform="translate(465.915625 85.1)scale(0.1 -0.1)">
      <use xlink:href="#DejaVuSans-49"/>
     </g>
    </g>
    <g id="PathCollection_23">
     <defs>
      <path d="M 0 3.872983 
C 1.027127 3.872983 2.012324 3.464901 2.738613 2.738613 
C 3.464901 2.012324 3.872983 1.027127 3.872983 0 
C 3.872983 -1.027127 3.464901 -2.012324 2.738613 -2.738613 
C 2.012324 -3.464901 1.027127 -3.872983 0 -3.872983 
C -1.027127 -3.872983 -2.012324 -3.464901 -2.738613 -2.738613 
C -3.464901 -2.012324 -3.872983 -1.027127 -3.872983 0 
C -3.872983 1.027127 -3.464901 2.012324 -2.738613 2.738613 
C -2.012324 3.464901 -1.027127 3.872983 0 3.872983 
z
" id="mfcf2d99545" style="stroke:#111111;"/>
     </defs>
     <g>
      <use style="fill:#111111;stroke:#111111;" x="447.915625" xlink:href="#mfcf2d99545" y="97.153125"/>
     </g>
    </g>
    <g id="text_21">
     <!-- 4 -->
     <g transform="translate(465.915625 99.778125)scale(0.1 -0.1)">
      <use xlink:href="#DejaVuSans-52"/>
     </g>
    </g>
    <g id="PathCollection_24">
     <defs>
      <path d="M 0 3.872983 
C 1.027127 3.872983 2.012324 3.464901 2.738613 2.738613 
C 3.464901 2.012324 3.872983 1.027127 3.872983 0 
C 3.872983 -1.027127 3.464901 -2.012324 2.738613 -2.738613 
C 2.012324 -3.464901 1.027127 -3.872983 0 -3.872983 
C -1.027127 -3.872983 -2.012324 -3.464901 -2.738613 -2.738613 
C -3.464901 -2.012324 -3.872983 -1.027127 -3.872983 0 
C -3.872983 1.027127 -3.464901 2.012324 -2.738613 2.738613 
C -2.012324 3.464901 -1.027127 3.872983 0 3.872983 
z
" id="mde3a72a429" style="stroke:#000000;"/>
     </defs>
     <g>
      <use style="stroke:#000000;" x="447.915625" xlink:href="#mde3a72a429" y="111.83125"/>
     </g>
    </g>
    <g id="text_22">
     <!-- 7 -->
     <g transform="translate(465.915625 114.45625)scale(0.1 -0.1)">
      <use xlink:href="#DejaVuSans-55"/>
     </g>
    </g>
    <g id="patch_25">
     <path d="M 437.915625 129.134375 
L 457.915625 129.134375 
L 457.915625 122.134375 
L 437.915625 122.134375 
z
" style="fill:#d9d9d9;"/>
    </g>
    <g id="text_23">
     <!-- 1 -->
     <g transform="translate(465.915625 129.134375)scale(0.1 -0.1)">
      <use xlink:href="#DejaVuSans-49"/>
     </g>
    </g>
    <g id="patch_26">
     <path d="M 437.915625 143.8125 
L 457.915625 143.8125 
L 457.915625 136.8125 
L 437.915625 136.8125 
z
" style="fill:#959595;"/>
    </g>
    <g id="text_24">
     <!-- 4 -->
     <g transform="translate(465.915625 143.8125)scale(0.1 -0.1)">
      <use xlink:href="#DejaVuSans-52"/>
     </g>
    </g>
    <g id="patch_27">
     <path d="M 437.915625 158.490625 
L 457.915625 158.490625 
L 457.915625 151.490625 
L 437.915625 151.490625 
z
" style="fill:#515151;"/>
    </g>
    <g id="text_25">
     <!-- 7 -->
     <g transform="translate(465.915625 158.490625)scale(0.1 -0.1)">
      <use xlink:href="#DejaVuSans-55"/>
     </g>
    </g>
   </g>
  </g>
 </g>
 <defs>
  <clipPath id="pc3bedf7abd">
   <rect height="380.52" width="390.6" x="90.678125" y="68.501562"/>
  </clipPath>
 </defs>
</svg>
