<?xml version="1.0" encoding="utf-8" standalone="no"?>
<!DOCTYPE svg PUBLIC "-//W3C//DTD SVG 1.1//EN"
  "http://www.w3.org/Graphics/SVG/1.1/DTD/svg11.dtd">
<!-- Created with matplotlib (https://matplotlib.org/) -->
<svg height="514.024687pt" version="1.1" viewBox="0 0 553.580625 514.024687" width="553.580625pt" xmlns="http://www.w3.org/2000/svg" xmlns:xlink="http://www.w3.org/1999/xlink">
 <defs>
  <style type="text/css">
*{stroke-linecap:butt;stroke-linejoin:round;}
  </style>
 </defs>
 <g id="figure_1">
  <g id="patch_1">
   <path d="M 0 514.024687 
L 553.580625 514.024687 
L 553.580625 0 
L 0 0 
z
" style="fill:#ffffff;"/>
  </g>
  <g id="axes_1">
   <g id="patch_2">
    <path d="M 82.968125 442.021562 
L 473.568125 442.021562 
L 473.568125 61.501562 
L 82.968125 61.501562 
z
" style="fill:#ffffff;"/>
   </g>
   <g id="matplotlib.axis_1">
    <g id="xtick_1">
     <g id="line2d_1">
      <defs>
       <path d="M 0 0 
L 0 3.5 
" id="md1c3317659" style="stroke:#000000;stroke-width:0.8;"/>
      </defs>
      <g>
       <use style="stroke:#000000;stroke-width:0.8;" x="82.968125" xlink:href="#md1c3317659" y="442.021562"/>
      </g>
     </g>
     <g id="text_1">
      <!-- 0 -->
      <defs>
       <path d="M 31.78125 66.40625 
Q 24.171875 66.40625 20.328125 58.90625 
Q 16.5 51.421875 16.5 36.375 
Q 16.5 21.390625 20.328125 13.890625 
Q 24.171875 6.390625 31.78125 6.390625 
Q 39.453125 6.390625 43.28125 13.890625 
Q 47.125 21.390625 47.125 36.375 
Q 47.125 51.421875 43.28125 58.90625 
Q 39.453125 66.40625 31.78125 66.40625 
z
M 31.78125 74.21875 
Q 44.046875 74.21875 50.515625 64.515625 
Q 56.984375 54.828125 56.984375 36.375 
Q 56.984375 17.96875 50.515625 8.265625 
Q 44.046875 -1.421875 31.78125 -1.421875 
Q 19.53125 -1.421875 13.0625 8.265625 
Q 6.59375 17.96875 6.59375 36.375 
Q 6.59375 54.828125 13.0625 64.515625 
Q 19.53125 74.21875 31.78125 74.21875 
z
" id="DejaVuSans-48"/>
      </defs>
      <g transform="translate(73.424375 471.816875)scale(0.3 -0.3)">
       <use xlink:href="#DejaVuSans-48"/>
      </g>
     </g>
    </g>
    <g id="xtick_2">
     <g id="line2d_2">
      <g>
       <use style="stroke:#000000;stroke-width:0.8;" x="138.768125" xlink:href="#md1c3317659" y="442.021562"/>
      </g>
     </g>
     <g id="text_2">
      <!-- 1 -->
      <defs>
       <path d="M 12.40625 8.296875 
L 28.515625 8.296875 
L 28.515625 63.921875 
L 10.984375 60.40625 
L 10.984375 69.390625 
L 28.421875 72.90625 
L 38.28125 72.90625 
L 38.28125 8.296875 
L 54.390625 8.296875 
L 54.390625 0 
L 12.40625 0 
z
" id="DejaVuSans-49"/>
      </defs>
      <g transform="translate(129.224375 471.816875)scale(0.3 -0.3)">
       <use xlink:href="#DejaVuSans-49"/>
      </g>
     </g>
    </g>
    <g id="xtick_3">
     <g id="line2d_3">
      <g>
       <use style="stroke:#000000;stroke-width:0.8;" x="194.568125" xlink:href="#md1c3317659" y="442.021562"/>
      </g>
     </g>
     <g id="text_3">
      <!-- 2 -->
      <defs>
       <path d="M 19.1875 8.296875 
L 53.609375 8.296875 
L 53.609375 0 
L 7.328125 0 
L 7.328125 8.296875 
Q 12.9375 14.109375 22.625 23.890625 
Q 32.328125 33.6875 34.8125 36.53125 
Q 39.546875 41.84375 41.421875 45.53125 
Q 43.3125 49.21875 43.3125 52.78125 
Q 43.3125 58.59375 39.234375 62.25 
Q 35.15625 65.921875 28.609375 65.921875 
Q 23.96875 65.921875 18.8125 64.3125 
Q 13.671875 62.703125 7.8125 59.421875 
L 7.8125 69.390625 
Q 13.765625 71.78125 18.9375 73 
Q 24.125 74.21875 28.421875 74.21875 
Q 39.75 74.21875 46.484375 68.546875 
Q 53.21875 62.890625 53.21875 53.421875 
Q 53.21875 48.921875 51.53125 44.890625 
Q 49.859375 40.875 45.40625 35.40625 
Q 44.1875 33.984375 37.640625 27.21875 
Q 31.109375 20.453125 19.1875 8.296875 
z
" id="DejaVuSans-50"/>
      </defs>
      <g transform="translate(185.024375 471.816875)scale(0.3 -0.3)">
       <use xlink:href="#DejaVuSans-50"/>
      </g>
     </g>
    </g>
    <g id="xtick_4">
     <g id="line2d_4">
      <g>
       <use style="stroke:#000000;stroke-width:0.8;" x="250.368125" xlink:href="#md1c3317659" y="442.021562"/>
      </g>
     </g>
     <g id="text_4">
      <!-- 3 -->
      <defs>
       <path d="M 40.578125 39.3125 
Q 47.65625 37.796875 51.625 33 
Q 55.609375 28.21875 55.609375 21.1875 
Q 55.609375 10.40625 48.1875 4.484375 
Q 40.765625 -1.421875 27.09375 -1.421875 
Q 22.515625 -1.421875 17.65625 -0.515625 
Q 12.796875 0.390625 7.625 2.203125 
L 7.625 11.71875 
Q 11.71875 9.328125 16.59375 8.109375 
Q 21.484375 6.890625 26.8125 6.890625 
Q 36.078125 6.890625 40.9375 10.546875 
Q 45.796875 14.203125 45.796875 21.1875 
Q 45.796875 27.640625 41.28125 31.265625 
Q 36.765625 34.90625 28.71875 34.90625 
L 20.21875 34.90625 
L 20.21875 43.015625 
L 29.109375 43.015625 
Q 36.375 43.015625 40.234375 45.921875 
Q 44.09375 48.828125 44.09375 54.296875 
Q 44.09375 59.90625 40.109375 62.90625 
Q 36.140625 65.921875 28.71875 65.921875 
Q 24.65625 65.921875 20.015625 65.03125 
Q 15.375 64.15625 9.8125 62.3125 
L 9.8125 71.09375 
Q 15.4375 72.65625 20.34375 73.4375 
Q 25.25 74.21875 29.59375 74.21875 
Q 40.828125 74.21875 47.359375 69.109375 
Q 53.90625 64.015625 53.90625 55.328125 
Q 53.90625 49.265625 50.4375 45.09375 
Q 46.96875 40.921875 40.578125 39.3125 
z
" id="DejaVuSans-51"/>
      </defs>
      <g transform="translate(240.824375 471.816875)scale(0.3 -0.3)">
       <use xlink:href="#DejaVuSans-51"/>
      </g>
     </g>
    </g>
    <g id="xtick_5">
     <g id="line2d_5">
      <g>
       <use style="stroke:#000000;stroke-width:0.8;" x="306.168125" xlink:href="#md1c3317659" y="442.021562"/>
      </g>
     </g>
     <g id="text_5">
      <!-- 4 -->
      <defs>
       <path d="M 37.796875 64.3125 
L 12.890625 25.390625 
L 37.796875 25.390625 
z
M 35.203125 72.90625 
L 47.609375 72.90625 
L 47.609375 25.390625 
L 58.015625 25.390625 
L 58.015625 17.1875 
L 47.609375 17.1875 
L 47.609375 0 
L 37.796875 0 
L 37.796875 17.1875 
L 4.890625 17.1875 
L 4.890625 26.703125 
z
" id="DejaVuSans-52"/>
      </defs>
      <g transform="translate(296.624375 471.816875)scale(0.3 -0.3)">
       <use xlink:href="#DejaVuSans-52"/>
      </g>
     </g>
    </g>
    <g id="xtick_6">
     <g id="line2d_6">
      <g>
       <use style="stroke:#000000;stroke-width:0.8;" x="361.968125" xlink:href="#md1c3317659" y="442.021562"/>
      </g>
     </g>
     <g id="text_6">
      <!-- 5 -->
      <defs>
       <path d="M 10.796875 72.90625 
L 49.515625 72.90625 
L 49.515625 64.59375 
L 19.828125 64.59375 
L 19.828125 46.734375 
Q 21.96875 47.46875 24.109375 47.828125 
Q 26.265625 48.1875 28.421875 48.1875 
Q 40.625 48.1875 47.75 41.5 
Q 54.890625 34.8125 54.890625 23.390625 
Q 54.890625 11.625 47.5625 5.09375 
Q 40.234375 -1.421875 26.90625 -1.421875 
Q 22.3125 -1.421875 17.546875 -0.640625 
Q 12.796875 0.140625 7.71875 1.703125 
L 7.71875 11.625 
Q 12.109375 9.234375 16.796875 8.0625 
Q 21.484375 6.890625 26.703125 6.890625 
Q 35.15625 6.890625 40.078125 11.328125 
Q 45.015625 15.765625 45.015625 23.390625 
Q 45.015625 31 40.078125 35.4375 
Q 35.15625 39.890625 26.703125 39.890625 
Q 22.75 39.890625 18.8125 39.015625 
Q 14.890625 38.140625 10.796875 36.28125 
z
" id="DejaVuSans-53"/>
      </defs>
      <g transform="translate(352.424375 471.816875)scale(0.3 -0.3)">
       <use xlink:href="#DejaVuSans-53"/>
      </g>
     </g>
    </g>
    <g id="xtick_7">
     <g id="line2d_7">
      <g>
       <use style="stroke:#000000;stroke-width:0.8;" x="417.768125" xlink:href="#md1c3317659" y="442.021562"/>
      </g>
     </g>
     <g id="text_7">
      <!-- 6 -->
      <defs>
       <path d="M 33.015625 40.375 
Q 26.375 40.375 22.484375 35.828125 
Q 18.609375 31.296875 18.609375 23.390625 
Q 18.609375 15.53125 22.484375 10.953125 
Q 26.375 6.390625 33.015625 6.390625 
Q 39.65625 6.390625 43.53125 10.953125 
Q 47.40625 15.53125 47.40625 23.390625 
Q 47.40625 31.296875 43.53125 35.828125 
Q 39.65625 40.375 33.015625 40.375 
z
M 52.59375 71.296875 
L 52.59375 62.3125 
Q 48.875 64.0625 45.09375 64.984375 
Q 41.3125 65.921875 37.59375 65.921875 
Q 27.828125 65.921875 22.671875 59.328125 
Q 17.53125 52.734375 16.796875 39.40625 
Q 19.671875 43.65625 24.015625 45.921875 
Q 28.375 48.1875 33.59375 48.1875 
Q 44.578125 48.1875 50.953125 41.515625 
Q 57.328125 34.859375 57.328125 23.390625 
Q 57.328125 12.15625 50.6875 5.359375 
Q 44.046875 -1.421875 33.015625 -1.421875 
Q 20.359375 -1.421875 13.671875 8.265625 
Q 6.984375 17.96875 6.984375 36.375 
Q 6.984375 53.65625 15.1875 63.9375 
Q 23.390625 74.21875 37.203125 74.21875 
Q 40.921875 74.21875 44.703125 73.484375 
Q 48.484375 72.75 52.59375 71.296875 
z
" id="DejaVuSans-54"/>
      </defs>
      <g transform="translate(408.224375 471.816875)scale(0.3 -0.3)">
       <use xlink:href="#DejaVuSans-54"/>
      </g>
     </g>
    </g>
    <g id="xtick_8">
     <g id="line2d_8">
      <g>
       <use style="stroke:#000000;stroke-width:0.8;" x="473.568125" xlink:href="#md1c3317659" y="442.021562"/>
      </g>
     </g>
     <g id="text_8">
      <!-- 7 -->
      <defs>
       <path d="M 8.203125 72.90625 
L 55.078125 72.90625 
L 55.078125 68.703125 
L 28.609375 0 
L 18.3125 0 
L 43.21875 64.59375 
L 8.203125 64.59375 
z
" id="DejaVuSans-55"/>
      </defs>
      <g transform="translate(464.024375 471.816875)scale(0.3 -0.3)">
       <use xlink:href="#DejaVuSans-55"/>
      </g>
     </g>
    </g>
    <g id="text_9">
     <!-- TIME (DAYS) -->
     <defs>
      <path d="M 23.390625 0 
L 23.390625 59.46875 
L 2.15625 59.46875 
L 2.15625 71.578125 
L 59.03125 71.578125 
L 59.03125 59.46875 
L 37.84375 59.46875 
L 37.84375 0 
z
" id="Arial-BoldMT-84"/>
      <path d="M 6.84375 0 
L 6.84375 71.578125 
L 21.296875 71.578125 
L 21.296875 0 
z
" id="Arial-BoldMT-73"/>
      <path d="M 7.078125 0 
L 7.078125 71.578125 
L 28.71875 71.578125 
L 41.703125 22.75 
L 54.546875 71.578125 
L 76.21875 71.578125 
L 76.21875 0 
L 62.796875 0 
L 62.796875 56.34375 
L 48.578125 0 
L 34.671875 0 
L 20.515625 56.34375 
L 20.515625 0 
z
" id="Arial-BoldMT-77"/>
      <path d="M 7.28125 0 
L 7.28125 71.578125 
L 60.359375 71.578125 
L 60.359375 59.46875 
L 21.734375 59.46875 
L 21.734375 43.609375 
L 57.671875 43.609375 
L 57.671875 31.546875 
L 21.734375 31.546875 
L 21.734375 12.0625 
L 61.71875 12.0625 
L 61.71875 0 
z
" id="Arial-BoldMT-69"/>
      <path id="Arial-BoldMT-32"/>
      <path d="M 29.9375 -21.046875 
L 20.515625 -21.046875 
Q 13.03125 -9.765625 9.125 2.390625 
Q 5.21875 14.546875 5.21875 25.921875 
Q 5.21875 40.046875 10.0625 52.640625 
Q 14.265625 63.578125 20.703125 72.796875 
L 30.078125 72.796875 
Q 23.390625 58.015625 20.875 47.625 
Q 18.359375 37.25 18.359375 25.640625 
Q 18.359375 17.625 19.84375 9.21875 
Q 21.34375 0.828125 23.921875 -6.734375 
Q 25.640625 -11.71875 29.9375 -21.046875 
z
" id="Arial-BoldMT-40"/>
      <path d="M 7.234375 71.578125 
L 33.640625 71.578125 
Q 42.578125 71.578125 47.265625 70.21875 
Q 53.5625 68.359375 58.046875 63.625 
Q 62.546875 58.890625 64.890625 52.03125 
Q 67.234375 45.171875 67.234375 35.109375 
Q 67.234375 26.265625 65.046875 19.875 
Q 62.359375 12.0625 57.375 7.234375 
Q 53.609375 3.5625 47.21875 1.515625 
Q 42.4375 0 34.421875 0 
L 7.234375 0 
z
M 21.6875 59.46875 
L 21.6875 12.0625 
L 32.46875 12.0625 
Q 38.53125 12.0625 41.21875 12.75 
Q 44.734375 13.625 47.046875 15.71875 
Q 49.359375 17.828125 50.828125 22.625 
Q 52.296875 27.4375 52.296875 35.75 
Q 52.296875 44.046875 50.828125 48.484375 
Q 49.359375 52.9375 46.71875 55.421875 
Q 44.09375 57.90625 40.046875 58.796875 
Q 37.015625 59.46875 28.171875 59.46875 
z
" id="Arial-BoldMT-68"/>
      <path d="M 71.828125 0 
L 56.109375 0 
L 49.859375 16.265625 
L 21.234375 16.265625 
L 15.328125 0 
L 0 0 
L 27.875 71.578125 
L 43.171875 71.578125 
z
M 45.21875 28.328125 
L 35.359375 54.890625 
L 25.6875 28.328125 
z
" id="Arial-BoldMT-65"/>
      <path d="M 26.078125 0 
L 26.078125 30.125 
L -0.140625 71.578125 
L 16.796875 71.578125 
L 33.640625 43.265625 
L 50.140625 71.578125 
L 66.796875 71.578125 
L 40.484375 30.03125 
L 40.484375 0 
z
" id="Arial-BoldMT-89"/>
      <path d="M 3.609375 23.296875 
L 17.671875 24.65625 
Q 18.953125 17.578125 22.828125 14.25 
Q 26.703125 10.9375 33.296875 10.9375 
Q 40.28125 10.9375 43.8125 13.890625 
Q 47.359375 16.84375 47.359375 20.796875 
Q 47.359375 23.34375 45.875 25.125 
Q 44.390625 26.90625 40.671875 28.21875 
Q 38.140625 29.109375 29.109375 31.34375 
Q 17.484375 34.234375 12.796875 38.421875 
Q 6.203125 44.34375 6.203125 52.828125 
Q 6.203125 58.296875 9.296875 63.0625 
Q 12.40625 67.828125 18.234375 70.3125 
Q 24.078125 72.796875 32.328125 72.796875 
Q 45.796875 72.796875 52.609375 66.890625 
Q 59.421875 60.984375 59.765625 51.125 
L 45.3125 50.484375 
Q 44.390625 56 41.328125 58.421875 
Q 38.28125 60.84375 32.171875 60.84375 
Q 25.875 60.84375 22.3125 58.25 
Q 20.015625 56.59375 20.015625 53.8125 
Q 20.015625 51.265625 22.171875 49.46875 
Q 24.90625 47.171875 35.453125 44.671875 
Q 46 42.1875 51.046875 39.515625 
Q 56.109375 36.859375 58.953125 32.25 
Q 61.8125 27.640625 61.8125 20.84375 
Q 61.8125 14.703125 58.390625 9.328125 
Q 54.984375 3.953125 48.734375 1.34375 
Q 42.484375 -1.265625 33.15625 -1.265625 
Q 19.578125 -1.265625 12.296875 5 
Q 5.03125 11.28125 3.609375 23.296875 
z
" id="Arial-BoldMT-83"/>
      <path d="M 3.375 -21.046875 
Q 7.421875 -12.359375 9.078125 -7.71875 
Q 10.75 -3.078125 12.15625 2.96875 
Q 13.578125 9.03125 14.25 14.46875 
Q 14.9375 19.921875 14.9375 25.640625 
Q 14.9375 37.25 12.453125 47.625 
Q 9.96875 58.015625 3.265625 72.796875 
L 12.59375 72.796875 
Q 19.96875 62.3125 24.046875 50.53125 
Q 28.125 38.765625 28.125 26.65625 
Q 28.125 16.453125 24.90625 4.78125 
Q 21.234375 -8.296875 12.84375 -21.046875 
z
" id="Arial-BoldMT-41"/>
     </defs>
     <g transform="translate(217.174375 502.615312)scale(0.2 -0.2)">
      <use xlink:href="#Arial-BoldMT-84"/>
      <use x="61.083984" xlink:href="#Arial-BoldMT-73"/>
      <use x="88.867188" xlink:href="#Arial-BoldMT-77"/>
      <use x="172.167969" xlink:href="#Arial-BoldMT-69"/>
      <use x="238.867188" xlink:href="#Arial-BoldMT-32"/>
      <use x="266.650391" xlink:href="#Arial-BoldMT-40"/>
      <use x="299.951172" xlink:href="#Arial-BoldMT-68"/>
      <use x="372.167969" xlink:href="#Arial-BoldMT-65"/>
      <use x="444.244141" xlink:href="#Arial-BoldMT-89"/>
      <use x="510.943359" xlink:href="#Arial-BoldMT-83"/>
      <use x="577.642578" xlink:href="#Arial-BoldMT-41"/>
     </g>
    </g>
   </g>
   <g id="matplotlib.axis_2">
    <g id="ytick_1">
     <g id="line2d_9">
      <defs>
       <path d="M 0 0 
L -3.5 0 
" id="m86275a8e94" style="stroke:#000000;stroke-width:0.8;"/>
      </defs>
      <g>
       <use style="stroke:#000000;stroke-width:0.8;" x="82.968125" xlink:href="#m86275a8e94" y="442.021562"/>
      </g>
     </g>
     <g id="text_10">
      <!-- 0 -->
      <g transform="translate(56.880625 453.419219)scale(0.3 -0.3)">
       <use xlink:href="#DejaVuSans-48"/>
      </g>
     </g>
    </g>
    <g id="ytick_2">
     <g id="line2d_10">
      <g>
       <use style="stroke:#000000;stroke-width:0.8;" x="82.968125" xlink:href="#m86275a8e94" y="365.917562"/>
      </g>
     </g>
     <g id="text_11">
      <!-- 1 -->
      <g transform="translate(56.880625 377.315219)scale(0.3 -0.3)">
       <use xlink:href="#DejaVuSans-49"/>
      </g>
     </g>
    </g>
    <g id="ytick_3">
     <g id="line2d_11">
      <g>
       <use style="stroke:#000000;stroke-width:0.8;" x="82.968125" xlink:href="#m86275a8e94" y="289.813562"/>
      </g>
     </g>
     <g id="text_12">
      <!-- 2 -->
      <g transform="translate(56.880625 301.211219)scale(0.3 -0.3)">
       <use xlink:href="#DejaVuSans-50"/>
      </g>
     </g>
    </g>
    <g id="ytick_4">
     <g id="line2d_12">
      <g>
       <use style="stroke:#000000;stroke-width:0.8;" x="82.968125" xlink:href="#m86275a8e94" y="213.709562"/>
      </g>
     </g>
     <g id="text_13">
      <!-- 3 -->
      <g transform="translate(56.880625 225.107219)scale(0.3 -0.3)">
       <use xlink:href="#DejaVuSans-51"/>
      </g>
     </g>
    </g>
    <g id="ytick_5">
     <g id="line2d_13">
      <g>
       <use style="stroke:#000000;stroke-width:0.8;" x="82.968125" xlink:href="#m86275a8e94" y="137.605562"/>
      </g>
     </g>
     <g id="text_14">
      <!-- 4 -->
      <g transform="translate(56.880625 149.003219)scale(0.3 -0.3)">
       <use xlink:href="#DejaVuSans-52"/>
      </g>
     </g>
    </g>
    <g id="ytick_6">
     <g id="line2d_14">
      <g>
       <use style="stroke:#000000;stroke-width:0.8;" x="82.968125" xlink:href="#m86275a8e94" y="61.501562"/>
      </g>
     </g>
     <g id="text_15">
      <!-- 5 -->
      <g transform="translate(56.880625 72.899219)scale(0.3 -0.3)">
       <use xlink:href="#DejaVuSans-53"/>
      </g>
     </g>
    </g>
    <g id="text_16">
     <!-- GLUCOSE CONCENTRATION -->
     <defs>
      <path d="M 40.578125 26.3125 
L 40.578125 38.375 
L 71.734375 38.375 
L 71.734375 9.859375 
Q 67.1875 5.46875 58.5625 2.125 
Q 49.953125 -1.21875 41.109375 -1.21875 
Q 29.890625 -1.21875 21.53125 3.484375 
Q 13.1875 8.203125 8.984375 16.96875 
Q 4.78125 25.734375 4.78125 36.03125 
Q 4.78125 47.21875 9.46875 55.90625 
Q 14.15625 64.59375 23.1875 69.234375 
Q 30.078125 72.796875 40.328125 72.796875 
Q 53.65625 72.796875 61.15625 67.203125 
Q 68.65625 61.625 70.796875 51.765625 
L 56.453125 49.078125 
Q 54.9375 54.34375 50.75 57.390625 
Q 46.578125 60.453125 40.328125 60.453125 
Q 30.859375 60.453125 25.265625 54.4375 
Q 19.671875 48.4375 19.671875 36.625 
Q 19.671875 23.875 25.328125 17.5 
Q 31 11.140625 40.1875 11.140625 
Q 44.734375 11.140625 49.296875 12.921875 
Q 53.859375 14.703125 57.125 17.234375 
L 57.125 26.3125 
z
" id="Arial-BoldMT-71"/>
      <path d="M 7.671875 0 
L 7.671875 71 
L 22.125 71 
L 22.125 12.0625 
L 58.0625 12.0625 
L 58.0625 0 
z
" id="Arial-BoldMT-76"/>
      <path d="M 7.171875 71.578125 
L 21.625 71.578125 
L 21.625 32.8125 
Q 21.625 23.578125 22.171875 20.84375 
Q 23.09375 16.453125 26.578125 13.796875 
Q 30.078125 11.140625 36.140625 11.140625 
Q 42.28125 11.140625 45.40625 13.640625 
Q 48.53125 16.15625 49.171875 19.8125 
Q 49.8125 23.484375 49.8125 31.984375 
L 49.8125 71.578125 
L 64.265625 71.578125 
L 64.265625 33.984375 
Q 64.265625 21.09375 63.09375 15.765625 
Q 61.921875 10.453125 58.765625 6.78125 
Q 55.609375 3.125 50.328125 0.953125 
Q 45.0625 -1.21875 36.578125 -1.21875 
Q 26.3125 -1.21875 21.015625 1.140625 
Q 15.71875 3.515625 12.640625 7.296875 
Q 9.578125 11.078125 8.59375 15.234375 
Q 7.171875 21.390625 7.171875 33.40625 
z
" id="Arial-BoldMT-85"/>
      <path d="M 53.078125 26.3125 
L 67.09375 21.875 
Q 63.875 10.15625 56.375 4.46875 
Q 48.875 -1.21875 37.359375 -1.21875 
Q 23.09375 -1.21875 13.90625 8.515625 
Q 4.734375 18.265625 4.734375 35.15625 
Q 4.734375 53.03125 13.953125 62.90625 
Q 23.1875 72.796875 38.234375 72.796875 
Q 51.375 72.796875 59.578125 65.046875 
Q 64.453125 60.453125 66.890625 51.859375 
L 52.59375 48.4375 
Q 51.3125 54 47.28125 57.21875 
Q 43.265625 60.453125 37.5 60.453125 
Q 29.546875 60.453125 24.578125 54.734375 
Q 19.625 49.03125 19.625 36.234375 
Q 19.625 22.65625 24.5 16.890625 
Q 29.390625 11.140625 37.203125 11.140625 
Q 42.96875 11.140625 47.109375 14.796875 
Q 51.265625 18.453125 53.078125 26.3125 
z
" id="Arial-BoldMT-67"/>
      <path d="M 4.34375 35.359375 
Q 4.34375 46.296875 7.625 53.71875 
Q 10.0625 59.1875 14.28125 63.53125 
Q 18.5 67.875 23.53125 69.96875 
Q 30.21875 72.796875 38.96875 72.796875 
Q 54.78125 72.796875 64.28125 62.984375 
Q 73.78125 53.171875 73.78125 35.6875 
Q 73.78125 18.359375 64.359375 8.5625 
Q 54.9375 -1.21875 39.15625 -1.21875 
Q 23.1875 -1.21875 13.765625 8.515625 
Q 4.34375 18.265625 4.34375 35.359375 
z
M 19.234375 35.84375 
Q 19.234375 23.6875 24.84375 17.40625 
Q 30.46875 11.140625 39.109375 11.140625 
Q 47.75 11.140625 53.296875 17.359375 
Q 58.84375 23.578125 58.84375 36.03125 
Q 58.84375 48.34375 53.4375 54.390625 
Q 48.046875 60.453125 39.109375 60.453125 
Q 30.171875 60.453125 24.703125 54.3125 
Q 19.234375 48.1875 19.234375 35.84375 
z
" id="Arial-BoldMT-79"/>
      <path d="M 7.421875 0 
L 7.421875 71.578125 
L 21.484375 71.578125 
L 50.78125 23.78125 
L 50.78125 71.578125 
L 64.203125 71.578125 
L 64.203125 0 
L 49.703125 0 
L 20.84375 46.6875 
L 20.84375 0 
z
" id="Arial-BoldMT-78"/>
      <path d="M 7.328125 0 
L 7.328125 71.578125 
L 37.75 71.578125 
Q 49.21875 71.578125 54.421875 69.640625 
Q 59.625 67.71875 62.75 62.78125 
Q 65.875 57.859375 65.875 51.515625 
Q 65.875 43.453125 61.125 38.203125 
Q 56.390625 32.953125 46.96875 31.59375 
Q 51.65625 28.859375 54.703125 25.578125 
Q 57.765625 22.3125 62.9375 13.96875 
L 71.6875 0 
L 54.390625 0 
L 43.953125 15.578125 
Q 38.375 23.921875 36.328125 26.09375 
Q 34.28125 28.265625 31.984375 29.078125 
Q 29.6875 29.890625 24.703125 29.890625 
L 21.78125 29.890625 
L 21.78125 0 
z
M 21.78125 41.3125 
L 32.46875 41.3125 
Q 42.875 41.3125 45.453125 42.1875 
Q 48.046875 43.0625 49.515625 45.203125 
Q 50.984375 47.359375 50.984375 50.59375 
Q 50.984375 54.203125 49.046875 56.421875 
Q 47.125 58.640625 43.609375 59.234375 
Q 41.84375 59.46875 33.0625 59.46875 
L 21.78125 59.46875 
z
" id="Arial-BoldMT-82"/>
     </defs>
     <g transform="translate(21.253125 391.750625)rotate(-90)scale(0.2 -0.2)">
      <use xlink:href="#Arial-BoldMT-71"/>
      <use x="77.783203" xlink:href="#Arial-BoldMT-76"/>
      <use x="138.867188" xlink:href="#Arial-BoldMT-85"/>
      <use x="211.083984" xlink:href="#Arial-BoldMT-67"/>
      <use x="283.300781" xlink:href="#Arial-BoldMT-79"/>
      <use x="361.083984" xlink:href="#Arial-BoldMT-83"/>
      <use x="427.783203" xlink:href="#Arial-BoldMT-69"/>
      <use x="494.482422" xlink:href="#Arial-BoldMT-32"/>
      <use x="522.265625" xlink:href="#Arial-BoldMT-67"/>
      <use x="594.482422" xlink:href="#Arial-BoldMT-79"/>
      <use x="672.265625" xlink:href="#Arial-BoldMT-78"/>
      <use x="744.482422" xlink:href="#Arial-BoldMT-67"/>
      <use x="816.699219" xlink:href="#Arial-BoldMT-69"/>
      <use x="883.398438" xlink:href="#Arial-BoldMT-78"/>
      <use x="955.615234" xlink:href="#Arial-BoldMT-84"/>
      <use x="1016.699219" xlink:href="#Arial-BoldMT-82"/>
      <use x="1088.916016" xlink:href="#Arial-BoldMT-65"/>
      <use x="1161.023438" xlink:href="#Arial-BoldMT-84"/>
      <use x="1222.107422" xlink:href="#Arial-BoldMT-73"/>
      <use x="1249.890625" xlink:href="#Arial-BoldMT-79"/>
      <use x="1327.673828" xlink:href="#Arial-BoldMT-78"/>
     </g>
     <!-- (fmol/ml) -->
     <defs>
      <path d="M 1.171875 51.859375 
L 8.796875 51.859375 
L 8.796875 55.765625 
Q 8.796875 62.3125 10.1875 65.53125 
Q 11.578125 68.75 15.3125 70.765625 
Q 19.046875 72.796875 24.75 72.796875 
Q 30.609375 72.796875 36.234375 71.046875 
L 34.375 61.46875 
Q 31.109375 62.25 28.078125 62.25 
Q 25.09375 62.25 23.796875 60.859375 
Q 22.515625 59.46875 22.515625 55.515625 
L 22.515625 51.859375 
L 32.765625 51.859375 
L 32.765625 41.0625 
L 22.515625 41.0625 
L 22.515625 0 
L 8.796875 0 
L 8.796875 41.0625 
L 1.171875 41.0625 
z
" id="Arial-BoldMT-102"/>
      <path d="M 6.15625 51.859375 
L 18.796875 51.859375 
L 18.796875 44.78125 
Q 25.59375 53.03125 34.96875 53.03125 
Q 39.9375 53.03125 43.59375 50.96875 
Q 47.265625 48.921875 49.609375 44.78125 
Q 53.03125 48.921875 56.984375 50.96875 
Q 60.9375 53.03125 65.4375 53.03125 
Q 71.140625 53.03125 75.09375 50.703125 
Q 79.046875 48.390625 81 43.890625 
Q 82.421875 40.578125 82.421875 33.15625 
L 82.421875 0 
L 68.703125 0 
L 68.703125 29.640625 
Q 68.703125 37.359375 67.28125 39.59375 
Q 65.375 42.53125 61.421875 42.53125 
Q 58.546875 42.53125 56 40.765625 
Q 53.46875 39.015625 52.34375 35.625 
Q 51.21875 32.234375 51.21875 24.90625 
L 51.21875 0 
L 37.5 0 
L 37.5 28.421875 
Q 37.5 35.984375 36.765625 38.171875 
Q 36.03125 40.375 34.484375 41.453125 
Q 32.953125 42.53125 30.328125 42.53125 
Q 27.15625 42.53125 24.609375 40.8125 
Q 22.078125 39.109375 20.96875 35.890625 
Q 19.875 32.671875 19.875 25.203125 
L 19.875 0 
L 6.15625 0 
z
" id="Arial-BoldMT-109"/>
      <path d="M 4 26.65625 
Q 4 33.5 7.375 39.890625 
Q 10.75 46.296875 16.921875 49.65625 
Q 23.09375 53.03125 30.71875 53.03125 
Q 42.484375 53.03125 50 45.390625 
Q 57.515625 37.75 57.515625 26.078125 
Q 57.515625 14.3125 49.921875 6.5625 
Q 42.328125 -1.171875 30.8125 -1.171875 
Q 23.6875 -1.171875 17.21875 2.046875 
Q 10.75 5.28125 7.375 11.5 
Q 4 17.71875 4 26.65625 
z
M 18.0625 25.921875 
Q 18.0625 18.21875 21.71875 14.109375 
Q 25.390625 10.015625 30.765625 10.015625 
Q 36.140625 10.015625 39.765625 14.109375 
Q 43.40625 18.21875 43.40625 26.03125 
Q 43.40625 33.640625 39.765625 37.734375 
Q 36.140625 41.84375 30.765625 41.84375 
Q 25.390625 41.84375 21.71875 37.734375 
Q 18.0625 33.640625 18.0625 25.921875 
z
" id="Arial-BoldMT-111"/>
      <path d="M 7.171875 0 
L 7.171875 71.578125 
L 20.90625 71.578125 
L 20.90625 0 
z
" id="Arial-BoldMT-108"/>
      <path d="M -0.140625 -1.21875 
L 17.578125 72.796875 
L 27.875 72.796875 
L 9.96875 -1.21875 
z
" id="Arial-BoldMT-47"/>
     </defs>
     <g transform="translate(42.67125 293.977187)rotate(-90)scale(0.2 -0.2)">
      <use xlink:href="#Arial-BoldMT-40"/>
      <use x="33.300781" xlink:href="#Arial-BoldMT-102"/>
      <use x="66.601562" xlink:href="#Arial-BoldMT-109"/>
      <use x="155.517578" xlink:href="#Arial-BoldMT-111"/>
      <use x="216.601562" xlink:href="#Arial-BoldMT-108"/>
      <use x="244.384766" xlink:href="#Arial-BoldMT-47"/>
      <use x="272.167969" xlink:href="#Arial-BoldMT-109"/>
      <use x="361.083984" xlink:href="#Arial-BoldMT-108"/>
      <use x="388.867188" xlink:href="#Arial-BoldMT-41"/>
     </g>
    </g>
    <g id="text_17">
     <!-- 1e9 -->
     <defs>
      <path d="M 56.203125 29.59375 
L 56.203125 25.203125 
L 14.890625 25.203125 
Q 15.484375 15.921875 20.484375 11.0625 
Q 25.484375 6.203125 34.421875 6.203125 
Q 39.59375 6.203125 44.453125 7.46875 
Q 49.3125 8.734375 54.109375 11.28125 
L 54.109375 2.78125 
Q 49.265625 0.734375 44.1875 -0.34375 
Q 39.109375 -1.421875 33.890625 -1.421875 
Q 20.796875 -1.421875 13.15625 6.1875 
Q 5.515625 13.8125 5.515625 26.8125 
Q 5.515625 40.234375 12.765625 48.109375 
Q 20.015625 56 32.328125 56 
Q 43.359375 56 49.78125 48.890625 
Q 56.203125 41.796875 56.203125 29.59375 
z
M 47.21875 32.234375 
Q 47.125 39.59375 43.09375 43.984375 
Q 39.0625 48.390625 32.421875 48.390625 
Q 24.90625 48.390625 20.390625 44.140625 
Q 15.875 39.890625 15.1875 32.171875 
z
" id="DejaVuSans-101"/>
      <path d="M 10.984375 1.515625 
L 10.984375 10.5 
Q 14.703125 8.734375 18.5 7.8125 
Q 22.3125 6.890625 25.984375 6.890625 
Q 35.75 6.890625 40.890625 13.453125 
Q 46.046875 20.015625 46.78125 33.40625 
Q 43.953125 29.203125 39.59375 26.953125 
Q 35.25 24.703125 29.984375 24.703125 
Q 19.046875 24.703125 12.671875 31.3125 
Q 6.296875 37.9375 6.296875 49.421875 
Q 6.296875 60.640625 12.9375 67.421875 
Q 19.578125 74.21875 30.609375 74.21875 
Q 43.265625 74.21875 49.921875 64.515625 
Q 56.59375 54.828125 56.59375 36.375 
Q 56.59375 19.140625 48.40625 8.859375 
Q 40.234375 -1.421875 26.421875 -1.421875 
Q 22.703125 -1.421875 18.890625 -0.6875 
Q 15.09375 0.046875 10.984375 1.515625 
z
M 30.609375 32.421875 
Q 37.25 32.421875 41.125 36.953125 
Q 45.015625 41.5 45.015625 49.421875 
Q 45.015625 57.28125 41.125 61.84375 
Q 37.25 66.40625 30.609375 66.40625 
Q 23.96875 66.40625 20.09375 61.84375 
Q 16.21875 57.28125 16.21875 49.421875 
Q 16.21875 41.5 20.09375 36.953125 
Q 23.96875 32.421875 30.609375 32.421875 
z
" id="DejaVuSans-57"/>
     </defs>
     <g transform="translate(82.968125 58.501562)scale(0.1 -0.1)">
      <use xlink:href="#DejaVuSans-49"/>
      <use x="63.623047" xlink:href="#DejaVuSans-101"/>
      <use x="125.146484" xlink:href="#DejaVuSans-57"/>
     </g>
    </g>
   </g>
   <g id="line2d_15">
    <path clip-path="url(#pa984760032)" d="M 82.968125 61.420275 
L 110.868125 74.857997 
L 138.768125 72.446333 
L 166.668125 85.565375 
L 194.568125 84.457406 
L 222.468125 95.605125 
L 250.368125 100.621336 
L 278.268125 109.875592 
L 306.168125 116.809235 
L 334.068125 131.699562 
L 361.968125 135.44122 
L 389.868125 125.253424 
L 417.768125 125.985201 
L 445.668125 122.251648 
L 473.568125 121.864678 
" style="fill:none;stroke:#08306b;stroke-linecap:square;stroke-width:1.5;"/>
   </g>
   <g id="line2d_16">
    <path clip-path="url(#pa984760032)" d="M 82.968125 61.420275 
L 110.868125 74.687879 
L 138.768125 72.178523 
L 166.668125 86.572462 
L 194.568125 84.576135 
L 222.468125 96.674466 
L 250.368125 100.088734 
L 278.268125 109.88111 
L 306.168125 115.676003 
L 334.068125 130.428372 
L 361.968125 134.57791 
L 389.868125 125.430613 
L 417.768125 121.520647 
L 445.668125 118.690455 
L 473.568125 117.953677 
" style="fill:none;stroke:#08306b;stroke-linecap:square;stroke-width:1.5;"/>
   </g>
   <g id="line2d_17">
    <path clip-path="url(#pa984760032)" d="M 82.968125 61.420275 
L 110.868125 74.916112 
L 138.768125 72.294321 
L 166.668125 86.370872 
L 194.568125 84.211583 
L 222.468125 95.290151 
L 250.368125 100.686175 
L 278.268125 112.253371 
L 306.168125 115.65143 
L 334.068125 134.096784 
L 361.968125 129.537686 
L 389.868125 121.993323 
L 417.768125 123.753571 
L 445.668125 120.88294 
L 473.568125 122.78011 
" style="fill:none;stroke:#08306b;stroke-linecap:square;stroke-width:1.5;"/>
   </g>
   <g id="line2d_18">
    <path clip-path="url(#pa984760032)" d="M 82.968125 61.420275 
L 110.868125 74.827819 
L 138.768125 72.104113 
L 166.668125 87.504018 
L 194.568125 85.564512 
L 222.468125 97.203618 
L 250.368125 101.648858 
L 278.268125 110.436733 
L 306.168125 115.750414 
L 334.068125 131.235292 
L 361.968125 134.573038 
L 389.868125 123.941279 
L 417.768125 122.498419 
L 445.668125 120.333094 
L 473.568125 119.903443 
" style="fill:none;stroke:#08306b;stroke-linecap:square;stroke-width:1.5;"/>
   </g>
   <g id="line2d_19">
    <path clip-path="url(#pa984760032)" d="M 82.968125 61.420275 
L 110.868125 74.646578 
L 138.768125 72.089369 
L 166.668125 86.001492 
L 194.568125 85.118479 
L 222.468125 96.292669 
L 250.368125 99.999838 
L 278.268125 110.528216 
L 306.168125 114.766779 
L 334.068125 131.497454 
L 361.968125 126.772764 
L 389.868125 118.116854 
L 417.768125 120.896908 
L 445.668125 124.467241 
L 473.568125 123.025846 
" style="fill:none;stroke:#08306b;stroke-linecap:square;stroke-width:1.5;"/>
   </g>
   <g id="line2d_20">
    <path clip-path="url(#pa984760032)" d="M 82.968125 61.420275 
L 110.868125 75.627626 
L 138.768125 73.217255 
L 166.668125 87.3896 
L 194.568125 86.528488 
L 222.468125 99.129328 
L 250.368125 104.260474 
L 278.268125 110.961833 
L 306.168125 116.578416 
L 334.068125 134.431373 
L 361.968125 131.261375 
L 389.868125 121.433044 
L 417.768125 121.693266 
L 445.668125 119.689696 
L 473.568125 121.859159 
" style="fill:none;stroke:#08306b;stroke-linecap:square;stroke-width:1.5;"/>
   </g>
   <g id="line2d_21">
    <path clip-path="url(#pa984760032)" d="M 82.968125 61.420275 
L 110.868125 75.352143 
L 138.768125 72.462802 
L 166.668125 86.662824 
L 194.568125 85.469667 
L 222.468125 96.984611 
L 250.368125 100.842671 
L 278.268125 112.441941 
L 306.168125 115.11469 
L 334.068125 131.373379 
L 361.968125 135.833536 
L 389.868125 124.52639 
L 417.768125 124.010947 
L 445.668125 121.466671 
L 473.568125 118.902822 
" style="fill:none;stroke:#08306b;stroke-linecap:square;stroke-width:1.5;"/>
   </g>
   <g id="line2d_22">
    <path clip-path="url(#pa984760032)" d="M 82.968125 61.420275 
L 110.868125 75.594948 
L 138.768125 72.825457 
L 166.668125 87.375459 
L 194.568125 85.380684 
L 222.468125 96.449854 
L 250.368125 102.613438 
L 278.268125 107.935482 
L 306.168125 114.383516 
L 334.068125 141.738407 
L 361.968125 132.931606 
L 389.868125 124.448272 
L 417.768125 125.577796 
L 445.668125 118.448943 
L 473.568125 119.383431 
" style="fill:none;stroke:#08306b;stroke-linecap:square;stroke-width:1.5;"/>
   </g>
   <g id="line2d_23">
    <path clip-path="url(#pa984760032)" d="M 82.968125 61.420275 
L 110.868125 75.775241 
L 138.768125 73.17035 
L 166.668125 87.584637 
L 194.568125 86.720939 
L 222.468125 96.55177 
L 250.368125 102.969195 
L 278.268125 110.96235 
L 306.168125 115.183496 
L 334.068125 133.853332 
L 361.968125 133.963353 
L 389.868125 126.389243 
L 417.768125 125.860695 
L 445.668125 126.541686 
L 473.568125 125.80008 
" style="fill:none;stroke:#08306b;stroke-linecap:square;stroke-width:1.5;"/>
   </g>
   <g id="line2d_24">
    <path clip-path="url(#pa984760032)" d="M 82.968125 61.420275 
L 110.868125 76.051931 
L 138.768125 72.926338 
L 166.668125 87.265525 
L 194.568125 85.699797 
L 222.468125 96.014082 
L 250.368125 102.353561 
L 278.268125 109.124242 
L 306.168125 114.298931 
L 334.068125 138.343581 
L 361.968125 126.849589 
L 389.868125 120.300933 
L 417.768125 121.031977 
L 445.668125 117.539719 
L 473.568125 120.189963 
" style="fill:none;stroke:#08306b;stroke-linecap:square;stroke-width:1.5;"/>
   </g>
   <g id="line2d_25">
    <path clip-path="url(#pa984760032)" d="M 82.968125 61.420275 
L 110.868125 76.006578 
L 138.768125 72.728542 
L 166.668125 88.700452 
L 194.568125 85.803351 
L 222.468125 97.109117 
L 250.368125 93.539474 
L 278.268125 96.790608 
L 306.168125 96.849326 
L 334.068125 97.733632 
L 361.968125 111.432525 
L 389.868125 110.587796 
L 417.768125 103.967746 
L 445.668125 113.22778 
L 473.568125 108.144315 
" style="fill:none;stroke:#4a98c9;stroke-linecap:square;stroke-width:1.5;"/>
   </g>
   <g id="line2d_26">
    <path clip-path="url(#pa984760032)" d="M 82.968125 61.420275 
L 110.868125 75.594344 
L 138.768125 72.514708 
L 166.668125 87.654909 
L 194.568125 85.586327 
L 222.468125 96.245419 
L 250.368125 95.204273 
L 278.268125 97.906079 
L 306.168125 96.955381 
L 334.068125 99.269355 
L 361.968125 111.042624 
L 389.868125 110.526578 
L 417.768125 107.174648 
L 445.668125 111.318366 
L 473.568125 105.488725 
" style="fill:none;stroke:#4a98c9;stroke-linecap:square;stroke-width:1.5;"/>
   </g>
   <g id="line2d_27">
    <path clip-path="url(#pa984760032)" d="M 82.968125 61.420275 
L 110.868125 75.778086 
L 138.768125 72.77743 
L 166.668125 88.520677 
L 194.568125 85.246952 
L 222.468125 97.362096 
L 250.368125 93.304171 
L 278.268125 94.927755 
L 306.168125 95.011823 
L 334.068125 99.619249 
L 361.968125 110.846121 
L 389.868125 109.531992 
L 417.768125 104.732461 
L 445.668125 109.176063 
L 473.568125 111.062886 
" style="fill:none;stroke:#4a98c9;stroke-linecap:square;stroke-width:1.5;"/>
   </g>
   <g id="line2d_28">
    <path clip-path="url(#pa984760032)" d="M 82.968125 61.420275 
L 110.868125 75.621418 
L 138.768125 72.48384 
L 166.668125 89.210118 
L 194.568125 86.237226 
L 222.468125 98.493432 
L 250.368125 93.333918 
L 278.268125 96.364752 
L 306.168125 95.698677 
L 334.068125 97.922375 
L 361.968125 111.312761 
L 389.868125 109.884128 
L 417.768125 104.547167 
L 445.668125 113.887733 
L 473.568125 105.546322 
" style="fill:none;stroke:#4a98c9;stroke-linecap:square;stroke-width:1.5;"/>
   </g>
   <g id="line2d_29">
    <path clip-path="url(#pa984760032)" d="M 82.968125 61.420275 
L 110.868125 75.284113 
L 138.768125 72.383821 
L 166.668125 89.221155 
L 194.568125 86.063228 
L 222.468125 97.692849 
L 250.368125 93.104478 
L 278.268125 95.790936 
L 306.168125 95.218845 
L 334.068125 97.867365 
L 361.968125 111.085563 
L 389.868125 107.936086 
L 417.768125 107.158438 
L 445.668125 114.34144 
L 473.568125 109.571224 
" style="fill:none;stroke:#4a98c9;stroke-linecap:square;stroke-width:1.5;"/>
   </g>
   <g id="line2d_30">
    <path clip-path="url(#pa984760032)" d="M 82.968125 61.420275 
L 110.868125 76.761031 
L 138.768125 73.386942 
L 166.668125 90.418192 
L 194.568125 87.17706 
L 222.468125 98.577413 
L 250.368125 94.862656 
L 278.268125 97.845636 
L 306.168125 96.430885 
L 334.068125 99.091476 
L 361.968125 111.253612 
L 389.868125 107.388309 
L 417.768125 109.794542 
L 445.668125 113.783661 
L 473.568125 112.764847 
" style="fill:none;stroke:#4a98c9;stroke-linecap:square;stroke-width:1.5;"/>
   </g>
   <g id="line2d_31">
    <path clip-path="url(#pa984760032)" d="M 82.968125 61.420275 
L 110.868125 76.220239 
L 138.768125 72.933581 
L 166.668125 89.304877 
L 194.568125 86.433384 
L 222.468125 97.653703 
L 250.368125 95.222552 
L 278.268125 98.331849 
L 306.168125 96.263784 
L 334.068125 102.605505 
L 361.968125 115.4432 
L 389.868125 111.394673 
L 417.768125 108.297016 
L 445.668125 112.693454 
L 473.568125 108.573103 
" style="fill:none;stroke:#4a98c9;stroke-linecap:square;stroke-width:1.5;"/>
   </g>
   <g id="line2d_32">
    <path clip-path="url(#pa984760032)" d="M 82.968125 61.420275 
L 110.868125 76.503482 
L 138.768125 73.215444 
L 166.668125 90.536922 
L 194.568125 87.079886 
L 222.468125 97.090579 
L 250.368125 92.959105 
L 278.268125 95.849137 
L 306.168125 94.977075 
L 334.068125 102.877367 
L 361.968125 112.07601 
L 389.868125 106.548754 
L 417.768125 106.588761 
L 445.668125 112.665518 
L 473.568125 108.541804 
" style="fill:none;stroke:#4a98c9;stroke-linecap:square;stroke-width:1.5;"/>
   </g>
   <g id="line2d_33">
    <path clip-path="url(#pa984760032)" d="M 82.968125 61.420275 
L 110.868125 77.066089 
L 138.768125 73.536885 
L 166.668125 90.417761 
L 194.568125 87.649736 
L 222.468125 96.991767 
L 250.368125 93.470237 
L 278.268125 98.249506 
L 306.168125 99.060608 
L 334.068125 102.667241 
L 361.968125 112.897976 
L 389.868125 112.961695 
L 417.768125 109.231935 
L 445.668125 113.169881 
L 473.568125 112.820116 
" style="fill:none;stroke:#4a98c9;stroke-linecap:square;stroke-width:1.5;"/>
   </g>
   <g id="line2d_34">
    <path clip-path="url(#pa984760032)" d="M 82.968125 61.420275 
L 110.868125 76.858118 
L 138.768125 73.31417 
L 166.668125 89.752635 
L 194.568125 86.271284 
L 222.468125 96.199893 
L 250.368125 93.659238 
L 278.268125 96.441404 
L 306.168125 96.830616 
L 334.068125 102.142745 
L 361.968125 108.683469 
L 389.868125 109.331782 
L 417.768125 110.880352 
L 445.668125 111.094616 
L 473.568125 107.757949 
" style="fill:none;stroke:#4a98c9;stroke-linecap:square;stroke-width:1.5;"/>
   </g>
   <g id="line2d_35">
    <path clip-path="url(#pa984760032)" d="M 82.968125 61.420275 
L 110.868125 76.016493 
L 138.768125 72.648871 
L 166.668125 89.370407 
L 194.568125 85.698158 
L 222.468125 96.013823 
L 250.368125 92.025394 
L 278.268125 92.782779 
L 306.168125 91.923823 
L 334.068125 91.2787 
L 361.968125 91.823804 
L 389.868125 90.260231 
L 417.768125 90.519332 
L 445.668125 91.80061 
L 473.568125 91.48348 
" style="fill:none;stroke:#d0e1f2;stroke-linecap:square;stroke-width:1.5;"/>
   </g>
   <g id="line2d_36">
    <path clip-path="url(#pa984760032)" d="M 82.968125 61.420275 
L 110.868125 75.713332 
L 138.768125 72.380717 
L 166.668125 88.516193 
L 194.568125 85.171765 
L 222.468125 95.808957 
L 250.368125 91.648426 
L 278.268125 92.607056 
L 306.168125 92.815457 
L 334.068125 90.943119 
L 361.968125 91.367252 
L 389.868125 90.87233 
L 417.768125 89.999578 
L 445.668125 91.078317 
L 473.568125 91.780606 
" style="fill:none;stroke:#d0e1f2;stroke-linecap:square;stroke-width:1.5;"/>
   </g>
   <g id="line2d_37">
    <path clip-path="url(#pa984760032)" d="M 82.968125 61.420275 
L 110.868125 75.960621 
L 138.768125 72.593257 
L 166.668125 89.060952 
L 194.568125 85.039413 
L 222.468125 96.527196 
L 250.368125 91.297842 
L 278.268125 92.872623 
L 306.168125 93.149228 
L 334.068125 91.126947 
L 361.968125 91.440628 
L 389.868125 90.982351 
L 417.768125 91.058314 
L 445.668125 91.727751 
L 473.568125 91.677224 
" style="fill:none;stroke:#d0e1f2;stroke-linecap:square;stroke-width:1.5;"/>
   </g>
   <g id="line2d_38">
    <path clip-path="url(#pa984760032)" d="M 82.968125 61.420275 
L 110.868125 75.730577 
L 138.768125 72.508241 
L 166.668125 89.596657 
L 194.568125 85.916821 
L 222.468125 96.770863 
L 250.368125 91.330003 
L 278.268125 91.16135 
L 306.168125 92.761309 
L 334.068125 90.664877 
L 361.968125 89.909475 
L 389.868125 91.196098 
L 417.768125 90.349127 
L 445.668125 92.92134 
L 473.568125 92.08506 
" style="fill:none;stroke:#d0e1f2;stroke-linecap:square;stroke-width:1.5;"/>
   </g>
   <g id="line2d_39">
    <path clip-path="url(#pa984760032)" d="M 82.968125 61.420275 
L 110.868125 75.453886 
L 138.768125 72.382959 
L 166.668125 88.712696 
L 194.568125 85.706867 
L 222.468125 96.97254 
L 250.368125 91.089095 
L 278.268125 91.986162 
L 306.168125 92.923668 
L 334.068125 91.414157 
L 361.968125 92.327606 
L 389.868125 90.356887 
L 417.768125 91.331814 
L 445.668125 92.943758 
L 473.568125 91.70404 
" style="fill:none;stroke:#d0e1f2;stroke-linecap:square;stroke-width:1.5;"/>
   </g>
   <g id="line2d_40">
    <path clip-path="url(#pa984760032)" d="M 82.968125 61.420275 
L 110.868125 76.893556 
L 138.768125 73.532832 
L 166.668125 91.217137 
L 194.568125 87.831063 
L 222.468125 98.351249 
L 250.368125 92.073506 
L 278.268125 92.807611 
L 306.168125 93.194236 
L 334.068125 89.69383 
L 361.968125 89.213912 
L 389.868125 91.1504 
L 417.768125 90.99606 
L 445.668125 91.186183 
L 473.568125 91.589966 
" style="fill:none;stroke:#d0e1f2;stroke-linecap:square;stroke-width:1.5;"/>
   </g>
   <g id="line2d_41">
    <path clip-path="url(#pa984760032)" d="M 82.968125 61.420275 
L 110.868125 76.494946 
L 138.768125 73.129652 
L 166.668125 89.950862 
L 194.568125 86.178853 
L 222.468125 96.31526 
L 250.368125 90.813008 
L 278.268125 93.685709 
L 306.168125 93.577068 
L 334.068125 91.274562 
L 361.968125 91.833116 
L 389.868125 92.302084 
L 417.768125 91.189459 
L 445.668125 92.320019 
L 473.568125 93.425659 
" style="fill:none;stroke:#d0e1f2;stroke-linecap:square;stroke-width:1.5;"/>
   </g>
   <g id="line2d_42">
    <path clip-path="url(#pa984760032)" d="M 82.968125 61.420275 
L 110.868125 76.636956 
L 138.768125 73.154312 
L 166.668125 90.420606 
L 194.568125 86.617816 
L 222.468125 96.276632 
L 250.368125 90.939498 
L 278.268125 93.010753 
L 306.168125 93.264336 
L 334.068125 92.343902 
L 361.968125 92.442197 
L 389.868125 91.241624 
L 417.768125 91.233692 
L 445.668125 92.811232 
L 473.568125 93.435058 
" style="fill:none;stroke:#d0e1f2;stroke-linecap:square;stroke-width:1.5;"/>
   </g>
   <g id="line2d_43">
    <path clip-path="url(#pa984760032)" d="M 82.968125 61.420275 
L 110.868125 77.150933 
L 138.768125 73.596982 
L 166.668125 90.792746 
L 194.568125 86.949085 
L 222.468125 96.932877 
L 250.368125 91.230329 
L 278.268125 92.452544 
L 306.168125 92.398396 
L 334.068125 90.825769 
L 361.968125 92.096959 
L 389.868125 95.106582 
L 417.768125 93.697953 
L 445.668125 92.573256 
L 473.568125 92.157402 
" style="fill:none;stroke:#d0e1f2;stroke-linecap:square;stroke-width:1.5;"/>
   </g>
   <g id="line2d_44">
    <path clip-path="url(#pa984760032)" d="M 82.968125 61.420275 
L 110.868125 76.984867 
L 138.768125 73.366335 
L 166.668125 90.203238 
L 194.568125 86.421744 
L 222.468125 96.495466 
L 250.368125 91.33509 
L 278.268125 92.930997 
L 306.168125 92.571704 
L 334.068125 91.157729 
L 361.968125 90.984593 
L 389.868125 91.071161 
L 417.768125 91.306809 
L 445.668125 90.44906 
L 473.568125 90.4801 
" style="fill:none;stroke:#d0e1f2;stroke-linecap:square;stroke-width:1.5;"/>
   </g>
   <g id="line2d_45">
    <path clip-path="url(#pa984760032)" d="M 82.968125 61.420275 
L 110.868125 75.324724 
L 138.768125 72.294063 
L 166.668125 86.807938 
L 194.568125 85.555459 
L 222.468125 97.467289 
L 250.368125 100.035621 
L 278.268125 106.278616 
L 306.168125 110.463807 
L 334.068125 127.182325 
L 361.968125 127.960749 
L 389.868125 118.020672 
L 417.768125 121.796734 
L 445.668125 115.59297 
L 473.568125 116.134366 
" style="fill:none;stroke:#1764ab;stroke-linecap:square;stroke-width:1.5;"/>
   </g>
   <g id="line2d_46">
    <path clip-path="url(#pa984760032)" d="M 82.968125 61.420275 
L 110.868125 74.892056 
L 138.768125 72.318033 
L 166.668125 87.079627 
L 194.568125 85.436212 
L 222.468125 95.948811 
L 250.368125 98.823063 
L 278.268125 108.269856 
L 306.168125 106.413728 
L 334.068125 123.503868 
L 361.968125 132.218367 
L 389.868125 121.398727 
L 417.768125 123.889027 
L 445.668125 119.588642 
L 473.568125 118.518439 
" style="fill:none;stroke:#1764ab;stroke-linecap:square;stroke-width:1.5;"/>
   </g>
   <g id="line2d_47">
    <path clip-path="url(#pa984760032)" d="M 82.968125 61.420275 
L 110.868125 75.128825 
L 138.768125 72.419949 
L 166.668125 87.951431 
L 194.568125 85.021737 
L 222.468125 97.566359 
L 250.368125 98.267354 
L 278.268125 105.715751 
L 306.168125 106.364322 
L 334.068125 121.871231 
L 361.968125 127.891511 
L 389.868125 119.126572 
L 417.768125 119.936984 
L 445.668125 116.769142 
L 473.568125 118.269426 
" style="fill:none;stroke:#1764ab;stroke-linecap:square;stroke-width:1.5;"/>
   </g>
   <g id="line2d_48">
    <path clip-path="url(#pa984760032)" d="M 82.968125 61.420275 
L 110.868125 75.266006 
L 138.768125 72.336398 
L 166.668125 88.378236 
L 194.568125 86.490464 
L 222.468125 98.461874 
L 250.368125 100.549425 
L 278.268125 106.616784 
L 306.168125 107.993511 
L 334.068125 129.012759 
L 361.968125 128.996807 
L 389.868125 123.151301 
L 417.768125 120.131806 
L 445.668125 118.711148 
L 473.568125 117.137832 
" style="fill:none;stroke:#1764ab;stroke-linecap:square;stroke-width:1.5;"/>
   </g>
   <g id="line2d_49">
    <path clip-path="url(#pa984760032)" d="M 82.968125 61.420275 
L 110.868125 75.042774 
L 138.768125 72.231551 
L 166.668125 86.928737 
L 194.568125 85.496223 
L 222.468125 97.734063 
L 250.368125 99.040949 
L 278.268125 104.218915 
L 306.168125 108.862813 
L 334.068125 127.506611 
L 361.968125 124.944314 
L 389.868125 118.372981 
L 417.768125 119.959489 
L 445.668125 119.037417 
L 473.568125 118.515249 
" style="fill:none;stroke:#1764ab;stroke-linecap:square;stroke-width:1.5;"/>
   </g>
   <g id="line2d_50">
    <path clip-path="url(#pa984760032)" d="M 82.968125 61.420275 
L 110.868125 76.301978 
L 138.768125 73.351418 
L 166.668125 89.76712 
L 194.568125 86.912613 
L 222.468125 97.879436 
L 250.368125 99.925255 
L 278.268125 107.302259 
L 306.168125 106.130916 
L 334.068125 130.278559 
L 361.968125 132.465138 
L 389.868125 119.383948 
L 417.768125 120.157543 
L 445.668125 116.218865 
L 473.568125 116.359667 
" style="fill:none;stroke:#1764ab;stroke-linecap:square;stroke-width:1.5;"/>
   </g>
   <g id="line2d_51">
    <path clip-path="url(#pa984760032)" d="M 82.968125 61.420275 
L 110.868125 75.944497 
L 138.768125 72.894263 
L 166.668125 88.108271 
L 194.568125 86.253177 
L 222.468125 96.881488 
L 250.368125 97.752774 
L 278.268125 106.206706 
L 306.168125 105.175476 
L 334.068125 129.74238 
L 361.968125 127.172495 
L 389.868125 116.744223 
L 417.768125 121.402866 
L 445.668125 120.77585 
L 473.568125 116.440372 
" style="fill:none;stroke:#1764ab;stroke-linecap:square;stroke-width:1.5;"/>
   </g>
   <g id="line2d_52">
    <path clip-path="url(#pa984760032)" d="M 82.968125 61.420275 
L 110.868125 76.023305 
L 138.768125 72.974968 
L 166.668125 89.058279 
L 194.568125 86.191873 
L 222.468125 97.256128 
L 250.368125 99.601056 
L 278.268125 102.838049 
L 306.168125 106.798801 
L 334.068125 131.009689 
L 361.968125 130.550723 
L 389.868125 120.637634 
L 417.768125 120.138488 
L 445.668125 118.899977 
L 473.568125 119.064577 
" style="fill:none;stroke:#1764ab;stroke-linecap:square;stroke-width:1.5;"/>
   </g>
   <g id="line2d_53">
    <path clip-path="url(#pa984760032)" d="M 82.968125 61.420275 
L 110.868125 76.337158 
L 138.768125 73.184059 
L 166.668125 88.76374 
L 194.568125 87.086698 
L 222.468125 97.610505 
L 250.368125 101.55703 
L 278.268125 103.101375 
L 306.168125 107.32735 
L 334.068125 126.798373 
L 361.968125 123.583452 
L 389.868125 119.533115 
L 417.768125 122.767953 
L 445.668125 113.417385 
L 473.568125 113.630787 
" style="fill:none;stroke:#1764ab;stroke-linecap:square;stroke-width:1.5;"/>
   </g>
   <g id="line2d_54">
    <path clip-path="url(#pa984760032)" d="M 82.968125 61.420275 
L 110.868125 76.180317 
L 138.768125 73.211219 
L 166.668125 89.398343 
L 194.568125 86.762326 
L 222.468125 97.896939 
L 250.368125 98.375392 
L 278.268125 107.027638 
L 306.168125 108.855743 
L 334.068125 130.111933 
L 361.968125 126.60118 
L 389.868125 122.978251 
L 417.768125 121.979268 
L 445.668125 116.90503 
L 473.568125 117.844259 
" style="fill:none;stroke:#1764ab;stroke-linecap:square;stroke-width:1.5;"/>
   </g>
   <g id="line2d_55">
    <path clip-path="url(#pa984760032)" d="M 82.968125 61.420275 
L 110.868125 75.931046 
L 138.768125 72.702244 
L 166.668125 89.209687 
L 194.568125 85.650994 
L 222.468125 96.002787 
L 250.368125 93.745462 
L 278.268125 94.87628 
L 306.168125 96.482964 
L 334.068125 95.62875 
L 361.968125 105.89794 
L 389.868125 106.751464 
L 417.768125 100.179183 
L 445.668125 107.700696 
L 473.568125 106.452701 
" style="fill:none;stroke:#94c4df;stroke-linecap:square;stroke-width:1.5;"/>
   </g>
   <g id="line2d_56">
    <path clip-path="url(#pa984760032)" d="M 82.968125 61.420275 
L 110.868125 75.769377 
L 138.768125 72.454869 
L 166.668125 88.470581 
L 194.568125 84.63675 
L 222.468125 95.612454 
L 250.368125 92.249402 
L 278.268125 92.940222 
L 306.168125 93.916184 
L 334.068125 92.026773 
L 361.968125 98.220707 
L 389.868125 99.653911 
L 417.768125 98.031706 
L 445.668125 103.01041 
L 473.568125 104.210379 
" style="fill:none;stroke:#94c4df;stroke-linecap:square;stroke-width:1.5;"/>
   </g>
   <g id="line2d_57">
    <path clip-path="url(#pa984760032)" d="M 82.968125 61.420275 
L 110.868125 75.927597 
L 138.768125 72.787863 
L 166.668125 89.244607 
L 194.568125 85.059416 
L 222.468125 96.742927 
L 250.368125 93.635441 
L 278.268125 95.706955 
L 306.168125 93.934204 
L 334.068125 96.081939 
L 361.968125 101.559358 
L 389.868125 99.60028 
L 417.768125 102.557306 
L 445.668125 105.274201 
L 473.568125 105.803267 
" style="fill:none;stroke:#94c4df;stroke-linecap:square;stroke-width:1.5;"/>
   </g>
   <g id="line2d_58">
    <path clip-path="url(#pa984760032)" d="M 82.968125 61.420275 
L 110.868125 75.69695 
L 138.768125 72.551698 
L 166.668125 89.300135 
L 194.568125 86.011752 
L 222.468125 97.385635 
L 250.368125 93.085767 
L 278.268125 94.956553 
L 306.168125 95.102529 
L 334.068125 94.184338 
L 361.968125 98.932567 
L 389.868125 103.080595 
L 417.768125 100.80594 
L 445.668125 106.027362 
L 473.568125 102.92479 
" style="fill:none;stroke:#94c4df;stroke-linecap:square;stroke-width:1.5;"/>
   </g>
   <g id="line2d_59">
    <path clip-path="url(#pa984760032)" d="M 82.968125 61.420275 
L 110.868125 75.339986 
L 138.768125 72.257935 
L 166.668125 88.845825 
L 194.568125 85.864483 
L 222.468125 97.148349 
L 250.368125 92.312517 
L 278.268125 94.656324 
L 306.168125 93.111548 
L 334.068125 95.312483 
L 361.968125 99.51466 
L 389.868125 98.552236 
L 417.768125 100.642546 
L 445.668125 102.510315 
L 473.568125 103.154402 
" style="fill:none;stroke:#94c4df;stroke-linecap:square;stroke-width:1.5;"/>
   </g>
   <g id="line2d_60">
    <path clip-path="url(#pa984760032)" d="M 82.968125 61.420275 
L 110.868125 76.712919 
L 138.768125 73.504723 
L 166.668125 90.152366 
L 194.568125 86.976504 
L 222.468125 98.59414 
L 250.368125 93.718905 
L 278.268125 94.864812 
L 306.168125 94.797385 
L 334.068125 96.975471 
L 361.968125 102.592313 
L 389.868125 102.663102 
L 417.768125 102.27208 
L 445.668125 104.953106 
L 473.568125 103.53344 
" style="fill:none;stroke:#94c4df;stroke-linecap:square;stroke-width:1.5;"/>
   </g>
   <g id="line2d_61">
    <path clip-path="url(#pa984760032)" d="M 82.968125 61.420275 
L 110.868125 76.31336 
L 138.768125 73.01739 
L 166.668125 89.623472 
L 194.568125 86.85036 
L 222.468125 98.090855 
L 250.368125 93.095597 
L 278.268125 95.87966 
L 306.168125 96.479084 
L 334.068125 97.050744 
L 361.968125 106.99082 
L 389.868125 102.663016 
L 417.768125 101.433731 
L 445.668125 106.909598 
L 473.568125 103.056453 
" style="fill:none;stroke:#94c4df;stroke-linecap:square;stroke-width:1.5;"/>
   </g>
   <g id="line2d_62">
    <path clip-path="url(#pa984760032)" d="M 82.968125 61.420275 
L 110.868125 76.560303 
L 138.768125 73.174143 
L 166.668125 90.583223 
L 194.568125 86.918562 
L 222.468125 97.076007 
L 250.368125 92.392963 
L 278.268125 93.608367 
L 306.168125 93.570687 
L 334.068125 94.316691 
L 361.968125 97.563514 
L 389.868125 102.682589 
L 417.768125 100.464668 
L 445.668125 104.383774 
L 473.568125 106.191013 
" style="fill:none;stroke:#94c4df;stroke-linecap:square;stroke-width:1.5;"/>
   </g>
   <g id="line2d_63">
    <path clip-path="url(#pa984760032)" d="M 82.968125 61.420275 
L 110.868125 77.163435 
L 138.768125 73.527055 
L 166.668125 91.042621 
L 194.568125 87.197581 
L 222.468125 96.420624 
L 250.368125 91.387945 
L 278.268125 93.451354 
L 306.168125 95.518039 
L 334.068125 93.644322 
L 361.968125 98.406087 
L 389.868125 104.055522 
L 417.768125 100.922255 
L 445.668125 102.991009 
L 473.568125 104.330143 
" style="fill:none;stroke:#94c4df;stroke-linecap:square;stroke-width:1.5;"/>
   </g>
   <g id="line2d_64">
    <path clip-path="url(#pa984760032)" d="M 82.968125 61.420275 
L 110.868125 76.879847 
L 138.768125 73.477391 
L 166.668125 90.315069 
L 194.568125 86.350006 
L 222.468125 96.059694 
L 250.368125 93.390394 
L 278.268125 94.643649 
L 306.168125 95.982179 
L 334.068125 94.015513 
L 361.968125 103.816597 
L 389.868125 106.471066 
L 417.768125 101.333022 
L 445.668125 106.611007 
L 473.568125 102.33761 
" style="fill:none;stroke:#94c4df;stroke-linecap:square;stroke-width:1.5;"/>
   </g>
   <g id="line2d_65">
    <path clip-path="url(#pa984760032)" d="M 82.968125 61.420275 
L 110.868125 75.49786 
L 138.768125 71.60557 
L 166.668125 88.139742 
L 194.568125 83.381943 
L 222.468125 94.634423 
L 250.368125 89.358508 
L 278.268125 88.900749 
L 306.168125 84.857482 
L 334.068125 84.047069 
L 361.968125 83.893419 
L 389.868125 82.67931 
L 417.768125 82.417449 
L 445.668125 81.987627 
L 473.568125 81.777673 
" style="fill:none;stroke:#000000;stroke-linecap:square;stroke-width:1.5;"/>
   </g>
   <g id="line2d_66">
    <path clip-path="url(#pa984760032)" d="M 82.968125 61.420275 
L 110.868125 75.169091 
L 138.768125 71.322585 
L 166.668125 87.431591 
L 194.568125 83.063607 
L 222.468125 94.433868 
L 250.368125 89.562685 
L 278.268125 89.380409 
L 306.168125 84.60959 
L 334.068125 84.202788 
L 361.968125 83.021788 
L 389.868125 83.128791 
L 417.768125 82.042292 
L 445.668125 82.041257 
L 473.568125 81.387944 
" style="fill:none;stroke:#000000;stroke-linecap:square;stroke-width:1.5;"/>
   </g>
   <g id="line2d_67">
    <path clip-path="url(#pa984760032)" d="M 82.968125 61.420275 
L 110.868125 75.461819 
L 138.768125 71.594447 
L 166.668125 87.767603 
L 194.568125 83.459975 
L 222.468125 94.427143 
L 250.368125 89.425504 
L 278.268125 89.095786 
L 306.168125 84.902835 
L 334.068125 83.637509 
L 361.968125 83.28339 
L 389.868125 82.561873 
L 417.768125 82.303807 
L 445.668125 81.927012 
L 473.568125 81.417346 
" style="fill:none;stroke:#000000;stroke-linecap:square;stroke-width:1.5;"/>
   </g>
   <g id="line2d_68">
    <path clip-path="url(#pa984760032)" d="M 82.968125 61.420275 
L 110.868125 75.266437 
L 138.768125 71.437607 
L 166.668125 88.56922 
L 194.568125 83.881779 
L 222.468125 96.107117 
L 250.368125 89.798678 
L 278.268125 89.472323 
L 306.168125 84.281683 
L 334.068125 83.848152 
L 361.968125 83.290288 
L 389.868125 82.678016 
L 417.768125 82.965053 
L 445.668125 82.3752 
L 473.568125 81.827251 
" style="fill:none;stroke:#000000;stroke-linecap:square;stroke-width:1.5;"/>
   </g>
   <g id="line2d_69">
    <path clip-path="url(#pa984760032)" d="M 82.968125 61.420275 
L 110.868125 74.894815 
L 138.768125 71.213685 
L 166.668125 87.163092 
L 194.568125 82.97928 
L 222.468125 94.966986 
L 250.368125 89.552166 
L 278.268125 88.500328 
L 306.168125 84.033532 
L 334.068125 84.155366 
L 361.968125 83.415053 
L 389.868125 82.72587 
L 417.768125 82.365716 
L 445.668125 81.757152 
L 473.568125 80.997007 
" style="fill:none;stroke:#000000;stroke-linecap:square;stroke-width:1.5;"/>
   </g>
   <g id="line2d_70">
    <path clip-path="url(#pa984760032)" d="M 82.968125 61.420275 
L 110.868125 76.276629 
L 138.768125 72.252417 
L 166.668125 90.130638 
L 194.568125 84.630542 
L 222.468125 97.049364 
L 250.368125 89.806611 
L 278.268125 89.645287 
L 306.168125 84.413777 
L 334.068125 84.117514 
L 361.968125 83.004802 
L 389.868125 82.058588 
L 417.768125 81.655236 
L 445.668125 81.500551 
L 473.568125 81.345091 
" style="fill:none;stroke:#000000;stroke-linecap:square;stroke-width:1.5;"/>
   </g>
   <g id="line2d_71">
    <path clip-path="url(#pa984760032)" d="M 82.968125 61.420275 
L 110.868125 75.865344 
L 138.768125 71.849237 
L 166.668125 88.781157 
L 194.568125 84.314706 
L 222.468125 95.851982 
L 250.368125 88.524988 
L 278.268125 88.861172 
L 306.168125 84.803506 
L 334.068125 84.115617 
L 361.968125 83.51671 
L 389.868125 82.366319 
L 417.768125 82.127739 
L 445.668125 81.848721 
L 473.568125 81.656357 
" style="fill:none;stroke:#000000;stroke-linecap:square;stroke-width:1.5;"/>
   </g>
   <g id="line2d_72">
    <path clip-path="url(#pa984760032)" d="M 82.968125 61.420275 
L 110.868125 76.148415 
L 138.768125 72.074969 
L 166.668125 89.157349 
L 194.568125 84.864552 
L 222.468125 95.170473 
L 250.368125 89.311258 
L 278.268125 88.663031 
L 306.168125 85.38353 
L 334.068125 83.4667 
L 361.968125 83.777966 
L 389.868125 82.675516 
L 417.768125 82.496516 
L 445.668125 82.190337 
L 473.568125 81.717403 
" style="fill:none;stroke:#000000;stroke-linecap:square;stroke-width:1.5;"/>
   </g>
   <g id="line2d_73">
    <path clip-path="url(#pa984760032)" d="M 82.968125 61.420275 
L 110.868125 76.572806 
L 138.768125 72.31855 
L 166.668125 89.698055 
L 194.568125 85.053122 
L 222.468125 95.181251 
L 250.368125 88.63613 
L 278.268125 88.674154 
L 306.168125 85.627197 
L 334.068125 84.531471 
L 361.968125 84.000077 
L 389.868125 82.902455 
L 417.768125 82.204047 
L 445.668125 82.147398 
L 473.568125 81.91037 
" style="fill:none;stroke:#000000;stroke-linecap:square;stroke-width:1.5;"/>
   </g>
   <g id="line2d_74">
    <path clip-path="url(#pa984760032)" d="M 82.968125 61.420275 
L 110.868125 76.452438 
L 138.768125 72.314325 
L 166.668125 89.741771 
L 194.568125 84.499396 
L 222.468125 94.872744 
L 250.368125 88.36056 
L 278.268125 87.704746 
L 306.168125 85.509847 
L 334.068125 84.228569 
L 361.968125 83.78883 
L 389.868125 82.454353 
L 417.768125 81.937531 
L 445.668125 81.398291 
L 473.568125 81.639198 
" style="fill:none;stroke:#000000;stroke-linecap:square;stroke-width:1.5;"/>
   </g>
   <g id="line2d_75">
    <path clip-path="url(#pa984760032)" d="M 82.968125 442.021562 
" style="fill:none;stroke:#000000;stroke-linecap:square;stroke-width:1.5;"/>
   </g>
   <g id="line2d_76">
    <path clip-path="url(#pa984760032)" d="M 82.968125 442.021562 
" style="fill:none;stroke:#d0e1f2;stroke-linecap:square;stroke-width:1.5;"/>
   </g>
   <g id="line2d_77">
    <path clip-path="url(#pa984760032)" d="M 82.968125 442.021562 
" style="fill:none;stroke:#94c4df;stroke-linecap:square;stroke-width:1.5;"/>
   </g>
   <g id="line2d_78">
    <path clip-path="url(#pa984760032)" d="M 82.968125 442.021562 
" style="fill:none;stroke:#4a98c9;stroke-linecap:square;stroke-width:1.5;"/>
   </g>
   <g id="line2d_79">
    <path clip-path="url(#pa984760032)" d="M 82.968125 442.021562 
" style="fill:none;stroke:#1764ab;stroke-linecap:square;stroke-width:1.5;"/>
   </g>
   <g id="line2d_80">
    <path clip-path="url(#pa984760032)" d="M 82.968125 442.021562 
" style="fill:none;stroke:#08306b;stroke-linecap:square;stroke-width:1.5;"/>
   </g>
   <g id="line2d_81">
    <path clip-path="url(#pa984760032)" d="M 82.968125 442.021562 
" style="fill:none;stroke:#000000;stroke-linecap:square;stroke-width:1.5;"/>
   </g>
   <g id="line2d_82">
    <path clip-path="url(#pa984760032)" d="M 82.968125 442.021562 
" style="fill:none;stroke:#000000;stroke-dasharray:1.5,2.475;stroke-dashoffset:0;stroke-width:1.5;"/>
   </g>
   <g id="line2d_83">
    <path clip-path="url(#pa984760032)" d="M 82.968125 442.021562 
" style="fill:none;stroke:#000000;stroke-linecap:square;stroke-width:1.5;"/>
   </g>
   <g id="line2d_84">
    <path clip-path="url(#pa984760032)" d="M 82.968125 442.021562 
" style="fill:none;stroke:#000000;stroke-dasharray:5.55,2.4;stroke-dashoffset:0;stroke-width:1.5;"/>
   </g>
   <g id="line2d_85">
    <path clip-path="url(#pa984760032)" d="M 82.968125 442.021562 
" style="fill:none;stroke:#000000;stroke-dasharray:9.6,2.4,1.5,2.4;stroke-dashoffset:0;stroke-width:1.5;"/>
   </g>
   <g id="line2d_86">
    <path clip-path="url(#pa984760032)" d="M 82.968125 442.021562 
" style="fill:none;stroke:#000000;stroke-dasharray:9.6,2.4,1.5,2.4;stroke-dashoffset:0;stroke-width:1.5;"/>
   </g>
   <g id="patch_3">
    <path d="M 82.968125 442.021562 
L 82.968125 61.501562 
" style="fill:none;stroke:#000000;stroke-linecap:square;stroke-linejoin:miter;stroke-width:0.8;"/>
   </g>
   <g id="patch_4">
    <path d="M 473.568125 442.021562 
L 473.568125 61.501562 
" style="fill:none;stroke:#000000;stroke-linecap:square;stroke-linejoin:miter;stroke-width:0.8;"/>
   </g>
   <g id="patch_5">
    <path d="M 82.968125 442.021562 
L 473.568125 442.021562 
" style="fill:none;stroke:#000000;stroke-linecap:square;stroke-linejoin:miter;stroke-width:0.8;"/>
   </g>
   <g id="patch_6">
    <path d="M 82.968125 61.501562 
L 473.568125 61.501562 
" style="fill:none;stroke:#000000;stroke-linecap:square;stroke-linejoin:miter;stroke-width:0.8;"/>
   </g>
   <g id="text_18">
    <!-- GLUCOSE CONCENTRATION -->
    <g transform="translate(103.281797 25.094531)scale(0.25 -0.25)">
     <use xlink:href="#Arial-BoldMT-71"/>
     <use x="77.783203" xlink:href="#Arial-BoldMT-76"/>
     <use x="138.867188" xlink:href="#Arial-BoldMT-85"/>
     <use x="211.083984" xlink:href="#Arial-BoldMT-67"/>
     <use x="283.300781" xlink:href="#Arial-BoldMT-79"/>
     <use x="361.083984" xlink:href="#Arial-BoldMT-83"/>
     <use x="427.783203" xlink:href="#Arial-BoldMT-69"/>
     <use x="494.482422" xlink:href="#Arial-BoldMT-32"/>
     <use x="522.265625" xlink:href="#Arial-BoldMT-67"/>
     <use x="594.482422" xlink:href="#Arial-BoldMT-79"/>
     <use x="672.265625" xlink:href="#Arial-BoldMT-78"/>
     <use x="744.482422" xlink:href="#Arial-BoldMT-67"/>
     <use x="816.699219" xlink:href="#Arial-BoldMT-69"/>
     <use x="883.398438" xlink:href="#Arial-BoldMT-78"/>
     <use x="955.615234" xlink:href="#Arial-BoldMT-84"/>
     <use x="1016.699219" xlink:href="#Arial-BoldMT-82"/>
     <use x="1088.916016" xlink:href="#Arial-BoldMT-65"/>
     <use x="1161.023438" xlink:href="#Arial-BoldMT-84"/>
     <use x="1222.107422" xlink:href="#Arial-BoldMT-73"/>
     <use x="1249.890625" xlink:href="#Arial-BoldMT-79"/>
     <use x="1327.673828" xlink:href="#Arial-BoldMT-78"/>
    </g>
    <!-- OVER TIME -->
    <defs>
     <path d="M 25.53125 0 
L -0.046875 71.578125 
L 15.625 71.578125 
L 33.734375 18.609375 
L 51.265625 71.578125 
L 66.609375 71.578125 
L 40.96875 0 
z
" id="Arial-BoldMT-86"/>
    </defs>
    <g transform="translate(209.512266 51.501562)scale(0.25 -0.25)">
     <use xlink:href="#Arial-BoldMT-79"/>
     <use x="77.783203" xlink:href="#Arial-BoldMT-86"/>
     <use x="144.482422" xlink:href="#Arial-BoldMT-69"/>
     <use x="211.181641" xlink:href="#Arial-BoldMT-82"/>
     <use x="283.398438" xlink:href="#Arial-BoldMT-32"/>
     <use x="311.181641" xlink:href="#Arial-BoldMT-84"/>
     <use x="372.265625" xlink:href="#Arial-BoldMT-73"/>
     <use x="400.048828" xlink:href="#Arial-BoldMT-77"/>
     <use x="483.349609" xlink:href="#Arial-BoldMT-69"/>
    </g>
   </g>
   <g id="legend_1">
    <g id="line2d_87">
     <path d="M 482.568125 74.6 
L 502.568125 74.6 
" style="fill:none;stroke:#000000;stroke-linecap:square;stroke-width:1.5;"/>
    </g>
    <g id="line2d_88"/>
    <g id="text_19">
     <!-- 0 -->
     <g transform="translate(510.568125 78.1)scale(0.1 -0.1)">
      <use xlink:href="#DejaVuSans-48"/>
     </g>
    </g>
    <g id="line2d_89">
     <path d="M 482.568125 89.278125 
L 502.568125 89.278125 
" style="fill:none;stroke:#d0e1f2;stroke-linecap:square;stroke-width:1.5;"/>
    </g>
    <g id="line2d_90"/>
    <g id="text_20">
     <!-- 100 -->
     <g transform="translate(510.568125 92.778125)scale(0.1 -0.1)">
      <use xlink:href="#DejaVuSans-49"/>
      <use x="63.623047" xlink:href="#DejaVuSans-48"/>
      <use x="127.246094" xlink:href="#DejaVuSans-48"/>
     </g>
    </g>
    <g id="line2d_91">
     <path d="M 482.568125 103.95625 
L 502.568125 103.95625 
" style="fill:none;stroke:#94c4df;stroke-linecap:square;stroke-width:1.5;"/>
    </g>
    <g id="line2d_92"/>
    <g id="text_21">
     <!-- 500 -->
     <g transform="translate(510.568125 107.45625)scale(0.1 -0.1)">
      <use xlink:href="#DejaVuSans-53"/>
      <use x="63.623047" xlink:href="#DejaVuSans-48"/>
      <use x="127.246094" xlink:href="#DejaVuSans-48"/>
     </g>
    </g>
    <g id="line2d_93">
     <path d="M 482.568125 118.634375 
L 502.568125 118.634375 
" style="fill:none;stroke:#4a98c9;stroke-linecap:square;stroke-width:1.5;"/>
    </g>
    <g id="line2d_94"/>
    <g id="text_22">
     <!-- 1000 -->
     <g transform="translate(510.568125 122.134375)scale(0.1 -0.1)">
      <use xlink:href="#DejaVuSans-49"/>
      <use x="63.623047" xlink:href="#DejaVuSans-48"/>
      <use x="127.246094" xlink:href="#DejaVuSans-48"/>
      <use x="190.869141" xlink:href="#DejaVuSans-48"/>
     </g>
    </g>
    <g id="line2d_95">
     <path d="M 482.568125 133.3125 
L 502.568125 133.3125 
" style="fill:none;stroke:#1764ab;stroke-linecap:square;stroke-width:1.5;"/>
    </g>
    <g id="line2d_96"/>
    <g id="text_23">
     <!-- 5000 -->
     <g transform="translate(510.568125 136.8125)scale(0.1 -0.1)">
      <use xlink:href="#DejaVuSans-53"/>
      <use x="63.623047" xlink:href="#DejaVuSans-48"/>
      <use x="127.246094" xlink:href="#DejaVuSans-48"/>
      <use x="190.869141" xlink:href="#DejaVuSans-48"/>
     </g>
    </g>
    <g id="line2d_97">
     <path d="M 482.568125 147.990625 
L 502.568125 147.990625 
" style="fill:none;stroke:#08306b;stroke-linecap:square;stroke-width:1.5;"/>
    </g>
    <g id="line2d_98"/>
    <g id="text_24">
     <!-- 10000 -->
     <g transform="translate(510.568125 151.490625)scale(0.1 -0.1)">
      <use xlink:href="#DejaVuSans-49"/>
      <use x="63.623047" xlink:href="#DejaVuSans-48"/>
      <use x="127.246094" xlink:href="#DejaVuSans-48"/>
      <use x="190.869141" xlink:href="#DejaVuSans-48"/>
      <use x="254.492188" xlink:href="#DejaVuSans-48"/>
     </g>
    </g>
    <g id="line2d_99">
     <path d="M 482.568125 162.66875 
L 502.568125 162.66875 
" style="fill:none;stroke:#000000;stroke-linecap:square;stroke-width:1.5;"/>
    </g>
    <g id="line2d_100"/>
    <g id="text_25">
     <!-- 0 -->
     <g transform="translate(510.568125 166.16875)scale(0.1 -0.1)">
      <use xlink:href="#DejaVuSans-48"/>
     </g>
    </g>
    <g id="line2d_101">
     <path d="M 482.568125 177.346875 
L 502.568125 177.346875 
" style="fill:none;stroke:#000000;stroke-dasharray:1.5,2.475;stroke-dashoffset:0;stroke-width:1.5;"/>
    </g>
    <g id="line2d_102"/>
    <g id="text_26">
     <!-- 250 -->
     <g transform="translate(510.568125 180.846875)scale(0.1 -0.1)">
      <use xlink:href="#DejaVuSans-50"/>
      <use x="63.623047" xlink:href="#DejaVuSans-53"/>
      <use x="127.246094" xlink:href="#DejaVuSans-48"/>
     </g>
    </g>
    <g id="line2d_103">
     <path d="M 482.568125 192.025 
L 502.568125 192.025 
" style="fill:none;stroke:#000000;stroke-linecap:square;stroke-width:1.5;"/>
    </g>
    <g id="line2d_104"/>
    <g id="text_27">
     <!-- 500 -->
     <g transform="translate(510.568125 195.525)scale(0.1 -0.1)">
      <use xlink:href="#DejaVuSans-53"/>
      <use x="63.623047" xlink:href="#DejaVuSans-48"/>
      <use x="127.246094" xlink:href="#DejaVuSans-48"/>
     </g>
    </g>
    <g id="line2d_105">
     <path d="M 482.568125 206.703125 
L 502.568125 206.703125 
" style="fill:none;stroke:#000000;stroke-dasharray:5.55,2.4;stroke-dashoffset:0;stroke-width:1.5;"/>
    </g>
    <g id="line2d_106"/>
    <g id="text_28">
     <!-- 1000 -->
     <g transform="translate(510.568125 210.203125)scale(0.1 -0.1)">
      <use xlink:href="#DejaVuSans-49"/>
      <use x="63.623047" xlink:href="#DejaVuSans-48"/>
      <use x="127.246094" xlink:href="#DejaVuSans-48"/>
      <use x="190.869141" xlink:href="#DejaVuSans-48"/>
     </g>
    </g>
    <g id="line2d_107">
     <path d="M 482.568125 221.38125 
L 502.568125 221.38125 
" style="fill:none;stroke:#000000;stroke-dasharray:9.6,2.4,1.5,2.4;stroke-dashoffset:0;stroke-width:1.5;"/>
    </g>
    <g id="line2d_108"/>
    <g id="text_29">
     <!-- 5000 -->
     <g transform="translate(510.568125 224.88125)scale(0.1 -0.1)">
      <use xlink:href="#DejaVuSans-53"/>
      <use x="63.623047" xlink:href="#DejaVuSans-48"/>
      <use x="127.246094" xlink:href="#DejaVuSans-48"/>
      <use x="190.869141" xlink:href="#DejaVuSans-48"/>
     </g>
    </g>
    <g id="line2d_109">
     <path d="M 482.568125 236.059375 
L 502.568125 236.059375 
" style="fill:none;stroke:#000000;stroke-dasharray:9.6,2.4,1.5,2.4;stroke-dashoffset:0;stroke-width:1.5;"/>
    </g>
    <g id="line2d_110"/>
    <g id="text_30">
     <!-- 10000 -->
     <g transform="translate(510.568125 239.559375)scale(0.1 -0.1)">
      <use xlink:href="#DejaVuSans-49"/>
      <use x="63.623047" xlink:href="#DejaVuSans-48"/>
      <use x="127.246094" xlink:href="#DejaVuSans-48"/>
      <use x="190.869141" xlink:href="#DejaVuSans-48"/>
      <use x="254.492188" xlink:href="#DejaVuSans-48"/>
     </g>
    </g>
   </g>
  </g>
 </g>
 <defs>
  <clipPath id="pa984760032">
   <rect height="380.52" width="390.6" x="82.968125" y="61.501562"/>
  </clipPath>
 </defs>
</svg>
