<?xml version="1.0" encoding="utf-8" standalone="no"?>
<!DOCTYPE svg PUBLIC "-//W3C//DTD SVG 1.1//EN"
  "http://www.w3.org/Graphics/SVG/1.1/DTD/svg11.dtd">
<!-- Created with matplotlib (https://matplotlib.org/) -->
<svg height="579.498969pt" version="1.1" viewBox="0 0 507.21875 579.498969" width="507.21875pt" xmlns="http://www.w3.org/2000/svg" xmlns:xlink="http://www.w3.org/1999/xlink">
 <defs>
  <style type="text/css">
*{stroke-linecap:butt;stroke-linejoin:round;}
  </style>
 </defs>
 <g id="figure_1">
  <g id="patch_1">
   <path d="M 0 579.498969 
L 507.21875 579.498969 
L 507.21875 0 
L 0 0 
z
" style="fill:#ffffff;"/>
  </g>
  <g id="axes_1">
   <g id="patch_2">
    <path d="M 62.05625 449.021562 
L 452.65625 449.021562 
L 452.65625 68.501562 
L 62.05625 68.501562 
z
" style="fill:#ffffff;"/>
   </g>
   <g id="PathCollection_1"/>
   <g id="PathCollection_2"/>
   <g id="PathCollection_3"/>
   <g id="patch_3">
    <path clip-path="url(#p15113f74df)" d="M 68.56625 449.021562 
L 85.92625 449.021562 
L 85.92625 78.798339 
L 68.56625 78.798339 
z
" style="fill:#d9d9d9;"/>
   </g>
   <g id="patch_4">
    <path clip-path="url(#p15113f74df)" d="M 133.66625 449.021562 
L 151.02625 449.021562 
L 151.02625 79.893763 
L 133.66625 79.893763 
z
" style="fill:#d9d9d9;"/>
   </g>
   <g id="patch_5">
    <path clip-path="url(#p15113f74df)" d="M 198.76625 449.021562 
L 216.12625 449.021562 
L 216.12625 79.91349 
L 198.76625 79.91349 
z
" style="fill:#d9d9d9;"/>
   </g>
   <g id="patch_6">
    <path clip-path="url(#p15113f74df)" d="M 263.86625 449.021562 
L 281.22625 449.021562 
L 281.22625 79.909723 
L 263.86625 79.909723 
z
" style="fill:#d9d9d9;"/>
   </g>
   <g id="patch_7">
    <path clip-path="url(#p15113f74df)" d="M 328.96625 449.021562 
L 346.32625 449.021562 
L 346.32625 79.742242 
L 328.96625 79.742242 
z
" style="fill:#d9d9d9;"/>
   </g>
   <g id="patch_8">
    <path clip-path="url(#p15113f74df)" d="M 394.06625 449.021562 
L 411.42625 449.021562 
L 411.42625 79.478917 
L 394.06625 79.478917 
z
" style="fill:#d9d9d9;"/>
   </g>
   <g id="patch_9">
    <path clip-path="url(#p15113f74df)" d="M 85.92625 449.021562 
L 103.28625 449.021562 
L 103.28625 91.842298 
L 85.92625 91.842298 
z
" style="fill:#959595;"/>
   </g>
   <g id="patch_10">
    <path clip-path="url(#p15113f74df)" d="M 151.02625 449.021562 
L 168.38625 449.021562 
L 168.38625 99.358267 
L 151.02625 99.358267 
z
" style="fill:#959595;"/>
   </g>
   <g id="patch_11">
    <path clip-path="url(#p15113f74df)" d="M 216.12625 449.021562 
L 233.48625 449.021562 
L 233.48625 100.683605 
L 216.12625 100.683605 
z
" style="fill:#959595;"/>
   </g>
   <g id="patch_12">
    <path clip-path="url(#p15113f74df)" d="M 281.22625 449.021562 
L 298.58625 449.021562 
L 298.58625 102.4751 
L 281.22625 102.4751 
z
" style="fill:#959595;"/>
   </g>
   <g id="patch_13">
    <path clip-path="url(#p15113f74df)" d="M 346.32625 449.021562 
L 363.68625 449.021562 
L 363.68625 115.054738 
L 346.32625 115.054738 
z
" style="fill:#959595;"/>
   </g>
   <g id="patch_14">
    <path clip-path="url(#p15113f74df)" d="M 411.42625 449.021562 
L 428.78625 449.021562 
L 428.78625 122.393329 
L 411.42625 122.393329 
z
" style="fill:#959595;"/>
   </g>
   <g id="patch_15">
    <path clip-path="url(#p15113f74df)" d="M 103.28625 449.021562 
L 120.64625 449.021562 
L 120.64625 88.567564 
L 103.28625 88.567564 
z
" style="fill:#515151;"/>
   </g>
   <g id="patch_16">
    <path clip-path="url(#p15113f74df)" d="M 168.38625 449.021562 
L 185.74625 449.021562 
L 185.74625 97.699013 
L 168.38625 97.699013 
z
" style="fill:#515151;"/>
   </g>
   <g id="patch_17">
    <path clip-path="url(#p15113f74df)" d="M 233.48625 449.021562 
L 250.84625 449.021562 
L 250.84625 111.502503 
L 233.48625 111.502503 
z
" style="fill:#515151;"/>
   </g>
   <g id="patch_18">
    <path clip-path="url(#p15113f74df)" d="M 298.58625 449.021562 
L 315.94625 449.021562 
L 315.94625 114.998718 
L 298.58625 114.998718 
z
" style="fill:#515151;"/>
   </g>
   <g id="patch_19">
    <path clip-path="url(#p15113f74df)" d="M 363.68625 449.021562 
L 381.04625 449.021562 
L 381.04625 121.281894 
L 363.68625 121.281894 
z
" style="fill:#515151;"/>
   </g>
   <g id="patch_20">
    <path clip-path="url(#p15113f74df)" d="M 428.78625 449.021562 
L 446.14625 449.021562 
L 446.14625 123.229479 
L 428.78625 123.229479 
z
" style="fill:#515151;"/>
   </g>
   <g id="matplotlib.axis_1">
    <g id="xtick_1">
     <g id="line2d_1">
      <defs>
       <path d="M 0 0 
L 0 3.5 
" id="m31a46e87b2" style="stroke:#000000;stroke-width:0.8;"/>
      </defs>
      <g>
       <use style="stroke:#000000;stroke-width:0.8;" x="94.60625" xlink:href="#m31a46e87b2" y="449.021562"/>
      </g>
     </g>
     <g id="text_1">
      <!-- 0 -->
      <defs>
       <path d="M 31.78125 66.40625 
Q 24.171875 66.40625 20.328125 58.90625 
Q 16.5 51.421875 16.5 36.375 
Q 16.5 21.390625 20.328125 13.890625 
Q 24.171875 6.390625 31.78125 6.390625 
Q 39.453125 6.390625 43.28125 13.890625 
Q 47.125 21.390625 47.125 36.375 
Q 47.125 51.421875 43.28125 58.90625 
Q 39.453125 66.40625 31.78125 66.40625 
z
M 31.78125 74.21875 
Q 44.046875 74.21875 50.515625 64.515625 
Q 56.984375 54.828125 56.984375 36.375 
Q 56.984375 17.96875 50.515625 8.265625 
Q 44.046875 -1.421875 31.78125 -1.421875 
Q 19.53125 -1.421875 13.0625 8.265625 
Q 6.59375 17.96875 6.59375 36.375 
Q 6.59375 54.828125 13.0625 64.515625 
Q 19.53125 74.21875 31.78125 74.21875 
z
" id="DejaVuSans-48"/>
      </defs>
      <g transform="translate(93.711318 485.637183)rotate(-45)scale(0.3 -0.3)">
       <use xlink:href="#DejaVuSans-48"/>
      </g>
     </g>
    </g>
    <g id="xtick_2">
     <g id="line2d_2">
      <g>
       <use style="stroke:#000000;stroke-width:0.8;" x="159.70625" xlink:href="#m31a46e87b2" y="449.021562"/>
      </g>
     </g>
     <g id="text_2">
      <!-- 100 -->
      <defs>
       <path d="M 12.40625 8.296875 
L 28.515625 8.296875 
L 28.515625 63.921875 
L 10.984375 60.40625 
L 10.984375 69.390625 
L 28.421875 72.90625 
L 38.28125 72.90625 
L 38.28125 8.296875 
L 54.390625 8.296875 
L 54.390625 0 
L 12.40625 0 
z
" id="DejaVuSans-49"/>
      </defs>
      <g transform="translate(145.314417 512.630985)rotate(-45)scale(0.3 -0.3)">
       <use xlink:href="#DejaVuSans-49"/>
       <use x="63.623047" xlink:href="#DejaVuSans-48"/>
       <use x="127.246094" xlink:href="#DejaVuSans-48"/>
      </g>
     </g>
    </g>
    <g id="xtick_3">
     <g id="line2d_3">
      <g>
       <use style="stroke:#000000;stroke-width:0.8;" x="224.80625" xlink:href="#m31a46e87b2" y="449.021562"/>
      </g>
     </g>
     <g id="text_3">
      <!-- 500 -->
      <defs>
       <path d="M 10.796875 72.90625 
L 49.515625 72.90625 
L 49.515625 64.59375 
L 19.828125 64.59375 
L 19.828125 46.734375 
Q 21.96875 47.46875 24.109375 47.828125 
Q 26.265625 48.1875 28.421875 48.1875 
Q 40.625 48.1875 47.75 41.5 
Q 54.890625 34.8125 54.890625 23.390625 
Q 54.890625 11.625 47.5625 5.09375 
Q 40.234375 -1.421875 26.90625 -1.421875 
Q 22.3125 -1.421875 17.546875 -0.640625 
Q 12.796875 0.140625 7.71875 1.703125 
L 7.71875 11.625 
Q 12.109375 9.234375 16.796875 8.0625 
Q 21.484375 6.890625 26.703125 6.890625 
Q 35.15625 6.890625 40.078125 11.328125 
Q 45.015625 15.765625 45.015625 23.390625 
Q 45.015625 31 40.078125 35.4375 
Q 35.15625 39.890625 26.703125 39.890625 
Q 22.75 39.890625 18.8125 39.015625 
Q 14.890625 38.140625 10.796875 36.28125 
z
" id="DejaVuSans-53"/>
      </defs>
      <g transform="translate(210.414417 512.630985)rotate(-45)scale(0.3 -0.3)">
       <use xlink:href="#DejaVuSans-53"/>
       <use x="63.623047" xlink:href="#DejaVuSans-48"/>
       <use x="127.246094" xlink:href="#DejaVuSans-48"/>
      </g>
     </g>
    </g>
    <g id="xtick_4">
     <g id="line2d_4">
      <g>
       <use style="stroke:#000000;stroke-width:0.8;" x="289.90625" xlink:href="#m31a46e87b2" y="449.021562"/>
      </g>
     </g>
     <g id="text_4">
      <!-- 1000 -->
      <g transform="translate(268.765967 526.127885)rotate(-45)scale(0.3 -0.3)">
       <use xlink:href="#DejaVuSans-49"/>
       <use x="63.623047" xlink:href="#DejaVuSans-48"/>
       <use x="127.246094" xlink:href="#DejaVuSans-48"/>
       <use x="190.869141" xlink:href="#DejaVuSans-48"/>
      </g>
     </g>
    </g>
    <g id="xtick_5">
     <g id="line2d_5">
      <g>
       <use style="stroke:#000000;stroke-width:0.8;" x="355.00625" xlink:href="#m31a46e87b2" y="449.021562"/>
      </g>
     </g>
     <g id="text_5">
      <!-- 5000 -->
      <g transform="translate(333.865967 526.127885)rotate(-45)scale(0.3 -0.3)">
       <use xlink:href="#DejaVuSans-53"/>
       <use x="63.623047" xlink:href="#DejaVuSans-48"/>
       <use x="127.246094" xlink:href="#DejaVuSans-48"/>
       <use x="190.869141" xlink:href="#DejaVuSans-48"/>
      </g>
     </g>
    </g>
    <g id="xtick_6">
     <g id="line2d_6">
      <g>
       <use style="stroke:#000000;stroke-width:0.8;" x="420.10625" xlink:href="#m31a46e87b2" y="449.021562"/>
      </g>
     </g>
     <g id="text_6">
      <!-- 10000 -->
      <g transform="translate(392.217517 539.624786)rotate(-45)scale(0.3 -0.3)">
       <use xlink:href="#DejaVuSans-49"/>
       <use x="63.623047" xlink:href="#DejaVuSans-48"/>
       <use x="127.246094" xlink:href="#DejaVuSans-48"/>
       <use x="190.869141" xlink:href="#DejaVuSans-48"/>
       <use x="254.492188" xlink:href="#DejaVuSans-48"/>
      </g>
     </g>
    </g>
    <g id="text_7">
     <!-- ANTIGENS CANCER -->
     <defs>
      <path d="M 71.828125 0 
L 56.109375 0 
L 49.859375 16.265625 
L 21.234375 16.265625 
L 15.328125 0 
L 0 0 
L 27.875 71.578125 
L 43.171875 71.578125 
z
M 45.21875 28.328125 
L 35.359375 54.890625 
L 25.6875 28.328125 
z
" id="Arial-BoldMT-65"/>
      <path d="M 7.421875 0 
L 7.421875 71.578125 
L 21.484375 71.578125 
L 50.78125 23.78125 
L 50.78125 71.578125 
L 64.203125 71.578125 
L 64.203125 0 
L 49.703125 0 
L 20.84375 46.6875 
L 20.84375 0 
z
" id="Arial-BoldMT-78"/>
      <path d="M 23.390625 0 
L 23.390625 59.46875 
L 2.15625 59.46875 
L 2.15625 71.578125 
L 59.03125 71.578125 
L 59.03125 59.46875 
L 37.84375 59.46875 
L 37.84375 0 
z
" id="Arial-BoldMT-84"/>
      <path d="M 6.84375 0 
L 6.84375 71.578125 
L 21.296875 71.578125 
L 21.296875 0 
z
" id="Arial-BoldMT-73"/>
      <path d="M 40.578125 26.3125 
L 40.578125 38.375 
L 71.734375 38.375 
L 71.734375 9.859375 
Q 67.1875 5.46875 58.5625 2.125 
Q 49.953125 -1.21875 41.109375 -1.21875 
Q 29.890625 -1.21875 21.53125 3.484375 
Q 13.1875 8.203125 8.984375 16.96875 
Q 4.78125 25.734375 4.78125 36.03125 
Q 4.78125 47.21875 9.46875 55.90625 
Q 14.15625 64.59375 23.1875 69.234375 
Q 30.078125 72.796875 40.328125 72.796875 
Q 53.65625 72.796875 61.15625 67.203125 
Q 68.65625 61.625 70.796875 51.765625 
L 56.453125 49.078125 
Q 54.9375 54.34375 50.75 57.390625 
Q 46.578125 60.453125 40.328125 60.453125 
Q 30.859375 60.453125 25.265625 54.4375 
Q 19.671875 48.4375 19.671875 36.625 
Q 19.671875 23.875 25.328125 17.5 
Q 31 11.140625 40.1875 11.140625 
Q 44.734375 11.140625 49.296875 12.921875 
Q 53.859375 14.703125 57.125 17.234375 
L 57.125 26.3125 
z
" id="Arial-BoldMT-71"/>
      <path d="M 7.28125 0 
L 7.28125 71.578125 
L 60.359375 71.578125 
L 60.359375 59.46875 
L 21.734375 59.46875 
L 21.734375 43.609375 
L 57.671875 43.609375 
L 57.671875 31.546875 
L 21.734375 31.546875 
L 21.734375 12.0625 
L 61.71875 12.0625 
L 61.71875 0 
z
" id="Arial-BoldMT-69"/>
      <path d="M 3.609375 23.296875 
L 17.671875 24.65625 
Q 18.953125 17.578125 22.828125 14.25 
Q 26.703125 10.9375 33.296875 10.9375 
Q 40.28125 10.9375 43.8125 13.890625 
Q 47.359375 16.84375 47.359375 20.796875 
Q 47.359375 23.34375 45.875 25.125 
Q 44.390625 26.90625 40.671875 28.21875 
Q 38.140625 29.109375 29.109375 31.34375 
Q 17.484375 34.234375 12.796875 38.421875 
Q 6.203125 44.34375 6.203125 52.828125 
Q 6.203125 58.296875 9.296875 63.0625 
Q 12.40625 67.828125 18.234375 70.3125 
Q 24.078125 72.796875 32.328125 72.796875 
Q 45.796875 72.796875 52.609375 66.890625 
Q 59.421875 60.984375 59.765625 51.125 
L 45.3125 50.484375 
Q 44.390625 56 41.328125 58.421875 
Q 38.28125 60.84375 32.171875 60.84375 
Q 25.875 60.84375 22.3125 58.25 
Q 20.015625 56.59375 20.015625 53.8125 
Q 20.015625 51.265625 22.171875 49.46875 
Q 24.90625 47.171875 35.453125 44.671875 
Q 46 42.1875 51.046875 39.515625 
Q 56.109375 36.859375 58.953125 32.25 
Q 61.8125 27.640625 61.8125 20.84375 
Q 61.8125 14.703125 58.390625 9.328125 
Q 54.984375 3.953125 48.734375 1.34375 
Q 42.484375 -1.265625 33.15625 -1.265625 
Q 19.578125 -1.265625 12.296875 5 
Q 5.03125 11.28125 3.609375 23.296875 
z
" id="Arial-BoldMT-83"/>
      <path id="Arial-BoldMT-32"/>
      <path d="M 53.078125 26.3125 
L 67.09375 21.875 
Q 63.875 10.15625 56.375 4.46875 
Q 48.875 -1.21875 37.359375 -1.21875 
Q 23.09375 -1.21875 13.90625 8.515625 
Q 4.734375 18.265625 4.734375 35.15625 
Q 4.734375 53.03125 13.953125 62.90625 
Q 23.1875 72.796875 38.234375 72.796875 
Q 51.375 72.796875 59.578125 65.046875 
Q 64.453125 60.453125 66.890625 51.859375 
L 52.59375 48.4375 
Q 51.3125 54 47.28125 57.21875 
Q 43.265625 60.453125 37.5 60.453125 
Q 29.546875 60.453125 24.578125 54.734375 
Q 19.625 49.03125 19.625 36.234375 
Q 19.625 22.65625 24.5 16.890625 
Q 29.390625 11.140625 37.203125 11.140625 
Q 42.96875 11.140625 47.109375 14.796875 
Q 51.265625 18.453125 53.078125 26.3125 
z
" id="Arial-BoldMT-67"/>
      <path d="M 7.328125 0 
L 7.328125 71.578125 
L 37.75 71.578125 
Q 49.21875 71.578125 54.421875 69.640625 
Q 59.625 67.71875 62.75 62.78125 
Q 65.875 57.859375 65.875 51.515625 
Q 65.875 43.453125 61.125 38.203125 
Q 56.390625 32.953125 46.96875 31.59375 
Q 51.65625 28.859375 54.703125 25.578125 
Q 57.765625 22.3125 62.9375 13.96875 
L 71.6875 0 
L 54.390625 0 
L 43.953125 15.578125 
Q 38.375 23.921875 36.328125 26.09375 
Q 34.28125 28.265625 31.984375 29.078125 
Q 29.6875 29.890625 24.703125 29.890625 
L 21.78125 29.890625 
L 21.78125 0 
z
M 21.78125 41.3125 
L 32.46875 41.3125 
Q 42.875 41.3125 45.453125 42.1875 
Q 48.046875 43.0625 49.515625 45.203125 
Q 50.984375 47.359375 50.984375 50.59375 
Q 50.984375 54.203125 49.046875 56.421875 
Q 47.125 58.640625 43.609375 59.234375 
Q 41.84375 59.46875 33.0625 59.46875 
L 21.78125 59.46875 
z
" id="Arial-BoldMT-82"/>
     </defs>
     <g transform="translate(160.128125 568.352094)scale(0.2 -0.2)">
      <use xlink:href="#Arial-BoldMT-65"/>
      <use x="72.216797" xlink:href="#Arial-BoldMT-78"/>
      <use x="144.433594" xlink:href="#Arial-BoldMT-84"/>
      <use x="205.517578" xlink:href="#Arial-BoldMT-73"/>
      <use x="233.300781" xlink:href="#Arial-BoldMT-71"/>
      <use x="311.083984" xlink:href="#Arial-BoldMT-69"/>
      <use x="377.783203" xlink:href="#Arial-BoldMT-78"/>
      <use x="450" xlink:href="#Arial-BoldMT-83"/>
      <use x="516.699219" xlink:href="#Arial-BoldMT-32"/>
      <use x="544.482422" xlink:href="#Arial-BoldMT-67"/>
      <use x="616.699219" xlink:href="#Arial-BoldMT-65"/>
      <use x="688.916016" xlink:href="#Arial-BoldMT-78"/>
      <use x="761.132812" xlink:href="#Arial-BoldMT-67"/>
      <use x="833.349609" xlink:href="#Arial-BoldMT-69"/>
      <use x="900.048828" xlink:href="#Arial-BoldMT-82"/>
     </g>
    </g>
   </g>
   <g id="matplotlib.axis_2">
    <g id="ytick_1">
     <g id="line2d_7">
      <defs>
       <path d="M 0 0 
L -3.5 0 
" id="m662c3b3a17" style="stroke:#000000;stroke-width:0.8;"/>
      </defs>
      <g>
       <use style="stroke:#000000;stroke-width:0.8;" x="62.05625" xlink:href="#m662c3b3a17" y="449.021562"/>
      </g>
     </g>
     <g id="text_8">
      <!-- 0 -->
      <g transform="translate(35.96875 460.419219)scale(0.3 -0.3)">
       <use xlink:href="#DejaVuSans-48"/>
      </g>
     </g>
    </g>
    <g id="ytick_2">
     <g id="line2d_8">
      <g>
       <use style="stroke:#000000;stroke-width:0.8;" x="62.05625" xlink:href="#m662c3b3a17" y="372.917562"/>
      </g>
     </g>
     <g id="text_9">
      <!-- 1 -->
      <g transform="translate(35.96875 384.315219)scale(0.3 -0.3)">
       <use xlink:href="#DejaVuSans-49"/>
      </g>
     </g>
    </g>
    <g id="ytick_3">
     <g id="line2d_9">
      <g>
       <use style="stroke:#000000;stroke-width:0.8;" x="62.05625" xlink:href="#m662c3b3a17" y="296.813562"/>
      </g>
     </g>
     <g id="text_10">
      <!-- 2 -->
      <defs>
       <path d="M 19.1875 8.296875 
L 53.609375 8.296875 
L 53.609375 0 
L 7.328125 0 
L 7.328125 8.296875 
Q 12.9375 14.109375 22.625 23.890625 
Q 32.328125 33.6875 34.8125 36.53125 
Q 39.546875 41.84375 41.421875 45.53125 
Q 43.3125 49.21875 43.3125 52.78125 
Q 43.3125 58.59375 39.234375 62.25 
Q 35.15625 65.921875 28.609375 65.921875 
Q 23.96875 65.921875 18.8125 64.3125 
Q 13.671875 62.703125 7.8125 59.421875 
L 7.8125 69.390625 
Q 13.765625 71.78125 18.9375 73 
Q 24.125 74.21875 28.421875 74.21875 
Q 39.75 74.21875 46.484375 68.546875 
Q 53.21875 62.890625 53.21875 53.421875 
Q 53.21875 48.921875 51.53125 44.890625 
Q 49.859375 40.875 45.40625 35.40625 
Q 44.1875 33.984375 37.640625 27.21875 
Q 31.109375 20.453125 19.1875 8.296875 
z
" id="DejaVuSans-50"/>
      </defs>
      <g transform="translate(35.96875 308.211219)scale(0.3 -0.3)">
       <use xlink:href="#DejaVuSans-50"/>
      </g>
     </g>
    </g>
    <g id="ytick_4">
     <g id="line2d_10">
      <g>
       <use style="stroke:#000000;stroke-width:0.8;" x="62.05625" xlink:href="#m662c3b3a17" y="220.709562"/>
      </g>
     </g>
     <g id="text_11">
      <!-- 3 -->
      <defs>
       <path d="M 40.578125 39.3125 
Q 47.65625 37.796875 51.625 33 
Q 55.609375 28.21875 55.609375 21.1875 
Q 55.609375 10.40625 48.1875 4.484375 
Q 40.765625 -1.421875 27.09375 -1.421875 
Q 22.515625 -1.421875 17.65625 -0.515625 
Q 12.796875 0.390625 7.625 2.203125 
L 7.625 11.71875 
Q 11.71875 9.328125 16.59375 8.109375 
Q 21.484375 6.890625 26.8125 6.890625 
Q 36.078125 6.890625 40.9375 10.546875 
Q 45.796875 14.203125 45.796875 21.1875 
Q 45.796875 27.640625 41.28125 31.265625 
Q 36.765625 34.90625 28.71875 34.90625 
L 20.21875 34.90625 
L 20.21875 43.015625 
L 29.109375 43.015625 
Q 36.375 43.015625 40.234375 45.921875 
Q 44.09375 48.828125 44.09375 54.296875 
Q 44.09375 59.90625 40.109375 62.90625 
Q 36.140625 65.921875 28.71875 65.921875 
Q 24.65625 65.921875 20.015625 65.03125 
Q 15.375 64.15625 9.8125 62.3125 
L 9.8125 71.09375 
Q 15.4375 72.65625 20.34375 73.4375 
Q 25.25 74.21875 29.59375 74.21875 
Q 40.828125 74.21875 47.359375 69.109375 
Q 53.90625 64.015625 53.90625 55.328125 
Q 53.90625 49.265625 50.4375 45.09375 
Q 46.96875 40.921875 40.578125 39.3125 
z
" id="DejaVuSans-51"/>
      </defs>
      <g transform="translate(35.96875 232.107219)scale(0.3 -0.3)">
       <use xlink:href="#DejaVuSans-51"/>
      </g>
     </g>
    </g>
    <g id="ytick_5">
     <g id="line2d_11">
      <g>
       <use style="stroke:#000000;stroke-width:0.8;" x="62.05625" xlink:href="#m662c3b3a17" y="144.605562"/>
      </g>
     </g>
     <g id="text_12">
      <!-- 4 -->
      <defs>
       <path d="M 37.796875 64.3125 
L 12.890625 25.390625 
L 37.796875 25.390625 
z
M 35.203125 72.90625 
L 47.609375 72.90625 
L 47.609375 25.390625 
L 58.015625 25.390625 
L 58.015625 17.1875 
L 47.609375 17.1875 
L 47.609375 0 
L 37.796875 0 
L 37.796875 17.1875 
L 4.890625 17.1875 
L 4.890625 26.703125 
z
" id="DejaVuSans-52"/>
      </defs>
      <g transform="translate(35.96875 156.003219)scale(0.3 -0.3)">
       <use xlink:href="#DejaVuSans-52"/>
      </g>
     </g>
    </g>
    <g id="ytick_6">
     <g id="line2d_12">
      <g>
       <use style="stroke:#000000;stroke-width:0.8;" x="62.05625" xlink:href="#m662c3b3a17" y="68.501562"/>
      </g>
     </g>
     <g id="text_13">
      <!-- 5 -->
      <g transform="translate(35.96875 79.899219)scale(0.3 -0.3)">
       <use xlink:href="#DejaVuSans-53"/>
      </g>
     </g>
    </g>
    <g id="text_14">
     <!-- GLUCOSE CONC (fmol/ml) -->
     <defs>
      <path d="M 7.671875 0 
L 7.671875 71 
L 22.125 71 
L 22.125 12.0625 
L 58.0625 12.0625 
L 58.0625 0 
z
" id="Arial-BoldMT-76"/>
      <path d="M 7.171875 71.578125 
L 21.625 71.578125 
L 21.625 32.8125 
Q 21.625 23.578125 22.171875 20.84375 
Q 23.09375 16.453125 26.578125 13.796875 
Q 30.078125 11.140625 36.140625 11.140625 
Q 42.28125 11.140625 45.40625 13.640625 
Q 48.53125 16.15625 49.171875 19.8125 
Q 49.8125 23.484375 49.8125 31.984375 
L 49.8125 71.578125 
L 64.265625 71.578125 
L 64.265625 33.984375 
Q 64.265625 21.09375 63.09375 15.765625 
Q 61.921875 10.453125 58.765625 6.78125 
Q 55.609375 3.125 50.328125 0.953125 
Q 45.0625 -1.21875 36.578125 -1.21875 
Q 26.3125 -1.21875 21.015625 1.140625 
Q 15.71875 3.515625 12.640625 7.296875 
Q 9.578125 11.078125 8.59375 15.234375 
Q 7.171875 21.390625 7.171875 33.40625 
z
" id="Arial-BoldMT-85"/>
      <path d="M 4.34375 35.359375 
Q 4.34375 46.296875 7.625 53.71875 
Q 10.0625 59.1875 14.28125 63.53125 
Q 18.5 67.875 23.53125 69.96875 
Q 30.21875 72.796875 38.96875 72.796875 
Q 54.78125 72.796875 64.28125 62.984375 
Q 73.78125 53.171875 73.78125 35.6875 
Q 73.78125 18.359375 64.359375 8.5625 
Q 54.9375 -1.21875 39.15625 -1.21875 
Q 23.1875 -1.21875 13.765625 8.515625 
Q 4.34375 18.265625 4.34375 35.359375 
z
M 19.234375 35.84375 
Q 19.234375 23.6875 24.84375 17.40625 
Q 30.46875 11.140625 39.109375 11.140625 
Q 47.75 11.140625 53.296875 17.359375 
Q 58.84375 23.578125 58.84375 36.03125 
Q 58.84375 48.34375 53.4375 54.390625 
Q 48.046875 60.453125 39.109375 60.453125 
Q 30.171875 60.453125 24.703125 54.3125 
Q 19.234375 48.1875 19.234375 35.84375 
z
" id="Arial-BoldMT-79"/>
      <path d="M 29.9375 -21.046875 
L 20.515625 -21.046875 
Q 13.03125 -9.765625 9.125 2.390625 
Q 5.21875 14.546875 5.21875 25.921875 
Q 5.21875 40.046875 10.0625 52.640625 
Q 14.265625 63.578125 20.703125 72.796875 
L 30.078125 72.796875 
Q 23.390625 58.015625 20.875 47.625 
Q 18.359375 37.25 18.359375 25.640625 
Q 18.359375 17.625 19.84375 9.21875 
Q 21.34375 0.828125 23.921875 -6.734375 
Q 25.640625 -11.71875 29.9375 -21.046875 
z
" id="Arial-BoldMT-40"/>
      <path d="M 1.171875 51.859375 
L 8.796875 51.859375 
L 8.796875 55.765625 
Q 8.796875 62.3125 10.1875 65.53125 
Q 11.578125 68.75 15.3125 70.765625 
Q 19.046875 72.796875 24.75 72.796875 
Q 30.609375 72.796875 36.234375 71.046875 
L 34.375 61.46875 
Q 31.109375 62.25 28.078125 62.25 
Q 25.09375 62.25 23.796875 60.859375 
Q 22.515625 59.46875 22.515625 55.515625 
L 22.515625 51.859375 
L 32.765625 51.859375 
L 32.765625 41.0625 
L 22.515625 41.0625 
L 22.515625 0 
L 8.796875 0 
L 8.796875 41.0625 
L 1.171875 41.0625 
z
" id="Arial-BoldMT-102"/>
      <path d="M 6.15625 51.859375 
L 18.796875 51.859375 
L 18.796875 44.78125 
Q 25.59375 53.03125 34.96875 53.03125 
Q 39.9375 53.03125 43.59375 50.96875 
Q 47.265625 48.921875 49.609375 44.78125 
Q 53.03125 48.921875 56.984375 50.96875 
Q 60.9375 53.03125 65.4375 53.03125 
Q 71.140625 53.03125 75.09375 50.703125 
Q 79.046875 48.390625 81 43.890625 
Q 82.421875 40.578125 82.421875 33.15625 
L 82.421875 0 
L 68.703125 0 
L 68.703125 29.640625 
Q 68.703125 37.359375 67.28125 39.59375 
Q 65.375 42.53125 61.421875 42.53125 
Q 58.546875 42.53125 56 40.765625 
Q 53.46875 39.015625 52.34375 35.625 
Q 51.21875 32.234375 51.21875 24.90625 
L 51.21875 0 
L 37.5 0 
L 37.5 28.421875 
Q 37.5 35.984375 36.765625 38.171875 
Q 36.03125 40.375 34.484375 41.453125 
Q 32.953125 42.53125 30.328125 42.53125 
Q 27.15625 42.53125 24.609375 40.8125 
Q 22.078125 39.109375 20.96875 35.890625 
Q 19.875 32.671875 19.875 25.203125 
L 19.875 0 
L 6.15625 0 
z
" id="Arial-BoldMT-109"/>
      <path d="M 4 26.65625 
Q 4 33.5 7.375 39.890625 
Q 10.75 46.296875 16.921875 49.65625 
Q 23.09375 53.03125 30.71875 53.03125 
Q 42.484375 53.03125 50 45.390625 
Q 57.515625 37.75 57.515625 26.078125 
Q 57.515625 14.3125 49.921875 6.5625 
Q 42.328125 -1.171875 30.8125 -1.171875 
Q 23.6875 -1.171875 17.21875 2.046875 
Q 10.75 5.28125 7.375 11.5 
Q 4 17.71875 4 26.65625 
z
M 18.0625 25.921875 
Q 18.0625 18.21875 21.71875 14.109375 
Q 25.390625 10.015625 30.765625 10.015625 
Q 36.140625 10.015625 39.765625 14.109375 
Q 43.40625 18.21875 43.40625 26.03125 
Q 43.40625 33.640625 39.765625 37.734375 
Q 36.140625 41.84375 30.765625 41.84375 
Q 25.390625 41.84375 21.71875 37.734375 
Q 18.0625 33.640625 18.0625 25.921875 
z
" id="Arial-BoldMT-111"/>
      <path d="M 7.171875 0 
L 7.171875 71.578125 
L 20.90625 71.578125 
L 20.90625 0 
z
" id="Arial-BoldMT-108"/>
      <path d="M -0.140625 -1.21875 
L 17.578125 72.796875 
L 27.875 72.796875 
L 9.96875 -1.21875 
z
" id="Arial-BoldMT-47"/>
      <path d="M 3.375 -21.046875 
Q 7.421875 -12.359375 9.078125 -7.71875 
Q 10.75 -3.078125 12.15625 2.96875 
Q 13.578125 9.03125 14.25 14.46875 
Q 14.9375 19.921875 14.9375 25.640625 
Q 14.9375 37.25 12.453125 47.625 
Q 9.96875 58.015625 3.265625 72.796875 
L 12.59375 72.796875 
Q 19.96875 62.3125 24.046875 50.53125 
Q 28.125 38.765625 28.125 26.65625 
Q 28.125 16.453125 24.90625 4.78125 
Q 21.234375 -8.296875 12.84375 -21.046875 
z
" id="Arial-BoldMT-41"/>
     </defs>
     <g transform="translate(21.759375 385.425625)rotate(-90)scale(0.2 -0.2)">
      <use xlink:href="#Arial-BoldMT-71"/>
      <use x="77.783203" xlink:href="#Arial-BoldMT-76"/>
      <use x="138.867188" xlink:href="#Arial-BoldMT-85"/>
      <use x="211.083984" xlink:href="#Arial-BoldMT-67"/>
      <use x="283.300781" xlink:href="#Arial-BoldMT-79"/>
      <use x="361.083984" xlink:href="#Arial-BoldMT-83"/>
      <use x="427.783203" xlink:href="#Arial-BoldMT-69"/>
      <use x="494.482422" xlink:href="#Arial-BoldMT-32"/>
      <use x="522.265625" xlink:href="#Arial-BoldMT-67"/>
      <use x="594.482422" xlink:href="#Arial-BoldMT-79"/>
      <use x="672.265625" xlink:href="#Arial-BoldMT-78"/>
      <use x="744.482422" xlink:href="#Arial-BoldMT-67"/>
      <use x="816.699219" xlink:href="#Arial-BoldMT-32"/>
      <use x="844.482422" xlink:href="#Arial-BoldMT-40"/>
      <use x="877.783203" xlink:href="#Arial-BoldMT-102"/>
      <use x="911.083984" xlink:href="#Arial-BoldMT-109"/>
      <use x="1000" xlink:href="#Arial-BoldMT-111"/>
      <use x="1061.083984" xlink:href="#Arial-BoldMT-108"/>
      <use x="1088.867188" xlink:href="#Arial-BoldMT-47"/>
      <use x="1116.650391" xlink:href="#Arial-BoldMT-109"/>
      <use x="1205.566406" xlink:href="#Arial-BoldMT-108"/>
      <use x="1233.349609" xlink:href="#Arial-BoldMT-41"/>
     </g>
    </g>
    <g id="text_15">
     <!-- 1e9 -->
     <defs>
      <path d="M 56.203125 29.59375 
L 56.203125 25.203125 
L 14.890625 25.203125 
Q 15.484375 15.921875 20.484375 11.0625 
Q 25.484375 6.203125 34.421875 6.203125 
Q 39.59375 6.203125 44.453125 7.46875 
Q 49.3125 8.734375 54.109375 11.28125 
L 54.109375 2.78125 
Q 49.265625 0.734375 44.1875 -0.34375 
Q 39.109375 -1.421875 33.890625 -1.421875 
Q 20.796875 -1.421875 13.15625 6.1875 
Q 5.515625 13.8125 5.515625 26.8125 
Q 5.515625 40.234375 12.765625 48.109375 
Q 20.015625 56 32.328125 56 
Q 43.359375 56 49.78125 48.890625 
Q 56.203125 41.796875 56.203125 29.59375 
z
M 47.21875 32.234375 
Q 47.125 39.59375 43.09375 43.984375 
Q 39.0625 48.390625 32.421875 48.390625 
Q 24.90625 48.390625 20.390625 44.140625 
Q 15.875 39.890625 15.1875 32.171875 
z
" id="DejaVuSans-101"/>
      <path d="M 10.984375 1.515625 
L 10.984375 10.5 
Q 14.703125 8.734375 18.5 7.8125 
Q 22.3125 6.890625 25.984375 6.890625 
Q 35.75 6.890625 40.890625 13.453125 
Q 46.046875 20.015625 46.78125 33.40625 
Q 43.953125 29.203125 39.59375 26.953125 
Q 35.25 24.703125 29.984375 24.703125 
Q 19.046875 24.703125 12.671875 31.3125 
Q 6.296875 37.9375 6.296875 49.421875 
Q 6.296875 60.640625 12.9375 67.421875 
Q 19.578125 74.21875 30.609375 74.21875 
Q 43.265625 74.21875 49.921875 64.515625 
Q 56.59375 54.828125 56.59375 36.375 
Q 56.59375 19.140625 48.40625 8.859375 
Q 40.234375 -1.421875 26.421875 -1.421875 
Q 22.703125 -1.421875 18.890625 -0.6875 
Q 15.09375 0.046875 10.984375 1.515625 
z
M 30.609375 32.421875 
Q 37.25 32.421875 41.125 36.953125 
Q 45.015625 41.5 45.015625 49.421875 
Q 45.015625 57.28125 41.125 61.84375 
Q 37.25 66.40625 30.609375 66.40625 
Q 23.96875 66.40625 20.09375 61.84375 
Q 16.21875 57.28125 16.21875 49.421875 
Q 16.21875 41.5 20.09375 36.953125 
Q 23.96875 32.421875 30.609375 32.421875 
z
" id="DejaVuSans-57"/>
     </defs>
     <g transform="translate(62.05625 65.501562)scale(0.1 -0.1)">
      <use xlink:href="#DejaVuSans-49"/>
      <use x="63.623047" xlink:href="#DejaVuSans-101"/>
      <use x="125.146484" xlink:href="#DejaVuSans-57"/>
     </g>
    </g>
   </g>
   <g id="line2d_13">
    <path clip-path="url(#p15113f74df)" d="M 77.24625 79.198237 
L 77.24625 78.398441 
" style="fill:none;stroke:#424242;stroke-linecap:square;stroke-width:2.7;"/>
   </g>
   <g id="line2d_14">
    <path clip-path="url(#p15113f74df)" d="M 73.99125 79.198237 
L 80.50125 79.198237 
" style="fill:none;stroke:#424242;stroke-linecap:square;stroke-width:2.7;"/>
   </g>
   <g id="line2d_15">
    <path clip-path="url(#p15113f74df)" d="M 73.99125 78.398441 
L 80.50125 78.398441 
" style="fill:none;stroke:#424242;stroke-linecap:square;stroke-width:2.7;"/>
   </g>
   <g id="line2d_16">
    <path clip-path="url(#p15113f74df)" d="M 142.34625 80.322844 
L 142.34625 79.464681 
" style="fill:none;stroke:#424242;stroke-linecap:square;stroke-width:2.7;"/>
   </g>
   <g id="line2d_17">
    <path clip-path="url(#p15113f74df)" d="M 139.09125 80.322844 
L 145.60125 80.322844 
" style="fill:none;stroke:#424242;stroke-linecap:square;stroke-width:2.7;"/>
   </g>
   <g id="line2d_18">
    <path clip-path="url(#p15113f74df)" d="M 139.09125 79.464681 
L 145.60125 79.464681 
" style="fill:none;stroke:#424242;stroke-linecap:square;stroke-width:2.7;"/>
   </g>
   <g id="line2d_19">
    <path clip-path="url(#p15113f74df)" d="M 207.44625 80.323002 
L 207.44625 79.503979 
" style="fill:none;stroke:#424242;stroke-linecap:square;stroke-width:2.7;"/>
   </g>
   <g id="line2d_20">
    <path clip-path="url(#p15113f74df)" d="M 204.19125 80.323002 
L 210.70125 80.323002 
" style="fill:none;stroke:#424242;stroke-linecap:square;stroke-width:2.7;"/>
   </g>
   <g id="line2d_21">
    <path clip-path="url(#p15113f74df)" d="M 204.19125 79.503979 
L 210.70125 79.503979 
" style="fill:none;stroke:#424242;stroke-linecap:square;stroke-width:2.7;"/>
   </g>
   <g id="line2d_22">
    <path clip-path="url(#p15113f74df)" d="M 272.54625 80.28726 
L 272.54625 79.532185 
" style="fill:none;stroke:#424242;stroke-linecap:square;stroke-width:2.7;"/>
   </g>
   <g id="line2d_23">
    <path clip-path="url(#p15113f74df)" d="M 269.29125 80.28726 
L 275.80125 80.28726 
" style="fill:none;stroke:#424242;stroke-linecap:square;stroke-width:2.7;"/>
   </g>
   <g id="line2d_24">
    <path clip-path="url(#p15113f74df)" d="M 269.29125 79.532185 
L 275.80125 79.532185 
" style="fill:none;stroke:#424242;stroke-linecap:square;stroke-width:2.7;"/>
   </g>
   <g id="line2d_25">
    <path clip-path="url(#p15113f74df)" d="M 337.64625 80.228931 
L 337.64625 79.255554 
" style="fill:none;stroke:#424242;stroke-linecap:square;stroke-width:2.7;"/>
   </g>
   <g id="line2d_26">
    <path clip-path="url(#p15113f74df)" d="M 334.39125 80.228931 
L 340.90125 80.228931 
" style="fill:none;stroke:#424242;stroke-linecap:square;stroke-width:2.7;"/>
   </g>
   <g id="line2d_27">
    <path clip-path="url(#p15113f74df)" d="M 334.39125 79.255554 
L 340.90125 79.255554 
" style="fill:none;stroke:#424242;stroke-linecap:square;stroke-width:2.7;"/>
   </g>
   <g id="line2d_28">
    <path clip-path="url(#p15113f74df)" d="M 402.74625 79.847355 
L 402.74625 79.110478 
" style="fill:none;stroke:#424242;stroke-linecap:square;stroke-width:2.7;"/>
   </g>
   <g id="line2d_29">
    <path clip-path="url(#p15113f74df)" d="M 399.49125 79.847355 
L 406.00125 79.847355 
" style="fill:none;stroke:#424242;stroke-linecap:square;stroke-width:2.7;"/>
   </g>
   <g id="line2d_30">
    <path clip-path="url(#p15113f74df)" d="M 399.49125 79.110478 
L 406.00125 79.110478 
" style="fill:none;stroke:#424242;stroke-linecap:square;stroke-width:2.7;"/>
   </g>
   <g id="line2d_31">
    <path clip-path="url(#p15113f74df)" d="M 94.60625 92.348874 
L 94.60625 91.335721 
" style="fill:none;stroke:#424242;stroke-linecap:square;stroke-width:2.7;"/>
   </g>
   <g id="line2d_32">
    <path clip-path="url(#p15113f74df)" d="M 91.35125 92.348874 
L 97.86125 92.348874 
" style="fill:none;stroke:#424242;stroke-linecap:square;stroke-width:2.7;"/>
   </g>
   <g id="line2d_33">
    <path clip-path="url(#p15113f74df)" d="M 91.35125 91.335721 
L 97.86125 91.335721 
" style="fill:none;stroke:#424242;stroke-linecap:square;stroke-width:2.7;"/>
   </g>
   <g id="line2d_34">
    <path clip-path="url(#p15113f74df)" d="M 159.70625 100.177445 
L 159.70625 98.539089 
" style="fill:none;stroke:#424242;stroke-linecap:square;stroke-width:2.7;"/>
   </g>
   <g id="line2d_35">
    <path clip-path="url(#p15113f74df)" d="M 156.45125 100.177445 
L 162.96125 100.177445 
" style="fill:none;stroke:#424242;stroke-linecap:square;stroke-width:2.7;"/>
   </g>
   <g id="line2d_36">
    <path clip-path="url(#p15113f74df)" d="M 156.45125 98.539089 
L 162.96125 98.539089 
" style="fill:none;stroke:#424242;stroke-linecap:square;stroke-width:2.7;"/>
   </g>
   <g id="line2d_37">
    <path clip-path="url(#p15113f74df)" d="M 224.80625 101.335986 
L 224.80625 100.031224 
" style="fill:none;stroke:#424242;stroke-linecap:square;stroke-width:2.7;"/>
   </g>
   <g id="line2d_38">
    <path clip-path="url(#p15113f74df)" d="M 221.55125 101.335986 
L 228.06125 101.335986 
" style="fill:none;stroke:#424242;stroke-linecap:square;stroke-width:2.7;"/>
   </g>
   <g id="line2d_39">
    <path clip-path="url(#p15113f74df)" d="M 221.55125 100.031224 
L 228.06125 100.031224 
" style="fill:none;stroke:#424242;stroke-linecap:square;stroke-width:2.7;"/>
   </g>
   <g id="line2d_40">
    <path clip-path="url(#p15113f74df)" d="M 289.90625 103.409116 
L 289.90625 101.541085 
" style="fill:none;stroke:#424242;stroke-linecap:square;stroke-width:2.7;"/>
   </g>
   <g id="line2d_41">
    <path clip-path="url(#p15113f74df)" d="M 286.65125 103.409116 
L 293.16125 103.409116 
" style="fill:none;stroke:#424242;stroke-linecap:square;stroke-width:2.7;"/>
   </g>
   <g id="line2d_42">
    <path clip-path="url(#p15113f74df)" d="M 286.65125 101.541085 
L 293.16125 101.541085 
" style="fill:none;stroke:#424242;stroke-linecap:square;stroke-width:2.7;"/>
   </g>
   <g id="line2d_43">
    <path clip-path="url(#p15113f74df)" d="M 355.00625 117.283152 
L 355.00625 112.826323 
" style="fill:none;stroke:#424242;stroke-linecap:square;stroke-width:2.7;"/>
   </g>
   <g id="line2d_44">
    <path clip-path="url(#p15113f74df)" d="M 351.75125 117.283152 
L 358.26125 117.283152 
" style="fill:none;stroke:#424242;stroke-linecap:square;stroke-width:2.7;"/>
   </g>
   <g id="line2d_45">
    <path clip-path="url(#p15113f74df)" d="M 351.75125 112.826323 
L 358.26125 112.826323 
" style="fill:none;stroke:#424242;stroke-linecap:square;stroke-width:2.7;"/>
   </g>
   <g id="line2d_46">
    <path clip-path="url(#p15113f74df)" d="M 420.10625 124.849865 
L 420.10625 119.936792 
" style="fill:none;stroke:#424242;stroke-linecap:square;stroke-width:2.7;"/>
   </g>
   <g id="line2d_47">
    <path clip-path="url(#p15113f74df)" d="M 416.85125 124.849865 
L 423.36125 124.849865 
" style="fill:none;stroke:#424242;stroke-linecap:square;stroke-width:2.7;"/>
   </g>
   <g id="line2d_48">
    <path clip-path="url(#p15113f74df)" d="M 416.85125 119.936792 
L 423.36125 119.936792 
" style="fill:none;stroke:#424242;stroke-linecap:square;stroke-width:2.7;"/>
   </g>
   <g id="line2d_49">
    <path clip-path="url(#p15113f74df)" d="M 111.96625 88.831083 
L 111.96625 88.304045 
" style="fill:none;stroke:#424242;stroke-linecap:square;stroke-width:2.7;"/>
   </g>
   <g id="line2d_50">
    <path clip-path="url(#p15113f74df)" d="M 108.71125 88.831083 
L 115.22125 88.831083 
" style="fill:none;stroke:#424242;stroke-linecap:square;stroke-width:2.7;"/>
   </g>
   <g id="line2d_51">
    <path clip-path="url(#p15113f74df)" d="M 108.71125 88.304045 
L 115.22125 88.304045 
" style="fill:none;stroke:#424242;stroke-linecap:square;stroke-width:2.7;"/>
   </g>
   <g id="line2d_52">
    <path clip-path="url(#p15113f74df)" d="M 177.06625 98.61717 
L 177.06625 96.780855 
" style="fill:none;stroke:#424242;stroke-linecap:square;stroke-width:2.7;"/>
   </g>
   <g id="line2d_53">
    <path clip-path="url(#p15113f74df)" d="M 173.81125 98.61717 
L 180.32125 98.61717 
" style="fill:none;stroke:#424242;stroke-linecap:square;stroke-width:2.7;"/>
   </g>
   <g id="line2d_54">
    <path clip-path="url(#p15113f74df)" d="M 173.81125 96.780855 
L 180.32125 96.780855 
" style="fill:none;stroke:#424242;stroke-linecap:square;stroke-width:2.7;"/>
   </g>
   <g id="line2d_55">
    <path clip-path="url(#p15113f74df)" d="M 242.16625 113.473472 
L 242.16625 109.531535 
" style="fill:none;stroke:#424242;stroke-linecap:square;stroke-width:2.7;"/>
   </g>
   <g id="line2d_56">
    <path clip-path="url(#p15113f74df)" d="M 238.91125 113.473472 
L 245.42125 113.473472 
" style="fill:none;stroke:#424242;stroke-linecap:square;stroke-width:2.7;"/>
   </g>
   <g id="line2d_57">
    <path clip-path="url(#p15113f74df)" d="M 238.91125 109.531535 
L 245.42125 109.531535 
" style="fill:none;stroke:#424242;stroke-linecap:square;stroke-width:2.7;"/>
   </g>
   <g id="line2d_58">
    <path clip-path="url(#p15113f74df)" d="M 307.26625 116.52309 
L 307.26625 113.474347 
" style="fill:none;stroke:#424242;stroke-linecap:square;stroke-width:2.7;"/>
   </g>
   <g id="line2d_59">
    <path clip-path="url(#p15113f74df)" d="M 304.01125 116.52309 
L 310.52125 116.52309 
" style="fill:none;stroke:#424242;stroke-linecap:square;stroke-width:2.7;"/>
   </g>
   <g id="line2d_60">
    <path clip-path="url(#p15113f74df)" d="M 304.01125 113.474347 
L 310.52125 113.474347 
" style="fill:none;stroke:#424242;stroke-linecap:square;stroke-width:2.7;"/>
   </g>
   <g id="line2d_61">
    <path clip-path="url(#p15113f74df)" d="M 372.36625 123.73247 
L 372.36625 118.831317 
" style="fill:none;stroke:#424242;stroke-linecap:square;stroke-width:2.7;"/>
   </g>
   <g id="line2d_62">
    <path clip-path="url(#p15113f74df)" d="M 369.11125 123.73247 
L 375.62125 123.73247 
" style="fill:none;stroke:#424242;stroke-linecap:square;stroke-width:2.7;"/>
   </g>
   <g id="line2d_63">
    <path clip-path="url(#p15113f74df)" d="M 369.11125 118.831317 
L 375.62125 118.831317 
" style="fill:none;stroke:#424242;stroke-linecap:square;stroke-width:2.7;"/>
   </g>
   <g id="line2d_64">
    <path clip-path="url(#p15113f74df)" d="M 437.46625 124.701533 
L 437.46625 121.757425 
" style="fill:none;stroke:#424242;stroke-linecap:square;stroke-width:2.7;"/>
   </g>
   <g id="line2d_65">
    <path clip-path="url(#p15113f74df)" d="M 434.21125 124.701533 
L 440.72125 124.701533 
" style="fill:none;stroke:#424242;stroke-linecap:square;stroke-width:2.7;"/>
   </g>
   <g id="line2d_66">
    <path clip-path="url(#p15113f74df)" d="M 434.21125 121.757425 
L 440.72125 121.757425 
" style="fill:none;stroke:#424242;stroke-linecap:square;stroke-width:2.7;"/>
   </g>
   <g id="patch_21">
    <path d="M 62.05625 449.021562 
L 62.05625 68.501562 
" style="fill:none;stroke:#000000;stroke-linecap:square;stroke-linejoin:miter;stroke-width:0.8;"/>
   </g>
   <g id="patch_22">
    <path d="M 452.65625 449.021562 
L 452.65625 68.501562 
" style="fill:none;stroke:#000000;stroke-linecap:square;stroke-linejoin:miter;stroke-width:0.8;"/>
   </g>
   <g id="patch_23">
    <path d="M 62.05625 449.021562 
L 452.65625 449.021562 
" style="fill:none;stroke:#000000;stroke-linecap:square;stroke-linejoin:miter;stroke-width:0.8;"/>
   </g>
   <g id="patch_24">
    <path d="M 62.05625 68.501562 
L 452.65625 68.501562 
" style="fill:none;stroke:#000000;stroke-linecap:square;stroke-linejoin:miter;stroke-width:0.8;"/>
   </g>
   <g id="PathCollection_4">
    <defs>
     <path d="M 0 2.5 
C 0.663008 2.5 1.29895 2.236584 1.767767 1.767767 
C 2.236584 1.29895 2.5 0.663008 2.5 0 
C 2.5 -0.663008 2.236584 -1.29895 1.767767 -1.767767 
C 1.29895 -2.236584 0.663008 -2.5 0 -2.5 
C -0.663008 -2.5 -1.29895 -2.236584 -1.767767 -1.767767 
C -2.236584 -1.29895 -2.5 -0.663008 -2.5 0 
C -2.5 0.663008 -2.236584 1.29895 -1.767767 1.767767 
C -1.29895 2.236584 -0.663008 2.5 0 2.5 
z
" id="C0_0_b5e455bc5f"/>
    </defs>
    <g clip-path="url(#p15113f74df)">
     <use style="fill:#222222;" x="77.24625" xlink:href="#C0_0_b5e455bc5f" y="79.31855"/>
    </g>
    <g clip-path="url(#p15113f74df)">
     <use style="fill:#222222;" x="71.996252" xlink:href="#C0_0_b5e455bc5f" y="79.314325"/>
    </g>
    <g clip-path="url(#p15113f74df)">
     <use style="fill:#222222;" x="82.495817" xlink:href="#C0_0_b5e455bc5f" y="79.252417"/>
    </g>
    <g clip-path="url(#p15113f74df)">
     <use style="fill:#222222;" x="68.73985" xlink:href="#C0_0_b5e455bc5f" y="79.074969"/>
    </g>
    <g clip-path="url(#p15113f74df)">
     <use style="fill:#222222;" x="85.75265" xlink:href="#C0_0_b5e455bc5f" y="78.849237"/>
    </g>
    <g clip-path="url(#p15113f74df)">
     <use style="fill:#222222;" x="68.73985" xlink:href="#C0_0_b5e455bc5f" y="78.60557"/>
    </g>
    <g clip-path="url(#p15113f74df)">
     <use style="fill:#222222;" x="85.75265" xlink:href="#C0_0_b5e455bc5f" y="78.594447"/>
    </g>
    <g clip-path="url(#p15113f74df)">
     <use style="fill:#222222;" x="68.73985" xlink:href="#C0_0_b5e455bc5f" y="78.437607"/>
    </g>
    <g clip-path="url(#p15113f74df)">
     <use style="fill:#222222;" x="85.75265" xlink:href="#C0_0_b5e455bc5f" y="78.322585"/>
    </g>
    <g clip-path="url(#p15113f74df)">
     <use style="fill:#222222;" x="68.73985" xlink:href="#C0_0_b5e455bc5f" y="78.213685"/>
    </g>
   </g>
   <g id="PathCollection_5">
    <defs>
     <path d="M 0 2.5 
C 0.663008 2.5 1.29895 2.236584 1.767767 1.767767 
C 2.236584 1.29895 2.5 0.663008 2.5 0 
C 2.5 -0.663008 2.236584 -1.29895 1.767767 -1.767767 
C 1.29895 -2.236584 0.663008 -2.5 0 -2.5 
C -0.663008 -2.5 -1.29895 -2.236584 -1.767767 -1.767767 
C -2.236584 -1.29895 -2.5 -0.663008 -2.5 0 
C -2.5 0.663008 -2.236584 1.29895 -1.767767 1.767767 
C -1.29895 2.236584 -0.663008 2.5 0 2.5 
z
" id="C1_0_553bf509a1"/>
    </defs>
    <g clip-path="url(#p15113f74df)">
     <use style="fill:#111111;" x="94.60625" xlink:href="#C1_0_553bf509a1" y="92.627197"/>
    </g>
    <g clip-path="url(#p15113f74df)">
     <use style="fill:#111111;" x="89.357612" xlink:href="#C1_0_553bf509a1" y="92.509847"/>
    </g>
    <g clip-path="url(#p15113f74df)">
     <use style="fill:#111111;" x="99.850373" xlink:href="#C1_0_553bf509a1" y="92.38353"/>
    </g>
    <g clip-path="url(#p15113f74df)">
     <use style="fill:#111111;" x="86.09985" xlink:href="#C1_0_553bf509a1" y="91.902835"/>
    </g>
    <g clip-path="url(#p15113f74df)">
     <use style="fill:#111111;" x="103.11265" xlink:href="#C1_0_553bf509a1" y="91.857482"/>
    </g>
    <g clip-path="url(#p15113f74df)">
     <use style="fill:#111111;" x="86.09985" xlink:href="#C1_0_553bf509a1" y="91.803506"/>
    </g>
    <g clip-path="url(#p15113f74df)">
     <use style="fill:#111111;" x="103.11265" xlink:href="#C1_0_553bf509a1" y="91.60959"/>
    </g>
    <g clip-path="url(#p15113f74df)">
     <use style="fill:#111111;" x="86.09985" xlink:href="#C1_0_553bf509a1" y="91.413777"/>
    </g>
    <g clip-path="url(#p15113f74df)">
     <use style="fill:#111111;" x="103.11265" xlink:href="#C1_0_553bf509a1" y="91.281683"/>
    </g>
    <g clip-path="url(#p15113f74df)">
     <use style="fill:#111111;" x="86.09985" xlink:href="#C1_0_553bf509a1" y="91.033532"/>
    </g>
   </g>
   <g id="PathCollection_6">
    <defs>
     <path d="M 0 2.5 
C 0.663008 2.5 1.29895 2.236584 1.767767 1.767767 
C 2.236584 1.29895 2.5 0.663008 2.5 0 
C 2.5 -0.663008 2.236584 -1.29895 1.767767 -1.767767 
C 1.29895 -2.236584 0.663008 -2.5 0 -2.5 
C -0.663008 -2.5 -1.29895 -2.236584 -1.767767 -1.767767 
C -2.236584 -1.29895 -2.5 -0.663008 -2.5 0 
C -2.5 0.663008 -2.236584 1.29895 -1.767767 1.767767 
C -1.29895 2.236584 -0.663008 2.5 0 2.5 
z
" id="C2_0_39161f1e39"/>
    </defs>
    <g clip-path="url(#p15113f74df)">
     <use x="111.96625" xlink:href="#C2_0_39161f1e39" y="88.91037"/>
    </g>
    <g clip-path="url(#p15113f74df)">
     <use x="106.716933" xlink:href="#C2_0_39161f1e39" y="88.827251"/>
    </g>
    <g clip-path="url(#p15113f74df)">
     <use x="117.214508" xlink:href="#C2_0_39161f1e39" y="88.777673"/>
    </g>
    <g clip-path="url(#p15113f74df)">
     <use x="120.47265" xlink:href="#C2_0_39161f1e39" y="88.717403"/>
    </g>
    <g clip-path="url(#p15113f74df)">
     <use x="103.45985" xlink:href="#C2_0_39161f1e39" y="88.656357"/>
    </g>
    <g clip-path="url(#p15113f74df)">
     <use x="103.45985" xlink:href="#C2_0_39161f1e39" y="88.639198"/>
    </g>
    <g clip-path="url(#p15113f74df)">
     <use x="120.47265" xlink:href="#C2_0_39161f1e39" y="88.417346"/>
    </g>
    <g clip-path="url(#p15113f74df)">
     <use x="120.47265" xlink:href="#C2_0_39161f1e39" y="88.387944"/>
    </g>
    <g clip-path="url(#p15113f74df)">
     <use x="103.45985" xlink:href="#C2_0_39161f1e39" y="88.345091"/>
    </g>
    <g clip-path="url(#p15113f74df)">
     <use x="120.47265" xlink:href="#C2_0_39161f1e39" y="87.997007"/>
    </g>
   </g>
   <g id="PathCollection_7">
    <defs>
     <path d="M 0 2.5 
C 0.663008 2.5 1.29895 2.236584 1.767767 1.767767 
C 2.236584 1.29895 2.5 0.663008 2.5 0 
C 2.5 -0.663008 2.236584 -1.29895 1.767767 -1.767767 
C 1.29895 -2.236584 0.663008 -2.5 0 -2.5 
C -0.663008 -2.5 -1.29895 -2.236584 -1.767767 -1.767767 
C -2.236584 -1.29895 -2.5 -0.663008 -2.5 0 
C -2.5 0.663008 -2.236584 1.29895 -1.767767 1.767767 
C -1.29895 2.236584 -0.663008 2.5 0 2.5 
z
" id="C3_0_dab85cc1bc"/>
    </defs>
    <g clip-path="url(#p15113f74df)">
     <use style="fill:#222222;" x="142.34625" xlink:href="#C3_0_dab85cc1bc" y="80.564907"/>
    </g>
    <g clip-path="url(#p15113f74df)">
     <use style="fill:#222222;" x="137.096938" xlink:href="#C3_0_dab85cc1bc" y="80.481529"/>
    </g>
    <g clip-path="url(#p15113f74df)">
     <use style="fill:#222222;" x="147.588733" xlink:href="#C3_0_dab85cc1bc" y="80.289338"/>
    </g>
    <g clip-path="url(#p15113f74df)">
     <use style="fill:#222222;" x="133.83985" xlink:href="#C3_0_dab85cc1bc" y="80.107752"/>
    </g>
    <g clip-path="url(#p15113f74df)">
     <use style="fill:#222222;" x="150.85265" xlink:href="#C3_0_dab85cc1bc" y="79.932546"/>
    </g>
    <g clip-path="url(#p15113f74df)">
     <use style="fill:#222222;" x="133.83985" xlink:href="#C3_0_dab85cc1bc" y="79.762255"/>
    </g>
    <g clip-path="url(#p15113f74df)">
     <use style="fill:#222222;" x="150.85265" xlink:href="#C3_0_dab85cc1bc" y="79.608433"/>
    </g>
    <g clip-path="url(#p15113f74df)">
     <use style="fill:#222222;" x="133.83985" xlink:href="#C3_0_dab85cc1bc" y="79.418138"/>
    </g>
    <g clip-path="url(#p15113f74df)">
     <use style="fill:#222222;" x="150.85265" xlink:href="#C3_0_dab85cc1bc" y="79.414603"/>
    </g>
    <g clip-path="url(#p15113f74df)">
     <use style="fill:#222222;" x="133.83985" xlink:href="#C3_0_dab85cc1bc" y="79.358126"/>
    </g>
   </g>
   <g id="PathCollection_8">
    <defs>
     <path d="M 0 2.5 
C 0.663008 2.5 1.29895 2.236584 1.767767 1.767767 
C 2.236584 1.29895 2.5 0.663008 2.5 0 
C 2.5 -0.663008 2.236584 -1.29895 1.767767 -1.767767 
C 1.29895 -2.236584 0.663008 -2.5 0 -2.5 
C -0.663008 -2.5 -1.29895 -2.236584 -1.767767 -1.767767 
C -2.236584 -1.29895 -2.5 -0.663008 -2.5 0 
C -2.5 0.663008 -2.236584 1.29895 -1.767767 1.767767 
C -1.29895 2.236584 -0.663008 2.5 0 2.5 
z
" id="C4_0_94a92bad17"/>
    </defs>
    <g clip-path="url(#p15113f74df)">
     <use style="fill:#111111;" x="159.70625" xlink:href="#C4_0_94a92bad17" y="100.622335"/>
    </g>
    <g clip-path="url(#p15113f74df)">
     <use style="fill:#111111;" x="154.465674" xlink:href="#C4_0_94a92bad17" y="100.313828"/>
    </g>
    <g clip-path="url(#p15113f74df)">
     <use style="fill:#111111;" x="164.944803" xlink:href="#C4_0_94a92bad17" y="100.282356"/>
    </g>
    <g clip-path="url(#p15113f74df)">
     <use style="fill:#111111;" x="151.19985" xlink:href="#C4_0_94a92bad17" y="99.455475"/>
    </g>
    <g clip-path="url(#p15113f74df)">
     <use style="fill:#111111;" x="168.21265" xlink:href="#C4_0_94a92bad17" y="99.29372"/>
    </g>
    <g clip-path="url(#p15113f74df)">
     <use style="fill:#111111;" x="168.21265" xlink:href="#C4_0_94a92bad17" y="99.159212"/>
    </g>
    <g clip-path="url(#p15113f74df)">
     <use style="fill:#111111;" x="151.19985" xlink:href="#C4_0_94a92bad17" y="99.059452"/>
    </g>
    <g clip-path="url(#p15113f74df)">
     <use style="fill:#111111;" x="168.21265" xlink:href="#C4_0_94a92bad17" y="99.041086"/>
    </g>
    <g clip-path="url(#p15113f74df)">
     <use style="fill:#111111;" x="151.19985" xlink:href="#C4_0_94a92bad17" y="98.574187"/>
    </g>
    <g clip-path="url(#p15113f74df)">
     <use style="fill:#111111;" x="168.21265" xlink:href="#C4_0_94a92bad17" y="97.78102"/>
    </g>
   </g>
   <g id="PathCollection_9">
    <defs>
     <path d="M 0 2.5 
C 0.663008 2.5 1.29895 2.236584 1.767767 1.767767 
C 2.236584 1.29895 2.5 0.663008 2.5 0 
C 2.5 -0.663008 2.236584 -1.29895 1.767767 -1.767767 
C 1.29895 -2.236584 0.663008 -2.5 0 -2.5 
C -0.663008 -2.5 -1.29895 -2.236584 -1.767767 -1.767767 
C -2.236584 -1.29895 -2.5 -0.663008 -2.5 0 
C -2.5 0.663008 -2.236584 1.29895 -1.767767 1.767767 
C -1.29895 2.236584 -0.663008 2.5 0 2.5 
z
" id="C5_0_3f369267e3"/>
    </defs>
    <g clip-path="url(#p15113f74df)">
     <use x="177.06625" xlink:href="#C5_0_3f369267e3" y="99.588949"/>
    </g>
    <g clip-path="url(#p15113f74df)">
     <use x="171.871466" xlink:href="#C5_0_3f369267e3" y="98.843808"/>
    </g>
    <g clip-path="url(#p15113f74df)">
     <use x="182.041612" xlink:href="#C5_0_3f369267e3" y="97.944671"/>
    </g>
    <g clip-path="url(#p15113f74df)">
     <use x="185.57265" xlink:href="#C5_0_3f369267e3" y="97.899577"/>
    </g>
    <g clip-path="url(#p15113f74df)">
     <use x="168.55985" xlink:href="#C5_0_3f369267e3" y="97.615902"/>
    </g>
    <g clip-path="url(#p15113f74df)">
     <use x="185.57265" xlink:href="#C5_0_3f369267e3" y="97.582103"/>
    </g>
    <g clip-path="url(#p15113f74df)">
     <use x="168.55985" xlink:href="#C5_0_3f369267e3" y="97.279631"/>
    </g>
    <g clip-path="url(#p15113f74df)">
     <use x="185.57265" xlink:href="#C5_0_3f369267e3" y="97.274372"/>
    </g>
    <g clip-path="url(#p15113f74df)">
     <use x="168.55985" xlink:href="#C5_0_3f369267e3" y="96.705384"/>
    </g>
    <g clip-path="url(#p15113f74df)">
     <use x="185.57265" xlink:href="#C5_0_3f369267e3" y="96.25573"/>
    </g>
   </g>
   <g id="PathCollection_10">
    <defs>
     <path d="M 0 2.5 
C 0.663008 2.5 1.29895 2.236584 1.767767 1.767767 
C 2.236584 1.29895 2.5 0.663008 2.5 0 
C 2.5 -0.663008 2.236584 -1.29895 1.767767 -1.767767 
C 1.29895 -2.236584 0.663008 -2.5 0 -2.5 
C -0.663008 -2.5 -1.29895 -2.236584 -1.767767 -1.767767 
C -2.236584 -1.29895 -2.5 -0.663008 -2.5 0 
C -2.5 0.663008 -2.236584 1.29895 -1.767767 1.767767 
C -1.29895 2.236584 -0.663008 2.5 0 2.5 
z
" id="C6_0_dfd8b9953e"/>
    </defs>
    <g clip-path="url(#p15113f74df)">
     <use style="fill:#222222;" x="207.44625" xlink:href="#C6_0_dfd8b9953e" y="80.575685"/>
    </g>
    <g clip-path="url(#p15113f74df)">
     <use style="fill:#222222;" x="202.198152" xlink:href="#C6_0_dfd8b9953e" y="80.437038"/>
    </g>
    <g clip-path="url(#p15113f74df)">
     <use style="fill:#222222;" x="212.692993" xlink:href="#C6_0_dfd8b9953e" y="80.394271"/>
    </g>
    <g clip-path="url(#p15113f74df)">
     <use style="fill:#222222;" x="198.93985" xlink:href="#C6_0_dfd8b9953e" y="80.043343"/>
    </g>
    <g clip-path="url(#p15113f74df)">
     <use style="fill:#222222;" x="215.95265" xlink:href="#C6_0_dfd8b9953e" y="79.924786"/>
    </g>
    <g clip-path="url(#p15113f74df)">
     <use style="fill:#222222;" x="215.95265" xlink:href="#C6_0_dfd8b9953e" y="79.728628"/>
    </g>
    <g clip-path="url(#p15113f74df)">
     <use style="fill:#222222;" x="198.93985" xlink:href="#C6_0_dfd8b9953e" y="79.623177"/>
    </g>
    <g clip-path="url(#p15113f74df)">
     <use style="fill:#222222;" x="198.93985" xlink:href="#C6_0_dfd8b9953e" y="79.514794"/>
    </g>
    <g clip-path="url(#p15113f74df)">
     <use style="fill:#222222;" x="215.95265" xlink:href="#C6_0_dfd8b9953e" y="79.484357"/>
    </g>
    <g clip-path="url(#p15113f74df)">
     <use style="fill:#222222;" x="198.93985" xlink:href="#C6_0_dfd8b9953e" y="79.408826"/>
    </g>
   </g>
   <g id="PathCollection_11">
    <defs>
     <path d="M 0 2.5 
C 0.663008 2.5 1.29895 2.236584 1.767767 1.767767 
C 2.236584 1.29895 2.5 0.663008 2.5 0 
C 2.5 -0.663008 2.236584 -1.29895 1.767767 -1.767767 
C 1.29895 -2.236584 0.663008 -2.5 0 -2.5 
C -0.663008 -2.5 -1.29895 -2.236584 -1.767767 -1.767767 
C -2.236584 -1.29895 -2.5 -0.663008 -2.5 0 
C -2.5 0.663008 -2.236584 1.29895 -1.767767 1.767767 
C -1.29895 2.236584 -0.663008 2.5 0 2.5 
z
" id="C7_0_379f96a736"/>
    </defs>
    <g clip-path="url(#p15113f74df)">
     <use style="fill:#111111;" x="224.80625" xlink:href="#C7_0_379f96a736" y="102.122706"/>
    </g>
    <g clip-path="url(#p15113f74df)">
     <use style="fill:#111111;" x="219.628096" xlink:href="#C7_0_379f96a736" y="101.273407"/>
    </g>
    <g clip-path="url(#p15113f74df)">
     <use style="fill:#111111;" x="229.979958" xlink:href="#C7_0_379f96a736" y="101.247712"/>
    </g>
    <g clip-path="url(#p15113f74df)">
     <use style="fill:#111111;" x="233.31265" xlink:href="#C7_0_379f96a736" y="100.779692"/>
    </g>
    <g clip-path="url(#p15113f74df)">
     <use style="fill:#111111;" x="216.29985" xlink:href="#C7_0_379f96a736" y="100.510503"/>
    </g>
    <g clip-path="url(#p15113f74df)">
     <use style="fill:#111111;" x="216.29985" xlink:href="#C7_0_379f96a736" y="100.490241"/>
    </g>
    <g clip-path="url(#p15113f74df)">
     <use style="fill:#111111;" x="233.31265" xlink:href="#C7_0_379f96a736" y="100.265715"/>
    </g>
    <g clip-path="url(#p15113f74df)">
     <use style="fill:#111111;" x="216.29985" xlink:href="#C7_0_379f96a736" y="100.198375"/>
    </g>
    <g clip-path="url(#p15113f74df)">
     <use style="fill:#111111;" x="233.31265" xlink:href="#C7_0_379f96a736" y="100.085078"/>
    </g>
    <g clip-path="url(#p15113f74df)">
     <use style="fill:#111111;" x="216.29985" xlink:href="#C7_0_379f96a736" y="99.862622"/>
    </g>
   </g>
   <g id="PathCollection_12">
    <defs>
     <path d="M 0 2.5 
C 0.663008 2.5 1.29895 2.236584 1.767767 1.767767 
C 2.236584 1.29895 2.5 0.663008 2.5 0 
C 2.5 -0.663008 2.236584 -1.29895 1.767767 -1.767767 
C 1.29895 -2.236584 0.663008 -2.5 0 -2.5 
C -0.663008 -2.5 -1.29895 -2.236584 -1.767767 -1.767767 
C -2.236584 -1.29895 -2.5 -0.663008 -2.5 0 
C -2.5 0.663008 -2.236584 1.29895 -1.767767 1.767767 
C -1.29895 2.236584 -0.663008 2.5 0 2.5 
z
" id="C8_0_f0a662fdc7"/>
    </defs>
    <g clip-path="url(#p15113f74df)">
     <use x="242.16625" xlink:href="#C8_0_f0a662fdc7" y="114.443492"/>
    </g>
    <g clip-path="url(#p15113f74df)">
     <use x="236.970443" xlink:href="#C8_0_f0a662fdc7" y="113.705249"/>
    </g>
    <g clip-path="url(#p15113f74df)">
     <use x="247.138584" xlink:href="#C8_0_f0a662fdc7" y="112.79042"/>
    </g>
    <g clip-path="url(#p15113f74df)">
     <use x="250.67265" xlink:href="#C8_0_f0a662fdc7" y="112.297137"/>
    </g>
    <g clip-path="url(#p15113f74df)">
     <use x="233.65985" xlink:href="#C8_0_f0a662fdc7" y="111.597349"/>
    </g>
    <g clip-path="url(#p15113f74df)">
     <use x="233.65985" xlink:href="#C8_0_f0a662fdc7" y="111.502072"/>
    </g>
    <g clip-path="url(#p15113f74df)">
     <use x="250.67265" xlink:href="#C8_0_f0a662fdc7" y="110.945846"/>
    </g>
    <g clip-path="url(#p15113f74df)">
     <use x="233.65985" xlink:href="#C8_0_f0a662fdc7" y="110.822374"/>
    </g>
    <g clip-path="url(#p15113f74df)">
     <use x="250.67265" xlink:href="#C8_0_f0a662fdc7" y="109.832962"/>
    </g>
    <g clip-path="url(#p15113f74df)">
     <use x="242.16625" xlink:href="#C8_0_f0a662fdc7" y="107.088131"/>
    </g>
   </g>
   <g id="PathCollection_13">
    <defs>
     <path d="M 0 2.5 
C 0.663008 2.5 1.29895 2.236584 1.767767 1.767767 
C 2.236584 1.29895 2.5 0.663008 2.5 0 
C 2.5 -0.663008 2.236584 -1.29895 1.767767 -1.767767 
C 1.29895 -2.236584 0.663008 -2.5 0 -2.5 
C -0.663008 -2.5 -1.29895 -2.236584 -1.767767 -1.767767 
C -2.236584 -1.29895 -2.5 -0.663008 -2.5 0 
C -2.5 0.663008 -2.236584 1.29895 -1.767767 1.767767 
C -1.29895 2.236584 -0.663008 2.5 0 2.5 
z
" id="C9_0_79fef0c7ff"/>
    </defs>
    <g clip-path="url(#p15113f74df)">
     <use style="fill:#222222;" x="272.54625" xlink:href="#C9_0_79fef0c7ff" y="80.52033"/>
    </g>
    <g clip-path="url(#p15113f74df)">
     <use style="fill:#222222;" x="267.297214" xlink:href="#C9_0_79fef0c7ff" y="80.421604"/>
    </g>
    <g clip-path="url(#p15113f74df)">
     <use style="fill:#222222;" x="277.790547" xlink:href="#C9_0_79fef0c7ff" y="80.280284"/>
    </g>
    <g clip-path="url(#p15113f74df)">
     <use style="fill:#222222;" x="264.03985" xlink:href="#C9_0_79fef0c7ff" y="80.014285"/>
    </g>
    <g clip-path="url(#p15113f74df)">
     <use style="fill:#222222;" x="281.05265" xlink:href="#C9_0_79fef0c7ff" y="79.952205"/>
    </g>
    <g clip-path="url(#p15113f74df)">
     <use style="fill:#222222;" x="264.03985" xlink:href="#C9_0_79fef0c7ff" y="79.781483"/>
    </g>
    <g clip-path="url(#p15113f74df)">
     <use style="fill:#222222;" x="281.05265" xlink:href="#C9_0_79fef0c7ff" y="79.72561"/>
    </g>
    <g clip-path="url(#p15113f74df)">
     <use style="fill:#222222;" x="264.03985" xlink:href="#C9_0_79fef0c7ff" y="79.492549"/>
    </g>
    <g clip-path="url(#p15113f74df)">
     <use style="fill:#222222;" x="281.05265" xlink:href="#C9_0_79fef0c7ff" y="79.481684"/>
    </g>
    <g clip-path="url(#p15113f74df)">
     <use style="fill:#222222;" x="264.03985" xlink:href="#C9_0_79fef0c7ff" y="79.427191"/>
    </g>
   </g>
   <g id="PathCollection_14">
    <defs>
     <path d="M 0 2.5 
C 0.663008 2.5 1.29895 2.236584 1.767767 1.767767 
C 2.236584 1.29895 2.5 0.663008 2.5 0 
C 2.5 -0.663008 2.236584 -1.29895 1.767767 -1.767767 
C 1.29895 -2.236584 0.663008 -2.5 0 -2.5 
C -0.663008 -2.5 -1.29895 -2.236584 -1.767767 -1.767767 
C -2.236584 -1.29895 -2.5 -0.663008 -2.5 0 
C -2.5 0.663008 -2.236584 1.29895 -1.767767 1.767767 
C -1.29895 2.236584 -0.663008 2.5 0 2.5 
z
" id="Ca_0_d648d6bd15"/>
    </defs>
    <g clip-path="url(#p15113f74df)">
     <use style="fill:#111111;" x="289.90625" xlink:href="#Ca_0_d648d6bd15" y="103.816475"/>
    </g>
    <g clip-path="url(#p15113f74df)">
     <use style="fill:#111111;" x="284.656298" xlink:href="#Ca_0_d648d6bd15" y="103.794402"/>
    </g>
    <g clip-path="url(#p15113f74df)">
     <use style="fill:#111111;" x="295.086547" xlink:href="#Ca_0_d648d6bd15" y="102.979851"/>
    </g>
    <g clip-path="url(#p15113f74df)">
     <use style="fill:#111111;" x="281.39985" xlink:href="#Ca_0_d648d6bd15" y="102.763948"/>
    </g>
    <g clip-path="url(#p15113f74df)">
     <use style="fill:#111111;" x="298.41265" xlink:href="#Ca_0_d648d6bd15" y="102.69221"/>
    </g>
    <g clip-path="url(#p15113f74df)">
     <use style="fill:#111111;" x="281.39985" xlink:href="#Ca_0_d648d6bd15" y="102.593657"/>
    </g>
    <g clip-path="url(#p15113f74df)">
     <use style="fill:#111111;" x="298.41265" xlink:href="#Ca_0_d648d6bd15" y="102.090286"/>
    </g>
    <g clip-path="url(#p15113f74df)">
     <use style="fill:#111111;" x="281.39985" xlink:href="#Ca_0_d648d6bd15" y="101.740737"/>
    </g>
    <g clip-path="url(#p15113f74df)">
     <use style="fill:#111111;" x="298.41265" xlink:href="#Ca_0_d648d6bd15" y="101.654858"/>
    </g>
    <g clip-path="url(#p15113f74df)">
     <use style="fill:#111111;" x="281.39985" xlink:href="#Ca_0_d648d6bd15" y="100.624577"/>
    </g>
   </g>
   <g id="PathCollection_15">
    <defs>
     <path d="M 0 2.5 
C 0.663008 2.5 1.29895 2.236584 1.767767 1.767767 
C 2.236584 1.29895 2.5 0.663008 2.5 0 
C 2.5 -0.663008 2.236584 -1.29895 1.767767 -1.767767 
C 1.29895 -2.236584 0.663008 -2.5 0 -2.5 
C -0.663008 -2.5 -1.29895 -2.236584 -1.767767 -1.767767 
C -2.236584 -1.29895 -2.5 -0.663008 -2.5 0 
C -2.5 0.663008 -2.236584 1.29895 -1.767767 1.767767 
C -1.29895 2.236584 -0.663008 2.5 0 2.5 
z
" id="Cb_0_347a460e13"/>
    </defs>
    <g clip-path="url(#p15113f74df)">
     <use x="307.26625" xlink:href="#Cb_0_347a460e13" y="117.976749"/>
    </g>
    <g clip-path="url(#p15113f74df)">
     <use x="302.288025" xlink:href="#Cb_0_347a460e13" y="116.340835"/>
    </g>
    <g clip-path="url(#p15113f74df)">
     <use x="311.959665" xlink:href="#Cb_0_347a460e13" y="115.668466"/>
    </g>
    <g clip-path="url(#p15113f74df)">
     <use x="315.77265" xlink:href="#Cb_0_347a460e13" y="115.3716"/>
    </g>
    <g clip-path="url(#p15113f74df)">
     <use x="298.75985" xlink:href="#Cb_0_347a460e13" y="115.176131"/>
    </g>
    <g clip-path="url(#p15113f74df)">
     <use x="315.77265" xlink:href="#Cb_0_347a460e13" y="115.156041"/>
    </g>
    <g clip-path="url(#p15113f74df)">
     <use x="298.75985" xlink:href="#Cb_0_347a460e13" y="115.093874"/>
    </g>
    <g clip-path="url(#p15113f74df)">
     <use x="315.77265" xlink:href="#Cb_0_347a460e13" y="113.67464"/>
    </g>
    <g clip-path="url(#p15113f74df)">
     <use x="298.75985" xlink:href="#Cb_0_347a460e13" y="113.061851"/>
    </g>
    <g clip-path="url(#p15113f74df)">
     <use x="307.26625" xlink:href="#Cb_0_347a460e13" y="112.466997"/>
    </g>
   </g>
   <g id="PathCollection_16">
    <defs>
     <path d="M 0 2.5 
C 0.663008 2.5 1.29895 2.236584 1.767767 1.767767 
C 2.236584 1.29895 2.5 0.663008 2.5 0 
C 2.5 -0.663008 2.236584 -1.29895 1.767767 -1.767767 
C 1.29895 -2.236584 0.663008 -2.5 0 -2.5 
C -0.663008 -2.5 -1.29895 -2.236584 -1.767767 -1.767767 
C -2.236584 -1.29895 -2.5 -0.663008 -2.5 0 
C -2.5 0.663008 -2.236584 1.29895 -1.767767 1.767767 
C -1.29895 2.236584 -0.663008 2.5 0 2.5 
z
" id="Cc_0_25e73db790"/>
    </defs>
    <g clip-path="url(#p15113f74df)">
     <use style="fill:#222222;" x="337.64625" xlink:href="#Cc_0_25e73db790" y="80.582755"/>
    </g>
    <g clip-path="url(#p15113f74df)">
     <use style="fill:#222222;" x="332.403136" xlink:href="#Cc_0_25e73db790" y="80.318998"/>
    </g>
    <g clip-path="url(#p15113f74df)">
     <use style="fill:#222222;" x="342.884652" xlink:href="#Cc_0_25e73db790" y="80.240535"/>
    </g>
    <g clip-path="url(#p15113f74df)">
     <use style="fill:#222222;" x="329.13985" xlink:href="#Cc_0_25e73db790" y="79.785104"/>
    </g>
    <g clip-path="url(#p15113f74df)">
     <use style="fill:#222222;" x="346.15265" xlink:href="#Cc_0_25e73db790" y="79.715781"/>
    </g>
    <g clip-path="url(#p15113f74df)">
     <use style="fill:#222222;" x="346.15265" xlink:href="#Cc_0_25e73db790" y="79.589636"/>
    </g>
    <g clip-path="url(#p15113f74df)">
     <use style="fill:#222222;" x="329.13985" xlink:href="#Cc_0_25e73db790" y="79.589119"/>
    </g>
    <g clip-path="url(#p15113f74df)">
     <use style="fill:#222222;" x="346.15265" xlink:href="#Cc_0_25e73db790" y="79.49479"/>
    </g>
    <g clip-path="url(#p15113f74df)">
     <use style="fill:#222222;" x="329.13985" xlink:href="#Cc_0_25e73db790" y="79.153432"/>
    </g>
    <g clip-path="url(#p15113f74df)">
     <use style="fill:#222222;" x="346.15265" xlink:href="#Cc_0_25e73db790" y="78.952274"/>
    </g>
   </g>
   <g id="PathCollection_17">
    <defs>
     <path d="M 0 2.5 
C 0.663008 2.5 1.29895 2.236584 1.767767 1.767767 
C 2.236584 1.29895 2.5 0.663008 2.5 0 
C 2.5 -0.663008 2.236584 -1.29895 1.767767 -1.767767 
C 1.29895 -2.236584 0.663008 -2.5 0 -2.5 
C -0.663008 -2.5 -1.29895 -2.236584 -1.767767 -1.767767 
C -2.236584 -1.29895 -2.5 -0.663008 -2.5 0 
C -2.5 0.663008 -2.236584 1.29895 -1.767767 1.767767 
C -1.29895 2.236584 -0.663008 2.5 0 2.5 
z
" id="Cd_0_c7dfa738aa"/>
    </defs>
    <g clip-path="url(#p15113f74df)">
     <use style="fill:#111111;" x="355.00625" xlink:href="#Cd_0_c7dfa738aa" y="118.973921"/>
    </g>
    <g clip-path="url(#p15113f74df)">
     <use style="fill:#111111;" x="350.196681" xlink:href="#Cd_0_c7dfa738aa" y="116.908615"/>
    </g>
    <g clip-path="url(#p15113f74df)">
     <use style="fill:#111111;" x="359.505648" xlink:href="#Cd_0_c7dfa738aa" y="116.319624"/>
    </g>
    <g clip-path="url(#p15113f74df)">
     <use style="fill:#111111;" x="363.51265" xlink:href="#Cd_0_c7dfa738aa" y="115.994649"/>
    </g>
    <g clip-path="url(#p15113f74df)">
     <use style="fill:#111111;" x="346.49985" xlink:href="#Cd_0_c7dfa738aa" y="115.896958"/>
    </g>
    <g clip-path="url(#p15113f74df)">
     <use style="fill:#111111;" x="363.51265" xlink:href="#Cd_0_c7dfa738aa" y="115.389534"/>
    </g>
    <g clip-path="url(#p15113f74df)">
     <use style="fill:#111111;" x="346.49985" xlink:href="#Cd_0_c7dfa738aa" y="114.419091"/>
    </g>
    <g clip-path="url(#p15113f74df)">
     <use style="fill:#111111;" x="355.00625" xlink:href="#Cd_0_c7dfa738aa" y="113.53651"/>
    </g>
    <g clip-path="url(#p15113f74df)">
     <use style="fill:#111111;" x="348.714462" xlink:href="#Cd_0_c7dfa738aa" y="111.966902"/>
    </g>
    <g clip-path="url(#p15113f74df)">
     <use style="fill:#111111;" x="359.654349" xlink:href="#Cd_0_c7dfa738aa" y="111.141573"/>
    </g>
   </g>
   <g id="PathCollection_18">
    <defs>
     <path d="M 0 2.5 
C 0.663008 2.5 1.29895 2.236584 1.767767 1.767767 
C 2.236584 1.29895 2.5 0.663008 2.5 0 
C 2.5 -0.663008 2.236584 -1.29895 1.767767 -1.767767 
C 1.29895 -2.236584 0.663008 -2.5 0 -2.5 
C -0.663008 -2.5 -1.29895 -2.236584 -1.767767 -1.767767 
C -2.236584 -1.29895 -2.5 -0.663008 -2.5 0 
C -2.5 0.663008 -2.236584 1.29895 -1.767767 1.767767 
C -1.29895 2.236584 -0.663008 2.5 0 2.5 
z
" id="Ce_0_353b48d948"/>
    </defs>
    <g clip-path="url(#p15113f74df)">
     <use x="372.36625" xlink:href="#Ce_0_353b48d948" y="125.064043"/>
    </g>
    <g clip-path="url(#p15113f74df)">
     <use x="367.26186" xlink:href="#Ce_0_353b48d948" y="123.859245"/>
    </g>
    <g clip-path="url(#p15113f74df)">
     <use x="377.283865" xlink:href="#Ce_0_353b48d948" y="123.260252"/>
    </g>
    <g clip-path="url(#p15113f74df)">
     <use x="380.87265" xlink:href="#Ce_0_353b48d948" y="122.835171"/>
    </g>
    <g clip-path="url(#p15113f74df)">
     <use x="363.85985" xlink:href="#Ce_0_353b48d948" y="121.649601"/>
    </g>
    <g clip-path="url(#p15113f74df)">
     <use x="380.87265" xlink:href="#Ce_0_353b48d948" y="120.986889"/>
    </g>
    <g clip-path="url(#p15113f74df)">
     <use x="363.85985" xlink:href="#Ce_0_353b48d948" y="120.847898"/>
    </g>
    <g clip-path="url(#p15113f74df)">
     <use x="372.36625" xlink:href="#Ce_0_353b48d948" y="119.18672"/>
    </g>
    <g clip-path="url(#p15113f74df)">
     <use x="367.262834" xlink:href="#Ce_0_353b48d948" y="117.977956"/>
    </g>
    <g clip-path="url(#p15113f74df)">
     <use x="377.188973" xlink:href="#Ce_0_353b48d948" y="117.151161"/>
    </g>
   </g>
   <g id="PathCollection_19">
    <defs>
     <path d="M 0 2.5 
C 0.663008 2.5 1.29895 2.236584 1.767767 1.767767 
C 2.236584 1.29895 2.5 0.663008 2.5 0 
C 2.5 -0.663008 2.236584 -1.29895 1.767767 -1.767767 
C 1.29895 -2.236584 0.663008 -2.5 0 -2.5 
C -0.663008 -2.5 -1.29895 -2.236584 -1.767767 -1.767767 
C -2.236584 -1.29895 -2.5 -0.663008 -2.5 0 
C -2.5 0.663008 -2.236584 1.29895 -1.767767 1.767767 
C -1.29895 2.236584 -0.663008 2.5 0 2.5 
z
" id="Cf_0_06066e13e6"/>
    </defs>
    <g clip-path="url(#p15113f74df)">
     <use style="fill:#222222;" x="402.74625" xlink:href="#Cf_0_06066e13e6" y="80.0361"/>
    </g>
    <g clip-path="url(#p15113f74df)">
     <use style="fill:#222222;" x="397.496369" xlink:href="#Cf_0_06066e13e6" y="80.001438"/>
    </g>
    <g clip-path="url(#p15113f74df)">
     <use style="fill:#222222;" x="407.992741" xlink:href="#Cf_0_06066e13e6" y="79.847788"/>
    </g>
    <g clip-path="url(#p15113f74df)">
     <use style="fill:#222222;" x="394.23985" xlink:href="#Cf_0_06066e13e6" y="79.523244"/>
    </g>
    <g clip-path="url(#p15113f74df)">
     <use style="fill:#222222;" x="411.25265" xlink:href="#Cf_0_06066e13e6" y="79.477201"/>
    </g>
    <g clip-path="url(#p15113f74df)">
     <use style="fill:#222222;" x="394.23985" xlink:href="#Cf_0_06066e13e6" y="79.443143"/>
    </g>
    <g clip-path="url(#p15113f74df)">
     <use style="fill:#222222;" x="411.25265" xlink:href="#Cf_0_06066e13e6" y="79.23112"/>
    </g>
    <g clip-path="url(#p15113f74df)">
     <use style="fill:#222222;" x="394.23985" xlink:href="#Cf_0_06066e13e6" y="79.222239"/>
    </g>
    <g clip-path="url(#p15113f74df)">
     <use style="fill:#222222;" x="411.25265" xlink:href="#Cf_0_06066e13e6" y="79.169642"/>
    </g>
    <g clip-path="url(#p15113f74df)">
     <use style="fill:#222222;" x="394.23985" xlink:href="#Cf_0_06066e13e6" y="78.837252"/>
    </g>
   </g>
   <g id="PathCollection_20">
    <defs>
     <path d="M 0 2.5 
C 0.663008 2.5 1.29895 2.236584 1.767767 1.767767 
C 2.236584 1.29895 2.5 0.663008 2.5 0 
C 2.5 -0.663008 2.236584 -1.29895 1.767767 -1.767767 
C 1.29895 -2.236584 0.663008 -2.5 0 -2.5 
C -0.663008 -2.5 -1.29895 -2.236584 -1.767767 -1.767767 
C -2.236584 -1.29895 -2.5 -0.663008 -2.5 0 
C -2.5 0.663008 -2.236584 1.29895 -1.767767 1.767767 
C -1.29895 2.236584 -0.663008 2.5 0 2.5 
z
" id="C10_0_27e1364101"/>
    </defs>
    <g clip-path="url(#p15113f74df)">
     <use style="fill:#111111;" x="420.10625" xlink:href="#C10_0_27e1364101" y="125.256062"/>
    </g>
    <g clip-path="url(#p15113f74df)">
     <use style="fill:#111111;" x="414.858641" xlink:href="#C10_0_27e1364101" y="125.100601"/>
    </g>
    <g clip-path="url(#p15113f74df)">
     <use style="fill:#111111;" x="425.34824" xlink:href="#C10_0_27e1364101" y="124.971611"/>
    </g>
    <g clip-path="url(#p15113f74df)">
     <use style="fill:#111111;" x="411.59985" xlink:href="#C10_0_27e1364101" y="123.854244"/>
    </g>
    <g clip-path="url(#p15113f74df)">
     <use style="fill:#111111;" x="428.61265" xlink:href="#C10_0_27e1364101" y="123.588331"/>
    </g>
    <g clip-path="url(#p15113f74df)">
     <use style="fill:#111111;" x="428.61265" xlink:href="#C10_0_27e1364101" y="123.015292"/>
    </g>
    <g clip-path="url(#p15113f74df)">
     <use style="fill:#111111;" x="418.749166" xlink:href="#C10_0_27e1364101" y="120.279859"/>
    </g>
    <g clip-path="url(#p15113f74df)">
     <use style="fill:#111111;" x="423.910333" xlink:href="#C10_0_27e1364101" y="120.017309"/>
    </g>
    <g clip-path="url(#p15113f74df)">
     <use style="fill:#111111;" x="413.641499" xlink:href="#C10_0_27e1364101" y="119.088512"/>
    </g>
    <g clip-path="url(#p15113f74df)">
     <use style="fill:#111111;" x="411.59985" xlink:href="#C10_0_27e1364101" y="118.761467"/>
    </g>
   </g>
   <g id="PathCollection_21">
    <defs>
     <path d="M 0 2.5 
C 0.663008 2.5 1.29895 2.236584 1.767767 1.767767 
C 2.236584 1.29895 2.5 0.663008 2.5 0 
C 2.5 -0.663008 2.236584 -1.29895 1.767767 -1.767767 
C 1.29895 -2.236584 0.663008 -2.5 0 -2.5 
C -0.663008 -2.5 -1.29895 -2.236584 -1.767767 -1.767767 
C -2.236584 -1.29895 -2.5 -0.663008 -2.5 0 
C -2.5 0.663008 -2.236584 1.29895 -1.767767 1.767767 
C -1.29895 2.236584 -0.663008 2.5 0 2.5 
z
" id="C11_0_aa5395701c"/>
    </defs>
    <g clip-path="url(#p15113f74df)">
     <use x="437.46625" xlink:href="#C11_0_aa5395701c" y="125.574829"/>
    </g>
    <g clip-path="url(#p15113f74df)">
     <use x="432.343304" xlink:href="#C11_0_aa5395701c" y="124.448409"/>
    </g>
    <g clip-path="url(#p15113f74df)">
     <use x="442.569262" xlink:href="#C11_0_aa5395701c" y="124.364427"/>
    </g>
    <g clip-path="url(#p15113f74df)">
     <use x="445.97265" xlink:href="#C11_0_aa5395701c" y="124.29588"/>
    </g>
    <g clip-path="url(#p15113f74df)">
     <use x="428.95985" xlink:href="#C11_0_aa5395701c" y="123.930034"/>
    </g>
    <g clip-path="url(#p15113f74df)">
     <use x="445.97265" xlink:href="#C11_0_aa5395701c" y="123.088323"/>
    </g>
    <g clip-path="url(#p15113f74df)">
     <use x="428.95985" xlink:href="#C11_0_aa5395701c" y="122.591591"/>
    </g>
    <g clip-path="url(#p15113f74df)">
     <use x="445.97265" xlink:href="#C11_0_aa5395701c" y="121.937156"/>
    </g>
    <g clip-path="url(#p15113f74df)">
     <use x="428.95985" xlink:href="#C11_0_aa5395701c" y="121.111913"/>
    </g>
    <g clip-path="url(#p15113f74df)">
     <use x="428.95985" xlink:href="#C11_0_aa5395701c" y="120.952228"/>
    </g>
   </g>
   <g id="text_16">
    <!-- GLUCOSE  CONCENTRATION -->
    <g transform="translate(78.897266 25.094531)scale(0.25 -0.25)">
     <use xlink:href="#Arial-BoldMT-71"/>
     <use x="77.783203" xlink:href="#Arial-BoldMT-76"/>
     <use x="138.867188" xlink:href="#Arial-BoldMT-85"/>
     <use x="211.083984" xlink:href="#Arial-BoldMT-67"/>
     <use x="283.300781" xlink:href="#Arial-BoldMT-79"/>
     <use x="361.083984" xlink:href="#Arial-BoldMT-83"/>
     <use x="427.783203" xlink:href="#Arial-BoldMT-69"/>
     <use x="494.482422" xlink:href="#Arial-BoldMT-32"/>
     <use x="522.265625" xlink:href="#Arial-BoldMT-32"/>
     <use x="550.048828" xlink:href="#Arial-BoldMT-67"/>
     <use x="622.265625" xlink:href="#Arial-BoldMT-79"/>
     <use x="700.048828" xlink:href="#Arial-BoldMT-78"/>
     <use x="772.265625" xlink:href="#Arial-BoldMT-67"/>
     <use x="844.482422" xlink:href="#Arial-BoldMT-69"/>
     <use x="911.181641" xlink:href="#Arial-BoldMT-78"/>
     <use x="983.398438" xlink:href="#Arial-BoldMT-84"/>
     <use x="1044.482422" xlink:href="#Arial-BoldMT-82"/>
     <use x="1116.699219" xlink:href="#Arial-BoldMT-65"/>
     <use x="1188.806641" xlink:href="#Arial-BoldMT-84"/>
     <use x="1249.890625" xlink:href="#Arial-BoldMT-73"/>
     <use x="1277.673828" xlink:href="#Arial-BoldMT-79"/>
     <use x="1355.457031" xlink:href="#Arial-BoldMT-78"/>
    </g>
    <!-- OVER TIME 1, 4, 7 -->
    <defs>
     <path d="M 25.53125 0 
L -0.046875 71.578125 
L 15.625 71.578125 
L 33.734375 18.609375 
L 51.265625 71.578125 
L 66.609375 71.578125 
L 40.96875 0 
z
" id="Arial-BoldMT-86"/>
     <path d="M 7.078125 0 
L 7.078125 71.578125 
L 28.71875 71.578125 
L 41.703125 22.75 
L 54.546875 71.578125 
L 76.21875 71.578125 
L 76.21875 0 
L 62.796875 0 
L 62.796875 56.34375 
L 48.578125 0 
L 34.671875 0 
L 20.515625 56.34375 
L 20.515625 0 
z
" id="Arial-BoldMT-77"/>
     <path d="M 39.359375 0 
L 25.640625 0 
L 25.640625 51.703125 
Q 18.109375 44.671875 7.90625 41.3125 
L 7.90625 53.765625 
Q 13.28125 55.515625 19.578125 60.421875 
Q 25.875 65.328125 28.21875 71.875 
L 39.359375 71.875 
z
" id="Arial-BoldMT-49"/>
     <path d="M 6.84375 13.71875 
L 20.5625 13.71875 
L 20.5625 3.90625 
Q 20.5625 -2.046875 19.53125 -5.484375 
Q 18.5 -8.9375 15.640625 -11.671875 
Q 12.796875 -14.40625 8.40625 -15.96875 
L 5.71875 -10.296875 
Q 9.859375 -8.9375 11.609375 -6.546875 
Q 13.375 -4.15625 13.484375 0 
L 6.84375 0 
z
" id="Arial-BoldMT-44"/>
     <path d="M 31.15625 0 
L 31.15625 14.40625 
L 1.859375 14.40625 
L 1.859375 26.421875 
L 32.90625 71.875 
L 44.4375 71.875 
L 44.4375 26.46875 
L 53.328125 26.46875 
L 53.328125 14.40625 
L 44.4375 14.40625 
L 44.4375 0 
z
M 31.15625 26.46875 
L 31.15625 50.921875 
L 14.703125 26.46875 
z
" id="Arial-BoldMT-52"/>
     <path d="M 4.25 57.859375 
L 4.25 70.609375 
L 51.171875 70.609375 
L 51.171875 60.640625 
Q 45.359375 54.9375 39.34375 44.234375 
Q 33.34375 33.546875 30.1875 21.5 
Q 27.046875 9.46875 27.09375 0 
L 13.875 0 
Q 14.203125 14.84375 19.984375 30.265625 
Q 25.78125 45.703125 35.453125 57.859375 
z
" id="Arial-BoldMT-55"/>
    </defs>
    <g transform="translate(150.383594 51.501562)scale(0.25 -0.25)">
     <use xlink:href="#Arial-BoldMT-79"/>
     <use x="77.783203" xlink:href="#Arial-BoldMT-86"/>
     <use x="144.482422" xlink:href="#Arial-BoldMT-69"/>
     <use x="211.181641" xlink:href="#Arial-BoldMT-82"/>
     <use x="283.398438" xlink:href="#Arial-BoldMT-32"/>
     <use x="311.181641" xlink:href="#Arial-BoldMT-84"/>
     <use x="372.265625" xlink:href="#Arial-BoldMT-73"/>
     <use x="400.048828" xlink:href="#Arial-BoldMT-77"/>
     <use x="483.349609" xlink:href="#Arial-BoldMT-69"/>
     <use x="550.048828" xlink:href="#Arial-BoldMT-32"/>
     <use x="577.832031" xlink:href="#Arial-BoldMT-49"/>
     <use x="633.447266" xlink:href="#Arial-BoldMT-44"/>
     <use x="661.230469" xlink:href="#Arial-BoldMT-32"/>
     <use x="689.013672" xlink:href="#Arial-BoldMT-52"/>
     <use x="744.628906" xlink:href="#Arial-BoldMT-44"/>
     <use x="772.412109" xlink:href="#Arial-BoldMT-32"/>
     <use x="800.195312" xlink:href="#Arial-BoldMT-55"/>
    </g>
   </g>
   <g id="legend_1">
    <g id="PathCollection_22">
     <defs>
      <path d="M 0 3.872983 
C 1.027127 3.872983 2.012324 3.464901 2.738613 2.738613 
C 3.464901 2.012324 3.872983 1.027127 3.872983 0 
C 3.872983 -1.027127 3.464901 -2.012324 2.738613 -2.738613 
C 2.012324 -3.464901 1.027127 -3.872983 0 -3.872983 
C -1.027127 -3.872983 -2.012324 -3.464901 -2.738613 -2.738613 
C -3.464901 -2.012324 -3.872983 -1.027127 -3.872983 0 
C -3.872983 1.027127 -3.464901 2.012324 -2.738613 2.738613 
C -2.012324 3.464901 -1.027127 3.872983 0 3.872983 
z
" id="md3f55ba0ff" style="stroke:#222222;"/>
     </defs>
     <g>
      <use style="fill:#222222;stroke:#222222;" x="471.65625" xlink:href="#md3f55ba0ff" y="82.475"/>
     </g>
    </g>
    <g id="text_17">
     <!-- 1 -->
     <g transform="translate(489.65625 85.1)scale(0.1 -0.1)">
      <use xlink:href="#DejaVuSans-49"/>
     </g>
    </g>
    <g id="PathCollection_23">
     <defs>
      <path d="M 0 3.872983 
C 1.027127 3.872983 2.012324 3.464901 2.738613 2.738613 
C 3.464901 2.012324 3.872983 1.027127 3.872983 0 
C 3.872983 -1.027127 3.464901 -2.012324 2.738613 -2.738613 
C 2.012324 -3.464901 1.027127 -3.872983 0 -3.872983 
C -1.027127 -3.872983 -2.012324 -3.464901 -2.738613 -2.738613 
C -3.464901 -2.012324 -3.872983 -1.027127 -3.872983 0 
C -3.872983 1.027127 -3.464901 2.012324 -2.738613 2.738613 
C -2.012324 3.464901 -1.027127 3.872983 0 3.872983 
z
" id="md7c841b259" style="stroke:#111111;"/>
     </defs>
     <g>
      <use style="fill:#111111;stroke:#111111;" x="471.65625" xlink:href="#md7c841b259" y="97.153125"/>
     </g>
    </g>
    <g id="text_18">
     <!-- 4 -->
     <g transform="translate(489.65625 99.778125)scale(0.1 -0.1)">
      <use xlink:href="#DejaVuSans-52"/>
     </g>
    </g>
    <g id="PathCollection_24">
     <defs>
      <path d="M 0 3.872983 
C 1.027127 3.872983 2.012324 3.464901 2.738613 2.738613 
C 3.464901 2.012324 3.872983 1.027127 3.872983 0 
C 3.872983 -1.027127 3.464901 -2.012324 2.738613 -2.738613 
C 2.012324 -3.464901 1.027127 -3.872983 0 -3.872983 
C -1.027127 -3.872983 -2.012324 -3.464901 -2.738613 -2.738613 
C -3.464901 -2.012324 -3.872983 -1.027127 -3.872983 0 
C -3.872983 1.027127 -3.464901 2.012324 -2.738613 2.738613 
C -2.012324 3.464901 -1.027127 3.872983 0 3.872983 
z
" id="m7eb87b01aa" style="stroke:#000000;"/>
     </defs>
     <g>
      <use style="stroke:#000000;" x="471.65625" xlink:href="#m7eb87b01aa" y="111.83125"/>
     </g>
    </g>
    <g id="text_19">
     <!-- 7 -->
     <defs>
      <path d="M 8.203125 72.90625 
L 55.078125 72.90625 
L 55.078125 68.703125 
L 28.609375 0 
L 18.3125 0 
L 43.21875 64.59375 
L 8.203125 64.59375 
z
" id="DejaVuSans-55"/>
     </defs>
     <g transform="translate(489.65625 114.45625)scale(0.1 -0.1)">
      <use xlink:href="#DejaVuSans-55"/>
     </g>
    </g>
    <g id="patch_25">
     <path d="M 461.65625 129.134375 
L 481.65625 129.134375 
L 481.65625 122.134375 
L 461.65625 122.134375 
z
" style="fill:#d9d9d9;"/>
    </g>
    <g id="text_20">
     <!-- 1 -->
     <g transform="translate(489.65625 129.134375)scale(0.1 -0.1)">
      <use xlink:href="#DejaVuSans-49"/>
     </g>
    </g>
    <g id="patch_26">
     <path d="M 461.65625 143.8125 
L 481.65625 143.8125 
L 481.65625 136.8125 
L 461.65625 136.8125 
z
" style="fill:#959595;"/>
    </g>
    <g id="text_21">
     <!-- 4 -->
     <g transform="translate(489.65625 143.8125)scale(0.1 -0.1)">
      <use xlink:href="#DejaVuSans-52"/>
     </g>
    </g>
    <g id="patch_27">
     <path d="M 461.65625 158.490625 
L 481.65625 158.490625 
L 481.65625 151.490625 
L 461.65625 151.490625 
z
" style="fill:#515151;"/>
    </g>
    <g id="text_22">
     <!-- 7 -->
     <g transform="translate(489.65625 158.490625)scale(0.1 -0.1)">
      <use xlink:href="#DejaVuSans-55"/>
     </g>
    </g>
   </g>
  </g>
 </g>
 <defs>
  <clipPath id="p15113f74df">
   <rect height="380.52" width="390.6" x="62.05625" y="68.501562"/>
  </clipPath>
 </defs>
</svg>
