<?xml version="1.0" encoding="utf-8" standalone="no"?>
<!DOCTYPE svg PUBLIC "-//W3C//DTD SVG 1.1//EN"
  "http://www.w3.org/Graphics/SVG/1.1/DTD/svg11.dtd">
<!-- Created with matplotlib (https://matplotlib.org/) -->
<svg height="514.024687pt" version="1.1" viewBox="0 0 591.755625 514.024687" width="591.755625pt" xmlns="http://www.w3.org/2000/svg" xmlns:xlink="http://www.w3.org/1999/xlink">
 <defs>
  <style type="text/css">
*{stroke-linecap:butt;stroke-linejoin:round;}
  </style>
 </defs>
 <g id="figure_1">
  <g id="patch_1">
   <path d="M -0 514.024687 
L 591.755625 514.024687 
L 591.755625 0 
L -0 0 
z
" style="fill:#ffffff;"/>
  </g>
  <g id="axes_1">
   <g id="patch_2">
    <path d="M 121.143125 442.021562 
L 511.743125 442.021562 
L 511.743125 61.501562 
L 121.143125 61.501562 
z
" style="fill:#ffffff;"/>
   </g>
   <g id="matplotlib.axis_1">
    <g id="xtick_1">
     <g id="line2d_1">
      <defs>
       <path d="M 0 0 
L 0 3.5 
" id="m80168a451f" style="stroke:#000000;stroke-width:0.8;"/>
      </defs>
      <g>
       <use style="stroke:#000000;stroke-width:0.8;" x="121.143125" xlink:href="#m80168a451f" y="442.021562"/>
      </g>
     </g>
     <g id="text_1">
      <!-- 0 -->
      <defs>
       <path d="M 31.78125 66.40625 
Q 24.171875 66.40625 20.328125 58.90625 
Q 16.5 51.421875 16.5 36.375 
Q 16.5 21.390625 20.328125 13.890625 
Q 24.171875 6.390625 31.78125 6.390625 
Q 39.453125 6.390625 43.28125 13.890625 
Q 47.125 21.390625 47.125 36.375 
Q 47.125 51.421875 43.28125 58.90625 
Q 39.453125 66.40625 31.78125 66.40625 
z
M 31.78125 74.21875 
Q 44.046875 74.21875 50.515625 64.515625 
Q 56.984375 54.828125 56.984375 36.375 
Q 56.984375 17.96875 50.515625 8.265625 
Q 44.046875 -1.421875 31.78125 -1.421875 
Q 19.53125 -1.421875 13.0625 8.265625 
Q 6.59375 17.96875 6.59375 36.375 
Q 6.59375 54.828125 13.0625 64.515625 
Q 19.53125 74.21875 31.78125 74.21875 
z
" id="DejaVuSans-48"/>
      </defs>
      <g transform="translate(111.599375 471.816875)scale(0.3 -0.3)">
       <use xlink:href="#DejaVuSans-48"/>
      </g>
     </g>
    </g>
    <g id="xtick_2">
     <g id="line2d_2">
      <g>
       <use style="stroke:#000000;stroke-width:0.8;" x="176.943125" xlink:href="#m80168a451f" y="442.021562"/>
      </g>
     </g>
     <g id="text_2">
      <!-- 1 -->
      <defs>
       <path d="M 12.40625 8.296875 
L 28.515625 8.296875 
L 28.515625 63.921875 
L 10.984375 60.40625 
L 10.984375 69.390625 
L 28.421875 72.90625 
L 38.28125 72.90625 
L 38.28125 8.296875 
L 54.390625 8.296875 
L 54.390625 0 
L 12.40625 0 
z
" id="DejaVuSans-49"/>
      </defs>
      <g transform="translate(167.399375 471.816875)scale(0.3 -0.3)">
       <use xlink:href="#DejaVuSans-49"/>
      </g>
     </g>
    </g>
    <g id="xtick_3">
     <g id="line2d_3">
      <g>
       <use style="stroke:#000000;stroke-width:0.8;" x="232.743125" xlink:href="#m80168a451f" y="442.021562"/>
      </g>
     </g>
     <g id="text_3">
      <!-- 2 -->
      <defs>
       <path d="M 19.1875 8.296875 
L 53.609375 8.296875 
L 53.609375 0 
L 7.328125 0 
L 7.328125 8.296875 
Q 12.9375 14.109375 22.625 23.890625 
Q 32.328125 33.6875 34.8125 36.53125 
Q 39.546875 41.84375 41.421875 45.53125 
Q 43.3125 49.21875 43.3125 52.78125 
Q 43.3125 58.59375 39.234375 62.25 
Q 35.15625 65.921875 28.609375 65.921875 
Q 23.96875 65.921875 18.8125 64.3125 
Q 13.671875 62.703125 7.8125 59.421875 
L 7.8125 69.390625 
Q 13.765625 71.78125 18.9375 73 
Q 24.125 74.21875 28.421875 74.21875 
Q 39.75 74.21875 46.484375 68.546875 
Q 53.21875 62.890625 53.21875 53.421875 
Q 53.21875 48.921875 51.53125 44.890625 
Q 49.859375 40.875 45.40625 35.40625 
Q 44.1875 33.984375 37.640625 27.21875 
Q 31.109375 20.453125 19.1875 8.296875 
z
" id="DejaVuSans-50"/>
      </defs>
      <g transform="translate(223.199375 471.816875)scale(0.3 -0.3)">
       <use xlink:href="#DejaVuSans-50"/>
      </g>
     </g>
    </g>
    <g id="xtick_4">
     <g id="line2d_4">
      <g>
       <use style="stroke:#000000;stroke-width:0.8;" x="288.543125" xlink:href="#m80168a451f" y="442.021562"/>
      </g>
     </g>
     <g id="text_4">
      <!-- 3 -->
      <defs>
       <path d="M 40.578125 39.3125 
Q 47.65625 37.796875 51.625 33 
Q 55.609375 28.21875 55.609375 21.1875 
Q 55.609375 10.40625 48.1875 4.484375 
Q 40.765625 -1.421875 27.09375 -1.421875 
Q 22.515625 -1.421875 17.65625 -0.515625 
Q 12.796875 0.390625 7.625 2.203125 
L 7.625 11.71875 
Q 11.71875 9.328125 16.59375 8.109375 
Q 21.484375 6.890625 26.8125 6.890625 
Q 36.078125 6.890625 40.9375 10.546875 
Q 45.796875 14.203125 45.796875 21.1875 
Q 45.796875 27.640625 41.28125 31.265625 
Q 36.765625 34.90625 28.71875 34.90625 
L 20.21875 34.90625 
L 20.21875 43.015625 
L 29.109375 43.015625 
Q 36.375 43.015625 40.234375 45.921875 
Q 44.09375 48.828125 44.09375 54.296875 
Q 44.09375 59.90625 40.109375 62.90625 
Q 36.140625 65.921875 28.71875 65.921875 
Q 24.65625 65.921875 20.015625 65.03125 
Q 15.375 64.15625 9.8125 62.3125 
L 9.8125 71.09375 
Q 15.4375 72.65625 20.34375 73.4375 
Q 25.25 74.21875 29.59375 74.21875 
Q 40.828125 74.21875 47.359375 69.109375 
Q 53.90625 64.015625 53.90625 55.328125 
Q 53.90625 49.265625 50.4375 45.09375 
Q 46.96875 40.921875 40.578125 39.3125 
z
" id="DejaVuSans-51"/>
      </defs>
      <g transform="translate(278.999375 471.816875)scale(0.3 -0.3)">
       <use xlink:href="#DejaVuSans-51"/>
      </g>
     </g>
    </g>
    <g id="xtick_5">
     <g id="line2d_5">
      <g>
       <use style="stroke:#000000;stroke-width:0.8;" x="344.343125" xlink:href="#m80168a451f" y="442.021562"/>
      </g>
     </g>
     <g id="text_5">
      <!-- 4 -->
      <defs>
       <path d="M 37.796875 64.3125 
L 12.890625 25.390625 
L 37.796875 25.390625 
z
M 35.203125 72.90625 
L 47.609375 72.90625 
L 47.609375 25.390625 
L 58.015625 25.390625 
L 58.015625 17.1875 
L 47.609375 17.1875 
L 47.609375 0 
L 37.796875 0 
L 37.796875 17.1875 
L 4.890625 17.1875 
L 4.890625 26.703125 
z
" id="DejaVuSans-52"/>
      </defs>
      <g transform="translate(334.799375 471.816875)scale(0.3 -0.3)">
       <use xlink:href="#DejaVuSans-52"/>
      </g>
     </g>
    </g>
    <g id="xtick_6">
     <g id="line2d_6">
      <g>
       <use style="stroke:#000000;stroke-width:0.8;" x="400.143125" xlink:href="#m80168a451f" y="442.021562"/>
      </g>
     </g>
     <g id="text_6">
      <!-- 5 -->
      <defs>
       <path d="M 10.796875 72.90625 
L 49.515625 72.90625 
L 49.515625 64.59375 
L 19.828125 64.59375 
L 19.828125 46.734375 
Q 21.96875 47.46875 24.109375 47.828125 
Q 26.265625 48.1875 28.421875 48.1875 
Q 40.625 48.1875 47.75 41.5 
Q 54.890625 34.8125 54.890625 23.390625 
Q 54.890625 11.625 47.5625 5.09375 
Q 40.234375 -1.421875 26.90625 -1.421875 
Q 22.3125 -1.421875 17.546875 -0.640625 
Q 12.796875 0.140625 7.71875 1.703125 
L 7.71875 11.625 
Q 12.109375 9.234375 16.796875 8.0625 
Q 21.484375 6.890625 26.703125 6.890625 
Q 35.15625 6.890625 40.078125 11.328125 
Q 45.015625 15.765625 45.015625 23.390625 
Q 45.015625 31 40.078125 35.4375 
Q 35.15625 39.890625 26.703125 39.890625 
Q 22.75 39.890625 18.8125 39.015625 
Q 14.890625 38.140625 10.796875 36.28125 
z
" id="DejaVuSans-53"/>
      </defs>
      <g transform="translate(390.599375 471.816875)scale(0.3 -0.3)">
       <use xlink:href="#DejaVuSans-53"/>
      </g>
     </g>
    </g>
    <g id="xtick_7">
     <g id="line2d_7">
      <g>
       <use style="stroke:#000000;stroke-width:0.8;" x="455.943125" xlink:href="#m80168a451f" y="442.021562"/>
      </g>
     </g>
     <g id="text_7">
      <!-- 6 -->
      <defs>
       <path d="M 33.015625 40.375 
Q 26.375 40.375 22.484375 35.828125 
Q 18.609375 31.296875 18.609375 23.390625 
Q 18.609375 15.53125 22.484375 10.953125 
Q 26.375 6.390625 33.015625 6.390625 
Q 39.65625 6.390625 43.53125 10.953125 
Q 47.40625 15.53125 47.40625 23.390625 
Q 47.40625 31.296875 43.53125 35.828125 
Q 39.65625 40.375 33.015625 40.375 
z
M 52.59375 71.296875 
L 52.59375 62.3125 
Q 48.875 64.0625 45.09375 64.984375 
Q 41.3125 65.921875 37.59375 65.921875 
Q 27.828125 65.921875 22.671875 59.328125 
Q 17.53125 52.734375 16.796875 39.40625 
Q 19.671875 43.65625 24.015625 45.921875 
Q 28.375 48.1875 33.59375 48.1875 
Q 44.578125 48.1875 50.953125 41.515625 
Q 57.328125 34.859375 57.328125 23.390625 
Q 57.328125 12.15625 50.6875 5.359375 
Q 44.046875 -1.421875 33.015625 -1.421875 
Q 20.359375 -1.421875 13.671875 8.265625 
Q 6.984375 17.96875 6.984375 36.375 
Q 6.984375 53.65625 15.1875 63.9375 
Q 23.390625 74.21875 37.203125 74.21875 
Q 40.921875 74.21875 44.703125 73.484375 
Q 48.484375 72.75 52.59375 71.296875 
z
" id="DejaVuSans-54"/>
      </defs>
      <g transform="translate(446.399375 471.816875)scale(0.3 -0.3)">
       <use xlink:href="#DejaVuSans-54"/>
      </g>
     </g>
    </g>
    <g id="xtick_8">
     <g id="line2d_8">
      <g>
       <use style="stroke:#000000;stroke-width:0.8;" x="511.743125" xlink:href="#m80168a451f" y="442.021562"/>
      </g>
     </g>
     <g id="text_8">
      <!-- 7 -->
      <defs>
       <path d="M 8.203125 72.90625 
L 55.078125 72.90625 
L 55.078125 68.703125 
L 28.609375 0 
L 18.3125 0 
L 43.21875 64.59375 
L 8.203125 64.59375 
z
" id="DejaVuSans-55"/>
      </defs>
      <g transform="translate(502.199375 471.816875)scale(0.3 -0.3)">
       <use xlink:href="#DejaVuSans-55"/>
      </g>
     </g>
    </g>
    <g id="text_9">
     <!-- TIME (DAYS) -->
     <defs>
      <path d="M 23.390625 0 
L 23.390625 59.46875 
L 2.15625 59.46875 
L 2.15625 71.578125 
L 59.03125 71.578125 
L 59.03125 59.46875 
L 37.84375 59.46875 
L 37.84375 0 
z
" id="Arial-BoldMT-84"/>
      <path d="M 6.84375 0 
L 6.84375 71.578125 
L 21.296875 71.578125 
L 21.296875 0 
z
" id="Arial-BoldMT-73"/>
      <path d="M 7.078125 0 
L 7.078125 71.578125 
L 28.71875 71.578125 
L 41.703125 22.75 
L 54.546875 71.578125 
L 76.21875 71.578125 
L 76.21875 0 
L 62.796875 0 
L 62.796875 56.34375 
L 48.578125 0 
L 34.671875 0 
L 20.515625 56.34375 
L 20.515625 0 
z
" id="Arial-BoldMT-77"/>
      <path d="M 7.28125 0 
L 7.28125 71.578125 
L 60.359375 71.578125 
L 60.359375 59.46875 
L 21.734375 59.46875 
L 21.734375 43.609375 
L 57.671875 43.609375 
L 57.671875 31.546875 
L 21.734375 31.546875 
L 21.734375 12.0625 
L 61.71875 12.0625 
L 61.71875 0 
z
" id="Arial-BoldMT-69"/>
      <path id="Arial-BoldMT-32"/>
      <path d="M 29.9375 -21.046875 
L 20.515625 -21.046875 
Q 13.03125 -9.765625 9.125 2.390625 
Q 5.21875 14.546875 5.21875 25.921875 
Q 5.21875 40.046875 10.0625 52.640625 
Q 14.265625 63.578125 20.703125 72.796875 
L 30.078125 72.796875 
Q 23.390625 58.015625 20.875 47.625 
Q 18.359375 37.25 18.359375 25.640625 
Q 18.359375 17.625 19.84375 9.21875 
Q 21.34375 0.828125 23.921875 -6.734375 
Q 25.640625 -11.71875 29.9375 -21.046875 
z
" id="Arial-BoldMT-40"/>
      <path d="M 7.234375 71.578125 
L 33.640625 71.578125 
Q 42.578125 71.578125 47.265625 70.21875 
Q 53.5625 68.359375 58.046875 63.625 
Q 62.546875 58.890625 64.890625 52.03125 
Q 67.234375 45.171875 67.234375 35.109375 
Q 67.234375 26.265625 65.046875 19.875 
Q 62.359375 12.0625 57.375 7.234375 
Q 53.609375 3.5625 47.21875 1.515625 
Q 42.4375 0 34.421875 0 
L 7.234375 0 
z
M 21.6875 59.46875 
L 21.6875 12.0625 
L 32.46875 12.0625 
Q 38.53125 12.0625 41.21875 12.75 
Q 44.734375 13.625 47.046875 15.71875 
Q 49.359375 17.828125 50.828125 22.625 
Q 52.296875 27.4375 52.296875 35.75 
Q 52.296875 44.046875 50.828125 48.484375 
Q 49.359375 52.9375 46.71875 55.421875 
Q 44.09375 57.90625 40.046875 58.796875 
Q 37.015625 59.46875 28.171875 59.46875 
z
" id="Arial-BoldMT-68"/>
      <path d="M 71.828125 0 
L 56.109375 0 
L 49.859375 16.265625 
L 21.234375 16.265625 
L 15.328125 0 
L 0 0 
L 27.875 71.578125 
L 43.171875 71.578125 
z
M 45.21875 28.328125 
L 35.359375 54.890625 
L 25.6875 28.328125 
z
" id="Arial-BoldMT-65"/>
      <path d="M 26.078125 0 
L 26.078125 30.125 
L -0.140625 71.578125 
L 16.796875 71.578125 
L 33.640625 43.265625 
L 50.140625 71.578125 
L 66.796875 71.578125 
L 40.484375 30.03125 
L 40.484375 0 
z
" id="Arial-BoldMT-89"/>
      <path d="M 3.609375 23.296875 
L 17.671875 24.65625 
Q 18.953125 17.578125 22.828125 14.25 
Q 26.703125 10.9375 33.296875 10.9375 
Q 40.28125 10.9375 43.8125 13.890625 
Q 47.359375 16.84375 47.359375 20.796875 
Q 47.359375 23.34375 45.875 25.125 
Q 44.390625 26.90625 40.671875 28.21875 
Q 38.140625 29.109375 29.109375 31.34375 
Q 17.484375 34.234375 12.796875 38.421875 
Q 6.203125 44.34375 6.203125 52.828125 
Q 6.203125 58.296875 9.296875 63.0625 
Q 12.40625 67.828125 18.234375 70.3125 
Q 24.078125 72.796875 32.328125 72.796875 
Q 45.796875 72.796875 52.609375 66.890625 
Q 59.421875 60.984375 59.765625 51.125 
L 45.3125 50.484375 
Q 44.390625 56 41.328125 58.421875 
Q 38.28125 60.84375 32.171875 60.84375 
Q 25.875 60.84375 22.3125 58.25 
Q 20.015625 56.59375 20.015625 53.8125 
Q 20.015625 51.265625 22.171875 49.46875 
Q 24.90625 47.171875 35.453125 44.671875 
Q 46 42.1875 51.046875 39.515625 
Q 56.109375 36.859375 58.953125 32.25 
Q 61.8125 27.640625 61.8125 20.84375 
Q 61.8125 14.703125 58.390625 9.328125 
Q 54.984375 3.953125 48.734375 1.34375 
Q 42.484375 -1.265625 33.15625 -1.265625 
Q 19.578125 -1.265625 12.296875 5 
Q 5.03125 11.28125 3.609375 23.296875 
z
" id="Arial-BoldMT-83"/>
      <path d="M 3.375 -21.046875 
Q 7.421875 -12.359375 9.078125 -7.71875 
Q 10.75 -3.078125 12.15625 2.96875 
Q 13.578125 9.03125 14.25 14.46875 
Q 14.9375 19.921875 14.9375 25.640625 
Q 14.9375 37.25 12.453125 47.625 
Q 9.96875 58.015625 3.265625 72.796875 
L 12.59375 72.796875 
Q 19.96875 62.3125 24.046875 50.53125 
Q 28.125 38.765625 28.125 26.65625 
Q 28.125 16.453125 24.90625 4.78125 
Q 21.234375 -8.296875 12.84375 -21.046875 
z
" id="Arial-BoldMT-41"/>
     </defs>
     <g transform="translate(255.349375 502.615312)scale(0.2 -0.2)">
      <use xlink:href="#Arial-BoldMT-84"/>
      <use x="61.083984" xlink:href="#Arial-BoldMT-73"/>
      <use x="88.867188" xlink:href="#Arial-BoldMT-77"/>
      <use x="172.167969" xlink:href="#Arial-BoldMT-69"/>
      <use x="238.867188" xlink:href="#Arial-BoldMT-32"/>
      <use x="266.650391" xlink:href="#Arial-BoldMT-40"/>
      <use x="299.951172" xlink:href="#Arial-BoldMT-68"/>
      <use x="372.167969" xlink:href="#Arial-BoldMT-65"/>
      <use x="444.244141" xlink:href="#Arial-BoldMT-89"/>
      <use x="510.943359" xlink:href="#Arial-BoldMT-83"/>
      <use x="577.642578" xlink:href="#Arial-BoldMT-41"/>
     </g>
    </g>
   </g>
   <g id="matplotlib.axis_2">
    <g id="ytick_1">
     <g id="line2d_9">
      <defs>
       <path d="M 0 0 
L -3.5 0 
" id="mfe977e610d" style="stroke:#000000;stroke-width:0.8;"/>
      </defs>
      <g>
       <use style="stroke:#000000;stroke-width:0.8;" x="121.143125" xlink:href="#mfe977e610d" y="442.021562"/>
      </g>
     </g>
     <g id="text_10">
      <!-- 0 -->
      <g transform="translate(95.055625 453.419219)scale(0.3 -0.3)">
       <use xlink:href="#DejaVuSans-48"/>
      </g>
     </g>
    </g>
    <g id="ytick_2">
     <g id="line2d_10">
      <g>
       <use style="stroke:#000000;stroke-width:0.8;" x="121.143125" xlink:href="#mfe977e610d" y="394.456562"/>
      </g>
     </g>
     <g id="text_11">
      <!-- 20 -->
      <g transform="translate(75.968125 405.854219)scale(0.3 -0.3)">
       <use xlink:href="#DejaVuSans-50"/>
       <use x="63.623047" xlink:href="#DejaVuSans-48"/>
      </g>
     </g>
    </g>
    <g id="ytick_3">
     <g id="line2d_11">
      <g>
       <use style="stroke:#000000;stroke-width:0.8;" x="121.143125" xlink:href="#mfe977e610d" y="346.891562"/>
      </g>
     </g>
     <g id="text_12">
      <!-- 40 -->
      <g transform="translate(75.968125 358.289219)scale(0.3 -0.3)">
       <use xlink:href="#DejaVuSans-52"/>
       <use x="63.623047" xlink:href="#DejaVuSans-48"/>
      </g>
     </g>
    </g>
    <g id="ytick_4">
     <g id="line2d_12">
      <g>
       <use style="stroke:#000000;stroke-width:0.8;" x="121.143125" xlink:href="#mfe977e610d" y="299.326562"/>
      </g>
     </g>
     <g id="text_13">
      <!-- 60 -->
      <g transform="translate(75.968125 310.724219)scale(0.3 -0.3)">
       <use xlink:href="#DejaVuSans-54"/>
       <use x="63.623047" xlink:href="#DejaVuSans-48"/>
      </g>
     </g>
    </g>
    <g id="ytick_5">
     <g id="line2d_13">
      <g>
       <use style="stroke:#000000;stroke-width:0.8;" x="121.143125" xlink:href="#mfe977e610d" y="251.761562"/>
      </g>
     </g>
     <g id="text_14">
      <!-- 80 -->
      <defs>
       <path d="M 31.78125 34.625 
Q 24.75 34.625 20.71875 30.859375 
Q 16.703125 27.09375 16.703125 20.515625 
Q 16.703125 13.921875 20.71875 10.15625 
Q 24.75 6.390625 31.78125 6.390625 
Q 38.8125 6.390625 42.859375 10.171875 
Q 46.921875 13.96875 46.921875 20.515625 
Q 46.921875 27.09375 42.890625 30.859375 
Q 38.875 34.625 31.78125 34.625 
z
M 21.921875 38.8125 
Q 15.578125 40.375 12.03125 44.71875 
Q 8.5 49.078125 8.5 55.328125 
Q 8.5 64.0625 14.71875 69.140625 
Q 20.953125 74.21875 31.78125 74.21875 
Q 42.671875 74.21875 48.875 69.140625 
Q 55.078125 64.0625 55.078125 55.328125 
Q 55.078125 49.078125 51.53125 44.71875 
Q 48 40.375 41.703125 38.8125 
Q 48.828125 37.15625 52.796875 32.3125 
Q 56.78125 27.484375 56.78125 20.515625 
Q 56.78125 9.90625 50.3125 4.234375 
Q 43.84375 -1.421875 31.78125 -1.421875 
Q 19.734375 -1.421875 13.25 4.234375 
Q 6.78125 9.90625 6.78125 20.515625 
Q 6.78125 27.484375 10.78125 32.3125 
Q 14.796875 37.15625 21.921875 38.8125 
z
M 18.3125 54.390625 
Q 18.3125 48.734375 21.84375 45.5625 
Q 25.390625 42.390625 31.78125 42.390625 
Q 38.140625 42.390625 41.71875 45.5625 
Q 45.3125 48.734375 45.3125 54.390625 
Q 45.3125 60.0625 41.71875 63.234375 
Q 38.140625 66.40625 31.78125 66.40625 
Q 25.390625 66.40625 21.84375 63.234375 
Q 18.3125 60.0625 18.3125 54.390625 
z
" id="DejaVuSans-56"/>
      </defs>
      <g transform="translate(75.968125 263.159219)scale(0.3 -0.3)">
       <use xlink:href="#DejaVuSans-56"/>
       <use x="63.623047" xlink:href="#DejaVuSans-48"/>
      </g>
     </g>
    </g>
    <g id="ytick_6">
     <g id="line2d_14">
      <g>
       <use style="stroke:#000000;stroke-width:0.8;" x="121.143125" xlink:href="#mfe977e610d" y="204.196562"/>
      </g>
     </g>
     <g id="text_15">
      <!-- 100 -->
      <g transform="translate(56.880625 215.594219)scale(0.3 -0.3)">
       <use xlink:href="#DejaVuSans-49"/>
       <use x="63.623047" xlink:href="#DejaVuSans-48"/>
       <use x="127.246094" xlink:href="#DejaVuSans-48"/>
      </g>
     </g>
    </g>
    <g id="ytick_7">
     <g id="line2d_15">
      <g>
       <use style="stroke:#000000;stroke-width:0.8;" x="121.143125" xlink:href="#mfe977e610d" y="156.631562"/>
      </g>
     </g>
     <g id="text_16">
      <!-- 120 -->
      <g transform="translate(56.880625 168.029219)scale(0.3 -0.3)">
       <use xlink:href="#DejaVuSans-49"/>
       <use x="63.623047" xlink:href="#DejaVuSans-50"/>
       <use x="127.246094" xlink:href="#DejaVuSans-48"/>
      </g>
     </g>
    </g>
    <g id="ytick_8">
     <g id="line2d_16">
      <g>
       <use style="stroke:#000000;stroke-width:0.8;" x="121.143125" xlink:href="#mfe977e610d" y="109.066562"/>
      </g>
     </g>
     <g id="text_17">
      <!-- 140 -->
      <g transform="translate(56.880625 120.464219)scale(0.3 -0.3)">
       <use xlink:href="#DejaVuSans-49"/>
       <use x="63.623047" xlink:href="#DejaVuSans-52"/>
       <use x="127.246094" xlink:href="#DejaVuSans-48"/>
      </g>
     </g>
    </g>
    <g id="ytick_9">
     <g id="line2d_17">
      <g>
       <use style="stroke:#000000;stroke-width:0.8;" x="121.143125" xlink:href="#mfe977e610d" y="61.501562"/>
      </g>
     </g>
     <g id="text_18">
      <!-- 160 -->
      <g transform="translate(56.880625 72.899219)scale(0.3 -0.3)">
       <use xlink:href="#DejaVuSans-49"/>
       <use x="63.623047" xlink:href="#DejaVuSans-54"/>
       <use x="127.246094" xlink:href="#DejaVuSans-48"/>
      </g>
     </g>
    </g>
    <g id="text_19">
     <!-- TGFA CONCENTRATION -->
     <defs>
      <path d="M 40.578125 26.3125 
L 40.578125 38.375 
L 71.734375 38.375 
L 71.734375 9.859375 
Q 67.1875 5.46875 58.5625 2.125 
Q 49.953125 -1.21875 41.109375 -1.21875 
Q 29.890625 -1.21875 21.53125 3.484375 
Q 13.1875 8.203125 8.984375 16.96875 
Q 4.78125 25.734375 4.78125 36.03125 
Q 4.78125 47.21875 9.46875 55.90625 
Q 14.15625 64.59375 23.1875 69.234375 
Q 30.078125 72.796875 40.328125 72.796875 
Q 53.65625 72.796875 61.15625 67.203125 
Q 68.65625 61.625 70.796875 51.765625 
L 56.453125 49.078125 
Q 54.9375 54.34375 50.75 57.390625 
Q 46.578125 60.453125 40.328125 60.453125 
Q 30.859375 60.453125 25.265625 54.4375 
Q 19.671875 48.4375 19.671875 36.625 
Q 19.671875 23.875 25.328125 17.5 
Q 31 11.140625 40.1875 11.140625 
Q 44.734375 11.140625 49.296875 12.921875 
Q 53.859375 14.703125 57.125 17.234375 
L 57.125 26.3125 
z
" id="Arial-BoldMT-71"/>
      <path d="M 7.375 0 
L 7.375 71.578125 
L 56.453125 71.578125 
L 56.453125 59.46875 
L 21.828125 59.46875 
L 21.828125 42.53125 
L 51.703125 42.53125 
L 51.703125 30.421875 
L 21.828125 30.421875 
L 21.828125 0 
z
" id="Arial-BoldMT-70"/>
      <path d="M 53.078125 26.3125 
L 67.09375 21.875 
Q 63.875 10.15625 56.375 4.46875 
Q 48.875 -1.21875 37.359375 -1.21875 
Q 23.09375 -1.21875 13.90625 8.515625 
Q 4.734375 18.265625 4.734375 35.15625 
Q 4.734375 53.03125 13.953125 62.90625 
Q 23.1875 72.796875 38.234375 72.796875 
Q 51.375 72.796875 59.578125 65.046875 
Q 64.453125 60.453125 66.890625 51.859375 
L 52.59375 48.4375 
Q 51.3125 54 47.28125 57.21875 
Q 43.265625 60.453125 37.5 60.453125 
Q 29.546875 60.453125 24.578125 54.734375 
Q 19.625 49.03125 19.625 36.234375 
Q 19.625 22.65625 24.5 16.890625 
Q 29.390625 11.140625 37.203125 11.140625 
Q 42.96875 11.140625 47.109375 14.796875 
Q 51.265625 18.453125 53.078125 26.3125 
z
" id="Arial-BoldMT-67"/>
      <path d="M 4.34375 35.359375 
Q 4.34375 46.296875 7.625 53.71875 
Q 10.0625 59.1875 14.28125 63.53125 
Q 18.5 67.875 23.53125 69.96875 
Q 30.21875 72.796875 38.96875 72.796875 
Q 54.78125 72.796875 64.28125 62.984375 
Q 73.78125 53.171875 73.78125 35.6875 
Q 73.78125 18.359375 64.359375 8.5625 
Q 54.9375 -1.21875 39.15625 -1.21875 
Q 23.1875 -1.21875 13.765625 8.515625 
Q 4.34375 18.265625 4.34375 35.359375 
z
M 19.234375 35.84375 
Q 19.234375 23.6875 24.84375 17.40625 
Q 30.46875 11.140625 39.109375 11.140625 
Q 47.75 11.140625 53.296875 17.359375 
Q 58.84375 23.578125 58.84375 36.03125 
Q 58.84375 48.34375 53.4375 54.390625 
Q 48.046875 60.453125 39.109375 60.453125 
Q 30.171875 60.453125 24.703125 54.3125 
Q 19.234375 48.1875 19.234375 35.84375 
z
" id="Arial-BoldMT-79"/>
      <path d="M 7.421875 0 
L 7.421875 71.578125 
L 21.484375 71.578125 
L 50.78125 23.78125 
L 50.78125 71.578125 
L 64.203125 71.578125 
L 64.203125 0 
L 49.703125 0 
L 20.84375 46.6875 
L 20.84375 0 
z
" id="Arial-BoldMT-78"/>
      <path d="M 7.328125 0 
L 7.328125 71.578125 
L 37.75 71.578125 
Q 49.21875 71.578125 54.421875 69.640625 
Q 59.625 67.71875 62.75 62.78125 
Q 65.875 57.859375 65.875 51.515625 
Q 65.875 43.453125 61.125 38.203125 
Q 56.390625 32.953125 46.96875 31.59375 
Q 51.65625 28.859375 54.703125 25.578125 
Q 57.765625 22.3125 62.9375 13.96875 
L 71.6875 0 
L 54.390625 0 
L 43.953125 15.578125 
Q 38.375 23.921875 36.328125 26.09375 
Q 34.28125 28.265625 31.984375 29.078125 
Q 29.6875 29.890625 24.703125 29.890625 
L 21.78125 29.890625 
L 21.78125 0 
z
M 21.78125 41.3125 
L 32.46875 41.3125 
Q 42.875 41.3125 45.453125 42.1875 
Q 48.046875 43.0625 49.515625 45.203125 
Q 50.984375 47.359375 50.984375 50.59375 
Q 50.984375 54.203125 49.046875 56.421875 
Q 47.125 58.640625 43.609375 59.234375 
Q 41.84375 59.46875 33.0625 59.46875 
L 21.78125 59.46875 
z
" id="Arial-BoldMT-82"/>
     </defs>
     <g transform="translate(21.253125 369.505312)rotate(-90)scale(0.2 -0.2)">
      <use xlink:href="#Arial-BoldMT-84"/>
      <use x="61.083984" xlink:href="#Arial-BoldMT-71"/>
      <use x="138.867188" xlink:href="#Arial-BoldMT-70"/>
      <use x="199.873047" xlink:href="#Arial-BoldMT-65"/>
      <use x="272.042969" xlink:href="#Arial-BoldMT-32"/>
      <use x="299.826172" xlink:href="#Arial-BoldMT-67"/>
      <use x="372.042969" xlink:href="#Arial-BoldMT-79"/>
      <use x="449.826172" xlink:href="#Arial-BoldMT-78"/>
      <use x="522.042969" xlink:href="#Arial-BoldMT-67"/>
      <use x="594.259766" xlink:href="#Arial-BoldMT-69"/>
      <use x="660.958984" xlink:href="#Arial-BoldMT-78"/>
      <use x="733.175781" xlink:href="#Arial-BoldMT-84"/>
      <use x="794.259766" xlink:href="#Arial-BoldMT-82"/>
      <use x="866.476562" xlink:href="#Arial-BoldMT-65"/>
      <use x="938.583984" xlink:href="#Arial-BoldMT-84"/>
      <use x="999.667969" xlink:href="#Arial-BoldMT-73"/>
      <use x="1027.451172" xlink:href="#Arial-BoldMT-79"/>
      <use x="1105.234375" xlink:href="#Arial-BoldMT-78"/>
     </g>
     <!-- (pg/ml) -->
     <defs>
      <path d="M 6.78125 51.859375 
L 19.578125 51.859375 
L 19.578125 44.234375 
Q 22.078125 48.140625 26.3125 50.578125 
Q 30.5625 53.03125 35.75 53.03125 
Q 44.78125 53.03125 51.078125 45.953125 
Q 57.375 38.875 57.375 26.21875 
Q 57.375 13.234375 51.015625 6.03125 
Q 44.671875 -1.171875 35.640625 -1.171875 
Q 31.34375 -1.171875 27.84375 0.53125 
Q 24.359375 2.25 20.515625 6.390625 
L 20.515625 -19.734375 
L 6.78125 -19.734375 
z
M 20.359375 26.8125 
Q 20.359375 18.0625 23.828125 13.890625 
Q 27.296875 9.71875 32.28125 9.71875 
Q 37.0625 9.71875 40.234375 13.546875 
Q 43.40625 17.390625 43.40625 26.125 
Q 43.40625 34.28125 40.125 38.234375 
Q 36.859375 42.1875 32.03125 42.1875 
Q 27 42.1875 23.671875 38.296875 
Q 20.359375 34.421875 20.359375 26.8125 
z
" id="Arial-BoldMT-112"/>
      <path d="M 5.90625 -3.421875 
L 21.578125 -5.328125 
Q 21.96875 -8.0625 23.390625 -9.078125 
Q 25.34375 -10.546875 29.546875 -10.546875 
Q 34.90625 -10.546875 37.59375 -8.9375 
Q 39.40625 -7.859375 40.328125 -5.46875 
Q 40.96875 -3.765625 40.96875 0.828125 
L 40.96875 8.40625 
Q 34.8125 0 25.4375 0 
Q 14.984375 0 8.890625 8.84375 
Q 4.109375 15.828125 4.109375 26.21875 
Q 4.109375 39.265625 10.375 46.140625 
Q 16.65625 53.03125 25.984375 53.03125 
Q 35.59375 53.03125 41.84375 44.578125 
L 41.84375 51.859375 
L 54.6875 51.859375 
L 54.6875 5.328125 
Q 54.6875 -3.859375 53.171875 -8.390625 
Q 51.65625 -12.9375 48.921875 -15.515625 
Q 46.1875 -18.109375 41.625 -19.578125 
Q 37.0625 -21.046875 30.078125 -21.046875 
Q 16.890625 -21.046875 11.375 -16.53125 
Q 5.859375 -12.015625 5.859375 -5.078125 
Q 5.859375 -4.390625 5.90625 -3.421875 
z
M 18.171875 27 
Q 18.171875 18.75 21.359375 14.90625 
Q 24.5625 11.078125 29.25 11.078125 
Q 34.28125 11.078125 37.75 15.015625 
Q 41.21875 18.953125 41.21875 26.65625 
Q 41.21875 34.71875 37.890625 38.625 
Q 34.578125 42.53125 29.5 42.53125 
Q 24.5625 42.53125 21.359375 38.6875 
Q 18.171875 34.859375 18.171875 27 
z
" id="Arial-BoldMT-103"/>
      <path d="M -0.140625 -1.21875 
L 17.578125 72.796875 
L 27.875 72.796875 
L 9.96875 -1.21875 
z
" id="Arial-BoldMT-47"/>
      <path d="M 6.15625 51.859375 
L 18.796875 51.859375 
L 18.796875 44.78125 
Q 25.59375 53.03125 34.96875 53.03125 
Q 39.9375 53.03125 43.59375 50.96875 
Q 47.265625 48.921875 49.609375 44.78125 
Q 53.03125 48.921875 56.984375 50.96875 
Q 60.9375 53.03125 65.4375 53.03125 
Q 71.140625 53.03125 75.09375 50.703125 
Q 79.046875 48.390625 81 43.890625 
Q 82.421875 40.578125 82.421875 33.15625 
L 82.421875 0 
L 68.703125 0 
L 68.703125 29.640625 
Q 68.703125 37.359375 67.28125 39.59375 
Q 65.375 42.53125 61.421875 42.53125 
Q 58.546875 42.53125 56 40.765625 
Q 53.46875 39.015625 52.34375 35.625 
Q 51.21875 32.234375 51.21875 24.90625 
L 51.21875 0 
L 37.5 0 
L 37.5 28.421875 
Q 37.5 35.984375 36.765625 38.171875 
Q 36.03125 40.375 34.484375 41.453125 
Q 32.953125 42.53125 30.328125 42.53125 
Q 27.15625 42.53125 24.609375 40.8125 
Q 22.078125 39.109375 20.96875 35.890625 
Q 19.875 32.671875 19.875 25.203125 
L 19.875 0 
L 6.15625 0 
z
" id="Arial-BoldMT-109"/>
      <path d="M 7.171875 0 
L 7.171875 71.578125 
L 20.90625 71.578125 
L 20.90625 0 
z
" id="Arial-BoldMT-108"/>
     </defs>
     <g transform="translate(42.67125 285.085)rotate(-90)scale(0.2 -0.2)">
      <use xlink:href="#Arial-BoldMT-40"/>
      <use x="33.300781" xlink:href="#Arial-BoldMT-112"/>
      <use x="94.384766" xlink:href="#Arial-BoldMT-103"/>
      <use x="155.46875" xlink:href="#Arial-BoldMT-47"/>
      <use x="183.251953" xlink:href="#Arial-BoldMT-109"/>
      <use x="272.167969" xlink:href="#Arial-BoldMT-108"/>
      <use x="299.951172" xlink:href="#Arial-BoldMT-41"/>
     </g>
    </g>
   </g>
   <g id="line2d_18">
    <path clip-path="url(#p5891761fc6)" d="M 155.687782 -1 
L 176.943125 64.866571 
L 204.843125 77.852031 
L 232.743125 79.635719 
L 260.643125 79.904393 
L 288.543125 79.933 
L 316.443125 79.933 
L 344.343125 79.928232 
L 372.243125 79.746967 
L 400.143125 79.732664 
L 428.043125 79.702468 
L 455.943125 79.635719 
L 483.843125 79.635719 
L 511.743125 79.635719 
" style="fill:none;stroke:#08306b;stroke-linecap:square;stroke-width:1.5;"/>
   </g>
   <g id="line2d_19">
    <path clip-path="url(#p5891761fc6)" d="M 155.69748 -1 
L 176.943125 64.835845 
L 204.843125 77.852031 
L 232.743125 79.635719 
L 260.643125 79.933 
L 288.543125 79.933 
L 316.443125 79.933 
L 344.343125 79.933 
L 372.243125 79.732664 
L 400.143125 79.732664 
L 428.043125 79.702468 
L 455.943125 79.635719 
L 483.843125 79.635719 
L 511.743125 79.635719 
" style="fill:none;stroke:#08306b;stroke-linecap:square;stroke-width:1.5;"/>
   </g>
   <g id="line2d_20">
    <path clip-path="url(#p5891761fc6)" d="M 155.677295 -1 
L 176.943125 64.850678 
L 204.843125 77.852031 
L 232.743125 79.635719 
L 260.643125 79.919226 
L 288.543125 79.933 
L 316.443125 79.933 
L 344.343125 79.901215 
L 372.243125 79.734342 
L 400.143125 79.717831 
L 428.043125 79.702468 
L 455.943125 79.670153 
L 483.843125 79.635719 
L 511.743125 79.635719 
" style="fill:none;stroke:#08306b;stroke-linecap:square;stroke-width:1.5;"/>
   </g>
   <g id="line2d_21">
    <path clip-path="url(#p5891761fc6)" d="M 155.684807 -1 
L 176.943125 64.866571 
L 204.843125 77.852031 
L 232.743125 79.635719 
L 260.643125 79.933 
L 288.543125 79.933 
L 316.443125 79.933 
L 344.343125 79.913841 
L 372.243125 79.732664 
L 400.143125 79.702468 
L 428.043125 79.686575 
L 455.943125 79.635719 
L 483.843125 79.635719 
L 511.743125 79.635719 
" style="fill:none;stroke:#08306b;stroke-linecap:square;stroke-width:1.5;"/>
   </g>
   <g id="line2d_22">
    <path clip-path="url(#p5891761fc6)" d="M 155.712321 -1 
L 176.943125 64.801411 
L 204.843125 77.852031 
L 232.743125 79.635719 
L 260.643125 79.902804 
L 288.543125 79.933 
L 316.443125 79.933 
L 344.343125 79.887353 
L 372.243125 79.717831 
L 400.143125 79.717831 
L 428.043125 79.702468 
L 455.943125 79.670153 
L 483.843125 79.635719 
L 511.743125 79.635719 
" style="fill:none;stroke:#08306b;stroke-linecap:square;stroke-width:1.5;"/>
   </g>
   <g id="line2d_23">
    <path clip-path="url(#p5891761fc6)" d="M 155.694984 -1 
L 176.943125 64.835845 
L 204.843125 77.852031 
L 232.743125 79.635719 
L 260.643125 79.933 
L 288.543125 79.933 
L 316.443125 79.933 
L 344.343125 79.933 
L 372.243125 79.732664 
L 400.143125 79.653201 
L 428.043125 79.686575 
L 455.943125 79.635719 
L 483.843125 79.635719 
L 511.743125 79.635719 
" style="fill:none;stroke:#08306b;stroke-linecap:square;stroke-width:1.5;"/>
   </g>
   <g id="line2d_24">
    <path clip-path="url(#p5891761fc6)" d="M 155.691369 -1 
L 176.943125 64.850678 
L 204.843125 77.852031 
L 232.743125 79.635719 
L 260.643125 79.933 
L 288.543125 79.933 
L 316.443125 79.933 
L 344.343125 79.913841 
L 372.243125 79.717831 
L 400.143125 79.732664 
L 428.043125 79.702468 
L 455.943125 79.670153 
L 483.843125 79.635719 
L 511.743125 79.635719 
" style="fill:none;stroke:#08306b;stroke-linecap:square;stroke-width:1.5;"/>
   </g>
   <g id="line2d_25">
    <path clip-path="url(#p5891761fc6)" d="M 155.703885 -1 
L 176.943125 64.801411 
L 204.843125 77.852031 
L 232.743125 79.635719 
L 260.643125 79.933 
L 288.543125 79.933 
L 316.443125 79.933 
L 344.343125 79.918079 
L 372.243125 79.760741 
L 400.143125 79.732664 
L 428.043125 79.702468 
L 455.943125 79.686575 
L 483.843125 79.635719 
L 511.743125 79.635719 
" style="fill:none;stroke:#08306b;stroke-linecap:square;stroke-width:1.5;"/>
   </g>
   <g id="line2d_26">
    <path clip-path="url(#p5891761fc6)" d="M 155.70165 -1 
L 176.943125 64.801411 
L 204.843125 77.853709 
L 232.743125 79.635719 
L 260.643125 79.933 
L 288.543125 79.933 
L 316.443125 79.933 
L 344.343125 79.868811 
L 372.243125 79.732664 
L 400.143125 79.717831 
L 428.043125 79.702468 
L 455.943125 79.635719 
L 483.843125 79.635719 
L 511.743125 79.635719 
" style="fill:none;stroke:#08306b;stroke-linecap:square;stroke-width:1.5;"/>
   </g>
   <g id="line2d_27">
    <path clip-path="url(#p5891761fc6)" d="M 155.710652 -1 
L 176.943125 64.801411 
L 204.843125 77.852031 
L 232.743125 79.635719 
L 260.643125 79.933 
L 288.543125 79.933 
L 316.443125 79.933 
L 344.343125 79.932382 
L 372.243125 79.732664 
L 400.143125 79.702468 
L 428.043125 79.686575 
L 455.943125 79.635719 
L 483.843125 79.635719 
L 511.743125 79.635719 
" style="fill:none;stroke:#08306b;stroke-linecap:square;stroke-width:1.5;"/>
   </g>
   <g id="line2d_28">
    <path clip-path="url(#p5891761fc6)" d="M 155.68687 -1 
L 176.943125 64.866571 
L 204.843125 77.852649 
L 232.743125 79.635719 
L 260.643125 79.933 
L 288.543125 79.933 
L 316.443125 79.933 
L 344.343125 79.933 
L 372.243125 79.836584 
L 400.143125 79.746967 
L 428.043125 79.746967 
L 455.943125 79.746967 
L 483.843125 79.717831 
L 511.743125 79.702468 
" style="fill:none;stroke:#4a98c9;stroke-linecap:square;stroke-width:1.5;"/>
   </g>
   <g id="line2d_29">
    <path clip-path="url(#p5891761fc6)" d="M 155.685008 -1 
L 176.943125 64.850678 
L 204.843125 77.852031 
L 232.743125 79.635719 
L 260.643125 79.926643 
L 288.543125 79.933 
L 316.443125 79.933 
L 344.343125 79.933 
L 372.243125 79.832788 
L 400.143125 79.746967 
L 428.043125 79.762419 
L 455.943125 79.732664 
L 483.843125 79.702468 
L 511.743125 79.686575 
" style="fill:none;stroke:#4a98c9;stroke-linecap:square;stroke-width:1.5;"/>
   </g>
   <g id="line2d_30">
    <path clip-path="url(#p5891761fc6)" d="M 155.676075 -1 
L 176.943125 64.866571 
L 204.843125 77.852031 
L 232.743125 79.635719 
L 260.643125 79.933 
L 288.543125 79.933 
L 316.443125 79.933 
L 344.343125 79.933 
L 372.243125 79.810626 
L 400.143125 79.760741 
L 428.043125 79.760741 
L 455.943125 79.732664 
L 483.843125 79.717831 
L 511.743125 79.686575 
" style="fill:none;stroke:#4a98c9;stroke-linecap:square;stroke-width:1.5;"/>
   </g>
   <g id="line2d_31">
    <path clip-path="url(#p5891761fc6)" d="M 155.683374 -1 
L 176.943125 64.866571 
L 204.843125 77.852031 
L 232.743125 79.635719 
L 260.643125 79.933 
L 288.543125 79.933 
L 316.443125 79.933 
L 344.343125 79.933 
L 372.243125 79.832258 
L 400.143125 79.746967 
L 428.043125 79.732664 
L 455.943125 79.746967 
L 483.843125 79.702468 
L 511.743125 79.635719 
" style="fill:none;stroke:#4a98c9;stroke-linecap:square;stroke-width:1.5;"/>
   </g>
   <g id="line2d_32">
    <path clip-path="url(#p5891761fc6)" d="M 155.707743 -1 
L 176.943125 64.850678 
L 204.843125 77.852031 
L 232.743125 79.635719 
L 260.643125 79.933 
L 288.543125 79.933 
L 316.443125 79.933 
L 344.343125 79.927614 
L 372.243125 79.812127 
L 400.143125 79.746967 
L 428.043125 79.786699 
L 455.943125 79.746967 
L 483.843125 79.717831 
L 511.743125 79.686575 
" style="fill:none;stroke:#4a98c9;stroke-linecap:square;stroke-width:1.5;"/>
   </g>
   <g id="line2d_33">
    <path clip-path="url(#p5891761fc6)" d="M 155.682747 -1 
L 176.943125 64.871339 
L 204.843125 77.852031 
L 232.743125 79.635719 
L 260.643125 79.914988 
L 288.543125 79.933 
L 316.443125 79.933 
L 344.343125 79.933 
L 372.243125 79.822193 
L 400.143125 79.747585 
L 428.043125 79.752353 
L 455.943125 79.732664 
L 483.843125 79.686575 
L 511.743125 79.653201 
" style="fill:none;stroke:#4a98c9;stroke-linecap:square;stroke-width:1.5;"/>
   </g>
   <g id="line2d_34">
    <path clip-path="url(#p5891761fc6)" d="M 155.681029 -1 
L 176.943125 64.866571 
L 204.843125 77.852031 
L 232.743125 79.635719 
L 260.643125 79.933 
L 288.543125 79.933 
L 316.443125 79.933 
L 344.343125 79.933 
L 372.243125 79.909161 
L 400.143125 79.746967 
L 428.043125 79.773985 
L 455.943125 79.746967 
L 483.843125 79.702468 
L 511.743125 79.686575 
" style="fill:none;stroke:#4a98c9;stroke-linecap:square;stroke-width:1.5;"/>
   </g>
   <g id="line2d_35">
    <path clip-path="url(#p5891761fc6)" d="M 155.695015 -1 
L 176.943125 64.850678 
L 204.843125 77.852031 
L 232.743125 79.635719 
L 260.643125 79.933 
L 288.543125 79.933 
L 316.443125 79.933 
L 344.343125 79.933 
L 372.243125 79.773985 
L 400.143125 79.773985 
L 428.043125 79.760741 
L 455.943125 79.732664 
L 483.843125 79.717831 
L 511.743125 79.702468 
" style="fill:none;stroke:#4a98c9;stroke-linecap:square;stroke-width:1.5;"/>
   </g>
   <g id="line2d_36">
    <path clip-path="url(#p5891761fc6)" d="M 155.692959 -1 
L 176.943125 64.861891 
L 204.843125 77.853709 
L 232.743125 79.635719 
L 260.643125 79.933 
L 288.543125 79.933 
L 316.443125 79.933 
L 344.343125 79.933 
L 372.243125 79.797912 
L 400.143125 79.760741 
L 428.043125 79.754914 
L 455.943125 79.732664 
L 483.843125 79.702468 
L 511.743125 79.670153 
" style="fill:none;stroke:#4a98c9;stroke-linecap:square;stroke-width:1.5;"/>
   </g>
   <g id="line2d_37">
    <path clip-path="url(#p5891761fc6)" d="M 155.699172 -1 
L 176.943125 64.849089 
L 204.843125 77.852031 
L 232.743125 79.635719 
L 260.643125 79.933 
L 288.543125 79.933 
L 316.443125 79.933 
L 344.343125 79.933 
L 372.243125 79.844001 
L 400.143125 79.760741 
L 428.043125 79.773985 
L 455.943125 79.732664 
L 483.843125 79.702468 
L 511.743125 79.686575 
" style="fill:none;stroke:#4a98c9;stroke-linecap:square;stroke-width:1.5;"/>
   </g>
   <g id="line2d_38">
    <path clip-path="url(#p5891761fc6)" d="M 155.685706 -1 
L 176.943125 64.86816 
L 204.843125 77.852649 
L 232.743125 79.635719 
L 260.643125 79.933 
L 288.543125 79.933 
L 316.443125 79.933 
L 344.343125 79.933 
L 372.243125 79.933 
L 400.143125 79.906512 
L 428.043125 79.773985 
L 455.943125 79.746967 
L 483.843125 79.746967 
L 511.743125 79.732664 
" style="fill:none;stroke:#d0e1f2;stroke-linecap:square;stroke-width:1.5;"/>
   </g>
   <g id="line2d_39">
    <path clip-path="url(#p5891761fc6)" d="M 155.685008 -1 
L 176.943125 64.850678 
L 204.843125 77.852031 
L 232.743125 79.635719 
L 260.643125 79.933 
L 288.543125 79.933 
L 316.443125 79.933 
L 344.343125 79.933 
L 372.243125 79.933 
L 400.143125 79.918079 
L 428.043125 79.805241 
L 455.943125 79.773985 
L 483.843125 79.746967 
L 511.743125 79.746967 
" style="fill:none;stroke:#d0e1f2;stroke-linecap:square;stroke-width:1.5;"/>
   </g>
   <g id="line2d_40">
    <path clip-path="url(#p5891761fc6)" d="M 155.674119 -1 
L 176.943125 64.866571 
L 204.843125 77.852031 
L 232.743125 79.635719 
L 260.643125 79.933 
L 288.543125 79.933 
L 316.443125 79.933 
L 344.343125 79.933 
L 372.243125 79.933 
L 400.143125 79.877376 
L 428.043125 79.810538 
L 455.943125 79.773985 
L 483.843125 79.746967 
L 511.743125 79.746967 
" style="fill:none;stroke:#d0e1f2;stroke-linecap:square;stroke-width:1.5;"/>
   </g>
   <g id="line2d_41">
    <path clip-path="url(#p5891761fc6)" d="M 155.684677 -1 
L 176.943125 64.866571 
L 204.843125 77.852031 
L 232.743125 79.635719 
L 260.643125 79.933 
L 288.543125 79.933 
L 316.443125 79.933 
L 344.343125 79.933 
L 372.243125 79.933 
L 400.143125 79.91075 
L 428.043125 79.786699 
L 455.943125 79.760741 
L 483.843125 79.746967 
L 511.743125 79.732664 
" style="fill:none;stroke:#d0e1f2;stroke-linecap:square;stroke-width:1.5;"/>
   </g>
   <g id="line2d_42">
    <path clip-path="url(#p5891761fc6)" d="M 155.707743 -1 
L 176.943125 64.850678 
L 204.843125 77.85212 
L 232.743125 79.635719 
L 260.643125 79.933 
L 288.543125 79.933 
L 316.443125 79.933 
L 344.343125 79.933 
L 372.243125 79.933 
L 400.143125 79.855126 
L 428.043125 79.786699 
L 455.943125 79.760741 
L 483.843125 79.746967 
L 511.743125 79.746967 
" style="fill:none;stroke:#d0e1f2;stroke-linecap:square;stroke-width:1.5;"/>
   </g>
   <g id="line2d_43">
    <path clip-path="url(#p5891761fc6)" d="M 155.682747 -1 
L 176.943125 64.871339 
L 204.843125 77.852031 
L 232.743125 79.635719 
L 260.643125 79.933 
L 288.543125 79.933 
L 316.443125 79.933 
L 344.343125 79.933 
L 372.243125 79.933 
L 400.143125 79.914988 
L 428.043125 79.804181 
L 455.943125 79.760741 
L 483.843125 79.746967 
L 511.743125 79.746967 
" style="fill:none;stroke:#d0e1f2;stroke-linecap:square;stroke-width:1.5;"/>
   </g>
   <g id="line2d_44">
    <path clip-path="url(#p5891761fc6)" d="M 155.681029 -1 
L 176.943125 64.866571 
L 204.843125 77.852031 
L 232.743125 79.635719 
L 260.643125 79.933 
L 288.543125 79.933 
L 316.443125 79.933 
L 344.343125 79.933 
L 372.243125 79.933 
L 400.143125 79.933 
L 428.043125 79.798884 
L 455.943125 79.773985 
L 483.843125 79.746967 
L 511.743125 79.732664 
" style="fill:none;stroke:#d0e1f2;stroke-linecap:square;stroke-width:1.5;"/>
   </g>
   <g id="line2d_45">
    <path clip-path="url(#p5891761fc6)" d="M 155.692281 -1 
L 176.943125 64.850678 
L 204.843125 77.852031 
L 232.743125 79.635719 
L 260.643125 79.933 
L 288.543125 79.933 
L 316.443125 79.933 
L 344.343125 79.933 
L 372.243125 79.933 
L 400.143125 79.933 
L 428.043125 79.799943 
L 455.943125 79.773985 
L 483.843125 79.746967 
L 511.743125 79.746967 
" style="fill:none;stroke:#d0e1f2;stroke-linecap:square;stroke-width:1.5;"/>
   </g>
   <g id="line2d_46">
    <path clip-path="url(#p5891761fc6)" d="M 155.684054 -1 
L 176.943125 64.877784 
L 204.843125 77.855298 
L 232.743125 79.635719 
L 260.643125 79.933 
L 288.543125 79.933 
L 316.443125 79.933 
L 344.343125 79.933 
L 372.243125 79.933 
L 400.143125 79.91234 
L 428.043125 79.773985 
L 455.943125 79.760741 
L 483.843125 79.746967 
L 511.743125 79.732664 
" style="fill:none;stroke:#d0e1f2;stroke-linecap:square;stroke-width:1.5;"/>
   </g>
   <g id="line2d_47">
    <path clip-path="url(#p5891761fc6)" d="M 155.699163 -1 
L 176.943125 64.855976 
L 204.843125 77.852031 
L 232.743125 79.635719 
L 260.643125 79.933 
L 288.543125 79.933 
L 316.443125 79.933 
L 344.343125 79.933 
L 372.243125 79.933 
L 400.143125 79.875698 
L 428.043125 79.786699 
L 455.943125 79.773985 
L 483.843125 79.760741 
L 511.743125 79.746967 
" style="fill:none;stroke:#d0e1f2;stroke-linecap:square;stroke-width:1.5;"/>
   </g>
   <g id="line2d_48">
    <path clip-path="url(#p5891761fc6)" d="M 155.685828 -1 
L 176.943125 64.866571 
L 204.843125 77.852031 
L 232.743125 79.635719 
L 260.643125 79.933 
L 288.543125 79.933 
L 316.443125 79.933 
L 344.343125 79.917107 
L 372.243125 79.732664 
L 400.143125 79.732664 
L 428.043125 79.717831 
L 455.943125 79.635719 
L 483.843125 79.635719 
L 511.743125 79.635719 
" style="fill:none;stroke:#1764ab;stroke-linecap:square;stroke-width:1.5;"/>
   </g>
   <g id="line2d_49">
    <path clip-path="url(#p5891761fc6)" d="M 155.694386 -1 
L 176.943125 64.850678 
L 204.843125 77.852031 
L 232.743125 79.635719 
L 260.643125 79.933 
L 288.543125 79.933 
L 316.443125 79.933 
L 344.343125 79.928232 
L 372.243125 79.760741 
L 400.143125 79.746967 
L 428.043125 79.686575 
L 455.943125 79.670153 
L 483.843125 79.635719 
L 511.743125 79.635719 
" style="fill:none;stroke:#1764ab;stroke-linecap:square;stroke-width:1.5;"/>
   </g>
   <g id="line2d_50">
    <path clip-path="url(#p5891761fc6)" d="M 155.676075 -1 
L 176.943125 64.866571 
L 204.843125 77.852031 
L 232.743125 79.635719 
L 260.643125 79.917107 
L 288.543125 79.933 
L 316.443125 79.933 
L 344.343125 79.933 
L 372.243125 79.732664 
L 400.143125 79.717831 
L 428.043125 79.702468 
L 455.943125 79.653201 
L 483.843125 79.635719 
L 511.743125 79.635719 
" style="fill:none;stroke:#1764ab;stroke-linecap:square;stroke-width:1.5;"/>
   </g>
   <g id="line2d_51">
    <path clip-path="url(#p5891761fc6)" d="M 155.684677 -1 
L 176.943125 64.866571 
L 204.843125 77.852031 
L 232.743125 79.635719 
L 260.643125 79.918697 
L 288.543125 79.933 
L 316.443125 79.933 
L 344.343125 79.924965 
L 372.243125 79.732664 
L 400.143125 79.717831 
L 428.043125 79.686575 
L 455.943125 79.635719 
L 483.843125 79.635719 
L 511.743125 79.635719 
" style="fill:none;stroke:#1764ab;stroke-linecap:square;stroke-width:1.5;"/>
   </g>
   <g id="line2d_52">
    <path clip-path="url(#p5891761fc6)" d="M 155.708524 -1 
L 176.943125 64.850678 
L 204.843125 77.852031 
L 232.743125 79.635719 
L 260.643125 79.933 
L 288.543125 79.933 
L 316.443125 79.933 
L 344.343125 79.931322 
L 372.243125 79.732664 
L 400.143125 79.732664 
L 428.043125 79.702468 
L 455.943125 79.635719 
L 483.843125 79.635719 
L 511.743125 79.635719 
" style="fill:none;stroke:#1764ab;stroke-linecap:square;stroke-width:1.5;"/>
   </g>
   <g id="line2d_53">
    <path clip-path="url(#p5891761fc6)" d="M 155.686761 -1 
L 176.943125 64.866571 
L 204.843125 77.852031 
L 232.743125 79.635719 
L 260.643125 79.933 
L 288.543125 79.933 
L 316.443125 79.933 
L 344.343125 79.933 
L 372.243125 79.73805 
L 400.143125 79.732664 
L 428.043125 79.717831 
L 455.943125 79.653201 
L 483.843125 79.635719 
L 511.743125 79.635719 
" style="fill:none;stroke:#1764ab;stroke-linecap:square;stroke-width:1.5;"/>
   </g>
   <g id="line2d_54">
    <path clip-path="url(#p5891761fc6)" d="M 155.692361 -1 
L 176.943125 64.866571 
L 204.843125 77.852031 
L 232.743125 79.635719 
L 260.643125 79.933 
L 288.543125 79.933 
L 316.443125 79.933 
L 344.343125 79.933 
L 372.243125 79.732664 
L 400.143125 79.732664 
L 428.043125 79.717831 
L 455.943125 79.653201 
L 483.843125 79.635719 
L 511.743125 79.635719 
" style="fill:none;stroke:#1764ab;stroke-linecap:square;stroke-width:1.5;"/>
   </g>
   <g id="line2d_55">
    <path clip-path="url(#p5891761fc6)" d="M 155.701233 -1 
L 176.943125 64.835845 
L 204.843125 77.852031 
L 232.743125 79.635719 
L 260.643125 79.933 
L 288.543125 79.933 
L 316.443125 79.933 
L 344.343125 79.933 
L 372.243125 79.732664 
L 400.143125 79.732664 
L 428.043125 79.717831 
L 455.943125 79.686575 
L 483.843125 79.635719 
L 511.743125 79.635719 
" style="fill:none;stroke:#1764ab;stroke-linecap:square;stroke-width:1.5;"/>
   </g>
   <g id="line2d_56">
    <path clip-path="url(#p5891761fc6)" d="M 155.693204 -1 
L 176.943125 64.858713 
L 204.843125 77.853709 
L 232.743125 79.635719 
L 260.643125 79.933 
L 288.543125 79.933 
L 316.443125 79.933 
L 344.343125 79.933 
L 372.243125 79.717831 
L 400.143125 79.746967 
L 428.043125 79.717831 
L 455.943125 79.670153 
L 483.843125 79.635719 
L 511.743125 79.635719 
" style="fill:none;stroke:#1764ab;stroke-linecap:square;stroke-width:1.5;"/>
   </g>
   <g id="line2d_57">
    <path clip-path="url(#p5891761fc6)" d="M 155.711302 -1 
L 176.943125 64.801411 
L 204.843125 77.852031 
L 232.743125 79.635719 
L 260.643125 79.933 
L 288.543125 79.933 
L 316.443125 79.933 
L 344.343125 79.932382 
L 372.243125 79.732664 
L 400.143125 79.760741 
L 428.043125 79.702468 
L 455.943125 79.653201 
L 483.843125 79.635719 
L 511.743125 79.635719 
" style="fill:none;stroke:#1764ab;stroke-linecap:square;stroke-width:1.5;"/>
   </g>
   <g id="line2d_58">
    <path clip-path="url(#p5891761fc6)" d="M 155.685706 -1 
L 176.943125 64.86816 
L 204.843125 77.852649 
L 232.743125 79.635719 
L 260.643125 79.933 
L 288.543125 79.933 
L 316.443125 79.933 
L 344.343125 79.933 
L 372.243125 79.933 
L 400.143125 79.773985 
L 428.043125 79.746967 
L 455.943125 79.746967 
L 483.843125 79.732664 
L 511.743125 79.717831 
" style="fill:none;stroke:#94c4df;stroke-linecap:square;stroke-width:1.5;"/>
   </g>
   <g id="line2d_59">
    <path clip-path="url(#p5891761fc6)" d="M 155.685008 -1 
L 176.943125 64.850678 
L 204.843125 77.852031 
L 232.743125 79.635719 
L 260.643125 79.933 
L 288.543125 79.933 
L 316.443125 79.933 
L 344.343125 79.933 
L 372.243125 79.933 
L 400.143125 79.786699 
L 428.043125 79.760741 
L 455.943125 79.732664 
L 483.843125 79.732664 
L 511.743125 79.717831 
" style="fill:none;stroke:#94c4df;stroke-linecap:square;stroke-width:1.5;"/>
   </g>
   <g id="line2d_60">
    <path clip-path="url(#p5891761fc6)" d="M 155.674119 -1 
L 176.943125 64.866571 
L 204.843125 77.852031 
L 232.743125 79.635719 
L 260.643125 79.933 
L 288.543125 79.933 
L 316.443125 79.933 
L 344.343125 79.933 
L 372.243125 79.933 
L 400.143125 79.810538 
L 428.043125 79.786699 
L 455.943125 79.760741 
L 483.843125 79.732664 
L 511.743125 79.732664 
" style="fill:none;stroke:#94c4df;stroke-linecap:square;stroke-width:1.5;"/>
   </g>
   <g id="line2d_61">
    <path clip-path="url(#p5891761fc6)" d="M 155.684677 -1 
L 176.943125 64.866571 
L 204.843125 77.85212 
L 232.743125 79.635719 
L 260.643125 79.933 
L 288.543125 79.933 
L 316.443125 79.933 
L 344.343125 79.933 
L 372.243125 79.933 
L 400.143125 79.788377 
L 428.043125 79.760741 
L 455.943125 79.760741 
L 483.843125 79.732664 
L 511.743125 79.686575 
" style="fill:none;stroke:#94c4df;stroke-linecap:square;stroke-width:1.5;"/>
   </g>
   <g id="line2d_62">
    <path clip-path="url(#p5891761fc6)" d="M 155.707743 -1 
L 176.943125 64.850678 
L 204.843125 77.852031 
L 232.743125 79.635719 
L 260.643125 79.933 
L 288.543125 79.933 
L 316.443125 79.933 
L 344.343125 79.933 
L 372.243125 79.82802 
L 400.143125 79.773985 
L 428.043125 79.773985 
L 455.943125 79.746967 
L 483.843125 79.732664 
L 511.743125 79.717831 
" style="fill:none;stroke:#94c4df;stroke-linecap:square;stroke-width:1.5;"/>
   </g>
   <g id="line2d_63">
    <path clip-path="url(#p5891761fc6)" d="M 155.682747 -1 
L 176.943125 64.871339 
L 204.843125 77.852031 
L 232.743125 79.635719 
L 260.643125 79.933 
L 288.543125 79.933 
L 316.443125 79.933 
L 344.343125 79.933 
L 372.243125 79.933 
L 400.143125 79.786699 
L 428.043125 79.798884 
L 455.943125 79.746967 
L 483.843125 79.732664 
L 511.743125 79.702468 
" style="fill:none;stroke:#94c4df;stroke-linecap:square;stroke-width:1.5;"/>
   </g>
   <g id="line2d_64">
    <path clip-path="url(#p5891761fc6)" d="M 155.681029 -1 
L 176.943125 64.866571 
L 204.843125 77.852031 
L 232.743125 79.635719 
L 260.643125 79.933 
L 288.543125 79.933 
L 316.443125 79.933 
L 344.343125 79.933 
L 372.243125 79.931322 
L 400.143125 79.810538 
L 428.043125 79.773985 
L 455.943125 79.773985 
L 483.843125 79.746967 
L 511.743125 79.732664 
" style="fill:none;stroke:#94c4df;stroke-linecap:square;stroke-width:1.5;"/>
   </g>
   <g id="line2d_65">
    <path clip-path="url(#p5891761fc6)" d="M 155.692281 -1 
L 176.943125 64.850678 
L 204.843125 77.852031 
L 232.743125 79.635719 
L 260.643125 79.933 
L 288.543125 79.933 
L 316.443125 79.933 
L 344.343125 79.933 
L 372.243125 79.933 
L 400.143125 79.773985 
L 428.043125 79.760741 
L 455.943125 79.760741 
L 483.843125 79.732664 
L 511.743125 79.717831 
" style="fill:none;stroke:#94c4df;stroke-linecap:square;stroke-width:1.5;"/>
   </g>
   <g id="line2d_66">
    <path clip-path="url(#p5891761fc6)" d="M 155.684054 -1 
L 176.943125 64.877784 
L 204.843125 77.855298 
L 232.743125 79.635719 
L 260.643125 79.933 
L 288.543125 79.933 
L 316.443125 79.933 
L 344.343125 79.933 
L 372.243125 79.933 
L 400.143125 79.787317 
L 428.043125 79.78202 
L 455.943125 79.760741 
L 483.843125 79.717831 
L 511.743125 79.717831 
" style="fill:none;stroke:#94c4df;stroke-linecap:square;stroke-width:1.5;"/>
   </g>
   <g id="line2d_67">
    <path clip-path="url(#p5891761fc6)" d="M 155.699163 -1 
L 176.943125 64.855976 
L 204.843125 77.852031 
L 232.743125 79.635719 
L 260.643125 79.933 
L 288.543125 79.933 
L 316.443125 79.933 
L 344.343125 79.933 
L 372.243125 79.912251 
L 400.143125 79.773985 
L 428.043125 79.786699 
L 455.943125 79.746967 
L 483.843125 79.732664 
L 511.743125 79.717831 
" style="fill:none;stroke:#94c4df;stroke-linecap:square;stroke-width:1.5;"/>
   </g>
   <g id="line2d_68">
    <path clip-path="url(#p5891761fc6)" d="M 155.68687 -1 
L 176.943125 64.866571 
L 204.843125 77.852031 
L 232.743125 79.635719 
L 260.643125 79.915518 
L 288.543125 79.933 
L 316.443125 79.933 
L 344.343125 79.933 
L 372.243125 79.933 
L 400.143125 79.933 
L 428.043125 79.798884 
L 455.943125 79.760741 
L 483.843125 79.746967 
L 511.743125 79.732664 
" style="fill:none;stroke:#000000;stroke-linecap:square;stroke-width:1.5;"/>
   </g>
   <g id="line2d_69">
    <path clip-path="url(#p5891761fc6)" d="M 155.689047 -1 
L 176.943125 64.850678 
L 204.843125 77.852031 
L 232.743125 79.635719 
L 260.643125 79.933 
L 288.543125 79.933 
L 316.443125 79.933 
L 344.343125 79.933 
L 372.243125 79.933 
L 400.143125 79.917107 
L 428.043125 79.798884 
L 455.943125 79.773985 
L 483.843125 79.760741 
L 511.743125 79.746967 
" style="fill:none;stroke:#000000;stroke-linecap:square;stroke-width:1.5;"/>
   </g>
   <g id="line2d_70">
    <path clip-path="url(#p5891761fc6)" d="M 155.676075 -1 
L 176.943125 64.866571 
L 204.843125 77.852031 
L 232.743125 79.635719 
L 260.643125 79.907042 
L 288.543125 79.933 
L 316.443125 79.933 
L 344.343125 79.933 
L 372.243125 79.933 
L 400.143125 79.923464 
L 428.043125 79.798884 
L 455.943125 79.773985 
L 483.843125 79.760741 
L 511.743125 79.746967 
" style="fill:none;stroke:#000000;stroke-linecap:square;stroke-width:1.5;"/>
   </g>
   <g id="line2d_71">
    <path clip-path="url(#p5891761fc6)" d="M 155.684807 -1 
L 176.943125 64.866571 
L 204.843125 77.852031 
L 232.743125 79.635719 
L 260.643125 79.933 
L 288.543125 79.933 
L 316.443125 79.933 
L 344.343125 79.933 
L 372.243125 79.933 
L 400.143125 79.899625 
L 428.043125 79.773985 
L 455.943125 79.760741 
L 483.843125 79.746967 
L 511.743125 79.732664 
" style="fill:none;stroke:#000000;stroke-linecap:square;stroke-width:1.5;"/>
   </g>
   <g id="line2d_72">
    <path clip-path="url(#p5891761fc6)" d="M 155.707743 -1 
L 176.943125 64.850678 
L 204.843125 77.852031 
L 232.743125 79.635719 
L 260.643125 79.933 
L 288.543125 79.933 
L 316.443125 79.933 
L 344.343125 79.933 
L 372.243125 79.933 
L 400.143125 79.880024 
L 428.043125 79.773985 
L 455.943125 79.760741 
L 483.843125 79.760741 
L 511.743125 79.746967 
" style="fill:none;stroke:#000000;stroke-linecap:square;stroke-width:1.5;"/>
   </g>
   <g id="line2d_73">
    <path clip-path="url(#p5891761fc6)" d="M 155.684644 -1 
L 176.943125 64.86869 
L 204.843125 77.852031 
L 232.743125 79.635719 
L 260.643125 79.909161 
L 288.543125 79.933 
L 316.443125 79.933 
L 344.343125 79.933 
L 372.243125 79.933 
L 400.143125 79.87199 
L 428.043125 79.792085 
L 455.943125 79.773985 
L 483.843125 79.746967 
L 511.743125 79.746967 
" style="fill:none;stroke:#000000;stroke-linecap:square;stroke-width:1.5;"/>
   </g>
   <g id="line2d_74">
    <path clip-path="url(#p5891761fc6)" d="M 155.690147 -1 
L 176.943125 64.866571 
L 204.843125 77.852031 
L 232.743125 79.635719 
L 260.643125 79.933 
L 288.543125 79.933 
L 316.443125 79.933 
L 344.343125 79.933 
L 372.243125 79.933 
L 400.143125 79.933 
L 428.043125 79.823782 
L 455.943125 79.773985 
L 483.843125 79.746967 
L 511.743125 79.746967 
" style="fill:none;stroke:#000000;stroke-linecap:square;stroke-width:1.5;"/>
   </g>
   <g id="line2d_75">
    <path clip-path="url(#p5891761fc6)" d="M 155.700091 -1 
L 176.943125 64.850678 
L 204.843125 77.852031 
L 232.743125 79.635719 
L 260.643125 79.926643 
L 288.543125 79.933 
L 316.443125 79.933 
L 344.343125 79.933 
L 372.243125 79.933 
L 400.143125 79.924965 
L 428.043125 79.810538 
L 455.943125 79.773985 
L 483.843125 79.760741 
L 511.743125 79.746967 
" style="fill:none;stroke:#000000;stroke-linecap:square;stroke-width:1.5;"/>
   </g>
   <g id="line2d_76">
    <path clip-path="url(#p5891761fc6)" d="M 155.691737 -1 
L 176.943125 64.877784 
L 204.843125 77.853709 
L 232.743125 79.635719 
L 260.643125 79.917107 
L 288.543125 79.933 
L 316.443125 79.933 
L 344.343125 79.933 
L 372.243125 79.933 
L 400.143125 79.927702 
L 428.043125 79.798884 
L 455.943125 79.760741 
L 483.843125 79.746967 
L 511.743125 79.746967 
" style="fill:none;stroke:#000000;stroke-linecap:square;stroke-width:1.5;"/>
   </g>
   <g id="line2d_77">
    <path clip-path="url(#p5891761fc6)" d="M 155.702805 -1 
L 176.943125 64.855976 
L 204.843125 77.852031 
L 232.743125 79.635719 
L 260.643125 79.933 
L 288.543125 79.933 
L 316.443125 79.933 
L 344.343125 79.933 
L 372.243125 79.933 
L 400.143125 79.927614 
L 428.043125 79.810538 
L 455.943125 79.773985 
L 483.843125 79.773985 
L 511.743125 79.746967 
" style="fill:none;stroke:#000000;stroke-linecap:square;stroke-width:1.5;"/>
   </g>
   <g id="line2d_78">
    <path clip-path="url(#p5891761fc6)" d="M 121.143125 442.021562 
" style="fill:none;stroke:#000000;stroke-linecap:square;stroke-width:1.5;"/>
   </g>
   <g id="line2d_79">
    <path clip-path="url(#p5891761fc6)" d="M 121.143125 442.021562 
" style="fill:none;stroke:#d0e1f2;stroke-linecap:square;stroke-width:1.5;"/>
   </g>
   <g id="line2d_80">
    <path clip-path="url(#p5891761fc6)" d="M 121.143125 442.021562 
" style="fill:none;stroke:#94c4df;stroke-linecap:square;stroke-width:1.5;"/>
   </g>
   <g id="line2d_81">
    <path clip-path="url(#p5891761fc6)" d="M 121.143125 442.021562 
" style="fill:none;stroke:#4a98c9;stroke-linecap:square;stroke-width:1.5;"/>
   </g>
   <g id="line2d_82">
    <path clip-path="url(#p5891761fc6)" d="M 121.143125 442.021562 
" style="fill:none;stroke:#1764ab;stroke-linecap:square;stroke-width:1.5;"/>
   </g>
   <g id="line2d_83">
    <path clip-path="url(#p5891761fc6)" d="M 121.143125 442.021562 
" style="fill:none;stroke:#08306b;stroke-linecap:square;stroke-width:1.5;"/>
   </g>
   <g id="line2d_84">
    <path clip-path="url(#p5891761fc6)" d="M 121.143125 442.021562 
" style="fill:none;stroke:#000000;stroke-linecap:square;stroke-width:1.5;"/>
   </g>
   <g id="line2d_85">
    <path clip-path="url(#p5891761fc6)" d="M 121.143125 442.021562 
" style="fill:none;stroke:#000000;stroke-dasharray:1.5,2.475;stroke-dashoffset:0;stroke-width:1.5;"/>
   </g>
   <g id="line2d_86">
    <path clip-path="url(#p5891761fc6)" d="M 121.143125 442.021562 
" style="fill:none;stroke:#000000;stroke-linecap:square;stroke-width:1.5;"/>
   </g>
   <g id="line2d_87">
    <path clip-path="url(#p5891761fc6)" d="M 121.143125 442.021562 
" style="fill:none;stroke:#000000;stroke-dasharray:5.55,2.4;stroke-dashoffset:0;stroke-width:1.5;"/>
   </g>
   <g id="line2d_88">
    <path clip-path="url(#p5891761fc6)" d="M 121.143125 442.021562 
" style="fill:none;stroke:#000000;stroke-dasharray:9.6,2.4,1.5,2.4;stroke-dashoffset:0;stroke-width:1.5;"/>
   </g>
   <g id="line2d_89">
    <path clip-path="url(#p5891761fc6)" d="M 121.143125 442.021562 
" style="fill:none;stroke:#000000;stroke-dasharray:9.6,2.4,1.5,2.4;stroke-dashoffset:0;stroke-width:1.5;"/>
   </g>
   <g id="patch_3">
    <path d="M 121.143125 442.021562 
L 121.143125 61.501562 
" style="fill:none;stroke:#000000;stroke-linecap:square;stroke-linejoin:miter;stroke-width:0.8;"/>
   </g>
   <g id="patch_4">
    <path d="M 511.743125 442.021562 
L 511.743125 61.501562 
" style="fill:none;stroke:#000000;stroke-linecap:square;stroke-linejoin:miter;stroke-width:0.8;"/>
   </g>
   <g id="patch_5">
    <path d="M 121.143125 442.021562 
L 511.743125 442.021562 
" style="fill:none;stroke:#000000;stroke-linecap:square;stroke-linejoin:miter;stroke-width:0.8;"/>
   </g>
   <g id="patch_6">
    <path d="M 121.143125 61.501562 
L 511.743125 61.501562 
" style="fill:none;stroke:#000000;stroke-linecap:square;stroke-linejoin:miter;stroke-width:0.8;"/>
   </g>
   <g id="text_20">
    <!-- TGFA CONCENTRATION -->
    <g transform="translate(169.263438 25.094531)scale(0.25 -0.25)">
     <use xlink:href="#Arial-BoldMT-84"/>
     <use x="61.083984" xlink:href="#Arial-BoldMT-71"/>
     <use x="138.867188" xlink:href="#Arial-BoldMT-70"/>
     <use x="199.873047" xlink:href="#Arial-BoldMT-65"/>
     <use x="272.042969" xlink:href="#Arial-BoldMT-32"/>
     <use x="299.826172" xlink:href="#Arial-BoldMT-67"/>
     <use x="372.042969" xlink:href="#Arial-BoldMT-79"/>
     <use x="449.826172" xlink:href="#Arial-BoldMT-78"/>
     <use x="522.042969" xlink:href="#Arial-BoldMT-67"/>
     <use x="594.259766" xlink:href="#Arial-BoldMT-69"/>
     <use x="660.958984" xlink:href="#Arial-BoldMT-78"/>
     <use x="733.175781" xlink:href="#Arial-BoldMT-84"/>
     <use x="794.259766" xlink:href="#Arial-BoldMT-82"/>
     <use x="866.476562" xlink:href="#Arial-BoldMT-65"/>
     <use x="938.583984" xlink:href="#Arial-BoldMT-84"/>
     <use x="999.667969" xlink:href="#Arial-BoldMT-73"/>
     <use x="1027.451172" xlink:href="#Arial-BoldMT-79"/>
     <use x="1105.234375" xlink:href="#Arial-BoldMT-78"/>
    </g>
    <!-- OVER TIME -->
    <defs>
     <path d="M 25.53125 0 
L -0.046875 71.578125 
L 15.625 71.578125 
L 33.734375 18.609375 
L 51.265625 71.578125 
L 66.609375 71.578125 
L 40.96875 0 
z
" id="Arial-BoldMT-86"/>
    </defs>
    <g transform="translate(247.687266 51.501562)scale(0.25 -0.25)">
     <use xlink:href="#Arial-BoldMT-79"/>
     <use x="77.783203" xlink:href="#Arial-BoldMT-86"/>
     <use x="144.482422" xlink:href="#Arial-BoldMT-69"/>
     <use x="211.181641" xlink:href="#Arial-BoldMT-82"/>
     <use x="283.398438" xlink:href="#Arial-BoldMT-32"/>
     <use x="311.181641" xlink:href="#Arial-BoldMT-84"/>
     <use x="372.265625" xlink:href="#Arial-BoldMT-73"/>
     <use x="400.048828" xlink:href="#Arial-BoldMT-77"/>
     <use x="483.349609" xlink:href="#Arial-BoldMT-69"/>
    </g>
   </g>
   <g id="legend_1">
    <g id="line2d_90">
     <path d="M 520.743125 74.6 
L 540.743125 74.6 
" style="fill:none;stroke:#000000;stroke-linecap:square;stroke-width:1.5;"/>
    </g>
    <g id="line2d_91"/>
    <g id="text_21">
     <!-- 0 -->
     <g transform="translate(548.743125 78.1)scale(0.1 -0.1)">
      <use xlink:href="#DejaVuSans-48"/>
     </g>
    </g>
    <g id="line2d_92">
     <path d="M 520.743125 89.278125 
L 540.743125 89.278125 
" style="fill:none;stroke:#d0e1f2;stroke-linecap:square;stroke-width:1.5;"/>
    </g>
    <g id="line2d_93"/>
    <g id="text_22">
     <!-- 100 -->
     <g transform="translate(548.743125 92.778125)scale(0.1 -0.1)">
      <use xlink:href="#DejaVuSans-49"/>
      <use x="63.623047" xlink:href="#DejaVuSans-48"/>
      <use x="127.246094" xlink:href="#DejaVuSans-48"/>
     </g>
    </g>
    <g id="line2d_94">
     <path d="M 520.743125 103.95625 
L 540.743125 103.95625 
" style="fill:none;stroke:#94c4df;stroke-linecap:square;stroke-width:1.5;"/>
    </g>
    <g id="line2d_95"/>
    <g id="text_23">
     <!-- 500 -->
     <g transform="translate(548.743125 107.45625)scale(0.1 -0.1)">
      <use xlink:href="#DejaVuSans-53"/>
      <use x="63.623047" xlink:href="#DejaVuSans-48"/>
      <use x="127.246094" xlink:href="#DejaVuSans-48"/>
     </g>
    </g>
    <g id="line2d_96">
     <path d="M 520.743125 118.634375 
L 540.743125 118.634375 
" style="fill:none;stroke:#4a98c9;stroke-linecap:square;stroke-width:1.5;"/>
    </g>
    <g id="line2d_97"/>
    <g id="text_24">
     <!-- 1000 -->
     <g transform="translate(548.743125 122.134375)scale(0.1 -0.1)">
      <use xlink:href="#DejaVuSans-49"/>
      <use x="63.623047" xlink:href="#DejaVuSans-48"/>
      <use x="127.246094" xlink:href="#DejaVuSans-48"/>
      <use x="190.869141" xlink:href="#DejaVuSans-48"/>
     </g>
    </g>
    <g id="line2d_98">
     <path d="M 520.743125 133.3125 
L 540.743125 133.3125 
" style="fill:none;stroke:#1764ab;stroke-linecap:square;stroke-width:1.5;"/>
    </g>
    <g id="line2d_99"/>
    <g id="text_25">
     <!-- 5000 -->
     <g transform="translate(548.743125 136.8125)scale(0.1 -0.1)">
      <use xlink:href="#DejaVuSans-53"/>
      <use x="63.623047" xlink:href="#DejaVuSans-48"/>
      <use x="127.246094" xlink:href="#DejaVuSans-48"/>
      <use x="190.869141" xlink:href="#DejaVuSans-48"/>
     </g>
    </g>
    <g id="line2d_100">
     <path d="M 520.743125 147.990625 
L 540.743125 147.990625 
" style="fill:none;stroke:#08306b;stroke-linecap:square;stroke-width:1.5;"/>
    </g>
    <g id="line2d_101"/>
    <g id="text_26">
     <!-- 10000 -->
     <g transform="translate(548.743125 151.490625)scale(0.1 -0.1)">
      <use xlink:href="#DejaVuSans-49"/>
      <use x="63.623047" xlink:href="#DejaVuSans-48"/>
      <use x="127.246094" xlink:href="#DejaVuSans-48"/>
      <use x="190.869141" xlink:href="#DejaVuSans-48"/>
      <use x="254.492188" xlink:href="#DejaVuSans-48"/>
     </g>
    </g>
    <g id="line2d_102">
     <path d="M 520.743125 162.66875 
L 540.743125 162.66875 
" style="fill:none;stroke:#000000;stroke-linecap:square;stroke-width:1.5;"/>
    </g>
    <g id="line2d_103"/>
    <g id="text_27">
     <!-- 0 -->
     <g transform="translate(548.743125 166.16875)scale(0.1 -0.1)">
      <use xlink:href="#DejaVuSans-48"/>
     </g>
    </g>
    <g id="line2d_104">
     <path d="M 520.743125 177.346875 
L 540.743125 177.346875 
" style="fill:none;stroke:#000000;stroke-dasharray:1.5,2.475;stroke-dashoffset:0;stroke-width:1.5;"/>
    </g>
    <g id="line2d_105"/>
    <g id="text_28">
     <!-- 250 -->
     <g transform="translate(548.743125 180.846875)scale(0.1 -0.1)">
      <use xlink:href="#DejaVuSans-50"/>
      <use x="63.623047" xlink:href="#DejaVuSans-53"/>
      <use x="127.246094" xlink:href="#DejaVuSans-48"/>
     </g>
    </g>
    <g id="line2d_106">
     <path d="M 520.743125 192.025 
L 540.743125 192.025 
" style="fill:none;stroke:#000000;stroke-linecap:square;stroke-width:1.5;"/>
    </g>
    <g id="line2d_107"/>
    <g id="text_29">
     <!-- 500 -->
     <g transform="translate(548.743125 195.525)scale(0.1 -0.1)">
      <use xlink:href="#DejaVuSans-53"/>
      <use x="63.623047" xlink:href="#DejaVuSans-48"/>
      <use x="127.246094" xlink:href="#DejaVuSans-48"/>
     </g>
    </g>
    <g id="line2d_108">
     <path d="M 520.743125 206.703125 
L 540.743125 206.703125 
" style="fill:none;stroke:#000000;stroke-dasharray:5.55,2.4;stroke-dashoffset:0;stroke-width:1.5;"/>
    </g>
    <g id="line2d_109"/>
    <g id="text_30">
     <!-- 1000 -->
     <g transform="translate(548.743125 210.203125)scale(0.1 -0.1)">
      <use xlink:href="#DejaVuSans-49"/>
      <use x="63.623047" xlink:href="#DejaVuSans-48"/>
      <use x="127.246094" xlink:href="#DejaVuSans-48"/>
      <use x="190.869141" xlink:href="#DejaVuSans-48"/>
     </g>
    </g>
    <g id="line2d_110">
     <path d="M 520.743125 221.38125 
L 540.743125 221.38125 
" style="fill:none;stroke:#000000;stroke-dasharray:9.6,2.4,1.5,2.4;stroke-dashoffset:0;stroke-width:1.5;"/>
    </g>
    <g id="line2d_111"/>
    <g id="text_31">
     <!-- 5000 -->
     <g transform="translate(548.743125 224.88125)scale(0.1 -0.1)">
      <use xlink:href="#DejaVuSans-53"/>
      <use x="63.623047" xlink:href="#DejaVuSans-48"/>
      <use x="127.246094" xlink:href="#DejaVuSans-48"/>
      <use x="190.869141" xlink:href="#DejaVuSans-48"/>
     </g>
    </g>
    <g id="line2d_112">
     <path d="M 520.743125 236.059375 
L 540.743125 236.059375 
" style="fill:none;stroke:#000000;stroke-dasharray:9.6,2.4,1.5,2.4;stroke-dashoffset:0;stroke-width:1.5;"/>
    </g>
    <g id="line2d_113"/>
    <g id="text_32">
     <!-- 10000 -->
     <g transform="translate(548.743125 239.559375)scale(0.1 -0.1)">
      <use xlink:href="#DejaVuSans-49"/>
      <use x="63.623047" xlink:href="#DejaVuSans-48"/>
      <use x="127.246094" xlink:href="#DejaVuSans-48"/>
      <use x="190.869141" xlink:href="#DejaVuSans-48"/>
      <use x="254.492188" xlink:href="#DejaVuSans-48"/>
     </g>
    </g>
   </g>
  </g>
 </g>
 <defs>
  <clipPath id="p5891761fc6">
   <rect height="380.52" width="390.6" x="121.143125" y="61.501562"/>
  </clipPath>
 </defs>
</svg>
