<?xml version="1.0" encoding="utf-8" standalone="no"?>
<!DOCTYPE svg PUBLIC "-//W3C//DTD SVG 1.1//EN"
  "http://www.w3.org/Graphics/SVG/1.1/DTD/svg11.dtd">
<!-- Created with matplotlib (https://matplotlib.org/) -->
<svg height="516.22375pt" version="1.1" viewBox="0 0 561.290625 516.22375" width="561.290625pt" xmlns="http://www.w3.org/2000/svg" xmlns:xlink="http://www.w3.org/1999/xlink">
 <defs>
  <style type="text/css">
*{stroke-linecap:butt;stroke-linejoin:round;}
  </style>
 </defs>
 <g id="figure_1">
  <g id="patch_1">
   <path d="M 0 516.22375 
L 561.290625 516.22375 
L 561.290625 0 
L 0 0 
z
" style="fill:#ffffff;"/>
  </g>
  <g id="axes_1">
   <g id="patch_2">
    <path d="M 90.678125 440.16125 
L 481.278125 440.16125 
L 481.278125 59.64125 
L 90.678125 59.64125 
z
" style="fill:#ffffff;"/>
   </g>
   <g id="PathCollection_1"/>
   <g id="PathCollection_2"/>
   <g id="PathCollection_3"/>
   <g id="PathCollection_4"/>
   <g id="PathCollection_5"/>
   <g id="PathCollection_6"/>
   <g id="patch_3">
    <path clip-path="url(#pe94ca7fda7)" d="M 103.698125 440.16125 
L 121.058125 440.16125 
L 121.058125 440.16125 
L 103.698125 440.16125 
z
"/>
   </g>
   <g id="patch_4">
    <path clip-path="url(#pe94ca7fda7)" d="M 233.898125 440.16125 
L 251.258125 440.16125 
L 251.258125 440.16125 
L 233.898125 440.16125 
z
"/>
   </g>
   <g id="patch_5">
    <path clip-path="url(#pe94ca7fda7)" d="M 364.098125 440.16125 
L 381.458125 440.16125 
L 381.458125 440.16125 
L 364.098125 440.16125 
z
"/>
   </g>
   <g id="patch_6">
    <path clip-path="url(#pe94ca7fda7)" d="M 121.058125 440.16125 
L 138.418125 440.16125 
L 138.418125 440.155779 
L 121.058125 440.155779 
z
" style="fill:#d4e1ee;"/>
   </g>
   <g id="patch_7">
    <path clip-path="url(#pe94ca7fda7)" d="M 251.258125 440.16125 
L 268.618125 440.16125 
L 268.618125 438.104883 
L 251.258125 438.104883 
z
" style="fill:#d4e1ee;"/>
   </g>
   <g id="patch_8">
    <path clip-path="url(#pe94ca7fda7)" d="M 381.458125 440.16125 
L 398.818125 440.16125 
L 398.818125 421.478682 
L 381.458125 421.478682 
z
" style="fill:#d4e1ee;"/>
   </g>
   <g id="patch_9">
    <path clip-path="url(#pe94ca7fda7)" d="M 138.418125 440.16125 
L 155.778125 440.16125 
L 155.778125 440.129023 
L 138.418125 440.129023 
z
" style="fill:#9dc2d5;"/>
   </g>
   <g id="patch_10">
    <path clip-path="url(#pe94ca7fda7)" d="M 268.618125 440.16125 
L 285.978125 440.16125 
L 285.978125 432.938934 
L 268.618125 432.938934 
z
" style="fill:#9dc2d5;"/>
   </g>
   <g id="patch_11">
    <path clip-path="url(#pe94ca7fda7)" d="M 398.818125 440.16125 
L 416.178125 440.16125 
L 416.178125 373.964746 
L 398.818125 373.964746 
z
" style="fill:#9dc2d5;"/>
   </g>
   <g id="patch_12">
    <path clip-path="url(#pe94ca7fda7)" d="M 155.778125 440.16125 
L 173.138125 440.16125 
L 173.138125 440.104334 
L 155.778125 440.104334 
z
" style="fill:#5a94b9;"/>
   </g>
   <g id="patch_13">
    <path clip-path="url(#pe94ca7fda7)" d="M 285.978125 440.16125 
L 303.338125 440.16125 
L 303.338125 428.73545 
L 285.978125 428.73545 
z
" style="fill:#5a94b9;"/>
   </g>
   <g id="patch_14">
    <path clip-path="url(#pe94ca7fda7)" d="M 416.178125 440.16125 
L 433.538125 440.16125 
L 433.538125 333.61667 
L 416.178125 333.61667 
z
" style="fill:#5a94b9;"/>
   </g>
   <g id="patch_15">
    <path clip-path="url(#pe94ca7fda7)" d="M 173.138125 440.16125 
L 190.498125 440.16125 
L 190.498125 439.971334 
L 173.138125 439.971334 
z
" style="fill:#296399;"/>
   </g>
   <g id="patch_16">
    <path clip-path="url(#pe94ca7fda7)" d="M 303.338125 440.16125 
L 320.698125 440.16125 
L 320.698125 412.058213 
L 303.338125 412.058213 
z
" style="fill:#296399;"/>
   </g>
   <g id="patch_17">
    <path clip-path="url(#pe94ca7fda7)" d="M 433.538125 440.16125 
L 450.898125 440.16125 
L 450.898125 212.793283 
L 433.538125 212.793283 
z
" style="fill:#296399;"/>
   </g>
   <g id="patch_18">
    <path clip-path="url(#pe94ca7fda7)" d="M 190.498125 440.16125 
L 207.858125 440.16125 
L 207.858125 439.883056 
L 190.498125 439.883056 
z
" style="fill:#14325f;"/>
   </g>
   <g id="patch_19">
    <path clip-path="url(#pe94ca7fda7)" d="M 320.698125 440.16125 
L 338.058125 440.16125 
L 338.058125 403.849313 
L 320.698125 403.849313 
z
" style="fill:#14325f;"/>
   </g>
   <g id="patch_20">
    <path clip-path="url(#pe94ca7fda7)" d="M 450.898125 440.16125 
L 468.258125 440.16125 
L 468.258125 172.28833 
L 450.898125 172.28833 
z
" style="fill:#14325f;"/>
   </g>
   <g id="matplotlib.axis_1">
    <g id="xtick_1">
     <g id="line2d_1">
      <defs>
       <path d="M 0 0 
L 0 3.5 
" id="md800359bbe" style="stroke:#000000;stroke-width:0.8;"/>
      </defs>
      <g>
       <use style="stroke:#000000;stroke-width:0.8;" x="155.778125" xlink:href="#md800359bbe" y="440.16125"/>
      </g>
     </g>
     <g id="text_1">
      <!-- 1 -->
      <defs>
       <path d="M 12.40625 8.296875 
L 28.515625 8.296875 
L 28.515625 63.921875 
L 10.984375 60.40625 
L 10.984375 69.390625 
L 28.421875 72.90625 
L 38.28125 72.90625 
L 38.28125 8.296875 
L 54.390625 8.296875 
L 54.390625 0 
L 12.40625 0 
z
" id="DejaVuSans-49"/>
      </defs>
      <g transform="translate(146.234375 469.956562)scale(0.3 -0.3)">
       <use xlink:href="#DejaVuSans-49"/>
      </g>
     </g>
    </g>
    <g id="xtick_2">
     <g id="line2d_2">
      <g>
       <use style="stroke:#000000;stroke-width:0.8;" x="285.978125" xlink:href="#md800359bbe" y="440.16125"/>
      </g>
     </g>
     <g id="text_2">
      <!-- 4 -->
      <defs>
       <path d="M 37.796875 64.3125 
L 12.890625 25.390625 
L 37.796875 25.390625 
z
M 35.203125 72.90625 
L 47.609375 72.90625 
L 47.609375 25.390625 
L 58.015625 25.390625 
L 58.015625 17.1875 
L 47.609375 17.1875 
L 47.609375 0 
L 37.796875 0 
L 37.796875 17.1875 
L 4.890625 17.1875 
L 4.890625 26.703125 
z
" id="DejaVuSans-52"/>
      </defs>
      <g transform="translate(276.434375 469.956562)scale(0.3 -0.3)">
       <use xlink:href="#DejaVuSans-52"/>
      </g>
     </g>
    </g>
    <g id="xtick_3">
     <g id="line2d_3">
      <g>
       <use style="stroke:#000000;stroke-width:0.8;" x="416.178125" xlink:href="#md800359bbe" y="440.16125"/>
      </g>
     </g>
     <g id="text_3">
      <!-- 7 -->
      <defs>
       <path d="M 8.203125 72.90625 
L 55.078125 72.90625 
L 55.078125 68.703125 
L 28.609375 0 
L 18.3125 0 
L 43.21875 64.59375 
L 8.203125 64.59375 
z
" id="DejaVuSans-55"/>
      </defs>
      <g transform="translate(406.634375 469.956562)scale(0.3 -0.3)">
       <use xlink:href="#DejaVuSans-55"/>
      </g>
     </g>
    </g>
    <g id="text_4">
     <!-- ANTIGENS CANCER -->
     <defs>
      <path d="M 71.828125 0 
L 56.109375 0 
L 49.859375 16.265625 
L 21.234375 16.265625 
L 15.328125 0 
L 0 0 
L 27.875 71.578125 
L 43.171875 71.578125 
z
M 45.21875 28.328125 
L 35.359375 54.890625 
L 25.6875 28.328125 
z
" id="Arial-BoldMT-65"/>
      <path d="M 7.421875 0 
L 7.421875 71.578125 
L 21.484375 71.578125 
L 50.78125 23.78125 
L 50.78125 71.578125 
L 64.203125 71.578125 
L 64.203125 0 
L 49.703125 0 
L 20.84375 46.6875 
L 20.84375 0 
z
" id="Arial-BoldMT-78"/>
      <path d="M 23.390625 0 
L 23.390625 59.46875 
L 2.15625 59.46875 
L 2.15625 71.578125 
L 59.03125 71.578125 
L 59.03125 59.46875 
L 37.84375 59.46875 
L 37.84375 0 
z
" id="Arial-BoldMT-84"/>
      <path d="M 6.84375 0 
L 6.84375 71.578125 
L 21.296875 71.578125 
L 21.296875 0 
z
" id="Arial-BoldMT-73"/>
      <path d="M 40.578125 26.3125 
L 40.578125 38.375 
L 71.734375 38.375 
L 71.734375 9.859375 
Q 67.1875 5.46875 58.5625 2.125 
Q 49.953125 -1.21875 41.109375 -1.21875 
Q 29.890625 -1.21875 21.53125 3.484375 
Q 13.1875 8.203125 8.984375 16.96875 
Q 4.78125 25.734375 4.78125 36.03125 
Q 4.78125 47.21875 9.46875 55.90625 
Q 14.15625 64.59375 23.1875 69.234375 
Q 30.078125 72.796875 40.328125 72.796875 
Q 53.65625 72.796875 61.15625 67.203125 
Q 68.65625 61.625 70.796875 51.765625 
L 56.453125 49.078125 
Q 54.9375 54.34375 50.75 57.390625 
Q 46.578125 60.453125 40.328125 60.453125 
Q 30.859375 60.453125 25.265625 54.4375 
Q 19.671875 48.4375 19.671875 36.625 
Q 19.671875 23.875 25.328125 17.5 
Q 31 11.140625 40.1875 11.140625 
Q 44.734375 11.140625 49.296875 12.921875 
Q 53.859375 14.703125 57.125 17.234375 
L 57.125 26.3125 
z
" id="Arial-BoldMT-71"/>
      <path d="M 7.28125 0 
L 7.28125 71.578125 
L 60.359375 71.578125 
L 60.359375 59.46875 
L 21.734375 59.46875 
L 21.734375 43.609375 
L 57.671875 43.609375 
L 57.671875 31.546875 
L 21.734375 31.546875 
L 21.734375 12.0625 
L 61.71875 12.0625 
L 61.71875 0 
z
" id="Arial-BoldMT-69"/>
      <path d="M 3.609375 23.296875 
L 17.671875 24.65625 
Q 18.953125 17.578125 22.828125 14.25 
Q 26.703125 10.9375 33.296875 10.9375 
Q 40.28125 10.9375 43.8125 13.890625 
Q 47.359375 16.84375 47.359375 20.796875 
Q 47.359375 23.34375 45.875 25.125 
Q 44.390625 26.90625 40.671875 28.21875 
Q 38.140625 29.109375 29.109375 31.34375 
Q 17.484375 34.234375 12.796875 38.421875 
Q 6.203125 44.34375 6.203125 52.828125 
Q 6.203125 58.296875 9.296875 63.0625 
Q 12.40625 67.828125 18.234375 70.3125 
Q 24.078125 72.796875 32.328125 72.796875 
Q 45.796875 72.796875 52.609375 66.890625 
Q 59.421875 60.984375 59.765625 51.125 
L 45.3125 50.484375 
Q 44.390625 56 41.328125 58.421875 
Q 38.28125 60.84375 32.171875 60.84375 
Q 25.875 60.84375 22.3125 58.25 
Q 20.015625 56.59375 20.015625 53.8125 
Q 20.015625 51.265625 22.171875 49.46875 
Q 24.90625 47.171875 35.453125 44.671875 
Q 46 42.1875 51.046875 39.515625 
Q 56.109375 36.859375 58.953125 32.25 
Q 61.8125 27.640625 61.8125 20.84375 
Q 61.8125 14.703125 58.390625 9.328125 
Q 54.984375 3.953125 48.734375 1.34375 
Q 42.484375 -1.265625 33.15625 -1.265625 
Q 19.578125 -1.265625 12.296875 5 
Q 5.03125 11.28125 3.609375 23.296875 
z
" id="Arial-BoldMT-83"/>
      <path id="Arial-BoldMT-32"/>
      <path d="M 53.078125 26.3125 
L 67.09375 21.875 
Q 63.875 10.15625 56.375 4.46875 
Q 48.875 -1.21875 37.359375 -1.21875 
Q 23.09375 -1.21875 13.90625 8.515625 
Q 4.734375 18.265625 4.734375 35.15625 
Q 4.734375 53.03125 13.953125 62.90625 
Q 23.1875 72.796875 38.234375 72.796875 
Q 51.375 72.796875 59.578125 65.046875 
Q 64.453125 60.453125 66.890625 51.859375 
L 52.59375 48.4375 
Q 51.3125 54 47.28125 57.21875 
Q 43.265625 60.453125 37.5 60.453125 
Q 29.546875 60.453125 24.578125 54.734375 
Q 19.625 49.03125 19.625 36.234375 
Q 19.625 22.65625 24.5 16.890625 
Q 29.390625 11.140625 37.203125 11.140625 
Q 42.96875 11.140625 47.109375 14.796875 
Q 51.265625 18.453125 53.078125 26.3125 
z
" id="Arial-BoldMT-67"/>
      <path d="M 7.328125 0 
L 7.328125 71.578125 
L 37.75 71.578125 
Q 49.21875 71.578125 54.421875 69.640625 
Q 59.625 67.71875 62.75 62.78125 
Q 65.875 57.859375 65.875 51.515625 
Q 65.875 43.453125 61.125 38.203125 
Q 56.390625 32.953125 46.96875 31.59375 
Q 51.65625 28.859375 54.703125 25.578125 
Q 57.765625 22.3125 62.9375 13.96875 
L 71.6875 0 
L 54.390625 0 
L 43.953125 15.578125 
Q 38.375 23.921875 36.328125 26.09375 
Q 34.28125 28.265625 31.984375 29.078125 
Q 29.6875 29.890625 24.703125 29.890625 
L 21.78125 29.890625 
L 21.78125 0 
z
M 21.78125 41.3125 
L 32.46875 41.3125 
Q 42.875 41.3125 45.453125 42.1875 
Q 48.046875 43.0625 49.515625 45.203125 
Q 50.984375 47.359375 50.984375 50.59375 
Q 50.984375 54.203125 49.046875 56.421875 
Q 47.125 58.640625 43.609375 59.234375 
Q 41.84375 59.46875 33.0625 59.46875 
L 21.78125 59.46875 
z
" id="Arial-BoldMT-82"/>
     </defs>
     <g transform="translate(164.442969 504.090156)scale(0.25 -0.25)">
      <use xlink:href="#Arial-BoldMT-65"/>
      <use x="72.216797" xlink:href="#Arial-BoldMT-78"/>
      <use x="144.433594" xlink:href="#Arial-BoldMT-84"/>
      <use x="205.517578" xlink:href="#Arial-BoldMT-73"/>
      <use x="233.300781" xlink:href="#Arial-BoldMT-71"/>
      <use x="311.083984" xlink:href="#Arial-BoldMT-69"/>
      <use x="377.783203" xlink:href="#Arial-BoldMT-78"/>
      <use x="450" xlink:href="#Arial-BoldMT-83"/>
      <use x="516.699219" xlink:href="#Arial-BoldMT-32"/>
      <use x="544.482422" xlink:href="#Arial-BoldMT-67"/>
      <use x="616.699219" xlink:href="#Arial-BoldMT-65"/>
      <use x="688.916016" xlink:href="#Arial-BoldMT-78"/>
      <use x="761.132812" xlink:href="#Arial-BoldMT-67"/>
      <use x="833.349609" xlink:href="#Arial-BoldMT-69"/>
      <use x="900.048828" xlink:href="#Arial-BoldMT-82"/>
     </g>
    </g>
   </g>
   <g id="matplotlib.axis_2">
    <g id="ytick_1">
     <g id="line2d_4">
      <defs>
       <path d="M 0 0 
L -3.5 0 
" id="m0839d40f64" style="stroke:#000000;stroke-width:0.8;"/>
      </defs>
      <g>
       <use style="stroke:#000000;stroke-width:0.8;" x="90.678125" xlink:href="#m0839d40f64" y="440.16125"/>
      </g>
     </g>
     <g id="text_5">
      <!-- 0.0 -->
      <defs>
       <path d="M 31.78125 66.40625 
Q 24.171875 66.40625 20.328125 58.90625 
Q 16.5 51.421875 16.5 36.375 
Q 16.5 21.390625 20.328125 13.890625 
Q 24.171875 6.390625 31.78125 6.390625 
Q 39.453125 6.390625 43.28125 13.890625 
Q 47.125 21.390625 47.125 36.375 
Q 47.125 51.421875 43.28125 58.90625 
Q 39.453125 66.40625 31.78125 66.40625 
z
M 31.78125 74.21875 
Q 44.046875 74.21875 50.515625 64.515625 
Q 56.984375 54.828125 56.984375 36.375 
Q 56.984375 17.96875 50.515625 8.265625 
Q 44.046875 -1.421875 31.78125 -1.421875 
Q 19.53125 -1.421875 13.0625 8.265625 
Q 6.59375 17.96875 6.59375 36.375 
Q 6.59375 54.828125 13.0625 64.515625 
Q 19.53125 74.21875 31.78125 74.21875 
z
" id="DejaVuSans-48"/>
       <path d="M 10.6875 12.40625 
L 21 12.40625 
L 21 0 
L 10.6875 0 
z
" id="DejaVuSans-46"/>
      </defs>
      <g transform="translate(35.96875 451.558906)scale(0.3 -0.3)">
       <use xlink:href="#DejaVuSans-48"/>
       <use x="63.623047" xlink:href="#DejaVuSans-46"/>
       <use x="95.410156" xlink:href="#DejaVuSans-48"/>
      </g>
     </g>
    </g>
    <g id="ytick_2">
     <g id="line2d_5">
      <g>
       <use style="stroke:#000000;stroke-width:0.8;" x="90.678125" xlink:href="#m0839d40f64" y="392.59625"/>
      </g>
     </g>
     <g id="text_6">
      <!-- 0.5 -->
      <defs>
       <path d="M 10.796875 72.90625 
L 49.515625 72.90625 
L 49.515625 64.59375 
L 19.828125 64.59375 
L 19.828125 46.734375 
Q 21.96875 47.46875 24.109375 47.828125 
Q 26.265625 48.1875 28.421875 48.1875 
Q 40.625 48.1875 47.75 41.5 
Q 54.890625 34.8125 54.890625 23.390625 
Q 54.890625 11.625 47.5625 5.09375 
Q 40.234375 -1.421875 26.90625 -1.421875 
Q 22.3125 -1.421875 17.546875 -0.640625 
Q 12.796875 0.140625 7.71875 1.703125 
L 7.71875 11.625 
Q 12.109375 9.234375 16.796875 8.0625 
Q 21.484375 6.890625 26.703125 6.890625 
Q 35.15625 6.890625 40.078125 11.328125 
Q 45.015625 15.765625 45.015625 23.390625 
Q 45.015625 31 40.078125 35.4375 
Q 35.15625 39.890625 26.703125 39.890625 
Q 22.75 39.890625 18.8125 39.015625 
Q 14.890625 38.140625 10.796875 36.28125 
z
" id="DejaVuSans-53"/>
      </defs>
      <g transform="translate(35.96875 403.993906)scale(0.3 -0.3)">
       <use xlink:href="#DejaVuSans-48"/>
       <use x="63.623047" xlink:href="#DejaVuSans-46"/>
       <use x="95.410156" xlink:href="#DejaVuSans-53"/>
      </g>
     </g>
    </g>
    <g id="ytick_3">
     <g id="line2d_6">
      <g>
       <use style="stroke:#000000;stroke-width:0.8;" x="90.678125" xlink:href="#m0839d40f64" y="345.03125"/>
      </g>
     </g>
     <g id="text_7">
      <!-- 1.0 -->
      <g transform="translate(35.96875 356.428906)scale(0.3 -0.3)">
       <use xlink:href="#DejaVuSans-49"/>
       <use x="63.623047" xlink:href="#DejaVuSans-46"/>
       <use x="95.410156" xlink:href="#DejaVuSans-48"/>
      </g>
     </g>
    </g>
    <g id="ytick_4">
     <g id="line2d_7">
      <g>
       <use style="stroke:#000000;stroke-width:0.8;" x="90.678125" xlink:href="#m0839d40f64" y="297.46625"/>
      </g>
     </g>
     <g id="text_8">
      <!-- 1.5 -->
      <g transform="translate(35.96875 308.863906)scale(0.3 -0.3)">
       <use xlink:href="#DejaVuSans-49"/>
       <use x="63.623047" xlink:href="#DejaVuSans-46"/>
       <use x="95.410156" xlink:href="#DejaVuSans-53"/>
      </g>
     </g>
    </g>
    <g id="ytick_5">
     <g id="line2d_8">
      <g>
       <use style="stroke:#000000;stroke-width:0.8;" x="90.678125" xlink:href="#m0839d40f64" y="249.90125"/>
      </g>
     </g>
     <g id="text_9">
      <!-- 2.0 -->
      <defs>
       <path d="M 19.1875 8.296875 
L 53.609375 8.296875 
L 53.609375 0 
L 7.328125 0 
L 7.328125 8.296875 
Q 12.9375 14.109375 22.625 23.890625 
Q 32.328125 33.6875 34.8125 36.53125 
Q 39.546875 41.84375 41.421875 45.53125 
Q 43.3125 49.21875 43.3125 52.78125 
Q 43.3125 58.59375 39.234375 62.25 
Q 35.15625 65.921875 28.609375 65.921875 
Q 23.96875 65.921875 18.8125 64.3125 
Q 13.671875 62.703125 7.8125 59.421875 
L 7.8125 69.390625 
Q 13.765625 71.78125 18.9375 73 
Q 24.125 74.21875 28.421875 74.21875 
Q 39.75 74.21875 46.484375 68.546875 
Q 53.21875 62.890625 53.21875 53.421875 
Q 53.21875 48.921875 51.53125 44.890625 
Q 49.859375 40.875 45.40625 35.40625 
Q 44.1875 33.984375 37.640625 27.21875 
Q 31.109375 20.453125 19.1875 8.296875 
z
" id="DejaVuSans-50"/>
      </defs>
      <g transform="translate(35.96875 261.298906)scale(0.3 -0.3)">
       <use xlink:href="#DejaVuSans-50"/>
       <use x="63.623047" xlink:href="#DejaVuSans-46"/>
       <use x="95.410156" xlink:href="#DejaVuSans-48"/>
      </g>
     </g>
    </g>
    <g id="ytick_6">
     <g id="line2d_9">
      <g>
       <use style="stroke:#000000;stroke-width:0.8;" x="90.678125" xlink:href="#m0839d40f64" y="202.33625"/>
      </g>
     </g>
     <g id="text_10">
      <!-- 2.5 -->
      <g transform="translate(35.96875 213.733906)scale(0.3 -0.3)">
       <use xlink:href="#DejaVuSans-50"/>
       <use x="63.623047" xlink:href="#DejaVuSans-46"/>
       <use x="95.410156" xlink:href="#DejaVuSans-53"/>
      </g>
     </g>
    </g>
    <g id="ytick_7">
     <g id="line2d_10">
      <g>
       <use style="stroke:#000000;stroke-width:0.8;" x="90.678125" xlink:href="#m0839d40f64" y="154.77125"/>
      </g>
     </g>
     <g id="text_11">
      <!-- 3.0 -->
      <defs>
       <path d="M 40.578125 39.3125 
Q 47.65625 37.796875 51.625 33 
Q 55.609375 28.21875 55.609375 21.1875 
Q 55.609375 10.40625 48.1875 4.484375 
Q 40.765625 -1.421875 27.09375 -1.421875 
Q 22.515625 -1.421875 17.65625 -0.515625 
Q 12.796875 0.390625 7.625 2.203125 
L 7.625 11.71875 
Q 11.71875 9.328125 16.59375 8.109375 
Q 21.484375 6.890625 26.8125 6.890625 
Q 36.078125 6.890625 40.9375 10.546875 
Q 45.796875 14.203125 45.796875 21.1875 
Q 45.796875 27.640625 41.28125 31.265625 
Q 36.765625 34.90625 28.71875 34.90625 
L 20.21875 34.90625 
L 20.21875 43.015625 
L 29.109375 43.015625 
Q 36.375 43.015625 40.234375 45.921875 
Q 44.09375 48.828125 44.09375 54.296875 
Q 44.09375 59.90625 40.109375 62.90625 
Q 36.140625 65.921875 28.71875 65.921875 
Q 24.65625 65.921875 20.015625 65.03125 
Q 15.375 64.15625 9.8125 62.3125 
L 9.8125 71.09375 
Q 15.4375 72.65625 20.34375 73.4375 
Q 25.25 74.21875 29.59375 74.21875 
Q 40.828125 74.21875 47.359375 69.109375 
Q 53.90625 64.015625 53.90625 55.328125 
Q 53.90625 49.265625 50.4375 45.09375 
Q 46.96875 40.921875 40.578125 39.3125 
z
" id="DejaVuSans-51"/>
      </defs>
      <g transform="translate(35.96875 166.168906)scale(0.3 -0.3)">
       <use xlink:href="#DejaVuSans-51"/>
       <use x="63.623047" xlink:href="#DejaVuSans-46"/>
       <use x="95.410156" xlink:href="#DejaVuSans-48"/>
      </g>
     </g>
    </g>
    <g id="ytick_8">
     <g id="line2d_11">
      <g>
       <use style="stroke:#000000;stroke-width:0.8;" x="90.678125" xlink:href="#m0839d40f64" y="107.20625"/>
      </g>
     </g>
     <g id="text_12">
      <!-- 3.5 -->
      <g transform="translate(35.96875 118.603906)scale(0.3 -0.3)">
       <use xlink:href="#DejaVuSans-51"/>
       <use x="63.623047" xlink:href="#DejaVuSans-46"/>
       <use x="95.410156" xlink:href="#DejaVuSans-53"/>
      </g>
     </g>
    </g>
    <g id="ytick_9">
     <g id="line2d_12">
      <g>
       <use style="stroke:#000000;stroke-width:0.8;" x="90.678125" xlink:href="#m0839d40f64" y="59.64125"/>
      </g>
     </g>
     <g id="text_13">
      <!-- 4.0 -->
      <g transform="translate(35.96875 71.038906)scale(0.3 -0.3)">
       <use xlink:href="#DejaVuSans-52"/>
       <use x="63.623047" xlink:href="#DejaVuSans-46"/>
       <use x="95.410156" xlink:href="#DejaVuSans-48"/>
      </g>
     </g>
    </g>
    <g id="text_14">
     <!-- IL-2 CONC (pg/ml) -->
     <defs>
      <path d="M 7.671875 0 
L 7.671875 71 
L 22.125 71 
L 22.125 12.0625 
L 58.0625 12.0625 
L 58.0625 0 
z
" id="Arial-BoldMT-76"/>
      <path d="M 5.609375 19.09375 
L 5.609375 32.8125 
L 32.5625 32.8125 
L 32.5625 19.09375 
z
" id="Arial-BoldMT-45"/>
      <path d="M 50.59375 12.75 
L 50.59375 0 
L 2.484375 0 
Q 3.265625 7.234375 7.171875 13.703125 
Q 11.078125 20.171875 22.609375 30.859375 
Q 31.890625 39.5 33.984375 42.578125 
Q 36.8125 46.828125 36.8125 50.984375 
Q 36.8125 55.5625 34.34375 58.03125 
Q 31.890625 60.5 27.546875 60.5 
Q 23.25 60.5 20.703125 57.90625 
Q 18.171875 55.328125 17.78125 49.3125 
L 4.109375 50.6875 
Q 5.328125 62.015625 11.765625 66.9375 
Q 18.21875 71.875 27.875 71.875 
Q 38.484375 71.875 44.53125 66.15625 
Q 50.59375 60.453125 50.59375 51.953125 
Q 50.59375 47.125 48.859375 42.75 
Q 47.125 38.375 43.359375 33.59375 
Q 40.875 30.421875 34.375 24.453125 
Q 27.875 18.5 26.140625 16.546875 
Q 24.421875 14.59375 23.34375 12.75 
z
" id="Arial-BoldMT-50"/>
      <path d="M 4.34375 35.359375 
Q 4.34375 46.296875 7.625 53.71875 
Q 10.0625 59.1875 14.28125 63.53125 
Q 18.5 67.875 23.53125 69.96875 
Q 30.21875 72.796875 38.96875 72.796875 
Q 54.78125 72.796875 64.28125 62.984375 
Q 73.78125 53.171875 73.78125 35.6875 
Q 73.78125 18.359375 64.359375 8.5625 
Q 54.9375 -1.21875 39.15625 -1.21875 
Q 23.1875 -1.21875 13.765625 8.515625 
Q 4.34375 18.265625 4.34375 35.359375 
z
M 19.234375 35.84375 
Q 19.234375 23.6875 24.84375 17.40625 
Q 30.46875 11.140625 39.109375 11.140625 
Q 47.75 11.140625 53.296875 17.359375 
Q 58.84375 23.578125 58.84375 36.03125 
Q 58.84375 48.34375 53.4375 54.390625 
Q 48.046875 60.453125 39.109375 60.453125 
Q 30.171875 60.453125 24.703125 54.3125 
Q 19.234375 48.1875 19.234375 35.84375 
z
" id="Arial-BoldMT-79"/>
      <path d="M 29.9375 -21.046875 
L 20.515625 -21.046875 
Q 13.03125 -9.765625 9.125 2.390625 
Q 5.21875 14.546875 5.21875 25.921875 
Q 5.21875 40.046875 10.0625 52.640625 
Q 14.265625 63.578125 20.703125 72.796875 
L 30.078125 72.796875 
Q 23.390625 58.015625 20.875 47.625 
Q 18.359375 37.25 18.359375 25.640625 
Q 18.359375 17.625 19.84375 9.21875 
Q 21.34375 0.828125 23.921875 -6.734375 
Q 25.640625 -11.71875 29.9375 -21.046875 
z
" id="Arial-BoldMT-40"/>
      <path d="M 6.78125 51.859375 
L 19.578125 51.859375 
L 19.578125 44.234375 
Q 22.078125 48.140625 26.3125 50.578125 
Q 30.5625 53.03125 35.75 53.03125 
Q 44.78125 53.03125 51.078125 45.953125 
Q 57.375 38.875 57.375 26.21875 
Q 57.375 13.234375 51.015625 6.03125 
Q 44.671875 -1.171875 35.640625 -1.171875 
Q 31.34375 -1.171875 27.84375 0.53125 
Q 24.359375 2.25 20.515625 6.390625 
L 20.515625 -19.734375 
L 6.78125 -19.734375 
z
M 20.359375 26.8125 
Q 20.359375 18.0625 23.828125 13.890625 
Q 27.296875 9.71875 32.28125 9.71875 
Q 37.0625 9.71875 40.234375 13.546875 
Q 43.40625 17.390625 43.40625 26.125 
Q 43.40625 34.28125 40.125 38.234375 
Q 36.859375 42.1875 32.03125 42.1875 
Q 27 42.1875 23.671875 38.296875 
Q 20.359375 34.421875 20.359375 26.8125 
z
" id="Arial-BoldMT-112"/>
      <path d="M 5.90625 -3.421875 
L 21.578125 -5.328125 
Q 21.96875 -8.0625 23.390625 -9.078125 
Q 25.34375 -10.546875 29.546875 -10.546875 
Q 34.90625 -10.546875 37.59375 -8.9375 
Q 39.40625 -7.859375 40.328125 -5.46875 
Q 40.96875 -3.765625 40.96875 0.828125 
L 40.96875 8.40625 
Q 34.8125 0 25.4375 0 
Q 14.984375 0 8.890625 8.84375 
Q 4.109375 15.828125 4.109375 26.21875 
Q 4.109375 39.265625 10.375 46.140625 
Q 16.65625 53.03125 25.984375 53.03125 
Q 35.59375 53.03125 41.84375 44.578125 
L 41.84375 51.859375 
L 54.6875 51.859375 
L 54.6875 5.328125 
Q 54.6875 -3.859375 53.171875 -8.390625 
Q 51.65625 -12.9375 48.921875 -15.515625 
Q 46.1875 -18.109375 41.625 -19.578125 
Q 37.0625 -21.046875 30.078125 -21.046875 
Q 16.890625 -21.046875 11.375 -16.53125 
Q 5.859375 -12.015625 5.859375 -5.078125 
Q 5.859375 -4.390625 5.90625 -3.421875 
z
M 18.171875 27 
Q 18.171875 18.75 21.359375 14.90625 
Q 24.5625 11.078125 29.25 11.078125 
Q 34.28125 11.078125 37.75 15.015625 
Q 41.21875 18.953125 41.21875 26.65625 
Q 41.21875 34.71875 37.890625 38.625 
Q 34.578125 42.53125 29.5 42.53125 
Q 24.5625 42.53125 21.359375 38.6875 
Q 18.171875 34.859375 18.171875 27 
z
" id="Arial-BoldMT-103"/>
      <path d="M -0.140625 -1.21875 
L 17.578125 72.796875 
L 27.875 72.796875 
L 9.96875 -1.21875 
z
" id="Arial-BoldMT-47"/>
      <path d="M 6.15625 51.859375 
L 18.796875 51.859375 
L 18.796875 44.78125 
Q 25.59375 53.03125 34.96875 53.03125 
Q 39.9375 53.03125 43.59375 50.96875 
Q 47.265625 48.921875 49.609375 44.78125 
Q 53.03125 48.921875 56.984375 50.96875 
Q 60.9375 53.03125 65.4375 53.03125 
Q 71.140625 53.03125 75.09375 50.703125 
Q 79.046875 48.390625 81 43.890625 
Q 82.421875 40.578125 82.421875 33.15625 
L 82.421875 0 
L 68.703125 0 
L 68.703125 29.640625 
Q 68.703125 37.359375 67.28125 39.59375 
Q 65.375 42.53125 61.421875 42.53125 
Q 58.546875 42.53125 56 40.765625 
Q 53.46875 39.015625 52.34375 35.625 
Q 51.21875 32.234375 51.21875 24.90625 
L 51.21875 0 
L 37.5 0 
L 37.5 28.421875 
Q 37.5 35.984375 36.765625 38.171875 
Q 36.03125 40.375 34.484375 41.453125 
Q 32.953125 42.53125 30.328125 42.53125 
Q 27.15625 42.53125 24.609375 40.8125 
Q 22.078125 39.109375 20.96875 35.890625 
Q 19.875 32.671875 19.875 25.203125 
L 19.875 0 
L 6.15625 0 
z
" id="Arial-BoldMT-109"/>
      <path d="M 7.171875 0 
L 7.171875 71.578125 
L 20.90625 71.578125 
L 20.90625 0 
z
" id="Arial-BoldMT-108"/>
      <path d="M 3.375 -21.046875 
Q 7.421875 -12.359375 9.078125 -7.71875 
Q 10.75 -3.078125 12.15625 2.96875 
Q 13.578125 9.03125 14.25 14.46875 
Q 14.9375 19.921875 14.9375 25.640625 
Q 14.9375 37.25 12.453125 47.625 
Q 9.96875 58.015625 3.265625 72.796875 
L 12.59375 72.796875 
Q 19.96875 62.3125 24.046875 50.53125 
Q 28.125 38.765625 28.125 26.65625 
Q 28.125 16.453125 24.90625 4.78125 
Q 21.234375 -8.296875 12.84375 -21.046875 
z
" id="Arial-BoldMT-41"/>
     </defs>
     <g transform="translate(21.759375 336.00125)rotate(-90)scale(0.2 -0.2)">
      <use xlink:href="#Arial-BoldMT-73"/>
      <use x="27.783203" xlink:href="#Arial-BoldMT-76"/>
      <use x="88.867188" xlink:href="#Arial-BoldMT-45"/>
      <use x="122.167969" xlink:href="#Arial-BoldMT-50"/>
      <use x="177.783203" xlink:href="#Arial-BoldMT-32"/>
      <use x="205.566406" xlink:href="#Arial-BoldMT-67"/>
      <use x="277.783203" xlink:href="#Arial-BoldMT-79"/>
      <use x="355.566406" xlink:href="#Arial-BoldMT-78"/>
      <use x="427.783203" xlink:href="#Arial-BoldMT-67"/>
      <use x="500" xlink:href="#Arial-BoldMT-32"/>
      <use x="527.783203" xlink:href="#Arial-BoldMT-40"/>
      <use x="561.083984" xlink:href="#Arial-BoldMT-112"/>
      <use x="622.167969" xlink:href="#Arial-BoldMT-103"/>
      <use x="683.251953" xlink:href="#Arial-BoldMT-47"/>
      <use x="711.035156" xlink:href="#Arial-BoldMT-109"/>
      <use x="799.951172" xlink:href="#Arial-BoldMT-108"/>
      <use x="827.734375" xlink:href="#Arial-BoldMT-41"/>
     </g>
    </g>
    <g id="text_15">
     <!-- 1e7 -->
     <defs>
      <path d="M 56.203125 29.59375 
L 56.203125 25.203125 
L 14.890625 25.203125 
Q 15.484375 15.921875 20.484375 11.0625 
Q 25.484375 6.203125 34.421875 6.203125 
Q 39.59375 6.203125 44.453125 7.46875 
Q 49.3125 8.734375 54.109375 11.28125 
L 54.109375 2.78125 
Q 49.265625 0.734375 44.1875 -0.34375 
Q 39.109375 -1.421875 33.890625 -1.421875 
Q 20.796875 -1.421875 13.15625 6.1875 
Q 5.515625 13.8125 5.515625 26.8125 
Q 5.515625 40.234375 12.765625 48.109375 
Q 20.015625 56 32.328125 56 
Q 43.359375 56 49.78125 48.890625 
Q 56.203125 41.796875 56.203125 29.59375 
z
M 47.21875 32.234375 
Q 47.125 39.59375 43.09375 43.984375 
Q 39.0625 48.390625 32.421875 48.390625 
Q 24.90625 48.390625 20.390625 44.140625 
Q 15.875 39.890625 15.1875 32.171875 
z
" id="DejaVuSans-101"/>
     </defs>
     <g transform="translate(90.678125 56.64125)scale(0.1 -0.1)">
      <use xlink:href="#DejaVuSans-49"/>
      <use x="63.623047" xlink:href="#DejaVuSans-101"/>
      <use x="125.146484" xlink:href="#DejaVuSans-55"/>
     </g>
    </g>
   </g>
   <g id="line2d_13">
    <path clip-path="url(#pe94ca7fda7)" d="M 112.378125 440.16125 
L 112.378125 440.16125 
" style="fill:none;stroke:#424242;stroke-linecap:square;stroke-width:2.7;"/>
   </g>
   <g id="line2d_14">
    <path clip-path="url(#pe94ca7fda7)" d="M 105.868125 440.16125 
L 118.888125 440.16125 
" style="fill:none;stroke:#424242;stroke-linecap:square;stroke-width:2.7;"/>
   </g>
   <g id="line2d_15">
    <path clip-path="url(#pe94ca7fda7)" d="M 105.868125 440.16125 
L 118.888125 440.16125 
" style="fill:none;stroke:#424242;stroke-linecap:square;stroke-width:2.7;"/>
   </g>
   <g id="line2d_16">
    <path clip-path="url(#pe94ca7fda7)" d="M 242.578125 440.16125 
L 242.578125 440.16125 
" style="fill:none;stroke:#424242;stroke-linecap:square;stroke-width:2.7;"/>
   </g>
   <g id="line2d_17">
    <path clip-path="url(#pe94ca7fda7)" d="M 236.068125 440.16125 
L 249.088125 440.16125 
" style="fill:none;stroke:#424242;stroke-linecap:square;stroke-width:2.7;"/>
   </g>
   <g id="line2d_18">
    <path clip-path="url(#pe94ca7fda7)" d="M 236.068125 440.16125 
L 249.088125 440.16125 
" style="fill:none;stroke:#424242;stroke-linecap:square;stroke-width:2.7;"/>
   </g>
   <g id="line2d_19">
    <path clip-path="url(#pe94ca7fda7)" d="M 372.778125 440.16125 
L 372.778125 440.16125 
" style="fill:none;stroke:#424242;stroke-linecap:square;stroke-width:2.7;"/>
   </g>
   <g id="line2d_20">
    <path clip-path="url(#pe94ca7fda7)" d="M 366.268125 440.16125 
L 379.288125 440.16125 
" style="fill:none;stroke:#424242;stroke-linecap:square;stroke-width:2.7;"/>
   </g>
   <g id="line2d_21">
    <path clip-path="url(#pe94ca7fda7)" d="M 366.268125 440.16125 
L 379.288125 440.16125 
" style="fill:none;stroke:#424242;stroke-linecap:square;stroke-width:2.7;"/>
   </g>
   <g id="line2d_22">
    <path clip-path="url(#pe94ca7fda7)" d="M 129.738125 440.158767 
L 129.738125 440.152791 
" style="fill:none;stroke:#424242;stroke-linecap:square;stroke-width:2.7;"/>
   </g>
   <g id="line2d_23">
    <path clip-path="url(#pe94ca7fda7)" d="M 123.228125 440.158767 
L 136.248125 440.158767 
" style="fill:none;stroke:#424242;stroke-linecap:square;stroke-width:2.7;"/>
   </g>
   <g id="line2d_24">
    <path clip-path="url(#pe94ca7fda7)" d="M 123.228125 440.152791 
L 136.248125 440.152791 
" style="fill:none;stroke:#424242;stroke-linecap:square;stroke-width:2.7;"/>
   </g>
   <g id="line2d_25">
    <path clip-path="url(#pe94ca7fda7)" d="M 259.938125 438.542676 
L 259.938125 437.66709 
" style="fill:none;stroke:#424242;stroke-linecap:square;stroke-width:2.7;"/>
   </g>
   <g id="line2d_26">
    <path clip-path="url(#pe94ca7fda7)" d="M 253.428125 438.542676 
L 266.448125 438.542676 
" style="fill:none;stroke:#424242;stroke-linecap:square;stroke-width:2.7;"/>
   </g>
   <g id="line2d_27">
    <path clip-path="url(#pe94ca7fda7)" d="M 253.428125 437.66709 
L 266.448125 437.66709 
" style="fill:none;stroke:#424242;stroke-linecap:square;stroke-width:2.7;"/>
   </g>
   <g id="line2d_28">
    <path clip-path="url(#pe94ca7fda7)" d="M 390.138125 423.941672 
L 390.138125 419.015693 
" style="fill:none;stroke:#424242;stroke-linecap:square;stroke-width:2.7;"/>
   </g>
   <g id="line2d_29">
    <path clip-path="url(#pe94ca7fda7)" d="M 383.628125 423.941672 
L 396.648125 423.941672 
" style="fill:none;stroke:#424242;stroke-linecap:square;stroke-width:2.7;"/>
   </g>
   <g id="line2d_30">
    <path clip-path="url(#pe94ca7fda7)" d="M 383.628125 419.015693 
L 396.648125 419.015693 
" style="fill:none;stroke:#424242;stroke-linecap:square;stroke-width:2.7;"/>
   </g>
   <g id="line2d_31">
    <path clip-path="url(#pe94ca7fda7)" d="M 147.098125 440.139383 
L 147.098125 440.118663 
" style="fill:none;stroke:#424242;stroke-linecap:square;stroke-width:2.7;"/>
   </g>
   <g id="line2d_32">
    <path clip-path="url(#pe94ca7fda7)" d="M 140.588125 440.139383 
L 153.608125 440.139383 
" style="fill:none;stroke:#424242;stroke-linecap:square;stroke-width:2.7;"/>
   </g>
   <g id="line2d_33">
    <path clip-path="url(#pe94ca7fda7)" d="M 140.588125 440.118663 
L 153.608125 440.118663 
" style="fill:none;stroke:#424242;stroke-linecap:square;stroke-width:2.7;"/>
   </g>
   <g id="line2d_34">
    <path clip-path="url(#pe94ca7fda7)" d="M 277.298125 434.231672 
L 277.298125 431.646195 
" style="fill:none;stroke:#424242;stroke-linecap:square;stroke-width:2.7;"/>
   </g>
   <g id="line2d_35">
    <path clip-path="url(#pe94ca7fda7)" d="M 270.788125 434.231672 
L 283.808125 434.231672 
" style="fill:none;stroke:#424242;stroke-linecap:square;stroke-width:2.7;"/>
   </g>
   <g id="line2d_36">
    <path clip-path="url(#pe94ca7fda7)" d="M 270.788125 431.646195 
L 283.808125 431.646195 
" style="fill:none;stroke:#424242;stroke-linecap:square;stroke-width:2.7;"/>
   </g>
   <g id="line2d_37">
    <path clip-path="url(#pe94ca7fda7)" d="M 407.498125 381.217475 
L 407.498125 366.712016 
" style="fill:none;stroke:#424242;stroke-linecap:square;stroke-width:2.7;"/>
   </g>
   <g id="line2d_38">
    <path clip-path="url(#pe94ca7fda7)" d="M 400.988125 381.217475 
L 414.008125 381.217475 
" style="fill:none;stroke:#424242;stroke-linecap:square;stroke-width:2.7;"/>
   </g>
   <g id="line2d_39">
    <path clip-path="url(#pe94ca7fda7)" d="M 400.988125 366.712016 
L 414.008125 366.712016 
" style="fill:none;stroke:#424242;stroke-linecap:square;stroke-width:2.7;"/>
   </g>
   <g id="line2d_40">
    <path clip-path="url(#pe94ca7fda7)" d="M 164.458125 440.118009 
L 164.458125 440.090658 
" style="fill:none;stroke:#424242;stroke-linecap:square;stroke-width:2.7;"/>
   </g>
   <g id="line2d_41">
    <path clip-path="url(#pe94ca7fda7)" d="M 157.948125 440.118009 
L 170.968125 440.118009 
" style="fill:none;stroke:#424242;stroke-linecap:square;stroke-width:2.7;"/>
   </g>
   <g id="line2d_42">
    <path clip-path="url(#pe94ca7fda7)" d="M 157.948125 440.090658 
L 170.968125 440.090658 
" style="fill:none;stroke:#424242;stroke-linecap:square;stroke-width:2.7;"/>
   </g>
   <g id="line2d_43">
    <path clip-path="url(#pe94ca7fda7)" d="M 294.658125 430.065415 
L 294.658125 427.405486 
" style="fill:none;stroke:#424242;stroke-linecap:square;stroke-width:2.7;"/>
   </g>
   <g id="line2d_44">
    <path clip-path="url(#pe94ca7fda7)" d="M 288.148125 430.065415 
L 301.168125 430.065415 
" style="fill:none;stroke:#424242;stroke-linecap:square;stroke-width:2.7;"/>
   </g>
   <g id="line2d_45">
    <path clip-path="url(#pe94ca7fda7)" d="M 288.148125 427.405486 
L 301.168125 427.405486 
" style="fill:none;stroke:#424242;stroke-linecap:square;stroke-width:2.7;"/>
   </g>
   <g id="line2d_46">
    <path clip-path="url(#pe94ca7fda7)" d="M 424.858125 341.47984 
L 424.858125 325.753499 
" style="fill:none;stroke:#424242;stroke-linecap:square;stroke-width:2.7;"/>
   </g>
   <g id="line2d_47">
    <path clip-path="url(#pe94ca7fda7)" d="M 418.348125 341.47984 
L 431.368125 341.47984 
" style="fill:none;stroke:#424242;stroke-linecap:square;stroke-width:2.7;"/>
   </g>
   <g id="line2d_48">
    <path clip-path="url(#pe94ca7fda7)" d="M 418.348125 325.753499 
L 431.368125 325.753499 
" style="fill:none;stroke:#424242;stroke-linecap:square;stroke-width:2.7;"/>
   </g>
   <g id="line2d_49">
    <path clip-path="url(#pe94ca7fda7)" d="M 181.818125 439.987466 
L 181.818125 439.955203 
" style="fill:none;stroke:#424242;stroke-linecap:square;stroke-width:2.7;"/>
   </g>
   <g id="line2d_50">
    <path clip-path="url(#pe94ca7fda7)" d="M 175.308125 439.987466 
L 188.328125 439.987466 
" style="fill:none;stroke:#424242;stroke-linecap:square;stroke-width:2.7;"/>
   </g>
   <g id="line2d_51">
    <path clip-path="url(#pe94ca7fda7)" d="M 175.308125 439.955203 
L 188.328125 439.955203 
" style="fill:none;stroke:#424242;stroke-linecap:square;stroke-width:2.7;"/>
   </g>
   <g id="line2d_52">
    <path clip-path="url(#pe94ca7fda7)" d="M 312.018125 413.332241 
L 312.018125 410.784185 
" style="fill:none;stroke:#424242;stroke-linecap:square;stroke-width:2.7;"/>
   </g>
   <g id="line2d_53">
    <path clip-path="url(#pe94ca7fda7)" d="M 305.508125 413.332241 
L 318.528125 413.332241 
" style="fill:none;stroke:#424242;stroke-linecap:square;stroke-width:2.7;"/>
   </g>
   <g id="line2d_54">
    <path clip-path="url(#pe94ca7fda7)" d="M 305.508125 410.784185 
L 318.528125 410.784185 
" style="fill:none;stroke:#424242;stroke-linecap:square;stroke-width:2.7;"/>
   </g>
   <g id="line2d_55">
    <path clip-path="url(#pe94ca7fda7)" d="M 442.218125 219.350202 
L 442.218125 206.236364 
" style="fill:none;stroke:#424242;stroke-linecap:square;stroke-width:2.7;"/>
   </g>
   <g id="line2d_56">
    <path clip-path="url(#pe94ca7fda7)" d="M 435.708125 219.350202 
L 448.728125 219.350202 
" style="fill:none;stroke:#424242;stroke-linecap:square;stroke-width:2.7;"/>
   </g>
   <g id="line2d_57">
    <path clip-path="url(#pe94ca7fda7)" d="M 435.708125 206.236364 
L 448.728125 206.236364 
" style="fill:none;stroke:#424242;stroke-linecap:square;stroke-width:2.7;"/>
   </g>
   <g id="line2d_58">
    <path clip-path="url(#pe94ca7fda7)" d="M 199.178125 439.898591 
L 199.178125 439.86752 
" style="fill:none;stroke:#424242;stroke-linecap:square;stroke-width:2.7;"/>
   </g>
   <g id="line2d_59">
    <path clip-path="url(#pe94ca7fda7)" d="M 192.668125 439.898591 
L 205.688125 439.898591 
" style="fill:none;stroke:#424242;stroke-linecap:square;stroke-width:2.7;"/>
   </g>
   <g id="line2d_60">
    <path clip-path="url(#pe94ca7fda7)" d="M 192.668125 439.86752 
L 205.688125 439.86752 
" style="fill:none;stroke:#424242;stroke-linecap:square;stroke-width:2.7;"/>
   </g>
   <g id="line2d_61">
    <path clip-path="url(#pe94ca7fda7)" d="M 329.378125 405.311307 
L 329.378125 402.38732 
" style="fill:none;stroke:#424242;stroke-linecap:square;stroke-width:2.7;"/>
   </g>
   <g id="line2d_62">
    <path clip-path="url(#pe94ca7fda7)" d="M 322.868125 405.311307 
L 335.888125 405.311307 
" style="fill:none;stroke:#424242;stroke-linecap:square;stroke-width:2.7;"/>
   </g>
   <g id="line2d_63">
    <path clip-path="url(#pe94ca7fda7)" d="M 322.868125 402.38732 
L 335.888125 402.38732 
" style="fill:none;stroke:#424242;stroke-linecap:square;stroke-width:2.7;"/>
   </g>
   <g id="line2d_64">
    <path clip-path="url(#pe94ca7fda7)" d="M 459.578125 180.520472 
L 459.578125 164.056188 
" style="fill:none;stroke:#424242;stroke-linecap:square;stroke-width:2.7;"/>
   </g>
   <g id="line2d_65">
    <path clip-path="url(#pe94ca7fda7)" d="M 453.068125 180.520472 
L 466.088125 180.520472 
" style="fill:none;stroke:#424242;stroke-linecap:square;stroke-width:2.7;"/>
   </g>
   <g id="line2d_66">
    <path clip-path="url(#pe94ca7fda7)" d="M 453.068125 164.056188 
L 466.088125 164.056188 
" style="fill:none;stroke:#424242;stroke-linecap:square;stroke-width:2.7;"/>
   </g>
   <g id="patch_21">
    <path d="M 90.678125 440.16125 
L 90.678125 59.64125 
" style="fill:none;stroke:#000000;stroke-linecap:square;stroke-linejoin:miter;stroke-width:0.8;"/>
   </g>
   <g id="patch_22">
    <path d="M 481.278125 440.16125 
L 481.278125 59.64125 
" style="fill:none;stroke:#000000;stroke-linecap:square;stroke-linejoin:miter;stroke-width:0.8;"/>
   </g>
   <g id="patch_23">
    <path d="M 90.678125 440.16125 
L 481.278125 440.16125 
" style="fill:none;stroke:#000000;stroke-linecap:square;stroke-linejoin:miter;stroke-width:0.8;"/>
   </g>
   <g id="patch_24">
    <path d="M 90.678125 59.64125 
L 481.278125 59.64125 
" style="fill:none;stroke:#000000;stroke-linecap:square;stroke-linejoin:miter;stroke-width:0.8;"/>
   </g>
   <g id="PathCollection_7">
    <defs>
     <path d="M 0 2.5 
C 0.663008 2.5 1.29895 2.236584 1.767767 1.767767 
C 2.236584 1.29895 2.5 0.663008 2.5 0 
C 2.5 -0.663008 2.236584 -1.29895 1.767767 -1.767767 
C 1.29895 -2.236584 0.663008 -2.5 0 -2.5 
C -0.663008 -2.5 -1.29895 -2.236584 -1.767767 -1.767767 
C -2.236584 -1.29895 -2.5 -0.663008 -2.5 0 
C -2.5 0.663008 -2.236584 1.29895 -1.767767 1.767767 
C -1.29895 2.236584 -0.663008 2.5 0 2.5 
z
" id="C0_0_6b8a9a2d9c"/>
    </defs>
    <g clip-path="url(#pe94ca7fda7)">
     <use style="fill:#222222;" x="112.378125" xlink:href="#C0_0_6b8a9a2d9c" y="440.16125"/>
    </g>
    <g clip-path="url(#pe94ca7fda7)">
     <use style="fill:#222222;" x="107.128125" xlink:href="#C0_0_6b8a9a2d9c" y="440.16125"/>
    </g>
    <g clip-path="url(#pe94ca7fda7)">
     <use style="fill:#222222;" x="117.628125" xlink:href="#C0_0_6b8a9a2d9c" y="440.16125"/>
    </g>
    <g clip-path="url(#pe94ca7fda7)">
     <use style="fill:#222222;" x="103.871725" xlink:href="#C0_0_6b8a9a2d9c" y="440.16125"/>
    </g>
    <g clip-path="url(#pe94ca7fda7)">
     <use style="fill:#222222;" x="120.884525" xlink:href="#C0_0_6b8a9a2d9c" y="440.16125"/>
    </g>
    <g clip-path="url(#pe94ca7fda7)">
     <use style="fill:#222222;" x="103.871725" xlink:href="#C0_0_6b8a9a2d9c" y="440.16125"/>
    </g>
    <g clip-path="url(#pe94ca7fda7)">
     <use style="fill:#222222;" x="120.884525" xlink:href="#C0_0_6b8a9a2d9c" y="440.16125"/>
    </g>
    <g clip-path="url(#pe94ca7fda7)">
     <use style="fill:#222222;" x="103.871725" xlink:href="#C0_0_6b8a9a2d9c" y="440.16125"/>
    </g>
    <g clip-path="url(#pe94ca7fda7)">
     <use style="fill:#222222;" x="120.884525" xlink:href="#C0_0_6b8a9a2d9c" y="440.16125"/>
    </g>
    <g clip-path="url(#pe94ca7fda7)">
     <use style="fill:#222222;" x="103.871725" xlink:href="#C0_0_6b8a9a2d9c" y="440.16125"/>
    </g>
   </g>
   <g id="PathCollection_8">
    <defs>
     <path d="M 0 2.5 
C 0.663008 2.5 1.29895 2.236584 1.767767 1.767767 
C 2.236584 1.29895 2.5 0.663008 2.5 0 
C 2.5 -0.663008 2.236584 -1.29895 1.767767 -1.767767 
C 1.29895 -2.236584 0.663008 -2.5 0 -2.5 
C -0.663008 -2.5 -1.29895 -2.236584 -1.767767 -1.767767 
C -2.236584 -1.29895 -2.5 -0.663008 -2.5 0 
C -2.5 0.663008 -2.236584 1.29895 -1.767767 1.767767 
C -1.29895 2.236584 -0.663008 2.5 0 2.5 
z
" id="C1_0_6c9d04df14"/>
    </defs>
    <g clip-path="url(#pe94ca7fda7)">
     <use style="fill:#1b1b1b;" x="129.738125" xlink:href="#C1_0_6c9d04df14" y="440.160513"/>
    </g>
    <g clip-path="url(#pe94ca7fda7)">
     <use style="fill:#1b1b1b;" x="124.488126" xlink:href="#C1_0_6c9d04df14" y="440.158006"/>
    </g>
    <g clip-path="url(#pe94ca7fda7)">
     <use style="fill:#1b1b1b;" x="134.988124" xlink:href="#C1_0_6c9d04df14" y="440.157747"/>
    </g>
    <g clip-path="url(#pe94ca7fda7)">
     <use style="fill:#1b1b1b;" x="138.244525" xlink:href="#C1_0_6c9d04df14" y="440.157729"/>
    </g>
    <g clip-path="url(#pe94ca7fda7)">
     <use style="fill:#1b1b1b;" x="121.231725" xlink:href="#C1_0_6c9d04df14" y="440.156436"/>
    </g>
    <g clip-path="url(#pe94ca7fda7)">
     <use style="fill:#1b1b1b;" x="138.244525" xlink:href="#C1_0_6c9d04df14" y="440.156286"/>
    </g>
    <g clip-path="url(#pe94ca7fda7)">
     <use style="fill:#1b1b1b;" x="121.231725" xlink:href="#C1_0_6c9d04df14" y="440.156054"/>
    </g>
    <g clip-path="url(#pe94ca7fda7)">
     <use style="fill:#1b1b1b;" x="138.244525" xlink:href="#C1_0_6c9d04df14" y="440.153062"/>
    </g>
    <g clip-path="url(#pe94ca7fda7)">
     <use style="fill:#1b1b1b;" x="121.231725" xlink:href="#C1_0_6c9d04df14" y="440.151056"/>
    </g>
    <g clip-path="url(#pe94ca7fda7)">
     <use style="fill:#1b1b1b;" x="121.231725" xlink:href="#C1_0_6c9d04df14" y="440.150902"/>
    </g>
   </g>
   <g id="PathCollection_9">
    <defs>
     <path d="M 0 2.5 
C 0.663008 2.5 1.29895 2.236584 1.767767 1.767767 
C 2.236584 1.29895 2.5 0.663008 2.5 0 
C 2.5 -0.663008 2.236584 -1.29895 1.767767 -1.767767 
C 1.29895 -2.236584 0.663008 -2.5 0 -2.5 
C -0.663008 -2.5 -1.29895 -2.236584 -1.767767 -1.767767 
C -2.236584 -1.29895 -2.5 -0.663008 -2.5 0 
C -2.5 0.663008 -2.236584 1.29895 -1.767767 1.767767 
C -1.29895 2.236584 -0.663008 2.5 0 2.5 
z
" id="C2_0_7e1634de3d"/>
    </defs>
    <g clip-path="url(#pe94ca7fda7)">
     <use style="fill:#141414;" x="147.098125" xlink:href="#C2_0_7e1634de3d" y="440.143341"/>
    </g>
    <g clip-path="url(#pe94ca7fda7)">
     <use style="fill:#141414;" x="141.848132" xlink:href="#C2_0_7e1634de3d" y="440.136852"/>
    </g>
    <g clip-path="url(#pe94ca7fda7)">
     <use style="fill:#141414;" x="152.348117" xlink:href="#C2_0_7e1634de3d" y="440.136254"/>
    </g>
    <g clip-path="url(#pe94ca7fda7)">
     <use style="fill:#141414;" x="155.604525" xlink:href="#C2_0_7e1634de3d" y="440.134961"/>
    </g>
    <g clip-path="url(#pe94ca7fda7)">
     <use style="fill:#141414;" x="138.591725" xlink:href="#C2_0_7e1634de3d" y="440.133113"/>
    </g>
    <g clip-path="url(#pe94ca7fda7)">
     <use style="fill:#141414;" x="155.604525" xlink:href="#C2_0_7e1634de3d" y="440.130916"/>
    </g>
    <g clip-path="url(#pe94ca7fda7)">
     <use style="fill:#141414;" x="138.591725" xlink:href="#C2_0_7e1634de3d" y="440.130251"/>
    </g>
    <g clip-path="url(#pe94ca7fda7)">
     <use style="fill:#141414;" x="155.604525" xlink:href="#C2_0_7e1634de3d" y="440.122499"/>
    </g>
    <g clip-path="url(#pe94ca7fda7)">
     <use style="fill:#141414;" x="138.591725" xlink:href="#C2_0_7e1634de3d" y="440.112874"/>
    </g>
    <g clip-path="url(#pe94ca7fda7)">
     <use style="fill:#141414;" x="138.591725" xlink:href="#C2_0_7e1634de3d" y="440.109167"/>
    </g>
   </g>
   <g id="PathCollection_10">
    <defs>
     <path d="M 0 2.5 
C 0.663008 2.5 1.29895 2.236584 1.767767 1.767767 
C 2.236584 1.29895 2.5 0.663008 2.5 0 
C 2.5 -0.663008 2.236584 -1.29895 1.767767 -1.767767 
C 1.29895 -2.236584 0.663008 -2.5 0 -2.5 
C -0.663008 -2.5 -1.29895 -2.236584 -1.767767 -1.767767 
C -2.236584 -1.29895 -2.5 -0.663008 -2.5 0 
C -2.5 0.663008 -2.236584 1.29895 -1.767767 1.767767 
C -1.29895 2.236584 -0.663008 2.5 0 2.5 
z
" id="C3_0_b0dff2a300"/>
    </defs>
    <g clip-path="url(#pe94ca7fda7)">
     <use style="fill:#0e0e0e;" x="164.458125" xlink:href="#C3_0_b0dff2a300" y="440.124464"/>
    </g>
    <g clip-path="url(#pe94ca7fda7)">
     <use style="fill:#0e0e0e;" x="159.208125" xlink:href="#C3_0_b0dff2a300" y="440.123185"/>
    </g>
    <g clip-path="url(#pe94ca7fda7)">
     <use style="fill:#0e0e0e;" x="169.708095" xlink:href="#C3_0_b0dff2a300" y="440.110478"/>
    </g>
    <g clip-path="url(#pe94ca7fda7)">
     <use style="fill:#0e0e0e;" x="155.951725" xlink:href="#C3_0_b0dff2a300" y="440.107985"/>
    </g>
    <g clip-path="url(#pe94ca7fda7)">
     <use style="fill:#0e0e0e;" x="172.964525" xlink:href="#C3_0_b0dff2a300" y="440.107397"/>
    </g>
    <g clip-path="url(#pe94ca7fda7)">
     <use style="fill:#0e0e0e;" x="155.951725" xlink:href="#C3_0_b0dff2a300" y="440.105664"/>
    </g>
    <g clip-path="url(#pe94ca7fda7)">
     <use style="fill:#0e0e0e;" x="172.964525" xlink:href="#C3_0_b0dff2a300" y="440.102502"/>
    </g>
    <g clip-path="url(#pe94ca7fda7)">
     <use style="fill:#0e0e0e;" x="155.951725" xlink:href="#C3_0_b0dff2a300" y="440.095537"/>
    </g>
    <g clip-path="url(#pe94ca7fda7)">
     <use style="fill:#0e0e0e;" x="172.964525" xlink:href="#C3_0_b0dff2a300" y="440.088618"/>
    </g>
    <g clip-path="url(#pe94ca7fda7)">
     <use style="fill:#0e0e0e;" x="155.951725" xlink:href="#C3_0_b0dff2a300" y="440.077507"/>
    </g>
   </g>
   <g id="PathCollection_11">
    <defs>
     <path d="M 0 2.5 
C 0.663008 2.5 1.29895 2.236584 1.767767 1.767767 
C 2.236584 1.29895 2.5 0.663008 2.5 0 
C 2.5 -0.663008 2.236584 -1.29895 1.767767 -1.767767 
C 1.29895 -2.236584 0.663008 -2.5 0 -2.5 
C -0.663008 -2.5 -1.29895 -2.236584 -1.767767 -1.767767 
C -2.236584 -1.29895 -2.5 -0.663008 -2.5 0 
C -2.5 0.663008 -2.236584 1.29895 -1.767767 1.767767 
C -1.29895 2.236584 -0.663008 2.5 0 2.5 
z
" id="C4_0_65ac63f013"/>
    </defs>
    <g clip-path="url(#pe94ca7fda7)">
     <use style="fill:#070707;" x="181.818125" xlink:href="#C4_0_65ac63f013" y="440.006342"/>
    </g>
    <g clip-path="url(#pe94ca7fda7)">
     <use style="fill:#070707;" x="176.568165" xlink:href="#C4_0_65ac63f013" y="439.99033"/>
    </g>
    <g clip-path="url(#pe94ca7fda7)">
     <use style="fill:#070707;" x="187.067996" xlink:href="#C4_0_65ac63f013" y="439.977514"/>
    </g>
    <g clip-path="url(#pe94ca7fda7)">
     <use style="fill:#070707;" x="190.324525" xlink:href="#C4_0_65ac63f013" y="439.97328"/>
    </g>
    <g clip-path="url(#pe94ca7fda7)">
     <use style="fill:#070707;" x="173.311725" xlink:href="#C4_0_65ac63f013" y="439.970621"/>
    </g>
    <g clip-path="url(#pe94ca7fda7)">
     <use style="fill:#070707;" x="190.324525" xlink:href="#C4_0_65ac63f013" y="439.967759"/>
    </g>
    <g clip-path="url(#pe94ca7fda7)">
     <use style="fill:#070707;" x="173.311725" xlink:href="#C4_0_65ac63f013" y="439.961869"/>
    </g>
    <g clip-path="url(#pe94ca7fda7)">
     <use style="fill:#070707;" x="190.324525" xlink:href="#C4_0_65ac63f013" y="439.959189"/>
    </g>
    <g clip-path="url(#pe94ca7fda7)">
     <use style="fill:#070707;" x="173.311725" xlink:href="#C4_0_65ac63f013" y="439.959013"/>
    </g>
    <g clip-path="url(#pe94ca7fda7)">
     <use style="fill:#070707;" x="190.324525" xlink:href="#C4_0_65ac63f013" y="439.947425"/>
    </g>
   </g>
   <g id="PathCollection_12">
    <defs>
     <path d="M 0 2.5 
C 0.663008 2.5 1.29895 2.236584 1.767767 1.767767 
C 2.236584 1.29895 2.5 0.663008 2.5 0 
C 2.5 -0.663008 2.236584 -1.29895 1.767767 -1.767767 
C 1.29895 -2.236584 0.663008 -2.5 0 -2.5 
C -0.663008 -2.5 -1.29895 -2.236584 -1.767767 -1.767767 
C -2.236584 -1.29895 -2.5 -0.663008 -2.5 0 
C -2.5 0.663008 -2.236584 1.29895 -1.767767 1.767767 
C -1.29895 2.236584 -0.663008 2.5 0 2.5 
z
" id="C5_0_9581dfa87d"/>
    </defs>
    <g clip-path="url(#pe94ca7fda7)">
     <use x="199.178125" xlink:href="#C5_0_9581dfa87d" y="439.911458"/>
    </g>
    <g clip-path="url(#pe94ca7fda7)">
     <use x="193.928144" xlink:href="#C5_0_9581dfa87d" y="439.900315"/>
    </g>
    <g clip-path="url(#pe94ca7fda7)">
     <use x="204.428105" xlink:href="#C5_0_9581dfa87d" y="439.900117"/>
    </g>
    <g clip-path="url(#pe94ca7fda7)">
     <use x="190.671725" xlink:href="#C5_0_9581dfa87d" y="439.886103"/>
    </g>
    <g clip-path="url(#pe94ca7fda7)">
     <use x="207.684525" xlink:href="#C5_0_9581dfa87d" y="439.881769"/>
    </g>
    <g clip-path="url(#pe94ca7fda7)">
     <use x="207.684525" xlink:href="#C5_0_9581dfa87d" y="439.879786"/>
    </g>
    <g clip-path="url(#pe94ca7fda7)">
     <use x="190.671725" xlink:href="#C5_0_9581dfa87d" y="439.872944"/>
    </g>
    <g clip-path="url(#pe94ca7fda7)">
     <use x="207.684525" xlink:href="#C5_0_9581dfa87d" y="439.869375"/>
    </g>
    <g clip-path="url(#pe94ca7fda7)">
     <use x="190.671725" xlink:href="#C5_0_9581dfa87d" y="439.866166"/>
    </g>
    <g clip-path="url(#pe94ca7fda7)">
     <use x="207.684525" xlink:href="#C5_0_9581dfa87d" y="439.862522"/>
    </g>
   </g>
   <g id="PathCollection_13">
    <defs>
     <path d="M 0 2.5 
C 0.663008 2.5 1.29895 2.236584 1.767767 1.767767 
C 2.236584 1.29895 2.5 0.663008 2.5 0 
C 2.5 -0.663008 2.236584 -1.29895 1.767767 -1.767767 
C 1.29895 -2.236584 0.663008 -2.5 0 -2.5 
C -0.663008 -2.5 -1.29895 -2.236584 -1.767767 -1.767767 
C -2.236584 -1.29895 -2.5 -0.663008 -2.5 0 
C -2.5 0.663008 -2.236584 1.29895 -1.767767 1.767767 
C -1.29895 2.236584 -0.663008 2.5 0 2.5 
z
" id="C6_0_6c7541dd03"/>
    </defs>
    <g clip-path="url(#pe94ca7fda7)">
     <use style="fill:#222222;" x="242.578125" xlink:href="#C6_0_6c7541dd03" y="440.16125"/>
    </g>
    <g clip-path="url(#pe94ca7fda7)">
     <use style="fill:#222222;" x="237.328125" xlink:href="#C6_0_6c7541dd03" y="440.16125"/>
    </g>
    <g clip-path="url(#pe94ca7fda7)">
     <use style="fill:#222222;" x="247.828125" xlink:href="#C6_0_6c7541dd03" y="440.16125"/>
    </g>
    <g clip-path="url(#pe94ca7fda7)">
     <use style="fill:#222222;" x="234.071725" xlink:href="#C6_0_6c7541dd03" y="440.16125"/>
    </g>
    <g clip-path="url(#pe94ca7fda7)">
     <use style="fill:#222222;" x="251.084525" xlink:href="#C6_0_6c7541dd03" y="440.16125"/>
    </g>
    <g clip-path="url(#pe94ca7fda7)">
     <use style="fill:#222222;" x="234.071725" xlink:href="#C6_0_6c7541dd03" y="440.16125"/>
    </g>
    <g clip-path="url(#pe94ca7fda7)">
     <use style="fill:#222222;" x="251.084525" xlink:href="#C6_0_6c7541dd03" y="440.16125"/>
    </g>
    <g clip-path="url(#pe94ca7fda7)">
     <use style="fill:#222222;" x="234.071725" xlink:href="#C6_0_6c7541dd03" y="440.16125"/>
    </g>
    <g clip-path="url(#pe94ca7fda7)">
     <use style="fill:#222222;" x="251.084525" xlink:href="#C6_0_6c7541dd03" y="440.16125"/>
    </g>
    <g clip-path="url(#pe94ca7fda7)">
     <use style="fill:#222222;" x="234.071725" xlink:href="#C6_0_6c7541dd03" y="440.16125"/>
    </g>
   </g>
   <g id="PathCollection_14">
    <defs>
     <path d="M 0 2.5 
C 0.663008 2.5 1.29895 2.236584 1.767767 1.767767 
C 2.236584 1.29895 2.5 0.663008 2.5 0 
C 2.5 -0.663008 2.236584 -1.29895 1.767767 -1.767767 
C 1.29895 -2.236584 0.663008 -2.5 0 -2.5 
C -0.663008 -2.5 -1.29895 -2.236584 -1.767767 -1.767767 
C -2.236584 -1.29895 -2.5 -0.663008 -2.5 0 
C -2.5 0.663008 -2.236584 1.29895 -1.767767 1.767767 
C -1.29895 2.236584 -0.663008 2.5 0 2.5 
z
" id="C7_0_25f82873c8"/>
    </defs>
    <g clip-path="url(#pe94ca7fda7)">
     <use style="fill:#1b1b1b;" x="259.938125" xlink:href="#C7_0_25f82873c8" y="438.845144"/>
    </g>
    <g clip-path="url(#pe94ca7fda7)">
     <use style="fill:#1b1b1b;" x="254.698515" xlink:href="#C7_0_25f82873c8" y="438.586695"/>
    </g>
    <g clip-path="url(#pe94ca7fda7)">
     <use style="fill:#1b1b1b;" x="265.153008" xlink:href="#C7_0_25f82873c8" y="438.370552"/>
    </g>
    <g clip-path="url(#pe94ca7fda7)">
     <use style="fill:#1b1b1b;" x="268.444525" xlink:href="#C7_0_25f82873c8" y="438.337084"/>
    </g>
    <g clip-path="url(#pe94ca7fda7)">
     <use style="fill:#1b1b1b;" x="251.431725" xlink:href="#C7_0_25f82873c8" y="438.138545"/>
    </g>
    <g clip-path="url(#pe94ca7fda7)">
     <use style="fill:#1b1b1b;" x="268.444525" xlink:href="#C7_0_25f82873c8" y="438.0973"/>
    </g>
    <g clip-path="url(#pe94ca7fda7)">
     <use style="fill:#1b1b1b;" x="251.431725" xlink:href="#C7_0_25f82873c8" y="437.994194"/>
    </g>
    <g clip-path="url(#pe94ca7fda7)">
     <use style="fill:#1b1b1b;" x="268.444525" xlink:href="#C7_0_25f82873c8" y="437.788935"/>
    </g>
    <g clip-path="url(#pe94ca7fda7)">
     <use style="fill:#1b1b1b;" x="251.431725" xlink:href="#C7_0_25f82873c8" y="437.564259"/>
    </g>
    <g clip-path="url(#pe94ca7fda7)">
     <use style="fill:#1b1b1b;" x="268.444525" xlink:href="#C7_0_25f82873c8" y="437.326127"/>
    </g>
   </g>
   <g id="PathCollection_15">
    <defs>
     <path d="M 0 2.5 
C 0.663008 2.5 1.29895 2.236584 1.767767 1.767767 
C 2.236584 1.29895 2.5 0.663008 2.5 0 
C 2.5 -0.663008 2.236584 -1.29895 1.767767 -1.767767 
C 1.29895 -2.236584 0.663008 -2.5 0 -2.5 
C -0.663008 -2.5 -1.29895 -2.236584 -1.767767 -1.767767 
C -2.236584 -1.29895 -2.5 -0.663008 -2.5 0 
C -2.5 0.663008 -2.236584 1.29895 -1.767767 1.767767 
C -1.29895 2.236584 -0.663008 2.5 0 2.5 
z
" id="C8_0_11f39496cc"/>
    </defs>
    <g clip-path="url(#pe94ca7fda7)">
     <use style="fill:#141414;" x="277.298125" xlink:href="#C8_0_11f39496cc" y="434.426415"/>
    </g>
    <g clip-path="url(#pe94ca7fda7)">
     <use style="fill:#141414;" x="272.050163" xlink:href="#C8_0_11f39496cc" y="434.311897"/>
    </g>
    <g clip-path="url(#pe94ca7fda7)">
     <use style="fill:#141414;" x="282.469396" xlink:href="#C8_0_11f39496cc" y="433.71729"/>
    </g>
    <g clip-path="url(#pe94ca7fda7)">
     <use style="fill:#141414;" x="285.804525" xlink:href="#C8_0_11f39496cc" y="433.641071"/>
    </g>
    <g clip-path="url(#pe94ca7fda7)">
     <use style="fill:#141414;" x="268.791725" xlink:href="#C8_0_11f39496cc" y="433.520132"/>
    </g>
    <g clip-path="url(#pe94ca7fda7)">
     <use style="fill:#141414;" x="268.791725" xlink:href="#C8_0_11f39496cc" y="433.140003"/>
    </g>
    <g clip-path="url(#pe94ca7fda7)">
     <use style="fill:#141414;" x="285.804525" xlink:href="#C8_0_11f39496cc" y="433.102082"/>
    </g>
    <g clip-path="url(#pe94ca7fda7)">
     <use style="fill:#141414;" x="268.791725" xlink:href="#C8_0_11f39496cc" y="432.269814"/>
    </g>
    <g clip-path="url(#pe94ca7fda7)">
     <use style="fill:#141414;" x="275.165226" xlink:href="#C8_0_11f39496cc" y="430.670767"/>
    </g>
    <g clip-path="url(#pe94ca7fda7)">
     <use style="fill:#141414;" x="285.804525" xlink:href="#C8_0_11f39496cc" y="430.589865"/>
    </g>
   </g>
   <g id="PathCollection_16">
    <defs>
     <path d="M 0 2.5 
C 0.663008 2.5 1.29895 2.236584 1.767767 1.767767 
C 2.236584 1.29895 2.5 0.663008 2.5 0 
C 2.5 -0.663008 2.236584 -1.29895 1.767767 -1.767767 
C 1.29895 -2.236584 0.663008 -2.5 0 -2.5 
C -0.663008 -2.5 -1.29895 -2.236584 -1.767767 -1.767767 
C -2.236584 -1.29895 -2.5 -0.663008 -2.5 0 
C -2.5 0.663008 -2.236584 1.29895 -1.767767 1.767767 
C -1.29895 2.236584 -0.663008 2.5 0 2.5 
z
" id="C9_0_56127c6115"/>
    </defs>
    <g clip-path="url(#pe94ca7fda7)">
     <use style="fill:#0e0e0e;" x="294.658125" xlink:href="#C9_0_56127c6115" y="430.792426"/>
    </g>
    <g clip-path="url(#pe94ca7fda7)">
     <use style="fill:#0e0e0e;" x="289.433093" xlink:href="#C9_0_56127c6115" y="430.392052"/>
    </g>
    <g clip-path="url(#pe94ca7fda7)">
     <use style="fill:#0e0e0e;" x="299.568534" xlink:href="#C9_0_56127c6115" y="429.338208"/>
    </g>
    <g clip-path="url(#pe94ca7fda7)">
     <use style="fill:#0e0e0e;" x="303.164525" xlink:href="#C9_0_56127c6115" y="429.309336"/>
    </g>
    <g clip-path="url(#pe94ca7fda7)">
     <use style="fill:#0e0e0e;" x="286.151725" xlink:href="#C9_0_56127c6115" y="428.96798"/>
    </g>
    <g clip-path="url(#pe94ca7fda7)">
     <use style="fill:#0e0e0e;" x="303.164525" xlink:href="#C9_0_56127c6115" y="428.861075"/>
    </g>
    <g clip-path="url(#pe94ca7fda7)">
     <use style="fill:#0e0e0e;" x="286.151725" xlink:href="#C9_0_56127c6115" y="428.16735"/>
    </g>
    <g clip-path="url(#pe94ca7fda7)">
     <use style="fill:#0e0e0e;" x="303.164525" xlink:href="#C9_0_56127c6115" y="428.132198"/>
    </g>
    <g clip-path="url(#pe94ca7fda7)">
     <use style="fill:#0e0e0e;" x="286.151725" xlink:href="#C9_0_56127c6115" y="427.386994"/>
    </g>
    <g clip-path="url(#pe94ca7fda7)">
     <use style="fill:#0e0e0e;" x="294.658125" xlink:href="#C9_0_56127c6115" y="426.006885"/>
    </g>
   </g>
   <g id="PathCollection_17">
    <defs>
     <path d="M 0 2.5 
C 0.663008 2.5 1.29895 2.236584 1.767767 1.767767 
C 2.236584 1.29895 2.5 0.663008 2.5 0 
C 2.5 -0.663008 2.236584 -1.29895 1.767767 -1.767767 
C 1.29895 -2.236584 0.663008 -2.5 0 -2.5 
C -0.663008 -2.5 -1.29895 -2.236584 -1.767767 -1.767767 
C -2.236584 -1.29895 -2.5 -0.663008 -2.5 0 
C -2.5 0.663008 -2.236584 1.29895 -1.767767 1.767767 
C -1.29895 2.236584 -0.663008 2.5 0 2.5 
z
" id="Ca_0_4b647fdfa9"/>
    </defs>
    <g clip-path="url(#pe94ca7fda7)">
     <use style="fill:#070707;" x="312.018125" xlink:href="#Ca_0_4b647fdfa9" y="414.510096"/>
    </g>
    <g clip-path="url(#pe94ca7fda7)">
     <use style="fill:#070707;" x="306.806132" xlink:href="#Ca_0_4b647fdfa9" y="414.016426"/>
    </g>
    <g clip-path="url(#pe94ca7fda7)">
     <use style="fill:#070707;" x="316.741385" xlink:href="#Ca_0_4b647fdfa9" y="412.715723"/>
    </g>
    <g clip-path="url(#pe94ca7fda7)">
     <use style="fill:#070707;" x="303.511725" xlink:href="#Ca_0_4b647fdfa9" y="412.102439"/>
    </g>
    <g clip-path="url(#pe94ca7fda7)">
     <use style="fill:#070707;" x="320.524525" xlink:href="#Ca_0_4b647fdfa9" y="411.747537"/>
    </g>
    <g clip-path="url(#pe94ca7fda7)">
     <use style="fill:#070707;" x="303.511725" xlink:href="#Ca_0_4b647fdfa9" y="411.49295"/>
    </g>
    <g clip-path="url(#pe94ca7fda7)">
     <use style="fill:#070707;" x="320.524525" xlink:href="#Ca_0_4b647fdfa9" y="411.330531"/>
    </g>
    <g clip-path="url(#pe94ca7fda7)">
     <use style="fill:#070707;" x="303.511725" xlink:href="#Ca_0_4b647fdfa9" y="411.281394"/>
    </g>
    <g clip-path="url(#pe94ca7fda7)">
     <use style="fill:#070707;" x="320.524525" xlink:href="#Ca_0_4b647fdfa9" y="411.272001"/>
    </g>
    <g clip-path="url(#pe94ca7fda7)">
     <use style="fill:#070707;" x="312.018125" xlink:href="#Ca_0_4b647fdfa9" y="410.113033"/>
    </g>
   </g>
   <g id="PathCollection_18">
    <defs>
     <path d="M 0 2.5 
C 0.663008 2.5 1.29895 2.236584 1.767767 1.767767 
C 2.236584 1.29895 2.5 0.663008 2.5 0 
C 2.5 -0.663008 2.236584 -1.29895 1.767767 -1.767767 
C 1.29895 -2.236584 0.663008 -2.5 0 -2.5 
C -0.663008 -2.5 -1.29895 -2.236584 -1.767767 -1.767767 
C -2.236584 -1.29895 -2.5 -0.663008 -2.5 0 
C -2.5 0.663008 -2.236584 1.29895 -1.767767 1.767767 
C -1.29895 2.236584 -0.663008 2.5 0 2.5 
z
" id="Cb_0_21bd0e9e33"/>
    </defs>
    <g clip-path="url(#pe94ca7fda7)">
     <use x="329.378125" xlink:href="#Cb_0_21bd0e9e33" y="406.207161"/>
    </g>
    <g clip-path="url(#pe94ca7fda7)">
     <use x="324.178077" xlink:href="#Cb_0_21bd0e9e33" y="405.641529"/>
    </g>
    <g clip-path="url(#pe94ca7fda7)">
     <use x="334.347355" xlink:href="#Cb_0_21bd0e9e33" y="404.881048"/>
    </g>
    <g clip-path="url(#pe94ca7fda7)">
     <use x="337.884525" xlink:href="#Cb_0_21bd0e9e33" y="404.64404"/>
    </g>
    <g clip-path="url(#pe94ca7fda7)">
     <use x="320.871725" xlink:href="#Cb_0_21bd0e9e33" y="403.830477"/>
    </g>
    <g clip-path="url(#pe94ca7fda7)">
     <use x="320.871725" xlink:href="#Cb_0_21bd0e9e33" y="403.823358"/>
    </g>
    <g clip-path="url(#pe94ca7fda7)">
     <use x="337.884525" xlink:href="#Cb_0_21bd0e9e33" y="403.054949"/>
    </g>
    <g clip-path="url(#pe94ca7fda7)">
     <use x="337.884525" xlink:href="#Cb_0_21bd0e9e33" y="403.054331"/>
    </g>
    <g clip-path="url(#pe94ca7fda7)">
     <use x="329.378125" xlink:href="#Cb_0_21bd0e9e33" y="402.005616"/>
    </g>
    <g clip-path="url(#pe94ca7fda7)">
     <use x="324.195218" xlink:href="#Cb_0_21bd0e9e33" y="401.350624"/>
    </g>
   </g>
   <g id="PathCollection_19">
    <defs>
     <path d="M 0 2.5 
C 0.663008 2.5 1.29895 2.236584 1.767767 1.767767 
C 2.236584 1.29895 2.5 0.663008 2.5 0 
C 2.5 -0.663008 2.236584 -1.29895 1.767767 -1.767767 
C 1.29895 -2.236584 0.663008 -2.5 0 -2.5 
C -0.663008 -2.5 -1.29895 -2.236584 -1.767767 -1.767767 
C -2.236584 -1.29895 -2.5 -0.663008 -2.5 0 
C -2.5 0.663008 -2.236584 1.29895 -1.767767 1.767767 
C -1.29895 2.236584 -0.663008 2.5 0 2.5 
z
" id="Cc_0_2d57e4d571"/>
    </defs>
    <g clip-path="url(#pe94ca7fda7)">
     <use style="fill:#222222;" x="372.778125" xlink:href="#Cc_0_2d57e4d571" y="440.16125"/>
    </g>
    <g clip-path="url(#pe94ca7fda7)">
     <use style="fill:#222222;" x="367.528125" xlink:href="#Cc_0_2d57e4d571" y="440.16125"/>
    </g>
    <g clip-path="url(#pe94ca7fda7)">
     <use style="fill:#222222;" x="378.028125" xlink:href="#Cc_0_2d57e4d571" y="440.16125"/>
    </g>
    <g clip-path="url(#pe94ca7fda7)">
     <use style="fill:#222222;" x="364.271725" xlink:href="#Cc_0_2d57e4d571" y="440.16125"/>
    </g>
    <g clip-path="url(#pe94ca7fda7)">
     <use style="fill:#222222;" x="381.284525" xlink:href="#Cc_0_2d57e4d571" y="440.16125"/>
    </g>
    <g clip-path="url(#pe94ca7fda7)">
     <use style="fill:#222222;" x="364.271725" xlink:href="#Cc_0_2d57e4d571" y="440.16125"/>
    </g>
    <g clip-path="url(#pe94ca7fda7)">
     <use style="fill:#222222;" x="381.284525" xlink:href="#Cc_0_2d57e4d571" y="440.16125"/>
    </g>
    <g clip-path="url(#pe94ca7fda7)">
     <use style="fill:#222222;" x="364.271725" xlink:href="#Cc_0_2d57e4d571" y="440.16125"/>
    </g>
    <g clip-path="url(#pe94ca7fda7)">
     <use style="fill:#222222;" x="381.284525" xlink:href="#Cc_0_2d57e4d571" y="440.16125"/>
    </g>
    <g clip-path="url(#pe94ca7fda7)">
     <use style="fill:#222222;" x="364.271725" xlink:href="#Cc_0_2d57e4d571" y="440.16125"/>
    </g>
   </g>
   <g id="PathCollection_20">
    <defs>
     <path d="M 0 2.5 
C 0.663008 2.5 1.29895 2.236584 1.767767 1.767767 
C 2.236584 1.29895 2.5 0.663008 2.5 0 
C 2.5 -0.663008 2.236584 -1.29895 1.767767 -1.767767 
C 1.29895 -2.236584 0.663008 -2.5 0 -2.5 
C -0.663008 -2.5 -1.29895 -2.236584 -1.767767 -1.767767 
C -2.236584 -1.29895 -2.5 -0.663008 -2.5 0 
C -2.5 0.663008 -2.236584 1.29895 -1.767767 1.767767 
C -1.29895 2.236584 -0.663008 2.5 0 2.5 
z
" id="Cd_0_a5772f23ec"/>
    </defs>
    <g clip-path="url(#pe94ca7fda7)">
     <use style="fill:#1b1b1b;" x="390.138125" xlink:href="#Cd_0_a5772f23ec" y="426.036971"/>
    </g>
    <g clip-path="url(#pe94ca7fda7)">
     <use style="fill:#1b1b1b;" x="385.048811" xlink:href="#Cd_0_a5772f23ec" y="425.027879"/>
    </g>
    <g clip-path="url(#pe94ca7fda7)">
     <use style="fill:#1b1b1b;" x="393.772589" xlink:href="#Cd_0_a5772f23ec" y="423.070979"/>
    </g>
    <g clip-path="url(#pe94ca7fda7)">
     <use style="fill:#1b1b1b;" x="398.644525" xlink:href="#Cd_0_a5772f23ec" y="422.371406"/>
    </g>
    <g clip-path="url(#pe94ca7fda7)">
     <use style="fill:#1b1b1b;" x="388.869811" xlink:href="#Cd_0_a5772f23ec" y="421.601064"/>
    </g>
    <g clip-path="url(#pe94ca7fda7)">
     <use style="fill:#1b1b1b;" x="384.153977" xlink:href="#Cd_0_a5772f23ec" y="419.79476"/>
    </g>
    <g clip-path="url(#pe94ca7fda7)">
     <use style="fill:#1b1b1b;" x="381.631725" xlink:href="#Cd_0_a5772f23ec" y="419.728746"/>
    </g>
    <g clip-path="url(#pe94ca7fda7)">
     <use style="fill:#1b1b1b;" x="398.644525" xlink:href="#Cd_0_a5772f23ec" y="419.536632"/>
    </g>
    <g clip-path="url(#pe94ca7fda7)">
     <use style="fill:#1b1b1b;" x="392.835077" xlink:href="#Cd_0_a5772f23ec" y="418.90732"/>
    </g>
    <g clip-path="url(#pe94ca7fda7)">
     <use style="fill:#1b1b1b;" x="381.631725" xlink:href="#Cd_0_a5772f23ec" y="418.711066"/>
    </g>
   </g>
   <g id="PathCollection_21">
    <defs>
     <path d="M 0 2.5 
C 0.663008 2.5 1.29895 2.236584 1.767767 1.767767 
C 2.236584 1.29895 2.5 0.663008 2.5 0 
C 2.5 -0.663008 2.236584 -1.29895 1.767767 -1.767767 
C 1.29895 -2.236584 0.663008 -2.5 0 -2.5 
C -0.663008 -2.5 -1.29895 -2.236584 -1.767767 -1.767767 
C -2.236584 -1.29895 -2.5 -0.663008 -2.5 0 
C -2.5 0.663008 -2.236584 1.29895 -1.767767 1.767767 
C -1.29895 2.236584 -0.663008 2.5 0 2.5 
z
" id="Ce_0_d9cb1f5df6"/>
    </defs>
    <g clip-path="url(#pe94ca7fda7)">
     <use style="fill:#141414;" x="407.498125" xlink:href="#Ce_0_d9cb1f5df6" y="382.484907"/>
    </g>
    <g clip-path="url(#pe94ca7fda7)">
     <use style="fill:#141414;" x="402.550478" xlink:href="#Ce_0_d9cb1f5df6" y="381.110223"/>
    </g>
    <g clip-path="url(#pe94ca7fda7)">
     <use style="fill:#141414;" x="412.394906" xlink:href="#Ce_0_d9cb1f5df6" y="381.002791"/>
    </g>
    <g clip-path="url(#pe94ca7fda7)">
     <use style="fill:#141414;" x="407.498125" xlink:href="#Ce_0_d9cb1f5df6" y="378.037627"/>
    </g>
    <g clip-path="url(#pe94ca7fda7)">
     <use style="fill:#141414;" x="402.573887" xlink:href="#Ce_0_d9cb1f5df6" y="376.612358"/>
    </g>
    <g clip-path="url(#pe94ca7fda7)">
     <use style="fill:#141414;" x="408.845988" xlink:href="#Ce_0_d9cb1f5df6" y="374.065265"/>
    </g>
    <g clip-path="url(#pe94ca7fda7)">
     <use style="fill:#141414;" x="414.095902" xlink:href="#Ce_0_d9cb1f5df6" y="374.041667"/>
    </g>
    <g clip-path="url(#pe94ca7fda7)">
     <use style="fill:#141414;" x="407.498125" xlink:href="#Ce_0_d9cb1f5df6" y="369.069132"/>
    </g>
    <g clip-path="url(#pe94ca7fda7)">
     <use style="fill:#141414;" x="407.498125" xlink:href="#Ce_0_d9cb1f5df6" y="361.78662"/>
    </g>
    <g clip-path="url(#pe94ca7fda7)">
     <use style="fill:#141414;" x="402.267168" xlink:href="#Ce_0_d9cb1f5df6" y="361.436865"/>
    </g>
   </g>
   <g id="PathCollection_22">
    <defs>
     <path d="M 0 2.5 
C 0.663008 2.5 1.29895 2.236584 1.767767 1.767767 
C 2.236584 1.29895 2.5 0.663008 2.5 0 
C 2.5 -0.663008 2.236584 -1.29895 1.767767 -1.767767 
C 1.29895 -2.236584 0.663008 -2.5 0 -2.5 
C -0.663008 -2.5 -1.29895 -2.236584 -1.767767 -1.767767 
C -2.236584 -1.29895 -2.5 -0.663008 -2.5 0 
C -2.5 0.663008 -2.236584 1.29895 -1.767767 1.767767 
C -1.29895 2.236584 -0.663008 2.5 0 2.5 
z
" id="Cf_0_4e288d5b71"/>
    </defs>
    <g clip-path="url(#pe94ca7fda7)">
     <use style="fill:#0e0e0e;" x="424.858125" xlink:href="#Cf_0_4e288d5b71" y="349.616061"/>
    </g>
    <g clip-path="url(#pe94ca7fda7)">
     <use style="fill:#0e0e0e;" x="424.858125" xlink:href="#Cf_0_4e288d5b71" y="339.923903"/>
    </g>
    <g clip-path="url(#pe94ca7fda7)">
     <use style="fill:#0e0e0e;" x="420.299165" xlink:href="#Cf_0_4e288d5b71" y="337.885646"/>
    </g>
    <g clip-path="url(#pe94ca7fda7)">
     <use style="fill:#0e0e0e;" x="424.858125" xlink:href="#Cf_0_4e288d5b71" y="335.772463"/>
    </g>
    <g clip-path="url(#pe94ca7fda7)">
     <use style="fill:#0e0e0e;" x="429.521135" xlink:href="#Cf_0_4e288d5b71" y="333.883976"/>
    </g>
    <g clip-path="url(#pe94ca7fda7)">
     <use style="fill:#0e0e0e;" x="421.372517" xlink:href="#Cf_0_4e288d5b71" y="332.698915"/>
    </g>
    <g clip-path="url(#pe94ca7fda7)">
     <use style="fill:#0e0e0e;" x="416.351725" xlink:href="#Cf_0_4e288d5b71" y="332.505845"/>
    </g>
    <g clip-path="url(#pe94ca7fda7)">
     <use style="fill:#0e0e0e;" x="424.858125" xlink:href="#Cf_0_4e288d5b71" y="327.890462"/>
    </g>
    <g clip-path="url(#pe94ca7fda7)">
     <use style="fill:#0e0e0e;" x="419.64342" xlink:href="#Cf_0_4e288d5b71" y="327.414671"/>
    </g>
    <g clip-path="url(#pe94ca7fda7)">
     <use style="fill:#0e0e0e;" x="424.858125" xlink:href="#Cf_0_4e288d5b71" y="318.574754"/>
    </g>
   </g>
   <g id="PathCollection_23">
    <defs>
     <path d="M 0 2.5 
C 0.663008 2.5 1.29895 2.236584 1.767767 1.767767 
C 2.236584 1.29895 2.5 0.663008 2.5 0 
C 2.5 -0.663008 2.236584 -1.29895 1.767767 -1.767767 
C 1.29895 -2.236584 0.663008 -2.5 0 -2.5 
C -0.663008 -2.5 -1.29895 -2.236584 -1.767767 -1.767767 
C -2.236584 -1.29895 -2.5 -0.663008 -2.5 0 
C -2.5 0.663008 -2.236584 1.29895 -1.767767 1.767767 
C -1.29895 2.236584 -0.663008 2.5 0 2.5 
z
" id="C10_0_6a226be50d"/>
    </defs>
    <g clip-path="url(#pe94ca7fda7)">
     <use style="fill:#070707;" x="442.218125" xlink:href="#C10_0_6a226be50d" y="224.438436"/>
    </g>
    <g clip-path="url(#pe94ca7fda7)">
     <use style="fill:#070707;" x="437.493387" xlink:href="#C10_0_6a226be50d" y="222.646448"/>
    </g>
    <g clip-path="url(#pe94ca7fda7)">
     <use style="fill:#070707;" x="442.218125" xlink:href="#C10_0_6a226be50d" y="218.771717"/>
    </g>
    <g clip-path="url(#pe94ca7fda7)">
     <use style="fill:#070707;" x="442.218125" xlink:href="#C10_0_6a226be50d" y="212.732714"/>
    </g>
    <g clip-path="url(#pe94ca7fda7)">
     <use style="fill:#070707;" x="437.153693" xlink:href="#C10_0_6a226be50d" y="211.649611"/>
    </g>
    <g clip-path="url(#pe94ca7fda7)">
     <use style="fill:#070707;" x="446.664723" xlink:href="#C10_0_6a226be50d" y="210.54761"/>
    </g>
    <g clip-path="url(#pe94ca7fda7)">
     <use style="fill:#070707;" x="450.724525" xlink:href="#C10_0_6a226be50d" y="209.58832"/>
    </g>
    <g clip-path="url(#pe94ca7fda7)">
     <use style="fill:#070707;" x="442.218125" xlink:href="#C10_0_6a226be50d" y="206.10673"/>
    </g>
    <g clip-path="url(#pe94ca7fda7)">
     <use style="fill:#070707;" x="447.468039" xlink:href="#C10_0_6a226be50d" y="206.083167"/>
    </g>
    <g clip-path="url(#pe94ca7fda7)">
     <use style="fill:#070707;" x="437.053602" xlink:href="#C10_0_6a226be50d" y="205.368078"/>
    </g>
   </g>
   <g id="PathCollection_24">
    <defs>
     <path d="M 0 2.5 
C 0.663008 2.5 1.29895 2.236584 1.767767 1.767767 
C 2.236584 1.29895 2.5 0.663008 2.5 0 
C 2.5 -0.663008 2.236584 -1.29895 1.767767 -1.767767 
C 1.29895 -2.236584 0.663008 -2.5 0 -2.5 
C -0.663008 -2.5 -1.29895 -2.236584 -1.767767 -1.767767 
C -2.236584 -1.29895 -2.5 -0.663008 -2.5 0 
C -2.5 0.663008 -2.236584 1.29895 -1.767767 1.767767 
C -1.29895 2.236584 -0.663008 2.5 0 2.5 
z
" id="C11_0_ccac768e5e"/>
    </defs>
    <g clip-path="url(#pe94ca7fda7)">
     <use x="459.578125" xlink:href="#C11_0_ccac768e5e" y="183.788126"/>
    </g>
    <g clip-path="url(#pe94ca7fda7)">
     <use x="454.469405" xlink:href="#C11_0_ccac768e5e" y="182.841039"/>
    </g>
    <g clip-path="url(#pe94ca7fda7)">
     <use x="459.578125" xlink:href="#C11_0_ccac768e5e" y="176.986534"/>
    </g>
    <g clip-path="url(#pe94ca7fda7)">
     <use x="454.331903" xlink:href="#C11_0_ccac768e5e" y="176.830644"/>
    </g>
    <g clip-path="url(#pe94ca7fda7)">
     <use x="464.075958" xlink:href="#C11_0_ccac768e5e" y="174.866675"/>
    </g>
    <g clip-path="url(#pe94ca7fda7)">
     <use x="451.071725" xlink:href="#C11_0_ccac768e5e" y="173.663214"/>
    </g>
    <g clip-path="url(#pe94ca7fda7)">
     <use x="459.578125" xlink:href="#C11_0_ccac768e5e" y="170.714107"/>
    </g>
    <g clip-path="url(#pe94ca7fda7)">
     <use x="459.578125" xlink:href="#C11_0_ccac768e5e" y="161.906901"/>
    </g>
    <g clip-path="url(#pe94ca7fda7)">
     <use x="454.358421" xlink:href="#C11_0_ccac768e5e" y="161.465988"/>
    </g>
    <g clip-path="url(#pe94ca7fda7)">
     <use x="464.10109" xlink:href="#C11_0_ccac768e5e" y="159.820072"/>
    </g>
   </g>
   <g id="text_16">
    <!-- IL-2  CONCENTRATION -->
    <g transform="translate(174.882813 21.515625)scale(0.2 -0.2)">
     <use xlink:href="#Arial-BoldMT-73"/>
     <use x="27.783203" xlink:href="#Arial-BoldMT-76"/>
     <use x="88.867188" xlink:href="#Arial-BoldMT-45"/>
     <use x="122.167969" xlink:href="#Arial-BoldMT-50"/>
     <use x="177.783203" xlink:href="#Arial-BoldMT-32"/>
     <use x="205.566406" xlink:href="#Arial-BoldMT-32"/>
     <use x="233.349609" xlink:href="#Arial-BoldMT-67"/>
     <use x="305.566406" xlink:href="#Arial-BoldMT-79"/>
     <use x="383.349609" xlink:href="#Arial-BoldMT-78"/>
     <use x="455.566406" xlink:href="#Arial-BoldMT-67"/>
     <use x="527.783203" xlink:href="#Arial-BoldMT-69"/>
     <use x="594.482422" xlink:href="#Arial-BoldMT-78"/>
     <use x="666.699219" xlink:href="#Arial-BoldMT-84"/>
     <use x="727.783203" xlink:href="#Arial-BoldMT-82"/>
     <use x="800" xlink:href="#Arial-BoldMT-65"/>
     <use x="872.107422" xlink:href="#Arial-BoldMT-84"/>
     <use x="933.191406" xlink:href="#Arial-BoldMT-73"/>
     <use x="960.974609" xlink:href="#Arial-BoldMT-79"/>
     <use x="1038.757812" xlink:href="#Arial-BoldMT-78"/>
    </g>
    <!-- OVER TIME 1, 4, 7 -->
    <defs>
     <path d="M 25.53125 0 
L -0.046875 71.578125 
L 15.625 71.578125 
L 33.734375 18.609375 
L 51.265625 71.578125 
L 66.609375 71.578125 
L 40.96875 0 
z
" id="Arial-BoldMT-86"/>
     <path d="M 7.078125 0 
L 7.078125 71.578125 
L 28.71875 71.578125 
L 41.703125 22.75 
L 54.546875 71.578125 
L 76.21875 71.578125 
L 76.21875 0 
L 62.796875 0 
L 62.796875 56.34375 
L 48.578125 0 
L 34.671875 0 
L 20.515625 56.34375 
L 20.515625 0 
z
" id="Arial-BoldMT-77"/>
     <path d="M 39.359375 0 
L 25.640625 0 
L 25.640625 51.703125 
Q 18.109375 44.671875 7.90625 41.3125 
L 7.90625 53.765625 
Q 13.28125 55.515625 19.578125 60.421875 
Q 25.875 65.328125 28.21875 71.875 
L 39.359375 71.875 
z
" id="Arial-BoldMT-49"/>
     <path d="M 6.84375 13.71875 
L 20.5625 13.71875 
L 20.5625 3.90625 
Q 20.5625 -2.046875 19.53125 -5.484375 
Q 18.5 -8.9375 15.640625 -11.671875 
Q 12.796875 -14.40625 8.40625 -15.96875 
L 5.71875 -10.296875 
Q 9.859375 -8.9375 11.609375 -6.546875 
Q 13.375 -4.15625 13.484375 0 
L 6.84375 0 
z
" id="Arial-BoldMT-44"/>
     <path d="M 31.15625 0 
L 31.15625 14.40625 
L 1.859375 14.40625 
L 1.859375 26.421875 
L 32.90625 71.875 
L 44.4375 71.875 
L 44.4375 26.46875 
L 53.328125 26.46875 
L 53.328125 14.40625 
L 44.4375 14.40625 
L 44.4375 0 
z
M 31.15625 26.46875 
L 31.15625 50.921875 
L 14.703125 26.46875 
z
" id="Arial-BoldMT-52"/>
     <path d="M 4.25 57.859375 
L 4.25 70.609375 
L 51.171875 70.609375 
L 51.171875 60.640625 
Q 45.359375 54.9375 39.34375 44.234375 
Q 33.34375 33.546875 30.1875 21.5 
Q 27.046875 9.46875 27.09375 0 
L 13.875 0 
Q 14.203125 14.84375 19.984375 30.265625 
Q 25.78125 45.703125 35.453125 57.859375 
z
" id="Arial-BoldMT-55"/>
    </defs>
    <g transform="translate(200.4 42.64125)scale(0.2 -0.2)">
     <use xlink:href="#Arial-BoldMT-79"/>
     <use x="77.783203" xlink:href="#Arial-BoldMT-86"/>
     <use x="144.482422" xlink:href="#Arial-BoldMT-69"/>
     <use x="211.181641" xlink:href="#Arial-BoldMT-82"/>
     <use x="283.398438" xlink:href="#Arial-BoldMT-32"/>
     <use x="311.181641" xlink:href="#Arial-BoldMT-84"/>
     <use x="372.265625" xlink:href="#Arial-BoldMT-73"/>
     <use x="400.048828" xlink:href="#Arial-BoldMT-77"/>
     <use x="483.349609" xlink:href="#Arial-BoldMT-69"/>
     <use x="550.048828" xlink:href="#Arial-BoldMT-32"/>
     <use x="577.832031" xlink:href="#Arial-BoldMT-49"/>
     <use x="633.447266" xlink:href="#Arial-BoldMT-44"/>
     <use x="661.230469" xlink:href="#Arial-BoldMT-32"/>
     <use x="689.013672" xlink:href="#Arial-BoldMT-52"/>
     <use x="744.628906" xlink:href="#Arial-BoldMT-44"/>
     <use x="772.412109" xlink:href="#Arial-BoldMT-32"/>
     <use x="800.195312" xlink:href="#Arial-BoldMT-55"/>
    </g>
   </g>
   <g id="legend_1">
    <g id="PathCollection_25">
     <defs>
      <path d="M 0 3.872983 
C 1.027127 3.872983 2.012324 3.464901 2.738613 2.738613 
C 3.464901 2.012324 3.872983 1.027127 3.872983 0 
C 3.872983 -1.027127 3.464901 -2.012324 2.738613 -2.738613 
C 2.012324 -3.464901 1.027127 -3.872983 0 -3.872983 
C -1.027127 -3.872983 -2.012324 -3.464901 -2.738613 -2.738613 
C -3.464901 -2.012324 -3.872983 -1.027127 -3.872983 0 
C -3.872983 1.027127 -3.464901 2.012324 -2.738613 2.738613 
C -2.012324 3.464901 -1.027127 3.872983 0 3.872983 
z
" id="mae2234068f" style="stroke:#222222;"/>
     </defs>
     <g>
      <use style="fill:#222222;stroke:#222222;" x="500.278125" xlink:href="#mae2234068f" y="73.614687"/>
     </g>
    </g>
    <g id="text_17">
     <!-- 0 -->
     <g transform="translate(518.278125 76.239687)scale(0.1 -0.1)">
      <use xlink:href="#DejaVuSans-48"/>
     </g>
    </g>
    <g id="PathCollection_26">
     <defs>
      <path d="M 0 3.872983 
C 1.027127 3.872983 2.012324 3.464901 2.738613 2.738613 
C 3.464901 2.012324 3.872983 1.027127 3.872983 0 
C 3.872983 -1.027127 3.464901 -2.012324 2.738613 -2.738613 
C 2.012324 -3.464901 1.027127 -3.872983 0 -3.872983 
C -1.027127 -3.872983 -2.012324 -3.464901 -2.738613 -2.738613 
C -3.464901 -2.012324 -3.872983 -1.027127 -3.872983 0 
C -3.872983 1.027127 -3.464901 2.012324 -2.738613 2.738613 
C -2.012324 3.464901 -1.027127 3.872983 0 3.872983 
z
" id="m723edb7d1a" style="stroke:#1b1b1b;"/>
     </defs>
     <g>
      <use style="fill:#1b1b1b;stroke:#1b1b1b;" x="500.278125" xlink:href="#m723edb7d1a" y="88.292812"/>
     </g>
    </g>
    <g id="text_18">
     <!-- 100 -->
     <g transform="translate(518.278125 90.917812)scale(0.1 -0.1)">
      <use xlink:href="#DejaVuSans-49"/>
      <use x="63.623047" xlink:href="#DejaVuSans-48"/>
      <use x="127.246094" xlink:href="#DejaVuSans-48"/>
     </g>
    </g>
    <g id="PathCollection_27">
     <defs>
      <path d="M 0 3.872983 
C 1.027127 3.872983 2.012324 3.464901 2.738613 2.738613 
C 3.464901 2.012324 3.872983 1.027127 3.872983 0 
C 3.872983 -1.027127 3.464901 -2.012324 2.738613 -2.738613 
C 2.012324 -3.464901 1.027127 -3.872983 0 -3.872983 
C -1.027127 -3.872983 -2.012324 -3.464901 -2.738613 -2.738613 
C -3.464901 -2.012324 -3.872983 -1.027127 -3.872983 0 
C -3.872983 1.027127 -3.464901 2.012324 -2.738613 2.738613 
C -2.012324 3.464901 -1.027127 3.872983 0 3.872983 
z
" id="m656dcdc30a" style="stroke:#141414;"/>
     </defs>
     <g>
      <use style="fill:#141414;stroke:#141414;" x="500.278125" xlink:href="#m656dcdc30a" y="102.970937"/>
     </g>
    </g>
    <g id="text_19">
     <!-- 500 -->
     <g transform="translate(518.278125 105.595937)scale(0.1 -0.1)">
      <use xlink:href="#DejaVuSans-53"/>
      <use x="63.623047" xlink:href="#DejaVuSans-48"/>
      <use x="127.246094" xlink:href="#DejaVuSans-48"/>
     </g>
    </g>
    <g id="PathCollection_28">
     <defs>
      <path d="M 0 3.872983 
C 1.027127 3.872983 2.012324 3.464901 2.738613 2.738613 
C 3.464901 2.012324 3.872983 1.027127 3.872983 0 
C 3.872983 -1.027127 3.464901 -2.012324 2.738613 -2.738613 
C 2.012324 -3.464901 1.027127 -3.872983 0 -3.872983 
C -1.027127 -3.872983 -2.012324 -3.464901 -2.738613 -2.738613 
C -3.464901 -2.012324 -3.872983 -1.027127 -3.872983 0 
C -3.872983 1.027127 -3.464901 2.012324 -2.738613 2.738613 
C -2.012324 3.464901 -1.027127 3.872983 0 3.872983 
z
" id="me71e248298" style="stroke:#0e0e0e;"/>
     </defs>
     <g>
      <use style="fill:#0e0e0e;stroke:#0e0e0e;" x="500.278125" xlink:href="#me71e248298" y="117.649062"/>
     </g>
    </g>
    <g id="text_20">
     <!-- 1000 -->
     <g transform="translate(518.278125 120.274062)scale(0.1 -0.1)">
      <use xlink:href="#DejaVuSans-49"/>
      <use x="63.623047" xlink:href="#DejaVuSans-48"/>
      <use x="127.246094" xlink:href="#DejaVuSans-48"/>
      <use x="190.869141" xlink:href="#DejaVuSans-48"/>
     </g>
    </g>
    <g id="PathCollection_29">
     <defs>
      <path d="M 0 3.872983 
C 1.027127 3.872983 2.012324 3.464901 2.738613 2.738613 
C 3.464901 2.012324 3.872983 1.027127 3.872983 0 
C 3.872983 -1.027127 3.464901 -2.012324 2.738613 -2.738613 
C 2.012324 -3.464901 1.027127 -3.872983 0 -3.872983 
C -1.027127 -3.872983 -2.012324 -3.464901 -2.738613 -2.738613 
C -3.464901 -2.012324 -3.872983 -1.027127 -3.872983 0 
C -3.872983 1.027127 -3.464901 2.012324 -2.738613 2.738613 
C -2.012324 3.464901 -1.027127 3.872983 0 3.872983 
z
" id="mb86ef1f143" style="stroke:#070707;"/>
     </defs>
     <g>
      <use style="fill:#070707;stroke:#070707;" x="500.278125" xlink:href="#mb86ef1f143" y="132.327187"/>
     </g>
    </g>
    <g id="text_21">
     <!-- 5000 -->
     <g transform="translate(518.278125 134.952187)scale(0.1 -0.1)">
      <use xlink:href="#DejaVuSans-53"/>
      <use x="63.623047" xlink:href="#DejaVuSans-48"/>
      <use x="127.246094" xlink:href="#DejaVuSans-48"/>
      <use x="190.869141" xlink:href="#DejaVuSans-48"/>
     </g>
    </g>
    <g id="PathCollection_30">
     <defs>
      <path d="M 0 3.872983 
C 1.027127 3.872983 2.012324 3.464901 2.738613 2.738613 
C 3.464901 2.012324 3.872983 1.027127 3.872983 0 
C 3.872983 -1.027127 3.464901 -2.012324 2.738613 -2.738613 
C 2.012324 -3.464901 1.027127 -3.872983 0 -3.872983 
C -1.027127 -3.872983 -2.012324 -3.464901 -2.738613 -2.738613 
C -3.464901 -2.012324 -3.872983 -1.027127 -3.872983 0 
C -3.872983 1.027127 -3.464901 2.012324 -2.738613 2.738613 
C -2.012324 3.464901 -1.027127 3.872983 0 3.872983 
z
" id="mf2d61f8f9c" style="stroke:#000000;"/>
     </defs>
     <g>
      <use style="stroke:#000000;" x="500.278125" xlink:href="#mf2d61f8f9c" y="147.005312"/>
     </g>
    </g>
    <g id="text_22">
     <!-- 10000 -->
     <g transform="translate(518.278125 149.630312)scale(0.1 -0.1)">
      <use xlink:href="#DejaVuSans-49"/>
      <use x="63.623047" xlink:href="#DejaVuSans-48"/>
      <use x="127.246094" xlink:href="#DejaVuSans-48"/>
      <use x="190.869141" xlink:href="#DejaVuSans-48"/>
      <use x="254.492188" xlink:href="#DejaVuSans-48"/>
     </g>
    </g>
    <g id="patch_25">
     <path d="M 490.278125 164.308437 
L 510.278125 164.308437 
L 510.278125 157.308437 
L 490.278125 157.308437 
z
"/>
    </g>
    <g id="text_23">
     <!-- 0 -->
     <g transform="translate(518.278125 164.308437)scale(0.1 -0.1)">
      <use xlink:href="#DejaVuSans-48"/>
     </g>
    </g>
    <g id="patch_26">
     <path d="M 490.278125 178.986562 
L 510.278125 178.986562 
L 510.278125 171.986562 
L 490.278125 171.986562 
z
" style="fill:#d4e1ee;"/>
    </g>
    <g id="text_24">
     <!-- 100 -->
     <g transform="translate(518.278125 178.986562)scale(0.1 -0.1)">
      <use xlink:href="#DejaVuSans-49"/>
      <use x="63.623047" xlink:href="#DejaVuSans-48"/>
      <use x="127.246094" xlink:href="#DejaVuSans-48"/>
     </g>
    </g>
    <g id="patch_27">
     <path d="M 490.278125 193.664687 
L 510.278125 193.664687 
L 510.278125 186.664687 
L 490.278125 186.664687 
z
" style="fill:#9dc2d5;"/>
    </g>
    <g id="text_25">
     <!-- 500 -->
     <g transform="translate(518.278125 193.664687)scale(0.1 -0.1)">
      <use xlink:href="#DejaVuSans-53"/>
      <use x="63.623047" xlink:href="#DejaVuSans-48"/>
      <use x="127.246094" xlink:href="#DejaVuSans-48"/>
     </g>
    </g>
    <g id="patch_28">
     <path d="M 490.278125 208.342812 
L 510.278125 208.342812 
L 510.278125 201.342812 
L 490.278125 201.342812 
z
" style="fill:#5a94b9;"/>
    </g>
    <g id="text_26">
     <!-- 1000 -->
     <g transform="translate(518.278125 208.342812)scale(0.1 -0.1)">
      <use xlink:href="#DejaVuSans-49"/>
      <use x="63.623047" xlink:href="#DejaVuSans-48"/>
      <use x="127.246094" xlink:href="#DejaVuSans-48"/>
      <use x="190.869141" xlink:href="#DejaVuSans-48"/>
     </g>
    </g>
    <g id="patch_29">
     <path d="M 490.278125 223.020937 
L 510.278125 223.020937 
L 510.278125 216.020937 
L 490.278125 216.020937 
z
" style="fill:#296399;"/>
    </g>
    <g id="text_27">
     <!-- 5000 -->
     <g transform="translate(518.278125 223.020937)scale(0.1 -0.1)">
      <use xlink:href="#DejaVuSans-53"/>
      <use x="63.623047" xlink:href="#DejaVuSans-48"/>
      <use x="127.246094" xlink:href="#DejaVuSans-48"/>
      <use x="190.869141" xlink:href="#DejaVuSans-48"/>
     </g>
    </g>
    <g id="patch_30">
     <path d="M 490.278125 237.699062 
L 510.278125 237.699062 
L 510.278125 230.699062 
L 490.278125 230.699062 
z
" style="fill:#14325f;"/>
    </g>
    <g id="text_28">
     <!-- 10000 -->
     <g transform="translate(518.278125 237.699062)scale(0.1 -0.1)">
      <use xlink:href="#DejaVuSans-49"/>
      <use x="63.623047" xlink:href="#DejaVuSans-48"/>
      <use x="127.246094" xlink:href="#DejaVuSans-48"/>
      <use x="190.869141" xlink:href="#DejaVuSans-48"/>
      <use x="254.492188" xlink:href="#DejaVuSans-48"/>
     </g>
    </g>
   </g>
  </g>
 </g>
 <defs>
  <clipPath id="pe94ca7fda7">
   <rect height="380.52" width="390.6" x="90.678125" y="59.64125"/>
  </clipPath>
 </defs>
</svg>
