<?xml version="1.0" encoding="utf-8" standalone="no"?>
<!DOCTYPE svg PUBLIC "-//W3C//DTD SVG 1.1//EN"
  "http://www.w3.org/Graphics/SVG/1.1/DTD/svg11.dtd">
<!-- Created with matplotlib (https://matplotlib.org/) -->
<svg height="516.22375pt" version="1.1" viewBox="0 0 570.84375 516.22375" width="570.84375pt" xmlns="http://www.w3.org/2000/svg" xmlns:xlink="http://www.w3.org/1999/xlink">
 <defs>
  <style type="text/css">
*{stroke-linecap:butt;stroke-linejoin:round;}
  </style>
 </defs>
 <g id="figure_1">
  <g id="patch_1">
   <path d="M 0 516.22375 
L 570.84375 516.22375 
L 570.84375 0 
L 0 0 
z
" style="fill:#ffffff;"/>
  </g>
  <g id="axes_1">
   <g id="patch_2">
    <path d="M 100.23125 440.16125 
L 490.83125 440.16125 
L 490.83125 59.64125 
L 100.23125 59.64125 
z
" style="fill:#ffffff;"/>
   </g>
   <g id="PathCollection_1"/>
   <g id="PathCollection_2"/>
   <g id="PathCollection_3"/>
   <g id="PathCollection_4"/>
   <g id="PathCollection_5"/>
   <g id="PathCollection_6"/>
   <g id="patch_3">
    <path clip-path="url(#p3aa5d88d4e)" d="M 113.25125 440.16125 
L 130.61125 440.16125 
L 130.61125 63.001764 
L 113.25125 63.001764 
z
"/>
   </g>
   <g id="patch_4">
    <path clip-path="url(#p3aa5d88d4e)" d="M 243.45125 440.16125 
L 260.81125 440.16125 
L 260.81125 78.072687 
L 243.45125 78.072687 
z
"/>
   </g>
   <g id="patch_5">
    <path clip-path="url(#p3aa5d88d4e)" d="M 373.65125 440.16125 
L 391.01125 440.16125 
L 391.01125 77.883794 
L 373.65125 77.883794 
z
"/>
   </g>
   <g id="patch_6">
    <path clip-path="url(#p3aa5d88d4e)" d="M 130.61125 440.16125 
L 147.97125 440.16125 
L 147.97125 63.002188 
L 130.61125 63.002188 
z
" style="fill:#d4e1ee;"/>
   </g>
   <g id="patch_7">
    <path clip-path="url(#p3aa5d88d4e)" d="M 260.81125 440.16125 
L 278.17125 440.16125 
L 278.17125 78.072687 
L 260.81125 78.072687 
z
" style="fill:#d4e1ee;"/>
   </g>
   <g id="patch_8">
    <path clip-path="url(#p3aa5d88d4e)" d="M 391.01125 440.16125 
L 408.37125 440.16125 
L 408.37125 77.880934 
L 391.01125 77.880934 
z
" style="fill:#d4e1ee;"/>
   </g>
   <g id="patch_9">
    <path clip-path="url(#p3aa5d88d4e)" d="M 147.97125 440.16125 
L 165.33125 440.16125 
L 165.33125 63.001393 
L 147.97125 63.001393 
z
" style="fill:#9dc2d5;"/>
   </g>
   <g id="patch_10">
    <path clip-path="url(#p3aa5d88d4e)" d="M 278.17125 440.16125 
L 295.53125 440.16125 
L 295.53125 78.072679 
L 278.17125 78.072679 
z
" style="fill:#9dc2d5;"/>
   </g>
   <g id="patch_11">
    <path clip-path="url(#p3aa5d88d4e)" d="M 408.37125 440.16125 
L 425.73125 440.16125 
L 425.73125 77.869279 
L 408.37125 77.869279 
z
" style="fill:#9dc2d5;"/>
   </g>
   <g id="patch_12">
    <path clip-path="url(#p3aa5d88d4e)" d="M 165.33125 440.16125 
L 182.69125 440.16125 
L 182.69125 63.000016 
L 165.33125 63.000016 
z
" style="fill:#5a94b9;"/>
   </g>
   <g id="patch_13">
    <path clip-path="url(#p3aa5d88d4e)" d="M 295.53125 440.16125 
L 312.89125 440.16125 
L 312.89125 78.072361 
L 295.53125 78.072361 
z
" style="fill:#5a94b9;"/>
   </g>
   <g id="patch_14">
    <path clip-path="url(#p3aa5d88d4e)" d="M 425.73125 440.16125 
L 443.09125 440.16125 
L 443.09125 77.830713 
L 425.73125 77.830713 
z
" style="fill:#5a94b9;"/>
   </g>
   <g id="patch_15">
    <path clip-path="url(#p3aa5d88d4e)" d="M 182.69125 440.16125 
L 200.05125 440.16125 
L 200.05125 62.992441 
L 182.69125 62.992441 
z
" style="fill:#296399;"/>
   </g>
   <g id="patch_16">
    <path clip-path="url(#p3aa5d88d4e)" d="M 312.89125 440.16125 
L 330.25125 440.16125 
L 330.25125 78.070551 
L 312.89125 78.070551 
z
" style="fill:#296399;"/>
   </g>
   <g id="patch_17">
    <path clip-path="url(#p3aa5d88d4e)" d="M 443.09125 440.16125 
L 460.45125 440.16125 
L 460.45125 77.775406 
L 443.09125 77.775406 
z
" style="fill:#296399;"/>
   </g>
   <g id="patch_18">
    <path clip-path="url(#p3aa5d88d4e)" d="M 200.05125 440.16125 
L 217.41125 440.16125 
L 217.41125 62.967904 
L 200.05125 62.967904 
z
" style="fill:#14325f;"/>
   </g>
   <g id="patch_19">
    <path clip-path="url(#p3aa5d88d4e)" d="M 330.25125 440.16125 
L 347.61125 440.16125 
L 347.61125 78.071222 
L 330.25125 78.071222 
z
" style="fill:#14325f;"/>
   </g>
   <g id="patch_20">
    <path clip-path="url(#p3aa5d88d4e)" d="M 460.45125 440.16125 
L 477.81125 440.16125 
L 477.81125 77.775406 
L 460.45125 77.775406 
z
" style="fill:#14325f;"/>
   </g>
   <g id="matplotlib.axis_1">
    <g id="xtick_1">
     <g id="line2d_1">
      <defs>
       <path d="M 0 0 
L 0 3.5 
" id="mc4c6a2c1ed" style="stroke:#000000;stroke-width:0.8;"/>
      </defs>
      <g>
       <use style="stroke:#000000;stroke-width:0.8;" x="165.33125" xlink:href="#mc4c6a2c1ed" y="440.16125"/>
      </g>
     </g>
     <g id="text_1">
      <!-- 1 -->
      <defs>
       <path d="M 12.40625 8.296875 
L 28.515625 8.296875 
L 28.515625 63.921875 
L 10.984375 60.40625 
L 10.984375 69.390625 
L 28.421875 72.90625 
L 38.28125 72.90625 
L 38.28125 8.296875 
L 54.390625 8.296875 
L 54.390625 0 
L 12.40625 0 
z
" id="DejaVuSans-49"/>
      </defs>
      <g transform="translate(155.7875 469.956562)scale(0.3 -0.3)">
       <use xlink:href="#DejaVuSans-49"/>
      </g>
     </g>
    </g>
    <g id="xtick_2">
     <g id="line2d_2">
      <g>
       <use style="stroke:#000000;stroke-width:0.8;" x="295.53125" xlink:href="#mc4c6a2c1ed" y="440.16125"/>
      </g>
     </g>
     <g id="text_2">
      <!-- 4 -->
      <defs>
       <path d="M 37.796875 64.3125 
L 12.890625 25.390625 
L 37.796875 25.390625 
z
M 35.203125 72.90625 
L 47.609375 72.90625 
L 47.609375 25.390625 
L 58.015625 25.390625 
L 58.015625 17.1875 
L 47.609375 17.1875 
L 47.609375 0 
L 37.796875 0 
L 37.796875 17.1875 
L 4.890625 17.1875 
L 4.890625 26.703125 
z
" id="DejaVuSans-52"/>
      </defs>
      <g transform="translate(285.9875 469.956562)scale(0.3 -0.3)">
       <use xlink:href="#DejaVuSans-52"/>
      </g>
     </g>
    </g>
    <g id="xtick_3">
     <g id="line2d_3">
      <g>
       <use style="stroke:#000000;stroke-width:0.8;" x="425.73125" xlink:href="#mc4c6a2c1ed" y="440.16125"/>
      </g>
     </g>
     <g id="text_3">
      <!-- 7 -->
      <defs>
       <path d="M 8.203125 72.90625 
L 55.078125 72.90625 
L 55.078125 68.703125 
L 28.609375 0 
L 18.3125 0 
L 43.21875 64.59375 
L 8.203125 64.59375 
z
" id="DejaVuSans-55"/>
      </defs>
      <g transform="translate(416.1875 469.956562)scale(0.3 -0.3)">
       <use xlink:href="#DejaVuSans-55"/>
      </g>
     </g>
    </g>
    <g id="text_4">
     <!-- ANTIGENS CANCER -->
     <defs>
      <path d="M 71.828125 0 
L 56.109375 0 
L 49.859375 16.265625 
L 21.234375 16.265625 
L 15.328125 0 
L 0 0 
L 27.875 71.578125 
L 43.171875 71.578125 
z
M 45.21875 28.328125 
L 35.359375 54.890625 
L 25.6875 28.328125 
z
" id="Arial-BoldMT-65"/>
      <path d="M 7.421875 0 
L 7.421875 71.578125 
L 21.484375 71.578125 
L 50.78125 23.78125 
L 50.78125 71.578125 
L 64.203125 71.578125 
L 64.203125 0 
L 49.703125 0 
L 20.84375 46.6875 
L 20.84375 0 
z
" id="Arial-BoldMT-78"/>
      <path d="M 23.390625 0 
L 23.390625 59.46875 
L 2.15625 59.46875 
L 2.15625 71.578125 
L 59.03125 71.578125 
L 59.03125 59.46875 
L 37.84375 59.46875 
L 37.84375 0 
z
" id="Arial-BoldMT-84"/>
      <path d="M 6.84375 0 
L 6.84375 71.578125 
L 21.296875 71.578125 
L 21.296875 0 
z
" id="Arial-BoldMT-73"/>
      <path d="M 40.578125 26.3125 
L 40.578125 38.375 
L 71.734375 38.375 
L 71.734375 9.859375 
Q 67.1875 5.46875 58.5625 2.125 
Q 49.953125 -1.21875 41.109375 -1.21875 
Q 29.890625 -1.21875 21.53125 3.484375 
Q 13.1875 8.203125 8.984375 16.96875 
Q 4.78125 25.734375 4.78125 36.03125 
Q 4.78125 47.21875 9.46875 55.90625 
Q 14.15625 64.59375 23.1875 69.234375 
Q 30.078125 72.796875 40.328125 72.796875 
Q 53.65625 72.796875 61.15625 67.203125 
Q 68.65625 61.625 70.796875 51.765625 
L 56.453125 49.078125 
Q 54.9375 54.34375 50.75 57.390625 
Q 46.578125 60.453125 40.328125 60.453125 
Q 30.859375 60.453125 25.265625 54.4375 
Q 19.671875 48.4375 19.671875 36.625 
Q 19.671875 23.875 25.328125 17.5 
Q 31 11.140625 40.1875 11.140625 
Q 44.734375 11.140625 49.296875 12.921875 
Q 53.859375 14.703125 57.125 17.234375 
L 57.125 26.3125 
z
" id="Arial-BoldMT-71"/>
      <path d="M 7.28125 0 
L 7.28125 71.578125 
L 60.359375 71.578125 
L 60.359375 59.46875 
L 21.734375 59.46875 
L 21.734375 43.609375 
L 57.671875 43.609375 
L 57.671875 31.546875 
L 21.734375 31.546875 
L 21.734375 12.0625 
L 61.71875 12.0625 
L 61.71875 0 
z
" id="Arial-BoldMT-69"/>
      <path d="M 3.609375 23.296875 
L 17.671875 24.65625 
Q 18.953125 17.578125 22.828125 14.25 
Q 26.703125 10.9375 33.296875 10.9375 
Q 40.28125 10.9375 43.8125 13.890625 
Q 47.359375 16.84375 47.359375 20.796875 
Q 47.359375 23.34375 45.875 25.125 
Q 44.390625 26.90625 40.671875 28.21875 
Q 38.140625 29.109375 29.109375 31.34375 
Q 17.484375 34.234375 12.796875 38.421875 
Q 6.203125 44.34375 6.203125 52.828125 
Q 6.203125 58.296875 9.296875 63.0625 
Q 12.40625 67.828125 18.234375 70.3125 
Q 24.078125 72.796875 32.328125 72.796875 
Q 45.796875 72.796875 52.609375 66.890625 
Q 59.421875 60.984375 59.765625 51.125 
L 45.3125 50.484375 
Q 44.390625 56 41.328125 58.421875 
Q 38.28125 60.84375 32.171875 60.84375 
Q 25.875 60.84375 22.3125 58.25 
Q 20.015625 56.59375 20.015625 53.8125 
Q 20.015625 51.265625 22.171875 49.46875 
Q 24.90625 47.171875 35.453125 44.671875 
Q 46 42.1875 51.046875 39.515625 
Q 56.109375 36.859375 58.953125 32.25 
Q 61.8125 27.640625 61.8125 20.84375 
Q 61.8125 14.703125 58.390625 9.328125 
Q 54.984375 3.953125 48.734375 1.34375 
Q 42.484375 -1.265625 33.15625 -1.265625 
Q 19.578125 -1.265625 12.296875 5 
Q 5.03125 11.28125 3.609375 23.296875 
z
" id="Arial-BoldMT-83"/>
      <path id="Arial-BoldMT-32"/>
      <path d="M 53.078125 26.3125 
L 67.09375 21.875 
Q 63.875 10.15625 56.375 4.46875 
Q 48.875 -1.21875 37.359375 -1.21875 
Q 23.09375 -1.21875 13.90625 8.515625 
Q 4.734375 18.265625 4.734375 35.15625 
Q 4.734375 53.03125 13.953125 62.90625 
Q 23.1875 72.796875 38.234375 72.796875 
Q 51.375 72.796875 59.578125 65.046875 
Q 64.453125 60.453125 66.890625 51.859375 
L 52.59375 48.4375 
Q 51.3125 54 47.28125 57.21875 
Q 43.265625 60.453125 37.5 60.453125 
Q 29.546875 60.453125 24.578125 54.734375 
Q 19.625 49.03125 19.625 36.234375 
Q 19.625 22.65625 24.5 16.890625 
Q 29.390625 11.140625 37.203125 11.140625 
Q 42.96875 11.140625 47.109375 14.796875 
Q 51.265625 18.453125 53.078125 26.3125 
z
" id="Arial-BoldMT-67"/>
      <path d="M 7.328125 0 
L 7.328125 71.578125 
L 37.75 71.578125 
Q 49.21875 71.578125 54.421875 69.640625 
Q 59.625 67.71875 62.75 62.78125 
Q 65.875 57.859375 65.875 51.515625 
Q 65.875 43.453125 61.125 38.203125 
Q 56.390625 32.953125 46.96875 31.59375 
Q 51.65625 28.859375 54.703125 25.578125 
Q 57.765625 22.3125 62.9375 13.96875 
L 71.6875 0 
L 54.390625 0 
L 43.953125 15.578125 
Q 38.375 23.921875 36.328125 26.09375 
Q 34.28125 28.265625 31.984375 29.078125 
Q 29.6875 29.890625 24.703125 29.890625 
L 21.78125 29.890625 
L 21.78125 0 
z
M 21.78125 41.3125 
L 32.46875 41.3125 
Q 42.875 41.3125 45.453125 42.1875 
Q 48.046875 43.0625 49.515625 45.203125 
Q 50.984375 47.359375 50.984375 50.59375 
Q 50.984375 54.203125 49.046875 56.421875 
Q 47.125 58.640625 43.609375 59.234375 
Q 41.84375 59.46875 33.0625 59.46875 
L 21.78125 59.46875 
z
" id="Arial-BoldMT-82"/>
     </defs>
     <g transform="translate(173.996094 504.090156)scale(0.25 -0.25)">
      <use xlink:href="#Arial-BoldMT-65"/>
      <use x="72.216797" xlink:href="#Arial-BoldMT-78"/>
      <use x="144.433594" xlink:href="#Arial-BoldMT-84"/>
      <use x="205.517578" xlink:href="#Arial-BoldMT-73"/>
      <use x="233.300781" xlink:href="#Arial-BoldMT-71"/>
      <use x="311.083984" xlink:href="#Arial-BoldMT-69"/>
      <use x="377.783203" xlink:href="#Arial-BoldMT-78"/>
      <use x="450" xlink:href="#Arial-BoldMT-83"/>
      <use x="516.699219" xlink:href="#Arial-BoldMT-32"/>
      <use x="544.482422" xlink:href="#Arial-BoldMT-67"/>
      <use x="616.699219" xlink:href="#Arial-BoldMT-65"/>
      <use x="688.916016" xlink:href="#Arial-BoldMT-78"/>
      <use x="761.132812" xlink:href="#Arial-BoldMT-67"/>
      <use x="833.349609" xlink:href="#Arial-BoldMT-69"/>
      <use x="900.048828" xlink:href="#Arial-BoldMT-82"/>
     </g>
    </g>
   </g>
   <g id="matplotlib.axis_2">
    <g id="ytick_1">
     <g id="line2d_4">
      <defs>
       <path d="M 0 0 
L -3.5 0 
" id="m336ec113cb" style="stroke:#000000;stroke-width:0.8;"/>
      </defs>
      <g>
       <use style="stroke:#000000;stroke-width:0.8;" x="100.23125" xlink:href="#m336ec113cb" y="440.16125"/>
      </g>
     </g>
     <g id="text_5">
      <!-- 0 -->
      <defs>
       <path d="M 31.78125 66.40625 
Q 24.171875 66.40625 20.328125 58.90625 
Q 16.5 51.421875 16.5 36.375 
Q 16.5 21.390625 20.328125 13.890625 
Q 24.171875 6.390625 31.78125 6.390625 
Q 39.453125 6.390625 43.28125 13.890625 
Q 47.125 21.390625 47.125 36.375 
Q 47.125 51.421875 43.28125 58.90625 
Q 39.453125 66.40625 31.78125 66.40625 
z
M 31.78125 74.21875 
Q 44.046875 74.21875 50.515625 64.515625 
Q 56.984375 54.828125 56.984375 36.375 
Q 56.984375 17.96875 50.515625 8.265625 
Q 44.046875 -1.421875 31.78125 -1.421875 
Q 19.53125 -1.421875 13.0625 8.265625 
Q 6.59375 17.96875 6.59375 36.375 
Q 6.59375 54.828125 13.0625 64.515625 
Q 19.53125 74.21875 31.78125 74.21875 
z
" id="DejaVuSans-48"/>
      </defs>
      <g transform="translate(74.14375 451.558906)scale(0.3 -0.3)">
       <use xlink:href="#DejaVuSans-48"/>
      </g>
     </g>
    </g>
    <g id="ytick_2">
     <g id="line2d_5">
      <g>
       <use style="stroke:#000000;stroke-width:0.8;" x="100.23125" xlink:href="#m336ec113cb" y="392.59625"/>
      </g>
     </g>
     <g id="text_6">
      <!-- 20 -->
      <defs>
       <path d="M 19.1875 8.296875 
L 53.609375 8.296875 
L 53.609375 0 
L 7.328125 0 
L 7.328125 8.296875 
Q 12.9375 14.109375 22.625 23.890625 
Q 32.328125 33.6875 34.8125 36.53125 
Q 39.546875 41.84375 41.421875 45.53125 
Q 43.3125 49.21875 43.3125 52.78125 
Q 43.3125 58.59375 39.234375 62.25 
Q 35.15625 65.921875 28.609375 65.921875 
Q 23.96875 65.921875 18.8125 64.3125 
Q 13.671875 62.703125 7.8125 59.421875 
L 7.8125 69.390625 
Q 13.765625 71.78125 18.9375 73 
Q 24.125 74.21875 28.421875 74.21875 
Q 39.75 74.21875 46.484375 68.546875 
Q 53.21875 62.890625 53.21875 53.421875 
Q 53.21875 48.921875 51.53125 44.890625 
Q 49.859375 40.875 45.40625 35.40625 
Q 44.1875 33.984375 37.640625 27.21875 
Q 31.109375 20.453125 19.1875 8.296875 
z
" id="DejaVuSans-50"/>
      </defs>
      <g transform="translate(55.05625 403.993906)scale(0.3 -0.3)">
       <use xlink:href="#DejaVuSans-50"/>
       <use x="63.623047" xlink:href="#DejaVuSans-48"/>
      </g>
     </g>
    </g>
    <g id="ytick_3">
     <g id="line2d_6">
      <g>
       <use style="stroke:#000000;stroke-width:0.8;" x="100.23125" xlink:href="#m336ec113cb" y="345.03125"/>
      </g>
     </g>
     <g id="text_7">
      <!-- 40 -->
      <g transform="translate(55.05625 356.428906)scale(0.3 -0.3)">
       <use xlink:href="#DejaVuSans-52"/>
       <use x="63.623047" xlink:href="#DejaVuSans-48"/>
      </g>
     </g>
    </g>
    <g id="ytick_4">
     <g id="line2d_7">
      <g>
       <use style="stroke:#000000;stroke-width:0.8;" x="100.23125" xlink:href="#m336ec113cb" y="297.46625"/>
      </g>
     </g>
     <g id="text_8">
      <!-- 60 -->
      <defs>
       <path d="M 33.015625 40.375 
Q 26.375 40.375 22.484375 35.828125 
Q 18.609375 31.296875 18.609375 23.390625 
Q 18.609375 15.53125 22.484375 10.953125 
Q 26.375 6.390625 33.015625 6.390625 
Q 39.65625 6.390625 43.53125 10.953125 
Q 47.40625 15.53125 47.40625 23.390625 
Q 47.40625 31.296875 43.53125 35.828125 
Q 39.65625 40.375 33.015625 40.375 
z
M 52.59375 71.296875 
L 52.59375 62.3125 
Q 48.875 64.0625 45.09375 64.984375 
Q 41.3125 65.921875 37.59375 65.921875 
Q 27.828125 65.921875 22.671875 59.328125 
Q 17.53125 52.734375 16.796875 39.40625 
Q 19.671875 43.65625 24.015625 45.921875 
Q 28.375 48.1875 33.59375 48.1875 
Q 44.578125 48.1875 50.953125 41.515625 
Q 57.328125 34.859375 57.328125 23.390625 
Q 57.328125 12.15625 50.6875 5.359375 
Q 44.046875 -1.421875 33.015625 -1.421875 
Q 20.359375 -1.421875 13.671875 8.265625 
Q 6.984375 17.96875 6.984375 36.375 
Q 6.984375 53.65625 15.1875 63.9375 
Q 23.390625 74.21875 37.203125 74.21875 
Q 40.921875 74.21875 44.703125 73.484375 
Q 48.484375 72.75 52.59375 71.296875 
z
" id="DejaVuSans-54"/>
      </defs>
      <g transform="translate(55.05625 308.863906)scale(0.3 -0.3)">
       <use xlink:href="#DejaVuSans-54"/>
       <use x="63.623047" xlink:href="#DejaVuSans-48"/>
      </g>
     </g>
    </g>
    <g id="ytick_5">
     <g id="line2d_8">
      <g>
       <use style="stroke:#000000;stroke-width:0.8;" x="100.23125" xlink:href="#m336ec113cb" y="249.90125"/>
      </g>
     </g>
     <g id="text_9">
      <!-- 80 -->
      <defs>
       <path d="M 31.78125 34.625 
Q 24.75 34.625 20.71875 30.859375 
Q 16.703125 27.09375 16.703125 20.515625 
Q 16.703125 13.921875 20.71875 10.15625 
Q 24.75 6.390625 31.78125 6.390625 
Q 38.8125 6.390625 42.859375 10.171875 
Q 46.921875 13.96875 46.921875 20.515625 
Q 46.921875 27.09375 42.890625 30.859375 
Q 38.875 34.625 31.78125 34.625 
z
M 21.921875 38.8125 
Q 15.578125 40.375 12.03125 44.71875 
Q 8.5 49.078125 8.5 55.328125 
Q 8.5 64.0625 14.71875 69.140625 
Q 20.953125 74.21875 31.78125 74.21875 
Q 42.671875 74.21875 48.875 69.140625 
Q 55.078125 64.0625 55.078125 55.328125 
Q 55.078125 49.078125 51.53125 44.71875 
Q 48 40.375 41.703125 38.8125 
Q 48.828125 37.15625 52.796875 32.3125 
Q 56.78125 27.484375 56.78125 20.515625 
Q 56.78125 9.90625 50.3125 4.234375 
Q 43.84375 -1.421875 31.78125 -1.421875 
Q 19.734375 -1.421875 13.25 4.234375 
Q 6.78125 9.90625 6.78125 20.515625 
Q 6.78125 27.484375 10.78125 32.3125 
Q 14.796875 37.15625 21.921875 38.8125 
z
M 18.3125 54.390625 
Q 18.3125 48.734375 21.84375 45.5625 
Q 25.390625 42.390625 31.78125 42.390625 
Q 38.140625 42.390625 41.71875 45.5625 
Q 45.3125 48.734375 45.3125 54.390625 
Q 45.3125 60.0625 41.71875 63.234375 
Q 38.140625 66.40625 31.78125 66.40625 
Q 25.390625 66.40625 21.84375 63.234375 
Q 18.3125 60.0625 18.3125 54.390625 
z
" id="DejaVuSans-56"/>
      </defs>
      <g transform="translate(55.05625 261.298906)scale(0.3 -0.3)">
       <use xlink:href="#DejaVuSans-56"/>
       <use x="63.623047" xlink:href="#DejaVuSans-48"/>
      </g>
     </g>
    </g>
    <g id="ytick_6">
     <g id="line2d_9">
      <g>
       <use style="stroke:#000000;stroke-width:0.8;" x="100.23125" xlink:href="#m336ec113cb" y="202.33625"/>
      </g>
     </g>
     <g id="text_10">
      <!-- 100 -->
      <g transform="translate(35.96875 213.733906)scale(0.3 -0.3)">
       <use xlink:href="#DejaVuSans-49"/>
       <use x="63.623047" xlink:href="#DejaVuSans-48"/>
       <use x="127.246094" xlink:href="#DejaVuSans-48"/>
      </g>
     </g>
    </g>
    <g id="ytick_7">
     <g id="line2d_10">
      <g>
       <use style="stroke:#000000;stroke-width:0.8;" x="100.23125" xlink:href="#m336ec113cb" y="154.77125"/>
      </g>
     </g>
     <g id="text_11">
      <!-- 120 -->
      <g transform="translate(35.96875 166.168906)scale(0.3 -0.3)">
       <use xlink:href="#DejaVuSans-49"/>
       <use x="63.623047" xlink:href="#DejaVuSans-50"/>
       <use x="127.246094" xlink:href="#DejaVuSans-48"/>
      </g>
     </g>
    </g>
    <g id="ytick_8">
     <g id="line2d_11">
      <g>
       <use style="stroke:#000000;stroke-width:0.8;" x="100.23125" xlink:href="#m336ec113cb" y="107.20625"/>
      </g>
     </g>
     <g id="text_12">
      <!-- 140 -->
      <g transform="translate(35.96875 118.603906)scale(0.3 -0.3)">
       <use xlink:href="#DejaVuSans-49"/>
       <use x="63.623047" xlink:href="#DejaVuSans-52"/>
       <use x="127.246094" xlink:href="#DejaVuSans-48"/>
      </g>
     </g>
    </g>
    <g id="ytick_9">
     <g id="line2d_12">
      <g>
       <use style="stroke:#000000;stroke-width:0.8;" x="100.23125" xlink:href="#m336ec113cb" y="59.64125"/>
      </g>
     </g>
     <g id="text_13">
      <!-- 160 -->
      <g transform="translate(35.96875 71.038906)scale(0.3 -0.3)">
       <use xlink:href="#DejaVuSans-49"/>
       <use x="63.623047" xlink:href="#DejaVuSans-54"/>
       <use x="127.246094" xlink:href="#DejaVuSans-48"/>
      </g>
     </g>
    </g>
    <g id="text_14">
     <!-- TGFA CONC (pg/ml) -->
     <defs>
      <path d="M 7.375 0 
L 7.375 71.578125 
L 56.453125 71.578125 
L 56.453125 59.46875 
L 21.828125 59.46875 
L 21.828125 42.53125 
L 51.703125 42.53125 
L 51.703125 30.421875 
L 21.828125 30.421875 
L 21.828125 0 
z
" id="Arial-BoldMT-70"/>
      <path d="M 4.34375 35.359375 
Q 4.34375 46.296875 7.625 53.71875 
Q 10.0625 59.1875 14.28125 63.53125 
Q 18.5 67.875 23.53125 69.96875 
Q 30.21875 72.796875 38.96875 72.796875 
Q 54.78125 72.796875 64.28125 62.984375 
Q 73.78125 53.171875 73.78125 35.6875 
Q 73.78125 18.359375 64.359375 8.5625 
Q 54.9375 -1.21875 39.15625 -1.21875 
Q 23.1875 -1.21875 13.765625 8.515625 
Q 4.34375 18.265625 4.34375 35.359375 
z
M 19.234375 35.84375 
Q 19.234375 23.6875 24.84375 17.40625 
Q 30.46875 11.140625 39.109375 11.140625 
Q 47.75 11.140625 53.296875 17.359375 
Q 58.84375 23.578125 58.84375 36.03125 
Q 58.84375 48.34375 53.4375 54.390625 
Q 48.046875 60.453125 39.109375 60.453125 
Q 30.171875 60.453125 24.703125 54.3125 
Q 19.234375 48.1875 19.234375 35.84375 
z
" id="Arial-BoldMT-79"/>
      <path d="M 29.9375 -21.046875 
L 20.515625 -21.046875 
Q 13.03125 -9.765625 9.125 2.390625 
Q 5.21875 14.546875 5.21875 25.921875 
Q 5.21875 40.046875 10.0625 52.640625 
Q 14.265625 63.578125 20.703125 72.796875 
L 30.078125 72.796875 
Q 23.390625 58.015625 20.875 47.625 
Q 18.359375 37.25 18.359375 25.640625 
Q 18.359375 17.625 19.84375 9.21875 
Q 21.34375 0.828125 23.921875 -6.734375 
Q 25.640625 -11.71875 29.9375 -21.046875 
z
" id="Arial-BoldMT-40"/>
      <path d="M 6.78125 51.859375 
L 19.578125 51.859375 
L 19.578125 44.234375 
Q 22.078125 48.140625 26.3125 50.578125 
Q 30.5625 53.03125 35.75 53.03125 
Q 44.78125 53.03125 51.078125 45.953125 
Q 57.375 38.875 57.375 26.21875 
Q 57.375 13.234375 51.015625 6.03125 
Q 44.671875 -1.171875 35.640625 -1.171875 
Q 31.34375 -1.171875 27.84375 0.53125 
Q 24.359375 2.25 20.515625 6.390625 
L 20.515625 -19.734375 
L 6.78125 -19.734375 
z
M 20.359375 26.8125 
Q 20.359375 18.0625 23.828125 13.890625 
Q 27.296875 9.71875 32.28125 9.71875 
Q 37.0625 9.71875 40.234375 13.546875 
Q 43.40625 17.390625 43.40625 26.125 
Q 43.40625 34.28125 40.125 38.234375 
Q 36.859375 42.1875 32.03125 42.1875 
Q 27 42.1875 23.671875 38.296875 
Q 20.359375 34.421875 20.359375 26.8125 
z
" id="Arial-BoldMT-112"/>
      <path d="M 5.90625 -3.421875 
L 21.578125 -5.328125 
Q 21.96875 -8.0625 23.390625 -9.078125 
Q 25.34375 -10.546875 29.546875 -10.546875 
Q 34.90625 -10.546875 37.59375 -8.9375 
Q 39.40625 -7.859375 40.328125 -5.46875 
Q 40.96875 -3.765625 40.96875 0.828125 
L 40.96875 8.40625 
Q 34.8125 0 25.4375 0 
Q 14.984375 0 8.890625 8.84375 
Q 4.109375 15.828125 4.109375 26.21875 
Q 4.109375 39.265625 10.375 46.140625 
Q 16.65625 53.03125 25.984375 53.03125 
Q 35.59375 53.03125 41.84375 44.578125 
L 41.84375 51.859375 
L 54.6875 51.859375 
L 54.6875 5.328125 
Q 54.6875 -3.859375 53.171875 -8.390625 
Q 51.65625 -12.9375 48.921875 -15.515625 
Q 46.1875 -18.109375 41.625 -19.578125 
Q 37.0625 -21.046875 30.078125 -21.046875 
Q 16.890625 -21.046875 11.375 -16.53125 
Q 5.859375 -12.015625 5.859375 -5.078125 
Q 5.859375 -4.390625 5.90625 -3.421875 
z
M 18.171875 27 
Q 18.171875 18.75 21.359375 14.90625 
Q 24.5625 11.078125 29.25 11.078125 
Q 34.28125 11.078125 37.75 15.015625 
Q 41.21875 18.953125 41.21875 26.65625 
Q 41.21875 34.71875 37.890625 38.625 
Q 34.578125 42.53125 29.5 42.53125 
Q 24.5625 42.53125 21.359375 38.6875 
Q 18.171875 34.859375 18.171875 27 
z
" id="Arial-BoldMT-103"/>
      <path d="M -0.140625 -1.21875 
L 17.578125 72.796875 
L 27.875 72.796875 
L 9.96875 -1.21875 
z
" id="Arial-BoldMT-47"/>
      <path d="M 6.15625 51.859375 
L 18.796875 51.859375 
L 18.796875 44.78125 
Q 25.59375 53.03125 34.96875 53.03125 
Q 39.9375 53.03125 43.59375 50.96875 
Q 47.265625 48.921875 49.609375 44.78125 
Q 53.03125 48.921875 56.984375 50.96875 
Q 60.9375 53.03125 65.4375 53.03125 
Q 71.140625 53.03125 75.09375 50.703125 
Q 79.046875 48.390625 81 43.890625 
Q 82.421875 40.578125 82.421875 33.15625 
L 82.421875 0 
L 68.703125 0 
L 68.703125 29.640625 
Q 68.703125 37.359375 67.28125 39.59375 
Q 65.375 42.53125 61.421875 42.53125 
Q 58.546875 42.53125 56 40.765625 
Q 53.46875 39.015625 52.34375 35.625 
Q 51.21875 32.234375 51.21875 24.90625 
L 51.21875 0 
L 37.5 0 
L 37.5 28.421875 
Q 37.5 35.984375 36.765625 38.171875 
Q 36.03125 40.375 34.484375 41.453125 
Q 32.953125 42.53125 30.328125 42.53125 
Q 27.15625 42.53125 24.609375 40.8125 
Q 22.078125 39.109375 20.96875 35.890625 
Q 19.875 32.671875 19.875 25.203125 
L 19.875 0 
L 6.15625 0 
z
" id="Arial-BoldMT-109"/>
      <path d="M 7.171875 0 
L 7.171875 71.578125 
L 20.90625 71.578125 
L 20.90625 0 
z
" id="Arial-BoldMT-108"/>
      <path d="M 3.375 -21.046875 
Q 7.421875 -12.359375 9.078125 -7.71875 
Q 10.75 -3.078125 12.15625 2.96875 
Q 13.578125 9.03125 14.25 14.46875 
Q 14.9375 19.921875 14.9375 25.640625 
Q 14.9375 37.25 12.453125 47.625 
Q 9.96875 58.015625 3.265625 72.796875 
L 12.59375 72.796875 
Q 19.96875 62.3125 24.046875 50.53125 
Q 28.125 38.765625 28.125 26.65625 
Q 28.125 16.453125 24.90625 4.78125 
Q 21.234375 -8.296875 12.84375 -21.046875 
z
" id="Arial-BoldMT-41"/>
     </defs>
     <g transform="translate(21.759375 345.427812)rotate(-90)scale(0.2 -0.2)">
      <use xlink:href="#Arial-BoldMT-84"/>
      <use x="61.083984" xlink:href="#Arial-BoldMT-71"/>
      <use x="138.867188" xlink:href="#Arial-BoldMT-70"/>
      <use x="199.873047" xlink:href="#Arial-BoldMT-65"/>
      <use x="272.042969" xlink:href="#Arial-BoldMT-32"/>
      <use x="299.826172" xlink:href="#Arial-BoldMT-67"/>
      <use x="372.042969" xlink:href="#Arial-BoldMT-79"/>
      <use x="449.826172" xlink:href="#Arial-BoldMT-78"/>
      <use x="522.042969" xlink:href="#Arial-BoldMT-67"/>
      <use x="594.259766" xlink:href="#Arial-BoldMT-32"/>
      <use x="622.042969" xlink:href="#Arial-BoldMT-40"/>
      <use x="655.34375" xlink:href="#Arial-BoldMT-112"/>
      <use x="716.427734" xlink:href="#Arial-BoldMT-103"/>
      <use x="777.511719" xlink:href="#Arial-BoldMT-47"/>
      <use x="805.294922" xlink:href="#Arial-BoldMT-109"/>
      <use x="894.210938" xlink:href="#Arial-BoldMT-108"/>
      <use x="921.994141" xlink:href="#Arial-BoldMT-41"/>
     </g>
    </g>
   </g>
   <g id="line2d_13">
    <path clip-path="url(#p3aa5d88d4e)" d="M 121.93125 63.010699 
L 121.93125 62.99283 
" style="fill:none;stroke:#424242;stroke-linecap:square;stroke-width:2.7;"/>
   </g>
   <g id="line2d_14">
    <path clip-path="url(#p3aa5d88d4e)" d="M 115.42125 63.010699 
L 128.44125 63.010699 
" style="fill:none;stroke:#424242;stroke-linecap:square;stroke-width:2.7;"/>
   </g>
   <g id="line2d_15">
    <path clip-path="url(#p3aa5d88d4e)" d="M 115.42125 62.99283 
L 128.44125 62.99283 
" style="fill:none;stroke:#424242;stroke-linecap:square;stroke-width:2.7;"/>
   </g>
   <g id="line2d_16">
    <path clip-path="url(#p3aa5d88d4e)" d="M 252.13125 78.072687 
L 252.13125 78.072687 
" style="fill:none;stroke:#424242;stroke-linecap:square;stroke-width:2.7;"/>
   </g>
   <g id="line2d_17">
    <path clip-path="url(#p3aa5d88d4e)" d="M 245.62125 78.072687 
L 258.64125 78.072687 
" style="fill:none;stroke:#424242;stroke-linecap:square;stroke-width:2.7;"/>
   </g>
   <g id="line2d_18">
    <path clip-path="url(#p3aa5d88d4e)" d="M 245.62125 78.072687 
L 258.64125 78.072687 
" style="fill:none;stroke:#424242;stroke-linecap:square;stroke-width:2.7;"/>
   </g>
   <g id="line2d_19">
    <path clip-path="url(#p3aa5d88d4e)" d="M 382.33125 77.889516 
L 382.33125 77.878073 
" style="fill:none;stroke:#424242;stroke-linecap:square;stroke-width:2.7;"/>
   </g>
   <g id="line2d_20">
    <path clip-path="url(#p3aa5d88d4e)" d="M 375.82125 77.889516 
L 388.84125 77.889516 
" style="fill:none;stroke:#424242;stroke-linecap:square;stroke-width:2.7;"/>
   </g>
   <g id="line2d_21">
    <path clip-path="url(#p3aa5d88d4e)" d="M 375.82125 77.878073 
L 388.84125 77.878073 
" style="fill:none;stroke:#424242;stroke-linecap:square;stroke-width:2.7;"/>
   </g>
   <g id="line2d_22">
    <path clip-path="url(#p3aa5d88d4e)" d="M 139.29125 63.011436 
L 139.29125 62.99294 
" style="fill:none;stroke:#424242;stroke-linecap:square;stroke-width:2.7;"/>
   </g>
   <g id="line2d_23">
    <path clip-path="url(#p3aa5d88d4e)" d="M 132.78125 63.011436 
L 145.80125 63.011436 
" style="fill:none;stroke:#424242;stroke-linecap:square;stroke-width:2.7;"/>
   </g>
   <g id="line2d_24">
    <path clip-path="url(#p3aa5d88d4e)" d="M 132.78125 62.99294 
L 145.80125 62.99294 
" style="fill:none;stroke:#424242;stroke-linecap:square;stroke-width:2.7;"/>
   </g>
   <g id="line2d_25">
    <path clip-path="url(#p3aa5d88d4e)" d="M 269.49125 78.072687 
L 269.49125 78.072687 
" style="fill:none;stroke:#424242;stroke-linecap:square;stroke-width:2.7;"/>
   </g>
   <g id="line2d_26">
    <path clip-path="url(#p3aa5d88d4e)" d="M 262.98125 78.072687 
L 276.00125 78.072687 
" style="fill:none;stroke:#424242;stroke-linecap:square;stroke-width:2.7;"/>
   </g>
   <g id="line2d_27">
    <path clip-path="url(#p3aa5d88d4e)" d="M 262.98125 78.072687 
L 276.00125 78.072687 
" style="fill:none;stroke:#424242;stroke-linecap:square;stroke-width:2.7;"/>
   </g>
   <g id="line2d_28">
    <path clip-path="url(#p3aa5d88d4e)" d="M 399.69125 77.887941 
L 399.69125 77.873926 
" style="fill:none;stroke:#424242;stroke-linecap:square;stroke-width:2.7;"/>
   </g>
   <g id="line2d_29">
    <path clip-path="url(#p3aa5d88d4e)" d="M 393.18125 77.887941 
L 406.20125 77.887941 
" style="fill:none;stroke:#424242;stroke-linecap:square;stroke-width:2.7;"/>
   </g>
   <g id="line2d_30">
    <path clip-path="url(#p3aa5d88d4e)" d="M 393.18125 77.873926 
L 406.20125 77.873926 
" style="fill:none;stroke:#424242;stroke-linecap:square;stroke-width:2.7;"/>
   </g>
   <g id="line2d_31">
    <path clip-path="url(#p3aa5d88d4e)" d="M 156.65125 63.011693 
L 156.65125 62.991094 
" style="fill:none;stroke:#424242;stroke-linecap:square;stroke-width:2.7;"/>
   </g>
   <g id="line2d_32">
    <path clip-path="url(#p3aa5d88d4e)" d="M 150.14125 63.011693 
L 163.16125 63.011693 
" style="fill:none;stroke:#424242;stroke-linecap:square;stroke-width:2.7;"/>
   </g>
   <g id="line2d_33">
    <path clip-path="url(#p3aa5d88d4e)" d="M 150.14125 62.991094 
L 163.16125 62.991094 
" style="fill:none;stroke:#424242;stroke-linecap:square;stroke-width:2.7;"/>
   </g>
   <g id="line2d_34">
    <path clip-path="url(#p3aa5d88d4e)" d="M 286.85125 78.072705 
L 286.85125 78.072652 
" style="fill:none;stroke:#424242;stroke-linecap:square;stroke-width:2.7;"/>
   </g>
   <g id="line2d_35">
    <path clip-path="url(#p3aa5d88d4e)" d="M 280.34125 78.072705 
L 293.36125 78.072705 
" style="fill:none;stroke:#424242;stroke-linecap:square;stroke-width:2.7;"/>
   </g>
   <g id="line2d_36">
    <path clip-path="url(#p3aa5d88d4e)" d="M 280.34125 78.072652 
L 293.36125 78.072652 
" style="fill:none;stroke:#424242;stroke-linecap:square;stroke-width:2.7;"/>
   </g>
   <g id="line2d_37">
    <path clip-path="url(#p3aa5d88d4e)" d="M 417.05125 77.88021 
L 417.05125 77.858348 
" style="fill:none;stroke:#424242;stroke-linecap:square;stroke-width:2.7;"/>
   </g>
   <g id="line2d_38">
    <path clip-path="url(#p3aa5d88d4e)" d="M 410.54125 77.88021 
L 423.56125 77.88021 
" style="fill:none;stroke:#424242;stroke-linecap:square;stroke-width:2.7;"/>
   </g>
   <g id="line2d_39">
    <path clip-path="url(#p3aa5d88d4e)" d="M 410.54125 77.858348 
L 423.56125 77.858348 
" style="fill:none;stroke:#424242;stroke-linecap:square;stroke-width:2.7;"/>
   </g>
   <g id="line2d_40">
    <path clip-path="url(#p3aa5d88d4e)" d="M 174.01125 63.008533 
L 174.01125 62.991499 
" style="fill:none;stroke:#424242;stroke-linecap:square;stroke-width:2.7;"/>
   </g>
   <g id="line2d_41">
    <path clip-path="url(#p3aa5d88d4e)" d="M 167.50125 63.008533 
L 180.52125 63.008533 
" style="fill:none;stroke:#424242;stroke-linecap:square;stroke-width:2.7;"/>
   </g>
   <g id="line2d_42">
    <path clip-path="url(#p3aa5d88d4e)" d="M 167.50125 62.991499 
L 180.52125 62.991499 
" style="fill:none;stroke:#424242;stroke-linecap:square;stroke-width:2.7;"/>
   </g>
   <g id="line2d_43">
    <path clip-path="url(#p3aa5d88d4e)" d="M 304.21125 78.073341 
L 304.21125 78.071381 
" style="fill:none;stroke:#424242;stroke-linecap:square;stroke-width:2.7;"/>
   </g>
   <g id="line2d_44">
    <path clip-path="url(#p3aa5d88d4e)" d="M 297.70125 78.073341 
L 310.72125 78.073341 
" style="fill:none;stroke:#424242;stroke-linecap:square;stroke-width:2.7;"/>
   </g>
   <g id="line2d_45">
    <path clip-path="url(#p3aa5d88d4e)" d="M 297.70125 78.071381 
L 310.72125 78.071381 
" style="fill:none;stroke:#424242;stroke-linecap:square;stroke-width:2.7;"/>
   </g>
   <g id="line2d_46">
    <path clip-path="url(#p3aa5d88d4e)" d="M 434.41125 77.849935 
L 434.41125 77.81149 
" style="fill:none;stroke:#424242;stroke-linecap:square;stroke-width:2.7;"/>
   </g>
   <g id="line2d_47">
    <path clip-path="url(#p3aa5d88d4e)" d="M 427.90125 77.849935 
L 440.92125 77.849935 
" style="fill:none;stroke:#424242;stroke-linecap:square;stroke-width:2.7;"/>
   </g>
   <g id="line2d_48">
    <path clip-path="url(#p3aa5d88d4e)" d="M 427.90125 77.81149 
L 440.92125 77.81149 
" style="fill:none;stroke:#424242;stroke-linecap:square;stroke-width:2.7;"/>
   </g>
   <g id="line2d_49">
    <path clip-path="url(#p3aa5d88d4e)" d="M 191.37125 63.012179 
L 191.37125 62.972702 
" style="fill:none;stroke:#424242;stroke-linecap:square;stroke-width:2.7;"/>
   </g>
   <g id="line2d_50">
    <path clip-path="url(#p3aa5d88d4e)" d="M 184.86125 63.012179 
L 197.88125 63.012179 
" style="fill:none;stroke:#424242;stroke-linecap:square;stroke-width:2.7;"/>
   </g>
   <g id="line2d_51">
    <path clip-path="url(#p3aa5d88d4e)" d="M 184.86125 62.972702 
L 197.88125 62.972702 
" style="fill:none;stroke:#424242;stroke-linecap:square;stroke-width:2.7;"/>
   </g>
   <g id="line2d_52">
    <path clip-path="url(#p3aa5d88d4e)" d="M 321.57125 78.075437 
L 321.57125 78.065665 
" style="fill:none;stroke:#424242;stroke-linecap:square;stroke-width:2.7;"/>
   </g>
   <g id="line2d_53">
    <path clip-path="url(#p3aa5d88d4e)" d="M 315.06125 78.075437 
L 328.08125 78.075437 
" style="fill:none;stroke:#424242;stroke-linecap:square;stroke-width:2.7;"/>
   </g>
   <g id="line2d_54">
    <path clip-path="url(#p3aa5d88d4e)" d="M 315.06125 78.065665 
L 328.08125 78.065665 
" style="fill:none;stroke:#424242;stroke-linecap:square;stroke-width:2.7;"/>
   </g>
   <g id="line2d_55">
    <path clip-path="url(#p3aa5d88d4e)" d="M 451.77125 77.775406 
L 451.77125 77.775406 
" style="fill:none;stroke:#424242;stroke-linecap:square;stroke-width:2.7;"/>
   </g>
   <g id="line2d_56">
    <path clip-path="url(#p3aa5d88d4e)" d="M 445.26125 77.775406 
L 458.28125 77.775406 
" style="fill:none;stroke:#424242;stroke-linecap:square;stroke-width:2.7;"/>
   </g>
   <g id="line2d_57">
    <path clip-path="url(#p3aa5d88d4e)" d="M 445.26125 77.775406 
L 458.28125 77.775406 
" style="fill:none;stroke:#424242;stroke-linecap:square;stroke-width:2.7;"/>
   </g>
   <g id="line2d_58">
    <path clip-path="url(#p3aa5d88d4e)" d="M 208.73125 62.992499 
L 208.73125 62.943309 
" style="fill:none;stroke:#424242;stroke-linecap:square;stroke-width:2.7;"/>
   </g>
   <g id="line2d_59">
    <path clip-path="url(#p3aa5d88d4e)" d="M 202.22125 62.992499 
L 215.24125 62.992499 
" style="fill:none;stroke:#424242;stroke-linecap:square;stroke-width:2.7;"/>
   </g>
   <g id="line2d_60">
    <path clip-path="url(#p3aa5d88d4e)" d="M 202.22125 62.943309 
L 215.24125 62.943309 
" style="fill:none;stroke:#424242;stroke-linecap:square;stroke-width:2.7;"/>
   </g>
   <g id="line2d_61">
    <path clip-path="url(#p3aa5d88d4e)" d="M 338.93125 78.074158 
L 338.93125 78.068285 
" style="fill:none;stroke:#424242;stroke-linecap:square;stroke-width:2.7;"/>
   </g>
   <g id="line2d_62">
    <path clip-path="url(#p3aa5d88d4e)" d="M 332.42125 78.074158 
L 345.44125 78.074158 
" style="fill:none;stroke:#424242;stroke-linecap:square;stroke-width:2.7;"/>
   </g>
   <g id="line2d_63">
    <path clip-path="url(#p3aa5d88d4e)" d="M 332.42125 78.068285 
L 345.44125 78.068285 
" style="fill:none;stroke:#424242;stroke-linecap:square;stroke-width:2.7;"/>
   </g>
   <g id="line2d_64">
    <path clip-path="url(#p3aa5d88d4e)" d="M 469.13125 77.775406 
L 469.13125 77.775406 
" style="fill:none;stroke:#424242;stroke-linecap:square;stroke-width:2.7;"/>
   </g>
   <g id="line2d_65">
    <path clip-path="url(#p3aa5d88d4e)" d="M 462.62125 77.775406 
L 475.64125 77.775406 
" style="fill:none;stroke:#424242;stroke-linecap:square;stroke-width:2.7;"/>
   </g>
   <g id="line2d_66">
    <path clip-path="url(#p3aa5d88d4e)" d="M 462.62125 77.775406 
L 475.64125 77.775406 
" style="fill:none;stroke:#424242;stroke-linecap:square;stroke-width:2.7;"/>
   </g>
   <g id="patch_21">
    <path d="M 100.23125 440.16125 
L 100.23125 59.64125 
" style="fill:none;stroke:#000000;stroke-linecap:square;stroke-linejoin:miter;stroke-width:0.8;"/>
   </g>
   <g id="patch_22">
    <path d="M 490.83125 440.16125 
L 490.83125 59.64125 
" style="fill:none;stroke:#000000;stroke-linecap:square;stroke-linejoin:miter;stroke-width:0.8;"/>
   </g>
   <g id="patch_23">
    <path d="M 100.23125 440.16125 
L 490.83125 440.16125 
" style="fill:none;stroke:#000000;stroke-linecap:square;stroke-linejoin:miter;stroke-width:0.8;"/>
   </g>
   <g id="patch_24">
    <path d="M 100.23125 59.64125 
L 490.83125 59.64125 
" style="fill:none;stroke:#000000;stroke-linecap:square;stroke-linejoin:miter;stroke-width:0.8;"/>
   </g>
   <g id="PathCollection_7">
    <defs>
     <path d="M 0 2.5 
C 0.663008 2.5 1.29895 2.236584 1.767767 1.767767 
C 2.236584 1.29895 2.5 0.663008 2.5 0 
C 2.5 -0.663008 2.236584 -1.29895 1.767767 -1.767767 
C 1.29895 -2.236584 0.663008 -2.5 0 -2.5 
C -0.663008 -2.5 -1.29895 -2.236584 -1.767767 -1.767767 
C -2.236584 -1.29895 -2.5 -0.663008 -2.5 0 
C -2.5 0.663008 -2.236584 1.29895 -1.767767 1.767767 
C -1.29895 2.236584 -0.663008 2.5 0 2.5 
z
" id="C0_0_4356cdee83"/>
    </defs>
    <g clip-path="url(#p3aa5d88d4e)">
     <use style="fill:#222222;" x="121.93125" xlink:href="#C0_0_4356cdee83" y="63.017471"/>
    </g>
    <g clip-path="url(#p3aa5d88d4e)">
     <use style="fill:#222222;" x="116.681258" xlink:href="#C0_0_4356cdee83" y="63.008377"/>
    </g>
    <g clip-path="url(#p3aa5d88d4e)">
     <use style="fill:#222222;" x="127.181238" xlink:href="#C0_0_4356cdee83" y="63.006258"/>
    </g>
    <g clip-path="url(#p3aa5d88d4e)">
     <use style="fill:#222222;" x="130.43765" xlink:href="#C0_0_4356cdee83" y="63.006258"/>
    </g>
    <g clip-path="url(#p3aa5d88d4e)">
     <use style="fill:#222222;" x="113.42485" xlink:href="#C0_0_4356cdee83" y="63.006258"/>
    </g>
    <g clip-path="url(#p3aa5d88d4e)">
     <use style="fill:#222222;" x="130.43765" xlink:href="#C0_0_4356cdee83" y="63.006258"/>
    </g>
    <g clip-path="url(#p3aa5d88d4e)">
     <use style="fill:#222222;" x="113.42485" xlink:href="#C0_0_4356cdee83" y="62.995663"/>
    </g>
    <g clip-path="url(#p3aa5d88d4e)">
     <use style="fill:#222222;" x="130.43765" xlink:href="#C0_0_4356cdee83" y="62.990366"/>
    </g>
    <g clip-path="url(#p3aa5d88d4e)">
     <use style="fill:#222222;" x="113.42485" xlink:href="#C0_0_4356cdee83" y="62.990366"/>
    </g>
    <g clip-path="url(#p3aa5d88d4e)">
     <use style="fill:#222222;" x="130.43765" xlink:href="#C0_0_4356cdee83" y="62.990366"/>
    </g>
   </g>
   <g id="PathCollection_8">
    <defs>
     <path d="M 0 2.5 
C 0.663008 2.5 1.29895 2.236584 1.767767 1.767767 
C 2.236584 1.29895 2.5 0.663008 2.5 0 
C 2.5 -0.663008 2.236584 -1.29895 1.767767 -1.767767 
C 1.29895 -2.236584 0.663008 -2.5 0 -2.5 
C -0.663008 -2.5 -1.29895 -2.236584 -1.767767 -1.767767 
C -2.236584 -1.29895 -2.5 -0.663008 -2.5 0 
C -2.5 0.663008 -2.236584 1.29895 -1.767767 1.767767 
C -1.29895 2.236584 -0.663008 2.5 0 2.5 
z
" id="C1_0_781fb1e3f9"/>
    </defs>
    <g clip-path="url(#p3aa5d88d4e)">
     <use style="fill:#1b1b1b;" x="139.29125" xlink:href="#C1_0_781fb1e3f9" y="63.017471"/>
    </g>
    <g clip-path="url(#p3aa5d88d4e)">
     <use style="fill:#1b1b1b;" x="134.041254" xlink:href="#C1_0_781fb1e3f9" y="63.011026"/>
    </g>
    <g clip-path="url(#p3aa5d88d4e)">
     <use style="fill:#1b1b1b;" x="144.541241" xlink:href="#C1_0_781fb1e3f9" y="63.007848"/>
    </g>
    <g clip-path="url(#p3aa5d88d4e)">
     <use style="fill:#1b1b1b;" x="147.79765" xlink:href="#C1_0_781fb1e3f9" y="63.006258"/>
    </g>
    <g clip-path="url(#p3aa5d88d4e)">
     <use style="fill:#1b1b1b;" x="130.78485" xlink:href="#C1_0_781fb1e3f9" y="63.006258"/>
    </g>
    <g clip-path="url(#p3aa5d88d4e)">
     <use style="fill:#1b1b1b;" x="147.79765" xlink:href="#C1_0_781fb1e3f9" y="63.006258"/>
    </g>
    <g clip-path="url(#p3aa5d88d4e)">
     <use style="fill:#1b1b1b;" x="130.78485" xlink:href="#C1_0_781fb1e3f9" y="62.995663"/>
    </g>
    <g clip-path="url(#p3aa5d88d4e)">
     <use style="fill:#1b1b1b;" x="147.79765" xlink:href="#C1_0_781fb1e3f9" y="62.990366"/>
    </g>
    <g clip-path="url(#p3aa5d88d4e)">
     <use style="fill:#1b1b1b;" x="130.78485" xlink:href="#C1_0_781fb1e3f9" y="62.990366"/>
    </g>
    <g clip-path="url(#p3aa5d88d4e)">
     <use style="fill:#1b1b1b;" x="147.79765" xlink:href="#C1_0_781fb1e3f9" y="62.990366"/>
    </g>
   </g>
   <g id="PathCollection_9">
    <defs>
     <path d="M 0 2.5 
C 0.663008 2.5 1.29895 2.236584 1.767767 1.767767 
C 2.236584 1.29895 2.5 0.663008 2.5 0 
C 2.5 -0.663008 2.236584 -1.29895 1.767767 -1.767767 
C 1.29895 -2.236584 0.663008 -2.5 0 -2.5 
C -0.663008 -2.5 -1.29895 -2.236584 -1.767767 -1.767767 
C -2.236584 -1.29895 -2.5 -0.663008 -2.5 0 
C -2.5 0.663008 -2.236584 1.29895 -1.767767 1.767767 
C -1.29895 2.236584 -0.663008 2.5 0 2.5 
z
" id="C2_0_4359e5d6c5"/>
    </defs>
    <g clip-path="url(#p3aa5d88d4e)">
     <use style="fill:#141414;" x="156.65125" xlink:href="#C2_0_4359e5d6c5" y="63.017471"/>
    </g>
    <g clip-path="url(#p3aa5d88d4e)">
     <use style="fill:#141414;" x="151.401254" xlink:href="#C2_0_4359e5d6c5" y="63.011026"/>
    </g>
    <g clip-path="url(#p3aa5d88d4e)">
     <use style="fill:#141414;" x="161.901243" xlink:href="#C2_0_4359e5d6c5" y="63.008907"/>
    </g>
    <g clip-path="url(#p3aa5d88d4e)">
     <use style="fill:#141414;" x="165.15765" xlink:href="#C2_0_4359e5d6c5" y="63.006258"/>
    </g>
    <g clip-path="url(#p3aa5d88d4e)">
     <use style="fill:#141414;" x="148.14485" xlink:href="#C2_0_4359e5d6c5" y="63.006258"/>
    </g>
    <g clip-path="url(#p3aa5d88d4e)">
     <use style="fill:#141414;" x="165.15765" xlink:href="#C2_0_4359e5d6c5" y="63.006258"/>
    </g>
    <g clip-path="url(#p3aa5d88d4e)">
     <use style="fill:#141414;" x="148.14485" xlink:href="#C2_0_4359e5d6c5" y="62.990366"/>
    </g>
    <g clip-path="url(#p3aa5d88d4e)">
     <use style="fill:#141414;" x="165.15765" xlink:href="#C2_0_4359e5d6c5" y="62.990366"/>
    </g>
    <g clip-path="url(#p3aa5d88d4e)">
     <use style="fill:#141414;" x="148.14485" xlink:href="#C2_0_4359e5d6c5" y="62.990366"/>
    </g>
    <g clip-path="url(#p3aa5d88d4e)">
     <use style="fill:#141414;" x="165.15765" xlink:href="#C2_0_4359e5d6c5" y="62.986657"/>
    </g>
   </g>
   <g id="PathCollection_10">
    <defs>
     <path d="M 0 2.5 
C 0.663008 2.5 1.29895 2.236584 1.767767 1.767767 
C 2.236584 1.29895 2.5 0.663008 2.5 0 
C 2.5 -0.663008 2.236584 -1.29895 1.767767 -1.767767 
C 1.29895 -2.236584 0.663008 -2.5 0 -2.5 
C -0.663008 -2.5 -1.29895 -2.236584 -1.767767 -1.767767 
C -2.236584 -1.29895 -2.5 -0.663008 -2.5 0 
C -2.5 0.663008 -2.236584 1.29895 -1.767767 1.767767 
C -1.29895 2.236584 -0.663008 2.5 0 2.5 
z
" id="C3_0_927ab1b725"/>
    </defs>
    <g clip-path="url(#p3aa5d88d4e)">
     <use style="fill:#0e0e0e;" x="174.01125" xlink:href="#C3_0_927ab1b725" y="63.011026"/>
    </g>
    <g clip-path="url(#p3aa5d88d4e)">
     <use style="fill:#0e0e0e;" x="168.76125" xlink:href="#C3_0_927ab1b725" y="63.008907"/>
    </g>
    <g clip-path="url(#p3aa5d88d4e)">
     <use style="fill:#0e0e0e;" x="179.261248" xlink:href="#C3_0_927ab1b725" y="63.006258"/>
    </g>
    <g clip-path="url(#p3aa5d88d4e)">
     <use style="fill:#0e0e0e;" x="182.51765" xlink:href="#C3_0_927ab1b725" y="63.006258"/>
    </g>
    <g clip-path="url(#p3aa5d88d4e)">
     <use style="fill:#0e0e0e;" x="165.50485" xlink:href="#C3_0_927ab1b725" y="63.006258"/>
    </g>
    <g clip-path="url(#p3aa5d88d4e)">
     <use style="fill:#0e0e0e;" x="182.51765" xlink:href="#C3_0_927ab1b725" y="63.001579"/>
    </g>
    <g clip-path="url(#p3aa5d88d4e)">
     <use style="fill:#0e0e0e;" x="165.50485" xlink:href="#C3_0_927ab1b725" y="62.990366"/>
    </g>
    <g clip-path="url(#p3aa5d88d4e)">
     <use style="fill:#0e0e0e;" x="165.50485" xlink:href="#C3_0_927ab1b725" y="62.990366"/>
    </g>
    <g clip-path="url(#p3aa5d88d4e)">
     <use style="fill:#0e0e0e;" x="182.51765" xlink:href="#C3_0_927ab1b725" y="62.990366"/>
    </g>
    <g clip-path="url(#p3aa5d88d4e)">
     <use style="fill:#0e0e0e;" x="165.50485" xlink:href="#C3_0_927ab1b725" y="62.988776"/>
    </g>
   </g>
   <g id="PathCollection_11">
    <defs>
     <path d="M 0 2.5 
C 0.663008 2.5 1.29895 2.236584 1.767767 1.767767 
C 2.236584 1.29895 2.5 0.663008 2.5 0 
C 2.5 -0.663008 2.236584 -1.29895 1.767767 -1.767767 
C 1.29895 -2.236584 0.663008 -2.5 0 -2.5 
C -0.663008 -2.5 -1.29895 -2.236584 -1.767767 -1.767767 
C -2.236584 -1.29895 -2.5 -0.663008 -2.5 0 
C -2.5 0.663008 -2.236584 1.29895 -1.767767 1.767767 
C -1.29895 2.236584 -0.663008 2.5 0 2.5 
z
" id="C4_0_c822021f05"/>
    </defs>
    <g clip-path="url(#p3aa5d88d4e)">
     <use style="fill:#070707;" x="191.37125" xlink:href="#C4_0_c822021f05" y="63.006258"/>
    </g>
    <g clip-path="url(#p3aa5d88d4e)">
     <use style="fill:#070707;" x="186.12125" xlink:href="#C4_0_c822021f05" y="63.006258"/>
    </g>
    <g clip-path="url(#p3aa5d88d4e)">
     <use style="fill:#070707;" x="196.62125" xlink:href="#C4_0_c822021f05" y="63.006258"/>
    </g>
    <g clip-path="url(#p3aa5d88d4e)">
     <use style="fill:#070707;" x="182.86485" xlink:href="#C4_0_c822021f05" y="63.006258"/>
    </g>
    <g clip-path="url(#p3aa5d88d4e)">
     <use style="fill:#070707;" x="199.87765" xlink:href="#C4_0_c822021f05" y="63.006258"/>
    </g>
    <g clip-path="url(#p3aa5d88d4e)">
     <use style="fill:#070707;" x="182.86485" xlink:href="#C4_0_c822021f05" y="62.995751"/>
    </g>
    <g clip-path="url(#p3aa5d88d4e)">
     <use style="fill:#070707;" x="199.87765" xlink:href="#C4_0_c822021f05" y="62.990366"/>
    </g>
    <g clip-path="url(#p3aa5d88d4e)">
     <use style="fill:#070707;" x="199.87765" xlink:href="#C4_0_c822021f05" y="62.990366"/>
    </g>
    <g clip-path="url(#p3aa5d88d4e)">
     <use style="fill:#070707;" x="182.86485" xlink:href="#C4_0_c822021f05" y="62.975532"/>
    </g>
    <g clip-path="url(#p3aa5d88d4e)">
     <use style="fill:#070707;" x="199.87765" xlink:href="#C4_0_c822021f05" y="62.941098"/>
    </g>
   </g>
   <g id="PathCollection_12">
    <defs>
     <path d="M 0 2.5 
C 0.663008 2.5 1.29895 2.236584 1.767767 1.767767 
C 2.236584 1.29895 2.5 0.663008 2.5 0 
C 2.5 -0.663008 2.236584 -1.29895 1.767767 -1.767767 
C 1.29895 -2.236584 0.663008 -2.5 0 -2.5 
C -0.663008 -2.5 -1.29895 -2.236584 -1.767767 -1.767767 
C -2.236584 -1.29895 -2.5 -0.663008 -2.5 0 
C -2.5 0.663008 -2.236584 1.29895 -1.767767 1.767767 
C -1.29895 2.236584 -0.663008 2.5 0 2.5 
z
" id="C5_0_ea74d686de"/>
    </defs>
    <g clip-path="url(#p3aa5d88d4e)">
     <use x="208.73125" xlink:href="#C5_0_ea74d686de" y="63.006258"/>
    </g>
    <g clip-path="url(#p3aa5d88d4e)">
     <use x="203.48125" xlink:href="#C5_0_ea74d686de" y="63.006258"/>
    </g>
    <g clip-path="url(#p3aa5d88d4e)">
     <use x="213.98116" xlink:href="#C5_0_ea74d686de" y="62.975532"/>
    </g>
    <g clip-path="url(#p3aa5d88d4e)">
     <use x="200.22485" xlink:href="#C5_0_ea74d686de" y="62.975532"/>
    </g>
    <g clip-path="url(#p3aa5d88d4e)">
     <use x="217.23765" xlink:href="#C5_0_ea74d686de" y="62.975532"/>
    </g>
    <g clip-path="url(#p3aa5d88d4e)">
     <use x="200.22485" xlink:href="#C5_0_ea74d686de" y="62.975532"/>
    </g>
    <g clip-path="url(#p3aa5d88d4e)">
     <use x="217.23765" xlink:href="#C5_0_ea74d686de" y="62.941098"/>
    </g>
    <g clip-path="url(#p3aa5d88d4e)">
     <use x="200.22485" xlink:href="#C5_0_ea74d686de" y="62.941098"/>
    </g>
    <g clip-path="url(#p3aa5d88d4e)">
     <use x="217.23765" xlink:href="#C5_0_ea74d686de" y="62.941098"/>
    </g>
    <g clip-path="url(#p3aa5d88d4e)">
     <use x="200.22485" xlink:href="#C5_0_ea74d686de" y="62.941098"/>
    </g>
   </g>
   <g id="PathCollection_13">
    <defs>
     <path d="M 0 2.5 
C 0.663008 2.5 1.29895 2.236584 1.767767 1.767767 
C 2.236584 1.29895 2.5 0.663008 2.5 0 
C 2.5 -0.663008 2.236584 -1.29895 1.767767 -1.767767 
C 1.29895 -2.236584 0.663008 -2.5 0 -2.5 
C -0.663008 -2.5 -1.29895 -2.236584 -1.767767 -1.767767 
C -2.236584 -1.29895 -2.5 -0.663008 -2.5 0 
C -2.5 0.663008 -2.236584 1.29895 -1.767767 1.767767 
C -1.29895 2.236584 -0.663008 2.5 0 2.5 
z
" id="C6_0_ab6ab6528a"/>
    </defs>
    <g clip-path="url(#p3aa5d88d4e)">
     <use style="fill:#222222;" x="252.13125" xlink:href="#C6_0_ab6ab6528a" y="78.072687"/>
    </g>
    <g clip-path="url(#p3aa5d88d4e)">
     <use style="fill:#222222;" x="246.88125" xlink:href="#C6_0_ab6ab6528a" y="78.072687"/>
    </g>
    <g clip-path="url(#p3aa5d88d4e)">
     <use style="fill:#222222;" x="257.38125" xlink:href="#C6_0_ab6ab6528a" y="78.072687"/>
    </g>
    <g clip-path="url(#p3aa5d88d4e)">
     <use style="fill:#222222;" x="243.62485" xlink:href="#C6_0_ab6ab6528a" y="78.072687"/>
    </g>
    <g clip-path="url(#p3aa5d88d4e)">
     <use style="fill:#222222;" x="260.63765" xlink:href="#C6_0_ab6ab6528a" y="78.072687"/>
    </g>
    <g clip-path="url(#p3aa5d88d4e)">
     <use style="fill:#222222;" x="243.62485" xlink:href="#C6_0_ab6ab6528a" y="78.072687"/>
    </g>
    <g clip-path="url(#p3aa5d88d4e)">
     <use style="fill:#222222;" x="260.63765" xlink:href="#C6_0_ab6ab6528a" y="78.072687"/>
    </g>
    <g clip-path="url(#p3aa5d88d4e)">
     <use style="fill:#222222;" x="243.62485" xlink:href="#C6_0_ab6ab6528a" y="78.072687"/>
    </g>
    <g clip-path="url(#p3aa5d88d4e)">
     <use style="fill:#222222;" x="260.63765" xlink:href="#C6_0_ab6ab6528a" y="78.072687"/>
    </g>
    <g clip-path="url(#p3aa5d88d4e)">
     <use style="fill:#222222;" x="243.62485" xlink:href="#C6_0_ab6ab6528a" y="78.072687"/>
    </g>
   </g>
   <g id="PathCollection_14">
    <defs>
     <path d="M 0 2.5 
C 0.663008 2.5 1.29895 2.236584 1.767767 1.767767 
C 2.236584 1.29895 2.5 0.663008 2.5 0 
C 2.5 -0.663008 2.236584 -1.29895 1.767767 -1.767767 
C 1.29895 -2.236584 0.663008 -2.5 0 -2.5 
C -0.663008 -2.5 -1.29895 -2.236584 -1.767767 -1.767767 
C -2.236584 -1.29895 -2.5 -0.663008 -2.5 0 
C -2.5 0.663008 -2.236584 1.29895 -1.767767 1.767767 
C -1.29895 2.236584 -0.663008 2.5 0 2.5 
z
" id="C7_0_cec4761859"/>
    </defs>
    <g clip-path="url(#p3aa5d88d4e)">
     <use style="fill:#1b1b1b;" x="269.49125" xlink:href="#C7_0_cec4761859" y="78.072687"/>
    </g>
    <g clip-path="url(#p3aa5d88d4e)">
     <use style="fill:#1b1b1b;" x="264.24125" xlink:href="#C7_0_cec4761859" y="78.072687"/>
    </g>
    <g clip-path="url(#p3aa5d88d4e)">
     <use style="fill:#1b1b1b;" x="274.74125" xlink:href="#C7_0_cec4761859" y="78.072687"/>
    </g>
    <g clip-path="url(#p3aa5d88d4e)">
     <use style="fill:#1b1b1b;" x="260.98485" xlink:href="#C7_0_cec4761859" y="78.072687"/>
    </g>
    <g clip-path="url(#p3aa5d88d4e)">
     <use style="fill:#1b1b1b;" x="277.99765" xlink:href="#C7_0_cec4761859" y="78.072687"/>
    </g>
    <g clip-path="url(#p3aa5d88d4e)">
     <use style="fill:#1b1b1b;" x="260.98485" xlink:href="#C7_0_cec4761859" y="78.072687"/>
    </g>
    <g clip-path="url(#p3aa5d88d4e)">
     <use style="fill:#1b1b1b;" x="277.99765" xlink:href="#C7_0_cec4761859" y="78.072687"/>
    </g>
    <g clip-path="url(#p3aa5d88d4e)">
     <use style="fill:#1b1b1b;" x="260.98485" xlink:href="#C7_0_cec4761859" y="78.072687"/>
    </g>
    <g clip-path="url(#p3aa5d88d4e)">
     <use style="fill:#1b1b1b;" x="277.99765" xlink:href="#C7_0_cec4761859" y="78.072687"/>
    </g>
    <g clip-path="url(#p3aa5d88d4e)">
     <use style="fill:#1b1b1b;" x="260.98485" xlink:href="#C7_0_cec4761859" y="78.072687"/>
    </g>
   </g>
   <g id="PathCollection_15">
    <defs>
     <path d="M 0 2.5 
C 0.663008 2.5 1.29895 2.236584 1.767767 1.767767 
C 2.236584 1.29895 2.5 0.663008 2.5 0 
C 2.5 -0.663008 2.236584 -1.29895 1.767767 -1.767767 
C 1.29895 -2.236584 0.663008 -2.5 0 -2.5 
C -0.663008 -2.5 -1.29895 -2.236584 -1.767767 -1.767767 
C -2.236584 -1.29895 -2.5 -0.663008 -2.5 0 
C -2.5 0.663008 -2.236584 1.29895 -1.767767 1.767767 
C -1.29895 2.236584 -0.663008 2.5 0 2.5 
z
" id="C8_0_2670866f5f"/>
    </defs>
    <g clip-path="url(#p3aa5d88d4e)">
     <use style="fill:#141414;" x="286.85125" xlink:href="#C8_0_2670866f5f" y="78.072687"/>
    </g>
    <g clip-path="url(#p3aa5d88d4e)">
     <use style="fill:#141414;" x="281.60125" xlink:href="#C8_0_2670866f5f" y="78.072687"/>
    </g>
    <g clip-path="url(#p3aa5d88d4e)">
     <use style="fill:#141414;" x="292.10125" xlink:href="#C8_0_2670866f5f" y="78.072687"/>
    </g>
    <g clip-path="url(#p3aa5d88d4e)">
     <use style="fill:#141414;" x="278.34485" xlink:href="#C8_0_2670866f5f" y="78.072687"/>
    </g>
    <g clip-path="url(#p3aa5d88d4e)">
     <use style="fill:#141414;" x="295.35765" xlink:href="#C8_0_2670866f5f" y="78.072687"/>
    </g>
    <g clip-path="url(#p3aa5d88d4e)">
     <use style="fill:#141414;" x="278.34485" xlink:href="#C8_0_2670866f5f" y="78.072687"/>
    </g>
    <g clip-path="url(#p3aa5d88d4e)">
     <use style="fill:#141414;" x="295.35765" xlink:href="#C8_0_2670866f5f" y="78.072687"/>
    </g>
    <g clip-path="url(#p3aa5d88d4e)">
     <use style="fill:#141414;" x="278.34485" xlink:href="#C8_0_2670866f5f" y="78.072687"/>
    </g>
    <g clip-path="url(#p3aa5d88d4e)">
     <use style="fill:#141414;" x="295.35765" xlink:href="#C8_0_2670866f5f" y="78.072687"/>
    </g>
    <g clip-path="url(#p3aa5d88d4e)">
     <use style="fill:#141414;" x="278.34485" xlink:href="#C8_0_2670866f5f" y="78.072599"/>
    </g>
   </g>
   <g id="PathCollection_16">
    <defs>
     <path d="M 0 2.5 
C 0.663008 2.5 1.29895 2.236584 1.767767 1.767767 
C 2.236584 1.29895 2.5 0.663008 2.5 0 
C 2.5 -0.663008 2.236584 -1.29895 1.767767 -1.767767 
C 1.29895 -2.236584 0.663008 -2.5 0 -2.5 
C -0.663008 -2.5 -1.29895 -2.236584 -1.767767 -1.767767 
C -2.236584 -1.29895 -2.5 -0.663008 -2.5 0 
C -2.5 0.663008 -2.236584 1.29895 -1.767767 1.767767 
C -1.29895 2.236584 -0.663008 2.5 0 2.5 
z
" id="C9_0_f0ba07c53d"/>
    </defs>
    <g clip-path="url(#p3aa5d88d4e)">
     <use style="fill:#0e0e0e;" x="304.21125" xlink:href="#C9_0_f0ba07c53d" y="78.072687"/>
    </g>
    <g clip-path="url(#p3aa5d88d4e)">
     <use style="fill:#0e0e0e;" x="298.96125" xlink:href="#C9_0_f0ba07c53d" y="78.072687"/>
    </g>
    <g clip-path="url(#p3aa5d88d4e)">
     <use style="fill:#0e0e0e;" x="309.46125" xlink:href="#C9_0_f0ba07c53d" y="78.072687"/>
    </g>
    <g clip-path="url(#p3aa5d88d4e)">
     <use style="fill:#0e0e0e;" x="295.70485" xlink:href="#C9_0_f0ba07c53d" y="78.072687"/>
    </g>
    <g clip-path="url(#p3aa5d88d4e)">
     <use style="fill:#0e0e0e;" x="312.71765" xlink:href="#C9_0_f0ba07c53d" y="78.072687"/>
    </g>
    <g clip-path="url(#p3aa5d88d4e)">
     <use style="fill:#0e0e0e;" x="295.70485" xlink:href="#C9_0_f0ba07c53d" y="78.072687"/>
    </g>
    <g clip-path="url(#p3aa5d88d4e)">
     <use style="fill:#0e0e0e;" x="312.71765" xlink:href="#C9_0_f0ba07c53d" y="78.072687"/>
    </g>
    <g clip-path="url(#p3aa5d88d4e)">
     <use style="fill:#0e0e0e;" x="295.70485" xlink:href="#C9_0_f0ba07c53d" y="78.072687"/>
    </g>
    <g clip-path="url(#p3aa5d88d4e)">
     <use style="fill:#0e0e0e;" x="312.71765" xlink:href="#C9_0_f0ba07c53d" y="78.072687"/>
    </g>
    <g clip-path="url(#p3aa5d88d4e)">
     <use style="fill:#0e0e0e;" x="295.70485" xlink:href="#C9_0_f0ba07c53d" y="78.069421"/>
    </g>
   </g>
   <g id="PathCollection_17">
    <defs>
     <path d="M 0 2.5 
C 0.663008 2.5 1.29895 2.236584 1.767767 1.767767 
C 2.236584 1.29895 2.5 0.663008 2.5 0 
C 2.5 -0.663008 2.236584 -1.29895 1.767767 -1.767767 
C 1.29895 -2.236584 0.663008 -2.5 0 -2.5 
C -0.663008 -2.5 -1.29895 -2.236584 -1.767767 -1.767767 
C -2.236584 -1.29895 -2.5 -0.663008 -2.5 0 
C -2.5 0.663008 -2.236584 1.29895 -1.767767 1.767767 
C -1.29895 2.236584 -0.663008 2.5 0 2.5 
z
" id="Ca_0_dfe14f25a9"/>
    </defs>
    <g clip-path="url(#p3aa5d88d4e)">
     <use style="fill:#070707;" x="321.57125" xlink:href="#Ca_0_dfe14f25a9" y="78.072687"/>
    </g>
    <g clip-path="url(#p3aa5d88d4e)">
     <use style="fill:#070707;" x="316.32125" xlink:href="#Ca_0_dfe14f25a9" y="78.072687"/>
    </g>
    <g clip-path="url(#p3aa5d88d4e)">
     <use style="fill:#070707;" x="326.82125" xlink:href="#Ca_0_dfe14f25a9" y="78.072687"/>
    </g>
    <g clip-path="url(#p3aa5d88d4e)">
     <use style="fill:#070707;" x="313.06485" xlink:href="#Ca_0_dfe14f25a9" y="78.072687"/>
    </g>
    <g clip-path="url(#p3aa5d88d4e)">
     <use style="fill:#070707;" x="330.07765" xlink:href="#Ca_0_dfe14f25a9" y="78.072687"/>
    </g>
    <g clip-path="url(#p3aa5d88d4e)">
     <use style="fill:#070707;" x="313.06485" xlink:href="#Ca_0_dfe14f25a9" y="78.072687"/>
    </g>
    <g clip-path="url(#p3aa5d88d4e)">
     <use style="fill:#070707;" x="330.07765" xlink:href="#Ca_0_dfe14f25a9" y="78.072687"/>
    </g>
    <g clip-path="url(#p3aa5d88d4e)">
     <use style="fill:#070707;" x="313.06485" xlink:href="#Ca_0_dfe14f25a9" y="78.072687"/>
    </g>
    <g clip-path="url(#p3aa5d88d4e)">
     <use style="fill:#070707;" x="330.07765" xlink:href="#Ca_0_dfe14f25a9" y="78.067302"/>
    </g>
    <g clip-path="url(#p3aa5d88d4e)">
     <use style="fill:#070707;" x="313.06485" xlink:href="#Ca_0_dfe14f25a9" y="78.056707"/>
    </g>
   </g>
   <g id="PathCollection_18">
    <defs>
     <path d="M 0 2.5 
C 0.663008 2.5 1.29895 2.236584 1.767767 1.767767 
C 2.236584 1.29895 2.5 0.663008 2.5 0 
C 2.5 -0.663008 2.236584 -1.29895 1.767767 -1.767767 
C 1.29895 -2.236584 0.663008 -2.5 0 -2.5 
C -0.663008 -2.5 -1.29895 -2.236584 -1.767767 -1.767767 
C -2.236584 -1.29895 -2.5 -0.663008 -2.5 0 
C -2.5 0.663008 -2.236584 1.29895 -1.767767 1.767767 
C -1.29895 2.236584 -0.663008 2.5 0 2.5 
z
" id="Cb_0_a57c18dca3"/>
    </defs>
    <g clip-path="url(#p3aa5d88d4e)">
     <use x="338.93125" xlink:href="#Cb_0_a57c18dca3" y="78.072687"/>
    </g>
    <g clip-path="url(#p3aa5d88d4e)">
     <use x="333.68125" xlink:href="#Cb_0_a57c18dca3" y="78.072687"/>
    </g>
    <g clip-path="url(#p3aa5d88d4e)">
     <use x="344.18125" xlink:href="#Cb_0_a57c18dca3" y="78.072687"/>
    </g>
    <g clip-path="url(#p3aa5d88d4e)">
     <use x="330.42485" xlink:href="#Cb_0_a57c18dca3" y="78.072687"/>
    </g>
    <g clip-path="url(#p3aa5d88d4e)">
     <use x="347.43765" xlink:href="#Cb_0_a57c18dca3" y="78.072687"/>
    </g>
    <g clip-path="url(#p3aa5d88d4e)">
     <use x="330.42485" xlink:href="#Cb_0_a57c18dca3" y="78.072069"/>
    </g>
    <g clip-path="url(#p3aa5d88d4e)">
     <use x="347.43765" xlink:href="#Cb_0_a57c18dca3" y="78.072069"/>
    </g>
    <g clip-path="url(#p3aa5d88d4e)">
     <use x="330.42485" xlink:href="#Cb_0_a57c18dca3" y="78.07101"/>
    </g>
    <g clip-path="url(#p3aa5d88d4e)">
     <use x="347.43765" xlink:href="#Cb_0_a57c18dca3" y="78.07101"/>
    </g>
    <g clip-path="url(#p3aa5d88d4e)">
     <use x="330.42485" xlink:href="#Cb_0_a57c18dca3" y="78.062622"/>
    </g>
   </g>
   <g id="PathCollection_19">
    <defs>
     <path d="M 0 2.5 
C 0.663008 2.5 1.29895 2.236584 1.767767 1.767767 
C 2.236584 1.29895 2.5 0.663008 2.5 0 
C 2.5 -0.663008 2.236584 -1.29895 1.767767 -1.767767 
C 1.29895 -2.236584 0.663008 -2.5 0 -2.5 
C -0.663008 -2.5 -1.29895 -2.236584 -1.767767 -1.767767 
C -2.236584 -1.29895 -2.5 -0.663008 -2.5 0 
C -2.5 0.663008 -2.236584 1.29895 -1.767767 1.767767 
C -1.29895 2.236584 -0.663008 2.5 0 2.5 
z
" id="Cc_0_363a382215"/>
    </defs>
    <g clip-path="url(#p3aa5d88d4e)">
     <use style="fill:#222222;" x="382.33125" xlink:href="#Cc_0_363a382215" y="77.886655"/>
    </g>
    <g clip-path="url(#p3aa5d88d4e)">
     <use style="fill:#222222;" x="377.08125" xlink:href="#Cc_0_363a382215" y="77.886655"/>
    </g>
    <g clip-path="url(#p3aa5d88d4e)">
     <use style="fill:#222222;" x="387.58125" xlink:href="#Cc_0_363a382215" y="77.886655"/>
    </g>
    <g clip-path="url(#p3aa5d88d4e)">
     <use style="fill:#222222;" x="373.82485" xlink:href="#Cc_0_363a382215" y="77.886655"/>
    </g>
    <g clip-path="url(#p3aa5d88d4e)">
     <use style="fill:#222222;" x="390.83765" xlink:href="#Cc_0_363a382215" y="77.886655"/>
    </g>
    <g clip-path="url(#p3aa5d88d4e)">
     <use style="fill:#222222;" x="373.82485" xlink:href="#Cc_0_363a382215" y="77.886655"/>
    </g>
    <g clip-path="url(#p3aa5d88d4e)">
     <use style="fill:#222222;" x="390.83765" xlink:href="#Cc_0_363a382215" y="77.886655"/>
    </g>
    <g clip-path="url(#p3aa5d88d4e)">
     <use style="fill:#222222;" x="373.82485" xlink:href="#Cc_0_363a382215" y="77.886655"/>
    </g>
    <g clip-path="url(#p3aa5d88d4e)">
     <use style="fill:#222222;" x="390.83765" xlink:href="#Cc_0_363a382215" y="77.872352"/>
    </g>
    <g clip-path="url(#p3aa5d88d4e)">
     <use style="fill:#222222;" x="373.82485" xlink:href="#Cc_0_363a382215" y="77.872352"/>
    </g>
   </g>
   <g id="PathCollection_20">
    <defs>
     <path d="M 0 2.5 
C 0.663008 2.5 1.29895 2.236584 1.767767 1.767767 
C 2.236584 1.29895 2.5 0.663008 2.5 0 
C 2.5 -0.663008 2.236584 -1.29895 1.767767 -1.767767 
C 1.29895 -2.236584 0.663008 -2.5 0 -2.5 
C -0.663008 -2.5 -1.29895 -2.236584 -1.767767 -1.767767 
C -2.236584 -1.29895 -2.5 -0.663008 -2.5 0 
C -2.5 0.663008 -2.236584 1.29895 -1.767767 1.767767 
C -1.29895 2.236584 -0.663008 2.5 0 2.5 
z
" id="Cd_0_af917fc141"/>
    </defs>
    <g clip-path="url(#p3aa5d88d4e)">
     <use style="fill:#1b1b1b;" x="399.69125" xlink:href="#Cd_0_af917fc141" y="77.886655"/>
    </g>
    <g clip-path="url(#p3aa5d88d4e)">
     <use style="fill:#1b1b1b;" x="394.44125" xlink:href="#Cd_0_af917fc141" y="77.886655"/>
    </g>
    <g clip-path="url(#p3aa5d88d4e)">
     <use style="fill:#1b1b1b;" x="404.94125" xlink:href="#Cd_0_af917fc141" y="77.886655"/>
    </g>
    <g clip-path="url(#p3aa5d88d4e)">
     <use style="fill:#1b1b1b;" x="391.18485" xlink:href="#Cd_0_af917fc141" y="77.886655"/>
    </g>
    <g clip-path="url(#p3aa5d88d4e)">
     <use style="fill:#1b1b1b;" x="408.19765" xlink:href="#Cd_0_af917fc141" y="77.886655"/>
    </g>
    <g clip-path="url(#p3aa5d88d4e)">
     <use style="fill:#1b1b1b;" x="391.18485" xlink:href="#Cd_0_af917fc141" y="77.886655"/>
    </g>
    <g clip-path="url(#p3aa5d88d4e)">
     <use style="fill:#1b1b1b;" x="408.19765" xlink:href="#Cd_0_af917fc141" y="77.872352"/>
    </g>
    <g clip-path="url(#p3aa5d88d4e)">
     <use style="fill:#1b1b1b;" x="391.18485" xlink:href="#Cd_0_af917fc141" y="77.872352"/>
    </g>
    <g clip-path="url(#p3aa5d88d4e)">
     <use style="fill:#1b1b1b;" x="408.19765" xlink:href="#Cd_0_af917fc141" y="77.872352"/>
    </g>
    <g clip-path="url(#p3aa5d88d4e)">
     <use style="fill:#1b1b1b;" x="391.18485" xlink:href="#Cd_0_af917fc141" y="77.872352"/>
    </g>
   </g>
   <g id="PathCollection_21">
    <defs>
     <path d="M 0 2.5 
C 0.663008 2.5 1.29895 2.236584 1.767767 1.767767 
C 2.236584 1.29895 2.5 0.663008 2.5 0 
C 2.5 -0.663008 2.236584 -1.29895 1.767767 -1.767767 
C 1.29895 -2.236584 0.663008 -2.5 0 -2.5 
C -0.663008 -2.5 -1.29895 -2.236584 -1.767767 -1.767767 
C -2.236584 -1.29895 -2.5 -0.663008 -2.5 0 
C -2.5 0.663008 -2.236584 1.29895 -1.767767 1.767767 
C -1.29895 2.236584 -0.663008 2.5 0 2.5 
z
" id="Ce_0_b0c5088d7c"/>
    </defs>
    <g clip-path="url(#p3aa5d88d4e)">
     <use style="fill:#141414;" x="417.05125" xlink:href="#Ce_0_b0c5088d7c" y="77.886655"/>
    </g>
    <g clip-path="url(#p3aa5d88d4e)">
     <use style="fill:#141414;" x="411.80125" xlink:href="#Ce_0_b0c5088d7c" y="77.886655"/>
    </g>
    <g clip-path="url(#p3aa5d88d4e)">
     <use style="fill:#141414;" x="422.30123" xlink:href="#Ce_0_b0c5088d7c" y="77.872352"/>
    </g>
    <g clip-path="url(#p3aa5d88d4e)">
     <use style="fill:#141414;" x="408.54485" xlink:href="#Ce_0_b0c5088d7c" y="77.872352"/>
    </g>
    <g clip-path="url(#p3aa5d88d4e)">
     <use style="fill:#141414;" x="425.55765" xlink:href="#Ce_0_b0c5088d7c" y="77.872352"/>
    </g>
    <g clip-path="url(#p3aa5d88d4e)">
     <use style="fill:#141414;" x="408.54485" xlink:href="#Ce_0_b0c5088d7c" y="77.872352"/>
    </g>
    <g clip-path="url(#p3aa5d88d4e)">
     <use style="fill:#141414;" x="425.55765" xlink:href="#Ce_0_b0c5088d7c" y="77.857518"/>
    </g>
    <g clip-path="url(#p3aa5d88d4e)">
     <use style="fill:#141414;" x="408.54485" xlink:href="#Ce_0_b0c5088d7c" y="77.857518"/>
    </g>
    <g clip-path="url(#p3aa5d88d4e)">
     <use style="fill:#141414;" x="425.55765" xlink:href="#Ce_0_b0c5088d7c" y="77.857518"/>
    </g>
    <g clip-path="url(#p3aa5d88d4e)">
     <use style="fill:#141414;" x="408.54485" xlink:href="#Ce_0_b0c5088d7c" y="77.857518"/>
    </g>
   </g>
   <g id="PathCollection_22">
    <defs>
     <path d="M 0 2.5 
C 0.663008 2.5 1.29895 2.236584 1.767767 1.767767 
C 2.236584 1.29895 2.5 0.663008 2.5 0 
C 2.5 -0.663008 2.236584 -1.29895 1.767767 -1.767767 
C 1.29895 -2.236584 0.663008 -2.5 0 -2.5 
C -0.663008 -2.5 -1.29895 -2.236584 -1.767767 -1.767767 
C -2.236584 -1.29895 -2.5 -0.663008 -2.5 0 
C -2.5 0.663008 -2.236584 1.29895 -1.767767 1.767767 
C -1.29895 2.236584 -0.663008 2.5 0 2.5 
z
" id="Cf_0_063ca090d4"/>
    </defs>
    <g clip-path="url(#p3aa5d88d4e)">
     <use style="fill:#0e0e0e;" x="434.41125" xlink:href="#Cf_0_063ca090d4" y="77.857518"/>
    </g>
    <g clip-path="url(#p3aa5d88d4e)">
     <use style="fill:#0e0e0e;" x="429.161273" xlink:href="#Cf_0_063ca090d4" y="77.842155"/>
    </g>
    <g clip-path="url(#p3aa5d88d4e)">
     <use style="fill:#0e0e0e;" x="439.661227" xlink:href="#Cf_0_063ca090d4" y="77.842155"/>
    </g>
    <g clip-path="url(#p3aa5d88d4e)">
     <use style="fill:#0e0e0e;" x="425.90485" xlink:href="#Cf_0_063ca090d4" y="77.842155"/>
    </g>
    <g clip-path="url(#p3aa5d88d4e)">
     <use style="fill:#0e0e0e;" x="442.91765" xlink:href="#Cf_0_063ca090d4" y="77.842155"/>
    </g>
    <g clip-path="url(#p3aa5d88d4e)">
     <use style="fill:#0e0e0e;" x="425.90485" xlink:href="#Cf_0_063ca090d4" y="77.842155"/>
    </g>
    <g clip-path="url(#p3aa5d88d4e)">
     <use style="fill:#0e0e0e;" x="442.91765" xlink:href="#Cf_0_063ca090d4" y="77.826263"/>
    </g>
    <g clip-path="url(#p3aa5d88d4e)">
     <use style="fill:#0e0e0e;" x="425.90485" xlink:href="#Cf_0_063ca090d4" y="77.80984"/>
    </g>
    <g clip-path="url(#p3aa5d88d4e)">
     <use style="fill:#0e0e0e;" x="442.91765" xlink:href="#Cf_0_063ca090d4" y="77.80984"/>
    </g>
    <g clip-path="url(#p3aa5d88d4e)">
     <use style="fill:#0e0e0e;" x="425.90485" xlink:href="#Cf_0_063ca090d4" y="77.792888"/>
    </g>
   </g>
   <g id="PathCollection_23">
    <defs>
     <path d="M 0 2.5 
C 0.663008 2.5 1.29895 2.236584 1.767767 1.767767 
C 2.236584 1.29895 2.5 0.663008 2.5 0 
C 2.5 -0.663008 2.236584 -1.29895 1.767767 -1.767767 
C 1.29895 -2.236584 0.663008 -2.5 0 -2.5 
C -0.663008 -2.5 -1.29895 -2.236584 -1.767767 -1.767767 
C -2.236584 -1.29895 -2.5 -0.663008 -2.5 0 
C -2.5 0.663008 -2.236584 1.29895 -1.767767 1.767767 
C -1.29895 2.236584 -0.663008 2.5 0 2.5 
z
" id="C10_0_3758366599"/>
    </defs>
    <g clip-path="url(#p3aa5d88d4e)">
     <use style="fill:#070707;" x="451.77125" xlink:href="#C10_0_3758366599" y="77.775406"/>
    </g>
    <g clip-path="url(#p3aa5d88d4e)">
     <use style="fill:#070707;" x="446.52125" xlink:href="#C10_0_3758366599" y="77.775406"/>
    </g>
    <g clip-path="url(#p3aa5d88d4e)">
     <use style="fill:#070707;" x="457.02125" xlink:href="#C10_0_3758366599" y="77.775406"/>
    </g>
    <g clip-path="url(#p3aa5d88d4e)">
     <use style="fill:#070707;" x="443.26485" xlink:href="#C10_0_3758366599" y="77.775406"/>
    </g>
    <g clip-path="url(#p3aa5d88d4e)">
     <use style="fill:#070707;" x="460.27765" xlink:href="#C10_0_3758366599" y="77.775406"/>
    </g>
    <g clip-path="url(#p3aa5d88d4e)">
     <use style="fill:#070707;" x="443.26485" xlink:href="#C10_0_3758366599" y="77.775406"/>
    </g>
    <g clip-path="url(#p3aa5d88d4e)">
     <use style="fill:#070707;" x="460.27765" xlink:href="#C10_0_3758366599" y="77.775406"/>
    </g>
    <g clip-path="url(#p3aa5d88d4e)">
     <use style="fill:#070707;" x="443.26485" xlink:href="#C10_0_3758366599" y="77.775406"/>
    </g>
    <g clip-path="url(#p3aa5d88d4e)">
     <use style="fill:#070707;" x="460.27765" xlink:href="#C10_0_3758366599" y="77.775406"/>
    </g>
    <g clip-path="url(#p3aa5d88d4e)">
     <use style="fill:#070707;" x="443.26485" xlink:href="#C10_0_3758366599" y="77.775406"/>
    </g>
   </g>
   <g id="PathCollection_24">
    <defs>
     <path d="M 0 2.5 
C 0.663008 2.5 1.29895 2.236584 1.767767 1.767767 
C 2.236584 1.29895 2.5 0.663008 2.5 0 
C 2.5 -0.663008 2.236584 -1.29895 1.767767 -1.767767 
C 1.29895 -2.236584 0.663008 -2.5 0 -2.5 
C -0.663008 -2.5 -1.29895 -2.236584 -1.767767 -1.767767 
C -2.236584 -1.29895 -2.5 -0.663008 -2.5 0 
C -2.5 0.663008 -2.236584 1.29895 -1.767767 1.767767 
C -1.29895 2.236584 -0.663008 2.5 0 2.5 
z
" id="C11_0_78dc89ea38"/>
    </defs>
    <g clip-path="url(#p3aa5d88d4e)">
     <use x="469.13125" xlink:href="#C11_0_78dc89ea38" y="77.775406"/>
    </g>
    <g clip-path="url(#p3aa5d88d4e)">
     <use x="463.88125" xlink:href="#C11_0_78dc89ea38" y="77.775406"/>
    </g>
    <g clip-path="url(#p3aa5d88d4e)">
     <use x="474.38125" xlink:href="#C11_0_78dc89ea38" y="77.775406"/>
    </g>
    <g clip-path="url(#p3aa5d88d4e)">
     <use x="460.62485" xlink:href="#C11_0_78dc89ea38" y="77.775406"/>
    </g>
    <g clip-path="url(#p3aa5d88d4e)">
     <use x="477.63765" xlink:href="#C11_0_78dc89ea38" y="77.775406"/>
    </g>
    <g clip-path="url(#p3aa5d88d4e)">
     <use x="460.62485" xlink:href="#C11_0_78dc89ea38" y="77.775406"/>
    </g>
    <g clip-path="url(#p3aa5d88d4e)">
     <use x="477.63765" xlink:href="#C11_0_78dc89ea38" y="77.775406"/>
    </g>
    <g clip-path="url(#p3aa5d88d4e)">
     <use x="460.62485" xlink:href="#C11_0_78dc89ea38" y="77.775406"/>
    </g>
    <g clip-path="url(#p3aa5d88d4e)">
     <use x="477.63765" xlink:href="#C11_0_78dc89ea38" y="77.775406"/>
    </g>
    <g clip-path="url(#p3aa5d88d4e)">
     <use x="460.62485" xlink:href="#C11_0_78dc89ea38" y="77.775406"/>
    </g>
   </g>
   <g id="text_15">
    <!-- TGFA  CONCENTRATION -->
    <g transform="translate(175.009375 21.515625)scale(0.2 -0.2)">
     <use xlink:href="#Arial-BoldMT-84"/>
     <use x="61.083984" xlink:href="#Arial-BoldMT-71"/>
     <use x="138.867188" xlink:href="#Arial-BoldMT-70"/>
     <use x="199.873047" xlink:href="#Arial-BoldMT-65"/>
     <use x="272.042969" xlink:href="#Arial-BoldMT-32"/>
     <use x="299.826172" xlink:href="#Arial-BoldMT-32"/>
     <use x="327.609375" xlink:href="#Arial-BoldMT-67"/>
     <use x="399.826172" xlink:href="#Arial-BoldMT-79"/>
     <use x="477.609375" xlink:href="#Arial-BoldMT-78"/>
     <use x="549.826172" xlink:href="#Arial-BoldMT-67"/>
     <use x="622.042969" xlink:href="#Arial-BoldMT-69"/>
     <use x="688.742188" xlink:href="#Arial-BoldMT-78"/>
     <use x="760.958984" xlink:href="#Arial-BoldMT-84"/>
     <use x="822.042969" xlink:href="#Arial-BoldMT-82"/>
     <use x="894.259766" xlink:href="#Arial-BoldMT-65"/>
     <use x="966.367188" xlink:href="#Arial-BoldMT-84"/>
     <use x="1027.451172" xlink:href="#Arial-BoldMT-73"/>
     <use x="1055.234375" xlink:href="#Arial-BoldMT-79"/>
     <use x="1133.017578" xlink:href="#Arial-BoldMT-78"/>
    </g>
    <!-- OVER TIME 1, 4, 7 -->
    <defs>
     <path d="M 25.53125 0 
L -0.046875 71.578125 
L 15.625 71.578125 
L 33.734375 18.609375 
L 51.265625 71.578125 
L 66.609375 71.578125 
L 40.96875 0 
z
" id="Arial-BoldMT-86"/>
     <path d="M 7.078125 0 
L 7.078125 71.578125 
L 28.71875 71.578125 
L 41.703125 22.75 
L 54.546875 71.578125 
L 76.21875 71.578125 
L 76.21875 0 
L 62.796875 0 
L 62.796875 56.34375 
L 48.578125 0 
L 34.671875 0 
L 20.515625 56.34375 
L 20.515625 0 
z
" id="Arial-BoldMT-77"/>
     <path d="M 39.359375 0 
L 25.640625 0 
L 25.640625 51.703125 
Q 18.109375 44.671875 7.90625 41.3125 
L 7.90625 53.765625 
Q 13.28125 55.515625 19.578125 60.421875 
Q 25.875 65.328125 28.21875 71.875 
L 39.359375 71.875 
z
" id="Arial-BoldMT-49"/>
     <path d="M 6.84375 13.71875 
L 20.5625 13.71875 
L 20.5625 3.90625 
Q 20.5625 -2.046875 19.53125 -5.484375 
Q 18.5 -8.9375 15.640625 -11.671875 
Q 12.796875 -14.40625 8.40625 -15.96875 
L 5.71875 -10.296875 
Q 9.859375 -8.9375 11.609375 -6.546875 
Q 13.375 -4.15625 13.484375 0 
L 6.84375 0 
z
" id="Arial-BoldMT-44"/>
     <path d="M 31.15625 0 
L 31.15625 14.40625 
L 1.859375 14.40625 
L 1.859375 26.421875 
L 32.90625 71.875 
L 44.4375 71.875 
L 44.4375 26.46875 
L 53.328125 26.46875 
L 53.328125 14.40625 
L 44.4375 14.40625 
L 44.4375 0 
z
M 31.15625 26.46875 
L 31.15625 50.921875 
L 14.703125 26.46875 
z
" id="Arial-BoldMT-52"/>
     <path d="M 4.25 57.859375 
L 4.25 70.609375 
L 51.171875 70.609375 
L 51.171875 60.640625 
Q 45.359375 54.9375 39.34375 44.234375 
Q 33.34375 33.546875 30.1875 21.5 
Q 27.046875 9.46875 27.09375 0 
L 13.875 0 
Q 14.203125 14.84375 19.984375 30.265625 
Q 25.78125 45.703125 35.453125 57.859375 
z
" id="Arial-BoldMT-55"/>
    </defs>
    <g transform="translate(209.953125 42.64125)scale(0.2 -0.2)">
     <use xlink:href="#Arial-BoldMT-79"/>
     <use x="77.783203" xlink:href="#Arial-BoldMT-86"/>
     <use x="144.482422" xlink:href="#Arial-BoldMT-69"/>
     <use x="211.181641" xlink:href="#Arial-BoldMT-82"/>
     <use x="283.398438" xlink:href="#Arial-BoldMT-32"/>
     <use x="311.181641" xlink:href="#Arial-BoldMT-84"/>
     <use x="372.265625" xlink:href="#Arial-BoldMT-73"/>
     <use x="400.048828" xlink:href="#Arial-BoldMT-77"/>
     <use x="483.349609" xlink:href="#Arial-BoldMT-69"/>
     <use x="550.048828" xlink:href="#Arial-BoldMT-32"/>
     <use x="577.832031" xlink:href="#Arial-BoldMT-49"/>
     <use x="633.447266" xlink:href="#Arial-BoldMT-44"/>
     <use x="661.230469" xlink:href="#Arial-BoldMT-32"/>
     <use x="689.013672" xlink:href="#Arial-BoldMT-52"/>
     <use x="744.628906" xlink:href="#Arial-BoldMT-44"/>
     <use x="772.412109" xlink:href="#Arial-BoldMT-32"/>
     <use x="800.195312" xlink:href="#Arial-BoldMT-55"/>
    </g>
   </g>
   <g id="legend_1">
    <g id="PathCollection_25">
     <defs>
      <path d="M 0 3.872983 
C 1.027127 3.872983 2.012324 3.464901 2.738613 2.738613 
C 3.464901 2.012324 3.872983 1.027127 3.872983 0 
C 3.872983 -1.027127 3.464901 -2.012324 2.738613 -2.738613 
C 2.012324 -3.464901 1.027127 -3.872983 0 -3.872983 
C -1.027127 -3.872983 -2.012324 -3.464901 -2.738613 -2.738613 
C -3.464901 -2.012324 -3.872983 -1.027127 -3.872983 0 
C -3.872983 1.027127 -3.464901 2.012324 -2.738613 2.738613 
C -2.012324 3.464901 -1.027127 3.872983 0 3.872983 
z
" id="m6d73c990e9" style="stroke:#222222;"/>
     </defs>
     <g>
      <use style="fill:#222222;stroke:#222222;" x="509.83125" xlink:href="#m6d73c990e9" y="73.614687"/>
     </g>
    </g>
    <g id="text_16">
     <!-- 0 -->
     <g transform="translate(527.83125 76.239687)scale(0.1 -0.1)">
      <use xlink:href="#DejaVuSans-48"/>
     </g>
    </g>
    <g id="PathCollection_26">
     <defs>
      <path d="M 0 3.872983 
C 1.027127 3.872983 2.012324 3.464901 2.738613 2.738613 
C 3.464901 2.012324 3.872983 1.027127 3.872983 0 
C 3.872983 -1.027127 3.464901 -2.012324 2.738613 -2.738613 
C 2.012324 -3.464901 1.027127 -3.872983 0 -3.872983 
C -1.027127 -3.872983 -2.012324 -3.464901 -2.738613 -2.738613 
C -3.464901 -2.012324 -3.872983 -1.027127 -3.872983 0 
C -3.872983 1.027127 -3.464901 2.012324 -2.738613 2.738613 
C -2.012324 3.464901 -1.027127 3.872983 0 3.872983 
z
" id="md95630120e" style="stroke:#1b1b1b;"/>
     </defs>
     <g>
      <use style="fill:#1b1b1b;stroke:#1b1b1b;" x="509.83125" xlink:href="#md95630120e" y="88.292812"/>
     </g>
    </g>
    <g id="text_17">
     <!-- 100 -->
     <g transform="translate(527.83125 90.917812)scale(0.1 -0.1)">
      <use xlink:href="#DejaVuSans-49"/>
      <use x="63.623047" xlink:href="#DejaVuSans-48"/>
      <use x="127.246094" xlink:href="#DejaVuSans-48"/>
     </g>
    </g>
    <g id="PathCollection_27">
     <defs>
      <path d="M 0 3.872983 
C 1.027127 3.872983 2.012324 3.464901 2.738613 2.738613 
C 3.464901 2.012324 3.872983 1.027127 3.872983 0 
C 3.872983 -1.027127 3.464901 -2.012324 2.738613 -2.738613 
C 2.012324 -3.464901 1.027127 -3.872983 0 -3.872983 
C -1.027127 -3.872983 -2.012324 -3.464901 -2.738613 -2.738613 
C -3.464901 -2.012324 -3.872983 -1.027127 -3.872983 0 
C -3.872983 1.027127 -3.464901 2.012324 -2.738613 2.738613 
C -2.012324 3.464901 -1.027127 3.872983 0 3.872983 
z
" id="m19d26757e2" style="stroke:#141414;"/>
     </defs>
     <g>
      <use style="fill:#141414;stroke:#141414;" x="509.83125" xlink:href="#m19d26757e2" y="102.970937"/>
     </g>
    </g>
    <g id="text_18">
     <!-- 500 -->
     <defs>
      <path d="M 10.796875 72.90625 
L 49.515625 72.90625 
L 49.515625 64.59375 
L 19.828125 64.59375 
L 19.828125 46.734375 
Q 21.96875 47.46875 24.109375 47.828125 
Q 26.265625 48.1875 28.421875 48.1875 
Q 40.625 48.1875 47.75 41.5 
Q 54.890625 34.8125 54.890625 23.390625 
Q 54.890625 11.625 47.5625 5.09375 
Q 40.234375 -1.421875 26.90625 -1.421875 
Q 22.3125 -1.421875 17.546875 -0.640625 
Q 12.796875 0.140625 7.71875 1.703125 
L 7.71875 11.625 
Q 12.109375 9.234375 16.796875 8.0625 
Q 21.484375 6.890625 26.703125 6.890625 
Q 35.15625 6.890625 40.078125 11.328125 
Q 45.015625 15.765625 45.015625 23.390625 
Q 45.015625 31 40.078125 35.4375 
Q 35.15625 39.890625 26.703125 39.890625 
Q 22.75 39.890625 18.8125 39.015625 
Q 14.890625 38.140625 10.796875 36.28125 
z
" id="DejaVuSans-53"/>
     </defs>
     <g transform="translate(527.83125 105.595937)scale(0.1 -0.1)">
      <use xlink:href="#DejaVuSans-53"/>
      <use x="63.623047" xlink:href="#DejaVuSans-48"/>
      <use x="127.246094" xlink:href="#DejaVuSans-48"/>
     </g>
    </g>
    <g id="PathCollection_28">
     <defs>
      <path d="M 0 3.872983 
C 1.027127 3.872983 2.012324 3.464901 2.738613 2.738613 
C 3.464901 2.012324 3.872983 1.027127 3.872983 0 
C 3.872983 -1.027127 3.464901 -2.012324 2.738613 -2.738613 
C 2.012324 -3.464901 1.027127 -3.872983 0 -3.872983 
C -1.027127 -3.872983 -2.012324 -3.464901 -2.738613 -2.738613 
C -3.464901 -2.012324 -3.872983 -1.027127 -3.872983 0 
C -3.872983 1.027127 -3.464901 2.012324 -2.738613 2.738613 
C -2.012324 3.464901 -1.027127 3.872983 0 3.872983 
z
" id="ma3d1770ca6" style="stroke:#0e0e0e;"/>
     </defs>
     <g>
      <use style="fill:#0e0e0e;stroke:#0e0e0e;" x="509.83125" xlink:href="#ma3d1770ca6" y="117.649062"/>
     </g>
    </g>
    <g id="text_19">
     <!-- 1000 -->
     <g transform="translate(527.83125 120.274062)scale(0.1 -0.1)">
      <use xlink:href="#DejaVuSans-49"/>
      <use x="63.623047" xlink:href="#DejaVuSans-48"/>
      <use x="127.246094" xlink:href="#DejaVuSans-48"/>
      <use x="190.869141" xlink:href="#DejaVuSans-48"/>
     </g>
    </g>
    <g id="PathCollection_29">
     <defs>
      <path d="M 0 3.872983 
C 1.027127 3.872983 2.012324 3.464901 2.738613 2.738613 
C 3.464901 2.012324 3.872983 1.027127 3.872983 0 
C 3.872983 -1.027127 3.464901 -2.012324 2.738613 -2.738613 
C 2.012324 -3.464901 1.027127 -3.872983 0 -3.872983 
C -1.027127 -3.872983 -2.012324 -3.464901 -2.738613 -2.738613 
C -3.464901 -2.012324 -3.872983 -1.027127 -3.872983 0 
C -3.872983 1.027127 -3.464901 2.012324 -2.738613 2.738613 
C -2.012324 3.464901 -1.027127 3.872983 0 3.872983 
z
" id="mfabb1eb1d5" style="stroke:#070707;"/>
     </defs>
     <g>
      <use style="fill:#070707;stroke:#070707;" x="509.83125" xlink:href="#mfabb1eb1d5" y="132.327187"/>
     </g>
    </g>
    <g id="text_20">
     <!-- 5000 -->
     <g transform="translate(527.83125 134.952187)scale(0.1 -0.1)">
      <use xlink:href="#DejaVuSans-53"/>
      <use x="63.623047" xlink:href="#DejaVuSans-48"/>
      <use x="127.246094" xlink:href="#DejaVuSans-48"/>
      <use x="190.869141" xlink:href="#DejaVuSans-48"/>
     </g>
    </g>
    <g id="PathCollection_30">
     <defs>
      <path d="M 0 3.872983 
C 1.027127 3.872983 2.012324 3.464901 2.738613 2.738613 
C 3.464901 2.012324 3.872983 1.027127 3.872983 0 
C 3.872983 -1.027127 3.464901 -2.012324 2.738613 -2.738613 
C 2.012324 -3.464901 1.027127 -3.872983 0 -3.872983 
C -1.027127 -3.872983 -2.012324 -3.464901 -2.738613 -2.738613 
C -3.464901 -2.012324 -3.872983 -1.027127 -3.872983 0 
C -3.872983 1.027127 -3.464901 2.012324 -2.738613 2.738613 
C -2.012324 3.464901 -1.027127 3.872983 0 3.872983 
z
" id="ma68a07595f" style="stroke:#000000;"/>
     </defs>
     <g>
      <use style="stroke:#000000;" x="509.83125" xlink:href="#ma68a07595f" y="147.005312"/>
     </g>
    </g>
    <g id="text_21">
     <!-- 10000 -->
     <g transform="translate(527.83125 149.630312)scale(0.1 -0.1)">
      <use xlink:href="#DejaVuSans-49"/>
      <use x="63.623047" xlink:href="#DejaVuSans-48"/>
      <use x="127.246094" xlink:href="#DejaVuSans-48"/>
      <use x="190.869141" xlink:href="#DejaVuSans-48"/>
      <use x="254.492188" xlink:href="#DejaVuSans-48"/>
     </g>
    </g>
    <g id="patch_25">
     <path d="M 499.83125 164.308437 
L 519.83125 164.308437 
L 519.83125 157.308437 
L 499.83125 157.308437 
z
"/>
    </g>
    <g id="text_22">
     <!-- 0 -->
     <g transform="translate(527.83125 164.308437)scale(0.1 -0.1)">
      <use xlink:href="#DejaVuSans-48"/>
     </g>
    </g>
    <g id="patch_26">
     <path d="M 499.83125 178.986562 
L 519.83125 178.986562 
L 519.83125 171.986562 
L 499.83125 171.986562 
z
" style="fill:#d4e1ee;"/>
    </g>
    <g id="text_23">
     <!-- 100 -->
     <g transform="translate(527.83125 178.986562)scale(0.1 -0.1)">
      <use xlink:href="#DejaVuSans-49"/>
      <use x="63.623047" xlink:href="#DejaVuSans-48"/>
      <use x="127.246094" xlink:href="#DejaVuSans-48"/>
     </g>
    </g>
    <g id="patch_27">
     <path d="M 499.83125 193.664687 
L 519.83125 193.664687 
L 519.83125 186.664687 
L 499.83125 186.664687 
z
" style="fill:#9dc2d5;"/>
    </g>
    <g id="text_24">
     <!-- 500 -->
     <g transform="translate(527.83125 193.664687)scale(0.1 -0.1)">
      <use xlink:href="#DejaVuSans-53"/>
      <use x="63.623047" xlink:href="#DejaVuSans-48"/>
      <use x="127.246094" xlink:href="#DejaVuSans-48"/>
     </g>
    </g>
    <g id="patch_28">
     <path d="M 499.83125 208.342812 
L 519.83125 208.342812 
L 519.83125 201.342812 
L 499.83125 201.342812 
z
" style="fill:#5a94b9;"/>
    </g>
    <g id="text_25">
     <!-- 1000 -->
     <g transform="translate(527.83125 208.342812)scale(0.1 -0.1)">
      <use xlink:href="#DejaVuSans-49"/>
      <use x="63.623047" xlink:href="#DejaVuSans-48"/>
      <use x="127.246094" xlink:href="#DejaVuSans-48"/>
      <use x="190.869141" xlink:href="#DejaVuSans-48"/>
     </g>
    </g>
    <g id="patch_29">
     <path d="M 499.83125 223.020937 
L 519.83125 223.020937 
L 519.83125 216.020937 
L 499.83125 216.020937 
z
" style="fill:#296399;"/>
    </g>
    <g id="text_26">
     <!-- 5000 -->
     <g transform="translate(527.83125 223.020937)scale(0.1 -0.1)">
      <use xlink:href="#DejaVuSans-53"/>
      <use x="63.623047" xlink:href="#DejaVuSans-48"/>
      <use x="127.246094" xlink:href="#DejaVuSans-48"/>
      <use x="190.869141" xlink:href="#DejaVuSans-48"/>
     </g>
    </g>
    <g id="patch_30">
     <path d="M 499.83125 237.699062 
L 519.83125 237.699062 
L 519.83125 230.699062 
L 499.83125 230.699062 
z
" style="fill:#14325f;"/>
    </g>
    <g id="text_27">
     <!-- 10000 -->
     <g transform="translate(527.83125 237.699062)scale(0.1 -0.1)">
      <use xlink:href="#DejaVuSans-49"/>
      <use x="63.623047" xlink:href="#DejaVuSans-48"/>
      <use x="127.246094" xlink:href="#DejaVuSans-48"/>
      <use x="190.869141" xlink:href="#DejaVuSans-48"/>
      <use x="254.492188" xlink:href="#DejaVuSans-48"/>
     </g>
    </g>
   </g>
  </g>
 </g>
 <defs>
  <clipPath id="p3aa5d88d4e">
   <rect height="380.52" width="390.6" x="100.23125" y="59.64125"/>
  </clipPath>
 </defs>
</svg>
