<?xml version="1.0" encoding="utf-8" standalone="no"?>
<!DOCTYPE svg PUBLIC "-//W3C//DTD SVG 1.1//EN"
  "http://www.w3.org/Graphics/SVG/1.1/DTD/svg11.dtd">
<!-- Created with matplotlib (https://matplotlib.org/) -->
<svg height="516.22375pt" version="1.1" viewBox="0 0 532.66875 516.22375" width="532.66875pt" xmlns="http://www.w3.org/2000/svg" xmlns:xlink="http://www.w3.org/1999/xlink">
 <defs>
  <style type="text/css">
*{stroke-linecap:butt;stroke-linejoin:round;}
  </style>
 </defs>
 <g id="figure_1">
  <g id="patch_1">
   <path d="M 0 516.22375 
L 532.66875 516.22375 
L 532.66875 0 
L 0 0 
z
" style="fill:#ffffff;"/>
  </g>
  <g id="axes_1">
   <g id="patch_2">
    <path d="M 62.05625 440.16125 
L 452.65625 440.16125 
L 452.65625 59.64125 
L 62.05625 59.64125 
z
" style="fill:#ffffff;"/>
   </g>
   <g id="PathCollection_1"/>
   <g id="PathCollection_2"/>
   <g id="PathCollection_3"/>
   <g id="PathCollection_4"/>
   <g id="PathCollection_5"/>
   <g id="PathCollection_6"/>
   <g id="patch_3">
    <path clip-path="url(#p29a2fffa53)" d="M 75.07625 440.16125 
L 92.43625 440.16125 
L 92.43625 69.938027 
L 75.07625 69.938027 
z
"/>
   </g>
   <g id="patch_4">
    <path clip-path="url(#p29a2fffa53)" d="M 205.27625 440.16125 
L 222.63625 440.16125 
L 222.63625 82.981985 
L 205.27625 82.981985 
z
"/>
   </g>
   <g id="patch_5">
    <path clip-path="url(#p29a2fffa53)" d="M 335.47625 440.16125 
L 352.83625 440.16125 
L 352.83625 79.707252 
L 335.47625 79.707252 
z
"/>
   </g>
   <g id="patch_6">
    <path clip-path="url(#p29a2fffa53)" d="M 92.43625 440.16125 
L 109.79625 440.16125 
L 109.79625 71.03345 
L 92.43625 71.03345 
z
" style="fill:#d4e1ee;"/>
   </g>
   <g id="patch_7">
    <path clip-path="url(#p29a2fffa53)" d="M 222.63625 440.16125 
L 239.99625 440.16125 
L 239.99625 90.497955 
L 222.63625 90.497955 
z
" style="fill:#d4e1ee;"/>
   </g>
   <g id="patch_8">
    <path clip-path="url(#p29a2fffa53)" d="M 352.83625 440.16125 
L 370.19625 440.16125 
L 370.19625 88.8387 
L 352.83625 88.8387 
z
" style="fill:#d4e1ee;"/>
   </g>
   <g id="patch_9">
    <path clip-path="url(#p29a2fffa53)" d="M 109.79625 440.16125 
L 127.15625 440.16125 
L 127.15625 71.053178 
L 109.79625 71.053178 
z
" style="fill:#9dc2d5;"/>
   </g>
   <g id="patch_10">
    <path clip-path="url(#p29a2fffa53)" d="M 239.99625 440.16125 
L 257.35625 440.16125 
L 257.35625 91.823292 
L 239.99625 91.823292 
z
" style="fill:#9dc2d5;"/>
   </g>
   <g id="patch_11">
    <path clip-path="url(#p29a2fffa53)" d="M 370.19625 440.16125 
L 387.55625 440.16125 
L 387.55625 102.642191 
L 370.19625 102.642191 
z
" style="fill:#9dc2d5;"/>
   </g>
   <g id="patch_12">
    <path clip-path="url(#p29a2fffa53)" d="M 127.15625 440.16125 
L 144.51625 440.16125 
L 144.51625 71.04941 
L 127.15625 71.04941 
z
" style="fill:#5a94b9;"/>
   </g>
   <g id="patch_13">
    <path clip-path="url(#p29a2fffa53)" d="M 257.35625 440.16125 
L 274.71625 440.16125 
L 274.71625 93.614788 
L 257.35625 93.614788 
z
" style="fill:#5a94b9;"/>
   </g>
   <g id="patch_14">
    <path clip-path="url(#p29a2fffa53)" d="M 387.55625 440.16125 
L 404.91625 440.16125 
L 404.91625 106.138406 
L 387.55625 106.138406 
z
" style="fill:#5a94b9;"/>
   </g>
   <g id="patch_15">
    <path clip-path="url(#p29a2fffa53)" d="M 144.51625 440.16125 
L 161.87625 440.16125 
L 161.87625 70.88193 
L 144.51625 70.88193 
z
" style="fill:#296399;"/>
   </g>
   <g id="patch_16">
    <path clip-path="url(#p29a2fffa53)" d="M 274.71625 440.16125 
L 292.07625 440.16125 
L 292.07625 106.194425 
L 274.71625 106.194425 
z
" style="fill:#296399;"/>
   </g>
   <g id="patch_17">
    <path clip-path="url(#p29a2fffa53)" d="M 404.91625 440.16125 
L 422.27625 440.16125 
L 422.27625 112.421581 
L 404.91625 112.421581 
z
" style="fill:#296399;"/>
   </g>
   <g id="patch_18">
    <path clip-path="url(#p29a2fffa53)" d="M 161.87625 440.16125 
L 179.23625 440.16125 
L 179.23625 70.618604 
L 161.87625 70.618604 
z
" style="fill:#14325f;"/>
   </g>
   <g id="patch_19">
    <path clip-path="url(#p29a2fffa53)" d="M 292.07625 440.16125 
L 309.43625 440.16125 
L 309.43625 113.533016 
L 292.07625 113.533016 
z
" style="fill:#14325f;"/>
   </g>
   <g id="patch_20">
    <path clip-path="url(#p29a2fffa53)" d="M 422.27625 440.16125 
L 439.63625 440.16125 
L 439.63625 114.369166 
L 422.27625 114.369166 
z
" style="fill:#14325f;"/>
   </g>
   <g id="matplotlib.axis_1">
    <g id="xtick_1">
     <g id="line2d_1">
      <defs>
       <path d="M 0 0 
L 0 3.5 
" id="mb9ac96f26d" style="stroke:#000000;stroke-width:0.8;"/>
      </defs>
      <g>
       <use style="stroke:#000000;stroke-width:0.8;" x="127.15625" xlink:href="#mb9ac96f26d" y="440.16125"/>
      </g>
     </g>
     <g id="text_1">
      <!-- 1 -->
      <defs>
       <path d="M 12.40625 8.296875 
L 28.515625 8.296875 
L 28.515625 63.921875 
L 10.984375 60.40625 
L 10.984375 69.390625 
L 28.421875 72.90625 
L 38.28125 72.90625 
L 38.28125 8.296875 
L 54.390625 8.296875 
L 54.390625 0 
L 12.40625 0 
z
" id="DejaVuSans-49"/>
      </defs>
      <g transform="translate(117.6125 469.956562)scale(0.3 -0.3)">
       <use xlink:href="#DejaVuSans-49"/>
      </g>
     </g>
    </g>
    <g id="xtick_2">
     <g id="line2d_2">
      <g>
       <use style="stroke:#000000;stroke-width:0.8;" x="257.35625" xlink:href="#mb9ac96f26d" y="440.16125"/>
      </g>
     </g>
     <g id="text_2">
      <!-- 4 -->
      <defs>
       <path d="M 37.796875 64.3125 
L 12.890625 25.390625 
L 37.796875 25.390625 
z
M 35.203125 72.90625 
L 47.609375 72.90625 
L 47.609375 25.390625 
L 58.015625 25.390625 
L 58.015625 17.1875 
L 47.609375 17.1875 
L 47.609375 0 
L 37.796875 0 
L 37.796875 17.1875 
L 4.890625 17.1875 
L 4.890625 26.703125 
z
" id="DejaVuSans-52"/>
      </defs>
      <g transform="translate(247.8125 469.956562)scale(0.3 -0.3)">
       <use xlink:href="#DejaVuSans-52"/>
      </g>
     </g>
    </g>
    <g id="xtick_3">
     <g id="line2d_3">
      <g>
       <use style="stroke:#000000;stroke-width:0.8;" x="387.55625" xlink:href="#mb9ac96f26d" y="440.16125"/>
      </g>
     </g>
     <g id="text_3">
      <!-- 7 -->
      <defs>
       <path d="M 8.203125 72.90625 
L 55.078125 72.90625 
L 55.078125 68.703125 
L 28.609375 0 
L 18.3125 0 
L 43.21875 64.59375 
L 8.203125 64.59375 
z
" id="DejaVuSans-55"/>
      </defs>
      <g transform="translate(378.0125 469.956562)scale(0.3 -0.3)">
       <use xlink:href="#DejaVuSans-55"/>
      </g>
     </g>
    </g>
    <g id="text_4">
     <!-- ANTIGENS CANCER -->
     <defs>
      <path d="M 71.828125 0 
L 56.109375 0 
L 49.859375 16.265625 
L 21.234375 16.265625 
L 15.328125 0 
L 0 0 
L 27.875 71.578125 
L 43.171875 71.578125 
z
M 45.21875 28.328125 
L 35.359375 54.890625 
L 25.6875 28.328125 
z
" id="Arial-BoldMT-65"/>
      <path d="M 7.421875 0 
L 7.421875 71.578125 
L 21.484375 71.578125 
L 50.78125 23.78125 
L 50.78125 71.578125 
L 64.203125 71.578125 
L 64.203125 0 
L 49.703125 0 
L 20.84375 46.6875 
L 20.84375 0 
z
" id="Arial-BoldMT-78"/>
      <path d="M 23.390625 0 
L 23.390625 59.46875 
L 2.15625 59.46875 
L 2.15625 71.578125 
L 59.03125 71.578125 
L 59.03125 59.46875 
L 37.84375 59.46875 
L 37.84375 0 
z
" id="Arial-BoldMT-84"/>
      <path d="M 6.84375 0 
L 6.84375 71.578125 
L 21.296875 71.578125 
L 21.296875 0 
z
" id="Arial-BoldMT-73"/>
      <path d="M 40.578125 26.3125 
L 40.578125 38.375 
L 71.734375 38.375 
L 71.734375 9.859375 
Q 67.1875 5.46875 58.5625 2.125 
Q 49.953125 -1.21875 41.109375 -1.21875 
Q 29.890625 -1.21875 21.53125 3.484375 
Q 13.1875 8.203125 8.984375 16.96875 
Q 4.78125 25.734375 4.78125 36.03125 
Q 4.78125 47.21875 9.46875 55.90625 
Q 14.15625 64.59375 23.1875 69.234375 
Q 30.078125 72.796875 40.328125 72.796875 
Q 53.65625 72.796875 61.15625 67.203125 
Q 68.65625 61.625 70.796875 51.765625 
L 56.453125 49.078125 
Q 54.9375 54.34375 50.75 57.390625 
Q 46.578125 60.453125 40.328125 60.453125 
Q 30.859375 60.453125 25.265625 54.4375 
Q 19.671875 48.4375 19.671875 36.625 
Q 19.671875 23.875 25.328125 17.5 
Q 31 11.140625 40.1875 11.140625 
Q 44.734375 11.140625 49.296875 12.921875 
Q 53.859375 14.703125 57.125 17.234375 
L 57.125 26.3125 
z
" id="Arial-BoldMT-71"/>
      <path d="M 7.28125 0 
L 7.28125 71.578125 
L 60.359375 71.578125 
L 60.359375 59.46875 
L 21.734375 59.46875 
L 21.734375 43.609375 
L 57.671875 43.609375 
L 57.671875 31.546875 
L 21.734375 31.546875 
L 21.734375 12.0625 
L 61.71875 12.0625 
L 61.71875 0 
z
" id="Arial-BoldMT-69"/>
      <path d="M 3.609375 23.296875 
L 17.671875 24.65625 
Q 18.953125 17.578125 22.828125 14.25 
Q 26.703125 10.9375 33.296875 10.9375 
Q 40.28125 10.9375 43.8125 13.890625 
Q 47.359375 16.84375 47.359375 20.796875 
Q 47.359375 23.34375 45.875 25.125 
Q 44.390625 26.90625 40.671875 28.21875 
Q 38.140625 29.109375 29.109375 31.34375 
Q 17.484375 34.234375 12.796875 38.421875 
Q 6.203125 44.34375 6.203125 52.828125 
Q 6.203125 58.296875 9.296875 63.0625 
Q 12.40625 67.828125 18.234375 70.3125 
Q 24.078125 72.796875 32.328125 72.796875 
Q 45.796875 72.796875 52.609375 66.890625 
Q 59.421875 60.984375 59.765625 51.125 
L 45.3125 50.484375 
Q 44.390625 56 41.328125 58.421875 
Q 38.28125 60.84375 32.171875 60.84375 
Q 25.875 60.84375 22.3125 58.25 
Q 20.015625 56.59375 20.015625 53.8125 
Q 20.015625 51.265625 22.171875 49.46875 
Q 24.90625 47.171875 35.453125 44.671875 
Q 46 42.1875 51.046875 39.515625 
Q 56.109375 36.859375 58.953125 32.25 
Q 61.8125 27.640625 61.8125 20.84375 
Q 61.8125 14.703125 58.390625 9.328125 
Q 54.984375 3.953125 48.734375 1.34375 
Q 42.484375 -1.265625 33.15625 -1.265625 
Q 19.578125 -1.265625 12.296875 5 
Q 5.03125 11.28125 3.609375 23.296875 
z
" id="Arial-BoldMT-83"/>
      <path id="Arial-BoldMT-32"/>
      <path d="M 53.078125 26.3125 
L 67.09375 21.875 
Q 63.875 10.15625 56.375 4.46875 
Q 48.875 -1.21875 37.359375 -1.21875 
Q 23.09375 -1.21875 13.90625 8.515625 
Q 4.734375 18.265625 4.734375 35.15625 
Q 4.734375 53.03125 13.953125 62.90625 
Q 23.1875 72.796875 38.234375 72.796875 
Q 51.375 72.796875 59.578125 65.046875 
Q 64.453125 60.453125 66.890625 51.859375 
L 52.59375 48.4375 
Q 51.3125 54 47.28125 57.21875 
Q 43.265625 60.453125 37.5 60.453125 
Q 29.546875 60.453125 24.578125 54.734375 
Q 19.625 49.03125 19.625 36.234375 
Q 19.625 22.65625 24.5 16.890625 
Q 29.390625 11.140625 37.203125 11.140625 
Q 42.96875 11.140625 47.109375 14.796875 
Q 51.265625 18.453125 53.078125 26.3125 
z
" id="Arial-BoldMT-67"/>
      <path d="M 7.328125 0 
L 7.328125 71.578125 
L 37.75 71.578125 
Q 49.21875 71.578125 54.421875 69.640625 
Q 59.625 67.71875 62.75 62.78125 
Q 65.875 57.859375 65.875 51.515625 
Q 65.875 43.453125 61.125 38.203125 
Q 56.390625 32.953125 46.96875 31.59375 
Q 51.65625 28.859375 54.703125 25.578125 
Q 57.765625 22.3125 62.9375 13.96875 
L 71.6875 0 
L 54.390625 0 
L 43.953125 15.578125 
Q 38.375 23.921875 36.328125 26.09375 
Q 34.28125 28.265625 31.984375 29.078125 
Q 29.6875 29.890625 24.703125 29.890625 
L 21.78125 29.890625 
L 21.78125 0 
z
M 21.78125 41.3125 
L 32.46875 41.3125 
Q 42.875 41.3125 45.453125 42.1875 
Q 48.046875 43.0625 49.515625 45.203125 
Q 50.984375 47.359375 50.984375 50.59375 
Q 50.984375 54.203125 49.046875 56.421875 
Q 47.125 58.640625 43.609375 59.234375 
Q 41.84375 59.46875 33.0625 59.46875 
L 21.78125 59.46875 
z
" id="Arial-BoldMT-82"/>
     </defs>
     <g transform="translate(135.821094 504.090156)scale(0.25 -0.25)">
      <use xlink:href="#Arial-BoldMT-65"/>
      <use x="72.216797" xlink:href="#Arial-BoldMT-78"/>
      <use x="144.433594" xlink:href="#Arial-BoldMT-84"/>
      <use x="205.517578" xlink:href="#Arial-BoldMT-73"/>
      <use x="233.300781" xlink:href="#Arial-BoldMT-71"/>
      <use x="311.083984" xlink:href="#Arial-BoldMT-69"/>
      <use x="377.783203" xlink:href="#Arial-BoldMT-78"/>
      <use x="450" xlink:href="#Arial-BoldMT-83"/>
      <use x="516.699219" xlink:href="#Arial-BoldMT-32"/>
      <use x="544.482422" xlink:href="#Arial-BoldMT-67"/>
      <use x="616.699219" xlink:href="#Arial-BoldMT-65"/>
      <use x="688.916016" xlink:href="#Arial-BoldMT-78"/>
      <use x="761.132812" xlink:href="#Arial-BoldMT-67"/>
      <use x="833.349609" xlink:href="#Arial-BoldMT-69"/>
      <use x="900.048828" xlink:href="#Arial-BoldMT-82"/>
     </g>
    </g>
   </g>
   <g id="matplotlib.axis_2">
    <g id="ytick_1">
     <g id="line2d_4">
      <defs>
       <path d="M 0 0 
L -3.5 0 
" id="ma05eddc077" style="stroke:#000000;stroke-width:0.8;"/>
      </defs>
      <g>
       <use style="stroke:#000000;stroke-width:0.8;" x="62.05625" xlink:href="#ma05eddc077" y="440.16125"/>
      </g>
     </g>
     <g id="text_5">
      <!-- 0 -->
      <defs>
       <path d="M 31.78125 66.40625 
Q 24.171875 66.40625 20.328125 58.90625 
Q 16.5 51.421875 16.5 36.375 
Q 16.5 21.390625 20.328125 13.890625 
Q 24.171875 6.390625 31.78125 6.390625 
Q 39.453125 6.390625 43.28125 13.890625 
Q 47.125 21.390625 47.125 36.375 
Q 47.125 51.421875 43.28125 58.90625 
Q 39.453125 66.40625 31.78125 66.40625 
z
M 31.78125 74.21875 
Q 44.046875 74.21875 50.515625 64.515625 
Q 56.984375 54.828125 56.984375 36.375 
Q 56.984375 17.96875 50.515625 8.265625 
Q 44.046875 -1.421875 31.78125 -1.421875 
Q 19.53125 -1.421875 13.0625 8.265625 
Q 6.59375 17.96875 6.59375 36.375 
Q 6.59375 54.828125 13.0625 64.515625 
Q 19.53125 74.21875 31.78125 74.21875 
z
" id="DejaVuSans-48"/>
      </defs>
      <g transform="translate(35.96875 451.558906)scale(0.3 -0.3)">
       <use xlink:href="#DejaVuSans-48"/>
      </g>
     </g>
    </g>
    <g id="ytick_2">
     <g id="line2d_5">
      <g>
       <use style="stroke:#000000;stroke-width:0.8;" x="62.05625" xlink:href="#ma05eddc077" y="364.05725"/>
      </g>
     </g>
     <g id="text_6">
      <!-- 1 -->
      <g transform="translate(35.96875 375.454906)scale(0.3 -0.3)">
       <use xlink:href="#DejaVuSans-49"/>
      </g>
     </g>
    </g>
    <g id="ytick_3">
     <g id="line2d_6">
      <g>
       <use style="stroke:#000000;stroke-width:0.8;" x="62.05625" xlink:href="#ma05eddc077" y="287.95325"/>
      </g>
     </g>
     <g id="text_7">
      <!-- 2 -->
      <defs>
       <path d="M 19.1875 8.296875 
L 53.609375 8.296875 
L 53.609375 0 
L 7.328125 0 
L 7.328125 8.296875 
Q 12.9375 14.109375 22.625 23.890625 
Q 32.328125 33.6875 34.8125 36.53125 
Q 39.546875 41.84375 41.421875 45.53125 
Q 43.3125 49.21875 43.3125 52.78125 
Q 43.3125 58.59375 39.234375 62.25 
Q 35.15625 65.921875 28.609375 65.921875 
Q 23.96875 65.921875 18.8125 64.3125 
Q 13.671875 62.703125 7.8125 59.421875 
L 7.8125 69.390625 
Q 13.765625 71.78125 18.9375 73 
Q 24.125 74.21875 28.421875 74.21875 
Q 39.75 74.21875 46.484375 68.546875 
Q 53.21875 62.890625 53.21875 53.421875 
Q 53.21875 48.921875 51.53125 44.890625 
Q 49.859375 40.875 45.40625 35.40625 
Q 44.1875 33.984375 37.640625 27.21875 
Q 31.109375 20.453125 19.1875 8.296875 
z
" id="DejaVuSans-50"/>
      </defs>
      <g transform="translate(35.96875 299.350906)scale(0.3 -0.3)">
       <use xlink:href="#DejaVuSans-50"/>
      </g>
     </g>
    </g>
    <g id="ytick_4">
     <g id="line2d_7">
      <g>
       <use style="stroke:#000000;stroke-width:0.8;" x="62.05625" xlink:href="#ma05eddc077" y="211.84925"/>
      </g>
     </g>
     <g id="text_8">
      <!-- 3 -->
      <defs>
       <path d="M 40.578125 39.3125 
Q 47.65625 37.796875 51.625 33 
Q 55.609375 28.21875 55.609375 21.1875 
Q 55.609375 10.40625 48.1875 4.484375 
Q 40.765625 -1.421875 27.09375 -1.421875 
Q 22.515625 -1.421875 17.65625 -0.515625 
Q 12.796875 0.390625 7.625 2.203125 
L 7.625 11.71875 
Q 11.71875 9.328125 16.59375 8.109375 
Q 21.484375 6.890625 26.8125 6.890625 
Q 36.078125 6.890625 40.9375 10.546875 
Q 45.796875 14.203125 45.796875 21.1875 
Q 45.796875 27.640625 41.28125 31.265625 
Q 36.765625 34.90625 28.71875 34.90625 
L 20.21875 34.90625 
L 20.21875 43.015625 
L 29.109375 43.015625 
Q 36.375 43.015625 40.234375 45.921875 
Q 44.09375 48.828125 44.09375 54.296875 
Q 44.09375 59.90625 40.109375 62.90625 
Q 36.140625 65.921875 28.71875 65.921875 
Q 24.65625 65.921875 20.015625 65.03125 
Q 15.375 64.15625 9.8125 62.3125 
L 9.8125 71.09375 
Q 15.4375 72.65625 20.34375 73.4375 
Q 25.25 74.21875 29.59375 74.21875 
Q 40.828125 74.21875 47.359375 69.109375 
Q 53.90625 64.015625 53.90625 55.328125 
Q 53.90625 49.265625 50.4375 45.09375 
Q 46.96875 40.921875 40.578125 39.3125 
z
" id="DejaVuSans-51"/>
      </defs>
      <g transform="translate(35.96875 223.246906)scale(0.3 -0.3)">
       <use xlink:href="#DejaVuSans-51"/>
      </g>
     </g>
    </g>
    <g id="ytick_5">
     <g id="line2d_8">
      <g>
       <use style="stroke:#000000;stroke-width:0.8;" x="62.05625" xlink:href="#ma05eddc077" y="135.74525"/>
      </g>
     </g>
     <g id="text_9">
      <!-- 4 -->
      <g transform="translate(35.96875 147.142906)scale(0.3 -0.3)">
       <use xlink:href="#DejaVuSans-52"/>
      </g>
     </g>
    </g>
    <g id="ytick_6">
     <g id="line2d_9">
      <g>
       <use style="stroke:#000000;stroke-width:0.8;" x="62.05625" xlink:href="#ma05eddc077" y="59.64125"/>
      </g>
     </g>
     <g id="text_10">
      <!-- 5 -->
      <defs>
       <path d="M 10.796875 72.90625 
L 49.515625 72.90625 
L 49.515625 64.59375 
L 19.828125 64.59375 
L 19.828125 46.734375 
Q 21.96875 47.46875 24.109375 47.828125 
Q 26.265625 48.1875 28.421875 48.1875 
Q 40.625 48.1875 47.75 41.5 
Q 54.890625 34.8125 54.890625 23.390625 
Q 54.890625 11.625 47.5625 5.09375 
Q 40.234375 -1.421875 26.90625 -1.421875 
Q 22.3125 -1.421875 17.546875 -0.640625 
Q 12.796875 0.140625 7.71875 1.703125 
L 7.71875 11.625 
Q 12.109375 9.234375 16.796875 8.0625 
Q 21.484375 6.890625 26.703125 6.890625 
Q 35.15625 6.890625 40.078125 11.328125 
Q 45.015625 15.765625 45.015625 23.390625 
Q 45.015625 31 40.078125 35.4375 
Q 35.15625 39.890625 26.703125 39.890625 
Q 22.75 39.890625 18.8125 39.015625 
Q 14.890625 38.140625 10.796875 36.28125 
z
" id="DejaVuSans-53"/>
      </defs>
      <g transform="translate(35.96875 71.038906)scale(0.3 -0.3)">
       <use xlink:href="#DejaVuSans-53"/>
      </g>
     </g>
    </g>
    <g id="text_11">
     <!-- GLUCOSE CONC (fmol/ml) -->
     <defs>
      <path d="M 7.671875 0 
L 7.671875 71 
L 22.125 71 
L 22.125 12.0625 
L 58.0625 12.0625 
L 58.0625 0 
z
" id="Arial-BoldMT-76"/>
      <path d="M 7.171875 71.578125 
L 21.625 71.578125 
L 21.625 32.8125 
Q 21.625 23.578125 22.171875 20.84375 
Q 23.09375 16.453125 26.578125 13.796875 
Q 30.078125 11.140625 36.140625 11.140625 
Q 42.28125 11.140625 45.40625 13.640625 
Q 48.53125 16.15625 49.171875 19.8125 
Q 49.8125 23.484375 49.8125 31.984375 
L 49.8125 71.578125 
L 64.265625 71.578125 
L 64.265625 33.984375 
Q 64.265625 21.09375 63.09375 15.765625 
Q 61.921875 10.453125 58.765625 6.78125 
Q 55.609375 3.125 50.328125 0.953125 
Q 45.0625 -1.21875 36.578125 -1.21875 
Q 26.3125 -1.21875 21.015625 1.140625 
Q 15.71875 3.515625 12.640625 7.296875 
Q 9.578125 11.078125 8.59375 15.234375 
Q 7.171875 21.390625 7.171875 33.40625 
z
" id="Arial-BoldMT-85"/>
      <path d="M 4.34375 35.359375 
Q 4.34375 46.296875 7.625 53.71875 
Q 10.0625 59.1875 14.28125 63.53125 
Q 18.5 67.875 23.53125 69.96875 
Q 30.21875 72.796875 38.96875 72.796875 
Q 54.78125 72.796875 64.28125 62.984375 
Q 73.78125 53.171875 73.78125 35.6875 
Q 73.78125 18.359375 64.359375 8.5625 
Q 54.9375 -1.21875 39.15625 -1.21875 
Q 23.1875 -1.21875 13.765625 8.515625 
Q 4.34375 18.265625 4.34375 35.359375 
z
M 19.234375 35.84375 
Q 19.234375 23.6875 24.84375 17.40625 
Q 30.46875 11.140625 39.109375 11.140625 
Q 47.75 11.140625 53.296875 17.359375 
Q 58.84375 23.578125 58.84375 36.03125 
Q 58.84375 48.34375 53.4375 54.390625 
Q 48.046875 60.453125 39.109375 60.453125 
Q 30.171875 60.453125 24.703125 54.3125 
Q 19.234375 48.1875 19.234375 35.84375 
z
" id="Arial-BoldMT-79"/>
      <path d="M 29.9375 -21.046875 
L 20.515625 -21.046875 
Q 13.03125 -9.765625 9.125 2.390625 
Q 5.21875 14.546875 5.21875 25.921875 
Q 5.21875 40.046875 10.0625 52.640625 
Q 14.265625 63.578125 20.703125 72.796875 
L 30.078125 72.796875 
Q 23.390625 58.015625 20.875 47.625 
Q 18.359375 37.25 18.359375 25.640625 
Q 18.359375 17.625 19.84375 9.21875 
Q 21.34375 0.828125 23.921875 -6.734375 
Q 25.640625 -11.71875 29.9375 -21.046875 
z
" id="Arial-BoldMT-40"/>
      <path d="M 1.171875 51.859375 
L 8.796875 51.859375 
L 8.796875 55.765625 
Q 8.796875 62.3125 10.1875 65.53125 
Q 11.578125 68.75 15.3125 70.765625 
Q 19.046875 72.796875 24.75 72.796875 
Q 30.609375 72.796875 36.234375 71.046875 
L 34.375 61.46875 
Q 31.109375 62.25 28.078125 62.25 
Q 25.09375 62.25 23.796875 60.859375 
Q 22.515625 59.46875 22.515625 55.515625 
L 22.515625 51.859375 
L 32.765625 51.859375 
L 32.765625 41.0625 
L 22.515625 41.0625 
L 22.515625 0 
L 8.796875 0 
L 8.796875 41.0625 
L 1.171875 41.0625 
z
" id="Arial-BoldMT-102"/>
      <path d="M 6.15625 51.859375 
L 18.796875 51.859375 
L 18.796875 44.78125 
Q 25.59375 53.03125 34.96875 53.03125 
Q 39.9375 53.03125 43.59375 50.96875 
Q 47.265625 48.921875 49.609375 44.78125 
Q 53.03125 48.921875 56.984375 50.96875 
Q 60.9375 53.03125 65.4375 53.03125 
Q 71.140625 53.03125 75.09375 50.703125 
Q 79.046875 48.390625 81 43.890625 
Q 82.421875 40.578125 82.421875 33.15625 
L 82.421875 0 
L 68.703125 0 
L 68.703125 29.640625 
Q 68.703125 37.359375 67.28125 39.59375 
Q 65.375 42.53125 61.421875 42.53125 
Q 58.546875 42.53125 56 40.765625 
Q 53.46875 39.015625 52.34375 35.625 
Q 51.21875 32.234375 51.21875 24.90625 
L 51.21875 0 
L 37.5 0 
L 37.5 28.421875 
Q 37.5 35.984375 36.765625 38.171875 
Q 36.03125 40.375 34.484375 41.453125 
Q 32.953125 42.53125 30.328125 42.53125 
Q 27.15625 42.53125 24.609375 40.8125 
Q 22.078125 39.109375 20.96875 35.890625 
Q 19.875 32.671875 19.875 25.203125 
L 19.875 0 
L 6.15625 0 
z
" id="Arial-BoldMT-109"/>
      <path d="M 4 26.65625 
Q 4 33.5 7.375 39.890625 
Q 10.75 46.296875 16.921875 49.65625 
Q 23.09375 53.03125 30.71875 53.03125 
Q 42.484375 53.03125 50 45.390625 
Q 57.515625 37.75 57.515625 26.078125 
Q 57.515625 14.3125 49.921875 6.5625 
Q 42.328125 -1.171875 30.8125 -1.171875 
Q 23.6875 -1.171875 17.21875 2.046875 
Q 10.75 5.28125 7.375 11.5 
Q 4 17.71875 4 26.65625 
z
M 18.0625 25.921875 
Q 18.0625 18.21875 21.71875 14.109375 
Q 25.390625 10.015625 30.765625 10.015625 
Q 36.140625 10.015625 39.765625 14.109375 
Q 43.40625 18.21875 43.40625 26.03125 
Q 43.40625 33.640625 39.765625 37.734375 
Q 36.140625 41.84375 30.765625 41.84375 
Q 25.390625 41.84375 21.71875 37.734375 
Q 18.0625 33.640625 18.0625 25.921875 
z
" id="Arial-BoldMT-111"/>
      <path d="M 7.171875 0 
L 7.171875 71.578125 
L 20.90625 71.578125 
L 20.90625 0 
z
" id="Arial-BoldMT-108"/>
      <path d="M -0.140625 -1.21875 
L 17.578125 72.796875 
L 27.875 72.796875 
L 9.96875 -1.21875 
z
" id="Arial-BoldMT-47"/>
      <path d="M 3.375 -21.046875 
Q 7.421875 -12.359375 9.078125 -7.71875 
Q 10.75 -3.078125 12.15625 2.96875 
Q 13.578125 9.03125 14.25 14.46875 
Q 14.9375 19.921875 14.9375 25.640625 
Q 14.9375 37.25 12.453125 47.625 
Q 9.96875 58.015625 3.265625 72.796875 
L 12.59375 72.796875 
Q 19.96875 62.3125 24.046875 50.53125 
Q 28.125 38.765625 28.125 26.65625 
Q 28.125 16.453125 24.90625 4.78125 
Q 21.234375 -8.296875 12.84375 -21.046875 
z
" id="Arial-BoldMT-41"/>
     </defs>
     <g transform="translate(21.759375 376.565312)rotate(-90)scale(0.2 -0.2)">
      <use xlink:href="#Arial-BoldMT-71"/>
      <use x="77.783203" xlink:href="#Arial-BoldMT-76"/>
      <use x="138.867188" xlink:href="#Arial-BoldMT-85"/>
      <use x="211.083984" xlink:href="#Arial-BoldMT-67"/>
      <use x="283.300781" xlink:href="#Arial-BoldMT-79"/>
      <use x="361.083984" xlink:href="#Arial-BoldMT-83"/>
      <use x="427.783203" xlink:href="#Arial-BoldMT-69"/>
      <use x="494.482422" xlink:href="#Arial-BoldMT-32"/>
      <use x="522.265625" xlink:href="#Arial-BoldMT-67"/>
      <use x="594.482422" xlink:href="#Arial-BoldMT-79"/>
      <use x="672.265625" xlink:href="#Arial-BoldMT-78"/>
      <use x="744.482422" xlink:href="#Arial-BoldMT-67"/>
      <use x="816.699219" xlink:href="#Arial-BoldMT-32"/>
      <use x="844.482422" xlink:href="#Arial-BoldMT-40"/>
      <use x="877.783203" xlink:href="#Arial-BoldMT-102"/>
      <use x="911.083984" xlink:href="#Arial-BoldMT-109"/>
      <use x="1000" xlink:href="#Arial-BoldMT-111"/>
      <use x="1061.083984" xlink:href="#Arial-BoldMT-108"/>
      <use x="1088.867188" xlink:href="#Arial-BoldMT-47"/>
      <use x="1116.650391" xlink:href="#Arial-BoldMT-109"/>
      <use x="1205.566406" xlink:href="#Arial-BoldMT-108"/>
      <use x="1233.349609" xlink:href="#Arial-BoldMT-41"/>
     </g>
    </g>
    <g id="text_12">
     <!-- 1e9 -->
     <defs>
      <path d="M 56.203125 29.59375 
L 56.203125 25.203125 
L 14.890625 25.203125 
Q 15.484375 15.921875 20.484375 11.0625 
Q 25.484375 6.203125 34.421875 6.203125 
Q 39.59375 6.203125 44.453125 7.46875 
Q 49.3125 8.734375 54.109375 11.28125 
L 54.109375 2.78125 
Q 49.265625 0.734375 44.1875 -0.34375 
Q 39.109375 -1.421875 33.890625 -1.421875 
Q 20.796875 -1.421875 13.15625 6.1875 
Q 5.515625 13.8125 5.515625 26.8125 
Q 5.515625 40.234375 12.765625 48.109375 
Q 20.015625 56 32.328125 56 
Q 43.359375 56 49.78125 48.890625 
Q 56.203125 41.796875 56.203125 29.59375 
z
M 47.21875 32.234375 
Q 47.125 39.59375 43.09375 43.984375 
Q 39.0625 48.390625 32.421875 48.390625 
Q 24.90625 48.390625 20.390625 44.140625 
Q 15.875 39.890625 15.1875 32.171875 
z
" id="DejaVuSans-101"/>
      <path d="M 10.984375 1.515625 
L 10.984375 10.5 
Q 14.703125 8.734375 18.5 7.8125 
Q 22.3125 6.890625 25.984375 6.890625 
Q 35.75 6.890625 40.890625 13.453125 
Q 46.046875 20.015625 46.78125 33.40625 
Q 43.953125 29.203125 39.59375 26.953125 
Q 35.25 24.703125 29.984375 24.703125 
Q 19.046875 24.703125 12.671875 31.3125 
Q 6.296875 37.9375 6.296875 49.421875 
Q 6.296875 60.640625 12.9375 67.421875 
Q 19.578125 74.21875 30.609375 74.21875 
Q 43.265625 74.21875 49.921875 64.515625 
Q 56.59375 54.828125 56.59375 36.375 
Q 56.59375 19.140625 48.40625 8.859375 
Q 40.234375 -1.421875 26.421875 -1.421875 
Q 22.703125 -1.421875 18.890625 -0.6875 
Q 15.09375 0.046875 10.984375 1.515625 
z
M 30.609375 32.421875 
Q 37.25 32.421875 41.125 36.953125 
Q 45.015625 41.5 45.015625 49.421875 
Q 45.015625 57.28125 41.125 61.84375 
Q 37.25 66.40625 30.609375 66.40625 
Q 23.96875 66.40625 20.09375 61.84375 
Q 16.21875 57.28125 16.21875 49.421875 
Q 16.21875 41.5 20.09375 36.953125 
Q 23.96875 32.421875 30.609375 32.421875 
z
" id="DejaVuSans-57"/>
     </defs>
     <g transform="translate(62.05625 56.64125)scale(0.1 -0.1)">
      <use xlink:href="#DejaVuSans-49"/>
      <use x="63.623047" xlink:href="#DejaVuSans-101"/>
      <use x="125.146484" xlink:href="#DejaVuSans-57"/>
     </g>
    </g>
   </g>
   <g id="line2d_10">
    <path clip-path="url(#p29a2fffa53)" d="M 83.75625 70.337925 
L 83.75625 69.538129 
" style="fill:none;stroke:#424242;stroke-linecap:square;stroke-width:2.7;"/>
   </g>
   <g id="line2d_11">
    <path clip-path="url(#p29a2fffa53)" d="M 77.24625 70.337925 
L 90.26625 70.337925 
" style="fill:none;stroke:#424242;stroke-linecap:square;stroke-width:2.7;"/>
   </g>
   <g id="line2d_12">
    <path clip-path="url(#p29a2fffa53)" d="M 77.24625 69.538129 
L 90.26625 69.538129 
" style="fill:none;stroke:#424242;stroke-linecap:square;stroke-width:2.7;"/>
   </g>
   <g id="line2d_13">
    <path clip-path="url(#p29a2fffa53)" d="M 213.95625 83.488561 
L 213.95625 82.475409 
" style="fill:none;stroke:#424242;stroke-linecap:square;stroke-width:2.7;"/>
   </g>
   <g id="line2d_14">
    <path clip-path="url(#p29a2fffa53)" d="M 207.44625 83.488561 
L 220.46625 83.488561 
" style="fill:none;stroke:#424242;stroke-linecap:square;stroke-width:2.7;"/>
   </g>
   <g id="line2d_15">
    <path clip-path="url(#p29a2fffa53)" d="M 207.44625 82.475409 
L 220.46625 82.475409 
" style="fill:none;stroke:#424242;stroke-linecap:square;stroke-width:2.7;"/>
   </g>
   <g id="line2d_16">
    <path clip-path="url(#p29a2fffa53)" d="M 344.15625 79.970771 
L 344.15625 79.443732 
" style="fill:none;stroke:#424242;stroke-linecap:square;stroke-width:2.7;"/>
   </g>
   <g id="line2d_17">
    <path clip-path="url(#p29a2fffa53)" d="M 337.64625 79.970771 
L 350.66625 79.970771 
" style="fill:none;stroke:#424242;stroke-linecap:square;stroke-width:2.7;"/>
   </g>
   <g id="line2d_18">
    <path clip-path="url(#p29a2fffa53)" d="M 337.64625 79.443732 
L 350.66625 79.443732 
" style="fill:none;stroke:#424242;stroke-linecap:square;stroke-width:2.7;"/>
   </g>
   <g id="line2d_19">
    <path clip-path="url(#p29a2fffa53)" d="M 101.11625 71.462531 
L 101.11625 70.604369 
" style="fill:none;stroke:#424242;stroke-linecap:square;stroke-width:2.7;"/>
   </g>
   <g id="line2d_20">
    <path clip-path="url(#p29a2fffa53)" d="M 94.60625 71.462531 
L 107.62625 71.462531 
" style="fill:none;stroke:#424242;stroke-linecap:square;stroke-width:2.7;"/>
   </g>
   <g id="line2d_21">
    <path clip-path="url(#p29a2fffa53)" d="M 94.60625 70.604369 
L 107.62625 70.604369 
" style="fill:none;stroke:#424242;stroke-linecap:square;stroke-width:2.7;"/>
   </g>
   <g id="line2d_22">
    <path clip-path="url(#p29a2fffa53)" d="M 231.31625 91.317133 
L 231.31625 89.678777 
" style="fill:none;stroke:#424242;stroke-linecap:square;stroke-width:2.7;"/>
   </g>
   <g id="line2d_23">
    <path clip-path="url(#p29a2fffa53)" d="M 224.80625 91.317133 
L 237.82625 91.317133 
" style="fill:none;stroke:#424242;stroke-linecap:square;stroke-width:2.7;"/>
   </g>
   <g id="line2d_24">
    <path clip-path="url(#p29a2fffa53)" d="M 224.80625 89.678777 
L 237.82625 89.678777 
" style="fill:none;stroke:#424242;stroke-linecap:square;stroke-width:2.7;"/>
   </g>
   <g id="line2d_25">
    <path clip-path="url(#p29a2fffa53)" d="M 361.51625 89.756857 
L 361.51625 87.920543 
" style="fill:none;stroke:#424242;stroke-linecap:square;stroke-width:2.7;"/>
   </g>
   <g id="line2d_26">
    <path clip-path="url(#p29a2fffa53)" d="M 355.00625 89.756857 
L 368.02625 89.756857 
" style="fill:none;stroke:#424242;stroke-linecap:square;stroke-width:2.7;"/>
   </g>
   <g id="line2d_27">
    <path clip-path="url(#p29a2fffa53)" d="M 355.00625 87.920543 
L 368.02625 87.920543 
" style="fill:none;stroke:#424242;stroke-linecap:square;stroke-width:2.7;"/>
   </g>
   <g id="line2d_28">
    <path clip-path="url(#p29a2fffa53)" d="M 118.47625 71.46269 
L 118.47625 70.643666 
" style="fill:none;stroke:#424242;stroke-linecap:square;stroke-width:2.7;"/>
   </g>
   <g id="line2d_29">
    <path clip-path="url(#p29a2fffa53)" d="M 111.96625 71.46269 
L 124.98625 71.46269 
" style="fill:none;stroke:#424242;stroke-linecap:square;stroke-width:2.7;"/>
   </g>
   <g id="line2d_30">
    <path clip-path="url(#p29a2fffa53)" d="M 111.96625 70.643666 
L 124.98625 70.643666 
" style="fill:none;stroke:#424242;stroke-linecap:square;stroke-width:2.7;"/>
   </g>
   <g id="line2d_31">
    <path clip-path="url(#p29a2fffa53)" d="M 248.67625 92.475673 
L 248.67625 91.170912 
" style="fill:none;stroke:#424242;stroke-linecap:square;stroke-width:2.7;"/>
   </g>
   <g id="line2d_32">
    <path clip-path="url(#p29a2fffa53)" d="M 242.16625 92.475673 
L 255.18625 92.475673 
" style="fill:none;stroke:#424242;stroke-linecap:square;stroke-width:2.7;"/>
   </g>
   <g id="line2d_33">
    <path clip-path="url(#p29a2fffa53)" d="M 242.16625 91.170912 
L 255.18625 91.170912 
" style="fill:none;stroke:#424242;stroke-linecap:square;stroke-width:2.7;"/>
   </g>
   <g id="line2d_34">
    <path clip-path="url(#p29a2fffa53)" d="M 378.87625 104.613159 
L 378.87625 100.671222 
" style="fill:none;stroke:#424242;stroke-linecap:square;stroke-width:2.7;"/>
   </g>
   <g id="line2d_35">
    <path clip-path="url(#p29a2fffa53)" d="M 372.36625 104.613159 
L 385.38625 104.613159 
" style="fill:none;stroke:#424242;stroke-linecap:square;stroke-width:2.7;"/>
   </g>
   <g id="line2d_36">
    <path clip-path="url(#p29a2fffa53)" d="M 372.36625 100.671222 
L 385.38625 100.671222 
" style="fill:none;stroke:#424242;stroke-linecap:square;stroke-width:2.7;"/>
   </g>
   <g id="line2d_37">
    <path clip-path="url(#p29a2fffa53)" d="M 135.83625 71.426948 
L 135.83625 70.671872 
" style="fill:none;stroke:#424242;stroke-linecap:square;stroke-width:2.7;"/>
   </g>
   <g id="line2d_38">
    <path clip-path="url(#p29a2fffa53)" d="M 129.32625 71.426948 
L 142.34625 71.426948 
" style="fill:none;stroke:#424242;stroke-linecap:square;stroke-width:2.7;"/>
   </g>
   <g id="line2d_39">
    <path clip-path="url(#p29a2fffa53)" d="M 129.32625 70.671872 
L 142.34625 70.671872 
" style="fill:none;stroke:#424242;stroke-linecap:square;stroke-width:2.7;"/>
   </g>
   <g id="line2d_40">
    <path clip-path="url(#p29a2fffa53)" d="M 266.03625 94.548803 
L 266.03625 92.680772 
" style="fill:none;stroke:#424242;stroke-linecap:square;stroke-width:2.7;"/>
   </g>
   <g id="line2d_41">
    <path clip-path="url(#p29a2fffa53)" d="M 259.52625 94.548803 
L 272.54625 94.548803 
" style="fill:none;stroke:#424242;stroke-linecap:square;stroke-width:2.7;"/>
   </g>
   <g id="line2d_42">
    <path clip-path="url(#p29a2fffa53)" d="M 259.52625 92.680772 
L 272.54625 92.680772 
" style="fill:none;stroke:#424242;stroke-linecap:square;stroke-width:2.7;"/>
   </g>
   <g id="line2d_43">
    <path clip-path="url(#p29a2fffa53)" d="M 396.23625 107.662777 
L 396.23625 104.614034 
" style="fill:none;stroke:#424242;stroke-linecap:square;stroke-width:2.7;"/>
   </g>
   <g id="line2d_44">
    <path clip-path="url(#p29a2fffa53)" d="M 389.72625 107.662777 
L 402.74625 107.662777 
" style="fill:none;stroke:#424242;stroke-linecap:square;stroke-width:2.7;"/>
   </g>
   <g id="line2d_45">
    <path clip-path="url(#p29a2fffa53)" d="M 389.72625 104.614034 
L 402.74625 104.614034 
" style="fill:none;stroke:#424242;stroke-linecap:square;stroke-width:2.7;"/>
   </g>
   <g id="line2d_46">
    <path clip-path="url(#p29a2fffa53)" d="M 153.19625 71.368619 
L 153.19625 70.395241 
" style="fill:none;stroke:#424242;stroke-linecap:square;stroke-width:2.7;"/>
   </g>
   <g id="line2d_47">
    <path clip-path="url(#p29a2fffa53)" d="M 146.68625 71.368619 
L 159.70625 71.368619 
" style="fill:none;stroke:#424242;stroke-linecap:square;stroke-width:2.7;"/>
   </g>
   <g id="line2d_48">
    <path clip-path="url(#p29a2fffa53)" d="M 146.68625 70.395241 
L 159.70625 70.395241 
" style="fill:none;stroke:#424242;stroke-linecap:square;stroke-width:2.7;"/>
   </g>
   <g id="line2d_49">
    <path clip-path="url(#p29a2fffa53)" d="M 283.39625 108.42284 
L 283.39625 103.966011 
" style="fill:none;stroke:#424242;stroke-linecap:square;stroke-width:2.7;"/>
   </g>
   <g id="line2d_50">
    <path clip-path="url(#p29a2fffa53)" d="M 276.88625 108.42284 
L 289.90625 108.42284 
" style="fill:none;stroke:#424242;stroke-linecap:square;stroke-width:2.7;"/>
   </g>
   <g id="line2d_51">
    <path clip-path="url(#p29a2fffa53)" d="M 276.88625 103.966011 
L 289.90625 103.966011 
" style="fill:none;stroke:#424242;stroke-linecap:square;stroke-width:2.7;"/>
   </g>
   <g id="line2d_52">
    <path clip-path="url(#p29a2fffa53)" d="M 413.59625 114.872158 
L 413.59625 109.971005 
" style="fill:none;stroke:#424242;stroke-linecap:square;stroke-width:2.7;"/>
   </g>
   <g id="line2d_53">
    <path clip-path="url(#p29a2fffa53)" d="M 407.08625 114.872158 
L 420.10625 114.872158 
" style="fill:none;stroke:#424242;stroke-linecap:square;stroke-width:2.7;"/>
   </g>
   <g id="line2d_54">
    <path clip-path="url(#p29a2fffa53)" d="M 407.08625 109.971005 
L 420.10625 109.971005 
" style="fill:none;stroke:#424242;stroke-linecap:square;stroke-width:2.7;"/>
   </g>
   <g id="line2d_55">
    <path clip-path="url(#p29a2fffa53)" d="M 170.55625 70.987042 
L 170.55625 70.250166 
" style="fill:none;stroke:#424242;stroke-linecap:square;stroke-width:2.7;"/>
   </g>
   <g id="line2d_56">
    <path clip-path="url(#p29a2fffa53)" d="M 164.04625 70.987042 
L 177.06625 70.987042 
" style="fill:none;stroke:#424242;stroke-linecap:square;stroke-width:2.7;"/>
   </g>
   <g id="line2d_57">
    <path clip-path="url(#p29a2fffa53)" d="M 164.04625 70.250166 
L 177.06625 70.250166 
" style="fill:none;stroke:#424242;stroke-linecap:square;stroke-width:2.7;"/>
   </g>
   <g id="line2d_58">
    <path clip-path="url(#p29a2fffa53)" d="M 300.75625 115.989553 
L 300.75625 111.07648 
" style="fill:none;stroke:#424242;stroke-linecap:square;stroke-width:2.7;"/>
   </g>
   <g id="line2d_59">
    <path clip-path="url(#p29a2fffa53)" d="M 294.24625 115.989553 
L 307.26625 115.989553 
" style="fill:none;stroke:#424242;stroke-linecap:square;stroke-width:2.7;"/>
   </g>
   <g id="line2d_60">
    <path clip-path="url(#p29a2fffa53)" d="M 294.24625 111.07648 
L 307.26625 111.07648 
" style="fill:none;stroke:#424242;stroke-linecap:square;stroke-width:2.7;"/>
   </g>
   <g id="line2d_61">
    <path clip-path="url(#p29a2fffa53)" d="M 430.95625 115.841221 
L 430.95625 112.897112 
" style="fill:none;stroke:#424242;stroke-linecap:square;stroke-width:2.7;"/>
   </g>
   <g id="line2d_62">
    <path clip-path="url(#p29a2fffa53)" d="M 424.44625 115.841221 
L 437.46625 115.841221 
" style="fill:none;stroke:#424242;stroke-linecap:square;stroke-width:2.7;"/>
   </g>
   <g id="line2d_63">
    <path clip-path="url(#p29a2fffa53)" d="M 424.44625 112.897112 
L 437.46625 112.897112 
" style="fill:none;stroke:#424242;stroke-linecap:square;stroke-width:2.7;"/>
   </g>
   <g id="patch_21">
    <path d="M 62.05625 440.16125 
L 62.05625 59.64125 
" style="fill:none;stroke:#000000;stroke-linecap:square;stroke-linejoin:miter;stroke-width:0.8;"/>
   </g>
   <g id="patch_22">
    <path d="M 452.65625 440.16125 
L 452.65625 59.64125 
" style="fill:none;stroke:#000000;stroke-linecap:square;stroke-linejoin:miter;stroke-width:0.8;"/>
   </g>
   <g id="patch_23">
    <path d="M 62.05625 440.16125 
L 452.65625 440.16125 
" style="fill:none;stroke:#000000;stroke-linecap:square;stroke-linejoin:miter;stroke-width:0.8;"/>
   </g>
   <g id="patch_24">
    <path d="M 62.05625 59.64125 
L 452.65625 59.64125 
" style="fill:none;stroke:#000000;stroke-linecap:square;stroke-linejoin:miter;stroke-width:0.8;"/>
   </g>
   <g id="PathCollection_7">
    <defs>
     <path d="M 0 2.5 
C 0.663008 2.5 1.29895 2.236584 1.767767 1.767767 
C 2.236584 1.29895 2.5 0.663008 2.5 0 
C 2.5 -0.663008 2.236584 -1.29895 1.767767 -1.767767 
C 1.29895 -2.236584 0.663008 -2.5 0 -2.5 
C -0.663008 -2.5 -1.29895 -2.236584 -1.767767 -1.767767 
C -2.236584 -1.29895 -2.5 -0.663008 -2.5 0 
C -2.5 0.663008 -2.236584 1.29895 -1.767767 1.767767 
C -1.29895 2.236584 -0.663008 2.5 0 2.5 
z
" id="C0_0_4c281c8ec9"/>
    </defs>
    <g clip-path="url(#p29a2fffa53)">
     <use style="fill:#222222;" x="83.75625" xlink:href="#C0_0_4c281c8ec9" y="70.458237"/>
    </g>
    <g clip-path="url(#p29a2fffa53)">
     <use style="fill:#222222;" x="78.506252" xlink:href="#C0_0_4c281c8ec9" y="70.454013"/>
    </g>
    <g clip-path="url(#p29a2fffa53)">
     <use style="fill:#222222;" x="89.005817" xlink:href="#C0_0_4c281c8ec9" y="70.392104"/>
    </g>
    <g clip-path="url(#p29a2fffa53)">
     <use style="fill:#222222;" x="75.24985" xlink:href="#C0_0_4c281c8ec9" y="70.214657"/>
    </g>
    <g clip-path="url(#p29a2fffa53)">
     <use style="fill:#222222;" x="92.26265" xlink:href="#C0_0_4c281c8ec9" y="69.988924"/>
    </g>
    <g clip-path="url(#p29a2fffa53)">
     <use style="fill:#222222;" x="75.24985" xlink:href="#C0_0_4c281c8ec9" y="69.745257"/>
    </g>
    <g clip-path="url(#p29a2fffa53)">
     <use style="fill:#222222;" x="92.26265" xlink:href="#C0_0_4c281c8ec9" y="69.734135"/>
    </g>
    <g clip-path="url(#p29a2fffa53)">
     <use style="fill:#222222;" x="75.24985" xlink:href="#C0_0_4c281c8ec9" y="69.577294"/>
    </g>
    <g clip-path="url(#p29a2fffa53)">
     <use style="fill:#222222;" x="92.26265" xlink:href="#C0_0_4c281c8ec9" y="69.462273"/>
    </g>
    <g clip-path="url(#p29a2fffa53)">
     <use style="fill:#222222;" x="75.24985" xlink:href="#C0_0_4c281c8ec9" y="69.353373"/>
    </g>
   </g>
   <g id="PathCollection_8">
    <defs>
     <path d="M 0 2.5 
C 0.663008 2.5 1.29895 2.236584 1.767767 1.767767 
C 2.236584 1.29895 2.5 0.663008 2.5 0 
C 2.5 -0.663008 2.236584 -1.29895 1.767767 -1.767767 
C 1.29895 -2.236584 0.663008 -2.5 0 -2.5 
C -0.663008 -2.5 -1.29895 -2.236584 -1.767767 -1.767767 
C -2.236584 -1.29895 -2.5 -0.663008 -2.5 0 
C -2.5 0.663008 -2.236584 1.29895 -1.767767 1.767767 
C -1.29895 2.236584 -0.663008 2.5 0 2.5 
z
" id="C1_0_129e784015"/>
    </defs>
    <g clip-path="url(#p29a2fffa53)">
     <use style="fill:#1b1b1b;" x="101.11625" xlink:href="#C1_0_129e784015" y="71.704595"/>
    </g>
    <g clip-path="url(#p29a2fffa53)">
     <use style="fill:#1b1b1b;" x="95.866938" xlink:href="#C1_0_129e784015" y="71.621217"/>
    </g>
    <g clip-path="url(#p29a2fffa53)">
     <use style="fill:#1b1b1b;" x="106.358733" xlink:href="#C1_0_129e784015" y="71.429025"/>
    </g>
    <g clip-path="url(#p29a2fffa53)">
     <use style="fill:#1b1b1b;" x="92.60985" xlink:href="#C1_0_129e784015" y="71.247439"/>
    </g>
    <g clip-path="url(#p29a2fffa53)">
     <use style="fill:#1b1b1b;" x="109.62265" xlink:href="#C1_0_129e784015" y="71.072233"/>
    </g>
    <g clip-path="url(#p29a2fffa53)">
     <use style="fill:#1b1b1b;" x="92.60985" xlink:href="#C1_0_129e784015" y="70.901942"/>
    </g>
    <g clip-path="url(#p29a2fffa53)">
     <use style="fill:#1b1b1b;" x="109.62265" xlink:href="#C1_0_129e784015" y="70.74812"/>
    </g>
    <g clip-path="url(#p29a2fffa53)">
     <use style="fill:#1b1b1b;" x="92.60985" xlink:href="#C1_0_129e784015" y="70.557825"/>
    </g>
    <g clip-path="url(#p29a2fffa53)">
     <use style="fill:#1b1b1b;" x="109.62265" xlink:href="#C1_0_129e784015" y="70.55429"/>
    </g>
    <g clip-path="url(#p29a2fffa53)">
     <use style="fill:#1b1b1b;" x="92.60985" xlink:href="#C1_0_129e784015" y="70.497814"/>
    </g>
   </g>
   <g id="PathCollection_9">
    <defs>
     <path d="M 0 2.5 
C 0.663008 2.5 1.29895 2.236584 1.767767 1.767767 
C 2.236584 1.29895 2.5 0.663008 2.5 0 
C 2.5 -0.663008 2.236584 -1.29895 1.767767 -1.767767 
C 1.29895 -2.236584 0.663008 -2.5 0 -2.5 
C -0.663008 -2.5 -1.29895 -2.236584 -1.767767 -1.767767 
C -2.236584 -1.29895 -2.5 -0.663008 -2.5 0 
C -2.5 0.663008 -2.236584 1.29895 -1.767767 1.767767 
C -1.29895 2.236584 -0.663008 2.5 0 2.5 
z
" id="C2_0_6d754129a0"/>
    </defs>
    <g clip-path="url(#p29a2fffa53)">
     <use style="fill:#141414;" x="118.47625" xlink:href="#C2_0_6d754129a0" y="71.715373"/>
    </g>
    <g clip-path="url(#p29a2fffa53)">
     <use style="fill:#141414;" x="113.228152" xlink:href="#C2_0_6d754129a0" y="71.576726"/>
    </g>
    <g clip-path="url(#p29a2fffa53)">
     <use style="fill:#141414;" x="123.722993" xlink:href="#C2_0_6d754129a0" y="71.533959"/>
    </g>
    <g clip-path="url(#p29a2fffa53)">
     <use style="fill:#141414;" x="109.96985" xlink:href="#C2_0_6d754129a0" y="71.18303"/>
    </g>
    <g clip-path="url(#p29a2fffa53)">
     <use style="fill:#141414;" x="126.98265" xlink:href="#C2_0_6d754129a0" y="71.064473"/>
    </g>
    <g clip-path="url(#p29a2fffa53)">
     <use style="fill:#141414;" x="126.98265" xlink:href="#C2_0_6d754129a0" y="70.868315"/>
    </g>
    <g clip-path="url(#p29a2fffa53)">
     <use style="fill:#141414;" x="109.96985" xlink:href="#C2_0_6d754129a0" y="70.762864"/>
    </g>
    <g clip-path="url(#p29a2fffa53)">
     <use style="fill:#141414;" x="109.96985" xlink:href="#C2_0_6d754129a0" y="70.654482"/>
    </g>
    <g clip-path="url(#p29a2fffa53)">
     <use style="fill:#141414;" x="126.98265" xlink:href="#C2_0_6d754129a0" y="70.624045"/>
    </g>
    <g clip-path="url(#p29a2fffa53)">
     <use style="fill:#141414;" x="109.96985" xlink:href="#C2_0_6d754129a0" y="70.548513"/>
    </g>
   </g>
   <g id="PathCollection_10">
    <defs>
     <path d="M 0 2.5 
C 0.663008 2.5 1.29895 2.236584 1.767767 1.767767 
C 2.236584 1.29895 2.5 0.663008 2.5 0 
C 2.5 -0.663008 2.236584 -1.29895 1.767767 -1.767767 
C 1.29895 -2.236584 0.663008 -2.5 0 -2.5 
C -0.663008 -2.5 -1.29895 -2.236584 -1.767767 -1.767767 
C -2.236584 -1.29895 -2.5 -0.663008 -2.5 0 
C -2.5 0.663008 -2.236584 1.29895 -1.767767 1.767767 
C -1.29895 2.236584 -0.663008 2.5 0 2.5 
z
" id="C3_0_a38ef5d13b"/>
    </defs>
    <g clip-path="url(#p29a2fffa53)">
     <use style="fill:#0e0e0e;" x="135.83625" xlink:href="#C3_0_a38ef5d13b" y="71.660017"/>
    </g>
    <g clip-path="url(#p29a2fffa53)">
     <use style="fill:#0e0e0e;" x="130.587214" xlink:href="#C3_0_a38ef5d13b" y="71.561292"/>
    </g>
    <g clip-path="url(#p29a2fffa53)">
     <use style="fill:#0e0e0e;" x="141.080547" xlink:href="#C3_0_a38ef5d13b" y="71.419972"/>
    </g>
    <g clip-path="url(#p29a2fffa53)">
     <use style="fill:#0e0e0e;" x="127.32985" xlink:href="#C3_0_a38ef5d13b" y="71.153973"/>
    </g>
    <g clip-path="url(#p29a2fffa53)">
     <use style="fill:#0e0e0e;" x="144.34265" xlink:href="#C3_0_a38ef5d13b" y="71.091892"/>
    </g>
    <g clip-path="url(#p29a2fffa53)">
     <use style="fill:#0e0e0e;" x="127.32985" xlink:href="#C3_0_a38ef5d13b" y="70.92117"/>
    </g>
    <g clip-path="url(#p29a2fffa53)">
     <use style="fill:#0e0e0e;" x="144.34265" xlink:href="#C3_0_a38ef5d13b" y="70.865298"/>
    </g>
    <g clip-path="url(#p29a2fffa53)">
     <use style="fill:#0e0e0e;" x="127.32985" xlink:href="#C3_0_a38ef5d13b" y="70.632236"/>
    </g>
    <g clip-path="url(#p29a2fffa53)">
     <use style="fill:#0e0e0e;" x="144.34265" xlink:href="#C3_0_a38ef5d13b" y="70.621372"/>
    </g>
    <g clip-path="url(#p29a2fffa53)">
     <use style="fill:#0e0e0e;" x="127.32985" xlink:href="#C3_0_a38ef5d13b" y="70.566879"/>
    </g>
   </g>
   <g id="PathCollection_11">
    <defs>
     <path d="M 0 2.5 
C 0.663008 2.5 1.29895 2.236584 1.767767 1.767767 
C 2.236584 1.29895 2.5 0.663008 2.5 0 
C 2.5 -0.663008 2.236584 -1.29895 1.767767 -1.767767 
C 1.29895 -2.236584 0.663008 -2.5 0 -2.5 
C -0.663008 -2.5 -1.29895 -2.236584 -1.767767 -1.767767 
C -2.236584 -1.29895 -2.5 -0.663008 -2.5 0 
C -2.5 0.663008 -2.236584 1.29895 -1.767767 1.767767 
C -1.29895 2.236584 -0.663008 2.5 0 2.5 
z
" id="C4_0_32a8165185"/>
    </defs>
    <g clip-path="url(#p29a2fffa53)">
     <use style="fill:#070707;" x="153.19625" xlink:href="#C4_0_32a8165185" y="71.722443"/>
    </g>
    <g clip-path="url(#p29a2fffa53)">
     <use style="fill:#070707;" x="147.953136" xlink:href="#C4_0_32a8165185" y="71.458686"/>
    </g>
    <g clip-path="url(#p29a2fffa53)">
     <use style="fill:#070707;" x="158.434652" xlink:href="#C4_0_32a8165185" y="71.380223"/>
    </g>
    <g clip-path="url(#p29a2fffa53)">
     <use style="fill:#070707;" x="144.68985" xlink:href="#C4_0_32a8165185" y="70.924792"/>
    </g>
    <g clip-path="url(#p29a2fffa53)">
     <use style="fill:#070707;" x="161.70265" xlink:href="#C4_0_32a8165185" y="70.855468"/>
    </g>
    <g clip-path="url(#p29a2fffa53)">
     <use style="fill:#070707;" x="161.70265" xlink:href="#C4_0_32a8165185" y="70.729323"/>
    </g>
    <g clip-path="url(#p29a2fffa53)">
     <use style="fill:#070707;" x="144.68985" xlink:href="#C4_0_32a8165185" y="70.728806"/>
    </g>
    <g clip-path="url(#p29a2fffa53)">
     <use style="fill:#070707;" x="161.70265" xlink:href="#C4_0_32a8165185" y="70.634478"/>
    </g>
    <g clip-path="url(#p29a2fffa53)">
     <use style="fill:#070707;" x="144.68985" xlink:href="#C4_0_32a8165185" y="70.29312"/>
    </g>
    <g clip-path="url(#p29a2fffa53)">
     <use style="fill:#070707;" x="161.70265" xlink:href="#C4_0_32a8165185" y="70.091961"/>
    </g>
   </g>
   <g id="PathCollection_12">
    <defs>
     <path d="M 0 2.5 
C 0.663008 2.5 1.29895 2.236584 1.767767 1.767767 
C 2.236584 1.29895 2.5 0.663008 2.5 0 
C 2.5 -0.663008 2.236584 -1.29895 1.767767 -1.767767 
C 1.29895 -2.236584 0.663008 -2.5 0 -2.5 
C -0.663008 -2.5 -1.29895 -2.236584 -1.767767 -1.767767 
C -2.236584 -1.29895 -2.5 -0.663008 -2.5 0 
C -2.5 0.663008 -2.236584 1.29895 -1.767767 1.767767 
C -1.29895 2.236584 -0.663008 2.5 0 2.5 
z
" id="C5_0_8778558d68"/>
    </defs>
    <g clip-path="url(#p29a2fffa53)">
     <use x="170.55625" xlink:href="#C5_0_8778558d68" y="71.175787"/>
    </g>
    <g clip-path="url(#p29a2fffa53)">
     <use x="165.306369" xlink:href="#C5_0_8778558d68" y="71.141126"/>
    </g>
    <g clip-path="url(#p29a2fffa53)">
     <use x="175.802741" xlink:href="#C5_0_8778558d68" y="70.987476"/>
    </g>
    <g clip-path="url(#p29a2fffa53)">
     <use x="162.04985" xlink:href="#C5_0_8778558d68" y="70.662932"/>
    </g>
    <g clip-path="url(#p29a2fffa53)">
     <use x="179.06265" xlink:href="#C5_0_8778558d68" y="70.616888"/>
    </g>
    <g clip-path="url(#p29a2fffa53)">
     <use x="162.04985" xlink:href="#C5_0_8778558d68" y="70.58283"/>
    </g>
    <g clip-path="url(#p29a2fffa53)">
     <use x="179.06265" xlink:href="#C5_0_8778558d68" y="70.370807"/>
    </g>
    <g clip-path="url(#p29a2fffa53)">
     <use x="162.04985" xlink:href="#C5_0_8778558d68" y="70.361926"/>
    </g>
    <g clip-path="url(#p29a2fffa53)">
     <use x="179.06265" xlink:href="#C5_0_8778558d68" y="70.30933"/>
    </g>
    <g clip-path="url(#p29a2fffa53)">
     <use x="162.04985" xlink:href="#C5_0_8778558d68" y="69.976939"/>
    </g>
   </g>
   <g id="PathCollection_13">
    <defs>
     <path d="M 0 2.5 
C 0.663008 2.5 1.29895 2.236584 1.767767 1.767767 
C 2.236584 1.29895 2.5 0.663008 2.5 0 
C 2.5 -0.663008 2.236584 -1.29895 1.767767 -1.767767 
C 1.29895 -2.236584 0.663008 -2.5 0 -2.5 
C -0.663008 -2.5 -1.29895 -2.236584 -1.767767 -1.767767 
C -2.236584 -1.29895 -2.5 -0.663008 -2.5 0 
C -2.5 0.663008 -2.236584 1.29895 -1.767767 1.767767 
C -1.29895 2.236584 -0.663008 2.5 0 2.5 
z
" id="C6_0_22a8abb08f"/>
    </defs>
    <g clip-path="url(#p29a2fffa53)">
     <use style="fill:#222222;" x="213.95625" xlink:href="#C6_0_22a8abb08f" y="83.766884"/>
    </g>
    <g clip-path="url(#p29a2fffa53)">
     <use style="fill:#222222;" x="208.707612" xlink:href="#C6_0_22a8abb08f" y="83.649534"/>
    </g>
    <g clip-path="url(#p29a2fffa53)">
     <use style="fill:#222222;" x="219.200373" xlink:href="#C6_0_22a8abb08f" y="83.523217"/>
    </g>
    <g clip-path="url(#p29a2fffa53)">
     <use style="fill:#222222;" x="205.44985" xlink:href="#C6_0_22a8abb08f" y="83.042522"/>
    </g>
    <g clip-path="url(#p29a2fffa53)">
     <use style="fill:#222222;" x="222.46265" xlink:href="#C6_0_22a8abb08f" y="82.997169"/>
    </g>
    <g clip-path="url(#p29a2fffa53)">
     <use style="fill:#222222;" x="205.44985" xlink:href="#C6_0_22a8abb08f" y="82.943193"/>
    </g>
    <g clip-path="url(#p29a2fffa53)">
     <use style="fill:#222222;" x="222.46265" xlink:href="#C6_0_22a8abb08f" y="82.749277"/>
    </g>
    <g clip-path="url(#p29a2fffa53)">
     <use style="fill:#222222;" x="205.44985" xlink:href="#C6_0_22a8abb08f" y="82.553464"/>
    </g>
    <g clip-path="url(#p29a2fffa53)">
     <use style="fill:#222222;" x="222.46265" xlink:href="#C6_0_22a8abb08f" y="82.42137"/>
    </g>
    <g clip-path="url(#p29a2fffa53)">
     <use style="fill:#222222;" x="205.44985" xlink:href="#C6_0_22a8abb08f" y="82.17322"/>
    </g>
   </g>
   <g id="PathCollection_14">
    <defs>
     <path d="M 0 2.5 
C 0.663008 2.5 1.29895 2.236584 1.767767 1.767767 
C 2.236584 1.29895 2.5 0.663008 2.5 0 
C 2.5 -0.663008 2.236584 -1.29895 1.767767 -1.767767 
C 1.29895 -2.236584 0.663008 -2.5 0 -2.5 
C -0.663008 -2.5 -1.29895 -2.236584 -1.767767 -1.767767 
C -2.236584 -1.29895 -2.5 -0.663008 -2.5 0 
C -2.5 0.663008 -2.236584 1.29895 -1.767767 1.767767 
C -1.29895 2.236584 -0.663008 2.5 0 2.5 
z
" id="C7_0_90742704d1"/>
    </defs>
    <g clip-path="url(#p29a2fffa53)">
     <use style="fill:#1b1b1b;" x="231.31625" xlink:href="#C7_0_90742704d1" y="91.762022"/>
    </g>
    <g clip-path="url(#p29a2fffa53)">
     <use style="fill:#1b1b1b;" x="226.075674" xlink:href="#C7_0_90742704d1" y="91.453515"/>
    </g>
    <g clip-path="url(#p29a2fffa53)">
     <use style="fill:#1b1b1b;" x="236.554803" xlink:href="#C7_0_90742704d1" y="91.422044"/>
    </g>
    <g clip-path="url(#p29a2fffa53)">
     <use style="fill:#1b1b1b;" x="222.80985" xlink:href="#C7_0_90742704d1" y="90.595163"/>
    </g>
    <g clip-path="url(#p29a2fffa53)">
     <use style="fill:#1b1b1b;" x="239.82265" xlink:href="#C7_0_90742704d1" y="90.433408"/>
    </g>
    <g clip-path="url(#p29a2fffa53)">
     <use style="fill:#1b1b1b;" x="239.82265" xlink:href="#C7_0_90742704d1" y="90.2989"/>
    </g>
    <g clip-path="url(#p29a2fffa53)">
     <use style="fill:#1b1b1b;" x="222.80985" xlink:href="#C7_0_90742704d1" y="90.199139"/>
    </g>
    <g clip-path="url(#p29a2fffa53)">
     <use style="fill:#1b1b1b;" x="239.82265" xlink:href="#C7_0_90742704d1" y="90.180774"/>
    </g>
    <g clip-path="url(#p29a2fffa53)">
     <use style="fill:#1b1b1b;" x="222.80985" xlink:href="#C7_0_90742704d1" y="89.713875"/>
    </g>
    <g clip-path="url(#p29a2fffa53)">
     <use style="fill:#1b1b1b;" x="239.82265" xlink:href="#C7_0_90742704d1" y="88.920707"/>
    </g>
   </g>
   <g id="PathCollection_15">
    <defs>
     <path d="M 0 2.5 
C 0.663008 2.5 1.29895 2.236584 1.767767 1.767767 
C 2.236584 1.29895 2.5 0.663008 2.5 0 
C 2.5 -0.663008 2.236584 -1.29895 1.767767 -1.767767 
C 1.29895 -2.236584 0.663008 -2.5 0 -2.5 
C -0.663008 -2.5 -1.29895 -2.236584 -1.767767 -1.767767 
C -2.236584 -1.29895 -2.5 -0.663008 -2.5 0 
C -2.5 0.663008 -2.236584 1.29895 -1.767767 1.767767 
C -1.29895 2.236584 -0.663008 2.5 0 2.5 
z
" id="C8_0_9f6907eb75"/>
    </defs>
    <g clip-path="url(#p29a2fffa53)">
     <use style="fill:#141414;" x="248.67625" xlink:href="#C8_0_9f6907eb75" y="93.262393"/>
    </g>
    <g clip-path="url(#p29a2fffa53)">
     <use style="fill:#141414;" x="243.498096" xlink:href="#C8_0_9f6907eb75" y="92.413094"/>
    </g>
    <g clip-path="url(#p29a2fffa53)">
     <use style="fill:#141414;" x="253.849958" xlink:href="#C8_0_9f6907eb75" y="92.3874"/>
    </g>
    <g clip-path="url(#p29a2fffa53)">
     <use style="fill:#141414;" x="257.18265" xlink:href="#C8_0_9f6907eb75" y="91.91938"/>
    </g>
    <g clip-path="url(#p29a2fffa53)">
     <use style="fill:#141414;" x="240.16985" xlink:href="#C8_0_9f6907eb75" y="91.650191"/>
    </g>
    <g clip-path="url(#p29a2fffa53)">
     <use style="fill:#141414;" x="240.16985" xlink:href="#C8_0_9f6907eb75" y="91.629928"/>
    </g>
    <g clip-path="url(#p29a2fffa53)">
     <use style="fill:#141414;" x="257.18265" xlink:href="#C8_0_9f6907eb75" y="91.405403"/>
    </g>
    <g clip-path="url(#p29a2fffa53)">
     <use style="fill:#141414;" x="240.16985" xlink:href="#C8_0_9f6907eb75" y="91.338062"/>
    </g>
    <g clip-path="url(#p29a2fffa53)">
     <use style="fill:#141414;" x="257.18265" xlink:href="#C8_0_9f6907eb75" y="91.224765"/>
    </g>
    <g clip-path="url(#p29a2fffa53)">
     <use style="fill:#141414;" x="240.16985" xlink:href="#C8_0_9f6907eb75" y="91.002309"/>
    </g>
   </g>
   <g id="PathCollection_16">
    <defs>
     <path d="M 0 2.5 
C 0.663008 2.5 1.29895 2.236584 1.767767 1.767767 
C 2.236584 1.29895 2.5 0.663008 2.5 0 
C 2.5 -0.663008 2.236584 -1.29895 1.767767 -1.767767 
C 1.29895 -2.236584 0.663008 -2.5 0 -2.5 
C -0.663008 -2.5 -1.29895 -2.236584 -1.767767 -1.767767 
C -2.236584 -1.29895 -2.5 -0.663008 -2.5 0 
C -2.5 0.663008 -2.236584 1.29895 -1.767767 1.767767 
C -1.29895 2.236584 -0.663008 2.5 0 2.5 
z
" id="C9_0_7d2fe1e8f6"/>
    </defs>
    <g clip-path="url(#p29a2fffa53)">
     <use style="fill:#0e0e0e;" x="266.03625" xlink:href="#C9_0_7d2fe1e8f6" y="94.956163"/>
    </g>
    <g clip-path="url(#p29a2fffa53)">
     <use style="fill:#0e0e0e;" x="260.786298" xlink:href="#C9_0_7d2fe1e8f6" y="94.93409"/>
    </g>
    <g clip-path="url(#p29a2fffa53)">
     <use style="fill:#0e0e0e;" x="271.216547" xlink:href="#C9_0_7d2fe1e8f6" y="94.119539"/>
    </g>
    <g clip-path="url(#p29a2fffa53)">
     <use style="fill:#0e0e0e;" x="257.52985" xlink:href="#C9_0_7d2fe1e8f6" y="93.903636"/>
    </g>
    <g clip-path="url(#p29a2fffa53)">
     <use style="fill:#0e0e0e;" x="274.54265" xlink:href="#C9_0_7d2fe1e8f6" y="93.831898"/>
    </g>
    <g clip-path="url(#p29a2fffa53)">
     <use style="fill:#0e0e0e;" x="257.52985" xlink:href="#C9_0_7d2fe1e8f6" y="93.733345"/>
    </g>
    <g clip-path="url(#p29a2fffa53)">
     <use style="fill:#0e0e0e;" x="274.54265" xlink:href="#C9_0_7d2fe1e8f6" y="93.229973"/>
    </g>
    <g clip-path="url(#p29a2fffa53)">
     <use style="fill:#0e0e0e;" x="257.52985" xlink:href="#C9_0_7d2fe1e8f6" y="92.880424"/>
    </g>
    <g clip-path="url(#p29a2fffa53)">
     <use style="fill:#0e0e0e;" x="274.54265" xlink:href="#C9_0_7d2fe1e8f6" y="92.794546"/>
    </g>
    <g clip-path="url(#p29a2fffa53)">
     <use style="fill:#0e0e0e;" x="257.52985" xlink:href="#C9_0_7d2fe1e8f6" y="91.764264"/>
    </g>
   </g>
   <g id="PathCollection_17">
    <defs>
     <path d="M 0 2.5 
C 0.663008 2.5 1.29895 2.236584 1.767767 1.767767 
C 2.236584 1.29895 2.5 0.663008 2.5 0 
C 2.5 -0.663008 2.236584 -1.29895 1.767767 -1.767767 
C 1.29895 -2.236584 0.663008 -2.5 0 -2.5 
C -0.663008 -2.5 -1.29895 -2.236584 -1.767767 -1.767767 
C -2.236584 -1.29895 -2.5 -0.663008 -2.5 0 
C -2.5 0.663008 -2.236584 1.29895 -1.767767 1.767767 
C -1.29895 2.236584 -0.663008 2.5 0 2.5 
z
" id="Ca_0_fcbda919a1"/>
    </defs>
    <g clip-path="url(#p29a2fffa53)">
     <use style="fill:#070707;" x="283.39625" xlink:href="#Ca_0_fcbda919a1" y="110.113609"/>
    </g>
    <g clip-path="url(#p29a2fffa53)">
     <use style="fill:#070707;" x="278.586681" xlink:href="#Ca_0_fcbda919a1" y="108.048303"/>
    </g>
    <g clip-path="url(#p29a2fffa53)">
     <use style="fill:#070707;" x="287.895648" xlink:href="#Ca_0_fcbda919a1" y="107.459312"/>
    </g>
    <g clip-path="url(#p29a2fffa53)">
     <use style="fill:#070707;" x="291.90265" xlink:href="#Ca_0_fcbda919a1" y="107.134336"/>
    </g>
    <g clip-path="url(#p29a2fffa53)">
     <use style="fill:#070707;" x="274.88985" xlink:href="#Ca_0_fcbda919a1" y="107.036645"/>
    </g>
    <g clip-path="url(#p29a2fffa53)">
     <use style="fill:#070707;" x="291.90265" xlink:href="#Ca_0_fcbda919a1" y="106.529222"/>
    </g>
    <g clip-path="url(#p29a2fffa53)">
     <use style="fill:#070707;" x="274.88985" xlink:href="#Ca_0_fcbda919a1" y="105.558779"/>
    </g>
    <g clip-path="url(#p29a2fffa53)">
     <use style="fill:#070707;" x="283.39625" xlink:href="#Ca_0_fcbda919a1" y="104.676197"/>
    </g>
    <g clip-path="url(#p29a2fffa53)">
     <use style="fill:#070707;" x="277.104462" xlink:href="#Ca_0_fcbda919a1" y="103.106589"/>
    </g>
    <g clip-path="url(#p29a2fffa53)">
     <use style="fill:#070707;" x="288.044349" xlink:href="#Ca_0_fcbda919a1" y="102.28126"/>
    </g>
   </g>
   <g id="PathCollection_18">
    <defs>
     <path d="M 0 2.5 
C 0.663008 2.5 1.29895 2.236584 1.767767 1.767767 
C 2.236584 1.29895 2.5 0.663008 2.5 0 
C 2.5 -0.663008 2.236584 -1.29895 1.767767 -1.767767 
C 1.29895 -2.236584 0.663008 -2.5 0 -2.5 
C -0.663008 -2.5 -1.29895 -2.236584 -1.767767 -1.767767 
C -2.236584 -1.29895 -2.5 -0.663008 -2.5 0 
C -2.5 0.663008 -2.236584 1.29895 -1.767767 1.767767 
C -1.29895 2.236584 -0.663008 2.5 0 2.5 
z
" id="Cb_0_7198191dba"/>
    </defs>
    <g clip-path="url(#p29a2fffa53)">
     <use x="300.75625" xlink:href="#Cb_0_7198191dba" y="116.395749"/>
    </g>
    <g clip-path="url(#p29a2fffa53)">
     <use x="295.508641" xlink:href="#Cb_0_7198191dba" y="116.240289"/>
    </g>
    <g clip-path="url(#p29a2fffa53)">
     <use x="305.99824" xlink:href="#Cb_0_7198191dba" y="116.111299"/>
    </g>
    <g clip-path="url(#p29a2fffa53)">
     <use x="292.24985" xlink:href="#Cb_0_7198191dba" y="114.993932"/>
    </g>
    <g clip-path="url(#p29a2fffa53)">
     <use x="309.26265" xlink:href="#Cb_0_7198191dba" y="114.728019"/>
    </g>
    <g clip-path="url(#p29a2fffa53)">
     <use x="309.26265" xlink:href="#Cb_0_7198191dba" y="114.154979"/>
    </g>
    <g clip-path="url(#p29a2fffa53)">
     <use x="299.399166" xlink:href="#Cb_0_7198191dba" y="111.419546"/>
    </g>
    <g clip-path="url(#p29a2fffa53)">
     <use x="304.560333" xlink:href="#Cb_0_7198191dba" y="111.156996"/>
    </g>
    <g clip-path="url(#p29a2fffa53)">
     <use x="294.291499" xlink:href="#Cb_0_7198191dba" y="110.228199"/>
    </g>
    <g clip-path="url(#p29a2fffa53)">
     <use x="292.24985" xlink:href="#Cb_0_7198191dba" y="109.901155"/>
    </g>
   </g>
   <g id="PathCollection_19">
    <defs>
     <path d="M 0 2.5 
C 0.663008 2.5 1.29895 2.236584 1.767767 1.767767 
C 2.236584 1.29895 2.5 0.663008 2.5 0 
C 2.5 -0.663008 2.236584 -1.29895 1.767767 -1.767767 
C 1.29895 -2.236584 0.663008 -2.5 0 -2.5 
C -0.663008 -2.5 -1.29895 -2.236584 -1.767767 -1.767767 
C -2.236584 -1.29895 -2.5 -0.663008 -2.5 0 
C -2.5 0.663008 -2.236584 1.29895 -1.767767 1.767767 
C -1.29895 2.236584 -0.663008 2.5 0 2.5 
z
" id="Cc_0_4afa852c82"/>
    </defs>
    <g clip-path="url(#p29a2fffa53)">
     <use style="fill:#222222;" x="344.15625" xlink:href="#Cc_0_4afa852c82" y="80.050058"/>
    </g>
    <g clip-path="url(#p29a2fffa53)">
     <use style="fill:#222222;" x="338.906933" xlink:href="#Cc_0_4afa852c82" y="79.966939"/>
    </g>
    <g clip-path="url(#p29a2fffa53)">
     <use style="fill:#222222;" x="349.404508" xlink:href="#Cc_0_4afa852c82" y="79.91736"/>
    </g>
    <g clip-path="url(#p29a2fffa53)">
     <use style="fill:#222222;" x="352.66265" xlink:href="#Cc_0_4afa852c82" y="79.85709"/>
    </g>
    <g clip-path="url(#p29a2fffa53)">
     <use style="fill:#222222;" x="335.64985" xlink:href="#Cc_0_4afa852c82" y="79.796044"/>
    </g>
    <g clip-path="url(#p29a2fffa53)">
     <use style="fill:#222222;" x="335.64985" xlink:href="#Cc_0_4afa852c82" y="79.778886"/>
    </g>
    <g clip-path="url(#p29a2fffa53)">
     <use style="fill:#222222;" x="352.66265" xlink:href="#Cc_0_4afa852c82" y="79.557033"/>
    </g>
    <g clip-path="url(#p29a2fffa53)">
     <use style="fill:#222222;" x="352.66265" xlink:href="#Cc_0_4afa852c82" y="79.527631"/>
    </g>
    <g clip-path="url(#p29a2fffa53)">
     <use style="fill:#222222;" x="335.64985" xlink:href="#Cc_0_4afa852c82" y="79.484778"/>
    </g>
    <g clip-path="url(#p29a2fffa53)">
     <use style="fill:#222222;" x="352.66265" xlink:href="#Cc_0_4afa852c82" y="79.136695"/>
    </g>
   </g>
   <g id="PathCollection_20">
    <defs>
     <path d="M 0 2.5 
C 0.663008 2.5 1.29895 2.236584 1.767767 1.767767 
C 2.236584 1.29895 2.5 0.663008 2.5 0 
C 2.5 -0.663008 2.236584 -1.29895 1.767767 -1.767767 
C 1.29895 -2.236584 0.663008 -2.5 0 -2.5 
C -0.663008 -2.5 -1.29895 -2.236584 -1.767767 -1.767767 
C -2.236584 -1.29895 -2.5 -0.663008 -2.5 0 
C -2.5 0.663008 -2.236584 1.29895 -1.767767 1.767767 
C -1.29895 2.236584 -0.663008 2.5 0 2.5 
z
" id="Cd_0_db01480da9"/>
    </defs>
    <g clip-path="url(#p29a2fffa53)">
     <use style="fill:#1b1b1b;" x="361.51625" xlink:href="#Cd_0_db01480da9" y="90.728636"/>
    </g>
    <g clip-path="url(#p29a2fffa53)">
     <use style="fill:#1b1b1b;" x="356.321466" xlink:href="#Cd_0_db01480da9" y="89.983495"/>
    </g>
    <g clip-path="url(#p29a2fffa53)">
     <use style="fill:#1b1b1b;" x="366.491612" xlink:href="#Cd_0_db01480da9" y="89.084359"/>
    </g>
    <g clip-path="url(#p29a2fffa53)">
     <use style="fill:#1b1b1b;" x="370.02265" xlink:href="#Cd_0_db01480da9" y="89.039264"/>
    </g>
    <g clip-path="url(#p29a2fffa53)">
     <use style="fill:#1b1b1b;" x="353.00985" xlink:href="#Cd_0_db01480da9" y="88.75559"/>
    </g>
    <g clip-path="url(#p29a2fffa53)">
     <use style="fill:#1b1b1b;" x="370.02265" xlink:href="#Cd_0_db01480da9" y="88.72179"/>
    </g>
    <g clip-path="url(#p29a2fffa53)">
     <use style="fill:#1b1b1b;" x="353.00985" xlink:href="#Cd_0_db01480da9" y="88.419319"/>
    </g>
    <g clip-path="url(#p29a2fffa53)">
     <use style="fill:#1b1b1b;" x="370.02265" xlink:href="#Cd_0_db01480da9" y="88.414059"/>
    </g>
    <g clip-path="url(#p29a2fffa53)">
     <use style="fill:#1b1b1b;" x="353.00985" xlink:href="#Cd_0_db01480da9" y="87.845072"/>
    </g>
    <g clip-path="url(#p29a2fffa53)">
     <use style="fill:#1b1b1b;" x="370.02265" xlink:href="#Cd_0_db01480da9" y="87.395418"/>
    </g>
   </g>
   <g id="PathCollection_21">
    <defs>
     <path d="M 0 2.5 
C 0.663008 2.5 1.29895 2.236584 1.767767 1.767767 
C 2.236584 1.29895 2.5 0.663008 2.5 0 
C 2.5 -0.663008 2.236584 -1.29895 1.767767 -1.767767 
C 1.29895 -2.236584 0.663008 -2.5 0 -2.5 
C -0.663008 -2.5 -1.29895 -2.236584 -1.767767 -1.767767 
C -2.236584 -1.29895 -2.5 -0.663008 -2.5 0 
C -2.5 0.663008 -2.236584 1.29895 -1.767767 1.767767 
C -1.29895 2.236584 -0.663008 2.5 0 2.5 
z
" id="Ce_0_608c79c222"/>
    </defs>
    <g clip-path="url(#p29a2fffa53)">
     <use style="fill:#141414;" x="378.87625" xlink:href="#Ce_0_608c79c222" y="105.58318"/>
    </g>
    <g clip-path="url(#p29a2fffa53)">
     <use style="fill:#141414;" x="373.680443" xlink:href="#Ce_0_608c79c222" y="104.844936"/>
    </g>
    <g clip-path="url(#p29a2fffa53)">
     <use style="fill:#141414;" x="383.848584" xlink:href="#Ce_0_608c79c222" y="103.930108"/>
    </g>
    <g clip-path="url(#p29a2fffa53)">
     <use style="fill:#141414;" x="387.38265" xlink:href="#Ce_0_608c79c222" y="103.436824"/>
    </g>
    <g clip-path="url(#p29a2fffa53)">
     <use style="fill:#141414;" x="370.36985" xlink:href="#Ce_0_608c79c222" y="102.737036"/>
    </g>
    <g clip-path="url(#p29a2fffa53)">
     <use style="fill:#141414;" x="370.36985" xlink:href="#Ce_0_608c79c222" y="102.64176"/>
    </g>
    <g clip-path="url(#p29a2fffa53)">
     <use style="fill:#141414;" x="387.38265" xlink:href="#Ce_0_608c79c222" y="102.085533"/>
    </g>
    <g clip-path="url(#p29a2fffa53)">
     <use style="fill:#141414;" x="370.36985" xlink:href="#Ce_0_608c79c222" y="101.962062"/>
    </g>
    <g clip-path="url(#p29a2fffa53)">
     <use style="fill:#141414;" x="387.38265" xlink:href="#Ce_0_608c79c222" y="100.97265"/>
    </g>
    <g clip-path="url(#p29a2fffa53)">
     <use style="fill:#141414;" x="378.87625" xlink:href="#Ce_0_608c79c222" y="98.227818"/>
    </g>
   </g>
   <g id="PathCollection_22">
    <defs>
     <path d="M 0 2.5 
C 0.663008 2.5 1.29895 2.236584 1.767767 1.767767 
C 2.236584 1.29895 2.5 0.663008 2.5 0 
C 2.5 -0.663008 2.236584 -1.29895 1.767767 -1.767767 
C 1.29895 -2.236584 0.663008 -2.5 0 -2.5 
C -0.663008 -2.5 -1.29895 -2.236584 -1.767767 -1.767767 
C -2.236584 -1.29895 -2.5 -0.663008 -2.5 0 
C -2.5 0.663008 -2.236584 1.29895 -1.767767 1.767767 
C -1.29895 2.236584 -0.663008 2.5 0 2.5 
z
" id="Cf_0_fd2dc15daa"/>
    </defs>
    <g clip-path="url(#p29a2fffa53)">
     <use style="fill:#0e0e0e;" x="396.23625" xlink:href="#Cf_0_fd2dc15daa" y="109.116437"/>
    </g>
    <g clip-path="url(#p29a2fffa53)">
     <use style="fill:#0e0e0e;" x="391.258025" xlink:href="#Cf_0_fd2dc15daa" y="107.480523"/>
    </g>
    <g clip-path="url(#p29a2fffa53)">
     <use style="fill:#0e0e0e;" x="400.929665" xlink:href="#Cf_0_fd2dc15daa" y="106.808154"/>
    </g>
    <g clip-path="url(#p29a2fffa53)">
     <use style="fill:#0e0e0e;" x="404.74265" xlink:href="#Cf_0_fd2dc15daa" y="106.511287"/>
    </g>
    <g clip-path="url(#p29a2fffa53)">
     <use style="fill:#0e0e0e;" x="387.72985" xlink:href="#Cf_0_fd2dc15daa" y="106.315819"/>
    </g>
    <g clip-path="url(#p29a2fffa53)">
     <use style="fill:#0e0e0e;" x="404.74265" xlink:href="#Cf_0_fd2dc15daa" y="106.295729"/>
    </g>
    <g clip-path="url(#p29a2fffa53)">
     <use style="fill:#0e0e0e;" x="387.72985" xlink:href="#Cf_0_fd2dc15daa" y="106.233562"/>
    </g>
    <g clip-path="url(#p29a2fffa53)">
     <use style="fill:#0e0e0e;" x="404.74265" xlink:href="#Cf_0_fd2dc15daa" y="104.814327"/>
    </g>
    <g clip-path="url(#p29a2fffa53)">
     <use style="fill:#0e0e0e;" x="387.72985" xlink:href="#Cf_0_fd2dc15daa" y="104.201538"/>
    </g>
    <g clip-path="url(#p29a2fffa53)">
     <use style="fill:#0e0e0e;" x="396.23625" xlink:href="#Cf_0_fd2dc15daa" y="103.606684"/>
    </g>
   </g>
   <g id="PathCollection_23">
    <defs>
     <path d="M 0 2.5 
C 0.663008 2.5 1.29895 2.236584 1.767767 1.767767 
C 2.236584 1.29895 2.5 0.663008 2.5 0 
C 2.5 -0.663008 2.236584 -1.29895 1.767767 -1.767767 
C 1.29895 -2.236584 0.663008 -2.5 0 -2.5 
C -0.663008 -2.5 -1.29895 -2.236584 -1.767767 -1.767767 
C -2.236584 -1.29895 -2.5 -0.663008 -2.5 0 
C -2.5 0.663008 -2.236584 1.29895 -1.767767 1.767767 
C -1.29895 2.236584 -0.663008 2.5 0 2.5 
z
" id="C10_0_8f67cd8bc9"/>
    </defs>
    <g clip-path="url(#p29a2fffa53)">
     <use style="fill:#070707;" x="413.59625" xlink:href="#C10_0_8f67cd8bc9" y="116.20373"/>
    </g>
    <g clip-path="url(#p29a2fffa53)">
     <use style="fill:#070707;" x="408.49186" xlink:href="#C10_0_8f67cd8bc9" y="114.998932"/>
    </g>
    <g clip-path="url(#p29a2fffa53)">
     <use style="fill:#070707;" x="418.513865" xlink:href="#C10_0_8f67cd8bc9" y="114.399939"/>
    </g>
    <g clip-path="url(#p29a2fffa53)">
     <use style="fill:#070707;" x="422.10265" xlink:href="#C10_0_8f67cd8bc9" y="113.974859"/>
    </g>
    <g clip-path="url(#p29a2fffa53)">
     <use style="fill:#070707;" x="405.08985" xlink:href="#C10_0_8f67cd8bc9" y="112.789289"/>
    </g>
    <g clip-path="url(#p29a2fffa53)">
     <use style="fill:#070707;" x="422.10265" xlink:href="#C10_0_8f67cd8bc9" y="112.126577"/>
    </g>
    <g clip-path="url(#p29a2fffa53)">
     <use style="fill:#070707;" x="405.08985" xlink:href="#C10_0_8f67cd8bc9" y="111.987585"/>
    </g>
    <g clip-path="url(#p29a2fffa53)">
     <use style="fill:#070707;" x="413.59625" xlink:href="#C10_0_8f67cd8bc9" y="110.326408"/>
    </g>
    <g clip-path="url(#p29a2fffa53)">
     <use style="fill:#070707;" x="408.492834" xlink:href="#C10_0_8f67cd8bc9" y="109.117644"/>
    </g>
    <g clip-path="url(#p29a2fffa53)">
     <use style="fill:#070707;" x="418.418973" xlink:href="#C10_0_8f67cd8bc9" y="108.290849"/>
    </g>
   </g>
   <g id="PathCollection_24">
    <defs>
     <path d="M 0 2.5 
C 0.663008 2.5 1.29895 2.236584 1.767767 1.767767 
C 2.236584 1.29895 2.5 0.663008 2.5 0 
C 2.5 -0.663008 2.236584 -1.29895 1.767767 -1.767767 
C 1.29895 -2.236584 0.663008 -2.5 0 -2.5 
C -0.663008 -2.5 -1.29895 -2.236584 -1.767767 -1.767767 
C -2.236584 -1.29895 -2.5 -0.663008 -2.5 0 
C -2.5 0.663008 -2.236584 1.29895 -1.767767 1.767767 
C -1.29895 2.236584 -0.663008 2.5 0 2.5 
z
" id="C11_0_03c431c59c"/>
    </defs>
    <g clip-path="url(#p29a2fffa53)">
     <use x="430.95625" xlink:href="#C11_0_03c431c59c" y="116.714517"/>
    </g>
    <g clip-path="url(#p29a2fffa53)">
     <use x="425.833304" xlink:href="#C11_0_03c431c59c" y="115.588096"/>
    </g>
    <g clip-path="url(#p29a2fffa53)">
     <use x="436.059262" xlink:href="#C11_0_03c431c59c" y="115.504115"/>
    </g>
    <g clip-path="url(#p29a2fffa53)">
     <use x="439.46265" xlink:href="#C11_0_03c431c59c" y="115.435567"/>
    </g>
    <g clip-path="url(#p29a2fffa53)">
     <use x="422.44985" xlink:href="#C11_0_03c431c59c" y="115.069722"/>
    </g>
    <g clip-path="url(#p29a2fffa53)">
     <use x="439.46265" xlink:href="#C11_0_03c431c59c" y="114.22801"/>
    </g>
    <g clip-path="url(#p29a2fffa53)">
     <use x="422.44985" xlink:href="#C11_0_03c431c59c" y="113.731278"/>
    </g>
    <g clip-path="url(#p29a2fffa53)">
     <use x="439.46265" xlink:href="#C11_0_03c431c59c" y="113.076844"/>
    </g>
    <g clip-path="url(#p29a2fffa53)">
     <use x="422.44985" xlink:href="#C11_0_03c431c59c" y="112.251601"/>
    </g>
    <g clip-path="url(#p29a2fffa53)">
     <use x="422.44985" xlink:href="#C11_0_03c431c59c" y="112.091915"/>
    </g>
   </g>
   <g id="text_13">
    <!-- GLUCOSE  CONCENTRATION -->
    <g transform="translate(114.589063 21.515625)scale(0.2 -0.2)">
     <use xlink:href="#Arial-BoldMT-71"/>
     <use x="77.783203" xlink:href="#Arial-BoldMT-76"/>
     <use x="138.867188" xlink:href="#Arial-BoldMT-85"/>
     <use x="211.083984" xlink:href="#Arial-BoldMT-67"/>
     <use x="283.300781" xlink:href="#Arial-BoldMT-79"/>
     <use x="361.083984" xlink:href="#Arial-BoldMT-83"/>
     <use x="427.783203" xlink:href="#Arial-BoldMT-69"/>
     <use x="494.482422" xlink:href="#Arial-BoldMT-32"/>
     <use x="522.265625" xlink:href="#Arial-BoldMT-32"/>
     <use x="550.048828" xlink:href="#Arial-BoldMT-67"/>
     <use x="622.265625" xlink:href="#Arial-BoldMT-79"/>
     <use x="700.048828" xlink:href="#Arial-BoldMT-78"/>
     <use x="772.265625" xlink:href="#Arial-BoldMT-67"/>
     <use x="844.482422" xlink:href="#Arial-BoldMT-69"/>
     <use x="911.181641" xlink:href="#Arial-BoldMT-78"/>
     <use x="983.398438" xlink:href="#Arial-BoldMT-84"/>
     <use x="1044.482422" xlink:href="#Arial-BoldMT-82"/>
     <use x="1116.699219" xlink:href="#Arial-BoldMT-65"/>
     <use x="1188.806641" xlink:href="#Arial-BoldMT-84"/>
     <use x="1249.890625" xlink:href="#Arial-BoldMT-73"/>
     <use x="1277.673828" xlink:href="#Arial-BoldMT-79"/>
     <use x="1355.457031" xlink:href="#Arial-BoldMT-78"/>
    </g>
    <!-- OVER TIME 1, 4, 7 -->
    <defs>
     <path d="M 25.53125 0 
L -0.046875 71.578125 
L 15.625 71.578125 
L 33.734375 18.609375 
L 51.265625 71.578125 
L 66.609375 71.578125 
L 40.96875 0 
z
" id="Arial-BoldMT-86"/>
     <path d="M 7.078125 0 
L 7.078125 71.578125 
L 28.71875 71.578125 
L 41.703125 22.75 
L 54.546875 71.578125 
L 76.21875 71.578125 
L 76.21875 0 
L 62.796875 0 
L 62.796875 56.34375 
L 48.578125 0 
L 34.671875 0 
L 20.515625 56.34375 
L 20.515625 0 
z
" id="Arial-BoldMT-77"/>
     <path d="M 39.359375 0 
L 25.640625 0 
L 25.640625 51.703125 
Q 18.109375 44.671875 7.90625 41.3125 
L 7.90625 53.765625 
Q 13.28125 55.515625 19.578125 60.421875 
Q 25.875 65.328125 28.21875 71.875 
L 39.359375 71.875 
z
" id="Arial-BoldMT-49"/>
     <path d="M 6.84375 13.71875 
L 20.5625 13.71875 
L 20.5625 3.90625 
Q 20.5625 -2.046875 19.53125 -5.484375 
Q 18.5 -8.9375 15.640625 -11.671875 
Q 12.796875 -14.40625 8.40625 -15.96875 
L 5.71875 -10.296875 
Q 9.859375 -8.9375 11.609375 -6.546875 
Q 13.375 -4.15625 13.484375 0 
L 6.84375 0 
z
" id="Arial-BoldMT-44"/>
     <path d="M 31.15625 0 
L 31.15625 14.40625 
L 1.859375 14.40625 
L 1.859375 26.421875 
L 32.90625 71.875 
L 44.4375 71.875 
L 44.4375 26.46875 
L 53.328125 26.46875 
L 53.328125 14.40625 
L 44.4375 14.40625 
L 44.4375 0 
z
M 31.15625 26.46875 
L 31.15625 50.921875 
L 14.703125 26.46875 
z
" id="Arial-BoldMT-52"/>
     <path d="M 4.25 57.859375 
L 4.25 70.609375 
L 51.171875 70.609375 
L 51.171875 60.640625 
Q 45.359375 54.9375 39.34375 44.234375 
Q 33.34375 33.546875 30.1875 21.5 
Q 27.046875 9.46875 27.09375 0 
L 13.875 0 
Q 14.203125 14.84375 19.984375 30.265625 
Q 25.78125 45.703125 35.453125 57.859375 
z
" id="Arial-BoldMT-55"/>
    </defs>
    <g transform="translate(171.778125 42.64125)scale(0.2 -0.2)">
     <use xlink:href="#Arial-BoldMT-79"/>
     <use x="77.783203" xlink:href="#Arial-BoldMT-86"/>
     <use x="144.482422" xlink:href="#Arial-BoldMT-69"/>
     <use x="211.181641" xlink:href="#Arial-BoldMT-82"/>
     <use x="283.398438" xlink:href="#Arial-BoldMT-32"/>
     <use x="311.181641" xlink:href="#Arial-BoldMT-84"/>
     <use x="372.265625" xlink:href="#Arial-BoldMT-73"/>
     <use x="400.048828" xlink:href="#Arial-BoldMT-77"/>
     <use x="483.349609" xlink:href="#Arial-BoldMT-69"/>
     <use x="550.048828" xlink:href="#Arial-BoldMT-32"/>
     <use x="577.832031" xlink:href="#Arial-BoldMT-49"/>
     <use x="633.447266" xlink:href="#Arial-BoldMT-44"/>
     <use x="661.230469" xlink:href="#Arial-BoldMT-32"/>
     <use x="689.013672" xlink:href="#Arial-BoldMT-52"/>
     <use x="744.628906" xlink:href="#Arial-BoldMT-44"/>
     <use x="772.412109" xlink:href="#Arial-BoldMT-32"/>
     <use x="800.195312" xlink:href="#Arial-BoldMT-55"/>
    </g>
   </g>
   <g id="legend_1">
    <g id="PathCollection_25">
     <defs>
      <path d="M 0 3.872983 
C 1.027127 3.872983 2.012324 3.464901 2.738613 2.738613 
C 3.464901 2.012324 3.872983 1.027127 3.872983 0 
C 3.872983 -1.027127 3.464901 -2.012324 2.738613 -2.738613 
C 2.012324 -3.464901 1.027127 -3.872983 0 -3.872983 
C -1.027127 -3.872983 -2.012324 -3.464901 -2.738613 -2.738613 
C -3.464901 -2.012324 -3.872983 -1.027127 -3.872983 0 
C -3.872983 1.027127 -3.464901 2.012324 -2.738613 2.738613 
C -2.012324 3.464901 -1.027127 3.872983 0 3.872983 
z
" id="m4f9bec8e9d" style="stroke:#222222;"/>
     </defs>
     <g>
      <use style="fill:#222222;stroke:#222222;" x="471.65625" xlink:href="#m4f9bec8e9d" y="73.614687"/>
     </g>
    </g>
    <g id="text_14">
     <!-- 0 -->
     <g transform="translate(489.65625 76.239687)scale(0.1 -0.1)">
      <use xlink:href="#DejaVuSans-48"/>
     </g>
    </g>
    <g id="PathCollection_26">
     <defs>
      <path d="M 0 3.872983 
C 1.027127 3.872983 2.012324 3.464901 2.738613 2.738613 
C 3.464901 2.012324 3.872983 1.027127 3.872983 0 
C 3.872983 -1.027127 3.464901 -2.012324 2.738613 -2.738613 
C 2.012324 -3.464901 1.027127 -3.872983 0 -3.872983 
C -1.027127 -3.872983 -2.012324 -3.464901 -2.738613 -2.738613 
C -3.464901 -2.012324 -3.872983 -1.027127 -3.872983 0 
C -3.872983 1.027127 -3.464901 2.012324 -2.738613 2.738613 
C -2.012324 3.464901 -1.027127 3.872983 0 3.872983 
z
" id="m531ffff14b" style="stroke:#1b1b1b;"/>
     </defs>
     <g>
      <use style="fill:#1b1b1b;stroke:#1b1b1b;" x="471.65625" xlink:href="#m531ffff14b" y="88.292812"/>
     </g>
    </g>
    <g id="text_15">
     <!-- 100 -->
     <g transform="translate(489.65625 90.917812)scale(0.1 -0.1)">
      <use xlink:href="#DejaVuSans-49"/>
      <use x="63.623047" xlink:href="#DejaVuSans-48"/>
      <use x="127.246094" xlink:href="#DejaVuSans-48"/>
     </g>
    </g>
    <g id="PathCollection_27">
     <defs>
      <path d="M 0 3.872983 
C 1.027127 3.872983 2.012324 3.464901 2.738613 2.738613 
C 3.464901 2.012324 3.872983 1.027127 3.872983 0 
C 3.872983 -1.027127 3.464901 -2.012324 2.738613 -2.738613 
C 2.012324 -3.464901 1.027127 -3.872983 0 -3.872983 
C -1.027127 -3.872983 -2.012324 -3.464901 -2.738613 -2.738613 
C -3.464901 -2.012324 -3.872983 -1.027127 -3.872983 0 
C -3.872983 1.027127 -3.464901 2.012324 -2.738613 2.738613 
C -2.012324 3.464901 -1.027127 3.872983 0 3.872983 
z
" id="m2735e1dd25" style="stroke:#141414;"/>
     </defs>
     <g>
      <use style="fill:#141414;stroke:#141414;" x="471.65625" xlink:href="#m2735e1dd25" y="102.970937"/>
     </g>
    </g>
    <g id="text_16">
     <!-- 500 -->
     <g transform="translate(489.65625 105.595937)scale(0.1 -0.1)">
      <use xlink:href="#DejaVuSans-53"/>
      <use x="63.623047" xlink:href="#DejaVuSans-48"/>
      <use x="127.246094" xlink:href="#DejaVuSans-48"/>
     </g>
    </g>
    <g id="PathCollection_28">
     <defs>
      <path d="M 0 3.872983 
C 1.027127 3.872983 2.012324 3.464901 2.738613 2.738613 
C 3.464901 2.012324 3.872983 1.027127 3.872983 0 
C 3.872983 -1.027127 3.464901 -2.012324 2.738613 -2.738613 
C 2.012324 -3.464901 1.027127 -3.872983 0 -3.872983 
C -1.027127 -3.872983 -2.012324 -3.464901 -2.738613 -2.738613 
C -3.464901 -2.012324 -3.872983 -1.027127 -3.872983 0 
C -3.872983 1.027127 -3.464901 2.012324 -2.738613 2.738613 
C -2.012324 3.464901 -1.027127 3.872983 0 3.872983 
z
" id="m3dbb0b72c6" style="stroke:#0e0e0e;"/>
     </defs>
     <g>
      <use style="fill:#0e0e0e;stroke:#0e0e0e;" x="471.65625" xlink:href="#m3dbb0b72c6" y="117.649062"/>
     </g>
    </g>
    <g id="text_17">
     <!-- 1000 -->
     <g transform="translate(489.65625 120.274062)scale(0.1 -0.1)">
      <use xlink:href="#DejaVuSans-49"/>
      <use x="63.623047" xlink:href="#DejaVuSans-48"/>
      <use x="127.246094" xlink:href="#DejaVuSans-48"/>
      <use x="190.869141" xlink:href="#DejaVuSans-48"/>
     </g>
    </g>
    <g id="PathCollection_29">
     <defs>
      <path d="M 0 3.872983 
C 1.027127 3.872983 2.012324 3.464901 2.738613 2.738613 
C 3.464901 2.012324 3.872983 1.027127 3.872983 0 
C 3.872983 -1.027127 3.464901 -2.012324 2.738613 -2.738613 
C 2.012324 -3.464901 1.027127 -3.872983 0 -3.872983 
C -1.027127 -3.872983 -2.012324 -3.464901 -2.738613 -2.738613 
C -3.464901 -2.012324 -3.872983 -1.027127 -3.872983 0 
C -3.872983 1.027127 -3.464901 2.012324 -2.738613 2.738613 
C -2.012324 3.464901 -1.027127 3.872983 0 3.872983 
z
" id="maee88f2f56" style="stroke:#070707;"/>
     </defs>
     <g>
      <use style="fill:#070707;stroke:#070707;" x="471.65625" xlink:href="#maee88f2f56" y="132.327187"/>
     </g>
    </g>
    <g id="text_18">
     <!-- 5000 -->
     <g transform="translate(489.65625 134.952187)scale(0.1 -0.1)">
      <use xlink:href="#DejaVuSans-53"/>
      <use x="63.623047" xlink:href="#DejaVuSans-48"/>
      <use x="127.246094" xlink:href="#DejaVuSans-48"/>
      <use x="190.869141" xlink:href="#DejaVuSans-48"/>
     </g>
    </g>
    <g id="PathCollection_30">
     <defs>
      <path d="M 0 3.872983 
C 1.027127 3.872983 2.012324 3.464901 2.738613 2.738613 
C 3.464901 2.012324 3.872983 1.027127 3.872983 0 
C 3.872983 -1.027127 3.464901 -2.012324 2.738613 -2.738613 
C 2.012324 -3.464901 1.027127 -3.872983 0 -3.872983 
C -1.027127 -3.872983 -2.012324 -3.464901 -2.738613 -2.738613 
C -3.464901 -2.012324 -3.872983 -1.027127 -3.872983 0 
C -3.872983 1.027127 -3.464901 2.012324 -2.738613 2.738613 
C -2.012324 3.464901 -1.027127 3.872983 0 3.872983 
z
" id="m51cecf72cb" style="stroke:#000000;"/>
     </defs>
     <g>
      <use style="stroke:#000000;" x="471.65625" xlink:href="#m51cecf72cb" y="147.005312"/>
     </g>
    </g>
    <g id="text_19">
     <!-- 10000 -->
     <g transform="translate(489.65625 149.630312)scale(0.1 -0.1)">
      <use xlink:href="#DejaVuSans-49"/>
      <use x="63.623047" xlink:href="#DejaVuSans-48"/>
      <use x="127.246094" xlink:href="#DejaVuSans-48"/>
      <use x="190.869141" xlink:href="#DejaVuSans-48"/>
      <use x="254.492188" xlink:href="#DejaVuSans-48"/>
     </g>
    </g>
    <g id="patch_25">
     <path d="M 461.65625 164.308437 
L 481.65625 164.308437 
L 481.65625 157.308437 
L 461.65625 157.308437 
z
"/>
    </g>
    <g id="text_20">
     <!-- 0 -->
     <g transform="translate(489.65625 164.308437)scale(0.1 -0.1)">
      <use xlink:href="#DejaVuSans-48"/>
     </g>
    </g>
    <g id="patch_26">
     <path d="M 461.65625 178.986562 
L 481.65625 178.986562 
L 481.65625 171.986562 
L 461.65625 171.986562 
z
" style="fill:#d4e1ee;"/>
    </g>
    <g id="text_21">
     <!-- 100 -->
     <g transform="translate(489.65625 178.986562)scale(0.1 -0.1)">
      <use xlink:href="#DejaVuSans-49"/>
      <use x="63.623047" xlink:href="#DejaVuSans-48"/>
      <use x="127.246094" xlink:href="#DejaVuSans-48"/>
     </g>
    </g>
    <g id="patch_27">
     <path d="M 461.65625 193.664687 
L 481.65625 193.664687 
L 481.65625 186.664687 
L 461.65625 186.664687 
z
" style="fill:#9dc2d5;"/>
    </g>
    <g id="text_22">
     <!-- 500 -->
     <g transform="translate(489.65625 193.664687)scale(0.1 -0.1)">
      <use xlink:href="#DejaVuSans-53"/>
      <use x="63.623047" xlink:href="#DejaVuSans-48"/>
      <use x="127.246094" xlink:href="#DejaVuSans-48"/>
     </g>
    </g>
    <g id="patch_28">
     <path d="M 461.65625 208.342812 
L 481.65625 208.342812 
L 481.65625 201.342812 
L 461.65625 201.342812 
z
" style="fill:#5a94b9;"/>
    </g>
    <g id="text_23">
     <!-- 1000 -->
     <g transform="translate(489.65625 208.342812)scale(0.1 -0.1)">
      <use xlink:href="#DejaVuSans-49"/>
      <use x="63.623047" xlink:href="#DejaVuSans-48"/>
      <use x="127.246094" xlink:href="#DejaVuSans-48"/>
      <use x="190.869141" xlink:href="#DejaVuSans-48"/>
     </g>
    </g>
    <g id="patch_29">
     <path d="M 461.65625 223.020937 
L 481.65625 223.020937 
L 481.65625 216.020937 
L 461.65625 216.020937 
z
" style="fill:#296399;"/>
    </g>
    <g id="text_24">
     <!-- 5000 -->
     <g transform="translate(489.65625 223.020937)scale(0.1 -0.1)">
      <use xlink:href="#DejaVuSans-53"/>
      <use x="63.623047" xlink:href="#DejaVuSans-48"/>
      <use x="127.246094" xlink:href="#DejaVuSans-48"/>
      <use x="190.869141" xlink:href="#DejaVuSans-48"/>
     </g>
    </g>
    <g id="patch_30">
     <path d="M 461.65625 237.699062 
L 481.65625 237.699062 
L 481.65625 230.699062 
L 461.65625 230.699062 
z
" style="fill:#14325f;"/>
    </g>
    <g id="text_25">
     <!-- 10000 -->
     <g transform="translate(489.65625 237.699062)scale(0.1 -0.1)">
      <use xlink:href="#DejaVuSans-49"/>
      <use x="63.623047" xlink:href="#DejaVuSans-48"/>
      <use x="127.246094" xlink:href="#DejaVuSans-48"/>
      <use x="190.869141" xlink:href="#DejaVuSans-48"/>
      <use x="254.492188" xlink:href="#DejaVuSans-48"/>
     </g>
    </g>
   </g>
  </g>
 </g>
 <defs>
  <clipPath id="p29a2fffa53">
   <rect height="380.52" width="390.6" x="62.05625" y="59.64125"/>
  </clipPath>
 </defs>
</svg>
