<?xml version="1.0" encoding="utf-8" standalone="no"?>
<!DOCTYPE svg PUBLIC "-//W3C//DTD SVG 1.1//EN"
  "http://www.w3.org/Graphics/SVG/1.1/DTD/svg11.dtd">
<!-- Created with matplotlib (https://matplotlib.org/) -->
<svg height="514.024687pt" version="1.1" viewBox="0 0 553.580625 514.024687" width="553.580625pt" xmlns="http://www.w3.org/2000/svg" xmlns:xlink="http://www.w3.org/1999/xlink">
 <defs>
  <style type="text/css">
*{stroke-linecap:butt;stroke-linejoin:round;}
  </style>
 </defs>
 <g id="figure_1">
  <g id="patch_1">
   <path d="M 0 514.024687 
L 553.580625 514.024687 
L 553.580625 0 
L 0 0 
z
" style="fill:#ffffff;"/>
  </g>
  <g id="axes_1">
   <g id="patch_2">
    <path d="M 82.968125 442.021562 
L 473.568125 442.021562 
L 473.568125 61.501562 
L 82.968125 61.501562 
z
" style="fill:#ffffff;"/>
   </g>
   <g id="matplotlib.axis_1">
    <g id="xtick_1">
     <g id="line2d_1">
      <defs>
       <path d="M 0 0 
L 0 3.5 
" id="m199d664ca9" style="stroke:#000000;stroke-width:0.8;"/>
      </defs>
      <g>
       <use style="stroke:#000000;stroke-width:0.8;" x="82.968125" xlink:href="#m199d664ca9" y="442.021562"/>
      </g>
     </g>
     <g id="text_1">
      <!-- 0 -->
      <defs>
       <path d="M 31.78125 66.40625 
Q 24.171875 66.40625 20.328125 58.90625 
Q 16.5 51.421875 16.5 36.375 
Q 16.5 21.390625 20.328125 13.890625 
Q 24.171875 6.390625 31.78125 6.390625 
Q 39.453125 6.390625 43.28125 13.890625 
Q 47.125 21.390625 47.125 36.375 
Q 47.125 51.421875 43.28125 58.90625 
Q 39.453125 66.40625 31.78125 66.40625 
z
M 31.78125 74.21875 
Q 44.046875 74.21875 50.515625 64.515625 
Q 56.984375 54.828125 56.984375 36.375 
Q 56.984375 17.96875 50.515625 8.265625 
Q 44.046875 -1.421875 31.78125 -1.421875 
Q 19.53125 -1.421875 13.0625 8.265625 
Q 6.59375 17.96875 6.59375 36.375 
Q 6.59375 54.828125 13.0625 64.515625 
Q 19.53125 74.21875 31.78125 74.21875 
z
" id="DejaVuSans-48"/>
      </defs>
      <g transform="translate(73.424375 471.816875)scale(0.3 -0.3)">
       <use xlink:href="#DejaVuSans-48"/>
      </g>
     </g>
    </g>
    <g id="xtick_2">
     <g id="line2d_2">
      <g>
       <use style="stroke:#000000;stroke-width:0.8;" x="138.768125" xlink:href="#m199d664ca9" y="442.021562"/>
      </g>
     </g>
     <g id="text_2">
      <!-- 1 -->
      <defs>
       <path d="M 12.40625 8.296875 
L 28.515625 8.296875 
L 28.515625 63.921875 
L 10.984375 60.40625 
L 10.984375 69.390625 
L 28.421875 72.90625 
L 38.28125 72.90625 
L 38.28125 8.296875 
L 54.390625 8.296875 
L 54.390625 0 
L 12.40625 0 
z
" id="DejaVuSans-49"/>
      </defs>
      <g transform="translate(129.224375 471.816875)scale(0.3 -0.3)">
       <use xlink:href="#DejaVuSans-49"/>
      </g>
     </g>
    </g>
    <g id="xtick_3">
     <g id="line2d_3">
      <g>
       <use style="stroke:#000000;stroke-width:0.8;" x="194.568125" xlink:href="#m199d664ca9" y="442.021562"/>
      </g>
     </g>
     <g id="text_3">
      <!-- 2 -->
      <defs>
       <path d="M 19.1875 8.296875 
L 53.609375 8.296875 
L 53.609375 0 
L 7.328125 0 
L 7.328125 8.296875 
Q 12.9375 14.109375 22.625 23.890625 
Q 32.328125 33.6875 34.8125 36.53125 
Q 39.546875 41.84375 41.421875 45.53125 
Q 43.3125 49.21875 43.3125 52.78125 
Q 43.3125 58.59375 39.234375 62.25 
Q 35.15625 65.921875 28.609375 65.921875 
Q 23.96875 65.921875 18.8125 64.3125 
Q 13.671875 62.703125 7.8125 59.421875 
L 7.8125 69.390625 
Q 13.765625 71.78125 18.9375 73 
Q 24.125 74.21875 28.421875 74.21875 
Q 39.75 74.21875 46.484375 68.546875 
Q 53.21875 62.890625 53.21875 53.421875 
Q 53.21875 48.921875 51.53125 44.890625 
Q 49.859375 40.875 45.40625 35.40625 
Q 44.1875 33.984375 37.640625 27.21875 
Q 31.109375 20.453125 19.1875 8.296875 
z
" id="DejaVuSans-50"/>
      </defs>
      <g transform="translate(185.024375 471.816875)scale(0.3 -0.3)">
       <use xlink:href="#DejaVuSans-50"/>
      </g>
     </g>
    </g>
    <g id="xtick_4">
     <g id="line2d_4">
      <g>
       <use style="stroke:#000000;stroke-width:0.8;" x="250.368125" xlink:href="#m199d664ca9" y="442.021562"/>
      </g>
     </g>
     <g id="text_4">
      <!-- 3 -->
      <defs>
       <path d="M 40.578125 39.3125 
Q 47.65625 37.796875 51.625 33 
Q 55.609375 28.21875 55.609375 21.1875 
Q 55.609375 10.40625 48.1875 4.484375 
Q 40.765625 -1.421875 27.09375 -1.421875 
Q 22.515625 -1.421875 17.65625 -0.515625 
Q 12.796875 0.390625 7.625 2.203125 
L 7.625 11.71875 
Q 11.71875 9.328125 16.59375 8.109375 
Q 21.484375 6.890625 26.8125 6.890625 
Q 36.078125 6.890625 40.9375 10.546875 
Q 45.796875 14.203125 45.796875 21.1875 
Q 45.796875 27.640625 41.28125 31.265625 
Q 36.765625 34.90625 28.71875 34.90625 
L 20.21875 34.90625 
L 20.21875 43.015625 
L 29.109375 43.015625 
Q 36.375 43.015625 40.234375 45.921875 
Q 44.09375 48.828125 44.09375 54.296875 
Q 44.09375 59.90625 40.109375 62.90625 
Q 36.140625 65.921875 28.71875 65.921875 
Q 24.65625 65.921875 20.015625 65.03125 
Q 15.375 64.15625 9.8125 62.3125 
L 9.8125 71.09375 
Q 15.4375 72.65625 20.34375 73.4375 
Q 25.25 74.21875 29.59375 74.21875 
Q 40.828125 74.21875 47.359375 69.109375 
Q 53.90625 64.015625 53.90625 55.328125 
Q 53.90625 49.265625 50.4375 45.09375 
Q 46.96875 40.921875 40.578125 39.3125 
z
" id="DejaVuSans-51"/>
      </defs>
      <g transform="translate(240.824375 471.816875)scale(0.3 -0.3)">
       <use xlink:href="#DejaVuSans-51"/>
      </g>
     </g>
    </g>
    <g id="xtick_5">
     <g id="line2d_5">
      <g>
       <use style="stroke:#000000;stroke-width:0.8;" x="306.168125" xlink:href="#m199d664ca9" y="442.021562"/>
      </g>
     </g>
     <g id="text_5">
      <!-- 4 -->
      <defs>
       <path d="M 37.796875 64.3125 
L 12.890625 25.390625 
L 37.796875 25.390625 
z
M 35.203125 72.90625 
L 47.609375 72.90625 
L 47.609375 25.390625 
L 58.015625 25.390625 
L 58.015625 17.1875 
L 47.609375 17.1875 
L 47.609375 0 
L 37.796875 0 
L 37.796875 17.1875 
L 4.890625 17.1875 
L 4.890625 26.703125 
z
" id="DejaVuSans-52"/>
      </defs>
      <g transform="translate(296.624375 471.816875)scale(0.3 -0.3)">
       <use xlink:href="#DejaVuSans-52"/>
      </g>
     </g>
    </g>
    <g id="xtick_6">
     <g id="line2d_6">
      <g>
       <use style="stroke:#000000;stroke-width:0.8;" x="361.968125" xlink:href="#m199d664ca9" y="442.021562"/>
      </g>
     </g>
     <g id="text_6">
      <!-- 5 -->
      <defs>
       <path d="M 10.796875 72.90625 
L 49.515625 72.90625 
L 49.515625 64.59375 
L 19.828125 64.59375 
L 19.828125 46.734375 
Q 21.96875 47.46875 24.109375 47.828125 
Q 26.265625 48.1875 28.421875 48.1875 
Q 40.625 48.1875 47.75 41.5 
Q 54.890625 34.8125 54.890625 23.390625 
Q 54.890625 11.625 47.5625 5.09375 
Q 40.234375 -1.421875 26.90625 -1.421875 
Q 22.3125 -1.421875 17.546875 -0.640625 
Q 12.796875 0.140625 7.71875 1.703125 
L 7.71875 11.625 
Q 12.109375 9.234375 16.796875 8.0625 
Q 21.484375 6.890625 26.703125 6.890625 
Q 35.15625 6.890625 40.078125 11.328125 
Q 45.015625 15.765625 45.015625 23.390625 
Q 45.015625 31 40.078125 35.4375 
Q 35.15625 39.890625 26.703125 39.890625 
Q 22.75 39.890625 18.8125 39.015625 
Q 14.890625 38.140625 10.796875 36.28125 
z
" id="DejaVuSans-53"/>
      </defs>
      <g transform="translate(352.424375 471.816875)scale(0.3 -0.3)">
       <use xlink:href="#DejaVuSans-53"/>
      </g>
     </g>
    </g>
    <g id="xtick_7">
     <g id="line2d_7">
      <g>
       <use style="stroke:#000000;stroke-width:0.8;" x="417.768125" xlink:href="#m199d664ca9" y="442.021562"/>
      </g>
     </g>
     <g id="text_7">
      <!-- 6 -->
      <defs>
       <path d="M 33.015625 40.375 
Q 26.375 40.375 22.484375 35.828125 
Q 18.609375 31.296875 18.609375 23.390625 
Q 18.609375 15.53125 22.484375 10.953125 
Q 26.375 6.390625 33.015625 6.390625 
Q 39.65625 6.390625 43.53125 10.953125 
Q 47.40625 15.53125 47.40625 23.390625 
Q 47.40625 31.296875 43.53125 35.828125 
Q 39.65625 40.375 33.015625 40.375 
z
M 52.59375 71.296875 
L 52.59375 62.3125 
Q 48.875 64.0625 45.09375 64.984375 
Q 41.3125 65.921875 37.59375 65.921875 
Q 27.828125 65.921875 22.671875 59.328125 
Q 17.53125 52.734375 16.796875 39.40625 
Q 19.671875 43.65625 24.015625 45.921875 
Q 28.375 48.1875 33.59375 48.1875 
Q 44.578125 48.1875 50.953125 41.515625 
Q 57.328125 34.859375 57.328125 23.390625 
Q 57.328125 12.15625 50.6875 5.359375 
Q 44.046875 -1.421875 33.015625 -1.421875 
Q 20.359375 -1.421875 13.671875 8.265625 
Q 6.984375 17.96875 6.984375 36.375 
Q 6.984375 53.65625 15.1875 63.9375 
Q 23.390625 74.21875 37.203125 74.21875 
Q 40.921875 74.21875 44.703125 73.484375 
Q 48.484375 72.75 52.59375 71.296875 
z
" id="DejaVuSans-54"/>
      </defs>
      <g transform="translate(408.224375 471.816875)scale(0.3 -0.3)">
       <use xlink:href="#DejaVuSans-54"/>
      </g>
     </g>
    </g>
    <g id="xtick_8">
     <g id="line2d_8">
      <g>
       <use style="stroke:#000000;stroke-width:0.8;" x="473.568125" xlink:href="#m199d664ca9" y="442.021562"/>
      </g>
     </g>
     <g id="text_8">
      <!-- 7 -->
      <defs>
       <path d="M 8.203125 72.90625 
L 55.078125 72.90625 
L 55.078125 68.703125 
L 28.609375 0 
L 18.3125 0 
L 43.21875 64.59375 
L 8.203125 64.59375 
z
" id="DejaVuSans-55"/>
      </defs>
      <g transform="translate(464.024375 471.816875)scale(0.3 -0.3)">
       <use xlink:href="#DejaVuSans-55"/>
      </g>
     </g>
    </g>
    <g id="text_9">
     <!-- TIME (DAYS) -->
     <defs>
      <path d="M 23.390625 0 
L 23.390625 59.46875 
L 2.15625 59.46875 
L 2.15625 71.578125 
L 59.03125 71.578125 
L 59.03125 59.46875 
L 37.84375 59.46875 
L 37.84375 0 
z
" id="Arial-BoldMT-84"/>
      <path d="M 6.84375 0 
L 6.84375 71.578125 
L 21.296875 71.578125 
L 21.296875 0 
z
" id="Arial-BoldMT-73"/>
      <path d="M 7.078125 0 
L 7.078125 71.578125 
L 28.71875 71.578125 
L 41.703125 22.75 
L 54.546875 71.578125 
L 76.21875 71.578125 
L 76.21875 0 
L 62.796875 0 
L 62.796875 56.34375 
L 48.578125 0 
L 34.671875 0 
L 20.515625 56.34375 
L 20.515625 0 
z
" id="Arial-BoldMT-77"/>
      <path d="M 7.28125 0 
L 7.28125 71.578125 
L 60.359375 71.578125 
L 60.359375 59.46875 
L 21.734375 59.46875 
L 21.734375 43.609375 
L 57.671875 43.609375 
L 57.671875 31.546875 
L 21.734375 31.546875 
L 21.734375 12.0625 
L 61.71875 12.0625 
L 61.71875 0 
z
" id="Arial-BoldMT-69"/>
      <path id="Arial-BoldMT-32"/>
      <path d="M 29.9375 -21.046875 
L 20.515625 -21.046875 
Q 13.03125 -9.765625 9.125 2.390625 
Q 5.21875 14.546875 5.21875 25.921875 
Q 5.21875 40.046875 10.0625 52.640625 
Q 14.265625 63.578125 20.703125 72.796875 
L 30.078125 72.796875 
Q 23.390625 58.015625 20.875 47.625 
Q 18.359375 37.25 18.359375 25.640625 
Q 18.359375 17.625 19.84375 9.21875 
Q 21.34375 0.828125 23.921875 -6.734375 
Q 25.640625 -11.71875 29.9375 -21.046875 
z
" id="Arial-BoldMT-40"/>
      <path d="M 7.234375 71.578125 
L 33.640625 71.578125 
Q 42.578125 71.578125 47.265625 70.21875 
Q 53.5625 68.359375 58.046875 63.625 
Q 62.546875 58.890625 64.890625 52.03125 
Q 67.234375 45.171875 67.234375 35.109375 
Q 67.234375 26.265625 65.046875 19.875 
Q 62.359375 12.0625 57.375 7.234375 
Q 53.609375 3.5625 47.21875 1.515625 
Q 42.4375 0 34.421875 0 
L 7.234375 0 
z
M 21.6875 59.46875 
L 21.6875 12.0625 
L 32.46875 12.0625 
Q 38.53125 12.0625 41.21875 12.75 
Q 44.734375 13.625 47.046875 15.71875 
Q 49.359375 17.828125 50.828125 22.625 
Q 52.296875 27.4375 52.296875 35.75 
Q 52.296875 44.046875 50.828125 48.484375 
Q 49.359375 52.9375 46.71875 55.421875 
Q 44.09375 57.90625 40.046875 58.796875 
Q 37.015625 59.46875 28.171875 59.46875 
z
" id="Arial-BoldMT-68"/>
      <path d="M 71.828125 0 
L 56.109375 0 
L 49.859375 16.265625 
L 21.234375 16.265625 
L 15.328125 0 
L 0 0 
L 27.875 71.578125 
L 43.171875 71.578125 
z
M 45.21875 28.328125 
L 35.359375 54.890625 
L 25.6875 28.328125 
z
" id="Arial-BoldMT-65"/>
      <path d="M 26.078125 0 
L 26.078125 30.125 
L -0.140625 71.578125 
L 16.796875 71.578125 
L 33.640625 43.265625 
L 50.140625 71.578125 
L 66.796875 71.578125 
L 40.484375 30.03125 
L 40.484375 0 
z
" id="Arial-BoldMT-89"/>
      <path d="M 3.609375 23.296875 
L 17.671875 24.65625 
Q 18.953125 17.578125 22.828125 14.25 
Q 26.703125 10.9375 33.296875 10.9375 
Q 40.28125 10.9375 43.8125 13.890625 
Q 47.359375 16.84375 47.359375 20.796875 
Q 47.359375 23.34375 45.875 25.125 
Q 44.390625 26.90625 40.671875 28.21875 
Q 38.140625 29.109375 29.109375 31.34375 
Q 17.484375 34.234375 12.796875 38.421875 
Q 6.203125 44.34375 6.203125 52.828125 
Q 6.203125 58.296875 9.296875 63.0625 
Q 12.40625 67.828125 18.234375 70.3125 
Q 24.078125 72.796875 32.328125 72.796875 
Q 45.796875 72.796875 52.609375 66.890625 
Q 59.421875 60.984375 59.765625 51.125 
L 45.3125 50.484375 
Q 44.390625 56 41.328125 58.421875 
Q 38.28125 60.84375 32.171875 60.84375 
Q 25.875 60.84375 22.3125 58.25 
Q 20.015625 56.59375 20.015625 53.8125 
Q 20.015625 51.265625 22.171875 49.46875 
Q 24.90625 47.171875 35.453125 44.671875 
Q 46 42.1875 51.046875 39.515625 
Q 56.109375 36.859375 58.953125 32.25 
Q 61.8125 27.640625 61.8125 20.84375 
Q 61.8125 14.703125 58.390625 9.328125 
Q 54.984375 3.953125 48.734375 1.34375 
Q 42.484375 -1.265625 33.15625 -1.265625 
Q 19.578125 -1.265625 12.296875 5 
Q 5.03125 11.28125 3.609375 23.296875 
z
" id="Arial-BoldMT-83"/>
      <path d="M 3.375 -21.046875 
Q 7.421875 -12.359375 9.078125 -7.71875 
Q 10.75 -3.078125 12.15625 2.96875 
Q 13.578125 9.03125 14.25 14.46875 
Q 14.9375 19.921875 14.9375 25.640625 
Q 14.9375 37.25 12.453125 47.625 
Q 9.96875 58.015625 3.265625 72.796875 
L 12.59375 72.796875 
Q 19.96875 62.3125 24.046875 50.53125 
Q 28.125 38.765625 28.125 26.65625 
Q 28.125 16.453125 24.90625 4.78125 
Q 21.234375 -8.296875 12.84375 -21.046875 
z
" id="Arial-BoldMT-41"/>
     </defs>
     <g transform="translate(217.174375 502.615312)scale(0.2 -0.2)">
      <use xlink:href="#Arial-BoldMT-84"/>
      <use x="61.083984" xlink:href="#Arial-BoldMT-73"/>
      <use x="88.867188" xlink:href="#Arial-BoldMT-77"/>
      <use x="172.167969" xlink:href="#Arial-BoldMT-69"/>
      <use x="238.867188" xlink:href="#Arial-BoldMT-32"/>
      <use x="266.650391" xlink:href="#Arial-BoldMT-40"/>
      <use x="299.951172" xlink:href="#Arial-BoldMT-68"/>
      <use x="372.167969" xlink:href="#Arial-BoldMT-65"/>
      <use x="444.244141" xlink:href="#Arial-BoldMT-89"/>
      <use x="510.943359" xlink:href="#Arial-BoldMT-83"/>
      <use x="577.642578" xlink:href="#Arial-BoldMT-41"/>
     </g>
    </g>
   </g>
   <g id="matplotlib.axis_2">
    <g id="ytick_1">
     <g id="line2d_9">
      <defs>
       <path d="M 0 0 
L -3.5 0 
" id="m1a5a322611" style="stroke:#000000;stroke-width:0.8;"/>
      </defs>
      <g>
       <use style="stroke:#000000;stroke-width:0.8;" x="82.968125" xlink:href="#m1a5a322611" y="442.021562"/>
      </g>
     </g>
     <g id="text_10">
      <!-- 0 -->
      <g transform="translate(56.880625 453.419219)scale(0.3 -0.3)">
       <use xlink:href="#DejaVuSans-48"/>
      </g>
     </g>
    </g>
    <g id="ytick_2">
     <g id="line2d_10">
      <g>
       <use style="stroke:#000000;stroke-width:0.8;" x="82.968125" xlink:href="#m1a5a322611" y="365.917562"/>
      </g>
     </g>
     <g id="text_11">
      <!-- 1 -->
      <g transform="translate(56.880625 377.315219)scale(0.3 -0.3)">
       <use xlink:href="#DejaVuSans-49"/>
      </g>
     </g>
    </g>
    <g id="ytick_3">
     <g id="line2d_11">
      <g>
       <use style="stroke:#000000;stroke-width:0.8;" x="82.968125" xlink:href="#m1a5a322611" y="289.813562"/>
      </g>
     </g>
     <g id="text_12">
      <!-- 2 -->
      <g transform="translate(56.880625 301.211219)scale(0.3 -0.3)">
       <use xlink:href="#DejaVuSans-50"/>
      </g>
     </g>
    </g>
    <g id="ytick_4">
     <g id="line2d_12">
      <g>
       <use style="stroke:#000000;stroke-width:0.8;" x="82.968125" xlink:href="#m1a5a322611" y="213.709562"/>
      </g>
     </g>
     <g id="text_13">
      <!-- 3 -->
      <g transform="translate(56.880625 225.107219)scale(0.3 -0.3)">
       <use xlink:href="#DejaVuSans-51"/>
      </g>
     </g>
    </g>
    <g id="ytick_5">
     <g id="line2d_13">
      <g>
       <use style="stroke:#000000;stroke-width:0.8;" x="82.968125" xlink:href="#m1a5a322611" y="137.605562"/>
      </g>
     </g>
     <g id="text_14">
      <!-- 4 -->
      <g transform="translate(56.880625 149.003219)scale(0.3 -0.3)">
       <use xlink:href="#DejaVuSans-52"/>
      </g>
     </g>
    </g>
    <g id="ytick_6">
     <g id="line2d_14">
      <g>
       <use style="stroke:#000000;stroke-width:0.8;" x="82.968125" xlink:href="#m1a5a322611" y="61.501562"/>
      </g>
     </g>
     <g id="text_15">
      <!-- 5 -->
      <g transform="translate(56.880625 72.899219)scale(0.3 -0.3)">
       <use xlink:href="#DejaVuSans-53"/>
      </g>
     </g>
    </g>
    <g id="text_16">
     <!-- GLUCOSE CONCENTRATION -->
     <defs>
      <path d="M 40.578125 26.3125 
L 40.578125 38.375 
L 71.734375 38.375 
L 71.734375 9.859375 
Q 67.1875 5.46875 58.5625 2.125 
Q 49.953125 -1.21875 41.109375 -1.21875 
Q 29.890625 -1.21875 21.53125 3.484375 
Q 13.1875 8.203125 8.984375 16.96875 
Q 4.78125 25.734375 4.78125 36.03125 
Q 4.78125 47.21875 9.46875 55.90625 
Q 14.15625 64.59375 23.1875 69.234375 
Q 30.078125 72.796875 40.328125 72.796875 
Q 53.65625 72.796875 61.15625 67.203125 
Q 68.65625 61.625 70.796875 51.765625 
L 56.453125 49.078125 
Q 54.9375 54.34375 50.75 57.390625 
Q 46.578125 60.453125 40.328125 60.453125 
Q 30.859375 60.453125 25.265625 54.4375 
Q 19.671875 48.4375 19.671875 36.625 
Q 19.671875 23.875 25.328125 17.5 
Q 31 11.140625 40.1875 11.140625 
Q 44.734375 11.140625 49.296875 12.921875 
Q 53.859375 14.703125 57.125 17.234375 
L 57.125 26.3125 
z
" id="Arial-BoldMT-71"/>
      <path d="M 7.671875 0 
L 7.671875 71 
L 22.125 71 
L 22.125 12.0625 
L 58.0625 12.0625 
L 58.0625 0 
z
" id="Arial-BoldMT-76"/>
      <path d="M 7.171875 71.578125 
L 21.625 71.578125 
L 21.625 32.8125 
Q 21.625 23.578125 22.171875 20.84375 
Q 23.09375 16.453125 26.578125 13.796875 
Q 30.078125 11.140625 36.140625 11.140625 
Q 42.28125 11.140625 45.40625 13.640625 
Q 48.53125 16.15625 49.171875 19.8125 
Q 49.8125 23.484375 49.8125 31.984375 
L 49.8125 71.578125 
L 64.265625 71.578125 
L 64.265625 33.984375 
Q 64.265625 21.09375 63.09375 15.765625 
Q 61.921875 10.453125 58.765625 6.78125 
Q 55.609375 3.125 50.328125 0.953125 
Q 45.0625 -1.21875 36.578125 -1.21875 
Q 26.3125 -1.21875 21.015625 1.140625 
Q 15.71875 3.515625 12.640625 7.296875 
Q 9.578125 11.078125 8.59375 15.234375 
Q 7.171875 21.390625 7.171875 33.40625 
z
" id="Arial-BoldMT-85"/>
      <path d="M 53.078125 26.3125 
L 67.09375 21.875 
Q 63.875 10.15625 56.375 4.46875 
Q 48.875 -1.21875 37.359375 -1.21875 
Q 23.09375 -1.21875 13.90625 8.515625 
Q 4.734375 18.265625 4.734375 35.15625 
Q 4.734375 53.03125 13.953125 62.90625 
Q 23.1875 72.796875 38.234375 72.796875 
Q 51.375 72.796875 59.578125 65.046875 
Q 64.453125 60.453125 66.890625 51.859375 
L 52.59375 48.4375 
Q 51.3125 54 47.28125 57.21875 
Q 43.265625 60.453125 37.5 60.453125 
Q 29.546875 60.453125 24.578125 54.734375 
Q 19.625 49.03125 19.625 36.234375 
Q 19.625 22.65625 24.5 16.890625 
Q 29.390625 11.140625 37.203125 11.140625 
Q 42.96875 11.140625 47.109375 14.796875 
Q 51.265625 18.453125 53.078125 26.3125 
z
" id="Arial-BoldMT-67"/>
      <path d="M 4.34375 35.359375 
Q 4.34375 46.296875 7.625 53.71875 
Q 10.0625 59.1875 14.28125 63.53125 
Q 18.5 67.875 23.53125 69.96875 
Q 30.21875 72.796875 38.96875 72.796875 
Q 54.78125 72.796875 64.28125 62.984375 
Q 73.78125 53.171875 73.78125 35.6875 
Q 73.78125 18.359375 64.359375 8.5625 
Q 54.9375 -1.21875 39.15625 -1.21875 
Q 23.1875 -1.21875 13.765625 8.515625 
Q 4.34375 18.265625 4.34375 35.359375 
z
M 19.234375 35.84375 
Q 19.234375 23.6875 24.84375 17.40625 
Q 30.46875 11.140625 39.109375 11.140625 
Q 47.75 11.140625 53.296875 17.359375 
Q 58.84375 23.578125 58.84375 36.03125 
Q 58.84375 48.34375 53.4375 54.390625 
Q 48.046875 60.453125 39.109375 60.453125 
Q 30.171875 60.453125 24.703125 54.3125 
Q 19.234375 48.1875 19.234375 35.84375 
z
" id="Arial-BoldMT-79"/>
      <path d="M 7.421875 0 
L 7.421875 71.578125 
L 21.484375 71.578125 
L 50.78125 23.78125 
L 50.78125 71.578125 
L 64.203125 71.578125 
L 64.203125 0 
L 49.703125 0 
L 20.84375 46.6875 
L 20.84375 0 
z
" id="Arial-BoldMT-78"/>
      <path d="M 7.328125 0 
L 7.328125 71.578125 
L 37.75 71.578125 
Q 49.21875 71.578125 54.421875 69.640625 
Q 59.625 67.71875 62.75 62.78125 
Q 65.875 57.859375 65.875 51.515625 
Q 65.875 43.453125 61.125 38.203125 
Q 56.390625 32.953125 46.96875 31.59375 
Q 51.65625 28.859375 54.703125 25.578125 
Q 57.765625 22.3125 62.9375 13.96875 
L 71.6875 0 
L 54.390625 0 
L 43.953125 15.578125 
Q 38.375 23.921875 36.328125 26.09375 
Q 34.28125 28.265625 31.984375 29.078125 
Q 29.6875 29.890625 24.703125 29.890625 
L 21.78125 29.890625 
L 21.78125 0 
z
M 21.78125 41.3125 
L 32.46875 41.3125 
Q 42.875 41.3125 45.453125 42.1875 
Q 48.046875 43.0625 49.515625 45.203125 
Q 50.984375 47.359375 50.984375 50.59375 
Q 50.984375 54.203125 49.046875 56.421875 
Q 47.125 58.640625 43.609375 59.234375 
Q 41.84375 59.46875 33.0625 59.46875 
L 21.78125 59.46875 
z
" id="Arial-BoldMT-82"/>
     </defs>
     <g transform="translate(21.253125 391.750625)rotate(-90)scale(0.2 -0.2)">
      <use xlink:href="#Arial-BoldMT-71"/>
      <use x="77.783203" xlink:href="#Arial-BoldMT-76"/>
      <use x="138.867188" xlink:href="#Arial-BoldMT-85"/>
      <use x="211.083984" xlink:href="#Arial-BoldMT-67"/>
      <use x="283.300781" xlink:href="#Arial-BoldMT-79"/>
      <use x="361.083984" xlink:href="#Arial-BoldMT-83"/>
      <use x="427.783203" xlink:href="#Arial-BoldMT-69"/>
      <use x="494.482422" xlink:href="#Arial-BoldMT-32"/>
      <use x="522.265625" xlink:href="#Arial-BoldMT-67"/>
      <use x="594.482422" xlink:href="#Arial-BoldMT-79"/>
      <use x="672.265625" xlink:href="#Arial-BoldMT-78"/>
      <use x="744.482422" xlink:href="#Arial-BoldMT-67"/>
      <use x="816.699219" xlink:href="#Arial-BoldMT-69"/>
      <use x="883.398438" xlink:href="#Arial-BoldMT-78"/>
      <use x="955.615234" xlink:href="#Arial-BoldMT-84"/>
      <use x="1016.699219" xlink:href="#Arial-BoldMT-82"/>
      <use x="1088.916016" xlink:href="#Arial-BoldMT-65"/>
      <use x="1161.023438" xlink:href="#Arial-BoldMT-84"/>
      <use x="1222.107422" xlink:href="#Arial-BoldMT-73"/>
      <use x="1249.890625" xlink:href="#Arial-BoldMT-79"/>
      <use x="1327.673828" xlink:href="#Arial-BoldMT-78"/>
     </g>
     <!-- (fmol/ml) -->
     <defs>
      <path d="M 1.171875 51.859375 
L 8.796875 51.859375 
L 8.796875 55.765625 
Q 8.796875 62.3125 10.1875 65.53125 
Q 11.578125 68.75 15.3125 70.765625 
Q 19.046875 72.796875 24.75 72.796875 
Q 30.609375 72.796875 36.234375 71.046875 
L 34.375 61.46875 
Q 31.109375 62.25 28.078125 62.25 
Q 25.09375 62.25 23.796875 60.859375 
Q 22.515625 59.46875 22.515625 55.515625 
L 22.515625 51.859375 
L 32.765625 51.859375 
L 32.765625 41.0625 
L 22.515625 41.0625 
L 22.515625 0 
L 8.796875 0 
L 8.796875 41.0625 
L 1.171875 41.0625 
z
" id="Arial-BoldMT-102"/>
      <path d="M 6.15625 51.859375 
L 18.796875 51.859375 
L 18.796875 44.78125 
Q 25.59375 53.03125 34.96875 53.03125 
Q 39.9375 53.03125 43.59375 50.96875 
Q 47.265625 48.921875 49.609375 44.78125 
Q 53.03125 48.921875 56.984375 50.96875 
Q 60.9375 53.03125 65.4375 53.03125 
Q 71.140625 53.03125 75.09375 50.703125 
Q 79.046875 48.390625 81 43.890625 
Q 82.421875 40.578125 82.421875 33.15625 
L 82.421875 0 
L 68.703125 0 
L 68.703125 29.640625 
Q 68.703125 37.359375 67.28125 39.59375 
Q 65.375 42.53125 61.421875 42.53125 
Q 58.546875 42.53125 56 40.765625 
Q 53.46875 39.015625 52.34375 35.625 
Q 51.21875 32.234375 51.21875 24.90625 
L 51.21875 0 
L 37.5 0 
L 37.5 28.421875 
Q 37.5 35.984375 36.765625 38.171875 
Q 36.03125 40.375 34.484375 41.453125 
Q 32.953125 42.53125 30.328125 42.53125 
Q 27.15625 42.53125 24.609375 40.8125 
Q 22.078125 39.109375 20.96875 35.890625 
Q 19.875 32.671875 19.875 25.203125 
L 19.875 0 
L 6.15625 0 
z
" id="Arial-BoldMT-109"/>
      <path d="M 4 26.65625 
Q 4 33.5 7.375 39.890625 
Q 10.75 46.296875 16.921875 49.65625 
Q 23.09375 53.03125 30.71875 53.03125 
Q 42.484375 53.03125 50 45.390625 
Q 57.515625 37.75 57.515625 26.078125 
Q 57.515625 14.3125 49.921875 6.5625 
Q 42.328125 -1.171875 30.8125 -1.171875 
Q 23.6875 -1.171875 17.21875 2.046875 
Q 10.75 5.28125 7.375 11.5 
Q 4 17.71875 4 26.65625 
z
M 18.0625 25.921875 
Q 18.0625 18.21875 21.71875 14.109375 
Q 25.390625 10.015625 30.765625 10.015625 
Q 36.140625 10.015625 39.765625 14.109375 
Q 43.40625 18.21875 43.40625 26.03125 
Q 43.40625 33.640625 39.765625 37.734375 
Q 36.140625 41.84375 30.765625 41.84375 
Q 25.390625 41.84375 21.71875 37.734375 
Q 18.0625 33.640625 18.0625 25.921875 
z
" id="Arial-BoldMT-111"/>
      <path d="M 7.171875 0 
L 7.171875 71.578125 
L 20.90625 71.578125 
L 20.90625 0 
z
" id="Arial-BoldMT-108"/>
      <path d="M -0.140625 -1.21875 
L 17.578125 72.796875 
L 27.875 72.796875 
L 9.96875 -1.21875 
z
" id="Arial-BoldMT-47"/>
     </defs>
     <g transform="translate(42.67125 293.977187)rotate(-90)scale(0.2 -0.2)">
      <use xlink:href="#Arial-BoldMT-40"/>
      <use x="33.300781" xlink:href="#Arial-BoldMT-102"/>
      <use x="66.601562" xlink:href="#Arial-BoldMT-109"/>
      <use x="155.517578" xlink:href="#Arial-BoldMT-111"/>
      <use x="216.601562" xlink:href="#Arial-BoldMT-108"/>
      <use x="244.384766" xlink:href="#Arial-BoldMT-47"/>
      <use x="272.167969" xlink:href="#Arial-BoldMT-109"/>
      <use x="361.083984" xlink:href="#Arial-BoldMT-108"/>
      <use x="388.867188" xlink:href="#Arial-BoldMT-41"/>
     </g>
    </g>
    <g id="text_17">
     <!-- 1e9 -->
     <defs>
      <path d="M 56.203125 29.59375 
L 56.203125 25.203125 
L 14.890625 25.203125 
Q 15.484375 15.921875 20.484375 11.0625 
Q 25.484375 6.203125 34.421875 6.203125 
Q 39.59375 6.203125 44.453125 7.46875 
Q 49.3125 8.734375 54.109375 11.28125 
L 54.109375 2.78125 
Q 49.265625 0.734375 44.1875 -0.34375 
Q 39.109375 -1.421875 33.890625 -1.421875 
Q 20.796875 -1.421875 13.15625 6.1875 
Q 5.515625 13.8125 5.515625 26.8125 
Q 5.515625 40.234375 12.765625 48.109375 
Q 20.015625 56 32.328125 56 
Q 43.359375 56 49.78125 48.890625 
Q 56.203125 41.796875 56.203125 29.59375 
z
M 47.21875 32.234375 
Q 47.125 39.59375 43.09375 43.984375 
Q 39.0625 48.390625 32.421875 48.390625 
Q 24.90625 48.390625 20.390625 44.140625 
Q 15.875 39.890625 15.1875 32.171875 
z
" id="DejaVuSans-101"/>
      <path d="M 10.984375 1.515625 
L 10.984375 10.5 
Q 14.703125 8.734375 18.5 7.8125 
Q 22.3125 6.890625 25.984375 6.890625 
Q 35.75 6.890625 40.890625 13.453125 
Q 46.046875 20.015625 46.78125 33.40625 
Q 43.953125 29.203125 39.59375 26.953125 
Q 35.25 24.703125 29.984375 24.703125 
Q 19.046875 24.703125 12.671875 31.3125 
Q 6.296875 37.9375 6.296875 49.421875 
Q 6.296875 60.640625 12.9375 67.421875 
Q 19.578125 74.21875 30.609375 74.21875 
Q 43.265625 74.21875 49.921875 64.515625 
Q 56.59375 54.828125 56.59375 36.375 
Q 56.59375 19.140625 48.40625 8.859375 
Q 40.234375 -1.421875 26.421875 -1.421875 
Q 22.703125 -1.421875 18.890625 -0.6875 
Q 15.09375 0.046875 10.984375 1.515625 
z
M 30.609375 32.421875 
Q 37.25 32.421875 41.125 36.953125 
Q 45.015625 41.5 45.015625 49.421875 
Q 45.015625 57.28125 41.125 61.84375 
Q 37.25 66.40625 30.609375 66.40625 
Q 23.96875 66.40625 20.09375 61.84375 
Q 16.21875 57.28125 16.21875 49.421875 
Q 16.21875 41.5 20.09375 36.953125 
Q 23.96875 32.421875 30.609375 32.421875 
z
" id="DejaVuSans-57"/>
     </defs>
     <g transform="translate(82.968125 58.501562)scale(0.1 -0.1)">
      <use xlink:href="#DejaVuSans-49"/>
      <use x="63.623047" xlink:href="#DejaVuSans-101"/>
      <use x="125.146484" xlink:href="#DejaVuSans-57"/>
     </g>
    </g>
   </g>
   <g id="line2d_15">
    <path clip-path="url(#p45341b55de)" d="M 82.968125 61.420275 
L 110.868125 74.69538 
L 138.768125 72.222239 
L 166.668125 86.153158 
L 194.568125 84.277199 
L 222.468125 96.253782 
L 250.368125 101.803025 
L 278.268125 113.322539 
L 306.168125 116.588331 
L 334.068125 129.404773 
L 361.968125 128.11664 
L 389.868125 117.799337 
L 417.768125 118.907047 
L 445.668125 118.636651 
L 473.568125 117.364427 
" style="fill:none;stroke:#08306b;stroke-linecap:square;stroke-width:1.5;"/>
   </g>
   <g id="line2d_16">
    <path clip-path="url(#p45341b55de)" d="M 82.968125 61.420275 
L 110.868125 74.662443 
L 138.768125 72.23112 
L 166.668125 85.594777 
L 194.568125 83.715713 
L 222.468125 95.307913 
L 250.368125 100.116498 
L 278.268125 111.370186 
L 306.168125 113.017309 
L 334.068125 128.523355 
L 361.968125 127.449445 
L 389.868125 118.255803 
L 417.768125 116.410841 
L 445.668125 113.54146 
L 473.568125 113.952228 
" style="fill:none;stroke:#08306b;stroke-linecap:square;stroke-width:1.5;"/>
   </g>
   <g id="line2d_17">
    <path clip-path="url(#p45341b55de)" d="M 82.968125 61.420275 
L 110.868125 75.116409 
L 138.768125 72.477201 
L 166.668125 86.461407 
L 194.568125 84.512761 
L 222.468125 96.194892 
L 250.368125 101.025205 
L 278.268125 110.390345 
L 306.168125 112.088512 
L 334.068125 129.879475 
L 361.968125 130.672556 
L 389.868125 121.670244 
L 417.768125 118.209932 
L 445.668125 121.09798 
L 473.568125 118.574829 
" style="fill:none;stroke:#08306b;stroke-linecap:square;stroke-width:1.5;"/>
   </g>
   <g id="line2d_18">
    <path clip-path="url(#p45341b55de)" d="M 82.968125 61.420275 
L 110.868125 74.632351 
L 138.768125 71.837252 
L 166.668125 86.348454 
L 194.568125 84.860154 
L 222.468125 97.688106 
L 250.368125 102.910822 
L 278.268125 113.150524 
L 306.168125 117.971611 
L 334.068125 129.672022 
L 361.968125 129.749364 
L 389.868125 119.318246 
L 417.768125 121.634462 
L 445.668125 117.672244 
L 473.568125 117.448409 
" style="fill:none;stroke:#08306b;stroke-linecap:square;stroke-width:1.5;"/>
   </g>
   <g id="line2d_19">
    <path clip-path="url(#p45341b55de)" d="M 82.968125 61.420275 
L 110.868125 74.263143 
L 138.768125 72.169642 
L 166.668125 86.315517 
L 194.568125 85.099683 
L 222.468125 98.075421 
L 250.368125 101.317243 
L 278.268125 110.531234 
L 306.168125 113.279859 
L 334.068125 135.403152 
L 361.968125 124.110449 
L 389.868125 119.694956 
L 417.768125 120.642204 
L 445.668125 116.574967 
L 473.568125 116.930034 
" style="fill:none;stroke:#08306b;stroke-linecap:square;stroke-width:1.5;"/>
   </g>
   <g id="line2d_20">
    <path clip-path="url(#p45341b55de)" d="M 82.968125 61.420275 
L 110.868125 76.021839 
L 138.768125 73.001438 
L 166.668125 87.93729 
L 194.568125 85.829045 
L 222.468125 98.225019 
L 250.368125 101.00865 
L 278.268125 111.336559 
L 306.168125 116.015292 
L 334.068125 132.068597 
L 361.968125 127.811065 
L 389.868125 119.324799 
L 417.768125 117.991529 
L 445.668125 116.582641 
L 473.568125 116.088323 
" style="fill:none;stroke:#08306b;stroke-linecap:square;stroke-width:1.5;"/>
   </g>
   <g id="line2d_21">
    <path clip-path="url(#p45341b55de)" d="M 82.968125 61.420275 
L 110.868125 75.390943 
L 138.768125 72.443143 
L 166.668125 86.680069 
L 194.568125 84.602606 
L 222.468125 95.080974 
L 250.368125 100.83241 
L 278.268125 111.791818 
L 306.168125 116.854244 
L 334.068125 128.658984 
L 361.968125 128.808668 
L 389.868125 118.687092 
L 417.768125 116.476069 
L 445.668125 119.532856 
L 473.568125 115.591591 
" style="fill:none;stroke:#08306b;stroke-linecap:square;stroke-width:1.5;"/>
   </g>
   <g id="line2d_22">
    <path clip-path="url(#p45341b55de)" d="M 82.968125 61.420275 
L 110.868125 75.558217 
L 138.768125 72.523244 
L 166.668125 87.473926 
L 194.568125 85.2986 
L 222.468125 96.326469 
L 250.368125 100.453804 
L 278.268125 110.031311 
L 306.168125 118.100601 
L 334.068125 128.563708 
L 361.968125 125.970974 
L 389.868125 116.221969 
L 417.768125 117.094979 
L 445.668125 114.641583 
L 473.568125 114.937156 
" style="fill:none;stroke:#08306b;stroke-linecap:square;stroke-width:1.5;"/>
   </g>
   <g id="line2d_23">
    <path clip-path="url(#p45341b55de)" d="M 82.968125 61.420275 
L 110.868125 75.670393 
L 138.768125 73.0361 
L 166.668125 87.008148 
L 194.568125 86.364233 
L 222.468125 98.527921 
L 250.368125 103.032224 
L 278.268125 111.896493 
L 306.168125 118.256062 
L 334.068125 132.298727 
L 361.968125 127.216383 
L 389.868125 120.094169 
L 417.768125 120.075976 
L 445.668125 117.204569 
L 473.568125 117.29588 
" style="fill:none;stroke:#08306b;stroke-linecap:square;stroke-width:1.5;"/>
   </g>
   <g id="line2d_24">
    <path clip-path="url(#p45341b55de)" d="M 82.968125 61.420275 
L 110.868125 76.205581 
L 138.768125 72.847788 
L 166.668125 88.74296 
L 194.568125 86.137552 
L 222.468125 97.343817 
L 250.368125 100.312656 
L 278.268125 109.602695 
L 306.168125 111.761467 
L 334.068125 130.246355 
L 361.968125 130.374827 
L 389.868125 120.77016 
L 417.768125 119.056559 
L 445.668125 116.995478 
L 473.568125 114.111913 
" style="fill:none;stroke:#08306b;stroke-linecap:square;stroke-width:1.5;"/>
   </g>
   <g id="line2d_25">
    <path clip-path="url(#p45341b55de)" d="M 82.968125 61.420275 
L 110.868125 75.861722 
L 138.768125 72.781483 
L 166.668125 88.905491 
L 194.568125 85.906732 
L 222.468125 97.657756 
L 250.368125 94.29341 
L 278.268125 95.555978 
L 306.168125 94.740737 
L 334.068125 99.491638 
L 361.968125 109.250559 
L 389.868125 108.257871 
L 417.768125 105.517092 
L 445.668125 108.695799 
L 473.568125 109.340835 
" style="fill:none;stroke:#4a98c9;stroke-linecap:square;stroke-width:1.5;"/>
   </g>
   <g id="line2d_26">
    <path clip-path="url(#p45341b55de)" d="M 82.968125 61.420275 
L 110.868125 75.489324 
L 138.768125 72.492549 
L 166.668125 88.14664 
L 194.568125 85.233932 
L 222.468125 97.104634 
L 250.368125 94.076559 
L 278.268125 97.641891 
L 306.168125 95.763948 
L 334.068125 100.613748 
L 361.968125 112.287774 
L 389.868125 108.890146 
L 417.768125 108.311847 
L 445.668125 109.48638 
L 473.568125 106.67464 
" style="fill:none;stroke:#4a98c9;stroke-linecap:square;stroke-width:1.5;"/>
   </g>
   <g id="line2d_27">
    <path clip-path="url(#p45341b55de)" d="M 82.968125 61.420275 
L 110.868125 75.699968 
L 138.768125 72.72561 
L 166.668125 89.033791 
L 194.568125 85.462079 
L 222.468125 96.907613 
L 250.368125 93.674155 
L 278.268125 95.949328 
L 306.168125 95.69221 
L 334.068125 102.539113 
L 361.968125 110.399743 
L 389.868125 109.476809 
L 417.768125 108.897303 
L 445.668125 111.933827 
L 473.568125 108.3716 
" style="fill:none;stroke:#4a98c9;stroke-linecap:square;stroke-width:1.5;"/>
   </g>
   <g id="line2d_28">
    <path clip-path="url(#p45341b55de)" d="M 82.968125 61.420275 
L 110.868125 75.621418 
L 138.768125 72.481684 
L 166.668125 89.270388 
L 194.568125 85.940273 
L 222.468125 96.883298 
L 250.368125 93.276148 
L 278.268125 96.795609 
L 306.168125 95.979851 
L 334.068125 97.304068 
L 361.968125 110.128226 
L 389.868125 111.359063 
L 417.768125 104.693401 
L 445.668125 109.060523 
L 473.568125 108.156041 
" style="fill:none;stroke:#4a98c9;stroke-linecap:square;stroke-width:1.5;"/>
   </g>
   <g id="line2d_29">
    <path clip-path="url(#p45341b55de)" d="M 82.968125 61.420275 
L 110.868125 75.435176 
L 138.768125 72.427191 
L 166.668125 88.598795 
L 194.568125 85.834132 
L 222.468125 96.805439 
L 250.368125 94.357992 
L 278.268125 94.962675 
L 306.168125 93.624577 
L 334.068125 97.434006 
L 361.968125 106.635322 
L 389.868125 106.801129 
L 417.768125 107.837619 
L 445.668125 109.700559 
L 473.568125 108.668466 
" style="fill:none;stroke:#4a98c9;stroke-linecap:square;stroke-width:1.5;"/>
   </g>
   <g id="line2d_30">
    <path clip-path="url(#p45341b55de)" d="M 82.968125 61.420275 
L 110.868125 76.761031 
L 138.768125 73.52033 
L 166.668125 91.219982 
L 194.568125 88.339349 
L 222.468125 98.793144 
L 250.368125 94.774967 
L 278.268125 96.454596 
L 306.168125 96.794402 
L 334.068125 103.216914 
L 361.968125 113.6983 
L 389.868125 112.405382 
L 417.768125 108.325298 
L 445.668125 112.733807 
L 473.568125 110.976749 
" style="fill:none;stroke:#4a98c9;stroke-linecap:square;stroke-width:1.5;"/>
   </g>
   <g id="line2d_31">
    <path clip-path="url(#p45341b55de)" d="M 82.968125 61.420275 
L 110.868125 76.343883 
L 138.768125 73.014285 
L 166.668125 89.48724 
L 194.568125 86.238175 
L 222.468125 97.221207 
L 250.368125 94.222707 
L 278.268125 95.558823 
L 306.168125 95.593657 
L 334.068125 98.897301 
L 361.968125 112.080838 
L 389.868125 110.242213 
L 417.768125 104.751602 
L 445.668125 109.220468 
L 473.568125 108.176131 
" style="fill:none;stroke:#4a98c9;stroke-linecap:square;stroke-width:1.5;"/>
   </g>
   <g id="line2d_32">
    <path clip-path="url(#p45341b55de)" d="M 82.968125 61.420275 
L 110.868125 76.466148 
L 138.768125 72.952205 
L 166.668125 90.458372 
L 194.568125 87.058761 
L 222.468125 96.864416 
L 250.368125 94.07949 
L 278.268125 95.947517 
L 306.168125 94.654858 
L 334.068125 105.568999 
L 361.968125 114.21357 
L 389.868125 109.699438 
L 417.768125 108.439543 
L 445.668125 109.916893 
L 473.568125 105.466997 
" style="fill:none;stroke:#4a98c9;stroke-linecap:square;stroke-width:1.5;"/>
   </g>
   <g id="line2d_33">
    <path clip-path="url(#p45341b55de)" d="M 82.968125 61.420275 
L 110.868125 76.96676 
L 138.768125 73.421604 
L 166.668125 90.539508 
L 194.568125 87.327347 
L 222.468125 97.42228 
L 250.368125 94.969487 
L 278.268125 97.651461 
L 306.168125 96.816475 
L 334.068125 102.202067 
L 361.968125 111.029518 
L 389.868125 107.252335 
L 417.768125 107.584554 
L 445.668125 110.537959 
L 473.568125 108.093874 
" style="fill:none;stroke:#4a98c9;stroke-linecap:square;stroke-width:1.5;"/>
   </g>
   <g id="line2d_34">
    <path clip-path="url(#p45341b55de)" d="M 82.968125 61.420275 
L 110.868125 76.903041 
L 138.768125 73.280284 
L 166.668125 89.985955 
L 194.568125 86.250073 
L 222.468125 96.650065 
L 250.368125 92.740788 
L 278.268125 96.083664 
L 306.168125 95.090286 
L 334.068125 99.210033 
L 361.968125 111.293189 
L 389.868125 108.271408 
L 417.768125 109.90577 
L 445.668125 111.37648 
L 473.568125 106.061851 
" style="fill:none;stroke:#4a98c9;stroke-linecap:square;stroke-width:1.5;"/>
   </g>
   <g id="line2d_35">
    <path clip-path="url(#p45341b55de)" d="M 82.968125 61.420275 
L 110.868125 76.008561 
L 138.768125 72.608433 
L 166.668125 89.571049 
L 194.568125 85.71799 
L 222.468125 96.430971 
L 250.368125 91.517194 
L 278.268125 91.948396 
L 306.168125 92.059452 
L 334.068125 89.898007 
L 361.968125 89.200806 
L 389.868125 89.561133 
L 417.768125 89.818251 
L 445.668125 90.083473 
L 473.568125 89.705384 
" style="fill:none;stroke:#d0e1f2;stroke-linecap:square;stroke-width:1.5;"/>
   </g>
   <g id="line2d_36">
    <path clip-path="url(#p45341b55de)" d="M 82.968125 61.420275 
L 110.868125 75.721696 
L 138.768125 72.418138 
L 166.668125 88.405569 
L 194.568125 85.137017 
L 222.468125 94.681501 
L 250.368125 90.888195 
L 278.268125 91.973056 
L 306.168125 90.78102 
L 334.068125 90.427849 
L 361.968125 90.221086 
L 389.868125 90.534938 
L 417.768125 89.153297 
L 445.668125 91.212481 
L 473.568125 90.274372 
" style="fill:none;stroke:#d0e1f2;stroke-linecap:square;stroke-width:1.5;"/>
   </g>
   <g id="line2d_37">
    <path clip-path="url(#p45341b55de)" d="M 82.968125 61.420275 
L 110.868125 76.002525 
L 138.768125 72.762255 
L 166.668125 88.65234 
L 194.568125 85.048466 
L 222.468125 96.973316 
L 250.368125 91.528834 
L 278.268125 91.882091 
L 306.168125 92.159212 
L 334.068125 90.754463 
L 361.968125 89.959139 
L 389.868125 89.752117 
L 417.768125 89.574756 
L 445.668125 90.63056 
L 473.568125 90.899577 
" style="fill:none;stroke:#d0e1f2;stroke-linecap:square;stroke-width:1.5;"/>
   </g>
   <g id="line2d_38">
    <path clip-path="url(#p45341b55de)" d="M 82.968125 61.420275 
L 110.868125 75.791623 
L 138.768125 72.414603 
L 166.668125 88.824959 
L 194.568125 85.856809 
L 222.468125 95.947173 
L 250.368125 91.834495 
L 278.268125 91.702919 
L 306.168125 92.041086 
L 334.068125 91.546337 
L 361.968125 89.766775 
L 389.868125 89.143726 
L 417.768125 89.837392 
L 445.668125 90.532783 
L 473.568125 89.25573 
" style="fill:none;stroke:#d0e1f2;stroke-linecap:square;stroke-width:1.5;"/>
   </g>
   <g id="line2d_39">
    <path clip-path="url(#p45341b55de)" d="M 82.968125 61.420275 
L 110.868125 75.40267 
L 138.768125 72.358126 
L 166.668125 88.402465 
L 194.568125 85.137707 
L 222.468125 95.856724 
L 250.368125 91.588673 
L 278.268125 92.518505 
L 306.168125 92.29372 
L 334.068125 90.415002 
L 361.968125 90.62987 
L 389.868125 89.511986 
L 417.768125 89.477841 
L 445.668125 90.648667 
L 473.568125 90.279631 
" style="fill:none;stroke:#d0e1f2;stroke-linecap:square;stroke-width:1.5;"/>
   </g>
   <g id="line2d_40">
    <path clip-path="url(#p45341b55de)" d="M 82.968125 61.420275 
L 110.868125 76.893556 
L 138.768125 73.481529 
L 166.668125 91.120481 
L 194.568125 87.556959 
L 222.468125 97.081267 
L 250.368125 91.781985 
L 278.268125 92.848308 
L 306.168125 92.455475 
L 334.068125 90.343954 
L 361.968125 89.496293 
L 389.868125 89.313758 
L 417.768125 90.014753 
L 445.668125 90.269629 
L 473.568125 90.582103 
" style="fill:none;stroke:#d0e1f2;stroke-linecap:square;stroke-width:1.5;"/>
   </g>
   <g id="line2d_41">
    <path clip-path="url(#p45341b55de)" d="M 82.968125 61.420275 
L 110.868125 76.358368 
L 138.768125 72.932546 
L 166.668125 89.773242 
L 194.568125 86.514779 
L 222.468125 96.956416 
L 250.368125 91.055986 
L 278.268125 92.612574 
L 306.168125 93.313828 
L 334.068125 91.52047 
L 361.968125 91.101598 
L 389.868125 91.665412 
L 417.768125 90.174525 
L 445.668125 90.552873 
L 473.568125 91.843808 
" style="fill:none;stroke:#d0e1f2;stroke-linecap:square;stroke-width:1.5;"/>
   </g>
   <g id="line2d_42">
    <path clip-path="url(#p45341b55de)" d="M 82.968125 61.420275 
L 110.868125 76.665323 
L 138.768125 73.107752 
L 166.668125 90.650046 
L 194.568125 86.543491 
L 222.468125 96.055986 
L 250.368125 90.334383 
L 278.268125 92.043069 
L 306.168125 93.282356 
L 334.068125 91.490206 
L 361.968125 90.970538 
L 389.868125 91.319139 
L 417.768125 90.736097 
L 445.668125 91.525213 
L 473.568125 92.588949 
" style="fill:none;stroke:#d0e1f2;stroke-linecap:square;stroke-width:1.5;"/>
   </g>
   <g id="line2d_43">
    <path clip-path="url(#p45341b55de)" d="M 82.968125 61.420275 
L 110.868125 77.150933 
L 138.768125 73.564907 
L 166.668125 90.565289 
L 194.568125 87.031515 
L 222.468125 96.142468 
L 250.368125 91.854585 
L 278.268125 92.077645 
L 306.168125 93.622335 
L 334.068125 91.634457 
L 361.968125 90.769552 
L 389.868125 91.662135 
L 417.768125 90.145899 
L 445.668125 90.126413 
L 473.568125 90.615902 
" style="fill:none;stroke:#d0e1f2;stroke-linecap:square;stroke-width:1.5;"/>
   </g>
   <g id="line2d_44">
    <path clip-path="url(#p45341b55de)" d="M 82.968125 61.420275 
L 110.868125 76.959086 
L 138.768125 73.289338 
L 166.668125 90.523902 
L 194.568125 86.489947 
L 222.468125 95.217551 
L 250.368125 91.005373 
L 278.268125 91.806214 
L 306.168125 91.574187 
L 334.068125 90.188493 
L 361.968125 89.885591 
L 389.868125 90.575808 
L 417.768125 88.865915 
L 445.668125 90.019323 
L 473.568125 90.944671 
" style="fill:none;stroke:#d0e1f2;stroke-linecap:square;stroke-width:1.5;"/>
   </g>
   <g id="line2d_45">
    <path clip-path="url(#p45341b55de)" d="M 82.968125 61.420275 
L 110.868125 75.386891 
L 138.768125 72.589636 
L 166.668125 88.449801 
L 194.568125 85.143312 
L 222.468125 97.237676 
L 250.368125 98.302706 
L 278.268125 103.893594 
L 306.168125 104.966902 
L 334.068125 120.5302 
L 361.968125 123.249337 
L 389.868125 115.199965 
L 417.768125 113.191135 
L 445.668125 112.572656 
L 473.568125 110.977956 
" style="fill:none;stroke:#1764ab;stroke-linecap:square;stroke-width:1.5;"/>
   </g>
   <g id="line2d_46">
    <path clip-path="url(#p45341b55de)" d="M 82.968125 61.420275 
L 110.868125 74.848858 
L 138.768125 71.952274 
L 166.668125 86.606434 
L 194.568125 84.773931 
L 222.468125 95.798782 
L 250.368125 99.855673 
L 278.268125 108.903597 
L 306.168125 111.973921 
L 334.068125 125.248855 
L 361.968125 125.060198 
L 389.868125 121.335267 
L 417.768125 118.629495 
L 445.668125 117.678366 
L 473.568125 116.859245 
" style="fill:none;stroke:#1764ab;stroke-linecap:square;stroke-width:1.5;"/>
   </g>
   <g id="line2d_47">
    <path clip-path="url(#p45341b55de)" d="M 82.968125 61.420275 
L 110.868125 75.356971 
L 138.768125 72.589119 
L 166.668125 87.976694 
L 194.568125 84.935082 
L 222.468125 98.42885 
L 250.368125 99.427316 
L 278.268125 105.049245 
L 306.168125 109.319624 
L 334.068125 126.216021 
L 361.968125 127.472552 
L 389.868125 119.219176 
L 417.768125 116.913048 
L 445.668125 115.573225 
L 473.568125 114.649601 
" style="fill:none;stroke:#1764ab;stroke-linecap:square;stroke-width:1.5;"/>
   </g>
   <g id="line2d_48">
    <path clip-path="url(#p45341b55de)" d="M 82.968125 61.420275 
L 110.868125 75.205908 
L 138.768125 72.49479 
L 166.668125 87.435816 
L 194.568125 85.977694 
L 222.468125 98.100254 
L 250.368125 99.397396 
L 278.268125 104.041985 
L 306.168125 106.53651 
L 334.068125 128.380138 
L 361.968125 123.443253 
L 389.868125 119.586142 
L 417.768125 116.689989 
L 445.668125 116.647998 
L 473.568125 118.064043 
" style="fill:none;stroke:#1764ab;stroke-linecap:square;stroke-width:1.5;"/>
   </g>
   <g id="line2d_49">
    <path clip-path="url(#p45341b55de)" d="M 82.968125 61.420275 
L 110.868125 75.001387 
L 138.768125 72.153432 
L 166.668125 86.677568 
L 194.568125 85.785244 
L 222.468125 97.988681 
L 250.368125 101.035293 
L 278.268125 106.074008 
L 306.168125 108.389534 
L 334.068125 126.729998 
L 361.968125 128.577072 
L 389.868125 116.690161 
L 417.768125 117.381413 
L 445.668125 116.097462 
L 473.568125 113.847898 
" style="fill:none;stroke:#1764ab;stroke-linecap:square;stroke-width:1.5;"/>
   </g>
   <g id="line2d_50">
    <path clip-path="url(#p45341b55de)" d="M 82.968125 61.420275 
L 110.868125 76.256194 
L 138.768125 73.318998 
L 166.668125 88.617764 
L 194.568125 86.703866 
L 222.468125 97.352353 
L 250.368125 100.314898 
L 278.268125 105.583053 
L 306.168125 108.994649 
L 334.068125 130.469501 
L 361.968125 128.37199 
L 389.868125 119.649257 
L 417.768125 114.027069 
L 445.668125 119.107861 
L 473.568125 116.260252 
" style="fill:none;stroke:#1764ab;stroke-linecap:square;stroke-width:1.5;"/>
   </g>
   <g id="line2d_51">
    <path clip-path="url(#p45341b55de)" d="M 82.968125 61.420275 
L 110.868125 75.718419 
L 138.768125 72.715781 
L 166.668125 88.177508 
L 194.568125 86.140915 
L 222.468125 96.316294 
L 250.368125 98.315639 
L 278.268125 105.626768 
L 306.168125 107.419091 
L 334.068125 130.343959 
L 361.968125 125.016914 
L 389.868125 115.849657 
L 417.768125 115.094772 
L 445.668125 114.85921 
L 473.568125 113.986889 
" style="fill:none;stroke:#1764ab;stroke-linecap:square;stroke-width:1.5;"/>
   </g>
   <g id="line2d_52">
    <path clip-path="url(#p45341b55de)" d="M 82.968125 61.420275 
L 110.868125 76.033134 
L 138.768125 72.785104 
L 166.668125 89.081818 
L 194.568125 86.389324 
L 222.468125 97.404691 
L 250.368125 98.994906 
L 278.268125 106.780694 
L 306.168125 108.896958 
L 334.068125 125.814953 
L 361.968125 127.566363 
L 389.868125 117.369256 
L 417.768125 118.709855 
L 445.668125 117.146282 
L 473.568125 115.835171 
" style="fill:none;stroke:#1764ab;stroke-linecap:square;stroke-width:1.5;"/>
   </g>
   <g id="line2d_53">
    <path clip-path="url(#p45341b55de)" d="M 82.968125 61.420275 
L 110.868125 76.86174 
L 138.768125 73.582755 
L 166.668125 90.166506 
L 194.568125 87.875554 
L 222.468125 96.763103 
L 250.368125 96.470893 
L 278.268125 101.196531 
L 306.168125 104.141573 
L 334.068125 126.800356 
L 361.968125 126.327076 
L 389.868125 115.060542 
L 417.768125 113.998961 
L 445.668125 113.637427 
L 473.568125 112.18672 
" style="fill:none;stroke:#1764ab;stroke-linecap:square;stroke-width:1.5;"/>
   </g>
   <g id="line2d_54">
    <path clip-path="url(#p45341b55de)" d="M 82.968125 61.420275 
L 110.868125 76.269645 
L 138.768125 73.240535 
L 166.668125 88.84936 
L 194.568125 85.992352 
L 222.468125 96.489775 
L 250.368125 100.072266 
L 278.268125 103.949208 
L 306.168125 109.908615 
L 334.068125 127.214141 
L 361.968125 125.764987 
L 389.868125 118.985166 
L 417.768125 111.485553 
L 445.668125 112.093254 
L 473.568125 110.151161 
" style="fill:none;stroke:#1764ab;stroke-linecap:square;stroke-width:1.5;"/>
   </g>
   <g id="line2d_55">
    <path clip-path="url(#p45341b55de)" d="M 82.968125 61.420275 
L 110.868125 75.97295 
L 138.768125 72.623177 
L 166.668125 89.641665 
L 194.568125 86.186872 
L 222.468125 96.365786 
L 250.368125 91.794402 
L 278.268125 94.013357 
L 306.168125 94.273407 
L 334.068125 92.257765 
L 361.968125 96.642994 
L 389.868125 98.831082 
L 417.768125 98.341161 
L 445.668125 101.850534 
L 473.568125 105.79042 
" style="fill:none;stroke:#94c4df;stroke-linecap:square;stroke-width:1.5;"/>
   </g>
   <g id="line2d_56">
    <path clip-path="url(#p45341b55de)" d="M 82.968125 61.420275 
L 110.868125 75.770929 
L 138.768125 72.514794 
L 166.668125 88.730372 
L 194.568125 85.513037 
L 222.468125 96.012444 
L 250.368125 92.210343 
L 278.268125 95.814389 
L 306.168125 93.490241 
L 334.068125 94.302119 
L 361.968125 99.392999 
L 389.868125 100.217207 
L 417.768125 101.438732 
L 445.668125 102.688452 
L 473.568125 104.502072 
" style="fill:none;stroke:#94c4df;stroke-linecap:square;stroke-width:1.5;"/>
   </g>
   <g id="line2d_57">
    <path clip-path="url(#p45341b55de)" d="M 82.968125 61.420275 
L 110.868125 75.98916 
L 138.768125 72.728628 
L 166.668125 88.574049 
L 194.568125 85.207893 
L 222.468125 96.338799 
L 250.368125 92.788297 
L 278.268125 93.618713 
L 306.168125 93.085078 
L 334.068125 92.643959 
L 361.968125 95.157367 
L 389.868125 100.345335 
L 417.768125 99.47698 
L 445.668125 102.036259 
L 473.568125 100.088131 
" style="fill:none;stroke:#94c4df;stroke-linecap:square;stroke-width:1.5;"/>
   </g>
   <g id="line2d_58">
    <path clip-path="url(#p45341b55de)" d="M 82.968125 61.420275 
L 110.868125 75.740406 
L 138.768125 72.484357 
L 166.668125 88.910492 
L 194.568125 86.307326 
L 222.468125 97.351836 
L 250.368125 91.566858 
L 278.268125 93.561892 
L 306.168125 93.265715 
L 334.068125 91.6974 
L 361.968125 96.032275 
L 389.868125 98.326935 
L 417.768125 99.451372 
L 445.668125 100.350508 
L 473.568125 107.443492 
" style="fill:none;stroke:#94c4df;stroke-linecap:square;stroke-width:1.5;"/>
   </g>
   <g id="line2d_59">
    <path clip-path="url(#p45341b55de)" d="M 82.968125 61.420275 
L 110.868125 75.310583 
L 138.768125 72.408826 
L 166.668125 88.539301 
L 194.568125 85.624179 
L 222.468125 96.439076 
L 250.368125 92.41633 
L 278.268125 94.724785 
L 306.168125 94.247712 
L 334.068125 95.051485 
L 361.968125 102.640081 
L 389.868125 100.087872 
L 417.768125 102.808475 
L 445.668125 103.691573 
L 473.568125 106.705249 
" style="fill:none;stroke:#94c4df;stroke-linecap:square;stroke-width:1.5;"/>
   </g>
   <g id="line2d_60">
    <path clip-path="url(#p45341b55de)" d="M 82.968125 61.420275 
L 110.868125 76.712919 
L 138.768125 73.437038 
L 166.668125 90.864742 
L 194.568125 86.833805 
L 222.468125 97.767173 
L 250.368125 94.400327 
L 278.268125 96.166611 
L 306.168125 93.779692 
L 334.068125 97.152229 
L 361.968125 103.107842 
L 389.868125 100.453717 
L 417.768125 104.200118 
L 445.668125 103.540424 
L 473.568125 102.832962 
" style="fill:none;stroke:#94c4df;stroke-linecap:square;stroke-width:1.5;"/>
   </g>
   <g id="line2d_61">
    <path clip-path="url(#p45341b55de)" d="M 82.968125 61.420275 
L 110.868125 76.382683 
L 138.768125 72.924786 
L 166.668125 89.730303 
L 194.568125 86.49969 
L 222.468125 96.696884 
L 250.368125 91.196702 
L 278.268125 92.865036 
L 306.168125 92.862622 
L 334.068125 92.058762 
L 361.968125 95.662118 
L 389.868125 99.871107 
L 417.768125 99.418262 
L 445.668125 101.876746 
L 473.568125 103.822374 
" style="fill:none;stroke:#94c4df;stroke-linecap:square;stroke-width:1.5;"/>
   </g>
   <g id="line2d_62">
    <path clip-path="url(#p45341b55de)" d="M 82.968125 61.420275 
L 110.868125 76.480202 
L 138.768125 73.043343 
L 166.668125 90.336108 
L 194.568125 86.736718 
L 222.468125 96.290427 
L 250.368125 91.636354 
L 278.268125 92.282943 
L 306.168125 93.510503 
L 334.068125 94.158557 
L 361.968125 98.544734 
L 389.868125 102.241557 
L 417.768125 99.61511 
L 445.668125 102.02893 
L 473.568125 104.597349 
" style="fill:none;stroke:#94c4df;stroke-linecap:square;stroke-width:1.5;"/>
   </g>
   <g id="line2d_63">
    <path clip-path="url(#p45341b55de)" d="M 82.968125 61.420275 
L 110.868125 77.175851 
L 138.768125 73.575685 
L 166.668125 90.371804 
L 194.568125 87.112565 
L 222.468125 96.493138 
L 250.368125 91.437092 
L 278.268125 93.221914 
L 306.168125 93.198375 
L 334.068125 94.720647 
L 361.968125 99.843602 
L 389.868125 100.002684 
L 417.768125 99.687624 
L 445.668125 103.392292 
L 473.568125 103.945846 
" style="fill:none;stroke:#94c4df;stroke-linecap:square;stroke-width:1.5;"/>
   </g>
   <g id="line2d_64">
    <path clip-path="url(#p45341b55de)" d="M 82.968125 61.420275 
L 110.868125 76.861223 
L 138.768125 73.394271 
L 166.668125 89.881625 
L 194.568125 86.307843 
L 222.468125 97.023929 
L 250.368125 91.833202 
L 278.268125 94.917063 
L 306.168125 95.122706 
L 334.068125 96.182821 
L 361.968125 104.812993 
L 389.868125 100.683158 
L 417.768125 101.611523 
L 445.668125 104.333506 
L 473.568125 105.297137 
" style="fill:none;stroke:#94c4df;stroke-linecap:square;stroke-width:1.5;"/>
   </g>
   <g id="line2d_65">
    <path clip-path="url(#p45341b55de)" d="M 82.968125 61.420275 
L 110.868125 75.49786 
L 138.768125 71.60557 
L 166.668125 88.139742 
L 194.568125 83.381943 
L 222.468125 94.634423 
L 250.368125 89.358508 
L 278.268125 88.900749 
L 306.168125 84.857482 
L 334.068125 84.047069 
L 361.968125 83.893419 
L 389.868125 82.67931 
L 417.768125 82.417449 
L 445.668125 81.987627 
L 473.568125 81.777673 
" style="fill:none;stroke:#000000;stroke-linecap:square;stroke-width:1.5;"/>
   </g>
   <g id="line2d_66">
    <path clip-path="url(#p45341b55de)" d="M 82.968125 61.420275 
L 110.868125 75.169091 
L 138.768125 71.322585 
L 166.668125 87.431591 
L 194.568125 83.063607 
L 222.468125 94.433868 
L 250.368125 89.562685 
L 278.268125 89.380409 
L 306.168125 84.60959 
L 334.068125 84.202788 
L 361.968125 83.021788 
L 389.868125 83.128791 
L 417.768125 82.042292 
L 445.668125 82.041257 
L 473.568125 81.387944 
" style="fill:none;stroke:#000000;stroke-linecap:square;stroke-width:1.5;"/>
   </g>
   <g id="line2d_67">
    <path clip-path="url(#p45341b55de)" d="M 82.968125 61.420275 
L 110.868125 75.461819 
L 138.768125 71.594447 
L 166.668125 87.767603 
L 194.568125 83.459975 
L 222.468125 94.427143 
L 250.368125 89.425504 
L 278.268125 89.095786 
L 306.168125 84.902835 
L 334.068125 83.637509 
L 361.968125 83.28339 
L 389.868125 82.561873 
L 417.768125 82.303807 
L 445.668125 81.927012 
L 473.568125 81.417346 
" style="fill:none;stroke:#000000;stroke-linecap:square;stroke-width:1.5;"/>
   </g>
   <g id="line2d_68">
    <path clip-path="url(#p45341b55de)" d="M 82.968125 61.420275 
L 110.868125 75.266437 
L 138.768125 71.437607 
L 166.668125 88.56922 
L 194.568125 83.881779 
L 222.468125 96.107117 
L 250.368125 89.798678 
L 278.268125 89.472323 
L 306.168125 84.281683 
L 334.068125 83.848152 
L 361.968125 83.290288 
L 389.868125 82.678016 
L 417.768125 82.965053 
L 445.668125 82.3752 
L 473.568125 81.827251 
" style="fill:none;stroke:#000000;stroke-linecap:square;stroke-width:1.5;"/>
   </g>
   <g id="line2d_69">
    <path clip-path="url(#p45341b55de)" d="M 82.968125 61.420275 
L 110.868125 74.894815 
L 138.768125 71.213685 
L 166.668125 87.163092 
L 194.568125 82.97928 
L 222.468125 94.966986 
L 250.368125 89.552166 
L 278.268125 88.500328 
L 306.168125 84.033532 
L 334.068125 84.155366 
L 361.968125 83.415053 
L 389.868125 82.72587 
L 417.768125 82.365716 
L 445.668125 81.757152 
L 473.568125 80.997007 
" style="fill:none;stroke:#000000;stroke-linecap:square;stroke-width:1.5;"/>
   </g>
   <g id="line2d_70">
    <path clip-path="url(#p45341b55de)" d="M 82.968125 61.420275 
L 110.868125 76.276629 
L 138.768125 72.252417 
L 166.668125 90.130638 
L 194.568125 84.630542 
L 222.468125 97.049364 
L 250.368125 89.806611 
L 278.268125 89.645287 
L 306.168125 84.413777 
L 334.068125 84.117514 
L 361.968125 83.004802 
L 389.868125 82.058588 
L 417.768125 81.655236 
L 445.668125 81.500551 
L 473.568125 81.345091 
" style="fill:none;stroke:#000000;stroke-linecap:square;stroke-width:1.5;"/>
   </g>
   <g id="line2d_71">
    <path clip-path="url(#p45341b55de)" d="M 82.968125 61.420275 
L 110.868125 75.865344 
L 138.768125 71.849237 
L 166.668125 88.781157 
L 194.568125 84.314706 
L 222.468125 95.851982 
L 250.368125 88.524988 
L 278.268125 88.861172 
L 306.168125 84.803506 
L 334.068125 84.115617 
L 361.968125 83.51671 
L 389.868125 82.366319 
L 417.768125 82.127739 
L 445.668125 81.848721 
L 473.568125 81.656357 
" style="fill:none;stroke:#000000;stroke-linecap:square;stroke-width:1.5;"/>
   </g>
   <g id="line2d_72">
    <path clip-path="url(#p45341b55de)" d="M 82.968125 61.420275 
L 110.868125 76.148415 
L 138.768125 72.074969 
L 166.668125 89.157349 
L 194.568125 84.864552 
L 222.468125 95.170473 
L 250.368125 89.311258 
L 278.268125 88.663031 
L 306.168125 85.38353 
L 334.068125 83.4667 
L 361.968125 83.777966 
L 389.868125 82.675516 
L 417.768125 82.496516 
L 445.668125 82.190337 
L 473.568125 81.717403 
" style="fill:none;stroke:#000000;stroke-linecap:square;stroke-width:1.5;"/>
   </g>
   <g id="line2d_73">
    <path clip-path="url(#p45341b55de)" d="M 82.968125 61.420275 
L 110.868125 76.572806 
L 138.768125 72.31855 
L 166.668125 89.698055 
L 194.568125 85.053122 
L 222.468125 95.181251 
L 250.368125 88.63613 
L 278.268125 88.674154 
L 306.168125 85.627197 
L 334.068125 84.531471 
L 361.968125 84.000077 
L 389.868125 82.902455 
L 417.768125 82.204047 
L 445.668125 82.147398 
L 473.568125 81.91037 
" style="fill:none;stroke:#000000;stroke-linecap:square;stroke-width:1.5;"/>
   </g>
   <g id="line2d_74">
    <path clip-path="url(#p45341b55de)" d="M 82.968125 61.420275 
L 110.868125 76.452438 
L 138.768125 72.314325 
L 166.668125 89.741771 
L 194.568125 84.499396 
L 222.468125 94.872744 
L 250.368125 88.36056 
L 278.268125 87.704746 
L 306.168125 85.509847 
L 334.068125 84.228569 
L 361.968125 83.78883 
L 389.868125 82.454353 
L 417.768125 81.937531 
L 445.668125 81.398291 
L 473.568125 81.639198 
" style="fill:none;stroke:#000000;stroke-linecap:square;stroke-width:1.5;"/>
   </g>
   <g id="line2d_75">
    <path clip-path="url(#p45341b55de)" d="M 82.968125 442.021562 
" style="fill:none;stroke:#000000;stroke-linecap:square;stroke-width:1.5;"/>
   </g>
   <g id="line2d_76">
    <path clip-path="url(#p45341b55de)" d="M 82.968125 442.021562 
" style="fill:none;stroke:#d0e1f2;stroke-linecap:square;stroke-width:1.5;"/>
   </g>
   <g id="line2d_77">
    <path clip-path="url(#p45341b55de)" d="M 82.968125 442.021562 
" style="fill:none;stroke:#94c4df;stroke-linecap:square;stroke-width:1.5;"/>
   </g>
   <g id="line2d_78">
    <path clip-path="url(#p45341b55de)" d="M 82.968125 442.021562 
" style="fill:none;stroke:#4a98c9;stroke-linecap:square;stroke-width:1.5;"/>
   </g>
   <g id="line2d_79">
    <path clip-path="url(#p45341b55de)" d="M 82.968125 442.021562 
" style="fill:none;stroke:#1764ab;stroke-linecap:square;stroke-width:1.5;"/>
   </g>
   <g id="line2d_80">
    <path clip-path="url(#p45341b55de)" d="M 82.968125 442.021562 
" style="fill:none;stroke:#08306b;stroke-linecap:square;stroke-width:1.5;"/>
   </g>
   <g id="line2d_81">
    <path clip-path="url(#p45341b55de)" d="M 82.968125 442.021562 
" style="fill:none;stroke:#000000;stroke-linecap:square;stroke-width:1.5;"/>
   </g>
   <g id="line2d_82">
    <path clip-path="url(#p45341b55de)" d="M 82.968125 442.021562 
" style="fill:none;stroke:#000000;stroke-dasharray:1.5,2.475;stroke-dashoffset:0;stroke-width:1.5;"/>
   </g>
   <g id="line2d_83">
    <path clip-path="url(#p45341b55de)" d="M 82.968125 442.021562 
" style="fill:none;stroke:#000000;stroke-linecap:square;stroke-width:1.5;"/>
   </g>
   <g id="line2d_84">
    <path clip-path="url(#p45341b55de)" d="M 82.968125 442.021562 
" style="fill:none;stroke:#000000;stroke-dasharray:5.55,2.4;stroke-dashoffset:0;stroke-width:1.5;"/>
   </g>
   <g id="line2d_85">
    <path clip-path="url(#p45341b55de)" d="M 82.968125 442.021562 
" style="fill:none;stroke:#000000;stroke-dasharray:9.6,2.4,1.5,2.4;stroke-dashoffset:0;stroke-width:1.5;"/>
   </g>
   <g id="line2d_86">
    <path clip-path="url(#p45341b55de)" d="M 82.968125 442.021562 
" style="fill:none;stroke:#000000;stroke-dasharray:9.6,2.4,1.5,2.4;stroke-dashoffset:0;stroke-width:1.5;"/>
   </g>
   <g id="patch_3">
    <path d="M 82.968125 442.021562 
L 82.968125 61.501562 
" style="fill:none;stroke:#000000;stroke-linecap:square;stroke-linejoin:miter;stroke-width:0.8;"/>
   </g>
   <g id="patch_4">
    <path d="M 473.568125 442.021562 
L 473.568125 61.501562 
" style="fill:none;stroke:#000000;stroke-linecap:square;stroke-linejoin:miter;stroke-width:0.8;"/>
   </g>
   <g id="patch_5">
    <path d="M 82.968125 442.021562 
L 473.568125 442.021562 
" style="fill:none;stroke:#000000;stroke-linecap:square;stroke-linejoin:miter;stroke-width:0.8;"/>
   </g>
   <g id="patch_6">
    <path d="M 82.968125 61.501562 
L 473.568125 61.501562 
" style="fill:none;stroke:#000000;stroke-linecap:square;stroke-linejoin:miter;stroke-width:0.8;"/>
   </g>
   <g id="text_18">
    <!-- GLUCOSE CONCENTRATION -->
    <g transform="translate(103.281797 25.094531)scale(0.25 -0.25)">
     <use xlink:href="#Arial-BoldMT-71"/>
     <use x="77.783203" xlink:href="#Arial-BoldMT-76"/>
     <use x="138.867188" xlink:href="#Arial-BoldMT-85"/>
     <use x="211.083984" xlink:href="#Arial-BoldMT-67"/>
     <use x="283.300781" xlink:href="#Arial-BoldMT-79"/>
     <use x="361.083984" xlink:href="#Arial-BoldMT-83"/>
     <use x="427.783203" xlink:href="#Arial-BoldMT-69"/>
     <use x="494.482422" xlink:href="#Arial-BoldMT-32"/>
     <use x="522.265625" xlink:href="#Arial-BoldMT-67"/>
     <use x="594.482422" xlink:href="#Arial-BoldMT-79"/>
     <use x="672.265625" xlink:href="#Arial-BoldMT-78"/>
     <use x="744.482422" xlink:href="#Arial-BoldMT-67"/>
     <use x="816.699219" xlink:href="#Arial-BoldMT-69"/>
     <use x="883.398438" xlink:href="#Arial-BoldMT-78"/>
     <use x="955.615234" xlink:href="#Arial-BoldMT-84"/>
     <use x="1016.699219" xlink:href="#Arial-BoldMT-82"/>
     <use x="1088.916016" xlink:href="#Arial-BoldMT-65"/>
     <use x="1161.023438" xlink:href="#Arial-BoldMT-84"/>
     <use x="1222.107422" xlink:href="#Arial-BoldMT-73"/>
     <use x="1249.890625" xlink:href="#Arial-BoldMT-79"/>
     <use x="1327.673828" xlink:href="#Arial-BoldMT-78"/>
    </g>
    <!-- OVER TIME -->
    <defs>
     <path d="M 25.53125 0 
L -0.046875 71.578125 
L 15.625 71.578125 
L 33.734375 18.609375 
L 51.265625 71.578125 
L 66.609375 71.578125 
L 40.96875 0 
z
" id="Arial-BoldMT-86"/>
    </defs>
    <g transform="translate(209.512266 51.501562)scale(0.25 -0.25)">
     <use xlink:href="#Arial-BoldMT-79"/>
     <use x="77.783203" xlink:href="#Arial-BoldMT-86"/>
     <use x="144.482422" xlink:href="#Arial-BoldMT-69"/>
     <use x="211.181641" xlink:href="#Arial-BoldMT-82"/>
     <use x="283.398438" xlink:href="#Arial-BoldMT-32"/>
     <use x="311.181641" xlink:href="#Arial-BoldMT-84"/>
     <use x="372.265625" xlink:href="#Arial-BoldMT-73"/>
     <use x="400.048828" xlink:href="#Arial-BoldMT-77"/>
     <use x="483.349609" xlink:href="#Arial-BoldMT-69"/>
    </g>
   </g>
   <g id="legend_1">
    <g id="line2d_87">
     <path d="M 482.568125 74.6 
L 502.568125 74.6 
" style="fill:none;stroke:#000000;stroke-linecap:square;stroke-width:1.5;"/>
    </g>
    <g id="line2d_88"/>
    <g id="text_19">
     <!-- 0 -->
     <g transform="translate(510.568125 78.1)scale(0.1 -0.1)">
      <use xlink:href="#DejaVuSans-48"/>
     </g>
    </g>
    <g id="line2d_89">
     <path d="M 482.568125 89.278125 
L 502.568125 89.278125 
" style="fill:none;stroke:#d0e1f2;stroke-linecap:square;stroke-width:1.5;"/>
    </g>
    <g id="line2d_90"/>
    <g id="text_20">
     <!-- 100 -->
     <g transform="translate(510.568125 92.778125)scale(0.1 -0.1)">
      <use xlink:href="#DejaVuSans-49"/>
      <use x="63.623047" xlink:href="#DejaVuSans-48"/>
      <use x="127.246094" xlink:href="#DejaVuSans-48"/>
     </g>
    </g>
    <g id="line2d_91">
     <path d="M 482.568125 103.95625 
L 502.568125 103.95625 
" style="fill:none;stroke:#94c4df;stroke-linecap:square;stroke-width:1.5;"/>
    </g>
    <g id="line2d_92"/>
    <g id="text_21">
     <!-- 500 -->
     <g transform="translate(510.568125 107.45625)scale(0.1 -0.1)">
      <use xlink:href="#DejaVuSans-53"/>
      <use x="63.623047" xlink:href="#DejaVuSans-48"/>
      <use x="127.246094" xlink:href="#DejaVuSans-48"/>
     </g>
    </g>
    <g id="line2d_93">
     <path d="M 482.568125 118.634375 
L 502.568125 118.634375 
" style="fill:none;stroke:#4a98c9;stroke-linecap:square;stroke-width:1.5;"/>
    </g>
    <g id="line2d_94"/>
    <g id="text_22">
     <!-- 1000 -->
     <g transform="translate(510.568125 122.134375)scale(0.1 -0.1)">
      <use xlink:href="#DejaVuSans-49"/>
      <use x="63.623047" xlink:href="#DejaVuSans-48"/>
      <use x="127.246094" xlink:href="#DejaVuSans-48"/>
      <use x="190.869141" xlink:href="#DejaVuSans-48"/>
     </g>
    </g>
    <g id="line2d_95">
     <path d="M 482.568125 133.3125 
L 502.568125 133.3125 
" style="fill:none;stroke:#1764ab;stroke-linecap:square;stroke-width:1.5;"/>
    </g>
    <g id="line2d_96"/>
    <g id="text_23">
     <!-- 5000 -->
     <g transform="translate(510.568125 136.8125)scale(0.1 -0.1)">
      <use xlink:href="#DejaVuSans-53"/>
      <use x="63.623047" xlink:href="#DejaVuSans-48"/>
      <use x="127.246094" xlink:href="#DejaVuSans-48"/>
      <use x="190.869141" xlink:href="#DejaVuSans-48"/>
     </g>
    </g>
    <g id="line2d_97">
     <path d="M 482.568125 147.990625 
L 502.568125 147.990625 
" style="fill:none;stroke:#08306b;stroke-linecap:square;stroke-width:1.5;"/>
    </g>
    <g id="line2d_98"/>
    <g id="text_24">
     <!-- 10000 -->
     <g transform="translate(510.568125 151.490625)scale(0.1 -0.1)">
      <use xlink:href="#DejaVuSans-49"/>
      <use x="63.623047" xlink:href="#DejaVuSans-48"/>
      <use x="127.246094" xlink:href="#DejaVuSans-48"/>
      <use x="190.869141" xlink:href="#DejaVuSans-48"/>
      <use x="254.492188" xlink:href="#DejaVuSans-48"/>
     </g>
    </g>
    <g id="line2d_99">
     <path d="M 482.568125 162.66875 
L 502.568125 162.66875 
" style="fill:none;stroke:#000000;stroke-linecap:square;stroke-width:1.5;"/>
    </g>
    <g id="line2d_100"/>
    <g id="text_25">
     <!-- 0 -->
     <g transform="translate(510.568125 166.16875)scale(0.1 -0.1)">
      <use xlink:href="#DejaVuSans-48"/>
     </g>
    </g>
    <g id="line2d_101">
     <path d="M 482.568125 177.346875 
L 502.568125 177.346875 
" style="fill:none;stroke:#000000;stroke-dasharray:1.5,2.475;stroke-dashoffset:0;stroke-width:1.5;"/>
    </g>
    <g id="line2d_102"/>
    <g id="text_26">
     <!-- 250 -->
     <g transform="translate(510.568125 180.846875)scale(0.1 -0.1)">
      <use xlink:href="#DejaVuSans-50"/>
      <use x="63.623047" xlink:href="#DejaVuSans-53"/>
      <use x="127.246094" xlink:href="#DejaVuSans-48"/>
     </g>
    </g>
    <g id="line2d_103">
     <path d="M 482.568125 192.025 
L 502.568125 192.025 
" style="fill:none;stroke:#000000;stroke-linecap:square;stroke-width:1.5;"/>
    </g>
    <g id="line2d_104"/>
    <g id="text_27">
     <!-- 500 -->
     <g transform="translate(510.568125 195.525)scale(0.1 -0.1)">
      <use xlink:href="#DejaVuSans-53"/>
      <use x="63.623047" xlink:href="#DejaVuSans-48"/>
      <use x="127.246094" xlink:href="#DejaVuSans-48"/>
     </g>
    </g>
    <g id="line2d_105">
     <path d="M 482.568125 206.703125 
L 502.568125 206.703125 
" style="fill:none;stroke:#000000;stroke-dasharray:5.55,2.4;stroke-dashoffset:0;stroke-width:1.5;"/>
    </g>
    <g id="line2d_106"/>
    <g id="text_28">
     <!-- 1000 -->
     <g transform="translate(510.568125 210.203125)scale(0.1 -0.1)">
      <use xlink:href="#DejaVuSans-49"/>
      <use x="63.623047" xlink:href="#DejaVuSans-48"/>
      <use x="127.246094" xlink:href="#DejaVuSans-48"/>
      <use x="190.869141" xlink:href="#DejaVuSans-48"/>
     </g>
    </g>
    <g id="line2d_107">
     <path d="M 482.568125 221.38125 
L 502.568125 221.38125 
" style="fill:none;stroke:#000000;stroke-dasharray:9.6,2.4,1.5,2.4;stroke-dashoffset:0;stroke-width:1.5;"/>
    </g>
    <g id="line2d_108"/>
    <g id="text_29">
     <!-- 5000 -->
     <g transform="translate(510.568125 224.88125)scale(0.1 -0.1)">
      <use xlink:href="#DejaVuSans-53"/>
      <use x="63.623047" xlink:href="#DejaVuSans-48"/>
      <use x="127.246094" xlink:href="#DejaVuSans-48"/>
      <use x="190.869141" xlink:href="#DejaVuSans-48"/>
     </g>
    </g>
    <g id="line2d_109">
     <path d="M 482.568125 236.059375 
L 502.568125 236.059375 
" style="fill:none;stroke:#000000;stroke-dasharray:9.6,2.4,1.5,2.4;stroke-dashoffset:0;stroke-width:1.5;"/>
    </g>
    <g id="line2d_110"/>
    <g id="text_30">
     <!-- 10000 -->
     <g transform="translate(510.568125 239.559375)scale(0.1 -0.1)">
      <use xlink:href="#DejaVuSans-49"/>
      <use x="63.623047" xlink:href="#DejaVuSans-48"/>
      <use x="127.246094" xlink:href="#DejaVuSans-48"/>
      <use x="190.869141" xlink:href="#DejaVuSans-48"/>
      <use x="254.492188" xlink:href="#DejaVuSans-48"/>
     </g>
    </g>
   </g>
  </g>
 </g>
 <defs>
  <clipPath id="p45341b55de">
   <rect height="380.52" width="390.6" x="82.968125" y="61.501562"/>
  </clipPath>
 </defs>
</svg>
