<?xml version="1.0" encoding="utf-8" standalone="no"?>
<!DOCTYPE svg PUBLIC "-//W3C//DTD SVG 1.1//EN"
  "http://www.w3.org/Graphics/SVG/1.1/DTD/svg11.dtd">
<!-- Created with matplotlib (https://matplotlib.org/) -->
<svg height="514.024687pt" version="1.1" viewBox="0 0 582.2025 514.024687" width="582.2025pt" xmlns="http://www.w3.org/2000/svg" xmlns:xlink="http://www.w3.org/1999/xlink">
 <defs>
  <style type="text/css">
*{stroke-linecap:butt;stroke-linejoin:round;}
  </style>
 </defs>
 <g id="figure_1">
  <g id="patch_1">
   <path d="M 0 514.024687 
L 582.2025 514.024687 
L 582.2025 0 
L 0 0 
z
" style="fill:#ffffff;"/>
  </g>
  <g id="axes_1">
   <g id="patch_2">
    <path d="M 111.59 442.021562 
L 502.19 442.021562 
L 502.19 61.501562 
L 111.59 61.501562 
z
" style="fill:#ffffff;"/>
   </g>
   <g id="matplotlib.axis_1">
    <g id="xtick_1">
     <g id="line2d_1">
      <defs>
       <path d="M 0 0 
L 0 3.5 
" id="md719df2af9" style="stroke:#000000;stroke-width:0.8;"/>
      </defs>
      <g>
       <use style="stroke:#000000;stroke-width:0.8;" x="111.59" xlink:href="#md719df2af9" y="442.021562"/>
      </g>
     </g>
     <g id="text_1">
      <!-- 0 -->
      <defs>
       <path d="M 31.78125 66.40625 
Q 24.171875 66.40625 20.328125 58.90625 
Q 16.5 51.421875 16.5 36.375 
Q 16.5 21.390625 20.328125 13.890625 
Q 24.171875 6.390625 31.78125 6.390625 
Q 39.453125 6.390625 43.28125 13.890625 
Q 47.125 21.390625 47.125 36.375 
Q 47.125 51.421875 43.28125 58.90625 
Q 39.453125 66.40625 31.78125 66.40625 
z
M 31.78125 74.21875 
Q 44.046875 74.21875 50.515625 64.515625 
Q 56.984375 54.828125 56.984375 36.375 
Q 56.984375 17.96875 50.515625 8.265625 
Q 44.046875 -1.421875 31.78125 -1.421875 
Q 19.53125 -1.421875 13.0625 8.265625 
Q 6.59375 17.96875 6.59375 36.375 
Q 6.59375 54.828125 13.0625 64.515625 
Q 19.53125 74.21875 31.78125 74.21875 
z
" id="DejaVuSans-48"/>
      </defs>
      <g transform="translate(102.04625 471.816875)scale(0.3 -0.3)">
       <use xlink:href="#DejaVuSans-48"/>
      </g>
     </g>
    </g>
    <g id="xtick_2">
     <g id="line2d_2">
      <g>
       <use style="stroke:#000000;stroke-width:0.8;" x="167.39" xlink:href="#md719df2af9" y="442.021562"/>
      </g>
     </g>
     <g id="text_2">
      <!-- 1 -->
      <defs>
       <path d="M 12.40625 8.296875 
L 28.515625 8.296875 
L 28.515625 63.921875 
L 10.984375 60.40625 
L 10.984375 69.390625 
L 28.421875 72.90625 
L 38.28125 72.90625 
L 38.28125 8.296875 
L 54.390625 8.296875 
L 54.390625 0 
L 12.40625 0 
z
" id="DejaVuSans-49"/>
      </defs>
      <g transform="translate(157.84625 471.816875)scale(0.3 -0.3)">
       <use xlink:href="#DejaVuSans-49"/>
      </g>
     </g>
    </g>
    <g id="xtick_3">
     <g id="line2d_3">
      <g>
       <use style="stroke:#000000;stroke-width:0.8;" x="223.19" xlink:href="#md719df2af9" y="442.021562"/>
      </g>
     </g>
     <g id="text_3">
      <!-- 2 -->
      <defs>
       <path d="M 19.1875 8.296875 
L 53.609375 8.296875 
L 53.609375 0 
L 7.328125 0 
L 7.328125 8.296875 
Q 12.9375 14.109375 22.625 23.890625 
Q 32.328125 33.6875 34.8125 36.53125 
Q 39.546875 41.84375 41.421875 45.53125 
Q 43.3125 49.21875 43.3125 52.78125 
Q 43.3125 58.59375 39.234375 62.25 
Q 35.15625 65.921875 28.609375 65.921875 
Q 23.96875 65.921875 18.8125 64.3125 
Q 13.671875 62.703125 7.8125 59.421875 
L 7.8125 69.390625 
Q 13.765625 71.78125 18.9375 73 
Q 24.125 74.21875 28.421875 74.21875 
Q 39.75 74.21875 46.484375 68.546875 
Q 53.21875 62.890625 53.21875 53.421875 
Q 53.21875 48.921875 51.53125 44.890625 
Q 49.859375 40.875 45.40625 35.40625 
Q 44.1875 33.984375 37.640625 27.21875 
Q 31.109375 20.453125 19.1875 8.296875 
z
" id="DejaVuSans-50"/>
      </defs>
      <g transform="translate(213.64625 471.816875)scale(0.3 -0.3)">
       <use xlink:href="#DejaVuSans-50"/>
      </g>
     </g>
    </g>
    <g id="xtick_4">
     <g id="line2d_4">
      <g>
       <use style="stroke:#000000;stroke-width:0.8;" x="278.99" xlink:href="#md719df2af9" y="442.021562"/>
      </g>
     </g>
     <g id="text_4">
      <!-- 3 -->
      <defs>
       <path d="M 40.578125 39.3125 
Q 47.65625 37.796875 51.625 33 
Q 55.609375 28.21875 55.609375 21.1875 
Q 55.609375 10.40625 48.1875 4.484375 
Q 40.765625 -1.421875 27.09375 -1.421875 
Q 22.515625 -1.421875 17.65625 -0.515625 
Q 12.796875 0.390625 7.625 2.203125 
L 7.625 11.71875 
Q 11.71875 9.328125 16.59375 8.109375 
Q 21.484375 6.890625 26.8125 6.890625 
Q 36.078125 6.890625 40.9375 10.546875 
Q 45.796875 14.203125 45.796875 21.1875 
Q 45.796875 27.640625 41.28125 31.265625 
Q 36.765625 34.90625 28.71875 34.90625 
L 20.21875 34.90625 
L 20.21875 43.015625 
L 29.109375 43.015625 
Q 36.375 43.015625 40.234375 45.921875 
Q 44.09375 48.828125 44.09375 54.296875 
Q 44.09375 59.90625 40.109375 62.90625 
Q 36.140625 65.921875 28.71875 65.921875 
Q 24.65625 65.921875 20.015625 65.03125 
Q 15.375 64.15625 9.8125 62.3125 
L 9.8125 71.09375 
Q 15.4375 72.65625 20.34375 73.4375 
Q 25.25 74.21875 29.59375 74.21875 
Q 40.828125 74.21875 47.359375 69.109375 
Q 53.90625 64.015625 53.90625 55.328125 
Q 53.90625 49.265625 50.4375 45.09375 
Q 46.96875 40.921875 40.578125 39.3125 
z
" id="DejaVuSans-51"/>
      </defs>
      <g transform="translate(269.44625 471.816875)scale(0.3 -0.3)">
       <use xlink:href="#DejaVuSans-51"/>
      </g>
     </g>
    </g>
    <g id="xtick_5">
     <g id="line2d_5">
      <g>
       <use style="stroke:#000000;stroke-width:0.8;" x="334.79" xlink:href="#md719df2af9" y="442.021562"/>
      </g>
     </g>
     <g id="text_5">
      <!-- 4 -->
      <defs>
       <path d="M 37.796875 64.3125 
L 12.890625 25.390625 
L 37.796875 25.390625 
z
M 35.203125 72.90625 
L 47.609375 72.90625 
L 47.609375 25.390625 
L 58.015625 25.390625 
L 58.015625 17.1875 
L 47.609375 17.1875 
L 47.609375 0 
L 37.796875 0 
L 37.796875 17.1875 
L 4.890625 17.1875 
L 4.890625 26.703125 
z
" id="DejaVuSans-52"/>
      </defs>
      <g transform="translate(325.24625 471.816875)scale(0.3 -0.3)">
       <use xlink:href="#DejaVuSans-52"/>
      </g>
     </g>
    </g>
    <g id="xtick_6">
     <g id="line2d_6">
      <g>
       <use style="stroke:#000000;stroke-width:0.8;" x="390.59" xlink:href="#md719df2af9" y="442.021562"/>
      </g>
     </g>
     <g id="text_6">
      <!-- 5 -->
      <defs>
       <path d="M 10.796875 72.90625 
L 49.515625 72.90625 
L 49.515625 64.59375 
L 19.828125 64.59375 
L 19.828125 46.734375 
Q 21.96875 47.46875 24.109375 47.828125 
Q 26.265625 48.1875 28.421875 48.1875 
Q 40.625 48.1875 47.75 41.5 
Q 54.890625 34.8125 54.890625 23.390625 
Q 54.890625 11.625 47.5625 5.09375 
Q 40.234375 -1.421875 26.90625 -1.421875 
Q 22.3125 -1.421875 17.546875 -0.640625 
Q 12.796875 0.140625 7.71875 1.703125 
L 7.71875 11.625 
Q 12.109375 9.234375 16.796875 8.0625 
Q 21.484375 6.890625 26.703125 6.890625 
Q 35.15625 6.890625 40.078125 11.328125 
Q 45.015625 15.765625 45.015625 23.390625 
Q 45.015625 31 40.078125 35.4375 
Q 35.15625 39.890625 26.703125 39.890625 
Q 22.75 39.890625 18.8125 39.015625 
Q 14.890625 38.140625 10.796875 36.28125 
z
" id="DejaVuSans-53"/>
      </defs>
      <g transform="translate(381.04625 471.816875)scale(0.3 -0.3)">
       <use xlink:href="#DejaVuSans-53"/>
      </g>
     </g>
    </g>
    <g id="xtick_7">
     <g id="line2d_7">
      <g>
       <use style="stroke:#000000;stroke-width:0.8;" x="446.39" xlink:href="#md719df2af9" y="442.021562"/>
      </g>
     </g>
     <g id="text_7">
      <!-- 6 -->
      <defs>
       <path d="M 33.015625 40.375 
Q 26.375 40.375 22.484375 35.828125 
Q 18.609375 31.296875 18.609375 23.390625 
Q 18.609375 15.53125 22.484375 10.953125 
Q 26.375 6.390625 33.015625 6.390625 
Q 39.65625 6.390625 43.53125 10.953125 
Q 47.40625 15.53125 47.40625 23.390625 
Q 47.40625 31.296875 43.53125 35.828125 
Q 39.65625 40.375 33.015625 40.375 
z
M 52.59375 71.296875 
L 52.59375 62.3125 
Q 48.875 64.0625 45.09375 64.984375 
Q 41.3125 65.921875 37.59375 65.921875 
Q 27.828125 65.921875 22.671875 59.328125 
Q 17.53125 52.734375 16.796875 39.40625 
Q 19.671875 43.65625 24.015625 45.921875 
Q 28.375 48.1875 33.59375 48.1875 
Q 44.578125 48.1875 50.953125 41.515625 
Q 57.328125 34.859375 57.328125 23.390625 
Q 57.328125 12.15625 50.6875 5.359375 
Q 44.046875 -1.421875 33.015625 -1.421875 
Q 20.359375 -1.421875 13.671875 8.265625 
Q 6.984375 17.96875 6.984375 36.375 
Q 6.984375 53.65625 15.1875 63.9375 
Q 23.390625 74.21875 37.203125 74.21875 
Q 40.921875 74.21875 44.703125 73.484375 
Q 48.484375 72.75 52.59375 71.296875 
z
" id="DejaVuSans-54"/>
      </defs>
      <g transform="translate(436.84625 471.816875)scale(0.3 -0.3)">
       <use xlink:href="#DejaVuSans-54"/>
      </g>
     </g>
    </g>
    <g id="xtick_8">
     <g id="line2d_8">
      <g>
       <use style="stroke:#000000;stroke-width:0.8;" x="502.19" xlink:href="#md719df2af9" y="442.021562"/>
      </g>
     </g>
     <g id="text_8">
      <!-- 7 -->
      <defs>
       <path d="M 8.203125 72.90625 
L 55.078125 72.90625 
L 55.078125 68.703125 
L 28.609375 0 
L 18.3125 0 
L 43.21875 64.59375 
L 8.203125 64.59375 
z
" id="DejaVuSans-55"/>
      </defs>
      <g transform="translate(492.64625 471.816875)scale(0.3 -0.3)">
       <use xlink:href="#DejaVuSans-55"/>
      </g>
     </g>
    </g>
    <g id="text_9">
     <!-- TIME (DAYS) -->
     <defs>
      <path d="M 23.390625 0 
L 23.390625 59.46875 
L 2.15625 59.46875 
L 2.15625 71.578125 
L 59.03125 71.578125 
L 59.03125 59.46875 
L 37.84375 59.46875 
L 37.84375 0 
z
" id="Arial-BoldMT-84"/>
      <path d="M 6.84375 0 
L 6.84375 71.578125 
L 21.296875 71.578125 
L 21.296875 0 
z
" id="Arial-BoldMT-73"/>
      <path d="M 7.078125 0 
L 7.078125 71.578125 
L 28.71875 71.578125 
L 41.703125 22.75 
L 54.546875 71.578125 
L 76.21875 71.578125 
L 76.21875 0 
L 62.796875 0 
L 62.796875 56.34375 
L 48.578125 0 
L 34.671875 0 
L 20.515625 56.34375 
L 20.515625 0 
z
" id="Arial-BoldMT-77"/>
      <path d="M 7.28125 0 
L 7.28125 71.578125 
L 60.359375 71.578125 
L 60.359375 59.46875 
L 21.734375 59.46875 
L 21.734375 43.609375 
L 57.671875 43.609375 
L 57.671875 31.546875 
L 21.734375 31.546875 
L 21.734375 12.0625 
L 61.71875 12.0625 
L 61.71875 0 
z
" id="Arial-BoldMT-69"/>
      <path id="Arial-BoldMT-32"/>
      <path d="M 29.9375 -21.046875 
L 20.515625 -21.046875 
Q 13.03125 -9.765625 9.125 2.390625 
Q 5.21875 14.546875 5.21875 25.921875 
Q 5.21875 40.046875 10.0625 52.640625 
Q 14.265625 63.578125 20.703125 72.796875 
L 30.078125 72.796875 
Q 23.390625 58.015625 20.875 47.625 
Q 18.359375 37.25 18.359375 25.640625 
Q 18.359375 17.625 19.84375 9.21875 
Q 21.34375 0.828125 23.921875 -6.734375 
Q 25.640625 -11.71875 29.9375 -21.046875 
z
" id="Arial-BoldMT-40"/>
      <path d="M 7.234375 71.578125 
L 33.640625 71.578125 
Q 42.578125 71.578125 47.265625 70.21875 
Q 53.5625 68.359375 58.046875 63.625 
Q 62.546875 58.890625 64.890625 52.03125 
Q 67.234375 45.171875 67.234375 35.109375 
Q 67.234375 26.265625 65.046875 19.875 
Q 62.359375 12.0625 57.375 7.234375 
Q 53.609375 3.5625 47.21875 1.515625 
Q 42.4375 0 34.421875 0 
L 7.234375 0 
z
M 21.6875 59.46875 
L 21.6875 12.0625 
L 32.46875 12.0625 
Q 38.53125 12.0625 41.21875 12.75 
Q 44.734375 13.625 47.046875 15.71875 
Q 49.359375 17.828125 50.828125 22.625 
Q 52.296875 27.4375 52.296875 35.75 
Q 52.296875 44.046875 50.828125 48.484375 
Q 49.359375 52.9375 46.71875 55.421875 
Q 44.09375 57.90625 40.046875 58.796875 
Q 37.015625 59.46875 28.171875 59.46875 
z
" id="Arial-BoldMT-68"/>
      <path d="M 71.828125 0 
L 56.109375 0 
L 49.859375 16.265625 
L 21.234375 16.265625 
L 15.328125 0 
L 0 0 
L 27.875 71.578125 
L 43.171875 71.578125 
z
M 45.21875 28.328125 
L 35.359375 54.890625 
L 25.6875 28.328125 
z
" id="Arial-BoldMT-65"/>
      <path d="M 26.078125 0 
L 26.078125 30.125 
L -0.140625 71.578125 
L 16.796875 71.578125 
L 33.640625 43.265625 
L 50.140625 71.578125 
L 66.796875 71.578125 
L 40.484375 30.03125 
L 40.484375 0 
z
" id="Arial-BoldMT-89"/>
      <path d="M 3.609375 23.296875 
L 17.671875 24.65625 
Q 18.953125 17.578125 22.828125 14.25 
Q 26.703125 10.9375 33.296875 10.9375 
Q 40.28125 10.9375 43.8125 13.890625 
Q 47.359375 16.84375 47.359375 20.796875 
Q 47.359375 23.34375 45.875 25.125 
Q 44.390625 26.90625 40.671875 28.21875 
Q 38.140625 29.109375 29.109375 31.34375 
Q 17.484375 34.234375 12.796875 38.421875 
Q 6.203125 44.34375 6.203125 52.828125 
Q 6.203125 58.296875 9.296875 63.0625 
Q 12.40625 67.828125 18.234375 70.3125 
Q 24.078125 72.796875 32.328125 72.796875 
Q 45.796875 72.796875 52.609375 66.890625 
Q 59.421875 60.984375 59.765625 51.125 
L 45.3125 50.484375 
Q 44.390625 56 41.328125 58.421875 
Q 38.28125 60.84375 32.171875 60.84375 
Q 25.875 60.84375 22.3125 58.25 
Q 20.015625 56.59375 20.015625 53.8125 
Q 20.015625 51.265625 22.171875 49.46875 
Q 24.90625 47.171875 35.453125 44.671875 
Q 46 42.1875 51.046875 39.515625 
Q 56.109375 36.859375 58.953125 32.25 
Q 61.8125 27.640625 61.8125 20.84375 
Q 61.8125 14.703125 58.390625 9.328125 
Q 54.984375 3.953125 48.734375 1.34375 
Q 42.484375 -1.265625 33.15625 -1.265625 
Q 19.578125 -1.265625 12.296875 5 
Q 5.03125 11.28125 3.609375 23.296875 
z
" id="Arial-BoldMT-83"/>
      <path d="M 3.375 -21.046875 
Q 7.421875 -12.359375 9.078125 -7.71875 
Q 10.75 -3.078125 12.15625 2.96875 
Q 13.578125 9.03125 14.25 14.46875 
Q 14.9375 19.921875 14.9375 25.640625 
Q 14.9375 37.25 12.453125 47.625 
Q 9.96875 58.015625 3.265625 72.796875 
L 12.59375 72.796875 
Q 19.96875 62.3125 24.046875 50.53125 
Q 28.125 38.765625 28.125 26.65625 
Q 28.125 16.453125 24.90625 4.78125 
Q 21.234375 -8.296875 12.84375 -21.046875 
z
" id="Arial-BoldMT-41"/>
     </defs>
     <g transform="translate(245.79625 502.615312)scale(0.2 -0.2)">
      <use xlink:href="#Arial-BoldMT-84"/>
      <use x="61.083984" xlink:href="#Arial-BoldMT-73"/>
      <use x="88.867188" xlink:href="#Arial-BoldMT-77"/>
      <use x="172.167969" xlink:href="#Arial-BoldMT-69"/>
      <use x="238.867188" xlink:href="#Arial-BoldMT-32"/>
      <use x="266.650391" xlink:href="#Arial-BoldMT-40"/>
      <use x="299.951172" xlink:href="#Arial-BoldMT-68"/>
      <use x="372.167969" xlink:href="#Arial-BoldMT-65"/>
      <use x="444.244141" xlink:href="#Arial-BoldMT-89"/>
      <use x="510.943359" xlink:href="#Arial-BoldMT-83"/>
      <use x="577.642578" xlink:href="#Arial-BoldMT-41"/>
     </g>
    </g>
   </g>
   <g id="matplotlib.axis_2">
    <g id="ytick_1">
     <g id="line2d_9">
      <defs>
       <path d="M 0 0 
L -3.5 0 
" id="m11e51ca13f" style="stroke:#000000;stroke-width:0.8;"/>
      </defs>
      <g>
       <use style="stroke:#000000;stroke-width:0.8;" x="111.59" xlink:href="#m11e51ca13f" y="442.021562"/>
      </g>
     </g>
     <g id="text_10">
      <!-- 0.0 -->
      <defs>
       <path d="M 10.6875 12.40625 
L 21 12.40625 
L 21 0 
L 10.6875 0 
z
" id="DejaVuSans-46"/>
      </defs>
      <g transform="translate(56.880625 453.419219)scale(0.3 -0.3)">
       <use xlink:href="#DejaVuSans-48"/>
       <use x="63.623047" xlink:href="#DejaVuSans-46"/>
       <use x="95.410156" xlink:href="#DejaVuSans-48"/>
      </g>
     </g>
    </g>
    <g id="ytick_2">
     <g id="line2d_10">
      <g>
       <use style="stroke:#000000;stroke-width:0.8;" x="111.59" xlink:href="#m11e51ca13f" y="394.456562"/>
      </g>
     </g>
     <g id="text_11">
      <!-- 0.5 -->
      <g transform="translate(56.880625 405.854219)scale(0.3 -0.3)">
       <use xlink:href="#DejaVuSans-48"/>
       <use x="63.623047" xlink:href="#DejaVuSans-46"/>
       <use x="95.410156" xlink:href="#DejaVuSans-53"/>
      </g>
     </g>
    </g>
    <g id="ytick_3">
     <g id="line2d_11">
      <g>
       <use style="stroke:#000000;stroke-width:0.8;" x="111.59" xlink:href="#m11e51ca13f" y="346.891562"/>
      </g>
     </g>
     <g id="text_12">
      <!-- 1.0 -->
      <g transform="translate(56.880625 358.289219)scale(0.3 -0.3)">
       <use xlink:href="#DejaVuSans-49"/>
       <use x="63.623047" xlink:href="#DejaVuSans-46"/>
       <use x="95.410156" xlink:href="#DejaVuSans-48"/>
      </g>
     </g>
    </g>
    <g id="ytick_4">
     <g id="line2d_12">
      <g>
       <use style="stroke:#000000;stroke-width:0.8;" x="111.59" xlink:href="#m11e51ca13f" y="299.326562"/>
      </g>
     </g>
     <g id="text_13">
      <!-- 1.5 -->
      <g transform="translate(56.880625 310.724219)scale(0.3 -0.3)">
       <use xlink:href="#DejaVuSans-49"/>
       <use x="63.623047" xlink:href="#DejaVuSans-46"/>
       <use x="95.410156" xlink:href="#DejaVuSans-53"/>
      </g>
     </g>
    </g>
    <g id="ytick_5">
     <g id="line2d_13">
      <g>
       <use style="stroke:#000000;stroke-width:0.8;" x="111.59" xlink:href="#m11e51ca13f" y="251.761562"/>
      </g>
     </g>
     <g id="text_14">
      <!-- 2.0 -->
      <g transform="translate(56.880625 263.159219)scale(0.3 -0.3)">
       <use xlink:href="#DejaVuSans-50"/>
       <use x="63.623047" xlink:href="#DejaVuSans-46"/>
       <use x="95.410156" xlink:href="#DejaVuSans-48"/>
      </g>
     </g>
    </g>
    <g id="ytick_6">
     <g id="line2d_14">
      <g>
       <use style="stroke:#000000;stroke-width:0.8;" x="111.59" xlink:href="#m11e51ca13f" y="204.196562"/>
      </g>
     </g>
     <g id="text_15">
      <!-- 2.5 -->
      <g transform="translate(56.880625 215.594219)scale(0.3 -0.3)">
       <use xlink:href="#DejaVuSans-50"/>
       <use x="63.623047" xlink:href="#DejaVuSans-46"/>
       <use x="95.410156" xlink:href="#DejaVuSans-53"/>
      </g>
     </g>
    </g>
    <g id="ytick_7">
     <g id="line2d_15">
      <g>
       <use style="stroke:#000000;stroke-width:0.8;" x="111.59" xlink:href="#m11e51ca13f" y="156.631562"/>
      </g>
     </g>
     <g id="text_16">
      <!-- 3.0 -->
      <g transform="translate(56.880625 168.029219)scale(0.3 -0.3)">
       <use xlink:href="#DejaVuSans-51"/>
       <use x="63.623047" xlink:href="#DejaVuSans-46"/>
       <use x="95.410156" xlink:href="#DejaVuSans-48"/>
      </g>
     </g>
    </g>
    <g id="ytick_8">
     <g id="line2d_16">
      <g>
       <use style="stroke:#000000;stroke-width:0.8;" x="111.59" xlink:href="#m11e51ca13f" y="109.066562"/>
      </g>
     </g>
     <g id="text_17">
      <!-- 3.5 -->
      <g transform="translate(56.880625 120.464219)scale(0.3 -0.3)">
       <use xlink:href="#DejaVuSans-51"/>
       <use x="63.623047" xlink:href="#DejaVuSans-46"/>
       <use x="95.410156" xlink:href="#DejaVuSans-53"/>
      </g>
     </g>
    </g>
    <g id="ytick_9">
     <g id="line2d_17">
      <g>
       <use style="stroke:#000000;stroke-width:0.8;" x="111.59" xlink:href="#m11e51ca13f" y="61.501562"/>
      </g>
     </g>
     <g id="text_18">
      <!-- 4.0 -->
      <g transform="translate(56.880625 72.899219)scale(0.3 -0.3)">
       <use xlink:href="#DejaVuSans-52"/>
       <use x="63.623047" xlink:href="#DejaVuSans-46"/>
       <use x="95.410156" xlink:href="#DejaVuSans-48"/>
      </g>
     </g>
    </g>
    <g id="text_19">
     <!-- IL-2 CONCENTRATION -->
     <defs>
      <path d="M 7.671875 0 
L 7.671875 71 
L 22.125 71 
L 22.125 12.0625 
L 58.0625 12.0625 
L 58.0625 0 
z
" id="Arial-BoldMT-76"/>
      <path d="M 5.609375 19.09375 
L 5.609375 32.8125 
L 32.5625 32.8125 
L 32.5625 19.09375 
z
" id="Arial-BoldMT-45"/>
      <path d="M 50.59375 12.75 
L 50.59375 0 
L 2.484375 0 
Q 3.265625 7.234375 7.171875 13.703125 
Q 11.078125 20.171875 22.609375 30.859375 
Q 31.890625 39.5 33.984375 42.578125 
Q 36.8125 46.828125 36.8125 50.984375 
Q 36.8125 55.5625 34.34375 58.03125 
Q 31.890625 60.5 27.546875 60.5 
Q 23.25 60.5 20.703125 57.90625 
Q 18.171875 55.328125 17.78125 49.3125 
L 4.109375 50.6875 
Q 5.328125 62.015625 11.765625 66.9375 
Q 18.21875 71.875 27.875 71.875 
Q 38.484375 71.875 44.53125 66.15625 
Q 50.59375 60.453125 50.59375 51.953125 
Q 50.59375 47.125 48.859375 42.75 
Q 47.125 38.375 43.359375 33.59375 
Q 40.875 30.421875 34.375 24.453125 
Q 27.875 18.5 26.140625 16.546875 
Q 24.421875 14.59375 23.34375 12.75 
z
" id="Arial-BoldMT-50"/>
      <path d="M 53.078125 26.3125 
L 67.09375 21.875 
Q 63.875 10.15625 56.375 4.46875 
Q 48.875 -1.21875 37.359375 -1.21875 
Q 23.09375 -1.21875 13.90625 8.515625 
Q 4.734375 18.265625 4.734375 35.15625 
Q 4.734375 53.03125 13.953125 62.90625 
Q 23.1875 72.796875 38.234375 72.796875 
Q 51.375 72.796875 59.578125 65.046875 
Q 64.453125 60.453125 66.890625 51.859375 
L 52.59375 48.4375 
Q 51.3125 54 47.28125 57.21875 
Q 43.265625 60.453125 37.5 60.453125 
Q 29.546875 60.453125 24.578125 54.734375 
Q 19.625 49.03125 19.625 36.234375 
Q 19.625 22.65625 24.5 16.890625 
Q 29.390625 11.140625 37.203125 11.140625 
Q 42.96875 11.140625 47.109375 14.796875 
Q 51.265625 18.453125 53.078125 26.3125 
z
" id="Arial-BoldMT-67"/>
      <path d="M 4.34375 35.359375 
Q 4.34375 46.296875 7.625 53.71875 
Q 10.0625 59.1875 14.28125 63.53125 
Q 18.5 67.875 23.53125 69.96875 
Q 30.21875 72.796875 38.96875 72.796875 
Q 54.78125 72.796875 64.28125 62.984375 
Q 73.78125 53.171875 73.78125 35.6875 
Q 73.78125 18.359375 64.359375 8.5625 
Q 54.9375 -1.21875 39.15625 -1.21875 
Q 23.1875 -1.21875 13.765625 8.515625 
Q 4.34375 18.265625 4.34375 35.359375 
z
M 19.234375 35.84375 
Q 19.234375 23.6875 24.84375 17.40625 
Q 30.46875 11.140625 39.109375 11.140625 
Q 47.75 11.140625 53.296875 17.359375 
Q 58.84375 23.578125 58.84375 36.03125 
Q 58.84375 48.34375 53.4375 54.390625 
Q 48.046875 60.453125 39.109375 60.453125 
Q 30.171875 60.453125 24.703125 54.3125 
Q 19.234375 48.1875 19.234375 35.84375 
z
" id="Arial-BoldMT-79"/>
      <path d="M 7.421875 0 
L 7.421875 71.578125 
L 21.484375 71.578125 
L 50.78125 23.78125 
L 50.78125 71.578125 
L 64.203125 71.578125 
L 64.203125 0 
L 49.703125 0 
L 20.84375 46.6875 
L 20.84375 0 
z
" id="Arial-BoldMT-78"/>
      <path d="M 7.328125 0 
L 7.328125 71.578125 
L 37.75 71.578125 
Q 49.21875 71.578125 54.421875 69.640625 
Q 59.625 67.71875 62.75 62.78125 
Q 65.875 57.859375 65.875 51.515625 
Q 65.875 43.453125 61.125 38.203125 
Q 56.390625 32.953125 46.96875 31.59375 
Q 51.65625 28.859375 54.703125 25.578125 
Q 57.765625 22.3125 62.9375 13.96875 
L 71.6875 0 
L 54.390625 0 
L 43.953125 15.578125 
Q 38.375 23.921875 36.328125 26.09375 
Q 34.28125 28.265625 31.984375 29.078125 
Q 29.6875 29.890625 24.703125 29.890625 
L 21.78125 29.890625 
L 21.78125 0 
z
M 21.78125 41.3125 
L 32.46875 41.3125 
Q 42.875 41.3125 45.453125 42.1875 
Q 48.046875 43.0625 49.515625 45.203125 
Q 50.984375 47.359375 50.984375 50.59375 
Q 50.984375 54.203125 49.046875 56.421875 
Q 47.125 58.640625 43.609375 59.234375 
Q 41.84375 59.46875 33.0625 59.46875 
L 21.78125 59.46875 
z
" id="Arial-BoldMT-82"/>
     </defs>
     <g transform="translate(21.253125 360.07875)rotate(-90)scale(0.2 -0.2)">
      <use xlink:href="#Arial-BoldMT-73"/>
      <use x="27.783203" xlink:href="#Arial-BoldMT-76"/>
      <use x="88.867188" xlink:href="#Arial-BoldMT-45"/>
      <use x="122.167969" xlink:href="#Arial-BoldMT-50"/>
      <use x="177.783203" xlink:href="#Arial-BoldMT-32"/>
      <use x="205.566406" xlink:href="#Arial-BoldMT-67"/>
      <use x="277.783203" xlink:href="#Arial-BoldMT-79"/>
      <use x="355.566406" xlink:href="#Arial-BoldMT-78"/>
      <use x="427.783203" xlink:href="#Arial-BoldMT-67"/>
      <use x="500" xlink:href="#Arial-BoldMT-69"/>
      <use x="566.699219" xlink:href="#Arial-BoldMT-78"/>
      <use x="638.916016" xlink:href="#Arial-BoldMT-84"/>
      <use x="700" xlink:href="#Arial-BoldMT-82"/>
      <use x="772.216797" xlink:href="#Arial-BoldMT-65"/>
      <use x="844.324219" xlink:href="#Arial-BoldMT-84"/>
      <use x="905.408203" xlink:href="#Arial-BoldMT-73"/>
      <use x="933.191406" xlink:href="#Arial-BoldMT-79"/>
      <use x="1010.974609" xlink:href="#Arial-BoldMT-78"/>
     </g>
     <!-- (pg/ml) -->
     <defs>
      <path d="M 6.78125 51.859375 
L 19.578125 51.859375 
L 19.578125 44.234375 
Q 22.078125 48.140625 26.3125 50.578125 
Q 30.5625 53.03125 35.75 53.03125 
Q 44.78125 53.03125 51.078125 45.953125 
Q 57.375 38.875 57.375 26.21875 
Q 57.375 13.234375 51.015625 6.03125 
Q 44.671875 -1.171875 35.640625 -1.171875 
Q 31.34375 -1.171875 27.84375 0.53125 
Q 24.359375 2.25 20.515625 6.390625 
L 20.515625 -19.734375 
L 6.78125 -19.734375 
z
M 20.359375 26.8125 
Q 20.359375 18.0625 23.828125 13.890625 
Q 27.296875 9.71875 32.28125 9.71875 
Q 37.0625 9.71875 40.234375 13.546875 
Q 43.40625 17.390625 43.40625 26.125 
Q 43.40625 34.28125 40.125 38.234375 
Q 36.859375 42.1875 32.03125 42.1875 
Q 27 42.1875 23.671875 38.296875 
Q 20.359375 34.421875 20.359375 26.8125 
z
" id="Arial-BoldMT-112"/>
      <path d="M 5.90625 -3.421875 
L 21.578125 -5.328125 
Q 21.96875 -8.0625 23.390625 -9.078125 
Q 25.34375 -10.546875 29.546875 -10.546875 
Q 34.90625 -10.546875 37.59375 -8.9375 
Q 39.40625 -7.859375 40.328125 -5.46875 
Q 40.96875 -3.765625 40.96875 0.828125 
L 40.96875 8.40625 
Q 34.8125 0 25.4375 0 
Q 14.984375 0 8.890625 8.84375 
Q 4.109375 15.828125 4.109375 26.21875 
Q 4.109375 39.265625 10.375 46.140625 
Q 16.65625 53.03125 25.984375 53.03125 
Q 35.59375 53.03125 41.84375 44.578125 
L 41.84375 51.859375 
L 54.6875 51.859375 
L 54.6875 5.328125 
Q 54.6875 -3.859375 53.171875 -8.390625 
Q 51.65625 -12.9375 48.921875 -15.515625 
Q 46.1875 -18.109375 41.625 -19.578125 
Q 37.0625 -21.046875 30.078125 -21.046875 
Q 16.890625 -21.046875 11.375 -16.53125 
Q 5.859375 -12.015625 5.859375 -5.078125 
Q 5.859375 -4.390625 5.90625 -3.421875 
z
M 18.171875 27 
Q 18.171875 18.75 21.359375 14.90625 
Q 24.5625 11.078125 29.25 11.078125 
Q 34.28125 11.078125 37.75 15.015625 
Q 41.21875 18.953125 41.21875 26.65625 
Q 41.21875 34.71875 37.890625 38.625 
Q 34.578125 42.53125 29.5 42.53125 
Q 24.5625 42.53125 21.359375 38.6875 
Q 18.171875 34.859375 18.171875 27 
z
" id="Arial-BoldMT-103"/>
      <path d="M -0.140625 -1.21875 
L 17.578125 72.796875 
L 27.875 72.796875 
L 9.96875 -1.21875 
z
" id="Arial-BoldMT-47"/>
      <path d="M 6.15625 51.859375 
L 18.796875 51.859375 
L 18.796875 44.78125 
Q 25.59375 53.03125 34.96875 53.03125 
Q 39.9375 53.03125 43.59375 50.96875 
Q 47.265625 48.921875 49.609375 44.78125 
Q 53.03125 48.921875 56.984375 50.96875 
Q 60.9375 53.03125 65.4375 53.03125 
Q 71.140625 53.03125 75.09375 50.703125 
Q 79.046875 48.390625 81 43.890625 
Q 82.421875 40.578125 82.421875 33.15625 
L 82.421875 0 
L 68.703125 0 
L 68.703125 29.640625 
Q 68.703125 37.359375 67.28125 39.59375 
Q 65.375 42.53125 61.421875 42.53125 
Q 58.546875 42.53125 56 40.765625 
Q 53.46875 39.015625 52.34375 35.625 
Q 51.21875 32.234375 51.21875 24.90625 
L 51.21875 0 
L 37.5 0 
L 37.5 28.421875 
Q 37.5 35.984375 36.765625 38.171875 
Q 36.03125 40.375 34.484375 41.453125 
Q 32.953125 42.53125 30.328125 42.53125 
Q 27.15625 42.53125 24.609375 40.8125 
Q 22.078125 39.109375 20.96875 35.890625 
Q 19.875 32.671875 19.875 25.203125 
L 19.875 0 
L 6.15625 0 
z
" id="Arial-BoldMT-109"/>
      <path d="M 7.171875 0 
L 7.171875 71.578125 
L 20.90625 71.578125 
L 20.90625 0 
z
" id="Arial-BoldMT-108"/>
     </defs>
     <g transform="translate(42.67125 285.085)rotate(-90)scale(0.2 -0.2)">
      <use xlink:href="#Arial-BoldMT-40"/>
      <use x="33.300781" xlink:href="#Arial-BoldMT-112"/>
      <use x="94.384766" xlink:href="#Arial-BoldMT-103"/>
      <use x="155.46875" xlink:href="#Arial-BoldMT-47"/>
      <use x="183.251953" xlink:href="#Arial-BoldMT-109"/>
      <use x="272.167969" xlink:href="#Arial-BoldMT-108"/>
      <use x="299.951172" xlink:href="#Arial-BoldMT-41"/>
     </g>
    </g>
    <g id="text_20">
     <!-- 1e7 -->
     <defs>
      <path d="M 56.203125 29.59375 
L 56.203125 25.203125 
L 14.890625 25.203125 
Q 15.484375 15.921875 20.484375 11.0625 
Q 25.484375 6.203125 34.421875 6.203125 
Q 39.59375 6.203125 44.453125 7.46875 
Q 49.3125 8.734375 54.109375 11.28125 
L 54.109375 2.78125 
Q 49.265625 0.734375 44.1875 -0.34375 
Q 39.109375 -1.421875 33.890625 -1.421875 
Q 20.796875 -1.421875 13.15625 6.1875 
Q 5.515625 13.8125 5.515625 26.8125 
Q 5.515625 40.234375 12.765625 48.109375 
Q 20.015625 56 32.328125 56 
Q 43.359375 56 49.78125 48.890625 
Q 56.203125 41.796875 56.203125 29.59375 
z
M 47.21875 32.234375 
Q 47.125 39.59375 43.09375 43.984375 
Q 39.0625 48.390625 32.421875 48.390625 
Q 24.90625 48.390625 20.390625 44.140625 
Q 15.875 39.890625 15.1875 32.171875 
z
" id="DejaVuSans-101"/>
     </defs>
     <g transform="translate(111.59 58.501562)scale(0.1 -0.1)">
      <use xlink:href="#DejaVuSans-49"/>
      <use x="63.623047" xlink:href="#DejaVuSans-101"/>
      <use x="125.146484" xlink:href="#DejaVuSans-55"/>
     </g>
    </g>
   </g>
   <g id="line2d_18">
    <path clip-path="url(#p957f4a365d)" d="M 111.59 442.021562 
L 139.49 441.946807 
L 167.39 441.760245 
L 195.29 441.329669 
L 223.19 440.344389 
L 251.09 438.259325 
L 278.99 433.793126 
L 306.89 424.206436 
L 334.79 406.517057 
L 362.69 382.377743 
L 390.59 348.0278 
L 418.49 307.551863 
L 446.39 266.886496 
L 474.29 226.506782 
L 502.19 186.290398 
" style="fill:none;stroke:#08306b;stroke-linecap:square;stroke-width:1.5;"/>
   </g>
   <g id="line2d_19">
    <path clip-path="url(#p957f4a365d)" d="M 111.59 442.021562 
L 139.49 441.952303 
L 167.39 441.769354 
L 195.29 441.341727 
L 223.19 440.356637 
L 251.09 438.27217 
L 278.99 433.751637 
L 306.89 424.126198 
L 334.79 406.2938 
L 362.69 382.01513 
L 390.59 347.335778 
L 418.49 306.086188 
L 446.39 265.113803 
L 474.29 224.423242 
L 502.19 183.822769 
" style="fill:none;stroke:#08306b;stroke-linecap:square;stroke-width:1.5;"/>
   </g>
   <g id="line2d_20">
    <path clip-path="url(#p957f4a365d)" d="M 111.59 442.021562 
L 139.49 441.939029 
L 167.39 441.738603 
L 195.29 441.299851 
L 223.19 440.290974 
L 251.09 438.181852 
L 278.99 433.564929 
L 306.89 423.700381 
L 334.79 405.856502 
L 362.69 381.463919 
L 390.59 347.385723 
L 418.49 306.687243 
L 446.39 266.057384 
L 474.29 225.437088 
L 502.19 185.279754 
" style="fill:none;stroke:#08306b;stroke-linecap:square;stroke-width:1.5;"/>
   </g>
   <g id="line2d_21">
    <path clip-path="url(#p957f4a365d)" d="M 111.59 442.021562 
L 139.49 441.943852 
L 167.39 441.747276 
L 195.29 441.298574 
L 223.19 440.326411 
L 251.09 438.302775 
L 278.99 433.868655 
L 306.89 424.384948 
L 334.79 407.028822 
L 362.69 382.897247 
L 390.59 349.251593 
L 418.49 309.593421 
L 446.39 269.646559 
L 474.29 230.046225 
L 502.19 190.312489 
" style="fill:none;stroke:#08306b;stroke-linecap:square;stroke-width:1.5;"/>
   </g>
   <g id="line2d_22">
    <path clip-path="url(#p957f4a365d)" d="M 111.59 442.021562 
L 139.49 441.94563 
L 167.39 441.748757 
L 195.29 441.306726 
L 223.19 440.302231 
L 251.09 438.178288 
L 278.99 433.557825 
L 306.89 423.660987 
L 334.79 405.313341 
L 362.69 380.134446 
L 390.59 344.415614 
L 418.49 301.908598 
L 446.39 259.721311 
L 474.29 217.543516 
L 502.19 175.532457 
" style="fill:none;stroke:#08306b;stroke-linecap:square;stroke-width:1.5;"/>
   </g>
   <g id="line2d_23">
    <path clip-path="url(#p957f4a365d)" d="M 111.59 442.021562 
L 139.49 441.94661 
L 167.39 441.759666 
L 195.29 441.353242 
L 223.19 440.389463 
L 251.09 438.371837 
L 278.99 434.012837 
L 306.89 424.762888 
L 334.79 407.940785 
L 362.69 384.979857 
L 390.59 352.269966 
L 418.49 312.885092 
L 446.39 273.330964 
L 474.29 233.332201 
L 502.19 193.653871 
" style="fill:none;stroke:#08306b;stroke-linecap:square;stroke-width:1.5;"/>
   </g>
   <g id="line2d_24">
    <path clip-path="url(#p957f4a365d)" d="M 111.59 442.021562 
L 139.49 441.948521 
L 167.39 441.752732 
L 195.29 441.310049 
L 223.19 440.302457 
L 251.09 438.200405 
L 278.99 433.686387 
L 306.89 424.04562 
L 334.79 406.779546 
L 362.69 382.903959 
L 390.59 348.339158 
L 418.49 308.360182 
L 446.39 268.073118 
L 474.29 227.827049 
L 502.19 187.914585 
" style="fill:none;stroke:#08306b;stroke-linecap:square;stroke-width:1.5;"/>
   </g>
   <g id="line2d_25">
    <path clip-path="url(#p957f4a365d)" d="M 111.59 442.021562 
L 139.49 441.939052 
L 167.39 441.745399 
L 195.29 441.299324 
L 223.19 440.278858 
L 251.09 438.1245 
L 278.99 433.459593 
L 306.89 423.602278 
L 334.79 405.389991 
L 362.69 379.587148 
L 390.59 343.614474 
L 418.49 301.87293 
L 446.39 260.199545 
L 474.29 218.510535 
L 502.19 176.978401 
" style="fill:none;stroke:#08306b;stroke-linecap:square;stroke-width:1.5;"/>
   </g>
   <g id="line2d_26">
    <path clip-path="url(#p957f4a365d)" d="M 111.59 442.021562 
L 139.49 441.940224 
L 167.39 441.736151 
L 195.29 441.279785 
L 223.19 440.243605 
L 251.09 438.094551 
L 278.99 433.427096 
L 306.89 423.604974 
L 334.79 406.290884 
L 362.69 380.873839 
L 390.59 345.180656 
L 418.49 303.184156 
L 446.39 261.218445 
L 474.29 219.554583 
L 502.19 178.150374 
" style="fill:none;stroke:#08306b;stroke-linecap:square;stroke-width:1.5;"/>
   </g>
   <g id="line2d_27">
    <path clip-path="url(#p957f4a365d)" d="M 111.59 442.021562 
L 139.49 441.948303 
L 167.39 441.754124 
L 195.29 441.318094 
L 223.19 440.322218 
L 251.09 438.23093 
L 278.99 433.701427 
L 306.89 424.050877 
L 334.79 406.522133 
L 362.69 382.109093 
L 390.59 346.323372 
L 418.49 304.616204 
L 446.39 263.10099 
L 474.29 221.923687 
L 502.19 180.850988 
" style="fill:none;stroke:#08306b;stroke-linecap:square;stroke-width:1.5;"/>
   </g>
   <g id="line2d_28">
    <path clip-path="url(#p957f4a365d)" d="M 111.59 442.021562 
L 139.49 442.010719 
L 167.39 441.965671 
L 195.29 441.839215 
L 223.19 441.525108 
L 251.09 440.858812 
L 278.99 439.38919 
L 306.89 436.165263 
L 334.79 429.889149 
L 362.69 420.461933 
L 390.59 407.698831 
L 418.49 390.561286 
L 446.39 370.834753 
L 474.29 350.834 
L 502.19 330.080844 
" style="fill:none;stroke:#4a98c9;stroke-linecap:square;stroke-width:1.5;"/>
   </g>
   <g id="line2d_29">
    <path clip-path="url(#p957f4a365d)" d="M 111.59 442.021562 
L 139.49 442.000049 
L 167.39 441.937968 
L 195.29 441.784569 
L 223.19 441.411457 
L 251.09 440.630826 
L 278.99 438.879775 
L 306.89 435.063108 
L 334.79 427.851002 
L 362.69 417.840543 
L 390.59 405.160494 
L 418.49 387.583629 
L 446.39 367.646115 
L 474.29 346.933756 
L 502.19 324.995998 
" style="fill:none;stroke:#4a98c9;stroke-linecap:square;stroke-width:1.5;"/>
   </g>
   <g id="line2d_30">
    <path clip-path="url(#p957f4a365d)" d="M 111.59 442.021562 
L 139.49 442.007301 
L 167.39 441.957799 
L 195.29 441.832913 
L 223.19 441.518541 
L 251.09 440.852213 
L 278.99 439.37876 
L 306.89 436.146256 
L 334.79 430.054833 
L 362.69 421.355831 
L 390.59 409.392917 
L 418.49 393.061728 
L 446.39 373.9866 
L 474.29 354.351072 
L 502.19 333.890497 
" style="fill:none;stroke:#4a98c9;stroke-linecap:square;stroke-width:1.5;"/>
   </g>
   <g id="line2d_31">
    <path clip-path="url(#p957f4a365d)" d="M 111.59 442.021562 
L 139.49 442.01253 
L 167.39 441.987045 
L 195.29 441.903834 
L 223.19 441.683183 
L 251.09 441.218387 
L 278.99 440.174844 
L 306.89 437.90928 
L 334.79 433.596125 
L 362.69 427.048227 
L 390.59 418.402417 
L 418.49 405.738386 
L 446.39 390.12758 
L 474.29 374.024758 
L 502.19 356.962086 
" style="fill:none;stroke:#4a98c9;stroke-linecap:square;stroke-width:1.5;"/>
   </g>
   <g id="line2d_32">
    <path clip-path="url(#p957f4a365d)" d="M 111.59 442.021562 
L 139.49 442.004648 
L 167.39 441.949184 
L 195.29 441.808071 
L 223.19 441.468043 
L 251.09 440.739303 
L 278.99 439.126374 
L 306.89 435.562789 
L 334.79 428.910867 
L 362.69 419.267341 
L 390.59 406.900068 
L 418.49 389.659534 
L 446.39 369.116173 
L 474.29 347.423509 
L 502.19 324.641856 
" style="fill:none;stroke:#4a98c9;stroke-linecap:square;stroke-width:1.5;"/>
   </g>
   <g id="line2d_33">
    <path clip-path="url(#p957f4a365d)" d="M 111.59 442.021562 
L 139.49 442.009234 
L 167.39 441.963081 
L 195.29 441.835946 
L 223.19 441.514248 
L 251.09 440.82768 
L 278.99 439.313083 
L 306.89 436.042165 
L 334.79 430.089203 
L 362.69 421.435323 
L 390.59 409.584256 
L 418.49 392.721876 
L 446.39 373.346087 
L 474.29 353.261108 
L 502.19 332.35312 
" style="fill:none;stroke:#4a98c9;stroke-linecap:square;stroke-width:1.5;"/>
   </g>
   <g id="line2d_34">
    <path clip-path="url(#p957f4a365d)" d="M 111.59 442.021562 
L 139.49 442.010667 
L 167.39 441.980309 
L 195.29 441.89194 
L 223.19 441.654068 
L 251.09 441.146577 
L 278.99 440.022667 
L 306.89 437.565806 
L 334.79 433.014821 
L 362.69 426.193993 
L 390.59 417.087576 
L 418.49 403.841814 
L 446.39 386.688182 
L 474.29 368.649088 
L 502.19 349.362995 
" style="fill:none;stroke:#4a98c9;stroke-linecap:square;stroke-width:1.5;"/>
   </g>
   <g id="line2d_35">
    <path clip-path="url(#p957f4a365d)" d="M 111.59 442.021562 
L 139.49 442.008397 
L 167.39 441.96903 
L 195.29 441.856888 
L 223.19 441.581453 
L 251.09 440.983003 
L 278.99 439.637324 
L 306.89 436.760971 
L 334.79 431.586251 
L 362.69 423.928446 
L 390.59 412.704681 
L 418.49 396.863855 
L 446.39 378.868103 
L 474.29 359.774186 
L 502.19 339.680073 
" style="fill:none;stroke:#4a98c9;stroke-linecap:square;stroke-width:1.5;"/>
   </g>
   <g id="line2d_36">
    <path clip-path="url(#p957f4a365d)" d="M 111.59 442.021562 
L 139.49 442.013417 
L 167.39 441.983546 
L 195.29 441.89773 
L 223.19 441.663432 
L 251.09 441.170685 
L 278.99 440.062677 
L 306.89 437.647757 
L 334.79 432.948548 
L 362.69 425.628675 
L 390.59 415.673089 
L 418.49 401.882546 
L 446.39 385.556971 
L 474.29 367.873429 
L 502.19 349.537942 
" style="fill:none;stroke:#4a98c9;stroke-linecap:square;stroke-width:1.5;"/>
   </g>
   <g id="line2d_37">
    <path clip-path="url(#p957f4a365d)" d="M 111.59 442.021562 
L 139.49 442.013839 
L 167.39 441.984124 
L 195.29 441.892282 
L 223.19 441.643657 
L 251.09 441.128595 
L 278.99 439.970879 
L 306.89 437.454963 
L 334.79 432.709863 
L 362.69 425.414065 
L 390.59 415.394438 
L 418.49 401.147881 
L 446.39 384.06676 
L 474.29 365.787503 
L 502.19 345.893178 
" style="fill:none;stroke:#4a98c9;stroke-linecap:square;stroke-width:1.5;"/>
   </g>
   <g id="line2d_38">
    <path clip-path="url(#p957f4a365d)" d="M 111.59 442.021562 
L 139.49 442.021562 
L 167.39 442.019399 
L 195.29 442.009397 
L 223.19 441.969408 
L 251.09 441.858673 
L 278.99 441.611815 
L 306.89 441.114576 
L 334.79 440.149902 
L 362.69 438.246614 
L 390.59 435.390539 
L 418.49 432.483262 
L 446.39 429.472916 
L 474.29 426.349867 
L 502.19 422.957401 
" style="fill:none;stroke:#d0e1f2;stroke-linecap:square;stroke-width:1.5;"/>
   </g>
   <g id="line2d_39">
    <path clip-path="url(#p957f4a365d)" d="M 111.59 442.021562 
L 139.49 442.020733 
L 167.39 442.017475 
L 195.29 442.007994 
L 223.19 441.976091 
L 251.09 441.886158 
L 278.99 441.673997 
L 306.89 441.248052 
L 334.79 440.445879 
L 362.69 439.099359 
L 390.59 437.408666 
L 418.49 435.338854 
L 446.39 433.044458 
L 474.29 430.459082 
L 502.19 427.547182 
" style="fill:none;stroke:#d0e1f2;stroke-linecap:square;stroke-width:1.5;"/>
   </g>
   <g id="line2d_40">
    <path clip-path="url(#p957f4a365d)" d="M 111.59 442.021562 
L 139.49 442.020815 
L 167.39 442.017166 
L 195.29 442.002741 
L 223.19 441.952461 
L 251.09 441.828211 
L 278.99 441.563434 
L 306.89 441.028586 
L 334.79 439.996334 
L 362.69 438.19801 
L 390.59 435.835056 
L 418.49 433.13124 
L 446.39 430.136257 
L 474.29 426.794785 
L 502.19 423.03622 
" style="fill:none;stroke:#d0e1f2;stroke-linecap:square;stroke-width:1.5;"/>
   </g>
   <g id="line2d_41">
    <path clip-path="url(#p957f4a365d)" d="M 111.59 442.021562 
L 139.49 442.021562 
L 167.39 442.020804 
L 195.29 442.017739 
L 223.19 442.002065 
L 251.09 441.947714 
L 278.99 441.78256 
L 306.89 441.442205 
L 334.79 440.818691 
L 362.69 439.736133 
L 390.59 438.244268 
L 418.49 436.429654 
L 446.39 434.293866 
L 474.29 431.854195 
L 502.19 429.115588 
" style="fill:none;stroke:#d0e1f2;stroke-linecap:square;stroke-width:1.5;"/>
   </g>
   <g id="line2d_42">
    <path clip-path="url(#p957f4a365d)" d="M 111.59 442.021562 
L 139.49 442.021562 
L 167.39 442.019639 
L 195.29 442.010748 
L 223.19 441.976804 
L 251.09 441.882282 
L 278.99 441.664776 
L 306.89 441.235385 
L 334.79 440.41843 
L 362.69 438.971406 
L 390.59 437.113093 
L 418.49 434.930353 
L 446.39 432.500394 
L 474.29 429.866426 
L 502.19 426.88828 
" style="fill:none;stroke:#d0e1f2;stroke-linecap:square;stroke-width:1.5;"/>
   </g>
   <g id="line2d_43">
    <path clip-path="url(#p957f4a365d)" d="M 111.59 442.021562 
L 139.49 442.019382 
L 167.39 442.012325 
L 195.29 441.992347 
L 223.19 441.930417 
L 251.09 441.791735 
L 278.99 441.495788 
L 306.89 440.904878 
L 334.79 439.884828 
L 362.69 438.381302 
L 390.59 436.592116 
L 418.49 434.583495 
L 446.39 432.302901 
L 474.29 429.786911 
L 502.19 427.001343 
" style="fill:none;stroke:#d0e1f2;stroke-linecap:square;stroke-width:1.5;"/>
   </g>
   <g id="line2d_44">
    <path clip-path="url(#p957f4a365d)" d="M 111.59 442.021562 
L 139.49 442.020788 
L 167.39 442.017219 
L 195.29 442.004446 
L 223.19 441.957189 
L 251.09 441.838767 
L 278.99 441.587379 
L 306.89 441.080174 
L 334.79 440.129504 
L 362.69 438.569529 
L 390.59 436.608686 
L 418.49 434.300045 
L 446.39 431.786709 
L 474.29 429.060155 
L 502.19 426.045934 
" style="fill:none;stroke:#d0e1f2;stroke-linecap:square;stroke-width:1.5;"/>
   </g>
   <g id="line2d_45">
    <path clip-path="url(#p957f4a365d)" d="M 111.59 442.021562 
L 139.49 442.019691 
L 167.39 442.01572 
L 195.29 442.003816 
L 223.19 441.968387 
L 251.09 441.88058 
L 278.99 441.674025 
L 306.89 441.247256 
L 334.79 440.496891 
L 362.69 439.285024 
L 390.59 437.760556 
L 418.49 435.943544 
L 446.39 433.781931 
L 474.29 431.308143 
L 502.19 428.582125 
" style="fill:none;stroke:#d0e1f2;stroke-linecap:square;stroke-width:1.5;"/>
   </g>
   <g id="line2d_46">
    <path clip-path="url(#p957f4a365d)" d="M 111.59 442.021562 
L 139.49 442.018576 
L 167.39 442.010309 
L 195.29 441.982527 
L 223.19 441.901154 
L 251.09 441.730285 
L 278.99 441.374148 
L 306.89 440.645715 
L 334.79 439.297256 
L 362.69 437.144572 
L 390.59 434.739635 
L 418.49 432.033627 
L 446.39 429.101852 
L 474.29 426.023011 
L 502.19 422.76866 
" style="fill:none;stroke:#d0e1f2;stroke-linecap:square;stroke-width:1.5;"/>
   </g>
   <g id="line2d_47">
    <path clip-path="url(#p957f4a365d)" d="M 111.59 442.021562 
L 139.49 442.021562 
L 167.39 442.020987 
L 195.29 442.018992 
L 223.19 442.009097 
L 251.09 441.977385 
L 278.99 441.859682 
L 306.89 441.571036 
L 334.79 441.031217 
L 362.69 440.024445 
L 390.59 438.583262 
L 418.49 436.869489 
L 446.39 434.777246 
L 474.29 432.434931 
L 502.19 429.779643 
" style="fill:none;stroke:#d0e1f2;stroke-linecap:square;stroke-width:1.5;"/>
   </g>
   <g id="line2d_48">
    <path clip-path="url(#p957f4a365d)" d="M 111.59 442.021562 
L 139.49 441.976836 
L 167.39 441.841951 
L 195.29 441.525469 
L 223.19 440.772065 
L 251.09 439.149323 
L 278.99 435.57121 
L 306.89 427.991985 
L 334.79 414.655121 
L 362.69 395.153442 
L 390.59 366.360922 
L 418.49 330.687913 
L 446.39 294.151475 
L 474.29 257.483241 
L 502.19 221.146944 
" style="fill:none;stroke:#1764ab;stroke-linecap:square;stroke-width:1.5;"/>
   </g>
   <g id="line2d_49">
    <path clip-path="url(#p957f4a365d)" d="M 111.59 442.021562 
L 139.49 441.969742 
L 167.39 441.829976 
L 195.29 441.489788 
L 223.19 440.72597 
L 251.09 439.039642 
L 278.99 435.333325 
L 306.89 427.336363 
L 334.79 412.879552 
L 362.69 392.306314 
L 390.59 362.257522 
L 418.49 324.258124 
L 446.39 285.452545 
L 474.29 246.597697 
L 502.19 207.719657 
" style="fill:none;stroke:#1764ab;stroke-linecap:square;stroke-width:1.5;"/>
   </g>
   <g id="line2d_50">
    <path clip-path="url(#p957f4a365d)" d="M 111.59 442.021562 
L 139.49 441.9737 
L 167.39 441.833679 
L 195.29 441.510864 
L 223.19 440.743173 
L 251.09 439.107816 
L 278.99 435.472332 
L 306.89 427.669634 
L 334.79 413.581838 
L 362.69 393.82093 
L 390.59 364.460968 
L 418.49 327.756383 
L 446.39 290.431348 
L 474.29 253.348892 
L 502.19 216.272932 
" style="fill:none;stroke:#1764ab;stroke-linecap:square;stroke-width:1.5;"/>
   </g>
   <g id="line2d_51">
    <path clip-path="url(#p957f4a365d)" d="M 111.59 442.021562 
L 139.49 441.981057 
L 167.39 441.848659 
L 195.29 441.526737 
L 223.19 440.767061 
L 251.09 439.141578 
L 278.99 435.577042 
L 306.89 427.957832 
L 334.79 414.509616 
L 362.69 395.937443 
L 390.59 368.061749 
L 418.49 332.876973 
L 446.39 297.203498 
L 474.29 261.536252 
L 502.19 225.997199 
" style="fill:none;stroke:#1764ab;stroke-linecap:square;stroke-width:1.5;"/>
   </g>
   <g id="line2d_52">
    <path clip-path="url(#p957f4a365d)" d="M 111.59 442.021562 
L 139.49 441.97171 
L 167.39 441.830729 
L 195.29 441.492417 
L 223.19 440.711314 
L 251.09 439.032189 
L 278.99 435.31457 
L 306.89 427.349714 
L 334.79 412.9026 
L 362.69 393.070447 
L 390.59 363.120921 
L 418.49 324.929049 
L 446.39 286.266508 
L 474.29 247.48014 
L 502.19 208.767667 
" style="fill:none;stroke:#1764ab;stroke-linecap:square;stroke-width:1.5;"/>
   </g>
   <g id="line2d_53">
    <path clip-path="url(#p957f4a365d)" d="M 111.59 442.021562 
L 139.49 441.972034 
L 167.39 441.835857 
L 195.29 441.507425 
L 223.19 440.732586 
L 251.09 439.08257 
L 278.99 435.425061 
L 306.89 427.567923 
L 334.79 413.54353 
L 362.69 393.830412 
L 390.59 364.815559 
L 418.49 328.747815 
L 446.39 291.567606 
L 474.29 254.381647 
L 502.19 217.09712 
" style="fill:none;stroke:#1764ab;stroke-linecap:square;stroke-width:1.5;"/>
   </g>
   <g id="line2d_54">
    <path clip-path="url(#p957f4a365d)" d="M 111.59 442.021562 
L 139.49 441.97375 
L 167.39 441.83284 
L 195.29 441.510456 
L 223.19 440.750384 
L 251.09 439.117179 
L 278.99 435.494082 
L 306.89 427.819106 
L 334.79 414.287072 
L 362.69 395.839254 
L 390.59 367.475117 
L 418.49 332.505517 
L 446.39 297.189171 
L 474.29 261.716191 
L 502.19 226.239748 
" style="fill:none;stroke:#1764ab;stroke-linecap:square;stroke-width:1.5;"/>
   </g>
   <g id="line2d_55">
    <path clip-path="url(#p957f4a365d)" d="M 111.59 442.021562 
L 139.49 441.970712 
L 167.39 441.834754 
L 195.29 441.503803 
L 223.19 440.726733 
L 251.09 439.081076 
L 278.99 435.459753 
L 306.89 427.706267 
L 334.79 413.603072 
L 362.69 392.891034 
L 390.59 362.785564 
L 418.49 325.772391 
L 446.39 288.545823 
L 474.29 251.153971 
L 502.19 213.86481 
" style="fill:none;stroke:#1764ab;stroke-linecap:square;stroke-width:1.5;"/>
   </g>
   <g id="line2d_56">
    <path clip-path="url(#p957f4a365d)" d="M 111.59 442.021562 
L 139.49 441.978253 
L 167.39 441.844719 
L 195.29 441.514013 
L 223.19 440.731937 
L 251.09 439.057693 
L 278.99 435.407516 
L 306.89 427.643001 
L 334.79 414.054887 
L 362.69 394.485528 
L 390.59 364.620432 
L 418.49 326.164172 
L 446.39 286.975646 
L 474.29 247.62677 
L 502.19 208.649407 
" style="fill:none;stroke:#1764ab;stroke-linecap:square;stroke-width:1.5;"/>
   </g>
   <g id="line2d_57">
    <path clip-path="url(#p957f4a365d)" d="M 111.59 442.021562 
L 139.49 441.965548 
L 167.39 441.815681 
L 195.29 441.453288 
L 223.19 440.629962 
L 251.09 438.854126 
L 278.99 434.98669 
L 306.89 426.805095 
L 334.79 412.570038 
L 362.69 392.436566 
L 390.59 362.606865 
L 418.49 325.796941 
L 446.39 288.475718 
L 474.29 251.241048 
L 502.19 214.23739 
" style="fill:none;stroke:#1764ab;stroke-linecap:square;stroke-width:1.5;"/>
   </g>
   <g id="line2d_58">
    <path clip-path="url(#p957f4a365d)" d="M 111.59 442.021562 
L 139.49 442.01462 
L 167.39 441.993602 
L 195.29 441.928686 
L 223.19 441.750206 
L 251.09 441.380752 
L 278.99 440.576585 
L 306.89 438.831914 
L 334.79 435.500822 
L 362.69 430.112313 
L 390.59 422.979842 
L 418.49 413.987379 
L 446.39 403.210355 
L 474.29 391.54925 
L 502.19 378.737357 
" style="fill:none;stroke:#94c4df;stroke-linecap:square;stroke-width:1.5;"/>
   </g>
   <g id="line2d_59">
    <path clip-path="url(#p957f4a365d)" d="M 111.59 442.021562 
L 139.49 442.014715 
L 167.39 441.988782 
L 195.29 441.912817 
L 223.19 441.726994 
L 251.09 441.339156 
L 278.99 440.494047 
L 306.89 438.65493 
L 334.79 435.11869 
L 362.69 429.844317 
L 390.59 423.210654 
L 418.49 414.784138 
L 446.39 404.608426 
L 474.29 393.157684 
L 502.19 380.82937 
" style="fill:none;stroke:#94c4df;stroke-linecap:square;stroke-width:1.5;"/>
   </g>
   <g id="line2d_60">
    <path clip-path="url(#p957f4a365d)" d="M 111.59 442.021562 
L 139.49 442.017734 
L 167.39 442.002582 
L 195.29 441.945865 
L 223.19 441.79221 
L 251.09 441.463343 
L 278.99 440.758669 
L 306.89 439.226913 
L 334.79 436.057688 
L 362.69 431.033499 
L 390.59 424.819894 
L 418.49 416.883666 
L 446.39 407.027564 
L 474.29 396.112783 
L 502.19 384.332144 
" style="fill:none;stroke:#94c4df;stroke-linecap:square;stroke-width:1.5;"/>
   </g>
   <g id="line2d_61">
    <path clip-path="url(#p957f4a365d)" d="M 111.59 442.021562 
L 139.49 442.017666 
L 167.39 442.003386 
L 195.29 441.952189 
L 223.19 441.812206 
L 251.09 441.525684 
L 278.99 440.900102 
L 306.89 439.556303 
L 334.79 436.953192 
L 362.69 432.654321 
L 390.59 427.197573 
L 418.49 420.051249 
L 446.39 411.045007 
L 474.29 401.117767 
L 502.19 390.262595 
" style="fill:none;stroke:#94c4df;stroke-linecap:square;stroke-width:1.5;"/>
   </g>
   <g id="line2d_62">
    <path clip-path="url(#p957f4a365d)" d="M 111.59 442.021562 
L 139.49 442.014977 
L 167.39 441.99285 
L 195.29 441.928448 
L 223.19 441.758386 
L 251.09 441.408703 
L 278.99 440.640095 
L 306.89 438.947946 
L 334.79 435.687551 
L 362.69 430.654248 
L 390.59 424.188869 
L 418.49 415.940293 
L 446.39 406.154785 
L 474.29 394.951181 
L 502.19 382.740866 
" style="fill:none;stroke:#94c4df;stroke-linecap:square;stroke-width:1.5;"/>
   </g>
   <g id="line2d_63">
    <path clip-path="url(#p957f4a365d)" d="M 111.59 442.021562 
L 139.49 442.014923 
L 167.39 441.991708 
L 195.29 441.921707 
L 223.19 441.734604 
L 251.09 441.345524 
L 278.99 440.497478 
L 306.89 438.673892 
L 334.79 435.245246 
L 362.69 430.109561 
L 390.59 423.280617 
L 418.49 414.257388 
L 446.39 403.669834 
L 474.29 391.843744 
L 502.19 379.284291 
" style="fill:none;stroke:#94c4df;stroke-linecap:square;stroke-width:1.5;"/>
   </g>
   <g id="line2d_64">
    <path clip-path="url(#p957f4a365d)" d="M 111.59 442.021562 
L 139.49 442.015671 
L 167.39 441.997399 
L 195.29 441.942026 
L 223.19 441.798462 
L 251.09 441.497798 
L 278.99 440.823043 
L 306.89 439.380018 
L 334.79 436.726736 
L 362.69 432.536605 
L 390.59 427.036683 
L 418.49 420.321521 
L 446.39 411.709947 
L 474.29 401.90088 
L 502.19 391.206846 
" style="fill:none;stroke:#94c4df;stroke-linecap:square;stroke-width:1.5;"/>
   </g>
   <g id="line2d_65">
    <path clip-path="url(#p957f4a365d)" d="M 111.59 442.021562 
L 139.49 442.015695 
L 167.39 441.994889 
L 195.29 441.934571 
L 223.19 441.772702 
L 251.09 441.435434 
L 278.99 440.705934 
L 306.89 439.121913 
L 334.79 436.032607 
L 362.69 431.249426 
L 390.59 424.905767 
L 418.49 416.782075 
L 446.39 407.006424 
L 474.29 396.227189 
L 502.19 384.606088 
" style="fill:none;stroke:#94c4df;stroke-linecap:square;stroke-width:1.5;"/>
   </g>
   <g id="line2d_66">
    <path clip-path="url(#p957f4a365d)" d="M 111.59 442.021562 
L 139.49 442.015276 
L 167.39 441.994947 
L 195.29 441.930925 
L 223.19 441.767499 
L 251.09 441.417372 
L 278.99 440.651102 
L 306.89 439.033449 
L 334.79 435.998183 
L 362.69 431.46422 
L 390.59 425.380655 
L 418.49 417.096892 
L 446.39 407.234313 
L 474.29 396.164088 
L 502.19 384.031468 
" style="fill:none;stroke:#94c4df;stroke-linecap:square;stroke-width:1.5;"/>
   </g>
   <g id="line2d_67">
    <path clip-path="url(#p957f4a365d)" d="M 111.59 442.021562 
L 139.49 442.015696 
L 167.39 441.995744 
L 195.29 441.934551 
L 223.19 441.78427 
L 251.09 441.462413 
L 278.99 440.764322 
L 306.89 439.230351 
L 334.79 436.24444 
L 362.69 431.722156 
L 390.59 426.125431 
L 418.49 418.794377 
L 446.39 409.867326 
L 474.29 399.850689 
L 502.19 389.048372 
" style="fill:none;stroke:#94c4df;stroke-linecap:square;stroke-width:1.5;"/>
   </g>
   <g id="line2d_68">
    <path clip-path="url(#p957f4a365d)" d="M 111.59 442.021562 
L 139.49 442.021562 
L 167.39 442.021562 
L 195.29 442.021562 
L 223.19 442.021562 
L 251.09 442.021562 
L 278.99 442.021562 
L 306.89 442.021562 
L 334.79 442.021562 
L 362.69 442.021562 
L 390.59 442.021562 
L 418.49 442.021562 
L 446.39 442.021562 
L 474.29 442.021562 
L 502.19 442.021562 
" style="fill:none;stroke:#000000;stroke-linecap:square;stroke-width:1.5;"/>
   </g>
   <g id="line2d_69">
    <path clip-path="url(#p957f4a365d)" d="M 111.59 442.021562 
L 139.49 442.021562 
L 167.39 442.021562 
L 195.29 442.021562 
L 223.19 442.021562 
L 251.09 442.021562 
L 278.99 442.021562 
L 306.89 442.021562 
L 334.79 442.021562 
L 362.69 442.021562 
L 390.59 442.021562 
L 418.49 442.021562 
L 446.39 442.021562 
L 474.29 442.021562 
L 502.19 442.021562 
" style="fill:none;stroke:#000000;stroke-linecap:square;stroke-width:1.5;"/>
   </g>
   <g id="line2d_70">
    <path clip-path="url(#p957f4a365d)" d="M 111.59 442.021562 
L 139.49 442.021562 
L 167.39 442.021562 
L 195.29 442.021562 
L 223.19 442.021562 
L 251.09 442.021562 
L 278.99 442.021562 
L 306.89 442.021562 
L 334.79 442.021562 
L 362.69 442.021562 
L 390.59 442.021562 
L 418.49 442.021562 
L 446.39 442.021562 
L 474.29 442.021562 
L 502.19 442.021562 
" style="fill:none;stroke:#000000;stroke-linecap:square;stroke-width:1.5;"/>
   </g>
   <g id="line2d_71">
    <path clip-path="url(#p957f4a365d)" d="M 111.59 442.021562 
L 139.49 442.021562 
L 167.39 442.021562 
L 195.29 442.021562 
L 223.19 442.021562 
L 251.09 442.021562 
L 278.99 442.021562 
L 306.89 442.021562 
L 334.79 442.021562 
L 362.69 442.021562 
L 390.59 442.021562 
L 418.49 442.021562 
L 446.39 442.021562 
L 474.29 442.021562 
L 502.19 442.021562 
" style="fill:none;stroke:#000000;stroke-linecap:square;stroke-width:1.5;"/>
   </g>
   <g id="line2d_72">
    <path clip-path="url(#p957f4a365d)" d="M 111.59 442.021562 
L 139.49 442.021562 
L 167.39 442.021562 
L 195.29 442.021562 
L 223.19 442.021562 
L 251.09 442.021562 
L 278.99 442.021562 
L 306.89 442.021562 
L 334.79 442.021562 
L 362.69 442.021562 
L 390.59 442.021562 
L 418.49 442.021562 
L 446.39 442.021562 
L 474.29 442.021562 
L 502.19 442.021562 
" style="fill:none;stroke:#000000;stroke-linecap:square;stroke-width:1.5;"/>
   </g>
   <g id="line2d_73">
    <path clip-path="url(#p957f4a365d)" d="M 111.59 442.021562 
L 139.49 442.021562 
L 167.39 442.021562 
L 195.29 442.021562 
L 223.19 442.021562 
L 251.09 442.021562 
L 278.99 442.021562 
L 306.89 442.021562 
L 334.79 442.021562 
L 362.69 442.021562 
L 390.59 442.021562 
L 418.49 442.021562 
L 446.39 442.021562 
L 474.29 442.021562 
L 502.19 442.021562 
" style="fill:none;stroke:#000000;stroke-linecap:square;stroke-width:1.5;"/>
   </g>
   <g id="line2d_74">
    <path clip-path="url(#p957f4a365d)" d="M 111.59 442.021562 
L 139.49 442.021562 
L 167.39 442.021562 
L 195.29 442.021562 
L 223.19 442.021562 
L 251.09 442.021562 
L 278.99 442.021562 
L 306.89 442.021562 
L 334.79 442.021562 
L 362.69 442.021562 
L 390.59 442.021562 
L 418.49 442.021562 
L 446.39 442.021562 
L 474.29 442.021562 
L 502.19 442.021562 
" style="fill:none;stroke:#000000;stroke-linecap:square;stroke-width:1.5;"/>
   </g>
   <g id="line2d_75">
    <path clip-path="url(#p957f4a365d)" d="M 111.59 442.021562 
L 139.49 442.021562 
L 167.39 442.021562 
L 195.29 442.021562 
L 223.19 442.021562 
L 251.09 442.021562 
L 278.99 442.021562 
L 306.89 442.021562 
L 334.79 442.021562 
L 362.69 442.021562 
L 390.59 442.021562 
L 418.49 442.021562 
L 446.39 442.021562 
L 474.29 442.021562 
L 502.19 442.021562 
" style="fill:none;stroke:#000000;stroke-linecap:square;stroke-width:1.5;"/>
   </g>
   <g id="line2d_76">
    <path clip-path="url(#p957f4a365d)" d="M 111.59 442.021562 
L 139.49 442.021562 
L 167.39 442.021562 
L 195.29 442.021562 
L 223.19 442.021562 
L 251.09 442.021562 
L 278.99 442.021562 
L 306.89 442.021562 
L 334.79 442.021562 
L 362.69 442.021562 
L 390.59 442.021562 
L 418.49 442.021562 
L 446.39 442.021562 
L 474.29 442.021562 
L 502.19 442.021562 
" style="fill:none;stroke:#000000;stroke-linecap:square;stroke-width:1.5;"/>
   </g>
   <g id="line2d_77">
    <path clip-path="url(#p957f4a365d)" d="M 111.59 442.021562 
L 139.49 442.021562 
L 167.39 442.021562 
L 195.29 442.021562 
L 223.19 442.021562 
L 251.09 442.021562 
L 278.99 442.021562 
L 306.89 442.021562 
L 334.79 442.021562 
L 362.69 442.021562 
L 390.59 442.021562 
L 418.49 442.021562 
L 446.39 442.021562 
L 474.29 442.021562 
L 502.19 442.021562 
" style="fill:none;stroke:#000000;stroke-linecap:square;stroke-width:1.5;"/>
   </g>
   <g id="line2d_78">
    <path clip-path="url(#p957f4a365d)" d="M 111.59 442.021562 
" style="fill:none;stroke:#000000;stroke-linecap:square;stroke-width:1.5;"/>
   </g>
   <g id="line2d_79">
    <path clip-path="url(#p957f4a365d)" d="M 111.59 442.021562 
" style="fill:none;stroke:#d0e1f2;stroke-linecap:square;stroke-width:1.5;"/>
   </g>
   <g id="line2d_80">
    <path clip-path="url(#p957f4a365d)" d="M 111.59 442.021562 
" style="fill:none;stroke:#94c4df;stroke-linecap:square;stroke-width:1.5;"/>
   </g>
   <g id="line2d_81">
    <path clip-path="url(#p957f4a365d)" d="M 111.59 442.021562 
" style="fill:none;stroke:#4a98c9;stroke-linecap:square;stroke-width:1.5;"/>
   </g>
   <g id="line2d_82">
    <path clip-path="url(#p957f4a365d)" d="M 111.59 442.021562 
" style="fill:none;stroke:#1764ab;stroke-linecap:square;stroke-width:1.5;"/>
   </g>
   <g id="line2d_83">
    <path clip-path="url(#p957f4a365d)" d="M 111.59 442.021562 
" style="fill:none;stroke:#08306b;stroke-linecap:square;stroke-width:1.5;"/>
   </g>
   <g id="line2d_84">
    <path clip-path="url(#p957f4a365d)" d="M 111.59 442.021562 
" style="fill:none;stroke:#000000;stroke-linecap:square;stroke-width:1.5;"/>
   </g>
   <g id="line2d_85">
    <path clip-path="url(#p957f4a365d)" d="M 111.59 442.021562 
" style="fill:none;stroke:#000000;stroke-dasharray:1.5,2.475;stroke-dashoffset:0;stroke-width:1.5;"/>
   </g>
   <g id="line2d_86">
    <path clip-path="url(#p957f4a365d)" d="M 111.59 442.021562 
" style="fill:none;stroke:#000000;stroke-linecap:square;stroke-width:1.5;"/>
   </g>
   <g id="line2d_87">
    <path clip-path="url(#p957f4a365d)" d="M 111.59 442.021562 
" style="fill:none;stroke:#000000;stroke-dasharray:5.55,2.4;stroke-dashoffset:0;stroke-width:1.5;"/>
   </g>
   <g id="line2d_88">
    <path clip-path="url(#p957f4a365d)" d="M 111.59 442.021562 
" style="fill:none;stroke:#000000;stroke-dasharray:9.6,2.4,1.5,2.4;stroke-dashoffset:0;stroke-width:1.5;"/>
   </g>
   <g id="line2d_89">
    <path clip-path="url(#p957f4a365d)" d="M 111.59 442.021562 
" style="fill:none;stroke:#000000;stroke-dasharray:9.6,2.4,1.5,2.4;stroke-dashoffset:0;stroke-width:1.5;"/>
   </g>
   <g id="patch_3">
    <path d="M 111.59 442.021562 
L 111.59 61.501562 
" style="fill:none;stroke:#000000;stroke-linecap:square;stroke-linejoin:miter;stroke-width:0.8;"/>
   </g>
   <g id="patch_4">
    <path d="M 502.19 442.021562 
L 502.19 61.501562 
" style="fill:none;stroke:#000000;stroke-linecap:square;stroke-linejoin:miter;stroke-width:0.8;"/>
   </g>
   <g id="patch_5">
    <path d="M 111.59 442.021562 
L 502.19 442.021562 
" style="fill:none;stroke:#000000;stroke-linecap:square;stroke-linejoin:miter;stroke-width:0.8;"/>
   </g>
   <g id="patch_6">
    <path d="M 111.59 61.501562 
L 502.19 61.501562 
" style="fill:none;stroke:#000000;stroke-linecap:square;stroke-linejoin:miter;stroke-width:0.8;"/>
   </g>
   <g id="text_21">
    <!-- IL-2 CONCENTRATION -->
    <g transform="translate(171.493516 25.094531)scale(0.25 -0.25)">
     <use xlink:href="#Arial-BoldMT-73"/>
     <use x="27.783203" xlink:href="#Arial-BoldMT-76"/>
     <use x="88.867188" xlink:href="#Arial-BoldMT-45"/>
     <use x="122.167969" xlink:href="#Arial-BoldMT-50"/>
     <use x="177.783203" xlink:href="#Arial-BoldMT-32"/>
     <use x="205.566406" xlink:href="#Arial-BoldMT-67"/>
     <use x="277.783203" xlink:href="#Arial-BoldMT-79"/>
     <use x="355.566406" xlink:href="#Arial-BoldMT-78"/>
     <use x="427.783203" xlink:href="#Arial-BoldMT-67"/>
     <use x="500" xlink:href="#Arial-BoldMT-69"/>
     <use x="566.699219" xlink:href="#Arial-BoldMT-78"/>
     <use x="638.916016" xlink:href="#Arial-BoldMT-84"/>
     <use x="700" xlink:href="#Arial-BoldMT-82"/>
     <use x="772.216797" xlink:href="#Arial-BoldMT-65"/>
     <use x="844.324219" xlink:href="#Arial-BoldMT-84"/>
     <use x="905.408203" xlink:href="#Arial-BoldMT-73"/>
     <use x="933.191406" xlink:href="#Arial-BoldMT-79"/>
     <use x="1010.974609" xlink:href="#Arial-BoldMT-78"/>
    </g>
    <!-- OVER TIME -->
    <defs>
     <path d="M 25.53125 0 
L -0.046875 71.578125 
L 15.625 71.578125 
L 33.734375 18.609375 
L 51.265625 71.578125 
L 66.609375 71.578125 
L 40.96875 0 
z
" id="Arial-BoldMT-86"/>
    </defs>
    <g transform="translate(238.134141 51.501562)scale(0.25 -0.25)">
     <use xlink:href="#Arial-BoldMT-79"/>
     <use x="77.783203" xlink:href="#Arial-BoldMT-86"/>
     <use x="144.482422" xlink:href="#Arial-BoldMT-69"/>
     <use x="211.181641" xlink:href="#Arial-BoldMT-82"/>
     <use x="283.398438" xlink:href="#Arial-BoldMT-32"/>
     <use x="311.181641" xlink:href="#Arial-BoldMT-84"/>
     <use x="372.265625" xlink:href="#Arial-BoldMT-73"/>
     <use x="400.048828" xlink:href="#Arial-BoldMT-77"/>
     <use x="483.349609" xlink:href="#Arial-BoldMT-69"/>
    </g>
   </g>
   <g id="legend_1">
    <g id="line2d_90">
     <path d="M 511.19 74.6 
L 531.19 74.6 
" style="fill:none;stroke:#000000;stroke-linecap:square;stroke-width:1.5;"/>
    </g>
    <g id="line2d_91"/>
    <g id="text_22">
     <!-- 0 -->
     <g transform="translate(539.19 78.1)scale(0.1 -0.1)">
      <use xlink:href="#DejaVuSans-48"/>
     </g>
    </g>
    <g id="line2d_92">
     <path d="M 511.19 89.278125 
L 531.19 89.278125 
" style="fill:none;stroke:#d0e1f2;stroke-linecap:square;stroke-width:1.5;"/>
    </g>
    <g id="line2d_93"/>
    <g id="text_23">
     <!-- 100 -->
     <g transform="translate(539.19 92.778125)scale(0.1 -0.1)">
      <use xlink:href="#DejaVuSans-49"/>
      <use x="63.623047" xlink:href="#DejaVuSans-48"/>
      <use x="127.246094" xlink:href="#DejaVuSans-48"/>
     </g>
    </g>
    <g id="line2d_94">
     <path d="M 511.19 103.95625 
L 531.19 103.95625 
" style="fill:none;stroke:#94c4df;stroke-linecap:square;stroke-width:1.5;"/>
    </g>
    <g id="line2d_95"/>
    <g id="text_24">
     <!-- 500 -->
     <g transform="translate(539.19 107.45625)scale(0.1 -0.1)">
      <use xlink:href="#DejaVuSans-53"/>
      <use x="63.623047" xlink:href="#DejaVuSans-48"/>
      <use x="127.246094" xlink:href="#DejaVuSans-48"/>
     </g>
    </g>
    <g id="line2d_96">
     <path d="M 511.19 118.634375 
L 531.19 118.634375 
" style="fill:none;stroke:#4a98c9;stroke-linecap:square;stroke-width:1.5;"/>
    </g>
    <g id="line2d_97"/>
    <g id="text_25">
     <!-- 1000 -->
     <g transform="translate(539.19 122.134375)scale(0.1 -0.1)">
      <use xlink:href="#DejaVuSans-49"/>
      <use x="63.623047" xlink:href="#DejaVuSans-48"/>
      <use x="127.246094" xlink:href="#DejaVuSans-48"/>
      <use x="190.869141" xlink:href="#DejaVuSans-48"/>
     </g>
    </g>
    <g id="line2d_98">
     <path d="M 511.19 133.3125 
L 531.19 133.3125 
" style="fill:none;stroke:#1764ab;stroke-linecap:square;stroke-width:1.5;"/>
    </g>
    <g id="line2d_99"/>
    <g id="text_26">
     <!-- 5000 -->
     <g transform="translate(539.19 136.8125)scale(0.1 -0.1)">
      <use xlink:href="#DejaVuSans-53"/>
      <use x="63.623047" xlink:href="#DejaVuSans-48"/>
      <use x="127.246094" xlink:href="#DejaVuSans-48"/>
      <use x="190.869141" xlink:href="#DejaVuSans-48"/>
     </g>
    </g>
    <g id="line2d_100">
     <path d="M 511.19 147.990625 
L 531.19 147.990625 
" style="fill:none;stroke:#08306b;stroke-linecap:square;stroke-width:1.5;"/>
    </g>
    <g id="line2d_101"/>
    <g id="text_27">
     <!-- 10000 -->
     <g transform="translate(539.19 151.490625)scale(0.1 -0.1)">
      <use xlink:href="#DejaVuSans-49"/>
      <use x="63.623047" xlink:href="#DejaVuSans-48"/>
      <use x="127.246094" xlink:href="#DejaVuSans-48"/>
      <use x="190.869141" xlink:href="#DejaVuSans-48"/>
      <use x="254.492188" xlink:href="#DejaVuSans-48"/>
     </g>
    </g>
    <g id="line2d_102">
     <path d="M 511.19 162.66875 
L 531.19 162.66875 
" style="fill:none;stroke:#000000;stroke-linecap:square;stroke-width:1.5;"/>
    </g>
    <g id="line2d_103"/>
    <g id="text_28">
     <!-- 0 -->
     <g transform="translate(539.19 166.16875)scale(0.1 -0.1)">
      <use xlink:href="#DejaVuSans-48"/>
     </g>
    </g>
    <g id="line2d_104">
     <path d="M 511.19 177.346875 
L 531.19 177.346875 
" style="fill:none;stroke:#000000;stroke-dasharray:1.5,2.475;stroke-dashoffset:0;stroke-width:1.5;"/>
    </g>
    <g id="line2d_105"/>
    <g id="text_29">
     <!-- 250 -->
     <g transform="translate(539.19 180.846875)scale(0.1 -0.1)">
      <use xlink:href="#DejaVuSans-50"/>
      <use x="63.623047" xlink:href="#DejaVuSans-53"/>
      <use x="127.246094" xlink:href="#DejaVuSans-48"/>
     </g>
    </g>
    <g id="line2d_106">
     <path d="M 511.19 192.025 
L 531.19 192.025 
" style="fill:none;stroke:#000000;stroke-linecap:square;stroke-width:1.5;"/>
    </g>
    <g id="line2d_107"/>
    <g id="text_30">
     <!-- 500 -->
     <g transform="translate(539.19 195.525)scale(0.1 -0.1)">
      <use xlink:href="#DejaVuSans-53"/>
      <use x="63.623047" xlink:href="#DejaVuSans-48"/>
      <use x="127.246094" xlink:href="#DejaVuSans-48"/>
     </g>
    </g>
    <g id="line2d_108">
     <path d="M 511.19 206.703125 
L 531.19 206.703125 
" style="fill:none;stroke:#000000;stroke-dasharray:5.55,2.4;stroke-dashoffset:0;stroke-width:1.5;"/>
    </g>
    <g id="line2d_109"/>
    <g id="text_31">
     <!-- 1000 -->
     <g transform="translate(539.19 210.203125)scale(0.1 -0.1)">
      <use xlink:href="#DejaVuSans-49"/>
      <use x="63.623047" xlink:href="#DejaVuSans-48"/>
      <use x="127.246094" xlink:href="#DejaVuSans-48"/>
      <use x="190.869141" xlink:href="#DejaVuSans-48"/>
     </g>
    </g>
    <g id="line2d_110">
     <path d="M 511.19 221.38125 
L 531.19 221.38125 
" style="fill:none;stroke:#000000;stroke-dasharray:9.6,2.4,1.5,2.4;stroke-dashoffset:0;stroke-width:1.5;"/>
    </g>
    <g id="line2d_111"/>
    <g id="text_32">
     <!-- 5000 -->
     <g transform="translate(539.19 224.88125)scale(0.1 -0.1)">
      <use xlink:href="#DejaVuSans-53"/>
      <use x="63.623047" xlink:href="#DejaVuSans-48"/>
      <use x="127.246094" xlink:href="#DejaVuSans-48"/>
      <use x="190.869141" xlink:href="#DejaVuSans-48"/>
     </g>
    </g>
    <g id="line2d_112">
     <path d="M 511.19 236.059375 
L 531.19 236.059375 
" style="fill:none;stroke:#000000;stroke-dasharray:9.6,2.4,1.5,2.4;stroke-dashoffset:0;stroke-width:1.5;"/>
    </g>
    <g id="line2d_113"/>
    <g id="text_33">
     <!-- 10000 -->
     <g transform="translate(539.19 239.559375)scale(0.1 -0.1)">
      <use xlink:href="#DejaVuSans-49"/>
      <use x="63.623047" xlink:href="#DejaVuSans-48"/>
      <use x="127.246094" xlink:href="#DejaVuSans-48"/>
      <use x="190.869141" xlink:href="#DejaVuSans-48"/>
      <use x="254.492188" xlink:href="#DejaVuSans-48"/>
     </g>
    </g>
   </g>
  </g>
 </g>
 <defs>
  <clipPath id="p957f4a365d">
   <rect height="380.52" width="390.6" x="111.59" y="61.501562"/>
  </clipPath>
 </defs>
</svg>
