<?xml version="1.0" encoding="utf-8" standalone="no"?>
<!DOCTYPE svg PUBLIC "-//W3C//DTD SVG 1.1//EN"
  "http://www.w3.org/Graphics/SVG/1.1/DTD/svg11.dtd">
<!-- Created with matplotlib (https://matplotlib.org/) -->
<svg height="487.617656pt" version="1.1" viewBox="0 0 598.823437 487.617656" width="598.823437pt" xmlns="http://www.w3.org/2000/svg" xmlns:xlink="http://www.w3.org/1999/xlink">
 <defs>
  <style type="text/css">
*{stroke-linecap:butt;stroke-linejoin:round;}
  </style>
 </defs>
 <g id="figure_1">
  <g id="patch_1">
   <path d="M 0 487.617656 
L 598.823437 487.617656 
L 598.823437 0 
L 0 0 
z
" style="fill:#ffffff;"/>
  </g>
  <g id="axes_1">
   <g id="patch_2">
    <path d="M 119.31875 415.614531 
L 509.91875 415.614531 
L 509.91875 35.094531 
L 119.31875 35.094531 
z
" style="fill:#ffffff;"/>
   </g>
   <g id="matplotlib.axis_1">
    <g id="xtick_1">
     <g id="line2d_1">
      <defs>
       <path d="M 0 0 
L 0 3.5 
" id="me36c65f02e" style="stroke:#000000;stroke-width:0.8;"/>
      </defs>
      <g>
       <use style="stroke:#000000;stroke-width:0.8;" x="119.31875" xlink:href="#me36c65f02e" y="415.614531"/>
      </g>
     </g>
     <g id="text_1">
      <!-- 0 -->
      <defs>
       <path d="M 31.78125 66.40625 
Q 24.171875 66.40625 20.328125 58.90625 
Q 16.5 51.421875 16.5 36.375 
Q 16.5 21.390625 20.328125 13.890625 
Q 24.171875 6.390625 31.78125 6.390625 
Q 39.453125 6.390625 43.28125 13.890625 
Q 47.125 21.390625 47.125 36.375 
Q 47.125 51.421875 43.28125 58.90625 
Q 39.453125 66.40625 31.78125 66.40625 
z
M 31.78125 74.21875 
Q 44.046875 74.21875 50.515625 64.515625 
Q 56.984375 54.828125 56.984375 36.375 
Q 56.984375 17.96875 50.515625 8.265625 
Q 44.046875 -1.421875 31.78125 -1.421875 
Q 19.53125 -1.421875 13.0625 8.265625 
Q 6.59375 17.96875 6.59375 36.375 
Q 6.59375 54.828125 13.0625 64.515625 
Q 19.53125 74.21875 31.78125 74.21875 
z
" id="DejaVuSans-48"/>
      </defs>
      <g transform="translate(109.775 445.409844)scale(0.3 -0.3)">
       <use xlink:href="#DejaVuSans-48"/>
      </g>
     </g>
    </g>
    <g id="xtick_2">
     <g id="line2d_2">
      <g>
       <use style="stroke:#000000;stroke-width:0.8;" x="175.11875" xlink:href="#me36c65f02e" y="415.614531"/>
      </g>
     </g>
     <g id="text_2">
      <!-- 1 -->
      <defs>
       <path d="M 12.40625 8.296875 
L 28.515625 8.296875 
L 28.515625 63.921875 
L 10.984375 60.40625 
L 10.984375 69.390625 
L 28.421875 72.90625 
L 38.28125 72.90625 
L 38.28125 8.296875 
L 54.390625 8.296875 
L 54.390625 0 
L 12.40625 0 
z
" id="DejaVuSans-49"/>
      </defs>
      <g transform="translate(165.575 445.409844)scale(0.3 -0.3)">
       <use xlink:href="#DejaVuSans-49"/>
      </g>
     </g>
    </g>
    <g id="xtick_3">
     <g id="line2d_3">
      <g>
       <use style="stroke:#000000;stroke-width:0.8;" x="230.91875" xlink:href="#me36c65f02e" y="415.614531"/>
      </g>
     </g>
     <g id="text_3">
      <!-- 2 -->
      <defs>
       <path d="M 19.1875 8.296875 
L 53.609375 8.296875 
L 53.609375 0 
L 7.328125 0 
L 7.328125 8.296875 
Q 12.9375 14.109375 22.625 23.890625 
Q 32.328125 33.6875 34.8125 36.53125 
Q 39.546875 41.84375 41.421875 45.53125 
Q 43.3125 49.21875 43.3125 52.78125 
Q 43.3125 58.59375 39.234375 62.25 
Q 35.15625 65.921875 28.609375 65.921875 
Q 23.96875 65.921875 18.8125 64.3125 
Q 13.671875 62.703125 7.8125 59.421875 
L 7.8125 69.390625 
Q 13.765625 71.78125 18.9375 73 
Q 24.125 74.21875 28.421875 74.21875 
Q 39.75 74.21875 46.484375 68.546875 
Q 53.21875 62.890625 53.21875 53.421875 
Q 53.21875 48.921875 51.53125 44.890625 
Q 49.859375 40.875 45.40625 35.40625 
Q 44.1875 33.984375 37.640625 27.21875 
Q 31.109375 20.453125 19.1875 8.296875 
z
" id="DejaVuSans-50"/>
      </defs>
      <g transform="translate(221.375 445.409844)scale(0.3 -0.3)">
       <use xlink:href="#DejaVuSans-50"/>
      </g>
     </g>
    </g>
    <g id="xtick_4">
     <g id="line2d_4">
      <g>
       <use style="stroke:#000000;stroke-width:0.8;" x="286.71875" xlink:href="#me36c65f02e" y="415.614531"/>
      </g>
     </g>
     <g id="text_4">
      <!-- 3 -->
      <defs>
       <path d="M 40.578125 39.3125 
Q 47.65625 37.796875 51.625 33 
Q 55.609375 28.21875 55.609375 21.1875 
Q 55.609375 10.40625 48.1875 4.484375 
Q 40.765625 -1.421875 27.09375 -1.421875 
Q 22.515625 -1.421875 17.65625 -0.515625 
Q 12.796875 0.390625 7.625 2.203125 
L 7.625 11.71875 
Q 11.71875 9.328125 16.59375 8.109375 
Q 21.484375 6.890625 26.8125 6.890625 
Q 36.078125 6.890625 40.9375 10.546875 
Q 45.796875 14.203125 45.796875 21.1875 
Q 45.796875 27.640625 41.28125 31.265625 
Q 36.765625 34.90625 28.71875 34.90625 
L 20.21875 34.90625 
L 20.21875 43.015625 
L 29.109375 43.015625 
Q 36.375 43.015625 40.234375 45.921875 
Q 44.09375 48.828125 44.09375 54.296875 
Q 44.09375 59.90625 40.109375 62.90625 
Q 36.140625 65.921875 28.71875 65.921875 
Q 24.65625 65.921875 20.015625 65.03125 
Q 15.375 64.15625 9.8125 62.3125 
L 9.8125 71.09375 
Q 15.4375 72.65625 20.34375 73.4375 
Q 25.25 74.21875 29.59375 74.21875 
Q 40.828125 74.21875 47.359375 69.109375 
Q 53.90625 64.015625 53.90625 55.328125 
Q 53.90625 49.265625 50.4375 45.09375 
Q 46.96875 40.921875 40.578125 39.3125 
z
" id="DejaVuSans-51"/>
      </defs>
      <g transform="translate(277.175 445.409844)scale(0.3 -0.3)">
       <use xlink:href="#DejaVuSans-51"/>
      </g>
     </g>
    </g>
    <g id="xtick_5">
     <g id="line2d_5">
      <g>
       <use style="stroke:#000000;stroke-width:0.8;" x="342.51875" xlink:href="#me36c65f02e" y="415.614531"/>
      </g>
     </g>
     <g id="text_5">
      <!-- 4 -->
      <defs>
       <path d="M 37.796875 64.3125 
L 12.890625 25.390625 
L 37.796875 25.390625 
z
M 35.203125 72.90625 
L 47.609375 72.90625 
L 47.609375 25.390625 
L 58.015625 25.390625 
L 58.015625 17.1875 
L 47.609375 17.1875 
L 47.609375 0 
L 37.796875 0 
L 37.796875 17.1875 
L 4.890625 17.1875 
L 4.890625 26.703125 
z
" id="DejaVuSans-52"/>
      </defs>
      <g transform="translate(332.975 445.409844)scale(0.3 -0.3)">
       <use xlink:href="#DejaVuSans-52"/>
      </g>
     </g>
    </g>
    <g id="xtick_6">
     <g id="line2d_6">
      <g>
       <use style="stroke:#000000;stroke-width:0.8;" x="398.31875" xlink:href="#me36c65f02e" y="415.614531"/>
      </g>
     </g>
     <g id="text_6">
      <!-- 5 -->
      <defs>
       <path d="M 10.796875 72.90625 
L 49.515625 72.90625 
L 49.515625 64.59375 
L 19.828125 64.59375 
L 19.828125 46.734375 
Q 21.96875 47.46875 24.109375 47.828125 
Q 26.265625 48.1875 28.421875 48.1875 
Q 40.625 48.1875 47.75 41.5 
Q 54.890625 34.8125 54.890625 23.390625 
Q 54.890625 11.625 47.5625 5.09375 
Q 40.234375 -1.421875 26.90625 -1.421875 
Q 22.3125 -1.421875 17.546875 -0.640625 
Q 12.796875 0.140625 7.71875 1.703125 
L 7.71875 11.625 
Q 12.109375 9.234375 16.796875 8.0625 
Q 21.484375 6.890625 26.703125 6.890625 
Q 35.15625 6.890625 40.078125 11.328125 
Q 45.015625 15.765625 45.015625 23.390625 
Q 45.015625 31 40.078125 35.4375 
Q 35.15625 39.890625 26.703125 39.890625 
Q 22.75 39.890625 18.8125 39.015625 
Q 14.890625 38.140625 10.796875 36.28125 
z
" id="DejaVuSans-53"/>
      </defs>
      <g transform="translate(388.775 445.409844)scale(0.3 -0.3)">
       <use xlink:href="#DejaVuSans-53"/>
      </g>
     </g>
    </g>
    <g id="xtick_7">
     <g id="line2d_7">
      <g>
       <use style="stroke:#000000;stroke-width:0.8;" x="454.11875" xlink:href="#me36c65f02e" y="415.614531"/>
      </g>
     </g>
     <g id="text_7">
      <!-- 6 -->
      <defs>
       <path d="M 33.015625 40.375 
Q 26.375 40.375 22.484375 35.828125 
Q 18.609375 31.296875 18.609375 23.390625 
Q 18.609375 15.53125 22.484375 10.953125 
Q 26.375 6.390625 33.015625 6.390625 
Q 39.65625 6.390625 43.53125 10.953125 
Q 47.40625 15.53125 47.40625 23.390625 
Q 47.40625 31.296875 43.53125 35.828125 
Q 39.65625 40.375 33.015625 40.375 
z
M 52.59375 71.296875 
L 52.59375 62.3125 
Q 48.875 64.0625 45.09375 64.984375 
Q 41.3125 65.921875 37.59375 65.921875 
Q 27.828125 65.921875 22.671875 59.328125 
Q 17.53125 52.734375 16.796875 39.40625 
Q 19.671875 43.65625 24.015625 45.921875 
Q 28.375 48.1875 33.59375 48.1875 
Q 44.578125 48.1875 50.953125 41.515625 
Q 57.328125 34.859375 57.328125 23.390625 
Q 57.328125 12.15625 50.6875 5.359375 
Q 44.046875 -1.421875 33.015625 -1.421875 
Q 20.359375 -1.421875 13.671875 8.265625 
Q 6.984375 17.96875 6.984375 36.375 
Q 6.984375 53.65625 15.1875 63.9375 
Q 23.390625 74.21875 37.203125 74.21875 
Q 40.921875 74.21875 44.703125 73.484375 
Q 48.484375 72.75 52.59375 71.296875 
z
" id="DejaVuSans-54"/>
      </defs>
      <g transform="translate(444.575 445.409844)scale(0.3 -0.3)">
       <use xlink:href="#DejaVuSans-54"/>
      </g>
     </g>
    </g>
    <g id="xtick_8">
     <g id="line2d_8">
      <g>
       <use style="stroke:#000000;stroke-width:0.8;" x="509.91875" xlink:href="#me36c65f02e" y="415.614531"/>
      </g>
     </g>
     <g id="text_8">
      <!-- 7 -->
      <defs>
       <path d="M 8.203125 72.90625 
L 55.078125 72.90625 
L 55.078125 68.703125 
L 28.609375 0 
L 18.3125 0 
L 43.21875 64.59375 
L 8.203125 64.59375 
z
" id="DejaVuSans-55"/>
      </defs>
      <g transform="translate(500.375 445.409844)scale(0.3 -0.3)">
       <use xlink:href="#DejaVuSans-55"/>
      </g>
     </g>
    </g>
    <g id="text_9">
     <!-- TIME (DAYS) -->
     <defs>
      <path d="M 23.390625 0 
L 23.390625 59.46875 
L 2.15625 59.46875 
L 2.15625 71.578125 
L 59.03125 71.578125 
L 59.03125 59.46875 
L 37.84375 59.46875 
L 37.84375 0 
z
" id="Arial-BoldMT-84"/>
      <path d="M 6.84375 0 
L 6.84375 71.578125 
L 21.296875 71.578125 
L 21.296875 0 
z
" id="Arial-BoldMT-73"/>
      <path d="M 7.078125 0 
L 7.078125 71.578125 
L 28.71875 71.578125 
L 41.703125 22.75 
L 54.546875 71.578125 
L 76.21875 71.578125 
L 76.21875 0 
L 62.796875 0 
L 62.796875 56.34375 
L 48.578125 0 
L 34.671875 0 
L 20.515625 56.34375 
L 20.515625 0 
z
" id="Arial-BoldMT-77"/>
      <path d="M 7.28125 0 
L 7.28125 71.578125 
L 60.359375 71.578125 
L 60.359375 59.46875 
L 21.734375 59.46875 
L 21.734375 43.609375 
L 57.671875 43.609375 
L 57.671875 31.546875 
L 21.734375 31.546875 
L 21.734375 12.0625 
L 61.71875 12.0625 
L 61.71875 0 
z
" id="Arial-BoldMT-69"/>
      <path id="Arial-BoldMT-32"/>
      <path d="M 29.9375 -21.046875 
L 20.515625 -21.046875 
Q 13.03125 -9.765625 9.125 2.390625 
Q 5.21875 14.546875 5.21875 25.921875 
Q 5.21875 40.046875 10.0625 52.640625 
Q 14.265625 63.578125 20.703125 72.796875 
L 30.078125 72.796875 
Q 23.390625 58.015625 20.875 47.625 
Q 18.359375 37.25 18.359375 25.640625 
Q 18.359375 17.625 19.84375 9.21875 
Q 21.34375 0.828125 23.921875 -6.734375 
Q 25.640625 -11.71875 29.9375 -21.046875 
z
" id="Arial-BoldMT-40"/>
      <path d="M 7.234375 71.578125 
L 33.640625 71.578125 
Q 42.578125 71.578125 47.265625 70.21875 
Q 53.5625 68.359375 58.046875 63.625 
Q 62.546875 58.890625 64.890625 52.03125 
Q 67.234375 45.171875 67.234375 35.109375 
Q 67.234375 26.265625 65.046875 19.875 
Q 62.359375 12.0625 57.375 7.234375 
Q 53.609375 3.5625 47.21875 1.515625 
Q 42.4375 0 34.421875 0 
L 7.234375 0 
z
M 21.6875 59.46875 
L 21.6875 12.0625 
L 32.46875 12.0625 
Q 38.53125 12.0625 41.21875 12.75 
Q 44.734375 13.625 47.046875 15.71875 
Q 49.359375 17.828125 50.828125 22.625 
Q 52.296875 27.4375 52.296875 35.75 
Q 52.296875 44.046875 50.828125 48.484375 
Q 49.359375 52.9375 46.71875 55.421875 
Q 44.09375 57.90625 40.046875 58.796875 
Q 37.015625 59.46875 28.171875 59.46875 
z
" id="Arial-BoldMT-68"/>
      <path d="M 71.828125 0 
L 56.109375 0 
L 49.859375 16.265625 
L 21.234375 16.265625 
L 15.328125 0 
L 0 0 
L 27.875 71.578125 
L 43.171875 71.578125 
z
M 45.21875 28.328125 
L 35.359375 54.890625 
L 25.6875 28.328125 
z
" id="Arial-BoldMT-65"/>
      <path d="M 26.078125 0 
L 26.078125 30.125 
L -0.140625 71.578125 
L 16.796875 71.578125 
L 33.640625 43.265625 
L 50.140625 71.578125 
L 66.796875 71.578125 
L 40.484375 30.03125 
L 40.484375 0 
z
" id="Arial-BoldMT-89"/>
      <path d="M 3.609375 23.296875 
L 17.671875 24.65625 
Q 18.953125 17.578125 22.828125 14.25 
Q 26.703125 10.9375 33.296875 10.9375 
Q 40.28125 10.9375 43.8125 13.890625 
Q 47.359375 16.84375 47.359375 20.796875 
Q 47.359375 23.34375 45.875 25.125 
Q 44.390625 26.90625 40.671875 28.21875 
Q 38.140625 29.109375 29.109375 31.34375 
Q 17.484375 34.234375 12.796875 38.421875 
Q 6.203125 44.34375 6.203125 52.828125 
Q 6.203125 58.296875 9.296875 63.0625 
Q 12.40625 67.828125 18.234375 70.3125 
Q 24.078125 72.796875 32.328125 72.796875 
Q 45.796875 72.796875 52.609375 66.890625 
Q 59.421875 60.984375 59.765625 51.125 
L 45.3125 50.484375 
Q 44.390625 56 41.328125 58.421875 
Q 38.28125 60.84375 32.171875 60.84375 
Q 25.875 60.84375 22.3125 58.25 
Q 20.015625 56.59375 20.015625 53.8125 
Q 20.015625 51.265625 22.171875 49.46875 
Q 24.90625 47.171875 35.453125 44.671875 
Q 46 42.1875 51.046875 39.515625 
Q 56.109375 36.859375 58.953125 32.25 
Q 61.8125 27.640625 61.8125 20.84375 
Q 61.8125 14.703125 58.390625 9.328125 
Q 54.984375 3.953125 48.734375 1.34375 
Q 42.484375 -1.265625 33.15625 -1.265625 
Q 19.578125 -1.265625 12.296875 5 
Q 5.03125 11.28125 3.609375 23.296875 
z
" id="Arial-BoldMT-83"/>
      <path d="M 3.375 -21.046875 
Q 7.421875 -12.359375 9.078125 -7.71875 
Q 10.75 -3.078125 12.15625 2.96875 
Q 13.578125 9.03125 14.25 14.46875 
Q 14.9375 19.921875 14.9375 25.640625 
Q 14.9375 37.25 12.453125 47.625 
Q 9.96875 58.015625 3.265625 72.796875 
L 12.59375 72.796875 
Q 19.96875 62.3125 24.046875 50.53125 
Q 28.125 38.765625 28.125 26.65625 
Q 28.125 16.453125 24.90625 4.78125 
Q 21.234375 -8.296875 12.84375 -21.046875 
z
" id="Arial-BoldMT-41"/>
     </defs>
     <g transform="translate(253.525 476.208281)scale(0.2 -0.2)">
      <use xlink:href="#Arial-BoldMT-84"/>
      <use x="61.083984" xlink:href="#Arial-BoldMT-73"/>
      <use x="88.867188" xlink:href="#Arial-BoldMT-77"/>
      <use x="172.167969" xlink:href="#Arial-BoldMT-69"/>
      <use x="238.867188" xlink:href="#Arial-BoldMT-32"/>
      <use x="266.650391" xlink:href="#Arial-BoldMT-40"/>
      <use x="299.951172" xlink:href="#Arial-BoldMT-68"/>
      <use x="372.167969" xlink:href="#Arial-BoldMT-65"/>
      <use x="444.244141" xlink:href="#Arial-BoldMT-89"/>
      <use x="510.943359" xlink:href="#Arial-BoldMT-83"/>
      <use x="577.642578" xlink:href="#Arial-BoldMT-41"/>
     </g>
    </g>
   </g>
   <g id="matplotlib.axis_2">
    <g id="ytick_1">
     <g id="line2d_9">
      <defs>
       <path d="M 0 0 
L -3.5 0 
" id="m087d4b8823" style="stroke:#000000;stroke-width:0.8;"/>
      </defs>
      <g>
       <use style="stroke:#000000;stroke-width:0.8;" x="119.31875" xlink:href="#m087d4b8823" y="415.614531"/>
      </g>
     </g>
     <g id="text_10">
      <!-- 0 -->
      <g transform="translate(93.23125 427.012187)scale(0.3 -0.3)">
       <use xlink:href="#DejaVuSans-48"/>
      </g>
     </g>
    </g>
    <g id="ytick_2">
     <g id="line2d_10">
      <g>
       <use style="stroke:#000000;stroke-width:0.8;" x="119.31875" xlink:href="#m087d4b8823" y="367.639948"/>
      </g>
     </g>
     <g id="text_11">
      <!-- 500 -->
      <g transform="translate(55.05625 379.037604)scale(0.3 -0.3)">
       <use xlink:href="#DejaVuSans-53"/>
       <use x="63.623047" xlink:href="#DejaVuSans-48"/>
       <use x="127.246094" xlink:href="#DejaVuSans-48"/>
      </g>
     </g>
    </g>
    <g id="ytick_3">
     <g id="line2d_11">
      <g>
       <use style="stroke:#000000;stroke-width:0.8;" x="119.31875" xlink:href="#m087d4b8823" y="319.665365"/>
      </g>
     </g>
     <g id="text_12">
      <!-- 1000 -->
      <g transform="translate(35.96875 331.063021)scale(0.3 -0.3)">
       <use xlink:href="#DejaVuSans-49"/>
       <use x="63.623047" xlink:href="#DejaVuSans-48"/>
       <use x="127.246094" xlink:href="#DejaVuSans-48"/>
       <use x="190.869141" xlink:href="#DejaVuSans-48"/>
      </g>
     </g>
    </g>
    <g id="ytick_4">
     <g id="line2d_12">
      <g>
       <use style="stroke:#000000;stroke-width:0.8;" x="119.31875" xlink:href="#m087d4b8823" y="271.690782"/>
      </g>
     </g>
     <g id="text_13">
      <!-- 1500 -->
      <g transform="translate(35.96875 283.088438)scale(0.3 -0.3)">
       <use xlink:href="#DejaVuSans-49"/>
       <use x="63.623047" xlink:href="#DejaVuSans-53"/>
       <use x="127.246094" xlink:href="#DejaVuSans-48"/>
       <use x="190.869141" xlink:href="#DejaVuSans-48"/>
      </g>
     </g>
    </g>
    <g id="ytick_5">
     <g id="line2d_13">
      <g>
       <use style="stroke:#000000;stroke-width:0.8;" x="119.31875" xlink:href="#m087d4b8823" y="223.716199"/>
      </g>
     </g>
     <g id="text_14">
      <!-- 2000 -->
      <g transform="translate(35.96875 235.113855)scale(0.3 -0.3)">
       <use xlink:href="#DejaVuSans-50"/>
       <use x="63.623047" xlink:href="#DejaVuSans-48"/>
       <use x="127.246094" xlink:href="#DejaVuSans-48"/>
       <use x="190.869141" xlink:href="#DejaVuSans-48"/>
      </g>
     </g>
    </g>
    <g id="ytick_6">
     <g id="line2d_14">
      <g>
       <use style="stroke:#000000;stroke-width:0.8;" x="119.31875" xlink:href="#m087d4b8823" y="175.741616"/>
      </g>
     </g>
     <g id="text_15">
      <!-- 2500 -->
      <g transform="translate(35.96875 187.139272)scale(0.3 -0.3)">
       <use xlink:href="#DejaVuSans-50"/>
       <use x="63.623047" xlink:href="#DejaVuSans-53"/>
       <use x="127.246094" xlink:href="#DejaVuSans-48"/>
       <use x="190.869141" xlink:href="#DejaVuSans-48"/>
      </g>
     </g>
    </g>
    <g id="ytick_7">
     <g id="line2d_15">
      <g>
       <use style="stroke:#000000;stroke-width:0.8;" x="119.31875" xlink:href="#m087d4b8823" y="127.767033"/>
      </g>
     </g>
     <g id="text_16">
      <!-- 3000 -->
      <g transform="translate(35.96875 139.164689)scale(0.3 -0.3)">
       <use xlink:href="#DejaVuSans-51"/>
       <use x="63.623047" xlink:href="#DejaVuSans-48"/>
       <use x="127.246094" xlink:href="#DejaVuSans-48"/>
       <use x="190.869141" xlink:href="#DejaVuSans-48"/>
      </g>
     </g>
    </g>
    <g id="ytick_8">
     <g id="line2d_16">
      <g>
       <use style="stroke:#000000;stroke-width:0.8;" x="119.31875" xlink:href="#m087d4b8823" y="79.79245"/>
      </g>
     </g>
     <g id="text_17">
      <!-- 3500 -->
      <g transform="translate(35.96875 91.190106)scale(0.3 -0.3)">
       <use xlink:href="#DejaVuSans-51"/>
       <use x="63.623047" xlink:href="#DejaVuSans-53"/>
       <use x="127.246094" xlink:href="#DejaVuSans-48"/>
       <use x="190.869141" xlink:href="#DejaVuSans-48"/>
      </g>
     </g>
    </g>
    <g id="text_18">
     <!-- CANCER CELL COUNTS LYSED (NUMBERS) -->
     <defs>
      <path d="M 53.078125 26.3125 
L 67.09375 21.875 
Q 63.875 10.15625 56.375 4.46875 
Q 48.875 -1.21875 37.359375 -1.21875 
Q 23.09375 -1.21875 13.90625 8.515625 
Q 4.734375 18.265625 4.734375 35.15625 
Q 4.734375 53.03125 13.953125 62.90625 
Q 23.1875 72.796875 38.234375 72.796875 
Q 51.375 72.796875 59.578125 65.046875 
Q 64.453125 60.453125 66.890625 51.859375 
L 52.59375 48.4375 
Q 51.3125 54 47.28125 57.21875 
Q 43.265625 60.453125 37.5 60.453125 
Q 29.546875 60.453125 24.578125 54.734375 
Q 19.625 49.03125 19.625 36.234375 
Q 19.625 22.65625 24.5 16.890625 
Q 29.390625 11.140625 37.203125 11.140625 
Q 42.96875 11.140625 47.109375 14.796875 
Q 51.265625 18.453125 53.078125 26.3125 
z
" id="Arial-BoldMT-67"/>
      <path d="M 7.421875 0 
L 7.421875 71.578125 
L 21.484375 71.578125 
L 50.78125 23.78125 
L 50.78125 71.578125 
L 64.203125 71.578125 
L 64.203125 0 
L 49.703125 0 
L 20.84375 46.6875 
L 20.84375 0 
z
" id="Arial-BoldMT-78"/>
      <path d="M 7.328125 0 
L 7.328125 71.578125 
L 37.75 71.578125 
Q 49.21875 71.578125 54.421875 69.640625 
Q 59.625 67.71875 62.75 62.78125 
Q 65.875 57.859375 65.875 51.515625 
Q 65.875 43.453125 61.125 38.203125 
Q 56.390625 32.953125 46.96875 31.59375 
Q 51.65625 28.859375 54.703125 25.578125 
Q 57.765625 22.3125 62.9375 13.96875 
L 71.6875 0 
L 54.390625 0 
L 43.953125 15.578125 
Q 38.375 23.921875 36.328125 26.09375 
Q 34.28125 28.265625 31.984375 29.078125 
Q 29.6875 29.890625 24.703125 29.890625 
L 21.78125 29.890625 
L 21.78125 0 
z
M 21.78125 41.3125 
L 32.46875 41.3125 
Q 42.875 41.3125 45.453125 42.1875 
Q 48.046875 43.0625 49.515625 45.203125 
Q 50.984375 47.359375 50.984375 50.59375 
Q 50.984375 54.203125 49.046875 56.421875 
Q 47.125 58.640625 43.609375 59.234375 
Q 41.84375 59.46875 33.0625 59.46875 
L 21.78125 59.46875 
z
" id="Arial-BoldMT-82"/>
      <path d="M 7.671875 0 
L 7.671875 71 
L 22.125 71 
L 22.125 12.0625 
L 58.0625 12.0625 
L 58.0625 0 
z
" id="Arial-BoldMT-76"/>
      <path d="M 4.34375 35.359375 
Q 4.34375 46.296875 7.625 53.71875 
Q 10.0625 59.1875 14.28125 63.53125 
Q 18.5 67.875 23.53125 69.96875 
Q 30.21875 72.796875 38.96875 72.796875 
Q 54.78125 72.796875 64.28125 62.984375 
Q 73.78125 53.171875 73.78125 35.6875 
Q 73.78125 18.359375 64.359375 8.5625 
Q 54.9375 -1.21875 39.15625 -1.21875 
Q 23.1875 -1.21875 13.765625 8.515625 
Q 4.34375 18.265625 4.34375 35.359375 
z
M 19.234375 35.84375 
Q 19.234375 23.6875 24.84375 17.40625 
Q 30.46875 11.140625 39.109375 11.140625 
Q 47.75 11.140625 53.296875 17.359375 
Q 58.84375 23.578125 58.84375 36.03125 
Q 58.84375 48.34375 53.4375 54.390625 
Q 48.046875 60.453125 39.109375 60.453125 
Q 30.171875 60.453125 24.703125 54.3125 
Q 19.234375 48.1875 19.234375 35.84375 
z
" id="Arial-BoldMT-79"/>
      <path d="M 7.171875 71.578125 
L 21.625 71.578125 
L 21.625 32.8125 
Q 21.625 23.578125 22.171875 20.84375 
Q 23.09375 16.453125 26.578125 13.796875 
Q 30.078125 11.140625 36.140625 11.140625 
Q 42.28125 11.140625 45.40625 13.640625 
Q 48.53125 16.15625 49.171875 19.8125 
Q 49.8125 23.484375 49.8125 31.984375 
L 49.8125 71.578125 
L 64.265625 71.578125 
L 64.265625 33.984375 
Q 64.265625 21.09375 63.09375 15.765625 
Q 61.921875 10.453125 58.765625 6.78125 
Q 55.609375 3.125 50.328125 0.953125 
Q 45.0625 -1.21875 36.578125 -1.21875 
Q 26.3125 -1.21875 21.015625 1.140625 
Q 15.71875 3.515625 12.640625 7.296875 
Q 9.578125 11.078125 8.59375 15.234375 
Q 7.171875 21.390625 7.171875 33.40625 
z
" id="Arial-BoldMT-85"/>
      <path d="M 7.328125 71.578125 
L 35.9375 71.578125 
Q 44.4375 71.578125 48.609375 70.875 
Q 52.78125 70.171875 56.078125 67.921875 
Q 59.375 65.671875 61.5625 61.9375 
Q 63.765625 58.203125 63.765625 53.5625 
Q 63.765625 48.53125 61.046875 44.328125 
Q 58.34375 40.140625 53.71875 38.03125 
Q 60.25 36.140625 63.765625 31.546875 
Q 67.28125 26.953125 67.28125 20.75 
Q 67.28125 15.875 65.015625 11.25 
Q 62.75 6.640625 58.8125 3.875 
Q 54.890625 1.125 49.125 0.484375 
Q 45.515625 0.09375 31.6875 0 
L 7.328125 0 
z
M 21.78125 59.671875 
L 21.78125 43.109375 
L 31.25 43.109375 
Q 39.703125 43.109375 41.75 43.359375 
Q 45.453125 43.796875 47.578125 45.921875 
Q 49.703125 48.046875 49.703125 51.515625 
Q 49.703125 54.828125 47.875 56.90625 
Q 46.046875 58.984375 42.4375 59.421875 
Q 40.28125 59.671875 30.078125 59.671875 
z
M 21.78125 31.203125 
L 21.78125 12.0625 
L 35.15625 12.0625 
Q 42.96875 12.0625 45.0625 12.5 
Q 48.296875 13.09375 50.3125 15.359375 
Q 52.34375 17.625 52.34375 21.4375 
Q 52.34375 24.65625 50.78125 26.90625 
Q 49.21875 29.15625 46.265625 30.171875 
Q 43.3125 31.203125 33.453125 31.203125 
z
" id="Arial-BoldMT-66"/>
     </defs>
     <g transform="translate(21.759375 438.118594)rotate(-90)scale(0.2 -0.2)">
      <use xlink:href="#Arial-BoldMT-67"/>
      <use x="72.216797" xlink:href="#Arial-BoldMT-65"/>
      <use x="144.433594" xlink:href="#Arial-BoldMT-78"/>
      <use x="216.650391" xlink:href="#Arial-BoldMT-67"/>
      <use x="288.867188" xlink:href="#Arial-BoldMT-69"/>
      <use x="355.566406" xlink:href="#Arial-BoldMT-82"/>
      <use x="427.783203" xlink:href="#Arial-BoldMT-32"/>
      <use x="455.566406" xlink:href="#Arial-BoldMT-67"/>
      <use x="527.783203" xlink:href="#Arial-BoldMT-69"/>
      <use x="594.482422" xlink:href="#Arial-BoldMT-76"/>
      <use x="655.566406" xlink:href="#Arial-BoldMT-76"/>
      <use x="716.634766" xlink:href="#Arial-BoldMT-32"/>
      <use x="744.417969" xlink:href="#Arial-BoldMT-67"/>
      <use x="816.634766" xlink:href="#Arial-BoldMT-79"/>
      <use x="894.417969" xlink:href="#Arial-BoldMT-85"/>
      <use x="966.634766" xlink:href="#Arial-BoldMT-78"/>
      <use x="1038.851562" xlink:href="#Arial-BoldMT-84"/>
      <use x="1099.935547" xlink:href="#Arial-BoldMT-83"/>
      <use x="1166.634766" xlink:href="#Arial-BoldMT-32"/>
      <use x="1194.417969" xlink:href="#Arial-BoldMT-76"/>
      <use x="1255.361328" xlink:href="#Arial-BoldMT-89"/>
      <use x="1322.060547" xlink:href="#Arial-BoldMT-83"/>
      <use x="1388.759766" xlink:href="#Arial-BoldMT-69"/>
      <use x="1455.458984" xlink:href="#Arial-BoldMT-68"/>
      <use x="1527.675781" xlink:href="#Arial-BoldMT-32"/>
      <use x="1555.458984" xlink:href="#Arial-BoldMT-40"/>
      <use x="1588.759766" xlink:href="#Arial-BoldMT-78"/>
      <use x="1660.976562" xlink:href="#Arial-BoldMT-85"/>
      <use x="1733.193359" xlink:href="#Arial-BoldMT-77"/>
      <use x="1816.494141" xlink:href="#Arial-BoldMT-66"/>
      <use x="1888.710938" xlink:href="#Arial-BoldMT-69"/>
      <use x="1955.410156" xlink:href="#Arial-BoldMT-82"/>
      <use x="2027.626953" xlink:href="#Arial-BoldMT-83"/>
      <use x="2094.326172" xlink:href="#Arial-BoldMT-41"/>
     </g>
    </g>
   </g>
   <g id="line2d_17">
    <path clip-path="url(#pcdffa73ddb)" d="M 119.31875 415.614531 
L 147.21875 407.7467 
L 175.11875 404.868225 
L 203.01875 395.08141 
L 230.91875 382.895866 
L 258.81875 359.484269 
L 286.71875 328.492689 
L 314.61875 261.328272 
L 342.51875 148.779901 
L 370.41875 119.131608 
L 398.31875 111.071878 
L 426.21875 106.466318 
L 454.11875 104.547335 
L 482.01875 102.916199 
L 509.91875 102.340504 
" style="fill:none;stroke:#08306b;stroke-linecap:square;stroke-width:1.5;"/>
   </g>
   <g id="line2d_18">
    <path clip-path="url(#pcdffa73ddb)" d="M 119.31875 415.614531 
L 147.21875 406.979106 
L 175.11875 404.868225 
L 203.01875 396.424698 
L 230.91875 384.527001 
L 258.81875 360.443761 
L 286.71875 328.780536 
L 314.61875 248.758932 
L 342.51875 150.602935 
L 370.41875 114.046302 
L 398.31875 106.562268 
L 426.21875 101.189114 
L 454.11875 100.325572 
L 482.01875 99.557978 
L 509.91875 98.886334 
" style="fill:none;stroke:#08306b;stroke-linecap:square;stroke-width:1.5;"/>
   </g>
   <g id="line2d_19">
    <path clip-path="url(#pcdffa73ddb)" d="M 119.31875 415.614531 
L 147.21875 406.115564 
L 175.11875 402.757343 
L 203.01875 394.505715 
L 230.91875 378.770052 
L 258.81875 354.878709 
L 286.71875 319.761314 
L 314.61875 247.991338 
L 342.51875 143.502696 
L 370.41875 115.197692 
L 398.31875 108.5772 
L 426.21875 105.218979 
L 454.11875 104.547335 
L 482.01875 103.875691 
L 509.91875 103.587843 
" style="fill:none;stroke:#08306b;stroke-linecap:square;stroke-width:1.5;"/>
   </g>
   <g id="line2d_20">
    <path clip-path="url(#pcdffa73ddb)" d="M 119.31875 415.614531 
L 147.21875 406.979106 
L 175.11875 405.156072 
L 203.01875 397.000393 
L 230.91875 383.56751 
L 258.81875 361.787049 
L 286.71875 325.99801 
L 314.61875 251.061712 
L 342.51875 141.199916 
L 370.41875 113.950353 
L 398.31875 103.108098 
L 426.21875 98.790385 
L 454.11875 97.926843 
L 482.01875 97.351148 
L 509.91875 97.159249 
" style="fill:none;stroke:#08306b;stroke-linecap:square;stroke-width:1.5;"/>
   </g>
   <g id="line2d_21">
    <path clip-path="url(#pcdffa73ddb)" d="M 119.31875 415.614531 
L 147.21875 408.130496 
L 175.11875 406.115564 
L 203.01875 398.439631 
L 230.91875 385.678391 
L 258.81875 360.635659 
L 286.71875 322.927637 
L 314.61875 258.545747 
L 342.51875 138.993086 
L 370.41875 100.901267 
L 398.31875 95.528113 
L 426.21875 91.114452 
L 454.11875 89.675214 
L 482.01875 88.715723 
L 509.91875 88.235977 
" style="fill:none;stroke:#08306b;stroke-linecap:square;stroke-width:1.5;"/>
   </g>
   <g id="line2d_22">
    <path clip-path="url(#pcdffa73ddb)" d="M 119.31875 415.614531 
L 147.21875 408.034547 
L 175.11875 405.44392 
L 203.01875 398.055834 
L 230.91875 385.87029 
L 258.81875 365.337168 
L 286.71875 330.315723 
L 314.61875 260.272831 
L 342.51875 147.72446 
L 370.41875 106.946064 
L 398.31875 96.007859 
L 426.21875 91.018503 
L 454.11875 87.468384 
L 482.01875 86.412943 
L 509.91875 85.741299 
" style="fill:none;stroke:#08306b;stroke-linecap:square;stroke-width:1.5;"/>
   </g>
   <g id="line2d_23">
    <path clip-path="url(#pcdffa73ddb)" d="M 119.31875 415.614531 
L 147.21875 407.458852 
L 175.11875 404.868225 
L 203.01875 396.712546 
L 230.91875 382.128272 
L 258.81875 359.868066 
L 286.71875 328.204841 
L 314.61875 259.31334 
L 342.51875 142.735103 
L 370.41875 115.101743 
L 398.31875 106.082522 
L 426.21875 102.628352 
L 454.11875 100.709368 
L 482.01875 100.421521 
L 509.91875 99.462029 
" style="fill:none;stroke:#08306b;stroke-linecap:square;stroke-width:1.5;"/>
   </g>
   <g id="line2d_24">
    <path clip-path="url(#pcdffa73ddb)" d="M 119.31875 415.614531 
L 147.21875 407.842649 
L 175.11875 405.827716 
L 203.01875 399.015326 
L 230.91875 383.375611 
L 258.81875 359.100472 
L 286.71875 326.669654 
L 314.61875 252.884746 
L 342.51875 138.321441 
L 370.41875 108.097454 
L 398.31875 100.229623 
L 426.21875 96.871402 
L 454.11875 95.240266 
L 482.01875 94.088876 
L 509.91875 93.801028 
" style="fill:none;stroke:#08306b;stroke-linecap:square;stroke-width:1.5;"/>
   </g>
   <g id="line2d_25">
    <path clip-path="url(#pcdffa73ddb)" d="M 119.31875 415.614531 
L 147.21875 407.7467 
L 175.11875 404.580377 
L 203.01875 396.328749 
L 230.91875 384.814849 
L 258.81875 360.347812 
L 286.71875 328.684587 
L 314.61875 252.500949 
L 342.51875 135.538916 
L 370.41875 102.436453 
L 398.31875 94.856469 
L 426.21875 91.498248 
L 454.11875 90.922553 
L 482.01875 90.826604 
L 509.91875 90.826604 
" style="fill:none;stroke:#08306b;stroke-linecap:square;stroke-width:1.5;"/>
   </g>
   <g id="line2d_26">
    <path clip-path="url(#pcdffa73ddb)" d="M 119.31875 415.614531 
L 147.21875 408.034547 
L 175.11875 404.580377 
L 203.01875 395.273308 
L 230.91875 381.744476 
L 258.81875 358.045032 
L 286.71875 323.119535 
L 314.61875 251.061712 
L 342.51875 145.325731 
L 370.41875 113.470608 
L 398.31875 106.946064 
L 426.21875 104.451386 
L 454.11875 103.97164 
L 482.01875 103.587843 
L 509.91875 103.587843 
" style="fill:none;stroke:#08306b;stroke-linecap:square;stroke-width:1.5;"/>
   </g>
   <g id="line2d_27">
    <path clip-path="url(#pcdffa73ddb)" d="M 119.31875 415.614531 
L 147.21875 414.271243 
L 175.11875 414.271243 
L 203.01875 414.079345 
L 230.91875 412.927955 
L 258.81875 411.872514 
L 286.71875 409.089988 
L 314.61875 393.546223 
L 342.51875 317.842331 
L 370.41875 225.731132 
L 398.31875 177.756549 
L 426.21875 140.336374 
L 454.11875 94.856469 
L 482.01875 73.076009 
L 509.91875 59.739075 
" style="fill:none;stroke:#4a98c9;stroke-linecap:square;stroke-width:1.5;"/>
   </g>
   <g id="line2d_28">
    <path clip-path="url(#pcdffa73ddb)" d="M 119.31875 415.614531 
L 147.21875 414.367192 
L 175.11875 414.367192 
L 203.01875 413.983395 
L 230.91875 413.215802 
L 258.81875 410.625175 
L 286.71875 407.266954 
L 314.61875 390.47585 
L 342.51875 306.136533 
L 370.41875 199.728908 
L 398.31875 162.116835 
L 426.21875 133.619932 
L 454.11875 93.896978 
L 482.01875 74.803094 
L 509.91875 63.097295 
" style="fill:none;stroke:#4a98c9;stroke-linecap:square;stroke-width:1.5;"/>
   </g>
   <g id="line2d_29">
    <path clip-path="url(#pcdffa73ddb)" d="M 119.31875 415.614531 
L 147.21875 414.750989 
L 175.11875 414.65504 
L 203.01875 414.55909 
L 230.91875 413.599599 
L 258.81875 412.832005 
L 286.71875 410.04948 
L 314.61875 393.258376 
L 342.51875 324.174976 
L 370.41875 230.240743 
L 398.31875 182.745905 
L 426.21875 149.451545 
L 454.11875 109.536692 
L 482.01875 85.837248 
L 509.91875 73.267907 
" style="fill:none;stroke:#4a98c9;stroke-linecap:square;stroke-width:1.5;"/>
   </g>
   <g id="line2d_30">
    <path clip-path="url(#pcdffa73ddb)" d="M 119.31875 415.614531 
L 147.21875 414.079345 
L 175.11875 413.983395 
L 203.01875 413.695548 
L 230.91875 412.927955 
L 258.81875 411.584666 
L 286.71875 406.979106 
L 314.61875 391.339392 
L 342.51875 312.469178 
L 370.41875 208.65218 
L 398.31875 163.652021 
L 426.21875 134.291577 
L 454.11875 98.21469 
L 482.01875 78.161314 
L 509.91875 65.591974 
" style="fill:none;stroke:#4a98c9;stroke-linecap:square;stroke-width:1.5;"/>
   </g>
   <g id="line2d_31">
    <path clip-path="url(#pcdffa73ddb)" d="M 119.31875 415.614531 
L 147.21875 414.271243 
L 175.11875 414.271243 
L 203.01875 413.791497 
L 230.91875 412.927955 
L 258.81875 411.776565 
L 286.71875 409.185937 
L 314.61875 390.092053 
L 342.51875 305.656787 
L 370.41875 213.641537 
L 398.31875 164.419615 
L 426.21875 127.575135 
L 454.11875 89.867113 
L 482.01875 69.813737 
L 509.91875 55.70921 
" style="fill:none;stroke:#4a98c9;stroke-linecap:square;stroke-width:1.5;"/>
   </g>
   <g id="line2d_32">
    <path clip-path="url(#pcdffa73ddb)" d="M 119.31875 415.614531 
L 147.21875 413.983395 
L 175.11875 413.983395 
L 203.01875 413.50365 
L 230.91875 412.544158 
L 258.81875 410.817073 
L 286.71875 407.554801 
L 314.61875 392.202935 
L 342.51875 316.115246 
L 370.41875 224.291894 
L 398.31875 175.549718 
L 426.21875 139.280933 
L 454.11875 98.982283 
L 482.01875 74.0355 
L 509.91875 61.658058 
" style="fill:none;stroke:#4a98c9;stroke-linecap:square;stroke-width:1.5;"/>
   </g>
   <g id="line2d_33">
    <path clip-path="url(#pcdffa73ddb)" d="M 119.31875 415.614531 
L 147.21875 414.367192 
L 175.11875 414.271243 
L 203.01875 413.4077 
L 230.91875 412.35226 
L 258.81875 410.145429 
L 286.71875 407.842649 
L 314.61875 388.17307 
L 342.51875 303.833753 
L 370.41875 212.490147 
L 398.31875 176.797057 
L 426.21875 134.483475 
L 454.11875 95.624063 
L 482.01875 77.48967 
L 509.91875 64.92033 
" style="fill:none;stroke:#4a98c9;stroke-linecap:square;stroke-width:1.5;"/>
   </g>
   <g id="line2d_34">
    <path clip-path="url(#pcdffa73ddb)" d="M 119.31875 415.614531 
L 147.21875 414.079345 
L 175.11875 414.079345 
L 203.01875 413.4077 
L 230.91875 412.832005 
L 258.81875 411.10492 
L 286.71875 407.65075 
L 314.61875 385.87029 
L 342.51875 306.232482 
L 370.41875 206.061553 
L 398.31875 168.44948 
L 426.21875 132.084746 
L 454.11875 92.073943 
L 482.01875 76.530179 
L 509.91875 65.208177 
" style="fill:none;stroke:#4a98c9;stroke-linecap:square;stroke-width:1.5;"/>
   </g>
   <g id="line2d_35">
    <path clip-path="url(#pcdffa73ddb)" d="M 119.31875 415.614531 
L 147.21875 413.887446 
L 175.11875 413.887446 
L 203.01875 413.599599 
L 230.91875 412.832005 
L 258.81875 410.913022 
L 286.71875 406.403411 
L 314.61875 387.02168 
L 342.51875 299.420091 
L 370.41875 193.588161 
L 398.31875 150.506986 
L 426.21875 117.78832 
L 454.11875 78.545111 
L 482.01875 61.274261 
L 509.91875 53.214531 
" style="fill:none;stroke:#4a98c9;stroke-linecap:square;stroke-width:1.5;"/>
   </g>
   <g id="line2d_36">
    <path clip-path="url(#pcdffa73ddb)" d="M 119.31875 415.614531 
L 147.21875 414.271243 
L 175.11875 414.271243 
L 203.01875 414.079345 
L 230.91875 413.695548 
L 258.81875 412.064412 
L 286.71875 407.171005 
L 314.61875 384.431052 
L 342.51875 307.479821 
L 370.41875 211.914452 
L 398.31875 160.197851 
L 426.21875 124.792609 
L 454.11875 91.786096 
L 482.01875 72.500314 
L 509.91875 59.835024 
" style="fill:none;stroke:#4a98c9;stroke-linecap:square;stroke-width:1.5;"/>
   </g>
   <g id="line2d_37">
    <path clip-path="url(#pcdffa73ddb)" d="M 119.31875 415.614531 
L 147.21875 415.518582 
L 175.11875 415.518582 
L 203.01875 415.518582 
L 230.91875 415.518582 
L 258.81875 415.518582 
L 286.71875 415.422633 
L 314.61875 414.55909 
L 342.51875 410.433276 
L 370.41875 402.373546 
L 398.31875 391.435341 
L 426.21875 382.032323 
L 454.11875 373.780695 
L 482.01875 363.897931 
L 509.91875 354.111116 
" style="fill:none;stroke:#d0e1f2;stroke-linecap:square;stroke-width:1.5;"/>
   </g>
   <g id="line2d_38">
    <path clip-path="url(#pcdffa73ddb)" d="M 119.31875 415.614531 
L 147.21875 415.422633 
L 175.11875 415.422633 
L 203.01875 415.422633 
L 230.91875 415.422633 
L 258.81875 415.422633 
L 286.71875 415.422633 
L 314.61875 414.463141 
L 342.51875 406.883157 
L 370.41875 395.369257 
L 398.31875 388.17307 
L 426.21875 379.825492 
L 454.11875 370.998169 
L 482.01875 363.706032 
L 509.91875 355.166557 
" style="fill:none;stroke:#d0e1f2;stroke-linecap:square;stroke-width:1.5;"/>
   </g>
   <g id="line2d_39">
    <path clip-path="url(#pcdffa73ddb)" d="M 119.31875 415.614531 
L 147.21875 415.422633 
L 175.11875 415.422633 
L 203.01875 415.422633 
L 230.91875 415.422633 
L 258.81875 415.422633 
L 286.71875 415.326684 
L 314.61875 414.463141 
L 342.51875 410.433276 
L 370.41875 400.646461 
L 398.31875 391.62724 
L 426.21875 384.622951 
L 454.11875 376.947017 
L 482.01875 369.175135 
L 509.91875 360.827557 
" style="fill:none;stroke:#d0e1f2;stroke-linecap:square;stroke-width:1.5;"/>
   </g>
   <g id="line2d_40">
    <path clip-path="url(#pcdffa73ddb)" d="M 119.31875 415.614531 
L 147.21875 415.614531 
L 175.11875 415.614531 
L 203.01875 415.614531 
L 230.91875 415.614531 
L 258.81875 415.614531 
L 286.71875 415.422633 
L 314.61875 414.65504 
L 342.51875 411.20087 
L 370.41875 398.631529 
L 398.31875 387.597375 
L 426.21875 376.563221 
L 454.11875 367.160202 
L 482.01875 356.797692 
L 509.91875 348.450115 
" style="fill:none;stroke:#d0e1f2;stroke-linecap:square;stroke-width:1.5;"/>
   </g>
   <g id="line2d_41">
    <path clip-path="url(#pcdffa73ddb)" d="M 119.31875 415.614531 
L 147.21875 415.518582 
L 175.11875 415.518582 
L 203.01875 415.518582 
L 230.91875 415.518582 
L 258.81875 415.422633 
L 286.71875 415.422633 
L 314.61875 415.038836 
L 342.51875 406.979106 
L 370.41875 395.465206 
L 398.31875 389.804206 
L 426.21875 380.689035 
L 454.11875 369.175135 
L 482.01875 362.170846 
L 509.91875 352.096183 
" style="fill:none;stroke:#d0e1f2;stroke-linecap:square;stroke-width:1.5;"/>
   </g>
   <g id="line2d_42">
    <path clip-path="url(#pcdffa73ddb)" d="M 119.31875 415.614531 
L 147.21875 415.326684 
L 175.11875 415.326684 
L 203.01875 415.326684 
L 230.91875 415.326684 
L 258.81875 415.326684 
L 286.71875 415.326684 
L 314.61875 415.134785 
L 342.51875 412.160361 
L 370.41875 398.151783 
L 398.31875 387.117629 
L 426.21875 380.497136 
L 454.11875 372.149559 
L 482.01875 362.938439 
L 509.91875 354.111116 
" style="fill:none;stroke:#d0e1f2;stroke-linecap:square;stroke-width:1.5;"/>
   </g>
   <g id="line2d_43">
    <path clip-path="url(#pcdffa73ddb)" d="M 119.31875 415.614531 
L 147.21875 415.422633 
L 175.11875 415.422633 
L 203.01875 415.422633 
L 230.91875 415.422633 
L 258.81875 415.422633 
L 286.71875 415.134785 
L 314.61875 414.55909 
L 342.51875 411.392768 
L 370.41875 403.524936 
L 398.31875 393.258376 
L 426.21875 385.486493 
L 454.11875 377.714611 
L 482.01875 367.352101 
L 509.91875 360.731608 
" style="fill:none;stroke:#d0e1f2;stroke-linecap:square;stroke-width:1.5;"/>
   </g>
   <g id="line2d_44">
    <path clip-path="url(#pcdffa73ddb)" d="M 119.31875 415.614531 
L 147.21875 415.422633 
L 175.11875 415.422633 
L 203.01875 415.422633 
L 230.91875 415.422633 
L 258.81875 415.326684 
L 286.71875 415.038836 
L 314.61875 413.023904 
L 342.51875 407.7467 
L 370.41875 397.959885 
L 398.31875 388.460917 
L 426.21875 379.153848 
L 454.11875 367.831847 
L 482.01875 358.620727 
L 509.91875 349.793403 
" style="fill:none;stroke:#d0e1f2;stroke-linecap:square;stroke-width:1.5;"/>
   </g>
   <g id="line2d_45">
    <path clip-path="url(#pcdffa73ddb)" d="M 119.31875 415.614531 
L 147.21875 415.422633 
L 175.11875 415.422633 
L 203.01875 415.422633 
L 230.91875 415.422633 
L 258.81875 415.422633 
L 286.71875 415.422633 
L 314.61875 413.50365 
L 342.51875 409.473785 
L 370.41875 400.166716 
L 398.31875 386.062188 
L 426.21875 376.947017 
L 454.11875 367.831847 
L 482.01875 356.797692 
L 509.91875 349.217708 
" style="fill:none;stroke:#d0e1f2;stroke-linecap:square;stroke-width:1.5;"/>
   </g>
   <g id="line2d_46">
    <path clip-path="url(#pcdffa73ddb)" d="M 119.31875 415.614531 
L 147.21875 415.422633 
L 175.11875 415.422633 
L 203.01875 415.422633 
L 230.91875 415.422633 
L 258.81875 415.422633 
L 286.71875 415.326684 
L 314.61875 414.271243 
L 342.51875 410.337327 
L 370.41875 402.469496 
L 398.31875 391.819138 
L 426.21875 382.320171 
L 454.11875 374.260441 
L 482.01875 366.680457 
L 509.91875 358.23693 
" style="fill:none;stroke:#d0e1f2;stroke-linecap:square;stroke-width:1.5;"/>
   </g>
   <g id="line2d_47">
    <path clip-path="url(#pcdffa73ddb)" d="M 119.31875 415.614531 
L 147.21875 411.008971 
L 175.11875 409.857581 
L 203.01875 405.635818 
L 230.91875 400.166716 
L 258.81875 385.582442 
L 286.71875 363.034388 
L 314.61875 287.042649 
L 342.51875 143.598646 
L 370.41875 93.992927 
L 398.31875 79.120806 
L 426.21875 71.828669 
L 454.11875 68.950194 
L 482.01875 67.12716 
L 509.91875 65.112228 
" style="fill:none;stroke:#1764ab;stroke-linecap:square;stroke-width:1.5;"/>
   </g>
   <g id="line2d_48">
    <path clip-path="url(#pcdffa73ddb)" d="M 119.31875 415.614531 
L 147.21875 410.529225 
L 175.11875 409.665683 
L 203.01875 406.307462 
L 230.91875 400.358614 
L 258.81875 385.966239 
L 286.71875 361.6911 
L 314.61875 285.315564 
L 342.51875 157.607224 
L 370.41875 100.901267 
L 398.31875 81.135739 
L 426.21875 71.157025 
L 454.11875 67.606906 
L 482.01875 66.167669 
L 509.91875 65.591974 
" style="fill:none;stroke:#1764ab;stroke-linecap:square;stroke-width:1.5;"/>
   </g>
   <g id="line2d_49">
    <path clip-path="url(#pcdffa73ddb)" d="M 119.31875 415.614531 
L 147.21875 410.529225 
L 175.11875 409.377835 
L 203.01875 406.787208 
L 230.91875 398.919376 
L 258.81875 385.582442 
L 286.71875 363.610083 
L 314.61875 294.814531 
L 342.51875 148.683951 
L 370.41875 99.653928 
L 398.31875 88.619774 
L 426.21875 77.681569 
L 454.11875 73.651704 
L 482.01875 71.540822 
L 509.91875 68.950194 
" style="fill:none;stroke:#1764ab;stroke-linecap:square;stroke-width:1.5;"/>
   </g>
   <g id="line2d_50">
    <path clip-path="url(#pcdffa73ddb)" d="M 119.31875 415.614531 
L 147.21875 410.433276 
L 175.11875 409.95353 
L 203.01875 406.787208 
L 230.91875 398.727478 
L 258.81875 385.198646 
L 286.71875 361.403252 
L 314.61875 282.437089 
L 342.51875 140.432323 
L 370.41875 90.346858 
L 398.31875 74.899043 
L 426.21875 66.551465 
L 454.11875 64.056787 
L 482.01875 62.905397 
L 509.91875 62.041855 
" style="fill:none;stroke:#1764ab;stroke-linecap:square;stroke-width:1.5;"/>
   </g>
   <g id="line2d_51">
    <path clip-path="url(#pcdffa73ddb)" d="M 119.31875 415.614531 
L 147.21875 411.10492 
L 175.11875 410.241378 
L 203.01875 406.787208 
L 230.91875 399.399122 
L 258.81875 384.7189 
L 286.71875 361.595151 
L 314.61875 289.345429 
L 342.51875 149.835341 
L 370.41875 93.513181 
L 398.31875 78.928908 
L 426.21875 68.27855 
L 454.11875 64.536533 
L 482.01875 63.577041 
L 509.91875 62.233753 
" style="fill:none;stroke:#1764ab;stroke-linecap:square;stroke-width:1.5;"/>
   </g>
   <g id="line2d_52">
    <path clip-path="url(#pcdffa73ddb)" d="M 119.31875 415.614531 
L 147.21875 410.337327 
L 175.11875 409.665683 
L 203.01875 407.075055 
L 230.91875 400.550512 
L 258.81875 386.062188 
L 286.71875 364.473626 
L 314.61875 304.313499 
L 342.51875 174.494277 
L 370.41875 101.956708 
L 398.31875 86.892689 
L 426.21875 77.681569 
L 454.11875 72.88411 
L 482.01875 70.677279 
L 509.91875 69.621839 
" style="fill:none;stroke:#1764ab;stroke-linecap:square;stroke-width:1.5;"/>
   </g>
   <g id="line2d_53">
    <path clip-path="url(#pcdffa73ddb)" d="M 119.31875 415.614531 
L 147.21875 409.569734 
L 175.11875 408.418344 
L 203.01875 403.908733 
L 230.91875 397.192291 
L 258.81875 378.96195 
L 286.71875 355.166557 
L 314.61875 270.923189 
L 342.51875 149.931291 
L 370.41875 104.259488 
L 398.31875 87.660282 
L 426.21875 81.231688 
L 454.11875 78.257264 
L 482.01875 77.201823 
L 509.91875 76.242331 
" style="fill:none;stroke:#1764ab;stroke-linecap:square;stroke-width:1.5;"/>
   </g>
   <g id="line2d_54">
    <path clip-path="url(#pcdffa73ddb)" d="M 119.31875 415.614531 
L 147.21875 410.625175 
L 175.11875 409.473785 
L 203.01875 405.731767 
L 230.91875 397.38419 
L 258.81875 384.047256 
L 286.71875 361.211354 
L 314.61875 283.300631 
L 342.51875 147.436612 
L 370.41875 99.749877 
L 398.31875 84.206112 
L 426.21875 77.777518 
L 454.11875 76.33828 
L 482.01875 75.570687 
L 509.91875 74.899043 
" style="fill:none;stroke:#1764ab;stroke-linecap:square;stroke-width:1.5;"/>
   </g>
   <g id="line2d_55">
    <path clip-path="url(#pcdffa73ddb)" d="M 119.31875 415.614531 
L 147.21875 410.433276 
L 175.11875 409.665683 
L 203.01875 405.34797 
L 230.91875 396.520647 
L 258.81875 385.006747 
L 286.71875 361.882998 
L 314.61875 277.159885 
L 342.51875 146.189273 
L 370.41875 101.956708 
L 398.31875 82.287129 
L 426.21875 73.747653 
L 454.11875 70.293483 
L 482.01875 68.086652 
L 509.91875 67.798804 
" style="fill:none;stroke:#1764ab;stroke-linecap:square;stroke-width:1.5;"/>
   </g>
   <g id="line2d_56">
    <path clip-path="url(#pcdffa73ddb)" d="M 119.31875 415.614531 
L 147.21875 409.761632 
L 175.11875 409.281886 
L 203.01875 405.539869 
L 230.91875 397.672037 
L 258.81875 381.840425 
L 286.71875 357.757184 
L 314.61875 284.356072 
L 342.51875 146.285222 
L 370.41875 104.451386 
L 398.31875 88.811672 
L 426.21875 80.464094 
L 454.11875 76.913975 
L 482.01875 75.570687 
L 509.91875 74.803094 
" style="fill:none;stroke:#1764ab;stroke-linecap:square;stroke-width:1.5;"/>
   </g>
   <g id="line2d_57">
    <path clip-path="url(#pcdffa73ddb)" d="M 119.31875 415.614531 
L 147.21875 414.750989 
L 175.11875 414.750989 
L 203.01875 414.750989 
L 230.91875 414.65504 
L 258.81875 414.463141 
L 286.71875 413.50365 
L 314.61875 405.635818 
L 342.51875 369.846779 
L 370.41875 290.113022 
L 398.31875 246.456152 
L 426.21875 219.686334 
L 454.11875 174.494277 
L 482.01875 144.941934 
L 509.91875 124.792609 
" style="fill:none;stroke:#94c4df;stroke-linecap:square;stroke-width:1.5;"/>
   </g>
   <g id="line2d_58">
    <path clip-path="url(#pcdffa73ddb)" d="M 119.31875 415.614531 
L 147.21875 415.422633 
L 175.11875 415.422633 
L 203.01875 415.422633 
L 230.91875 415.230735 
L 258.81875 414.750989 
L 286.71875 413.599599 
L 314.61875 408.322395 
L 342.51875 374.35639 
L 370.41875 314.196263 
L 398.31875 281.381648 
L 426.21875 246.64805 
L 454.11875 195.603094 
L 482.01875 171.999599 
L 509.91875 144.654086 
" style="fill:none;stroke:#94c4df;stroke-linecap:square;stroke-width:1.5;"/>
   </g>
   <g id="line2d_59">
    <path clip-path="url(#pcdffa73ddb)" d="M 119.31875 415.614531 
L 147.21875 414.942887 
L 175.11875 414.846938 
L 203.01875 414.65504 
L 230.91875 414.55909 
L 258.81875 413.791497 
L 286.71875 413.023904 
L 314.61875 404.19658 
L 342.51875 360.635659 
L 370.41875 303.641855 
L 398.31875 266.125731 
L 426.21875 229.760997 
L 454.11875 194.355754 
L 482.01875 165.954801 
L 509.91875 146.093324 
" style="fill:none;stroke:#94c4df;stroke-linecap:square;stroke-width:1.5;"/>
   </g>
   <g id="line2d_60">
    <path clip-path="url(#pcdffa73ddb)" d="M 119.31875 415.614531 
L 147.21875 414.942887 
L 175.11875 414.942887 
L 203.01875 414.942887 
L 230.91875 414.65504 
L 258.81875 414.463141 
L 286.71875 412.927955 
L 314.61875 403.812784 
L 342.51875 367.44805 
L 370.41875 299.420091 
L 398.31875 253.748288 
L 426.21875 219.974182 
L 454.11875 175.549718 
L 482.01875 147.820409 
L 509.91875 127.767033 
" style="fill:none;stroke:#94c4df;stroke-linecap:square;stroke-width:1.5;"/>
   </g>
   <g id="line2d_61">
    <path clip-path="url(#pcdffa73ddb)" d="M 119.31875 415.614531 
L 147.21875 414.846938 
L 175.11875 414.846938 
L 203.01875 414.846938 
L 230.91875 414.846938 
L 258.81875 414.55909 
L 286.71875 413.887446 
L 314.61875 405.252021 
L 342.51875 366.968304 
L 370.41875 314.867907 
L 398.31875 275.816596 
L 426.21875 240.123507 
L 454.11875 203.087129 
L 482.01875 173.918582 
L 509.91875 148.87585 
" style="fill:none;stroke:#94c4df;stroke-linecap:square;stroke-width:1.5;"/>
   </g>
   <g id="line2d_62">
    <path clip-path="url(#pcdffa73ddb)" d="M 119.31875 415.614531 
L 147.21875 414.750989 
L 175.11875 414.750989 
L 203.01875 414.750989 
L 230.91875 414.55909 
L 258.81875 414.271243 
L 286.71875 413.791497 
L 314.61875 406.883157 
L 342.51875 374.35639 
L 370.41875 305.464889 
L 398.31875 266.509527 
L 426.21875 234.174658 
L 454.11875 188.406906 
L 482.01875 159.430258 
L 509.91875 134.579424 
" style="fill:none;stroke:#94c4df;stroke-linecap:square;stroke-width:1.5;"/>
   </g>
   <g id="line2d_63">
    <path clip-path="url(#pcdffa73ddb)" d="M 119.31875 415.614531 
L 147.21875 415.038836 
L 175.11875 415.038836 
L 203.01875 415.038836 
L 230.91875 414.942887 
L 258.81875 414.079345 
L 286.71875 411.968463 
L 314.61875 402.757343 
L 342.51875 361.978947 
L 370.41875 300.66743 
L 398.31875 258.545747 
L 426.21875 224.483793 
L 454.11875 178.81199 
L 482.01875 153.769257 
L 509.91875 130.645508 
" style="fill:none;stroke:#94c4df;stroke-linecap:square;stroke-width:1.5;"/>
   </g>
   <g id="line2d_64">
    <path clip-path="url(#pcdffa73ddb)" d="M 119.31875 415.614531 
L 147.21875 414.65504 
L 175.11875 414.65504 
L 203.01875 414.367192 
L 230.91875 414.175294 
L 258.81875 414.175294 
L 286.71875 412.927955 
L 314.61875 401.98975 
L 342.51875 366.488558 
L 370.41875 305.752736 
L 398.31875 260.944476 
L 426.21875 226.306827 
L 454.11875 182.937804 
L 482.01875 153.673308 
L 509.91875 131.892847 
" style="fill:none;stroke:#94c4df;stroke-linecap:square;stroke-width:1.5;"/>
   </g>
   <g id="line2d_65">
    <path clip-path="url(#pcdffa73ddb)" d="M 119.31875 415.614531 
L 147.21875 414.846938 
L 175.11875 414.846938 
L 203.01875 414.846938 
L 230.91875 414.65504 
L 258.81875 413.791497 
L 286.71875 412.160361 
L 314.61875 405.060123 
L 342.51875 373.972593 
L 370.41875 306.040584 
L 398.31875 256.147017 
L 426.21875 222.660758 
L 454.11875 182.841855 
L 482.01875 150.602935 
L 509.91875 128.054881 
" style="fill:none;stroke:#94c4df;stroke-linecap:square;stroke-width:1.5;"/>
   </g>
   <g id="line2d_66">
    <path clip-path="url(#pcdffa73ddb)" d="M 119.31875 415.614531 
L 147.21875 414.367192 
L 175.11875 414.367192 
L 203.01875 414.367192 
L 230.91875 413.983395 
L 258.81875 413.119853 
L 286.71875 411.584666 
L 314.61875 403.620885 
L 342.51875 352.863777 
L 370.41875 273.13002 
L 398.31875 229.473149 
L 426.21875 199.345111 
L 454.11875 164.515564 
L 482.01875 140.528272 
L 509.91875 123.737168 
" style="fill:none;stroke:#94c4df;stroke-linecap:square;stroke-width:1.5;"/>
   </g>
   <g id="line2d_67">
    <path clip-path="url(#pcdffa73ddb)" d="M 119.31875 415.614531 
L 147.21875 415.614531 
L 175.11875 415.614531 
L 203.01875 415.614531 
L 230.91875 415.614531 
L 258.81875 415.614531 
L 286.71875 415.614531 
L 314.61875 415.614531 
L 342.51875 415.614531 
L 370.41875 415.614531 
L 398.31875 415.614531 
L 426.21875 415.614531 
L 454.11875 415.614531 
L 482.01875 415.614531 
L 509.91875 415.614531 
" style="fill:none;stroke:#000000;stroke-linecap:square;stroke-width:1.5;"/>
   </g>
   <g id="line2d_68">
    <path clip-path="url(#pcdffa73ddb)" d="M 119.31875 415.614531 
L 147.21875 415.614531 
L 175.11875 415.614531 
L 203.01875 415.614531 
L 230.91875 415.614531 
L 258.81875 415.614531 
L 286.71875 415.614531 
L 314.61875 415.614531 
L 342.51875 415.614531 
L 370.41875 415.614531 
L 398.31875 415.614531 
L 426.21875 415.614531 
L 454.11875 415.614531 
L 482.01875 415.614531 
L 509.91875 415.614531 
" style="fill:none;stroke:#000000;stroke-linecap:square;stroke-width:1.5;"/>
   </g>
   <g id="line2d_69">
    <path clip-path="url(#pcdffa73ddb)" d="M 119.31875 415.614531 
L 147.21875 415.614531 
L 175.11875 415.614531 
L 203.01875 415.614531 
L 230.91875 415.614531 
L 258.81875 415.614531 
L 286.71875 415.614531 
L 314.61875 415.614531 
L 342.51875 415.614531 
L 370.41875 415.614531 
L 398.31875 415.614531 
L 426.21875 415.614531 
L 454.11875 415.614531 
L 482.01875 415.614531 
L 509.91875 415.614531 
" style="fill:none;stroke:#000000;stroke-linecap:square;stroke-width:1.5;"/>
   </g>
   <g id="line2d_70">
    <path clip-path="url(#pcdffa73ddb)" d="M 119.31875 415.614531 
L 147.21875 415.614531 
L 175.11875 415.614531 
L 203.01875 415.614531 
L 230.91875 415.614531 
L 258.81875 415.614531 
L 286.71875 415.614531 
L 314.61875 415.614531 
L 342.51875 415.614531 
L 370.41875 415.614531 
L 398.31875 415.614531 
L 426.21875 415.614531 
L 454.11875 415.614531 
L 482.01875 415.614531 
L 509.91875 415.614531 
" style="fill:none;stroke:#000000;stroke-linecap:square;stroke-width:1.5;"/>
   </g>
   <g id="line2d_71">
    <path clip-path="url(#pcdffa73ddb)" d="M 119.31875 415.614531 
L 147.21875 415.614531 
L 175.11875 415.614531 
L 203.01875 415.614531 
L 230.91875 415.614531 
L 258.81875 415.614531 
L 286.71875 415.614531 
L 314.61875 415.614531 
L 342.51875 415.614531 
L 370.41875 415.614531 
L 398.31875 415.614531 
L 426.21875 415.614531 
L 454.11875 415.614531 
L 482.01875 415.614531 
L 509.91875 415.614531 
" style="fill:none;stroke:#000000;stroke-linecap:square;stroke-width:1.5;"/>
   </g>
   <g id="line2d_72">
    <path clip-path="url(#pcdffa73ddb)" d="M 119.31875 415.614531 
L 147.21875 415.614531 
L 175.11875 415.614531 
L 203.01875 415.614531 
L 230.91875 415.614531 
L 258.81875 415.614531 
L 286.71875 415.614531 
L 314.61875 415.614531 
L 342.51875 415.614531 
L 370.41875 415.614531 
L 398.31875 415.614531 
L 426.21875 415.614531 
L 454.11875 415.614531 
L 482.01875 415.614531 
L 509.91875 415.614531 
" style="fill:none;stroke:#000000;stroke-linecap:square;stroke-width:1.5;"/>
   </g>
   <g id="line2d_73">
    <path clip-path="url(#pcdffa73ddb)" d="M 119.31875 415.614531 
L 147.21875 415.614531 
L 175.11875 415.614531 
L 203.01875 415.614531 
L 230.91875 415.614531 
L 258.81875 415.614531 
L 286.71875 415.614531 
L 314.61875 415.614531 
L 342.51875 415.614531 
L 370.41875 415.614531 
L 398.31875 415.614531 
L 426.21875 415.614531 
L 454.11875 415.614531 
L 482.01875 415.614531 
L 509.91875 415.614531 
" style="fill:none;stroke:#000000;stroke-linecap:square;stroke-width:1.5;"/>
   </g>
   <g id="line2d_74">
    <path clip-path="url(#pcdffa73ddb)" d="M 119.31875 415.614531 
L 147.21875 415.614531 
L 175.11875 415.614531 
L 203.01875 415.614531 
L 230.91875 415.614531 
L 258.81875 415.614531 
L 286.71875 415.614531 
L 314.61875 415.614531 
L 342.51875 415.614531 
L 370.41875 415.614531 
L 398.31875 415.614531 
L 426.21875 415.614531 
L 454.11875 415.614531 
L 482.01875 415.614531 
L 509.91875 415.614531 
" style="fill:none;stroke:#000000;stroke-linecap:square;stroke-width:1.5;"/>
   </g>
   <g id="line2d_75">
    <path clip-path="url(#pcdffa73ddb)" d="M 119.31875 415.614531 
L 147.21875 415.614531 
L 175.11875 415.614531 
L 203.01875 415.614531 
L 230.91875 415.614531 
L 258.81875 415.614531 
L 286.71875 415.614531 
L 314.61875 415.614531 
L 342.51875 415.614531 
L 370.41875 415.614531 
L 398.31875 415.614531 
L 426.21875 415.614531 
L 454.11875 415.614531 
L 482.01875 415.614531 
L 509.91875 415.614531 
" style="fill:none;stroke:#000000;stroke-linecap:square;stroke-width:1.5;"/>
   </g>
   <g id="line2d_76">
    <path clip-path="url(#pcdffa73ddb)" d="M 119.31875 415.614531 
L 147.21875 415.614531 
L 175.11875 415.614531 
L 203.01875 415.614531 
L 230.91875 415.614531 
L 258.81875 415.614531 
L 286.71875 415.614531 
L 314.61875 415.614531 
L 342.51875 415.614531 
L 370.41875 415.614531 
L 398.31875 415.614531 
L 426.21875 415.614531 
L 454.11875 415.614531 
L 482.01875 415.614531 
L 509.91875 415.614531 
" style="fill:none;stroke:#000000;stroke-linecap:square;stroke-width:1.5;"/>
   </g>
   <g id="line2d_77">
    <path clip-path="url(#pcdffa73ddb)" d="M 119.31875 319.665365 
L 509.91875 319.665365 
" style="fill:none;stroke:#808080;stroke-linecap:square;stroke-width:1.5;"/>
   </g>
   <g id="line2d_78">
    <path clip-path="url(#pcdffa73ddb)" d="M 119.31875 415.614531 
" style="fill:none;stroke:#000000;stroke-linecap:square;stroke-width:1.5;"/>
   </g>
   <g id="line2d_79">
    <path clip-path="url(#pcdffa73ddb)" d="M 119.31875 415.614531 
" style="fill:none;stroke:#d0e1f2;stroke-linecap:square;stroke-width:1.5;"/>
   </g>
   <g id="line2d_80">
    <path clip-path="url(#pcdffa73ddb)" d="M 119.31875 415.614531 
" style="fill:none;stroke:#94c4df;stroke-linecap:square;stroke-width:1.5;"/>
   </g>
   <g id="line2d_81">
    <path clip-path="url(#pcdffa73ddb)" d="M 119.31875 415.614531 
" style="fill:none;stroke:#4a98c9;stroke-linecap:square;stroke-width:1.5;"/>
   </g>
   <g id="line2d_82">
    <path clip-path="url(#pcdffa73ddb)" d="M 119.31875 415.614531 
" style="fill:none;stroke:#1764ab;stroke-linecap:square;stroke-width:1.5;"/>
   </g>
   <g id="line2d_83">
    <path clip-path="url(#pcdffa73ddb)" d="M 119.31875 415.614531 
" style="fill:none;stroke:#08306b;stroke-linecap:square;stroke-width:1.5;"/>
   </g>
   <g id="line2d_84">
    <path clip-path="url(#pcdffa73ddb)" d="M 119.31875 415.614531 
" style="fill:none;stroke:#000000;stroke-linecap:square;stroke-width:1.5;"/>
   </g>
   <g id="line2d_85">
    <path clip-path="url(#pcdffa73ddb)" d="M 119.31875 415.614531 
" style="fill:none;stroke:#000000;stroke-dasharray:1.5,2.475;stroke-dashoffset:0;stroke-width:1.5;"/>
   </g>
   <g id="line2d_86">
    <path clip-path="url(#pcdffa73ddb)" d="M 119.31875 415.614531 
" style="fill:none;stroke:#000000;stroke-linecap:square;stroke-width:1.5;"/>
   </g>
   <g id="line2d_87">
    <path clip-path="url(#pcdffa73ddb)" d="M 119.31875 415.614531 
" style="fill:none;stroke:#000000;stroke-dasharray:5.55,2.4;stroke-dashoffset:0;stroke-width:1.5;"/>
   </g>
   <g id="line2d_88">
    <path clip-path="url(#pcdffa73ddb)" d="M 119.31875 415.614531 
" style="fill:none;stroke:#000000;stroke-dasharray:9.6,2.4,1.5,2.4;stroke-dashoffset:0;stroke-width:1.5;"/>
   </g>
   <g id="line2d_89">
    <path clip-path="url(#pcdffa73ddb)" d="M 119.31875 415.614531 
" style="fill:none;stroke:#000000;stroke-dasharray:9.6,2.4,1.5,2.4;stroke-dashoffset:0;stroke-width:1.5;"/>
   </g>
   <g id="patch_3">
    <path d="M 119.31875 415.614531 
L 119.31875 35.094531 
" style="fill:none;stroke:#000000;stroke-linecap:square;stroke-linejoin:miter;stroke-width:0.8;"/>
   </g>
   <g id="patch_4">
    <path d="M 509.91875 415.614531 
L 509.91875 35.094531 
" style="fill:none;stroke:#000000;stroke-linecap:square;stroke-linejoin:miter;stroke-width:0.8;"/>
   </g>
   <g id="patch_5">
    <path d="M 119.31875 415.614531 
L 509.91875 415.614531 
" style="fill:none;stroke:#000000;stroke-linecap:square;stroke-linejoin:miter;stroke-width:0.8;"/>
   </g>
   <g id="patch_6">
    <path d="M 119.31875 35.094531 
L 509.91875 35.094531 
" style="fill:none;stroke:#000000;stroke-linecap:square;stroke-linejoin:miter;stroke-width:0.8;"/>
   </g>
   <g id="text_19">
    <!-- CANCER COUNT OVER TIME -->
    <defs>
     <path d="M 25.53125 0 
L -0.046875 71.578125 
L 15.625 71.578125 
L 33.734375 18.609375 
L 51.265625 71.578125 
L 66.609375 71.578125 
L 40.96875 0 
z
" id="Arial-BoldMT-86"/>
    </defs>
    <g transform="translate(141.003516 25.094531)scale(0.25 -0.25)">
     <use xlink:href="#Arial-BoldMT-67"/>
     <use x="72.216797" xlink:href="#Arial-BoldMT-65"/>
     <use x="144.433594" xlink:href="#Arial-BoldMT-78"/>
     <use x="216.650391" xlink:href="#Arial-BoldMT-67"/>
     <use x="288.867188" xlink:href="#Arial-BoldMT-69"/>
     <use x="355.566406" xlink:href="#Arial-BoldMT-82"/>
     <use x="427.783203" xlink:href="#Arial-BoldMT-32"/>
     <use x="455.566406" xlink:href="#Arial-BoldMT-67"/>
     <use x="527.783203" xlink:href="#Arial-BoldMT-79"/>
     <use x="605.566406" xlink:href="#Arial-BoldMT-85"/>
     <use x="677.783203" xlink:href="#Arial-BoldMT-78"/>
     <use x="750" xlink:href="#Arial-BoldMT-84"/>
     <use x="811.083984" xlink:href="#Arial-BoldMT-32"/>
     <use x="838.867188" xlink:href="#Arial-BoldMT-79"/>
     <use x="916.650391" xlink:href="#Arial-BoldMT-86"/>
     <use x="983.349609" xlink:href="#Arial-BoldMT-69"/>
     <use x="1050.048828" xlink:href="#Arial-BoldMT-82"/>
     <use x="1122.265625" xlink:href="#Arial-BoldMT-32"/>
     <use x="1150.048828" xlink:href="#Arial-BoldMT-84"/>
     <use x="1211.132812" xlink:href="#Arial-BoldMT-73"/>
     <use x="1238.916016" xlink:href="#Arial-BoldMT-77"/>
     <use x="1322.216797" xlink:href="#Arial-BoldMT-69"/>
    </g>
   </g>
   <g id="legend_1">
    <g id="line2d_90">
     <path d="M 518.91875 48.192969 
L 538.91875 48.192969 
" style="fill:none;stroke:#808080;stroke-linecap:square;stroke-width:1.5;"/>
    </g>
    <g id="line2d_91"/>
    <g id="text_20">
     <!-- SEEDED -->
     <defs>
      <path d="M 53.515625 70.515625 
L 53.515625 60.890625 
Q 47.90625 63.578125 42.921875 64.890625 
Q 37.9375 66.21875 33.296875 66.21875 
Q 25.25 66.21875 20.875 63.09375 
Q 16.5 59.96875 16.5 54.203125 
Q 16.5 49.359375 19.40625 46.890625 
Q 22.3125 44.4375 30.421875 42.921875 
L 36.375 41.703125 
Q 47.40625 39.59375 52.65625 34.296875 
Q 57.90625 29 57.90625 20.125 
Q 57.90625 9.515625 50.796875 4.046875 
Q 43.703125 -1.421875 29.984375 -1.421875 
Q 24.8125 -1.421875 18.96875 -0.25 
Q 13.140625 0.921875 6.890625 3.21875 
L 6.890625 13.375 
Q 12.890625 10.015625 18.65625 8.296875 
Q 24.421875 6.59375 29.984375 6.59375 
Q 38.421875 6.59375 43.015625 9.90625 
Q 47.609375 13.234375 47.609375 19.390625 
Q 47.609375 24.75 44.3125 27.78125 
Q 41.015625 30.8125 33.5 32.328125 
L 27.484375 33.5 
Q 16.453125 35.6875 11.515625 40.375 
Q 6.59375 45.0625 6.59375 53.421875 
Q 6.59375 63.09375 13.40625 68.65625 
Q 20.21875 74.21875 32.171875 74.21875 
Q 37.3125 74.21875 42.625 73.28125 
Q 47.953125 72.359375 53.515625 70.515625 
z
" id="DejaVuSans-83"/>
      <path d="M 9.8125 72.90625 
L 55.90625 72.90625 
L 55.90625 64.59375 
L 19.671875 64.59375 
L 19.671875 43.015625 
L 54.390625 43.015625 
L 54.390625 34.71875 
L 19.671875 34.71875 
L 19.671875 8.296875 
L 56.78125 8.296875 
L 56.78125 0 
L 9.8125 0 
z
" id="DejaVuSans-69"/>
      <path d="M 19.671875 64.796875 
L 19.671875 8.109375 
L 31.59375 8.109375 
Q 46.6875 8.109375 53.6875 14.9375 
Q 60.6875 21.78125 60.6875 36.53125 
Q 60.6875 51.171875 53.6875 57.984375 
Q 46.6875 64.796875 31.59375 64.796875 
z
M 9.8125 72.90625 
L 30.078125 72.90625 
Q 51.265625 72.90625 61.171875 64.09375 
Q 71.09375 55.28125 71.09375 36.53125 
Q 71.09375 17.671875 61.125 8.828125 
Q 51.171875 0 30.078125 0 
L 9.8125 0 
z
" id="DejaVuSans-68"/>
     </defs>
     <g transform="translate(546.91875 51.692969)scale(0.1 -0.1)">
      <use xlink:href="#DejaVuSans-83"/>
      <use x="63.476562" xlink:href="#DejaVuSans-69"/>
      <use x="126.660156" xlink:href="#DejaVuSans-69"/>
      <use x="189.84375" xlink:href="#DejaVuSans-68"/>
      <use x="266.845703" xlink:href="#DejaVuSans-69"/>
      <use x="330.029297" xlink:href="#DejaVuSans-68"/>
     </g>
    </g>
    <g id="line2d_92">
     <path d="M 518.91875 62.871094 
L 538.91875 62.871094 
" style="fill:none;stroke:#000000;stroke-linecap:square;stroke-width:1.5;"/>
    </g>
    <g id="line2d_93"/>
    <g id="text_21">
     <!-- 0 -->
     <g transform="translate(546.91875 66.371094)scale(0.1 -0.1)">
      <use xlink:href="#DejaVuSans-48"/>
     </g>
    </g>
    <g id="line2d_94">
     <path d="M 518.91875 77.549219 
L 538.91875 77.549219 
" style="fill:none;stroke:#d0e1f2;stroke-linecap:square;stroke-width:1.5;"/>
    </g>
    <g id="line2d_95"/>
    <g id="text_22">
     <!-- 100 -->
     <g transform="translate(546.91875 81.049219)scale(0.1 -0.1)">
      <use xlink:href="#DejaVuSans-49"/>
      <use x="63.623047" xlink:href="#DejaVuSans-48"/>
      <use x="127.246094" xlink:href="#DejaVuSans-48"/>
     </g>
    </g>
    <g id="line2d_96">
     <path d="M 518.91875 92.227344 
L 538.91875 92.227344 
" style="fill:none;stroke:#94c4df;stroke-linecap:square;stroke-width:1.5;"/>
    </g>
    <g id="line2d_97"/>
    <g id="text_23">
     <!-- 500 -->
     <g transform="translate(546.91875 95.727344)scale(0.1 -0.1)">
      <use xlink:href="#DejaVuSans-53"/>
      <use x="63.623047" xlink:href="#DejaVuSans-48"/>
      <use x="127.246094" xlink:href="#DejaVuSans-48"/>
     </g>
    </g>
    <g id="line2d_98">
     <path d="M 518.91875 106.905469 
L 538.91875 106.905469 
" style="fill:none;stroke:#4a98c9;stroke-linecap:square;stroke-width:1.5;"/>
    </g>
    <g id="line2d_99"/>
    <g id="text_24">
     <!-- 1000 -->
     <g transform="translate(546.91875 110.405469)scale(0.1 -0.1)">
      <use xlink:href="#DejaVuSans-49"/>
      <use x="63.623047" xlink:href="#DejaVuSans-48"/>
      <use x="127.246094" xlink:href="#DejaVuSans-48"/>
      <use x="190.869141" xlink:href="#DejaVuSans-48"/>
     </g>
    </g>
    <g id="line2d_100">
     <path d="M 518.91875 121.583594 
L 538.91875 121.583594 
" style="fill:none;stroke:#1764ab;stroke-linecap:square;stroke-width:1.5;"/>
    </g>
    <g id="line2d_101"/>
    <g id="text_25">
     <!-- 5000 -->
     <g transform="translate(546.91875 125.083594)scale(0.1 -0.1)">
      <use xlink:href="#DejaVuSans-53"/>
      <use x="63.623047" xlink:href="#DejaVuSans-48"/>
      <use x="127.246094" xlink:href="#DejaVuSans-48"/>
      <use x="190.869141" xlink:href="#DejaVuSans-48"/>
     </g>
    </g>
    <g id="line2d_102">
     <path d="M 518.91875 136.261719 
L 538.91875 136.261719 
" style="fill:none;stroke:#08306b;stroke-linecap:square;stroke-width:1.5;"/>
    </g>
    <g id="line2d_103"/>
    <g id="text_26">
     <!-- 10000 -->
     <g transform="translate(546.91875 139.761719)scale(0.1 -0.1)">
      <use xlink:href="#DejaVuSans-49"/>
      <use x="63.623047" xlink:href="#DejaVuSans-48"/>
      <use x="127.246094" xlink:href="#DejaVuSans-48"/>
      <use x="190.869141" xlink:href="#DejaVuSans-48"/>
      <use x="254.492188" xlink:href="#DejaVuSans-48"/>
     </g>
    </g>
    <g id="line2d_104">
     <path d="M 518.91875 150.939844 
L 538.91875 150.939844 
" style="fill:none;stroke:#000000;stroke-linecap:square;stroke-width:1.5;"/>
    </g>
    <g id="line2d_105"/>
    <g id="text_27">
     <!-- 0 -->
     <g transform="translate(546.91875 154.439844)scale(0.1 -0.1)">
      <use xlink:href="#DejaVuSans-48"/>
     </g>
    </g>
    <g id="line2d_106">
     <path d="M 518.91875 165.617969 
L 538.91875 165.617969 
" style="fill:none;stroke:#000000;stroke-dasharray:1.5,2.475;stroke-dashoffset:0;stroke-width:1.5;"/>
    </g>
    <g id="line2d_107"/>
    <g id="text_28">
     <!-- 250 -->
     <g transform="translate(546.91875 169.117969)scale(0.1 -0.1)">
      <use xlink:href="#DejaVuSans-50"/>
      <use x="63.623047" xlink:href="#DejaVuSans-53"/>
      <use x="127.246094" xlink:href="#DejaVuSans-48"/>
     </g>
    </g>
    <g id="line2d_108">
     <path d="M 518.91875 180.296094 
L 538.91875 180.296094 
" style="fill:none;stroke:#000000;stroke-linecap:square;stroke-width:1.5;"/>
    </g>
    <g id="line2d_109"/>
    <g id="text_29">
     <!-- 500 -->
     <g transform="translate(546.91875 183.796094)scale(0.1 -0.1)">
      <use xlink:href="#DejaVuSans-53"/>
      <use x="63.623047" xlink:href="#DejaVuSans-48"/>
      <use x="127.246094" xlink:href="#DejaVuSans-48"/>
     </g>
    </g>
    <g id="line2d_110">
     <path d="M 518.91875 194.974219 
L 538.91875 194.974219 
" style="fill:none;stroke:#000000;stroke-dasharray:5.55,2.4;stroke-dashoffset:0;stroke-width:1.5;"/>
    </g>
    <g id="line2d_111"/>
    <g id="text_30">
     <!-- 1000 -->
     <g transform="translate(546.91875 198.474219)scale(0.1 -0.1)">
      <use xlink:href="#DejaVuSans-49"/>
      <use x="63.623047" xlink:href="#DejaVuSans-48"/>
      <use x="127.246094" xlink:href="#DejaVuSans-48"/>
      <use x="190.869141" xlink:href="#DejaVuSans-48"/>
     </g>
    </g>
    <g id="line2d_112">
     <path d="M 518.91875 209.652344 
L 538.91875 209.652344 
" style="fill:none;stroke:#000000;stroke-dasharray:9.6,2.4,1.5,2.4;stroke-dashoffset:0;stroke-width:1.5;"/>
    </g>
    <g id="line2d_113"/>
    <g id="text_31">
     <!-- 5000 -->
     <g transform="translate(546.91875 213.152344)scale(0.1 -0.1)">
      <use xlink:href="#DejaVuSans-53"/>
      <use x="63.623047" xlink:href="#DejaVuSans-48"/>
      <use x="127.246094" xlink:href="#DejaVuSans-48"/>
      <use x="190.869141" xlink:href="#DejaVuSans-48"/>
     </g>
    </g>
    <g id="line2d_114">
     <path d="M 518.91875 224.330469 
L 538.91875 224.330469 
" style="fill:none;stroke:#000000;stroke-dasharray:9.6,2.4,1.5,2.4;stroke-dashoffset:0;stroke-width:1.5;"/>
    </g>
    <g id="line2d_115"/>
    <g id="text_32">
     <!-- 10000 -->
     <g transform="translate(546.91875 227.830469)scale(0.1 -0.1)">
      <use xlink:href="#DejaVuSans-49"/>
      <use x="63.623047" xlink:href="#DejaVuSans-48"/>
      <use x="127.246094" xlink:href="#DejaVuSans-48"/>
      <use x="190.869141" xlink:href="#DejaVuSans-48"/>
      <use x="254.492188" xlink:href="#DejaVuSans-48"/>
     </g>
    </g>
   </g>
  </g>
 </g>
 <defs>
  <clipPath id="pcdffa73ddb">
   <rect height="380.52" width="390.6" x="119.31875" y="35.094531"/>
  </clipPath>
 </defs>
</svg>
