<?xml version="1.0" encoding="utf-8" standalone="no"?>
<!DOCTYPE svg PUBLIC "-//W3C//DTD SVG 1.1//EN"
  "http://www.w3.org/Graphics/SVG/1.1/DTD/svg11.dtd">
<!-- Created with matplotlib (https://matplotlib.org/) -->
<svg height="487.617656pt" version="1.1" viewBox="0 0 598.823437 487.617656" width="598.823437pt" xmlns="http://www.w3.org/2000/svg" xmlns:xlink="http://www.w3.org/1999/xlink">
 <defs>
  <style type="text/css">
*{stroke-linecap:butt;stroke-linejoin:round;}
  </style>
 </defs>
 <g id="figure_1">
  <g id="patch_1">
   <path d="M 0 487.617656 
L 598.823437 487.617656 
L 598.823437 0 
L 0 0 
z
" style="fill:#ffffff;"/>
  </g>
  <g id="axes_1">
   <g id="patch_2">
    <path d="M 119.31875 415.614531 
L 509.91875 415.614531 
L 509.91875 35.094531 
L 119.31875 35.094531 
z
" style="fill:#ffffff;"/>
   </g>
   <g id="matplotlib.axis_1">
    <g id="xtick_1">
     <g id="line2d_1">
      <defs>
       <path d="M 0 0 
L 0 3.5 
" id="m0b7b9d3a5e" style="stroke:#000000;stroke-width:0.8;"/>
      </defs>
      <g>
       <use style="stroke:#000000;stroke-width:0.8;" x="119.31875" xlink:href="#m0b7b9d3a5e" y="415.614531"/>
      </g>
     </g>
     <g id="text_1">
      <!-- 0 -->
      <defs>
       <path d="M 31.78125 66.40625 
Q 24.171875 66.40625 20.328125 58.90625 
Q 16.5 51.421875 16.5 36.375 
Q 16.5 21.390625 20.328125 13.890625 
Q 24.171875 6.390625 31.78125 6.390625 
Q 39.453125 6.390625 43.28125 13.890625 
Q 47.125 21.390625 47.125 36.375 
Q 47.125 51.421875 43.28125 58.90625 
Q 39.453125 66.40625 31.78125 66.40625 
z
M 31.78125 74.21875 
Q 44.046875 74.21875 50.515625 64.515625 
Q 56.984375 54.828125 56.984375 36.375 
Q 56.984375 17.96875 50.515625 8.265625 
Q 44.046875 -1.421875 31.78125 -1.421875 
Q 19.53125 -1.421875 13.0625 8.265625 
Q 6.59375 17.96875 6.59375 36.375 
Q 6.59375 54.828125 13.0625 64.515625 
Q 19.53125 74.21875 31.78125 74.21875 
z
" id="DejaVuSans-48"/>
      </defs>
      <g transform="translate(109.775 445.409844)scale(0.3 -0.3)">
       <use xlink:href="#DejaVuSans-48"/>
      </g>
     </g>
    </g>
    <g id="xtick_2">
     <g id="line2d_2">
      <g>
       <use style="stroke:#000000;stroke-width:0.8;" x="175.11875" xlink:href="#m0b7b9d3a5e" y="415.614531"/>
      </g>
     </g>
     <g id="text_2">
      <!-- 1 -->
      <defs>
       <path d="M 12.40625 8.296875 
L 28.515625 8.296875 
L 28.515625 63.921875 
L 10.984375 60.40625 
L 10.984375 69.390625 
L 28.421875 72.90625 
L 38.28125 72.90625 
L 38.28125 8.296875 
L 54.390625 8.296875 
L 54.390625 0 
L 12.40625 0 
z
" id="DejaVuSans-49"/>
      </defs>
      <g transform="translate(165.575 445.409844)scale(0.3 -0.3)">
       <use xlink:href="#DejaVuSans-49"/>
      </g>
     </g>
    </g>
    <g id="xtick_3">
     <g id="line2d_3">
      <g>
       <use style="stroke:#000000;stroke-width:0.8;" x="230.91875" xlink:href="#m0b7b9d3a5e" y="415.614531"/>
      </g>
     </g>
     <g id="text_3">
      <!-- 2 -->
      <defs>
       <path d="M 19.1875 8.296875 
L 53.609375 8.296875 
L 53.609375 0 
L 7.328125 0 
L 7.328125 8.296875 
Q 12.9375 14.109375 22.625 23.890625 
Q 32.328125 33.6875 34.8125 36.53125 
Q 39.546875 41.84375 41.421875 45.53125 
Q 43.3125 49.21875 43.3125 52.78125 
Q 43.3125 58.59375 39.234375 62.25 
Q 35.15625 65.921875 28.609375 65.921875 
Q 23.96875 65.921875 18.8125 64.3125 
Q 13.671875 62.703125 7.8125 59.421875 
L 7.8125 69.390625 
Q 13.765625 71.78125 18.9375 73 
Q 24.125 74.21875 28.421875 74.21875 
Q 39.75 74.21875 46.484375 68.546875 
Q 53.21875 62.890625 53.21875 53.421875 
Q 53.21875 48.921875 51.53125 44.890625 
Q 49.859375 40.875 45.40625 35.40625 
Q 44.1875 33.984375 37.640625 27.21875 
Q 31.109375 20.453125 19.1875 8.296875 
z
" id="DejaVuSans-50"/>
      </defs>
      <g transform="translate(221.375 445.409844)scale(0.3 -0.3)">
       <use xlink:href="#DejaVuSans-50"/>
      </g>
     </g>
    </g>
    <g id="xtick_4">
     <g id="line2d_4">
      <g>
       <use style="stroke:#000000;stroke-width:0.8;" x="286.71875" xlink:href="#m0b7b9d3a5e" y="415.614531"/>
      </g>
     </g>
     <g id="text_4">
      <!-- 3 -->
      <defs>
       <path d="M 40.578125 39.3125 
Q 47.65625 37.796875 51.625 33 
Q 55.609375 28.21875 55.609375 21.1875 
Q 55.609375 10.40625 48.1875 4.484375 
Q 40.765625 -1.421875 27.09375 -1.421875 
Q 22.515625 -1.421875 17.65625 -0.515625 
Q 12.796875 0.390625 7.625 2.203125 
L 7.625 11.71875 
Q 11.71875 9.328125 16.59375 8.109375 
Q 21.484375 6.890625 26.8125 6.890625 
Q 36.078125 6.890625 40.9375 10.546875 
Q 45.796875 14.203125 45.796875 21.1875 
Q 45.796875 27.640625 41.28125 31.265625 
Q 36.765625 34.90625 28.71875 34.90625 
L 20.21875 34.90625 
L 20.21875 43.015625 
L 29.109375 43.015625 
Q 36.375 43.015625 40.234375 45.921875 
Q 44.09375 48.828125 44.09375 54.296875 
Q 44.09375 59.90625 40.109375 62.90625 
Q 36.140625 65.921875 28.71875 65.921875 
Q 24.65625 65.921875 20.015625 65.03125 
Q 15.375 64.15625 9.8125 62.3125 
L 9.8125 71.09375 
Q 15.4375 72.65625 20.34375 73.4375 
Q 25.25 74.21875 29.59375 74.21875 
Q 40.828125 74.21875 47.359375 69.109375 
Q 53.90625 64.015625 53.90625 55.328125 
Q 53.90625 49.265625 50.4375 45.09375 
Q 46.96875 40.921875 40.578125 39.3125 
z
" id="DejaVuSans-51"/>
      </defs>
      <g transform="translate(277.175 445.409844)scale(0.3 -0.3)">
       <use xlink:href="#DejaVuSans-51"/>
      </g>
     </g>
    </g>
    <g id="xtick_5">
     <g id="line2d_5">
      <g>
       <use style="stroke:#000000;stroke-width:0.8;" x="342.51875" xlink:href="#m0b7b9d3a5e" y="415.614531"/>
      </g>
     </g>
     <g id="text_5">
      <!-- 4 -->
      <defs>
       <path d="M 37.796875 64.3125 
L 12.890625 25.390625 
L 37.796875 25.390625 
z
M 35.203125 72.90625 
L 47.609375 72.90625 
L 47.609375 25.390625 
L 58.015625 25.390625 
L 58.015625 17.1875 
L 47.609375 17.1875 
L 47.609375 0 
L 37.796875 0 
L 37.796875 17.1875 
L 4.890625 17.1875 
L 4.890625 26.703125 
z
" id="DejaVuSans-52"/>
      </defs>
      <g transform="translate(332.975 445.409844)scale(0.3 -0.3)">
       <use xlink:href="#DejaVuSans-52"/>
      </g>
     </g>
    </g>
    <g id="xtick_6">
     <g id="line2d_6">
      <g>
       <use style="stroke:#000000;stroke-width:0.8;" x="398.31875" xlink:href="#m0b7b9d3a5e" y="415.614531"/>
      </g>
     </g>
     <g id="text_6">
      <!-- 5 -->
      <defs>
       <path d="M 10.796875 72.90625 
L 49.515625 72.90625 
L 49.515625 64.59375 
L 19.828125 64.59375 
L 19.828125 46.734375 
Q 21.96875 47.46875 24.109375 47.828125 
Q 26.265625 48.1875 28.421875 48.1875 
Q 40.625 48.1875 47.75 41.5 
Q 54.890625 34.8125 54.890625 23.390625 
Q 54.890625 11.625 47.5625 5.09375 
Q 40.234375 -1.421875 26.90625 -1.421875 
Q 22.3125 -1.421875 17.546875 -0.640625 
Q 12.796875 0.140625 7.71875 1.703125 
L 7.71875 11.625 
Q 12.109375 9.234375 16.796875 8.0625 
Q 21.484375 6.890625 26.703125 6.890625 
Q 35.15625 6.890625 40.078125 11.328125 
Q 45.015625 15.765625 45.015625 23.390625 
Q 45.015625 31 40.078125 35.4375 
Q 35.15625 39.890625 26.703125 39.890625 
Q 22.75 39.890625 18.8125 39.015625 
Q 14.890625 38.140625 10.796875 36.28125 
z
" id="DejaVuSans-53"/>
      </defs>
      <g transform="translate(388.775 445.409844)scale(0.3 -0.3)">
       <use xlink:href="#DejaVuSans-53"/>
      </g>
     </g>
    </g>
    <g id="xtick_7">
     <g id="line2d_7">
      <g>
       <use style="stroke:#000000;stroke-width:0.8;" x="454.11875" xlink:href="#m0b7b9d3a5e" y="415.614531"/>
      </g>
     </g>
     <g id="text_7">
      <!-- 6 -->
      <defs>
       <path d="M 33.015625 40.375 
Q 26.375 40.375 22.484375 35.828125 
Q 18.609375 31.296875 18.609375 23.390625 
Q 18.609375 15.53125 22.484375 10.953125 
Q 26.375 6.390625 33.015625 6.390625 
Q 39.65625 6.390625 43.53125 10.953125 
Q 47.40625 15.53125 47.40625 23.390625 
Q 47.40625 31.296875 43.53125 35.828125 
Q 39.65625 40.375 33.015625 40.375 
z
M 52.59375 71.296875 
L 52.59375 62.3125 
Q 48.875 64.0625 45.09375 64.984375 
Q 41.3125 65.921875 37.59375 65.921875 
Q 27.828125 65.921875 22.671875 59.328125 
Q 17.53125 52.734375 16.796875 39.40625 
Q 19.671875 43.65625 24.015625 45.921875 
Q 28.375 48.1875 33.59375 48.1875 
Q 44.578125 48.1875 50.953125 41.515625 
Q 57.328125 34.859375 57.328125 23.390625 
Q 57.328125 12.15625 50.6875 5.359375 
Q 44.046875 -1.421875 33.015625 -1.421875 
Q 20.359375 -1.421875 13.671875 8.265625 
Q 6.984375 17.96875 6.984375 36.375 
Q 6.984375 53.65625 15.1875 63.9375 
Q 23.390625 74.21875 37.203125 74.21875 
Q 40.921875 74.21875 44.703125 73.484375 
Q 48.484375 72.75 52.59375 71.296875 
z
" id="DejaVuSans-54"/>
      </defs>
      <g transform="translate(444.575 445.409844)scale(0.3 -0.3)">
       <use xlink:href="#DejaVuSans-54"/>
      </g>
     </g>
    </g>
    <g id="xtick_8">
     <g id="line2d_8">
      <g>
       <use style="stroke:#000000;stroke-width:0.8;" x="509.91875" xlink:href="#m0b7b9d3a5e" y="415.614531"/>
      </g>
     </g>
     <g id="text_8">
      <!-- 7 -->
      <defs>
       <path d="M 8.203125 72.90625 
L 55.078125 72.90625 
L 55.078125 68.703125 
L 28.609375 0 
L 18.3125 0 
L 43.21875 64.59375 
L 8.203125 64.59375 
z
" id="DejaVuSans-55"/>
      </defs>
      <g transform="translate(500.375 445.409844)scale(0.3 -0.3)">
       <use xlink:href="#DejaVuSans-55"/>
      </g>
     </g>
    </g>
    <g id="text_9">
     <!-- TIME (DAYS) -->
     <defs>
      <path d="M 23.390625 0 
L 23.390625 59.46875 
L 2.15625 59.46875 
L 2.15625 71.578125 
L 59.03125 71.578125 
L 59.03125 59.46875 
L 37.84375 59.46875 
L 37.84375 0 
z
" id="Arial-BoldMT-84"/>
      <path d="M 6.84375 0 
L 6.84375 71.578125 
L 21.296875 71.578125 
L 21.296875 0 
z
" id="Arial-BoldMT-73"/>
      <path d="M 7.078125 0 
L 7.078125 71.578125 
L 28.71875 71.578125 
L 41.703125 22.75 
L 54.546875 71.578125 
L 76.21875 71.578125 
L 76.21875 0 
L 62.796875 0 
L 62.796875 56.34375 
L 48.578125 0 
L 34.671875 0 
L 20.515625 56.34375 
L 20.515625 0 
z
" id="Arial-BoldMT-77"/>
      <path d="M 7.28125 0 
L 7.28125 71.578125 
L 60.359375 71.578125 
L 60.359375 59.46875 
L 21.734375 59.46875 
L 21.734375 43.609375 
L 57.671875 43.609375 
L 57.671875 31.546875 
L 21.734375 31.546875 
L 21.734375 12.0625 
L 61.71875 12.0625 
L 61.71875 0 
z
" id="Arial-BoldMT-69"/>
      <path id="Arial-BoldMT-32"/>
      <path d="M 29.9375 -21.046875 
L 20.515625 -21.046875 
Q 13.03125 -9.765625 9.125 2.390625 
Q 5.21875 14.546875 5.21875 25.921875 
Q 5.21875 40.046875 10.0625 52.640625 
Q 14.265625 63.578125 20.703125 72.796875 
L 30.078125 72.796875 
Q 23.390625 58.015625 20.875 47.625 
Q 18.359375 37.25 18.359375 25.640625 
Q 18.359375 17.625 19.84375 9.21875 
Q 21.34375 0.828125 23.921875 -6.734375 
Q 25.640625 -11.71875 29.9375 -21.046875 
z
" id="Arial-BoldMT-40"/>
      <path d="M 7.234375 71.578125 
L 33.640625 71.578125 
Q 42.578125 71.578125 47.265625 70.21875 
Q 53.5625 68.359375 58.046875 63.625 
Q 62.546875 58.890625 64.890625 52.03125 
Q 67.234375 45.171875 67.234375 35.109375 
Q 67.234375 26.265625 65.046875 19.875 
Q 62.359375 12.0625 57.375 7.234375 
Q 53.609375 3.5625 47.21875 1.515625 
Q 42.4375 0 34.421875 0 
L 7.234375 0 
z
M 21.6875 59.46875 
L 21.6875 12.0625 
L 32.46875 12.0625 
Q 38.53125 12.0625 41.21875 12.75 
Q 44.734375 13.625 47.046875 15.71875 
Q 49.359375 17.828125 50.828125 22.625 
Q 52.296875 27.4375 52.296875 35.75 
Q 52.296875 44.046875 50.828125 48.484375 
Q 49.359375 52.9375 46.71875 55.421875 
Q 44.09375 57.90625 40.046875 58.796875 
Q 37.015625 59.46875 28.171875 59.46875 
z
" id="Arial-BoldMT-68"/>
      <path d="M 71.828125 0 
L 56.109375 0 
L 49.859375 16.265625 
L 21.234375 16.265625 
L 15.328125 0 
L 0 0 
L 27.875 71.578125 
L 43.171875 71.578125 
z
M 45.21875 28.328125 
L 35.359375 54.890625 
L 25.6875 28.328125 
z
" id="Arial-BoldMT-65"/>
      <path d="M 26.078125 0 
L 26.078125 30.125 
L -0.140625 71.578125 
L 16.796875 71.578125 
L 33.640625 43.265625 
L 50.140625 71.578125 
L 66.796875 71.578125 
L 40.484375 30.03125 
L 40.484375 0 
z
" id="Arial-BoldMT-89"/>
      <path d="M 3.609375 23.296875 
L 17.671875 24.65625 
Q 18.953125 17.578125 22.828125 14.25 
Q 26.703125 10.9375 33.296875 10.9375 
Q 40.28125 10.9375 43.8125 13.890625 
Q 47.359375 16.84375 47.359375 20.796875 
Q 47.359375 23.34375 45.875 25.125 
Q 44.390625 26.90625 40.671875 28.21875 
Q 38.140625 29.109375 29.109375 31.34375 
Q 17.484375 34.234375 12.796875 38.421875 
Q 6.203125 44.34375 6.203125 52.828125 
Q 6.203125 58.296875 9.296875 63.0625 
Q 12.40625 67.828125 18.234375 70.3125 
Q 24.078125 72.796875 32.328125 72.796875 
Q 45.796875 72.796875 52.609375 66.890625 
Q 59.421875 60.984375 59.765625 51.125 
L 45.3125 50.484375 
Q 44.390625 56 41.328125 58.421875 
Q 38.28125 60.84375 32.171875 60.84375 
Q 25.875 60.84375 22.3125 58.25 
Q 20.015625 56.59375 20.015625 53.8125 
Q 20.015625 51.265625 22.171875 49.46875 
Q 24.90625 47.171875 35.453125 44.671875 
Q 46 42.1875 51.046875 39.515625 
Q 56.109375 36.859375 58.953125 32.25 
Q 61.8125 27.640625 61.8125 20.84375 
Q 61.8125 14.703125 58.390625 9.328125 
Q 54.984375 3.953125 48.734375 1.34375 
Q 42.484375 -1.265625 33.15625 -1.265625 
Q 19.578125 -1.265625 12.296875 5 
Q 5.03125 11.28125 3.609375 23.296875 
z
" id="Arial-BoldMT-83"/>
      <path d="M 3.375 -21.046875 
Q 7.421875 -12.359375 9.078125 -7.71875 
Q 10.75 -3.078125 12.15625 2.96875 
Q 13.578125 9.03125 14.25 14.46875 
Q 14.9375 19.921875 14.9375 25.640625 
Q 14.9375 37.25 12.453125 47.625 
Q 9.96875 58.015625 3.265625 72.796875 
L 12.59375 72.796875 
Q 19.96875 62.3125 24.046875 50.53125 
Q 28.125 38.765625 28.125 26.65625 
Q 28.125 16.453125 24.90625 4.78125 
Q 21.234375 -8.296875 12.84375 -21.046875 
z
" id="Arial-BoldMT-41"/>
     </defs>
     <g transform="translate(253.525 476.208281)scale(0.2 -0.2)">
      <use xlink:href="#Arial-BoldMT-84"/>
      <use x="61.083984" xlink:href="#Arial-BoldMT-73"/>
      <use x="88.867188" xlink:href="#Arial-BoldMT-77"/>
      <use x="172.167969" xlink:href="#Arial-BoldMT-69"/>
      <use x="238.867188" xlink:href="#Arial-BoldMT-32"/>
      <use x="266.650391" xlink:href="#Arial-BoldMT-40"/>
      <use x="299.951172" xlink:href="#Arial-BoldMT-68"/>
      <use x="372.167969" xlink:href="#Arial-BoldMT-65"/>
      <use x="444.244141" xlink:href="#Arial-BoldMT-89"/>
      <use x="510.943359" xlink:href="#Arial-BoldMT-83"/>
      <use x="577.642578" xlink:href="#Arial-BoldMT-41"/>
     </g>
    </g>
   </g>
   <g id="matplotlib.axis_2">
    <g id="ytick_1">
     <g id="line2d_9">
      <defs>
       <path d="M 0 0 
L -3.5 0 
" id="m26d6a035e6" style="stroke:#000000;stroke-width:0.8;"/>
      </defs>
      <g>
       <use style="stroke:#000000;stroke-width:0.8;" x="119.31875" xlink:href="#m26d6a035e6" y="415.614531"/>
      </g>
     </g>
     <g id="text_10">
      <!-- 0 -->
      <g transform="translate(93.23125 427.012187)scale(0.3 -0.3)">
       <use xlink:href="#DejaVuSans-48"/>
      </g>
     </g>
    </g>
    <g id="ytick_2">
     <g id="line2d_10">
      <g>
       <use style="stroke:#000000;stroke-width:0.8;" x="119.31875" xlink:href="#m26d6a035e6" y="346.847928"/>
      </g>
     </g>
     <g id="text_11">
      <!-- 200 -->
      <g transform="translate(55.05625 358.245584)scale(0.3 -0.3)">
       <use xlink:href="#DejaVuSans-50"/>
       <use x="63.623047" xlink:href="#DejaVuSans-48"/>
       <use x="127.246094" xlink:href="#DejaVuSans-48"/>
      </g>
     </g>
    </g>
    <g id="ytick_3">
     <g id="line2d_11">
      <g>
       <use style="stroke:#000000;stroke-width:0.8;" x="119.31875" xlink:href="#m26d6a035e6" y="278.081324"/>
      </g>
     </g>
     <g id="text_12">
      <!-- 400 -->
      <g transform="translate(55.05625 289.478981)scale(0.3 -0.3)">
       <use xlink:href="#DejaVuSans-52"/>
       <use x="63.623047" xlink:href="#DejaVuSans-48"/>
       <use x="127.246094" xlink:href="#DejaVuSans-48"/>
      </g>
     </g>
    </g>
    <g id="ytick_4">
     <g id="line2d_12">
      <g>
       <use style="stroke:#000000;stroke-width:0.8;" x="119.31875" xlink:href="#m26d6a035e6" y="209.314721"/>
      </g>
     </g>
     <g id="text_13">
      <!-- 600 -->
      <g transform="translate(55.05625 220.712377)scale(0.3 -0.3)">
       <use xlink:href="#DejaVuSans-54"/>
       <use x="63.623047" xlink:href="#DejaVuSans-48"/>
       <use x="127.246094" xlink:href="#DejaVuSans-48"/>
      </g>
     </g>
    </g>
    <g id="ytick_5">
     <g id="line2d_13">
      <g>
       <use style="stroke:#000000;stroke-width:0.8;" x="119.31875" xlink:href="#m26d6a035e6" y="140.548118"/>
      </g>
     </g>
     <g id="text_14">
      <!-- 800 -->
      <defs>
       <path d="M 31.78125 34.625 
Q 24.75 34.625 20.71875 30.859375 
Q 16.703125 27.09375 16.703125 20.515625 
Q 16.703125 13.921875 20.71875 10.15625 
Q 24.75 6.390625 31.78125 6.390625 
Q 38.8125 6.390625 42.859375 10.171875 
Q 46.921875 13.96875 46.921875 20.515625 
Q 46.921875 27.09375 42.890625 30.859375 
Q 38.875 34.625 31.78125 34.625 
z
M 21.921875 38.8125 
Q 15.578125 40.375 12.03125 44.71875 
Q 8.5 49.078125 8.5 55.328125 
Q 8.5 64.0625 14.71875 69.140625 
Q 20.953125 74.21875 31.78125 74.21875 
Q 42.671875 74.21875 48.875 69.140625 
Q 55.078125 64.0625 55.078125 55.328125 
Q 55.078125 49.078125 51.53125 44.71875 
Q 48 40.375 41.703125 38.8125 
Q 48.828125 37.15625 52.796875 32.3125 
Q 56.78125 27.484375 56.78125 20.515625 
Q 56.78125 9.90625 50.3125 4.234375 
Q 43.84375 -1.421875 31.78125 -1.421875 
Q 19.734375 -1.421875 13.25 4.234375 
Q 6.78125 9.90625 6.78125 20.515625 
Q 6.78125 27.484375 10.78125 32.3125 
Q 14.796875 37.15625 21.921875 38.8125 
z
M 18.3125 54.390625 
Q 18.3125 48.734375 21.84375 45.5625 
Q 25.390625 42.390625 31.78125 42.390625 
Q 38.140625 42.390625 41.71875 45.5625 
Q 45.3125 48.734375 45.3125 54.390625 
Q 45.3125 60.0625 41.71875 63.234375 
Q 38.140625 66.40625 31.78125 66.40625 
Q 25.390625 66.40625 21.84375 63.234375 
Q 18.3125 60.0625 18.3125 54.390625 
z
" id="DejaVuSans-56"/>
      </defs>
      <g transform="translate(55.05625 151.945774)scale(0.3 -0.3)">
       <use xlink:href="#DejaVuSans-56"/>
       <use x="63.623047" xlink:href="#DejaVuSans-48"/>
       <use x="127.246094" xlink:href="#DejaVuSans-48"/>
      </g>
     </g>
    </g>
    <g id="ytick_6">
     <g id="line2d_14">
      <g>
       <use style="stroke:#000000;stroke-width:0.8;" x="119.31875" xlink:href="#m26d6a035e6" y="71.781514"/>
      </g>
     </g>
     <g id="text_15">
      <!-- 1000 -->
      <g transform="translate(35.96875 83.17917)scale(0.3 -0.3)">
       <use xlink:href="#DejaVuSans-49"/>
       <use x="63.623047" xlink:href="#DejaVuSans-48"/>
       <use x="127.246094" xlink:href="#DejaVuSans-48"/>
       <use x="190.869141" xlink:href="#DejaVuSans-48"/>
      </g>
     </g>
    </g>
    <g id="text_16">
     <!-- HEALTHY CELL COUNTS LYSED (NUMBERS) -->
     <defs>
      <path d="M 7.328125 0 
L 7.328125 71.578125 
L 21.78125 71.578125 
L 21.78125 43.40625 
L 50.09375 43.40625 
L 50.09375 71.578125 
L 64.546875 71.578125 
L 64.546875 0 
L 50.09375 0 
L 50.09375 31.296875 
L 21.78125 31.296875 
L 21.78125 0 
z
" id="Arial-BoldMT-72"/>
      <path d="M 7.671875 0 
L 7.671875 71 
L 22.125 71 
L 22.125 12.0625 
L 58.0625 12.0625 
L 58.0625 0 
z
" id="Arial-BoldMT-76"/>
      <path d="M 53.078125 26.3125 
L 67.09375 21.875 
Q 63.875 10.15625 56.375 4.46875 
Q 48.875 -1.21875 37.359375 -1.21875 
Q 23.09375 -1.21875 13.90625 8.515625 
Q 4.734375 18.265625 4.734375 35.15625 
Q 4.734375 53.03125 13.953125 62.90625 
Q 23.1875 72.796875 38.234375 72.796875 
Q 51.375 72.796875 59.578125 65.046875 
Q 64.453125 60.453125 66.890625 51.859375 
L 52.59375 48.4375 
Q 51.3125 54 47.28125 57.21875 
Q 43.265625 60.453125 37.5 60.453125 
Q 29.546875 60.453125 24.578125 54.734375 
Q 19.625 49.03125 19.625 36.234375 
Q 19.625 22.65625 24.5 16.890625 
Q 29.390625 11.140625 37.203125 11.140625 
Q 42.96875 11.140625 47.109375 14.796875 
Q 51.265625 18.453125 53.078125 26.3125 
z
" id="Arial-BoldMT-67"/>
      <path d="M 4.34375 35.359375 
Q 4.34375 46.296875 7.625 53.71875 
Q 10.0625 59.1875 14.28125 63.53125 
Q 18.5 67.875 23.53125 69.96875 
Q 30.21875 72.796875 38.96875 72.796875 
Q 54.78125 72.796875 64.28125 62.984375 
Q 73.78125 53.171875 73.78125 35.6875 
Q 73.78125 18.359375 64.359375 8.5625 
Q 54.9375 -1.21875 39.15625 -1.21875 
Q 23.1875 -1.21875 13.765625 8.515625 
Q 4.34375 18.265625 4.34375 35.359375 
z
M 19.234375 35.84375 
Q 19.234375 23.6875 24.84375 17.40625 
Q 30.46875 11.140625 39.109375 11.140625 
Q 47.75 11.140625 53.296875 17.359375 
Q 58.84375 23.578125 58.84375 36.03125 
Q 58.84375 48.34375 53.4375 54.390625 
Q 48.046875 60.453125 39.109375 60.453125 
Q 30.171875 60.453125 24.703125 54.3125 
Q 19.234375 48.1875 19.234375 35.84375 
z
" id="Arial-BoldMT-79"/>
      <path d="M 7.171875 71.578125 
L 21.625 71.578125 
L 21.625 32.8125 
Q 21.625 23.578125 22.171875 20.84375 
Q 23.09375 16.453125 26.578125 13.796875 
Q 30.078125 11.140625 36.140625 11.140625 
Q 42.28125 11.140625 45.40625 13.640625 
Q 48.53125 16.15625 49.171875 19.8125 
Q 49.8125 23.484375 49.8125 31.984375 
L 49.8125 71.578125 
L 64.265625 71.578125 
L 64.265625 33.984375 
Q 64.265625 21.09375 63.09375 15.765625 
Q 61.921875 10.453125 58.765625 6.78125 
Q 55.609375 3.125 50.328125 0.953125 
Q 45.0625 -1.21875 36.578125 -1.21875 
Q 26.3125 -1.21875 21.015625 1.140625 
Q 15.71875 3.515625 12.640625 7.296875 
Q 9.578125 11.078125 8.59375 15.234375 
Q 7.171875 21.390625 7.171875 33.40625 
z
" id="Arial-BoldMT-85"/>
      <path d="M 7.421875 0 
L 7.421875 71.578125 
L 21.484375 71.578125 
L 50.78125 23.78125 
L 50.78125 71.578125 
L 64.203125 71.578125 
L 64.203125 0 
L 49.703125 0 
L 20.84375 46.6875 
L 20.84375 0 
z
" id="Arial-BoldMT-78"/>
      <path d="M 7.328125 71.578125 
L 35.9375 71.578125 
Q 44.4375 71.578125 48.609375 70.875 
Q 52.78125 70.171875 56.078125 67.921875 
Q 59.375 65.671875 61.5625 61.9375 
Q 63.765625 58.203125 63.765625 53.5625 
Q 63.765625 48.53125 61.046875 44.328125 
Q 58.34375 40.140625 53.71875 38.03125 
Q 60.25 36.140625 63.765625 31.546875 
Q 67.28125 26.953125 67.28125 20.75 
Q 67.28125 15.875 65.015625 11.25 
Q 62.75 6.640625 58.8125 3.875 
Q 54.890625 1.125 49.125 0.484375 
Q 45.515625 0.09375 31.6875 0 
L 7.328125 0 
z
M 21.78125 59.671875 
L 21.78125 43.109375 
L 31.25 43.109375 
Q 39.703125 43.109375 41.75 43.359375 
Q 45.453125 43.796875 47.578125 45.921875 
Q 49.703125 48.046875 49.703125 51.515625 
Q 49.703125 54.828125 47.875 56.90625 
Q 46.046875 58.984375 42.4375 59.421875 
Q 40.28125 59.671875 30.078125 59.671875 
z
M 21.78125 31.203125 
L 21.78125 12.0625 
L 35.15625 12.0625 
Q 42.96875 12.0625 45.0625 12.5 
Q 48.296875 13.09375 50.3125 15.359375 
Q 52.34375 17.625 52.34375 21.4375 
Q 52.34375 24.65625 50.78125 26.90625 
Q 49.21875 29.15625 46.265625 30.171875 
Q 43.3125 31.203125 33.453125 31.203125 
z
" id="Arial-BoldMT-66"/>
      <path d="M 7.328125 0 
L 7.328125 71.578125 
L 37.75 71.578125 
Q 49.21875 71.578125 54.421875 69.640625 
Q 59.625 67.71875 62.75 62.78125 
Q 65.875 57.859375 65.875 51.515625 
Q 65.875 43.453125 61.125 38.203125 
Q 56.390625 32.953125 46.96875 31.59375 
Q 51.65625 28.859375 54.703125 25.578125 
Q 57.765625 22.3125 62.9375 13.96875 
L 71.6875 0 
L 54.390625 0 
L 43.953125 15.578125 
Q 38.375 23.921875 36.328125 26.09375 
Q 34.28125 28.265625 31.984375 29.078125 
Q 29.6875 29.890625 24.703125 29.890625 
L 21.78125 29.890625 
L 21.78125 0 
z
M 21.78125 41.3125 
L 32.46875 41.3125 
Q 42.875 41.3125 45.453125 42.1875 
Q 48.046875 43.0625 49.515625 45.203125 
Q 50.984375 47.359375 50.984375 50.59375 
Q 50.984375 54.203125 49.046875 56.421875 
Q 47.125 58.640625 43.609375 59.234375 
Q 41.84375 59.46875 33.0625 59.46875 
L 21.78125 59.46875 
z
" id="Arial-BoldMT-82"/>
     </defs>
     <g transform="translate(21.759375 442.548281)rotate(-90)scale(0.2 -0.2)">
      <use xlink:href="#Arial-BoldMT-72"/>
      <use x="72.216797" xlink:href="#Arial-BoldMT-69"/>
      <use x="138.916016" xlink:href="#Arial-BoldMT-65"/>
      <use x="211.132812" xlink:href="#Arial-BoldMT-76"/>
      <use x="272.107422" xlink:href="#Arial-BoldMT-84"/>
      <use x="333.191406" xlink:href="#Arial-BoldMT-72"/>
      <use x="405.408203" xlink:href="#Arial-BoldMT-89"/>
      <use x="472.091797" xlink:href="#Arial-BoldMT-32"/>
      <use x="499.875" xlink:href="#Arial-BoldMT-67"/>
      <use x="572.091797" xlink:href="#Arial-BoldMT-69"/>
      <use x="638.791016" xlink:href="#Arial-BoldMT-76"/>
      <use x="699.875" xlink:href="#Arial-BoldMT-76"/>
      <use x="760.943359" xlink:href="#Arial-BoldMT-32"/>
      <use x="788.726562" xlink:href="#Arial-BoldMT-67"/>
      <use x="860.943359" xlink:href="#Arial-BoldMT-79"/>
      <use x="938.726562" xlink:href="#Arial-BoldMT-85"/>
      <use x="1010.943359" xlink:href="#Arial-BoldMT-78"/>
      <use x="1083.160156" xlink:href="#Arial-BoldMT-84"/>
      <use x="1144.244141" xlink:href="#Arial-BoldMT-83"/>
      <use x="1210.943359" xlink:href="#Arial-BoldMT-32"/>
      <use x="1238.726562" xlink:href="#Arial-BoldMT-76"/>
      <use x="1299.669922" xlink:href="#Arial-BoldMT-89"/>
      <use x="1366.369141" xlink:href="#Arial-BoldMT-83"/>
      <use x="1433.068359" xlink:href="#Arial-BoldMT-69"/>
      <use x="1499.767578" xlink:href="#Arial-BoldMT-68"/>
      <use x="1571.984375" xlink:href="#Arial-BoldMT-32"/>
      <use x="1599.767578" xlink:href="#Arial-BoldMT-40"/>
      <use x="1633.068359" xlink:href="#Arial-BoldMT-78"/>
      <use x="1705.285156" xlink:href="#Arial-BoldMT-85"/>
      <use x="1777.501953" xlink:href="#Arial-BoldMT-77"/>
      <use x="1860.802734" xlink:href="#Arial-BoldMT-66"/>
      <use x="1933.019531" xlink:href="#Arial-BoldMT-69"/>
      <use x="1999.71875" xlink:href="#Arial-BoldMT-82"/>
      <use x="2071.935547" xlink:href="#Arial-BoldMT-83"/>
      <use x="2138.634766" xlink:href="#Arial-BoldMT-41"/>
     </g>
    </g>
   </g>
   <g id="line2d_15">
    <path clip-path="url(#p4a175890ca)" d="M 119.31875 415.614531 
L 147.21875 415.614531 
L 175.11875 415.614531 
L 203.01875 414.239199 
L 230.91875 413.895366 
L 258.81875 413.551533 
L 286.71875 412.520034 
L 314.61875 404.955708 
L 342.51875 326.217947 
L 370.41875 232.695366 
L 398.31875 173.556087 
L 426.21875 120.605803 
L 454.11875 97.56899 
L 482.01875 83.128004 
L 509.91875 74.532178 
" style="fill:none;stroke:#08306b;stroke-linecap:square;stroke-width:1.5;"/>
   </g>
   <g id="line2d_16">
    <path clip-path="url(#p4a175890ca)" d="M 119.31875 415.614531 
L 147.21875 415.270698 
L 175.11875 415.270698 
L 203.01875 415.270698 
L 230.91875 414.926865 
L 258.81875 413.551533 
L 286.71875 413.2077 
L 314.61875 401.517378 
L 342.51875 321.748118 
L 370.41875 236.477529 
L 398.31875 167.02326 
L 426.21875 113.385309 
L 454.11875 86.566334 
L 482.01875 76.939009 
L 509.91875 66.967852 
" style="fill:none;stroke:#08306b;stroke-linecap:square;stroke-width:1.5;"/>
   </g>
   <g id="line2d_17">
    <path clip-path="url(#p4a175890ca)" d="M 119.31875 415.614531 
L 147.21875 414.583032 
L 175.11875 414.583032 
L 203.01875 414.239199 
L 230.91875 413.2077 
L 258.81875 412.863867 
L 286.71875 411.832368 
L 314.61875 401.861211 
L 342.51875 312.120793 
L 370.41875 213.440717 
L 398.31875 148.80011 
L 426.21875 96.193658 
L 454.11875 72.46918 
L 482.01875 61.466524 
L 509.91875 53.214531 
" style="fill:none;stroke:#08306b;stroke-linecap:square;stroke-width:1.5;"/>
   </g>
   <g id="line2d_18">
    <path clip-path="url(#p4a175890ca)" d="M 119.31875 415.614531 
L 147.21875 415.270698 
L 175.11875 414.926865 
L 203.01875 414.926865 
L 230.91875 414.239199 
L 258.81875 413.551533 
L 286.71875 412.520034 
L 314.61875 404.268042 
L 342.51875 323.811116 
L 370.41875 233.039199 
L 398.31875 176.650584 
L 426.21875 119.574304 
L 454.11875 98.60049 
L 482.01875 87.597833 
L 509.91875 78.314341 
" style="fill:none;stroke:#08306b;stroke-linecap:square;stroke-width:1.5;"/>
   </g>
   <g id="line2d_19">
    <path clip-path="url(#p4a175890ca)" d="M 119.31875 415.614531 
L 147.21875 414.926865 
L 175.11875 414.926865 
L 203.01875 414.926865 
L 230.91875 414.239199 
L 258.81875 413.551533 
L 286.71875 412.863867 
L 314.61875 408.050205 
L 342.51875 338.252102 
L 370.41875 242.322691 
L 398.31875 191.091571 
L 426.21875 130.920793 
L 454.11875 102.382653 
L 482.01875 90.004664 
L 509.91875 81.408839 
" style="fill:none;stroke:#08306b;stroke-linecap:square;stroke-width:1.5;"/>
   </g>
   <g id="line2d_20">
    <path clip-path="url(#p4a175890ca)" d="M 119.31875 415.614531 
L 147.21875 415.270698 
L 175.11875 414.926865 
L 203.01875 414.926865 
L 230.91875 414.583032 
L 258.81875 414.239199 
L 286.71875 413.551533 
L 314.61875 408.050205 
L 342.51875 344.441097 
L 370.41875 254.700679 
L 398.31875 185.24641 
L 426.21875 128.857795 
L 454.11875 103.757985 
L 482.01875 86.222501 
L 509.91875 73.156846 
" style="fill:none;stroke:#08306b;stroke-linecap:square;stroke-width:1.5;"/>
   </g>
   <g id="line2d_21">
    <path clip-path="url(#p4a175890ca)" d="M 119.31875 415.614531 
L 147.21875 415.270698 
L 175.11875 414.926865 
L 203.01875 414.583032 
L 230.91875 414.583032 
L 258.81875 413.2077 
L 286.71875 410.800869 
L 314.61875 405.299541 
L 342.51875 318.309787 
L 370.41875 229.600869 
L 398.31875 164.960262 
L 426.21875 115.104474 
L 454.11875 86.910167 
L 482.01875 72.813013 
L 509.91875 66.624019 
" style="fill:none;stroke:#08306b;stroke-linecap:square;stroke-width:1.5;"/>
   </g>
   <g id="line2d_22">
    <path clip-path="url(#p4a175890ca)" d="M 119.31875 415.614531 
L 147.21875 415.270698 
L 175.11875 415.270698 
L 203.01875 414.926865 
L 230.91875 414.583032 
L 258.81875 414.583032 
L 286.71875 413.2077 
L 314.61875 407.706372 
L 342.51875 344.097264 
L 370.41875 233.039199 
L 398.31875 171.836922 
L 426.21875 115.104474 
L 454.11875 84.503336 
L 482.01875 73.156846 
L 509.91875 66.280186 
" style="fill:none;stroke:#08306b;stroke-linecap:square;stroke-width:1.5;"/>
   </g>
   <g id="line2d_23">
    <path clip-path="url(#p4a175890ca)" d="M 119.31875 415.614531 
L 147.21875 415.270698 
L 175.11875 414.926865 
L 203.01875 413.895366 
L 230.91875 413.895366 
L 258.81875 413.2077 
L 286.71875 412.176201 
L 314.61875 404.268042 
L 342.51875 336.87677 
L 370.41875 236.821362 
L 398.31875 168.742425 
L 426.21875 108.227814 
L 454.11875 80.37734 
L 482.01875 65.59252 
L 509.91875 58.028193 
" style="fill:none;stroke:#08306b;stroke-linecap:square;stroke-width:1.5;"/>
   </g>
   <g id="line2d_24">
    <path clip-path="url(#p4a175890ca)" d="M 119.31875 415.614531 
L 147.21875 414.926865 
L 175.11875 414.926865 
L 203.01875 414.583032 
L 230.91875 413.895366 
L 258.81875 412.520034 
L 286.71875 411.832368 
L 314.61875 406.33104 
L 342.51875 335.845271 
L 370.41875 240.603526 
L 398.31875 175.275252 
L 426.21875 123.012634 
L 454.11875 88.285499 
L 482.01875 72.813013 
L 509.91875 64.217188 
" style="fill:none;stroke:#08306b;stroke-linecap:square;stroke-width:1.5;"/>
   </g>
   <g id="line2d_25">
    <path clip-path="url(#p4a175890ca)" d="M 119.31875 415.614531 
L 147.21875 415.270698 
L 175.11875 415.270698 
L 203.01875 415.270698 
L 230.91875 415.270698 
L 258.81875 415.270698 
L 286.71875 414.926865 
L 314.61875 413.895366 
L 342.51875 392.577719 
L 370.41875 359.225916 
L 398.31875 344.78493 
L 426.21875 328.968611 
L 454.11875 301.805803 
L 482.01875 282.207321 
L 509.91875 268.797833 
" style="fill:none;stroke:#4a98c9;stroke-linecap:square;stroke-width:1.5;"/>
   </g>
   <g id="line2d_26">
    <path clip-path="url(#p4a175890ca)" d="M 119.31875 415.614531 
L 147.21875 415.270698 
L 175.11875 415.270698 
L 203.01875 415.270698 
L 230.91875 415.270698 
L 258.81875 414.239199 
L 286.71875 413.551533 
L 314.61875 412.176201 
L 342.51875 385.701059 
L 370.41875 349.598592 
L 398.31875 335.157605 
L 426.21875 315.902956 
L 454.11875 287.020983 
L 482.01875 272.236163 
L 509.91875 256.419844 
" style="fill:none;stroke:#4a98c9;stroke-linecap:square;stroke-width:1.5;"/>
   </g>
   <g id="line2d_27">
    <path clip-path="url(#p4a175890ca)" d="M 119.31875 415.614531 
L 147.21875 414.583032 
L 175.11875 414.583032 
L 203.01875 414.583032 
L 230.91875 414.583032 
L 258.81875 414.239199 
L 286.71875 414.239199 
L 314.61875 411.488535 
L 342.51875 388.795556 
L 370.41875 361.976581 
L 398.31875 342.034266 
L 426.21875 323.12345 
L 454.11875 294.585309 
L 482.01875 276.362159 
L 509.91875 264.671837 
" style="fill:none;stroke:#4a98c9;stroke-linecap:square;stroke-width:1.5;"/>
   </g>
   <g id="line2d_28">
    <path clip-path="url(#p4a175890ca)" d="M 119.31875 415.614531 
L 147.21875 415.614531 
L 175.11875 415.614531 
L 203.01875 415.614531 
L 230.91875 415.270698 
L 258.81875 415.270698 
L 286.71875 414.239199 
L 314.61875 410.113203 
L 342.51875 393.953051 
L 370.41875 359.569749 
L 398.31875 341.3466 
L 426.21875 320.716619 
L 454.11875 288.052482 
L 482.01875 269.829332 
L 509.91875 256.763677 
" style="fill:none;stroke:#4a98c9;stroke-linecap:square;stroke-width:1.5;"/>
   </g>
   <g id="line2d_29">
    <path clip-path="url(#p4a175890ca)" d="M 119.31875 415.614531 
L 147.21875 414.926865 
L 175.11875 414.926865 
L 203.01875 414.926865 
L 230.91875 414.926865 
L 258.81875 414.926865 
L 286.71875 414.239199 
L 314.61875 413.2077 
L 342.51875 391.890053 
L 370.41875 359.913582 
L 398.31875 343.409598 
L 426.21875 324.154949 
L 454.11875 292.866144 
L 482.01875 274.642994 
L 509.91875 259.858175 
" style="fill:none;stroke:#4a98c9;stroke-linecap:square;stroke-width:1.5;"/>
   </g>
   <g id="line2d_30">
    <path clip-path="url(#p4a175890ca)" d="M 119.31875 415.614531 
L 147.21875 415.614531 
L 175.11875 415.614531 
L 203.01875 415.614531 
L 230.91875 415.270698 
L 258.81875 415.270698 
L 286.71875 414.583032 
L 314.61875 412.520034 
L 342.51875 390.514721 
L 370.41875 351.317757 
L 398.31875 336.532937 
L 426.21875 317.965954 
L 454.11875 289.083981 
L 482.01875 268.797833 
L 509.91875 254.700679 
" style="fill:none;stroke:#4a98c9;stroke-linecap:square;stroke-width:1.5;"/>
   </g>
   <g id="line2d_31">
    <path clip-path="url(#p4a175890ca)" d="M 119.31875 415.614531 
L 147.21875 414.926865 
L 175.11875 414.926865 
L 203.01875 414.926865 
L 230.91875 414.926865 
L 258.81875 414.583032 
L 286.71875 414.583032 
L 314.61875 410.800869 
L 342.51875 387.420224 
L 370.41875 352.005423 
L 398.31875 335.501438 
L 426.21875 320.028953 
L 454.11875 288.396315 
L 482.01875 272.579996 
L 509.91875 259.170508 
" style="fill:none;stroke:#4a98c9;stroke-linecap:square;stroke-width:1.5;"/>
   </g>
   <g id="line2d_32">
    <path clip-path="url(#p4a175890ca)" d="M 119.31875 415.614531 
L 147.21875 415.270698 
L 175.11875 415.270698 
L 203.01875 415.270698 
L 230.91875 414.583032 
L 258.81875 414.583032 
L 286.71875 413.895366 
L 314.61875 411.144702 
L 342.51875 387.076391 
L 370.41875 352.693089 
L 398.31875 335.845271 
L 426.21875 313.839958 
L 454.11875 280.144323 
L 482.01875 261.57734 
L 509.91875 246.104854 
" style="fill:none;stroke:#4a98c9;stroke-linecap:square;stroke-width:1.5;"/>
   </g>
   <g id="line2d_33">
    <path clip-path="url(#p4a175890ca)" d="M 119.31875 415.614531 
L 147.21875 414.926865 
L 175.11875 414.926865 
L 203.01875 414.926865 
L 230.91875 414.583032 
L 258.81875 414.583032 
L 286.71875 413.895366 
L 314.61875 411.144702 
L 342.51875 386.732558 
L 370.41875 349.254759 
L 398.31875 328.968611 
L 426.21875 307.307131 
L 454.11875 269.829332 
L 482.01875 257.795176 
L 509.91875 246.104854 
" style="fill:none;stroke:#4a98c9;stroke-linecap:square;stroke-width:1.5;"/>
   </g>
   <g id="line2d_34">
    <path clip-path="url(#p4a175890ca)" d="M 119.31875 415.614531 
L 147.21875 415.614531 
L 175.11875 415.614531 
L 203.01875 415.614531 
L 230.91875 415.614531 
L 258.81875 415.614531 
L 286.71875 415.614531 
L 314.61875 411.488535 
L 342.51875 390.858554 
L 370.41875 358.53825 
L 398.31875 335.501438 
L 426.21875 306.963298 
L 454.11875 281.519655 
L 482.01875 264.328004 
L 509.91875 254.013013 
" style="fill:none;stroke:#4a98c9;stroke-linecap:square;stroke-width:1.5;"/>
   </g>
   <g id="line2d_35">
    <path clip-path="url(#p4a175890ca)" d="M 119.31875 415.614531 
L 147.21875 414.926865 
L 175.11875 414.926865 
L 203.01875 414.926865 
L 230.91875 414.926865 
L 258.81875 414.926865 
L 286.71875 414.926865 
L 314.61875 413.551533 
L 342.51875 412.520034 
L 370.41875 400.485878 
L 398.31875 388.10789 
L 426.21875 382.950395 
L 454.11875 376.7614 
L 482.01875 370.228573 
L 509.91875 363.00808 
" style="fill:none;stroke:#d0e1f2;stroke-linecap:square;stroke-width:1.5;"/>
   </g>
   <g id="line2d_36">
    <path clip-path="url(#p4a175890ca)" d="M 119.31875 415.614531 
L 147.21875 414.583032 
L 175.11875 414.583032 
L 203.01875 414.583032 
L 230.91875 414.583032 
L 258.81875 414.583032 
L 286.71875 414.583032 
L 314.61875 414.239199 
L 342.51875 409.425537 
L 370.41875 399.454379 
L 398.31875 392.921552 
L 426.21875 384.325727 
L 454.11875 378.480565 
L 482.01875 371.260072 
L 509.91875 367.134076 
" style="fill:none;stroke:#d0e1f2;stroke-linecap:square;stroke-width:1.5;"/>
   </g>
   <g id="line2d_37">
    <path clip-path="url(#p4a175890ca)" d="M 119.31875 415.614531 
L 147.21875 415.270698 
L 175.11875 415.270698 
L 203.01875 415.270698 
L 230.91875 415.270698 
L 258.81875 415.270698 
L 286.71875 415.270698 
L 314.61875 414.239199 
L 342.51875 408.394038 
L 370.41875 399.454379 
L 398.31875 391.54622 
L 426.21875 384.325727 
L 454.11875 377.449066 
L 482.01875 371.260072 
L 509.91875 365.414911 
" style="fill:none;stroke:#d0e1f2;stroke-linecap:square;stroke-width:1.5;"/>
   </g>
   <g id="line2d_38">
    <path clip-path="url(#p4a175890ca)" d="M 119.31875 415.614531 
L 147.21875 414.583032 
L 175.11875 414.583032 
L 203.01875 414.583032 
L 230.91875 414.583032 
L 258.81875 414.239199 
L 286.71875 414.239199 
L 314.61875 413.895366 
L 342.51875 409.081704 
L 370.41875 398.079047 
L 398.31875 386.044892 
L 426.21875 377.792899 
L 454.11875 368.509408 
L 482.01875 362.664247 
L 509.91875 357.850584 
" style="fill:none;stroke:#d0e1f2;stroke-linecap:square;stroke-width:1.5;"/>
   </g>
   <g id="line2d_39">
    <path clip-path="url(#p4a175890ca)" d="M 119.31875 415.614531 
L 147.21875 414.926865 
L 175.11875 414.926865 
L 203.01875 414.926865 
L 230.91875 414.926865 
L 258.81875 414.926865 
L 286.71875 414.926865 
L 314.61875 414.926865 
L 342.51875 408.394038 
L 370.41875 397.391381 
L 398.31875 393.609218 
L 426.21875 385.701059 
L 454.11875 376.417567 
L 482.01875 370.916239 
L 509.91875 365.414911 
" style="fill:none;stroke:#d0e1f2;stroke-linecap:square;stroke-width:1.5;"/>
   </g>
   <g id="line2d_40">
    <path clip-path="url(#p4a175890ca)" d="M 119.31875 415.614531 
L 147.21875 415.614531 
L 175.11875 415.614531 
L 203.01875 415.614531 
L 230.91875 415.614531 
L 258.81875 415.614531 
L 286.71875 415.614531 
L 314.61875 415.270698 
L 342.51875 411.832368 
L 370.41875 399.454379 
L 398.31875 391.890053 
L 426.21875 386.732558 
L 454.11875 381.918896 
L 482.01875 374.698402 
L 509.91875 369.197074 
" style="fill:none;stroke:#d0e1f2;stroke-linecap:square;stroke-width:1.5;"/>
   </g>
   <g id="line2d_41">
    <path clip-path="url(#p4a175890ca)" d="M 119.31875 415.614531 
L 147.21875 415.270698 
L 175.11875 415.270698 
L 203.01875 415.270698 
L 230.91875 414.926865 
L 258.81875 414.926865 
L 286.71875 414.926865 
L 314.61875 413.895366 
L 342.51875 412.863867 
L 370.41875 403.580376 
L 398.31875 392.233886 
L 426.21875 387.420224 
L 454.11875 378.824398 
L 482.01875 368.165575 
L 509.91875 360.601249 
" style="fill:none;stroke:#d0e1f2;stroke-linecap:square;stroke-width:1.5;"/>
   </g>
   <g id="line2d_42">
    <path clip-path="url(#p4a175890ca)" d="M 119.31875 415.614531 
L 147.21875 415.270698 
L 175.11875 415.270698 
L 203.01875 415.270698 
L 230.91875 414.926865 
L 258.81875 414.926865 
L 286.71875 414.239199 
L 314.61875 413.895366 
L 342.51875 410.113203 
L 370.41875 402.89271 
L 398.31875 392.233886 
L 426.21875 383.294228 
L 454.11875 375.386068 
L 482.01875 369.197074 
L 509.91875 364.383412 
" style="fill:none;stroke:#d0e1f2;stroke-linecap:square;stroke-width:1.5;"/>
   </g>
   <g id="line2d_43">
    <path clip-path="url(#p4a175890ca)" d="M 119.31875 415.614531 
L 147.21875 415.614531 
L 175.11875 415.614531 
L 203.01875 415.614531 
L 230.91875 415.614531 
L 258.81875 415.614531 
L 286.71875 415.614531 
L 314.61875 414.239199 
L 342.51875 412.176201 
L 370.41875 407.362539 
L 398.31875 393.609218 
L 426.21875 380.887397 
L 454.11875 375.386068 
L 482.01875 367.821742 
L 509.91875 361.632748 
" style="fill:none;stroke:#d0e1f2;stroke-linecap:square;stroke-width:1.5;"/>
   </g>
   <g id="line2d_44">
    <path clip-path="url(#p4a175890ca)" d="M 119.31875 415.614531 
L 147.21875 415.270698 
L 175.11875 415.270698 
L 203.01875 415.270698 
L 230.91875 415.270698 
L 258.81875 415.270698 
L 286.71875 415.270698 
L 314.61875 413.551533 
L 342.51875 410.457036 
L 370.41875 405.643374 
L 398.31875 395.672216 
L 426.21875 384.66956 
L 454.11875 376.7614 
L 482.01875 368.509408 
L 509.91875 360.601249 
" style="fill:none;stroke:#d0e1f2;stroke-linecap:square;stroke-width:1.5;"/>
   </g>
   <g id="line2d_45">
    <path clip-path="url(#p4a175890ca)" d="M 119.31875 415.614531 
L 147.21875 415.614531 
L 175.11875 414.926865 
L 203.01875 414.926865 
L 230.91875 414.583032 
L 258.81875 414.239199 
L 286.71875 412.520034 
L 314.61875 407.362539 
L 342.51875 358.53825 
L 370.41875 297.679806 
L 398.31875 251.606182 
L 426.21875 184.558744 
L 454.11875 150.863108 
L 482.01875 134.359123 
L 509.91875 122.668801 
" style="fill:none;stroke:#1764ab;stroke-linecap:square;stroke-width:1.5;"/>
   </g>
   <g id="line2d_46">
    <path clip-path="url(#p4a175890ca)" d="M 119.31875 415.614531 
L 147.21875 415.270698 
L 175.11875 415.270698 
L 203.01875 414.926865 
L 230.91875 414.583032 
L 258.81875 413.895366 
L 286.71875 412.176201 
L 314.61875 404.611875 
L 342.51875 345.472596 
L 370.41875 285.989484 
L 398.31875 230.632368 
L 426.21875 177.33825 
L 454.11875 139.860452 
L 482.01875 119.574304 
L 509.91875 109.603146 
" style="fill:none;stroke:#1764ab;stroke-linecap:square;stroke-width:1.5;"/>
   </g>
   <g id="line2d_47">
    <path clip-path="url(#p4a175890ca)" d="M 119.31875 415.614531 
L 147.21875 414.583032 
L 175.11875 414.583032 
L 203.01875 413.551533 
L 230.91875 412.863867 
L 258.81875 411.832368 
L 286.71875 411.144702 
L 314.61875 407.706372 
L 342.51875 346.847928 
L 370.41875 272.236163 
L 398.31875 231.663867 
L 426.21875 168.398592 
L 454.11875 146.049446 
L 482.01875 132.296125 
L 509.91875 120.605803 
" style="fill:none;stroke:#1764ab;stroke-linecap:square;stroke-width:1.5;"/>
   </g>
   <g id="line2d_48">
    <path clip-path="url(#p4a175890ca)" d="M 119.31875 415.614531 
L 147.21875 415.614531 
L 175.11875 415.614531 
L 203.01875 415.270698 
L 230.91875 414.926865 
L 258.81875 413.551533 
L 286.71875 412.863867 
L 314.61875 408.737871 
L 342.51875 350.973924 
L 370.41875 286.67715 
L 398.31875 235.44603 
L 426.21875 174.931419 
L 454.11875 140.548118 
L 482.01875 123.7003 
L 509.91875 112.35381 
" style="fill:none;stroke:#1764ab;stroke-linecap:square;stroke-width:1.5;"/>
   </g>
   <g id="line2d_49">
    <path clip-path="url(#p4a175890ca)" d="M 119.31875 415.614531 
L 147.21875 415.614531 
L 175.11875 415.614531 
L 203.01875 415.614531 
L 230.91875 415.270698 
L 258.81875 414.926865 
L 286.71875 414.239199 
L 314.61875 407.362539 
L 342.51875 354.412254 
L 370.41875 290.459313 
L 398.31875 242.666524 
L 426.21875 185.934076 
L 454.11875 155.67677 
L 482.01875 135.046789 
L 509.91875 124.731799 
" style="fill:none;stroke:#1764ab;stroke-linecap:square;stroke-width:1.5;"/>
   </g>
   <g id="line2d_50">
    <path clip-path="url(#p4a175890ca)" d="M 119.31875 415.614531 
L 147.21875 415.614531 
L 175.11875 415.614531 
L 203.01875 415.614531 
L 230.91875 415.614531 
L 258.81875 414.583032 
L 286.71875 413.551533 
L 314.61875 407.362539 
L 342.51875 354.756087 
L 370.41875 288.740148 
L 398.31875 249.199351 
L 426.21875 188.340907 
L 454.11875 152.582273 
L 482.01875 131.608459 
L 509.91875 118.542804 
" style="fill:none;stroke:#1764ab;stroke-linecap:square;stroke-width:1.5;"/>
   </g>
   <g id="line2d_51">
    <path clip-path="url(#p4a175890ca)" d="M 119.31875 415.614531 
L 147.21875 414.926865 
L 175.11875 414.926865 
L 203.01875 414.926865 
L 230.91875 413.895366 
L 258.81875 413.2077 
L 286.71875 412.520034 
L 314.61875 402.205044 
L 342.51875 335.845271 
L 370.41875 267.078668 
L 398.31875 222.036543 
L 426.21875 168.398592 
L 454.11875 137.797453 
L 482.01875 122.324968 
L 509.91875 113.041476 
" style="fill:none;stroke:#1764ab;stroke-linecap:square;stroke-width:1.5;"/>
   </g>
   <g id="line2d_52">
    <path clip-path="url(#p4a175890ca)" d="M 119.31875 415.614531 
L 147.21875 415.614531 
L 175.11875 415.614531 
L 203.01875 415.270698 
L 230.91875 414.926865 
L 258.81875 413.895366 
L 286.71875 412.176201 
L 314.61875 408.050205 
L 342.51875 341.3466 
L 370.41875 278.425157 
L 398.31875 220.317378 
L 426.21875 161.178099 
L 454.11875 130.57696 
L 482.01875 115.79214 
L 509.91875 103.414152 
" style="fill:none;stroke:#1764ab;stroke-linecap:square;stroke-width:1.5;"/>
   </g>
   <g id="line2d_53">
    <path clip-path="url(#p4a175890ca)" d="M 119.31875 415.614531 
L 147.21875 414.239199 
L 175.11875 414.239199 
L 203.01875 413.895366 
L 230.91875 413.2077 
L 258.81875 413.2077 
L 286.71875 413.2077 
L 314.61875 400.142045 
L 342.51875 338.252102 
L 370.41875 277.049825 
L 398.31875 230.976201 
L 426.21875 174.587586 
L 454.11875 139.172786 
L 482.01875 118.886638 
L 509.91875 110.290812 
" style="fill:none;stroke:#1764ab;stroke-linecap:square;stroke-width:1.5;"/>
   </g>
   <g id="line2d_54">
    <path clip-path="url(#p4a175890ca)" d="M 119.31875 415.614531 
L 147.21875 415.270698 
L 175.11875 415.270698 
L 203.01875 415.270698 
L 230.91875 415.270698 
L 258.81875 415.270698 
L 286.71875 414.583032 
L 314.61875 407.018706 
L 342.51875 342.378099 
L 370.41875 275.674493 
L 398.31875 221.005044 
L 426.21875 156.708269 
L 454.11875 130.57696 
L 482.01875 110.634645 
L 509.91875 101.351154 
" style="fill:none;stroke:#1764ab;stroke-linecap:square;stroke-width:1.5;"/>
   </g>
   <g id="line2d_55">
    <path clip-path="url(#p4a175890ca)" d="M 119.31875 415.614531 
L 147.21875 414.926865 
L 175.11875 414.926865 
L 203.01875 414.926865 
L 230.91875 414.583032 
L 258.81875 414.583032 
L 286.71875 414.583032 
L 314.61875 413.551533 
L 342.51875 401.517378 
L 370.41875 371.947738 
L 398.31875 354.068421 
L 426.21875 338.595935 
L 454.11875 315.902956 
L 482.01875 303.181135 
L 509.91875 294.241476 
" style="fill:none;stroke:#94c4df;stroke-linecap:square;stroke-width:1.5;"/>
   </g>
   <g id="line2d_56">
    <path clip-path="url(#p4a175890ca)" d="M 119.31875 415.614531 
L 147.21875 414.926865 
L 175.11875 414.926865 
L 203.01875 414.926865 
L 230.91875 414.926865 
L 258.81875 414.926865 
L 286.71875 414.583032 
L 314.61875 413.2077 
L 342.51875 403.236543 
L 370.41875 383.981894 
L 398.31875 374.698402 
L 426.21875 363.00808 
L 454.11875 343.409598 
L 482.01875 330.687776 
L 509.91875 319.685119 
" style="fill:none;stroke:#94c4df;stroke-linecap:square;stroke-width:1.5;"/>
   </g>
   <g id="line2d_57">
    <path clip-path="url(#p4a175890ca)" d="M 119.31875 415.614531 
L 147.21875 414.583032 
L 175.11875 414.583032 
L 203.01875 414.583032 
L 230.91875 414.583032 
L 258.81875 414.583032 
L 286.71875 414.583032 
L 314.61875 412.176201 
L 342.51875 396.703715 
L 370.41875 377.105233 
L 398.31875 360.257416 
L 426.21875 342.378099 
L 454.11875 330.687776 
L 482.01875 318.65362 
L 509.91875 310.057795 
" style="fill:none;stroke:#94c4df;stroke-linecap:square;stroke-width:1.5;"/>
   </g>
   <g id="line2d_58">
    <path clip-path="url(#p4a175890ca)" d="M 119.31875 415.614531 
L 147.21875 415.270698 
L 175.11875 415.270698 
L 203.01875 415.270698 
L 230.91875 415.270698 
L 258.81875 415.270698 
L 286.71875 415.270698 
L 314.61875 413.895366 
L 342.51875 399.454379 
L 370.41875 374.010736 
L 398.31875 356.131419 
L 426.21875 344.78493 
L 454.11875 325.530281 
L 482.01875 312.120793 
L 509.91875 304.212634 
" style="fill:none;stroke:#94c4df;stroke-linecap:square;stroke-width:1.5;"/>
   </g>
   <g id="line2d_59">
    <path clip-path="url(#p4a175890ca)" d="M 119.31875 415.614531 
L 147.21875 415.614531 
L 175.11875 415.614531 
L 203.01875 415.614531 
L 230.91875 415.614531 
L 258.81875 415.614531 
L 286.71875 415.614531 
L 314.61875 414.583032 
L 342.51875 402.205044 
L 370.41875 385.701059 
L 398.31875 375.386068 
L 426.21875 363.00808 
L 454.11875 348.567093 
L 482.01875 335.501438 
L 509.91875 322.779617 
" style="fill:none;stroke:#94c4df;stroke-linecap:square;stroke-width:1.5;"/>
   </g>
   <g id="line2d_60">
    <path clip-path="url(#p4a175890ca)" d="M 119.31875 415.614531 
L 147.21875 415.614531 
L 175.11875 415.614531 
L 203.01875 415.614531 
L 230.91875 415.614531 
L 258.81875 415.614531 
L 286.71875 415.614531 
L 314.61875 413.2077 
L 342.51875 400.485878 
L 370.41875 383.638061 
L 398.31875 367.134076 
L 426.21875 356.475252 
L 454.11875 338.595935 
L 482.01875 326.217947 
L 509.91875 317.622121 
" style="fill:none;stroke:#94c4df;stroke-linecap:square;stroke-width:1.5;"/>
   </g>
   <g id="line2d_61">
    <path clip-path="url(#p4a175890ca)" d="M 119.31875 415.614531 
L 147.21875 414.583032 
L 175.11875 414.583032 
L 203.01875 414.583032 
L 230.91875 414.583032 
L 258.81875 414.239199 
L 286.71875 413.895366 
L 314.61875 412.520034 
L 342.51875 396.359882 
L 370.41875 375.729901 
L 398.31875 361.976581 
L 426.21875 343.753431 
L 454.11875 327.937112 
L 482.01875 313.839958 
L 509.91875 302.149636 
" style="fill:none;stroke:#94c4df;stroke-linecap:square;stroke-width:1.5;"/>
   </g>
   <g id="line2d_62">
    <path clip-path="url(#p4a175890ca)" d="M 119.31875 415.614531 
L 147.21875 414.926865 
L 175.11875 414.926865 
L 203.01875 414.926865 
L 230.91875 414.583032 
L 258.81875 414.583032 
L 286.71875 414.239199 
L 314.61875 412.863867 
L 342.51875 401.173545 
L 370.41875 378.480565 
L 398.31875 364.727245 
L 426.21875 354.068421 
L 454.11875 334.469939 
L 482.01875 318.65362 
L 509.91875 305.931799 
" style="fill:none;stroke:#94c4df;stroke-linecap:square;stroke-width:1.5;"/>
   </g>
   <g id="line2d_63">
    <path clip-path="url(#p4a175890ca)" d="M 119.31875 415.614531 
L 147.21875 415.270698 
L 175.11875 415.270698 
L 203.01875 415.270698 
L 230.91875 415.270698 
L 258.81875 415.270698 
L 286.71875 415.270698 
L 314.61875 414.239199 
L 342.51875 402.548877 
L 370.41875 382.262729 
L 398.31875 364.039579 
L 426.21875 349.942425 
L 454.11875 334.126106 
L 482.01875 320.716619 
L 509.91875 311.089294 
" style="fill:none;stroke:#94c4df;stroke-linecap:square;stroke-width:1.5;"/>
   </g>
   <g id="line2d_64">
    <path clip-path="url(#p4a175890ca)" d="M 119.31875 415.614531 
L 147.21875 415.270698 
L 175.11875 415.270698 
L 203.01875 415.270698 
L 230.91875 414.926865 
L 258.81875 414.583032 
L 286.71875 414.583032 
L 314.61875 413.2077 
L 342.51875 400.142045 
L 370.41875 371.947738 
L 398.31875 346.847928 
L 426.21875 333.094607 
L 454.11875 312.464626 
L 482.01875 301.118137 
L 509.91875 292.522311 
" style="fill:none;stroke:#94c4df;stroke-linecap:square;stroke-width:1.5;"/>
   </g>
   <g id="line2d_65">
    <path clip-path="url(#p4a175890ca)" d="M 119.31875 415.614531 
L 147.21875 415.614531 
L 175.11875 415.614531 
L 203.01875 415.614531 
L 230.91875 415.614531 
L 258.81875 415.614531 
L 286.71875 415.614531 
L 314.61875 415.614531 
L 342.51875 415.614531 
L 370.41875 415.614531 
L 398.31875 415.614531 
L 426.21875 415.614531 
L 454.11875 415.614531 
L 482.01875 415.614531 
L 509.91875 415.614531 
" style="fill:none;stroke:#000000;stroke-linecap:square;stroke-width:1.5;"/>
   </g>
   <g id="line2d_66">
    <path clip-path="url(#p4a175890ca)" d="M 119.31875 415.614531 
L 147.21875 415.614531 
L 175.11875 415.614531 
L 203.01875 415.614531 
L 230.91875 415.614531 
L 258.81875 415.614531 
L 286.71875 415.614531 
L 314.61875 415.614531 
L 342.51875 415.614531 
L 370.41875 415.614531 
L 398.31875 415.614531 
L 426.21875 415.614531 
L 454.11875 415.614531 
L 482.01875 415.614531 
L 509.91875 415.614531 
" style="fill:none;stroke:#000000;stroke-linecap:square;stroke-width:1.5;"/>
   </g>
   <g id="line2d_67">
    <path clip-path="url(#p4a175890ca)" d="M 119.31875 415.614531 
L 147.21875 415.614531 
L 175.11875 415.614531 
L 203.01875 415.614531 
L 230.91875 415.614531 
L 258.81875 415.614531 
L 286.71875 415.614531 
L 314.61875 415.614531 
L 342.51875 415.614531 
L 370.41875 415.614531 
L 398.31875 415.614531 
L 426.21875 415.614531 
L 454.11875 415.614531 
L 482.01875 415.614531 
L 509.91875 415.614531 
" style="fill:none;stroke:#000000;stroke-linecap:square;stroke-width:1.5;"/>
   </g>
   <g id="line2d_68">
    <path clip-path="url(#p4a175890ca)" d="M 119.31875 415.614531 
L 147.21875 415.614531 
L 175.11875 415.614531 
L 203.01875 415.614531 
L 230.91875 415.614531 
L 258.81875 415.614531 
L 286.71875 415.614531 
L 314.61875 415.614531 
L 342.51875 415.614531 
L 370.41875 415.614531 
L 398.31875 415.614531 
L 426.21875 415.614531 
L 454.11875 415.614531 
L 482.01875 415.614531 
L 509.91875 415.614531 
" style="fill:none;stroke:#000000;stroke-linecap:square;stroke-width:1.5;"/>
   </g>
   <g id="line2d_69">
    <path clip-path="url(#p4a175890ca)" d="M 119.31875 415.614531 
L 147.21875 415.614531 
L 175.11875 415.614531 
L 203.01875 415.614531 
L 230.91875 415.614531 
L 258.81875 415.614531 
L 286.71875 415.614531 
L 314.61875 415.614531 
L 342.51875 415.614531 
L 370.41875 415.614531 
L 398.31875 415.614531 
L 426.21875 415.614531 
L 454.11875 415.614531 
L 482.01875 415.614531 
L 509.91875 415.614531 
" style="fill:none;stroke:#000000;stroke-linecap:square;stroke-width:1.5;"/>
   </g>
   <g id="line2d_70">
    <path clip-path="url(#p4a175890ca)" d="M 119.31875 415.614531 
L 147.21875 415.614531 
L 175.11875 415.614531 
L 203.01875 415.614531 
L 230.91875 415.614531 
L 258.81875 415.614531 
L 286.71875 415.614531 
L 314.61875 415.614531 
L 342.51875 415.614531 
L 370.41875 415.614531 
L 398.31875 415.614531 
L 426.21875 415.614531 
L 454.11875 415.614531 
L 482.01875 415.614531 
L 509.91875 415.614531 
" style="fill:none;stroke:#000000;stroke-linecap:square;stroke-width:1.5;"/>
   </g>
   <g id="line2d_71">
    <path clip-path="url(#p4a175890ca)" d="M 119.31875 415.614531 
L 147.21875 415.614531 
L 175.11875 415.614531 
L 203.01875 415.614531 
L 230.91875 415.614531 
L 258.81875 415.614531 
L 286.71875 415.614531 
L 314.61875 415.614531 
L 342.51875 415.614531 
L 370.41875 415.614531 
L 398.31875 415.614531 
L 426.21875 415.614531 
L 454.11875 415.614531 
L 482.01875 415.614531 
L 509.91875 415.614531 
" style="fill:none;stroke:#000000;stroke-linecap:square;stroke-width:1.5;"/>
   </g>
   <g id="line2d_72">
    <path clip-path="url(#p4a175890ca)" d="M 119.31875 415.614531 
L 147.21875 415.614531 
L 175.11875 415.614531 
L 203.01875 415.614531 
L 230.91875 415.614531 
L 258.81875 415.614531 
L 286.71875 415.614531 
L 314.61875 415.614531 
L 342.51875 415.614531 
L 370.41875 415.614531 
L 398.31875 415.614531 
L 426.21875 415.614531 
L 454.11875 415.614531 
L 482.01875 415.614531 
L 509.91875 415.614531 
" style="fill:none;stroke:#000000;stroke-linecap:square;stroke-width:1.5;"/>
   </g>
   <g id="line2d_73">
    <path clip-path="url(#p4a175890ca)" d="M 119.31875 415.614531 
L 147.21875 415.614531 
L 175.11875 415.614531 
L 203.01875 415.614531 
L 230.91875 415.614531 
L 258.81875 415.614531 
L 286.71875 415.614531 
L 314.61875 415.614531 
L 342.51875 415.614531 
L 370.41875 415.614531 
L 398.31875 415.614531 
L 426.21875 415.614531 
L 454.11875 415.614531 
L 482.01875 415.614531 
L 509.91875 415.614531 
" style="fill:none;stroke:#000000;stroke-linecap:square;stroke-width:1.5;"/>
   </g>
   <g id="line2d_74">
    <path clip-path="url(#p4a175890ca)" d="M 119.31875 415.614531 
L 147.21875 415.614531 
L 175.11875 415.614531 
L 203.01875 415.614531 
L 230.91875 415.614531 
L 258.81875 415.614531 
L 286.71875 415.614531 
L 314.61875 415.614531 
L 342.51875 415.614531 
L 370.41875 415.614531 
L 398.31875 415.614531 
L 426.21875 415.614531 
L 454.11875 415.614531 
L 482.01875 415.614531 
L 509.91875 415.614531 
" style="fill:none;stroke:#000000;stroke-linecap:square;stroke-width:1.5;"/>
   </g>
   <g id="line2d_75">
    <path clip-path="url(#p4a175890ca)" d="M 119.31875 71.781514 
L 509.91875 71.781514 
" style="fill:none;stroke:#808080;stroke-linecap:square;stroke-width:1.5;"/>
   </g>
   <g id="line2d_76">
    <path clip-path="url(#p4a175890ca)" d="M 119.31875 415.614531 
" style="fill:none;stroke:#000000;stroke-linecap:square;stroke-width:1.5;"/>
   </g>
   <g id="line2d_77">
    <path clip-path="url(#p4a175890ca)" d="M 119.31875 415.614531 
" style="fill:none;stroke:#d0e1f2;stroke-linecap:square;stroke-width:1.5;"/>
   </g>
   <g id="line2d_78">
    <path clip-path="url(#p4a175890ca)" d="M 119.31875 415.614531 
" style="fill:none;stroke:#94c4df;stroke-linecap:square;stroke-width:1.5;"/>
   </g>
   <g id="line2d_79">
    <path clip-path="url(#p4a175890ca)" d="M 119.31875 415.614531 
" style="fill:none;stroke:#4a98c9;stroke-linecap:square;stroke-width:1.5;"/>
   </g>
   <g id="line2d_80">
    <path clip-path="url(#p4a175890ca)" d="M 119.31875 415.614531 
" style="fill:none;stroke:#1764ab;stroke-linecap:square;stroke-width:1.5;"/>
   </g>
   <g id="line2d_81">
    <path clip-path="url(#p4a175890ca)" d="M 119.31875 415.614531 
" style="fill:none;stroke:#08306b;stroke-linecap:square;stroke-width:1.5;"/>
   </g>
   <g id="line2d_82">
    <path clip-path="url(#p4a175890ca)" d="M 119.31875 415.614531 
" style="fill:none;stroke:#000000;stroke-linecap:square;stroke-width:1.5;"/>
   </g>
   <g id="line2d_83">
    <path clip-path="url(#p4a175890ca)" d="M 119.31875 415.614531 
" style="fill:none;stroke:#000000;stroke-dasharray:1.5,2.475;stroke-dashoffset:0;stroke-width:1.5;"/>
   </g>
   <g id="line2d_84">
    <path clip-path="url(#p4a175890ca)" d="M 119.31875 415.614531 
" style="fill:none;stroke:#000000;stroke-linecap:square;stroke-width:1.5;"/>
   </g>
   <g id="line2d_85">
    <path clip-path="url(#p4a175890ca)" d="M 119.31875 415.614531 
" style="fill:none;stroke:#000000;stroke-dasharray:5.55,2.4;stroke-dashoffset:0;stroke-width:1.5;"/>
   </g>
   <g id="line2d_86">
    <path clip-path="url(#p4a175890ca)" d="M 119.31875 415.614531 
" style="fill:none;stroke:#000000;stroke-dasharray:9.6,2.4,1.5,2.4;stroke-dashoffset:0;stroke-width:1.5;"/>
   </g>
   <g id="line2d_87">
    <path clip-path="url(#p4a175890ca)" d="M 119.31875 415.614531 
" style="fill:none;stroke:#000000;stroke-dasharray:9.6,2.4,1.5,2.4;stroke-dashoffset:0;stroke-width:1.5;"/>
   </g>
   <g id="patch_3">
    <path d="M 119.31875 415.614531 
L 119.31875 35.094531 
" style="fill:none;stroke:#000000;stroke-linecap:square;stroke-linejoin:miter;stroke-width:0.8;"/>
   </g>
   <g id="patch_4">
    <path d="M 509.91875 415.614531 
L 509.91875 35.094531 
" style="fill:none;stroke:#000000;stroke-linecap:square;stroke-linejoin:miter;stroke-width:0.8;"/>
   </g>
   <g id="patch_5">
    <path d="M 119.31875 415.614531 
L 509.91875 415.614531 
" style="fill:none;stroke:#000000;stroke-linecap:square;stroke-linejoin:miter;stroke-width:0.8;"/>
   </g>
   <g id="patch_6">
    <path d="M 119.31875 35.094531 
L 509.91875 35.094531 
" style="fill:none;stroke:#000000;stroke-linecap:square;stroke-linejoin:miter;stroke-width:0.8;"/>
   </g>
   <g id="text_17">
    <!-- HEALTHY COUNT OVER TIME -->
    <defs>
     <path d="M 25.53125 0 
L -0.046875 71.578125 
L 15.625 71.578125 
L 33.734375 18.609375 
L 51.265625 71.578125 
L 66.609375 71.578125 
L 40.96875 0 
z
" id="Arial-BoldMT-86"/>
    </defs>
    <g transform="translate(135.466406 25.094531)scale(0.25 -0.25)">
     <use xlink:href="#Arial-BoldMT-72"/>
     <use x="72.216797" xlink:href="#Arial-BoldMT-69"/>
     <use x="138.916016" xlink:href="#Arial-BoldMT-65"/>
     <use x="211.132812" xlink:href="#Arial-BoldMT-76"/>
     <use x="272.107422" xlink:href="#Arial-BoldMT-84"/>
     <use x="333.191406" xlink:href="#Arial-BoldMT-72"/>
     <use x="405.408203" xlink:href="#Arial-BoldMT-89"/>
     <use x="472.091797" xlink:href="#Arial-BoldMT-32"/>
     <use x="499.875" xlink:href="#Arial-BoldMT-67"/>
     <use x="572.091797" xlink:href="#Arial-BoldMT-79"/>
     <use x="649.875" xlink:href="#Arial-BoldMT-85"/>
     <use x="722.091797" xlink:href="#Arial-BoldMT-78"/>
     <use x="794.308594" xlink:href="#Arial-BoldMT-84"/>
     <use x="855.392578" xlink:href="#Arial-BoldMT-32"/>
     <use x="883.175781" xlink:href="#Arial-BoldMT-79"/>
     <use x="960.958984" xlink:href="#Arial-BoldMT-86"/>
     <use x="1027.658203" xlink:href="#Arial-BoldMT-69"/>
     <use x="1094.357422" xlink:href="#Arial-BoldMT-82"/>
     <use x="1166.574219" xlink:href="#Arial-BoldMT-32"/>
     <use x="1194.357422" xlink:href="#Arial-BoldMT-84"/>
     <use x="1255.441406" xlink:href="#Arial-BoldMT-73"/>
     <use x="1283.224609" xlink:href="#Arial-BoldMT-77"/>
     <use x="1366.525391" xlink:href="#Arial-BoldMT-69"/>
    </g>
   </g>
   <g id="legend_1">
    <g id="line2d_88">
     <path d="M 518.91875 48.192969 
L 538.91875 48.192969 
" style="fill:none;stroke:#808080;stroke-linecap:square;stroke-width:1.5;"/>
    </g>
    <g id="line2d_89"/>
    <g id="text_18">
     <!-- SEEDED -->
     <defs>
      <path d="M 53.515625 70.515625 
L 53.515625 60.890625 
Q 47.90625 63.578125 42.921875 64.890625 
Q 37.9375 66.21875 33.296875 66.21875 
Q 25.25 66.21875 20.875 63.09375 
Q 16.5 59.96875 16.5 54.203125 
Q 16.5 49.359375 19.40625 46.890625 
Q 22.3125 44.4375 30.421875 42.921875 
L 36.375 41.703125 
Q 47.40625 39.59375 52.65625 34.296875 
Q 57.90625 29 57.90625 20.125 
Q 57.90625 9.515625 50.796875 4.046875 
Q 43.703125 -1.421875 29.984375 -1.421875 
Q 24.8125 -1.421875 18.96875 -0.25 
Q 13.140625 0.921875 6.890625 3.21875 
L 6.890625 13.375 
Q 12.890625 10.015625 18.65625 8.296875 
Q 24.421875 6.59375 29.984375 6.59375 
Q 38.421875 6.59375 43.015625 9.90625 
Q 47.609375 13.234375 47.609375 19.390625 
Q 47.609375 24.75 44.3125 27.78125 
Q 41.015625 30.8125 33.5 32.328125 
L 27.484375 33.5 
Q 16.453125 35.6875 11.515625 40.375 
Q 6.59375 45.0625 6.59375 53.421875 
Q 6.59375 63.09375 13.40625 68.65625 
Q 20.21875 74.21875 32.171875 74.21875 
Q 37.3125 74.21875 42.625 73.28125 
Q 47.953125 72.359375 53.515625 70.515625 
z
" id="DejaVuSans-83"/>
      <path d="M 9.8125 72.90625 
L 55.90625 72.90625 
L 55.90625 64.59375 
L 19.671875 64.59375 
L 19.671875 43.015625 
L 54.390625 43.015625 
L 54.390625 34.71875 
L 19.671875 34.71875 
L 19.671875 8.296875 
L 56.78125 8.296875 
L 56.78125 0 
L 9.8125 0 
z
" id="DejaVuSans-69"/>
      <path d="M 19.671875 64.796875 
L 19.671875 8.109375 
L 31.59375 8.109375 
Q 46.6875 8.109375 53.6875 14.9375 
Q 60.6875 21.78125 60.6875 36.53125 
Q 60.6875 51.171875 53.6875 57.984375 
Q 46.6875 64.796875 31.59375 64.796875 
z
M 9.8125 72.90625 
L 30.078125 72.90625 
Q 51.265625 72.90625 61.171875 64.09375 
Q 71.09375 55.28125 71.09375 36.53125 
Q 71.09375 17.671875 61.125 8.828125 
Q 51.171875 0 30.078125 0 
L 9.8125 0 
z
" id="DejaVuSans-68"/>
     </defs>
     <g transform="translate(546.91875 51.692969)scale(0.1 -0.1)">
      <use xlink:href="#DejaVuSans-83"/>
      <use x="63.476562" xlink:href="#DejaVuSans-69"/>
      <use x="126.660156" xlink:href="#DejaVuSans-69"/>
      <use x="189.84375" xlink:href="#DejaVuSans-68"/>
      <use x="266.845703" xlink:href="#DejaVuSans-69"/>
      <use x="330.029297" xlink:href="#DejaVuSans-68"/>
     </g>
    </g>
    <g id="line2d_90">
     <path d="M 518.91875 62.871094 
L 538.91875 62.871094 
" style="fill:none;stroke:#000000;stroke-linecap:square;stroke-width:1.5;"/>
    </g>
    <g id="line2d_91"/>
    <g id="text_19">
     <!-- 0 -->
     <g transform="translate(546.91875 66.371094)scale(0.1 -0.1)">
      <use xlink:href="#DejaVuSans-48"/>
     </g>
    </g>
    <g id="line2d_92">
     <path d="M 518.91875 77.549219 
L 538.91875 77.549219 
" style="fill:none;stroke:#d0e1f2;stroke-linecap:square;stroke-width:1.5;"/>
    </g>
    <g id="line2d_93"/>
    <g id="text_20">
     <!-- 100 -->
     <g transform="translate(546.91875 81.049219)scale(0.1 -0.1)">
      <use xlink:href="#DejaVuSans-49"/>
      <use x="63.623047" xlink:href="#DejaVuSans-48"/>
      <use x="127.246094" xlink:href="#DejaVuSans-48"/>
     </g>
    </g>
    <g id="line2d_94">
     <path d="M 518.91875 92.227344 
L 538.91875 92.227344 
" style="fill:none;stroke:#94c4df;stroke-linecap:square;stroke-width:1.5;"/>
    </g>
    <g id="line2d_95"/>
    <g id="text_21">
     <!-- 500 -->
     <g transform="translate(546.91875 95.727344)scale(0.1 -0.1)">
      <use xlink:href="#DejaVuSans-53"/>
      <use x="63.623047" xlink:href="#DejaVuSans-48"/>
      <use x="127.246094" xlink:href="#DejaVuSans-48"/>
     </g>
    </g>
    <g id="line2d_96">
     <path d="M 518.91875 106.905469 
L 538.91875 106.905469 
" style="fill:none;stroke:#4a98c9;stroke-linecap:square;stroke-width:1.5;"/>
    </g>
    <g id="line2d_97"/>
    <g id="text_22">
     <!-- 1000 -->
     <g transform="translate(546.91875 110.405469)scale(0.1 -0.1)">
      <use xlink:href="#DejaVuSans-49"/>
      <use x="63.623047" xlink:href="#DejaVuSans-48"/>
      <use x="127.246094" xlink:href="#DejaVuSans-48"/>
      <use x="190.869141" xlink:href="#DejaVuSans-48"/>
     </g>
    </g>
    <g id="line2d_98">
     <path d="M 518.91875 121.583594 
L 538.91875 121.583594 
" style="fill:none;stroke:#1764ab;stroke-linecap:square;stroke-width:1.5;"/>
    </g>
    <g id="line2d_99"/>
    <g id="text_23">
     <!-- 5000 -->
     <g transform="translate(546.91875 125.083594)scale(0.1 -0.1)">
      <use xlink:href="#DejaVuSans-53"/>
      <use x="63.623047" xlink:href="#DejaVuSans-48"/>
      <use x="127.246094" xlink:href="#DejaVuSans-48"/>
      <use x="190.869141" xlink:href="#DejaVuSans-48"/>
     </g>
    </g>
    <g id="line2d_100">
     <path d="M 518.91875 136.261719 
L 538.91875 136.261719 
" style="fill:none;stroke:#08306b;stroke-linecap:square;stroke-width:1.5;"/>
    </g>
    <g id="line2d_101"/>
    <g id="text_24">
     <!-- 10000 -->
     <g transform="translate(546.91875 139.761719)scale(0.1 -0.1)">
      <use xlink:href="#DejaVuSans-49"/>
      <use x="63.623047" xlink:href="#DejaVuSans-48"/>
      <use x="127.246094" xlink:href="#DejaVuSans-48"/>
      <use x="190.869141" xlink:href="#DejaVuSans-48"/>
      <use x="254.492188" xlink:href="#DejaVuSans-48"/>
     </g>
    </g>
    <g id="line2d_102">
     <path d="M 518.91875 150.939844 
L 538.91875 150.939844 
" style="fill:none;stroke:#000000;stroke-linecap:square;stroke-width:1.5;"/>
    </g>
    <g id="line2d_103"/>
    <g id="text_25">
     <!-- 0 -->
     <g transform="translate(546.91875 154.439844)scale(0.1 -0.1)">
      <use xlink:href="#DejaVuSans-48"/>
     </g>
    </g>
    <g id="line2d_104">
     <path d="M 518.91875 165.617969 
L 538.91875 165.617969 
" style="fill:none;stroke:#000000;stroke-dasharray:1.5,2.475;stroke-dashoffset:0;stroke-width:1.5;"/>
    </g>
    <g id="line2d_105"/>
    <g id="text_26">
     <!-- 250 -->
     <g transform="translate(546.91875 169.117969)scale(0.1 -0.1)">
      <use xlink:href="#DejaVuSans-50"/>
      <use x="63.623047" xlink:href="#DejaVuSans-53"/>
      <use x="127.246094" xlink:href="#DejaVuSans-48"/>
     </g>
    </g>
    <g id="line2d_106">
     <path d="M 518.91875 180.296094 
L 538.91875 180.296094 
" style="fill:none;stroke:#000000;stroke-linecap:square;stroke-width:1.5;"/>
    </g>
    <g id="line2d_107"/>
    <g id="text_27">
     <!-- 500 -->
     <g transform="translate(546.91875 183.796094)scale(0.1 -0.1)">
      <use xlink:href="#DejaVuSans-53"/>
      <use x="63.623047" xlink:href="#DejaVuSans-48"/>
      <use x="127.246094" xlink:href="#DejaVuSans-48"/>
     </g>
    </g>
    <g id="line2d_108">
     <path d="M 518.91875 194.974219 
L 538.91875 194.974219 
" style="fill:none;stroke:#000000;stroke-dasharray:5.55,2.4;stroke-dashoffset:0;stroke-width:1.5;"/>
    </g>
    <g id="line2d_109"/>
    <g id="text_28">
     <!-- 1000 -->
     <g transform="translate(546.91875 198.474219)scale(0.1 -0.1)">
      <use xlink:href="#DejaVuSans-49"/>
      <use x="63.623047" xlink:href="#DejaVuSans-48"/>
      <use x="127.246094" xlink:href="#DejaVuSans-48"/>
      <use x="190.869141" xlink:href="#DejaVuSans-48"/>
     </g>
    </g>
    <g id="line2d_110">
     <path d="M 518.91875 209.652344 
L 538.91875 209.652344 
" style="fill:none;stroke:#000000;stroke-dasharray:9.6,2.4,1.5,2.4;stroke-dashoffset:0;stroke-width:1.5;"/>
    </g>
    <g id="line2d_111"/>
    <g id="text_29">
     <!-- 5000 -->
     <g transform="translate(546.91875 213.152344)scale(0.1 -0.1)">
      <use xlink:href="#DejaVuSans-53"/>
      <use x="63.623047" xlink:href="#DejaVuSans-48"/>
      <use x="127.246094" xlink:href="#DejaVuSans-48"/>
      <use x="190.869141" xlink:href="#DejaVuSans-48"/>
     </g>
    </g>
    <g id="line2d_112">
     <path d="M 518.91875 224.330469 
L 538.91875 224.330469 
" style="fill:none;stroke:#000000;stroke-dasharray:9.6,2.4,1.5,2.4;stroke-dashoffset:0;stroke-width:1.5;"/>
    </g>
    <g id="line2d_113"/>
    <g id="text_30">
     <!-- 10000 -->
     <g transform="translate(546.91875 227.830469)scale(0.1 -0.1)">
      <use xlink:href="#DejaVuSans-49"/>
      <use x="63.623047" xlink:href="#DejaVuSans-48"/>
      <use x="127.246094" xlink:href="#DejaVuSans-48"/>
      <use x="190.869141" xlink:href="#DejaVuSans-48"/>
      <use x="254.492188" xlink:href="#DejaVuSans-48"/>
     </g>
    </g>
   </g>
  </g>
 </g>
 <defs>
  <clipPath id="p4a175890ca">
   <rect height="380.52" width="390.6" x="119.31875" y="35.094531"/>
  </clipPath>
 </defs>
</svg>
