<?xml version="1.0" encoding="utf-8" standalone="no"?>
<!DOCTYPE svg PUBLIC "-//W3C//DTD SVG 1.1//EN"
  "http://www.w3.org/Graphics/SVG/1.1/DTD/svg11.dtd">
<!-- Created with matplotlib (https://matplotlib.org/) -->
<svg height="487.617656pt" version="1.1" viewBox="0 0 598.823437 487.617656" width="598.823437pt" xmlns="http://www.w3.org/2000/svg" xmlns:xlink="http://www.w3.org/1999/xlink">
 <defs>
  <style type="text/css">
*{stroke-linecap:butt;stroke-linejoin:round;}
  </style>
 </defs>
 <g id="figure_1">
  <g id="patch_1">
   <path d="M 0 487.617656 
L 598.823437 487.617656 
L 598.823437 0 
L 0 0 
z
" style="fill:#ffffff;"/>
  </g>
  <g id="axes_1">
   <g id="patch_2">
    <path d="M 119.31875 415.614531 
L 509.91875 415.614531 
L 509.91875 35.094531 
L 119.31875 35.094531 
z
" style="fill:#ffffff;"/>
   </g>
   <g id="matplotlib.axis_1">
    <g id="xtick_1">
     <g id="line2d_1">
      <defs>
       <path d="M 0 0 
L 0 3.5 
" id="mf8de565431" style="stroke:#000000;stroke-width:0.8;"/>
      </defs>
      <g>
       <use style="stroke:#000000;stroke-width:0.8;" x="119.31875" xlink:href="#mf8de565431" y="415.614531"/>
      </g>
     </g>
     <g id="text_1">
      <!-- 0 -->
      <defs>
       <path d="M 31.78125 66.40625 
Q 24.171875 66.40625 20.328125 58.90625 
Q 16.5 51.421875 16.5 36.375 
Q 16.5 21.390625 20.328125 13.890625 
Q 24.171875 6.390625 31.78125 6.390625 
Q 39.453125 6.390625 43.28125 13.890625 
Q 47.125 21.390625 47.125 36.375 
Q 47.125 51.421875 43.28125 58.90625 
Q 39.453125 66.40625 31.78125 66.40625 
z
M 31.78125 74.21875 
Q 44.046875 74.21875 50.515625 64.515625 
Q 56.984375 54.828125 56.984375 36.375 
Q 56.984375 17.96875 50.515625 8.265625 
Q 44.046875 -1.421875 31.78125 -1.421875 
Q 19.53125 -1.421875 13.0625 8.265625 
Q 6.59375 17.96875 6.59375 36.375 
Q 6.59375 54.828125 13.0625 64.515625 
Q 19.53125 74.21875 31.78125 74.21875 
z
" id="DejaVuSans-48"/>
      </defs>
      <g transform="translate(109.775 445.409844)scale(0.3 -0.3)">
       <use xlink:href="#DejaVuSans-48"/>
      </g>
     </g>
    </g>
    <g id="xtick_2">
     <g id="line2d_2">
      <g>
       <use style="stroke:#000000;stroke-width:0.8;" x="175.11875" xlink:href="#mf8de565431" y="415.614531"/>
      </g>
     </g>
     <g id="text_2">
      <!-- 1 -->
      <defs>
       <path d="M 12.40625 8.296875 
L 28.515625 8.296875 
L 28.515625 63.921875 
L 10.984375 60.40625 
L 10.984375 69.390625 
L 28.421875 72.90625 
L 38.28125 72.90625 
L 38.28125 8.296875 
L 54.390625 8.296875 
L 54.390625 0 
L 12.40625 0 
z
" id="DejaVuSans-49"/>
      </defs>
      <g transform="translate(165.575 445.409844)scale(0.3 -0.3)">
       <use xlink:href="#DejaVuSans-49"/>
      </g>
     </g>
    </g>
    <g id="xtick_3">
     <g id="line2d_3">
      <g>
       <use style="stroke:#000000;stroke-width:0.8;" x="230.91875" xlink:href="#mf8de565431" y="415.614531"/>
      </g>
     </g>
     <g id="text_3">
      <!-- 2 -->
      <defs>
       <path d="M 19.1875 8.296875 
L 53.609375 8.296875 
L 53.609375 0 
L 7.328125 0 
L 7.328125 8.296875 
Q 12.9375 14.109375 22.625 23.890625 
Q 32.328125 33.6875 34.8125 36.53125 
Q 39.546875 41.84375 41.421875 45.53125 
Q 43.3125 49.21875 43.3125 52.78125 
Q 43.3125 58.59375 39.234375 62.25 
Q 35.15625 65.921875 28.609375 65.921875 
Q 23.96875 65.921875 18.8125 64.3125 
Q 13.671875 62.703125 7.8125 59.421875 
L 7.8125 69.390625 
Q 13.765625 71.78125 18.9375 73 
Q 24.125 74.21875 28.421875 74.21875 
Q 39.75 74.21875 46.484375 68.546875 
Q 53.21875 62.890625 53.21875 53.421875 
Q 53.21875 48.921875 51.53125 44.890625 
Q 49.859375 40.875 45.40625 35.40625 
Q 44.1875 33.984375 37.640625 27.21875 
Q 31.109375 20.453125 19.1875 8.296875 
z
" id="DejaVuSans-50"/>
      </defs>
      <g transform="translate(221.375 445.409844)scale(0.3 -0.3)">
       <use xlink:href="#DejaVuSans-50"/>
      </g>
     </g>
    </g>
    <g id="xtick_4">
     <g id="line2d_4">
      <g>
       <use style="stroke:#000000;stroke-width:0.8;" x="286.71875" xlink:href="#mf8de565431" y="415.614531"/>
      </g>
     </g>
     <g id="text_4">
      <!-- 3 -->
      <defs>
       <path d="M 40.578125 39.3125 
Q 47.65625 37.796875 51.625 33 
Q 55.609375 28.21875 55.609375 21.1875 
Q 55.609375 10.40625 48.1875 4.484375 
Q 40.765625 -1.421875 27.09375 -1.421875 
Q 22.515625 -1.421875 17.65625 -0.515625 
Q 12.796875 0.390625 7.625 2.203125 
L 7.625 11.71875 
Q 11.71875 9.328125 16.59375 8.109375 
Q 21.484375 6.890625 26.8125 6.890625 
Q 36.078125 6.890625 40.9375 10.546875 
Q 45.796875 14.203125 45.796875 21.1875 
Q 45.796875 27.640625 41.28125 31.265625 
Q 36.765625 34.90625 28.71875 34.90625 
L 20.21875 34.90625 
L 20.21875 43.015625 
L 29.109375 43.015625 
Q 36.375 43.015625 40.234375 45.921875 
Q 44.09375 48.828125 44.09375 54.296875 
Q 44.09375 59.90625 40.109375 62.90625 
Q 36.140625 65.921875 28.71875 65.921875 
Q 24.65625 65.921875 20.015625 65.03125 
Q 15.375 64.15625 9.8125 62.3125 
L 9.8125 71.09375 
Q 15.4375 72.65625 20.34375 73.4375 
Q 25.25 74.21875 29.59375 74.21875 
Q 40.828125 74.21875 47.359375 69.109375 
Q 53.90625 64.015625 53.90625 55.328125 
Q 53.90625 49.265625 50.4375 45.09375 
Q 46.96875 40.921875 40.578125 39.3125 
z
" id="DejaVuSans-51"/>
      </defs>
      <g transform="translate(277.175 445.409844)scale(0.3 -0.3)">
       <use xlink:href="#DejaVuSans-51"/>
      </g>
     </g>
    </g>
    <g id="xtick_5">
     <g id="line2d_5">
      <g>
       <use style="stroke:#000000;stroke-width:0.8;" x="342.51875" xlink:href="#mf8de565431" y="415.614531"/>
      </g>
     </g>
     <g id="text_5">
      <!-- 4 -->
      <defs>
       <path d="M 37.796875 64.3125 
L 12.890625 25.390625 
L 37.796875 25.390625 
z
M 35.203125 72.90625 
L 47.609375 72.90625 
L 47.609375 25.390625 
L 58.015625 25.390625 
L 58.015625 17.1875 
L 47.609375 17.1875 
L 47.609375 0 
L 37.796875 0 
L 37.796875 17.1875 
L 4.890625 17.1875 
L 4.890625 26.703125 
z
" id="DejaVuSans-52"/>
      </defs>
      <g transform="translate(332.975 445.409844)scale(0.3 -0.3)">
       <use xlink:href="#DejaVuSans-52"/>
      </g>
     </g>
    </g>
    <g id="xtick_6">
     <g id="line2d_6">
      <g>
       <use style="stroke:#000000;stroke-width:0.8;" x="398.31875" xlink:href="#mf8de565431" y="415.614531"/>
      </g>
     </g>
     <g id="text_6">
      <!-- 5 -->
      <defs>
       <path d="M 10.796875 72.90625 
L 49.515625 72.90625 
L 49.515625 64.59375 
L 19.828125 64.59375 
L 19.828125 46.734375 
Q 21.96875 47.46875 24.109375 47.828125 
Q 26.265625 48.1875 28.421875 48.1875 
Q 40.625 48.1875 47.75 41.5 
Q 54.890625 34.8125 54.890625 23.390625 
Q 54.890625 11.625 47.5625 5.09375 
Q 40.234375 -1.421875 26.90625 -1.421875 
Q 22.3125 -1.421875 17.546875 -0.640625 
Q 12.796875 0.140625 7.71875 1.703125 
L 7.71875 11.625 
Q 12.109375 9.234375 16.796875 8.0625 
Q 21.484375 6.890625 26.703125 6.890625 
Q 35.15625 6.890625 40.078125 11.328125 
Q 45.015625 15.765625 45.015625 23.390625 
Q 45.015625 31 40.078125 35.4375 
Q 35.15625 39.890625 26.703125 39.890625 
Q 22.75 39.890625 18.8125 39.015625 
Q 14.890625 38.140625 10.796875 36.28125 
z
" id="DejaVuSans-53"/>
      </defs>
      <g transform="translate(388.775 445.409844)scale(0.3 -0.3)">
       <use xlink:href="#DejaVuSans-53"/>
      </g>
     </g>
    </g>
    <g id="xtick_7">
     <g id="line2d_7">
      <g>
       <use style="stroke:#000000;stroke-width:0.8;" x="454.11875" xlink:href="#mf8de565431" y="415.614531"/>
      </g>
     </g>
     <g id="text_7">
      <!-- 6 -->
      <defs>
       <path d="M 33.015625 40.375 
Q 26.375 40.375 22.484375 35.828125 
Q 18.609375 31.296875 18.609375 23.390625 
Q 18.609375 15.53125 22.484375 10.953125 
Q 26.375 6.390625 33.015625 6.390625 
Q 39.65625 6.390625 43.53125 10.953125 
Q 47.40625 15.53125 47.40625 23.390625 
Q 47.40625 31.296875 43.53125 35.828125 
Q 39.65625 40.375 33.015625 40.375 
z
M 52.59375 71.296875 
L 52.59375 62.3125 
Q 48.875 64.0625 45.09375 64.984375 
Q 41.3125 65.921875 37.59375 65.921875 
Q 27.828125 65.921875 22.671875 59.328125 
Q 17.53125 52.734375 16.796875 39.40625 
Q 19.671875 43.65625 24.015625 45.921875 
Q 28.375 48.1875 33.59375 48.1875 
Q 44.578125 48.1875 50.953125 41.515625 
Q 57.328125 34.859375 57.328125 23.390625 
Q 57.328125 12.15625 50.6875 5.359375 
Q 44.046875 -1.421875 33.015625 -1.421875 
Q 20.359375 -1.421875 13.671875 8.265625 
Q 6.984375 17.96875 6.984375 36.375 
Q 6.984375 53.65625 15.1875 63.9375 
Q 23.390625 74.21875 37.203125 74.21875 
Q 40.921875 74.21875 44.703125 73.484375 
Q 48.484375 72.75 52.59375 71.296875 
z
" id="DejaVuSans-54"/>
      </defs>
      <g transform="translate(444.575 445.409844)scale(0.3 -0.3)">
       <use xlink:href="#DejaVuSans-54"/>
      </g>
     </g>
    </g>
    <g id="xtick_8">
     <g id="line2d_8">
      <g>
       <use style="stroke:#000000;stroke-width:0.8;" x="509.91875" xlink:href="#mf8de565431" y="415.614531"/>
      </g>
     </g>
     <g id="text_8">
      <!-- 7 -->
      <defs>
       <path d="M 8.203125 72.90625 
L 55.078125 72.90625 
L 55.078125 68.703125 
L 28.609375 0 
L 18.3125 0 
L 43.21875 64.59375 
L 8.203125 64.59375 
z
" id="DejaVuSans-55"/>
      </defs>
      <g transform="translate(500.375 445.409844)scale(0.3 -0.3)">
       <use xlink:href="#DejaVuSans-55"/>
      </g>
     </g>
    </g>
    <g id="text_9">
     <!-- TIME (DAYS) -->
     <defs>
      <path d="M 23.390625 0 
L 23.390625 59.46875 
L 2.15625 59.46875 
L 2.15625 71.578125 
L 59.03125 71.578125 
L 59.03125 59.46875 
L 37.84375 59.46875 
L 37.84375 0 
z
" id="Arial-BoldMT-84"/>
      <path d="M 6.84375 0 
L 6.84375 71.578125 
L 21.296875 71.578125 
L 21.296875 0 
z
" id="Arial-BoldMT-73"/>
      <path d="M 7.078125 0 
L 7.078125 71.578125 
L 28.71875 71.578125 
L 41.703125 22.75 
L 54.546875 71.578125 
L 76.21875 71.578125 
L 76.21875 0 
L 62.796875 0 
L 62.796875 56.34375 
L 48.578125 0 
L 34.671875 0 
L 20.515625 56.34375 
L 20.515625 0 
z
" id="Arial-BoldMT-77"/>
      <path d="M 7.28125 0 
L 7.28125 71.578125 
L 60.359375 71.578125 
L 60.359375 59.46875 
L 21.734375 59.46875 
L 21.734375 43.609375 
L 57.671875 43.609375 
L 57.671875 31.546875 
L 21.734375 31.546875 
L 21.734375 12.0625 
L 61.71875 12.0625 
L 61.71875 0 
z
" id="Arial-BoldMT-69"/>
      <path id="Arial-BoldMT-32"/>
      <path d="M 29.9375 -21.046875 
L 20.515625 -21.046875 
Q 13.03125 -9.765625 9.125 2.390625 
Q 5.21875 14.546875 5.21875 25.921875 
Q 5.21875 40.046875 10.0625 52.640625 
Q 14.265625 63.578125 20.703125 72.796875 
L 30.078125 72.796875 
Q 23.390625 58.015625 20.875 47.625 
Q 18.359375 37.25 18.359375 25.640625 
Q 18.359375 17.625 19.84375 9.21875 
Q 21.34375 0.828125 23.921875 -6.734375 
Q 25.640625 -11.71875 29.9375 -21.046875 
z
" id="Arial-BoldMT-40"/>
      <path d="M 7.234375 71.578125 
L 33.640625 71.578125 
Q 42.578125 71.578125 47.265625 70.21875 
Q 53.5625 68.359375 58.046875 63.625 
Q 62.546875 58.890625 64.890625 52.03125 
Q 67.234375 45.171875 67.234375 35.109375 
Q 67.234375 26.265625 65.046875 19.875 
Q 62.359375 12.0625 57.375 7.234375 
Q 53.609375 3.5625 47.21875 1.515625 
Q 42.4375 0 34.421875 0 
L 7.234375 0 
z
M 21.6875 59.46875 
L 21.6875 12.0625 
L 32.46875 12.0625 
Q 38.53125 12.0625 41.21875 12.75 
Q 44.734375 13.625 47.046875 15.71875 
Q 49.359375 17.828125 50.828125 22.625 
Q 52.296875 27.4375 52.296875 35.75 
Q 52.296875 44.046875 50.828125 48.484375 
Q 49.359375 52.9375 46.71875 55.421875 
Q 44.09375 57.90625 40.046875 58.796875 
Q 37.015625 59.46875 28.171875 59.46875 
z
" id="Arial-BoldMT-68"/>
      <path d="M 71.828125 0 
L 56.109375 0 
L 49.859375 16.265625 
L 21.234375 16.265625 
L 15.328125 0 
L 0 0 
L 27.875 71.578125 
L 43.171875 71.578125 
z
M 45.21875 28.328125 
L 35.359375 54.890625 
L 25.6875 28.328125 
z
" id="Arial-BoldMT-65"/>
      <path d="M 26.078125 0 
L 26.078125 30.125 
L -0.140625 71.578125 
L 16.796875 71.578125 
L 33.640625 43.265625 
L 50.140625 71.578125 
L 66.796875 71.578125 
L 40.484375 30.03125 
L 40.484375 0 
z
" id="Arial-BoldMT-89"/>
      <path d="M 3.609375 23.296875 
L 17.671875 24.65625 
Q 18.953125 17.578125 22.828125 14.25 
Q 26.703125 10.9375 33.296875 10.9375 
Q 40.28125 10.9375 43.8125 13.890625 
Q 47.359375 16.84375 47.359375 20.796875 
Q 47.359375 23.34375 45.875 25.125 
Q 44.390625 26.90625 40.671875 28.21875 
Q 38.140625 29.109375 29.109375 31.34375 
Q 17.484375 34.234375 12.796875 38.421875 
Q 6.203125 44.34375 6.203125 52.828125 
Q 6.203125 58.296875 9.296875 63.0625 
Q 12.40625 67.828125 18.234375 70.3125 
Q 24.078125 72.796875 32.328125 72.796875 
Q 45.796875 72.796875 52.609375 66.890625 
Q 59.421875 60.984375 59.765625 51.125 
L 45.3125 50.484375 
Q 44.390625 56 41.328125 58.421875 
Q 38.28125 60.84375 32.171875 60.84375 
Q 25.875 60.84375 22.3125 58.25 
Q 20.015625 56.59375 20.015625 53.8125 
Q 20.015625 51.265625 22.171875 49.46875 
Q 24.90625 47.171875 35.453125 44.671875 
Q 46 42.1875 51.046875 39.515625 
Q 56.109375 36.859375 58.953125 32.25 
Q 61.8125 27.640625 61.8125 20.84375 
Q 61.8125 14.703125 58.390625 9.328125 
Q 54.984375 3.953125 48.734375 1.34375 
Q 42.484375 -1.265625 33.15625 -1.265625 
Q 19.578125 -1.265625 12.296875 5 
Q 5.03125 11.28125 3.609375 23.296875 
z
" id="Arial-BoldMT-83"/>
      <path d="M 3.375 -21.046875 
Q 7.421875 -12.359375 9.078125 -7.71875 
Q 10.75 -3.078125 12.15625 2.96875 
Q 13.578125 9.03125 14.25 14.46875 
Q 14.9375 19.921875 14.9375 25.640625 
Q 14.9375 37.25 12.453125 47.625 
Q 9.96875 58.015625 3.265625 72.796875 
L 12.59375 72.796875 
Q 19.96875 62.3125 24.046875 50.53125 
Q 28.125 38.765625 28.125 26.65625 
Q 28.125 16.453125 24.90625 4.78125 
Q 21.234375 -8.296875 12.84375 -21.046875 
z
" id="Arial-BoldMT-41"/>
     </defs>
     <g transform="translate(253.525 476.208281)scale(0.2 -0.2)">
      <use xlink:href="#Arial-BoldMT-84"/>
      <use x="61.083984" xlink:href="#Arial-BoldMT-73"/>
      <use x="88.867188" xlink:href="#Arial-BoldMT-77"/>
      <use x="172.167969" xlink:href="#Arial-BoldMT-69"/>
      <use x="238.867188" xlink:href="#Arial-BoldMT-32"/>
      <use x="266.650391" xlink:href="#Arial-BoldMT-40"/>
      <use x="299.951172" xlink:href="#Arial-BoldMT-68"/>
      <use x="372.167969" xlink:href="#Arial-BoldMT-65"/>
      <use x="444.244141" xlink:href="#Arial-BoldMT-89"/>
      <use x="510.943359" xlink:href="#Arial-BoldMT-83"/>
      <use x="577.642578" xlink:href="#Arial-BoldMT-41"/>
     </g>
    </g>
   </g>
   <g id="matplotlib.axis_2">
    <g id="ytick_1">
     <g id="line2d_9">
      <defs>
       <path d="M 0 0 
L -3.5 0 
" id="m5997f22ebb" style="stroke:#000000;stroke-width:0.8;"/>
      </defs>
      <g>
       <use style="stroke:#000000;stroke-width:0.8;" x="119.31875" xlink:href="#m5997f22ebb" y="415.614531"/>
      </g>
     </g>
     <g id="text_10">
      <!-- 0 -->
      <g transform="translate(93.23125 427.012187)scale(0.3 -0.3)">
       <use xlink:href="#DejaVuSans-48"/>
      </g>
     </g>
    </g>
    <g id="ytick_2">
     <g id="line2d_10">
      <g>
       <use style="stroke:#000000;stroke-width:0.8;" x="119.31875" xlink:href="#m5997f22ebb" y="367.842319"/>
      </g>
     </g>
     <g id="text_11">
      <!-- 500 -->
      <g transform="translate(55.05625 379.239976)scale(0.3 -0.3)">
       <use xlink:href="#DejaVuSans-53"/>
       <use x="63.623047" xlink:href="#DejaVuSans-48"/>
       <use x="127.246094" xlink:href="#DejaVuSans-48"/>
      </g>
     </g>
    </g>
    <g id="ytick_3">
     <g id="line2d_11">
      <g>
       <use style="stroke:#000000;stroke-width:0.8;" x="119.31875" xlink:href="#m5997f22ebb" y="320.070107"/>
      </g>
     </g>
     <g id="text_12">
      <!-- 1000 -->
      <g transform="translate(35.96875 331.467764)scale(0.3 -0.3)">
       <use xlink:href="#DejaVuSans-49"/>
       <use x="63.623047" xlink:href="#DejaVuSans-48"/>
       <use x="127.246094" xlink:href="#DejaVuSans-48"/>
       <use x="190.869141" xlink:href="#DejaVuSans-48"/>
      </g>
     </g>
    </g>
    <g id="ytick_4">
     <g id="line2d_12">
      <g>
       <use style="stroke:#000000;stroke-width:0.8;" x="119.31875" xlink:href="#m5997f22ebb" y="272.297895"/>
      </g>
     </g>
     <g id="text_13">
      <!-- 1500 -->
      <g transform="translate(35.96875 283.695552)scale(0.3 -0.3)">
       <use xlink:href="#DejaVuSans-49"/>
       <use x="63.623047" xlink:href="#DejaVuSans-53"/>
       <use x="127.246094" xlink:href="#DejaVuSans-48"/>
       <use x="190.869141" xlink:href="#DejaVuSans-48"/>
      </g>
     </g>
    </g>
    <g id="ytick_5">
     <g id="line2d_13">
      <g>
       <use style="stroke:#000000;stroke-width:0.8;" x="119.31875" xlink:href="#m5997f22ebb" y="224.525683"/>
      </g>
     </g>
     <g id="text_14">
      <!-- 2000 -->
      <g transform="translate(35.96875 235.92334)scale(0.3 -0.3)">
       <use xlink:href="#DejaVuSans-50"/>
       <use x="63.623047" xlink:href="#DejaVuSans-48"/>
       <use x="127.246094" xlink:href="#DejaVuSans-48"/>
       <use x="190.869141" xlink:href="#DejaVuSans-48"/>
      </g>
     </g>
    </g>
    <g id="ytick_6">
     <g id="line2d_14">
      <g>
       <use style="stroke:#000000;stroke-width:0.8;" x="119.31875" xlink:href="#m5997f22ebb" y="176.753471"/>
      </g>
     </g>
     <g id="text_15">
      <!-- 2500 -->
      <g transform="translate(35.96875 188.151128)scale(0.3 -0.3)">
       <use xlink:href="#DejaVuSans-50"/>
       <use x="63.623047" xlink:href="#DejaVuSans-53"/>
       <use x="127.246094" xlink:href="#DejaVuSans-48"/>
       <use x="190.869141" xlink:href="#DejaVuSans-48"/>
      </g>
     </g>
    </g>
    <g id="ytick_7">
     <g id="line2d_15">
      <g>
       <use style="stroke:#000000;stroke-width:0.8;" x="119.31875" xlink:href="#m5997f22ebb" y="128.981259"/>
      </g>
     </g>
     <g id="text_16">
      <!-- 3000 -->
      <g transform="translate(35.96875 140.378916)scale(0.3 -0.3)">
       <use xlink:href="#DejaVuSans-51"/>
       <use x="63.623047" xlink:href="#DejaVuSans-48"/>
       <use x="127.246094" xlink:href="#DejaVuSans-48"/>
       <use x="190.869141" xlink:href="#DejaVuSans-48"/>
      </g>
     </g>
    </g>
    <g id="ytick_8">
     <g id="line2d_16">
      <g>
       <use style="stroke:#000000;stroke-width:0.8;" x="119.31875" xlink:href="#m5997f22ebb" y="81.209047"/>
      </g>
     </g>
     <g id="text_17">
      <!-- 3500 -->
      <g transform="translate(35.96875 92.606704)scale(0.3 -0.3)">
       <use xlink:href="#DejaVuSans-51"/>
       <use x="63.623047" xlink:href="#DejaVuSans-53"/>
       <use x="127.246094" xlink:href="#DejaVuSans-48"/>
       <use x="190.869141" xlink:href="#DejaVuSans-48"/>
      </g>
     </g>
    </g>
    <g id="text_18">
     <!-- CANCER CELL COUNTS LYSED (NUMBERS) -->
     <defs>
      <path d="M 53.078125 26.3125 
L 67.09375 21.875 
Q 63.875 10.15625 56.375 4.46875 
Q 48.875 -1.21875 37.359375 -1.21875 
Q 23.09375 -1.21875 13.90625 8.515625 
Q 4.734375 18.265625 4.734375 35.15625 
Q 4.734375 53.03125 13.953125 62.90625 
Q 23.1875 72.796875 38.234375 72.796875 
Q 51.375 72.796875 59.578125 65.046875 
Q 64.453125 60.453125 66.890625 51.859375 
L 52.59375 48.4375 
Q 51.3125 54 47.28125 57.21875 
Q 43.265625 60.453125 37.5 60.453125 
Q 29.546875 60.453125 24.578125 54.734375 
Q 19.625 49.03125 19.625 36.234375 
Q 19.625 22.65625 24.5 16.890625 
Q 29.390625 11.140625 37.203125 11.140625 
Q 42.96875 11.140625 47.109375 14.796875 
Q 51.265625 18.453125 53.078125 26.3125 
z
" id="Arial-BoldMT-67"/>
      <path d="M 7.421875 0 
L 7.421875 71.578125 
L 21.484375 71.578125 
L 50.78125 23.78125 
L 50.78125 71.578125 
L 64.203125 71.578125 
L 64.203125 0 
L 49.703125 0 
L 20.84375 46.6875 
L 20.84375 0 
z
" id="Arial-BoldMT-78"/>
      <path d="M 7.328125 0 
L 7.328125 71.578125 
L 37.75 71.578125 
Q 49.21875 71.578125 54.421875 69.640625 
Q 59.625 67.71875 62.75 62.78125 
Q 65.875 57.859375 65.875 51.515625 
Q 65.875 43.453125 61.125 38.203125 
Q 56.390625 32.953125 46.96875 31.59375 
Q 51.65625 28.859375 54.703125 25.578125 
Q 57.765625 22.3125 62.9375 13.96875 
L 71.6875 0 
L 54.390625 0 
L 43.953125 15.578125 
Q 38.375 23.921875 36.328125 26.09375 
Q 34.28125 28.265625 31.984375 29.078125 
Q 29.6875 29.890625 24.703125 29.890625 
L 21.78125 29.890625 
L 21.78125 0 
z
M 21.78125 41.3125 
L 32.46875 41.3125 
Q 42.875 41.3125 45.453125 42.1875 
Q 48.046875 43.0625 49.515625 45.203125 
Q 50.984375 47.359375 50.984375 50.59375 
Q 50.984375 54.203125 49.046875 56.421875 
Q 47.125 58.640625 43.609375 59.234375 
Q 41.84375 59.46875 33.0625 59.46875 
L 21.78125 59.46875 
z
" id="Arial-BoldMT-82"/>
      <path d="M 7.671875 0 
L 7.671875 71 
L 22.125 71 
L 22.125 12.0625 
L 58.0625 12.0625 
L 58.0625 0 
z
" id="Arial-BoldMT-76"/>
      <path d="M 4.34375 35.359375 
Q 4.34375 46.296875 7.625 53.71875 
Q 10.0625 59.1875 14.28125 63.53125 
Q 18.5 67.875 23.53125 69.96875 
Q 30.21875 72.796875 38.96875 72.796875 
Q 54.78125 72.796875 64.28125 62.984375 
Q 73.78125 53.171875 73.78125 35.6875 
Q 73.78125 18.359375 64.359375 8.5625 
Q 54.9375 -1.21875 39.15625 -1.21875 
Q 23.1875 -1.21875 13.765625 8.515625 
Q 4.34375 18.265625 4.34375 35.359375 
z
M 19.234375 35.84375 
Q 19.234375 23.6875 24.84375 17.40625 
Q 30.46875 11.140625 39.109375 11.140625 
Q 47.75 11.140625 53.296875 17.359375 
Q 58.84375 23.578125 58.84375 36.03125 
Q 58.84375 48.34375 53.4375 54.390625 
Q 48.046875 60.453125 39.109375 60.453125 
Q 30.171875 60.453125 24.703125 54.3125 
Q 19.234375 48.1875 19.234375 35.84375 
z
" id="Arial-BoldMT-79"/>
      <path d="M 7.171875 71.578125 
L 21.625 71.578125 
L 21.625 32.8125 
Q 21.625 23.578125 22.171875 20.84375 
Q 23.09375 16.453125 26.578125 13.796875 
Q 30.078125 11.140625 36.140625 11.140625 
Q 42.28125 11.140625 45.40625 13.640625 
Q 48.53125 16.15625 49.171875 19.8125 
Q 49.8125 23.484375 49.8125 31.984375 
L 49.8125 71.578125 
L 64.265625 71.578125 
L 64.265625 33.984375 
Q 64.265625 21.09375 63.09375 15.765625 
Q 61.921875 10.453125 58.765625 6.78125 
Q 55.609375 3.125 50.328125 0.953125 
Q 45.0625 -1.21875 36.578125 -1.21875 
Q 26.3125 -1.21875 21.015625 1.140625 
Q 15.71875 3.515625 12.640625 7.296875 
Q 9.578125 11.078125 8.59375 15.234375 
Q 7.171875 21.390625 7.171875 33.40625 
z
" id="Arial-BoldMT-85"/>
      <path d="M 7.328125 71.578125 
L 35.9375 71.578125 
Q 44.4375 71.578125 48.609375 70.875 
Q 52.78125 70.171875 56.078125 67.921875 
Q 59.375 65.671875 61.5625 61.9375 
Q 63.765625 58.203125 63.765625 53.5625 
Q 63.765625 48.53125 61.046875 44.328125 
Q 58.34375 40.140625 53.71875 38.03125 
Q 60.25 36.140625 63.765625 31.546875 
Q 67.28125 26.953125 67.28125 20.75 
Q 67.28125 15.875 65.015625 11.25 
Q 62.75 6.640625 58.8125 3.875 
Q 54.890625 1.125 49.125 0.484375 
Q 45.515625 0.09375 31.6875 0 
L 7.328125 0 
z
M 21.78125 59.671875 
L 21.78125 43.109375 
L 31.25 43.109375 
Q 39.703125 43.109375 41.75 43.359375 
Q 45.453125 43.796875 47.578125 45.921875 
Q 49.703125 48.046875 49.703125 51.515625 
Q 49.703125 54.828125 47.875 56.90625 
Q 46.046875 58.984375 42.4375 59.421875 
Q 40.28125 59.671875 30.078125 59.671875 
z
M 21.78125 31.203125 
L 21.78125 12.0625 
L 35.15625 12.0625 
Q 42.96875 12.0625 45.0625 12.5 
Q 48.296875 13.09375 50.3125 15.359375 
Q 52.34375 17.625 52.34375 21.4375 
Q 52.34375 24.65625 50.78125 26.90625 
Q 49.21875 29.15625 46.265625 30.171875 
Q 43.3125 31.203125 33.453125 31.203125 
z
" id="Arial-BoldMT-66"/>
     </defs>
     <g transform="translate(21.759375 438.118594)rotate(-90)scale(0.2 -0.2)">
      <use xlink:href="#Arial-BoldMT-67"/>
      <use x="72.216797" xlink:href="#Arial-BoldMT-65"/>
      <use x="144.433594" xlink:href="#Arial-BoldMT-78"/>
      <use x="216.650391" xlink:href="#Arial-BoldMT-67"/>
      <use x="288.867188" xlink:href="#Arial-BoldMT-69"/>
      <use x="355.566406" xlink:href="#Arial-BoldMT-82"/>
      <use x="427.783203" xlink:href="#Arial-BoldMT-32"/>
      <use x="455.566406" xlink:href="#Arial-BoldMT-67"/>
      <use x="527.783203" xlink:href="#Arial-BoldMT-69"/>
      <use x="594.482422" xlink:href="#Arial-BoldMT-76"/>
      <use x="655.566406" xlink:href="#Arial-BoldMT-76"/>
      <use x="716.634766" xlink:href="#Arial-BoldMT-32"/>
      <use x="744.417969" xlink:href="#Arial-BoldMT-67"/>
      <use x="816.634766" xlink:href="#Arial-BoldMT-79"/>
      <use x="894.417969" xlink:href="#Arial-BoldMT-85"/>
      <use x="966.634766" xlink:href="#Arial-BoldMT-78"/>
      <use x="1038.851562" xlink:href="#Arial-BoldMT-84"/>
      <use x="1099.935547" xlink:href="#Arial-BoldMT-83"/>
      <use x="1166.634766" xlink:href="#Arial-BoldMT-32"/>
      <use x="1194.417969" xlink:href="#Arial-BoldMT-76"/>
      <use x="1255.361328" xlink:href="#Arial-BoldMT-89"/>
      <use x="1322.060547" xlink:href="#Arial-BoldMT-83"/>
      <use x="1388.759766" xlink:href="#Arial-BoldMT-69"/>
      <use x="1455.458984" xlink:href="#Arial-BoldMT-68"/>
      <use x="1527.675781" xlink:href="#Arial-BoldMT-32"/>
      <use x="1555.458984" xlink:href="#Arial-BoldMT-40"/>
      <use x="1588.759766" xlink:href="#Arial-BoldMT-78"/>
      <use x="1660.976562" xlink:href="#Arial-BoldMT-85"/>
      <use x="1733.193359" xlink:href="#Arial-BoldMT-77"/>
      <use x="1816.494141" xlink:href="#Arial-BoldMT-66"/>
      <use x="1888.710938" xlink:href="#Arial-BoldMT-69"/>
      <use x="1955.410156" xlink:href="#Arial-BoldMT-82"/>
      <use x="2027.626953" xlink:href="#Arial-BoldMT-83"/>
      <use x="2094.326172" xlink:href="#Arial-BoldMT-41"/>
     </g>
    </g>
   </g>
   <g id="line2d_17">
    <path clip-path="url(#pd76392083e)" d="M 119.31875 415.614531 
L 147.21875 407.302166 
L 175.11875 405.869 
L 203.01875 397.270002 
L 230.91875 385.422493 
L 258.81875 360.389854 
L 286.71875 330.293361 
L 314.61875 262.45682 
L 342.51875 149.236677 
L 370.41875 111.305541 
L 398.31875 101.751099 
L 426.21875 98.311499 
L 454.11875 96.496155 
L 482.01875 95.636255 
L 509.91875 94.8719 
" style="fill:none;stroke:#08306b;stroke-linecap:square;stroke-width:1.5;"/>
   </g>
   <g id="line2d_18">
    <path clip-path="url(#pd76392083e)" d="M 119.31875 415.614531 
L 147.21875 407.206622 
L 175.11875 404.435834 
L 203.01875 395.263569 
L 230.91875 380.740817 
L 258.81875 355.899266 
L 286.71875 324.178518 
L 314.61875 257.679598 
L 342.51875 144.268367 
L 370.41875 111.974352 
L 398.31875 104.712976 
L 426.21875 102.037732 
L 454.11875 100.795654 
L 482.01875 100.317932 
L 509.91875 99.744666 
" style="fill:none;stroke:#08306b;stroke-linecap:square;stroke-width:1.5;"/>
   </g>
   <g id="line2d_19">
    <path clip-path="url(#pd76392083e)" d="M 119.31875 415.614531 
L 147.21875 407.111078 
L 175.11875 404.913556 
L 203.01875 397.747724 
L 230.91875 385.040316 
L 258.81875 361.918565 
L 286.71875 330.197816 
L 314.61875 261.023653 
L 342.51875 144.841634 
L 370.41875 113.120885 
L 398.31875 102.993176 
L 426.21875 99.744666 
L 454.11875 99.171399 
L 482.01875 98.598133 
L 509.91875 98.120411 
" style="fill:none;stroke:#08306b;stroke-linecap:square;stroke-width:1.5;"/>
   </g>
   <g id="line2d_20">
    <path clip-path="url(#pd76392083e)" d="M 119.31875 415.614531 
L 147.21875 406.919989 
L 175.11875 404.340289 
L 203.01875 396.027924 
L 230.91875 382.938338 
L 258.81875 359.43441 
L 286.71875 328.095839 
L 314.61875 258.826132 
L 342.51875 152.96291 
L 370.41875 113.598607 
L 398.31875 107.865942 
L 426.21875 104.044165 
L 454.11875 102.037732 
L 482.01875 101.464465 
L 509.91875 100.70011 
" style="fill:none;stroke:#08306b;stroke-linecap:square;stroke-width:1.5;"/>
   </g>
   <g id="line2d_21">
    <path clip-path="url(#pd76392083e)" d="M 119.31875 415.614531 
L 147.21875 407.875433 
L 175.11875 405.0091 
L 203.01875 397.365546 
L 230.91875 386.473482 
L 258.81875 364.40272 
L 286.71875 330.771083 
L 314.61875 255.959799 
L 342.51875 136.433725 
L 370.41875 108.057031 
L 398.31875 99.84021 
L 426.21875 95.254078 
L 454.11875 93.725367 
L 482.01875 92.578834 
L 509.91875 91.432301 
" style="fill:none;stroke:#08306b;stroke-linecap:square;stroke-width:1.5;"/>
   </g>
   <g id="line2d_22">
    <path clip-path="url(#pd76392083e)" d="M 119.31875 415.614531 
L 147.21875 409.308599 
L 175.11875 406.824444 
L 203.01875 399.563068 
L 230.91875 385.900215 
L 258.81875 364.784898 
L 286.71875 331.057716 
L 314.61875 270.195918 
L 342.51875 149.045588 
L 370.41875 106.623864 
L 398.31875 95.445167 
L 426.21875 89.90359 
L 454.11875 88.852601 
L 482.01875 87.897157 
L 509.91875 87.514979 
" style="fill:none;stroke:#08306b;stroke-linecap:square;stroke-width:1.5;"/>
   </g>
   <g id="line2d_23">
    <path clip-path="url(#pd76392083e)" d="M 119.31875 415.614531 
L 147.21875 408.257611 
L 175.11875 405.582367 
L 203.01875 396.696735 
L 230.91875 383.798238 
L 258.81875 359.052232 
L 286.71875 326.662673 
L 314.61875 252.233566 
L 342.51875 144.268367 
L 370.41875 108.821386 
L 398.31875 98.024866 
L 426.21875 93.438734 
L 454.11875 92.196656 
L 482.01875 91.62339 
L 509.91875 91.050123 
" style="fill:none;stroke:#08306b;stroke-linecap:square;stroke-width:1.5;"/>
   </g>
   <g id="line2d_24">
    <path clip-path="url(#pd76392083e)" d="M 119.31875 415.614531 
L 147.21875 407.875433 
L 175.11875 404.818011 
L 203.01875 395.263569 
L 230.91875 382.842794 
L 258.81875 358.956688 
L 286.71875 326.089406 
L 314.61875 258.252865 
L 342.51875 149.141133 
L 370.41875 115.891673 
L 398.31875 107.38822 
L 426.21875 101.942187 
L 454.11875 100.509021 
L 482.01875 99.84021 
L 509.91875 99.362488 
" style="fill:none;stroke:#08306b;stroke-linecap:square;stroke-width:1.5;"/>
   </g>
   <g id="line2d_25">
    <path clip-path="url(#pd76392083e)" d="M 119.31875 415.614531 
L 147.21875 407.397711 
L 175.11875 404.913556 
L 203.01875 396.601191 
L 230.91875 384.27596 
L 258.81875 361.918565 
L 286.71875 325.993862 
L 314.61875 250.895944 
L 342.51875 145.128267 
L 370.41875 104.904065 
L 398.31875 98.215955 
L 426.21875 94.489722 
L 454.11875 94.203089 
L 482.01875 94.107545 
L 509.91875 94.107545 
" style="fill:none;stroke:#08306b;stroke-linecap:square;stroke-width:1.5;"/>
   </g>
   <g id="line2d_26">
    <path clip-path="url(#pd76392083e)" d="M 119.31875 415.614531 
L 147.21875 408.830877 
L 175.11875 406.060089 
L 203.01875 398.512079 
L 230.91875 385.326949 
L 258.81875 362.300743 
L 286.71875 330.293361 
L 314.61875 257.010788 
L 342.51875 143.408467 
L 370.41875 108.91693 
L 398.31875 101.56001 
L 426.21875 98.502588 
L 454.11875 97.738233 
L 482.01875 97.642688 
L 509.91875 97.642688 
" style="fill:none;stroke:#08306b;stroke-linecap:square;stroke-width:1.5;"/>
   </g>
   <g id="line2d_27">
    <path clip-path="url(#pd76392083e)" d="M 119.31875 415.614531 
L 147.21875 414.467998 
L 175.11875 414.372454 
L 203.01875 414.08582 
L 230.91875 412.843743 
L 258.81875 411.983843 
L 286.71875 409.404144 
L 314.61875 395.550202 
L 342.51875 321.694363 
L 370.41875 223.856872 
L 398.31875 177.231194 
L 426.21875 139.300057 
L 454.11875 98.502588 
L 482.01875 75.85856 
L 509.91875 63.151151 
" style="fill:none;stroke:#4a98c9;stroke-linecap:square;stroke-width:1.5;"/>
   </g>
   <g id="line2d_28">
    <path clip-path="url(#pd76392083e)" d="M 119.31875 415.614531 
L 147.21875 414.372454 
L 175.11875 414.276909 
L 203.01875 413.990276 
L 230.91875 413.321465 
L 258.81875 412.366021 
L 286.71875 410.359588 
L 314.61875 389.817537 
L 342.51875 308.318143 
L 370.41875 228.156371 
L 398.31875 186.212369 
L 426.21875 140.637679 
L 454.11875 104.139709 
L 482.01875 87.228346 
L 509.91875 71.750149 
" style="fill:none;stroke:#4a98c9;stroke-linecap:square;stroke-width:1.5;"/>
   </g>
   <g id="line2d_29">
    <path clip-path="url(#pd76392083e)" d="M 119.31875 415.614531 
L 147.21875 413.990276 
L 175.11875 413.990276 
L 203.01875 413.799187 
L 230.91875 413.225921 
L 258.81875 412.079388 
L 286.71875 409.881866 
L 314.61875 385.040316 
L 342.51875 309.369132 
L 370.41875 228.251916 
L 398.31875 182.868315 
L 426.21875 145.701534 
L 454.11875 108.821386 
L 482.01875 86.368446 
L 509.91875 72.132327 
" style="fill:none;stroke:#4a98c9;stroke-linecap:square;stroke-width:1.5;"/>
   </g>
   <g id="line2d_30">
    <path clip-path="url(#pd76392083e)" d="M 119.31875 415.614531 
L 147.21875 414.08582 
L 175.11875 413.990276 
L 203.01875 413.799187 
L 230.91875 413.225921 
L 258.81875 411.601665 
L 286.71875 408.735333 
L 314.61875 390.772981 
L 342.51875 315.675064 
L 370.41875 208.760853 
L 398.31875 157.835675 
L 426.21875 134.331747 
L 454.11875 94.585267 
L 482.01875 74.234305 
L 509.91875 62.960062 
" style="fill:none;stroke:#4a98c9;stroke-linecap:square;stroke-width:1.5;"/>
   </g>
   <g id="line2d_31">
    <path clip-path="url(#pd76392083e)" d="M 119.31875 415.614531 
L 147.21875 414.467998 
L 175.11875 414.467998 
L 203.01875 413.990276 
L 230.91875 413.225921 
L 258.81875 411.601665 
L 286.71875 407.493255 
L 314.61875 393.639314 
L 342.51875 317.203775 
L 370.41875 219.175196 
L 398.31875 171.689617 
L 426.21875 132.994125 
L 454.11875 86.65508 
L 482.01875 66.399662 
L 509.91875 53.214531 
" style="fill:none;stroke:#4a98c9;stroke-linecap:square;stroke-width:1.5;"/>
   </g>
   <g id="line2d_32">
    <path clip-path="url(#pd76392083e)" d="M 119.31875 415.614531 
L 147.21875 413.990276 
L 175.11875 413.990276 
L 203.01875 413.894732 
L 230.91875 412.652654 
L 258.81875 411.123943 
L 286.71875 407.302166 
L 314.61875 385.99576 
L 342.51875 308.509232 
L 370.41875 211.05392 
L 398.31875 164.810418 
L 426.21875 128.12136 
L 454.11875 92.005567 
L 482.01875 69.934805 
L 509.91875 57.896208 
" style="fill:none;stroke:#4a98c9;stroke-linecap:square;stroke-width:1.5;"/>
   </g>
   <g id="line2d_33">
    <path clip-path="url(#pd76392083e)" d="M 119.31875 415.614531 
L 147.21875 414.754631 
L 175.11875 414.754631 
L 203.01875 414.467998 
L 230.91875 413.703643 
L 258.81875 412.55711 
L 286.71875 410.359588 
L 314.61875 392.68387 
L 342.51875 319.114663 
L 370.41875 209.907387 
L 398.31875 162.230719 
L 426.21875 132.803036 
L 454.11875 86.559535 
L 482.01875 68.023917 
L 509.91875 56.271953 
" style="fill:none;stroke:#4a98c9;stroke-linecap:square;stroke-width:1.5;"/>
   </g>
   <g id="line2d_34">
    <path clip-path="url(#pd76392083e)" d="M 119.31875 415.614531 
L 147.21875 413.703643 
L 175.11875 413.703643 
L 203.01875 413.225921 
L 230.91875 412.079388 
L 258.81875 409.97741 
L 286.71875 404.244745 
L 314.61875 371.281919 
L 342.51875 276.215217 
L 370.41875 195.957901 
L 398.31875 152.485188 
L 426.21875 114.554051 
L 454.11875 82.164492 
L 482.01875 70.316983 
L 509.91875 60.189274 
" style="fill:none;stroke:#4a98c9;stroke-linecap:square;stroke-width:1.5;"/>
   </g>
   <g id="line2d_35">
    <path clip-path="url(#pd76392083e)" d="M 119.31875 415.614531 
L 147.21875 413.512554 
L 175.11875 413.512554 
L 203.01875 412.939287 
L 230.91875 412.652654 
L 258.81875 411.315032 
L 286.71875 407.111078 
L 314.61875 384.849227 
L 342.51875 308.127054 
L 370.41875 214.206886 
L 398.31875 162.803986 
L 426.21875 127.643637 
L 454.11875 88.852601 
L 482.01875 71.081339 
L 509.91875 59.23383 
" style="fill:none;stroke:#4a98c9;stroke-linecap:square;stroke-width:1.5;"/>
   </g>
   <g id="line2d_36">
    <path clip-path="url(#pd76392083e)" d="M 119.31875 415.614531 
L 147.21875 413.894732 
L 175.11875 413.799187 
L 203.01875 413.417009 
L 230.91875 412.079388 
L 258.81875 409.97741 
L 286.71875 407.111078 
L 314.61875 385.709127 
L 342.51875 310.133487 
L 370.41875 221.945984 
L 398.31875 169.874273 
L 426.21875 132.325314 
L 454.11875 88.661513 
L 482.01875 71.081339 
L 509.91875 60.858085 
" style="fill:none;stroke:#4a98c9;stroke-linecap:square;stroke-width:1.5;"/>
   </g>
   <g id="line2d_37">
    <path clip-path="url(#pd76392083e)" d="M 119.31875 415.614531 
L 147.21875 415.327898 
L 175.11875 415.327898 
L 203.01875 415.327898 
L 230.91875 415.327898 
L 258.81875 415.327898 
L 286.71875 415.232354 
L 314.61875 414.94572 
L 342.51875 411.506121 
L 370.41875 401.091779 
L 398.31875 392.588325 
L 426.21875 385.231404 
L 454.11875 378.829928 
L 482.01875 372.141818 
L 509.91875 365.167075 
" style="fill:none;stroke:#d0e1f2;stroke-linecap:square;stroke-width:1.5;"/>
   </g>
   <g id="line2d_38">
    <path clip-path="url(#pd76392083e)" d="M 119.31875 415.614531 
L 147.21875 415.614531 
L 175.11875 415.614531 
L 203.01875 415.614531 
L 230.91875 415.614531 
L 258.81875 415.614531 
L 286.71875 415.614531 
L 314.61875 415.614531 
L 342.51875 414.372454 
L 370.41875 409.021966 
L 398.31875 401.665045 
L 426.21875 394.881391 
L 454.11875 387.524471 
L 482.01875 379.403195 
L 509.91875 371.664096 
" style="fill:none;stroke:#d0e1f2;stroke-linecap:square;stroke-width:1.5;"/>
   </g>
   <g id="line2d_39">
    <path clip-path="url(#pd76392083e)" d="M 119.31875 415.614531 
L 147.21875 415.423442 
L 175.11875 415.423442 
L 203.01875 415.423442 
L 230.91875 415.423442 
L 258.81875 415.232354 
L 286.71875 415.136809 
L 314.61875 415.041265 
L 342.51875 412.748199 
L 370.41875 403.862567 
L 398.31875 397.461091 
L 426.21875 391.632881 
L 454.11875 384.658138 
L 482.01875 376.441317 
L 509.91875 368.797764 
" style="fill:none;stroke:#d0e1f2;stroke-linecap:square;stroke-width:1.5;"/>
   </g>
   <g id="line2d_40">
    <path clip-path="url(#pd76392083e)" d="M 119.31875 415.614531 
L 147.21875 415.327898 
L 175.11875 415.327898 
L 203.01875 415.327898 
L 230.91875 415.327898 
L 258.81875 415.327898 
L 286.71875 415.232354 
L 314.61875 414.94572 
L 342.51875 410.359588 
L 370.41875 399.658612 
L 398.31875 390.199714 
L 426.21875 382.556161 
L 454.11875 376.727951 
L 482.01875 370.135385 
L 509.91875 364.784898 
" style="fill:none;stroke:#d0e1f2;stroke-linecap:square;stroke-width:1.5;"/>
   </g>
   <g id="line2d_41">
    <path clip-path="url(#pd76392083e)" d="M 119.31875 415.614531 
L 147.21875 415.327898 
L 175.11875 415.327898 
L 203.01875 415.327898 
L 230.91875 415.327898 
L 258.81875 415.327898 
L 286.71875 415.327898 
L 314.61875 415.327898 
L 342.51875 410.550677 
L 370.41875 404.053656 
L 398.31875 398.798713 
L 426.21875 392.397236 
L 454.11875 385.231404 
L 482.01875 379.212106 
L 509.91875 371.95073 
" style="fill:none;stroke:#d0e1f2;stroke-linecap:square;stroke-width:1.5;"/>
   </g>
   <g id="line2d_42">
    <path clip-path="url(#pd76392083e)" d="M 119.31875 415.614531 
L 147.21875 415.327898 
L 175.11875 415.327898 
L 203.01875 415.327898 
L 230.91875 415.327898 
L 258.81875 415.327898 
L 286.71875 415.327898 
L 314.61875 415.136809 
L 342.51875 412.461565 
L 370.41875 405.391278 
L 398.31875 397.747724 
L 426.21875 391.155159 
L 454.11875 385.040316 
L 482.01875 377.205673 
L 509.91875 371.473007 
" style="fill:none;stroke:#d0e1f2;stroke-linecap:square;stroke-width:1.5;"/>
   </g>
   <g id="line2d_43">
    <path clip-path="url(#pd76392083e)" d="M 119.31875 415.614531 
L 147.21875 415.327898 
L 175.11875 415.327898 
L 203.01875 415.327898 
L 230.91875 415.327898 
L 258.81875 415.327898 
L 286.71875 415.327898 
L 314.61875 415.327898 
L 342.51875 411.888299 
L 370.41875 403.958112 
L 398.31875 395.741291 
L 426.21875 391.537336 
L 454.11875 383.607149 
L 482.01875 376.536862 
L 509.91875 369.944297 
" style="fill:none;stroke:#d0e1f2;stroke-linecap:square;stroke-width:1.5;"/>
   </g>
   <g id="line2d_44">
    <path clip-path="url(#pd76392083e)" d="M 119.31875 415.614531 
L 147.21875 415.614531 
L 175.11875 415.614531 
L 203.01875 415.614531 
L 230.91875 415.614531 
L 258.81875 415.614531 
L 286.71875 415.614531 
L 314.61875 415.518987 
L 342.51875 414.659087 
L 370.41875 407.875433 
L 398.31875 397.843268 
L 426.21875 392.492781 
L 454.11875 382.842794 
L 482.01875 373.957162 
L 509.91875 367.746775 
" style="fill:none;stroke:#d0e1f2;stroke-linecap:square;stroke-width:1.5;"/>
   </g>
   <g id="line2d_45">
    <path clip-path="url(#pd76392083e)" d="M 119.31875 415.614531 
L 147.21875 415.423442 
L 175.11875 415.423442 
L 203.01875 415.423442 
L 230.91875 415.423442 
L 258.81875 415.327898 
L 286.71875 415.327898 
L 314.61875 414.850176 
L 342.51875 410.741766 
L 370.41875 403.384845 
L 398.31875 396.123469 
L 426.21875 388.288826 
L 454.11875 380.645272 
L 482.01875 372.141818 
L 509.91875 366.695786 
" style="fill:none;stroke:#d0e1f2;stroke-linecap:square;stroke-width:1.5;"/>
   </g>
   <g id="line2d_46">
    <path clip-path="url(#pd76392083e)" d="M 119.31875 415.614531 
L 147.21875 415.518987 
L 175.11875 415.518987 
L 203.01875 415.518987 
L 230.91875 415.518987 
L 258.81875 415.518987 
L 286.71875 415.518987 
L 314.61875 414.94572 
L 342.51875 413.321465 
L 370.41875 408.448699 
L 398.31875 402.142767 
L 426.21875 396.410102 
L 454.11875 388.097737 
L 482.01875 381.88735 
L 509.91875 373.861618 
" style="fill:none;stroke:#d0e1f2;stroke-linecap:square;stroke-width:1.5;"/>
   </g>
   <g id="line2d_47">
    <path clip-path="url(#pd76392083e)" d="M 119.31875 415.614531 
L 147.21875 411.410577 
L 175.11875 410.264044 
L 203.01875 406.633355 
L 230.91875 399.467524 
L 258.81875 386.664571 
L 286.71875 366.218064 
L 314.61875 293.317669 
L 342.51875 157.549042 
L 370.41875 96.973877 
L 398.31875 79.10707 
L 426.21875 70.985794 
L 454.11875 66.877384 
L 482.01875 64.488773 
L 509.91875 63.34224 
" style="fill:none;stroke:#1764ab;stroke-linecap:square;stroke-width:1.5;"/>
   </g>
   <g id="line2d_48">
    <path clip-path="url(#pd76392083e)" d="M 119.31875 415.614531 
L 147.21875 410.550677 
L 175.11875 409.404144 
L 203.01875 404.913556 
L 230.91875 399.085346 
L 258.81875 384.371505 
L 286.71875 363.733909 
L 314.61875 293.317669 
L 342.51875 165.097052 
L 370.41875 105.381787 
L 398.31875 86.463991 
L 426.21875 75.285293 
L 454.11875 71.654605 
L 482.01875 69.839261 
L 509.91875 69.265994 
" style="fill:none;stroke:#1764ab;stroke-linecap:square;stroke-width:1.5;"/>
   </g>
   <g id="line2d_49">
    <path clip-path="url(#pd76392083e)" d="M 119.31875 415.614531 
L 147.21875 409.97741 
L 175.11875 409.404144 
L 203.01875 405.295733 
L 230.91875 398.034357 
L 258.81875 384.753682 
L 286.71875 362.68292 
L 314.61875 283.763226 
L 342.51875 158.408942 
L 370.41875 101.56001 
L 398.31875 87.132802 
L 426.21875 77.769448 
L 454.11875 73.565494 
L 482.01875 72.323416 
L 509.91875 70.412528 
" style="fill:none;stroke:#1764ab;stroke-linecap:square;stroke-width:1.5;"/>
   </g>
   <g id="line2d_50">
    <path clip-path="url(#pd76392083e)" d="M 119.31875 415.614531 
L 147.21875 410.455132 
L 175.11875 410.264044 
L 203.01875 406.442267 
L 230.91875 399.276435 
L 258.81875 384.562593 
L 286.71875 360.29431 
L 314.61875 285.960748 
L 342.51875 149.141133 
L 370.41875 99.362488 
L 398.31875 85.986269 
L 426.21875 78.629348 
L 454.11875 76.049649 
L 482.01875 74.712027 
L 509.91875 74.13876 
" style="fill:none;stroke:#1764ab;stroke-linecap:square;stroke-width:1.5;"/>
   </g>
   <g id="line2d_51">
    <path clip-path="url(#pd76392083e)" d="M 119.31875 415.614531 
L 147.21875 410.83731 
L 175.11875 409.881866 
L 203.01875 406.442267 
L 230.91875 400.04079 
L 258.81875 383.607149 
L 286.71875 361.249754 
L 314.61875 288.540447 
L 342.51875 135.860458 
L 370.41875 86.941713 
L 398.31875 74.807571 
L 426.21875 64.775407 
L 454.11875 62.768974 
L 482.01875 61.431352 
L 509.91875 60.762541 
" style="fill:none;stroke:#1764ab;stroke-linecap:square;stroke-width:1.5;"/>
   </g>
   <g id="line2d_52">
    <path clip-path="url(#pd76392083e)" d="M 119.31875 415.614531 
L 147.21875 410.646221 
L 175.11875 409.690777 
L 203.01875 405.295733 
L 230.91875 398.894257 
L 258.81875 384.371505 
L 286.71875 359.43441 
L 314.61875 288.349359 
L 342.51875 157.453498 
L 370.41875 97.547144 
L 398.31875 81.209047 
L 426.21875 73.565494 
L 454.11875 69.074906 
L 482.01875 67.259562 
L 509.91875 66.208573 
" style="fill:none;stroke:#1764ab;stroke-linecap:square;stroke-width:1.5;"/>
   </g>
   <g id="line2d_53">
    <path clip-path="url(#pd76392083e)" d="M 119.31875 415.614531 
L 147.21875 409.690777 
L 175.11875 408.639788 
L 203.01875 403.767023 
L 230.91875 397.461091 
L 258.81875 380.931905 
L 286.71875 355.994811 
L 314.61875 279.75036 
L 342.51875 145.223812 
L 370.41875 96.782789 
L 398.31875 84.744191 
L 426.21875 77.769448 
L 454.11875 74.712027 
L 482.01875 73.469949 
L 509.91875 72.896683 
" style="fill:none;stroke:#1764ab;stroke-linecap:square;stroke-width:1.5;"/>
   </g>
   <g id="line2d_54">
    <path clip-path="url(#pd76392083e)" d="M 119.31875 415.614531 
L 147.21875 411.410577 
L 175.11875 410.83731 
L 203.01875 406.346722 
L 230.91875 398.989801 
L 258.81875 384.27596 
L 286.71875 357.523521 
L 314.61875 279.272638 
L 342.51875 145.797078 
L 370.41875 98.789221 
L 398.31875 82.928847 
L 426.21875 75.285293 
L 454.11875 72.514505 
L 482.01875 70.508072 
L 509.91875 69.17045 
" style="fill:none;stroke:#1764ab;stroke-linecap:square;stroke-width:1.5;"/>
   </g>
   <g id="line2d_55">
    <path clip-path="url(#pd76392083e)" d="M 119.31875 415.614531 
L 147.21875 411.888299 
L 175.11875 411.410577 
L 203.01875 408.353155 
L 230.91875 402.62049 
L 258.81875 389.339815 
L 286.71875 365.740342 
L 314.61875 297.712712 
L 342.51875 158.600031 
L 370.41875 98.311499 
L 398.31875 78.342715 
L 426.21875 67.355106 
L 454.11875 64.584318 
L 482.01875 63.151151 
L 509.91875 62.768974 
" style="fill:none;stroke:#1764ab;stroke-linecap:square;stroke-width:1.5;"/>
   </g>
   <g id="line2d_56">
    <path clip-path="url(#pd76392083e)" d="M 119.31875 415.614531 
L 147.21875 409.595233 
L 175.11875 408.544244 
L 203.01875 404.244745 
L 230.91875 397.078913 
L 258.81875 383.033883 
L 286.71875 355.899266 
L 314.61875 286.342926 
L 342.51875 155.160432 
L 370.41875 104.330798 
L 398.31875 86.65508 
L 426.21875 79.10707 
L 454.11875 76.909548 
L 482.01875 75.667471 
L 509.91875 75.380838 
" style="fill:none;stroke:#1764ab;stroke-linecap:square;stroke-width:1.5;"/>
   </g>
   <g id="line2d_57">
    <path clip-path="url(#pd76392083e)" d="M 119.31875 415.614531 
L 147.21875 415.327898 
L 175.11875 415.327898 
L 203.01875 415.327898 
L 230.91875 415.232354 
L 258.81875 414.850176 
L 286.71875 414.563543 
L 314.61875 410.455132 
L 342.51875 387.046748 
L 370.41875 333.73296 
L 398.31875 289.400347 
L 426.21875 256.341977 
L 454.11875 206.849965 
L 482.01875 170.734173 
L 509.91875 147.421333 
" style="fill:none;stroke:#94c4df;stroke-linecap:square;stroke-width:1.5;"/>
   </g>
   <g id="line2d_58">
    <path clip-path="url(#pd76392083e)" d="M 119.31875 415.614531 
L 147.21875 414.94572 
L 175.11875 414.94572 
L 203.01875 414.850176 
L 230.91875 414.850176 
L 258.81875 414.467998 
L 286.71875 412.748199 
L 314.61875 403.384845 
L 342.51875 372.523996 
L 370.41875 320.165652 
L 398.31875 282.33006 
L 426.21875 245.927634 
L 454.11875 204.843532 
L 482.01875 172.358428 
L 509.91875 144.555001 
" style="fill:none;stroke:#94c4df;stroke-linecap:square;stroke-width:1.5;"/>
   </g>
   <g id="line2d_59">
    <path clip-path="url(#pd76392083e)" d="M 119.31875 415.614531 
L 147.21875 414.94572 
L 175.11875 414.94572 
L 203.01875 414.94572 
L 230.91875 414.94572 
L 258.81875 414.563543 
L 286.71875 413.894732 
L 314.61875 408.448699 
L 342.51875 386.377938 
L 370.41875 332.490882 
L 398.31875 288.062725 
L 426.21875 251.564755 
L 454.11875 209.620753 
L 482.01875 177.995549 
L 509.91875 152.580732 
" style="fill:none;stroke:#94c4df;stroke-linecap:square;stroke-width:1.5;"/>
   </g>
   <g id="line2d_60">
    <path clip-path="url(#pd76392083e)" d="M 119.31875 415.614531 
L 147.21875 415.327898 
L 175.11875 415.232354 
L 203.01875 415.232354 
L 230.91875 415.041265 
L 258.81875 415.041265 
L 286.71875 414.563543 
L 314.61875 411.888299 
L 342.51875 391.82397 
L 370.41875 334.497315 
L 398.31875 287.393914 
L 426.21875 254.717721 
L 454.11875 210.576197 
L 482.01875 167.294573 
L 509.91875 142.930745 
" style="fill:none;stroke:#94c4df;stroke-linecap:square;stroke-width:1.5;"/>
   </g>
   <g id="line2d_61">
    <path clip-path="url(#pd76392083e)" d="M 119.31875 415.614531 
L 147.21875 414.659087 
L 175.11875 414.659087 
L 203.01875 414.659087 
L 230.91875 414.467998 
L 258.81875 414.372454 
L 286.71875 413.608098 
L 314.61875 402.907123 
L 342.51875 367.460142 
L 370.41875 313.764175 
L 398.31875 271.724629 
L 426.21875 233.984581 
L 454.11875 195.384634 
L 482.01875 161.752997 
L 509.91875 136.147091 
" style="fill:none;stroke:#94c4df;stroke-linecap:square;stroke-width:1.5;"/>
   </g>
   <g id="line2d_62">
    <path clip-path="url(#pd76392083e)" d="M 119.31875 415.614531 
L 147.21875 414.754631 
L 175.11875 414.754631 
L 203.01875 414.754631 
L 230.91875 414.563543 
L 258.81875 413.608098 
L 286.71875 412.270476 
L 314.61875 404.722467 
L 342.51875 369.562119 
L 370.41875 309.846854 
L 398.31875 265.227608 
L 426.21875 231.595971 
L 454.11875 195.766812 
L 482.01875 162.612897 
L 509.91875 136.529269 
" style="fill:none;stroke:#94c4df;stroke-linecap:square;stroke-width:1.5;"/>
   </g>
   <g id="line2d_63">
    <path clip-path="url(#pd76392083e)" d="M 119.31875 415.614531 
L 147.21875 415.423442 
L 175.11875 415.423442 
L 203.01875 415.423442 
L 230.91875 415.327898 
L 258.81875 415.041265 
L 286.71875 414.754631 
L 314.61875 410.932854 
L 342.51875 396.983369 
L 370.41875 348.733434 
L 398.31875 296.279546 
L 426.21875 261.692464 
L 454.11875 215.066785 
L 482.01875 173.504961 
L 509.91875 150.287666 
" style="fill:none;stroke:#94c4df;stroke-linecap:square;stroke-width:1.5;"/>
   </g>
   <g id="line2d_64">
    <path clip-path="url(#pd76392083e)" d="M 119.31875 415.614531 
L 147.21875 415.041265 
L 175.11875 414.94572 
L 203.01875 414.94572 
L 230.91875 414.467998 
L 258.81875 413.799187 
L 286.71875 412.270476 
L 314.61875 401.76059 
L 342.51875 370.422019 
L 370.41875 311.088931 
L 398.31875 262.265731 
L 426.21875 231.882604 
L 454.11875 190.32078 
L 482.01875 157.357953 
L 509.91875 135.956002 
" style="fill:none;stroke:#94c4df;stroke-linecap:square;stroke-width:1.5;"/>
   </g>
   <g id="line2d_65">
    <path clip-path="url(#pd76392083e)" d="M 119.31875 415.614531 
L 147.21875 414.94572 
L 175.11875 414.94572 
L 203.01875 414.850176 
L 230.91875 414.467998 
L 258.81875 413.894732 
L 286.71875 412.939287 
L 314.61875 405.104645 
L 342.51875 368.033408 
L 370.41875 317.012686 
L 398.31875 272.488984 
L 426.21875 233.697948 
L 454.11875 195.766812 
L 482.01875 162.326263 
L 509.91875 137.675802 
" style="fill:none;stroke:#94c4df;stroke-linecap:square;stroke-width:1.5;"/>
   </g>
   <g id="line2d_66">
    <path clip-path="url(#pd76392083e)" d="M 119.31875 415.614531 
L 147.21875 414.372454 
L 175.11875 414.372454 
L 203.01875 414.276909 
L 230.91875 414.276909 
L 258.81875 413.703643 
L 286.71875 413.034832 
L 314.61875 407.493255 
L 342.51875 359.052232 
L 370.41875 298.285979 
L 398.31875 260.163754 
L 426.21875 225.481128 
L 454.11875 183.059403 
L 482.01875 157.262409 
L 509.91875 135.764914 
" style="fill:none;stroke:#94c4df;stroke-linecap:square;stroke-width:1.5;"/>
   </g>
   <g id="line2d_67">
    <path clip-path="url(#pd76392083e)" d="M 119.31875 415.614531 
L 147.21875 415.614531 
L 175.11875 415.614531 
L 203.01875 415.614531 
L 230.91875 415.614531 
L 258.81875 415.614531 
L 286.71875 415.614531 
L 314.61875 415.614531 
L 342.51875 415.614531 
L 370.41875 415.614531 
L 398.31875 415.614531 
L 426.21875 415.614531 
L 454.11875 415.614531 
L 482.01875 415.614531 
L 509.91875 415.614531 
" style="fill:none;stroke:#000000;stroke-linecap:square;stroke-width:1.5;"/>
   </g>
   <g id="line2d_68">
    <path clip-path="url(#pd76392083e)" d="M 119.31875 415.614531 
L 147.21875 415.614531 
L 175.11875 415.614531 
L 203.01875 415.614531 
L 230.91875 415.614531 
L 258.81875 415.614531 
L 286.71875 415.614531 
L 314.61875 415.614531 
L 342.51875 415.614531 
L 370.41875 415.614531 
L 398.31875 415.614531 
L 426.21875 415.614531 
L 454.11875 415.614531 
L 482.01875 415.614531 
L 509.91875 415.614531 
" style="fill:none;stroke:#000000;stroke-linecap:square;stroke-width:1.5;"/>
   </g>
   <g id="line2d_69">
    <path clip-path="url(#pd76392083e)" d="M 119.31875 415.614531 
L 147.21875 415.614531 
L 175.11875 415.614531 
L 203.01875 415.614531 
L 230.91875 415.614531 
L 258.81875 415.614531 
L 286.71875 415.614531 
L 314.61875 415.614531 
L 342.51875 415.614531 
L 370.41875 415.614531 
L 398.31875 415.614531 
L 426.21875 415.614531 
L 454.11875 415.614531 
L 482.01875 415.614531 
L 509.91875 415.614531 
" style="fill:none;stroke:#000000;stroke-linecap:square;stroke-width:1.5;"/>
   </g>
   <g id="line2d_70">
    <path clip-path="url(#pd76392083e)" d="M 119.31875 415.614531 
L 147.21875 415.614531 
L 175.11875 415.614531 
L 203.01875 415.614531 
L 230.91875 415.614531 
L 258.81875 415.614531 
L 286.71875 415.614531 
L 314.61875 415.614531 
L 342.51875 415.614531 
L 370.41875 415.614531 
L 398.31875 415.614531 
L 426.21875 415.614531 
L 454.11875 415.614531 
L 482.01875 415.614531 
L 509.91875 415.614531 
" style="fill:none;stroke:#000000;stroke-linecap:square;stroke-width:1.5;"/>
   </g>
   <g id="line2d_71">
    <path clip-path="url(#pd76392083e)" d="M 119.31875 415.614531 
L 147.21875 415.614531 
L 175.11875 415.614531 
L 203.01875 415.614531 
L 230.91875 415.614531 
L 258.81875 415.614531 
L 286.71875 415.614531 
L 314.61875 415.614531 
L 342.51875 415.614531 
L 370.41875 415.614531 
L 398.31875 415.614531 
L 426.21875 415.614531 
L 454.11875 415.614531 
L 482.01875 415.614531 
L 509.91875 415.614531 
" style="fill:none;stroke:#000000;stroke-linecap:square;stroke-width:1.5;"/>
   </g>
   <g id="line2d_72">
    <path clip-path="url(#pd76392083e)" d="M 119.31875 415.614531 
L 147.21875 415.614531 
L 175.11875 415.614531 
L 203.01875 415.614531 
L 230.91875 415.614531 
L 258.81875 415.614531 
L 286.71875 415.614531 
L 314.61875 415.614531 
L 342.51875 415.614531 
L 370.41875 415.614531 
L 398.31875 415.614531 
L 426.21875 415.614531 
L 454.11875 415.614531 
L 482.01875 415.614531 
L 509.91875 415.614531 
" style="fill:none;stroke:#000000;stroke-linecap:square;stroke-width:1.5;"/>
   </g>
   <g id="line2d_73">
    <path clip-path="url(#pd76392083e)" d="M 119.31875 415.614531 
L 147.21875 415.614531 
L 175.11875 415.614531 
L 203.01875 415.614531 
L 230.91875 415.614531 
L 258.81875 415.614531 
L 286.71875 415.614531 
L 314.61875 415.614531 
L 342.51875 415.614531 
L 370.41875 415.614531 
L 398.31875 415.614531 
L 426.21875 415.614531 
L 454.11875 415.614531 
L 482.01875 415.614531 
L 509.91875 415.614531 
" style="fill:none;stroke:#000000;stroke-linecap:square;stroke-width:1.5;"/>
   </g>
   <g id="line2d_74">
    <path clip-path="url(#pd76392083e)" d="M 119.31875 415.614531 
L 147.21875 415.614531 
L 175.11875 415.614531 
L 203.01875 415.614531 
L 230.91875 415.614531 
L 258.81875 415.614531 
L 286.71875 415.614531 
L 314.61875 415.614531 
L 342.51875 415.614531 
L 370.41875 415.614531 
L 398.31875 415.614531 
L 426.21875 415.614531 
L 454.11875 415.614531 
L 482.01875 415.614531 
L 509.91875 415.614531 
" style="fill:none;stroke:#000000;stroke-linecap:square;stroke-width:1.5;"/>
   </g>
   <g id="line2d_75">
    <path clip-path="url(#pd76392083e)" d="M 119.31875 415.614531 
L 147.21875 415.614531 
L 175.11875 415.614531 
L 203.01875 415.614531 
L 230.91875 415.614531 
L 258.81875 415.614531 
L 286.71875 415.614531 
L 314.61875 415.614531 
L 342.51875 415.614531 
L 370.41875 415.614531 
L 398.31875 415.614531 
L 426.21875 415.614531 
L 454.11875 415.614531 
L 482.01875 415.614531 
L 509.91875 415.614531 
" style="fill:none;stroke:#000000;stroke-linecap:square;stroke-width:1.5;"/>
   </g>
   <g id="line2d_76">
    <path clip-path="url(#pd76392083e)" d="M 119.31875 415.614531 
L 147.21875 415.614531 
L 175.11875 415.614531 
L 203.01875 415.614531 
L 230.91875 415.614531 
L 258.81875 415.614531 
L 286.71875 415.614531 
L 314.61875 415.614531 
L 342.51875 415.614531 
L 370.41875 415.614531 
L 398.31875 415.614531 
L 426.21875 415.614531 
L 454.11875 415.614531 
L 482.01875 415.614531 
L 509.91875 415.614531 
" style="fill:none;stroke:#000000;stroke-linecap:square;stroke-width:1.5;"/>
   </g>
   <g id="line2d_77">
    <path clip-path="url(#pd76392083e)" d="M 119.31875 320.070107 
L 509.91875 320.070107 
" style="fill:none;stroke:#808080;stroke-linecap:square;stroke-width:1.5;"/>
   </g>
   <g id="line2d_78">
    <path clip-path="url(#pd76392083e)" d="M 119.31875 415.614531 
" style="fill:none;stroke:#000000;stroke-linecap:square;stroke-width:1.5;"/>
   </g>
   <g id="line2d_79">
    <path clip-path="url(#pd76392083e)" d="M 119.31875 415.614531 
" style="fill:none;stroke:#d0e1f2;stroke-linecap:square;stroke-width:1.5;"/>
   </g>
   <g id="line2d_80">
    <path clip-path="url(#pd76392083e)" d="M 119.31875 415.614531 
" style="fill:none;stroke:#94c4df;stroke-linecap:square;stroke-width:1.5;"/>
   </g>
   <g id="line2d_81">
    <path clip-path="url(#pd76392083e)" d="M 119.31875 415.614531 
" style="fill:none;stroke:#4a98c9;stroke-linecap:square;stroke-width:1.5;"/>
   </g>
   <g id="line2d_82">
    <path clip-path="url(#pd76392083e)" d="M 119.31875 415.614531 
" style="fill:none;stroke:#1764ab;stroke-linecap:square;stroke-width:1.5;"/>
   </g>
   <g id="line2d_83">
    <path clip-path="url(#pd76392083e)" d="M 119.31875 415.614531 
" style="fill:none;stroke:#08306b;stroke-linecap:square;stroke-width:1.5;"/>
   </g>
   <g id="line2d_84">
    <path clip-path="url(#pd76392083e)" d="M 119.31875 415.614531 
" style="fill:none;stroke:#000000;stroke-linecap:square;stroke-width:1.5;"/>
   </g>
   <g id="line2d_85">
    <path clip-path="url(#pd76392083e)" d="M 119.31875 415.614531 
" style="fill:none;stroke:#000000;stroke-dasharray:1.5,2.475;stroke-dashoffset:0;stroke-width:1.5;"/>
   </g>
   <g id="line2d_86">
    <path clip-path="url(#pd76392083e)" d="M 119.31875 415.614531 
" style="fill:none;stroke:#000000;stroke-linecap:square;stroke-width:1.5;"/>
   </g>
   <g id="line2d_87">
    <path clip-path="url(#pd76392083e)" d="M 119.31875 415.614531 
" style="fill:none;stroke:#000000;stroke-dasharray:5.55,2.4;stroke-dashoffset:0;stroke-width:1.5;"/>
   </g>
   <g id="line2d_88">
    <path clip-path="url(#pd76392083e)" d="M 119.31875 415.614531 
" style="fill:none;stroke:#000000;stroke-dasharray:9.6,2.4,1.5,2.4;stroke-dashoffset:0;stroke-width:1.5;"/>
   </g>
   <g id="line2d_89">
    <path clip-path="url(#pd76392083e)" d="M 119.31875 415.614531 
" style="fill:none;stroke:#000000;stroke-dasharray:9.6,2.4,1.5,2.4;stroke-dashoffset:0;stroke-width:1.5;"/>
   </g>
   <g id="patch_3">
    <path d="M 119.31875 415.614531 
L 119.31875 35.094531 
" style="fill:none;stroke:#000000;stroke-linecap:square;stroke-linejoin:miter;stroke-width:0.8;"/>
   </g>
   <g id="patch_4">
    <path d="M 509.91875 415.614531 
L 509.91875 35.094531 
" style="fill:none;stroke:#000000;stroke-linecap:square;stroke-linejoin:miter;stroke-width:0.8;"/>
   </g>
   <g id="patch_5">
    <path d="M 119.31875 415.614531 
L 509.91875 415.614531 
" style="fill:none;stroke:#000000;stroke-linecap:square;stroke-linejoin:miter;stroke-width:0.8;"/>
   </g>
   <g id="patch_6">
    <path d="M 119.31875 35.094531 
L 509.91875 35.094531 
" style="fill:none;stroke:#000000;stroke-linecap:square;stroke-linejoin:miter;stroke-width:0.8;"/>
   </g>
   <g id="text_19">
    <!-- CANCER COUNT OVER TIME -->
    <defs>
     <path d="M 25.53125 0 
L -0.046875 71.578125 
L 15.625 71.578125 
L 33.734375 18.609375 
L 51.265625 71.578125 
L 66.609375 71.578125 
L 40.96875 0 
z
" id="Arial-BoldMT-86"/>
    </defs>
    <g transform="translate(141.003516 25.094531)scale(0.25 -0.25)">
     <use xlink:href="#Arial-BoldMT-67"/>
     <use x="72.216797" xlink:href="#Arial-BoldMT-65"/>
     <use x="144.433594" xlink:href="#Arial-BoldMT-78"/>
     <use x="216.650391" xlink:href="#Arial-BoldMT-67"/>
     <use x="288.867188" xlink:href="#Arial-BoldMT-69"/>
     <use x="355.566406" xlink:href="#Arial-BoldMT-82"/>
     <use x="427.783203" xlink:href="#Arial-BoldMT-32"/>
     <use x="455.566406" xlink:href="#Arial-BoldMT-67"/>
     <use x="527.783203" xlink:href="#Arial-BoldMT-79"/>
     <use x="605.566406" xlink:href="#Arial-BoldMT-85"/>
     <use x="677.783203" xlink:href="#Arial-BoldMT-78"/>
     <use x="750" xlink:href="#Arial-BoldMT-84"/>
     <use x="811.083984" xlink:href="#Arial-BoldMT-32"/>
     <use x="838.867188" xlink:href="#Arial-BoldMT-79"/>
     <use x="916.650391" xlink:href="#Arial-BoldMT-86"/>
     <use x="983.349609" xlink:href="#Arial-BoldMT-69"/>
     <use x="1050.048828" xlink:href="#Arial-BoldMT-82"/>
     <use x="1122.265625" xlink:href="#Arial-BoldMT-32"/>
     <use x="1150.048828" xlink:href="#Arial-BoldMT-84"/>
     <use x="1211.132812" xlink:href="#Arial-BoldMT-73"/>
     <use x="1238.916016" xlink:href="#Arial-BoldMT-77"/>
     <use x="1322.216797" xlink:href="#Arial-BoldMT-69"/>
    </g>
   </g>
   <g id="legend_1">
    <g id="line2d_90">
     <path d="M 518.91875 48.192969 
L 538.91875 48.192969 
" style="fill:none;stroke:#808080;stroke-linecap:square;stroke-width:1.5;"/>
    </g>
    <g id="line2d_91"/>
    <g id="text_20">
     <!-- SEEDED -->
     <defs>
      <path d="M 53.515625 70.515625 
L 53.515625 60.890625 
Q 47.90625 63.578125 42.921875 64.890625 
Q 37.9375 66.21875 33.296875 66.21875 
Q 25.25 66.21875 20.875 63.09375 
Q 16.5 59.96875 16.5 54.203125 
Q 16.5 49.359375 19.40625 46.890625 
Q 22.3125 44.4375 30.421875 42.921875 
L 36.375 41.703125 
Q 47.40625 39.59375 52.65625 34.296875 
Q 57.90625 29 57.90625 20.125 
Q 57.90625 9.515625 50.796875 4.046875 
Q 43.703125 -1.421875 29.984375 -1.421875 
Q 24.8125 -1.421875 18.96875 -0.25 
Q 13.140625 0.921875 6.890625 3.21875 
L 6.890625 13.375 
Q 12.890625 10.015625 18.65625 8.296875 
Q 24.421875 6.59375 29.984375 6.59375 
Q 38.421875 6.59375 43.015625 9.90625 
Q 47.609375 13.234375 47.609375 19.390625 
Q 47.609375 24.75 44.3125 27.78125 
Q 41.015625 30.8125 33.5 32.328125 
L 27.484375 33.5 
Q 16.453125 35.6875 11.515625 40.375 
Q 6.59375 45.0625 6.59375 53.421875 
Q 6.59375 63.09375 13.40625 68.65625 
Q 20.21875 74.21875 32.171875 74.21875 
Q 37.3125 74.21875 42.625 73.28125 
Q 47.953125 72.359375 53.515625 70.515625 
z
" id="DejaVuSans-83"/>
      <path d="M 9.8125 72.90625 
L 55.90625 72.90625 
L 55.90625 64.59375 
L 19.671875 64.59375 
L 19.671875 43.015625 
L 54.390625 43.015625 
L 54.390625 34.71875 
L 19.671875 34.71875 
L 19.671875 8.296875 
L 56.78125 8.296875 
L 56.78125 0 
L 9.8125 0 
z
" id="DejaVuSans-69"/>
      <path d="M 19.671875 64.796875 
L 19.671875 8.109375 
L 31.59375 8.109375 
Q 46.6875 8.109375 53.6875 14.9375 
Q 60.6875 21.78125 60.6875 36.53125 
Q 60.6875 51.171875 53.6875 57.984375 
Q 46.6875 64.796875 31.59375 64.796875 
z
M 9.8125 72.90625 
L 30.078125 72.90625 
Q 51.265625 72.90625 61.171875 64.09375 
Q 71.09375 55.28125 71.09375 36.53125 
Q 71.09375 17.671875 61.125 8.828125 
Q 51.171875 0 30.078125 0 
L 9.8125 0 
z
" id="DejaVuSans-68"/>
     </defs>
     <g transform="translate(546.91875 51.692969)scale(0.1 -0.1)">
      <use xlink:href="#DejaVuSans-83"/>
      <use x="63.476562" xlink:href="#DejaVuSans-69"/>
      <use x="126.660156" xlink:href="#DejaVuSans-69"/>
      <use x="189.84375" xlink:href="#DejaVuSans-68"/>
      <use x="266.845703" xlink:href="#DejaVuSans-69"/>
      <use x="330.029297" xlink:href="#DejaVuSans-68"/>
     </g>
    </g>
    <g id="line2d_92">
     <path d="M 518.91875 62.871094 
L 538.91875 62.871094 
" style="fill:none;stroke:#000000;stroke-linecap:square;stroke-width:1.5;"/>
    </g>
    <g id="line2d_93"/>
    <g id="text_21">
     <!-- 0 -->
     <g transform="translate(546.91875 66.371094)scale(0.1 -0.1)">
      <use xlink:href="#DejaVuSans-48"/>
     </g>
    </g>
    <g id="line2d_94">
     <path d="M 518.91875 77.549219 
L 538.91875 77.549219 
" style="fill:none;stroke:#d0e1f2;stroke-linecap:square;stroke-width:1.5;"/>
    </g>
    <g id="line2d_95"/>
    <g id="text_22">
     <!-- 100 -->
     <g transform="translate(546.91875 81.049219)scale(0.1 -0.1)">
      <use xlink:href="#DejaVuSans-49"/>
      <use x="63.623047" xlink:href="#DejaVuSans-48"/>
      <use x="127.246094" xlink:href="#DejaVuSans-48"/>
     </g>
    </g>
    <g id="line2d_96">
     <path d="M 518.91875 92.227344 
L 538.91875 92.227344 
" style="fill:none;stroke:#94c4df;stroke-linecap:square;stroke-width:1.5;"/>
    </g>
    <g id="line2d_97"/>
    <g id="text_23">
     <!-- 500 -->
     <g transform="translate(546.91875 95.727344)scale(0.1 -0.1)">
      <use xlink:href="#DejaVuSans-53"/>
      <use x="63.623047" xlink:href="#DejaVuSans-48"/>
      <use x="127.246094" xlink:href="#DejaVuSans-48"/>
     </g>
    </g>
    <g id="line2d_98">
     <path d="M 518.91875 106.905469 
L 538.91875 106.905469 
" style="fill:none;stroke:#4a98c9;stroke-linecap:square;stroke-width:1.5;"/>
    </g>
    <g id="line2d_99"/>
    <g id="text_24">
     <!-- 1000 -->
     <g transform="translate(546.91875 110.405469)scale(0.1 -0.1)">
      <use xlink:href="#DejaVuSans-49"/>
      <use x="63.623047" xlink:href="#DejaVuSans-48"/>
      <use x="127.246094" xlink:href="#DejaVuSans-48"/>
      <use x="190.869141" xlink:href="#DejaVuSans-48"/>
     </g>
    </g>
    <g id="line2d_100">
     <path d="M 518.91875 121.583594 
L 538.91875 121.583594 
" style="fill:none;stroke:#1764ab;stroke-linecap:square;stroke-width:1.5;"/>
    </g>
    <g id="line2d_101"/>
    <g id="text_25">
     <!-- 5000 -->
     <g transform="translate(546.91875 125.083594)scale(0.1 -0.1)">
      <use xlink:href="#DejaVuSans-53"/>
      <use x="63.623047" xlink:href="#DejaVuSans-48"/>
      <use x="127.246094" xlink:href="#DejaVuSans-48"/>
      <use x="190.869141" xlink:href="#DejaVuSans-48"/>
     </g>
    </g>
    <g id="line2d_102">
     <path d="M 518.91875 136.261719 
L 538.91875 136.261719 
" style="fill:none;stroke:#08306b;stroke-linecap:square;stroke-width:1.5;"/>
    </g>
    <g id="line2d_103"/>
    <g id="text_26">
     <!-- 10000 -->
     <g transform="translate(546.91875 139.761719)scale(0.1 -0.1)">
      <use xlink:href="#DejaVuSans-49"/>
      <use x="63.623047" xlink:href="#DejaVuSans-48"/>
      <use x="127.246094" xlink:href="#DejaVuSans-48"/>
      <use x="190.869141" xlink:href="#DejaVuSans-48"/>
      <use x="254.492188" xlink:href="#DejaVuSans-48"/>
     </g>
    </g>
    <g id="line2d_104">
     <path d="M 518.91875 150.939844 
L 538.91875 150.939844 
" style="fill:none;stroke:#000000;stroke-linecap:square;stroke-width:1.5;"/>
    </g>
    <g id="line2d_105"/>
    <g id="text_27">
     <!-- 0 -->
     <g transform="translate(546.91875 154.439844)scale(0.1 -0.1)">
      <use xlink:href="#DejaVuSans-48"/>
     </g>
    </g>
    <g id="line2d_106">
     <path d="M 518.91875 165.617969 
L 538.91875 165.617969 
" style="fill:none;stroke:#000000;stroke-dasharray:1.5,2.475;stroke-dashoffset:0;stroke-width:1.5;"/>
    </g>
    <g id="line2d_107"/>
    <g id="text_28">
     <!-- 250 -->
     <g transform="translate(546.91875 169.117969)scale(0.1 -0.1)">
      <use xlink:href="#DejaVuSans-50"/>
      <use x="63.623047" xlink:href="#DejaVuSans-53"/>
      <use x="127.246094" xlink:href="#DejaVuSans-48"/>
     </g>
    </g>
    <g id="line2d_108">
     <path d="M 518.91875 180.296094 
L 538.91875 180.296094 
" style="fill:none;stroke:#000000;stroke-linecap:square;stroke-width:1.5;"/>
    </g>
    <g id="line2d_109"/>
    <g id="text_29">
     <!-- 500 -->
     <g transform="translate(546.91875 183.796094)scale(0.1 -0.1)">
      <use xlink:href="#DejaVuSans-53"/>
      <use x="63.623047" xlink:href="#DejaVuSans-48"/>
      <use x="127.246094" xlink:href="#DejaVuSans-48"/>
     </g>
    </g>
    <g id="line2d_110">
     <path d="M 518.91875 194.974219 
L 538.91875 194.974219 
" style="fill:none;stroke:#000000;stroke-dasharray:5.55,2.4;stroke-dashoffset:0;stroke-width:1.5;"/>
    </g>
    <g id="line2d_111"/>
    <g id="text_30">
     <!-- 1000 -->
     <g transform="translate(546.91875 198.474219)scale(0.1 -0.1)">
      <use xlink:href="#DejaVuSans-49"/>
      <use x="63.623047" xlink:href="#DejaVuSans-48"/>
      <use x="127.246094" xlink:href="#DejaVuSans-48"/>
      <use x="190.869141" xlink:href="#DejaVuSans-48"/>
     </g>
    </g>
    <g id="line2d_112">
     <path d="M 518.91875 209.652344 
L 538.91875 209.652344 
" style="fill:none;stroke:#000000;stroke-dasharray:9.6,2.4,1.5,2.4;stroke-dashoffset:0;stroke-width:1.5;"/>
    </g>
    <g id="line2d_113"/>
    <g id="text_31">
     <!-- 5000 -->
     <g transform="translate(546.91875 213.152344)scale(0.1 -0.1)">
      <use xlink:href="#DejaVuSans-53"/>
      <use x="63.623047" xlink:href="#DejaVuSans-48"/>
      <use x="127.246094" xlink:href="#DejaVuSans-48"/>
      <use x="190.869141" xlink:href="#DejaVuSans-48"/>
     </g>
    </g>
    <g id="line2d_114">
     <path d="M 518.91875 224.330469 
L 538.91875 224.330469 
" style="fill:none;stroke:#000000;stroke-dasharray:9.6,2.4,1.5,2.4;stroke-dashoffset:0;stroke-width:1.5;"/>
    </g>
    <g id="line2d_115"/>
    <g id="text_32">
     <!-- 10000 -->
     <g transform="translate(546.91875 227.830469)scale(0.1 -0.1)">
      <use xlink:href="#DejaVuSans-49"/>
      <use x="63.623047" xlink:href="#DejaVuSans-48"/>
      <use x="127.246094" xlink:href="#DejaVuSans-48"/>
      <use x="190.869141" xlink:href="#DejaVuSans-48"/>
      <use x="254.492188" xlink:href="#DejaVuSans-48"/>
     </g>
    </g>
   </g>
  </g>
 </g>
 <defs>
  <clipPath id="pd76392083e">
   <rect height="380.52" width="390.6" x="119.31875" y="35.094531"/>
  </clipPath>
 </defs>
</svg>
