<?xml version="1.0" encoding="utf-8" standalone="no"?>
<!DOCTYPE svg PUBLIC "-//W3C//DTD SVG 1.1//EN"
  "http://www.w3.org/Graphics/SVG/1.1/DTD/svg11.dtd">
<!-- Created with matplotlib (https://matplotlib.org/) -->
<svg height="504.658125pt" version="1.1" viewBox="0 0 572.668125 504.658125" width="572.668125pt" xmlns="http://www.w3.org/2000/svg" xmlns:xlink="http://www.w3.org/1999/xlink">
 <defs>
  <style type="text/css">
*{stroke-linecap:butt;stroke-linejoin:round;}
  </style>
 </defs>
 <g id="figure_1">
  <g id="patch_1">
   <path d="M 0 504.658125 
L 572.668125 504.658125 
L 572.668125 -0 
L 0 -0 
z
" style="fill:#ffffff;"/>
  </g>
  <g id="axes_1">
   <g id="patch_2">
    <path d="M 102.055625 433.16125 
L 492.655625 433.16125 
L 492.655625 52.64125 
L 102.055625 52.64125 
z
" style="fill:#ffffff;"/>
   </g>
   <g id="matplotlib.axis_1">
    <g id="xtick_1">
     <g id="line2d_1">
      <defs>
       <path d="M 0 0 
L 0 3.5 
" id="md44316a12f" style="stroke:#000000;stroke-width:0.8;"/>
      </defs>
      <g>
       <use style="stroke:#000000;stroke-width:0.8;" x="149.40108" xlink:href="#md44316a12f" y="433.16125"/>
      </g>
     </g>
     <g id="text_1">
      <!-- 5 -->
      <defs>
       <path d="M 10.796875 72.90625 
L 49.515625 72.90625 
L 49.515625 64.59375 
L 19.828125 64.59375 
L 19.828125 46.734375 
Q 21.96875 47.46875 24.109375 47.828125 
Q 26.265625 48.1875 28.421875 48.1875 
Q 40.625 48.1875 47.75 41.5 
Q 54.890625 34.8125 54.890625 23.390625 
Q 54.890625 11.625 47.5625 5.09375 
Q 40.234375 -1.421875 26.90625 -1.421875 
Q 22.3125 -1.421875 17.546875 -0.640625 
Q 12.796875 0.140625 7.71875 1.703125 
L 7.71875 11.625 
Q 12.109375 9.234375 16.796875 8.0625 
Q 21.484375 6.890625 26.703125 6.890625 
Q 35.15625 6.890625 40.078125 11.328125 
Q 45.015625 15.765625 45.015625 23.390625 
Q 45.015625 31 40.078125 35.4375 
Q 35.15625 39.890625 26.703125 39.890625 
Q 22.75 39.890625 18.8125 39.015625 
Q 14.890625 38.140625 10.796875 36.28125 
z
" id="DejaVuSans-53"/>
      </defs>
      <g transform="translate(139.85733 462.956562)scale(0.3 -0.3)">
       <use xlink:href="#DejaVuSans-53"/>
      </g>
     </g>
    </g>
    <g id="xtick_2">
     <g id="line2d_2">
      <g>
       <use style="stroke:#000000;stroke-width:0.8;" x="208.582898" xlink:href="#md44316a12f" y="433.16125"/>
      </g>
     </g>
     <g id="text_2">
      <!-- 10 -->
      <defs>
       <path d="M 12.40625 8.296875 
L 28.515625 8.296875 
L 28.515625 63.921875 
L 10.984375 60.40625 
L 10.984375 69.390625 
L 28.421875 72.90625 
L 38.28125 72.90625 
L 38.28125 8.296875 
L 54.390625 8.296875 
L 54.390625 0 
L 12.40625 0 
z
" id="DejaVuSans-49"/>
       <path d="M 31.78125 66.40625 
Q 24.171875 66.40625 20.328125 58.90625 
Q 16.5 51.421875 16.5 36.375 
Q 16.5 21.390625 20.328125 13.890625 
Q 24.171875 6.390625 31.78125 6.390625 
Q 39.453125 6.390625 43.28125 13.890625 
Q 47.125 21.390625 47.125 36.375 
Q 47.125 51.421875 43.28125 58.90625 
Q 39.453125 66.40625 31.78125 66.40625 
z
M 31.78125 74.21875 
Q 44.046875 74.21875 50.515625 64.515625 
Q 56.984375 54.828125 56.984375 36.375 
Q 56.984375 17.96875 50.515625 8.265625 
Q 44.046875 -1.421875 31.78125 -1.421875 
Q 19.53125 -1.421875 13.0625 8.265625 
Q 6.59375 17.96875 6.59375 36.375 
Q 6.59375 54.828125 13.0625 64.515625 
Q 19.53125 74.21875 31.78125 74.21875 
z
" id="DejaVuSans-48"/>
      </defs>
      <g transform="translate(189.495398 462.956562)scale(0.3 -0.3)">
       <use xlink:href="#DejaVuSans-49"/>
       <use x="63.623047" xlink:href="#DejaVuSans-48"/>
      </g>
     </g>
    </g>
    <g id="xtick_3">
     <g id="line2d_3">
      <g>
       <use style="stroke:#000000;stroke-width:0.8;" x="267.764716" xlink:href="#md44316a12f" y="433.16125"/>
      </g>
     </g>
     <g id="text_3">
      <!-- 15 -->
      <g transform="translate(248.677216 462.956562)scale(0.3 -0.3)">
       <use xlink:href="#DejaVuSans-49"/>
       <use x="63.623047" xlink:href="#DejaVuSans-53"/>
      </g>
     </g>
    </g>
    <g id="xtick_4">
     <g id="line2d_4">
      <g>
       <use style="stroke:#000000;stroke-width:0.8;" x="326.946534" xlink:href="#md44316a12f" y="433.16125"/>
      </g>
     </g>
     <g id="text_4">
      <!-- 20 -->
      <defs>
       <path d="M 19.1875 8.296875 
L 53.609375 8.296875 
L 53.609375 0 
L 7.328125 0 
L 7.328125 8.296875 
Q 12.9375 14.109375 22.625 23.890625 
Q 32.328125 33.6875 34.8125 36.53125 
Q 39.546875 41.84375 41.421875 45.53125 
Q 43.3125 49.21875 43.3125 52.78125 
Q 43.3125 58.59375 39.234375 62.25 
Q 35.15625 65.921875 28.609375 65.921875 
Q 23.96875 65.921875 18.8125 64.3125 
Q 13.671875 62.703125 7.8125 59.421875 
L 7.8125 69.390625 
Q 13.765625 71.78125 18.9375 73 
Q 24.125 74.21875 28.421875 74.21875 
Q 39.75 74.21875 46.484375 68.546875 
Q 53.21875 62.890625 53.21875 53.421875 
Q 53.21875 48.921875 51.53125 44.890625 
Q 49.859375 40.875 45.40625 35.40625 
Q 44.1875 33.984375 37.640625 27.21875 
Q 31.109375 20.453125 19.1875 8.296875 
z
" id="DejaVuSans-50"/>
      </defs>
      <g transform="translate(307.859034 462.956562)scale(0.3 -0.3)">
       <use xlink:href="#DejaVuSans-50"/>
       <use x="63.623047" xlink:href="#DejaVuSans-48"/>
      </g>
     </g>
    </g>
    <g id="xtick_5">
     <g id="line2d_5">
      <g>
       <use style="stroke:#000000;stroke-width:0.8;" x="386.128352" xlink:href="#md44316a12f" y="433.16125"/>
      </g>
     </g>
     <g id="text_5">
      <!-- 25 -->
      <g transform="translate(367.040852 462.956562)scale(0.3 -0.3)">
       <use xlink:href="#DejaVuSans-50"/>
       <use x="63.623047" xlink:href="#DejaVuSans-53"/>
      </g>
     </g>
    </g>
    <g id="xtick_6">
     <g id="line2d_6">
      <g>
       <use style="stroke:#000000;stroke-width:0.8;" x="445.31017" xlink:href="#md44316a12f" y="433.16125"/>
      </g>
     </g>
     <g id="text_6">
      <!-- 30 -->
      <defs>
       <path d="M 40.578125 39.3125 
Q 47.65625 37.796875 51.625 33 
Q 55.609375 28.21875 55.609375 21.1875 
Q 55.609375 10.40625 48.1875 4.484375 
Q 40.765625 -1.421875 27.09375 -1.421875 
Q 22.515625 -1.421875 17.65625 -0.515625 
Q 12.796875 0.390625 7.625 2.203125 
L 7.625 11.71875 
Q 11.71875 9.328125 16.59375 8.109375 
Q 21.484375 6.890625 26.8125 6.890625 
Q 36.078125 6.890625 40.9375 10.546875 
Q 45.796875 14.203125 45.796875 21.1875 
Q 45.796875 27.640625 41.28125 31.265625 
Q 36.765625 34.90625 28.71875 34.90625 
L 20.21875 34.90625 
L 20.21875 43.015625 
L 29.109375 43.015625 
Q 36.375 43.015625 40.234375 45.921875 
Q 44.09375 48.828125 44.09375 54.296875 
Q 44.09375 59.90625 40.109375 62.90625 
Q 36.140625 65.921875 28.71875 65.921875 
Q 24.65625 65.921875 20.015625 65.03125 
Q 15.375 64.15625 9.8125 62.3125 
L 9.8125 71.09375 
Q 15.4375 72.65625 20.34375 73.4375 
Q 25.25 74.21875 29.59375 74.21875 
Q 40.828125 74.21875 47.359375 69.109375 
Q 53.90625 64.015625 53.90625 55.328125 
Q 53.90625 49.265625 50.4375 45.09375 
Q 46.96875 40.921875 40.578125 39.3125 
z
" id="DejaVuSans-51"/>
      </defs>
      <g transform="translate(426.22267 462.956562)scale(0.3 -0.3)">
       <use xlink:href="#DejaVuSans-51"/>
       <use x="63.623047" xlink:href="#DejaVuSans-48"/>
      </g>
     </g>
    </g>
    <g id="text_7">
     <!-- RADIUS -->
     <defs>
      <path d="M 7.328125 0 
L 7.328125 71.578125 
L 37.75 71.578125 
Q 49.21875 71.578125 54.421875 69.640625 
Q 59.625 67.71875 62.75 62.78125 
Q 65.875 57.859375 65.875 51.515625 
Q 65.875 43.453125 61.125 38.203125 
Q 56.390625 32.953125 46.96875 31.59375 
Q 51.65625 28.859375 54.703125 25.578125 
Q 57.765625 22.3125 62.9375 13.96875 
L 71.6875 0 
L 54.390625 0 
L 43.953125 15.578125 
Q 38.375 23.921875 36.328125 26.09375 
Q 34.28125 28.265625 31.984375 29.078125 
Q 29.6875 29.890625 24.703125 29.890625 
L 21.78125 29.890625 
L 21.78125 0 
z
M 21.78125 41.3125 
L 32.46875 41.3125 
Q 42.875 41.3125 45.453125 42.1875 
Q 48.046875 43.0625 49.515625 45.203125 
Q 50.984375 47.359375 50.984375 50.59375 
Q 50.984375 54.203125 49.046875 56.421875 
Q 47.125 58.640625 43.609375 59.234375 
Q 41.84375 59.46875 33.0625 59.46875 
L 21.78125 59.46875 
z
" id="Arial-BoldMT-82"/>
      <path d="M 71.828125 0 
L 56.109375 0 
L 49.859375 16.265625 
L 21.234375 16.265625 
L 15.328125 0 
L 0 0 
L 27.875 71.578125 
L 43.171875 71.578125 
z
M 45.21875 28.328125 
L 35.359375 54.890625 
L 25.6875 28.328125 
z
" id="Arial-BoldMT-65"/>
      <path d="M 7.234375 71.578125 
L 33.640625 71.578125 
Q 42.578125 71.578125 47.265625 70.21875 
Q 53.5625 68.359375 58.046875 63.625 
Q 62.546875 58.890625 64.890625 52.03125 
Q 67.234375 45.171875 67.234375 35.109375 
Q 67.234375 26.265625 65.046875 19.875 
Q 62.359375 12.0625 57.375 7.234375 
Q 53.609375 3.5625 47.21875 1.515625 
Q 42.4375 0 34.421875 0 
L 7.234375 0 
z
M 21.6875 59.46875 
L 21.6875 12.0625 
L 32.46875 12.0625 
Q 38.53125 12.0625 41.21875 12.75 
Q 44.734375 13.625 47.046875 15.71875 
Q 49.359375 17.828125 50.828125 22.625 
Q 52.296875 27.4375 52.296875 35.75 
Q 52.296875 44.046875 50.828125 48.484375 
Q 49.359375 52.9375 46.71875 55.421875 
Q 44.09375 57.90625 40.046875 58.796875 
Q 37.015625 59.46875 28.171875 59.46875 
z
" id="Arial-BoldMT-68"/>
      <path d="M 6.84375 0 
L 6.84375 71.578125 
L 21.296875 71.578125 
L 21.296875 0 
z
" id="Arial-BoldMT-73"/>
      <path d="M 7.171875 71.578125 
L 21.625 71.578125 
L 21.625 32.8125 
Q 21.625 23.578125 22.171875 20.84375 
Q 23.09375 16.453125 26.578125 13.796875 
Q 30.078125 11.140625 36.140625 11.140625 
Q 42.28125 11.140625 45.40625 13.640625 
Q 48.53125 16.15625 49.171875 19.8125 
Q 49.8125 23.484375 49.8125 31.984375 
L 49.8125 71.578125 
L 64.265625 71.578125 
L 64.265625 33.984375 
Q 64.265625 21.09375 63.09375 15.765625 
Q 61.921875 10.453125 58.765625 6.78125 
Q 55.609375 3.125 50.328125 0.953125 
Q 45.0625 -1.21875 36.578125 -1.21875 
Q 26.3125 -1.21875 21.015625 1.140625 
Q 15.71875 3.515625 12.640625 7.296875 
Q 9.578125 11.078125 8.59375 15.234375 
Q 7.171875 21.390625 7.171875 33.40625 
z
" id="Arial-BoldMT-85"/>
      <path d="M 3.609375 23.296875 
L 17.671875 24.65625 
Q 18.953125 17.578125 22.828125 14.25 
Q 26.703125 10.9375 33.296875 10.9375 
Q 40.28125 10.9375 43.8125 13.890625 
Q 47.359375 16.84375 47.359375 20.796875 
Q 47.359375 23.34375 45.875 25.125 
Q 44.390625 26.90625 40.671875 28.21875 
Q 38.140625 29.109375 29.109375 31.34375 
Q 17.484375 34.234375 12.796875 38.421875 
Q 6.203125 44.34375 6.203125 52.828125 
Q 6.203125 58.296875 9.296875 63.0625 
Q 12.40625 67.828125 18.234375 70.3125 
Q 24.078125 72.796875 32.328125 72.796875 
Q 45.796875 72.796875 52.609375 66.890625 
Q 59.421875 60.984375 59.765625 51.125 
L 45.3125 50.484375 
Q 44.390625 56 41.328125 58.421875 
Q 38.28125 60.84375 32.171875 60.84375 
Q 25.875 60.84375 22.3125 58.25 
Q 20.015625 56.59375 20.015625 53.8125 
Q 20.015625 51.265625 22.171875 49.46875 
Q 24.90625 47.171875 35.453125 44.671875 
Q 46 42.1875 51.046875 39.515625 
Q 56.109375 36.859375 58.953125 32.25 
Q 61.8125 27.640625 61.8125 20.84375 
Q 61.8125 14.703125 58.390625 9.328125 
Q 54.984375 3.953125 48.734375 1.34375 
Q 42.484375 -1.265625 33.15625 -1.265625 
Q 19.578125 -1.265625 12.296875 5 
Q 5.03125 11.28125 3.609375 23.296875 
z
" id="Arial-BoldMT-83"/>
     </defs>
     <g transform="translate(259.019688 493.51125)scale(0.2 -0.2)">
      <use xlink:href="#Arial-BoldMT-82"/>
      <use x="72.216797" xlink:href="#Arial-BoldMT-65"/>
      <use x="144.433594" xlink:href="#Arial-BoldMT-68"/>
      <use x="216.650391" xlink:href="#Arial-BoldMT-73"/>
      <use x="244.433594" xlink:href="#Arial-BoldMT-85"/>
      <use x="316.650391" xlink:href="#Arial-BoldMT-83"/>
     </g>
    </g>
   </g>
   <g id="matplotlib.axis_2">
    <g id="ytick_1">
     <g id="line2d_7">
      <defs>
       <path d="M 0 0 
L -3.5 0 
" id="m0455ccb695" style="stroke:#000000;stroke-width:0.8;"/>
      </defs>
      <g>
       <use style="stroke:#000000;stroke-width:0.8;" x="102.055625" xlink:href="#m0455ccb695" y="433.16125"/>
      </g>
     </g>
     <g id="text_8">
      <!-- 0 -->
      <g transform="translate(75.968125 444.558906)scale(0.3 -0.3)">
       <use xlink:href="#DejaVuSans-48"/>
      </g>
     </g>
    </g>
    <g id="ytick_2">
     <g id="line2d_8">
      <g>
       <use style="stroke:#000000;stroke-width:0.8;" x="102.055625" xlink:href="#m0455ccb695" y="369.74125"/>
      </g>
     </g>
     <g id="text_9">
      <!-- 5 -->
      <g transform="translate(75.968125 381.138906)scale(0.3 -0.3)">
       <use xlink:href="#DejaVuSans-53"/>
      </g>
     </g>
    </g>
    <g id="ytick_3">
     <g id="line2d_9">
      <g>
       <use style="stroke:#000000;stroke-width:0.8;" x="102.055625" xlink:href="#m0455ccb695" y="306.32125"/>
      </g>
     </g>
     <g id="text_10">
      <!-- 10 -->
      <g transform="translate(56.880625 317.718906)scale(0.3 -0.3)">
       <use xlink:href="#DejaVuSans-49"/>
       <use x="63.623047" xlink:href="#DejaVuSans-48"/>
      </g>
     </g>
    </g>
    <g id="ytick_4">
     <g id="line2d_10">
      <g>
       <use style="stroke:#000000;stroke-width:0.8;" x="102.055625" xlink:href="#m0455ccb695" y="242.90125"/>
      </g>
     </g>
     <g id="text_11">
      <!-- 15 -->
      <g transform="translate(56.880625 254.298906)scale(0.3 -0.3)">
       <use xlink:href="#DejaVuSans-49"/>
       <use x="63.623047" xlink:href="#DejaVuSans-53"/>
      </g>
     </g>
    </g>
    <g id="ytick_5">
     <g id="line2d_11">
      <g>
       <use style="stroke:#000000;stroke-width:0.8;" x="102.055625" xlink:href="#m0455ccb695" y="179.48125"/>
      </g>
     </g>
     <g id="text_12">
      <!-- 20 -->
      <g transform="translate(56.880625 190.878906)scale(0.3 -0.3)">
       <use xlink:href="#DejaVuSans-50"/>
       <use x="63.623047" xlink:href="#DejaVuSans-48"/>
      </g>
     </g>
    </g>
    <g id="ytick_6">
     <g id="line2d_12">
      <g>
       <use style="stroke:#000000;stroke-width:0.8;" x="102.055625" xlink:href="#m0455ccb695" y="116.06125"/>
      </g>
     </g>
     <g id="text_13">
      <!-- 25 -->
      <g transform="translate(56.880625 127.458906)scale(0.3 -0.3)">
       <use xlink:href="#DejaVuSans-50"/>
       <use x="63.623047" xlink:href="#DejaVuSans-53"/>
      </g>
     </g>
    </g>
    <g id="ytick_7">
     <g id="line2d_13">
      <g>
       <use style="stroke:#000000;stroke-width:0.8;" x="102.055625" xlink:href="#m0455ccb695" y="52.64125"/>
      </g>
     </g>
     <g id="text_14">
      <!-- 30 -->
      <g transform="translate(56.880625 64.038906)scale(0.3 -0.3)">
       <use xlink:href="#DejaVuSans-51"/>
       <use x="63.623047" xlink:href="#DejaVuSans-48"/>
      </g>
     </g>
    </g>
    <g id="text_15">
     <!-- T-CELL LIVE NORMALIZED -->
     <defs>
      <path d="M 23.390625 0 
L 23.390625 59.46875 
L 2.15625 59.46875 
L 2.15625 71.578125 
L 59.03125 71.578125 
L 59.03125 59.46875 
L 37.84375 59.46875 
L 37.84375 0 
z
" id="Arial-BoldMT-84"/>
      <path d="M 5.609375 19.09375 
L 5.609375 32.8125 
L 32.5625 32.8125 
L 32.5625 19.09375 
z
" id="Arial-BoldMT-45"/>
      <path d="M 53.078125 26.3125 
L 67.09375 21.875 
Q 63.875 10.15625 56.375 4.46875 
Q 48.875 -1.21875 37.359375 -1.21875 
Q 23.09375 -1.21875 13.90625 8.515625 
Q 4.734375 18.265625 4.734375 35.15625 
Q 4.734375 53.03125 13.953125 62.90625 
Q 23.1875 72.796875 38.234375 72.796875 
Q 51.375 72.796875 59.578125 65.046875 
Q 64.453125 60.453125 66.890625 51.859375 
L 52.59375 48.4375 
Q 51.3125 54 47.28125 57.21875 
Q 43.265625 60.453125 37.5 60.453125 
Q 29.546875 60.453125 24.578125 54.734375 
Q 19.625 49.03125 19.625 36.234375 
Q 19.625 22.65625 24.5 16.890625 
Q 29.390625 11.140625 37.203125 11.140625 
Q 42.96875 11.140625 47.109375 14.796875 
Q 51.265625 18.453125 53.078125 26.3125 
z
" id="Arial-BoldMT-67"/>
      <path d="M 7.28125 0 
L 7.28125 71.578125 
L 60.359375 71.578125 
L 60.359375 59.46875 
L 21.734375 59.46875 
L 21.734375 43.609375 
L 57.671875 43.609375 
L 57.671875 31.546875 
L 21.734375 31.546875 
L 21.734375 12.0625 
L 61.71875 12.0625 
L 61.71875 0 
z
" id="Arial-BoldMT-69"/>
      <path d="M 7.671875 0 
L 7.671875 71 
L 22.125 71 
L 22.125 12.0625 
L 58.0625 12.0625 
L 58.0625 0 
z
" id="Arial-BoldMT-76"/>
      <path id="Arial-BoldMT-32"/>
      <path d="M 25.53125 0 
L -0.046875 71.578125 
L 15.625 71.578125 
L 33.734375 18.609375 
L 51.265625 71.578125 
L 66.609375 71.578125 
L 40.96875 0 
z
" id="Arial-BoldMT-86"/>
      <path d="M 7.421875 0 
L 7.421875 71.578125 
L 21.484375 71.578125 
L 50.78125 23.78125 
L 50.78125 71.578125 
L 64.203125 71.578125 
L 64.203125 0 
L 49.703125 0 
L 20.84375 46.6875 
L 20.84375 0 
z
" id="Arial-BoldMT-78"/>
      <path d="M 4.34375 35.359375 
Q 4.34375 46.296875 7.625 53.71875 
Q 10.0625 59.1875 14.28125 63.53125 
Q 18.5 67.875 23.53125 69.96875 
Q 30.21875 72.796875 38.96875 72.796875 
Q 54.78125 72.796875 64.28125 62.984375 
Q 73.78125 53.171875 73.78125 35.6875 
Q 73.78125 18.359375 64.359375 8.5625 
Q 54.9375 -1.21875 39.15625 -1.21875 
Q 23.1875 -1.21875 13.765625 8.515625 
Q 4.34375 18.265625 4.34375 35.359375 
z
M 19.234375 35.84375 
Q 19.234375 23.6875 24.84375 17.40625 
Q 30.46875 11.140625 39.109375 11.140625 
Q 47.75 11.140625 53.296875 17.359375 
Q 58.84375 23.578125 58.84375 36.03125 
Q 58.84375 48.34375 53.4375 54.390625 
Q 48.046875 60.453125 39.109375 60.453125 
Q 30.171875 60.453125 24.703125 54.3125 
Q 19.234375 48.1875 19.234375 35.84375 
z
" id="Arial-BoldMT-79"/>
      <path d="M 7.078125 0 
L 7.078125 71.578125 
L 28.71875 71.578125 
L 41.703125 22.75 
L 54.546875 71.578125 
L 76.21875 71.578125 
L 76.21875 0 
L 62.796875 0 
L 62.796875 56.34375 
L 48.578125 0 
L 34.671875 0 
L 20.515625 56.34375 
L 20.515625 0 
z
" id="Arial-BoldMT-77"/>
      <path d="M 1.078125 0 
L 1.078125 13.03125 
L 38.671875 59.46875 
L 5.328125 59.46875 
L 5.328125 71.578125 
L 57.71875 71.578125 
L 57.71875 60.359375 
L 18.5 12.0625 
L 59.234375 12.0625 
L 59.234375 0 
z
" id="Arial-BoldMT-90"/>
     </defs>
     <g transform="translate(21.253125 372.879375)rotate(-90)scale(0.2 -0.2)">
      <use xlink:href="#Arial-BoldMT-84"/>
      <use x="61.005859" xlink:href="#Arial-BoldMT-45"/>
      <use x="94.306641" xlink:href="#Arial-BoldMT-67"/>
      <use x="166.523438" xlink:href="#Arial-BoldMT-69"/>
      <use x="233.222656" xlink:href="#Arial-BoldMT-76"/>
      <use x="294.306641" xlink:href="#Arial-BoldMT-76"/>
      <use x="355.375" xlink:href="#Arial-BoldMT-32"/>
      <use x="383.158203" xlink:href="#Arial-BoldMT-76"/>
      <use x="444.242188" xlink:href="#Arial-BoldMT-73"/>
      <use x="472.025391" xlink:href="#Arial-BoldMT-86"/>
      <use x="538.724609" xlink:href="#Arial-BoldMT-69"/>
      <use x="605.423828" xlink:href="#Arial-BoldMT-32"/>
      <use x="633.207031" xlink:href="#Arial-BoldMT-78"/>
      <use x="705.423828" xlink:href="#Arial-BoldMT-79"/>
      <use x="783.207031" xlink:href="#Arial-BoldMT-82"/>
      <use x="855.423828" xlink:href="#Arial-BoldMT-77"/>
      <use x="938.724609" xlink:href="#Arial-BoldMT-65"/>
      <use x="1010.941406" xlink:href="#Arial-BoldMT-76"/>
      <use x="1072.025391" xlink:href="#Arial-BoldMT-73"/>
      <use x="1099.808594" xlink:href="#Arial-BoldMT-90"/>
      <use x="1160.892578" xlink:href="#Arial-BoldMT-69"/>
      <use x="1227.591797" xlink:href="#Arial-BoldMT-68"/>
     </g>
     <!-- CELL COUNTS (NUMBERS) -->
     <defs>
      <path d="M 29.9375 -21.046875 
L 20.515625 -21.046875 
Q 13.03125 -9.765625 9.125 2.390625 
Q 5.21875 14.546875 5.21875 25.921875 
Q 5.21875 40.046875 10.0625 52.640625 
Q 14.265625 63.578125 20.703125 72.796875 
L 30.078125 72.796875 
Q 23.390625 58.015625 20.875 47.625 
Q 18.359375 37.25 18.359375 25.640625 
Q 18.359375 17.625 19.84375 9.21875 
Q 21.34375 0.828125 23.921875 -6.734375 
Q 25.640625 -11.71875 29.9375 -21.046875 
z
" id="Arial-BoldMT-40"/>
      <path d="M 7.328125 71.578125 
L 35.9375 71.578125 
Q 44.4375 71.578125 48.609375 70.875 
Q 52.78125 70.171875 56.078125 67.921875 
Q 59.375 65.671875 61.5625 61.9375 
Q 63.765625 58.203125 63.765625 53.5625 
Q 63.765625 48.53125 61.046875 44.328125 
Q 58.34375 40.140625 53.71875 38.03125 
Q 60.25 36.140625 63.765625 31.546875 
Q 67.28125 26.953125 67.28125 20.75 
Q 67.28125 15.875 65.015625 11.25 
Q 62.75 6.640625 58.8125 3.875 
Q 54.890625 1.125 49.125 0.484375 
Q 45.515625 0.09375 31.6875 0 
L 7.328125 0 
z
M 21.78125 59.671875 
L 21.78125 43.109375 
L 31.25 43.109375 
Q 39.703125 43.109375 41.75 43.359375 
Q 45.453125 43.796875 47.578125 45.921875 
Q 49.703125 48.046875 49.703125 51.515625 
Q 49.703125 54.828125 47.875 56.90625 
Q 46.046875 58.984375 42.4375 59.421875 
Q 40.28125 59.671875 30.078125 59.671875 
z
M 21.78125 31.203125 
L 21.78125 12.0625 
L 35.15625 12.0625 
Q 42.96875 12.0625 45.0625 12.5 
Q 48.296875 13.09375 50.3125 15.359375 
Q 52.34375 17.625 52.34375 21.4375 
Q 52.34375 24.65625 50.78125 26.90625 
Q 49.21875 29.15625 46.265625 30.171875 
Q 43.3125 31.203125 33.453125 31.203125 
z
" id="Arial-BoldMT-66"/>
      <path d="M 3.375 -21.046875 
Q 7.421875 -12.359375 9.078125 -7.71875 
Q 10.75 -3.078125 12.15625 2.96875 
Q 13.578125 9.03125 14.25 14.46875 
Q 14.9375 19.921875 14.9375 25.640625 
Q 14.9375 37.25 12.453125 47.625 
Q 9.96875 58.015625 3.265625 72.796875 
L 12.59375 72.796875 
Q 19.96875 62.3125 24.046875 50.53125 
Q 28.125 38.765625 28.125 26.65625 
Q 28.125 16.453125 24.90625 4.78125 
Q 21.234375 -8.296875 12.84375 -21.046875 
z
" id="Arial-BoldMT-41"/>
     </defs>
     <g transform="translate(42.67125 374.002812)rotate(-90)scale(0.2 -0.2)">
      <use xlink:href="#Arial-BoldMT-67"/>
      <use x="72.216797" xlink:href="#Arial-BoldMT-69"/>
      <use x="138.916016" xlink:href="#Arial-BoldMT-76"/>
      <use x="200" xlink:href="#Arial-BoldMT-76"/>
      <use x="261.068359" xlink:href="#Arial-BoldMT-32"/>
      <use x="288.851562" xlink:href="#Arial-BoldMT-67"/>
      <use x="361.068359" xlink:href="#Arial-BoldMT-79"/>
      <use x="438.851562" xlink:href="#Arial-BoldMT-85"/>
      <use x="511.068359" xlink:href="#Arial-BoldMT-78"/>
      <use x="583.285156" xlink:href="#Arial-BoldMT-84"/>
      <use x="644.369141" xlink:href="#Arial-BoldMT-83"/>
      <use x="711.068359" xlink:href="#Arial-BoldMT-32"/>
      <use x="738.851562" xlink:href="#Arial-BoldMT-40"/>
      <use x="772.152344" xlink:href="#Arial-BoldMT-78"/>
      <use x="844.369141" xlink:href="#Arial-BoldMT-85"/>
      <use x="916.585938" xlink:href="#Arial-BoldMT-77"/>
      <use x="999.886719" xlink:href="#Arial-BoldMT-66"/>
      <use x="1072.103516" xlink:href="#Arial-BoldMT-69"/>
      <use x="1138.802734" xlink:href="#Arial-BoldMT-82"/>
      <use x="1211.019531" xlink:href="#Arial-BoldMT-83"/>
      <use x="1277.71875" xlink:href="#Arial-BoldMT-41"/>
     </g>
    </g>
   </g>
   <g id="line2d_14">
    <path clip-path="url(#pfe33f83a79)" d="M 102.055625 179.48125 
L 113.891989 162.56925 
L 125.728352 160.45525 
L 137.564716 148.475917 
L 149.40108 136.14425 
L 161.237443 138.46965 
L 173.073807 153.05625 
L 184.91017 139.31525 
L 196.746534 124.7815 
L 208.582898 130.154583 
L 220.419261 137.62405 
L 232.255625 145.65725 
L 244.091989 137.72975 
L 255.928352 147.120788 
L 267.764716 144.29825 
L 279.60108 144.529783 
L 291.437443 155.963 
L 303.273807 149.636544 
L 315.11017 146.831694 
L 326.946534 148.105039 
L 338.782898 150.51945 
L 350.619261 136.59725 
L 362.455625 151.99925 
L 374.291989 144.002815 
L 386.128352 147.154667 
L 397.964716 147.68669 
L 409.80108 146.307712 
L 421.637443 135.322139 
L 433.473807 134.10575 
L 445.31017 146.823595 
L 457.146534 147.418917 
L 468.982898 165.501573 
L 480.819261 175.583562 
L 492.655625 165.387917 
" style="fill:none;stroke:#08306b;stroke-linecap:square;stroke-width:1.5;"/>
   </g>
   <g id="line2d_15">
    <path clip-path="url(#pfe33f83a79)" d="M 102.055625 154.11325 
L 113.891989 149.88525 
L 125.728352 165.74025 
L 137.564716 109.014583 
L 149.40108 140.37225 
L 161.237443 146.50285 
L 173.073807 149.532917 
L 184.91017 165.58925 
L 196.746534 167.85425 
L 208.582898 157.871472 
L 220.419261 167.00865 
L 232.255625 164.68325 
L 244.091989 143.190917 
L 255.928352 156.064635 
L 267.764716 136.74825 
L 279.60108 138.187783 
L 291.437443 148.82825 
L 303.273807 155.978544 
L 315.11017 151.529472 
L 326.946534 141.763039 
L 338.782898 140.79505 
L 350.619261 147.066583 
L 362.455625 143.927614 
L 374.291989 141.153511 
L 386.128352 136.4085 
L 397.964716 133.14237 
L 409.80108 130.371404 
L 421.637443 137.82762 
L 433.473807 137.27675 
L 445.31017 154.988009 
L 457.146534 151.224117 
L 468.982898 164.819637 
L 480.819261 157.152125 
L 492.655625 154.11325 
" style="fill:none;stroke:#08306b;stroke-linecap:square;stroke-width:1.5;"/>
   </g>
   <g id="line2d_16">
    <path clip-path="url(#pfe33f83a79)" d="M 102.055625 230.21725 
L 113.891989 156.22725 
L 125.728352 151.99925 
L 137.564716 146.361917 
L 149.40108 157.28425 
L 161.237443 154.53605 
L 173.073807 142.133917 
L 184.91017 155.62325 
L 196.746534 137.994 
L 208.582898 156.931917 
L 220.419261 139.73805 
L 232.255625 144.311977 
L 244.091989 128.74525 
L 255.928352 126.63125 
L 267.764716 125.42325 
L 279.60108 144.81165 
L 291.437443 143.01475 
L 303.273807 158.963015 
L 315.11017 162.451806 
L 326.946534 157.784934 
L 338.782898 156.96715 
L 350.619261 151.193917 
L 362.455625 144.792432 
L 374.291989 130.032033 
L 386.128352 136.496583 
L 397.964716 144.64253 
L 409.80108 137.119942 
L 421.637443 143.778139 
L 433.473807 136.29525 
L 445.31017 144.855388 
L 457.146534 131.563917 
L 468.982898 143.202282 
L 480.819261 150.94225 
L 492.655625 153.344523 
" style="fill:none;stroke:#08306b;stroke-linecap:square;stroke-width:1.5;"/>
   </g>
   <g id="line2d_17">
    <path clip-path="url(#pfe33f83a79)" d="M 102.055625 154.11325 
L 113.891989 171.02525 
L 125.728352 157.28425 
L 137.564716 163.978583 
L 149.40108 149.88525 
L 161.237443 141.85205 
L 173.073807 162.921583 
L 184.91017 147.16725 
L 196.746534 138.78675 
L 208.582898 162.804139 
L 220.419261 157.28425 
L 232.255625 147.963432 
L 244.091989 150.061417 
L 255.928352 151.348788 
L 267.764716 140.52325 
L 279.60108 145.65725 
L 291.437443 140.240125 
L 303.273807 137.698662 
L 315.11017 129.332472 
L 326.946534 148.550092 
L 338.782898 153.47905 
L 350.619261 156.629917 
L 362.455625 146.810341 
L 374.291989 147.219772 
L 386.128352 141.605417 
L 397.964716 141.76749 
L 409.80108 126.224712 
L 421.637443 139.236954 
L 433.473807 150.48925 
L 445.31017 139.023664 
L 457.146534 156.156783 
L 468.982898 168.502089 
L 480.819261 161.380125 
L 492.655625 160.519311 
" style="fill:none;stroke:#08306b;stroke-linecap:square;stroke-width:1.5;"/>
   </g>
   <g id="line2d_18">
    <path clip-path="url(#pfe33f83a79)" d="M 102.055625 141.42925 
L 113.891989 232.33125 
L 125.728352 136.14425 
L 137.564716 165.387917 
L 149.40108 174.72475 
L 161.237443 168.91125 
L 173.073807 163.62625 
L 184.91017 165.89125 
L 196.746534 143.01475 
L 208.582898 141.42925 
L 220.419261 134.87585 
L 232.255625 140.276159 
L 244.091989 143.719417 
L 255.928352 145.819865 
L 267.764716 143.54325 
L 279.60108 133.255117 
L 291.437443 140.504375 
L 303.273807 141.180544 
L 315.11017 152.938806 
L 326.946534 149.996513 
L 338.782898 161.82935 
L 350.619261 150.690583 
L 362.455625 154.209341 
L 374.291989 148.138902 
L 386.128352 152.615833 
L 397.964716 150.30805 
L 409.80108 138.502173 
L 421.637443 147.066583 
L 433.473807 132.06725 
L 445.31017 145.074078 
L 457.146534 130.295517 
L 468.982898 154.249637 
L 480.819261 162.437125 
L 492.655625 153.152341 
" style="fill:none;stroke:#08306b;stroke-linecap:square;stroke-width:1.5;"/>
   </g>
   <g id="line2d_19">
    <path clip-path="url(#pfe33f83a79)" d="M 102.055625 128.74525 
L 113.891989 118.17525 
L 125.728352 102.32025 
L 137.564716 120.28925 
L 149.40108 162.04075 
L 161.237443 132.12765 
L 173.073807 139.31525 
L 184.91017 132.06725 
L 196.746534 154.64175 
L 208.582898 150.824806 
L 220.419261 155.17025 
L 232.255625 134.895068 
L 244.091989 154.64175 
L 255.928352 153.462788 
L 267.764716 157.28425 
L 279.60108 157.636583 
L 291.437443 143.939625 
L 303.273807 145.65725 
L 315.11017 144.835139 
L 326.946534 149.996513 
L 338.782898 135.40435 
L 350.619261 144.247917 
L 362.455625 142.966705 
L 374.291989 148.782293 
L 386.128352 136.232333 
L 397.964716 141.17557 
L 409.80108 142.404942 
L 421.637443 145.500657 
L 433.473807 139.84375 
L 445.31017 143.032974 
L 457.146534 149.744317 
L 468.982898 156.22725 
L 480.819261 156.953937 
L 492.655625 149.372765 
" style="fill:none;stroke:#08306b;stroke-linecap:square;stroke-width:1.5;"/>
   </g>
   <g id="line2d_20">
    <path clip-path="url(#pfe33f83a79)" d="M 102.055625 52.64125 
L 113.891989 132.97325 
L 125.728352 179.48125 
L 137.564716 149.88525 
L 149.40108 145.12875 
L 161.237443 136.77845 
L 173.073807 142.838583 
L 184.91017 135.08725 
L 196.746534 156.4915 
L 208.582898 138.140806 
L 220.419261 149.46245 
L 232.255625 152.575795 
L 244.091989 132.44475 
L 255.928352 138.827404 
L 267.764716 135.99325 
L 279.60108 148.475917 
L 291.437443 145.525125 
L 303.273807 149.760897 
L 315.11017 147.418917 
L 326.946534 150.664092 
L 338.782898 169.86255 
L 350.619261 151.596583 
L 362.455625 159.013886 
L 374.291989 145.105772 
L 386.128352 146.9785 
L 397.964716 149.20877 
L 409.80108 140.290942 
L 421.637443 149.337176 
L 433.473807 146.78975 
L 445.31017 134.649871 
L 457.146534 149.603383 
L 468.982898 161.341766 
L 480.819261 151.2065 
L 492.655625 169.551856 
" style="fill:none;stroke:#08306b;stroke-linecap:square;stroke-width:1.5;"/>
   </g>
   <g id="line2d_21">
    <path clip-path="url(#pfe33f83a79)" d="M 102.055625 128.74525 
L 113.891989 202.73525 
L 125.728352 181.59525 
L 137.564716 168.91125 
L 149.40108 154.64175 
L 161.237443 152.42205 
L 173.073807 162.56925 
L 184.91017 119.68525 
L 196.746534 127.424 
L 208.582898 154.583028 
L 220.419261 142.90905 
L 232.255625 140.852705 
L 244.091989 138.962917 
L 255.928352 155.414173 
L 267.764716 151.39525 
L 279.60108 143.54325 
L 291.437443 138.918875 
L 303.273807 142.299721 
L 315.11017 144.717694 
L 326.946534 139.203987 
L 338.782898 145.23445 
L 350.619261 133.979917 
L 362.455625 144.888523 
L 374.291989 150.528641 
L 386.128352 148.475917 
L 397.964716 156.05813 
L 409.80108 158.747788 
L 421.637443 151.216287 
L 433.473807 149.05475 
L 445.31017 140.700284 
L 457.146534 137.976383 
L 468.982898 164.819637 
L 480.819261 167.85425 
L 492.655625 166.861311 
" style="fill:none;stroke:#08306b;stroke-linecap:square;stroke-width:1.5;"/>
   </g>
   <g id="line2d_22">
    <path clip-path="url(#pfe33f83a79)" d="M 102.055625 204.84925 
L 113.891989 154.11325 
L 125.728352 139.31525 
L 137.564716 144.952583 
L 149.40108 140.37225 
L 161.237443 129.59085 
L 173.073807 128.392917 
L 184.91017 138.40925 
L 196.746534 162.305 
L 208.582898 154.817917 
L 220.419261 132.33905 
L 232.255625 149.308705 
L 244.091989 141.95775 
L 255.928352 139.965712 
L 267.764716 134.33225 
L 279.60108 157.91845 
L 291.437443 146.582125 
L 303.273807 137.698662 
L 315.11017 144.247917 
L 326.946534 134.308408 
L 338.782898 143.22615 
L 350.619261 142.133917 
L 362.455625 144.023705 
L 374.291989 152.183076 
L 386.128352 139.403333 
L 397.964716 144.47341 
L 409.80108 156.145942 
L 421.637443 147.536361 
L 433.473807 145.20425 
L 445.31017 150.10394 
L 457.146534 146.92565 
L 468.982898 154.454218 
L 480.819261 161.7765 
L 492.655625 160.327129 
" style="fill:none;stroke:#08306b;stroke-linecap:square;stroke-width:1.5;"/>
   </g>
   <g id="line2d_23">
    <path clip-path="url(#pfe33f83a79)" d="M 102.055625 116.06125 
L 113.891989 160.45525 
L 125.728352 144.60025 
L 137.564716 136.496583 
L 149.40108 120.81775 
L 161.237443 148.19405 
L 173.073807 154.11325 
L 184.91017 159.24725 
L 196.746534 156.22725 
L 208.582898 129.449917 
L 220.419261 127.47685 
L 232.255625 160.647432 
L 244.091989 134.734917 
L 255.928352 141.917096 
L 267.764716 135.54025 
L 279.60108 146.92565 
L 291.437443 157.152125 
L 303.273807 154.610662 
L 315.11017 156.109806 
L 326.946534 154.558303 
L 338.782898 154.53605 
L 350.619261 151.193917 
L 362.455625 146.618159 
L 374.291989 139.958641 
L 386.128352 138.610583 
L 397.964716 142.35941 
L 409.80108 139.803096 
L 421.637443 129.058435 
L 433.473807 141.95775 
L 445.31017 141.793733 
L 457.146534 147.207517 
L 468.982898 152.817573 
L 480.819261 154.245375 
L 492.655625 141.044886 
" style="fill:none;stroke:#08306b;stroke-linecap:square;stroke-width:1.5;"/>
   </g>
   <g id="line2d_24">
    <path clip-path="url(#pfe33f83a79)" d="M 102.055625 242.90125 
L 113.891989 181.59525 
L 125.728352 186.88025 
L 137.564716 176.662583 
L 149.40108 156.22725 
L 161.237443 165.52885 
L 173.073807 182.65225 
L 184.91017 181.89725 
L 196.746534 201.9425 
L 208.582898 208.137694 
L 220.419261 202.73525 
L 232.255625 195.816705 
L 244.091989 181.59525 
L 255.928352 183.058788 
L 267.764716 181.74625 
L 279.60108 158.904983 
L 291.437443 177.6315 
L 303.273807 181.719603 
L 315.11017 185.588361 
L 326.946534 190.273776 
L 338.782898 210.02855 
L 350.619261 186.829917 
L 362.455625 177.943795 
L 374.291989 177.918728 
L 386.128352 170.408667 
L 397.964716 192.33437 
L 409.80108 205.662327 
L 421.637443 194.514139 
L 433.473807 189.52275 
L 445.31017 201.787595 
L 457.146534 205.976717 
L 468.982898 196.734218 
L 480.819261 199.630312 
L 492.655625 212.28028 
" style="fill:none;stroke:#4a98c9;stroke-linecap:square;stroke-width:1.5;"/>
   </g>
   <g id="line2d_25">
    <path clip-path="url(#pfe33f83a79)" d="M 102.055625 166.79725 
L 113.891989 151.99925 
L 125.728352 180.53825 
L 137.564716 154.11325 
L 149.40108 189.52275 
L 161.237443 206.96325 
L 173.073807 224.227583 
L 184.91017 219.04325 
L 196.746534 225.46075 
L 208.582898 222.935694 
L 220.419261 217.53325 
L 232.255625 183.324886 
L 244.091989 178.248083 
L 255.928352 184.522327 
L 267.764716 174.80025 
L 279.60108 157.636583 
L 291.437443 186.219625 
L 303.273807 171.149603 
L 315.11017 193.692028 
L 326.946534 192.053987 
L 338.782898 214.78505 
L 350.619261 191.158583 
L 362.455625 196.201068 
L 374.291989 189.775511 
L 386.128352 199.476167 
L 397.964716 198.93005 
L 409.80108 197.45025 
L 421.637443 195.610287 
L 433.473807 185.14375 
L 445.31017 198.28856 
L 457.146534 185.682317 
L 468.982898 187.118927 
L 480.819261 177.169062 
L 492.655625 204.080523 
" style="fill:none;stroke:#4a98c9;stroke-linecap:square;stroke-width:1.5;"/>
   </g>
   <g id="line2d_26">
    <path clip-path="url(#pfe33f83a79)" d="M 102.055625 433.16125 
L 113.891989 316.89125 
L 125.728352 262.98425 
L 137.564716 168.91125 
L 149.40108 189.52275 
L 161.237443 165.95165 
L 173.073807 186.88025 
L 184.91017 158.64325 
L 196.746534 156.75575 
L 208.582898 179.48125 
L 220.419261 168.48845 
L 232.255625 200.044705 
L 244.091989 174.72475 
L 255.928352 197.694173 
L 267.764716 179.17925 
L 279.60108 192.447117 
L 291.437443 177.103 
L 303.273807 189.180779 
L 315.11017 185.470917 
L 326.946534 185.934513 
L 338.782898 191.31965 
L 350.619261 205.654583 
L 362.455625 202.543068 
L 374.291989 183.801163 
L 386.128352 190.3155 
L 397.964716 184.97765 
L 409.80108 187.612019 
L 421.637443 195.923472 
L 433.473807 190.50425 
L 445.31017 193.696078 
L 457.146534 202.382917 
L 468.982898 193.460927 
L 480.819261 196.6575 
L 492.655625 214.266159 
" style="fill:none;stroke:#4a98c9;stroke-linecap:square;stroke-width:1.5;"/>
   </g>
   <g id="line2d_27">
    <path clip-path="url(#pfe33f83a79)" d="M 102.055625 128.74525 
L 113.891989 156.22725 
L 125.728352 153.05625 
L 137.564716 175.25325 
L 149.40108 164.15475 
L 161.237443 164.26045 
L 173.073807 179.128917 
L 184.91017 170.11925 
L 196.746534 181.06675 
L 208.582898 187.93725 
L 220.419261 197.02745 
L 232.255625 196.969795 
L 244.091989 185.999417 
L 255.928352 181.107404 
L 267.764716 182.50125 
L 279.60108 198.789117 
L 291.437443 183.577125 
L 303.273807 187.191132 
L 315.11017 181.360361 
L 326.946534 196.949566 
L 338.782898 179.37555 
L 350.619261 177.568583 
L 362.455625 186.207614 
L 374.291989 176.264293 
L 386.128352 182.476083 
L 397.964716 184.30117 
L 409.80108 179.48125 
L 421.637443 182.691398 
L 433.473807 195.94025 
L 445.31017 201.350216 
L 457.146534 192.024317 
L 468.982898 199.802927 
L 480.819261 196.6575 
L 492.655625 220.480038 
" style="fill:none;stroke:#4a98c9;stroke-linecap:square;stroke-width:1.5;"/>
   </g>
   <g id="line2d_28">
    <path clip-path="url(#pfe33f83a79)" d="M 102.055625 154.11325 
L 113.891989 187.93725 
L 125.728352 159.39825 
L 137.564716 165.387917 
L 149.40108 164.15475 
L 161.237443 173.98485 
L 173.073807 164.330917 
L 184.91017 175.25325 
L 196.746534 184.23775 
L 208.582898 202.970139 
L 220.419261 188.57145 
L 232.255625 188.321614 
L 244.091989 191.460583 
L 255.928352 162.081404 
L 267.764716 174.49825 
L 279.60108 174.125783 
L 291.437443 182.520125 
L 303.273807 174.507132 
L 315.11017 166.914694 
L 326.946534 175.920829 
L 338.782898 172.08225 
L 350.619261 174.850583 
L 362.455625 188.705977 
L 374.291989 184.168815 
L 386.128352 202.118667 
L 397.964716 187.26077 
L 409.80108 174.602788 
L 421.637443 187.154287 
L 433.473807 169.06225 
L 445.31017 172.045802 
L 457.146534 173.068783 
L 468.982898 184.254798 
L 480.819261 189.720937 
L 492.655625 210.870947 
" style="fill:none;stroke:#4a98c9;stroke-linecap:square;stroke-width:1.5;"/>
   </g>
   <g id="line2d_29">
    <path clip-path="url(#pfe33f83a79)" d="M 102.055625 141.42925 
L 113.891989 166.79725 
L 125.728352 155.17025 
L 137.564716 142.838583 
L 149.40108 185.82325 
L 161.237443 197.23885 
L 173.073807 219.999583 
L 184.91017 209.98325 
L 196.746534 212.77675 
L 208.582898 213.540139 
L 220.419261 188.78285 
L 232.255625 192.741795 
L 244.091989 209.781917 
L 255.928352 185.82325 
L 267.764716 200.62125 
L 279.60108 187.796317 
L 291.437443 181.991625 
L 303.273807 173.885368 
L 315.11017 179.246361 
L 326.946534 177.923566 
L 338.782898 169.12265 
L 350.619261 182.098583 
L 362.455625 177.463341 
L 374.291989 188.121076 
L 386.128352 180.00975 
L 397.964716 195.80133 
L 409.80108 195.011019 
L 421.637443 199.525102 
L 433.473807 192.54275 
L 445.31017 184.146629 
L 457.146534 173.068783 
L 468.982898 178.731121 
L 480.819261 173.337437 
L 492.655625 187.040402 
" style="fill:none;stroke:#4a98c9;stroke-linecap:square;stroke-width:1.5;"/>
   </g>
   <g id="line2d_30">
    <path clip-path="url(#pfe33f83a79)" d="M 102.055625 141.42925 
L 113.891989 217.53325 
L 125.728352 234.44525 
L 137.564716 248.538583 
L 149.40108 241.84425 
L 161.237443 213.30525 
L 173.073807 191.10825 
L 184.91017 180.99125 
L 196.746534 195.6005 
L 208.582898 171.729917 
L 220.419261 173.13925 
L 232.255625 189.282523 
L 244.091989 193.574583 
L 255.928352 187.124173 
L 267.764716 177.82025 
L 279.60108 188.923783 
L 291.437443 193.4865 
L 303.273807 179.978662 
L 315.11017 168.441472 
L 326.946534 166.574724 
L 338.782898 189.73415 
L 350.619261 184.816583 
L 362.455625 187.456795 
L 374.291989 185.915163 
L 386.128352 196.040917 
L 397.964716 197.06973 
L 409.80108 194.116635 
L 421.637443 193.574583 
L 433.473807 188.01275 
L 445.31017 182.688698 
L 457.146534 187.021183 
L 468.982898 200.825831 
L 480.819261 188.862125 
L 492.655625 206.450765 
" style="fill:none;stroke:#4a98c9;stroke-linecap:square;stroke-width:1.5;"/>
   </g>
   <g id="line2d_31">
    <path clip-path="url(#pfe33f83a79)" d="M 102.055625 128.74525 
L 113.891989 204.84925 
L 125.728352 185.82325 
L 137.564716 180.890583 
L 149.40108 152.52775 
L 161.237443 190.05125 
L 173.073807 169.615917 
L 184.91017 154.41525 
L 196.746534 166.0045 
L 208.582898 168.676361 
L 220.419261 183.49785 
L 232.255625 176.790705 
L 244.091989 180.362083 
L 255.928352 183.871865 
L 267.764716 190.65525 
L 279.60108 178.21285 
L 291.437443 174.328375 
L 303.273807 164.68325 
L 315.11017 168.089139 
L 326.946534 159.787671 
L 338.782898 172.18795 
L 350.619261 159.951917 
L 362.455625 175.829795 
L 374.291989 171.02525 
L 386.128352 178.071917 
L 397.964716 186.24605 
L 409.80108 180.863481 
L 421.637443 177.36725 
L 433.473807 175.70625 
L 445.31017 180.064422 
L 457.146534 195.406717 
L 468.982898 193.733702 
L 480.819261 202.669187 
L 492.655625 228.743856 
" style="fill:none;stroke:#4a98c9;stroke-linecap:square;stroke-width:1.5;"/>
   </g>
   <g id="line2d_32">
    <path clip-path="url(#pfe33f83a79)" d="M 102.055625 268.26925 
L 113.891989 183.70925 
L 125.728352 180.53825 
L 137.564716 218.942583 
L 149.40108 220.70425 
L 161.237443 194.70205 
L 173.073807 208.372583 
L 184.91017 194.58125 
L 196.746534 192.69375 
L 208.582898 217.53325 
L 220.419261 211.61405 
L 232.255625 209.845977 
L 244.091989 184.061583 
L 255.928352 192.16525 
L 267.764716 175.85725 
L 279.60108 177.36725 
L 291.437443 177.235125 
L 303.273807 170.403485 
L 315.11017 170.907806 
L 326.946534 172.916724 
L 338.782898 178.74135 
L 350.619261 177.06525 
L 362.455625 175.925886 
L 374.291989 192.900554 
L 386.128352 175.5175 
L 397.964716 178.72021 
L 409.80108 186.555019 
L 421.637443 182.847991 
L 433.473807 178.12225 
L 445.31017 183.855043 
L 457.146534 176.803517 
L 468.982898 177.026282 
L 480.819261 174.064125 
L 492.655625 185.246705 
" style="fill:none;stroke:#4a98c9;stroke-linecap:square;stroke-width:1.5;"/>
   </g>
   <g id="line2d_33">
    <path clip-path="url(#pfe33f83a79)" d="M 102.055625 268.26925 
L 113.891989 346.48725 
L 125.728352 282.01025 
L 137.564716 259.81325 
L 149.40108 225.46075 
L 161.237443 190.89685 
L 173.073807 197.097917 
L 184.91017 163.77725 
L 196.746534 179.48125 
L 208.582898 179.246361 
L 220.419261 182.22945 
L 232.255625 184.093614 
L 244.091989 185.647083 
L 255.928352 187.449404 
L 267.764716 187.18225 
L 279.60108 191.601517 
L 291.437443 190.447625 
L 303.273807 195.149721 
L 315.11017 202.148028 
L 326.946534 198.841039 
L 338.782898 173.98485 
L 350.619261 167.602583 
L 362.455625 182.267886 
L 374.291989 177.918728 
L 386.128352 172.3465 
L 397.964716 181.67981 
L 409.80108 176.960712 
L 421.637443 167.267028 
L 433.473807 174.34725 
L 445.31017 169.713112 
L 457.146534 167.995183 
L 468.982898 171.843573 
L 480.819261 175.913875 
L 492.655625 196.841674 
" style="fill:none;stroke:#4a98c9;stroke-linecap:square;stroke-width:1.5;"/>
   </g>
   <g id="line2d_34">
    <path clip-path="url(#pfe33f83a79)" d="M 102.055625 306.32125 
L 113.891989 388.76725 
L 125.728352 358.11425 
L 137.564716 357.761917 
L 149.40108 356.52875 
L 161.237443 341.41365 
L 173.073807 352.476917 
L 184.91017 336.52125 
L 196.746534 342.25925 
L 208.582898 341.319694 
L 220.419261 340.99085 
L 232.255625 345.526341 
L 244.091989 328.342083 
L 255.928352 343.560173 
L 267.764716 349.35625 
L 279.60108 334.789783 
L 291.437443 335.256625 
L 303.273807 340.767015 
L 315.11017 337.209139 
L 326.946534 326.459882 
L 338.782898 341.20225 
L 350.619261 334.910583 
L 362.455625 317.756068 
L 374.291989 314.685337 
L 386.128352 299.098417 
L 397.964716 314.69269 
L 409.80108 319.493096 
L 421.637443 318.848657 
L 433.473807 313.04075 
L 445.31017 323.087457 
L 457.146534 312.169983 
L 468.982898 301.820476 
L 480.819261 295.817312 
L 492.655625 303.694765 
" style="fill:none;stroke:#d0e1f2;stroke-linecap:square;stroke-width:1.5;"/>
   </g>
   <g id="line2d_35">
    <path clip-path="url(#pfe33f83a79)" d="M 102.055625 433.16125 
L 113.891989 399.33725 
L 125.728352 348.60125 
L 137.564716 362.694583 
L 149.40108 341.20225 
L 161.237443 316.89125 
L 173.073807 344.020917 
L 184.91017 323.23325 
L 196.746534 350.71525 
L 208.582898 350.480361 
L 220.419261 354.52045 
L 232.255625 338.992159 
L 244.091989 308.787583 
L 255.928352 331.851865 
L 267.764716 327.46125 
L 279.60108 333.38045 
L 291.437443 334.728125 
L 303.273807 333.678897 
L 315.11017 338.383583 
L 326.946534 328.685145 
L 338.782898 331.68925 
L 350.619261 334.205917 
L 362.455625 332.169705 
L 374.291989 347.314467 
L 386.128352 339.08825 
L 397.964716 330.08261 
L 409.80108 331.201404 
L 421.637443 331.845843 
L 433.473807 334.40725 
L 445.31017 335.479871 
L 457.146534 321.612517 
L 468.982898 316.89125 
L 480.819261 295.487 
L 492.655625 310.485189 
" style="fill:none;stroke:#d0e1f2;stroke-linecap:square;stroke-width:1.5;"/>
   </g>
   <g id="line2d_36">
    <path clip-path="url(#pfe33f83a79)" d="M 102.055625 433.16125 
L 113.891989 373.96925 
L 125.728352 336.97425 
L 137.564716 351.419917 
L 149.40108 333.27475 
L 161.237443 359.17125 
L 173.073807 353.533917 
L 184.91017 326.55525 
L 196.746534 344.37325 
L 208.582898 340.849917 
L 220.419261 329.57525 
L 232.255625 329.57525 
L 244.091989 313.896417 
L 255.928352 324.859404 
L 267.764716 321.72325 
L 279.60108 331.68925 
L 291.437443 336.577875 
L 303.273807 337.782544 
L 315.11017 335.799806 
L 326.946534 322.120618 
L 338.782898 334.54315 
L 350.619261 346.386583 
L 362.455625 341.106159 
L 374.291989 337.387859 
L 386.128352 332.305833 
L 397.964716 336.17093 
L 409.80108 327.623865 
L 421.637443 326.130213 
L 433.473807 325.80025 
L 445.31017 317.328629 
L 457.146534 301.45905 
L 468.982898 292.68254 
L 480.819261 287.625562 
L 492.655625 309.075856 
" style="fill:none;stroke:#d0e1f2;stroke-linecap:square;stroke-width:1.5;"/>
   </g>
   <g id="line2d_37">
    <path clip-path="url(#pfe33f83a79)" d="M 102.055625 369.74125 
L 113.891989 367.62725 
L 125.728352 353.88625 
L 137.564716 374.673917 
L 149.40108 346.48725 
L 161.237443 341.41365 
L 173.073807 341.554583 
L 184.91017 328.36725 
L 196.746534 329.04675 
L 208.582898 338.501028 
L 220.419261 341.20225 
L 232.255625 348.793432 
L 244.091989 351.24375 
L 255.928352 339.006942 
L 267.764716 323.98825 
L 279.60108 331.125517 
L 291.437443 309.49225 
L 303.273807 313.409368 
L 315.11017 318.535472 
L 326.946534 332.356829 
L 338.782898 334.54315 
L 350.619261 325.447917 
L 362.455625 334.668068 
L 374.291989 331.321598 
L 386.128352 321.64775 
L 397.964716 333.54957 
L 409.80108 334.372404 
L 421.637443 332.550509 
L 433.473807 322.62925 
L 445.31017 314.99594 
L 457.146534 300.19065 
L 468.982898 301.13854 
L 480.819261 282.406625 
L 492.655625 305.104098 
" style="fill:none;stroke:#d0e1f2;stroke-linecap:square;stroke-width:1.5;"/>
   </g>
   <g id="line2d_38">
    <path clip-path="url(#pfe33f83a79)" d="M 102.055625 268.26925 
L 113.891989 376.08325 
L 125.728352 336.97425 
L 137.564716 336.621917 
L 149.40108 354.94325 
L 161.237443 351.98365 
L 173.073807 362.34225 
L 184.91017 347.99725 
L 196.746534 345.166 
L 208.582898 349.540806 
L 220.419261 334.22605 
L 232.255625 342.451432 
L 244.091989 351.067583 
L 255.928352 330.876173 
L 267.764716 340.74925 
L 279.60108 331.830183 
L 291.437443 318.741 
L 303.273807 316.393838 
L 315.11017 311.841139 
L 326.946534 316.223671 
L 338.782898 316.36275 
L 350.619261 330.984583 
L 362.455625 337.070341 
L 374.291989 338.123163 
L 386.128352 338.383583 
L 397.964716 344.88061 
L 409.80108 337.380788 
L 421.637443 337.091694 
L 433.473807 330.55675 
L 445.31017 329.57525 
L 457.146534 312.87465 
L 468.982898 302.979766 
L 480.819261 290.598375 
L 492.655625 301.452644 
" style="fill:none;stroke:#d0e1f2;stroke-linecap:square;stroke-width:1.5;"/>
   </g>
   <g id="line2d_39">
    <path clip-path="url(#pfe33f83a79)" d="M 102.055625 382.42525 
L 113.891989 403.56525 
L 125.728352 353.88625 
L 137.564716 340.849917 
L 149.40108 372.91225 
L 161.237443 354.94325 
L 173.073807 358.466583 
L 184.91017 357.96325 
L 196.746534 338.55975 
L 208.582898 356.352583 
L 220.419261 330.63225 
L 232.255625 319.581795 
L 244.091989 313.19175 
L 255.928352 330.225712 
L 267.764716 334.25625 
L 279.60108 341.272717 
L 291.437443 332.878375 
L 303.273807 332.435368 
L 315.11017 324.29025 
L 326.946534 332.134303 
L 338.782898 324.71305 
L 350.619261 335.111917 
L 362.455625 326.980795 
L 374.291989 333.435598 
L 386.128352 320.943083 
L 397.964716 334.98709 
L 409.80108 325.184635 
L 421.637443 328.009324 
L 433.473807 322.40275 
L 445.31017 320.244491 
L 457.146534 313.790717 
L 468.982898 306.116669 
L 480.819261 290.532312 
L 492.655625 308.627432 
" style="fill:none;stroke:#d0e1f2;stroke-linecap:square;stroke-width:1.5;"/>
   </g>
   <g id="line2d_40">
    <path clip-path="url(#pfe33f83a79)" d="M 102.055625 433.16125 
L 113.891989 376.08325 
L 125.728352 362.34225 
L 137.564716 353.533917 
L 149.40108 357.58575 
L 161.237443 336.34005 
L 173.073807 331.68925 
L 184.91017 336.21925 
L 196.746534 346.7515 
L 208.582898 324.172806 
L 220.419261 307.58965 
L 232.255625 316.506886 
L 244.091989 296.455917 
L 255.928352 318.680019 
L 267.764716 322.78025 
L 279.60108 331.26645 
L 291.437443 347.412125 
L 303.273807 335.544191 
L 315.11017 323.820472 
L 326.946534 331.244197 
L 338.782898 345.64165 
L 350.619261 328.06525 
L 362.455625 339.08825 
L 374.291989 328.839946 
L 386.128352 323.145167 
L 397.964716 340.90629 
L 409.80108 328.274327 
L 421.637443 333.568361 
L 433.473807 329.04675 
L 445.31017 332.053733 
L 457.146534 322.17625 
L 468.982898 315.459185 
L 480.819261 304.405437 
L 492.655625 318.364644 
" style="fill:none;stroke:#d0e1f2;stroke-linecap:square;stroke-width:1.5;"/>
   </g>
   <g id="line2d_41">
    <path clip-path="url(#pfe33f83a79)" d="M 102.055625 395.10925 
L 113.891989 388.76725 
L 125.728352 361.28525 
L 137.564716 352.124583 
L 149.40108 348.07275 
L 161.237443 351.98365 
L 173.073807 327.813583 
L 184.91017 329.27325 
L 196.746534 319.53375 
L 208.582898 328.870583 
L 220.419261 337.60845 
L 232.255625 323.809795 
L 244.091989 336.97425 
L 255.928352 337.055558 
L 267.764716 333.04825 
L 279.60108 333.239517 
L 291.437443 327.98975 
L 303.273807 319.627015 
L 315.11017 332.393917 
L 326.946534 330.131566 
L 338.782898 325.45295 
L 350.619261 334.205917 
L 362.455625 341.106159 
L 374.291989 337.939337 
L 386.128352 335.300667 
L 397.964716 337.60845 
L 409.80108 340.551788 
L 421.637443 334.116435 
L 433.473807 333.80325 
L 445.31017 326.586491 
L 457.146534 315.41145 
L 468.982898 312.049508 
L 480.819261 287.493437 
L 492.655625 307.602462 
" style="fill:none;stroke:#d0e1f2;stroke-linecap:square;stroke-width:1.5;"/>
   </g>
   <g id="line2d_42">
    <path clip-path="url(#pfe33f83a79)" d="M 102.055625 407.79325 
L 113.891989 388.76725 
L 125.728352 335.91725 
L 137.564716 371.150583 
L 149.40108 354.41475 
L 161.237443 308.85805 
L 173.073807 324.642583 
L 184.91017 288.80525 
L 196.746534 309.7565 
L 208.582898 317.595917 
L 220.419261 326.82705 
L 232.255625 313.047614 
L 244.091989 324.642583 
L 255.928352 338.193865 
L 267.764716 346.63825 
L 279.60108 339.863383 
L 291.437443 343.31625 
L 303.273807 330.197015 
L 315.11017 326.40425 
L 326.946534 331.68925 
L 338.782898 323.65605 
L 350.619261 321.622583 
L 362.455625 321.791886 
L 374.291989 322.773685 
L 386.128352 322.792833 
L 397.964716 335.49445 
L 409.80108 334.128481 
L 421.637443 336.54362 
L 433.473807 333.80325 
L 445.31017 336.719112 
L 457.146534 324.642583 
L 468.982898 306.048476 
L 480.819261 295.685187 
L 492.655625 306.129068 
" style="fill:none;stroke:#d0e1f2;stroke-linecap:square;stroke-width:1.5;"/>
   </g>
   <g id="line2d_43">
    <path clip-path="url(#pfe33f83a79)" d="M 102.055625 395.10925 
L 113.891989 367.62725 
L 125.728352 352.82925 
L 137.564716 368.331917 
L 149.40108 353.35775 
L 161.237443 361.28525 
L 173.073807 335.564917 
L 184.91017 322.93125 
L 196.746534 316.627 
L 208.582898 332.863694 
L 220.419261 329.15245 
L 232.255625 329.190886 
L 244.091989 331.68925 
L 255.928352 333.80325 
L 267.764716 340.90025 
L 279.60108 345.923517 
L 291.437443 348.8655 
L 303.273807 345.492426 
L 315.11017 342.611583 
L 326.946534 343.149355 
L 338.782898 349.55255 
L 350.619261 325.749917 
L 362.455625 325.155068 
L 374.291989 331.321598 
L 386.128352 331.601167 
L 397.964716 332.19661 
L 409.80108 329.250019 
L 421.637443 328.08762 
L 433.473807 331.99125 
L 445.31017 315.943595 
L 457.146534 312.945117 
L 468.982898 288.863702 
L 480.819261 292.8445 
L 492.655625 302.990098 
" style="fill:none;stroke:#d0e1f2;stroke-linecap:square;stroke-width:1.5;"/>
   </g>
   <g id="line2d_44">
    <path clip-path="url(#pfe33f83a79)" d="M 102.055625 230.21725 
L 113.891989 168.91125 
L 125.728352 137.20125 
L 137.564716 167.501917 
L 149.40108 160.45525 
L 161.237443 146.50285 
L 173.073807 140.37225 
L 184.91017 126.93325 
L 196.746534 131.1235 
L 208.582898 146.127028 
L 220.419261 157.49565 
L 232.255625 171.02525 
L 244.091989 158.165083 
L 255.928352 166.472019 
L 267.764716 158.19025 
L 279.60108 147.207517 
L 291.437443 157.680625 
L 303.273807 154.486309 
L 315.11017 153.05625 
L 326.946534 161.679145 
L 338.782898 162.35785 
L 350.619261 151.294583 
L 362.455625 159.782614 
L 374.291989 163.120728 
L 386.128352 150.589917 
L 397.964716 147.77125 
L 409.80108 154.926327 
L 421.637443 159.985472 
L 433.473807 147.77125 
L 445.31017 170.004698 
L 457.146534 162.56925 
L 468.982898 167.410992 
L 480.819261 171.157375 
L 492.655625 160.263068 
" style="fill:none;stroke:#1764ab;stroke-linecap:square;stroke-width:1.5;"/>
   </g>
   <g id="line2d_45">
    <path clip-path="url(#pfe33f83a79)" d="M 102.055625 78.00925 
L 113.891989 113.94725 
L 125.728352 110.77625 
L 137.564716 112.537917 
L 149.40108 155.17025 
L 161.237443 171.44805 
L 173.073807 194.631583 
L 184.91017 163.77725 
L 196.746534 150.1495 
L 208.582898 152.703917 
L 220.419261 154.74745 
L 232.255625 156.995977 
L 244.091989 135.968083 
L 255.928352 138.664788 
L 267.764716 137.65425 
L 279.60108 119.584583 
L 291.437443 150.017375 
L 303.273807 152.123603 
L 315.11017 152.351583 
L 326.946534 138.313882 
L 338.782898 151.47075 
L 350.619261 155.119917 
L 362.455625 157.28425 
L 374.291989 141.42925 
L 386.128352 160.014833 
L 397.964716 154.11325 
L 409.80108 142.48625 
L 421.637443 148.867398 
L 433.473807 152.67875 
L 445.31017 165.630905 
L 457.146534 159.680117 
L 468.982898 156.295444 
L 480.819261 147.374875 
L 492.655625 149.757129 
" style="fill:none;stroke:#1764ab;stroke-linecap:square;stroke-width:1.5;"/>
   </g>
   <g id="line2d_46">
    <path clip-path="url(#pfe33f83a79)" d="M 102.055625 268.26925 
L 113.891989 166.79725 
L 125.728352 135.08725 
L 137.564716 133.677917 
L 149.40108 139.31525 
L 161.237443 143.96605 
L 173.073807 146.361917 
L 184.91017 135.99325 
L 196.746534 135.08725 
L 208.582898 139.785028 
L 220.419261 143.12045 
L 232.255625 162.377068 
L 244.091989 128.21675 
L 255.928352 142.730173 
L 267.764716 140.22125 
L 279.60108 161.72365 
L 291.437443 153.58475 
L 303.273807 161.450074 
L 315.11017 145.187472 
L 326.946534 153.111882 
L 338.782898 153.26765 
L 350.619261 157.535917 
L 362.455625 151.230523 
L 374.291989 140.785859 
L 386.128352 150.854167 
L 397.964716 145.91093 
L 409.80108 138.746096 
L 421.637443 149.572065 
L 433.473807 152.22575 
L 445.31017 159.143112 
L 457.146534 147.55985 
L 468.982898 149.748863 
L 480.819261 154.443562 
L 492.655625 165.70822 
" style="fill:none;stroke:#1764ab;stroke-linecap:square;stroke-width:1.5;"/>
   </g>
   <g id="line2d_47">
    <path clip-path="url(#pfe33f83a79)" d="M 102.055625 128.74525 
L 113.891989 164.68325 
L 125.728352 139.31525 
L 137.564716 142.838583 
L 149.40108 144.07175 
L 161.237443 140.16085 
L 173.073807 157.988917 
L 184.91017 151.99925 
L 196.746534 145.65725 
L 208.582898 167.267028 
L 220.419261 169.33405 
L 232.255625 170.064341 
L 244.091989 162.393083 
L 255.928352 161.430942 
L 267.764716 139.01325 
L 279.60108 159.750583 
L 291.437443 149.753125 
L 303.273807 140.061368 
L 315.11017 146.596806 
L 326.946534 153.445671 
L 338.782898 154.32465 
L 350.619261 147.267917 
L 362.455625 157.380341 
L 374.291989 147.127859 
L 386.128352 145.9215 
L 397.964716 146.24917 
L 409.80108 139.884404 
L 421.637443 141.42925 
L 433.473807 155.69875 
L 445.31017 152.21794 
L 457.146534 157.49565 
L 468.982898 161.546347 
L 480.819261 153.716875 
L 492.655625 164.555129 
" style="fill:none;stroke:#1764ab;stroke-linecap:square;stroke-width:1.5;"/>
   </g>
   <g id="line2d_48">
    <path clip-path="url(#pfe33f83a79)" d="M 102.055625 65.32525 
L 113.891989 154.11325 
L 125.728352 180.53825 
L 137.564716 160.45525 
L 149.40108 156.22725 
L 161.237443 145.65725 
L 173.073807 157.28425 
L 184.91017 171.32725 
L 196.746534 153.3205 
L 208.582898 160.220361 
L 220.419261 170.39105 
L 232.255625 145.65725 
L 244.091989 161.864583 
L 255.928352 138.339558 
L 267.764716 138.71125 
L 279.60108 148.61685 
L 291.437443 151.867125 
L 303.273807 151.874897 
L 315.11017 154.817917 
L 326.946534 152.666829 
L 338.782898 151.68215 
L 350.619261 155.723917 
L 362.455625 152.671886 
L 374.291989 150.160989 
L 386.128352 165.21175 
L 397.964716 152.76029 
L 409.80108 145.006788 
L 421.637443 154.426435 
L 433.473807 148.45075 
L 445.31017 145.948836 
L 457.146534 141.076917 
L 468.982898 152.135637 
L 480.819261 152.858062 
L 492.655625 143.671371 
" style="fill:none;stroke:#1764ab;stroke-linecap:square;stroke-width:1.5;"/>
   </g>
   <g id="line2d_49">
    <path clip-path="url(#pfe33f83a79)" d="M 102.055625 179.48125 
L 113.891989 143.54325 
L 125.728352 124.51725 
L 137.564716 99.14925 
L 149.40108 172.61075 
L 161.237443 126.20845 
L 173.073807 122.050917 
L 184.91017 139.61725 
L 196.746534 152.52775 
L 208.582898 152.234139 
L 220.419261 158.12985 
L 232.255625 150.653977 
L 244.091989 162.393083 
L 255.928352 145.819865 
L 267.764716 153.50925 
L 279.60108 150.30805 
L 291.437443 147.110625 
L 303.273807 155.481132 
L 315.11017 155.522583 
L 326.946534 161.345355 
L 338.782898 158.97545 
L 350.619261 160.656583 
L 362.455625 150.173523 
L 374.291989 159.444207 
L 386.128352 156.22725 
L 397.964716 160.53981 
L 409.80108 160.699173 
L 421.637443 154.817917 
L 433.473807 141.95775 
L 445.31017 149.083388 
L 457.146534 152.562983 
L 468.982898 150.430798 
L 480.819261 149.290687 
L 492.655625 147.835311 
" style="fill:none;stroke:#1764ab;stroke-linecap:square;stroke-width:1.5;"/>
   </g>
   <g id="line2d_50">
    <path clip-path="url(#pfe33f83a79)" d="M 102.055625 128.74525 
L 113.891989 177.36725 
L 125.728352 188.99425 
L 137.564716 175.957917 
L 149.40108 163.62625 
L 161.237443 154.11325 
L 173.073807 141.781583 
L 184.91017 149.88525 
L 196.746534 164.419 
L 208.582898 126.396361 
L 220.419261 152.42205 
L 232.255625 162.184886 
L 244.091989 138.25825 
L 255.928352 143.055404 
L 267.764716 142.78825 
L 279.60108 157.354717 
L 291.437443 146.45 
L 303.273807 159.087368 
L 315.11017 162.334361 
L 326.946534 149.773987 
L 338.782898 163.83765 
L 350.619261 159.750583 
L 362.455625 164.68325 
L 374.291989 147.311685 
L 386.128352 142.926667 
L 397.964716 160.03245 
L 409.80108 153.788019 
L 421.637443 153.643472 
L 433.473807 147.54475 
L 445.31017 140.335802 
L 457.146534 150.589917 
L 468.982898 167.206411 
L 480.819261 144.8645 
L 492.655625 166.156644 
" style="fill:none;stroke:#1764ab;stroke-linecap:square;stroke-width:1.5;"/>
   </g>
   <g id="line2d_51">
    <path clip-path="url(#pfe33f83a79)" d="M 102.055625 65.32525 
L 113.891989 171.02525 
L 125.728352 160.45525 
L 137.564716 149.180583 
L 149.40108 117.11825 
L 161.237443 157.49565 
L 173.073807 168.558917 
L 184.91017 134.78525 
L 196.746534 149.0925 
L 208.582898 153.643472 
L 220.419261 149.03965 
L 232.255625 158.34125 
L 244.091989 149.532917 
L 255.928352 155.251558 
L 267.764716 155.92525 
L 279.60108 156.22725 
L 291.437443 150.94225 
L 303.273807 158.34125 
L 315.11017 154.935361 
L 326.946534 139.092724 
L 338.782898 160.34955 
L 350.619261 151.898583 
L 362.455625 168.238614 
L 374.291989 160.914815 
L 386.128352 158.6055 
L 397.964716 157.83389 
L 409.80108 152.487096 
L 421.637443 150.198435 
L 433.473807 157.73725 
L 445.31017 152.509526 
L 457.146534 151.78785 
L 468.982898 155.613508 
L 480.819261 160.653437 
L 492.655625 163.850462 
" style="fill:none;stroke:#1764ab;stroke-linecap:square;stroke-width:1.5;"/>
   </g>
   <g id="line2d_52">
    <path clip-path="url(#pfe33f83a79)" d="M 102.055625 242.90125 
L 113.891989 99.14925 
L 125.728352 113.94725 
L 137.564716 139.31525 
L 149.40108 131.38775 
L 161.237443 142.69765 
L 173.073807 147.066583 
L 184.91017 150.18725 
L 196.746534 147.77125 
L 208.582898 186.527917 
L 220.419261 151.57645 
L 232.255625 164.298886 
L 244.091989 150.41375 
L 255.928352 145.819865 
L 267.764716 142.78825 
L 279.60108 162.56925 
L 291.437443 144.07175 
L 303.273807 141.802309 
L 315.11017 153.995806 
L 326.946534 149.440197 
L 338.782898 152.73915 
L 350.619261 141.026583 
L 362.455625 156.515523 
L 374.291989 152.183076 
L 386.128352 145.216833 
L 397.964716 156.22725 
L 409.80108 151.917942 
L 421.637443 152.077546 
L 433.473807 152.67875 
L 445.31017 152.582422 
L 457.146534 150.026183 
L 468.982898 153.635895 
L 480.819261 157.152125 
L 492.655625 154.753856 
" style="fill:none;stroke:#1764ab;stroke-linecap:square;stroke-width:1.5;"/>
   </g>
   <g id="line2d_53">
    <path clip-path="url(#pfe33f83a79)" d="M 102.055625 128.74525 
L 113.891989 162.56925 
L 125.728352 167.85425 
L 137.564716 145.65725 
L 149.40108 137.72975 
L 161.237443 145.23445 
L 173.073807 173.13925 
L 184.91017 150.79125 
L 196.746534 171.02525 
L 208.582898 146.596806 
L 220.419261 145.86865 
L 232.255625 159.494341 
L 244.091989 156.75575 
L 255.928352 148.909558 
L 267.764716 135.08725 
L 279.60108 152.703917 
L 291.437443 150.017375 
L 303.273807 153.864544 
L 315.11017 145.187472 
L 326.946534 138.870197 
L 338.782898 148.19405 
L 350.619261 148.274583 
L 362.455625 147.77125 
L 374.291989 147.587424 
L 386.128352 154.11325 
L 397.964716 157.83389 
L 409.80108 152.405788 
L 421.637443 147.14488 
L 433.473807 143.69425 
L 445.31017 148.062836 
L 457.146534 157.91845 
L 468.982898 162.091895 
L 480.819261 155.4345 
L 492.655625 145.785371 
" style="fill:none;stroke:#1764ab;stroke-linecap:square;stroke-width:1.5;"/>
   </g>
   <g id="line2d_54">
    <path clip-path="url(#pfe33f83a79)" d="M 102.055625 344.37325 
L 113.891989 342.25925 
L 125.728352 299.97925 
L 137.564716 278.83925 
L 149.40108 229.16025 
L 161.237443 243.74685 
L 173.073807 231.27425 
L 184.91017 263.13525 
L 196.746534 256.9065 
L 208.582898 231.391694 
L 220.419261 245.86085 
L 232.255625 256.930523 
L 244.091989 234.797583 
L 255.928352 240.462019 
L 267.764716 223.72425 
L 279.60108 224.579917 
L 291.437443 220.17575 
L 303.273807 224.372662 
L 315.11017 241.022139 
L 326.946534 255.807776 
L 338.782898 252.73135 
L 350.619261 252.363917 
L 362.455625 245.111341 
L 374.291989 241.890207 
L 386.128352 243.077417 
L 397.964716 251.94917 
L 409.80108 262.415096 
L 421.637443 247.990509 
L 433.473807 245.16625 
L 445.31017 262.14594 
L 457.146534 250.229783 
L 468.982898 237.241185 
L 480.819261 238.607187 
L 492.655625 248.602644 
" style="fill:none;stroke:#94c4df;stroke-linecap:square;stroke-width:1.5;"/>
   </g>
   <g id="line2d_55">
    <path clip-path="url(#pfe33f83a79)" d="M 102.055625 331.68925 
L 113.891989 357.05725 
L 125.728352 328.51825 
L 137.564716 297.86525 
L 149.40108 292.05175 
L 161.237443 281.79885 
L 173.073807 258.051583 
L 184.91017 234.44525 
L 196.746534 244.48675 
L 208.582898 266.625028 
L 220.419261 237.82765 
L 232.255625 221.376886 
L 244.091989 202.20675 
L 255.928352 225.501404 
L 267.764716 226.89525 
L 279.60108 217.95605 
L 291.437443 229.953 
L 303.273807 230.839015 
L 315.11017 233.153361 
L 326.946534 236.225461 
L 338.782898 249.56035 
L 350.619261 235.149917 
L 362.455625 237.424068 
L 374.291989 234.812902 
L 386.128352 231.626583 
L 397.964716 239.43429 
L 409.80108 250.869404 
L 421.637443 249.947917 
L 433.473807 254.30175 
L 445.31017 258.428216 
L 457.146534 261.71585 
L 468.982898 264.450411 
L 480.819261 242.769125 
L 492.655625 273.394098 
" style="fill:none;stroke:#94c4df;stroke-linecap:square;stroke-width:1.5;"/>
   </g>
   <g id="line2d_56">
    <path clip-path="url(#pfe33f83a79)" d="M 102.055625 407.79325 
L 113.891989 302.09325 
L 125.728352 284.12425 
L 137.564716 189.346583 
L 149.40108 260.34175 
L 161.237443 220.49285 
L 173.073807 227.04625 
L 184.91017 219.94925 
L 196.746534 223.34675 
L 208.582898 227.868361 
L 220.419261 243.74685 
L 232.255625 259.428886 
L 244.091989 237.263917 
L 255.928352 244.364788 
L 267.764716 232.02925 
L 279.60108 248.82045 
L 291.437443 239.20175 
L 303.273807 236.683603 
L 315.11017 248.068806 
L 326.946534 235.112829 
L 338.782898 227.57475 
L 350.619261 245.01525 
L 362.455625 255.008705 
L 374.291989 250.254293 
L 386.128352 249.331333 
L 397.964716 261.16621 
L 409.80108 248.104942 
L 421.637443 253.314657 
L 433.473807 253.47125 
L 445.31017 256.824491 
L 457.146534 250.018383 
L 468.982898 237.445766 
L 480.819261 228.829937 
L 492.655625 262.247553 
" style="fill:none;stroke:#94c4df;stroke-linecap:square;stroke-width:1.5;"/>
   </g>
   <g id="line2d_57">
    <path clip-path="url(#pfe33f83a79)" d="M 102.055625 154.11325 
L 113.891989 329.57525 
L 125.728352 298.92225 
L 137.564716 297.86525 
L 149.40108 237.61625 
L 161.237443 250.93445 
L 173.073807 248.18625 
L 184.91017 257.39725 
L 196.746534 241.31575 
L 208.582898 269.678583 
L 220.419261 288.98645 
L 232.255625 275.379977 
L 244.091989 274.61125 
L 255.928352 256.886173 
L 267.764716 251.20625 
L 279.60108 255.16245 
L 291.437443 252.546375 
L 303.273807 256.455721 
L 315.11017 247.833917 
L 326.946534 243.346303 
L 338.782898 242.05565 
L 350.619261 242.90125 
L 362.455625 254.816523 
L 374.291989 250.16238 
L 386.128352 242.813167 
L 397.964716 250.51165 
L 409.80108 237.534942 
L 421.637443 249.008361 
L 433.473807 247.73325 
L 445.31017 245.01525 
L 457.146534 240.716783 
L 468.982898 225.852863 
L 480.819261 221.23275 
L 492.655625 246.04022 
" style="fill:none;stroke:#94c4df;stroke-linecap:square;stroke-width:1.5;"/>
   </g>
   <g id="line2d_58">
    <path clip-path="url(#pfe33f83a79)" d="M 102.055625 52.64125 
L 113.891989 164.68325 
L 125.728352 147.77125 
L 137.564716 156.22725 
L 149.40108 190.05125 
L 161.237443 219.22445 
L 173.073807 250.30025 
L 184.91017 284.27525 
L 196.746534 284.65275 
L 208.582898 251.592139 
L 220.419261 237.61625 
L 232.255625 240.979432 
L 244.091989 228.63175 
L 255.928352 235.420942 
L 267.764716 231.12325 
L 279.60108 240.082583 
L 291.437443 246.60075 
L 303.273807 241.160309 
L 315.11017 235.032472 
L 326.946534 242.122408 
L 338.782898 251.78005 
L 350.619261 242.397917 
L 362.455625 254.336068 
L 374.291989 233.158467 
L 386.128352 231.450417 
L 397.964716 238.16589 
L 409.80108 215.500558 
L 421.637443 227.085398 
L 433.473807 228.48075 
L 445.31017 237.434009 
L 457.146534 238.109517 
L 468.982898 245.628992 
L 480.819261 242.1085 
L 492.655625 269.037977 
" style="fill:none;stroke:#94c4df;stroke-linecap:square;stroke-width:1.5;"/>
   </g>
   <g id="line2d_59">
    <path clip-path="url(#pfe33f83a79)" d="M 102.055625 128.74525 
L 113.891989 202.73525 
L 125.728352 187.93725 
L 137.564716 216.828583 
L 149.40108 220.70425 
L 161.237443 269.96045 
L 173.073807 289.40925 
L 184.91017 279.14125 
L 196.746534 294.16575 
L 208.582898 257.229472 
L 220.419261 251.14585 
L 232.255625 231.178159 
L 244.091989 246.424583 
L 255.928352 241.600327 
L 267.764716 238.37125 
L 279.60108 249.66605 
L 291.437443 216.344125 
L 303.273807 206.465838 
L 315.11017 210.016806 
L 326.946534 221.316197 
L 338.782898 211.29695 
L 350.619261 222.36525 
L 362.455625 222.433886 
L 374.291989 237.937946 
L 386.128352 243.95825 
L 397.964716 254.57053 
L 409.80108 262.98425 
L 421.637443 249.321546 
L 433.473807 234.59625 
L 445.31017 229.196698 
L 457.146534 231.626583 
L 468.982898 224.420798 
L 480.819261 221.893375 
L 492.655625 244.182462 
" style="fill:none;stroke:#94c4df;stroke-linecap:square;stroke-width:1.5;"/>
   </g>
   <g id="line2d_60">
    <path clip-path="url(#pfe33f83a79)" d="M 102.055625 433.16125 
L 113.891989 335.91725 
L 125.728352 307.37825 
L 137.564716 267.564583 
L 149.40108 264.04125 
L 161.237443 262.35005 
L 173.073807 259.460917 
L 184.91017 264.34325 
L 196.746534 257.435 
L 208.582898 242.431472 
L 220.419261 238.25045 
L 232.255625 239.634159 
L 244.091989 250.652583 
L 255.928352 242.088173 
L 267.764716 229.31125 
L 279.60108 243.887783 
L 291.437443 248.71475 
L 303.273807 239.295015 
L 315.11017 229.982361 
L 326.946534 231.663671 
L 338.782898 242.58415 
L 350.619261 245.518583 
L 362.455625 247.513614 
L 374.291989 240.879163 
L 386.128352 242.637 
L 397.964716 240.87181 
L 409.80108 249.161942 
L 421.637443 276.490361 
L 433.473807 263.43725 
L 445.31017 271.841181 
L 457.146534 264.957317 
L 468.982898 262.540992 
L 480.819261 243.099437 
L 492.655625 268.013008 
" style="fill:none;stroke:#94c4df;stroke-linecap:square;stroke-width:1.5;"/>
   </g>
   <g id="line2d_61">
    <path clip-path="url(#pfe33f83a79)" d="M 102.055625 154.11325 
L 113.891989 255.58525 
L 125.728352 194.27925 
L 137.564716 216.123917 
L 149.40108 196.39325 
L 161.237443 192.16525 
L 173.073807 186.527917 
L 184.91017 178.87725 
L 196.746534 190.844 
L 208.582898 211.895917 
L 220.419261 210.55705 
L 232.255625 218.109795 
L 244.091989 221.23275 
L 255.928352 250.381558 
L 267.764716 249.09225 
L 279.60108 254.73965 
L 291.437443 252.41425 
L 303.273807 241.782074 
L 315.11017 244.780361 
L 326.946534 249.577039 
L 338.782898 250.61735 
L 350.619261 251.05525 
L 362.455625 248.858886 
L 374.291989 243.085076 
L 386.128352 224.93225 
L 397.964716 228.18781 
L 409.80108 219.484635 
L 421.637443 227.946657 
L 433.473807 232.10475 
L 445.31017 234.372353 
L 457.146534 243.32405 
L 468.982898 243.85596 
L 480.819261 252.876687 
L 492.655625 268.973917 
" style="fill:none;stroke:#94c4df;stroke-linecap:square;stroke-width:1.5;"/>
   </g>
   <g id="line2d_62">
    <path clip-path="url(#pfe33f83a79)" d="M 102.055625 293.63725 
L 113.891989 308.43525 
L 125.728352 282.01025 
L 137.564716 340.14525 
L 149.40108 310.54925 
L 161.237443 258.96765 
L 173.073807 279.89625 
L 184.91017 262.22925 
L 196.746534 255.58525 
L 208.582898 264.04125 
L 220.419261 246.91785 
L 232.255625 242.90125 
L 244.091989 215.41925 
L 255.928352 223.387404 
L 267.764716 230.06625 
L 279.60108 226.41205 
L 291.437443 207.623875 
L 303.273807 205.471015 
L 315.11017 218.355361 
L 326.946534 211.19125 
L 338.782898 211.61405 
L 350.619261 234.948583 
L 362.455625 237.039705 
L 374.291989 246.026293 
L 386.128352 227.927083 
L 397.964716 229.79445 
L 409.80108 237.61625 
L 421.637443 239.691102 
L 433.473807 248.71475 
L 445.31017 257.772147 
L 457.146534 249.45465 
L 468.982898 248.220347 
L 480.819261 234.44525 
L 492.655625 253.599371 
" style="fill:none;stroke:#94c4df;stroke-linecap:square;stroke-width:1.5;"/>
   </g>
   <g id="line2d_63">
    <path clip-path="url(#pfe33f83a79)" d="M 102.055625 268.26925 
L 113.891989 283.06725 
L 125.728352 274.61125 
L 137.564716 312.66325 
L 149.40108 270.91175 
L 161.237443 262.35005 
L 173.073807 259.460917 
L 184.91017 188.54125 
L 196.746534 186.0875 
L 208.582898 171.02525 
L 220.419261 204.84925 
L 232.255625 204.080523 
L 244.091989 208.02025 
L 255.928352 209.890327 
L 267.764716 215.57025 
L 279.60108 228.385117 
L 291.437443 229.4245 
L 303.273807 221.388191 
L 315.11017 220.351917 
L 326.946534 216.754408 
L 338.782898 233.81105 
L 350.619261 221.45925 
L 362.455625 229.064159 
L 374.291989 224.610554 
L 386.128352 222.201667 
L 397.964716 240.70269 
L 409.80108 225.094865 
L 421.637443 221.682954 
L 433.473807 240.63625 
L 445.31017 224.822905 
L 457.146534 241.139583 
L 468.982898 238.536863 
L 480.819261 220.638187 
L 492.655625 248.15422 
" style="fill:none;stroke:#94c4df;stroke-linecap:square;stroke-width:1.5;"/>
   </g>
   <g id="line2d_64">
    <path clip-path="url(#pfe33f83a79)" d="M 102.055625 433.16125 
L 113.891989 433.16125 
L 125.728352 433.16125 
L 137.564716 433.16125 
L 149.40108 433.16125 
L 161.237443 433.16125 
L 173.073807 433.16125 
L 184.91017 433.16125 
L 196.746534 433.16125 
L 208.582898 433.16125 
L 220.419261 433.16125 
L 232.255625 433.16125 
L 244.091989 433.16125 
L 255.928352 433.16125 
L 267.764716 433.16125 
L 279.60108 433.16125 
L 291.437443 433.16125 
L 303.273807 433.16125 
L 315.11017 433.16125 
L 326.946534 433.16125 
L 338.782898 433.16125 
L 350.619261 433.16125 
L 362.455625 433.16125 
L 374.291989 433.16125 
L 386.128352 433.16125 
L 397.964716 433.16125 
L 409.80108 433.16125 
L 421.637443 433.16125 
L 433.473807 433.16125 
L 445.31017 433.16125 
L 457.146534 433.16125 
L 468.982898 433.16125 
L 480.819261 433.16125 
L 492.655625 433.16125 
" style="fill:none;stroke:#000000;stroke-linecap:square;stroke-width:1.5;"/>
   </g>
   <g id="line2d_65">
    <path clip-path="url(#pfe33f83a79)" d="M 102.055625 433.16125 
L 113.891989 433.16125 
L 125.728352 433.16125 
L 137.564716 433.16125 
L 149.40108 433.16125 
L 161.237443 433.16125 
L 173.073807 433.16125 
L 184.91017 433.16125 
L 196.746534 433.16125 
L 208.582898 433.16125 
L 220.419261 433.16125 
L 232.255625 433.16125 
L 244.091989 433.16125 
L 255.928352 433.16125 
L 267.764716 433.16125 
L 279.60108 433.16125 
L 291.437443 433.16125 
L 303.273807 433.16125 
L 315.11017 433.16125 
L 326.946534 433.16125 
L 338.782898 433.16125 
L 350.619261 433.16125 
L 362.455625 433.16125 
L 374.291989 433.16125 
L 386.128352 433.16125 
L 397.964716 433.16125 
L 409.80108 433.16125 
L 421.637443 433.16125 
L 433.473807 433.16125 
L 445.31017 433.16125 
L 457.146534 433.16125 
L 468.982898 433.16125 
L 480.819261 433.16125 
L 492.655625 433.16125 
" style="fill:none;stroke:#000000;stroke-linecap:square;stroke-width:1.5;"/>
   </g>
   <g id="line2d_66">
    <path clip-path="url(#pfe33f83a79)" d="M 102.055625 433.16125 
L 113.891989 433.16125 
L 125.728352 433.16125 
L 137.564716 433.16125 
L 149.40108 433.16125 
L 161.237443 433.16125 
L 173.073807 433.16125 
L 184.91017 433.16125 
L 196.746534 433.16125 
L 208.582898 433.16125 
L 220.419261 433.16125 
L 232.255625 433.16125 
L 244.091989 433.16125 
L 255.928352 433.16125 
L 267.764716 433.16125 
L 279.60108 433.16125 
L 291.437443 433.16125 
L 303.273807 433.16125 
L 315.11017 433.16125 
L 326.946534 433.16125 
L 338.782898 433.16125 
L 350.619261 433.16125 
L 362.455625 433.16125 
L 374.291989 433.16125 
L 386.128352 433.16125 
L 397.964716 433.16125 
L 409.80108 433.16125 
L 421.637443 433.16125 
L 433.473807 433.16125 
L 445.31017 433.16125 
L 457.146534 433.16125 
L 468.982898 433.16125 
L 480.819261 433.16125 
L 492.655625 433.16125 
" style="fill:none;stroke:#000000;stroke-linecap:square;stroke-width:1.5;"/>
   </g>
   <g id="line2d_67">
    <path clip-path="url(#pfe33f83a79)" d="M 102.055625 433.16125 
L 113.891989 433.16125 
L 125.728352 433.16125 
L 137.564716 433.16125 
L 149.40108 433.16125 
L 161.237443 433.16125 
L 173.073807 433.16125 
L 184.91017 433.16125 
L 196.746534 433.16125 
L 208.582898 433.16125 
L 220.419261 433.16125 
L 232.255625 433.16125 
L 244.091989 433.16125 
L 255.928352 433.16125 
L 267.764716 433.16125 
L 279.60108 433.16125 
L 291.437443 433.16125 
L 303.273807 433.16125 
L 315.11017 433.16125 
L 326.946534 433.16125 
L 338.782898 433.16125 
L 350.619261 433.16125 
L 362.455625 433.16125 
L 374.291989 433.16125 
L 386.128352 433.16125 
L 397.964716 433.16125 
L 409.80108 433.16125 
L 421.637443 433.16125 
L 433.473807 433.16125 
L 445.31017 433.16125 
L 457.146534 433.16125 
L 468.982898 433.16125 
L 480.819261 433.16125 
L 492.655625 433.16125 
" style="fill:none;stroke:#000000;stroke-linecap:square;stroke-width:1.5;"/>
   </g>
   <g id="line2d_68">
    <path clip-path="url(#pfe33f83a79)" d="M 102.055625 433.16125 
L 113.891989 433.16125 
L 125.728352 433.16125 
L 137.564716 433.16125 
L 149.40108 433.16125 
L 161.237443 433.16125 
L 173.073807 433.16125 
L 184.91017 433.16125 
L 196.746534 433.16125 
L 208.582898 433.16125 
L 220.419261 433.16125 
L 232.255625 433.16125 
L 244.091989 433.16125 
L 255.928352 433.16125 
L 267.764716 433.16125 
L 279.60108 433.16125 
L 291.437443 433.16125 
L 303.273807 433.16125 
L 315.11017 433.16125 
L 326.946534 433.16125 
L 338.782898 433.16125 
L 350.619261 433.16125 
L 362.455625 433.16125 
L 374.291989 433.16125 
L 386.128352 433.16125 
L 397.964716 433.16125 
L 409.80108 433.16125 
L 421.637443 433.16125 
L 433.473807 433.16125 
L 445.31017 433.16125 
L 457.146534 433.16125 
L 468.982898 433.16125 
L 480.819261 433.16125 
L 492.655625 433.16125 
" style="fill:none;stroke:#000000;stroke-linecap:square;stroke-width:1.5;"/>
   </g>
   <g id="line2d_69">
    <path clip-path="url(#pfe33f83a79)" d="M 102.055625 433.16125 
L 113.891989 433.16125 
L 125.728352 433.16125 
L 137.564716 433.16125 
L 149.40108 433.16125 
L 161.237443 433.16125 
L 173.073807 433.16125 
L 184.91017 433.16125 
L 196.746534 433.16125 
L 208.582898 433.16125 
L 220.419261 433.16125 
L 232.255625 433.16125 
L 244.091989 433.16125 
L 255.928352 433.16125 
L 267.764716 433.16125 
L 279.60108 433.16125 
L 291.437443 433.16125 
L 303.273807 433.16125 
L 315.11017 433.16125 
L 326.946534 433.16125 
L 338.782898 433.16125 
L 350.619261 433.16125 
L 362.455625 433.16125 
L 374.291989 433.16125 
L 386.128352 433.16125 
L 397.964716 433.16125 
L 409.80108 433.16125 
L 421.637443 433.16125 
L 433.473807 433.16125 
L 445.31017 433.16125 
L 457.146534 433.16125 
L 468.982898 433.16125 
L 480.819261 433.16125 
L 492.655625 433.16125 
" style="fill:none;stroke:#000000;stroke-linecap:square;stroke-width:1.5;"/>
   </g>
   <g id="line2d_70">
    <path clip-path="url(#pfe33f83a79)" d="M 102.055625 433.16125 
L 113.891989 433.16125 
L 125.728352 433.16125 
L 137.564716 433.16125 
L 149.40108 433.16125 
L 161.237443 433.16125 
L 173.073807 433.16125 
L 184.91017 433.16125 
L 196.746534 433.16125 
L 208.582898 433.16125 
L 220.419261 433.16125 
L 232.255625 433.16125 
L 244.091989 433.16125 
L 255.928352 433.16125 
L 267.764716 433.16125 
L 279.60108 433.16125 
L 291.437443 433.16125 
L 303.273807 433.16125 
L 315.11017 433.16125 
L 326.946534 433.16125 
L 338.782898 433.16125 
L 350.619261 433.16125 
L 362.455625 433.16125 
L 374.291989 433.16125 
L 386.128352 433.16125 
L 397.964716 433.16125 
L 409.80108 433.16125 
L 421.637443 433.16125 
L 433.473807 433.16125 
L 445.31017 433.16125 
L 457.146534 433.16125 
L 468.982898 433.16125 
L 480.819261 433.16125 
L 492.655625 433.16125 
" style="fill:none;stroke:#000000;stroke-linecap:square;stroke-width:1.5;"/>
   </g>
   <g id="line2d_71">
    <path clip-path="url(#pfe33f83a79)" d="M 102.055625 433.16125 
L 113.891989 433.16125 
L 125.728352 433.16125 
L 137.564716 433.16125 
L 149.40108 433.16125 
L 161.237443 433.16125 
L 173.073807 433.16125 
L 184.91017 433.16125 
L 196.746534 433.16125 
L 208.582898 433.16125 
L 220.419261 433.16125 
L 232.255625 433.16125 
L 244.091989 433.16125 
L 255.928352 433.16125 
L 267.764716 433.16125 
L 279.60108 433.16125 
L 291.437443 433.16125 
L 303.273807 433.16125 
L 315.11017 433.16125 
L 326.946534 433.16125 
L 338.782898 433.16125 
L 350.619261 433.16125 
L 362.455625 433.16125 
L 374.291989 433.16125 
L 386.128352 433.16125 
L 397.964716 433.16125 
L 409.80108 433.16125 
L 421.637443 433.16125 
L 433.473807 433.16125 
L 445.31017 433.16125 
L 457.146534 433.16125 
L 468.982898 433.16125 
L 480.819261 433.16125 
L 492.655625 433.16125 
" style="fill:none;stroke:#000000;stroke-linecap:square;stroke-width:1.5;"/>
   </g>
   <g id="line2d_72">
    <path clip-path="url(#pfe33f83a79)" d="M 102.055625 433.16125 
L 113.891989 433.16125 
L 125.728352 433.16125 
L 137.564716 433.16125 
L 149.40108 433.16125 
L 161.237443 433.16125 
L 173.073807 433.16125 
L 184.91017 433.16125 
L 196.746534 433.16125 
L 208.582898 433.16125 
L 220.419261 433.16125 
L 232.255625 433.16125 
L 244.091989 433.16125 
L 255.928352 433.16125 
L 267.764716 433.16125 
L 279.60108 433.16125 
L 291.437443 433.16125 
L 303.273807 433.16125 
L 315.11017 433.16125 
L 326.946534 433.16125 
L 338.782898 433.16125 
L 350.619261 433.16125 
L 362.455625 433.16125 
L 374.291989 433.16125 
L 386.128352 433.16125 
L 397.964716 433.16125 
L 409.80108 433.16125 
L 421.637443 433.16125 
L 433.473807 433.16125 
L 445.31017 433.16125 
L 457.146534 433.16125 
L 468.982898 433.16125 
L 480.819261 433.16125 
L 492.655625 433.16125 
" style="fill:none;stroke:#000000;stroke-linecap:square;stroke-width:1.5;"/>
   </g>
   <g id="line2d_73">
    <path clip-path="url(#pfe33f83a79)" d="M 102.055625 433.16125 
L 113.891989 433.16125 
L 125.728352 433.16125 
L 137.564716 433.16125 
L 149.40108 433.16125 
L 161.237443 433.16125 
L 173.073807 433.16125 
L 184.91017 433.16125 
L 196.746534 433.16125 
L 208.582898 433.16125 
L 220.419261 433.16125 
L 232.255625 433.16125 
L 244.091989 433.16125 
L 255.928352 433.16125 
L 267.764716 433.16125 
L 279.60108 433.16125 
L 291.437443 433.16125 
L 303.273807 433.16125 
L 315.11017 433.16125 
L 326.946534 433.16125 
L 338.782898 433.16125 
L 350.619261 433.16125 
L 362.455625 433.16125 
L 374.291989 433.16125 
L 386.128352 433.16125 
L 397.964716 433.16125 
L 409.80108 433.16125 
L 421.637443 433.16125 
L 433.473807 433.16125 
L 445.31017 433.16125 
L 457.146534 433.16125 
L 468.982898 433.16125 
L 480.819261 433.16125 
L 492.655625 433.16125 
" style="fill:none;stroke:#000000;stroke-linecap:square;stroke-width:1.5;"/>
   </g>
   <g id="line2d_74">
    <path clip-path="url(#pfe33f83a79)" d="M 90.219261 433.16125 
" style="fill:none;stroke:#000000;stroke-linecap:square;stroke-width:1.5;"/>
   </g>
   <g id="line2d_75">
    <path clip-path="url(#pfe33f83a79)" d="M 90.219261 433.16125 
" style="fill:none;stroke:#d0e1f2;stroke-linecap:square;stroke-width:1.5;"/>
   </g>
   <g id="line2d_76">
    <path clip-path="url(#pfe33f83a79)" d="M 90.219261 433.16125 
" style="fill:none;stroke:#94c4df;stroke-linecap:square;stroke-width:1.5;"/>
   </g>
   <g id="line2d_77">
    <path clip-path="url(#pfe33f83a79)" d="M 90.219261 433.16125 
" style="fill:none;stroke:#4a98c9;stroke-linecap:square;stroke-width:1.5;"/>
   </g>
   <g id="line2d_78">
    <path clip-path="url(#pfe33f83a79)" d="M 90.219261 433.16125 
" style="fill:none;stroke:#1764ab;stroke-linecap:square;stroke-width:1.5;"/>
   </g>
   <g id="line2d_79">
    <path clip-path="url(#pfe33f83a79)" d="M 90.219261 433.16125 
" style="fill:none;stroke:#08306b;stroke-linecap:square;stroke-width:1.5;"/>
   </g>
   <g id="line2d_80">
    <path clip-path="url(#pfe33f83a79)" d="M 90.219261 433.16125 
" style="fill:none;stroke:#000000;stroke-linecap:square;stroke-width:1.5;"/>
   </g>
   <g id="line2d_81">
    <path clip-path="url(#pfe33f83a79)" d="M 90.219261 433.16125 
" style="fill:none;stroke:#000000;stroke-dasharray:1.5,2.475;stroke-dashoffset:0;stroke-width:1.5;"/>
   </g>
   <g id="line2d_82">
    <path clip-path="url(#pfe33f83a79)" d="M 90.219261 433.16125 
" style="fill:none;stroke:#000000;stroke-linecap:square;stroke-width:1.5;"/>
   </g>
   <g id="line2d_83">
    <path clip-path="url(#pfe33f83a79)" d="M 90.219261 433.16125 
" style="fill:none;stroke:#000000;stroke-dasharray:5.55,2.4;stroke-dashoffset:0;stroke-width:1.5;"/>
   </g>
   <g id="line2d_84">
    <path clip-path="url(#pfe33f83a79)" d="M 90.219261 433.16125 
" style="fill:none;stroke:#000000;stroke-dasharray:9.6,2.4,1.5,2.4;stroke-dashoffset:0;stroke-width:1.5;"/>
   </g>
   <g id="line2d_85">
    <path clip-path="url(#pfe33f83a79)" d="M 90.219261 433.16125 
" style="fill:none;stroke:#000000;stroke-dasharray:9.6,2.4,1.5,2.4;stroke-dashoffset:0;stroke-width:1.5;"/>
   </g>
   <g id="patch_3">
    <path d="M 102.055625 433.16125 
L 102.055625 52.64125 
" style="fill:none;stroke:#000000;stroke-linecap:square;stroke-linejoin:miter;stroke-width:0.8;"/>
   </g>
   <g id="patch_4">
    <path d="M 492.655625 433.16125 
L 492.655625 52.64125 
" style="fill:none;stroke:#000000;stroke-linecap:square;stroke-linejoin:miter;stroke-width:0.8;"/>
   </g>
   <g id="patch_5">
    <path d="M 102.055625 433.16125 
L 492.655625 433.16125 
" style="fill:none;stroke:#000000;stroke-linecap:square;stroke-linejoin:miter;stroke-width:0.8;"/>
   </g>
   <g id="patch_6">
    <path d="M 102.055625 52.64125 
L 492.655625 52.64125 
" style="fill:none;stroke:#000000;stroke-linecap:square;stroke-linejoin:miter;stroke-width:0.8;"/>
   </g>
   <g id="text_16">
    <!-- T-CELL LIVE NORMALIZED COUNT -->
    <g transform="translate(129.047813 21.515625)scale(0.2 -0.2)">
     <use xlink:href="#Arial-BoldMT-84"/>
     <use x="61.005859" xlink:href="#Arial-BoldMT-45"/>
     <use x="94.306641" xlink:href="#Arial-BoldMT-67"/>
     <use x="166.523438" xlink:href="#Arial-BoldMT-69"/>
     <use x="233.222656" xlink:href="#Arial-BoldMT-76"/>
     <use x="294.306641" xlink:href="#Arial-BoldMT-76"/>
     <use x="355.375" xlink:href="#Arial-BoldMT-32"/>
     <use x="383.158203" xlink:href="#Arial-BoldMT-76"/>
     <use x="444.242188" xlink:href="#Arial-BoldMT-73"/>
     <use x="472.025391" xlink:href="#Arial-BoldMT-86"/>
     <use x="538.724609" xlink:href="#Arial-BoldMT-69"/>
     <use x="605.423828" xlink:href="#Arial-BoldMT-32"/>
     <use x="633.207031" xlink:href="#Arial-BoldMT-78"/>
     <use x="705.423828" xlink:href="#Arial-BoldMT-79"/>
     <use x="783.207031" xlink:href="#Arial-BoldMT-82"/>
     <use x="855.423828" xlink:href="#Arial-BoldMT-77"/>
     <use x="938.724609" xlink:href="#Arial-BoldMT-65"/>
     <use x="1010.941406" xlink:href="#Arial-BoldMT-76"/>
     <use x="1072.025391" xlink:href="#Arial-BoldMT-73"/>
     <use x="1099.808594" xlink:href="#Arial-BoldMT-90"/>
     <use x="1160.892578" xlink:href="#Arial-BoldMT-69"/>
     <use x="1227.591797" xlink:href="#Arial-BoldMT-68"/>
     <use x="1299.808594" xlink:href="#Arial-BoldMT-32"/>
     <use x="1327.591797" xlink:href="#Arial-BoldMT-67"/>
     <use x="1399.808594" xlink:href="#Arial-BoldMT-79"/>
     <use x="1477.591797" xlink:href="#Arial-BoldMT-85"/>
     <use x="1549.808594" xlink:href="#Arial-BoldMT-78"/>
     <use x="1622.025391" xlink:href="#Arial-BoldMT-84"/>
    </g>
    <!-- ACROSS RADIUS AT TIME 7 -->
    <defs>
     <path d="M 4.25 57.859375 
L 4.25 70.609375 
L 51.171875 70.609375 
L 51.171875 60.640625 
Q 45.359375 54.9375 39.34375 44.234375 
Q 33.34375 33.546875 30.1875 21.5 
Q 27.046875 9.46875 27.09375 0 
L 13.875 0 
Q 14.203125 14.84375 19.984375 30.265625 
Q 25.78125 45.703125 35.453125 57.859375 
z
" id="Arial-BoldMT-55"/>
    </defs>
    <g transform="translate(162.361875 42.64125)scale(0.2 -0.2)">
     <use xlink:href="#Arial-BoldMT-65"/>
     <use x="72.216797" xlink:href="#Arial-BoldMT-67"/>
     <use x="144.433594" xlink:href="#Arial-BoldMT-82"/>
     <use x="216.650391" xlink:href="#Arial-BoldMT-79"/>
     <use x="294.433594" xlink:href="#Arial-BoldMT-83"/>
     <use x="361.132812" xlink:href="#Arial-BoldMT-83"/>
     <use x="427.832031" xlink:href="#Arial-BoldMT-32"/>
     <use x="455.615234" xlink:href="#Arial-BoldMT-82"/>
     <use x="527.832031" xlink:href="#Arial-BoldMT-65"/>
     <use x="600.048828" xlink:href="#Arial-BoldMT-68"/>
     <use x="672.265625" xlink:href="#Arial-BoldMT-73"/>
     <use x="700.048828" xlink:href="#Arial-BoldMT-85"/>
     <use x="772.265625" xlink:href="#Arial-BoldMT-83"/>
     <use x="838.964844" xlink:href="#Arial-BoldMT-32"/>
     <use x="866.701172" xlink:href="#Arial-BoldMT-65"/>
     <use x="938.808594" xlink:href="#Arial-BoldMT-84"/>
     <use x="999.892578" xlink:href="#Arial-BoldMT-32"/>
     <use x="1027.675781" xlink:href="#Arial-BoldMT-84"/>
     <use x="1088.759766" xlink:href="#Arial-BoldMT-73"/>
     <use x="1116.542969" xlink:href="#Arial-BoldMT-77"/>
     <use x="1199.84375" xlink:href="#Arial-BoldMT-69"/>
     <use x="1266.542969" xlink:href="#Arial-BoldMT-32"/>
     <use x="1294.326172" xlink:href="#Arial-BoldMT-55"/>
    </g>
   </g>
   <g id="legend_1">
    <g id="line2d_86">
     <path d="M 501.655625 65.739687 
L 521.655625 65.739687 
" style="fill:none;stroke:#000000;stroke-linecap:square;stroke-width:1.5;"/>
    </g>
    <g id="line2d_87"/>
    <g id="text_17">
     <!-- 0 -->
     <g transform="translate(529.655625 69.239687)scale(0.1 -0.1)">
      <use xlink:href="#DejaVuSans-48"/>
     </g>
    </g>
    <g id="line2d_88">
     <path d="M 501.655625 80.417812 
L 521.655625 80.417812 
" style="fill:none;stroke:#d0e1f2;stroke-linecap:square;stroke-width:1.5;"/>
    </g>
    <g id="line2d_89"/>
    <g id="text_18">
     <!-- 100 -->
     <g transform="translate(529.655625 83.917812)scale(0.1 -0.1)">
      <use xlink:href="#DejaVuSans-49"/>
      <use x="63.623047" xlink:href="#DejaVuSans-48"/>
      <use x="127.246094" xlink:href="#DejaVuSans-48"/>
     </g>
    </g>
    <g id="line2d_90">
     <path d="M 501.655625 95.095937 
L 521.655625 95.095937 
" style="fill:none;stroke:#94c4df;stroke-linecap:square;stroke-width:1.5;"/>
    </g>
    <g id="line2d_91"/>
    <g id="text_19">
     <!-- 500 -->
     <g transform="translate(529.655625 98.595937)scale(0.1 -0.1)">
      <use xlink:href="#DejaVuSans-53"/>
      <use x="63.623047" xlink:href="#DejaVuSans-48"/>
      <use x="127.246094" xlink:href="#DejaVuSans-48"/>
     </g>
    </g>
    <g id="line2d_92">
     <path d="M 501.655625 109.774062 
L 521.655625 109.774062 
" style="fill:none;stroke:#4a98c9;stroke-linecap:square;stroke-width:1.5;"/>
    </g>
    <g id="line2d_93"/>
    <g id="text_20">
     <!-- 1000 -->
     <g transform="translate(529.655625 113.274062)scale(0.1 -0.1)">
      <use xlink:href="#DejaVuSans-49"/>
      <use x="63.623047" xlink:href="#DejaVuSans-48"/>
      <use x="127.246094" xlink:href="#DejaVuSans-48"/>
      <use x="190.869141" xlink:href="#DejaVuSans-48"/>
     </g>
    </g>
    <g id="line2d_94">
     <path d="M 501.655625 124.452187 
L 521.655625 124.452187 
" style="fill:none;stroke:#1764ab;stroke-linecap:square;stroke-width:1.5;"/>
    </g>
    <g id="line2d_95"/>
    <g id="text_21">
     <!-- 5000 -->
     <g transform="translate(529.655625 127.952187)scale(0.1 -0.1)">
      <use xlink:href="#DejaVuSans-53"/>
      <use x="63.623047" xlink:href="#DejaVuSans-48"/>
      <use x="127.246094" xlink:href="#DejaVuSans-48"/>
      <use x="190.869141" xlink:href="#DejaVuSans-48"/>
     </g>
    </g>
    <g id="line2d_96">
     <path d="M 501.655625 139.130312 
L 521.655625 139.130312 
" style="fill:none;stroke:#08306b;stroke-linecap:square;stroke-width:1.5;"/>
    </g>
    <g id="line2d_97"/>
    <g id="text_22">
     <!-- 10000 -->
     <g transform="translate(529.655625 142.630312)scale(0.1 -0.1)">
      <use xlink:href="#DejaVuSans-49"/>
      <use x="63.623047" xlink:href="#DejaVuSans-48"/>
      <use x="127.246094" xlink:href="#DejaVuSans-48"/>
      <use x="190.869141" xlink:href="#DejaVuSans-48"/>
      <use x="254.492188" xlink:href="#DejaVuSans-48"/>
     </g>
    </g>
    <g id="line2d_98">
     <path d="M 501.655625 153.808437 
L 521.655625 153.808437 
" style="fill:none;stroke:#000000;stroke-linecap:square;stroke-width:1.5;"/>
    </g>
    <g id="line2d_99"/>
    <g id="text_23">
     <!-- 0 -->
     <g transform="translate(529.655625 157.308437)scale(0.1 -0.1)">
      <use xlink:href="#DejaVuSans-48"/>
     </g>
    </g>
    <g id="line2d_100">
     <path d="M 501.655625 168.486562 
L 521.655625 168.486562 
" style="fill:none;stroke:#000000;stroke-dasharray:1.5,2.475;stroke-dashoffset:0;stroke-width:1.5;"/>
    </g>
    <g id="line2d_101"/>
    <g id="text_24">
     <!-- 250 -->
     <g transform="translate(529.655625 171.986562)scale(0.1 -0.1)">
      <use xlink:href="#DejaVuSans-50"/>
      <use x="63.623047" xlink:href="#DejaVuSans-53"/>
      <use x="127.246094" xlink:href="#DejaVuSans-48"/>
     </g>
    </g>
    <g id="line2d_102">
     <path d="M 501.655625 183.164687 
L 521.655625 183.164687 
" style="fill:none;stroke:#000000;stroke-linecap:square;stroke-width:1.5;"/>
    </g>
    <g id="line2d_103"/>
    <g id="text_25">
     <!-- 500 -->
     <g transform="translate(529.655625 186.664687)scale(0.1 -0.1)">
      <use xlink:href="#DejaVuSans-53"/>
      <use x="63.623047" xlink:href="#DejaVuSans-48"/>
      <use x="127.246094" xlink:href="#DejaVuSans-48"/>
     </g>
    </g>
    <g id="line2d_104">
     <path d="M 501.655625 197.842812 
L 521.655625 197.842812 
" style="fill:none;stroke:#000000;stroke-dasharray:5.55,2.4;stroke-dashoffset:0;stroke-width:1.5;"/>
    </g>
    <g id="line2d_105"/>
    <g id="text_26">
     <!-- 1000 -->
     <g transform="translate(529.655625 201.342812)scale(0.1 -0.1)">
      <use xlink:href="#DejaVuSans-49"/>
      <use x="63.623047" xlink:href="#DejaVuSans-48"/>
      <use x="127.246094" xlink:href="#DejaVuSans-48"/>
      <use x="190.869141" xlink:href="#DejaVuSans-48"/>
     </g>
    </g>
    <g id="line2d_106">
     <path d="M 501.655625 212.520937 
L 521.655625 212.520937 
" style="fill:none;stroke:#000000;stroke-dasharray:9.6,2.4,1.5,2.4;stroke-dashoffset:0;stroke-width:1.5;"/>
    </g>
    <g id="line2d_107"/>
    <g id="text_27">
     <!-- 5000 -->
     <g transform="translate(529.655625 216.020937)scale(0.1 -0.1)">
      <use xlink:href="#DejaVuSans-53"/>
      <use x="63.623047" xlink:href="#DejaVuSans-48"/>
      <use x="127.246094" xlink:href="#DejaVuSans-48"/>
      <use x="190.869141" xlink:href="#DejaVuSans-48"/>
     </g>
    </g>
    <g id="line2d_108">
     <path d="M 501.655625 227.199062 
L 521.655625 227.199062 
" style="fill:none;stroke:#000000;stroke-dasharray:9.6,2.4,1.5,2.4;stroke-dashoffset:0;stroke-width:1.5;"/>
    </g>
    <g id="line2d_109"/>
    <g id="text_28">
     <!-- 10000 -->
     <g transform="translate(529.655625 230.699062)scale(0.1 -0.1)">
      <use xlink:href="#DejaVuSans-49"/>
      <use x="63.623047" xlink:href="#DejaVuSans-48"/>
      <use x="127.246094" xlink:href="#DejaVuSans-48"/>
      <use x="190.869141" xlink:href="#DejaVuSans-48"/>
      <use x="254.492188" xlink:href="#DejaVuSans-48"/>
     </g>
    </g>
   </g>
  </g>
 </g>
 <defs>
  <clipPath id="pfe33f83a79">
   <rect height="380.52" width="390.6" x="102.055625" y="52.64125"/>
  </clipPath>
 </defs>
</svg>
