<?xml version="1.0" encoding="utf-8" standalone="no"?>
<!DOCTYPE svg PUBLIC "-//W3C//DTD SVG 1.1//EN"
  "http://www.w3.org/Graphics/SVG/1.1/DTD/svg11.dtd">
<!-- Created with matplotlib (https://matplotlib.org/) -->
<svg height="504.658125pt" version="1.1" viewBox="0 0 572.668125 504.658125" width="572.668125pt" xmlns="http://www.w3.org/2000/svg" xmlns:xlink="http://www.w3.org/1999/xlink">
 <defs>
  <style type="text/css">
*{stroke-linecap:butt;stroke-linejoin:round;}
  </style>
 </defs>
 <g id="figure_1">
  <g id="patch_1">
   <path d="M 0 504.658125 
L 572.668125 504.658125 
L 572.668125 -0 
L 0 -0 
z
" style="fill:#ffffff;"/>
  </g>
  <g id="axes_1">
   <g id="patch_2">
    <path d="M 102.055625 433.16125 
L 492.655625 433.16125 
L 492.655625 52.64125 
L 102.055625 52.64125 
z
" style="fill:#ffffff;"/>
   </g>
   <g id="matplotlib.axis_1">
    <g id="xtick_1">
     <g id="line2d_1">
      <defs>
       <path d="M 0 0 
L 0 3.5 
" id="m37606ba140" style="stroke:#000000;stroke-width:0.8;"/>
      </defs>
      <g>
       <use style="stroke:#000000;stroke-width:0.8;" x="149.40108" xlink:href="#m37606ba140" y="433.16125"/>
      </g>
     </g>
     <g id="text_1">
      <!-- 5 -->
      <defs>
       <path d="M 10.796875 72.90625 
L 49.515625 72.90625 
L 49.515625 64.59375 
L 19.828125 64.59375 
L 19.828125 46.734375 
Q 21.96875 47.46875 24.109375 47.828125 
Q 26.265625 48.1875 28.421875 48.1875 
Q 40.625 48.1875 47.75 41.5 
Q 54.890625 34.8125 54.890625 23.390625 
Q 54.890625 11.625 47.5625 5.09375 
Q 40.234375 -1.421875 26.90625 -1.421875 
Q 22.3125 -1.421875 17.546875 -0.640625 
Q 12.796875 0.140625 7.71875 1.703125 
L 7.71875 11.625 
Q 12.109375 9.234375 16.796875 8.0625 
Q 21.484375 6.890625 26.703125 6.890625 
Q 35.15625 6.890625 40.078125 11.328125 
Q 45.015625 15.765625 45.015625 23.390625 
Q 45.015625 31 40.078125 35.4375 
Q 35.15625 39.890625 26.703125 39.890625 
Q 22.75 39.890625 18.8125 39.015625 
Q 14.890625 38.140625 10.796875 36.28125 
z
" id="DejaVuSans-53"/>
      </defs>
      <g transform="translate(139.85733 462.956562)scale(0.3 -0.3)">
       <use xlink:href="#DejaVuSans-53"/>
      </g>
     </g>
    </g>
    <g id="xtick_2">
     <g id="line2d_2">
      <g>
       <use style="stroke:#000000;stroke-width:0.8;" x="208.582898" xlink:href="#m37606ba140" y="433.16125"/>
      </g>
     </g>
     <g id="text_2">
      <!-- 10 -->
      <defs>
       <path d="M 12.40625 8.296875 
L 28.515625 8.296875 
L 28.515625 63.921875 
L 10.984375 60.40625 
L 10.984375 69.390625 
L 28.421875 72.90625 
L 38.28125 72.90625 
L 38.28125 8.296875 
L 54.390625 8.296875 
L 54.390625 0 
L 12.40625 0 
z
" id="DejaVuSans-49"/>
       <path d="M 31.78125 66.40625 
Q 24.171875 66.40625 20.328125 58.90625 
Q 16.5 51.421875 16.5 36.375 
Q 16.5 21.390625 20.328125 13.890625 
Q 24.171875 6.390625 31.78125 6.390625 
Q 39.453125 6.390625 43.28125 13.890625 
Q 47.125 21.390625 47.125 36.375 
Q 47.125 51.421875 43.28125 58.90625 
Q 39.453125 66.40625 31.78125 66.40625 
z
M 31.78125 74.21875 
Q 44.046875 74.21875 50.515625 64.515625 
Q 56.984375 54.828125 56.984375 36.375 
Q 56.984375 17.96875 50.515625 8.265625 
Q 44.046875 -1.421875 31.78125 -1.421875 
Q 19.53125 -1.421875 13.0625 8.265625 
Q 6.59375 17.96875 6.59375 36.375 
Q 6.59375 54.828125 13.0625 64.515625 
Q 19.53125 74.21875 31.78125 74.21875 
z
" id="DejaVuSans-48"/>
      </defs>
      <g transform="translate(189.495398 462.956562)scale(0.3 -0.3)">
       <use xlink:href="#DejaVuSans-49"/>
       <use x="63.623047" xlink:href="#DejaVuSans-48"/>
      </g>
     </g>
    </g>
    <g id="xtick_3">
     <g id="line2d_3">
      <g>
       <use style="stroke:#000000;stroke-width:0.8;" x="267.764716" xlink:href="#m37606ba140" y="433.16125"/>
      </g>
     </g>
     <g id="text_3">
      <!-- 15 -->
      <g transform="translate(248.677216 462.956562)scale(0.3 -0.3)">
       <use xlink:href="#DejaVuSans-49"/>
       <use x="63.623047" xlink:href="#DejaVuSans-53"/>
      </g>
     </g>
    </g>
    <g id="xtick_4">
     <g id="line2d_4">
      <g>
       <use style="stroke:#000000;stroke-width:0.8;" x="326.946534" xlink:href="#m37606ba140" y="433.16125"/>
      </g>
     </g>
     <g id="text_4">
      <!-- 20 -->
      <defs>
       <path d="M 19.1875 8.296875 
L 53.609375 8.296875 
L 53.609375 0 
L 7.328125 0 
L 7.328125 8.296875 
Q 12.9375 14.109375 22.625 23.890625 
Q 32.328125 33.6875 34.8125 36.53125 
Q 39.546875 41.84375 41.421875 45.53125 
Q 43.3125 49.21875 43.3125 52.78125 
Q 43.3125 58.59375 39.234375 62.25 
Q 35.15625 65.921875 28.609375 65.921875 
Q 23.96875 65.921875 18.8125 64.3125 
Q 13.671875 62.703125 7.8125 59.421875 
L 7.8125 69.390625 
Q 13.765625 71.78125 18.9375 73 
Q 24.125 74.21875 28.421875 74.21875 
Q 39.75 74.21875 46.484375 68.546875 
Q 53.21875 62.890625 53.21875 53.421875 
Q 53.21875 48.921875 51.53125 44.890625 
Q 49.859375 40.875 45.40625 35.40625 
Q 44.1875 33.984375 37.640625 27.21875 
Q 31.109375 20.453125 19.1875 8.296875 
z
" id="DejaVuSans-50"/>
      </defs>
      <g transform="translate(307.859034 462.956562)scale(0.3 -0.3)">
       <use xlink:href="#DejaVuSans-50"/>
       <use x="63.623047" xlink:href="#DejaVuSans-48"/>
      </g>
     </g>
    </g>
    <g id="xtick_5">
     <g id="line2d_5">
      <g>
       <use style="stroke:#000000;stroke-width:0.8;" x="386.128352" xlink:href="#m37606ba140" y="433.16125"/>
      </g>
     </g>
     <g id="text_5">
      <!-- 25 -->
      <g transform="translate(367.040852 462.956562)scale(0.3 -0.3)">
       <use xlink:href="#DejaVuSans-50"/>
       <use x="63.623047" xlink:href="#DejaVuSans-53"/>
      </g>
     </g>
    </g>
    <g id="xtick_6">
     <g id="line2d_6">
      <g>
       <use style="stroke:#000000;stroke-width:0.8;" x="445.31017" xlink:href="#m37606ba140" y="433.16125"/>
      </g>
     </g>
     <g id="text_6">
      <!-- 30 -->
      <defs>
       <path d="M 40.578125 39.3125 
Q 47.65625 37.796875 51.625 33 
Q 55.609375 28.21875 55.609375 21.1875 
Q 55.609375 10.40625 48.1875 4.484375 
Q 40.765625 -1.421875 27.09375 -1.421875 
Q 22.515625 -1.421875 17.65625 -0.515625 
Q 12.796875 0.390625 7.625 2.203125 
L 7.625 11.71875 
Q 11.71875 9.328125 16.59375 8.109375 
Q 21.484375 6.890625 26.8125 6.890625 
Q 36.078125 6.890625 40.9375 10.546875 
Q 45.796875 14.203125 45.796875 21.1875 
Q 45.796875 27.640625 41.28125 31.265625 
Q 36.765625 34.90625 28.71875 34.90625 
L 20.21875 34.90625 
L 20.21875 43.015625 
L 29.109375 43.015625 
Q 36.375 43.015625 40.234375 45.921875 
Q 44.09375 48.828125 44.09375 54.296875 
Q 44.09375 59.90625 40.109375 62.90625 
Q 36.140625 65.921875 28.71875 65.921875 
Q 24.65625 65.921875 20.015625 65.03125 
Q 15.375 64.15625 9.8125 62.3125 
L 9.8125 71.09375 
Q 15.4375 72.65625 20.34375 73.4375 
Q 25.25 74.21875 29.59375 74.21875 
Q 40.828125 74.21875 47.359375 69.109375 
Q 53.90625 64.015625 53.90625 55.328125 
Q 53.90625 49.265625 50.4375 45.09375 
Q 46.96875 40.921875 40.578125 39.3125 
z
" id="DejaVuSans-51"/>
      </defs>
      <g transform="translate(426.22267 462.956562)scale(0.3 -0.3)">
       <use xlink:href="#DejaVuSans-51"/>
       <use x="63.623047" xlink:href="#DejaVuSans-48"/>
      </g>
     </g>
    </g>
    <g id="text_7">
     <!-- RADIUS -->
     <defs>
      <path d="M 7.328125 0 
L 7.328125 71.578125 
L 37.75 71.578125 
Q 49.21875 71.578125 54.421875 69.640625 
Q 59.625 67.71875 62.75 62.78125 
Q 65.875 57.859375 65.875 51.515625 
Q 65.875 43.453125 61.125 38.203125 
Q 56.390625 32.953125 46.96875 31.59375 
Q 51.65625 28.859375 54.703125 25.578125 
Q 57.765625 22.3125 62.9375 13.96875 
L 71.6875 0 
L 54.390625 0 
L 43.953125 15.578125 
Q 38.375 23.921875 36.328125 26.09375 
Q 34.28125 28.265625 31.984375 29.078125 
Q 29.6875 29.890625 24.703125 29.890625 
L 21.78125 29.890625 
L 21.78125 0 
z
M 21.78125 41.3125 
L 32.46875 41.3125 
Q 42.875 41.3125 45.453125 42.1875 
Q 48.046875 43.0625 49.515625 45.203125 
Q 50.984375 47.359375 50.984375 50.59375 
Q 50.984375 54.203125 49.046875 56.421875 
Q 47.125 58.640625 43.609375 59.234375 
Q 41.84375 59.46875 33.0625 59.46875 
L 21.78125 59.46875 
z
" id="Arial-BoldMT-82"/>
      <path d="M 71.828125 0 
L 56.109375 0 
L 49.859375 16.265625 
L 21.234375 16.265625 
L 15.328125 0 
L 0 0 
L 27.875 71.578125 
L 43.171875 71.578125 
z
M 45.21875 28.328125 
L 35.359375 54.890625 
L 25.6875 28.328125 
z
" id="Arial-BoldMT-65"/>
      <path d="M 7.234375 71.578125 
L 33.640625 71.578125 
Q 42.578125 71.578125 47.265625 70.21875 
Q 53.5625 68.359375 58.046875 63.625 
Q 62.546875 58.890625 64.890625 52.03125 
Q 67.234375 45.171875 67.234375 35.109375 
Q 67.234375 26.265625 65.046875 19.875 
Q 62.359375 12.0625 57.375 7.234375 
Q 53.609375 3.5625 47.21875 1.515625 
Q 42.4375 0 34.421875 0 
L 7.234375 0 
z
M 21.6875 59.46875 
L 21.6875 12.0625 
L 32.46875 12.0625 
Q 38.53125 12.0625 41.21875 12.75 
Q 44.734375 13.625 47.046875 15.71875 
Q 49.359375 17.828125 50.828125 22.625 
Q 52.296875 27.4375 52.296875 35.75 
Q 52.296875 44.046875 50.828125 48.484375 
Q 49.359375 52.9375 46.71875 55.421875 
Q 44.09375 57.90625 40.046875 58.796875 
Q 37.015625 59.46875 28.171875 59.46875 
z
" id="Arial-BoldMT-68"/>
      <path d="M 6.84375 0 
L 6.84375 71.578125 
L 21.296875 71.578125 
L 21.296875 0 
z
" id="Arial-BoldMT-73"/>
      <path d="M 7.171875 71.578125 
L 21.625 71.578125 
L 21.625 32.8125 
Q 21.625 23.578125 22.171875 20.84375 
Q 23.09375 16.453125 26.578125 13.796875 
Q 30.078125 11.140625 36.140625 11.140625 
Q 42.28125 11.140625 45.40625 13.640625 
Q 48.53125 16.15625 49.171875 19.8125 
Q 49.8125 23.484375 49.8125 31.984375 
L 49.8125 71.578125 
L 64.265625 71.578125 
L 64.265625 33.984375 
Q 64.265625 21.09375 63.09375 15.765625 
Q 61.921875 10.453125 58.765625 6.78125 
Q 55.609375 3.125 50.328125 0.953125 
Q 45.0625 -1.21875 36.578125 -1.21875 
Q 26.3125 -1.21875 21.015625 1.140625 
Q 15.71875 3.515625 12.640625 7.296875 
Q 9.578125 11.078125 8.59375 15.234375 
Q 7.171875 21.390625 7.171875 33.40625 
z
" id="Arial-BoldMT-85"/>
      <path d="M 3.609375 23.296875 
L 17.671875 24.65625 
Q 18.953125 17.578125 22.828125 14.25 
Q 26.703125 10.9375 33.296875 10.9375 
Q 40.28125 10.9375 43.8125 13.890625 
Q 47.359375 16.84375 47.359375 20.796875 
Q 47.359375 23.34375 45.875 25.125 
Q 44.390625 26.90625 40.671875 28.21875 
Q 38.140625 29.109375 29.109375 31.34375 
Q 17.484375 34.234375 12.796875 38.421875 
Q 6.203125 44.34375 6.203125 52.828125 
Q 6.203125 58.296875 9.296875 63.0625 
Q 12.40625 67.828125 18.234375 70.3125 
Q 24.078125 72.796875 32.328125 72.796875 
Q 45.796875 72.796875 52.609375 66.890625 
Q 59.421875 60.984375 59.765625 51.125 
L 45.3125 50.484375 
Q 44.390625 56 41.328125 58.421875 
Q 38.28125 60.84375 32.171875 60.84375 
Q 25.875 60.84375 22.3125 58.25 
Q 20.015625 56.59375 20.015625 53.8125 
Q 20.015625 51.265625 22.171875 49.46875 
Q 24.90625 47.171875 35.453125 44.671875 
Q 46 42.1875 51.046875 39.515625 
Q 56.109375 36.859375 58.953125 32.25 
Q 61.8125 27.640625 61.8125 20.84375 
Q 61.8125 14.703125 58.390625 9.328125 
Q 54.984375 3.953125 48.734375 1.34375 
Q 42.484375 -1.265625 33.15625 -1.265625 
Q 19.578125 -1.265625 12.296875 5 
Q 5.03125 11.28125 3.609375 23.296875 
z
" id="Arial-BoldMT-83"/>
     </defs>
     <g transform="translate(259.019688 493.51125)scale(0.2 -0.2)">
      <use xlink:href="#Arial-BoldMT-82"/>
      <use x="72.216797" xlink:href="#Arial-BoldMT-65"/>
      <use x="144.433594" xlink:href="#Arial-BoldMT-68"/>
      <use x="216.650391" xlink:href="#Arial-BoldMT-73"/>
      <use x="244.433594" xlink:href="#Arial-BoldMT-85"/>
      <use x="316.650391" xlink:href="#Arial-BoldMT-83"/>
     </g>
    </g>
   </g>
   <g id="matplotlib.axis_2">
    <g id="ytick_1">
     <g id="line2d_7">
      <defs>
       <path d="M 0 0 
L -3.5 0 
" id="me893c48020" style="stroke:#000000;stroke-width:0.8;"/>
      </defs>
      <g>
       <use style="stroke:#000000;stroke-width:0.8;" x="102.055625" xlink:href="#me893c48020" y="433.16125"/>
      </g>
     </g>
     <g id="text_8">
      <!-- 0 -->
      <g transform="translate(75.968125 444.558906)scale(0.3 -0.3)">
       <use xlink:href="#DejaVuSans-48"/>
      </g>
     </g>
    </g>
    <g id="ytick_2">
     <g id="line2d_8">
      <g>
       <use style="stroke:#000000;stroke-width:0.8;" x="102.055625" xlink:href="#me893c48020" y="386.699712"/>
      </g>
     </g>
     <g id="text_9">
      <!-- 10 -->
      <g transform="translate(56.880625 398.097368)scale(0.3 -0.3)">
       <use xlink:href="#DejaVuSans-49"/>
       <use x="63.623047" xlink:href="#DejaVuSans-48"/>
      </g>
     </g>
    </g>
    <g id="ytick_3">
     <g id="line2d_9">
      <g>
       <use style="stroke:#000000;stroke-width:0.8;" x="102.055625" xlink:href="#me893c48020" y="340.238173"/>
      </g>
     </g>
     <g id="text_10">
      <!-- 20 -->
      <g transform="translate(56.880625 351.635829)scale(0.3 -0.3)">
       <use xlink:href="#DejaVuSans-50"/>
       <use x="63.623047" xlink:href="#DejaVuSans-48"/>
      </g>
     </g>
    </g>
    <g id="ytick_4">
     <g id="line2d_10">
      <g>
       <use style="stroke:#000000;stroke-width:0.8;" x="102.055625" xlink:href="#me893c48020" y="293.776635"/>
      </g>
     </g>
     <g id="text_11">
      <!-- 30 -->
      <g transform="translate(56.880625 305.174291)scale(0.3 -0.3)">
       <use xlink:href="#DejaVuSans-51"/>
       <use x="63.623047" xlink:href="#DejaVuSans-48"/>
      </g>
     </g>
    </g>
    <g id="ytick_5">
     <g id="line2d_11">
      <g>
       <use style="stroke:#000000;stroke-width:0.8;" x="102.055625" xlink:href="#me893c48020" y="247.315096"/>
      </g>
     </g>
     <g id="text_12">
      <!-- 40 -->
      <defs>
       <path d="M 37.796875 64.3125 
L 12.890625 25.390625 
L 37.796875 25.390625 
z
M 35.203125 72.90625 
L 47.609375 72.90625 
L 47.609375 25.390625 
L 58.015625 25.390625 
L 58.015625 17.1875 
L 47.609375 17.1875 
L 47.609375 0 
L 37.796875 0 
L 37.796875 17.1875 
L 4.890625 17.1875 
L 4.890625 26.703125 
z
" id="DejaVuSans-52"/>
      </defs>
      <g transform="translate(56.880625 258.712752)scale(0.3 -0.3)">
       <use xlink:href="#DejaVuSans-52"/>
       <use x="63.623047" xlink:href="#DejaVuSans-48"/>
      </g>
     </g>
    </g>
    <g id="ytick_6">
     <g id="line2d_12">
      <g>
       <use style="stroke:#000000;stroke-width:0.8;" x="102.055625" xlink:href="#me893c48020" y="200.853558"/>
      </g>
     </g>
     <g id="text_13">
      <!-- 50 -->
      <g transform="translate(56.880625 212.251214)scale(0.3 -0.3)">
       <use xlink:href="#DejaVuSans-53"/>
       <use x="63.623047" xlink:href="#DejaVuSans-48"/>
      </g>
     </g>
    </g>
    <g id="ytick_7">
     <g id="line2d_13">
      <g>
       <use style="stroke:#000000;stroke-width:0.8;" x="102.055625" xlink:href="#me893c48020" y="154.392019"/>
      </g>
     </g>
     <g id="text_14">
      <!-- 60 -->
      <defs>
       <path d="M 33.015625 40.375 
Q 26.375 40.375 22.484375 35.828125 
Q 18.609375 31.296875 18.609375 23.390625 
Q 18.609375 15.53125 22.484375 10.953125 
Q 26.375 6.390625 33.015625 6.390625 
Q 39.65625 6.390625 43.53125 10.953125 
Q 47.40625 15.53125 47.40625 23.390625 
Q 47.40625 31.296875 43.53125 35.828125 
Q 39.65625 40.375 33.015625 40.375 
z
M 52.59375 71.296875 
L 52.59375 62.3125 
Q 48.875 64.0625 45.09375 64.984375 
Q 41.3125 65.921875 37.59375 65.921875 
Q 27.828125 65.921875 22.671875 59.328125 
Q 17.53125 52.734375 16.796875 39.40625 
Q 19.671875 43.65625 24.015625 45.921875 
Q 28.375 48.1875 33.59375 48.1875 
Q 44.578125 48.1875 50.953125 41.515625 
Q 57.328125 34.859375 57.328125 23.390625 
Q 57.328125 12.15625 50.6875 5.359375 
Q 44.046875 -1.421875 33.015625 -1.421875 
Q 20.359375 -1.421875 13.671875 8.265625 
Q 6.984375 17.96875 6.984375 36.375 
Q 6.984375 53.65625 15.1875 63.9375 
Q 23.390625 74.21875 37.203125 74.21875 
Q 40.921875 74.21875 44.703125 73.484375 
Q 48.484375 72.75 52.59375 71.296875 
z
" id="DejaVuSans-54"/>
      </defs>
      <g transform="translate(56.880625 165.789675)scale(0.3 -0.3)">
       <use xlink:href="#DejaVuSans-54"/>
       <use x="63.623047" xlink:href="#DejaVuSans-48"/>
      </g>
     </g>
    </g>
    <g id="ytick_8">
     <g id="line2d_14">
      <g>
       <use style="stroke:#000000;stroke-width:0.8;" x="102.055625" xlink:href="#me893c48020" y="107.930481"/>
      </g>
     </g>
     <g id="text_15">
      <!-- 70 -->
      <defs>
       <path d="M 8.203125 72.90625 
L 55.078125 72.90625 
L 55.078125 68.703125 
L 28.609375 0 
L 18.3125 0 
L 43.21875 64.59375 
L 8.203125 64.59375 
z
" id="DejaVuSans-55"/>
      </defs>
      <g transform="translate(56.880625 119.328137)scale(0.3 -0.3)">
       <use xlink:href="#DejaVuSans-55"/>
       <use x="63.623047" xlink:href="#DejaVuSans-48"/>
      </g>
     </g>
    </g>
    <g id="ytick_9">
     <g id="line2d_15">
      <g>
       <use style="stroke:#000000;stroke-width:0.8;" x="102.055625" xlink:href="#me893c48020" y="61.468942"/>
      </g>
     </g>
     <g id="text_16">
      <!-- 80 -->
      <defs>
       <path d="M 31.78125 34.625 
Q 24.75 34.625 20.71875 30.859375 
Q 16.703125 27.09375 16.703125 20.515625 
Q 16.703125 13.921875 20.71875 10.15625 
Q 24.75 6.390625 31.78125 6.390625 
Q 38.8125 6.390625 42.859375 10.171875 
Q 46.921875 13.96875 46.921875 20.515625 
Q 46.921875 27.09375 42.890625 30.859375 
Q 38.875 34.625 31.78125 34.625 
z
M 21.921875 38.8125 
Q 15.578125 40.375 12.03125 44.71875 
Q 8.5 49.078125 8.5 55.328125 
Q 8.5 64.0625 14.71875 69.140625 
Q 20.953125 74.21875 31.78125 74.21875 
Q 42.671875 74.21875 48.875 69.140625 
Q 55.078125 64.0625 55.078125 55.328125 
Q 55.078125 49.078125 51.53125 44.71875 
Q 48 40.375 41.703125 38.8125 
Q 48.828125 37.15625 52.796875 32.3125 
Q 56.78125 27.484375 56.78125 20.515625 
Q 56.78125 9.90625 50.3125 4.234375 
Q 43.84375 -1.421875 31.78125 -1.421875 
Q 19.734375 -1.421875 13.25 4.234375 
Q 6.78125 9.90625 6.78125 20.515625 
Q 6.78125 27.484375 10.78125 32.3125 
Q 14.796875 37.15625 21.921875 38.8125 
z
M 18.3125 54.390625 
Q 18.3125 48.734375 21.84375 45.5625 
Q 25.390625 42.390625 31.78125 42.390625 
Q 38.140625 42.390625 41.71875 45.5625 
Q 45.3125 48.734375 45.3125 54.390625 
Q 45.3125 60.0625 41.71875 63.234375 
Q 38.140625 66.40625 31.78125 66.40625 
Q 25.390625 66.40625 21.84375 63.234375 
Q 18.3125 60.0625 18.3125 54.390625 
z
" id="DejaVuSans-56"/>
      </defs>
      <g transform="translate(56.880625 72.866599)scale(0.3 -0.3)">
       <use xlink:href="#DejaVuSans-56"/>
       <use x="63.623047" xlink:href="#DejaVuSans-48"/>
      </g>
     </g>
    </g>
    <g id="text_17">
     <!-- HEALTHY -->
     <defs>
      <path d="M 7.328125 0 
L 7.328125 71.578125 
L 21.78125 71.578125 
L 21.78125 43.40625 
L 50.09375 43.40625 
L 50.09375 71.578125 
L 64.546875 71.578125 
L 64.546875 0 
L 50.09375 0 
L 50.09375 31.296875 
L 21.78125 31.296875 
L 21.78125 0 
z
" id="Arial-BoldMT-72"/>
      <path d="M 7.28125 0 
L 7.28125 71.578125 
L 60.359375 71.578125 
L 60.359375 59.46875 
L 21.734375 59.46875 
L 21.734375 43.609375 
L 57.671875 43.609375 
L 57.671875 31.546875 
L 21.734375 31.546875 
L 21.734375 12.0625 
L 61.71875 12.0625 
L 61.71875 0 
z
" id="Arial-BoldMT-69"/>
      <path d="M 7.671875 0 
L 7.671875 71 
L 22.125 71 
L 22.125 12.0625 
L 58.0625 12.0625 
L 58.0625 0 
z
" id="Arial-BoldMT-76"/>
      <path d="M 23.390625 0 
L 23.390625 59.46875 
L 2.15625 59.46875 
L 2.15625 71.578125 
L 59.03125 71.578125 
L 59.03125 59.46875 
L 37.84375 59.46875 
L 37.84375 0 
z
" id="Arial-BoldMT-84"/>
      <path d="M 26.078125 0 
L 26.078125 30.125 
L -0.140625 71.578125 
L 16.796875 71.578125 
L 33.640625 43.265625 
L 50.140625 71.578125 
L 66.796875 71.578125 
L 40.484375 30.03125 
L 40.484375 0 
z
" id="Arial-BoldMT-89"/>
     </defs>
     <g transform="translate(21.253125 290.112187)rotate(-90)scale(0.2 -0.2)">
      <use xlink:href="#Arial-BoldMT-72"/>
      <use x="72.216797" xlink:href="#Arial-BoldMT-69"/>
      <use x="138.916016" xlink:href="#Arial-BoldMT-65"/>
      <use x="211.132812" xlink:href="#Arial-BoldMT-76"/>
      <use x="272.107422" xlink:href="#Arial-BoldMT-84"/>
      <use x="333.191406" xlink:href="#Arial-BoldMT-72"/>
      <use x="405.408203" xlink:href="#Arial-BoldMT-89"/>
     </g>
     <!-- CELL COUNTS (NUMBERS) -->
     <defs>
      <path d="M 53.078125 26.3125 
L 67.09375 21.875 
Q 63.875 10.15625 56.375 4.46875 
Q 48.875 -1.21875 37.359375 -1.21875 
Q 23.09375 -1.21875 13.90625 8.515625 
Q 4.734375 18.265625 4.734375 35.15625 
Q 4.734375 53.03125 13.953125 62.90625 
Q 23.1875 72.796875 38.234375 72.796875 
Q 51.375 72.796875 59.578125 65.046875 
Q 64.453125 60.453125 66.890625 51.859375 
L 52.59375 48.4375 
Q 51.3125 54 47.28125 57.21875 
Q 43.265625 60.453125 37.5 60.453125 
Q 29.546875 60.453125 24.578125 54.734375 
Q 19.625 49.03125 19.625 36.234375 
Q 19.625 22.65625 24.5 16.890625 
Q 29.390625 11.140625 37.203125 11.140625 
Q 42.96875 11.140625 47.109375 14.796875 
Q 51.265625 18.453125 53.078125 26.3125 
z
" id="Arial-BoldMT-67"/>
      <path id="Arial-BoldMT-32"/>
      <path d="M 4.34375 35.359375 
Q 4.34375 46.296875 7.625 53.71875 
Q 10.0625 59.1875 14.28125 63.53125 
Q 18.5 67.875 23.53125 69.96875 
Q 30.21875 72.796875 38.96875 72.796875 
Q 54.78125 72.796875 64.28125 62.984375 
Q 73.78125 53.171875 73.78125 35.6875 
Q 73.78125 18.359375 64.359375 8.5625 
Q 54.9375 -1.21875 39.15625 -1.21875 
Q 23.1875 -1.21875 13.765625 8.515625 
Q 4.34375 18.265625 4.34375 35.359375 
z
M 19.234375 35.84375 
Q 19.234375 23.6875 24.84375 17.40625 
Q 30.46875 11.140625 39.109375 11.140625 
Q 47.75 11.140625 53.296875 17.359375 
Q 58.84375 23.578125 58.84375 36.03125 
Q 58.84375 48.34375 53.4375 54.390625 
Q 48.046875 60.453125 39.109375 60.453125 
Q 30.171875 60.453125 24.703125 54.3125 
Q 19.234375 48.1875 19.234375 35.84375 
z
" id="Arial-BoldMT-79"/>
      <path d="M 7.421875 0 
L 7.421875 71.578125 
L 21.484375 71.578125 
L 50.78125 23.78125 
L 50.78125 71.578125 
L 64.203125 71.578125 
L 64.203125 0 
L 49.703125 0 
L 20.84375 46.6875 
L 20.84375 0 
z
" id="Arial-BoldMT-78"/>
      <path d="M 29.9375 -21.046875 
L 20.515625 -21.046875 
Q 13.03125 -9.765625 9.125 2.390625 
Q 5.21875 14.546875 5.21875 25.921875 
Q 5.21875 40.046875 10.0625 52.640625 
Q 14.265625 63.578125 20.703125 72.796875 
L 30.078125 72.796875 
Q 23.390625 58.015625 20.875 47.625 
Q 18.359375 37.25 18.359375 25.640625 
Q 18.359375 17.625 19.84375 9.21875 
Q 21.34375 0.828125 23.921875 -6.734375 
Q 25.640625 -11.71875 29.9375 -21.046875 
z
" id="Arial-BoldMT-40"/>
      <path d="M 7.078125 0 
L 7.078125 71.578125 
L 28.71875 71.578125 
L 41.703125 22.75 
L 54.546875 71.578125 
L 76.21875 71.578125 
L 76.21875 0 
L 62.796875 0 
L 62.796875 56.34375 
L 48.578125 0 
L 34.671875 0 
L 20.515625 56.34375 
L 20.515625 0 
z
" id="Arial-BoldMT-77"/>
      <path d="M 7.328125 71.578125 
L 35.9375 71.578125 
Q 44.4375 71.578125 48.609375 70.875 
Q 52.78125 70.171875 56.078125 67.921875 
Q 59.375 65.671875 61.5625 61.9375 
Q 63.765625 58.203125 63.765625 53.5625 
Q 63.765625 48.53125 61.046875 44.328125 
Q 58.34375 40.140625 53.71875 38.03125 
Q 60.25 36.140625 63.765625 31.546875 
Q 67.28125 26.953125 67.28125 20.75 
Q 67.28125 15.875 65.015625 11.25 
Q 62.75 6.640625 58.8125 3.875 
Q 54.890625 1.125 49.125 0.484375 
Q 45.515625 0.09375 31.6875 0 
L 7.328125 0 
z
M 21.78125 59.671875 
L 21.78125 43.109375 
L 31.25 43.109375 
Q 39.703125 43.109375 41.75 43.359375 
Q 45.453125 43.796875 47.578125 45.921875 
Q 49.703125 48.046875 49.703125 51.515625 
Q 49.703125 54.828125 47.875 56.90625 
Q 46.046875 58.984375 42.4375 59.421875 
Q 40.28125 59.671875 30.078125 59.671875 
z
M 21.78125 31.203125 
L 21.78125 12.0625 
L 35.15625 12.0625 
Q 42.96875 12.0625 45.0625 12.5 
Q 48.296875 13.09375 50.3125 15.359375 
Q 52.34375 17.625 52.34375 21.4375 
Q 52.34375 24.65625 50.78125 26.90625 
Q 49.21875 29.15625 46.265625 30.171875 
Q 43.3125 31.203125 33.453125 31.203125 
z
" id="Arial-BoldMT-66"/>
      <path d="M 3.375 -21.046875 
Q 7.421875 -12.359375 9.078125 -7.71875 
Q 10.75 -3.078125 12.15625 2.96875 
Q 13.578125 9.03125 14.25 14.46875 
Q 14.9375 19.921875 14.9375 25.640625 
Q 14.9375 37.25 12.453125 47.625 
Q 9.96875 58.015625 3.265625 72.796875 
L 12.59375 72.796875 
Q 19.96875 62.3125 24.046875 50.53125 
Q 28.125 38.765625 28.125 26.65625 
Q 28.125 16.453125 24.90625 4.78125 
Q 21.234375 -8.296875 12.84375 -21.046875 
z
" id="Arial-BoldMT-41"/>
     </defs>
     <g transform="translate(42.67125 374.002812)rotate(-90)scale(0.2 -0.2)">
      <use xlink:href="#Arial-BoldMT-67"/>
      <use x="72.216797" xlink:href="#Arial-BoldMT-69"/>
      <use x="138.916016" xlink:href="#Arial-BoldMT-76"/>
      <use x="200" xlink:href="#Arial-BoldMT-76"/>
      <use x="261.068359" xlink:href="#Arial-BoldMT-32"/>
      <use x="288.851562" xlink:href="#Arial-BoldMT-67"/>
      <use x="361.068359" xlink:href="#Arial-BoldMT-79"/>
      <use x="438.851562" xlink:href="#Arial-BoldMT-85"/>
      <use x="511.068359" xlink:href="#Arial-BoldMT-78"/>
      <use x="583.285156" xlink:href="#Arial-BoldMT-84"/>
      <use x="644.369141" xlink:href="#Arial-BoldMT-83"/>
      <use x="711.068359" xlink:href="#Arial-BoldMT-32"/>
      <use x="738.851562" xlink:href="#Arial-BoldMT-40"/>
      <use x="772.152344" xlink:href="#Arial-BoldMT-78"/>
      <use x="844.369141" xlink:href="#Arial-BoldMT-85"/>
      <use x="916.585938" xlink:href="#Arial-BoldMT-77"/>
      <use x="999.886719" xlink:href="#Arial-BoldMT-66"/>
      <use x="1072.103516" xlink:href="#Arial-BoldMT-69"/>
      <use x="1138.802734" xlink:href="#Arial-BoldMT-82"/>
      <use x="1211.019531" xlink:href="#Arial-BoldMT-83"/>
      <use x="1277.71875" xlink:href="#Arial-BoldMT-41"/>
     </g>
    </g>
   </g>
   <g id="line2d_16">
    <path clip-path="url(#pc823b30924)" d="M 102.055625 428.515096 
L 113.891989 419.222788 
L 125.728352 409.930481 
L 137.564716 409.930481 
L 149.40108 409.930481 
L 161.237443 395.992019 
L 173.073807 382.053558 
L 184.91017 372.76125 
L 196.746534 372.76125 
L 208.582898 354.176635 
L 220.419261 335.592019 
L 232.255625 317.007404 
L 244.091989 326.299712 
L 255.928352 307.715096 
L 267.764716 293.776635 
L 279.60108 326.299712 
L 291.437443 261.253558 
L 303.273807 279.838173 
L 315.11017 270.545865 
L 326.946534 247.315096 
L 338.782898 242.668942 
L 350.619261 256.607404 
L 362.455625 200.853558 
L 374.291989 200.853558 
L 386.128352 214.792019 
L 397.964716 177.622788 
L 409.80108 163.684327 
L 421.637443 205.499712 
L 433.473807 256.607404 
L 445.31017 186.915096 
L 457.146534 163.684327 
L 468.982898 154.392019 
L 480.819261 80.053558 
L 492.655625 163.684327 
" style="fill:none;stroke:#08306b;stroke-linecap:square;stroke-width:1.5;"/>
   </g>
   <g id="line2d_17">
    <path clip-path="url(#pc823b30924)" d="M 102.055625 433.16125 
L 113.891989 428.515096 
L 125.728352 414.576635 
L 137.564716 428.515096 
L 149.40108 400.638173 
L 161.237443 382.053558 
L 173.073807 372.76125 
L 184.91017 368.115096 
L 196.746534 349.530481 
L 208.582898 349.530481 
L 220.419261 344.884327 
L 232.255625 326.299712 
L 244.091989 330.945865 
L 255.928352 298.422788 
L 267.764716 298.422788 
L 279.60108 317.007404 
L 291.437443 275.192019 
L 303.273807 247.315096 
L 315.11017 251.96125 
L 326.946534 247.315096 
L 338.782898 238.022788 
L 350.619261 233.376635 
L 362.455625 224.084327 
L 374.291989 214.792019 
L 386.128352 205.499712 
L 397.964716 224.084327 
L 409.80108 214.792019 
L 421.637443 182.268942 
L 433.473807 186.915096 
L 445.31017 93.992019 
L 457.146534 84.699712 
L 468.982898 70.76125 
L 480.819261 154.392019 
L 492.655625 182.268942 
" style="fill:none;stroke:#08306b;stroke-linecap:square;stroke-width:1.5;"/>
   </g>
   <g id="line2d_18">
    <path clip-path="url(#pc823b30924)" d="M 102.055625 428.515096 
L 113.891989 419.222788 
L 125.728352 419.222788 
L 137.564716 423.868942 
L 149.40108 395.992019 
L 161.237443 377.407404 
L 173.073807 368.115096 
L 184.91017 335.592019 
L 196.746534 368.115096 
L 208.582898 335.592019 
L 220.419261 335.592019 
L 232.255625 330.945865 
L 244.091989 330.945865 
L 255.928352 344.884327 
L 267.764716 340.238173 
L 279.60108 261.253558 
L 291.437443 293.776635 
L 303.273807 228.730481 
L 315.11017 247.315096 
L 326.946534 275.192019 
L 338.782898 247.315096 
L 350.619261 196.207404 
L 362.455625 214.792019 
L 374.291989 242.668942 
L 386.128352 233.376635 
L 397.964716 182.268942 
L 409.80108 219.438173 
L 421.637443 182.268942 
L 433.473807 191.56125 
L 445.31017 126.515096 
L 457.146534 182.268942 
L 468.982898 163.684327 
L 480.819261 135.807404 
L 492.655625 145.099712 
" style="fill:none;stroke:#08306b;stroke-linecap:square;stroke-width:1.5;"/>
   </g>
   <g id="line2d_19">
    <path clip-path="url(#pc823b30924)" d="M 102.055625 433.16125 
L 113.891989 423.868942 
L 125.728352 419.222788 
L 137.564716 400.638173 
L 149.40108 391.345865 
L 161.237443 386.699712 
L 173.073807 368.115096 
L 184.91017 382.053558 
L 196.746534 377.407404 
L 208.582898 317.007404 
L 220.419261 321.653558 
L 232.255625 321.653558 
L 244.091989 312.36125 
L 255.928352 307.715096 
L 267.764716 321.653558 
L 279.60108 298.422788 
L 291.437443 312.36125 
L 303.273807 284.484327 
L 315.11017 289.130481 
L 326.946534 228.730481 
L 338.782898 247.315096 
L 350.619261 242.668942 
L 362.455625 210.145865 
L 374.291989 233.376635 
L 386.128352 251.96125 
L 397.964716 191.56125 
L 409.80108 247.315096 
L 421.637443 186.915096 
L 433.473807 131.16125 
L 445.31017 191.56125 
L 457.146534 126.515096 
L 468.982898 75.407404 
L 480.819261 107.930481 
L 492.655625 107.930481 
" style="fill:none;stroke:#08306b;stroke-linecap:square;stroke-width:1.5;"/>
   </g>
   <g id="line2d_20">
    <path clip-path="url(#pc823b30924)" d="M 102.055625 433.16125 
L 113.891989 419.222788 
L 125.728352 419.222788 
L 137.564716 409.930481 
L 149.40108 386.699712 
L 161.237443 382.053558 
L 173.073807 382.053558 
L 184.91017 358.822788 
L 196.746534 368.115096 
L 208.582898 349.530481 
L 220.419261 354.176635 
L 232.255625 335.592019 
L 244.091989 312.36125 
L 255.928352 307.715096 
L 267.764716 275.192019 
L 279.60108 293.776635 
L 291.437443 298.422788 
L 303.273807 275.192019 
L 315.11017 270.545865 
L 326.946534 270.545865 
L 338.782898 284.484327 
L 350.619261 256.607404 
L 362.455625 191.56125 
L 374.291989 214.792019 
L 386.128352 145.099712 
L 397.964716 163.684327 
L 409.80108 200.853558 
L 421.637443 117.222788 
L 433.473807 191.56125 
L 445.31017 135.807404 
L 457.146534 177.622788 
L 468.982898 117.222788 
L 480.819261 149.745865 
L 492.655625 186.915096 
" style="fill:none;stroke:#08306b;stroke-linecap:square;stroke-width:1.5;"/>
   </g>
   <g id="line2d_21">
    <path clip-path="url(#pc823b30924)" d="M 102.055625 433.16125 
L 113.891989 423.868942 
L 125.728352 428.515096 
L 137.564716 428.515096 
L 149.40108 391.345865 
L 161.237443 409.930481 
L 173.073807 400.638173 
L 184.91017 377.407404 
L 196.746534 354.176635 
L 208.582898 340.238173 
L 220.419261 317.007404 
L 232.255625 335.592019 
L 244.091989 279.838173 
L 255.928352 298.422788 
L 267.764716 279.838173 
L 279.60108 270.545865 
L 291.437443 307.715096 
L 303.273807 298.422788 
L 315.11017 275.192019 
L 326.946534 238.022788 
L 338.782898 256.607404 
L 350.619261 224.084327 
L 362.455625 238.022788 
L 374.291989 168.330481 
L 386.128352 247.315096 
L 397.964716 205.499712 
L 409.80108 200.853558 
L 421.637443 191.56125 
L 433.473807 168.330481 
L 445.31017 145.099712 
L 457.146534 159.038173 
L 468.982898 145.099712 
L 480.819261 131.16125 
L 492.655625 191.56125 
" style="fill:none;stroke:#08306b;stroke-linecap:square;stroke-width:1.5;"/>
   </g>
   <g id="line2d_22">
    <path clip-path="url(#pc823b30924)" d="M 102.055625 433.16125 
L 113.891989 423.868942 
L 125.728352 405.284327 
L 137.564716 405.284327 
L 149.40108 405.284327 
L 161.237443 395.992019 
L 173.073807 391.345865 
L 184.91017 372.76125 
L 196.746534 330.945865 
L 208.582898 377.407404 
L 220.419261 349.530481 
L 232.255625 326.299712 
L 244.091989 363.468942 
L 255.928352 317.007404 
L 267.764716 307.715096 
L 279.60108 270.545865 
L 291.437443 275.192019 
L 303.273807 247.315096 
L 315.11017 242.668942 
L 326.946534 279.838173 
L 338.782898 205.499712 
L 350.619261 242.668942 
L 362.455625 182.268942 
L 374.291989 238.022788 
L 386.128352 205.499712 
L 397.964716 186.915096 
L 409.80108 219.438173 
L 421.637443 172.976635 
L 433.473807 182.268942 
L 445.31017 191.56125 
L 457.146534 140.453558 
L 468.982898 103.284327 
L 480.819261 196.207404 
L 492.655625 159.038173 
" style="fill:none;stroke:#08306b;stroke-linecap:square;stroke-width:1.5;"/>
   </g>
   <g id="line2d_23">
    <path clip-path="url(#pc823b30924)" d="M 102.055625 433.16125 
L 113.891989 414.576635 
L 125.728352 409.930481 
L 137.564716 391.345865 
L 149.40108 391.345865 
L 161.237443 377.407404 
L 173.073807 358.822788 
L 184.91017 372.76125 
L 196.746534 368.115096 
L 208.582898 354.176635 
L 220.419261 330.945865 
L 232.255625 354.176635 
L 244.091989 321.653558 
L 255.928352 289.130481 
L 267.764716 289.130481 
L 279.60108 303.068942 
L 291.437443 289.130481 
L 303.273807 270.545865 
L 315.11017 247.315096 
L 326.946534 265.899712 
L 338.782898 219.438173 
L 350.619261 284.484327 
L 362.455625 191.56125 
L 374.291989 228.730481 
L 386.128352 214.792019 
L 397.964716 163.684327 
L 409.80108 186.915096 
L 421.637443 191.56125 
L 433.473807 186.915096 
L 445.31017 196.207404 
L 457.146534 210.145865 
L 468.982898 107.930481 
L 480.819261 103.284327 
L 492.655625 121.868942 
" style="fill:none;stroke:#08306b;stroke-linecap:square;stroke-width:1.5;"/>
   </g>
   <g id="line2d_24">
    <path clip-path="url(#pc823b30924)" d="M 102.055625 428.515096 
L 113.891989 423.868942 
L 125.728352 419.222788 
L 137.564716 409.930481 
L 149.40108 391.345865 
L 161.237443 405.284327 
L 173.073807 395.992019 
L 184.91017 386.699712 
L 196.746534 358.822788 
L 208.582898 321.653558 
L 220.419261 363.468942 
L 232.255625 335.592019 
L 244.091989 335.592019 
L 255.928352 317.007404 
L 267.764716 335.592019 
L 279.60108 256.607404 
L 291.437443 284.484327 
L 303.273807 279.838173 
L 315.11017 265.899712 
L 326.946534 293.776635 
L 338.782898 261.253558 
L 350.619261 256.607404 
L 362.455625 214.792019 
L 374.291989 191.56125 
L 386.128352 210.145865 
L 397.964716 177.622788 
L 409.80108 163.684327 
L 421.637443 154.392019 
L 433.473807 168.330481 
L 445.31017 135.807404 
L 457.146534 117.222788 
L 468.982898 117.222788 
L 480.819261 121.868942 
L 492.655625 168.330481 
" style="fill:none;stroke:#08306b;stroke-linecap:square;stroke-width:1.5;"/>
   </g>
   <g id="line2d_25">
    <path clip-path="url(#pc823b30924)" d="M 102.055625 433.16125 
L 113.891989 423.868942 
L 125.728352 414.576635 
L 137.564716 414.576635 
L 149.40108 419.222788 
L 161.237443 377.407404 
L 173.073807 344.884327 
L 184.91017 372.76125 
L 196.746534 326.299712 
L 208.582898 354.176635 
L 220.419261 344.884327 
L 232.255625 303.068942 
L 244.091989 307.715096 
L 255.928352 303.068942 
L 267.764716 317.007404 
L 279.60108 312.36125 
L 291.437443 293.776635 
L 303.273807 275.192019 
L 315.11017 256.607404 
L 326.946534 251.96125 
L 338.782898 242.668942 
L 350.619261 233.376635 
L 362.455625 210.145865 
L 374.291989 228.730481 
L 386.128352 228.730481 
L 397.964716 186.915096 
L 409.80108 191.56125 
L 421.637443 214.792019 
L 433.473807 121.868942 
L 445.31017 154.392019 
L 457.146534 112.576635 
L 468.982898 126.515096 
L 480.819261 98.638173 
L 492.655625 200.853558 
" style="fill:none;stroke:#08306b;stroke-linecap:square;stroke-width:1.5;"/>
   </g>
   <g id="line2d_26">
    <path clip-path="url(#pc823b30924)" d="M 102.055625 428.515096 
L 113.891989 423.868942 
L 125.728352 414.576635 
L 137.564716 405.284327 
L 149.40108 419.222788 
L 161.237443 395.992019 
L 173.073807 382.053558 
L 184.91017 377.407404 
L 196.746534 377.407404 
L 208.582898 363.468942 
L 220.419261 349.530481 
L 232.255625 321.653558 
L 244.091989 340.238173 
L 255.928352 326.299712 
L 267.764716 298.422788 
L 279.60108 344.884327 
L 291.437443 298.422788 
L 303.273807 293.776635 
L 315.11017 303.068942 
L 326.946534 279.838173 
L 338.782898 247.315096 
L 350.619261 270.545865 
L 362.455625 238.022788 
L 374.291989 219.438173 
L 386.128352 247.315096 
L 397.964716 205.499712 
L 409.80108 182.268942 
L 421.637443 214.792019 
L 433.473807 284.484327 
L 445.31017 196.207404 
L 457.146534 205.499712 
L 468.982898 196.207404 
L 480.819261 103.284327 
L 492.655625 191.56125 
" style="fill:none;stroke:#4a98c9;stroke-linecap:square;stroke-width:1.5;"/>
   </g>
   <g id="line2d_27">
    <path clip-path="url(#pc823b30924)" d="M 102.055625 433.16125 
L 113.891989 428.515096 
L 125.728352 423.868942 
L 137.564716 428.515096 
L 149.40108 405.284327 
L 161.237443 382.053558 
L 173.073807 372.76125 
L 184.91017 377.407404 
L 196.746534 340.238173 
L 208.582898 358.822788 
L 220.419261 363.468942 
L 232.255625 354.176635 
L 244.091989 349.530481 
L 255.928352 303.068942 
L 267.764716 326.299712 
L 279.60108 344.884327 
L 291.437443 270.545865 
L 303.273807 279.838173 
L 315.11017 284.484327 
L 326.946534 298.422788 
L 338.782898 242.668942 
L 350.619261 261.253558 
L 362.455625 251.96125 
L 374.291989 256.607404 
L 386.128352 219.438173 
L 397.964716 261.253558 
L 409.80108 228.730481 
L 421.637443 233.376635 
L 433.473807 224.084327 
L 445.31017 154.392019 
L 457.146534 149.745865 
L 468.982898 140.453558 
L 480.819261 159.038173 
L 492.655625 200.853558 
" style="fill:none;stroke:#4a98c9;stroke-linecap:square;stroke-width:1.5;"/>
   </g>
   <g id="line2d_28">
    <path clip-path="url(#pc823b30924)" d="M 102.055625 428.515096 
L 113.891989 419.222788 
L 125.728352 414.576635 
L 137.564716 423.868942 
L 149.40108 395.992019 
L 161.237443 386.699712 
L 173.073807 372.76125 
L 184.91017 377.407404 
L 196.746534 382.053558 
L 208.582898 349.530481 
L 220.419261 354.176635 
L 232.255625 330.945865 
L 244.091989 354.176635 
L 255.928352 344.884327 
L 267.764716 354.176635 
L 279.60108 279.838173 
L 291.437443 293.776635 
L 303.273807 242.668942 
L 315.11017 256.607404 
L 326.946534 279.838173 
L 338.782898 265.899712 
L 350.619261 219.438173 
L 362.455625 251.96125 
L 374.291989 279.838173 
L 386.128352 265.899712 
L 397.964716 224.084327 
L 409.80108 261.253558 
L 421.637443 210.145865 
L 433.473807 196.207404 
L 445.31017 159.038173 
L 457.146534 200.853558 
L 468.982898 200.853558 
L 480.819261 186.915096 
L 492.655625 159.038173 
" style="fill:none;stroke:#4a98c9;stroke-linecap:square;stroke-width:1.5;"/>
   </g>
   <g id="line2d_29">
    <path clip-path="url(#pc823b30924)" d="M 102.055625 433.16125 
L 113.891989 423.868942 
L 125.728352 419.222788 
L 137.564716 400.638173 
L 149.40108 409.930481 
L 161.237443 391.345865 
L 173.073807 372.76125 
L 184.91017 382.053558 
L 196.746534 382.053558 
L 208.582898 321.653558 
L 220.419261 321.653558 
L 232.255625 330.945865 
L 244.091989 330.945865 
L 255.928352 330.945865 
L 267.764716 340.238173 
L 279.60108 289.130481 
L 291.437443 340.238173 
L 303.273807 330.945865 
L 315.11017 289.130481 
L 326.946534 238.022788 
L 338.782898 275.192019 
L 350.619261 289.130481 
L 362.455625 219.438173 
L 374.291989 251.96125 
L 386.128352 261.253558 
L 397.964716 214.792019 
L 409.80108 247.315096 
L 421.637443 233.376635 
L 433.473807 177.622788 
L 445.31017 210.145865 
L 457.146534 186.915096 
L 468.982898 131.16125 
L 480.819261 149.745865 
L 492.655625 117.222788 
" style="fill:none;stroke:#4a98c9;stroke-linecap:square;stroke-width:1.5;"/>
   </g>
   <g id="line2d_30">
    <path clip-path="url(#pc823b30924)" d="M 102.055625 433.16125 
L 113.891989 423.868942 
L 125.728352 423.868942 
L 137.564716 409.930481 
L 149.40108 395.992019 
L 161.237443 386.699712 
L 173.073807 386.699712 
L 184.91017 354.176635 
L 196.746534 368.115096 
L 208.582898 354.176635 
L 220.419261 363.468942 
L 232.255625 344.884327 
L 244.091989 326.299712 
L 255.928352 326.299712 
L 267.764716 303.068942 
L 279.60108 307.715096 
L 291.437443 317.007404 
L 303.273807 293.776635 
L 315.11017 298.422788 
L 326.946534 284.484327 
L 338.782898 298.422788 
L 350.619261 279.838173 
L 362.455625 224.084327 
L 374.291989 238.022788 
L 386.128352 186.915096 
L 397.964716 210.145865 
L 409.80108 238.022788 
L 421.637443 163.684327 
L 433.473807 224.084327 
L 445.31017 177.622788 
L 457.146534 224.084327 
L 468.982898 172.976635 
L 480.819261 210.145865 
L 492.655625 191.56125 
" style="fill:none;stroke:#4a98c9;stroke-linecap:square;stroke-width:1.5;"/>
   </g>
   <g id="line2d_31">
    <path clip-path="url(#pc823b30924)" d="M 102.055625 433.16125 
L 113.891989 423.868942 
L 125.728352 428.515096 
L 137.564716 428.515096 
L 149.40108 395.992019 
L 161.237443 414.576635 
L 173.073807 405.284327 
L 184.91017 386.699712 
L 196.746534 363.468942 
L 208.582898 354.176635 
L 220.419261 340.238173 
L 232.255625 344.884327 
L 244.091989 275.192019 
L 255.928352 317.007404 
L 267.764716 284.484327 
L 279.60108 284.484327 
L 291.437443 307.715096 
L 303.273807 307.715096 
L 315.11017 261.253558 
L 326.946534 261.253558 
L 338.782898 279.838173 
L 350.619261 247.315096 
L 362.455625 261.253558 
L 374.291989 196.207404 
L 386.128352 265.899712 
L 397.964716 214.792019 
L 409.80108 228.730481 
L 421.637443 205.499712 
L 433.473807 205.499712 
L 445.31017 196.207404 
L 457.146534 177.622788 
L 468.982898 168.330481 
L 480.819261 168.330481 
L 492.655625 219.438173 
" style="fill:none;stroke:#4a98c9;stroke-linecap:square;stroke-width:1.5;"/>
   </g>
   <g id="line2d_32">
    <path clip-path="url(#pc823b30924)" d="M 102.055625 433.16125 
L 113.891989 423.868942 
L 125.728352 405.284327 
L 137.564716 409.930481 
L 149.40108 405.284327 
L 161.237443 395.992019 
L 173.073807 400.638173 
L 184.91017 377.407404 
L 196.746534 335.592019 
L 208.582898 377.407404 
L 220.419261 363.468942 
L 232.255625 344.884327 
L 244.091989 358.822788 
L 255.928352 326.299712 
L 267.764716 340.238173 
L 279.60108 312.36125 
L 291.437443 284.484327 
L 303.273807 256.607404 
L 315.11017 298.422788 
L 326.946534 298.422788 
L 338.782898 228.730481 
L 350.619261 251.96125 
L 362.455625 228.730481 
L 374.291989 275.192019 
L 386.128352 251.96125 
L 397.964716 205.499712 
L 409.80108 214.792019 
L 421.637443 200.853558 
L 433.473807 219.438173 
L 445.31017 228.730481 
L 457.146534 191.56125 
L 468.982898 140.453558 
L 480.819261 219.438173 
L 492.655625 145.099712 
" style="fill:none;stroke:#4a98c9;stroke-linecap:square;stroke-width:1.5;"/>
   </g>
   <g id="line2d_33">
    <path clip-path="url(#pc823b30924)" d="M 102.055625 433.16125 
L 113.891989 414.576635 
L 125.728352 409.930481 
L 137.564716 400.638173 
L 149.40108 405.284327 
L 161.237443 377.407404 
L 173.073807 382.053558 
L 184.91017 386.699712 
L 196.746534 372.76125 
L 208.582898 363.468942 
L 220.419261 326.299712 
L 232.255625 358.822788 
L 244.091989 330.945865 
L 255.928352 307.715096 
L 267.764716 344.884327 
L 279.60108 317.007404 
L 291.437443 298.422788 
L 303.273807 289.130481 
L 315.11017 261.253558 
L 326.946534 298.422788 
L 338.782898 261.253558 
L 350.619261 293.776635 
L 362.455625 210.145865 
L 374.291989 256.607404 
L 386.128352 242.668942 
L 397.964716 200.853558 
L 409.80108 228.730481 
L 421.637443 219.438173 
L 433.473807 219.438173 
L 445.31017 210.145865 
L 457.146534 214.792019 
L 468.982898 159.038173 
L 480.819261 140.453558 
L 492.655625 145.099712 
" style="fill:none;stroke:#4a98c9;stroke-linecap:square;stroke-width:1.5;"/>
   </g>
   <g id="line2d_34">
    <path clip-path="url(#pc823b30924)" d="M 102.055625 428.515096 
L 113.891989 423.868942 
L 125.728352 419.222788 
L 137.564716 409.930481 
L 149.40108 400.638173 
L 161.237443 414.576635 
L 173.073807 400.638173 
L 184.91017 391.345865 
L 196.746534 377.407404 
L 208.582898 326.299712 
L 220.419261 368.115096 
L 232.255625 335.592019 
L 244.091989 344.884327 
L 255.928352 330.945865 
L 267.764716 340.238173 
L 279.60108 270.545865 
L 291.437443 279.838173 
L 303.273807 289.130481 
L 315.11017 279.838173 
L 326.946534 303.068942 
L 338.782898 275.192019 
L 350.619261 270.545865 
L 362.455625 233.376635 
L 374.291989 214.792019 
L 386.128352 247.315096 
L 397.964716 238.022788 
L 409.80108 214.792019 
L 421.637443 205.499712 
L 433.473807 200.853558 
L 445.31017 168.330481 
L 457.146534 154.392019 
L 468.982898 135.807404 
L 480.819261 145.099712 
L 492.655625 182.268942 
" style="fill:none;stroke:#4a98c9;stroke-linecap:square;stroke-width:1.5;"/>
   </g>
   <g id="line2d_35">
    <path clip-path="url(#pc823b30924)" d="M 102.055625 433.16125 
L 113.891989 423.868942 
L 125.728352 419.222788 
L 137.564716 414.576635 
L 149.40108 419.222788 
L 161.237443 391.345865 
L 173.073807 354.176635 
L 184.91017 386.699712 
L 196.746534 354.176635 
L 208.582898 368.115096 
L 220.419261 363.468942 
L 232.255625 321.653558 
L 244.091989 321.653558 
L 255.928352 335.592019 
L 267.764716 344.884327 
L 279.60108 307.715096 
L 291.437443 293.776635 
L 303.273807 289.130481 
L 315.11017 279.838173 
L 326.946534 275.192019 
L 338.782898 284.484327 
L 350.619261 261.253558 
L 362.455625 251.96125 
L 374.291989 242.668942 
L 386.128352 247.315096 
L 397.964716 210.145865 
L 409.80108 205.499712 
L 421.637443 247.315096 
L 433.473807 172.976635 
L 445.31017 186.915096 
L 457.146534 126.515096 
L 468.982898 149.745865 
L 480.819261 131.16125 
L 492.655625 205.499712 
" style="fill:none;stroke:#4a98c9;stroke-linecap:square;stroke-width:1.5;"/>
   </g>
   <g id="line2d_36">
    <path clip-path="url(#pc823b30924)" d="M 102.055625 428.515096 
L 113.891989 423.868942 
L 125.728352 414.576635 
L 137.564716 405.284327 
L 149.40108 419.222788 
L 161.237443 395.992019 
L 173.073807 386.699712 
L 184.91017 377.407404 
L 196.746534 382.053558 
L 208.582898 368.115096 
L 220.419261 349.530481 
L 232.255625 321.653558 
L 244.091989 340.238173 
L 255.928352 330.945865 
L 267.764716 303.068942 
L 279.60108 349.530481 
L 291.437443 293.776635 
L 303.273807 298.422788 
L 315.11017 298.422788 
L 326.946534 284.484327 
L 338.782898 256.607404 
L 350.619261 275.192019 
L 362.455625 238.022788 
L 374.291989 228.730481 
L 386.128352 256.607404 
L 397.964716 200.853558 
L 409.80108 177.622788 
L 421.637443 224.084327 
L 433.473807 284.484327 
L 445.31017 200.853558 
L 457.146534 200.853558 
L 468.982898 200.853558 
L 480.819261 98.638173 
L 492.655625 186.915096 
" style="fill:none;stroke:#d0e1f2;stroke-linecap:square;stroke-width:1.5;"/>
   </g>
   <g id="line2d_37">
    <path clip-path="url(#pc823b30924)" d="M 102.055625 433.16125 
L 113.891989 428.515096 
L 125.728352 423.868942 
L 137.564716 428.515096 
L 149.40108 405.284327 
L 161.237443 386.699712 
L 173.073807 382.053558 
L 184.91017 372.76125 
L 196.746534 349.530481 
L 208.582898 358.822788 
L 220.419261 363.468942 
L 232.255625 354.176635 
L 244.091989 349.530481 
L 255.928352 307.715096 
L 267.764716 326.299712 
L 279.60108 349.530481 
L 291.437443 275.192019 
L 303.273807 284.484327 
L 315.11017 298.422788 
L 326.946534 298.422788 
L 338.782898 251.96125 
L 350.619261 261.253558 
L 362.455625 265.899712 
L 374.291989 247.315096 
L 386.128352 214.792019 
L 397.964716 251.96125 
L 409.80108 228.730481 
L 421.637443 224.084327 
L 433.473807 224.084327 
L 445.31017 154.392019 
L 457.146534 168.330481 
L 468.982898 131.16125 
L 480.819261 154.392019 
L 492.655625 214.792019 
" style="fill:none;stroke:#d0e1f2;stroke-linecap:square;stroke-width:1.5;"/>
   </g>
   <g id="line2d_38">
    <path clip-path="url(#pc823b30924)" d="M 102.055625 428.515096 
L 113.891989 419.222788 
L 125.728352 419.222788 
L 137.564716 423.868942 
L 149.40108 400.638173 
L 161.237443 386.699712 
L 173.073807 372.76125 
L 184.91017 377.407404 
L 196.746534 377.407404 
L 208.582898 358.822788 
L 220.419261 354.176635 
L 232.255625 330.945865 
L 244.091989 358.822788 
L 255.928352 340.238173 
L 267.764716 354.176635 
L 279.60108 279.838173 
L 291.437443 298.422788 
L 303.273807 242.668942 
L 315.11017 261.253558 
L 326.946534 293.776635 
L 338.782898 275.192019 
L 350.619261 224.084327 
L 362.455625 251.96125 
L 374.291989 275.192019 
L 386.128352 265.899712 
L 397.964716 219.438173 
L 409.80108 261.253558 
L 421.637443 205.499712 
L 433.473807 196.207404 
L 445.31017 159.038173 
L 457.146534 205.499712 
L 468.982898 219.438173 
L 480.819261 191.56125 
L 492.655625 135.807404 
" style="fill:none;stroke:#d0e1f2;stroke-linecap:square;stroke-width:1.5;"/>
   </g>
   <g id="line2d_39">
    <path clip-path="url(#pc823b30924)" d="M 102.055625 433.16125 
L 113.891989 423.868942 
L 125.728352 419.222788 
L 137.564716 405.284327 
L 149.40108 409.930481 
L 161.237443 391.345865 
L 173.073807 382.053558 
L 184.91017 382.053558 
L 196.746534 382.053558 
L 208.582898 321.653558 
L 220.419261 326.299712 
L 232.255625 326.299712 
L 244.091989 335.592019 
L 255.928352 330.945865 
L 267.764716 335.592019 
L 279.60108 293.776635 
L 291.437443 340.238173 
L 303.273807 330.945865 
L 315.11017 298.422788 
L 326.946534 238.022788 
L 338.782898 275.192019 
L 350.619261 293.776635 
L 362.455625 224.084327 
L 374.291989 261.253558 
L 386.128352 279.838173 
L 397.964716 214.792019 
L 409.80108 251.96125 
L 421.637443 238.022788 
L 433.473807 177.622788 
L 445.31017 214.792019 
L 457.146534 177.622788 
L 468.982898 149.745865 
L 480.819261 145.099712 
L 492.655625 121.868942 
" style="fill:none;stroke:#d0e1f2;stroke-linecap:square;stroke-width:1.5;"/>
   </g>
   <g id="line2d_40">
    <path clip-path="url(#pc823b30924)" d="M 102.055625 433.16125 
L 113.891989 423.868942 
L 125.728352 423.868942 
L 137.564716 409.930481 
L 149.40108 391.345865 
L 161.237443 386.699712 
L 173.073807 386.699712 
L 184.91017 358.822788 
L 196.746534 368.115096 
L 208.582898 354.176635 
L 220.419261 363.468942 
L 232.255625 344.884327 
L 244.091989 326.299712 
L 255.928352 330.945865 
L 267.764716 312.36125 
L 279.60108 312.36125 
L 291.437443 303.068942 
L 303.273807 303.068942 
L 315.11017 298.422788 
L 326.946534 289.130481 
L 338.782898 293.776635 
L 350.619261 275.192019 
L 362.455625 242.668942 
L 374.291989 238.022788 
L 386.128352 196.207404 
L 397.964716 205.499712 
L 409.80108 242.668942 
L 421.637443 163.684327 
L 433.473807 224.084327 
L 445.31017 172.976635 
L 457.146534 224.084327 
L 468.982898 168.330481 
L 480.819261 200.853558 
L 492.655625 196.207404 
" style="fill:none;stroke:#d0e1f2;stroke-linecap:square;stroke-width:1.5;"/>
   </g>
   <g id="line2d_41">
    <path clip-path="url(#pc823b30924)" d="M 102.055625 433.16125 
L 113.891989 423.868942 
L 125.728352 428.515096 
L 137.564716 428.515096 
L 149.40108 395.992019 
L 161.237443 414.576635 
L 173.073807 405.284327 
L 184.91017 386.699712 
L 196.746534 363.468942 
L 208.582898 358.822788 
L 220.419261 340.238173 
L 232.255625 349.530481 
L 244.091989 289.130481 
L 255.928352 317.007404 
L 267.764716 289.130481 
L 279.60108 279.838173 
L 291.437443 307.715096 
L 303.273807 321.653558 
L 315.11017 265.899712 
L 326.946534 265.899712 
L 338.782898 284.484327 
L 350.619261 247.315096 
L 362.455625 275.192019 
L 374.291989 200.853558 
L 386.128352 275.192019 
L 397.964716 210.145865 
L 409.80108 233.376635 
L 421.637443 205.499712 
L 433.473807 214.792019 
L 445.31017 182.268942 
L 457.146534 200.853558 
L 468.982898 200.853558 
L 480.819261 200.853558 
L 492.655625 214.792019 
" style="fill:none;stroke:#d0e1f2;stroke-linecap:square;stroke-width:1.5;"/>
   </g>
   <g id="line2d_42">
    <path clip-path="url(#pc823b30924)" d="M 102.055625 433.16125 
L 113.891989 423.868942 
L 125.728352 405.284327 
L 137.564716 409.930481 
L 149.40108 405.284327 
L 161.237443 395.992019 
L 173.073807 400.638173 
L 184.91017 377.407404 
L 196.746534 335.592019 
L 208.582898 372.76125 
L 220.419261 363.468942 
L 232.255625 344.884327 
L 244.091989 363.468942 
L 255.928352 326.299712 
L 267.764716 344.884327 
L 279.60108 312.36125 
L 291.437443 289.130481 
L 303.273807 261.253558 
L 315.11017 293.776635 
L 326.946534 293.776635 
L 338.782898 228.730481 
L 350.619261 265.899712 
L 362.455625 224.084327 
L 374.291989 275.192019 
L 386.128352 261.253558 
L 397.964716 210.145865 
L 409.80108 210.145865 
L 421.637443 196.207404 
L 433.473807 210.145865 
L 445.31017 224.084327 
L 457.146534 186.915096 
L 468.982898 140.453558 
L 480.819261 238.022788 
L 492.655625 149.745865 
" style="fill:none;stroke:#d0e1f2;stroke-linecap:square;stroke-width:1.5;"/>
   </g>
   <g id="line2d_43">
    <path clip-path="url(#pc823b30924)" d="M 102.055625 433.16125 
L 113.891989 414.576635 
L 125.728352 409.930481 
L 137.564716 400.638173 
L 149.40108 405.284327 
L 161.237443 377.407404 
L 173.073807 382.053558 
L 184.91017 386.699712 
L 196.746534 377.407404 
L 208.582898 358.822788 
L 220.419261 335.592019 
L 232.255625 358.822788 
L 244.091989 330.945865 
L 255.928352 317.007404 
L 267.764716 340.238173 
L 279.60108 317.007404 
L 291.437443 307.715096 
L 303.273807 293.776635 
L 315.11017 270.545865 
L 326.946534 307.715096 
L 338.782898 261.253558 
L 350.619261 303.068942 
L 362.455625 210.145865 
L 374.291989 279.838173 
L 386.128352 238.022788 
L 397.964716 196.207404 
L 409.80108 228.730481 
L 421.637443 210.145865 
L 433.473807 224.084327 
L 445.31017 224.084327 
L 457.146534 214.792019 
L 468.982898 154.392019 
L 480.819261 163.684327 
L 492.655625 131.16125 
" style="fill:none;stroke:#d0e1f2;stroke-linecap:square;stroke-width:1.5;"/>
   </g>
   <g id="line2d_44">
    <path clip-path="url(#pc823b30924)" d="M 102.055625 428.515096 
L 113.891989 423.868942 
L 125.728352 419.222788 
L 137.564716 409.930481 
L 149.40108 400.638173 
L 161.237443 414.576635 
L 173.073807 400.638173 
L 184.91017 391.345865 
L 196.746534 377.407404 
L 208.582898 326.299712 
L 220.419261 368.115096 
L 232.255625 335.592019 
L 244.091989 349.530481 
L 255.928352 335.592019 
L 267.764716 344.884327 
L 279.60108 265.899712 
L 291.437443 284.484327 
L 303.273807 289.130481 
L 315.11017 284.484327 
L 326.946534 303.068942 
L 338.782898 289.130481 
L 350.619261 279.838173 
L 362.455625 233.376635 
L 374.291989 219.438173 
L 386.128352 261.253558 
L 397.964716 242.668942 
L 409.80108 214.792019 
L 421.637443 224.084327 
L 433.473807 205.499712 
L 445.31017 168.330481 
L 457.146534 145.099712 
L 468.982898 172.976635 
L 480.819261 159.038173 
L 492.655625 177.622788 
" style="fill:none;stroke:#d0e1f2;stroke-linecap:square;stroke-width:1.5;"/>
   </g>
   <g id="line2d_45">
    <path clip-path="url(#pc823b30924)" d="M 102.055625 433.16125 
L 113.891989 423.868942 
L 125.728352 423.868942 
L 137.564716 414.576635 
L 149.40108 423.868942 
L 161.237443 391.345865 
L 173.073807 354.176635 
L 184.91017 386.699712 
L 196.746534 349.530481 
L 208.582898 368.115096 
L 220.419261 363.468942 
L 232.255625 326.299712 
L 244.091989 326.299712 
L 255.928352 330.945865 
L 267.764716 354.176635 
L 279.60108 303.068942 
L 291.437443 303.068942 
L 303.273807 293.776635 
L 315.11017 279.838173 
L 326.946534 279.838173 
L 338.782898 284.484327 
L 350.619261 256.607404 
L 362.455625 247.315096 
L 374.291989 256.607404 
L 386.128352 247.315096 
L 397.964716 214.792019 
L 409.80108 214.792019 
L 421.637443 242.668942 
L 433.473807 182.268942 
L 445.31017 196.207404 
L 457.146534 131.16125 
L 468.982898 168.330481 
L 480.819261 140.453558 
L 492.655625 214.792019 
" style="fill:none;stroke:#d0e1f2;stroke-linecap:square;stroke-width:1.5;"/>
   </g>
   <g id="line2d_46">
    <path clip-path="url(#pc823b30924)" d="M 102.055625 428.515096 
L 113.891989 423.868942 
L 125.728352 414.576635 
L 137.564716 405.284327 
L 149.40108 419.222788 
L 161.237443 391.345865 
L 173.073807 382.053558 
L 184.91017 377.407404 
L 196.746534 382.053558 
L 208.582898 368.115096 
L 220.419261 344.884327 
L 232.255625 312.36125 
L 244.091989 335.592019 
L 255.928352 298.422788 
L 267.764716 298.422788 
L 279.60108 335.592019 
L 291.437443 289.130481 
L 303.273807 289.130481 
L 315.11017 289.130481 
L 326.946534 265.899712 
L 338.782898 242.668942 
L 350.619261 247.315096 
L 362.455625 219.438173 
L 374.291989 210.145865 
L 386.128352 224.084327 
L 397.964716 196.207404 
L 409.80108 177.622788 
L 421.637443 205.499712 
L 433.473807 265.899712 
L 445.31017 186.915096 
L 457.146534 186.915096 
L 468.982898 177.622788 
L 480.819261 89.345865 
L 492.655625 154.392019 
" style="fill:none;stroke:#1764ab;stroke-linecap:square;stroke-width:1.5;"/>
   </g>
   <g id="line2d_47">
    <path clip-path="url(#pc823b30924)" d="M 102.055625 433.16125 
L 113.891989 428.515096 
L 125.728352 423.868942 
L 137.564716 423.868942 
L 149.40108 400.638173 
L 161.237443 377.407404 
L 173.073807 377.407404 
L 184.91017 372.76125 
L 196.746534 354.176635 
L 208.582898 358.822788 
L 220.419261 358.822788 
L 232.255625 344.884327 
L 244.091989 344.884327 
L 255.928352 307.715096 
L 267.764716 303.068942 
L 279.60108 344.884327 
L 291.437443 256.607404 
L 303.273807 275.192019 
L 315.11017 284.484327 
L 326.946534 279.838173 
L 338.782898 210.145865 
L 350.619261 247.315096 
L 362.455625 219.438173 
L 374.291989 251.96125 
L 386.128352 186.915096 
L 397.964716 247.315096 
L 409.80108 228.730481 
L 421.637443 228.730481 
L 433.473807 219.438173 
L 445.31017 140.453558 
L 457.146534 149.745865 
L 468.982898 121.868942 
L 480.819261 145.099712 
L 492.655625 191.56125 
" style="fill:none;stroke:#1764ab;stroke-linecap:square;stroke-width:1.5;"/>
   </g>
   <g id="line2d_48">
    <path clip-path="url(#pc823b30924)" d="M 102.055625 428.515096 
L 113.891989 419.222788 
L 125.728352 419.222788 
L 137.564716 423.868942 
L 149.40108 400.638173 
L 161.237443 382.053558 
L 173.073807 372.76125 
L 184.91017 363.468942 
L 196.746534 368.115096 
L 208.582898 344.884327 
L 220.419261 349.530481 
L 232.255625 326.299712 
L 244.091989 349.530481 
L 255.928352 330.945865 
L 267.764716 335.592019 
L 279.60108 270.545865 
L 291.437443 279.838173 
L 303.273807 228.730481 
L 315.11017 247.315096 
L 326.946534 261.253558 
L 338.782898 261.253558 
L 350.619261 205.499712 
L 362.455625 242.668942 
L 374.291989 265.899712 
L 386.128352 251.96125 
L 397.964716 210.145865 
L 409.80108 256.607404 
L 421.637443 196.207404 
L 433.473807 172.976635 
L 445.31017 131.16125 
L 457.146534 172.976635 
L 468.982898 186.915096 
L 480.819261 159.038173 
L 492.655625 163.684327 
" style="fill:none;stroke:#1764ab;stroke-linecap:square;stroke-width:1.5;"/>
   </g>
   <g id="line2d_49">
    <path clip-path="url(#pc823b30924)" d="M 102.055625 433.16125 
L 113.891989 423.868942 
L 125.728352 414.576635 
L 137.564716 405.284327 
L 149.40108 409.930481 
L 161.237443 391.345865 
L 173.073807 382.053558 
L 184.91017 377.407404 
L 196.746534 382.053558 
L 208.582898 321.653558 
L 220.419261 321.653558 
L 232.255625 326.299712 
L 244.091989 330.945865 
L 255.928352 326.299712 
L 267.764716 330.945865 
L 279.60108 293.776635 
L 291.437443 326.299712 
L 303.273807 317.007404 
L 315.11017 265.899712 
L 326.946534 233.376635 
L 338.782898 256.607404 
L 350.619261 261.253558 
L 362.455625 210.145865 
L 374.291989 219.438173 
L 386.128352 247.315096 
L 397.964716 191.56125 
L 409.80108 242.668942 
L 421.637443 228.730481 
L 433.473807 168.330481 
L 445.31017 186.915096 
L 457.146534 154.392019 
L 468.982898 112.576635 
L 480.819261 145.099712 
L 492.655625 131.16125 
" style="fill:none;stroke:#1764ab;stroke-linecap:square;stroke-width:1.5;"/>
   </g>
   <g id="line2d_50">
    <path clip-path="url(#pc823b30924)" d="M 102.055625 433.16125 
L 113.891989 423.868942 
L 125.728352 419.222788 
L 137.564716 409.930481 
L 149.40108 395.992019 
L 161.237443 382.053558 
L 173.073807 386.699712 
L 184.91017 354.176635 
L 196.746534 358.822788 
L 208.582898 354.176635 
L 220.419261 344.884327 
L 232.255625 349.530481 
L 244.091989 303.068942 
L 255.928352 330.945865 
L 267.764716 307.715096 
L 279.60108 303.068942 
L 291.437443 303.068942 
L 303.273807 289.130481 
L 315.11017 289.130481 
L 326.946534 284.484327 
L 338.782898 298.422788 
L 350.619261 279.838173 
L 362.455625 224.084327 
L 374.291989 233.376635 
L 386.128352 168.330481 
L 397.964716 186.915096 
L 409.80108 219.438173 
L 421.637443 140.453558 
L 433.473807 186.915096 
L 445.31017 149.745865 
L 457.146534 205.499712 
L 468.982898 154.392019 
L 480.819261 159.038173 
L 492.655625 191.56125 
" style="fill:none;stroke:#1764ab;stroke-linecap:square;stroke-width:1.5;"/>
   </g>
   <g id="line2d_51">
    <path clip-path="url(#pc823b30924)" d="M 102.055625 433.16125 
L 113.891989 423.868942 
L 125.728352 428.515096 
L 137.564716 428.515096 
L 149.40108 391.345865 
L 161.237443 414.576635 
L 173.073807 400.638173 
L 184.91017 386.699712 
L 196.746534 358.822788 
L 208.582898 349.530481 
L 220.419261 326.299712 
L 232.255625 344.884327 
L 244.091989 279.838173 
L 255.928352 321.653558 
L 267.764716 279.838173 
L 279.60108 270.545865 
L 291.437443 303.068942 
L 303.273807 317.007404 
L 315.11017 261.253558 
L 326.946534 247.315096 
L 338.782898 265.899712 
L 350.619261 228.730481 
L 362.455625 261.253558 
L 374.291989 182.268942 
L 386.128352 256.607404 
L 397.964716 210.145865 
L 409.80108 200.853558 
L 421.637443 205.499712 
L 433.473807 214.792019 
L 445.31017 177.622788 
L 457.146534 154.392019 
L 468.982898 168.330481 
L 480.819261 172.976635 
L 492.655625 205.499712 
" style="fill:none;stroke:#1764ab;stroke-linecap:square;stroke-width:1.5;"/>
   </g>
   <g id="line2d_52">
    <path clip-path="url(#pc823b30924)" d="M 102.055625 433.16125 
L 113.891989 423.868942 
L 125.728352 405.284327 
L 137.564716 409.930481 
L 149.40108 405.284327 
L 161.237443 395.992019 
L 173.073807 395.992019 
L 184.91017 372.76125 
L 196.746534 330.945865 
L 208.582898 377.407404 
L 220.419261 349.530481 
L 232.255625 330.945865 
L 244.091989 368.115096 
L 255.928352 326.299712 
L 267.764716 326.299712 
L 279.60108 270.545865 
L 291.437443 298.422788 
L 303.273807 256.607404 
L 315.11017 265.899712 
L 326.946534 293.776635 
L 338.782898 214.792019 
L 350.619261 247.315096 
L 362.455625 214.792019 
L 374.291989 242.668942 
L 386.128352 233.376635 
L 397.964716 200.853558 
L 409.80108 210.145865 
L 421.637443 177.622788 
L 433.473807 210.145865 
L 445.31017 186.915096 
L 457.146534 168.330481 
L 468.982898 93.992019 
L 480.819261 228.730481 
L 492.655625 140.453558 
" style="fill:none;stroke:#1764ab;stroke-linecap:square;stroke-width:1.5;"/>
   </g>
   <g id="line2d_53">
    <path clip-path="url(#pc823b30924)" d="M 102.055625 433.16125 
L 113.891989 414.576635 
L 125.728352 409.930481 
L 137.564716 400.638173 
L 149.40108 405.284327 
L 161.237443 372.76125 
L 173.073807 368.115096 
L 184.91017 382.053558 
L 196.746534 368.115096 
L 208.582898 354.176635 
L 220.419261 330.945865 
L 232.255625 344.884327 
L 244.091989 326.299712 
L 255.928352 312.36125 
L 267.764716 335.592019 
L 279.60108 307.715096 
L 291.437443 303.068942 
L 303.273807 275.192019 
L 315.11017 270.545865 
L 326.946534 298.422788 
L 338.782898 251.96125 
L 350.619261 289.130481 
L 362.455625 200.853558 
L 374.291989 261.253558 
L 386.128352 238.022788 
L 397.964716 177.622788 
L 409.80108 210.145865 
L 421.637443 182.268942 
L 433.473807 200.853558 
L 445.31017 219.438173 
L 457.146534 228.730481 
L 468.982898 140.453558 
L 480.819261 135.807404 
L 492.655625 107.930481 
" style="fill:none;stroke:#1764ab;stroke-linecap:square;stroke-width:1.5;"/>
   </g>
   <g id="line2d_54">
    <path clip-path="url(#pc823b30924)" d="M 102.055625 428.515096 
L 113.891989 423.868942 
L 125.728352 419.222788 
L 137.564716 409.930481 
L 149.40108 400.638173 
L 161.237443 409.930481 
L 173.073807 400.638173 
L 184.91017 391.345865 
L 196.746534 377.407404 
L 208.582898 326.299712 
L 220.419261 363.468942 
L 232.255625 330.945865 
L 244.091989 349.530481 
L 255.928352 335.592019 
L 267.764716 344.884327 
L 279.60108 251.96125 
L 291.437443 284.484327 
L 303.273807 270.545865 
L 315.11017 261.253558 
L 326.946534 284.484327 
L 338.782898 289.130481 
L 350.619261 284.484327 
L 362.455625 219.438173 
L 374.291989 210.145865 
L 386.128352 251.96125 
L 397.964716 224.084327 
L 409.80108 191.56125 
L 421.637443 191.56125 
L 433.473807 205.499712 
L 445.31017 159.038173 
L 457.146534 140.453558 
L 468.982898 140.453558 
L 480.819261 140.453558 
L 492.655625 163.684327 
" style="fill:none;stroke:#1764ab;stroke-linecap:square;stroke-width:1.5;"/>
   </g>
   <g id="line2d_55">
    <path clip-path="url(#pc823b30924)" d="M 102.055625 433.16125 
L 113.891989 423.868942 
L 125.728352 414.576635 
L 137.564716 419.222788 
L 149.40108 423.868942 
L 161.237443 391.345865 
L 173.073807 344.884327 
L 184.91017 382.053558 
L 196.746534 344.884327 
L 208.582898 358.822788 
L 220.419261 358.822788 
L 232.255625 321.653558 
L 244.091989 317.007404 
L 255.928352 330.945865 
L 267.764716 330.945865 
L 279.60108 298.422788 
L 291.437443 298.422788 
L 303.273807 279.838173 
L 315.11017 270.545865 
L 326.946534 270.545865 
L 338.782898 270.545865 
L 350.619261 251.96125 
L 362.455625 233.376635 
L 374.291989 233.376635 
L 386.128352 233.376635 
L 397.964716 186.915096 
L 409.80108 177.622788 
L 421.637443 224.084327 
L 433.473807 168.330481 
L 445.31017 186.915096 
L 457.146534 103.284327 
L 468.982898 107.930481 
L 480.819261 93.992019 
L 492.655625 186.915096 
" style="fill:none;stroke:#1764ab;stroke-linecap:square;stroke-width:1.5;"/>
   </g>
   <g id="line2d_56">
    <path clip-path="url(#pc823b30924)" d="M 102.055625 428.515096 
L 113.891989 423.868942 
L 125.728352 414.576635 
L 137.564716 405.284327 
L 149.40108 419.222788 
L 161.237443 395.992019 
L 173.073807 386.699712 
L 184.91017 377.407404 
L 196.746534 382.053558 
L 208.582898 368.115096 
L 220.419261 349.530481 
L 232.255625 321.653558 
L 244.091989 335.592019 
L 255.928352 326.299712 
L 267.764716 303.068942 
L 279.60108 349.530481 
L 291.437443 298.422788 
L 303.273807 298.422788 
L 315.11017 298.422788 
L 326.946534 289.130481 
L 338.782898 256.607404 
L 350.619261 261.253558 
L 362.455625 238.022788 
L 374.291989 224.084327 
L 386.128352 251.96125 
L 397.964716 205.499712 
L 409.80108 182.268942 
L 421.637443 224.084327 
L 433.473807 284.484327 
L 445.31017 196.207404 
L 457.146534 214.792019 
L 468.982898 182.268942 
L 480.819261 103.284327 
L 492.655625 186.915096 
" style="fill:none;stroke:#94c4df;stroke-linecap:square;stroke-width:1.5;"/>
   </g>
   <g id="line2d_57">
    <path clip-path="url(#pc823b30924)" d="M 102.055625 433.16125 
L 113.891989 428.515096 
L 125.728352 423.868942 
L 137.564716 428.515096 
L 149.40108 405.284327 
L 161.237443 382.053558 
L 173.073807 377.407404 
L 184.91017 377.407404 
L 196.746534 354.176635 
L 208.582898 358.822788 
L 220.419261 358.822788 
L 232.255625 349.530481 
L 244.091989 349.530481 
L 255.928352 312.36125 
L 267.764716 321.653558 
L 279.60108 349.530481 
L 291.437443 275.192019 
L 303.273807 279.838173 
L 315.11017 298.422788 
L 326.946534 293.776635 
L 338.782898 242.668942 
L 350.619261 270.545865 
L 362.455625 251.96125 
L 374.291989 256.607404 
L 386.128352 210.145865 
L 397.964716 265.899712 
L 409.80108 233.376635 
L 421.637443 233.376635 
L 433.473807 219.438173 
L 445.31017 154.392019 
L 457.146534 154.392019 
L 468.982898 126.515096 
L 480.819261 159.038173 
L 492.655625 214.792019 
" style="fill:none;stroke:#94c4df;stroke-linecap:square;stroke-width:1.5;"/>
   </g>
   <g id="line2d_58">
    <path clip-path="url(#pc823b30924)" d="M 102.055625 428.515096 
L 113.891989 419.222788 
L 125.728352 419.222788 
L 137.564716 423.868942 
L 149.40108 400.638173 
L 161.237443 386.699712 
L 173.073807 372.76125 
L 184.91017 377.407404 
L 196.746534 382.053558 
L 208.582898 354.176635 
L 220.419261 354.176635 
L 232.255625 335.592019 
L 244.091989 349.530481 
L 255.928352 340.238173 
L 267.764716 354.176635 
L 279.60108 275.192019 
L 291.437443 303.068942 
L 303.273807 242.668942 
L 315.11017 251.96125 
L 326.946534 293.776635 
L 338.782898 275.192019 
L 350.619261 219.438173 
L 362.455625 238.022788 
L 374.291989 270.545865 
L 386.128352 256.607404 
L 397.964716 228.730481 
L 409.80108 251.96125 
L 421.637443 205.499712 
L 433.473807 191.56125 
L 445.31017 149.745865 
L 457.146534 186.915096 
L 468.982898 224.084327 
L 480.819261 182.268942 
L 492.655625 154.392019 
" style="fill:none;stroke:#94c4df;stroke-linecap:square;stroke-width:1.5;"/>
   </g>
   <g id="line2d_59">
    <path clip-path="url(#pc823b30924)" d="M 102.055625 433.16125 
L 113.891989 423.868942 
L 125.728352 419.222788 
L 137.564716 405.284327 
L 149.40108 409.930481 
L 161.237443 391.345865 
L 173.073807 382.053558 
L 184.91017 382.053558 
L 196.746534 382.053558 
L 208.582898 321.653558 
L 220.419261 326.299712 
L 232.255625 330.945865 
L 244.091989 335.592019 
L 255.928352 330.945865 
L 267.764716 330.945865 
L 279.60108 289.130481 
L 291.437443 340.238173 
L 303.273807 326.299712 
L 315.11017 298.422788 
L 326.946534 242.668942 
L 338.782898 270.545865 
L 350.619261 298.422788 
L 362.455625 219.438173 
L 374.291989 261.253558 
L 386.128352 270.545865 
L 397.964716 219.438173 
L 409.80108 247.315096 
L 421.637443 233.376635 
L 433.473807 177.622788 
L 445.31017 214.792019 
L 457.146534 196.207404 
L 468.982898 145.099712 
L 480.819261 135.807404 
L 492.655625 117.222788 
" style="fill:none;stroke:#94c4df;stroke-linecap:square;stroke-width:1.5;"/>
   </g>
   <g id="line2d_60">
    <path clip-path="url(#pc823b30924)" d="M 102.055625 433.16125 
L 113.891989 423.868942 
L 125.728352 423.868942 
L 137.564716 409.930481 
L 149.40108 395.992019 
L 161.237443 386.699712 
L 173.073807 386.699712 
L 184.91017 358.822788 
L 196.746534 368.115096 
L 208.582898 354.176635 
L 220.419261 358.822788 
L 232.255625 344.884327 
L 244.091989 326.299712 
L 255.928352 330.945865 
L 267.764716 303.068942 
L 279.60108 312.36125 
L 291.437443 312.36125 
L 303.273807 298.422788 
L 315.11017 303.068942 
L 326.946534 289.130481 
L 338.782898 298.422788 
L 350.619261 279.838173 
L 362.455625 224.084327 
L 374.291989 233.376635 
L 386.128352 191.56125 
L 397.964716 200.853558 
L 409.80108 242.668942 
L 421.637443 163.684327 
L 433.473807 219.438173 
L 445.31017 182.268942 
L 457.146534 228.730481 
L 468.982898 172.976635 
L 480.819261 205.499712 
L 492.655625 191.56125 
" style="fill:none;stroke:#94c4df;stroke-linecap:square;stroke-width:1.5;"/>
   </g>
   <g id="line2d_61">
    <path clip-path="url(#pc823b30924)" d="M 102.055625 433.16125 
L 113.891989 423.868942 
L 125.728352 428.515096 
L 137.564716 428.515096 
L 149.40108 395.992019 
L 161.237443 414.576635 
L 173.073807 405.284327 
L 184.91017 386.699712 
L 196.746534 363.468942 
L 208.582898 358.822788 
L 220.419261 340.238173 
L 232.255625 349.530481 
L 244.091989 289.130481 
L 255.928352 317.007404 
L 267.764716 270.545865 
L 279.60108 279.838173 
L 291.437443 317.007404 
L 303.273807 321.653558 
L 315.11017 265.899712 
L 326.946534 270.545865 
L 338.782898 284.484327 
L 350.619261 247.315096 
L 362.455625 275.192019 
L 374.291989 196.207404 
L 386.128352 261.253558 
L 397.964716 200.853558 
L 409.80108 219.438173 
L 421.637443 205.499712 
L 433.473807 214.792019 
L 445.31017 196.207404 
L 457.146534 205.499712 
L 468.982898 186.915096 
L 480.819261 196.207404 
L 492.655625 214.792019 
" style="fill:none;stroke:#94c4df;stroke-linecap:square;stroke-width:1.5;"/>
   </g>
   <g id="line2d_62">
    <path clip-path="url(#pc823b30924)" d="M 102.055625 433.16125 
L 113.891989 423.868942 
L 125.728352 405.284327 
L 137.564716 405.284327 
L 149.40108 400.638173 
L 161.237443 395.992019 
L 173.073807 400.638173 
L 184.91017 377.407404 
L 196.746534 335.592019 
L 208.582898 382.053558 
L 220.419261 358.822788 
L 232.255625 344.884327 
L 244.091989 363.468942 
L 255.928352 326.299712 
L 267.764716 344.884327 
L 279.60108 307.715096 
L 291.437443 289.130481 
L 303.273807 265.899712 
L 315.11017 284.484327 
L 326.946534 298.422788 
L 338.782898 219.438173 
L 350.619261 265.899712 
L 362.455625 228.730481 
L 374.291989 275.192019 
L 386.128352 256.607404 
L 397.964716 200.853558 
L 409.80108 214.792019 
L 421.637443 200.853558 
L 433.473807 214.792019 
L 445.31017 228.730481 
L 457.146534 177.622788 
L 468.982898 145.099712 
L 480.819261 238.022788 
L 492.655625 145.099712 
" style="fill:none;stroke:#94c4df;stroke-linecap:square;stroke-width:1.5;"/>
   </g>
   <g id="line2d_63">
    <path clip-path="url(#pc823b30924)" d="M 102.055625 433.16125 
L 113.891989 414.576635 
L 125.728352 409.930481 
L 137.564716 400.638173 
L 149.40108 405.284327 
L 161.237443 377.407404 
L 173.073807 382.053558 
L 184.91017 386.699712 
L 196.746534 372.76125 
L 208.582898 363.468942 
L 220.419261 330.945865 
L 232.255625 358.822788 
L 244.091989 330.945865 
L 255.928352 317.007404 
L 267.764716 340.238173 
L 279.60108 312.36125 
L 291.437443 307.715096 
L 303.273807 293.776635 
L 315.11017 270.545865 
L 326.946534 307.715096 
L 338.782898 261.253558 
L 350.619261 293.776635 
L 362.455625 210.145865 
L 374.291989 270.545865 
L 386.128352 238.022788 
L 397.964716 191.56125 
L 409.80108 233.376635 
L 421.637443 210.145865 
L 433.473807 214.792019 
L 445.31017 219.438173 
L 457.146534 228.730481 
L 468.982898 149.745865 
L 480.819261 145.099712 
L 492.655625 135.807404 
" style="fill:none;stroke:#94c4df;stroke-linecap:square;stroke-width:1.5;"/>
   </g>
   <g id="line2d_64">
    <path clip-path="url(#pc823b30924)" d="M 102.055625 428.515096 
L 113.891989 423.868942 
L 125.728352 419.222788 
L 137.564716 409.930481 
L 149.40108 400.638173 
L 161.237443 414.576635 
L 173.073807 400.638173 
L 184.91017 391.345865 
L 196.746534 377.407404 
L 208.582898 330.945865 
L 220.419261 368.115096 
L 232.255625 330.945865 
L 244.091989 349.530481 
L 255.928352 330.945865 
L 267.764716 340.238173 
L 279.60108 270.545865 
L 291.437443 284.484327 
L 303.273807 289.130481 
L 315.11017 279.838173 
L 326.946534 298.422788 
L 338.782898 289.130481 
L 350.619261 279.838173 
L 362.455625 228.730481 
L 374.291989 214.792019 
L 386.128352 256.607404 
L 397.964716 247.315096 
L 409.80108 214.792019 
L 421.637443 219.438173 
L 433.473807 196.207404 
L 445.31017 182.268942 
L 457.146534 159.038173 
L 468.982898 159.038173 
L 480.819261 159.038173 
L 492.655625 182.268942 
" style="fill:none;stroke:#94c4df;stroke-linecap:square;stroke-width:1.5;"/>
   </g>
   <g id="line2d_65">
    <path clip-path="url(#pc823b30924)" d="M 102.055625 433.16125 
L 113.891989 423.868942 
L 125.728352 423.868942 
L 137.564716 409.930481 
L 149.40108 419.222788 
L 161.237443 391.345865 
L 173.073807 358.822788 
L 184.91017 386.699712 
L 196.746534 354.176635 
L 208.582898 363.468942 
L 220.419261 354.176635 
L 232.255625 326.299712 
L 244.091989 317.007404 
L 255.928352 330.945865 
L 267.764716 344.884327 
L 279.60108 303.068942 
L 291.437443 298.422788 
L 303.273807 293.776635 
L 315.11017 279.838173 
L 326.946534 279.838173 
L 338.782898 284.484327 
L 350.619261 261.253558 
L 362.455625 242.668942 
L 374.291989 256.607404 
L 386.128352 242.668942 
L 397.964716 219.438173 
L 409.80108 205.499712 
L 421.637443 247.315096 
L 433.473807 163.684327 
L 445.31017 210.145865 
L 457.146534 117.222788 
L 468.982898 168.330481 
L 480.819261 135.807404 
L 492.655625 205.499712 
" style="fill:none;stroke:#94c4df;stroke-linecap:square;stroke-width:1.5;"/>
   </g>
   <g id="line2d_66">
    <path clip-path="url(#pc823b30924)" d="M 102.055625 428.515096 
L 113.891989 423.868942 
L 125.728352 414.576635 
L 137.564716 405.284327 
L 149.40108 414.576635 
L 161.237443 395.992019 
L 173.073807 386.699712 
L 184.91017 377.407404 
L 196.746534 382.053558 
L 208.582898 368.115096 
L 220.419261 349.530481 
L 232.255625 321.653558 
L 244.091989 340.238173 
L 255.928352 326.299712 
L 267.764716 303.068942 
L 279.60108 344.884327 
L 291.437443 293.776635 
L 303.273807 293.776635 
L 315.11017 307.715096 
L 326.946534 289.130481 
L 338.782898 251.96125 
L 350.619261 275.192019 
L 362.455625 228.730481 
L 374.291989 219.438173 
L 386.128352 256.607404 
L 397.964716 210.145865 
L 409.80108 182.268942 
L 421.637443 224.084327 
L 433.473807 279.838173 
L 445.31017 200.853558 
L 457.146534 205.499712 
L 468.982898 196.207404 
L 480.819261 93.992019 
L 492.655625 186.915096 
" style="fill:none;stroke:#000000;stroke-linecap:square;stroke-width:1.5;"/>
   </g>
   <g id="line2d_67">
    <path clip-path="url(#pc823b30924)" d="M 102.055625 433.16125 
L 113.891989 428.515096 
L 125.728352 423.868942 
L 137.564716 428.515096 
L 149.40108 400.638173 
L 161.237443 382.053558 
L 173.073807 372.76125 
L 184.91017 382.053558 
L 196.746534 354.176635 
L 208.582898 354.176635 
L 220.419261 354.176635 
L 232.255625 358.822788 
L 244.091989 349.530481 
L 255.928352 307.715096 
L 267.764716 317.007404 
L 279.60108 344.884327 
L 291.437443 270.545865 
L 303.273807 284.484327 
L 315.11017 293.776635 
L 326.946534 298.422788 
L 338.782898 251.96125 
L 350.619261 270.545865 
L 362.455625 251.96125 
L 374.291989 256.607404 
L 386.128352 219.438173 
L 397.964716 261.253558 
L 409.80108 228.730481 
L 421.637443 233.376635 
L 433.473807 224.084327 
L 445.31017 145.099712 
L 457.146534 159.038173 
L 468.982898 131.16125 
L 480.819261 154.392019 
L 492.655625 214.792019 
" style="fill:none;stroke:#000000;stroke-linecap:square;stroke-width:1.5;"/>
   </g>
   <g id="line2d_68">
    <path clip-path="url(#pc823b30924)" d="M 102.055625 428.515096 
L 113.891989 419.222788 
L 125.728352 423.868942 
L 137.564716 414.576635 
L 149.40108 400.638173 
L 161.237443 386.699712 
L 173.073807 372.76125 
L 184.91017 377.407404 
L 196.746534 382.053558 
L 208.582898 358.822788 
L 220.419261 354.176635 
L 232.255625 335.592019 
L 244.091989 349.530481 
L 255.928352 335.592019 
L 267.764716 335.592019 
L 279.60108 270.545865 
L 291.437443 312.36125 
L 303.273807 242.668942 
L 315.11017 261.253558 
L 326.946534 289.130481 
L 338.782898 275.192019 
L 350.619261 214.792019 
L 362.455625 247.315096 
L 374.291989 279.838173 
L 386.128352 265.899712 
L 397.964716 224.084327 
L 409.80108 261.253558 
L 421.637443 205.499712 
L 433.473807 196.207404 
L 445.31017 159.038173 
L 457.146534 200.853558 
L 468.982898 210.145865 
L 480.819261 186.915096 
L 492.655625 154.392019 
" style="fill:none;stroke:#000000;stroke-linecap:square;stroke-width:1.5;"/>
   </g>
   <g id="line2d_69">
    <path clip-path="url(#pc823b30924)" d="M 102.055625 433.16125 
L 113.891989 423.868942 
L 125.728352 419.222788 
L 137.564716 405.284327 
L 149.40108 409.930481 
L 161.237443 391.345865 
L 173.073807 382.053558 
L 184.91017 382.053558 
L 196.746534 382.053558 
L 208.582898 321.653558 
L 220.419261 326.299712 
L 232.255625 330.945865 
L 244.091989 335.592019 
L 255.928352 330.945865 
L 267.764716 340.238173 
L 279.60108 293.776635 
L 291.437443 340.238173 
L 303.273807 326.299712 
L 315.11017 298.422788 
L 326.946534 242.668942 
L 338.782898 275.192019 
L 350.619261 293.776635 
L 362.455625 224.084327 
L 374.291989 261.253558 
L 386.128352 279.838173 
L 397.964716 224.084327 
L 409.80108 247.315096 
L 421.637443 233.376635 
L 433.473807 172.976635 
L 445.31017 214.792019 
L 457.146534 182.268942 
L 468.982898 121.868942 
L 480.819261 154.392019 
L 492.655625 140.453558 
" style="fill:none;stroke:#000000;stroke-linecap:square;stroke-width:1.5;"/>
   </g>
   <g id="line2d_70">
    <path clip-path="url(#pc823b30924)" d="M 102.055625 433.16125 
L 113.891989 423.868942 
L 125.728352 423.868942 
L 137.564716 409.930481 
L 149.40108 395.992019 
L 161.237443 386.699712 
L 173.073807 386.699712 
L 184.91017 358.822788 
L 196.746534 368.115096 
L 208.582898 354.176635 
L 220.419261 358.822788 
L 232.255625 344.884327 
L 244.091989 326.299712 
L 255.928352 335.592019 
L 267.764716 307.715096 
L 279.60108 307.715096 
L 291.437443 321.653558 
L 303.273807 298.422788 
L 315.11017 293.776635 
L 326.946534 289.130481 
L 338.782898 298.422788 
L 350.619261 279.838173 
L 362.455625 228.730481 
L 374.291989 228.730481 
L 386.128352 191.56125 
L 397.964716 210.145865 
L 409.80108 247.315096 
L 421.637443 154.392019 
L 433.473807 224.084327 
L 445.31017 182.268942 
L 457.146534 224.084327 
L 468.982898 159.038173 
L 480.819261 210.145865 
L 492.655625 196.207404 
" style="fill:none;stroke:#000000;stroke-linecap:square;stroke-width:1.5;"/>
   </g>
   <g id="line2d_71">
    <path clip-path="url(#pc823b30924)" d="M 102.055625 433.16125 
L 113.891989 423.868942 
L 125.728352 428.515096 
L 137.564716 428.515096 
L 149.40108 395.992019 
L 161.237443 414.576635 
L 173.073807 405.284327 
L 184.91017 386.699712 
L 196.746534 363.468942 
L 208.582898 358.822788 
L 220.419261 340.238173 
L 232.255625 340.238173 
L 244.091989 279.838173 
L 255.928352 326.299712 
L 267.764716 279.838173 
L 279.60108 289.130481 
L 291.437443 307.715096 
L 303.273807 326.299712 
L 315.11017 275.192019 
L 326.946534 261.253558 
L 338.782898 279.838173 
L 350.619261 247.315096 
L 362.455625 275.192019 
L 374.291989 200.853558 
L 386.128352 265.899712 
L 397.964716 205.499712 
L 409.80108 233.376635 
L 421.637443 200.853558 
L 433.473807 219.438173 
L 445.31017 196.207404 
L 457.146534 205.499712 
L 468.982898 182.268942 
L 480.819261 196.207404 
L 492.655625 219.438173 
" style="fill:none;stroke:#000000;stroke-linecap:square;stroke-width:1.5;"/>
   </g>
   <g id="line2d_72">
    <path clip-path="url(#pc823b30924)" d="M 102.055625 433.16125 
L 113.891989 423.868942 
L 125.728352 405.284327 
L 137.564716 409.930481 
L 149.40108 405.284327 
L 161.237443 395.992019 
L 173.073807 400.638173 
L 184.91017 372.76125 
L 196.746534 335.592019 
L 208.582898 382.053558 
L 220.419261 363.468942 
L 232.255625 340.238173 
L 244.091989 363.468942 
L 255.928352 326.299712 
L 267.764716 344.884327 
L 279.60108 312.36125 
L 291.437443 289.130481 
L 303.273807 265.899712 
L 315.11017 298.422788 
L 326.946534 298.422788 
L 338.782898 228.730481 
L 350.619261 256.607404 
L 362.455625 228.730481 
L 374.291989 270.545865 
L 386.128352 251.96125 
L 397.964716 196.207404 
L 409.80108 219.438173 
L 421.637443 191.56125 
L 433.473807 205.499712 
L 445.31017 224.084327 
L 457.146534 182.268942 
L 468.982898 135.807404 
L 480.819261 238.022788 
L 492.655625 149.745865 
" style="fill:none;stroke:#000000;stroke-linecap:square;stroke-width:1.5;"/>
   </g>
   <g id="line2d_73">
    <path clip-path="url(#pc823b30924)" d="M 102.055625 433.16125 
L 113.891989 414.576635 
L 125.728352 409.930481 
L 137.564716 400.638173 
L 149.40108 405.284327 
L 161.237443 377.407404 
L 173.073807 382.053558 
L 184.91017 386.699712 
L 196.746534 377.407404 
L 208.582898 363.468942 
L 220.419261 335.592019 
L 232.255625 354.176635 
L 244.091989 330.945865 
L 255.928352 317.007404 
L 267.764716 344.884327 
L 279.60108 321.653558 
L 291.437443 298.422788 
L 303.273807 293.776635 
L 315.11017 275.192019 
L 326.946534 298.422788 
L 338.782898 256.607404 
L 350.619261 298.422788 
L 362.455625 205.499712 
L 374.291989 256.607404 
L 386.128352 256.607404 
L 397.964716 200.853558 
L 409.80108 228.730481 
L 421.637443 214.792019 
L 433.473807 224.084327 
L 445.31017 228.730481 
L 457.146534 214.792019 
L 468.982898 145.099712 
L 480.819261 154.392019 
L 492.655625 154.392019 
" style="fill:none;stroke:#000000;stroke-linecap:square;stroke-width:1.5;"/>
   </g>
   <g id="line2d_74">
    <path clip-path="url(#pc823b30924)" d="M 102.055625 428.515096 
L 113.891989 423.868942 
L 125.728352 419.222788 
L 137.564716 409.930481 
L 149.40108 400.638173 
L 161.237443 414.576635 
L 173.073807 400.638173 
L 184.91017 391.345865 
L 196.746534 377.407404 
L 208.582898 330.945865 
L 220.419261 368.115096 
L 232.255625 335.592019 
L 244.091989 344.884327 
L 255.928352 330.945865 
L 267.764716 344.884327 
L 279.60108 270.545865 
L 291.437443 293.776635 
L 303.273807 289.130481 
L 315.11017 275.192019 
L 326.946534 298.422788 
L 338.782898 289.130481 
L 350.619261 275.192019 
L 362.455625 224.084327 
L 374.291989 214.792019 
L 386.128352 256.607404 
L 397.964716 251.96125 
L 409.80108 210.145865 
L 421.637443 219.438173 
L 433.473807 210.145865 
L 445.31017 182.268942 
L 457.146534 154.392019 
L 468.982898 154.392019 
L 480.819261 154.392019 
L 492.655625 186.915096 
" style="fill:none;stroke:#000000;stroke-linecap:square;stroke-width:1.5;"/>
   </g>
   <g id="line2d_75">
    <path clip-path="url(#pc823b30924)" d="M 102.055625 433.16125 
L 113.891989 423.868942 
L 125.728352 423.868942 
L 137.564716 414.576635 
L 149.40108 419.222788 
L 161.237443 391.345865 
L 173.073807 358.822788 
L 184.91017 386.699712 
L 196.746534 354.176635 
L 208.582898 368.115096 
L 220.419261 363.468942 
L 232.255625 326.299712 
L 244.091989 326.299712 
L 255.928352 335.592019 
L 267.764716 344.884327 
L 279.60108 312.36125 
L 291.437443 307.715096 
L 303.273807 293.776635 
L 315.11017 275.192019 
L 326.946534 279.838173 
L 338.782898 284.484327 
L 350.619261 256.607404 
L 362.455625 247.315096 
L 374.291989 261.253558 
L 386.128352 251.96125 
L 397.964716 210.145865 
L 409.80108 210.145865 
L 421.637443 251.96125 
L 433.473807 182.268942 
L 445.31017 205.499712 
L 457.146534 131.16125 
L 468.982898 168.330481 
L 480.819261 140.453558 
L 492.655625 214.792019 
" style="fill:none;stroke:#000000;stroke-linecap:square;stroke-width:1.5;"/>
   </g>
   <g id="line2d_76">
    <path clip-path="url(#pc823b30924)" d="M 90.219261 433.16125 
" style="fill:none;stroke:#000000;stroke-linecap:square;stroke-width:1.5;"/>
   </g>
   <g id="line2d_77">
    <path clip-path="url(#pc823b30924)" d="M 90.219261 433.16125 
" style="fill:none;stroke:#d0e1f2;stroke-linecap:square;stroke-width:1.5;"/>
   </g>
   <g id="line2d_78">
    <path clip-path="url(#pc823b30924)" d="M 90.219261 433.16125 
" style="fill:none;stroke:#94c4df;stroke-linecap:square;stroke-width:1.5;"/>
   </g>
   <g id="line2d_79">
    <path clip-path="url(#pc823b30924)" d="M 90.219261 433.16125 
" style="fill:none;stroke:#4a98c9;stroke-linecap:square;stroke-width:1.5;"/>
   </g>
   <g id="line2d_80">
    <path clip-path="url(#pc823b30924)" d="M 90.219261 433.16125 
" style="fill:none;stroke:#1764ab;stroke-linecap:square;stroke-width:1.5;"/>
   </g>
   <g id="line2d_81">
    <path clip-path="url(#pc823b30924)" d="M 90.219261 433.16125 
" style="fill:none;stroke:#08306b;stroke-linecap:square;stroke-width:1.5;"/>
   </g>
   <g id="line2d_82">
    <path clip-path="url(#pc823b30924)" d="M 90.219261 433.16125 
" style="fill:none;stroke:#000000;stroke-linecap:square;stroke-width:1.5;"/>
   </g>
   <g id="line2d_83">
    <path clip-path="url(#pc823b30924)" d="M 90.219261 433.16125 
" style="fill:none;stroke:#000000;stroke-dasharray:1.5,2.475;stroke-dashoffset:0;stroke-width:1.5;"/>
   </g>
   <g id="line2d_84">
    <path clip-path="url(#pc823b30924)" d="M 90.219261 433.16125 
" style="fill:none;stroke:#000000;stroke-linecap:square;stroke-width:1.5;"/>
   </g>
   <g id="line2d_85">
    <path clip-path="url(#pc823b30924)" d="M 90.219261 433.16125 
" style="fill:none;stroke:#000000;stroke-dasharray:5.55,2.4;stroke-dashoffset:0;stroke-width:1.5;"/>
   </g>
   <g id="line2d_86">
    <path clip-path="url(#pc823b30924)" d="M 90.219261 433.16125 
" style="fill:none;stroke:#000000;stroke-dasharray:9.6,2.4,1.5,2.4;stroke-dashoffset:0;stroke-width:1.5;"/>
   </g>
   <g id="line2d_87">
    <path clip-path="url(#pc823b30924)" d="M 90.219261 433.16125 
" style="fill:none;stroke:#000000;stroke-dasharray:9.6,2.4,1.5,2.4;stroke-dashoffset:0;stroke-width:1.5;"/>
   </g>
   <g id="patch_3">
    <path d="M 102.055625 433.16125 
L 102.055625 52.64125 
" style="fill:none;stroke:#000000;stroke-linecap:square;stroke-linejoin:miter;stroke-width:0.8;"/>
   </g>
   <g id="patch_4">
    <path d="M 492.655625 433.16125 
L 492.655625 52.64125 
" style="fill:none;stroke:#000000;stroke-linecap:square;stroke-linejoin:miter;stroke-width:0.8;"/>
   </g>
   <g id="patch_5">
    <path d="M 102.055625 433.16125 
L 492.655625 433.16125 
" style="fill:none;stroke:#000000;stroke-linecap:square;stroke-linejoin:miter;stroke-width:0.8;"/>
   </g>
   <g id="patch_6">
    <path d="M 102.055625 52.64125 
L 492.655625 52.64125 
" style="fill:none;stroke:#000000;stroke-linecap:square;stroke-linejoin:miter;stroke-width:0.8;"/>
   </g>
   <g id="text_18">
    <!-- HEALTHY COUNT -->
    <g transform="translate(211.816563 21.515625)scale(0.2 -0.2)">
     <use xlink:href="#Arial-BoldMT-72"/>
     <use x="72.216797" xlink:href="#Arial-BoldMT-69"/>
     <use x="138.916016" xlink:href="#Arial-BoldMT-65"/>
     <use x="211.132812" xlink:href="#Arial-BoldMT-76"/>
     <use x="272.107422" xlink:href="#Arial-BoldMT-84"/>
     <use x="333.191406" xlink:href="#Arial-BoldMT-72"/>
     <use x="405.408203" xlink:href="#Arial-BoldMT-89"/>
     <use x="472.091797" xlink:href="#Arial-BoldMT-32"/>
     <use x="499.875" xlink:href="#Arial-BoldMT-67"/>
     <use x="572.091797" xlink:href="#Arial-BoldMT-79"/>
     <use x="649.875" xlink:href="#Arial-BoldMT-85"/>
     <use x="722.091797" xlink:href="#Arial-BoldMT-78"/>
     <use x="794.308594" xlink:href="#Arial-BoldMT-84"/>
    </g>
    <!-- ACROSS RADIUS AT TIME 4 -->
    <defs>
     <path d="M 31.15625 0 
L 31.15625 14.40625 
L 1.859375 14.40625 
L 1.859375 26.421875 
L 32.90625 71.875 
L 44.4375 71.875 
L 44.4375 26.46875 
L 53.328125 26.46875 
L 53.328125 14.40625 
L 44.4375 14.40625 
L 44.4375 0 
z
M 31.15625 26.46875 
L 31.15625 50.921875 
L 14.703125 26.46875 
z
" id="Arial-BoldMT-52"/>
    </defs>
    <g transform="translate(162.361875 42.64125)scale(0.2 -0.2)">
     <use xlink:href="#Arial-BoldMT-65"/>
     <use x="72.216797" xlink:href="#Arial-BoldMT-67"/>
     <use x="144.433594" xlink:href="#Arial-BoldMT-82"/>
     <use x="216.650391" xlink:href="#Arial-BoldMT-79"/>
     <use x="294.433594" xlink:href="#Arial-BoldMT-83"/>
     <use x="361.132812" xlink:href="#Arial-BoldMT-83"/>
     <use x="427.832031" xlink:href="#Arial-BoldMT-32"/>
     <use x="455.615234" xlink:href="#Arial-BoldMT-82"/>
     <use x="527.832031" xlink:href="#Arial-BoldMT-65"/>
     <use x="600.048828" xlink:href="#Arial-BoldMT-68"/>
     <use x="672.265625" xlink:href="#Arial-BoldMT-73"/>
     <use x="700.048828" xlink:href="#Arial-BoldMT-85"/>
     <use x="772.265625" xlink:href="#Arial-BoldMT-83"/>
     <use x="838.964844" xlink:href="#Arial-BoldMT-32"/>
     <use x="866.701172" xlink:href="#Arial-BoldMT-65"/>
     <use x="938.808594" xlink:href="#Arial-BoldMT-84"/>
     <use x="999.892578" xlink:href="#Arial-BoldMT-32"/>
     <use x="1027.675781" xlink:href="#Arial-BoldMT-84"/>
     <use x="1088.759766" xlink:href="#Arial-BoldMT-73"/>
     <use x="1116.542969" xlink:href="#Arial-BoldMT-77"/>
     <use x="1199.84375" xlink:href="#Arial-BoldMT-69"/>
     <use x="1266.542969" xlink:href="#Arial-BoldMT-32"/>
     <use x="1294.326172" xlink:href="#Arial-BoldMT-52"/>
    </g>
   </g>
   <g id="legend_1">
    <g id="line2d_88">
     <path d="M 501.655625 65.739687 
L 521.655625 65.739687 
" style="fill:none;stroke:#000000;stroke-linecap:square;stroke-width:1.5;"/>
    </g>
    <g id="line2d_89"/>
    <g id="text_19">
     <!-- 0 -->
     <g transform="translate(529.655625 69.239687)scale(0.1 -0.1)">
      <use xlink:href="#DejaVuSans-48"/>
     </g>
    </g>
    <g id="line2d_90">
     <path d="M 501.655625 80.417812 
L 521.655625 80.417812 
" style="fill:none;stroke:#d0e1f2;stroke-linecap:square;stroke-width:1.5;"/>
    </g>
    <g id="line2d_91"/>
    <g id="text_20">
     <!-- 100 -->
     <g transform="translate(529.655625 83.917812)scale(0.1 -0.1)">
      <use xlink:href="#DejaVuSans-49"/>
      <use x="63.623047" xlink:href="#DejaVuSans-48"/>
      <use x="127.246094" xlink:href="#DejaVuSans-48"/>
     </g>
    </g>
    <g id="line2d_92">
     <path d="M 501.655625 95.095937 
L 521.655625 95.095937 
" style="fill:none;stroke:#94c4df;stroke-linecap:square;stroke-width:1.5;"/>
    </g>
    <g id="line2d_93"/>
    <g id="text_21">
     <!-- 500 -->
     <g transform="translate(529.655625 98.595937)scale(0.1 -0.1)">
      <use xlink:href="#DejaVuSans-53"/>
      <use x="63.623047" xlink:href="#DejaVuSans-48"/>
      <use x="127.246094" xlink:href="#DejaVuSans-48"/>
     </g>
    </g>
    <g id="line2d_94">
     <path d="M 501.655625 109.774062 
L 521.655625 109.774062 
" style="fill:none;stroke:#4a98c9;stroke-linecap:square;stroke-width:1.5;"/>
    </g>
    <g id="line2d_95"/>
    <g id="text_22">
     <!-- 1000 -->
     <g transform="translate(529.655625 113.274062)scale(0.1 -0.1)">
      <use xlink:href="#DejaVuSans-49"/>
      <use x="63.623047" xlink:href="#DejaVuSans-48"/>
      <use x="127.246094" xlink:href="#DejaVuSans-48"/>
      <use x="190.869141" xlink:href="#DejaVuSans-48"/>
     </g>
    </g>
    <g id="line2d_96">
     <path d="M 501.655625 124.452187 
L 521.655625 124.452187 
" style="fill:none;stroke:#1764ab;stroke-linecap:square;stroke-width:1.5;"/>
    </g>
    <g id="line2d_97"/>
    <g id="text_23">
     <!-- 5000 -->
     <g transform="translate(529.655625 127.952187)scale(0.1 -0.1)">
      <use xlink:href="#DejaVuSans-53"/>
      <use x="63.623047" xlink:href="#DejaVuSans-48"/>
      <use x="127.246094" xlink:href="#DejaVuSans-48"/>
      <use x="190.869141" xlink:href="#DejaVuSans-48"/>
     </g>
    </g>
    <g id="line2d_98">
     <path d="M 501.655625 139.130312 
L 521.655625 139.130312 
" style="fill:none;stroke:#08306b;stroke-linecap:square;stroke-width:1.5;"/>
    </g>
    <g id="line2d_99"/>
    <g id="text_24">
     <!-- 10000 -->
     <g transform="translate(529.655625 142.630312)scale(0.1 -0.1)">
      <use xlink:href="#DejaVuSans-49"/>
      <use x="63.623047" xlink:href="#DejaVuSans-48"/>
      <use x="127.246094" xlink:href="#DejaVuSans-48"/>
      <use x="190.869141" xlink:href="#DejaVuSans-48"/>
      <use x="254.492188" xlink:href="#DejaVuSans-48"/>
     </g>
    </g>
    <g id="line2d_100">
     <path d="M 501.655625 153.808437 
L 521.655625 153.808437 
" style="fill:none;stroke:#000000;stroke-linecap:square;stroke-width:1.5;"/>
    </g>
    <g id="line2d_101"/>
    <g id="text_25">
     <!-- 0 -->
     <g transform="translate(529.655625 157.308437)scale(0.1 -0.1)">
      <use xlink:href="#DejaVuSans-48"/>
     </g>
    </g>
    <g id="line2d_102">
     <path d="M 501.655625 168.486562 
L 521.655625 168.486562 
" style="fill:none;stroke:#000000;stroke-dasharray:1.5,2.475;stroke-dashoffset:0;stroke-width:1.5;"/>
    </g>
    <g id="line2d_103"/>
    <g id="text_26">
     <!-- 250 -->
     <g transform="translate(529.655625 171.986562)scale(0.1 -0.1)">
      <use xlink:href="#DejaVuSans-50"/>
      <use x="63.623047" xlink:href="#DejaVuSans-53"/>
      <use x="127.246094" xlink:href="#DejaVuSans-48"/>
     </g>
    </g>
    <g id="line2d_104">
     <path d="M 501.655625 183.164687 
L 521.655625 183.164687 
" style="fill:none;stroke:#000000;stroke-linecap:square;stroke-width:1.5;"/>
    </g>
    <g id="line2d_105"/>
    <g id="text_27">
     <!-- 500 -->
     <g transform="translate(529.655625 186.664687)scale(0.1 -0.1)">
      <use xlink:href="#DejaVuSans-53"/>
      <use x="63.623047" xlink:href="#DejaVuSans-48"/>
      <use x="127.246094" xlink:href="#DejaVuSans-48"/>
     </g>
    </g>
    <g id="line2d_106">
     <path d="M 501.655625 197.842812 
L 521.655625 197.842812 
" style="fill:none;stroke:#000000;stroke-dasharray:5.55,2.4;stroke-dashoffset:0;stroke-width:1.5;"/>
    </g>
    <g id="line2d_107"/>
    <g id="text_28">
     <!-- 1000 -->
     <g transform="translate(529.655625 201.342812)scale(0.1 -0.1)">
      <use xlink:href="#DejaVuSans-49"/>
      <use x="63.623047" xlink:href="#DejaVuSans-48"/>
      <use x="127.246094" xlink:href="#DejaVuSans-48"/>
      <use x="190.869141" xlink:href="#DejaVuSans-48"/>
     </g>
    </g>
    <g id="line2d_108">
     <path d="M 501.655625 212.520937 
L 521.655625 212.520937 
" style="fill:none;stroke:#000000;stroke-dasharray:9.6,2.4,1.5,2.4;stroke-dashoffset:0;stroke-width:1.5;"/>
    </g>
    <g id="line2d_109"/>
    <g id="text_29">
     <!-- 5000 -->
     <g transform="translate(529.655625 216.020937)scale(0.1 -0.1)">
      <use xlink:href="#DejaVuSans-53"/>
      <use x="63.623047" xlink:href="#DejaVuSans-48"/>
      <use x="127.246094" xlink:href="#DejaVuSans-48"/>
      <use x="190.869141" xlink:href="#DejaVuSans-48"/>
     </g>
    </g>
    <g id="line2d_110">
     <path d="M 501.655625 227.199062 
L 521.655625 227.199062 
" style="fill:none;stroke:#000000;stroke-dasharray:9.6,2.4,1.5,2.4;stroke-dashoffset:0;stroke-width:1.5;"/>
    </g>
    <g id="line2d_111"/>
    <g id="text_30">
     <!-- 10000 -->
     <g transform="translate(529.655625 230.699062)scale(0.1 -0.1)">
      <use xlink:href="#DejaVuSans-49"/>
      <use x="63.623047" xlink:href="#DejaVuSans-48"/>
      <use x="127.246094" xlink:href="#DejaVuSans-48"/>
      <use x="190.869141" xlink:href="#DejaVuSans-48"/>
      <use x="254.492188" xlink:href="#DejaVuSans-48"/>
     </g>
    </g>
   </g>
  </g>
 </g>
 <defs>
  <clipPath id="pc823b30924">
   <rect height="380.52" width="390.6" x="102.055625" y="52.64125"/>
  </clipPath>
 </defs>
</svg>
