<?xml version="1.0" encoding="utf-8" standalone="no"?>
<!DOCTYPE svg PUBLIC "-//W3C//DTD SVG 1.1//EN"
  "http://www.w3.org/Graphics/SVG/1.1/DTD/svg11.dtd">
<!-- Created with matplotlib (https://matplotlib.org/) -->
<svg height="504.658125pt" version="1.1" viewBox="0 0 572.668125 504.658125" width="572.668125pt" xmlns="http://www.w3.org/2000/svg" xmlns:xlink="http://www.w3.org/1999/xlink">
 <defs>
  <style type="text/css">
*{stroke-linecap:butt;stroke-linejoin:round;}
  </style>
 </defs>
 <g id="figure_1">
  <g id="patch_1">
   <path d="M 0 504.658125 
L 572.668125 504.658125 
L 572.668125 -0 
L 0 -0 
z
" style="fill:#ffffff;"/>
  </g>
  <g id="axes_1">
   <g id="patch_2">
    <path d="M 102.055625 433.16125 
L 492.655625 433.16125 
L 492.655625 52.64125 
L 102.055625 52.64125 
z
" style="fill:#ffffff;"/>
   </g>
   <g id="matplotlib.axis_1">
    <g id="xtick_1">
     <g id="line2d_1">
      <defs>
       <path d="M 0 0 
L 0 3.5 
" id="m67cf964631" style="stroke:#000000;stroke-width:0.8;"/>
      </defs>
      <g>
       <use style="stroke:#000000;stroke-width:0.8;" x="149.40108" xlink:href="#m67cf964631" y="433.16125"/>
      </g>
     </g>
     <g id="text_1">
      <!-- 5 -->
      <defs>
       <path d="M 10.796875 72.90625 
L 49.515625 72.90625 
L 49.515625 64.59375 
L 19.828125 64.59375 
L 19.828125 46.734375 
Q 21.96875 47.46875 24.109375 47.828125 
Q 26.265625 48.1875 28.421875 48.1875 
Q 40.625 48.1875 47.75 41.5 
Q 54.890625 34.8125 54.890625 23.390625 
Q 54.890625 11.625 47.5625 5.09375 
Q 40.234375 -1.421875 26.90625 -1.421875 
Q 22.3125 -1.421875 17.546875 -0.640625 
Q 12.796875 0.140625 7.71875 1.703125 
L 7.71875 11.625 
Q 12.109375 9.234375 16.796875 8.0625 
Q 21.484375 6.890625 26.703125 6.890625 
Q 35.15625 6.890625 40.078125 11.328125 
Q 45.015625 15.765625 45.015625 23.390625 
Q 45.015625 31 40.078125 35.4375 
Q 35.15625 39.890625 26.703125 39.890625 
Q 22.75 39.890625 18.8125 39.015625 
Q 14.890625 38.140625 10.796875 36.28125 
z
" id="DejaVuSans-53"/>
      </defs>
      <g transform="translate(139.85733 462.956562)scale(0.3 -0.3)">
       <use xlink:href="#DejaVuSans-53"/>
      </g>
     </g>
    </g>
    <g id="xtick_2">
     <g id="line2d_2">
      <g>
       <use style="stroke:#000000;stroke-width:0.8;" x="208.582898" xlink:href="#m67cf964631" y="433.16125"/>
      </g>
     </g>
     <g id="text_2">
      <!-- 10 -->
      <defs>
       <path d="M 12.40625 8.296875 
L 28.515625 8.296875 
L 28.515625 63.921875 
L 10.984375 60.40625 
L 10.984375 69.390625 
L 28.421875 72.90625 
L 38.28125 72.90625 
L 38.28125 8.296875 
L 54.390625 8.296875 
L 54.390625 0 
L 12.40625 0 
z
" id="DejaVuSans-49"/>
       <path d="M 31.78125 66.40625 
Q 24.171875 66.40625 20.328125 58.90625 
Q 16.5 51.421875 16.5 36.375 
Q 16.5 21.390625 20.328125 13.890625 
Q 24.171875 6.390625 31.78125 6.390625 
Q 39.453125 6.390625 43.28125 13.890625 
Q 47.125 21.390625 47.125 36.375 
Q 47.125 51.421875 43.28125 58.90625 
Q 39.453125 66.40625 31.78125 66.40625 
z
M 31.78125 74.21875 
Q 44.046875 74.21875 50.515625 64.515625 
Q 56.984375 54.828125 56.984375 36.375 
Q 56.984375 17.96875 50.515625 8.265625 
Q 44.046875 -1.421875 31.78125 -1.421875 
Q 19.53125 -1.421875 13.0625 8.265625 
Q 6.59375 17.96875 6.59375 36.375 
Q 6.59375 54.828125 13.0625 64.515625 
Q 19.53125 74.21875 31.78125 74.21875 
z
" id="DejaVuSans-48"/>
      </defs>
      <g transform="translate(189.495398 462.956562)scale(0.3 -0.3)">
       <use xlink:href="#DejaVuSans-49"/>
       <use x="63.623047" xlink:href="#DejaVuSans-48"/>
      </g>
     </g>
    </g>
    <g id="xtick_3">
     <g id="line2d_3">
      <g>
       <use style="stroke:#000000;stroke-width:0.8;" x="267.764716" xlink:href="#m67cf964631" y="433.16125"/>
      </g>
     </g>
     <g id="text_3">
      <!-- 15 -->
      <g transform="translate(248.677216 462.956562)scale(0.3 -0.3)">
       <use xlink:href="#DejaVuSans-49"/>
       <use x="63.623047" xlink:href="#DejaVuSans-53"/>
      </g>
     </g>
    </g>
    <g id="xtick_4">
     <g id="line2d_4">
      <g>
       <use style="stroke:#000000;stroke-width:0.8;" x="326.946534" xlink:href="#m67cf964631" y="433.16125"/>
      </g>
     </g>
     <g id="text_4">
      <!-- 20 -->
      <defs>
       <path d="M 19.1875 8.296875 
L 53.609375 8.296875 
L 53.609375 0 
L 7.328125 0 
L 7.328125 8.296875 
Q 12.9375 14.109375 22.625 23.890625 
Q 32.328125 33.6875 34.8125 36.53125 
Q 39.546875 41.84375 41.421875 45.53125 
Q 43.3125 49.21875 43.3125 52.78125 
Q 43.3125 58.59375 39.234375 62.25 
Q 35.15625 65.921875 28.609375 65.921875 
Q 23.96875 65.921875 18.8125 64.3125 
Q 13.671875 62.703125 7.8125 59.421875 
L 7.8125 69.390625 
Q 13.765625 71.78125 18.9375 73 
Q 24.125 74.21875 28.421875 74.21875 
Q 39.75 74.21875 46.484375 68.546875 
Q 53.21875 62.890625 53.21875 53.421875 
Q 53.21875 48.921875 51.53125 44.890625 
Q 49.859375 40.875 45.40625 35.40625 
Q 44.1875 33.984375 37.640625 27.21875 
Q 31.109375 20.453125 19.1875 8.296875 
z
" id="DejaVuSans-50"/>
      </defs>
      <g transform="translate(307.859034 462.956562)scale(0.3 -0.3)">
       <use xlink:href="#DejaVuSans-50"/>
       <use x="63.623047" xlink:href="#DejaVuSans-48"/>
      </g>
     </g>
    </g>
    <g id="xtick_5">
     <g id="line2d_5">
      <g>
       <use style="stroke:#000000;stroke-width:0.8;" x="386.128352" xlink:href="#m67cf964631" y="433.16125"/>
      </g>
     </g>
     <g id="text_5">
      <!-- 25 -->
      <g transform="translate(367.040852 462.956562)scale(0.3 -0.3)">
       <use xlink:href="#DejaVuSans-50"/>
       <use x="63.623047" xlink:href="#DejaVuSans-53"/>
      </g>
     </g>
    </g>
    <g id="xtick_6">
     <g id="line2d_6">
      <g>
       <use style="stroke:#000000;stroke-width:0.8;" x="445.31017" xlink:href="#m67cf964631" y="433.16125"/>
      </g>
     </g>
     <g id="text_6">
      <!-- 30 -->
      <defs>
       <path d="M 40.578125 39.3125 
Q 47.65625 37.796875 51.625 33 
Q 55.609375 28.21875 55.609375 21.1875 
Q 55.609375 10.40625 48.1875 4.484375 
Q 40.765625 -1.421875 27.09375 -1.421875 
Q 22.515625 -1.421875 17.65625 -0.515625 
Q 12.796875 0.390625 7.625 2.203125 
L 7.625 11.71875 
Q 11.71875 9.328125 16.59375 8.109375 
Q 21.484375 6.890625 26.8125 6.890625 
Q 36.078125 6.890625 40.9375 10.546875 
Q 45.796875 14.203125 45.796875 21.1875 
Q 45.796875 27.640625 41.28125 31.265625 
Q 36.765625 34.90625 28.71875 34.90625 
L 20.21875 34.90625 
L 20.21875 43.015625 
L 29.109375 43.015625 
Q 36.375 43.015625 40.234375 45.921875 
Q 44.09375 48.828125 44.09375 54.296875 
Q 44.09375 59.90625 40.109375 62.90625 
Q 36.140625 65.921875 28.71875 65.921875 
Q 24.65625 65.921875 20.015625 65.03125 
Q 15.375 64.15625 9.8125 62.3125 
L 9.8125 71.09375 
Q 15.4375 72.65625 20.34375 73.4375 
Q 25.25 74.21875 29.59375 74.21875 
Q 40.828125 74.21875 47.359375 69.109375 
Q 53.90625 64.015625 53.90625 55.328125 
Q 53.90625 49.265625 50.4375 45.09375 
Q 46.96875 40.921875 40.578125 39.3125 
z
" id="DejaVuSans-51"/>
      </defs>
      <g transform="translate(426.22267 462.956562)scale(0.3 -0.3)">
       <use xlink:href="#DejaVuSans-51"/>
       <use x="63.623047" xlink:href="#DejaVuSans-48"/>
      </g>
     </g>
    </g>
    <g id="text_7">
     <!-- RADIUS -->
     <defs>
      <path d="M 7.328125 0 
L 7.328125 71.578125 
L 37.75 71.578125 
Q 49.21875 71.578125 54.421875 69.640625 
Q 59.625 67.71875 62.75 62.78125 
Q 65.875 57.859375 65.875 51.515625 
Q 65.875 43.453125 61.125 38.203125 
Q 56.390625 32.953125 46.96875 31.59375 
Q 51.65625 28.859375 54.703125 25.578125 
Q 57.765625 22.3125 62.9375 13.96875 
L 71.6875 0 
L 54.390625 0 
L 43.953125 15.578125 
Q 38.375 23.921875 36.328125 26.09375 
Q 34.28125 28.265625 31.984375 29.078125 
Q 29.6875 29.890625 24.703125 29.890625 
L 21.78125 29.890625 
L 21.78125 0 
z
M 21.78125 41.3125 
L 32.46875 41.3125 
Q 42.875 41.3125 45.453125 42.1875 
Q 48.046875 43.0625 49.515625 45.203125 
Q 50.984375 47.359375 50.984375 50.59375 
Q 50.984375 54.203125 49.046875 56.421875 
Q 47.125 58.640625 43.609375 59.234375 
Q 41.84375 59.46875 33.0625 59.46875 
L 21.78125 59.46875 
z
" id="Arial-BoldMT-82"/>
      <path d="M 71.828125 0 
L 56.109375 0 
L 49.859375 16.265625 
L 21.234375 16.265625 
L 15.328125 0 
L 0 0 
L 27.875 71.578125 
L 43.171875 71.578125 
z
M 45.21875 28.328125 
L 35.359375 54.890625 
L 25.6875 28.328125 
z
" id="Arial-BoldMT-65"/>
      <path d="M 7.234375 71.578125 
L 33.640625 71.578125 
Q 42.578125 71.578125 47.265625 70.21875 
Q 53.5625 68.359375 58.046875 63.625 
Q 62.546875 58.890625 64.890625 52.03125 
Q 67.234375 45.171875 67.234375 35.109375 
Q 67.234375 26.265625 65.046875 19.875 
Q 62.359375 12.0625 57.375 7.234375 
Q 53.609375 3.5625 47.21875 1.515625 
Q 42.4375 0 34.421875 0 
L 7.234375 0 
z
M 21.6875 59.46875 
L 21.6875 12.0625 
L 32.46875 12.0625 
Q 38.53125 12.0625 41.21875 12.75 
Q 44.734375 13.625 47.046875 15.71875 
Q 49.359375 17.828125 50.828125 22.625 
Q 52.296875 27.4375 52.296875 35.75 
Q 52.296875 44.046875 50.828125 48.484375 
Q 49.359375 52.9375 46.71875 55.421875 
Q 44.09375 57.90625 40.046875 58.796875 
Q 37.015625 59.46875 28.171875 59.46875 
z
" id="Arial-BoldMT-68"/>
      <path d="M 6.84375 0 
L 6.84375 71.578125 
L 21.296875 71.578125 
L 21.296875 0 
z
" id="Arial-BoldMT-73"/>
      <path d="M 7.171875 71.578125 
L 21.625 71.578125 
L 21.625 32.8125 
Q 21.625 23.578125 22.171875 20.84375 
Q 23.09375 16.453125 26.578125 13.796875 
Q 30.078125 11.140625 36.140625 11.140625 
Q 42.28125 11.140625 45.40625 13.640625 
Q 48.53125 16.15625 49.171875 19.8125 
Q 49.8125 23.484375 49.8125 31.984375 
L 49.8125 71.578125 
L 64.265625 71.578125 
L 64.265625 33.984375 
Q 64.265625 21.09375 63.09375 15.765625 
Q 61.921875 10.453125 58.765625 6.78125 
Q 55.609375 3.125 50.328125 0.953125 
Q 45.0625 -1.21875 36.578125 -1.21875 
Q 26.3125 -1.21875 21.015625 1.140625 
Q 15.71875 3.515625 12.640625 7.296875 
Q 9.578125 11.078125 8.59375 15.234375 
Q 7.171875 21.390625 7.171875 33.40625 
z
" id="Arial-BoldMT-85"/>
      <path d="M 3.609375 23.296875 
L 17.671875 24.65625 
Q 18.953125 17.578125 22.828125 14.25 
Q 26.703125 10.9375 33.296875 10.9375 
Q 40.28125 10.9375 43.8125 13.890625 
Q 47.359375 16.84375 47.359375 20.796875 
Q 47.359375 23.34375 45.875 25.125 
Q 44.390625 26.90625 40.671875 28.21875 
Q 38.140625 29.109375 29.109375 31.34375 
Q 17.484375 34.234375 12.796875 38.421875 
Q 6.203125 44.34375 6.203125 52.828125 
Q 6.203125 58.296875 9.296875 63.0625 
Q 12.40625 67.828125 18.234375 70.3125 
Q 24.078125 72.796875 32.328125 72.796875 
Q 45.796875 72.796875 52.609375 66.890625 
Q 59.421875 60.984375 59.765625 51.125 
L 45.3125 50.484375 
Q 44.390625 56 41.328125 58.421875 
Q 38.28125 60.84375 32.171875 60.84375 
Q 25.875 60.84375 22.3125 58.25 
Q 20.015625 56.59375 20.015625 53.8125 
Q 20.015625 51.265625 22.171875 49.46875 
Q 24.90625 47.171875 35.453125 44.671875 
Q 46 42.1875 51.046875 39.515625 
Q 56.109375 36.859375 58.953125 32.25 
Q 61.8125 27.640625 61.8125 20.84375 
Q 61.8125 14.703125 58.390625 9.328125 
Q 54.984375 3.953125 48.734375 1.34375 
Q 42.484375 -1.265625 33.15625 -1.265625 
Q 19.578125 -1.265625 12.296875 5 
Q 5.03125 11.28125 3.609375 23.296875 
z
" id="Arial-BoldMT-83"/>
     </defs>
     <g transform="translate(259.019688 493.51125)scale(0.2 -0.2)">
      <use xlink:href="#Arial-BoldMT-82"/>
      <use x="72.216797" xlink:href="#Arial-BoldMT-65"/>
      <use x="144.433594" xlink:href="#Arial-BoldMT-68"/>
      <use x="216.650391" xlink:href="#Arial-BoldMT-73"/>
      <use x="244.433594" xlink:href="#Arial-BoldMT-85"/>
      <use x="316.650391" xlink:href="#Arial-BoldMT-83"/>
     </g>
    </g>
   </g>
   <g id="matplotlib.axis_2">
    <g id="ytick_1">
     <g id="line2d_7">
      <defs>
       <path d="M 0 0 
L -3.5 0 
" id="mdeb1ffc488" style="stroke:#000000;stroke-width:0.8;"/>
      </defs>
      <g>
       <use style="stroke:#000000;stroke-width:0.8;" x="102.055625" xlink:href="#mdeb1ffc488" y="433.16125"/>
      </g>
     </g>
     <g id="text_8">
      <!-- 0 -->
      <g transform="translate(75.968125 444.558906)scale(0.3 -0.3)">
       <use xlink:href="#DejaVuSans-48"/>
      </g>
     </g>
    </g>
    <g id="ytick_2">
     <g id="line2d_8">
      <g>
       <use style="stroke:#000000;stroke-width:0.8;" x="102.055625" xlink:href="#mdeb1ffc488" y="369.74125"/>
      </g>
     </g>
     <g id="text_9">
      <!-- 5 -->
      <g transform="translate(75.968125 381.138906)scale(0.3 -0.3)">
       <use xlink:href="#DejaVuSans-53"/>
      </g>
     </g>
    </g>
    <g id="ytick_3">
     <g id="line2d_9">
      <g>
       <use style="stroke:#000000;stroke-width:0.8;" x="102.055625" xlink:href="#mdeb1ffc488" y="306.32125"/>
      </g>
     </g>
     <g id="text_10">
      <!-- 10 -->
      <g transform="translate(56.880625 317.718906)scale(0.3 -0.3)">
       <use xlink:href="#DejaVuSans-49"/>
       <use x="63.623047" xlink:href="#DejaVuSans-48"/>
      </g>
     </g>
    </g>
    <g id="ytick_4">
     <g id="line2d_10">
      <g>
       <use style="stroke:#000000;stroke-width:0.8;" x="102.055625" xlink:href="#mdeb1ffc488" y="242.90125"/>
      </g>
     </g>
     <g id="text_11">
      <!-- 15 -->
      <g transform="translate(56.880625 254.298906)scale(0.3 -0.3)">
       <use xlink:href="#DejaVuSans-49"/>
       <use x="63.623047" xlink:href="#DejaVuSans-53"/>
      </g>
     </g>
    </g>
    <g id="ytick_5">
     <g id="line2d_11">
      <g>
       <use style="stroke:#000000;stroke-width:0.8;" x="102.055625" xlink:href="#mdeb1ffc488" y="179.48125"/>
      </g>
     </g>
     <g id="text_12">
      <!-- 20 -->
      <g transform="translate(56.880625 190.878906)scale(0.3 -0.3)">
       <use xlink:href="#DejaVuSans-50"/>
       <use x="63.623047" xlink:href="#DejaVuSans-48"/>
      </g>
     </g>
    </g>
    <g id="ytick_6">
     <g id="line2d_12">
      <g>
       <use style="stroke:#000000;stroke-width:0.8;" x="102.055625" xlink:href="#mdeb1ffc488" y="116.06125"/>
      </g>
     </g>
     <g id="text_13">
      <!-- 25 -->
      <g transform="translate(56.880625 127.458906)scale(0.3 -0.3)">
       <use xlink:href="#DejaVuSans-50"/>
       <use x="63.623047" xlink:href="#DejaVuSans-53"/>
      </g>
     </g>
    </g>
    <g id="ytick_7">
     <g id="line2d_13">
      <g>
       <use style="stroke:#000000;stroke-width:0.8;" x="102.055625" xlink:href="#mdeb1ffc488" y="52.64125"/>
      </g>
     </g>
     <g id="text_14">
      <!-- 30 -->
      <g transform="translate(56.880625 64.038906)scale(0.3 -0.3)">
       <use xlink:href="#DejaVuSans-51"/>
       <use x="63.623047" xlink:href="#DejaVuSans-48"/>
      </g>
     </g>
    </g>
    <g id="text_15">
     <!-- T-CELL LIVE NORMALIZED -->
     <defs>
      <path d="M 23.390625 0 
L 23.390625 59.46875 
L 2.15625 59.46875 
L 2.15625 71.578125 
L 59.03125 71.578125 
L 59.03125 59.46875 
L 37.84375 59.46875 
L 37.84375 0 
z
" id="Arial-BoldMT-84"/>
      <path d="M 5.609375 19.09375 
L 5.609375 32.8125 
L 32.5625 32.8125 
L 32.5625 19.09375 
z
" id="Arial-BoldMT-45"/>
      <path d="M 53.078125 26.3125 
L 67.09375 21.875 
Q 63.875 10.15625 56.375 4.46875 
Q 48.875 -1.21875 37.359375 -1.21875 
Q 23.09375 -1.21875 13.90625 8.515625 
Q 4.734375 18.265625 4.734375 35.15625 
Q 4.734375 53.03125 13.953125 62.90625 
Q 23.1875 72.796875 38.234375 72.796875 
Q 51.375 72.796875 59.578125 65.046875 
Q 64.453125 60.453125 66.890625 51.859375 
L 52.59375 48.4375 
Q 51.3125 54 47.28125 57.21875 
Q 43.265625 60.453125 37.5 60.453125 
Q 29.546875 60.453125 24.578125 54.734375 
Q 19.625 49.03125 19.625 36.234375 
Q 19.625 22.65625 24.5 16.890625 
Q 29.390625 11.140625 37.203125 11.140625 
Q 42.96875 11.140625 47.109375 14.796875 
Q 51.265625 18.453125 53.078125 26.3125 
z
" id="Arial-BoldMT-67"/>
      <path d="M 7.28125 0 
L 7.28125 71.578125 
L 60.359375 71.578125 
L 60.359375 59.46875 
L 21.734375 59.46875 
L 21.734375 43.609375 
L 57.671875 43.609375 
L 57.671875 31.546875 
L 21.734375 31.546875 
L 21.734375 12.0625 
L 61.71875 12.0625 
L 61.71875 0 
z
" id="Arial-BoldMT-69"/>
      <path d="M 7.671875 0 
L 7.671875 71 
L 22.125 71 
L 22.125 12.0625 
L 58.0625 12.0625 
L 58.0625 0 
z
" id="Arial-BoldMT-76"/>
      <path id="Arial-BoldMT-32"/>
      <path d="M 25.53125 0 
L -0.046875 71.578125 
L 15.625 71.578125 
L 33.734375 18.609375 
L 51.265625 71.578125 
L 66.609375 71.578125 
L 40.96875 0 
z
" id="Arial-BoldMT-86"/>
      <path d="M 7.421875 0 
L 7.421875 71.578125 
L 21.484375 71.578125 
L 50.78125 23.78125 
L 50.78125 71.578125 
L 64.203125 71.578125 
L 64.203125 0 
L 49.703125 0 
L 20.84375 46.6875 
L 20.84375 0 
z
" id="Arial-BoldMT-78"/>
      <path d="M 4.34375 35.359375 
Q 4.34375 46.296875 7.625 53.71875 
Q 10.0625 59.1875 14.28125 63.53125 
Q 18.5 67.875 23.53125 69.96875 
Q 30.21875 72.796875 38.96875 72.796875 
Q 54.78125 72.796875 64.28125 62.984375 
Q 73.78125 53.171875 73.78125 35.6875 
Q 73.78125 18.359375 64.359375 8.5625 
Q 54.9375 -1.21875 39.15625 -1.21875 
Q 23.1875 -1.21875 13.765625 8.515625 
Q 4.34375 18.265625 4.34375 35.359375 
z
M 19.234375 35.84375 
Q 19.234375 23.6875 24.84375 17.40625 
Q 30.46875 11.140625 39.109375 11.140625 
Q 47.75 11.140625 53.296875 17.359375 
Q 58.84375 23.578125 58.84375 36.03125 
Q 58.84375 48.34375 53.4375 54.390625 
Q 48.046875 60.453125 39.109375 60.453125 
Q 30.171875 60.453125 24.703125 54.3125 
Q 19.234375 48.1875 19.234375 35.84375 
z
" id="Arial-BoldMT-79"/>
      <path d="M 7.078125 0 
L 7.078125 71.578125 
L 28.71875 71.578125 
L 41.703125 22.75 
L 54.546875 71.578125 
L 76.21875 71.578125 
L 76.21875 0 
L 62.796875 0 
L 62.796875 56.34375 
L 48.578125 0 
L 34.671875 0 
L 20.515625 56.34375 
L 20.515625 0 
z
" id="Arial-BoldMT-77"/>
      <path d="M 1.078125 0 
L 1.078125 13.03125 
L 38.671875 59.46875 
L 5.328125 59.46875 
L 5.328125 71.578125 
L 57.71875 71.578125 
L 57.71875 60.359375 
L 18.5 12.0625 
L 59.234375 12.0625 
L 59.234375 0 
z
" id="Arial-BoldMT-90"/>
     </defs>
     <g transform="translate(21.253125 372.879375)rotate(-90)scale(0.2 -0.2)">
      <use xlink:href="#Arial-BoldMT-84"/>
      <use x="61.005859" xlink:href="#Arial-BoldMT-45"/>
      <use x="94.306641" xlink:href="#Arial-BoldMT-67"/>
      <use x="166.523438" xlink:href="#Arial-BoldMT-69"/>
      <use x="233.222656" xlink:href="#Arial-BoldMT-76"/>
      <use x="294.306641" xlink:href="#Arial-BoldMT-76"/>
      <use x="355.375" xlink:href="#Arial-BoldMT-32"/>
      <use x="383.158203" xlink:href="#Arial-BoldMT-76"/>
      <use x="444.242188" xlink:href="#Arial-BoldMT-73"/>
      <use x="472.025391" xlink:href="#Arial-BoldMT-86"/>
      <use x="538.724609" xlink:href="#Arial-BoldMT-69"/>
      <use x="605.423828" xlink:href="#Arial-BoldMT-32"/>
      <use x="633.207031" xlink:href="#Arial-BoldMT-78"/>
      <use x="705.423828" xlink:href="#Arial-BoldMT-79"/>
      <use x="783.207031" xlink:href="#Arial-BoldMT-82"/>
      <use x="855.423828" xlink:href="#Arial-BoldMT-77"/>
      <use x="938.724609" xlink:href="#Arial-BoldMT-65"/>
      <use x="1010.941406" xlink:href="#Arial-BoldMT-76"/>
      <use x="1072.025391" xlink:href="#Arial-BoldMT-73"/>
      <use x="1099.808594" xlink:href="#Arial-BoldMT-90"/>
      <use x="1160.892578" xlink:href="#Arial-BoldMT-69"/>
      <use x="1227.591797" xlink:href="#Arial-BoldMT-68"/>
     </g>
     <!-- CELL COUNTS (NUMBERS) -->
     <defs>
      <path d="M 29.9375 -21.046875 
L 20.515625 -21.046875 
Q 13.03125 -9.765625 9.125 2.390625 
Q 5.21875 14.546875 5.21875 25.921875 
Q 5.21875 40.046875 10.0625 52.640625 
Q 14.265625 63.578125 20.703125 72.796875 
L 30.078125 72.796875 
Q 23.390625 58.015625 20.875 47.625 
Q 18.359375 37.25 18.359375 25.640625 
Q 18.359375 17.625 19.84375 9.21875 
Q 21.34375 0.828125 23.921875 -6.734375 
Q 25.640625 -11.71875 29.9375 -21.046875 
z
" id="Arial-BoldMT-40"/>
      <path d="M 7.328125 71.578125 
L 35.9375 71.578125 
Q 44.4375 71.578125 48.609375 70.875 
Q 52.78125 70.171875 56.078125 67.921875 
Q 59.375 65.671875 61.5625 61.9375 
Q 63.765625 58.203125 63.765625 53.5625 
Q 63.765625 48.53125 61.046875 44.328125 
Q 58.34375 40.140625 53.71875 38.03125 
Q 60.25 36.140625 63.765625 31.546875 
Q 67.28125 26.953125 67.28125 20.75 
Q 67.28125 15.875 65.015625 11.25 
Q 62.75 6.640625 58.8125 3.875 
Q 54.890625 1.125 49.125 0.484375 
Q 45.515625 0.09375 31.6875 0 
L 7.328125 0 
z
M 21.78125 59.671875 
L 21.78125 43.109375 
L 31.25 43.109375 
Q 39.703125 43.109375 41.75 43.359375 
Q 45.453125 43.796875 47.578125 45.921875 
Q 49.703125 48.046875 49.703125 51.515625 
Q 49.703125 54.828125 47.875 56.90625 
Q 46.046875 58.984375 42.4375 59.421875 
Q 40.28125 59.671875 30.078125 59.671875 
z
M 21.78125 31.203125 
L 21.78125 12.0625 
L 35.15625 12.0625 
Q 42.96875 12.0625 45.0625 12.5 
Q 48.296875 13.09375 50.3125 15.359375 
Q 52.34375 17.625 52.34375 21.4375 
Q 52.34375 24.65625 50.78125 26.90625 
Q 49.21875 29.15625 46.265625 30.171875 
Q 43.3125 31.203125 33.453125 31.203125 
z
" id="Arial-BoldMT-66"/>
      <path d="M 3.375 -21.046875 
Q 7.421875 -12.359375 9.078125 -7.71875 
Q 10.75 -3.078125 12.15625 2.96875 
Q 13.578125 9.03125 14.25 14.46875 
Q 14.9375 19.921875 14.9375 25.640625 
Q 14.9375 37.25 12.453125 47.625 
Q 9.96875 58.015625 3.265625 72.796875 
L 12.59375 72.796875 
Q 19.96875 62.3125 24.046875 50.53125 
Q 28.125 38.765625 28.125 26.65625 
Q 28.125 16.453125 24.90625 4.78125 
Q 21.234375 -8.296875 12.84375 -21.046875 
z
" id="Arial-BoldMT-41"/>
     </defs>
     <g transform="translate(42.67125 374.002812)rotate(-90)scale(0.2 -0.2)">
      <use xlink:href="#Arial-BoldMT-67"/>
      <use x="72.216797" xlink:href="#Arial-BoldMT-69"/>
      <use x="138.916016" xlink:href="#Arial-BoldMT-76"/>
      <use x="200" xlink:href="#Arial-BoldMT-76"/>
      <use x="261.068359" xlink:href="#Arial-BoldMT-32"/>
      <use x="288.851562" xlink:href="#Arial-BoldMT-67"/>
      <use x="361.068359" xlink:href="#Arial-BoldMT-79"/>
      <use x="438.851562" xlink:href="#Arial-BoldMT-85"/>
      <use x="511.068359" xlink:href="#Arial-BoldMT-78"/>
      <use x="583.285156" xlink:href="#Arial-BoldMT-84"/>
      <use x="644.369141" xlink:href="#Arial-BoldMT-83"/>
      <use x="711.068359" xlink:href="#Arial-BoldMT-32"/>
      <use x="738.851562" xlink:href="#Arial-BoldMT-40"/>
      <use x="772.152344" xlink:href="#Arial-BoldMT-78"/>
      <use x="844.369141" xlink:href="#Arial-BoldMT-85"/>
      <use x="916.585938" xlink:href="#Arial-BoldMT-77"/>
      <use x="999.886719" xlink:href="#Arial-BoldMT-66"/>
      <use x="1072.103516" xlink:href="#Arial-BoldMT-69"/>
      <use x="1138.802734" xlink:href="#Arial-BoldMT-82"/>
      <use x="1211.019531" xlink:href="#Arial-BoldMT-83"/>
      <use x="1277.71875" xlink:href="#Arial-BoldMT-41"/>
     </g>
    </g>
   </g>
   <g id="line2d_14">
    <path clip-path="url(#p36a4d50214)" d="M 102.055625 242.90125 
L 113.891989 113.94725 
L 125.728352 144.60025 
L 137.564716 130.154583 
L 149.40108 118.70375 
L 161.237443 127.05405 
L 173.073807 118.17525 
L 184.91017 115.15525 
L 196.746534 125.04575 
L 208.582898 123.812583 
L 220.419261 114.37005 
L 232.255625 112.409795 
L 244.091989 130.85925 
L 255.928352 122.565865 
L 267.764716 112.58825 
L 279.60108 124.51725 
L 291.437443 114.47575 
L 303.273807 117.304779 
L 315.11017 115.708917 
L 326.946534 113.835987 
L 338.782898 105.38555 
L 350.619261 114.85325 
L 362.455625 113.274614 
L 374.291989 114.590641 
L 386.128352 114.123417 
L 397.964716 125.10917 
L 409.80108 117.280865 
L 421.637443 125.535102 
L 433.473807 114.32475 
L 445.31017 120.945319 
L 457.146534 133.466517 
L 468.982898 132.359508 
L 480.819261 141.627437 
L 492.655625 145.080705 
" style="fill:none;stroke:#08306b;stroke-linecap:square;stroke-width:1.5;"/>
   </g>
   <g id="line2d_15">
    <path clip-path="url(#p36a4d50214)" d="M 102.055625 78.00925 
L 113.891989 107.60525 
L 125.728352 104.43425 
L 137.564716 111.128583 
L 149.40108 127.68825 
L 161.237443 132.12765 
L 173.073807 133.677917 
L 184.91017 129.65125 
L 196.746534 127.15975 
L 208.582898 124.752139 
L 220.419261 122.61465 
L 232.255625 125.285977 
L 244.091989 117.294417 
L 255.928352 123.704173 
L 267.764716 124.97025 
L 279.60108 109.71925 
L 291.437443 112.758125 
L 303.273807 121.284074 
L 315.11017 116.531028 
L 326.946534 114.503566 
L 338.782898 117.11825 
L 350.619261 117.87325 
L 362.455625 121.154068 
L 374.291989 115.050207 
L 386.128352 126.455083 
L 397.964716 125.53197 
L 409.80108 117.280865 
L 421.637443 122.794731 
L 433.473807 130.78375 
L 445.31017 118.39394 
L 457.146534 119.514117 
L 468.982898 129.69996 
L 480.819261 127.424 
L 492.655625 134.959129 
" style="fill:none;stroke:#08306b;stroke-linecap:square;stroke-width:1.5;"/>
   </g>
   <g id="line2d_16">
    <path clip-path="url(#p36a4d50214)" d="M 102.055625 90.69325 
L 113.891989 101.26325 
L 125.728352 108.66225 
L 137.564716 111.83325 
L 149.40108 118.17525 
L 161.237443 105.06845 
L 173.073807 89.988583 
L 184.91017 109.41725 
L 196.746534 123.7245 
L 208.582898 127.570806 
L 220.419261 120.28925 
L 232.255625 116.637795 
L 244.091989 129.626083 
L 255.928352 115.736019 
L 267.764716 113.34325 
L 279.60108 121.275783 
L 291.437443 120.949875 
L 303.273807 127.377368 
L 315.11017 120.28925 
L 326.946534 119.287882 
L 338.782898 120.71205 
L 350.619261 128.644583 
L 362.455625 128.649159 
L 374.291989 108.156728 
L 386.128352 109.807333 
L 397.964716 113.10165 
L 409.80108 111.83325 
L 421.637443 112.068139 
L 433.473807 113.19225 
L 445.31017 118.758422 
L 457.146534 125.99705 
L 468.982898 126.699444 
L 480.819261 120.619562 
L 492.655625 132.717008 
" style="fill:none;stroke:#08306b;stroke-linecap:square;stroke-width:1.5;"/>
   </g>
   <g id="line2d_17">
    <path clip-path="url(#p36a4d50214)" d="M 102.055625 128.74525 
L 113.891989 111.83325 
L 125.728352 126.63125 
L 137.564716 101.26325 
L 149.40108 117.11825 
L 161.237443 110.98765 
L 173.073807 118.879917 
L 184.91017 123.00725 
L 196.746534 125.8385 
L 208.582898 136.261694 
L 220.419261 124.72865 
L 232.255625 126.054705 
L 244.091989 123.636417 
L 255.928352 118.988327 
L 267.764716 115.91025 
L 279.60108 120.430183 
L 291.437443 103.773625 
L 303.273807 107.729603 
L 315.11017 121.34625 
L 326.946534 115.171145 
L 338.782898 119.76075 
L 350.619261 122.201917 
L 362.455625 122.40325 
L 374.291989 118.17525 
L 386.128352 110.071583 
L 397.964716 120.54293 
L 409.80108 116.06125 
L 421.637443 117.627176 
L 433.473807 122.93175 
L 445.31017 125.100422 
L 457.146534 129.027117 
L 468.982898 121.994089 
L 480.819261 128.414937 
L 492.655625 132.97325 
" style="fill:none;stroke:#08306b;stroke-linecap:square;stroke-width:1.5;"/>
   </g>
   <g id="line2d_18">
    <path clip-path="url(#p36a4d50214)" d="M 102.055625 141.42925 
L 113.891989 118.17525 
L 125.728352 109.71925 
L 137.564716 113.242583 
L 149.40108 124.51725 
L 161.237443 127.47685 
L 173.073807 119.584583 
L 184.91017 133.27525 
L 196.746534 120.5535 
L 208.582898 114.417028 
L 220.419261 113.94725 
L 232.255625 125.285977 
L 244.091989 112.185583 
L 255.928352 113.784635 
L 267.764716 124.06425 
L 279.60108 115.074717 
L 291.437443 109.9835 
L 303.273807 129.118309 
L 315.11017 134.03025 
L 326.946534 119.399145 
L 338.782898 126.52555 
L 350.619261 131.060583 
L 362.455625 124.901614 
L 374.291989 128.74525 
L 386.128352 124.253 
L 397.964716 117.41421 
L 409.80108 113.865942 
L 421.637443 118.645028 
L 433.473807 116.43875 
L 445.31017 120.872422 
L 457.146534 120.641583 
L 468.982898 123.767121 
L 480.819261 128.877375 
L 492.655625 143.415129 
" style="fill:none;stroke:#08306b;stroke-linecap:square;stroke-width:1.5;"/>
   </g>
   <g id="line2d_19">
    <path clip-path="url(#p36a4d50214)" d="M 102.055625 78.00925 
L 113.891989 99.14925 
L 125.728352 140.37225 
L 137.564716 130.154583 
L 149.40108 125.57425 
L 161.237443 102.10885 
L 173.073807 116.06125 
L 184.91017 118.17525 
L 196.746534 125.31 
L 208.582898 129.684806 
L 220.419261 134.45305 
L 232.255625 118.367432 
L 244.091989 117.470583 
L 255.928352 120.28925 
L 267.764716 125.12125 
L 279.60108 122.966983 
L 291.437443 125.04575 
L 303.273807 128.372191 
L 315.11017 117.000806 
L 326.946534 124.405987 
L 338.782898 116.37835 
L 350.619261 116.66525 
L 362.455625 128.264795 
L 374.291989 133.157076 
L 386.128352 129.0095 
L 397.964716 125.53197 
L 409.80108 131.591019 
L 421.637443 126.161472 
L 433.473807 123.23375 
L 445.31017 125.756491 
L 457.146534 129.097583 
L 468.982898 126.767637 
L 480.819261 129.405875 
L 492.655625 133.485735 
" style="fill:none;stroke:#08306b;stroke-linecap:square;stroke-width:1.5;"/>
   </g>
   <g id="line2d_20">
    <path clip-path="url(#p36a4d50214)" d="M 102.055625 90.69325 
L 113.891989 78.00925 
L 125.728352 115.00425 
L 137.564716 118.17525 
L 149.40108 132.44475 
L 161.237443 118.59805 
L 173.073807 113.94725 
L 184.91017 119.98725 
L 196.746534 113.683 
L 208.582898 110.658806 
L 220.419261 117.32965 
L 232.255625 124.132886 
L 244.091989 113.771083 
L 255.928352 115.085558 
L 267.764716 106.24625 
L 279.60108 120.430183 
L 291.437443 121.6105 
L 303.273807 115.812544 
L 315.11017 119.819472 
L 326.946534 119.399145 
L 338.782898 120.81775 
L 350.619261 123.00725 
L 362.455625 122.018886 
L 374.291989 113.671511 
L 386.128352 124.164917 
L 397.964716 126.80037 
L 409.80108 118.907019 
L 421.637443 122.873028 
L 433.473807 111.53125 
L 445.31017 117.592078 
L 457.146534 117.470583 
L 468.982898 128.131508 
L 480.819261 133.964187 
L 492.655625 148.155614 
" style="fill:none;stroke:#08306b;stroke-linecap:square;stroke-width:1.5;"/>
   </g>
   <g id="line2d_21">
    <path clip-path="url(#p36a4d50214)" d="M 102.055625 116.06125 
L 113.891989 124.51725 
L 125.728352 125.57425 
L 137.564716 118.879917 
L 149.40108 135.61575 
L 161.237443 128.74525 
L 173.073807 115.00425 
L 184.91017 116.96725 
L 196.746534 118.968 
L 208.582898 133.912806 
L 220.419261 117.11825 
L 232.255625 127.784341 
L 244.091989 129.27375 
L 255.928352 129.558327 
L 267.764716 134.03025 
L 279.60108 121.275783 
L 291.437443 116.854 
L 303.273807 105.366897 
L 315.11017 104.904028 
L 326.946534 105.49125 
L 338.782898 113.63015 
L 350.619261 126.02725 
L 362.455625 128.553068 
L 374.291989 134.535772 
L 386.128352 122.6675 
L 397.964716 135.67917 
L 409.80108 136.388173 
L 421.637443 131.720509 
L 433.473807 117.19375 
L 445.31017 111.979043 
L 457.146534 112.89025 
L 468.982898 122.607831 
L 480.819261 124.054812 
L 492.655625 135.471614 
" style="fill:none;stroke:#08306b;stroke-linecap:square;stroke-width:1.5;"/>
   </g>
   <g id="line2d_22">
    <path clip-path="url(#p36a4d50214)" d="M 102.055625 52.64125 
L 113.891989 94.92125 
L 125.728352 103.37725 
L 137.564716 130.85925 
L 149.40108 124.51725 
L 161.237443 119.02085 
L 173.073807 128.040583 
L 184.91017 127.53725 
L 196.746534 127.68825 
L 208.582898 131.563917 
L 220.419261 116.90685 
L 232.255625 119.328341 
L 244.091989 119.056083 
L 255.928352 119.638788 
L 267.764716 116.06125 
L 279.60108 113.665383 
L 291.437443 101.131125 
L 303.273807 110.589721 
L 315.11017 112.420472 
L 326.946534 120.066724 
L 338.782898 110.56485 
L 350.619261 122.906583 
L 362.455625 124.325068 
L 374.291989 114.222989 
L 386.128352 124.076833 
L 397.964716 114.87741 
L 409.80108 115.248173 
L 421.637443 116.06125 
L 433.473807 115.60825 
L 445.31017 119.633181 
L 457.146534 124.30585 
L 468.982898 119.33454 
L 480.819261 125.243937 
L 492.655625 133.165432 
" style="fill:none;stroke:#08306b;stroke-linecap:square;stroke-width:1.5;"/>
   </g>
   <g id="line2d_23">
    <path clip-path="url(#p36a4d50214)" d="M 102.055625 103.37725 
L 113.891989 120.28925 
L 125.728352 146.71425 
L 137.564716 110.423917 
L 149.40108 131.38775 
L 161.237443 135.93285 
L 173.073807 131.563917 
L 184.91017 105.49125 
L 196.746534 104.17 
L 208.582898 98.209694 
L 220.419261 97.45805 
L 232.255625 99.533614 
L 244.091989 92.102583 
L 255.928352 117.036942 
L 267.764716 115.00425 
L 279.60108 123.67165 
L 291.437443 129.0095 
L 303.273807 128.496544 
L 315.11017 129.80225 
L 326.946534 127.521355 
L 338.782898 121.45195 
L 350.619261 119.68525 
L 362.455625 117.11825 
L 374.291989 112.75238 
L 386.128352 115.444667 
L 397.964716 119.44365 
L 409.80108 126.224712 
L 421.637443 120.524139 
L 433.473807 125.49875 
L 445.31017 124.29856 
L 457.146534 130.154583 
L 468.982898 128.199702 
L 480.819261 125.31 
L 492.655625 127.784341 
" style="fill:none;stroke:#08306b;stroke-linecap:square;stroke-width:1.5;"/>
   </g>
   <g id="line2d_24">
    <path clip-path="url(#p36a4d50214)" d="M 102.055625 242.90125 
L 113.891989 192.16525 
L 125.728352 205.90625 
L 137.564716 166.79725 
L 149.40108 139.84375 
L 161.237443 143.96605 
L 173.073807 165.74025 
L 184.91017 185.21925 
L 196.746534 178.42425 
L 208.582898 188.172139 
L 220.419261 191.31965 
L 232.255625 200.236886 
L 244.091989 187.056417 
L 255.928352 174.928019 
L 267.764716 163.62625 
L 279.60108 164.68325 
L 291.437443 174.856875 
L 303.273807 175.128897 
L 315.11017 174.666028 
L 326.946534 173.473039 
L 338.782898 175.46465 
L 350.619261 169.81725 
L 362.455625 178.135977 
L 374.291989 178.194467 
L 386.128352 167.0615 
L 397.964716 182.77909 
L 409.80108 177.692481 
L 421.637443 178.619991 
L 433.473807 175.85725 
L 445.31017 179.48125 
L 457.146534 178.283317 
L 468.982898 190.869573 
L 480.819261 190.844 
L 492.655625 205.746098 
" style="fill:none;stroke:#4a98c9;stroke-linecap:square;stroke-width:1.5;"/>
   </g>
   <g id="line2d_25">
    <path clip-path="url(#p36a4d50214)" d="M 102.055625 192.16525 
L 113.891989 164.68325 
L 125.728352 196.39325 
L 137.564716 187.93725 
L 149.40108 176.83875 
L 161.237443 204.42645 
L 173.073807 197.802583 
L 184.91017 200.92325 
L 196.746534 207.2275 
L 208.582898 199.916583 
L 220.419261 188.36005 
L 232.255625 169.872159 
L 244.091989 154.289417 
L 255.928352 162.406635 
L 267.764716 160.90825 
L 279.60108 146.92565 
L 291.437443 156.22725 
L 303.273807 164.807603 
L 315.11017 158.811028 
L 326.946534 167.909882 
L 338.782898 171.76515 
L 350.619261 169.615917 
L 362.455625 162.088795 
L 374.291989 176.17238 
L 386.128352 180.00975 
L 397.964716 167.30461 
L 409.80108 177.123327 
L 421.637443 175.096657 
L 433.473807 177.44275 
L 445.31017 180.647595 
L 457.146534 174.548583 
L 468.982898 188.619185 
L 480.819261 182.784375 
L 492.655625 197.226038 
" style="fill:none;stroke:#4a98c9;stroke-linecap:square;stroke-width:1.5;"/>
   </g>
   <g id="line2d_26">
    <path clip-path="url(#p36a4d50214)" d="M 102.055625 230.21725 
L 113.891989 217.53325 
L 125.728352 243.95825 
L 137.564716 204.144583 
L 149.40108 188.46575 
L 161.237443 170.60245 
L 173.073807 181.59525 
L 184.91017 178.87725 
L 196.746534 166.26875 
L 208.582898 162.804139 
L 220.419261 179.26985 
L 232.255625 167.565977 
L 244.091989 163.62625 
L 255.928352 184.197096 
L 267.764716 183.55825 
L 279.60108 198.50725 
L 291.437443 201.14975 
L 303.273807 192.662662 
L 315.11017 190.638472 
L 326.946534 194.27925 
L 338.782898 182.86365 
L 350.619261 190.856583 
L 362.455625 184.477977 
L 374.291989 174.701772 
L 386.128352 174.989 
L 397.964716 179.73493 
L 409.80108 180.944788 
L 421.637443 189.42488 
L 433.473807 185.29475 
L 445.31017 185.167181 
L 457.146534 185.118583 
L 468.982898 169.388605 
L 480.819261 175.78175 
L 492.655625 193.830826 
" style="fill:none;stroke:#4a98c9;stroke-linecap:square;stroke-width:1.5;"/>
   </g>
   <g id="line2d_27">
    <path clip-path="url(#p36a4d50214)" d="M 102.055625 103.37725 
L 113.891989 147.77125 
L 125.728352 145.65725 
L 137.564716 154.11325 
L 149.40108 152.52775 
L 161.237443 154.11325 
L 173.073807 159.045917 
L 184.91017 170.11925 
L 196.746534 159.92675 
L 208.582898 204.144583 
L 220.419261 195.97045 
L 232.255625 212.536523 
L 244.091989 191.460583 
L 255.928352 178.993404 
L 267.764716 188.39025 
L 279.60108 193.997383 
L 291.437443 183.9735 
L 303.273807 188.434662 
L 315.11017 179.48125 
L 326.946534 169.245039 
L 338.782898 168.80555 
L 350.619261 164.68325 
L 362.455625 163.241886 
L 374.291989 158.525076 
L 386.128352 153.672833 
L 397.964716 163.49941 
L 409.80108 152.731019 
L 421.637443 171.338435 
L 433.473807 188.08825 
L 445.31017 176.492491 
L 457.146534 180.608717 
L 468.982898 183.641056 
L 480.819261 180.8025 
L 492.655625 203.82428 
" style="fill:none;stroke:#4a98c9;stroke-linecap:square;stroke-width:1.5;"/>
   </g>
   <g id="line2d_28">
    <path clip-path="url(#p36a4d50214)" d="M 102.055625 154.11325 
L 113.891989 168.91125 
L 125.728352 158.34125 
L 137.564716 161.159917 
L 149.40108 140.90075 
L 161.237443 136.77845 
L 173.073807 162.56925 
L 184.91017 173.74325 
L 196.746534 171.02525 
L 208.582898 186.762806 
L 220.419261 167.85425 
L 232.255625 160.647432 
L 244.091989 153.58475 
L 255.928352 163.219712 
L 267.764716 169.51525 
L 279.60108 153.69045 
L 291.437443 159.530375 
L 303.273807 170.652191 
L 315.11017 167.971694 
L 326.946534 169.133776 
L 338.782898 190.36835 
L 350.619261 187.03125 
L 362.455625 187.745068 
L 374.291989 180.492293 
L 386.128352 171.818 
L 397.964716 160.87805 
L 409.80108 151.267481 
L 421.637443 160.611843 
L 433.473807 155.24575 
L 445.31017 159.216009 
L 457.146534 171.02525 
L 468.982898 201.644153 
L 480.819261 194.741687 
L 492.655625 211.831856 
" style="fill:none;stroke:#4a98c9;stroke-linecap:square;stroke-width:1.5;"/>
   </g>
   <g id="line2d_29">
    <path clip-path="url(#p36a4d50214)" d="M 102.055625 90.69325 
L 113.891989 223.87525 
L 125.728352 155.17025 
L 137.564716 194.27925 
L 149.40108 252.41425 
L 161.237443 225.14365 
L 173.073807 208.02025 
L 184.91017 227.80125 
L 196.746534 188.2015 
L 208.582898 197.567694 
L 220.419261 187.93725 
L 232.255625 179.48125 
L 244.091989 173.843917 
L 255.928352 172.976635 
L 267.764716 190.95725 
L 279.60108 193.997383 
L 291.437443 166.136625 
L 303.273807 170.030426 
L 315.11017 161.864583 
L 326.946534 157.673671 
L 338.782898 151.25935 
L 350.619261 157.032583 
L 362.455625 153.344523 
L 374.291989 171.300989 
L 386.128352 172.434583 
L 397.964716 178.97389 
L 409.80108 172.976635 
L 421.637443 184.179028 
L 433.473807 198.96025 
L 445.31017 185.094284 
L 457.146534 175.112317 
L 468.982898 176.617121 
L 480.819261 176.112062 
L 492.655625 192.16525 
" style="fill:none;stroke:#4a98c9;stroke-linecap:square;stroke-width:1.5;"/>
   </g>
   <g id="line2d_30">
    <path clip-path="url(#p36a4d50214)" d="M 102.055625 344.37325 
L 113.891989 245.01525 
L 125.728352 171.02525 
L 137.564716 190.755917 
L 149.40108 169.96825 
L 161.237443 189.62845 
L 173.073807 160.45525 
L 184.91017 163.77725 
L 196.746534 190.57975 
L 208.582898 153.878361 
L 220.419261 163.41485 
L 232.255625 155.266341 
L 244.091989 145.833417 
L 255.928352 152.812327 
L 267.764716 158.19025 
L 279.60108 165.669783 
L 291.437443 182.520125 
L 303.273807 165.180662 
L 315.11017 159.750583 
L 326.946534 154.558303 
L 338.782898 159.08115 
L 350.619261 165.387917 
L 362.455625 173.427523 
L 374.291989 173.231163 
L 386.128352 171.2895 
L 397.964716 172.37821 
L 409.80108 178.505558 
L 421.637443 176.975769 
L 433.473807 185.29475 
L 445.31017 172.045802 
L 457.146534 180.96105 
L 468.982898 194.756605 
L 480.819261 184.634125 
L 492.655625 208.628826 
" style="fill:none;stroke:#4a98c9;stroke-linecap:square;stroke-width:1.5;"/>
   </g>
   <g id="line2d_31">
    <path clip-path="url(#p36a4d50214)" d="M 102.055625 141.42925 
L 113.891989 143.54325 
L 125.728352 157.28425 
L 137.564716 140.724583 
L 149.40108 151.47075 
L 161.237443 145.23445 
L 173.073807 139.31525 
L 184.91017 139.01325 
L 196.746534 130.85925 
L 208.582898 161.629694 
L 220.419261 158.12985 
L 232.255625 161.416159 
L 244.091989 175.605583 
L 255.928352 170.862635 
L 267.764716 164.38125 
L 279.60108 147.77125 
L 291.437443 155.4345 
L 303.273807 161.201368 
L 315.11017 159.515694 
L 326.946534 170.691461 
L 338.782898 168.69985 
L 350.619261 170.72325 
L 362.455625 183.901432 
L 374.291989 181.135685 
L 386.128352 179.040833 
L 397.964716 174.32309 
L 409.80108 179.969096 
L 421.637443 178.85488 
L 433.473807 189.44725 
L 445.31017 177.36725 
L 457.146534 173.068783 
L 468.982898 177.844605 
L 480.819261 170.562812 
L 492.655625 199.019735 
" style="fill:none;stroke:#4a98c9;stroke-linecap:square;stroke-width:1.5;"/>
   </g>
   <g id="line2d_32">
    <path clip-path="url(#p36a4d50214)" d="M 102.055625 14.58925 
L 113.891989 137.20125 
L 125.728352 167.85425 
L 137.564716 128.74525 
L 149.40108 188.46575 
L 161.237443 189.20565 
L 173.073807 198.859583 
L 184.91017 190.95725 
L 196.746534 196.39325 
L 208.582898 177.837028 
L 220.419261 162.35785 
L 232.255625 163.722341 
L 244.091989 169.96825 
L 255.928352 161.756173 
L 267.764716 163.62625 
L 279.60108 177.79005 
L 291.437443 162.8335 
L 303.273807 161.574426 
L 315.11017 145.774694 
L 326.946534 147.882513 
L 338.782898 150.09665 
L 350.619261 140.22125 
L 362.455625 151.807068 
L 374.291989 148.506554 
L 386.128352 144.512167 
L 397.964716 146.67197 
L 409.80108 162.650558 
L 421.637443 162.021176 
L 433.473807 168.98675 
L 445.31017 172.118698 
L 457.146534 171.166183 
L 468.982898 178.594734 
L 480.819261 166.466937 
L 492.655625 184.862341 
" style="fill:none;stroke:#4a98c9;stroke-linecap:square;stroke-width:1.5;"/>
   </g>
   <g id="line2d_33">
    <path clip-path="url(#p36a4d50214)" d="M 102.055625 217.53325 
L 113.891989 306.32125 
L 125.728352 246.07225 
L 137.564716 209.781917 
L 149.40108 190.57975 
L 161.237443 165.52885 
L 173.073807 136.14425 
L 184.91017 125.42325 
L 196.746534 127.15975 
L 208.582898 124.51725 
L 220.419261 126.63125 
L 232.255625 136.624705 
L 244.091989 150.94225 
L 255.928352 176.716788 
L 267.764716 171.93125 
L 279.60108 209.359117 
L 291.437443 185.691125 
L 303.273807 166.548544 
L 315.11017 157.401694 
L 326.946534 159.898934 
L 338.782898 167.64285 
L 350.619261 168.810583 
L 362.455625 162.473159 
L 374.291989 171.852467 
L 386.128352 178.248083 
L 397.964716 176.01429 
L 409.80108 170.212173 
L 421.637443 174.391991 
L 433.473807 161.51225 
L 445.31017 160.017871 
L 457.146534 165.669783 
L 468.982898 158.34125 
L 480.819261 174.922937 
L 492.655625 200.108765 
" style="fill:none;stroke:#4a98c9;stroke-linecap:square;stroke-width:1.5;"/>
   </g>
   <g id="line2d_34">
    <path clip-path="url(#p36a4d50214)" d="M 102.055625 344.37325 
L 113.891989 342.25925 
L 125.728352 302.09325 
L 137.564716 301.388583 
L 149.40108 324.29025 
L 161.237443 296.59685 
L 173.073807 320.766917 
L 184.91017 315.98525 
L 196.746534 344.37325 
L 208.582898 312.428361 
L 220.419261 321.54205 
L 232.255625 345.334159 
L 244.091989 332.922417 
L 255.928352 337.706019 
L 267.764716 336.67225 
L 279.60108 319.709917 
L 291.437443 318.741 
L 303.273807 319.502662 
L 315.11017 323.115806 
L 326.946534 325.124724 
L 338.782898 343.52765 
L 350.619261 338.836583 
L 362.455625 339.953068 
L 374.291989 338.398902 
L 386.128352 314.865333 
L 397.964716 328.30685 
L 409.80108 322.501481 
L 421.637443 316.734657 
L 433.473807 315.38125 
L 445.31017 308.872629 
L 457.146534 297.371983 
L 468.982898 286.13596 
L 480.819261 287.229187 
L 492.655625 293.957553 
" style="fill:none;stroke:#d0e1f2;stroke-linecap:square;stroke-width:1.5;"/>
   </g>
   <g id="line2d_35">
    <path clip-path="url(#p36a4d50214)" d="M 102.055625 433.16125 
L 113.891989 331.68925 
L 125.728352 290.46625 
L 137.564716 285.885917 
L 149.40108 274.08275 
L 161.237443 272.07445 
L 173.073807 286.942917 
L 184.91017 299.07325 
L 196.746534 319.00525 
L 208.582898 324.642583 
L 220.419261 332.53485 
L 232.255625 308.43525 
L 244.091989 321.11925 
L 255.928352 336.079865 
L 267.764716 325.19625 
L 279.60108 315.62285 
L 291.437443 347.412125 
L 303.273807 334.425015 
L 315.11017 335.447472 
L 326.946534 336.028513 
L 338.782898 339.61675 
L 350.619261 327.058583 
L 362.455625 324.001977 
L 374.291989 313.030902 
L 386.128352 319.181417 
L 397.964716 313.33973 
L 409.80108 326.729481 
L 421.637443 327.304657 
L 433.473807 323.61075 
L 445.31017 321.702422 
L 457.146534 310.690183 
L 468.982898 308.230669 
L 480.819261 282.670875 
L 492.655625 303.951008 
" style="fill:none;stroke:#d0e1f2;stroke-linecap:square;stroke-width:1.5;"/>
   </g>
   <g id="line2d_36">
    <path clip-path="url(#p36a4d50214)" d="M 102.055625 382.42525 
L 113.891989 251.35725 
L 125.728352 265.09825 
L 137.564716 253.47125 
L 149.40108 286.23825 
L 161.237443 295.32845 
L 173.073807 303.502583 
L 184.91017 353.73525 
L 196.746534 326.14 
L 208.582898 328.165917 
L 220.419261 332.95765 
L 232.255625 318.428705 
L 244.091989 305.088083 
L 255.928352 298.678327 
L 267.764716 305.41525 
L 279.60108 311.112983 
L 291.437443 319.2695 
L 303.273807 333.057132 
L 315.11017 337.444028 
L 326.946534 334.248303 
L 338.782898 335.07165 
L 350.619261 338.03125 
L 362.455625 336.685977 
L 374.291989 329.759076 
L 386.128352 322.528583 
L 397.964716 341.75189 
L 409.80108 324.940712 
L 421.637443 329.57525 
L 433.473807 324.21475 
L 445.31017 317.10994 
L 457.146534 313.015583 
L 468.982898 293.159895 
L 480.819261 288.748625 
L 492.655625 311.958583 
" style="fill:none;stroke:#d0e1f2;stroke-linecap:square;stroke-width:1.5;"/>
   </g>
   <g id="line2d_37">
    <path clip-path="url(#p36a4d50214)" d="M 102.055625 433.16125 
L 113.891989 376.08325 
L 125.728352 361.28525 
L 137.564716 347.896583 
L 149.40108 342.25925 
L 161.237443 339.72245 
L 173.073807 328.870583 
L 184.91017 306.32125 
L 196.746534 346.223 
L 208.582898 336.152139 
L 220.419261 338.66545 
L 232.255625 332.265795 
L 244.091989 330.279917 
L 255.928352 316.403404 
L 267.764716 332.89725 
L 279.60108 331.971117 
L 291.437443 323.101125 
L 303.273807 319.129603 
L 315.11017 321.471583 
L 326.946534 321.786829 
L 338.782898 325.13585 
L 350.619261 322.62925 
L 362.455625 330.63225 
L 374.291989 328.839946 
L 386.128352 320.678833 
L 397.964716 328.89877 
L 409.80108 309.980096 
L 421.637443 312.115176 
L 433.473807 313.41825 
L 445.31017 294.512009 
L 457.146534 296.526383 
L 468.982898 284.567508 
L 480.819261 269.986875 
L 492.655625 290.49828 
" style="fill:none;stroke:#d0e1f2;stroke-linecap:square;stroke-width:1.5;"/>
   </g>
   <g id="line2d_38">
    <path clip-path="url(#p36a4d50214)" d="M 102.055625 382.42525 
L 113.891989 382.42525 
L 125.728352 344.37325 
L 137.564716 336.621917 
L 149.40108 361.81375 
L 161.237443 330.84365 
L 173.073807 332.041583 
L 184.91017 342.86325 
L 196.746534 346.7515 
L 208.582898 331.454361 
L 220.419261 345.43025 
L 232.255625 340.529614 
L 244.091989 336.269583 
L 255.928352 319.655712 
L 267.764716 320.51525 
L 279.60108 305.334717 
L 291.437443 303.018125 
L 303.273807 295.626897 
L 315.11017 294.224472 
L 326.946534 293.859776 
L 338.782898 295.11705 
L 350.619261 294.643917 
L 362.455625 309.300068 
L 374.291989 312.387511 
L 386.128352 329.311 
L 397.964716 338.62317 
L 409.80108 325.022019 
L 421.637443 324.094509 
L 433.473807 321.94975 
L 445.31017 330.595802 
L 457.146534 319.146183 
L 468.982898 314.640863 
L 480.819261 304.867875 
L 492.655625 311.382038 
" style="fill:none;stroke:#d0e1f2;stroke-linecap:square;stroke-width:1.5;"/>
   </g>
   <g id="line2d_39">
    <path clip-path="url(#p36a4d50214)" d="M 102.055625 255.58525 
L 113.891989 310.54925 
L 125.728352 344.37325 
L 137.564716 355.647917 
L 149.40108 361.81375 
L 161.237443 361.28525 
L 173.073807 347.896583 
L 184.91017 333.19925 
L 196.746534 325.87575 
L 208.582898 307.730583 
L 220.419261 306.95545 
L 232.255625 297.288705 
L 244.091989 307.025917 
L 255.928352 314.452019 
L 267.764716 323.53525 
L 279.60108 338.313117 
L 291.437443 325.083 
L 303.273807 316.518191 
L 315.11017 316.89125 
L 326.946534 317.781355 
L 338.782898 315.72855 
L 350.619261 329.071917 
L 362.455625 331.977523 
L 374.291989 329.023772 
L 386.128352 326.051917 
L 397.964716 333.63413 
L 409.80108 318.110865 
L 421.637443 325.268954 
L 433.473807 334.33175 
L 445.31017 305.009112 
L 457.146534 311.676717 
L 468.982898 294.455573 
L 480.819261 266.4195 
L 492.655625 301.196402 
" style="fill:none;stroke:#d0e1f2;stroke-linecap:square;stroke-width:1.5;"/>
   </g>
   <g id="line2d_40">
    <path clip-path="url(#p36a4d50214)" d="M 102.055625 433.16125 
L 113.891989 344.37325 
L 125.728352 324.29025 
L 137.564716 361.28525 
L 149.40108 327.46125 
L 161.237443 346.91005 
L 173.073807 318.300583 
L 184.91017 317.19325 
L 196.746534 320.855 
L 208.582898 312.193472 
L 220.419261 319.85085 
L 232.255625 324.770705 
L 244.091989 341.906917 
L 255.928352 326.648173 
L 267.764716 321.57225 
L 279.60108 318.018717 
L 291.437443 316.494875 
L 303.273807 317.139956 
L 315.11017 309.374806 
L 326.946534 317.892618 
L 338.782898 323.76175 
L 350.619261 326.051917 
L 362.455625 323.425432 
L 374.291989 329.023772 
L 386.128352 334.684083 
L 397.964716 334.98709 
L 409.80108 319.493096 
L 421.637443 331.06288 
L 433.473807 312.21025 
L 445.31017 320.171595 
L 457.146534 315.481917 
L 468.982898 311.776734 
L 480.819261 293.306937 
L 492.655625 304.655674 
" style="fill:none;stroke:#d0e1f2;stroke-linecap:square;stroke-width:1.5;"/>
   </g>
   <g id="line2d_41">
    <path clip-path="url(#p36a4d50214)" d="M 102.055625 78.00925 
L 113.891989 173.13925 
L 125.728352 237.61625 
L 137.564716 221.76125 
L 149.40108 247.12925 
L 161.237443 268.26925 
L 173.073807 288.704583 
L 184.91017 297.56325 
L 196.746534 311.60625 
L 208.582898 306.086361 
L 220.419261 335.28305 
L 232.255625 329.767432 
L 244.091989 321.295417 
L 255.928352 334.616327 
L 267.764716 331.38725 
L 279.60108 344.655117 
L 291.437443 333.406875 
L 303.273807 325.222897 
L 315.11017 325.934472 
L 326.946534 326.459882 
L 338.782898 325.24155 
L 350.619261 323.736583 
L 362.455625 326.788614 
L 374.291989 314.225772 
L 386.128352 313.9845 
L 397.964716 310.29557 
L 409.80108 315.427712 
L 421.637443 316.186583 
L 433.473807 317.64625 
L 445.31017 319.588422 
L 457.146534 315.059117 
L 468.982898 309.253573 
L 480.819261 291.126875 
L 492.655625 316.955311 
" style="fill:none;stroke:#d0e1f2;stroke-linecap:square;stroke-width:1.5;"/>
   </g>
   <g id="line2d_42">
    <path clip-path="url(#p36a4d50214)" d="M 102.055625 407.79325 
L 113.891989 371.85525 
L 125.728352 378.19725 
L 137.564716 390.176583 
L 149.40108 347.01575 
L 161.237443 328.72965 
L 173.073807 330.984583 
L 184.91017 326.25325 
L 196.746534 311.8705 
L 208.582898 313.602806 
L 220.419261 299.34505 
L 232.255625 324.001977 
L 244.091989 318.829083 
L 255.928352 314.289404 
L 267.764716 321.87425 
L 279.60108 330.279917 
L 291.437443 333.539 
L 303.273807 328.580426 
L 315.11017 326.639139 
L 326.946534 321.11925 
L 338.782898 312.76895 
L 350.619261 321.018583 
L 362.455625 330.055705 
L 374.291989 322.957511 
L 386.128352 324.730667 
L 397.964716 337.43933 
L 409.80108 331.68925 
L 421.637443 321.902213 
L 433.473807 316.66475 
L 445.31017 304.134353 
L 457.146534 300.683917 
L 468.982898 283.680992 
L 480.819261 269.722625 
L 492.655625 288.896765 
" style="fill:none;stroke:#d0e1f2;stroke-linecap:square;stroke-width:1.5;"/>
   </g>
   <g id="line2d_43">
    <path clip-path="url(#p36a4d50214)" d="M 102.055625 433.16125 
L 113.891989 386.65325 
L 125.728352 385.59625 
L 137.564716 357.761917 
L 149.40108 328.51825 
L 161.237443 346.06445 
L 173.073807 306.673583 
L 184.91017 267.36325 
L 196.746534 277.518 
L 208.582898 279.309028 
L 220.419261 280.10765 
L 232.255625 296.327795 
L 244.091989 311.07775 
L 255.928352 314.289404 
L 267.764716 310.85125 
L 279.60108 330.279917 
L 291.437443 324.158125 
L 303.273807 329.823956 
L 315.11017 331.68925 
L 326.946534 330.354092 
L 338.782898 340.25095 
L 350.619261 339.440583 
L 362.455625 331.016614 
L 374.291989 338.95038 
L 386.128352 318.652917 
L 397.964716 324.16341 
L 409.80108 321.037942 
L 421.637443 320.101398 
L 433.473807 309.49225 
L 445.31017 310.257664 
L 457.146534 308.294317 
L 468.982898 287.908992 
L 480.819261 276.064625 
L 492.655625 302.477614 
" style="fill:none;stroke:#d0e1f2;stroke-linecap:square;stroke-width:1.5;"/>
   </g>
   <g id="line2d_44">
    <path clip-path="url(#p36a4d50214)" d="M 102.055625 65.32525 
L 113.891989 130.85925 
L 125.728352 135.08725 
L 137.564716 129.449917 
L 149.40108 127.15975 
L 161.237443 129.16805 
L 173.073807 118.527583 
L 184.91017 122.10125 
L 196.746534 118.968 
L 208.582898 139.550139 
L 220.419261 141.64065 
L 232.255625 142.005795 
L 244.091989 137.20125 
L 255.928352 135.412481 
L 267.764716 125.57425 
L 279.60108 117.188717 
L 291.437443 115.929125 
L 303.273807 133.221956 
L 315.11017 126.866139 
L 326.946534 126.408724 
L 338.782898 129.69655 
L 350.619261 134.684583 
L 362.455625 130.378795 
L 374.291989 124.333424 
L 386.128352 123.107917 
L 397.964716 130.26733 
L 409.80108 127.444327 
L 421.637443 131.015843 
L 433.473807 127.08425 
L 445.31017 146.823595 
L 457.146534 143.472783 
L 468.982898 145.452669 
L 480.819261 147.044562 
L 492.655625 153.408583 
" style="fill:none;stroke:#1764ab;stroke-linecap:square;stroke-width:1.5;"/>
   </g>
   <g id="line2d_45">
    <path clip-path="url(#p36a4d50214)" d="M 102.055625 103.37725 
L 113.891989 90.69325 
L 125.728352 127.68825 
L 137.564716 130.154583 
L 149.40108 139.84375 
L 161.237443 149.03965 
L 173.073807 167.149583 
L 184.91017 147.16725 
L 196.746534 139.5795 
L 208.582898 131.329028 
L 220.419261 128.74525 
L 232.255625 124.325068 
L 244.091989 132.44475 
L 255.928352 130.046173 
L 267.764716 124.21525 
L 279.60108 119.302717 
L 291.437443 118.70375 
L 303.273807 117.926544 
L 315.11017 128.74525 
L 326.946534 125.518618 
L 338.782898 130.85925 
L 350.619261 122.201917 
L 362.455625 124.036795 
L 374.291989 126.263598 
L 386.128352 131.211583 
L 397.964716 119.44365 
L 409.80108 130.940558 
L 421.637443 136.261694 
L 433.473807 142.56175 
L 445.31017 141.356353 
L 457.146534 137.553583 
L 468.982898 138.36054 
L 480.819261 135.219375 
L 492.655625 145.785371 
" style="fill:none;stroke:#1764ab;stroke-linecap:square;stroke-width:1.5;"/>
   </g>
   <g id="line2d_46">
    <path clip-path="url(#p36a4d50214)" d="M 102.055625 293.63725 
L 113.891989 156.22725 
L 125.728352 175.25325 
L 137.564716 169.615917 
L 149.40108 158.34125 
L 161.237443 136.77845 
L 173.073807 126.63125 
L 184.91017 120.28925 
L 196.746534 117.3825 
L 208.582898 128.040583 
L 220.419261 125.15145 
L 232.255625 134.510705 
L 244.091989 133.677917 
L 255.928352 142.567558 
L 267.764716 126.78225 
L 279.60108 133.114183 
L 291.437443 127.9525 
L 303.273807 131.854074 
L 315.11017 129.684806 
L 326.946534 127.187566 
L 338.782898 132.33905 
L 350.619261 134.583917 
L 362.455625 139.603523 
L 374.291989 131.502641 
L 386.128352 126.543167 
L 397.964716 128.06877 
L 409.80108 126.062096 
L 421.637443 129.293324 
L 433.473807 126.78225 
L 445.31017 121.455595 
L 457.146534 123.953517 
L 468.982898 122.948798 
L 480.819261 126.763375 
L 492.655625 140.019917 
" style="fill:none;stroke:#1764ab;stroke-linecap:square;stroke-width:1.5;"/>
   </g>
   <g id="line2d_47">
    <path clip-path="url(#p36a4d50214)" d="M 102.055625 52.64125 
L 113.891989 97.03525 
L 125.728352 128.74525 
L 137.564716 143.54325 
L 149.40108 141.42925 
L 161.237443 138.46965 
L 173.073807 130.506917 
L 184.91017 126.02725 
L 196.746534 128.74525 
L 208.582898 122.40325 
L 220.419261 134.45305 
L 232.255625 147.002523 
L 244.091989 148.123583 
L 255.928352 142.242327 
L 267.764716 137.50325 
L 279.60108 140.724583 
L 291.437443 134.426625 
L 303.273807 130.486191 
L 315.11017 132.620917 
L 326.946534 133.195776 
L 338.782898 127.37115 
L 350.619261 117.57125 
L 362.455625 122.691523 
L 374.291989 130.583511 
L 386.128352 128.304833 
L 397.964716 134.66445 
L 409.80108 123.541558 
L 421.637443 131.48562 
L 433.473807 121.34625 
L 445.31017 123.205112 
L 457.146534 129.661317 
L 468.982898 138.224153 
L 480.819261 132.378687 
L 492.655625 140.019917 
" style="fill:none;stroke:#1764ab;stroke-linecap:square;stroke-width:1.5;"/>
   </g>
   <g id="line2d_48">
    <path clip-path="url(#p36a4d50214)" d="M 102.055625 65.32525 
L 113.891989 128.74525 
L 125.728352 122.40325 
L 137.564716 119.584583 
L 149.40108 147.24275 
L 161.237443 121.13485 
L 173.073807 144.247917 
L 184.91017 149.28125 
L 196.746534 139.84375 
L 208.582898 141.194361 
L 220.419261 148.82825 
L 232.255625 134.702886 
L 244.091989 133.854083 
L 255.928352 130.534019 
L 267.764716 139.01325 
L 279.60108 130.01365 
L 291.437443 130.33075 
L 303.273807 144.289368 
L 315.11017 140.37225 
L 326.946534 131.860618 
L 338.782898 134.98155 
L 350.619261 141.831917 
L 362.455625 133.069341 
L 374.291989 131.502641 
L 386.128352 137.553583 
L 397.964716 123.92533 
L 409.80108 119.150942 
L 421.637443 120.759028 
L 433.473807 123.76225 
L 445.31017 132.171388 
L 457.146534 127.617783 
L 468.982898 130.995637 
L 480.819261 134.162375 
L 492.655625 142.774523 
" style="fill:none;stroke:#1764ab;stroke-linecap:square;stroke-width:1.5;"/>
   </g>
   <g id="line2d_49">
    <path clip-path="url(#p36a4d50214)" d="M 102.055625 103.37725 
L 113.891989 128.74525 
L 125.728352 107.60525 
L 137.564716 115.356583 
L 149.40108 139.31525 
L 161.237443 119.02085 
L 173.073807 146.361917 
L 184.91017 147.16725 
L 196.746534 154.3775 
L 208.582898 148.710806 
L 220.419261 135.29865 
L 232.255625 136.816886 
L 244.091989 143.367083 
L 255.928352 136.550788 
L 267.764716 132.52025 
L 279.60108 132.691383 
L 291.437443 131.652 
L 303.273807 136.952544 
L 315.11017 130.389472 
L 326.946534 135.309776 
L 338.782898 124.83435 
L 350.619261 118.678583 
L 362.455625 122.787614 
L 374.291989 141.153511 
L 386.128352 135.968083 
L 397.964716 139.65349 
L 409.80108 139.396558 
L 421.637443 138.845472 
L 433.473807 135.31375 
L 445.31017 131.879802 
L 457.146534 128.040583 
L 468.982898 129.495379 
L 480.819261 131.321687 
L 492.655625 131.115492 
" style="fill:none;stroke:#1764ab;stroke-linecap:square;stroke-width:1.5;"/>
   </g>
   <g id="line2d_50">
    <path clip-path="url(#p36a4d50214)" d="M 102.055625 433.16125 
L 113.891989 168.91125 
L 125.728352 156.22725 
L 137.564716 117.470583 
L 149.40108 108.66225 
L 161.237443 126.63125 
L 173.073807 142.838583 
L 184.91017 137.20125 
L 196.746534 113.94725 
L 208.582898 109.249472 
L 220.419261 125.15145 
L 232.255625 119.328341 
L 244.091989 116.942083 
L 255.928352 129.233096 
L 267.764716 122.55425 
L 279.60108 125.080983 
L 291.437443 127.424 
L 303.273807 126.258191 
L 315.11017 135.557028 
L 326.946534 135.421039 
L 338.782898 135.82715 
L 350.619261 133.778583 
L 362.455625 132.300614 
L 374.291989 130.951163 
L 386.128352 123.636417 
L 397.964716 130.94381 
L 409.80108 124.029404 
L 421.637443 126.318065 
L 433.473807 130.85925 
L 445.31017 127.943388 
L 457.146534 128.251983 
L 468.982898 139.110669 
L 480.819261 139.513437 
L 492.655625 147.579068 
" style="fill:none;stroke:#1764ab;stroke-linecap:square;stroke-width:1.5;"/>
   </g>
   <g id="line2d_51">
    <path clip-path="url(#p36a4d50214)" d="M 102.055625 90.69325 
L 113.891989 141.42925 
L 125.728352 150.94225 
L 137.564716 147.77125 
L 149.40108 125.57425 
L 161.237443 110.56485 
L 173.073807 112.185583 
L 184.91017 109.71925 
L 196.746534 105.7555 
L 208.582898 117.705472 
L 220.419261 127.68825 
L 232.255625 112.986341 
L 244.091989 136.14425 
L 255.928352 129.558327 
L 267.764716 121.95025 
L 279.60108 120.28925 
L 291.437443 132.44475 
L 303.273807 127.377368 
L 315.11017 130.624361 
L 326.946534 127.632618 
L 338.782898 125.15145 
L 350.619261 121.698583 
L 362.455625 135.567705 
L 374.291989 133.340902 
L 386.128352 133.149417 
L 397.964716 134.32621 
L 409.80108 126.875173 
L 421.637443 134.46088 
L 433.473807 141.05175 
L 445.31017 135.743319 
L 457.146534 132.198117 
L 468.982898 123.835315 
L 480.819261 122.733562 
L 492.655625 136.368462 
" style="fill:none;stroke:#1764ab;stroke-linecap:square;stroke-width:1.5;"/>
   </g>
   <g id="line2d_52">
    <path clip-path="url(#p36a4d50214)" d="M 102.055625 204.84925 
L 113.891989 162.56925 
L 125.728352 89.63625 
L 137.564716 109.014583 
L 149.40108 132.97325 
L 161.237443 127.89965 
L 173.073807 131.211583 
L 184.91017 127.53725 
L 196.746534 117.911 
L 208.582898 121.698583 
L 220.419261 119.65505 
L 232.255625 123.364159 
L 244.091989 132.97325 
L 255.928352 139.965712 
L 267.764716 128.59425 
L 279.60108 130.718317 
L 291.437443 124.385125 
L 303.273807 121.035368 
L 315.11017 125.809139 
L 326.946534 125.407355 
L 338.782898 130.96495 
L 350.619261 129.248583 
L 362.455625 124.709432 
L 374.291989 123.781946 
L 386.128352 125.57425 
L 397.964716 122.91061 
L 409.80108 132.160173 
L 421.637443 132.581769 
L 433.473807 133.87925 
L 445.31017 134.86856 
L 457.146534 135.157717 
L 468.982898 148.180411 
L 480.819261 138.852812 
L 492.655625 139.891795 
" style="fill:none;stroke:#1764ab;stroke-linecap:square;stroke-width:1.5;"/>
   </g>
   <g id="line2d_53">
    <path clip-path="url(#p36a4d50214)" d="M 102.055625 141.42925 
L 113.891989 147.77125 
L 125.728352 212.24825 
L 137.564716 156.931917 
L 149.40108 136.67275 
L 161.237443 132.12765 
L 173.073807 143.895583 
L 184.91017 125.72525 
L 196.746534 116.3255 
L 208.582898 121.228806 
L 220.419261 131.70485 
L 232.255625 127.399977 
L 244.091989 128.74525 
L 255.928352 119.150942 
L 267.764716 118.77925 
L 279.60108 126.20845 
L 291.437443 129.934375 
L 303.273807 122.651956 
L 315.11017 129.332472 
L 326.946534 123.293355 
L 338.782898 123.77735 
L 350.619261 128.644583 
L 362.455625 118.17525 
L 374.291989 133.157076 
L 386.128352 140.460333 
L 397.964716 138.72333 
L 409.80108 132.322788 
L 421.637443 126.787843 
L 433.473807 124.59275 
L 445.31017 123.569595 
L 457.146534 125.99705 
L 468.982898 129.495379 
L 480.819261 124.253 
L 492.655625 126.182826 
" style="fill:none;stroke:#1764ab;stroke-linecap:square;stroke-width:1.5;"/>
   </g>
   <g id="line2d_54">
    <path clip-path="url(#p36a4d50214)" d="M 102.055625 268.26925 
L 113.891989 270.38325 
L 125.728352 217.53325 
L 137.564716 233.740583 
L 149.40108 215.94775 
L 161.237443 213.30525 
L 173.073807 199.56425 
L 184.91017 247.43125 
L 196.746534 261.1345 
L 208.582898 254.410806 
L 220.419261 237.82765 
L 232.255625 233.292159 
L 244.091989 228.807917 
L 255.928352 217.53325 
L 267.764716 225.68725 
L 279.60108 209.359117 
L 291.437443 187.673 
L 303.273807 193.657485 
L 315.11017 183.004583 
L 326.946534 205.961882 
L 338.782898 208.33735 
L 350.619261 208.070583 
L 362.455625 214.554432 
L 374.291989 212.11038 
L 386.128352 208.196417 
L 397.964716 224.97453 
L 409.80108 213.386558 
L 421.637443 208.998954 
L 433.473807 208.24675 
L 445.31017 220.740698 
L 457.146534 223.66385 
L 468.982898 220.465573 
L 480.819261 228.037187 
L 492.655625 239.506038 
" style="fill:none;stroke:#94c4df;stroke-linecap:square;stroke-width:1.5;"/>
   </g>
   <g id="line2d_55">
    <path clip-path="url(#p36a4d50214)" d="M 102.055625 141.42925 
L 113.891989 194.27925 
L 125.728352 213.30525 
L 137.564716 201.325917 
L 149.40108 220.17575 
L 161.237443 250.08885 
L 173.073807 255.937583 
L 184.91017 239.88125 
L 196.746534 239.73025 
L 208.582898 226.693917 
L 220.419261 231.48565 
L 232.255625 194.855795 
L 244.091989 192.869917 
L 255.928352 211.19125 
L 267.764716 225.98925 
L 279.60108 210.486583 
L 291.437443 220.572125 
L 303.273807 216.911485 
L 315.11017 215.301806 
L 326.946534 232.553776 
L 338.782898 248.50335 
L 350.619261 253.16925 
L 362.455625 245.111341 
L 374.291989 235.180554 
L 386.128352 214.802667 
L 397.964716 218.54797 
L 409.80108 224.119173 
L 421.637443 220.430213 
L 433.473807 227.87675 
L 445.31017 248.149802 
L 457.146534 251.427717 
L 468.982898 267.587315 
L 480.819261 260.407812 
L 492.655625 268.525492 
" style="fill:none;stroke:#94c4df;stroke-linecap:square;stroke-width:1.5;"/>
   </g>
   <g id="line2d_56">
    <path clip-path="url(#p36a4d50214)" d="M 102.055625 331.68925 
L 113.891989 251.35725 
L 125.728352 238.67325 
L 137.564716 209.781917 
L 149.40108 243.42975 
L 161.237443 198.50725 
L 173.073807 215.066917 
L 184.91017 204.84925 
L 196.746534 181.331 
L 208.582898 190.990806 
L 220.419261 201.04405 
L 232.255625 223.106523 
L 244.091989 214.36225 
L 255.928352 216.394942 
L 267.764716 219.94925 
L 279.60108 241.63285 
L 291.437443 246.204375 
L 303.273807 240.78725 
L 315.11017 241.609361 
L 326.946534 231.107355 
L 338.782898 236.66495 
L 350.619261 239.478583 
L 362.455625 250.204159 
L 374.291989 247.404989 
L 386.128352 232.507417 
L 397.964716 223.62157 
L 409.80108 218.915481 
L 421.637443 210.486583 
L 433.473807 212.85225 
L 445.31017 228.759319 
L 457.146534 223.87525 
L 468.982898 217.192282 
L 480.819261 220.836375 
L 492.655625 253.086886 
" style="fill:none;stroke:#94c4df;stroke-linecap:square;stroke-width:1.5;"/>
   </g>
   <g id="line2d_57">
    <path clip-path="url(#p36a4d50214)" d="M 102.055625 141.42925 
L 113.891989 223.87525 
L 125.728352 212.24825 
L 137.564716 189.346583 
L 149.40108 149.35675 
L 161.237443 201.46685 
L 173.073807 187.93725 
L 184.91017 184.01125 
L 196.746534 211.19125 
L 208.582898 217.063472 
L 220.419261 226.20065 
L 232.255625 217.917614 
L 244.091989 217.00475 
L 255.928352 212.329558 
L 267.764716 211.49325 
L 279.60108 222.888717 
L 291.437443 214.494375 
L 303.273807 218.155015 
L 315.11017 230.334694 
L 326.946534 240.898513 
L 338.782898 229.90015 
L 350.619261 236.357917 
L 362.455625 238.481068 
L 374.291989 218.911946 
L 386.128352 223.34675 
L 397.964716 231.65477 
L 409.80108 222.899558 
L 421.637443 219.803843 
L 433.473807 211.79525 
L 445.31017 204.338974 
L 457.146534 205.69485 
L 468.982898 219.920024 
L 480.819261 210.068187 
L 492.655625 242.324705 
" style="fill:none;stroke:#94c4df;stroke-linecap:square;stroke-width:1.5;"/>
   </g>
   <g id="line2d_58">
    <path clip-path="url(#p36a4d50214)" d="M 102.055625 192.16525 
L 113.891989 145.65725 
L 125.728352 171.02525 
L 137.564716 171.729917 
L 149.40108 170.49675 
L 161.237443 209.07725 
L 173.073807 266.507583 
L 184.91017 274.61125 
L 196.746534 256.378 
L 208.582898 262.866806 
L 220.419261 257.91065 
L 232.255625 243.093432 
L 244.091989 225.98925 
L 255.928352 220.297712 
L 267.764716 199.71525 
L 279.60108 186.950717 
L 291.437443 199.56425 
L 303.273807 214.051368 
L 315.11017 216.123917 
L 326.946534 225.321671 
L 338.782898 244.06395 
L 350.619261 250.853917 
L 362.455625 251.068977 
L 374.291989 237.018815 
L 386.128352 236.471167 
L 397.964716 227.51133 
L 409.80108 237.778865 
L 421.637443 235.306509 
L 433.473807 238.97525 
L 445.31017 247.493733 
L 457.146534 229.512583 
L 468.982898 233.831508 
L 480.819261 222.421875 
L 492.655625 254.688402 
" style="fill:none;stroke:#94c4df;stroke-linecap:square;stroke-width:1.5;"/>
   </g>
   <g id="line2d_59">
    <path clip-path="url(#p36a4d50214)" d="M 102.055625 128.74525 
L 113.891989 314.77725 
L 125.728352 167.85425 
L 137.564716 230.21725 
L 149.40108 270.38325 
L 161.237443 246.28365 
L 173.073807 245.01525 
L 184.91017 252.56525 
L 196.746534 264.834 
L 208.582898 246.189694 
L 220.419261 213.93945 
L 232.255625 216.572341 
L 244.091989 235.678417 
L 255.928352 245.665712 
L 267.764716 218.13725 
L 279.60108 204.990183 
L 291.437443 183.312875 
L 303.273807 195.647132 
L 315.11017 196.980472 
L 326.946534 210.634934 
L 338.782898 208.54875 
L 350.619261 214.915917 
L 362.455625 212.536523 
L 374.291989 220.750207 
L 386.128352 238.67325 
L 397.964716 243.15493 
L 409.80108 242.006865 
L 421.637443 235.854583 
L 433.473807 230.67025 
L 445.31017 231.164905 
L 457.146534 219.717717 
L 468.982898 229.739895 
L 480.819261 217.070812 
L 492.655625 247.513614 
" style="fill:none;stroke:#94c4df;stroke-linecap:square;stroke-width:1.5;"/>
   </g>
   <g id="line2d_60">
    <path clip-path="url(#p36a4d50214)" d="M 102.055625 280.95325 
L 113.891989 264.04125 
L 125.728352 269.32625 
L 137.564716 256.994583 
L 149.40108 243.95825 
L 161.237443 210.34565 
L 173.073807 181.59525 
L 184.91017 179.17925 
L 196.746534 182.12375 
L 208.582898 162.334361 
L 220.419261 173.56205 
L 232.255625 174.676705 
L 244.091989 198.683417 
L 255.928352 198.832481 
L 267.764716 196.39325 
L 279.60108 224.016183 
L 291.437443 236.295 
L 303.273807 231.212074 
L 315.11017 226.459028 
L 326.946534 222.873882 
L 338.782898 224.19235 
L 350.619261 230.317917 
L 362.455625 219.070705 
L 374.291989 221.76125 
L 386.128352 226.2535 
L 397.964716 219.81637 
L 409.80108 226.233173 
L 421.637443 230.060657 
L 433.473807 225.91375 
L 445.31017 236.923733 
L 457.146534 224.016183 
L 468.982898 229.26254 
L 480.819261 235.568312 
L 492.655625 264.809977 
" style="fill:none;stroke:#94c4df;stroke-linecap:square;stroke-width:1.5;"/>
   </g>
   <g id="line2d_61">
    <path clip-path="url(#p36a4d50214)" d="M 102.055625 306.32125 
L 113.891989 232.33125 
L 125.728352 176.31025 
L 137.564716 168.206583 
L 149.40108 136.14425 
L 161.237443 173.56205 
L 173.073807 181.242917 
L 184.91017 187.63525 
L 196.746534 204.0565 
L 208.582898 190.755917 
L 220.419261 205.48345 
L 232.255625 200.044705 
L 244.091989 208.196417 
L 255.928352 191.514788 
L 267.764716 205.75525 
L 279.60108 214.15085 
L 291.437443 230.4815 
L 303.273807 232.704309 
L 315.11017 227.04625 
L 326.946534 240.675987 
L 338.782898 240.89295 
L 350.619261 236.659917 
L 362.455625 225.220523 
L 374.291989 221.209772 
L 386.128352 213.481417 
L 397.964716 215.41925 
L 409.80108 209.483788 
L 421.637443 217.768139 
L 433.473807 225.53625 
L 445.31017 227.592974 
L 457.146534 244.240117 
L 468.982898 239.764347 
L 480.819261 227.178375 
L 492.655625 262.055371 
" style="fill:none;stroke:#94c4df;stroke-linecap:square;stroke-width:1.5;"/>
   </g>
   <g id="line2d_62">
    <path clip-path="url(#p36a4d50214)" d="M 102.055625 103.37725 
L 113.891989 118.17525 
L 125.728352 167.85425 
L 137.564716 194.983917 
L 149.40108 222.28975 
L 161.237443 250.08885 
L 173.073807 247.12925 
L 184.91017 221.76125 
L 196.746534 225.725 
L 208.582898 221.996139 
L 220.419261 200.62125 
L 232.255625 201.966523 
L 244.091989 212.600583 
L 255.928352 198.995096 
L 267.764716 199.86625 
L 279.60108 203.721783 
L 291.437443 192.16525 
L 303.273807 216.787132 
L 315.11017 230.21725 
L 326.946534 226.323039 
L 338.782898 229.79445 
L 350.619261 227.901917 
L 362.455625 245.687886 
L 374.291989 242.257859 
L 386.128352 227.222417 
L 397.964716 228.18781 
L 409.80108 240.78725 
L 421.637443 231.626583 
L 433.473807 228.78275 
L 445.31017 220.740698 
L 457.146534 214.57365 
L 468.982898 213.987185 
L 480.819261 201.810375 
L 492.655625 238.352947 
" style="fill:none;stroke:#94c4df;stroke-linecap:square;stroke-width:1.5;"/>
   </g>
   <g id="line2d_63">
    <path clip-path="url(#p36a4d50214)" d="M 102.055625 344.37325 
L 113.891989 367.62725 
L 125.728352 317.94825 
L 137.564716 321.11925 
L 149.40108 266.15525 
L 161.237443 236.13645 
L 173.073807 229.864917 
L 184.91017 199.41325 
L 196.746534 169.43975 
L 208.582898 177.602139 
L 220.419261 164.68325 
L 232.255625 181.403068 
L 244.091989 173.491583 
L 255.928352 192.815712 
L 267.764716 183.10525 
L 279.60108 195.688583 
L 291.437443 214.230125 
L 303.273807 211.066897 
L 315.11017 223.170583 
L 326.946534 205.405566 
L 338.782898 213.83375 
L 350.619261 196.896583 
L 362.455625 210.422523 
L 374.291989 223.139946 
L 386.128352 229.512583 
L 397.964716 236.22101 
L 409.80108 225.98925 
L 421.637443 211.895917 
L 433.473807 205.15125 
L 445.31017 201.714698 
L 457.146534 191.883383 
L 468.982898 185.073121 
L 480.819261 181.198875 
L 492.655625 214.202098 
" style="fill:none;stroke:#94c4df;stroke-linecap:square;stroke-width:1.5;"/>
   </g>
   <g id="line2d_64">
    <path clip-path="url(#p36a4d50214)" d="M 102.055625 433.16125 
L 113.891989 433.16125 
L 125.728352 433.16125 
L 137.564716 433.16125 
L 149.40108 433.16125 
L 161.237443 433.16125 
L 173.073807 433.16125 
L 184.91017 433.16125 
L 196.746534 433.16125 
L 208.582898 433.16125 
L 220.419261 433.16125 
L 232.255625 433.16125 
L 244.091989 433.16125 
L 255.928352 433.16125 
L 267.764716 433.16125 
L 279.60108 433.16125 
L 291.437443 433.16125 
L 303.273807 433.16125 
L 315.11017 433.16125 
L 326.946534 433.16125 
L 338.782898 433.16125 
L 350.619261 433.16125 
L 362.455625 433.16125 
L 374.291989 433.16125 
L 386.128352 433.16125 
L 397.964716 433.16125 
L 409.80108 433.16125 
L 421.637443 433.16125 
L 433.473807 433.16125 
L 445.31017 433.16125 
L 457.146534 433.16125 
L 468.982898 433.16125 
L 480.819261 433.16125 
L 492.655625 433.16125 
" style="fill:none;stroke:#000000;stroke-linecap:square;stroke-width:1.5;"/>
   </g>
   <g id="line2d_65">
    <path clip-path="url(#p36a4d50214)" d="M 102.055625 433.16125 
L 113.891989 433.16125 
L 125.728352 433.16125 
L 137.564716 433.16125 
L 149.40108 433.16125 
L 161.237443 433.16125 
L 173.073807 433.16125 
L 184.91017 433.16125 
L 196.746534 433.16125 
L 208.582898 433.16125 
L 220.419261 433.16125 
L 232.255625 433.16125 
L 244.091989 433.16125 
L 255.928352 433.16125 
L 267.764716 433.16125 
L 279.60108 433.16125 
L 291.437443 433.16125 
L 303.273807 433.16125 
L 315.11017 433.16125 
L 326.946534 433.16125 
L 338.782898 433.16125 
L 350.619261 433.16125 
L 362.455625 433.16125 
L 374.291989 433.16125 
L 386.128352 433.16125 
L 397.964716 433.16125 
L 409.80108 433.16125 
L 421.637443 433.16125 
L 433.473807 433.16125 
L 445.31017 433.16125 
L 457.146534 433.16125 
L 468.982898 433.16125 
L 480.819261 433.16125 
L 492.655625 433.16125 
" style="fill:none;stroke:#000000;stroke-linecap:square;stroke-width:1.5;"/>
   </g>
   <g id="line2d_66">
    <path clip-path="url(#p36a4d50214)" d="M 102.055625 433.16125 
L 113.891989 433.16125 
L 125.728352 433.16125 
L 137.564716 433.16125 
L 149.40108 433.16125 
L 161.237443 433.16125 
L 173.073807 433.16125 
L 184.91017 433.16125 
L 196.746534 433.16125 
L 208.582898 433.16125 
L 220.419261 433.16125 
L 232.255625 433.16125 
L 244.091989 433.16125 
L 255.928352 433.16125 
L 267.764716 433.16125 
L 279.60108 433.16125 
L 291.437443 433.16125 
L 303.273807 433.16125 
L 315.11017 433.16125 
L 326.946534 433.16125 
L 338.782898 433.16125 
L 350.619261 433.16125 
L 362.455625 433.16125 
L 374.291989 433.16125 
L 386.128352 433.16125 
L 397.964716 433.16125 
L 409.80108 433.16125 
L 421.637443 433.16125 
L 433.473807 433.16125 
L 445.31017 433.16125 
L 457.146534 433.16125 
L 468.982898 433.16125 
L 480.819261 433.16125 
L 492.655625 433.16125 
" style="fill:none;stroke:#000000;stroke-linecap:square;stroke-width:1.5;"/>
   </g>
   <g id="line2d_67">
    <path clip-path="url(#p36a4d50214)" d="M 102.055625 433.16125 
L 113.891989 433.16125 
L 125.728352 433.16125 
L 137.564716 433.16125 
L 149.40108 433.16125 
L 161.237443 433.16125 
L 173.073807 433.16125 
L 184.91017 433.16125 
L 196.746534 433.16125 
L 208.582898 433.16125 
L 220.419261 433.16125 
L 232.255625 433.16125 
L 244.091989 433.16125 
L 255.928352 433.16125 
L 267.764716 433.16125 
L 279.60108 433.16125 
L 291.437443 433.16125 
L 303.273807 433.16125 
L 315.11017 433.16125 
L 326.946534 433.16125 
L 338.782898 433.16125 
L 350.619261 433.16125 
L 362.455625 433.16125 
L 374.291989 433.16125 
L 386.128352 433.16125 
L 397.964716 433.16125 
L 409.80108 433.16125 
L 421.637443 433.16125 
L 433.473807 433.16125 
L 445.31017 433.16125 
L 457.146534 433.16125 
L 468.982898 433.16125 
L 480.819261 433.16125 
L 492.655625 433.16125 
" style="fill:none;stroke:#000000;stroke-linecap:square;stroke-width:1.5;"/>
   </g>
   <g id="line2d_68">
    <path clip-path="url(#p36a4d50214)" d="M 102.055625 433.16125 
L 113.891989 433.16125 
L 125.728352 433.16125 
L 137.564716 433.16125 
L 149.40108 433.16125 
L 161.237443 433.16125 
L 173.073807 433.16125 
L 184.91017 433.16125 
L 196.746534 433.16125 
L 208.582898 433.16125 
L 220.419261 433.16125 
L 232.255625 433.16125 
L 244.091989 433.16125 
L 255.928352 433.16125 
L 267.764716 433.16125 
L 279.60108 433.16125 
L 291.437443 433.16125 
L 303.273807 433.16125 
L 315.11017 433.16125 
L 326.946534 433.16125 
L 338.782898 433.16125 
L 350.619261 433.16125 
L 362.455625 433.16125 
L 374.291989 433.16125 
L 386.128352 433.16125 
L 397.964716 433.16125 
L 409.80108 433.16125 
L 421.637443 433.16125 
L 433.473807 433.16125 
L 445.31017 433.16125 
L 457.146534 433.16125 
L 468.982898 433.16125 
L 480.819261 433.16125 
L 492.655625 433.16125 
" style="fill:none;stroke:#000000;stroke-linecap:square;stroke-width:1.5;"/>
   </g>
   <g id="line2d_69">
    <path clip-path="url(#p36a4d50214)" d="M 102.055625 433.16125 
L 113.891989 433.16125 
L 125.728352 433.16125 
L 137.564716 433.16125 
L 149.40108 433.16125 
L 161.237443 433.16125 
L 173.073807 433.16125 
L 184.91017 433.16125 
L 196.746534 433.16125 
L 208.582898 433.16125 
L 220.419261 433.16125 
L 232.255625 433.16125 
L 244.091989 433.16125 
L 255.928352 433.16125 
L 267.764716 433.16125 
L 279.60108 433.16125 
L 291.437443 433.16125 
L 303.273807 433.16125 
L 315.11017 433.16125 
L 326.946534 433.16125 
L 338.782898 433.16125 
L 350.619261 433.16125 
L 362.455625 433.16125 
L 374.291989 433.16125 
L 386.128352 433.16125 
L 397.964716 433.16125 
L 409.80108 433.16125 
L 421.637443 433.16125 
L 433.473807 433.16125 
L 445.31017 433.16125 
L 457.146534 433.16125 
L 468.982898 433.16125 
L 480.819261 433.16125 
L 492.655625 433.16125 
" style="fill:none;stroke:#000000;stroke-linecap:square;stroke-width:1.5;"/>
   </g>
   <g id="line2d_70">
    <path clip-path="url(#p36a4d50214)" d="M 102.055625 433.16125 
L 113.891989 433.16125 
L 125.728352 433.16125 
L 137.564716 433.16125 
L 149.40108 433.16125 
L 161.237443 433.16125 
L 173.073807 433.16125 
L 184.91017 433.16125 
L 196.746534 433.16125 
L 208.582898 433.16125 
L 220.419261 433.16125 
L 232.255625 433.16125 
L 244.091989 433.16125 
L 255.928352 433.16125 
L 267.764716 433.16125 
L 279.60108 433.16125 
L 291.437443 433.16125 
L 303.273807 433.16125 
L 315.11017 433.16125 
L 326.946534 433.16125 
L 338.782898 433.16125 
L 350.619261 433.16125 
L 362.455625 433.16125 
L 374.291989 433.16125 
L 386.128352 433.16125 
L 397.964716 433.16125 
L 409.80108 433.16125 
L 421.637443 433.16125 
L 433.473807 433.16125 
L 445.31017 433.16125 
L 457.146534 433.16125 
L 468.982898 433.16125 
L 480.819261 433.16125 
L 492.655625 433.16125 
" style="fill:none;stroke:#000000;stroke-linecap:square;stroke-width:1.5;"/>
   </g>
   <g id="line2d_71">
    <path clip-path="url(#p36a4d50214)" d="M 102.055625 433.16125 
L 113.891989 433.16125 
L 125.728352 433.16125 
L 137.564716 433.16125 
L 149.40108 433.16125 
L 161.237443 433.16125 
L 173.073807 433.16125 
L 184.91017 433.16125 
L 196.746534 433.16125 
L 208.582898 433.16125 
L 220.419261 433.16125 
L 232.255625 433.16125 
L 244.091989 433.16125 
L 255.928352 433.16125 
L 267.764716 433.16125 
L 279.60108 433.16125 
L 291.437443 433.16125 
L 303.273807 433.16125 
L 315.11017 433.16125 
L 326.946534 433.16125 
L 338.782898 433.16125 
L 350.619261 433.16125 
L 362.455625 433.16125 
L 374.291989 433.16125 
L 386.128352 433.16125 
L 397.964716 433.16125 
L 409.80108 433.16125 
L 421.637443 433.16125 
L 433.473807 433.16125 
L 445.31017 433.16125 
L 457.146534 433.16125 
L 468.982898 433.16125 
L 480.819261 433.16125 
L 492.655625 433.16125 
" style="fill:none;stroke:#000000;stroke-linecap:square;stroke-width:1.5;"/>
   </g>
   <g id="line2d_72">
    <path clip-path="url(#p36a4d50214)" d="M 102.055625 433.16125 
L 113.891989 433.16125 
L 125.728352 433.16125 
L 137.564716 433.16125 
L 149.40108 433.16125 
L 161.237443 433.16125 
L 173.073807 433.16125 
L 184.91017 433.16125 
L 196.746534 433.16125 
L 208.582898 433.16125 
L 220.419261 433.16125 
L 232.255625 433.16125 
L 244.091989 433.16125 
L 255.928352 433.16125 
L 267.764716 433.16125 
L 279.60108 433.16125 
L 291.437443 433.16125 
L 303.273807 433.16125 
L 315.11017 433.16125 
L 326.946534 433.16125 
L 338.782898 433.16125 
L 350.619261 433.16125 
L 362.455625 433.16125 
L 374.291989 433.16125 
L 386.128352 433.16125 
L 397.964716 433.16125 
L 409.80108 433.16125 
L 421.637443 433.16125 
L 433.473807 433.16125 
L 445.31017 433.16125 
L 457.146534 433.16125 
L 468.982898 433.16125 
L 480.819261 433.16125 
L 492.655625 433.16125 
" style="fill:none;stroke:#000000;stroke-linecap:square;stroke-width:1.5;"/>
   </g>
   <g id="line2d_73">
    <path clip-path="url(#p36a4d50214)" d="M 102.055625 433.16125 
L 113.891989 433.16125 
L 125.728352 433.16125 
L 137.564716 433.16125 
L 149.40108 433.16125 
L 161.237443 433.16125 
L 173.073807 433.16125 
L 184.91017 433.16125 
L 196.746534 433.16125 
L 208.582898 433.16125 
L 220.419261 433.16125 
L 232.255625 433.16125 
L 244.091989 433.16125 
L 255.928352 433.16125 
L 267.764716 433.16125 
L 279.60108 433.16125 
L 291.437443 433.16125 
L 303.273807 433.16125 
L 315.11017 433.16125 
L 326.946534 433.16125 
L 338.782898 433.16125 
L 350.619261 433.16125 
L 362.455625 433.16125 
L 374.291989 433.16125 
L 386.128352 433.16125 
L 397.964716 433.16125 
L 409.80108 433.16125 
L 421.637443 433.16125 
L 433.473807 433.16125 
L 445.31017 433.16125 
L 457.146534 433.16125 
L 468.982898 433.16125 
L 480.819261 433.16125 
L 492.655625 433.16125 
" style="fill:none;stroke:#000000;stroke-linecap:square;stroke-width:1.5;"/>
   </g>
   <g id="line2d_74">
    <path clip-path="url(#p36a4d50214)" d="M 90.219261 433.16125 
" style="fill:none;stroke:#000000;stroke-linecap:square;stroke-width:1.5;"/>
   </g>
   <g id="line2d_75">
    <path clip-path="url(#p36a4d50214)" d="M 90.219261 433.16125 
" style="fill:none;stroke:#d0e1f2;stroke-linecap:square;stroke-width:1.5;"/>
   </g>
   <g id="line2d_76">
    <path clip-path="url(#p36a4d50214)" d="M 90.219261 433.16125 
" style="fill:none;stroke:#94c4df;stroke-linecap:square;stroke-width:1.5;"/>
   </g>
   <g id="line2d_77">
    <path clip-path="url(#p36a4d50214)" d="M 90.219261 433.16125 
" style="fill:none;stroke:#4a98c9;stroke-linecap:square;stroke-width:1.5;"/>
   </g>
   <g id="line2d_78">
    <path clip-path="url(#p36a4d50214)" d="M 90.219261 433.16125 
" style="fill:none;stroke:#1764ab;stroke-linecap:square;stroke-width:1.5;"/>
   </g>
   <g id="line2d_79">
    <path clip-path="url(#p36a4d50214)" d="M 90.219261 433.16125 
" style="fill:none;stroke:#08306b;stroke-linecap:square;stroke-width:1.5;"/>
   </g>
   <g id="line2d_80">
    <path clip-path="url(#p36a4d50214)" d="M 90.219261 433.16125 
" style="fill:none;stroke:#000000;stroke-linecap:square;stroke-width:1.5;"/>
   </g>
   <g id="line2d_81">
    <path clip-path="url(#p36a4d50214)" d="M 90.219261 433.16125 
" style="fill:none;stroke:#000000;stroke-dasharray:1.5,2.475;stroke-dashoffset:0;stroke-width:1.5;"/>
   </g>
   <g id="line2d_82">
    <path clip-path="url(#p36a4d50214)" d="M 90.219261 433.16125 
" style="fill:none;stroke:#000000;stroke-linecap:square;stroke-width:1.5;"/>
   </g>
   <g id="line2d_83">
    <path clip-path="url(#p36a4d50214)" d="M 90.219261 433.16125 
" style="fill:none;stroke:#000000;stroke-dasharray:5.55,2.4;stroke-dashoffset:0;stroke-width:1.5;"/>
   </g>
   <g id="line2d_84">
    <path clip-path="url(#p36a4d50214)" d="M 90.219261 433.16125 
" style="fill:none;stroke:#000000;stroke-dasharray:9.6,2.4,1.5,2.4;stroke-dashoffset:0;stroke-width:1.5;"/>
   </g>
   <g id="line2d_85">
    <path clip-path="url(#p36a4d50214)" d="M 90.219261 433.16125 
" style="fill:none;stroke:#000000;stroke-dasharray:9.6,2.4,1.5,2.4;stroke-dashoffset:0;stroke-width:1.5;"/>
   </g>
   <g id="patch_3">
    <path d="M 102.055625 433.16125 
L 102.055625 52.64125 
" style="fill:none;stroke:#000000;stroke-linecap:square;stroke-linejoin:miter;stroke-width:0.8;"/>
   </g>
   <g id="patch_4">
    <path d="M 492.655625 433.16125 
L 492.655625 52.64125 
" style="fill:none;stroke:#000000;stroke-linecap:square;stroke-linejoin:miter;stroke-width:0.8;"/>
   </g>
   <g id="patch_5">
    <path d="M 102.055625 433.16125 
L 492.655625 433.16125 
" style="fill:none;stroke:#000000;stroke-linecap:square;stroke-linejoin:miter;stroke-width:0.8;"/>
   </g>
   <g id="patch_6">
    <path d="M 102.055625 52.64125 
L 492.655625 52.64125 
" style="fill:none;stroke:#000000;stroke-linecap:square;stroke-linejoin:miter;stroke-width:0.8;"/>
   </g>
   <g id="text_16">
    <!-- T-CELL LIVE NORMALIZED COUNT -->
    <g transform="translate(129.047813 21.515625)scale(0.2 -0.2)">
     <use xlink:href="#Arial-BoldMT-84"/>
     <use x="61.005859" xlink:href="#Arial-BoldMT-45"/>
     <use x="94.306641" xlink:href="#Arial-BoldMT-67"/>
     <use x="166.523438" xlink:href="#Arial-BoldMT-69"/>
     <use x="233.222656" xlink:href="#Arial-BoldMT-76"/>
     <use x="294.306641" xlink:href="#Arial-BoldMT-76"/>
     <use x="355.375" xlink:href="#Arial-BoldMT-32"/>
     <use x="383.158203" xlink:href="#Arial-BoldMT-76"/>
     <use x="444.242188" xlink:href="#Arial-BoldMT-73"/>
     <use x="472.025391" xlink:href="#Arial-BoldMT-86"/>
     <use x="538.724609" xlink:href="#Arial-BoldMT-69"/>
     <use x="605.423828" xlink:href="#Arial-BoldMT-32"/>
     <use x="633.207031" xlink:href="#Arial-BoldMT-78"/>
     <use x="705.423828" xlink:href="#Arial-BoldMT-79"/>
     <use x="783.207031" xlink:href="#Arial-BoldMT-82"/>
     <use x="855.423828" xlink:href="#Arial-BoldMT-77"/>
     <use x="938.724609" xlink:href="#Arial-BoldMT-65"/>
     <use x="1010.941406" xlink:href="#Arial-BoldMT-76"/>
     <use x="1072.025391" xlink:href="#Arial-BoldMT-73"/>
     <use x="1099.808594" xlink:href="#Arial-BoldMT-90"/>
     <use x="1160.892578" xlink:href="#Arial-BoldMT-69"/>
     <use x="1227.591797" xlink:href="#Arial-BoldMT-68"/>
     <use x="1299.808594" xlink:href="#Arial-BoldMT-32"/>
     <use x="1327.591797" xlink:href="#Arial-BoldMT-67"/>
     <use x="1399.808594" xlink:href="#Arial-BoldMT-79"/>
     <use x="1477.591797" xlink:href="#Arial-BoldMT-85"/>
     <use x="1549.808594" xlink:href="#Arial-BoldMT-78"/>
     <use x="1622.025391" xlink:href="#Arial-BoldMT-84"/>
    </g>
    <!-- ACROSS RADIUS AT TIME 7 -->
    <defs>
     <path d="M 4.25 57.859375 
L 4.25 70.609375 
L 51.171875 70.609375 
L 51.171875 60.640625 
Q 45.359375 54.9375 39.34375 44.234375 
Q 33.34375 33.546875 30.1875 21.5 
Q 27.046875 9.46875 27.09375 0 
L 13.875 0 
Q 14.203125 14.84375 19.984375 30.265625 
Q 25.78125 45.703125 35.453125 57.859375 
z
" id="Arial-BoldMT-55"/>
    </defs>
    <g transform="translate(162.361875 42.64125)scale(0.2 -0.2)">
     <use xlink:href="#Arial-BoldMT-65"/>
     <use x="72.216797" xlink:href="#Arial-BoldMT-67"/>
     <use x="144.433594" xlink:href="#Arial-BoldMT-82"/>
     <use x="216.650391" xlink:href="#Arial-BoldMT-79"/>
     <use x="294.433594" xlink:href="#Arial-BoldMT-83"/>
     <use x="361.132812" xlink:href="#Arial-BoldMT-83"/>
     <use x="427.832031" xlink:href="#Arial-BoldMT-32"/>
     <use x="455.615234" xlink:href="#Arial-BoldMT-82"/>
     <use x="527.832031" xlink:href="#Arial-BoldMT-65"/>
     <use x="600.048828" xlink:href="#Arial-BoldMT-68"/>
     <use x="672.265625" xlink:href="#Arial-BoldMT-73"/>
     <use x="700.048828" xlink:href="#Arial-BoldMT-85"/>
     <use x="772.265625" xlink:href="#Arial-BoldMT-83"/>
     <use x="838.964844" xlink:href="#Arial-BoldMT-32"/>
     <use x="866.701172" xlink:href="#Arial-BoldMT-65"/>
     <use x="938.808594" xlink:href="#Arial-BoldMT-84"/>
     <use x="999.892578" xlink:href="#Arial-BoldMT-32"/>
     <use x="1027.675781" xlink:href="#Arial-BoldMT-84"/>
     <use x="1088.759766" xlink:href="#Arial-BoldMT-73"/>
     <use x="1116.542969" xlink:href="#Arial-BoldMT-77"/>
     <use x="1199.84375" xlink:href="#Arial-BoldMT-69"/>
     <use x="1266.542969" xlink:href="#Arial-BoldMT-32"/>
     <use x="1294.326172" xlink:href="#Arial-BoldMT-55"/>
    </g>
   </g>
   <g id="legend_1">
    <g id="line2d_86">
     <path d="M 501.655625 65.739687 
L 521.655625 65.739687 
" style="fill:none;stroke:#000000;stroke-linecap:square;stroke-width:1.5;"/>
    </g>
    <g id="line2d_87"/>
    <g id="text_17">
     <!-- 0 -->
     <g transform="translate(529.655625 69.239687)scale(0.1 -0.1)">
      <use xlink:href="#DejaVuSans-48"/>
     </g>
    </g>
    <g id="line2d_88">
     <path d="M 501.655625 80.417812 
L 521.655625 80.417812 
" style="fill:none;stroke:#d0e1f2;stroke-linecap:square;stroke-width:1.5;"/>
    </g>
    <g id="line2d_89"/>
    <g id="text_18">
     <!-- 100 -->
     <g transform="translate(529.655625 83.917812)scale(0.1 -0.1)">
      <use xlink:href="#DejaVuSans-49"/>
      <use x="63.623047" xlink:href="#DejaVuSans-48"/>
      <use x="127.246094" xlink:href="#DejaVuSans-48"/>
     </g>
    </g>
    <g id="line2d_90">
     <path d="M 501.655625 95.095937 
L 521.655625 95.095937 
" style="fill:none;stroke:#94c4df;stroke-linecap:square;stroke-width:1.5;"/>
    </g>
    <g id="line2d_91"/>
    <g id="text_19">
     <!-- 500 -->
     <g transform="translate(529.655625 98.595937)scale(0.1 -0.1)">
      <use xlink:href="#DejaVuSans-53"/>
      <use x="63.623047" xlink:href="#DejaVuSans-48"/>
      <use x="127.246094" xlink:href="#DejaVuSans-48"/>
     </g>
    </g>
    <g id="line2d_92">
     <path d="M 501.655625 109.774062 
L 521.655625 109.774062 
" style="fill:none;stroke:#4a98c9;stroke-linecap:square;stroke-width:1.5;"/>
    </g>
    <g id="line2d_93"/>
    <g id="text_20">
     <!-- 1000 -->
     <g transform="translate(529.655625 113.274062)scale(0.1 -0.1)">
      <use xlink:href="#DejaVuSans-49"/>
      <use x="63.623047" xlink:href="#DejaVuSans-48"/>
      <use x="127.246094" xlink:href="#DejaVuSans-48"/>
      <use x="190.869141" xlink:href="#DejaVuSans-48"/>
     </g>
    </g>
    <g id="line2d_94">
     <path d="M 501.655625 124.452187 
L 521.655625 124.452187 
" style="fill:none;stroke:#1764ab;stroke-linecap:square;stroke-width:1.5;"/>
    </g>
    <g id="line2d_95"/>
    <g id="text_21">
     <!-- 5000 -->
     <g transform="translate(529.655625 127.952187)scale(0.1 -0.1)">
      <use xlink:href="#DejaVuSans-53"/>
      <use x="63.623047" xlink:href="#DejaVuSans-48"/>
      <use x="127.246094" xlink:href="#DejaVuSans-48"/>
      <use x="190.869141" xlink:href="#DejaVuSans-48"/>
     </g>
    </g>
    <g id="line2d_96">
     <path d="M 501.655625 139.130312 
L 521.655625 139.130312 
" style="fill:none;stroke:#08306b;stroke-linecap:square;stroke-width:1.5;"/>
    </g>
    <g id="line2d_97"/>
    <g id="text_22">
     <!-- 10000 -->
     <g transform="translate(529.655625 142.630312)scale(0.1 -0.1)">
      <use xlink:href="#DejaVuSans-49"/>
      <use x="63.623047" xlink:href="#DejaVuSans-48"/>
      <use x="127.246094" xlink:href="#DejaVuSans-48"/>
      <use x="190.869141" xlink:href="#DejaVuSans-48"/>
      <use x="254.492188" xlink:href="#DejaVuSans-48"/>
     </g>
    </g>
    <g id="line2d_98">
     <path d="M 501.655625 153.808437 
L 521.655625 153.808437 
" style="fill:none;stroke:#000000;stroke-linecap:square;stroke-width:1.5;"/>
    </g>
    <g id="line2d_99"/>
    <g id="text_23">
     <!-- 0 -->
     <g transform="translate(529.655625 157.308437)scale(0.1 -0.1)">
      <use xlink:href="#DejaVuSans-48"/>
     </g>
    </g>
    <g id="line2d_100">
     <path d="M 501.655625 168.486562 
L 521.655625 168.486562 
" style="fill:none;stroke:#000000;stroke-dasharray:1.5,2.475;stroke-dashoffset:0;stroke-width:1.5;"/>
    </g>
    <g id="line2d_101"/>
    <g id="text_24">
     <!-- 250 -->
     <g transform="translate(529.655625 171.986562)scale(0.1 -0.1)">
      <use xlink:href="#DejaVuSans-50"/>
      <use x="63.623047" xlink:href="#DejaVuSans-53"/>
      <use x="127.246094" xlink:href="#DejaVuSans-48"/>
     </g>
    </g>
    <g id="line2d_102">
     <path d="M 501.655625 183.164687 
L 521.655625 183.164687 
" style="fill:none;stroke:#000000;stroke-linecap:square;stroke-width:1.5;"/>
    </g>
    <g id="line2d_103"/>
    <g id="text_25">
     <!-- 500 -->
     <g transform="translate(529.655625 186.664687)scale(0.1 -0.1)">
      <use xlink:href="#DejaVuSans-53"/>
      <use x="63.623047" xlink:href="#DejaVuSans-48"/>
      <use x="127.246094" xlink:href="#DejaVuSans-48"/>
     </g>
    </g>
    <g id="line2d_104">
     <path d="M 501.655625 197.842812 
L 521.655625 197.842812 
" style="fill:none;stroke:#000000;stroke-dasharray:5.55,2.4;stroke-dashoffset:0;stroke-width:1.5;"/>
    </g>
    <g id="line2d_105"/>
    <g id="text_26">
     <!-- 1000 -->
     <g transform="translate(529.655625 201.342812)scale(0.1 -0.1)">
      <use xlink:href="#DejaVuSans-49"/>
      <use x="63.623047" xlink:href="#DejaVuSans-48"/>
      <use x="127.246094" xlink:href="#DejaVuSans-48"/>
      <use x="190.869141" xlink:href="#DejaVuSans-48"/>
     </g>
    </g>
    <g id="line2d_106">
     <path d="M 501.655625 212.520937 
L 521.655625 212.520937 
" style="fill:none;stroke:#000000;stroke-dasharray:9.6,2.4,1.5,2.4;stroke-dashoffset:0;stroke-width:1.5;"/>
    </g>
    <g id="line2d_107"/>
    <g id="text_27">
     <!-- 5000 -->
     <g transform="translate(529.655625 216.020937)scale(0.1 -0.1)">
      <use xlink:href="#DejaVuSans-53"/>
      <use x="63.623047" xlink:href="#DejaVuSans-48"/>
      <use x="127.246094" xlink:href="#DejaVuSans-48"/>
      <use x="190.869141" xlink:href="#DejaVuSans-48"/>
     </g>
    </g>
    <g id="line2d_108">
     <path d="M 501.655625 227.199062 
L 521.655625 227.199062 
" style="fill:none;stroke:#000000;stroke-dasharray:9.6,2.4,1.5,2.4;stroke-dashoffset:0;stroke-width:1.5;"/>
    </g>
    <g id="line2d_109"/>
    <g id="text_28">
     <!-- 10000 -->
     <g transform="translate(529.655625 230.699062)scale(0.1 -0.1)">
      <use xlink:href="#DejaVuSans-49"/>
      <use x="63.623047" xlink:href="#DejaVuSans-48"/>
      <use x="127.246094" xlink:href="#DejaVuSans-48"/>
      <use x="190.869141" xlink:href="#DejaVuSans-48"/>
      <use x="254.492188" xlink:href="#DejaVuSans-48"/>
     </g>
    </g>
   </g>
  </g>
 </g>
 <defs>
  <clipPath id="p36a4d50214">
   <rect height="380.52" width="390.6" x="102.055625" y="52.64125"/>
  </clipPath>
 </defs>
</svg>
