<?xml version="1.0" encoding="utf-8" standalone="no"?>
<!DOCTYPE svg PUBLIC "-//W3C//DTD SVG 1.1//EN"
  "http://www.w3.org/Graphics/SVG/1.1/DTD/svg11.dtd">
<!-- Created with matplotlib (https://matplotlib.org/) -->
<svg height="504.658125pt" version="1.1" viewBox="0 0 610.843125 504.658125" width="610.843125pt" xmlns="http://www.w3.org/2000/svg" xmlns:xlink="http://www.w3.org/1999/xlink">
 <defs>
  <style type="text/css">
*{stroke-linecap:butt;stroke-linejoin:round;}
  </style>
 </defs>
 <g id="figure_1">
  <g id="patch_1">
   <path d="M 0 504.658125 
L 610.843125 504.658125 
L 610.843125 -0 
L 0 -0 
z
" style="fill:#ffffff;"/>
  </g>
  <g id="axes_1">
   <g id="patch_2">
    <path d="M 140.230625 433.16125 
L 530.830625 433.16125 
L 530.830625 52.64125 
L 140.230625 52.64125 
z
" style="fill:#ffffff;"/>
   </g>
   <g id="matplotlib.axis_1">
    <g id="xtick_1">
     <g id="line2d_1">
      <defs>
       <path d="M 0 0 
L 0 3.5 
" id="me0ba05692d" style="stroke:#000000;stroke-width:0.8;"/>
      </defs>
      <g>
       <use style="stroke:#000000;stroke-width:0.8;" x="187.57608" xlink:href="#me0ba05692d" y="433.16125"/>
      </g>
     </g>
     <g id="text_1">
      <!-- 5 -->
      <defs>
       <path d="M 10.796875 72.90625 
L 49.515625 72.90625 
L 49.515625 64.59375 
L 19.828125 64.59375 
L 19.828125 46.734375 
Q 21.96875 47.46875 24.109375 47.828125 
Q 26.265625 48.1875 28.421875 48.1875 
Q 40.625 48.1875 47.75 41.5 
Q 54.890625 34.8125 54.890625 23.390625 
Q 54.890625 11.625 47.5625 5.09375 
Q 40.234375 -1.421875 26.90625 -1.421875 
Q 22.3125 -1.421875 17.546875 -0.640625 
Q 12.796875 0.140625 7.71875 1.703125 
L 7.71875 11.625 
Q 12.109375 9.234375 16.796875 8.0625 
Q 21.484375 6.890625 26.703125 6.890625 
Q 35.15625 6.890625 40.078125 11.328125 
Q 45.015625 15.765625 45.015625 23.390625 
Q 45.015625 31 40.078125 35.4375 
Q 35.15625 39.890625 26.703125 39.890625 
Q 22.75 39.890625 18.8125 39.015625 
Q 14.890625 38.140625 10.796875 36.28125 
z
" id="DejaVuSans-53"/>
      </defs>
      <g transform="translate(178.03233 462.956562)scale(0.3 -0.3)">
       <use xlink:href="#DejaVuSans-53"/>
      </g>
     </g>
    </g>
    <g id="xtick_2">
     <g id="line2d_2">
      <g>
       <use style="stroke:#000000;stroke-width:0.8;" x="246.757898" xlink:href="#me0ba05692d" y="433.16125"/>
      </g>
     </g>
     <g id="text_2">
      <!-- 10 -->
      <defs>
       <path d="M 12.40625 8.296875 
L 28.515625 8.296875 
L 28.515625 63.921875 
L 10.984375 60.40625 
L 10.984375 69.390625 
L 28.421875 72.90625 
L 38.28125 72.90625 
L 38.28125 8.296875 
L 54.390625 8.296875 
L 54.390625 0 
L 12.40625 0 
z
" id="DejaVuSans-49"/>
       <path d="M 31.78125 66.40625 
Q 24.171875 66.40625 20.328125 58.90625 
Q 16.5 51.421875 16.5 36.375 
Q 16.5 21.390625 20.328125 13.890625 
Q 24.171875 6.390625 31.78125 6.390625 
Q 39.453125 6.390625 43.28125 13.890625 
Q 47.125 21.390625 47.125 36.375 
Q 47.125 51.421875 43.28125 58.90625 
Q 39.453125 66.40625 31.78125 66.40625 
z
M 31.78125 74.21875 
Q 44.046875 74.21875 50.515625 64.515625 
Q 56.984375 54.828125 56.984375 36.375 
Q 56.984375 17.96875 50.515625 8.265625 
Q 44.046875 -1.421875 31.78125 -1.421875 
Q 19.53125 -1.421875 13.0625 8.265625 
Q 6.59375 17.96875 6.59375 36.375 
Q 6.59375 54.828125 13.0625 64.515625 
Q 19.53125 74.21875 31.78125 74.21875 
z
" id="DejaVuSans-48"/>
      </defs>
      <g transform="translate(227.670398 462.956562)scale(0.3 -0.3)">
       <use xlink:href="#DejaVuSans-49"/>
       <use x="63.623047" xlink:href="#DejaVuSans-48"/>
      </g>
     </g>
    </g>
    <g id="xtick_3">
     <g id="line2d_3">
      <g>
       <use style="stroke:#000000;stroke-width:0.8;" x="305.939716" xlink:href="#me0ba05692d" y="433.16125"/>
      </g>
     </g>
     <g id="text_3">
      <!-- 15 -->
      <g transform="translate(286.852216 462.956562)scale(0.3 -0.3)">
       <use xlink:href="#DejaVuSans-49"/>
       <use x="63.623047" xlink:href="#DejaVuSans-53"/>
      </g>
     </g>
    </g>
    <g id="xtick_4">
     <g id="line2d_4">
      <g>
       <use style="stroke:#000000;stroke-width:0.8;" x="365.121534" xlink:href="#me0ba05692d" y="433.16125"/>
      </g>
     </g>
     <g id="text_4">
      <!-- 20 -->
      <defs>
       <path d="M 19.1875 8.296875 
L 53.609375 8.296875 
L 53.609375 0 
L 7.328125 0 
L 7.328125 8.296875 
Q 12.9375 14.109375 22.625 23.890625 
Q 32.328125 33.6875 34.8125 36.53125 
Q 39.546875 41.84375 41.421875 45.53125 
Q 43.3125 49.21875 43.3125 52.78125 
Q 43.3125 58.59375 39.234375 62.25 
Q 35.15625 65.921875 28.609375 65.921875 
Q 23.96875 65.921875 18.8125 64.3125 
Q 13.671875 62.703125 7.8125 59.421875 
L 7.8125 69.390625 
Q 13.765625 71.78125 18.9375 73 
Q 24.125 74.21875 28.421875 74.21875 
Q 39.75 74.21875 46.484375 68.546875 
Q 53.21875 62.890625 53.21875 53.421875 
Q 53.21875 48.921875 51.53125 44.890625 
Q 49.859375 40.875 45.40625 35.40625 
Q 44.1875 33.984375 37.640625 27.21875 
Q 31.109375 20.453125 19.1875 8.296875 
z
" id="DejaVuSans-50"/>
      </defs>
      <g transform="translate(346.034034 462.956562)scale(0.3 -0.3)">
       <use xlink:href="#DejaVuSans-50"/>
       <use x="63.623047" xlink:href="#DejaVuSans-48"/>
      </g>
     </g>
    </g>
    <g id="xtick_5">
     <g id="line2d_5">
      <g>
       <use style="stroke:#000000;stroke-width:0.8;" x="424.303352" xlink:href="#me0ba05692d" y="433.16125"/>
      </g>
     </g>
     <g id="text_5">
      <!-- 25 -->
      <g transform="translate(405.215852 462.956562)scale(0.3 -0.3)">
       <use xlink:href="#DejaVuSans-50"/>
       <use x="63.623047" xlink:href="#DejaVuSans-53"/>
      </g>
     </g>
    </g>
    <g id="xtick_6">
     <g id="line2d_6">
      <g>
       <use style="stroke:#000000;stroke-width:0.8;" x="483.48517" xlink:href="#me0ba05692d" y="433.16125"/>
      </g>
     </g>
     <g id="text_6">
      <!-- 30 -->
      <defs>
       <path d="M 40.578125 39.3125 
Q 47.65625 37.796875 51.625 33 
Q 55.609375 28.21875 55.609375 21.1875 
Q 55.609375 10.40625 48.1875 4.484375 
Q 40.765625 -1.421875 27.09375 -1.421875 
Q 22.515625 -1.421875 17.65625 -0.515625 
Q 12.796875 0.390625 7.625 2.203125 
L 7.625 11.71875 
Q 11.71875 9.328125 16.59375 8.109375 
Q 21.484375 6.890625 26.8125 6.890625 
Q 36.078125 6.890625 40.9375 10.546875 
Q 45.796875 14.203125 45.796875 21.1875 
Q 45.796875 27.640625 41.28125 31.265625 
Q 36.765625 34.90625 28.71875 34.90625 
L 20.21875 34.90625 
L 20.21875 43.015625 
L 29.109375 43.015625 
Q 36.375 43.015625 40.234375 45.921875 
Q 44.09375 48.828125 44.09375 54.296875 
Q 44.09375 59.90625 40.109375 62.90625 
Q 36.140625 65.921875 28.71875 65.921875 
Q 24.65625 65.921875 20.015625 65.03125 
Q 15.375 64.15625 9.8125 62.3125 
L 9.8125 71.09375 
Q 15.4375 72.65625 20.34375 73.4375 
Q 25.25 74.21875 29.59375 74.21875 
Q 40.828125 74.21875 47.359375 69.109375 
Q 53.90625 64.015625 53.90625 55.328125 
Q 53.90625 49.265625 50.4375 45.09375 
Q 46.96875 40.921875 40.578125 39.3125 
z
" id="DejaVuSans-51"/>
      </defs>
      <g transform="translate(464.39767 462.956562)scale(0.3 -0.3)">
       <use xlink:href="#DejaVuSans-51"/>
       <use x="63.623047" xlink:href="#DejaVuSans-48"/>
      </g>
     </g>
    </g>
    <g id="text_7">
     <!-- RADIUS -->
     <defs>
      <path d="M 7.328125 0 
L 7.328125 71.578125 
L 37.75 71.578125 
Q 49.21875 71.578125 54.421875 69.640625 
Q 59.625 67.71875 62.75 62.78125 
Q 65.875 57.859375 65.875 51.515625 
Q 65.875 43.453125 61.125 38.203125 
Q 56.390625 32.953125 46.96875 31.59375 
Q 51.65625 28.859375 54.703125 25.578125 
Q 57.765625 22.3125 62.9375 13.96875 
L 71.6875 0 
L 54.390625 0 
L 43.953125 15.578125 
Q 38.375 23.921875 36.328125 26.09375 
Q 34.28125 28.265625 31.984375 29.078125 
Q 29.6875 29.890625 24.703125 29.890625 
L 21.78125 29.890625 
L 21.78125 0 
z
M 21.78125 41.3125 
L 32.46875 41.3125 
Q 42.875 41.3125 45.453125 42.1875 
Q 48.046875 43.0625 49.515625 45.203125 
Q 50.984375 47.359375 50.984375 50.59375 
Q 50.984375 54.203125 49.046875 56.421875 
Q 47.125 58.640625 43.609375 59.234375 
Q 41.84375 59.46875 33.0625 59.46875 
L 21.78125 59.46875 
z
" id="Arial-BoldMT-82"/>
      <path d="M 71.828125 0 
L 56.109375 0 
L 49.859375 16.265625 
L 21.234375 16.265625 
L 15.328125 0 
L 0 0 
L 27.875 71.578125 
L 43.171875 71.578125 
z
M 45.21875 28.328125 
L 35.359375 54.890625 
L 25.6875 28.328125 
z
" id="Arial-BoldMT-65"/>
      <path d="M 7.234375 71.578125 
L 33.640625 71.578125 
Q 42.578125 71.578125 47.265625 70.21875 
Q 53.5625 68.359375 58.046875 63.625 
Q 62.546875 58.890625 64.890625 52.03125 
Q 67.234375 45.171875 67.234375 35.109375 
Q 67.234375 26.265625 65.046875 19.875 
Q 62.359375 12.0625 57.375 7.234375 
Q 53.609375 3.5625 47.21875 1.515625 
Q 42.4375 0 34.421875 0 
L 7.234375 0 
z
M 21.6875 59.46875 
L 21.6875 12.0625 
L 32.46875 12.0625 
Q 38.53125 12.0625 41.21875 12.75 
Q 44.734375 13.625 47.046875 15.71875 
Q 49.359375 17.828125 50.828125 22.625 
Q 52.296875 27.4375 52.296875 35.75 
Q 52.296875 44.046875 50.828125 48.484375 
Q 49.359375 52.9375 46.71875 55.421875 
Q 44.09375 57.90625 40.046875 58.796875 
Q 37.015625 59.46875 28.171875 59.46875 
z
" id="Arial-BoldMT-68"/>
      <path d="M 6.84375 0 
L 6.84375 71.578125 
L 21.296875 71.578125 
L 21.296875 0 
z
" id="Arial-BoldMT-73"/>
      <path d="M 7.171875 71.578125 
L 21.625 71.578125 
L 21.625 32.8125 
Q 21.625 23.578125 22.171875 20.84375 
Q 23.09375 16.453125 26.578125 13.796875 
Q 30.078125 11.140625 36.140625 11.140625 
Q 42.28125 11.140625 45.40625 13.640625 
Q 48.53125 16.15625 49.171875 19.8125 
Q 49.8125 23.484375 49.8125 31.984375 
L 49.8125 71.578125 
L 64.265625 71.578125 
L 64.265625 33.984375 
Q 64.265625 21.09375 63.09375 15.765625 
Q 61.921875 10.453125 58.765625 6.78125 
Q 55.609375 3.125 50.328125 0.953125 
Q 45.0625 -1.21875 36.578125 -1.21875 
Q 26.3125 -1.21875 21.015625 1.140625 
Q 15.71875 3.515625 12.640625 7.296875 
Q 9.578125 11.078125 8.59375 15.234375 
Q 7.171875 21.390625 7.171875 33.40625 
z
" id="Arial-BoldMT-85"/>
      <path d="M 3.609375 23.296875 
L 17.671875 24.65625 
Q 18.953125 17.578125 22.828125 14.25 
Q 26.703125 10.9375 33.296875 10.9375 
Q 40.28125 10.9375 43.8125 13.890625 
Q 47.359375 16.84375 47.359375 20.796875 
Q 47.359375 23.34375 45.875 25.125 
Q 44.390625 26.90625 40.671875 28.21875 
Q 38.140625 29.109375 29.109375 31.34375 
Q 17.484375 34.234375 12.796875 38.421875 
Q 6.203125 44.34375 6.203125 52.828125 
Q 6.203125 58.296875 9.296875 63.0625 
Q 12.40625 67.828125 18.234375 70.3125 
Q 24.078125 72.796875 32.328125 72.796875 
Q 45.796875 72.796875 52.609375 66.890625 
Q 59.421875 60.984375 59.765625 51.125 
L 45.3125 50.484375 
Q 44.390625 56 41.328125 58.421875 
Q 38.28125 60.84375 32.171875 60.84375 
Q 25.875 60.84375 22.3125 58.25 
Q 20.015625 56.59375 20.015625 53.8125 
Q 20.015625 51.265625 22.171875 49.46875 
Q 24.90625 47.171875 35.453125 44.671875 
Q 46 42.1875 51.046875 39.515625 
Q 56.109375 36.859375 58.953125 32.25 
Q 61.8125 27.640625 61.8125 20.84375 
Q 61.8125 14.703125 58.390625 9.328125 
Q 54.984375 3.953125 48.734375 1.34375 
Q 42.484375 -1.265625 33.15625 -1.265625 
Q 19.578125 -1.265625 12.296875 5 
Q 5.03125 11.28125 3.609375 23.296875 
z
" id="Arial-BoldMT-83"/>
     </defs>
     <g transform="translate(297.194687 493.51125)scale(0.2 -0.2)">
      <use xlink:href="#Arial-BoldMT-82"/>
      <use x="72.216797" xlink:href="#Arial-BoldMT-65"/>
      <use x="144.433594" xlink:href="#Arial-BoldMT-68"/>
      <use x="216.650391" xlink:href="#Arial-BoldMT-73"/>
      <use x="244.433594" xlink:href="#Arial-BoldMT-85"/>
      <use x="316.650391" xlink:href="#Arial-BoldMT-83"/>
     </g>
    </g>
   </g>
   <g id="matplotlib.axis_2">
    <g id="ytick_1">
     <g id="line2d_7">
      <defs>
       <path d="M 0 0 
L -3.5 0 
" id="m630f138352" style="stroke:#000000;stroke-width:0.8;"/>
      </defs>
      <g>
       <use style="stroke:#000000;stroke-width:0.8;" x="140.230625" xlink:href="#m630f138352" y="433.16125"/>
      </g>
     </g>
     <g id="text_8">
      <!-- 0 -->
      <g transform="translate(114.143125 444.558906)scale(0.3 -0.3)">
       <use xlink:href="#DejaVuSans-48"/>
      </g>
     </g>
    </g>
    <g id="ytick_2">
     <g id="line2d_8">
      <g>
       <use style="stroke:#000000;stroke-width:0.8;" x="140.230625" xlink:href="#m630f138352" y="353.687566"/>
      </g>
     </g>
     <g id="text_9">
      <!-- 1000 -->
      <g transform="translate(56.880625 365.085222)scale(0.3 -0.3)">
       <use xlink:href="#DejaVuSans-49"/>
       <use x="63.623047" xlink:href="#DejaVuSans-48"/>
       <use x="127.246094" xlink:href="#DejaVuSans-48"/>
       <use x="190.869141" xlink:href="#DejaVuSans-48"/>
      </g>
     </g>
    </g>
    <g id="ytick_3">
     <g id="line2d_9">
      <g>
       <use style="stroke:#000000;stroke-width:0.8;" x="140.230625" xlink:href="#m630f138352" y="274.213882"/>
      </g>
     </g>
     <g id="text_10">
      <!-- 2000 -->
      <g transform="translate(56.880625 285.611538)scale(0.3 -0.3)">
       <use xlink:href="#DejaVuSans-50"/>
       <use x="63.623047" xlink:href="#DejaVuSans-48"/>
       <use x="127.246094" xlink:href="#DejaVuSans-48"/>
       <use x="190.869141" xlink:href="#DejaVuSans-48"/>
      </g>
     </g>
    </g>
    <g id="ytick_4">
     <g id="line2d_10">
      <g>
       <use style="stroke:#000000;stroke-width:0.8;" x="140.230625" xlink:href="#m630f138352" y="194.740197"/>
      </g>
     </g>
     <g id="text_11">
      <!-- 3000 -->
      <g transform="translate(56.880625 206.137854)scale(0.3 -0.3)">
       <use xlink:href="#DejaVuSans-51"/>
       <use x="63.623047" xlink:href="#DejaVuSans-48"/>
       <use x="127.246094" xlink:href="#DejaVuSans-48"/>
       <use x="190.869141" xlink:href="#DejaVuSans-48"/>
      </g>
     </g>
    </g>
    <g id="ytick_5">
     <g id="line2d_11">
      <g>
       <use style="stroke:#000000;stroke-width:0.8;" x="140.230625" xlink:href="#m630f138352" y="115.266513"/>
      </g>
     </g>
     <g id="text_12">
      <!-- 4000 -->
      <defs>
       <path d="M 37.796875 64.3125 
L 12.890625 25.390625 
L 37.796875 25.390625 
z
M 35.203125 72.90625 
L 47.609375 72.90625 
L 47.609375 25.390625 
L 58.015625 25.390625 
L 58.015625 17.1875 
L 47.609375 17.1875 
L 47.609375 0 
L 37.796875 0 
L 37.796875 17.1875 
L 4.890625 17.1875 
L 4.890625 26.703125 
z
" id="DejaVuSans-52"/>
      </defs>
      <g transform="translate(56.880625 126.664169)scale(0.3 -0.3)">
       <use xlink:href="#DejaVuSans-52"/>
       <use x="63.623047" xlink:href="#DejaVuSans-48"/>
       <use x="127.246094" xlink:href="#DejaVuSans-48"/>
       <use x="190.869141" xlink:href="#DejaVuSans-48"/>
      </g>
     </g>
    </g>
    <g id="text_13">
     <!-- T-CELL LIVE -->
     <defs>
      <path d="M 23.390625 0 
L 23.390625 59.46875 
L 2.15625 59.46875 
L 2.15625 71.578125 
L 59.03125 71.578125 
L 59.03125 59.46875 
L 37.84375 59.46875 
L 37.84375 0 
z
" id="Arial-BoldMT-84"/>
      <path d="M 5.609375 19.09375 
L 5.609375 32.8125 
L 32.5625 32.8125 
L 32.5625 19.09375 
z
" id="Arial-BoldMT-45"/>
      <path d="M 53.078125 26.3125 
L 67.09375 21.875 
Q 63.875 10.15625 56.375 4.46875 
Q 48.875 -1.21875 37.359375 -1.21875 
Q 23.09375 -1.21875 13.90625 8.515625 
Q 4.734375 18.265625 4.734375 35.15625 
Q 4.734375 53.03125 13.953125 62.90625 
Q 23.1875 72.796875 38.234375 72.796875 
Q 51.375 72.796875 59.578125 65.046875 
Q 64.453125 60.453125 66.890625 51.859375 
L 52.59375 48.4375 
Q 51.3125 54 47.28125 57.21875 
Q 43.265625 60.453125 37.5 60.453125 
Q 29.546875 60.453125 24.578125 54.734375 
Q 19.625 49.03125 19.625 36.234375 
Q 19.625 22.65625 24.5 16.890625 
Q 29.390625 11.140625 37.203125 11.140625 
Q 42.96875 11.140625 47.109375 14.796875 
Q 51.265625 18.453125 53.078125 26.3125 
z
" id="Arial-BoldMT-67"/>
      <path d="M 7.28125 0 
L 7.28125 71.578125 
L 60.359375 71.578125 
L 60.359375 59.46875 
L 21.734375 59.46875 
L 21.734375 43.609375 
L 57.671875 43.609375 
L 57.671875 31.546875 
L 21.734375 31.546875 
L 21.734375 12.0625 
L 61.71875 12.0625 
L 61.71875 0 
z
" id="Arial-BoldMT-69"/>
      <path d="M 7.671875 0 
L 7.671875 71 
L 22.125 71 
L 22.125 12.0625 
L 58.0625 12.0625 
L 58.0625 0 
z
" id="Arial-BoldMT-76"/>
      <path id="Arial-BoldMT-32"/>
      <path d="M 25.53125 0 
L -0.046875 71.578125 
L 15.625 71.578125 
L 33.734375 18.609375 
L 51.265625 71.578125 
L 66.609375 71.578125 
L 40.96875 0 
z
" id="Arial-BoldMT-86"/>
     </defs>
     <g transform="translate(21.253125 303.441875)rotate(-90)scale(0.2 -0.2)">
      <use xlink:href="#Arial-BoldMT-84"/>
      <use x="61.005859" xlink:href="#Arial-BoldMT-45"/>
      <use x="94.306641" xlink:href="#Arial-BoldMT-67"/>
      <use x="166.523438" xlink:href="#Arial-BoldMT-69"/>
      <use x="233.222656" xlink:href="#Arial-BoldMT-76"/>
      <use x="294.306641" xlink:href="#Arial-BoldMT-76"/>
      <use x="355.375" xlink:href="#Arial-BoldMT-32"/>
      <use x="383.158203" xlink:href="#Arial-BoldMT-76"/>
      <use x="444.242188" xlink:href="#Arial-BoldMT-73"/>
      <use x="472.025391" xlink:href="#Arial-BoldMT-86"/>
      <use x="538.724609" xlink:href="#Arial-BoldMT-69"/>
     </g>
     <!-- CELL COUNTS (NUMBERS) -->
     <defs>
      <path d="M 4.34375 35.359375 
Q 4.34375 46.296875 7.625 53.71875 
Q 10.0625 59.1875 14.28125 63.53125 
Q 18.5 67.875 23.53125 69.96875 
Q 30.21875 72.796875 38.96875 72.796875 
Q 54.78125 72.796875 64.28125 62.984375 
Q 73.78125 53.171875 73.78125 35.6875 
Q 73.78125 18.359375 64.359375 8.5625 
Q 54.9375 -1.21875 39.15625 -1.21875 
Q 23.1875 -1.21875 13.765625 8.515625 
Q 4.34375 18.265625 4.34375 35.359375 
z
M 19.234375 35.84375 
Q 19.234375 23.6875 24.84375 17.40625 
Q 30.46875 11.140625 39.109375 11.140625 
Q 47.75 11.140625 53.296875 17.359375 
Q 58.84375 23.578125 58.84375 36.03125 
Q 58.84375 48.34375 53.4375 54.390625 
Q 48.046875 60.453125 39.109375 60.453125 
Q 30.171875 60.453125 24.703125 54.3125 
Q 19.234375 48.1875 19.234375 35.84375 
z
" id="Arial-BoldMT-79"/>
      <path d="M 7.421875 0 
L 7.421875 71.578125 
L 21.484375 71.578125 
L 50.78125 23.78125 
L 50.78125 71.578125 
L 64.203125 71.578125 
L 64.203125 0 
L 49.703125 0 
L 20.84375 46.6875 
L 20.84375 0 
z
" id="Arial-BoldMT-78"/>
      <path d="M 29.9375 -21.046875 
L 20.515625 -21.046875 
Q 13.03125 -9.765625 9.125 2.390625 
Q 5.21875 14.546875 5.21875 25.921875 
Q 5.21875 40.046875 10.0625 52.640625 
Q 14.265625 63.578125 20.703125 72.796875 
L 30.078125 72.796875 
Q 23.390625 58.015625 20.875 47.625 
Q 18.359375 37.25 18.359375 25.640625 
Q 18.359375 17.625 19.84375 9.21875 
Q 21.34375 0.828125 23.921875 -6.734375 
Q 25.640625 -11.71875 29.9375 -21.046875 
z
" id="Arial-BoldMT-40"/>
      <path d="M 7.078125 0 
L 7.078125 71.578125 
L 28.71875 71.578125 
L 41.703125 22.75 
L 54.546875 71.578125 
L 76.21875 71.578125 
L 76.21875 0 
L 62.796875 0 
L 62.796875 56.34375 
L 48.578125 0 
L 34.671875 0 
L 20.515625 56.34375 
L 20.515625 0 
z
" id="Arial-BoldMT-77"/>
      <path d="M 7.328125 71.578125 
L 35.9375 71.578125 
Q 44.4375 71.578125 48.609375 70.875 
Q 52.78125 70.171875 56.078125 67.921875 
Q 59.375 65.671875 61.5625 61.9375 
Q 63.765625 58.203125 63.765625 53.5625 
Q 63.765625 48.53125 61.046875 44.328125 
Q 58.34375 40.140625 53.71875 38.03125 
Q 60.25 36.140625 63.765625 31.546875 
Q 67.28125 26.953125 67.28125 20.75 
Q 67.28125 15.875 65.015625 11.25 
Q 62.75 6.640625 58.8125 3.875 
Q 54.890625 1.125 49.125 0.484375 
Q 45.515625 0.09375 31.6875 0 
L 7.328125 0 
z
M 21.78125 59.671875 
L 21.78125 43.109375 
L 31.25 43.109375 
Q 39.703125 43.109375 41.75 43.359375 
Q 45.453125 43.796875 47.578125 45.921875 
Q 49.703125 48.046875 49.703125 51.515625 
Q 49.703125 54.828125 47.875 56.90625 
Q 46.046875 58.984375 42.4375 59.421875 
Q 40.28125 59.671875 30.078125 59.671875 
z
M 21.78125 31.203125 
L 21.78125 12.0625 
L 35.15625 12.0625 
Q 42.96875 12.0625 45.0625 12.5 
Q 48.296875 13.09375 50.3125 15.359375 
Q 52.34375 17.625 52.34375 21.4375 
Q 52.34375 24.65625 50.78125 26.90625 
Q 49.21875 29.15625 46.265625 30.171875 
Q 43.3125 31.203125 33.453125 31.203125 
z
" id="Arial-BoldMT-66"/>
      <path d="M 3.375 -21.046875 
Q 7.421875 -12.359375 9.078125 -7.71875 
Q 10.75 -3.078125 12.15625 2.96875 
Q 13.578125 9.03125 14.25 14.46875 
Q 14.9375 19.921875 14.9375 25.640625 
Q 14.9375 37.25 12.453125 47.625 
Q 9.96875 58.015625 3.265625 72.796875 
L 12.59375 72.796875 
Q 19.96875 62.3125 24.046875 50.53125 
Q 28.125 38.765625 28.125 26.65625 
Q 28.125 16.453125 24.90625 4.78125 
Q 21.234375 -8.296875 12.84375 -21.046875 
z
" id="Arial-BoldMT-41"/>
     </defs>
     <g transform="translate(42.67125 374.002812)rotate(-90)scale(0.2 -0.2)">
      <use xlink:href="#Arial-BoldMT-67"/>
      <use x="72.216797" xlink:href="#Arial-BoldMT-69"/>
      <use x="138.916016" xlink:href="#Arial-BoldMT-76"/>
      <use x="200" xlink:href="#Arial-BoldMT-76"/>
      <use x="261.068359" xlink:href="#Arial-BoldMT-32"/>
      <use x="288.851562" xlink:href="#Arial-BoldMT-67"/>
      <use x="361.068359" xlink:href="#Arial-BoldMT-79"/>
      <use x="438.851562" xlink:href="#Arial-BoldMT-85"/>
      <use x="511.068359" xlink:href="#Arial-BoldMT-78"/>
      <use x="583.285156" xlink:href="#Arial-BoldMT-84"/>
      <use x="644.369141" xlink:href="#Arial-BoldMT-83"/>
      <use x="711.068359" xlink:href="#Arial-BoldMT-32"/>
      <use x="738.851562" xlink:href="#Arial-BoldMT-40"/>
      <use x="772.152344" xlink:href="#Arial-BoldMT-78"/>
      <use x="844.369141" xlink:href="#Arial-BoldMT-85"/>
      <use x="916.585938" xlink:href="#Arial-BoldMT-77"/>
      <use x="999.886719" xlink:href="#Arial-BoldMT-66"/>
      <use x="1072.103516" xlink:href="#Arial-BoldMT-69"/>
      <use x="1138.802734" xlink:href="#Arial-BoldMT-82"/>
      <use x="1211.019531" xlink:href="#Arial-BoldMT-83"/>
      <use x="1277.71875" xlink:href="#Arial-BoldMT-41"/>
     </g>
    </g>
   </g>
   <g id="line2d_12">
    <path clip-path="url(#p486c190dd8)" d="M 140.230625 431.571776 
L 152.066989 422.988618 
L 163.903352 412.657039 
L 175.739716 401.053882 
L 187.57608 388.497039 
L 199.412443 377.768092 
L 211.248807 369.979671 
L 223.08517 355.833355 
L 234.921534 340.415461 
L 246.757898 330.640197 
L 258.594261 322.057039 
L 270.430625 314.268618 
L 282.266989 299.883882 
L 294.103352 293.367039 
L 305.939716 281.128092 
L 317.77608 270.399145 
L 329.612443 266.425461 
L 341.448807 251.96125 
L 353.28517 239.404408 
L 365.121534 229.549671 
L 376.957898 220.648618 
L 388.794261 199.031776 
L 400.630625 200.62125 
L 412.466989 183.137039 
L 424.303352 175.110197 
L 436.139716 164.858092 
L 447.97608 152.778092 
L 459.812443 130.843355 
L 471.648807 118.365987 
L 483.48517 120.988618 
L 495.321534 110.895461 
L 507.157898 121.227039 
L 518.994261 123.293355 
L 530.830625 100.96125 
" style="fill:none;stroke:#08306b;stroke-linecap:square;stroke-width:1.5;"/>
   </g>
   <g id="line2d_13">
    <path clip-path="url(#p486c190dd8)" d="M 140.230625 431.412829 
L 152.066989 422.511776 
L 163.903352 413.054408 
L 175.739716 396.603355 
L 187.57608 389.132829 
L 199.412443 379.278092 
L 211.248807 369.184934 
L 223.08517 362.747566 
L 234.921534 353.369671 
L 246.757898 340.018092 
L 258.594261 333.103882 
L 270.430625 322.136513 
L 282.266989 302.347566 
L 294.103352 297.738092 
L 305.939716 277.154408 
L 317.77608 266.822829 
L 329.612443 262.133882 
L 341.448807 256.014408 
L 353.28517 242.583355 
L 365.121534 225.019671 
L 376.957898 213.337039 
L 388.794261 207.297039 
L 400.630625 193.945461 
L 412.466989 180.673355 
L 424.303352 165.414408 
L 436.139716 151.188618 
L 447.97608 137.20125 
L 459.812443 133.386513 
L 471.648807 121.703882 
L 483.48517 129.889671 
L 495.321534 115.187039 
L 507.157898 120.432303 
L 518.994261 101.120197 
L 530.830625 86.973882 
" style="fill:none;stroke:#08306b;stroke-linecap:square;stroke-width:1.5;"/>
   </g>
   <g id="line2d_14">
    <path clip-path="url(#p486c190dd8)" d="M 140.230625 431.889671 
L 152.066989 422.750197 
L 163.903352 412.02125 
L 175.739716 400.815461 
L 187.57608 391.675987 
L 199.412443 380.788092 
L 211.248807 367.515987 
L 223.08517 360.124934 
L 234.921534 344.389145 
L 246.757898 339.700197 
L 258.594261 322.851776 
L 270.430625 313.712303 
L 282.266989 295.830724 
L 294.103352 283.353355 
L 305.939716 271.193882 
L 317.77608 270.558092 
L 329.612443 258.637039 
L 341.448807 257.921776 
L 353.28517 249.974408 
L 365.121534 236.463882 
L 376.957898 225.496513 
L 388.794261 210.555461 
L 400.630625 194.660724 
L 412.466989 171.057039 
L 424.303352 165.493882 
L 436.139716 161.997039 
L 447.97608 143.797566 
L 459.812443 139.426513 
L 471.648807 120.670724 
L 483.48517 118.842829 
L 495.321534 93.013882 
L 507.157898 95.239145 
L 518.994261 93.649671 
L 530.830625 86.020197 
" style="fill:none;stroke:#08306b;stroke-linecap:square;stroke-width:1.5;"/>
   </g>
   <g id="line2d_15">
    <path clip-path="url(#p486c190dd8)" d="M 140.230625 431.412829 
L 152.066989 423.306513 
L 163.903352 412.418618 
L 175.739716 402.802303 
L 187.57608 390.563355 
L 199.412443 378.403882 
L 211.248807 372.204934 
L 223.08517 357.899671 
L 234.921534 344.627566 
L 246.757898 341.687039 
L 258.594261 329.448092 
L 270.430625 315.222303 
L 282.266989 305.447039 
L 294.103352 295.433355 
L 305.939716 279.14125 
L 317.77608 271.034934 
L 329.612443 256.968092 
L 341.448807 244.331776 
L 353.28517 227.562829 
L 365.121534 229.867566 
L 376.957898 222.873882 
L 388.794261 214.847039 
L 400.630625 196.329671 
L 412.466989 185.918618 
L 424.303352 170.103355 
L 436.139716 159.294934 
L 447.97608 133.148092 
L 459.812443 134.817039 
L 471.648807 135.611776 
L 483.48517 112.484934 
L 495.321534 120.750197 
L 507.157898 124.723882 
L 518.994261 106.206513 
L 530.830625 94.92125 
" style="fill:none;stroke:#08306b;stroke-linecap:square;stroke-width:1.5;"/>
   </g>
   <g id="line2d_16">
    <path clip-path="url(#p486c190dd8)" d="M 140.230625 431.333355 
L 152.066989 425.61125 
L 163.903352 410.829145 
L 175.739716 402.96125 
L 187.57608 394.298618 
L 199.412443 383.490197 
L 211.248807 372.363882 
L 223.08517 362.827039 
L 234.921534 345.899145 
L 246.757898 334.454934 
L 258.594261 321.023882 
L 270.430625 312.043355 
L 282.266989 302.585987 
L 294.103352 292.73125 
L 305.939716 280.730724 
L 317.77608 264.04125 
L 329.612443 257.127039 
L 341.448807 246.557039 
L 353.28517 243.537039 
L 365.121534 230.900724 
L 376.957898 229.152303 
L 388.794261 210.158092 
L 400.630625 202.449145 
L 412.466989 186.713355 
L 424.303352 180.037566 
L 436.139716 167.321776 
L 447.97608 145.148618 
L 459.812443 142.764408 
L 471.648807 116.220197 
L 483.48517 119.08125 
L 495.321534 91.583355 
L 507.157898 108.113882 
L 518.994261 107.478092 
L 530.830625 85.781776 
" style="fill:none;stroke:#08306b;stroke-linecap:square;stroke-width:1.5;"/>
   </g>
   <g id="line2d_17">
    <path clip-path="url(#p486c190dd8)" d="M 140.230625 431.253882 
L 152.066989 421.319671 
L 163.903352 408.285987 
L 175.739716 397.874934 
L 187.57608 392.39125 
L 199.412443 376.575987 
L 211.248807 366.880197 
L 223.08517 353.925987 
L 234.921534 349.395987 
L 246.757898 337.633882 
L 258.594261 328.653355 
L 270.430625 309.818092 
L 282.266989 307.513355 
L 294.103352 296.466513 
L 305.939716 287.962829 
L 317.77608 277.790197 
L 329.612443 259.193355 
L 341.448807 249.418092 
L 353.28517 238.053355 
L 365.121534 230.900724 
L 376.957898 209.283882 
L 388.794261 205.071776 
L 400.630625 193.150724 
L 412.466989 187.269671 
L 424.303352 165.255461 
L 436.139716 158.738618 
L 447.97608 148.963355 
L 459.812443 141.174934 
L 471.648807 124.405987 
L 483.48517 116.855987 
L 495.321534 113.518092 
L 507.157898 110.418618 
L 518.994261 100.881776 
L 530.830625 81.092829 
" style="fill:none;stroke:#08306b;stroke-linecap:square;stroke-width:1.5;"/>
   </g>
   <g id="line2d_18">
    <path clip-path="url(#p486c190dd8)" d="M 140.230625 430.777039 
L 152.066989 421.875987 
L 163.903352 414.087566 
L 175.739716 401.212829 
L 187.57608 389.848092 
L 199.412443 377.450197 
L 211.248807 367.674934 
L 223.08517 354.720724 
L 234.921534 349.952303 
L 246.757898 333.342303 
L 258.594261 326.507566 
L 270.430625 317.129671 
L 282.266989 297.499671 
L 294.103352 289.313882 
L 305.939716 276.757039 
L 317.77608 272.624408 
L 329.612443 260.147039 
L 341.448807 252.040724 
L 353.28517 239.801776 
L 365.121534 231.377566 
L 376.957898 235.192303 
L 388.794261 210.873355 
L 400.630625 206.422829 
L 412.466989 184.090724 
L 424.303352 174.95125 
L 436.139716 166.288618 
L 447.97608 146.897039 
L 459.812443 145.069145 
L 471.648807 131.717566 
L 483.48517 107.716513 
L 495.321534 113.359145 
L 507.157898 116.379145 
L 518.994261 93.967566 
L 530.830625 106.127039 
" style="fill:none;stroke:#08306b;stroke-linecap:square;stroke-width:1.5;"/>
   </g>
   <g id="line2d_19">
    <path clip-path="url(#p486c190dd8)" d="M 140.230625 431.253882 
L 152.066989 424.498618 
L 163.903352 414.246513 
L 175.739716 403.358618 
L 187.57608 391.278618 
L 199.412443 380.390724 
L 211.248807 372.125461 
L 223.08517 350.667566 
L 234.921534 341.210197 
L 246.757898 338.905461 
L 258.594261 324.043882 
L 270.430625 312.281776 
L 282.266989 300.440197 
L 294.103352 297.420197 
L 305.939716 284.863355 
L 317.77608 269.842829 
L 329.612443 256.173355 
L 341.448807 247.272303 
L 353.28517 237.973882 
L 365.121534 223.191776 
L 376.957898 216.674934 
L 388.794261 196.965461 
L 400.630625 194.740197 
L 412.466989 188.779671 
L 424.303352 176.302303 
L 436.139716 172.725987 
L 447.97608 164.937566 
L 459.812443 146.976513 
L 471.648807 134.101776 
L 483.48517 114.312829 
L 495.321534 100.245987 
L 507.157898 120.432303 
L 518.994261 113.994934 
L 530.830625 102.789145 
" style="fill:none;stroke:#08306b;stroke-linecap:square;stroke-width:1.5;"/>
   </g>
   <g id="line2d_20">
    <path clip-path="url(#p486c190dd8)" d="M 140.230625 431.730724 
L 152.066989 422.670724 
L 163.903352 411.067566 
L 175.739716 400.656513 
L 187.57608 389.132829 
L 199.412443 376.099145 
L 211.248807 364.416513 
L 223.08517 355.594934 
L 234.921534 351.700724 
L 246.757898 338.984934 
L 258.594261 320.070197 
L 270.430625 315.778618 
L 282.266989 301.79125 
L 294.103352 289.870197 
L 305.939716 275.882829 
L 317.77608 277.949145 
L 329.612443 260.782829 
L 341.448807 244.331776 
L 353.28517 237.655987 
L 365.121534 219.694934 
L 376.957898 215.164934 
L 388.794261 203.402829 
L 400.630625 194.024934 
L 412.466989 190.210197 
L 424.303352 168.116513 
L 436.139716 161.838092 
L 447.97608 162.394408 
L 459.812443 143.24125 
L 471.648807 130.048618 
L 483.48517 124.564934 
L 495.321534 110.339145 
L 507.157898 108.352303 
L 518.994261 106.683355 
L 530.830625 94.682829 
" style="fill:none;stroke:#08306b;stroke-linecap:square;stroke-width:1.5;"/>
   </g>
   <g id="line2d_21">
    <path clip-path="url(#p486c190dd8)" d="M 140.230625 431.174408 
L 152.066989 422.909145 
L 163.903352 411.464934 
L 175.739716 399.702829 
L 187.57608 386.192303 
L 199.412443 379.595987 
L 211.248807 370.218092 
L 223.08517 361.078618 
L 234.921534 349.872829 
L 246.757898 330.401776 
L 258.594261 318.242303 
L 270.430625 320.467566 
L 282.266989 298.532829 
L 294.103352 290.823882 
L 305.939716 276.518618 
L 317.77608 271.750197 
L 329.612443 267.140724 
L 341.448807 255.140197 
L 353.28517 245.682829 
L 365.121534 234.159145 
L 376.957898 223.668618 
L 388.794261 210.555461 
L 400.630625 196.170724 
L 412.466989 179.640197 
L 424.303352 167.40125 
L 436.139716 159.85125 
L 447.97608 146.420197 
L 459.812443 124.485461 
L 471.648807 126.63125 
L 483.48517 115.504934 
L 495.321534 110.657039 
L 507.157898 106.444934 
L 518.994261 97.623355 
L 530.830625 70.76125 
" style="fill:none;stroke:#08306b;stroke-linecap:square;stroke-width:1.5;"/>
   </g>
   <g id="line2d_22">
    <path clip-path="url(#p486c190dd8)" d="M 140.230625 431.969145 
L 152.066989 423.703882 
L 163.903352 414.643882 
L 175.739716 404.232829 
L 187.57608 391.517039 
L 199.412443 382.854408 
L 211.248807 376.655461 
L 223.08517 367.039145 
L 234.921534 363.621776 
L 246.757898 357.025461 
L 258.594261 346.534934 
L 270.430625 335.01125 
L 282.266989 319.672829 
L 294.103352 310.930724 
L 305.939716 300.837566 
L 317.77608 278.505461 
L 329.612443 279.459145 
L 341.448807 272.465461 
L 353.28517 265.630724 
L 365.121534 259.670197 
L 376.957898 265.392303 
L 388.794261 238.689145 
L 400.630625 222.079145 
L 412.466989 212.462829 
L 424.303352 196.09125 
L 436.139716 206.820197 
L 447.97608 210.793882 
L 459.812443 190.925461 
L 471.648807 176.699671 
L 483.48517 180.911776 
L 495.321534 176.938092 
L 507.157898 157.625987 
L 518.994261 152.221776 
L 530.830625 159.135987 
" style="fill:none;stroke:#4a98c9;stroke-linecap:square;stroke-width:1.5;"/>
   </g>
   <g id="line2d_23">
    <path clip-path="url(#p486c190dd8)" d="M 140.230625 431.492303 
L 152.066989 422.59125 
L 163.903352 414.167039 
L 175.739716 401.689671 
L 187.57608 396.523882 
L 199.412443 390.642829 
L 211.248807 386.033355 
L 223.08517 376.814408 
L 234.921534 370.694934 
L 246.757898 362.032303 
L 258.594261 352.098092 
L 270.430625 329.845461 
L 282.266989 318.162829 
L 294.103352 311.645987 
L 305.939716 297.181776 
L 317.77608 277.790197 
L 329.612443 284.624934 
L 341.448807 265.710197 
L 353.28517 271.114408 
L 365.121534 260.941776 
L 376.957898 268.968618 
L 388.794261 242.106513 
L 400.630625 237.179145 
L 412.466989 222.714934 
L 424.303352 222.317566 
L 436.139716 213.019145 
L 447.97608 202.767039 
L 459.812443 192.038092 
L 471.648807 172.090197 
L 483.48517 177.097039 
L 495.321534 154.049671 
L 507.157898 146.420197 
L 518.994261 125.200724 
L 530.830625 148.963355 
" style="fill:none;stroke:#4a98c9;stroke-linecap:square;stroke-width:1.5;"/>
   </g>
   <g id="line2d_24">
    <path clip-path="url(#p486c190dd8)" d="M 140.230625 433.16125 
L 152.066989 428.790197 
L 163.903352 420.365987 
L 175.739716 403.358618 
L 187.57608 396.523882 
L 199.412443 382.933882 
L 211.248807 377.609145 
L 223.08517 360.919671 
L 234.921534 350.031776 
L 246.757898 347.329671 
L 258.594261 333.660197 
L 270.430625 336.759671 
L 282.266989 316.573355 
L 294.103352 318.083355 
L 305.939716 299.486513 
L 317.77608 297.420197 
L 329.612443 279.14125 
L 341.448807 277.233882 
L 353.28517 265.55125 
L 365.121534 256.570724 
L 376.957898 251.325461 
L 388.794261 253.550724 
L 400.630625 242.424408 
L 412.466989 217.549145 
L 424.303352 214.052303 
L 436.139716 199.905987 
L 447.97608 193.150724 
L 459.812443 192.355987 
L 471.648807 177.732829 
L 483.48517 172.090197 
L 495.321534 172.884934 
L 507.157898 153.81125 
L 518.994261 148.645461 
L 530.830625 161.599671 
" style="fill:none;stroke:#4a98c9;stroke-linecap:square;stroke-width:1.5;"/>
   </g>
   <g id="line2d_25">
    <path clip-path="url(#p486c190dd8)" d="M 140.230625 431.253882 
L 152.066989 422.750197 
L 163.903352 412.100724 
L 175.739716 404.073882 
L 187.57608 392.709145 
L 199.412443 382.615987 
L 211.248807 375.860724 
L 223.08517 363.939671 
L 234.921534 357.343355 
L 246.757898 350.190724 
L 258.594261 344.389145 
L 270.430625 335.488092 
L 282.266989 321.659671 
L 294.103352 309.977039 
L 305.939716 301.234934 
L 317.77608 300.996513 
L 329.612443 283.035461 
L 341.448807 275.962303 
L 353.28517 262.769671 
L 365.121534 264.438618 
L 376.957898 242.344934 
L 388.794261 231.377566 
L 400.630625 228.913882 
L 412.466989 211.032303 
L 424.303352 206.979145 
L 436.139716 199.270197 
L 447.97608 185.203355 
L 459.812443 178.924934 
L 471.648807 183.454934 
L 483.48517 180.434934 
L 495.321534 161.202303 
L 507.157898 161.202303 
L 518.994261 148.645461 
L 530.830625 169.308618 
" style="fill:none;stroke:#4a98c9;stroke-linecap:square;stroke-width:1.5;"/>
   </g>
   <g id="line2d_26">
    <path clip-path="url(#p486c190dd8)" d="M 140.230625 431.412829 
L 152.066989 423.942303 
L 163.903352 412.577566 
L 175.739716 402.96125 
L 187.57608 392.709145 
L 199.412443 384.443882 
L 211.248807 372.522829 
L 223.08517 365.290724 
L 234.921534 358.297039 
L 246.757898 355.277039 
L 258.594261 341.210197 
L 270.430625 331.911776 
L 282.266989 324.123355 
L 294.103352 300.678618 
L 305.939716 297.022829 
L 317.77608 287.088618 
L 329.612443 282.399671 
L 341.448807 267.855987 
L 353.28517 252.994408 
L 365.121534 249.418092 
L 376.957898 236.86125 
L 388.794261 229.231776 
L 400.630625 230.980197 
L 412.466989 217.867039 
L 424.303352 224.701776 
L 436.139716 202.051776 
L 447.97608 180.434934 
L 459.812443 183.454934 
L 471.648807 155.162303 
L 483.48517 148.486513 
L 495.321534 139.823882 
L 507.157898 143.082303 
L 518.994261 140.300724 
L 530.830625 157.387566 
" style="fill:none;stroke:#4a98c9;stroke-linecap:square;stroke-width:1.5;"/>
   </g>
   <g id="line2d_27">
    <path clip-path="url(#p486c190dd8)" d="M 140.230625 431.333355 
L 152.066989 423.147566 
L 163.903352 412.259671 
L 175.739716 400.418092 
L 187.57608 395.967566 
L 199.412443 388.814934 
L 211.248807 385.079671 
L 223.08517 374.430197 
L 234.921534 366.880197 
L 246.757898 358.853355 
L 258.594261 341.289671 
L 270.430625 333.739671 
L 282.266989 332.388618 
L 294.103352 312.281776 
L 305.939716 310.771776 
L 317.77608 294.797566 
L 329.612443 282.081776 
L 341.448807 267.458618 
L 353.28517 261.339145 
L 365.121534 250.848618 
L 376.957898 234.635987 
L 388.794261 234.953882 
L 400.630625 221.681776 
L 412.466989 221.284408 
L 424.303352 204.753882 
L 436.139716 210.078618 
L 447.97608 200.382829 
L 459.812443 196.011776 
L 471.648807 179.878618 
L 483.48517 161.679145 
L 495.321534 139.823882 
L 507.157898 136.644934 
L 518.994261 120.59125 
L 530.830625 127.823355 
" style="fill:none;stroke:#4a98c9;stroke-linecap:square;stroke-width:1.5;"/>
   </g>
   <g id="line2d_28">
    <path clip-path="url(#p486c190dd8)" d="M 140.230625 431.333355 
L 152.066989 425.054934 
L 163.903352 418.220197 
L 175.739716 412.339145 
L 187.57608 404.391776 
L 199.412443 391.834934 
L 211.248807 378.562829 
L 223.08517 366.800724 
L 234.921534 361.714408 
L 246.757898 344.707039 
L 258.594261 335.408618 
L 270.430625 332.309145 
L 282.266989 325.077039 
L 294.103352 312.917566 
L 305.939716 298.77125 
L 317.77608 295.433355 
L 329.612443 288.995987 
L 341.448807 271.352829 
L 353.28517 254.027566 
L 365.121534 242.742303 
L 376.957898 250.133355 
L 388.794261 237.099671 
L 400.630625 229.947039 
L 412.466989 219.377039 
L 424.303352 219.218092 
L 436.139716 211.270724 
L 447.97608 199.508618 
L 459.812443 189.971776 
L 471.648807 175.110197 
L 483.48517 160.089671 
L 495.321534 155.559671 
L 507.157898 162.394408 
L 518.994261 139.267566 
L 530.830625 151.903882 
" style="fill:none;stroke:#4a98c9;stroke-linecap:square;stroke-width:1.5;"/>
   </g>
   <g id="line2d_29">
    <path clip-path="url(#p486c190dd8)" d="M 140.230625 431.253882 
L 152.066989 424.578092 
L 163.903352 414.564408 
L 175.739716 404.709671 
L 187.57608 390.960724 
L 199.412443 387.463882 
L 211.248807 373.714934 
L 223.08517 359.807039 
L 234.921534 352.813355 
L 246.757898 343.673882 
L 258.594261 339.302829 
L 270.430625 327.143355 
L 282.266989 319.116513 
L 294.103352 311.328092 
L 305.939716 305.526513 
L 317.77608 289.393355 
L 329.612443 277.472303 
L 341.448807 261.577566 
L 353.28517 253.789145 
L 365.121534 237.894408 
L 376.957898 236.940724 
L 388.794261 217.469671 
L 400.630625 220.330724 
L 412.466989 206.502303 
L 424.303352 203.005461 
L 436.139716 201.098092 
L 447.97608 186.554408 
L 459.812443 173.520724 
L 471.648807 162.155987 
L 483.48517 157.228618 
L 495.321534 165.017039 
L 507.157898 154.129145 
L 518.994261 155.877566 
L 530.830625 179.560724 
" style="fill:none;stroke:#4a98c9;stroke-linecap:square;stroke-width:1.5;"/>
   </g>
   <g id="line2d_30">
    <path clip-path="url(#p486c190dd8)" d="M 140.230625 432.128092 
L 152.066989 423.783355 
L 163.903352 414.167039 
L 175.739716 409.00125 
L 187.57608 401.212829 
L 199.412443 388.338092 
L 211.248807 382.457039 
L 223.08517 370.377039 
L 234.921534 360.840197 
L 246.757898 360.204408 
L 258.594261 349.872829 
L 270.430625 340.812829 
L 282.266989 320.785461 
L 294.103352 315.38125 
L 305.939716 297.738092 
L 317.77608 288.916513 
L 329.612443 279.220724 
L 341.448807 265.233355 
L 353.28517 255.696513 
L 365.121534 247.272303 
L 376.957898 241.868092 
L 388.794261 230.980197 
L 400.630625 220.410197 
L 412.466989 225.417039 
L 424.303352 200.700724 
L 436.139716 194.024934 
L 447.97608 192.117566 
L 459.812443 179.083882 
L 471.648807 164.699145 
L 483.48517 161.36125 
L 495.321534 144.035987 
L 507.157898 134.658092 
L 518.994261 121.465461 
L 530.830625 125.598092 
" style="fill:none;stroke:#4a98c9;stroke-linecap:square;stroke-width:1.5;"/>
   </g>
   <g id="line2d_31">
    <path clip-path="url(#p486c190dd8)" d="M 140.230625 432.128092 
L 152.066989 429.902829 
L 163.903352 421.796513 
L 175.739716 413.610724 
L 187.57608 401.928092 
L 199.412443 387.622829 
L 211.248807 379.913882 
L 223.08517 362.270724 
L 234.921534 356.866513 
L 246.757898 347.250197 
L 258.594261 338.825987 
L 270.430625 330.163355 
L 282.266989 321.500724 
L 294.103352 313.076513 
L 305.939716 303.698618 
L 317.77608 296.943355 
L 329.612443 287.168092 
L 341.448807 281.048618 
L 353.28517 276.836513 
L 365.121534 265.789671 
L 376.957898 238.291776 
L 388.794261 223.509671 
L 400.630625 225.655461 
L 412.466989 212.462829 
L 424.303352 197.839671 
L 436.139716 196.806513 
L 447.97608 182.739671 
L 459.812443 163.268618 
L 471.648807 160.725461 
L 483.48517 145.943355 
L 495.321534 134.101776 
L 507.157898 128.618092 
L 518.994261 123.690724 
L 530.830625 139.982829 
" style="fill:none;stroke:#4a98c9;stroke-linecap:square;stroke-width:1.5;"/>
   </g>
   <g id="line2d_32">
    <path clip-path="url(#p486c190dd8)" d="M 140.230625 432.366513 
L 152.066989 431.492303 
L 163.903352 427.518618 
L 175.739716 424.657566 
L 187.57608 421.637566 
L 199.412443 415.915461 
L 211.248807 414.961776 
L 223.08517 407.729671 
L 234.921534 405.822303 
L 246.757898 402.087039 
L 258.594261 398.510724 
L 270.430625 396.92125 
L 282.266989 385.874408 
L 294.103352 389.37125 
L 305.939716 389.053355 
L 317.77608 377.688618 
L 329.612443 374.27125 
L 341.448807 374.112303 
L 353.28517 368.23125 
L 365.121534 356.945987 
L 376.957898 364.019145 
L 388.794261 355.594934 
L 400.630625 337.713355 
L 412.466989 330.719671 
L 424.303352 312.202303 
L 436.139716 321.818618 
L 447.97608 322.057039 
L 459.812443 317.129671 
L 471.648807 306.718618 
L 483.48517 313.155987 
L 495.321534 296.704934 
L 507.157898 280.094934 
L 518.994261 267.935461 
L 530.830625 272.544934 
" style="fill:none;stroke:#d0e1f2;stroke-linecap:square;stroke-width:1.5;"/>
   </g>
   <g id="line2d_33">
    <path clip-path="url(#p486c190dd8)" d="M 140.230625 433.16125 
L 152.066989 431.889671 
L 163.903352 426.803355 
L 175.739716 425.213882 
L 187.57608 419.332829 
L 199.412443 411.305987 
L 211.248807 413.054408 
L 223.08517 404.232829 
L 234.921534 408.365461 
L 246.757898 405.186513 
L 258.594261 403.597039 
L 270.430625 394.219145 
L 282.266989 377.052829 
L 294.103352 383.649145 
L 305.939716 377.529671 
L 317.77608 376.893882 
L 329.612443 373.953355 
L 341.448807 369.582303 
L 353.28517 369.025987 
L 365.121534 358.535461 
L 376.957898 356.866513 
L 388.794261 355.038618 
L 400.630625 349.634408 
L 412.466989 358.932829 
L 424.303352 348.283355 
L 436.139716 336.282829 
L 447.97608 333.50125 
L 459.812443 330.322303 
L 471.648807 329.209671 
L 483.48517 326.666513 
L 495.321534 307.354408 
L 507.157898 297.658618 
L 518.994261 267.538092 
L 530.830625 280.969145 
" style="fill:none;stroke:#d0e1f2;stroke-linecap:square;stroke-width:1.5;"/>
   </g>
   <g id="line2d_34">
    <path clip-path="url(#p486c190dd8)" d="M 140.230625 433.16125 
L 152.066989 430.935987 
L 163.903352 425.929145 
L 175.739716 423.942303 
L 187.57608 418.140724 
L 199.412443 419.253355 
L 211.248807 415.200197 
L 223.08517 405.107039 
L 234.921534 406.458092 
L 246.757898 401.928092 
L 258.594261 394.219145 
L 270.430625 390.324934 
L 282.266989 379.357566 
L 294.103352 380.231776 
L 305.939716 374.509671 
L 317.77608 375.940197 
L 329.612443 375.065987 
L 341.448807 372.204934 
L 353.28517 367.277566 
L 365.121534 353.846513 
L 376.957898 359.012303 
L 388.794261 364.654934 
L 400.630625 357.025461 
L 412.466989 350.349671 
L 424.303352 342.163882 
L 436.139716 342.004934 
L 447.97608 330.004408 
L 459.812443 324.520724 
L 471.648807 320.149671 
L 483.48517 306.877566 
L 495.321534 284.624934 
L 507.157898 269.445461 
L 518.994261 258.080724 
L 530.830625 279.220724 
" style="fill:none;stroke:#d0e1f2;stroke-linecap:square;stroke-width:1.5;"/>
   </g>
   <g id="line2d_35">
    <path clip-path="url(#p486c190dd8)" d="M 140.230625 432.763882 
L 152.066989 430.697566 
L 163.903352 427.200724 
L 175.739716 426.564934 
L 187.57608 420.127566 
L 199.412443 415.915461 
L 211.248807 412.498092 
L 223.08517 405.583882 
L 234.921534 401.848618 
L 246.757898 401.133355 
L 258.594261 398.590197 
L 270.430625 398.272303 
L 282.266989 396.205987 
L 294.103352 387.145987 
L 305.939716 375.701776 
L 317.77608 375.622303 
L 329.612443 358.773882 
L 341.448807 356.628092 
L 353.28517 355.594934 
L 365.121534 361.158092 
L 376.957898 359.012303 
L 388.794261 348.124408 
L 400.630625 351.700724 
L 412.466989 345.104408 
L 424.303352 332.547566 
L 436.139716 339.54125 
L 447.97608 336.600724 
L 459.812443 331.037566 
L 471.648807 316.811776 
L 483.48517 304.334408 
L 495.321534 283.194408 
L 507.157898 279.300197 
L 518.994261 251.802303 
L 530.830625 274.293355 
" style="fill:none;stroke:#d0e1f2;stroke-linecap:square;stroke-width:1.5;"/>
   </g>
   <g id="line2d_36">
    <path clip-path="url(#p486c190dd8)" d="M 140.230625 432.128092 
L 152.066989 431.015461 
L 163.903352 425.929145 
L 175.739716 422.273355 
L 187.57608 421.399145 
L 199.412443 417.902303 
L 211.248807 417.187039 
L 223.08517 410.749671 
L 234.921534 406.696513 
L 246.757898 404.868618 
L 258.594261 395.967566 
L 270.430625 395.649671 
L 282.266989 396.126513 
L 294.103352 383.172303 
L 305.939716 384.523355 
L 317.77608 376.019671 
L 329.612443 364.337039 
L 341.448807 358.535461 
L 353.28517 351.064934 
L 365.121534 349.634408 
L 376.957898 345.342829 
L 388.794261 352.495461 
L 400.630625 353.687566 
L 412.466989 350.985461 
L 424.303352 347.647566 
L 436.139716 350.190724 
L 447.97608 339.54125 
L 459.812443 335.647039 
L 471.648807 325.156513 
L 483.48517 320.229145 
L 495.321534 297.499671 
L 507.157898 281.445987 
L 518.994261 261.657039 
L 530.830625 269.763355 
" style="fill:none;stroke:#d0e1f2;stroke-linecap:square;stroke-width:1.5;"/>
   </g>
   <g id="line2d_37">
    <path clip-path="url(#p486c190dd8)" d="M 140.230625 432.843355 
L 152.066989 432.048618 
L 163.903352 427.200724 
L 175.739716 422.750197 
L 187.57608 424.10125 
L 199.412443 418.458618 
L 211.248807 416.312829 
L 223.08517 413.372303 
L 234.921534 404.709671 
L 246.757898 407.173355 
L 258.594261 394.616513 
L 270.430625 386.192303 
L 282.266989 379.039671 
L 294.103352 382.854408 
L 305.939716 381.105987 
L 317.77608 381.344408 
L 329.612443 372.840724 
L 341.448807 368.787566 
L 353.28517 359.489145 
L 365.121534 360.999145 
L 376.957898 351.62125 
L 388.794261 355.753882 
L 400.630625 345.342829 
L 412.466989 346.932303 
L 424.303352 331.911776 
L 436.139716 340.892303 
L 447.97608 327.620197 
L 459.812443 326.428092 
L 471.648807 316.573355 
L 483.48517 310.056513 
L 495.321534 298.532829 
L 507.157898 285.101776 
L 518.994261 261.577566 
L 530.830625 278.664408 
" style="fill:none;stroke:#d0e1f2;stroke-linecap:square;stroke-width:1.5;"/>
   </g>
   <g id="line2d_38">
    <path clip-path="url(#p486c190dd8)" d="M 140.230625 433.16125 
L 152.066989 431.015461 
L 163.903352 427.836513 
L 175.739716 424.180724 
L 187.57608 421.796513 
L 199.412443 414.961776 
L 211.248807 410.272829 
L 223.08517 407.650197 
L 234.921534 407.173355 
L 246.757898 396.285461 
L 258.594261 385.953882 
L 270.430625 384.920724 
L 282.266989 371.489671 
L 294.103352 377.211776 
L 305.939716 375.065987 
L 317.77608 375.701776 
L 329.612443 381.582829 
L 341.448807 370.774408 
L 353.28517 359.17125 
L 365.121534 360.363355 
L 376.957898 367.357039 
L 388.794261 350.190724 
L 400.630625 355.356513 
L 412.466989 342.958618 
L 424.303352 333.898618 
L 436.139716 346.455461 
L 447.97608 330.640197 
L 459.812443 332.070724 
L 471.648807 323.567039 
L 483.48517 322.93125 
L 495.321534 307.990197 
L 507.157898 295.989671 
L 518.994261 278.267039 
L 530.830625 290.744408 
" style="fill:none;stroke:#d0e1f2;stroke-linecap:square;stroke-width:1.5;"/>
   </g>
   <g id="line2d_39">
    <path clip-path="url(#p486c190dd8)" d="M 140.230625 432.922829 
L 152.066989 431.492303 
L 163.903352 427.757039 
L 175.739716 424.021776 
L 187.57608 420.365987 
L 199.412443 417.902303 
L 211.248807 409.398618 
L 223.08517 405.822303 
L 234.921534 398.987566 
L 246.757898 397.874934 
L 258.594261 397.239145 
L 270.430625 387.940724 
L 282.266989 389.768618 
L 294.103352 386.192303 
L 305.939716 380.470197 
L 317.77608 376.814408 
L 329.612443 369.900197 
L 341.448807 360.601776 
L 353.28517 364.972829 
L 365.121534 359.568618 
L 376.957898 352.177566 
L 388.794261 355.038618 
L 400.630625 357.025461 
L 412.466989 350.826513 
L 424.303352 344.865987 
L 436.139716 343.355987 
L 447.97608 342.640724 
L 459.812443 332.627039 
L 471.648807 328.573882 
L 483.48517 316.970724 
L 495.321534 300.360724 
L 507.157898 292.015987 
L 518.994261 257.921776 
L 530.830625 277.392829 
" style="fill:none;stroke:#d0e1f2;stroke-linecap:square;stroke-width:1.5;"/>
   </g>
   <g id="line2d_40">
    <path clip-path="url(#p486c190dd8)" d="M 140.230625 433.002303 
L 152.066989 431.492303 
L 163.903352 425.849671 
L 175.739716 426.167566 
L 187.57608 421.319671 
L 199.412443 409.795987 
L 211.248807 408.683355 
L 223.08517 395.172829 
L 234.921534 396.047039 
L 246.757898 394.060197 
L 258.594261 393.185987 
L 270.430625 383.490197 
L 282.266989 384.205461 
L 294.103352 386.748618 
L 305.939716 387.622829 
L 317.77608 380.549671 
L 329.612443 379.119145 
L 341.448807 367.357039 
L 353.28517 360.919671 
L 365.121534 360.68125 
L 376.957898 350.826513 
L 388.794261 345.104408 
L 400.630625 341.05125 
L 412.466989 337.713355 
L 424.303352 333.580724 
L 436.139716 341.369145 
L 447.97608 336.362303 
L 459.812443 335.090724 
L 471.648807 328.573882 
L 483.48517 328.017566 
L 495.321534 310.771776 
L 507.157898 285.022303 
L 518.994261 267.776513 
L 530.830625 275.564934 
" style="fill:none;stroke:#d0e1f2;stroke-linecap:square;stroke-width:1.5;"/>
   </g>
   <g id="line2d_41">
    <path clip-path="url(#p486c190dd8)" d="M 140.230625 432.922829 
L 152.066989 430.697566 
L 163.903352 427.12125 
L 175.739716 425.849671 
L 187.57608 421.160724 
L 199.412443 419.650724 
L 211.248807 411.147039 
L 223.08517 404.153355 
L 234.921534 398.113355 
L 246.757898 399.225987 
L 258.594261 394.060197 
L 270.430625 390.165987 
L 282.266989 387.384408 
L 294.103352 384.602829 
L 305.939716 384.602829 
L 317.77608 383.967039 
L 329.612443 382.457039 
L 341.448807 377.132303 
L 353.28517 371.887039 
L 365.121534 368.867039 
L 376.957898 370.297566 
L 388.794261 348.362829 
L 400.630625 343.832829 
L 412.466989 345.104408 
L 424.303352 341.528092 
L 436.139716 338.269671 
L 447.97608 331.593882 
L 459.812443 326.507566 
L 471.648807 326.666513 
L 483.48517 305.367566 
L 495.321534 297.579145 
L 507.157898 264.994934 
L 518.994261 264.359145 
L 530.830625 271.670724 
" style="fill:none;stroke:#d0e1f2;stroke-linecap:square;stroke-width:1.5;"/>
   </g>
   <g id="line2d_42">
    <path clip-path="url(#p486c190dd8)" d="M 140.230625 431.889671 
L 152.066989 423.227039 
L 163.903352 410.908618 
L 175.739716 403.199671 
L 187.57608 392.152829 
L 199.412443 379.278092 
L 211.248807 367.118618 
L 223.08517 352.574934 
L 234.921534 342.322829 
L 246.757898 336.044408 
L 258.594261 329.527566 
L 270.430625 324.759145 
L 282.266989 309.102829 
L 294.103352 302.824408 
L 305.939716 288.439671 
L 317.77608 271.909145 
L 329.612443 267.458618 
L 341.448807 255.060724 
L 353.28517 243.616513 
L 365.121534 239.245461 
L 376.957898 229.549671 
L 388.794261 210.634934 
L 400.630625 207.058618 
L 412.466989 199.667566 
L 424.303352 178.209671 
L 436.139716 164.937566 
L 447.97608 161.202303 
L 459.812443 155.877566 
L 471.648807 132.750724 
L 483.48517 146.26125 
L 495.321534 127.982303 
L 507.157898 123.452303 
L 518.994261 117.968618 
L 530.830625 94.603355 
" style="fill:none;stroke:#1764ab;stroke-linecap:square;stroke-width:1.5;"/>
   </g>
   <g id="line2d_43">
    <path clip-path="url(#p486c190dd8)" d="M 140.230625 430.935987 
L 152.066989 421.160724 
L 163.903352 408.921776 
L 175.739716 397.000724 
L 187.57608 391.358092 
L 199.412443 383.967039 
L 211.248807 379.357566 
L 223.08517 362.270724 
L 234.921534 348.044934 
L 246.757898 338.269671 
L 258.594261 328.494408 
L 270.430625 318.957566 
L 282.266989 299.089145 
L 294.103352 289.234408 
L 305.939716 277.63125 
L 317.77608 256.332303 
L 329.612443 262.849145 
L 341.448807 253.550724 
L 353.28517 243.139671 
L 365.121534 222.555987 
L 376.957898 221.363882 
L 388.794261 213.654934 
L 400.630625 204.992303 
L 412.466989 180.911776 
L 424.303352 186.713355 
L 436.139716 170.898092 
L 447.97608 149.042829 
L 459.812443 144.592303 
L 471.648807 137.916513 
L 483.48517 141.492829 
L 495.321534 124.723882 
L 507.157898 110.498092 
L 518.994261 89.358092 
L 530.830625 81.569671 
" style="fill:none;stroke:#1764ab;stroke-linecap:square;stroke-width:1.5;"/>
   </g>
   <g id="line2d_44">
    <path clip-path="url(#p486c190dd8)" d="M 140.230625 432.128092 
L 152.066989 423.147566 
L 163.903352 410.749671 
L 175.739716 399.384934 
L 187.57608 388.973882 
L 199.412443 378.80125 
L 211.248807 368.469671 
L 223.08517 354.959145 
L 234.921534 343.514934 
L 246.757898 333.898618 
L 258.594261 324.123355 
L 270.430625 321.182829 
L 282.266989 295.592303 
L 294.103352 291.22125 
L 305.939716 278.982303 
L 317.77608 280.094934 
L 329.612443 264.994934 
L 341.448807 259.51125 
L 353.28517 238.291776 
L 365.121534 233.125987 
L 376.957898 222.714934 
L 388.794261 215.562303 
L 400.630625 199.985461 
L 412.466989 180.355461 
L 424.303352 178.448092 
L 436.139716 163.189145 
L 447.97608 145.387039 
L 459.812443 145.307566 
L 471.648807 137.439671 
L 483.48517 134.419671 
L 495.321534 111.054408 
L 507.157898 102.868618 
L 518.994261 97.861776 
L 530.830625 101.358618 
" style="fill:none;stroke:#1764ab;stroke-linecap:square;stroke-width:1.5;"/>
   </g>
   <g id="line2d_45">
    <path clip-path="url(#p486c190dd8)" d="M 140.230625 431.253882 
L 152.066989 423.068092 
L 163.903352 411.067566 
L 175.739716 400.418092 
L 187.57608 389.689145 
L 199.412443 378.085987 
L 211.248807 371.092303 
L 223.08517 359.17125 
L 234.921534 346.693882 
L 246.757898 343.197039 
L 258.594261 333.978092 
L 270.430625 324.361776 
L 282.266989 311.010197 
L 294.103352 300.360724 
L 305.939716 278.346513 
L 317.77608 278.982303 
L 329.612443 262.690197 
L 341.448807 245.841776 
L 353.28517 239.245461 
L 365.121534 233.364408 
L 376.957898 223.509671 
L 388.794261 207.455987 
L 400.630625 205.071776 
L 412.466989 185.839145 
L 424.303352 173.997566 
L 436.139716 163.507039 
L 447.97608 146.499671 
L 459.812443 137.042303 
L 471.648807 141.095461 
L 483.48517 126.869671 
L 495.321534 122.260197 
L 507.157898 116.617566 
L 518.994261 96.987566 
L 530.830625 99.928092 
" style="fill:none;stroke:#1764ab;stroke-linecap:square;stroke-width:1.5;"/>
   </g>
   <g id="line2d_46">
    <path clip-path="url(#p486c190dd8)" d="M 140.230625 430.856513 
L 152.066989 422.670724 
L 163.903352 414.167039 
L 175.739716 402.404934 
L 187.57608 391.517039 
L 199.412443 379.119145 
L 211.248807 370.933355 
L 223.08517 364.257566 
L 234.921534 348.998618 
L 246.757898 340.812829 
L 258.594261 334.375461 
L 270.430625 314.268618 
L 282.266989 310.771776 
L 294.103352 289.075461 
L 305.939716 278.187566 
L 317.77608 272.703882 
L 329.612443 263.961776 
L 341.448807 253.391776 
L 353.28517 244.808618 
L 365.121534 232.808092 
L 376.957898 221.522829 
L 388.794261 214.131776 
L 400.630625 201.177566 
L 412.466989 188.461776 
L 424.303352 191.402303 
L 436.139716 169.626513 
L 447.97608 151.506513 
L 459.812443 150.234934 
L 471.648807 133.465987 
L 483.48517 120.034934 
L 495.321534 103.742829 
L 507.157898 105.650197 
L 518.994261 95.954408 
L 530.830625 74.019671 
" style="fill:none;stroke:#1764ab;stroke-linecap:square;stroke-width:1.5;"/>
   </g>
   <g id="line2d_47">
    <path clip-path="url(#p486c190dd8)" d="M 140.230625 431.571776 
L 152.066989 422.273355 
L 163.903352 409.954934 
L 175.739716 395.490724 
L 187.57608 393.980724 
L 199.412443 375.463355 
L 211.248807 362.985987 
L 223.08517 355.912829 
L 234.921534 348.760197 
L 246.757898 338.110724 
L 258.594261 329.765987 
L 270.430625 316.334934 
L 282.266989 311.010197 
L 294.103352 292.73125 
L 305.939716 285.975987 
L 317.77608 273.657566 
L 329.612443 261.100724 
L 341.448807 255.696513 
L 353.28517 245.285461 
L 365.121534 239.007039 
L 376.957898 227.006513 
L 388.794261 218.025987 
L 400.630625 199.11125 
L 412.466989 196.488618 
L 424.303352 183.295987 
L 436.139716 176.938092 
L 447.97608 166.844934 
L 459.812443 150.632303 
L 471.648807 126.63125 
L 483.48517 123.452303 
L 495.321534 116.697039 
L 507.157898 103.663355 
L 518.994261 91.662829 
L 530.830625 79.185461 
" style="fill:none;stroke:#1764ab;stroke-linecap:square;stroke-width:1.5;"/>
   </g>
   <g id="line2d_48">
    <path clip-path="url(#p486c190dd8)" d="M 140.230625 431.253882 
L 152.066989 423.544934 
L 163.903352 414.802829 
L 175.739716 404.153355 
L 187.57608 392.629671 
L 199.412443 380.708618 
L 211.248807 367.436513 
L 223.08517 358.614934 
L 234.921534 352.336513 
L 246.757898 329.368618 
L 258.594261 327.620197 
L 270.430625 321.103355 
L 282.266989 300.122303 
L 294.103352 291.380197 
L 305.939716 280.333355 
L 317.77608 277.63125 
L 329.612443 260.703355 
L 341.448807 258.00125 
L 353.28517 249.894934 
L 365.121534 230.741776 
L 376.957898 230.662303 
L 388.794261 217.310724 
L 400.630625 211.111776 
L 412.466989 185.998092 
L 424.303352 171.295461 
L 436.139716 176.46125 
L 447.97608 160.089671 
L 459.812443 149.440197 
L 471.648807 132.512303 
L 483.48517 113.915461 
L 495.321534 114.471776 
L 507.157898 123.213882 
L 518.994261 86.338092 
L 530.830625 101.914934 
" style="fill:none;stroke:#1764ab;stroke-linecap:square;stroke-width:1.5;"/>
   </g>
   <g id="line2d_49">
    <path clip-path="url(#p486c190dd8)" d="M 140.230625 430.856513 
L 152.066989 423.306513 
L 163.903352 412.657039 
L 175.739716 401.133355 
L 187.57608 385.635987 
L 199.412443 381.344408 
L 211.248807 373.476513 
L 223.08517 354.64125 
L 234.921534 347.727039 
L 246.757898 338.587566 
L 258.594261 326.348618 
L 270.430625 319.513882 
L 282.266989 305.208618 
L 294.103352 297.340724 
L 305.939716 287.247566 
L 317.77608 276.995461 
L 329.612443 263.405461 
L 341.448807 257.524408 
L 353.28517 244.888092 
L 365.121534 223.112303 
L 376.957898 228.039671 
L 388.794261 211.111776 
L 400.630625 214.052303 
L 412.466989 197.760197 
L 424.303352 185.441776 
L 436.139716 174.394934 
L 447.97608 158.818092 
L 459.812443 145.943355 
L 471.648807 143.24125 
L 483.48517 127.187566 
L 495.321534 115.822829 
L 507.157898 109.703355 
L 518.994261 105.332303 
L 530.830625 99.053882 
" style="fill:none;stroke:#1764ab;stroke-linecap:square;stroke-width:1.5;"/>
   </g>
   <g id="line2d_50">
    <path clip-path="url(#p486c190dd8)" d="M 140.230625 431.969145 
L 152.066989 420.604408 
L 163.903352 409.160197 
L 175.739716 400.020724 
L 187.57608 387.781776 
L 199.412443 378.562829 
L 211.248807 368.628618 
L 223.08517 358.694408 
L 234.921534 347.329671 
L 246.757898 349.713882 
L 258.594261 327.302303 
L 270.430625 321.977566 
L 282.266989 305.605987 
L 294.103352 292.73125 
L 305.939716 280.333355 
L 317.77608 280.571776 
L 329.612443 259.272829 
L 341.448807 246.954408 
L 353.28517 244.252303 
L 365.121534 230.503355 
L 376.957898 222.317566 
L 388.794261 202.528618 
L 400.630625 204.356513 
L 412.466989 190.210197 
L 424.303352 173.361776 
L 436.139716 172.884934 
L 447.97608 158.261776 
L 459.812443 147.850724 
L 471.648807 137.916513 
L 483.48517 127.267039 
L 495.321534 113.835987 
L 507.157898 107.398618 
L 518.994261 101.120197 
L 530.830625 87.768618 
" style="fill:none;stroke:#1764ab;stroke-linecap:square;stroke-width:1.5;"/>
   </g>
   <g id="line2d_51">
    <path clip-path="url(#p486c190dd8)" d="M 140.230625 431.253882 
L 152.066989 422.988618 
L 163.903352 413.213355 
L 175.739716 400.735987 
L 187.57608 388.735461 
L 199.412443 379.039671 
L 211.248807 374.509671 
L 223.08517 358.853355 
L 234.921534 354.323355 
L 246.757898 336.203355 
L 258.594261 325.156513 
L 270.430625 319.990724 
L 282.266989 308.467039 
L 294.103352 294.24125 
L 305.939716 276.280197 
L 317.77608 275.008618 
L 329.612443 262.849145 
L 341.448807 254.663355 
L 353.28517 238.291776 
L 365.121534 222.953355 
L 376.957898 218.900197 
L 388.794261 208.250724 
L 400.630625 197.124408 
L 412.466989 186.236513 
L 424.303352 181.388618 
L 436.139716 174.394934 
L 447.97608 158.738618 
L 459.812443 142.843882 
L 471.648807 128.459145 
L 483.48517 122.339671 
L 495.321534 122.737039 
L 507.157898 117.253355 
L 518.994261 99.053882 
L 530.830625 76.642303 
" style="fill:none;stroke:#1764ab;stroke-linecap:square;stroke-width:1.5;"/>
   </g>
   <g id="line2d_52">
    <path clip-path="url(#p486c190dd8)" d="M 140.230625 432.604934 
L 152.066989 429.743882 
L 163.903352 423.147566 
L 175.739716 415.756513 
L 187.57608 402.484408 
L 199.412443 397.557039 
L 211.248807 387.622829 
L 223.08517 388.417566 
L 234.921534 380.152303 
L 246.757898 364.893355 
L 258.594261 362.747566 
L 270.430625 360.283882 
L 282.266989 343.673882 
L 294.103352 338.984934 
L 305.939716 322.93125 
L 317.77608 315.540197 
L 329.612443 305.049671 
L 341.448807 299.724934 
L 353.28517 303.142303 
L 365.121534 306.480197 
L 376.957898 297.499671 
L 388.794261 290.426513 
L 400.630625 277.63125 
L 412.466989 267.776513 
L 424.303352 261.657039 
L 436.139716 262.849145 
L 447.97608 266.266513 
L 459.812443 245.205987 
L 471.648807 235.271776 
L 483.48517 246.715987 
L 495.321534 226.847566 
L 507.157898 204.833355 
L 518.994261 199.11125 
L 530.830625 204.197566 
" style="fill:none;stroke:#94c4df;stroke-linecap:square;stroke-width:1.5;"/>
   </g>
   <g id="line2d_53">
    <path clip-path="url(#p486c190dd8)" d="M 140.230625 432.525461 
L 152.066989 430.300197 
L 163.903352 425.293355 
L 175.739716 417.902303 
L 187.57608 411.941776 
L 199.412443 404.709671 
L 211.248807 393.662829 
L 223.08517 380.867566 
L 234.921534 376.417039 
L 246.757898 376.814408 
L 258.594261 359.727566 
L 270.430625 345.58125 
L 282.266989 328.97125 
L 294.103352 331.673355 
L 305.939716 324.600197 
L 317.77608 311.804934 
L 329.612443 310.930724 
L 341.448807 303.857566 
L 353.28517 297.817566 
L 365.121534 292.492829 
L 376.957898 295.115461 
L 388.794261 276.836513 
L 400.630625 271.273355 
L 412.466989 261.657039 
L 424.303352 251.325461 
L 436.139716 251.087039 
L 447.97608 254.98125 
L 459.812443 247.192829 
L 471.648807 244.888092 
L 483.48517 242.662829 
L 495.321534 239.801776 
L 507.157898 236.543355 
L 518.994261 204.118092 
L 530.830625 234.953882 
" style="fill:none;stroke:#94c4df;stroke-linecap:square;stroke-width:1.5;"/>
   </g>
   <g id="line2d_54">
    <path clip-path="url(#p486c190dd8)" d="M 140.230625 433.002303 
L 152.066989 428.233882 
L 163.903352 421.955461 
L 175.739716 405.663355 
L 187.57608 407.173355 
L 199.412443 393.185987 
L 211.248807 386.669145 
L 223.08517 377.052829 
L 234.921534 370.059145 
L 246.757898 363.70125 
L 258.594261 361.952829 
L 270.430625 361.317039 
L 282.266989 344.786513 
L 294.103352 340.892303 
L 305.939716 327.302303 
L 317.77608 329.209671 
L 329.612443 316.493882 
L 341.448807 307.592829 
L 353.28517 307.910724 
L 365.121534 291.698092 
L 376.957898 278.584934 
L 388.794261 284.624934 
L 400.630625 285.817039 
L 412.466989 275.008618 
L 424.303352 267.299671 
L 436.139716 271.511776 
L 447.97608 252.279145 
L 459.812443 250.610197 
L 471.648807 244.013882 
L 483.48517 240.914408 
L 495.321534 226.609145 
L 507.157898 205.071776 
L 518.994261 187.349145 
L 530.830625 221.125461 
" style="fill:none;stroke:#94c4df;stroke-linecap:square;stroke-width:1.5;"/>
   </g>
   <g id="line2d_55">
    <path clip-path="url(#p486c190dd8)" d="M 140.230625 431.412829 
L 152.066989 429.267039 
L 163.903352 423.068092 
L 175.739716 417.902303 
L 187.57608 403.755987 
L 199.412443 398.908092 
L 211.248807 391.437566 
L 223.08517 386.907566 
L 234.921534 375.463355 
L 246.757898 377.847566 
L 258.594261 378.960197 
L 270.430625 367.913355 
L 282.266989 361.634934 
L 294.103352 347.011776 
L 305.939716 337.395461 
L 317.77608 332.785987 
L 329.612443 324.520724 
L 341.448807 320.229145 
L 353.28517 307.751776 
L 365.121534 297.579145 
L 376.957898 289.472829 
L 388.794261 282.955987 
L 400.630625 285.658092 
L 412.466989 274.929145 
L 424.303352 261.418618 
L 436.139716 261.498092 
L 447.97608 241.947566 
L 459.812443 246.239145 
L 471.648807 237.973882 
L 483.48517 228.039671 
L 495.321534 216.118618 
L 507.157898 191.56125 
L 518.994261 178.209671 
L 530.830625 201.018618 
" style="fill:none;stroke:#94c4df;stroke-linecap:square;stroke-width:1.5;"/>
   </g>
   <g id="line2d_56">
    <path clip-path="url(#p486c190dd8)" d="M 140.230625 430.777039 
L 152.066989 423.068092 
L 163.903352 411.703355 
L 175.739716 401.928092 
L 187.57608 396.603355 
L 199.412443 392.947566 
L 211.248807 391.914408 
L 223.08517 393.980724 
L 234.921534 388.497039 
L 246.757898 371.728092 
L 258.594261 359.648092 
L 270.430625 353.687566 
L 282.266989 340.892303 
L 294.103352 336.52125 
L 305.939716 326.825461 
L 317.77608 324.282303 
L 329.612443 320.944408 
L 341.448807 310.453882 
L 353.28517 299.089145 
L 365.121534 296.704934 
L 376.957898 296.784408 
L 388.794261 282.558618 
L 400.630625 285.260724 
L 412.466989 260.226513 
L 424.303352 251.166513 
L 436.139716 249.894934 
L 447.97608 220.410197 
L 459.812443 223.986513 
L 471.648807 217.708092 
L 483.48517 219.774408 
L 495.321534 213.178092 
L 507.157898 214.608618 
L 518.994261 203.323355 
L 530.830625 229.549671 
" style="fill:none;stroke:#94c4df;stroke-linecap:square;stroke-width:1.5;"/>
   </g>
   <g id="line2d_57">
    <path clip-path="url(#p486c190dd8)" d="M 140.230625 431.253882 
L 152.066989 424.498618 
L 163.903352 414.723355 
L 175.739716 408.762829 
L 187.57608 401.212829 
L 199.412443 402.484408 
L 211.248807 400.735987 
L 223.08517 392.629671 
L 234.921534 391.358092 
L 246.757898 373.635461 
L 258.594261 364.734408 
L 270.430625 349.634408 
L 282.266989 348.919145 
L 294.103352 339.54125 
L 305.939716 330.640197 
L 317.77608 329.686513 
L 329.612443 302.744934 
L 341.448807 288.280724 
L 353.28517 282.16125 
L 365.121534 281.843355 
L 376.957898 266.345987 
L 388.794261 266.743355 
L 400.630625 258.875461 
L 412.466989 264.359145 
L 424.303352 262.451776 
L 436.139716 265.312829 
L 447.97608 266.822829 
L 459.812443 246.557039 
L 471.648807 224.145461 
L 483.48517 210.793882 
L 495.321534 205.866513 
L 507.157898 189.892303 
L 518.994261 179.004408 
L 530.830625 198.713882 
" style="fill:none;stroke:#94c4df;stroke-linecap:square;stroke-width:1.5;"/>
   </g>
   <g id="line2d_58">
    <path clip-path="url(#p486c190dd8)" d="M 140.230625 433.16125 
L 152.066989 429.505461 
L 163.903352 423.703882 
L 175.739716 414.484934 
L 187.57608 407.729671 
L 199.412443 401.053882 
L 211.248807 393.980724 
L 223.08517 388.735461 
L 234.921534 380.31125 
L 246.757898 368.628618 
L 258.594261 359.886513 
L 270.430625 353.13125 
L 282.266989 350.826513 
L 294.103352 339.779671 
L 305.939716 325.871776 
L 317.77608 326.428092 
L 329.612443 322.215987 
L 341.448807 309.261776 
L 353.28517 295.671776 
L 365.121534 289.234408 
L 376.957898 289.870197 
L 388.794261 285.022303 
L 400.630625 279.618092 
L 412.466989 266.902303 
L 424.303352 261.259671 
L 436.139716 252.438092 
L 447.97608 253.312303 
L 459.812443 274.134408 
L 471.648807 254.504408 
L 483.48517 257.285987 
L 495.321534 243.457566 
L 507.157898 234.318092 
L 518.994261 204.515461 
L 530.830625 228.278092 
" style="fill:none;stroke:#94c4df;stroke-linecap:square;stroke-width:1.5;"/>
   </g>
   <g id="line2d_59">
    <path clip-path="url(#p486c190dd8)" d="M 140.230625 431.412829 
L 152.066989 426.485461 
L 163.903352 415.200197 
L 175.739716 408.683355 
L 187.57608 397.557039 
L 199.412443 387.86125 
L 211.248807 377.529671 
L 223.08517 366.244408 
L 234.921534 360.283882 
L 246.757898 358.297039 
L 258.594261 349.475461 
L 270.430625 344.230197 
L 282.266989 337.554408 
L 294.103352 343.832829 
L 305.939716 336.282829 
L 317.77608 332.547566 
L 329.612443 324.44125 
L 341.448807 310.85125 
L 353.28517 305.685461 
L 365.121534 302.029671 
L 376.957898 295.910197 
L 388.794261 289.393355 
L 400.630625 280.730724 
L 412.466989 268.809671 
L 424.303352 245.285461 
L 436.139716 240.517039 
L 447.97608 224.304408 
L 459.812443 224.860724 
L 471.648807 221.522829 
L 483.48517 216.436513 
L 495.321534 219.059145 
L 507.157898 212.542303 
L 518.994261 216.277566 
L 530.830625 229.470197 
" style="fill:none;stroke:#94c4df;stroke-linecap:square;stroke-width:1.5;"/>
   </g>
   <g id="line2d_60">
    <path clip-path="url(#p486c190dd8)" d="M 140.230625 432.287039 
L 152.066989 428.472303 
L 163.903352 421.796513 
L 175.739716 422.670724 
L 187.57608 414.723355 
L 199.412443 400.418092 
L 211.248807 398.590197 
L 223.08517 388.179145 
L 234.921534 379.754934 
L 246.757898 375.940197 
L 258.594261 363.144934 
L 270.430625 354.482303 
L 282.266989 334.931776 
L 294.103352 330.640197 
L 305.939716 326.269145 
L 317.77608 316.573355 
L 329.612443 297.499671 
L 341.448807 287.644934 
L 353.28517 287.803882 
L 365.121534 274.61125 
L 376.957898 266.584408 
L 388.794261 276.677566 
L 400.630625 270.955461 
L 412.466989 271.352829 
L 424.303352 247.987566 
L 436.139716 242.027039 
L 447.97608 242.027039 
L 459.812443 236.781776 
L 471.648807 239.007039 
L 483.48517 241.947566 
L 495.321534 225.973355 
L 507.157898 217.628618 
L 518.994261 194.104408 
L 530.830625 210.396513 
" style="fill:none;stroke:#94c4df;stroke-linecap:square;stroke-width:1.5;"/>
   </g>
   <g id="line2d_61">
    <path clip-path="url(#p486c190dd8)" d="M 140.230625 432.128092 
L 152.066989 427.518618 
L 163.903352 421.240197 
L 175.739716 419.57125 
L 187.57608 408.762829 
L 199.412443 401.053882 
L 211.248807 393.980724 
L 223.08517 368.787566 
L 234.921534 358.853355 
L 246.757898 344.468618 
L 258.594261 347.329671 
L 270.430625 338.428618 
L 282.266989 331.593882 
L 294.103352 324.043882 
L 305.939716 318.639671 
L 317.77608 317.685987 
L 329.612443 310.612829 
L 341.448807 297.817566 
L 353.28517 289.154934 
L 365.121534 278.584934 
L 376.957898 283.273882 
L 388.794261 266.028092 
L 400.630625 264.359145 
L 412.466989 252.835461 
L 424.303352 242.821776 
L 436.139716 252.279145 
L 447.97608 229.788092 
L 459.812443 218.502829 
L 471.648807 230.503355 
L 483.48517 206.025461 
L 495.321534 216.595461 
L 507.157898 206.343355 
L 518.994261 177.494408 
L 530.830625 203.64125 
" style="fill:none;stroke:#94c4df;stroke-linecap:square;stroke-width:1.5;"/>
   </g>
   <g id="line2d_62">
    <path clip-path="url(#p486c190dd8)" d="M 140.230625 433.16125 
L 152.066989 433.16125 
L 163.903352 433.16125 
L 175.739716 433.16125 
L 187.57608 433.16125 
L 199.412443 433.16125 
L 211.248807 433.16125 
L 223.08517 433.16125 
L 234.921534 433.16125 
L 246.757898 433.16125 
L 258.594261 433.16125 
L 270.430625 433.16125 
L 282.266989 433.16125 
L 294.103352 433.16125 
L 305.939716 433.16125 
L 317.77608 433.16125 
L 329.612443 433.16125 
L 341.448807 433.16125 
L 353.28517 433.16125 
L 365.121534 433.16125 
L 376.957898 433.16125 
L 388.794261 433.16125 
L 400.630625 433.16125 
L 412.466989 433.16125 
L 424.303352 433.16125 
L 436.139716 433.16125 
L 447.97608 433.16125 
L 459.812443 433.16125 
L 471.648807 433.16125 
L 483.48517 433.16125 
L 495.321534 433.16125 
L 507.157898 433.16125 
L 518.994261 433.16125 
L 530.830625 433.16125 
" style="fill:none;stroke:#000000;stroke-linecap:square;stroke-width:1.5;"/>
   </g>
   <g id="line2d_63">
    <path clip-path="url(#p486c190dd8)" d="M 140.230625 433.16125 
L 152.066989 433.16125 
L 163.903352 433.16125 
L 175.739716 433.16125 
L 187.57608 433.16125 
L 199.412443 433.16125 
L 211.248807 433.16125 
L 223.08517 433.16125 
L 234.921534 433.16125 
L 246.757898 433.16125 
L 258.594261 433.16125 
L 270.430625 433.16125 
L 282.266989 433.16125 
L 294.103352 433.16125 
L 305.939716 433.16125 
L 317.77608 433.16125 
L 329.612443 433.16125 
L 341.448807 433.16125 
L 353.28517 433.16125 
L 365.121534 433.16125 
L 376.957898 433.16125 
L 388.794261 433.16125 
L 400.630625 433.16125 
L 412.466989 433.16125 
L 424.303352 433.16125 
L 436.139716 433.16125 
L 447.97608 433.16125 
L 459.812443 433.16125 
L 471.648807 433.16125 
L 483.48517 433.16125 
L 495.321534 433.16125 
L 507.157898 433.16125 
L 518.994261 433.16125 
L 530.830625 433.16125 
" style="fill:none;stroke:#000000;stroke-linecap:square;stroke-width:1.5;"/>
   </g>
   <g id="line2d_64">
    <path clip-path="url(#p486c190dd8)" d="M 140.230625 433.16125 
L 152.066989 433.16125 
L 163.903352 433.16125 
L 175.739716 433.16125 
L 187.57608 433.16125 
L 199.412443 433.16125 
L 211.248807 433.16125 
L 223.08517 433.16125 
L 234.921534 433.16125 
L 246.757898 433.16125 
L 258.594261 433.16125 
L 270.430625 433.16125 
L 282.266989 433.16125 
L 294.103352 433.16125 
L 305.939716 433.16125 
L 317.77608 433.16125 
L 329.612443 433.16125 
L 341.448807 433.16125 
L 353.28517 433.16125 
L 365.121534 433.16125 
L 376.957898 433.16125 
L 388.794261 433.16125 
L 400.630625 433.16125 
L 412.466989 433.16125 
L 424.303352 433.16125 
L 436.139716 433.16125 
L 447.97608 433.16125 
L 459.812443 433.16125 
L 471.648807 433.16125 
L 483.48517 433.16125 
L 495.321534 433.16125 
L 507.157898 433.16125 
L 518.994261 433.16125 
L 530.830625 433.16125 
" style="fill:none;stroke:#000000;stroke-linecap:square;stroke-width:1.5;"/>
   </g>
   <g id="line2d_65">
    <path clip-path="url(#p486c190dd8)" d="M 140.230625 433.16125 
L 152.066989 433.16125 
L 163.903352 433.16125 
L 175.739716 433.16125 
L 187.57608 433.16125 
L 199.412443 433.16125 
L 211.248807 433.16125 
L 223.08517 433.16125 
L 234.921534 433.16125 
L 246.757898 433.16125 
L 258.594261 433.16125 
L 270.430625 433.16125 
L 282.266989 433.16125 
L 294.103352 433.16125 
L 305.939716 433.16125 
L 317.77608 433.16125 
L 329.612443 433.16125 
L 341.448807 433.16125 
L 353.28517 433.16125 
L 365.121534 433.16125 
L 376.957898 433.16125 
L 388.794261 433.16125 
L 400.630625 433.16125 
L 412.466989 433.16125 
L 424.303352 433.16125 
L 436.139716 433.16125 
L 447.97608 433.16125 
L 459.812443 433.16125 
L 471.648807 433.16125 
L 483.48517 433.16125 
L 495.321534 433.16125 
L 507.157898 433.16125 
L 518.994261 433.16125 
L 530.830625 433.16125 
" style="fill:none;stroke:#000000;stroke-linecap:square;stroke-width:1.5;"/>
   </g>
   <g id="line2d_66">
    <path clip-path="url(#p486c190dd8)" d="M 140.230625 433.16125 
L 152.066989 433.16125 
L 163.903352 433.16125 
L 175.739716 433.16125 
L 187.57608 433.16125 
L 199.412443 433.16125 
L 211.248807 433.16125 
L 223.08517 433.16125 
L 234.921534 433.16125 
L 246.757898 433.16125 
L 258.594261 433.16125 
L 270.430625 433.16125 
L 282.266989 433.16125 
L 294.103352 433.16125 
L 305.939716 433.16125 
L 317.77608 433.16125 
L 329.612443 433.16125 
L 341.448807 433.16125 
L 353.28517 433.16125 
L 365.121534 433.16125 
L 376.957898 433.16125 
L 388.794261 433.16125 
L 400.630625 433.16125 
L 412.466989 433.16125 
L 424.303352 433.16125 
L 436.139716 433.16125 
L 447.97608 433.16125 
L 459.812443 433.16125 
L 471.648807 433.16125 
L 483.48517 433.16125 
L 495.321534 433.16125 
L 507.157898 433.16125 
L 518.994261 433.16125 
L 530.830625 433.16125 
" style="fill:none;stroke:#000000;stroke-linecap:square;stroke-width:1.5;"/>
   </g>
   <g id="line2d_67">
    <path clip-path="url(#p486c190dd8)" d="M 140.230625 433.16125 
L 152.066989 433.16125 
L 163.903352 433.16125 
L 175.739716 433.16125 
L 187.57608 433.16125 
L 199.412443 433.16125 
L 211.248807 433.16125 
L 223.08517 433.16125 
L 234.921534 433.16125 
L 246.757898 433.16125 
L 258.594261 433.16125 
L 270.430625 433.16125 
L 282.266989 433.16125 
L 294.103352 433.16125 
L 305.939716 433.16125 
L 317.77608 433.16125 
L 329.612443 433.16125 
L 341.448807 433.16125 
L 353.28517 433.16125 
L 365.121534 433.16125 
L 376.957898 433.16125 
L 388.794261 433.16125 
L 400.630625 433.16125 
L 412.466989 433.16125 
L 424.303352 433.16125 
L 436.139716 433.16125 
L 447.97608 433.16125 
L 459.812443 433.16125 
L 471.648807 433.16125 
L 483.48517 433.16125 
L 495.321534 433.16125 
L 507.157898 433.16125 
L 518.994261 433.16125 
L 530.830625 433.16125 
" style="fill:none;stroke:#000000;stroke-linecap:square;stroke-width:1.5;"/>
   </g>
   <g id="line2d_68">
    <path clip-path="url(#p486c190dd8)" d="M 140.230625 433.16125 
L 152.066989 433.16125 
L 163.903352 433.16125 
L 175.739716 433.16125 
L 187.57608 433.16125 
L 199.412443 433.16125 
L 211.248807 433.16125 
L 223.08517 433.16125 
L 234.921534 433.16125 
L 246.757898 433.16125 
L 258.594261 433.16125 
L 270.430625 433.16125 
L 282.266989 433.16125 
L 294.103352 433.16125 
L 305.939716 433.16125 
L 317.77608 433.16125 
L 329.612443 433.16125 
L 341.448807 433.16125 
L 353.28517 433.16125 
L 365.121534 433.16125 
L 376.957898 433.16125 
L 388.794261 433.16125 
L 400.630625 433.16125 
L 412.466989 433.16125 
L 424.303352 433.16125 
L 436.139716 433.16125 
L 447.97608 433.16125 
L 459.812443 433.16125 
L 471.648807 433.16125 
L 483.48517 433.16125 
L 495.321534 433.16125 
L 507.157898 433.16125 
L 518.994261 433.16125 
L 530.830625 433.16125 
" style="fill:none;stroke:#000000;stroke-linecap:square;stroke-width:1.5;"/>
   </g>
   <g id="line2d_69">
    <path clip-path="url(#p486c190dd8)" d="M 140.230625 433.16125 
L 152.066989 433.16125 
L 163.903352 433.16125 
L 175.739716 433.16125 
L 187.57608 433.16125 
L 199.412443 433.16125 
L 211.248807 433.16125 
L 223.08517 433.16125 
L 234.921534 433.16125 
L 246.757898 433.16125 
L 258.594261 433.16125 
L 270.430625 433.16125 
L 282.266989 433.16125 
L 294.103352 433.16125 
L 305.939716 433.16125 
L 317.77608 433.16125 
L 329.612443 433.16125 
L 341.448807 433.16125 
L 353.28517 433.16125 
L 365.121534 433.16125 
L 376.957898 433.16125 
L 388.794261 433.16125 
L 400.630625 433.16125 
L 412.466989 433.16125 
L 424.303352 433.16125 
L 436.139716 433.16125 
L 447.97608 433.16125 
L 459.812443 433.16125 
L 471.648807 433.16125 
L 483.48517 433.16125 
L 495.321534 433.16125 
L 507.157898 433.16125 
L 518.994261 433.16125 
L 530.830625 433.16125 
" style="fill:none;stroke:#000000;stroke-linecap:square;stroke-width:1.5;"/>
   </g>
   <g id="line2d_70">
    <path clip-path="url(#p486c190dd8)" d="M 140.230625 433.16125 
L 152.066989 433.16125 
L 163.903352 433.16125 
L 175.739716 433.16125 
L 187.57608 433.16125 
L 199.412443 433.16125 
L 211.248807 433.16125 
L 223.08517 433.16125 
L 234.921534 433.16125 
L 246.757898 433.16125 
L 258.594261 433.16125 
L 270.430625 433.16125 
L 282.266989 433.16125 
L 294.103352 433.16125 
L 305.939716 433.16125 
L 317.77608 433.16125 
L 329.612443 433.16125 
L 341.448807 433.16125 
L 353.28517 433.16125 
L 365.121534 433.16125 
L 376.957898 433.16125 
L 388.794261 433.16125 
L 400.630625 433.16125 
L 412.466989 433.16125 
L 424.303352 433.16125 
L 436.139716 433.16125 
L 447.97608 433.16125 
L 459.812443 433.16125 
L 471.648807 433.16125 
L 483.48517 433.16125 
L 495.321534 433.16125 
L 507.157898 433.16125 
L 518.994261 433.16125 
L 530.830625 433.16125 
" style="fill:none;stroke:#000000;stroke-linecap:square;stroke-width:1.5;"/>
   </g>
   <g id="line2d_71">
    <path clip-path="url(#p486c190dd8)" d="M 140.230625 433.16125 
L 152.066989 433.16125 
L 163.903352 433.16125 
L 175.739716 433.16125 
L 187.57608 433.16125 
L 199.412443 433.16125 
L 211.248807 433.16125 
L 223.08517 433.16125 
L 234.921534 433.16125 
L 246.757898 433.16125 
L 258.594261 433.16125 
L 270.430625 433.16125 
L 282.266989 433.16125 
L 294.103352 433.16125 
L 305.939716 433.16125 
L 317.77608 433.16125 
L 329.612443 433.16125 
L 341.448807 433.16125 
L 353.28517 433.16125 
L 365.121534 433.16125 
L 376.957898 433.16125 
L 388.794261 433.16125 
L 400.630625 433.16125 
L 412.466989 433.16125 
L 424.303352 433.16125 
L 436.139716 433.16125 
L 447.97608 433.16125 
L 459.812443 433.16125 
L 471.648807 433.16125 
L 483.48517 433.16125 
L 495.321534 433.16125 
L 507.157898 433.16125 
L 518.994261 433.16125 
L 530.830625 433.16125 
" style="fill:none;stroke:#000000;stroke-linecap:square;stroke-width:1.5;"/>
   </g>
   <g id="line2d_72">
    <path clip-path="url(#p486c190dd8)" d="M 128.394261 433.16125 
" style="fill:none;stroke:#000000;stroke-linecap:square;stroke-width:1.5;"/>
   </g>
   <g id="line2d_73">
    <path clip-path="url(#p486c190dd8)" d="M 128.394261 433.16125 
" style="fill:none;stroke:#d0e1f2;stroke-linecap:square;stroke-width:1.5;"/>
   </g>
   <g id="line2d_74">
    <path clip-path="url(#p486c190dd8)" d="M 128.394261 433.16125 
" style="fill:none;stroke:#94c4df;stroke-linecap:square;stroke-width:1.5;"/>
   </g>
   <g id="line2d_75">
    <path clip-path="url(#p486c190dd8)" d="M 128.394261 433.16125 
" style="fill:none;stroke:#4a98c9;stroke-linecap:square;stroke-width:1.5;"/>
   </g>
   <g id="line2d_76">
    <path clip-path="url(#p486c190dd8)" d="M 128.394261 433.16125 
" style="fill:none;stroke:#1764ab;stroke-linecap:square;stroke-width:1.5;"/>
   </g>
   <g id="line2d_77">
    <path clip-path="url(#p486c190dd8)" d="M 128.394261 433.16125 
" style="fill:none;stroke:#08306b;stroke-linecap:square;stroke-width:1.5;"/>
   </g>
   <g id="line2d_78">
    <path clip-path="url(#p486c190dd8)" d="M 128.394261 433.16125 
" style="fill:none;stroke:#000000;stroke-linecap:square;stroke-width:1.5;"/>
   </g>
   <g id="line2d_79">
    <path clip-path="url(#p486c190dd8)" d="M 128.394261 433.16125 
" style="fill:none;stroke:#000000;stroke-dasharray:1.5,2.475;stroke-dashoffset:0;stroke-width:1.5;"/>
   </g>
   <g id="line2d_80">
    <path clip-path="url(#p486c190dd8)" d="M 128.394261 433.16125 
" style="fill:none;stroke:#000000;stroke-linecap:square;stroke-width:1.5;"/>
   </g>
   <g id="line2d_81">
    <path clip-path="url(#p486c190dd8)" d="M 128.394261 433.16125 
" style="fill:none;stroke:#000000;stroke-dasharray:5.55,2.4;stroke-dashoffset:0;stroke-width:1.5;"/>
   </g>
   <g id="line2d_82">
    <path clip-path="url(#p486c190dd8)" d="M 128.394261 433.16125 
" style="fill:none;stroke:#000000;stroke-dasharray:9.6,2.4,1.5,2.4;stroke-dashoffset:0;stroke-width:1.5;"/>
   </g>
   <g id="line2d_83">
    <path clip-path="url(#p486c190dd8)" d="M 128.394261 433.16125 
" style="fill:none;stroke:#000000;stroke-dasharray:9.6,2.4,1.5,2.4;stroke-dashoffset:0;stroke-width:1.5;"/>
   </g>
   <g id="patch_3">
    <path d="M 140.230625 433.16125 
L 140.230625 52.64125 
" style="fill:none;stroke:#000000;stroke-linecap:square;stroke-linejoin:miter;stroke-width:0.8;"/>
   </g>
   <g id="patch_4">
    <path d="M 530.830625 433.16125 
L 530.830625 52.64125 
" style="fill:none;stroke:#000000;stroke-linecap:square;stroke-linejoin:miter;stroke-width:0.8;"/>
   </g>
   <g id="patch_5">
    <path d="M 140.230625 433.16125 
L 530.830625 433.16125 
" style="fill:none;stroke:#000000;stroke-linecap:square;stroke-linejoin:miter;stroke-width:0.8;"/>
   </g>
   <g id="patch_6">
    <path d="M 140.230625 52.64125 
L 530.830625 52.64125 
" style="fill:none;stroke:#000000;stroke-linecap:square;stroke-linejoin:miter;stroke-width:0.8;"/>
   </g>
   <g id="text_14">
    <!-- T-CELL LIVE COUNT -->
    <g transform="translate(236.660312 21.515625)scale(0.2 -0.2)">
     <use xlink:href="#Arial-BoldMT-84"/>
     <use x="61.005859" xlink:href="#Arial-BoldMT-45"/>
     <use x="94.306641" xlink:href="#Arial-BoldMT-67"/>
     <use x="166.523438" xlink:href="#Arial-BoldMT-69"/>
     <use x="233.222656" xlink:href="#Arial-BoldMT-76"/>
     <use x="294.306641" xlink:href="#Arial-BoldMT-76"/>
     <use x="355.375" xlink:href="#Arial-BoldMT-32"/>
     <use x="383.158203" xlink:href="#Arial-BoldMT-76"/>
     <use x="444.242188" xlink:href="#Arial-BoldMT-73"/>
     <use x="472.025391" xlink:href="#Arial-BoldMT-86"/>
     <use x="538.724609" xlink:href="#Arial-BoldMT-69"/>
     <use x="605.423828" xlink:href="#Arial-BoldMT-32"/>
     <use x="633.207031" xlink:href="#Arial-BoldMT-67"/>
     <use x="705.423828" xlink:href="#Arial-BoldMT-79"/>
     <use x="783.207031" xlink:href="#Arial-BoldMT-85"/>
     <use x="855.423828" xlink:href="#Arial-BoldMT-78"/>
     <use x="927.640625" xlink:href="#Arial-BoldMT-84"/>
    </g>
    <!-- ACROSS RADIUS AT TIME 7 -->
    <defs>
     <path d="M 4.25 57.859375 
L 4.25 70.609375 
L 51.171875 70.609375 
L 51.171875 60.640625 
Q 45.359375 54.9375 39.34375 44.234375 
Q 33.34375 33.546875 30.1875 21.5 
Q 27.046875 9.46875 27.09375 0 
L 13.875 0 
Q 14.203125 14.84375 19.984375 30.265625 
Q 25.78125 45.703125 35.453125 57.859375 
z
" id="Arial-BoldMT-55"/>
    </defs>
    <g transform="translate(200.536875 42.64125)scale(0.2 -0.2)">
     <use xlink:href="#Arial-BoldMT-65"/>
     <use x="72.216797" xlink:href="#Arial-BoldMT-67"/>
     <use x="144.433594" xlink:href="#Arial-BoldMT-82"/>
     <use x="216.650391" xlink:href="#Arial-BoldMT-79"/>
     <use x="294.433594" xlink:href="#Arial-BoldMT-83"/>
     <use x="361.132812" xlink:href="#Arial-BoldMT-83"/>
     <use x="427.832031" xlink:href="#Arial-BoldMT-32"/>
     <use x="455.615234" xlink:href="#Arial-BoldMT-82"/>
     <use x="527.832031" xlink:href="#Arial-BoldMT-65"/>
     <use x="600.048828" xlink:href="#Arial-BoldMT-68"/>
     <use x="672.265625" xlink:href="#Arial-BoldMT-73"/>
     <use x="700.048828" xlink:href="#Arial-BoldMT-85"/>
     <use x="772.265625" xlink:href="#Arial-BoldMT-83"/>
     <use x="838.964844" xlink:href="#Arial-BoldMT-32"/>
     <use x="866.701172" xlink:href="#Arial-BoldMT-65"/>
     <use x="938.808594" xlink:href="#Arial-BoldMT-84"/>
     <use x="999.892578" xlink:href="#Arial-BoldMT-32"/>
     <use x="1027.675781" xlink:href="#Arial-BoldMT-84"/>
     <use x="1088.759766" xlink:href="#Arial-BoldMT-73"/>
     <use x="1116.542969" xlink:href="#Arial-BoldMT-77"/>
     <use x="1199.84375" xlink:href="#Arial-BoldMT-69"/>
     <use x="1266.542969" xlink:href="#Arial-BoldMT-32"/>
     <use x="1294.326172" xlink:href="#Arial-BoldMT-55"/>
    </g>
   </g>
   <g id="legend_1">
    <g id="line2d_84">
     <path d="M 539.830625 65.739687 
L 559.830625 65.739687 
" style="fill:none;stroke:#000000;stroke-linecap:square;stroke-width:1.5;"/>
    </g>
    <g id="line2d_85"/>
    <g id="text_15">
     <!-- 0 -->
     <g transform="translate(567.830625 69.239687)scale(0.1 -0.1)">
      <use xlink:href="#DejaVuSans-48"/>
     </g>
    </g>
    <g id="line2d_86">
     <path d="M 539.830625 80.417812 
L 559.830625 80.417812 
" style="fill:none;stroke:#d0e1f2;stroke-linecap:square;stroke-width:1.5;"/>
    </g>
    <g id="line2d_87"/>
    <g id="text_16">
     <!-- 100 -->
     <g transform="translate(567.830625 83.917812)scale(0.1 -0.1)">
      <use xlink:href="#DejaVuSans-49"/>
      <use x="63.623047" xlink:href="#DejaVuSans-48"/>
      <use x="127.246094" xlink:href="#DejaVuSans-48"/>
     </g>
    </g>
    <g id="line2d_88">
     <path d="M 539.830625 95.095937 
L 559.830625 95.095937 
" style="fill:none;stroke:#94c4df;stroke-linecap:square;stroke-width:1.5;"/>
    </g>
    <g id="line2d_89"/>
    <g id="text_17">
     <!-- 500 -->
     <g transform="translate(567.830625 98.595937)scale(0.1 -0.1)">
      <use xlink:href="#DejaVuSans-53"/>
      <use x="63.623047" xlink:href="#DejaVuSans-48"/>
      <use x="127.246094" xlink:href="#DejaVuSans-48"/>
     </g>
    </g>
    <g id="line2d_90">
     <path d="M 539.830625 109.774062 
L 559.830625 109.774062 
" style="fill:none;stroke:#4a98c9;stroke-linecap:square;stroke-width:1.5;"/>
    </g>
    <g id="line2d_91"/>
    <g id="text_18">
     <!-- 1000 -->
     <g transform="translate(567.830625 113.274062)scale(0.1 -0.1)">
      <use xlink:href="#DejaVuSans-49"/>
      <use x="63.623047" xlink:href="#DejaVuSans-48"/>
      <use x="127.246094" xlink:href="#DejaVuSans-48"/>
      <use x="190.869141" xlink:href="#DejaVuSans-48"/>
     </g>
    </g>
    <g id="line2d_92">
     <path d="M 539.830625 124.452187 
L 559.830625 124.452187 
" style="fill:none;stroke:#1764ab;stroke-linecap:square;stroke-width:1.5;"/>
    </g>
    <g id="line2d_93"/>
    <g id="text_19">
     <!-- 5000 -->
     <g transform="translate(567.830625 127.952187)scale(0.1 -0.1)">
      <use xlink:href="#DejaVuSans-53"/>
      <use x="63.623047" xlink:href="#DejaVuSans-48"/>
      <use x="127.246094" xlink:href="#DejaVuSans-48"/>
      <use x="190.869141" xlink:href="#DejaVuSans-48"/>
     </g>
    </g>
    <g id="line2d_94">
     <path d="M 539.830625 139.130312 
L 559.830625 139.130312 
" style="fill:none;stroke:#08306b;stroke-linecap:square;stroke-width:1.5;"/>
    </g>
    <g id="line2d_95"/>
    <g id="text_20">
     <!-- 10000 -->
     <g transform="translate(567.830625 142.630312)scale(0.1 -0.1)">
      <use xlink:href="#DejaVuSans-49"/>
      <use x="63.623047" xlink:href="#DejaVuSans-48"/>
      <use x="127.246094" xlink:href="#DejaVuSans-48"/>
      <use x="190.869141" xlink:href="#DejaVuSans-48"/>
      <use x="254.492188" xlink:href="#DejaVuSans-48"/>
     </g>
    </g>
    <g id="line2d_96">
     <path d="M 539.830625 153.808437 
L 559.830625 153.808437 
" style="fill:none;stroke:#000000;stroke-linecap:square;stroke-width:1.5;"/>
    </g>
    <g id="line2d_97"/>
    <g id="text_21">
     <!-- 0 -->
     <g transform="translate(567.830625 157.308437)scale(0.1 -0.1)">
      <use xlink:href="#DejaVuSans-48"/>
     </g>
    </g>
    <g id="line2d_98">
     <path d="M 539.830625 168.486562 
L 559.830625 168.486562 
" style="fill:none;stroke:#000000;stroke-dasharray:1.5,2.475;stroke-dashoffset:0;stroke-width:1.5;"/>
    </g>
    <g id="line2d_99"/>
    <g id="text_22">
     <!-- 250 -->
     <g transform="translate(567.830625 171.986562)scale(0.1 -0.1)">
      <use xlink:href="#DejaVuSans-50"/>
      <use x="63.623047" xlink:href="#DejaVuSans-53"/>
      <use x="127.246094" xlink:href="#DejaVuSans-48"/>
     </g>
    </g>
    <g id="line2d_100">
     <path d="M 539.830625 183.164687 
L 559.830625 183.164687 
" style="fill:none;stroke:#000000;stroke-linecap:square;stroke-width:1.5;"/>
    </g>
    <g id="line2d_101"/>
    <g id="text_23">
     <!-- 500 -->
     <g transform="translate(567.830625 186.664687)scale(0.1 -0.1)">
      <use xlink:href="#DejaVuSans-53"/>
      <use x="63.623047" xlink:href="#DejaVuSans-48"/>
      <use x="127.246094" xlink:href="#DejaVuSans-48"/>
     </g>
    </g>
    <g id="line2d_102">
     <path d="M 539.830625 197.842812 
L 559.830625 197.842812 
" style="fill:none;stroke:#000000;stroke-dasharray:5.55,2.4;stroke-dashoffset:0;stroke-width:1.5;"/>
    </g>
    <g id="line2d_103"/>
    <g id="text_24">
     <!-- 1000 -->
     <g transform="translate(567.830625 201.342812)scale(0.1 -0.1)">
      <use xlink:href="#DejaVuSans-49"/>
      <use x="63.623047" xlink:href="#DejaVuSans-48"/>
      <use x="127.246094" xlink:href="#DejaVuSans-48"/>
      <use x="190.869141" xlink:href="#DejaVuSans-48"/>
     </g>
    </g>
    <g id="line2d_104">
     <path d="M 539.830625 212.520937 
L 559.830625 212.520937 
" style="fill:none;stroke:#000000;stroke-dasharray:9.6,2.4,1.5,2.4;stroke-dashoffset:0;stroke-width:1.5;"/>
    </g>
    <g id="line2d_105"/>
    <g id="text_25">
     <!-- 5000 -->
     <g transform="translate(567.830625 216.020937)scale(0.1 -0.1)">
      <use xlink:href="#DejaVuSans-53"/>
      <use x="63.623047" xlink:href="#DejaVuSans-48"/>
      <use x="127.246094" xlink:href="#DejaVuSans-48"/>
      <use x="190.869141" xlink:href="#DejaVuSans-48"/>
     </g>
    </g>
    <g id="line2d_106">
     <path d="M 539.830625 227.199062 
L 559.830625 227.199062 
" style="fill:none;stroke:#000000;stroke-dasharray:9.6,2.4,1.5,2.4;stroke-dashoffset:0;stroke-width:1.5;"/>
    </g>
    <g id="line2d_107"/>
    <g id="text_26">
     <!-- 10000 -->
     <g transform="translate(567.830625 230.699062)scale(0.1 -0.1)">
      <use xlink:href="#DejaVuSans-49"/>
      <use x="63.623047" xlink:href="#DejaVuSans-48"/>
      <use x="127.246094" xlink:href="#DejaVuSans-48"/>
      <use x="190.869141" xlink:href="#DejaVuSans-48"/>
      <use x="254.492188" xlink:href="#DejaVuSans-48"/>
     </g>
    </g>
   </g>
  </g>
 </g>
 <defs>
  <clipPath id="p486c190dd8">
   <rect height="380.52" width="390.6" x="140.230625" y="52.64125"/>
  </clipPath>
 </defs>
</svg>
