<?xml version="1.0" encoding="utf-8" standalone="no"?>
<!DOCTYPE svg PUBLIC "-//W3C//DTD SVG 1.1//EN"
  "http://www.w3.org/Graphics/SVG/1.1/DTD/svg11.dtd">
<!-- Created with matplotlib (https://matplotlib.org/) -->
<svg height="504.658125pt" version="1.1" viewBox="0 0 572.668125 504.658125" width="572.668125pt" xmlns="http://www.w3.org/2000/svg" xmlns:xlink="http://www.w3.org/1999/xlink">
 <defs>
  <style type="text/css">
*{stroke-linecap:butt;stroke-linejoin:round;}
  </style>
 </defs>
 <g id="figure_1">
  <g id="patch_1">
   <path d="M 0 504.658125 
L 572.668125 504.658125 
L 572.668125 -0 
L 0 -0 
z
" style="fill:#ffffff;"/>
  </g>
  <g id="axes_1">
   <g id="patch_2">
    <path d="M 102.055625 433.16125 
L 492.655625 433.16125 
L 492.655625 52.64125 
L 102.055625 52.64125 
z
" style="fill:#ffffff;"/>
   </g>
   <g id="matplotlib.axis_1">
    <g id="xtick_1">
     <g id="line2d_1">
      <defs>
       <path d="M 0 0 
L 0 3.5 
" id="mddad40d88f" style="stroke:#000000;stroke-width:0.8;"/>
      </defs>
      <g>
       <use style="stroke:#000000;stroke-width:0.8;" x="149.40108" xlink:href="#mddad40d88f" y="433.16125"/>
      </g>
     </g>
     <g id="text_1">
      <!-- 5 -->
      <defs>
       <path d="M 10.796875 72.90625 
L 49.515625 72.90625 
L 49.515625 64.59375 
L 19.828125 64.59375 
L 19.828125 46.734375 
Q 21.96875 47.46875 24.109375 47.828125 
Q 26.265625 48.1875 28.421875 48.1875 
Q 40.625 48.1875 47.75 41.5 
Q 54.890625 34.8125 54.890625 23.390625 
Q 54.890625 11.625 47.5625 5.09375 
Q 40.234375 -1.421875 26.90625 -1.421875 
Q 22.3125 -1.421875 17.546875 -0.640625 
Q 12.796875 0.140625 7.71875 1.703125 
L 7.71875 11.625 
Q 12.109375 9.234375 16.796875 8.0625 
Q 21.484375 6.890625 26.703125 6.890625 
Q 35.15625 6.890625 40.078125 11.328125 
Q 45.015625 15.765625 45.015625 23.390625 
Q 45.015625 31 40.078125 35.4375 
Q 35.15625 39.890625 26.703125 39.890625 
Q 22.75 39.890625 18.8125 39.015625 
Q 14.890625 38.140625 10.796875 36.28125 
z
" id="DejaVuSans-53"/>
      </defs>
      <g transform="translate(139.85733 462.956562)scale(0.3 -0.3)">
       <use xlink:href="#DejaVuSans-53"/>
      </g>
     </g>
    </g>
    <g id="xtick_2">
     <g id="line2d_2">
      <g>
       <use style="stroke:#000000;stroke-width:0.8;" x="208.582898" xlink:href="#mddad40d88f" y="433.16125"/>
      </g>
     </g>
     <g id="text_2">
      <!-- 10 -->
      <defs>
       <path d="M 12.40625 8.296875 
L 28.515625 8.296875 
L 28.515625 63.921875 
L 10.984375 60.40625 
L 10.984375 69.390625 
L 28.421875 72.90625 
L 38.28125 72.90625 
L 38.28125 8.296875 
L 54.390625 8.296875 
L 54.390625 0 
L 12.40625 0 
z
" id="DejaVuSans-49"/>
       <path d="M 31.78125 66.40625 
Q 24.171875 66.40625 20.328125 58.90625 
Q 16.5 51.421875 16.5 36.375 
Q 16.5 21.390625 20.328125 13.890625 
Q 24.171875 6.390625 31.78125 6.390625 
Q 39.453125 6.390625 43.28125 13.890625 
Q 47.125 21.390625 47.125 36.375 
Q 47.125 51.421875 43.28125 58.90625 
Q 39.453125 66.40625 31.78125 66.40625 
z
M 31.78125 74.21875 
Q 44.046875 74.21875 50.515625 64.515625 
Q 56.984375 54.828125 56.984375 36.375 
Q 56.984375 17.96875 50.515625 8.265625 
Q 44.046875 -1.421875 31.78125 -1.421875 
Q 19.53125 -1.421875 13.0625 8.265625 
Q 6.59375 17.96875 6.59375 36.375 
Q 6.59375 54.828125 13.0625 64.515625 
Q 19.53125 74.21875 31.78125 74.21875 
z
" id="DejaVuSans-48"/>
      </defs>
      <g transform="translate(189.495398 462.956562)scale(0.3 -0.3)">
       <use xlink:href="#DejaVuSans-49"/>
       <use x="63.623047" xlink:href="#DejaVuSans-48"/>
      </g>
     </g>
    </g>
    <g id="xtick_3">
     <g id="line2d_3">
      <g>
       <use style="stroke:#000000;stroke-width:0.8;" x="267.764716" xlink:href="#mddad40d88f" y="433.16125"/>
      </g>
     </g>
     <g id="text_3">
      <!-- 15 -->
      <g transform="translate(248.677216 462.956562)scale(0.3 -0.3)">
       <use xlink:href="#DejaVuSans-49"/>
       <use x="63.623047" xlink:href="#DejaVuSans-53"/>
      </g>
     </g>
    </g>
    <g id="xtick_4">
     <g id="line2d_4">
      <g>
       <use style="stroke:#000000;stroke-width:0.8;" x="326.946534" xlink:href="#mddad40d88f" y="433.16125"/>
      </g>
     </g>
     <g id="text_4">
      <!-- 20 -->
      <defs>
       <path d="M 19.1875 8.296875 
L 53.609375 8.296875 
L 53.609375 0 
L 7.328125 0 
L 7.328125 8.296875 
Q 12.9375 14.109375 22.625 23.890625 
Q 32.328125 33.6875 34.8125 36.53125 
Q 39.546875 41.84375 41.421875 45.53125 
Q 43.3125 49.21875 43.3125 52.78125 
Q 43.3125 58.59375 39.234375 62.25 
Q 35.15625 65.921875 28.609375 65.921875 
Q 23.96875 65.921875 18.8125 64.3125 
Q 13.671875 62.703125 7.8125 59.421875 
L 7.8125 69.390625 
Q 13.765625 71.78125 18.9375 73 
Q 24.125 74.21875 28.421875 74.21875 
Q 39.75 74.21875 46.484375 68.546875 
Q 53.21875 62.890625 53.21875 53.421875 
Q 53.21875 48.921875 51.53125 44.890625 
Q 49.859375 40.875 45.40625 35.40625 
Q 44.1875 33.984375 37.640625 27.21875 
Q 31.109375 20.453125 19.1875 8.296875 
z
" id="DejaVuSans-50"/>
      </defs>
      <g transform="translate(307.859034 462.956562)scale(0.3 -0.3)">
       <use xlink:href="#DejaVuSans-50"/>
       <use x="63.623047" xlink:href="#DejaVuSans-48"/>
      </g>
     </g>
    </g>
    <g id="xtick_5">
     <g id="line2d_5">
      <g>
       <use style="stroke:#000000;stroke-width:0.8;" x="386.128352" xlink:href="#mddad40d88f" y="433.16125"/>
      </g>
     </g>
     <g id="text_5">
      <!-- 25 -->
      <g transform="translate(367.040852 462.956562)scale(0.3 -0.3)">
       <use xlink:href="#DejaVuSans-50"/>
       <use x="63.623047" xlink:href="#DejaVuSans-53"/>
      </g>
     </g>
    </g>
    <g id="xtick_6">
     <g id="line2d_6">
      <g>
       <use style="stroke:#000000;stroke-width:0.8;" x="445.31017" xlink:href="#mddad40d88f" y="433.16125"/>
      </g>
     </g>
     <g id="text_6">
      <!-- 30 -->
      <defs>
       <path d="M 40.578125 39.3125 
Q 47.65625 37.796875 51.625 33 
Q 55.609375 28.21875 55.609375 21.1875 
Q 55.609375 10.40625 48.1875 4.484375 
Q 40.765625 -1.421875 27.09375 -1.421875 
Q 22.515625 -1.421875 17.65625 -0.515625 
Q 12.796875 0.390625 7.625 2.203125 
L 7.625 11.71875 
Q 11.71875 9.328125 16.59375 8.109375 
Q 21.484375 6.890625 26.8125 6.890625 
Q 36.078125 6.890625 40.9375 10.546875 
Q 45.796875 14.203125 45.796875 21.1875 
Q 45.796875 27.640625 41.28125 31.265625 
Q 36.765625 34.90625 28.71875 34.90625 
L 20.21875 34.90625 
L 20.21875 43.015625 
L 29.109375 43.015625 
Q 36.375 43.015625 40.234375 45.921875 
Q 44.09375 48.828125 44.09375 54.296875 
Q 44.09375 59.90625 40.109375 62.90625 
Q 36.140625 65.921875 28.71875 65.921875 
Q 24.65625 65.921875 20.015625 65.03125 
Q 15.375 64.15625 9.8125 62.3125 
L 9.8125 71.09375 
Q 15.4375 72.65625 20.34375 73.4375 
Q 25.25 74.21875 29.59375 74.21875 
Q 40.828125 74.21875 47.359375 69.109375 
Q 53.90625 64.015625 53.90625 55.328125 
Q 53.90625 49.265625 50.4375 45.09375 
Q 46.96875 40.921875 40.578125 39.3125 
z
" id="DejaVuSans-51"/>
      </defs>
      <g transform="translate(426.22267 462.956562)scale(0.3 -0.3)">
       <use xlink:href="#DejaVuSans-51"/>
       <use x="63.623047" xlink:href="#DejaVuSans-48"/>
      </g>
     </g>
    </g>
    <g id="text_7">
     <!-- RADIUS -->
     <defs>
      <path d="M 7.328125 0 
L 7.328125 71.578125 
L 37.75 71.578125 
Q 49.21875 71.578125 54.421875 69.640625 
Q 59.625 67.71875 62.75 62.78125 
Q 65.875 57.859375 65.875 51.515625 
Q 65.875 43.453125 61.125 38.203125 
Q 56.390625 32.953125 46.96875 31.59375 
Q 51.65625 28.859375 54.703125 25.578125 
Q 57.765625 22.3125 62.9375 13.96875 
L 71.6875 0 
L 54.390625 0 
L 43.953125 15.578125 
Q 38.375 23.921875 36.328125 26.09375 
Q 34.28125 28.265625 31.984375 29.078125 
Q 29.6875 29.890625 24.703125 29.890625 
L 21.78125 29.890625 
L 21.78125 0 
z
M 21.78125 41.3125 
L 32.46875 41.3125 
Q 42.875 41.3125 45.453125 42.1875 
Q 48.046875 43.0625 49.515625 45.203125 
Q 50.984375 47.359375 50.984375 50.59375 
Q 50.984375 54.203125 49.046875 56.421875 
Q 47.125 58.640625 43.609375 59.234375 
Q 41.84375 59.46875 33.0625 59.46875 
L 21.78125 59.46875 
z
" id="Arial-BoldMT-82"/>
      <path d="M 71.828125 0 
L 56.109375 0 
L 49.859375 16.265625 
L 21.234375 16.265625 
L 15.328125 0 
L 0 0 
L 27.875 71.578125 
L 43.171875 71.578125 
z
M 45.21875 28.328125 
L 35.359375 54.890625 
L 25.6875 28.328125 
z
" id="Arial-BoldMT-65"/>
      <path d="M 7.234375 71.578125 
L 33.640625 71.578125 
Q 42.578125 71.578125 47.265625 70.21875 
Q 53.5625 68.359375 58.046875 63.625 
Q 62.546875 58.890625 64.890625 52.03125 
Q 67.234375 45.171875 67.234375 35.109375 
Q 67.234375 26.265625 65.046875 19.875 
Q 62.359375 12.0625 57.375 7.234375 
Q 53.609375 3.5625 47.21875 1.515625 
Q 42.4375 0 34.421875 0 
L 7.234375 0 
z
M 21.6875 59.46875 
L 21.6875 12.0625 
L 32.46875 12.0625 
Q 38.53125 12.0625 41.21875 12.75 
Q 44.734375 13.625 47.046875 15.71875 
Q 49.359375 17.828125 50.828125 22.625 
Q 52.296875 27.4375 52.296875 35.75 
Q 52.296875 44.046875 50.828125 48.484375 
Q 49.359375 52.9375 46.71875 55.421875 
Q 44.09375 57.90625 40.046875 58.796875 
Q 37.015625 59.46875 28.171875 59.46875 
z
" id="Arial-BoldMT-68"/>
      <path d="M 6.84375 0 
L 6.84375 71.578125 
L 21.296875 71.578125 
L 21.296875 0 
z
" id="Arial-BoldMT-73"/>
      <path d="M 7.171875 71.578125 
L 21.625 71.578125 
L 21.625 32.8125 
Q 21.625 23.578125 22.171875 20.84375 
Q 23.09375 16.453125 26.578125 13.796875 
Q 30.078125 11.140625 36.140625 11.140625 
Q 42.28125 11.140625 45.40625 13.640625 
Q 48.53125 16.15625 49.171875 19.8125 
Q 49.8125 23.484375 49.8125 31.984375 
L 49.8125 71.578125 
L 64.265625 71.578125 
L 64.265625 33.984375 
Q 64.265625 21.09375 63.09375 15.765625 
Q 61.921875 10.453125 58.765625 6.78125 
Q 55.609375 3.125 50.328125 0.953125 
Q 45.0625 -1.21875 36.578125 -1.21875 
Q 26.3125 -1.21875 21.015625 1.140625 
Q 15.71875 3.515625 12.640625 7.296875 
Q 9.578125 11.078125 8.59375 15.234375 
Q 7.171875 21.390625 7.171875 33.40625 
z
" id="Arial-BoldMT-85"/>
      <path d="M 3.609375 23.296875 
L 17.671875 24.65625 
Q 18.953125 17.578125 22.828125 14.25 
Q 26.703125 10.9375 33.296875 10.9375 
Q 40.28125 10.9375 43.8125 13.890625 
Q 47.359375 16.84375 47.359375 20.796875 
Q 47.359375 23.34375 45.875 25.125 
Q 44.390625 26.90625 40.671875 28.21875 
Q 38.140625 29.109375 29.109375 31.34375 
Q 17.484375 34.234375 12.796875 38.421875 
Q 6.203125 44.34375 6.203125 52.828125 
Q 6.203125 58.296875 9.296875 63.0625 
Q 12.40625 67.828125 18.234375 70.3125 
Q 24.078125 72.796875 32.328125 72.796875 
Q 45.796875 72.796875 52.609375 66.890625 
Q 59.421875 60.984375 59.765625 51.125 
L 45.3125 50.484375 
Q 44.390625 56 41.328125 58.421875 
Q 38.28125 60.84375 32.171875 60.84375 
Q 25.875 60.84375 22.3125 58.25 
Q 20.015625 56.59375 20.015625 53.8125 
Q 20.015625 51.265625 22.171875 49.46875 
Q 24.90625 47.171875 35.453125 44.671875 
Q 46 42.1875 51.046875 39.515625 
Q 56.109375 36.859375 58.953125 32.25 
Q 61.8125 27.640625 61.8125 20.84375 
Q 61.8125 14.703125 58.390625 9.328125 
Q 54.984375 3.953125 48.734375 1.34375 
Q 42.484375 -1.265625 33.15625 -1.265625 
Q 19.578125 -1.265625 12.296875 5 
Q 5.03125 11.28125 3.609375 23.296875 
z
" id="Arial-BoldMT-83"/>
     </defs>
     <g transform="translate(259.019688 493.51125)scale(0.2 -0.2)">
      <use xlink:href="#Arial-BoldMT-82"/>
      <use x="72.216797" xlink:href="#Arial-BoldMT-65"/>
      <use x="144.433594" xlink:href="#Arial-BoldMT-68"/>
      <use x="216.650391" xlink:href="#Arial-BoldMT-73"/>
      <use x="244.433594" xlink:href="#Arial-BoldMT-85"/>
      <use x="316.650391" xlink:href="#Arial-BoldMT-83"/>
     </g>
    </g>
   </g>
   <g id="matplotlib.axis_2">
    <g id="ytick_1">
     <g id="line2d_7">
      <defs>
       <path d="M 0 0 
L -3.5 0 
" id="m46ca8ca4ea" style="stroke:#000000;stroke-width:0.8;"/>
      </defs>
      <g>
       <use style="stroke:#000000;stroke-width:0.8;" x="102.055625" xlink:href="#m46ca8ca4ea" y="433.16125"/>
      </g>
     </g>
     <g id="text_8">
      <!-- 0 -->
      <g transform="translate(75.968125 444.558906)scale(0.3 -0.3)">
       <use xlink:href="#DejaVuSans-48"/>
      </g>
     </g>
    </g>
    <g id="ytick_2">
     <g id="line2d_8">
      <g>
       <use style="stroke:#000000;stroke-width:0.8;" x="102.055625" xlink:href="#m46ca8ca4ea" y="369.74125"/>
      </g>
     </g>
     <g id="text_9">
      <!-- 5 -->
      <g transform="translate(75.968125 381.138906)scale(0.3 -0.3)">
       <use xlink:href="#DejaVuSans-53"/>
      </g>
     </g>
    </g>
    <g id="ytick_3">
     <g id="line2d_9">
      <g>
       <use style="stroke:#000000;stroke-width:0.8;" x="102.055625" xlink:href="#m46ca8ca4ea" y="306.32125"/>
      </g>
     </g>
     <g id="text_10">
      <!-- 10 -->
      <g transform="translate(56.880625 317.718906)scale(0.3 -0.3)">
       <use xlink:href="#DejaVuSans-49"/>
       <use x="63.623047" xlink:href="#DejaVuSans-48"/>
      </g>
     </g>
    </g>
    <g id="ytick_4">
     <g id="line2d_10">
      <g>
       <use style="stroke:#000000;stroke-width:0.8;" x="102.055625" xlink:href="#m46ca8ca4ea" y="242.90125"/>
      </g>
     </g>
     <g id="text_11">
      <!-- 15 -->
      <g transform="translate(56.880625 254.298906)scale(0.3 -0.3)">
       <use xlink:href="#DejaVuSans-49"/>
       <use x="63.623047" xlink:href="#DejaVuSans-53"/>
      </g>
     </g>
    </g>
    <g id="ytick_5">
     <g id="line2d_11">
      <g>
       <use style="stroke:#000000;stroke-width:0.8;" x="102.055625" xlink:href="#m46ca8ca4ea" y="179.48125"/>
      </g>
     </g>
     <g id="text_12">
      <!-- 20 -->
      <g transform="translate(56.880625 190.878906)scale(0.3 -0.3)">
       <use xlink:href="#DejaVuSans-50"/>
       <use x="63.623047" xlink:href="#DejaVuSans-48"/>
      </g>
     </g>
    </g>
    <g id="ytick_6">
     <g id="line2d_12">
      <g>
       <use style="stroke:#000000;stroke-width:0.8;" x="102.055625" xlink:href="#m46ca8ca4ea" y="116.06125"/>
      </g>
     </g>
     <g id="text_13">
      <!-- 25 -->
      <g transform="translate(56.880625 127.458906)scale(0.3 -0.3)">
       <use xlink:href="#DejaVuSans-50"/>
       <use x="63.623047" xlink:href="#DejaVuSans-53"/>
      </g>
     </g>
    </g>
    <g id="ytick_7">
     <g id="line2d_13">
      <g>
       <use style="stroke:#000000;stroke-width:0.8;" x="102.055625" xlink:href="#m46ca8ca4ea" y="52.64125"/>
      </g>
     </g>
     <g id="text_14">
      <!-- 30 -->
      <g transform="translate(56.880625 64.038906)scale(0.3 -0.3)">
       <use xlink:href="#DejaVuSans-51"/>
       <use x="63.623047" xlink:href="#DejaVuSans-48"/>
      </g>
     </g>
    </g>
    <g id="text_15">
     <!-- T-CELL NORMALIZED -->
     <defs>
      <path d="M 23.390625 0 
L 23.390625 59.46875 
L 2.15625 59.46875 
L 2.15625 71.578125 
L 59.03125 71.578125 
L 59.03125 59.46875 
L 37.84375 59.46875 
L 37.84375 0 
z
" id="Arial-BoldMT-84"/>
      <path d="M 5.609375 19.09375 
L 5.609375 32.8125 
L 32.5625 32.8125 
L 32.5625 19.09375 
z
" id="Arial-BoldMT-45"/>
      <path d="M 53.078125 26.3125 
L 67.09375 21.875 
Q 63.875 10.15625 56.375 4.46875 
Q 48.875 -1.21875 37.359375 -1.21875 
Q 23.09375 -1.21875 13.90625 8.515625 
Q 4.734375 18.265625 4.734375 35.15625 
Q 4.734375 53.03125 13.953125 62.90625 
Q 23.1875 72.796875 38.234375 72.796875 
Q 51.375 72.796875 59.578125 65.046875 
Q 64.453125 60.453125 66.890625 51.859375 
L 52.59375 48.4375 
Q 51.3125 54 47.28125 57.21875 
Q 43.265625 60.453125 37.5 60.453125 
Q 29.546875 60.453125 24.578125 54.734375 
Q 19.625 49.03125 19.625 36.234375 
Q 19.625 22.65625 24.5 16.890625 
Q 29.390625 11.140625 37.203125 11.140625 
Q 42.96875 11.140625 47.109375 14.796875 
Q 51.265625 18.453125 53.078125 26.3125 
z
" id="Arial-BoldMT-67"/>
      <path d="M 7.28125 0 
L 7.28125 71.578125 
L 60.359375 71.578125 
L 60.359375 59.46875 
L 21.734375 59.46875 
L 21.734375 43.609375 
L 57.671875 43.609375 
L 57.671875 31.546875 
L 21.734375 31.546875 
L 21.734375 12.0625 
L 61.71875 12.0625 
L 61.71875 0 
z
" id="Arial-BoldMT-69"/>
      <path d="M 7.671875 0 
L 7.671875 71 
L 22.125 71 
L 22.125 12.0625 
L 58.0625 12.0625 
L 58.0625 0 
z
" id="Arial-BoldMT-76"/>
      <path id="Arial-BoldMT-32"/>
      <path d="M 7.421875 0 
L 7.421875 71.578125 
L 21.484375 71.578125 
L 50.78125 23.78125 
L 50.78125 71.578125 
L 64.203125 71.578125 
L 64.203125 0 
L 49.703125 0 
L 20.84375 46.6875 
L 20.84375 0 
z
" id="Arial-BoldMT-78"/>
      <path d="M 4.34375 35.359375 
Q 4.34375 46.296875 7.625 53.71875 
Q 10.0625 59.1875 14.28125 63.53125 
Q 18.5 67.875 23.53125 69.96875 
Q 30.21875 72.796875 38.96875 72.796875 
Q 54.78125 72.796875 64.28125 62.984375 
Q 73.78125 53.171875 73.78125 35.6875 
Q 73.78125 18.359375 64.359375 8.5625 
Q 54.9375 -1.21875 39.15625 -1.21875 
Q 23.1875 -1.21875 13.765625 8.515625 
Q 4.34375 18.265625 4.34375 35.359375 
z
M 19.234375 35.84375 
Q 19.234375 23.6875 24.84375 17.40625 
Q 30.46875 11.140625 39.109375 11.140625 
Q 47.75 11.140625 53.296875 17.359375 
Q 58.84375 23.578125 58.84375 36.03125 
Q 58.84375 48.34375 53.4375 54.390625 
Q 48.046875 60.453125 39.109375 60.453125 
Q 30.171875 60.453125 24.703125 54.3125 
Q 19.234375 48.1875 19.234375 35.84375 
z
" id="Arial-BoldMT-79"/>
      <path d="M 7.078125 0 
L 7.078125 71.578125 
L 28.71875 71.578125 
L 41.703125 22.75 
L 54.546875 71.578125 
L 76.21875 71.578125 
L 76.21875 0 
L 62.796875 0 
L 62.796875 56.34375 
L 48.578125 0 
L 34.671875 0 
L 20.515625 56.34375 
L 20.515625 0 
z
" id="Arial-BoldMT-77"/>
      <path d="M 1.078125 0 
L 1.078125 13.03125 
L 38.671875 59.46875 
L 5.328125 59.46875 
L 5.328125 71.578125 
L 57.71875 71.578125 
L 57.71875 60.359375 
L 18.5 12.0625 
L 59.234375 12.0625 
L 59.234375 0 
z
" id="Arial-BoldMT-90"/>
     </defs>
     <g transform="translate(21.253125 347.874687)rotate(-90)scale(0.2 -0.2)">
      <use xlink:href="#Arial-BoldMT-84"/>
      <use x="61.005859" xlink:href="#Arial-BoldMT-45"/>
      <use x="94.306641" xlink:href="#Arial-BoldMT-67"/>
      <use x="166.523438" xlink:href="#Arial-BoldMT-69"/>
      <use x="233.222656" xlink:href="#Arial-BoldMT-76"/>
      <use x="294.306641" xlink:href="#Arial-BoldMT-76"/>
      <use x="355.375" xlink:href="#Arial-BoldMT-32"/>
      <use x="383.158203" xlink:href="#Arial-BoldMT-78"/>
      <use x="455.375" xlink:href="#Arial-BoldMT-79"/>
      <use x="533.158203" xlink:href="#Arial-BoldMT-82"/>
      <use x="605.375" xlink:href="#Arial-BoldMT-77"/>
      <use x="688.675781" xlink:href="#Arial-BoldMT-65"/>
      <use x="760.892578" xlink:href="#Arial-BoldMT-76"/>
      <use x="821.976562" xlink:href="#Arial-BoldMT-73"/>
      <use x="849.759766" xlink:href="#Arial-BoldMT-90"/>
      <use x="910.84375" xlink:href="#Arial-BoldMT-69"/>
      <use x="977.542969" xlink:href="#Arial-BoldMT-68"/>
     </g>
     <!-- CELL COUNTS (NUMBERS) -->
     <defs>
      <path d="M 29.9375 -21.046875 
L 20.515625 -21.046875 
Q 13.03125 -9.765625 9.125 2.390625 
Q 5.21875 14.546875 5.21875 25.921875 
Q 5.21875 40.046875 10.0625 52.640625 
Q 14.265625 63.578125 20.703125 72.796875 
L 30.078125 72.796875 
Q 23.390625 58.015625 20.875 47.625 
Q 18.359375 37.25 18.359375 25.640625 
Q 18.359375 17.625 19.84375 9.21875 
Q 21.34375 0.828125 23.921875 -6.734375 
Q 25.640625 -11.71875 29.9375 -21.046875 
z
" id="Arial-BoldMT-40"/>
      <path d="M 7.328125 71.578125 
L 35.9375 71.578125 
Q 44.4375 71.578125 48.609375 70.875 
Q 52.78125 70.171875 56.078125 67.921875 
Q 59.375 65.671875 61.5625 61.9375 
Q 63.765625 58.203125 63.765625 53.5625 
Q 63.765625 48.53125 61.046875 44.328125 
Q 58.34375 40.140625 53.71875 38.03125 
Q 60.25 36.140625 63.765625 31.546875 
Q 67.28125 26.953125 67.28125 20.75 
Q 67.28125 15.875 65.015625 11.25 
Q 62.75 6.640625 58.8125 3.875 
Q 54.890625 1.125 49.125 0.484375 
Q 45.515625 0.09375 31.6875 0 
L 7.328125 0 
z
M 21.78125 59.671875 
L 21.78125 43.109375 
L 31.25 43.109375 
Q 39.703125 43.109375 41.75 43.359375 
Q 45.453125 43.796875 47.578125 45.921875 
Q 49.703125 48.046875 49.703125 51.515625 
Q 49.703125 54.828125 47.875 56.90625 
Q 46.046875 58.984375 42.4375 59.421875 
Q 40.28125 59.671875 30.078125 59.671875 
z
M 21.78125 31.203125 
L 21.78125 12.0625 
L 35.15625 12.0625 
Q 42.96875 12.0625 45.0625 12.5 
Q 48.296875 13.09375 50.3125 15.359375 
Q 52.34375 17.625 52.34375 21.4375 
Q 52.34375 24.65625 50.78125 26.90625 
Q 49.21875 29.15625 46.265625 30.171875 
Q 43.3125 31.203125 33.453125 31.203125 
z
" id="Arial-BoldMT-66"/>
      <path d="M 3.375 -21.046875 
Q 7.421875 -12.359375 9.078125 -7.71875 
Q 10.75 -3.078125 12.15625 2.96875 
Q 13.578125 9.03125 14.25 14.46875 
Q 14.9375 19.921875 14.9375 25.640625 
Q 14.9375 37.25 12.453125 47.625 
Q 9.96875 58.015625 3.265625 72.796875 
L 12.59375 72.796875 
Q 19.96875 62.3125 24.046875 50.53125 
Q 28.125 38.765625 28.125 26.65625 
Q 28.125 16.453125 24.90625 4.78125 
Q 21.234375 -8.296875 12.84375 -21.046875 
z
" id="Arial-BoldMT-41"/>
     </defs>
     <g transform="translate(42.67125 374.002812)rotate(-90)scale(0.2 -0.2)">
      <use xlink:href="#Arial-BoldMT-67"/>
      <use x="72.216797" xlink:href="#Arial-BoldMT-69"/>
      <use x="138.916016" xlink:href="#Arial-BoldMT-76"/>
      <use x="200" xlink:href="#Arial-BoldMT-76"/>
      <use x="261.068359" xlink:href="#Arial-BoldMT-32"/>
      <use x="288.851562" xlink:href="#Arial-BoldMT-67"/>
      <use x="361.068359" xlink:href="#Arial-BoldMT-79"/>
      <use x="438.851562" xlink:href="#Arial-BoldMT-85"/>
      <use x="511.068359" xlink:href="#Arial-BoldMT-78"/>
      <use x="583.285156" xlink:href="#Arial-BoldMT-84"/>
      <use x="644.369141" xlink:href="#Arial-BoldMT-83"/>
      <use x="711.068359" xlink:href="#Arial-BoldMT-32"/>
      <use x="738.851562" xlink:href="#Arial-BoldMT-40"/>
      <use x="772.152344" xlink:href="#Arial-BoldMT-78"/>
      <use x="844.369141" xlink:href="#Arial-BoldMT-85"/>
      <use x="916.585938" xlink:href="#Arial-BoldMT-77"/>
      <use x="999.886719" xlink:href="#Arial-BoldMT-66"/>
      <use x="1072.103516" xlink:href="#Arial-BoldMT-69"/>
      <use x="1138.802734" xlink:href="#Arial-BoldMT-82"/>
      <use x="1211.019531" xlink:href="#Arial-BoldMT-83"/>
      <use x="1277.71875" xlink:href="#Arial-BoldMT-41"/>
     </g>
    </g>
   </g>
   <g id="line2d_14">
    <path clip-path="url(#pc54d373ccc)" d="M 102.055625 217.53325 
L 113.891989 94.92125 
L 125.728352 138.25825 
L 137.564716 125.221917 
L 149.40108 110.24775 
L 161.237443 113.94725 
L 173.073807 105.843583 
L 184.91017 98.24325 
L 196.746534 110.77625 
L 208.582898 109.71925 
L 220.419261 91.11605 
L 232.255625 97.611795 
L 244.091989 121.698583 
L 255.928352 112.158481 
L 267.764716 101.11225 
L 279.60108 115.074717 
L 291.437443 112.0975 
L 303.273807 115.563838 
L 315.11017 113.242583 
L 326.946534 108.717882 
L 338.782898 102.32025 
L 350.619261 111.430583 
L 362.455625 106.932614 
L 374.291989 109.71925 
L 386.128352 110.512 
L 397.964716 121.55765 
L 409.80108 113.703327 
L 421.637443 122.090065 
L 433.473807 111.07825 
L 445.31017 117.373388 
L 457.146534 127.26545 
L 468.982898 123.630734 
L 480.819261 129.075562 
L 492.655625 132.012341 
" style="fill:none;stroke:#08306b;stroke-linecap:square;stroke-width:1.5;"/>
   </g>
   <g id="line2d_15">
    <path clip-path="url(#pc54d373ccc)" d="M 102.055625 78.00925 
L 113.891989 105.49125 
L 125.728352 87.52225 
L 137.564716 109.71925 
L 149.40108 121.87475 
L 161.237443 121.55765 
L 173.073807 125.57425 
L 184.91017 125.72525 
L 196.746534 117.3825 
L 208.582898 113.712361 
L 220.419261 112.25605 
L 232.255625 118.943977 
L 244.091989 110.071583 
L 255.928352 116.386481 
L 267.764716 116.36325 
L 279.60108 103.80005 
L 291.437443 109.9835 
L 303.273807 113.076779 
L 315.11017 107.252917 
L 326.946534 105.936303 
L 338.782898 110.14205 
L 350.619261 112.034583 
L 362.455625 117.694795 
L 374.291989 110.730293 
L 386.128352 122.227083 
L 397.964716 116.99141 
L 409.80108 108.174404 
L 421.637443 113.32088 
L 433.473807 120.59125 
L 445.31017 108.990284 
L 457.146534 109.578317 
L 468.982898 118.516218 
L 480.819261 114.079375 
L 492.655625 120.033008 
" style="fill:none;stroke:#08306b;stroke-linecap:square;stroke-width:1.5;"/>
   </g>
   <g id="line2d_16">
    <path clip-path="url(#pc54d373ccc)" d="M 102.055625 90.69325 
L 113.891989 99.14925 
L 125.728352 93.86425 
L 137.564716 94.92125 
L 149.40108 104.96275 
L 161.237443 84.77405 
L 173.073807 69.200917 
L 184.91017 96.43125 
L 196.746534 112.0975 
L 208.582898 116.06125 
L 220.419261 116.06125 
L 232.255625 110.295795 
L 244.091989 123.284083 
L 255.928352 108.255712 
L 267.764716 103.52825 
L 279.60108 113.52445 
L 291.437443 113.286625 
L 303.273807 120.28925 
L 315.11017 113.242583 
L 326.946534 113.724724 
L 338.782898 116.16695 
L 350.619261 123.812583 
L 362.455625 123.364159 
L 374.291989 97.402902 
L 386.128352 98.444583 
L 397.964716 106.75965 
L 409.80108 107.198712 
L 421.637443 107.918435 
L 433.473807 106.92575 
L 445.31017 110.083733 
L 457.146534 118.879917 
L 468.982898 115.447508 
L 480.819261 110.049562 
L 492.655625 122.531371 
" style="fill:none;stroke:#08306b;stroke-linecap:square;stroke-width:1.5;"/>
   </g>
   <g id="line2d_17">
    <path clip-path="url(#pc54d373ccc)" d="M 102.055625 128.74525 
L 113.891989 111.83325 
L 125.728352 125.57425 
L 137.564716 99.853917 
L 149.40108 116.58975 
L 161.237443 109.29645 
L 173.073807 116.765917 
L 184.91017 119.08125 
L 196.746534 122.6675 
L 208.582898 132.268583 
L 220.419261 121.76905 
L 232.255625 117.022159 
L 244.091989 111.128583 
L 255.928352 109.231404 
L 267.764716 107.15225 
L 279.60108 114.933783 
L 291.437443 96.110375 
L 303.273807 101.014544 
L 315.11017 113.94725 
L 326.946534 107.382724 
L 338.782898 112.99595 
L 350.619261 110.121917 
L 362.455625 107.797432 
L 374.291989 110.270728 
L 386.128352 104.258083 
L 397.964716 114.96197 
L 409.80108 109.475327 
L 421.637443 110.658806 
L 433.473807 117.49575 
L 445.31017 117.664974 
L 457.146534 121.064383 
L 468.982898 113.606282 
L 480.819261 119.034062 
L 492.655625 126.951553 
" style="fill:none;stroke:#08306b;stroke-linecap:square;stroke-width:1.5;"/>
   </g>
   <g id="line2d_18">
    <path clip-path="url(#pc54d373ccc)" d="M 102.055625 141.42925 
L 113.891989 107.60525 
L 125.728352 106.54825 
L 137.564716 113.242583 
L 149.40108 122.40325 
L 161.237443 126.63125 
L 173.073807 117.11825 
L 184.91017 127.83925 
L 196.746534 113.41875 
L 208.582898 105.961028 
L 220.419261 105.06845 
L 232.255625 117.983068 
L 244.091989 106.195917 
L 255.928352 105.653865 
L 267.764716 119.98725 
L 279.60108 112.396983 
L 291.437443 106.416125 
L 303.273807 122.030191 
L 315.11017 123.46025 
L 326.946534 108.717882 
L 338.782898 118.80945 
L 350.619261 120.490583 
L 362.455625 116.926068 
L 374.291989 122.678989 
L 386.128352 120.025 
L 397.964716 112.42517 
L 409.80108 107.60525 
L 421.637443 114.651917 
L 433.473807 112.43725 
L 445.31017 117.008905 
L 457.146534 113.172117 
L 468.982898 115.10654 
L 480.819261 119.034062 
L 492.655625 134.510705 
" style="fill:none;stroke:#08306b;stroke-linecap:square;stroke-width:1.5;"/>
   </g>
   <g id="line2d_19">
    <path clip-path="url(#pc54d373ccc)" d="M 102.055625 65.32525 
L 113.891989 82.23725 
L 125.728352 116.06125 
L 137.564716 97.739917 
L 149.40108 83.82275 
L 161.237443 69.13045 
L 173.073807 81.532583 
L 184.91017 85.55925 
L 196.746534 93.33575 
L 208.582898 103.37725 
L 220.419261 122.19185 
L 232.255625 107.028705 
L 244.091989 106.372083 
L 255.928352 114.272481 
L 267.764716 115.91025 
L 279.60108 117.893383 
L 291.437443 122.139 
L 303.273807 125.760779 
L 315.11017 113.360028 
L 326.946534 119.065355 
L 338.782898 113.10165 
L 350.619261 111.83325 
L 362.455625 123.940705 
L 374.291989 127.366554 
L 386.128352 126.8955 
L 397.964716 121.38853 
L 409.80108 126.875173 
L 421.637443 119.819472 
L 433.473807 116.06125 
L 445.31017 120.50794 
L 457.146534 119.302717 
L 468.982898 112.106024 
L 480.819261 115.00425 
L 492.655625 120.673614 
" style="fill:none;stroke:#08306b;stroke-linecap:square;stroke-width:1.5;"/>
   </g>
   <g id="line2d_20">
    <path clip-path="url(#pc54d373ccc)" d="M 116.421805 -1 
L 125.728352 50.52725 
L 137.564716 61.801917 
L 149.40108 124.51725 
L 161.237443 116.90685 
L 173.073807 111.83325 
L 184.91017 119.08125 
L 196.746534 112.626 
L 208.582898 109.249472 
L 220.419261 116.90685 
L 232.255625 121.250159 
L 244.091989 110.24775 
L 255.928352 109.881865 
L 267.764716 100.65925 
L 279.60108 115.497517 
L 291.437443 116.3255 
L 303.273807 108.102662 
L 315.11017 106.783139 
L 326.946534 108.495355 
L 338.782898 115.00425 
L 350.619261 115.960583 
L 362.455625 113.851159 
L 374.291989 108.340554 
L 386.128352 121.6105 
L 397.964716 123.84077 
L 409.80108 114.516404 
L 421.637443 118.958213 
L 433.473807 105.79325 
L 445.31017 109.063181 
L 457.146534 103.870517 
L 468.982898 115.379315 
L 480.819261 116.655812 
L 492.655625 132.332644 
" style="fill:none;stroke:#08306b;stroke-linecap:square;stroke-width:1.5;"/>
   </g>
   <g id="line2d_21">
    <path clip-path="url(#pc54d373ccc)" d="M 102.055625 116.06125 
L 113.891989 122.40325 
L 125.728352 124.51725 
L 137.564716 115.356583 
L 149.40108 130.85925 
L 161.237443 127.89965 
L 173.073807 114.651917 
L 184.91017 115.75925 
L 196.746534 116.854 
L 208.582898 131.329028 
L 220.419261 112.67885 
L 232.255625 123.748523 
L 244.091989 126.983583 
L 255.928352 123.866788 
L 267.764716 125.72525 
L 279.60108 111.692317 
L 291.437443 113.286625 
L 303.273807 97.781368 
L 315.11017 97.270139 
L 326.946534 98.481671 
L 338.782898 109.82495 
L 350.619261 122.000583 
L 362.455625 124.325068 
L 374.291989 129.296728 
L 386.128352 117.911 
L 397.964716 128.91437 
L 409.80108 133.461096 
L 421.637443 130.23288 
L 433.473807 113.56975 
L 445.31017 108.115526 
L 457.146534 107.464317 
L 468.982898 109.446476 
L 480.819261 111.502937 
L 492.655625 124.453189 
" style="fill:none;stroke:#08306b;stroke-linecap:square;stroke-width:1.5;"/>
   </g>
   <g id="line2d_22">
    <path clip-path="url(#pc54d373ccc)" d="M 102.055625 52.64125 
L 113.891989 94.92125 
L 125.728352 103.37725 
L 137.564716 125.926583 
L 149.40108 119.76075 
L 161.237443 113.94725 
L 173.073807 119.584583 
L 184.91017 122.10125 
L 196.746534 121.87475 
L 208.582898 124.51725 
L 220.419261 106.33685 
L 232.255625 107.797432 
L 244.091989 113.94725 
L 255.928352 116.223865 
L 267.764716 111.98425 
L 279.60108 110.282983 
L 291.437443 98.752875 
L 303.273807 108.973132 
L 315.11017 110.541361 
L 326.946534 116.506303 
L 338.782898 105.91405 
L 350.619261 115.557917 
L 362.455625 118.367432 
L 374.291989 108.80012 
L 386.128352 121.170083 
L 397.964716 110.81853 
L 409.80108 108.499635 
L 421.637443 108.544806 
L 433.473807 110.09675 
L 445.31017 114.603319 
L 457.146534 115.990783 
L 468.982898 109.71925 
L 480.819261 112.295687 
L 492.655625 125.926583 
" style="fill:none;stroke:#08306b;stroke-linecap:square;stroke-width:1.5;"/>
   </g>
   <g id="line2d_23">
    <path clip-path="url(#pc54d373ccc)" d="M 102.055625 103.37725 
L 113.891989 120.28925 
L 125.728352 146.71425 
L 137.564716 108.309917 
L 149.40108 129.27375 
L 161.237443 134.66445 
L 173.073807 126.983583 
L 184.91017 99.45125 
L 196.746534 93.33575 
L 208.582898 87.404806 
L 220.419261 84.77405 
L 232.255625 85.888705 
L 244.091989 79.242417 
L 255.928352 101.588481 
L 267.764716 110.02125 
L 279.60108 116.90685 
L 291.437443 119.364375 
L 303.273807 116.06125 
L 315.11017 116.883361 
L 326.946534 119.955461 
L 338.782898 116.48405 
L 350.619261 116.36325 
L 362.455625 114.427705 
L 374.291989 109.075859 
L 386.128352 109.895417 
L 397.964716 116.23037 
L 409.80108 124.110712 
L 421.637443 118.018657 
L 433.473807 123.98875 
L 445.31017 118.758422 
L 457.146534 119.584583 
L 468.982898 116.334024 
L 480.819261 113.683 
L 492.655625 118.943977 
" style="fill:none;stroke:#08306b;stroke-linecap:square;stroke-width:1.5;"/>
   </g>
   <g id="line2d_24">
    <path clip-path="url(#pc54d373ccc)" d="M 102.055625 230.21725 
L 113.891989 177.36725 
L 125.728352 173.13925 
L 137.564716 133.677917 
L 149.40108 92.27875 
L 161.237443 101.68605 
L 173.073807 111.83325 
L 184.91017 135.08725 
L 196.746534 134.55875 
L 208.582898 157.166806 
L 220.419261 162.56925 
L 232.255625 166.79725 
L 244.091989 157.81275 
L 255.928352 148.746942 
L 267.764716 141.73125 
L 279.60108 133.677917 
L 291.437443 141.42925 
L 303.273807 141.42925 
L 315.11017 144.717694 
L 326.946534 137.757566 
L 338.782898 141.53495 
L 350.619261 135.791917 
L 362.455625 145.465068 
L 374.291989 148.874207 
L 386.128352 139.31525 
L 397.964716 157.07285 
L 409.80108 145.413327 
L 421.637443 143.386657 
L 433.473807 150.64025 
L 445.31017 156.883319 
L 457.146534 153.47905 
L 468.982898 167.274605 
L 480.819261 167.259687 
L 492.655625 186.463856 
" style="fill:none;stroke:#4a98c9;stroke-linecap:square;stroke-width:1.5;"/>
   </g>
   <g id="line2d_25">
    <path clip-path="url(#pc54d373ccc)" d="M 102.055625 166.79725 
L 113.891989 141.42925 
L 125.728352 173.13925 
L 137.564716 171.729917 
L 149.40108 154.11325 
L 161.237443 182.01805 
L 173.073807 182.299917 
L 184.91017 166.19325 
L 196.746534 172.08225 
L 208.582898 165.857694 
L 220.419261 153.90185 
L 232.255625 142.582341 
L 244.091989 130.506917 
L 255.928352 139.31525 
L 267.764716 131.46325 
L 279.60108 113.242583 
L 291.437443 126.63125 
L 303.273807 134.092426 
L 315.11017 125.221917 
L 326.946534 135.08725 
L 338.782898 143.01475 
L 350.619261 136.194583 
L 362.455625 129.513977 
L 374.291989 144.554293 
L 386.128352 151.030333 
L 397.964716 131.70485 
L 409.80108 147.446019 
L 421.637443 144.874287 
L 433.473807 144.29825 
L 445.31017 151.99925 
L 457.146534 146.71425 
L 468.982898 163.72854 
L 480.819261 159.200062 
L 492.655625 181.082765 
" style="fill:none;stroke:#4a98c9;stroke-linecap:square;stroke-width:1.5;"/>
   </g>
   <g id="line2d_26">
    <path clip-path="url(#pc54d373ccc)" d="M 102.055625 192.16525 
L 113.891989 185.82325 
L 125.728352 218.59025 
L 137.564716 187.232583 
L 149.40108 155.17025 
L 161.237443 133.81885 
L 173.073807 142.48625 
L 184.91017 137.50325 
L 196.746534 131.1235 
L 208.582898 132.97325 
L 220.419261 157.28425 
L 232.255625 142.005795 
L 244.091989 134.206417 
L 255.928352 164.358019 
L 267.764716 159.70025 
L 279.60108 170.17965 
L 291.437443 168.647 
L 303.273807 169.906074 
L 315.11017 167.384472 
L 326.946534 170.246408 
L 338.782898 156.12155 
L 350.619261 160.354583 
L 362.455625 152.191432 
L 374.291989 145.841076 
L 386.128352 142.045833 
L 397.964716 148.95509 
L 409.80108 152.161865 
L 421.637443 158.811028 
L 433.473807 153.96225 
L 445.31017 156.22725 
L 457.146534 159.680117 
L 468.982898 145.111702 
L 480.819261 152.329562 
L 492.655625 173.843917 
" style="fill:none;stroke:#4a98c9;stroke-linecap:square;stroke-width:1.5;"/>
   </g>
   <g id="line2d_27">
    <path clip-path="url(#pc54d373ccc)" d="M 102.055625 90.69325 
L 113.891989 126.63125 
L 125.728352 121.34625 
L 137.564716 137.20125 
L 149.40108 134.55875 
L 161.237443 138.89245 
L 173.073807 131.563917 
L 184.91017 148.67725 
L 196.746534 131.1235 
L 208.582898 178.306806 
L 220.419261 164.89465 
L 232.255625 191.973068 
L 244.091989 167.501917 
L 255.928352 161.268327 
L 267.764716 171.17625 
L 279.60108 172.575517 
L 291.437443 157.02 
L 303.273807 153.367132 
L 315.11017 146.831694 
L 326.946534 135.532303 
L 338.782898 136.24995 
L 350.619261 130.55725 
L 362.455625 128.456977 
L 374.291989 121.300293 
L 386.128352 122.579417 
L 397.964716 126.96949 
L 409.80108 117.199558 
L 421.637443 142.760287 
L 433.473807 161.81425 
L 445.31017 148.135733 
L 457.146534 152.351583 
L 468.982898 158.750411 
L 480.819261 156.689687 
L 492.655625 187.104462 
" style="fill:none;stroke:#4a98c9;stroke-linecap:square;stroke-width:1.5;"/>
   </g>
   <g id="line2d_28">
    <path clip-path="url(#pc54d373ccc)" d="M 102.055625 154.11325 
L 113.891989 168.91125 
L 125.728352 151.99925 
L 137.564716 122.40325 
L 149.40108 109.71925 
L 161.237443 100.84045 
L 173.073807 139.667583 
L 184.91017 149.28125 
L 196.746534 142.48625 
L 208.582898 162.334361 
L 220.419261 151.99925 
L 232.255625 141.42925 
L 244.091989 131.38775 
L 255.928352 140.616173 
L 267.764716 141.58025 
L 279.60108 123.389783 
L 291.437443 123.46025 
L 303.273807 135.335956 
L 315.11017 132.268583 
L 326.946534 130.080408 
L 338.782898 150.09665 
L 350.619261 154.213917 
L 362.455625 156.035068 
L 374.291989 155.400033 
L 386.128352 145.65725 
L 397.964716 131.28205 
L 409.80108 118.581788 
L 421.637443 129.919694 
L 433.473807 126.32925 
L 445.31017 129.255526 
L 457.146534 142.90905 
L 468.982898 174.844089 
L 480.819261 169.373687 
L 492.655625 194.27925 
" style="fill:none;stroke:#4a98c9;stroke-linecap:square;stroke-width:1.5;"/>
   </g>
   <g id="line2d_29">
    <path clip-path="url(#pc54d373ccc)" d="M 102.055625 78.00925 
L 113.891989 200.62125 
L 125.728352 147.77125 
L 137.564716 179.48125 
L 149.40108 235.50225 
L 161.237443 201.88965 
L 173.073807 182.65225 
L 184.91017 204.24525 
L 196.746534 157.5485 
L 208.582898 158.34125 
L 220.419261 141.21785 
L 232.255625 133.549795 
L 244.091989 131.035417 
L 255.928352 135.900327 
L 267.764716 161.05925 
L 279.60108 170.461517 
L 291.437443 140.108 
L 303.273807 145.65725 
L 315.11017 136.614028 
L 326.946534 130.747987 
L 338.782898 121.45195 
L 350.619261 123.409917 
L 362.455625 121.154068 
L 374.291989 132.97325 
L 386.128352 140.724583 
L 397.964716 144.64253 
L 409.80108 139.152635 
L 421.637443 160.611843 
L 433.473807 175.17775 
L 445.31017 157.758078 
L 457.146534 148.546383 
L 468.982898 149.066927 
L 480.819261 151.536812 
L 492.655625 177.303189 
" style="fill:none;stroke:#4a98c9;stroke-linecap:square;stroke-width:1.5;"/>
   </g>
   <g id="line2d_30">
    <path clip-path="url(#pc54d373ccc)" d="M 102.055625 306.32125 
L 113.891989 219.64725 
L 125.728352 148.82825 
L 137.564716 175.25325 
L 149.40108 144.07175 
L 161.237443 176.09885 
L 173.073807 146.71425 
L 184.91017 151.69725 
L 196.746534 176.83875 
L 208.582898 133.912806 
L 220.419261 140.37225 
L 232.255625 134.895068 
L 244.091989 114.828083 
L 255.928352 131.347096 
L 267.764716 129.19825 
L 279.60108 137.20125 
L 291.437443 147.507 
L 303.273807 119.791838 
L 315.11017 114.064694 
L 326.946534 118.286513 
L 338.782898 122.40325 
L 350.619261 131.563917 
L 362.455625 141.717523 
L 374.291989 143.818989 
L 386.128352 145.393 
L 397.964716 151.32277 
L 409.80108 153.300173 
L 421.637443 150.276731 
L 433.473807 154.94375 
L 445.31017 143.834836 
L 457.146534 148.475917 
L 468.982898 162.978411 
L 480.819261 157.416375 
L 492.655625 189.666886 
" style="fill:none;stroke:#4a98c9;stroke-linecap:square;stroke-width:1.5;"/>
   </g>
   <g id="line2d_31">
    <path clip-path="url(#pc54d373ccc)" d="M 102.055625 141.42925 
L 113.891989 128.74525 
L 125.728352 143.54325 
L 137.564716 120.28925 
L 149.40108 119.23225 
L 161.237443 120.28925 
L 173.073807 106.900583 
L 184.91017 102.16925 
L 196.746534 102.5845 
L 208.582898 138.845472 
L 220.419261 139.10385 
L 232.255625 148.924341 
L 244.091989 149.709083 
L 255.928352 141.591865 
L 267.764716 136.29525 
L 279.60108 125.221917 
L 291.437443 128.084625 
L 303.273807 136.455132 
L 315.11017 137.905917 
L 326.946534 149.662724 
L 338.782898 142.16915 
L 350.619261 143.945917 
L 362.455625 156.803795 
L 374.291989 146.392554 
L 386.128352 144.424083 
L 397.964716 145.65725 
L 409.80108 149.722635 
L 421.637443 146.753398 
L 433.473807 156.75575 
L 445.31017 143.907733 
L 457.146534 141.358783 
L 468.982898 147.293895 
L 480.819261 139.777687 
L 492.655625 176.214159 
" style="fill:none;stroke:#4a98c9;stroke-linecap:square;stroke-width:1.5;"/>
   </g>
   <g id="line2d_32">
    <path clip-path="url(#pc54d373ccc)" d="M 103.852336 -1 
L 113.891989 124.51725 
L 125.728352 142.48625 
L 137.564716 110.423917 
L 149.40108 168.91125 
L 161.237443 177.36725 
L 173.073807 183.356917 
L 184.91017 162.87125 
L 196.746534 169.704 
L 208.582898 151.99925 
L 220.419261 136.98985 
L 232.255625 137.009068 
L 244.091989 133.854083 
L 255.928352 131.184481 
L 267.764716 141.12725 
L 279.60108 154.11325 
L 291.437443 141.6935 
L 303.273807 140.558779 
L 315.11017 119.936917 
L 326.946534 119.287882 
L 338.782898 115.21565 
L 350.619261 103.37725 
L 362.455625 114.331614 
L 374.291989 116.704641 
L 386.128352 110.24775 
L 397.964716 110.14205 
L 409.80108 119.069635 
L 421.637443 122.873028 
L 433.473807 135.84225 
L 445.31017 139.169457 
L 457.146534 141.711117 
L 468.982898 148.112218 
L 480.819261 137.597625 
L 492.655625 159.686523 
" style="fill:none;stroke:#4a98c9;stroke-linecap:square;stroke-width:1.5;"/>
   </g>
   <g id="line2d_33">
    <path clip-path="url(#pc54d373ccc)" d="M 102.055625 204.84925 
L 113.891989 293.63725 
L 125.728352 216.47625 
L 137.564716 183.004583 
L 149.40108 149.88525 
L 161.237443 127.89965 
L 173.073807 96.330583 
L 184.91017 85.86125 
L 196.746534 95.714 
L 208.582898 94.92125 
L 220.419261 103.16585 
L 232.255625 108.373977 
L 244.091989 120.113083 
L 255.928352 136.876019 
L 267.764716 133.42625 
L 279.60108 172.152717 
L 291.437443 152.924125 
L 303.273807 125.512074 
L 315.11017 112.89025 
L 326.946534 115.949987 
L 338.782898 131.17635 
L 350.619261 141.227917 
L 362.455625 136.240341 
L 374.291989 143.818989 
L 386.128352 152.087333 
L 397.964716 151.06909 
L 409.80108 147.608635 
L 421.637443 148.867398 
L 433.473807 136.37075 
L 445.31017 132.900353 
L 457.146534 139.244783 
L 468.982898 131.472992 
L 480.819261 155.69875 
L 492.655625 185.82325 
" style="fill:none;stroke:#4a98c9;stroke-linecap:square;stroke-width:1.5;"/>
   </g>
   <g id="line2d_34">
    <path clip-path="url(#pc54d373ccc)" d="M 102.055625 344.37325 
L 113.891989 340.14525 
L 125.728352 298.92225 
L 137.564716 293.63725 
L 149.40108 307.37825 
L 161.237443 284.33565 
L 173.073807 313.015583 
L 184.91017 309.34125 
L 196.746534 340.938 
L 208.582898 304.20725 
L 220.419261 317.73685 
L 232.255625 342.643614 
L 244.091989 329.04675 
L 255.928352 334.778942 
L 267.764716 334.10525 
L 279.60108 315.481917 
L 291.437443 311.8705 
L 303.273807 311.668426 
L 315.11017 316.421472 
L 326.946534 321.341776 
L 338.782898 340.77945 
L 350.619261 337.225917 
L 362.455625 338.03125 
L 374.291989 335.825337 
L 386.128352 312.046667 
L 397.964716 322.21853 
L 409.80108 316.809942 
L 421.637443 310.157769 
L 433.473807 309.34125 
L 445.31017 304.280147 
L 457.146534 291.382317 
L 468.982898 279.043831 
L 480.819261 279.1035 
L 492.655625 288.768644 
" style="fill:none;stroke:#d0e1f2;stroke-linecap:square;stroke-width:1.5;"/>
   </g>
   <g id="line2d_35">
    <path clip-path="url(#pc54d373ccc)" d="M 102.055625 433.16125 
L 113.891989 329.57525 
L 125.728352 285.18125 
L 137.564716 271.792583 
L 149.40108 245.54375 
L 161.237443 261.92725 
L 173.073807 282.714917 
L 184.91017 292.42925 
L 196.746534 305.5285 
L 208.582898 317.126139 
L 220.419261 324.29025 
L 232.255625 302.285432 
L 244.091989 316.36275 
L 255.928352 332.339712 
L 267.764716 319.45825 
L 279.60108 311.676717 
L 291.437443 345.826625 
L 303.273807 331.813603 
L 315.11017 333.333472 
L 326.946534 334.248303 
L 338.782898 337.92555 
L 350.619261 323.333917 
L 362.455625 319.197432 
L 374.291989 308.251424 
L 386.128352 314.24875 
L 397.964716 308.26613 
L 409.80108 321.200558 
L 421.637443 321.275843 
L 433.473807 316.66475 
L 445.31017 316.380974 
L 457.146534 304.911917 
L 468.982898 302.706992 
L 480.819261 278.442875 
L 492.655625 300.491735 
" style="fill:none;stroke:#d0e1f2;stroke-linecap:square;stroke-width:1.5;"/>
   </g>
   <g id="line2d_36">
    <path clip-path="url(#pc54d373ccc)" d="M 102.055625 369.74125 
L 113.891989 198.50725 
L 125.728352 246.07225 
L 137.564716 237.263917 
L 149.40108 282.53875 
L 161.237443 293.63725 
L 173.073807 301.740917 
L 184.91017 352.82925 
L 196.746534 324.5545 
L 208.582898 324.407694 
L 220.419261 326.82705 
L 232.255625 307.858705 
L 244.091989 294.16575 
L 255.928352 285.994327 
L 267.764716 289.56025 
L 279.60108 299.55645 
L 291.437443 311.474125 
L 303.273807 328.207368 
L 315.11017 334.977694 
L 326.946534 331.68925 
L 338.782898 331.68925 
L 350.619261 332.494583 
L 362.455625 330.920523 
L 374.291989 324.15238 
L 386.128352 319.974167 
L 397.964716 338.96141 
L 409.80108 320.875327 
L 421.637443 326.051917 
L 433.473807 320.74175 
L 445.31017 314.704353 
L 457.146534 310.12645 
L 468.982898 290.022992 
L 480.819261 285.379437 
L 492.655625 308.883674 
" style="fill:none;stroke:#d0e1f2;stroke-linecap:square;stroke-width:1.5;"/>
   </g>
   <g id="line2d_37">
    <path clip-path="url(#pc54d373ccc)" d="M 102.055625 433.16125 
L 113.891989 376.08325 
L 125.728352 361.28525 
L 137.564716 347.896583 
L 149.40108 341.20225 
L 161.237443 335.91725 
L 173.073807 321.11925 
L 184.91017 301.79125 
L 196.746534 341.995 
L 208.582898 334.507917 
L 220.419261 332.74625 
L 232.255625 326.692523 
L 244.091989 326.756583 
L 255.928352 313.476327 
L 267.764716 327.15925 
L 279.60108 322.81045 
L 291.437443 318.741 
L 303.273807 312.538897 
L 315.11017 317.126139 
L 326.946534 314.665987 
L 338.782898 319.32235 
L 350.619261 317.998583 
L 362.455625 326.40425 
L 374.291989 323.417076 
L 386.128352 316.803167 
L 397.964716 325.09357 
L 409.80108 305.020327 
L 421.637443 303.58088 
L 433.473807 301.33825 
L 445.31017 282.338284 
L 457.146534 286.590583 
L 468.982898 277.202605 
L 480.819261 264.56975 
L 492.655625 284.476583 
" style="fill:none;stroke:#d0e1f2;stroke-linecap:square;stroke-width:1.5;"/>
   </g>
   <g id="line2d_38">
    <path clip-path="url(#pc54d373ccc)" d="M 102.055625 382.42525 
L 113.891989 382.42525 
L 125.728352 344.37325 
L 137.564716 336.621917 
L 149.40108 361.81375 
L 161.237443 328.72965 
L 173.073807 326.756583 
L 184.91017 335.31325 
L 196.746534 343.052 
L 208.582898 330.045028 
L 220.419261 344.79605 
L 232.255625 339.953068 
L 244.091989 335.38875 
L 255.928352 318.517404 
L 267.764716 319.91125 
L 279.60108 302.93885 
L 291.437443 298.39375 
L 303.273807 289.533603 
L 315.11017 284.828917 
L 326.946534 284.624934 
L 338.782898 284.12425 
L 350.619261 285.48325 
L 362.455625 300.075341 
L 374.291989 303.839598 
L 386.128352 324.730667 
L 397.964716 335.57901 
L 409.80108 320.794019 
L 421.637443 320.336287 
L 433.473807 318.55225 
L 445.31017 325.857526 
L 457.146534 315.975183 
L 468.982898 313.072411 
L 480.819261 303.282375 
L 492.655625 309.844583 
" style="fill:none;stroke:#d0e1f2;stroke-linecap:square;stroke-width:1.5;"/>
   </g>
   <g id="line2d_39">
    <path clip-path="url(#pc54d373ccc)" d="M 102.055625 255.58525 
L 113.891989 310.54925 
L 125.728352 344.37325 
L 137.564716 351.419917 
L 149.40108 359.69975 
L 161.237443 354.94325 
L 173.073807 340.14525 
L 184.91017 321.42125 
L 196.746534 303.67875 
L 208.582898 290.583694 
L 220.419261 289.40925 
L 232.255625 283.259432 
L 244.091989 292.58025 
L 255.928352 310.061404 
L 267.764716 322.17625 
L 279.60108 336.621917 
L 291.437443 323.365375 
L 303.273807 313.160662 
L 315.11017 314.542361 
L 326.946534 314.332197 
L 338.782898 313.72025 
L 350.619261 328.36725 
L 362.455625 331.112705 
L 374.291989 327.369337 
L 386.128352 323.409417 
L 397.964716 328.81421 
L 409.80108 310.061404 
L 421.637443 317.51762 
L 433.473807 328.74475 
L 445.31017 299.97925 
L 457.146534 304.770983 
L 468.982898 290.56854 
L 480.819261 261.795125 
L 492.655625 296.007492 
" style="fill:none;stroke:#d0e1f2;stroke-linecap:square;stroke-width:1.5;"/>
   </g>
   <g id="line2d_40">
    <path clip-path="url(#pc54d373ccc)" d="M 102.055625 433.16125 
L 113.891989 331.68925 
L 125.728352 306.32125 
L 137.564716 357.05725 
L 149.40108 324.81875 
L 161.237443 334.22605 
L 173.073807 302.445583 
L 184.91017 306.62325 
L 196.746534 316.627 
L 208.582898 307.260806 
L 220.419261 314.35445 
L 232.255625 322.080159 
L 244.091989 339.08825 
L 255.928352 323.558481 
L 267.764716 318.70325 
L 279.60108 311.39485 
L 291.437443 309.49225 
L 303.273807 309.803132 
L 315.11017 304.324694 
L 326.946534 315.889882 
L 338.782898 320.90785 
L 350.619261 322.93125 
L 362.455625 318.332614 
L 374.291989 326.082554 
L 386.128352 332.74625 
L 397.964716 331.60469 
L 409.80108 314.452019 
L 421.637443 322.058806 
L 433.473807 304.50925 
L 445.31017 314.923043 
L 457.146534 310.33785 
L 468.982898 306.389444 
L 480.819261 286.700687 
L 492.655625 299.915189 
" style="fill:none;stroke:#d0e1f2;stroke-linecap:square;stroke-width:1.5;"/>
   </g>
   <g id="line2d_41">
    <path clip-path="url(#pc54d373ccc)" d="M 103.129185 -1 
L 113.891989 97.03525 
L 125.728352 168.91125 
L 137.564716 179.48125 
L 149.40108 225.46075 
L 161.237443 250.08885 
L 173.073807 266.15525 
L 184.91017 283.97325 
L 196.746534 301.3005 
L 208.582898 295.75125 
L 220.419261 326.40425 
L 232.255625 321.503614 
L 244.091989 313.72025 
L 255.928352 330.876173 
L 267.764716 329.27325 
L 279.60108 341.695517 
L 291.437443 329.971625 
L 303.273807 323.606309 
L 315.11017 322.646028 
L 326.946534 323.121987 
L 338.782898 321.54205 
L 350.619261 318.501917 
L 362.455625 319.677886 
L 374.291989 306.872728 
L 386.128352 305.79275 
L 397.964716 302.09325 
L 409.80108 309.410942 
L 421.637443 311.332213 
L 433.473807 313.56925 
L 445.31017 314.850147 
L 457.146534 310.901583 
L 468.982898 306.184863 
L 480.819261 288.220125 
L 492.655625 315.674098 
" style="fill:none;stroke:#d0e1f2;stroke-linecap:square;stroke-width:1.5;"/>
   </g>
   <g id="line2d_42">
    <path clip-path="url(#pc54d373ccc)" d="M 102.055625 407.79325 
L 113.891989 371.85525 
L 125.728352 378.19725 
L 137.564716 390.176583 
L 149.40108 345.95875 
L 161.237443 321.96485 
L 173.073807 321.11925 
L 184.91017 319.60925 
L 196.746534 298.92225 
L 208.582898 302.797917 
L 220.419261 288.98645 
L 232.255625 319.389614 
L 244.091989 312.310917 
L 255.928352 308.110019 
L 267.764716 316.89125 
L 279.60108 323.23325 
L 291.437443 326.007875 
L 303.273807 326.466426 
L 315.11017 323.115806 
L 326.946534 317.225039 
L 338.782898 308.01245 
L 350.619261 315.38125 
L 362.455625 324.578523 
L 374.291989 320.20012 
L 386.128352 322.352417 
L 397.964716 334.73341 
L 409.80108 329.087404 
L 421.637443 316.734657 
L 433.473807 312.36125 
L 445.31017 298.011043 
L 457.146534 292.36885 
L 468.982898 275.838734 
L 480.819261 262.389687 
L 492.655625 284.476583 
" style="fill:none;stroke:#d0e1f2;stroke-linecap:square;stroke-width:1.5;"/>
   </g>
   <g id="line2d_43">
    <path clip-path="url(#pc54d373ccc)" d="M 102.055625 433.16125 
L 113.891989 382.42525 
L 125.728352 384.53925 
L 137.564716 356.352583 
L 149.40108 326.40425 
L 161.237443 335.49445 
L 173.073807 288.704583 
L 184.91017 250.14925 
L 196.746534 258.492 
L 208.582898 263.336583 
L 220.419261 265.52105 
L 232.255625 285.949977 
L 244.091989 302.269417 
L 255.928352 308.272635 
L 267.764716 301.79125 
L 279.60108 323.092317 
L 291.437443 315.30575 
L 303.273807 323.481956 
L 315.11017 324.760028 
L 326.946534 325.792303 
L 338.782898 336.23435 
L 350.619261 336.923917 
L 362.455625 329.671341 
L 374.291989 336.192989 
L 386.128352 313.632167 
L 397.964716 318.58245 
L 409.80108 314.045481 
L 421.637443 313.367917 
L 433.473807 302.84825 
L 445.31017 303.405388 
L 457.146534 303.78445 
L 468.982898 282.658089 
L 480.819261 270.119 
L 492.655625 299.594886 
" style="fill:none;stroke:#d0e1f2;stroke-linecap:square;stroke-width:1.5;"/>
   </g>
   <g id="line2d_44">
    <path clip-path="url(#pc54d373ccc)" d="M 102.055625 52.64125 
L 113.891989 124.51725 
L 125.728352 128.74525 
L 137.564716 125.221917 
L 149.40108 119.76075 
L 161.237443 126.63125 
L 173.073807 112.89025 
L 184.91017 116.96725 
L 196.746534 112.626 
L 208.582898 128.275472 
L 220.419261 132.55045 
L 232.255625 127.399977 
L 244.091989 127.864417 
L 255.928352 125.492942 
L 267.764716 113.94725 
L 279.60108 107.323383 
L 291.437443 105.094875 
L 303.273807 126.133838 
L 315.11017 118.762472 
L 326.946534 116.728829 
L 338.782898 119.44365 
L 350.619261 123.30925 
L 362.455625 122.211068 
L 374.291989 114.958293 
L 386.128352 114.299583 
L 397.964716 120.71205 
L 409.80108 117.11825 
L 421.637443 120.054361 
L 433.473807 112.89025 
L 445.31017 132.900353 
L 457.146534 125.36285 
L 468.982898 130.654669 
L 480.819261 135.021187 
L 492.655625 143.735432 
" style="fill:none;stroke:#1764ab;stroke-linecap:square;stroke-width:1.5;"/>
   </g>
   <g id="line2d_45">
    <path clip-path="url(#pc54d373ccc)" d="M 102.055625 103.37725 
L 113.891989 88.57925 
L 125.728352 120.28925 
L 137.564716 112.537917 
L 149.40108 128.74525 
L 161.237443 147.34845 
L 173.073807 160.807583 
L 184.91017 141.12725 
L 196.746534 134.823 
L 208.582898 123.342806 
L 220.419261 120.92345 
L 232.255625 121.250159 
L 244.091989 128.040583 
L 255.928352 123.704173 
L 267.764716 116.21225 
L 279.60108 113.383517 
L 291.437443 113.683 
L 303.273807 111.335838 
L 315.11017 116.765917 
L 326.946534 110.275566 
L 338.782898 118.91515 
L 350.619261 106.900583 
L 362.455625 111.448886 
L 374.291989 114.590641 
L 386.128352 121.522417 
L 397.964716 112.50973 
L 409.80108 122.891096 
L 421.637443 122.873028 
L 433.473807 128.06575 
L 445.31017 128.891043 
L 457.146534 124.164917 
L 468.982898 121.789508 
L 480.819261 117.184312 
L 492.655625 127.976523 
" style="fill:none;stroke:#1764ab;stroke-linecap:square;stroke-width:1.5;"/>
   </g>
   <g id="line2d_46">
    <path clip-path="url(#pc54d373ccc)" d="M 102.055625 293.63725 
L 113.891989 151.99925 
L 125.728352 163.62625 
L 137.564716 149.180583 
L 149.40108 132.97325 
L 161.237443 116.90685 
L 173.073807 107.957583 
L 184.91017 102.77325 
L 196.746534 100.73475 
L 208.582898 120.524139 
L 220.419261 115.21565 
L 232.255625 123.748523 
L 244.091989 119.584583 
L 255.928352 131.347096 
L 267.764716 108.96425 
L 279.60108 115.21565 
L 291.437443 113.550875 
L 303.273807 121.781485 
L 315.11017 122.285806 
L 326.946534 121.958197 
L 338.782898 123.67165 
L 350.619261 124.718583 
L 362.455625 130.667068 
L 374.291989 120.013511 
L 386.128352 115.53275 
L 397.964716 120.96573 
L 409.80108 120.370558 
L 421.637443 121.620287 
L 433.473807 112.73925 
L 445.31017 104.179112 
L 457.146534 105.350317 
L 468.982898 108.150798 
L 480.819261 109.851375 
L 492.655625 127.65622 
" style="fill:none;stroke:#1764ab;stroke-linecap:square;stroke-width:1.5;"/>
   </g>
   <g id="line2d_47">
    <path clip-path="url(#pc54d373ccc)" d="M 102.055625 52.64125 
L 113.891989 97.03525 
L 125.728352 127.68825 
L 137.564716 142.838583 
L 149.40108 139.84375 
L 161.237443 130.43645 
L 173.073807 124.164917 
L 184.91017 119.38325 
L 196.746534 116.854 
L 208.582898 109.014583 
L 220.419261 125.99705 
L 232.255625 136.816886 
L 244.091989 138.434417 
L 255.928352 132.322788 
L 267.764716 123.15825 
L 279.60108 126.349383 
L 291.437443 119.628625 
L 303.273807 116.309956 
L 315.11017 122.168361 
L 326.946534 121.290618 
L 338.782898 114.26435 
L 350.619261 102.571917 
L 362.455625 111.352795 
L 374.291989 115.417859 
L 386.128352 119.056083 
L 397.964716 125.87021 
L 409.80108 117.443481 
L 421.637443 123.577694 
L 433.473807 111.45575 
L 445.31017 110.812698 
L 457.146534 115.990783 
L 468.982898 122.471444 
L 480.819261 117.844937 
L 492.655625 129.513977 
" style="fill:none;stroke:#1764ab;stroke-linecap:square;stroke-width:1.5;"/>
   </g>
   <g id="line2d_48">
    <path clip-path="url(#pc54d373ccc)" d="M 102.055625 65.32525 
L 113.891989 128.74525 
L 125.728352 122.40325 
L 137.564716 118.17525 
L 149.40108 145.12875 
L 161.237443 116.06125 
L 173.073807 132.268583 
L 184.91017 144.14725 
L 196.746534 131.38775 
L 208.582898 132.033694 
L 220.419261 137.62405 
L 232.255625 120.865795 
L 244.091989 116.06125 
L 255.928352 118.988327 
L 267.764716 130.85925 
L 279.60108 126.067517 
L 291.437443 123.592375 
L 303.273807 135.08725 
L 315.11017 123.46025 
L 326.946534 117.618934 
L 338.782898 117.32965 
L 350.619261 127.637917 
L 362.455625 119.616614 
L 374.291989 119.921598 
L 386.128352 128.040583 
L 397.964716 116.90685 
L 409.80108 114.191173 
L 421.637443 109.640954 
L 433.473807 109.34175 
L 445.31017 111.83325 
L 457.146534 107.464317 
L 468.982898 111.696863 
L 480.819261 116.655812 
L 492.655625 123.556341 
" style="fill:none;stroke:#1764ab;stroke-linecap:square;stroke-width:1.5;"/>
   </g>
   <g id="line2d_49">
    <path clip-path="url(#pc54d373ccc)" d="M 102.055625 103.37725 
L 113.891989 105.49125 
L 125.728352 87.52225 
L 137.564716 78.713917 
L 149.40108 109.71925 
L 161.237443 91.53885 
L 173.073807 125.57425 
L 184.91017 122.10125 
L 196.746534 125.57425 
L 208.582898 124.51725 
L 220.419261 115.21565 
L 232.255625 114.331614 
L 244.091989 126.10275 
L 255.928352 117.199558 
L 267.764716 114.40025 
L 279.60108 120.993917 
L 291.437443 121.214125 
L 303.273807 131.232309 
L 315.11017 126.866139 
L 326.946534 130.080408 
L 338.782898 119.76075 
L 350.619261 114.148583 
L 362.455625 118.751795 
L 374.291989 135.638728 
L 386.128352 132.620917 
L 397.964716 133.39605 
L 409.80108 131.347096 
L 421.637443 129.058435 
L 433.473807 125.49875 
L 445.31017 118.466836 
L 457.146534 114.440517 
L 468.982898 108.218992 
L 480.819261 110.24775 
L 492.655625 114.780038 
" style="fill:none;stroke:#1764ab;stroke-linecap:square;stroke-width:1.5;"/>
   </g>
   <g id="line2d_50">
    <path clip-path="url(#pc54d373ccc)" d="M 102.055625 433.16125 
L 113.891989 111.83325 
L 125.728352 82.23725 
L 137.564716 63.915917 
L 149.40108 80.65175 
L 161.237443 117.75245 
L 173.073807 138.25825 
L 184.91017 136.59725 
L 196.746534 112.36175 
L 208.582898 105.726139 
L 220.419261 120.71205 
L 232.255625 113.562886 
L 244.091989 111.30475 
L 255.928352 121.915404 
L 267.764716 111.83325 
L 279.60108 109.71925 
L 291.437443 111.569 
L 303.273807 113.822897 
L 315.11017 125.456806 
L 326.946534 124.405987 
L 338.782898 124.72865 
L 350.619261 122.10125 
L 362.455625 124.325068 
L 374.291989 122.127511 
L 386.128352 115.092333 
L 397.964716 124.09445 
L 409.80108 120.777096 
L 421.637443 121.072213 
L 433.473807 122.02575 
L 445.31017 118.758422 
L 457.146534 114.79285 
L 468.982898 124.449056 
L 480.819261 118.968 
L 492.655625 131.756098 
" style="fill:none;stroke:#1764ab;stroke-linecap:square;stroke-width:1.5;"/>
   </g>
   <g id="line2d_51">
    <path clip-path="url(#pc54d373ccc)" d="M 102.055625 90.69325 
L 113.891989 135.08725 
L 125.728352 137.20125 
L 137.564716 144.247917 
L 149.40108 124.51725 
L 161.237443 104.22285 
L 173.073807 105.138917 
L 184.91017 104.28325 
L 196.746534 99.942 
L 208.582898 110.189028 
L 220.419261 118.80945 
L 232.255625 104.338159 
L 244.091989 123.46025 
L 255.928352 117.524788 
L 267.764716 111.22925 
L 279.60108 111.128583 
L 291.437443 127.68825 
L 303.273807 125.512074 
L 315.11017 125.926583 
L 326.946534 123.849671 
L 338.782898 119.23225 
L 350.619261 115.557917 
L 362.455625 127.399977 
L 374.291989 124.425337 
L 386.128352 124.7815 
L 397.964716 129.50629 
L 409.80108 118.256558 
L 421.637443 126.161472 
L 433.473807 134.48325 
L 445.31017 124.152767 
L 457.146534 116.836383 
L 468.982898 106.377766 
L 480.819261 98.686812 
L 492.655625 116.125311 
" style="fill:none;stroke:#1764ab;stroke-linecap:square;stroke-width:1.5;"/>
   </g>
   <g id="line2d_52">
    <path clip-path="url(#pc54d373ccc)" d="M 102.055625 204.84925 
L 113.891989 162.56925 
L 125.728352 88.57925 
L 137.564716 108.309917 
L 149.40108 129.27375 
L 161.237443 117.75245 
L 173.073807 122.40325 
L 184.91017 113.04125 
L 196.746534 101.5275 
L 208.582898 108.309917 
L 220.419261 103.80005 
L 232.255625 115.869068 
L 244.091989 116.413583 
L 255.928352 128.094788 
L 267.764716 118.17525 
L 279.60108 111.974183 
L 291.437443 110.115625 
L 303.273807 110.092309 
L 315.11017 117.000806 
L 326.946534 115.504934 
L 338.782898 118.38665 
L 350.619261 113.242583 
L 362.455625 109.238795 
L 374.291989 113.763424 
L 386.128352 114.47575 
L 397.964716 112.42517 
L 409.80108 121.996712 
L 421.637443 115.199991 
L 433.473807 117.57125 
L 445.31017 116.207043 
L 457.146534 111.62185 
L 468.982898 124.585444 
L 480.819261 113.749062 
L 492.655625 121.31422 
" style="fill:none;stroke:#1764ab;stroke-linecap:square;stroke-width:1.5;"/>
   </g>
   <g id="line2d_53">
    <path clip-path="url(#pc54d373ccc)" d="M 102.055625 90.69325 
L 113.891989 128.74525 
L 125.728352 210.13425 
L 137.564716 143.54325 
L 149.40108 110.77625 
L 161.237443 119.44365 
L 173.073807 129.449917 
L 184.91017 120.59125 
L 196.746534 113.683 
L 208.582898 113.242583 
L 220.419261 123.24885 
L 232.255625 113.178523 
L 244.091989 113.066417 
L 255.928352 109.394019 
L 267.764716 106.85025 
L 279.60108 109.014583 
L 291.437443 110.908375 
L 303.273807 100.144074 
L 315.11017 112.303028 
L 326.946534 108.940408 
L 338.782898 110.88195 
L 350.619261 120.89325 
L 362.455625 111.064523 
L 374.291989 127.090815 
L 386.128352 134.03025 
L 397.964716 131.45117 
L 409.80108 123.053712 
L 421.637443 120.680731 
L 433.473807 117.11825 
L 445.31017 112.05194 
L 457.146534 111.903717 
L 468.982898 113.674476 
L 480.819261 108.596187 
L 492.655625 112.986341 
" style="fill:none;stroke:#1764ab;stroke-linecap:square;stroke-width:1.5;"/>
   </g>
   <g id="line2d_54">
    <path clip-path="url(#pc54d373ccc)" d="M 102.055625 217.53325 
L 113.891989 257.69925 
L 125.728352 200.62125 
L 137.564716 221.76125 
L 149.40108 201.14975 
L 161.237443 192.16525 
L 173.073807 179.128917 
L 184.91017 229.91525 
L 196.746534 246.60075 
L 208.582898 244.545472 
L 220.419261 222.39545 
L 232.255625 210.230341 
L 244.091989 189.52275 
L 255.928352 186.798942 
L 267.764716 188.23925 
L 279.60108 173.843917 
L 291.437443 150.94225 
L 303.273807 163.315368 
L 315.11017 153.760917 
L 326.946534 177.923566 
L 338.782898 183.28645 
L 350.619261 181.997917 
L 362.455625 186.111523 
L 374.291989 180.67612 
L 386.128352 177.36725 
L 397.964716 199.94477 
L 409.80108 185.985865 
L 421.637443 181.830139 
L 433.473807 185.21925 
L 445.31017 199.017526 
L 457.146534 199.846117 
L 468.982898 197.34796 
L 480.819261 203.660125 
L 492.655625 223.234644 
" style="fill:none;stroke:#94c4df;stroke-linecap:square;stroke-width:1.5;"/>
   </g>
   <g id="line2d_55">
    <path clip-path="url(#pc54d373ccc)" d="M 102.055625 14.58925 
L 113.891989 128.74525 
L 125.728352 187.93725 
L 137.564716 186.527917 
L 149.40108 196.92175 
L 161.237443 236.98205 
L 173.073807 242.548917 
L 184.91017 217.23125 
L 196.746534 210.66275 
L 208.582898 195.218806 
L 220.419261 202.52385 
L 232.255625 156.611614 
L 244.091989 154.289417 
L 255.928352 170.537404 
L 267.764716 193.52425 
L 279.60108 182.299917 
L 291.437443 199.03575 
L 303.273807 193.284426 
L 315.11017 195.101361 
L 326.946534 213.416513 
L 338.782898 231.16855 
L 350.619261 235.04925 
L 362.455625 223.394795 
L 374.291989 211.926554 
L 386.128352 183.70925 
L 397.964716 184.55485 
L 409.80108 196.311942 
L 421.637443 194.435843 
L 433.473807 205.98175 
L 445.31017 231.602284 
L 457.146534 233.740583 
L 468.982898 253.130282 
L 480.819261 249.903875 
L 492.655625 262.055371 
" style="fill:none;stroke:#94c4df;stroke-linecap:square;stroke-width:1.5;"/>
   </g>
   <g id="line2d_56">
    <path clip-path="url(#pc54d373ccc)" d="M 102.055625 280.95325 
L 113.891989 204.84925 
L 125.728352 197.45025 
L 137.564716 168.91125 
L 149.40108 206.43475 
L 161.237443 167.64285 
L 173.073807 192.869917 
L 184.91017 189.14525 
L 196.746534 159.134 
L 208.582898 160.925028 
L 220.419261 173.35065 
L 232.255625 194.663614 
L 244.091989 179.305083 
L 255.928352 181.432635 
L 267.764716 196.24225 
L 279.60108 224.579917 
L 291.437443 232.067 
L 303.273807 221.139485 
L 315.11017 222.935694 
L 326.946534 211.19125 
L 338.782898 213.09385 
L 350.619261 221.559917 
L 362.455625 232.33125 
L 374.291989 231.871685 
L 386.128352 211.19125 
L 397.964716 201.38229 
L 409.80108 199.970788 
L 421.637443 189.581472 
L 433.473807 193.82625 
L 445.31017 209.441733 
L 457.146534 207.456517 
L 468.982898 198.916411 
L 480.819261 204.254687 
L 492.655625 243.093432 
" style="fill:none;stroke:#94c4df;stroke-linecap:square;stroke-width:1.5;"/>
   </g>
   <g id="line2d_57">
    <path clip-path="url(#pc54d373ccc)" d="M 102.055625 90.69325 
L 113.891989 179.48125 
L 125.728352 178.42425 
L 137.564716 156.22725 
L 149.40108 128.21675 
L 161.237443 167.22005 
L 173.073807 149.88525 
L 184.91017 151.09325 
L 196.746534 171.2895 
L 208.582898 184.179028 
L 220.419261 199.35285 
L 232.255625 191.396523 
L 244.091989 185.999417 
L 255.928352 181.920481 
L 267.764716 187.03125 
L 279.60108 187.232583 
L 291.437443 184.502 
L 303.273807 190.673015 
L 315.11017 207.902806 
L 326.946534 220.203566 
L 338.782898 204.32075 
L 350.619261 207.969917 
L 362.455625 207.731977 
L 374.291989 185.915163 
L 386.128352 196.217083 
L 397.964716 207.72429 
L 409.80108 198.182019 
L 421.637443 192.556731 
L 433.473807 184.99275 
L 445.31017 176.346698 
L 457.146534 186.386983 
L 468.982898 203.076218 
L 480.819261 196.062937 
L 492.655625 234.829614 
" style="fill:none;stroke:#94c4df;stroke-linecap:square;stroke-width:1.5;"/>
   </g>
   <g id="line2d_58">
    <path clip-path="url(#pc54d373ccc)" d="M 102.055625 141.42925 
L 113.891989 122.40325 
L 125.728352 118.17525 
L 137.564716 118.17525 
L 149.40108 143.01475 
L 161.237443 188.78285 
L 173.073807 251.004917 
L 184.91017 255.58525 
L 196.746534 234.97375 
L 208.582898 240.082583 
L 220.419261 238.25045 
L 232.255625 220.992523 
L 244.091989 197.45025 
L 255.928352 185.172788 
L 267.764716 172.08225 
L 279.60108 157.91845 
L 291.437443 169.043375 
L 303.273807 187.93725 
L 315.11017 192.752472 
L 326.946534 206.629461 
L 338.782898 224.61515 
L 350.619261 231.223917 
L 362.455625 228.679795 
L 374.291989 213.30525 
L 386.128352 212.864833 
L 397.964716 209.50005 
L 409.80108 219.159404 
L 421.637443 218.237917 
L 433.473807 220.55325 
L 445.31017 229.634078 
L 457.146534 211.895917 
L 468.982898 219.715444 
L 480.819261 209.143312 
L 492.655625 246.10428 
" style="fill:none;stroke:#94c4df;stroke-linecap:square;stroke-width:1.5;"/>
   </g>
   <g id="line2d_59">
    <path clip-path="url(#pc54d373ccc)" d="M 102.055625 103.37725 
L 113.891989 308.43525 
L 125.728352 144.60025 
L 137.564716 205.553917 
L 149.40108 244.48675 
L 161.237443 220.07005 
L 173.073807 212.600583 
L 184.91017 228.10325 
L 196.746534 245.01525 
L 208.582898 228.807917 
L 220.419261 191.10825 
L 232.255625 188.513795 
L 244.091989 212.77675 
L 255.928352 220.297712 
L 267.764716 195.03425 
L 279.60108 181.454317 
L 291.437443 161.115875 
L 303.273807 169.657368 
L 315.11017 165.975139 
L 326.946534 184.599355 
L 338.782898 185.82325 
L 350.619261 193.775917 
L 362.455625 187.456795 
L 374.291989 199.610207 
L 386.128352 218.766417 
L 397.964716 223.19877 
L 409.80108 220.216404 
L 421.637443 216.90688 
L 433.473807 213.15425 
L 445.31017 213.232353 
L 457.146534 201.46685 
L 468.982898 215.555637 
L 480.819261 202.603125 
L 492.655625 238.481068 
" style="fill:none;stroke:#94c4df;stroke-linecap:square;stroke-width:1.5;"/>
   </g>
   <g id="line2d_60">
    <path clip-path="url(#pc54d373ccc)" d="M 102.055625 268.26925 
L 113.891989 242.90125 
L 125.728352 240.78725 
L 137.564716 236.55925 
L 149.40108 226.51775 
L 161.237443 192.58805 
L 173.073807 148.82825 
L 184.91017 150.79125 
L 196.746534 153.05625 
L 208.582898 123.342806 
L 220.419261 137.83545 
L 232.255625 141.42925 
L 244.091989 170.320583 
L 255.928352 169.399096 
L 267.764716 165.89125 
L 279.60108 201.748717 
L 291.437443 214.6265 
L 303.273807 218.403721 
L 315.11017 212.130806 
L 326.946534 211.747566 
L 338.782898 208.02025 
L 350.619261 207.86925 
L 362.455625 194.471432 
L 374.291989 200.345511 
L 386.128352 202.294833 
L 397.964716 193.77189 
L 409.80108 198.913788 
L 421.637443 201.639102 
L 433.473807 200.09275 
L 445.31017 213.451043 
L 457.146534 199.846117 
L 468.982898 209.486411 
L 480.819261 221.629125 
L 492.655625 258.019553 
" style="fill:none;stroke:#94c4df;stroke-linecap:square;stroke-width:1.5;"/>
   </g>
   <g id="line2d_61">
    <path clip-path="url(#pc54d373ccc)" d="M 102.055625 293.63725 
L 113.891989 200.62125 
L 125.728352 124.51725 
L 137.564716 121.698583 
L 149.40108 93.86425 
L 161.237443 143.96605 
L 173.073807 167.85425 
L 184.91017 168.30725 
L 196.746534 166.0045 
L 208.582898 158.106361 
L 220.419261 165.10605 
L 232.255625 170.064341 
L 244.091989 183.18075 
L 255.928352 161.756173 
L 267.764716 178.72625 
L 279.60108 191.460583 
L 291.437443 213.5695 
L 303.273807 216.662779 
L 315.11017 211.073806 
L 326.946534 221.538724 
L 338.782898 222.28975 
L 350.619261 221.358583 
L 362.455625 207.059341 
L 374.291989 197.771946 
L 386.128352 185.29475 
L 397.964716 186.83797 
L 409.80108 183.140096 
L 421.637443 192.400139 
L 433.473807 199.71525 
L 445.31017 207.327733 
L 457.146534 230.42865 
L 468.982898 226.739379 
L 480.819261 212.380375 
L 492.655625 251.35725 
" style="fill:none;stroke:#94c4df;stroke-linecap:square;stroke-width:1.5;"/>
   </g>
   <g id="line2d_62">
    <path clip-path="url(#pc54d373ccc)" d="M 102.055625 1.90525 
L 113.891989 31.50125 
L 125.728352 109.71925 
L 137.564716 155.522583 
L 149.40108 204.32075 
L 161.237443 232.75405 
L 173.073807 215.41925 
L 184.91017 188.23925 
L 196.746534 197.186 
L 208.582898 197.567694 
L 220.419261 181.59525 
L 232.255625 182.171795 
L 244.091989 187.40875 
L 255.928352 168.423404 
L 267.764716 168.45825 
L 279.60108 173.702983 
L 291.437443 169.704 
L 303.273807 191.667838 
L 315.11017 211.543583 
L 326.946534 210.523671 
L 338.782898 209.28865 
L 350.619261 208.17125 
L 362.455625 229.928977 
L 374.291989 222.864207 
L 386.128352 205.553917 
L 397.964716 203.15805 
L 409.80108 222.086481 
L 421.637443 210.486583 
L 433.473807 207.26525 
L 445.31017 198.361457 
L 457.146534 195.618117 
L 468.982898 194.347444 
L 480.819261 182.454062 
L 492.655625 223.298705 
" style="fill:none;stroke:#94c4df;stroke-linecap:square;stroke-width:1.5;"/>
   </g>
   <g id="line2d_63">
    <path clip-path="url(#pc54d373ccc)" d="M 102.055625 344.37325 
L 113.891989 367.62725 
L 125.728352 315.83425 
L 137.564716 318.300583 
L 149.40108 253.47125 
L 161.237443 224.72085 
L 173.073807 219.999583 
L 184.91017 185.52125 
L 196.746534 148.82825 
L 208.582898 144.482806 
L 220.419261 130.85925 
L 232.255625 148.924341 
L 244.091989 141.42925 
L 255.928352 164.195404 
L 267.764716 140.07025 
L 279.60108 151.717383 
L 291.437443 189.390625 
L 303.273807 188.559015 
L 315.11017 203.205028 
L 326.946534 181.372724 
L 338.782898 192.48235 
L 350.619261 177.769917 
L 362.455625 186.976341 
L 374.291989 203.194815 
L 386.128352 209.429583 
L 397.964716 212.12141 
L 409.80108 210.459481 
L 421.637443 186.293028 
L 433.473807 180.99125 
L 445.31017 175.836422 
L 457.146534 165.810717 
L 468.982898 163.660347 
L 480.819261 165.21175 
L 492.655625 200.685311 
" style="fill:none;stroke:#94c4df;stroke-linecap:square;stroke-width:1.5;"/>
   </g>
   <g id="line2d_64">
    <path clip-path="url(#pc54d373ccc)" d="M 102.055625 433.16125 
L 113.891989 433.16125 
L 125.728352 433.16125 
L 137.564716 433.16125 
L 149.40108 433.16125 
L 161.237443 433.16125 
L 173.073807 433.16125 
L 184.91017 433.16125 
L 196.746534 433.16125 
L 208.582898 433.16125 
L 220.419261 433.16125 
L 232.255625 433.16125 
L 244.091989 433.16125 
L 255.928352 433.16125 
L 267.764716 433.16125 
L 279.60108 433.16125 
L 291.437443 433.16125 
L 303.273807 433.16125 
L 315.11017 433.16125 
L 326.946534 433.16125 
L 338.782898 433.16125 
L 350.619261 433.16125 
L 362.455625 433.16125 
L 374.291989 433.16125 
L 386.128352 433.16125 
L 397.964716 433.16125 
L 409.80108 433.16125 
L 421.637443 433.16125 
L 433.473807 433.16125 
L 445.31017 433.16125 
L 457.146534 433.16125 
L 468.982898 433.16125 
L 480.819261 433.16125 
L 492.655625 433.16125 
" style="fill:none;stroke:#000000;stroke-linecap:square;stroke-width:1.5;"/>
   </g>
   <g id="line2d_65">
    <path clip-path="url(#pc54d373ccc)" d="M 102.055625 433.16125 
L 113.891989 433.16125 
L 125.728352 433.16125 
L 137.564716 433.16125 
L 149.40108 433.16125 
L 161.237443 433.16125 
L 173.073807 433.16125 
L 184.91017 433.16125 
L 196.746534 433.16125 
L 208.582898 433.16125 
L 220.419261 433.16125 
L 232.255625 433.16125 
L 244.091989 433.16125 
L 255.928352 433.16125 
L 267.764716 433.16125 
L 279.60108 433.16125 
L 291.437443 433.16125 
L 303.273807 433.16125 
L 315.11017 433.16125 
L 326.946534 433.16125 
L 338.782898 433.16125 
L 350.619261 433.16125 
L 362.455625 433.16125 
L 374.291989 433.16125 
L 386.128352 433.16125 
L 397.964716 433.16125 
L 409.80108 433.16125 
L 421.637443 433.16125 
L 433.473807 433.16125 
L 445.31017 433.16125 
L 457.146534 433.16125 
L 468.982898 433.16125 
L 480.819261 433.16125 
L 492.655625 433.16125 
" style="fill:none;stroke:#000000;stroke-linecap:square;stroke-width:1.5;"/>
   </g>
   <g id="line2d_66">
    <path clip-path="url(#pc54d373ccc)" d="M 102.055625 433.16125 
L 113.891989 433.16125 
L 125.728352 433.16125 
L 137.564716 433.16125 
L 149.40108 433.16125 
L 161.237443 433.16125 
L 173.073807 433.16125 
L 184.91017 433.16125 
L 196.746534 433.16125 
L 208.582898 433.16125 
L 220.419261 433.16125 
L 232.255625 433.16125 
L 244.091989 433.16125 
L 255.928352 433.16125 
L 267.764716 433.16125 
L 279.60108 433.16125 
L 291.437443 433.16125 
L 303.273807 433.16125 
L 315.11017 433.16125 
L 326.946534 433.16125 
L 338.782898 433.16125 
L 350.619261 433.16125 
L 362.455625 433.16125 
L 374.291989 433.16125 
L 386.128352 433.16125 
L 397.964716 433.16125 
L 409.80108 433.16125 
L 421.637443 433.16125 
L 433.473807 433.16125 
L 445.31017 433.16125 
L 457.146534 433.16125 
L 468.982898 433.16125 
L 480.819261 433.16125 
L 492.655625 433.16125 
" style="fill:none;stroke:#000000;stroke-linecap:square;stroke-width:1.5;"/>
   </g>
   <g id="line2d_67">
    <path clip-path="url(#pc54d373ccc)" d="M 102.055625 433.16125 
L 113.891989 433.16125 
L 125.728352 433.16125 
L 137.564716 433.16125 
L 149.40108 433.16125 
L 161.237443 433.16125 
L 173.073807 433.16125 
L 184.91017 433.16125 
L 196.746534 433.16125 
L 208.582898 433.16125 
L 220.419261 433.16125 
L 232.255625 433.16125 
L 244.091989 433.16125 
L 255.928352 433.16125 
L 267.764716 433.16125 
L 279.60108 433.16125 
L 291.437443 433.16125 
L 303.273807 433.16125 
L 315.11017 433.16125 
L 326.946534 433.16125 
L 338.782898 433.16125 
L 350.619261 433.16125 
L 362.455625 433.16125 
L 374.291989 433.16125 
L 386.128352 433.16125 
L 397.964716 433.16125 
L 409.80108 433.16125 
L 421.637443 433.16125 
L 433.473807 433.16125 
L 445.31017 433.16125 
L 457.146534 433.16125 
L 468.982898 433.16125 
L 480.819261 433.16125 
L 492.655625 433.16125 
" style="fill:none;stroke:#000000;stroke-linecap:square;stroke-width:1.5;"/>
   </g>
   <g id="line2d_68">
    <path clip-path="url(#pc54d373ccc)" d="M 102.055625 433.16125 
L 113.891989 433.16125 
L 125.728352 433.16125 
L 137.564716 433.16125 
L 149.40108 433.16125 
L 161.237443 433.16125 
L 173.073807 433.16125 
L 184.91017 433.16125 
L 196.746534 433.16125 
L 208.582898 433.16125 
L 220.419261 433.16125 
L 232.255625 433.16125 
L 244.091989 433.16125 
L 255.928352 433.16125 
L 267.764716 433.16125 
L 279.60108 433.16125 
L 291.437443 433.16125 
L 303.273807 433.16125 
L 315.11017 433.16125 
L 326.946534 433.16125 
L 338.782898 433.16125 
L 350.619261 433.16125 
L 362.455625 433.16125 
L 374.291989 433.16125 
L 386.128352 433.16125 
L 397.964716 433.16125 
L 409.80108 433.16125 
L 421.637443 433.16125 
L 433.473807 433.16125 
L 445.31017 433.16125 
L 457.146534 433.16125 
L 468.982898 433.16125 
L 480.819261 433.16125 
L 492.655625 433.16125 
" style="fill:none;stroke:#000000;stroke-linecap:square;stroke-width:1.5;"/>
   </g>
   <g id="line2d_69">
    <path clip-path="url(#pc54d373ccc)" d="M 102.055625 433.16125 
L 113.891989 433.16125 
L 125.728352 433.16125 
L 137.564716 433.16125 
L 149.40108 433.16125 
L 161.237443 433.16125 
L 173.073807 433.16125 
L 184.91017 433.16125 
L 196.746534 433.16125 
L 208.582898 433.16125 
L 220.419261 433.16125 
L 232.255625 433.16125 
L 244.091989 433.16125 
L 255.928352 433.16125 
L 267.764716 433.16125 
L 279.60108 433.16125 
L 291.437443 433.16125 
L 303.273807 433.16125 
L 315.11017 433.16125 
L 326.946534 433.16125 
L 338.782898 433.16125 
L 350.619261 433.16125 
L 362.455625 433.16125 
L 374.291989 433.16125 
L 386.128352 433.16125 
L 397.964716 433.16125 
L 409.80108 433.16125 
L 421.637443 433.16125 
L 433.473807 433.16125 
L 445.31017 433.16125 
L 457.146534 433.16125 
L 468.982898 433.16125 
L 480.819261 433.16125 
L 492.655625 433.16125 
" style="fill:none;stroke:#000000;stroke-linecap:square;stroke-width:1.5;"/>
   </g>
   <g id="line2d_70">
    <path clip-path="url(#pc54d373ccc)" d="M 102.055625 433.16125 
L 113.891989 433.16125 
L 125.728352 433.16125 
L 137.564716 433.16125 
L 149.40108 433.16125 
L 161.237443 433.16125 
L 173.073807 433.16125 
L 184.91017 433.16125 
L 196.746534 433.16125 
L 208.582898 433.16125 
L 220.419261 433.16125 
L 232.255625 433.16125 
L 244.091989 433.16125 
L 255.928352 433.16125 
L 267.764716 433.16125 
L 279.60108 433.16125 
L 291.437443 433.16125 
L 303.273807 433.16125 
L 315.11017 433.16125 
L 326.946534 433.16125 
L 338.782898 433.16125 
L 350.619261 433.16125 
L 362.455625 433.16125 
L 374.291989 433.16125 
L 386.128352 433.16125 
L 397.964716 433.16125 
L 409.80108 433.16125 
L 421.637443 433.16125 
L 433.473807 433.16125 
L 445.31017 433.16125 
L 457.146534 433.16125 
L 468.982898 433.16125 
L 480.819261 433.16125 
L 492.655625 433.16125 
" style="fill:none;stroke:#000000;stroke-linecap:square;stroke-width:1.5;"/>
   </g>
   <g id="line2d_71">
    <path clip-path="url(#pc54d373ccc)" d="M 102.055625 433.16125 
L 113.891989 433.16125 
L 125.728352 433.16125 
L 137.564716 433.16125 
L 149.40108 433.16125 
L 161.237443 433.16125 
L 173.073807 433.16125 
L 184.91017 433.16125 
L 196.746534 433.16125 
L 208.582898 433.16125 
L 220.419261 433.16125 
L 232.255625 433.16125 
L 244.091989 433.16125 
L 255.928352 433.16125 
L 267.764716 433.16125 
L 279.60108 433.16125 
L 291.437443 433.16125 
L 303.273807 433.16125 
L 315.11017 433.16125 
L 326.946534 433.16125 
L 338.782898 433.16125 
L 350.619261 433.16125 
L 362.455625 433.16125 
L 374.291989 433.16125 
L 386.128352 433.16125 
L 397.964716 433.16125 
L 409.80108 433.16125 
L 421.637443 433.16125 
L 433.473807 433.16125 
L 445.31017 433.16125 
L 457.146534 433.16125 
L 468.982898 433.16125 
L 480.819261 433.16125 
L 492.655625 433.16125 
" style="fill:none;stroke:#000000;stroke-linecap:square;stroke-width:1.5;"/>
   </g>
   <g id="line2d_72">
    <path clip-path="url(#pc54d373ccc)" d="M 102.055625 433.16125 
L 113.891989 433.16125 
L 125.728352 433.16125 
L 137.564716 433.16125 
L 149.40108 433.16125 
L 161.237443 433.16125 
L 173.073807 433.16125 
L 184.91017 433.16125 
L 196.746534 433.16125 
L 208.582898 433.16125 
L 220.419261 433.16125 
L 232.255625 433.16125 
L 244.091989 433.16125 
L 255.928352 433.16125 
L 267.764716 433.16125 
L 279.60108 433.16125 
L 291.437443 433.16125 
L 303.273807 433.16125 
L 315.11017 433.16125 
L 326.946534 433.16125 
L 338.782898 433.16125 
L 350.619261 433.16125 
L 362.455625 433.16125 
L 374.291989 433.16125 
L 386.128352 433.16125 
L 397.964716 433.16125 
L 409.80108 433.16125 
L 421.637443 433.16125 
L 433.473807 433.16125 
L 445.31017 433.16125 
L 457.146534 433.16125 
L 468.982898 433.16125 
L 480.819261 433.16125 
L 492.655625 433.16125 
" style="fill:none;stroke:#000000;stroke-linecap:square;stroke-width:1.5;"/>
   </g>
   <g id="line2d_73">
    <path clip-path="url(#pc54d373ccc)" d="M 102.055625 433.16125 
L 113.891989 433.16125 
L 125.728352 433.16125 
L 137.564716 433.16125 
L 149.40108 433.16125 
L 161.237443 433.16125 
L 173.073807 433.16125 
L 184.91017 433.16125 
L 196.746534 433.16125 
L 208.582898 433.16125 
L 220.419261 433.16125 
L 232.255625 433.16125 
L 244.091989 433.16125 
L 255.928352 433.16125 
L 267.764716 433.16125 
L 279.60108 433.16125 
L 291.437443 433.16125 
L 303.273807 433.16125 
L 315.11017 433.16125 
L 326.946534 433.16125 
L 338.782898 433.16125 
L 350.619261 433.16125 
L 362.455625 433.16125 
L 374.291989 433.16125 
L 386.128352 433.16125 
L 397.964716 433.16125 
L 409.80108 433.16125 
L 421.637443 433.16125 
L 433.473807 433.16125 
L 445.31017 433.16125 
L 457.146534 433.16125 
L 468.982898 433.16125 
L 480.819261 433.16125 
L 492.655625 433.16125 
" style="fill:none;stroke:#000000;stroke-linecap:square;stroke-width:1.5;"/>
   </g>
   <g id="line2d_74">
    <path clip-path="url(#pc54d373ccc)" d="M 90.219261 433.16125 
" style="fill:none;stroke:#000000;stroke-linecap:square;stroke-width:1.5;"/>
   </g>
   <g id="line2d_75">
    <path clip-path="url(#pc54d373ccc)" d="M 90.219261 433.16125 
" style="fill:none;stroke:#d0e1f2;stroke-linecap:square;stroke-width:1.5;"/>
   </g>
   <g id="line2d_76">
    <path clip-path="url(#pc54d373ccc)" d="M 90.219261 433.16125 
" style="fill:none;stroke:#94c4df;stroke-linecap:square;stroke-width:1.5;"/>
   </g>
   <g id="line2d_77">
    <path clip-path="url(#pc54d373ccc)" d="M 90.219261 433.16125 
" style="fill:none;stroke:#4a98c9;stroke-linecap:square;stroke-width:1.5;"/>
   </g>
   <g id="line2d_78">
    <path clip-path="url(#pc54d373ccc)" d="M 90.219261 433.16125 
" style="fill:none;stroke:#1764ab;stroke-linecap:square;stroke-width:1.5;"/>
   </g>
   <g id="line2d_79">
    <path clip-path="url(#pc54d373ccc)" d="M 90.219261 433.16125 
" style="fill:none;stroke:#08306b;stroke-linecap:square;stroke-width:1.5;"/>
   </g>
   <g id="line2d_80">
    <path clip-path="url(#pc54d373ccc)" d="M 90.219261 433.16125 
" style="fill:none;stroke:#000000;stroke-linecap:square;stroke-width:1.5;"/>
   </g>
   <g id="line2d_81">
    <path clip-path="url(#pc54d373ccc)" d="M 90.219261 433.16125 
" style="fill:none;stroke:#000000;stroke-dasharray:1.5,2.475;stroke-dashoffset:0;stroke-width:1.5;"/>
   </g>
   <g id="line2d_82">
    <path clip-path="url(#pc54d373ccc)" d="M 90.219261 433.16125 
" style="fill:none;stroke:#000000;stroke-linecap:square;stroke-width:1.5;"/>
   </g>
   <g id="line2d_83">
    <path clip-path="url(#pc54d373ccc)" d="M 90.219261 433.16125 
" style="fill:none;stroke:#000000;stroke-dasharray:5.55,2.4;stroke-dashoffset:0;stroke-width:1.5;"/>
   </g>
   <g id="line2d_84">
    <path clip-path="url(#pc54d373ccc)" d="M 90.219261 433.16125 
" style="fill:none;stroke:#000000;stroke-dasharray:9.6,2.4,1.5,2.4;stroke-dashoffset:0;stroke-width:1.5;"/>
   </g>
   <g id="line2d_85">
    <path clip-path="url(#pc54d373ccc)" d="M 90.219261 433.16125 
" style="fill:none;stroke:#000000;stroke-dasharray:9.6,2.4,1.5,2.4;stroke-dashoffset:0;stroke-width:1.5;"/>
   </g>
   <g id="patch_3">
    <path d="M 102.055625 433.16125 
L 102.055625 52.64125 
" style="fill:none;stroke:#000000;stroke-linecap:square;stroke-linejoin:miter;stroke-width:0.8;"/>
   </g>
   <g id="patch_4">
    <path d="M 492.655625 433.16125 
L 492.655625 52.64125 
" style="fill:none;stroke:#000000;stroke-linecap:square;stroke-linejoin:miter;stroke-width:0.8;"/>
   </g>
   <g id="patch_5">
    <path d="M 102.055625 433.16125 
L 492.655625 433.16125 
" style="fill:none;stroke:#000000;stroke-linecap:square;stroke-linejoin:miter;stroke-width:0.8;"/>
   </g>
   <g id="patch_6">
    <path d="M 102.055625 52.64125 
L 492.655625 52.64125 
" style="fill:none;stroke:#000000;stroke-linecap:square;stroke-linejoin:miter;stroke-width:0.8;"/>
   </g>
   <g id="text_16">
    <!-- T-CELL NORMALIZED COUNT -->
    <g transform="translate(154.0525 21.515625)scale(0.2 -0.2)">
     <use xlink:href="#Arial-BoldMT-84"/>
     <use x="61.005859" xlink:href="#Arial-BoldMT-45"/>
     <use x="94.306641" xlink:href="#Arial-BoldMT-67"/>
     <use x="166.523438" xlink:href="#Arial-BoldMT-69"/>
     <use x="233.222656" xlink:href="#Arial-BoldMT-76"/>
     <use x="294.306641" xlink:href="#Arial-BoldMT-76"/>
     <use x="355.375" xlink:href="#Arial-BoldMT-32"/>
     <use x="383.158203" xlink:href="#Arial-BoldMT-78"/>
     <use x="455.375" xlink:href="#Arial-BoldMT-79"/>
     <use x="533.158203" xlink:href="#Arial-BoldMT-82"/>
     <use x="605.375" xlink:href="#Arial-BoldMT-77"/>
     <use x="688.675781" xlink:href="#Arial-BoldMT-65"/>
     <use x="760.892578" xlink:href="#Arial-BoldMT-76"/>
     <use x="821.976562" xlink:href="#Arial-BoldMT-73"/>
     <use x="849.759766" xlink:href="#Arial-BoldMT-90"/>
     <use x="910.84375" xlink:href="#Arial-BoldMT-69"/>
     <use x="977.542969" xlink:href="#Arial-BoldMT-68"/>
     <use x="1049.759766" xlink:href="#Arial-BoldMT-32"/>
     <use x="1077.542969" xlink:href="#Arial-BoldMT-67"/>
     <use x="1149.759766" xlink:href="#Arial-BoldMT-79"/>
     <use x="1227.542969" xlink:href="#Arial-BoldMT-85"/>
     <use x="1299.759766" xlink:href="#Arial-BoldMT-78"/>
     <use x="1371.976562" xlink:href="#Arial-BoldMT-84"/>
    </g>
    <!-- ACROSS RADIUS AT TIME 7 -->
    <defs>
     <path d="M 4.25 57.859375 
L 4.25 70.609375 
L 51.171875 70.609375 
L 51.171875 60.640625 
Q 45.359375 54.9375 39.34375 44.234375 
Q 33.34375 33.546875 30.1875 21.5 
Q 27.046875 9.46875 27.09375 0 
L 13.875 0 
Q 14.203125 14.84375 19.984375 30.265625 
Q 25.78125 45.703125 35.453125 57.859375 
z
" id="Arial-BoldMT-55"/>
    </defs>
    <g transform="translate(162.361875 42.64125)scale(0.2 -0.2)">
     <use xlink:href="#Arial-BoldMT-65"/>
     <use x="72.216797" xlink:href="#Arial-BoldMT-67"/>
     <use x="144.433594" xlink:href="#Arial-BoldMT-82"/>
     <use x="216.650391" xlink:href="#Arial-BoldMT-79"/>
     <use x="294.433594" xlink:href="#Arial-BoldMT-83"/>
     <use x="361.132812" xlink:href="#Arial-BoldMT-83"/>
     <use x="427.832031" xlink:href="#Arial-BoldMT-32"/>
     <use x="455.615234" xlink:href="#Arial-BoldMT-82"/>
     <use x="527.832031" xlink:href="#Arial-BoldMT-65"/>
     <use x="600.048828" xlink:href="#Arial-BoldMT-68"/>
     <use x="672.265625" xlink:href="#Arial-BoldMT-73"/>
     <use x="700.048828" xlink:href="#Arial-BoldMT-85"/>
     <use x="772.265625" xlink:href="#Arial-BoldMT-83"/>
     <use x="838.964844" xlink:href="#Arial-BoldMT-32"/>
     <use x="866.701172" xlink:href="#Arial-BoldMT-65"/>
     <use x="938.808594" xlink:href="#Arial-BoldMT-84"/>
     <use x="999.892578" xlink:href="#Arial-BoldMT-32"/>
     <use x="1027.675781" xlink:href="#Arial-BoldMT-84"/>
     <use x="1088.759766" xlink:href="#Arial-BoldMT-73"/>
     <use x="1116.542969" xlink:href="#Arial-BoldMT-77"/>
     <use x="1199.84375" xlink:href="#Arial-BoldMT-69"/>
     <use x="1266.542969" xlink:href="#Arial-BoldMT-32"/>
     <use x="1294.326172" xlink:href="#Arial-BoldMT-55"/>
    </g>
   </g>
   <g id="legend_1">
    <g id="line2d_86">
     <path d="M 501.655625 65.739687 
L 521.655625 65.739687 
" style="fill:none;stroke:#000000;stroke-linecap:square;stroke-width:1.5;"/>
    </g>
    <g id="line2d_87"/>
    <g id="text_17">
     <!-- 0 -->
     <g transform="translate(529.655625 69.239687)scale(0.1 -0.1)">
      <use xlink:href="#DejaVuSans-48"/>
     </g>
    </g>
    <g id="line2d_88">
     <path d="M 501.655625 80.417812 
L 521.655625 80.417812 
" style="fill:none;stroke:#d0e1f2;stroke-linecap:square;stroke-width:1.5;"/>
    </g>
    <g id="line2d_89"/>
    <g id="text_18">
     <!-- 100 -->
     <g transform="translate(529.655625 83.917812)scale(0.1 -0.1)">
      <use xlink:href="#DejaVuSans-49"/>
      <use x="63.623047" xlink:href="#DejaVuSans-48"/>
      <use x="127.246094" xlink:href="#DejaVuSans-48"/>
     </g>
    </g>
    <g id="line2d_90">
     <path d="M 501.655625 95.095937 
L 521.655625 95.095937 
" style="fill:none;stroke:#94c4df;stroke-linecap:square;stroke-width:1.5;"/>
    </g>
    <g id="line2d_91"/>
    <g id="text_19">
     <!-- 500 -->
     <g transform="translate(529.655625 98.595937)scale(0.1 -0.1)">
      <use xlink:href="#DejaVuSans-53"/>
      <use x="63.623047" xlink:href="#DejaVuSans-48"/>
      <use x="127.246094" xlink:href="#DejaVuSans-48"/>
     </g>
    </g>
    <g id="line2d_92">
     <path d="M 501.655625 109.774062 
L 521.655625 109.774062 
" style="fill:none;stroke:#4a98c9;stroke-linecap:square;stroke-width:1.5;"/>
    </g>
    <g id="line2d_93"/>
    <g id="text_20">
     <!-- 1000 -->
     <g transform="translate(529.655625 113.274062)scale(0.1 -0.1)">
      <use xlink:href="#DejaVuSans-49"/>
      <use x="63.623047" xlink:href="#DejaVuSans-48"/>
      <use x="127.246094" xlink:href="#DejaVuSans-48"/>
      <use x="190.869141" xlink:href="#DejaVuSans-48"/>
     </g>
    </g>
    <g id="line2d_94">
     <path d="M 501.655625 124.452187 
L 521.655625 124.452187 
" style="fill:none;stroke:#1764ab;stroke-linecap:square;stroke-width:1.5;"/>
    </g>
    <g id="line2d_95"/>
    <g id="text_21">
     <!-- 5000 -->
     <g transform="translate(529.655625 127.952187)scale(0.1 -0.1)">
      <use xlink:href="#DejaVuSans-53"/>
      <use x="63.623047" xlink:href="#DejaVuSans-48"/>
      <use x="127.246094" xlink:href="#DejaVuSans-48"/>
      <use x="190.869141" xlink:href="#DejaVuSans-48"/>
     </g>
    </g>
    <g id="line2d_96">
     <path d="M 501.655625 139.130312 
L 521.655625 139.130312 
" style="fill:none;stroke:#08306b;stroke-linecap:square;stroke-width:1.5;"/>
    </g>
    <g id="line2d_97"/>
    <g id="text_22">
     <!-- 10000 -->
     <g transform="translate(529.655625 142.630312)scale(0.1 -0.1)">
      <use xlink:href="#DejaVuSans-49"/>
      <use x="63.623047" xlink:href="#DejaVuSans-48"/>
      <use x="127.246094" xlink:href="#DejaVuSans-48"/>
      <use x="190.869141" xlink:href="#DejaVuSans-48"/>
      <use x="254.492188" xlink:href="#DejaVuSans-48"/>
     </g>
    </g>
    <g id="line2d_98">
     <path d="M 501.655625 153.808437 
L 521.655625 153.808437 
" style="fill:none;stroke:#000000;stroke-linecap:square;stroke-width:1.5;"/>
    </g>
    <g id="line2d_99"/>
    <g id="text_23">
     <!-- 0 -->
     <g transform="translate(529.655625 157.308437)scale(0.1 -0.1)">
      <use xlink:href="#DejaVuSans-48"/>
     </g>
    </g>
    <g id="line2d_100">
     <path d="M 501.655625 168.486562 
L 521.655625 168.486562 
" style="fill:none;stroke:#000000;stroke-dasharray:1.5,2.475;stroke-dashoffset:0;stroke-width:1.5;"/>
    </g>
    <g id="line2d_101"/>
    <g id="text_24">
     <!-- 250 -->
     <g transform="translate(529.655625 171.986562)scale(0.1 -0.1)">
      <use xlink:href="#DejaVuSans-50"/>
      <use x="63.623047" xlink:href="#DejaVuSans-53"/>
      <use x="127.246094" xlink:href="#DejaVuSans-48"/>
     </g>
    </g>
    <g id="line2d_102">
     <path d="M 501.655625 183.164687 
L 521.655625 183.164687 
" style="fill:none;stroke:#000000;stroke-linecap:square;stroke-width:1.5;"/>
    </g>
    <g id="line2d_103"/>
    <g id="text_25">
     <!-- 500 -->
     <g transform="translate(529.655625 186.664687)scale(0.1 -0.1)">
      <use xlink:href="#DejaVuSans-53"/>
      <use x="63.623047" xlink:href="#DejaVuSans-48"/>
      <use x="127.246094" xlink:href="#DejaVuSans-48"/>
     </g>
    </g>
    <g id="line2d_104">
     <path d="M 501.655625 197.842812 
L 521.655625 197.842812 
" style="fill:none;stroke:#000000;stroke-dasharray:5.55,2.4;stroke-dashoffset:0;stroke-width:1.5;"/>
    </g>
    <g id="line2d_105"/>
    <g id="text_26">
     <!-- 1000 -->
     <g transform="translate(529.655625 201.342812)scale(0.1 -0.1)">
      <use xlink:href="#DejaVuSans-49"/>
      <use x="63.623047" xlink:href="#DejaVuSans-48"/>
      <use x="127.246094" xlink:href="#DejaVuSans-48"/>
      <use x="190.869141" xlink:href="#DejaVuSans-48"/>
     </g>
    </g>
    <g id="line2d_106">
     <path d="M 501.655625 212.520937 
L 521.655625 212.520937 
" style="fill:none;stroke:#000000;stroke-dasharray:9.6,2.4,1.5,2.4;stroke-dashoffset:0;stroke-width:1.5;"/>
    </g>
    <g id="line2d_107"/>
    <g id="text_27">
     <!-- 5000 -->
     <g transform="translate(529.655625 216.020937)scale(0.1 -0.1)">
      <use xlink:href="#DejaVuSans-53"/>
      <use x="63.623047" xlink:href="#DejaVuSans-48"/>
      <use x="127.246094" xlink:href="#DejaVuSans-48"/>
      <use x="190.869141" xlink:href="#DejaVuSans-48"/>
     </g>
    </g>
    <g id="line2d_108">
     <path d="M 501.655625 227.199062 
L 521.655625 227.199062 
" style="fill:none;stroke:#000000;stroke-dasharray:9.6,2.4,1.5,2.4;stroke-dashoffset:0;stroke-width:1.5;"/>
    </g>
    <g id="line2d_109"/>
    <g id="text_28">
     <!-- 10000 -->
     <g transform="translate(529.655625 230.699062)scale(0.1 -0.1)">
      <use xlink:href="#DejaVuSans-49"/>
      <use x="63.623047" xlink:href="#DejaVuSans-48"/>
      <use x="127.246094" xlink:href="#DejaVuSans-48"/>
      <use x="190.869141" xlink:href="#DejaVuSans-48"/>
      <use x="254.492188" xlink:href="#DejaVuSans-48"/>
     </g>
    </g>
   </g>
  </g>
 </g>
 <defs>
  <clipPath id="pc54d373ccc">
   <rect height="380.52" width="390.6" x="102.055625" y="52.64125"/>
  </clipPath>
 </defs>
</svg>
