<?xml version="1.0" encoding="utf-8" standalone="no"?>
<!DOCTYPE svg PUBLIC "-//W3C//DTD SVG 1.1//EN"
  "http://www.w3.org/Graphics/SVG/1.1/DTD/svg11.dtd">
<!-- Created with matplotlib (https://matplotlib.org/) -->
<svg height="504.658125pt" version="1.1" viewBox="0 0 610.843125 504.658125" width="610.843125pt" xmlns="http://www.w3.org/2000/svg" xmlns:xlink="http://www.w3.org/1999/xlink">
 <defs>
  <style type="text/css">
*{stroke-linecap:butt;stroke-linejoin:round;}
  </style>
 </defs>
 <g id="figure_1">
  <g id="patch_1">
   <path d="M 0 504.658125 
L 610.843125 504.658125 
L 610.843125 -0 
L 0 -0 
z
" style="fill:#ffffff;"/>
  </g>
  <g id="axes_1">
   <g id="patch_2">
    <path d="M 140.230625 433.16125 
L 530.830625 433.16125 
L 530.830625 52.64125 
L 140.230625 52.64125 
z
" style="fill:#ffffff;"/>
   </g>
   <g id="matplotlib.axis_1">
    <g id="xtick_1">
     <g id="line2d_1">
      <defs>
       <path d="M 0 0 
L 0 3.5 
" id="m599e857382" style="stroke:#000000;stroke-width:0.8;"/>
      </defs>
      <g>
       <use style="stroke:#000000;stroke-width:0.8;" x="187.57608" xlink:href="#m599e857382" y="433.16125"/>
      </g>
     </g>
     <g id="text_1">
      <!-- 5 -->
      <defs>
       <path d="M 10.796875 72.90625 
L 49.515625 72.90625 
L 49.515625 64.59375 
L 19.828125 64.59375 
L 19.828125 46.734375 
Q 21.96875 47.46875 24.109375 47.828125 
Q 26.265625 48.1875 28.421875 48.1875 
Q 40.625 48.1875 47.75 41.5 
Q 54.890625 34.8125 54.890625 23.390625 
Q 54.890625 11.625 47.5625 5.09375 
Q 40.234375 -1.421875 26.90625 -1.421875 
Q 22.3125 -1.421875 17.546875 -0.640625 
Q 12.796875 0.140625 7.71875 1.703125 
L 7.71875 11.625 
Q 12.109375 9.234375 16.796875 8.0625 
Q 21.484375 6.890625 26.703125 6.890625 
Q 35.15625 6.890625 40.078125 11.328125 
Q 45.015625 15.765625 45.015625 23.390625 
Q 45.015625 31 40.078125 35.4375 
Q 35.15625 39.890625 26.703125 39.890625 
Q 22.75 39.890625 18.8125 39.015625 
Q 14.890625 38.140625 10.796875 36.28125 
z
" id="DejaVuSans-53"/>
      </defs>
      <g transform="translate(178.03233 462.956562)scale(0.3 -0.3)">
       <use xlink:href="#DejaVuSans-53"/>
      </g>
     </g>
    </g>
    <g id="xtick_2">
     <g id="line2d_2">
      <g>
       <use style="stroke:#000000;stroke-width:0.8;" x="246.757898" xlink:href="#m599e857382" y="433.16125"/>
      </g>
     </g>
     <g id="text_2">
      <!-- 10 -->
      <defs>
       <path d="M 12.40625 8.296875 
L 28.515625 8.296875 
L 28.515625 63.921875 
L 10.984375 60.40625 
L 10.984375 69.390625 
L 28.421875 72.90625 
L 38.28125 72.90625 
L 38.28125 8.296875 
L 54.390625 8.296875 
L 54.390625 0 
L 12.40625 0 
z
" id="DejaVuSans-49"/>
       <path d="M 31.78125 66.40625 
Q 24.171875 66.40625 20.328125 58.90625 
Q 16.5 51.421875 16.5 36.375 
Q 16.5 21.390625 20.328125 13.890625 
Q 24.171875 6.390625 31.78125 6.390625 
Q 39.453125 6.390625 43.28125 13.890625 
Q 47.125 21.390625 47.125 36.375 
Q 47.125 51.421875 43.28125 58.90625 
Q 39.453125 66.40625 31.78125 66.40625 
z
M 31.78125 74.21875 
Q 44.046875 74.21875 50.515625 64.515625 
Q 56.984375 54.828125 56.984375 36.375 
Q 56.984375 17.96875 50.515625 8.265625 
Q 44.046875 -1.421875 31.78125 -1.421875 
Q 19.53125 -1.421875 13.0625 8.265625 
Q 6.59375 17.96875 6.59375 36.375 
Q 6.59375 54.828125 13.0625 64.515625 
Q 19.53125 74.21875 31.78125 74.21875 
z
" id="DejaVuSans-48"/>
      </defs>
      <g transform="translate(227.670398 462.956562)scale(0.3 -0.3)">
       <use xlink:href="#DejaVuSans-49"/>
       <use x="63.623047" xlink:href="#DejaVuSans-48"/>
      </g>
     </g>
    </g>
    <g id="xtick_3">
     <g id="line2d_3">
      <g>
       <use style="stroke:#000000;stroke-width:0.8;" x="305.939716" xlink:href="#m599e857382" y="433.16125"/>
      </g>
     </g>
     <g id="text_3">
      <!-- 15 -->
      <g transform="translate(286.852216 462.956562)scale(0.3 -0.3)">
       <use xlink:href="#DejaVuSans-49"/>
       <use x="63.623047" xlink:href="#DejaVuSans-53"/>
      </g>
     </g>
    </g>
    <g id="xtick_4">
     <g id="line2d_4">
      <g>
       <use style="stroke:#000000;stroke-width:0.8;" x="365.121534" xlink:href="#m599e857382" y="433.16125"/>
      </g>
     </g>
     <g id="text_4">
      <!-- 20 -->
      <defs>
       <path d="M 19.1875 8.296875 
L 53.609375 8.296875 
L 53.609375 0 
L 7.328125 0 
L 7.328125 8.296875 
Q 12.9375 14.109375 22.625 23.890625 
Q 32.328125 33.6875 34.8125 36.53125 
Q 39.546875 41.84375 41.421875 45.53125 
Q 43.3125 49.21875 43.3125 52.78125 
Q 43.3125 58.59375 39.234375 62.25 
Q 35.15625 65.921875 28.609375 65.921875 
Q 23.96875 65.921875 18.8125 64.3125 
Q 13.671875 62.703125 7.8125 59.421875 
L 7.8125 69.390625 
Q 13.765625 71.78125 18.9375 73 
Q 24.125 74.21875 28.421875 74.21875 
Q 39.75 74.21875 46.484375 68.546875 
Q 53.21875 62.890625 53.21875 53.421875 
Q 53.21875 48.921875 51.53125 44.890625 
Q 49.859375 40.875 45.40625 35.40625 
Q 44.1875 33.984375 37.640625 27.21875 
Q 31.109375 20.453125 19.1875 8.296875 
z
" id="DejaVuSans-50"/>
      </defs>
      <g transform="translate(346.034034 462.956562)scale(0.3 -0.3)">
       <use xlink:href="#DejaVuSans-50"/>
       <use x="63.623047" xlink:href="#DejaVuSans-48"/>
      </g>
     </g>
    </g>
    <g id="xtick_5">
     <g id="line2d_5">
      <g>
       <use style="stroke:#000000;stroke-width:0.8;" x="424.303352" xlink:href="#m599e857382" y="433.16125"/>
      </g>
     </g>
     <g id="text_5">
      <!-- 25 -->
      <g transform="translate(405.215852 462.956562)scale(0.3 -0.3)">
       <use xlink:href="#DejaVuSans-50"/>
       <use x="63.623047" xlink:href="#DejaVuSans-53"/>
      </g>
     </g>
    </g>
    <g id="xtick_6">
     <g id="line2d_6">
      <g>
       <use style="stroke:#000000;stroke-width:0.8;" x="483.48517" xlink:href="#m599e857382" y="433.16125"/>
      </g>
     </g>
     <g id="text_6">
      <!-- 30 -->
      <defs>
       <path d="M 40.578125 39.3125 
Q 47.65625 37.796875 51.625 33 
Q 55.609375 28.21875 55.609375 21.1875 
Q 55.609375 10.40625 48.1875 4.484375 
Q 40.765625 -1.421875 27.09375 -1.421875 
Q 22.515625 -1.421875 17.65625 -0.515625 
Q 12.796875 0.390625 7.625 2.203125 
L 7.625 11.71875 
Q 11.71875 9.328125 16.59375 8.109375 
Q 21.484375 6.890625 26.8125 6.890625 
Q 36.078125 6.890625 40.9375 10.546875 
Q 45.796875 14.203125 45.796875 21.1875 
Q 45.796875 27.640625 41.28125 31.265625 
Q 36.765625 34.90625 28.71875 34.90625 
L 20.21875 34.90625 
L 20.21875 43.015625 
L 29.109375 43.015625 
Q 36.375 43.015625 40.234375 45.921875 
Q 44.09375 48.828125 44.09375 54.296875 
Q 44.09375 59.90625 40.109375 62.90625 
Q 36.140625 65.921875 28.71875 65.921875 
Q 24.65625 65.921875 20.015625 65.03125 
Q 15.375 64.15625 9.8125 62.3125 
L 9.8125 71.09375 
Q 15.4375 72.65625 20.34375 73.4375 
Q 25.25 74.21875 29.59375 74.21875 
Q 40.828125 74.21875 47.359375 69.109375 
Q 53.90625 64.015625 53.90625 55.328125 
Q 53.90625 49.265625 50.4375 45.09375 
Q 46.96875 40.921875 40.578125 39.3125 
z
" id="DejaVuSans-51"/>
      </defs>
      <g transform="translate(464.39767 462.956562)scale(0.3 -0.3)">
       <use xlink:href="#DejaVuSans-51"/>
       <use x="63.623047" xlink:href="#DejaVuSans-48"/>
      </g>
     </g>
    </g>
    <g id="text_7">
     <!-- RADIUS -->
     <defs>
      <path d="M 7.328125 0 
L 7.328125 71.578125 
L 37.75 71.578125 
Q 49.21875 71.578125 54.421875 69.640625 
Q 59.625 67.71875 62.75 62.78125 
Q 65.875 57.859375 65.875 51.515625 
Q 65.875 43.453125 61.125 38.203125 
Q 56.390625 32.953125 46.96875 31.59375 
Q 51.65625 28.859375 54.703125 25.578125 
Q 57.765625 22.3125 62.9375 13.96875 
L 71.6875 0 
L 54.390625 0 
L 43.953125 15.578125 
Q 38.375 23.921875 36.328125 26.09375 
Q 34.28125 28.265625 31.984375 29.078125 
Q 29.6875 29.890625 24.703125 29.890625 
L 21.78125 29.890625 
L 21.78125 0 
z
M 21.78125 41.3125 
L 32.46875 41.3125 
Q 42.875 41.3125 45.453125 42.1875 
Q 48.046875 43.0625 49.515625 45.203125 
Q 50.984375 47.359375 50.984375 50.59375 
Q 50.984375 54.203125 49.046875 56.421875 
Q 47.125 58.640625 43.609375 59.234375 
Q 41.84375 59.46875 33.0625 59.46875 
L 21.78125 59.46875 
z
" id="Arial-BoldMT-82"/>
      <path d="M 71.828125 0 
L 56.109375 0 
L 49.859375 16.265625 
L 21.234375 16.265625 
L 15.328125 0 
L 0 0 
L 27.875 71.578125 
L 43.171875 71.578125 
z
M 45.21875 28.328125 
L 35.359375 54.890625 
L 25.6875 28.328125 
z
" id="Arial-BoldMT-65"/>
      <path d="M 7.234375 71.578125 
L 33.640625 71.578125 
Q 42.578125 71.578125 47.265625 70.21875 
Q 53.5625 68.359375 58.046875 63.625 
Q 62.546875 58.890625 64.890625 52.03125 
Q 67.234375 45.171875 67.234375 35.109375 
Q 67.234375 26.265625 65.046875 19.875 
Q 62.359375 12.0625 57.375 7.234375 
Q 53.609375 3.5625 47.21875 1.515625 
Q 42.4375 0 34.421875 0 
L 7.234375 0 
z
M 21.6875 59.46875 
L 21.6875 12.0625 
L 32.46875 12.0625 
Q 38.53125 12.0625 41.21875 12.75 
Q 44.734375 13.625 47.046875 15.71875 
Q 49.359375 17.828125 50.828125 22.625 
Q 52.296875 27.4375 52.296875 35.75 
Q 52.296875 44.046875 50.828125 48.484375 
Q 49.359375 52.9375 46.71875 55.421875 
Q 44.09375 57.90625 40.046875 58.796875 
Q 37.015625 59.46875 28.171875 59.46875 
z
" id="Arial-BoldMT-68"/>
      <path d="M 6.84375 0 
L 6.84375 71.578125 
L 21.296875 71.578125 
L 21.296875 0 
z
" id="Arial-BoldMT-73"/>
      <path d="M 7.171875 71.578125 
L 21.625 71.578125 
L 21.625 32.8125 
Q 21.625 23.578125 22.171875 20.84375 
Q 23.09375 16.453125 26.578125 13.796875 
Q 30.078125 11.140625 36.140625 11.140625 
Q 42.28125 11.140625 45.40625 13.640625 
Q 48.53125 16.15625 49.171875 19.8125 
Q 49.8125 23.484375 49.8125 31.984375 
L 49.8125 71.578125 
L 64.265625 71.578125 
L 64.265625 33.984375 
Q 64.265625 21.09375 63.09375 15.765625 
Q 61.921875 10.453125 58.765625 6.78125 
Q 55.609375 3.125 50.328125 0.953125 
Q 45.0625 -1.21875 36.578125 -1.21875 
Q 26.3125 -1.21875 21.015625 1.140625 
Q 15.71875 3.515625 12.640625 7.296875 
Q 9.578125 11.078125 8.59375 15.234375 
Q 7.171875 21.390625 7.171875 33.40625 
z
" id="Arial-BoldMT-85"/>
      <path d="M 3.609375 23.296875 
L 17.671875 24.65625 
Q 18.953125 17.578125 22.828125 14.25 
Q 26.703125 10.9375 33.296875 10.9375 
Q 40.28125 10.9375 43.8125 13.890625 
Q 47.359375 16.84375 47.359375 20.796875 
Q 47.359375 23.34375 45.875 25.125 
Q 44.390625 26.90625 40.671875 28.21875 
Q 38.140625 29.109375 29.109375 31.34375 
Q 17.484375 34.234375 12.796875 38.421875 
Q 6.203125 44.34375 6.203125 52.828125 
Q 6.203125 58.296875 9.296875 63.0625 
Q 12.40625 67.828125 18.234375 70.3125 
Q 24.078125 72.796875 32.328125 72.796875 
Q 45.796875 72.796875 52.609375 66.890625 
Q 59.421875 60.984375 59.765625 51.125 
L 45.3125 50.484375 
Q 44.390625 56 41.328125 58.421875 
Q 38.28125 60.84375 32.171875 60.84375 
Q 25.875 60.84375 22.3125 58.25 
Q 20.015625 56.59375 20.015625 53.8125 
Q 20.015625 51.265625 22.171875 49.46875 
Q 24.90625 47.171875 35.453125 44.671875 
Q 46 42.1875 51.046875 39.515625 
Q 56.109375 36.859375 58.953125 32.25 
Q 61.8125 27.640625 61.8125 20.84375 
Q 61.8125 14.703125 58.390625 9.328125 
Q 54.984375 3.953125 48.734375 1.34375 
Q 42.484375 -1.265625 33.15625 -1.265625 
Q 19.578125 -1.265625 12.296875 5 
Q 5.03125 11.28125 3.609375 23.296875 
z
" id="Arial-BoldMT-83"/>
     </defs>
     <g transform="translate(297.194687 493.51125)scale(0.2 -0.2)">
      <use xlink:href="#Arial-BoldMT-82"/>
      <use x="72.216797" xlink:href="#Arial-BoldMT-65"/>
      <use x="144.433594" xlink:href="#Arial-BoldMT-68"/>
      <use x="216.650391" xlink:href="#Arial-BoldMT-73"/>
      <use x="244.433594" xlink:href="#Arial-BoldMT-85"/>
      <use x="316.650391" xlink:href="#Arial-BoldMT-83"/>
     </g>
    </g>
   </g>
   <g id="matplotlib.axis_2">
    <g id="ytick_1">
     <g id="line2d_7">
      <defs>
       <path d="M 0 0 
L -3.5 0 
" id="m2d10656b1b" style="stroke:#000000;stroke-width:0.8;"/>
      </defs>
      <g>
       <use style="stroke:#000000;stroke-width:0.8;" x="140.230625" xlink:href="#m2d10656b1b" y="433.16125"/>
      </g>
     </g>
     <g id="text_8">
      <!-- 0 -->
      <g transform="translate(114.143125 444.558906)scale(0.3 -0.3)">
       <use xlink:href="#DejaVuSans-48"/>
      </g>
     </g>
    </g>
    <g id="ytick_2">
     <g id="line2d_8">
      <g>
       <use style="stroke:#000000;stroke-width:0.8;" x="140.230625" xlink:href="#m2d10656b1b" y="380.912115"/>
      </g>
     </g>
     <g id="text_9">
      <!-- 250 -->
      <g transform="translate(75.968125 392.309771)scale(0.3 -0.3)">
       <use xlink:href="#DejaVuSans-50"/>
       <use x="63.623047" xlink:href="#DejaVuSans-53"/>
       <use x="127.246094" xlink:href="#DejaVuSans-48"/>
      </g>
     </g>
    </g>
    <g id="ytick_3">
     <g id="line2d_9">
      <g>
       <use style="stroke:#000000;stroke-width:0.8;" x="140.230625" xlink:href="#m2d10656b1b" y="328.66298"/>
      </g>
     </g>
     <g id="text_10">
      <!-- 500 -->
      <g transform="translate(75.968125 340.060636)scale(0.3 -0.3)">
       <use xlink:href="#DejaVuSans-53"/>
       <use x="63.623047" xlink:href="#DejaVuSans-48"/>
       <use x="127.246094" xlink:href="#DejaVuSans-48"/>
      </g>
     </g>
    </g>
    <g id="ytick_4">
     <g id="line2d_10">
      <g>
       <use style="stroke:#000000;stroke-width:0.8;" x="140.230625" xlink:href="#m2d10656b1b" y="276.413845"/>
      </g>
     </g>
     <g id="text_11">
      <!-- 750 -->
      <defs>
       <path d="M 8.203125 72.90625 
L 55.078125 72.90625 
L 55.078125 68.703125 
L 28.609375 0 
L 18.3125 0 
L 43.21875 64.59375 
L 8.203125 64.59375 
z
" id="DejaVuSans-55"/>
      </defs>
      <g transform="translate(75.968125 287.811501)scale(0.3 -0.3)">
       <use xlink:href="#DejaVuSans-55"/>
       <use x="63.623047" xlink:href="#DejaVuSans-53"/>
       <use x="127.246094" xlink:href="#DejaVuSans-48"/>
      </g>
     </g>
    </g>
    <g id="ytick_5">
     <g id="line2d_11">
      <g>
       <use style="stroke:#000000;stroke-width:0.8;" x="140.230625" xlink:href="#m2d10656b1b" y="224.16471"/>
      </g>
     </g>
     <g id="text_12">
      <!-- 1000 -->
      <g transform="translate(56.880625 235.562366)scale(0.3 -0.3)">
       <use xlink:href="#DejaVuSans-49"/>
       <use x="63.623047" xlink:href="#DejaVuSans-48"/>
       <use x="127.246094" xlink:href="#DejaVuSans-48"/>
       <use x="190.869141" xlink:href="#DejaVuSans-48"/>
      </g>
     </g>
    </g>
    <g id="ytick_6">
     <g id="line2d_12">
      <g>
       <use style="stroke:#000000;stroke-width:0.8;" x="140.230625" xlink:href="#m2d10656b1b" y="171.915575"/>
      </g>
     </g>
     <g id="text_13">
      <!-- 1250 -->
      <g transform="translate(56.880625 183.313232)scale(0.3 -0.3)">
       <use xlink:href="#DejaVuSans-49"/>
       <use x="63.623047" xlink:href="#DejaVuSans-50"/>
       <use x="127.246094" xlink:href="#DejaVuSans-53"/>
       <use x="190.869141" xlink:href="#DejaVuSans-48"/>
      </g>
     </g>
    </g>
    <g id="ytick_7">
     <g id="line2d_13">
      <g>
       <use style="stroke:#000000;stroke-width:0.8;" x="140.230625" xlink:href="#m2d10656b1b" y="119.66644"/>
      </g>
     </g>
     <g id="text_14">
      <!-- 1500 -->
      <g transform="translate(56.880625 131.064097)scale(0.3 -0.3)">
       <use xlink:href="#DejaVuSans-49"/>
       <use x="63.623047" xlink:href="#DejaVuSans-53"/>
       <use x="127.246094" xlink:href="#DejaVuSans-48"/>
       <use x="190.869141" xlink:href="#DejaVuSans-48"/>
      </g>
     </g>
    </g>
    <g id="ytick_8">
     <g id="line2d_14">
      <g>
       <use style="stroke:#000000;stroke-width:0.8;" x="140.230625" xlink:href="#m2d10656b1b" y="67.417305"/>
      </g>
     </g>
     <g id="text_15">
      <!-- 1750 -->
      <g transform="translate(56.880625 78.814962)scale(0.3 -0.3)">
       <use xlink:href="#DejaVuSans-49"/>
       <use x="63.623047" xlink:href="#DejaVuSans-55"/>
       <use x="127.246094" xlink:href="#DejaVuSans-53"/>
       <use x="190.869141" xlink:href="#DejaVuSans-48"/>
      </g>
     </g>
    </g>
    <g id="text_16">
     <!-- CD8 LIVE -->
     <defs>
      <path d="M 53.078125 26.3125 
L 67.09375 21.875 
Q 63.875 10.15625 56.375 4.46875 
Q 48.875 -1.21875 37.359375 -1.21875 
Q 23.09375 -1.21875 13.90625 8.515625 
Q 4.734375 18.265625 4.734375 35.15625 
Q 4.734375 53.03125 13.953125 62.90625 
Q 23.1875 72.796875 38.234375 72.796875 
Q 51.375 72.796875 59.578125 65.046875 
Q 64.453125 60.453125 66.890625 51.859375 
L 52.59375 48.4375 
Q 51.3125 54 47.28125 57.21875 
Q 43.265625 60.453125 37.5 60.453125 
Q 29.546875 60.453125 24.578125 54.734375 
Q 19.625 49.03125 19.625 36.234375 
Q 19.625 22.65625 24.5 16.890625 
Q 29.390625 11.140625 37.203125 11.140625 
Q 42.96875 11.140625 47.109375 14.796875 
Q 51.265625 18.453125 53.078125 26.3125 
z
" id="Arial-BoldMT-67"/>
      <path d="M 16.015625 38.625 
Q 10.6875 40.875 8.265625 44.796875 
Q 5.859375 48.734375 5.859375 53.421875 
Q 5.859375 61.421875 11.453125 66.640625 
Q 17.046875 71.875 27.34375 71.875 
Q 37.546875 71.875 43.1875 66.640625 
Q 48.828125 61.421875 48.828125 53.421875 
Q 48.828125 48.4375 46.234375 44.546875 
Q 43.65625 40.671875 38.96875 38.625 
Q 44.921875 36.234375 48.015625 31.640625 
Q 51.125 27.046875 51.125 21.046875 
Q 51.125 11.140625 44.796875 4.9375 
Q 38.484375 -1.265625 27.984375 -1.265625 
Q 18.21875 -1.265625 11.71875 3.859375 
Q 4.046875 9.90625 4.046875 20.453125 
Q 4.046875 26.265625 6.921875 31.125 
Q 9.8125 35.984375 16.015625 38.625 
z
M 18.84375 52.4375 
Q 18.84375 48.34375 21.15625 46.046875 
Q 23.484375 43.75 27.34375 43.75 
Q 31.25 43.75 33.59375 46.0625 
Q 35.9375 48.390625 35.9375 52.484375 
Q 35.9375 56.34375 33.609375 58.65625 
Q 31.296875 60.984375 27.484375 60.984375 
Q 23.53125 60.984375 21.1875 58.640625 
Q 18.84375 56.296875 18.84375 52.4375 
z
M 17.578125 21.78125 
Q 17.578125 16.109375 20.484375 12.9375 
Q 23.390625 9.765625 27.734375 9.765625 
Q 31.984375 9.765625 34.765625 12.8125 
Q 37.546875 15.875 37.546875 21.625 
Q 37.546875 26.65625 34.71875 29.703125 
Q 31.890625 32.765625 27.546875 32.765625 
Q 22.515625 32.765625 20.046875 29.296875 
Q 17.578125 25.828125 17.578125 21.78125 
z
" id="Arial-BoldMT-56"/>
      <path id="Arial-BoldMT-32"/>
      <path d="M 7.671875 0 
L 7.671875 71 
L 22.125 71 
L 22.125 12.0625 
L 58.0625 12.0625 
L 58.0625 0 
z
" id="Arial-BoldMT-76"/>
      <path d="M 25.53125 0 
L -0.046875 71.578125 
L 15.625 71.578125 
L 33.734375 18.609375 
L 51.265625 71.578125 
L 66.609375 71.578125 
L 40.96875 0 
z
" id="Arial-BoldMT-86"/>
      <path d="M 7.28125 0 
L 7.28125 71.578125 
L 60.359375 71.578125 
L 60.359375 59.46875 
L 21.734375 59.46875 
L 21.734375 43.609375 
L 57.671875 43.609375 
L 57.671875 31.546875 
L 21.734375 31.546875 
L 21.734375 12.0625 
L 61.71875 12.0625 
L 61.71875 0 
z
" id="Arial-BoldMT-69"/>
     </defs>
     <g transform="translate(21.253125 287.910625)rotate(-90)scale(0.2 -0.2)">
      <use xlink:href="#Arial-BoldMT-67"/>
      <use x="72.216797" xlink:href="#Arial-BoldMT-68"/>
      <use x="144.433594" xlink:href="#Arial-BoldMT-56"/>
      <use x="200.048828" xlink:href="#Arial-BoldMT-32"/>
      <use x="227.832031" xlink:href="#Arial-BoldMT-76"/>
      <use x="288.916016" xlink:href="#Arial-BoldMT-73"/>
      <use x="316.699219" xlink:href="#Arial-BoldMT-86"/>
      <use x="383.398438" xlink:href="#Arial-BoldMT-69"/>
     </g>
     <!-- CELL COUNTS (NUMBERS) -->
     <defs>
      <path d="M 4.34375 35.359375 
Q 4.34375 46.296875 7.625 53.71875 
Q 10.0625 59.1875 14.28125 63.53125 
Q 18.5 67.875 23.53125 69.96875 
Q 30.21875 72.796875 38.96875 72.796875 
Q 54.78125 72.796875 64.28125 62.984375 
Q 73.78125 53.171875 73.78125 35.6875 
Q 73.78125 18.359375 64.359375 8.5625 
Q 54.9375 -1.21875 39.15625 -1.21875 
Q 23.1875 -1.21875 13.765625 8.515625 
Q 4.34375 18.265625 4.34375 35.359375 
z
M 19.234375 35.84375 
Q 19.234375 23.6875 24.84375 17.40625 
Q 30.46875 11.140625 39.109375 11.140625 
Q 47.75 11.140625 53.296875 17.359375 
Q 58.84375 23.578125 58.84375 36.03125 
Q 58.84375 48.34375 53.4375 54.390625 
Q 48.046875 60.453125 39.109375 60.453125 
Q 30.171875 60.453125 24.703125 54.3125 
Q 19.234375 48.1875 19.234375 35.84375 
z
" id="Arial-BoldMT-79"/>
      <path d="M 7.421875 0 
L 7.421875 71.578125 
L 21.484375 71.578125 
L 50.78125 23.78125 
L 50.78125 71.578125 
L 64.203125 71.578125 
L 64.203125 0 
L 49.703125 0 
L 20.84375 46.6875 
L 20.84375 0 
z
" id="Arial-BoldMT-78"/>
      <path d="M 23.390625 0 
L 23.390625 59.46875 
L 2.15625 59.46875 
L 2.15625 71.578125 
L 59.03125 71.578125 
L 59.03125 59.46875 
L 37.84375 59.46875 
L 37.84375 0 
z
" id="Arial-BoldMT-84"/>
      <path d="M 29.9375 -21.046875 
L 20.515625 -21.046875 
Q 13.03125 -9.765625 9.125 2.390625 
Q 5.21875 14.546875 5.21875 25.921875 
Q 5.21875 40.046875 10.0625 52.640625 
Q 14.265625 63.578125 20.703125 72.796875 
L 30.078125 72.796875 
Q 23.390625 58.015625 20.875 47.625 
Q 18.359375 37.25 18.359375 25.640625 
Q 18.359375 17.625 19.84375 9.21875 
Q 21.34375 0.828125 23.921875 -6.734375 
Q 25.640625 -11.71875 29.9375 -21.046875 
z
" id="Arial-BoldMT-40"/>
      <path d="M 7.078125 0 
L 7.078125 71.578125 
L 28.71875 71.578125 
L 41.703125 22.75 
L 54.546875 71.578125 
L 76.21875 71.578125 
L 76.21875 0 
L 62.796875 0 
L 62.796875 56.34375 
L 48.578125 0 
L 34.671875 0 
L 20.515625 56.34375 
L 20.515625 0 
z
" id="Arial-BoldMT-77"/>
      <path d="M 7.328125 71.578125 
L 35.9375 71.578125 
Q 44.4375 71.578125 48.609375 70.875 
Q 52.78125 70.171875 56.078125 67.921875 
Q 59.375 65.671875 61.5625 61.9375 
Q 63.765625 58.203125 63.765625 53.5625 
Q 63.765625 48.53125 61.046875 44.328125 
Q 58.34375 40.140625 53.71875 38.03125 
Q 60.25 36.140625 63.765625 31.546875 
Q 67.28125 26.953125 67.28125 20.75 
Q 67.28125 15.875 65.015625 11.25 
Q 62.75 6.640625 58.8125 3.875 
Q 54.890625 1.125 49.125 0.484375 
Q 45.515625 0.09375 31.6875 0 
L 7.328125 0 
z
M 21.78125 59.671875 
L 21.78125 43.109375 
L 31.25 43.109375 
Q 39.703125 43.109375 41.75 43.359375 
Q 45.453125 43.796875 47.578125 45.921875 
Q 49.703125 48.046875 49.703125 51.515625 
Q 49.703125 54.828125 47.875 56.90625 
Q 46.046875 58.984375 42.4375 59.421875 
Q 40.28125 59.671875 30.078125 59.671875 
z
M 21.78125 31.203125 
L 21.78125 12.0625 
L 35.15625 12.0625 
Q 42.96875 12.0625 45.0625 12.5 
Q 48.296875 13.09375 50.3125 15.359375 
Q 52.34375 17.625 52.34375 21.4375 
Q 52.34375 24.65625 50.78125 26.90625 
Q 49.21875 29.15625 46.265625 30.171875 
Q 43.3125 31.203125 33.453125 31.203125 
z
" id="Arial-BoldMT-66"/>
      <path d="M 3.375 -21.046875 
Q 7.421875 -12.359375 9.078125 -7.71875 
Q 10.75 -3.078125 12.15625 2.96875 
Q 13.578125 9.03125 14.25 14.46875 
Q 14.9375 19.921875 14.9375 25.640625 
Q 14.9375 37.25 12.453125 47.625 
Q 9.96875 58.015625 3.265625 72.796875 
L 12.59375 72.796875 
Q 19.96875 62.3125 24.046875 50.53125 
Q 28.125 38.765625 28.125 26.65625 
Q 28.125 16.453125 24.90625 4.78125 
Q 21.234375 -8.296875 12.84375 -21.046875 
z
" id="Arial-BoldMT-41"/>
     </defs>
     <g transform="translate(42.67125 374.002812)rotate(-90)scale(0.2 -0.2)">
      <use xlink:href="#Arial-BoldMT-67"/>
      <use x="72.216797" xlink:href="#Arial-BoldMT-69"/>
      <use x="138.916016" xlink:href="#Arial-BoldMT-76"/>
      <use x="200" xlink:href="#Arial-BoldMT-76"/>
      <use x="261.068359" xlink:href="#Arial-BoldMT-32"/>
      <use x="288.851562" xlink:href="#Arial-BoldMT-67"/>
      <use x="361.068359" xlink:href="#Arial-BoldMT-79"/>
      <use x="438.851562" xlink:href="#Arial-BoldMT-85"/>
      <use x="511.068359" xlink:href="#Arial-BoldMT-78"/>
      <use x="583.285156" xlink:href="#Arial-BoldMT-84"/>
      <use x="644.369141" xlink:href="#Arial-BoldMT-83"/>
      <use x="711.068359" xlink:href="#Arial-BoldMT-32"/>
      <use x="738.851562" xlink:href="#Arial-BoldMT-40"/>
      <use x="772.152344" xlink:href="#Arial-BoldMT-78"/>
      <use x="844.369141" xlink:href="#Arial-BoldMT-85"/>
      <use x="916.585938" xlink:href="#Arial-BoldMT-77"/>
      <use x="999.886719" xlink:href="#Arial-BoldMT-66"/>
      <use x="1072.103516" xlink:href="#Arial-BoldMT-69"/>
      <use x="1138.802734" xlink:href="#Arial-BoldMT-82"/>
      <use x="1211.019531" xlink:href="#Arial-BoldMT-83"/>
      <use x="1277.71875" xlink:href="#Arial-BoldMT-41"/>
     </g>
    </g>
   </g>
   <g id="line2d_15">
    <path clip-path="url(#p8ee57cb4ed)" d="M 140.230625 431.489278 
L 152.066989 425.010385 
L 163.903352 422.711423 
L 175.739716 410.79862 
L 187.57608 372.76125 
L 199.412443 355.414537 
L 211.248807 379.240143 
L 223.08517 372.970247 
L 234.921534 372.970247 
L 246.757898 370.671285 
L 258.594261 359.385471 
L 270.430625 345.5917 
L 282.266989 329.498966 
L 294.103352 328.453984 
L 305.939716 325.528032 
L 317.77608 279.339797 
L 329.612443 270.352946 
L 341.448807 258.649139 
L 353.28517 228.971631 
L 365.121534 245.064364 
L 376.957898 236.495506 
L 388.794261 224.16471 
L 400.630625 225.000696 
L 412.466989 237.122496 
L 424.303352 252.58824 
L 436.139716 242.765402 
L 447.97608 260.739105 
L 459.812443 244.855368 
L 471.648807 230.434606 
L 483.48517 232.315575 
L 495.321534 227.508655 
L 507.157898 202.847063 
L 518.994261 186.963326 
L 530.830625 194.905195 
" style="fill:none;stroke:#08306b;stroke-linecap:square;stroke-width:1.5;"/>
   </g>
   <g id="line2d_16">
    <path clip-path="url(#p8ee57cb4ed)" d="M 140.230625 431.907271 
L 152.066989 424.801388 
L 163.903352 415.605541 
L 175.739716 405.782703 
L 187.57608 413.097582 
L 199.412443 417.48651 
L 211.248807 401.184779 
L 223.08517 392.406925 
L 234.921534 391.779935 
L 246.757898 391.152946 
L 258.594261 368.999312 
L 270.430625 332.633914 
L 282.266989 302.12042 
L 294.103352 280.384779 
L 305.939716 272.860904 
L 317.77608 283.310731 
L 329.612443 276.622842 
L 341.448807 291.879589 
L 353.28517 282.265748 
L 365.121534 278.503811 
L 376.957898 254.051215 
L 388.794261 267.426994 
L 400.630625 251.125264 
L 412.466989 230.852599 
L 424.303352 245.691354 
L 436.139716 215.804849 
L 447.97608 208.48997 
L 459.812443 212.669901 
L 471.648807 223.955714 
L 483.48517 207.653984 
L 495.321534 175.050523 
L 507.157898 162.928724 
L 518.994261 148.298966 
L 530.830625 181.529416 
" style="fill:none;stroke:#08306b;stroke-linecap:square;stroke-width:1.5;"/>
   </g>
   <g id="line2d_17">
    <path clip-path="url(#p8ee57cb4ed)" d="M 140.230625 433.16125 
L 152.066989 433.16125 
L 163.903352 431.489278 
L 175.739716 419.576475 
L 187.57608 414.978551 
L 199.412443 396.795852 
L 211.248807 376.732184 
L 223.08517 343.919728 
L 234.921534 331.170939 
L 246.757898 349.353638 
L 258.594261 343.710731 
L 270.430625 336.604849 
L 282.266989 323.647063 
L 294.103352 326.155022 
L 305.939716 335.559866 
L 317.77608 322.60208 
L 329.612443 307.345333 
L 341.448807 298.358482 
L 353.28517 297.104503 
L 365.121534 309.853292 
L 376.957898 300.239451 
L 388.794261 301.49343 
L 400.630625 255.723188 
L 412.466989 242.138413 
L 424.303352 238.167478 
L 436.139716 218.521804 
L 447.97608 202.220074 
L 459.812443 177.558482 
L 471.648807 163.346717 
L 483.48517 136.59516 
L 495.321534 160.211769 
L 507.157898 161.674745 
L 518.994261 167.735644 
L 530.830625 178.603465 
" style="fill:none;stroke:#08306b;stroke-linecap:square;stroke-width:1.5;"/>
   </g>
   <g id="line2d_18">
    <path clip-path="url(#p8ee57cb4ed)" d="M 140.230625 430.862288 
L 152.066989 424.801388 
L 163.903352 417.695506 
L 175.739716 409.962634 
L 187.57608 387.391008 
L 199.412443 383.211077 
L 211.248807 377.359174 
L 223.08517 349.562634 
L 234.921534 360.639451 
L 246.757898 370.462288 
L 258.594261 371.089278 
L 270.430625 352.697582 
L 282.266989 329.498966 
L 294.103352 331.379935 
L 305.939716 308.808309 
L 317.77608 291.879589 
L 329.612443 255.305195 
L 341.448807 258.02215 
L 353.28517 268.26298 
L 365.121534 270.561942 
L 376.957898 268.053984 
L 388.794261 279.339797 
L 400.630625 296.268516 
L 412.466989 267.217997 
L 424.303352 234.614537 
L 436.139716 223.537721 
L 447.97608 210.370939 
L 459.812443 230.434606 
L 471.648807 201.175091 
L 483.48517 172.333568 
L 495.321534 147.044987 
L 507.157898 141.611077 
L 518.994261 148.08997 
L 530.830625 171.497582 
" style="fill:none;stroke:#08306b;stroke-linecap:square;stroke-width:1.5;"/>
   </g>
   <g id="line2d_19">
    <path clip-path="url(#p8ee57cb4ed)" d="M 140.230625 431.489278 
L 152.066989 428.145333 
L 163.903352 412.679589 
L 175.739716 406.409693 
L 187.57608 400.348793 
L 199.412443 392.197928 
L 211.248807 374.433222 
L 223.08517 394.287894 
L 234.921534 389.898966 
L 246.757898 394.705887 
L 258.594261 376.732184 
L 270.430625 354.160558 
L 282.266989 341.829762 
L 294.103352 322.184087 
L 305.939716 286.027686 
L 317.77608 269.516959 
L 329.612443 263.247063 
L 341.448807 262.82907 
L 353.28517 264.919035 
L 365.121534 298.358482 
L 376.957898 320.721112 
L 388.794261 315.496198 
L 400.630625 338.276821 
L 412.466989 297.104503 
L 424.303352 258.858136 
L 436.139716 217.058828 
L 447.97608 180.902426 
L 459.812443 180.902426 
L 471.648807 150.806925 
L 483.48517 171.497582 
L 495.321534 153.105887 
L 507.157898 168.362634 
L 518.994261 185.709347 
L 530.830625 195.950177 
" style="fill:none;stroke:#08306b;stroke-linecap:square;stroke-width:1.5;"/>
   </g>
   <g id="line2d_20">
    <path clip-path="url(#p8ee57cb4ed)" d="M 140.230625 433.16125 
L 152.066989 424.383395 
L 163.903352 403.901734 
L 175.739716 398.467824 
L 187.57608 399.303811 
L 199.412443 406.618689 
L 211.248807 399.9308 
L 223.08517 402.229762 
L 234.921534 394.078897 
L 246.757898 367.745333 
L 258.594261 351.02561 
L 270.430625 335.768862 
L 282.266989 334.09689 
L 294.103352 313.824226 
L 305.939716 326.782011 
L 317.77608 301.911423 
L 329.612443 291.879589 
L 341.448807 262.82907 
L 353.28517 285.1917 
L 365.121534 284.146717 
L 376.957898 278.294814 
L 388.794261 274.950869 
L 400.630625 278.921804 
L 412.466989 261.157098 
L 424.303352 261.366094 
L 436.139716 254.887202 
L 447.97608 266.173015 
L 459.812443 278.503811 
L 471.648807 255.096198 
L 483.48517 222.283741 
L 495.321534 165.227686 
L 507.157898 88.107963 
L 518.994261 70.76125 
L 530.830625 108.380627 
" style="fill:none;stroke:#08306b;stroke-linecap:square;stroke-width:1.5;"/>
   </g>
   <g id="line2d_21">
    <path clip-path="url(#p8ee57cb4ed)" d="M 140.230625 433.16125 
L 152.066989 431.280281 
L 163.903352 426.264364 
L 175.739716 413.306579 
L 187.57608 395.750869 
L 199.412443 401.393776 
L 211.248807 383.62907 
L 223.08517 372.343257 
L 234.921534 371.089278 
L 246.757898 349.562634 
L 258.594261 368.372323 
L 270.430625 370.253292 
L 282.266989 348.935644 
L 294.103352 343.083741 
L 305.939716 322.60208 
L 317.77608 300.239451 
L 329.612443 297.522496 
L 341.448807 279.966786 
L 353.28517 267.844987 
L 365.121534 250.707271 
L 376.957898 240.884433 
L 388.794261 246.318343 
L 400.630625 249.662288 
L 412.466989 239.003465 
L 424.303352 246.318343 
L 436.139716 236.913499 
L 447.97608 205.982011 
L 459.812443 214.968862 
L 471.648807 214.968862 
L 483.48517 210.370939 
L 495.321534 191.56125 
L 507.157898 168.362634 
L 518.994261 150.597928 
L 530.830625 178.394468 
" style="fill:none;stroke:#08306b;stroke-linecap:square;stroke-width:1.5;"/>
   </g>
   <g id="line2d_22">
    <path clip-path="url(#p8ee57cb4ed)" d="M 140.230625 432.116267 
L 152.066989 430.235298 
L 163.903352 417.48651 
L 175.739716 406.827686 
L 187.57608 395.12388 
L 199.412443 370.253292 
L 211.248807 332.842911 
L 223.08517 318.631146 
L 234.921534 337.231838 
L 246.757898 353.324572 
L 258.594261 356.250523 
L 270.430625 349.771631 
L 282.266989 344.755714 
L 294.103352 353.951561 
L 305.939716 344.546717 
L 317.77608 315.914191 
L 329.612443 323.647063 
L 341.448807 295.014537 
L 353.28517 273.487894 
L 365.121534 271.815921 
L 376.957898 230.852599 
L 388.794261 249.035298 
L 400.630625 267.844987 
L 412.466989 246.736337 
L 424.303352 234.614537 
L 436.139716 216.431838 
L 447.97608 217.267824 
L 459.812443 222.701734 
L 471.648807 244.855368 
L 483.48517 249.244295 
L 495.321534 206.817997 
L 507.157898 172.751561 
L 518.994261 152.060904 
L 530.830625 162.719728 
" style="fill:none;stroke:#08306b;stroke-linecap:square;stroke-width:1.5;"/>
   </g>
   <g id="line2d_23">
    <path clip-path="url(#p8ee57cb4ed)" d="M 140.230625 431.907271 
L 152.066989 427.72734 
L 163.903352 423.547409 
L 175.739716 421.457444 
L 187.57608 413.097582 
L 199.412443 388.43599 
L 211.248807 389.06298 
L 223.08517 388.853984 
L 234.921534 386.137029 
L 246.757898 359.594468 
L 258.594261 353.324572 
L 270.430625 356.877513 
L 282.266989 348.099658 
L 294.103352 349.980627 
L 305.939716 329.916959 
L 317.77608 328.66298 
L 329.612443 321.557098 
L 341.448807 310.271285 
L 353.28517 300.239451 
L 365.121534 278.712807 
L 376.957898 305.046371 
L 388.794261 252.170247 
L 400.630625 231.270593 
L 412.466989 229.59862 
L 424.303352 222.074745 
L 436.139716 222.283741 
L 447.97608 194.069208 
L 459.812443 170.243603 
L 471.648807 174.005541 
L 483.48517 172.542565 
L 495.321534 141.611077 
L 507.157898 146.626994 
L 518.994261 131.16125 
L 530.830625 103.573707 
" style="fill:none;stroke:#08306b;stroke-linecap:square;stroke-width:1.5;"/>
   </g>
   <g id="line2d_24">
    <path clip-path="url(#p8ee57cb4ed)" d="M 140.230625 433.16125 
L 152.066989 432.116267 
L 163.903352 424.174399 
L 175.739716 421.66644 
L 187.57608 421.248447 
L 199.412443 407.872669 
L 211.248807 375.896198 
L 223.08517 362.52042 
L 234.921534 359.594468 
L 246.757898 346.845679 
L 258.594261 310.271285 
L 270.430625 335.768862 
L 282.266989 335.350869 
L 294.103352 325.319035 
L 305.939716 313.197236 
L 317.77608 312.98824 
L 329.612443 315.496198 
L 341.448807 309.435298 
L 353.28517 305.464364 
L 365.121534 294.805541 
L 376.957898 240.257444 
L 388.794261 246.109347 
L 400.630625 221.029762 
L 412.466989 242.347409 
L 424.303352 247.990316 
L 436.139716 257.604157 
L 447.97608 268.680973 
L 459.812443 241.929416 
L 471.648807 203.05606 
L 483.48517 156.658828 
L 495.321534 143.283049 
L 507.157898 145.791008 
L 518.994261 192.397236 
L 530.830625 221.029762 
" style="fill:none;stroke:#08306b;stroke-linecap:square;stroke-width:1.5;"/>
   </g>
   <g id="line2d_25">
    <path clip-path="url(#p8ee57cb4ed)" d="M 140.230625 433.16125 
L 152.066989 432.743257 
L 163.903352 429.608309 
L 175.739716 418.949485 
L 187.57608 412.679589 
L 199.412443 417.904503 
L 211.248807 412.888586 
L 223.08517 413.724572 
L 234.921534 405.155714 
L 246.757898 402.647755 
L 258.594261 399.303811 
L 270.430625 400.348793 
L 282.266989 392.406925 
L 294.103352 393.869901 
L 305.939716 374.851215 
L 317.77608 364.610385 
L 329.612443 362.311423 
L 341.448807 361.057444 
L 353.28517 375.687202 
L 365.121534 376.732184 
L 376.957898 357.713499 
L 388.794261 357.713499 
L 400.630625 349.980627 
L 412.466989 340.575783 
L 424.303352 333.678897 
L 436.139716 358.340489 
L 447.97608 348.935644 
L 459.812443 352.697582 
L 471.648807 330.334952 
L 483.48517 341.829762 
L 495.321534 335.768862 
L 507.157898 329.916959 
L 518.994261 333.051907 
L 530.830625 365.446371 
" style="fill:none;stroke:#4a98c9;stroke-linecap:square;stroke-width:1.5;"/>
   </g>
   <g id="line2d_26">
    <path clip-path="url(#p8ee57cb4ed)" d="M 140.230625 432.952253 
L 152.066989 429.817305 
L 163.903352 425.428378 
L 175.739716 426.682357 
L 187.57608 417.48651 
L 199.412443 415.187548 
L 211.248807 416.23253 
L 223.08517 412.261596 
L 234.921534 417.695506 
L 246.757898 421.039451 
L 258.594261 419.576475 
L 270.430625 401.184779 
L 282.266989 376.314191 
L 294.103352 375.478205 
L 305.939716 350.607617 
L 317.77608 360.639451 
L 329.612443 380.494122 
L 341.448807 377.777167 
L 353.28517 374.433222 
L 365.121534 370.671285 
L 376.957898 381.539105 
L 388.794261 375.896198 
L 400.630625 356.041527 
L 412.466989 351.861596 
L 424.303352 342.247755 
L 436.139716 340.15779 
L 447.97608 348.935644 
L 459.812443 350.39862 
L 471.648807 328.66298 
L 483.48517 325.528032 
L 495.321534 306.509347 
L 507.157898 299.612461 
L 518.994261 302.329416 
L 530.830625 351.234606 
" style="fill:none;stroke:#4a98c9;stroke-linecap:square;stroke-width:1.5;"/>
   </g>
   <g id="line2d_27">
    <path clip-path="url(#p8ee57cb4ed)" d="M 140.230625 433.16125 
L 152.066989 432.952253 
L 163.903352 431.698274 
L 175.739716 425.010385 
L 187.57608 419.994468 
L 199.412443 409.126648 
L 211.248807 410.79862 
L 223.08517 395.12388 
L 234.921534 399.303811 
L 246.757898 400.766786 
L 258.594261 392.824918 
L 270.430625 394.705887 
L 282.266989 387.809001 
L 294.103352 390.316959 
L 305.939716 386.346025 
L 317.77608 387.182011 
L 329.612443 373.38824 
L 341.448807 374.433222 
L 353.28517 367.536337 
L 365.121534 360.848447 
L 376.957898 370.880281 
L 388.794261 374.642219 
L 400.630625 353.742565 
L 412.466989 343.919728 
L 424.303352 357.08651 
L 436.139716 337.440835 
L 447.97608 335.141873 
L 459.812443 334.09689 
L 471.648807 327.826994 
L 483.48517 328.244987 
L 495.321534 320.930108 
L 507.157898 315.287202 
L 518.994261 320.303119 
L 530.830625 358.131492 
" style="fill:none;stroke:#4a98c9;stroke-linecap:square;stroke-width:1.5;"/>
   </g>
   <g id="line2d_28">
    <path clip-path="url(#p8ee57cb4ed)" d="M 140.230625 433.16125 
L 152.066989 431.698274 
L 163.903352 427.72734 
L 175.739716 419.367478 
L 187.57608 402.438759 
L 199.412443 403.065748 
L 211.248807 398.467824 
L 223.08517 396.168862 
L 234.921534 401.393776 
L 246.757898 399.9308 
L 258.594261 403.692738 
L 270.430625 390.525956 
L 282.266989 388.853984 
L 294.103352 388.017997 
L 305.939716 393.033914 
L 317.77608 394.914883 
L 329.612443 380.076129 
L 341.448807 365.028378 
L 353.28517 359.594468 
L 365.121534 358.549485 
L 376.957898 349.980627 
L 388.794261 344.546717 
L 400.630625 343.919728 
L 412.466989 324.692046 
L 424.303352 317.586163 
L 436.139716 315.705195 
L 447.97608 317.79516 
L 459.812443 326.573015 
L 471.648807 344.546717 
L 483.48517 339.948793 
L 495.321534 330.334952 
L 507.157898 328.453984 
L 518.994261 329.916959 
L 530.830625 355.414537 
" style="fill:none;stroke:#4a98c9;stroke-linecap:square;stroke-width:1.5;"/>
   </g>
   <g id="line2d_29">
    <path clip-path="url(#p8ee57cb4ed)" d="M 140.230625 432.952253 
L 152.066989 428.563326 
L 163.903352 423.129416 
L 175.739716 421.039451 
L 187.57608 416.85952 
L 199.412443 408.708655 
L 211.248807 412.888586 
L 223.08517 419.158482 
L 234.921534 414.769554 
L 246.757898 412.888586 
L 258.594261 401.602772 
L 270.430625 396.377859 
L 282.266989 394.49689 
L 294.103352 381.330108 
L 305.939716 368.163326 
L 317.77608 358.758482 
L 329.612443 357.504503 
L 341.448807 345.173707 
L 353.28517 348.726648 
L 365.121534 358.549485 
L 376.957898 385.301042 
L 388.794261 374.433222 
L 400.630625 379.240143 
L 412.466989 362.52042 
L 424.303352 351.861596 
L 436.139716 353.533568 
L 447.97608 316.123188 
L 459.812443 310.689278 
L 471.648807 297.940489 
L 483.48517 323.22907 
L 495.321534 301.911423 
L 507.157898 310.480281 
L 518.994261 335.350869 
L 530.830625 368.999312 
" style="fill:none;stroke:#4a98c9;stroke-linecap:square;stroke-width:1.5;"/>
   </g>
   <g id="line2d_30">
    <path clip-path="url(#p8ee57cb4ed)" d="M 140.230625 433.16125 
L 152.066989 431.907271 
L 163.903352 426.682357 
L 175.739716 425.010385 
L 187.57608 428.35433 
L 199.412443 424.383395 
L 211.248807 419.367478 
L 223.08517 422.711423 
L 234.921534 408.499658 
L 246.757898 408.290662 
L 258.594261 396.795852 
L 270.430625 403.065748 
L 282.266989 397.840835 
L 294.103352 386.555022 
L 305.939716 371.716267 
L 317.77608 356.668516 
L 329.612443 348.099658 
L 341.448807 342.038759 
L 353.28517 339.948793 
L 365.121534 335.559866 
L 376.957898 326.991008 
L 388.794261 325.110039 
L 400.630625 333.678897 
L 412.466989 346.845679 
L 424.303352 364.192392 
L 436.139716 363.565402 
L 447.97608 375.896198 
L 459.812443 360.221458 
L 471.648807 363.774399 
L 483.48517 347.263672 
L 495.321534 307.972323 
L 507.157898 251.543257 
L 518.994261 241.929416 
L 530.830625 268.88997 
" style="fill:none;stroke:#4a98c9;stroke-linecap:square;stroke-width:1.5;"/>
   </g>
   <g id="line2d_31">
    <path clip-path="url(#p8ee57cb4ed)" d="M 140.230625 433.16125 
L 152.066989 430.862288 
L 163.903352 429.817305 
L 175.739716 429.817305 
L 187.57608 422.502426 
L 199.412443 413.306579 
L 211.248807 409.962634 
L 223.08517 412.052599 
L 234.921534 408.499658 
L 246.757898 397.004849 
L 258.594261 392.197928 
L 270.430625 393.033914 
L 282.266989 389.271977 
L 294.103352 386.346025 
L 305.939716 385.928032 
L 317.77608 372.13426 
L 329.612443 365.237375 
L 341.448807 359.385471 
L 353.28517 368.372323 
L 365.121534 372.552253 
L 376.957898 353.115575 
L 388.794261 346.845679 
L 400.630625 340.993776 
L 412.466989 338.276821 
L 424.303352 347.263672 
L 436.139716 342.874745 
L 447.97608 345.173707 
L 459.812443 332.842911 
L 471.648807 334.305887 
L 483.48517 337.231838 
L 495.321534 335.768862 
L 507.157898 312.779243 
L 518.994261 307.136337 
L 530.830625 345.382703 
" style="fill:none;stroke:#4a98c9;stroke-linecap:square;stroke-width:1.5;"/>
   </g>
   <g id="line2d_32">
    <path clip-path="url(#p8ee57cb4ed)" d="M 140.230625 432.952253 
L 152.066989 429.608309 
L 163.903352 426.264364 
L 175.739716 424.801388 
L 187.57608 415.814537 
L 199.412443 404.110731 
L 211.248807 396.168862 
L 223.08517 395.750869 
L 234.921534 402.647755 
L 246.757898 385.719035 
L 258.594261 387.600004 
L 270.430625 384.465056 
L 282.266989 388.017997 
L 294.103352 378.82215 
L 305.939716 381.121112 
L 317.77608 378.82215 
L 329.612443 376.941181 
L 341.448807 346.218689 
L 353.28517 338.485817 
L 365.121534 317.16817 
L 376.957898 316.541181 
L 388.794261 319.885125 
L 400.630625 336.813845 
L 412.466989 342.874745 
L 424.303352 327.617997 
L 436.139716 331.379935 
L 447.97608 336.395852 
L 459.812443 356.041527 
L 471.648807 354.160558 
L 483.48517 335.350869 
L 495.321534 312.570247 
L 507.157898 313.824226 
L 518.994261 321.975091 
L 530.830625 340.575783 
" style="fill:none;stroke:#4a98c9;stroke-linecap:square;stroke-width:1.5;"/>
   </g>
   <g id="line2d_33">
    <path clip-path="url(#p8ee57cb4ed)" d="M 140.230625 432.743257 
L 152.066989 431.280281 
L 163.903352 430.444295 
L 175.739716 430.444295 
L 187.57608 426.682357 
L 199.412443 420.830454 
L 211.248807 418.740489 
L 223.08517 415.396544 
L 234.921534 406.618689 
L 246.757898 403.274745 
L 258.594261 386.137029 
L 270.430625 397.213845 
L 282.266989 397.631838 
L 294.103352 384.25606 
L 305.939716 373.806233 
L 317.77608 385.928032 
L 329.612443 377.777167 
L 341.448807 379.867132 
L 353.28517 364.610385 
L 365.121534 361.057444 
L 376.957898 345.382703 
L 388.794261 345.382703 
L 400.630625 321.139105 
L 412.466989 340.366786 
L 424.303352 317.377167 
L 436.139716 326.782011 
L 447.97608 329.916959 
L 459.812443 329.916959 
L 471.648807 317.16817 
L 483.48517 318.631146 
L 495.321534 295.43253 
L 507.157898 273.905887 
L 518.994261 254.887202 
L 530.830625 298.985471 
" style="fill:none;stroke:#4a98c9;stroke-linecap:square;stroke-width:1.5;"/>
   </g>
   <g id="line2d_34">
    <path clip-path="url(#p8ee57cb4ed)" d="M 140.230625 433.16125 
L 152.066989 433.16125 
L 163.903352 433.16125 
L 175.739716 430.235298 
L 187.57608 426.891354 
L 199.412443 424.801388 
L 211.248807 408.708655 
L 223.08517 405.782703 
L 234.921534 402.020766 
L 246.757898 396.377859 
L 258.594261 392.197928 
L 270.430625 389.898966 
L 282.266989 385.719035 
L 294.103352 384.25606 
L 305.939716 372.76125 
L 317.77608 373.597236 
L 329.612443 384.465056 
L 341.448807 381.330108 
L 353.28517 381.748101 
L 365.121534 366.491354 
L 376.957898 361.684433 
L 388.794261 346.009693 
L 400.630625 341.411769 
L 412.466989 335.350869 
L 424.303352 330.543949 
L 436.139716 344.96471 
L 447.97608 334.305887 
L 459.812443 323.22907 
L 471.648807 305.882357 
L 483.48517 299.194468 
L 495.321534 303.374399 
L 507.157898 287.281665 
L 518.994261 300.86644 
L 530.830625 330.752946 
" style="fill:none;stroke:#4a98c9;stroke-linecap:square;stroke-width:1.5;"/>
   </g>
   <g id="line2d_35">
    <path clip-path="url(#p8ee57cb4ed)" d="M 140.230625 431.698274 
L 152.066989 432.952253 
L 163.903352 430.862288 
L 175.739716 428.981319 
L 187.57608 423.338413 
L 199.412443 416.85952 
L 211.248807 413.097582 
L 223.08517 407.872669 
L 234.921534 409.335644 
L 246.757898 410.171631 
L 258.594261 412.888586 
L 270.430625 412.052599 
L 282.266989 402.856752 
L 294.103352 404.110731 
L 305.939716 393.451907 
L 317.77608 389.480973 
L 329.612443 386.764018 
L 341.448807 393.033914 
L 353.28517 382.375091 
L 365.121534 381.330108 
L 376.957898 382.166094 
L 388.794261 381.330108 
L 400.630625 379.658136 
L 412.466989 372.343257 
L 424.303352 359.594468 
L 436.139716 367.745333 
L 447.97608 360.639451 
L 459.812443 359.385471 
L 471.648807 358.340489 
L 483.48517 365.446371 
L 495.321534 353.115575 
L 507.157898 364.819381 
L 518.994261 383.00208 
L 530.830625 383.838067 
" style="fill:none;stroke:#d0e1f2;stroke-linecap:square;stroke-width:1.5;"/>
   </g>
   <g id="line2d_36">
    <path clip-path="url(#p8ee57cb4ed)" d="M 140.230625 433.16125 
L 152.066989 431.489278 
L 163.903352 429.608309 
L 175.739716 425.637375 
L 187.57608 423.756406 
L 199.412443 422.711423 
L 211.248807 423.756406 
L 223.08517 419.785471 
L 234.921534 419.994468 
L 246.757898 421.875437 
L 258.594261 418.740489 
L 270.430625 405.9917 
L 282.266989 390.107963 
L 294.103352 389.06298 
L 305.939716 379.031146 
L 317.77608 387.391008 
L 329.612443 383.838067 
L 341.448807 391.152946 
L 353.28517 403.065748 
L 365.121534 389.480973 
L 376.957898 384.465056 
L 388.794261 380.494122 
L 400.630625 374.851215 
L 412.466989 379.449139 
L 424.303352 372.13426 
L 436.139716 371.507271 
L 447.97608 366.282357 
L 459.812443 376.523188 
L 471.648807 371.298274 
L 483.48517 371.925264 
L 495.321534 353.324572 
L 507.157898 357.504503 
L 518.994261 371.089278 
L 530.830625 398.049831 
" style="fill:none;stroke:#d0e1f2;stroke-linecap:square;stroke-width:1.5;"/>
   </g>
   <g id="line2d_37">
    <path clip-path="url(#p8ee57cb4ed)" d="M 140.230625 433.16125 
L 152.066989 432.325264 
L 163.903352 428.772323 
L 175.739716 428.563326 
L 187.57608 423.338413 
L 199.412443 421.248447 
L 211.248807 420.203465 
L 223.08517 413.515575 
L 234.921534 415.605541 
L 246.757898 409.335644 
L 258.594261 402.020766 
L 270.430625 400.55779 
L 282.266989 392.406925 
L 294.103352 400.766786 
L 305.939716 395.12388 
L 317.77608 399.303811 
L 329.612443 395.750869 
L 341.448807 395.541873 
L 353.28517 390.525956 
L 365.121534 388.43599 
L 376.957898 380.076129 
L 388.794261 388.644987 
L 400.630625 383.420074 
L 412.466989 387.182011 
L 424.303352 377.359174 
L 436.139716 377.359174 
L 447.97608 370.671285 
L 459.812443 354.160558 
L 471.648807 349.144641 
L 483.48517 348.308655 
L 495.321534 336.813845 
L 507.157898 334.932876 
L 518.994261 355.83253 
L 530.830625 384.047063 
" style="fill:none;stroke:#d0e1f2;stroke-linecap:square;stroke-width:1.5;"/>
   </g>
   <g id="line2d_38">
    <path clip-path="url(#p8ee57cb4ed)" d="M 140.230625 432.952253 
L 152.066989 430.444295 
L 163.903352 428.35433 
L 175.739716 428.35433 
L 187.57608 422.084433 
L 199.412443 416.441527 
L 211.248807 416.23253 
L 223.08517 411.216613 
L 234.921534 405.782703 
L 246.757898 412.679589 
L 258.594261 408.081665 
L 270.430625 415.396544 
L 282.266989 415.605541 
L 294.103352 401.393776 
L 305.939716 390.943949 
L 317.77608 392.824918 
L 329.612443 381.121112 
L 341.448807 383.420074 
L 353.28517 379.240143 
L 365.121534 381.748101 
L 376.957898 377.986163 
L 388.794261 372.552253 
L 400.630625 381.957098 
L 412.466989 366.70035 
L 424.303352 369.626302 
L 436.139716 369.208309 
L 447.97608 366.073361 
L 459.812443 375.687202 
L 471.648807 365.655368 
L 483.48517 354.369554 
L 495.321534 344.755714 
L 507.157898 348.935644 
L 518.994261 357.713499 
L 530.830625 387.600004 
" style="fill:none;stroke:#d0e1f2;stroke-linecap:square;stroke-width:1.5;"/>
   </g>
   <g id="line2d_39">
    <path clip-path="url(#p8ee57cb4ed)" d="M 140.230625 432.743257 
L 152.066989 432.116267 
L 163.903352 426.682357 
L 175.739716 422.711423 
L 187.57608 425.637375 
L 199.412443 423.338413 
L 211.248807 419.576475 
L 223.08517 422.084433 
L 234.921534 419.158482 
L 246.757898 415.605541 
L 258.594261 415.814537 
L 270.430625 410.171631 
L 282.266989 409.126648 
L 294.103352 397.004849 
L 305.939716 395.12388 
L 317.77608 388.017997 
L 329.612443 369.835298 
L 341.448807 375.060212 
L 353.28517 369.417305 
L 365.121534 375.687202 
L 376.957898 383.420074 
L 388.794261 387.182011 
L 400.630625 395.750869 
L 412.466989 395.541873 
L 424.303352 385.301042 
L 436.139716 380.076129 
L 447.97608 364.610385 
L 459.812443 357.504503 
L 471.648807 351.652599 
L 483.48517 351.234606 
L 495.321534 343.501734 
L 507.157898 337.022842 
L 518.994261 357.295506 
L 530.830625 394.287894 
" style="fill:none;stroke:#d0e1f2;stroke-linecap:square;stroke-width:1.5;"/>
   </g>
   <g id="line2d_40">
    <path clip-path="url(#p8ee57cb4ed)" d="M 140.230625 432.952253 
L 152.066989 432.116267 
L 163.903352 429.399312 
L 175.739716 426.473361 
L 187.57608 428.563326 
L 199.412443 427.936337 
L 211.248807 423.547409 
L 223.08517 427.936337 
L 234.921534 423.965402 
L 246.757898 416.441527 
L 258.594261 409.753638 
L 270.430625 403.065748 
L 282.266989 405.155714 
L 294.103352 402.438759 
L 305.939716 398.885817 
L 317.77608 393.660904 
L 329.612443 370.671285 
L 341.448807 372.552253 
L 353.28517 378.404157 
L 365.121534 379.867132 
L 376.957898 371.507271 
L 388.794261 377.150177 
L 400.630625 376.732184 
L 412.466989 383.00208 
L 424.303352 363.565402 
L 436.139716 368.372323 
L 447.97608 371.507271 
L 459.812443 371.507271 
L 471.648807 374.015229 
L 483.48517 379.449139 
L 495.321534 354.578551 
L 507.157898 316.332184 
L 518.994261 330.961942 
L 530.830625 362.52042 
" style="fill:none;stroke:#d0e1f2;stroke-linecap:square;stroke-width:1.5;"/>
   </g>
   <g id="line2d_41">
    <path clip-path="url(#p8ee57cb4ed)" d="M 140.230625 433.16125 
L 152.066989 432.743257 
L 163.903352 429.817305 
L 175.739716 428.981319 
L 187.57608 426.264364 
L 199.412443 423.965402 
L 211.248807 414.560558 
L 223.08517 419.158482 
L 234.921534 418.113499 
L 246.757898 412.679589 
L 258.594261 400.348793 
L 270.430625 393.451907 
L 282.266989 386.764018 
L 294.103352 382.793084 
L 305.939716 392.406925 
L 317.77608 398.049831 
L 329.612443 405.573707 
L 341.448807 396.168862 
L 353.28517 383.00208 
L 365.121534 379.449139 
L 376.957898 392.406925 
L 388.794261 367.118343 
L 400.630625 376.941181 
L 412.466989 359.594468 
L 424.303352 363.774399 
L 436.139716 367.536337 
L 447.97608 368.581319 
L 459.812443 370.044295 
L 471.648807 365.446371 
L 483.48517 368.581319 
L 495.321534 355.414537 
L 507.157898 360.639451 
L 518.994261 360.221458 
L 530.830625 388.017997 
" style="fill:none;stroke:#d0e1f2;stroke-linecap:square;stroke-width:1.5;"/>
   </g>
   <g id="line2d_42">
    <path clip-path="url(#p8ee57cb4ed)" d="M 140.230625 432.952253 
L 152.066989 431.489278 
L 163.903352 427.936337 
L 175.739716 423.965402 
L 187.57608 417.904503 
L 199.412443 419.367478 
L 211.248807 411.216613 
L 223.08517 406.200696 
L 234.921534 400.55779 
L 246.757898 407.454676 
L 258.594261 400.766786 
L 270.430625 398.885817 
L 282.266989 403.901734 
L 294.103352 403.065748 
L 305.939716 399.9308 
L 317.77608 402.229762 
L 329.612443 392.615921 
L 341.448807 388.853984 
L 353.28517 385.719035 
L 365.121534 385.092046 
L 376.957898 370.462288 
L 388.794261 378.404157 
L 400.630625 389.06298 
L 412.466989 381.121112 
L 424.303352 370.462288 
L 436.139716 370.880281 
L 447.97608 360.430454 
L 459.812443 371.298274 
L 471.648807 381.957098 
L 483.48517 375.060212 
L 495.321534 367.118343 
L 507.157898 354.369554 
L 518.994261 366.073361 
L 530.830625 389.898966 
" style="fill:none;stroke:#d0e1f2;stroke-linecap:square;stroke-width:1.5;"/>
   </g>
   <g id="line2d_43">
    <path clip-path="url(#p8ee57cb4ed)" d="M 140.230625 433.16125 
L 152.066989 433.16125 
L 163.903352 430.026302 
L 175.739716 430.862288 
L 187.57608 426.473361 
L 199.412443 425.637375 
L 211.248807 424.383395 
L 223.08517 418.322496 
L 234.921534 409.126648 
L 246.757898 411.634606 
L 258.594261 406.618689 
L 270.430625 401.602772 
L 282.266989 395.541873 
L 294.103352 398.885817 
L 305.939716 400.139797 
L 317.77608 392.615921 
L 329.612443 390.107963 
L 341.448807 392.824918 
L 353.28517 387.809001 
L 365.121534 380.494122 
L 376.957898 389.898966 
L 388.794261 374.224226 
L 400.630625 374.851215 
L 412.466989 373.597236 
L 424.303352 375.687202 
L 436.139716 372.343257 
L 447.97608 364.819381 
L 459.812443 371.089278 
L 471.648807 371.507271 
L 483.48517 371.507271 
L 495.321534 353.951561 
L 507.157898 342.247755 
L 518.994261 353.742565 
L 530.830625 377.986163 
" style="fill:none;stroke:#d0e1f2;stroke-linecap:square;stroke-width:1.5;"/>
   </g>
   <g id="line2d_44">
    <path clip-path="url(#p8ee57cb4ed)" d="M 140.230625 433.16125 
L 152.066989 432.952253 
L 163.903352 430.653292 
L 175.739716 431.071285 
L 187.57608 429.608309 
L 199.412443 425.637375 
L 211.248807 418.531492 
L 223.08517 406.827686 
L 234.921534 403.274745 
L 246.757898 402.229762 
L 258.594261 399.721804 
L 270.430625 400.975783 
L 282.266989 407.663672 
L 294.103352 399.512807 
L 305.939716 395.541873 
L 317.77608 400.766786 
L 329.612443 399.303811 
L 341.448807 402.647755 
L 353.28517 392.824918 
L 365.121534 385.092046 
L 376.957898 390.943949 
L 388.794261 370.253292 
L 400.630625 370.462288 
L 412.466989 372.552253 
L 424.303352 369.208309 
L 436.139716 378.613153 
L 447.97608 374.224226 
L 459.812443 375.478205 
L 471.648807 363.983395 
L 483.48517 350.607617 
L 495.321534 349.353638 
L 507.157898 354.578551 
L 518.994261 369.417305 
L 530.830625 392.197928 
" style="fill:none;stroke:#d0e1f2;stroke-linecap:square;stroke-width:1.5;"/>
   </g>
   <g id="line2d_45">
    <path clip-path="url(#p8ee57cb4ed)" d="M 140.230625 433.16125 
L 152.066989 432.952253 
L 163.903352 423.965402 
L 175.739716 416.23253 
L 187.57608 406.409693 
L 199.412443 397.422842 
L 211.248807 394.914883 
L 223.08517 390.107963 
L 234.921534 379.449139 
L 246.757898 395.332876 
L 258.594261 401.393776 
L 270.430625 388.017997 
L 282.266989 372.13426 
L 294.103352 364.610385 
L 305.939716 336.813845 
L 317.77608 309.226302 
L 329.612443 324.692046 
L 341.448807 330.334952 
L 353.28517 317.586163 
L 365.121534 318.42215 
L 376.957898 302.747409 
L 388.794261 283.937721 
L 400.630625 297.731492 
L 412.466989 286.445679 
L 424.303352 287.072669 
L 436.139716 274.532876 
L 447.97608 276.622842 
L 459.812443 269.516959 
L 471.648807 246.52734 
L 483.48517 249.662288 
L 495.321534 251.752253 
L 507.157898 230.22561 
L 518.994261 260.112115 
L 530.830625 288.326648 
" style="fill:none;stroke:#1764ab;stroke-linecap:square;stroke-width:1.5;"/>
   </g>
   <g id="line2d_46">
    <path clip-path="url(#p8ee57cb4ed)" d="M 140.230625 433.16125 
L 152.066989 429.190316 
L 163.903352 418.531492 
L 175.739716 411.42561 
L 187.57608 411.42561 
L 199.412443 410.79862 
L 211.248807 401.393776 
L 223.08517 395.332876 
L 234.921534 400.766786 
L 246.757898 404.737721 
L 258.594261 386.346025 
L 270.430625 368.999312 
L 282.266989 333.260904 
L 294.103352 321.557098 
L 305.939716 310.062288 
L 317.77608 307.136337 
L 329.612443 301.075437 
L 341.448807 318.004157 
L 353.28517 291.043603 
L 365.121534 298.776475 
L 376.957898 321.766094 
L 388.794261 320.512115 
L 400.630625 295.014537 
L 412.466989 269.516959 
L 424.303352 277.458828 
L 436.139716 278.712807 
L 447.97608 279.339797 
L 459.812443 284.146717 
L 471.648807 280.384779 
L 483.48517 289.99862 
L 495.321534 267.426994 
L 507.157898 248.199312 
L 518.994261 229.807617 
L 530.830625 292.088586 
" style="fill:none;stroke:#1764ab;stroke-linecap:square;stroke-width:1.5;"/>
   </g>
   <g id="line2d_47">
    <path clip-path="url(#p8ee57cb4ed)" d="M 140.230625 432.952253 
L 152.066989 430.026302 
L 163.903352 427.10035 
L 175.739716 420.621458 
L 187.57608 417.695506 
L 199.412443 406.827686 
L 211.248807 401.393776 
L 223.08517 401.811769 
L 234.921534 374.433222 
L 246.757898 353.115575 
L 258.594261 349.353638 
L 270.430625 349.353638 
L 282.266989 350.189624 
L 294.103352 350.189624 
L 305.939716 345.800696 
L 317.77608 341.411769 
L 329.612443 318.840143 
L 341.448807 324.483049 
L 353.28517 323.020074 
L 365.121534 324.483049 
L 376.957898 304.628378 
L 388.794261 287.699658 
L 400.630625 299.403465 
L 412.466989 290.207617 
L 424.303352 289.789624 
L 436.139716 317.377167 
L 447.97608 269.725956 
L 459.812443 248.199312 
L 471.648807 244.019381 
L 483.48517 218.312807 
L 495.321534 219.984779 
L 507.157898 177.976475 
L 518.994261 195.323188 
L 530.830625 245.482357 
" style="fill:none;stroke:#1764ab;stroke-linecap:square;stroke-width:1.5;"/>
   </g>
   <g id="line2d_48">
    <path clip-path="url(#p8ee57cb4ed)" d="M 140.230625 433.16125 
L 152.066989 431.280281 
L 163.903352 427.72734 
L 175.739716 415.396544 
L 187.57608 400.139797 
L 199.412443 385.719035 
L 211.248807 382.584087 
L 223.08517 379.658136 
L 234.921534 381.121112 
L 246.757898 386.764018 
L 258.594261 389.271977 
L 270.430625 386.973015 
L 282.266989 382.584087 
L 294.103352 357.504503 
L 305.939716 346.636683 
L 317.77608 315.496198 
L 329.612443 295.641527 
L 341.448807 288.326648 
L 353.28517 320.721112 
L 365.121534 300.030454 
L 376.957898 274.32388 
L 388.794261 269.307963 
L 400.630625 253.424226 
L 412.466989 228.553638 
L 424.303352 249.662288 
L 436.139716 256.977167 
L 447.97608 263.45606 
L 459.812443 248.199312 
L 471.648807 257.813153 
L 483.48517 244.228378 
L 495.321534 249.244295 
L 507.157898 241.511423 
L 518.994261 217.685817 
L 530.830625 241.929416 
" style="fill:none;stroke:#1764ab;stroke-linecap:square;stroke-width:1.5;"/>
   </g>
   <g id="line2d_49">
    <path clip-path="url(#p8ee57cb4ed)" d="M 140.230625 431.489278 
L 152.066989 422.29343 
L 163.903352 408.499658 
L 175.739716 406.618689 
L 187.57608 397.840835 
L 199.412443 400.766786 
L 211.248807 398.676821 
L 223.08517 404.946717 
L 234.921534 399.512807 
L 246.757898 400.766786 
L 258.594261 400.55779 
L 270.430625 380.285125 
L 282.266989 370.880281 
L 294.103352 362.52042 
L 305.939716 350.607617 
L 317.77608 329.28997 
L 329.612443 293.133568 
L 341.448807 285.1917 
L 353.28517 302.538413 
L 365.121534 298.358482 
L 376.957898 318.840143 
L 388.794261 320.930108 
L 400.630625 328.66298 
L 412.466989 332.006925 
L 424.303352 305.464364 
L 436.139716 258.440143 
L 447.97608 230.016613 
L 459.812443 251.752253 
L 471.648807 243.810385 
L 483.48517 231.270593 
L 495.321534 191.979243 
L 507.157898 164.182703 
L 518.994261 182.365402 
L 530.830625 234.614537 
" style="fill:none;stroke:#1764ab;stroke-linecap:square;stroke-width:1.5;"/>
   </g>
   <g id="line2d_50">
    <path clip-path="url(#p8ee57cb4ed)" d="M 140.230625 431.698274 
L 152.066989 428.145333 
L 163.903352 416.23253 
L 175.739716 409.962634 
L 187.57608 408.917651 
L 199.412443 400.55779 
L 211.248807 406.618689 
L 223.08517 412.261596 
L 234.921534 407.245679 
L 246.757898 399.9308 
L 258.594261 388.226994 
L 270.430625 366.073361 
L 282.266989 351.234606 
L 294.103352 333.887894 
L 305.939716 324.274053 
L 317.77608 307.972323 
L 329.612443 293.133568 
L 341.448807 308.181319 
L 353.28517 315.078205 
L 365.121534 303.583395 
L 376.957898 305.673361 
L 388.794261 286.236683 
L 400.630625 282.265748 
L 412.466989 287.699658 
L 424.303352 287.908655 
L 436.139716 304.210385 
L 447.97608 279.966786 
L 459.812443 297.731492 
L 471.648807 276.622842 
L 483.48517 289.371631 
L 495.321534 235.65952 
L 507.157898 170.452599 
L 518.994261 154.359866 
L 530.830625 200.757098 
" style="fill:none;stroke:#1764ab;stroke-linecap:square;stroke-width:1.5;"/>
   </g>
   <g id="line2d_51">
    <path clip-path="url(#p8ee57cb4ed)" d="M 140.230625 433.16125 
L 152.066989 430.653292 
L 163.903352 427.72734 
L 175.739716 421.457444 
L 187.57608 413.515575 
L 199.412443 410.380627 
L 211.248807 400.55779 
L 223.08517 395.332876 
L 234.921534 391.361942 
L 246.757898 369.626302 
L 258.594261 360.430454 
L 270.430625 353.115575 
L 282.266989 345.382703 
L 294.103352 347.890662 
L 305.939716 366.70035 
L 317.77608 354.160558 
L 329.612443 335.977859 
L 341.448807 322.184087 
L 353.28517 282.474745 
L 365.121534 270.770939 
L 376.957898 280.175783 
L 388.794261 255.932184 
L 400.630625 254.887202 
L 412.466989 259.694122 
L 424.303352 258.649139 
L 436.139716 225.418689 
L 447.97608 256.559174 
L 459.812443 268.88997 
L 471.648807 250.498274 
L 483.48517 265.964018 
L 495.321534 210.370939 
L 507.157898 202.220074 
L 518.994261 163.973707 
L 530.830625 173.169554 
" style="fill:none;stroke:#1764ab;stroke-linecap:square;stroke-width:1.5;"/>
   </g>
   <g id="line2d_52">
    <path clip-path="url(#p8ee57cb4ed)" d="M 140.230625 432.743257 
L 152.066989 428.981319 
L 163.903352 420.830454 
L 175.739716 405.573707 
L 187.57608 402.647755 
L 199.412443 388.43599 
L 211.248807 385.928032 
L 223.08517 365.446371 
L 234.921534 366.491354 
L 246.757898 367.536337 
L 258.594261 354.996544 
L 270.430625 339.739797 
L 282.266989 340.784779 
L 294.103352 356.250523 
L 305.939716 343.710731 
L 317.77608 347.054676 
L 329.612443 352.279589 
L 341.448807 331.588932 
L 353.28517 313.197236 
L 365.121534 301.911423 
L 376.957898 288.953638 
L 388.794261 310.480281 
L 400.630625 309.853292 
L 412.466989 299.821458 
L 424.303352 274.741873 
L 436.139716 262.620074 
L 447.97608 243.392392 
L 459.812443 266.591008 
L 471.648807 252.170247 
L 483.48517 267.217997 
L 495.321534 247.990316 
L 507.157898 245.064364 
L 518.994261 226.045679 
L 530.830625 248.617305 
" style="fill:none;stroke:#1764ab;stroke-linecap:square;stroke-width:1.5;"/>
   </g>
   <g id="line2d_53">
    <path clip-path="url(#p8ee57cb4ed)" d="M 140.230625 432.325264 
L 152.066989 430.444295 
L 163.903352 431.071285 
L 175.739716 430.235298 
L 187.57608 424.801388 
L 199.412443 420.412461 
L 211.248807 417.904503 
L 223.08517 405.9917 
L 234.921534 393.869901 
L 246.757898 400.766786 
L 258.594261 383.00208 
L 270.430625 378.19516 
L 282.266989 379.449139 
L 294.103352 369.417305 
L 305.939716 350.189624 
L 317.77608 352.488586 
L 329.612443 333.469901 
L 341.448807 317.79516 
L 353.28517 300.86644 
L 365.121534 293.760558 
L 376.957898 302.329416 
L 388.794261 298.985471 
L 400.630625 308.808309 
L 412.466989 285.400696 
L 424.303352 298.776475 
L 436.139716 295.014537 
L 447.97608 292.297582 
L 459.812443 279.548793 
L 471.648807 268.471977 
L 483.48517 253.842219 
L 495.321534 235.65952 
L 507.157898 185.291354 
L 518.994261 188.635298 
L 530.830625 218.7308 
" style="fill:none;stroke:#1764ab;stroke-linecap:square;stroke-width:1.5;"/>
   </g>
   <g id="line2d_54">
    <path clip-path="url(#p8ee57cb4ed)" d="M 140.230625 431.907271 
L 152.066989 430.235298 
L 163.903352 427.72734 
L 175.739716 427.936337 
L 187.57608 421.66644 
L 199.412443 418.531492 
L 211.248807 402.229762 
L 223.08517 378.82215 
L 234.921534 383.838067 
L 246.757898 360.012461 
L 258.594261 362.102426 
L 270.430625 362.102426 
L 282.266989 376.941181 
L 294.103352 347.472669 
L 305.939716 340.784779 
L 317.77608 333.469901 
L 329.612443 328.244987 
L 341.448807 321.139105 
L 353.28517 332.633914 
L 365.121534 302.329416 
L 376.957898 291.879589 
L 388.794261 280.384779 
L 400.630625 270.352946 
L 412.466989 253.842219 
L 424.303352 270.561942 
L 436.139716 282.056752 
L 447.97608 273.069901 
L 459.812443 240.257444 
L 471.648807 250.916267 
L 483.48517 196.99516 
L 495.321534 175.050523 
L 507.157898 173.169554 
L 518.994261 196.577167 
L 530.830625 209.534952 
" style="fill:none;stroke:#1764ab;stroke-linecap:square;stroke-width:1.5;"/>
   </g>
   <g id="line2d_55">
    <path clip-path="url(#p8ee57cb4ed)" d="M 140.230625 432.952253 
L 152.066989 432.952253 
L 163.903352 428.563326 
L 175.739716 426.264364 
L 187.57608 420.830454 
L 199.412443 413.097582 
L 211.248807 411.42561 
L 223.08517 410.380627 
L 234.921534 407.663672 
L 246.757898 409.753638 
L 258.594261 404.737721 
L 270.430625 404.737721 
L 282.266989 394.287894 
L 294.103352 392.197928 
L 305.939716 388.226994 
L 317.77608 377.359174 
L 329.612443 378.82215 
L 341.448807 374.433222 
L 353.28517 371.298274 
L 365.121534 367.118343 
L 376.957898 371.298274 
L 388.794261 367.745333 
L 400.630625 379.867132 
L 412.466989 370.671285 
L 424.303352 369.835298 
L 436.139716 373.806233 
L 447.97608 365.028378 
L 459.812443 365.446371 
L 471.648807 348.935644 
L 483.48517 370.253292 
L 495.321534 343.710731 
L 507.157898 331.379935 
L 518.994261 361.89343 
L 530.830625 376.732184 
" style="fill:none;stroke:#94c4df;stroke-linecap:square;stroke-width:1.5;"/>
   </g>
   <g id="line2d_56">
    <path clip-path="url(#p8ee57cb4ed)" d="M 140.230625 433.16125 
L 152.066989 431.907271 
L 163.903352 430.862288 
L 175.739716 428.35433 
L 187.57608 424.592392 
L 199.412443 426.473361 
L 211.248807 422.92042 
L 223.08517 413.933568 
L 234.921534 418.322496 
L 246.757898 413.306579 
L 258.594261 403.483741 
L 270.430625 389.06298 
L 282.266989 376.314191 
L 294.103352 376.105195 
L 305.939716 378.613153 
L 317.77608 372.343257 
L 329.612443 377.150177 
L 341.448807 380.912115 
L 353.28517 382.375091 
L 365.121534 384.047063 
L 376.957898 385.092046 
L 388.794261 373.179243 
L 400.630625 359.176475 
L 412.466989 358.549485 
L 424.303352 363.774399 
L 436.139716 367.118343 
L 447.97608 355.414537 
L 459.812443 350.607617 
L 471.648807 339.948793 
L 483.48517 346.845679 
L 495.321534 346.218689 
L 507.157898 344.128724 
L 518.994261 350.189624 
L 530.830625 391.152946 
" style="fill:none;stroke:#94c4df;stroke-linecap:square;stroke-width:1.5;"/>
   </g>
   <g id="line2d_57">
    <path clip-path="url(#p8ee57cb4ed)" d="M 140.230625 433.16125 
L 152.066989 433.16125 
L 163.903352 430.235298 
L 175.739716 425.846371 
L 187.57608 422.084433 
L 199.412443 416.023534 
L 211.248807 413.306579 
L 223.08517 409.962634 
L 234.921534 399.9308 
L 246.757898 407.245679 
L 258.594261 402.438759 
L 270.430625 400.975783 
L 282.266989 398.885817 
L 294.103352 393.242911 
L 305.939716 393.242911 
L 317.77608 394.287894 
L 329.612443 388.43599 
L 341.448807 381.957098 
L 353.28517 380.912115 
L 365.121534 378.404157 
L 376.957898 383.62907 
L 388.794261 373.806233 
L 400.630625 371.925264 
L 412.466989 377.777167 
L 424.303352 361.684433 
L 436.139716 371.298274 
L 447.97608 355.414537 
L 459.812443 349.980627 
L 471.648807 343.083741 
L 483.48517 327.200004 
L 495.321534 312.779243 
L 507.157898 318.004157 
L 518.994261 321.557098 
L 530.830625 365.864364 
" style="fill:none;stroke:#94c4df;stroke-linecap:square;stroke-width:1.5;"/>
   </g>
   <g id="line2d_58">
    <path clip-path="url(#p8ee57cb4ed)" d="M 140.230625 432.952253 
L 152.066989 430.862288 
L 163.903352 430.235298 
L 175.739716 428.563326 
L 187.57608 420.621458 
L 199.412443 414.351561 
L 211.248807 413.515575 
L 223.08517 408.081665 
L 234.921534 402.647755 
L 246.757898 411.634606 
L 258.594261 412.470593 
L 270.430625 411.634606 
L 282.266989 410.171631 
L 294.103352 401.184779 
L 305.939716 390.316959 
L 317.77608 396.586856 
L 329.612443 383.420074 
L 341.448807 382.375091 
L 353.28517 385.092046 
L 365.121534 383.838067 
L 376.957898 371.298274 
L 388.794261 354.369554 
L 400.630625 379.658136 
L 412.466989 374.642219 
L 424.303352 371.089278 
L 436.139716 361.89343 
L 447.97608 344.755714 
L 459.812443 348.308655 
L 471.648807 351.02561 
L 483.48517 331.588932 
L 495.321534 316.123188 
L 507.157898 318.004157 
L 518.994261 333.469901 
L 530.830625 361.057444 
" style="fill:none;stroke:#94c4df;stroke-linecap:square;stroke-width:1.5;"/>
   </g>
   <g id="line2d_59">
    <path clip-path="url(#p8ee57cb4ed)" d="M 140.230625 429.817305 
L 152.066989 429.817305 
L 163.903352 416.650523 
L 175.739716 418.531492 
L 187.57608 425.846371 
L 199.412443 419.576475 
L 211.248807 421.039451 
L 223.08517 423.129416 
L 234.921534 420.830454 
L 246.757898 417.48651 
L 258.594261 408.499658 
L 270.430625 400.766786 
L 282.266989 397.422842 
L 294.103352 386.973015 
L 305.939716 370.253292 
L 317.77608 372.343257 
L 329.612443 381.330108 
L 341.448807 384.047063 
L 353.28517 378.613153 
L 365.121534 380.076129 
L 376.957898 378.404157 
L 388.794261 383.62907 
L 400.630625 375.060212 
L 412.466989 365.446371 
L 424.303352 358.131492 
L 436.139716 355.83253 
L 447.97608 333.887894 
L 459.812443 342.874745 
L 471.648807 336.186856 
L 483.48517 332.006925 
L 495.321534 327.409001 
L 507.157898 331.797928 
L 518.994261 350.39862 
L 530.830625 382.166094 
" style="fill:none;stroke:#94c4df;stroke-linecap:square;stroke-width:1.5;"/>
   </g>
   <g id="line2d_60">
    <path clip-path="url(#p8ee57cb4ed)" d="M 140.230625 433.16125 
L 152.066989 433.16125 
L 163.903352 422.92042 
L 175.739716 424.383395 
L 187.57608 425.428378 
L 199.412443 427.72734 
L 211.248807 427.309347 
L 223.08517 425.010385 
L 234.921534 421.457444 
L 246.757898 412.261596 
L 258.594261 400.55779 
L 270.430625 397.213845 
L 282.266989 400.55779 
L 294.103352 385.301042 
L 305.939716 396.168862 
L 317.77608 387.391008 
L 329.612443 364.610385 
L 341.448807 357.922496 
L 353.28517 356.041527 
L 365.121534 357.713499 
L 376.957898 361.684433 
L 388.794261 346.427686 
L 400.630625 353.533568 
L 412.466989 361.89343 
L 424.303352 369.626302 
L 436.139716 361.89343 
L 447.97608 356.668516 
L 459.812443 366.70035 
L 471.648807 359.803465 
L 483.48517 350.816613 
L 495.321534 324.065056 
L 507.157898 280.175783 
L 518.994261 305.673361 
L 530.830625 341.202772 
" style="fill:none;stroke:#94c4df;stroke-linecap:square;stroke-width:1.5;"/>
   </g>
   <g id="line2d_61">
    <path clip-path="url(#p8ee57cb4ed)" d="M 140.230625 433.16125 
L 152.066989 431.698274 
L 163.903352 430.235298 
L 175.739716 429.608309 
L 187.57608 423.756406 
L 199.412443 415.605541 
L 211.248807 417.277513 
L 223.08517 415.396544 
L 234.921534 413.097582 
L 246.757898 401.602772 
L 258.594261 400.348793 
L 270.430625 400.766786 
L 282.266989 398.885817 
L 294.103352 393.451907 
L 305.939716 398.885817 
L 317.77608 393.242911 
L 329.612443 387.600004 
L 341.448807 380.912115 
L 353.28517 372.552253 
L 365.121534 378.82215 
L 376.957898 378.19516 
L 388.794261 366.282357 
L 400.630625 361.89343 
L 412.466989 359.803465 
L 424.303352 357.922496 
L 436.139716 371.507271 
L 447.97608 359.803465 
L 459.812443 364.819381 
L 471.648807 363.983395 
L 483.48517 359.385471 
L 495.321534 362.938413 
L 507.157898 362.729416 
L 518.994261 362.311423 
L 530.830625 379.240143 
" style="fill:none;stroke:#94c4df;stroke-linecap:square;stroke-width:1.5;"/>
   </g>
   <g id="line2d_62">
    <path clip-path="url(#p8ee57cb4ed)" d="M 140.230625 432.743257 
L 152.066989 431.280281 
L 163.903352 426.264364 
L 175.739716 422.92042 
L 187.57608 415.396544 
L 199.412443 414.769554 
L 211.248807 400.975783 
L 223.08517 399.303811 
L 234.921534 397.631838 
L 246.757898 402.020766 
L 258.594261 400.55779 
L 270.430625 395.12388 
L 282.266989 404.737721 
L 294.103352 398.885817 
L 305.939716 393.451907 
L 317.77608 398.467824 
L 329.612443 392.406925 
L 341.448807 375.687202 
L 353.28517 385.092046 
L 365.121534 368.999312 
L 376.957898 367.118343 
L 388.794261 379.658136 
L 400.630625 376.314191 
L 412.466989 378.19516 
L 424.303352 367.118343 
L 436.139716 349.562634 
L 447.97608 334.514883 
L 459.812443 359.594468 
L 471.648807 349.353638 
L 483.48517 342.874745 
L 495.321534 343.292738 
L 507.157898 351.861596 
L 518.994261 362.102426 
L 530.830625 394.705887 
" style="fill:none;stroke:#94c4df;stroke-linecap:square;stroke-width:1.5;"/>
   </g>
   <g id="line2d_63">
    <path clip-path="url(#p8ee57cb4ed)" d="M 140.230625 432.743257 
L 152.066989 432.325264 
L 163.903352 432.325264 
L 175.739716 430.444295 
L 187.57608 427.72734 
L 199.412443 428.35433 
L 211.248807 425.010385 
L 223.08517 419.576475 
L 234.921534 408.708655 
L 246.757898 412.888586 
L 258.594261 398.049831 
L 270.430625 404.946717 
L 282.266989 390.107963 
L 294.103352 382.793084 
L 305.939716 384.047063 
L 317.77608 382.375091 
L 329.612443 387.391008 
L 341.448807 381.957098 
L 353.28517 369.208309 
L 365.121534 364.192392 
L 376.957898 363.565402 
L 388.794261 360.221458 
L 400.630625 360.639451 
L 412.466989 362.729416 
L 424.303352 349.144641 
L 436.139716 348.935644 
L 447.97608 364.401388 
L 459.812443 358.131492 
L 471.648807 366.909347 
L 483.48517 335.141873 
L 495.321534 341.411769 
L 507.157898 323.438067 
L 518.994261 338.067824 
L 530.830625 362.729416 
" style="fill:none;stroke:#94c4df;stroke-linecap:square;stroke-width:1.5;"/>
   </g>
   <g id="line2d_64">
    <path clip-path="url(#p8ee57cb4ed)" d="M 140.230625 433.16125 
L 152.066989 432.325264 
L 163.903352 431.698274 
L 175.739716 431.280281 
L 187.57608 429.608309 
L 199.412443 420.621458 
L 211.248807 417.068516 
L 223.08517 402.856752 
L 234.921534 393.451907 
L 246.757898 380.285125 
L 258.594261 394.078897 
L 270.430625 385.928032 
L 282.266989 380.285125 
L 294.103352 381.121112 
L 305.939716 374.224226 
L 317.77608 387.600004 
L 329.612443 390.107963 
L 341.448807 378.82215 
L 353.28517 371.925264 
L 365.121534 383.211077 
L 376.957898 352.488586 
L 388.794261 360.639451 
L 400.630625 358.967478 
L 412.466989 354.787548 
L 424.303352 358.131492 
L 436.139716 361.26644 
L 447.97608 349.562634 
L 459.812443 340.366786 
L 471.648807 335.559866 
L 483.48517 304.001388 
L 495.321534 314.869208 
L 507.157898 306.091354 
L 518.994261 329.498966 
L 530.830625 355.414537 
" style="fill:none;stroke:#94c4df;stroke-linecap:square;stroke-width:1.5;"/>
   </g>
   <g id="line2d_65">
    <path clip-path="url(#p8ee57cb4ed)" d="M 140.230625 433.16125 
L 152.066989 433.16125 
L 163.903352 433.16125 
L 175.739716 433.16125 
L 187.57608 433.16125 
L 199.412443 433.16125 
L 211.248807 433.16125 
L 223.08517 433.16125 
L 234.921534 433.16125 
L 246.757898 433.16125 
L 258.594261 433.16125 
L 270.430625 433.16125 
L 282.266989 433.16125 
L 294.103352 433.16125 
L 305.939716 433.16125 
L 317.77608 433.16125 
L 329.612443 433.16125 
L 341.448807 433.16125 
L 353.28517 433.16125 
L 365.121534 433.16125 
L 376.957898 433.16125 
L 388.794261 433.16125 
L 400.630625 433.16125 
L 412.466989 433.16125 
L 424.303352 433.16125 
L 436.139716 433.16125 
L 447.97608 433.16125 
L 459.812443 433.16125 
L 471.648807 433.16125 
L 483.48517 433.16125 
L 495.321534 433.16125 
L 507.157898 433.16125 
L 518.994261 433.16125 
L 530.830625 433.16125 
" style="fill:none;stroke:#000000;stroke-linecap:square;stroke-width:1.5;"/>
   </g>
   <g id="line2d_66">
    <path clip-path="url(#p8ee57cb4ed)" d="M 140.230625 433.16125 
L 152.066989 433.16125 
L 163.903352 433.16125 
L 175.739716 433.16125 
L 187.57608 433.16125 
L 199.412443 433.16125 
L 211.248807 433.16125 
L 223.08517 433.16125 
L 234.921534 433.16125 
L 246.757898 433.16125 
L 258.594261 433.16125 
L 270.430625 433.16125 
L 282.266989 433.16125 
L 294.103352 433.16125 
L 305.939716 433.16125 
L 317.77608 433.16125 
L 329.612443 433.16125 
L 341.448807 433.16125 
L 353.28517 433.16125 
L 365.121534 433.16125 
L 376.957898 433.16125 
L 388.794261 433.16125 
L 400.630625 433.16125 
L 412.466989 433.16125 
L 424.303352 433.16125 
L 436.139716 433.16125 
L 447.97608 433.16125 
L 459.812443 433.16125 
L 471.648807 433.16125 
L 483.48517 433.16125 
L 495.321534 433.16125 
L 507.157898 433.16125 
L 518.994261 433.16125 
L 530.830625 433.16125 
" style="fill:none;stroke:#000000;stroke-linecap:square;stroke-width:1.5;"/>
   </g>
   <g id="line2d_67">
    <path clip-path="url(#p8ee57cb4ed)" d="M 140.230625 433.16125 
L 152.066989 433.16125 
L 163.903352 433.16125 
L 175.739716 433.16125 
L 187.57608 433.16125 
L 199.412443 433.16125 
L 211.248807 433.16125 
L 223.08517 433.16125 
L 234.921534 433.16125 
L 246.757898 433.16125 
L 258.594261 433.16125 
L 270.430625 433.16125 
L 282.266989 433.16125 
L 294.103352 433.16125 
L 305.939716 433.16125 
L 317.77608 433.16125 
L 329.612443 433.16125 
L 341.448807 433.16125 
L 353.28517 433.16125 
L 365.121534 433.16125 
L 376.957898 433.16125 
L 388.794261 433.16125 
L 400.630625 433.16125 
L 412.466989 433.16125 
L 424.303352 433.16125 
L 436.139716 433.16125 
L 447.97608 433.16125 
L 459.812443 433.16125 
L 471.648807 433.16125 
L 483.48517 433.16125 
L 495.321534 433.16125 
L 507.157898 433.16125 
L 518.994261 433.16125 
L 530.830625 433.16125 
" style="fill:none;stroke:#000000;stroke-linecap:square;stroke-width:1.5;"/>
   </g>
   <g id="line2d_68">
    <path clip-path="url(#p8ee57cb4ed)" d="M 140.230625 433.16125 
L 152.066989 433.16125 
L 163.903352 433.16125 
L 175.739716 433.16125 
L 187.57608 433.16125 
L 199.412443 433.16125 
L 211.248807 433.16125 
L 223.08517 433.16125 
L 234.921534 433.16125 
L 246.757898 433.16125 
L 258.594261 433.16125 
L 270.430625 433.16125 
L 282.266989 433.16125 
L 294.103352 433.16125 
L 305.939716 433.16125 
L 317.77608 433.16125 
L 329.612443 433.16125 
L 341.448807 433.16125 
L 353.28517 433.16125 
L 365.121534 433.16125 
L 376.957898 433.16125 
L 388.794261 433.16125 
L 400.630625 433.16125 
L 412.466989 433.16125 
L 424.303352 433.16125 
L 436.139716 433.16125 
L 447.97608 433.16125 
L 459.812443 433.16125 
L 471.648807 433.16125 
L 483.48517 433.16125 
L 495.321534 433.16125 
L 507.157898 433.16125 
L 518.994261 433.16125 
L 530.830625 433.16125 
" style="fill:none;stroke:#000000;stroke-linecap:square;stroke-width:1.5;"/>
   </g>
   <g id="line2d_69">
    <path clip-path="url(#p8ee57cb4ed)" d="M 140.230625 433.16125 
L 152.066989 433.16125 
L 163.903352 433.16125 
L 175.739716 433.16125 
L 187.57608 433.16125 
L 199.412443 433.16125 
L 211.248807 433.16125 
L 223.08517 433.16125 
L 234.921534 433.16125 
L 246.757898 433.16125 
L 258.594261 433.16125 
L 270.430625 433.16125 
L 282.266989 433.16125 
L 294.103352 433.16125 
L 305.939716 433.16125 
L 317.77608 433.16125 
L 329.612443 433.16125 
L 341.448807 433.16125 
L 353.28517 433.16125 
L 365.121534 433.16125 
L 376.957898 433.16125 
L 388.794261 433.16125 
L 400.630625 433.16125 
L 412.466989 433.16125 
L 424.303352 433.16125 
L 436.139716 433.16125 
L 447.97608 433.16125 
L 459.812443 433.16125 
L 471.648807 433.16125 
L 483.48517 433.16125 
L 495.321534 433.16125 
L 507.157898 433.16125 
L 518.994261 433.16125 
L 530.830625 433.16125 
" style="fill:none;stroke:#000000;stroke-linecap:square;stroke-width:1.5;"/>
   </g>
   <g id="line2d_70">
    <path clip-path="url(#p8ee57cb4ed)" d="M 140.230625 433.16125 
L 152.066989 433.16125 
L 163.903352 433.16125 
L 175.739716 433.16125 
L 187.57608 433.16125 
L 199.412443 433.16125 
L 211.248807 433.16125 
L 223.08517 433.16125 
L 234.921534 433.16125 
L 246.757898 433.16125 
L 258.594261 433.16125 
L 270.430625 433.16125 
L 282.266989 433.16125 
L 294.103352 433.16125 
L 305.939716 433.16125 
L 317.77608 433.16125 
L 329.612443 433.16125 
L 341.448807 433.16125 
L 353.28517 433.16125 
L 365.121534 433.16125 
L 376.957898 433.16125 
L 388.794261 433.16125 
L 400.630625 433.16125 
L 412.466989 433.16125 
L 424.303352 433.16125 
L 436.139716 433.16125 
L 447.97608 433.16125 
L 459.812443 433.16125 
L 471.648807 433.16125 
L 483.48517 433.16125 
L 495.321534 433.16125 
L 507.157898 433.16125 
L 518.994261 433.16125 
L 530.830625 433.16125 
" style="fill:none;stroke:#000000;stroke-linecap:square;stroke-width:1.5;"/>
   </g>
   <g id="line2d_71">
    <path clip-path="url(#p8ee57cb4ed)" d="M 140.230625 433.16125 
L 152.066989 433.16125 
L 163.903352 433.16125 
L 175.739716 433.16125 
L 187.57608 433.16125 
L 199.412443 433.16125 
L 211.248807 433.16125 
L 223.08517 433.16125 
L 234.921534 433.16125 
L 246.757898 433.16125 
L 258.594261 433.16125 
L 270.430625 433.16125 
L 282.266989 433.16125 
L 294.103352 433.16125 
L 305.939716 433.16125 
L 317.77608 433.16125 
L 329.612443 433.16125 
L 341.448807 433.16125 
L 353.28517 433.16125 
L 365.121534 433.16125 
L 376.957898 433.16125 
L 388.794261 433.16125 
L 400.630625 433.16125 
L 412.466989 433.16125 
L 424.303352 433.16125 
L 436.139716 433.16125 
L 447.97608 433.16125 
L 459.812443 433.16125 
L 471.648807 433.16125 
L 483.48517 433.16125 
L 495.321534 433.16125 
L 507.157898 433.16125 
L 518.994261 433.16125 
L 530.830625 433.16125 
" style="fill:none;stroke:#000000;stroke-linecap:square;stroke-width:1.5;"/>
   </g>
   <g id="line2d_72">
    <path clip-path="url(#p8ee57cb4ed)" d="M 140.230625 433.16125 
L 152.066989 433.16125 
L 163.903352 433.16125 
L 175.739716 433.16125 
L 187.57608 433.16125 
L 199.412443 433.16125 
L 211.248807 433.16125 
L 223.08517 433.16125 
L 234.921534 433.16125 
L 246.757898 433.16125 
L 258.594261 433.16125 
L 270.430625 433.16125 
L 282.266989 433.16125 
L 294.103352 433.16125 
L 305.939716 433.16125 
L 317.77608 433.16125 
L 329.612443 433.16125 
L 341.448807 433.16125 
L 353.28517 433.16125 
L 365.121534 433.16125 
L 376.957898 433.16125 
L 388.794261 433.16125 
L 400.630625 433.16125 
L 412.466989 433.16125 
L 424.303352 433.16125 
L 436.139716 433.16125 
L 447.97608 433.16125 
L 459.812443 433.16125 
L 471.648807 433.16125 
L 483.48517 433.16125 
L 495.321534 433.16125 
L 507.157898 433.16125 
L 518.994261 433.16125 
L 530.830625 433.16125 
" style="fill:none;stroke:#000000;stroke-linecap:square;stroke-width:1.5;"/>
   </g>
   <g id="line2d_73">
    <path clip-path="url(#p8ee57cb4ed)" d="M 140.230625 433.16125 
L 152.066989 433.16125 
L 163.903352 433.16125 
L 175.739716 433.16125 
L 187.57608 433.16125 
L 199.412443 433.16125 
L 211.248807 433.16125 
L 223.08517 433.16125 
L 234.921534 433.16125 
L 246.757898 433.16125 
L 258.594261 433.16125 
L 270.430625 433.16125 
L 282.266989 433.16125 
L 294.103352 433.16125 
L 305.939716 433.16125 
L 317.77608 433.16125 
L 329.612443 433.16125 
L 341.448807 433.16125 
L 353.28517 433.16125 
L 365.121534 433.16125 
L 376.957898 433.16125 
L 388.794261 433.16125 
L 400.630625 433.16125 
L 412.466989 433.16125 
L 424.303352 433.16125 
L 436.139716 433.16125 
L 447.97608 433.16125 
L 459.812443 433.16125 
L 471.648807 433.16125 
L 483.48517 433.16125 
L 495.321534 433.16125 
L 507.157898 433.16125 
L 518.994261 433.16125 
L 530.830625 433.16125 
" style="fill:none;stroke:#000000;stroke-linecap:square;stroke-width:1.5;"/>
   </g>
   <g id="line2d_74">
    <path clip-path="url(#p8ee57cb4ed)" d="M 140.230625 433.16125 
L 152.066989 433.16125 
L 163.903352 433.16125 
L 175.739716 433.16125 
L 187.57608 433.16125 
L 199.412443 433.16125 
L 211.248807 433.16125 
L 223.08517 433.16125 
L 234.921534 433.16125 
L 246.757898 433.16125 
L 258.594261 433.16125 
L 270.430625 433.16125 
L 282.266989 433.16125 
L 294.103352 433.16125 
L 305.939716 433.16125 
L 317.77608 433.16125 
L 329.612443 433.16125 
L 341.448807 433.16125 
L 353.28517 433.16125 
L 365.121534 433.16125 
L 376.957898 433.16125 
L 388.794261 433.16125 
L 400.630625 433.16125 
L 412.466989 433.16125 
L 424.303352 433.16125 
L 436.139716 433.16125 
L 447.97608 433.16125 
L 459.812443 433.16125 
L 471.648807 433.16125 
L 483.48517 433.16125 
L 495.321534 433.16125 
L 507.157898 433.16125 
L 518.994261 433.16125 
L 530.830625 433.16125 
" style="fill:none;stroke:#000000;stroke-linecap:square;stroke-width:1.5;"/>
   </g>
   <g id="line2d_75">
    <path clip-path="url(#p8ee57cb4ed)" d="M 128.394261 433.16125 
" style="fill:none;stroke:#000000;stroke-linecap:square;stroke-width:1.5;"/>
   </g>
   <g id="line2d_76">
    <path clip-path="url(#p8ee57cb4ed)" d="M 128.394261 433.16125 
" style="fill:none;stroke:#d0e1f2;stroke-linecap:square;stroke-width:1.5;"/>
   </g>
   <g id="line2d_77">
    <path clip-path="url(#p8ee57cb4ed)" d="M 128.394261 433.16125 
" style="fill:none;stroke:#94c4df;stroke-linecap:square;stroke-width:1.5;"/>
   </g>
   <g id="line2d_78">
    <path clip-path="url(#p8ee57cb4ed)" d="M 128.394261 433.16125 
" style="fill:none;stroke:#4a98c9;stroke-linecap:square;stroke-width:1.5;"/>
   </g>
   <g id="line2d_79">
    <path clip-path="url(#p8ee57cb4ed)" d="M 128.394261 433.16125 
" style="fill:none;stroke:#1764ab;stroke-linecap:square;stroke-width:1.5;"/>
   </g>
   <g id="line2d_80">
    <path clip-path="url(#p8ee57cb4ed)" d="M 128.394261 433.16125 
" style="fill:none;stroke:#08306b;stroke-linecap:square;stroke-width:1.5;"/>
   </g>
   <g id="line2d_81">
    <path clip-path="url(#p8ee57cb4ed)" d="M 128.394261 433.16125 
" style="fill:none;stroke:#000000;stroke-linecap:square;stroke-width:1.5;"/>
   </g>
   <g id="line2d_82">
    <path clip-path="url(#p8ee57cb4ed)" d="M 128.394261 433.16125 
" style="fill:none;stroke:#000000;stroke-dasharray:1.5,2.475;stroke-dashoffset:0;stroke-width:1.5;"/>
   </g>
   <g id="line2d_83">
    <path clip-path="url(#p8ee57cb4ed)" d="M 128.394261 433.16125 
" style="fill:none;stroke:#000000;stroke-linecap:square;stroke-width:1.5;"/>
   </g>
   <g id="line2d_84">
    <path clip-path="url(#p8ee57cb4ed)" d="M 128.394261 433.16125 
" style="fill:none;stroke:#000000;stroke-dasharray:5.55,2.4;stroke-dashoffset:0;stroke-width:1.5;"/>
   </g>
   <g id="line2d_85">
    <path clip-path="url(#p8ee57cb4ed)" d="M 128.394261 433.16125 
" style="fill:none;stroke:#000000;stroke-dasharray:9.6,2.4,1.5,2.4;stroke-dashoffset:0;stroke-width:1.5;"/>
   </g>
   <g id="line2d_86">
    <path clip-path="url(#p8ee57cb4ed)" d="M 128.394261 433.16125 
" style="fill:none;stroke:#000000;stroke-dasharray:9.6,2.4,1.5,2.4;stroke-dashoffset:0;stroke-width:1.5;"/>
   </g>
   <g id="patch_3">
    <path d="M 140.230625 433.16125 
L 140.230625 52.64125 
" style="fill:none;stroke:#000000;stroke-linecap:square;stroke-linejoin:miter;stroke-width:0.8;"/>
   </g>
   <g id="patch_4">
    <path d="M 530.830625 433.16125 
L 530.830625 52.64125 
" style="fill:none;stroke:#000000;stroke-linecap:square;stroke-linejoin:miter;stroke-width:0.8;"/>
   </g>
   <g id="patch_5">
    <path d="M 140.230625 433.16125 
L 530.830625 433.16125 
" style="fill:none;stroke:#000000;stroke-linecap:square;stroke-linejoin:miter;stroke-width:0.8;"/>
   </g>
   <g id="patch_6">
    <path d="M 140.230625 52.64125 
L 530.830625 52.64125 
" style="fill:none;stroke:#000000;stroke-linecap:square;stroke-linejoin:miter;stroke-width:0.8;"/>
   </g>
   <g id="text_17">
    <!-- CD8 LIVE COUNT -->
    <g transform="translate(252.191562 21.515625)scale(0.2 -0.2)">
     <use xlink:href="#Arial-BoldMT-67"/>
     <use x="72.216797" xlink:href="#Arial-BoldMT-68"/>
     <use x="144.433594" xlink:href="#Arial-BoldMT-56"/>
     <use x="200.048828" xlink:href="#Arial-BoldMT-32"/>
     <use x="227.832031" xlink:href="#Arial-BoldMT-76"/>
     <use x="288.916016" xlink:href="#Arial-BoldMT-73"/>
     <use x="316.699219" xlink:href="#Arial-BoldMT-86"/>
     <use x="383.398438" xlink:href="#Arial-BoldMT-69"/>
     <use x="450.097656" xlink:href="#Arial-BoldMT-32"/>
     <use x="477.880859" xlink:href="#Arial-BoldMT-67"/>
     <use x="550.097656" xlink:href="#Arial-BoldMT-79"/>
     <use x="627.880859" xlink:href="#Arial-BoldMT-85"/>
     <use x="700.097656" xlink:href="#Arial-BoldMT-78"/>
     <use x="772.314453" xlink:href="#Arial-BoldMT-84"/>
    </g>
    <!-- ACROSS RADIUS AT TIME 4 -->
    <defs>
     <path d="M 31.15625 0 
L 31.15625 14.40625 
L 1.859375 14.40625 
L 1.859375 26.421875 
L 32.90625 71.875 
L 44.4375 71.875 
L 44.4375 26.46875 
L 53.328125 26.46875 
L 53.328125 14.40625 
L 44.4375 14.40625 
L 44.4375 0 
z
M 31.15625 26.46875 
L 31.15625 50.921875 
L 14.703125 26.46875 
z
" id="Arial-BoldMT-52"/>
    </defs>
    <g transform="translate(200.536875 42.64125)scale(0.2 -0.2)">
     <use xlink:href="#Arial-BoldMT-65"/>
     <use x="72.216797" xlink:href="#Arial-BoldMT-67"/>
     <use x="144.433594" xlink:href="#Arial-BoldMT-82"/>
     <use x="216.650391" xlink:href="#Arial-BoldMT-79"/>
     <use x="294.433594" xlink:href="#Arial-BoldMT-83"/>
     <use x="361.132812" xlink:href="#Arial-BoldMT-83"/>
     <use x="427.832031" xlink:href="#Arial-BoldMT-32"/>
     <use x="455.615234" xlink:href="#Arial-BoldMT-82"/>
     <use x="527.832031" xlink:href="#Arial-BoldMT-65"/>
     <use x="600.048828" xlink:href="#Arial-BoldMT-68"/>
     <use x="672.265625" xlink:href="#Arial-BoldMT-73"/>
     <use x="700.048828" xlink:href="#Arial-BoldMT-85"/>
     <use x="772.265625" xlink:href="#Arial-BoldMT-83"/>
     <use x="838.964844" xlink:href="#Arial-BoldMT-32"/>
     <use x="866.701172" xlink:href="#Arial-BoldMT-65"/>
     <use x="938.808594" xlink:href="#Arial-BoldMT-84"/>
     <use x="999.892578" xlink:href="#Arial-BoldMT-32"/>
     <use x="1027.675781" xlink:href="#Arial-BoldMT-84"/>
     <use x="1088.759766" xlink:href="#Arial-BoldMT-73"/>
     <use x="1116.542969" xlink:href="#Arial-BoldMT-77"/>
     <use x="1199.84375" xlink:href="#Arial-BoldMT-69"/>
     <use x="1266.542969" xlink:href="#Arial-BoldMT-32"/>
     <use x="1294.326172" xlink:href="#Arial-BoldMT-52"/>
    </g>
   </g>
   <g id="legend_1">
    <g id="line2d_87">
     <path d="M 539.830625 65.739687 
L 559.830625 65.739687 
" style="fill:none;stroke:#000000;stroke-linecap:square;stroke-width:1.5;"/>
    </g>
    <g id="line2d_88"/>
    <g id="text_18">
     <!-- 0 -->
     <g transform="translate(567.830625 69.239687)scale(0.1 -0.1)">
      <use xlink:href="#DejaVuSans-48"/>
     </g>
    </g>
    <g id="line2d_89">
     <path d="M 539.830625 80.417812 
L 559.830625 80.417812 
" style="fill:none;stroke:#d0e1f2;stroke-linecap:square;stroke-width:1.5;"/>
    </g>
    <g id="line2d_90"/>
    <g id="text_19">
     <!-- 100 -->
     <g transform="translate(567.830625 83.917812)scale(0.1 -0.1)">
      <use xlink:href="#DejaVuSans-49"/>
      <use x="63.623047" xlink:href="#DejaVuSans-48"/>
      <use x="127.246094" xlink:href="#DejaVuSans-48"/>
     </g>
    </g>
    <g id="line2d_91">
     <path d="M 539.830625 95.095937 
L 559.830625 95.095937 
" style="fill:none;stroke:#94c4df;stroke-linecap:square;stroke-width:1.5;"/>
    </g>
    <g id="line2d_92"/>
    <g id="text_20">
     <!-- 500 -->
     <g transform="translate(567.830625 98.595937)scale(0.1 -0.1)">
      <use xlink:href="#DejaVuSans-53"/>
      <use x="63.623047" xlink:href="#DejaVuSans-48"/>
      <use x="127.246094" xlink:href="#DejaVuSans-48"/>
     </g>
    </g>
    <g id="line2d_93">
     <path d="M 539.830625 109.774062 
L 559.830625 109.774062 
" style="fill:none;stroke:#4a98c9;stroke-linecap:square;stroke-width:1.5;"/>
    </g>
    <g id="line2d_94"/>
    <g id="text_21">
     <!-- 1000 -->
     <g transform="translate(567.830625 113.274062)scale(0.1 -0.1)">
      <use xlink:href="#DejaVuSans-49"/>
      <use x="63.623047" xlink:href="#DejaVuSans-48"/>
      <use x="127.246094" xlink:href="#DejaVuSans-48"/>
      <use x="190.869141" xlink:href="#DejaVuSans-48"/>
     </g>
    </g>
    <g id="line2d_95">
     <path d="M 539.830625 124.452187 
L 559.830625 124.452187 
" style="fill:none;stroke:#1764ab;stroke-linecap:square;stroke-width:1.5;"/>
    </g>
    <g id="line2d_96"/>
    <g id="text_22">
     <!-- 5000 -->
     <g transform="translate(567.830625 127.952187)scale(0.1 -0.1)">
      <use xlink:href="#DejaVuSans-53"/>
      <use x="63.623047" xlink:href="#DejaVuSans-48"/>
      <use x="127.246094" xlink:href="#DejaVuSans-48"/>
      <use x="190.869141" xlink:href="#DejaVuSans-48"/>
     </g>
    </g>
    <g id="line2d_97">
     <path d="M 539.830625 139.130312 
L 559.830625 139.130312 
" style="fill:none;stroke:#08306b;stroke-linecap:square;stroke-width:1.5;"/>
    </g>
    <g id="line2d_98"/>
    <g id="text_23">
     <!-- 10000 -->
     <g transform="translate(567.830625 142.630312)scale(0.1 -0.1)">
      <use xlink:href="#DejaVuSans-49"/>
      <use x="63.623047" xlink:href="#DejaVuSans-48"/>
      <use x="127.246094" xlink:href="#DejaVuSans-48"/>
      <use x="190.869141" xlink:href="#DejaVuSans-48"/>
      <use x="254.492188" xlink:href="#DejaVuSans-48"/>
     </g>
    </g>
    <g id="line2d_99">
     <path d="M 539.830625 153.808437 
L 559.830625 153.808437 
" style="fill:none;stroke:#000000;stroke-linecap:square;stroke-width:1.5;"/>
    </g>
    <g id="line2d_100"/>
    <g id="text_24">
     <!-- 0 -->
     <g transform="translate(567.830625 157.308437)scale(0.1 -0.1)">
      <use xlink:href="#DejaVuSans-48"/>
     </g>
    </g>
    <g id="line2d_101">
     <path d="M 539.830625 168.486562 
L 559.830625 168.486562 
" style="fill:none;stroke:#000000;stroke-dasharray:1.5,2.475;stroke-dashoffset:0;stroke-width:1.5;"/>
    </g>
    <g id="line2d_102"/>
    <g id="text_25">
     <!-- 250 -->
     <g transform="translate(567.830625 171.986562)scale(0.1 -0.1)">
      <use xlink:href="#DejaVuSans-50"/>
      <use x="63.623047" xlink:href="#DejaVuSans-53"/>
      <use x="127.246094" xlink:href="#DejaVuSans-48"/>
     </g>
    </g>
    <g id="line2d_103">
     <path d="M 539.830625 183.164687 
L 559.830625 183.164687 
" style="fill:none;stroke:#000000;stroke-linecap:square;stroke-width:1.5;"/>
    </g>
    <g id="line2d_104"/>
    <g id="text_26">
     <!-- 500 -->
     <g transform="translate(567.830625 186.664687)scale(0.1 -0.1)">
      <use xlink:href="#DejaVuSans-53"/>
      <use x="63.623047" xlink:href="#DejaVuSans-48"/>
      <use x="127.246094" xlink:href="#DejaVuSans-48"/>
     </g>
    </g>
    <g id="line2d_105">
     <path d="M 539.830625 197.842812 
L 559.830625 197.842812 
" style="fill:none;stroke:#000000;stroke-dasharray:5.55,2.4;stroke-dashoffset:0;stroke-width:1.5;"/>
    </g>
    <g id="line2d_106"/>
    <g id="text_27">
     <!-- 1000 -->
     <g transform="translate(567.830625 201.342812)scale(0.1 -0.1)">
      <use xlink:href="#DejaVuSans-49"/>
      <use x="63.623047" xlink:href="#DejaVuSans-48"/>
      <use x="127.246094" xlink:href="#DejaVuSans-48"/>
      <use x="190.869141" xlink:href="#DejaVuSans-48"/>
     </g>
    </g>
    <g id="line2d_107">
     <path d="M 539.830625 212.520937 
L 559.830625 212.520937 
" style="fill:none;stroke:#000000;stroke-dasharray:9.6,2.4,1.5,2.4;stroke-dashoffset:0;stroke-width:1.5;"/>
    </g>
    <g id="line2d_108"/>
    <g id="text_28">
     <!-- 5000 -->
     <g transform="translate(567.830625 216.020937)scale(0.1 -0.1)">
      <use xlink:href="#DejaVuSans-53"/>
      <use x="63.623047" xlink:href="#DejaVuSans-48"/>
      <use x="127.246094" xlink:href="#DejaVuSans-48"/>
      <use x="190.869141" xlink:href="#DejaVuSans-48"/>
     </g>
    </g>
    <g id="line2d_109">
     <path d="M 539.830625 227.199062 
L 559.830625 227.199062 
" style="fill:none;stroke:#000000;stroke-dasharray:9.6,2.4,1.5,2.4;stroke-dashoffset:0;stroke-width:1.5;"/>
    </g>
    <g id="line2d_110"/>
    <g id="text_29">
     <!-- 10000 -->
     <g transform="translate(567.830625 230.699062)scale(0.1 -0.1)">
      <use xlink:href="#DejaVuSans-49"/>
      <use x="63.623047" xlink:href="#DejaVuSans-48"/>
      <use x="127.246094" xlink:href="#DejaVuSans-48"/>
      <use x="190.869141" xlink:href="#DejaVuSans-48"/>
      <use x="254.492188" xlink:href="#DejaVuSans-48"/>
     </g>
    </g>
   </g>
  </g>
 </g>
 <defs>
  <clipPath id="p8ee57cb4ed">
   <rect height="380.52" width="390.6" x="140.230625" y="52.64125"/>
  </clipPath>
 </defs>
</svg>
