<?xml version="1.0" encoding="utf-8" standalone="no"?>
<!DOCTYPE svg PUBLIC "-//W3C//DTD SVG 1.1//EN"
  "http://www.w3.org/Graphics/SVG/1.1/DTD/svg11.dtd">
<!-- Created with matplotlib (https://matplotlib.org/) -->
<svg height="504.658125pt" version="1.1" viewBox="0 0 610.843125 504.658125" width="610.843125pt" xmlns="http://www.w3.org/2000/svg" xmlns:xlink="http://www.w3.org/1999/xlink">
 <defs>
  <style type="text/css">
*{stroke-linecap:butt;stroke-linejoin:round;}
  </style>
 </defs>
 <g id="figure_1">
  <g id="patch_1">
   <path d="M 0 504.658125 
L 610.843125 504.658125 
L 610.843125 -0 
L 0 -0 
z
" style="fill:#ffffff;"/>
  </g>
  <g id="axes_1">
   <g id="patch_2">
    <path d="M 140.230625 433.16125 
L 530.830625 433.16125 
L 530.830625 52.64125 
L 140.230625 52.64125 
z
" style="fill:#ffffff;"/>
   </g>
   <g id="matplotlib.axis_1">
    <g id="xtick_1">
     <g id="line2d_1">
      <defs>
       <path d="M 0 0 
L 0 3.5 
" id="mf747e5cbd2" style="stroke:#000000;stroke-width:0.8;"/>
      </defs>
      <g>
       <use style="stroke:#000000;stroke-width:0.8;" x="187.57608" xlink:href="#mf747e5cbd2" y="433.16125"/>
      </g>
     </g>
     <g id="text_1">
      <!-- 5 -->
      <defs>
       <path d="M 10.796875 72.90625 
L 49.515625 72.90625 
L 49.515625 64.59375 
L 19.828125 64.59375 
L 19.828125 46.734375 
Q 21.96875 47.46875 24.109375 47.828125 
Q 26.265625 48.1875 28.421875 48.1875 
Q 40.625 48.1875 47.75 41.5 
Q 54.890625 34.8125 54.890625 23.390625 
Q 54.890625 11.625 47.5625 5.09375 
Q 40.234375 -1.421875 26.90625 -1.421875 
Q 22.3125 -1.421875 17.546875 -0.640625 
Q 12.796875 0.140625 7.71875 1.703125 
L 7.71875 11.625 
Q 12.109375 9.234375 16.796875 8.0625 
Q 21.484375 6.890625 26.703125 6.890625 
Q 35.15625 6.890625 40.078125 11.328125 
Q 45.015625 15.765625 45.015625 23.390625 
Q 45.015625 31 40.078125 35.4375 
Q 35.15625 39.890625 26.703125 39.890625 
Q 22.75 39.890625 18.8125 39.015625 
Q 14.890625 38.140625 10.796875 36.28125 
z
" id="DejaVuSans-53"/>
      </defs>
      <g transform="translate(178.03233 462.956562)scale(0.3 -0.3)">
       <use xlink:href="#DejaVuSans-53"/>
      </g>
     </g>
    </g>
    <g id="xtick_2">
     <g id="line2d_2">
      <g>
       <use style="stroke:#000000;stroke-width:0.8;" x="246.757898" xlink:href="#mf747e5cbd2" y="433.16125"/>
      </g>
     </g>
     <g id="text_2">
      <!-- 10 -->
      <defs>
       <path d="M 12.40625 8.296875 
L 28.515625 8.296875 
L 28.515625 63.921875 
L 10.984375 60.40625 
L 10.984375 69.390625 
L 28.421875 72.90625 
L 38.28125 72.90625 
L 38.28125 8.296875 
L 54.390625 8.296875 
L 54.390625 0 
L 12.40625 0 
z
" id="DejaVuSans-49"/>
       <path d="M 31.78125 66.40625 
Q 24.171875 66.40625 20.328125 58.90625 
Q 16.5 51.421875 16.5 36.375 
Q 16.5 21.390625 20.328125 13.890625 
Q 24.171875 6.390625 31.78125 6.390625 
Q 39.453125 6.390625 43.28125 13.890625 
Q 47.125 21.390625 47.125 36.375 
Q 47.125 51.421875 43.28125 58.90625 
Q 39.453125 66.40625 31.78125 66.40625 
z
M 31.78125 74.21875 
Q 44.046875 74.21875 50.515625 64.515625 
Q 56.984375 54.828125 56.984375 36.375 
Q 56.984375 17.96875 50.515625 8.265625 
Q 44.046875 -1.421875 31.78125 -1.421875 
Q 19.53125 -1.421875 13.0625 8.265625 
Q 6.59375 17.96875 6.59375 36.375 
Q 6.59375 54.828125 13.0625 64.515625 
Q 19.53125 74.21875 31.78125 74.21875 
z
" id="DejaVuSans-48"/>
      </defs>
      <g transform="translate(227.670398 462.956562)scale(0.3 -0.3)">
       <use xlink:href="#DejaVuSans-49"/>
       <use x="63.623047" xlink:href="#DejaVuSans-48"/>
      </g>
     </g>
    </g>
    <g id="xtick_3">
     <g id="line2d_3">
      <g>
       <use style="stroke:#000000;stroke-width:0.8;" x="305.939716" xlink:href="#mf747e5cbd2" y="433.16125"/>
      </g>
     </g>
     <g id="text_3">
      <!-- 15 -->
      <g transform="translate(286.852216 462.956562)scale(0.3 -0.3)">
       <use xlink:href="#DejaVuSans-49"/>
       <use x="63.623047" xlink:href="#DejaVuSans-53"/>
      </g>
     </g>
    </g>
    <g id="xtick_4">
     <g id="line2d_4">
      <g>
       <use style="stroke:#000000;stroke-width:0.8;" x="365.121534" xlink:href="#mf747e5cbd2" y="433.16125"/>
      </g>
     </g>
     <g id="text_4">
      <!-- 20 -->
      <defs>
       <path d="M 19.1875 8.296875 
L 53.609375 8.296875 
L 53.609375 0 
L 7.328125 0 
L 7.328125 8.296875 
Q 12.9375 14.109375 22.625 23.890625 
Q 32.328125 33.6875 34.8125 36.53125 
Q 39.546875 41.84375 41.421875 45.53125 
Q 43.3125 49.21875 43.3125 52.78125 
Q 43.3125 58.59375 39.234375 62.25 
Q 35.15625 65.921875 28.609375 65.921875 
Q 23.96875 65.921875 18.8125 64.3125 
Q 13.671875 62.703125 7.8125 59.421875 
L 7.8125 69.390625 
Q 13.765625 71.78125 18.9375 73 
Q 24.125 74.21875 28.421875 74.21875 
Q 39.75 74.21875 46.484375 68.546875 
Q 53.21875 62.890625 53.21875 53.421875 
Q 53.21875 48.921875 51.53125 44.890625 
Q 49.859375 40.875 45.40625 35.40625 
Q 44.1875 33.984375 37.640625 27.21875 
Q 31.109375 20.453125 19.1875 8.296875 
z
" id="DejaVuSans-50"/>
      </defs>
      <g transform="translate(346.034034 462.956562)scale(0.3 -0.3)">
       <use xlink:href="#DejaVuSans-50"/>
       <use x="63.623047" xlink:href="#DejaVuSans-48"/>
      </g>
     </g>
    </g>
    <g id="xtick_5">
     <g id="line2d_5">
      <g>
       <use style="stroke:#000000;stroke-width:0.8;" x="424.303352" xlink:href="#mf747e5cbd2" y="433.16125"/>
      </g>
     </g>
     <g id="text_5">
      <!-- 25 -->
      <g transform="translate(405.215852 462.956562)scale(0.3 -0.3)">
       <use xlink:href="#DejaVuSans-50"/>
       <use x="63.623047" xlink:href="#DejaVuSans-53"/>
      </g>
     </g>
    </g>
    <g id="xtick_6">
     <g id="line2d_6">
      <g>
       <use style="stroke:#000000;stroke-width:0.8;" x="483.48517" xlink:href="#mf747e5cbd2" y="433.16125"/>
      </g>
     </g>
     <g id="text_6">
      <!-- 30 -->
      <defs>
       <path d="M 40.578125 39.3125 
Q 47.65625 37.796875 51.625 33 
Q 55.609375 28.21875 55.609375 21.1875 
Q 55.609375 10.40625 48.1875 4.484375 
Q 40.765625 -1.421875 27.09375 -1.421875 
Q 22.515625 -1.421875 17.65625 -0.515625 
Q 12.796875 0.390625 7.625 2.203125 
L 7.625 11.71875 
Q 11.71875 9.328125 16.59375 8.109375 
Q 21.484375 6.890625 26.8125 6.890625 
Q 36.078125 6.890625 40.9375 10.546875 
Q 45.796875 14.203125 45.796875 21.1875 
Q 45.796875 27.640625 41.28125 31.265625 
Q 36.765625 34.90625 28.71875 34.90625 
L 20.21875 34.90625 
L 20.21875 43.015625 
L 29.109375 43.015625 
Q 36.375 43.015625 40.234375 45.921875 
Q 44.09375 48.828125 44.09375 54.296875 
Q 44.09375 59.90625 40.109375 62.90625 
Q 36.140625 65.921875 28.71875 65.921875 
Q 24.65625 65.921875 20.015625 65.03125 
Q 15.375 64.15625 9.8125 62.3125 
L 9.8125 71.09375 
Q 15.4375 72.65625 20.34375 73.4375 
Q 25.25 74.21875 29.59375 74.21875 
Q 40.828125 74.21875 47.359375 69.109375 
Q 53.90625 64.015625 53.90625 55.328125 
Q 53.90625 49.265625 50.4375 45.09375 
Q 46.96875 40.921875 40.578125 39.3125 
z
" id="DejaVuSans-51"/>
      </defs>
      <g transform="translate(464.39767 462.956562)scale(0.3 -0.3)">
       <use xlink:href="#DejaVuSans-51"/>
       <use x="63.623047" xlink:href="#DejaVuSans-48"/>
      </g>
     </g>
    </g>
    <g id="text_7">
     <!-- RADIUS -->
     <defs>
      <path d="M 7.328125 0 
L 7.328125 71.578125 
L 37.75 71.578125 
Q 49.21875 71.578125 54.421875 69.640625 
Q 59.625 67.71875 62.75 62.78125 
Q 65.875 57.859375 65.875 51.515625 
Q 65.875 43.453125 61.125 38.203125 
Q 56.390625 32.953125 46.96875 31.59375 
Q 51.65625 28.859375 54.703125 25.578125 
Q 57.765625 22.3125 62.9375 13.96875 
L 71.6875 0 
L 54.390625 0 
L 43.953125 15.578125 
Q 38.375 23.921875 36.328125 26.09375 
Q 34.28125 28.265625 31.984375 29.078125 
Q 29.6875 29.890625 24.703125 29.890625 
L 21.78125 29.890625 
L 21.78125 0 
z
M 21.78125 41.3125 
L 32.46875 41.3125 
Q 42.875 41.3125 45.453125 42.1875 
Q 48.046875 43.0625 49.515625 45.203125 
Q 50.984375 47.359375 50.984375 50.59375 
Q 50.984375 54.203125 49.046875 56.421875 
Q 47.125 58.640625 43.609375 59.234375 
Q 41.84375 59.46875 33.0625 59.46875 
L 21.78125 59.46875 
z
" id="Arial-BoldMT-82"/>
      <path d="M 71.828125 0 
L 56.109375 0 
L 49.859375 16.265625 
L 21.234375 16.265625 
L 15.328125 0 
L 0 0 
L 27.875 71.578125 
L 43.171875 71.578125 
z
M 45.21875 28.328125 
L 35.359375 54.890625 
L 25.6875 28.328125 
z
" id="Arial-BoldMT-65"/>
      <path d="M 7.234375 71.578125 
L 33.640625 71.578125 
Q 42.578125 71.578125 47.265625 70.21875 
Q 53.5625 68.359375 58.046875 63.625 
Q 62.546875 58.890625 64.890625 52.03125 
Q 67.234375 45.171875 67.234375 35.109375 
Q 67.234375 26.265625 65.046875 19.875 
Q 62.359375 12.0625 57.375 7.234375 
Q 53.609375 3.5625 47.21875 1.515625 
Q 42.4375 0 34.421875 0 
L 7.234375 0 
z
M 21.6875 59.46875 
L 21.6875 12.0625 
L 32.46875 12.0625 
Q 38.53125 12.0625 41.21875 12.75 
Q 44.734375 13.625 47.046875 15.71875 
Q 49.359375 17.828125 50.828125 22.625 
Q 52.296875 27.4375 52.296875 35.75 
Q 52.296875 44.046875 50.828125 48.484375 
Q 49.359375 52.9375 46.71875 55.421875 
Q 44.09375 57.90625 40.046875 58.796875 
Q 37.015625 59.46875 28.171875 59.46875 
z
" id="Arial-BoldMT-68"/>
      <path d="M 6.84375 0 
L 6.84375 71.578125 
L 21.296875 71.578125 
L 21.296875 0 
z
" id="Arial-BoldMT-73"/>
      <path d="M 7.171875 71.578125 
L 21.625 71.578125 
L 21.625 32.8125 
Q 21.625 23.578125 22.171875 20.84375 
Q 23.09375 16.453125 26.578125 13.796875 
Q 30.078125 11.140625 36.140625 11.140625 
Q 42.28125 11.140625 45.40625 13.640625 
Q 48.53125 16.15625 49.171875 19.8125 
Q 49.8125 23.484375 49.8125 31.984375 
L 49.8125 71.578125 
L 64.265625 71.578125 
L 64.265625 33.984375 
Q 64.265625 21.09375 63.09375 15.765625 
Q 61.921875 10.453125 58.765625 6.78125 
Q 55.609375 3.125 50.328125 0.953125 
Q 45.0625 -1.21875 36.578125 -1.21875 
Q 26.3125 -1.21875 21.015625 1.140625 
Q 15.71875 3.515625 12.640625 7.296875 
Q 9.578125 11.078125 8.59375 15.234375 
Q 7.171875 21.390625 7.171875 33.40625 
z
" id="Arial-BoldMT-85"/>
      <path d="M 3.609375 23.296875 
L 17.671875 24.65625 
Q 18.953125 17.578125 22.828125 14.25 
Q 26.703125 10.9375 33.296875 10.9375 
Q 40.28125 10.9375 43.8125 13.890625 
Q 47.359375 16.84375 47.359375 20.796875 
Q 47.359375 23.34375 45.875 25.125 
Q 44.390625 26.90625 40.671875 28.21875 
Q 38.140625 29.109375 29.109375 31.34375 
Q 17.484375 34.234375 12.796875 38.421875 
Q 6.203125 44.34375 6.203125 52.828125 
Q 6.203125 58.296875 9.296875 63.0625 
Q 12.40625 67.828125 18.234375 70.3125 
Q 24.078125 72.796875 32.328125 72.796875 
Q 45.796875 72.796875 52.609375 66.890625 
Q 59.421875 60.984375 59.765625 51.125 
L 45.3125 50.484375 
Q 44.390625 56 41.328125 58.421875 
Q 38.28125 60.84375 32.171875 60.84375 
Q 25.875 60.84375 22.3125 58.25 
Q 20.015625 56.59375 20.015625 53.8125 
Q 20.015625 51.265625 22.171875 49.46875 
Q 24.90625 47.171875 35.453125 44.671875 
Q 46 42.1875 51.046875 39.515625 
Q 56.109375 36.859375 58.953125 32.25 
Q 61.8125 27.640625 61.8125 20.84375 
Q 61.8125 14.703125 58.390625 9.328125 
Q 54.984375 3.953125 48.734375 1.34375 
Q 42.484375 -1.265625 33.15625 -1.265625 
Q 19.578125 -1.265625 12.296875 5 
Q 5.03125 11.28125 3.609375 23.296875 
z
" id="Arial-BoldMT-83"/>
     </defs>
     <g transform="translate(297.194687 493.51125)scale(0.2 -0.2)">
      <use xlink:href="#Arial-BoldMT-82"/>
      <use x="72.216797" xlink:href="#Arial-BoldMT-65"/>
      <use x="144.433594" xlink:href="#Arial-BoldMT-68"/>
      <use x="216.650391" xlink:href="#Arial-BoldMT-73"/>
      <use x="244.433594" xlink:href="#Arial-BoldMT-85"/>
      <use x="316.650391" xlink:href="#Arial-BoldMT-83"/>
     </g>
    </g>
   </g>
   <g id="matplotlib.axis_2">
    <g id="ytick_1">
     <g id="line2d_7">
      <defs>
       <path d="M 0 0 
L -3.5 0 
" id="m3d8f83e0e5" style="stroke:#000000;stroke-width:0.8;"/>
      </defs>
      <g>
       <use style="stroke:#000000;stroke-width:0.8;" x="140.230625" xlink:href="#m3d8f83e0e5" y="433.16125"/>
      </g>
     </g>
     <g id="text_8">
      <!-- 0 -->
      <g transform="translate(114.143125 444.558906)scale(0.3 -0.3)">
       <use xlink:href="#DejaVuSans-48"/>
      </g>
     </g>
    </g>
    <g id="ytick_2">
     <g id="line2d_8">
      <g>
       <use style="stroke:#000000;stroke-width:0.8;" x="140.230625" xlink:href="#m3d8f83e0e5" y="366.787624"/>
      </g>
     </g>
     <g id="text_9">
      <!-- 500 -->
      <g transform="translate(75.968125 378.18528)scale(0.3 -0.3)">
       <use xlink:href="#DejaVuSans-53"/>
       <use x="63.623047" xlink:href="#DejaVuSans-48"/>
       <use x="127.246094" xlink:href="#DejaVuSans-48"/>
      </g>
     </g>
    </g>
    <g id="ytick_3">
     <g id="line2d_9">
      <g>
       <use style="stroke:#000000;stroke-width:0.8;" x="140.230625" xlink:href="#m3d8f83e0e5" y="300.413997"/>
      </g>
     </g>
     <g id="text_10">
      <!-- 1000 -->
      <g transform="translate(56.880625 311.811654)scale(0.3 -0.3)">
       <use xlink:href="#DejaVuSans-49"/>
       <use x="63.623047" xlink:href="#DejaVuSans-48"/>
       <use x="127.246094" xlink:href="#DejaVuSans-48"/>
       <use x="190.869141" xlink:href="#DejaVuSans-48"/>
      </g>
     </g>
    </g>
    <g id="ytick_4">
     <g id="line2d_10">
      <g>
       <use style="stroke:#000000;stroke-width:0.8;" x="140.230625" xlink:href="#m3d8f83e0e5" y="234.040371"/>
      </g>
     </g>
     <g id="text_11">
      <!-- 1500 -->
      <g transform="translate(56.880625 245.438027)scale(0.3 -0.3)">
       <use xlink:href="#DejaVuSans-49"/>
       <use x="63.623047" xlink:href="#DejaVuSans-53"/>
       <use x="127.246094" xlink:href="#DejaVuSans-48"/>
       <use x="190.869141" xlink:href="#DejaVuSans-48"/>
      </g>
     </g>
    </g>
    <g id="ytick_5">
     <g id="line2d_11">
      <g>
       <use style="stroke:#000000;stroke-width:0.8;" x="140.230625" xlink:href="#m3d8f83e0e5" y="167.666745"/>
      </g>
     </g>
     <g id="text_12">
      <!-- 2000 -->
      <g transform="translate(56.880625 179.064401)scale(0.3 -0.3)">
       <use xlink:href="#DejaVuSans-50"/>
       <use x="63.623047" xlink:href="#DejaVuSans-48"/>
       <use x="127.246094" xlink:href="#DejaVuSans-48"/>
       <use x="190.869141" xlink:href="#DejaVuSans-48"/>
      </g>
     </g>
    </g>
    <g id="ytick_6">
     <g id="line2d_12">
      <g>
       <use style="stroke:#000000;stroke-width:0.8;" x="140.230625" xlink:href="#m3d8f83e0e5" y="101.293118"/>
      </g>
     </g>
     <g id="text_13">
      <!-- 2500 -->
      <g transform="translate(56.880625 112.690774)scale(0.3 -0.3)">
       <use xlink:href="#DejaVuSans-50"/>
       <use x="63.623047" xlink:href="#DejaVuSans-53"/>
       <use x="127.246094" xlink:href="#DejaVuSans-48"/>
       <use x="190.869141" xlink:href="#DejaVuSans-48"/>
      </g>
     </g>
    </g>
    <g id="text_14">
     <!-- CD4 LIVE -->
     <defs>
      <path d="M 53.078125 26.3125 
L 67.09375 21.875 
Q 63.875 10.15625 56.375 4.46875 
Q 48.875 -1.21875 37.359375 -1.21875 
Q 23.09375 -1.21875 13.90625 8.515625 
Q 4.734375 18.265625 4.734375 35.15625 
Q 4.734375 53.03125 13.953125 62.90625 
Q 23.1875 72.796875 38.234375 72.796875 
Q 51.375 72.796875 59.578125 65.046875 
Q 64.453125 60.453125 66.890625 51.859375 
L 52.59375 48.4375 
Q 51.3125 54 47.28125 57.21875 
Q 43.265625 60.453125 37.5 60.453125 
Q 29.546875 60.453125 24.578125 54.734375 
Q 19.625 49.03125 19.625 36.234375 
Q 19.625 22.65625 24.5 16.890625 
Q 29.390625 11.140625 37.203125 11.140625 
Q 42.96875 11.140625 47.109375 14.796875 
Q 51.265625 18.453125 53.078125 26.3125 
z
" id="Arial-BoldMT-67"/>
      <path d="M 31.15625 0 
L 31.15625 14.40625 
L 1.859375 14.40625 
L 1.859375 26.421875 
L 32.90625 71.875 
L 44.4375 71.875 
L 44.4375 26.46875 
L 53.328125 26.46875 
L 53.328125 14.40625 
L 44.4375 14.40625 
L 44.4375 0 
z
M 31.15625 26.46875 
L 31.15625 50.921875 
L 14.703125 26.46875 
z
" id="Arial-BoldMT-52"/>
      <path id="Arial-BoldMT-32"/>
      <path d="M 7.671875 0 
L 7.671875 71 
L 22.125 71 
L 22.125 12.0625 
L 58.0625 12.0625 
L 58.0625 0 
z
" id="Arial-BoldMT-76"/>
      <path d="M 25.53125 0 
L -0.046875 71.578125 
L 15.625 71.578125 
L 33.734375 18.609375 
L 51.265625 71.578125 
L 66.609375 71.578125 
L 40.96875 0 
z
" id="Arial-BoldMT-86"/>
      <path d="M 7.28125 0 
L 7.28125 71.578125 
L 60.359375 71.578125 
L 60.359375 59.46875 
L 21.734375 59.46875 
L 21.734375 43.609375 
L 57.671875 43.609375 
L 57.671875 31.546875 
L 21.734375 31.546875 
L 21.734375 12.0625 
L 61.71875 12.0625 
L 61.71875 0 
z
" id="Arial-BoldMT-69"/>
     </defs>
     <g transform="translate(21.253125 287.910625)rotate(-90)scale(0.2 -0.2)">
      <use xlink:href="#Arial-BoldMT-67"/>
      <use x="72.216797" xlink:href="#Arial-BoldMT-68"/>
      <use x="144.433594" xlink:href="#Arial-BoldMT-52"/>
      <use x="200.048828" xlink:href="#Arial-BoldMT-32"/>
      <use x="227.832031" xlink:href="#Arial-BoldMT-76"/>
      <use x="288.916016" xlink:href="#Arial-BoldMT-73"/>
      <use x="316.699219" xlink:href="#Arial-BoldMT-86"/>
      <use x="383.398438" xlink:href="#Arial-BoldMT-69"/>
     </g>
     <!-- CELL COUNTS (NUMBERS) -->
     <defs>
      <path d="M 4.34375 35.359375 
Q 4.34375 46.296875 7.625 53.71875 
Q 10.0625 59.1875 14.28125 63.53125 
Q 18.5 67.875 23.53125 69.96875 
Q 30.21875 72.796875 38.96875 72.796875 
Q 54.78125 72.796875 64.28125 62.984375 
Q 73.78125 53.171875 73.78125 35.6875 
Q 73.78125 18.359375 64.359375 8.5625 
Q 54.9375 -1.21875 39.15625 -1.21875 
Q 23.1875 -1.21875 13.765625 8.515625 
Q 4.34375 18.265625 4.34375 35.359375 
z
M 19.234375 35.84375 
Q 19.234375 23.6875 24.84375 17.40625 
Q 30.46875 11.140625 39.109375 11.140625 
Q 47.75 11.140625 53.296875 17.359375 
Q 58.84375 23.578125 58.84375 36.03125 
Q 58.84375 48.34375 53.4375 54.390625 
Q 48.046875 60.453125 39.109375 60.453125 
Q 30.171875 60.453125 24.703125 54.3125 
Q 19.234375 48.1875 19.234375 35.84375 
z
" id="Arial-BoldMT-79"/>
      <path d="M 7.421875 0 
L 7.421875 71.578125 
L 21.484375 71.578125 
L 50.78125 23.78125 
L 50.78125 71.578125 
L 64.203125 71.578125 
L 64.203125 0 
L 49.703125 0 
L 20.84375 46.6875 
L 20.84375 0 
z
" id="Arial-BoldMT-78"/>
      <path d="M 23.390625 0 
L 23.390625 59.46875 
L 2.15625 59.46875 
L 2.15625 71.578125 
L 59.03125 71.578125 
L 59.03125 59.46875 
L 37.84375 59.46875 
L 37.84375 0 
z
" id="Arial-BoldMT-84"/>
      <path d="M 29.9375 -21.046875 
L 20.515625 -21.046875 
Q 13.03125 -9.765625 9.125 2.390625 
Q 5.21875 14.546875 5.21875 25.921875 
Q 5.21875 40.046875 10.0625 52.640625 
Q 14.265625 63.578125 20.703125 72.796875 
L 30.078125 72.796875 
Q 23.390625 58.015625 20.875 47.625 
Q 18.359375 37.25 18.359375 25.640625 
Q 18.359375 17.625 19.84375 9.21875 
Q 21.34375 0.828125 23.921875 -6.734375 
Q 25.640625 -11.71875 29.9375 -21.046875 
z
" id="Arial-BoldMT-40"/>
      <path d="M 7.078125 0 
L 7.078125 71.578125 
L 28.71875 71.578125 
L 41.703125 22.75 
L 54.546875 71.578125 
L 76.21875 71.578125 
L 76.21875 0 
L 62.796875 0 
L 62.796875 56.34375 
L 48.578125 0 
L 34.671875 0 
L 20.515625 56.34375 
L 20.515625 0 
z
" id="Arial-BoldMT-77"/>
      <path d="M 7.328125 71.578125 
L 35.9375 71.578125 
Q 44.4375 71.578125 48.609375 70.875 
Q 52.78125 70.171875 56.078125 67.921875 
Q 59.375 65.671875 61.5625 61.9375 
Q 63.765625 58.203125 63.765625 53.5625 
Q 63.765625 48.53125 61.046875 44.328125 
Q 58.34375 40.140625 53.71875 38.03125 
Q 60.25 36.140625 63.765625 31.546875 
Q 67.28125 26.953125 67.28125 20.75 
Q 67.28125 15.875 65.015625 11.25 
Q 62.75 6.640625 58.8125 3.875 
Q 54.890625 1.125 49.125 0.484375 
Q 45.515625 0.09375 31.6875 0 
L 7.328125 0 
z
M 21.78125 59.671875 
L 21.78125 43.109375 
L 31.25 43.109375 
Q 39.703125 43.109375 41.75 43.359375 
Q 45.453125 43.796875 47.578125 45.921875 
Q 49.703125 48.046875 49.703125 51.515625 
Q 49.703125 54.828125 47.875 56.90625 
Q 46.046875 58.984375 42.4375 59.421875 
Q 40.28125 59.671875 30.078125 59.671875 
z
M 21.78125 31.203125 
L 21.78125 12.0625 
L 35.15625 12.0625 
Q 42.96875 12.0625 45.0625 12.5 
Q 48.296875 13.09375 50.3125 15.359375 
Q 52.34375 17.625 52.34375 21.4375 
Q 52.34375 24.65625 50.78125 26.90625 
Q 49.21875 29.15625 46.265625 30.171875 
Q 43.3125 31.203125 33.453125 31.203125 
z
" id="Arial-BoldMT-66"/>
      <path d="M 3.375 -21.046875 
Q 7.421875 -12.359375 9.078125 -7.71875 
Q 10.75 -3.078125 12.15625 2.96875 
Q 13.578125 9.03125 14.25 14.46875 
Q 14.9375 19.921875 14.9375 25.640625 
Q 14.9375 37.25 12.453125 47.625 
Q 9.96875 58.015625 3.265625 72.796875 
L 12.59375 72.796875 
Q 19.96875 62.3125 24.046875 50.53125 
Q 28.125 38.765625 28.125 26.65625 
Q 28.125 16.453125 24.90625 4.78125 
Q 21.234375 -8.296875 12.84375 -21.046875 
z
" id="Arial-BoldMT-41"/>
     </defs>
     <g transform="translate(42.67125 374.002812)rotate(-90)scale(0.2 -0.2)">
      <use xlink:href="#Arial-BoldMT-67"/>
      <use x="72.216797" xlink:href="#Arial-BoldMT-69"/>
      <use x="138.916016" xlink:href="#Arial-BoldMT-76"/>
      <use x="200" xlink:href="#Arial-BoldMT-76"/>
      <use x="261.068359" xlink:href="#Arial-BoldMT-32"/>
      <use x="288.851562" xlink:href="#Arial-BoldMT-67"/>
      <use x="361.068359" xlink:href="#Arial-BoldMT-79"/>
      <use x="438.851562" xlink:href="#Arial-BoldMT-85"/>
      <use x="511.068359" xlink:href="#Arial-BoldMT-78"/>
      <use x="583.285156" xlink:href="#Arial-BoldMT-84"/>
      <use x="644.369141" xlink:href="#Arial-BoldMT-83"/>
      <use x="711.068359" xlink:href="#Arial-BoldMT-32"/>
      <use x="738.851562" xlink:href="#Arial-BoldMT-40"/>
      <use x="772.152344" xlink:href="#Arial-BoldMT-78"/>
      <use x="844.369141" xlink:href="#Arial-BoldMT-85"/>
      <use x="916.585938" xlink:href="#Arial-BoldMT-77"/>
      <use x="999.886719" xlink:href="#Arial-BoldMT-66"/>
      <use x="1072.103516" xlink:href="#Arial-BoldMT-69"/>
      <use x="1138.802734" xlink:href="#Arial-BoldMT-82"/>
      <use x="1211.019531" xlink:href="#Arial-BoldMT-83"/>
      <use x="1277.71875" xlink:href="#Arial-BoldMT-41"/>
     </g>
    </g>
   </g>
   <g id="line2d_13">
    <path clip-path="url(#p050195a7bc)" d="M 140.230625 431.833777 
L 152.066989 417.629821 
L 163.903352 410.328723 
L 175.739716 404.355096 
L 187.57608 403.293118 
L 199.412443 398.38147 
L 211.248807 384.177514 
L 223.08517 356.964327 
L 234.921534 346.477294 
L 246.757898 336.653997 
L 258.594261 330.813118 
L 270.430625 317.538393 
L 282.266989 326.166964 
L 294.103352 329.75114 
L 305.939716 319.927843 
L 317.77608 322.051799 
L 329.612443 316.609162 
L 341.448807 291.918173 
L 353.28517 271.475096 
L 365.121534 259.262349 
L 376.957898 249.837294 
L 388.794261 248.244327 
L 400.630625 236.297074 
L 412.466989 242.668942 
L 424.303352 229.394217 
L 436.139716 214.526525 
L 447.97608 201.251799 
L 459.812443 188.375316 
L 471.648807 158.639931 
L 483.48517 147.223668 
L 495.321534 141.382788 
L 507.157898 124.922129 
L 518.994261 121.603448 
L 530.830625 97.177953 
" style="fill:none;stroke:#08306b;stroke-linecap:square;stroke-width:1.5;"/>
   </g>
   <g id="line2d_14">
    <path clip-path="url(#p050195a7bc)" d="M 140.230625 430.771799 
L 152.066989 423.470701 
L 163.903352 413.514657 
L 175.739716 405.948063 
L 187.57608 387.894437 
L 199.412443 371.30103 
L 211.248807 360.813997 
L 223.08517 354.442129 
L 234.921534 350.592459 
L 246.757898 354.309382 
L 258.594261 359.752019 
L 270.430625 367.45136 
L 282.266989 362.008723 
L 294.103352 363.734437 
L 305.939716 349.264986 
L 317.77608 316.21092 
L 329.612443 299.750261 
L 341.448807 292.183668 
L 353.28517 273.466305 
L 365.121534 274.528283 
L 376.957898 254.748942 
L 388.794261 247.846085 
L 400.630625 247.447843 
L 412.466989 226.872019 
L 424.303352 222.624107 
L 436.139716 199.526085 
L 447.97608 174.702349 
L 459.812443 178.950261 
L 471.648807 204.039492 
L 483.48517 194.083448 
L 495.321534 162.356854 
L 507.157898 150.01136 
L 518.994261 132.223228 
L 530.830625 142.046525 
" style="fill:none;stroke:#08306b;stroke-linecap:square;stroke-width:1.5;"/>
   </g>
   <g id="line2d_15">
    <path clip-path="url(#p050195a7bc)" d="M 140.230625 431.568283 
L 152.066989 426.922129 
L 163.903352 419.090041 
L 175.739716 410.859712 
L 187.57608 399.177953 
L 199.412443 393.868063 
L 211.248807 393.337074 
L 223.08517 386.566964 
L 234.921534 384.044766 
L 246.757898 376.876415 
L 258.594261 353.645646 
L 270.430625 338.910701 
L 282.266989 324.839492 
L 294.103352 317.007404 
L 305.939716 305.856635 
L 317.77608 300.944986 
L 329.612443 287.935755 
L 341.448807 268.289162 
L 353.28517 245.722129 
L 365.121534 222.624107 
L 376.957898 210.809602 
L 388.794261 219.57092 
L 400.630625 216.384986 
L 412.466989 205.234217 
L 424.303352 204.304986 
L 436.139716 226.208283 
L 447.97608 232.049162 
L 459.812443 221.296635 
L 471.648807 204.570481 
L 483.48517 196.207404 
L 495.321534 193.817953 
L 507.157898 166.472019 
L 518.994261 132.223228 
L 530.830625 127.577074 
" style="fill:none;stroke:#08306b;stroke-linecap:square;stroke-width:1.5;"/>
   </g>
   <g id="line2d_16">
    <path clip-path="url(#p050195a7bc)" d="M 140.230625 430.771799 
L 152.066989 421.744986 
L 163.903352 414.178393 
L 175.739716 411.257953 
L 187.57608 413.780151 
L 199.412443 401.965646 
L 211.248807 392.540591 
L 223.08517 374.885206 
L 234.921534 360.150261 
L 246.757898 351.654437 
L 258.594261 348.335755 
L 270.430625 337.715975 
L 282.266989 328.29092 
L 294.103352 320.193338 
L 305.939716 317.538393 
L 317.77608 317.803887 
L 329.612443 298.688283 
L 341.448807 288.864986 
L 353.28517 295.369602 
L 365.121534 288.068503 
L 376.957898 277.714217 
L 388.794261 273.333558 
L 400.630625 254.217953 
L 412.466989 232.712898 
L 424.303352 219.305426 
L 436.139716 209.482129 
L 447.97608 183.065426 
L 459.812443 190.499272 
L 471.648807 187.977074 
L 483.48517 165.277294 
L 495.321534 142.577514 
L 507.157898 103.15158 
L 518.994261 100.098393 
L 530.830625 85.363448 
" style="fill:none;stroke:#08306b;stroke-linecap:square;stroke-width:1.5;"/>
   </g>
   <g id="line2d_17">
    <path clip-path="url(#p050195a7bc)" d="M 140.230625 431.170041 
L 152.066989 424.00169 
L 163.903352 417.895316 
L 175.739716 410.594217 
L 187.57608 407.673777 
L 199.412443 396.788503 
L 211.248807 378.734876 
L 223.08517 367.45136 
L 234.921534 348.733997 
L 246.757898 325.768723 
L 258.594261 337.317734 
L 270.430625 338.114217 
L 282.266989 326.299712 
L 294.103352 315.28169 
L 305.939716 326.299712 
L 317.77608 335.193777 
L 329.612443 327.494437 
L 341.448807 331.344107 
L 353.28517 314.086964 
L 365.121534 273.599052 
L 376.957898 245.589382 
L 388.794261 206.959931 
L 400.630625 176.56081 
L 412.466989 173.109382 
L 424.303352 181.472459 
L 436.139716 189.437294 
L 447.97608 204.172239 
L 459.812443 215.323008 
L 471.648807 204.835975 
L 483.48517 189.968283 
L 495.321534 164.879052 
L 507.157898 141.250041 
L 518.994261 117.222788 
L 530.830625 124.258393 
" style="fill:none;stroke:#08306b;stroke-linecap:square;stroke-width:1.5;"/>
   </g>
   <g id="line2d_18">
    <path clip-path="url(#p050195a7bc)" d="M 140.230625 432.364766 
L 152.066989 428.249602 
L 163.903352 425.594657 
L 175.739716 417.629821 
L 187.57608 401.965646 
L 199.412443 390.682129 
L 211.248807 371.832019 
L 223.08517 358.026305 
L 234.921534 355.238613 
L 246.757898 352.052679 
L 258.594261 356.566085 
L 270.430625 354.574876 
L 282.266989 344.75158 
L 294.103352 328.158173 
L 305.939716 316.476415 
L 317.77608 324.972239 
L 329.612443 330.813118 
L 341.448807 317.803887 
L 353.28517 298.157294 
L 365.121534 278.510701 
L 376.957898 268.952898 
L 388.794261 265.766964 
L 400.630625 238.553777 
L 412.466989 216.650481 
L 424.303352 181.074217 
L 436.139716 151.073338 
L 447.97608 149.347624 
L 459.812443 148.285646 
L 471.648807 138.462349 
L 483.48517 160.100151 
L 495.321534 168.463228 
L 507.157898 153.330041 
L 518.994261 165.410041 
L 530.830625 167.003008 
" style="fill:none;stroke:#08306b;stroke-linecap:square;stroke-width:1.5;"/>
   </g>
   <g id="line2d_19">
    <path clip-path="url(#p050195a7bc)" d="M 140.230625 433.028503 
L 152.066989 429.842569 
L 163.903352 422.674217 
L 175.739716 410.328723 
L 187.57608 401.700151 
L 199.412443 395.062788 
L 211.248807 375.947184 
L 223.08517 361.344986 
L 234.921534 350.459712 
L 246.757898 348.999492 
L 258.594261 352.185426 
L 270.430625 344.486085 
L 282.266989 324.308503 
L 294.103352 307.582349 
L 305.939716 294.838613 
L 317.77608 307.05136 
L 329.612443 307.316854 
L 341.448807 309.175316 
L 353.28517 303.20169 
L 365.121534 293.51114 
L 376.957898 280.501909 
L 388.794261 256.607404 
L 400.630625 233.509382 
L 412.466989 206.296195 
L 424.303352 220.632898 
L 436.139716 203.906745 
L 447.97608 173.242129 
L 459.812443 167.666745 
L 471.648807 152.799052 
L 483.48517 168.064986 
L 495.321534 156.648723 
L 507.157898 165.675536 
L 518.994261 173.374876 
L 530.830625 184.260151 
" style="fill:none;stroke:#08306b;stroke-linecap:square;stroke-width:1.5;"/>
   </g>
   <g id="line2d_20">
    <path clip-path="url(#p050195a7bc)" d="M 140.230625 431.568283 
L 152.066989 428.780591 
L 163.903352 419.222788 
L 175.739716 413.381909 
L 187.57608 414.842129 
L 199.412443 415.638613 
L 211.248807 409.266745 
L 223.08517 403.293118 
L 234.921534 389.221909 
L 246.757898 363.60169 
L 258.594261 348.60125 
L 270.430625 349.132239 
L 282.266989 336.919492 
L 294.103352 316.078173 
L 305.939716 298.688283 
L 317.77608 282.89136 
L 329.612443 268.687404 
L 341.448807 264.173997 
L 353.28517 270.944107 
L 365.121534 273.997294 
L 376.957898 265.634217 
L 388.794261 239.615755 
L 400.630625 218.508942 
L 412.466989 204.437734 
L 424.303352 224.349821 
L 436.139716 227.668503 
L 447.97608 203.773997 
L 459.812443 183.861909 
L 471.648807 147.489162 
L 483.48517 120.010481 
L 495.321534 119.612239 
L 507.157898 135.143668 
L 518.994261 140.453558 
L 530.830625 160.100151 
" style="fill:none;stroke:#08306b;stroke-linecap:square;stroke-width:1.5;"/>
   </g>
   <g id="line2d_21">
    <path clip-path="url(#p050195a7bc)" d="M 140.230625 432.630261 
L 152.066989 423.736195 
L 163.903352 408.735755 
L 175.739716 395.328283 
L 187.57608 386.832459 
L 199.412443 368.778832 
L 211.248807 362.805206 
L 223.08517 359.619272 
L 234.921534 356.167843 
L 246.757898 346.344547 
L 258.594261 325.768723 
L 270.430625 317.140151 
L 282.266989 305.192898 
L 294.103352 303.998173 
L 305.939716 298.157294 
L 317.77608 293.112898 
L 329.612443 283.024107 
L 341.448807 265.235975 
L 353.28517 241.474217 
L 365.121534 229.394217 
L 376.957898 234.969602 
L 388.794261 247.713338 
L 400.630625 250.235536 
L 412.466989 235.633338 
L 424.303352 217.977953 
L 436.139716 199.79158 
L 447.97608 203.508503 
L 459.812443 201.384547 
L 471.648807 205.897953 
L 483.48517 186.384107 
L 495.321534 172.843887 
L 507.157898 179.613997 
L 518.994261 176.826305 
L 530.830625 175.63158 
" style="fill:none;stroke:#08306b;stroke-linecap:square;stroke-width:1.5;"/>
   </g>
   <g id="line2d_22">
    <path clip-path="url(#p050195a7bc)" d="M 140.230625 430.904547 
L 152.066989 420.284766 
L 163.903352 409.930481 
L 175.739716 395.992019 
L 187.57608 388.159931 
L 199.412443 382.451799 
L 211.248807 383.248283 
L 223.08517 376.876415 
L 234.921534 367.318613 
L 246.757898 367.584107 
L 258.594261 360.415755 
L 270.430625 350.725206 
L 282.266989 319.396854 
L 294.103352 310.104547 
L 305.939716 293.643887 
L 317.77608 283.156854 
L 329.612443 285.944547 
L 341.448807 279.97092 
L 353.28517 288.997734 
L 365.121534 287.404766 
L 376.957898 279.572679 
L 388.794261 277.183228 
L 400.630625 262.58103 
L 412.466989 243.332679 
L 424.303352 200.189821 
L 436.139716 169.790701 
L 447.97608 156.117734 
L 459.812443 153.330041 
L 471.648807 172.71114 
L 483.48517 164.613558 
L 495.321534 153.595536 
L 507.157898 137.267624 
L 518.994261 106.072019 
L 530.830625 93.46103 
" style="fill:none;stroke:#08306b;stroke-linecap:square;stroke-width:1.5;"/>
   </g>
   <g id="line2d_23">
    <path clip-path="url(#p050195a7bc)" d="M 140.230625 431.70103 
L 152.066989 422.939712 
L 163.903352 424.665426 
L 175.739716 420.948503 
L 187.57608 410.594217 
L 199.412443 400.77092 
L 211.248807 392.938832 
L 223.08517 383.646525 
L 234.921534 360.415755 
L 246.757898 338.645206 
L 258.594261 329.618393 
L 270.430625 341.300151 
L 282.266989 337.317734 
L 294.103352 333.202569 
L 305.939716 327.759931 
L 317.77608 328.954657 
L 329.612443 328.29092 
L 341.448807 316.741909 
L 353.28517 318.467624 
L 365.121534 304.396415 
L 376.957898 291.785426 
L 388.794261 270.413118 
L 400.630625 269.882129 
L 412.466989 252.890481 
L 424.303352 242.137953 
L 436.139716 253.554217 
L 447.97608 235.235096 
L 459.812443 218.243448 
L 471.648807 215.588503 
L 483.48517 213.199052 
L 495.321534 211.207843 
L 507.157898 212.004327 
L 518.994261 200.72081 
L 530.830625 212.933558 
" style="fill:none;stroke:#4a98c9;stroke-linecap:square;stroke-width:1.5;"/>
   </g>
   <g id="line2d_24">
    <path clip-path="url(#p050195a7bc)" d="M 140.230625 432.364766 
L 152.066989 427.585865 
L 163.903352 421.744986 
L 175.739716 412.319931 
L 187.57608 399.310701 
L 199.412443 390.416635 
L 211.248807 376.61092 
L 223.08517 375.548942 
L 234.921534 367.053118 
L 246.757898 366.920371 
L 258.594261 364.929162 
L 270.430625 362.672459 
L 282.266989 357.628063 
L 294.103352 370.770041 
L 305.939716 358.026305 
L 317.77608 344.087843 
L 329.612443 337.450481 
L 341.448807 314.883448 
L 353.28517 293.643887 
L 365.121534 281.298393 
L 376.957898 276.519492 
L 388.794261 274.262788 
L 400.630625 266.563448 
L 412.466989 261.917294 
L 424.303352 248.908063 
L 436.139716 231.518173 
L 447.97608 222.49136 
L 459.812443 206.56169 
L 471.648807 204.968723 
L 483.48517 200.455316 
L 495.321534 194.216195 
L 507.157898 199.924327 
L 518.994261 185.720371 
L 530.830625 187.578832 
" style="fill:none;stroke:#4a98c9;stroke-linecap:square;stroke-width:1.5;"/>
   </g>
   <g id="line2d_25">
    <path clip-path="url(#p050195a7bc)" d="M 140.230625 432.099272 
L 152.066989 424.399931 
L 163.903352 422.010481 
L 175.739716 413.116415 
L 187.57608 405.682569 
L 199.412443 401.301909 
L 211.248807 392.938832 
L 223.08517 387.363448 
L 234.921534 377.540151 
L 246.757898 369.575316 
L 258.594261 365.725646 
L 270.430625 349.132239 
L 282.266989 329.352898 
L 294.103352 325.370481 
L 305.939716 301.077734 
L 317.77608 318.467624 
L 329.612443 319.396854 
L 341.448807 310.370041 
L 353.28517 294.042129 
L 365.121534 281.165646 
L 376.957898 275.324766 
L 388.794261 275.059272 
L 400.630625 258.73136 
L 412.466989 258.73136 
L 424.303352 273.333558 
L 436.139716 281.165646 
L 447.97608 274.528283 
L 459.812443 270.81136 
L 471.648807 237.890041 
L 483.48517 218.774437 
L 495.321534 205.10147 
L 507.157898 173.242129 
L 518.994261 172.976635 
L 530.830625 188.242569 
" style="fill:none;stroke:#4a98c9;stroke-linecap:square;stroke-width:1.5;"/>
   </g>
   <g id="line2d_26">
    <path clip-path="url(#p050195a7bc)" d="M 140.230625 432.630261 
L 152.066989 429.842569 
L 163.903352 420.152019 
L 175.739716 416.169602 
L 187.57608 411.788942 
L 199.412443 408.603008 
L 211.248807 400.638173 
L 223.08517 401.832898 
L 234.921534 379.265865 
L 246.757898 373.823228 
L 258.594261 360.017514 
L 270.430625 361.477734 
L 282.266989 354.442129 
L 294.103352 341.565646 
L 305.939716 334.662788 
L 317.77608 337.715975 
L 329.612443 334.264547 
L 341.448807 333.60081 
L 353.28517 336.919492 
L 365.121534 332.538832 
L 376.957898 325.90147 
L 388.794261 313.290481 
L 400.630625 302.670701 
L 412.466989 295.369602 
L 424.303352 263.908503 
L 436.139716 257.27114 
L 447.97608 237.093558 
L 459.812443 230.190701 
L 471.648807 220.234657 
L 483.48517 189.039052 
L 495.321534 175.897074 
L 507.157898 171.781909 
L 518.994261 151.47158 
L 530.830625 193.154217 
" style="fill:none;stroke:#4a98c9;stroke-linecap:square;stroke-width:1.5;"/>
   </g>
   <g id="line2d_27">
    <path clip-path="url(#p050195a7bc)" d="M 140.230625 432.232019 
L 152.066989 428.515096 
L 163.903352 422.275975 
L 175.739716 417.629821 
L 187.57608 409.00125 
L 199.412443 398.38147 
L 211.248807 384.708503 
L 223.08517 373.026745 
L 234.921534 360.017514 
L 246.757898 353.778393 
L 258.594261 350.326964 
L 270.430625 347.14103 
L 282.266989 321.786305 
L 294.103352 331.476854 
L 305.939716 343.822349 
L 317.77608 335.459272 
L 329.612443 332.007843 
L 341.448807 324.706745 
L 353.28517 312.095755 
L 365.121534 285.148063 
L 376.957898 272.404327 
L 388.794261 249.04081 
L 400.630625 216.783228 
L 412.466989 199.127843 
L 424.303352 201.782788 
L 436.139716 218.907184 
L 447.97608 220.632898 
L 459.812443 234.173118 
L 471.648807 219.836415 
L 483.48517 218.110701 
L 495.321534 200.057074 
L 507.157898 208.287404 
L 518.994261 192.755975 
L 530.830625 198.596854 
" style="fill:none;stroke:#4a98c9;stroke-linecap:square;stroke-width:1.5;"/>
   </g>
   <g id="line2d_28">
    <path clip-path="url(#p050195a7bc)" d="M 140.230625 431.833777 
L 152.066989 426.789382 
L 163.903352 414.709382 
L 175.739716 411.656195 
L 187.57608 409.930481 
L 199.412443 402.629382 
L 211.248807 395.46103 
L 223.08517 389.487404 
L 234.921534 373.159492 
L 246.757898 371.035536 
L 258.594261 362.937953 
L 270.430625 353.512898 
L 282.266989 352.849162 
L 294.103352 351.388942 
L 305.939716 354.840371 
L 317.77608 350.326964 
L 329.612443 330.680371 
L 341.448807 327.759931 
L 353.28517 313.157734 
L 365.121534 302.139712 
L 376.957898 295.369602 
L 388.794261 290.059712 
L 400.630625 269.35114 
L 412.466989 262.050041 
L 424.303352 238.022788 
L 436.139716 216.915975 
L 447.97608 191.163008 
L 459.812443 184.79114 
L 471.648807 194.348942 
L 483.48517 194.614437 
L 495.321534 184.658393 
L 507.157898 195.676415 
L 518.994261 213.730041 
L 530.830625 232.447404 
" style="fill:none;stroke:#4a98c9;stroke-linecap:square;stroke-width:1.5;"/>
   </g>
   <g id="line2d_29">
    <path clip-path="url(#p050195a7bc)" d="M 140.230625 432.895755 
L 152.066989 429.975316 
L 163.903352 426.789382 
L 175.739716 419.222788 
L 187.57608 411.92169 
L 199.412443 396.92125 
L 211.248807 370.504547 
L 223.08517 358.955536 
L 234.921534 356.698832 
L 246.757898 335.592019 
L 258.594261 335.193777 
L 270.430625 326.166964 
L 282.266989 325.768723 
L 294.103352 328.821909 
L 305.939716 335.459272 
L 317.77608 321.388063 
L 329.612443 312.759492 
L 341.448807 306.918613 
L 353.28517 310.635536 
L 365.121534 299.883008 
L 376.957898 280.501909 
L 388.794261 271.873338 
L 400.630625 265.766964 
L 412.466989 269.616635 
L 424.303352 254.217953 
L 436.139716 237.359052 
L 447.97608 221.562129 
L 459.812443 211.606085 
L 471.648807 210.41136 
L 483.48517 191.428503 
L 495.321534 198.065865 
L 507.157898 204.304986 
L 518.994261 188.906305 
L 530.830625 214.128283 
" style="fill:none;stroke:#4a98c9;stroke-linecap:square;stroke-width:1.5;"/>
   </g>
   <g id="line2d_30">
    <path clip-path="url(#p050195a7bc)" d="M 140.230625 431.302788 
L 152.066989 424.93092 
L 163.903352 421.346745 
L 175.739716 414.31114 
L 187.57608 409.532239 
L 199.412443 408.868503 
L 211.248807 398.514217 
L 223.08517 382.186305 
L 234.921534 362.672459 
L 246.757898 363.734437 
L 258.594261 365.061909 
L 270.430625 357.628063 
L 282.266989 359.088283 
L 294.103352 338.379712 
L 305.939716 325.90147 
L 317.77608 316.476415 
L 329.612443 318.865865 
L 341.448807 313.555975 
L 353.28517 304.529162 
L 365.121534 308.909821 
L 376.957898 296.564327 
L 388.794261 279.04169 
L 400.630625 267.359931 
L 412.466989 255.147184 
L 424.303352 257.536635 
L 436.139716 255.147184 
L 447.97608 259.926085 
L 459.812443 233.11114 
L 471.648807 224.217074 
L 483.48517 196.207404 
L 495.321534 189.304547 
L 507.157898 172.180151 
L 518.994261 174.835096 
L 530.830625 205.632459 
" style="fill:none;stroke:#4a98c9;stroke-linecap:square;stroke-width:1.5;"/>
   </g>
   <g id="line2d_31">
    <path clip-path="url(#p050195a7bc)" d="M 140.230625 430.506305 
L 152.066989 422.143228 
L 163.903352 410.992459 
L 175.739716 396.124766 
L 187.57608 389.487404 
L 199.412443 380.062349 
L 211.248807 379.929602 
L 223.08517 369.309821 
L 234.921534 374.354217 
L 246.757898 367.45136 
L 258.594261 365.327404 
L 270.430625 355.636854 
L 282.266989 347.672019 
L 294.103352 333.999052 
L 305.939716 321.52081 
L 317.77608 324.44125 
L 329.612443 307.05136 
L 341.448807 283.024107 
L 353.28517 276.12125 
L 365.121534 280.634657 
L 376.957898 279.572679 
L 388.794261 273.731799 
L 400.630625 272.669821 
L 412.466989 266.96169 
L 424.303352 260.855316 
L 436.139716 244.129162 
L 447.97608 242.536195 
L 459.812443 239.615755 
L 471.648807 219.438173 
L 483.48517 211.340591 
L 495.321534 203.64125 
L 507.157898 208.552898 
L 518.994261 198.33136 
L 530.830625 217.048723 
" style="fill:none;stroke:#4a98c9;stroke-linecap:square;stroke-width:1.5;"/>
   </g>
   <g id="line2d_32">
    <path clip-path="url(#p050195a7bc)" d="M 140.230625 431.435536 
L 152.066989 425.860151 
L 163.903352 413.116415 
L 175.739716 399.974437 
L 187.57608 396.257514 
L 199.412443 393.337074 
L 211.248807 393.204327 
L 223.08517 389.221909 
L 234.921534 379.265865 
L 246.757898 374.885206 
L 258.594261 360.150261 
L 270.430625 355.37136 
L 282.266989 345.017074 
L 294.103352 341.432898 
L 305.939716 332.67158 
L 317.77608 338.114217 
L 329.612443 321.255316 
L 341.448807 306.785865 
L 353.28517 306.254876 
L 365.121534 305.060151 
L 376.957898 295.236854 
L 388.794261 278.510701 
L 400.630625 255.678173 
L 412.466989 247.447843 
L 424.303352 227.403008 
L 436.139716 211.207843 
L 447.97608 204.570481 
L 459.812443 204.304986 
L 471.648807 192.092239 
L 483.48517 209.349382 
L 495.321534 198.065865 
L 507.157898 178.419272 
L 518.994261 190.10103 
L 530.830625 211.473338 
" style="fill:none;stroke:#4a98c9;stroke-linecap:square;stroke-width:1.5;"/>
   </g>
   <g id="line2d_33">
    <path clip-path="url(#p050195a7bc)" d="M 140.230625 432.895755 
L 152.066989 430.904547 
L 163.903352 426.789382 
L 175.739716 425.992898 
L 187.57608 427.054876 
L 199.412443 420.152019 
L 211.248807 421.346745 
L 223.08517 416.302349 
L 234.921534 414.974876 
L 246.757898 406.213558 
L 258.594261 400.107184 
L 270.430625 405.15158 
L 282.266989 394.00081 
L 294.103352 393.602569 
L 305.939716 396.124766 
L 317.77608 395.195536 
L 329.612443 392.806085 
L 341.448807 388.823668 
L 353.28517 375.68169 
L 365.121534 373.159492 
L 376.957898 381.92081 
L 388.794261 372.363008 
L 400.630625 371.433777 
L 412.466989 369.442569 
L 424.303352 352.981909 
L 436.139716 356.300591 
L 447.97608 339.574437 
L 459.812443 333.866305 
L 471.648807 325.635975 
L 483.48517 326.166964 
L 495.321534 313.157734 
L 507.157898 288.864986 
L 518.994261 283.024107 
L 530.830625 282.758613 
" style="fill:none;stroke:#d0e1f2;stroke-linecap:square;stroke-width:1.5;"/>
   </g>
   <g id="line2d_34">
    <path clip-path="url(#p050195a7bc)" d="M 140.230625 433.16125 
L 152.066989 430.373558 
L 163.903352 428.382349 
L 175.739716 425.196415 
L 187.57608 418.691799 
L 199.412443 410.859712 
L 211.248807 407.54103 
L 223.08517 405.417074 
L 234.921534 407.939272 
L 246.757898 410.46147 
L 258.594261 407.142788 
L 270.430625 398.912459 
L 282.266989 402.363887 
L 294.103352 404.222349 
L 305.939716 398.514217 
L 317.77608 393.602569 
L 329.612443 393.469821 
L 341.448807 385.239492 
L 353.28517 378.734876 
L 365.121534 376.61092 
L 376.957898 379.929602 
L 388.794261 372.76125 
L 400.630625 368.91158 
L 412.466989 359.752019 
L 424.303352 358.424547 
L 436.139716 349.530481 
L 447.97608 348.866745 
L 459.812443 350.06147 
L 471.648807 343.424107 
L 483.48517 335.459272 
L 495.321534 328.025426 
L 507.157898 316.476415 
L 518.994261 274.395536 
L 530.830625 292.183668 
" style="fill:none;stroke:#d0e1f2;stroke-linecap:square;stroke-width:1.5;"/>
   </g>
   <g id="line2d_35">
    <path clip-path="url(#p050195a7bc)" d="M 140.230625 433.028503 
L 152.066989 430.108063 
L 163.903352 428.780591 
L 175.739716 425.063668 
L 187.57608 424.00169 
L 199.412443 418.559052 
L 211.248807 414.443887 
L 223.08517 418.559052 
L 234.921534 409.664986 
L 246.757898 409.930481 
L 258.594261 405.815316 
L 270.430625 399.708942 
L 282.266989 390.814876 
L 294.103352 391.345865 
L 305.939716 392.938832 
L 317.77608 382.053558 
L 329.612443 376.876415 
L 341.448807 376.212679 
L 353.28517 378.336635 
L 365.121534 368.380591 
L 376.957898 367.053118 
L 388.794261 364.796415 
L 400.630625 360.548503 
L 412.466989 348.070261 
L 424.303352 347.539272 
L 436.139716 355.636854 
L 447.97608 353.91114 
L 459.812443 350.725206 
L 471.648807 348.070261 
L 483.48517 340.503668 
L 495.321534 332.937074 
L 507.157898 299.352019 
L 518.994261 294.042129 
L 530.830625 313.024986 
" style="fill:none;stroke:#d0e1f2;stroke-linecap:square;stroke-width:1.5;"/>
   </g>
   <g id="line2d_36">
    <path clip-path="url(#p050195a7bc)" d="M 140.230625 433.16125 
L 152.066989 431.568283 
L 163.903352 429.709821 
L 175.739716 425.196415 
L 187.57608 422.674217 
L 199.412443 422.54147 
L 211.248807 416.700591 
L 223.08517 407.806525 
L 234.921534 409.664986 
L 246.757898 403.956854 
L 258.594261 405.15158 
L 270.430625 397.850481 
L 282.266989 401.169162 
L 294.103352 390.814876 
L 305.939716 394.266305 
L 317.77608 388.823668 
L 329.612443 384.310261 
L 341.448807 381.655316 
L 353.28517 382.584547 
L 365.121534 384.443008 
L 376.957898 380.858832 
L 388.794261 377.274657 
L 400.630625 375.814437 
L 412.466989 372.097514 
L 424.303352 359.22103 
L 436.139716 357.628063 
L 447.97608 336.52125 
L 459.812443 331.344107 
L 471.648807 337.583228 
L 483.48517 309.839052 
L 495.321534 311.033777 
L 507.157898 286.342788 
L 518.994261 255.943668 
L 530.830625 268.820151 
" style="fill:none;stroke:#d0e1f2;stroke-linecap:square;stroke-width:1.5;"/>
   </g>
   <g id="line2d_37">
    <path clip-path="url(#p050195a7bc)" d="M 140.230625 432.763008 
L 152.066989 431.302788 
L 163.903352 428.249602 
L 175.739716 423.470701 
L 187.57608 425.196415 
L 199.412443 418.16081 
L 211.248807 416.700591 
L 223.08517 414.576635 
L 234.921534 411.92169 
L 246.757898 401.301909 
L 258.594261 405.284327 
L 270.430625 402.496635 
L 282.266989 401.700151 
L 294.103352 397.053997 
L 305.939716 397.319492 
L 317.77608 392.673338 
L 329.612443 389.885646 
L 341.448807 382.717294 
L 353.28517 374.752459 
L 365.121534 369.84081 
L 376.957898 367.982349 
L 388.794261 356.83158 
L 400.630625 351.388942 
L 412.466989 340.37092 
L 424.303352 350.06147 
L 436.139716 356.167843 
L 447.97608 349.397734 
L 459.812443 350.990701 
L 471.648807 340.769162 
L 483.48517 352.583668 
L 495.321534 326.166964 
L 507.157898 318.334876 
L 518.994261 292.980151 
L 530.830625 303.334437 
" style="fill:none;stroke:#d0e1f2;stroke-linecap:square;stroke-width:1.5;"/>
   </g>
   <g id="line2d_38">
    <path clip-path="url(#p050195a7bc)" d="M 140.230625 433.028503 
L 152.066989 430.24081 
L 163.903352 426.656635 
L 175.739716 422.806964 
L 187.57608 422.54147 
L 199.412443 420.948503 
L 211.248807 416.036854 
L 223.08517 409.399492 
L 234.921534 413.780151 
L 246.757898 404.753338 
L 258.594261 403.69136 
L 270.430625 398.38147 
L 282.266989 396.124766 
L 294.103352 389.221909 
L 305.939716 390.947624 
L 317.77608 397.850481 
L 329.612443 390.15114 
L 341.448807 388.823668 
L 353.28517 383.646525 
L 365.121534 379.53136 
L 376.957898 376.079931 
L 388.794261 373.690481 
L 400.630625 363.999931 
L 412.466989 357.229821 
L 424.303352 352.981909 
L 436.139716 356.035096 
L 447.97608 330.945865 
L 459.812443 336.786745 
L 471.648807 331.875096 
L 483.48517 311.166525 
L 495.321534 325.370481 
L 507.157898 321.52081 
L 518.994261 296.697074 
L 530.830625 323.512019 
" style="fill:none;stroke:#d0e1f2;stroke-linecap:square;stroke-width:1.5;"/>
   </g>
   <g id="line2d_39">
    <path clip-path="url(#p050195a7bc)" d="M 140.230625 433.16125 
L 152.066989 431.833777 
L 163.903352 429.31158 
L 175.739716 427.187624 
L 187.57608 420.284766 
L 199.412443 419.488283 
L 211.248807 412.452679 
L 223.08517 410.992459 
L 234.921534 403.293118 
L 246.757898 396.124766 
L 258.594261 394.399052 
L 270.430625 396.92125 
L 282.266989 398.912459 
L 294.103352 390.947624 
L 305.939716 385.637734 
L 317.77608 388.956415 
L 329.612443 393.602569 
L 341.448807 387.894437 
L 353.28517 379.796854 
L 365.121534 377.141909 
L 376.957898 373.424986 
L 388.794261 371.433777 
L 400.630625 366.522129 
L 412.466989 364.796415 
L 424.303352 357.76081 
L 436.139716 357.362569 
L 447.97608 337.052239 
L 459.812443 345.415316 
L 471.648807 327.36169 
L 483.48517 340.238173 
L 495.321534 331.476854 
L 507.157898 322.184547 
L 518.994261 295.767843 
L 530.830625 298.157294 
" style="fill:none;stroke:#d0e1f2;stroke-linecap:square;stroke-width:1.5;"/>
   </g>
   <g id="line2d_40">
    <path clip-path="url(#p050195a7bc)" d="M 140.230625 432.630261 
L 152.066989 431.170041 
L 163.903352 427.984107 
L 175.739716 423.337953 
L 187.57608 421.744986 
L 199.412443 419.222788 
L 211.248807 419.355536 
L 223.08517 412.983668 
L 234.921534 412.319931 
L 246.757898 405.815316 
L 258.594261 411.257953 
L 270.430625 405.018832 
L 282.266989 393.469821 
L 294.103352 392.938832 
L 305.939716 388.027184 
L 317.77608 386.434217 
L 329.612443 375.548942 
L 341.448807 373.823228 
L 353.28517 371.832019 
L 365.121534 370.902788 
L 376.957898 367.185865 
L 388.794261 358.955536 
L 400.630625 360.68125 
L 412.466989 355.105865 
L 424.303352 357.76081 
L 436.139716 348.866745 
L 447.97608 340.238173 
L 459.812443 337.583228 
L 471.648807 333.468063 
L 483.48517 325.503228 
L 495.321534 316.609162 
L 507.157898 303.599931 
L 518.994261 286.475536 
L 530.830625 309.44081 
" style="fill:none;stroke:#d0e1f2;stroke-linecap:square;stroke-width:1.5;"/>
   </g>
   <g id="line2d_41">
    <path clip-path="url(#p050195a7bc)" d="M 140.230625 432.895755 
L 152.066989 429.842569 
L 163.903352 427.585865 
L 175.739716 427.718613 
L 187.57608 418.824547 
L 199.412443 412.187184 
L 211.248807 414.443887 
L 223.08517 410.195975 
L 234.921534 410.063228 
L 246.757898 405.15158 
L 258.594261 396.124766 
L 270.430625 399.045206 
L 282.266989 391.876854 
L 294.103352 389.487404 
L 305.939716 389.885646 
L 317.77608 390.549382 
L 329.612443 387.097953 
L 341.448807 380.327843 
L 353.28517 375.017953 
L 365.121534 368.115096 
L 376.957898 366.123887 
L 388.794261 375.017953 
L 400.630625 371.832019 
L 412.466989 357.097074 
L 424.303352 350.06147 
L 436.139716 354.574876 
L 447.97608 351.919931 
L 459.812443 343.025865 
L 471.648807 341.698393 
L 483.48517 329.352898 
L 495.321534 329.75114 
L 507.157898 306.918613 
L 518.994261 292.316415 
L 530.830625 300.015755 
" style="fill:none;stroke:#d0e1f2;stroke-linecap:square;stroke-width:1.5;"/>
   </g>
   <g id="line2d_42">
    <path clip-path="url(#p050195a7bc)" d="M 140.230625 433.16125 
L 152.066989 431.170041 
L 163.903352 429.31158 
L 175.739716 424.399931 
L 187.57608 419.090041 
L 199.412443 421.744986 
L 211.248807 417.629821 
L 223.08517 410.726964 
L 234.921534 410.992459 
L 246.757898 408.204766 
L 258.594261 409.133997 
L 270.430625 403.824107 
L 282.266989 396.788503 
L 294.103352 384.044766 
L 305.939716 376.876415 
L 317.77608 385.770481 
L 329.612443 381.522569 
L 341.448807 384.708503 
L 353.28517 387.894437 
L 365.121534 386.30147 
L 376.957898 380.593338 
L 388.794261 377.540151 
L 400.630625 365.725646 
L 412.466989 363.203448 
L 424.303352 344.884327 
L 436.139716 343.556854 
L 447.97608 340.901909 
L 459.812443 341.698393 
L 471.648807 326.432459 
L 483.48517 324.44125 
L 495.321534 322.848283 
L 507.157898 285.944547 
L 518.994261 272.404327 
L 530.830625 297.228063 
" style="fill:none;stroke:#d0e1f2;stroke-linecap:square;stroke-width:1.5;"/>
   </g>
   <g id="line2d_43">
    <path clip-path="url(#p050195a7bc)" d="M 140.230625 431.568283 
L 152.066989 425.461909 
L 163.903352 418.957294 
L 175.739716 412.85092 
L 187.57608 406.744547 
L 199.412443 394.664547 
L 211.248807 383.779272 
L 223.08517 372.628503 
L 234.921534 348.60125 
L 246.757898 347.804766 
L 258.594261 331.21136 
L 270.430625 313.423228 
L 282.266989 315.414437 
L 294.103352 326.963448 
L 305.939716 337.848723 
L 317.77608 332.804327 
L 329.612443 320.857074 
L 341.448807 302.139712 
L 353.28517 286.608283 
L 365.121534 292.05092 
L 376.957898 293.245646 
L 388.794261 276.386745 
L 400.630625 247.315096 
L 412.466989 234.57136 
L 424.303352 220.101909 
L 436.139716 195.941909 
L 447.97608 186.516854 
L 459.812443 182.932679 
L 471.648807 165.277294 
L 483.48517 179.348503 
L 495.321534 160.63114 
L 507.157898 146.16169 
L 518.994261 130.232019 
L 530.830625 123.860151 
" style="fill:none;stroke:#1764ab;stroke-linecap:square;stroke-width:1.5;"/>
   </g>
   <g id="line2d_44">
    <path clip-path="url(#p050195a7bc)" d="M 140.230625 431.302788 
L 152.066989 419.753777 
L 163.903352 413.116415 
L 175.739716 407.010041 
L 187.57608 394.664547 
L 199.412443 385.239492 
L 211.248807 378.469382 
L 223.08517 362.672459 
L 234.921534 352.981909 
L 246.757898 346.875536 
L 258.594261 344.353338 
L 270.430625 344.220591 
L 282.266989 349.264986 
L 294.103352 339.308942 
L 305.939716 325.237734 
L 317.77608 319.795096 
L 329.612443 319.396854 
L 341.448807 304.13092 
L 353.28517 312.493997 
L 365.121534 273.731799 
L 376.957898 260.058832 
L 388.794261 243.73092 
L 400.630625 244.925646 
L 412.466989 228.464986 
L 424.303352 233.243887 
L 436.139716 206.428942 
L 447.97608 197.800371 
L 459.812443 189.968283 
L 471.648807 189.835536 
L 483.48517 171.781909 
L 495.321534 145.365206 
L 507.157898 117.488283 
L 518.994261 91.337074 
L 530.830625 92.930041 
" style="fill:none;stroke:#1764ab;stroke-linecap:square;stroke-width:1.5;"/>
   </g>
   <g id="line2d_45">
    <path clip-path="url(#p050195a7bc)" d="M 140.230625 431.966525 
L 152.066989 421.213997 
L 163.903352 415.107624 
L 175.739716 409.532239 
L 187.57608 406.744547 
L 199.412443 394.133558 
L 211.248807 387.628942 
L 223.08517 381.655316 
L 234.921534 381.522569 
L 246.757898 373.424986 
L 258.594261 364.929162 
L 270.430625 358.822788 
L 282.266989 334.662788 
L 294.103352 329.220151 
L 305.939716 319.396854 
L 317.77608 309.44081 
L 329.612443 292.980151 
L 341.448807 286.475536 
L 353.28517 274.926525 
L 365.121534 262.315536 
L 376.957898 241.474217 
L 388.794261 222.358613 
L 400.630625 220.765646 
L 412.466989 212.933558 
L 424.303352 226.739272 
L 436.139716 238.686525 
L 447.97608 219.703668 
L 459.812443 219.172679 
L 471.648807 197.800371 
L 483.48517 188.64081 
L 495.321534 172.843887 
L 507.157898 145.365206 
L 518.994261 131.559492 
L 530.830625 155.055755 
" style="fill:none;stroke:#1764ab;stroke-linecap:square;stroke-width:1.5;"/>
   </g>
   <g id="line2d_46">
    <path clip-path="url(#p050195a7bc)" d="M 140.230625 430.639052 
L 152.066989 415.638613 
L 163.903352 405.815316 
L 175.739716 400.77092 
L 187.57608 391.744107 
L 199.412443 391.478613 
L 211.248807 393.07158 
L 223.08517 392.142349 
L 234.921534 373.690481 
L 246.757898 345.548063 
L 258.594261 317.936635 
L 270.430625 310.768283 
L 282.266989 308.909821 
L 294.103352 310.237294 
L 305.939716 304.794657 
L 317.77608 309.308063 
L 329.612443 321.388063 
L 341.448807 310.635536 
L 353.28517 300.679492 
L 365.121534 297.228063 
L 376.957898 290.325206 
L 388.794261 281.298393 
L 400.630625 279.307184 
L 412.466989 274.793777 
L 424.303352 259.926085 
L 436.139716 242.403448 
L 447.97608 224.084327 
L 459.812443 215.190261 
L 471.648807 204.172239 
L 483.48517 192.623228 
L 495.321534 180.675975 
L 507.157898 148.55114 
L 518.994261 105.275536 
L 530.830625 83.770481 
" style="fill:none;stroke:#1764ab;stroke-linecap:square;stroke-width:1.5;"/>
   </g>
   <g id="line2d_47">
    <path clip-path="url(#p050195a7bc)" d="M 140.230625 430.506305 
L 152.066989 422.806964 
L 163.903352 414.178393 
L 175.739716 408.470261 
L 187.57608 406.213558 
L 199.412443 392.938832 
L 211.248807 383.646525 
L 223.08517 370.504547 
L 234.921534 348.866745 
L 246.757898 342.760371 
L 258.594261 344.884327 
L 270.430625 338.777953 
L 282.266989 336.786745 
L 294.103352 315.414437 
L 305.939716 316.609162 
L 317.77608 311.697514 
L 329.612443 302.537953 
L 341.448807 309.308063 
L 353.28517 309.308063 
L 365.121534 278.908942 
L 376.957898 246.784107 
L 388.794261 225.942788 
L 400.630625 181.870701 
L 412.466989 181.074217 
L 424.303352 198.596854 
L 436.139716 212.269821 
L 447.97608 226.739272 
L 459.812443 223.95158 
L 471.648807 203.508503 
L 483.48517 194.747184 
L 495.321534 170.719931 
L 507.157898 143.772239 
L 518.994261 105.275536 
L 530.830625 70.76125 
" style="fill:none;stroke:#1764ab;stroke-linecap:square;stroke-width:1.5;"/>
   </g>
   <g id="line2d_48">
    <path clip-path="url(#p050195a7bc)" d="M 140.230625 431.966525 
L 152.066989 425.063668 
L 163.903352 414.178393 
L 175.739716 406.744547 
L 187.57608 403.027624 
L 199.412443 395.593777 
L 211.248807 387.363448 
L 223.08517 364.929162 
L 234.921534 363.468942 
L 246.757898 354.574876 
L 258.594261 345.149821 
L 270.430625 349.530481 
L 282.266989 350.326964 
L 294.103352 325.104986 
L 305.939716 306.918613 
L 317.77608 313.024986 
L 329.612443 323.113777 
L 341.448807 317.140151 
L 353.28517 298.953777 
L 365.121534 288.599492 
L 376.957898 275.457514 
L 388.794261 254.483448 
L 400.630625 234.969602 
L 412.466989 222.093118 
L 424.303352 195.145426 
L 436.139716 165.144547 
L 447.97608 161.294876 
L 459.812443 156.250481 
L 471.648807 150.807843 
L 483.48517 157.179712 
L 495.321534 166.472019 
L 507.157898 162.09136 
L 518.994261 167.533997 
L 530.830625 164.348063 
" style="fill:none;stroke:#1764ab;stroke-linecap:square;stroke-width:1.5;"/>
   </g>
   <g id="line2d_49">
    <path clip-path="url(#p050195a7bc)" d="M 140.230625 433.16125 
L 152.066989 425.992898 
L 163.903352 418.426305 
L 175.739716 410.063228 
L 187.57608 399.84169 
L 199.412443 390.15114 
L 211.248807 375.283448 
L 223.08517 367.584107 
L 234.921534 357.097074 
L 246.757898 359.486525 
L 258.594261 344.220591 
L 270.430625 340.37092 
L 282.266989 324.573997 
L 294.103352 317.936635 
L 305.939716 308.644327 
L 317.77608 311.697514 
L 329.612443 309.573558 
L 341.448807 302.803448 
L 353.28517 298.688283 
L 365.121534 292.183668 
L 376.957898 287.935755 
L 388.794261 271.607843 
L 400.630625 254.748942 
L 412.466989 240.677734 
L 424.303352 233.642129 
L 436.139716 225.810041 
L 447.97608 208.287404 
L 459.812443 202.313777 
L 471.648807 195.809162 
L 483.48517 172.578393 
L 495.321534 159.038173 
L 507.157898 155.586745 
L 518.994261 143.24125 
L 530.830625 157.445206 
" style="fill:none;stroke:#1764ab;stroke-linecap:square;stroke-width:1.5;"/>
   </g>
   <g id="line2d_50">
    <path clip-path="url(#p050195a7bc)" d="M 140.230625 431.568283 
L 152.066989 424.93092 
L 163.903352 419.090041 
L 175.739716 414.31114 
L 187.57608 408.603008 
L 199.412443 404.355096 
L 211.248807 401.434657 
L 223.08517 383.779272 
L 234.921534 368.115096 
L 246.757898 364.132679 
L 258.594261 370.106305 
L 270.430625 363.734437 
L 282.266989 356.964327 
L 294.103352 326.697953 
L 305.939716 307.449602 
L 317.77608 280.501909 
L 329.612443 279.572679 
L 341.448807 271.209602 
L 353.28517 280.236415 
L 365.121534 267.094437 
L 376.957898 246.518613 
L 388.794261 222.093118 
L 400.630625 210.676854 
L 412.466989 197.534876 
L 424.303352 220.765646 
L 436.139716 237.491799 
L 447.97608 223.686085 
L 459.812443 187.71158 
L 471.648807 166.339272 
L 483.48517 159.569162 
L 495.321534 150.144107 
L 507.157898 141.913777 
L 518.994261 146.559931 
L 530.830625 179.48125 
" style="fill:none;stroke:#1764ab;stroke-linecap:square;stroke-width:1.5;"/>
   </g>
   <g id="line2d_51">
    <path clip-path="url(#p050195a7bc)" d="M 140.230625 431.037294 
L 152.066989 418.293558 
L 163.903352 396.788503 
L 175.739716 382.319052 
L 187.57608 375.68169 
L 199.412443 371.30103 
L 211.248807 370.770041 
L 223.08517 362.14147 
L 234.921534 354.043887 
L 246.757898 337.98147 
L 258.594261 330.414876 
L 270.430625 331.344107 
L 282.266989 334.662788 
L 294.103352 327.759931 
L 305.939716 302.803448 
L 317.77608 292.714657 
L 329.612443 275.059272 
L 341.448807 266.96169 
L 353.28517 266.032459 
L 365.121534 255.545426 
L 376.957898 265.634217 
L 388.794261 282.493118 
L 400.630625 273.068063 
L 412.466989 246.784107 
L 424.303352 224.349821 
L 436.139716 208.552898 
L 447.97608 207.358173 
L 459.812443 212.668063 
L 471.648807 211.606085 
L 483.48517 205.897953 
L 495.321534 195.809162 
L 507.157898 193.154217 
L 518.994261 170.32169 
L 530.830625 154.524766 
" style="fill:none;stroke:#1764ab;stroke-linecap:square;stroke-width:1.5;"/>
   </g>
   <g id="line2d_52">
    <path clip-path="url(#p050195a7bc)" d="M 140.230625 431.302788 
L 152.066989 419.488283 
L 163.903352 412.054437 
L 175.739716 390.947624 
L 187.57608 380.327843 
L 199.412443 376.61092 
L 211.248807 384.177514 
L 223.08517 379.000371 
L 234.921534 373.292239 
L 246.757898 368.778832 
L 258.594261 370.504547 
L 270.430625 361.610481 
L 282.266989 359.353777 
L 294.103352 341.432898 
L 305.939716 323.379272 
L 317.77608 302.405206 
L 329.612443 283.820591 
L 341.448807 273.864547 
L 353.28517 296.697074 
L 365.121534 296.564327 
L 376.957898 291.918173 
L 388.794261 279.307184 
L 400.630625 251.430261 
L 412.466989 251.430261 
L 424.303352 236.96081 
L 436.139716 215.986745 
L 447.97608 204.039492 
L 459.812443 181.870701 
L 471.648807 175.897074 
L 483.48517 180.012239 
L 495.321534 170.454437 
L 507.157898 152.666305 
L 518.994261 145.763448 
L 530.830625 142.179272 
" style="fill:none;stroke:#1764ab;stroke-linecap:square;stroke-width:1.5;"/>
   </g>
   <g id="line2d_53">
    <path clip-path="url(#p050195a7bc)" d="M 140.230625 432.099272 
L 152.066989 429.709821 
L 163.903352 425.594657 
L 175.739716 425.461909 
L 187.57608 418.028063 
L 199.412443 409.930481 
L 211.248807 396.788503 
L 223.08517 389.089162 
L 234.921534 381.389821 
L 246.757898 369.044327 
L 258.594261 358.424547 
L 270.430625 363.468942 
L 282.266989 370.239052 
L 294.103352 375.283448 
L 305.939716 373.292239 
L 317.77608 359.486525 
L 329.612443 337.98147 
L 341.448807 334.928283 
L 353.28517 309.839052 
L 365.121534 323.512019 
L 376.957898 323.113777 
L 388.794261 302.803448 
L 400.630625 290.457953 
L 412.466989 280.236415 
L 424.303352 268.156415 
L 436.139716 279.04169 
L 447.97608 257.138393 
L 459.812443 241.075975 
L 471.648807 242.668942 
L 483.48517 262.315536 
L 495.321534 260.988063 
L 507.157898 234.438613 
L 518.994261 238.686525 
L 530.830625 240.677734 
" style="fill:none;stroke:#94c4df;stroke-linecap:square;stroke-width:1.5;"/>
   </g>
   <g id="line2d_54">
    <path clip-path="url(#p050195a7bc)" d="M 140.230625 432.630261 
L 152.066989 429.31158 
L 163.903352 423.337953 
L 175.739716 416.036854 
L 187.57608 406.744547 
L 199.412443 407.939272 
L 211.248807 401.700151 
L 223.08517 392.540591 
L 234.921534 382.850041 
L 246.757898 370.106305 
L 258.594261 375.283448 
L 270.430625 365.99114 
L 282.266989 364.132679 
L 294.103352 363.999931 
L 305.939716 360.283008 
L 317.77608 357.893558 
L 329.612443 357.362569 
L 341.448807 347.539272 
L 353.28517 335.193777 
L 365.121534 329.883887 
L 376.957898 319.13136 
L 388.794261 311.166525 
L 400.630625 303.334437 
L 412.466989 298.422788 
L 424.303352 281.696635 
L 436.139716 292.183668 
L 447.97608 288.864986 
L 459.812443 283.156854 
L 471.648807 272.006085 
L 483.48517 270.413118 
L 495.321534 257.005646 
L 507.157898 256.341909 
L 518.994261 238.553777 
L 530.830625 236.164327 
" style="fill:none;stroke:#94c4df;stroke-linecap:square;stroke-width:1.5;"/>
   </g>
   <g id="line2d_55">
    <path clip-path="url(#p050195a7bc)" d="M 140.230625 432.763008 
L 152.066989 423.603448 
L 163.903352 416.700591 
L 175.739716 412.187184 
L 187.57608 416.567843 
L 199.412443 412.585426 
L 211.248807 409.532239 
L 223.08517 402.363887 
L 234.921534 392.540591 
L 246.757898 380.460591 
L 258.594261 372.495755 
L 270.430625 365.592898 
L 282.266989 352.318173 
L 294.103352 343.158613 
L 305.939716 342.229382 
L 317.77608 357.229821 
L 329.612443 351.123448 
L 341.448807 340.503668 
L 353.28517 336.52125 
L 365.121534 301.210481 
L 376.957898 288.466745 
L 388.794261 283.687843 
L 400.630625 292.183668 
L 412.466989 306.387624 
L 424.303352 292.847404 
L 436.139716 281.696635 
L 447.97608 281.696635 
L 459.812443 268.820151 
L 471.648807 273.068063 
L 483.48517 264.837734 
L 495.321534 235.766085 
L 507.157898 213.331799 
L 518.994261 199.127843 
L 530.830625 252.093997 
" style="fill:none;stroke:#94c4df;stroke-linecap:square;stroke-width:1.5;"/>
   </g>
   <g id="line2d_56">
    <path clip-path="url(#p050195a7bc)" d="M 140.230625 431.70103 
L 152.066989 428.249602 
L 163.903352 423.603448 
L 175.739716 414.842129 
L 187.57608 401.965646 
L 199.412443 405.018832 
L 211.248807 399.310701 
L 223.08517 389.354657 
L 234.921534 387.894437 
L 246.757898 387.496195 
L 258.594261 383.779272 
L 270.430625 378.469382 
L 282.266989 372.363008 
L 294.103352 365.725646 
L 305.939716 366.123887 
L 317.77608 360.017514 
L 329.612443 345.548063 
L 341.448807 332.937074 
L 353.28517 329.220151 
L 365.121534 335.326525 
L 376.957898 331.078613 
L 388.794261 329.618393 
L 400.630625 326.166964 
L 412.466989 295.236854 
L 424.303352 292.316415 
L 436.139716 289.395975 
L 447.97608 272.27158 
L 459.812443 270.014876 
L 471.648807 274.793777 
L 483.48517 263.377514 
L 495.321534 245.456635 
L 507.157898 242.934437 
L 518.994261 205.897953 
L 530.830625 210.676854 
" style="fill:none;stroke:#94c4df;stroke-linecap:square;stroke-width:1.5;"/>
   </g>
   <g id="line2d_57">
    <path clip-path="url(#p050195a7bc)" d="M 140.230625 432.895755 
L 152.066989 428.116854 
L 163.903352 422.143228 
L 175.739716 411.125206 
L 187.57608 407.408283 
L 199.412443 407.275536 
L 211.248807 404.620591 
L 223.08517 396.788503 
L 234.921534 385.903228 
L 246.757898 381.124327 
L 258.594261 372.628503 
L 270.430625 365.194657 
L 282.266989 359.884766 
L 294.103352 357.495316 
L 305.939716 353.380151 
L 317.77608 346.477294 
L 329.612443 350.194217 
L 341.448807 352.318173 
L 353.28517 333.60081 
L 365.121534 330.282129 
L 376.957898 319.529602 
L 388.794261 310.90103 
L 400.630625 303.068942 
L 412.466989 281.43114 
L 424.303352 274.528283 
L 436.139716 266.563448 
L 447.97608 274.66103 
L 459.812443 278.510701 
L 471.648807 279.307184 
L 483.48517 278.908942 
L 495.321534 246.784107 
L 507.157898 232.314657 
L 518.994261 200.853558 
L 530.830625 230.987184 
" style="fill:none;stroke:#94c4df;stroke-linecap:square;stroke-width:1.5;"/>
   </g>
   <g id="line2d_58">
    <path clip-path="url(#p050195a7bc)" d="M 140.230625 431.70103 
L 152.066989 431.302788 
L 163.903352 420.683008 
L 175.739716 421.877734 
L 187.57608 419.090041 
L 199.412443 407.010041 
L 211.248807 402.496635 
L 223.08517 388.292679 
L 234.921534 391.876854 
L 246.757898 387.097953 
L 258.594261 379.000371 
L 270.430625 372.363008 
L 282.266989 371.832019 
L 294.103352 370.106305 
L 305.939716 350.459712 
L 317.77608 345.946305 
L 329.612443 341.698393 
L 341.448807 344.884327 
L 353.28517 338.246964 
L 365.121534 337.715975 
L 376.957898 321.919052 
L 388.794261 320.724327 
L 400.630625 309.44081 
L 412.466989 296.962569 
L 424.303352 298.555536 
L 436.139716 269.616635 
L 447.97608 261.253558 
L 459.812443 249.306305 
L 471.648807 239.88125 
L 483.48517 238.42103 
L 495.321534 230.057953 
L 507.157898 244.527404 
L 518.994261 224.217074 
L 530.830625 258.996854 
" style="fill:none;stroke:#94c4df;stroke-linecap:square;stroke-width:1.5;"/>
   </g>
   <g id="line2d_59">
    <path clip-path="url(#p050195a7bc)" d="M 140.230625 432.232019 
L 152.066989 429.178832 
L 163.903352 424.798173 
L 175.739716 421.08125 
L 187.57608 413.249162 
L 199.412443 401.434657 
L 211.248807 389.885646 
L 223.08517 386.566964 
L 234.921534 382.451799 
L 246.757898 375.017953 
L 258.594261 371.30103 
L 270.430625 351.256195 
L 282.266989 358.822788 
L 294.103352 349.795975 
L 305.939716 338.645206 
L 317.77608 346.079052 
L 329.612443 346.610041 
L 341.448807 342.096635 
L 353.28517 335.326525 
L 365.121534 333.733558 
L 376.957898 325.237734 
L 388.794261 315.148942 
L 400.630625 302.537953 
L 412.466989 288.997734 
L 424.303352 284.086085 
L 436.139716 271.740591 
L 447.97608 276.519492 
L 459.812443 264.837734 
L 471.648807 256.209162 
L 483.48517 264.837734 
L 495.321534 256.740151 
L 507.157898 242.934437 
L 518.994261 242.005206 
L 530.830625 274.528283 
" style="fill:none;stroke:#94c4df;stroke-linecap:square;stroke-width:1.5;"/>
   </g>
   <g id="line2d_60">
    <path clip-path="url(#p050195a7bc)" d="M 140.230625 432.763008 
L 152.066989 429.577074 
L 163.903352 421.612239 
L 175.739716 415.505865 
L 187.57608 414.974876 
L 199.412443 410.46147 
L 211.248807 404.620591 
L 223.08517 398.779712 
L 234.921534 386.168723 
L 246.757898 370.770041 
L 258.594261 371.168283 
L 270.430625 365.592898 
L 282.266989 358.159052 
L 294.103352 345.68081 
L 305.939716 348.203008 
L 317.77608 325.90147 
L 329.612443 330.945865 
L 341.448807 324.573997 
L 353.28517 316.609162 
L 365.121534 319.264107 
L 376.957898 310.768283 
L 388.794261 306.387624 
L 400.630625 286.077294 
L 412.466989 286.077294 
L 424.303352 281.563887 
L 436.139716 269.35114 
L 447.97608 265.235975 
L 459.812443 270.014876 
L 471.648807 251.032019 
L 483.48517 238.155536 
L 495.321534 252.226745 
L 507.157898 220.898393 
L 518.994261 195.543668 
L 530.830625 236.429821 
" style="fill:none;stroke:#94c4df;stroke-linecap:square;stroke-width:1.5;"/>
   </g>
   <g id="line2d_61">
    <path clip-path="url(#p050195a7bc)" d="M 140.230625 432.364766 
L 152.066989 426.258393 
L 163.903352 417.098832 
L 175.739716 401.832898 
L 187.57608 396.788503 
L 199.412443 391.478613 
L 211.248807 395.46103 
L 223.08517 384.443008 
L 234.921534 380.99158 
L 246.757898 369.973558 
L 258.594261 360.946745 
L 270.430625 359.486525 
L 282.266989 364.265426 
L 294.103352 354.707624 
L 305.939716 344.220591 
L 317.77608 335.592019 
L 329.612443 319.396854 
L 341.448807 328.025426 
L 353.28517 327.096195 
L 365.121534 318.865865 
L 376.957898 315.414437 
L 388.794261 315.679931 
L 400.630625 319.662349 
L 412.466989 308.113338 
L 424.303352 300.015755 
L 436.139716 292.05092 
L 447.97608 290.192459 
L 459.812443 274.926525 
L 471.648807 275.988503 
L 483.48517 260.19158 
L 495.321534 261.784547 
L 507.157898 249.704547 
L 518.994261 231.119931 
L 530.830625 263.510261 
" style="fill:none;stroke:#94c4df;stroke-linecap:square;stroke-width:1.5;"/>
   </g>
   <g id="line2d_62">
    <path clip-path="url(#p050195a7bc)" d="M 140.230625 432.364766 
L 152.066989 429.709821 
L 163.903352 422.010481 
L 175.739716 417.497074 
L 187.57608 408.868503 
L 199.412443 401.567404 
L 211.248807 401.169162 
L 223.08517 398.779712 
L 234.921534 389.487404 
L 246.757898 388.425426 
L 258.594261 371.168283 
L 270.430625 366.654876 
L 282.266989 351.123448 
L 294.103352 360.283008 
L 305.939716 347.14103 
L 317.77608 351.787184 
L 329.612443 341.300151 
L 341.448807 343.955096 
L 353.28517 346.875536 
L 365.121534 334.131799 
L 376.957898 338.777953 
L 388.794261 324.706745 
L 400.630625 305.723887 
L 412.466989 297.759052 
L 424.303352 283.024107 
L 436.139716 275.457514 
L 447.97608 264.306745 
L 459.812443 248.509821 
L 471.648807 243.73092 
L 483.48517 237.359052 
L 495.321534 222.225865 
L 507.157898 206.296195 
L 518.994261 184.79114 
L 530.830625 231.65092 
" style="fill:none;stroke:#94c4df;stroke-linecap:square;stroke-width:1.5;"/>
   </g>
   <g id="line2d_63">
    <path clip-path="url(#p050195a7bc)" d="M 140.230625 433.16125 
L 152.066989 433.16125 
L 163.903352 433.16125 
L 175.739716 433.16125 
L 187.57608 433.16125 
L 199.412443 433.16125 
L 211.248807 433.16125 
L 223.08517 433.16125 
L 234.921534 433.16125 
L 246.757898 433.16125 
L 258.594261 433.16125 
L 270.430625 433.16125 
L 282.266989 433.16125 
L 294.103352 433.16125 
L 305.939716 433.16125 
L 317.77608 433.16125 
L 329.612443 433.16125 
L 341.448807 433.16125 
L 353.28517 433.16125 
L 365.121534 433.16125 
L 376.957898 433.16125 
L 388.794261 433.16125 
L 400.630625 433.16125 
L 412.466989 433.16125 
L 424.303352 433.16125 
L 436.139716 433.16125 
L 447.97608 433.16125 
L 459.812443 433.16125 
L 471.648807 433.16125 
L 483.48517 433.16125 
L 495.321534 433.16125 
L 507.157898 433.16125 
L 518.994261 433.16125 
L 530.830625 433.16125 
" style="fill:none;stroke:#000000;stroke-linecap:square;stroke-width:1.5;"/>
   </g>
   <g id="line2d_64">
    <path clip-path="url(#p050195a7bc)" d="M 140.230625 433.16125 
L 152.066989 433.16125 
L 163.903352 433.16125 
L 175.739716 433.16125 
L 187.57608 433.16125 
L 199.412443 433.16125 
L 211.248807 433.16125 
L 223.08517 433.16125 
L 234.921534 433.16125 
L 246.757898 433.16125 
L 258.594261 433.16125 
L 270.430625 433.16125 
L 282.266989 433.16125 
L 294.103352 433.16125 
L 305.939716 433.16125 
L 317.77608 433.16125 
L 329.612443 433.16125 
L 341.448807 433.16125 
L 353.28517 433.16125 
L 365.121534 433.16125 
L 376.957898 433.16125 
L 388.794261 433.16125 
L 400.630625 433.16125 
L 412.466989 433.16125 
L 424.303352 433.16125 
L 436.139716 433.16125 
L 447.97608 433.16125 
L 459.812443 433.16125 
L 471.648807 433.16125 
L 483.48517 433.16125 
L 495.321534 433.16125 
L 507.157898 433.16125 
L 518.994261 433.16125 
L 530.830625 433.16125 
" style="fill:none;stroke:#000000;stroke-linecap:square;stroke-width:1.5;"/>
   </g>
   <g id="line2d_65">
    <path clip-path="url(#p050195a7bc)" d="M 140.230625 433.16125 
L 152.066989 433.16125 
L 163.903352 433.16125 
L 175.739716 433.16125 
L 187.57608 433.16125 
L 199.412443 433.16125 
L 211.248807 433.16125 
L 223.08517 433.16125 
L 234.921534 433.16125 
L 246.757898 433.16125 
L 258.594261 433.16125 
L 270.430625 433.16125 
L 282.266989 433.16125 
L 294.103352 433.16125 
L 305.939716 433.16125 
L 317.77608 433.16125 
L 329.612443 433.16125 
L 341.448807 433.16125 
L 353.28517 433.16125 
L 365.121534 433.16125 
L 376.957898 433.16125 
L 388.794261 433.16125 
L 400.630625 433.16125 
L 412.466989 433.16125 
L 424.303352 433.16125 
L 436.139716 433.16125 
L 447.97608 433.16125 
L 459.812443 433.16125 
L 471.648807 433.16125 
L 483.48517 433.16125 
L 495.321534 433.16125 
L 507.157898 433.16125 
L 518.994261 433.16125 
L 530.830625 433.16125 
" style="fill:none;stroke:#000000;stroke-linecap:square;stroke-width:1.5;"/>
   </g>
   <g id="line2d_66">
    <path clip-path="url(#p050195a7bc)" d="M 140.230625 433.16125 
L 152.066989 433.16125 
L 163.903352 433.16125 
L 175.739716 433.16125 
L 187.57608 433.16125 
L 199.412443 433.16125 
L 211.248807 433.16125 
L 223.08517 433.16125 
L 234.921534 433.16125 
L 246.757898 433.16125 
L 258.594261 433.16125 
L 270.430625 433.16125 
L 282.266989 433.16125 
L 294.103352 433.16125 
L 305.939716 433.16125 
L 317.77608 433.16125 
L 329.612443 433.16125 
L 341.448807 433.16125 
L 353.28517 433.16125 
L 365.121534 433.16125 
L 376.957898 433.16125 
L 388.794261 433.16125 
L 400.630625 433.16125 
L 412.466989 433.16125 
L 424.303352 433.16125 
L 436.139716 433.16125 
L 447.97608 433.16125 
L 459.812443 433.16125 
L 471.648807 433.16125 
L 483.48517 433.16125 
L 495.321534 433.16125 
L 507.157898 433.16125 
L 518.994261 433.16125 
L 530.830625 433.16125 
" style="fill:none;stroke:#000000;stroke-linecap:square;stroke-width:1.5;"/>
   </g>
   <g id="line2d_67">
    <path clip-path="url(#p050195a7bc)" d="M 140.230625 433.16125 
L 152.066989 433.16125 
L 163.903352 433.16125 
L 175.739716 433.16125 
L 187.57608 433.16125 
L 199.412443 433.16125 
L 211.248807 433.16125 
L 223.08517 433.16125 
L 234.921534 433.16125 
L 246.757898 433.16125 
L 258.594261 433.16125 
L 270.430625 433.16125 
L 282.266989 433.16125 
L 294.103352 433.16125 
L 305.939716 433.16125 
L 317.77608 433.16125 
L 329.612443 433.16125 
L 341.448807 433.16125 
L 353.28517 433.16125 
L 365.121534 433.16125 
L 376.957898 433.16125 
L 388.794261 433.16125 
L 400.630625 433.16125 
L 412.466989 433.16125 
L 424.303352 433.16125 
L 436.139716 433.16125 
L 447.97608 433.16125 
L 459.812443 433.16125 
L 471.648807 433.16125 
L 483.48517 433.16125 
L 495.321534 433.16125 
L 507.157898 433.16125 
L 518.994261 433.16125 
L 530.830625 433.16125 
" style="fill:none;stroke:#000000;stroke-linecap:square;stroke-width:1.5;"/>
   </g>
   <g id="line2d_68">
    <path clip-path="url(#p050195a7bc)" d="M 140.230625 433.16125 
L 152.066989 433.16125 
L 163.903352 433.16125 
L 175.739716 433.16125 
L 187.57608 433.16125 
L 199.412443 433.16125 
L 211.248807 433.16125 
L 223.08517 433.16125 
L 234.921534 433.16125 
L 246.757898 433.16125 
L 258.594261 433.16125 
L 270.430625 433.16125 
L 282.266989 433.16125 
L 294.103352 433.16125 
L 305.939716 433.16125 
L 317.77608 433.16125 
L 329.612443 433.16125 
L 341.448807 433.16125 
L 353.28517 433.16125 
L 365.121534 433.16125 
L 376.957898 433.16125 
L 388.794261 433.16125 
L 400.630625 433.16125 
L 412.466989 433.16125 
L 424.303352 433.16125 
L 436.139716 433.16125 
L 447.97608 433.16125 
L 459.812443 433.16125 
L 471.648807 433.16125 
L 483.48517 433.16125 
L 495.321534 433.16125 
L 507.157898 433.16125 
L 518.994261 433.16125 
L 530.830625 433.16125 
" style="fill:none;stroke:#000000;stroke-linecap:square;stroke-width:1.5;"/>
   </g>
   <g id="line2d_69">
    <path clip-path="url(#p050195a7bc)" d="M 140.230625 433.16125 
L 152.066989 433.16125 
L 163.903352 433.16125 
L 175.739716 433.16125 
L 187.57608 433.16125 
L 199.412443 433.16125 
L 211.248807 433.16125 
L 223.08517 433.16125 
L 234.921534 433.16125 
L 246.757898 433.16125 
L 258.594261 433.16125 
L 270.430625 433.16125 
L 282.266989 433.16125 
L 294.103352 433.16125 
L 305.939716 433.16125 
L 317.77608 433.16125 
L 329.612443 433.16125 
L 341.448807 433.16125 
L 353.28517 433.16125 
L 365.121534 433.16125 
L 376.957898 433.16125 
L 388.794261 433.16125 
L 400.630625 433.16125 
L 412.466989 433.16125 
L 424.303352 433.16125 
L 436.139716 433.16125 
L 447.97608 433.16125 
L 459.812443 433.16125 
L 471.648807 433.16125 
L 483.48517 433.16125 
L 495.321534 433.16125 
L 507.157898 433.16125 
L 518.994261 433.16125 
L 530.830625 433.16125 
" style="fill:none;stroke:#000000;stroke-linecap:square;stroke-width:1.5;"/>
   </g>
   <g id="line2d_70">
    <path clip-path="url(#p050195a7bc)" d="M 140.230625 433.16125 
L 152.066989 433.16125 
L 163.903352 433.16125 
L 175.739716 433.16125 
L 187.57608 433.16125 
L 199.412443 433.16125 
L 211.248807 433.16125 
L 223.08517 433.16125 
L 234.921534 433.16125 
L 246.757898 433.16125 
L 258.594261 433.16125 
L 270.430625 433.16125 
L 282.266989 433.16125 
L 294.103352 433.16125 
L 305.939716 433.16125 
L 317.77608 433.16125 
L 329.612443 433.16125 
L 341.448807 433.16125 
L 353.28517 433.16125 
L 365.121534 433.16125 
L 376.957898 433.16125 
L 388.794261 433.16125 
L 400.630625 433.16125 
L 412.466989 433.16125 
L 424.303352 433.16125 
L 436.139716 433.16125 
L 447.97608 433.16125 
L 459.812443 433.16125 
L 471.648807 433.16125 
L 483.48517 433.16125 
L 495.321534 433.16125 
L 507.157898 433.16125 
L 518.994261 433.16125 
L 530.830625 433.16125 
" style="fill:none;stroke:#000000;stroke-linecap:square;stroke-width:1.5;"/>
   </g>
   <g id="line2d_71">
    <path clip-path="url(#p050195a7bc)" d="M 140.230625 433.16125 
L 152.066989 433.16125 
L 163.903352 433.16125 
L 175.739716 433.16125 
L 187.57608 433.16125 
L 199.412443 433.16125 
L 211.248807 433.16125 
L 223.08517 433.16125 
L 234.921534 433.16125 
L 246.757898 433.16125 
L 258.594261 433.16125 
L 270.430625 433.16125 
L 282.266989 433.16125 
L 294.103352 433.16125 
L 305.939716 433.16125 
L 317.77608 433.16125 
L 329.612443 433.16125 
L 341.448807 433.16125 
L 353.28517 433.16125 
L 365.121534 433.16125 
L 376.957898 433.16125 
L 388.794261 433.16125 
L 400.630625 433.16125 
L 412.466989 433.16125 
L 424.303352 433.16125 
L 436.139716 433.16125 
L 447.97608 433.16125 
L 459.812443 433.16125 
L 471.648807 433.16125 
L 483.48517 433.16125 
L 495.321534 433.16125 
L 507.157898 433.16125 
L 518.994261 433.16125 
L 530.830625 433.16125 
" style="fill:none;stroke:#000000;stroke-linecap:square;stroke-width:1.5;"/>
   </g>
   <g id="line2d_72">
    <path clip-path="url(#p050195a7bc)" d="M 140.230625 433.16125 
L 152.066989 433.16125 
L 163.903352 433.16125 
L 175.739716 433.16125 
L 187.57608 433.16125 
L 199.412443 433.16125 
L 211.248807 433.16125 
L 223.08517 433.16125 
L 234.921534 433.16125 
L 246.757898 433.16125 
L 258.594261 433.16125 
L 270.430625 433.16125 
L 282.266989 433.16125 
L 294.103352 433.16125 
L 305.939716 433.16125 
L 317.77608 433.16125 
L 329.612443 433.16125 
L 341.448807 433.16125 
L 353.28517 433.16125 
L 365.121534 433.16125 
L 376.957898 433.16125 
L 388.794261 433.16125 
L 400.630625 433.16125 
L 412.466989 433.16125 
L 424.303352 433.16125 
L 436.139716 433.16125 
L 447.97608 433.16125 
L 459.812443 433.16125 
L 471.648807 433.16125 
L 483.48517 433.16125 
L 495.321534 433.16125 
L 507.157898 433.16125 
L 518.994261 433.16125 
L 530.830625 433.16125 
" style="fill:none;stroke:#000000;stroke-linecap:square;stroke-width:1.5;"/>
   </g>
   <g id="line2d_73">
    <path clip-path="url(#p050195a7bc)" d="M 128.394261 433.16125 
" style="fill:none;stroke:#000000;stroke-linecap:square;stroke-width:1.5;"/>
   </g>
   <g id="line2d_74">
    <path clip-path="url(#p050195a7bc)" d="M 128.394261 433.16125 
" style="fill:none;stroke:#d0e1f2;stroke-linecap:square;stroke-width:1.5;"/>
   </g>
   <g id="line2d_75">
    <path clip-path="url(#p050195a7bc)" d="M 128.394261 433.16125 
" style="fill:none;stroke:#94c4df;stroke-linecap:square;stroke-width:1.5;"/>
   </g>
   <g id="line2d_76">
    <path clip-path="url(#p050195a7bc)" d="M 128.394261 433.16125 
" style="fill:none;stroke:#4a98c9;stroke-linecap:square;stroke-width:1.5;"/>
   </g>
   <g id="line2d_77">
    <path clip-path="url(#p050195a7bc)" d="M 128.394261 433.16125 
" style="fill:none;stroke:#1764ab;stroke-linecap:square;stroke-width:1.5;"/>
   </g>
   <g id="line2d_78">
    <path clip-path="url(#p050195a7bc)" d="M 128.394261 433.16125 
" style="fill:none;stroke:#08306b;stroke-linecap:square;stroke-width:1.5;"/>
   </g>
   <g id="line2d_79">
    <path clip-path="url(#p050195a7bc)" d="M 128.394261 433.16125 
" style="fill:none;stroke:#000000;stroke-linecap:square;stroke-width:1.5;"/>
   </g>
   <g id="line2d_80">
    <path clip-path="url(#p050195a7bc)" d="M 128.394261 433.16125 
" style="fill:none;stroke:#000000;stroke-dasharray:1.5,2.475;stroke-dashoffset:0;stroke-width:1.5;"/>
   </g>
   <g id="line2d_81">
    <path clip-path="url(#p050195a7bc)" d="M 128.394261 433.16125 
" style="fill:none;stroke:#000000;stroke-linecap:square;stroke-width:1.5;"/>
   </g>
   <g id="line2d_82">
    <path clip-path="url(#p050195a7bc)" d="M 128.394261 433.16125 
" style="fill:none;stroke:#000000;stroke-dasharray:5.55,2.4;stroke-dashoffset:0;stroke-width:1.5;"/>
   </g>
   <g id="line2d_83">
    <path clip-path="url(#p050195a7bc)" d="M 128.394261 433.16125 
" style="fill:none;stroke:#000000;stroke-dasharray:9.6,2.4,1.5,2.4;stroke-dashoffset:0;stroke-width:1.5;"/>
   </g>
   <g id="line2d_84">
    <path clip-path="url(#p050195a7bc)" d="M 128.394261 433.16125 
" style="fill:none;stroke:#000000;stroke-dasharray:9.6,2.4,1.5,2.4;stroke-dashoffset:0;stroke-width:1.5;"/>
   </g>
   <g id="patch_3">
    <path d="M 140.230625 433.16125 
L 140.230625 52.64125 
" style="fill:none;stroke:#000000;stroke-linecap:square;stroke-linejoin:miter;stroke-width:0.8;"/>
   </g>
   <g id="patch_4">
    <path d="M 530.830625 433.16125 
L 530.830625 52.64125 
" style="fill:none;stroke:#000000;stroke-linecap:square;stroke-linejoin:miter;stroke-width:0.8;"/>
   </g>
   <g id="patch_5">
    <path d="M 140.230625 433.16125 
L 530.830625 433.16125 
" style="fill:none;stroke:#000000;stroke-linecap:square;stroke-linejoin:miter;stroke-width:0.8;"/>
   </g>
   <g id="patch_6">
    <path d="M 140.230625 52.64125 
L 530.830625 52.64125 
" style="fill:none;stroke:#000000;stroke-linecap:square;stroke-linejoin:miter;stroke-width:0.8;"/>
   </g>
   <g id="text_15">
    <!-- CD4 LIVE COUNT -->
    <g transform="translate(252.191562 21.515625)scale(0.2 -0.2)">
     <use xlink:href="#Arial-BoldMT-67"/>
     <use x="72.216797" xlink:href="#Arial-BoldMT-68"/>
     <use x="144.433594" xlink:href="#Arial-BoldMT-52"/>
     <use x="200.048828" xlink:href="#Arial-BoldMT-32"/>
     <use x="227.832031" xlink:href="#Arial-BoldMT-76"/>
     <use x="288.916016" xlink:href="#Arial-BoldMT-73"/>
     <use x="316.699219" xlink:href="#Arial-BoldMT-86"/>
     <use x="383.398438" xlink:href="#Arial-BoldMT-69"/>
     <use x="450.097656" xlink:href="#Arial-BoldMT-32"/>
     <use x="477.880859" xlink:href="#Arial-BoldMT-67"/>
     <use x="550.097656" xlink:href="#Arial-BoldMT-79"/>
     <use x="627.880859" xlink:href="#Arial-BoldMT-85"/>
     <use x="700.097656" xlink:href="#Arial-BoldMT-78"/>
     <use x="772.314453" xlink:href="#Arial-BoldMT-84"/>
    </g>
    <!-- ACROSS RADIUS AT TIME 7 -->
    <defs>
     <path d="M 4.25 57.859375 
L 4.25 70.609375 
L 51.171875 70.609375 
L 51.171875 60.640625 
Q 45.359375 54.9375 39.34375 44.234375 
Q 33.34375 33.546875 30.1875 21.5 
Q 27.046875 9.46875 27.09375 0 
L 13.875 0 
Q 14.203125 14.84375 19.984375 30.265625 
Q 25.78125 45.703125 35.453125 57.859375 
z
" id="Arial-BoldMT-55"/>
    </defs>
    <g transform="translate(200.536875 42.64125)scale(0.2 -0.2)">
     <use xlink:href="#Arial-BoldMT-65"/>
     <use x="72.216797" xlink:href="#Arial-BoldMT-67"/>
     <use x="144.433594" xlink:href="#Arial-BoldMT-82"/>
     <use x="216.650391" xlink:href="#Arial-BoldMT-79"/>
     <use x="294.433594" xlink:href="#Arial-BoldMT-83"/>
     <use x="361.132812" xlink:href="#Arial-BoldMT-83"/>
     <use x="427.832031" xlink:href="#Arial-BoldMT-32"/>
     <use x="455.615234" xlink:href="#Arial-BoldMT-82"/>
     <use x="527.832031" xlink:href="#Arial-BoldMT-65"/>
     <use x="600.048828" xlink:href="#Arial-BoldMT-68"/>
     <use x="672.265625" xlink:href="#Arial-BoldMT-73"/>
     <use x="700.048828" xlink:href="#Arial-BoldMT-85"/>
     <use x="772.265625" xlink:href="#Arial-BoldMT-83"/>
     <use x="838.964844" xlink:href="#Arial-BoldMT-32"/>
     <use x="866.701172" xlink:href="#Arial-BoldMT-65"/>
     <use x="938.808594" xlink:href="#Arial-BoldMT-84"/>
     <use x="999.892578" xlink:href="#Arial-BoldMT-32"/>
     <use x="1027.675781" xlink:href="#Arial-BoldMT-84"/>
     <use x="1088.759766" xlink:href="#Arial-BoldMT-73"/>
     <use x="1116.542969" xlink:href="#Arial-BoldMT-77"/>
     <use x="1199.84375" xlink:href="#Arial-BoldMT-69"/>
     <use x="1266.542969" xlink:href="#Arial-BoldMT-32"/>
     <use x="1294.326172" xlink:href="#Arial-BoldMT-55"/>
    </g>
   </g>
   <g id="legend_1">
    <g id="line2d_85">
     <path d="M 539.830625 65.739687 
L 559.830625 65.739687 
" style="fill:none;stroke:#000000;stroke-linecap:square;stroke-width:1.5;"/>
    </g>
    <g id="line2d_86"/>
    <g id="text_16">
     <!-- 0 -->
     <g transform="translate(567.830625 69.239687)scale(0.1 -0.1)">
      <use xlink:href="#DejaVuSans-48"/>
     </g>
    </g>
    <g id="line2d_87">
     <path d="M 539.830625 80.417812 
L 559.830625 80.417812 
" style="fill:none;stroke:#d0e1f2;stroke-linecap:square;stroke-width:1.5;"/>
    </g>
    <g id="line2d_88"/>
    <g id="text_17">
     <!-- 100 -->
     <g transform="translate(567.830625 83.917812)scale(0.1 -0.1)">
      <use xlink:href="#DejaVuSans-49"/>
      <use x="63.623047" xlink:href="#DejaVuSans-48"/>
      <use x="127.246094" xlink:href="#DejaVuSans-48"/>
     </g>
    </g>
    <g id="line2d_89">
     <path d="M 539.830625 95.095937 
L 559.830625 95.095937 
" style="fill:none;stroke:#94c4df;stroke-linecap:square;stroke-width:1.5;"/>
    </g>
    <g id="line2d_90"/>
    <g id="text_18">
     <!-- 500 -->
     <g transform="translate(567.830625 98.595937)scale(0.1 -0.1)">
      <use xlink:href="#DejaVuSans-53"/>
      <use x="63.623047" xlink:href="#DejaVuSans-48"/>
      <use x="127.246094" xlink:href="#DejaVuSans-48"/>
     </g>
    </g>
    <g id="line2d_91">
     <path d="M 539.830625 109.774062 
L 559.830625 109.774062 
" style="fill:none;stroke:#4a98c9;stroke-linecap:square;stroke-width:1.5;"/>
    </g>
    <g id="line2d_92"/>
    <g id="text_19">
     <!-- 1000 -->
     <g transform="translate(567.830625 113.274062)scale(0.1 -0.1)">
      <use xlink:href="#DejaVuSans-49"/>
      <use x="63.623047" xlink:href="#DejaVuSans-48"/>
      <use x="127.246094" xlink:href="#DejaVuSans-48"/>
      <use x="190.869141" xlink:href="#DejaVuSans-48"/>
     </g>
    </g>
    <g id="line2d_93">
     <path d="M 539.830625 124.452187 
L 559.830625 124.452187 
" style="fill:none;stroke:#1764ab;stroke-linecap:square;stroke-width:1.5;"/>
    </g>
    <g id="line2d_94"/>
    <g id="text_20">
     <!-- 5000 -->
     <g transform="translate(567.830625 127.952187)scale(0.1 -0.1)">
      <use xlink:href="#DejaVuSans-53"/>
      <use x="63.623047" xlink:href="#DejaVuSans-48"/>
      <use x="127.246094" xlink:href="#DejaVuSans-48"/>
      <use x="190.869141" xlink:href="#DejaVuSans-48"/>
     </g>
    </g>
    <g id="line2d_95">
     <path d="M 539.830625 139.130312 
L 559.830625 139.130312 
" style="fill:none;stroke:#08306b;stroke-linecap:square;stroke-width:1.5;"/>
    </g>
    <g id="line2d_96"/>
    <g id="text_21">
     <!-- 10000 -->
     <g transform="translate(567.830625 142.630312)scale(0.1 -0.1)">
      <use xlink:href="#DejaVuSans-49"/>
      <use x="63.623047" xlink:href="#DejaVuSans-48"/>
      <use x="127.246094" xlink:href="#DejaVuSans-48"/>
      <use x="190.869141" xlink:href="#DejaVuSans-48"/>
      <use x="254.492188" xlink:href="#DejaVuSans-48"/>
     </g>
    </g>
    <g id="line2d_97">
     <path d="M 539.830625 153.808437 
L 559.830625 153.808437 
" style="fill:none;stroke:#000000;stroke-linecap:square;stroke-width:1.5;"/>
    </g>
    <g id="line2d_98"/>
    <g id="text_22">
     <!-- 0 -->
     <g transform="translate(567.830625 157.308437)scale(0.1 -0.1)">
      <use xlink:href="#DejaVuSans-48"/>
     </g>
    </g>
    <g id="line2d_99">
     <path d="M 539.830625 168.486562 
L 559.830625 168.486562 
" style="fill:none;stroke:#000000;stroke-dasharray:1.5,2.475;stroke-dashoffset:0;stroke-width:1.5;"/>
    </g>
    <g id="line2d_100"/>
    <g id="text_23">
     <!-- 250 -->
     <g transform="translate(567.830625 171.986562)scale(0.1 -0.1)">
      <use xlink:href="#DejaVuSans-50"/>
      <use x="63.623047" xlink:href="#DejaVuSans-53"/>
      <use x="127.246094" xlink:href="#DejaVuSans-48"/>
     </g>
    </g>
    <g id="line2d_101">
     <path d="M 539.830625 183.164687 
L 559.830625 183.164687 
" style="fill:none;stroke:#000000;stroke-linecap:square;stroke-width:1.5;"/>
    </g>
    <g id="line2d_102"/>
    <g id="text_24">
     <!-- 500 -->
     <g transform="translate(567.830625 186.664687)scale(0.1 -0.1)">
      <use xlink:href="#DejaVuSans-53"/>
      <use x="63.623047" xlink:href="#DejaVuSans-48"/>
      <use x="127.246094" xlink:href="#DejaVuSans-48"/>
     </g>
    </g>
    <g id="line2d_103">
     <path d="M 539.830625 197.842812 
L 559.830625 197.842812 
" style="fill:none;stroke:#000000;stroke-dasharray:5.55,2.4;stroke-dashoffset:0;stroke-width:1.5;"/>
    </g>
    <g id="line2d_104"/>
    <g id="text_25">
     <!-- 1000 -->
     <g transform="translate(567.830625 201.342812)scale(0.1 -0.1)">
      <use xlink:href="#DejaVuSans-49"/>
      <use x="63.623047" xlink:href="#DejaVuSans-48"/>
      <use x="127.246094" xlink:href="#DejaVuSans-48"/>
      <use x="190.869141" xlink:href="#DejaVuSans-48"/>
     </g>
    </g>
    <g id="line2d_105">
     <path d="M 539.830625 212.520937 
L 559.830625 212.520937 
" style="fill:none;stroke:#000000;stroke-dasharray:9.6,2.4,1.5,2.4;stroke-dashoffset:0;stroke-width:1.5;"/>
    </g>
    <g id="line2d_106"/>
    <g id="text_26">
     <!-- 5000 -->
     <g transform="translate(567.830625 216.020937)scale(0.1 -0.1)">
      <use xlink:href="#DejaVuSans-53"/>
      <use x="63.623047" xlink:href="#DejaVuSans-48"/>
      <use x="127.246094" xlink:href="#DejaVuSans-48"/>
      <use x="190.869141" xlink:href="#DejaVuSans-48"/>
     </g>
    </g>
    <g id="line2d_107">
     <path d="M 539.830625 227.199062 
L 559.830625 227.199062 
" style="fill:none;stroke:#000000;stroke-dasharray:9.6,2.4,1.5,2.4;stroke-dashoffset:0;stroke-width:1.5;"/>
    </g>
    <g id="line2d_108"/>
    <g id="text_27">
     <!-- 10000 -->
     <g transform="translate(567.830625 230.699062)scale(0.1 -0.1)">
      <use xlink:href="#DejaVuSans-49"/>
      <use x="63.623047" xlink:href="#DejaVuSans-48"/>
      <use x="127.246094" xlink:href="#DejaVuSans-48"/>
      <use x="190.869141" xlink:href="#DejaVuSans-48"/>
      <use x="254.492188" xlink:href="#DejaVuSans-48"/>
     </g>
    </g>
   </g>
  </g>
 </g>
 <defs>
  <clipPath id="p050195a7bc">
   <rect height="380.52" width="390.6" x="140.230625" y="52.64125"/>
  </clipPath>
 </defs>
</svg>
