<?xml version="1.0" encoding="utf-8" standalone="no"?>
<!DOCTYPE svg PUBLIC "-//W3C//DTD SVG 1.1//EN"
  "http://www.w3.org/Graphics/SVG/1.1/DTD/svg11.dtd">
<!-- Created with matplotlib (https://matplotlib.org/) -->
<svg height="504.658125pt" version="1.1" viewBox="0 0 572.668125 504.658125" width="572.668125pt" xmlns="http://www.w3.org/2000/svg" xmlns:xlink="http://www.w3.org/1999/xlink">
 <defs>
  <style type="text/css">
*{stroke-linecap:butt;stroke-linejoin:round;}
  </style>
 </defs>
 <g id="figure_1">
  <g id="patch_1">
   <path d="M 0 504.658125 
L 572.668125 504.658125 
L 572.668125 -0 
L 0 -0 
z
" style="fill:#ffffff;"/>
  </g>
  <g id="axes_1">
   <g id="patch_2">
    <path d="M 102.055625 433.16125 
L 492.655625 433.16125 
L 492.655625 52.64125 
L 102.055625 52.64125 
z
" style="fill:#ffffff;"/>
   </g>
   <g id="matplotlib.axis_1">
    <g id="xtick_1">
     <g id="line2d_1">
      <defs>
       <path d="M 0 0 
L 0 3.5 
" id="m15d7194a2e" style="stroke:#000000;stroke-width:0.8;"/>
      </defs>
      <g>
       <use style="stroke:#000000;stroke-width:0.8;" x="149.40108" xlink:href="#m15d7194a2e" y="433.16125"/>
      </g>
     </g>
     <g id="text_1">
      <!-- 5 -->
      <defs>
       <path d="M 10.796875 72.90625 
L 49.515625 72.90625 
L 49.515625 64.59375 
L 19.828125 64.59375 
L 19.828125 46.734375 
Q 21.96875 47.46875 24.109375 47.828125 
Q 26.265625 48.1875 28.421875 48.1875 
Q 40.625 48.1875 47.75 41.5 
Q 54.890625 34.8125 54.890625 23.390625 
Q 54.890625 11.625 47.5625 5.09375 
Q 40.234375 -1.421875 26.90625 -1.421875 
Q 22.3125 -1.421875 17.546875 -0.640625 
Q 12.796875 0.140625 7.71875 1.703125 
L 7.71875 11.625 
Q 12.109375 9.234375 16.796875 8.0625 
Q 21.484375 6.890625 26.703125 6.890625 
Q 35.15625 6.890625 40.078125 11.328125 
Q 45.015625 15.765625 45.015625 23.390625 
Q 45.015625 31 40.078125 35.4375 
Q 35.15625 39.890625 26.703125 39.890625 
Q 22.75 39.890625 18.8125 39.015625 
Q 14.890625 38.140625 10.796875 36.28125 
z
" id="DejaVuSans-53"/>
      </defs>
      <g transform="translate(139.85733 462.956562)scale(0.3 -0.3)">
       <use xlink:href="#DejaVuSans-53"/>
      </g>
     </g>
    </g>
    <g id="xtick_2">
     <g id="line2d_2">
      <g>
       <use style="stroke:#000000;stroke-width:0.8;" x="208.582898" xlink:href="#m15d7194a2e" y="433.16125"/>
      </g>
     </g>
     <g id="text_2">
      <!-- 10 -->
      <defs>
       <path d="M 12.40625 8.296875 
L 28.515625 8.296875 
L 28.515625 63.921875 
L 10.984375 60.40625 
L 10.984375 69.390625 
L 28.421875 72.90625 
L 38.28125 72.90625 
L 38.28125 8.296875 
L 54.390625 8.296875 
L 54.390625 0 
L 12.40625 0 
z
" id="DejaVuSans-49"/>
       <path d="M 31.78125 66.40625 
Q 24.171875 66.40625 20.328125 58.90625 
Q 16.5 51.421875 16.5 36.375 
Q 16.5 21.390625 20.328125 13.890625 
Q 24.171875 6.390625 31.78125 6.390625 
Q 39.453125 6.390625 43.28125 13.890625 
Q 47.125 21.390625 47.125 36.375 
Q 47.125 51.421875 43.28125 58.90625 
Q 39.453125 66.40625 31.78125 66.40625 
z
M 31.78125 74.21875 
Q 44.046875 74.21875 50.515625 64.515625 
Q 56.984375 54.828125 56.984375 36.375 
Q 56.984375 17.96875 50.515625 8.265625 
Q 44.046875 -1.421875 31.78125 -1.421875 
Q 19.53125 -1.421875 13.0625 8.265625 
Q 6.59375 17.96875 6.59375 36.375 
Q 6.59375 54.828125 13.0625 64.515625 
Q 19.53125 74.21875 31.78125 74.21875 
z
" id="DejaVuSans-48"/>
      </defs>
      <g transform="translate(189.495398 462.956562)scale(0.3 -0.3)">
       <use xlink:href="#DejaVuSans-49"/>
       <use x="63.623047" xlink:href="#DejaVuSans-48"/>
      </g>
     </g>
    </g>
    <g id="xtick_3">
     <g id="line2d_3">
      <g>
       <use style="stroke:#000000;stroke-width:0.8;" x="267.764716" xlink:href="#m15d7194a2e" y="433.16125"/>
      </g>
     </g>
     <g id="text_3">
      <!-- 15 -->
      <g transform="translate(248.677216 462.956562)scale(0.3 -0.3)">
       <use xlink:href="#DejaVuSans-49"/>
       <use x="63.623047" xlink:href="#DejaVuSans-53"/>
      </g>
     </g>
    </g>
    <g id="xtick_4">
     <g id="line2d_4">
      <g>
       <use style="stroke:#000000;stroke-width:0.8;" x="326.946534" xlink:href="#m15d7194a2e" y="433.16125"/>
      </g>
     </g>
     <g id="text_4">
      <!-- 20 -->
      <defs>
       <path d="M 19.1875 8.296875 
L 53.609375 8.296875 
L 53.609375 0 
L 7.328125 0 
L 7.328125 8.296875 
Q 12.9375 14.109375 22.625 23.890625 
Q 32.328125 33.6875 34.8125 36.53125 
Q 39.546875 41.84375 41.421875 45.53125 
Q 43.3125 49.21875 43.3125 52.78125 
Q 43.3125 58.59375 39.234375 62.25 
Q 35.15625 65.921875 28.609375 65.921875 
Q 23.96875 65.921875 18.8125 64.3125 
Q 13.671875 62.703125 7.8125 59.421875 
L 7.8125 69.390625 
Q 13.765625 71.78125 18.9375 73 
Q 24.125 74.21875 28.421875 74.21875 
Q 39.75 74.21875 46.484375 68.546875 
Q 53.21875 62.890625 53.21875 53.421875 
Q 53.21875 48.921875 51.53125 44.890625 
Q 49.859375 40.875 45.40625 35.40625 
Q 44.1875 33.984375 37.640625 27.21875 
Q 31.109375 20.453125 19.1875 8.296875 
z
" id="DejaVuSans-50"/>
      </defs>
      <g transform="translate(307.859034 462.956562)scale(0.3 -0.3)">
       <use xlink:href="#DejaVuSans-50"/>
       <use x="63.623047" xlink:href="#DejaVuSans-48"/>
      </g>
     </g>
    </g>
    <g id="xtick_5">
     <g id="line2d_5">
      <g>
       <use style="stroke:#000000;stroke-width:0.8;" x="386.128352" xlink:href="#m15d7194a2e" y="433.16125"/>
      </g>
     </g>
     <g id="text_5">
      <!-- 25 -->
      <g transform="translate(367.040852 462.956562)scale(0.3 -0.3)">
       <use xlink:href="#DejaVuSans-50"/>
       <use x="63.623047" xlink:href="#DejaVuSans-53"/>
      </g>
     </g>
    </g>
    <g id="xtick_6">
     <g id="line2d_6">
      <g>
       <use style="stroke:#000000;stroke-width:0.8;" x="445.31017" xlink:href="#m15d7194a2e" y="433.16125"/>
      </g>
     </g>
     <g id="text_6">
      <!-- 30 -->
      <defs>
       <path d="M 40.578125 39.3125 
Q 47.65625 37.796875 51.625 33 
Q 55.609375 28.21875 55.609375 21.1875 
Q 55.609375 10.40625 48.1875 4.484375 
Q 40.765625 -1.421875 27.09375 -1.421875 
Q 22.515625 -1.421875 17.65625 -0.515625 
Q 12.796875 0.390625 7.625 2.203125 
L 7.625 11.71875 
Q 11.71875 9.328125 16.59375 8.109375 
Q 21.484375 6.890625 26.8125 6.890625 
Q 36.078125 6.890625 40.9375 10.546875 
Q 45.796875 14.203125 45.796875 21.1875 
Q 45.796875 27.640625 41.28125 31.265625 
Q 36.765625 34.90625 28.71875 34.90625 
L 20.21875 34.90625 
L 20.21875 43.015625 
L 29.109375 43.015625 
Q 36.375 43.015625 40.234375 45.921875 
Q 44.09375 48.828125 44.09375 54.296875 
Q 44.09375 59.90625 40.109375 62.90625 
Q 36.140625 65.921875 28.71875 65.921875 
Q 24.65625 65.921875 20.015625 65.03125 
Q 15.375 64.15625 9.8125 62.3125 
L 9.8125 71.09375 
Q 15.4375 72.65625 20.34375 73.4375 
Q 25.25 74.21875 29.59375 74.21875 
Q 40.828125 74.21875 47.359375 69.109375 
Q 53.90625 64.015625 53.90625 55.328125 
Q 53.90625 49.265625 50.4375 45.09375 
Q 46.96875 40.921875 40.578125 39.3125 
z
" id="DejaVuSans-51"/>
      </defs>
      <g transform="translate(426.22267 462.956562)scale(0.3 -0.3)">
       <use xlink:href="#DejaVuSans-51"/>
       <use x="63.623047" xlink:href="#DejaVuSans-48"/>
      </g>
     </g>
    </g>
    <g id="text_7">
     <!-- RADIUS -->
     <defs>
      <path d="M 7.328125 0 
L 7.328125 71.578125 
L 37.75 71.578125 
Q 49.21875 71.578125 54.421875 69.640625 
Q 59.625 67.71875 62.75 62.78125 
Q 65.875 57.859375 65.875 51.515625 
Q 65.875 43.453125 61.125 38.203125 
Q 56.390625 32.953125 46.96875 31.59375 
Q 51.65625 28.859375 54.703125 25.578125 
Q 57.765625 22.3125 62.9375 13.96875 
L 71.6875 0 
L 54.390625 0 
L 43.953125 15.578125 
Q 38.375 23.921875 36.328125 26.09375 
Q 34.28125 28.265625 31.984375 29.078125 
Q 29.6875 29.890625 24.703125 29.890625 
L 21.78125 29.890625 
L 21.78125 0 
z
M 21.78125 41.3125 
L 32.46875 41.3125 
Q 42.875 41.3125 45.453125 42.1875 
Q 48.046875 43.0625 49.515625 45.203125 
Q 50.984375 47.359375 50.984375 50.59375 
Q 50.984375 54.203125 49.046875 56.421875 
Q 47.125 58.640625 43.609375 59.234375 
Q 41.84375 59.46875 33.0625 59.46875 
L 21.78125 59.46875 
z
" id="Arial-BoldMT-82"/>
      <path d="M 71.828125 0 
L 56.109375 0 
L 49.859375 16.265625 
L 21.234375 16.265625 
L 15.328125 0 
L 0 0 
L 27.875 71.578125 
L 43.171875 71.578125 
z
M 45.21875 28.328125 
L 35.359375 54.890625 
L 25.6875 28.328125 
z
" id="Arial-BoldMT-65"/>
      <path d="M 7.234375 71.578125 
L 33.640625 71.578125 
Q 42.578125 71.578125 47.265625 70.21875 
Q 53.5625 68.359375 58.046875 63.625 
Q 62.546875 58.890625 64.890625 52.03125 
Q 67.234375 45.171875 67.234375 35.109375 
Q 67.234375 26.265625 65.046875 19.875 
Q 62.359375 12.0625 57.375 7.234375 
Q 53.609375 3.5625 47.21875 1.515625 
Q 42.4375 0 34.421875 0 
L 7.234375 0 
z
M 21.6875 59.46875 
L 21.6875 12.0625 
L 32.46875 12.0625 
Q 38.53125 12.0625 41.21875 12.75 
Q 44.734375 13.625 47.046875 15.71875 
Q 49.359375 17.828125 50.828125 22.625 
Q 52.296875 27.4375 52.296875 35.75 
Q 52.296875 44.046875 50.828125 48.484375 
Q 49.359375 52.9375 46.71875 55.421875 
Q 44.09375 57.90625 40.046875 58.796875 
Q 37.015625 59.46875 28.171875 59.46875 
z
" id="Arial-BoldMT-68"/>
      <path d="M 6.84375 0 
L 6.84375 71.578125 
L 21.296875 71.578125 
L 21.296875 0 
z
" id="Arial-BoldMT-73"/>
      <path d="M 7.171875 71.578125 
L 21.625 71.578125 
L 21.625 32.8125 
Q 21.625 23.578125 22.171875 20.84375 
Q 23.09375 16.453125 26.578125 13.796875 
Q 30.078125 11.140625 36.140625 11.140625 
Q 42.28125 11.140625 45.40625 13.640625 
Q 48.53125 16.15625 49.171875 19.8125 
Q 49.8125 23.484375 49.8125 31.984375 
L 49.8125 71.578125 
L 64.265625 71.578125 
L 64.265625 33.984375 
Q 64.265625 21.09375 63.09375 15.765625 
Q 61.921875 10.453125 58.765625 6.78125 
Q 55.609375 3.125 50.328125 0.953125 
Q 45.0625 -1.21875 36.578125 -1.21875 
Q 26.3125 -1.21875 21.015625 1.140625 
Q 15.71875 3.515625 12.640625 7.296875 
Q 9.578125 11.078125 8.59375 15.234375 
Q 7.171875 21.390625 7.171875 33.40625 
z
" id="Arial-BoldMT-85"/>
      <path d="M 3.609375 23.296875 
L 17.671875 24.65625 
Q 18.953125 17.578125 22.828125 14.25 
Q 26.703125 10.9375 33.296875 10.9375 
Q 40.28125 10.9375 43.8125 13.890625 
Q 47.359375 16.84375 47.359375 20.796875 
Q 47.359375 23.34375 45.875 25.125 
Q 44.390625 26.90625 40.671875 28.21875 
Q 38.140625 29.109375 29.109375 31.34375 
Q 17.484375 34.234375 12.796875 38.421875 
Q 6.203125 44.34375 6.203125 52.828125 
Q 6.203125 58.296875 9.296875 63.0625 
Q 12.40625 67.828125 18.234375 70.3125 
Q 24.078125 72.796875 32.328125 72.796875 
Q 45.796875 72.796875 52.609375 66.890625 
Q 59.421875 60.984375 59.765625 51.125 
L 45.3125 50.484375 
Q 44.390625 56 41.328125 58.421875 
Q 38.28125 60.84375 32.171875 60.84375 
Q 25.875 60.84375 22.3125 58.25 
Q 20.015625 56.59375 20.015625 53.8125 
Q 20.015625 51.265625 22.171875 49.46875 
Q 24.90625 47.171875 35.453125 44.671875 
Q 46 42.1875 51.046875 39.515625 
Q 56.109375 36.859375 58.953125 32.25 
Q 61.8125 27.640625 61.8125 20.84375 
Q 61.8125 14.703125 58.390625 9.328125 
Q 54.984375 3.953125 48.734375 1.34375 
Q 42.484375 -1.265625 33.15625 -1.265625 
Q 19.578125 -1.265625 12.296875 5 
Q 5.03125 11.28125 3.609375 23.296875 
z
" id="Arial-BoldMT-83"/>
     </defs>
     <g transform="translate(259.019688 493.51125)scale(0.2 -0.2)">
      <use xlink:href="#Arial-BoldMT-82"/>
      <use x="72.216797" xlink:href="#Arial-BoldMT-65"/>
      <use x="144.433594" xlink:href="#Arial-BoldMT-68"/>
      <use x="216.650391" xlink:href="#Arial-BoldMT-73"/>
      <use x="244.433594" xlink:href="#Arial-BoldMT-85"/>
      <use x="316.650391" xlink:href="#Arial-BoldMT-83"/>
     </g>
    </g>
   </g>
   <g id="matplotlib.axis_2">
    <g id="ytick_1">
     <g id="line2d_7">
      <defs>
       <path d="M 0 0 
L -3.5 0 
" id="mbbfc9571b1" style="stroke:#000000;stroke-width:0.8;"/>
      </defs>
      <g>
       <use style="stroke:#000000;stroke-width:0.8;" x="102.055625" xlink:href="#mbbfc9571b1" y="433.16125"/>
      </g>
     </g>
     <g id="text_8">
      <!-- 0 -->
      <g transform="translate(75.968125 444.558906)scale(0.3 -0.3)">
       <use xlink:href="#DejaVuSans-48"/>
      </g>
     </g>
    </g>
    <g id="ytick_2">
     <g id="line2d_8">
      <g>
       <use style="stroke:#000000;stroke-width:0.8;" x="102.055625" xlink:href="#mbbfc9571b1" y="387.287832"/>
      </g>
     </g>
     <g id="text_9">
      <!-- 10 -->
      <g transform="translate(56.880625 398.685489)scale(0.3 -0.3)">
       <use xlink:href="#DejaVuSans-49"/>
       <use x="63.623047" xlink:href="#DejaVuSans-48"/>
      </g>
     </g>
    </g>
    <g id="ytick_3">
     <g id="line2d_9">
      <g>
       <use style="stroke:#000000;stroke-width:0.8;" x="102.055625" xlink:href="#mbbfc9571b1" y="341.414415"/>
      </g>
     </g>
     <g id="text_10">
      <!-- 20 -->
      <g transform="translate(56.880625 352.812071)scale(0.3 -0.3)">
       <use xlink:href="#DejaVuSans-50"/>
       <use x="63.623047" xlink:href="#DejaVuSans-48"/>
      </g>
     </g>
    </g>
    <g id="ytick_4">
     <g id="line2d_10">
      <g>
       <use style="stroke:#000000;stroke-width:0.8;" x="102.055625" xlink:href="#mbbfc9571b1" y="295.540997"/>
      </g>
     </g>
     <g id="text_11">
      <!-- 30 -->
      <g transform="translate(56.880625 306.938653)scale(0.3 -0.3)">
       <use xlink:href="#DejaVuSans-51"/>
       <use x="63.623047" xlink:href="#DejaVuSans-48"/>
      </g>
     </g>
    </g>
    <g id="ytick_5">
     <g id="line2d_11">
      <g>
       <use style="stroke:#000000;stroke-width:0.8;" x="102.055625" xlink:href="#mbbfc9571b1" y="249.667579"/>
      </g>
     </g>
     <g id="text_12">
      <!-- 40 -->
      <defs>
       <path d="M 37.796875 64.3125 
L 12.890625 25.390625 
L 37.796875 25.390625 
z
M 35.203125 72.90625 
L 47.609375 72.90625 
L 47.609375 25.390625 
L 58.015625 25.390625 
L 58.015625 17.1875 
L 47.609375 17.1875 
L 47.609375 0 
L 37.796875 0 
L 37.796875 17.1875 
L 4.890625 17.1875 
L 4.890625 26.703125 
z
" id="DejaVuSans-52"/>
      </defs>
      <g transform="translate(56.880625 261.065235)scale(0.3 -0.3)">
       <use xlink:href="#DejaVuSans-52"/>
       <use x="63.623047" xlink:href="#DejaVuSans-48"/>
      </g>
     </g>
    </g>
    <g id="ytick_6">
     <g id="line2d_12">
      <g>
       <use style="stroke:#000000;stroke-width:0.8;" x="102.055625" xlink:href="#mbbfc9571b1" y="203.794161"/>
      </g>
     </g>
     <g id="text_13">
      <!-- 50 -->
      <g transform="translate(56.880625 215.191818)scale(0.3 -0.3)">
       <use xlink:href="#DejaVuSans-53"/>
       <use x="63.623047" xlink:href="#DejaVuSans-48"/>
      </g>
     </g>
    </g>
    <g id="ytick_7">
     <g id="line2d_13">
      <g>
       <use style="stroke:#000000;stroke-width:0.8;" x="102.055625" xlink:href="#mbbfc9571b1" y="157.920744"/>
      </g>
     </g>
     <g id="text_14">
      <!-- 60 -->
      <defs>
       <path d="M 33.015625 40.375 
Q 26.375 40.375 22.484375 35.828125 
Q 18.609375 31.296875 18.609375 23.390625 
Q 18.609375 15.53125 22.484375 10.953125 
Q 26.375 6.390625 33.015625 6.390625 
Q 39.65625 6.390625 43.53125 10.953125 
Q 47.40625 15.53125 47.40625 23.390625 
Q 47.40625 31.296875 43.53125 35.828125 
Q 39.65625 40.375 33.015625 40.375 
z
M 52.59375 71.296875 
L 52.59375 62.3125 
Q 48.875 64.0625 45.09375 64.984375 
Q 41.3125 65.921875 37.59375 65.921875 
Q 27.828125 65.921875 22.671875 59.328125 
Q 17.53125 52.734375 16.796875 39.40625 
Q 19.671875 43.65625 24.015625 45.921875 
Q 28.375 48.1875 33.59375 48.1875 
Q 44.578125 48.1875 50.953125 41.515625 
Q 57.328125 34.859375 57.328125 23.390625 
Q 57.328125 12.15625 50.6875 5.359375 
Q 44.046875 -1.421875 33.015625 -1.421875 
Q 20.359375 -1.421875 13.671875 8.265625 
Q 6.984375 17.96875 6.984375 36.375 
Q 6.984375 53.65625 15.1875 63.9375 
Q 23.390625 74.21875 37.203125 74.21875 
Q 40.921875 74.21875 44.703125 73.484375 
Q 48.484375 72.75 52.59375 71.296875 
z
" id="DejaVuSans-54"/>
      </defs>
      <g transform="translate(56.880625 169.3184)scale(0.3 -0.3)">
       <use xlink:href="#DejaVuSans-54"/>
       <use x="63.623047" xlink:href="#DejaVuSans-48"/>
      </g>
     </g>
    </g>
    <g id="ytick_8">
     <g id="line2d_14">
      <g>
       <use style="stroke:#000000;stroke-width:0.8;" x="102.055625" xlink:href="#mbbfc9571b1" y="112.047326"/>
      </g>
     </g>
     <g id="text_15">
      <!-- 70 -->
      <defs>
       <path d="M 8.203125 72.90625 
L 55.078125 72.90625 
L 55.078125 68.703125 
L 28.609375 0 
L 18.3125 0 
L 43.21875 64.59375 
L 8.203125 64.59375 
z
" id="DejaVuSans-55"/>
      </defs>
      <g transform="translate(56.880625 123.444982)scale(0.3 -0.3)">
       <use xlink:href="#DejaVuSans-55"/>
       <use x="63.623047" xlink:href="#DejaVuSans-48"/>
      </g>
     </g>
    </g>
    <g id="ytick_9">
     <g id="line2d_15">
      <g>
       <use style="stroke:#000000;stroke-width:0.8;" x="102.055625" xlink:href="#mbbfc9571b1" y="66.173908"/>
      </g>
     </g>
     <g id="text_16">
      <!-- 80 -->
      <defs>
       <path d="M 31.78125 34.625 
Q 24.75 34.625 20.71875 30.859375 
Q 16.703125 27.09375 16.703125 20.515625 
Q 16.703125 13.921875 20.71875 10.15625 
Q 24.75 6.390625 31.78125 6.390625 
Q 38.8125 6.390625 42.859375 10.171875 
Q 46.921875 13.96875 46.921875 20.515625 
Q 46.921875 27.09375 42.890625 30.859375 
Q 38.875 34.625 31.78125 34.625 
z
M 21.921875 38.8125 
Q 15.578125 40.375 12.03125 44.71875 
Q 8.5 49.078125 8.5 55.328125 
Q 8.5 64.0625 14.71875 69.140625 
Q 20.953125 74.21875 31.78125 74.21875 
Q 42.671875 74.21875 48.875 69.140625 
Q 55.078125 64.0625 55.078125 55.328125 
Q 55.078125 49.078125 51.53125 44.71875 
Q 48 40.375 41.703125 38.8125 
Q 48.828125 37.15625 52.796875 32.3125 
Q 56.78125 27.484375 56.78125 20.515625 
Q 56.78125 9.90625 50.3125 4.234375 
Q 43.84375 -1.421875 31.78125 -1.421875 
Q 19.734375 -1.421875 13.25 4.234375 
Q 6.78125 9.90625 6.78125 20.515625 
Q 6.78125 27.484375 10.78125 32.3125 
Q 14.796875 37.15625 21.921875 38.8125 
z
M 18.3125 54.390625 
Q 18.3125 48.734375 21.84375 45.5625 
Q 25.390625 42.390625 31.78125 42.390625 
Q 38.140625 42.390625 41.71875 45.5625 
Q 45.3125 48.734375 45.3125 54.390625 
Q 45.3125 60.0625 41.71875 63.234375 
Q 38.140625 66.40625 31.78125 66.40625 
Q 25.390625 66.40625 21.84375 63.234375 
Q 18.3125 60.0625 18.3125 54.390625 
z
" id="DejaVuSans-56"/>
      </defs>
      <g transform="translate(56.880625 77.571564)scale(0.3 -0.3)">
       <use xlink:href="#DejaVuSans-56"/>
       <use x="63.623047" xlink:href="#DejaVuSans-48"/>
      </g>
     </g>
    </g>
    <g id="text_17">
     <!-- T-CELL LIVE -->
     <defs>
      <path d="M 23.390625 0 
L 23.390625 59.46875 
L 2.15625 59.46875 
L 2.15625 71.578125 
L 59.03125 71.578125 
L 59.03125 59.46875 
L 37.84375 59.46875 
L 37.84375 0 
z
" id="Arial-BoldMT-84"/>
      <path d="M 5.609375 19.09375 
L 5.609375 32.8125 
L 32.5625 32.8125 
L 32.5625 19.09375 
z
" id="Arial-BoldMT-45"/>
      <path d="M 53.078125 26.3125 
L 67.09375 21.875 
Q 63.875 10.15625 56.375 4.46875 
Q 48.875 -1.21875 37.359375 -1.21875 
Q 23.09375 -1.21875 13.90625 8.515625 
Q 4.734375 18.265625 4.734375 35.15625 
Q 4.734375 53.03125 13.953125 62.90625 
Q 23.1875 72.796875 38.234375 72.796875 
Q 51.375 72.796875 59.578125 65.046875 
Q 64.453125 60.453125 66.890625 51.859375 
L 52.59375 48.4375 
Q 51.3125 54 47.28125 57.21875 
Q 43.265625 60.453125 37.5 60.453125 
Q 29.546875 60.453125 24.578125 54.734375 
Q 19.625 49.03125 19.625 36.234375 
Q 19.625 22.65625 24.5 16.890625 
Q 29.390625 11.140625 37.203125 11.140625 
Q 42.96875 11.140625 47.109375 14.796875 
Q 51.265625 18.453125 53.078125 26.3125 
z
" id="Arial-BoldMT-67"/>
      <path d="M 7.28125 0 
L 7.28125 71.578125 
L 60.359375 71.578125 
L 60.359375 59.46875 
L 21.734375 59.46875 
L 21.734375 43.609375 
L 57.671875 43.609375 
L 57.671875 31.546875 
L 21.734375 31.546875 
L 21.734375 12.0625 
L 61.71875 12.0625 
L 61.71875 0 
z
" id="Arial-BoldMT-69"/>
      <path d="M 7.671875 0 
L 7.671875 71 
L 22.125 71 
L 22.125 12.0625 
L 58.0625 12.0625 
L 58.0625 0 
z
" id="Arial-BoldMT-76"/>
      <path id="Arial-BoldMT-32"/>
      <path d="M 25.53125 0 
L -0.046875 71.578125 
L 15.625 71.578125 
L 33.734375 18.609375 
L 51.265625 71.578125 
L 66.609375 71.578125 
L 40.96875 0 
z
" id="Arial-BoldMT-86"/>
     </defs>
     <g transform="translate(21.253125 303.441875)rotate(-90)scale(0.2 -0.2)">
      <use xlink:href="#Arial-BoldMT-84"/>
      <use x="61.005859" xlink:href="#Arial-BoldMT-45"/>
      <use x="94.306641" xlink:href="#Arial-BoldMT-67"/>
      <use x="166.523438" xlink:href="#Arial-BoldMT-69"/>
      <use x="233.222656" xlink:href="#Arial-BoldMT-76"/>
      <use x="294.306641" xlink:href="#Arial-BoldMT-76"/>
      <use x="355.375" xlink:href="#Arial-BoldMT-32"/>
      <use x="383.158203" xlink:href="#Arial-BoldMT-76"/>
      <use x="444.242188" xlink:href="#Arial-BoldMT-73"/>
      <use x="472.025391" xlink:href="#Arial-BoldMT-86"/>
      <use x="538.724609" xlink:href="#Arial-BoldMT-69"/>
     </g>
     <!-- CELL COUNTS (NUMBERS) -->
     <defs>
      <path d="M 4.34375 35.359375 
Q 4.34375 46.296875 7.625 53.71875 
Q 10.0625 59.1875 14.28125 63.53125 
Q 18.5 67.875 23.53125 69.96875 
Q 30.21875 72.796875 38.96875 72.796875 
Q 54.78125 72.796875 64.28125 62.984375 
Q 73.78125 53.171875 73.78125 35.6875 
Q 73.78125 18.359375 64.359375 8.5625 
Q 54.9375 -1.21875 39.15625 -1.21875 
Q 23.1875 -1.21875 13.765625 8.515625 
Q 4.34375 18.265625 4.34375 35.359375 
z
M 19.234375 35.84375 
Q 19.234375 23.6875 24.84375 17.40625 
Q 30.46875 11.140625 39.109375 11.140625 
Q 47.75 11.140625 53.296875 17.359375 
Q 58.84375 23.578125 58.84375 36.03125 
Q 58.84375 48.34375 53.4375 54.390625 
Q 48.046875 60.453125 39.109375 60.453125 
Q 30.171875 60.453125 24.703125 54.3125 
Q 19.234375 48.1875 19.234375 35.84375 
z
" id="Arial-BoldMT-79"/>
      <path d="M 7.421875 0 
L 7.421875 71.578125 
L 21.484375 71.578125 
L 50.78125 23.78125 
L 50.78125 71.578125 
L 64.203125 71.578125 
L 64.203125 0 
L 49.703125 0 
L 20.84375 46.6875 
L 20.84375 0 
z
" id="Arial-BoldMT-78"/>
      <path d="M 29.9375 -21.046875 
L 20.515625 -21.046875 
Q 13.03125 -9.765625 9.125 2.390625 
Q 5.21875 14.546875 5.21875 25.921875 
Q 5.21875 40.046875 10.0625 52.640625 
Q 14.265625 63.578125 20.703125 72.796875 
L 30.078125 72.796875 
Q 23.390625 58.015625 20.875 47.625 
Q 18.359375 37.25 18.359375 25.640625 
Q 18.359375 17.625 19.84375 9.21875 
Q 21.34375 0.828125 23.921875 -6.734375 
Q 25.640625 -11.71875 29.9375 -21.046875 
z
" id="Arial-BoldMT-40"/>
      <path d="M 7.078125 0 
L 7.078125 71.578125 
L 28.71875 71.578125 
L 41.703125 22.75 
L 54.546875 71.578125 
L 76.21875 71.578125 
L 76.21875 0 
L 62.796875 0 
L 62.796875 56.34375 
L 48.578125 0 
L 34.671875 0 
L 20.515625 56.34375 
L 20.515625 0 
z
" id="Arial-BoldMT-77"/>
      <path d="M 7.328125 71.578125 
L 35.9375 71.578125 
Q 44.4375 71.578125 48.609375 70.875 
Q 52.78125 70.171875 56.078125 67.921875 
Q 59.375 65.671875 61.5625 61.9375 
Q 63.765625 58.203125 63.765625 53.5625 
Q 63.765625 48.53125 61.046875 44.328125 
Q 58.34375 40.140625 53.71875 38.03125 
Q 60.25 36.140625 63.765625 31.546875 
Q 67.28125 26.953125 67.28125 20.75 
Q 67.28125 15.875 65.015625 11.25 
Q 62.75 6.640625 58.8125 3.875 
Q 54.890625 1.125 49.125 0.484375 
Q 45.515625 0.09375 31.6875 0 
L 7.328125 0 
z
M 21.78125 59.671875 
L 21.78125 43.109375 
L 31.25 43.109375 
Q 39.703125 43.109375 41.75 43.359375 
Q 45.453125 43.796875 47.578125 45.921875 
Q 49.703125 48.046875 49.703125 51.515625 
Q 49.703125 54.828125 47.875 56.90625 
Q 46.046875 58.984375 42.4375 59.421875 
Q 40.28125 59.671875 30.078125 59.671875 
z
M 21.78125 31.203125 
L 21.78125 12.0625 
L 35.15625 12.0625 
Q 42.96875 12.0625 45.0625 12.5 
Q 48.296875 13.09375 50.3125 15.359375 
Q 52.34375 17.625 52.34375 21.4375 
Q 52.34375 24.65625 50.78125 26.90625 
Q 49.21875 29.15625 46.265625 30.171875 
Q 43.3125 31.203125 33.453125 31.203125 
z
" id="Arial-BoldMT-66"/>
      <path d="M 3.375 -21.046875 
Q 7.421875 -12.359375 9.078125 -7.71875 
Q 10.75 -3.078125 12.15625 2.96875 
Q 13.578125 9.03125 14.25 14.46875 
Q 14.9375 19.921875 14.9375 25.640625 
Q 14.9375 37.25 12.453125 47.625 
Q 9.96875 58.015625 3.265625 72.796875 
L 12.59375 72.796875 
Q 19.96875 62.3125 24.046875 50.53125 
Q 28.125 38.765625 28.125 26.65625 
Q 28.125 16.453125 24.90625 4.78125 
Q 21.234375 -8.296875 12.84375 -21.046875 
z
" id="Arial-BoldMT-41"/>
     </defs>
     <g transform="translate(42.67125 374.002812)rotate(-90)scale(0.2 -0.2)">
      <use xlink:href="#Arial-BoldMT-67"/>
      <use x="72.216797" xlink:href="#Arial-BoldMT-69"/>
      <use x="138.916016" xlink:href="#Arial-BoldMT-76"/>
      <use x="200" xlink:href="#Arial-BoldMT-76"/>
      <use x="261.068359" xlink:href="#Arial-BoldMT-32"/>
      <use x="288.851562" xlink:href="#Arial-BoldMT-67"/>
      <use x="361.068359" xlink:href="#Arial-BoldMT-79"/>
      <use x="438.851562" xlink:href="#Arial-BoldMT-85"/>
      <use x="511.068359" xlink:href="#Arial-BoldMT-78"/>
      <use x="583.285156" xlink:href="#Arial-BoldMT-84"/>
      <use x="644.369141" xlink:href="#Arial-BoldMT-83"/>
      <use x="711.068359" xlink:href="#Arial-BoldMT-32"/>
      <use x="738.851562" xlink:href="#Arial-BoldMT-40"/>
      <use x="772.152344" xlink:href="#Arial-BoldMT-78"/>
      <use x="844.369141" xlink:href="#Arial-BoldMT-85"/>
      <use x="916.585938" xlink:href="#Arial-BoldMT-77"/>
      <use x="999.886719" xlink:href="#Arial-BoldMT-66"/>
      <use x="1072.103516" xlink:href="#Arial-BoldMT-69"/>
      <use x="1138.802734" xlink:href="#Arial-BoldMT-82"/>
      <use x="1211.019531" xlink:href="#Arial-BoldMT-83"/>
      <use x="1277.71875" xlink:href="#Arial-BoldMT-41"/>
     </g>
    </g>
   </g>
   <g id="line2d_16">
    <path clip-path="url(#p206c941ee3)" d="M 102.055625 433.16125 
L 113.891989 419.399225 
L 125.728352 419.399225 
L 137.564716 410.224541 
L 149.40108 405.637199 
L 161.237443 396.462516 
L 173.073807 364.351123 
L 184.91017 378.113149 
L 196.746534 318.477706 
L 208.582898 368.938465 
L 220.419261 336.827073 
L 232.255625 364.351123 
L 244.091989 346.001756 
L 255.928352 346.001756 
L 267.764716 323.065047 
L 279.60108 336.827073 
L 291.437443 272.604288 
L 303.273807 295.540997 
L 315.11017 268.016946 
L 326.946534 231.318212 
L 338.782898 235.905554 
L 350.619261 290.953655 
L 362.455625 208.381503 
L 374.291989 318.477706 
L 386.128352 222.143528 
L 397.964716 277.19163 
L 409.80108 203.794161 
L 421.637443 254.254921 
L 433.473807 212.968845 
L 445.31017 226.73087 
L 457.146534 208.381503 
L 468.982898 217.556187 
L 480.819261 180.857453 
L 492.655625 167.095427 
" style="fill:none;stroke:#08306b;stroke-linecap:square;stroke-width:1.5;"/>
   </g>
   <g id="line2d_17">
    <path clip-path="url(#p206c941ee3)" d="M 102.055625 433.16125 
L 113.891989 423.986566 
L 125.728352 423.986566 
L 137.564716 419.399225 
L 149.40108 401.049858 
L 161.237443 410.224541 
L 173.073807 382.700491 
L 184.91017 341.414415 
L 196.746534 368.938465 
L 208.582898 391.875174 
L 220.419261 378.113149 
L 232.255625 364.351123 
L 244.091989 249.667579 
L 255.928352 327.652389 
L 267.764716 300.128339 
L 279.60108 336.827073 
L 291.437443 281.778972 
L 303.273807 341.414415 
L 315.11017 304.71568 
L 326.946534 295.540997 
L 338.782898 263.429604 
L 350.619261 277.19163 
L 362.455625 254.254921 
L 374.291989 194.619478 
L 386.128352 309.303022 
L 397.964716 226.73087 
L 409.80108 139.571377 
L 421.637443 268.016946 
L 433.473807 254.254921 
L 445.31017 144.158718 
L 457.146534 167.095427 
L 468.982898 222.143528 
L 480.819261 162.508085 
L 492.655625 194.619478 
" style="fill:none;stroke:#08306b;stroke-linecap:square;stroke-width:1.5;"/>
   </g>
   <g id="line2d_18">
    <path clip-path="url(#p206c941ee3)" d="M 102.055625 433.16125 
L 113.891989 433.16125 
L 125.728352 405.637199 
L 137.564716 423.986566 
L 149.40108 410.224541 
L 161.237443 414.811883 
L 173.073807 410.224541 
L 184.91017 364.351123 
L 196.746534 364.351123 
L 208.582898 396.462516 
L 220.419261 346.001756 
L 232.255625 309.303022 
L 244.091989 295.540997 
L 255.928352 346.001756 
L 267.764716 382.700491 
L 279.60108 295.540997 
L 291.437443 277.19163 
L 303.273807 258.842263 
L 315.11017 235.905554 
L 326.946534 290.953655 
L 338.782898 313.890364 
L 350.619261 290.953655 
L 362.455625 226.73087 
L 374.291989 190.032136 
L 386.128352 286.366313 
L 397.964716 304.71568 
L 409.80108 212.968845 
L 421.637443 217.556187 
L 433.473807 199.20682 
L 445.31017 190.032136 
L 457.146534 144.158718 
L 468.982898 176.270111 
L 480.819261 162.508085 
L 492.655625 235.905554 
" style="fill:none;stroke:#08306b;stroke-linecap:square;stroke-width:1.5;"/>
   </g>
   <g id="line2d_19">
    <path clip-path="url(#p206c941ee3)" d="M 102.055625 433.16125 
L 113.891989 428.573908 
L 125.728352 414.811883 
L 137.564716 405.637199 
L 149.40108 405.637199 
L 161.237443 346.001756 
L 173.073807 396.462516 
L 184.91017 373.525807 
L 196.746534 359.763782 
L 208.582898 364.351123 
L 220.419261 391.875174 
L 232.255625 368.938465 
L 244.091989 277.19163 
L 255.928352 355.17644 
L 267.764716 323.065047 
L 279.60108 336.827073 
L 291.437443 309.303022 
L 303.273807 295.540997 
L 315.11017 290.953655 
L 326.946534 327.652389 
L 338.782898 309.303022 
L 350.619261 332.239731 
L 362.455625 272.604288 
L 374.291989 222.143528 
L 386.128352 286.366313 
L 397.964716 254.254921 
L 409.80108 263.429604 
L 421.637443 167.095427 
L 433.473807 199.20682 
L 445.31017 139.571377 
L 457.146534 167.095427 
L 468.982898 176.270111 
L 480.819261 171.682769 
L 492.655625 130.396693 
" style="fill:none;stroke:#08306b;stroke-linecap:square;stroke-width:1.5;"/>
   </g>
   <g id="line2d_20">
    <path clip-path="url(#p206c941ee3)" d="M 102.055625 433.16125 
L 113.891989 419.399225 
L 125.728352 396.462516 
L 137.564716 387.287832 
L 149.40108 419.399225 
L 161.237443 387.287832 
L 173.073807 391.875174 
L 184.91017 391.875174 
L 196.746534 382.700491 
L 208.582898 401.049858 
L 220.419261 364.351123 
L 232.255625 332.239731 
L 244.091989 318.477706 
L 255.928352 346.001756 
L 267.764716 346.001756 
L 279.60108 277.19163 
L 291.437443 304.71568 
L 303.273807 281.778972 
L 315.11017 300.128339 
L 326.946534 304.71568 
L 338.782898 286.366313 
L 350.619261 323.065047 
L 362.455625 304.71568 
L 374.291989 240.492896 
L 386.128352 180.857453 
L 397.964716 203.794161 
L 409.80108 212.968845 
L 421.637443 222.143528 
L 433.473807 153.333402 
L 445.31017 212.968845 
L 457.146534 185.444794 
L 468.982898 176.270111 
L 480.819261 185.444794 
L 492.655625 176.270111 
" style="fill:none;stroke:#08306b;stroke-linecap:square;stroke-width:1.5;"/>
   </g>
   <g id="line2d_21">
    <path clip-path="url(#p206c941ee3)" d="M 102.055625 433.16125 
L 113.891989 433.16125 
L 125.728352 405.637199 
L 137.564716 396.462516 
L 149.40108 428.573908 
L 161.237443 419.399225 
L 173.073807 396.462516 
L 184.91017 405.637199 
L 196.746534 387.287832 
L 208.582898 396.462516 
L 220.419261 359.763782 
L 232.255625 355.17644 
L 244.091989 378.113149 
L 255.928352 323.065047 
L 267.764716 355.17644 
L 279.60108 286.366313 
L 291.437443 290.953655 
L 303.273807 300.128339 
L 315.11017 281.778972 
L 326.946534 277.19163 
L 338.782898 217.556187 
L 350.619261 249.667579 
L 362.455625 231.318212 
L 374.291989 231.318212 
L 386.128352 171.682769 
L 397.964716 290.953655 
L 409.80108 180.857453 
L 421.637443 222.143528 
L 433.473807 231.318212 
L 445.31017 162.508085 
L 457.146534 300.128339 
L 468.982898 162.508085 
L 480.819261 144.158718 
L 492.655625 190.032136 
" style="fill:none;stroke:#08306b;stroke-linecap:square;stroke-width:1.5;"/>
   </g>
   <g id="line2d_22">
    <path clip-path="url(#p206c941ee3)" d="M 102.055625 433.16125 
L 113.891989 433.16125 
L 125.728352 433.16125 
L 137.564716 428.573908 
L 149.40108 410.224541 
L 161.237443 410.224541 
L 173.073807 368.938465 
L 184.91017 359.763782 
L 196.746534 350.589098 
L 208.582898 355.17644 
L 220.419261 309.303022 
L 232.255625 336.827073 
L 244.091989 309.303022 
L 255.928352 327.652389 
L 267.764716 295.540997 
L 279.60108 346.001756 
L 291.437443 290.953655 
L 303.273807 286.366313 
L 315.11017 309.303022 
L 326.946534 318.477706 
L 338.782898 313.890364 
L 350.619261 212.968845 
L 362.455625 217.556187 
L 374.291989 212.968845 
L 386.128352 272.604288 
L 397.964716 212.968845 
L 409.80108 194.619478 
L 421.637443 185.444794 
L 433.473807 217.556187 
L 445.31017 153.333402 
L 457.146534 235.905554 
L 468.982898 254.254921 
L 480.819261 167.095427 
L 492.655625 295.540997 
" style="fill:none;stroke:#08306b;stroke-linecap:square;stroke-width:1.5;"/>
   </g>
   <g id="line2d_23">
    <path clip-path="url(#p206c941ee3)" d="M 102.055625 433.16125 
L 113.891989 423.986566 
L 125.728352 410.224541 
L 137.564716 405.637199 
L 149.40108 391.875174 
L 161.237443 396.462516 
L 173.073807 359.763782 
L 184.91017 359.763782 
L 196.746534 364.351123 
L 208.582898 318.477706 
L 220.419261 359.763782 
L 232.255625 350.589098 
L 244.091989 378.113149 
L 255.928352 290.953655 
L 267.764716 313.890364 
L 279.60108 364.351123 
L 291.437443 323.065047 
L 303.273807 277.19163 
L 315.11017 268.016946 
L 326.946534 245.080237 
L 338.782898 258.842263 
L 350.619261 281.778972 
L 362.455625 258.842263 
L 374.291989 295.540997 
L 386.128352 176.270111 
L 397.964716 281.778972 
L 409.80108 167.095427 
L 421.637443 157.920744 
L 433.473807 245.080237 
L 445.31017 304.71568 
L 457.146534 176.270111 
L 468.982898 199.20682 
L 480.819261 199.20682 
L 492.655625 222.143528 
" style="fill:none;stroke:#08306b;stroke-linecap:square;stroke-width:1.5;"/>
   </g>
   <g id="line2d_24">
    <path clip-path="url(#p206c941ee3)" d="M 102.055625 433.16125 
L 113.891989 401.049858 
L 125.728352 419.399225 
L 137.564716 405.637199 
L 149.40108 396.462516 
L 161.237443 414.811883 
L 173.073807 419.399225 
L 184.91017 382.700491 
L 196.746534 378.113149 
L 208.582898 378.113149 
L 220.419261 277.19163 
L 232.255625 336.827073 
L 244.091989 304.71568 
L 255.928352 336.827073 
L 267.764716 318.477706 
L 279.60108 318.477706 
L 291.437443 286.366313 
L 303.273807 290.953655 
L 315.11017 245.080237 
L 326.946534 263.429604 
L 338.782898 290.953655 
L 350.619261 254.254921 
L 362.455625 323.065047 
L 374.291989 254.254921 
L 386.128352 245.080237 
L 397.964716 157.920744 
L 409.80108 286.366313 
L 421.637443 268.016946 
L 433.473807 176.270111 
L 445.31017 222.143528 
L 457.146534 277.19163 
L 468.982898 199.20682 
L 480.819261 226.73087 
L 492.655625 98.285301 
" style="fill:none;stroke:#08306b;stroke-linecap:square;stroke-width:1.5;"/>
   </g>
   <g id="line2d_25">
    <path clip-path="url(#p206c941ee3)" d="M 102.055625 433.16125 
L 113.891989 423.986566 
L 125.728352 414.811883 
L 137.564716 428.573908 
L 149.40108 396.462516 
L 161.237443 396.462516 
L 173.073807 410.224541 
L 184.91017 355.17644 
L 196.746534 355.17644 
L 208.582898 350.589098 
L 220.419261 355.17644 
L 232.255625 350.589098 
L 244.091989 346.001756 
L 255.928352 364.351123 
L 267.764716 309.303022 
L 279.60108 300.128339 
L 291.437443 387.287832 
L 303.273807 249.667579 
L 315.11017 300.128339 
L 326.946534 332.239731 
L 338.782898 313.890364 
L 350.619261 254.254921 
L 362.455625 240.492896 
L 374.291989 226.73087 
L 386.128352 203.794161 
L 397.964716 226.73087 
L 409.80108 258.842263 
L 421.637443 180.857453 
L 433.473807 208.381503 
L 445.31017 194.619478 
L 457.146534 190.032136 
L 468.982898 190.032136 
L 480.819261 102.872642 
L 492.655625 222.143528 
" style="fill:none;stroke:#08306b;stroke-linecap:square;stroke-width:1.5;"/>
   </g>
   <g id="line2d_26">
    <path clip-path="url(#p206c941ee3)" d="M 102.055625 433.16125 
L 113.891989 428.573908 
L 125.728352 419.399225 
L 137.564716 401.049858 
L 149.40108 410.224541 
L 161.237443 364.351123 
L 173.073807 382.700491 
L 184.91017 373.525807 
L 196.746534 309.303022 
L 208.582898 368.938465 
L 220.419261 346.001756 
L 232.255625 364.351123 
L 244.091989 355.17644 
L 255.928352 359.763782 
L 267.764716 332.239731 
L 279.60108 341.414415 
L 291.437443 286.366313 
L 303.273807 295.540997 
L 315.11017 217.556187 
L 326.946534 245.080237 
L 338.782898 272.604288 
L 350.619261 254.254921 
L 362.455625 203.794161 
L 374.291989 309.303022 
L 386.128352 272.604288 
L 397.964716 272.604288 
L 409.80108 212.968845 
L 421.637443 258.842263 
L 433.473807 226.73087 
L 445.31017 194.619478 
L 457.146534 212.968845 
L 468.982898 185.444794 
L 480.819261 171.682769 
L 492.655625 180.857453 
" style="fill:none;stroke:#4a98c9;stroke-linecap:square;stroke-width:1.5;"/>
   </g>
   <g id="line2d_27">
    <path clip-path="url(#p206c941ee3)" d="M 102.055625 433.16125 
L 113.891989 428.573908 
L 125.728352 423.986566 
L 137.564716 423.986566 
L 149.40108 396.462516 
L 161.237443 405.637199 
L 173.073807 346.001756 
L 184.91017 355.17644 
L 196.746534 391.875174 
L 208.582898 378.113149 
L 220.419261 387.287832 
L 232.255625 368.938465 
L 244.091989 286.366313 
L 255.928352 341.414415 
L 267.764716 286.366313 
L 279.60108 309.303022 
L 291.437443 272.604288 
L 303.273807 327.652389 
L 315.11017 304.71568 
L 326.946534 304.71568 
L 338.782898 240.492896 
L 350.619261 341.414415 
L 362.455625 222.143528 
L 374.291989 199.20682 
L 386.128352 309.303022 
L 397.964716 217.556187 
L 409.80108 157.920744 
L 421.637443 300.128339 
L 433.473807 212.968845 
L 445.31017 162.508085 
L 457.146534 148.74606 
L 468.982898 226.73087 
L 480.819261 148.74606 
L 492.655625 190.032136 
" style="fill:none;stroke:#4a98c9;stroke-linecap:square;stroke-width:1.5;"/>
   </g>
   <g id="line2d_28">
    <path clip-path="url(#p206c941ee3)" d="M 102.055625 433.16125 
L 113.891989 433.16125 
L 125.728352 410.224541 
L 137.564716 428.573908 
L 149.40108 410.224541 
L 161.237443 414.811883 
L 173.073807 405.637199 
L 184.91017 378.113149 
L 196.746534 346.001756 
L 208.582898 382.700491 
L 220.419261 336.827073 
L 232.255625 350.589098 
L 244.091989 309.303022 
L 255.928352 327.652389 
L 267.764716 341.414415 
L 279.60108 295.540997 
L 291.437443 295.540997 
L 303.273807 277.19163 
L 315.11017 263.429604 
L 326.946534 263.429604 
L 338.782898 309.303022 
L 350.619261 258.842263 
L 362.455625 235.905554 
L 374.291989 277.19163 
L 386.128352 212.968845 
L 397.964716 313.890364 
L 409.80108 167.095427 
L 421.637443 245.080237 
L 433.473807 268.016946 
L 445.31017 134.984035 
L 457.146534 148.74606 
L 468.982898 194.619478 
L 480.819261 208.381503 
L 492.655625 190.032136 
" style="fill:none;stroke:#4a98c9;stroke-linecap:square;stroke-width:1.5;"/>
   </g>
   <g id="line2d_29">
    <path clip-path="url(#p206c941ee3)" d="M 102.055625 433.16125 
L 113.891989 433.16125 
L 125.728352 419.399225 
L 137.564716 419.399225 
L 149.40108 382.700491 
L 161.237443 368.938465 
L 173.073807 382.700491 
L 184.91017 346.001756 
L 196.746534 373.525807 
L 208.582898 359.763782 
L 220.419261 410.224541 
L 232.255625 391.875174 
L 244.091989 268.016946 
L 255.928352 364.351123 
L 267.764716 313.890364 
L 279.60108 323.065047 
L 291.437443 281.778972 
L 303.273807 304.71568 
L 315.11017 327.652389 
L 326.946534 290.953655 
L 338.782898 300.128339 
L 350.619261 313.890364 
L 362.455625 240.492896 
L 374.291989 245.080237 
L 386.128352 272.604288 
L 397.964716 263.429604 
L 409.80108 235.905554 
L 421.637443 185.444794 
L 433.473807 203.794161 
L 445.31017 153.333402 
L 457.146534 203.794161 
L 468.982898 176.270111 
L 480.819261 148.74606 
L 492.655625 139.571377 
" style="fill:none;stroke:#4a98c9;stroke-linecap:square;stroke-width:1.5;"/>
   </g>
   <g id="line2d_30">
    <path clip-path="url(#p206c941ee3)" d="M 102.055625 433.16125 
L 113.891989 428.573908 
L 125.728352 373.525807 
L 137.564716 414.811883 
L 149.40108 423.986566 
L 161.237443 378.113149 
L 173.073807 378.113149 
L 184.91017 396.462516 
L 196.746534 401.049858 
L 208.582898 405.637199 
L 220.419261 350.589098 
L 232.255625 336.827073 
L 244.091989 350.589098 
L 255.928352 309.303022 
L 267.764716 364.351123 
L 279.60108 300.128339 
L 291.437443 249.667579 
L 303.273807 304.71568 
L 315.11017 249.667579 
L 326.946534 336.827073 
L 338.782898 300.128339 
L 350.619261 318.477706 
L 362.455625 277.19163 
L 374.291989 258.842263 
L 386.128352 199.20682 
L 397.964716 190.032136 
L 409.80108 194.619478 
L 421.637443 208.381503 
L 433.473807 203.794161 
L 445.31017 208.381503 
L 457.146534 208.381503 
L 468.982898 134.984035 
L 480.819261 190.032136 
L 492.655625 171.682769 
" style="fill:none;stroke:#4a98c9;stroke-linecap:square;stroke-width:1.5;"/>
   </g>
   <g id="line2d_31">
    <path clip-path="url(#p206c941ee3)" d="M 102.055625 433.16125 
L 113.891989 428.573908 
L 125.728352 396.462516 
L 137.564716 405.637199 
L 149.40108 433.16125 
L 161.237443 419.399225 
L 173.073807 405.637199 
L 184.91017 396.462516 
L 196.746534 396.462516 
L 208.582898 387.287832 
L 220.419261 346.001756 
L 232.255625 368.938465 
L 244.091989 368.938465 
L 255.928352 318.477706 
L 267.764716 368.938465 
L 279.60108 268.016946 
L 291.437443 327.652389 
L 303.273807 249.667579 
L 315.11017 300.128339 
L 326.946534 286.366313 
L 338.782898 222.143528 
L 350.619261 254.254921 
L 362.455625 258.842263 
L 374.291989 203.794161 
L 386.128352 167.095427 
L 397.964716 295.540997 
L 409.80108 153.333402 
L 421.637443 249.667579 
L 433.473807 231.318212 
L 445.31017 180.857453 
L 457.146534 226.73087 
L 468.982898 212.968845 
L 480.819261 112.047326 
L 492.655625 194.619478 
" style="fill:none;stroke:#4a98c9;stroke-linecap:square;stroke-width:1.5;"/>
   </g>
   <g id="line2d_32">
    <path clip-path="url(#p206c941ee3)" d="M 102.055625 433.16125 
L 113.891989 433.16125 
L 125.728352 433.16125 
L 137.564716 433.16125 
L 149.40108 410.224541 
L 161.237443 405.637199 
L 173.073807 378.113149 
L 184.91017 323.065047 
L 196.746534 368.938465 
L 208.582898 364.351123 
L 220.419261 309.303022 
L 232.255625 346.001756 
L 244.091989 313.890364 
L 255.928352 300.128339 
L 267.764716 313.890364 
L 279.60108 350.589098 
L 291.437443 346.001756 
L 303.273807 268.016946 
L 315.11017 277.19163 
L 326.946534 309.303022 
L 338.782898 327.652389 
L 350.619261 245.080237 
L 362.455625 180.857453 
L 374.291989 263.429604 
L 386.128352 217.556187 
L 397.964716 245.080237 
L 409.80108 208.381503 
L 421.637443 203.794161 
L 433.473807 208.381503 
L 445.31017 144.158718 
L 457.146534 295.540997 
L 468.982898 258.842263 
L 480.819261 162.508085 
L 492.655625 226.73087 
" style="fill:none;stroke:#4a98c9;stroke-linecap:square;stroke-width:1.5;"/>
   </g>
   <g id="line2d_33">
    <path clip-path="url(#p206c941ee3)" d="M 102.055625 433.16125 
L 113.891989 428.573908 
L 125.728352 401.049858 
L 137.564716 401.049858 
L 149.40108 391.875174 
L 161.237443 387.287832 
L 173.073807 378.113149 
L 184.91017 332.239731 
L 196.746534 396.462516 
L 208.582898 318.477706 
L 220.419261 346.001756 
L 232.255625 378.113149 
L 244.091989 387.287832 
L 255.928352 281.778972 
L 267.764716 318.477706 
L 279.60108 355.17644 
L 291.437443 277.19163 
L 303.273807 290.953655 
L 315.11017 309.303022 
L 326.946534 240.492896 
L 338.782898 249.667579 
L 350.619261 277.19163 
L 362.455625 258.842263 
L 374.291989 300.128339 
L 386.128352 203.794161 
L 397.964716 281.778972 
L 409.80108 185.444794 
L 421.637443 116.634668 
L 433.473807 290.953655 
L 445.31017 245.080237 
L 457.146534 222.143528 
L 468.982898 194.619478 
L 480.819261 190.032136 
L 492.655625 245.080237 
" style="fill:none;stroke:#4a98c9;stroke-linecap:square;stroke-width:1.5;"/>
   </g>
   <g id="line2d_34">
    <path clip-path="url(#p206c941ee3)" d="M 102.055625 433.16125 
L 113.891989 405.637199 
L 125.728352 419.399225 
L 137.564716 423.986566 
L 149.40108 387.287832 
L 161.237443 391.875174 
L 173.073807 423.986566 
L 184.91017 387.287832 
L 196.746534 382.700491 
L 208.582898 346.001756 
L 220.419261 286.366313 
L 232.255625 364.351123 
L 244.091989 290.953655 
L 255.928352 304.71568 
L 267.764716 341.414415 
L 279.60108 332.239731 
L 291.437443 277.19163 
L 303.273807 258.842263 
L 315.11017 272.604288 
L 326.946534 268.016946 
L 338.782898 254.254921 
L 350.619261 281.778972 
L 362.455625 272.604288 
L 374.291989 318.477706 
L 386.128352 217.556187 
L 397.964716 203.794161 
L 409.80108 208.381503 
L 421.637443 258.842263 
L 433.473807 235.905554 
L 445.31017 199.20682 
L 457.146534 313.890364 
L 468.982898 235.905554 
L 480.819261 167.095427 
L 492.655625 107.459984 
" style="fill:none;stroke:#4a98c9;stroke-linecap:square;stroke-width:1.5;"/>
   </g>
   <g id="line2d_35">
    <path clip-path="url(#p206c941ee3)" d="M 102.055625 433.16125 
L 113.891989 428.573908 
L 125.728352 410.224541 
L 137.564716 410.224541 
L 149.40108 423.986566 
L 161.237443 382.700491 
L 173.073807 401.049858 
L 184.91017 332.239731 
L 196.746534 368.938465 
L 208.582898 341.414415 
L 220.419261 387.287832 
L 232.255625 332.239731 
L 244.091989 350.589098 
L 255.928352 346.001756 
L 267.764716 313.890364 
L 279.60108 336.827073 
L 291.437443 346.001756 
L 303.273807 245.080237 
L 315.11017 286.366313 
L 326.946534 355.17644 
L 338.782898 268.016946 
L 350.619261 268.016946 
L 362.455625 199.20682 
L 374.291989 263.429604 
L 386.128352 226.73087 
L 397.964716 258.842263 
L 409.80108 226.73087 
L 421.637443 162.508085 
L 433.473807 222.143528 
L 445.31017 217.556187 
L 457.146534 171.682769 
L 468.982898 212.968845 
L 480.819261 144.158718 
L 492.655625 167.095427 
" style="fill:none;stroke:#4a98c9;stroke-linecap:square;stroke-width:1.5;"/>
   </g>
   <g id="line2d_36">
    <path clip-path="url(#p206c941ee3)" d="M 102.055625 433.16125 
L 113.891989 419.399225 
L 125.728352 428.573908 
L 137.564716 428.573908 
L 149.40108 382.700491 
L 161.237443 373.525807 
L 173.073807 382.700491 
L 184.91017 373.525807 
L 196.746534 336.827073 
L 208.582898 346.001756 
L 220.419261 359.763782 
L 232.255625 336.827073 
L 244.091989 359.763782 
L 255.928352 350.589098 
L 267.764716 327.652389 
L 279.60108 309.303022 
L 291.437443 336.827073 
L 303.273807 272.604288 
L 315.11017 268.016946 
L 326.946534 231.318212 
L 338.782898 245.080237 
L 350.619261 272.604288 
L 362.455625 226.73087 
L 374.291989 304.71568 
L 386.128352 263.429604 
L 397.964716 254.254921 
L 409.80108 208.381503 
L 421.637443 268.016946 
L 433.473807 180.857453 
L 445.31017 245.080237 
L 457.146534 199.20682 
L 468.982898 217.556187 
L 480.819261 134.984035 
L 492.655625 231.318212 
" style="fill:none;stroke:#d0e1f2;stroke-linecap:square;stroke-width:1.5;"/>
   </g>
   <g id="line2d_37">
    <path clip-path="url(#p206c941ee3)" d="M 102.055625 433.16125 
L 113.891989 428.573908 
L 125.728352 433.16125 
L 137.564716 405.637199 
L 149.40108 396.462516 
L 161.237443 401.049858 
L 173.073807 368.938465 
L 184.91017 368.938465 
L 196.746534 355.17644 
L 208.582898 405.637199 
L 220.419261 373.525807 
L 232.255625 387.287832 
L 244.091989 268.016946 
L 255.928352 290.953655 
L 267.764716 290.953655 
L 279.60108 323.065047 
L 291.437443 313.890364 
L 303.273807 318.477706 
L 315.11017 300.128339 
L 326.946534 263.429604 
L 338.782898 295.540997 
L 350.619261 327.652389 
L 362.455625 235.905554 
L 374.291989 212.968845 
L 386.128352 313.890364 
L 397.964716 212.968845 
L 409.80108 144.158718 
L 421.637443 258.842263 
L 433.473807 245.080237 
L 445.31017 167.095427 
L 457.146534 162.508085 
L 468.982898 185.444794 
L 480.819261 199.20682 
L 492.655625 180.857453 
" style="fill:none;stroke:#d0e1f2;stroke-linecap:square;stroke-width:1.5;"/>
   </g>
   <g id="line2d_38">
    <path clip-path="url(#p206c941ee3)" d="M 102.055625 433.16125 
L 113.891989 433.16125 
L 125.728352 410.224541 
L 137.564716 423.986566 
L 149.40108 405.637199 
L 161.237443 414.811883 
L 173.073807 405.637199 
L 184.91017 391.875174 
L 196.746534 336.827073 
L 208.582898 401.049858 
L 220.419261 350.589098 
L 232.255625 341.414415 
L 244.091989 272.604288 
L 255.928352 350.589098 
L 267.764716 359.763782 
L 279.60108 327.652389 
L 291.437443 286.366313 
L 303.273807 217.556187 
L 315.11017 281.778972 
L 326.946534 272.604288 
L 338.782898 313.890364 
L 350.619261 327.652389 
L 362.455625 194.619478 
L 374.291989 212.968845 
L 386.128352 286.366313 
L 397.964716 286.366313 
L 409.80108 208.381503 
L 421.637443 272.604288 
L 433.473807 226.73087 
L 445.31017 162.508085 
L 457.146534 148.74606 
L 468.982898 231.318212 
L 480.819261 139.571377 
L 492.655625 217.556187 
" style="fill:none;stroke:#d0e1f2;stroke-linecap:square;stroke-width:1.5;"/>
   </g>
   <g id="line2d_39">
    <path clip-path="url(#p206c941ee3)" d="M 102.055625 433.16125 
L 113.891989 433.16125 
L 125.728352 405.637199 
L 137.564716 414.811883 
L 149.40108 396.462516 
L 161.237443 359.763782 
L 173.073807 387.287832 
L 184.91017 373.525807 
L 196.746534 327.652389 
L 208.582898 387.287832 
L 220.419261 401.049858 
L 232.255625 364.351123 
L 244.091989 290.953655 
L 255.928352 364.351123 
L 267.764716 286.366313 
L 279.60108 341.414415 
L 291.437443 277.19163 
L 303.273807 300.128339 
L 315.11017 323.065047 
L 326.946534 318.477706 
L 338.782898 300.128339 
L 350.619261 323.065047 
L 362.455625 254.254921 
L 374.291989 268.016946 
L 386.128352 245.080237 
L 397.964716 300.128339 
L 409.80108 226.73087 
L 421.637443 231.318212 
L 433.473807 171.682769 
L 445.31017 121.222009 
L 457.146534 176.270111 
L 468.982898 176.270111 
L 480.819261 144.158718 
L 492.655625 153.333402 
" style="fill:none;stroke:#d0e1f2;stroke-linecap:square;stroke-width:1.5;"/>
   </g>
   <g id="line2d_40">
    <path clip-path="url(#p206c941ee3)" d="M 102.055625 433.16125 
L 113.891989 433.16125 
L 125.728352 373.525807 
L 137.564716 405.637199 
L 149.40108 419.399225 
L 161.237443 396.462516 
L 173.073807 373.525807 
L 184.91017 405.637199 
L 196.746534 373.525807 
L 208.582898 396.462516 
L 220.419261 350.589098 
L 232.255625 327.652389 
L 244.091989 346.001756 
L 255.928352 350.589098 
L 267.764716 346.001756 
L 279.60108 295.540997 
L 291.437443 304.71568 
L 303.273807 281.778972 
L 315.11017 263.429604 
L 326.946534 313.890364 
L 338.782898 277.19163 
L 350.619261 327.652389 
L 362.455625 300.128339 
L 374.291989 222.143528 
L 386.128352 203.794161 
L 397.964716 217.556187 
L 409.80108 190.032136 
L 421.637443 217.556187 
L 433.473807 185.444794 
L 445.31017 235.905554 
L 457.146534 217.556187 
L 468.982898 176.270111 
L 480.819261 176.270111 
L 492.655625 139.571377 
" style="fill:none;stroke:#d0e1f2;stroke-linecap:square;stroke-width:1.5;"/>
   </g>
   <g id="line2d_41">
    <path clip-path="url(#p206c941ee3)" d="M 102.055625 433.16125 
L 113.891989 433.16125 
L 125.728352 387.287832 
L 137.564716 410.224541 
L 149.40108 428.573908 
L 161.237443 414.811883 
L 173.073807 405.637199 
L 184.91017 401.049858 
L 196.746534 401.049858 
L 208.582898 382.700491 
L 220.419261 391.875174 
L 232.255625 355.17644 
L 244.091989 336.827073 
L 255.928352 336.827073 
L 267.764716 359.763782 
L 279.60108 290.953655 
L 291.437443 300.128339 
L 303.273807 254.254921 
L 315.11017 332.239731 
L 326.946534 272.604288 
L 338.782898 203.794161 
L 350.619261 254.254921 
L 362.455625 222.143528 
L 374.291989 254.254921 
L 386.128352 162.508085 
L 397.964716 263.429604 
L 409.80108 180.857453 
L 421.637443 240.492896 
L 433.473807 212.968845 
L 445.31017 217.556187 
L 457.146534 217.556187 
L 468.982898 217.556187 
L 480.819261 139.571377 
L 492.655625 194.619478 
" style="fill:none;stroke:#d0e1f2;stroke-linecap:square;stroke-width:1.5;"/>
   </g>
   <g id="line2d_42">
    <path clip-path="url(#p206c941ee3)" d="M 102.055625 433.16125 
L 113.891989 433.16125 
L 125.728352 433.16125 
L 137.564716 433.16125 
L 149.40108 405.637199 
L 161.237443 410.224541 
L 173.073807 373.525807 
L 184.91017 336.827073 
L 196.746534 364.351123 
L 208.582898 359.763782 
L 220.419261 313.890364 
L 232.255625 355.17644 
L 244.091989 318.477706 
L 255.928352 300.128339 
L 267.764716 318.477706 
L 279.60108 346.001756 
L 291.437443 318.477706 
L 303.273807 263.429604 
L 315.11017 295.540997 
L 326.946534 286.366313 
L 338.782898 323.065047 
L 350.619261 199.20682 
L 362.455625 231.318212 
L 374.291989 231.318212 
L 386.128352 254.254921 
L 397.964716 212.968845 
L 409.80108 222.143528 
L 421.637443 194.619478 
L 433.473807 208.381503 
L 445.31017 162.508085 
L 457.146534 300.128339 
L 468.982898 222.143528 
L 480.819261 212.968845 
L 492.655625 245.080237 
" style="fill:none;stroke:#d0e1f2;stroke-linecap:square;stroke-width:1.5;"/>
   </g>
   <g id="line2d_43">
    <path clip-path="url(#p206c941ee3)" d="M 102.055625 433.16125 
L 113.891989 423.986566 
L 125.728352 410.224541 
L 137.564716 401.049858 
L 149.40108 396.462516 
L 161.237443 405.637199 
L 173.073807 368.938465 
L 184.91017 336.827073 
L 196.746534 368.938465 
L 208.582898 323.065047 
L 220.419261 378.113149 
L 232.255625 327.652389 
L 244.091989 373.525807 
L 255.928352 295.540997 
L 267.764716 313.890364 
L 279.60108 355.17644 
L 291.437443 290.953655 
L 303.273807 290.953655 
L 315.11017 281.778972 
L 326.946534 268.016946 
L 338.782898 231.318212 
L 350.619261 300.128339 
L 362.455625 245.080237 
L 374.291989 272.604288 
L 386.128352 208.381503 
L 397.964716 304.71568 
L 409.80108 167.095427 
L 421.637443 171.682769 
L 433.473807 277.19163 
L 445.31017 235.905554 
L 457.146534 212.968845 
L 468.982898 194.619478 
L 480.819261 171.682769 
L 492.655625 245.080237 
" style="fill:none;stroke:#d0e1f2;stroke-linecap:square;stroke-width:1.5;"/>
   </g>
   <g id="line2d_44">
    <path clip-path="url(#p206c941ee3)" d="M 102.055625 433.16125 
L 113.891989 396.462516 
L 125.728352 423.986566 
L 137.564716 414.811883 
L 149.40108 405.637199 
L 161.237443 410.224541 
L 173.073807 396.462516 
L 184.91017 387.287832 
L 196.746534 373.525807 
L 208.582898 368.938465 
L 220.419261 277.19163 
L 232.255625 350.589098 
L 244.091989 300.128339 
L 255.928352 327.652389 
L 267.764716 336.827073 
L 279.60108 323.065047 
L 291.437443 281.778972 
L 303.273807 268.016946 
L 315.11017 268.016946 
L 326.946534 290.953655 
L 338.782898 231.318212 
L 350.619261 290.953655 
L 362.455625 277.19163 
L 374.291989 313.890364 
L 386.128352 226.73087 
L 397.964716 212.968845 
L 409.80108 245.080237 
L 421.637443 254.254921 
L 433.473807 217.556187 
L 445.31017 199.20682 
L 457.146534 281.778972 
L 468.982898 190.032136 
L 480.819261 217.556187 
L 492.655625 130.396693 
" style="fill:none;stroke:#d0e1f2;stroke-linecap:square;stroke-width:1.5;"/>
   </g>
   <g id="line2d_45">
    <path clip-path="url(#p206c941ee3)" d="M 102.055625 433.16125 
L 113.891989 423.986566 
L 125.728352 414.811883 
L 137.564716 414.811883 
L 149.40108 414.811883 
L 161.237443 391.875174 
L 173.073807 391.875174 
L 184.91017 350.589098 
L 196.746534 359.763782 
L 208.582898 336.827073 
L 220.419261 355.17644 
L 232.255625 382.700491 
L 244.091989 346.001756 
L 255.928352 346.001756 
L 267.764716 346.001756 
L 279.60108 281.778972 
L 291.437443 355.17644 
L 303.273807 290.953655 
L 315.11017 281.778972 
L 326.946534 309.303022 
L 338.782898 290.953655 
L 350.619261 304.71568 
L 362.455625 226.73087 
L 374.291989 235.905554 
L 386.128352 180.857453 
L 397.964716 281.778972 
L 409.80108 231.318212 
L 421.637443 162.508085 
L 433.473807 245.080237 
L 445.31017 226.73087 
L 457.146534 130.396693 
L 468.982898 245.080237 
L 480.819261 116.634668 
L 492.655625 162.508085 
" style="fill:none;stroke:#d0e1f2;stroke-linecap:square;stroke-width:1.5;"/>
   </g>
   <g id="line2d_46">
    <path clip-path="url(#p206c941ee3)" d="M 102.055625 433.16125 
L 113.891989 419.399225 
L 125.728352 419.399225 
L 137.564716 419.399225 
L 149.40108 396.462516 
L 161.237443 378.113149 
L 173.073807 373.525807 
L 184.91017 378.113149 
L 196.746534 350.589098 
L 208.582898 350.589098 
L 220.419261 341.414415 
L 232.255625 346.001756 
L 244.091989 341.414415 
L 255.928352 364.351123 
L 267.764716 327.652389 
L 279.60108 295.540997 
L 291.437443 300.128339 
L 303.273807 300.128339 
L 315.11017 231.318212 
L 326.946534 254.254921 
L 338.782898 231.318212 
L 350.619261 281.778972 
L 362.455625 222.143528 
L 374.291989 318.477706 
L 386.128352 286.366313 
L 397.964716 245.080237 
L 409.80108 171.682769 
L 421.637443 249.667579 
L 433.473807 226.73087 
L 445.31017 226.73087 
L 457.146534 208.381503 
L 468.982898 212.968845 
L 480.819261 157.920744 
L 492.655625 185.444794 
" style="fill:none;stroke:#1764ab;stroke-linecap:square;stroke-width:1.5;"/>
   </g>
   <g id="line2d_47">
    <path clip-path="url(#p206c941ee3)" d="M 102.055625 433.16125 
L 113.891989 423.986566 
L 125.728352 423.986566 
L 137.564716 428.573908 
L 149.40108 396.462516 
L 161.237443 391.875174 
L 173.073807 382.700491 
L 184.91017 350.589098 
L 196.746534 391.875174 
L 208.582898 373.525807 
L 220.419261 382.700491 
L 232.255625 346.001756 
L 244.091989 281.778972 
L 255.928352 309.303022 
L 267.764716 281.778972 
L 279.60108 332.239731 
L 291.437443 304.71568 
L 303.273807 309.303022 
L 315.11017 332.239731 
L 326.946534 268.016946 
L 338.782898 295.540997 
L 350.619261 304.71568 
L 362.455625 268.016946 
L 374.291989 185.444794 
L 386.128352 281.778972 
L 397.964716 240.492896 
L 409.80108 112.047326 
L 421.637443 323.065047 
L 433.473807 226.73087 
L 445.31017 167.095427 
L 457.146534 167.095427 
L 468.982898 231.318212 
L 480.819261 130.396693 
L 492.655625 208.381503 
" style="fill:none;stroke:#1764ab;stroke-linecap:square;stroke-width:1.5;"/>
   </g>
   <g id="line2d_48">
    <path clip-path="url(#p206c941ee3)" d="M 102.055625 433.16125 
L 113.891989 433.16125 
L 125.728352 405.637199 
L 137.564716 433.16125 
L 149.40108 410.224541 
L 161.237443 391.875174 
L 173.073807 414.811883 
L 184.91017 391.875174 
L 196.746534 346.001756 
L 208.582898 382.700491 
L 220.419261 368.938465 
L 232.255625 327.652389 
L 244.091989 286.366313 
L 255.928352 323.065047 
L 267.764716 359.763782 
L 279.60108 313.890364 
L 291.437443 290.953655 
L 303.273807 254.254921 
L 315.11017 268.016946 
L 326.946534 281.778972 
L 338.782898 313.890364 
L 350.619261 286.366313 
L 362.455625 240.492896 
L 374.291989 180.857453 
L 386.128352 254.254921 
L 397.964716 300.128339 
L 409.80108 235.905554 
L 421.637443 245.080237 
L 433.473807 203.794161 
L 445.31017 148.74606 
L 457.146534 144.158718 
L 468.982898 212.968845 
L 480.819261 180.857453 
L 492.655625 199.20682 
" style="fill:none;stroke:#1764ab;stroke-linecap:square;stroke-width:1.5;"/>
   </g>
   <g id="line2d_49">
    <path clip-path="url(#p206c941ee3)" d="M 102.055625 433.16125 
L 113.891989 433.16125 
L 125.728352 414.811883 
L 137.564716 410.224541 
L 149.40108 387.287832 
L 161.237443 382.700491 
L 173.073807 364.351123 
L 184.91017 368.938465 
L 196.746534 364.351123 
L 208.582898 364.351123 
L 220.419261 396.462516 
L 232.255625 378.113149 
L 244.091989 286.366313 
L 255.928352 359.763782 
L 267.764716 295.540997 
L 279.60108 332.239731 
L 291.437443 309.303022 
L 303.273807 304.71568 
L 315.11017 295.540997 
L 326.946534 277.19163 
L 338.782898 295.540997 
L 350.619261 300.128339 
L 362.455625 290.953655 
L 374.291989 235.905554 
L 386.128352 286.366313 
L 397.964716 281.778972 
L 409.80108 217.556187 
L 421.637443 208.381503 
L 433.473807 194.619478 
L 445.31017 130.396693 
L 457.146534 180.857453 
L 468.982898 162.508085 
L 480.819261 176.270111 
L 492.655625 139.571377 
" style="fill:none;stroke:#1764ab;stroke-linecap:square;stroke-width:1.5;"/>
   </g>
   <g id="line2d_50">
    <path clip-path="url(#p206c941ee3)" d="M 102.055625 433.16125 
L 113.891989 423.986566 
L 125.728352 391.875174 
L 137.564716 391.875174 
L 149.40108 433.16125 
L 161.237443 387.287832 
L 173.073807 355.17644 
L 184.91017 396.462516 
L 196.746534 396.462516 
L 208.582898 396.462516 
L 220.419261 336.827073 
L 232.255625 341.414415 
L 244.091989 346.001756 
L 255.928352 346.001756 
L 267.764716 336.827073 
L 279.60108 323.065047 
L 291.437443 249.667579 
L 303.273807 249.667579 
L 315.11017 304.71568 
L 326.946534 304.71568 
L 338.782898 309.303022 
L 350.619261 336.827073 
L 362.455625 272.604288 
L 374.291989 208.381503 
L 386.128352 199.20682 
L 397.964716 180.857453 
L 409.80108 199.20682 
L 421.637443 231.318212 
L 433.473807 203.794161 
L 445.31017 212.968845 
L 457.146534 199.20682 
L 468.982898 194.619478 
L 480.819261 153.333402 
L 492.655625 171.682769 
" style="fill:none;stroke:#1764ab;stroke-linecap:square;stroke-width:1.5;"/>
   </g>
   <g id="line2d_51">
    <path clip-path="url(#p206c941ee3)" d="M 102.055625 433.16125 
L 113.891989 433.16125 
L 125.728352 396.462516 
L 137.564716 401.049858 
L 149.40108 433.16125 
L 161.237443 410.224541 
L 173.073807 405.637199 
L 184.91017 410.224541 
L 196.746534 382.700491 
L 208.582898 401.049858 
L 220.419261 359.763782 
L 232.255625 359.763782 
L 244.091989 368.938465 
L 255.928352 355.17644 
L 267.764716 304.71568 
L 279.60108 300.128339 
L 291.437443 277.19163 
L 303.273807 313.890364 
L 315.11017 277.19163 
L 326.946534 254.254921 
L 338.782898 249.667579 
L 350.619261 277.19163 
L 362.455625 162.508085 
L 374.291989 231.318212 
L 386.128352 144.158718 
L 397.964716 327.652389 
L 409.80108 171.682769 
L 421.637443 245.080237 
L 433.473807 263.429604 
L 445.31017 176.270111 
L 457.146534 226.73087 
L 468.982898 185.444794 
L 480.819261 121.222009 
L 492.655625 226.73087 
" style="fill:none;stroke:#1764ab;stroke-linecap:square;stroke-width:1.5;"/>
   </g>
   <g id="line2d_52">
    <path clip-path="url(#p206c941ee3)" d="M 102.055625 433.16125 
L 113.891989 433.16125 
L 125.728352 433.16125 
L 137.564716 433.16125 
L 149.40108 405.637199 
L 161.237443 414.811883 
L 173.073807 364.351123 
L 184.91017 336.827073 
L 196.746534 382.700491 
L 208.582898 327.652389 
L 220.419261 336.827073 
L 232.255625 323.065047 
L 244.091989 323.065047 
L 255.928352 323.065047 
L 267.764716 313.890364 
L 279.60108 327.652389 
L 291.437443 318.477706 
L 303.273807 286.366313 
L 315.11017 277.19163 
L 326.946534 300.128339 
L 338.782898 327.652389 
L 350.619261 240.492896 
L 362.455625 208.381503 
L 374.291989 212.968845 
L 386.128352 235.905554 
L 397.964716 240.492896 
L 409.80108 240.492896 
L 421.637443 185.444794 
L 433.473807 203.794161 
L 445.31017 162.508085 
L 457.146534 258.842263 
L 468.982898 240.492896 
L 480.819261 185.444794 
L 492.655625 235.905554 
" style="fill:none;stroke:#1764ab;stroke-linecap:square;stroke-width:1.5;"/>
   </g>
   <g id="line2d_53">
    <path clip-path="url(#p206c941ee3)" d="M 102.055625 433.16125 
L 113.891989 428.573908 
L 125.728352 410.224541 
L 137.564716 410.224541 
L 149.40108 378.113149 
L 161.237443 405.637199 
L 173.073807 364.351123 
L 184.91017 364.351123 
L 196.746534 382.700491 
L 208.582898 309.303022 
L 220.419261 382.700491 
L 232.255625 332.239731 
L 244.091989 378.113149 
L 255.928352 277.19163 
L 267.764716 327.652389 
L 279.60108 359.763782 
L 291.437443 318.477706 
L 303.273807 277.19163 
L 315.11017 254.254921 
L 326.946534 245.080237 
L 338.782898 258.842263 
L 350.619261 300.128339 
L 362.455625 254.254921 
L 374.291989 258.842263 
L 386.128352 203.794161 
L 397.964716 245.080237 
L 409.80108 171.682769 
L 421.637443 194.619478 
L 433.473807 268.016946 
L 445.31017 231.318212 
L 457.146534 185.444794 
L 468.982898 231.318212 
L 480.819261 171.682769 
L 492.655625 268.016946 
" style="fill:none;stroke:#1764ab;stroke-linecap:square;stroke-width:1.5;"/>
   </g>
   <g id="line2d_54">
    <path clip-path="url(#p206c941ee3)" d="M 102.055625 433.16125 
L 113.891989 401.049858 
L 125.728352 423.986566 
L 137.564716 414.811883 
L 149.40108 391.875174 
L 161.237443 396.462516 
L 173.073807 414.811883 
L 184.91017 391.875174 
L 196.746534 387.287832 
L 208.582898 350.589098 
L 220.419261 286.366313 
L 232.255625 359.763782 
L 244.091989 258.842263 
L 255.928352 327.652389 
L 267.764716 332.239731 
L 279.60108 327.652389 
L 291.437443 277.19163 
L 303.273807 258.842263 
L 315.11017 277.19163 
L 326.946534 295.540997 
L 338.782898 240.492896 
L 350.619261 277.19163 
L 362.455625 290.953655 
L 374.291989 277.19163 
L 386.128352 263.429604 
L 397.964716 162.508085 
L 409.80108 268.016946 
L 421.637443 240.492896 
L 433.473807 222.143528 
L 445.31017 231.318212 
L 457.146534 295.540997 
L 468.982898 190.032136 
L 480.819261 194.619478 
L 492.655625 98.285301 
" style="fill:none;stroke:#1764ab;stroke-linecap:square;stroke-width:1.5;"/>
   </g>
   <g id="line2d_55">
    <path clip-path="url(#p206c941ee3)" d="M 102.055625 433.16125 
L 113.891989 428.573908 
L 125.728352 414.811883 
L 137.564716 419.399225 
L 149.40108 410.224541 
L 161.237443 387.287832 
L 173.073807 387.287832 
L 184.91017 350.589098 
L 196.746534 346.001756 
L 208.582898 346.001756 
L 220.419261 382.700491 
L 232.255625 364.351123 
L 244.091989 350.589098 
L 255.928352 332.239731 
L 267.764716 300.128339 
L 279.60108 327.652389 
L 291.437443 350.589098 
L 303.273807 313.890364 
L 315.11017 300.128339 
L 326.946534 332.239731 
L 338.782898 258.842263 
L 350.619261 281.778972 
L 362.455625 226.73087 
L 374.291989 235.905554 
L 386.128352 212.968845 
L 397.964716 263.429604 
L 409.80108 203.794161 
L 421.637443 162.508085 
L 433.473807 240.492896 
L 445.31017 226.73087 
L 457.146534 171.682769 
L 468.982898 277.19163 
L 480.819261 70.76125 
L 492.655625 185.444794 
" style="fill:none;stroke:#1764ab;stroke-linecap:square;stroke-width:1.5;"/>
   </g>
   <g id="line2d_56">
    <path clip-path="url(#p206c941ee3)" d="M 102.055625 433.16125 
L 113.891989 419.399225 
L 125.728352 414.811883 
L 137.564716 419.399225 
L 149.40108 387.287832 
L 161.237443 378.113149 
L 173.073807 368.938465 
L 184.91017 387.287832 
L 196.746534 373.525807 
L 208.582898 336.827073 
L 220.419261 318.477706 
L 232.255625 373.525807 
L 244.091989 327.652389 
L 255.928352 359.763782 
L 267.764716 346.001756 
L 279.60108 327.652389 
L 291.437443 277.19163 
L 303.273807 313.890364 
L 315.11017 263.429604 
L 326.946534 222.143528 
L 338.782898 245.080237 
L 350.619261 277.19163 
L 362.455625 203.794161 
L 374.291989 332.239731 
L 386.128352 254.254921 
L 397.964716 240.492896 
L 409.80108 226.73087 
L 421.637443 272.604288 
L 433.473807 185.444794 
L 445.31017 240.492896 
L 457.146534 208.381503 
L 468.982898 190.032136 
L 480.819261 167.095427 
L 492.655625 180.857453 
" style="fill:none;stroke:#94c4df;stroke-linecap:square;stroke-width:1.5;"/>
   </g>
   <g id="line2d_57">
    <path clip-path="url(#p206c941ee3)" d="M 102.055625 433.16125 
L 113.891989 423.986566 
L 125.728352 428.573908 
L 137.564716 410.224541 
L 149.40108 391.875174 
L 161.237443 396.462516 
L 173.073807 401.049858 
L 184.91017 350.589098 
L 196.746534 391.875174 
L 208.582898 359.763782 
L 220.419261 359.763782 
L 232.255625 378.113149 
L 244.091989 277.19163 
L 255.928352 323.065047 
L 267.764716 300.128339 
L 279.60108 304.71568 
L 291.437443 318.477706 
L 303.273807 332.239731 
L 315.11017 304.71568 
L 326.946534 277.19163 
L 338.782898 281.778972 
L 350.619261 309.303022 
L 362.455625 268.016946 
L 374.291989 208.381503 
L 386.128352 313.890364 
L 397.964716 217.556187 
L 409.80108 130.396693 
L 421.637443 277.19163 
L 433.473807 268.016946 
L 445.31017 185.444794 
L 457.146534 139.571377 
L 468.982898 190.032136 
L 480.819261 185.444794 
L 492.655625 194.619478 
" style="fill:none;stroke:#94c4df;stroke-linecap:square;stroke-width:1.5;"/>
   </g>
   <g id="line2d_58">
    <path clip-path="url(#p206c941ee3)" d="M 102.055625 433.16125 
L 113.891989 433.16125 
L 125.728352 405.637199 
L 137.564716 428.573908 
L 149.40108 410.224541 
L 161.237443 414.811883 
L 173.073807 414.811883 
L 184.91017 382.700491 
L 196.746534 341.414415 
L 208.582898 364.351123 
L 220.419261 373.525807 
L 232.255625 336.827073 
L 244.091989 300.128339 
L 255.928352 336.827073 
L 267.764716 346.001756 
L 279.60108 290.953655 
L 291.437443 272.604288 
L 303.273807 258.842263 
L 315.11017 272.604288 
L 326.946534 268.016946 
L 338.782898 323.065047 
L 350.619261 249.667579 
L 362.455625 268.016946 
L 374.291989 235.905554 
L 386.128352 245.080237 
L 397.964716 323.065047 
L 409.80108 212.968845 
L 421.637443 217.556187 
L 433.473807 249.667579 
L 445.31017 116.634668 
L 457.146534 153.333402 
L 468.982898 222.143528 
L 480.819261 125.809351 
L 492.655625 240.492896 
" style="fill:none;stroke:#94c4df;stroke-linecap:square;stroke-width:1.5;"/>
   </g>
   <g id="line2d_59">
    <path clip-path="url(#p206c941ee3)" d="M 102.055625 433.16125 
L 113.891989 433.16125 
L 125.728352 414.811883 
L 137.564716 419.399225 
L 149.40108 373.525807 
L 161.237443 382.700491 
L 173.073807 359.763782 
L 184.91017 355.17644 
L 196.746534 378.113149 
L 208.582898 382.700491 
L 220.419261 391.875174 
L 232.255625 359.763782 
L 244.091989 300.128339 
L 255.928352 318.477706 
L 267.764716 336.827073 
L 279.60108 355.17644 
L 291.437443 272.604288 
L 303.273807 295.540997 
L 315.11017 304.71568 
L 326.946534 318.477706 
L 338.782898 286.366313 
L 350.619261 309.303022 
L 362.455625 300.128339 
L 374.291989 222.143528 
L 386.128352 258.842263 
L 397.964716 300.128339 
L 409.80108 194.619478 
L 421.637443 222.143528 
L 433.473807 185.444794 
L 445.31017 153.333402 
L 457.146534 139.571377 
L 468.982898 212.968845 
L 480.819261 180.857453 
L 492.655625 116.634668 
" style="fill:none;stroke:#94c4df;stroke-linecap:square;stroke-width:1.5;"/>
   </g>
   <g id="line2d_60">
    <path clip-path="url(#p206c941ee3)" d="M 102.055625 433.16125 
L 113.891989 428.573908 
L 125.728352 359.763782 
L 137.564716 414.811883 
L 149.40108 419.399225 
L 161.237443 410.224541 
L 173.073807 368.938465 
L 184.91017 373.525807 
L 196.746534 396.462516 
L 208.582898 401.049858 
L 220.419261 341.414415 
L 232.255625 304.71568 
L 244.091989 368.938465 
L 255.928352 336.827073 
L 267.764716 359.763782 
L 279.60108 323.065047 
L 291.437443 254.254921 
L 303.273807 272.604288 
L 315.11017 286.366313 
L 326.946534 332.239731 
L 338.782898 272.604288 
L 350.619261 336.827073 
L 362.455625 286.366313 
L 374.291989 235.905554 
L 386.128352 222.143528 
L 397.964716 185.444794 
L 409.80108 171.682769 
L 421.637443 249.667579 
L 433.473807 157.920744 
L 445.31017 190.032136 
L 457.146534 240.492896 
L 468.982898 176.270111 
L 480.819261 162.508085 
L 492.655625 199.20682 
" style="fill:none;stroke:#94c4df;stroke-linecap:square;stroke-width:1.5;"/>
   </g>
   <g id="line2d_61">
    <path clip-path="url(#p206c941ee3)" d="M 102.055625 433.16125 
L 113.891989 433.16125 
L 125.728352 396.462516 
L 137.564716 405.637199 
L 149.40108 423.986566 
L 161.237443 428.573908 
L 173.073807 414.811883 
L 184.91017 414.811883 
L 196.746534 382.700491 
L 208.582898 373.525807 
L 220.419261 350.589098 
L 232.255625 382.700491 
L 244.091989 341.414415 
L 255.928352 350.589098 
L 267.764716 373.525807 
L 279.60108 286.366313 
L 291.437443 318.477706 
L 303.273807 258.842263 
L 315.11017 249.667579 
L 326.946534 318.477706 
L 338.782898 249.667579 
L 350.619261 245.080237 
L 362.455625 194.619478 
L 374.291989 240.492896 
L 386.128352 171.682769 
L 397.964716 290.953655 
L 409.80108 171.682769 
L 421.637443 226.73087 
L 433.473807 226.73087 
L 445.31017 194.619478 
L 457.146534 235.905554 
L 468.982898 190.032136 
L 480.819261 148.74606 
L 492.655625 162.508085 
" style="fill:none;stroke:#94c4df;stroke-linecap:square;stroke-width:1.5;"/>
   </g>
   <g id="line2d_62">
    <path clip-path="url(#p206c941ee3)" d="M 102.055625 433.16125 
L 113.891989 433.16125 
L 125.728352 433.16125 
L 137.564716 423.986566 
L 149.40108 414.811883 
L 161.237443 414.811883 
L 173.073807 355.17644 
L 184.91017 332.239731 
L 196.746534 378.113149 
L 208.582898 346.001756 
L 220.419261 313.890364 
L 232.255625 350.589098 
L 244.091989 309.303022 
L 255.928352 327.652389 
L 267.764716 286.366313 
L 279.60108 373.525807 
L 291.437443 309.303022 
L 303.273807 295.540997 
L 315.11017 286.366313 
L 326.946534 290.953655 
L 338.782898 346.001756 
L 350.619261 203.794161 
L 362.455625 203.794161 
L 374.291989 240.492896 
L 386.128352 222.143528 
L 397.964716 240.492896 
L 409.80108 199.20682 
L 421.637443 162.508085 
L 433.473807 263.429604 
L 445.31017 144.158718 
L 457.146534 300.128339 
L 468.982898 212.968845 
L 480.819261 212.968845 
L 492.655625 231.318212 
" style="fill:none;stroke:#94c4df;stroke-linecap:square;stroke-width:1.5;"/>
   </g>
   <g id="line2d_63">
    <path clip-path="url(#p206c941ee3)" d="M 102.055625 433.16125 
L 113.891989 433.16125 
L 125.728352 410.224541 
L 137.564716 387.287832 
L 149.40108 391.875174 
L 161.237443 414.811883 
L 173.073807 387.287832 
L 184.91017 318.477706 
L 196.746534 391.875174 
L 208.582898 332.239731 
L 220.419261 355.17644 
L 232.255625 355.17644 
L 244.091989 373.525807 
L 255.928352 295.540997 
L 267.764716 304.71568 
L 279.60108 359.763782 
L 291.437443 309.303022 
L 303.273807 281.778972 
L 315.11017 277.19163 
L 326.946534 231.318212 
L 338.782898 258.842263 
L 350.619261 304.71568 
L 362.455625 231.318212 
L 374.291989 281.778972 
L 386.128352 222.143528 
L 397.964716 249.667579 
L 409.80108 185.444794 
L 421.637443 167.095427 
L 433.473807 254.254921 
L 445.31017 258.842263 
L 457.146534 167.095427 
L 468.982898 235.905554 
L 480.819261 171.682769 
L 492.655625 240.492896 
" style="fill:none;stroke:#94c4df;stroke-linecap:square;stroke-width:1.5;"/>
   </g>
   <g id="line2d_64">
    <path clip-path="url(#p206c941ee3)" d="M 102.055625 433.16125 
L 113.891989 401.049858 
L 125.728352 414.811883 
L 137.564716 428.573908 
L 149.40108 410.224541 
L 161.237443 382.700491 
L 173.073807 414.811883 
L 184.91017 396.462516 
L 196.746534 373.525807 
L 208.582898 359.763782 
L 220.419261 281.778972 
L 232.255625 323.065047 
L 244.091989 309.303022 
L 255.928352 341.414415 
L 267.764716 332.239731 
L 279.60108 336.827073 
L 291.437443 263.429604 
L 303.273807 254.254921 
L 315.11017 295.540997 
L 326.946534 300.128339 
L 338.782898 231.318212 
L 350.619261 281.778972 
L 362.455625 290.953655 
L 374.291989 295.540997 
L 386.128352 226.73087 
L 397.964716 190.032136 
L 409.80108 258.842263 
L 421.637443 240.492896 
L 433.473807 217.556187 
L 445.31017 199.20682 
L 457.146534 281.778972 
L 468.982898 222.143528 
L 480.819261 199.20682 
L 492.655625 107.459984 
" style="fill:none;stroke:#94c4df;stroke-linecap:square;stroke-width:1.5;"/>
   </g>
   <g id="line2d_65">
    <path clip-path="url(#p206c941ee3)" d="M 102.055625 433.16125 
L 113.891989 433.16125 
L 125.728352 423.986566 
L 137.564716 401.049858 
L 149.40108 414.811883 
L 161.237443 391.875174 
L 173.073807 391.875174 
L 184.91017 341.414415 
L 196.746534 359.763782 
L 208.582898 355.17644 
L 220.419261 355.17644 
L 232.255625 373.525807 
L 244.091989 327.652389 
L 255.928352 346.001756 
L 267.764716 332.239731 
L 279.60108 300.128339 
L 291.437443 336.827073 
L 303.273807 313.890364 
L 315.11017 309.303022 
L 326.946534 332.239731 
L 338.782898 277.19163 
L 350.619261 290.953655 
L 362.455625 194.619478 
L 374.291989 268.016946 
L 386.128352 194.619478 
L 397.964716 263.429604 
L 409.80108 235.905554 
L 421.637443 134.984035 
L 433.473807 208.381503 
L 445.31017 231.318212 
L 457.146534 180.857453 
L 468.982898 190.032136 
L 480.819261 144.158718 
L 492.655625 185.444794 
" style="fill:none;stroke:#94c4df;stroke-linecap:square;stroke-width:1.5;"/>
   </g>
   <g id="line2d_66">
    <path clip-path="url(#p206c941ee3)" d="M 102.055625 433.16125 
L 113.891989 433.16125 
L 125.728352 433.16125 
L 137.564716 433.16125 
L 149.40108 433.16125 
L 161.237443 433.16125 
L 173.073807 433.16125 
L 184.91017 433.16125 
L 196.746534 433.16125 
L 208.582898 433.16125 
L 220.419261 433.16125 
L 232.255625 433.16125 
L 244.091989 433.16125 
L 255.928352 433.16125 
L 267.764716 433.16125 
L 279.60108 433.16125 
L 291.437443 433.16125 
L 303.273807 433.16125 
L 315.11017 433.16125 
L 326.946534 433.16125 
L 338.782898 433.16125 
L 350.619261 433.16125 
L 362.455625 433.16125 
L 374.291989 433.16125 
L 386.128352 433.16125 
L 397.964716 433.16125 
L 409.80108 433.16125 
L 421.637443 433.16125 
L 433.473807 433.16125 
L 445.31017 433.16125 
L 457.146534 433.16125 
L 468.982898 433.16125 
L 480.819261 433.16125 
L 492.655625 433.16125 
" style="fill:none;stroke:#000000;stroke-linecap:square;stroke-width:1.5;"/>
   </g>
   <g id="line2d_67">
    <path clip-path="url(#p206c941ee3)" d="M 102.055625 433.16125 
L 113.891989 433.16125 
L 125.728352 433.16125 
L 137.564716 433.16125 
L 149.40108 433.16125 
L 161.237443 433.16125 
L 173.073807 433.16125 
L 184.91017 433.16125 
L 196.746534 433.16125 
L 208.582898 433.16125 
L 220.419261 433.16125 
L 232.255625 433.16125 
L 244.091989 433.16125 
L 255.928352 433.16125 
L 267.764716 433.16125 
L 279.60108 433.16125 
L 291.437443 433.16125 
L 303.273807 433.16125 
L 315.11017 433.16125 
L 326.946534 433.16125 
L 338.782898 433.16125 
L 350.619261 433.16125 
L 362.455625 433.16125 
L 374.291989 433.16125 
L 386.128352 433.16125 
L 397.964716 433.16125 
L 409.80108 433.16125 
L 421.637443 433.16125 
L 433.473807 433.16125 
L 445.31017 433.16125 
L 457.146534 433.16125 
L 468.982898 433.16125 
L 480.819261 433.16125 
L 492.655625 433.16125 
" style="fill:none;stroke:#000000;stroke-linecap:square;stroke-width:1.5;"/>
   </g>
   <g id="line2d_68">
    <path clip-path="url(#p206c941ee3)" d="M 102.055625 433.16125 
L 113.891989 433.16125 
L 125.728352 433.16125 
L 137.564716 433.16125 
L 149.40108 433.16125 
L 161.237443 433.16125 
L 173.073807 433.16125 
L 184.91017 433.16125 
L 196.746534 433.16125 
L 208.582898 433.16125 
L 220.419261 433.16125 
L 232.255625 433.16125 
L 244.091989 433.16125 
L 255.928352 433.16125 
L 267.764716 433.16125 
L 279.60108 433.16125 
L 291.437443 433.16125 
L 303.273807 433.16125 
L 315.11017 433.16125 
L 326.946534 433.16125 
L 338.782898 433.16125 
L 350.619261 433.16125 
L 362.455625 433.16125 
L 374.291989 433.16125 
L 386.128352 433.16125 
L 397.964716 433.16125 
L 409.80108 433.16125 
L 421.637443 433.16125 
L 433.473807 433.16125 
L 445.31017 433.16125 
L 457.146534 433.16125 
L 468.982898 433.16125 
L 480.819261 433.16125 
L 492.655625 433.16125 
" style="fill:none;stroke:#000000;stroke-linecap:square;stroke-width:1.5;"/>
   </g>
   <g id="line2d_69">
    <path clip-path="url(#p206c941ee3)" d="M 102.055625 433.16125 
L 113.891989 433.16125 
L 125.728352 433.16125 
L 137.564716 433.16125 
L 149.40108 433.16125 
L 161.237443 433.16125 
L 173.073807 433.16125 
L 184.91017 433.16125 
L 196.746534 433.16125 
L 208.582898 433.16125 
L 220.419261 433.16125 
L 232.255625 433.16125 
L 244.091989 433.16125 
L 255.928352 433.16125 
L 267.764716 433.16125 
L 279.60108 433.16125 
L 291.437443 433.16125 
L 303.273807 433.16125 
L 315.11017 433.16125 
L 326.946534 433.16125 
L 338.782898 433.16125 
L 350.619261 433.16125 
L 362.455625 433.16125 
L 374.291989 433.16125 
L 386.128352 433.16125 
L 397.964716 433.16125 
L 409.80108 433.16125 
L 421.637443 433.16125 
L 433.473807 433.16125 
L 445.31017 433.16125 
L 457.146534 433.16125 
L 468.982898 433.16125 
L 480.819261 433.16125 
L 492.655625 433.16125 
" style="fill:none;stroke:#000000;stroke-linecap:square;stroke-width:1.5;"/>
   </g>
   <g id="line2d_70">
    <path clip-path="url(#p206c941ee3)" d="M 102.055625 433.16125 
L 113.891989 433.16125 
L 125.728352 433.16125 
L 137.564716 433.16125 
L 149.40108 433.16125 
L 161.237443 433.16125 
L 173.073807 433.16125 
L 184.91017 433.16125 
L 196.746534 433.16125 
L 208.582898 433.16125 
L 220.419261 433.16125 
L 232.255625 433.16125 
L 244.091989 433.16125 
L 255.928352 433.16125 
L 267.764716 433.16125 
L 279.60108 433.16125 
L 291.437443 433.16125 
L 303.273807 433.16125 
L 315.11017 433.16125 
L 326.946534 433.16125 
L 338.782898 433.16125 
L 350.619261 433.16125 
L 362.455625 433.16125 
L 374.291989 433.16125 
L 386.128352 433.16125 
L 397.964716 433.16125 
L 409.80108 433.16125 
L 421.637443 433.16125 
L 433.473807 433.16125 
L 445.31017 433.16125 
L 457.146534 433.16125 
L 468.982898 433.16125 
L 480.819261 433.16125 
L 492.655625 433.16125 
" style="fill:none;stroke:#000000;stroke-linecap:square;stroke-width:1.5;"/>
   </g>
   <g id="line2d_71">
    <path clip-path="url(#p206c941ee3)" d="M 102.055625 433.16125 
L 113.891989 433.16125 
L 125.728352 433.16125 
L 137.564716 433.16125 
L 149.40108 433.16125 
L 161.237443 433.16125 
L 173.073807 433.16125 
L 184.91017 433.16125 
L 196.746534 433.16125 
L 208.582898 433.16125 
L 220.419261 433.16125 
L 232.255625 433.16125 
L 244.091989 433.16125 
L 255.928352 433.16125 
L 267.764716 433.16125 
L 279.60108 433.16125 
L 291.437443 433.16125 
L 303.273807 433.16125 
L 315.11017 433.16125 
L 326.946534 433.16125 
L 338.782898 433.16125 
L 350.619261 433.16125 
L 362.455625 433.16125 
L 374.291989 433.16125 
L 386.128352 433.16125 
L 397.964716 433.16125 
L 409.80108 433.16125 
L 421.637443 433.16125 
L 433.473807 433.16125 
L 445.31017 433.16125 
L 457.146534 433.16125 
L 468.982898 433.16125 
L 480.819261 433.16125 
L 492.655625 433.16125 
" style="fill:none;stroke:#000000;stroke-linecap:square;stroke-width:1.5;"/>
   </g>
   <g id="line2d_72">
    <path clip-path="url(#p206c941ee3)" d="M 102.055625 433.16125 
L 113.891989 433.16125 
L 125.728352 433.16125 
L 137.564716 433.16125 
L 149.40108 433.16125 
L 161.237443 433.16125 
L 173.073807 433.16125 
L 184.91017 433.16125 
L 196.746534 433.16125 
L 208.582898 433.16125 
L 220.419261 433.16125 
L 232.255625 433.16125 
L 244.091989 433.16125 
L 255.928352 433.16125 
L 267.764716 433.16125 
L 279.60108 433.16125 
L 291.437443 433.16125 
L 303.273807 433.16125 
L 315.11017 433.16125 
L 326.946534 433.16125 
L 338.782898 433.16125 
L 350.619261 433.16125 
L 362.455625 433.16125 
L 374.291989 433.16125 
L 386.128352 433.16125 
L 397.964716 433.16125 
L 409.80108 433.16125 
L 421.637443 433.16125 
L 433.473807 433.16125 
L 445.31017 433.16125 
L 457.146534 433.16125 
L 468.982898 433.16125 
L 480.819261 433.16125 
L 492.655625 433.16125 
" style="fill:none;stroke:#000000;stroke-linecap:square;stroke-width:1.5;"/>
   </g>
   <g id="line2d_73">
    <path clip-path="url(#p206c941ee3)" d="M 102.055625 433.16125 
L 113.891989 433.16125 
L 125.728352 433.16125 
L 137.564716 433.16125 
L 149.40108 433.16125 
L 161.237443 433.16125 
L 173.073807 433.16125 
L 184.91017 433.16125 
L 196.746534 433.16125 
L 208.582898 433.16125 
L 220.419261 433.16125 
L 232.255625 433.16125 
L 244.091989 433.16125 
L 255.928352 433.16125 
L 267.764716 433.16125 
L 279.60108 433.16125 
L 291.437443 433.16125 
L 303.273807 433.16125 
L 315.11017 433.16125 
L 326.946534 433.16125 
L 338.782898 433.16125 
L 350.619261 433.16125 
L 362.455625 433.16125 
L 374.291989 433.16125 
L 386.128352 433.16125 
L 397.964716 433.16125 
L 409.80108 433.16125 
L 421.637443 433.16125 
L 433.473807 433.16125 
L 445.31017 433.16125 
L 457.146534 433.16125 
L 468.982898 433.16125 
L 480.819261 433.16125 
L 492.655625 433.16125 
" style="fill:none;stroke:#000000;stroke-linecap:square;stroke-width:1.5;"/>
   </g>
   <g id="line2d_74">
    <path clip-path="url(#p206c941ee3)" d="M 102.055625 433.16125 
L 113.891989 433.16125 
L 125.728352 433.16125 
L 137.564716 433.16125 
L 149.40108 433.16125 
L 161.237443 433.16125 
L 173.073807 433.16125 
L 184.91017 433.16125 
L 196.746534 433.16125 
L 208.582898 433.16125 
L 220.419261 433.16125 
L 232.255625 433.16125 
L 244.091989 433.16125 
L 255.928352 433.16125 
L 267.764716 433.16125 
L 279.60108 433.16125 
L 291.437443 433.16125 
L 303.273807 433.16125 
L 315.11017 433.16125 
L 326.946534 433.16125 
L 338.782898 433.16125 
L 350.619261 433.16125 
L 362.455625 433.16125 
L 374.291989 433.16125 
L 386.128352 433.16125 
L 397.964716 433.16125 
L 409.80108 433.16125 
L 421.637443 433.16125 
L 433.473807 433.16125 
L 445.31017 433.16125 
L 457.146534 433.16125 
L 468.982898 433.16125 
L 480.819261 433.16125 
L 492.655625 433.16125 
" style="fill:none;stroke:#000000;stroke-linecap:square;stroke-width:1.5;"/>
   </g>
   <g id="line2d_75">
    <path clip-path="url(#p206c941ee3)" d="M 102.055625 433.16125 
L 113.891989 433.16125 
L 125.728352 433.16125 
L 137.564716 433.16125 
L 149.40108 433.16125 
L 161.237443 433.16125 
L 173.073807 433.16125 
L 184.91017 433.16125 
L 196.746534 433.16125 
L 208.582898 433.16125 
L 220.419261 433.16125 
L 232.255625 433.16125 
L 244.091989 433.16125 
L 255.928352 433.16125 
L 267.764716 433.16125 
L 279.60108 433.16125 
L 291.437443 433.16125 
L 303.273807 433.16125 
L 315.11017 433.16125 
L 326.946534 433.16125 
L 338.782898 433.16125 
L 350.619261 433.16125 
L 362.455625 433.16125 
L 374.291989 433.16125 
L 386.128352 433.16125 
L 397.964716 433.16125 
L 409.80108 433.16125 
L 421.637443 433.16125 
L 433.473807 433.16125 
L 445.31017 433.16125 
L 457.146534 433.16125 
L 468.982898 433.16125 
L 480.819261 433.16125 
L 492.655625 433.16125 
" style="fill:none;stroke:#000000;stroke-linecap:square;stroke-width:1.5;"/>
   </g>
   <g id="line2d_76">
    <path clip-path="url(#p206c941ee3)" d="M 90.219261 433.16125 
" style="fill:none;stroke:#000000;stroke-linecap:square;stroke-width:1.5;"/>
   </g>
   <g id="line2d_77">
    <path clip-path="url(#p206c941ee3)" d="M 90.219261 433.16125 
" style="fill:none;stroke:#d0e1f2;stroke-linecap:square;stroke-width:1.5;"/>
   </g>
   <g id="line2d_78">
    <path clip-path="url(#p206c941ee3)" d="M 90.219261 433.16125 
" style="fill:none;stroke:#94c4df;stroke-linecap:square;stroke-width:1.5;"/>
   </g>
   <g id="line2d_79">
    <path clip-path="url(#p206c941ee3)" d="M 90.219261 433.16125 
" style="fill:none;stroke:#4a98c9;stroke-linecap:square;stroke-width:1.5;"/>
   </g>
   <g id="line2d_80">
    <path clip-path="url(#p206c941ee3)" d="M 90.219261 433.16125 
" style="fill:none;stroke:#1764ab;stroke-linecap:square;stroke-width:1.5;"/>
   </g>
   <g id="line2d_81">
    <path clip-path="url(#p206c941ee3)" d="M 90.219261 433.16125 
" style="fill:none;stroke:#08306b;stroke-linecap:square;stroke-width:1.5;"/>
   </g>
   <g id="line2d_82">
    <path clip-path="url(#p206c941ee3)" d="M 90.219261 433.16125 
" style="fill:none;stroke:#000000;stroke-linecap:square;stroke-width:1.5;"/>
   </g>
   <g id="line2d_83">
    <path clip-path="url(#p206c941ee3)" d="M 90.219261 433.16125 
" style="fill:none;stroke:#000000;stroke-dasharray:1.5,2.475;stroke-dashoffset:0;stroke-width:1.5;"/>
   </g>
   <g id="line2d_84">
    <path clip-path="url(#p206c941ee3)" d="M 90.219261 433.16125 
" style="fill:none;stroke:#000000;stroke-linecap:square;stroke-width:1.5;"/>
   </g>
   <g id="line2d_85">
    <path clip-path="url(#p206c941ee3)" d="M 90.219261 433.16125 
" style="fill:none;stroke:#000000;stroke-dasharray:5.55,2.4;stroke-dashoffset:0;stroke-width:1.5;"/>
   </g>
   <g id="line2d_86">
    <path clip-path="url(#p206c941ee3)" d="M 90.219261 433.16125 
" style="fill:none;stroke:#000000;stroke-dasharray:9.6,2.4,1.5,2.4;stroke-dashoffset:0;stroke-width:1.5;"/>
   </g>
   <g id="line2d_87">
    <path clip-path="url(#p206c941ee3)" d="M 90.219261 433.16125 
" style="fill:none;stroke:#000000;stroke-dasharray:9.6,2.4,1.5,2.4;stroke-dashoffset:0;stroke-width:1.5;"/>
   </g>
   <g id="patch_3">
    <path d="M 102.055625 433.16125 
L 102.055625 52.64125 
" style="fill:none;stroke:#000000;stroke-linecap:square;stroke-linejoin:miter;stroke-width:0.8;"/>
   </g>
   <g id="patch_4">
    <path d="M 492.655625 433.16125 
L 492.655625 52.64125 
" style="fill:none;stroke:#000000;stroke-linecap:square;stroke-linejoin:miter;stroke-width:0.8;"/>
   </g>
   <g id="patch_5">
    <path d="M 102.055625 433.16125 
L 492.655625 433.16125 
" style="fill:none;stroke:#000000;stroke-linecap:square;stroke-linejoin:miter;stroke-width:0.8;"/>
   </g>
   <g id="patch_6">
    <path d="M 102.055625 52.64125 
L 492.655625 52.64125 
" style="fill:none;stroke:#000000;stroke-linecap:square;stroke-linejoin:miter;stroke-width:0.8;"/>
   </g>
   <g id="text_18">
    <!-- T-CELL LIVE COUNT -->
    <g transform="translate(198.485313 21.515625)scale(0.2 -0.2)">
     <use xlink:href="#Arial-BoldMT-84"/>
     <use x="61.005859" xlink:href="#Arial-BoldMT-45"/>
     <use x="94.306641" xlink:href="#Arial-BoldMT-67"/>
     <use x="166.523438" xlink:href="#Arial-BoldMT-69"/>
     <use x="233.222656" xlink:href="#Arial-BoldMT-76"/>
     <use x="294.306641" xlink:href="#Arial-BoldMT-76"/>
     <use x="355.375" xlink:href="#Arial-BoldMT-32"/>
     <use x="383.158203" xlink:href="#Arial-BoldMT-76"/>
     <use x="444.242188" xlink:href="#Arial-BoldMT-73"/>
     <use x="472.025391" xlink:href="#Arial-BoldMT-86"/>
     <use x="538.724609" xlink:href="#Arial-BoldMT-69"/>
     <use x="605.423828" xlink:href="#Arial-BoldMT-32"/>
     <use x="633.207031" xlink:href="#Arial-BoldMT-67"/>
     <use x="705.423828" xlink:href="#Arial-BoldMT-79"/>
     <use x="783.207031" xlink:href="#Arial-BoldMT-85"/>
     <use x="855.423828" xlink:href="#Arial-BoldMT-78"/>
     <use x="927.640625" xlink:href="#Arial-BoldMT-84"/>
    </g>
    <!-- ACROSS RADIUS AT TIME 1 -->
    <defs>
     <path d="M 39.359375 0 
L 25.640625 0 
L 25.640625 51.703125 
Q 18.109375 44.671875 7.90625 41.3125 
L 7.90625 53.765625 
Q 13.28125 55.515625 19.578125 60.421875 
Q 25.875 65.328125 28.21875 71.875 
L 39.359375 71.875 
z
" id="Arial-BoldMT-49"/>
    </defs>
    <g transform="translate(162.361875 42.64125)scale(0.2 -0.2)">
     <use xlink:href="#Arial-BoldMT-65"/>
     <use x="72.216797" xlink:href="#Arial-BoldMT-67"/>
     <use x="144.433594" xlink:href="#Arial-BoldMT-82"/>
     <use x="216.650391" xlink:href="#Arial-BoldMT-79"/>
     <use x="294.433594" xlink:href="#Arial-BoldMT-83"/>
     <use x="361.132812" xlink:href="#Arial-BoldMT-83"/>
     <use x="427.832031" xlink:href="#Arial-BoldMT-32"/>
     <use x="455.615234" xlink:href="#Arial-BoldMT-82"/>
     <use x="527.832031" xlink:href="#Arial-BoldMT-65"/>
     <use x="600.048828" xlink:href="#Arial-BoldMT-68"/>
     <use x="672.265625" xlink:href="#Arial-BoldMT-73"/>
     <use x="700.048828" xlink:href="#Arial-BoldMT-85"/>
     <use x="772.265625" xlink:href="#Arial-BoldMT-83"/>
     <use x="838.964844" xlink:href="#Arial-BoldMT-32"/>
     <use x="866.701172" xlink:href="#Arial-BoldMT-65"/>
     <use x="938.808594" xlink:href="#Arial-BoldMT-84"/>
     <use x="999.892578" xlink:href="#Arial-BoldMT-32"/>
     <use x="1027.675781" xlink:href="#Arial-BoldMT-84"/>
     <use x="1088.759766" xlink:href="#Arial-BoldMT-73"/>
     <use x="1116.542969" xlink:href="#Arial-BoldMT-77"/>
     <use x="1199.84375" xlink:href="#Arial-BoldMT-69"/>
     <use x="1266.542969" xlink:href="#Arial-BoldMT-32"/>
     <use x="1294.326172" xlink:href="#Arial-BoldMT-49"/>
    </g>
   </g>
   <g id="legend_1">
    <g id="line2d_88">
     <path d="M 501.655625 65.739687 
L 521.655625 65.739687 
" style="fill:none;stroke:#000000;stroke-linecap:square;stroke-width:1.5;"/>
    </g>
    <g id="line2d_89"/>
    <g id="text_19">
     <!-- 0 -->
     <g transform="translate(529.655625 69.239687)scale(0.1 -0.1)">
      <use xlink:href="#DejaVuSans-48"/>
     </g>
    </g>
    <g id="line2d_90">
     <path d="M 501.655625 80.417812 
L 521.655625 80.417812 
" style="fill:none;stroke:#d0e1f2;stroke-linecap:square;stroke-width:1.5;"/>
    </g>
    <g id="line2d_91"/>
    <g id="text_20">
     <!-- 100 -->
     <g transform="translate(529.655625 83.917812)scale(0.1 -0.1)">
      <use xlink:href="#DejaVuSans-49"/>
      <use x="63.623047" xlink:href="#DejaVuSans-48"/>
      <use x="127.246094" xlink:href="#DejaVuSans-48"/>
     </g>
    </g>
    <g id="line2d_92">
     <path d="M 501.655625 95.095937 
L 521.655625 95.095937 
" style="fill:none;stroke:#94c4df;stroke-linecap:square;stroke-width:1.5;"/>
    </g>
    <g id="line2d_93"/>
    <g id="text_21">
     <!-- 500 -->
     <g transform="translate(529.655625 98.595937)scale(0.1 -0.1)">
      <use xlink:href="#DejaVuSans-53"/>
      <use x="63.623047" xlink:href="#DejaVuSans-48"/>
      <use x="127.246094" xlink:href="#DejaVuSans-48"/>
     </g>
    </g>
    <g id="line2d_94">
     <path d="M 501.655625 109.774062 
L 521.655625 109.774062 
" style="fill:none;stroke:#4a98c9;stroke-linecap:square;stroke-width:1.5;"/>
    </g>
    <g id="line2d_95"/>
    <g id="text_22">
     <!-- 1000 -->
     <g transform="translate(529.655625 113.274062)scale(0.1 -0.1)">
      <use xlink:href="#DejaVuSans-49"/>
      <use x="63.623047" xlink:href="#DejaVuSans-48"/>
      <use x="127.246094" xlink:href="#DejaVuSans-48"/>
      <use x="190.869141" xlink:href="#DejaVuSans-48"/>
     </g>
    </g>
    <g id="line2d_96">
     <path d="M 501.655625 124.452187 
L 521.655625 124.452187 
" style="fill:none;stroke:#1764ab;stroke-linecap:square;stroke-width:1.5;"/>
    </g>
    <g id="line2d_97"/>
    <g id="text_23">
     <!-- 5000 -->
     <g transform="translate(529.655625 127.952187)scale(0.1 -0.1)">
      <use xlink:href="#DejaVuSans-53"/>
      <use x="63.623047" xlink:href="#DejaVuSans-48"/>
      <use x="127.246094" xlink:href="#DejaVuSans-48"/>
      <use x="190.869141" xlink:href="#DejaVuSans-48"/>
     </g>
    </g>
    <g id="line2d_98">
     <path d="M 501.655625 139.130312 
L 521.655625 139.130312 
" style="fill:none;stroke:#08306b;stroke-linecap:square;stroke-width:1.5;"/>
    </g>
    <g id="line2d_99"/>
    <g id="text_24">
     <!-- 10000 -->
     <g transform="translate(529.655625 142.630312)scale(0.1 -0.1)">
      <use xlink:href="#DejaVuSans-49"/>
      <use x="63.623047" xlink:href="#DejaVuSans-48"/>
      <use x="127.246094" xlink:href="#DejaVuSans-48"/>
      <use x="190.869141" xlink:href="#DejaVuSans-48"/>
      <use x="254.492188" xlink:href="#DejaVuSans-48"/>
     </g>
    </g>
    <g id="line2d_100">
     <path d="M 501.655625 153.808437 
L 521.655625 153.808437 
" style="fill:none;stroke:#000000;stroke-linecap:square;stroke-width:1.5;"/>
    </g>
    <g id="line2d_101"/>
    <g id="text_25">
     <!-- 0 -->
     <g transform="translate(529.655625 157.308437)scale(0.1 -0.1)">
      <use xlink:href="#DejaVuSans-48"/>
     </g>
    </g>
    <g id="line2d_102">
     <path d="M 501.655625 168.486562 
L 521.655625 168.486562 
" style="fill:none;stroke:#000000;stroke-dasharray:1.5,2.475;stroke-dashoffset:0;stroke-width:1.5;"/>
    </g>
    <g id="line2d_103"/>
    <g id="text_26">
     <!-- 250 -->
     <g transform="translate(529.655625 171.986562)scale(0.1 -0.1)">
      <use xlink:href="#DejaVuSans-50"/>
      <use x="63.623047" xlink:href="#DejaVuSans-53"/>
      <use x="127.246094" xlink:href="#DejaVuSans-48"/>
     </g>
    </g>
    <g id="line2d_104">
     <path d="M 501.655625 183.164687 
L 521.655625 183.164687 
" style="fill:none;stroke:#000000;stroke-linecap:square;stroke-width:1.5;"/>
    </g>
    <g id="line2d_105"/>
    <g id="text_27">
     <!-- 500 -->
     <g transform="translate(529.655625 186.664687)scale(0.1 -0.1)">
      <use xlink:href="#DejaVuSans-53"/>
      <use x="63.623047" xlink:href="#DejaVuSans-48"/>
      <use x="127.246094" xlink:href="#DejaVuSans-48"/>
     </g>
    </g>
    <g id="line2d_106">
     <path d="M 501.655625 197.842812 
L 521.655625 197.842812 
" style="fill:none;stroke:#000000;stroke-dasharray:5.55,2.4;stroke-dashoffset:0;stroke-width:1.5;"/>
    </g>
    <g id="line2d_107"/>
    <g id="text_28">
     <!-- 1000 -->
     <g transform="translate(529.655625 201.342812)scale(0.1 -0.1)">
      <use xlink:href="#DejaVuSans-49"/>
      <use x="63.623047" xlink:href="#DejaVuSans-48"/>
      <use x="127.246094" xlink:href="#DejaVuSans-48"/>
      <use x="190.869141" xlink:href="#DejaVuSans-48"/>
     </g>
    </g>
    <g id="line2d_108">
     <path d="M 501.655625 212.520937 
L 521.655625 212.520937 
" style="fill:none;stroke:#000000;stroke-dasharray:9.6,2.4,1.5,2.4;stroke-dashoffset:0;stroke-width:1.5;"/>
    </g>
    <g id="line2d_109"/>
    <g id="text_29">
     <!-- 5000 -->
     <g transform="translate(529.655625 216.020937)scale(0.1 -0.1)">
      <use xlink:href="#DejaVuSans-53"/>
      <use x="63.623047" xlink:href="#DejaVuSans-48"/>
      <use x="127.246094" xlink:href="#DejaVuSans-48"/>
      <use x="190.869141" xlink:href="#DejaVuSans-48"/>
     </g>
    </g>
    <g id="line2d_110">
     <path d="M 501.655625 227.199062 
L 521.655625 227.199062 
" style="fill:none;stroke:#000000;stroke-dasharray:9.6,2.4,1.5,2.4;stroke-dashoffset:0;stroke-width:1.5;"/>
    </g>
    <g id="line2d_111"/>
    <g id="text_30">
     <!-- 10000 -->
     <g transform="translate(529.655625 230.699062)scale(0.1 -0.1)">
      <use xlink:href="#DejaVuSans-49"/>
      <use x="63.623047" xlink:href="#DejaVuSans-48"/>
      <use x="127.246094" xlink:href="#DejaVuSans-48"/>
      <use x="190.869141" xlink:href="#DejaVuSans-48"/>
      <use x="254.492188" xlink:href="#DejaVuSans-48"/>
     </g>
    </g>
   </g>
  </g>
 </g>
 <defs>
  <clipPath id="p206c941ee3">
   <rect height="380.52" width="390.6" x="102.055625" y="52.64125"/>
  </clipPath>
 </defs>
</svg>
