<?xml version="1.0" encoding="utf-8" standalone="no"?>
<!DOCTYPE svg PUBLIC "-//W3C//DTD SVG 1.1//EN"
  "http://www.w3.org/Graphics/SVG/1.1/DTD/svg11.dtd">
<!-- Created with matplotlib (https://matplotlib.org/) -->
<svg height="504.658125pt" version="1.1" viewBox="0 0 610.843125 504.658125" width="610.843125pt" xmlns="http://www.w3.org/2000/svg" xmlns:xlink="http://www.w3.org/1999/xlink">
 <defs>
  <style type="text/css">
*{stroke-linecap:butt;stroke-linejoin:round;}
  </style>
 </defs>
 <g id="figure_1">
  <g id="patch_1">
   <path d="M 0 504.658125 
L 610.843125 504.658125 
L 610.843125 -0 
L 0 -0 
z
" style="fill:#ffffff;"/>
  </g>
  <g id="axes_1">
   <g id="patch_2">
    <path d="M 140.230625 433.16125 
L 530.830625 433.16125 
L 530.830625 52.64125 
L 140.230625 52.64125 
z
" style="fill:#ffffff;"/>
   </g>
   <g id="matplotlib.axis_1">
    <g id="xtick_1">
     <g id="line2d_1">
      <defs>
       <path d="M 0 0 
L 0 3.5 
" id="meb10b4cc37" style="stroke:#000000;stroke-width:0.8;"/>
      </defs>
      <g>
       <use style="stroke:#000000;stroke-width:0.8;" x="187.57608" xlink:href="#meb10b4cc37" y="433.16125"/>
      </g>
     </g>
     <g id="text_1">
      <!-- 5 -->
      <defs>
       <path d="M 10.796875 72.90625 
L 49.515625 72.90625 
L 49.515625 64.59375 
L 19.828125 64.59375 
L 19.828125 46.734375 
Q 21.96875 47.46875 24.109375 47.828125 
Q 26.265625 48.1875 28.421875 48.1875 
Q 40.625 48.1875 47.75 41.5 
Q 54.890625 34.8125 54.890625 23.390625 
Q 54.890625 11.625 47.5625 5.09375 
Q 40.234375 -1.421875 26.90625 -1.421875 
Q 22.3125 -1.421875 17.546875 -0.640625 
Q 12.796875 0.140625 7.71875 1.703125 
L 7.71875 11.625 
Q 12.109375 9.234375 16.796875 8.0625 
Q 21.484375 6.890625 26.703125 6.890625 
Q 35.15625 6.890625 40.078125 11.328125 
Q 45.015625 15.765625 45.015625 23.390625 
Q 45.015625 31 40.078125 35.4375 
Q 35.15625 39.890625 26.703125 39.890625 
Q 22.75 39.890625 18.8125 39.015625 
Q 14.890625 38.140625 10.796875 36.28125 
z
" id="DejaVuSans-53"/>
      </defs>
      <g transform="translate(178.03233 462.956562)scale(0.3 -0.3)">
       <use xlink:href="#DejaVuSans-53"/>
      </g>
     </g>
    </g>
    <g id="xtick_2">
     <g id="line2d_2">
      <g>
       <use style="stroke:#000000;stroke-width:0.8;" x="246.757898" xlink:href="#meb10b4cc37" y="433.16125"/>
      </g>
     </g>
     <g id="text_2">
      <!-- 10 -->
      <defs>
       <path d="M 12.40625 8.296875 
L 28.515625 8.296875 
L 28.515625 63.921875 
L 10.984375 60.40625 
L 10.984375 69.390625 
L 28.421875 72.90625 
L 38.28125 72.90625 
L 38.28125 8.296875 
L 54.390625 8.296875 
L 54.390625 0 
L 12.40625 0 
z
" id="DejaVuSans-49"/>
       <path d="M 31.78125 66.40625 
Q 24.171875 66.40625 20.328125 58.90625 
Q 16.5 51.421875 16.5 36.375 
Q 16.5 21.390625 20.328125 13.890625 
Q 24.171875 6.390625 31.78125 6.390625 
Q 39.453125 6.390625 43.28125 13.890625 
Q 47.125 21.390625 47.125 36.375 
Q 47.125 51.421875 43.28125 58.90625 
Q 39.453125 66.40625 31.78125 66.40625 
z
M 31.78125 74.21875 
Q 44.046875 74.21875 50.515625 64.515625 
Q 56.984375 54.828125 56.984375 36.375 
Q 56.984375 17.96875 50.515625 8.265625 
Q 44.046875 -1.421875 31.78125 -1.421875 
Q 19.53125 -1.421875 13.0625 8.265625 
Q 6.59375 17.96875 6.59375 36.375 
Q 6.59375 54.828125 13.0625 64.515625 
Q 19.53125 74.21875 31.78125 74.21875 
z
" id="DejaVuSans-48"/>
      </defs>
      <g transform="translate(227.670398 462.956562)scale(0.3 -0.3)">
       <use xlink:href="#DejaVuSans-49"/>
       <use x="63.623047" xlink:href="#DejaVuSans-48"/>
      </g>
     </g>
    </g>
    <g id="xtick_3">
     <g id="line2d_3">
      <g>
       <use style="stroke:#000000;stroke-width:0.8;" x="305.939716" xlink:href="#meb10b4cc37" y="433.16125"/>
      </g>
     </g>
     <g id="text_3">
      <!-- 15 -->
      <g transform="translate(286.852216 462.956562)scale(0.3 -0.3)">
       <use xlink:href="#DejaVuSans-49"/>
       <use x="63.623047" xlink:href="#DejaVuSans-53"/>
      </g>
     </g>
    </g>
    <g id="xtick_4">
     <g id="line2d_4">
      <g>
       <use style="stroke:#000000;stroke-width:0.8;" x="365.121534" xlink:href="#meb10b4cc37" y="433.16125"/>
      </g>
     </g>
     <g id="text_4">
      <!-- 20 -->
      <defs>
       <path d="M 19.1875 8.296875 
L 53.609375 8.296875 
L 53.609375 0 
L 7.328125 0 
L 7.328125 8.296875 
Q 12.9375 14.109375 22.625 23.890625 
Q 32.328125 33.6875 34.8125 36.53125 
Q 39.546875 41.84375 41.421875 45.53125 
Q 43.3125 49.21875 43.3125 52.78125 
Q 43.3125 58.59375 39.234375 62.25 
Q 35.15625 65.921875 28.609375 65.921875 
Q 23.96875 65.921875 18.8125 64.3125 
Q 13.671875 62.703125 7.8125 59.421875 
L 7.8125 69.390625 
Q 13.765625 71.78125 18.9375 73 
Q 24.125 74.21875 28.421875 74.21875 
Q 39.75 74.21875 46.484375 68.546875 
Q 53.21875 62.890625 53.21875 53.421875 
Q 53.21875 48.921875 51.53125 44.890625 
Q 49.859375 40.875 45.40625 35.40625 
Q 44.1875 33.984375 37.640625 27.21875 
Q 31.109375 20.453125 19.1875 8.296875 
z
" id="DejaVuSans-50"/>
      </defs>
      <g transform="translate(346.034034 462.956562)scale(0.3 -0.3)">
       <use xlink:href="#DejaVuSans-50"/>
       <use x="63.623047" xlink:href="#DejaVuSans-48"/>
      </g>
     </g>
    </g>
    <g id="xtick_5">
     <g id="line2d_5">
      <g>
       <use style="stroke:#000000;stroke-width:0.8;" x="424.303352" xlink:href="#meb10b4cc37" y="433.16125"/>
      </g>
     </g>
     <g id="text_5">
      <!-- 25 -->
      <g transform="translate(405.215852 462.956562)scale(0.3 -0.3)">
       <use xlink:href="#DejaVuSans-50"/>
       <use x="63.623047" xlink:href="#DejaVuSans-53"/>
      </g>
     </g>
    </g>
    <g id="xtick_6">
     <g id="line2d_6">
      <g>
       <use style="stroke:#000000;stroke-width:0.8;" x="483.48517" xlink:href="#meb10b4cc37" y="433.16125"/>
      </g>
     </g>
     <g id="text_6">
      <!-- 30 -->
      <defs>
       <path d="M 40.578125 39.3125 
Q 47.65625 37.796875 51.625 33 
Q 55.609375 28.21875 55.609375 21.1875 
Q 55.609375 10.40625 48.1875 4.484375 
Q 40.765625 -1.421875 27.09375 -1.421875 
Q 22.515625 -1.421875 17.65625 -0.515625 
Q 12.796875 0.390625 7.625 2.203125 
L 7.625 11.71875 
Q 11.71875 9.328125 16.59375 8.109375 
Q 21.484375 6.890625 26.8125 6.890625 
Q 36.078125 6.890625 40.9375 10.546875 
Q 45.796875 14.203125 45.796875 21.1875 
Q 45.796875 27.640625 41.28125 31.265625 
Q 36.765625 34.90625 28.71875 34.90625 
L 20.21875 34.90625 
L 20.21875 43.015625 
L 29.109375 43.015625 
Q 36.375 43.015625 40.234375 45.921875 
Q 44.09375 48.828125 44.09375 54.296875 
Q 44.09375 59.90625 40.109375 62.90625 
Q 36.140625 65.921875 28.71875 65.921875 
Q 24.65625 65.921875 20.015625 65.03125 
Q 15.375 64.15625 9.8125 62.3125 
L 9.8125 71.09375 
Q 15.4375 72.65625 20.34375 73.4375 
Q 25.25 74.21875 29.59375 74.21875 
Q 40.828125 74.21875 47.359375 69.109375 
Q 53.90625 64.015625 53.90625 55.328125 
Q 53.90625 49.265625 50.4375 45.09375 
Q 46.96875 40.921875 40.578125 39.3125 
z
" id="DejaVuSans-51"/>
      </defs>
      <g transform="translate(464.39767 462.956562)scale(0.3 -0.3)">
       <use xlink:href="#DejaVuSans-51"/>
       <use x="63.623047" xlink:href="#DejaVuSans-48"/>
      </g>
     </g>
    </g>
    <g id="text_7">
     <!-- RADIUS -->
     <defs>
      <path d="M 7.328125 0 
L 7.328125 71.578125 
L 37.75 71.578125 
Q 49.21875 71.578125 54.421875 69.640625 
Q 59.625 67.71875 62.75 62.78125 
Q 65.875 57.859375 65.875 51.515625 
Q 65.875 43.453125 61.125 38.203125 
Q 56.390625 32.953125 46.96875 31.59375 
Q 51.65625 28.859375 54.703125 25.578125 
Q 57.765625 22.3125 62.9375 13.96875 
L 71.6875 0 
L 54.390625 0 
L 43.953125 15.578125 
Q 38.375 23.921875 36.328125 26.09375 
Q 34.28125 28.265625 31.984375 29.078125 
Q 29.6875 29.890625 24.703125 29.890625 
L 21.78125 29.890625 
L 21.78125 0 
z
M 21.78125 41.3125 
L 32.46875 41.3125 
Q 42.875 41.3125 45.453125 42.1875 
Q 48.046875 43.0625 49.515625 45.203125 
Q 50.984375 47.359375 50.984375 50.59375 
Q 50.984375 54.203125 49.046875 56.421875 
Q 47.125 58.640625 43.609375 59.234375 
Q 41.84375 59.46875 33.0625 59.46875 
L 21.78125 59.46875 
z
" id="Arial-BoldMT-82"/>
      <path d="M 71.828125 0 
L 56.109375 0 
L 49.859375 16.265625 
L 21.234375 16.265625 
L 15.328125 0 
L 0 0 
L 27.875 71.578125 
L 43.171875 71.578125 
z
M 45.21875 28.328125 
L 35.359375 54.890625 
L 25.6875 28.328125 
z
" id="Arial-BoldMT-65"/>
      <path d="M 7.234375 71.578125 
L 33.640625 71.578125 
Q 42.578125 71.578125 47.265625 70.21875 
Q 53.5625 68.359375 58.046875 63.625 
Q 62.546875 58.890625 64.890625 52.03125 
Q 67.234375 45.171875 67.234375 35.109375 
Q 67.234375 26.265625 65.046875 19.875 
Q 62.359375 12.0625 57.375 7.234375 
Q 53.609375 3.5625 47.21875 1.515625 
Q 42.4375 0 34.421875 0 
L 7.234375 0 
z
M 21.6875 59.46875 
L 21.6875 12.0625 
L 32.46875 12.0625 
Q 38.53125 12.0625 41.21875 12.75 
Q 44.734375 13.625 47.046875 15.71875 
Q 49.359375 17.828125 50.828125 22.625 
Q 52.296875 27.4375 52.296875 35.75 
Q 52.296875 44.046875 50.828125 48.484375 
Q 49.359375 52.9375 46.71875 55.421875 
Q 44.09375 57.90625 40.046875 58.796875 
Q 37.015625 59.46875 28.171875 59.46875 
z
" id="Arial-BoldMT-68"/>
      <path d="M 6.84375 0 
L 6.84375 71.578125 
L 21.296875 71.578125 
L 21.296875 0 
z
" id="Arial-BoldMT-73"/>
      <path d="M 7.171875 71.578125 
L 21.625 71.578125 
L 21.625 32.8125 
Q 21.625 23.578125 22.171875 20.84375 
Q 23.09375 16.453125 26.578125 13.796875 
Q 30.078125 11.140625 36.140625 11.140625 
Q 42.28125 11.140625 45.40625 13.640625 
Q 48.53125 16.15625 49.171875 19.8125 
Q 49.8125 23.484375 49.8125 31.984375 
L 49.8125 71.578125 
L 64.265625 71.578125 
L 64.265625 33.984375 
Q 64.265625 21.09375 63.09375 15.765625 
Q 61.921875 10.453125 58.765625 6.78125 
Q 55.609375 3.125 50.328125 0.953125 
Q 45.0625 -1.21875 36.578125 -1.21875 
Q 26.3125 -1.21875 21.015625 1.140625 
Q 15.71875 3.515625 12.640625 7.296875 
Q 9.578125 11.078125 8.59375 15.234375 
Q 7.171875 21.390625 7.171875 33.40625 
z
" id="Arial-BoldMT-85"/>
      <path d="M 3.609375 23.296875 
L 17.671875 24.65625 
Q 18.953125 17.578125 22.828125 14.25 
Q 26.703125 10.9375 33.296875 10.9375 
Q 40.28125 10.9375 43.8125 13.890625 
Q 47.359375 16.84375 47.359375 20.796875 
Q 47.359375 23.34375 45.875 25.125 
Q 44.390625 26.90625 40.671875 28.21875 
Q 38.140625 29.109375 29.109375 31.34375 
Q 17.484375 34.234375 12.796875 38.421875 
Q 6.203125 44.34375 6.203125 52.828125 
Q 6.203125 58.296875 9.296875 63.0625 
Q 12.40625 67.828125 18.234375 70.3125 
Q 24.078125 72.796875 32.328125 72.796875 
Q 45.796875 72.796875 52.609375 66.890625 
Q 59.421875 60.984375 59.765625 51.125 
L 45.3125 50.484375 
Q 44.390625 56 41.328125 58.421875 
Q 38.28125 60.84375 32.171875 60.84375 
Q 25.875 60.84375 22.3125 58.25 
Q 20.015625 56.59375 20.015625 53.8125 
Q 20.015625 51.265625 22.171875 49.46875 
Q 24.90625 47.171875 35.453125 44.671875 
Q 46 42.1875 51.046875 39.515625 
Q 56.109375 36.859375 58.953125 32.25 
Q 61.8125 27.640625 61.8125 20.84375 
Q 61.8125 14.703125 58.390625 9.328125 
Q 54.984375 3.953125 48.734375 1.34375 
Q 42.484375 -1.265625 33.15625 -1.265625 
Q 19.578125 -1.265625 12.296875 5 
Q 5.03125 11.28125 3.609375 23.296875 
z
" id="Arial-BoldMT-83"/>
     </defs>
     <g transform="translate(297.194687 493.51125)scale(0.2 -0.2)">
      <use xlink:href="#Arial-BoldMT-82"/>
      <use x="72.216797" xlink:href="#Arial-BoldMT-65"/>
      <use x="144.433594" xlink:href="#Arial-BoldMT-68"/>
      <use x="216.650391" xlink:href="#Arial-BoldMT-73"/>
      <use x="244.433594" xlink:href="#Arial-BoldMT-85"/>
      <use x="316.650391" xlink:href="#Arial-BoldMT-83"/>
     </g>
    </g>
   </g>
   <g id="matplotlib.axis_2">
    <g id="ytick_1">
     <g id="line2d_7">
      <defs>
       <path d="M 0 0 
L -3.5 0 
" id="md4b93ec0d9" style="stroke:#000000;stroke-width:0.8;"/>
      </defs>
      <g>
       <use style="stroke:#000000;stroke-width:0.8;" x="140.230625" xlink:href="#md4b93ec0d9" y="433.16125"/>
      </g>
     </g>
     <g id="text_8">
      <!-- 0 -->
      <g transform="translate(114.143125 444.558906)scale(0.3 -0.3)">
       <use xlink:href="#DejaVuSans-48"/>
      </g>
     </g>
    </g>
    <g id="ytick_2">
     <g id="line2d_8">
      <g>
       <use style="stroke:#000000;stroke-width:0.8;" x="140.230625" xlink:href="#md4b93ec0d9" y="365.62491"/>
      </g>
     </g>
     <g id="text_9">
      <!-- 500 -->
      <g transform="translate(75.968125 377.022566)scale(0.3 -0.3)">
       <use xlink:href="#DejaVuSans-53"/>
       <use x="63.623047" xlink:href="#DejaVuSans-48"/>
       <use x="127.246094" xlink:href="#DejaVuSans-48"/>
      </g>
     </g>
    </g>
    <g id="ytick_3">
     <g id="line2d_9">
      <g>
       <use style="stroke:#000000;stroke-width:0.8;" x="140.230625" xlink:href="#md4b93ec0d9" y="298.08857"/>
      </g>
     </g>
     <g id="text_10">
      <!-- 1000 -->
      <g transform="translate(56.880625 309.486226)scale(0.3 -0.3)">
       <use xlink:href="#DejaVuSans-49"/>
       <use x="63.623047" xlink:href="#DejaVuSans-48"/>
       <use x="127.246094" xlink:href="#DejaVuSans-48"/>
       <use x="190.869141" xlink:href="#DejaVuSans-48"/>
      </g>
     </g>
    </g>
    <g id="ytick_4">
     <g id="line2d_10">
      <g>
       <use style="stroke:#000000;stroke-width:0.8;" x="140.230625" xlink:href="#md4b93ec0d9" y="230.55223"/>
      </g>
     </g>
     <g id="text_11">
      <!-- 1500 -->
      <g transform="translate(56.880625 241.949886)scale(0.3 -0.3)">
       <use xlink:href="#DejaVuSans-49"/>
       <use x="63.623047" xlink:href="#DejaVuSans-53"/>
       <use x="127.246094" xlink:href="#DejaVuSans-48"/>
       <use x="190.869141" xlink:href="#DejaVuSans-48"/>
      </g>
     </g>
    </g>
    <g id="ytick_5">
     <g id="line2d_11">
      <g>
       <use style="stroke:#000000;stroke-width:0.8;" x="140.230625" xlink:href="#md4b93ec0d9" y="163.01589"/>
      </g>
     </g>
     <g id="text_12">
      <!-- 2000 -->
      <g transform="translate(56.880625 174.413547)scale(0.3 -0.3)">
       <use xlink:href="#DejaVuSans-50"/>
       <use x="63.623047" xlink:href="#DejaVuSans-48"/>
       <use x="127.246094" xlink:href="#DejaVuSans-48"/>
       <use x="190.869141" xlink:href="#DejaVuSans-48"/>
      </g>
     </g>
    </g>
    <g id="ytick_6">
     <g id="line2d_12">
      <g>
       <use style="stroke:#000000;stroke-width:0.8;" x="140.230625" xlink:href="#md4b93ec0d9" y="95.47955"/>
      </g>
     </g>
     <g id="text_13">
      <!-- 2500 -->
      <g transform="translate(56.880625 106.877207)scale(0.3 -0.3)">
       <use xlink:href="#DejaVuSans-50"/>
       <use x="63.623047" xlink:href="#DejaVuSans-53"/>
       <use x="127.246094" xlink:href="#DejaVuSans-48"/>
       <use x="190.869141" xlink:href="#DejaVuSans-48"/>
      </g>
     </g>
    </g>
    <g id="text_14">
     <!-- CD4 LIVE -->
     <defs>
      <path d="M 53.078125 26.3125 
L 67.09375 21.875 
Q 63.875 10.15625 56.375 4.46875 
Q 48.875 -1.21875 37.359375 -1.21875 
Q 23.09375 -1.21875 13.90625 8.515625 
Q 4.734375 18.265625 4.734375 35.15625 
Q 4.734375 53.03125 13.953125 62.90625 
Q 23.1875 72.796875 38.234375 72.796875 
Q 51.375 72.796875 59.578125 65.046875 
Q 64.453125 60.453125 66.890625 51.859375 
L 52.59375 48.4375 
Q 51.3125 54 47.28125 57.21875 
Q 43.265625 60.453125 37.5 60.453125 
Q 29.546875 60.453125 24.578125 54.734375 
Q 19.625 49.03125 19.625 36.234375 
Q 19.625 22.65625 24.5 16.890625 
Q 29.390625 11.140625 37.203125 11.140625 
Q 42.96875 11.140625 47.109375 14.796875 
Q 51.265625 18.453125 53.078125 26.3125 
z
" id="Arial-BoldMT-67"/>
      <path d="M 31.15625 0 
L 31.15625 14.40625 
L 1.859375 14.40625 
L 1.859375 26.421875 
L 32.90625 71.875 
L 44.4375 71.875 
L 44.4375 26.46875 
L 53.328125 26.46875 
L 53.328125 14.40625 
L 44.4375 14.40625 
L 44.4375 0 
z
M 31.15625 26.46875 
L 31.15625 50.921875 
L 14.703125 26.46875 
z
" id="Arial-BoldMT-52"/>
      <path id="Arial-BoldMT-32"/>
      <path d="M 7.671875 0 
L 7.671875 71 
L 22.125 71 
L 22.125 12.0625 
L 58.0625 12.0625 
L 58.0625 0 
z
" id="Arial-BoldMT-76"/>
      <path d="M 25.53125 0 
L -0.046875 71.578125 
L 15.625 71.578125 
L 33.734375 18.609375 
L 51.265625 71.578125 
L 66.609375 71.578125 
L 40.96875 0 
z
" id="Arial-BoldMT-86"/>
      <path d="M 7.28125 0 
L 7.28125 71.578125 
L 60.359375 71.578125 
L 60.359375 59.46875 
L 21.734375 59.46875 
L 21.734375 43.609375 
L 57.671875 43.609375 
L 57.671875 31.546875 
L 21.734375 31.546875 
L 21.734375 12.0625 
L 61.71875 12.0625 
L 61.71875 0 
z
" id="Arial-BoldMT-69"/>
     </defs>
     <g transform="translate(21.253125 287.910625)rotate(-90)scale(0.2 -0.2)">
      <use xlink:href="#Arial-BoldMT-67"/>
      <use x="72.216797" xlink:href="#Arial-BoldMT-68"/>
      <use x="144.433594" xlink:href="#Arial-BoldMT-52"/>
      <use x="200.048828" xlink:href="#Arial-BoldMT-32"/>
      <use x="227.832031" xlink:href="#Arial-BoldMT-76"/>
      <use x="288.916016" xlink:href="#Arial-BoldMT-73"/>
      <use x="316.699219" xlink:href="#Arial-BoldMT-86"/>
      <use x="383.398438" xlink:href="#Arial-BoldMT-69"/>
     </g>
     <!-- CELL COUNTS (NUMBERS) -->
     <defs>
      <path d="M 4.34375 35.359375 
Q 4.34375 46.296875 7.625 53.71875 
Q 10.0625 59.1875 14.28125 63.53125 
Q 18.5 67.875 23.53125 69.96875 
Q 30.21875 72.796875 38.96875 72.796875 
Q 54.78125 72.796875 64.28125 62.984375 
Q 73.78125 53.171875 73.78125 35.6875 
Q 73.78125 18.359375 64.359375 8.5625 
Q 54.9375 -1.21875 39.15625 -1.21875 
Q 23.1875 -1.21875 13.765625 8.515625 
Q 4.34375 18.265625 4.34375 35.359375 
z
M 19.234375 35.84375 
Q 19.234375 23.6875 24.84375 17.40625 
Q 30.46875 11.140625 39.109375 11.140625 
Q 47.75 11.140625 53.296875 17.359375 
Q 58.84375 23.578125 58.84375 36.03125 
Q 58.84375 48.34375 53.4375 54.390625 
Q 48.046875 60.453125 39.109375 60.453125 
Q 30.171875 60.453125 24.703125 54.3125 
Q 19.234375 48.1875 19.234375 35.84375 
z
" id="Arial-BoldMT-79"/>
      <path d="M 7.421875 0 
L 7.421875 71.578125 
L 21.484375 71.578125 
L 50.78125 23.78125 
L 50.78125 71.578125 
L 64.203125 71.578125 
L 64.203125 0 
L 49.703125 0 
L 20.84375 46.6875 
L 20.84375 0 
z
" id="Arial-BoldMT-78"/>
      <path d="M 23.390625 0 
L 23.390625 59.46875 
L 2.15625 59.46875 
L 2.15625 71.578125 
L 59.03125 71.578125 
L 59.03125 59.46875 
L 37.84375 59.46875 
L 37.84375 0 
z
" id="Arial-BoldMT-84"/>
      <path d="M 29.9375 -21.046875 
L 20.515625 -21.046875 
Q 13.03125 -9.765625 9.125 2.390625 
Q 5.21875 14.546875 5.21875 25.921875 
Q 5.21875 40.046875 10.0625 52.640625 
Q 14.265625 63.578125 20.703125 72.796875 
L 30.078125 72.796875 
Q 23.390625 58.015625 20.875 47.625 
Q 18.359375 37.25 18.359375 25.640625 
Q 18.359375 17.625 19.84375 9.21875 
Q 21.34375 0.828125 23.921875 -6.734375 
Q 25.640625 -11.71875 29.9375 -21.046875 
z
" id="Arial-BoldMT-40"/>
      <path d="M 7.078125 0 
L 7.078125 71.578125 
L 28.71875 71.578125 
L 41.703125 22.75 
L 54.546875 71.578125 
L 76.21875 71.578125 
L 76.21875 0 
L 62.796875 0 
L 62.796875 56.34375 
L 48.578125 0 
L 34.671875 0 
L 20.515625 56.34375 
L 20.515625 0 
z
" id="Arial-BoldMT-77"/>
      <path d="M 7.328125 71.578125 
L 35.9375 71.578125 
Q 44.4375 71.578125 48.609375 70.875 
Q 52.78125 70.171875 56.078125 67.921875 
Q 59.375 65.671875 61.5625 61.9375 
Q 63.765625 58.203125 63.765625 53.5625 
Q 63.765625 48.53125 61.046875 44.328125 
Q 58.34375 40.140625 53.71875 38.03125 
Q 60.25 36.140625 63.765625 31.546875 
Q 67.28125 26.953125 67.28125 20.75 
Q 67.28125 15.875 65.015625 11.25 
Q 62.75 6.640625 58.8125 3.875 
Q 54.890625 1.125 49.125 0.484375 
Q 45.515625 0.09375 31.6875 0 
L 7.328125 0 
z
M 21.78125 59.671875 
L 21.78125 43.109375 
L 31.25 43.109375 
Q 39.703125 43.109375 41.75 43.359375 
Q 45.453125 43.796875 47.578125 45.921875 
Q 49.703125 48.046875 49.703125 51.515625 
Q 49.703125 54.828125 47.875 56.90625 
Q 46.046875 58.984375 42.4375 59.421875 
Q 40.28125 59.671875 30.078125 59.671875 
z
M 21.78125 31.203125 
L 21.78125 12.0625 
L 35.15625 12.0625 
Q 42.96875 12.0625 45.0625 12.5 
Q 48.296875 13.09375 50.3125 15.359375 
Q 52.34375 17.625 52.34375 21.4375 
Q 52.34375 24.65625 50.78125 26.90625 
Q 49.21875 29.15625 46.265625 30.171875 
Q 43.3125 31.203125 33.453125 31.203125 
z
" id="Arial-BoldMT-66"/>
      <path d="M 3.375 -21.046875 
Q 7.421875 -12.359375 9.078125 -7.71875 
Q 10.75 -3.078125 12.15625 2.96875 
Q 13.578125 9.03125 14.25 14.46875 
Q 14.9375 19.921875 14.9375 25.640625 
Q 14.9375 37.25 12.453125 47.625 
Q 9.96875 58.015625 3.265625 72.796875 
L 12.59375 72.796875 
Q 19.96875 62.3125 24.046875 50.53125 
Q 28.125 38.765625 28.125 26.65625 
Q 28.125 16.453125 24.90625 4.78125 
Q 21.234375 -8.296875 12.84375 -21.046875 
z
" id="Arial-BoldMT-41"/>
     </defs>
     <g transform="translate(42.67125 374.002812)rotate(-90)scale(0.2 -0.2)">
      <use xlink:href="#Arial-BoldMT-67"/>
      <use x="72.216797" xlink:href="#Arial-BoldMT-69"/>
      <use x="138.916016" xlink:href="#Arial-BoldMT-76"/>
      <use x="200" xlink:href="#Arial-BoldMT-76"/>
      <use x="261.068359" xlink:href="#Arial-BoldMT-32"/>
      <use x="288.851562" xlink:href="#Arial-BoldMT-67"/>
      <use x="361.068359" xlink:href="#Arial-BoldMT-79"/>
      <use x="438.851562" xlink:href="#Arial-BoldMT-85"/>
      <use x="511.068359" xlink:href="#Arial-BoldMT-78"/>
      <use x="583.285156" xlink:href="#Arial-BoldMT-84"/>
      <use x="644.369141" xlink:href="#Arial-BoldMT-83"/>
      <use x="711.068359" xlink:href="#Arial-BoldMT-32"/>
      <use x="738.851562" xlink:href="#Arial-BoldMT-40"/>
      <use x="772.152344" xlink:href="#Arial-BoldMT-78"/>
      <use x="844.369141" xlink:href="#Arial-BoldMT-85"/>
      <use x="916.585938" xlink:href="#Arial-BoldMT-77"/>
      <use x="999.886719" xlink:href="#Arial-BoldMT-66"/>
      <use x="1072.103516" xlink:href="#Arial-BoldMT-69"/>
      <use x="1138.802734" xlink:href="#Arial-BoldMT-82"/>
      <use x="1211.019531" xlink:href="#Arial-BoldMT-83"/>
      <use x="1277.71875" xlink:href="#Arial-BoldMT-41"/>
     </g>
    </g>
   </g>
   <g id="line2d_13">
    <path clip-path="url(#pbd61526744)" d="M 140.230625 431.810523 
L 152.066989 425.732253 
L 163.903352 419.789055 
L 175.739716 416.412238 
L 187.57608 415.466729 
L 199.412443 408.037732 
L 211.248807 392.639446 
L 223.08517 369.406945 
L 234.921534 349.551261 
L 246.757898 345.228935 
L 258.594261 334.017903 
L 270.430625 339.015592 
L 282.266989 339.285738 
L 294.103352 343.067773 
L 305.939716 349.956479 
L 317.77608 344.013281 
L 329.612443 336.854429 
L 341.448807 318.75469 
L 353.28517 307.408585 
L 365.121534 299.844515 
L 376.957898 294.711753 
L 388.794261 278.773177 
L 400.630625 259.322711 
L 412.466989 237.711082 
L 424.303352 221.367288 
L 436.139716 206.239148 
L 447.97608 187.1939 
L 459.812443 161.665164 
L 471.648807 156.802547 
L 483.48517 157.072692 
L 495.321534 127.626848 
L 507.157898 143.565424 
L 518.994261 143.700497 
L 530.830625 138.837881 
" style="fill:none;stroke:#08306b;stroke-linecap:square;stroke-width:1.5;"/>
   </g>
   <g id="line2d_14">
    <path clip-path="url(#pbd61526744)" d="M 140.230625 432.350814 
L 152.066989 426.947907 
L 163.903352 426.137471 
L 175.739716 413.440639 
L 187.57608 398.312499 
L 199.412443 376.565797 
L 211.248807 366.300273 
L 223.08517 367.651 
L 234.921534 358.736203 
L 246.757898 357.655622 
L 258.594261 355.899677 
L 270.430625 354.684023 
L 282.266989 357.250404 
L 294.103352 362.11302 
L 305.939716 335.503702 
L 317.77608 319.430054 
L 329.612443 300.249733 
L 341.448807 294.441608 
L 353.28517 280.664194 
L 365.121534 273.235197 
L 376.957898 261.618947 
L 388.794261 253.24444 
L 400.630625 251.758641 
L 412.466989 243.519208 
L 424.303352 230.417158 
L 436.139716 211.101764 
L 447.97608 195.568406 
L 459.812443 194.622897 
L 471.648807 176.928376 
L 483.48517 181.520847 
L 495.321534 181.926066 
L 507.157898 175.037359 
L 518.994261 152.480221 
L 530.830625 142.754988 
" style="fill:none;stroke:#08306b;stroke-linecap:square;stroke-width:1.5;"/>
   </g>
   <g id="line2d_15">
    <path clip-path="url(#pbd61526744)" d="M 140.230625 431.13516 
L 152.066989 419.518909 
L 163.903352 410.46904 
L 175.739716 404.660915 
L 187.57608 401.824388 
L 199.412443 401.824388 
L 211.248807 398.177426 
L 223.08517 398.987862 
L 234.921534 384.940303 
L 246.757898 365.895055 
L 258.594261 347.390098 
L 270.430625 335.503702 
L 282.266989 319.430054 
L 294.103352 307.273512 
L 305.939716 296.872916 
L 317.77608 304.301913 
L 329.612443 298.899006 
L 341.448807 302.005678 
L 353.28517 280.93434 
L 365.121534 260.538365 
L 376.957898 250.948205 
L 388.794261 239.196882 
L 400.630625 240.277463 
L 412.466989 214.343509 
L 424.303352 212.722637 
L 436.139716 226.635123 
L 447.97608 231.362666 
L 459.812443 239.467027 
L 471.648807 216.504672 
L 483.48517 200.29595 
L 495.321534 162.4756 
L 507.157898 153.830948 
L 518.994261 140.053535 
L 530.830625 135.325991 
" style="fill:none;stroke:#08306b;stroke-linecap:square;stroke-width:1.5;"/>
   </g>
   <g id="line2d_16">
    <path clip-path="url(#pbd61526744)" d="M 140.230625 432.350814 
L 152.066989 426.812834 
L 163.903352 419.248764 
L 175.739716 413.980929 
L 187.57608 407.902659 
L 199.412443 399.39308 
L 211.248807 393.720027 
L 223.08517 389.937992 
L 234.921534 375.755361 
L 246.757898 366.300273 
L 258.594261 351.847497 
L 270.430625 336.584284 
L 282.266989 331.451522 
L 294.103352 323.887452 
L 305.939716 314.567437 
L 317.77608 317.403963 
L 329.612443 316.323382 
L 341.448807 303.896695 
L 353.28517 295.387117 
L 365.121534 307.408585 
L 376.957898 282.555212 
L 388.794261 268.237508 
L 400.630625 244.599789 
L 412.466989 231.227594 
L 424.303352 239.467027 
L 436.139716 220.96207 
L 447.97608 207.184657 
L 459.812443 207.724947 
L 471.648807 198.945223 
L 483.48517 168.148652 
L 495.321534 189.490136 
L 507.157898 176.793304 
L 518.994261 135.325991 
L 530.830625 108.04131 
" style="fill:none;stroke:#08306b;stroke-linecap:square;stroke-width:1.5;"/>
   </g>
   <g id="line2d_17">
    <path clip-path="url(#pbd61526744)" d="M 140.230625 431.270232 
L 152.066989 427.082979 
L 163.903352 417.627892 
L 175.739716 410.333967 
L 187.57608 404.93106 
L 199.412443 399.798298 
L 211.248807 390.748429 
L 223.08517 371.297963 
L 234.921534 350.091552 
L 246.757898 331.316449 
L 258.594261 325.643397 
L 270.430625 334.152976 
L 282.266989 333.072394 
L 294.103352 329.290359 
L 305.939716 336.584284 
L 317.77608 339.690956 
L 329.612443 332.532104 
L 341.448807 326.183688 
L 353.28517 302.275823 
L 365.121534 286.742465 
L 376.957898 257.296621 
L 388.794261 207.589875 
L 400.630625 191.381153 
L 412.466989 192.056516 
L 424.303352 213.938291 
L 436.139716 218.395689 
L 447.97608 222.447869 
L 459.812443 237.305864 
L 471.648807 220.016561 
L 483.48517 208.265238 
L 495.321534 155.586893 
L 507.157898 138.702808 
L 518.994261 111.147981 
L 530.830625 111.012909 
" style="fill:none;stroke:#08306b;stroke-linecap:square;stroke-width:1.5;"/>
   </g>
   <g id="line2d_18">
    <path clip-path="url(#pbd61526744)" d="M 140.230625 432.756032 
L 152.066989 430.865014 
L 163.903352 427.488197 
L 175.739716 420.0592 
L 187.57608 411.684694 
L 199.412443 390.208138 
L 211.248807 373.864344 
L 223.08517 356.439968 
L 234.921534 355.764604 
L 246.757898 357.655622 
L 258.594261 363.733893 
L 270.430625 362.653311 
L 282.266989 356.710113 
L 294.103352 337.529793 
L 305.939716 331.586595 
L 317.77608 324.697888 
L 329.612443 319.159908 
L 341.448807 312.001056 
L 353.28517 309.16453 
L 365.121534 277.827668 
L 376.957898 249.057187 
L 388.794261 242.573699 
L 400.630625 220.691925 
L 412.466989 211.642055 
L 424.303352 191.516226 
L 436.139716 178.549249 
L 447.97608 189.625208 
L 459.812443 156.397329 
L 471.648807 152.075003 
L 483.48517 176.928376 
L 495.321534 195.298261 
L 507.157898 227.040341 
L 518.994261 219.746416 
L 530.830625 194.352752 
" style="fill:none;stroke:#08306b;stroke-linecap:square;stroke-width:1.5;"/>
   </g>
   <g id="line2d_19">
    <path clip-path="url(#pbd61526744)" d="M 140.230625 432.756032 
L 152.066989 431.000087 
L 163.903352 427.353125 
L 175.739716 421.139781 
L 187.57608 406.281787 
L 199.412443 388.992484 
L 211.248807 376.971015 
L 223.08517 366.435346 
L 234.921534 362.383166 
L 246.757898 345.634153 
L 258.594261 342.9327 
L 270.430625 332.261958 
L 282.266989 307.67873 
L 294.103352 306.328004 
L 305.939716 304.842204 
L 317.77608 325.103106 
L 329.612443 324.022525 
L 341.448807 332.532104 
L 353.28517 323.077016 
L 365.121534 301.60046 
L 376.957898 299.034079 
L 388.794261 273.37027 
L 400.630625 261.483874 
L 412.466989 241.222972 
L 424.303352 221.232215 
L 436.139716 202.862331 
L 447.97608 201.106386 
L 459.812443 199.755659 
L 471.648807 175.442577 
L 483.48517 141.269189 
L 495.321534 158.693565 
L 507.157898 157.342838 
L 518.994261 153.560803 
L 530.830625 171.120251 
" style="fill:none;stroke:#08306b;stroke-linecap:square;stroke-width:1.5;"/>
   </g>
   <g id="line2d_20">
    <path clip-path="url(#pbd61526744)" d="M 140.230625 432.215741 
L 152.066989 427.353125 
L 163.903352 419.248764 
L 175.739716 415.736874 
L 187.57608 412.49513 
L 199.412443 414.116002 
L 211.248807 421.274854 
L 223.08517 412.224985 
L 234.921534 390.613356 
L 246.757898 365.489837 
L 258.594261 345.769226 
L 270.430625 343.202845 
L 282.266989 321.185998 
L 294.103352 316.053237 
L 305.939716 305.922786 
L 317.77608 298.899006 
L 329.612443 279.853758 
L 341.448807 275.126215 
L 353.28517 286.607392 
L 365.121534 278.90825 
L 376.957898 275.666505 
L 388.794261 248.787042 
L 400.630625 227.850777 
L 412.466989 222.042651 
L 424.303352 223.933669 
L 436.139716 234.739483 
L 447.97608 229.741794 
L 459.812443 194.352752 
L 471.648807 156.802547 
L 483.48517 124.655249 
L 495.321534 119.65756 
L 507.157898 149.508622 
L 518.994261 154.101093 
L 530.830625 163.556181 
" style="fill:none;stroke:#08306b;stroke-linecap:square;stroke-width:1.5;"/>
   </g>
   <g id="line2d_21">
    <path clip-path="url(#pbd61526744)" d="M 140.230625 431.675451 
L 152.066989 421.680072 
L 163.903352 406.416859 
L 175.739716 398.987862 
L 187.57608 393.449882 
L 199.412443 386.020885 
L 211.248807 374.539707 
L 223.08517 362.788384 
L 234.921534 361.032439 
L 246.757898 357.520549 
L 258.594261 341.987191 
L 270.430625 331.046304 
L 282.266989 315.783091 
L 294.103352 311.19062 
L 305.939716 298.493788 
L 317.77608 306.328004 
L 329.612443 286.067102 
L 341.448807 281.744776 
L 353.28517 262.834601 
L 365.121534 244.734862 
L 376.957898 241.358045 
L 388.794261 254.054877 
L 400.630625 271.074034 
L 412.466989 248.787042 
L 424.303352 213.803218 
L 436.139716 219.47627 
L 447.97608 238.386446 
L 459.812443 230.147012 
L 471.648807 203.672767 
L 483.48517 196.108697 
L 495.321534 193.542316 
L 507.157898 180.575339 
L 518.994261 165.987489 
L 530.830625 175.982868 
" style="fill:none;stroke:#08306b;stroke-linecap:square;stroke-width:1.5;"/>
   </g>
   <g id="line2d_22">
    <path clip-path="url(#pbd61526744)" d="M 140.230625 430.729942 
L 152.066989 421.004709 
L 163.903352 411.549621 
L 175.739716 393.179737 
L 187.57608 378.997105 
L 199.412443 381.428414 
L 211.248807 387.641757 
L 223.08517 380.75305 
L 234.921534 367.11071 
L 246.757898 359.006349 
L 258.594261 358.466058 
L 270.430625 357.925767 
L 282.266989 336.719357 
L 294.103352 330.370941 
L 305.939716 307.67873 
L 317.77608 302.140751 
L 329.612443 281.609703 
L 341.448807 276.476941 
L 353.28517 296.737843 
L 365.121534 304.166841 
L 376.957898 313.621928 
L 388.794261 299.304224 
L 400.630625 286.742465 
L 412.466989 259.322711 
L 424.303352 224.068742 
L 436.139716 188.139409 
L 447.97608 158.423419 
L 459.812443 141.269189 
L 471.648807 181.790993 
L 483.48517 193.947534 
L 495.321534 195.568406 
L 507.157898 165.312126 
L 518.994261 136.676718 
L 530.830625 91.292297 
" style="fill:none;stroke:#08306b;stroke-linecap:square;stroke-width:1.5;"/>
   </g>
   <g id="line2d_23">
    <path clip-path="url(#pbd61526744)" d="M 140.230625 431.675451 
L 152.066989 424.651671 
L 163.903352 421.545 
L 175.739716 419.518909 
L 187.57608 409.523531 
L 199.412443 404.255697 
L 211.248807 397.36699 
L 223.08517 382.77914 
L 234.921534 380.482905 
L 246.757898 378.591887 
L 258.594261 371.433035 
L 270.430625 360.897366 
L 282.266989 353.603442 
L 294.103352 345.769226 
L 305.939716 347.525171 
L 317.77608 322.536725 
L 329.612443 314.297292 
L 341.448807 296.872916 
L 353.28517 285.256666 
L 365.121534 273.640415 
L 376.957898 282.690285 
L 388.794261 267.021854 
L 400.630625 262.429383 
L 412.466989 260.26822 
L 424.303352 242.978917 
L 436.139716 261.483874 
L 447.97608 246.220661 
L 459.812443 227.310486 
L 471.648807 209.210747 
L 483.48517 207.86002 
L 495.321534 198.81015 
L 507.157898 179.224612 
L 518.994261 167.338216 
L 530.830625 191.111008 
" style="fill:none;stroke:#4a98c9;stroke-linecap:square;stroke-width:1.5;"/>
   </g>
   <g id="line2d_24">
    <path clip-path="url(#pbd61526744)" d="M 140.230625 431.945596 
L 152.066989 425.732253 
L 163.903352 419.518909 
L 175.739716 410.198894 
L 187.57608 404.795987 
L 199.412443 401.824388 
L 211.248807 392.099155 
L 223.08517 376.430724 
L 234.921534 366.570419 
L 246.757898 356.980259 
L 258.594261 346.849808 
L 270.430625 344.823717 
L 282.266989 354.54895 
L 294.103352 370.487527 
L 305.939716 366.975637 
L 317.77608 342.662555 
L 329.612443 339.150665 
L 341.448807 302.275823 
L 353.28517 300.925096 
L 365.121534 289.984209 
L 376.957898 278.097814 
L 388.794261 269.453162 
L 400.630625 271.88447 
L 412.466989 270.668816 
L 424.303352 268.642726 
L 436.139716 252.298932 
L 447.97608 243.789353 
L 459.812443 219.47627 
L 471.648807 212.587564 
L 483.48517 221.097143 
L 495.321534 199.620587 
L 507.157898 183.68201 
L 518.994261 131.138738 
L 530.830625 155.721966 
" style="fill:none;stroke:#4a98c9;stroke-linecap:square;stroke-width:1.5;"/>
   </g>
   <g id="line2d_25">
    <path clip-path="url(#pbd61526744)" d="M 140.230625 433.16125 
L 152.066989 427.758343 
L 163.903352 422.220363 
L 175.739716 407.227295 
L 187.57608 409.928749 
L 199.412443 409.118313 
L 211.248807 403.44526 
L 223.08517 388.046975 
L 234.921534 382.644068 
L 246.757898 373.053907 
L 258.594261 357.790695 
L 270.430625 351.307206 
L 282.266989 332.126885 
L 294.103352 333.207467 
L 305.939716 316.593527 
L 317.77608 309.569748 
L 329.612443 296.197553 
L 341.448807 302.275823 
L 353.28517 283.500721 
L 365.121534 275.531433 
L 376.957898 282.420139 
L 388.794261 285.661884 
L 400.630625 287.147683 
L 412.466989 254.73024 
L 424.303352 257.971984 
L 436.139716 250.948205 
L 447.97608 261.754019 
L 459.812443 260.403292 
L 471.648807 229.066431 
L 483.48517 225.959759 
L 495.321534 213.262927 
L 507.157898 184.222301 
L 518.994261 175.847795 
L 530.830625 198.540005 
" style="fill:none;stroke:#4a98c9;stroke-linecap:square;stroke-width:1.5;"/>
   </g>
   <g id="line2d_26">
    <path clip-path="url(#pbd61526744)" d="M 140.230625 431.540378 
L 152.066989 427.353125 
L 163.903352 415.331656 
L 175.739716 407.902659 
L 187.57608 411.549621 
L 199.412443 407.767586 
L 211.248807 402.769897 
L 223.08517 396.421481 
L 234.921534 385.210449 
L 246.757898 374.404634 
L 258.594261 371.568108 
L 270.430625 367.515928 
L 282.266989 353.738514 
L 294.103352 338.205156 
L 305.939716 327.264269 
L 317.77608 320.78078 
L 329.612443 314.70251 
L 341.448807 311.055547 
L 353.28517 307.813803 
L 365.121534 324.832961 
L 376.957898 315.512946 
L 388.794261 314.162219 
L 400.630625 315.107728 
L 412.466989 296.602771 
L 424.303352 289.308846 
L 436.139716 284.581302 
L 447.97608 253.919804 
L 459.812443 232.57832 
L 471.648807 216.369599 
L 483.48517 202.592186 
L 495.321534 177.063449 
L 507.157898 184.627519 
L 518.994261 164.636762 
L 530.830625 181.926066 
" style="fill:none;stroke:#4a98c9;stroke-linecap:square;stroke-width:1.5;"/>
   </g>
   <g id="line2d_27">
    <path clip-path="url(#pbd61526744)" d="M 140.230625 432.756032 
L 152.066989 428.973997 
L 163.903352 418.168183 
L 175.739716 410.198894 
L 187.57608 408.037732 
L 199.412443 403.715406 
L 211.248807 383.994795 
L 223.08517 381.698559 
L 234.921534 368.866654 
L 246.757898 367.11071 
L 258.594261 348.740825 
L 270.430625 336.719357 
L 282.266989 341.176755 
L 294.103352 322.131507 
L 305.939716 334.152976 
L 317.77608 337.664865 
L 329.612443 334.693266 
L 341.448807 325.508324 
L 353.28517 307.813803 
L 365.121534 294.306535 
L 376.957898 252.839222 
L 388.794261 237.035719 
L 400.630625 231.227594 
L 412.466989 219.881489 
L 424.303352 231.767884 
L 436.139716 230.55223 
L 447.97608 232.173102 
L 459.812443 259.052566 
L 471.648807 228.120922 
L 483.48517 215.153945 
L 495.321534 194.487825 
L 507.157898 189.895354 
L 518.994261 162.340527 
L 530.830625 172.876196 
" style="fill:none;stroke:#4a98c9;stroke-linecap:square;stroke-width:1.5;"/>
   </g>
   <g id="line2d_28">
    <path clip-path="url(#pbd61526744)" d="M 140.230625 431.810523 
L 152.066989 426.947907 
L 163.903352 423.300944 
L 175.739716 414.386148 
L 187.57608 402.634824 
L 199.412443 399.258007 
L 211.248807 399.528153 
L 223.08517 384.400013 
L 234.921534 382.373922 
L 246.757898 370.082309 
L 258.594261 361.977948 
L 270.430625 359.816785 
L 282.266989 365.895055 
L 294.103352 350.901988 
L 305.939716 356.03475 
L 317.77608 347.119953 
L 329.612443 340.231246 
L 341.448807 331.85674 
L 353.28517 325.643397 
L 365.121534 315.107728 
L 376.957898 309.974966 
L 388.794261 303.356405 
L 400.630625 279.583613 
L 412.466989 256.891403 
L 424.303352 218.93598 
L 436.139716 214.343509 
L 447.97608 208.940601 
L 459.812443 198.945223 
L 471.648807 178.954467 
L 483.48517 172.06576 
L 495.321534 172.06576 
L 507.157898 207.995093 
L 518.994261 217.180035 
L 530.830625 230.147012 
" style="fill:none;stroke:#4a98c9;stroke-linecap:square;stroke-width:1.5;"/>
   </g>
   <g id="line2d_29">
    <path clip-path="url(#pbd61526744)" d="M 140.230625 433.16125 
L 152.066989 431.675451 
L 163.903352 428.163561 
L 175.739716 421.815145 
L 187.57608 411.549621 
L 199.412443 399.663225 
L 211.248807 389.262629 
L 223.08517 384.940303 
L 234.921534 384.129867 
L 246.757898 362.923456 
L 258.594261 354.278805 
L 270.430625 339.42081 
L 282.266989 337.529793 
L 294.103352 329.560505 
L 305.939716 322.806871 
L 317.77608 335.908921 
L 329.612443 331.316449 
L 341.448807 318.484545 
L 353.28517 297.818425 
L 365.121534 297.953497 
L 376.957898 309.299603 
L 388.794261 290.794645 
L 400.630625 274.720997 
L 412.466989 255.135458 
L 424.303352 254.73024 
L 436.139716 254.460095 
L 447.97608 251.623568 
L 459.812443 259.322711 
L 471.648807 235.549919 
L 483.48517 219.071052 
L 495.321534 210.426401 
L 507.157898 227.040341 
L 518.994261 207.049584 
L 530.830625 226.229904 
" style="fill:none;stroke:#4a98c9;stroke-linecap:square;stroke-width:1.5;"/>
   </g>
   <g id="line2d_30">
    <path clip-path="url(#pbd61526744)" d="M 140.230625 431.810523 
L 152.066989 428.433706 
L 163.903352 425.056889 
L 175.739716 420.869636 
L 187.57608 417.357746 
L 199.412443 420.734563 
L 211.248807 411.009331 
L 223.08517 401.824388 
L 234.921534 386.831321 
L 246.757898 381.428414 
L 258.594261 382.914213 
L 270.430625 379.672469 
L 282.266989 365.489837 
L 294.103352 349.416189 
L 305.939716 340.501392 
L 317.77608 316.7286 
L 329.612443 309.029457 
L 341.448807 313.621928 
L 353.28517 327.264269 
L 365.121534 323.887452 
L 376.957898 309.029457 
L 388.794261 292.55059 
L 400.630625 274.720997 
L 412.466989 252.70415 
L 424.303352 237.846155 
L 436.139716 242.438626 
L 447.97608 214.748727 
L 459.812443 201.106386 
L 471.648807 181.926066 
L 483.48517 178.414176 
L 495.321534 198.945223 
L 507.157898 188.409554 
L 518.994261 205.969003 
L 530.830625 247.031097 
" style="fill:none;stroke:#4a98c9;stroke-linecap:square;stroke-width:1.5;"/>
   </g>
   <g id="line2d_31">
    <path clip-path="url(#pbd61526744)" d="M 140.230625 432.215741 
L 152.066989 423.841235 
L 163.903352 413.440639 
L 175.739716 409.388458 
L 187.57608 399.663225 
L 199.412443 391.423792 
L 211.248807 385.885812 
L 223.08517 381.158268 
L 234.921534 377.376233 
L 246.757898 378.186669 
L 258.594261 372.378544 
L 270.430625 354.143732 
L 282.266989 343.878209 
L 294.103352 340.501392 
L 305.939716 331.046304 
L 317.77608 317.944254 
L 329.612443 292.415518 
L 341.448807 281.339558 
L 353.28517 276.071723 
L 365.121534 279.988831 
L 376.957898 289.173773 
L 388.794261 290.254355 
L 400.630625 301.60046 
L 412.466989 309.974966 
L 424.303352 283.905939 
L 436.139716 272.694906 
L 447.97608 264.590546 
L 459.812443 249.462405 
L 471.648807 244.734862 
L 483.48517 235.955137 
L 495.321534 216.504672 
L 507.157898 202.051895 
L 518.994261 196.378842 
L 530.830625 202.186967 
" style="fill:none;stroke:#4a98c9;stroke-linecap:square;stroke-width:1.5;"/>
   </g>
   <g id="line2d_32">
    <path clip-path="url(#pbd61526744)" d="M 140.230625 431.540378 
L 152.066989 428.163561 
L 163.903352 416.277165 
L 175.739716 408.713095 
L 187.57608 399.39308 
L 199.412443 392.639446 
L 211.248807 392.909591 
L 223.08517 379.537396 
L 234.921534 375.485216 
L 246.757898 373.729271 
L 258.594261 372.108399 
L 270.430625 361.167512 
L 282.266989 363.193602 
L 294.103352 356.03475 
L 305.939716 354.954168 
L 317.77608 343.067773 
L 329.612443 320.24049 
L 341.448807 314.70251 
L 353.28517 311.730911 
L 365.121534 309.434675 
L 376.957898 297.818425 
L 388.794261 291.334936 
L 400.630625 278.773177 
L 412.466989 261.754019 
L 424.303352 243.384135 
L 436.139716 247.301243 
L 447.97608 234.469338 
L 459.812443 216.774817 
L 471.648807 217.990471 
L 483.48517 208.940601 
L 495.321534 188.409554 
L 507.157898 183.817083 
L 518.994261 184.627519 
L 530.830625 204.077985 
" style="fill:none;stroke:#4a98c9;stroke-linecap:square;stroke-width:1.5;"/>
   </g>
   <g id="line2d_33">
    <path clip-path="url(#pbd61526744)" d="M 140.230625 432.485887 
L 152.066989 431.405305 
L 163.903352 428.028488 
L 175.739716 427.62327 
L 187.57608 425.462107 
L 199.412443 422.760654 
L 211.248807 421.680072 
L 223.08517 413.980929 
L 234.921534 409.928749 
L 246.757898 408.713095 
L 258.594261 404.255697 
L 270.430625 408.037732 
L 282.266989 398.852789 
L 294.103352 401.554243 
L 305.939716 403.715406 
L 317.77608 393.179737 
L 329.612443 391.558865 
L 341.448807 386.561175 
L 353.28517 380.617978 
L 365.121534 368.596509 
L 376.957898 374.809852 
L 388.794261 366.840564 
L 400.630625 356.169822 
L 412.466989 355.764604 
L 424.303352 347.525171 
L 436.139716 358.06084 
L 447.97608 358.736203 
L 459.812443 340.90661 
L 471.648807 326.183688 
L 483.48517 315.107728 
L 495.321534 296.467698 
L 507.157898 274.045633 
L 518.994261 259.863002 
L 530.830625 268.777799 
" style="fill:none;stroke:#d0e1f2;stroke-linecap:square;stroke-width:1.5;"/>
   </g>
   <g id="line2d_34">
    <path clip-path="url(#pbd61526744)" d="M 140.230625 433.16125 
L 152.066989 432.080669 
L 163.903352 427.218052 
L 175.739716 426.812834 
L 187.57608 421.139781 
L 199.412443 411.009331 
L 211.248807 414.251075 
L 223.08517 404.795987 
L 234.921534 407.362368 
L 246.757898 406.011641 
L 258.594261 407.902659 
L 270.430625 408.44295 
L 282.266989 399.528153 
L 294.103352 404.795987 
L 305.939716 400.743807 
L 317.77608 398.312499 
L 329.612443 393.449882 
L 341.448807 387.641757 
L 353.28517 382.914213 
L 365.121534 370.757672 
L 376.957898 375.350143 
L 388.794261 371.838253 
L 400.630625 369.812163 
L 412.466989 377.106088 
L 424.303352 365.759983 
L 436.139716 350.226625 
L 447.97608 352.252715 
L 459.812443 347.255026 
L 471.648807 341.041682 
L 483.48517 339.285738 
L 495.321534 316.863673 
L 507.157898 309.16453 
L 518.994261 274.991142 
L 530.830625 293.631172 
" style="fill:none;stroke:#d0e1f2;stroke-linecap:square;stroke-width:1.5;"/>
   </g>
   <g id="line2d_35">
    <path clip-path="url(#pbd61526744)" d="M 140.230625 433.16125 
L 152.066989 432.756032 
L 163.903352 428.838924 
L 175.739716 426.677761 
L 187.57608 422.355436 
L 199.412443 424.246453 
L 211.248807 419.924127 
L 223.08517 411.819767 
L 234.921534 411.279476 
L 246.757898 410.063822 
L 258.594261 402.499752 
L 270.430625 399.258007 
L 282.266989 390.883501 
L 294.103352 390.613356 
L 305.939716 382.644068 
L 317.77608 379.672469 
L 329.612443 384.535085 
L 341.448807 378.591887 
L 353.28517 373.864344 
L 365.121534 369.67709 
L 376.957898 371.568108 
L 388.794261 377.781451 
L 400.630625 363.193602 
L 412.466989 362.788384 
L 424.303352 350.091552 
L 436.139716 353.468369 
L 447.97608 348.47068 
L 459.812443 349.416189 
L 471.648807 344.823717 
L 483.48517 332.126885 
L 495.321534 324.562815 
L 507.157898 296.737843 
L 518.994261 280.258976 
L 530.830625 296.06248 
" style="fill:none;stroke:#d0e1f2;stroke-linecap:square;stroke-width:1.5;"/>
   </g>
   <g id="line2d_36">
    <path clip-path="url(#pbd61526744)" d="M 140.230625 433.026177 
L 152.066989 430.729942 
L 163.903352 429.10907 
L 175.739716 427.082979 
L 187.57608 422.08529 
L 199.412443 418.573401 
L 211.248807 414.926438 
L 223.08517 417.087601 
L 234.921534 411.684694 
L 246.757898 409.523531 
L 258.594261 401.959461 
L 270.430625 402.769897 
L 282.266989 400.473661 
L 294.103352 400.068443 
L 305.939716 394.260318 
L 317.77608 392.504373 
L 329.612443 389.532774 
L 341.448807 381.698559 
L 353.28517 381.023196 
L 365.121534 389.80292 
L 376.957898 380.482905 
L 388.794261 378.591887 
L 400.630625 384.535085 
L 412.466989 374.404634 
L 424.303352 360.492148 
L 436.139716 363.733893 
L 447.97608 358.195913 
L 459.812443 346.714735 
L 471.648807 337.664865 
L 483.48517 321.591216 
L 495.321534 302.140751 
L 507.157898 288.768555 
L 518.994261 257.431694 
L 530.830625 288.633483 
" style="fill:none;stroke:#d0e1f2;stroke-linecap:square;stroke-width:1.5;"/>
   </g>
   <g id="line2d_37">
    <path clip-path="url(#pbd61526744)" d="M 140.230625 432.215741 
L 152.066989 431.405305 
L 163.903352 426.407616 
L 175.739716 424.381526 
L 187.57608 423.976308 
L 199.412443 418.978619 
L 211.248807 419.789055 
L 223.08517 411.414549 
L 234.921534 407.227295 
L 246.757898 407.227295 
L 258.594261 395.070754 
L 270.430625 394.260318 
L 282.266989 394.800609 
L 294.103352 384.805231 
L 305.939716 392.099155 
L 317.77608 388.587266 
L 329.612443 392.099155 
L 341.448807 387.236539 
L 353.28517 383.454504 
L 365.121534 376.025506 
L 376.957898 364.274183 
L 388.794261 364.139111 
L 400.630625 353.333296 
L 412.466989 351.577351 
L 424.303352 351.712424 
L 436.139716 356.304895 
L 447.97608 349.551261 
L 459.812443 351.982569 
L 471.648807 348.200534 
L 483.48517 342.662555 
L 495.321534 329.425432 
L 507.157898 319.024836 
L 518.994261 290.389427 
L 530.830625 288.903628 
" style="fill:none;stroke:#d0e1f2;stroke-linecap:square;stroke-width:1.5;"/>
   </g>
   <g id="line2d_38">
    <path clip-path="url(#pbd61526744)" d="M 140.230625 432.756032 
L 152.066989 431.810523 
L 163.903352 428.028488 
L 175.739716 423.841235 
L 187.57608 425.191962 
L 199.412443 420.329345 
L 211.248807 420.599491 
L 223.08517 414.656293 
L 234.921534 408.848168 
L 246.757898 412.49513 
L 258.594261 410.198894 
L 270.430625 405.471351 
L 282.266989 395.611045 
L 294.103352 392.099155 
L 305.939716 394.935682 
L 317.77608 396.826699 
L 329.612443 393.720027 
L 341.448807 389.127556 
L 353.28517 383.319431 
L 365.121534 380.077687 
L 376.957898 371.297963 
L 388.794261 371.16289 
L 400.630625 361.437657 
L 412.466989 358.601131 
L 424.303352 344.013281 
L 436.139716 351.037061 
L 447.97608 338.205156 
L 459.812443 335.36863 
L 471.648807 327.264269 
L 483.48517 323.212089 
L 495.321534 325.508324 
L 507.157898 325.643397 
L 518.994261 308.219021 
L 530.830625 315.377873 
" style="fill:none;stroke:#d0e1f2;stroke-linecap:square;stroke-width:1.5;"/>
   </g>
   <g id="line2d_39">
    <path clip-path="url(#pbd61526744)" d="M 140.230625 433.16125 
L 152.066989 431.540378 
L 163.903352 430.459796 
L 175.739716 428.028488 
L 187.57608 423.841235 
L 199.412443 412.089912 
L 211.248807 406.95715 
L 223.08517 407.362368 
L 234.921534 406.822077 
L 246.757898 398.582644 
L 258.594261 395.3409 
L 270.430625 395.475972 
L 282.266989 386.561175 
L 294.103352 393.044664 
L 305.939716 386.561175 
L 317.77608 390.883501 
L 329.612443 388.31712 
L 341.448807 383.454504 
L 353.28517 381.428414 
L 365.121534 385.885812 
L 376.957898 392.909591 
L 388.794261 378.862033 
L 400.630625 381.563486 
L 412.466989 364.544329 
L 424.303352 348.47068 
L 436.139716 358.195913 
L 447.97608 337.529793 
L 459.812443 339.826028 
L 471.648807 336.989502 
L 483.48517 336.584284 
L 495.321534 329.560505 
L 507.157898 314.027146 
L 518.994261 300.925096 
L 530.830625 309.704821 
" style="fill:none;stroke:#d0e1f2;stroke-linecap:square;stroke-width:1.5;"/>
   </g>
   <g id="line2d_40">
    <path clip-path="url(#pbd61526744)" d="M 140.230625 432.756032 
L 152.066989 431.810523 
L 163.903352 430.459796 
L 175.739716 428.433706 
L 187.57608 427.353125 
L 199.412443 426.677761 
L 211.248807 421.815145 
L 223.08517 419.383837 
L 234.921534 412.900348 
L 246.757898 412.089912 
L 258.594261 409.658604 
L 270.430625 405.066133 
L 282.266989 400.473661 
L 294.103352 398.447571 
L 305.939716 395.611045 
L 317.77608 387.77683 
L 329.612443 388.182048 
L 341.448807 376.565797 
L 353.28517 379.132178 
L 365.121534 376.430724 
L 376.957898 371.433035 
L 388.794261 370.217381 
L 400.630625 366.570419 
L 412.466989 362.11302 
L 424.303352 358.06084 
L 436.139716 361.707802 
L 447.97608 361.977948 
L 459.812443 347.795316 
L 471.648807 345.364008 
L 483.48517 326.183688 
L 495.321534 307.273512 
L 507.157898 307.948876 
L 518.994261 284.176084 
L 530.830625 302.951187 
" style="fill:none;stroke:#d0e1f2;stroke-linecap:square;stroke-width:1.5;"/>
   </g>
   <g id="line2d_41">
    <path clip-path="url(#pbd61526744)" d="M 140.230625 432.891105 
L 152.066989 430.729942 
L 163.903352 423.165872 
L 175.739716 424.516598 
L 187.57608 420.194273 
L 199.412443 411.954839 
L 211.248807 413.980929 
L 223.08517 408.037732 
L 234.921534 410.063822 
L 246.757898 404.660915 
L 258.594261 400.338589 
L 270.430625 389.532774 
L 282.266989 391.423792 
L 294.103352 393.8551 
L 305.939716 395.88119 
L 317.77608 390.073065 
L 329.612443 392.369301 
L 341.448807 376.70087 
L 353.28517 373.864344 
L 365.121534 380.077687 
L 376.957898 366.840564 
L 388.794261 363.59882 
L 400.630625 366.030128 
L 412.466989 365.219692 
L 424.303352 358.466058 
L 436.139716 359.951858 
L 447.97608 349.416189 
L 459.812443 349.281116 
L 471.648807 342.122264 
L 483.48517 350.091552 
L 495.321534 330.370941 
L 507.157898 307.273512 
L 518.994261 299.709442 
L 530.830625 307.13844 
" style="fill:none;stroke:#d0e1f2;stroke-linecap:square;stroke-width:1.5;"/>
   </g>
   <g id="line2d_42">
    <path clip-path="url(#pbd61526744)" d="M 140.230625 433.026177 
L 152.066989 430.054578 
L 163.903352 425.732253 
L 175.739716 424.246453 
L 187.57608 417.762964 
L 199.412443 420.194273 
L 211.248807 419.924127 
L 223.08517 416.277165 
L 234.921534 414.52122 
L 246.757898 415.061511 
L 258.594261 410.333967 
L 270.430625 407.092223 
L 282.266989 404.255697 
L 294.103352 395.3409 
L 305.939716 394.260318 
L 317.77608 392.504373 
L 329.612443 391.558865 
L 341.448807 389.397702 
L 353.28517 387.236539 
L 365.121534 385.885812 
L 376.957898 387.911902 
L 388.794261 371.433035 
L 400.630625 361.437657 
L 412.466989 365.084619 
L 424.303352 356.575041 
L 436.139716 353.603442 
L 447.97608 339.961101 
L 459.812443 339.42081 
L 471.648807 337.259647 
L 483.48517 322.806871 
L 495.321534 320.375562 
L 507.157898 288.49841 
L 518.994261 283.905939 
L 530.830625 288.363337 
" style="fill:none;stroke:#d0e1f2;stroke-linecap:square;stroke-width:1.5;"/>
   </g>
   <g id="line2d_43">
    <path clip-path="url(#pbd61526744)" d="M 140.230625 431.405305 
L 152.066989 420.194273 
L 163.903352 416.00702 
L 175.739716 409.658604 
L 187.57608 404.390769 
L 199.412443 402.364679 
L 211.248807 390.34321 
L 223.08517 368.056218 
L 234.921534 351.847497 
L 246.757898 336.043993 
L 258.594261 328.750068 
L 270.430625 336.719357 
L 282.266989 326.994124 
L 294.103352 330.911231 
L 305.939716 341.852118 
L 317.77608 331.181377 
L 329.612443 323.887452 
L 341.448807 297.413207 
L 353.28517 290.254355 
L 365.121534 294.711753 
L 376.957898 292.145372 
L 388.794261 283.365648 
L 400.630625 272.829979 
L 412.466989 262.29431 
L 424.303352 243.113989 
L 436.139716 221.097143 
L 447.97608 209.88611 
L 459.812443 206.779439 
L 471.648807 187.869263 
L 483.48517 207.724947 
L 495.321534 177.468667 
L 507.157898 163.691254 
L 518.994261 127.356703 
L 530.830625 99.126513 
" style="fill:none;stroke:#1764ab;stroke-linecap:square;stroke-width:1.5;"/>
   </g>
   <g id="line2d_44">
    <path clip-path="url(#pbd61526744)" d="M 140.230625 430.189651 
L 152.066989 418.708473 
L 163.903352 412.49513 
L 175.739716 404.255697 
L 187.57608 393.720027 
L 199.412443 386.696248 
L 211.248807 379.672469 
L 223.08517 362.653311 
L 234.921534 349.551261 
L 246.757898 349.01097 
L 258.594261 346.174444 
L 270.430625 345.769226 
L 282.266989 339.690956 
L 294.103352 349.281116 
L 305.939716 349.686334 
L 317.77608 320.645708 
L 329.612443 322.26658 
L 341.448807 317.268891 
L 353.28517 307.408585 
L 365.121534 277.827668 
L 376.957898 258.917493 
L 388.794261 252.974295 
L 400.630625 254.595167 
L 412.466989 242.978917 
L 424.303352 234.739483 
L 436.139716 220.016561 
L 447.97608 197.729569 
L 459.812443 198.540005 
L 471.648807 187.464045 
L 483.48517 177.333594 
L 495.321534 133.570046 
L 507.157898 116.550888 
L 518.994261 94.128824 
L 530.830625 70.76125 
" style="fill:none;stroke:#1764ab;stroke-linecap:square;stroke-width:1.5;"/>
   </g>
   <g id="line2d_45">
    <path clip-path="url(#pbd61526744)" d="M 140.230625 432.080669 
L 152.066989 423.841235 
L 163.903352 408.848168 
L 175.739716 403.175115 
L 187.57608 394.530464 
L 199.412443 392.504373 
L 211.248807 386.831321 
L 223.08517 369.67709 
L 234.921534 364.679401 
L 246.757898 370.892745 
L 258.594261 369.406945 
L 270.430625 362.923456 
L 282.266989 334.558194 
L 294.103352 315.648019 
L 305.939716 309.16453 
L 317.77608 316.998745 
L 329.612443 309.029457 
L 341.448807 289.578991 
L 353.28517 266.211418 
L 365.121534 267.83229 
L 376.957898 259.592856 
L 388.794261 259.727929 
L 400.630625 239.467027 
L 412.466989 218.395689 
L 424.303352 208.130165 
L 436.139716 187.464045 
L 447.97608 191.111008 
L 459.812443 208.265238 
L 471.648807 212.992782 
L 483.48517 211.506982 
L 495.321534 190.840862 
L 507.157898 169.634452 
L 518.994261 143.83557 
L 530.830625 156.667474 
" style="fill:none;stroke:#1764ab;stroke-linecap:square;stroke-width:1.5;"/>
   </g>
   <g id="line2d_46">
    <path clip-path="url(#pbd61526744)" d="M 140.230625 430.729942 
L 152.066989 419.518909 
L 163.903352 408.172804 
L 175.739716 402.769897 
L 187.57608 400.068443 
L 199.412443 398.447571 
L 211.248807 394.800609 
L 223.08517 390.883501 
L 234.921534 370.487527 
L 246.757898 354.684023 
L 258.594261 334.288048 
L 270.430625 328.750068 
L 282.266989 320.510635 
L 294.103352 329.695577 
L 305.939716 327.399342 
L 317.77608 333.612685 
L 329.612443 333.612685 
L 341.448807 318.484545 
L 353.28517 297.818425 
L 365.121534 298.763934 
L 376.957898 297.413207 
L 388.794261 303.356405 
L 400.630625 304.977277 
L 412.466989 289.714064 
L 424.303352 266.481563 
L 436.139716 231.227594 
L 447.97608 207.049584 
L 459.812443 181.790993 
L 471.648807 191.786371 
L 483.48517 177.198522 
L 495.321534 166.52778 
L 507.157898 141.674407 
L 518.994261 127.356703 
L 530.830625 132.894683 
" style="fill:none;stroke:#1764ab;stroke-linecap:square;stroke-width:1.5;"/>
   </g>
   <g id="line2d_47">
    <path clip-path="url(#pbd61526744)" d="M 140.230625 432.080669 
L 152.066989 426.542689 
L 163.903352 423.436017 
L 175.739716 411.144403 
L 187.57608 408.848168 
L 199.412443 391.82901 
L 211.248807 385.345521 
L 223.08517 372.243471 
L 234.921534 348.605752 
L 246.757898 346.44459 
L 258.594261 336.989502 
L 270.430625 328.614996 
L 282.266989 324.832961 
L 294.103352 311.595838 
L 305.939716 318.75469 
L 317.77608 318.349472 
L 329.612443 326.723978 
L 341.448807 316.593527 
L 353.28517 303.221332 
L 365.121534 285.256666 
L 376.957898 262.159237 
L 388.794261 238.521518 
L 400.630625 210.291328 
L 412.466989 197.459424 
L 424.303352 217.855398 
L 436.139716 220.826997 
L 447.97608 219.341198 
L 459.812443 221.502361 
L 471.648807 211.642055 
L 483.48517 205.83393 
L 495.321534 184.492446 
L 507.157898 185.573028 
L 518.994261 148.968332 
L 530.830625 125.465685 
" style="fill:none;stroke:#1764ab;stroke-linecap:square;stroke-width:1.5;"/>
   </g>
   <g id="line2d_48">
    <path clip-path="url(#pbd61526744)" d="M 140.230625 432.080669 
L 152.066989 426.407616 
L 163.903352 417.087601 
L 175.739716 410.063822 
L 187.57608 412.900348 
L 199.412443 400.068443 
L 211.248807 379.267251 
L 223.08517 358.601131 
L 234.921534 343.202845 
L 246.757898 340.90661 
L 258.594261 342.392409 
L 270.430625 342.122264 
L 282.266989 341.311828 
L 294.103352 336.854429 
L 305.939716 336.314139 
L 317.77608 332.667176 
L 329.612443 315.512946 
L 341.448807 300.925096 
L 353.28517 296.872916 
L 365.121534 283.500721 
L 376.957898 272.965052 
L 388.794261 268.912871 
L 400.630625 249.327333 
L 412.466989 232.713393 
L 424.303352 221.637433 
L 436.139716 202.32204 
L 447.97608 195.568406 
L 459.812443 175.712722 
L 471.648807 161.665164 
L 483.48517 154.506311 
L 495.321534 168.55387 
L 507.157898 188.004336 
L 518.994261 175.037359 
L 530.830625 174.361995 
" style="fill:none;stroke:#1764ab;stroke-linecap:square;stroke-width:1.5;"/>
   </g>
   <g id="line2d_49">
    <path clip-path="url(#pbd61526744)" d="M 140.230625 432.891105 
L 152.066989 428.838924 
L 163.903352 422.895726 
L 175.739716 415.466729 
L 187.57608 401.149025 
L 199.412443 389.397702 
L 211.248807 367.921146 
L 223.08517 358.736203 
L 234.921534 356.980259 
L 246.757898 346.579662 
L 258.594261 351.307206 
L 270.430625 345.769226 
L 282.266989 328.209778 
L 294.103352 324.697888 
L 305.939716 303.896695 
L 317.77608 301.735533 
L 329.612443 289.308846 
L 341.448807 294.846826 
L 353.28517 310.380184 
L 365.121534 305.247422 
L 376.957898 312.406274 
L 388.794261 305.11235 
L 400.630625 289.443919 
L 412.466989 274.045633 
L 424.303352 251.893714 
L 436.139716 252.974295 
L 447.97608 224.068742 
L 459.812443 188.814772 
L 471.648807 166.122562 
L 483.48517 143.430352 
L 495.321534 166.392707 
L 507.157898 200.431023 
L 518.994261 175.172432 
L 530.830625 189.625208 
" style="fill:none;stroke:#1764ab;stroke-linecap:square;stroke-width:1.5;"/>
   </g>
   <g id="line2d_50">
    <path clip-path="url(#pbd61526744)" d="M 140.230625 431.540378 
L 152.066989 428.028488 
L 163.903352 422.08529 
L 175.739716 418.573401 
L 187.57608 408.578022 
L 199.412443 407.227295 
L 211.248807 407.497441 
L 223.08517 399.39308 
L 234.921534 395.746118 
L 246.757898 369.271872 
L 258.594261 363.463747 
L 270.430625 364.004038 
L 282.266989 345.769226 
L 294.103352 335.233557 
L 305.939716 312.946565 
L 317.77608 293.631172 
L 329.612443 279.043322 
L 341.448807 269.588235 
L 353.28517 275.936651 
L 365.121534 264.455473 
L 376.957898 273.775488 
L 388.794261 241.62819 
L 400.630625 242.168481 
L 412.466989 222.582942 
L 424.303352 242.168481 
L 436.139716 245.410225 
L 447.97608 237.305864 
L 459.812443 206.239148 
L 471.648807 202.32204 
L 483.48517 158.423419 
L 495.321534 137.757299 
L 507.157898 131.408883 
L 518.994261 141.404262 
L 530.830625 153.830948 
" style="fill:none;stroke:#1764ab;stroke-linecap:square;stroke-width:1.5;"/>
   </g>
   <g id="line2d_51">
    <path clip-path="url(#pbd61526744)" d="M 140.230625 431.675451 
L 152.066989 417.898037 
L 163.903352 400.608734 
L 175.739716 390.34321 
L 187.57608 372.108399 
L 199.412443 367.380855 
L 211.248807 358.330985 
L 223.08517 355.764604 
L 234.921534 349.686334 
L 246.757898 355.359386 
L 258.594261 343.608063 
L 270.430625 329.155287 
L 282.266989 313.486856 
L 294.103352 306.192931 
L 305.939716 300.384806 
L 317.77608 294.171462 
L 329.612443 282.690285 
L 341.448807 280.799267 
L 353.28517 289.038701 
L 365.121534 270.398671 
L 376.957898 263.104746 
L 388.794261 249.327333 
L 400.630625 255.945894 
L 412.466989 239.6021 
L 424.303352 216.90989 
L 436.139716 214.343509 
L 447.97608 192.191589 
L 459.812443 188.814772 
L 471.648807 176.388086 
L 483.48517 187.058827 
L 495.321534 187.734191 
L 507.157898 190.435644 
L 518.994261 180.710411 
L 530.830625 165.041981 
" style="fill:none;stroke:#1764ab;stroke-linecap:square;stroke-width:1.5;"/>
   </g>
   <g id="line2d_52">
    <path clip-path="url(#pbd61526744)" d="M 140.230625 431.000087 
L 152.066989 421.815145 
L 163.903352 409.253386 
L 175.739716 394.260318 
L 187.57608 384.805231 
L 199.412443 379.672469 
L 211.248807 383.859722 
L 223.08517 379.807541 
L 234.921534 375.620288 
L 246.757898 377.781451 
L 258.594261 372.783762 
L 270.430625 359.546639 
L 282.266989 331.046304 
L 294.103352 309.839893 
L 305.939716 302.816114 
L 317.77608 298.493788 
L 329.612443 290.794645 
L 341.448807 281.474631 
L 353.28517 277.152305 
L 365.121534 274.856069 
L 376.957898 277.42245 
L 388.794261 281.744776 
L 400.630625 269.183017 
L 412.466989 262.699528 
L 424.303352 238.656591 
L 436.139716 204.213058 
L 447.97608 192.191589 
L 459.812443 185.843173 
L 471.648807 183.276792 
L 483.48517 191.651298 
L 495.321534 203.267549 
L 507.157898 189.625208 
L 518.994261 158.018201 
L 530.830625 121.818723 
" style="fill:none;stroke:#1764ab;stroke-linecap:square;stroke-width:1.5;"/>
   </g>
   <g id="line2d_53">
    <path clip-path="url(#pbd61526744)" d="M 140.230625 432.215741 
L 152.066989 430.324724 
L 163.903352 425.59718 
L 175.739716 421.545 
L 187.57608 418.708473 
L 199.412443 415.736874 
L 211.248807 406.95715 
L 223.08517 401.013952 
L 234.921534 395.611045 
L 246.757898 378.591887 
L 258.594261 376.295652 
L 270.430625 379.672469 
L 282.266989 373.594198 
L 294.103352 369.67709 
L 305.939716 364.139111 
L 317.77608 353.333296 
L 329.612443 349.551261 
L 341.448807 335.098484 
L 353.28517 333.207467 
L 365.121534 329.695577 
L 376.957898 324.427743 
L 388.794261 320.915853 
L 400.630625 309.974966 
L 412.466989 296.332625 
L 424.303352 290.254355 
L 436.139716 287.823046 
L 447.97608 297.413207 
L 459.812443 275.39636 
L 471.648807 260.133147 
L 483.48517 261.078656 
L 495.321534 247.436315 
L 507.157898 230.687303 
L 518.994261 216.099454 
L 530.830625 232.983538 
" style="fill:none;stroke:#94c4df;stroke-linecap:square;stroke-width:1.5;"/>
   </g>
   <g id="line2d_54">
    <path clip-path="url(#pbd61526744)" d="M 140.230625 432.215741 
L 152.066989 429.244142 
L 163.903352 426.137471 
L 175.739716 416.142092 
L 187.57608 407.227295 
L 199.412443 398.717717 
L 211.248807 386.831321 
L 223.08517 379.807541 
L 234.921534 380.347832 
L 246.757898 388.452193 
L 258.594261 377.106088 
L 270.430625 379.672469 
L 282.266989 379.672469 
L 294.103352 384.400013 
L 305.939716 372.108399 
L 317.77608 358.736203 
L 329.612443 347.119953 
L 341.448807 331.181377 
L 353.28517 326.048615 
L 365.121534 320.24049 
L 376.957898 320.105417 
L 388.794261 310.380184 
L 400.630625 300.519878 
L 412.466989 302.005678 
L 424.303352 274.585924 
L 436.139716 278.90825 
L 447.97608 301.735533 
L 459.812443 296.332625 
L 471.648807 294.981899 
L 483.48517 289.849137 
L 495.321534 281.474631 
L 507.157898 262.159237 
L 518.994261 228.391067 
L 530.830625 256.216039 
" style="fill:none;stroke:#94c4df;stroke-linecap:square;stroke-width:1.5;"/>
   </g>
   <g id="line2d_55">
    <path clip-path="url(#pbd61526744)" d="M 140.230625 432.891105 
L 152.066989 426.542689 
L 163.903352 423.57109 
L 175.739716 416.142092 
L 187.57608 418.303255 
L 199.412443 414.386148 
L 211.248807 408.037732 
L 223.08517 401.689316 
L 234.921534 393.449882 
L 246.757898 381.023196 
L 258.594261 372.243471 
L 270.430625 370.892745 
L 282.266989 351.442279 
L 294.103352 346.714735 
L 305.939716 329.965723 
L 317.77608 337.799938 
L 329.612443 333.747758 
L 341.448807 323.617307 
L 353.28517 331.586595 
L 365.121534 313.892074 
L 376.957898 294.981899 
L 388.794261 311.19062 
L 400.630625 313.486856 
L 412.466989 304.166841 
L 424.303352 289.984209 
L 436.139716 297.143061 
L 447.97608 283.095503 
L 459.812443 291.470009 
L 471.648807 297.953497 
L 483.48517 305.517568 
L 495.321534 286.607392 
L 507.157898 264.590546 
L 518.994261 244.734862 
L 530.830625 274.585924 
" style="fill:none;stroke:#94c4df;stroke-linecap:square;stroke-width:1.5;"/>
   </g>
   <g id="line2d_56">
    <path clip-path="url(#pbd61526744)" d="M 140.230625 432.080669 
L 152.066989 430.594869 
L 163.903352 426.407616 
L 175.739716 422.08529 
L 187.57608 411.819767 
L 199.412443 412.765275 
L 211.248807 406.146714 
L 223.08517 406.146714 
L 234.921534 397.637135 
L 246.757898 387.371612 
L 258.594261 382.914213 
L 270.430625 375.21507 
L 282.266989 370.622599 
L 294.103352 368.461436 
L 305.939716 361.302584 
L 317.77608 361.032439 
L 329.612443 360.222003 
L 341.448807 354.819096 
L 353.28517 347.795316 
L 365.121534 339.42081 
L 376.957898 331.991813 
L 388.794261 327.669487 
L 400.630625 320.78078 
L 412.466989 309.839893 
L 424.303352 294.57668 
L 436.139716 306.463076 
L 447.97608 290.5245 
L 459.812443 288.633483 
L 471.648807 283.770866 
L 483.48517 263.780109 
L 495.321534 231.767884 
L 507.157898 225.149323 
L 518.994261 197.324351 
L 530.830625 218.395689 
" style="fill:none;stroke:#94c4df;stroke-linecap:square;stroke-width:1.5;"/>
   </g>
   <g id="line2d_57">
    <path clip-path="url(#pbd61526744)" d="M 140.230625 432.080669 
L 152.066989 428.973997 
L 163.903352 423.436017 
L 175.739716 415.466729 
L 187.57608 408.172804 
L 199.412443 399.663225 
L 211.248807 395.88119 
L 223.08517 393.8551 
L 234.921534 390.883501 
L 246.757898 375.079998 
L 258.594261 371.973326 
L 270.430625 373.729271 
L 282.266989 366.705492 
L 294.103352 366.030128 
L 305.939716 368.461436 
L 317.77608 372.243471 
L 329.612443 358.330985 
L 341.448807 354.143732 
L 353.28517 335.908921 
L 365.121534 335.36863 
L 376.957898 326.859051 
L 388.794261 301.60046 
L 400.630625 305.11235 
L 412.466989 288.903628 
L 424.303352 275.39636 
L 436.139716 288.49841 
L 447.97608 273.91056 
L 459.812443 288.49841 
L 471.648807 285.932029 
L 483.48517 284.851448 
L 495.321534 255.405603 
L 507.157898 240.007318 
L 518.994261 220.016561 
L 530.830625 229.876867 
" style="fill:none;stroke:#94c4df;stroke-linecap:square;stroke-width:1.5;"/>
   </g>
   <g id="line2d_58">
    <path clip-path="url(#pbd61526744)" d="M 140.230625 431.270232 
L 152.066989 425.732253 
L 163.903352 422.895726 
L 175.739716 418.978619 
L 187.57608 410.874258 
L 199.412443 409.793676 
L 211.248807 407.362368 
L 223.08517 398.852789 
L 234.921534 404.660915 
L 246.757898 391.693937 
L 258.594261 388.587266 
L 270.430625 373.459126 
L 282.266989 370.082309 
L 294.103352 361.57273 
L 305.939716 350.901988 
L 317.77608 364.139111 
L 329.612443 355.764604 
L 341.448807 352.657933 
L 353.28517 348.740825 
L 365.121534 340.636464 
L 376.957898 327.129196 
L 388.794261 320.78078 
L 400.630625 304.166841 
L 412.466989 287.958119 
L 424.303352 270.668816 
L 436.139716 275.936651 
L 447.97608 275.666505 
L 459.812443 252.163859 
L 471.648807 240.682681 
L 483.48517 240.142391 
L 495.321534 251.623568 
L 507.157898 257.971984 
L 518.994261 242.303553 
L 530.830625 258.24213 
" style="fill:none;stroke:#94c4df;stroke-linecap:square;stroke-width:1.5;"/>
   </g>
   <g id="line2d_59">
    <path clip-path="url(#pbd61526744)" d="M 140.230625 433.16125 
L 152.066989 431.810523 
L 163.903352 425.59718 
L 175.739716 418.708473 
L 187.57608 419.518909 
L 199.412443 411.144403 
L 211.248807 397.907281 
L 223.08517 395.070754 
L 234.921534 388.587266 
L 246.757898 375.079998 
L 258.594261 374.404634 
L 270.430625 368.056218 
L 282.266989 369.001727 
L 294.103352 362.383166 
L 305.939716 355.494459 
L 317.77608 363.868965 
L 329.612443 365.759983 
L 341.448807 353.063151 
L 353.28517 345.904299 
L 365.121534 337.259647 
L 376.957898 332.397031 
L 388.794261 325.373251 
L 400.630625 317.539036 
L 412.466989 309.974966 
L 424.303352 298.628861 
L 436.139716 289.984209 
L 447.97608 282.420139 
L 459.812443 300.384806 
L 471.648807 277.287377 
L 483.48517 285.256666 
L 495.321534 272.424761 
L 507.157898 260.808511 
L 518.994261 253.919804 
L 530.830625 275.666505 
" style="fill:none;stroke:#94c4df;stroke-linecap:square;stroke-width:1.5;"/>
   </g>
   <g id="line2d_60">
    <path clip-path="url(#pbd61526744)" d="M 140.230625 432.080669 
L 152.066989 429.379215 
L 163.903352 423.165872 
L 175.739716 418.438328 
L 187.57608 415.736874 
L 199.412443 409.658604 
L 211.248807 400.743807 
L 223.08517 395.746118 
L 234.921534 385.210449 
L 246.757898 381.158268 
L 258.594261 372.918835 
L 270.430625 373.459126 
L 282.266989 359.276494 
L 294.103352 365.759983 
L 305.939716 352.793005 
L 317.77608 344.013281 
L 329.612443 341.4469 
L 341.448807 326.723978 
L 353.28517 328.614996 
L 365.121534 339.285738 
L 376.957898 330.641086 
L 388.794261 316.998745 
L 400.630625 306.328004 
L 412.466989 294.171462 
L 424.303352 290.794645 
L 436.139716 301.735533 
L 447.97608 289.038701 
L 459.812443 275.936651 
L 471.648807 270.803889 
L 483.48517 255.945894 
L 495.321534 257.026475 
L 507.157898 234.334265 
L 518.994261 237.035719 
L 530.830625 251.083278 
" style="fill:none;stroke:#94c4df;stroke-linecap:square;stroke-width:1.5;"/>
   </g>
   <g id="line2d_61">
    <path clip-path="url(#pbd61526744)" d="M 140.230625 432.080669 
L 152.066989 427.218052 
L 163.903352 418.438328 
L 175.739716 419.653982 
L 187.57608 408.172804 
L 199.412443 396.691626 
L 211.248807 396.421481 
L 223.08517 393.044664 
L 234.921534 394.665536 
L 246.757898 393.179737 
L 258.594261 381.968704 
L 270.430625 378.051597 
L 282.266989 369.542018 
L 294.103352 356.169822 
L 305.939716 350.631843 
L 317.77608 339.42081 
L 329.612443 320.78078 
L 341.448807 312.001056 
L 353.28517 324.427743 
L 365.121534 315.648019 
L 376.957898 297.413207 
L 388.794261 313.621928 
L 400.630625 312.001056 
L 412.466989 317.133818 
L 424.303352 300.11466 
L 436.139716 297.413207 
L 447.97608 289.578991 
L 459.812443 275.261287 
L 471.648807 277.42245 
L 483.48517 286.202174 
L 495.321534 274.045633 
L 507.157898 267.562145 
L 518.994261 239.737172 
L 530.830625 254.460095 
" style="fill:none;stroke:#94c4df;stroke-linecap:square;stroke-width:1.5;"/>
   </g>
   <g id="line2d_62">
    <path clip-path="url(#pbd61526744)" d="M 140.230625 432.215741 
L 152.066989 426.272543 
L 163.903352 417.898037 
L 175.739716 417.627892 
L 187.57608 404.660915 
L 199.412443 402.094534 
L 211.248807 402.229606 
L 223.08517 388.452193 
L 234.921534 389.937992 
L 246.757898 389.532774 
L 258.594261 394.665536 
L 270.430625 386.966393 
L 282.266989 385.075376 
L 294.103352 371.297963 
L 305.939716 354.413878 
L 317.77608 349.956479 
L 329.612443 338.475301 
L 341.448807 336.989502 
L 353.28517 332.937322 
L 365.121534 329.695577 
L 376.957898 342.392409 
L 388.794261 326.31876 
L 400.630625 316.593527 
L 412.466989 294.846826 
L 424.303352 278.232886 
L 436.139716 285.256666 
L 447.97608 264.725618 
L 459.812443 270.803889 
L 471.648807 279.44854 
L 483.48517 255.135458 
L 495.321534 262.834601 
L 507.157898 251.21835 
L 518.994261 213.533073 
L 530.830625 245.68037 
" style="fill:none;stroke:#94c4df;stroke-linecap:square;stroke-width:1.5;"/>
   </g>
   <g id="line2d_63">
    <path clip-path="url(#pbd61526744)" d="M 140.230625 433.16125 
L 152.066989 433.16125 
L 163.903352 433.16125 
L 175.739716 433.16125 
L 187.57608 433.16125 
L 199.412443 433.16125 
L 211.248807 433.16125 
L 223.08517 433.16125 
L 234.921534 433.16125 
L 246.757898 433.16125 
L 258.594261 433.16125 
L 270.430625 433.16125 
L 282.266989 433.16125 
L 294.103352 433.16125 
L 305.939716 433.16125 
L 317.77608 433.16125 
L 329.612443 433.16125 
L 341.448807 433.16125 
L 353.28517 433.16125 
L 365.121534 433.16125 
L 376.957898 433.16125 
L 388.794261 433.16125 
L 400.630625 433.16125 
L 412.466989 433.16125 
L 424.303352 433.16125 
L 436.139716 433.16125 
L 447.97608 433.16125 
L 459.812443 433.16125 
L 471.648807 433.16125 
L 483.48517 433.16125 
L 495.321534 433.16125 
L 507.157898 433.16125 
L 518.994261 433.16125 
L 530.830625 433.16125 
" style="fill:none;stroke:#000000;stroke-linecap:square;stroke-width:1.5;"/>
   </g>
   <g id="line2d_64">
    <path clip-path="url(#pbd61526744)" d="M 140.230625 433.16125 
L 152.066989 433.16125 
L 163.903352 433.16125 
L 175.739716 433.16125 
L 187.57608 433.16125 
L 199.412443 433.16125 
L 211.248807 433.16125 
L 223.08517 433.16125 
L 234.921534 433.16125 
L 246.757898 433.16125 
L 258.594261 433.16125 
L 270.430625 433.16125 
L 282.266989 433.16125 
L 294.103352 433.16125 
L 305.939716 433.16125 
L 317.77608 433.16125 
L 329.612443 433.16125 
L 341.448807 433.16125 
L 353.28517 433.16125 
L 365.121534 433.16125 
L 376.957898 433.16125 
L 388.794261 433.16125 
L 400.630625 433.16125 
L 412.466989 433.16125 
L 424.303352 433.16125 
L 436.139716 433.16125 
L 447.97608 433.16125 
L 459.812443 433.16125 
L 471.648807 433.16125 
L 483.48517 433.16125 
L 495.321534 433.16125 
L 507.157898 433.16125 
L 518.994261 433.16125 
L 530.830625 433.16125 
" style="fill:none;stroke:#000000;stroke-linecap:square;stroke-width:1.5;"/>
   </g>
   <g id="line2d_65">
    <path clip-path="url(#pbd61526744)" d="M 140.230625 433.16125 
L 152.066989 433.16125 
L 163.903352 433.16125 
L 175.739716 433.16125 
L 187.57608 433.16125 
L 199.412443 433.16125 
L 211.248807 433.16125 
L 223.08517 433.16125 
L 234.921534 433.16125 
L 246.757898 433.16125 
L 258.594261 433.16125 
L 270.430625 433.16125 
L 282.266989 433.16125 
L 294.103352 433.16125 
L 305.939716 433.16125 
L 317.77608 433.16125 
L 329.612443 433.16125 
L 341.448807 433.16125 
L 353.28517 433.16125 
L 365.121534 433.16125 
L 376.957898 433.16125 
L 388.794261 433.16125 
L 400.630625 433.16125 
L 412.466989 433.16125 
L 424.303352 433.16125 
L 436.139716 433.16125 
L 447.97608 433.16125 
L 459.812443 433.16125 
L 471.648807 433.16125 
L 483.48517 433.16125 
L 495.321534 433.16125 
L 507.157898 433.16125 
L 518.994261 433.16125 
L 530.830625 433.16125 
" style="fill:none;stroke:#000000;stroke-linecap:square;stroke-width:1.5;"/>
   </g>
   <g id="line2d_66">
    <path clip-path="url(#pbd61526744)" d="M 140.230625 433.16125 
L 152.066989 433.16125 
L 163.903352 433.16125 
L 175.739716 433.16125 
L 187.57608 433.16125 
L 199.412443 433.16125 
L 211.248807 433.16125 
L 223.08517 433.16125 
L 234.921534 433.16125 
L 246.757898 433.16125 
L 258.594261 433.16125 
L 270.430625 433.16125 
L 282.266989 433.16125 
L 294.103352 433.16125 
L 305.939716 433.16125 
L 317.77608 433.16125 
L 329.612443 433.16125 
L 341.448807 433.16125 
L 353.28517 433.16125 
L 365.121534 433.16125 
L 376.957898 433.16125 
L 388.794261 433.16125 
L 400.630625 433.16125 
L 412.466989 433.16125 
L 424.303352 433.16125 
L 436.139716 433.16125 
L 447.97608 433.16125 
L 459.812443 433.16125 
L 471.648807 433.16125 
L 483.48517 433.16125 
L 495.321534 433.16125 
L 507.157898 433.16125 
L 518.994261 433.16125 
L 530.830625 433.16125 
" style="fill:none;stroke:#000000;stroke-linecap:square;stroke-width:1.5;"/>
   </g>
   <g id="line2d_67">
    <path clip-path="url(#pbd61526744)" d="M 140.230625 433.16125 
L 152.066989 433.16125 
L 163.903352 433.16125 
L 175.739716 433.16125 
L 187.57608 433.16125 
L 199.412443 433.16125 
L 211.248807 433.16125 
L 223.08517 433.16125 
L 234.921534 433.16125 
L 246.757898 433.16125 
L 258.594261 433.16125 
L 270.430625 433.16125 
L 282.266989 433.16125 
L 294.103352 433.16125 
L 305.939716 433.16125 
L 317.77608 433.16125 
L 329.612443 433.16125 
L 341.448807 433.16125 
L 353.28517 433.16125 
L 365.121534 433.16125 
L 376.957898 433.16125 
L 388.794261 433.16125 
L 400.630625 433.16125 
L 412.466989 433.16125 
L 424.303352 433.16125 
L 436.139716 433.16125 
L 447.97608 433.16125 
L 459.812443 433.16125 
L 471.648807 433.16125 
L 483.48517 433.16125 
L 495.321534 433.16125 
L 507.157898 433.16125 
L 518.994261 433.16125 
L 530.830625 433.16125 
" style="fill:none;stroke:#000000;stroke-linecap:square;stroke-width:1.5;"/>
   </g>
   <g id="line2d_68">
    <path clip-path="url(#pbd61526744)" d="M 140.230625 433.16125 
L 152.066989 433.16125 
L 163.903352 433.16125 
L 175.739716 433.16125 
L 187.57608 433.16125 
L 199.412443 433.16125 
L 211.248807 433.16125 
L 223.08517 433.16125 
L 234.921534 433.16125 
L 246.757898 433.16125 
L 258.594261 433.16125 
L 270.430625 433.16125 
L 282.266989 433.16125 
L 294.103352 433.16125 
L 305.939716 433.16125 
L 317.77608 433.16125 
L 329.612443 433.16125 
L 341.448807 433.16125 
L 353.28517 433.16125 
L 365.121534 433.16125 
L 376.957898 433.16125 
L 388.794261 433.16125 
L 400.630625 433.16125 
L 412.466989 433.16125 
L 424.303352 433.16125 
L 436.139716 433.16125 
L 447.97608 433.16125 
L 459.812443 433.16125 
L 471.648807 433.16125 
L 483.48517 433.16125 
L 495.321534 433.16125 
L 507.157898 433.16125 
L 518.994261 433.16125 
L 530.830625 433.16125 
" style="fill:none;stroke:#000000;stroke-linecap:square;stroke-width:1.5;"/>
   </g>
   <g id="line2d_69">
    <path clip-path="url(#pbd61526744)" d="M 140.230625 433.16125 
L 152.066989 433.16125 
L 163.903352 433.16125 
L 175.739716 433.16125 
L 187.57608 433.16125 
L 199.412443 433.16125 
L 211.248807 433.16125 
L 223.08517 433.16125 
L 234.921534 433.16125 
L 246.757898 433.16125 
L 258.594261 433.16125 
L 270.430625 433.16125 
L 282.266989 433.16125 
L 294.103352 433.16125 
L 305.939716 433.16125 
L 317.77608 433.16125 
L 329.612443 433.16125 
L 341.448807 433.16125 
L 353.28517 433.16125 
L 365.121534 433.16125 
L 376.957898 433.16125 
L 388.794261 433.16125 
L 400.630625 433.16125 
L 412.466989 433.16125 
L 424.303352 433.16125 
L 436.139716 433.16125 
L 447.97608 433.16125 
L 459.812443 433.16125 
L 471.648807 433.16125 
L 483.48517 433.16125 
L 495.321534 433.16125 
L 507.157898 433.16125 
L 518.994261 433.16125 
L 530.830625 433.16125 
" style="fill:none;stroke:#000000;stroke-linecap:square;stroke-width:1.5;"/>
   </g>
   <g id="line2d_70">
    <path clip-path="url(#pbd61526744)" d="M 140.230625 433.16125 
L 152.066989 433.16125 
L 163.903352 433.16125 
L 175.739716 433.16125 
L 187.57608 433.16125 
L 199.412443 433.16125 
L 211.248807 433.16125 
L 223.08517 433.16125 
L 234.921534 433.16125 
L 246.757898 433.16125 
L 258.594261 433.16125 
L 270.430625 433.16125 
L 282.266989 433.16125 
L 294.103352 433.16125 
L 305.939716 433.16125 
L 317.77608 433.16125 
L 329.612443 433.16125 
L 341.448807 433.16125 
L 353.28517 433.16125 
L 365.121534 433.16125 
L 376.957898 433.16125 
L 388.794261 433.16125 
L 400.630625 433.16125 
L 412.466989 433.16125 
L 424.303352 433.16125 
L 436.139716 433.16125 
L 447.97608 433.16125 
L 459.812443 433.16125 
L 471.648807 433.16125 
L 483.48517 433.16125 
L 495.321534 433.16125 
L 507.157898 433.16125 
L 518.994261 433.16125 
L 530.830625 433.16125 
" style="fill:none;stroke:#000000;stroke-linecap:square;stroke-width:1.5;"/>
   </g>
   <g id="line2d_71">
    <path clip-path="url(#pbd61526744)" d="M 140.230625 433.16125 
L 152.066989 433.16125 
L 163.903352 433.16125 
L 175.739716 433.16125 
L 187.57608 433.16125 
L 199.412443 433.16125 
L 211.248807 433.16125 
L 223.08517 433.16125 
L 234.921534 433.16125 
L 246.757898 433.16125 
L 258.594261 433.16125 
L 270.430625 433.16125 
L 282.266989 433.16125 
L 294.103352 433.16125 
L 305.939716 433.16125 
L 317.77608 433.16125 
L 329.612443 433.16125 
L 341.448807 433.16125 
L 353.28517 433.16125 
L 365.121534 433.16125 
L 376.957898 433.16125 
L 388.794261 433.16125 
L 400.630625 433.16125 
L 412.466989 433.16125 
L 424.303352 433.16125 
L 436.139716 433.16125 
L 447.97608 433.16125 
L 459.812443 433.16125 
L 471.648807 433.16125 
L 483.48517 433.16125 
L 495.321534 433.16125 
L 507.157898 433.16125 
L 518.994261 433.16125 
L 530.830625 433.16125 
" style="fill:none;stroke:#000000;stroke-linecap:square;stroke-width:1.5;"/>
   </g>
   <g id="line2d_72">
    <path clip-path="url(#pbd61526744)" d="M 140.230625 433.16125 
L 152.066989 433.16125 
L 163.903352 433.16125 
L 175.739716 433.16125 
L 187.57608 433.16125 
L 199.412443 433.16125 
L 211.248807 433.16125 
L 223.08517 433.16125 
L 234.921534 433.16125 
L 246.757898 433.16125 
L 258.594261 433.16125 
L 270.430625 433.16125 
L 282.266989 433.16125 
L 294.103352 433.16125 
L 305.939716 433.16125 
L 317.77608 433.16125 
L 329.612443 433.16125 
L 341.448807 433.16125 
L 353.28517 433.16125 
L 365.121534 433.16125 
L 376.957898 433.16125 
L 388.794261 433.16125 
L 400.630625 433.16125 
L 412.466989 433.16125 
L 424.303352 433.16125 
L 436.139716 433.16125 
L 447.97608 433.16125 
L 459.812443 433.16125 
L 471.648807 433.16125 
L 483.48517 433.16125 
L 495.321534 433.16125 
L 507.157898 433.16125 
L 518.994261 433.16125 
L 530.830625 433.16125 
" style="fill:none;stroke:#000000;stroke-linecap:square;stroke-width:1.5;"/>
   </g>
   <g id="line2d_73">
    <path clip-path="url(#pbd61526744)" d="M 128.394261 433.16125 
" style="fill:none;stroke:#000000;stroke-linecap:square;stroke-width:1.5;"/>
   </g>
   <g id="line2d_74">
    <path clip-path="url(#pbd61526744)" d="M 128.394261 433.16125 
" style="fill:none;stroke:#d0e1f2;stroke-linecap:square;stroke-width:1.5;"/>
   </g>
   <g id="line2d_75">
    <path clip-path="url(#pbd61526744)" d="M 128.394261 433.16125 
" style="fill:none;stroke:#94c4df;stroke-linecap:square;stroke-width:1.5;"/>
   </g>
   <g id="line2d_76">
    <path clip-path="url(#pbd61526744)" d="M 128.394261 433.16125 
" style="fill:none;stroke:#4a98c9;stroke-linecap:square;stroke-width:1.5;"/>
   </g>
   <g id="line2d_77">
    <path clip-path="url(#pbd61526744)" d="M 128.394261 433.16125 
" style="fill:none;stroke:#1764ab;stroke-linecap:square;stroke-width:1.5;"/>
   </g>
   <g id="line2d_78">
    <path clip-path="url(#pbd61526744)" d="M 128.394261 433.16125 
" style="fill:none;stroke:#08306b;stroke-linecap:square;stroke-width:1.5;"/>
   </g>
   <g id="line2d_79">
    <path clip-path="url(#pbd61526744)" d="M 128.394261 433.16125 
" style="fill:none;stroke:#000000;stroke-linecap:square;stroke-width:1.5;"/>
   </g>
   <g id="line2d_80">
    <path clip-path="url(#pbd61526744)" d="M 128.394261 433.16125 
" style="fill:none;stroke:#000000;stroke-dasharray:1.5,2.475;stroke-dashoffset:0;stroke-width:1.5;"/>
   </g>
   <g id="line2d_81">
    <path clip-path="url(#pbd61526744)" d="M 128.394261 433.16125 
" style="fill:none;stroke:#000000;stroke-linecap:square;stroke-width:1.5;"/>
   </g>
   <g id="line2d_82">
    <path clip-path="url(#pbd61526744)" d="M 128.394261 433.16125 
" style="fill:none;stroke:#000000;stroke-dasharray:5.55,2.4;stroke-dashoffset:0;stroke-width:1.5;"/>
   </g>
   <g id="line2d_83">
    <path clip-path="url(#pbd61526744)" d="M 128.394261 433.16125 
" style="fill:none;stroke:#000000;stroke-dasharray:9.6,2.4,1.5,2.4;stroke-dashoffset:0;stroke-width:1.5;"/>
   </g>
   <g id="line2d_84">
    <path clip-path="url(#pbd61526744)" d="M 128.394261 433.16125 
" style="fill:none;stroke:#000000;stroke-dasharray:9.6,2.4,1.5,2.4;stroke-dashoffset:0;stroke-width:1.5;"/>
   </g>
   <g id="patch_3">
    <path d="M 140.230625 433.16125 
L 140.230625 52.64125 
" style="fill:none;stroke:#000000;stroke-linecap:square;stroke-linejoin:miter;stroke-width:0.8;"/>
   </g>
   <g id="patch_4">
    <path d="M 530.830625 433.16125 
L 530.830625 52.64125 
" style="fill:none;stroke:#000000;stroke-linecap:square;stroke-linejoin:miter;stroke-width:0.8;"/>
   </g>
   <g id="patch_5">
    <path d="M 140.230625 433.16125 
L 530.830625 433.16125 
" style="fill:none;stroke:#000000;stroke-linecap:square;stroke-linejoin:miter;stroke-width:0.8;"/>
   </g>
   <g id="patch_6">
    <path d="M 140.230625 52.64125 
L 530.830625 52.64125 
" style="fill:none;stroke:#000000;stroke-linecap:square;stroke-linejoin:miter;stroke-width:0.8;"/>
   </g>
   <g id="text_15">
    <!-- CD4 LIVE COUNT -->
    <g transform="translate(252.191562 21.515625)scale(0.2 -0.2)">
     <use xlink:href="#Arial-BoldMT-67"/>
     <use x="72.216797" xlink:href="#Arial-BoldMT-68"/>
     <use x="144.433594" xlink:href="#Arial-BoldMT-52"/>
     <use x="200.048828" xlink:href="#Arial-BoldMT-32"/>
     <use x="227.832031" xlink:href="#Arial-BoldMT-76"/>
     <use x="288.916016" xlink:href="#Arial-BoldMT-73"/>
     <use x="316.699219" xlink:href="#Arial-BoldMT-86"/>
     <use x="383.398438" xlink:href="#Arial-BoldMT-69"/>
     <use x="450.097656" xlink:href="#Arial-BoldMT-32"/>
     <use x="477.880859" xlink:href="#Arial-BoldMT-67"/>
     <use x="550.097656" xlink:href="#Arial-BoldMT-79"/>
     <use x="627.880859" xlink:href="#Arial-BoldMT-85"/>
     <use x="700.097656" xlink:href="#Arial-BoldMT-78"/>
     <use x="772.314453" xlink:href="#Arial-BoldMT-84"/>
    </g>
    <!-- ACROSS RADIUS AT TIME 7 -->
    <defs>
     <path d="M 4.25 57.859375 
L 4.25 70.609375 
L 51.171875 70.609375 
L 51.171875 60.640625 
Q 45.359375 54.9375 39.34375 44.234375 
Q 33.34375 33.546875 30.1875 21.5 
Q 27.046875 9.46875 27.09375 0 
L 13.875 0 
Q 14.203125 14.84375 19.984375 30.265625 
Q 25.78125 45.703125 35.453125 57.859375 
z
" id="Arial-BoldMT-55"/>
    </defs>
    <g transform="translate(200.536875 42.64125)scale(0.2 -0.2)">
     <use xlink:href="#Arial-BoldMT-65"/>
     <use x="72.216797" xlink:href="#Arial-BoldMT-67"/>
     <use x="144.433594" xlink:href="#Arial-BoldMT-82"/>
     <use x="216.650391" xlink:href="#Arial-BoldMT-79"/>
     <use x="294.433594" xlink:href="#Arial-BoldMT-83"/>
     <use x="361.132812" xlink:href="#Arial-BoldMT-83"/>
     <use x="427.832031" xlink:href="#Arial-BoldMT-32"/>
     <use x="455.615234" xlink:href="#Arial-BoldMT-82"/>
     <use x="527.832031" xlink:href="#Arial-BoldMT-65"/>
     <use x="600.048828" xlink:href="#Arial-BoldMT-68"/>
     <use x="672.265625" xlink:href="#Arial-BoldMT-73"/>
     <use x="700.048828" xlink:href="#Arial-BoldMT-85"/>
     <use x="772.265625" xlink:href="#Arial-BoldMT-83"/>
     <use x="838.964844" xlink:href="#Arial-BoldMT-32"/>
     <use x="866.701172" xlink:href="#Arial-BoldMT-65"/>
     <use x="938.808594" xlink:href="#Arial-BoldMT-84"/>
     <use x="999.892578" xlink:href="#Arial-BoldMT-32"/>
     <use x="1027.675781" xlink:href="#Arial-BoldMT-84"/>
     <use x="1088.759766" xlink:href="#Arial-BoldMT-73"/>
     <use x="1116.542969" xlink:href="#Arial-BoldMT-77"/>
     <use x="1199.84375" xlink:href="#Arial-BoldMT-69"/>
     <use x="1266.542969" xlink:href="#Arial-BoldMT-32"/>
     <use x="1294.326172" xlink:href="#Arial-BoldMT-55"/>
    </g>
   </g>
   <g id="legend_1">
    <g id="line2d_85">
     <path d="M 539.830625 65.739687 
L 559.830625 65.739687 
" style="fill:none;stroke:#000000;stroke-linecap:square;stroke-width:1.5;"/>
    </g>
    <g id="line2d_86"/>
    <g id="text_16">
     <!-- 0 -->
     <g transform="translate(567.830625 69.239687)scale(0.1 -0.1)">
      <use xlink:href="#DejaVuSans-48"/>
     </g>
    </g>
    <g id="line2d_87">
     <path d="M 539.830625 80.417812 
L 559.830625 80.417812 
" style="fill:none;stroke:#d0e1f2;stroke-linecap:square;stroke-width:1.5;"/>
    </g>
    <g id="line2d_88"/>
    <g id="text_17">
     <!-- 100 -->
     <g transform="translate(567.830625 83.917812)scale(0.1 -0.1)">
      <use xlink:href="#DejaVuSans-49"/>
      <use x="63.623047" xlink:href="#DejaVuSans-48"/>
      <use x="127.246094" xlink:href="#DejaVuSans-48"/>
     </g>
    </g>
    <g id="line2d_89">
     <path d="M 539.830625 95.095937 
L 559.830625 95.095937 
" style="fill:none;stroke:#94c4df;stroke-linecap:square;stroke-width:1.5;"/>
    </g>
    <g id="line2d_90"/>
    <g id="text_18">
     <!-- 500 -->
     <g transform="translate(567.830625 98.595937)scale(0.1 -0.1)">
      <use xlink:href="#DejaVuSans-53"/>
      <use x="63.623047" xlink:href="#DejaVuSans-48"/>
      <use x="127.246094" xlink:href="#DejaVuSans-48"/>
     </g>
    </g>
    <g id="line2d_91">
     <path d="M 539.830625 109.774062 
L 559.830625 109.774062 
" style="fill:none;stroke:#4a98c9;stroke-linecap:square;stroke-width:1.5;"/>
    </g>
    <g id="line2d_92"/>
    <g id="text_19">
     <!-- 1000 -->
     <g transform="translate(567.830625 113.274062)scale(0.1 -0.1)">
      <use xlink:href="#DejaVuSans-49"/>
      <use x="63.623047" xlink:href="#DejaVuSans-48"/>
      <use x="127.246094" xlink:href="#DejaVuSans-48"/>
      <use x="190.869141" xlink:href="#DejaVuSans-48"/>
     </g>
    </g>
    <g id="line2d_93">
     <path d="M 539.830625 124.452187 
L 559.830625 124.452187 
" style="fill:none;stroke:#1764ab;stroke-linecap:square;stroke-width:1.5;"/>
    </g>
    <g id="line2d_94"/>
    <g id="text_20">
     <!-- 5000 -->
     <g transform="translate(567.830625 127.952187)scale(0.1 -0.1)">
      <use xlink:href="#DejaVuSans-53"/>
      <use x="63.623047" xlink:href="#DejaVuSans-48"/>
      <use x="127.246094" xlink:href="#DejaVuSans-48"/>
      <use x="190.869141" xlink:href="#DejaVuSans-48"/>
     </g>
    </g>
    <g id="line2d_95">
     <path d="M 539.830625 139.130312 
L 559.830625 139.130312 
" style="fill:none;stroke:#08306b;stroke-linecap:square;stroke-width:1.5;"/>
    </g>
    <g id="line2d_96"/>
    <g id="text_21">
     <!-- 10000 -->
     <g transform="translate(567.830625 142.630312)scale(0.1 -0.1)">
      <use xlink:href="#DejaVuSans-49"/>
      <use x="63.623047" xlink:href="#DejaVuSans-48"/>
      <use x="127.246094" xlink:href="#DejaVuSans-48"/>
      <use x="190.869141" xlink:href="#DejaVuSans-48"/>
      <use x="254.492188" xlink:href="#DejaVuSans-48"/>
     </g>
    </g>
    <g id="line2d_97">
     <path d="M 539.830625 153.808437 
L 559.830625 153.808437 
" style="fill:none;stroke:#000000;stroke-linecap:square;stroke-width:1.5;"/>
    </g>
    <g id="line2d_98"/>
    <g id="text_22">
     <!-- 0 -->
     <g transform="translate(567.830625 157.308437)scale(0.1 -0.1)">
      <use xlink:href="#DejaVuSans-48"/>
     </g>
    </g>
    <g id="line2d_99">
     <path d="M 539.830625 168.486562 
L 559.830625 168.486562 
" style="fill:none;stroke:#000000;stroke-dasharray:1.5,2.475;stroke-dashoffset:0;stroke-width:1.5;"/>
    </g>
    <g id="line2d_100"/>
    <g id="text_23">
     <!-- 250 -->
     <g transform="translate(567.830625 171.986562)scale(0.1 -0.1)">
      <use xlink:href="#DejaVuSans-50"/>
      <use x="63.623047" xlink:href="#DejaVuSans-53"/>
      <use x="127.246094" xlink:href="#DejaVuSans-48"/>
     </g>
    </g>
    <g id="line2d_101">
     <path d="M 539.830625 183.164687 
L 559.830625 183.164687 
" style="fill:none;stroke:#000000;stroke-linecap:square;stroke-width:1.5;"/>
    </g>
    <g id="line2d_102"/>
    <g id="text_24">
     <!-- 500 -->
     <g transform="translate(567.830625 186.664687)scale(0.1 -0.1)">
      <use xlink:href="#DejaVuSans-53"/>
      <use x="63.623047" xlink:href="#DejaVuSans-48"/>
      <use x="127.246094" xlink:href="#DejaVuSans-48"/>
     </g>
    </g>
    <g id="line2d_103">
     <path d="M 539.830625 197.842812 
L 559.830625 197.842812 
" style="fill:none;stroke:#000000;stroke-dasharray:5.55,2.4;stroke-dashoffset:0;stroke-width:1.5;"/>
    </g>
    <g id="line2d_104"/>
    <g id="text_25">
     <!-- 1000 -->
     <g transform="translate(567.830625 201.342812)scale(0.1 -0.1)">
      <use xlink:href="#DejaVuSans-49"/>
      <use x="63.623047" xlink:href="#DejaVuSans-48"/>
      <use x="127.246094" xlink:href="#DejaVuSans-48"/>
      <use x="190.869141" xlink:href="#DejaVuSans-48"/>
     </g>
    </g>
    <g id="line2d_105">
     <path d="M 539.830625 212.520937 
L 559.830625 212.520937 
" style="fill:none;stroke:#000000;stroke-dasharray:9.6,2.4,1.5,2.4;stroke-dashoffset:0;stroke-width:1.5;"/>
    </g>
    <g id="line2d_106"/>
    <g id="text_26">
     <!-- 5000 -->
     <g transform="translate(567.830625 216.020937)scale(0.1 -0.1)">
      <use xlink:href="#DejaVuSans-53"/>
      <use x="63.623047" xlink:href="#DejaVuSans-48"/>
      <use x="127.246094" xlink:href="#DejaVuSans-48"/>
      <use x="190.869141" xlink:href="#DejaVuSans-48"/>
     </g>
    </g>
    <g id="line2d_107">
     <path d="M 539.830625 227.199062 
L 559.830625 227.199062 
" style="fill:none;stroke:#000000;stroke-dasharray:9.6,2.4,1.5,2.4;stroke-dashoffset:0;stroke-width:1.5;"/>
    </g>
    <g id="line2d_108"/>
    <g id="text_27">
     <!-- 10000 -->
     <g transform="translate(567.830625 230.699062)scale(0.1 -0.1)">
      <use xlink:href="#DejaVuSans-49"/>
      <use x="63.623047" xlink:href="#DejaVuSans-48"/>
      <use x="127.246094" xlink:href="#DejaVuSans-48"/>
      <use x="190.869141" xlink:href="#DejaVuSans-48"/>
      <use x="254.492188" xlink:href="#DejaVuSans-48"/>
     </g>
    </g>
   </g>
  </g>
 </g>
 <defs>
  <clipPath id="pbd61526744">
   <rect height="380.52" width="390.6" x="140.230625" y="52.64125"/>
  </clipPath>
 </defs>
</svg>
