<?xml version="1.0" encoding="utf-8" standalone="no"?>
<!DOCTYPE svg PUBLIC "-//W3C//DTD SVG 1.1//EN"
  "http://www.w3.org/Graphics/SVG/1.1/DTD/svg11.dtd">
<!-- Created with matplotlib (https://matplotlib.org/) -->
<svg height="504.658125pt" version="1.1" viewBox="0 0 503.355625 504.658125" width="503.355625pt" xmlns="http://www.w3.org/2000/svg" xmlns:xlink="http://www.w3.org/1999/xlink">
 <defs>
  <style type="text/css">
*{stroke-linecap:butt;stroke-linejoin:round;}
  </style>
 </defs>
 <g id="figure_1">
  <g id="patch_1">
   <path d="M 0 504.658125 
L 503.355625 504.658125 
L 503.355625 -0 
L 0 -0 
z
" style="fill:#ffffff;"/>
  </g>
  <g id="axes_1">
   <g id="patch_2">
    <path d="M 102.055625 433.16125 
L 492.655625 433.16125 
L 492.655625 52.64125 
L 102.055625 52.64125 
z
" style="fill:#ffffff;"/>
   </g>
   <g id="matplotlib.axis_1">
    <g id="xtick_1">
     <g id="line2d_1">
      <defs>
       <path d="M 0 0 
L 0 3.5 
" id="m3a9b7017e0" style="stroke:#000000;stroke-width:0.8;"/>
      </defs>
      <g>
       <use style="stroke:#000000;stroke-width:0.8;" x="149.40108" xlink:href="#m3a9b7017e0" y="433.16125"/>
      </g>
     </g>
     <g id="text_1">
      <!-- 5 -->
      <defs>
       <path d="M 10.796875 72.90625 
L 49.515625 72.90625 
L 49.515625 64.59375 
L 19.828125 64.59375 
L 19.828125 46.734375 
Q 21.96875 47.46875 24.109375 47.828125 
Q 26.265625 48.1875 28.421875 48.1875 
Q 40.625 48.1875 47.75 41.5 
Q 54.890625 34.8125 54.890625 23.390625 
Q 54.890625 11.625 47.5625 5.09375 
Q 40.234375 -1.421875 26.90625 -1.421875 
Q 22.3125 -1.421875 17.546875 -0.640625 
Q 12.796875 0.140625 7.71875 1.703125 
L 7.71875 11.625 
Q 12.109375 9.234375 16.796875 8.0625 
Q 21.484375 6.890625 26.703125 6.890625 
Q 35.15625 6.890625 40.078125 11.328125 
Q 45.015625 15.765625 45.015625 23.390625 
Q 45.015625 31 40.078125 35.4375 
Q 35.15625 39.890625 26.703125 39.890625 
Q 22.75 39.890625 18.8125 39.015625 
Q 14.890625 38.140625 10.796875 36.28125 
z
" id="DejaVuSans-53"/>
      </defs>
      <g transform="translate(139.85733 462.956562)scale(0.3 -0.3)">
       <use xlink:href="#DejaVuSans-53"/>
      </g>
     </g>
    </g>
    <g id="xtick_2">
     <g id="line2d_2">
      <g>
       <use style="stroke:#000000;stroke-width:0.8;" x="208.582898" xlink:href="#m3a9b7017e0" y="433.16125"/>
      </g>
     </g>
     <g id="text_2">
      <!-- 10 -->
      <defs>
       <path d="M 12.40625 8.296875 
L 28.515625 8.296875 
L 28.515625 63.921875 
L 10.984375 60.40625 
L 10.984375 69.390625 
L 28.421875 72.90625 
L 38.28125 72.90625 
L 38.28125 8.296875 
L 54.390625 8.296875 
L 54.390625 0 
L 12.40625 0 
z
" id="DejaVuSans-49"/>
       <path d="M 31.78125 66.40625 
Q 24.171875 66.40625 20.328125 58.90625 
Q 16.5 51.421875 16.5 36.375 
Q 16.5 21.390625 20.328125 13.890625 
Q 24.171875 6.390625 31.78125 6.390625 
Q 39.453125 6.390625 43.28125 13.890625 
Q 47.125 21.390625 47.125 36.375 
Q 47.125 51.421875 43.28125 58.90625 
Q 39.453125 66.40625 31.78125 66.40625 
z
M 31.78125 74.21875 
Q 44.046875 74.21875 50.515625 64.515625 
Q 56.984375 54.828125 56.984375 36.375 
Q 56.984375 17.96875 50.515625 8.265625 
Q 44.046875 -1.421875 31.78125 -1.421875 
Q 19.53125 -1.421875 13.0625 8.265625 
Q 6.59375 17.96875 6.59375 36.375 
Q 6.59375 54.828125 13.0625 64.515625 
Q 19.53125 74.21875 31.78125 74.21875 
z
" id="DejaVuSans-48"/>
      </defs>
      <g transform="translate(189.495398 462.956562)scale(0.3 -0.3)">
       <use xlink:href="#DejaVuSans-49"/>
       <use x="63.623047" xlink:href="#DejaVuSans-48"/>
      </g>
     </g>
    </g>
    <g id="xtick_3">
     <g id="line2d_3">
      <g>
       <use style="stroke:#000000;stroke-width:0.8;" x="267.764716" xlink:href="#m3a9b7017e0" y="433.16125"/>
      </g>
     </g>
     <g id="text_3">
      <!-- 15 -->
      <g transform="translate(248.677216 462.956562)scale(0.3 -0.3)">
       <use xlink:href="#DejaVuSans-49"/>
       <use x="63.623047" xlink:href="#DejaVuSans-53"/>
      </g>
     </g>
    </g>
    <g id="xtick_4">
     <g id="line2d_4">
      <g>
       <use style="stroke:#000000;stroke-width:0.8;" x="326.946534" xlink:href="#m3a9b7017e0" y="433.16125"/>
      </g>
     </g>
     <g id="text_4">
      <!-- 20 -->
      <defs>
       <path d="M 19.1875 8.296875 
L 53.609375 8.296875 
L 53.609375 0 
L 7.328125 0 
L 7.328125 8.296875 
Q 12.9375 14.109375 22.625 23.890625 
Q 32.328125 33.6875 34.8125 36.53125 
Q 39.546875 41.84375 41.421875 45.53125 
Q 43.3125 49.21875 43.3125 52.78125 
Q 43.3125 58.59375 39.234375 62.25 
Q 35.15625 65.921875 28.609375 65.921875 
Q 23.96875 65.921875 18.8125 64.3125 
Q 13.671875 62.703125 7.8125 59.421875 
L 7.8125 69.390625 
Q 13.765625 71.78125 18.9375 73 
Q 24.125 74.21875 28.421875 74.21875 
Q 39.75 74.21875 46.484375 68.546875 
Q 53.21875 62.890625 53.21875 53.421875 
Q 53.21875 48.921875 51.53125 44.890625 
Q 49.859375 40.875 45.40625 35.40625 
Q 44.1875 33.984375 37.640625 27.21875 
Q 31.109375 20.453125 19.1875 8.296875 
z
" id="DejaVuSans-50"/>
      </defs>
      <g transform="translate(307.859034 462.956562)scale(0.3 -0.3)">
       <use xlink:href="#DejaVuSans-50"/>
       <use x="63.623047" xlink:href="#DejaVuSans-48"/>
      </g>
     </g>
    </g>
    <g id="xtick_5">
     <g id="line2d_5">
      <g>
       <use style="stroke:#000000;stroke-width:0.8;" x="386.128352" xlink:href="#m3a9b7017e0" y="433.16125"/>
      </g>
     </g>
     <g id="text_5">
      <!-- 25 -->
      <g transform="translate(367.040852 462.956562)scale(0.3 -0.3)">
       <use xlink:href="#DejaVuSans-50"/>
       <use x="63.623047" xlink:href="#DejaVuSans-53"/>
      </g>
     </g>
    </g>
    <g id="xtick_6">
     <g id="line2d_6">
      <g>
       <use style="stroke:#000000;stroke-width:0.8;" x="445.31017" xlink:href="#m3a9b7017e0" y="433.16125"/>
      </g>
     </g>
     <g id="text_6">
      <!-- 30 -->
      <defs>
       <path d="M 40.578125 39.3125 
Q 47.65625 37.796875 51.625 33 
Q 55.609375 28.21875 55.609375 21.1875 
Q 55.609375 10.40625 48.1875 4.484375 
Q 40.765625 -1.421875 27.09375 -1.421875 
Q 22.515625 -1.421875 17.65625 -0.515625 
Q 12.796875 0.390625 7.625 2.203125 
L 7.625 11.71875 
Q 11.71875 9.328125 16.59375 8.109375 
Q 21.484375 6.890625 26.8125 6.890625 
Q 36.078125 6.890625 40.9375 10.546875 
Q 45.796875 14.203125 45.796875 21.1875 
Q 45.796875 27.640625 41.28125 31.265625 
Q 36.765625 34.90625 28.71875 34.90625 
L 20.21875 34.90625 
L 20.21875 43.015625 
L 29.109375 43.015625 
Q 36.375 43.015625 40.234375 45.921875 
Q 44.09375 48.828125 44.09375 54.296875 
Q 44.09375 59.90625 40.109375 62.90625 
Q 36.140625 65.921875 28.71875 65.921875 
Q 24.65625 65.921875 20.015625 65.03125 
Q 15.375 64.15625 9.8125 62.3125 
L 9.8125 71.09375 
Q 15.4375 72.65625 20.34375 73.4375 
Q 25.25 74.21875 29.59375 74.21875 
Q 40.828125 74.21875 47.359375 69.109375 
Q 53.90625 64.015625 53.90625 55.328125 
Q 53.90625 49.265625 50.4375 45.09375 
Q 46.96875 40.921875 40.578125 39.3125 
z
" id="DejaVuSans-51"/>
      </defs>
      <g transform="translate(426.22267 462.956562)scale(0.3 -0.3)">
       <use xlink:href="#DejaVuSans-51"/>
       <use x="63.623047" xlink:href="#DejaVuSans-48"/>
      </g>
     </g>
    </g>
    <g id="text_7">
     <!-- RADIUS -->
     <defs>
      <path d="M 7.328125 0 
L 7.328125 71.578125 
L 37.75 71.578125 
Q 49.21875 71.578125 54.421875 69.640625 
Q 59.625 67.71875 62.75 62.78125 
Q 65.875 57.859375 65.875 51.515625 
Q 65.875 43.453125 61.125 38.203125 
Q 56.390625 32.953125 46.96875 31.59375 
Q 51.65625 28.859375 54.703125 25.578125 
Q 57.765625 22.3125 62.9375 13.96875 
L 71.6875 0 
L 54.390625 0 
L 43.953125 15.578125 
Q 38.375 23.921875 36.328125 26.09375 
Q 34.28125 28.265625 31.984375 29.078125 
Q 29.6875 29.890625 24.703125 29.890625 
L 21.78125 29.890625 
L 21.78125 0 
z
M 21.78125 41.3125 
L 32.46875 41.3125 
Q 42.875 41.3125 45.453125 42.1875 
Q 48.046875 43.0625 49.515625 45.203125 
Q 50.984375 47.359375 50.984375 50.59375 
Q 50.984375 54.203125 49.046875 56.421875 
Q 47.125 58.640625 43.609375 59.234375 
Q 41.84375 59.46875 33.0625 59.46875 
L 21.78125 59.46875 
z
" id="Arial-BoldMT-82"/>
      <path d="M 71.828125 0 
L 56.109375 0 
L 49.859375 16.265625 
L 21.234375 16.265625 
L 15.328125 0 
L 0 0 
L 27.875 71.578125 
L 43.171875 71.578125 
z
M 45.21875 28.328125 
L 35.359375 54.890625 
L 25.6875 28.328125 
z
" id="Arial-BoldMT-65"/>
      <path d="M 7.234375 71.578125 
L 33.640625 71.578125 
Q 42.578125 71.578125 47.265625 70.21875 
Q 53.5625 68.359375 58.046875 63.625 
Q 62.546875 58.890625 64.890625 52.03125 
Q 67.234375 45.171875 67.234375 35.109375 
Q 67.234375 26.265625 65.046875 19.875 
Q 62.359375 12.0625 57.375 7.234375 
Q 53.609375 3.5625 47.21875 1.515625 
Q 42.4375 0 34.421875 0 
L 7.234375 0 
z
M 21.6875 59.46875 
L 21.6875 12.0625 
L 32.46875 12.0625 
Q 38.53125 12.0625 41.21875 12.75 
Q 44.734375 13.625 47.046875 15.71875 
Q 49.359375 17.828125 50.828125 22.625 
Q 52.296875 27.4375 52.296875 35.75 
Q 52.296875 44.046875 50.828125 48.484375 
Q 49.359375 52.9375 46.71875 55.421875 
Q 44.09375 57.90625 40.046875 58.796875 
Q 37.015625 59.46875 28.171875 59.46875 
z
" id="Arial-BoldMT-68"/>
      <path d="M 6.84375 0 
L 6.84375 71.578125 
L 21.296875 71.578125 
L 21.296875 0 
z
" id="Arial-BoldMT-73"/>
      <path d="M 7.171875 71.578125 
L 21.625 71.578125 
L 21.625 32.8125 
Q 21.625 23.578125 22.171875 20.84375 
Q 23.09375 16.453125 26.578125 13.796875 
Q 30.078125 11.140625 36.140625 11.140625 
Q 42.28125 11.140625 45.40625 13.640625 
Q 48.53125 16.15625 49.171875 19.8125 
Q 49.8125 23.484375 49.8125 31.984375 
L 49.8125 71.578125 
L 64.265625 71.578125 
L 64.265625 33.984375 
Q 64.265625 21.09375 63.09375 15.765625 
Q 61.921875 10.453125 58.765625 6.78125 
Q 55.609375 3.125 50.328125 0.953125 
Q 45.0625 -1.21875 36.578125 -1.21875 
Q 26.3125 -1.21875 21.015625 1.140625 
Q 15.71875 3.515625 12.640625 7.296875 
Q 9.578125 11.078125 8.59375 15.234375 
Q 7.171875 21.390625 7.171875 33.40625 
z
" id="Arial-BoldMT-85"/>
      <path d="M 3.609375 23.296875 
L 17.671875 24.65625 
Q 18.953125 17.578125 22.828125 14.25 
Q 26.703125 10.9375 33.296875 10.9375 
Q 40.28125 10.9375 43.8125 13.890625 
Q 47.359375 16.84375 47.359375 20.796875 
Q 47.359375 23.34375 45.875 25.125 
Q 44.390625 26.90625 40.671875 28.21875 
Q 38.140625 29.109375 29.109375 31.34375 
Q 17.484375 34.234375 12.796875 38.421875 
Q 6.203125 44.34375 6.203125 52.828125 
Q 6.203125 58.296875 9.296875 63.0625 
Q 12.40625 67.828125 18.234375 70.3125 
Q 24.078125 72.796875 32.328125 72.796875 
Q 45.796875 72.796875 52.609375 66.890625 
Q 59.421875 60.984375 59.765625 51.125 
L 45.3125 50.484375 
Q 44.390625 56 41.328125 58.421875 
Q 38.28125 60.84375 32.171875 60.84375 
Q 25.875 60.84375 22.3125 58.25 
Q 20.015625 56.59375 20.015625 53.8125 
Q 20.015625 51.265625 22.171875 49.46875 
Q 24.90625 47.171875 35.453125 44.671875 
Q 46 42.1875 51.046875 39.515625 
Q 56.109375 36.859375 58.953125 32.25 
Q 61.8125 27.640625 61.8125 20.84375 
Q 61.8125 14.703125 58.390625 9.328125 
Q 54.984375 3.953125 48.734375 1.34375 
Q 42.484375 -1.265625 33.15625 -1.265625 
Q 19.578125 -1.265625 12.296875 5 
Q 5.03125 11.28125 3.609375 23.296875 
z
" id="Arial-BoldMT-83"/>
     </defs>
     <g transform="translate(259.019688 493.51125)scale(0.2 -0.2)">
      <use xlink:href="#Arial-BoldMT-82"/>
      <use x="72.216797" xlink:href="#Arial-BoldMT-65"/>
      <use x="144.433594" xlink:href="#Arial-BoldMT-68"/>
      <use x="216.650391" xlink:href="#Arial-BoldMT-73"/>
      <use x="244.433594" xlink:href="#Arial-BoldMT-85"/>
      <use x="316.650391" xlink:href="#Arial-BoldMT-83"/>
     </g>
    </g>
   </g>
   <g id="matplotlib.axis_2">
    <g id="ytick_1">
     <g id="line2d_7">
      <defs>
       <path d="M 0 0 
L -3.5 0 
" id="mfcec93beb2" style="stroke:#000000;stroke-width:0.8;"/>
      </defs>
      <g>
       <use style="stroke:#000000;stroke-width:0.8;" x="102.055625" xlink:href="#mfcec93beb2" y="433.16125"/>
      </g>
     </g>
     <g id="text_8">
      <!-- 0 -->
      <g transform="translate(75.968125 444.558906)scale(0.3 -0.3)">
       <use xlink:href="#DejaVuSans-48"/>
      </g>
     </g>
    </g>
    <g id="ytick_2">
     <g id="line2d_8">
      <g>
       <use style="stroke:#000000;stroke-width:0.8;" x="102.055625" xlink:href="#mfcec93beb2" y="369.74125"/>
      </g>
     </g>
     <g id="text_9">
      <!-- 5 -->
      <g transform="translate(75.968125 381.138906)scale(0.3 -0.3)">
       <use xlink:href="#DejaVuSans-53"/>
      </g>
     </g>
    </g>
    <g id="ytick_3">
     <g id="line2d_9">
      <g>
       <use style="stroke:#000000;stroke-width:0.8;" x="102.055625" xlink:href="#mfcec93beb2" y="306.32125"/>
      </g>
     </g>
     <g id="text_10">
      <!-- 10 -->
      <g transform="translate(56.880625 317.718906)scale(0.3 -0.3)">
       <use xlink:href="#DejaVuSans-49"/>
       <use x="63.623047" xlink:href="#DejaVuSans-48"/>
      </g>
     </g>
    </g>
    <g id="ytick_4">
     <g id="line2d_10">
      <g>
       <use style="stroke:#000000;stroke-width:0.8;" x="102.055625" xlink:href="#mfcec93beb2" y="242.90125"/>
      </g>
     </g>
     <g id="text_11">
      <!-- 15 -->
      <g transform="translate(56.880625 254.298906)scale(0.3 -0.3)">
       <use xlink:href="#DejaVuSans-49"/>
       <use x="63.623047" xlink:href="#DejaVuSans-53"/>
      </g>
     </g>
    </g>
    <g id="ytick_5">
     <g id="line2d_11">
      <g>
       <use style="stroke:#000000;stroke-width:0.8;" x="102.055625" xlink:href="#mfcec93beb2" y="179.48125"/>
      </g>
     </g>
     <g id="text_12">
      <!-- 20 -->
      <g transform="translate(56.880625 190.878906)scale(0.3 -0.3)">
       <use xlink:href="#DejaVuSans-50"/>
       <use x="63.623047" xlink:href="#DejaVuSans-48"/>
      </g>
     </g>
    </g>
    <g id="ytick_6">
     <g id="line2d_12">
      <g>
       <use style="stroke:#000000;stroke-width:0.8;" x="102.055625" xlink:href="#mfcec93beb2" y="116.06125"/>
      </g>
     </g>
     <g id="text_13">
      <!-- 25 -->
      <g transform="translate(56.880625 127.458906)scale(0.3 -0.3)">
       <use xlink:href="#DejaVuSans-50"/>
       <use x="63.623047" xlink:href="#DejaVuSans-53"/>
      </g>
     </g>
    </g>
    <g id="ytick_7">
     <g id="line2d_13">
      <g>
       <use style="stroke:#000000;stroke-width:0.8;" x="102.055625" xlink:href="#mfcec93beb2" y="52.64125"/>
      </g>
     </g>
     <g id="text_14">
      <!-- 30 -->
      <g transform="translate(56.880625 64.038906)scale(0.3 -0.3)">
       <use xlink:href="#DejaVuSans-51"/>
       <use x="63.623047" xlink:href="#DejaVuSans-48"/>
      </g>
     </g>
    </g>
    <g id="text_15">
     <!-- CD8 LIVE NORMALIZED -->
     <defs>
      <path d="M 53.078125 26.3125 
L 67.09375 21.875 
Q 63.875 10.15625 56.375 4.46875 
Q 48.875 -1.21875 37.359375 -1.21875 
Q 23.09375 -1.21875 13.90625 8.515625 
Q 4.734375 18.265625 4.734375 35.15625 
Q 4.734375 53.03125 13.953125 62.90625 
Q 23.1875 72.796875 38.234375 72.796875 
Q 51.375 72.796875 59.578125 65.046875 
Q 64.453125 60.453125 66.890625 51.859375 
L 52.59375 48.4375 
Q 51.3125 54 47.28125 57.21875 
Q 43.265625 60.453125 37.5 60.453125 
Q 29.546875 60.453125 24.578125 54.734375 
Q 19.625 49.03125 19.625 36.234375 
Q 19.625 22.65625 24.5 16.890625 
Q 29.390625 11.140625 37.203125 11.140625 
Q 42.96875 11.140625 47.109375 14.796875 
Q 51.265625 18.453125 53.078125 26.3125 
z
" id="Arial-BoldMT-67"/>
      <path d="M 16.015625 38.625 
Q 10.6875 40.875 8.265625 44.796875 
Q 5.859375 48.734375 5.859375 53.421875 
Q 5.859375 61.421875 11.453125 66.640625 
Q 17.046875 71.875 27.34375 71.875 
Q 37.546875 71.875 43.1875 66.640625 
Q 48.828125 61.421875 48.828125 53.421875 
Q 48.828125 48.4375 46.234375 44.546875 
Q 43.65625 40.671875 38.96875 38.625 
Q 44.921875 36.234375 48.015625 31.640625 
Q 51.125 27.046875 51.125 21.046875 
Q 51.125 11.140625 44.796875 4.9375 
Q 38.484375 -1.265625 27.984375 -1.265625 
Q 18.21875 -1.265625 11.71875 3.859375 
Q 4.046875 9.90625 4.046875 20.453125 
Q 4.046875 26.265625 6.921875 31.125 
Q 9.8125 35.984375 16.015625 38.625 
z
M 18.84375 52.4375 
Q 18.84375 48.34375 21.15625 46.046875 
Q 23.484375 43.75 27.34375 43.75 
Q 31.25 43.75 33.59375 46.0625 
Q 35.9375 48.390625 35.9375 52.484375 
Q 35.9375 56.34375 33.609375 58.65625 
Q 31.296875 60.984375 27.484375 60.984375 
Q 23.53125 60.984375 21.1875 58.640625 
Q 18.84375 56.296875 18.84375 52.4375 
z
M 17.578125 21.78125 
Q 17.578125 16.109375 20.484375 12.9375 
Q 23.390625 9.765625 27.734375 9.765625 
Q 31.984375 9.765625 34.765625 12.8125 
Q 37.546875 15.875 37.546875 21.625 
Q 37.546875 26.65625 34.71875 29.703125 
Q 31.890625 32.765625 27.546875 32.765625 
Q 22.515625 32.765625 20.046875 29.296875 
Q 17.578125 25.828125 17.578125 21.78125 
z
" id="Arial-BoldMT-56"/>
      <path id="Arial-BoldMT-32"/>
      <path d="M 7.671875 0 
L 7.671875 71 
L 22.125 71 
L 22.125 12.0625 
L 58.0625 12.0625 
L 58.0625 0 
z
" id="Arial-BoldMT-76"/>
      <path d="M 25.53125 0 
L -0.046875 71.578125 
L 15.625 71.578125 
L 33.734375 18.609375 
L 51.265625 71.578125 
L 66.609375 71.578125 
L 40.96875 0 
z
" id="Arial-BoldMT-86"/>
      <path d="M 7.28125 0 
L 7.28125 71.578125 
L 60.359375 71.578125 
L 60.359375 59.46875 
L 21.734375 59.46875 
L 21.734375 43.609375 
L 57.671875 43.609375 
L 57.671875 31.546875 
L 21.734375 31.546875 
L 21.734375 12.0625 
L 61.71875 12.0625 
L 61.71875 0 
z
" id="Arial-BoldMT-69"/>
      <path d="M 7.421875 0 
L 7.421875 71.578125 
L 21.484375 71.578125 
L 50.78125 23.78125 
L 50.78125 71.578125 
L 64.203125 71.578125 
L 64.203125 0 
L 49.703125 0 
L 20.84375 46.6875 
L 20.84375 0 
z
" id="Arial-BoldMT-78"/>
      <path d="M 4.34375 35.359375 
Q 4.34375 46.296875 7.625 53.71875 
Q 10.0625 59.1875 14.28125 63.53125 
Q 18.5 67.875 23.53125 69.96875 
Q 30.21875 72.796875 38.96875 72.796875 
Q 54.78125 72.796875 64.28125 62.984375 
Q 73.78125 53.171875 73.78125 35.6875 
Q 73.78125 18.359375 64.359375 8.5625 
Q 54.9375 -1.21875 39.15625 -1.21875 
Q 23.1875 -1.21875 13.765625 8.515625 
Q 4.34375 18.265625 4.34375 35.359375 
z
M 19.234375 35.84375 
Q 19.234375 23.6875 24.84375 17.40625 
Q 30.46875 11.140625 39.109375 11.140625 
Q 47.75 11.140625 53.296875 17.359375 
Q 58.84375 23.578125 58.84375 36.03125 
Q 58.84375 48.34375 53.4375 54.390625 
Q 48.046875 60.453125 39.109375 60.453125 
Q 30.171875 60.453125 24.703125 54.3125 
Q 19.234375 48.1875 19.234375 35.84375 
z
" id="Arial-BoldMT-79"/>
      <path d="M 7.078125 0 
L 7.078125 71.578125 
L 28.71875 71.578125 
L 41.703125 22.75 
L 54.546875 71.578125 
L 76.21875 71.578125 
L 76.21875 0 
L 62.796875 0 
L 62.796875 56.34375 
L 48.578125 0 
L 34.671875 0 
L 20.515625 56.34375 
L 20.515625 0 
z
" id="Arial-BoldMT-77"/>
      <path d="M 1.078125 0 
L 1.078125 13.03125 
L 38.671875 59.46875 
L 5.328125 59.46875 
L 5.328125 71.578125 
L 57.71875 71.578125 
L 57.71875 60.359375 
L 18.5 12.0625 
L 59.234375 12.0625 
L 59.234375 0 
z
" id="Arial-BoldMT-90"/>
     </defs>
     <g transform="translate(21.253125 357.348125)rotate(-90)scale(0.2 -0.2)">
      <use xlink:href="#Arial-BoldMT-67"/>
      <use x="72.216797" xlink:href="#Arial-BoldMT-68"/>
      <use x="144.433594" xlink:href="#Arial-BoldMT-56"/>
      <use x="200.048828" xlink:href="#Arial-BoldMT-32"/>
      <use x="227.832031" xlink:href="#Arial-BoldMT-76"/>
      <use x="288.916016" xlink:href="#Arial-BoldMT-73"/>
      <use x="316.699219" xlink:href="#Arial-BoldMT-86"/>
      <use x="383.398438" xlink:href="#Arial-BoldMT-69"/>
      <use x="450.097656" xlink:href="#Arial-BoldMT-32"/>
      <use x="477.880859" xlink:href="#Arial-BoldMT-78"/>
      <use x="550.097656" xlink:href="#Arial-BoldMT-79"/>
      <use x="627.880859" xlink:href="#Arial-BoldMT-82"/>
      <use x="700.097656" xlink:href="#Arial-BoldMT-77"/>
      <use x="783.398438" xlink:href="#Arial-BoldMT-65"/>
      <use x="855.615234" xlink:href="#Arial-BoldMT-76"/>
      <use x="916.699219" xlink:href="#Arial-BoldMT-73"/>
      <use x="944.482422" xlink:href="#Arial-BoldMT-90"/>
      <use x="1005.566406" xlink:href="#Arial-BoldMT-69"/>
      <use x="1072.265625" xlink:href="#Arial-BoldMT-68"/>
     </g>
     <!-- CELL COUNTS (NUMBERS) -->
     <defs>
      <path d="M 23.390625 0 
L 23.390625 59.46875 
L 2.15625 59.46875 
L 2.15625 71.578125 
L 59.03125 71.578125 
L 59.03125 59.46875 
L 37.84375 59.46875 
L 37.84375 0 
z
" id="Arial-BoldMT-84"/>
      <path d="M 29.9375 -21.046875 
L 20.515625 -21.046875 
Q 13.03125 -9.765625 9.125 2.390625 
Q 5.21875 14.546875 5.21875 25.921875 
Q 5.21875 40.046875 10.0625 52.640625 
Q 14.265625 63.578125 20.703125 72.796875 
L 30.078125 72.796875 
Q 23.390625 58.015625 20.875 47.625 
Q 18.359375 37.25 18.359375 25.640625 
Q 18.359375 17.625 19.84375 9.21875 
Q 21.34375 0.828125 23.921875 -6.734375 
Q 25.640625 -11.71875 29.9375 -21.046875 
z
" id="Arial-BoldMT-40"/>
      <path d="M 7.328125 71.578125 
L 35.9375 71.578125 
Q 44.4375 71.578125 48.609375 70.875 
Q 52.78125 70.171875 56.078125 67.921875 
Q 59.375 65.671875 61.5625 61.9375 
Q 63.765625 58.203125 63.765625 53.5625 
Q 63.765625 48.53125 61.046875 44.328125 
Q 58.34375 40.140625 53.71875 38.03125 
Q 60.25 36.140625 63.765625 31.546875 
Q 67.28125 26.953125 67.28125 20.75 
Q 67.28125 15.875 65.015625 11.25 
Q 62.75 6.640625 58.8125 3.875 
Q 54.890625 1.125 49.125 0.484375 
Q 45.515625 0.09375 31.6875 0 
L 7.328125 0 
z
M 21.78125 59.671875 
L 21.78125 43.109375 
L 31.25 43.109375 
Q 39.703125 43.109375 41.75 43.359375 
Q 45.453125 43.796875 47.578125 45.921875 
Q 49.703125 48.046875 49.703125 51.515625 
Q 49.703125 54.828125 47.875 56.90625 
Q 46.046875 58.984375 42.4375 59.421875 
Q 40.28125 59.671875 30.078125 59.671875 
z
M 21.78125 31.203125 
L 21.78125 12.0625 
L 35.15625 12.0625 
Q 42.96875 12.0625 45.0625 12.5 
Q 48.296875 13.09375 50.3125 15.359375 
Q 52.34375 17.625 52.34375 21.4375 
Q 52.34375 24.65625 50.78125 26.90625 
Q 49.21875 29.15625 46.265625 30.171875 
Q 43.3125 31.203125 33.453125 31.203125 
z
" id="Arial-BoldMT-66"/>
      <path d="M 3.375 -21.046875 
Q 7.421875 -12.359375 9.078125 -7.71875 
Q 10.75 -3.078125 12.15625 2.96875 
Q 13.578125 9.03125 14.25 14.46875 
Q 14.9375 19.921875 14.9375 25.640625 
Q 14.9375 37.25 12.453125 47.625 
Q 9.96875 58.015625 3.265625 72.796875 
L 12.59375 72.796875 
Q 19.96875 62.3125 24.046875 50.53125 
Q 28.125 38.765625 28.125 26.65625 
Q 28.125 16.453125 24.90625 4.78125 
Q 21.234375 -8.296875 12.84375 -21.046875 
z
" id="Arial-BoldMT-41"/>
     </defs>
     <g transform="translate(42.67125 374.002812)rotate(-90)scale(0.2 -0.2)">
      <use xlink:href="#Arial-BoldMT-67"/>
      <use x="72.216797" xlink:href="#Arial-BoldMT-69"/>
      <use x="138.916016" xlink:href="#Arial-BoldMT-76"/>
      <use x="200" xlink:href="#Arial-BoldMT-76"/>
      <use x="261.068359" xlink:href="#Arial-BoldMT-32"/>
      <use x="288.851562" xlink:href="#Arial-BoldMT-67"/>
      <use x="361.068359" xlink:href="#Arial-BoldMT-79"/>
      <use x="438.851562" xlink:href="#Arial-BoldMT-85"/>
      <use x="511.068359" xlink:href="#Arial-BoldMT-78"/>
      <use x="583.285156" xlink:href="#Arial-BoldMT-84"/>
      <use x="644.369141" xlink:href="#Arial-BoldMT-83"/>
      <use x="711.068359" xlink:href="#Arial-BoldMT-32"/>
      <use x="738.851562" xlink:href="#Arial-BoldMT-40"/>
      <use x="772.152344" xlink:href="#Arial-BoldMT-78"/>
      <use x="844.369141" xlink:href="#Arial-BoldMT-85"/>
      <use x="916.585938" xlink:href="#Arial-BoldMT-77"/>
      <use x="999.886719" xlink:href="#Arial-BoldMT-66"/>
      <use x="1072.103516" xlink:href="#Arial-BoldMT-69"/>
      <use x="1138.802734" xlink:href="#Arial-BoldMT-82"/>
      <use x="1211.019531" xlink:href="#Arial-BoldMT-83"/>
      <use x="1277.71875" xlink:href="#Arial-BoldMT-41"/>
     </g>
    </g>
   </g>
   <g id="line2d_14">
    <path clip-path="url(#pbec75a4c5b)" d="M 102.055625 433.16125 
L 113.891989 431.04725 
L 125.728352 410.96425 
L 137.564716 395.813917 
L 149.40108 370.79825 
L 161.237443 350.71525 
L 173.073807 342.963917 
L 184.91017 380.91525 
L 196.746534 364.7205 
L 208.582898 371.150583 
L 220.419261 365.93605 
L 232.255625 360.708705 
L 244.091989 363.223083 
L 255.928352 349.251712 
L 267.764716 341.20225 
L 279.60108 329.15245 
L 291.437443 324.5545 
L 303.273807 336.290309 
L 315.11017 344.608139 
L 326.946534 340.924092 
L 338.782898 338.45405 
L 350.619261 343.064583 
L 362.455625 341.20225 
L 374.291989 342.351163 
L 386.128352 336.97425 
L 397.964716 346.31813 
L 409.80108 346.893788 
L 421.637443 351.419917 
L 433.473807 358.41625 
L 445.31017 359.535733 
L 457.146534 361.848983 
L 468.982898 349.692347 
L 480.819261 354.745062 
L 492.655625 370.317795 
" style="fill:none;stroke:#08306b;stroke-linecap:square;stroke-width:1.5;"/>
   </g>
   <g id="line2d_15">
    <path clip-path="url(#pbec75a4c5b)" d="M 102.055625 433.16125 
L 113.891989 399.33725 
L 125.728352 394.05225 
L 137.564716 373.96925 
L 149.40108 390.88125 
L 161.237443 393.41805 
L 173.073807 389.82425 
L 184.91017 371.25125 
L 196.746534 369.21275 
L 208.582898 366.217917 
L 220.419261 346.69865 
L 232.255625 327.076886 
L 244.091989 309.668417 
L 255.928352 315.102481 
L 267.764716 321.72325 
L 279.60108 322.38765 
L 291.437443 347.01575 
L 303.273807 345.243721 
L 315.11017 348.60125 
L 326.946534 340.701566 
L 338.782898 353.14635 
L 350.619261 351.31925 
L 362.455625 349.369977 
L 374.291989 350.71525 
L 386.128352 351.508 
L 397.964716 360.69333 
L 409.80108 357.870327 
L 421.637443 360.580583 
L 433.473807 351.54575 
L 445.31017 343.935871 
L 457.146534 345.359783 
L 468.982898 343.282153 
L 480.819261 346.024812 
L 492.655625 349.369977 
" style="fill:none;stroke:#08306b;stroke-linecap:square;stroke-width:1.5;"/>
   </g>
   <g id="line2d_16">
    <path clip-path="url(#pbec75a4c5b)" d="M 102.055625 433.16125 
L 113.891989 314.77725 
L 125.728352 360.22825 
L 137.564716 359.17125 
L 149.40108 368.68425 
L 161.237443 337.18565 
L 173.073807 338.735917 
L 184.91017 336.52125 
L 196.746534 326.6685 
L 208.582898 323.468139 
L 220.419261 349.02405 
L 232.255625 339.376523 
L 244.091989 348.953583 
L 255.928352 347.950788 
L 267.764716 338.63525 
L 279.60108 354.802317 
L 291.437443 346.619375 
L 303.273807 355.191956 
L 315.11017 351.77225 
L 326.946534 359.616303 
L 338.782898 361.39095 
L 350.619261 361.788583 
L 362.455625 354.751068 
L 374.291989 348.876989 
L 386.128352 354.679 
L 397.964716 339.80701 
L 409.80108 325.753788 
L 421.637443 328.792287 
L 433.473807 334.10525 
L 445.31017 338.468629 
L 457.146534 338.45405 
L 468.982898 338.372218 
L 480.819261 340.475562 
L 492.655625 356.672886 
" style="fill:none;stroke:#08306b;stroke-linecap:square;stroke-width:1.5;"/>
   </g>
   <g id="line2d_17">
    <path clip-path="url(#pbec75a4c5b)" d="M 102.055625 433.16125 
L 113.891989 373.96925 
L 125.728352 377.14025 
L 137.564716 319.00525 
L 149.40108 275.66825 
L 161.237443 286.44965 
L 173.073807 329.222917 
L 184.91017 345.27925 
L 196.746534 355.2075 
L 208.582898 377.257694 
L 220.419261 342.04785 
L 232.255625 359.939977 
L 244.091989 345.254083 
L 255.928352 335.91725 
L 267.764716 342.41025 
L 279.60108 345.077917 
L 291.437443 329.971625 
L 303.273807 328.083015 
L 315.11017 335.91725 
L 326.946534 358.058618 
L 338.782898 342.47065 
L 350.619261 351.721917 
L 362.455625 347.448159 
L 374.291989 345.56812 
L 386.128352 345.518333 
L 397.964716 348.43213 
L 409.80108 350.633942 
L 421.637443 349.462509 
L 433.473807 345.43025 
L 445.31017 345.466698 
L 457.146534 347.614717 
L 468.982898 352.82925 
L 480.819261 349.724312 
L 492.655625 364.039856 
" style="fill:none;stroke:#08306b;stroke-linecap:square;stroke-width:1.5;"/>
   </g>
   <g id="line2d_18">
    <path clip-path="url(#pbec75a4c5b)" d="M 102.055625 331.68925 
L 113.891989 348.60125 
L 125.728352 313.72025 
L 137.564716 328.165917 
L 149.40108 352.30075 
L 161.237443 352.40645 
L 173.073807 370.093583 
L 184.91017 374.57325 
L 196.746534 384.275 
L 208.582898 377.492583 
L 220.419261 360.43965 
L 232.255625 363.207068 
L 244.091989 362.518417 
L 255.928352 343.722788 
L 267.764716 339.69225 
L 279.60108 332.816717 
L 291.437443 320.59075 
L 303.273807 316.766897 
L 315.11017 326.874028 
L 326.946534 344.37325 
L 338.782898 364.56195 
L 350.619261 383.63325 
L 362.455625 388.382886 
L 374.291989 382.149511 
L 386.128352 370.710167 
L 397.964716 355.28149 
L 409.80108 338.275173 
L 421.637443 336.856806 
L 433.473807 341.73075 
L 445.31017 335.042491 
L 457.146534 336.410517 
L 468.982898 336.599185 
L 480.819261 338.625812 
L 492.655625 351.868341 
" style="fill:none;stroke:#08306b;stroke-linecap:square;stroke-width:1.5;"/>
   </g>
   <g id="line2d_19">
    <path clip-path="url(#pbec75a4c5b)" d="M 102.055625 433.16125 
L 113.891989 378.19725 
L 125.728352 325.34725 
L 137.564716 343.668583 
L 149.40108 373.44075 
L 161.237443 376.92885 
L 173.073807 388.414917 
L 184.91017 377.29125 
L 196.746534 379.78275 
L 208.582898 376.08325 
L 220.419261 354.30905 
L 232.255625 332.457977 
L 244.091989 344.197083 
L 255.928352 346.812481 
L 267.764716 348.14825 
L 279.60108 337.326583 
L 291.437443 324.026 
L 303.273807 331.191838 
L 315.11017 341.319694 
L 326.946534 330.242829 
L 338.782898 348.49555 
L 350.619261 340.44725 
L 362.455625 349.369977 
L 374.291989 362.663946 
L 386.128352 368.42 
L 397.964716 379.88845 
L 409.80108 382.587865 
L 421.637443 375.535176 
L 433.473807 373.36525 
L 445.31017 361.431043 
L 457.146534 352.970183 
L 468.982898 348.192089 
L 480.819261 344.90175 
L 492.655625 348.345008 
" style="fill:none;stroke:#08306b;stroke-linecap:square;stroke-width:1.5;"/>
   </g>
   <g id="line2d_20">
    <path clip-path="url(#pbec75a4c5b)" d="M 102.055625 433.16125 
L 113.891989 416.24925 
L 125.728352 407.79325 
L 137.564716 385.948583 
L 149.40108 360.22825 
L 161.237443 350.71525 
L 173.073807 346.134917 
L 184.91017 350.71525 
L 196.746534 340.14525 
L 208.582898 324.407694 
L 220.419261 336.12865 
L 232.255625 346.679432 
L 244.091989 345.606417 
L 255.928352 347.300327 
L 267.764716 346.18525 
L 279.60108 339.29965 
L 291.437443 335.256625 
L 303.273807 326.217721 
L 315.11017 337.913806 
L 326.946534 324.679671 
L 338.782898 335.91725 
L 350.619261 337.930583 
L 362.455625 343.796705 
L 374.291989 358.344033 
L 386.128352 346.927667 
L 397.964716 352.82925 
L 409.80108 359.659096 
L 421.637443 358.075102 
L 433.473807 357.51025 
L 445.31017 342.769526 
L 457.146534 345.077917 
L 468.982898 342.463831 
L 480.819261 334.33175 
L 492.655625 338.992159 
" style="fill:none;stroke:#08306b;stroke-linecap:square;stroke-width:1.5;"/>
   </g>
   <g id="line2d_21">
    <path clip-path="url(#pbec75a4c5b)" d="M 102.055625 344.37325 
L 113.891989 365.51325 
L 125.728352 335.91725 
L 137.564716 328.165917 
L 149.40108 329.57525 
L 161.237443 308.43525 
L 173.073807 302.445583 
L 184.91017 306.92525 
L 196.746534 310.8135 
L 208.582898 353.064139 
L 220.419261 361.28525 
L 232.255625 335.725068 
L 244.091989 350.891417 
L 255.928352 368.115096 
L 267.764716 365.66425 
L 279.60108 371.85525 
L 291.437443 364.324125 
L 303.273807 359.668662 
L 315.11017 340.967361 
L 326.946534 334.025776 
L 338.782898 336.86855 
L 350.619261 353.030583 
L 362.455625 361.189159 
L 374.291989 363.950728 
L 386.128352 355.736 
L 397.964716 344.45781 
L 409.80108 356.00025 
L 421.637443 357.840213 
L 433.473807 361.88925 
L 445.31017 361.431043 
L 457.146534 349.65825 
L 468.982898 340.827185 
L 480.819261 334.0675 
L 492.655625 345.013856 
" style="fill:none;stroke:#08306b;stroke-linecap:square;stroke-width:1.5;"/>
   </g>
   <g id="line2d_22">
    <path clip-path="url(#pbec75a4c5b)" d="M 102.055625 433.16125 
L 113.891989 359.17125 
L 125.728352 358.11425 
L 137.564716 394.404583 
L 149.40108 399.33725 
L 161.237443 395.95485 
L 173.073807 391.585917 
L 184.91017 387.86125 
L 196.746534 376.08325 
L 208.582898 371.385472 
L 220.419261 367.20445 
L 232.255625 376.851977 
L 244.091989 361.81375 
L 255.928352 353.804942 
L 267.764716 346.03425 
L 279.60108 354.661383 
L 291.437443 352.961375 
L 303.273807 365.140191 
L 315.11017 360.110806 
L 326.946534 355.277039 
L 338.782898 344.69035 
L 350.619261 348.701917 
L 362.455625 346.967705 
L 374.291989 347.957859 
L 386.128352 343.668583 
L 397.964716 348.93949 
L 409.80108 343.966712 
L 421.637443 346.408954 
L 433.473807 345.35475 
L 445.31017 342.769526 
L 457.146534 338.66545 
L 468.982898 331.757444 
L 480.819261 331.68925 
L 492.655625 327.845614 
" style="fill:none;stroke:#08306b;stroke-linecap:square;stroke-width:1.5;"/>
   </g>
   <g id="line2d_23">
    <path clip-path="url(#pbec75a4c5b)" d="M 102.055625 433.16125 
L 113.891989 409.90725 
L 125.728352 379.25425 
L 137.564716 400.041917 
L 149.40108 388.76725 
L 161.237443 377.77445 
L 173.073807 357.05725 
L 184.91017 336.82325 
L 196.746534 349.394 
L 208.582898 327.226361 
L 220.419261 312.66325 
L 232.255625 334.956341 
L 244.091989 352.124583 
L 255.928352 359.333865 
L 267.764716 364.30525 
L 279.60108 353.67485 
L 291.437443 359.831875 
L 303.273807 364.518426 
L 315.11017 354.238583 
L 326.946534 337.919987 
L 338.782898 344.47895 
L 350.619261 336.722583 
L 362.455625 333.418886 
L 374.291989 336.192989 
L 386.128352 352.476917 
L 397.964716 361.62349 
L 409.80108 364.45625 
L 421.637443 359.562731 
L 433.473807 353.65975 
L 445.31017 342.405043 
L 457.146534 341.20225 
L 468.982898 340.213444 
L 480.819261 350.71525 
L 492.655625 364.296098 
" style="fill:none;stroke:#08306b;stroke-linecap:square;stroke-width:1.5;"/>
   </g>
   <g id="line2d_24">
    <path clip-path="url(#pbec75a4c5b)" d="M 102.055625 433.16125 
L 113.891989 433.16125 
L 125.728352 414.13525 
L 137.564716 392.99525 
L 149.40108 386.12475 
L 161.237443 387.49885 
L 173.073807 387.005583 
L 184.91017 394.50525 
L 196.746534 404.09375 
L 208.582898 413.900361 
L 220.419261 413.71245 
L 232.255625 414.711795 
L 244.091989 406.383917 
L 255.928352 400.475558 
L 267.764716 396.46825 
L 279.60108 395.250183 
L 291.437443 392.598875 
L 303.273807 388.891603 
L 315.11017 397.693028 
L 326.946534 390.658724 
L 338.782898 395.10925 
L 350.619261 395.41125 
L 362.455625 394.244432 
L 374.291989 401.359337 
L 386.128352 398.104083 
L 397.964716 397.39237 
L 409.80108 397.792404 
L 421.637443 397.84962 
L 433.473807 394.95825 
L 445.31017 399.11856 
L 457.146534 393.41805 
L 468.982898 386.175895 
L 480.819261 390.418812 
L 492.655625 391.457795 
" style="fill:none;stroke:#4a98c9;stroke-linecap:square;stroke-width:1.5;"/>
   </g>
   <g id="line2d_25">
    <path clip-path="url(#pbec75a4c5b)" d="M 102.055625 433.16125 
L 113.891989 418.36325 
L 125.728352 409.90725 
L 137.564716 392.290583 
L 149.40108 408.85025 
L 161.237443 405.67925 
L 173.073807 396.16625 
L 184.91017 399.03525 
L 196.746534 411.2285 
L 208.582898 402.625694 
L 220.419261 409.48445 
L 232.255625 398.376341 
L 244.091989 381.720583 
L 255.928352 387.141096 
L 267.764716 381.82125 
L 279.60108 377.210717 
L 291.437443 382.293125 
L 303.273807 389.762074 
L 315.11017 392.877806 
L 326.946534 398.447145 
L 338.782898 403.03675 
L 350.619261 397.424583 
L 362.455625 394.820977 
L 374.291989 399.521076 
L 386.128352 395.3735 
L 397.964716 401.36669 
L 409.80108 399.499865 
L 421.637443 396.59688 
L 433.473807 397.29875 
L 445.31017 395.619526 
L 457.146534 388.062583 
L 468.982898 385.289379 
L 480.819261 386.455062 
L 492.655625 400.041917 
" style="fill:none;stroke:#4a98c9;stroke-linecap:square;stroke-width:1.5;"/>
   </g>
   <g id="line2d_26">
    <path clip-path="url(#pbec75a4c5b)" d="M 102.055625 433.16125 
L 113.891989 409.90725 
L 125.728352 410.96425 
L 137.564716 397.927917 
L 149.40108 388.23875 
L 161.237443 402.29685 
L 173.073807 395.813917 
L 184.91017 392.39125 
L 196.746534 394.05225 
L 208.582898 388.532361 
L 220.419261 384.32785 
L 232.255625 391.842159 
L 244.091989 398.28025 
L 255.928352 397.711096 
L 267.764716 402.05525 
L 279.60108 407.37045 
L 291.437443 404.490125 
L 303.273807 401.948662 
L 315.11017 404.62225 
L 326.946534 402.341355 
L 338.782898 401.34555 
L 350.619261 400.142583 
L 362.455625 398.472432 
L 374.291989 397.039424 
L 386.128352 393.171417 
L 397.964716 394.00997 
L 409.80108 394.214865 
L 421.637443 396.753472 
L 433.473807 401.75325 
L 445.31017 399.410147 
L 457.146534 395.10925 
L 468.982898 385.152992 
L 480.819261 391.806125 
L 492.655625 408.241674 
" style="fill:none;stroke:#4a98c9;stroke-linecap:square;stroke-width:1.5;"/>
   </g>
   <g id="line2d_27">
    <path clip-path="url(#pbec75a4c5b)" d="M 102.055625 382.42525 
L 113.891989 403.56525 
L 125.728352 392.99525 
L 137.564716 374.673917 
L 149.40108 365.51325 
L 161.237443 382.00245 
L 173.073807 376.787917 
L 184.91017 387.55925 
L 196.746534 390.35275 
L 208.582898 412.725917 
L 220.419261 412.02125 
L 232.255625 405.487068 
L 244.091989 394.404583 
L 255.928352 396.572788 
L 267.764716 400.99825 
L 279.60108 400.887517 
L 291.437443 398.676625 
L 303.273807 392.373485 
L 315.11017 391.820806 
L 326.946534 387.654618 
L 338.782898 394.15795 
L 350.619261 391.18325 
L 362.455625 391.169523 
L 374.291989 382.241424 
L 386.128352 376.171333 
L 397.964716 382.93261 
L 409.80108 393.076558 
L 421.637443 399.102361 
L 433.473807 398.12925 
L 445.31017 394.817664 
L 457.146534 394.193183 
L 468.982898 393.404411 
L 480.819261 395.63775 
L 492.655625 406.76828 
" style="fill:none;stroke:#4a98c9;stroke-linecap:square;stroke-width:1.5;"/>
   </g>
   <g id="line2d_28">
    <path clip-path="url(#pbec75a4c5b)" d="M 102.055625 395.10925 
L 113.891989 403.56525 
L 125.728352 377.14025 
L 137.564716 397.927917 
L 149.40108 394.05225 
L 161.237443 387.92165 
L 173.073807 393.347583 
L 184.91017 403.86725 
L 196.746534 408.586 
L 208.582898 405.444361 
L 220.419261 398.06885 
L 232.255625 388.190705 
L 244.091989 392.819083 
L 255.928352 391.694327 
L 267.764716 391.78725 
L 279.60108 381.720583 
L 291.437443 378.593625 
L 303.273807 385.534074 
L 315.11017 388.062583 
L 326.946534 397.22325 
L 338.782898 407.47615 
L 350.619261 409.202583 
L 362.455625 416.24925 
L 374.291989 410.458728 
L 386.128352 403.8295 
L 397.964716 397.56149 
L 409.80108 387.791558 
L 421.637443 389.706806 
L 433.473807 385.67175 
L 445.31017 392.703664 
L 457.146534 388.485383 
L 468.982898 390.608476 
L 480.819261 396.100187 
L 492.655625 410.419735 
" style="fill:none;stroke:#4a98c9;stroke-linecap:square;stroke-width:1.5;"/>
   </g>
   <g id="line2d_29">
    <path clip-path="url(#pbec75a4c5b)" d="M 102.055625 433.16125 
L 113.891989 431.04725 
L 125.728352 404.62225 
L 137.564716 401.45125 
L 149.40108 422.06275 
L 161.237443 417.94045 
L 173.073807 413.782917 
L 184.91017 417.75925 
L 196.746534 409.643 
L 208.582898 403.56525 
L 220.419261 400.60565 
L 232.255625 400.105977 
L 244.091989 401.627417 
L 255.928352 389.742942 
L 267.764716 389.82425 
L 279.60108 384.53925 
L 291.437443 378.19725 
L 303.273807 381.306074 
L 315.11017 385.713694 
L 326.946534 384.427987 
L 338.782898 385.17345 
L 350.619261 382.223917 
L 362.455625 390.304705 
L 374.291989 398.510033 
L 386.128352 392.554833 
L 397.964716 407.96237 
L 409.80108 408.606327 
L 421.637443 408.341324 
L 433.473807 409.37875 
L 445.31017 404.804491 
L 457.146534 390.740317 
L 468.982898 377.515315 
L 480.819261 381.170062 
L 492.655625 391.009371 
" style="fill:none;stroke:#4a98c9;stroke-linecap:square;stroke-width:1.5;"/>
   </g>
   <g id="line2d_30">
    <path clip-path="url(#pbec75a4c5b)" d="M 102.055625 433.16125 
L 113.891989 424.70525 
L 125.728352 416.24925 
L 137.564716 399.33725 
L 149.40108 404.09375 
L 161.237443 408.21605 
L 173.073807 412.373583 
L 184.91017 410.51125 
L 196.746534 413.871 
L 208.582898 401.686139 
L 220.419261 399.97145 
L 232.255625 396.454523 
L 244.091989 393.876083 
L 255.928352 391.369096 
L 267.764716 385.59625 
L 279.60108 399.900983 
L 291.437443 396.826875 
L 303.273807 391.378662 
L 315.11017 385.948583 
L 326.946534 387.432092 
L 338.782898 397.11755 
L 350.619261 390.176583 
L 362.455625 395.397523 
L 374.291989 394.925424 
L 386.128352 398.80875 
L 397.964716 396.20853 
L 409.80108 399.987712 
L 421.637443 396.205398 
L 433.473807 399.18625 
L 445.31017 396.421388 
L 457.146534 395.602517 
L 468.982898 389.790153 
L 480.819261 388.899375 
L 492.655625 402.668402 
" style="fill:none;stroke:#4a98c9;stroke-linecap:square;stroke-width:1.5;"/>
   </g>
   <g id="line2d_31">
    <path clip-path="url(#pbec75a4c5b)" d="M 102.055625 407.79325 
L 113.891989 380.31125 
L 125.728352 403.56525 
L 137.564716 392.99525 
L 149.40108 388.23875 
L 161.237443 392.14965 
L 173.073807 396.870917 
L 184.91017 388.46525 
L 196.746534 390.88125 
L 208.582898 395.344139 
L 220.419261 387.71025 
L 232.255625 381.464341 
L 244.091989 388.591083 
L 255.928352 396.735404 
L 267.764716 395.10925 
L 279.60108 392.854317 
L 291.437443 383.878625 
L 303.273807 384.414897 
L 315.11017 390.998694 
L 326.946534 392.661461 
L 338.782898 388.34445 
L 350.619261 392.793917 
L 362.455625 402.316068 
L 374.291989 403.197598 
L 386.128352 395.197333 
L 397.964716 394.34821 
L 409.80108 394.702712 
L 421.637443 400.746583 
L 433.473807 401.97975 
L 445.31017 401.961526 
L 457.146534 392.78385 
L 468.982898 393.745379 
L 480.819261 391.740062 
L 492.655625 403.821492 
" style="fill:none;stroke:#4a98c9;stroke-linecap:square;stroke-width:1.5;"/>
   </g>
   <g id="line2d_32">
    <path clip-path="url(#pbec75a4c5b)" d="M 102.055625 382.42525 
L 113.891989 405.67925 
L 125.728352 410.96425 
L 137.564716 415.544583 
L 149.40108 417.30625 
L 161.237443 417.09485 
L 173.073807 420.47725 
L 184.91017 407.49125 
L 196.746534 406.20775 
L 208.582898 397.927917 
L 220.419261 383.05945 
L 232.255625 389.151614 
L 244.091989 386.65325 
L 255.928352 394.296173 
L 267.764716 384.99225 
L 279.60108 394.68645 
L 291.437443 391.277625 
L 303.273807 398.591132 
L 315.11017 396.518583 
L 326.946534 385.095566 
L 338.782898 391.51545 
L 350.619261 389.97525 
L 362.455625 388.190705 
L 374.291989 384.171598 
L 386.128352 383.922667 
L 397.964716 386.99149 
L 409.80108 390.718635 
L 421.637443 393.856509 
L 433.473807 392.39125 
L 445.31017 401.23256 
L 457.146534 388.55585 
L 468.982898 379.833895 
L 480.819261 379.122125 
L 492.655625 393.123371 
" style="fill:none;stroke:#4a98c9;stroke-linecap:square;stroke-width:1.5;"/>
   </g>
   <g id="line2d_33">
    <path clip-path="url(#pbec75a4c5b)" d="M 102.055625 433.16125 
L 113.891989 433.16125 
L 125.728352 428.93325 
L 137.564716 424.70525 
L 149.40108 414.66375 
L 161.237443 398.91445 
L 173.073807 397.22325 
L 184.91017 372.45925 
L 196.746534 373.705 
L 208.582898 370.915694 
L 220.419261 381.36825 
L 232.255625 390.88125 
L 244.091989 385.59625 
L 255.928352 399.174635 
L 267.764716 398.28025 
L 279.60108 398.209783 
L 291.437443 399.073 
L 303.273807 405.181838 
L 315.11017 393.699917 
L 326.946534 394.441671 
L 338.782898 392.88955 
L 350.619261 393.800583 
L 362.455625 392.034341 
L 374.291989 402.186554 
L 386.128352 395.461583 
L 397.964716 404.15717 
L 409.80108 399.825096 
L 421.637443 393.386731 
L 433.473807 388.31425 
L 445.31017 389.642009 
L 457.146534 386.371383 
L 468.982898 380.31125 
L 480.819261 387.18175 
L 492.655625 396.838886 
" style="fill:none;stroke:#4a98c9;stroke-linecap:square;stroke-width:1.5;"/>
   </g>
   <g id="line2d_34">
    <path clip-path="url(#pbec75a4c5b)" d="M 102.055625 433.16125 
L 113.891989 426.81925 
L 125.728352 394.05225 
L 137.564716 398.632583 
L 149.40108 400.92275 
L 161.237443 399.33725 
L 173.073807 397.575583 
L 184.91017 401.45125 
L 196.746534 408.0575 
L 208.582898 402.625694 
L 220.419261 408.21605 
L 232.255625 417.402341 
L 244.091989 405.855417 
L 255.928352 409.094173 
L 267.764716 407.64225 
L 279.60108 400.323783 
L 291.437443 402.640375 
L 303.273807 401.575603 
L 315.11017 406.971139 
L 326.946534 406.013039 
L 338.782898 407.05335 
L 350.619261 407.591917 
L 362.455625 409.522886 
L 374.291989 409.171946 
L 386.128352 406.648167 
L 397.964716 409.48445 
L 409.80108 405.760558 
L 421.637443 409.437472 
L 433.473807 408.69925 
L 445.31017 406.699802 
L 457.146534 403.706183 
L 468.982898 402.951508 
L 480.819261 410.1715 
L 492.655625 418.555432 
" style="fill:none;stroke:#d0e1f2;stroke-linecap:square;stroke-width:1.5;"/>
   </g>
   <g id="line2d_35">
    <path clip-path="url(#pbec75a4c5b)" d="M 102.055625 433.16125 
L 113.891989 412.02125 
L 125.728352 419.42025 
L 137.564716 383.834583 
L 149.40108 386.65325 
L 161.237443 393.84085 
L 173.073807 397.575583 
L 184.91017 409.60525 
L 196.746534 419.6845 
L 208.582898 413.665472 
L 220.419261 412.65545 
L 232.255625 397.22325 
L 244.091989 398.80875 
L 255.928352 397.548481 
L 267.764716 395.71325 
L 279.60108 392.431517 
L 291.437443 405.282875 
L 303.273807 412.767368 
L 315.11017 408.732806 
L 326.946534 412.132513 
L 338.782898 411.38705 
L 350.619261 407.994583 
L 362.455625 403.373068 
L 374.291989 405.219685 
L 386.128352 408.32175 
L 397.964716 404.24173 
L 409.80108 402.345635 
L 421.637443 406.383917 
L 433.473807 403.64075 
L 445.31017 405.241871 
L 457.146534 406.383917 
L 468.982898 408.679766 
L 480.819261 408.916312 
L 492.655625 417.210159 
" style="fill:none;stroke:#d0e1f2;stroke-linecap:square;stroke-width:1.5;"/>
   </g>
   <g id="line2d_36">
    <path clip-path="url(#pbec75a4c5b)" d="M 102.055625 433.16125 
L 113.891989 412.02125 
L 125.728352 402.50825 
L 137.564716 395.813917 
L 149.40108 396.16625 
L 161.237443 398.49165 
L 173.073807 402.155917 
L 184.91017 409.00125 
L 196.746534 400.6585 
L 208.582898 401.45125 
L 220.419261 405.46785 
L 232.255625 407.408886 
L 244.091989 398.80875 
L 255.928352 398.524173 
L 267.764716 401.30025 
L 279.60108 405.115517 
L 291.437443 399.205125 
L 303.273807 407.295838 
L 315.11017 408.967694 
L 326.946534 409.684724 
L 338.782898 410.54145 
L 350.619261 412.92725 
L 362.455625 412.501705 
L 374.291989 410.458728 
L 386.128352 408.85025 
L 397.964716 409.90725 
L 409.80108 407.549327 
L 421.637443 404.817991 
L 433.473807 405.30175 
L 445.31017 404.367112 
L 457.146534 404.340383 
L 468.982898 397.564218 
L 480.819261 408.586 
L 492.655625 419.067917 
" style="fill:none;stroke:#d0e1f2;stroke-linecap:square;stroke-width:1.5;"/>
   </g>
   <g id="line2d_37">
    <path clip-path="url(#pbec75a4c5b)" d="M 102.055625 433.16125 
L 113.891989 409.90725 
L 125.728352 409.90725 
L 137.564716 409.202583 
L 149.40108 407.26475 
L 161.237443 398.06885 
L 173.073807 408.145583 
L 184.91017 392.69325 
L 196.746534 409.1145 
L 208.582898 411.316583 
L 220.419261 410.96425 
L 232.255625 410.675977 
L 244.091989 407.26475 
L 255.928352 401.288635 
L 267.764716 408.24625 
L 279.60108 404.41085 
L 291.437443 403.03675 
L 303.273807 400.332074 
L 315.11017 402.743139 
L 326.946534 409.684724 
L 338.782898 409.06165 
L 350.619261 409.504583 
L 362.455625 412.213432 
L 374.291989 404.392467 
L 386.128352 408.409833 
L 397.964716 408.97709 
L 409.80108 406.411019 
L 421.637443 405.287769 
L 433.473807 404.32025 
L 445.31017 398.462491 
L 457.146534 395.884383 
L 468.982898 400.019185 
L 480.819261 407.396875 
L 492.655625 414.903977 
" style="fill:none;stroke:#d0e1f2;stroke-linecap:square;stroke-width:1.5;"/>
   </g>
   <g id="line2d_38">
    <path clip-path="url(#pbec75a4c5b)" d="M 102.055625 433.16125 
L 113.891989 414.13525 
L 125.728352 394.05225 
L 137.564716 410.611917 
L 149.40108 417.30625 
L 161.237443 409.48445 
L 173.073807 414.13525 
L 184.91017 416.55125 
L 196.746534 414.66375 
L 208.582898 416.014361 
L 220.419261 417.94045 
L 232.255625 412.597795 
L 244.091989 410.96425 
L 255.928352 404.866173 
L 267.764716 400.84725 
L 279.60108 392.854317 
L 291.437443 398.412375 
L 303.273807 394.736191 
L 315.11017 395.579028 
L 326.946534 406.680618 
L 338.782898 404.72795 
L 350.619261 407.79325 
L 362.455625 416.153159 
L 374.291989 414.502902 
L 386.128352 409.290667 
L 397.964716 410.33005 
L 409.80108 404.62225 
L 421.637443 405.209472 
L 433.473807 402.20625 
L 445.31017 404.950284 
L 457.146534 403.283383 
L 468.982898 406.429379 
L 480.819261 412.02125 
L 492.655625 419.45228 
" style="fill:none;stroke:#d0e1f2;stroke-linecap:square;stroke-width:1.5;"/>
   </g>
   <g id="line2d_39">
    <path clip-path="url(#pbec75a4c5b)" d="M 102.055625 357.05725 
L 113.891989 431.04725 
L 125.728352 402.50825 
L 137.564716 409.90725 
L 149.40108 421.53425 
L 161.237443 425.55085 
L 173.073807 425.057583 
L 184.91017 415.64525 
L 196.746534 417.5705 
L 208.582898 407.558361 
L 220.419261 399.97145 
L 232.255625 394.917068 
L 244.091989 398.984917 
L 255.928352 405.516635 
L 267.764716 409.15225 
L 279.60108 403.424317 
L 291.437443 400.13 
L 303.273807 395.233603 
L 315.11017 398.984917 
L 326.946534 396.221882 
L 338.782898 399.65435 
L 350.619261 403.56525 
L 362.455625 405.102705 
L 374.291989 408.620467 
L 386.128352 410.788083 
L 397.964716 410.92197 
L 409.80108 407.711942 
L 421.637443 412.725917 
L 433.473807 415.87175 
L 445.31017 409.396974 
L 457.146534 404.692717 
L 468.982898 396.06396 
L 480.819261 396.100187 
L 492.655625 410.740038 
" style="fill:none;stroke:#d0e1f2;stroke-linecap:square;stroke-width:1.5;"/>
   </g>
   <g id="line2d_40">
    <path clip-path="url(#pbec75a4c5b)" d="M 102.055625 433.16125 
L 113.891989 416.24925 
L 125.728352 425.76225 
L 137.564716 411.316583 
L 149.40108 411.49275 
L 161.237443 419.63165 
L 173.073807 409.202583 
L 184.91017 409.30325 
L 196.746534 412.2855 
L 208.582898 396.283694 
L 220.419261 397.64605 
L 232.255625 402.796523 
L 244.091989 404.798417 
L 255.928352 405.516635 
L 267.764716 408.09525 
L 279.60108 403.283383 
L 291.437443 408.453875 
L 303.273807 402.073015 
L 315.11017 400.276806 
L 326.946534 402.230092 
L 338.782898 408.21605 
L 350.619261 404.370583 
L 362.455625 404.718341 
L 374.291989 405.127772 
L 386.128352 408.32175 
L 397.964716 409.48445 
L 409.80108 409.338096 
L 421.637443 409.672361 
L 433.473807 406.05675 
L 445.31017 407.720353 
L 457.146534 407.088583 
L 468.982898 403.497056 
L 480.819261 405.811375 
L 492.655625 417.082038 
" style="fill:none;stroke:#d0e1f2;stroke-linecap:square;stroke-width:1.5;"/>
   </g>
   <g id="line2d_41">
    <path clip-path="url(#pbec75a4c5b)" d="M 102.055625 280.95325 
L 113.891989 395.10925 
L 125.728352 378.19725 
L 137.564716 386.65325 
L 149.40108 384.01075 
L 161.237443 397.22325 
L 173.073807 395.10925 
L 184.91017 393.59925 
L 196.746534 400.39425 
L 208.582898 399.102361 
L 220.419261 402.50825 
L 232.255625 398.376341 
L 244.091989 402.684417 
L 255.928352 411.370788 
L 267.764716 412.32325 
L 279.60108 412.44405 
L 291.437443 413.474625 
L 303.273807 411.896897 
L 315.11017 408.028139 
L 326.946534 404.121566 
L 338.782898 398.70305 
L 350.619261 408.598583 
L 362.455625 406.351886 
L 374.291989 406.690293 
L 386.128352 400.306167 
L 397.964716 397.22325 
L 409.80108 400.556865 
L 421.637443 411.159991 
L 433.473807 409.45425 
L 445.31017 407.282974 
L 457.146534 409.132117 
L 468.982898 411.339315 
L 480.819261 411.955187 
L 492.655625 424.384947 
" style="fill:none;stroke:#d0e1f2;stroke-linecap:square;stroke-width:1.5;"/>
   </g>
   <g id="line2d_42">
    <path clip-path="url(#pbec75a4c5b)" d="M 102.055625 420.47725 
L 113.891989 424.70525 
L 125.728352 429.99025 
L 137.564716 429.637917 
L 149.40108 421.00575 
L 161.237443 416.24925 
L 173.073807 411.316583 
L 184.91017 409.90725 
L 196.746534 409.37875 
L 208.582898 408.732806 
L 220.419261 397.43465 
L 232.255625 407.985432 
L 244.091989 401.97975 
L 255.928352 403.077404 
L 267.764716 401.45125 
L 279.60108 406.242983 
L 291.437443 407.26475 
L 303.273807 408.912426 
L 315.11017 410.494472 
L 326.946534 407.459461 
L 338.782898 406.20775 
L 350.619261 405.07525 
L 362.455625 408.85025 
L 374.291989 407.333685 
L 386.128352 406.295833 
L 397.964716 412.78229 
L 409.80108 410.557712 
L 421.637443 408.576213 
L 433.473807 406.81175 
L 445.31017 404.075526 
L 457.146534 399.900983 
L 468.982898 399.814605 
L 480.819261 402.574312 
L 492.655625 414.968038 
" style="fill:none;stroke:#d0e1f2;stroke-linecap:square;stroke-width:1.5;"/>
   </g>
   <g id="line2d_43">
    <path clip-path="url(#pbec75a4c5b)" d="M 102.055625 433.16125 
L 113.891989 426.81925 
L 125.728352 425.76225 
L 137.564716 426.81925 
L 149.40108 415.72075 
L 161.237443 409.48445 
L 173.073807 404.269917 
L 184.91017 379.70725 
L 196.746534 397.4875 
L 208.582898 390.176583 
L 220.419261 395.32065 
L 232.255625 402.027795 
L 244.091989 407.617083 
L 255.928352 409.582019 
L 267.764716 404.47125 
L 279.60108 409.48445 
L 291.437443 412.417625 
L 303.273807 404.560074 
L 315.11017 403.56525 
L 326.946534 405.345461 
L 338.782898 408.21605 
L 350.619261 410.108583 
L 362.455625 406.447977 
L 374.291989 407.977076 
L 386.128352 407.176667 
L 397.964716 412.52861 
L 409.80108 409.419404 
L 421.637443 409.90725 
L 433.473807 406.73625 
L 445.31017 401.66994 
L 457.146534 404.692717 
L 468.982898 406.565766 
L 480.819261 409.576937 
L 492.655625 418.107008 
" style="fill:none;stroke:#d0e1f2;stroke-linecap:square;stroke-width:1.5;"/>
   </g>
   <g id="line2d_44">
    <path clip-path="url(#pbec75a4c5b)" d="M 102.055625 395.10925 
L 113.891989 409.90725 
L 125.728352 382.42525 
L 137.564716 375.378583 
L 149.40108 359.69975 
L 161.237443 364.66765 
L 173.073807 360.580583 
L 184.91017 357.96325 
L 196.746534 369.74125 
L 208.582898 381.955472 
L 220.419261 386.65325 
L 232.255625 393.956159 
L 244.091989 405.855417 
L 255.928352 376.08325 
L 267.764716 354.49025 
L 279.60108 336.480983 
L 291.437443 338.163375 
L 303.273807 356.559838 
L 315.11017 354.708361 
L 326.946534 346.264724 
L 338.782898 350.29245 
L 350.619261 356.654583 
L 362.455625 364.264068 
L 374.291989 369.74125 
L 386.128352 368.15575 
L 397.964716 376.42149 
L 409.80108 376.164558 
L 421.637443 370.054435 
L 433.473807 369.06175 
L 445.31017 376.666422 
L 457.146534 370.939183 
L 468.982898 367.900024 
L 480.819261 366.438125 
L 492.655625 382.233068 
" style="fill:none;stroke:#1764ab;stroke-linecap:square;stroke-width:1.5;"/>
   </g>
   <g id="line2d_45">
    <path clip-path="url(#pbec75a4c5b)" d="M 102.055625 420.47725 
L 113.891989 403.56525 
L 125.728352 400.39425 
L 137.564716 380.31125 
L 149.40108 364.98475 
L 161.237443 380.73405 
L 173.073807 371.150583 
L 184.91017 370.04325 
L 196.746534 386.12475 
L 208.582898 389.471917 
L 220.419261 373.75785 
L 232.255625 353.597977 
L 244.091989 352.653083 
L 255.928352 359.008635 
L 267.764716 339.84325 
L 279.60108 344.655117 
L 291.437443 356.00025 
L 303.273807 351.337015 
L 315.11017 359.758472 
L 326.946534 371.076408 
L 338.782898 373.01795 
L 350.619261 375.982583 
L 362.455625 364.167977 
L 374.291989 360.09038 
L 386.128352 358.907 
L 397.964716 358.66389 
L 409.80108 372.505712 
L 421.637443 382.346954 
L 433.473807 378.42375 
L 445.31017 379.873871 
L 457.146534 382.143383 
L 468.982898 377.651702 
L 480.819261 376.017187 
L 492.655625 387.934462 
" style="fill:none;stroke:#1764ab;stroke-linecap:square;stroke-width:1.5;"/>
   </g>
   <g id="line2d_46">
    <path clip-path="url(#pbec75a4c5b)" d="M 102.055625 433.16125 
L 113.891989 431.04725 
L 125.728352 418.36325 
L 137.564716 370.445917 
L 149.40108 385.59625 
L 161.237443 358.74845 
L 173.073807 364.103917 
L 184.91017 366.11725 
L 196.746534 344.109 
L 208.582898 350.245472 
L 220.419261 349.44685 
L 232.255625 351.483977 
L 244.091989 356.00025 
L 255.928352 367.464635 
L 267.764716 360.98325 
L 279.60108 374.110183 
L 291.437443 369.477 
L 303.273807 365.140191 
L 315.11017 366.57025 
L 326.946534 365.179461 
L 338.782898 372.91225 
L 350.619261 382.827917 
L 362.455625 370.702159 
L 374.291989 373.509685 
L 386.128352 368.68425 
L 397.964716 363.14557 
L 409.80108 372.749635 
L 421.637443 372.246731 
L 433.473807 363.62575 
L 445.31017 359.608629 
L 457.146534 357.409583 
L 468.982898 354.124927 
L 480.819261 351.574062 
L 492.655625 353.662038 
" style="fill:none;stroke:#1764ab;stroke-linecap:square;stroke-width:1.5;"/>
   </g>
   <g id="line2d_47">
    <path clip-path="url(#pbec75a4c5b)" d="M 102.055625 420.47725 
L 113.891989 426.81925 
L 125.728352 410.96425 
L 137.564716 412.725917 
L 149.40108 365.51325 
L 161.237443 362.55365 
L 173.073807 345.43025 
L 184.91017 355.84925 
L 196.746534 376.876 
L 208.582898 392.760361 
L 220.419261 405.04505 
L 232.255625 399.913795 
L 244.091989 394.756917 
L 255.928352 372.343096 
L 267.764716 380.00925 
L 279.60108 378.338183 
L 291.437443 355.075375 
L 303.273807 359.917368 
L 315.11017 353.88625 
L 326.946534 363.621776 
L 338.782898 365.61895 
L 350.619261 358.768583 
L 362.455625 350.71525 
L 374.291989 347.590207 
L 386.128352 351.684167 
L 397.964716 355.45061 
L 409.80108 361.610481 
L 421.637443 366.061324 
L 433.473807 368.68425 
L 445.31017 357.567526 
L 457.146534 355.436517 
L 468.982898 363.467444 
L 480.819261 367.164812 
L 492.655625 376.339492 
" style="fill:none;stroke:#1764ab;stroke-linecap:square;stroke-width:1.5;"/>
   </g>
   <g id="line2d_48">
    <path clip-path="url(#pbec75a4c5b)" d="M 102.055625 433.16125 
L 113.891989 388.76725 
L 125.728352 368.68425 
L 137.564716 358.466583 
L 149.40108 372.91225 
L 161.237443 365.09045 
L 173.073807 363.046917 
L 184.91017 391.48525 
L 196.746534 397.4875 
L 208.582898 397.693028 
L 220.419261 389.61285 
L 232.255625 375.122341 
L 244.091989 376.08325 
L 255.928352 374.131865 
L 267.764716 372.30825 
L 279.60108 362.694583 
L 291.437443 351.375875 
L 303.273807 359.17125 
L 315.11017 353.533917 
L 326.946534 363.844303 
L 338.782898 379.57135 
L 350.619261 386.95525 
L 362.455625 396.550614 
L 374.291989 384.998815 
L 386.128352 370.357833 
L 397.964716 362.13085 
L 409.80108 351.690942 
L 421.637443 360.345694 
L 433.473807 357.35925 
L 445.31017 361.795526 
L 457.146534 348.60125 
L 468.982898 358.148347 
L 480.819261 371.789187 
L 492.655625 384.218947 
" style="fill:none;stroke:#1764ab;stroke-linecap:square;stroke-width:1.5;"/>
   </g>
   <g id="line2d_49">
    <path clip-path="url(#pbec75a4c5b)" d="M 102.055625 420.47725 
L 113.891989 369.74125 
L 125.728352 335.91725 
L 137.564716 358.466583 
L 149.40108 389.29575 
L 161.237443 388.76725 
L 173.073807 399.33725 
L 184.91017 411.11525 
L 196.746534 394.845 
L 208.582898 391.351028 
L 220.419261 380.09985 
L 232.255625 371.85525 
L 244.091989 374.321583 
L 255.928352 366.651558 
L 267.764716 372.45925 
L 279.60108 363.117383 
L 291.437443 350.9795 
L 303.273807 348.103838 
L 315.11017 355.413028 
L 326.946534 356.055882 
L 338.782898 356.74015 
L 350.619261 362.996583 
L 362.455625 368.780341 
L 374.291989 374.980293 
L 386.128352 383.658417 
L 397.964716 387.32973 
L 409.80108 384.864481 
L 421.637443 375.221991 
L 433.473807 379.17875 
L 445.31017 373.313181 
L 457.146534 356.282117 
L 468.982898 352.82925 
L 480.819261 342.25925 
L 492.655625 351.676159 
" style="fill:none;stroke:#1764ab;stroke-linecap:square;stroke-width:1.5;"/>
   </g>
   <g id="line2d_50">
    <path clip-path="url(#pbec75a4c5b)" d="M 102.055625 433.16125 
L 113.891989 428.93325 
L 125.728352 425.76225 
L 137.564716 392.99525 
L 149.40108 364.98475 
L 161.237443 373.12365 
L 173.073807 385.243917 
L 184.91017 376.38525 
L 196.746534 376.08325 
L 208.582898 337.561472 
L 220.419261 346.06445 
L 232.255625 351.291795 
L 244.091989 340.67375 
L 255.928352 367.464635 
L 267.764716 366.87225 
L 279.60108 361.003383 
L 291.437443 364.852625 
L 303.273807 359.544309 
L 315.11017 363.046917 
L 326.946534 360.395145 
L 338.782898 361.91945 
L 350.619261 351.62125 
L 362.455625 361.573523 
L 374.291989 358.25212 
L 386.128352 354.590917 
L 397.964716 354.18221 
L 409.80108 356.162865 
L 421.637443 361.050361 
L 433.473807 365.06025 
L 445.31017 367.991733 
L 457.146534 359.80545 
L 468.982898 356.989056 
L 480.819261 358.246375 
L 492.655625 370.189674 
" style="fill:none;stroke:#1764ab;stroke-linecap:square;stroke-width:1.5;"/>
   </g>
   <g id="line2d_51">
    <path clip-path="url(#pbec75a4c5b)" d="M 102.055625 433.16125 
L 113.891989 401.45125 
L 125.728352 372.91225 
L 137.564716 357.761917 
L 149.40108 356.00025 
L 161.237443 350.29245 
L 173.073807 329.57525 
L 184.91017 334.10525 
L 196.746534 350.71525 
L 208.582898 349.071028 
L 220.419261 334.01465 
L 232.255625 336.493795 
L 244.091989 350.362917 
L 255.928352 365.350635 
L 267.764716 381.06625 
L 279.60108 374.39205 
L 291.437443 370.79825 
L 303.273807 378.321603 
L 315.11017 369.976139 
L 326.946534 361.062724 
L 338.782898 376.29465 
L 350.619261 370.244583 
L 362.455625 386.845432 
L 374.291989 380.862728 
L 386.128352 365.072833 
L 397.964716 363.99117 
L 409.80108 359.415173 
L 421.637443 374.908806 
L 433.473807 377.74425 
L 445.31017 371.782353 
L 457.146534 367.979583 
L 468.982898 357.875573 
L 480.819261 352.432875 
L 492.655625 361.157129 
" style="fill:none;stroke:#1764ab;stroke-linecap:square;stroke-width:1.5;"/>
   </g>
   <g id="line2d_52">
    <path clip-path="url(#pbec75a4c5b)" d="M 102.055625 407.79325 
L 113.891989 422.59125 
L 125.728352 425.76225 
L 137.564716 426.114583 
L 149.40108 415.19225 
L 161.237443 388.34445 
L 173.073807 387.357917 
L 184.91017 369.43925 
L 196.746534 371.85525 
L 208.582898 377.257694 
L 220.419261 365.51325 
L 232.255625 363.207068 
L 244.091989 358.290417 
L 255.928352 360.634788 
L 267.764716 362.19125 
L 279.60108 375.942317 
L 291.437443 378.329375 
L 303.273807 370.238662 
L 315.11017 362.34225 
L 326.946534 366.069566 
L 338.782898 371.43245 
L 350.619261 359.372583 
L 362.455625 366.858523 
L 374.291989 367.535337 
L 386.128352 360.052083 
L 397.964716 372.27805 
L 409.80108 367.952481 
L 421.637443 360.893769 
L 433.473807 351.84775 
L 445.31017 358.369388 
L 457.146534 360.22825 
L 468.982898 355.352411 
L 480.819261 359.17125 
L 492.655625 376.211371 
" style="fill:none;stroke:#1764ab;stroke-linecap:square;stroke-width:1.5;"/>
   </g>
   <g id="line2d_53">
    <path clip-path="url(#pbec75a4c5b)" d="M 102.055625 433.16125 
L 113.891989 433.16125 
L 125.728352 414.13525 
L 137.564716 424.70525 
L 149.40108 411.49275 
L 161.237443 405.25645 
L 173.073807 363.39925 
L 184.91017 354.03725 
L 196.746534 362.34225 
L 208.582898 358.701472 
L 220.419261 358.74845 
L 232.255625 362.438341 
L 244.091989 352.124583 
L 255.928352 346.324635 
L 267.764716 355.54725 
L 279.60108 372.418983 
L 291.437443 376.08325 
L 303.273807 368.373368 
L 315.11017 366.452806 
L 326.946534 361.28525 
L 338.782898 357.79715 
L 350.619261 353.332583 
L 362.455625 358.594705 
L 374.291989 359.446989 
L 386.128352 365.689417 
L 397.964716 361.53893 
L 409.80108 363.724481 
L 421.637443 359.954213 
L 433.473807 367.62725 
L 445.31017 360.191802 
L 457.146534 354.52045 
L 468.982898 348.874024 
L 480.819261 354.41475 
L 492.655625 362.822705 
" style="fill:none;stroke:#1764ab;stroke-linecap:square;stroke-width:1.5;"/>
   </g>
   <g id="line2d_54">
    <path clip-path="url(#pbec75a4c5b)" d="M 102.055625 407.79325 
L 113.891989 414.13525 
L 125.728352 385.59625 
L 137.564716 393.699917 
L 149.40108 386.12475 
L 161.237443 394.26365 
L 173.073807 403.917583 
L 184.91017 409.30325 
L 196.746534 413.07825 
L 208.582898 411.081694 
L 220.419261 414.76945 
L 232.255625 413.366523 
L 244.091989 404.446083 
L 255.928352 397.22325 
L 267.764716 399.48825 
L 279.60108 389.19005 
L 291.437443 397.091125 
L 303.273807 386.280191 
L 315.11017 389.237028 
L 326.946534 391.993882 
L 338.782898 393.62945 
L 350.619261 398.028583 
L 362.455625 398.568523 
L 374.291989 404.208641 
L 386.128352 398.368333 
L 397.964716 402.21229 
L 409.80108 404.62225 
L 421.637443 400.746583 
L 433.473807 400.16775 
L 445.31017 397.733526 
L 457.146534 387.569317 
L 468.982898 392.176927 
L 480.819261 400.39425 
L 492.655625 409.458826 
" style="fill:none;stroke:#94c4df;stroke-linecap:square;stroke-width:1.5;"/>
   </g>
   <g id="line2d_55">
    <path clip-path="url(#pbec75a4c5b)" d="M 102.055625 433.16125 
L 113.891989 409.90725 
L 125.728352 373.96925 
L 137.564716 412.725917 
L 149.40108 408.85025 
L 161.237443 406.10205 
L 173.073807 406.031583 
L 184.91017 399.94125 
L 196.746534 406.20775 
L 208.582898 412.491028 
L 220.419261 408.00465 
L 232.255625 398.568523 
L 244.091989 389.648083 
L 255.928352 388.604635 
L 267.764716 393.90125 
L 279.60108 394.404583 
L 291.437443 394.977125 
L 303.273807 395.855368 
L 315.11017 398.045361 
L 326.946534 402.897671 
L 338.782898 405.78495 
L 350.619261 410.309917 
L 362.455625 405.871432 
L 374.291989 402.37038 
L 386.128352 400.746583 
L 397.964716 397.05413 
L 409.80108 398.198942 
L 421.637443 398.084509 
L 433.473807 401.07375 
L 445.31017 406.699802 
L 457.146534 403.917583 
L 468.982898 405.611056 
L 480.819261 410.501812 
L 492.655625 419.580402 
" style="fill:none;stroke:#94c4df;stroke-linecap:square;stroke-width:1.5;"/>
   </g>
   <g id="line2d_56">
    <path clip-path="url(#pbec75a4c5b)" d="M 102.055625 433.16125 
L 113.891989 428.93325 
L 125.728352 423.64825 
L 137.564716 413.430583 
L 149.40108 401.45125 
L 161.237443 395.53205 
L 173.073807 388.062583 
L 184.91017 387.55925 
L 196.746534 378.72575 
L 208.582898 385.478806 
L 220.419261 391.30405 
L 232.255625 398.760705 
L 244.091989 403.917583 
L 255.928352 399.662481 
L 267.764716 399.94125 
L 279.60108 402.71965 
L 291.437443 396.562625 
L 303.273807 396.601485 
L 315.11017 398.867472 
L 326.946534 404.121566 
L 338.782898 410.11865 
L 350.619261 412.222583 
L 362.455625 412.309523 
L 374.291989 403.749076 
L 386.128352 398.368333 
L 397.964716 396.54677 
L 409.80108 394.702712 
L 421.637443 399.728731 
L 433.473807 394.80725 
L 445.31017 401.597043 
L 457.146534 397.786983 
L 468.982898 399.746411 
L 480.819261 403.433125 
L 492.655625 412.725917 
" style="fill:none;stroke:#94c4df;stroke-linecap:square;stroke-width:1.5;"/>
   </g>
   <g id="line2d_57">
    <path clip-path="url(#pbec75a4c5b)" d="M 102.055625 433.16125 
L 113.891989 407.79325 
L 125.728352 406.73625 
L 137.564716 410.611917 
L 149.40108 402.50825 
L 161.237443 392.57245 
L 173.073807 392.290583 
L 184.91017 386.04925 
L 196.746534 398.28025 
L 208.582898 405.67925 
L 220.419261 406.31345 
L 232.255625 405.102705 
L 244.091989 403.56525 
L 255.928352 392.182173 
L 267.764716 399.03525 
L 279.60108 400.746583 
L 291.437443 398.676625 
L 303.273807 399.212897 
L 315.11017 404.974583 
L 326.946534 405.901776 
L 338.782898 404.19945 
L 350.619261 407.088583 
L 362.455625 408.081523 
L 374.291989 400.991685 
L 386.128352 402.332083 
L 397.964716 401.11301 
L 409.80108 401.776481 
L 421.637443 400.589991 
L 433.473807 395.26025 
L 445.31017 388.402767 
L 457.146534 391.585917 
L 468.982898 391.290411 
L 480.819261 401.7155 
L 492.655625 411.829068 
" style="fill:none;stroke:#94c4df;stroke-linecap:square;stroke-width:1.5;"/>
   </g>
   <g id="line2d_58">
    <path clip-path="url(#pbec75a4c5b)" d="M 102.055625 433.16125 
L 113.891989 405.67925 
L 125.728352 370.79825 
L 137.564716 384.53925 
L 149.40108 398.80875 
L 161.237443 392.99525 
L 173.073807 409.202583 
L 184.91017 415.34325 
L 196.746534 417.042 
L 208.582898 415.074806 
L 220.419261 409.27305 
L 232.255625 406.255795 
L 244.091989 404.62225 
L 255.928352 396.572788 
L 267.764716 396.01525 
L 279.60108 388.34445 
L 291.437443 381.6325 
L 303.273807 389.140309 
L 315.11017 397.458139 
L 326.946534 400.672408 
L 338.782898 408.74455 
L 350.619261 413.22925 
L 362.455625 413.558705 
L 374.291989 410.182989 
L 386.128352 402.50825 
L 397.964716 398.99901 
L 409.80108 396.410173 
L 421.637443 400.198509 
L 433.473807 396.69475 
L 445.31017 397.660629 
L 457.146534 392.78385 
L 468.982898 402.678734 
L 480.819261 406.20775 
L 492.655625 417.082038 
" style="fill:none;stroke:#94c4df;stroke-linecap:square;stroke-width:1.5;"/>
   </g>
   <g id="line2d_59">
    <path clip-path="url(#pbec75a4c5b)" d="M 102.055625 433.16125 
L 113.891989 433.16125 
L 125.728352 407.79325 
L 137.564716 406.383917 
L 149.40108 415.72075 
L 161.237443 423.85965 
L 173.073807 419.772583 
L 184.91017 418.66525 
L 196.746534 417.042 
L 208.582898 408.263028 
L 220.419261 407.15905 
L 232.255625 403.373068 
L 244.091989 400.570417 
L 255.928352 399.825096 
L 267.764716 404.62225 
L 279.60108 394.827383 
L 291.437443 385.332 
L 303.273807 382.798309 
L 315.11017 389.706806 
L 326.946534 390.88125 
L 338.782898 393.84085 
L 350.619261 395.813917 
L 362.455625 395.301432 
L 374.291989 400.164467 
L 386.128352 401.539333 
L 397.964716 405.51013 
L 409.80108 407.79325 
L 421.637443 406.540509 
L 433.473807 406.13225 
L 445.31017 406.116629 
L 457.146534 399.900983 
L 468.982898 391.154024 
L 480.819261 391.1455 
L 492.655625 403.437129 
" style="fill:none;stroke:#94c4df;stroke-linecap:square;stroke-width:1.5;"/>
   </g>
   <g id="line2d_60">
    <path clip-path="url(#pbec75a4c5b)" d="M 102.055625 433.16125 
L 113.891989 420.47725 
L 125.728352 415.19225 
L 137.564716 410.611917 
L 149.40108 406.20775 
L 161.237443 398.49165 
L 173.073807 398.28025 
L 184.91017 391.48525 
L 196.746534 400.13 
L 208.582898 376.553028 
L 220.419261 379.88845 
L 232.255625 378.773795 
L 244.091989 396.69475 
L 255.928352 403.402635 
L 267.764716 399.48825 
L 279.60108 402.578717 
L 291.437443 399.073 
L 303.273807 402.819132 
L 315.11017 397.105806 
L 326.946534 395.10925 
L 338.782898 396.80045 
L 350.619261 397.52525 
L 362.455625 397.415432 
L 374.291989 404.48438 
L 386.128352 400.834667 
L 397.964716 401.95861 
L 409.80108 403.077404 
L 421.637443 403.330361 
L 433.473807 401.30025 
L 445.31017 404.294216 
L 457.146534 404.41085 
L 468.982898 405.747444 
L 480.819261 402.706437 
L 492.655625 410.99628 
" style="fill:none;stroke:#94c4df;stroke-linecap:square;stroke-width:1.5;"/>
   </g>
   <g id="line2d_61">
    <path clip-path="url(#pbec75a4c5b)" d="M 102.055625 420.47725 
L 113.891989 416.24925 
L 125.728352 403.56525 
L 137.564716 395.813917 
L 149.40108 376.61175 
L 161.237443 382.00245 
L 173.073807 384.891583 
L 184.91017 384.23725 
L 196.746534 395.902 
L 208.582898 393.230139 
L 220.419261 398.28025 
L 232.255625 391.265614 
L 244.091989 398.632583 
L 255.928352 399.987712 
L 267.764716 400.24325 
L 279.60108 403.56525 
L 291.437443 400.262125 
L 303.273807 399.212897 
L 315.11017 404.387361 
L 326.946534 400.672408 
L 338.782898 407.05335 
L 350.619261 403.26325 
L 362.455625 403.084795 
L 374.291989 397.958554 
L 386.128352 401.7155 
L 397.964716 402.04317 
L 409.80108 401.613865 
L 421.637443 401.842731 
L 433.473807 398.58225 
L 445.31017 401.961526 
L 457.146534 398.06885 
L 468.982898 401.519444 
L 480.819261 407.198687 
L 492.655625 420.47725 
" style="fill:none;stroke:#94c4df;stroke-linecap:square;stroke-width:1.5;"/>
   </g>
   <g id="line2d_62">
    <path clip-path="url(#pbec75a4c5b)" d="M 102.055625 382.42525 
L 113.891989 344.37325 
L 125.728352 398.28025 
L 137.564716 419.067917 
L 149.40108 417.30625 
L 161.237443 420.90005 
L 173.073807 417.658583 
L 184.91017 411.71925 
L 196.746534 411.2285 
L 208.582898 400.041917 
L 220.419261 394.47505 
L 232.255625 395.685795 
L 244.091989 390.528917 
L 255.928352 392.832635 
L 267.764716 390.42825 
L 279.60108 397.22325 
L 291.437443 396.562625 
L 303.273807 403.689603 
L 315.11017 401.216361 
L 326.946534 398.892197 
L 338.782898 403.88235 
L 350.619261 401.45125 
L 362.455625 406.063614 
L 374.291989 402.738033 
L 386.128352 404.62225 
L 397.964716 400.35197 
L 409.80108 404.053096 
L 421.637443 404.974583 
L 433.473807 403.48975 
L 445.31017 400.284905 
L 457.146534 391.656383 
L 468.982898 391.563185 
L 480.819261 397.553562 
L 492.655625 415.352402 
" style="fill:none;stroke:#94c4df;stroke-linecap:square;stroke-width:1.5;"/>
   </g>
   <g id="line2d_63">
    <path clip-path="url(#pbec75a4c5b)" d="M 102.055625 433.16125 
L 113.891989 428.93325 
L 125.728352 424.70525 
L 137.564716 427.523917 
L 149.40108 415.19225 
L 161.237443 409.90725 
L 173.073807 403.212917 
L 184.91017 377.59325 
L 196.746534 381.89675 
L 208.582898 381.485694 
L 220.419261 377.14025 
L 232.255625 402.219977 
L 244.091989 396.16625 
L 255.928352 390.718635 
L 267.764716 392.39125 
L 279.60108 397.786983 
L 291.437443 401.97975 
L 303.273807 399.834662 
L 315.11017 401.686139 
L 326.946534 393.996618 
L 338.782898 389.19005 
L 350.619261 396.719917 
L 362.455625 396.646705 
L 374.291989 398.877685 
L 386.128352 406.031583 
L 397.964716 407.53957 
L 409.80108 403.240019 
L 421.637443 400.120213 
L 433.473807 394.12775 
L 445.31017 389.423319 
L 457.146534 386.935117 
L 468.982898 384.402863 
L 480.819261 392.863125 
L 492.655625 399.273189 
" style="fill:none;stroke:#94c4df;stroke-linecap:square;stroke-width:1.5;"/>
   </g>
   <g id="line2d_64">
    <path clip-path="url(#pbec75a4c5b)" d="M 102.055625 433.16125 
L 113.891989 433.16125 
L 125.728352 433.16125 
L 137.564716 433.16125 
L 149.40108 433.16125 
L 161.237443 433.16125 
L 173.073807 433.16125 
L 184.91017 433.16125 
L 196.746534 433.16125 
L 208.582898 433.16125 
L 220.419261 433.16125 
L 232.255625 433.16125 
L 244.091989 433.16125 
L 255.928352 433.16125 
L 267.764716 433.16125 
L 279.60108 433.16125 
L 291.437443 433.16125 
L 303.273807 433.16125 
L 315.11017 433.16125 
L 326.946534 433.16125 
L 338.782898 433.16125 
L 350.619261 433.16125 
L 362.455625 433.16125 
L 374.291989 433.16125 
L 386.128352 433.16125 
L 397.964716 433.16125 
L 409.80108 433.16125 
L 421.637443 433.16125 
L 433.473807 433.16125 
L 445.31017 433.16125 
L 457.146534 433.16125 
L 468.982898 433.16125 
L 480.819261 433.16125 
L 492.655625 433.16125 
" style="fill:none;stroke:#000000;stroke-linecap:square;stroke-width:1.5;"/>
   </g>
   <g id="line2d_65">
    <path clip-path="url(#pbec75a4c5b)" d="M 102.055625 433.16125 
L 113.891989 433.16125 
L 125.728352 433.16125 
L 137.564716 433.16125 
L 149.40108 433.16125 
L 161.237443 433.16125 
L 173.073807 433.16125 
L 184.91017 433.16125 
L 196.746534 433.16125 
L 208.582898 433.16125 
L 220.419261 433.16125 
L 232.255625 433.16125 
L 244.091989 433.16125 
L 255.928352 433.16125 
L 267.764716 433.16125 
L 279.60108 433.16125 
L 291.437443 433.16125 
L 303.273807 433.16125 
L 315.11017 433.16125 
L 326.946534 433.16125 
L 338.782898 433.16125 
L 350.619261 433.16125 
L 362.455625 433.16125 
L 374.291989 433.16125 
L 386.128352 433.16125 
L 397.964716 433.16125 
L 409.80108 433.16125 
L 421.637443 433.16125 
L 433.473807 433.16125 
L 445.31017 433.16125 
L 457.146534 433.16125 
L 468.982898 433.16125 
L 480.819261 433.16125 
L 492.655625 433.16125 
" style="fill:none;stroke:#000000;stroke-linecap:square;stroke-width:1.5;"/>
   </g>
   <g id="line2d_66">
    <path clip-path="url(#pbec75a4c5b)" d="M 102.055625 433.16125 
L 113.891989 433.16125 
L 125.728352 433.16125 
L 137.564716 433.16125 
L 149.40108 433.16125 
L 161.237443 433.16125 
L 173.073807 433.16125 
L 184.91017 433.16125 
L 196.746534 433.16125 
L 208.582898 433.16125 
L 220.419261 433.16125 
L 232.255625 433.16125 
L 244.091989 433.16125 
L 255.928352 433.16125 
L 267.764716 433.16125 
L 279.60108 433.16125 
L 291.437443 433.16125 
L 303.273807 433.16125 
L 315.11017 433.16125 
L 326.946534 433.16125 
L 338.782898 433.16125 
L 350.619261 433.16125 
L 362.455625 433.16125 
L 374.291989 433.16125 
L 386.128352 433.16125 
L 397.964716 433.16125 
L 409.80108 433.16125 
L 421.637443 433.16125 
L 433.473807 433.16125 
L 445.31017 433.16125 
L 457.146534 433.16125 
L 468.982898 433.16125 
L 480.819261 433.16125 
L 492.655625 433.16125 
" style="fill:none;stroke:#000000;stroke-linecap:square;stroke-width:1.5;"/>
   </g>
   <g id="line2d_67">
    <path clip-path="url(#pbec75a4c5b)" d="M 102.055625 433.16125 
L 113.891989 433.16125 
L 125.728352 433.16125 
L 137.564716 433.16125 
L 149.40108 433.16125 
L 161.237443 433.16125 
L 173.073807 433.16125 
L 184.91017 433.16125 
L 196.746534 433.16125 
L 208.582898 433.16125 
L 220.419261 433.16125 
L 232.255625 433.16125 
L 244.091989 433.16125 
L 255.928352 433.16125 
L 267.764716 433.16125 
L 279.60108 433.16125 
L 291.437443 433.16125 
L 303.273807 433.16125 
L 315.11017 433.16125 
L 326.946534 433.16125 
L 338.782898 433.16125 
L 350.619261 433.16125 
L 362.455625 433.16125 
L 374.291989 433.16125 
L 386.128352 433.16125 
L 397.964716 433.16125 
L 409.80108 433.16125 
L 421.637443 433.16125 
L 433.473807 433.16125 
L 445.31017 433.16125 
L 457.146534 433.16125 
L 468.982898 433.16125 
L 480.819261 433.16125 
L 492.655625 433.16125 
" style="fill:none;stroke:#000000;stroke-linecap:square;stroke-width:1.5;"/>
   </g>
   <g id="line2d_68">
    <path clip-path="url(#pbec75a4c5b)" d="M 102.055625 433.16125 
L 113.891989 433.16125 
L 125.728352 433.16125 
L 137.564716 433.16125 
L 149.40108 433.16125 
L 161.237443 433.16125 
L 173.073807 433.16125 
L 184.91017 433.16125 
L 196.746534 433.16125 
L 208.582898 433.16125 
L 220.419261 433.16125 
L 232.255625 433.16125 
L 244.091989 433.16125 
L 255.928352 433.16125 
L 267.764716 433.16125 
L 279.60108 433.16125 
L 291.437443 433.16125 
L 303.273807 433.16125 
L 315.11017 433.16125 
L 326.946534 433.16125 
L 338.782898 433.16125 
L 350.619261 433.16125 
L 362.455625 433.16125 
L 374.291989 433.16125 
L 386.128352 433.16125 
L 397.964716 433.16125 
L 409.80108 433.16125 
L 421.637443 433.16125 
L 433.473807 433.16125 
L 445.31017 433.16125 
L 457.146534 433.16125 
L 468.982898 433.16125 
L 480.819261 433.16125 
L 492.655625 433.16125 
" style="fill:none;stroke:#000000;stroke-linecap:square;stroke-width:1.5;"/>
   </g>
   <g id="line2d_69">
    <path clip-path="url(#pbec75a4c5b)" d="M 102.055625 433.16125 
L 113.891989 433.16125 
L 125.728352 433.16125 
L 137.564716 433.16125 
L 149.40108 433.16125 
L 161.237443 433.16125 
L 173.073807 433.16125 
L 184.91017 433.16125 
L 196.746534 433.16125 
L 208.582898 433.16125 
L 220.419261 433.16125 
L 232.255625 433.16125 
L 244.091989 433.16125 
L 255.928352 433.16125 
L 267.764716 433.16125 
L 279.60108 433.16125 
L 291.437443 433.16125 
L 303.273807 433.16125 
L 315.11017 433.16125 
L 326.946534 433.16125 
L 338.782898 433.16125 
L 350.619261 433.16125 
L 362.455625 433.16125 
L 374.291989 433.16125 
L 386.128352 433.16125 
L 397.964716 433.16125 
L 409.80108 433.16125 
L 421.637443 433.16125 
L 433.473807 433.16125 
L 445.31017 433.16125 
L 457.146534 433.16125 
L 468.982898 433.16125 
L 480.819261 433.16125 
L 492.655625 433.16125 
" style="fill:none;stroke:#000000;stroke-linecap:square;stroke-width:1.5;"/>
   </g>
   <g id="line2d_70">
    <path clip-path="url(#pbec75a4c5b)" d="M 102.055625 433.16125 
L 113.891989 433.16125 
L 125.728352 433.16125 
L 137.564716 433.16125 
L 149.40108 433.16125 
L 161.237443 433.16125 
L 173.073807 433.16125 
L 184.91017 433.16125 
L 196.746534 433.16125 
L 208.582898 433.16125 
L 220.419261 433.16125 
L 232.255625 433.16125 
L 244.091989 433.16125 
L 255.928352 433.16125 
L 267.764716 433.16125 
L 279.60108 433.16125 
L 291.437443 433.16125 
L 303.273807 433.16125 
L 315.11017 433.16125 
L 326.946534 433.16125 
L 338.782898 433.16125 
L 350.619261 433.16125 
L 362.455625 433.16125 
L 374.291989 433.16125 
L 386.128352 433.16125 
L 397.964716 433.16125 
L 409.80108 433.16125 
L 421.637443 433.16125 
L 433.473807 433.16125 
L 445.31017 433.16125 
L 457.146534 433.16125 
L 468.982898 433.16125 
L 480.819261 433.16125 
L 492.655625 433.16125 
" style="fill:none;stroke:#000000;stroke-linecap:square;stroke-width:1.5;"/>
   </g>
   <g id="line2d_71">
    <path clip-path="url(#pbec75a4c5b)" d="M 102.055625 433.16125 
L 113.891989 433.16125 
L 125.728352 433.16125 
L 137.564716 433.16125 
L 149.40108 433.16125 
L 161.237443 433.16125 
L 173.073807 433.16125 
L 184.91017 433.16125 
L 196.746534 433.16125 
L 208.582898 433.16125 
L 220.419261 433.16125 
L 232.255625 433.16125 
L 244.091989 433.16125 
L 255.928352 433.16125 
L 267.764716 433.16125 
L 279.60108 433.16125 
L 291.437443 433.16125 
L 303.273807 433.16125 
L 315.11017 433.16125 
L 326.946534 433.16125 
L 338.782898 433.16125 
L 350.619261 433.16125 
L 362.455625 433.16125 
L 374.291989 433.16125 
L 386.128352 433.16125 
L 397.964716 433.16125 
L 409.80108 433.16125 
L 421.637443 433.16125 
L 433.473807 433.16125 
L 445.31017 433.16125 
L 457.146534 433.16125 
L 468.982898 433.16125 
L 480.819261 433.16125 
L 492.655625 433.16125 
" style="fill:none;stroke:#000000;stroke-linecap:square;stroke-width:1.5;"/>
   </g>
   <g id="line2d_72">
    <path clip-path="url(#pbec75a4c5b)" d="M 102.055625 433.16125 
L 113.891989 433.16125 
L 125.728352 433.16125 
L 137.564716 433.16125 
L 149.40108 433.16125 
L 161.237443 433.16125 
L 173.073807 433.16125 
L 184.91017 433.16125 
L 196.746534 433.16125 
L 208.582898 433.16125 
L 220.419261 433.16125 
L 232.255625 433.16125 
L 244.091989 433.16125 
L 255.928352 433.16125 
L 267.764716 433.16125 
L 279.60108 433.16125 
L 291.437443 433.16125 
L 303.273807 433.16125 
L 315.11017 433.16125 
L 326.946534 433.16125 
L 338.782898 433.16125 
L 350.619261 433.16125 
L 362.455625 433.16125 
L 374.291989 433.16125 
L 386.128352 433.16125 
L 397.964716 433.16125 
L 409.80108 433.16125 
L 421.637443 433.16125 
L 433.473807 433.16125 
L 445.31017 433.16125 
L 457.146534 433.16125 
L 468.982898 433.16125 
L 480.819261 433.16125 
L 492.655625 433.16125 
" style="fill:none;stroke:#000000;stroke-linecap:square;stroke-width:1.5;"/>
   </g>
   <g id="line2d_73">
    <path clip-path="url(#pbec75a4c5b)" d="M 102.055625 433.16125 
L 113.891989 433.16125 
L 125.728352 433.16125 
L 137.564716 433.16125 
L 149.40108 433.16125 
L 161.237443 433.16125 
L 173.073807 433.16125 
L 184.91017 433.16125 
L 196.746534 433.16125 
L 208.582898 433.16125 
L 220.419261 433.16125 
L 232.255625 433.16125 
L 244.091989 433.16125 
L 255.928352 433.16125 
L 267.764716 433.16125 
L 279.60108 433.16125 
L 291.437443 433.16125 
L 303.273807 433.16125 
L 315.11017 433.16125 
L 326.946534 433.16125 
L 338.782898 433.16125 
L 350.619261 433.16125 
L 362.455625 433.16125 
L 374.291989 433.16125 
L 386.128352 433.16125 
L 397.964716 433.16125 
L 409.80108 433.16125 
L 421.637443 433.16125 
L 433.473807 433.16125 
L 445.31017 433.16125 
L 457.146534 433.16125 
L 468.982898 433.16125 
L 480.819261 433.16125 
L 492.655625 433.16125 
" style="fill:none;stroke:#000000;stroke-linecap:square;stroke-width:1.5;"/>
   </g>
   <g id="line2d_74">
    <path clip-path="url(#pbec75a4c5b)" d="M 90.219261 433.16125 
" style="fill:none;stroke:#000000;stroke-linecap:square;stroke-width:1.5;"/>
   </g>
   <g id="line2d_75">
    <path clip-path="url(#pbec75a4c5b)" d="M 90.219261 433.16125 
" style="fill:none;stroke:#d0e1f2;stroke-linecap:square;stroke-width:1.5;"/>
   </g>
   <g id="line2d_76">
    <path clip-path="url(#pbec75a4c5b)" d="M 90.219261 433.16125 
" style="fill:none;stroke:#94c4df;stroke-linecap:square;stroke-width:1.5;"/>
   </g>
   <g id="line2d_77">
    <path clip-path="url(#pbec75a4c5b)" d="M 90.219261 433.16125 
" style="fill:none;stroke:#4a98c9;stroke-linecap:square;stroke-width:1.5;"/>
   </g>
   <g id="line2d_78">
    <path clip-path="url(#pbec75a4c5b)" d="M 90.219261 433.16125 
" style="fill:none;stroke:#1764ab;stroke-linecap:square;stroke-width:1.5;"/>
   </g>
   <g id="line2d_79">
    <path clip-path="url(#pbec75a4c5b)" d="M 90.219261 433.16125 
" style="fill:none;stroke:#08306b;stroke-linecap:square;stroke-width:1.5;"/>
   </g>
   <g id="line2d_80">
    <path clip-path="url(#pbec75a4c5b)" d="M 90.219261 433.16125 
" style="fill:none;stroke:#000000;stroke-linecap:square;stroke-width:1.5;"/>
   </g>
   <g id="line2d_81">
    <path clip-path="url(#pbec75a4c5b)" d="M 90.219261 433.16125 
" style="fill:none;stroke:#000000;stroke-dasharray:1.5,2.475;stroke-dashoffset:0;stroke-width:1.5;"/>
   </g>
   <g id="line2d_82">
    <path clip-path="url(#pbec75a4c5b)" d="M 90.219261 433.16125 
" style="fill:none;stroke:#000000;stroke-linecap:square;stroke-width:1.5;"/>
   </g>
   <g id="line2d_83">
    <path clip-path="url(#pbec75a4c5b)" d="M 90.219261 433.16125 
" style="fill:none;stroke:#000000;stroke-dasharray:5.55,2.4;stroke-dashoffset:0;stroke-width:1.5;"/>
   </g>
   <g id="line2d_84">
    <path clip-path="url(#pbec75a4c5b)" d="M 90.219261 433.16125 
" style="fill:none;stroke:#000000;stroke-dasharray:9.6,2.4,1.5,2.4;stroke-dashoffset:0;stroke-width:1.5;"/>
   </g>
   <g id="line2d_85">
    <path clip-path="url(#pbec75a4c5b)" d="M 90.219261 433.16125 
" style="fill:none;stroke:#000000;stroke-dasharray:9.6,2.4,1.5,2.4;stroke-dashoffset:0;stroke-width:1.5;"/>
   </g>
   <g id="patch_3">
    <path d="M 102.055625 433.16125 
L 102.055625 52.64125 
" style="fill:none;stroke:#000000;stroke-linecap:square;stroke-linejoin:miter;stroke-width:0.8;"/>
   </g>
   <g id="patch_4">
    <path d="M 492.655625 433.16125 
L 492.655625 52.64125 
" style="fill:none;stroke:#000000;stroke-linecap:square;stroke-linejoin:miter;stroke-width:0.8;"/>
   </g>
   <g id="patch_5">
    <path d="M 102.055625 433.16125 
L 492.655625 433.16125 
" style="fill:none;stroke:#000000;stroke-linecap:square;stroke-linejoin:miter;stroke-width:0.8;"/>
   </g>
   <g id="patch_6">
    <path d="M 102.055625 52.64125 
L 492.655625 52.64125 
" style="fill:none;stroke:#000000;stroke-linecap:square;stroke-linejoin:miter;stroke-width:0.8;"/>
   </g>
   <g id="text_16">
    <!-- CD8 LIVE NORMALIZED COUNT -->
    <g transform="translate(144.579063 21.515625)scale(0.2 -0.2)">
     <use xlink:href="#Arial-BoldMT-67"/>
     <use x="72.216797" xlink:href="#Arial-BoldMT-68"/>
     <use x="144.433594" xlink:href="#Arial-BoldMT-56"/>
     <use x="200.048828" xlink:href="#Arial-BoldMT-32"/>
     <use x="227.832031" xlink:href="#Arial-BoldMT-76"/>
     <use x="288.916016" xlink:href="#Arial-BoldMT-73"/>
     <use x="316.699219" xlink:href="#Arial-BoldMT-86"/>
     <use x="383.398438" xlink:href="#Arial-BoldMT-69"/>
     <use x="450.097656" xlink:href="#Arial-BoldMT-32"/>
     <use x="477.880859" xlink:href="#Arial-BoldMT-78"/>
     <use x="550.097656" xlink:href="#Arial-BoldMT-79"/>
     <use x="627.880859" xlink:href="#Arial-BoldMT-82"/>
     <use x="700.097656" xlink:href="#Arial-BoldMT-77"/>
     <use x="783.398438" xlink:href="#Arial-BoldMT-65"/>
     <use x="855.615234" xlink:href="#Arial-BoldMT-76"/>
     <use x="916.699219" xlink:href="#Arial-BoldMT-73"/>
     <use x="944.482422" xlink:href="#Arial-BoldMT-90"/>
     <use x="1005.566406" xlink:href="#Arial-BoldMT-69"/>
     <use x="1072.265625" xlink:href="#Arial-BoldMT-68"/>
     <use x="1144.482422" xlink:href="#Arial-BoldMT-32"/>
     <use x="1172.265625" xlink:href="#Arial-BoldMT-67"/>
     <use x="1244.482422" xlink:href="#Arial-BoldMT-79"/>
     <use x="1322.265625" xlink:href="#Arial-BoldMT-85"/>
     <use x="1394.482422" xlink:href="#Arial-BoldMT-78"/>
     <use x="1466.699219" xlink:href="#Arial-BoldMT-84"/>
    </g>
    <!-- ACROSS RADIUS AT TIME 4 -->
    <defs>
     <path d="M 31.15625 0 
L 31.15625 14.40625 
L 1.859375 14.40625 
L 1.859375 26.421875 
L 32.90625 71.875 
L 44.4375 71.875 
L 44.4375 26.46875 
L 53.328125 26.46875 
L 53.328125 14.40625 
L 44.4375 14.40625 
L 44.4375 0 
z
M 31.15625 26.46875 
L 31.15625 50.921875 
L 14.703125 26.46875 
z
" id="Arial-BoldMT-52"/>
    </defs>
    <g transform="translate(162.361875 42.64125)scale(0.2 -0.2)">
     <use xlink:href="#Arial-BoldMT-65"/>
     <use x="72.216797" xlink:href="#Arial-BoldMT-67"/>
     <use x="144.433594" xlink:href="#Arial-BoldMT-82"/>
     <use x="216.650391" xlink:href="#Arial-BoldMT-79"/>
     <use x="294.433594" xlink:href="#Arial-BoldMT-83"/>
     <use x="361.132812" xlink:href="#Arial-BoldMT-83"/>
     <use x="427.832031" xlink:href="#Arial-BoldMT-32"/>
     <use x="455.615234" xlink:href="#Arial-BoldMT-82"/>
     <use x="527.832031" xlink:href="#Arial-BoldMT-65"/>
     <use x="600.048828" xlink:href="#Arial-BoldMT-68"/>
     <use x="672.265625" xlink:href="#Arial-BoldMT-73"/>
     <use x="700.048828" xlink:href="#Arial-BoldMT-85"/>
     <use x="772.265625" xlink:href="#Arial-BoldMT-83"/>
     <use x="838.964844" xlink:href="#Arial-BoldMT-32"/>
     <use x="866.701172" xlink:href="#Arial-BoldMT-65"/>
     <use x="938.808594" xlink:href="#Arial-BoldMT-84"/>
     <use x="999.892578" xlink:href="#Arial-BoldMT-32"/>
     <use x="1027.675781" xlink:href="#Arial-BoldMT-84"/>
     <use x="1088.759766" xlink:href="#Arial-BoldMT-73"/>
     <use x="1116.542969" xlink:href="#Arial-BoldMT-77"/>
     <use x="1199.84375" xlink:href="#Arial-BoldMT-69"/>
     <use x="1266.542969" xlink:href="#Arial-BoldMT-32"/>
     <use x="1294.326172" xlink:href="#Arial-BoldMT-52"/>
    </g>
   </g>
   <g id="legend_1">
    <g id="line2d_86">
     <path d="M 423.843125 65.739687 
L 443.843125 65.739687 
" style="fill:none;stroke:#000000;stroke-linecap:square;stroke-width:1.5;"/>
    </g>
    <g id="line2d_87"/>
    <g id="text_17">
     <!-- 0 -->
     <g transform="translate(451.843125 69.239687)scale(0.1 -0.1)">
      <use xlink:href="#DejaVuSans-48"/>
     </g>
    </g>
    <g id="line2d_88">
     <path d="M 423.843125 80.417812 
L 443.843125 80.417812 
" style="fill:none;stroke:#d0e1f2;stroke-linecap:square;stroke-width:1.5;"/>
    </g>
    <g id="line2d_89"/>
    <g id="text_18">
     <!-- 100 -->
     <g transform="translate(451.843125 83.917812)scale(0.1 -0.1)">
      <use xlink:href="#DejaVuSans-49"/>
      <use x="63.623047" xlink:href="#DejaVuSans-48"/>
      <use x="127.246094" xlink:href="#DejaVuSans-48"/>
     </g>
    </g>
    <g id="line2d_90">
     <path d="M 423.843125 95.095937 
L 443.843125 95.095937 
" style="fill:none;stroke:#94c4df;stroke-linecap:square;stroke-width:1.5;"/>
    </g>
    <g id="line2d_91"/>
    <g id="text_19">
     <!-- 500 -->
     <g transform="translate(451.843125 98.595937)scale(0.1 -0.1)">
      <use xlink:href="#DejaVuSans-53"/>
      <use x="63.623047" xlink:href="#DejaVuSans-48"/>
      <use x="127.246094" xlink:href="#DejaVuSans-48"/>
     </g>
    </g>
    <g id="line2d_92">
     <path d="M 423.843125 109.774062 
L 443.843125 109.774062 
" style="fill:none;stroke:#4a98c9;stroke-linecap:square;stroke-width:1.5;"/>
    </g>
    <g id="line2d_93"/>
    <g id="text_20">
     <!-- 1000 -->
     <g transform="translate(451.843125 113.274062)scale(0.1 -0.1)">
      <use xlink:href="#DejaVuSans-49"/>
      <use x="63.623047" xlink:href="#DejaVuSans-48"/>
      <use x="127.246094" xlink:href="#DejaVuSans-48"/>
      <use x="190.869141" xlink:href="#DejaVuSans-48"/>
     </g>
    </g>
    <g id="line2d_94">
     <path d="M 423.843125 124.452187 
L 443.843125 124.452187 
" style="fill:none;stroke:#1764ab;stroke-linecap:square;stroke-width:1.5;"/>
    </g>
    <g id="line2d_95"/>
    <g id="text_21">
     <!-- 5000 -->
     <g transform="translate(451.843125 127.952187)scale(0.1 -0.1)">
      <use xlink:href="#DejaVuSans-53"/>
      <use x="63.623047" xlink:href="#DejaVuSans-48"/>
      <use x="127.246094" xlink:href="#DejaVuSans-48"/>
      <use x="190.869141" xlink:href="#DejaVuSans-48"/>
     </g>
    </g>
    <g id="line2d_96">
     <path d="M 423.843125 139.130312 
L 443.843125 139.130312 
" style="fill:none;stroke:#08306b;stroke-linecap:square;stroke-width:1.5;"/>
    </g>
    <g id="line2d_97"/>
    <g id="text_22">
     <!-- 10000 -->
     <g transform="translate(451.843125 142.630312)scale(0.1 -0.1)">
      <use xlink:href="#DejaVuSans-49"/>
      <use x="63.623047" xlink:href="#DejaVuSans-48"/>
      <use x="127.246094" xlink:href="#DejaVuSans-48"/>
      <use x="190.869141" xlink:href="#DejaVuSans-48"/>
      <use x="254.492188" xlink:href="#DejaVuSans-48"/>
     </g>
    </g>
    <g id="line2d_98">
     <path d="M 423.843125 153.808437 
L 443.843125 153.808437 
" style="fill:none;stroke:#000000;stroke-linecap:square;stroke-width:1.5;"/>
    </g>
    <g id="line2d_99"/>
    <g id="text_23">
     <!-- 0 -->
     <g transform="translate(451.843125 157.308437)scale(0.1 -0.1)">
      <use xlink:href="#DejaVuSans-48"/>
     </g>
    </g>
    <g id="line2d_100">
     <path d="M 423.843125 168.486562 
L 443.843125 168.486562 
" style="fill:none;stroke:#000000;stroke-dasharray:1.5,2.475;stroke-dashoffset:0;stroke-width:1.5;"/>
    </g>
    <g id="line2d_101"/>
    <g id="text_24">
     <!-- 250 -->
     <g transform="translate(451.843125 171.986562)scale(0.1 -0.1)">
      <use xlink:href="#DejaVuSans-50"/>
      <use x="63.623047" xlink:href="#DejaVuSans-53"/>
      <use x="127.246094" xlink:href="#DejaVuSans-48"/>
     </g>
    </g>
    <g id="line2d_102">
     <path d="M 423.843125 183.164687 
L 443.843125 183.164687 
" style="fill:none;stroke:#000000;stroke-linecap:square;stroke-width:1.5;"/>
    </g>
    <g id="line2d_103"/>
    <g id="text_25">
     <!-- 500 -->
     <g transform="translate(451.843125 186.664687)scale(0.1 -0.1)">
      <use xlink:href="#DejaVuSans-53"/>
      <use x="63.623047" xlink:href="#DejaVuSans-48"/>
      <use x="127.246094" xlink:href="#DejaVuSans-48"/>
     </g>
    </g>
    <g id="line2d_104">
     <path d="M 423.843125 197.842812 
L 443.843125 197.842812 
" style="fill:none;stroke:#000000;stroke-dasharray:5.55,2.4;stroke-dashoffset:0;stroke-width:1.5;"/>
    </g>
    <g id="line2d_105"/>
    <g id="text_26">
     <!-- 1000 -->
     <g transform="translate(451.843125 201.342812)scale(0.1 -0.1)">
      <use xlink:href="#DejaVuSans-49"/>
      <use x="63.623047" xlink:href="#DejaVuSans-48"/>
      <use x="127.246094" xlink:href="#DejaVuSans-48"/>
      <use x="190.869141" xlink:href="#DejaVuSans-48"/>
     </g>
    </g>
    <g id="line2d_106">
     <path d="M 423.843125 212.520937 
L 443.843125 212.520937 
" style="fill:none;stroke:#000000;stroke-dasharray:9.6,2.4,1.5,2.4;stroke-dashoffset:0;stroke-width:1.5;"/>
    </g>
    <g id="line2d_107"/>
    <g id="text_27">
     <!-- 5000 -->
     <g transform="translate(451.843125 216.020937)scale(0.1 -0.1)">
      <use xlink:href="#DejaVuSans-53"/>
      <use x="63.623047" xlink:href="#DejaVuSans-48"/>
      <use x="127.246094" xlink:href="#DejaVuSans-48"/>
      <use x="190.869141" xlink:href="#DejaVuSans-48"/>
     </g>
    </g>
    <g id="line2d_108">
     <path d="M 423.843125 227.199062 
L 443.843125 227.199062 
" style="fill:none;stroke:#000000;stroke-dasharray:9.6,2.4,1.5,2.4;stroke-dashoffset:0;stroke-width:1.5;"/>
    </g>
    <g id="line2d_109"/>
    <g id="text_28">
     <!-- 10000 -->
     <g transform="translate(451.843125 230.699062)scale(0.1 -0.1)">
      <use xlink:href="#DejaVuSans-49"/>
      <use x="63.623047" xlink:href="#DejaVuSans-48"/>
      <use x="127.246094" xlink:href="#DejaVuSans-48"/>
      <use x="190.869141" xlink:href="#DejaVuSans-48"/>
      <use x="254.492188" xlink:href="#DejaVuSans-48"/>
     </g>
    </g>
   </g>
  </g>
 </g>
 <defs>
  <clipPath id="pbec75a4c5b">
   <rect height="380.52" width="390.6" x="102.055625" y="52.64125"/>
  </clipPath>
 </defs>
</svg>
