<?xml version="1.0" encoding="utf-8" standalone="no"?>
<!DOCTYPE svg PUBLIC "-//W3C//DTD SVG 1.1//EN"
  "http://www.w3.org/Graphics/SVG/1.1/DTD/svg11.dtd">
<!-- Created with matplotlib (https://matplotlib.org/) -->
<svg height="504.658125pt" version="1.1" viewBox="0 0 572.668125 504.658125" width="572.668125pt" xmlns="http://www.w3.org/2000/svg" xmlns:xlink="http://www.w3.org/1999/xlink">
 <defs>
  <style type="text/css">
*{stroke-linecap:butt;stroke-linejoin:round;}
  </style>
 </defs>
 <g id="figure_1">
  <g id="patch_1">
   <path d="M 0 504.658125 
L 572.668125 504.658125 
L 572.668125 -0 
L 0 -0 
z
" style="fill:#ffffff;"/>
  </g>
  <g id="axes_1">
   <g id="patch_2">
    <path d="M 102.055625 433.16125 
L 492.655625 433.16125 
L 492.655625 52.64125 
L 102.055625 52.64125 
z
" style="fill:#ffffff;"/>
   </g>
   <g id="matplotlib.axis_1">
    <g id="xtick_1">
     <g id="line2d_1">
      <defs>
       <path d="M 0 0 
L 0 3.5 
" id="m0b8a89d5f1" style="stroke:#000000;stroke-width:0.8;"/>
      </defs>
      <g>
       <use style="stroke:#000000;stroke-width:0.8;" x="149.40108" xlink:href="#m0b8a89d5f1" y="433.16125"/>
      </g>
     </g>
     <g id="text_1">
      <!-- 5 -->
      <defs>
       <path d="M 10.796875 72.90625 
L 49.515625 72.90625 
L 49.515625 64.59375 
L 19.828125 64.59375 
L 19.828125 46.734375 
Q 21.96875 47.46875 24.109375 47.828125 
Q 26.265625 48.1875 28.421875 48.1875 
Q 40.625 48.1875 47.75 41.5 
Q 54.890625 34.8125 54.890625 23.390625 
Q 54.890625 11.625 47.5625 5.09375 
Q 40.234375 -1.421875 26.90625 -1.421875 
Q 22.3125 -1.421875 17.546875 -0.640625 
Q 12.796875 0.140625 7.71875 1.703125 
L 7.71875 11.625 
Q 12.109375 9.234375 16.796875 8.0625 
Q 21.484375 6.890625 26.703125 6.890625 
Q 35.15625 6.890625 40.078125 11.328125 
Q 45.015625 15.765625 45.015625 23.390625 
Q 45.015625 31 40.078125 35.4375 
Q 35.15625 39.890625 26.703125 39.890625 
Q 22.75 39.890625 18.8125 39.015625 
Q 14.890625 38.140625 10.796875 36.28125 
z
" id="DejaVuSans-53"/>
      </defs>
      <g transform="translate(139.85733 462.956562)scale(0.3 -0.3)">
       <use xlink:href="#DejaVuSans-53"/>
      </g>
     </g>
    </g>
    <g id="xtick_2">
     <g id="line2d_2">
      <g>
       <use style="stroke:#000000;stroke-width:0.8;" x="208.582898" xlink:href="#m0b8a89d5f1" y="433.16125"/>
      </g>
     </g>
     <g id="text_2">
      <!-- 10 -->
      <defs>
       <path d="M 12.40625 8.296875 
L 28.515625 8.296875 
L 28.515625 63.921875 
L 10.984375 60.40625 
L 10.984375 69.390625 
L 28.421875 72.90625 
L 38.28125 72.90625 
L 38.28125 8.296875 
L 54.390625 8.296875 
L 54.390625 0 
L 12.40625 0 
z
" id="DejaVuSans-49"/>
       <path d="M 31.78125 66.40625 
Q 24.171875 66.40625 20.328125 58.90625 
Q 16.5 51.421875 16.5 36.375 
Q 16.5 21.390625 20.328125 13.890625 
Q 24.171875 6.390625 31.78125 6.390625 
Q 39.453125 6.390625 43.28125 13.890625 
Q 47.125 21.390625 47.125 36.375 
Q 47.125 51.421875 43.28125 58.90625 
Q 39.453125 66.40625 31.78125 66.40625 
z
M 31.78125 74.21875 
Q 44.046875 74.21875 50.515625 64.515625 
Q 56.984375 54.828125 56.984375 36.375 
Q 56.984375 17.96875 50.515625 8.265625 
Q 44.046875 -1.421875 31.78125 -1.421875 
Q 19.53125 -1.421875 13.0625 8.265625 
Q 6.59375 17.96875 6.59375 36.375 
Q 6.59375 54.828125 13.0625 64.515625 
Q 19.53125 74.21875 31.78125 74.21875 
z
" id="DejaVuSans-48"/>
      </defs>
      <g transform="translate(189.495398 462.956562)scale(0.3 -0.3)">
       <use xlink:href="#DejaVuSans-49"/>
       <use x="63.623047" xlink:href="#DejaVuSans-48"/>
      </g>
     </g>
    </g>
    <g id="xtick_3">
     <g id="line2d_3">
      <g>
       <use style="stroke:#000000;stroke-width:0.8;" x="267.764716" xlink:href="#m0b8a89d5f1" y="433.16125"/>
      </g>
     </g>
     <g id="text_3">
      <!-- 15 -->
      <g transform="translate(248.677216 462.956562)scale(0.3 -0.3)">
       <use xlink:href="#DejaVuSans-49"/>
       <use x="63.623047" xlink:href="#DejaVuSans-53"/>
      </g>
     </g>
    </g>
    <g id="xtick_4">
     <g id="line2d_4">
      <g>
       <use style="stroke:#000000;stroke-width:0.8;" x="326.946534" xlink:href="#m0b8a89d5f1" y="433.16125"/>
      </g>
     </g>
     <g id="text_4">
      <!-- 20 -->
      <defs>
       <path d="M 19.1875 8.296875 
L 53.609375 8.296875 
L 53.609375 0 
L 7.328125 0 
L 7.328125 8.296875 
Q 12.9375 14.109375 22.625 23.890625 
Q 32.328125 33.6875 34.8125 36.53125 
Q 39.546875 41.84375 41.421875 45.53125 
Q 43.3125 49.21875 43.3125 52.78125 
Q 43.3125 58.59375 39.234375 62.25 
Q 35.15625 65.921875 28.609375 65.921875 
Q 23.96875 65.921875 18.8125 64.3125 
Q 13.671875 62.703125 7.8125 59.421875 
L 7.8125 69.390625 
Q 13.765625 71.78125 18.9375 73 
Q 24.125 74.21875 28.421875 74.21875 
Q 39.75 74.21875 46.484375 68.546875 
Q 53.21875 62.890625 53.21875 53.421875 
Q 53.21875 48.921875 51.53125 44.890625 
Q 49.859375 40.875 45.40625 35.40625 
Q 44.1875 33.984375 37.640625 27.21875 
Q 31.109375 20.453125 19.1875 8.296875 
z
" id="DejaVuSans-50"/>
      </defs>
      <g transform="translate(307.859034 462.956562)scale(0.3 -0.3)">
       <use xlink:href="#DejaVuSans-50"/>
       <use x="63.623047" xlink:href="#DejaVuSans-48"/>
      </g>
     </g>
    </g>
    <g id="xtick_5">
     <g id="line2d_5">
      <g>
       <use style="stroke:#000000;stroke-width:0.8;" x="386.128352" xlink:href="#m0b8a89d5f1" y="433.16125"/>
      </g>
     </g>
     <g id="text_5">
      <!-- 25 -->
      <g transform="translate(367.040852 462.956562)scale(0.3 -0.3)">
       <use xlink:href="#DejaVuSans-50"/>
       <use x="63.623047" xlink:href="#DejaVuSans-53"/>
      </g>
     </g>
    </g>
    <g id="xtick_6">
     <g id="line2d_6">
      <g>
       <use style="stroke:#000000;stroke-width:0.8;" x="445.31017" xlink:href="#m0b8a89d5f1" y="433.16125"/>
      </g>
     </g>
     <g id="text_6">
      <!-- 30 -->
      <defs>
       <path d="M 40.578125 39.3125 
Q 47.65625 37.796875 51.625 33 
Q 55.609375 28.21875 55.609375 21.1875 
Q 55.609375 10.40625 48.1875 4.484375 
Q 40.765625 -1.421875 27.09375 -1.421875 
Q 22.515625 -1.421875 17.65625 -0.515625 
Q 12.796875 0.390625 7.625 2.203125 
L 7.625 11.71875 
Q 11.71875 9.328125 16.59375 8.109375 
Q 21.484375 6.890625 26.8125 6.890625 
Q 36.078125 6.890625 40.9375 10.546875 
Q 45.796875 14.203125 45.796875 21.1875 
Q 45.796875 27.640625 41.28125 31.265625 
Q 36.765625 34.90625 28.71875 34.90625 
L 20.21875 34.90625 
L 20.21875 43.015625 
L 29.109375 43.015625 
Q 36.375 43.015625 40.234375 45.921875 
Q 44.09375 48.828125 44.09375 54.296875 
Q 44.09375 59.90625 40.109375 62.90625 
Q 36.140625 65.921875 28.71875 65.921875 
Q 24.65625 65.921875 20.015625 65.03125 
Q 15.375 64.15625 9.8125 62.3125 
L 9.8125 71.09375 
Q 15.4375 72.65625 20.34375 73.4375 
Q 25.25 74.21875 29.59375 74.21875 
Q 40.828125 74.21875 47.359375 69.109375 
Q 53.90625 64.015625 53.90625 55.328125 
Q 53.90625 49.265625 50.4375 45.09375 
Q 46.96875 40.921875 40.578125 39.3125 
z
" id="DejaVuSans-51"/>
      </defs>
      <g transform="translate(426.22267 462.956562)scale(0.3 -0.3)">
       <use xlink:href="#DejaVuSans-51"/>
       <use x="63.623047" xlink:href="#DejaVuSans-48"/>
      </g>
     </g>
    </g>
    <g id="text_7">
     <!-- RADIUS -->
     <defs>
      <path d="M 7.328125 0 
L 7.328125 71.578125 
L 37.75 71.578125 
Q 49.21875 71.578125 54.421875 69.640625 
Q 59.625 67.71875 62.75 62.78125 
Q 65.875 57.859375 65.875 51.515625 
Q 65.875 43.453125 61.125 38.203125 
Q 56.390625 32.953125 46.96875 31.59375 
Q 51.65625 28.859375 54.703125 25.578125 
Q 57.765625 22.3125 62.9375 13.96875 
L 71.6875 0 
L 54.390625 0 
L 43.953125 15.578125 
Q 38.375 23.921875 36.328125 26.09375 
Q 34.28125 28.265625 31.984375 29.078125 
Q 29.6875 29.890625 24.703125 29.890625 
L 21.78125 29.890625 
L 21.78125 0 
z
M 21.78125 41.3125 
L 32.46875 41.3125 
Q 42.875 41.3125 45.453125 42.1875 
Q 48.046875 43.0625 49.515625 45.203125 
Q 50.984375 47.359375 50.984375 50.59375 
Q 50.984375 54.203125 49.046875 56.421875 
Q 47.125 58.640625 43.609375 59.234375 
Q 41.84375 59.46875 33.0625 59.46875 
L 21.78125 59.46875 
z
" id="Arial-BoldMT-82"/>
      <path d="M 71.828125 0 
L 56.109375 0 
L 49.859375 16.265625 
L 21.234375 16.265625 
L 15.328125 0 
L 0 0 
L 27.875 71.578125 
L 43.171875 71.578125 
z
M 45.21875 28.328125 
L 35.359375 54.890625 
L 25.6875 28.328125 
z
" id="Arial-BoldMT-65"/>
      <path d="M 7.234375 71.578125 
L 33.640625 71.578125 
Q 42.578125 71.578125 47.265625 70.21875 
Q 53.5625 68.359375 58.046875 63.625 
Q 62.546875 58.890625 64.890625 52.03125 
Q 67.234375 45.171875 67.234375 35.109375 
Q 67.234375 26.265625 65.046875 19.875 
Q 62.359375 12.0625 57.375 7.234375 
Q 53.609375 3.5625 47.21875 1.515625 
Q 42.4375 0 34.421875 0 
L 7.234375 0 
z
M 21.6875 59.46875 
L 21.6875 12.0625 
L 32.46875 12.0625 
Q 38.53125 12.0625 41.21875 12.75 
Q 44.734375 13.625 47.046875 15.71875 
Q 49.359375 17.828125 50.828125 22.625 
Q 52.296875 27.4375 52.296875 35.75 
Q 52.296875 44.046875 50.828125 48.484375 
Q 49.359375 52.9375 46.71875 55.421875 
Q 44.09375 57.90625 40.046875 58.796875 
Q 37.015625 59.46875 28.171875 59.46875 
z
" id="Arial-BoldMT-68"/>
      <path d="M 6.84375 0 
L 6.84375 71.578125 
L 21.296875 71.578125 
L 21.296875 0 
z
" id="Arial-BoldMT-73"/>
      <path d="M 7.171875 71.578125 
L 21.625 71.578125 
L 21.625 32.8125 
Q 21.625 23.578125 22.171875 20.84375 
Q 23.09375 16.453125 26.578125 13.796875 
Q 30.078125 11.140625 36.140625 11.140625 
Q 42.28125 11.140625 45.40625 13.640625 
Q 48.53125 16.15625 49.171875 19.8125 
Q 49.8125 23.484375 49.8125 31.984375 
L 49.8125 71.578125 
L 64.265625 71.578125 
L 64.265625 33.984375 
Q 64.265625 21.09375 63.09375 15.765625 
Q 61.921875 10.453125 58.765625 6.78125 
Q 55.609375 3.125 50.328125 0.953125 
Q 45.0625 -1.21875 36.578125 -1.21875 
Q 26.3125 -1.21875 21.015625 1.140625 
Q 15.71875 3.515625 12.640625 7.296875 
Q 9.578125 11.078125 8.59375 15.234375 
Q 7.171875 21.390625 7.171875 33.40625 
z
" id="Arial-BoldMT-85"/>
      <path d="M 3.609375 23.296875 
L 17.671875 24.65625 
Q 18.953125 17.578125 22.828125 14.25 
Q 26.703125 10.9375 33.296875 10.9375 
Q 40.28125 10.9375 43.8125 13.890625 
Q 47.359375 16.84375 47.359375 20.796875 
Q 47.359375 23.34375 45.875 25.125 
Q 44.390625 26.90625 40.671875 28.21875 
Q 38.140625 29.109375 29.109375 31.34375 
Q 17.484375 34.234375 12.796875 38.421875 
Q 6.203125 44.34375 6.203125 52.828125 
Q 6.203125 58.296875 9.296875 63.0625 
Q 12.40625 67.828125 18.234375 70.3125 
Q 24.078125 72.796875 32.328125 72.796875 
Q 45.796875 72.796875 52.609375 66.890625 
Q 59.421875 60.984375 59.765625 51.125 
L 45.3125 50.484375 
Q 44.390625 56 41.328125 58.421875 
Q 38.28125 60.84375 32.171875 60.84375 
Q 25.875 60.84375 22.3125 58.25 
Q 20.015625 56.59375 20.015625 53.8125 
Q 20.015625 51.265625 22.171875 49.46875 
Q 24.90625 47.171875 35.453125 44.671875 
Q 46 42.1875 51.046875 39.515625 
Q 56.109375 36.859375 58.953125 32.25 
Q 61.8125 27.640625 61.8125 20.84375 
Q 61.8125 14.703125 58.390625 9.328125 
Q 54.984375 3.953125 48.734375 1.34375 
Q 42.484375 -1.265625 33.15625 -1.265625 
Q 19.578125 -1.265625 12.296875 5 
Q 5.03125 11.28125 3.609375 23.296875 
z
" id="Arial-BoldMT-83"/>
     </defs>
     <g transform="translate(259.019688 493.51125)scale(0.2 -0.2)">
      <use xlink:href="#Arial-BoldMT-82"/>
      <use x="72.216797" xlink:href="#Arial-BoldMT-65"/>
      <use x="144.433594" xlink:href="#Arial-BoldMT-68"/>
      <use x="216.650391" xlink:href="#Arial-BoldMT-73"/>
      <use x="244.433594" xlink:href="#Arial-BoldMT-85"/>
      <use x="316.650391" xlink:href="#Arial-BoldMT-83"/>
     </g>
    </g>
   </g>
   <g id="matplotlib.axis_2">
    <g id="ytick_1">
     <g id="line2d_7">
      <defs>
       <path d="M 0 0 
L -3.5 0 
" id="mbce445811f" style="stroke:#000000;stroke-width:0.8;"/>
      </defs>
      <g>
       <use style="stroke:#000000;stroke-width:0.8;" x="102.055625" xlink:href="#mbce445811f" y="433.16125"/>
      </g>
     </g>
     <g id="text_8">
      <!-- 0 -->
      <g transform="translate(75.968125 444.558906)scale(0.3 -0.3)">
       <use xlink:href="#DejaVuSans-48"/>
      </g>
     </g>
    </g>
    <g id="ytick_2">
     <g id="line2d_8">
      <g>
       <use style="stroke:#000000;stroke-width:0.8;" x="102.055625" xlink:href="#mbce445811f" y="369.74125"/>
      </g>
     </g>
     <g id="text_9">
      <!-- 5 -->
      <g transform="translate(75.968125 381.138906)scale(0.3 -0.3)">
       <use xlink:href="#DejaVuSans-53"/>
      </g>
     </g>
    </g>
    <g id="ytick_3">
     <g id="line2d_9">
      <g>
       <use style="stroke:#000000;stroke-width:0.8;" x="102.055625" xlink:href="#mbce445811f" y="306.32125"/>
      </g>
     </g>
     <g id="text_10">
      <!-- 10 -->
      <g transform="translate(56.880625 317.718906)scale(0.3 -0.3)">
       <use xlink:href="#DejaVuSans-49"/>
       <use x="63.623047" xlink:href="#DejaVuSans-48"/>
      </g>
     </g>
    </g>
    <g id="ytick_4">
     <g id="line2d_10">
      <g>
       <use style="stroke:#000000;stroke-width:0.8;" x="102.055625" xlink:href="#mbce445811f" y="242.90125"/>
      </g>
     </g>
     <g id="text_11">
      <!-- 15 -->
      <g transform="translate(56.880625 254.298906)scale(0.3 -0.3)">
       <use xlink:href="#DejaVuSans-49"/>
       <use x="63.623047" xlink:href="#DejaVuSans-53"/>
      </g>
     </g>
    </g>
    <g id="ytick_5">
     <g id="line2d_11">
      <g>
       <use style="stroke:#000000;stroke-width:0.8;" x="102.055625" xlink:href="#mbce445811f" y="179.48125"/>
      </g>
     </g>
     <g id="text_12">
      <!-- 20 -->
      <g transform="translate(56.880625 190.878906)scale(0.3 -0.3)">
       <use xlink:href="#DejaVuSans-50"/>
       <use x="63.623047" xlink:href="#DejaVuSans-48"/>
      </g>
     </g>
    </g>
    <g id="ytick_6">
     <g id="line2d_12">
      <g>
       <use style="stroke:#000000;stroke-width:0.8;" x="102.055625" xlink:href="#mbce445811f" y="116.06125"/>
      </g>
     </g>
     <g id="text_13">
      <!-- 25 -->
      <g transform="translate(56.880625 127.458906)scale(0.3 -0.3)">
       <use xlink:href="#DejaVuSans-50"/>
       <use x="63.623047" xlink:href="#DejaVuSans-53"/>
      </g>
     </g>
    </g>
    <g id="ytick_7">
     <g id="line2d_13">
      <g>
       <use style="stroke:#000000;stroke-width:0.8;" x="102.055625" xlink:href="#mbce445811f" y="52.64125"/>
      </g>
     </g>
     <g id="text_14">
      <!-- 30 -->
      <g transform="translate(56.880625 64.038906)scale(0.3 -0.3)">
       <use xlink:href="#DejaVuSans-51"/>
       <use x="63.623047" xlink:href="#DejaVuSans-48"/>
      </g>
     </g>
    </g>
    <g id="text_15">
     <!-- T-CELL NORMALIZED -->
     <defs>
      <path d="M 23.390625 0 
L 23.390625 59.46875 
L 2.15625 59.46875 
L 2.15625 71.578125 
L 59.03125 71.578125 
L 59.03125 59.46875 
L 37.84375 59.46875 
L 37.84375 0 
z
" id="Arial-BoldMT-84"/>
      <path d="M 5.609375 19.09375 
L 5.609375 32.8125 
L 32.5625 32.8125 
L 32.5625 19.09375 
z
" id="Arial-BoldMT-45"/>
      <path d="M 53.078125 26.3125 
L 67.09375 21.875 
Q 63.875 10.15625 56.375 4.46875 
Q 48.875 -1.21875 37.359375 -1.21875 
Q 23.09375 -1.21875 13.90625 8.515625 
Q 4.734375 18.265625 4.734375 35.15625 
Q 4.734375 53.03125 13.953125 62.90625 
Q 23.1875 72.796875 38.234375 72.796875 
Q 51.375 72.796875 59.578125 65.046875 
Q 64.453125 60.453125 66.890625 51.859375 
L 52.59375 48.4375 
Q 51.3125 54 47.28125 57.21875 
Q 43.265625 60.453125 37.5 60.453125 
Q 29.546875 60.453125 24.578125 54.734375 
Q 19.625 49.03125 19.625 36.234375 
Q 19.625 22.65625 24.5 16.890625 
Q 29.390625 11.140625 37.203125 11.140625 
Q 42.96875 11.140625 47.109375 14.796875 
Q 51.265625 18.453125 53.078125 26.3125 
z
" id="Arial-BoldMT-67"/>
      <path d="M 7.28125 0 
L 7.28125 71.578125 
L 60.359375 71.578125 
L 60.359375 59.46875 
L 21.734375 59.46875 
L 21.734375 43.609375 
L 57.671875 43.609375 
L 57.671875 31.546875 
L 21.734375 31.546875 
L 21.734375 12.0625 
L 61.71875 12.0625 
L 61.71875 0 
z
" id="Arial-BoldMT-69"/>
      <path d="M 7.671875 0 
L 7.671875 71 
L 22.125 71 
L 22.125 12.0625 
L 58.0625 12.0625 
L 58.0625 0 
z
" id="Arial-BoldMT-76"/>
      <path id="Arial-BoldMT-32"/>
      <path d="M 7.421875 0 
L 7.421875 71.578125 
L 21.484375 71.578125 
L 50.78125 23.78125 
L 50.78125 71.578125 
L 64.203125 71.578125 
L 64.203125 0 
L 49.703125 0 
L 20.84375 46.6875 
L 20.84375 0 
z
" id="Arial-BoldMT-78"/>
      <path d="M 4.34375 35.359375 
Q 4.34375 46.296875 7.625 53.71875 
Q 10.0625 59.1875 14.28125 63.53125 
Q 18.5 67.875 23.53125 69.96875 
Q 30.21875 72.796875 38.96875 72.796875 
Q 54.78125 72.796875 64.28125 62.984375 
Q 73.78125 53.171875 73.78125 35.6875 
Q 73.78125 18.359375 64.359375 8.5625 
Q 54.9375 -1.21875 39.15625 -1.21875 
Q 23.1875 -1.21875 13.765625 8.515625 
Q 4.34375 18.265625 4.34375 35.359375 
z
M 19.234375 35.84375 
Q 19.234375 23.6875 24.84375 17.40625 
Q 30.46875 11.140625 39.109375 11.140625 
Q 47.75 11.140625 53.296875 17.359375 
Q 58.84375 23.578125 58.84375 36.03125 
Q 58.84375 48.34375 53.4375 54.390625 
Q 48.046875 60.453125 39.109375 60.453125 
Q 30.171875 60.453125 24.703125 54.3125 
Q 19.234375 48.1875 19.234375 35.84375 
z
" id="Arial-BoldMT-79"/>
      <path d="M 7.078125 0 
L 7.078125 71.578125 
L 28.71875 71.578125 
L 41.703125 22.75 
L 54.546875 71.578125 
L 76.21875 71.578125 
L 76.21875 0 
L 62.796875 0 
L 62.796875 56.34375 
L 48.578125 0 
L 34.671875 0 
L 20.515625 56.34375 
L 20.515625 0 
z
" id="Arial-BoldMT-77"/>
      <path d="M 1.078125 0 
L 1.078125 13.03125 
L 38.671875 59.46875 
L 5.328125 59.46875 
L 5.328125 71.578125 
L 57.71875 71.578125 
L 57.71875 60.359375 
L 18.5 12.0625 
L 59.234375 12.0625 
L 59.234375 0 
z
" id="Arial-BoldMT-90"/>
     </defs>
     <g transform="translate(21.253125 347.874687)rotate(-90)scale(0.2 -0.2)">
      <use xlink:href="#Arial-BoldMT-84"/>
      <use x="61.005859" xlink:href="#Arial-BoldMT-45"/>
      <use x="94.306641" xlink:href="#Arial-BoldMT-67"/>
      <use x="166.523438" xlink:href="#Arial-BoldMT-69"/>
      <use x="233.222656" xlink:href="#Arial-BoldMT-76"/>
      <use x="294.306641" xlink:href="#Arial-BoldMT-76"/>
      <use x="355.375" xlink:href="#Arial-BoldMT-32"/>
      <use x="383.158203" xlink:href="#Arial-BoldMT-78"/>
      <use x="455.375" xlink:href="#Arial-BoldMT-79"/>
      <use x="533.158203" xlink:href="#Arial-BoldMT-82"/>
      <use x="605.375" xlink:href="#Arial-BoldMT-77"/>
      <use x="688.675781" xlink:href="#Arial-BoldMT-65"/>
      <use x="760.892578" xlink:href="#Arial-BoldMT-76"/>
      <use x="821.976562" xlink:href="#Arial-BoldMT-73"/>
      <use x="849.759766" xlink:href="#Arial-BoldMT-90"/>
      <use x="910.84375" xlink:href="#Arial-BoldMT-69"/>
      <use x="977.542969" xlink:href="#Arial-BoldMT-68"/>
     </g>
     <!-- CELL COUNTS (NUMBERS) -->
     <defs>
      <path d="M 29.9375 -21.046875 
L 20.515625 -21.046875 
Q 13.03125 -9.765625 9.125 2.390625 
Q 5.21875 14.546875 5.21875 25.921875 
Q 5.21875 40.046875 10.0625 52.640625 
Q 14.265625 63.578125 20.703125 72.796875 
L 30.078125 72.796875 
Q 23.390625 58.015625 20.875 47.625 
Q 18.359375 37.25 18.359375 25.640625 
Q 18.359375 17.625 19.84375 9.21875 
Q 21.34375 0.828125 23.921875 -6.734375 
Q 25.640625 -11.71875 29.9375 -21.046875 
z
" id="Arial-BoldMT-40"/>
      <path d="M 7.328125 71.578125 
L 35.9375 71.578125 
Q 44.4375 71.578125 48.609375 70.875 
Q 52.78125 70.171875 56.078125 67.921875 
Q 59.375 65.671875 61.5625 61.9375 
Q 63.765625 58.203125 63.765625 53.5625 
Q 63.765625 48.53125 61.046875 44.328125 
Q 58.34375 40.140625 53.71875 38.03125 
Q 60.25 36.140625 63.765625 31.546875 
Q 67.28125 26.953125 67.28125 20.75 
Q 67.28125 15.875 65.015625 11.25 
Q 62.75 6.640625 58.8125 3.875 
Q 54.890625 1.125 49.125 0.484375 
Q 45.515625 0.09375 31.6875 0 
L 7.328125 0 
z
M 21.78125 59.671875 
L 21.78125 43.109375 
L 31.25 43.109375 
Q 39.703125 43.109375 41.75 43.359375 
Q 45.453125 43.796875 47.578125 45.921875 
Q 49.703125 48.046875 49.703125 51.515625 
Q 49.703125 54.828125 47.875 56.90625 
Q 46.046875 58.984375 42.4375 59.421875 
Q 40.28125 59.671875 30.078125 59.671875 
z
M 21.78125 31.203125 
L 21.78125 12.0625 
L 35.15625 12.0625 
Q 42.96875 12.0625 45.0625 12.5 
Q 48.296875 13.09375 50.3125 15.359375 
Q 52.34375 17.625 52.34375 21.4375 
Q 52.34375 24.65625 50.78125 26.90625 
Q 49.21875 29.15625 46.265625 30.171875 
Q 43.3125 31.203125 33.453125 31.203125 
z
" id="Arial-BoldMT-66"/>
      <path d="M 3.375 -21.046875 
Q 7.421875 -12.359375 9.078125 -7.71875 
Q 10.75 -3.078125 12.15625 2.96875 
Q 13.578125 9.03125 14.25 14.46875 
Q 14.9375 19.921875 14.9375 25.640625 
Q 14.9375 37.25 12.453125 47.625 
Q 9.96875 58.015625 3.265625 72.796875 
L 12.59375 72.796875 
Q 19.96875 62.3125 24.046875 50.53125 
Q 28.125 38.765625 28.125 26.65625 
Q 28.125 16.453125 24.90625 4.78125 
Q 21.234375 -8.296875 12.84375 -21.046875 
z
" id="Arial-BoldMT-41"/>
     </defs>
     <g transform="translate(42.67125 374.002812)rotate(-90)scale(0.2 -0.2)">
      <use xlink:href="#Arial-BoldMT-67"/>
      <use x="72.216797" xlink:href="#Arial-BoldMT-69"/>
      <use x="138.916016" xlink:href="#Arial-BoldMT-76"/>
      <use x="200" xlink:href="#Arial-BoldMT-76"/>
      <use x="261.068359" xlink:href="#Arial-BoldMT-32"/>
      <use x="288.851562" xlink:href="#Arial-BoldMT-67"/>
      <use x="361.068359" xlink:href="#Arial-BoldMT-79"/>
      <use x="438.851562" xlink:href="#Arial-BoldMT-85"/>
      <use x="511.068359" xlink:href="#Arial-BoldMT-78"/>
      <use x="583.285156" xlink:href="#Arial-BoldMT-84"/>
      <use x="644.369141" xlink:href="#Arial-BoldMT-83"/>
      <use x="711.068359" xlink:href="#Arial-BoldMT-32"/>
      <use x="738.851562" xlink:href="#Arial-BoldMT-40"/>
      <use x="772.152344" xlink:href="#Arial-BoldMT-78"/>
      <use x="844.369141" xlink:href="#Arial-BoldMT-85"/>
      <use x="916.585938" xlink:href="#Arial-BoldMT-77"/>
      <use x="999.886719" xlink:href="#Arial-BoldMT-66"/>
      <use x="1072.103516" xlink:href="#Arial-BoldMT-69"/>
      <use x="1138.802734" xlink:href="#Arial-BoldMT-82"/>
      <use x="1211.019531" xlink:href="#Arial-BoldMT-83"/>
      <use x="1277.71875" xlink:href="#Arial-BoldMT-41"/>
     </g>
    </g>
   </g>
   <g id="line2d_14">
    <path clip-path="url(#p0e34a84335)" d="M 102.055625 179.48125 
L 113.891989 162.56925 
L 125.728352 160.45525 
L 137.564716 148.475917 
L 149.40108 135.61575 
L 161.237443 135.93285 
L 173.073807 149.88525 
L 184.91017 138.10725 
L 196.746534 121.34625 
L 208.582898 120.054361 
L 220.419261 125.57425 
L 232.255625 137.969977 
L 244.091989 129.80225 
L 255.928352 141.104019 
L 267.764716 141.42925 
L 279.60108 143.54325 
L 291.437443 154.906 
L 303.273807 147.398191 
L 315.11017 144.60025 
L 326.946534 146.769882 
L 338.782898 148.19405 
L 350.619261 134.885917 
L 362.455625 151.038341 
L 374.291989 142.440293 
L 386.128352 145.216833 
L 397.964716 146.75653 
L 409.80108 143.705865 
L 421.637443 132.190287 
L 433.473807 130.63275 
L 445.31017 142.231112 
L 457.146534 142.69765 
L 468.982898 160.659831 
L 480.819261 169.902187 
L 492.655625 160.006826 
" style="fill:none;stroke:#08306b;stroke-linecap:square;stroke-width:1.5;"/>
   </g>
   <g id="line2d_15">
    <path clip-path="url(#p0e34a84335)" d="M 102.055625 154.11325 
L 113.891989 149.88525 
L 125.728352 165.74025 
L 137.564716 109.014583 
L 149.40108 138.25825 
L 161.237443 139.73805 
L 173.073807 146.361917 
L 184.91017 159.54925 
L 196.746534 165.21175 
L 208.582898 156.22725 
L 220.419261 166.58585 
L 232.255625 164.491068 
L 244.091989 142.310083 
L 255.928352 153.137558 
L 267.764716 132.97325 
L 279.60108 137.342183 
L 291.437443 148.0355 
L 303.273807 154.735015 
L 315.11017 146.009583 
L 326.946534 134.197145 
L 338.782898 135.40435 
L 350.619261 145.254583 
L 362.455625 143.447159 
L 374.291989 140.23438 
L 386.128352 132.97325 
L 397.964716 127.22317 
L 409.80108 127.68825 
L 421.637443 133.677917 
L 433.473807 132.36925 
L 445.31017 150.322629 
L 457.146534 147.277983 
L 468.982898 159.50054 
L 480.819261 150.1495 
L 492.655625 144.56822 
" style="fill:none;stroke:#08306b;stroke-linecap:square;stroke-width:1.5;"/>
   </g>
   <g id="line2d_16">
    <path clip-path="url(#p0e34a84335)" d="M 102.055625 230.21725 
L 113.891989 145.65725 
L 125.728352 135.08725 
L 137.564716 122.40325 
L 149.40108 135.08725 
L 161.237443 134.24165 
L 173.073807 118.527583 
L 184.91017 139.61725 
L 196.746534 131.91625 
L 208.582898 154.11325 
L 220.419261 132.33905 
L 232.255625 138.738705 
L 244.091989 123.636417 
L 255.928352 120.614481 
L 267.764716 116.66525 
L 279.60108 140.58365 
L 291.437443 139.31525 
L 303.273807 157.346426 
L 315.11017 161.159917 
L 326.946534 156.449776 
L 338.782898 156.43865 
L 350.619261 148.37525 
L 362.455625 141.42925 
L 374.291989 126.815076 
L 386.128352 134.03025 
L 397.964716 142.69765 
L 409.80108 135.412481 
L 421.637443 143.386657 
L 433.473807 134.86075 
L 445.31017 142.960078 
L 457.146534 126.349383 
L 468.982898 137.610411 
L 480.819261 142.222 
L 492.655625 147.515008 
" style="fill:none;stroke:#08306b;stroke-linecap:square;stroke-width:1.5;"/>
   </g>
   <g id="line2d_17">
    <path clip-path="url(#p0e34a84335)" d="M 102.055625 154.11325 
L 113.891989 171.02525 
L 125.728352 157.28425 
L 137.564716 163.978583 
L 149.40108 149.88525 
L 161.237443 140.58365 
L 173.073807 162.56925 
L 184.91017 143.84525 
L 196.746534 131.1235 
L 208.582898 159.280806 
L 220.419261 153.05625 
L 232.255625 144.888523 
L 244.091989 147.066583 
L 255.928352 149.88525 
L 267.764716 139.91925 
L 279.60108 144.670717 
L 291.437443 137.4655 
L 303.273807 134.589838 
L 315.11017 118.292694 
L 326.946534 137.20125 
L 338.782898 140.58365 
L 350.619261 146.462583 
L 362.455625 139.603523 
L 374.291989 141.888815 
L 386.128352 138.082083 
L 397.964716 140.41453 
L 409.80108 124.435942 
L 421.637443 136.731472 
L 433.473807 147.92225 
L 445.31017 137.055457 
L 457.146534 154.74745 
L 468.982898 165.296992 
L 480.819261 158.737625 
L 492.655625 157.444402 
" style="fill:none;stroke:#08306b;stroke-linecap:square;stroke-width:1.5;"/>
   </g>
   <g id="line2d_18">
    <path clip-path="url(#p0e34a84335)" d="M 102.055625 141.42925 
L 113.891989 232.33125 
L 125.728352 135.08725 
L 137.564716 164.68325 
L 149.40108 174.72475 
L 161.237443 168.91125 
L 173.073807 160.102917 
L 184.91017 164.07925 
L 196.746534 141.6935 
L 208.582898 141.194361 
L 220.419261 133.18465 
L 232.255625 138.354341 
L 244.091989 143.719417 
L 255.928352 145.332019 
L 267.764716 142.63725 
L 279.60108 131.845783 
L 291.437443 139.31525 
L 303.273807 139.190897 
L 315.11017 149.298028 
L 326.946534 146.992408 
L 338.782898 158.23555 
L 350.619261 146.059917 
L 362.455625 151.710977 
L 374.291989 144.554293 
L 386.128352 150.678 
L 397.964716 149.63157 
L 409.80108 137.770404 
L 421.637443 146.675102 
L 433.473807 130.78375 
L 445.31017 143.251664 
L 457.146534 127.68825 
L 468.982898 148.316798 
L 480.819261 154.443562 
L 492.655625 143.799492 
" style="fill:none;stroke:#08306b;stroke-linecap:square;stroke-width:1.5;"/>
   </g>
   <g id="line2d_19">
    <path clip-path="url(#p0e34a84335)" d="M 102.055625 128.74525 
L 113.891989 118.17525 
L 125.728352 99.14925 
L 137.564716 120.28925 
L 149.40108 147.77125 
L 161.237443 100.84045 
L 173.073807 105.138917 
L 184.91017 104.28325 
L 196.746534 139.5795 
L 208.582898 140.019917 
L 220.419261 148.82825 
L 232.255625 130.667068 
L 244.091989 151.99925 
L 255.928352 152.649712 
L 267.764716 156.52925 
L 279.60108 155.663517 
L 291.437443 143.01475 
L 303.273807 144.538074 
L 315.11017 143.073472 
L 326.946534 148.327566 
L 338.782898 132.12765 
L 350.619261 141.12725 
L 362.455625 140.468341 
L 374.291989 146.208728 
L 386.128352 135.175333 
L 397.964716 140.24541 
L 409.80108 141.347942 
L 421.637443 142.681991 
L 433.473807 136.37075 
L 445.31017 138.659181 
L 457.146534 143.684183 
L 468.982898 149.817056 
L 480.819261 148.894312 
L 492.655625 145.016644 
" style="fill:none;stroke:#08306b;stroke-linecap:square;stroke-width:1.5;"/>
   </g>
   <g id="line2d_20">
    <path clip-path="url(#p0e34a84335)" d="M 105.454808 -1 
L 113.891989 54.75525 
L 125.728352 118.17525 
L 137.564716 123.107917 
L 149.40108 120.28925 
L 161.237443 126.63125 
L 173.073807 135.439583 
L 184.91017 134.78525 
L 196.746534 156.22725 
L 208.582898 138.140806 
L 220.419261 149.03965 
L 232.255625 152.383614 
L 244.091989 129.978417 
L 255.928352 132.97325 
L 267.764716 131.76525 
L 279.60108 144.529783 
L 291.437443 139.975875 
L 303.273807 141.926662 
L 315.11017 140.489694 
L 326.946534 148.105039 
L 338.782898 168.69985 
L 350.619261 149.58325 
L 362.455625 156.035068 
L 374.291989 141.888815 
L 386.128352 144.247917 
L 397.964716 146.08005 
L 409.80108 136.469481 
L 421.637443 147.458065 
L 433.473807 144.82675 
L 445.31017 130.057388 
L 457.146534 141.358783 
L 468.982898 150.089831 
L 480.819261 138.25825 
L 492.655625 160.839614 
" style="fill:none;stroke:#08306b;stroke-linecap:square;stroke-width:1.5;"/>
   </g>
   <g id="line2d_21">
    <path clip-path="url(#p0e34a84335)" d="M 102.055625 116.06125 
L 113.891989 196.39325 
L 125.728352 181.59525 
L 137.564716 168.91125 
L 149.40108 154.64175 
L 161.237443 152.42205 
L 173.073807 162.216917 
L 184.91017 119.68525 
L 196.746534 127.15975 
L 208.582898 154.11325 
L 220.419261 142.06345 
L 232.255625 140.468341 
L 244.091989 136.67275 
L 255.928352 150.047865 
L 267.764716 145.95925 
L 279.60108 138.04685 
L 291.437443 135.61575 
L 303.273807 141.42925 
L 315.11017 144.482806 
L 326.946534 138.202618 
L 338.782898 143.54325 
L 350.619261 131.966583 
L 362.455625 143.062795 
L 374.291989 149.425685 
L 386.128352 147.24275 
L 397.964716 155.29709 
L 409.80108 156.471173 
L 421.637443 148.162731 
L 433.473807 147.24275 
L 445.31017 138.586284 
L 457.146534 131.352517 
L 468.982898 155.545315 
L 480.819261 155.69875 
L 492.655625 155.394462 
" style="fill:none;stroke:#08306b;stroke-linecap:square;stroke-width:1.5;"/>
   </g>
   <g id="line2d_22">
    <path clip-path="url(#p0e34a84335)" d="M 102.055625 204.84925 
L 113.891989 154.11325 
L 125.728352 139.31525 
L 137.564716 144.952583 
L 149.40108 140.37225 
L 161.237443 129.59085 
L 173.073807 128.040583 
L 184.91017 137.50325 
L 196.746534 159.92675 
L 208.582898 153.408583 
L 220.419261 127.26545 
L 232.255625 146.233795 
L 244.091989 140.90075 
L 255.928352 139.803096 
L 267.764716 132.52025 
L 279.60108 157.213783 
L 291.437443 145.789375 
L 303.273807 137.325603 
L 315.11017 143.895583 
L 326.946534 133.640829 
L 338.782898 142.59195 
L 350.619261 139.113917 
L 362.455625 141.140977 
L 374.291989 149.333772 
L 386.128352 137.377417 
L 397.964716 143.96605 
L 409.80108 154.275865 
L 421.637443 144.639398 
L 433.473807 142.48625 
L 445.31017 145.292767 
L 457.146534 140.654117 
L 468.982898 147.907637 
L 480.819261 155.566625 
L 492.655625 154.817917 
" style="fill:none;stroke:#08306b;stroke-linecap:square;stroke-width:1.5;"/>
   </g>
   <g id="line2d_23">
    <path clip-path="url(#p0e34a84335)" d="M 102.055625 116.06125 
L 113.891989 160.45525 
L 125.728352 140.37225 
L 137.564716 129.449917 
L 149.40108 119.76075 
L 161.237443 147.34845 
L 173.073807 151.99925 
L 184.91017 157.13325 
L 196.746534 154.906 
L 208.582898 128.980139 
L 220.419261 127.26545 
L 232.255625 160.263068 
L 244.091989 130.683083 
L 255.928352 136.062942 
L 267.764716 131.61425 
L 279.60108 141.711117 
L 291.437443 149.35675 
L 303.273807 146.900779 
L 315.11017 152.586472 
L 326.946534 151.665461 
L 338.782898 151.99925 
L 350.619261 148.97925 
L 362.455625 145.368977 
L 374.291989 138.579946 
L 386.128352 137.905917 
L 397.964716 141.42925 
L 409.80108 138.25825 
L 421.637443 128.275472 
L 433.473807 141.20275 
L 445.31017 140.846078 
L 457.146534 143.895583 
L 468.982898 146.066411 
L 480.819261 145.062687 
L 492.655625 133.549795 
" style="fill:none;stroke:#08306b;stroke-linecap:square;stroke-width:1.5;"/>
   </g>
   <g id="line2d_24">
    <path clip-path="url(#p0e34a84335)" d="M 102.055625 242.90125 
L 113.891989 166.79725 
L 125.728352 155.17025 
L 137.564716 163.978583 
L 149.40108 131.38775 
L 161.237443 142.69765 
L 173.073807 156.22725 
L 184.91017 162.26725 
L 196.746534 183.70925 
L 208.582898 190.521028 
L 220.419261 182.22945 
L 232.255625 172.370523 
L 244.091989 157.636583 
L 255.928352 152.487096 
L 267.764716 153.81125 
L 279.60108 130.01365 
L 291.437443 156.887875 
L 303.273807 163.937132 
L 315.11017 159.750583 
L 326.946534 166.240934 
L 338.782898 187.19735 
L 350.619261 165.689917 
L 362.455625 156.515523 
L 374.291989 150.988207 
L 386.128352 141.253083 
L 397.964716 163.92221 
L 409.80108 178.912096 
L 421.637443 172.591176 
L 433.473807 166.19325 
L 445.31017 177.658836 
L 457.146534 180.11545 
L 468.982898 171.707185 
L 480.819261 177.829687 
L 492.655625 197.033856 
" style="fill:none;stroke:#4a98c9;stroke-linecap:square;stroke-width:1.5;"/>
   </g>
   <g id="line2d_25">
    <path clip-path="url(#p0e34a84335)" d="M 102.055625 141.42925 
L 113.891989 128.74525 
L 125.728352 164.68325 
L 137.564716 114.651917 
L 149.40108 156.22725 
L 161.237443 183.70925 
L 173.073807 213.657583 
L 184.91017 208.47325 
L 196.746534 209.87 
L 208.582898 206.258583 
L 220.419261 194.27925 
L 232.255625 156.995977 
L 244.091989 145.12875 
L 255.928352 156.715096 
L 267.764716 150.79125 
L 279.60108 139.456183 
L 291.437443 160.058875 
L 303.273807 144.538074 
L 315.11017 171.729917 
L 326.946534 172.916724 
L 338.782898 192.37665 
L 350.619261 170.72325 
L 362.455625 174.388432 
L 374.291989 164.958989 
L 386.128352 180.450167 
L 397.964716 175.67605 
L 409.80108 170.212173 
L 421.637443 167.345324 
L 433.473807 161.13475 
L 445.31017 170.296284 
L 457.146534 158.97545 
L 468.982898 168.774863 
L 480.819261 160.124937 
L 492.655625 192.613674 
" style="fill:none;stroke:#4a98c9;stroke-linecap:square;stroke-width:1.5;"/>
   </g>
   <g id="line2d_26">
    <path clip-path="url(#p0e34a84335)" d="M 102.055625 433.16125 
L 113.891989 308.43525 
L 125.728352 247.12925 
L 137.564716 124.51725 
L 149.40108 131.91625 
L 161.237443 111.41045 
L 173.073807 146.71425 
L 184.91017 122.70525 
L 196.746534 116.58975 
L 208.582898 144.013028 
L 220.419261 138.04685 
L 232.255625 164.491068 
L 244.091989 143.54325 
L 255.928352 174.440173 
L 267.764716 158.49225 
L 279.60108 172.29365 
L 291.437443 155.963 
L 303.273807 169.159956 
L 315.11017 162.686694 
L 326.946534 166.129671 
L 338.782898 169.86255 
L 350.619261 186.527917 
L 362.455625 184.76625 
L 374.291989 158.065511 
L 386.128352 161.864583 
L 397.964716 157.07285 
L 409.80108 162.406635 
L 421.637443 171.338435 
L 433.473807 168.60925 
L 445.31017 170.077595 
L 457.146534 177.296783 
L 468.982898 173.684798 
L 480.819261 179.150937 
L 492.655625 201.966523 
" style="fill:none;stroke:#4a98c9;stroke-linecap:square;stroke-width:1.5;"/>
   </g>
   <g id="line2d_27">
    <path clip-path="url(#p0e34a84335)" d="M 102.055625 128.74525 
L 113.891989 141.42925 
L 125.728352 126.63125 
L 137.564716 154.817917 
L 149.40108 145.12875 
L 161.237443 151.57645 
L 173.073807 161.864583 
L 184.91017 153.20725 
L 196.746534 154.64175 
L 208.582898 155.052806 
L 220.419261 157.28425 
L 232.255625 162.953614 
L 244.091989 152.880083 
L 255.928352 150.698327 
L 267.764716 157.28425 
L 279.60108 168.91125 
L 291.437443 151.338625 
L 303.273807 157.968191 
L 315.11017 154.700472 
L 326.946534 169.133776 
L 338.782898 151.57645 
L 350.619261 153.20725 
L 362.455625 165.932432 
L 374.291989 152.642641 
L 386.128352 158.517417 
L 397.964716 161.46997 
L 409.80108 157.853404 
L 421.637443 160.298657 
L 433.473807 169.66625 
L 445.31017 172.92056 
L 457.146534 168.981717 
L 468.982898 178.867508 
L 480.819261 179.943687 
L 492.655625 208.05228 
" style="fill:none;stroke:#4a98c9;stroke-linecap:square;stroke-width:1.5;"/>
   </g>
   <g id="line2d_28">
    <path clip-path="url(#p0e34a84335)" d="M 102.055625 154.11325 
L 113.891989 183.70925 
L 125.728352 158.34125 
L 137.564716 159.750583 
L 149.40108 143.54325 
L 161.237443 151.57645 
L 173.073807 138.610583 
L 184.91017 144.14725 
L 196.746534 151.99925 
L 208.582898 172.669472 
L 220.419261 160.45525 
L 232.255625 162.761432 
L 244.091989 163.978583 
L 255.928352 141.754481 
L 267.764716 146.41225 
L 279.60108 143.12045 
L 291.437443 150.678 
L 303.273807 143.418897 
L 315.11017 134.500028 
L 326.946534 147.326197 
L 338.782898 141.95775 
L 350.619261 153.50925 
L 362.455625 170.064341 
L 374.291989 167.164902 
L 386.128352 186.0875 
L 397.964716 171.87085 
L 409.80108 153.381481 
L 421.637443 159.82888 
L 433.473807 138.40925 
L 445.31017 143.834836 
L 457.146534 143.049983 
L 468.982898 159.29596 
L 480.819261 167.59 
L 492.655625 196.585432 
" style="fill:none;stroke:#4a98c9;stroke-linecap:square;stroke-width:1.5;"/>
   </g>
   <g id="line2d_29">
    <path clip-path="url(#p0e34a84335)" d="M 102.055625 65.32525 
L 113.891989 109.71925 
L 125.728352 107.60525 
L 137.564716 95.625917 
L 149.40108 151.47075 
L 161.237443 163.83765 
L 173.073807 187.93725 
L 184.91017 174.95125 
L 196.746534 182.9165 
L 208.582898 176.192806 
L 220.419261 138.89245 
L 232.255625 151.230523 
L 244.091989 178.776583 
L 255.928352 154.275865 
L 267.764716 176.31025 
L 279.60108 162.287383 
L 291.437443 157.152125 
L 303.273807 149.88525 
L 315.11017 157.401694 
L 326.946534 156.561039 
L 338.782898 146.08005 
L 350.619261 160.354583 
L 362.455625 153.248432 
L 374.291989 171.484815 
L 386.128352 163.009667 
L 397.964716 179.81949 
L 409.80108 172.651404 
L 421.637443 176.349398 
L 433.473807 165.74025 
L 445.31017 153.748767 
L 457.146534 147.77125 
L 468.982898 155.06796 
L 480.819261 152.131375 
L 492.655625 171.793977 
" style="fill:none;stroke:#4a98c9;stroke-linecap:square;stroke-width:1.5;"/>
   </g>
   <g id="line2d_30">
    <path clip-path="url(#p0e34a84335)" d="M 102.055625 128.74525 
L 113.891989 194.27925 
L 125.728352 214.36225 
L 137.564716 226.693917 
L 149.40108 218.59025 
L 161.237443 195.97045 
L 173.073807 181.242917 
L 184.91017 167.09925 
L 196.746534 174.19625 
L 208.582898 151.294583 
L 220.419261 147.98265 
L 232.255625 169.103432 
L 244.091989 164.68325 
L 255.928352 165.008481 
L 267.764716 149.58325 
L 279.60108 156.65005 
L 291.437443 162.56925 
L 303.273807 153.988897 
L 315.11017 140.724583 
L 326.946534 141.540513 
L 338.782898 162.67495 
L 350.619261 156.22725 
L 362.455625 162.665341 
L 374.291989 163.856033 
L 386.128352 175.341333 
L 397.964716 170.43333 
L 409.80108 165.252404 
L 421.637443 168.206583 
L 433.473807 166.57075 
L 445.31017 160.382353 
L 457.146534 162.287383 
L 468.982898 177.776411 
L 480.819261 164.9475 
L 492.655625 192.421492 
" style="fill:none;stroke:#4a98c9;stroke-linecap:square;stroke-width:1.5;"/>
   </g>
   <g id="line2d_31">
    <path clip-path="url(#p0e34a84335)" d="M 102.055625 128.74525 
L 113.891989 200.62125 
L 125.728352 180.53825 
L 137.564716 165.387917 
L 149.40108 124.51725 
L 161.237443 150.73085 
L 173.073807 134.734917 
L 184.91017 127.53725 
L 196.746534 139.5795 
L 208.582898 145.187472 
L 220.419261 162.99205 
L 232.255625 158.917795 
L 244.091989 160.279083 
L 255.928352 167.935558 
L 267.764716 172.83725 
L 279.60108 168.91125 
L 291.437443 159.794625 
L 303.273807 149.512191 
L 315.11017 147.653806 
L 326.946534 138.870197 
L 338.782898 154.32465 
L 350.619261 141.831917 
L 362.455625 156.803795 
L 374.291989 148.874207 
L 386.128352 150.589917 
L 397.964716 158.34125 
L 409.80108 152.405788 
L 421.637443 149.493769 
L 433.473807 151.77275 
L 445.31017 151.99925 
L 457.146534 172.998317 
L 468.982898 172.320927 
L 480.819261 184.369875 
L 492.655625 210.614705 
" style="fill:none;stroke:#4a98c9;stroke-linecap:square;stroke-width:1.5;"/>
   </g>
   <g id="line2d_32">
    <path clip-path="url(#p0e34a84335)" d="M 102.055625 242.90125 
L 113.891989 160.45525 
L 125.728352 163.62625 
L 137.564716 199.916583 
L 149.40108 196.39325 
L 161.237443 163.83765 
L 173.073807 168.558917 
L 184.91017 162.87125 
L 196.746534 171.55375 
L 208.582898 200.62125 
L 220.419261 193.43365 
L 232.255625 180.826523 
L 244.091989 153.58475 
L 255.928352 169.886942 
L 267.764716 163.32425 
L 279.60108 165.810717 
L 291.437443 153.849 
L 303.273807 143.916309 
L 315.11017 143.778139 
L 326.946534 150.552829 
L 338.782898 151.57645 
L 350.619261 155.32125 
L 362.455625 153.440614 
L 374.291989 165.234728 
L 386.128352 150.061417 
L 397.964716 151.83013 
L 409.80108 163.62625 
L 421.637443 158.654435 
L 433.473807 150.41375 
L 445.31017 153.89456 
L 457.146534 149.744317 
L 468.982898 151.04454 
L 480.819261 146.846375 
L 492.655625 164.042644 
" style="fill:none;stroke:#4a98c9;stroke-linecap:square;stroke-width:1.5;"/>
   </g>
   <g id="line2d_33">
    <path clip-path="url(#p0e34a84335)" d="M 102.055625 255.58525 
L 113.891989 335.91725 
L 125.728352 276.72525 
L 137.564716 254.880583 
L 149.40108 214.89075 
L 161.237443 176.94445 
L 173.073807 178.776583 
L 184.91017 139.91925 
L 196.746534 151.99925 
L 208.582898 150.589917 
L 220.419261 156.65005 
L 232.255625 151.422705 
L 244.091989 148.82825 
L 255.928352 151.511404 
L 267.764716 152.45225 
L 279.60108 161.018983 
L 291.437443 161.7765 
L 303.273807 170.527838 
L 315.11017 177.484694 
L 326.946534 172.694197 
L 338.782898 148.82825 
L 350.619261 140.724583 
L 362.455625 157.764705 
L 374.291989 154.940467 
L 386.128352 152.792 
L 397.964716 167.30461 
L 409.80108 161.674865 
L 421.637443 148.554213 
L 433.473807 148.14875 
L 445.31017 142.887181 
L 457.146534 141.922517 
L 468.982898 144.907121 
L 480.819261 154.972062 
L 492.655625 180.698402 
" style="fill:none;stroke:#4a98c9;stroke-linecap:square;stroke-width:1.5;"/>
   </g>
   <g id="line2d_34">
    <path clip-path="url(#p0e34a84335)" d="M 102.055625 306.32125 
L 113.891989 388.76725 
L 125.728352 358.11425 
L 137.564716 357.761917 
L 149.40108 356.52875 
L 161.237443 339.72245 
L 173.073807 351.067583 
L 184.91017 335.91725 
L 196.746534 341.995 
L 208.582898 340.380139 
L 220.419261 337.39705 
L 232.255625 339.376523 
L 244.091989 322.352417 
L 255.928352 339.169558 
L 267.764716 347.54425 
L 279.60108 333.239517 
L 291.437443 333.142625 
L 303.273807 339.026074 
L 315.11017 336.387028 
L 326.946534 325.681039 
L 338.782898 339.61675 
L 350.619261 332.695917 
L 362.455625 314.488977 
L 374.291989 307.699946 
L 386.128352 289.761583 
L 397.964716 303.69989 
L 409.80108 312.256712 
L 421.637443 312.741546 
L 433.473807 309.34125 
L 445.31017 320.390284 
L 457.146534 309.351317 
L 468.982898 299.365508 
L 480.819261 292.448125 
L 492.655625 300.171432 
" style="fill:none;stroke:#d0e1f2;stroke-linecap:square;stroke-width:1.5;"/>
   </g>
   <g id="line2d_35">
    <path clip-path="url(#p0e34a84335)" d="M 102.055625 433.16125 
L 113.891989 399.33725 
L 125.728352 345.43025 
L 137.564716 358.466583 
L 149.40108 335.91725 
L 161.237443 313.50885 
L 173.073807 338.03125 
L 184.91017 319.00525 
L 196.746534 349.12975 
L 208.582898 348.836139 
L 220.419261 353.04065 
L 232.255625 337.262523 
L 244.091989 306.145083 
L 255.928352 325.997712 
L 267.764716 322.93125 
L 279.60108 328.30685 
L 291.437443 330.500125 
L 303.273807 330.818779 
L 315.11017 336.269583 
L 326.946534 324.679671 
L 338.782898 323.97315 
L 350.619261 329.776583 
L 362.455625 327.845614 
L 374.291989 344.557076 
L 386.128352 337.150417 
L 397.964716 326.86933 
L 409.80108 327.623865 
L 421.637443 328.322509 
L 433.473807 331.68925 
L 445.31017 332.491112 
L 457.146534 320.203183 
L 468.982898 315.390992 
L 480.819261 293.571187 
L 492.655625 309.52428 
" style="fill:none;stroke:#d0e1f2;stroke-linecap:square;stroke-width:1.5;"/>
   </g>
   <g id="line2d_36">
    <path clip-path="url(#p0e34a84335)" d="M 102.055625 433.16125 
L 113.891989 373.96925 
L 125.728352 336.97425 
L 137.564716 350.010583 
L 149.40108 330.10375 
L 161.237443 357.05725 
L 173.073807 349.65825 
L 184.91017 320.81725 
L 196.746534 339.881 
L 208.582898 337.091694 
L 220.419261 327.67265 
L 232.255625 324.962886 
L 244.091989 309.49225 
L 255.928352 318.842635 
L 267.764716 314.47525 
L 279.60108 326.051917 
L 291.437443 330.368 
L 303.273807 331.564897 
L 315.11017 331.219472 
L 326.946534 319.784092 
L 338.782898 330.73795 
L 350.619261 344.97725 
L 362.455625 339.664795 
L 374.291989 334.446641 
L 386.128352 329.487167 
L 397.964716 333.80325 
L 409.80108 326.160327 
L 421.637443 325.112361 
L 433.473807 320.89275 
L 445.31017 312.080078 
L 457.146534 295.187517 
L 468.982898 289.477444 
L 480.819261 284.586687 
L 492.655625 307.218098 
" style="fill:none;stroke:#d0e1f2;stroke-linecap:square;stroke-width:1.5;"/>
   </g>
   <g id="line2d_37">
    <path clip-path="url(#p0e34a84335)" d="M 102.055625 369.74125 
L 113.891989 367.62725 
L 125.728352 352.82925 
L 137.564716 373.96925 
L 149.40108 346.48725 
L 161.237443 337.18565 
L 173.073807 338.383583 
L 184.91017 323.23325 
L 196.746534 322.17625 
L 208.582898 334.038139 
L 220.419261 339.93385 
L 232.255625 348.216886 
L 244.091989 350.18675 
L 255.928352 335.754635 
L 267.764716 321.42125 
L 279.60108 327.743117 
L 291.437443 301.03625 
L 303.273807 305.699485 
L 315.11017 313.485361 
L 326.946534 327.46125 
L 338.782898 327.14415 
L 350.619261 319.00525 
L 362.455625 328.614341 
L 374.291989 325.806815 
L 386.128352 315.217667 
L 397.964716 328.64509 
L 409.80108 331.526635 
L 421.637443 330.045028 
L 433.473807 318.25025 
L 445.31017 310.111871 
L 457.146534 295.610317 
L 468.982898 296.501379 
L 480.819261 279.698062 
L 492.655625 303.438523 
" style="fill:none;stroke:#d0e1f2;stroke-linecap:square;stroke-width:1.5;"/>
   </g>
   <g id="line2d_38">
    <path clip-path="url(#p0e34a84335)" d="M 102.055625 242.90125 
L 113.891989 373.96925 
L 125.728352 336.97425 
L 137.564716 336.621917 
L 149.40108 354.41475 
L 161.237443 350.29245 
L 173.073807 361.28525 
L 184.91017 344.67525 
L 196.746534 343.31625 
L 208.582898 347.191917 
L 220.419261 329.99805 
L 232.255625 339.760886 
L 244.091989 350.18675 
L 255.928352 328.274327 
L 267.764716 338.63525 
L 279.60108 329.57525 
L 291.437443 316.759125 
L 303.273807 312.538897 
L 315.11017 305.968917 
L 326.946534 312.218197 
L 338.782898 313.29745 
L 350.619261 328.06525 
L 362.455625 334.956341 
L 374.291989 337.295946 
L 386.128352 337.678917 
L 397.964716 344.03501 
L 409.80108 336.567712 
L 421.637443 335.604065 
L 433.473807 328.59375 
L 445.31017 326.513595 
L 457.146534 309.28085 
L 468.982898 299.02454 
L 480.819261 287.097062 
L 492.655625 299.210523 
" style="fill:none;stroke:#d0e1f2;stroke-linecap:square;stroke-width:1.5;"/>
   </g>
   <g id="line2d_39">
    <path clip-path="url(#p0e34a84335)" d="M 102.055625 382.42525 
L 113.891989 403.56525 
L 125.728352 353.88625 
L 137.564716 340.14525 
L 149.40108 370.79825 
L 161.237443 351.13805 
L 173.073807 355.647917 
L 184.91017 357.35925 
L 196.746534 337.50275 
L 208.582898 354.473472 
L 220.419261 323.86745 
L 232.255625 311.510159 
L 244.091989 303.502583 
L 255.928352 326.810788 
L 267.764716 332.29325 
L 279.60108 340.708983 
L 291.437443 330.8965 
L 303.273807 329.450897 
L 315.11017 321.471583 
L 326.946534 328.351355 
L 338.782898 321.33065 
L 350.619261 334.10525 
L 362.455625 325.058977 
L 374.291989 331.045859 
L 386.128352 317.772083 
L 397.964716 330.67453 
L 409.80108 319.330481 
L 421.637443 323.85962 
L 433.473807 318.77875 
L 445.31017 317.401526 
L 457.146534 309.210383 
L 468.982898 299.842863 
L 480.819261 286.23825 
L 492.655625 306.193129 
" style="fill:none;stroke:#d0e1f2;stroke-linecap:square;stroke-width:1.5;"/>
   </g>
   <g id="line2d_40">
    <path clip-path="url(#p0e34a84335)" d="M 102.055625 433.16125 
L 113.891989 373.96925 
L 125.728352 351.77225 
L 137.564716 342.25925 
L 149.40108 354.94325 
L 161.237443 334.64885 
L 173.073807 330.279917 
L 184.91017 335.31325 
L 196.746534 346.223 
L 208.582898 322.528583 
L 220.419261 301.88185 
L 232.255625 313.816341 
L 244.091989 292.932583 
L 255.928352 316.728635 
L 267.764716 320.66625 
L 279.60108 330.279917 
L 291.437443 346.090875 
L 303.273807 331.564897 
L 315.11017 317.830806 
L 326.946534 325.569776 
L 338.782898 342.04785 
L 350.619261 325.548583 
L 362.455625 336.301614 
L 374.291989 325.531076 
L 386.128352 319.445667 
L 397.964716 339.04597 
L 409.80108 325.753788 
L 421.637443 328.792287 
L 433.473807 324.51675 
L 445.31017 328.846284 
L 457.146534 317.032183 
L 468.982898 313.61796 
L 480.819261 302.159312 
L 492.655625 316.186583 
" style="fill:none;stroke:#d0e1f2;stroke-linecap:square;stroke-width:1.5;"/>
   </g>
   <g id="line2d_41">
    <path clip-path="url(#p0e34a84335)" d="M 102.055625 395.10925 
L 113.891989 384.53925 
L 125.728352 358.11425 
L 137.564716 352.124583 
L 149.40108 348.07275 
L 161.237443 351.13805 
L 173.073807 324.642583 
L 184.91017 324.74325 
L 196.746534 316.0985 
L 208.582898 325.817028 
L 220.419261 332.95765 
L 232.255625 320.158341 
L 244.091989 329.399083 
L 255.928352 328.436942 
L 267.764716 328.97125 
L 279.60108 330.138983 
L 291.437443 323.4975 
L 303.273807 315.896426 
L 315.11017 329.222917 
L 326.946534 325.681039 
L 338.782898 319.63945 
L 350.619261 329.776583 
L 362.455625 339.472614 
L 374.291989 336.560641 
L 386.128352 332.922417 
L 397.964716 334.64885 
L 409.80108 337.949942 
L 421.637443 331.376065 
L 433.473807 330.63225 
L 445.31017 323.743526 
L 457.146534 311.535783 
L 468.982898 308.912605 
L 480.819261 283.06725 
L 492.655625 304.463492 
" style="fill:none;stroke:#d0e1f2;stroke-linecap:square;stroke-width:1.5;"/>
   </g>
   <g id="line2d_42">
    <path clip-path="url(#p0e34a84335)" d="M 102.055625 407.79325 
L 113.891989 386.65325 
L 125.728352 332.74625 
L 137.564716 369.036583 
L 149.40108 350.18675 
L 161.237443 294.48285 
L 173.073807 313.015583 
L 184.91017 276.72525 
L 196.746534 296.80825 
L 208.582898 309.374806 
L 220.419261 320.06225 
L 232.255625 309.780523 
L 244.091989 320.414583 
L 255.928352 335.91725 
L 267.764716 344.82625 
L 279.60108 338.313117 
L 291.437443 340.805875 
L 303.273807 327.834309 
L 315.11017 324.760028 
L 326.946534 327.46125 
L 338.782898 317.10265 
L 350.619261 311.354583 
L 362.455625 313.143705 
L 374.291989 312.571337 
L 386.128352 315.393833 
L 397.964716 331.85837 
L 409.80108 331.68925 
L 421.637443 334.351324 
L 433.473807 331.31175 
L 445.31017 333.876147 
L 457.146534 321.11925 
L 468.982898 302.775185 
L 480.819261 291.721437 
L 492.655625 303.310402 
" style="fill:none;stroke:#d0e1f2;stroke-linecap:square;stroke-width:1.5;"/>
   </g>
   <g id="line2d_43">
    <path clip-path="url(#p0e34a84335)" d="M 102.055625 395.10925 
L 113.891989 365.51325 
L 125.728352 350.71525 
L 137.564716 364.103917 
L 149.40108 348.60125 
L 161.237443 357.05725 
L 173.073807 332.74625 
L 184.91017 316.28725 
L 196.746534 310.54925 
L 208.582898 328.635694 
L 220.419261 323.23325 
L 232.255625 322.464523 
L 244.091989 328.165917 
L 255.928352 331.68925 
L 267.764716 338.93725 
L 279.60108 344.514183 
L 291.437443 347.147875 
L 303.273807 342.134897 
L 315.11017 337.913806 
L 326.946534 341.591671 
L 338.782898 346.69865 
L 350.619261 322.427917 
L 362.455625 321.215341 
L 374.291989 327.46125 
L 386.128352 326.228083 
L 397.964716 328.13773 
L 409.80108 325.265942 
L 421.637443 323.389843 
L 433.473807 328.59375 
L 445.31017 312.809043 
L 457.146534 308.928517 
L 468.982898 285.249444 
L 480.819261 290.532312 
L 492.655625 301.772947 
" style="fill:none;stroke:#d0e1f2;stroke-linecap:square;stroke-width:1.5;"/>
   </g>
   <g id="line2d_44">
    <path clip-path="url(#p0e34a84335)" d="M 102.055625 230.21725 
L 113.891989 168.91125 
L 125.728352 137.20125 
L 137.564716 166.092583 
L 149.40108 160.45525 
L 161.237443 144.38885 
L 173.073807 132.620917 
L 184.91017 107.30325 
L 196.746534 106.01975 
L 208.582898 120.524139 
L 220.419261 137.41265 
L 232.255625 156.995977 
L 244.091989 147.24275 
L 255.928352 161.593558 
L 267.764716 149.58325 
L 279.60108 140.724583 
L 291.437443 152.924125 
L 303.273807 151.750544 
L 315.11017 148.241028 
L 326.946534 158.118724 
L 338.782898 158.12985 
L 350.619261 145.757917 
L 362.455625 156.131159 
L 374.291989 160.179511 
L 386.128352 143.719417 
L 397.964716 138.13141 
L 409.80108 147.933865 
L 421.637443 155.444287 
L 433.473807 141.65575 
L 445.31017 162.715043 
L 457.146534 149.955717 
L 468.982898 153.976863 
L 480.819261 158.473375 
L 492.655625 150.269614 
" style="fill:none;stroke:#1764ab;stroke-linecap:square;stroke-width:1.5;"/>
   </g>
   <g id="line2d_45">
    <path clip-path="url(#p0e34a84335)" d="M 102.055625 78.00925 
L 113.891989 109.71925 
L 125.728352 102.32025 
L 137.564716 103.37725 
L 149.40108 154.64175 
L 161.237443 168.91125 
L 173.073807 192.869917 
L 184.91017 154.71725 
L 196.746534 138.5225 
L 208.582898 145.65725 
L 220.419261 149.67385 
L 232.255625 154.881977 
L 244.091989 130.683083 
L 255.928352 132.810635 
L 267.764716 133.87925 
L 279.60108 115.497517 
L 291.437443 147.639125 
L 303.273807 150.009603 
L 315.11017 150.355028 
L 326.946534 133.863355 
L 338.782898 143.54325 
L 350.619261 146.56325 
L 362.455625 151.710977 
L 374.291989 137.385076 
L 386.128352 154.906 
L 397.964716 145.74181 
L 409.80108 132.729327 
L 421.637443 140.333102 
L 433.473807 146.41225 
L 445.31017 158.34125 
L 457.146534 151.505983 
L 468.982898 146.81654 
L 480.819261 137.069125 
L 492.655625 139.571492 
" style="fill:none;stroke:#1764ab;stroke-linecap:square;stroke-width:1.5;"/>
   </g>
   <g id="line2d_46">
    <path clip-path="url(#p0e34a84335)" d="M 102.055625 268.26925 
L 113.891989 160.45525 
L 125.728352 123.46025 
L 137.564716 120.28925 
L 149.40108 123.98875 
L 161.237443 129.16805 
L 173.073807 127.335917 
L 184.91017 124.21525 
L 196.746534 126.8955 
L 208.582898 132.97325 
L 220.419261 134.24165 
L 232.255625 150.461795 
L 244.091989 119.056083 
L 255.928352 138.827404 
L 267.764716 137.50325 
L 279.60108 158.482183 
L 291.437443 148.29975 
L 303.273807 155.605485 
L 315.11017 138.493139 
L 326.946534 146.992408 
L 338.782898 147.24275 
L 350.619261 151.495917 
L 362.455625 145.849432 
L 374.291989 138.212293 
L 386.128352 146.538083 
L 397.964716 141.85205 
L 409.80108 136.794712 
L 421.637443 146.518509 
L 433.473807 151.01775 
L 445.31017 156.883319 
L 457.146534 143.33185 
L 468.982898 142.520347 
L 480.819261 146.516062 
L 492.655625 158.085008 
" style="fill:none;stroke:#1764ab;stroke-linecap:square;stroke-width:1.5;"/>
   </g>
   <g id="line2d_47">
    <path clip-path="url(#p0e34a84335)" d="M 102.055625 128.74525 
L 113.891989 164.68325 
L 125.728352 136.14425 
L 137.564716 142.838583 
L 149.40108 143.01475 
L 161.237443 132.55045 
L 173.073807 152.703917 
L 184.91017 143.54325 
L 196.746534 139.051 
L 208.582898 161.159917 
L 220.419261 161.51225 
L 232.255625 160.263068 
L 244.091989 151.118417 
L 255.928352 155.739404 
L 267.764716 131.46325 
L 279.60108 152.281117 
L 291.437443 140.37225 
L 303.273807 124.890309 
L 315.11017 130.741806 
L 326.946534 142.430618 
L 338.782898 146.81995 
L 350.619261 137.704583 
L 362.455625 149.020432 
L 374.291989 141.153511 
L 386.128352 140.108 
L 397.964716 141.68293 
L 409.80108 136.550788 
L 421.637443 136.888065 
L 433.473807 151.31975 
L 445.31017 147.042284 
L 457.146534 151.012717 
L 468.982898 152.95396 
L 480.819261 145.326937 
L 492.655625 159.238098 
" style="fill:none;stroke:#1764ab;stroke-linecap:square;stroke-width:1.5;"/>
   </g>
   <g id="line2d_48">
    <path clip-path="url(#p0e34a84335)" d="M 102.055625 65.32525 
L 113.891989 154.11325 
L 125.728352 178.42425 
L 137.564716 157.636583 
L 149.40108 155.69875 
L 161.237443 145.23445 
L 173.073807 157.28425 
L 184.91017 167.70325 
L 196.746534 148.82825 
L 208.582898 151.059694 
L 220.419261 154.32465 
L 232.255625 135.279432 
L 244.091989 153.58475 
L 255.928352 136.388173 
L 267.764716 138.40925 
L 279.60108 147.630317 
L 291.437443 151.338625 
L 303.273807 150.507015 
L 315.11017 152.938806 
L 326.946534 148.772618 
L 338.782898 147.87695 
L 350.619261 154.213917 
L 362.455625 150.94225 
L 374.291989 147.035946 
L 386.128352 162.393083 
L 397.964716 150.47717 
L 409.80108 143.299327 
L 421.637443 151.294583 
L 433.473807 140.97625 
L 445.31017 140.773181 
L 457.146534 134.87585 
L 468.982898 141.633831 
L 480.819261 139.5795 
L 492.655625 133.357614 
" style="fill:none;stroke:#1764ab;stroke-linecap:square;stroke-width:1.5;"/>
   </g>
   <g id="line2d_49">
    <path clip-path="url(#p0e34a84335)" d="M 102.055625 166.79725 
L 113.891989 124.51725 
L 125.728352 119.23225 
L 137.564716 87.874583 
L 149.40108 150.41375 
L 161.237443 105.06845 
L 173.073807 104.786583 
L 184.91017 119.68525 
L 196.746534 125.04575 
L 208.582898 124.752139 
L 220.419261 146.71425 
L 232.255625 142.966705 
L 244.091989 158.517417 
L 255.928352 142.079712 
L 267.764716 150.18725 
L 279.60108 146.784717 
L 291.437443 143.675375 
L 303.273807 153.242779 
L 315.11017 154.230694 
L 326.946534 159.342618 
L 338.782898 156.96715 
L 350.619261 158.64325 
L 362.455625 147.002523 
L 374.291989 156.778728 
L 386.128352 152.351583 
L 397.964716 155.55077 
L 409.80108 155.576788 
L 421.637443 149.650361 
L 433.473807 135.38925 
L 445.31017 137.784422 
L 457.146534 141.64065 
L 468.982898 139.928992 
L 480.819261 139.645562 
L 492.655625 139.379311 
" style="fill:none;stroke:#1764ab;stroke-linecap:square;stroke-width:1.5;"/>
   </g>
   <g id="line2d_50">
    <path clip-path="url(#p0e34a84335)" d="M 102.055625 103.37725 
L 113.891989 149.88525 
L 125.728352 183.70925 
L 137.564716 165.387917 
L 149.40108 157.81275 
L 161.237443 141.42925 
L 173.073807 127.68825 
L 184.91017 144.44925 
L 196.746534 162.305 
L 208.582898 124.047472 
L 220.419261 151.57645 
L 232.255625 161.223977 
L 244.091989 136.320417 
L 255.928352 140.290942 
L 267.764716 135.84225 
L 279.60108 150.30805 
L 291.437443 140.768625 
L 303.273807 152.745368 
L 315.11017 155.874917 
L 326.946534 147.103671 
L 338.782898 158.86975 
L 350.619261 155.32125 
L 362.455625 161.127886 
L 374.291989 144.370467 
L 386.128352 139.755667 
L 397.964716 156.31181 
L 409.80108 148.746942 
L 421.637443 150.824806 
L 433.473807 139.23975 
L 445.31017 130.130284 
L 457.146534 135.791917 
L 468.982898 154.590605 
L 480.819261 128.348875 
L 492.655625 155.266341 
" style="fill:none;stroke:#1764ab;stroke-linecap:square;stroke-width:1.5;"/>
   </g>
   <g id="line2d_51">
    <path clip-path="url(#p0e34a84335)" d="M 102.055625 65.32525 
L 113.891989 171.02525 
L 125.728352 160.45525 
L 137.564716 149.180583 
L 149.40108 116.58975 
L 161.237443 157.49565 
L 173.073807 168.558917 
L 184.91017 134.48325 
L 196.746534 148.564 
L 208.582898 153.173694 
L 220.419261 146.92565 
L 232.255625 152.191432 
L 244.091989 143.190917 
L 255.928352 150.373096 
L 267.764716 152.75425 
L 279.60108 153.26765 
L 291.437443 147.77125 
L 303.273807 154.735015 
L 315.11017 153.05625 
L 326.946534 136.867461 
L 338.782898 157.70705 
L 350.619261 149.88525 
L 362.455625 165.932432 
L 374.291989 156.594902 
L 386.128352 153.672833 
L 397.964716 153.60589 
L 409.80108 148.015173 
L 421.637443 144.717694 
L 433.473807 152.75425 
L 445.31017 146.532009 
L 457.146534 146.50285 
L 468.982898 144.225185 
L 480.819261 147.705187 
L 492.655625 152.127371 
" style="fill:none;stroke:#1764ab;stroke-linecap:square;stroke-width:1.5;"/>
   </g>
   <g id="line2d_52">
    <path clip-path="url(#p0e34a84335)" d="M 102.055625 242.90125 
L 113.891989 99.14925 
L 125.728352 113.94725 
L 137.564716 137.20125 
L 149.40108 126.10275 
L 161.237443 132.55045 
L 173.073807 140.724583 
L 184.91017 145.95925 
L 196.746534 143.54325 
L 208.582898 181.59525 
L 220.419261 143.12045 
L 232.255625 156.611614 
L 244.091989 142.310083 
L 255.928352 141.917096 
L 267.764716 139.16425 
L 279.60108 157.777517 
L 291.437443 141.561375 
L 303.273807 137.574309 
L 315.11017 147.77125 
L 326.946534 145.100934 
L 338.782898 150.30805 
L 350.619261 135.69125 
L 362.455625 151.807068 
L 374.291989 146.760207 
L 386.128352 140.37225 
L 397.964716 149.96981 
L 409.80108 145.575942 
L 421.637443 146.831694 
L 433.473807 145.50625 
L 445.31017 141.064767 
L 457.146534 138.821983 
L 468.982898 134.882669 
L 480.819261 140.504375 
L 492.655625 141.237068 
" style="fill:none;stroke:#1764ab;stroke-linecap:square;stroke-width:1.5;"/>
   </g>
   <g id="line2d_53">
    <path clip-path="url(#p0e34a84335)" d="M 102.055625 128.74525 
L 113.891989 162.56925 
L 125.728352 163.62625 
L 137.564716 140.019917 
L 149.40108 133.50175 
L 161.237443 144.38885 
L 173.073807 172.08225 
L 184.91017 146.56325 
L 196.746534 164.68325 
L 208.582898 141.42925 
L 220.419261 140.16085 
L 232.255625 156.035068 
L 244.091989 153.937083 
L 255.928352 135.412481 
L 267.764716 116.36325 
L 279.60108 140.442717 
L 291.437443 140.90075 
L 303.273807 148.641721 
L 315.11017 136.731472 
L 326.946534 133.863355 
L 338.782898 145.23445 
L 350.619261 145.35525 
L 362.455625 144.888523 
L 374.291989 145.197685 
L 386.128352 150.678 
L 397.964716 153.35221 
L 409.80108 146.958173 
L 421.637443 143.621546 
L 433.473807 140.82525 
L 445.31017 143.105871 
L 457.146534 147.841717 
L 468.982898 147.703056 
L 480.819261 142.089875 
L 492.655625 135.471614 
" style="fill:none;stroke:#1764ab;stroke-linecap:square;stroke-width:1.5;"/>
   </g>
   <g id="line2d_54">
    <path clip-path="url(#p0e34a84335)" d="M 102.055625 344.37325 
L 113.891989 340.14525 
L 125.728352 287.29525 
L 137.564716 253.47125 
L 149.40108 202.73525 
L 161.237443 212.03685 
L 173.073807 205.90625 
L 184.91017 248.63925 
L 196.746534 243.42975 
L 208.582898 220.821694 
L 220.419261 232.11985 
L 232.255625 238.096705 
L 244.091989 212.600583 
L 255.928352 215.094019 
L 267.764716 205.15125 
L 279.60108 207.80885 
L 291.437443 204.188625 
L 303.273807 211.315603 
L 315.11017 226.811361 
L 326.946534 235.891671 
L 338.782898 230.32295 
L 350.619261 233.438583 
L 362.455625 226.469705 
L 374.291989 221.393598 
L 386.128352 218.06175 
L 397.964716 229.54077 
L 409.80108 241.762942 
L 421.637443 226.61562 
L 433.473807 219.64725 
L 445.31017 241.151733 
L 457.146534 228.10325 
L 468.982898 214.873702 
L 480.819261 220.307875 
L 492.655625 235.662402 
" style="fill:none;stroke:#94c4df;stroke-linecap:square;stroke-width:1.5;"/>
   </g>
   <g id="line2d_55">
    <path clip-path="url(#p0e34a84335)" d="M 102.055625 331.68925 
L 113.891989 352.82925 
L 125.728352 325.34725 
L 137.564716 290.818583 
L 149.40108 282.01025 
L 161.237443 269.53765 
L 173.073807 237.263917 
L 184.91017 210.58725 
L 196.746534 222.0255 
L 208.582898 250.182806 
L 220.419261 218.16745 
L 232.255625 198.50725 
L 244.091989 179.305083 
L 255.928352 204.361404 
L 267.764716 202.58425 
L 279.60108 194.138317 
L 291.437443 205.642 
L 303.273807 211.688662 
L 315.11017 212.365694 
L 326.946534 213.639039 
L 338.782898 230.00585 
L 350.619261 210.58725 
L 362.455625 213.497432 
L 374.291989 219.095772 
L 386.128352 216.7405 
L 397.964716 222.94509 
L 409.80108 232.33125 
L 421.637443 229.199398 
L 433.473807 235.12475 
L 445.31017 242.172284 
L 457.146534 245.22665 
L 468.982898 251.561831 
L 480.819261 233.322187 
L 492.655625 267.308341 
" style="fill:none;stroke:#94c4df;stroke-linecap:square;stroke-width:1.5;"/>
   </g>
   <g id="line2d_56">
    <path clip-path="url(#p0e34a84335)" d="M 102.055625 407.79325 
L 113.891989 283.06725 
L 125.728352 274.61125 
L 137.564716 161.864583 
L 149.40108 233.38825 
L 161.237443 187.51445 
L 173.073807 202.030583 
L 184.91017 182.80325 
L 196.746534 191.901 
L 208.582898 195.688583 
L 220.419261 215.41925 
L 232.255625 231.562523 
L 244.091989 213.83375 
L 255.928352 220.948173 
L 267.764716 210.73825 
L 279.60108 232.33125 
L 291.437443 221.893375 
L 303.273807 225.491838 
L 315.11017 231.039361 
L 326.946534 215.307987 
L 338.782898 204.00365 
L 350.619261 225.08325 
L 362.455625 237.039705 
L 374.291989 231.13638 
L 386.128352 227.222417 
L 397.964716 241.12549 
L 409.80108 230.379865 
L 421.637443 240.395769 
L 433.473807 241.69325 
L 445.31017 246.91056 
L 457.146534 236.911583 
L 468.982898 220.670153 
L 480.819261 217.731437 
L 492.655625 252.638462 
" style="fill:none;stroke:#94c4df;stroke-linecap:square;stroke-width:1.5;"/>
   </g>
   <g id="line2d_57">
    <path clip-path="url(#p0e34a84335)" d="M 102.055625 154.11325 
L 113.891989 327.46125 
L 125.728352 295.75125 
L 137.564716 289.40925 
L 149.40108 227.57475 
L 161.237443 240.78725 
L 173.073807 239.377917 
L 184.91017 249.24325 
L 196.746534 224.668 
L 208.582898 251.592139 
L 220.419261 276.30245 
L 232.255625 261.92725 
L 244.091989 251.181083 
L 255.928352 223.87525 
L 267.764716 228.85825 
L 279.60108 234.02245 
L 291.437443 230.4815 
L 303.273807 234.942662 
L 315.11017 226.928806 
L 326.946534 222.985145 
L 338.782898 219.85865 
L 350.619261 216.02325 
L 362.455625 235.310068 
L 374.291989 230.125337 
L 386.128352 217.00475 
L 397.964716 227.42677 
L 409.80108 215.41925 
L 421.637443 227.085398 
L 433.473807 228.48075 
L 445.31017 228.394836 
L 457.146534 227.116717 
L 468.982898 211.19125 
L 480.819261 203.660125 
L 492.655625 239.121674 
" style="fill:none;stroke:#94c4df;stroke-linecap:square;stroke-width:1.5;"/>
   </g>
   <g id="line2d_58">
    <path clip-path="url(#p0e34a84335)" d="M 102.055625 27.27325 
L 113.891989 120.28925 
L 125.728352 93.86425 
L 137.564716 124.51725 
L 149.40108 157.28425 
L 161.237443 183.28645 
L 173.073807 223.170583 
L 184.91017 271.89325 
L 196.746534 274.08275 
L 208.582898 234.210361 
L 220.419261 216.26485 
L 232.255625 220.992523 
L 244.091989 205.025417 
L 255.928352 210.540788 
L 267.764716 215.57025 
L 279.60108 224.579917 
L 291.437443 227.706875 
L 303.273807 220.517721 
L 315.11017 215.536694 
L 326.946534 224.542829 
L 338.782898 236.24215 
L 350.619261 225.787917 
L 362.455625 234.733523 
L 374.291989 212.018467 
L 386.128352 212.072083 
L 397.964716 218.46341 
L 409.80108 194.685788 
L 421.637443 202.500361 
L 433.473807 205.67975 
L 445.31017 221.76125 
L 457.146534 219.64725 
L 468.982898 229.26254 
L 480.819261 230.283312 
L 492.655625 261.991311 
" style="fill:none;stroke:#94c4df;stroke-linecap:square;stroke-width:1.5;"/>
   </g>
   <g id="line2d_59">
    <path clip-path="url(#p0e34a84335)" d="M 102.055625 52.64125 
L 113.891989 109.71925 
L 125.728352 105.49125 
L 137.564716 128.040583 
L 149.40108 182.12375 
L 161.237443 260.65885 
L 173.073807 282.714917 
L 184.91017 260.71925 
L 196.746534 271.7045 
L 208.582898 233.740583 
L 220.419261 225.35505 
L 232.255625 208.500705 
L 244.091989 220.351917 
L 255.928352 215.907096 
L 267.764716 214.06025 
L 279.60108 227.68045 
L 291.437443 193.75075 
L 303.273807 182.217015 
L 315.11017 182.299917 
L 326.946534 199.063566 
L 338.782898 190.15695 
L 350.619261 209.07725 
L 362.455625 209.942068 
L 374.291989 225.529685 
L 386.128352 228.807917 
L 397.964716 241.63285 
L 409.80108 249.161942 
L 421.637443 232.566139 
L 433.473807 214.06025 
L 445.31017 210.097802 
L 457.146534 210.486583 
L 468.982898 204.508282 
L 480.819261 207.029312 
L 492.655625 234.189008 
" style="fill:none;stroke:#94c4df;stroke-linecap:square;stroke-width:1.5;"/>
   </g>
   <g id="line2d_60">
    <path clip-path="url(#p0e34a84335)" d="M 102.055625 433.16125 
L 113.891989 323.23325 
L 125.728352 296.80825 
L 137.564716 259.81325 
L 149.40108 252.94275 
L 161.237443 242.90125 
L 173.073807 239.73025 
L 184.91017 242.90125 
L 196.746534 238.409 
L 208.582898 229.512583 
L 220.419261 225.98925 
L 232.255625 225.220523 
L 244.091989 236.735417 
L 255.928352 226.802327 
L 267.764716 208.47325 
L 279.60108 228.807917 
L 291.437443 225.98925 
L 303.273807 217.160191 
L 315.11017 208.490028 
L 326.946534 205.071776 
L 338.782898 215.52495 
L 350.619261 224.076583 
L 362.455625 225.028341 
L 374.291989 219.64725 
L 386.128352 224.051417 
L 397.964716 221.67669 
L 409.80108 232.493865 
L 421.637443 262.55362 
L 433.473807 249.31875 
L 445.31017 254.273112 
L 457.146534 249.525117 
L 468.982898 245.560798 
L 480.819261 224.668 
L 492.655625 252.125977 
" style="fill:none;stroke:#94c4df;stroke-linecap:square;stroke-width:1.5;"/>
   </g>
   <g id="line2d_61">
    <path clip-path="url(#p0e34a84335)" d="M 102.055625 154.11325 
L 113.891989 255.58525 
L 125.728352 187.93725 
L 137.564716 197.802583 
L 149.40108 171.02525 
L 161.237443 159.18685 
L 173.073807 155.874917 
L 184.91017 135.99325 
L 196.746534 157.02 
L 208.582898 183.944139 
L 220.419261 191.10825 
L 232.255625 198.315068 
L 244.091989 202.911417 
L 255.928352 229.729404 
L 267.764716 225.98925 
L 279.60108 235.71365 
L 291.437443 237.08775 
L 303.273807 225.98925 
L 315.11017 225.049694 
L 326.946534 225.321671 
L 338.782898 228.20895 
L 350.619261 229.91525 
L 362.455625 224.451795 
L 374.291989 219.64725 
L 386.128352 200.357 
L 397.964716 204.00365 
L 409.80108 195.092327 
L 421.637443 207.981102 
L 433.473807 213.38075 
L 445.31017 215.127664 
L 457.146534 227.398583 
L 468.982898 228.989766 
L 480.819261 241.84425 
L 492.655625 261.606947 
" style="fill:none;stroke:#94c4df;stroke-linecap:square;stroke-width:1.5;"/>
   </g>
   <g id="line2d_62">
    <path clip-path="url(#p0e34a84335)" d="M 102.055625 293.63725 
L 113.891989 297.86525 
L 125.728352 268.26925 
L 137.564716 333.098583 
L 149.40108 302.62175 
L 161.237443 244.16965 
L 173.073807 265.450583 
L 184.91017 250.14925 
L 196.746534 243.42975 
L 208.582898 249.478139 
L 220.419261 237.19345 
L 232.255625 227.911068 
L 244.091989 196.569417 
L 255.928352 204.524019 
L 267.764716 213.60725 
L 279.60108 205.553917 
L 291.437443 185.29475 
L 303.273807 177.491603 
L 315.11017 186.293028 
L 326.946534 185.266934 
L 338.782898 189.31135 
L 350.619261 212.09725 
L 362.455625 219.262886 
L 374.291989 226.356902 
L 386.128352 206.082417 
L 397.964716 209.92285 
L 409.80108 218.834173 
L 421.637443 222.779102 
L 433.473807 230.29275 
L 445.31017 242.099388 
L 457.146534 231.133317 
L 468.982898 226.534798 
L 480.819261 218.8545 
L 492.655625 242.452826 
" style="fill:none;stroke:#94c4df;stroke-linecap:square;stroke-width:1.5;"/>
   </g>
   <g id="line2d_63">
    <path clip-path="url(#p0e34a84335)" d="M 102.055625 268.26925 
L 113.891989 280.95325 
L 125.728352 272.49725 
L 137.564716 307.025917 
L 149.40108 264.04125 
L 161.237443 253.47125 
L 173.073807 242.90125 
L 184.91017 163.77725 
L 196.746534 148.564 
L 208.582898 142.603694 
L 220.419261 177.15585 
L 232.255625 166.412886 
L 244.091989 178.42425 
L 255.928352 187.774635 
L 267.764716 180.53825 
L 279.60108 196.252317 
L 291.437443 203.26375 
L 303.273807 198.755956 
L 315.11017 197.215361 
L 326.946534 192.610303 
L 338.782898 217.42755 
L 350.619261 197.500583 
L 362.455625 207.347614 
L 374.291989 203.010989 
L 386.128352 197.186 
L 397.964716 216.01117 
L 409.80108 203.873558 
L 421.637443 204.457769 
L 433.473807 223.12025 
L 445.31017 206.74456 
L 457.146534 224.08665 
L 468.982898 224.625379 
L 480.819261 211.257312 
L 492.655625 240.659129 
" style="fill:none;stroke:#94c4df;stroke-linecap:square;stroke-width:1.5;"/>
   </g>
   <g id="line2d_64">
    <path clip-path="url(#p0e34a84335)" d="M 102.055625 433.16125 
L 113.891989 433.16125 
L 125.728352 433.16125 
L 137.564716 433.16125 
L 149.40108 433.16125 
L 161.237443 433.16125 
L 173.073807 433.16125 
L 184.91017 433.16125 
L 196.746534 433.16125 
L 208.582898 433.16125 
L 220.419261 433.16125 
L 232.255625 433.16125 
L 244.091989 433.16125 
L 255.928352 433.16125 
L 267.764716 433.16125 
L 279.60108 433.16125 
L 291.437443 433.16125 
L 303.273807 433.16125 
L 315.11017 433.16125 
L 326.946534 433.16125 
L 338.782898 433.16125 
L 350.619261 433.16125 
L 362.455625 433.16125 
L 374.291989 433.16125 
L 386.128352 433.16125 
L 397.964716 433.16125 
L 409.80108 433.16125 
L 421.637443 433.16125 
L 433.473807 433.16125 
L 445.31017 433.16125 
L 457.146534 433.16125 
L 468.982898 433.16125 
L 480.819261 433.16125 
L 492.655625 433.16125 
" style="fill:none;stroke:#000000;stroke-linecap:square;stroke-width:1.5;"/>
   </g>
   <g id="line2d_65">
    <path clip-path="url(#p0e34a84335)" d="M 102.055625 433.16125 
L 113.891989 433.16125 
L 125.728352 433.16125 
L 137.564716 433.16125 
L 149.40108 433.16125 
L 161.237443 433.16125 
L 173.073807 433.16125 
L 184.91017 433.16125 
L 196.746534 433.16125 
L 208.582898 433.16125 
L 220.419261 433.16125 
L 232.255625 433.16125 
L 244.091989 433.16125 
L 255.928352 433.16125 
L 267.764716 433.16125 
L 279.60108 433.16125 
L 291.437443 433.16125 
L 303.273807 433.16125 
L 315.11017 433.16125 
L 326.946534 433.16125 
L 338.782898 433.16125 
L 350.619261 433.16125 
L 362.455625 433.16125 
L 374.291989 433.16125 
L 386.128352 433.16125 
L 397.964716 433.16125 
L 409.80108 433.16125 
L 421.637443 433.16125 
L 433.473807 433.16125 
L 445.31017 433.16125 
L 457.146534 433.16125 
L 468.982898 433.16125 
L 480.819261 433.16125 
L 492.655625 433.16125 
" style="fill:none;stroke:#000000;stroke-linecap:square;stroke-width:1.5;"/>
   </g>
   <g id="line2d_66">
    <path clip-path="url(#p0e34a84335)" d="M 102.055625 433.16125 
L 113.891989 433.16125 
L 125.728352 433.16125 
L 137.564716 433.16125 
L 149.40108 433.16125 
L 161.237443 433.16125 
L 173.073807 433.16125 
L 184.91017 433.16125 
L 196.746534 433.16125 
L 208.582898 433.16125 
L 220.419261 433.16125 
L 232.255625 433.16125 
L 244.091989 433.16125 
L 255.928352 433.16125 
L 267.764716 433.16125 
L 279.60108 433.16125 
L 291.437443 433.16125 
L 303.273807 433.16125 
L 315.11017 433.16125 
L 326.946534 433.16125 
L 338.782898 433.16125 
L 350.619261 433.16125 
L 362.455625 433.16125 
L 374.291989 433.16125 
L 386.128352 433.16125 
L 397.964716 433.16125 
L 409.80108 433.16125 
L 421.637443 433.16125 
L 433.473807 433.16125 
L 445.31017 433.16125 
L 457.146534 433.16125 
L 468.982898 433.16125 
L 480.819261 433.16125 
L 492.655625 433.16125 
" style="fill:none;stroke:#000000;stroke-linecap:square;stroke-width:1.5;"/>
   </g>
   <g id="line2d_67">
    <path clip-path="url(#p0e34a84335)" d="M 102.055625 433.16125 
L 113.891989 433.16125 
L 125.728352 433.16125 
L 137.564716 433.16125 
L 149.40108 433.16125 
L 161.237443 433.16125 
L 173.073807 433.16125 
L 184.91017 433.16125 
L 196.746534 433.16125 
L 208.582898 433.16125 
L 220.419261 433.16125 
L 232.255625 433.16125 
L 244.091989 433.16125 
L 255.928352 433.16125 
L 267.764716 433.16125 
L 279.60108 433.16125 
L 291.437443 433.16125 
L 303.273807 433.16125 
L 315.11017 433.16125 
L 326.946534 433.16125 
L 338.782898 433.16125 
L 350.619261 433.16125 
L 362.455625 433.16125 
L 374.291989 433.16125 
L 386.128352 433.16125 
L 397.964716 433.16125 
L 409.80108 433.16125 
L 421.637443 433.16125 
L 433.473807 433.16125 
L 445.31017 433.16125 
L 457.146534 433.16125 
L 468.982898 433.16125 
L 480.819261 433.16125 
L 492.655625 433.16125 
" style="fill:none;stroke:#000000;stroke-linecap:square;stroke-width:1.5;"/>
   </g>
   <g id="line2d_68">
    <path clip-path="url(#p0e34a84335)" d="M 102.055625 433.16125 
L 113.891989 433.16125 
L 125.728352 433.16125 
L 137.564716 433.16125 
L 149.40108 433.16125 
L 161.237443 433.16125 
L 173.073807 433.16125 
L 184.91017 433.16125 
L 196.746534 433.16125 
L 208.582898 433.16125 
L 220.419261 433.16125 
L 232.255625 433.16125 
L 244.091989 433.16125 
L 255.928352 433.16125 
L 267.764716 433.16125 
L 279.60108 433.16125 
L 291.437443 433.16125 
L 303.273807 433.16125 
L 315.11017 433.16125 
L 326.946534 433.16125 
L 338.782898 433.16125 
L 350.619261 433.16125 
L 362.455625 433.16125 
L 374.291989 433.16125 
L 386.128352 433.16125 
L 397.964716 433.16125 
L 409.80108 433.16125 
L 421.637443 433.16125 
L 433.473807 433.16125 
L 445.31017 433.16125 
L 457.146534 433.16125 
L 468.982898 433.16125 
L 480.819261 433.16125 
L 492.655625 433.16125 
" style="fill:none;stroke:#000000;stroke-linecap:square;stroke-width:1.5;"/>
   </g>
   <g id="line2d_69">
    <path clip-path="url(#p0e34a84335)" d="M 102.055625 433.16125 
L 113.891989 433.16125 
L 125.728352 433.16125 
L 137.564716 433.16125 
L 149.40108 433.16125 
L 161.237443 433.16125 
L 173.073807 433.16125 
L 184.91017 433.16125 
L 196.746534 433.16125 
L 208.582898 433.16125 
L 220.419261 433.16125 
L 232.255625 433.16125 
L 244.091989 433.16125 
L 255.928352 433.16125 
L 267.764716 433.16125 
L 279.60108 433.16125 
L 291.437443 433.16125 
L 303.273807 433.16125 
L 315.11017 433.16125 
L 326.946534 433.16125 
L 338.782898 433.16125 
L 350.619261 433.16125 
L 362.455625 433.16125 
L 374.291989 433.16125 
L 386.128352 433.16125 
L 397.964716 433.16125 
L 409.80108 433.16125 
L 421.637443 433.16125 
L 433.473807 433.16125 
L 445.31017 433.16125 
L 457.146534 433.16125 
L 468.982898 433.16125 
L 480.819261 433.16125 
L 492.655625 433.16125 
" style="fill:none;stroke:#000000;stroke-linecap:square;stroke-width:1.5;"/>
   </g>
   <g id="line2d_70">
    <path clip-path="url(#p0e34a84335)" d="M 102.055625 433.16125 
L 113.891989 433.16125 
L 125.728352 433.16125 
L 137.564716 433.16125 
L 149.40108 433.16125 
L 161.237443 433.16125 
L 173.073807 433.16125 
L 184.91017 433.16125 
L 196.746534 433.16125 
L 208.582898 433.16125 
L 220.419261 433.16125 
L 232.255625 433.16125 
L 244.091989 433.16125 
L 255.928352 433.16125 
L 267.764716 433.16125 
L 279.60108 433.16125 
L 291.437443 433.16125 
L 303.273807 433.16125 
L 315.11017 433.16125 
L 326.946534 433.16125 
L 338.782898 433.16125 
L 350.619261 433.16125 
L 362.455625 433.16125 
L 374.291989 433.16125 
L 386.128352 433.16125 
L 397.964716 433.16125 
L 409.80108 433.16125 
L 421.637443 433.16125 
L 433.473807 433.16125 
L 445.31017 433.16125 
L 457.146534 433.16125 
L 468.982898 433.16125 
L 480.819261 433.16125 
L 492.655625 433.16125 
" style="fill:none;stroke:#000000;stroke-linecap:square;stroke-width:1.5;"/>
   </g>
   <g id="line2d_71">
    <path clip-path="url(#p0e34a84335)" d="M 102.055625 433.16125 
L 113.891989 433.16125 
L 125.728352 433.16125 
L 137.564716 433.16125 
L 149.40108 433.16125 
L 161.237443 433.16125 
L 173.073807 433.16125 
L 184.91017 433.16125 
L 196.746534 433.16125 
L 208.582898 433.16125 
L 220.419261 433.16125 
L 232.255625 433.16125 
L 244.091989 433.16125 
L 255.928352 433.16125 
L 267.764716 433.16125 
L 279.60108 433.16125 
L 291.437443 433.16125 
L 303.273807 433.16125 
L 315.11017 433.16125 
L 326.946534 433.16125 
L 338.782898 433.16125 
L 350.619261 433.16125 
L 362.455625 433.16125 
L 374.291989 433.16125 
L 386.128352 433.16125 
L 397.964716 433.16125 
L 409.80108 433.16125 
L 421.637443 433.16125 
L 433.473807 433.16125 
L 445.31017 433.16125 
L 457.146534 433.16125 
L 468.982898 433.16125 
L 480.819261 433.16125 
L 492.655625 433.16125 
" style="fill:none;stroke:#000000;stroke-linecap:square;stroke-width:1.5;"/>
   </g>
   <g id="line2d_72">
    <path clip-path="url(#p0e34a84335)" d="M 102.055625 433.16125 
L 113.891989 433.16125 
L 125.728352 433.16125 
L 137.564716 433.16125 
L 149.40108 433.16125 
L 161.237443 433.16125 
L 173.073807 433.16125 
L 184.91017 433.16125 
L 196.746534 433.16125 
L 208.582898 433.16125 
L 220.419261 433.16125 
L 232.255625 433.16125 
L 244.091989 433.16125 
L 255.928352 433.16125 
L 267.764716 433.16125 
L 279.60108 433.16125 
L 291.437443 433.16125 
L 303.273807 433.16125 
L 315.11017 433.16125 
L 326.946534 433.16125 
L 338.782898 433.16125 
L 350.619261 433.16125 
L 362.455625 433.16125 
L 374.291989 433.16125 
L 386.128352 433.16125 
L 397.964716 433.16125 
L 409.80108 433.16125 
L 421.637443 433.16125 
L 433.473807 433.16125 
L 445.31017 433.16125 
L 457.146534 433.16125 
L 468.982898 433.16125 
L 480.819261 433.16125 
L 492.655625 433.16125 
" style="fill:none;stroke:#000000;stroke-linecap:square;stroke-width:1.5;"/>
   </g>
   <g id="line2d_73">
    <path clip-path="url(#p0e34a84335)" d="M 102.055625 433.16125 
L 113.891989 433.16125 
L 125.728352 433.16125 
L 137.564716 433.16125 
L 149.40108 433.16125 
L 161.237443 433.16125 
L 173.073807 433.16125 
L 184.91017 433.16125 
L 196.746534 433.16125 
L 208.582898 433.16125 
L 220.419261 433.16125 
L 232.255625 433.16125 
L 244.091989 433.16125 
L 255.928352 433.16125 
L 267.764716 433.16125 
L 279.60108 433.16125 
L 291.437443 433.16125 
L 303.273807 433.16125 
L 315.11017 433.16125 
L 326.946534 433.16125 
L 338.782898 433.16125 
L 350.619261 433.16125 
L 362.455625 433.16125 
L 374.291989 433.16125 
L 386.128352 433.16125 
L 397.964716 433.16125 
L 409.80108 433.16125 
L 421.637443 433.16125 
L 433.473807 433.16125 
L 445.31017 433.16125 
L 457.146534 433.16125 
L 468.982898 433.16125 
L 480.819261 433.16125 
L 492.655625 433.16125 
" style="fill:none;stroke:#000000;stroke-linecap:square;stroke-width:1.5;"/>
   </g>
   <g id="line2d_74">
    <path clip-path="url(#p0e34a84335)" d="M 90.219261 433.16125 
" style="fill:none;stroke:#000000;stroke-linecap:square;stroke-width:1.5;"/>
   </g>
   <g id="line2d_75">
    <path clip-path="url(#p0e34a84335)" d="M 90.219261 433.16125 
" style="fill:none;stroke:#d0e1f2;stroke-linecap:square;stroke-width:1.5;"/>
   </g>
   <g id="line2d_76">
    <path clip-path="url(#p0e34a84335)" d="M 90.219261 433.16125 
" style="fill:none;stroke:#94c4df;stroke-linecap:square;stroke-width:1.5;"/>
   </g>
   <g id="line2d_77">
    <path clip-path="url(#p0e34a84335)" d="M 90.219261 433.16125 
" style="fill:none;stroke:#4a98c9;stroke-linecap:square;stroke-width:1.5;"/>
   </g>
   <g id="line2d_78">
    <path clip-path="url(#p0e34a84335)" d="M 90.219261 433.16125 
" style="fill:none;stroke:#1764ab;stroke-linecap:square;stroke-width:1.5;"/>
   </g>
   <g id="line2d_79">
    <path clip-path="url(#p0e34a84335)" d="M 90.219261 433.16125 
" style="fill:none;stroke:#08306b;stroke-linecap:square;stroke-width:1.5;"/>
   </g>
   <g id="line2d_80">
    <path clip-path="url(#p0e34a84335)" d="M 90.219261 433.16125 
" style="fill:none;stroke:#000000;stroke-linecap:square;stroke-width:1.5;"/>
   </g>
   <g id="line2d_81">
    <path clip-path="url(#p0e34a84335)" d="M 90.219261 433.16125 
" style="fill:none;stroke:#000000;stroke-dasharray:1.5,2.475;stroke-dashoffset:0;stroke-width:1.5;"/>
   </g>
   <g id="line2d_82">
    <path clip-path="url(#p0e34a84335)" d="M 90.219261 433.16125 
" style="fill:none;stroke:#000000;stroke-linecap:square;stroke-width:1.5;"/>
   </g>
   <g id="line2d_83">
    <path clip-path="url(#p0e34a84335)" d="M 90.219261 433.16125 
" style="fill:none;stroke:#000000;stroke-dasharray:5.55,2.4;stroke-dashoffset:0;stroke-width:1.5;"/>
   </g>
   <g id="line2d_84">
    <path clip-path="url(#p0e34a84335)" d="M 90.219261 433.16125 
" style="fill:none;stroke:#000000;stroke-dasharray:9.6,2.4,1.5,2.4;stroke-dashoffset:0;stroke-width:1.5;"/>
   </g>
   <g id="line2d_85">
    <path clip-path="url(#p0e34a84335)" d="M 90.219261 433.16125 
" style="fill:none;stroke:#000000;stroke-dasharray:9.6,2.4,1.5,2.4;stroke-dashoffset:0;stroke-width:1.5;"/>
   </g>
   <g id="patch_3">
    <path d="M 102.055625 433.16125 
L 102.055625 52.64125 
" style="fill:none;stroke:#000000;stroke-linecap:square;stroke-linejoin:miter;stroke-width:0.8;"/>
   </g>
   <g id="patch_4">
    <path d="M 492.655625 433.16125 
L 492.655625 52.64125 
" style="fill:none;stroke:#000000;stroke-linecap:square;stroke-linejoin:miter;stroke-width:0.8;"/>
   </g>
   <g id="patch_5">
    <path d="M 102.055625 433.16125 
L 492.655625 433.16125 
" style="fill:none;stroke:#000000;stroke-linecap:square;stroke-linejoin:miter;stroke-width:0.8;"/>
   </g>
   <g id="patch_6">
    <path d="M 102.055625 52.64125 
L 492.655625 52.64125 
" style="fill:none;stroke:#000000;stroke-linecap:square;stroke-linejoin:miter;stroke-width:0.8;"/>
   </g>
   <g id="text_16">
    <!-- T-CELL NORMALIZED COUNT -->
    <g transform="translate(154.0525 21.515625)scale(0.2 -0.2)">
     <use xlink:href="#Arial-BoldMT-84"/>
     <use x="61.005859" xlink:href="#Arial-BoldMT-45"/>
     <use x="94.306641" xlink:href="#Arial-BoldMT-67"/>
     <use x="166.523438" xlink:href="#Arial-BoldMT-69"/>
     <use x="233.222656" xlink:href="#Arial-BoldMT-76"/>
     <use x="294.306641" xlink:href="#Arial-BoldMT-76"/>
     <use x="355.375" xlink:href="#Arial-BoldMT-32"/>
     <use x="383.158203" xlink:href="#Arial-BoldMT-78"/>
     <use x="455.375" xlink:href="#Arial-BoldMT-79"/>
     <use x="533.158203" xlink:href="#Arial-BoldMT-82"/>
     <use x="605.375" xlink:href="#Arial-BoldMT-77"/>
     <use x="688.675781" xlink:href="#Arial-BoldMT-65"/>
     <use x="760.892578" xlink:href="#Arial-BoldMT-76"/>
     <use x="821.976562" xlink:href="#Arial-BoldMT-73"/>
     <use x="849.759766" xlink:href="#Arial-BoldMT-90"/>
     <use x="910.84375" xlink:href="#Arial-BoldMT-69"/>
     <use x="977.542969" xlink:href="#Arial-BoldMT-68"/>
     <use x="1049.759766" xlink:href="#Arial-BoldMT-32"/>
     <use x="1077.542969" xlink:href="#Arial-BoldMT-67"/>
     <use x="1149.759766" xlink:href="#Arial-BoldMT-79"/>
     <use x="1227.542969" xlink:href="#Arial-BoldMT-85"/>
     <use x="1299.759766" xlink:href="#Arial-BoldMT-78"/>
     <use x="1371.976562" xlink:href="#Arial-BoldMT-84"/>
    </g>
    <!-- ACROSS RADIUS AT TIME 7 -->
    <defs>
     <path d="M 4.25 57.859375 
L 4.25 70.609375 
L 51.171875 70.609375 
L 51.171875 60.640625 
Q 45.359375 54.9375 39.34375 44.234375 
Q 33.34375 33.546875 30.1875 21.5 
Q 27.046875 9.46875 27.09375 0 
L 13.875 0 
Q 14.203125 14.84375 19.984375 30.265625 
Q 25.78125 45.703125 35.453125 57.859375 
z
" id="Arial-BoldMT-55"/>
    </defs>
    <g transform="translate(162.361875 42.64125)scale(0.2 -0.2)">
     <use xlink:href="#Arial-BoldMT-65"/>
     <use x="72.216797" xlink:href="#Arial-BoldMT-67"/>
     <use x="144.433594" xlink:href="#Arial-BoldMT-82"/>
     <use x="216.650391" xlink:href="#Arial-BoldMT-79"/>
     <use x="294.433594" xlink:href="#Arial-BoldMT-83"/>
     <use x="361.132812" xlink:href="#Arial-BoldMT-83"/>
     <use x="427.832031" xlink:href="#Arial-BoldMT-32"/>
     <use x="455.615234" xlink:href="#Arial-BoldMT-82"/>
     <use x="527.832031" xlink:href="#Arial-BoldMT-65"/>
     <use x="600.048828" xlink:href="#Arial-BoldMT-68"/>
     <use x="672.265625" xlink:href="#Arial-BoldMT-73"/>
     <use x="700.048828" xlink:href="#Arial-BoldMT-85"/>
     <use x="772.265625" xlink:href="#Arial-BoldMT-83"/>
     <use x="838.964844" xlink:href="#Arial-BoldMT-32"/>
     <use x="866.701172" xlink:href="#Arial-BoldMT-65"/>
     <use x="938.808594" xlink:href="#Arial-BoldMT-84"/>
     <use x="999.892578" xlink:href="#Arial-BoldMT-32"/>
     <use x="1027.675781" xlink:href="#Arial-BoldMT-84"/>
     <use x="1088.759766" xlink:href="#Arial-BoldMT-73"/>
     <use x="1116.542969" xlink:href="#Arial-BoldMT-77"/>
     <use x="1199.84375" xlink:href="#Arial-BoldMT-69"/>
     <use x="1266.542969" xlink:href="#Arial-BoldMT-32"/>
     <use x="1294.326172" xlink:href="#Arial-BoldMT-55"/>
    </g>
   </g>
   <g id="legend_1">
    <g id="line2d_86">
     <path d="M 501.655625 65.739687 
L 521.655625 65.739687 
" style="fill:none;stroke:#000000;stroke-linecap:square;stroke-width:1.5;"/>
    </g>
    <g id="line2d_87"/>
    <g id="text_17">
     <!-- 0 -->
     <g transform="translate(529.655625 69.239687)scale(0.1 -0.1)">
      <use xlink:href="#DejaVuSans-48"/>
     </g>
    </g>
    <g id="line2d_88">
     <path d="M 501.655625 80.417812 
L 521.655625 80.417812 
" style="fill:none;stroke:#d0e1f2;stroke-linecap:square;stroke-width:1.5;"/>
    </g>
    <g id="line2d_89"/>
    <g id="text_18">
     <!-- 100 -->
     <g transform="translate(529.655625 83.917812)scale(0.1 -0.1)">
      <use xlink:href="#DejaVuSans-49"/>
      <use x="63.623047" xlink:href="#DejaVuSans-48"/>
      <use x="127.246094" xlink:href="#DejaVuSans-48"/>
     </g>
    </g>
    <g id="line2d_90">
     <path d="M 501.655625 95.095937 
L 521.655625 95.095937 
" style="fill:none;stroke:#94c4df;stroke-linecap:square;stroke-width:1.5;"/>
    </g>
    <g id="line2d_91"/>
    <g id="text_19">
     <!-- 500 -->
     <g transform="translate(529.655625 98.595937)scale(0.1 -0.1)">
      <use xlink:href="#DejaVuSans-53"/>
      <use x="63.623047" xlink:href="#DejaVuSans-48"/>
      <use x="127.246094" xlink:href="#DejaVuSans-48"/>
     </g>
    </g>
    <g id="line2d_92">
     <path d="M 501.655625 109.774062 
L 521.655625 109.774062 
" style="fill:none;stroke:#4a98c9;stroke-linecap:square;stroke-width:1.5;"/>
    </g>
    <g id="line2d_93"/>
    <g id="text_20">
     <!-- 1000 -->
     <g transform="translate(529.655625 113.274062)scale(0.1 -0.1)">
      <use xlink:href="#DejaVuSans-49"/>
      <use x="63.623047" xlink:href="#DejaVuSans-48"/>
      <use x="127.246094" xlink:href="#DejaVuSans-48"/>
      <use x="190.869141" xlink:href="#DejaVuSans-48"/>
     </g>
    </g>
    <g id="line2d_94">
     <path d="M 501.655625 124.452187 
L 521.655625 124.452187 
" style="fill:none;stroke:#1764ab;stroke-linecap:square;stroke-width:1.5;"/>
    </g>
    <g id="line2d_95"/>
    <g id="text_21">
     <!-- 5000 -->
     <g transform="translate(529.655625 127.952187)scale(0.1 -0.1)">
      <use xlink:href="#DejaVuSans-53"/>
      <use x="63.623047" xlink:href="#DejaVuSans-48"/>
      <use x="127.246094" xlink:href="#DejaVuSans-48"/>
      <use x="190.869141" xlink:href="#DejaVuSans-48"/>
     </g>
    </g>
    <g id="line2d_96">
     <path d="M 501.655625 139.130312 
L 521.655625 139.130312 
" style="fill:none;stroke:#08306b;stroke-linecap:square;stroke-width:1.5;"/>
    </g>
    <g id="line2d_97"/>
    <g id="text_22">
     <!-- 10000 -->
     <g transform="translate(529.655625 142.630312)scale(0.1 -0.1)">
      <use xlink:href="#DejaVuSans-49"/>
      <use x="63.623047" xlink:href="#DejaVuSans-48"/>
      <use x="127.246094" xlink:href="#DejaVuSans-48"/>
      <use x="190.869141" xlink:href="#DejaVuSans-48"/>
      <use x="254.492188" xlink:href="#DejaVuSans-48"/>
     </g>
    </g>
    <g id="line2d_98">
     <path d="M 501.655625 153.808437 
L 521.655625 153.808437 
" style="fill:none;stroke:#000000;stroke-linecap:square;stroke-width:1.5;"/>
    </g>
    <g id="line2d_99"/>
    <g id="text_23">
     <!-- 0 -->
     <g transform="translate(529.655625 157.308437)scale(0.1 -0.1)">
      <use xlink:href="#DejaVuSans-48"/>
     </g>
    </g>
    <g id="line2d_100">
     <path d="M 501.655625 168.486562 
L 521.655625 168.486562 
" style="fill:none;stroke:#000000;stroke-dasharray:1.5,2.475;stroke-dashoffset:0;stroke-width:1.5;"/>
    </g>
    <g id="line2d_101"/>
    <g id="text_24">
     <!-- 250 -->
     <g transform="translate(529.655625 171.986562)scale(0.1 -0.1)">
      <use xlink:href="#DejaVuSans-50"/>
      <use x="63.623047" xlink:href="#DejaVuSans-53"/>
      <use x="127.246094" xlink:href="#DejaVuSans-48"/>
     </g>
    </g>
    <g id="line2d_102">
     <path d="M 501.655625 183.164687 
L 521.655625 183.164687 
" style="fill:none;stroke:#000000;stroke-linecap:square;stroke-width:1.5;"/>
    </g>
    <g id="line2d_103"/>
    <g id="text_25">
     <!-- 500 -->
     <g transform="translate(529.655625 186.664687)scale(0.1 -0.1)">
      <use xlink:href="#DejaVuSans-53"/>
      <use x="63.623047" xlink:href="#DejaVuSans-48"/>
      <use x="127.246094" xlink:href="#DejaVuSans-48"/>
     </g>
    </g>
    <g id="line2d_104">
     <path d="M 501.655625 197.842812 
L 521.655625 197.842812 
" style="fill:none;stroke:#000000;stroke-dasharray:5.55,2.4;stroke-dashoffset:0;stroke-width:1.5;"/>
    </g>
    <g id="line2d_105"/>
    <g id="text_26">
     <!-- 1000 -->
     <g transform="translate(529.655625 201.342812)scale(0.1 -0.1)">
      <use xlink:href="#DejaVuSans-49"/>
      <use x="63.623047" xlink:href="#DejaVuSans-48"/>
      <use x="127.246094" xlink:href="#DejaVuSans-48"/>
      <use x="190.869141" xlink:href="#DejaVuSans-48"/>
     </g>
    </g>
    <g id="line2d_106">
     <path d="M 501.655625 212.520937 
L 521.655625 212.520937 
" style="fill:none;stroke:#000000;stroke-dasharray:9.6,2.4,1.5,2.4;stroke-dashoffset:0;stroke-width:1.5;"/>
    </g>
    <g id="line2d_107"/>
    <g id="text_27">
     <!-- 5000 -->
     <g transform="translate(529.655625 216.020937)scale(0.1 -0.1)">
      <use xlink:href="#DejaVuSans-53"/>
      <use x="63.623047" xlink:href="#DejaVuSans-48"/>
      <use x="127.246094" xlink:href="#DejaVuSans-48"/>
      <use x="190.869141" xlink:href="#DejaVuSans-48"/>
     </g>
    </g>
    <g id="line2d_108">
     <path d="M 501.655625 227.199062 
L 521.655625 227.199062 
" style="fill:none;stroke:#000000;stroke-dasharray:9.6,2.4,1.5,2.4;stroke-dashoffset:0;stroke-width:1.5;"/>
    </g>
    <g id="line2d_109"/>
    <g id="text_28">
     <!-- 10000 -->
     <g transform="translate(529.655625 230.699062)scale(0.1 -0.1)">
      <use xlink:href="#DejaVuSans-49"/>
      <use x="63.623047" xlink:href="#DejaVuSans-48"/>
      <use x="127.246094" xlink:href="#DejaVuSans-48"/>
      <use x="190.869141" xlink:href="#DejaVuSans-48"/>
      <use x="254.492188" xlink:href="#DejaVuSans-48"/>
     </g>
    </g>
   </g>
  </g>
 </g>
 <defs>
  <clipPath id="p0e34a84335">
   <rect height="380.52" width="390.6" x="102.055625" y="52.64125"/>
  </clipPath>
 </defs>
</svg>
