<?xml version="1.0" encoding="utf-8" standalone="no"?>
<!DOCTYPE svg PUBLIC "-//W3C//DTD SVG 1.1//EN"
  "http://www.w3.org/Graphics/SVG/1.1/DTD/svg11.dtd">
<!-- Created with matplotlib (https://matplotlib.org/) -->
<svg height="504.658125pt" version="1.1" viewBox="0 0 503.355625 504.658125" width="503.355625pt" xmlns="http://www.w3.org/2000/svg" xmlns:xlink="http://www.w3.org/1999/xlink">
 <defs>
  <style type="text/css">
*{stroke-linecap:butt;stroke-linejoin:round;}
  </style>
 </defs>
 <g id="figure_1">
  <g id="patch_1">
   <path d="M 0 504.658125 
L 503.355625 504.658125 
L 503.355625 -0 
L 0 -0 
z
" style="fill:#ffffff;"/>
  </g>
  <g id="axes_1">
   <g id="patch_2">
    <path d="M 102.055625 433.16125 
L 492.655625 433.16125 
L 492.655625 52.64125 
L 102.055625 52.64125 
z
" style="fill:#ffffff;"/>
   </g>
   <g id="matplotlib.axis_1">
    <g id="xtick_1">
     <g id="line2d_1">
      <defs>
       <path d="M 0 0 
L 0 3.5 
" id="m8c86d736be" style="stroke:#000000;stroke-width:0.8;"/>
      </defs>
      <g>
       <use style="stroke:#000000;stroke-width:0.8;" x="149.40108" xlink:href="#m8c86d736be" y="433.16125"/>
      </g>
     </g>
     <g id="text_1">
      <!-- 5 -->
      <defs>
       <path d="M 10.796875 72.90625 
L 49.515625 72.90625 
L 49.515625 64.59375 
L 19.828125 64.59375 
L 19.828125 46.734375 
Q 21.96875 47.46875 24.109375 47.828125 
Q 26.265625 48.1875 28.421875 48.1875 
Q 40.625 48.1875 47.75 41.5 
Q 54.890625 34.8125 54.890625 23.390625 
Q 54.890625 11.625 47.5625 5.09375 
Q 40.234375 -1.421875 26.90625 -1.421875 
Q 22.3125 -1.421875 17.546875 -0.640625 
Q 12.796875 0.140625 7.71875 1.703125 
L 7.71875 11.625 
Q 12.109375 9.234375 16.796875 8.0625 
Q 21.484375 6.890625 26.703125 6.890625 
Q 35.15625 6.890625 40.078125 11.328125 
Q 45.015625 15.765625 45.015625 23.390625 
Q 45.015625 31 40.078125 35.4375 
Q 35.15625 39.890625 26.703125 39.890625 
Q 22.75 39.890625 18.8125 39.015625 
Q 14.890625 38.140625 10.796875 36.28125 
z
" id="DejaVuSans-53"/>
      </defs>
      <g transform="translate(139.85733 462.956562)scale(0.3 -0.3)">
       <use xlink:href="#DejaVuSans-53"/>
      </g>
     </g>
    </g>
    <g id="xtick_2">
     <g id="line2d_2">
      <g>
       <use style="stroke:#000000;stroke-width:0.8;" x="208.582898" xlink:href="#m8c86d736be" y="433.16125"/>
      </g>
     </g>
     <g id="text_2">
      <!-- 10 -->
      <defs>
       <path d="M 12.40625 8.296875 
L 28.515625 8.296875 
L 28.515625 63.921875 
L 10.984375 60.40625 
L 10.984375 69.390625 
L 28.421875 72.90625 
L 38.28125 72.90625 
L 38.28125 8.296875 
L 54.390625 8.296875 
L 54.390625 0 
L 12.40625 0 
z
" id="DejaVuSans-49"/>
       <path d="M 31.78125 66.40625 
Q 24.171875 66.40625 20.328125 58.90625 
Q 16.5 51.421875 16.5 36.375 
Q 16.5 21.390625 20.328125 13.890625 
Q 24.171875 6.390625 31.78125 6.390625 
Q 39.453125 6.390625 43.28125 13.890625 
Q 47.125 21.390625 47.125 36.375 
Q 47.125 51.421875 43.28125 58.90625 
Q 39.453125 66.40625 31.78125 66.40625 
z
M 31.78125 74.21875 
Q 44.046875 74.21875 50.515625 64.515625 
Q 56.984375 54.828125 56.984375 36.375 
Q 56.984375 17.96875 50.515625 8.265625 
Q 44.046875 -1.421875 31.78125 -1.421875 
Q 19.53125 -1.421875 13.0625 8.265625 
Q 6.59375 17.96875 6.59375 36.375 
Q 6.59375 54.828125 13.0625 64.515625 
Q 19.53125 74.21875 31.78125 74.21875 
z
" id="DejaVuSans-48"/>
      </defs>
      <g transform="translate(189.495398 462.956562)scale(0.3 -0.3)">
       <use xlink:href="#DejaVuSans-49"/>
       <use x="63.623047" xlink:href="#DejaVuSans-48"/>
      </g>
     </g>
    </g>
    <g id="xtick_3">
     <g id="line2d_3">
      <g>
       <use style="stroke:#000000;stroke-width:0.8;" x="267.764716" xlink:href="#m8c86d736be" y="433.16125"/>
      </g>
     </g>
     <g id="text_3">
      <!-- 15 -->
      <g transform="translate(248.677216 462.956562)scale(0.3 -0.3)">
       <use xlink:href="#DejaVuSans-49"/>
       <use x="63.623047" xlink:href="#DejaVuSans-53"/>
      </g>
     </g>
    </g>
    <g id="xtick_4">
     <g id="line2d_4">
      <g>
       <use style="stroke:#000000;stroke-width:0.8;" x="326.946534" xlink:href="#m8c86d736be" y="433.16125"/>
      </g>
     </g>
     <g id="text_4">
      <!-- 20 -->
      <defs>
       <path d="M 19.1875 8.296875 
L 53.609375 8.296875 
L 53.609375 0 
L 7.328125 0 
L 7.328125 8.296875 
Q 12.9375 14.109375 22.625 23.890625 
Q 32.328125 33.6875 34.8125 36.53125 
Q 39.546875 41.84375 41.421875 45.53125 
Q 43.3125 49.21875 43.3125 52.78125 
Q 43.3125 58.59375 39.234375 62.25 
Q 35.15625 65.921875 28.609375 65.921875 
Q 23.96875 65.921875 18.8125 64.3125 
Q 13.671875 62.703125 7.8125 59.421875 
L 7.8125 69.390625 
Q 13.765625 71.78125 18.9375 73 
Q 24.125 74.21875 28.421875 74.21875 
Q 39.75 74.21875 46.484375 68.546875 
Q 53.21875 62.890625 53.21875 53.421875 
Q 53.21875 48.921875 51.53125 44.890625 
Q 49.859375 40.875 45.40625 35.40625 
Q 44.1875 33.984375 37.640625 27.21875 
Q 31.109375 20.453125 19.1875 8.296875 
z
" id="DejaVuSans-50"/>
      </defs>
      <g transform="translate(307.859034 462.956562)scale(0.3 -0.3)">
       <use xlink:href="#DejaVuSans-50"/>
       <use x="63.623047" xlink:href="#DejaVuSans-48"/>
      </g>
     </g>
    </g>
    <g id="xtick_5">
     <g id="line2d_5">
      <g>
       <use style="stroke:#000000;stroke-width:0.8;" x="386.128352" xlink:href="#m8c86d736be" y="433.16125"/>
      </g>
     </g>
     <g id="text_5">
      <!-- 25 -->
      <g transform="translate(367.040852 462.956562)scale(0.3 -0.3)">
       <use xlink:href="#DejaVuSans-50"/>
       <use x="63.623047" xlink:href="#DejaVuSans-53"/>
      </g>
     </g>
    </g>
    <g id="xtick_6">
     <g id="line2d_6">
      <g>
       <use style="stroke:#000000;stroke-width:0.8;" x="445.31017" xlink:href="#m8c86d736be" y="433.16125"/>
      </g>
     </g>
     <g id="text_6">
      <!-- 30 -->
      <defs>
       <path d="M 40.578125 39.3125 
Q 47.65625 37.796875 51.625 33 
Q 55.609375 28.21875 55.609375 21.1875 
Q 55.609375 10.40625 48.1875 4.484375 
Q 40.765625 -1.421875 27.09375 -1.421875 
Q 22.515625 -1.421875 17.65625 -0.515625 
Q 12.796875 0.390625 7.625 2.203125 
L 7.625 11.71875 
Q 11.71875 9.328125 16.59375 8.109375 
Q 21.484375 6.890625 26.8125 6.890625 
Q 36.078125 6.890625 40.9375 10.546875 
Q 45.796875 14.203125 45.796875 21.1875 
Q 45.796875 27.640625 41.28125 31.265625 
Q 36.765625 34.90625 28.71875 34.90625 
L 20.21875 34.90625 
L 20.21875 43.015625 
L 29.109375 43.015625 
Q 36.375 43.015625 40.234375 45.921875 
Q 44.09375 48.828125 44.09375 54.296875 
Q 44.09375 59.90625 40.109375 62.90625 
Q 36.140625 65.921875 28.71875 65.921875 
Q 24.65625 65.921875 20.015625 65.03125 
Q 15.375 64.15625 9.8125 62.3125 
L 9.8125 71.09375 
Q 15.4375 72.65625 20.34375 73.4375 
Q 25.25 74.21875 29.59375 74.21875 
Q 40.828125 74.21875 47.359375 69.109375 
Q 53.90625 64.015625 53.90625 55.328125 
Q 53.90625 49.265625 50.4375 45.09375 
Q 46.96875 40.921875 40.578125 39.3125 
z
" id="DejaVuSans-51"/>
      </defs>
      <g transform="translate(426.22267 462.956562)scale(0.3 -0.3)">
       <use xlink:href="#DejaVuSans-51"/>
       <use x="63.623047" xlink:href="#DejaVuSans-48"/>
      </g>
     </g>
    </g>
    <g id="text_7">
     <!-- RADIUS -->
     <defs>
      <path d="M 7.328125 0 
L 7.328125 71.578125 
L 37.75 71.578125 
Q 49.21875 71.578125 54.421875 69.640625 
Q 59.625 67.71875 62.75 62.78125 
Q 65.875 57.859375 65.875 51.515625 
Q 65.875 43.453125 61.125 38.203125 
Q 56.390625 32.953125 46.96875 31.59375 
Q 51.65625 28.859375 54.703125 25.578125 
Q 57.765625 22.3125 62.9375 13.96875 
L 71.6875 0 
L 54.390625 0 
L 43.953125 15.578125 
Q 38.375 23.921875 36.328125 26.09375 
Q 34.28125 28.265625 31.984375 29.078125 
Q 29.6875 29.890625 24.703125 29.890625 
L 21.78125 29.890625 
L 21.78125 0 
z
M 21.78125 41.3125 
L 32.46875 41.3125 
Q 42.875 41.3125 45.453125 42.1875 
Q 48.046875 43.0625 49.515625 45.203125 
Q 50.984375 47.359375 50.984375 50.59375 
Q 50.984375 54.203125 49.046875 56.421875 
Q 47.125 58.640625 43.609375 59.234375 
Q 41.84375 59.46875 33.0625 59.46875 
L 21.78125 59.46875 
z
" id="Arial-BoldMT-82"/>
      <path d="M 71.828125 0 
L 56.109375 0 
L 49.859375 16.265625 
L 21.234375 16.265625 
L 15.328125 0 
L 0 0 
L 27.875 71.578125 
L 43.171875 71.578125 
z
M 45.21875 28.328125 
L 35.359375 54.890625 
L 25.6875 28.328125 
z
" id="Arial-BoldMT-65"/>
      <path d="M 7.234375 71.578125 
L 33.640625 71.578125 
Q 42.578125 71.578125 47.265625 70.21875 
Q 53.5625 68.359375 58.046875 63.625 
Q 62.546875 58.890625 64.890625 52.03125 
Q 67.234375 45.171875 67.234375 35.109375 
Q 67.234375 26.265625 65.046875 19.875 
Q 62.359375 12.0625 57.375 7.234375 
Q 53.609375 3.5625 47.21875 1.515625 
Q 42.4375 0 34.421875 0 
L 7.234375 0 
z
M 21.6875 59.46875 
L 21.6875 12.0625 
L 32.46875 12.0625 
Q 38.53125 12.0625 41.21875 12.75 
Q 44.734375 13.625 47.046875 15.71875 
Q 49.359375 17.828125 50.828125 22.625 
Q 52.296875 27.4375 52.296875 35.75 
Q 52.296875 44.046875 50.828125 48.484375 
Q 49.359375 52.9375 46.71875 55.421875 
Q 44.09375 57.90625 40.046875 58.796875 
Q 37.015625 59.46875 28.171875 59.46875 
z
" id="Arial-BoldMT-68"/>
      <path d="M 6.84375 0 
L 6.84375 71.578125 
L 21.296875 71.578125 
L 21.296875 0 
z
" id="Arial-BoldMT-73"/>
      <path d="M 7.171875 71.578125 
L 21.625 71.578125 
L 21.625 32.8125 
Q 21.625 23.578125 22.171875 20.84375 
Q 23.09375 16.453125 26.578125 13.796875 
Q 30.078125 11.140625 36.140625 11.140625 
Q 42.28125 11.140625 45.40625 13.640625 
Q 48.53125 16.15625 49.171875 19.8125 
Q 49.8125 23.484375 49.8125 31.984375 
L 49.8125 71.578125 
L 64.265625 71.578125 
L 64.265625 33.984375 
Q 64.265625 21.09375 63.09375 15.765625 
Q 61.921875 10.453125 58.765625 6.78125 
Q 55.609375 3.125 50.328125 0.953125 
Q 45.0625 -1.21875 36.578125 -1.21875 
Q 26.3125 -1.21875 21.015625 1.140625 
Q 15.71875 3.515625 12.640625 7.296875 
Q 9.578125 11.078125 8.59375 15.234375 
Q 7.171875 21.390625 7.171875 33.40625 
z
" id="Arial-BoldMT-85"/>
      <path d="M 3.609375 23.296875 
L 17.671875 24.65625 
Q 18.953125 17.578125 22.828125 14.25 
Q 26.703125 10.9375 33.296875 10.9375 
Q 40.28125 10.9375 43.8125 13.890625 
Q 47.359375 16.84375 47.359375 20.796875 
Q 47.359375 23.34375 45.875 25.125 
Q 44.390625 26.90625 40.671875 28.21875 
Q 38.140625 29.109375 29.109375 31.34375 
Q 17.484375 34.234375 12.796875 38.421875 
Q 6.203125 44.34375 6.203125 52.828125 
Q 6.203125 58.296875 9.296875 63.0625 
Q 12.40625 67.828125 18.234375 70.3125 
Q 24.078125 72.796875 32.328125 72.796875 
Q 45.796875 72.796875 52.609375 66.890625 
Q 59.421875 60.984375 59.765625 51.125 
L 45.3125 50.484375 
Q 44.390625 56 41.328125 58.421875 
Q 38.28125 60.84375 32.171875 60.84375 
Q 25.875 60.84375 22.3125 58.25 
Q 20.015625 56.59375 20.015625 53.8125 
Q 20.015625 51.265625 22.171875 49.46875 
Q 24.90625 47.171875 35.453125 44.671875 
Q 46 42.1875 51.046875 39.515625 
Q 56.109375 36.859375 58.953125 32.25 
Q 61.8125 27.640625 61.8125 20.84375 
Q 61.8125 14.703125 58.390625 9.328125 
Q 54.984375 3.953125 48.734375 1.34375 
Q 42.484375 -1.265625 33.15625 -1.265625 
Q 19.578125 -1.265625 12.296875 5 
Q 5.03125 11.28125 3.609375 23.296875 
z
" id="Arial-BoldMT-83"/>
     </defs>
     <g transform="translate(259.019688 493.51125)scale(0.2 -0.2)">
      <use xlink:href="#Arial-BoldMT-82"/>
      <use x="72.216797" xlink:href="#Arial-BoldMT-65"/>
      <use x="144.433594" xlink:href="#Arial-BoldMT-68"/>
      <use x="216.650391" xlink:href="#Arial-BoldMT-73"/>
      <use x="244.433594" xlink:href="#Arial-BoldMT-85"/>
      <use x="316.650391" xlink:href="#Arial-BoldMT-83"/>
     </g>
    </g>
   </g>
   <g id="matplotlib.axis_2">
    <g id="ytick_1">
     <g id="line2d_7">
      <defs>
       <path d="M 0 0 
L -3.5 0 
" id="m487be0bcfe" style="stroke:#000000;stroke-width:0.8;"/>
      </defs>
      <g>
       <use style="stroke:#000000;stroke-width:0.8;" x="102.055625" xlink:href="#m487be0bcfe" y="433.16125"/>
      </g>
     </g>
     <g id="text_8">
      <!-- 0 -->
      <g transform="translate(75.968125 444.558906)scale(0.3 -0.3)">
       <use xlink:href="#DejaVuSans-48"/>
      </g>
     </g>
    </g>
    <g id="ytick_2">
     <g id="line2d_8">
      <g>
       <use style="stroke:#000000;stroke-width:0.8;" x="102.055625" xlink:href="#m487be0bcfe" y="369.74125"/>
      </g>
     </g>
     <g id="text_9">
      <!-- 5 -->
      <g transform="translate(75.968125 381.138906)scale(0.3 -0.3)">
       <use xlink:href="#DejaVuSans-53"/>
      </g>
     </g>
    </g>
    <g id="ytick_3">
     <g id="line2d_9">
      <g>
       <use style="stroke:#000000;stroke-width:0.8;" x="102.055625" xlink:href="#m487be0bcfe" y="306.32125"/>
      </g>
     </g>
     <g id="text_10">
      <!-- 10 -->
      <g transform="translate(56.880625 317.718906)scale(0.3 -0.3)">
       <use xlink:href="#DejaVuSans-49"/>
       <use x="63.623047" xlink:href="#DejaVuSans-48"/>
      </g>
     </g>
    </g>
    <g id="ytick_4">
     <g id="line2d_10">
      <g>
       <use style="stroke:#000000;stroke-width:0.8;" x="102.055625" xlink:href="#m487be0bcfe" y="242.90125"/>
      </g>
     </g>
     <g id="text_11">
      <!-- 15 -->
      <g transform="translate(56.880625 254.298906)scale(0.3 -0.3)">
       <use xlink:href="#DejaVuSans-49"/>
       <use x="63.623047" xlink:href="#DejaVuSans-53"/>
      </g>
     </g>
    </g>
    <g id="ytick_5">
     <g id="line2d_11">
      <g>
       <use style="stroke:#000000;stroke-width:0.8;" x="102.055625" xlink:href="#m487be0bcfe" y="179.48125"/>
      </g>
     </g>
     <g id="text_12">
      <!-- 20 -->
      <g transform="translate(56.880625 190.878906)scale(0.3 -0.3)">
       <use xlink:href="#DejaVuSans-50"/>
       <use x="63.623047" xlink:href="#DejaVuSans-48"/>
      </g>
     </g>
    </g>
    <g id="ytick_6">
     <g id="line2d_12">
      <g>
       <use style="stroke:#000000;stroke-width:0.8;" x="102.055625" xlink:href="#m487be0bcfe" y="116.06125"/>
      </g>
     </g>
     <g id="text_13">
      <!-- 25 -->
      <g transform="translate(56.880625 127.458906)scale(0.3 -0.3)">
       <use xlink:href="#DejaVuSans-50"/>
       <use x="63.623047" xlink:href="#DejaVuSans-53"/>
      </g>
     </g>
    </g>
    <g id="ytick_7">
     <g id="line2d_13">
      <g>
       <use style="stroke:#000000;stroke-width:0.8;" x="102.055625" xlink:href="#m487be0bcfe" y="52.64125"/>
      </g>
     </g>
     <g id="text_14">
      <!-- 30 -->
      <g transform="translate(56.880625 64.038906)scale(0.3 -0.3)">
       <use xlink:href="#DejaVuSans-51"/>
       <use x="63.623047" xlink:href="#DejaVuSans-48"/>
      </g>
     </g>
    </g>
    <g id="text_15">
     <!-- CD4 NORMALIZED -->
     <defs>
      <path d="M 53.078125 26.3125 
L 67.09375 21.875 
Q 63.875 10.15625 56.375 4.46875 
Q 48.875 -1.21875 37.359375 -1.21875 
Q 23.09375 -1.21875 13.90625 8.515625 
Q 4.734375 18.265625 4.734375 35.15625 
Q 4.734375 53.03125 13.953125 62.90625 
Q 23.1875 72.796875 38.234375 72.796875 
Q 51.375 72.796875 59.578125 65.046875 
Q 64.453125 60.453125 66.890625 51.859375 
L 52.59375 48.4375 
Q 51.3125 54 47.28125 57.21875 
Q 43.265625 60.453125 37.5 60.453125 
Q 29.546875 60.453125 24.578125 54.734375 
Q 19.625 49.03125 19.625 36.234375 
Q 19.625 22.65625 24.5 16.890625 
Q 29.390625 11.140625 37.203125 11.140625 
Q 42.96875 11.140625 47.109375 14.796875 
Q 51.265625 18.453125 53.078125 26.3125 
z
" id="Arial-BoldMT-67"/>
      <path d="M 31.15625 0 
L 31.15625 14.40625 
L 1.859375 14.40625 
L 1.859375 26.421875 
L 32.90625 71.875 
L 44.4375 71.875 
L 44.4375 26.46875 
L 53.328125 26.46875 
L 53.328125 14.40625 
L 44.4375 14.40625 
L 44.4375 0 
z
M 31.15625 26.46875 
L 31.15625 50.921875 
L 14.703125 26.46875 
z
" id="Arial-BoldMT-52"/>
      <path id="Arial-BoldMT-32"/>
      <path d="M 7.421875 0 
L 7.421875 71.578125 
L 21.484375 71.578125 
L 50.78125 23.78125 
L 50.78125 71.578125 
L 64.203125 71.578125 
L 64.203125 0 
L 49.703125 0 
L 20.84375 46.6875 
L 20.84375 0 
z
" id="Arial-BoldMT-78"/>
      <path d="M 4.34375 35.359375 
Q 4.34375 46.296875 7.625 53.71875 
Q 10.0625 59.1875 14.28125 63.53125 
Q 18.5 67.875 23.53125 69.96875 
Q 30.21875 72.796875 38.96875 72.796875 
Q 54.78125 72.796875 64.28125 62.984375 
Q 73.78125 53.171875 73.78125 35.6875 
Q 73.78125 18.359375 64.359375 8.5625 
Q 54.9375 -1.21875 39.15625 -1.21875 
Q 23.1875 -1.21875 13.765625 8.515625 
Q 4.34375 18.265625 4.34375 35.359375 
z
M 19.234375 35.84375 
Q 19.234375 23.6875 24.84375 17.40625 
Q 30.46875 11.140625 39.109375 11.140625 
Q 47.75 11.140625 53.296875 17.359375 
Q 58.84375 23.578125 58.84375 36.03125 
Q 58.84375 48.34375 53.4375 54.390625 
Q 48.046875 60.453125 39.109375 60.453125 
Q 30.171875 60.453125 24.703125 54.3125 
Q 19.234375 48.1875 19.234375 35.84375 
z
" id="Arial-BoldMT-79"/>
      <path d="M 7.078125 0 
L 7.078125 71.578125 
L 28.71875 71.578125 
L 41.703125 22.75 
L 54.546875 71.578125 
L 76.21875 71.578125 
L 76.21875 0 
L 62.796875 0 
L 62.796875 56.34375 
L 48.578125 0 
L 34.671875 0 
L 20.515625 56.34375 
L 20.515625 0 
z
" id="Arial-BoldMT-77"/>
      <path d="M 7.671875 0 
L 7.671875 71 
L 22.125 71 
L 22.125 12.0625 
L 58.0625 12.0625 
L 58.0625 0 
z
" id="Arial-BoldMT-76"/>
      <path d="M 1.078125 0 
L 1.078125 13.03125 
L 38.671875 59.46875 
L 5.328125 59.46875 
L 5.328125 71.578125 
L 57.71875 71.578125 
L 57.71875 60.359375 
L 18.5 12.0625 
L 59.234375 12.0625 
L 59.234375 0 
z
" id="Arial-BoldMT-90"/>
      <path d="M 7.28125 0 
L 7.28125 71.578125 
L 60.359375 71.578125 
L 60.359375 59.46875 
L 21.734375 59.46875 
L 21.734375 43.609375 
L 57.671875 43.609375 
L 57.671875 31.546875 
L 21.734375 31.546875 
L 21.734375 12.0625 
L 61.71875 12.0625 
L 61.71875 0 
z
" id="Arial-BoldMT-69"/>
     </defs>
     <g transform="translate(21.253125 332.343437)rotate(-90)scale(0.2 -0.2)">
      <use xlink:href="#Arial-BoldMT-67"/>
      <use x="72.216797" xlink:href="#Arial-BoldMT-68"/>
      <use x="144.433594" xlink:href="#Arial-BoldMT-52"/>
      <use x="200.048828" xlink:href="#Arial-BoldMT-32"/>
      <use x="227.832031" xlink:href="#Arial-BoldMT-78"/>
      <use x="300.048828" xlink:href="#Arial-BoldMT-79"/>
      <use x="377.832031" xlink:href="#Arial-BoldMT-82"/>
      <use x="450.048828" xlink:href="#Arial-BoldMT-77"/>
      <use x="533.349609" xlink:href="#Arial-BoldMT-65"/>
      <use x="605.566406" xlink:href="#Arial-BoldMT-76"/>
      <use x="666.650391" xlink:href="#Arial-BoldMT-73"/>
      <use x="694.433594" xlink:href="#Arial-BoldMT-90"/>
      <use x="755.517578" xlink:href="#Arial-BoldMT-69"/>
      <use x="822.216797" xlink:href="#Arial-BoldMT-68"/>
     </g>
     <!-- CELL COUNTS (NUMBERS) -->
     <defs>
      <path d="M 23.390625 0 
L 23.390625 59.46875 
L 2.15625 59.46875 
L 2.15625 71.578125 
L 59.03125 71.578125 
L 59.03125 59.46875 
L 37.84375 59.46875 
L 37.84375 0 
z
" id="Arial-BoldMT-84"/>
      <path d="M 29.9375 -21.046875 
L 20.515625 -21.046875 
Q 13.03125 -9.765625 9.125 2.390625 
Q 5.21875 14.546875 5.21875 25.921875 
Q 5.21875 40.046875 10.0625 52.640625 
Q 14.265625 63.578125 20.703125 72.796875 
L 30.078125 72.796875 
Q 23.390625 58.015625 20.875 47.625 
Q 18.359375 37.25 18.359375 25.640625 
Q 18.359375 17.625 19.84375 9.21875 
Q 21.34375 0.828125 23.921875 -6.734375 
Q 25.640625 -11.71875 29.9375 -21.046875 
z
" id="Arial-BoldMT-40"/>
      <path d="M 7.328125 71.578125 
L 35.9375 71.578125 
Q 44.4375 71.578125 48.609375 70.875 
Q 52.78125 70.171875 56.078125 67.921875 
Q 59.375 65.671875 61.5625 61.9375 
Q 63.765625 58.203125 63.765625 53.5625 
Q 63.765625 48.53125 61.046875 44.328125 
Q 58.34375 40.140625 53.71875 38.03125 
Q 60.25 36.140625 63.765625 31.546875 
Q 67.28125 26.953125 67.28125 20.75 
Q 67.28125 15.875 65.015625 11.25 
Q 62.75 6.640625 58.8125 3.875 
Q 54.890625 1.125 49.125 0.484375 
Q 45.515625 0.09375 31.6875 0 
L 7.328125 0 
z
M 21.78125 59.671875 
L 21.78125 43.109375 
L 31.25 43.109375 
Q 39.703125 43.109375 41.75 43.359375 
Q 45.453125 43.796875 47.578125 45.921875 
Q 49.703125 48.046875 49.703125 51.515625 
Q 49.703125 54.828125 47.875 56.90625 
Q 46.046875 58.984375 42.4375 59.421875 
Q 40.28125 59.671875 30.078125 59.671875 
z
M 21.78125 31.203125 
L 21.78125 12.0625 
L 35.15625 12.0625 
Q 42.96875 12.0625 45.0625 12.5 
Q 48.296875 13.09375 50.3125 15.359375 
Q 52.34375 17.625 52.34375 21.4375 
Q 52.34375 24.65625 50.78125 26.90625 
Q 49.21875 29.15625 46.265625 30.171875 
Q 43.3125 31.203125 33.453125 31.203125 
z
" id="Arial-BoldMT-66"/>
      <path d="M 3.375 -21.046875 
Q 7.421875 -12.359375 9.078125 -7.71875 
Q 10.75 -3.078125 12.15625 2.96875 
Q 13.578125 9.03125 14.25 14.46875 
Q 14.9375 19.921875 14.9375 25.640625 
Q 14.9375 37.25 12.453125 47.625 
Q 9.96875 58.015625 3.265625 72.796875 
L 12.59375 72.796875 
Q 19.96875 62.3125 24.046875 50.53125 
Q 28.125 38.765625 28.125 26.65625 
Q 28.125 16.453125 24.90625 4.78125 
Q 21.234375 -8.296875 12.84375 -21.046875 
z
" id="Arial-BoldMT-41"/>
     </defs>
     <g transform="translate(42.67125 374.002812)rotate(-90)scale(0.2 -0.2)">
      <use xlink:href="#Arial-BoldMT-67"/>
      <use x="72.216797" xlink:href="#Arial-BoldMT-69"/>
      <use x="138.916016" xlink:href="#Arial-BoldMT-76"/>
      <use x="200" xlink:href="#Arial-BoldMT-76"/>
      <use x="261.068359" xlink:href="#Arial-BoldMT-32"/>
      <use x="288.851562" xlink:href="#Arial-BoldMT-67"/>
      <use x="361.068359" xlink:href="#Arial-BoldMT-79"/>
      <use x="438.851562" xlink:href="#Arial-BoldMT-85"/>
      <use x="511.068359" xlink:href="#Arial-BoldMT-78"/>
      <use x="583.285156" xlink:href="#Arial-BoldMT-84"/>
      <use x="644.369141" xlink:href="#Arial-BoldMT-83"/>
      <use x="711.068359" xlink:href="#Arial-BoldMT-32"/>
      <use x="738.851562" xlink:href="#Arial-BoldMT-40"/>
      <use x="772.152344" xlink:href="#Arial-BoldMT-78"/>
      <use x="844.369141" xlink:href="#Arial-BoldMT-85"/>
      <use x="916.585938" xlink:href="#Arial-BoldMT-77"/>
      <use x="999.886719" xlink:href="#Arial-BoldMT-66"/>
      <use x="1072.103516" xlink:href="#Arial-BoldMT-69"/>
      <use x="1138.802734" xlink:href="#Arial-BoldMT-82"/>
      <use x="1211.019531" xlink:href="#Arial-BoldMT-83"/>
      <use x="1277.71875" xlink:href="#Arial-BoldMT-41"/>
     </g>
    </g>
   </g>
   <g id="line2d_14">
    <path clip-path="url(#pbff79c7176)" d="M 102.055625 433.16125 
L 113.891989 403.56525 
L 125.728352 371.85525 
L 137.564716 398.632583 
L 149.40108 394.58075 
L 161.237443 399.33725 
L 173.073807 390.176583 
L 184.91017 378.80125 
L 196.746534 359.69975 
L 208.582898 370.211028 
L 220.419261 363.18785 
L 232.255625 362.246159 
L 244.091989 370.093583 
L 255.928352 382.42525 
L 267.764716 382.87825 
L 279.60108 388.76725 
L 291.437443 384.935625 
L 303.273807 372.725721 
L 315.11017 362.577139 
L 326.946534 351.494092 
L 338.782898 362.87075 
L 350.619261 364.506583 
L 362.455625 362.726614 
L 374.291989 370.93612 
L 386.128352 370.26975 
L 397.964716 369.82581 
L 409.80108 383.970096 
L 421.637443 371.22888 
L 433.473807 364.00325 
L 445.31017 358.879664 
L 457.146534 351.77225 
L 468.982898 334.348798 
L 480.819261 331.821375 
L 492.655625 330.087735 
" style="fill:none;stroke:#08306b;stroke-linecap:square;stroke-width:1.5;"/>
   </g>
   <g id="line2d_15">
    <path clip-path="url(#pbff79c7176)" d="M 102.055625 433.16125 
L 113.891989 380.31125 
L 125.728352 402.50825 
L 137.564716 394.404583 
L 149.40108 375.02625 
L 161.237443 353.25205 
L 173.073807 364.45625 
L 184.91017 360.98325 
L 196.746534 367.8915 
L 208.582898 372.559917 
L 220.419261 376.08325 
L 232.255625 382.040886 
L 244.091989 397.75175 
L 255.928352 397.873712 
L 267.764716 392.54225 
L 279.60108 375.519517 
L 291.437443 373.44075 
L 303.273807 373.471838 
L 315.11017 374.439028 
L 326.946534 372.856618 
L 338.782898 372.91225 
L 350.619261 356.855917 
L 362.455625 365.993705 
L 374.291989 371.303772 
L 386.128352 373.881167 
L 397.964716 368.05005 
L 409.80108 365.919788 
L 421.637443 366.765991 
L 433.473807 375.17725 
L 445.31017 378.999112 
L 457.146534 369.600317 
L 468.982898 350.442476 
L 480.819261 346.48725 
L 492.655625 360.324341 
" style="fill:none;stroke:#08306b;stroke-linecap:square;stroke-width:1.5;"/>
   </g>
   <g id="line2d_16">
    <path clip-path="url(#pbff79c7176)" d="M 102.055625 433.16125 
L 113.891989 380.31125 
L 125.728352 402.50825 
L 137.564716 388.76725 
L 149.40108 379.25425 
L 161.237443 389.61285 
L 173.073807 390.176583 
L 184.91017 392.99525 
L 196.746534 391.1455 
L 208.582898 389.706806 
L 220.419261 386.23045 
L 232.255625 369.164705 
L 244.091989 369.388917 
L 255.928352 360.472173 
L 267.764716 362.19125 
L 279.60108 370.58685 
L 291.437443 368.552125 
L 303.273807 363.274897 
L 315.11017 354.238583 
L 326.946534 346.598513 
L 338.782898 355.57745 
L 350.619261 354.540583 
L 362.455625 358.11425 
L 374.291989 365.51325 
L 386.128352 364.544333 
L 397.964716 375.91413 
L 409.80108 377.058942 
L 421.637443 371.698657 
L 433.473807 372.91225 
L 445.31017 371.126284 
L 457.146534 362.201317 
L 468.982898 356.579895 
L 480.819261 349.592187 
L 492.655625 366.730402 
" style="fill:none;stroke:#08306b;stroke-linecap:square;stroke-width:1.5;"/>
   </g>
   <g id="line2d_17">
    <path clip-path="url(#pbff79c7176)" d="M 102.055625 433.16125 
L 113.891989 359.17125 
L 125.728352 366.57025 
L 137.564716 385.948583 
L 149.40108 400.39425 
L 161.237443 373.54645 
L 173.073807 388.76725 
L 184.91017 380.61325 
L 196.746534 368.42 
L 208.582898 374.439028 
L 220.419261 369.10705 
L 232.255625 375.506705 
L 244.091989 371.679083 
L 255.928352 379.660788 
L 267.764716 379.25425 
L 279.60108 386.65325 
L 291.437443 379.25425 
L 303.273807 373.223132 
L 315.11017 378.079806 
L 326.946534 391.882618 
L 338.782898 382.31955 
L 350.619261 387.55925 
L 362.455625 384.923614 
L 374.291989 376.267076 
L 386.128352 370.26975 
L 397.964716 369.65669 
L 409.80108 370.79825 
L 421.637443 361.989917 
L 433.473807 366.11725 
L 445.31017 361.139457 
L 457.146534 349.799183 
L 468.982898 336.190024 
L 480.819261 338.493687 
L 492.655625 343.604523 
" style="fill:none;stroke:#08306b;stroke-linecap:square;stroke-width:1.5;"/>
   </g>
   <g id="line2d_18">
    <path clip-path="url(#pbff79c7176)" d="M 102.055625 230.21725 
L 113.891989 346.48725 
L 125.728352 375.02625 
L 137.564716 357.761917 
L 149.40108 385.06775 
L 161.237443 392.99525 
L 173.073807 391.93825 
L 184.91017 384.53925 
L 196.746534 381.36825 
L 208.582898 370.680806 
L 220.419261 377.56305 
L 232.255625 382.42525 
L 244.091989 372.559917 
L 255.928352 358.683404 
L 267.764716 382.27425 
L 279.60108 384.821117 
L 291.437443 385.59625 
L 303.273807 389.513368 
L 315.11017 380.428694 
L 326.946534 373.301671 
L 338.782898 370.90395 
L 350.619261 361.687917 
L 362.455625 361.957886 
L 374.291989 368.086815 
L 386.128352 358.907 
L 397.964716 359.76317 
L 409.80108 364.45625 
L 421.637443 372.090139 
L 433.473807 370.64725 
L 445.31017 368.137526 
L 457.146534 360.510117 
L 468.982898 351.942734 
L 480.819261 336.115437 
L 492.655625 349.754341 
" style="fill:none;stroke:#08306b;stroke-linecap:square;stroke-width:1.5;"/>
   </g>
   <g id="line2d_19">
    <path clip-path="url(#pbff79c7176)" d="M 102.055625 433.16125 
L 113.891989 407.79325 
L 125.728352 404.62225 
L 137.564716 405.67925 
L 149.40108 399.33725 
L 161.237443 398.49165 
L 173.073807 402.155917 
L 184.91017 385.44525 
L 196.746534 380.5755 
L 208.582898 368.801694 
L 220.419261 384.96205 
L 232.255625 384.731432 
L 244.091989 391.585917 
L 255.928352 369.74125 
L 267.764716 376.68725 
L 279.60108 373.687383 
L 291.437443 386.65325 
L 303.273807 385.907132 
L 315.11017 374.556472 
L 326.946534 368.517355 
L 338.782898 371.43245 
L 350.619261 375.579917 
L 362.455625 371.566977 
L 374.291989 362.755859 
L 386.128352 346.839583 
L 397.964716 359.67861 
L 409.80108 355.024558 
L 421.637443 363.555843 
L 433.473807 363.24825 
L 445.31017 365.950629 
L 457.146534 362.835517 
L 468.982898 364.285766 
L 480.819261 362.144062 
L 492.655625 372.816159 
" style="fill:none;stroke:#08306b;stroke-linecap:square;stroke-width:1.5;"/>
   </g>
   <g id="line2d_20">
    <path clip-path="url(#pbff79c7176)" d="M 102.055625 433.16125 
L 113.891989 433.16125 
L 125.728352 431.04725 
L 137.564716 416.24925 
L 149.40108 399.86575 
L 161.237443 395.53205 
L 173.073807 356.00025 
L 184.91017 352.22525 
L 196.746534 354.41475 
L 208.582898 359.641028 
L 220.419261 373.12365 
L 232.255625 365.897614 
L 244.091989 365.51325 
L 255.928352 360.634788 
L 267.764716 364.30525 
L 279.60108 377.35165 
L 291.437443 373.308625 
L 303.273807 375.337132 
L 315.11017 379.25425 
L 326.946534 376.305776 
L 338.782898 375.23765 
L 350.619261 366.016583 
L 362.455625 361.765705 
L 374.291989 358.25212 
L 386.128352 367.539167 
L 397.964716 375.66045 
L 409.80108 362.667481 
L 421.637443 364.338806 
L 433.473807 363.62575 
L 445.31017 363.326353 
L 457.146534 370.304983 
L 468.982898 361.967185 
L 480.819261 361.879812 
L 492.655625 373.072402 
" style="fill:none;stroke:#08306b;stroke-linecap:square;stroke-width:1.5;"/>
   </g>
   <g id="line2d_21">
    <path clip-path="url(#pbff79c7176)" d="M 102.055625 420.47725 
L 113.891989 414.13525 
L 125.728352 375.02625 
L 137.564716 378.901917 
L 149.40108 399.86575 
L 161.237443 410.75285 
L 173.073807 397.575583 
L 184.91017 405.98125 
L 196.746534 387.71025 
L 208.582898 382.190361 
L 220.419261 365.72465 
L 232.255625 379.542523 
L 244.091989 380.31125 
L 255.928352 376.408481 
L 267.764716 359.02025 
L 279.60108 368.05005 
L 291.437443 365.51325 
L 303.273807 362.777485 
L 315.11017 366.922583 
L 326.946534 374.080513 
L 338.782898 370.69255 
L 350.619261 365.311917 
L 362.455625 357.537705 
L 374.291989 358.25212 
L 386.128352 372.38375 
L 397.964716 370.75597 
L 409.80108 369.009481 
L 421.637443 365.51325 
L 433.473807 360.98325 
L 445.31017 353.776905 
L 457.146534 355.859317 
L 468.982898 354.534089 
L 480.819261 358.11425 
L 492.655625 372.688038 
" style="fill:none;stroke:#08306b;stroke-linecap:square;stroke-width:1.5;"/>
   </g>
   <g id="line2d_22">
    <path clip-path="url(#pbff79c7176)" d="M 102.055625 433.16125 
L 113.891989 390.88125 
L 125.728352 316.89125 
L 137.564716 335.212583 
L 149.40108 375.55475 
L 161.237443 369.31845 
L 173.073807 383.129917 
L 184.91017 364.90925 
L 196.746534 376.61175 
L 208.582898 378.901917 
L 220.419261 362.76505 
L 232.255625 360.516523 
L 244.091989 354.767083 
L 255.928352 359.984327 
L 267.764716 364.90925 
L 279.60108 373.12365 
L 291.437443 366.173875 
L 303.273807 366.259368 
L 315.11017 354.825806 
L 326.946534 349.046303 
L 338.782898 359.06555 
L 350.619261 371.754583 
L 362.455625 374.930159 
L 374.291989 375.256033 
L 386.128352 364.368167 
L 397.964716 365.25957 
L 409.80108 368.602942 
L 421.637443 373.656065 
L 433.473807 371.17575 
L 445.31017 370.688905 
L 457.146534 363.540183 
L 468.982898 360.671508 
L 480.819261 362.936812 
L 492.655625 363.143008 
" style="fill:none;stroke:#08306b;stroke-linecap:square;stroke-width:1.5;"/>
   </g>
   <g id="line2d_23">
    <path clip-path="url(#pbff79c7176)" d="M 102.055625 433.16125 
L 113.891989 397.22325 
L 125.728352 375.02625 
L 137.564716 376.08325 
L 149.40108 365.51325 
L 161.237443 356.63445 
L 173.073807 371.502917 
L 184.91017 377.29125 
L 196.746534 375.02625 
L 208.582898 376.787917 
L 220.419261 370.58685 
L 232.255625 374.545795 
L 244.091989 371.85525 
L 255.928352 361.122635 
L 267.764716 359.02025 
L 279.60108 368.89565 
L 291.437443 363.002875 
L 303.273807 370.736074 
L 315.11017 383.599694 
L 326.946534 383.537882 
L 338.782898 376.50605 
L 350.619261 376.08325 
L 362.455625 371.663068 
L 374.291989 366.70812 
L 386.128352 361.197167 
L 397.964716 350.96893 
L 409.80108 354.292788 
L 421.637443 350.245472 
L 433.473807 369.89225 
L 445.31017 359.025457 
L 457.146534 352.758783 
L 468.982898 340.963573 
L 480.819261 341.20225 
L 492.655625 356.608826 
" style="fill:none;stroke:#08306b;stroke-linecap:square;stroke-width:1.5;"/>
   </g>
   <g id="line2d_24">
    <path clip-path="url(#pbff79c7176)" d="M 102.055625 357.05725 
L 113.891989 401.45125 
L 125.728352 407.79325 
L 137.564716 412.725917 
L 149.40108 418.89175 
L 161.237443 414.98085 
L 173.073807 412.02125 
L 184.91017 402.35725 
L 196.746534 396.16625 
L 208.582898 390.411472 
L 220.419261 388.55585 
L 232.255625 402.412159 
L 244.091989 401.627417 
L 255.928352 398.361558 
L 267.764716 409.90725 
L 279.60108 406.383917 
L 291.437443 407.79325 
L 303.273807 403.067838 
L 315.11017 401.921028 
L 326.946534 396.221882 
L 338.782898 399.44295 
L 350.619261 398.833917 
L 362.455625 397.607614 
L 374.291989 396.30412 
L 386.128352 399.425333 
L 397.964716 403.64981 
L 409.80108 403.56525 
L 421.637443 396.440287 
L 433.473807 395.48675 
L 445.31017 391.245733 
L 457.146534 389.683317 
L 468.982898 384.607444 
L 480.819261 391.211562 
L 492.655625 405.038644 
" style="fill:none;stroke:#4a98c9;stroke-linecap:square;stroke-width:1.5;"/>
   </g>
   <g id="line2d_25">
    <path clip-path="url(#pbff79c7176)" d="M 102.055625 433.16125 
L 113.891989 414.13525 
L 125.728352 424.70525 
L 137.564716 389.471917 
L 149.40108 395.63775 
L 161.237443 384.11645 
L 173.073807 366.57025 
L 184.91017 387.55925 
L 196.746534 389.56 
L 208.582898 401.216361 
L 220.419261 401.66265 
L 232.255625 407.601068 
L 244.091989 411.316583 
L 255.928352 417.550173 
L 267.764716 410.05825 
L 279.60108 408.63885 
L 291.437443 407.529 
L 303.273807 400.829485 
L 315.11017 392.642917 
L 326.946534 391.103776 
L 338.782898 398.38595 
L 350.619261 401.75325 
L 362.455625 403.469159 
L 374.291989 399.153424 
L 386.128352 395.285417 
L 397.964716 391.72685 
L 409.80108 390.149481 
L 421.637443 386.02688 
L 433.473807 385.14325 
L 445.31017 388.621457 
L 457.146534 385.737183 
L 468.982898 381.334153 
L 480.819261 378.593625 
L 492.655625 389.600038 
" style="fill:none;stroke:#4a98c9;stroke-linecap:square;stroke-width:1.5;"/>
   </g>
   <g id="line2d_26">
    <path clip-path="url(#pbff79c7176)" d="M 102.055625 433.16125 
L 113.891989 414.13525 
L 125.728352 418.36325 
L 137.564716 419.067917 
L 149.40108 421.00575 
L 161.237443 415.40365 
L 173.073807 410.96425 
L 184.91017 403.56525 
L 196.746534 405.9435 
L 208.582898 402.155917 
L 220.419261 400.81705 
L 232.255625 399.721614 
L 244.091989 397.575583 
L 255.928352 396.084942 
L 267.764716 386.50225 
L 279.60108 391.163117 
L 291.437443 391.40975 
L 303.273807 399.461603 
L 315.11017 403.330361 
L 326.946534 392.438934 
L 338.782898 394.15795 
L 350.619261 396.61925 
L 362.455625 396.838886 
L 374.291989 398.510033 
L 386.128352 403.741417 
L 397.964716 408.46973 
L 409.80108 402.996096 
L 421.637443 404.974583 
L 433.473807 401.14925 
L 445.31017 391.391526 
L 457.146534 384.680183 
L 468.982898 375.264927 
L 480.819261 377.536625 
L 492.655625 394.724886 
" style="fill:none;stroke:#4a98c9;stroke-linecap:square;stroke-width:1.5;"/>
   </g>
   <g id="line2d_27">
    <path clip-path="url(#pbff79c7176)" d="M 102.055625 433.16125 
L 113.891989 426.81925 
L 125.728352 415.19225 
L 137.564716 414.13525 
L 149.40108 403.03675 
L 161.237443 409.48445 
L 173.073807 405.326917 
L 184.91017 412.32325 
L 196.746534 406.20775 
L 208.582898 408.967694 
L 220.419261 402.29685 
L 232.255625 403.949614 
L 244.091989 398.104083 
L 255.928352 397.060635 
L 267.764716 402.81025 
L 279.60108 403.56525 
L 291.437443 406.075625 
L 303.273807 407.420191 
L 315.11017 409.202583 
L 326.946534 414.357776 
L 338.782898 409.59015 
L 350.619261 406.987917 
L 362.455625 404.045705 
L 374.291989 399.429163 
L 386.128352 398.80875 
L 397.964716 401.11301 
L 409.80108 397.792404 
L 421.637443 395.892213 
L 433.473807 399.86575 
L 445.31017 389.787802 
L 457.146534 384.186917 
L 468.982898 377.174347 
L 480.819261 382.6895 
L 492.655625 400.36222 
" style="fill:none;stroke:#4a98c9;stroke-linecap:square;stroke-width:1.5;"/>
   </g>
   <g id="line2d_28">
    <path clip-path="url(#pbff79c7176)" d="M 102.055625 369.74125 
L 113.891989 412.02125 
L 125.728352 413.07825 
L 137.564716 409.202583 
L 149.40108 419.94875 
L 161.237443 413.71245 
L 173.073807 404.974583 
L 184.91017 405.37725 
L 196.746534 394.05225 
L 208.582898 393.934806 
L 220.419261 395.10925 
L 232.255625 398.376341 
L 244.091989 394.05225 
L 255.928352 394.133558 
L 267.764716 407.79325 
L 279.60108 401.733117 
L 291.437443 410.303625 
L 303.273807 404.187015 
L 315.11017 398.162806 
L 326.946534 388.322197 
L 338.782898 397.11755 
L 350.619261 387.760583 
L 362.455625 388.478977 
L 374.291989 385.642207 
L 386.128352 389.82425 
L 397.964716 393.84085 
L 409.80108 399.499865 
L 421.637443 403.095472 
L 433.473807 398.73325 
L 445.31017 401.013871 
L 457.146534 392.008717 
L 468.982898 390.267508 
L 480.819261 386.983562 
L 492.655625 399.785674 
" style="fill:none;stroke:#4a98c9;stroke-linecap:square;stroke-width:1.5;"/>
   </g>
   <g id="line2d_29">
    <path clip-path="url(#pbff79c7176)" d="M 102.055625 433.16125 
L 113.891989 426.81925 
L 125.728352 397.22325 
L 137.564716 389.471917 
L 149.40108 418.89175 
L 161.237443 411.59845 
L 173.073807 408.145583 
L 184.91017 398.73325 
L 196.746534 405.67925 
L 208.582898 402.390806 
L 220.419261 406.94765 
L 232.255625 399.33725 
L 244.091989 410.788083 
L 255.928352 405.191404 
L 267.764716 408.69925 
L 279.60108 407.79325 
L 291.437443 405.67925 
L 303.273807 400.456426 
L 315.11017 400.276806 
L 326.946534 397.22325 
L 338.782898 400.28855 
L 350.619261 399.236583 
L 362.455625 397.415432 
L 374.291989 395.752641 
L 386.128352 391.497833 
L 397.964716 391.38861 
L 409.80108 390.230788 
L 421.637443 381.877176 
L 433.473807 385.52075 
L 445.31017 390.370974 
L 457.146534 384.186917 
L 468.982898 386.721444 
L 480.819261 393.391625 
L 492.655625 400.42628 
" style="fill:none;stroke:#4a98c9;stroke-linecap:square;stroke-width:1.5;"/>
   </g>
   <g id="line2d_30">
    <path clip-path="url(#pbff79c7176)" d="M 102.055625 433.16125 
L 113.891989 433.16125 
L 125.728352 433.16125 
L 137.564716 424.70525 
L 149.40108 415.72075 
L 161.237443 406.52485 
L 173.073807 377.844917 
L 184.91017 374.87525 
L 196.746534 377.4045 
L 208.582898 376.787917 
L 220.419261 387.92165 
L 232.255625 389.151614 
L 244.091989 396.518583 
L 255.928352 397.711096 
L 267.764716 402.65925 
L 279.60108 398.773517 
L 291.437443 395.3735 
L 303.273807 396.228426 
L 315.11017 404.62225 
L 326.946534 404.344092 
L 338.782898 406.94765 
L 350.619261 396.92125 
L 362.455625 396.550614 
L 374.291989 398.877685 
L 386.128352 403.56525 
L 397.964716 398.91445 
L 409.80108 392.344788 
L 421.637443 388.532361 
L 433.473807 388.84275 
L 445.31017 390.735457 
L 457.146534 387.07605 
L 468.982898 389.380992 
L 480.819261 381.434312 
L 492.655625 392.867129 
" style="fill:none;stroke:#4a98c9;stroke-linecap:square;stroke-width:1.5;"/>
   </g>
   <g id="line2d_31">
    <path clip-path="url(#pbff79c7176)" d="M 102.055625 420.47725 
L 113.891989 422.59125 
L 125.728352 409.90725 
L 137.564716 404.269917 
L 149.40108 415.72075 
L 161.237443 417.51765 
L 173.073807 413.782917 
L 184.91017 405.67925 
L 196.746534 398.80875 
L 208.582898 400.041917 
L 220.419261 394.47505 
L 232.255625 403.56525 
L 244.091989 411.140417 
L 255.928352 400.312942 
L 267.764716 399.18625 
L 279.60108 395.250183 
L 291.437443 395.902 
L 303.273807 396.104074 
L 315.11017 400.981472 
L 326.946534 399.33725 
L 338.782898 401.13415 
L 350.619261 396.92125 
L 362.455625 392.899159 
L 374.291989 393.087163 
L 386.128352 401.363167 
L 397.964716 399.84461 
L 409.80108 399.743788 
L 421.637443 394.717769 
L 433.473807 391.93825 
L 445.31017 388.256974 
L 457.146534 379.183783 
L 468.982898 386.380476 
L 480.819261 397.355375 
L 492.655625 412.149371 
" style="fill:none;stroke:#4a98c9;stroke-linecap:square;stroke-width:1.5;"/>
   </g>
   <g id="line2d_32">
    <path clip-path="url(#pbff79c7176)" d="M 102.055625 369.74125 
L 113.891989 392.99525 
L 125.728352 401.45125 
L 137.564716 394.404583 
L 149.40108 395.63775 
L 161.237443 384.96205 
L 173.073807 387.357917 
L 184.91017 391.48525 
L 196.746534 400.13 
L 208.582898 400.276806 
L 220.419261 400.39425 
L 232.255625 400.298159 
L 244.091989 396.518583 
L 255.928352 398.198942 
L 267.764716 396.77025 
L 279.60108 399.33725 
L 291.437443 396.298375 
L 303.273807 390.632544 
L 315.11017 396.518583 
L 326.946534 392.661461 
L 338.782898 397.54035 
L 350.619261 400.24325 
L 362.455625 400.298159 
L 374.291989 405.587337 
L 386.128352 399.161083 
L 397.964716 400.01373 
L 409.80108 399.743788 
L 421.637443 396.753472 
L 433.473807 399.94125 
L 445.31017 399.993319 
L 457.146534 393.488517 
L 468.982898 393.608992 
L 480.819261 392.532812 
L 492.655625 401.835614 
" style="fill:none;stroke:#4a98c9;stroke-linecap:square;stroke-width:1.5;"/>
   </g>
   <g id="line2d_33">
    <path clip-path="url(#pbff79c7176)" d="M 102.055625 420.47725 
L 113.891989 426.81925 
L 125.728352 387.71025 
L 137.564716 390.88125 
L 149.40108 406.73625 
L 161.237443 403.56525 
L 173.073807 408.497917 
L 184.91017 409.30325 
L 196.746534 404.62225 
L 208.582898 410.142139 
L 220.419261 411.38705 
L 232.255625 394.148341 
L 244.091989 404.62225 
L 255.928352 396.572788 
L 267.764716 392.39125 
L 279.60108 394.827383 
L 291.437443 398.676625 
L 303.273807 395.731015 
L 315.11017 406.618806 
L 326.946534 409.573461 
L 338.782898 401.66265 
L 350.619261 401.350583 
L 362.455625 400.778614 
L 374.291989 398.969598 
L 386.128352 390.705083 
L 397.964716 394.09453 
L 409.80108 390.474712 
L 421.637443 391.977398 
L 433.473807 389.82425 
L 445.31017 391.245733 
L 457.146534 391.022183 
L 468.982898 392.313315 
L 480.819261 393.127375 
L 492.655625 397.927917 
" style="fill:none;stroke:#4a98c9;stroke-linecap:square;stroke-width:1.5;"/>
   </g>
   <g id="line2d_34">
    <path clip-path="url(#pbff79c7176)" d="M 102.055625 433.16125 
L 113.891989 409.90725 
L 125.728352 423.64825 
L 137.564716 409.202583 
L 149.40108 418.36325 
L 161.237443 416.24925 
L 173.073807 418.010917 
L 184.91017 404.47125 
L 196.746534 411.2285 
L 208.582898 402.155917 
L 220.419261 406.73625 
L 232.255625 414.13525 
L 244.091989 407.617083 
L 255.928352 412.02125 
L 267.764716 417.60825 
L 279.60108 414.13525 
L 291.437443 412.02125 
L 303.273807 411.648191 
L 315.11017 403.56525 
L 326.946534 405.901776 
L 338.782898 408.32175 
L 350.619261 408.39725 
L 362.455625 408.85025 
L 374.291989 411.10212 
L 386.128352 408.145583 
L 397.964716 407.28589 
L 409.80108 408.281096 
L 421.637443 407.636657 
L 433.473807 403.79175 
L 445.31017 402.763388 
L 457.146534 402.29685 
L 468.982898 400.769315 
L 480.819261 410.039375 
L 492.655625 416.185189 
" style="fill:none;stroke:#d0e1f2;stroke-linecap:square;stroke-width:1.5;"/>
   </g>
   <g id="line2d_35">
    <path clip-path="url(#pbff79c7176)" d="M 102.055625 433.16125 
L 113.891989 409.90725 
L 125.728352 425.76225 
L 137.564716 424.70525 
L 149.40108 422.06275 
L 161.237443 409.48445 
L 173.073807 400.041917 
L 184.91017 401.14925 
L 196.746534 405.9435 
L 208.582898 408.028139 
L 220.419261 414.13525 
L 232.255625 416.825795 
L 244.091989 410.083417 
L 255.928352 415.110942 
L 267.764716 412.62525 
L 279.60108 415.967383 
L 291.437443 415.588625 
L 303.273807 412.269956 
L 315.11017 408.732806 
L 326.946534 406.680618 
L 338.782898 408.00465 
L 350.619261 410.913917 
L 362.455625 412.405614 
L 374.291989 410.091076 
L 386.128352 410.523833 
L 397.964716 403.31157 
L 409.80108 409.175481 
L 421.637443 407.79325 
L 433.473807 405.90575 
L 445.31017 405.096078 
L 457.146534 406.877183 
L 468.982898 407.452282 
L 480.819261 406.73625 
L 492.655625 417.017977 
" style="fill:none;stroke:#d0e1f2;stroke-linecap:square;stroke-width:1.5;"/>
   </g>
   <g id="line2d_36">
    <path clip-path="url(#pbff79c7176)" d="M 102.055625 433.16125 
L 113.891989 422.59125 
L 125.728352 420.47725 
L 137.564716 420.47725 
L 149.40108 426.29075 
L 161.237443 420.47725 
L 173.073807 409.90725 
L 184.91017 414.43725 
L 196.746534 414.3995 
L 208.582898 408.732806 
L 220.419261 412.44405 
L 232.255625 412.405614 
L 244.091989 408.145583 
L 255.928352 409.419404 
L 267.764716 409.60525 
L 279.60108 411.457517 
L 291.437443 405.415 
L 303.273807 408.415015 
L 315.11017 402.625694 
L 326.946534 404.010303 
L 338.782898 405.78495 
L 350.619261 410.20925 
L 362.455625 407.601068 
L 374.291989 403.105685 
L 386.128352 403.917583 
L 397.964716 405.00277 
L 409.80108 406.411019 
L 421.637443 409.359176 
L 433.473807 410.13375 
L 445.31017 405.023181 
L 457.146534 404.058517 
L 468.982898 403.224282 
L 480.819261 407.396875 
L 492.655625 420.221008 
" style="fill:none;stroke:#d0e1f2;stroke-linecap:square;stroke-width:1.5;"/>
   </g>
   <g id="line2d_37">
    <path clip-path="url(#pbff79c7176)" d="M 102.055625 433.16125 
L 113.891989 414.13525 
L 125.728352 412.02125 
L 137.564716 409.202583 
L 149.40108 413.60675 
L 161.237443 410.33005 
L 173.073807 408.85025 
L 184.91017 408.09525 
L 196.746534 404.62225 
L 208.582898 408.732806 
L 220.419261 410.54145 
L 232.255625 411.636886 
L 244.091989 408.497917 
L 255.928352 410.557712 
L 267.764716 408.39725 
L 279.60108 409.06165 
L 291.437443 407.132625 
L 303.273807 409.90725 
L 315.11017 414.252694 
L 326.946534 415.692934 
L 338.782898 415.40365 
L 350.619261 417.15525 
L 362.455625 415.960977 
L 374.291989 413.675685 
L 386.128352 407.176667 
L 397.964716 410.16093 
L 409.80108 404.540942 
L 421.637443 405.67925 
L 433.473807 405.52825 
L 445.31017 398.754078 
L 457.146534 397.64605 
L 468.982898 399.200863 
L 480.819261 401.583375 
L 492.655625 412.789977 
" style="fill:none;stroke:#d0e1f2;stroke-linecap:square;stroke-width:1.5;"/>
   </g>
   <g id="line2d_38">
    <path clip-path="url(#pbff79c7176)" d="M 102.055625 420.47725 
L 113.891989 424.70525 
L 125.728352 414.13525 
L 137.564716 403.56525 
L 149.40108 411.49275 
L 161.237443 406.94765 
L 173.073807 415.19225 
L 184.91017 414.13525 
L 196.746534 414.928 
L 208.582898 408.263028 
L 220.419261 410.11865 
L 232.255625 411.252523 
L 244.091989 412.373583 
L 255.928352 404.215712 
L 267.764716 417.91025 
L 279.60108 417.51765 
L 291.437443 414.531625 
L 303.273807 416.000544 
L 315.11017 409.789806 
L 326.946534 413.578934 
L 338.782898 411.28135 
L 350.619261 409.101917 
L 362.455625 405.487068 
L 374.291989 398.41812 
L 386.128352 402.7725 
L 397.964716 406.01749 
L 409.80108 405.191404 
L 421.637443 411.316583 
L 433.473807 408.54825 
L 445.31017 407.210078 
L 457.146534 404.269917 
L 468.982898 405.201895 
L 480.819261 405.415 
L 492.655625 415.096159 
" style="fill:none;stroke:#d0e1f2;stroke-linecap:square;stroke-width:1.5;"/>
   </g>
   <g id="line2d_39">
    <path clip-path="url(#pbff79c7176)" d="M 102.055625 420.47725 
L 113.891989 428.93325 
L 125.728352 406.73625 
L 137.564716 404.269917 
L 149.40108 410.43575 
L 161.237443 423.43685 
L 173.073807 416.24925 
L 184.91017 412.32325 
L 196.746534 417.5705 
L 208.582898 412.02125 
L 220.419261 415.40365 
L 232.255625 417.786705 
L 244.091989 418.010917 
L 255.928352 410.069865 
L 267.764716 406.13225 
L 279.60108 410.189117 
L 291.437443 410.567875 
L 303.273807 410.404662 
L 315.11017 412.138694 
L 326.946534 408.127039 
L 338.782898 407.15905 
L 350.619261 404.571917 
L 362.455625 406.928432 
L 374.291989 406.138815 
L 386.128352 401.7155 
L 397.964716 403.39613 
L 409.80108 397.467173 
L 421.637443 399.96362 
L 433.473807 403.26325 
L 445.31017 402.544698 
L 457.146534 406.242983 
L 468.982898 410.384605 
L 480.819261 411.030312 
L 492.655625 415.864886 
" style="fill:none;stroke:#d0e1f2;stroke-linecap:square;stroke-width:1.5;"/>
   </g>
   <g id="line2d_40">
    <path clip-path="url(#pbff79c7176)" d="M 102.055625 433.16125 
L 113.891989 433.16125 
L 125.728352 429.99025 
L 137.564716 424.70525 
L 149.40108 422.06275 
L 161.237443 416.67205 
L 173.073807 398.632583 
L 184.91017 394.20325 
L 196.746534 398.28025 
L 208.582898 400.276806 
L 220.419261 400.39425 
L 232.255625 408.946341 
L 244.091989 405.855417 
L 255.928352 402.589558 
L 267.764716 408.69925 
L 279.60108 410.893783 
L 291.437443 412.946125 
L 303.273807 413.389132 
L 315.11017 409.320028 
L 326.946534 408.683355 
L 338.782898 412.33835 
L 350.619261 409.00125 
L 362.455625 410.099432 
L 374.291989 407.333685 
L 386.128352 405.238833 
L 397.964716 406.27117 
L 409.80108 402.670865 
L 421.637443 407.010287 
L 433.473807 402.50825 
L 445.31017 405.970836 
L 457.146534 407.440917 
L 468.982898 405.474669 
L 480.819261 405.15075 
L 492.655625 404.718341 
" style="fill:none;stroke:#d0e1f2;stroke-linecap:square;stroke-width:1.5;"/>
   </g>
   <g id="line2d_41">
    <path clip-path="url(#pbff79c7176)" d="M 102.055625 433.16125 
L 113.891989 424.70525 
L 125.728352 419.42025 
L 137.564716 414.13525 
L 149.40108 423.64825 
L 161.237443 416.24925 
L 173.073807 417.658583 
L 184.91017 416.24925 
L 196.746534 413.60675 
L 208.582898 401.921028 
L 220.419261 416.24925 
L 232.255625 409.715068 
L 244.091989 407.26475 
L 255.928352 407.630635 
L 267.764716 398.73325 
L 279.60108 406.52485 
L 291.437443 403.961625 
L 303.273807 404.435721 
L 315.11017 404.974583 
L 326.946534 406.013039 
L 338.782898 408.21605 
L 350.619261 403.56525 
L 362.455625 403.661341 
L 374.291989 402.554207 
L 386.128352 408.85025 
L 397.964716 413.88157 
L 409.80108 410.313788 
L 421.637443 402.782287 
L 433.473807 403.33875 
L 445.31017 402.617595 
L 457.146534 399.196317 
L 468.982898 405.883831 
L 480.819261 413.408562 
L 492.655625 422.911553 
" style="fill:none;stroke:#d0e1f2;stroke-linecap:square;stroke-width:1.5;"/>
   </g>
   <g id="line2d_42">
    <path clip-path="url(#pbff79c7176)" d="M 102.055625 420.47725 
L 113.891989 403.56525 
L 125.728352 406.73625 
L 137.564716 418.36325 
L 149.40108 397.75175 
L 161.237443 405.25645 
L 173.073807 408.497917 
L 184.91017 409.00125 
L 196.746534 414.66375 
L 208.582898 412.491028 
L 220.419261 401.45125 
L 232.255625 407.985432 
L 244.091989 406.560083 
L 255.928352 403.727865 
L 267.764716 406.58525 
L 279.60108 407.652317 
L 291.437443 405.15075 
L 303.273807 406.674074 
L 315.11017 405.914139 
L 326.946534 403.342724 
L 338.782898 405.78495 
L 350.619261 409.00125 
L 362.455625 415.096159 
L 374.291989 408.528554 
L 386.128352 401.891667 
L 397.964716 402.71965 
L 409.80108 404.703558 
L 421.637443 406.462213 
L 433.473807 405.60375 
L 445.31017 409.542767 
L 457.146534 410.75285 
L 468.982898 402.678734 
L 480.819261 408.189625 
L 492.655625 417.466402 
" style="fill:none;stroke:#d0e1f2;stroke-linecap:square;stroke-width:1.5;"/>
   </g>
   <g id="line2d_43">
    <path clip-path="url(#pbff79c7176)" d="M 102.055625 433.16125 
L 113.891989 431.04725 
L 125.728352 415.19225 
L 137.564716 393.699917 
L 149.40108 401.97975 
L 161.237443 420.05445 
L 173.073807 417.30625 
L 184.91017 410.51125 
L 196.746534 411.49275 
L 208.582898 415.074806 
L 220.419261 417.30625 
L 232.255625 416.057068 
L 244.091989 409.731083 
L 255.928352 406.980173 
L 267.764716 404.01825 
L 279.60108 407.652317 
L 291.437443 407.26475 
L 303.273807 409.036779 
L 315.11017 412.608472 
L 326.946534 413.133882 
L 338.782898 412.44405 
L 350.619261 405.98125 
L 362.455625 406.063614 
L 374.291989 406.966033 
L 386.128352 405.238833 
L 397.964716 402.88877 
L 409.80108 400.882096 
L 421.637443 402.703991 
L 433.473807 402.50825 
L 445.31017 402.326009 
L 457.146534 402.226383 
L 468.982898 399.132669 
L 480.819261 408.453875 
L 492.655625 418.107008 
" style="fill:none;stroke:#d0e1f2;stroke-linecap:square;stroke-width:1.5;"/>
   </g>
   <g id="line2d_44">
    <path clip-path="url(#pbff79c7176)" d="M 102.055625 407.79325 
L 113.891989 418.36325 
L 125.728352 404.62225 
L 137.564716 388.062583 
L 149.40108 389.29575 
L 161.237443 405.25645 
L 173.073807 379.25425 
L 184.91017 362.49325 
L 196.746534 359.4355 
L 208.582898 361.050361 
L 220.419261 368.05005 
L 232.255625 371.470886 
L 244.091989 381.720583 
L 255.928352 384.53925 
L 267.764716 388.01225 
L 279.60108 392.431517 
L 291.437443 392.2025 
L 303.273807 376.829368 
L 315.11017 376.200694 
L 326.946534 382.202724 
L 338.782898 392.88955 
L 350.619261 389.97525 
L 362.455625 383.290068 
L 374.291989 381.046554 
L 386.128352 381.89675 
L 397.964716 384.03189 
L 409.80108 381.36825 
L 421.637443 378.275546 
L 433.473807 372.83675 
L 445.31017 375.427181 
L 457.146534 367.41585 
L 468.982898 357.330024 
L 480.819261 354.216562 
L 492.655625 368.331917 
" style="fill:none;stroke:#1764ab;stroke-linecap:square;stroke-width:1.5;"/>
   </g>
   <g id="line2d_45">
    <path clip-path="url(#pbff79c7176)" d="M 102.055625 420.47725 
L 113.891989 386.65325 
L 125.728352 399.33725 
L 137.564716 389.471917 
L 149.40108 373.44075 
L 161.237443 368.05005 
L 173.073807 371.85525 
L 184.91017 368.53325 
L 196.746534 373.96925 
L 208.582898 371.150583 
L 220.419261 366.14745 
L 232.255625 375.506705 
L 244.091989 384.186917 
L 255.928352 393.645712 
L 267.764716 381.21725 
L 279.60108 387.780717 
L 291.437443 391.806125 
L 303.273807 387.896779 
L 315.11017 389.941694 
L 326.946534 378.531039 
L 338.782898 388.97865 
L 350.619261 384.84125 
L 362.455625 380.983886 
L 374.291989 379.667859 
L 386.128352 377.756833 
L 397.964716 376.16781 
L 409.80108 378.522481 
L 421.637443 381.015917 
L 433.473807 379.40525 
L 445.31017 379.144905 
L 457.146534 374.039717 
L 468.982898 352.215508 
L 480.819261 348.667312 
L 492.655625 354.558886 
" style="fill:none;stroke:#1764ab;stroke-linecap:square;stroke-width:1.5;"/>
   </g>
   <g id="line2d_46">
    <path clip-path="url(#pbff79c7176)" d="M 102.055625 433.16125 
L 113.891989 412.02125 
L 125.728352 408.85025 
L 137.564716 399.33725 
L 149.40108 418.89175 
L 161.237443 405.25645 
L 173.073807 407.088583 
L 184.91017 402.05525 
L 196.746534 395.3735 
L 208.582898 391.351028 
L 220.419261 396.58905 
L 232.255625 387.421977 
L 244.091989 377.316417 
L 255.928352 382.262635 
L 267.764716 384.69025 
L 279.60108 388.203517 
L 291.437443 381.36825 
L 303.273807 373.844897 
L 315.11017 377.844917 
L 326.946534 372.856618 
L 338.782898 371.43245 
L 350.619261 375.881917 
L 362.455625 368.011614 
L 374.291989 375.899424 
L 386.128352 385.772417 
L 397.964716 387.83709 
L 409.80108 389.82425 
L 421.637443 387.827694 
L 433.473807 381.59475 
L 445.31017 368.502009 
L 457.146534 368.190983 
L 468.982898 352.420089 
L 480.819261 357.387562 
L 492.655625 371.406826 
" style="fill:none;stroke:#1764ab;stroke-linecap:square;stroke-width:1.5;"/>
   </g>
   <g id="line2d_47">
    <path clip-path="url(#pbff79c7176)" d="M 102.055625 420.47725 
L 113.891989 348.60125 
L 125.728352 381.36825 
L 137.564716 383.834583 
L 149.40108 356.00025 
L 161.237443 387.92165 
L 173.073807 394.756917 
L 184.91017 399.33725 
L 196.746534 395.3735 
L 208.582898 390.176583 
L 220.419261 384.53925 
L 232.255625 369.549068 
L 244.091989 370.093583 
L 255.928352 369.416019 
L 267.764716 384.38825 
L 279.60108 388.062583 
L 291.437443 389.56 
L 303.273807 394.363132 
L 315.11017 388.414917 
L 326.946534 391.215039 
L 338.782898 395.53205 
L 350.619261 399.538583 
L 362.455625 396.550614 
L 374.291989 398.969598 
L 386.128352 389.82425 
L 397.964716 384.53925 
L 409.80108 386.084096 
L 421.637443 386.418361 
L 433.473807 388.38975 
L 445.31017 379.436491 
L 457.146534 379.536117 
L 468.982898 359.716798 
L 480.819261 346.7515 
L 492.655625 356.544765 
" style="fill:none;stroke:#1764ab;stroke-linecap:square;stroke-width:1.5;"/>
   </g>
   <g id="line2d_48">
    <path clip-path="url(#pbff79c7176)" d="M 102.055625 433.16125 
L 113.891989 386.65325 
L 125.728352 353.88625 
L 137.564716 369.74125 
L 149.40108 403.56525 
L 161.237443 395.95485 
L 173.073807 395.461583 
L 184.91017 389.37125 
L 196.746534 378.4615 
L 208.582898 389.706806 
L 220.419261 388.76725 
L 232.255625 384.154886 
L 244.091989 386.829417 
L 255.928352 386.165404 
L 267.764716 379.85825 
L 279.60108 385.948583 
L 291.437443 378.329375 
L 303.273807 394.611838 
L 315.11017 390.411472 
L 326.946534 389.212303 
L 338.782898 381.47395 
L 350.619261 376.38525 
L 362.455625 370.79825 
L 374.291989 368.454467 
L 386.128352 368.596167 
L 397.964716 379.88845 
L 409.80108 380.717788 
L 421.637443 387.123028 
L 433.473807 376.46075 
L 445.31017 379.582284 
L 457.146534 372.348517 
L 468.982898 362.035379 
L 480.819261 344.241125 
L 492.655625 353.405795 
" style="fill:none;stroke:#1764ab;stroke-linecap:square;stroke-width:1.5;"/>
   </g>
   <g id="line2d_49">
    <path clip-path="url(#pbff79c7176)" d="M 102.055625 433.16125 
L 113.891989 405.67925 
L 125.728352 350.71525 
L 137.564716 397.927917 
L 149.40108 412.54975 
L 161.237443 418.78605 
L 173.073807 404.62225 
L 184.91017 392.99525 
L 196.746534 378.72575 
L 208.582898 382.190361 
L 220.419261 381.57965 
L 232.255625 396.070159 
L 244.091989 398.984917 
L 255.928352 387.466327 
L 267.764716 375.17725 
L 279.60108 380.31125 
L 291.437443 391.93825 
L 303.273807 383.917485 
L 315.11017 390.059139 
L 326.946534 379.532408 
L 338.782898 381.26255 
L 350.619261 381.619917 
L 362.455625 375.410614 
L 374.291989 375.16412 
L 386.128352 376.435583 
L 397.964716 368.13461 
L 409.80108 373.806635 
L 421.637443 368.097028 
L 433.473807 373.13875 
L 445.31017 375.645871 
L 457.146534 371.291517 
L 468.982898 363.262863 
L 480.819261 361.351312 
L 492.655625 378.389432 
" style="fill:none;stroke:#1764ab;stroke-linecap:square;stroke-width:1.5;"/>
   </g>
   <g id="line2d_50">
    <path clip-path="url(#pbff79c7176)" d="M 102.055625 433.16125 
L 113.891989 428.93325 
L 125.728352 427.87625 
L 137.564716 419.772583 
L 149.40108 407.79325 
L 161.237443 394.68645 
L 173.073807 373.96925 
L 184.91017 370.64725 
L 196.746534 381.89675 
L 208.582898 376.318139 
L 220.419261 363.39925 
L 232.255625 379.926886 
L 244.091989 375.378583 
L 255.928352 368.115096 
L 267.764716 371.85525 
L 279.60108 378.338183 
L 291.437443 382.293125 
L 303.273807 376.456309 
L 315.11017 390.176583 
L 326.946534 388.544724 
L 338.782898 383.37655 
L 350.619261 383.834583 
L 362.455625 384.250977 
L 374.291989 377.553859 
L 386.128352 375.2905 
L 397.964716 381.07229 
L 409.80108 376.08325 
L 421.637443 375.535176 
L 433.473807 378.49925 
L 445.31017 379.873871 
L 457.146534 370.16405 
L 468.982898 368.445573 
L 480.819261 360.558562 
L 492.655625 371.406826 
" style="fill:none;stroke:#1764ab;stroke-linecap:square;stroke-width:1.5;"/>
   </g>
   <g id="line2d_51">
    <path clip-path="url(#pbff79c7176)" d="M 102.055625 369.74125 
L 113.891989 422.59125 
L 125.728352 397.22325 
L 137.564716 384.53925 
L 149.40108 395.10925 
L 161.237443 398.06885 
L 173.073807 394.756917 
L 184.91017 378.49925 
L 196.746534 388.503 
L 208.582898 380.31125 
L 220.419261 391.72685 
L 232.255625 399.721614 
L 244.091989 398.984917 
L 255.928352 390.393404 
L 267.764716 384.38825 
L 279.60108 374.955783 
L 291.437443 380.179125 
L 303.273807 371.606544 
L 315.11017 376.435583 
L 326.946534 379.309882 
L 338.782898 383.05945 
L 350.619261 374.170583 
L 362.455625 384.250977 
L 374.291989 367.994902 
L 386.128352 371.0625 
L 397.964716 388.59813 
L 409.80108 385.189712 
L 421.637443 372.403324 
L 433.473807 368.38225 
L 445.31017 374.18794 
L 457.146534 368.825183 
L 468.982898 355.693379 
L 480.819261 365.645375 
L 492.655625 389.407856 
" style="fill:none;stroke:#1764ab;stroke-linecap:square;stroke-width:1.5;"/>
   </g>
   <g id="line2d_52">
    <path clip-path="url(#pbff79c7176)" d="M 102.055625 357.05725 
L 113.891989 382.42525 
L 125.728352 372.91225 
L 137.564716 384.53925 
L 149.40108 376.08325 
L 161.237443 376.50605 
L 173.073807 378.901917 
L 184.91017 385.74725 
L 196.746534 386.12475 
L 208.582898 385.478806 
L 220.419261 370.79825 
L 232.255625 378.965977 
L 244.091989 381.720583 
L 255.928352 378.847712 
L 267.764716 372.91225 
L 279.60108 375.378583 
L 291.437443 369.873375 
L 303.273807 367.254191 
L 315.11017 375.496028 
L 326.946534 372.634092 
L 338.782898 383.90505 
L 350.619261 391.283917 
L 362.455625 391.553886 
L 374.291989 389.96212 
L 386.128352 378.109167 
L 397.964716 375.57589 
L 409.80108 379.986019 
L 421.637443 379.215102 
L 433.473807 380.08475 
L 445.31017 381.186009 
L 457.146534 379.817983 
L 468.982898 371.514282 
L 480.819261 366.438125 
L 492.655625 371.663068 
" style="fill:none;stroke:#1764ab;stroke-linecap:square;stroke-width:1.5;"/>
   </g>
   <g id="line2d_53">
    <path clip-path="url(#pbff79c7176)" d="M 102.055625 433.16125 
L 113.891989 401.45125 
L 125.728352 379.25425 
L 137.564716 372.559917 
L 149.40108 352.82925 
L 161.237443 367.62725 
L 173.073807 376.787917 
L 184.91017 383.63325 
L 196.746534 384.8035 
L 208.582898 390.88125 
L 220.419261 393.84085 
L 232.255625 397.991977 
L 244.091989 396.518583 
L 255.928352 392.019558 
L 267.764716 384.99225 
L 279.60108 385.243917 
L 291.437443 375.158375 
L 303.273807 380.684309 
L 315.11017 389.471917 
L 326.946534 393.662829 
L 338.782898 395.21495 
L 350.619261 390.57925 
L 362.455625 383.48225 
L 374.291989 376.726641 
L 386.128352 384.275 
L 397.964716 368.05005 
L 409.80108 369.74125 
L 421.637443 372.090139 
L 433.473807 376.91375 
L 445.31017 371.417871 
L 457.146534 368.613783 
L 468.982898 362.853702 
L 480.819261 368.816375 
L 492.655625 372.367735 
" style="fill:none;stroke:#1764ab;stroke-linecap:square;stroke-width:1.5;"/>
   </g>
   <g id="line2d_54">
    <path clip-path="url(#pbff79c7176)" d="M 102.055625 357.05725 
L 113.891989 426.81925 
L 125.728352 406.73625 
L 137.564716 423.295917 
L 149.40108 417.83475 
L 161.237443 416.24925 
L 173.073807 414.13525 
L 184.91017 403.86725 
L 196.746534 401.7155 
L 208.582898 392.760361 
L 220.419261 396.80045 
L 232.255625 405.871432 
L 244.091989 408.497917 
L 255.928352 409.744635 
L 267.764716 413.22925 
L 279.60108 413.007783 
L 291.437443 410.7 
L 303.273807 403.316544 
L 315.11017 393.582472 
L 326.946534 400.116092 
L 338.782898 403.03675 
L 350.619261 401.551917 
L 362.455625 395.301432 
L 374.291989 397.958554 
L 386.128352 399.777667 
L 397.964716 405.51013 
L 409.80108 404.540942 
L 421.637443 399.180657 
L 433.473807 393.29725 
L 445.31017 401.961526 
L 457.146534 398.773517 
L 468.982898 394.15454 
L 480.819261 399.6015 
L 492.655625 410.099432 
" style="fill:none;stroke:#94c4df;stroke-linecap:square;stroke-width:1.5;"/>
   </g>
   <g id="line2d_55">
    <path clip-path="url(#pbff79c7176)" d="M 102.055625 433.16125 
L 113.891989 424.70525 
L 125.728352 421.53425 
L 137.564716 411.316583 
L 149.40108 410.43575 
L 161.237443 412.02125 
L 173.073807 406.383917 
L 184.91017 397.22325 
L 196.746534 400.39425 
L 208.582898 400.511694 
L 220.419261 401.45125 
L 232.255625 401.643432 
L 244.091989 408.32175 
L 255.928352 416.24925 
L 267.764716 415.04125 
L 279.60108 411.316583 
L 291.437443 410.43575 
L 303.273807 406.798426 
L 315.11017 402.273361 
L 326.946534 404.455355 
L 338.782898 404.30515 
L 350.619261 401.45125 
L 362.455625 405.390977 
L 374.291989 402.462293 
L 386.128352 408.497917 
L 397.964716 401.95861 
L 409.80108 407.630635 
L 421.637443 407.010287 
L 433.473807 400.77175 
L 445.31017 403.856836 
L 457.146534 395.179717 
L 468.982898 392.99525 
L 480.819261 397.157187 
L 492.655625 404.526159 
" style="fill:none;stroke:#94c4df;stroke-linecap:square;stroke-width:1.5;"/>
   </g>
   <g id="line2d_56">
    <path clip-path="url(#pbff79c7176)" d="M 102.055625 420.47725 
L 113.891989 382.42525 
L 125.728352 406.73625 
L 137.564716 407.79325 
L 149.40108 422.59125 
L 161.237443 426.39645 
L 173.073807 417.658583 
L 184.91017 417.45725 
L 196.746534 414.13525 
L 208.582898 407.088583 
L 220.419261 401.23985 
L 232.255625 392.418705 
L 244.091989 383.306083 
L 255.928352 390.230788 
L 267.764716 385.74725 
L 279.60108 399.055383 
L 291.437443 396.4305 
L 303.273807 393.741368 
L 315.11017 393.230139 
L 326.946534 391.548829 
L 338.782898 389.61285 
L 350.619261 396.31725 
L 362.455625 387.806341 
L 374.291989 398.234293 
L 386.128352 399.513417 
L 397.964716 405.00277 
L 409.80108 407.874558 
L 421.637443 406.383917 
L 433.473807 402.81025 
L 445.31017 395.182147 
L 457.146534 393.558983 
L 468.982898 382.629831 
L 480.819261 387.247812 
L 492.655625 407.985432 
" style="fill:none;stroke:#94c4df;stroke-linecap:square;stroke-width:1.5;"/>
   </g>
   <g id="line2d_57">
    <path clip-path="url(#pbff79c7176)" d="M 102.055625 433.16125 
L 113.891989 407.79325 
L 125.728352 419.42025 
L 137.564716 413.430583 
L 149.40108 410.43575 
L 161.237443 406.10205 
L 173.073807 411.316583 
L 184.91017 403.86725 
L 196.746534 411.757 
L 208.582898 412.725917 
L 220.419261 411.38705 
L 232.255625 405.67925 
L 244.091989 397.399417 
L 255.928352 403.077404 
L 267.764716 408.39725 
L 279.60108 402.860583 
L 291.437443 399.073 
L 303.273807 400.332074 
L 315.11017 402.155917 
L 326.946534 408.794618 
L 338.782898 407.26475 
L 350.619261 408.09525 
L 362.455625 404.237886 
L 374.291989 399.33725 
L 386.128352 396.16625 
L 397.964716 402.21229 
L 409.80108 401.207327 
L 421.637443 404.504806 
L 433.473807 404.09375 
L 445.31017 403.638147 
L 457.146534 400.39425 
L 468.982898 394.495508 
L 480.819261 391.93825 
L 492.655625 405.038644 
" style="fill:none;stroke:#94c4df;stroke-linecap:square;stroke-width:1.5;"/>
   </g>
   <g id="line2d_58">
    <path clip-path="url(#pbff79c7176)" d="M 102.055625 433.16125 
L 113.891989 422.59125 
L 125.728352 403.56525 
L 137.564716 407.79325 
L 149.40108 415.72075 
L 161.237443 410.33005 
L 173.073807 412.02125 
L 184.91017 410.51125 
L 196.746534 399.073 
L 208.582898 397.22325 
L 220.419261 394.26365 
L 232.255625 397.607614 
L 244.091989 402.155917 
L 255.928352 395.434481 
L 267.764716 411.26625 
L 279.60108 405.961117 
L 291.437443 407.661125 
L 303.273807 407.79325 
L 315.11017 409.320028 
L 326.946534 403.453987 
L 338.782898 399.12585 
L 350.619261 398.43125 
L 362.455625 394.532705 
L 374.291989 395.476902 
L 386.128352 392.026333 
L 397.964716 398.74533 
L 409.80108 399.33725 
L 421.637443 402.469102 
L 433.473807 399.41275 
L 445.31017 403.200767 
L 457.146534 395.179717 
L 468.982898 387.130605 
L 480.819261 387.313875 
L 492.655625 405.102705 
" style="fill:none;stroke:#94c4df;stroke-linecap:square;stroke-width:1.5;"/>
   </g>
   <g id="line2d_59">
    <path clip-path="url(#pbff79c7176)" d="M 102.055625 433.16125 
L 113.891989 422.59125 
L 125.728352 396.16625 
L 137.564716 412.725917 
L 149.40108 426.29075 
L 161.237443 420.90005 
L 173.073807 415.896917 
L 184.91017 404.77325 
L 196.746534 406.73625 
L 208.582898 417.893472 
L 220.419261 411.59845 
L 232.255625 413.366523 
L 244.091989 409.90725 
L 255.928352 408.931558 
L 267.764716 410.51125 
L 279.60108 406.94765 
L 291.437443 408.189625 
L 303.273807 405.057485 
L 315.11017 406.971139 
L 326.946534 406.013039 
L 338.782898 403.67095 
L 350.619261 403.665917 
L 362.455625 403.56525 
L 374.291989 400.164467 
L 386.128352 392.819083 
L 397.964716 391.64229 
L 409.80108 390.637327 
L 421.637443 389.550213 
L 433.473807 394.50525 
L 445.31017 395.32794 
L 457.146534 394.193183 
L 468.982898 395.586605 
L 480.819261 399.733625 
L 492.655625 408.754159 
" style="fill:none;stroke:#94c4df;stroke-linecap:square;stroke-width:1.5;"/>
   </g>
   <g id="line2d_60">
    <path clip-path="url(#pbff79c7176)" d="M 102.055625 433.16125 
L 113.891989 428.93325 
L 125.728352 423.64825 
L 137.564716 424.000583 
L 149.40108 410.96425 
L 161.237443 409.06165 
L 173.073807 394.404583 
L 184.91017 399.33725 
L 196.746534 408.32175 
L 208.582898 398.632583 
L 220.419261 403.56525 
L 232.255625 401.643432 
L 244.091989 404.62225 
L 255.928352 398.036327 
L 267.764716 396.16625 
L 279.60108 405.115517 
L 291.437443 403.301 
L 303.273807 402.694779 
L 315.11017 405.914139 
L 326.946534 404.010303 
L 338.782898 405.25645 
L 350.619261 403.967917 
L 362.455625 403.180886 
L 374.291989 393.454815 
L 386.128352 396.4305 
L 397.964716 398.91445 
L 409.80108 399.906404 
L 421.637443 399.180657 
L 433.473807 398.95975 
L 445.31017 406.699802 
L 457.146534 404.974583 
L 468.982898 401.792218 
L 480.819261 402.50825 
L 492.655625 408.88228 
" style="fill:none;stroke:#94c4df;stroke-linecap:square;stroke-width:1.5;"/>
   </g>
   <g id="line2d_61">
    <path clip-path="url(#pbff79c7176)" d="M 102.055625 433.16125 
L 113.891989 422.59125 
L 125.728352 419.42025 
L 137.564716 414.13525 
L 149.40108 418.89175 
L 161.237443 421.74565 
L 173.073807 416.601583 
L 184.91017 408.39725 
L 196.746534 389.82425 
L 208.582898 394.874361 
L 220.419261 397.22325 
L 232.255625 408.946341 
L 244.091989 409.554917 
L 255.928352 406.167096 
L 267.764716 404.16925 
L 279.60108 397.364183 
L 291.437443 398.412375 
L 303.273807 398.591132 
L 315.11017 398.045361 
L 326.946534 399.114724 
L 338.782898 396.48335 
L 350.619261 394.303917 
L 362.455625 392.322614 
L 374.291989 389.226815 
L 386.128352 399.161083 
L 397.964716 402.63509 
L 409.80108 398.361558 
L 421.637443 396.048806 
L 433.473807 392.08925 
L 445.31017 391.610216 
L 457.146534 387.005583 
L 468.982898 388.699056 
L 480.819261 394.845 
L 492.655625 412.469674 
" style="fill:none;stroke:#94c4df;stroke-linecap:square;stroke-width:1.5;"/>
   </g>
   <g id="line2d_62">
    <path clip-path="url(#pbff79c7176)" d="M 102.055625 369.74125 
L 113.891989 399.33725 
L 125.728352 396.16625 
L 137.564716 406.383917 
L 149.40108 403.56525 
L 161.237443 398.06885 
L 173.073807 411.668917 
L 184.91017 398.73325 
L 196.746534 402.244 
L 208.582898 402.390806 
L 220.419261 400.18285 
L 232.255625 405.871432 
L 244.091989 400.39425 
L 255.928352 399.987712 
L 267.764716 402.20625 
L 279.60108 402.014983 
L 291.437443 398.80875 
L 303.273807 402.073015 
L 315.11017 400.746583 
L 326.946534 393.774092 
L 338.782898 405.78495 
L 350.619261 408.39725 
L 362.455625 414.807886 
L 374.291989 408.620467 
L 386.128352 407.969417 
L 397.964716 404.49541 
L 409.80108 405.435327 
L 421.637443 405.522657 
L 433.473807 406.73625 
L 445.31017 404.512905 
L 457.146534 401.944517 
L 468.982898 400.223766 
L 480.819261 402.376125 
L 492.655625 412.02125 
" style="fill:none;stroke:#94c4df;stroke-linecap:square;stroke-width:1.5;"/>
   </g>
   <g id="line2d_63">
    <path clip-path="url(#pbff79c7176)" d="M 102.055625 433.16125 
L 113.891989 420.47725 
L 125.728352 400.39425 
L 137.564716 409.202583 
L 149.40108 392.46675 
L 161.237443 413.28965 
L 173.073807 409.90725 
L 184.91017 409.90725 
L 196.746534 413.3425 
L 208.582898 409.437472 
L 220.419261 404.83365 
L 232.255625 405.294886 
L 244.091989 401.803583 
L 255.928352 404.866173 
L 267.764716 407.64225 
L 279.60108 406.806717 
L 291.437443 402.376125 
L 303.273807 407.668897 
L 315.11017 408.028139 
L 326.946534 411.353671 
L 338.782898 414.66375 
L 350.619261 412.32325 
L 362.455625 407.216705 
L 374.291989 403.105685 
L 386.128352 397.135167 
L 397.964716 401.53581 
L 409.80108 393.239173 
L 421.637443 393.543324 
L 433.473807 397.29875 
L 445.31017 392.99525 
L 457.146534 390.176583 
L 468.982898 392.176927 
L 480.819261 392.99525 
L 492.655625 403.885553 
" style="fill:none;stroke:#94c4df;stroke-linecap:square;stroke-width:1.5;"/>
   </g>
   <g id="line2d_64">
    <path clip-path="url(#pbff79c7176)" d="M 102.055625 433.16125 
L 113.891989 433.16125 
L 125.728352 433.16125 
L 137.564716 433.16125 
L 149.40108 433.16125 
L 161.237443 433.16125 
L 173.073807 433.16125 
L 184.91017 433.16125 
L 196.746534 433.16125 
L 208.582898 433.16125 
L 220.419261 433.16125 
L 232.255625 433.16125 
L 244.091989 433.16125 
L 255.928352 433.16125 
L 267.764716 433.16125 
L 279.60108 433.16125 
L 291.437443 433.16125 
L 303.273807 433.16125 
L 315.11017 433.16125 
L 326.946534 433.16125 
L 338.782898 433.16125 
L 350.619261 433.16125 
L 362.455625 433.16125 
L 374.291989 433.16125 
L 386.128352 433.16125 
L 397.964716 433.16125 
L 409.80108 433.16125 
L 421.637443 433.16125 
L 433.473807 433.16125 
L 445.31017 433.16125 
L 457.146534 433.16125 
L 468.982898 433.16125 
L 480.819261 433.16125 
L 492.655625 433.16125 
" style="fill:none;stroke:#000000;stroke-linecap:square;stroke-width:1.5;"/>
   </g>
   <g id="line2d_65">
    <path clip-path="url(#pbff79c7176)" d="M 102.055625 433.16125 
L 113.891989 433.16125 
L 125.728352 433.16125 
L 137.564716 433.16125 
L 149.40108 433.16125 
L 161.237443 433.16125 
L 173.073807 433.16125 
L 184.91017 433.16125 
L 196.746534 433.16125 
L 208.582898 433.16125 
L 220.419261 433.16125 
L 232.255625 433.16125 
L 244.091989 433.16125 
L 255.928352 433.16125 
L 267.764716 433.16125 
L 279.60108 433.16125 
L 291.437443 433.16125 
L 303.273807 433.16125 
L 315.11017 433.16125 
L 326.946534 433.16125 
L 338.782898 433.16125 
L 350.619261 433.16125 
L 362.455625 433.16125 
L 374.291989 433.16125 
L 386.128352 433.16125 
L 397.964716 433.16125 
L 409.80108 433.16125 
L 421.637443 433.16125 
L 433.473807 433.16125 
L 445.31017 433.16125 
L 457.146534 433.16125 
L 468.982898 433.16125 
L 480.819261 433.16125 
L 492.655625 433.16125 
" style="fill:none;stroke:#000000;stroke-linecap:square;stroke-width:1.5;"/>
   </g>
   <g id="line2d_66">
    <path clip-path="url(#pbff79c7176)" d="M 102.055625 433.16125 
L 113.891989 433.16125 
L 125.728352 433.16125 
L 137.564716 433.16125 
L 149.40108 433.16125 
L 161.237443 433.16125 
L 173.073807 433.16125 
L 184.91017 433.16125 
L 196.746534 433.16125 
L 208.582898 433.16125 
L 220.419261 433.16125 
L 232.255625 433.16125 
L 244.091989 433.16125 
L 255.928352 433.16125 
L 267.764716 433.16125 
L 279.60108 433.16125 
L 291.437443 433.16125 
L 303.273807 433.16125 
L 315.11017 433.16125 
L 326.946534 433.16125 
L 338.782898 433.16125 
L 350.619261 433.16125 
L 362.455625 433.16125 
L 374.291989 433.16125 
L 386.128352 433.16125 
L 397.964716 433.16125 
L 409.80108 433.16125 
L 421.637443 433.16125 
L 433.473807 433.16125 
L 445.31017 433.16125 
L 457.146534 433.16125 
L 468.982898 433.16125 
L 480.819261 433.16125 
L 492.655625 433.16125 
" style="fill:none;stroke:#000000;stroke-linecap:square;stroke-width:1.5;"/>
   </g>
   <g id="line2d_67">
    <path clip-path="url(#pbff79c7176)" d="M 102.055625 433.16125 
L 113.891989 433.16125 
L 125.728352 433.16125 
L 137.564716 433.16125 
L 149.40108 433.16125 
L 161.237443 433.16125 
L 173.073807 433.16125 
L 184.91017 433.16125 
L 196.746534 433.16125 
L 208.582898 433.16125 
L 220.419261 433.16125 
L 232.255625 433.16125 
L 244.091989 433.16125 
L 255.928352 433.16125 
L 267.764716 433.16125 
L 279.60108 433.16125 
L 291.437443 433.16125 
L 303.273807 433.16125 
L 315.11017 433.16125 
L 326.946534 433.16125 
L 338.782898 433.16125 
L 350.619261 433.16125 
L 362.455625 433.16125 
L 374.291989 433.16125 
L 386.128352 433.16125 
L 397.964716 433.16125 
L 409.80108 433.16125 
L 421.637443 433.16125 
L 433.473807 433.16125 
L 445.31017 433.16125 
L 457.146534 433.16125 
L 468.982898 433.16125 
L 480.819261 433.16125 
L 492.655625 433.16125 
" style="fill:none;stroke:#000000;stroke-linecap:square;stroke-width:1.5;"/>
   </g>
   <g id="line2d_68">
    <path clip-path="url(#pbff79c7176)" d="M 102.055625 433.16125 
L 113.891989 433.16125 
L 125.728352 433.16125 
L 137.564716 433.16125 
L 149.40108 433.16125 
L 161.237443 433.16125 
L 173.073807 433.16125 
L 184.91017 433.16125 
L 196.746534 433.16125 
L 208.582898 433.16125 
L 220.419261 433.16125 
L 232.255625 433.16125 
L 244.091989 433.16125 
L 255.928352 433.16125 
L 267.764716 433.16125 
L 279.60108 433.16125 
L 291.437443 433.16125 
L 303.273807 433.16125 
L 315.11017 433.16125 
L 326.946534 433.16125 
L 338.782898 433.16125 
L 350.619261 433.16125 
L 362.455625 433.16125 
L 374.291989 433.16125 
L 386.128352 433.16125 
L 397.964716 433.16125 
L 409.80108 433.16125 
L 421.637443 433.16125 
L 433.473807 433.16125 
L 445.31017 433.16125 
L 457.146534 433.16125 
L 468.982898 433.16125 
L 480.819261 433.16125 
L 492.655625 433.16125 
" style="fill:none;stroke:#000000;stroke-linecap:square;stroke-width:1.5;"/>
   </g>
   <g id="line2d_69">
    <path clip-path="url(#pbff79c7176)" d="M 102.055625 433.16125 
L 113.891989 433.16125 
L 125.728352 433.16125 
L 137.564716 433.16125 
L 149.40108 433.16125 
L 161.237443 433.16125 
L 173.073807 433.16125 
L 184.91017 433.16125 
L 196.746534 433.16125 
L 208.582898 433.16125 
L 220.419261 433.16125 
L 232.255625 433.16125 
L 244.091989 433.16125 
L 255.928352 433.16125 
L 267.764716 433.16125 
L 279.60108 433.16125 
L 291.437443 433.16125 
L 303.273807 433.16125 
L 315.11017 433.16125 
L 326.946534 433.16125 
L 338.782898 433.16125 
L 350.619261 433.16125 
L 362.455625 433.16125 
L 374.291989 433.16125 
L 386.128352 433.16125 
L 397.964716 433.16125 
L 409.80108 433.16125 
L 421.637443 433.16125 
L 433.473807 433.16125 
L 445.31017 433.16125 
L 457.146534 433.16125 
L 468.982898 433.16125 
L 480.819261 433.16125 
L 492.655625 433.16125 
" style="fill:none;stroke:#000000;stroke-linecap:square;stroke-width:1.5;"/>
   </g>
   <g id="line2d_70">
    <path clip-path="url(#pbff79c7176)" d="M 102.055625 433.16125 
L 113.891989 433.16125 
L 125.728352 433.16125 
L 137.564716 433.16125 
L 149.40108 433.16125 
L 161.237443 433.16125 
L 173.073807 433.16125 
L 184.91017 433.16125 
L 196.746534 433.16125 
L 208.582898 433.16125 
L 220.419261 433.16125 
L 232.255625 433.16125 
L 244.091989 433.16125 
L 255.928352 433.16125 
L 267.764716 433.16125 
L 279.60108 433.16125 
L 291.437443 433.16125 
L 303.273807 433.16125 
L 315.11017 433.16125 
L 326.946534 433.16125 
L 338.782898 433.16125 
L 350.619261 433.16125 
L 362.455625 433.16125 
L 374.291989 433.16125 
L 386.128352 433.16125 
L 397.964716 433.16125 
L 409.80108 433.16125 
L 421.637443 433.16125 
L 433.473807 433.16125 
L 445.31017 433.16125 
L 457.146534 433.16125 
L 468.982898 433.16125 
L 480.819261 433.16125 
L 492.655625 433.16125 
" style="fill:none;stroke:#000000;stroke-linecap:square;stroke-width:1.5;"/>
   </g>
   <g id="line2d_71">
    <path clip-path="url(#pbff79c7176)" d="M 102.055625 433.16125 
L 113.891989 433.16125 
L 125.728352 433.16125 
L 137.564716 433.16125 
L 149.40108 433.16125 
L 161.237443 433.16125 
L 173.073807 433.16125 
L 184.91017 433.16125 
L 196.746534 433.16125 
L 208.582898 433.16125 
L 220.419261 433.16125 
L 232.255625 433.16125 
L 244.091989 433.16125 
L 255.928352 433.16125 
L 267.764716 433.16125 
L 279.60108 433.16125 
L 291.437443 433.16125 
L 303.273807 433.16125 
L 315.11017 433.16125 
L 326.946534 433.16125 
L 338.782898 433.16125 
L 350.619261 433.16125 
L 362.455625 433.16125 
L 374.291989 433.16125 
L 386.128352 433.16125 
L 397.964716 433.16125 
L 409.80108 433.16125 
L 421.637443 433.16125 
L 433.473807 433.16125 
L 445.31017 433.16125 
L 457.146534 433.16125 
L 468.982898 433.16125 
L 480.819261 433.16125 
L 492.655625 433.16125 
" style="fill:none;stroke:#000000;stroke-linecap:square;stroke-width:1.5;"/>
   </g>
   <g id="line2d_72">
    <path clip-path="url(#pbff79c7176)" d="M 102.055625 433.16125 
L 113.891989 433.16125 
L 125.728352 433.16125 
L 137.564716 433.16125 
L 149.40108 433.16125 
L 161.237443 433.16125 
L 173.073807 433.16125 
L 184.91017 433.16125 
L 196.746534 433.16125 
L 208.582898 433.16125 
L 220.419261 433.16125 
L 232.255625 433.16125 
L 244.091989 433.16125 
L 255.928352 433.16125 
L 267.764716 433.16125 
L 279.60108 433.16125 
L 291.437443 433.16125 
L 303.273807 433.16125 
L 315.11017 433.16125 
L 326.946534 433.16125 
L 338.782898 433.16125 
L 350.619261 433.16125 
L 362.455625 433.16125 
L 374.291989 433.16125 
L 386.128352 433.16125 
L 397.964716 433.16125 
L 409.80108 433.16125 
L 421.637443 433.16125 
L 433.473807 433.16125 
L 445.31017 433.16125 
L 457.146534 433.16125 
L 468.982898 433.16125 
L 480.819261 433.16125 
L 492.655625 433.16125 
" style="fill:none;stroke:#000000;stroke-linecap:square;stroke-width:1.5;"/>
   </g>
   <g id="line2d_73">
    <path clip-path="url(#pbff79c7176)" d="M 102.055625 433.16125 
L 113.891989 433.16125 
L 125.728352 433.16125 
L 137.564716 433.16125 
L 149.40108 433.16125 
L 161.237443 433.16125 
L 173.073807 433.16125 
L 184.91017 433.16125 
L 196.746534 433.16125 
L 208.582898 433.16125 
L 220.419261 433.16125 
L 232.255625 433.16125 
L 244.091989 433.16125 
L 255.928352 433.16125 
L 267.764716 433.16125 
L 279.60108 433.16125 
L 291.437443 433.16125 
L 303.273807 433.16125 
L 315.11017 433.16125 
L 326.946534 433.16125 
L 338.782898 433.16125 
L 350.619261 433.16125 
L 362.455625 433.16125 
L 374.291989 433.16125 
L 386.128352 433.16125 
L 397.964716 433.16125 
L 409.80108 433.16125 
L 421.637443 433.16125 
L 433.473807 433.16125 
L 445.31017 433.16125 
L 457.146534 433.16125 
L 468.982898 433.16125 
L 480.819261 433.16125 
L 492.655625 433.16125 
" style="fill:none;stroke:#000000;stroke-linecap:square;stroke-width:1.5;"/>
   </g>
   <g id="line2d_74">
    <path clip-path="url(#pbff79c7176)" d="M 90.219261 433.16125 
" style="fill:none;stroke:#000000;stroke-linecap:square;stroke-width:1.5;"/>
   </g>
   <g id="line2d_75">
    <path clip-path="url(#pbff79c7176)" d="M 90.219261 433.16125 
" style="fill:none;stroke:#d0e1f2;stroke-linecap:square;stroke-width:1.5;"/>
   </g>
   <g id="line2d_76">
    <path clip-path="url(#pbff79c7176)" d="M 90.219261 433.16125 
" style="fill:none;stroke:#94c4df;stroke-linecap:square;stroke-width:1.5;"/>
   </g>
   <g id="line2d_77">
    <path clip-path="url(#pbff79c7176)" d="M 90.219261 433.16125 
" style="fill:none;stroke:#4a98c9;stroke-linecap:square;stroke-width:1.5;"/>
   </g>
   <g id="line2d_78">
    <path clip-path="url(#pbff79c7176)" d="M 90.219261 433.16125 
" style="fill:none;stroke:#1764ab;stroke-linecap:square;stroke-width:1.5;"/>
   </g>
   <g id="line2d_79">
    <path clip-path="url(#pbff79c7176)" d="M 90.219261 433.16125 
" style="fill:none;stroke:#08306b;stroke-linecap:square;stroke-width:1.5;"/>
   </g>
   <g id="line2d_80">
    <path clip-path="url(#pbff79c7176)" d="M 90.219261 433.16125 
" style="fill:none;stroke:#000000;stroke-linecap:square;stroke-width:1.5;"/>
   </g>
   <g id="line2d_81">
    <path clip-path="url(#pbff79c7176)" d="M 90.219261 433.16125 
" style="fill:none;stroke:#000000;stroke-dasharray:1.5,2.475;stroke-dashoffset:0;stroke-width:1.5;"/>
   </g>
   <g id="line2d_82">
    <path clip-path="url(#pbff79c7176)" d="M 90.219261 433.16125 
" style="fill:none;stroke:#000000;stroke-linecap:square;stroke-width:1.5;"/>
   </g>
   <g id="line2d_83">
    <path clip-path="url(#pbff79c7176)" d="M 90.219261 433.16125 
" style="fill:none;stroke:#000000;stroke-dasharray:5.55,2.4;stroke-dashoffset:0;stroke-width:1.5;"/>
   </g>
   <g id="line2d_84">
    <path clip-path="url(#pbff79c7176)" d="M 90.219261 433.16125 
" style="fill:none;stroke:#000000;stroke-dasharray:9.6,2.4,1.5,2.4;stroke-dashoffset:0;stroke-width:1.5;"/>
   </g>
   <g id="line2d_85">
    <path clip-path="url(#pbff79c7176)" d="M 90.219261 433.16125 
" style="fill:none;stroke:#000000;stroke-dasharray:9.6,2.4,1.5,2.4;stroke-dashoffset:0;stroke-width:1.5;"/>
   </g>
   <g id="patch_3">
    <path d="M 102.055625 433.16125 
L 102.055625 52.64125 
" style="fill:none;stroke:#000000;stroke-linecap:square;stroke-linejoin:miter;stroke-width:0.8;"/>
   </g>
   <g id="patch_4">
    <path d="M 492.655625 433.16125 
L 492.655625 52.64125 
" style="fill:none;stroke:#000000;stroke-linecap:square;stroke-linejoin:miter;stroke-width:0.8;"/>
   </g>
   <g id="patch_5">
    <path d="M 102.055625 433.16125 
L 492.655625 433.16125 
" style="fill:none;stroke:#000000;stroke-linecap:square;stroke-linejoin:miter;stroke-width:0.8;"/>
   </g>
   <g id="patch_6">
    <path d="M 102.055625 52.64125 
L 492.655625 52.64125 
" style="fill:none;stroke:#000000;stroke-linecap:square;stroke-linejoin:miter;stroke-width:0.8;"/>
   </g>
   <g id="text_16">
    <!-- CD4 NORMALIZED COUNT -->
    <g transform="translate(169.58375 21.515625)scale(0.2 -0.2)">
     <use xlink:href="#Arial-BoldMT-67"/>
     <use x="72.216797" xlink:href="#Arial-BoldMT-68"/>
     <use x="144.433594" xlink:href="#Arial-BoldMT-52"/>
     <use x="200.048828" xlink:href="#Arial-BoldMT-32"/>
     <use x="227.832031" xlink:href="#Arial-BoldMT-78"/>
     <use x="300.048828" xlink:href="#Arial-BoldMT-79"/>
     <use x="377.832031" xlink:href="#Arial-BoldMT-82"/>
     <use x="450.048828" xlink:href="#Arial-BoldMT-77"/>
     <use x="533.349609" xlink:href="#Arial-BoldMT-65"/>
     <use x="605.566406" xlink:href="#Arial-BoldMT-76"/>
     <use x="666.650391" xlink:href="#Arial-BoldMT-73"/>
     <use x="694.433594" xlink:href="#Arial-BoldMT-90"/>
     <use x="755.517578" xlink:href="#Arial-BoldMT-69"/>
     <use x="822.216797" xlink:href="#Arial-BoldMT-68"/>
     <use x="894.433594" xlink:href="#Arial-BoldMT-32"/>
     <use x="922.216797" xlink:href="#Arial-BoldMT-67"/>
     <use x="994.433594" xlink:href="#Arial-BoldMT-79"/>
     <use x="1072.216797" xlink:href="#Arial-BoldMT-85"/>
     <use x="1144.433594" xlink:href="#Arial-BoldMT-78"/>
     <use x="1216.650391" xlink:href="#Arial-BoldMT-84"/>
    </g>
    <!-- ACROSS RADIUS AT TIME 4 -->
    <g transform="translate(162.361875 42.64125)scale(0.2 -0.2)">
     <use xlink:href="#Arial-BoldMT-65"/>
     <use x="72.216797" xlink:href="#Arial-BoldMT-67"/>
     <use x="144.433594" xlink:href="#Arial-BoldMT-82"/>
     <use x="216.650391" xlink:href="#Arial-BoldMT-79"/>
     <use x="294.433594" xlink:href="#Arial-BoldMT-83"/>
     <use x="361.132812" xlink:href="#Arial-BoldMT-83"/>
     <use x="427.832031" xlink:href="#Arial-BoldMT-32"/>
     <use x="455.615234" xlink:href="#Arial-BoldMT-82"/>
     <use x="527.832031" xlink:href="#Arial-BoldMT-65"/>
     <use x="600.048828" xlink:href="#Arial-BoldMT-68"/>
     <use x="672.265625" xlink:href="#Arial-BoldMT-73"/>
     <use x="700.048828" xlink:href="#Arial-BoldMT-85"/>
     <use x="772.265625" xlink:href="#Arial-BoldMT-83"/>
     <use x="838.964844" xlink:href="#Arial-BoldMT-32"/>
     <use x="866.701172" xlink:href="#Arial-BoldMT-65"/>
     <use x="938.808594" xlink:href="#Arial-BoldMT-84"/>
     <use x="999.892578" xlink:href="#Arial-BoldMT-32"/>
     <use x="1027.675781" xlink:href="#Arial-BoldMT-84"/>
     <use x="1088.759766" xlink:href="#Arial-BoldMT-73"/>
     <use x="1116.542969" xlink:href="#Arial-BoldMT-77"/>
     <use x="1199.84375" xlink:href="#Arial-BoldMT-69"/>
     <use x="1266.542969" xlink:href="#Arial-BoldMT-32"/>
     <use x="1294.326172" xlink:href="#Arial-BoldMT-52"/>
    </g>
   </g>
   <g id="legend_1">
    <g id="line2d_86">
     <path d="M 423.843125 65.739687 
L 443.843125 65.739687 
" style="fill:none;stroke:#000000;stroke-linecap:square;stroke-width:1.5;"/>
    </g>
    <g id="line2d_87"/>
    <g id="text_17">
     <!-- 0 -->
     <g transform="translate(451.843125 69.239687)scale(0.1 -0.1)">
      <use xlink:href="#DejaVuSans-48"/>
     </g>
    </g>
    <g id="line2d_88">
     <path d="M 423.843125 80.417812 
L 443.843125 80.417812 
" style="fill:none;stroke:#d0e1f2;stroke-linecap:square;stroke-width:1.5;"/>
    </g>
    <g id="line2d_89"/>
    <g id="text_18">
     <!-- 100 -->
     <g transform="translate(451.843125 83.917812)scale(0.1 -0.1)">
      <use xlink:href="#DejaVuSans-49"/>
      <use x="63.623047" xlink:href="#DejaVuSans-48"/>
      <use x="127.246094" xlink:href="#DejaVuSans-48"/>
     </g>
    </g>
    <g id="line2d_90">
     <path d="M 423.843125 95.095937 
L 443.843125 95.095937 
" style="fill:none;stroke:#94c4df;stroke-linecap:square;stroke-width:1.5;"/>
    </g>
    <g id="line2d_91"/>
    <g id="text_19">
     <!-- 500 -->
     <g transform="translate(451.843125 98.595937)scale(0.1 -0.1)">
      <use xlink:href="#DejaVuSans-53"/>
      <use x="63.623047" xlink:href="#DejaVuSans-48"/>
      <use x="127.246094" xlink:href="#DejaVuSans-48"/>
     </g>
    </g>
    <g id="line2d_92">
     <path d="M 423.843125 109.774062 
L 443.843125 109.774062 
" style="fill:none;stroke:#4a98c9;stroke-linecap:square;stroke-width:1.5;"/>
    </g>
    <g id="line2d_93"/>
    <g id="text_20">
     <!-- 1000 -->
     <g transform="translate(451.843125 113.274062)scale(0.1 -0.1)">
      <use xlink:href="#DejaVuSans-49"/>
      <use x="63.623047" xlink:href="#DejaVuSans-48"/>
      <use x="127.246094" xlink:href="#DejaVuSans-48"/>
      <use x="190.869141" xlink:href="#DejaVuSans-48"/>
     </g>
    </g>
    <g id="line2d_94">
     <path d="M 423.843125 124.452187 
L 443.843125 124.452187 
" style="fill:none;stroke:#1764ab;stroke-linecap:square;stroke-width:1.5;"/>
    </g>
    <g id="line2d_95"/>
    <g id="text_21">
     <!-- 5000 -->
     <g transform="translate(451.843125 127.952187)scale(0.1 -0.1)">
      <use xlink:href="#DejaVuSans-53"/>
      <use x="63.623047" xlink:href="#DejaVuSans-48"/>
      <use x="127.246094" xlink:href="#DejaVuSans-48"/>
      <use x="190.869141" xlink:href="#DejaVuSans-48"/>
     </g>
    </g>
    <g id="line2d_96">
     <path d="M 423.843125 139.130312 
L 443.843125 139.130312 
" style="fill:none;stroke:#08306b;stroke-linecap:square;stroke-width:1.5;"/>
    </g>
    <g id="line2d_97"/>
    <g id="text_22">
     <!-- 10000 -->
     <g transform="translate(451.843125 142.630312)scale(0.1 -0.1)">
      <use xlink:href="#DejaVuSans-49"/>
      <use x="63.623047" xlink:href="#DejaVuSans-48"/>
      <use x="127.246094" xlink:href="#DejaVuSans-48"/>
      <use x="190.869141" xlink:href="#DejaVuSans-48"/>
      <use x="254.492188" xlink:href="#DejaVuSans-48"/>
     </g>
    </g>
    <g id="line2d_98">
     <path d="M 423.843125 153.808437 
L 443.843125 153.808437 
" style="fill:none;stroke:#000000;stroke-linecap:square;stroke-width:1.5;"/>
    </g>
    <g id="line2d_99"/>
    <g id="text_23">
     <!-- 0 -->
     <g transform="translate(451.843125 157.308437)scale(0.1 -0.1)">
      <use xlink:href="#DejaVuSans-48"/>
     </g>
    </g>
    <g id="line2d_100">
     <path d="M 423.843125 168.486562 
L 443.843125 168.486562 
" style="fill:none;stroke:#000000;stroke-dasharray:1.5,2.475;stroke-dashoffset:0;stroke-width:1.5;"/>
    </g>
    <g id="line2d_101"/>
    <g id="text_24">
     <!-- 250 -->
     <g transform="translate(451.843125 171.986562)scale(0.1 -0.1)">
      <use xlink:href="#DejaVuSans-50"/>
      <use x="63.623047" xlink:href="#DejaVuSans-53"/>
      <use x="127.246094" xlink:href="#DejaVuSans-48"/>
     </g>
    </g>
    <g id="line2d_102">
     <path d="M 423.843125 183.164687 
L 443.843125 183.164687 
" style="fill:none;stroke:#000000;stroke-linecap:square;stroke-width:1.5;"/>
    </g>
    <g id="line2d_103"/>
    <g id="text_25">
     <!-- 500 -->
     <g transform="translate(451.843125 186.664687)scale(0.1 -0.1)">
      <use xlink:href="#DejaVuSans-53"/>
      <use x="63.623047" xlink:href="#DejaVuSans-48"/>
      <use x="127.246094" xlink:href="#DejaVuSans-48"/>
     </g>
    </g>
    <g id="line2d_104">
     <path d="M 423.843125 197.842812 
L 443.843125 197.842812 
" style="fill:none;stroke:#000000;stroke-dasharray:5.55,2.4;stroke-dashoffset:0;stroke-width:1.5;"/>
    </g>
    <g id="line2d_105"/>
    <g id="text_26">
     <!-- 1000 -->
     <g transform="translate(451.843125 201.342812)scale(0.1 -0.1)">
      <use xlink:href="#DejaVuSans-49"/>
      <use x="63.623047" xlink:href="#DejaVuSans-48"/>
      <use x="127.246094" xlink:href="#DejaVuSans-48"/>
      <use x="190.869141" xlink:href="#DejaVuSans-48"/>
     </g>
    </g>
    <g id="line2d_106">
     <path d="M 423.843125 212.520937 
L 443.843125 212.520937 
" style="fill:none;stroke:#000000;stroke-dasharray:9.6,2.4,1.5,2.4;stroke-dashoffset:0;stroke-width:1.5;"/>
    </g>
    <g id="line2d_107"/>
    <g id="text_27">
     <!-- 5000 -->
     <g transform="translate(451.843125 216.020937)scale(0.1 -0.1)">
      <use xlink:href="#DejaVuSans-53"/>
      <use x="63.623047" xlink:href="#DejaVuSans-48"/>
      <use x="127.246094" xlink:href="#DejaVuSans-48"/>
      <use x="190.869141" xlink:href="#DejaVuSans-48"/>
     </g>
    </g>
    <g id="line2d_108">
     <path d="M 423.843125 227.199062 
L 443.843125 227.199062 
" style="fill:none;stroke:#000000;stroke-dasharray:9.6,2.4,1.5,2.4;stroke-dashoffset:0;stroke-width:1.5;"/>
    </g>
    <g id="line2d_109"/>
    <g id="text_28">
     <!-- 10000 -->
     <g transform="translate(451.843125 230.699062)scale(0.1 -0.1)">
      <use xlink:href="#DejaVuSans-49"/>
      <use x="63.623047" xlink:href="#DejaVuSans-48"/>
      <use x="127.246094" xlink:href="#DejaVuSans-48"/>
      <use x="190.869141" xlink:href="#DejaVuSans-48"/>
      <use x="254.492188" xlink:href="#DejaVuSans-48"/>
     </g>
    </g>
   </g>
  </g>
 </g>
 <defs>
  <clipPath id="pbff79c7176">
   <rect height="380.52" width="390.6" x="102.055625" y="52.64125"/>
  </clipPath>
 </defs>
</svg>
