<?xml version="1.0" encoding="utf-8" standalone="no"?>
<!DOCTYPE svg PUBLIC "-//W3C//DTD SVG 1.1//EN"
  "http://www.w3.org/Graphics/SVG/1.1/DTD/svg11.dtd">
<!-- Created with matplotlib (https://matplotlib.org/) -->
<svg height="504.658125pt" version="1.1" viewBox="0 0 610.843125 504.658125" width="610.843125pt" xmlns="http://www.w3.org/2000/svg" xmlns:xlink="http://www.w3.org/1999/xlink">
 <defs>
  <style type="text/css">
*{stroke-linecap:butt;stroke-linejoin:round;}
  </style>
 </defs>
 <g id="figure_1">
  <g id="patch_1">
   <path d="M 0 504.658125 
L 610.843125 504.658125 
L 610.843125 -0 
L 0 -0 
z
" style="fill:#ffffff;"/>
  </g>
  <g id="axes_1">
   <g id="patch_2">
    <path d="M 140.230625 433.16125 
L 530.830625 433.16125 
L 530.830625 52.64125 
L 140.230625 52.64125 
z
" style="fill:#ffffff;"/>
   </g>
   <g id="matplotlib.axis_1">
    <g id="xtick_1">
     <g id="line2d_1">
      <defs>
       <path d="M 0 0 
L 0 3.5 
" id="m215bcc6187" style="stroke:#000000;stroke-width:0.8;"/>
      </defs>
      <g>
       <use style="stroke:#000000;stroke-width:0.8;" x="187.57608" xlink:href="#m215bcc6187" y="433.16125"/>
      </g>
     </g>
     <g id="text_1">
      <!-- 5 -->
      <defs>
       <path d="M 10.796875 72.90625 
L 49.515625 72.90625 
L 49.515625 64.59375 
L 19.828125 64.59375 
L 19.828125 46.734375 
Q 21.96875 47.46875 24.109375 47.828125 
Q 26.265625 48.1875 28.421875 48.1875 
Q 40.625 48.1875 47.75 41.5 
Q 54.890625 34.8125 54.890625 23.390625 
Q 54.890625 11.625 47.5625 5.09375 
Q 40.234375 -1.421875 26.90625 -1.421875 
Q 22.3125 -1.421875 17.546875 -0.640625 
Q 12.796875 0.140625 7.71875 1.703125 
L 7.71875 11.625 
Q 12.109375 9.234375 16.796875 8.0625 
Q 21.484375 6.890625 26.703125 6.890625 
Q 35.15625 6.890625 40.078125 11.328125 
Q 45.015625 15.765625 45.015625 23.390625 
Q 45.015625 31 40.078125 35.4375 
Q 35.15625 39.890625 26.703125 39.890625 
Q 22.75 39.890625 18.8125 39.015625 
Q 14.890625 38.140625 10.796875 36.28125 
z
" id="DejaVuSans-53"/>
      </defs>
      <g transform="translate(178.03233 462.956562)scale(0.3 -0.3)">
       <use xlink:href="#DejaVuSans-53"/>
      </g>
     </g>
    </g>
    <g id="xtick_2">
     <g id="line2d_2">
      <g>
       <use style="stroke:#000000;stroke-width:0.8;" x="246.757898" xlink:href="#m215bcc6187" y="433.16125"/>
      </g>
     </g>
     <g id="text_2">
      <!-- 10 -->
      <defs>
       <path d="M 12.40625 8.296875 
L 28.515625 8.296875 
L 28.515625 63.921875 
L 10.984375 60.40625 
L 10.984375 69.390625 
L 28.421875 72.90625 
L 38.28125 72.90625 
L 38.28125 8.296875 
L 54.390625 8.296875 
L 54.390625 0 
L 12.40625 0 
z
" id="DejaVuSans-49"/>
       <path d="M 31.78125 66.40625 
Q 24.171875 66.40625 20.328125 58.90625 
Q 16.5 51.421875 16.5 36.375 
Q 16.5 21.390625 20.328125 13.890625 
Q 24.171875 6.390625 31.78125 6.390625 
Q 39.453125 6.390625 43.28125 13.890625 
Q 47.125 21.390625 47.125 36.375 
Q 47.125 51.421875 43.28125 58.90625 
Q 39.453125 66.40625 31.78125 66.40625 
z
M 31.78125 74.21875 
Q 44.046875 74.21875 50.515625 64.515625 
Q 56.984375 54.828125 56.984375 36.375 
Q 56.984375 17.96875 50.515625 8.265625 
Q 44.046875 -1.421875 31.78125 -1.421875 
Q 19.53125 -1.421875 13.0625 8.265625 
Q 6.59375 17.96875 6.59375 36.375 
Q 6.59375 54.828125 13.0625 64.515625 
Q 19.53125 74.21875 31.78125 74.21875 
z
" id="DejaVuSans-48"/>
      </defs>
      <g transform="translate(227.670398 462.956562)scale(0.3 -0.3)">
       <use xlink:href="#DejaVuSans-49"/>
       <use x="63.623047" xlink:href="#DejaVuSans-48"/>
      </g>
     </g>
    </g>
    <g id="xtick_3">
     <g id="line2d_3">
      <g>
       <use style="stroke:#000000;stroke-width:0.8;" x="305.939716" xlink:href="#m215bcc6187" y="433.16125"/>
      </g>
     </g>
     <g id="text_3">
      <!-- 15 -->
      <g transform="translate(286.852216 462.956562)scale(0.3 -0.3)">
       <use xlink:href="#DejaVuSans-49"/>
       <use x="63.623047" xlink:href="#DejaVuSans-53"/>
      </g>
     </g>
    </g>
    <g id="xtick_4">
     <g id="line2d_4">
      <g>
       <use style="stroke:#000000;stroke-width:0.8;" x="365.121534" xlink:href="#m215bcc6187" y="433.16125"/>
      </g>
     </g>
     <g id="text_4">
      <!-- 20 -->
      <defs>
       <path d="M 19.1875 8.296875 
L 53.609375 8.296875 
L 53.609375 0 
L 7.328125 0 
L 7.328125 8.296875 
Q 12.9375 14.109375 22.625 23.890625 
Q 32.328125 33.6875 34.8125 36.53125 
Q 39.546875 41.84375 41.421875 45.53125 
Q 43.3125 49.21875 43.3125 52.78125 
Q 43.3125 58.59375 39.234375 62.25 
Q 35.15625 65.921875 28.609375 65.921875 
Q 23.96875 65.921875 18.8125 64.3125 
Q 13.671875 62.703125 7.8125 59.421875 
L 7.8125 69.390625 
Q 13.765625 71.78125 18.9375 73 
Q 24.125 74.21875 28.421875 74.21875 
Q 39.75 74.21875 46.484375 68.546875 
Q 53.21875 62.890625 53.21875 53.421875 
Q 53.21875 48.921875 51.53125 44.890625 
Q 49.859375 40.875 45.40625 35.40625 
Q 44.1875 33.984375 37.640625 27.21875 
Q 31.109375 20.453125 19.1875 8.296875 
z
" id="DejaVuSans-50"/>
      </defs>
      <g transform="translate(346.034034 462.956562)scale(0.3 -0.3)">
       <use xlink:href="#DejaVuSans-50"/>
       <use x="63.623047" xlink:href="#DejaVuSans-48"/>
      </g>
     </g>
    </g>
    <g id="xtick_5">
     <g id="line2d_5">
      <g>
       <use style="stroke:#000000;stroke-width:0.8;" x="424.303352" xlink:href="#m215bcc6187" y="433.16125"/>
      </g>
     </g>
     <g id="text_5">
      <!-- 25 -->
      <g transform="translate(405.215852 462.956562)scale(0.3 -0.3)">
       <use xlink:href="#DejaVuSans-50"/>
       <use x="63.623047" xlink:href="#DejaVuSans-53"/>
      </g>
     </g>
    </g>
    <g id="xtick_6">
     <g id="line2d_6">
      <g>
       <use style="stroke:#000000;stroke-width:0.8;" x="483.48517" xlink:href="#m215bcc6187" y="433.16125"/>
      </g>
     </g>
     <g id="text_6">
      <!-- 30 -->
      <defs>
       <path d="M 40.578125 39.3125 
Q 47.65625 37.796875 51.625 33 
Q 55.609375 28.21875 55.609375 21.1875 
Q 55.609375 10.40625 48.1875 4.484375 
Q 40.765625 -1.421875 27.09375 -1.421875 
Q 22.515625 -1.421875 17.65625 -0.515625 
Q 12.796875 0.390625 7.625 2.203125 
L 7.625 11.71875 
Q 11.71875 9.328125 16.59375 8.109375 
Q 21.484375 6.890625 26.8125 6.890625 
Q 36.078125 6.890625 40.9375 10.546875 
Q 45.796875 14.203125 45.796875 21.1875 
Q 45.796875 27.640625 41.28125 31.265625 
Q 36.765625 34.90625 28.71875 34.90625 
L 20.21875 34.90625 
L 20.21875 43.015625 
L 29.109375 43.015625 
Q 36.375 43.015625 40.234375 45.921875 
Q 44.09375 48.828125 44.09375 54.296875 
Q 44.09375 59.90625 40.109375 62.90625 
Q 36.140625 65.921875 28.71875 65.921875 
Q 24.65625 65.921875 20.015625 65.03125 
Q 15.375 64.15625 9.8125 62.3125 
L 9.8125 71.09375 
Q 15.4375 72.65625 20.34375 73.4375 
Q 25.25 74.21875 29.59375 74.21875 
Q 40.828125 74.21875 47.359375 69.109375 
Q 53.90625 64.015625 53.90625 55.328125 
Q 53.90625 49.265625 50.4375 45.09375 
Q 46.96875 40.921875 40.578125 39.3125 
z
" id="DejaVuSans-51"/>
      </defs>
      <g transform="translate(464.39767 462.956562)scale(0.3 -0.3)">
       <use xlink:href="#DejaVuSans-51"/>
       <use x="63.623047" xlink:href="#DejaVuSans-48"/>
      </g>
     </g>
    </g>
    <g id="text_7">
     <!-- RADIUS -->
     <defs>
      <path d="M 7.328125 0 
L 7.328125 71.578125 
L 37.75 71.578125 
Q 49.21875 71.578125 54.421875 69.640625 
Q 59.625 67.71875 62.75 62.78125 
Q 65.875 57.859375 65.875 51.515625 
Q 65.875 43.453125 61.125 38.203125 
Q 56.390625 32.953125 46.96875 31.59375 
Q 51.65625 28.859375 54.703125 25.578125 
Q 57.765625 22.3125 62.9375 13.96875 
L 71.6875 0 
L 54.390625 0 
L 43.953125 15.578125 
Q 38.375 23.921875 36.328125 26.09375 
Q 34.28125 28.265625 31.984375 29.078125 
Q 29.6875 29.890625 24.703125 29.890625 
L 21.78125 29.890625 
L 21.78125 0 
z
M 21.78125 41.3125 
L 32.46875 41.3125 
Q 42.875 41.3125 45.453125 42.1875 
Q 48.046875 43.0625 49.515625 45.203125 
Q 50.984375 47.359375 50.984375 50.59375 
Q 50.984375 54.203125 49.046875 56.421875 
Q 47.125 58.640625 43.609375 59.234375 
Q 41.84375 59.46875 33.0625 59.46875 
L 21.78125 59.46875 
z
" id="Arial-BoldMT-82"/>
      <path d="M 71.828125 0 
L 56.109375 0 
L 49.859375 16.265625 
L 21.234375 16.265625 
L 15.328125 0 
L 0 0 
L 27.875 71.578125 
L 43.171875 71.578125 
z
M 45.21875 28.328125 
L 35.359375 54.890625 
L 25.6875 28.328125 
z
" id="Arial-BoldMT-65"/>
      <path d="M 7.234375 71.578125 
L 33.640625 71.578125 
Q 42.578125 71.578125 47.265625 70.21875 
Q 53.5625 68.359375 58.046875 63.625 
Q 62.546875 58.890625 64.890625 52.03125 
Q 67.234375 45.171875 67.234375 35.109375 
Q 67.234375 26.265625 65.046875 19.875 
Q 62.359375 12.0625 57.375 7.234375 
Q 53.609375 3.5625 47.21875 1.515625 
Q 42.4375 0 34.421875 0 
L 7.234375 0 
z
M 21.6875 59.46875 
L 21.6875 12.0625 
L 32.46875 12.0625 
Q 38.53125 12.0625 41.21875 12.75 
Q 44.734375 13.625 47.046875 15.71875 
Q 49.359375 17.828125 50.828125 22.625 
Q 52.296875 27.4375 52.296875 35.75 
Q 52.296875 44.046875 50.828125 48.484375 
Q 49.359375 52.9375 46.71875 55.421875 
Q 44.09375 57.90625 40.046875 58.796875 
Q 37.015625 59.46875 28.171875 59.46875 
z
" id="Arial-BoldMT-68"/>
      <path d="M 6.84375 0 
L 6.84375 71.578125 
L 21.296875 71.578125 
L 21.296875 0 
z
" id="Arial-BoldMT-73"/>
      <path d="M 7.171875 71.578125 
L 21.625 71.578125 
L 21.625 32.8125 
Q 21.625 23.578125 22.171875 20.84375 
Q 23.09375 16.453125 26.578125 13.796875 
Q 30.078125 11.140625 36.140625 11.140625 
Q 42.28125 11.140625 45.40625 13.640625 
Q 48.53125 16.15625 49.171875 19.8125 
Q 49.8125 23.484375 49.8125 31.984375 
L 49.8125 71.578125 
L 64.265625 71.578125 
L 64.265625 33.984375 
Q 64.265625 21.09375 63.09375 15.765625 
Q 61.921875 10.453125 58.765625 6.78125 
Q 55.609375 3.125 50.328125 0.953125 
Q 45.0625 -1.21875 36.578125 -1.21875 
Q 26.3125 -1.21875 21.015625 1.140625 
Q 15.71875 3.515625 12.640625 7.296875 
Q 9.578125 11.078125 8.59375 15.234375 
Q 7.171875 21.390625 7.171875 33.40625 
z
" id="Arial-BoldMT-85"/>
      <path d="M 3.609375 23.296875 
L 17.671875 24.65625 
Q 18.953125 17.578125 22.828125 14.25 
Q 26.703125 10.9375 33.296875 10.9375 
Q 40.28125 10.9375 43.8125 13.890625 
Q 47.359375 16.84375 47.359375 20.796875 
Q 47.359375 23.34375 45.875 25.125 
Q 44.390625 26.90625 40.671875 28.21875 
Q 38.140625 29.109375 29.109375 31.34375 
Q 17.484375 34.234375 12.796875 38.421875 
Q 6.203125 44.34375 6.203125 52.828125 
Q 6.203125 58.296875 9.296875 63.0625 
Q 12.40625 67.828125 18.234375 70.3125 
Q 24.078125 72.796875 32.328125 72.796875 
Q 45.796875 72.796875 52.609375 66.890625 
Q 59.421875 60.984375 59.765625 51.125 
L 45.3125 50.484375 
Q 44.390625 56 41.328125 58.421875 
Q 38.28125 60.84375 32.171875 60.84375 
Q 25.875 60.84375 22.3125 58.25 
Q 20.015625 56.59375 20.015625 53.8125 
Q 20.015625 51.265625 22.171875 49.46875 
Q 24.90625 47.171875 35.453125 44.671875 
Q 46 42.1875 51.046875 39.515625 
Q 56.109375 36.859375 58.953125 32.25 
Q 61.8125 27.640625 61.8125 20.84375 
Q 61.8125 14.703125 58.390625 9.328125 
Q 54.984375 3.953125 48.734375 1.34375 
Q 42.484375 -1.265625 33.15625 -1.265625 
Q 19.578125 -1.265625 12.296875 5 
Q 5.03125 11.28125 3.609375 23.296875 
z
" id="Arial-BoldMT-83"/>
     </defs>
     <g transform="translate(297.194687 493.51125)scale(0.2 -0.2)">
      <use xlink:href="#Arial-BoldMT-82"/>
      <use x="72.216797" xlink:href="#Arial-BoldMT-65"/>
      <use x="144.433594" xlink:href="#Arial-BoldMT-68"/>
      <use x="216.650391" xlink:href="#Arial-BoldMT-73"/>
      <use x="244.433594" xlink:href="#Arial-BoldMT-85"/>
      <use x="316.650391" xlink:href="#Arial-BoldMT-83"/>
     </g>
    </g>
   </g>
   <g id="matplotlib.axis_2">
    <g id="ytick_1">
     <g id="line2d_7">
      <defs>
       <path d="M 0 0 
L -3.5 0 
" id="m6fa14d27bf" style="stroke:#000000;stroke-width:0.8;"/>
      </defs>
      <g>
       <use style="stroke:#000000;stroke-width:0.8;" x="140.230625" xlink:href="#m6fa14d27bf" y="433.16125"/>
      </g>
     </g>
     <g id="text_8">
      <!-- 0 -->
      <g transform="translate(114.143125 444.558906)scale(0.3 -0.3)">
       <use xlink:href="#DejaVuSans-48"/>
      </g>
     </g>
    </g>
    <g id="ytick_2">
     <g id="line2d_8">
      <g>
       <use style="stroke:#000000;stroke-width:0.8;" x="140.230625" xlink:href="#m6fa14d27bf" y="370.22273"/>
      </g>
     </g>
     <g id="text_9">
      <!-- 500 -->
      <g transform="translate(75.968125 381.620386)scale(0.3 -0.3)">
       <use xlink:href="#DejaVuSans-53"/>
       <use x="63.623047" xlink:href="#DejaVuSans-48"/>
       <use x="127.246094" xlink:href="#DejaVuSans-48"/>
      </g>
     </g>
    </g>
    <g id="ytick_3">
     <g id="line2d_9">
      <g>
       <use style="stroke:#000000;stroke-width:0.8;" x="140.230625" xlink:href="#m6fa14d27bf" y="307.284209"/>
      </g>
     </g>
     <g id="text_10">
      <!-- 1000 -->
      <g transform="translate(56.880625 318.681866)scale(0.3 -0.3)">
       <use xlink:href="#DejaVuSans-49"/>
       <use x="63.623047" xlink:href="#DejaVuSans-48"/>
       <use x="127.246094" xlink:href="#DejaVuSans-48"/>
       <use x="190.869141" xlink:href="#DejaVuSans-48"/>
      </g>
     </g>
    </g>
    <g id="ytick_4">
     <g id="line2d_10">
      <g>
       <use style="stroke:#000000;stroke-width:0.8;" x="140.230625" xlink:href="#m6fa14d27bf" y="244.345689"/>
      </g>
     </g>
     <g id="text_11">
      <!-- 1500 -->
      <g transform="translate(56.880625 255.743345)scale(0.3 -0.3)">
       <use xlink:href="#DejaVuSans-49"/>
       <use x="63.623047" xlink:href="#DejaVuSans-53"/>
       <use x="127.246094" xlink:href="#DejaVuSans-48"/>
       <use x="190.869141" xlink:href="#DejaVuSans-48"/>
      </g>
     </g>
    </g>
    <g id="ytick_5">
     <g id="line2d_11">
      <g>
       <use style="stroke:#000000;stroke-width:0.8;" x="140.230625" xlink:href="#m6fa14d27bf" y="181.407169"/>
      </g>
     </g>
     <g id="text_12">
      <!-- 2000 -->
      <g transform="translate(56.880625 192.804825)scale(0.3 -0.3)">
       <use xlink:href="#DejaVuSans-50"/>
       <use x="63.623047" xlink:href="#DejaVuSans-48"/>
       <use x="127.246094" xlink:href="#DejaVuSans-48"/>
       <use x="190.869141" xlink:href="#DejaVuSans-48"/>
      </g>
     </g>
    </g>
    <g id="ytick_6">
     <g id="line2d_12">
      <g>
       <use style="stroke:#000000;stroke-width:0.8;" x="140.230625" xlink:href="#m6fa14d27bf" y="118.468648"/>
      </g>
     </g>
     <g id="text_13">
      <!-- 2500 -->
      <g transform="translate(56.880625 129.866305)scale(0.3 -0.3)">
       <use xlink:href="#DejaVuSans-50"/>
       <use x="63.623047" xlink:href="#DejaVuSans-53"/>
       <use x="127.246094" xlink:href="#DejaVuSans-48"/>
       <use x="190.869141" xlink:href="#DejaVuSans-48"/>
      </g>
     </g>
    </g>
    <g id="ytick_7">
     <g id="line2d_13">
      <g>
       <use style="stroke:#000000;stroke-width:0.8;" x="140.230625" xlink:href="#m6fa14d27bf" y="55.530128"/>
      </g>
     </g>
     <g id="text_14">
      <!-- 3000 -->
      <g transform="translate(56.880625 66.927784)scale(0.3 -0.3)">
       <use xlink:href="#DejaVuSans-51"/>
       <use x="63.623047" xlink:href="#DejaVuSans-48"/>
       <use x="127.246094" xlink:href="#DejaVuSans-48"/>
       <use x="190.869141" xlink:href="#DejaVuSans-48"/>
      </g>
     </g>
    </g>
    <g id="text_15">
     <!-- CD8 -->
     <defs>
      <path d="M 53.078125 26.3125 
L 67.09375 21.875 
Q 63.875 10.15625 56.375 4.46875 
Q 48.875 -1.21875 37.359375 -1.21875 
Q 23.09375 -1.21875 13.90625 8.515625 
Q 4.734375 18.265625 4.734375 35.15625 
Q 4.734375 53.03125 13.953125 62.90625 
Q 23.1875 72.796875 38.234375 72.796875 
Q 51.375 72.796875 59.578125 65.046875 
Q 64.453125 60.453125 66.890625 51.859375 
L 52.59375 48.4375 
Q 51.3125 54 47.28125 57.21875 
Q 43.265625 60.453125 37.5 60.453125 
Q 29.546875 60.453125 24.578125 54.734375 
Q 19.625 49.03125 19.625 36.234375 
Q 19.625 22.65625 24.5 16.890625 
Q 29.390625 11.140625 37.203125 11.140625 
Q 42.96875 11.140625 47.109375 14.796875 
Q 51.265625 18.453125 53.078125 26.3125 
z
" id="Arial-BoldMT-67"/>
      <path d="M 16.015625 38.625 
Q 10.6875 40.875 8.265625 44.796875 
Q 5.859375 48.734375 5.859375 53.421875 
Q 5.859375 61.421875 11.453125 66.640625 
Q 17.046875 71.875 27.34375 71.875 
Q 37.546875 71.875 43.1875 66.640625 
Q 48.828125 61.421875 48.828125 53.421875 
Q 48.828125 48.4375 46.234375 44.546875 
Q 43.65625 40.671875 38.96875 38.625 
Q 44.921875 36.234375 48.015625 31.640625 
Q 51.125 27.046875 51.125 21.046875 
Q 51.125 11.140625 44.796875 4.9375 
Q 38.484375 -1.265625 27.984375 -1.265625 
Q 18.21875 -1.265625 11.71875 3.859375 
Q 4.046875 9.90625 4.046875 20.453125 
Q 4.046875 26.265625 6.921875 31.125 
Q 9.8125 35.984375 16.015625 38.625 
z
M 18.84375 52.4375 
Q 18.84375 48.34375 21.15625 46.046875 
Q 23.484375 43.75 27.34375 43.75 
Q 31.25 43.75 33.59375 46.0625 
Q 35.9375 48.390625 35.9375 52.484375 
Q 35.9375 56.34375 33.609375 58.65625 
Q 31.296875 60.984375 27.484375 60.984375 
Q 23.53125 60.984375 21.1875 58.640625 
Q 18.84375 56.296875 18.84375 52.4375 
z
M 17.578125 21.78125 
Q 17.578125 16.109375 20.484375 12.9375 
Q 23.390625 9.765625 27.734375 9.765625 
Q 31.984375 9.765625 34.765625 12.8125 
Q 37.546875 15.875 37.546875 21.625 
Q 37.546875 26.65625 34.71875 29.703125 
Q 31.890625 32.765625 27.546875 32.765625 
Q 22.515625 32.765625 20.046875 29.296875 
Q 17.578125 25.828125 17.578125 21.78125 
z
" id="Arial-BoldMT-56"/>
     </defs>
     <g transform="translate(21.253125 262.905937)rotate(-90)scale(0.2 -0.2)">
      <use xlink:href="#Arial-BoldMT-67"/>
      <use x="72.216797" xlink:href="#Arial-BoldMT-68"/>
      <use x="144.433594" xlink:href="#Arial-BoldMT-56"/>
     </g>
     <!-- CELL COUNTS (NUMBERS) -->
     <defs>
      <path d="M 7.28125 0 
L 7.28125 71.578125 
L 60.359375 71.578125 
L 60.359375 59.46875 
L 21.734375 59.46875 
L 21.734375 43.609375 
L 57.671875 43.609375 
L 57.671875 31.546875 
L 21.734375 31.546875 
L 21.734375 12.0625 
L 61.71875 12.0625 
L 61.71875 0 
z
" id="Arial-BoldMT-69"/>
      <path d="M 7.671875 0 
L 7.671875 71 
L 22.125 71 
L 22.125 12.0625 
L 58.0625 12.0625 
L 58.0625 0 
z
" id="Arial-BoldMT-76"/>
      <path id="Arial-BoldMT-32"/>
      <path d="M 4.34375 35.359375 
Q 4.34375 46.296875 7.625 53.71875 
Q 10.0625 59.1875 14.28125 63.53125 
Q 18.5 67.875 23.53125 69.96875 
Q 30.21875 72.796875 38.96875 72.796875 
Q 54.78125 72.796875 64.28125 62.984375 
Q 73.78125 53.171875 73.78125 35.6875 
Q 73.78125 18.359375 64.359375 8.5625 
Q 54.9375 -1.21875 39.15625 -1.21875 
Q 23.1875 -1.21875 13.765625 8.515625 
Q 4.34375 18.265625 4.34375 35.359375 
z
M 19.234375 35.84375 
Q 19.234375 23.6875 24.84375 17.40625 
Q 30.46875 11.140625 39.109375 11.140625 
Q 47.75 11.140625 53.296875 17.359375 
Q 58.84375 23.578125 58.84375 36.03125 
Q 58.84375 48.34375 53.4375 54.390625 
Q 48.046875 60.453125 39.109375 60.453125 
Q 30.171875 60.453125 24.703125 54.3125 
Q 19.234375 48.1875 19.234375 35.84375 
z
" id="Arial-BoldMT-79"/>
      <path d="M 7.421875 0 
L 7.421875 71.578125 
L 21.484375 71.578125 
L 50.78125 23.78125 
L 50.78125 71.578125 
L 64.203125 71.578125 
L 64.203125 0 
L 49.703125 0 
L 20.84375 46.6875 
L 20.84375 0 
z
" id="Arial-BoldMT-78"/>
      <path d="M 23.390625 0 
L 23.390625 59.46875 
L 2.15625 59.46875 
L 2.15625 71.578125 
L 59.03125 71.578125 
L 59.03125 59.46875 
L 37.84375 59.46875 
L 37.84375 0 
z
" id="Arial-BoldMT-84"/>
      <path d="M 29.9375 -21.046875 
L 20.515625 -21.046875 
Q 13.03125 -9.765625 9.125 2.390625 
Q 5.21875 14.546875 5.21875 25.921875 
Q 5.21875 40.046875 10.0625 52.640625 
Q 14.265625 63.578125 20.703125 72.796875 
L 30.078125 72.796875 
Q 23.390625 58.015625 20.875 47.625 
Q 18.359375 37.25 18.359375 25.640625 
Q 18.359375 17.625 19.84375 9.21875 
Q 21.34375 0.828125 23.921875 -6.734375 
Q 25.640625 -11.71875 29.9375 -21.046875 
z
" id="Arial-BoldMT-40"/>
      <path d="M 7.078125 0 
L 7.078125 71.578125 
L 28.71875 71.578125 
L 41.703125 22.75 
L 54.546875 71.578125 
L 76.21875 71.578125 
L 76.21875 0 
L 62.796875 0 
L 62.796875 56.34375 
L 48.578125 0 
L 34.671875 0 
L 20.515625 56.34375 
L 20.515625 0 
z
" id="Arial-BoldMT-77"/>
      <path d="M 7.328125 71.578125 
L 35.9375 71.578125 
Q 44.4375 71.578125 48.609375 70.875 
Q 52.78125 70.171875 56.078125 67.921875 
Q 59.375 65.671875 61.5625 61.9375 
Q 63.765625 58.203125 63.765625 53.5625 
Q 63.765625 48.53125 61.046875 44.328125 
Q 58.34375 40.140625 53.71875 38.03125 
Q 60.25 36.140625 63.765625 31.546875 
Q 67.28125 26.953125 67.28125 20.75 
Q 67.28125 15.875 65.015625 11.25 
Q 62.75 6.640625 58.8125 3.875 
Q 54.890625 1.125 49.125 0.484375 
Q 45.515625 0.09375 31.6875 0 
L 7.328125 0 
z
M 21.78125 59.671875 
L 21.78125 43.109375 
L 31.25 43.109375 
Q 39.703125 43.109375 41.75 43.359375 
Q 45.453125 43.796875 47.578125 45.921875 
Q 49.703125 48.046875 49.703125 51.515625 
Q 49.703125 54.828125 47.875 56.90625 
Q 46.046875 58.984375 42.4375 59.421875 
Q 40.28125 59.671875 30.078125 59.671875 
z
M 21.78125 31.203125 
L 21.78125 12.0625 
L 35.15625 12.0625 
Q 42.96875 12.0625 45.0625 12.5 
Q 48.296875 13.09375 50.3125 15.359375 
Q 52.34375 17.625 52.34375 21.4375 
Q 52.34375 24.65625 50.78125 26.90625 
Q 49.21875 29.15625 46.265625 30.171875 
Q 43.3125 31.203125 33.453125 31.203125 
z
" id="Arial-BoldMT-66"/>
      <path d="M 3.375 -21.046875 
Q 7.421875 -12.359375 9.078125 -7.71875 
Q 10.75 -3.078125 12.15625 2.96875 
Q 13.578125 9.03125 14.25 14.46875 
Q 14.9375 19.921875 14.9375 25.640625 
Q 14.9375 37.25 12.453125 47.625 
Q 9.96875 58.015625 3.265625 72.796875 
L 12.59375 72.796875 
Q 19.96875 62.3125 24.046875 50.53125 
Q 28.125 38.765625 28.125 26.65625 
Q 28.125 16.453125 24.90625 4.78125 
Q 21.234375 -8.296875 12.84375 -21.046875 
z
" id="Arial-BoldMT-41"/>
     </defs>
     <g transform="translate(42.67125 374.002812)rotate(-90)scale(0.2 -0.2)">
      <use xlink:href="#Arial-BoldMT-67"/>
      <use x="72.216797" xlink:href="#Arial-BoldMT-69"/>
      <use x="138.916016" xlink:href="#Arial-BoldMT-76"/>
      <use x="200" xlink:href="#Arial-BoldMT-76"/>
      <use x="261.068359" xlink:href="#Arial-BoldMT-32"/>
      <use x="288.851562" xlink:href="#Arial-BoldMT-67"/>
      <use x="361.068359" xlink:href="#Arial-BoldMT-79"/>
      <use x="438.851562" xlink:href="#Arial-BoldMT-85"/>
      <use x="511.068359" xlink:href="#Arial-BoldMT-78"/>
      <use x="583.285156" xlink:href="#Arial-BoldMT-84"/>
      <use x="644.369141" xlink:href="#Arial-BoldMT-83"/>
      <use x="711.068359" xlink:href="#Arial-BoldMT-32"/>
      <use x="738.851562" xlink:href="#Arial-BoldMT-40"/>
      <use x="772.152344" xlink:href="#Arial-BoldMT-78"/>
      <use x="844.369141" xlink:href="#Arial-BoldMT-85"/>
      <use x="916.585938" xlink:href="#Arial-BoldMT-77"/>
      <use x="999.886719" xlink:href="#Arial-BoldMT-66"/>
      <use x="1072.103516" xlink:href="#Arial-BoldMT-69"/>
      <use x="1138.802734" xlink:href="#Arial-BoldMT-82"/>
      <use x="1211.019531" xlink:href="#Arial-BoldMT-83"/>
      <use x="1277.71875" xlink:href="#Arial-BoldMT-41"/>
     </g>
    </g>
   </g>
   <g id="line2d_14">
    <path clip-path="url(#p426ca906d5)" d="M 140.230625 432.531865 
L 152.066989 428.629677 
L 163.903352 419.944161 
L 175.739716 405.720055 
L 187.57608 384.698589 
L 199.412443 371.355623 
L 211.248807 363.551247 
L 223.08517 370.474484 
L 234.921534 366.698173 
L 246.757898 356.628009 
L 258.594261 337.117068 
L 270.430625 330.193831 
L 282.266989 315.214463 
L 294.103352 285.507481 
L 305.939716 266.625925 
L 317.77608 255.674623 
L 329.612443 239.436484 
L 341.448807 246.233845 
L 353.28517 243.842181 
L 365.121534 231.883862 
L 376.957898 213.631691 
L 388.794261 206.834331 
L 400.630625 193.491365 
L 412.466989 173.099284 
L 424.303352 168.064202 
L 436.139716 180.148398 
L 447.97608 162.147982 
L 459.812443 168.945342 
L 471.648807 160.51158 
L 483.48517 163.532629 
L 495.321534 171.337005 
L 507.157898 164.162014 
L 518.994261 159.126933 
L 530.830625 170.70762 
" style="fill:none;stroke:#08306b;stroke-linecap:square;stroke-width:1.5;"/>
   </g>
   <g id="line2d_15">
    <path clip-path="url(#p426ca906d5)" d="M 140.230625 431.90248 
L 152.066989 422.839333 
L 163.903352 411.510399 
L 175.739716 401.440236 
L 187.57608 402.699006 
L 199.412443 402.069621 
L 211.248807 394.265244 
L 223.08517 380.670524 
L 234.921534 363.425369 
L 246.757898 339.005224 
L 258.594261 313.955693 
L 270.430625 290.66844 
L 282.266989 271.157499 
L 294.103352 256.429885 
L 305.939716 253.031205 
L 317.77608 253.912344 
L 329.612443 253.66059 
L 341.448807 246.359722 
L 353.28517 239.310607 
L 365.121534 216.526863 
L 376.957898 219.673789 
L 388.794261 209.85538 
L 400.630625 197.771184 
L 412.466989 189.337422 
L 424.303352 190.218562 
L 436.139716 188.330406 
L 447.97608 180.148398 
L 459.812443 165.420785 
L 471.648807 134.203278 
L 483.48517 106.762084 
L 495.321534 122.24496 
L 507.157898 128.161181 
L 518.994261 119.098034 
L 530.830625 107.517346 
" style="fill:none;stroke:#08306b;stroke-linecap:square;stroke-width:1.5;"/>
   </g>
   <g id="line2d_16">
    <path clip-path="url(#p426ca906d5)" d="M 140.230625 431.273094 
L 152.066989 419.188898 
L 163.903352 406.34944 
L 175.739716 395.146384 
L 187.57608 388.852532 
L 199.412443 370.726238 
L 211.248807 344.417936 
L 223.08517 338.249961 
L 234.921534 327.424536 
L 246.757898 319.116651 
L 258.594261 321.382438 
L 270.430625 314.459201 
L 282.266989 315.717971 
L 294.103352 293.437735 
L 305.939716 282.612309 
L 317.77608 275.814949 
L 329.612443 269.143466 
L 341.448807 275.185564 
L 353.28517 271.53513 
L 365.121534 275.185564 
L 376.957898 269.143466 
L 388.794261 252.527697 
L 400.630625 235.911927 
L 412.466989 196.512414 
L 424.303352 179.141382 
L 436.139716 148.427384 
L 447.97608 121.741451 
L 459.812443 115.321722 
L 471.648807 110.034887 
L 483.48517 106.258575 
L 495.321534 104.622174 
L 507.157898 108.901993 
L 518.994261 113.559444 
L 530.830625 122.874345 
" style="fill:none;stroke:#08306b;stroke-linecap:square;stroke-width:1.5;"/>
   </g>
   <g id="line2d_17">
    <path clip-path="url(#p426ca906d5)" d="M 140.230625 432.405988 
L 152.066989 424.853365 
L 163.903352 414.531448 
L 175.739716 394.391121 
L 187.57608 376.138951 
L 199.412443 366.320541 
L 211.248807 359.019673 
L 223.08517 358.138534 
L 234.921534 354.739854 
L 246.757898 349.453018 
L 258.594261 328.683306 
L 270.430625 319.368405 
L 282.266989 307.158332 
L 294.103352 293.311858 
L 305.939716 275.814949 
L 317.77608 259.576811 
L 329.612443 241.828148 
L 341.448807 236.793067 
L 353.28517 226.84878 
L 365.121534 208.093101 
L 376.957898 202.680389 
L 388.794261 186.819881 
L 400.630625 185.686988 
L 412.466989 184.805849 
L 424.303352 170.329989 
L 436.139716 174.735686 
L 447.97608 173.476915 
L 459.812443 150.063786 
L 471.648807 142.385286 
L 483.48517 148.301507 
L 495.321534 158.245793 
L 507.157898 165.043153 
L 518.994261 159.882195 
L 530.830625 168.567711 
" style="fill:none;stroke:#08306b;stroke-linecap:square;stroke-width:1.5;"/>
   </g>
   <g id="line2d_18">
    <path clip-path="url(#p426ca906d5)" d="M 140.230625 432.154234 
L 152.066989 422.587579 
L 163.903352 408.866981 
L 175.739716 397.41217 
L 187.57608 383.439819 
L 199.412443 376.390705 
L 211.248807 372.236762 
L 223.08517 368.586328 
L 234.921534 362.795984 
L 246.757898 362.418353 
L 258.594261 330.571462 
L 270.430625 319.494282 
L 282.266989 302.878513 
L 294.103352 292.178964 
L 305.939716 274.430302 
L 317.77608 240.06587 
L 329.612443 223.575977 
L 341.448807 218.415019 
L 353.28517 219.422035 
L 365.121534 223.827731 
L 376.957898 241.954025 
L 388.794261 264.611893 
L 400.630625 267.758819 
L 412.466989 259.325057 
L 424.303352 226.345272 
L 436.139716 190.470316 
L 447.97608 150.063786 
L 459.812443 129.168197 
L 471.648807 116.580493 
L 483.48517 120.356804 
L 495.321534 124.007238 
L 507.157898 132.315123 
L 518.994261 145.658089 
L 530.830625 148.427384 
" style="fill:none;stroke:#08306b;stroke-linecap:square;stroke-width:1.5;"/>
   </g>
   <g id="line2d_19">
    <path clip-path="url(#p426ca906d5)" d="M 140.230625 430.266078 
L 152.066989 416.923112 
L 163.903352 402.824883 
L 175.739716 388.474901 
L 187.57608 382.181049 
L 199.412443 370.474484 
L 211.248807 374.88018 
L 223.08517 368.334574 
L 234.921534 353.229329 
L 246.757898 340.389871 
L 258.594261 323.522348 
L 270.430625 296.458784 
L 282.266989 285.255727 
L 294.103352 286.766252 
L 305.939716 281.73117 
L 317.77608 255.045237 
L 329.612443 235.282542 
L 341.448807 231.883862 
L 353.28517 219.170281 
L 365.121534 226.597026 
L 376.957898 208.596609 
L 388.794261 192.232594 
L 400.630625 214.261076 
L 412.466989 222.820715 
L 424.303352 236.289558 
L 436.139716 239.436484 
L 447.97608 233.394387 
L 459.812443 207.086085 
L 471.648807 191.854963 
L 483.48517 158.623424 
L 495.321534 133.196262 
L 507.157898 119.349788 
L 518.994261 91.153331 
L 530.830625 81.712553 
" style="fill:none;stroke:#08306b;stroke-linecap:square;stroke-width:1.5;"/>
   </g>
   <g id="line2d_20">
    <path clip-path="url(#p426ca906d5)" d="M 140.230625 428.755554 
L 152.066989 410.503383 
L 163.903352 399.55208 
L 175.739716 392.377089 
L 187.57608 390.61481 
L 199.412443 375.257811 
L 211.248807 372.614393 
L 223.08517 370.726238 
L 234.921534 359.271427 
L 246.757898 339.382855 
L 258.594261 321.634192 
L 270.430625 313.703938 
L 282.266989 306.906578 
L 294.103352 303.382021 
L 305.939716 288.654407 
L 317.77608 270.779868 
L 329.612443 253.786467 
L 341.448807 226.471149 
L 353.28517 212.750552 
L 365.121534 202.806266 
L 376.957898 201.547495 
L 388.794261 207.71547 
L 400.630625 209.477749 
L 412.466989 208.722487 
L 424.303352 191.854963 
L 436.139716 192.861979 
L 447.97608 189.966807 
L 459.812443 183.92471 
L 471.648807 157.1129 
L 483.48517 129.168197 
L 495.321534 117.96514 
L 507.157898 110.538395 
L 518.994261 91.279208 
L 530.830625 92.412101 
" style="fill:none;stroke:#08306b;stroke-linecap:square;stroke-width:1.5;"/>
   </g>
   <g id="line2d_21">
    <path clip-path="url(#p426ca906d5)" d="M 140.230625 431.524848 
L 152.066989 418.937144 
L 163.903352 409.622243 
L 175.739716 395.775769 
L 187.57608 379.663508 
L 199.412443 359.14555 
L 211.248807 342.026273 
L 223.08517 329.186814 
L 234.921534 324.27761 
L 246.757898 337.494699 
L 258.594261 323.018839 
L 270.430625 311.186398 
L 282.266989 306.151316 
L 294.103352 305.270177 
L 305.939716 306.528947 
L 317.77608 291.423702 
L 329.612443 286.262744 
L 341.448807 258.569795 
L 353.28517 229.995706 
L 365.121534 208.093101 
L 376.957898 207.967224 
L 388.794261 229.869829 
L 400.630625 233.897895 
L 412.466989 237.296575 
L 424.303352 185.057603 
L 436.139716 180.400152 
L 447.97608 189.337422 
L 459.812443 183.92471 
L 471.648807 173.854546 
L 483.48517 171.337005 
L 495.321534 151.951941 
L 507.157898 131.559861 
L 518.994261 112.552427 
L 530.830625 94.426134 
" style="fill:none;stroke:#08306b;stroke-linecap:square;stroke-width:1.5;"/>
   </g>
   <g id="line2d_22">
    <path clip-path="url(#p426ca906d5)" d="M 140.230625 429.888447 
L 152.066989 421.958193 
L 163.903352 417.048989 
L 175.739716 414.405571 
L 187.57608 403.328391 
L 199.412443 400.181465 
L 211.248807 389.859548 
L 223.08517 374.628426 
L 234.921534 359.523181 
L 246.757898 352.474067 
L 258.594261 342.529781 
L 270.430625 334.221896 
L 282.266989 328.557429 
L 294.103352 312.319291 
L 305.939716 295.325891 
L 317.77608 278.33249 
L 329.612443 257.814532 
L 341.448807 264.989524 
L 353.28517 270.528113 
L 365.121534 269.646974 
L 376.957898 234.149649 
L 388.794261 215.645724 
L 400.630625 197.015922 
L 412.466989 178.889628 
L 424.303352 193.113734 
L 436.139716 178.008489 
L 447.97608 153.336589 
L 459.812443 134.958541 
L 471.648807 111.293657 
L 483.48517 119.098034 
L 495.321534 119.727419 
L 507.157898 84.104216 
L 518.994261 75.166946 
L 530.830625 77.55861 
" style="fill:none;stroke:#08306b;stroke-linecap:square;stroke-width:1.5;"/>
   </g>
   <g id="line2d_23">
    <path clip-path="url(#p426ca906d5)" d="M 140.230625 432.028357 
L 152.066989 426.741521 
L 163.903352 421.077054 
L 175.739716 410.503383 
L 187.57608 403.580145 
L 199.412443 392.502966 
L 211.248807 371.985008 
L 223.08517 347.942493 
L 234.921534 334.347773 
L 246.757898 310.557012 
L 258.594261 295.829399 
L 270.430625 284.878096 
L 282.266989 290.920194 
L 294.103352 297.339923 
L 305.939716 297.843431 
L 317.77608 295.074136 
L 329.612443 278.206613 
L 341.448807 262.471983 
L 353.28517 235.534296 
L 365.121534 219.170281 
L 376.957898 202.680389 
L 388.794261 185.812865 
L 400.630625 178.38612 
L 412.466989 171.085251 
L 424.303352 194.876012 
L 436.139716 213.757568 
L 447.97608 218.918527 
L 459.812443 192.610225 
L 471.648807 165.546662 
L 483.48517 149.308523 
L 495.321534 146.539228 
L 507.157898 137.97959 
L 518.994261 143.014671 
L 530.830625 145.406335 
" style="fill:none;stroke:#08306b;stroke-linecap:square;stroke-width:1.5;"/>
   </g>
   <g id="line2d_24">
    <path clip-path="url(#p426ca906d5)" d="M 140.230625 432.657742 
L 152.066989 427.874414 
L 163.903352 410.881014 
L 175.739716 392.251212 
L 187.57608 376.642459 
L 199.412443 368.963959 
L 211.248807 364.935894 
L 223.08517 365.94291 
L 234.921534 369.970976 
L 246.757898 385.07622 
L 258.594261 382.055172 
L 270.430625 357.509149 
L 282.266989 337.620576 
L 294.103352 318.864897 
L 305.939716 297.717554 
L 317.77608 279.213629 
L 329.612443 269.521097 
L 341.448807 263.101368 
L 353.28517 243.338673 
L 365.121534 231.002723 
L 376.957898 233.897895 
L 388.794261 234.779034 
L 400.630625 231.380354 
L 412.466989 232.765001 
L 424.303352 213.002306 
L 436.139716 210.358888 
L 447.97608 203.309774 
L 459.812443 205.701438 
L 471.648807 193.743119 
L 483.48517 188.58216 
L 495.321534 164.162014 
L 507.157898 170.204112 
L 518.994261 166.553678 
L 530.830625 170.078235 
" style="fill:none;stroke:#4a98c9;stroke-linecap:square;stroke-width:1.5;"/>
   </g>
   <g id="line2d_25">
    <path clip-path="url(#p426ca906d5)" d="M 140.230625 431.273094 
L 152.066989 421.202931 
L 163.903352 413.398555 
L 175.739716 407.23058 
L 187.57608 401.062605 
L 199.412443 405.09067 
L 211.248807 401.188482 
L 223.08517 387.21613 
L 234.921534 380.796401 
L 246.757898 361.159583 
L 258.594261 340.515748 
L 270.430625 316.473233 
L 282.266989 292.80835 
L 294.103352 268.388204 
L 305.939716 259.450934 
L 317.77608 244.345689 
L 329.612443 245.478582 
L 341.448807 257.311024 
L 353.28517 256.555762 
L 365.121534 260.583827 
L 376.957898 256.178131 
L 388.794261 233.016755 
L 400.630625 213.505814 
L 412.466989 217.156248 
L 424.303352 223.198346 
L 436.139716 203.05802 
L 447.97608 216.778617 
L 459.812443 210.862396 
L 471.648807 196.764168 
L 483.48517 193.491365 
L 495.321534 168.945342 
L 507.157898 171.714637 
L 518.994261 160.133949 
L 530.830625 182.036554 
" style="fill:none;stroke:#4a98c9;stroke-linecap:square;stroke-width:1.5;"/>
   </g>
   <g id="line2d_26">
    <path clip-path="url(#p426ca906d5)" d="M 140.230625 432.154234 
L 152.066989 428.629677 
L 163.903352 421.202931 
L 175.739716 411.006891 
L 187.57608 398.041556 
L 199.412443 378.656491 
L 211.248807 374.502549 
L 223.08517 363.173615 
L 234.921534 351.718805 
L 246.757898 342.529781 
L 258.594261 338.249961 
L 270.430625 331.07497 
L 282.266989 332.207863 
L 294.103352 337.242945 
L 305.939716 343.159166 
L 317.77608 319.242528 
L 329.612443 301.367988 
L 341.448807 293.311858 
L 353.28517 290.542563 
L 365.121534 290.164932 
L 376.957898 263.604876 
L 388.794261 257.05927 
L 400.630625 249.632525 
L 412.466989 221.561945 
L 424.303352 182.414185 
L 436.139716 167.434817 
L 447.97608 159.882195 
L 459.812443 161.015088 
L 471.648807 172.973407 
L 483.48517 176.497964 
L 495.321534 181.281292 
L 507.157898 165.16903 
L 518.994261 161.266842 
L 530.830625 170.833497 
" style="fill:none;stroke:#4a98c9;stroke-linecap:square;stroke-width:1.5;"/>
   </g>
   <g id="line2d_27">
    <path clip-path="url(#p426ca906d5)" d="M 140.230625 430.266078 
L 152.066989 418.433636 
L 163.903352 410.125752 
L 175.739716 397.538047 
L 187.57608 383.565696 
L 199.412443 370.096853 
L 211.248807 358.012657 
L 223.08517 346.683723 
L 234.921534 345.55083 
L 246.757898 358.642042 
L 258.594261 350.963542 
L 270.430625 348.697756 
L 282.266989 325.032872 
L 294.103352 316.59911 
L 305.939716 316.095602 
L 317.77608 299.228079 
L 329.612443 272.290392 
L 341.448807 253.031205 
L 353.28517 224.582994 
L 365.121534 200.91811 
L 376.957898 190.470316 
L 388.794261 181.658923 
L 400.630625 172.84753 
L 412.466989 153.588343 
L 424.303352 165.420785 
L 436.139716 160.51158 
L 447.97608 151.322556 
L 459.812443 177.50498 
L 471.648807 201.925126 
L 483.48517 198.022938 
L 495.321534 202.680389 
L 507.157898 198.7782 
L 518.994261 197.51943 
L 530.830625 191.225578 
" style="fill:none;stroke:#4a98c9;stroke-linecap:square;stroke-width:1.5;"/>
   </g>
   <g id="line2d_28">
    <path clip-path="url(#p426ca906d5)" d="M 140.230625 431.273094 
L 152.066989 421.832316 
L 163.903352 410.251629 
L 175.739716 393.132351 
L 187.57608 379.789385 
L 199.412443 371.607377 
L 211.248807 378.530614 
L 223.08517 380.041139 
L 234.921534 373.117902 
L 246.757898 372.74027 
L 258.594261 349.830649 
L 270.430625 329.564446 
L 282.266989 330.697339 
L 294.103352 311.94166 
L 305.939716 284.500465 
L 317.77608 257.814532 
L 329.612443 245.100951 
L 341.448807 244.72332 
L 353.28517 242.079902 
L 365.121534 248.373754 
L 376.957898 271.409253 
L 388.794261 284.878096 
L 400.630625 300.990357 
L 412.466989 297.339923 
L 424.303352 263.604876 
L 436.139716 210.862396 
L 447.97608 172.595776 
L 459.812443 156.735269 
L 471.648807 150.063786 
L 483.48517 137.09845 
L 495.321534 156.231761 
L 507.157898 192.232594 
L 518.994261 184.679972 
L 530.830625 204.442667 
" style="fill:none;stroke:#4a98c9;stroke-linecap:square;stroke-width:1.5;"/>
   </g>
   <g id="line2d_29">
    <path clip-path="url(#p426ca906d5)" d="M 140.230625 430.895463 
L 152.066989 425.860382 
L 163.903352 416.797235 
L 175.739716 409.873997 
L 187.57608 409.873997 
L 199.412443 396.405154 
L 211.248807 382.432803 
L 223.08517 383.81745 
L 234.921534 365.187648 
L 246.757898 354.4881 
L 258.594261 337.117068 
L 270.430625 329.564446 
L 282.266989 306.277193 
L 294.103352 289.283793 
L 305.939716 292.682473 
L 317.77608 289.157916 
L 329.612443 262.094352 
L 341.448807 251.394803 
L 353.28517 237.044821 
L 365.121534 225.338256 
L 376.957898 206.4567 
L 388.794261 197.771184 
L 400.630625 194.498381 
L 412.466989 207.589593 
L 424.303352 220.429051 
L 436.139716 234.904911 
L 447.97608 236.793067 
L 459.812443 255.8005 
L 471.648807 254.541729 
L 483.48517 210.610642 
L 495.321534 184.931726 
L 507.157898 155.602375 
L 518.994261 121.993206 
L 530.830625 127.909426 
" style="fill:none;stroke:#4a98c9;stroke-linecap:square;stroke-width:1.5;"/>
   </g>
   <g id="line2d_30">
    <path clip-path="url(#p426ca906d5)" d="M 140.230625 432.154234 
L 152.066989 423.468718 
L 163.903352 405.594178 
L 175.739716 400.684974 
L 187.57608 386.460868 
L 199.412443 393.132351 
L 211.248807 393.509982 
L 223.08517 389.733671 
L 234.921534 387.971392 
L 246.757898 371.985008 
L 258.594261 361.914845 
L 270.430625 346.431969 
L 282.266989 319.871913 
L 294.103352 306.277193 
L 305.939716 283.745203 
L 317.77608 287.647391 
L 329.612443 292.934227 
L 341.448807 255.422869 
L 353.28517 226.471149 
L 365.121534 219.799666 
L 376.957898 225.967641 
L 388.794261 227.604043 
L 400.630625 229.366321 
L 412.466989 208.596609 
L 424.303352 208.470732 
L 436.139716 214.261076 
L 447.97608 220.680805 
L 459.812443 214.764584 
L 471.648807 205.701438 
L 483.48517 184.302341 
L 495.321534 174.861563 
L 507.157898 177.882612 
L 518.994261 161.644473 
L 530.830625 179.015505 
" style="fill:none;stroke:#4a98c9;stroke-linecap:square;stroke-width:1.5;"/>
   </g>
   <g id="line2d_31">
    <path clip-path="url(#p426ca906d5)" d="M 140.230625 432.028357 
L 152.066989 423.468718 
L 163.903352 411.006891 
L 175.739716 396.656908 
L 187.57608 383.313942 
L 199.412443 366.068787 
L 211.248807 354.4881 
L 223.08517 353.984591 
L 234.921534 352.851698 
L 246.757898 349.453018 
L 258.594261 328.305675 
L 270.430625 322.641208 
L 282.266989 311.312275 
L 294.103352 310.557012 
L 305.939716 300.235095 
L 317.77608 279.339506 
L 329.612443 263.101368 
L 341.448807 257.814532 
L 353.28517 246.989107 
L 365.121534 239.436484 
L 376.957898 228.98869 
L 388.794261 234.023772 
L 400.630625 245.856214 
L 412.466989 234.52728 
L 424.303352 210.358888 
L 436.139716 192.610225 
L 447.97608 175.490948 
L 459.812443 183.672955 
L 471.648807 196.386537 
L 483.48517 185.435234 
L 495.321534 171.840514 
L 507.157898 178.38612 
L 518.994261 144.525196 
L 530.830625 163.658506 
" style="fill:none;stroke:#4a98c9;stroke-linecap:square;stroke-width:1.5;"/>
   </g>
   <g id="line2d_32">
    <path clip-path="url(#p426ca906d5)" d="M 140.230625 431.273094 
L 152.066989 425.482751 
L 163.903352 421.706439 
L 175.739716 412.769169 
L 187.57608 415.538464 
L 199.412443 410.377506 
L 211.248807 397.789802 
L 223.08517 387.21613 
L 234.921534 366.949927 
L 246.757898 348.068371 
L 258.594261 325.032872 
L 270.430625 316.59911 
L 282.266989 309.172365 
L 294.103352 301.74562 
L 305.939716 304.640792 
L 317.77608 296.584661 
L 329.612443 281.101785 
L 341.448807 286.766252 
L 353.28517 258.318041 
L 365.121534 238.177714 
L 376.957898 220.05142 
L 388.794261 192.484348 
L 400.630625 187.449267 
L 412.466989 174.232177 
L 424.303352 155.476498 
L 436.139716 154.721236 
L 447.97608 155.728252 
L 459.812443 146.413351 
L 471.648807 169.700604 
L 483.48517 166.805432 
L 495.321534 157.490531 
L 507.157898 147.420368 
L 518.994261 113.433567 
L 530.830625 120.608558 
" style="fill:none;stroke:#4a98c9;stroke-linecap:square;stroke-width:1.5;"/>
   </g>
   <g id="line2d_33">
    <path clip-path="url(#p426ca906d5)" d="M 140.230625 432.657742 
L 152.066989 432.280111 
L 163.903352 429.259062 
L 175.739716 423.720472 
L 187.57608 406.852949 
L 199.412443 384.950343 
L 211.248807 354.613977 
L 223.08517 335.480666 
L 234.921534 330.823216 
L 246.757898 313.326307 
L 258.594261 312.571045 
L 270.430625 301.619743 
L 282.266989 304.514914 
L 294.103352 304.26316 
L 305.939716 292.430719 
L 317.77608 302.375005 
L 329.612443 283.87108 
L 341.448807 256.304008 
L 353.28517 229.743952 
L 365.121534 217.533879 
L 376.957898 222.19133 
L 388.794261 229.618075 
L 400.630625 229.240444 
L 412.466989 232.639124 
L 424.303352 247.996123 
L 436.139716 245.730336 
L 447.97608 226.471149 
L 459.812443 216.400986 
L 471.648807 186.568127 
L 483.48517 147.672122 
L 495.321534 151.700187 
L 507.157898 135.965557 
L 518.994261 147.168614 
L 530.830625 164.917276 
" style="fill:none;stroke:#4a98c9;stroke-linecap:square;stroke-width:1.5;"/>
   </g>
   <g id="line2d_34">
    <path clip-path="url(#p426ca906d5)" d="M 140.230625 432.531865 
L 152.066989 429.76257 
L 163.903352 423.216964 
L 175.739716 415.034956 
L 187.57608 408.992858 
L 199.412443 401.188482 
L 211.248807 401.566113 
L 223.08517 397.789802 
L 234.921534 407.104703 
L 246.757898 390.740687 
L 258.594261 396.908662 
L 270.430625 401.188482 
L 282.266989 397.663925 
L 294.103352 396.1534 
L 305.939716 386.209114 
L 317.77608 364.68414 
L 329.612443 356.628009 
L 341.448807 354.4881 
L 353.28517 365.313525 
L 365.121534 364.68414 
L 376.957898 373.117902 
L 388.794261 371.733254 
L 400.630625 367.705189 
L 412.466989 360.656075 
L 424.303352 336.739437 
L 436.139716 341.522764 
L 447.97608 342.278027 
L 459.812443 330.949093 
L 471.648807 329.942077 
L 483.48517 314.836832 
L 495.321534 295.829399 
L 507.157898 289.40967 
L 518.994261 285.255727 
L 530.830625 293.815366 
" style="fill:none;stroke:#d0e1f2;stroke-linecap:square;stroke-width:1.5;"/>
   </g>
   <g id="line2d_35">
    <path clip-path="url(#p426ca906d5)" d="M 140.230625 433.16125 
L 152.066989 429.636693 
L 163.903352 420.195915 
L 175.739716 412.139784 
L 187.57608 403.076637 
L 199.412443 404.335408 
L 211.248807 404.964793 
L 223.08517 401.69199 
L 234.921534 396.782785 
L 246.757898 393.509982 
L 258.594261 395.272261 
L 270.430625 380.41877 
L 282.266989 379.285877 
L 294.103352 382.810434 
L 305.939716 371.607377 
L 317.77608 362.670107 
L 329.612443 388.349024 
L 341.448807 377.397721 
L 353.28517 378.782368 
L 365.121534 375.257811 
L 376.957898 370.852115 
L 388.794261 353.732837 
L 400.630625 345.802584 
L 412.466989 332.459617 
L 424.303352 335.354789 
L 436.139716 328.053921 
L 447.97608 341.648641 
L 459.812443 333.718388 
L 471.648807 325.284626 
L 483.48517 325.032872 
L 495.321534 305.018423 
L 507.157898 305.270177 
L 518.994261 291.423702 
L 530.830625 307.787718 
" style="fill:none;stroke:#d0e1f2;stroke-linecap:square;stroke-width:1.5;"/>
   </g>
   <g id="line2d_36">
    <path clip-path="url(#p426ca906d5)" d="M 140.230625 432.657742 
L 152.066989 423.091087 
L 163.903352 415.160833 
L 175.739716 405.845932 
L 187.57608 405.971809 
L 199.412443 405.594178 
L 211.248807 404.335408 
L 223.08517 413.524432 
L 234.921534 403.8319 
L 246.757898 397.034539 
L 258.594261 395.775769 
L 270.430625 382.936311 
L 282.266989 374.754303 
L 294.103352 361.033706 
L 305.939716 353.355206 
L 317.77608 364.054755 
L 329.612443 372.236762 
L 341.448807 382.55868 
L 353.28517 381.929294 
L 365.121534 380.922278 
L 376.957898 376.138951 
L 388.794261 374.754303 
L 400.630625 369.970976 
L 412.466989 366.194664 
L 424.303352 354.110468 
L 436.139716 368.208697 
L 447.97608 336.739437 
L 459.812443 340.263994 
L 471.648807 327.802167 
L 483.48517 318.235512 
L 495.321534 310.053504 
L 507.157898 298.472817 
L 518.994261 284.878096 
L 530.830625 303.885529 
" style="fill:none;stroke:#d0e1f2;stroke-linecap:square;stroke-width:1.5;"/>
   </g>
   <g id="line2d_37">
    <path clip-path="url(#p426ca906d5)" d="M 140.230625 433.16125 
L 152.066989 431.273094 
L 163.903352 427.874414 
L 175.739716 425.482751 
L 187.57608 421.202931 
L 199.412443 414.531448 
L 211.248807 409.622243 
L 223.08517 403.454268 
L 234.921534 412.265661 
L 246.757898 407.985842 
L 258.594261 402.195498 
L 270.430625 398.545064 
L 282.266989 388.726655 
L 294.103352 381.174032 
L 305.939716 381.803417 
L 317.77608 376.894213 
L 329.612443 370.977992 
L 341.448807 360.404321 
L 353.28517 357.131517 
L 365.121534 345.55083 
L 376.957898 347.564862 
L 388.794261 342.907412 
L 400.630625 348.320125 
L 412.466989 341.396887 
L 424.303352 338.627592 
L 436.139716 346.180215 
L 447.97608 330.193831 
L 459.812443 325.662257 
L 471.648807 307.535963 
L 483.48517 293.437735 
L 495.321534 290.290809 
L 507.157898 287.647391 
L 518.994261 283.745203 
L 530.830625 302.878513 
" style="fill:none;stroke:#d0e1f2;stroke-linecap:square;stroke-width:1.5;"/>
   </g>
   <g id="line2d_38">
    <path clip-path="url(#p426ca906d5)" d="M 140.230625 433.035373 
L 152.066989 431.90248 
L 163.903352 427.245029 
L 175.739716 425.105119 
L 187.57608 423.720472 
L 199.412443 416.293727 
L 211.248807 411.132768 
L 223.08517 410.377506 
L 234.921534 410.503383 
L 246.757898 408.237596 
L 258.594261 406.978826 
L 270.430625 401.188482 
L 282.266989 393.258228 
L 294.103352 379.034123 
L 305.939716 372.74027 
L 317.77608 355.243362 
L 329.612443 345.802584 
L 341.448807 335.606544 
L 353.28517 329.690323 
L 365.121534 325.788134 
L 376.957898 318.361389 
L 388.794261 322.389454 
L 400.630625 337.368822 
L 412.466989 344.417936 
L 424.303352 358.138534 
L 436.139716 361.914845 
L 447.97608 339.005224 
L 459.812443 329.942077 
L 471.648807 330.319708 
L 483.48517 325.662257 
L 495.321534 326.291642 
L 507.157898 321.508315 
L 518.994261 319.620159 
L 530.830625 314.962709 
" style="fill:none;stroke:#d0e1f2;stroke-linecap:square;stroke-width:1.5;"/>
   </g>
   <g id="line2d_39">
    <path clip-path="url(#p426ca906d5)" d="M 140.230625 431.524848 
L 152.066989 428.629677 
L 163.903352 428.755554 
L 175.739716 429.133185 
L 187.57608 426.238013 
L 199.412443 422.713456 
L 211.248807 417.048989 
L 223.08517 409.999875 
L 234.921534 391.244195 
L 246.757898 385.453852 
L 258.594261 376.264828 
L 270.430625 368.460451 
L 282.266989 369.34159 
L 294.103352 380.796401 
L 305.939716 381.048155 
L 317.77608 380.922278 
L 329.612443 369.719222 
L 341.448807 355.243362 
L 353.28517 354.4881 
L 365.121534 350.963542 
L 376.957898 345.173199 
L 388.794261 358.642042 
L 400.630625 365.187648 
L 412.466989 360.907829 
L 424.303352 352.851698 
L 436.139716 351.592928 
L 447.97608 341.019256 
L 459.812443 342.026273 
L 471.648807 358.138534 
L 483.48517 322.011823 
L 495.321534 309.172365 
L 507.157898 277.954859 
L 518.994261 236.918944 
L 530.830625 267.758819 
" style="fill:none;stroke:#d0e1f2;stroke-linecap:square;stroke-width:1.5;"/>
   </g>
   <g id="line2d_40">
    <path clip-path="url(#p426ca906d5)" d="M 140.230625 433.16125 
L 152.066989 428.377922 
L 163.903352 421.706439 
L 175.739716 425.230996 
L 187.57608 419.56653 
L 199.412443 416.671358 
L 211.248807 406.223563 
L 223.08517 401.817867 
L 234.921534 406.475317 
L 246.757898 401.062605 
L 258.594261 399.929711 
L 270.430625 395.146384 
L 282.266989 398.796818 
L 294.103352 389.104286 
L 305.939716 382.936311 
L 317.77608 367.453435 
L 329.612443 354.236346 
L 341.448807 354.110468 
L 353.28517 348.068371 
L 365.121534 353.984591 
L 376.957898 356.879763 
L 388.794261 354.865731 
L 400.630625 347.942493 
L 412.466989 351.844682 
L 424.303352 361.411337 
L 436.139716 354.110468 
L 447.97608 341.019256 
L 459.812443 338.75347 
L 471.648807 321.382438 
L 483.48517 318.613143 
L 495.321534 312.067537 
L 507.157898 305.773685 
L 518.994261 286.010989 
L 530.830625 300.612726 
" style="fill:none;stroke:#d0e1f2;stroke-linecap:square;stroke-width:1.5;"/>
   </g>
   <g id="line2d_41">
    <path clip-path="url(#p426ca906d5)" d="M 140.230625 429.384939 
L 152.066989 415.034956 
L 163.903352 407.23058 
L 175.739716 397.915679 
L 187.57608 395.649892 
L 199.412443 393.509982 
L 211.248807 386.964376 
L 223.08517 390.111302 
L 234.921534 390.111302 
L 246.757898 385.453852 
L 258.594261 390.363056 
L 270.430625 387.21613 
L 282.266989 387.467884 
L 294.103352 393.384105 
L 305.939716 390.992441 
L 317.77608 398.29331 
L 329.612443 392.377089 
L 341.448807 379.915262 
L 353.28517 374.124918 
L 365.121534 369.593344 
L 376.957898 365.313525 
L 388.794261 361.788968 
L 400.630625 357.131517 
L 412.466989 335.858298 
L 424.303352 325.032872 
L 436.139716 319.494282 
L 447.97608 331.956109 
L 459.812443 330.067954 
L 471.648807 329.942077 
L 483.48517 332.585495 
L 495.321534 327.67629 
L 507.157898 324.025856 
L 518.994261 298.095185 
L 530.830625 320.375422 
" style="fill:none;stroke:#d0e1f2;stroke-linecap:square;stroke-width:1.5;"/>
   </g>
   <g id="line2d_42">
    <path clip-path="url(#p426ca906d5)" d="M 140.230625 433.16125 
L 152.066989 432.657742 
L 163.903352 431.90248 
L 175.739716 430.643709 
L 187.57608 426.112136 
L 199.412443 420.321792 
L 211.248807 411.132768 
L 223.08517 408.866981 
L 234.921534 391.621827 
L 246.757898 390.61481 
L 258.594261 383.062188 
L 270.430625 391.49595 
L 282.266989 386.460868 
L 294.103352 378.782368 
L 305.939716 378.027106 
L 317.77608 375.887197 
L 329.612443 376.013074 
L 341.448807 375.761319 
L 353.28517 371.229746 
L 365.121534 364.558263 
L 376.957898 349.075387 
L 388.794261 341.648641 
L 400.630625 349.578895 
L 412.466989 351.467051 
L 424.303352 355.243362 
L 436.139716 362.292476 
L 447.97608 349.704772 
L 459.812443 333.21488 
L 471.648807 321.130684 
L 483.48517 300.612726 
L 495.321534 282.486432 
L 507.157898 263.85663 
L 518.994261 243.212796 
L 530.830625 268.765835 
" style="fill:none;stroke:#d0e1f2;stroke-linecap:square;stroke-width:1.5;"/>
   </g>
   <g id="line2d_43">
    <path clip-path="url(#p426ca906d5)" d="M 140.230625 433.16125 
L 152.066989 432.280111 
L 163.903352 431.02134 
L 175.739716 427.748537 
L 187.57608 421.328808 
L 199.412443 414.909079 
L 211.248807 396.531031 
L 223.08517 378.27886 
L 234.921534 370.977992 
L 246.757898 366.194664 
L 258.594261 356.502132 
L 270.430625 365.94291 
L 282.266989 375.887197 
L 294.103352 385.07622 
L 305.939716 381.299909 
L 317.77608 383.81745 
L 329.612443 372.362639 
L 341.448807 370.096853 
L 353.28517 361.788968 
L 365.121534 356.376255 
L 376.957898 368.712205 
L 388.794261 366.446418 
L 400.630625 362.166599 
L 412.466989 369.089836 
L 424.303352 348.823633 
L 436.139716 349.956526 
L 447.97608 338.124084 
L 459.812443 329.186814 
L 471.648807 317.732004 
L 483.48517 313.578061 
L 495.321534 309.424119 
L 507.157898 298.095185 
L 518.994261 279.087752 
L 530.830625 301.493865 
" style="fill:none;stroke:#d0e1f2;stroke-linecap:square;stroke-width:1.5;"/>
   </g>
   <g id="line2d_44">
    <path clip-path="url(#p426ca906d5)" d="M 140.230625 430.895463 
L 152.066989 422.08407 
L 163.903352 410.503383 
L 175.739716 397.538047 
L 187.57608 384.069204 
L 199.412443 378.404737 
L 211.248807 365.94291 
L 223.08517 359.14555 
L 234.921534 363.551247 
L 246.757898 355.495116 
L 258.594261 354.362223 
L 270.430625 350.963542 
L 282.266989 328.809183 
L 294.103352 297.4658 
L 305.939716 261.33909 
L 317.77608 240.695255 
L 329.612443 229.869829 
L 341.448807 249.254894 
L 353.28517 238.177714 
L 365.121534 212.121167 
L 376.957898 197.393553 
L 388.794261 200.414602 
L 400.630625 208.218978 
L 412.466989 191.351455 
L 424.303352 185.561111 
L 436.139716 198.274692 
L 447.97608 186.190496 
L 459.812443 175.490948 
L 471.648807 166.05017 
L 483.48517 168.819465 
L 495.321534 161.266842 
L 507.157898 162.903244 
L 518.994261 162.399736 
L 530.830625 165.16903 
" style="fill:none;stroke:#1764ab;stroke-linecap:square;stroke-width:1.5;"/>
   </g>
   <g id="line2d_45">
    <path clip-path="url(#p426ca906d5)" d="M 140.230625 431.650726 
L 152.066989 425.356873 
L 163.903352 414.909079 
L 175.739716 402.824883 
L 187.57608 399.174449 
L 199.412443 394.01349 
L 211.248807 389.985425 
L 223.08517 380.544647 
L 234.921534 368.963959 
L 246.757898 351.467051 
L 258.594261 332.711372 
L 270.430625 313.452184 
L 282.266989 296.081153 
L 294.103352 285.759235 
L 305.939716 275.437318 
L 317.77608 258.695672 
L 329.612443 238.051837 
L 341.448807 231.002723 
L 353.28517 212.121167 
L 365.121534 224.205363 
L 376.957898 228.359305 
L 388.794261 209.225995 
L 400.630625 194.246627 
L 412.466989 196.890045 
L 424.303352 185.561111 
L 436.139716 177.882612 
L 447.97608 182.288308 
L 459.812443 174.1063 
L 471.648807 166.05017 
L 483.48517 164.917276 
L 495.321534 164.162014 
L 507.157898 169.197096 
L 518.994261 173.099284 
L 530.830625 174.609809 
" style="fill:none;stroke:#1764ab;stroke-linecap:square;stroke-width:1.5;"/>
   </g>
   <g id="line2d_46">
    <path clip-path="url(#p426ca906d5)" d="M 140.230625 432.909496 
L 152.066989 427.874414 
L 163.903352 419.063021 
L 175.739716 407.985842 
L 187.57608 390.237179 
L 199.412443 377.397721 
L 211.248807 361.663091 
L 223.08517 345.676707 
L 234.921534 326.921028 
L 246.757898 324.655241 
L 258.594261 312.193414 
L 270.430625 303.759652 
L 282.266989 307.032455 
L 294.103352 300.990357 
L 305.939716 277.451351 
L 317.77608 271.031622 
L 329.612443 268.388204 
L 341.448807 262.975491 
L 353.28517 253.912344 
L 365.121534 245.478582 
L 376.957898 251.017172 
L 388.794261 254.667606 
L 400.630625 245.982091 
L 412.466989 219.925543 
L 424.303352 180.651906 
L 436.139716 157.742285 
L 447.97608 154.595359 
L 459.812443 141.000639 
L 471.648807 132.441 
L 483.48517 105.755067 
L 495.321534 101.097617 
L 507.157898 112.174796 
L 518.994261 113.181813 
L 530.830625 106.258575 
" style="fill:none;stroke:#1764ab;stroke-linecap:square;stroke-width:1.5;"/>
   </g>
   <g id="line2d_47">
    <path clip-path="url(#p426ca906d5)" d="M 140.230625 431.776603 
L 152.066989 429.76257 
L 163.903352 422.839333 
L 175.739716 412.139784 
L 187.57608 402.699006 
L 199.412443 384.320958 
L 211.248807 362.54423 
L 223.08517 342.278027 
L 234.921534 340.389871 
L 246.757898 346.180215 
L 258.594261 361.411337 
L 270.430625 359.397304 
L 282.266989 344.040305 
L 294.103352 322.1377 
L 305.939716 303.256144 
L 317.77608 283.87108 
L 329.612443 246.107968 
L 341.448807 234.52728 
L 353.28517 229.743952 
L 365.121534 213.631691 
L 376.957898 194.246627 
L 388.794261 171.462883 
L 400.630625 163.784383 
L 412.466989 155.224744 
L 424.303352 152.958958 
L 436.139716 160.763334 
L 447.97608 146.790983 
L 459.812443 146.03572 
L 471.648807 121.741451 
L 483.48517 116.328739 
L 495.321534 120.734435 
L 507.157898 143.644057 
L 518.994261 155.854129 
L 530.830625 175.742702 
" style="fill:none;stroke:#1764ab;stroke-linecap:square;stroke-width:1.5;"/>
   </g>
   <g id="line2d_48">
    <path clip-path="url(#p426ca906d5)" d="M 140.230625 432.028357 
L 152.066989 424.853365 
L 163.903352 414.153817 
L 175.739716 400.307342 
L 187.57608 390.488933 
L 199.412443 377.901229 
L 211.248807 375.887197 
L 223.08517 373.243779 
L 234.921534 371.229746 
L 246.757898 360.781952 
L 258.594261 343.788551 
L 270.430625 322.892962 
L 282.266989 302.375005 
L 294.103352 306.151316 
L 305.939716 295.577645 
L 317.77608 276.444334 
L 329.612443 266.500048 
L 341.448807 251.646557 
L 353.28517 225.59001 
L 365.121534 231.883862 
L 376.957898 246.989107 
L 388.794261 258.947426 
L 400.630625 271.912761 
L 412.466989 251.017172 
L 424.303352 225.086502 
L 436.139716 175.113317 
L 447.97608 138.231344 
L 459.812443 116.076985 
L 471.648807 121.36382 
L 483.48517 121.237943 
L 495.321534 116.202862 
L 507.157898 127.531795 
L 518.994261 155.728252 
L 530.830625 189.463299 
" style="fill:none;stroke:#1764ab;stroke-linecap:square;stroke-width:1.5;"/>
   </g>
   <g id="line2d_49">
    <path clip-path="url(#p426ca906d5)" d="M 140.230625 431.02134 
L 152.066989 421.706439 
L 163.903352 410.377506 
L 175.739716 396.656908 
L 187.57608 387.845515 
L 199.412443 370.474484 
L 211.248807 370.22273 
L 223.08517 372.74027 
L 234.921534 360.530198 
L 246.757898 348.320125 
L 258.594261 334.851281 
L 270.430625 309.172365 
L 282.266989 296.20703 
L 294.103352 296.081153 
L 305.939716 292.556596 
L 317.77608 272.542146 
L 329.612443 242.457533 
L 341.448807 238.303591 
L 353.28517 234.149649 
L 365.121534 230.24746 
L 376.957898 212.624675 
L 388.794261 206.4567 
L 400.630625 211.491781 
L 412.466989 230.121583 
L 424.303352 231.757985 
L 436.139716 245.730336 
L 447.97608 229.618075 
L 459.812443 217.156248 
L 471.648807 198.022938 
L 483.48517 160.889211 
L 495.321534 126.776533 
L 507.157898 107.7691 
L 518.994261 88.006405 
L 530.830625 77.936241 
" style="fill:none;stroke:#1764ab;stroke-linecap:square;stroke-width:1.5;"/>
   </g>
   <g id="line2d_50">
    <path clip-path="url(#p426ca906d5)" d="M 140.230625 433.16125 
L 152.066989 422.713456 
L 163.903352 409.118735 
L 175.739716 393.635859 
L 187.57608 384.824466 
L 199.412443 382.306926 
L 211.248807 383.313942 
L 223.08517 371.733254 
L 234.921534 352.851698 
L 246.757898 327.802167 
L 258.594261 331.578478 
L 270.430625 312.948676 
L 282.266989 307.410086 
L 294.103352 303.759652 
L 305.939716 287.521514 
L 317.77608 264.863647 
L 329.612443 249.632525 
L 341.448807 239.058853 
L 353.28517 237.044821 
L 365.121534 223.827731 
L 376.957898 209.85538 
L 388.794261 204.820298 
L 400.630625 203.813282 
L 412.466989 196.764168 
L 424.303352 174.232177 
L 436.139716 172.469899 
L 447.97608 165.043153 
L 459.812443 152.83308 
L 471.648807 146.790983 
L 483.48517 146.287474 
L 495.321534 135.83968 
L 507.157898 140.119499 
L 518.994261 129.797582 
L 530.830625 116.70637 
" style="fill:none;stroke:#1764ab;stroke-linecap:square;stroke-width:1.5;"/>
   </g>
   <g id="line2d_51">
    <path clip-path="url(#p426ca906d5)" d="M 140.230625 431.273094 
L 152.066989 423.216964 
L 163.903352 411.258645 
L 175.739716 399.426203 
L 187.57608 382.936311 
L 199.412443 362.670107 
L 211.248807 346.557846 
L 223.08517 343.788551 
L 234.921534 337.368822 
L 246.757898 327.046905 
L 258.594261 307.158332 
L 270.430625 285.003973 
L 282.266989 285.255727 
L 294.103352 291.423702 
L 305.939716 288.025022 
L 317.77608 295.451768 
L 329.612443 291.675456 
L 341.448807 276.570211 
L 353.28517 250.639541 
L 365.121534 241.954025 
L 376.957898 239.688239 
L 388.794261 239.814116 
L 400.630625 249.380771 
L 412.466989 240.569378 
L 424.303352 200.540479 
L 436.139716 168.693588 
L 447.97608 148.049753 
L 459.812443 176.120333 
L 471.648807 191.477332 
L 483.48517 168.441834 
L 495.321534 150.567294 
L 507.157898 121.237943 
L 518.994261 90.020437 
L 530.830625 70.76125 
" style="fill:none;stroke:#1764ab;stroke-linecap:square;stroke-width:1.5;"/>
   </g>
   <g id="line2d_52">
    <path clip-path="url(#p426ca906d5)" d="M 140.230625 432.909496 
L 152.066989 431.147217 
L 163.903352 426.741521 
L 175.739716 423.468718 
L 187.57608 415.916095 
L 199.412443 399.677957 
L 211.248807 382.810434 
L 223.08517 369.467467 
L 234.921534 354.991608 
L 246.757898 353.229329 
L 258.594261 340.01224 
L 270.430625 324.27761 
L 282.266989 306.025439 
L 294.103352 303.130267 
L 305.939716 298.976325 
L 317.77608 289.157916 
L 329.612443 282.738186 
L 341.448807 269.646974 
L 353.28517 257.05927 
L 365.121534 246.86323 
L 376.957898 223.953608 
L 388.794261 185.057603 
L 400.630625 170.078235 
L 412.466989 178.763751 
L 424.303352 183.672955 
L 436.139716 174.735686 
L 447.97608 171.840514 
L 459.812443 140.245376 
L 471.648807 128.287058 
L 483.48517 115.573476 
L 495.321534 100.342355 
L 507.157898 110.664272 
L 518.994261 96.69192 
L 530.830625 99.461215 
" style="fill:none;stroke:#1764ab;stroke-linecap:square;stroke-width:1.5;"/>
   </g>
   <g id="line2d_53">
    <path clip-path="url(#p426ca906d5)" d="M 140.230625 431.524848 
L 152.066989 428.629677 
L 163.903352 426.867398 
L 175.739716 423.594595 
L 187.57608 410.503383 
L 199.412443 396.1534 
L 211.248807 373.62141 
L 223.08517 355.620993 
L 234.921534 337.998207 
L 246.757898 324.151733 
L 258.594261 308.920611 
L 270.430625 292.556596 
L 282.266989 277.451351 
L 294.103352 272.919777 
L 305.939716 268.388204 
L 317.77608 275.185564 
L 329.612443 278.33249 
L 341.448807 257.814532 
L 353.28517 225.464133 
L 365.121534 201.799249 
L 376.957898 189.211545 
L 388.794261 193.617242 
L 400.630625 187.701021 
L 412.466989 190.344439 
L 424.303352 194.624258 
L 436.139716 195.127766 
L 447.97608 176.749718 
L 459.812443 173.225161 
L 471.648807 155.476498 
L 483.48517 127.909426 
L 495.321534 117.084001 
L 507.157898 118.216894 
L 518.994261 101.852879 
L 530.830625 93.29324 
" style="fill:none;stroke:#1764ab;stroke-linecap:square;stroke-width:1.5;"/>
   </g>
   <g id="line2d_54">
    <path clip-path="url(#p426ca906d5)" d="M 140.230625 432.028357 
L 152.066989 425.986259 
L 163.903352 412.769169 
L 175.739716 403.076637 
L 187.57608 393.258228 
L 199.412443 385.579729 
L 211.248807 380.41877 
L 223.08517 394.01349 
L 234.921534 397.915679 
L 246.757898 397.034539 
L 258.594261 383.81745 
L 270.430625 358.516165 
L 282.266989 325.53638 
L 294.103352 304.137283 
L 305.939716 294.570628 
L 317.77608 280.4724 
L 329.612443 264.73777 
L 341.448807 264.486016 
L 353.28517 261.842598 
L 365.121534 260.332073 
L 376.957898 248.625508 
L 388.794261 252.275943 
L 400.630625 258.318041 
L 412.466989 253.157082 
L 424.303352 246.611476 
L 436.139716 247.492615 
L 447.97608 238.051837 
L 459.812443 228.736936 
L 471.648807 214.135199 
L 483.48517 202.932143 
L 495.321534 194.246627 
L 507.157898 206.834331 
L 518.994261 201.169864 
L 530.830625 217.533879 
" style="fill:none;stroke:#94c4df;stroke-linecap:square;stroke-width:1.5;"/>
   </g>
   <g id="line2d_55">
    <path clip-path="url(#p426ca906d5)" d="M 140.230625 429.510816 
L 152.066989 418.68539 
L 163.903352 413.272678 
L 175.739716 405.468301 
L 187.57608 402.824883 
L 199.412443 400.055588 
L 211.248807 396.405154 
L 223.08517 386.334991 
L 234.921534 382.181049 
L 246.757898 372.110885 
L 258.594261 356.753886 
L 270.430625 322.892962 
L 282.266989 310.305258 
L 294.103352 307.66184 
L 305.939716 314.710955 
L 317.77608 291.92721 
L 329.612443 288.906161 
L 341.448807 278.835998 
L 353.28517 276.821966 
L 365.121534 290.794317 
L 376.957898 310.053504 
L 388.794261 310.808766 
L 400.630625 292.80835 
L 412.466989 274.807933 
L 424.303352 242.961042 
L 436.139716 222.568961 
L 447.97608 221.561945 
L 459.812443 211.365904 
L 471.648807 224.205363 
L 483.48517 254.415852 
L 495.321534 260.835581 
L 507.157898 284.374588 
L 518.994261 280.094769 
L 530.830625 290.66844 
" style="fill:none;stroke:#94c4df;stroke-linecap:square;stroke-width:1.5;"/>
   </g>
   <g id="line2d_56">
    <path clip-path="url(#p426ca906d5)" d="M 140.230625 432.531865 
L 152.066989 431.398971 
L 163.903352 425.356873 
L 175.739716 410.62926 
L 187.57608 398.167433 
L 199.412443 377.271844 
L 211.248807 372.236762 
L 223.08517 362.54423 
L 234.921534 345.676707 
L 246.757898 343.41092 
L 258.594261 343.788551 
L 270.430625 348.571879 
L 282.266989 338.501715 
L 294.103352 335.480666 
L 305.939716 327.298659 
L 317.77608 323.270594 
L 329.612443 324.529364 
L 341.448807 312.445168 
L 353.28517 304.137283 
L 365.121534 316.59911 
L 376.957898 324.655241 
L 388.794261 325.410503 
L 400.630625 315.088586 
L 412.466989 287.899145 
L 424.303352 262.975491 
L 436.139716 242.835165 
L 447.97608 223.575977 
L 459.812443 207.71547 
L 471.648807 196.386537 
L 483.48517 223.701854 
L 495.321534 233.772018 
L 507.157898 228.98869 
L 518.994261 233.142632 
L 530.830625 239.18473 
" style="fill:none;stroke:#94c4df;stroke-linecap:square;stroke-width:1.5;"/>
   </g>
   <g id="line2d_57">
    <path clip-path="url(#p426ca906d5)" d="M 140.230625 431.147217 
L 152.066989 422.713456 
L 163.903352 412.013907 
L 175.739716 402.069621 
L 187.57608 391.118318 
L 199.412443 383.062188 
L 211.248807 367.201681 
L 223.08517 361.788968 
L 234.921534 360.404321 
L 246.757898 348.94951 
L 258.594261 347.061354 
L 270.430625 330.823216 
L 282.266989 320.87893 
L 294.103352 308.039472 
L 305.939716 296.710538 
L 317.77608 291.046071 
L 329.612443 289.787301 
L 341.448807 296.836415 
L 353.28517 301.367988 
L 365.121534 291.549579 
L 376.957898 264.73777 
L 388.794261 257.05927 
L 400.630625 249.129017 
L 412.466989 235.78605 
L 424.303352 240.821132 
L 436.139716 248.122 
L 447.97608 237.044821 
L 459.812443 220.554928 
L 471.648807 187.197513 
L 483.48517 168.441834 
L 495.321534 183.92471 
L 507.157898 198.904077 
L 518.994261 209.100118 
L 530.830625 261.213212 
" style="fill:none;stroke:#94c4df;stroke-linecap:square;stroke-width:1.5;"/>
   </g>
   <g id="line2d_58">
    <path clip-path="url(#p426ca906d5)" d="M 140.230625 430.517832 
L 152.066989 419.440653 
L 163.903352 408.615227 
L 175.739716 402.573129 
L 187.57608 392.75472 
L 199.412443 387.719638 
L 211.248807 396.531031 
L 223.08517 396.908662 
L 234.921534 388.978409 
L 246.757898 385.453852 
L 258.594261 378.656491 
L 270.430625 364.432386 
L 282.266989 341.648641 
L 294.103352 321.256561 
L 305.939716 298.724571 
L 317.77608 275.563195 
L 329.612443 266.751802 
L 341.448807 271.031622 
L 353.28517 278.33249 
L 365.121534 283.115818 
L 376.957898 300.738603 
L 388.794261 306.40307 
L 400.630625 300.86448 
L 412.466989 288.150899 
L 424.303352 282.612309 
L 436.139716 272.164515 
L 447.97608 266.625925 
L 459.812443 246.107968 
L 471.648807 235.282542 
L 483.48517 237.296575 
L 495.321534 228.359305 
L 507.157898 242.961042 
L 518.994261 243.338673 
L 530.830625 265.744786 
" style="fill:none;stroke:#94c4df;stroke-linecap:square;stroke-width:1.5;"/>
   </g>
   <g id="line2d_59">
    <path clip-path="url(#p426ca906d5)" d="M 140.230625 431.273094 
L 152.066989 427.496783 
L 163.903352 411.006891 
L 175.739716 403.202514 
L 187.57608 402.195498 
L 199.412443 396.027523 
L 211.248807 387.467884 
L 223.08517 394.642876 
L 234.921534 385.579729 
L 246.757898 370.726238 
L 258.594261 345.55083 
L 270.430625 337.494699 
L 282.266989 339.005224 
L 294.103352 336.235929 
L 305.939716 322.515331 
L 317.77608 302.500882 
L 329.612443 269.521097 
L 341.448807 261.087335 
L 353.28517 246.737353 
L 365.121534 251.017172 
L 376.957898 254.793483 
L 388.794261 248.751385 
L 400.630625 235.282542 
L 412.466989 250.26191 
L 424.303352 265.744786 
L 436.139716 289.283793 
L 447.97608 284.878096 
L 459.812443 273.67504 
L 471.648807 265.241278 
L 483.48517 256.555762 
L 495.321534 231.883862 
L 507.157898 223.953608 
L 518.994261 205.575561 
L 530.830625 221.561945 
" style="fill:none;stroke:#94c4df;stroke-linecap:square;stroke-width:1.5;"/>
   </g>
   <g id="line2d_60">
    <path clip-path="url(#p426ca906d5)" d="M 140.230625 432.405988 
L 152.066989 426.112136 
L 163.903352 419.56653 
L 175.739716 411.258645 
L 187.57608 405.09067 
L 199.412443 395.272261 
L 211.248807 377.775352 
L 223.08517 364.68414 
L 234.921534 352.34819 
L 246.757898 330.823216 
L 258.594261 324.655241 
L 270.430625 331.326724 
L 282.266989 326.795151 
L 294.103352 322.1377 
L 305.939716 312.319291 
L 317.77608 318.235512 
L 329.612443 315.466217 
L 341.448807 307.032455 
L 353.28517 294.318874 
L 365.121534 280.724154 
L 376.957898 273.171531 
L 388.794261 275.185564 
L 400.630625 256.052254 
L 412.466989 263.353122 
L 424.303352 259.828565 
L 436.139716 243.716304 
L 447.97608 237.800083 
L 459.812443 236.289558 
L 471.648807 228.736936 
L 483.48517 230.121583 
L 495.321534 204.568544 
L 507.157898 219.673789 
L 518.994261 223.953608 
L 530.830625 244.72332 
" style="fill:none;stroke:#94c4df;stroke-linecap:square;stroke-width:1.5;"/>
   </g>
   <g id="line2d_61">
    <path clip-path="url(#p426ca906d5)" d="M 140.230625 432.154234 
L 152.066989 422.839333 
L 163.903352 408.992858 
L 175.739716 398.167433 
L 187.57608 371.985008 
L 199.412443 369.467467 
L 211.248807 366.446418 
L 223.08517 358.138534 
L 234.921534 354.613977 
L 246.757898 350.963542 
L 258.594261 339.760486 
L 270.430625 334.096019 
L 282.266989 336.235929 
L 294.103352 317.983758 
L 305.939716 311.186398 
L 317.77608 329.060937 
L 329.612443 327.550413 
L 341.448807 325.788134 
L 353.28517 314.962709 
L 365.121534 315.088586 
L 376.957898 309.927627 
L 388.794261 299.228079 
L 400.630625 287.26976 
L 412.466989 261.213212 
L 424.303352 237.422452 
L 436.139716 239.688239 
L 447.97608 222.946592 
L 459.812443 220.932559 
L 471.648807 238.932976 
L 483.48517 244.471566 
L 495.321534 253.912344 
L 507.157898 269.017589 
L 518.994261 256.555762 
L 530.830625 274.556179 
" style="fill:none;stroke:#94c4df;stroke-linecap:square;stroke-width:1.5;"/>
   </g>
   <g id="line2d_62">
    <path clip-path="url(#p426ca906d5)" d="M 140.230625 429.636693 
L 152.066989 415.916095 
L 163.903352 410.881014 
L 175.739716 415.538464 
L 187.57608 415.28671 
L 199.412443 416.545481 
L 211.248807 394.768753 
L 223.08517 381.551663 
L 234.921534 374.376672 
L 246.757898 372.992025 
L 258.594261 355.998624 
L 270.430625 343.285043 
L 282.266989 325.284626 
L 294.103352 305.270177 
L 305.939716 303.00439 
L 317.77608 302.249128 
L 329.612443 298.095185 
L 341.448807 300.990357 
L 353.28517 305.1443 
L 365.121534 296.458784 
L 376.957898 284.374588 
L 388.794261 270.653991 
L 400.630625 282.989941 
L 412.466989 275.689072 
L 424.303352 246.485599 
L 436.139716 238.303591 
L 447.97608 253.534713 
L 459.812443 237.296575 
L 471.648807 219.799666 
L 483.48517 206.582577 
L 495.321534 182.162431 
L 507.157898 176.120333 
L 518.994261 156.483515 
L 530.830625 187.071636 
" style="fill:none;stroke:#94c4df;stroke-linecap:square;stroke-width:1.5;"/>
   </g>
   <g id="line2d_63">
    <path clip-path="url(#p426ca906d5)" d="M 140.230625 433.035373 
L 152.066989 432.531865 
L 163.903352 430.014324 
L 175.739716 427.62266 
L 187.57608 414.02794 
L 199.412443 402.321375 
L 211.248807 388.600778 
L 223.08517 364.306509 
L 234.921534 342.529781 
L 246.757898 326.039888 
L 258.594261 316.724987 
L 270.430625 317.102619 
L 282.266989 312.571045 
L 294.103352 303.885529 
L 305.939716 285.885112 
L 317.77608 273.800917 
L 329.612443 293.689489 
L 341.448807 276.19258 
L 353.28517 275.814949 
L 365.121534 255.045237 
L 376.957898 247.996123 
L 388.794261 226.345272 
L 400.630625 244.093935 
L 412.466989 254.038221 
L 424.303352 264.486016 
L 436.139716 267.129433 
L 447.97608 260.583827 
L 459.812443 231.883862 
L 471.648807 208.974241 
L 483.48517 192.358471 
L 495.321534 175.994456 
L 507.157898 166.931309 
L 518.994261 168.945342 
L 530.830625 176.372087 
" style="fill:none;stroke:#94c4df;stroke-linecap:square;stroke-width:1.5;"/>
   </g>
   <g id="line2d_64">
    <path clip-path="url(#p426ca906d5)" d="M 140.230625 433.16125 
L 152.066989 433.16125 
L 163.903352 433.16125 
L 175.739716 433.16125 
L 187.57608 433.16125 
L 199.412443 433.16125 
L 211.248807 433.16125 
L 223.08517 433.16125 
L 234.921534 433.16125 
L 246.757898 433.16125 
L 258.594261 433.16125 
L 270.430625 433.16125 
L 282.266989 433.16125 
L 294.103352 433.16125 
L 305.939716 433.16125 
L 317.77608 433.16125 
L 329.612443 433.16125 
L 341.448807 433.16125 
L 353.28517 433.16125 
L 365.121534 433.16125 
L 376.957898 433.16125 
L 388.794261 433.16125 
L 400.630625 433.16125 
L 412.466989 433.16125 
L 424.303352 433.16125 
L 436.139716 433.16125 
L 447.97608 433.16125 
L 459.812443 433.16125 
L 471.648807 433.16125 
L 483.48517 433.16125 
L 495.321534 433.16125 
L 507.157898 433.16125 
L 518.994261 433.16125 
L 530.830625 433.16125 
" style="fill:none;stroke:#000000;stroke-linecap:square;stroke-width:1.5;"/>
   </g>
   <g id="line2d_65">
    <path clip-path="url(#p426ca906d5)" d="M 140.230625 433.16125 
L 152.066989 433.16125 
L 163.903352 433.16125 
L 175.739716 433.16125 
L 187.57608 433.16125 
L 199.412443 433.16125 
L 211.248807 433.16125 
L 223.08517 433.16125 
L 234.921534 433.16125 
L 246.757898 433.16125 
L 258.594261 433.16125 
L 270.430625 433.16125 
L 282.266989 433.16125 
L 294.103352 433.16125 
L 305.939716 433.16125 
L 317.77608 433.16125 
L 329.612443 433.16125 
L 341.448807 433.16125 
L 353.28517 433.16125 
L 365.121534 433.16125 
L 376.957898 433.16125 
L 388.794261 433.16125 
L 400.630625 433.16125 
L 412.466989 433.16125 
L 424.303352 433.16125 
L 436.139716 433.16125 
L 447.97608 433.16125 
L 459.812443 433.16125 
L 471.648807 433.16125 
L 483.48517 433.16125 
L 495.321534 433.16125 
L 507.157898 433.16125 
L 518.994261 433.16125 
L 530.830625 433.16125 
" style="fill:none;stroke:#000000;stroke-linecap:square;stroke-width:1.5;"/>
   </g>
   <g id="line2d_66">
    <path clip-path="url(#p426ca906d5)" d="M 140.230625 433.16125 
L 152.066989 433.16125 
L 163.903352 433.16125 
L 175.739716 433.16125 
L 187.57608 433.16125 
L 199.412443 433.16125 
L 211.248807 433.16125 
L 223.08517 433.16125 
L 234.921534 433.16125 
L 246.757898 433.16125 
L 258.594261 433.16125 
L 270.430625 433.16125 
L 282.266989 433.16125 
L 294.103352 433.16125 
L 305.939716 433.16125 
L 317.77608 433.16125 
L 329.612443 433.16125 
L 341.448807 433.16125 
L 353.28517 433.16125 
L 365.121534 433.16125 
L 376.957898 433.16125 
L 388.794261 433.16125 
L 400.630625 433.16125 
L 412.466989 433.16125 
L 424.303352 433.16125 
L 436.139716 433.16125 
L 447.97608 433.16125 
L 459.812443 433.16125 
L 471.648807 433.16125 
L 483.48517 433.16125 
L 495.321534 433.16125 
L 507.157898 433.16125 
L 518.994261 433.16125 
L 530.830625 433.16125 
" style="fill:none;stroke:#000000;stroke-linecap:square;stroke-width:1.5;"/>
   </g>
   <g id="line2d_67">
    <path clip-path="url(#p426ca906d5)" d="M 140.230625 433.16125 
L 152.066989 433.16125 
L 163.903352 433.16125 
L 175.739716 433.16125 
L 187.57608 433.16125 
L 199.412443 433.16125 
L 211.248807 433.16125 
L 223.08517 433.16125 
L 234.921534 433.16125 
L 246.757898 433.16125 
L 258.594261 433.16125 
L 270.430625 433.16125 
L 282.266989 433.16125 
L 294.103352 433.16125 
L 305.939716 433.16125 
L 317.77608 433.16125 
L 329.612443 433.16125 
L 341.448807 433.16125 
L 353.28517 433.16125 
L 365.121534 433.16125 
L 376.957898 433.16125 
L 388.794261 433.16125 
L 400.630625 433.16125 
L 412.466989 433.16125 
L 424.303352 433.16125 
L 436.139716 433.16125 
L 447.97608 433.16125 
L 459.812443 433.16125 
L 471.648807 433.16125 
L 483.48517 433.16125 
L 495.321534 433.16125 
L 507.157898 433.16125 
L 518.994261 433.16125 
L 530.830625 433.16125 
" style="fill:none;stroke:#000000;stroke-linecap:square;stroke-width:1.5;"/>
   </g>
   <g id="line2d_68">
    <path clip-path="url(#p426ca906d5)" d="M 140.230625 433.16125 
L 152.066989 433.16125 
L 163.903352 433.16125 
L 175.739716 433.16125 
L 187.57608 433.16125 
L 199.412443 433.16125 
L 211.248807 433.16125 
L 223.08517 433.16125 
L 234.921534 433.16125 
L 246.757898 433.16125 
L 258.594261 433.16125 
L 270.430625 433.16125 
L 282.266989 433.16125 
L 294.103352 433.16125 
L 305.939716 433.16125 
L 317.77608 433.16125 
L 329.612443 433.16125 
L 341.448807 433.16125 
L 353.28517 433.16125 
L 365.121534 433.16125 
L 376.957898 433.16125 
L 388.794261 433.16125 
L 400.630625 433.16125 
L 412.466989 433.16125 
L 424.303352 433.16125 
L 436.139716 433.16125 
L 447.97608 433.16125 
L 459.812443 433.16125 
L 471.648807 433.16125 
L 483.48517 433.16125 
L 495.321534 433.16125 
L 507.157898 433.16125 
L 518.994261 433.16125 
L 530.830625 433.16125 
" style="fill:none;stroke:#000000;stroke-linecap:square;stroke-width:1.5;"/>
   </g>
   <g id="line2d_69">
    <path clip-path="url(#p426ca906d5)" d="M 140.230625 433.16125 
L 152.066989 433.16125 
L 163.903352 433.16125 
L 175.739716 433.16125 
L 187.57608 433.16125 
L 199.412443 433.16125 
L 211.248807 433.16125 
L 223.08517 433.16125 
L 234.921534 433.16125 
L 246.757898 433.16125 
L 258.594261 433.16125 
L 270.430625 433.16125 
L 282.266989 433.16125 
L 294.103352 433.16125 
L 305.939716 433.16125 
L 317.77608 433.16125 
L 329.612443 433.16125 
L 341.448807 433.16125 
L 353.28517 433.16125 
L 365.121534 433.16125 
L 376.957898 433.16125 
L 388.794261 433.16125 
L 400.630625 433.16125 
L 412.466989 433.16125 
L 424.303352 433.16125 
L 436.139716 433.16125 
L 447.97608 433.16125 
L 459.812443 433.16125 
L 471.648807 433.16125 
L 483.48517 433.16125 
L 495.321534 433.16125 
L 507.157898 433.16125 
L 518.994261 433.16125 
L 530.830625 433.16125 
" style="fill:none;stroke:#000000;stroke-linecap:square;stroke-width:1.5;"/>
   </g>
   <g id="line2d_70">
    <path clip-path="url(#p426ca906d5)" d="M 140.230625 433.16125 
L 152.066989 433.16125 
L 163.903352 433.16125 
L 175.739716 433.16125 
L 187.57608 433.16125 
L 199.412443 433.16125 
L 211.248807 433.16125 
L 223.08517 433.16125 
L 234.921534 433.16125 
L 246.757898 433.16125 
L 258.594261 433.16125 
L 270.430625 433.16125 
L 282.266989 433.16125 
L 294.103352 433.16125 
L 305.939716 433.16125 
L 317.77608 433.16125 
L 329.612443 433.16125 
L 341.448807 433.16125 
L 353.28517 433.16125 
L 365.121534 433.16125 
L 376.957898 433.16125 
L 388.794261 433.16125 
L 400.630625 433.16125 
L 412.466989 433.16125 
L 424.303352 433.16125 
L 436.139716 433.16125 
L 447.97608 433.16125 
L 459.812443 433.16125 
L 471.648807 433.16125 
L 483.48517 433.16125 
L 495.321534 433.16125 
L 507.157898 433.16125 
L 518.994261 433.16125 
L 530.830625 433.16125 
" style="fill:none;stroke:#000000;stroke-linecap:square;stroke-width:1.5;"/>
   </g>
   <g id="line2d_71">
    <path clip-path="url(#p426ca906d5)" d="M 140.230625 433.16125 
L 152.066989 433.16125 
L 163.903352 433.16125 
L 175.739716 433.16125 
L 187.57608 433.16125 
L 199.412443 433.16125 
L 211.248807 433.16125 
L 223.08517 433.16125 
L 234.921534 433.16125 
L 246.757898 433.16125 
L 258.594261 433.16125 
L 270.430625 433.16125 
L 282.266989 433.16125 
L 294.103352 433.16125 
L 305.939716 433.16125 
L 317.77608 433.16125 
L 329.612443 433.16125 
L 341.448807 433.16125 
L 353.28517 433.16125 
L 365.121534 433.16125 
L 376.957898 433.16125 
L 388.794261 433.16125 
L 400.630625 433.16125 
L 412.466989 433.16125 
L 424.303352 433.16125 
L 436.139716 433.16125 
L 447.97608 433.16125 
L 459.812443 433.16125 
L 471.648807 433.16125 
L 483.48517 433.16125 
L 495.321534 433.16125 
L 507.157898 433.16125 
L 518.994261 433.16125 
L 530.830625 433.16125 
" style="fill:none;stroke:#000000;stroke-linecap:square;stroke-width:1.5;"/>
   </g>
   <g id="line2d_72">
    <path clip-path="url(#p426ca906d5)" d="M 140.230625 433.16125 
L 152.066989 433.16125 
L 163.903352 433.16125 
L 175.739716 433.16125 
L 187.57608 433.16125 
L 199.412443 433.16125 
L 211.248807 433.16125 
L 223.08517 433.16125 
L 234.921534 433.16125 
L 246.757898 433.16125 
L 258.594261 433.16125 
L 270.430625 433.16125 
L 282.266989 433.16125 
L 294.103352 433.16125 
L 305.939716 433.16125 
L 317.77608 433.16125 
L 329.612443 433.16125 
L 341.448807 433.16125 
L 353.28517 433.16125 
L 365.121534 433.16125 
L 376.957898 433.16125 
L 388.794261 433.16125 
L 400.630625 433.16125 
L 412.466989 433.16125 
L 424.303352 433.16125 
L 436.139716 433.16125 
L 447.97608 433.16125 
L 459.812443 433.16125 
L 471.648807 433.16125 
L 483.48517 433.16125 
L 495.321534 433.16125 
L 507.157898 433.16125 
L 518.994261 433.16125 
L 530.830625 433.16125 
" style="fill:none;stroke:#000000;stroke-linecap:square;stroke-width:1.5;"/>
   </g>
   <g id="line2d_73">
    <path clip-path="url(#p426ca906d5)" d="M 140.230625 433.16125 
L 152.066989 433.16125 
L 163.903352 433.16125 
L 175.739716 433.16125 
L 187.57608 433.16125 
L 199.412443 433.16125 
L 211.248807 433.16125 
L 223.08517 433.16125 
L 234.921534 433.16125 
L 246.757898 433.16125 
L 258.594261 433.16125 
L 270.430625 433.16125 
L 282.266989 433.16125 
L 294.103352 433.16125 
L 305.939716 433.16125 
L 317.77608 433.16125 
L 329.612443 433.16125 
L 341.448807 433.16125 
L 353.28517 433.16125 
L 365.121534 433.16125 
L 376.957898 433.16125 
L 388.794261 433.16125 
L 400.630625 433.16125 
L 412.466989 433.16125 
L 424.303352 433.16125 
L 436.139716 433.16125 
L 447.97608 433.16125 
L 459.812443 433.16125 
L 471.648807 433.16125 
L 483.48517 433.16125 
L 495.321534 433.16125 
L 507.157898 433.16125 
L 518.994261 433.16125 
L 530.830625 433.16125 
" style="fill:none;stroke:#000000;stroke-linecap:square;stroke-width:1.5;"/>
   </g>
   <g id="line2d_74">
    <path clip-path="url(#p426ca906d5)" d="M 128.394261 433.16125 
" style="fill:none;stroke:#000000;stroke-linecap:square;stroke-width:1.5;"/>
   </g>
   <g id="line2d_75">
    <path clip-path="url(#p426ca906d5)" d="M 128.394261 433.16125 
" style="fill:none;stroke:#d0e1f2;stroke-linecap:square;stroke-width:1.5;"/>
   </g>
   <g id="line2d_76">
    <path clip-path="url(#p426ca906d5)" d="M 128.394261 433.16125 
" style="fill:none;stroke:#94c4df;stroke-linecap:square;stroke-width:1.5;"/>
   </g>
   <g id="line2d_77">
    <path clip-path="url(#p426ca906d5)" d="M 128.394261 433.16125 
" style="fill:none;stroke:#4a98c9;stroke-linecap:square;stroke-width:1.5;"/>
   </g>
   <g id="line2d_78">
    <path clip-path="url(#p426ca906d5)" d="M 128.394261 433.16125 
" style="fill:none;stroke:#1764ab;stroke-linecap:square;stroke-width:1.5;"/>
   </g>
   <g id="line2d_79">
    <path clip-path="url(#p426ca906d5)" d="M 128.394261 433.16125 
" style="fill:none;stroke:#08306b;stroke-linecap:square;stroke-width:1.5;"/>
   </g>
   <g id="line2d_80">
    <path clip-path="url(#p426ca906d5)" d="M 128.394261 433.16125 
" style="fill:none;stroke:#000000;stroke-linecap:square;stroke-width:1.5;"/>
   </g>
   <g id="line2d_81">
    <path clip-path="url(#p426ca906d5)" d="M 128.394261 433.16125 
" style="fill:none;stroke:#000000;stroke-dasharray:1.5,2.475;stroke-dashoffset:0;stroke-width:1.5;"/>
   </g>
   <g id="line2d_82">
    <path clip-path="url(#p426ca906d5)" d="M 128.394261 433.16125 
" style="fill:none;stroke:#000000;stroke-linecap:square;stroke-width:1.5;"/>
   </g>
   <g id="line2d_83">
    <path clip-path="url(#p426ca906d5)" d="M 128.394261 433.16125 
" style="fill:none;stroke:#000000;stroke-dasharray:5.55,2.4;stroke-dashoffset:0;stroke-width:1.5;"/>
   </g>
   <g id="line2d_84">
    <path clip-path="url(#p426ca906d5)" d="M 128.394261 433.16125 
" style="fill:none;stroke:#000000;stroke-dasharray:9.6,2.4,1.5,2.4;stroke-dashoffset:0;stroke-width:1.5;"/>
   </g>
   <g id="line2d_85">
    <path clip-path="url(#p426ca906d5)" d="M 128.394261 433.16125 
" style="fill:none;stroke:#000000;stroke-dasharray:9.6,2.4,1.5,2.4;stroke-dashoffset:0;stroke-width:1.5;"/>
   </g>
   <g id="patch_3">
    <path d="M 140.230625 433.16125 
L 140.230625 52.64125 
" style="fill:none;stroke:#000000;stroke-linecap:square;stroke-linejoin:miter;stroke-width:0.8;"/>
   </g>
   <g id="patch_4">
    <path d="M 530.830625 433.16125 
L 530.830625 52.64125 
" style="fill:none;stroke:#000000;stroke-linecap:square;stroke-linejoin:miter;stroke-width:0.8;"/>
   </g>
   <g id="patch_5">
    <path d="M 140.230625 433.16125 
L 530.830625 433.16125 
" style="fill:none;stroke:#000000;stroke-linecap:square;stroke-linejoin:miter;stroke-width:0.8;"/>
   </g>
   <g id="patch_6">
    <path d="M 140.230625 52.64125 
L 530.830625 52.64125 
" style="fill:none;stroke:#000000;stroke-linecap:square;stroke-linejoin:miter;stroke-width:0.8;"/>
   </g>
   <g id="text_16">
    <!-- CD8 COUNT -->
    <g transform="translate(277.19625 21.515625)scale(0.2 -0.2)">
     <use xlink:href="#Arial-BoldMT-67"/>
     <use x="72.216797" xlink:href="#Arial-BoldMT-68"/>
     <use x="144.433594" xlink:href="#Arial-BoldMT-56"/>
     <use x="200.048828" xlink:href="#Arial-BoldMT-32"/>
     <use x="227.832031" xlink:href="#Arial-BoldMT-67"/>
     <use x="300.048828" xlink:href="#Arial-BoldMT-79"/>
     <use x="377.832031" xlink:href="#Arial-BoldMT-85"/>
     <use x="450.048828" xlink:href="#Arial-BoldMT-78"/>
     <use x="522.265625" xlink:href="#Arial-BoldMT-84"/>
    </g>
    <!-- ACROSS RADIUS AT TIME 7 -->
    <defs>
     <path d="M 4.25 57.859375 
L 4.25 70.609375 
L 51.171875 70.609375 
L 51.171875 60.640625 
Q 45.359375 54.9375 39.34375 44.234375 
Q 33.34375 33.546875 30.1875 21.5 
Q 27.046875 9.46875 27.09375 0 
L 13.875 0 
Q 14.203125 14.84375 19.984375 30.265625 
Q 25.78125 45.703125 35.453125 57.859375 
z
" id="Arial-BoldMT-55"/>
    </defs>
    <g transform="translate(200.536875 42.64125)scale(0.2 -0.2)">
     <use xlink:href="#Arial-BoldMT-65"/>
     <use x="72.216797" xlink:href="#Arial-BoldMT-67"/>
     <use x="144.433594" xlink:href="#Arial-BoldMT-82"/>
     <use x="216.650391" xlink:href="#Arial-BoldMT-79"/>
     <use x="294.433594" xlink:href="#Arial-BoldMT-83"/>
     <use x="361.132812" xlink:href="#Arial-BoldMT-83"/>
     <use x="427.832031" xlink:href="#Arial-BoldMT-32"/>
     <use x="455.615234" xlink:href="#Arial-BoldMT-82"/>
     <use x="527.832031" xlink:href="#Arial-BoldMT-65"/>
     <use x="600.048828" xlink:href="#Arial-BoldMT-68"/>
     <use x="672.265625" xlink:href="#Arial-BoldMT-73"/>
     <use x="700.048828" xlink:href="#Arial-BoldMT-85"/>
     <use x="772.265625" xlink:href="#Arial-BoldMT-83"/>
     <use x="838.964844" xlink:href="#Arial-BoldMT-32"/>
     <use x="866.701172" xlink:href="#Arial-BoldMT-65"/>
     <use x="938.808594" xlink:href="#Arial-BoldMT-84"/>
     <use x="999.892578" xlink:href="#Arial-BoldMT-32"/>
     <use x="1027.675781" xlink:href="#Arial-BoldMT-84"/>
     <use x="1088.759766" xlink:href="#Arial-BoldMT-73"/>
     <use x="1116.542969" xlink:href="#Arial-BoldMT-77"/>
     <use x="1199.84375" xlink:href="#Arial-BoldMT-69"/>
     <use x="1266.542969" xlink:href="#Arial-BoldMT-32"/>
     <use x="1294.326172" xlink:href="#Arial-BoldMT-55"/>
    </g>
   </g>
   <g id="legend_1">
    <g id="line2d_86">
     <path d="M 539.830625 65.739687 
L 559.830625 65.739687 
" style="fill:none;stroke:#000000;stroke-linecap:square;stroke-width:1.5;"/>
    </g>
    <g id="line2d_87"/>
    <g id="text_17">
     <!-- 0 -->
     <g transform="translate(567.830625 69.239687)scale(0.1 -0.1)">
      <use xlink:href="#DejaVuSans-48"/>
     </g>
    </g>
    <g id="line2d_88">
     <path d="M 539.830625 80.417812 
L 559.830625 80.417812 
" style="fill:none;stroke:#d0e1f2;stroke-linecap:square;stroke-width:1.5;"/>
    </g>
    <g id="line2d_89"/>
    <g id="text_18">
     <!-- 100 -->
     <g transform="translate(567.830625 83.917812)scale(0.1 -0.1)">
      <use xlink:href="#DejaVuSans-49"/>
      <use x="63.623047" xlink:href="#DejaVuSans-48"/>
      <use x="127.246094" xlink:href="#DejaVuSans-48"/>
     </g>
    </g>
    <g id="line2d_90">
     <path d="M 539.830625 95.095937 
L 559.830625 95.095937 
" style="fill:none;stroke:#94c4df;stroke-linecap:square;stroke-width:1.5;"/>
    </g>
    <g id="line2d_91"/>
    <g id="text_19">
     <!-- 500 -->
     <g transform="translate(567.830625 98.595937)scale(0.1 -0.1)">
      <use xlink:href="#DejaVuSans-53"/>
      <use x="63.623047" xlink:href="#DejaVuSans-48"/>
      <use x="127.246094" xlink:href="#DejaVuSans-48"/>
     </g>
    </g>
    <g id="line2d_92">
     <path d="M 539.830625 109.774062 
L 559.830625 109.774062 
" style="fill:none;stroke:#4a98c9;stroke-linecap:square;stroke-width:1.5;"/>
    </g>
    <g id="line2d_93"/>
    <g id="text_20">
     <!-- 1000 -->
     <g transform="translate(567.830625 113.274062)scale(0.1 -0.1)">
      <use xlink:href="#DejaVuSans-49"/>
      <use x="63.623047" xlink:href="#DejaVuSans-48"/>
      <use x="127.246094" xlink:href="#DejaVuSans-48"/>
      <use x="190.869141" xlink:href="#DejaVuSans-48"/>
     </g>
    </g>
    <g id="line2d_94">
     <path d="M 539.830625 124.452187 
L 559.830625 124.452187 
" style="fill:none;stroke:#1764ab;stroke-linecap:square;stroke-width:1.5;"/>
    </g>
    <g id="line2d_95"/>
    <g id="text_21">
     <!-- 5000 -->
     <g transform="translate(567.830625 127.952187)scale(0.1 -0.1)">
      <use xlink:href="#DejaVuSans-53"/>
      <use x="63.623047" xlink:href="#DejaVuSans-48"/>
      <use x="127.246094" xlink:href="#DejaVuSans-48"/>
      <use x="190.869141" xlink:href="#DejaVuSans-48"/>
     </g>
    </g>
    <g id="line2d_96">
     <path d="M 539.830625 139.130312 
L 559.830625 139.130312 
" style="fill:none;stroke:#08306b;stroke-linecap:square;stroke-width:1.5;"/>
    </g>
    <g id="line2d_97"/>
    <g id="text_22">
     <!-- 10000 -->
     <g transform="translate(567.830625 142.630312)scale(0.1 -0.1)">
      <use xlink:href="#DejaVuSans-49"/>
      <use x="63.623047" xlink:href="#DejaVuSans-48"/>
      <use x="127.246094" xlink:href="#DejaVuSans-48"/>
      <use x="190.869141" xlink:href="#DejaVuSans-48"/>
      <use x="254.492188" xlink:href="#DejaVuSans-48"/>
     </g>
    </g>
    <g id="line2d_98">
     <path d="M 539.830625 153.808437 
L 559.830625 153.808437 
" style="fill:none;stroke:#000000;stroke-linecap:square;stroke-width:1.5;"/>
    </g>
    <g id="line2d_99"/>
    <g id="text_23">
     <!-- 0 -->
     <g transform="translate(567.830625 157.308437)scale(0.1 -0.1)">
      <use xlink:href="#DejaVuSans-48"/>
     </g>
    </g>
    <g id="line2d_100">
     <path d="M 539.830625 168.486562 
L 559.830625 168.486562 
" style="fill:none;stroke:#000000;stroke-dasharray:1.5,2.475;stroke-dashoffset:0;stroke-width:1.5;"/>
    </g>
    <g id="line2d_101"/>
    <g id="text_24">
     <!-- 250 -->
     <g transform="translate(567.830625 171.986562)scale(0.1 -0.1)">
      <use xlink:href="#DejaVuSans-50"/>
      <use x="63.623047" xlink:href="#DejaVuSans-53"/>
      <use x="127.246094" xlink:href="#DejaVuSans-48"/>
     </g>
    </g>
    <g id="line2d_102">
     <path d="M 539.830625 183.164687 
L 559.830625 183.164687 
" style="fill:none;stroke:#000000;stroke-linecap:square;stroke-width:1.5;"/>
    </g>
    <g id="line2d_103"/>
    <g id="text_25">
     <!-- 500 -->
     <g transform="translate(567.830625 186.664687)scale(0.1 -0.1)">
      <use xlink:href="#DejaVuSans-53"/>
      <use x="63.623047" xlink:href="#DejaVuSans-48"/>
      <use x="127.246094" xlink:href="#DejaVuSans-48"/>
     </g>
    </g>
    <g id="line2d_104">
     <path d="M 539.830625 197.842812 
L 559.830625 197.842812 
" style="fill:none;stroke:#000000;stroke-dasharray:5.55,2.4;stroke-dashoffset:0;stroke-width:1.5;"/>
    </g>
    <g id="line2d_105"/>
    <g id="text_26">
     <!-- 1000 -->
     <g transform="translate(567.830625 201.342812)scale(0.1 -0.1)">
      <use xlink:href="#DejaVuSans-49"/>
      <use x="63.623047" xlink:href="#DejaVuSans-48"/>
      <use x="127.246094" xlink:href="#DejaVuSans-48"/>
      <use x="190.869141" xlink:href="#DejaVuSans-48"/>
     </g>
    </g>
    <g id="line2d_106">
     <path d="M 539.830625 212.520937 
L 559.830625 212.520937 
" style="fill:none;stroke:#000000;stroke-dasharray:9.6,2.4,1.5,2.4;stroke-dashoffset:0;stroke-width:1.5;"/>
    </g>
    <g id="line2d_107"/>
    <g id="text_27">
     <!-- 5000 -->
     <g transform="translate(567.830625 216.020937)scale(0.1 -0.1)">
      <use xlink:href="#DejaVuSans-53"/>
      <use x="63.623047" xlink:href="#DejaVuSans-48"/>
      <use x="127.246094" xlink:href="#DejaVuSans-48"/>
      <use x="190.869141" xlink:href="#DejaVuSans-48"/>
     </g>
    </g>
    <g id="line2d_108">
     <path d="M 539.830625 227.199062 
L 559.830625 227.199062 
" style="fill:none;stroke:#000000;stroke-dasharray:9.6,2.4,1.5,2.4;stroke-dashoffset:0;stroke-width:1.5;"/>
    </g>
    <g id="line2d_109"/>
    <g id="text_28">
     <!-- 10000 -->
     <g transform="translate(567.830625 230.699062)scale(0.1 -0.1)">
      <use xlink:href="#DejaVuSans-49"/>
      <use x="63.623047" xlink:href="#DejaVuSans-48"/>
      <use x="127.246094" xlink:href="#DejaVuSans-48"/>
      <use x="190.869141" xlink:href="#DejaVuSans-48"/>
      <use x="254.492188" xlink:href="#DejaVuSans-48"/>
     </g>
    </g>
   </g>
  </g>
 </g>
 <defs>
  <clipPath id="p426ca906d5">
   <rect height="380.52" width="390.6" x="140.230625" y="52.64125"/>
  </clipPath>
 </defs>
</svg>
