<?xml version="1.0" encoding="utf-8" standalone="no"?>
<!DOCTYPE svg PUBLIC "-//W3C//DTD SVG 1.1//EN"
  "http://www.w3.org/Graphics/SVG/1.1/DTD/svg11.dtd">
<!-- Created with matplotlib (https://matplotlib.org/) -->
<svg height="504.658125pt" version="1.1" viewBox="0 0 582.2025 504.658125" width="582.2025pt" xmlns="http://www.w3.org/2000/svg" xmlns:xlink="http://www.w3.org/1999/xlink">
 <defs>
  <style type="text/css">
*{stroke-linecap:butt;stroke-linejoin:round;}
  </style>
 </defs>
 <g id="figure_1">
  <g id="patch_1">
   <path d="M 0 504.658125 
L 582.2025 504.658125 
L 582.2025 -0 
L 0 -0 
z
" style="fill:#ffffff;"/>
  </g>
  <g id="axes_1">
   <g id="patch_2">
    <path d="M 111.59 433.16125 
L 502.19 433.16125 
L 502.19 52.64125 
L 111.59 52.64125 
z
" style="fill:#ffffff;"/>
   </g>
   <g id="matplotlib.axis_1">
    <g id="xtick_1">
     <g id="line2d_1">
      <defs>
       <path d="M 0 0 
L 0 3.5 
" id="mf5a74bc6c6" style="stroke:#000000;stroke-width:0.8;"/>
      </defs>
      <g>
       <use style="stroke:#000000;stroke-width:0.8;" x="158.935455" xlink:href="#mf5a74bc6c6" y="433.16125"/>
      </g>
     </g>
     <g id="text_1">
      <!-- 5 -->
      <defs>
       <path d="M 10.796875 72.90625 
L 49.515625 72.90625 
L 49.515625 64.59375 
L 19.828125 64.59375 
L 19.828125 46.734375 
Q 21.96875 47.46875 24.109375 47.828125 
Q 26.265625 48.1875 28.421875 48.1875 
Q 40.625 48.1875 47.75 41.5 
Q 54.890625 34.8125 54.890625 23.390625 
Q 54.890625 11.625 47.5625 5.09375 
Q 40.234375 -1.421875 26.90625 -1.421875 
Q 22.3125 -1.421875 17.546875 -0.640625 
Q 12.796875 0.140625 7.71875 1.703125 
L 7.71875 11.625 
Q 12.109375 9.234375 16.796875 8.0625 
Q 21.484375 6.890625 26.703125 6.890625 
Q 35.15625 6.890625 40.078125 11.328125 
Q 45.015625 15.765625 45.015625 23.390625 
Q 45.015625 31 40.078125 35.4375 
Q 35.15625 39.890625 26.703125 39.890625 
Q 22.75 39.890625 18.8125 39.015625 
Q 14.890625 38.140625 10.796875 36.28125 
z
" id="DejaVuSans-53"/>
      </defs>
      <g transform="translate(149.391705 462.956562)scale(0.3 -0.3)">
       <use xlink:href="#DejaVuSans-53"/>
      </g>
     </g>
    </g>
    <g id="xtick_2">
     <g id="line2d_2">
      <g>
       <use style="stroke:#000000;stroke-width:0.8;" x="218.117273" xlink:href="#mf5a74bc6c6" y="433.16125"/>
      </g>
     </g>
     <g id="text_2">
      <!-- 10 -->
      <defs>
       <path d="M 12.40625 8.296875 
L 28.515625 8.296875 
L 28.515625 63.921875 
L 10.984375 60.40625 
L 10.984375 69.390625 
L 28.421875 72.90625 
L 38.28125 72.90625 
L 38.28125 8.296875 
L 54.390625 8.296875 
L 54.390625 0 
L 12.40625 0 
z
" id="DejaVuSans-49"/>
       <path d="M 31.78125 66.40625 
Q 24.171875 66.40625 20.328125 58.90625 
Q 16.5 51.421875 16.5 36.375 
Q 16.5 21.390625 20.328125 13.890625 
Q 24.171875 6.390625 31.78125 6.390625 
Q 39.453125 6.390625 43.28125 13.890625 
Q 47.125 21.390625 47.125 36.375 
Q 47.125 51.421875 43.28125 58.90625 
Q 39.453125 66.40625 31.78125 66.40625 
z
M 31.78125 74.21875 
Q 44.046875 74.21875 50.515625 64.515625 
Q 56.984375 54.828125 56.984375 36.375 
Q 56.984375 17.96875 50.515625 8.265625 
Q 44.046875 -1.421875 31.78125 -1.421875 
Q 19.53125 -1.421875 13.0625 8.265625 
Q 6.59375 17.96875 6.59375 36.375 
Q 6.59375 54.828125 13.0625 64.515625 
Q 19.53125 74.21875 31.78125 74.21875 
z
" id="DejaVuSans-48"/>
      </defs>
      <g transform="translate(199.029773 462.956562)scale(0.3 -0.3)">
       <use xlink:href="#DejaVuSans-49"/>
       <use x="63.623047" xlink:href="#DejaVuSans-48"/>
      </g>
     </g>
    </g>
    <g id="xtick_3">
     <g id="line2d_3">
      <g>
       <use style="stroke:#000000;stroke-width:0.8;" x="277.299091" xlink:href="#mf5a74bc6c6" y="433.16125"/>
      </g>
     </g>
     <g id="text_3">
      <!-- 15 -->
      <g transform="translate(258.211591 462.956562)scale(0.3 -0.3)">
       <use xlink:href="#DejaVuSans-49"/>
       <use x="63.623047" xlink:href="#DejaVuSans-53"/>
      </g>
     </g>
    </g>
    <g id="xtick_4">
     <g id="line2d_4">
      <g>
       <use style="stroke:#000000;stroke-width:0.8;" x="336.480909" xlink:href="#mf5a74bc6c6" y="433.16125"/>
      </g>
     </g>
     <g id="text_4">
      <!-- 20 -->
      <defs>
       <path d="M 19.1875 8.296875 
L 53.609375 8.296875 
L 53.609375 0 
L 7.328125 0 
L 7.328125 8.296875 
Q 12.9375 14.109375 22.625 23.890625 
Q 32.328125 33.6875 34.8125 36.53125 
Q 39.546875 41.84375 41.421875 45.53125 
Q 43.3125 49.21875 43.3125 52.78125 
Q 43.3125 58.59375 39.234375 62.25 
Q 35.15625 65.921875 28.609375 65.921875 
Q 23.96875 65.921875 18.8125 64.3125 
Q 13.671875 62.703125 7.8125 59.421875 
L 7.8125 69.390625 
Q 13.765625 71.78125 18.9375 73 
Q 24.125 74.21875 28.421875 74.21875 
Q 39.75 74.21875 46.484375 68.546875 
Q 53.21875 62.890625 53.21875 53.421875 
Q 53.21875 48.921875 51.53125 44.890625 
Q 49.859375 40.875 45.40625 35.40625 
Q 44.1875 33.984375 37.640625 27.21875 
Q 31.109375 20.453125 19.1875 8.296875 
z
" id="DejaVuSans-50"/>
      </defs>
      <g transform="translate(317.393409 462.956562)scale(0.3 -0.3)">
       <use xlink:href="#DejaVuSans-50"/>
       <use x="63.623047" xlink:href="#DejaVuSans-48"/>
      </g>
     </g>
    </g>
    <g id="xtick_5">
     <g id="line2d_5">
      <g>
       <use style="stroke:#000000;stroke-width:0.8;" x="395.662727" xlink:href="#mf5a74bc6c6" y="433.16125"/>
      </g>
     </g>
     <g id="text_5">
      <!-- 25 -->
      <g transform="translate(376.575227 462.956562)scale(0.3 -0.3)">
       <use xlink:href="#DejaVuSans-50"/>
       <use x="63.623047" xlink:href="#DejaVuSans-53"/>
      </g>
     </g>
    </g>
    <g id="xtick_6">
     <g id="line2d_6">
      <g>
       <use style="stroke:#000000;stroke-width:0.8;" x="454.844545" xlink:href="#mf5a74bc6c6" y="433.16125"/>
      </g>
     </g>
     <g id="text_6">
      <!-- 30 -->
      <defs>
       <path d="M 40.578125 39.3125 
Q 47.65625 37.796875 51.625 33 
Q 55.609375 28.21875 55.609375 21.1875 
Q 55.609375 10.40625 48.1875 4.484375 
Q 40.765625 -1.421875 27.09375 -1.421875 
Q 22.515625 -1.421875 17.65625 -0.515625 
Q 12.796875 0.390625 7.625 2.203125 
L 7.625 11.71875 
Q 11.71875 9.328125 16.59375 8.109375 
Q 21.484375 6.890625 26.8125 6.890625 
Q 36.078125 6.890625 40.9375 10.546875 
Q 45.796875 14.203125 45.796875 21.1875 
Q 45.796875 27.640625 41.28125 31.265625 
Q 36.765625 34.90625 28.71875 34.90625 
L 20.21875 34.90625 
L 20.21875 43.015625 
L 29.109375 43.015625 
Q 36.375 43.015625 40.234375 45.921875 
Q 44.09375 48.828125 44.09375 54.296875 
Q 44.09375 59.90625 40.109375 62.90625 
Q 36.140625 65.921875 28.71875 65.921875 
Q 24.65625 65.921875 20.015625 65.03125 
Q 15.375 64.15625 9.8125 62.3125 
L 9.8125 71.09375 
Q 15.4375 72.65625 20.34375 73.4375 
Q 25.25 74.21875 29.59375 74.21875 
Q 40.828125 74.21875 47.359375 69.109375 
Q 53.90625 64.015625 53.90625 55.328125 
Q 53.90625 49.265625 50.4375 45.09375 
Q 46.96875 40.921875 40.578125 39.3125 
z
" id="DejaVuSans-51"/>
      </defs>
      <g transform="translate(435.757045 462.956562)scale(0.3 -0.3)">
       <use xlink:href="#DejaVuSans-51"/>
       <use x="63.623047" xlink:href="#DejaVuSans-48"/>
      </g>
     </g>
    </g>
    <g id="text_7">
     <!-- RADIUS -->
     <defs>
      <path d="M 7.328125 0 
L 7.328125 71.578125 
L 37.75 71.578125 
Q 49.21875 71.578125 54.421875 69.640625 
Q 59.625 67.71875 62.75 62.78125 
Q 65.875 57.859375 65.875 51.515625 
Q 65.875 43.453125 61.125 38.203125 
Q 56.390625 32.953125 46.96875 31.59375 
Q 51.65625 28.859375 54.703125 25.578125 
Q 57.765625 22.3125 62.9375 13.96875 
L 71.6875 0 
L 54.390625 0 
L 43.953125 15.578125 
Q 38.375 23.921875 36.328125 26.09375 
Q 34.28125 28.265625 31.984375 29.078125 
Q 29.6875 29.890625 24.703125 29.890625 
L 21.78125 29.890625 
L 21.78125 0 
z
M 21.78125 41.3125 
L 32.46875 41.3125 
Q 42.875 41.3125 45.453125 42.1875 
Q 48.046875 43.0625 49.515625 45.203125 
Q 50.984375 47.359375 50.984375 50.59375 
Q 50.984375 54.203125 49.046875 56.421875 
Q 47.125 58.640625 43.609375 59.234375 
Q 41.84375 59.46875 33.0625 59.46875 
L 21.78125 59.46875 
z
" id="Arial-BoldMT-82"/>
      <path d="M 71.828125 0 
L 56.109375 0 
L 49.859375 16.265625 
L 21.234375 16.265625 
L 15.328125 0 
L 0 0 
L 27.875 71.578125 
L 43.171875 71.578125 
z
M 45.21875 28.328125 
L 35.359375 54.890625 
L 25.6875 28.328125 
z
" id="Arial-BoldMT-65"/>
      <path d="M 7.234375 71.578125 
L 33.640625 71.578125 
Q 42.578125 71.578125 47.265625 70.21875 
Q 53.5625 68.359375 58.046875 63.625 
Q 62.546875 58.890625 64.890625 52.03125 
Q 67.234375 45.171875 67.234375 35.109375 
Q 67.234375 26.265625 65.046875 19.875 
Q 62.359375 12.0625 57.375 7.234375 
Q 53.609375 3.5625 47.21875 1.515625 
Q 42.4375 0 34.421875 0 
L 7.234375 0 
z
M 21.6875 59.46875 
L 21.6875 12.0625 
L 32.46875 12.0625 
Q 38.53125 12.0625 41.21875 12.75 
Q 44.734375 13.625 47.046875 15.71875 
Q 49.359375 17.828125 50.828125 22.625 
Q 52.296875 27.4375 52.296875 35.75 
Q 52.296875 44.046875 50.828125 48.484375 
Q 49.359375 52.9375 46.71875 55.421875 
Q 44.09375 57.90625 40.046875 58.796875 
Q 37.015625 59.46875 28.171875 59.46875 
z
" id="Arial-BoldMT-68"/>
      <path d="M 6.84375 0 
L 6.84375 71.578125 
L 21.296875 71.578125 
L 21.296875 0 
z
" id="Arial-BoldMT-73"/>
      <path d="M 7.171875 71.578125 
L 21.625 71.578125 
L 21.625 32.8125 
Q 21.625 23.578125 22.171875 20.84375 
Q 23.09375 16.453125 26.578125 13.796875 
Q 30.078125 11.140625 36.140625 11.140625 
Q 42.28125 11.140625 45.40625 13.640625 
Q 48.53125 16.15625 49.171875 19.8125 
Q 49.8125 23.484375 49.8125 31.984375 
L 49.8125 71.578125 
L 64.265625 71.578125 
L 64.265625 33.984375 
Q 64.265625 21.09375 63.09375 15.765625 
Q 61.921875 10.453125 58.765625 6.78125 
Q 55.609375 3.125 50.328125 0.953125 
Q 45.0625 -1.21875 36.578125 -1.21875 
Q 26.3125 -1.21875 21.015625 1.140625 
Q 15.71875 3.515625 12.640625 7.296875 
Q 9.578125 11.078125 8.59375 15.234375 
Q 7.171875 21.390625 7.171875 33.40625 
z
" id="Arial-BoldMT-85"/>
      <path d="M 3.609375 23.296875 
L 17.671875 24.65625 
Q 18.953125 17.578125 22.828125 14.25 
Q 26.703125 10.9375 33.296875 10.9375 
Q 40.28125 10.9375 43.8125 13.890625 
Q 47.359375 16.84375 47.359375 20.796875 
Q 47.359375 23.34375 45.875 25.125 
Q 44.390625 26.90625 40.671875 28.21875 
Q 38.140625 29.109375 29.109375 31.34375 
Q 17.484375 34.234375 12.796875 38.421875 
Q 6.203125 44.34375 6.203125 52.828125 
Q 6.203125 58.296875 9.296875 63.0625 
Q 12.40625 67.828125 18.234375 70.3125 
Q 24.078125 72.796875 32.328125 72.796875 
Q 45.796875 72.796875 52.609375 66.890625 
Q 59.421875 60.984375 59.765625 51.125 
L 45.3125 50.484375 
Q 44.390625 56 41.328125 58.421875 
Q 38.28125 60.84375 32.171875 60.84375 
Q 25.875 60.84375 22.3125 58.25 
Q 20.015625 56.59375 20.015625 53.8125 
Q 20.015625 51.265625 22.171875 49.46875 
Q 24.90625 47.171875 35.453125 44.671875 
Q 46 42.1875 51.046875 39.515625 
Q 56.109375 36.859375 58.953125 32.25 
Q 61.8125 27.640625 61.8125 20.84375 
Q 61.8125 14.703125 58.390625 9.328125 
Q 54.984375 3.953125 48.734375 1.34375 
Q 42.484375 -1.265625 33.15625 -1.265625 
Q 19.578125 -1.265625 12.296875 5 
Q 5.03125 11.28125 3.609375 23.296875 
z
" id="Arial-BoldMT-83"/>
     </defs>
     <g transform="translate(268.554062 493.51125)scale(0.2 -0.2)">
      <use xlink:href="#Arial-BoldMT-82"/>
      <use x="72.216797" xlink:href="#Arial-BoldMT-65"/>
      <use x="144.433594" xlink:href="#Arial-BoldMT-68"/>
      <use x="216.650391" xlink:href="#Arial-BoldMT-73"/>
      <use x="244.433594" xlink:href="#Arial-BoldMT-85"/>
      <use x="316.650391" xlink:href="#Arial-BoldMT-83"/>
     </g>
    </g>
   </g>
   <g id="matplotlib.axis_2">
    <g id="ytick_1">
     <g id="line2d_7">
      <defs>
       <path d="M 0 0 
L -3.5 0 
" id="m8a4f2e6b01" style="stroke:#000000;stroke-width:0.8;"/>
      </defs>
      <g>
       <use style="stroke:#000000;stroke-width:0.8;" x="111.59" xlink:href="#m8a4f2e6b01" y="433.16125"/>
      </g>
     </g>
     <g id="text_8">
      <!-- 0.0 -->
      <defs>
       <path d="M 10.6875 12.40625 
L 21 12.40625 
L 21 0 
L 10.6875 0 
z
" id="DejaVuSans-46"/>
      </defs>
      <g transform="translate(56.880625 444.558906)scale(0.3 -0.3)">
       <use xlink:href="#DejaVuSans-48"/>
       <use x="63.623047" xlink:href="#DejaVuSans-46"/>
       <use x="95.410156" xlink:href="#DejaVuSans-48"/>
      </g>
     </g>
    </g>
    <g id="ytick_2">
     <g id="line2d_8">
      <g>
       <use style="stroke:#000000;stroke-width:0.8;" x="111.59" xlink:href="#m8a4f2e6b01" y="369.74125"/>
      </g>
     </g>
     <g id="text_9">
      <!-- 0.5 -->
      <g transform="translate(56.880625 381.138906)scale(0.3 -0.3)">
       <use xlink:href="#DejaVuSans-48"/>
       <use x="63.623047" xlink:href="#DejaVuSans-46"/>
       <use x="95.410156" xlink:href="#DejaVuSans-53"/>
      </g>
     </g>
    </g>
    <g id="ytick_3">
     <g id="line2d_9">
      <g>
       <use style="stroke:#000000;stroke-width:0.8;" x="111.59" xlink:href="#m8a4f2e6b01" y="306.32125"/>
      </g>
     </g>
     <g id="text_10">
      <!-- 1.0 -->
      <g transform="translate(56.880625 317.718906)scale(0.3 -0.3)">
       <use xlink:href="#DejaVuSans-49"/>
       <use x="63.623047" xlink:href="#DejaVuSans-46"/>
       <use x="95.410156" xlink:href="#DejaVuSans-48"/>
      </g>
     </g>
    </g>
    <g id="ytick_4">
     <g id="line2d_10">
      <g>
       <use style="stroke:#000000;stroke-width:0.8;" x="111.59" xlink:href="#m8a4f2e6b01" y="242.90125"/>
      </g>
     </g>
     <g id="text_11">
      <!-- 1.5 -->
      <g transform="translate(56.880625 254.298906)scale(0.3 -0.3)">
       <use xlink:href="#DejaVuSans-49"/>
       <use x="63.623047" xlink:href="#DejaVuSans-46"/>
       <use x="95.410156" xlink:href="#DejaVuSans-53"/>
      </g>
     </g>
    </g>
    <g id="ytick_5">
     <g id="line2d_11">
      <g>
       <use style="stroke:#000000;stroke-width:0.8;" x="111.59" xlink:href="#m8a4f2e6b01" y="179.48125"/>
      </g>
     </g>
     <g id="text_12">
      <!-- 2.0 -->
      <g transform="translate(56.880625 190.878906)scale(0.3 -0.3)">
       <use xlink:href="#DejaVuSans-50"/>
       <use x="63.623047" xlink:href="#DejaVuSans-46"/>
       <use x="95.410156" xlink:href="#DejaVuSans-48"/>
      </g>
     </g>
    </g>
    <g id="ytick_6">
     <g id="line2d_12">
      <g>
       <use style="stroke:#000000;stroke-width:0.8;" x="111.59" xlink:href="#m8a4f2e6b01" y="116.06125"/>
      </g>
     </g>
     <g id="text_13">
      <!-- 2.5 -->
      <g transform="translate(56.880625 127.458906)scale(0.3 -0.3)">
       <use xlink:href="#DejaVuSans-50"/>
       <use x="63.623047" xlink:href="#DejaVuSans-46"/>
       <use x="95.410156" xlink:href="#DejaVuSans-53"/>
      </g>
     </g>
    </g>
    <g id="ytick_7">
     <g id="line2d_13">
      <g>
       <use style="stroke:#000000;stroke-width:0.8;" x="111.59" xlink:href="#m8a4f2e6b01" y="52.64125"/>
      </g>
     </g>
     <g id="text_14">
      <!-- 3.0 -->
      <g transform="translate(56.880625 64.038906)scale(0.3 -0.3)">
       <use xlink:href="#DejaVuSans-51"/>
       <use x="63.623047" xlink:href="#DejaVuSans-46"/>
       <use x="95.410156" xlink:href="#DejaVuSans-48"/>
      </g>
     </g>
    </g>
    <g id="text_15">
     <!-- CANCER LIVE NORMALIZED -->
     <defs>
      <path d="M 53.078125 26.3125 
L 67.09375 21.875 
Q 63.875 10.15625 56.375 4.46875 
Q 48.875 -1.21875 37.359375 -1.21875 
Q 23.09375 -1.21875 13.90625 8.515625 
Q 4.734375 18.265625 4.734375 35.15625 
Q 4.734375 53.03125 13.953125 62.90625 
Q 23.1875 72.796875 38.234375 72.796875 
Q 51.375 72.796875 59.578125 65.046875 
Q 64.453125 60.453125 66.890625 51.859375 
L 52.59375 48.4375 
Q 51.3125 54 47.28125 57.21875 
Q 43.265625 60.453125 37.5 60.453125 
Q 29.546875 60.453125 24.578125 54.734375 
Q 19.625 49.03125 19.625 36.234375 
Q 19.625 22.65625 24.5 16.890625 
Q 29.390625 11.140625 37.203125 11.140625 
Q 42.96875 11.140625 47.109375 14.796875 
Q 51.265625 18.453125 53.078125 26.3125 
z
" id="Arial-BoldMT-67"/>
      <path d="M 7.421875 0 
L 7.421875 71.578125 
L 21.484375 71.578125 
L 50.78125 23.78125 
L 50.78125 71.578125 
L 64.203125 71.578125 
L 64.203125 0 
L 49.703125 0 
L 20.84375 46.6875 
L 20.84375 0 
z
" id="Arial-BoldMT-78"/>
      <path d="M 7.28125 0 
L 7.28125 71.578125 
L 60.359375 71.578125 
L 60.359375 59.46875 
L 21.734375 59.46875 
L 21.734375 43.609375 
L 57.671875 43.609375 
L 57.671875 31.546875 
L 21.734375 31.546875 
L 21.734375 12.0625 
L 61.71875 12.0625 
L 61.71875 0 
z
" id="Arial-BoldMT-69"/>
      <path id="Arial-BoldMT-32"/>
      <path d="M 7.671875 0 
L 7.671875 71 
L 22.125 71 
L 22.125 12.0625 
L 58.0625 12.0625 
L 58.0625 0 
z
" id="Arial-BoldMT-76"/>
      <path d="M 25.53125 0 
L -0.046875 71.578125 
L 15.625 71.578125 
L 33.734375 18.609375 
L 51.265625 71.578125 
L 66.609375 71.578125 
L 40.96875 0 
z
" id="Arial-BoldMT-86"/>
      <path d="M 4.34375 35.359375 
Q 4.34375 46.296875 7.625 53.71875 
Q 10.0625 59.1875 14.28125 63.53125 
Q 18.5 67.875 23.53125 69.96875 
Q 30.21875 72.796875 38.96875 72.796875 
Q 54.78125 72.796875 64.28125 62.984375 
Q 73.78125 53.171875 73.78125 35.6875 
Q 73.78125 18.359375 64.359375 8.5625 
Q 54.9375 -1.21875 39.15625 -1.21875 
Q 23.1875 -1.21875 13.765625 8.515625 
Q 4.34375 18.265625 4.34375 35.359375 
z
M 19.234375 35.84375 
Q 19.234375 23.6875 24.84375 17.40625 
Q 30.46875 11.140625 39.109375 11.140625 
Q 47.75 11.140625 53.296875 17.359375 
Q 58.84375 23.578125 58.84375 36.03125 
Q 58.84375 48.34375 53.4375 54.390625 
Q 48.046875 60.453125 39.109375 60.453125 
Q 30.171875 60.453125 24.703125 54.3125 
Q 19.234375 48.1875 19.234375 35.84375 
z
" id="Arial-BoldMT-79"/>
      <path d="M 7.078125 0 
L 7.078125 71.578125 
L 28.71875 71.578125 
L 41.703125 22.75 
L 54.546875 71.578125 
L 76.21875 71.578125 
L 76.21875 0 
L 62.796875 0 
L 62.796875 56.34375 
L 48.578125 0 
L 34.671875 0 
L 20.515625 56.34375 
L 20.515625 0 
z
" id="Arial-BoldMT-77"/>
      <path d="M 1.078125 0 
L 1.078125 13.03125 
L 38.671875 59.46875 
L 5.328125 59.46875 
L 5.328125 71.578125 
L 57.71875 71.578125 
L 57.71875 60.359375 
L 18.5 12.0625 
L 59.234375 12.0625 
L 59.234375 0 
z
" id="Arial-BoldMT-90"/>
     </defs>
     <g transform="translate(21.253125 380.123125)rotate(-90)scale(0.2 -0.2)">
      <use xlink:href="#Arial-BoldMT-67"/>
      <use x="72.216797" xlink:href="#Arial-BoldMT-65"/>
      <use x="144.433594" xlink:href="#Arial-BoldMT-78"/>
      <use x="216.650391" xlink:href="#Arial-BoldMT-67"/>
      <use x="288.867188" xlink:href="#Arial-BoldMT-69"/>
      <use x="355.566406" xlink:href="#Arial-BoldMT-82"/>
      <use x="427.783203" xlink:href="#Arial-BoldMT-32"/>
      <use x="455.566406" xlink:href="#Arial-BoldMT-76"/>
      <use x="516.650391" xlink:href="#Arial-BoldMT-73"/>
      <use x="544.433594" xlink:href="#Arial-BoldMT-86"/>
      <use x="611.132812" xlink:href="#Arial-BoldMT-69"/>
      <use x="677.832031" xlink:href="#Arial-BoldMT-32"/>
      <use x="705.615234" xlink:href="#Arial-BoldMT-78"/>
      <use x="777.832031" xlink:href="#Arial-BoldMT-79"/>
      <use x="855.615234" xlink:href="#Arial-BoldMT-82"/>
      <use x="927.832031" xlink:href="#Arial-BoldMT-77"/>
      <use x="1011.132812" xlink:href="#Arial-BoldMT-65"/>
      <use x="1083.349609" xlink:href="#Arial-BoldMT-76"/>
      <use x="1144.433594" xlink:href="#Arial-BoldMT-73"/>
      <use x="1172.216797" xlink:href="#Arial-BoldMT-90"/>
      <use x="1233.300781" xlink:href="#Arial-BoldMT-69"/>
      <use x="1300" xlink:href="#Arial-BoldMT-68"/>
     </g>
     <!-- CELL COUNTS (NUMBERS) -->
     <defs>
      <path d="M 23.390625 0 
L 23.390625 59.46875 
L 2.15625 59.46875 
L 2.15625 71.578125 
L 59.03125 71.578125 
L 59.03125 59.46875 
L 37.84375 59.46875 
L 37.84375 0 
z
" id="Arial-BoldMT-84"/>
      <path d="M 29.9375 -21.046875 
L 20.515625 -21.046875 
Q 13.03125 -9.765625 9.125 2.390625 
Q 5.21875 14.546875 5.21875 25.921875 
Q 5.21875 40.046875 10.0625 52.640625 
Q 14.265625 63.578125 20.703125 72.796875 
L 30.078125 72.796875 
Q 23.390625 58.015625 20.875 47.625 
Q 18.359375 37.25 18.359375 25.640625 
Q 18.359375 17.625 19.84375 9.21875 
Q 21.34375 0.828125 23.921875 -6.734375 
Q 25.640625 -11.71875 29.9375 -21.046875 
z
" id="Arial-BoldMT-40"/>
      <path d="M 7.328125 71.578125 
L 35.9375 71.578125 
Q 44.4375 71.578125 48.609375 70.875 
Q 52.78125 70.171875 56.078125 67.921875 
Q 59.375 65.671875 61.5625 61.9375 
Q 63.765625 58.203125 63.765625 53.5625 
Q 63.765625 48.53125 61.046875 44.328125 
Q 58.34375 40.140625 53.71875 38.03125 
Q 60.25 36.140625 63.765625 31.546875 
Q 67.28125 26.953125 67.28125 20.75 
Q 67.28125 15.875 65.015625 11.25 
Q 62.75 6.640625 58.8125 3.875 
Q 54.890625 1.125 49.125 0.484375 
Q 45.515625 0.09375 31.6875 0 
L 7.328125 0 
z
M 21.78125 59.671875 
L 21.78125 43.109375 
L 31.25 43.109375 
Q 39.703125 43.109375 41.75 43.359375 
Q 45.453125 43.796875 47.578125 45.921875 
Q 49.703125 48.046875 49.703125 51.515625 
Q 49.703125 54.828125 47.875 56.90625 
Q 46.046875 58.984375 42.4375 59.421875 
Q 40.28125 59.671875 30.078125 59.671875 
z
M 21.78125 31.203125 
L 21.78125 12.0625 
L 35.15625 12.0625 
Q 42.96875 12.0625 45.0625 12.5 
Q 48.296875 13.09375 50.3125 15.359375 
Q 52.34375 17.625 52.34375 21.4375 
Q 52.34375 24.65625 50.78125 26.90625 
Q 49.21875 29.15625 46.265625 30.171875 
Q 43.3125 31.203125 33.453125 31.203125 
z
" id="Arial-BoldMT-66"/>
      <path d="M 3.375 -21.046875 
Q 7.421875 -12.359375 9.078125 -7.71875 
Q 10.75 -3.078125 12.15625 2.96875 
Q 13.578125 9.03125 14.25 14.46875 
Q 14.9375 19.921875 14.9375 25.640625 
Q 14.9375 37.25 12.453125 47.625 
Q 9.96875 58.015625 3.265625 72.796875 
L 12.59375 72.796875 
Q 19.96875 62.3125 24.046875 50.53125 
Q 28.125 38.765625 28.125 26.65625 
Q 28.125 16.453125 24.90625 4.78125 
Q 21.234375 -8.296875 12.84375 -21.046875 
z
" id="Arial-BoldMT-41"/>
     </defs>
     <g transform="translate(42.67125 374.002812)rotate(-90)scale(0.2 -0.2)">
      <use xlink:href="#Arial-BoldMT-67"/>
      <use x="72.216797" xlink:href="#Arial-BoldMT-69"/>
      <use x="138.916016" xlink:href="#Arial-BoldMT-76"/>
      <use x="200" xlink:href="#Arial-BoldMT-76"/>
      <use x="261.068359" xlink:href="#Arial-BoldMT-32"/>
      <use x="288.851562" xlink:href="#Arial-BoldMT-67"/>
      <use x="361.068359" xlink:href="#Arial-BoldMT-79"/>
      <use x="438.851562" xlink:href="#Arial-BoldMT-85"/>
      <use x="511.068359" xlink:href="#Arial-BoldMT-78"/>
      <use x="583.285156" xlink:href="#Arial-BoldMT-84"/>
      <use x="644.369141" xlink:href="#Arial-BoldMT-83"/>
      <use x="711.068359" xlink:href="#Arial-BoldMT-32"/>
      <use x="738.851562" xlink:href="#Arial-BoldMT-40"/>
      <use x="772.152344" xlink:href="#Arial-BoldMT-78"/>
      <use x="844.369141" xlink:href="#Arial-BoldMT-85"/>
      <use x="916.585938" xlink:href="#Arial-BoldMT-77"/>
      <use x="999.886719" xlink:href="#Arial-BoldMT-66"/>
      <use x="1072.103516" xlink:href="#Arial-BoldMT-69"/>
      <use x="1138.802734" xlink:href="#Arial-BoldMT-82"/>
      <use x="1211.019531" xlink:href="#Arial-BoldMT-83"/>
      <use x="1277.71875" xlink:href="#Arial-BoldMT-41"/>
     </g>
    </g>
   </g>
   <g id="line2d_14">
    <path clip-path="url(#pdcfe84bc8d)" d="M 111.59 433.16125 
L 123.426364 433.16125 
L 135.262727 433.16125 
L 147.099091 433.16125 
L 158.935455 433.16125 
L 170.771818 433.16125 
L 182.608182 433.16125 
L 194.444545 433.16125 
L 206.280909 433.16125 
L 218.117273 433.16125 
L 229.953636 433.16125 
L 241.79 433.16125 
L 253.626364 433.16125 
L 265.462727 433.16125 
L 277.299091 433.16125 
L 289.135455 433.16125 
L 300.971818 433.16125 
L 312.808182 433.16125 
L 324.644545 433.16125 
L 336.480909 433.16125 
L 348.317273 433.16125 
L 360.153636 433.16125 
L 371.99 433.16125 
L 383.826364 433.16125 
L 395.662727 433.16125 
L 407.499091 433.16125 
L 419.335455 433.16125 
L 431.171818 431.595324 
L 443.008182 431.65125 
L 454.844545 430.245388 
L 466.680909 427.523917 
L 478.517273 429.069637 
L 490.353636 423.9125 
L 502.19 421.630341 
" style="fill:none;stroke:#08306b;stroke-linecap:square;stroke-width:1.5;"/>
   </g>
   <g id="line2d_15">
    <path clip-path="url(#pdcfe84bc8d)" d="M 111.59 433.16125 
L 123.426364 433.16125 
L 135.262727 433.16125 
L 147.099091 433.16125 
L 158.935455 433.16125 
L 170.771818 433.16125 
L 182.608182 433.16125 
L 194.444545 430.14125 
L 206.280909 433.16125 
L 218.117273 433.16125 
L 229.953636 433.16125 
L 241.79 433.16125 
L 253.626364 433.16125 
L 265.462727 433.16125 
L 277.299091 433.16125 
L 289.135455 433.16125 
L 300.971818 433.16125 
L 312.808182 433.16125 
L 324.644545 433.16125 
L 336.480909 433.16125 
L 348.317273 433.16125 
L 360.153636 433.16125 
L 371.99 433.16125 
L 383.826364 433.16125 
L 395.662727 433.16125 
L 407.499091 433.16125 
L 419.335455 433.16125 
L 431.171818 433.16125 
L 443.008182 433.16125 
L 454.844545 433.16125 
L 466.680909 432.456583 
L 478.517273 430.433508 
L 490.353636 428.536875 
L 502.19 426.755189 
" style="fill:none;stroke:#08306b;stroke-linecap:square;stroke-width:1.5;"/>
   </g>
   <g id="line2d_16">
    <path clip-path="url(#pdcfe84bc8d)" d="M 111.59 433.16125 
L 123.426364 433.16125 
L 135.262727 433.16125 
L 147.099091 433.16125 
L 158.935455 433.16125 
L 170.771818 433.16125 
L 182.608182 433.16125 
L 194.444545 433.16125 
L 206.280909 433.16125 
L 218.117273 433.16125 
L 229.953636 433.16125 
L 241.79 433.16125 
L 253.626364 429.637917 
L 265.462727 431.535096 
L 277.299091 431.65125 
L 289.135455 433.16125 
L 300.971818 431.84 
L 312.808182 433.16125 
L 324.644545 433.16125 
L 336.480909 432.048618 
L 348.317273 433.16125 
L 360.153636 433.16125 
L 371.99 433.16125 
L 383.826364 433.16125 
L 395.662727 433.16125 
L 407.499091 433.16125 
L 419.335455 433.16125 
L 431.171818 433.16125 
L 443.008182 433.16125 
L 454.844545 433.16125 
L 466.680909 433.16125 
L 478.517273 431.797379 
L 490.353636 432.500625 
L 502.19 428.677008 
" style="fill:none;stroke:#08306b;stroke-linecap:square;stroke-width:1.5;"/>
   </g>
   <g id="line2d_17">
    <path clip-path="url(#pdcfe84bc8d)" d="M 111.59 433.16125 
L 123.426364 433.16125 
L 135.262727 433.16125 
L 147.099091 433.16125 
L 158.935455 433.16125 
L 170.771818 433.16125 
L 182.608182 433.16125 
L 194.444545 433.16125 
L 206.280909 433.16125 
L 218.117273 433.16125 
L 229.953636 433.16125 
L 241.79 433.16125 
L 253.626364 433.16125 
L 265.462727 433.16125 
L 277.299091 433.16125 
L 289.135455 431.751917 
L 300.971818 433.16125 
L 312.808182 433.16125 
L 324.644545 433.16125 
L 336.480909 433.16125 
L 348.317273 433.16125 
L 360.153636 433.16125 
L 371.99 432.200341 
L 383.826364 433.16125 
L 395.662727 433.16125 
L 407.499091 433.16125 
L 419.335455 433.16125 
L 431.171818 433.16125 
L 443.008182 433.16125 
L 454.844545 430.974353 
L 466.680909 428.93325 
L 478.517273 429.751573 
L 490.353636 431.84 
L 502.19 429.95822 
" style="fill:none;stroke:#08306b;stroke-linecap:square;stroke-width:1.5;"/>
   </g>
   <g id="line2d_18">
    <path clip-path="url(#pdcfe84bc8d)" d="M 111.59 433.16125 
L 123.426364 433.16125 
L 135.262727 433.16125 
L 147.099091 433.16125 
L 158.935455 433.16125 
L 170.771818 433.16125 
L 182.608182 433.16125 
L 194.444545 433.16125 
L 206.280909 430.51875 
L 218.117273 433.16125 
L 229.953636 433.16125 
L 241.79 433.16125 
L 253.626364 433.16125 
L 265.462727 433.16125 
L 277.299091 433.16125 
L 289.135455 433.16125 
L 300.971818 433.16125 
L 312.808182 430.674191 
L 324.644545 429.637917 
L 336.480909 433.16125 
L 348.317273 432.10425 
L 360.153636 433.16125 
L 371.99 433.16125 
L 383.826364 433.16125 
L 395.662727 433.16125 
L 407.499091 433.16125 
L 419.335455 433.16125 
L 431.171818 433.16125 
L 443.008182 433.16125 
L 454.844545 433.16125 
L 466.680909 432.456583 
L 478.517273 430.433508 
L 490.353636 429.1975 
L 502.19 424.192765 
" style="fill:none;stroke:#08306b;stroke-linecap:square;stroke-width:1.5;"/>
   </g>
   <g id="line2d_19">
    <path clip-path="url(#pdcfe84bc8d)" d="M 111.59 433.16125 
L 123.426364 433.16125 
L 135.262727 433.16125 
L 147.099091 433.16125 
L 158.935455 433.16125 
L 170.771818 433.16125 
L 182.608182 433.16125 
L 194.444545 433.16125 
L 206.280909 430.51875 
L 218.117273 433.16125 
L 229.953636 433.16125 
L 241.79 433.16125 
L 253.626364 433.16125 
L 265.462727 433.16125 
L 277.299091 433.16125 
L 289.135455 433.16125 
L 300.971818 433.16125 
L 312.808182 433.16125 
L 324.644545 433.16125 
L 336.480909 433.16125 
L 348.317273 433.16125 
L 360.153636 433.16125 
L 371.99 431.239432 
L 383.826364 432.24212 
L 395.662727 431.399583 
L 407.499091 432.31565 
L 419.335455 432.348173 
L 431.171818 433.16125 
L 443.008182 433.16125 
L 454.844545 430.974353 
L 466.680909 432.456583 
L 478.517273 431.797379 
L 490.353636 431.84 
L 502.19 431.239432 
" style="fill:none;stroke:#08306b;stroke-linecap:square;stroke-width:1.5;"/>
   </g>
   <g id="line2d_20">
    <path clip-path="url(#pdcfe84bc8d)" d="M 111.59 433.16125 
L 123.426364 433.16125 
L 135.262727 433.16125 
L 147.099091 433.16125 
L 158.935455 433.16125 
L 170.771818 433.16125 
L 182.608182 433.16125 
L 194.444545 433.16125 
L 206.280909 433.16125 
L 218.117273 433.16125 
L 229.953636 433.16125 
L 241.79 433.16125 
L 253.626364 433.16125 
L 265.462727 433.16125 
L 277.299091 433.16125 
L 289.135455 433.16125 
L 300.971818 433.16125 
L 312.808182 433.16125 
L 324.644545 433.16125 
L 336.480909 433.16125 
L 348.317273 432.10425 
L 360.153636 433.16125 
L 371.99 433.16125 
L 383.826364 433.16125 
L 395.662727 431.399583 
L 407.499091 432.31565 
L 419.335455 433.16125 
L 431.171818 432.378287 
L 443.008182 433.16125 
L 454.844545 433.16125 
L 466.680909 432.456583 
L 478.517273 433.16125 
L 490.353636 427.215625 
L 502.19 428.036402 
" style="fill:none;stroke:#08306b;stroke-linecap:square;stroke-width:1.5;"/>
   </g>
   <g id="line2d_21">
    <path clip-path="url(#pdcfe84bc8d)" d="M 111.59 433.16125 
L 123.426364 433.16125 
L 135.262727 433.16125 
L 147.099091 433.16125 
L 158.935455 433.16125 
L 170.771818 433.16125 
L 182.608182 433.16125 
L 194.444545 433.16125 
L 206.280909 433.16125 
L 218.117273 433.16125 
L 229.953636 433.16125 
L 241.79 433.16125 
L 253.626364 433.16125 
L 265.462727 433.16125 
L 277.299091 433.16125 
L 289.135455 430.342583 
L 300.971818 433.16125 
L 312.808182 433.16125 
L 324.644545 433.16125 
L 336.480909 433.16125 
L 348.317273 433.16125 
L 360.153636 431.147917 
L 371.99 432.200341 
L 383.826364 428.565598 
L 395.662727 431.399583 
L 407.499091 433.16125 
L 419.335455 433.16125 
L 431.171818 432.378287 
L 443.008182 433.16125 
L 454.844545 433.16125 
L 466.680909 433.16125 
L 478.517273 431.797379 
L 490.353636 429.1975 
L 502.19 426.114583 
" style="fill:none;stroke:#08306b;stroke-linecap:square;stroke-width:1.5;"/>
   </g>
   <g id="line2d_22">
    <path clip-path="url(#pdcfe84bc8d)" d="M 111.59 433.16125 
L 123.426364 433.16125 
L 135.262727 433.16125 
L 147.099091 433.16125 
L 158.935455 433.16125 
L 170.771818 433.16125 
L 182.608182 433.16125 
L 194.444545 433.16125 
L 206.280909 433.16125 
L 218.117273 433.16125 
L 229.953636 433.16125 
L 241.79 433.16125 
L 253.626364 433.16125 
L 265.462727 433.16125 
L 277.299091 433.16125 
L 289.135455 433.16125 
L 300.971818 433.16125 
L 312.808182 433.16125 
L 324.644545 433.16125 
L 336.480909 433.16125 
L 348.317273 433.16125 
L 360.153636 433.16125 
L 371.99 433.16125 
L 383.826364 433.16125 
L 395.662727 433.16125 
L 407.499091 433.16125 
L 419.335455 433.16125 
L 431.171818 433.16125 
L 443.008182 433.16125 
L 454.844545 433.16125 
L 466.680909 433.16125 
L 478.517273 433.16125 
L 490.353636 433.16125 
L 502.19 433.16125 
" style="fill:none;stroke:#08306b;stroke-linecap:square;stroke-width:1.5;"/>
   </g>
   <g id="line2d_23">
    <path clip-path="url(#pdcfe84bc8d)" d="M 111.59 433.16125 
L 123.426364 433.16125 
L 135.262727 433.16125 
L 147.099091 433.16125 
L 158.935455 433.16125 
L 170.771818 433.16125 
L 182.608182 433.16125 
L 194.444545 433.16125 
L 206.280909 433.16125 
L 218.117273 433.16125 
L 229.953636 433.16125 
L 241.79 433.16125 
L 253.626364 433.16125 
L 265.462727 433.16125 
L 277.299091 433.16125 
L 289.135455 433.16125 
L 300.971818 433.16125 
L 312.808182 433.16125 
L 324.644545 433.16125 
L 336.480909 433.16125 
L 348.317273 433.16125 
L 360.153636 433.16125 
L 371.99 433.16125 
L 383.826364 433.16125 
L 395.662727 433.16125 
L 407.499091 433.16125 
L 419.335455 433.16125 
L 431.171818 433.16125 
L 443.008182 433.16125 
L 454.844545 433.16125 
L 466.680909 433.16125 
L 478.517273 431.797379 
L 490.353636 431.84 
L 502.19 431.239432 
" style="fill:none;stroke:#08306b;stroke-linecap:square;stroke-width:1.5;"/>
   </g>
   <g id="line2d_24">
    <path clip-path="url(#pdcfe84bc8d)" d="M 111.59 433.16125 
L 123.426364 412.02125 
L 135.262727 412.02125 
L 147.099091 419.067917 
L 158.935455 427.87625 
L 170.771818 433.16125 
L 182.608182 429.637917 
L 194.444545 421.08125 
L 206.280909 419.94875 
L 218.117273 407.323472 
L 229.953636 412.02125 
L 241.79 408.177614 
L 253.626364 420.829583 
L 265.462727 428.282788 
L 277.299091 428.63125 
L 289.135455 423.295917 
L 300.971818 427.87625 
L 312.808182 421.969485 
L 324.644545 423.765694 
L 336.480909 426.485461 
L 348.317273 424.70525 
L 360.153636 423.094583 
L 371.99 427.395795 
L 383.826364 426.727337 
L 395.662727 422.59125 
L 407.499091 412.02125 
L 419.335455 418.525865 
L 431.171818 416.719028 
L 443.008182 407.49125 
L 454.844545 411.292284 
L 466.680909 409.90725 
L 478.517273 405.883831 
L 490.353636 404.09375 
L 502.19 383.834583 
" style="fill:none;stroke:#4a98c9;stroke-linecap:square;stroke-width:1.5;"/>
   </g>
   <g id="line2d_25">
    <path clip-path="url(#pdcfe84bc8d)" d="M 111.59 433.16125 
L 123.426364 433.16125 
L 135.262727 433.16125 
L 147.099091 404.974583 
L 158.935455 412.02125 
L 170.771818 403.56525 
L 182.608182 397.927917 
L 194.444545 409.00125 
L 206.280909 409.37875 
L 218.117273 419.067917 
L 229.953636 428.93325 
L 241.79 425.473977 
L 253.626364 427.87625 
L 265.462727 423.404327 
L 277.299091 425.61125 
L 289.135455 427.523917 
L 300.971818 429.1975 
L 312.808182 423.213015 
L 324.644545 423.765694 
L 336.480909 423.147566 
L 348.317273 421.53425 
L 360.153636 422.087917 
L 371.99 427.395795 
L 383.826364 420.293424 
L 395.662727 421.710417 
L 407.499091 419.63165 
L 419.335455 421.778173 
L 431.171818 418.284954 
L 443.008182 423.34625 
L 454.844545 415.666078 
L 466.680909 415.544583 
L 478.517273 408.611573 
L 490.353636 410.7 
L 502.19 402.412159 
" style="fill:none;stroke:#4a98c9;stroke-linecap:square;stroke-width:1.5;"/>
   </g>
   <g id="line2d_26">
    <path clip-path="url(#pdcfe84bc8d)" d="M 111.59 433.16125 
L 123.426364 369.74125 
L 135.262727 359.17125 
L 147.099091 369.74125 
L 158.935455 401.45125 
L 170.771818 412.02125 
L 182.608182 415.544583 
L 194.444545 424.10125 
L 206.280909 422.59125 
L 218.117273 423.765694 
L 229.953636 405.67925 
L 241.79 421.630341 
L 253.626364 420.829583 
L 265.462727 418.525865 
L 277.299091 413.53125 
L 289.135455 412.02125 
L 300.971818 402.7725 
L 312.808182 416.995368 
L 324.644545 414.370139 
L 336.480909 408.683355 
L 348.317273 409.90725 
L 360.153636 409.00125 
L 371.99 412.02125 
L 383.826364 411.10212 
L 395.662727 416.425417 
L 407.499091 417.94045 
L 419.335455 417.712788 
L 431.171818 419.067917 
L 443.008182 421.08125 
L 454.844545 411.292284 
L 466.680909 411.316583 
L 478.517273 414.067056 
L 490.353636 407.396875 
L 502.19 403.052765 
" style="fill:none;stroke:#4a98c9;stroke-linecap:square;stroke-width:1.5;"/>
   </g>
   <g id="line2d_27">
    <path clip-path="url(#pdcfe84bc8d)" d="M 111.59 433.16125 
L 123.426364 433.16125 
L 135.262727 433.16125 
L 147.099091 433.16125 
L 158.935455 433.16125 
L 170.771818 433.16125 
L 182.608182 426.114583 
L 194.444545 421.08125 
L 206.280909 414.66375 
L 218.117273 407.323472 
L 229.953636 407.79325 
L 241.79 412.02125 
L 253.626364 417.30625 
L 265.462727 418.525865 
L 277.299091 409.00125 
L 289.135455 414.839917 
L 300.971818 413.3425 
L 312.808182 412.02125 
L 324.644545 420.242361 
L 336.480909 423.147566 
L 348.317273 417.30625 
L 360.153636 420.074583 
L 371.99 424.513068 
L 383.826364 423.050815 
L 395.662727 429.637917 
L 407.499091 422.16845 
L 419.335455 421.778173 
L 431.171818 415.936065 
L 443.008182 414.28625 
L 454.844545 418.58194 
L 466.680909 412.725917 
L 478.517273 407.247702 
L 490.353636 410.7 
L 502.19 399.209129 
" style="fill:none;stroke:#4a98c9;stroke-linecap:square;stroke-width:1.5;"/>
   </g>
   <g id="line2d_28">
    <path clip-path="url(#pdcfe84bc8d)" d="M 111.59 433.16125 
L 123.426364 433.16125 
L 135.262727 433.16125 
L 147.099091 433.16125 
L 158.935455 433.16125 
L 170.771818 433.16125 
L 182.608182 422.59125 
L 194.444545 421.08125 
L 206.280909 417.30625 
L 218.117273 419.067917 
L 229.953636 416.24925 
L 241.79 415.864886 
L 253.626364 420.829583 
L 265.462727 423.404327 
L 277.299091 421.08125 
L 289.135455 424.70525 
L 300.971818 425.23375 
L 312.808182 425.700074 
L 324.644545 420.242361 
L 336.480909 410.908618 
L 348.317273 413.07825 
L 360.153636 409.00125 
L 371.99 410.099432 
L 383.826364 416.616902 
L 395.662727 426.995417 
L 407.499091 425.55085 
L 419.335455 427.469712 
L 431.171818 422.982731 
L 443.008182 425.61125 
L 454.844545 426.60056 
L 466.680909 418.36325 
L 478.517273 405.201895 
L 490.353636 396.826875 
L 502.19 392.803068 
" style="fill:none;stroke:#4a98c9;stroke-linecap:square;stroke-width:1.5;"/>
   </g>
   <g id="line2d_29">
    <path clip-path="url(#pdcfe84bc8d)" d="M 111.59 433.16125 
L 123.426364 433.16125 
L 135.262727 433.16125 
L 147.099091 404.974583 
L 158.935455 406.73625 
L 170.771818 386.65325 
L 182.608182 390.88125 
L 194.444545 399.94125 
L 206.280909 404.09375 
L 218.117273 402.625694 
L 229.953636 420.47725 
L 241.79 421.630341 
L 253.626364 429.637917 
L 265.462727 429.908942 
L 277.299091 421.08125 
L 289.135455 414.839917 
L 300.971818 421.27 
L 312.808182 420.725956 
L 324.644545 426.114583 
L 336.480909 427.598092 
L 348.317273 428.93325 
L 360.153636 429.134583 
L 371.99 427.395795 
L 383.826364 420.293424 
L 395.662727 419.067917 
L 407.499091 420.47725 
L 419.335455 425.030481 
L 431.171818 412.02125 
L 443.008182 408.24625 
L 454.844545 413.479181 
L 466.680909 416.24925 
L 478.517273 414.067056 
L 490.353636 407.396875 
L 502.19 401.771553 
" style="fill:none;stroke:#4a98c9;stroke-linecap:square;stroke-width:1.5;"/>
   </g>
   <g id="line2d_30">
    <path clip-path="url(#pdcfe84bc8d)" d="M 111.59 433.16125 
L 123.426364 433.16125 
L 135.262727 433.16125 
L 147.099091 426.114583 
L 158.935455 422.59125 
L 170.771818 428.93325 
L 182.608182 433.16125 
L 194.444545 421.08125 
L 206.280909 425.23375 
L 218.117273 423.765694 
L 229.953636 428.93325 
L 241.79 431.239432 
L 253.626364 429.637917 
L 265.462727 421.778173 
L 277.299091 421.08125 
L 289.135455 423.295917 
L 300.971818 413.3425 
L 312.808182 415.751838 
L 324.644545 417.893472 
L 336.480909 423.147566 
L 348.317273 420.47725 
L 360.153636 417.054583 
L 371.99 418.747614 
L 383.826364 421.212554 
L 395.662727 421.710417 
L 407.499091 423.85965 
L 419.335455 420.965096 
L 431.171818 421.416806 
L 443.008182 409.75625 
L 454.844545 408.376422 
L 466.680909 407.79325 
L 478.517273 405.883831 
L 490.353636 406.075625 
L 502.19 396.646705 
" style="fill:none;stroke:#4a98c9;stroke-linecap:square;stroke-width:1.5;"/>
   </g>
   <g id="line2d_31">
    <path clip-path="url(#pdcfe84bc8d)" d="M 111.59 433.16125 
L 123.426364 433.16125 
L 135.262727 433.16125 
L 147.099091 433.16125 
L 158.935455 433.16125 
L 170.771818 433.16125 
L 182.608182 433.16125 
L 194.444545 430.14125 
L 206.280909 433.16125 
L 218.117273 423.765694 
L 229.953636 418.36325 
L 241.79 421.630341 
L 253.626364 426.114583 
L 265.462727 421.778173 
L 277.299091 422.59125 
L 289.135455 423.295917 
L 300.971818 427.87625 
L 312.808182 425.700074 
L 324.644545 424.940139 
L 336.480909 417.584408 
L 348.317273 421.53425 
L 360.153636 415.04125 
L 371.99 408.177614 
L 383.826364 410.182989 
L 395.662727 419.94875 
L 407.499091 418.78605 
L 419.335455 416.086635 
L 431.171818 415.936065 
L 443.008182 411.26625 
L 454.844545 419.310905 
L 466.680909 418.36325 
L 478.517273 413.385121 
L 490.353636 417.966875 
L 502.19 403.693371 
" style="fill:none;stroke:#4a98c9;stroke-linecap:square;stroke-width:1.5;"/>
   </g>
   <g id="line2d_32">
    <path clip-path="url(#pdcfe84bc8d)" d="M 111.59 433.16125 
L 123.426364 433.16125 
L 135.262727 433.16125 
L 147.099091 426.114583 
L 158.935455 417.30625 
L 170.771818 407.79325 
L 182.608182 394.404583 
L 194.444545 405.98125 
L 206.280909 401.45125 
L 218.117273 414.370139 
L 229.953636 416.24925 
L 241.79 417.786705 
L 253.626364 420.829583 
L 265.462727 418.525865 
L 277.299091 419.57125 
L 289.135455 419.067917 
L 300.971818 421.27 
L 312.808182 424.456544 
L 324.644545 423.765694 
L 336.480909 428.710724 
L 348.317273 425.76225 
L 360.153636 428.127917 
L 371.99 429.317614 
L 383.826364 428.565598 
L 395.662727 426.995417 
L 407.499091 427.24205 
L 419.335455 425.843558 
L 431.171818 422.199769 
L 443.008182 422.59125 
L 454.844545 421.497802 
L 466.680909 419.772583 
L 478.517273 413.385121 
L 490.353636 422.59125 
L 502.19 410.099432 
" style="fill:none;stroke:#4a98c9;stroke-linecap:square;stroke-width:1.5;"/>
   </g>
   <g id="line2d_33">
    <path clip-path="url(#pdcfe84bc8d)" d="M 111.59 433.16125 
L 123.426364 390.88125 
L 135.262727 359.17125 
L 147.099091 383.834583 
L 158.935455 422.59125 
L 170.771818 428.93325 
L 182.608182 429.637917 
L 194.444545 433.16125 
L 206.280909 427.87625 
L 218.117273 430.812361 
L 229.953636 424.70525 
L 241.79 427.395795 
L 253.626364 422.59125 
L 265.462727 416.899712 
L 277.299091 421.08125 
L 289.135455 412.02125 
L 300.971818 415.985 
L 312.808182 425.700074 
L 324.644545 427.289028 
L 336.480909 427.598092 
L 348.317273 426.81925 
L 360.153636 426.114583 
L 371.99 429.317614 
L 383.826364 422.131685 
L 395.662727 419.067917 
L 407.499091 423.01405 
L 419.335455 422.59125 
L 431.171818 421.416806 
L 443.008182 424.85625 
L 454.844545 420.768836 
L 466.680909 419.772583 
L 478.517273 420.886411 
L 490.353636 414.66375 
L 502.19 395.365492 
" style="fill:none;stroke:#4a98c9;stroke-linecap:square;stroke-width:1.5;"/>
   </g>
   <g id="line2d_34">
    <path clip-path="url(#pdcfe84bc8d)" d="M 111.59 306.32125 
L 123.426364 285.18125 
L 135.262727 327.46125 
L 147.099091 327.46125 
L 158.935455 301.03625 
L 170.771818 331.68925 
L 182.608182 309.844583 
L 194.444545 306.32125 
L 206.280909 287.82375 
L 218.117273 308.670139 
L 229.953636 304.20725 
L 241.79 271.728523 
L 253.626364 276.372917 
L 265.462727 281.928942 
L 277.299091 271.59125 
L 289.135455 280.95325 
L 300.971818 282.53875 
L 312.808182 287.668309 
L 324.644545 289.879028 
L 336.480909 278.505461 
L 348.317273 264.04125 
L 360.153636 271.087917 
L 371.99 270.767614 
L 383.826364 278.747337 
L 395.662727 289.585417 
L 407.499091 277.57085 
L 419.335455 292.498942 
L 431.171818 287.530139 
L 443.008182 294.99625 
L 454.844545 296.115733 
L 466.680909 302.09325 
L 478.517273 319.278024 
L 490.353636 326.14 
L 502.19 313.367917 
" style="fill:none;stroke:#d0e1f2;stroke-linecap:square;stroke-width:1.5;"/>
   </g>
   <g id="line2d_35">
    <path clip-path="url(#pdcfe84bc8d)" d="M 111.59 179.48125 
L 123.426364 264.04125 
L 135.262727 274.61125 
L 147.099091 299.274583 
L 158.935455 311.60625 
L 170.771818 331.68925 
L 182.608182 302.797917 
L 194.444545 285.18125 
L 206.280909 287.82375 
L 218.117273 292.227917 
L 229.953636 289.40925 
L 241.79 294.790341 
L 253.626364 292.227917 
L 265.462727 288.433558 
L 277.299091 291.22125 
L 289.135455 293.63725 
L 300.971818 277.25375 
L 312.808182 292.642426 
L 324.644545 280.483472 
L 336.480909 286.293882 
L 348.317273 279.89625 
L 360.153636 279.14125 
L 371.99 289.985795 
L 383.826364 295.291685 
L 395.662727 296.632083 
L 407.499091 286.02685 
L 419.335455 285.18125 
L 431.171818 281.266435 
L 443.008182 286.69125 
L 454.844545 295.386767 
L 466.680909 307.025917 
L 478.517273 319.278024 
L 490.353636 326.14 
L 502.19 306.32125 
" style="fill:none;stroke:#d0e1f2;stroke-linecap:square;stroke-width:1.5;"/>
   </g>
   <g id="line2d_36">
    <path clip-path="url(#pdcfe84bc8d)" d="M 111.59 306.32125 
L 123.426364 369.74125 
L 135.262727 327.46125 
L 147.099091 341.554583 
L 158.935455 306.32125 
L 170.771818 280.95325 
L 182.608182 302.797917 
L 194.444545 270.08125 
L 206.280909 287.82375 
L 218.117273 301.623472 
L 229.953636 274.61125 
L 241.79 287.103068 
L 253.626364 292.227917 
L 265.462727 299.816635 
L 277.299091 301.79125 
L 289.135455 317.595917 
L 300.971818 299.715 
L 312.808182 300.103603 
L 324.644545 286.355694 
L 336.480909 281.843355 
L 348.317273 274.61125 
L 360.153636 287.194583 
L 371.99 271.728523 
L 383.826364 280.585598 
L 395.662727 278.134583 
L 407.499091 268.26925 
L 419.335455 275.424327 
L 431.171818 279.700509 
L 443.008182 285.93625 
L 454.844545 299.031595 
L 466.680909 303.502583 
L 478.517273 315.868347 
L 490.353636 318.873125 
L 502.19 301.196402 
" style="fill:none;stroke:#d0e1f2;stroke-linecap:square;stroke-width:1.5;"/>
   </g>
   <g id="line2d_37">
    <path clip-path="url(#pdcfe84bc8d)" d="M 111.59 306.32125 
L 123.426364 242.90125 
L 135.262727 232.33125 
L 147.099091 264.04125 
L 158.935455 248.18625 
L 170.771818 276.72525 
L 182.608182 285.18125 
L 194.444545 294.24125 
L 206.280909 269.32625 
L 218.117273 292.227917 
L 229.953636 285.18125 
L 241.79 277.493977 
L 253.626364 288.704583 
L 265.462727 298.190481 
L 277.299091 270.08125 
L 289.135455 285.18125 
L 300.971818 287.82375 
L 312.808182 301.347132 
L 324.644545 295.75125 
L 336.480909 297.420197 
L 348.317273 289.40925 
L 360.153636 282.16125 
L 371.99 290.946705 
L 383.826364 275.989946 
L 395.662727 282.53875 
L 407.499091 289.40925 
L 419.335455 303.882019 
L 431.171818 296.142731 
L 443.008182 303.30125 
L 454.844545 315.068836 
L 466.680909 320.414583 
L 478.517273 328.825121 
L 490.353636 334.0675 
L 502.19 312.727311 
" style="fill:none;stroke:#d0e1f2;stroke-linecap:square;stroke-width:1.5;"/>
   </g>
   <g id="line2d_38">
    <path clip-path="url(#pdcfe84bc8d)" d="M 111.59 179.48125 
L 123.426364 242.90125 
L 135.262727 242.90125 
L 147.099091 285.18125 
L 158.935455 258.75625 
L 170.771818 280.95325 
L 182.608182 288.704583 
L 194.444545 282.16125 
L 206.280909 245.54375 
L 218.117273 271.087917 
L 229.953636 257.69925 
L 241.79 279.415795 
L 253.626364 283.419583 
L 265.462727 290.059712 
L 277.299091 289.71125 
L 289.135455 302.09325 
L 300.971818 305 
L 312.808182 310.051838 
L 324.644545 311.019028 
L 336.480909 302.983355 
L 348.317273 298.92225 
L 360.153636 301.287917 
L 371.99 299.594886 
L 383.826364 293.453424 
L 395.662727 287.82375 
L 407.499091 276.72525 
L 419.335455 285.18125 
L 431.171818 291.444954 
L 443.008182 292.73125 
L 454.844545 286.639181 
L 466.680909 293.63725 
L 478.517273 302.911573 
L 490.353636 298.39375 
L 502.19 297.352765 
" style="fill:none;stroke:#d0e1f2;stroke-linecap:square;stroke-width:1.5;"/>
   </g>
   <g id="line2d_39">
    <path clip-path="url(#pdcfe84bc8d)" d="M 111.59 433.16125 
L 123.426364 348.60125 
L 135.262727 242.90125 
L 147.099091 235.854583 
L 158.935455 274.61125 
L 170.771818 264.04125 
L 182.608182 274.61125 
L 194.444545 279.14125 
L 206.280909 282.53875 
L 218.117273 289.879028 
L 229.953636 299.97925 
L 241.79 304.399432 
L 253.626364 308.082917 
L 265.462727 294.938173 
L 277.299091 295.75125 
L 289.135455 296.455917 
L 300.971818 282.53875 
L 312.808182 290.155368 
L 324.644545 291.053472 
L 336.480909 299.645461 
L 348.317273 291.52325 
L 360.153636 282.16125 
L 371.99 273.650341 
L 383.826364 282.423859 
L 395.662727 274.61125 
L 407.499091 281.79885 
L 419.335455 285.994327 
L 431.171818 282.832361 
L 443.008182 279.14125 
L 454.844545 300.489526 
L 466.680909 298.569917 
L 478.517273 317.914153 
L 490.353636 326.14 
L 502.19 301.837008 
" style="fill:none;stroke:#d0e1f2;stroke-linecap:square;stroke-width:1.5;"/>
   </g>
   <g id="line2d_40">
    <path clip-path="url(#pdcfe84bc8d)" d="M 111.59 179.48125 
L 123.426364 306.32125 
L 135.262727 295.75125 
L 147.099091 264.04125 
L 158.935455 295.75125 
L 170.771818 268.26925 
L 182.608182 285.18125 
L 194.444545 288.20125 
L 206.280909 308.96375 
L 218.117273 306.32125 
L 229.953636 297.86525 
L 241.79 287.103068 
L 253.626364 264.04125 
L 265.462727 296.564327 
L 277.299091 282.16125 
L 289.135455 286.590583 
L 300.971818 291.7875 
L 312.808182 298.860074 
L 324.644545 298.100139 
L 336.480909 285.18125 
L 348.317273 288.35225 
L 360.153636 289.207917 
L 371.99 294.790341 
L 383.826364 268.636902 
L 395.662727 285.18125 
L 407.499091 285.18125 
L 419.335455 280.302788 
L 431.171818 288.313102 
L 443.008182 294.24125 
L 454.844545 288.826078 
L 466.680909 292.932583 
L 478.517273 307.685121 
L 490.353636 303.018125 
L 502.19 305.040038 
" style="fill:none;stroke:#d0e1f2;stroke-linecap:square;stroke-width:1.5;"/>
   </g>
   <g id="line2d_41">
    <path clip-path="url(#pdcfe84bc8d)" d="M 111.59 433.16125 
L 123.426364 412.02125 
L 135.262727 380.31125 
L 147.099091 362.694583 
L 158.935455 348.60125 
L 170.771818 344.37325 
L 182.608182 341.554583 
L 194.444545 309.34125 
L 206.280909 295.75125 
L 218.117273 306.32125 
L 229.953636 287.29525 
L 241.79 285.18125 
L 253.626364 288.704583 
L 265.462727 293.312019 
L 277.299091 286.69125 
L 289.135455 264.04125 
L 300.971818 282.53875 
L 312.808182 283.937721 
L 324.644545 291.053472 
L 336.480909 272.942303 
L 348.317273 284.12425 
L 360.153636 284.174583 
L 371.99 289.985795 
L 383.826364 294.372554 
L 395.662727 286.942917 
L 407.499091 297.01965 
L 419.335455 295.75125 
L 431.171818 296.925694 
L 443.008182 294.99625 
L 454.844545 291.012974 
L 466.680909 300.683917 
L 478.517273 309.048992 
L 490.353636 314.909375 
L 502.19 301.837008 
" style="fill:none;stroke:#d0e1f2;stroke-linecap:square;stroke-width:1.5;"/>
   </g>
   <g id="line2d_42">
    <path clip-path="url(#pdcfe84bc8d)" d="M 111.59 179.48125 
L 123.426364 242.90125 
L 135.262727 211.19125 
L 147.099091 207.667917 
L 158.935455 274.61125 
L 170.771818 276.72525 
L 182.608182 278.134583 
L 194.444545 282.16125 
L 206.280909 295.75125 
L 218.117273 306.32125 
L 229.953636 308.43525 
L 241.79 298.633977 
L 253.626364 290.46625 
L 265.462727 303.068942 
L 277.299091 285.18125 
L 289.135455 297.86525 
L 300.971818 285.18125 
L 312.808182 290.155368 
L 324.644545 286.355694 
L 336.480909 288.519145 
L 348.317273 292.58025 
L 360.153636 296.254583 
L 371.99 292.868523 
L 383.826364 290.696033 
L 395.662727 280.777083 
L 407.499091 276.72525 
L 419.335455 273.798173 
L 431.171818 288.313102 
L 443.008182 292.73125 
L 454.844545 303.405388 
L 466.680909 317.595917 
L 478.517273 331.552863 
L 490.353636 338.691875 
L 502.19 319.133371 
" style="fill:none;stroke:#d0e1f2;stroke-linecap:square;stroke-width:1.5;"/>
   </g>
   <g id="line2d_43">
    <path clip-path="url(#pdcfe84bc8d)" d="M 111.59 52.64125 
L 123.426364 221.76125 
L 135.262727 200.62125 
L 147.099091 256.994583 
L 158.935455 269.32625 
L 170.771818 272.49725 
L 182.608182 323.937917 
L 194.444545 339.54125 
L 206.280909 319.53375 
L 218.117273 320.414583 
L 229.953636 306.32125 
L 241.79 306.32125 
L 253.626364 299.274583 
L 265.462727 299.816635 
L 277.299091 292.73125 
L 289.135455 276.72525 
L 300.971818 279.89625 
L 312.808182 282.694191 
L 324.644545 284.006806 
L 336.480909 281.843355 
L 348.317273 266.15525 
L 360.153636 262.027917 
L 371.99 273.650341 
L 383.826364 264.96038 
L 395.662727 280.777083 
L 407.499091 285.18125 
L 419.335455 287.620481 
L 431.171818 284.398287 
L 443.008182 292.73125 
L 454.844545 295.386767 
L 466.680909 310.54925 
L 478.517273 324.733508 
L 490.353636 330.10375 
L 502.19 306.961856 
" style="fill:none;stroke:#d0e1f2;stroke-linecap:square;stroke-width:1.5;"/>
   </g>
   <g id="line2d_44">
    <path clip-path="url(#pdcfe84bc8d)" d="M 111.59 433.16125 
L 123.426364 433.16125 
L 135.262727 433.16125 
L 147.099091 433.16125 
L 158.935455 433.16125 
L 170.771818 433.16125 
L 182.608182 433.16125 
L 194.444545 433.16125 
L 206.280909 433.16125 
L 218.117273 430.812361 
L 229.953636 431.04725 
L 241.79 433.16125 
L 253.626364 433.16125 
L 265.462727 433.16125 
L 277.299091 433.16125 
L 289.135455 433.16125 
L 300.971818 433.16125 
L 312.808182 433.16125 
L 324.644545 433.16125 
L 336.480909 433.16125 
L 348.317273 432.10425 
L 360.153636 432.154583 
L 371.99 433.16125 
L 383.826364 433.16125 
L 395.662727 433.16125 
L 407.499091 433.16125 
L 419.335455 433.16125 
L 431.171818 433.16125 
L 443.008182 432.40625 
L 454.844545 428.058491 
L 466.680909 426.114583 
L 478.517273 423.614153 
L 490.353636 424.573125 
L 502.19 415.864886 
" style="fill:none;stroke:#1764ab;stroke-linecap:square;stroke-width:1.5;"/>
   </g>
   <g id="line2d_45">
    <path clip-path="url(#pdcfe84bc8d)" d="M 111.59 433.16125 
L 123.426364 433.16125 
L 135.262727 433.16125 
L 147.099091 433.16125 
L 158.935455 433.16125 
L 170.771818 428.93325 
L 182.608182 426.114583 
L 194.444545 433.16125 
L 206.280909 433.16125 
L 218.117273 433.16125 
L 229.953636 433.16125 
L 241.79 433.16125 
L 253.626364 433.16125 
L 265.462727 433.16125 
L 277.299091 433.16125 
L 289.135455 431.751917 
L 300.971818 431.84 
L 312.808182 433.16125 
L 324.644545 433.16125 
L 336.480909 433.16125 
L 348.317273 433.16125 
L 360.153636 433.16125 
L 371.99 433.16125 
L 383.826364 433.16125 
L 395.662727 433.16125 
L 407.499091 433.16125 
L 419.335455 433.16125 
L 431.171818 433.16125 
L 443.008182 433.16125 
L 454.844545 432.432284 
L 466.680909 433.16125 
L 478.517273 432.479315 
L 490.353636 431.179375 
L 502.19 424.833371 
" style="fill:none;stroke:#1764ab;stroke-linecap:square;stroke-width:1.5;"/>
   </g>
   <g id="line2d_46">
    <path clip-path="url(#pdcfe84bc8d)" d="M 111.59 433.16125 
L 123.426364 433.16125 
L 135.262727 433.16125 
L 147.099091 433.16125 
L 158.935455 433.16125 
L 170.771818 433.16125 
L 182.608182 433.16125 
L 194.444545 433.16125 
L 206.280909 433.16125 
L 218.117273 433.16125 
L 229.953636 433.16125 
L 241.79 431.239432 
L 253.626364 433.16125 
L 265.462727 433.16125 
L 277.299091 433.16125 
L 289.135455 433.16125 
L 300.971818 433.16125 
L 312.808182 430.674191 
L 324.644545 427.289028 
L 336.480909 430.935987 
L 348.317273 429.99025 
L 360.153636 433.16125 
L 371.99 433.16125 
L 383.826364 433.16125 
L 395.662727 433.16125 
L 407.499091 433.16125 
L 419.335455 433.16125 
L 431.171818 433.16125 
L 443.008182 433.16125 
L 454.844545 431.703319 
L 466.680909 432.456583 
L 478.517273 430.433508 
L 490.353636 431.179375 
L 502.19 429.317614 
" style="fill:none;stroke:#1764ab;stroke-linecap:square;stroke-width:1.5;"/>
   </g>
   <g id="line2d_47">
    <path clip-path="url(#pdcfe84bc8d)" d="M 111.59 433.16125 
L 123.426364 433.16125 
L 135.262727 433.16125 
L 147.099091 433.16125 
L 158.935455 433.16125 
L 170.771818 433.16125 
L 182.608182 433.16125 
L 194.444545 433.16125 
L 206.280909 433.16125 
L 218.117273 433.16125 
L 229.953636 433.16125 
L 241.79 433.16125 
L 253.626364 431.399583 
L 265.462727 433.16125 
L 277.299091 433.16125 
L 289.135455 433.16125 
L 300.971818 433.16125 
L 312.808182 433.16125 
L 324.644545 433.16125 
L 336.480909 433.16125 
L 348.317273 433.16125 
L 360.153636 433.16125 
L 371.99 431.239432 
L 383.826364 432.24212 
L 395.662727 430.51875 
L 407.499091 433.16125 
L 419.335455 433.16125 
L 431.171818 433.16125 
L 443.008182 433.16125 
L 454.844545 433.16125 
L 466.680909 433.16125 
L 478.517273 431.115444 
L 490.353636 429.858125 
L 502.19 431.880038 
" style="fill:none;stroke:#1764ab;stroke-linecap:square;stroke-width:1.5;"/>
   </g>
   <g id="line2d_48">
    <path clip-path="url(#pdcfe84bc8d)" d="M 111.59 433.16125 
L 123.426364 433.16125 
L 135.262727 433.16125 
L 147.099091 433.16125 
L 158.935455 433.16125 
L 170.771818 433.16125 
L 182.608182 433.16125 
L 194.444545 433.16125 
L 206.280909 430.51875 
L 218.117273 433.16125 
L 229.953636 433.16125 
L 241.79 433.16125 
L 253.626364 433.16125 
L 265.462727 433.16125 
L 277.299091 433.16125 
L 289.135455 431.751917 
L 300.971818 433.16125 
L 312.808182 433.16125 
L 324.644545 433.16125 
L 336.480909 432.048618 
L 348.317273 431.04725 
L 360.153636 433.16125 
L 371.99 433.16125 
L 383.826364 433.16125 
L 395.662727 433.16125 
L 407.499091 433.16125 
L 419.335455 433.16125 
L 431.171818 433.16125 
L 443.008182 433.16125 
L 454.844545 433.16125 
L 466.680909 433.16125 
L 478.517273 429.751573 
L 490.353636 429.1975 
L 502.19 423.552159 
" style="fill:none;stroke:#1764ab;stroke-linecap:square;stroke-width:1.5;"/>
   </g>
   <g id="line2d_49">
    <path clip-path="url(#pdcfe84bc8d)" d="M 111.59 433.16125 
L 123.426364 433.16125 
L 135.262727 433.16125 
L 147.099091 433.16125 
L 158.935455 433.16125 
L 170.771818 433.16125 
L 182.608182 433.16125 
L 194.444545 433.16125 
L 206.280909 430.51875 
L 218.117273 433.16125 
L 229.953636 433.16125 
L 241.79 433.16125 
L 253.626364 433.16125 
L 265.462727 433.16125 
L 277.299091 433.16125 
L 289.135455 431.751917 
L 300.971818 430.51875 
L 312.808182 433.16125 
L 324.644545 433.16125 
L 336.480909 433.16125 
L 348.317273 433.16125 
L 360.153636 433.16125 
L 371.99 433.16125 
L 383.826364 433.16125 
L 395.662727 433.16125 
L 407.499091 433.16125 
L 419.335455 429.908942 
L 431.171818 430.029398 
L 443.008182 431.65125 
L 454.844545 430.974353 
L 466.680909 431.751917 
L 478.517273 431.797379 
L 490.353636 433.16125 
L 502.19 431.239432 
" style="fill:none;stroke:#1764ab;stroke-linecap:square;stroke-width:1.5;"/>
   </g>
   <g id="line2d_50">
    <path clip-path="url(#pdcfe84bc8d)" d="M 111.59 433.16125 
L 123.426364 433.16125 
L 135.262727 433.16125 
L 147.099091 433.16125 
L 158.935455 433.16125 
L 170.771818 433.16125 
L 182.608182 433.16125 
L 194.444545 433.16125 
L 206.280909 433.16125 
L 218.117273 433.16125 
L 229.953636 433.16125 
L 241.79 433.16125 
L 253.626364 431.399583 
L 265.462727 433.16125 
L 277.299091 433.16125 
L 289.135455 431.751917 
L 300.971818 433.16125 
L 312.808182 433.16125 
L 324.644545 433.16125 
L 336.480909 429.823355 
L 348.317273 433.16125 
L 360.153636 433.16125 
L 371.99 433.16125 
L 383.826364 433.16125 
L 395.662727 433.16125 
L 407.499091 433.16125 
L 419.335455 433.16125 
L 431.171818 433.16125 
L 443.008182 433.16125 
L 454.844545 433.16125 
L 466.680909 433.16125 
L 478.517273 429.069637 
L 490.353636 424.573125 
L 502.19 422.911553 
" style="fill:none;stroke:#1764ab;stroke-linecap:square;stroke-width:1.5;"/>
   </g>
   <g id="line2d_51">
    <path clip-path="url(#pdcfe84bc8d)" d="M 111.59 433.16125 
L 123.426364 433.16125 
L 135.262727 433.16125 
L 147.099091 433.16125 
L 158.935455 433.16125 
L 170.771818 433.16125 
L 182.608182 433.16125 
L 194.444545 433.16125 
L 206.280909 433.16125 
L 218.117273 433.16125 
L 229.953636 433.16125 
L 241.79 433.16125 
L 253.626364 433.16125 
L 265.462727 433.16125 
L 277.299091 433.16125 
L 289.135455 433.16125 
L 300.971818 433.16125 
L 312.808182 433.16125 
L 324.644545 433.16125 
L 336.480909 433.16125 
L 348.317273 433.16125 
L 360.153636 433.16125 
L 371.99 431.239432 
L 383.826364 429.484728 
L 395.662727 430.51875 
L 407.499091 432.31565 
L 419.335455 433.16125 
L 431.171818 433.16125 
L 443.008182 431.65125 
L 454.844545 428.787457 
L 466.680909 431.04725 
L 478.517273 431.115444 
L 490.353636 431.84 
L 502.19 429.317614 
" style="fill:none;stroke:#1764ab;stroke-linecap:square;stroke-width:1.5;"/>
   </g>
   <g id="line2d_52">
    <path clip-path="url(#pdcfe84bc8d)" d="M 111.59 433.16125 
L 123.426364 433.16125 
L 135.262727 433.16125 
L 147.099091 433.16125 
L 158.935455 433.16125 
L 170.771818 433.16125 
L 182.608182 433.16125 
L 194.444545 433.16125 
L 206.280909 433.16125 
L 218.117273 433.16125 
L 229.953636 433.16125 
L 241.79 431.239432 
L 253.626364 429.637917 
L 265.462727 431.535096 
L 277.299091 431.65125 
L 289.135455 433.16125 
L 300.971818 433.16125 
L 312.808182 433.16125 
L 324.644545 433.16125 
L 336.480909 433.16125 
L 348.317273 433.16125 
L 360.153636 433.16125 
L 371.99 433.16125 
L 383.826364 433.16125 
L 395.662727 433.16125 
L 407.499091 433.16125 
L 419.335455 431.535096 
L 431.171818 432.378287 
L 443.008182 433.16125 
L 454.844545 431.703319 
L 466.680909 432.456583 
L 478.517273 433.16125 
L 490.353636 433.16125 
L 502.19 431.880038 
" style="fill:none;stroke:#1764ab;stroke-linecap:square;stroke-width:1.5;"/>
   </g>
   <g id="line2d_53">
    <path clip-path="url(#pdcfe84bc8d)" d="M 111.59 433.16125 
L 123.426364 433.16125 
L 135.262727 422.59125 
L 147.099091 433.16125 
L 158.935455 433.16125 
L 170.771818 433.16125 
L 182.608182 433.16125 
L 194.444545 433.16125 
L 206.280909 433.16125 
L 218.117273 433.16125 
L 229.953636 433.16125 
L 241.79 433.16125 
L 253.626364 431.399583 
L 265.462727 433.16125 
L 277.299091 433.16125 
L 289.135455 433.16125 
L 300.971818 431.84 
L 312.808182 431.917721 
L 324.644545 433.16125 
L 336.480909 433.16125 
L 348.317273 433.16125 
L 360.153636 433.16125 
L 371.99 433.16125 
L 383.826364 433.16125 
L 395.662727 433.16125 
L 407.499091 433.16125 
L 419.335455 433.16125 
L 431.171818 433.16125 
L 443.008182 433.16125 
L 454.844545 433.16125 
L 466.680909 433.16125 
L 478.517273 433.16125 
L 490.353636 432.500625 
L 502.19 430.598826 
" style="fill:none;stroke:#1764ab;stroke-linecap:square;stroke-width:1.5;"/>
   </g>
   <g id="line2d_54">
    <path clip-path="url(#pdcfe84bc8d)" d="M 111.59 433.16125 
L 123.426364 412.02125 
L 135.262727 422.59125 
L 147.099091 397.927917 
L 158.935455 406.73625 
L 170.771818 412.02125 
L 182.608182 408.497917 
L 194.444545 378.80125 
L 206.280909 348.60125 
L 218.117273 355.647917 
L 229.953636 373.96925 
L 241.79 390.88125 
L 253.626364 383.834583 
L 265.462727 395.759712 
L 277.299091 387.86125 
L 289.135455 392.290583 
L 300.971818 400.13 
L 312.808182 393.368309 
L 324.644545 402.625694 
L 336.480909 397.557039 
L 348.317273 390.88125 
L 360.153636 396.92125 
L 371.99 393.763977 
L 383.826364 398.234293 
L 395.662727 391.762083 
L 407.499091 386.65325 
L 419.335455 392.507404 
L 431.171818 395.579028 
L 443.008182 382.57625 
L 454.844545 384.32056 
L 466.680909 373.264583 
L 478.517273 375.878669 
L 490.353636 377.008125 
L 502.19 369.100644 
" style="fill:none;stroke:#94c4df;stroke-linecap:square;stroke-width:1.5;"/>
   </g>
   <g id="line2d_55">
    <path clip-path="url(#pdcfe84bc8d)" d="M 111.59 433.16125 
L 123.426364 412.02125 
L 135.262727 390.88125 
L 147.099091 390.88125 
L 158.935455 380.31125 
L 170.771818 386.65325 
L 182.608182 383.834583 
L 194.444545 372.76125 
L 206.280909 382.95375 
L 218.117273 388.532361 
L 229.953636 382.42525 
L 241.79 398.568523 
L 253.626364 404.974583 
L 265.462727 403.890481 
L 277.299091 393.90125 
L 289.135455 389.471917 
L 300.971818 393.52375 
L 312.808182 390.88125 
L 324.644545 385.009028 
L 336.480909 379.754934 
L 348.317273 376.08325 
L 360.153636 374.774583 
L 371.99 381.272159 
L 383.826364 380.770815 
L 395.662727 391.762083 
L 407.499091 385.80765 
L 419.335455 385.189712 
L 431.171818 385.400509 
L 443.008182 381.82125 
L 454.844545 377.759871 
L 466.680909 368.331917 
L 478.517273 362.23996 
L 490.353636 365.7775 
L 502.19 351.163674 
" style="fill:none;stroke:#94c4df;stroke-linecap:square;stroke-width:1.5;"/>
   </g>
   <g id="line2d_56">
    <path clip-path="url(#pdcfe84bc8d)" d="M 111.59 306.32125 
L 123.426364 369.74125 
L 135.262727 359.17125 
L 147.099091 390.88125 
L 158.935455 385.59625 
L 170.771818 399.33725 
L 182.608182 387.357917 
L 194.444545 393.90125 
L 206.280909 404.09375 
L 218.117273 416.719028 
L 229.953636 395.10925 
L 241.79 390.88125 
L 253.626364 394.404583 
L 265.462727 395.759712 
L 277.299091 389.37125 
L 289.135455 379.606583 
L 300.971818 385.59625 
L 312.808182 388.394191 
L 324.644545 379.136806 
L 336.480909 379.754934 
L 348.317273 379.25425 
L 360.153636 375.78125 
L 371.99 365.897614 
L 383.826364 366.064728 
L 395.662727 374.145417 
L 407.499091 377.35165 
L 419.335455 389.255096 
L 431.171818 398.71088 
L 443.008182 393.14625 
L 454.844545 381.404698 
L 466.680909 375.378583 
L 478.517273 387.471573 
L 490.353636 380.971875 
L 502.19 364.616402 
" style="fill:none;stroke:#94c4df;stroke-linecap:square;stroke-width:1.5;"/>
   </g>
   <g id="line2d_57">
    <path clip-path="url(#pdcfe84bc8d)" d="M 111.59 433.16125 
L 123.426364 412.02125 
L 135.262727 390.88125 
L 147.099091 426.114583 
L 158.935455 417.30625 
L 170.771818 412.02125 
L 182.608182 404.974583 
L 194.444545 415.04125 
L 206.280909 385.59625 
L 218.117273 390.88125 
L 229.953636 390.88125 
L 241.79 383.193977 
L 253.626364 385.59625 
L 265.462727 390.88125 
L 277.299091 384.84125 
L 289.135455 388.062583 
L 300.971818 385.59625 
L 312.808182 387.150662 
L 324.644545 390.88125 
L 336.480909 391.993882 
L 348.317273 396.16625 
L 360.153636 390.88125 
L 371.99 386.076705 
L 383.826364 388.123859 
L 395.662727 381.192083 
L 407.499091 379.04285 
L 419.335455 393.320481 
L 431.171818 393.230139 
L 443.008182 390.88125 
L 454.844545 388.694353 
L 466.680909 382.42525 
L 478.517273 384.743831 
L 490.353636 384.935625 
L 502.19 369.74125 
" style="fill:none;stroke:#94c4df;stroke-linecap:square;stroke-width:1.5;"/>
   </g>
   <g id="line2d_58">
    <path clip-path="url(#pdcfe84bc8d)" d="M 111.59 433.16125 
L 123.426364 433.16125 
L 135.262727 401.45125 
L 147.099091 412.02125 
L 158.935455 417.30625 
L 170.771818 407.79325 
L 182.608182 387.357917 
L 194.444545 381.82125 
L 206.280909 359.17125 
L 218.117273 367.392361 
L 229.953636 367.62725 
L 241.79 379.350341 
L 253.626364 396.16625 
L 265.462727 395.759712 
L 277.299091 412.02125 
L 289.135455 409.202583 
L 300.971818 405.415 
L 312.808182 400.829485 
L 324.644545 385.009028 
L 336.480909 375.304408 
L 348.317273 361.28525 
L 360.153636 360.68125 
L 371.99 368.780341 
L 383.826364 375.256033 
L 395.662727 375.02625 
L 407.499091 390.88125 
L 419.335455 381.937404 
L 431.171818 384.617546 
L 443.008182 378.04625 
L 454.844545 370.470216 
L 466.680909 383.129917 
L 478.517273 370.423185 
L 490.353636 371.0625 
L 502.19 349.882462 
" style="fill:none;stroke:#94c4df;stroke-linecap:square;stroke-width:1.5;"/>
   </g>
   <g id="line2d_59">
    <path clip-path="url(#pdcfe84bc8d)" d="M 111.59 433.16125 
L 123.426364 390.88125 
L 135.262727 422.59125 
L 147.099091 404.974583 
L 158.935455 396.16625 
L 170.771818 365.51325 
L 182.608182 366.217917 
L 194.444545 372.76125 
L 206.280909 367.09875 
L 218.117273 376.787917 
L 229.953636 399.33725 
L 241.79 400.490341 
L 253.626364 387.357917 
L 265.462727 381.124327 
L 277.299091 386.35125 
L 289.135455 403.56525 
L 300.971818 402.7725 
L 312.808182 403.316544 
L 324.644545 408.497917 
L 336.480909 396.444408 
L 348.317273 400.39425 
L 360.153636 396.92125 
L 371.99 399.529432 
L 383.826364 400.072554 
L 395.662727 377.66875 
L 407.499091 377.35165 
L 419.335455 372.180481 
L 431.171818 379.136806 
L 443.008182 374.27125 
L 454.844545 380.675733 
L 466.680909 382.42525 
L 478.517273 375.878669 
L 490.353636 381.6325 
L 502.19 357.569735 
" style="fill:none;stroke:#94c4df;stroke-linecap:square;stroke-width:1.5;"/>
   </g>
   <g id="line2d_60">
    <path clip-path="url(#pdcfe84bc8d)" d="M 111.59 306.32125 
L 123.426364 412.02125 
L 135.262727 390.88125 
L 147.099091 369.74125 
L 158.935455 380.31125 
L 170.771818 399.33725 
L 182.608182 404.974583 
L 194.444545 418.06125 
L 206.280909 412.02125 
L 218.117273 407.323472 
L 229.953636 401.45125 
L 241.79 406.255795 
L 253.626364 399.689583 
L 265.462727 394.133558 
L 277.299091 402.96125 
L 289.135455 392.290583 
L 300.971818 380.31125 
L 312.808182 385.907132 
L 324.644545 386.183472 
L 336.480909 381.980197 
L 348.317273 394.05225 
L 360.153636 386.854583 
L 371.99 384.154886 
L 383.826364 379.851685 
L 395.662727 383.834583 
L 407.499091 394.26365 
L 419.335455 381.937404 
L 431.171818 385.400509 
L 443.008182 385.59625 
L 454.844545 377.759871 
L 466.680909 386.65325 
L 478.517273 382.016089 
L 490.353636 368.42 
L 502.19 352.444886 
" style="fill:none;stroke:#94c4df;stroke-linecap:square;stroke-width:1.5;"/>
   </g>
   <g id="line2d_61">
    <path clip-path="url(#pdcfe84bc8d)" d="M 111.59 306.32125 
L 123.426364 412.02125 
L 135.262727 433.16125 
L 147.099091 426.114583 
L 158.935455 427.87625 
L 170.771818 420.47725 
L 182.608182 408.497917 
L 194.444545 409.00125 
L 206.280909 406.73625 
L 218.117273 412.02125 
L 229.953636 403.56525 
L 241.79 394.724886 
L 253.626364 399.689583 
L 265.462727 412.02125 
L 277.299091 398.43125 
L 289.135455 396.518583 
L 300.971818 390.88125 
L 312.808182 379.689485 
L 324.644545 382.660139 
L 336.480909 385.318092 
L 348.317273 391.93825 
L 360.153636 367.727917 
L 371.99 377.428523 
L 383.826364 380.770815 
L 395.662727 386.477083 
L 407.499091 395.95485 
L 419.335455 400.638173 
L 431.171818 390.098287 
L 443.008182 386.35125 
L 454.844545 381.404698 
L 466.680909 368.331917 
L 478.517273 377.924476 
L 490.353636 382.95375 
L 502.19 362.053977 
" style="fill:none;stroke:#94c4df;stroke-linecap:square;stroke-width:1.5;"/>
   </g>
   <g id="line2d_62">
    <path clip-path="url(#pdcfe84bc8d)" d="M 111.59 433.16125 
L 123.426364 433.16125 
L 135.262727 390.88125 
L 147.099091 390.88125 
L 158.935455 390.88125 
L 170.771818 357.05725 
L 182.608182 366.217917 
L 194.444545 390.88125 
L 206.280909 388.23875 
L 218.117273 402.625694 
L 229.953636 397.22325 
L 241.79 398.568523 
L 253.626364 392.642917 
L 265.462727 392.507404 
L 277.299091 398.43125 
L 289.135455 399.33725 
L 300.971818 398.80875 
L 312.808182 402.073015 
L 324.644545 382.660139 
L 336.480909 380.867566 
L 348.317273 381.36825 
L 360.153636 386.854583 
L 371.99 380.31125 
L 383.826364 387.204728 
L 395.662727 385.59625 
L 407.499091 380.73405 
L 419.335455 383.563558 
L 431.171818 378.353843 
L 443.008182 391.63625 
L 454.844545 383.591595 
L 466.680909 388.76725 
L 478.517273 390.88125 
L 490.353636 402.111875 
L 502.19 383.834583 
" style="fill:none;stroke:#94c4df;stroke-linecap:square;stroke-width:1.5;"/>
   </g>
   <g id="line2d_63">
    <path clip-path="url(#pdcfe84bc8d)" d="M 111.59 179.48125 
L 123.426364 306.32125 
L 135.262727 295.75125 
L 147.099091 320.414583 
L 158.935455 364.45625 
L 170.771818 382.42525 
L 182.608182 415.544583 
L 194.444545 399.94125 
L 206.280909 398.80875 
L 218.117273 409.672361 
L 229.953636 416.24925 
L 241.79 402.412159 
L 253.626364 408.497917 
L 265.462727 395.759712 
L 277.299091 401.45125 
L 289.135455 397.927917 
L 300.971818 392.2025 
L 312.808182 393.368309 
L 324.644545 385.009028 
L 336.480909 395.331776 
L 348.317273 392.99525 
L 360.153636 394.907917 
L 371.99 395.685795 
L 383.826364 402.829946 
L 395.662727 390.88125 
L 407.499091 391.72685 
L 419.335455 385.189712 
L 431.171818 384.617546 
L 443.008182 389.37125 
L 454.844545 392.339181 
L 466.680909 397.22325 
L 478.517273 401.110282 
L 490.353636 402.7725 
L 502.19 379.350341 
" style="fill:none;stroke:#94c4df;stroke-linecap:square;stroke-width:1.5;"/>
   </g>
   <g id="line2d_64">
    <path clip-path="url(#pdcfe84bc8d)" d="M 111.59 306.32125 
L 123.426364 221.76125 
L 135.262727 211.19125 
L 147.099091 228.807917 
L 158.935455 227.04625 
L 170.771818 213.30525 
L 182.608182 221.76125 
L 194.444545 212.70125 
L 206.280909 219.11875 
L 218.117273 214.714583 
L 229.953636 232.33125 
L 241.79 231.370341 
L 253.626364 219.999583 
L 265.462727 226.639712 
L 277.299091 220.25125 
L 289.135455 203.439917 
L 300.971818 215.155 
L 312.808182 218.030662 
L 324.644545 215.889028 
L 336.480909 217.310724 
L 348.317273 223.87525 
L 360.153636 215.72125 
L 371.99 221.76125 
L 383.826364 222.68038 
L 395.662727 220.880417 
L 407.499091 220.91565 
L 419.335455 232.33125 
L 431.171818 220.195324 
L 443.008182 211.19125 
L 454.844545 233.424698 
L 466.680909 226.693917 
L 478.517273 231.308347 
L 490.353636 237.61625 
L 502.19 241.620038 
" style="fill:none;stroke:#000000;stroke-linecap:square;stroke-width:1.5;"/>
   </g>
   <g id="line2d_65">
    <path clip-path="url(#pdcfe84bc8d)" d="M 111.59 179.48125 
L 123.426364 221.76125 
L 135.262727 200.62125 
L 147.099091 193.574583 
L 158.935455 237.61625 
L 170.771818 242.90125 
L 182.608182 228.807917 
L 194.444545 215.72125 
L 206.280909 229.68875 
L 218.117273 238.203472 
L 229.953636 225.98925 
L 241.79 225.604886 
L 253.626364 221.76125 
L 265.462727 239.648942 
L 277.299091 226.29125 
L 289.135455 213.30525 
L 300.971818 231.01 
L 312.808182 223.004779 
L 324.644545 227.633472 
L 336.480909 222.873882 
L 348.317273 232.33125 
L 360.153636 224.78125 
L 371.99 225.604886 
L 383.826364 223.599511 
L 395.662727 225.284583 
L 407.499091 220.91565 
L 419.335455 223.387404 
L 431.171818 222.544213 
L 443.008182 224.78125 
L 454.844545 236.34056 
L 466.680909 235.854583 
L 478.517273 244.265121 
L 490.353636 236.955625 
L 502.19 242.90125 
" style="fill:none;stroke:#000000;stroke-linecap:square;stroke-width:1.5;"/>
   </g>
   <g id="line2d_66">
    <path clip-path="url(#pdcfe84bc8d)" d="M 111.59 306.32125 
L 123.426364 242.90125 
L 135.262727 211.19125 
L 147.099091 214.714583 
L 158.935455 221.76125 
L 170.771818 225.98925 
L 182.608182 228.807917 
L 194.444545 221.76125 
L 206.280909 227.04625 
L 218.117273 219.412361 
L 229.953636 228.10325 
L 241.79 208.308523 
L 253.626364 200.62125 
L 265.462727 215.256635 
L 277.299091 214.21125 
L 289.135455 221.76125 
L 300.971818 220.44 
L 312.808182 234.196544 
L 324.644545 228.807917 
L 336.480909 220.648618 
L 348.317273 224.93225 
L 360.153636 230.82125 
L 371.99 224.643977 
L 383.826364 208.893424 
L 395.662727 219.11875 
L 407.499091 214.99645 
L 419.335455 213.630481 
L 431.171818 220.195324 
L 443.008182 222.51625 
L 454.844545 239.256422 
L 466.680909 237.263917 
L 478.517273 233.354153 
L 490.353636 232.33125 
L 502.19 250.588523 
" style="fill:none;stroke:#000000;stroke-linecap:square;stroke-width:1.5;"/>
   </g>
   <g id="line2d_67">
    <path clip-path="url(#pdcfe84bc8d)" d="M 111.59 179.48125 
L 123.426364 179.48125 
L 135.262727 190.05125 
L 147.099091 221.76125 
L 158.935455 211.19125 
L 170.771818 217.53325 
L 182.608182 211.19125 
L 194.444545 212.70125 
L 206.280909 213.83375 
L 218.117273 226.459028 
L 229.953636 232.33125 
L 241.79 223.683068 
L 253.626364 221.76125 
L 265.462727 218.508942 
L 277.299091 218.74125 
L 289.135455 230.21725 
L 300.971818 212.5125 
L 312.808182 230.465956 
L 324.644545 224.110139 
L 336.480909 232.887566 
L 348.317273 220.70425 
L 360.153636 216.727917 
L 371.99 230.409432 
L 383.826364 218.084728 
L 395.662727 212.952917 
L 407.499091 228.52605 
L 419.335455 218.508942 
L 431.171818 218.629398 
L 443.008182 232.33125 
L 454.844545 225.406078 
L 466.680909 242.196583 
L 478.517273 244.947056 
L 490.353636 232.991875 
L 502.19 261.478826 
" style="fill:none;stroke:#000000;stroke-linecap:square;stroke-width:1.5;"/>
   </g>
   <g id="line2d_68">
    <path clip-path="url(#pdcfe84bc8d)" d="M 111.59 179.48125 
L 123.426364 158.34125 
L 135.262727 190.05125 
L 147.099091 214.714583 
L 158.935455 227.04625 
L 170.771818 221.76125 
L 182.608182 228.807917 
L 194.444545 239.88125 
L 206.280909 219.11875 
L 218.117273 212.365694 
L 229.953636 211.19125 
L 241.79 217.917614 
L 253.626364 223.522917 
L 265.462727 218.508942 
L 277.299091 230.82125 
L 289.135455 220.351917 
L 300.971818 216.47625 
L 312.808182 215.543603 
L 324.644545 222.935694 
L 336.480909 219.535987 
L 348.317273 224.93225 
L 360.153636 216.727917 
L 371.99 223.683068 
L 383.826364 220.84212 
L 395.662727 237.61625 
L 407.499091 223.45245 
L 419.335455 220.948173 
L 431.171818 230.373843 
L 443.008182 220.25125 
L 454.844545 229.779871 
L 466.680909 227.398583 
L 478.517273 242.90125 
L 490.353636 231.01 
L 502.19 245.463674 
" style="fill:none;stroke:#000000;stroke-linecap:square;stroke-width:1.5;"/>
   </g>
   <g id="line2d_69">
    <path clip-path="url(#pdcfe84bc8d)" d="M 111.59 179.48125 
L 123.426364 200.62125 
L 135.262727 190.05125 
L 147.099091 207.667917 
L 158.935455 232.33125 
L 170.771818 204.84925 
L 182.608182 207.667917 
L 194.444545 200.62125 
L 206.280909 221.76125 
L 218.117273 207.667917 
L 229.953636 221.76125 
L 241.79 223.683068 
L 253.626364 232.33125 
L 265.462727 216.882788 
L 277.299091 238.37125 
L 289.135455 228.807917 
L 300.971818 216.47625 
L 312.808182 214.300074 
L 324.644545 226.459028 
L 336.480909 227.324408 
L 348.317273 221.76125 
L 360.153636 223.774583 
L 371.99 217.917614 
L 383.826364 229.114293 
L 395.662727 214.714583 
L 407.499091 225.98925 
L 419.335455 218.508942 
L 431.171818 223.327176 
L 443.008182 224.78125 
L 454.844545 229.779871 
L 466.680909 232.33125 
L 478.517273 236.081895 
L 490.353636 231.01 
L 502.19 246.10428 
" style="fill:none;stroke:#000000;stroke-linecap:square;stroke-width:1.5;"/>
   </g>
   <g id="line2d_70">
    <path clip-path="url(#pdcfe84bc8d)" d="M 111.59 179.48125 
L 123.426364 179.48125 
L 135.262727 232.33125 
L 147.099091 214.714583 
L 158.935455 232.33125 
L 170.771818 217.53325 
L 182.608182 207.667917 
L 194.444545 230.82125 
L 206.280909 240.25875 
L 218.117273 205.319028 
L 229.953636 215.41925 
L 241.79 239.057614 
L 253.626364 214.714583 
L 265.462727 228.265865 
L 277.299091 212.70125 
L 289.135455 221.76125 
L 300.971818 229.68875 
L 312.808182 229.222426 
L 324.644545 226.459028 
L 336.480909 225.099145 
L 348.317273 237.61625 
L 360.153636 222.767917 
L 371.99 231.370341 
L 383.826364 231.871685 
L 395.662727 225.284583 
L 407.499091 231.90845 
L 419.335455 225.013558 
L 431.171818 222.544213 
L 443.008182 224.78125 
L 454.844545 222.490216 
L 466.680909 227.398583 
L 478.517273 234.036089 
L 490.353636 223.743125 
L 502.19 250.588523 
" style="fill:none;stroke:#000000;stroke-linecap:square;stroke-width:1.5;"/>
   </g>
   <g id="line2d_71">
    <path clip-path="url(#pdcfe84bc8d)" d="M 111.59 179.48125 
L 123.426364 221.76125 
L 135.262727 221.76125 
L 147.099091 214.714583 
L 158.935455 221.76125 
L 170.771818 221.76125 
L 182.608182 235.854583 
L 194.444545 203.64125 
L 206.280909 232.33125 
L 218.117273 219.412361 
L 229.953636 236.55925 
L 241.79 227.526705 
L 253.626364 225.284583 
L 265.462727 241.275096 
L 277.299091 233.84125 
L 289.135455 221.76125 
L 300.971818 228.3675 
L 312.808182 225.491838 
L 324.644545 229.982361 
L 336.480909 227.324408 
L 348.317273 222.81825 
L 360.153636 215.72125 
L 371.99 228.487614 
L 383.826364 228.195163 
L 395.662727 227.04625 
L 407.499091 231.06285 
L 419.335455 225.013558 
L 431.171818 227.241991 
L 443.008182 227.80125 
L 454.844545 223.219181 
L 466.680909 226.693917 
L 478.517273 231.990282 
L 490.353636 230.349375 
L 502.19 241.620038 
" style="fill:none;stroke:#000000;stroke-linecap:square;stroke-width:1.5;"/>
   </g>
   <g id="line2d_72">
    <path clip-path="url(#pdcfe84bc8d)" d="M 111.59 306.32125 
L 123.426364 200.62125 
L 135.262727 221.76125 
L 147.099091 214.714583 
L 158.935455 221.76125 
L 170.771818 200.62125 
L 182.608182 211.19125 
L 194.444545 227.80125 
L 206.280909 224.40375 
L 218.117273 242.90125 
L 229.953636 223.87525 
L 241.79 217.917614 
L 253.626364 219.999583 
L 265.462727 215.256635 
L 277.299091 218.74125 
L 289.135455 227.398583 
L 300.971818 231.01 
L 312.808182 229.222426 
L 324.644545 220.586806 
L 336.480909 227.324408 
L 348.317273 220.70425 
L 360.153636 224.78125 
L 371.99 234.253068 
L 383.826364 232.790815 
L 395.662727 216.47625 
L 407.499091 216.68765 
L 419.335455 224.200481 
L 431.171818 224.893102 
L 443.008182 221.00625 
L 454.844545 223.219181 
L 466.680909 232.33125 
L 478.517273 246.310927 
L 490.353636 227.706875 
L 502.19 243.541856 
" style="fill:none;stroke:#000000;stroke-linecap:square;stroke-width:1.5;"/>
   </g>
   <g id="line2d_73">
    <path clip-path="url(#pdcfe84bc8d)" d="M 111.59 52.64125 
L 123.426364 158.34125 
L 135.262727 200.62125 
L 147.099091 207.667917 
L 158.935455 221.76125 
L 170.771818 221.76125 
L 182.608182 239.377917 
L 194.444545 239.88125 
L 206.280909 237.61625 
L 218.117273 217.063472 
L 229.953636 219.64725 
L 241.79 227.526705 
L 253.626364 225.284583 
L 265.462727 226.639712 
L 277.299091 208.17125 
L 289.135455 230.21725 
L 300.971818 225.725 
L 312.808182 219.274191 
L 324.644545 222.935694 
L 336.480909 219.535987 
L 348.317273 221.76125 
L 360.153636 220.754583 
L 371.99 218.878523 
L 383.826364 218.084728 
L 395.662727 223.522917 
L 407.499091 229.37165 
L 419.335455 230.705096 
L 431.171818 213.93162 
L 443.008182 228.55625 
L 454.844545 231.966767 
L 466.680909 238.67325 
L 478.517273 237.445766 
L 490.353636 237.61625 
L 502.19 253.791553 
" style="fill:none;stroke:#000000;stroke-linecap:square;stroke-width:1.5;"/>
   </g>
   <g id="line2d_74">
    <path clip-path="url(#pdcfe84bc8d)" d="M 99.753636 433.16125 
" style="fill:none;stroke:#000000;stroke-linecap:square;stroke-width:1.5;"/>
   </g>
   <g id="line2d_75">
    <path clip-path="url(#pdcfe84bc8d)" d="M 99.753636 433.16125 
" style="fill:none;stroke:#d0e1f2;stroke-linecap:square;stroke-width:1.5;"/>
   </g>
   <g id="line2d_76">
    <path clip-path="url(#pdcfe84bc8d)" d="M 99.753636 433.16125 
" style="fill:none;stroke:#94c4df;stroke-linecap:square;stroke-width:1.5;"/>
   </g>
   <g id="line2d_77">
    <path clip-path="url(#pdcfe84bc8d)" d="M 99.753636 433.16125 
" style="fill:none;stroke:#4a98c9;stroke-linecap:square;stroke-width:1.5;"/>
   </g>
   <g id="line2d_78">
    <path clip-path="url(#pdcfe84bc8d)" d="M 99.753636 433.16125 
" style="fill:none;stroke:#1764ab;stroke-linecap:square;stroke-width:1.5;"/>
   </g>
   <g id="line2d_79">
    <path clip-path="url(#pdcfe84bc8d)" d="M 99.753636 433.16125 
" style="fill:none;stroke:#08306b;stroke-linecap:square;stroke-width:1.5;"/>
   </g>
   <g id="line2d_80">
    <path clip-path="url(#pdcfe84bc8d)" d="M 99.753636 433.16125 
" style="fill:none;stroke:#000000;stroke-linecap:square;stroke-width:1.5;"/>
   </g>
   <g id="line2d_81">
    <path clip-path="url(#pdcfe84bc8d)" d="M 99.753636 433.16125 
" style="fill:none;stroke:#000000;stroke-dasharray:1.5,2.475;stroke-dashoffset:0;stroke-width:1.5;"/>
   </g>
   <g id="line2d_82">
    <path clip-path="url(#pdcfe84bc8d)" d="M 99.753636 433.16125 
" style="fill:none;stroke:#000000;stroke-linecap:square;stroke-width:1.5;"/>
   </g>
   <g id="line2d_83">
    <path clip-path="url(#pdcfe84bc8d)" d="M 99.753636 433.16125 
" style="fill:none;stroke:#000000;stroke-dasharray:5.55,2.4;stroke-dashoffset:0;stroke-width:1.5;"/>
   </g>
   <g id="line2d_84">
    <path clip-path="url(#pdcfe84bc8d)" d="M 99.753636 433.16125 
" style="fill:none;stroke:#000000;stroke-dasharray:9.6,2.4,1.5,2.4;stroke-dashoffset:0;stroke-width:1.5;"/>
   </g>
   <g id="line2d_85">
    <path clip-path="url(#pdcfe84bc8d)" d="M 99.753636 433.16125 
" style="fill:none;stroke:#000000;stroke-dasharray:9.6,2.4,1.5,2.4;stroke-dashoffset:0;stroke-width:1.5;"/>
   </g>
   <g id="patch_3">
    <path d="M 111.59 433.16125 
L 111.59 52.64125 
" style="fill:none;stroke:#000000;stroke-linecap:square;stroke-linejoin:miter;stroke-width:0.8;"/>
   </g>
   <g id="patch_4">
    <path d="M 502.19 433.16125 
L 502.19 52.64125 
" style="fill:none;stroke:#000000;stroke-linecap:square;stroke-linejoin:miter;stroke-width:0.8;"/>
   </g>
   <g id="patch_5">
    <path d="M 111.59 433.16125 
L 502.19 433.16125 
" style="fill:none;stroke:#000000;stroke-linecap:square;stroke-linejoin:miter;stroke-width:0.8;"/>
   </g>
   <g id="patch_6">
    <path d="M 111.59 52.64125 
L 502.19 52.64125 
" style="fill:none;stroke:#000000;stroke-linecap:square;stroke-linejoin:miter;stroke-width:0.8;"/>
   </g>
   <g id="text_16">
    <!-- CANCER LIVE NORMALIZED COUNT -->
    <g transform="translate(131.338437 21.515625)scale(0.2 -0.2)">
     <use xlink:href="#Arial-BoldMT-67"/>
     <use x="72.216797" xlink:href="#Arial-BoldMT-65"/>
     <use x="144.433594" xlink:href="#Arial-BoldMT-78"/>
     <use x="216.650391" xlink:href="#Arial-BoldMT-67"/>
     <use x="288.867188" xlink:href="#Arial-BoldMT-69"/>
     <use x="355.566406" xlink:href="#Arial-BoldMT-82"/>
     <use x="427.783203" xlink:href="#Arial-BoldMT-32"/>
     <use x="455.566406" xlink:href="#Arial-BoldMT-76"/>
     <use x="516.650391" xlink:href="#Arial-BoldMT-73"/>
     <use x="544.433594" xlink:href="#Arial-BoldMT-86"/>
     <use x="611.132812" xlink:href="#Arial-BoldMT-69"/>
     <use x="677.832031" xlink:href="#Arial-BoldMT-32"/>
     <use x="705.615234" xlink:href="#Arial-BoldMT-78"/>
     <use x="777.832031" xlink:href="#Arial-BoldMT-79"/>
     <use x="855.615234" xlink:href="#Arial-BoldMT-82"/>
     <use x="927.832031" xlink:href="#Arial-BoldMT-77"/>
     <use x="1011.132812" xlink:href="#Arial-BoldMT-65"/>
     <use x="1083.349609" xlink:href="#Arial-BoldMT-76"/>
     <use x="1144.433594" xlink:href="#Arial-BoldMT-73"/>
     <use x="1172.216797" xlink:href="#Arial-BoldMT-90"/>
     <use x="1233.300781" xlink:href="#Arial-BoldMT-69"/>
     <use x="1300" xlink:href="#Arial-BoldMT-68"/>
     <use x="1372.216797" xlink:href="#Arial-BoldMT-32"/>
     <use x="1400" xlink:href="#Arial-BoldMT-67"/>
     <use x="1472.216797" xlink:href="#Arial-BoldMT-79"/>
     <use x="1550" xlink:href="#Arial-BoldMT-85"/>
     <use x="1622.216797" xlink:href="#Arial-BoldMT-78"/>
     <use x="1694.433594" xlink:href="#Arial-BoldMT-84"/>
    </g>
    <!-- ACROSS RADIUS AT TIME 7 -->
    <defs>
     <path d="M 4.25 57.859375 
L 4.25 70.609375 
L 51.171875 70.609375 
L 51.171875 60.640625 
Q 45.359375 54.9375 39.34375 44.234375 
Q 33.34375 33.546875 30.1875 21.5 
Q 27.046875 9.46875 27.09375 0 
L 13.875 0 
Q 14.203125 14.84375 19.984375 30.265625 
Q 25.78125 45.703125 35.453125 57.859375 
z
" id="Arial-BoldMT-55"/>
    </defs>
    <g transform="translate(171.89625 42.64125)scale(0.2 -0.2)">
     <use xlink:href="#Arial-BoldMT-65"/>
     <use x="72.216797" xlink:href="#Arial-BoldMT-67"/>
     <use x="144.433594" xlink:href="#Arial-BoldMT-82"/>
     <use x="216.650391" xlink:href="#Arial-BoldMT-79"/>
     <use x="294.433594" xlink:href="#Arial-BoldMT-83"/>
     <use x="361.132812" xlink:href="#Arial-BoldMT-83"/>
     <use x="427.832031" xlink:href="#Arial-BoldMT-32"/>
     <use x="455.615234" xlink:href="#Arial-BoldMT-82"/>
     <use x="527.832031" xlink:href="#Arial-BoldMT-65"/>
     <use x="600.048828" xlink:href="#Arial-BoldMT-68"/>
     <use x="672.265625" xlink:href="#Arial-BoldMT-73"/>
     <use x="700.048828" xlink:href="#Arial-BoldMT-85"/>
     <use x="772.265625" xlink:href="#Arial-BoldMT-83"/>
     <use x="838.964844" xlink:href="#Arial-BoldMT-32"/>
     <use x="866.701172" xlink:href="#Arial-BoldMT-65"/>
     <use x="938.808594" xlink:href="#Arial-BoldMT-84"/>
     <use x="999.892578" xlink:href="#Arial-BoldMT-32"/>
     <use x="1027.675781" xlink:href="#Arial-BoldMT-84"/>
     <use x="1088.759766" xlink:href="#Arial-BoldMT-73"/>
     <use x="1116.542969" xlink:href="#Arial-BoldMT-77"/>
     <use x="1199.84375" xlink:href="#Arial-BoldMT-69"/>
     <use x="1266.542969" xlink:href="#Arial-BoldMT-32"/>
     <use x="1294.326172" xlink:href="#Arial-BoldMT-55"/>
    </g>
   </g>
   <g id="legend_1">
    <g id="line2d_86">
     <path d="M 511.19 65.739687 
L 531.19 65.739687 
" style="fill:none;stroke:#000000;stroke-linecap:square;stroke-width:1.5;"/>
    </g>
    <g id="line2d_87"/>
    <g id="text_17">
     <!-- 0 -->
     <g transform="translate(539.19 69.239687)scale(0.1 -0.1)">
      <use xlink:href="#DejaVuSans-48"/>
     </g>
    </g>
    <g id="line2d_88">
     <path d="M 511.19 80.417812 
L 531.19 80.417812 
" style="fill:none;stroke:#d0e1f2;stroke-linecap:square;stroke-width:1.5;"/>
    </g>
    <g id="line2d_89"/>
    <g id="text_18">
     <!-- 100 -->
     <g transform="translate(539.19 83.917812)scale(0.1 -0.1)">
      <use xlink:href="#DejaVuSans-49"/>
      <use x="63.623047" xlink:href="#DejaVuSans-48"/>
      <use x="127.246094" xlink:href="#DejaVuSans-48"/>
     </g>
    </g>
    <g id="line2d_90">
     <path d="M 511.19 95.095937 
L 531.19 95.095937 
" style="fill:none;stroke:#94c4df;stroke-linecap:square;stroke-width:1.5;"/>
    </g>
    <g id="line2d_91"/>
    <g id="text_19">
     <!-- 500 -->
     <g transform="translate(539.19 98.595937)scale(0.1 -0.1)">
      <use xlink:href="#DejaVuSans-53"/>
      <use x="63.623047" xlink:href="#DejaVuSans-48"/>
      <use x="127.246094" xlink:href="#DejaVuSans-48"/>
     </g>
    </g>
    <g id="line2d_92">
     <path d="M 511.19 109.774062 
L 531.19 109.774062 
" style="fill:none;stroke:#4a98c9;stroke-linecap:square;stroke-width:1.5;"/>
    </g>
    <g id="line2d_93"/>
    <g id="text_20">
     <!-- 1000 -->
     <g transform="translate(539.19 113.274062)scale(0.1 -0.1)">
      <use xlink:href="#DejaVuSans-49"/>
      <use x="63.623047" xlink:href="#DejaVuSans-48"/>
      <use x="127.246094" xlink:href="#DejaVuSans-48"/>
      <use x="190.869141" xlink:href="#DejaVuSans-48"/>
     </g>
    </g>
    <g id="line2d_94">
     <path d="M 511.19 124.452187 
L 531.19 124.452187 
" style="fill:none;stroke:#1764ab;stroke-linecap:square;stroke-width:1.5;"/>
    </g>
    <g id="line2d_95"/>
    <g id="text_21">
     <!-- 5000 -->
     <g transform="translate(539.19 127.952187)scale(0.1 -0.1)">
      <use xlink:href="#DejaVuSans-53"/>
      <use x="63.623047" xlink:href="#DejaVuSans-48"/>
      <use x="127.246094" xlink:href="#DejaVuSans-48"/>
      <use x="190.869141" xlink:href="#DejaVuSans-48"/>
     </g>
    </g>
    <g id="line2d_96">
     <path d="M 511.19 139.130312 
L 531.19 139.130312 
" style="fill:none;stroke:#08306b;stroke-linecap:square;stroke-width:1.5;"/>
    </g>
    <g id="line2d_97"/>
    <g id="text_22">
     <!-- 10000 -->
     <g transform="translate(539.19 142.630312)scale(0.1 -0.1)">
      <use xlink:href="#DejaVuSans-49"/>
      <use x="63.623047" xlink:href="#DejaVuSans-48"/>
      <use x="127.246094" xlink:href="#DejaVuSans-48"/>
      <use x="190.869141" xlink:href="#DejaVuSans-48"/>
      <use x="254.492188" xlink:href="#DejaVuSans-48"/>
     </g>
    </g>
    <g id="line2d_98">
     <path d="M 511.19 153.808437 
L 531.19 153.808437 
" style="fill:none;stroke:#000000;stroke-linecap:square;stroke-width:1.5;"/>
    </g>
    <g id="line2d_99"/>
    <g id="text_23">
     <!-- 0 -->
     <g transform="translate(539.19 157.308437)scale(0.1 -0.1)">
      <use xlink:href="#DejaVuSans-48"/>
     </g>
    </g>
    <g id="line2d_100">
     <path d="M 511.19 168.486562 
L 531.19 168.486562 
" style="fill:none;stroke:#000000;stroke-dasharray:1.5,2.475;stroke-dashoffset:0;stroke-width:1.5;"/>
    </g>
    <g id="line2d_101"/>
    <g id="text_24">
     <!-- 250 -->
     <g transform="translate(539.19 171.986562)scale(0.1 -0.1)">
      <use xlink:href="#DejaVuSans-50"/>
      <use x="63.623047" xlink:href="#DejaVuSans-53"/>
      <use x="127.246094" xlink:href="#DejaVuSans-48"/>
     </g>
    </g>
    <g id="line2d_102">
     <path d="M 511.19 183.164687 
L 531.19 183.164687 
" style="fill:none;stroke:#000000;stroke-linecap:square;stroke-width:1.5;"/>
    </g>
    <g id="line2d_103"/>
    <g id="text_25">
     <!-- 500 -->
     <g transform="translate(539.19 186.664687)scale(0.1 -0.1)">
      <use xlink:href="#DejaVuSans-53"/>
      <use x="63.623047" xlink:href="#DejaVuSans-48"/>
      <use x="127.246094" xlink:href="#DejaVuSans-48"/>
     </g>
    </g>
    <g id="line2d_104">
     <path d="M 511.19 197.842812 
L 531.19 197.842812 
" style="fill:none;stroke:#000000;stroke-dasharray:5.55,2.4;stroke-dashoffset:0;stroke-width:1.5;"/>
    </g>
    <g id="line2d_105"/>
    <g id="text_26">
     <!-- 1000 -->
     <g transform="translate(539.19 201.342812)scale(0.1 -0.1)">
      <use xlink:href="#DejaVuSans-49"/>
      <use x="63.623047" xlink:href="#DejaVuSans-48"/>
      <use x="127.246094" xlink:href="#DejaVuSans-48"/>
      <use x="190.869141" xlink:href="#DejaVuSans-48"/>
     </g>
    </g>
    <g id="line2d_106">
     <path d="M 511.19 212.520937 
L 531.19 212.520937 
" style="fill:none;stroke:#000000;stroke-dasharray:9.6,2.4,1.5,2.4;stroke-dashoffset:0;stroke-width:1.5;"/>
    </g>
    <g id="line2d_107"/>
    <g id="text_27">
     <!-- 5000 -->
     <g transform="translate(539.19 216.020937)scale(0.1 -0.1)">
      <use xlink:href="#DejaVuSans-53"/>
      <use x="63.623047" xlink:href="#DejaVuSans-48"/>
      <use x="127.246094" xlink:href="#DejaVuSans-48"/>
      <use x="190.869141" xlink:href="#DejaVuSans-48"/>
     </g>
    </g>
    <g id="line2d_108">
     <path d="M 511.19 227.199062 
L 531.19 227.199062 
" style="fill:none;stroke:#000000;stroke-dasharray:9.6,2.4,1.5,2.4;stroke-dashoffset:0;stroke-width:1.5;"/>
    </g>
    <g id="line2d_109"/>
    <g id="text_28">
     <!-- 10000 -->
     <g transform="translate(539.19 230.699062)scale(0.1 -0.1)">
      <use xlink:href="#DejaVuSans-49"/>
      <use x="63.623047" xlink:href="#DejaVuSans-48"/>
      <use x="127.246094" xlink:href="#DejaVuSans-48"/>
      <use x="190.869141" xlink:href="#DejaVuSans-48"/>
      <use x="254.492188" xlink:href="#DejaVuSans-48"/>
     </g>
    </g>
   </g>
  </g>
 </g>
 <defs>
  <clipPath id="pdcfe84bc8d">
   <rect height="380.52" width="390.6" x="111.59" y="52.64125"/>
  </clipPath>
 </defs>
</svg>
