<?xml version="1.0" encoding="utf-8" standalone="no"?>
<!DOCTYPE svg PUBLIC "-//W3C//DTD SVG 1.1//EN"
  "http://www.w3.org/Graphics/SVG/1.1/DTD/svg11.dtd">
<!-- Created with matplotlib (https://matplotlib.org/) -->
<svg height="504.658125pt" version="1.1" viewBox="0 0 591.755625 504.658125" width="591.755625pt" xmlns="http://www.w3.org/2000/svg" xmlns:xlink="http://www.w3.org/1999/xlink">
 <defs>
  <style type="text/css">
*{stroke-linecap:butt;stroke-linejoin:round;}
  </style>
 </defs>
 <g id="figure_1">
  <g id="patch_1">
   <path d="M -0 504.658125 
L 591.755625 504.658125 
L 591.755625 -0 
L -0 -0 
z
" style="fill:#ffffff;"/>
  </g>
  <g id="axes_1">
   <g id="patch_2">
    <path d="M 121.143125 433.16125 
L 511.743125 433.16125 
L 511.743125 52.64125 
L 121.143125 52.64125 
z
" style="fill:#ffffff;"/>
   </g>
   <g id="matplotlib.axis_1">
    <g id="xtick_1">
     <g id="line2d_1">
      <defs>
       <path d="M 0 0 
L 0 3.5 
" id="m200199ec0b" style="stroke:#000000;stroke-width:0.8;"/>
      </defs>
      <g>
       <use style="stroke:#000000;stroke-width:0.8;" x="168.48858" xlink:href="#m200199ec0b" y="433.16125"/>
      </g>
     </g>
     <g id="text_1">
      <!-- 5 -->
      <defs>
       <path d="M 10.796875 72.90625 
L 49.515625 72.90625 
L 49.515625 64.59375 
L 19.828125 64.59375 
L 19.828125 46.734375 
Q 21.96875 47.46875 24.109375 47.828125 
Q 26.265625 48.1875 28.421875 48.1875 
Q 40.625 48.1875 47.75 41.5 
Q 54.890625 34.8125 54.890625 23.390625 
Q 54.890625 11.625 47.5625 5.09375 
Q 40.234375 -1.421875 26.90625 -1.421875 
Q 22.3125 -1.421875 17.546875 -0.640625 
Q 12.796875 0.140625 7.71875 1.703125 
L 7.71875 11.625 
Q 12.109375 9.234375 16.796875 8.0625 
Q 21.484375 6.890625 26.703125 6.890625 
Q 35.15625 6.890625 40.078125 11.328125 
Q 45.015625 15.765625 45.015625 23.390625 
Q 45.015625 31 40.078125 35.4375 
Q 35.15625 39.890625 26.703125 39.890625 
Q 22.75 39.890625 18.8125 39.015625 
Q 14.890625 38.140625 10.796875 36.28125 
z
" id="DejaVuSans-53"/>
      </defs>
      <g transform="translate(158.94483 462.956562)scale(0.3 -0.3)">
       <use xlink:href="#DejaVuSans-53"/>
      </g>
     </g>
    </g>
    <g id="xtick_2">
     <g id="line2d_2">
      <g>
       <use style="stroke:#000000;stroke-width:0.8;" x="227.670398" xlink:href="#m200199ec0b" y="433.16125"/>
      </g>
     </g>
     <g id="text_2">
      <!-- 10 -->
      <defs>
       <path d="M 12.40625 8.296875 
L 28.515625 8.296875 
L 28.515625 63.921875 
L 10.984375 60.40625 
L 10.984375 69.390625 
L 28.421875 72.90625 
L 38.28125 72.90625 
L 38.28125 8.296875 
L 54.390625 8.296875 
L 54.390625 0 
L 12.40625 0 
z
" id="DejaVuSans-49"/>
       <path d="M 31.78125 66.40625 
Q 24.171875 66.40625 20.328125 58.90625 
Q 16.5 51.421875 16.5 36.375 
Q 16.5 21.390625 20.328125 13.890625 
Q 24.171875 6.390625 31.78125 6.390625 
Q 39.453125 6.390625 43.28125 13.890625 
Q 47.125 21.390625 47.125 36.375 
Q 47.125 51.421875 43.28125 58.90625 
Q 39.453125 66.40625 31.78125 66.40625 
z
M 31.78125 74.21875 
Q 44.046875 74.21875 50.515625 64.515625 
Q 56.984375 54.828125 56.984375 36.375 
Q 56.984375 17.96875 50.515625 8.265625 
Q 44.046875 -1.421875 31.78125 -1.421875 
Q 19.53125 -1.421875 13.0625 8.265625 
Q 6.59375 17.96875 6.59375 36.375 
Q 6.59375 54.828125 13.0625 64.515625 
Q 19.53125 74.21875 31.78125 74.21875 
z
" id="DejaVuSans-48"/>
      </defs>
      <g transform="translate(208.582898 462.956562)scale(0.3 -0.3)">
       <use xlink:href="#DejaVuSans-49"/>
       <use x="63.623047" xlink:href="#DejaVuSans-48"/>
      </g>
     </g>
    </g>
    <g id="xtick_3">
     <g id="line2d_3">
      <g>
       <use style="stroke:#000000;stroke-width:0.8;" x="286.852216" xlink:href="#m200199ec0b" y="433.16125"/>
      </g>
     </g>
     <g id="text_3">
      <!-- 15 -->
      <g transform="translate(267.764716 462.956562)scale(0.3 -0.3)">
       <use xlink:href="#DejaVuSans-49"/>
       <use x="63.623047" xlink:href="#DejaVuSans-53"/>
      </g>
     </g>
    </g>
    <g id="xtick_4">
     <g id="line2d_4">
      <g>
       <use style="stroke:#000000;stroke-width:0.8;" x="346.034034" xlink:href="#m200199ec0b" y="433.16125"/>
      </g>
     </g>
     <g id="text_4">
      <!-- 20 -->
      <defs>
       <path d="M 19.1875 8.296875 
L 53.609375 8.296875 
L 53.609375 0 
L 7.328125 0 
L 7.328125 8.296875 
Q 12.9375 14.109375 22.625 23.890625 
Q 32.328125 33.6875 34.8125 36.53125 
Q 39.546875 41.84375 41.421875 45.53125 
Q 43.3125 49.21875 43.3125 52.78125 
Q 43.3125 58.59375 39.234375 62.25 
Q 35.15625 65.921875 28.609375 65.921875 
Q 23.96875 65.921875 18.8125 64.3125 
Q 13.671875 62.703125 7.8125 59.421875 
L 7.8125 69.390625 
Q 13.765625 71.78125 18.9375 73 
Q 24.125 74.21875 28.421875 74.21875 
Q 39.75 74.21875 46.484375 68.546875 
Q 53.21875 62.890625 53.21875 53.421875 
Q 53.21875 48.921875 51.53125 44.890625 
Q 49.859375 40.875 45.40625 35.40625 
Q 44.1875 33.984375 37.640625 27.21875 
Q 31.109375 20.453125 19.1875 8.296875 
z
" id="DejaVuSans-50"/>
      </defs>
      <g transform="translate(326.946534 462.956562)scale(0.3 -0.3)">
       <use xlink:href="#DejaVuSans-50"/>
       <use x="63.623047" xlink:href="#DejaVuSans-48"/>
      </g>
     </g>
    </g>
    <g id="xtick_5">
     <g id="line2d_5">
      <g>
       <use style="stroke:#000000;stroke-width:0.8;" x="405.215852" xlink:href="#m200199ec0b" y="433.16125"/>
      </g>
     </g>
     <g id="text_5">
      <!-- 25 -->
      <g transform="translate(386.128352 462.956562)scale(0.3 -0.3)">
       <use xlink:href="#DejaVuSans-50"/>
       <use x="63.623047" xlink:href="#DejaVuSans-53"/>
      </g>
     </g>
    </g>
    <g id="xtick_6">
     <g id="line2d_6">
      <g>
       <use style="stroke:#000000;stroke-width:0.8;" x="464.39767" xlink:href="#m200199ec0b" y="433.16125"/>
      </g>
     </g>
     <g id="text_6">
      <!-- 30 -->
      <defs>
       <path d="M 40.578125 39.3125 
Q 47.65625 37.796875 51.625 33 
Q 55.609375 28.21875 55.609375 21.1875 
Q 55.609375 10.40625 48.1875 4.484375 
Q 40.765625 -1.421875 27.09375 -1.421875 
Q 22.515625 -1.421875 17.65625 -0.515625 
Q 12.796875 0.390625 7.625 2.203125 
L 7.625 11.71875 
Q 11.71875 9.328125 16.59375 8.109375 
Q 21.484375 6.890625 26.8125 6.890625 
Q 36.078125 6.890625 40.9375 10.546875 
Q 45.796875 14.203125 45.796875 21.1875 
Q 45.796875 27.640625 41.28125 31.265625 
Q 36.765625 34.90625 28.71875 34.90625 
L 20.21875 34.90625 
L 20.21875 43.015625 
L 29.109375 43.015625 
Q 36.375 43.015625 40.234375 45.921875 
Q 44.09375 48.828125 44.09375 54.296875 
Q 44.09375 59.90625 40.109375 62.90625 
Q 36.140625 65.921875 28.71875 65.921875 
Q 24.65625 65.921875 20.015625 65.03125 
Q 15.375 64.15625 9.8125 62.3125 
L 9.8125 71.09375 
Q 15.4375 72.65625 20.34375 73.4375 
Q 25.25 74.21875 29.59375 74.21875 
Q 40.828125 74.21875 47.359375 69.109375 
Q 53.90625 64.015625 53.90625 55.328125 
Q 53.90625 49.265625 50.4375 45.09375 
Q 46.96875 40.921875 40.578125 39.3125 
z
" id="DejaVuSans-51"/>
      </defs>
      <g transform="translate(445.31017 462.956562)scale(0.3 -0.3)">
       <use xlink:href="#DejaVuSans-51"/>
       <use x="63.623047" xlink:href="#DejaVuSans-48"/>
      </g>
     </g>
    </g>
    <g id="text_7">
     <!-- RADIUS -->
     <defs>
      <path d="M 7.328125 0 
L 7.328125 71.578125 
L 37.75 71.578125 
Q 49.21875 71.578125 54.421875 69.640625 
Q 59.625 67.71875 62.75 62.78125 
Q 65.875 57.859375 65.875 51.515625 
Q 65.875 43.453125 61.125 38.203125 
Q 56.390625 32.953125 46.96875 31.59375 
Q 51.65625 28.859375 54.703125 25.578125 
Q 57.765625 22.3125 62.9375 13.96875 
L 71.6875 0 
L 54.390625 0 
L 43.953125 15.578125 
Q 38.375 23.921875 36.328125 26.09375 
Q 34.28125 28.265625 31.984375 29.078125 
Q 29.6875 29.890625 24.703125 29.890625 
L 21.78125 29.890625 
L 21.78125 0 
z
M 21.78125 41.3125 
L 32.46875 41.3125 
Q 42.875 41.3125 45.453125 42.1875 
Q 48.046875 43.0625 49.515625 45.203125 
Q 50.984375 47.359375 50.984375 50.59375 
Q 50.984375 54.203125 49.046875 56.421875 
Q 47.125 58.640625 43.609375 59.234375 
Q 41.84375 59.46875 33.0625 59.46875 
L 21.78125 59.46875 
z
" id="Arial-BoldMT-82"/>
      <path d="M 71.828125 0 
L 56.109375 0 
L 49.859375 16.265625 
L 21.234375 16.265625 
L 15.328125 0 
L 0 0 
L 27.875 71.578125 
L 43.171875 71.578125 
z
M 45.21875 28.328125 
L 35.359375 54.890625 
L 25.6875 28.328125 
z
" id="Arial-BoldMT-65"/>
      <path d="M 7.234375 71.578125 
L 33.640625 71.578125 
Q 42.578125 71.578125 47.265625 70.21875 
Q 53.5625 68.359375 58.046875 63.625 
Q 62.546875 58.890625 64.890625 52.03125 
Q 67.234375 45.171875 67.234375 35.109375 
Q 67.234375 26.265625 65.046875 19.875 
Q 62.359375 12.0625 57.375 7.234375 
Q 53.609375 3.5625 47.21875 1.515625 
Q 42.4375 0 34.421875 0 
L 7.234375 0 
z
M 21.6875 59.46875 
L 21.6875 12.0625 
L 32.46875 12.0625 
Q 38.53125 12.0625 41.21875 12.75 
Q 44.734375 13.625 47.046875 15.71875 
Q 49.359375 17.828125 50.828125 22.625 
Q 52.296875 27.4375 52.296875 35.75 
Q 52.296875 44.046875 50.828125 48.484375 
Q 49.359375 52.9375 46.71875 55.421875 
Q 44.09375 57.90625 40.046875 58.796875 
Q 37.015625 59.46875 28.171875 59.46875 
z
" id="Arial-BoldMT-68"/>
      <path d="M 6.84375 0 
L 6.84375 71.578125 
L 21.296875 71.578125 
L 21.296875 0 
z
" id="Arial-BoldMT-73"/>
      <path d="M 7.171875 71.578125 
L 21.625 71.578125 
L 21.625 32.8125 
Q 21.625 23.578125 22.171875 20.84375 
Q 23.09375 16.453125 26.578125 13.796875 
Q 30.078125 11.140625 36.140625 11.140625 
Q 42.28125 11.140625 45.40625 13.640625 
Q 48.53125 16.15625 49.171875 19.8125 
Q 49.8125 23.484375 49.8125 31.984375 
L 49.8125 71.578125 
L 64.265625 71.578125 
L 64.265625 33.984375 
Q 64.265625 21.09375 63.09375 15.765625 
Q 61.921875 10.453125 58.765625 6.78125 
Q 55.609375 3.125 50.328125 0.953125 
Q 45.0625 -1.21875 36.578125 -1.21875 
Q 26.3125 -1.21875 21.015625 1.140625 
Q 15.71875 3.515625 12.640625 7.296875 
Q 9.578125 11.078125 8.59375 15.234375 
Q 7.171875 21.390625 7.171875 33.40625 
z
" id="Arial-BoldMT-85"/>
      <path d="M 3.609375 23.296875 
L 17.671875 24.65625 
Q 18.953125 17.578125 22.828125 14.25 
Q 26.703125 10.9375 33.296875 10.9375 
Q 40.28125 10.9375 43.8125 13.890625 
Q 47.359375 16.84375 47.359375 20.796875 
Q 47.359375 23.34375 45.875 25.125 
Q 44.390625 26.90625 40.671875 28.21875 
Q 38.140625 29.109375 29.109375 31.34375 
Q 17.484375 34.234375 12.796875 38.421875 
Q 6.203125 44.34375 6.203125 52.828125 
Q 6.203125 58.296875 9.296875 63.0625 
Q 12.40625 67.828125 18.234375 70.3125 
Q 24.078125 72.796875 32.328125 72.796875 
Q 45.796875 72.796875 52.609375 66.890625 
Q 59.421875 60.984375 59.765625 51.125 
L 45.3125 50.484375 
Q 44.390625 56 41.328125 58.421875 
Q 38.28125 60.84375 32.171875 60.84375 
Q 25.875 60.84375 22.3125 58.25 
Q 20.015625 56.59375 20.015625 53.8125 
Q 20.015625 51.265625 22.171875 49.46875 
Q 24.90625 47.171875 35.453125 44.671875 
Q 46 42.1875 51.046875 39.515625 
Q 56.109375 36.859375 58.953125 32.25 
Q 61.8125 27.640625 61.8125 20.84375 
Q 61.8125 14.703125 58.390625 9.328125 
Q 54.984375 3.953125 48.734375 1.34375 
Q 42.484375 -1.265625 33.15625 -1.265625 
Q 19.578125 -1.265625 12.296875 5 
Q 5.03125 11.28125 3.609375 23.296875 
z
" id="Arial-BoldMT-83"/>
     </defs>
     <g transform="translate(278.107188 493.51125)scale(0.2 -0.2)">
      <use xlink:href="#Arial-BoldMT-82"/>
      <use x="72.216797" xlink:href="#Arial-BoldMT-65"/>
      <use x="144.433594" xlink:href="#Arial-BoldMT-68"/>
      <use x="216.650391" xlink:href="#Arial-BoldMT-73"/>
      <use x="244.433594" xlink:href="#Arial-BoldMT-85"/>
      <use x="316.650391" xlink:href="#Arial-BoldMT-83"/>
     </g>
    </g>
   </g>
   <g id="matplotlib.axis_2">
    <g id="ytick_1">
     <g id="line2d_7">
      <defs>
       <path d="M 0 0 
L -3.5 0 
" id="md5f610833a" style="stroke:#000000;stroke-width:0.8;"/>
      </defs>
      <g>
       <use style="stroke:#000000;stroke-width:0.8;" x="121.143125" xlink:href="#md5f610833a" y="433.16125"/>
      </g>
     </g>
     <g id="text_8">
      <!-- 0 -->
      <g transform="translate(95.055625 444.558906)scale(0.3 -0.3)">
       <use xlink:href="#DejaVuSans-48"/>
      </g>
     </g>
    </g>
    <g id="ytick_2">
     <g id="line2d_8">
      <g>
       <use style="stroke:#000000;stroke-width:0.8;" x="121.143125" xlink:href="#md5f610833a" y="376.000367"/>
      </g>
     </g>
     <g id="text_9">
      <!-- 50 -->
      <g transform="translate(75.968125 387.398023)scale(0.3 -0.3)">
       <use xlink:href="#DejaVuSans-53"/>
       <use x="63.623047" xlink:href="#DejaVuSans-48"/>
      </g>
     </g>
    </g>
    <g id="ytick_3">
     <g id="line2d_9">
      <g>
       <use style="stroke:#000000;stroke-width:0.8;" x="121.143125" xlink:href="#md5f610833a" y="318.839483"/>
      </g>
     </g>
     <g id="text_10">
      <!-- 100 -->
      <g transform="translate(56.880625 330.23714)scale(0.3 -0.3)">
       <use xlink:href="#DejaVuSans-49"/>
       <use x="63.623047" xlink:href="#DejaVuSans-48"/>
       <use x="127.246094" xlink:href="#DejaVuSans-48"/>
      </g>
     </g>
    </g>
    <g id="ytick_4">
     <g id="line2d_10">
      <g>
       <use style="stroke:#000000;stroke-width:0.8;" x="121.143125" xlink:href="#md5f610833a" y="261.6786"/>
      </g>
     </g>
     <g id="text_11">
      <!-- 150 -->
      <g transform="translate(56.880625 273.076256)scale(0.3 -0.3)">
       <use xlink:href="#DejaVuSans-49"/>
       <use x="63.623047" xlink:href="#DejaVuSans-53"/>
       <use x="127.246094" xlink:href="#DejaVuSans-48"/>
      </g>
     </g>
    </g>
    <g id="ytick_5">
     <g id="line2d_11">
      <g>
       <use style="stroke:#000000;stroke-width:0.8;" x="121.143125" xlink:href="#md5f610833a" y="204.517717"/>
      </g>
     </g>
     <g id="text_12">
      <!-- 200 -->
      <g transform="translate(56.880625 215.915373)scale(0.3 -0.3)">
       <use xlink:href="#DejaVuSans-50"/>
       <use x="63.623047" xlink:href="#DejaVuSans-48"/>
       <use x="127.246094" xlink:href="#DejaVuSans-48"/>
      </g>
     </g>
    </g>
    <g id="ytick_6">
     <g id="line2d_12">
      <g>
       <use style="stroke:#000000;stroke-width:0.8;" x="121.143125" xlink:href="#md5f610833a" y="147.356834"/>
      </g>
     </g>
     <g id="text_13">
      <!-- 250 -->
      <g transform="translate(56.880625 158.75449)scale(0.3 -0.3)">
       <use xlink:href="#DejaVuSans-50"/>
       <use x="63.623047" xlink:href="#DejaVuSans-53"/>
       <use x="127.246094" xlink:href="#DejaVuSans-48"/>
      </g>
     </g>
    </g>
    <g id="ytick_7">
     <g id="line2d_13">
      <g>
       <use style="stroke:#000000;stroke-width:0.8;" x="121.143125" xlink:href="#md5f610833a" y="90.19595"/>
      </g>
     </g>
     <g id="text_14">
      <!-- 300 -->
      <g transform="translate(56.880625 101.593607)scale(0.3 -0.3)">
       <use xlink:href="#DejaVuSans-51"/>
       <use x="63.623047" xlink:href="#DejaVuSans-48"/>
       <use x="127.246094" xlink:href="#DejaVuSans-48"/>
      </g>
     </g>
    </g>
    <g id="text_15">
     <!-- CANCER LIVE -->
     <defs>
      <path d="M 53.078125 26.3125 
L 67.09375 21.875 
Q 63.875 10.15625 56.375 4.46875 
Q 48.875 -1.21875 37.359375 -1.21875 
Q 23.09375 -1.21875 13.90625 8.515625 
Q 4.734375 18.265625 4.734375 35.15625 
Q 4.734375 53.03125 13.953125 62.90625 
Q 23.1875 72.796875 38.234375 72.796875 
Q 51.375 72.796875 59.578125 65.046875 
Q 64.453125 60.453125 66.890625 51.859375 
L 52.59375 48.4375 
Q 51.3125 54 47.28125 57.21875 
Q 43.265625 60.453125 37.5 60.453125 
Q 29.546875 60.453125 24.578125 54.734375 
Q 19.625 49.03125 19.625 36.234375 
Q 19.625 22.65625 24.5 16.890625 
Q 29.390625 11.140625 37.203125 11.140625 
Q 42.96875 11.140625 47.109375 14.796875 
Q 51.265625 18.453125 53.078125 26.3125 
z
" id="Arial-BoldMT-67"/>
      <path d="M 7.421875 0 
L 7.421875 71.578125 
L 21.484375 71.578125 
L 50.78125 23.78125 
L 50.78125 71.578125 
L 64.203125 71.578125 
L 64.203125 0 
L 49.703125 0 
L 20.84375 46.6875 
L 20.84375 0 
z
" id="Arial-BoldMT-78"/>
      <path d="M 7.28125 0 
L 7.28125 71.578125 
L 60.359375 71.578125 
L 60.359375 59.46875 
L 21.734375 59.46875 
L 21.734375 43.609375 
L 57.671875 43.609375 
L 57.671875 31.546875 
L 21.734375 31.546875 
L 21.734375 12.0625 
L 61.71875 12.0625 
L 61.71875 0 
z
" id="Arial-BoldMT-69"/>
      <path id="Arial-BoldMT-32"/>
      <path d="M 7.671875 0 
L 7.671875 71 
L 22.125 71 
L 22.125 12.0625 
L 58.0625 12.0625 
L 58.0625 0 
z
" id="Arial-BoldMT-76"/>
      <path d="M 25.53125 0 
L -0.046875 71.578125 
L 15.625 71.578125 
L 33.734375 18.609375 
L 51.265625 71.578125 
L 66.609375 71.578125 
L 40.96875 0 
z
" id="Arial-BoldMT-86"/>
     </defs>
     <g transform="translate(21.253125 310.685625)rotate(-90)scale(0.2 -0.2)">
      <use xlink:href="#Arial-BoldMT-67"/>
      <use x="72.216797" xlink:href="#Arial-BoldMT-65"/>
      <use x="144.433594" xlink:href="#Arial-BoldMT-78"/>
      <use x="216.650391" xlink:href="#Arial-BoldMT-67"/>
      <use x="288.867188" xlink:href="#Arial-BoldMT-69"/>
      <use x="355.566406" xlink:href="#Arial-BoldMT-82"/>
      <use x="427.783203" xlink:href="#Arial-BoldMT-32"/>
      <use x="455.566406" xlink:href="#Arial-BoldMT-76"/>
      <use x="516.650391" xlink:href="#Arial-BoldMT-73"/>
      <use x="544.433594" xlink:href="#Arial-BoldMT-86"/>
      <use x="611.132812" xlink:href="#Arial-BoldMT-69"/>
     </g>
     <!-- CELL COUNTS (NUMBERS) -->
     <defs>
      <path d="M 4.34375 35.359375 
Q 4.34375 46.296875 7.625 53.71875 
Q 10.0625 59.1875 14.28125 63.53125 
Q 18.5 67.875 23.53125 69.96875 
Q 30.21875 72.796875 38.96875 72.796875 
Q 54.78125 72.796875 64.28125 62.984375 
Q 73.78125 53.171875 73.78125 35.6875 
Q 73.78125 18.359375 64.359375 8.5625 
Q 54.9375 -1.21875 39.15625 -1.21875 
Q 23.1875 -1.21875 13.765625 8.515625 
Q 4.34375 18.265625 4.34375 35.359375 
z
M 19.234375 35.84375 
Q 19.234375 23.6875 24.84375 17.40625 
Q 30.46875 11.140625 39.109375 11.140625 
Q 47.75 11.140625 53.296875 17.359375 
Q 58.84375 23.578125 58.84375 36.03125 
Q 58.84375 48.34375 53.4375 54.390625 
Q 48.046875 60.453125 39.109375 60.453125 
Q 30.171875 60.453125 24.703125 54.3125 
Q 19.234375 48.1875 19.234375 35.84375 
z
" id="Arial-BoldMT-79"/>
      <path d="M 23.390625 0 
L 23.390625 59.46875 
L 2.15625 59.46875 
L 2.15625 71.578125 
L 59.03125 71.578125 
L 59.03125 59.46875 
L 37.84375 59.46875 
L 37.84375 0 
z
" id="Arial-BoldMT-84"/>
      <path d="M 29.9375 -21.046875 
L 20.515625 -21.046875 
Q 13.03125 -9.765625 9.125 2.390625 
Q 5.21875 14.546875 5.21875 25.921875 
Q 5.21875 40.046875 10.0625 52.640625 
Q 14.265625 63.578125 20.703125 72.796875 
L 30.078125 72.796875 
Q 23.390625 58.015625 20.875 47.625 
Q 18.359375 37.25 18.359375 25.640625 
Q 18.359375 17.625 19.84375 9.21875 
Q 21.34375 0.828125 23.921875 -6.734375 
Q 25.640625 -11.71875 29.9375 -21.046875 
z
" id="Arial-BoldMT-40"/>
      <path d="M 7.078125 0 
L 7.078125 71.578125 
L 28.71875 71.578125 
L 41.703125 22.75 
L 54.546875 71.578125 
L 76.21875 71.578125 
L 76.21875 0 
L 62.796875 0 
L 62.796875 56.34375 
L 48.578125 0 
L 34.671875 0 
L 20.515625 56.34375 
L 20.515625 0 
z
" id="Arial-BoldMT-77"/>
      <path d="M 7.328125 71.578125 
L 35.9375 71.578125 
Q 44.4375 71.578125 48.609375 70.875 
Q 52.78125 70.171875 56.078125 67.921875 
Q 59.375 65.671875 61.5625 61.9375 
Q 63.765625 58.203125 63.765625 53.5625 
Q 63.765625 48.53125 61.046875 44.328125 
Q 58.34375 40.140625 53.71875 38.03125 
Q 60.25 36.140625 63.765625 31.546875 
Q 67.28125 26.953125 67.28125 20.75 
Q 67.28125 15.875 65.015625 11.25 
Q 62.75 6.640625 58.8125 3.875 
Q 54.890625 1.125 49.125 0.484375 
Q 45.515625 0.09375 31.6875 0 
L 7.328125 0 
z
M 21.78125 59.671875 
L 21.78125 43.109375 
L 31.25 43.109375 
Q 39.703125 43.109375 41.75 43.359375 
Q 45.453125 43.796875 47.578125 45.921875 
Q 49.703125 48.046875 49.703125 51.515625 
Q 49.703125 54.828125 47.875 56.90625 
Q 46.046875 58.984375 42.4375 59.421875 
Q 40.28125 59.671875 30.078125 59.671875 
z
M 21.78125 31.203125 
L 21.78125 12.0625 
L 35.15625 12.0625 
Q 42.96875 12.0625 45.0625 12.5 
Q 48.296875 13.09375 50.3125 15.359375 
Q 52.34375 17.625 52.34375 21.4375 
Q 52.34375 24.65625 50.78125 26.90625 
Q 49.21875 29.15625 46.265625 30.171875 
Q 43.3125 31.203125 33.453125 31.203125 
z
" id="Arial-BoldMT-66"/>
      <path d="M 3.375 -21.046875 
Q 7.421875 -12.359375 9.078125 -7.71875 
Q 10.75 -3.078125 12.15625 2.96875 
Q 13.578125 9.03125 14.25 14.46875 
Q 14.9375 19.921875 14.9375 25.640625 
Q 14.9375 37.25 12.453125 47.625 
Q 9.96875 58.015625 3.265625 72.796875 
L 12.59375 72.796875 
Q 19.96875 62.3125 24.046875 50.53125 
Q 28.125 38.765625 28.125 26.65625 
Q 28.125 16.453125 24.90625 4.78125 
Q 21.234375 -8.296875 12.84375 -21.046875 
z
" id="Arial-BoldMT-41"/>
     </defs>
     <g transform="translate(42.67125 374.002812)rotate(-90)scale(0.2 -0.2)">
      <use xlink:href="#Arial-BoldMT-67"/>
      <use x="72.216797" xlink:href="#Arial-BoldMT-69"/>
      <use x="138.916016" xlink:href="#Arial-BoldMT-76"/>
      <use x="200" xlink:href="#Arial-BoldMT-76"/>
      <use x="261.068359" xlink:href="#Arial-BoldMT-32"/>
      <use x="288.851562" xlink:href="#Arial-BoldMT-67"/>
      <use x="361.068359" xlink:href="#Arial-BoldMT-79"/>
      <use x="438.851562" xlink:href="#Arial-BoldMT-85"/>
      <use x="511.068359" xlink:href="#Arial-BoldMT-78"/>
      <use x="583.285156" xlink:href="#Arial-BoldMT-84"/>
      <use x="644.369141" xlink:href="#Arial-BoldMT-83"/>
      <use x="711.068359" xlink:href="#Arial-BoldMT-32"/>
      <use x="738.851562" xlink:href="#Arial-BoldMT-40"/>
      <use x="772.152344" xlink:href="#Arial-BoldMT-78"/>
      <use x="844.369141" xlink:href="#Arial-BoldMT-85"/>
      <use x="916.585938" xlink:href="#Arial-BoldMT-77"/>
      <use x="999.886719" xlink:href="#Arial-BoldMT-66"/>
      <use x="1072.103516" xlink:href="#Arial-BoldMT-69"/>
      <use x="1138.802734" xlink:href="#Arial-BoldMT-82"/>
      <use x="1211.019531" xlink:href="#Arial-BoldMT-83"/>
      <use x="1277.71875" xlink:href="#Arial-BoldMT-41"/>
     </g>
    </g>
   </g>
   <g id="line2d_14">
    <path clip-path="url(#p924deef701)" d="M 121.143125 433.16125 
L 132.979489 433.16125 
L 144.815852 433.16125 
L 156.652216 433.16125 
L 168.48858 433.16125 
L 180.324943 433.16125 
L 192.161307 433.16125 
L 203.99767 433.16125 
L 215.834034 433.16125 
L 227.670398 433.16125 
L 239.506761 433.16125 
L 251.343125 433.16125 
L 263.179489 433.16125 
L 275.015852 433.16125 
L 286.852216 433.16125 
L 298.68858 433.16125 
L 310.524943 433.16125 
L 322.361307 433.16125 
L 334.19767 433.16125 
L 346.034034 433.16125 
L 357.870398 433.16125 
L 369.706761 433.16125 
L 381.543125 433.16125 
L 393.379489 433.16125 
L 405.215852 433.16125 
L 417.052216 433.16125 
L 428.88858 433.16125 
L 440.724943 430.874815 
L 452.561307 430.874815 
L 464.39767 428.588379 
L 476.234034 424.015509 
L 488.070398 426.301944 
L 499.906761 417.156203 
L 511.743125 412.583332 
" style="fill:none;stroke:#08306b;stroke-linecap:square;stroke-width:1.5;"/>
   </g>
   <g id="line2d_15">
    <path clip-path="url(#p924deef701)" d="M 121.143125 433.16125 
L 132.979489 433.16125 
L 144.815852 433.16125 
L 156.652216 433.16125 
L 168.48858 433.16125 
L 180.324943 433.16125 
L 192.161307 433.16125 
L 203.99767 432.018032 
L 215.834034 433.16125 
L 227.670398 433.16125 
L 239.506761 433.16125 
L 251.343125 433.16125 
L 263.179489 433.16125 
L 275.015852 433.16125 
L 286.852216 433.16125 
L 298.68858 433.16125 
L 310.524943 433.16125 
L 322.361307 433.16125 
L 334.19767 433.16125 
L 346.034034 433.16125 
L 357.870398 433.16125 
L 369.706761 433.16125 
L 381.543125 433.16125 
L 393.379489 433.16125 
L 405.215852 433.16125 
L 417.052216 433.16125 
L 428.88858 433.16125 
L 440.724943 433.16125 
L 452.561307 433.16125 
L 464.39767 433.16125 
L 476.234034 432.018032 
L 488.070398 428.588379 
L 499.906761 425.158726 
L 511.743125 421.729073 
" style="fill:none;stroke:#08306b;stroke-linecap:square;stroke-width:1.5;"/>
   </g>
   <g id="line2d_16">
    <path clip-path="url(#p924deef701)" d="M 121.143125 433.16125 
L 132.979489 433.16125 
L 144.815852 433.16125 
L 156.652216 433.16125 
L 168.48858 433.16125 
L 180.324943 433.16125 
L 192.161307 433.16125 
L 203.99767 433.16125 
L 215.834034 433.16125 
L 227.670398 433.16125 
L 239.506761 433.16125 
L 251.343125 433.16125 
L 263.179489 430.874815 
L 275.015852 432.018032 
L 286.852216 432.018032 
L 298.68858 433.16125 
L 310.524943 432.018032 
L 322.361307 433.16125 
L 334.19767 433.16125 
L 346.034034 432.018032 
L 357.870398 433.16125 
L 369.706761 433.16125 
L 381.543125 433.16125 
L 393.379489 433.16125 
L 405.215852 433.16125 
L 417.052216 433.16125 
L 428.88858 433.16125 
L 440.724943 433.16125 
L 452.561307 433.16125 
L 464.39767 433.16125 
L 476.234034 433.16125 
L 488.070398 430.874815 
L 499.906761 432.018032 
L 511.743125 425.158726 
" style="fill:none;stroke:#08306b;stroke-linecap:square;stroke-width:1.5;"/>
   </g>
   <g id="line2d_17">
    <path clip-path="url(#p924deef701)" d="M 121.143125 433.16125 
L 132.979489 433.16125 
L 144.815852 433.16125 
L 156.652216 433.16125 
L 168.48858 433.16125 
L 180.324943 433.16125 
L 192.161307 433.16125 
L 203.99767 433.16125 
L 215.834034 433.16125 
L 227.670398 433.16125 
L 239.506761 433.16125 
L 251.343125 433.16125 
L 263.179489 433.16125 
L 275.015852 433.16125 
L 286.852216 433.16125 
L 298.68858 432.018032 
L 310.524943 433.16125 
L 322.361307 433.16125 
L 334.19767 433.16125 
L 346.034034 433.16125 
L 357.870398 433.16125 
L 369.706761 433.16125 
L 381.543125 432.018032 
L 393.379489 433.16125 
L 405.215852 433.16125 
L 417.052216 433.16125 
L 428.88858 433.16125 
L 440.724943 433.16125 
L 452.561307 433.16125 
L 464.39767 429.731597 
L 476.234034 426.301944 
L 488.070398 427.445162 
L 499.906761 430.874815 
L 511.743125 427.445162 
" style="fill:none;stroke:#08306b;stroke-linecap:square;stroke-width:1.5;"/>
   </g>
   <g id="line2d_18">
    <path clip-path="url(#p924deef701)" d="M 121.143125 433.16125 
L 132.979489 433.16125 
L 144.815852 433.16125 
L 156.652216 433.16125 
L 168.48858 433.16125 
L 180.324943 433.16125 
L 192.161307 433.16125 
L 203.99767 433.16125 
L 215.834034 432.018032 
L 227.670398 433.16125 
L 239.506761 433.16125 
L 251.343125 433.16125 
L 263.179489 433.16125 
L 275.015852 433.16125 
L 286.852216 433.16125 
L 298.68858 433.16125 
L 310.524943 433.16125 
L 322.361307 430.874815 
L 334.19767 429.731597 
L 346.034034 433.16125 
L 357.870398 432.018032 
L 369.706761 433.16125 
L 381.543125 433.16125 
L 393.379489 433.16125 
L 405.215852 433.16125 
L 417.052216 433.16125 
L 428.88858 433.16125 
L 440.724943 433.16125 
L 452.561307 433.16125 
L 464.39767 433.16125 
L 476.234034 432.018032 
L 488.070398 428.588379 
L 499.906761 426.301944 
L 511.743125 417.156203 
" style="fill:none;stroke:#08306b;stroke-linecap:square;stroke-width:1.5;"/>
   </g>
   <g id="line2d_19">
    <path clip-path="url(#p924deef701)" d="M 121.143125 433.16125 
L 132.979489 433.16125 
L 144.815852 433.16125 
L 156.652216 433.16125 
L 168.48858 433.16125 
L 180.324943 433.16125 
L 192.161307 433.16125 
L 203.99767 433.16125 
L 215.834034 432.018032 
L 227.670398 433.16125 
L 239.506761 433.16125 
L 251.343125 433.16125 
L 263.179489 433.16125 
L 275.015852 433.16125 
L 286.852216 433.16125 
L 298.68858 433.16125 
L 310.524943 433.16125 
L 322.361307 433.16125 
L 334.19767 433.16125 
L 346.034034 433.16125 
L 357.870398 433.16125 
L 369.706761 433.16125 
L 381.543125 430.874815 
L 393.379489 432.018032 
L 405.215852 430.874815 
L 417.052216 432.018032 
L 428.88858 432.018032 
L 440.724943 433.16125 
L 452.561307 433.16125 
L 464.39767 429.731597 
L 476.234034 432.018032 
L 488.070398 430.874815 
L 499.906761 430.874815 
L 511.743125 429.731597 
" style="fill:none;stroke:#08306b;stroke-linecap:square;stroke-width:1.5;"/>
   </g>
   <g id="line2d_20">
    <path clip-path="url(#p924deef701)" d="M 121.143125 433.16125 
L 132.979489 433.16125 
L 144.815852 433.16125 
L 156.652216 433.16125 
L 168.48858 433.16125 
L 180.324943 433.16125 
L 192.161307 433.16125 
L 203.99767 433.16125 
L 215.834034 433.16125 
L 227.670398 433.16125 
L 239.506761 433.16125 
L 251.343125 433.16125 
L 263.179489 433.16125 
L 275.015852 433.16125 
L 286.852216 433.16125 
L 298.68858 433.16125 
L 310.524943 433.16125 
L 322.361307 433.16125 
L 334.19767 433.16125 
L 346.034034 433.16125 
L 357.870398 432.018032 
L 369.706761 433.16125 
L 381.543125 433.16125 
L 393.379489 433.16125 
L 405.215852 430.874815 
L 417.052216 432.018032 
L 428.88858 433.16125 
L 440.724943 432.018032 
L 452.561307 433.16125 
L 464.39767 433.16125 
L 476.234034 432.018032 
L 488.070398 433.16125 
L 499.906761 422.872291 
L 511.743125 424.015509 
" style="fill:none;stroke:#08306b;stroke-linecap:square;stroke-width:1.5;"/>
   </g>
   <g id="line2d_21">
    <path clip-path="url(#p924deef701)" d="M 121.143125 433.16125 
L 132.979489 433.16125 
L 144.815852 433.16125 
L 156.652216 433.16125 
L 168.48858 433.16125 
L 180.324943 433.16125 
L 192.161307 433.16125 
L 203.99767 433.16125 
L 215.834034 433.16125 
L 227.670398 433.16125 
L 239.506761 433.16125 
L 251.343125 433.16125 
L 263.179489 433.16125 
L 275.015852 433.16125 
L 286.852216 433.16125 
L 298.68858 430.874815 
L 310.524943 433.16125 
L 322.361307 433.16125 
L 334.19767 433.16125 
L 346.034034 433.16125 
L 357.870398 433.16125 
L 369.706761 430.874815 
L 381.543125 432.018032 
L 393.379489 427.445162 
L 405.215852 430.874815 
L 417.052216 433.16125 
L 428.88858 433.16125 
L 440.724943 432.018032 
L 452.561307 433.16125 
L 464.39767 433.16125 
L 476.234034 433.16125 
L 488.070398 430.874815 
L 499.906761 426.301944 
L 511.743125 420.585856 
" style="fill:none;stroke:#08306b;stroke-linecap:square;stroke-width:1.5;"/>
   </g>
   <g id="line2d_22">
    <path clip-path="url(#p924deef701)" d="M 121.143125 433.16125 
L 132.979489 433.16125 
L 144.815852 433.16125 
L 156.652216 433.16125 
L 168.48858 433.16125 
L 180.324943 433.16125 
L 192.161307 433.16125 
L 203.99767 433.16125 
L 215.834034 433.16125 
L 227.670398 433.16125 
L 239.506761 433.16125 
L 251.343125 433.16125 
L 263.179489 433.16125 
L 275.015852 433.16125 
L 286.852216 433.16125 
L 298.68858 433.16125 
L 310.524943 433.16125 
L 322.361307 433.16125 
L 334.19767 433.16125 
L 346.034034 433.16125 
L 357.870398 433.16125 
L 369.706761 433.16125 
L 381.543125 433.16125 
L 393.379489 433.16125 
L 405.215852 433.16125 
L 417.052216 433.16125 
L 428.88858 433.16125 
L 440.724943 433.16125 
L 452.561307 433.16125 
L 464.39767 433.16125 
L 476.234034 433.16125 
L 488.070398 433.16125 
L 499.906761 433.16125 
L 511.743125 433.16125 
" style="fill:none;stroke:#08306b;stroke-linecap:square;stroke-width:1.5;"/>
   </g>
   <g id="line2d_23">
    <path clip-path="url(#p924deef701)" d="M 121.143125 433.16125 
L 132.979489 433.16125 
L 144.815852 433.16125 
L 156.652216 433.16125 
L 168.48858 433.16125 
L 180.324943 433.16125 
L 192.161307 433.16125 
L 203.99767 433.16125 
L 215.834034 433.16125 
L 227.670398 433.16125 
L 239.506761 433.16125 
L 251.343125 433.16125 
L 263.179489 433.16125 
L 275.015852 433.16125 
L 286.852216 433.16125 
L 298.68858 433.16125 
L 310.524943 433.16125 
L 322.361307 433.16125 
L 334.19767 433.16125 
L 346.034034 433.16125 
L 357.870398 433.16125 
L 369.706761 433.16125 
L 381.543125 433.16125 
L 393.379489 433.16125 
L 405.215852 433.16125 
L 417.052216 433.16125 
L 428.88858 433.16125 
L 440.724943 433.16125 
L 452.561307 433.16125 
L 464.39767 433.16125 
L 476.234034 433.16125 
L 488.070398 430.874815 
L 499.906761 430.874815 
L 511.743125 429.731597 
" style="fill:none;stroke:#08306b;stroke-linecap:square;stroke-width:1.5;"/>
   </g>
   <g id="line2d_24">
    <path clip-path="url(#p924deef701)" d="M 121.143125 433.16125 
L 132.979489 432.018032 
L 144.815852 430.874815 
L 156.652216 430.874815 
L 168.48858 432.018032 
L 180.324943 433.16125 
L 192.161307 432.018032 
L 203.99767 428.588379 
L 215.834034 427.445162 
L 227.670398 420.585856 
L 239.506761 421.729073 
L 251.343125 418.29942 
L 263.179489 425.158726 
L 275.015852 429.731597 
L 286.852216 429.731597 
L 298.68858 425.158726 
L 310.524943 428.588379 
L 322.361307 422.872291 
L 334.19767 424.015509 
L 346.034034 426.301944 
L 357.870398 424.015509 
L 369.706761 421.729073 
L 381.543125 426.301944 
L 393.379489 425.158726 
L 405.215852 419.442638 
L 417.052216 404.580808 
L 428.88858 412.583332 
L 440.724943 409.153679 
L 452.561307 394.291849 
L 464.39767 398.86472 
L 476.234034 395.435067 
L 488.070398 387.432543 
L 499.906761 382.859673 
L 511.743125 345.13349 
" style="fill:none;stroke:#4a98c9;stroke-linecap:square;stroke-width:1.5;"/>
   </g>
   <g id="line2d_25">
    <path clip-path="url(#p924deef701)" d="M 121.143125 433.16125 
L 132.979489 433.16125 
L 144.815852 433.16125 
L 156.652216 428.588379 
L 168.48858 428.588379 
L 180.324943 425.158726 
L 192.161307 421.729073 
L 203.99767 424.015509 
L 215.834034 422.872291 
L 227.670398 426.301944 
L 239.506761 430.874815 
L 251.343125 428.588379 
L 263.179489 429.731597 
L 275.015852 426.301944 
L 286.852216 427.445162 
L 298.68858 428.588379 
L 310.524943 429.731597 
L 322.361307 424.015509 
L 334.19767 424.015509 
L 346.034034 422.872291 
L 357.870398 420.585856 
L 369.706761 420.585856 
L 381.543125 426.301944 
L 393.379489 417.156203 
L 405.215852 418.29942 
L 417.052216 414.869767 
L 428.88858 417.156203 
L 440.724943 411.440114 
L 452.561307 418.29942 
L 464.39767 405.724026 
L 476.234034 404.580808 
L 488.070398 392.005414 
L 499.906761 394.291849 
L 511.743125 378.286802 
" style="fill:none;stroke:#4a98c9;stroke-linecap:square;stroke-width:1.5;"/>
   </g>
   <g id="line2d_26">
    <path clip-path="url(#p924deef701)" d="M 121.143125 433.16125 
L 132.979489 429.731597 
L 144.815852 425.158726 
L 156.652216 422.872291 
L 168.48858 426.301944 
L 180.324943 427.445162 
L 192.161307 427.445162 
L 203.99767 429.731597 
L 215.834034 428.588379 
L 227.670398 428.588379 
L 239.506761 418.29942 
L 251.343125 426.301944 
L 263.179489 425.158726 
L 275.015852 422.872291 
L 286.852216 418.29942 
L 298.68858 416.012985 
L 310.524943 406.867244 
L 322.361307 418.29942 
L 334.19767 414.869767 
L 346.034034 408.010461 
L 357.870398 408.010461 
L 369.706761 405.724026 
L 381.543125 408.010461 
L 393.379489 405.724026 
L 405.215852 411.440114 
L 417.052216 412.583332 
L 428.88858 411.440114 
L 440.724943 412.583332 
L 452.561307 414.869767 
L 464.39767 398.86472 
L 476.234034 397.721502 
L 488.070398 401.151155 
L 499.906761 388.575761 
L 511.743125 379.43002 
" style="fill:none;stroke:#4a98c9;stroke-linecap:square;stroke-width:1.5;"/>
   </g>
   <g id="line2d_27">
    <path clip-path="url(#p924deef701)" d="M 121.143125 433.16125 
L 132.979489 433.16125 
L 144.815852 433.16125 
L 156.652216 433.16125 
L 168.48858 433.16125 
L 180.324943 433.16125 
L 192.161307 430.874815 
L 203.99767 428.588379 
L 215.834034 425.158726 
L 227.670398 420.585856 
L 239.506761 419.442638 
L 251.343125 420.585856 
L 263.179489 422.872291 
L 275.015852 422.872291 
L 286.852216 414.869767 
L 298.68858 418.29942 
L 310.524943 416.012985 
L 322.361307 413.72655 
L 334.19767 420.585856 
L 346.034034 422.872291 
L 357.870398 416.012985 
L 369.706761 418.29942 
L 381.543125 422.872291 
L 393.379489 420.585856 
L 405.215852 428.588379 
L 417.052216 418.29942 
L 428.88858 417.156203 
L 440.724943 408.010461 
L 452.561307 404.580808 
L 464.39767 410.296897 
L 476.234034 400.007938 
L 488.070398 389.718979 
L 499.906761 394.291849 
L 511.743125 372.570714 
" style="fill:none;stroke:#4a98c9;stroke-linecap:square;stroke-width:1.5;"/>
   </g>
   <g id="line2d_28">
    <path clip-path="url(#p924deef701)" d="M 121.143125 433.16125 
L 132.979489 433.16125 
L 144.815852 433.16125 
L 156.652216 433.16125 
L 168.48858 433.16125 
L 180.324943 433.16125 
L 192.161307 429.731597 
L 203.99767 428.588379 
L 215.834034 426.301944 
L 227.670398 426.301944 
L 239.506761 424.015509 
L 251.343125 422.872291 
L 263.179489 425.158726 
L 275.015852 426.301944 
L 286.852216 424.015509 
L 298.68858 426.301944 
L 310.524943 426.301944 
L 322.361307 426.301944 
L 334.19767 420.585856 
L 346.034034 410.296897 
L 357.870398 411.440114 
L 369.706761 405.724026 
L 381.543125 405.724026 
L 393.379489 412.583332 
L 405.215852 425.158726 
L 417.052216 422.872291 
L 428.88858 425.158726 
L 440.724943 418.29942 
L 452.561307 421.729073 
L 464.39767 422.872291 
L 476.234034 409.153679 
L 488.070398 386.289326 
L 499.906761 370.284278 
L 511.743125 361.138537 
" style="fill:none;stroke:#4a98c9;stroke-linecap:square;stroke-width:1.5;"/>
   </g>
   <g id="line2d_29">
    <path clip-path="url(#p924deef701)" d="M 121.143125 433.16125 
L 132.979489 433.16125 
L 144.815852 433.16125 
L 156.652216 428.588379 
L 168.48858 427.445162 
L 180.324943 420.585856 
L 192.161307 419.442638 
L 203.99767 420.585856 
L 215.834034 420.585856 
L 227.670398 418.29942 
L 239.506761 426.301944 
L 251.343125 426.301944 
L 263.179489 430.874815 
L 275.015852 430.874815 
L 286.852216 424.015509 
L 298.68858 418.29942 
L 310.524943 422.872291 
L 322.361307 421.729073 
L 334.19767 426.301944 
L 346.034034 427.445162 
L 357.870398 428.588379 
L 369.706761 428.588379 
L 381.543125 426.301944 
L 393.379489 417.156203 
L 405.215852 414.869767 
L 417.052216 416.012985 
L 428.88858 421.729073 
L 440.724943 402.294373 
L 452.561307 395.435067 
L 464.39767 402.294373 
L 476.234034 405.724026 
L 488.070398 401.151155 
L 499.906761 388.575761 
L 511.743125 377.143584 
" style="fill:none;stroke:#4a98c9;stroke-linecap:square;stroke-width:1.5;"/>
   </g>
   <g id="line2d_30">
    <path clip-path="url(#p924deef701)" d="M 121.143125 433.16125 
L 132.979489 433.16125 
L 144.815852 433.16125 
L 156.652216 432.018032 
L 168.48858 430.874815 
L 180.324943 432.018032 
L 192.161307 433.16125 
L 203.99767 428.588379 
L 215.834034 429.731597 
L 227.670398 428.588379 
L 239.506761 430.874815 
L 251.343125 432.018032 
L 263.179489 430.874815 
L 275.015852 425.158726 
L 286.852216 424.015509 
L 298.68858 425.158726 
L 310.524943 416.012985 
L 322.361307 417.156203 
L 334.19767 418.29942 
L 346.034034 422.872291 
L 357.870398 419.442638 
L 369.706761 414.869767 
L 381.543125 416.012985 
L 393.379489 418.29942 
L 405.215852 418.29942 
L 417.052216 420.585856 
L 428.88858 416.012985 
L 440.724943 416.012985 
L 452.561307 397.721502 
L 464.39767 394.291849 
L 476.234034 392.005414 
L 488.070398 387.432543 
L 499.906761 386.289326 
L 511.743125 367.997843 
" style="fill:none;stroke:#4a98c9;stroke-linecap:square;stroke-width:1.5;"/>
   </g>
   <g id="line2d_31">
    <path clip-path="url(#p924deef701)" d="M 121.143125 433.16125 
L 132.979489 433.16125 
L 144.815852 433.16125 
L 156.652216 433.16125 
L 168.48858 433.16125 
L 180.324943 433.16125 
L 192.161307 433.16125 
L 203.99767 432.018032 
L 215.834034 433.16125 
L 227.670398 428.588379 
L 239.506761 425.158726 
L 251.343125 426.301944 
L 263.179489 428.588379 
L 275.015852 425.158726 
L 286.852216 425.158726 
L 298.68858 425.158726 
L 310.524943 428.588379 
L 322.361307 426.301944 
L 334.19767 425.158726 
L 346.034034 417.156203 
L 357.870398 420.585856 
L 369.706761 412.583332 
L 381.543125 403.437591 
L 393.379489 404.580808 
L 405.215852 416.012985 
L 417.052216 413.72655 
L 428.88858 409.153679 
L 440.724943 408.010461 
L 452.561307 400.007938 
L 464.39767 411.440114 
L 476.234034 409.153679 
L 488.070398 400.007938 
L 499.906761 406.867244 
L 511.743125 380.573237 
" style="fill:none;stroke:#4a98c9;stroke-linecap:square;stroke-width:1.5;"/>
   </g>
   <g id="line2d_32">
    <path clip-path="url(#p924deef701)" d="M 121.143125 433.16125 
L 132.979489 433.16125 
L 144.815852 433.16125 
L 156.652216 432.018032 
L 168.48858 429.731597 
L 180.324943 426.301944 
L 192.161307 420.585856 
L 203.99767 422.872291 
L 215.834034 419.442638 
L 227.670398 424.015509 
L 239.506761 424.015509 
L 251.343125 424.015509 
L 263.179489 425.158726 
L 275.015852 422.872291 
L 286.852216 422.872291 
L 298.68858 421.729073 
L 310.524943 422.872291 
L 322.361307 425.158726 
L 334.19767 424.015509 
L 346.034034 428.588379 
L 357.870398 425.158726 
L 369.706761 427.445162 
L 381.543125 428.588379 
L 393.379489 427.445162 
L 405.215852 425.158726 
L 417.052216 425.158726 
L 428.88858 422.872291 
L 440.724943 417.156203 
L 452.561307 417.156203 
L 464.39767 414.869767 
L 476.234034 411.440114 
L 488.070398 400.007938 
L 499.906761 414.869767 
L 511.743125 392.005414 
" style="fill:none;stroke:#4a98c9;stroke-linecap:square;stroke-width:1.5;"/>
   </g>
   <g id="line2d_33">
    <path clip-path="url(#p924deef701)" d="M 121.143125 433.16125 
L 132.979489 430.874815 
L 144.815852 425.158726 
L 156.652216 425.158726 
L 168.48858 430.874815 
L 180.324943 432.018032 
L 192.161307 432.018032 
L 203.99767 433.16125 
L 215.834034 430.874815 
L 227.670398 432.018032 
L 239.506761 428.588379 
L 251.343125 429.731597 
L 263.179489 426.301944 
L 275.015852 421.729073 
L 286.852216 424.015509 
L 298.68858 416.012985 
L 310.524943 418.29942 
L 322.361307 426.301944 
L 334.19767 427.445162 
L 346.034034 427.445162 
L 357.870398 426.301944 
L 369.706761 425.158726 
L 381.543125 428.588379 
L 393.379489 419.442638 
L 405.215852 414.869767 
L 417.052216 419.442638 
L 428.88858 418.29942 
L 440.724943 416.012985 
L 452.561307 420.585856 
L 464.39767 413.72655 
L 476.234034 411.440114 
L 488.070398 412.583332 
L 499.906761 401.151155 
L 511.743125 365.711408 
" style="fill:none;stroke:#4a98c9;stroke-linecap:square;stroke-width:1.5;"/>
   </g>
   <g id="line2d_34">
    <path clip-path="url(#p924deef701)" d="M 121.143125 432.018032 
L 132.979489 425.158726 
L 144.815852 421.729073 
L 156.652216 416.012985 
L 168.48858 404.580808 
L 180.324943 405.724026 
L 192.161307 393.148632 
L 203.99767 385.146108 
L 215.834034 370.284278 
L 227.670398 372.570714 
L 239.506761 363.424972 
L 251.343125 337.130966 
L 263.179489 331.414878 
L 275.015852 326.842007 
L 286.852216 310.83696 
L 298.68858 309.693742 
L 310.524943 302.834436 
L 322.361307 299.404783 
L 334.19767 293.688695 
L 346.034034 274.253994 
L 357.870398 250.246424 
L 369.706761 249.103206 
L 381.543125 239.957465 
L 393.379489 241.100682 
L 405.215852 246.816771 
L 417.052216 222.8092 
L 428.88858 235.384594 
L 440.724943 220.522764 
L 452.561307 223.952417 
L 464.39767 218.236329 
L 476.234034 220.522764 
L 488.070398 242.2439 
L 499.906761 247.959988 
L 511.743125 219.379547 
" style="fill:none;stroke:#d0e1f2;stroke-linecap:square;stroke-width:1.5;"/>
   </g>
   <g id="line2d_35">
    <path clip-path="url(#p924deef701)" d="M 121.143125 430.874815 
L 132.979489 424.015509 
L 144.815852 416.012985 
L 156.652216 411.440114 
L 168.48858 406.867244 
L 180.324943 405.724026 
L 192.161307 390.862196 
L 203.99767 377.143584 
L 215.834034 370.284278 
L 227.670398 364.56819 
L 239.506761 355.422449 
L 251.343125 350.849578 
L 263.179489 341.703837 
L 275.015852 331.414878 
L 286.852216 325.698789 
L 298.68858 319.982701 
L 310.524943 298.261565 
L 322.361307 303.977654 
L 334.19767 284.542953 
L 346.034034 282.256518 
L 357.870398 267.394688 
L 369.706761 258.248947 
L 381.543125 262.821818 
L 393.379489 261.6786 
L 405.215852 255.962512 
L 417.052216 234.241376 
L 428.88858 225.095635 
L 440.724943 211.377023 
L 452.561307 211.377023 
L 464.39767 217.093111 
L 476.234034 228.525288 
L 488.070398 242.2439 
L 499.906761 247.959988 
L 511.743125 206.804152 
" style="fill:none;stroke:#d0e1f2;stroke-linecap:square;stroke-width:1.5;"/>
   </g>
   <g id="line2d_36">
    <path clip-path="url(#p924deef701)" d="M 121.143125 432.018032 
L 132.979489 429.731597 
L 144.815852 421.729073 
L 156.652216 418.29942 
L 168.48858 405.724026 
L 180.324943 392.005414 
L 192.161307 390.862196 
L 203.99767 371.427496 
L 215.834034 370.284278 
L 227.670398 369.141061 
L 239.506761 347.419925 
L 251.343125 346.276707 
L 263.179489 341.703837 
L 275.015852 339.417401 
L 286.852216 333.701313 
L 298.68858 339.417401 
L 310.524943 317.696266 
L 322.361307 310.83696 
L 334.19767 290.259042 
L 346.034034 277.683647 
L 357.870398 261.6786 
L 369.706761 267.394688 
L 381.543125 241.100682 
L 393.379489 243.387118 
L 405.215852 231.954941 
L 417.052216 210.233805 
L 428.88858 211.377023 
L 440.724943 209.090588 
L 452.561307 210.233805 
L 464.39767 222.8092 
L 476.234034 222.8092 
L 488.070398 236.527812 
L 499.906761 235.384594 
L 511.743125 197.658411 
" style="fill:none;stroke:#d0e1f2;stroke-linecap:square;stroke-width:1.5;"/>
   </g>
   <g id="line2d_37">
    <path clip-path="url(#p924deef701)" d="M 121.143125 432.018032 
L 132.979489 422.872291 
L 144.815852 411.440114 
L 156.652216 405.724026 
L 168.48858 393.148632 
L 180.324943 390.862196 
L 192.161307 385.146108 
L 203.99767 380.573237 
L 215.834034 362.281755 
L 227.670398 364.56819 
L 239.506761 353.136013 
L 251.343125 340.560619 
L 263.179489 339.417401 
L 275.015852 338.274184 
L 286.852216 309.693742 
L 298.68858 313.123395 
L 310.524943 307.407307 
L 322.361307 311.980177 
L 334.19767 299.404783 
L 346.034034 293.688695 
L 357.870398 277.683647 
L 369.706761 261.6786 
L 381.543125 263.965035 
L 393.379489 237.671029 
L 405.215852 237.671029 
L 417.052216 238.814247 
L 428.88858 251.389641 
L 440.724943 233.098159 
L 452.561307 236.527812 
L 464.39767 247.959988 
L 476.234034 250.246424 
L 488.070398 258.248947 
L 499.906761 261.6786 
L 511.743125 218.236329 
" style="fill:none;stroke:#d0e1f2;stroke-linecap:square;stroke-width:1.5;"/>
   </g>
   <g id="line2d_38">
    <path clip-path="url(#p924deef701)" d="M 121.143125 430.874815 
L 132.979489 422.872291 
L 144.815852 412.583332 
L 156.652216 409.153679 
L 168.48858 395.435067 
L 180.324943 392.005414 
L 192.161307 386.289326 
L 203.99767 376.000367 
L 215.834034 351.992796 
L 227.670398 354.279231 
L 239.506761 338.274184 
L 251.343125 341.703837 
L 263.179489 335.987748 
L 275.015852 332.558095 
L 286.852216 324.555572 
L 298.68858 326.842007 
L 310.524943 322.269136 
L 322.361307 319.982701 
L 334.19767 314.266613 
L 346.034034 299.404783 
L 357.870398 287.972606 
L 369.706761 283.399736 
L 381.543125 274.253994 
L 393.379489 259.392165 
L 405.215852 244.530335 
L 417.052216 221.665982 
L 428.88858 225.095635 
L 440.724943 226.238853 
L 452.561307 220.522764 
L 464.39767 203.374499 
L 476.234034 206.804152 
L 488.070398 214.806676 
L 499.906761 199.944846 
L 511.743125 190.799105 
" style="fill:none;stroke:#d0e1f2;stroke-linecap:square;stroke-width:1.5;"/>
   </g>
   <g id="line2d_39">
    <path clip-path="url(#p924deef701)" d="M 121.143125 433.16125 
L 132.979489 428.588379 
L 144.815852 412.583332 
L 156.652216 401.151155 
L 168.48858 398.86472 
L 180.324943 387.432543 
L 192.161307 381.716455 
L 203.99767 374.857149 
L 215.834034 367.997843 
L 227.670398 363.424972 
L 239.506761 361.138537 
L 251.343125 356.565666 
L 263.179489 351.992796 
L 275.015852 335.987748 
L 286.852216 329.128442 
L 298.68858 322.269136 
L 310.524943 302.834436 
L 322.361307 301.691218 
L 334.19767 294.831912 
L 346.034034 295.97513 
L 357.870398 279.970083 
L 369.706761 261.6786 
L 381.543125 243.387118 
L 393.379489 245.673553 
L 405.215852 227.38207 
L 417.052216 228.525288 
L 428.88858 226.238853 
L 440.724943 213.663458 
L 452.561307 199.944846 
L 464.39767 225.095635 
L 476.234034 214.806676 
L 488.070398 239.957465 
L 499.906761 247.959988 
L 511.743125 198.801629 
" style="fill:none;stroke:#d0e1f2;stroke-linecap:square;stroke-width:1.5;"/>
   </g>
   <g id="line2d_40">
    <path clip-path="url(#p924deef701)" d="M 121.143125 430.874815 
L 132.979489 426.301944 
L 144.815852 418.29942 
L 156.652216 405.724026 
L 168.48858 403.437591 
L 180.324943 388.575761 
L 192.161307 385.146108 
L 203.99767 378.286802 
L 215.834034 379.43002 
L 227.670398 371.427496 
L 239.506761 359.995319 
L 251.343125 346.276707 
L 263.179489 323.412354 
L 275.015852 337.130966 
L 286.852216 318.839483 
L 298.68858 314.266613 
L 310.524943 310.83696 
L 322.361307 309.693742 
L 334.19767 301.691218 
L 346.034034 281.1133 
L 357.870398 276.54043 
L 369.706761 269.681124 
L 381.543125 268.537906 
L 393.379489 228.525288 
L 405.215852 241.100682 
L 417.052216 233.098159 
L 428.88858 218.236329 
L 440.724943 221.665982 
L 452.561307 222.8092 
L 464.39767 206.804152 
L 476.234034 205.660935 
L 488.070398 222.8092 
L 499.906761 207.94737 
L 511.743125 204.517717 
" style="fill:none;stroke:#d0e1f2;stroke-linecap:square;stroke-width:1.5;"/>
   </g>
   <g id="line2d_41">
    <path clip-path="url(#p924deef701)" d="M 121.143125 433.16125 
L 132.979489 432.018032 
L 144.815852 427.445162 
L 156.652216 421.729073 
L 168.48858 414.869767 
L 180.324943 409.153679 
L 192.161307 403.437591 
L 203.99767 386.289326 
L 215.834034 373.713931 
L 227.670398 371.427496 
L 239.506761 354.279231 
L 251.343125 345.13349 
L 263.179489 339.417401 
L 275.015852 334.844531 
L 286.852216 322.269136 
L 298.68858 295.97513 
L 310.524943 302.834436 
L 322.361307 295.97513 
L 334.19767 294.831912 
L 346.034034 268.537906 
L 357.870398 271.967559 
L 369.706761 263.965035 
L 381.543125 262.821818 
L 393.379489 260.535382 
L 405.215852 243.387118 
L 417.052216 249.103206 
L 428.88858 239.957465 
L 440.724943 234.241376 
L 452.561307 223.952417 
L 464.39767 210.233805 
L 476.234034 218.236329 
L 488.070398 225.095635 
L 499.906761 228.525288 
L 511.743125 198.801629 
" style="fill:none;stroke:#d0e1f2;stroke-linecap:square;stroke-width:1.5;"/>
   </g>
   <g id="line2d_42">
    <path clip-path="url(#p924deef701)" d="M 121.143125 430.874815 
L 132.979489 422.872291 
L 144.815852 409.153679 
L 156.652216 396.578285 
L 168.48858 398.86472 
L 180.324943 390.862196 
L 192.161307 382.859673 
L 203.99767 376.000367 
L 215.834034 373.713931 
L 227.670398 371.427496 
L 239.506761 365.711408 
L 251.343125 353.136013 
L 263.179489 340.560619 
L 275.015852 341.703837 
L 286.852216 321.125919 
L 298.68858 323.412354 
L 310.524943 305.120871 
L 322.361307 301.691218 
L 334.19767 290.259042 
L 346.034034 284.542953 
L 357.870398 281.1133 
L 369.706761 277.683647 
L 381.543125 266.251471 
L 393.379489 255.962512 
L 405.215852 235.384594 
L 417.052216 221.665982 
L 428.88858 209.090588 
L 440.724943 221.665982 
L 452.561307 220.522764 
L 464.39767 229.668506 
L 476.234034 245.673553 
L 488.070398 262.821818 
L 499.906761 269.681124 
L 511.743125 229.668506 
" style="fill:none;stroke:#d0e1f2;stroke-linecap:square;stroke-width:1.5;"/>
   </g>
   <g id="line2d_43">
    <path clip-path="url(#p924deef701)" d="M 121.143125 429.731597 
L 132.979489 421.729073 
L 144.815852 408.010461 
L 156.652216 404.580808 
L 168.48858 397.721502 
L 180.324943 389.718979 
L 192.161307 397.721502 
L 203.99767 397.721502 
L 215.834034 384.00289 
L 227.670398 378.286802 
L 239.506761 364.56819 
L 251.343125 357.708884 
L 263.179489 346.276707 
L 275.015852 339.417401 
L 286.852216 326.842007 
L 298.68858 306.264089 
L 310.524943 300.548001 
L 322.361307 294.831912 
L 334.19767 287.972606 
L 346.034034 277.683647 
L 357.870398 252.532859 
L 369.706761 238.814247 
L 381.543125 243.387118 
L 393.379489 223.952417 
L 405.215852 235.384594 
L 417.052216 233.098159 
L 428.88858 228.525288 
L 440.724943 215.949894 
L 452.561307 220.522764 
L 464.39767 217.093111 
L 476.234034 234.241376 
L 488.070398 251.389641 
L 499.906761 254.819294 
L 511.743125 207.94737 
" style="fill:none;stroke:#d0e1f2;stroke-linecap:square;stroke-width:1.5;"/>
   </g>
   <g id="line2d_44">
    <path clip-path="url(#p924deef701)" d="M 121.143125 433.16125 
L 132.979489 433.16125 
L 144.815852 433.16125 
L 156.652216 433.16125 
L 168.48858 433.16125 
L 180.324943 433.16125 
L 192.161307 433.16125 
L 203.99767 433.16125 
L 215.834034 433.16125 
L 227.670398 432.018032 
L 239.506761 432.018032 
L 251.343125 433.16125 
L 263.179489 433.16125 
L 275.015852 433.16125 
L 286.852216 433.16125 
L 298.68858 433.16125 
L 310.524943 433.16125 
L 322.361307 433.16125 
L 334.19767 433.16125 
L 346.034034 433.16125 
L 357.870398 432.018032 
L 369.706761 432.018032 
L 381.543125 433.16125 
L 393.379489 433.16125 
L 405.215852 433.16125 
L 417.052216 433.16125 
L 428.88858 433.16125 
L 440.724943 433.16125 
L 452.561307 432.018032 
L 464.39767 425.158726 
L 476.234034 421.729073 
L 488.070398 417.156203 
L 499.906761 418.29942 
L 511.743125 402.294373 
" style="fill:none;stroke:#1764ab;stroke-linecap:square;stroke-width:1.5;"/>
   </g>
   <g id="line2d_45">
    <path clip-path="url(#p924deef701)" d="M 121.143125 433.16125 
L 132.979489 433.16125 
L 144.815852 433.16125 
L 156.652216 433.16125 
L 168.48858 433.16125 
L 180.324943 432.018032 
L 192.161307 430.874815 
L 203.99767 433.16125 
L 215.834034 433.16125 
L 227.670398 433.16125 
L 239.506761 433.16125 
L 251.343125 433.16125 
L 263.179489 433.16125 
L 275.015852 433.16125 
L 286.852216 433.16125 
L 298.68858 432.018032 
L 310.524943 432.018032 
L 322.361307 433.16125 
L 334.19767 433.16125 
L 346.034034 433.16125 
L 357.870398 433.16125 
L 369.706761 433.16125 
L 381.543125 433.16125 
L 393.379489 433.16125 
L 405.215852 433.16125 
L 417.052216 433.16125 
L 428.88858 433.16125 
L 440.724943 433.16125 
L 452.561307 433.16125 
L 464.39767 432.018032 
L 476.234034 433.16125 
L 488.070398 432.018032 
L 499.906761 429.731597 
L 511.743125 418.29942 
" style="fill:none;stroke:#1764ab;stroke-linecap:square;stroke-width:1.5;"/>
   </g>
   <g id="line2d_46">
    <path clip-path="url(#p924deef701)" d="M 121.143125 433.16125 
L 132.979489 433.16125 
L 144.815852 433.16125 
L 156.652216 433.16125 
L 168.48858 433.16125 
L 180.324943 433.16125 
L 192.161307 433.16125 
L 203.99767 433.16125 
L 215.834034 433.16125 
L 227.670398 433.16125 
L 239.506761 433.16125 
L 251.343125 432.018032 
L 263.179489 433.16125 
L 275.015852 433.16125 
L 286.852216 433.16125 
L 298.68858 433.16125 
L 310.524943 433.16125 
L 322.361307 430.874815 
L 334.19767 427.445162 
L 346.034034 430.874815 
L 357.870398 429.731597 
L 369.706761 433.16125 
L 381.543125 433.16125 
L 393.379489 433.16125 
L 405.215852 433.16125 
L 417.052216 433.16125 
L 428.88858 433.16125 
L 440.724943 433.16125 
L 452.561307 433.16125 
L 464.39767 430.874815 
L 476.234034 432.018032 
L 488.070398 428.588379 
L 499.906761 429.731597 
L 511.743125 426.301944 
" style="fill:none;stroke:#1764ab;stroke-linecap:square;stroke-width:1.5;"/>
   </g>
   <g id="line2d_47">
    <path clip-path="url(#p924deef701)" d="M 121.143125 433.16125 
L 132.979489 433.16125 
L 144.815852 433.16125 
L 156.652216 433.16125 
L 168.48858 433.16125 
L 180.324943 433.16125 
L 192.161307 433.16125 
L 203.99767 433.16125 
L 215.834034 433.16125 
L 227.670398 433.16125 
L 239.506761 433.16125 
L 251.343125 433.16125 
L 263.179489 432.018032 
L 275.015852 433.16125 
L 286.852216 433.16125 
L 298.68858 433.16125 
L 310.524943 433.16125 
L 322.361307 433.16125 
L 334.19767 433.16125 
L 346.034034 433.16125 
L 357.870398 433.16125 
L 369.706761 433.16125 
L 381.543125 430.874815 
L 393.379489 432.018032 
L 405.215852 429.731597 
L 417.052216 433.16125 
L 428.88858 433.16125 
L 440.724943 433.16125 
L 452.561307 433.16125 
L 464.39767 433.16125 
L 476.234034 433.16125 
L 488.070398 429.731597 
L 499.906761 427.445162 
L 511.743125 430.874815 
" style="fill:none;stroke:#1764ab;stroke-linecap:square;stroke-width:1.5;"/>
   </g>
   <g id="line2d_48">
    <path clip-path="url(#p924deef701)" d="M 121.143125 433.16125 
L 132.979489 433.16125 
L 144.815852 433.16125 
L 156.652216 433.16125 
L 168.48858 433.16125 
L 180.324943 433.16125 
L 192.161307 433.16125 
L 203.99767 433.16125 
L 215.834034 432.018032 
L 227.670398 433.16125 
L 239.506761 433.16125 
L 251.343125 433.16125 
L 263.179489 433.16125 
L 275.015852 433.16125 
L 286.852216 433.16125 
L 298.68858 432.018032 
L 310.524943 433.16125 
L 322.361307 433.16125 
L 334.19767 433.16125 
L 346.034034 432.018032 
L 357.870398 430.874815 
L 369.706761 433.16125 
L 381.543125 433.16125 
L 393.379489 433.16125 
L 405.215852 433.16125 
L 417.052216 433.16125 
L 428.88858 433.16125 
L 440.724943 433.16125 
L 452.561307 433.16125 
L 464.39767 433.16125 
L 476.234034 433.16125 
L 488.070398 427.445162 
L 499.906761 426.301944 
L 511.743125 416.012985 
" style="fill:none;stroke:#1764ab;stroke-linecap:square;stroke-width:1.5;"/>
   </g>
   <g id="line2d_49">
    <path clip-path="url(#p924deef701)" d="M 121.143125 433.16125 
L 132.979489 433.16125 
L 144.815852 433.16125 
L 156.652216 433.16125 
L 168.48858 433.16125 
L 180.324943 433.16125 
L 192.161307 433.16125 
L 203.99767 433.16125 
L 215.834034 432.018032 
L 227.670398 433.16125 
L 239.506761 433.16125 
L 251.343125 433.16125 
L 263.179489 433.16125 
L 275.015852 433.16125 
L 286.852216 433.16125 
L 298.68858 432.018032 
L 310.524943 430.874815 
L 322.361307 433.16125 
L 334.19767 433.16125 
L 346.034034 433.16125 
L 357.870398 433.16125 
L 369.706761 433.16125 
L 381.543125 433.16125 
L 393.379489 433.16125 
L 405.215852 433.16125 
L 417.052216 433.16125 
L 428.88858 428.588379 
L 440.724943 428.588379 
L 452.561307 430.874815 
L 464.39767 429.731597 
L 476.234034 430.874815 
L 488.070398 430.874815 
L 499.906761 433.16125 
L 511.743125 429.731597 
" style="fill:none;stroke:#1764ab;stroke-linecap:square;stroke-width:1.5;"/>
   </g>
   <g id="line2d_50">
    <path clip-path="url(#p924deef701)" d="M 121.143125 433.16125 
L 132.979489 433.16125 
L 144.815852 433.16125 
L 156.652216 433.16125 
L 168.48858 433.16125 
L 180.324943 433.16125 
L 192.161307 433.16125 
L 203.99767 433.16125 
L 215.834034 433.16125 
L 227.670398 433.16125 
L 239.506761 433.16125 
L 251.343125 433.16125 
L 263.179489 432.018032 
L 275.015852 433.16125 
L 286.852216 433.16125 
L 298.68858 432.018032 
L 310.524943 433.16125 
L 322.361307 433.16125 
L 334.19767 433.16125 
L 346.034034 429.731597 
L 357.870398 433.16125 
L 369.706761 433.16125 
L 381.543125 433.16125 
L 393.379489 433.16125 
L 405.215852 433.16125 
L 417.052216 433.16125 
L 428.88858 433.16125 
L 440.724943 433.16125 
L 452.561307 433.16125 
L 464.39767 433.16125 
L 476.234034 433.16125 
L 488.070398 426.301944 
L 499.906761 418.29942 
L 511.743125 414.869767 
" style="fill:none;stroke:#1764ab;stroke-linecap:square;stroke-width:1.5;"/>
   </g>
   <g id="line2d_51">
    <path clip-path="url(#p924deef701)" d="M 121.143125 433.16125 
L 132.979489 433.16125 
L 144.815852 433.16125 
L 156.652216 433.16125 
L 168.48858 433.16125 
L 180.324943 433.16125 
L 192.161307 433.16125 
L 203.99767 433.16125 
L 215.834034 433.16125 
L 227.670398 433.16125 
L 239.506761 433.16125 
L 251.343125 433.16125 
L 263.179489 433.16125 
L 275.015852 433.16125 
L 286.852216 433.16125 
L 298.68858 433.16125 
L 310.524943 433.16125 
L 322.361307 433.16125 
L 334.19767 433.16125 
L 346.034034 433.16125 
L 357.870398 433.16125 
L 369.706761 433.16125 
L 381.543125 430.874815 
L 393.379489 428.588379 
L 405.215852 429.731597 
L 417.052216 432.018032 
L 428.88858 433.16125 
L 440.724943 433.16125 
L 452.561307 430.874815 
L 464.39767 426.301944 
L 476.234034 429.731597 
L 488.070398 429.731597 
L 499.906761 430.874815 
L 511.743125 426.301944 
" style="fill:none;stroke:#1764ab;stroke-linecap:square;stroke-width:1.5;"/>
   </g>
   <g id="line2d_52">
    <path clip-path="url(#p924deef701)" d="M 121.143125 433.16125 
L 132.979489 433.16125 
L 144.815852 433.16125 
L 156.652216 433.16125 
L 168.48858 433.16125 
L 180.324943 433.16125 
L 192.161307 433.16125 
L 203.99767 433.16125 
L 215.834034 433.16125 
L 227.670398 433.16125 
L 239.506761 433.16125 
L 251.343125 432.018032 
L 263.179489 430.874815 
L 275.015852 432.018032 
L 286.852216 432.018032 
L 298.68858 433.16125 
L 310.524943 433.16125 
L 322.361307 433.16125 
L 334.19767 433.16125 
L 346.034034 433.16125 
L 357.870398 433.16125 
L 369.706761 433.16125 
L 381.543125 433.16125 
L 393.379489 433.16125 
L 405.215852 433.16125 
L 417.052216 433.16125 
L 428.88858 430.874815 
L 440.724943 432.018032 
L 452.561307 433.16125 
L 464.39767 430.874815 
L 476.234034 432.018032 
L 488.070398 433.16125 
L 499.906761 433.16125 
L 511.743125 430.874815 
" style="fill:none;stroke:#1764ab;stroke-linecap:square;stroke-width:1.5;"/>
   </g>
   <g id="line2d_53">
    <path clip-path="url(#p924deef701)" d="M 121.143125 433.16125 
L 132.979489 433.16125 
L 144.815852 432.018032 
L 156.652216 433.16125 
L 168.48858 433.16125 
L 180.324943 433.16125 
L 192.161307 433.16125 
L 203.99767 433.16125 
L 215.834034 433.16125 
L 227.670398 433.16125 
L 239.506761 433.16125 
L 251.343125 433.16125 
L 263.179489 432.018032 
L 275.015852 433.16125 
L 286.852216 433.16125 
L 298.68858 433.16125 
L 310.524943 432.018032 
L 322.361307 432.018032 
L 334.19767 433.16125 
L 346.034034 433.16125 
L 357.870398 433.16125 
L 369.706761 433.16125 
L 381.543125 433.16125 
L 393.379489 433.16125 
L 405.215852 433.16125 
L 417.052216 433.16125 
L 428.88858 433.16125 
L 440.724943 433.16125 
L 452.561307 433.16125 
L 464.39767 433.16125 
L 476.234034 433.16125 
L 488.070398 433.16125 
L 499.906761 432.018032 
L 511.743125 428.588379 
" style="fill:none;stroke:#1764ab;stroke-linecap:square;stroke-width:1.5;"/>
   </g>
   <g id="line2d_54">
    <path clip-path="url(#p924deef701)" d="M 121.143125 433.16125 
L 132.979489 432.018032 
L 144.815852 432.018032 
L 156.652216 427.445162 
L 168.48858 427.445162 
L 180.324943 427.445162 
L 192.161307 425.158726 
L 203.99767 412.583332 
L 215.834034 396.578285 
L 227.670398 395.435067 
L 239.506761 401.151155 
L 251.343125 408.010461 
L 263.179489 401.151155 
L 275.015852 406.867244 
L 286.852216 398.86472 
L 298.68858 400.007938 
L 310.524943 404.580808 
L 322.361307 396.578285 
L 334.19767 403.437591 
L 346.034034 396.578285 
L 357.870398 387.432543 
L 369.706761 392.005414 
L 381.543125 386.289326 
L 393.379489 389.718979 
L 405.215852 379.43002 
L 417.052216 370.284278 
L 428.88858 376.000367 
L 440.724943 378.286802 
L 452.561307 356.565666 
L 464.39767 356.565666 
L 476.234034 335.987748 
L 488.070398 337.130966 
L 499.906761 335.987748 
L 511.743125 318.839483 
" style="fill:none;stroke:#94c4df;stroke-linecap:square;stroke-width:1.5;"/>
   </g>
   <g id="line2d_55">
    <path clip-path="url(#p924deef701)" d="M 121.143125 433.16125 
L 132.979489 432.018032 
L 144.815852 428.588379 
L 156.652216 426.301944 
L 168.48858 421.729073 
L 180.324943 420.585856 
L 192.161307 417.156203 
L 203.99767 410.296897 
L 215.834034 411.440114 
L 227.670398 411.440114 
L 239.506761 405.724026 
L 251.343125 412.583332 
L 263.179489 414.869767 
L 275.015852 412.583332 
L 286.852216 403.437591 
L 298.68858 397.721502 
L 310.524943 398.86472 
L 322.361307 394.291849 
L 334.19767 386.289326 
L 346.034034 378.286802 
L 357.870398 371.427496 
L 369.706761 366.854625 
L 381.543125 371.427496 
L 393.379489 367.997843 
L 405.215852 379.43002 
L 417.052216 369.141061 
L 428.88858 365.711408 
L 440.724943 363.424972 
L 452.561307 355.422449 
L 464.39767 346.276707 
L 476.234034 327.985225 
L 488.070398 314.266613 
L 499.906761 316.553048 
L 511.743125 286.829389 
" style="fill:none;stroke:#94c4df;stroke-linecap:square;stroke-width:1.5;"/>
   </g>
   <g id="line2d_56">
    <path clip-path="url(#p924deef701)" d="M 121.143125 432.018032 
L 132.979489 429.731597 
L 144.815852 425.158726 
L 156.652216 426.301944 
L 168.48858 422.872291 
L 180.324943 424.015509 
L 192.161307 418.29942 
L 203.99767 418.29942 
L 215.834034 420.585856 
L 227.670398 425.158726 
L 239.506761 412.583332 
L 251.343125 408.010461 
L 263.179489 408.010461 
L 275.015852 406.867244 
L 286.852216 400.007938 
L 298.68858 389.718979 
L 310.524943 392.005414 
L 322.361307 392.005414 
L 334.19767 380.573237 
L 346.034034 378.286802 
L 357.870398 374.857149 
L 369.706761 367.997843 
L 381.543125 353.136013 
L 393.379489 349.70636 
L 405.215852 356.565666 
L 417.052216 357.708884 
L 428.88858 371.427496 
L 440.724943 382.859673 
L 452.561307 372.570714 
L 464.39767 351.992796 
L 476.234034 339.417401 
L 488.070398 356.565666 
L 499.906761 342.847054 
L 511.743125 310.83696 
" style="fill:none;stroke:#94c4df;stroke-linecap:square;stroke-width:1.5;"/>
   </g>
   <g id="line2d_57">
    <path clip-path="url(#p924deef701)" d="M 121.143125 433.16125 
L 132.979489 432.018032 
L 144.815852 428.588379 
L 156.652216 432.018032 
L 168.48858 429.731597 
L 180.324943 427.445162 
L 192.161307 424.015509 
L 203.99767 426.301944 
L 215.834034 412.583332 
L 227.670398 412.583332 
L 239.506761 410.296897 
L 251.343125 403.437591 
L 263.179489 402.294373 
L 275.015852 403.437591 
L 286.852216 396.578285 
L 298.68858 396.578285 
L 310.524943 392.005414 
L 322.361307 390.862196 
L 334.19767 392.005414 
L 346.034034 390.862196 
L 357.870398 393.148632 
L 369.706761 385.146108 
L 381.543125 377.143584 
L 393.379489 377.143584 
L 405.215852 365.711408 
L 417.052216 359.995319 
L 428.88858 377.143584 
L 440.724943 374.857149 
L 452.561307 369.141061 
L 464.39767 363.424972 
L 476.234034 350.849578 
L 488.070398 351.992796 
L 499.906761 349.70636 
L 511.743125 319.982701 
" style="fill:none;stroke:#94c4df;stroke-linecap:square;stroke-width:1.5;"/>
   </g>
   <g id="line2d_58">
    <path clip-path="url(#p924deef701)" d="M 121.143125 433.16125 
L 132.979489 433.16125 
L 144.815852 429.731597 
L 156.652216 429.731597 
L 168.48858 429.731597 
L 180.324943 426.301944 
L 192.161307 418.29942 
L 203.99767 413.72655 
L 215.834034 401.151155 
L 227.670398 401.151155 
L 239.506761 397.721502 
L 251.343125 401.151155 
L 263.179489 409.153679 
L 275.015852 406.867244 
L 286.852216 417.156203 
L 298.68858 413.72655 
L 310.524943 409.153679 
L 322.361307 403.437591 
L 334.19767 386.289326 
L 346.034034 373.713931 
L 357.870398 355.422449 
L 369.706761 350.849578 
L 381.543125 356.565666 
L 393.379489 361.138537 
L 405.215852 357.708884 
L 417.052216 376.000367 
L 428.88858 361.138537 
L 440.724943 362.281755 
L 452.561307 349.70636 
L 464.39767 334.844531 
L 476.234034 351.992796 
L 488.070398 327.985225 
L 499.906761 325.698789 
L 511.743125 284.542953 
" style="fill:none;stroke:#94c4df;stroke-linecap:square;stroke-width:1.5;"/>
   </g>
   <g id="line2d_59">
    <path clip-path="url(#p924deef701)" d="M 121.143125 433.16125 
L 132.979489 430.874815 
L 144.815852 432.018032 
L 156.652216 428.588379 
L 168.48858 425.158726 
L 180.324943 414.869767 
L 192.161307 411.440114 
L 203.99767 410.296897 
L 215.834034 404.580808 
L 227.670398 405.724026 
L 239.506761 414.869767 
L 251.343125 413.72655 
L 263.179489 403.437591 
L 275.015852 396.578285 
L 286.852216 397.721502 
L 298.68858 409.153679 
L 310.524943 406.867244 
L 322.361307 405.724026 
L 334.19767 409.153679 
L 346.034034 395.435067 
L 357.870398 397.721502 
L 369.706761 392.005414 
L 381.543125 393.148632 
L 393.379489 392.005414 
L 405.215852 361.138537 
L 417.052216 357.708884 
L 428.88858 347.419925 
L 440.724943 354.279231 
L 452.561307 343.990272 
L 464.39767 350.849578 
L 476.234034 350.849578 
L 488.070398 337.130966 
L 499.906761 343.990272 
L 511.743125 298.261565 
" style="fill:none;stroke:#94c4df;stroke-linecap:square;stroke-width:1.5;"/>
   </g>
   <g id="line2d_60">
    <path clip-path="url(#p924deef701)" d="M 121.143125 432.018032 
L 132.979489 432.018032 
L 144.815852 428.588379 
L 156.652216 422.872291 
L 168.48858 421.729073 
L 180.324943 424.015509 
L 192.161307 424.015509 
L 203.99767 427.445162 
L 215.834034 424.015509 
L 227.670398 420.585856 
L 239.506761 416.012985 
L 251.343125 417.156203 
L 263.179489 411.440114 
L 275.015852 405.724026 
L 286.852216 410.296897 
L 298.68858 400.007938 
L 310.524943 387.432543 
L 322.361307 389.718979 
L 334.19767 387.432543 
L 346.034034 380.573237 
L 357.870398 390.862196 
L 369.706761 380.573237 
L 381.543125 374.857149 
L 393.379489 366.854625 
L 405.215852 369.141061 
L 417.052216 380.573237 
L 428.88858 361.138537 
L 440.724943 363.424972 
L 452.561307 361.138537 
L 464.39767 346.276707 
L 476.234034 357.708884 
L 488.070398 347.419925 
L 499.906761 321.125919 
L 511.743125 289.115824 
" style="fill:none;stroke:#94c4df;stroke-linecap:square;stroke-width:1.5;"/>
   </g>
   <g id="line2d_61">
    <path clip-path="url(#p924deef701)" d="M 121.143125 432.018032 
L 132.979489 432.018032 
L 144.815852 433.16125 
L 156.652216 432.018032 
L 168.48858 432.018032 
L 180.324943 429.731597 
L 192.161307 425.158726 
L 203.99767 424.015509 
L 215.834034 421.729073 
L 227.670398 422.872291 
L 239.506761 417.156203 
L 251.343125 410.296897 
L 263.179489 411.440114 
L 275.015852 418.29942 
L 286.852216 406.867244 
L 298.68858 403.437591 
L 310.524943 396.578285 
L 322.361307 384.00289 
L 334.19767 384.00289 
L 346.034034 384.00289 
L 357.870398 388.575761 
L 369.706761 358.852102 
L 381.543125 366.854625 
L 393.379489 367.997843 
L 405.215852 372.570714 
L 417.052216 382.859673 
L 428.88858 387.432543 
L 440.724943 370.284278 
L 452.561307 362.281755 
L 464.39767 351.992796 
L 476.234034 327.985225 
L 488.070398 340.560619 
L 499.906761 346.276707 
L 511.743125 306.264089 
" style="fill:none;stroke:#94c4df;stroke-linecap:square;stroke-width:1.5;"/>
   </g>
   <g id="line2d_62">
    <path clip-path="url(#p924deef701)" d="M 121.143125 433.16125 
L 132.979489 433.16125 
L 144.815852 428.588379 
L 156.652216 426.301944 
L 168.48858 424.015509 
L 180.324943 412.583332 
L 192.161307 411.440114 
L 203.99767 417.156203 
L 215.834034 413.72655 
L 227.670398 418.29942 
L 239.506761 413.72655 
L 251.343125 412.583332 
L 263.179489 406.867244 
L 275.015852 404.580808 
L 286.852216 406.867244 
L 298.68858 405.724026 
L 310.524943 403.437591 
L 322.361307 404.580808 
L 334.19767 384.00289 
L 346.034034 379.43002 
L 357.870398 377.143584 
L 369.706761 380.573237 
L 381.543125 370.284278 
L 393.379489 376.000367 
L 405.215852 371.427496 
L 417.052216 362.281755 
L 428.88858 363.424972 
L 440.724943 353.136013 
L 452.561307 370.284278 
L 464.39767 355.422449 
L 476.234034 361.138537 
L 488.070398 362.281755 
L 499.906761 379.43002 
L 511.743125 345.13349 
" style="fill:none;stroke:#94c4df;stroke-linecap:square;stroke-width:1.5;"/>
   </g>
   <g id="line2d_63">
    <path clip-path="url(#p924deef701)" d="M 121.143125 430.874815 
L 132.979489 426.301944 
L 144.815852 418.29942 
L 156.652216 414.869767 
L 168.48858 418.29942 
L 180.324943 419.442638 
L 192.161307 427.445162 
L 203.99767 420.585856 
L 215.834034 418.29942 
L 227.670398 421.729073 
L 239.506761 424.015509 
L 251.343125 414.869767 
L 263.179489 417.156203 
L 275.015852 406.867244 
L 286.852216 409.153679 
L 298.68858 404.580808 
L 310.524943 397.721502 
L 322.361307 396.578285 
L 334.19767 386.289326 
L 346.034034 394.291849 
L 357.870398 389.718979 
L 369.706761 389.718979 
L 381.543125 388.575761 
L 393.379489 395.435067 
L 405.215852 378.286802 
L 417.052216 377.143584 
L 428.88858 365.711408 
L 440.724943 362.281755 
L 452.561307 366.854625 
L 464.39767 369.141061 
L 476.234034 374.857149 
L 488.070398 379.43002 
L 499.906761 380.573237 
L 511.743125 337.130966 
" style="fill:none;stroke:#94c4df;stroke-linecap:square;stroke-width:1.5;"/>
   </g>
   <g id="line2d_64">
    <path clip-path="url(#p924deef701)" d="M 121.143125 432.018032 
L 132.979489 421.729073 
L 144.815852 409.153679 
L 156.652216 400.007938 
L 168.48858 388.575761 
L 180.324943 373.713931 
L 192.161307 364.56819 
L 203.99767 349.70636 
L 215.834034 340.560619 
L 227.670398 326.842007 
L 239.506761 324.555572 
L 251.343125 313.123395 
L 263.179489 294.831912 
L 275.015852 287.972606 
L 286.852216 271.967559 
L 298.68858 246.816771 
L 310.524943 244.530335 
L 322.361307 235.384594 
L 334.19767 221.665982 
L 346.034034 211.377023 
L 357.870398 206.804152 
L 369.706761 186.226234 
L 381.543125 181.653364 
L 393.379489 171.364405 
L 405.215852 157.645793 
L 417.052216 146.213616 
L 428.88858 150.786487 
L 440.724943 122.206045 
L 452.561307 97.055256 
L 464.39767 119.91961 
L 476.234034 98.198474 
L 488.070398 94.768821 
L 499.906761 94.768821 
L 511.743125 91.339168 
" style="fill:none;stroke:#000000;stroke-linecap:square;stroke-width:1.5;"/>
   </g>
   <g id="line2d_65">
    <path clip-path="url(#p924deef701)" d="M 121.143125 430.874815 
L 132.979489 421.729073 
L 144.815852 408.010461 
L 156.652216 394.291849 
L 168.48858 390.862196 
L 180.324943 381.716455 
L 192.161307 366.854625 
L 203.99767 350.849578 
L 215.834034 345.13349 
L 227.670398 338.274184 
L 239.506761 321.125919 
L 251.343125 309.693742 
L 263.179489 295.97513 
L 275.015852 297.118348 
L 286.852216 276.54043 
L 298.68858 254.819294 
L 310.524943 258.248947 
L 322.361307 239.957465 
L 334.19767 233.098159 
L 346.034034 217.093111 
L 357.870398 215.949894 
L 369.706761 196.515193 
L 381.543125 186.226234 
L 393.379489 172.507622 
L 405.215852 163.361881 
L 417.052216 146.213616 
L 428.88858 138.211092 
L 440.724943 125.635698 
L 452.561307 117.633174 
L 464.39767 124.49248 
L 476.234034 113.060304 
L 488.070398 116.489957 
L 499.906761 93.625603 
L 511.743125 93.625603 
" style="fill:none;stroke:#000000;stroke-linecap:square;stroke-width:1.5;"/>
   </g>
   <g id="line2d_66">
    <path clip-path="url(#p924deef701)" d="M 121.143125 432.018032 
L 132.979489 422.872291 
L 144.815852 409.153679 
L 156.652216 397.721502 
L 168.48858 387.432543 
L 180.324943 377.143584 
L 192.161307 366.854625 
L 203.99767 353.136013 
L 215.834034 343.990272 
L 227.670398 329.128442 
L 239.506761 322.269136 
L 251.343125 299.404783 
L 263.179489 282.256518 
L 275.015852 279.970083 
L 286.852216 267.394688 
L 298.68858 261.6786 
L 310.524943 249.103206 
L 322.361307 250.246424 
L 334.19767 234.241376 
L 346.034034 214.806676 
L 357.870398 207.94737 
L 369.706761 203.374499 
L 381.543125 185.083017 
L 393.379489 154.21614 
L 405.215852 155.359357 
L 417.052216 138.211092 
L 428.88858 124.49248 
L 440.724943 122.206045 
L 452.561307 114.203521 
L 464.39767 129.065351 
L 476.234034 115.346739 
L 488.070398 98.198474 
L 499.906761 85.62308 
L 511.743125 107.344215 
" style="fill:none;stroke:#000000;stroke-linecap:square;stroke-width:1.5;"/>
   </g>
   <g id="line2d_67">
    <path clip-path="url(#p924deef701)" d="M 121.143125 430.874815 
L 132.979489 419.442638 
L 144.815852 406.867244 
L 156.652216 398.86472 
L 168.48858 385.146108 
L 180.324943 374.857149 
L 192.161307 361.138537 
L 203.99767 349.70636 
L 215.834034 338.274184 
L 227.670398 332.558095 
L 239.506761 324.555572 
L 251.343125 308.550524 
L 263.179489 295.97513 
L 275.015852 282.256518 
L 286.852216 270.824341 
L 298.68858 268.537906 
L 310.524943 242.2439 
L 322.361307 246.816771 
L 334.19767 229.668506 
L 346.034034 227.38207 
L 357.870398 203.374499 
L 369.706761 187.369452 
L 381.543125 191.942323 
L 393.379489 165.648316 
L 405.215852 147.356834 
L 417.052216 156.502575 
L 428.88858 131.351786 
L 440.724943 119.91961 
L 452.561307 129.065351 
L 464.39767 107.344215 
L 476.234034 123.349263 
L 488.070398 117.633174 
L 499.906761 86.766297 
L 511.743125 126.778916 
" style="fill:none;stroke:#000000;stroke-linecap:square;stroke-width:1.5;"/>
   </g>
   <g id="line2d_68">
    <path clip-path="url(#p924deef701)" d="M 121.143125 430.874815 
L 132.979489 418.29942 
L 144.815852 406.867244 
L 156.652216 397.721502 
L 168.48858 388.575761 
L 180.324943 376.000367 
L 192.161307 366.854625 
L 203.99767 359.995319 
L 215.834034 340.560619 
L 227.670398 325.698789 
L 239.506761 313.123395 
L 251.343125 305.120871 
L 263.179489 297.118348 
L 275.015852 282.256518 
L 286.852216 279.970083 
L 298.68858 260.535382 
L 310.524943 245.673553 
L 322.361307 233.098159 
L 334.19767 228.525288 
L 346.034034 213.663458 
L 357.870398 207.94737 
L 369.706761 187.369452 
L 381.543125 183.939799 
L 393.379489 169.077969 
L 405.215852 179.366928 
L 417.052216 149.643269 
L 428.88858 134.781439 
L 440.724943 137.067875 
L 452.561307 110.773868 
L 464.39767 114.203521 
L 476.234034 99.341692 
L 488.070398 114.203521 
L 499.906761 83.336644 
L 511.743125 98.198474 
" style="fill:none;stroke:#000000;stroke-linecap:square;stroke-width:1.5;"/>
   </g>
   <g id="line2d_69">
    <path clip-path="url(#p924deef701)" d="M 121.143125 430.874815 
L 132.979489 420.585856 
L 144.815852 406.867244 
L 156.652216 396.578285 
L 168.48858 389.718979 
L 180.324943 371.427496 
L 192.161307 359.995319 
L 203.99767 345.13349 
L 215.834034 341.703837 
L 227.670398 323.412354 
L 239.506761 318.839483 
L 251.343125 308.550524 
L 263.179489 302.834436 
L 275.015852 281.1133 
L 286.852216 285.686171 
L 298.68858 267.394688 
L 310.524943 245.673553 
L 322.361307 231.954941 
L 334.19767 231.954941 
L 346.034034 221.665982 
L 357.870398 204.517717 
L 369.706761 195.371976 
L 381.543125 177.080493 
L 393.379489 179.366928 
L 405.215852 149.643269 
L 417.052216 153.072922 
L 428.88858 131.351786 
L 440.724943 126.778916 
L 452.561307 117.633174 
L 464.39767 114.203521 
L 476.234034 107.344215 
L 488.070398 102.771345 
L 499.906761 83.336644 
L 511.743125 99.341692 
" style="fill:none;stroke:#000000;stroke-linecap:square;stroke-width:1.5;"/>
   </g>
   <g id="line2d_70">
    <path clip-path="url(#p924deef701)" d="M 121.143125 430.874815 
L 132.979489 419.442638 
L 144.815852 411.440114 
L 156.652216 397.721502 
L 168.48858 389.718979 
L 180.324943 374.857149 
L 192.161307 359.995319 
L 203.99767 356.565666 
L 215.834034 349.70636 
L 227.670398 322.269136 
L 239.506761 315.40983 
L 251.343125 317.696266 
L 263.179489 291.402259 
L 275.015852 289.115824 
L 286.852216 266.251471 
L 298.68858 261.6786 
L 310.524943 257.105729 
L 322.361307 245.673553 
L 334.19767 231.954941 
L 346.034034 219.379547 
L 357.870398 221.665982 
L 369.706761 194.228758 
L 381.543125 193.08554 
L 393.379489 182.796581 
L 405.215852 163.361881 
L 417.052216 161.075446 
L 428.88858 140.497528 
L 440.724943 125.635698 
L 452.561307 117.633174 
L 464.39767 102.771345 
L 476.234034 99.341692 
L 488.070398 99.341692 
L 499.906761 70.76125 
L 511.743125 107.344215 
" style="fill:none;stroke:#000000;stroke-linecap:square;stroke-width:1.5;"/>
   </g>
   <g id="line2d_71">
    <path clip-path="url(#p924deef701)" d="M 121.143125 430.874815 
L 132.979489 421.729073 
L 144.815852 410.296897 
L 156.652216 397.721502 
L 168.48858 387.432543 
L 180.324943 376.000367 
L 192.161307 369.141061 
L 203.99767 346.276707 
L 215.834034 346.276707 
L 227.670398 329.128442 
L 239.506761 326.842007 
L 251.343125 310.83696 
L 263.179489 298.261565 
L 275.015852 298.261565 
L 286.852216 282.256518 
L 298.68858 261.6786 
L 310.524943 255.962512 
L 322.361307 242.2439 
L 334.19767 235.384594 
L 346.034034 221.665982 
L 357.870398 205.660935 
L 369.706761 186.226234 
L 381.543125 189.655887 
L 393.379489 178.223711 
L 405.215852 165.648316 
L 417.052216 159.932228 
L 428.88858 140.497528 
L 440.724943 132.495004 
L 452.561307 122.206045 
L 464.39767 103.914562 
L 476.234034 98.198474 
L 488.070398 95.912039 
L 499.906761 82.193427 
L 511.743125 91.339168 
" style="fill:none;stroke:#000000;stroke-linecap:square;stroke-width:1.5;"/>
   </g>
   <g id="line2d_72">
    <path clip-path="url(#p924deef701)" d="M 121.143125 432.018032 
L 132.979489 420.585856 
L 144.815852 410.296897 
L 156.652216 397.721502 
L 168.48858 387.432543 
L 180.324943 370.284278 
L 192.161307 361.138537 
L 203.99767 355.422449 
L 215.834034 342.847054 
L 227.670398 340.560619 
L 239.506761 319.982701 
L 251.343125 305.120871 
L 263.179489 294.831912 
L 275.015852 279.970083 
L 286.852216 270.824341 
L 298.68858 266.251471 
L 310.524943 258.248947 
L 322.361307 245.673553 
L 334.19767 226.238853 
L 346.034034 221.665982 
L 357.870398 203.374499 
L 369.706761 196.515193 
L 381.543125 196.515193 
L 393.379489 183.939799 
L 405.215852 151.929704 
L 417.052216 140.497528 
L 428.88858 139.35431 
L 440.724943 129.065351 
L 452.561307 111.917086 
L 464.39767 103.914562 
L 476.234034 107.344215 
L 488.070398 119.91961 
L 499.906761 77.620556 
L 511.743125 94.768821 
" style="fill:none;stroke:#000000;stroke-linecap:square;stroke-width:1.5;"/>
   </g>
   <g id="line2d_73">
    <path clip-path="url(#p924deef701)" d="M 121.143125 429.731597 
L 132.979489 418.29942 
L 144.815852 408.010461 
L 156.652216 396.578285 
L 168.48858 387.432543 
L 180.324943 376.000367 
L 192.161307 370.284278 
L 203.99767 359.995319 
L 215.834034 348.563143 
L 227.670398 327.985225 
L 239.506761 317.696266 
L 251.343125 310.83696 
L 263.179489 298.261565 
L 275.015852 287.972606 
L 286.852216 262.821818 
L 298.68858 268.537906 
L 310.524943 253.676076 
L 322.361307 236.527812 
L 334.19767 228.525288 
L 346.034034 213.663458 
L 357.870398 204.517717 
L 369.706761 191.942323 
L 381.543125 178.223711 
L 393.379489 165.648316 
L 405.215852 161.075446 
L 417.052216 157.645793 
L 428.88858 148.500051 
L 440.724943 113.060304 
L 452.561307 123.349263 
L 464.39767 117.633174 
L 476.234034 117.633174 
L 488.070398 105.05778 
L 499.906761 94.768821 
L 511.743125 113.060304 
" style="fill:none;stroke:#000000;stroke-linecap:square;stroke-width:1.5;"/>
   </g>
   <g id="line2d_74">
    <path clip-path="url(#p924deef701)" d="M 109.306761 433.16125 
" style="fill:none;stroke:#000000;stroke-linecap:square;stroke-width:1.5;"/>
   </g>
   <g id="line2d_75">
    <path clip-path="url(#p924deef701)" d="M 109.306761 433.16125 
" style="fill:none;stroke:#d0e1f2;stroke-linecap:square;stroke-width:1.5;"/>
   </g>
   <g id="line2d_76">
    <path clip-path="url(#p924deef701)" d="M 109.306761 433.16125 
" style="fill:none;stroke:#94c4df;stroke-linecap:square;stroke-width:1.5;"/>
   </g>
   <g id="line2d_77">
    <path clip-path="url(#p924deef701)" d="M 109.306761 433.16125 
" style="fill:none;stroke:#4a98c9;stroke-linecap:square;stroke-width:1.5;"/>
   </g>
   <g id="line2d_78">
    <path clip-path="url(#p924deef701)" d="M 109.306761 433.16125 
" style="fill:none;stroke:#1764ab;stroke-linecap:square;stroke-width:1.5;"/>
   </g>
   <g id="line2d_79">
    <path clip-path="url(#p924deef701)" d="M 109.306761 433.16125 
" style="fill:none;stroke:#08306b;stroke-linecap:square;stroke-width:1.5;"/>
   </g>
   <g id="line2d_80">
    <path clip-path="url(#p924deef701)" d="M 109.306761 433.16125 
" style="fill:none;stroke:#000000;stroke-linecap:square;stroke-width:1.5;"/>
   </g>
   <g id="line2d_81">
    <path clip-path="url(#p924deef701)" d="M 109.306761 433.16125 
" style="fill:none;stroke:#000000;stroke-dasharray:1.5,2.475;stroke-dashoffset:0;stroke-width:1.5;"/>
   </g>
   <g id="line2d_82">
    <path clip-path="url(#p924deef701)" d="M 109.306761 433.16125 
" style="fill:none;stroke:#000000;stroke-linecap:square;stroke-width:1.5;"/>
   </g>
   <g id="line2d_83">
    <path clip-path="url(#p924deef701)" d="M 109.306761 433.16125 
" style="fill:none;stroke:#000000;stroke-dasharray:5.55,2.4;stroke-dashoffset:0;stroke-width:1.5;"/>
   </g>
   <g id="line2d_84">
    <path clip-path="url(#p924deef701)" d="M 109.306761 433.16125 
" style="fill:none;stroke:#000000;stroke-dasharray:9.6,2.4,1.5,2.4;stroke-dashoffset:0;stroke-width:1.5;"/>
   </g>
   <g id="line2d_85">
    <path clip-path="url(#p924deef701)" d="M 109.306761 433.16125 
" style="fill:none;stroke:#000000;stroke-dasharray:9.6,2.4,1.5,2.4;stroke-dashoffset:0;stroke-width:1.5;"/>
   </g>
   <g id="patch_3">
    <path d="M 121.143125 433.16125 
L 121.143125 52.64125 
" style="fill:none;stroke:#000000;stroke-linecap:square;stroke-linejoin:miter;stroke-width:0.8;"/>
   </g>
   <g id="patch_4">
    <path d="M 511.743125 433.16125 
L 511.743125 52.64125 
" style="fill:none;stroke:#000000;stroke-linecap:square;stroke-linejoin:miter;stroke-width:0.8;"/>
   </g>
   <g id="patch_5">
    <path d="M 121.143125 433.16125 
L 511.743125 433.16125 
" style="fill:none;stroke:#000000;stroke-linecap:square;stroke-linejoin:miter;stroke-width:0.8;"/>
   </g>
   <g id="patch_6">
    <path d="M 121.143125 52.64125 
L 511.743125 52.64125 
" style="fill:none;stroke:#000000;stroke-linecap:square;stroke-linejoin:miter;stroke-width:0.8;"/>
   </g>
   <g id="text_16">
    <!-- CANCER LIVE COUNT -->
    <g transform="translate(210.329063 21.515625)scale(0.2 -0.2)">
     <use xlink:href="#Arial-BoldMT-67"/>
     <use x="72.216797" xlink:href="#Arial-BoldMT-65"/>
     <use x="144.433594" xlink:href="#Arial-BoldMT-78"/>
     <use x="216.650391" xlink:href="#Arial-BoldMT-67"/>
     <use x="288.867188" xlink:href="#Arial-BoldMT-69"/>
     <use x="355.566406" xlink:href="#Arial-BoldMT-82"/>
     <use x="427.783203" xlink:href="#Arial-BoldMT-32"/>
     <use x="455.566406" xlink:href="#Arial-BoldMT-76"/>
     <use x="516.650391" xlink:href="#Arial-BoldMT-73"/>
     <use x="544.433594" xlink:href="#Arial-BoldMT-86"/>
     <use x="611.132812" xlink:href="#Arial-BoldMT-69"/>
     <use x="677.832031" xlink:href="#Arial-BoldMT-32"/>
     <use x="705.615234" xlink:href="#Arial-BoldMT-67"/>
     <use x="777.832031" xlink:href="#Arial-BoldMT-79"/>
     <use x="855.615234" xlink:href="#Arial-BoldMT-85"/>
     <use x="927.832031" xlink:href="#Arial-BoldMT-78"/>
     <use x="1000.048828" xlink:href="#Arial-BoldMT-84"/>
    </g>
    <!-- ACROSS RADIUS AT TIME 7 -->
    <defs>
     <path d="M 4.25 57.859375 
L 4.25 70.609375 
L 51.171875 70.609375 
L 51.171875 60.640625 
Q 45.359375 54.9375 39.34375 44.234375 
Q 33.34375 33.546875 30.1875 21.5 
Q 27.046875 9.46875 27.09375 0 
L 13.875 0 
Q 14.203125 14.84375 19.984375 30.265625 
Q 25.78125 45.703125 35.453125 57.859375 
z
" id="Arial-BoldMT-55"/>
    </defs>
    <g transform="translate(181.449375 42.64125)scale(0.2 -0.2)">
     <use xlink:href="#Arial-BoldMT-65"/>
     <use x="72.216797" xlink:href="#Arial-BoldMT-67"/>
     <use x="144.433594" xlink:href="#Arial-BoldMT-82"/>
     <use x="216.650391" xlink:href="#Arial-BoldMT-79"/>
     <use x="294.433594" xlink:href="#Arial-BoldMT-83"/>
     <use x="361.132812" xlink:href="#Arial-BoldMT-83"/>
     <use x="427.832031" xlink:href="#Arial-BoldMT-32"/>
     <use x="455.615234" xlink:href="#Arial-BoldMT-82"/>
     <use x="527.832031" xlink:href="#Arial-BoldMT-65"/>
     <use x="600.048828" xlink:href="#Arial-BoldMT-68"/>
     <use x="672.265625" xlink:href="#Arial-BoldMT-73"/>
     <use x="700.048828" xlink:href="#Arial-BoldMT-85"/>
     <use x="772.265625" xlink:href="#Arial-BoldMT-83"/>
     <use x="838.964844" xlink:href="#Arial-BoldMT-32"/>
     <use x="866.701172" xlink:href="#Arial-BoldMT-65"/>
     <use x="938.808594" xlink:href="#Arial-BoldMT-84"/>
     <use x="999.892578" xlink:href="#Arial-BoldMT-32"/>
     <use x="1027.675781" xlink:href="#Arial-BoldMT-84"/>
     <use x="1088.759766" xlink:href="#Arial-BoldMT-73"/>
     <use x="1116.542969" xlink:href="#Arial-BoldMT-77"/>
     <use x="1199.84375" xlink:href="#Arial-BoldMT-69"/>
     <use x="1266.542969" xlink:href="#Arial-BoldMT-32"/>
     <use x="1294.326172" xlink:href="#Arial-BoldMT-55"/>
    </g>
   </g>
   <g id="legend_1">
    <g id="line2d_86">
     <path d="M 520.743125 65.739687 
L 540.743125 65.739687 
" style="fill:none;stroke:#000000;stroke-linecap:square;stroke-width:1.5;"/>
    </g>
    <g id="line2d_87"/>
    <g id="text_17">
     <!-- 0 -->
     <g transform="translate(548.743125 69.239687)scale(0.1 -0.1)">
      <use xlink:href="#DejaVuSans-48"/>
     </g>
    </g>
    <g id="line2d_88">
     <path d="M 520.743125 80.417812 
L 540.743125 80.417812 
" style="fill:none;stroke:#d0e1f2;stroke-linecap:square;stroke-width:1.5;"/>
    </g>
    <g id="line2d_89"/>
    <g id="text_18">
     <!-- 100 -->
     <g transform="translate(548.743125 83.917812)scale(0.1 -0.1)">
      <use xlink:href="#DejaVuSans-49"/>
      <use x="63.623047" xlink:href="#DejaVuSans-48"/>
      <use x="127.246094" xlink:href="#DejaVuSans-48"/>
     </g>
    </g>
    <g id="line2d_90">
     <path d="M 520.743125 95.095937 
L 540.743125 95.095937 
" style="fill:none;stroke:#94c4df;stroke-linecap:square;stroke-width:1.5;"/>
    </g>
    <g id="line2d_91"/>
    <g id="text_19">
     <!-- 500 -->
     <g transform="translate(548.743125 98.595937)scale(0.1 -0.1)">
      <use xlink:href="#DejaVuSans-53"/>
      <use x="63.623047" xlink:href="#DejaVuSans-48"/>
      <use x="127.246094" xlink:href="#DejaVuSans-48"/>
     </g>
    </g>
    <g id="line2d_92">
     <path d="M 520.743125 109.774062 
L 540.743125 109.774062 
" style="fill:none;stroke:#4a98c9;stroke-linecap:square;stroke-width:1.5;"/>
    </g>
    <g id="line2d_93"/>
    <g id="text_20">
     <!-- 1000 -->
     <g transform="translate(548.743125 113.274062)scale(0.1 -0.1)">
      <use xlink:href="#DejaVuSans-49"/>
      <use x="63.623047" xlink:href="#DejaVuSans-48"/>
      <use x="127.246094" xlink:href="#DejaVuSans-48"/>
      <use x="190.869141" xlink:href="#DejaVuSans-48"/>
     </g>
    </g>
    <g id="line2d_94">
     <path d="M 520.743125 124.452187 
L 540.743125 124.452187 
" style="fill:none;stroke:#1764ab;stroke-linecap:square;stroke-width:1.5;"/>
    </g>
    <g id="line2d_95"/>
    <g id="text_21">
     <!-- 5000 -->
     <g transform="translate(548.743125 127.952187)scale(0.1 -0.1)">
      <use xlink:href="#DejaVuSans-53"/>
      <use x="63.623047" xlink:href="#DejaVuSans-48"/>
      <use x="127.246094" xlink:href="#DejaVuSans-48"/>
      <use x="190.869141" xlink:href="#DejaVuSans-48"/>
     </g>
    </g>
    <g id="line2d_96">
     <path d="M 520.743125 139.130312 
L 540.743125 139.130312 
" style="fill:none;stroke:#08306b;stroke-linecap:square;stroke-width:1.5;"/>
    </g>
    <g id="line2d_97"/>
    <g id="text_22">
     <!-- 10000 -->
     <g transform="translate(548.743125 142.630312)scale(0.1 -0.1)">
      <use xlink:href="#DejaVuSans-49"/>
      <use x="63.623047" xlink:href="#DejaVuSans-48"/>
      <use x="127.246094" xlink:href="#DejaVuSans-48"/>
      <use x="190.869141" xlink:href="#DejaVuSans-48"/>
      <use x="254.492188" xlink:href="#DejaVuSans-48"/>
     </g>
    </g>
    <g id="line2d_98">
     <path d="M 520.743125 153.808437 
L 540.743125 153.808437 
" style="fill:none;stroke:#000000;stroke-linecap:square;stroke-width:1.5;"/>
    </g>
    <g id="line2d_99"/>
    <g id="text_23">
     <!-- 0 -->
     <g transform="translate(548.743125 157.308437)scale(0.1 -0.1)">
      <use xlink:href="#DejaVuSans-48"/>
     </g>
    </g>
    <g id="line2d_100">
     <path d="M 520.743125 168.486562 
L 540.743125 168.486562 
" style="fill:none;stroke:#000000;stroke-dasharray:1.5,2.475;stroke-dashoffset:0;stroke-width:1.5;"/>
    </g>
    <g id="line2d_101"/>
    <g id="text_24">
     <!-- 250 -->
     <g transform="translate(548.743125 171.986562)scale(0.1 -0.1)">
      <use xlink:href="#DejaVuSans-50"/>
      <use x="63.623047" xlink:href="#DejaVuSans-53"/>
      <use x="127.246094" xlink:href="#DejaVuSans-48"/>
     </g>
    </g>
    <g id="line2d_102">
     <path d="M 520.743125 183.164687 
L 540.743125 183.164687 
" style="fill:none;stroke:#000000;stroke-linecap:square;stroke-width:1.5;"/>
    </g>
    <g id="line2d_103"/>
    <g id="text_25">
     <!-- 500 -->
     <g transform="translate(548.743125 186.664687)scale(0.1 -0.1)">
      <use xlink:href="#DejaVuSans-53"/>
      <use x="63.623047" xlink:href="#DejaVuSans-48"/>
      <use x="127.246094" xlink:href="#DejaVuSans-48"/>
     </g>
    </g>
    <g id="line2d_104">
     <path d="M 520.743125 197.842812 
L 540.743125 197.842812 
" style="fill:none;stroke:#000000;stroke-dasharray:5.55,2.4;stroke-dashoffset:0;stroke-width:1.5;"/>
    </g>
    <g id="line2d_105"/>
    <g id="text_26">
     <!-- 1000 -->
     <g transform="translate(548.743125 201.342812)scale(0.1 -0.1)">
      <use xlink:href="#DejaVuSans-49"/>
      <use x="63.623047" xlink:href="#DejaVuSans-48"/>
      <use x="127.246094" xlink:href="#DejaVuSans-48"/>
      <use x="190.869141" xlink:href="#DejaVuSans-48"/>
     </g>
    </g>
    <g id="line2d_106">
     <path d="M 520.743125 212.520937 
L 540.743125 212.520937 
" style="fill:none;stroke:#000000;stroke-dasharray:9.6,2.4,1.5,2.4;stroke-dashoffset:0;stroke-width:1.5;"/>
    </g>
    <g id="line2d_107"/>
    <g id="text_27">
     <!-- 5000 -->
     <g transform="translate(548.743125 216.020937)scale(0.1 -0.1)">
      <use xlink:href="#DejaVuSans-53"/>
      <use x="63.623047" xlink:href="#DejaVuSans-48"/>
      <use x="127.246094" xlink:href="#DejaVuSans-48"/>
      <use x="190.869141" xlink:href="#DejaVuSans-48"/>
     </g>
    </g>
    <g id="line2d_108">
     <path d="M 520.743125 227.199062 
L 540.743125 227.199062 
" style="fill:none;stroke:#000000;stroke-dasharray:9.6,2.4,1.5,2.4;stroke-dashoffset:0;stroke-width:1.5;"/>
    </g>
    <g id="line2d_109"/>
    <g id="text_28">
     <!-- 10000 -->
     <g transform="translate(548.743125 230.699062)scale(0.1 -0.1)">
      <use xlink:href="#DejaVuSans-49"/>
      <use x="63.623047" xlink:href="#DejaVuSans-48"/>
      <use x="127.246094" xlink:href="#DejaVuSans-48"/>
      <use x="190.869141" xlink:href="#DejaVuSans-48"/>
      <use x="254.492188" xlink:href="#DejaVuSans-48"/>
     </g>
    </g>
   </g>
  </g>
 </g>
 <defs>
  <clipPath id="p924deef701">
   <rect height="380.52" width="390.6" x="121.143125" y="52.64125"/>
  </clipPath>
 </defs>
</svg>
