<?xml version="1.0" encoding="utf-8" standalone="no"?>
<!DOCTYPE svg PUBLIC "-//W3C//DTD SVG 1.1//EN"
  "http://www.w3.org/Graphics/SVG/1.1/DTD/svg11.dtd">
<!-- Created with matplotlib (https://matplotlib.org/) -->
<svg height="504.658125pt" version="1.1" viewBox="0 0 582.2025 504.658125" width="582.2025pt" xmlns="http://www.w3.org/2000/svg" xmlns:xlink="http://www.w3.org/1999/xlink">
 <defs>
  <style type="text/css">
*{stroke-linecap:butt;stroke-linejoin:round;}
  </style>
 </defs>
 <g id="figure_1">
  <g id="patch_1">
   <path d="M 0 504.658125 
L 582.2025 504.658125 
L 582.2025 -0 
L 0 -0 
z
" style="fill:#ffffff;"/>
  </g>
  <g id="axes_1">
   <g id="patch_2">
    <path d="M 111.59 433.16125 
L 502.19 433.16125 
L 502.19 52.64125 
L 111.59 52.64125 
z
" style="fill:#ffffff;"/>
   </g>
   <g id="matplotlib.axis_1">
    <g id="xtick_1">
     <g id="line2d_1">
      <defs>
       <path d="M 0 0 
L 0 3.5 
" id="m1fe1f7646d" style="stroke:#000000;stroke-width:0.8;"/>
      </defs>
      <g>
       <use style="stroke:#000000;stroke-width:0.8;" x="158.935455" xlink:href="#m1fe1f7646d" y="433.16125"/>
      </g>
     </g>
     <g id="text_1">
      <!-- 5 -->
      <defs>
       <path d="M 10.796875 72.90625 
L 49.515625 72.90625 
L 49.515625 64.59375 
L 19.828125 64.59375 
L 19.828125 46.734375 
Q 21.96875 47.46875 24.109375 47.828125 
Q 26.265625 48.1875 28.421875 48.1875 
Q 40.625 48.1875 47.75 41.5 
Q 54.890625 34.8125 54.890625 23.390625 
Q 54.890625 11.625 47.5625 5.09375 
Q 40.234375 -1.421875 26.90625 -1.421875 
Q 22.3125 -1.421875 17.546875 -0.640625 
Q 12.796875 0.140625 7.71875 1.703125 
L 7.71875 11.625 
Q 12.109375 9.234375 16.796875 8.0625 
Q 21.484375 6.890625 26.703125 6.890625 
Q 35.15625 6.890625 40.078125 11.328125 
Q 45.015625 15.765625 45.015625 23.390625 
Q 45.015625 31 40.078125 35.4375 
Q 35.15625 39.890625 26.703125 39.890625 
Q 22.75 39.890625 18.8125 39.015625 
Q 14.890625 38.140625 10.796875 36.28125 
z
" id="DejaVuSans-53"/>
      </defs>
      <g transform="translate(149.391705 462.956562)scale(0.3 -0.3)">
       <use xlink:href="#DejaVuSans-53"/>
      </g>
     </g>
    </g>
    <g id="xtick_2">
     <g id="line2d_2">
      <g>
       <use style="stroke:#000000;stroke-width:0.8;" x="218.117273" xlink:href="#m1fe1f7646d" y="433.16125"/>
      </g>
     </g>
     <g id="text_2">
      <!-- 10 -->
      <defs>
       <path d="M 12.40625 8.296875 
L 28.515625 8.296875 
L 28.515625 63.921875 
L 10.984375 60.40625 
L 10.984375 69.390625 
L 28.421875 72.90625 
L 38.28125 72.90625 
L 38.28125 8.296875 
L 54.390625 8.296875 
L 54.390625 0 
L 12.40625 0 
z
" id="DejaVuSans-49"/>
       <path d="M 31.78125 66.40625 
Q 24.171875 66.40625 20.328125 58.90625 
Q 16.5 51.421875 16.5 36.375 
Q 16.5 21.390625 20.328125 13.890625 
Q 24.171875 6.390625 31.78125 6.390625 
Q 39.453125 6.390625 43.28125 13.890625 
Q 47.125 21.390625 47.125 36.375 
Q 47.125 51.421875 43.28125 58.90625 
Q 39.453125 66.40625 31.78125 66.40625 
z
M 31.78125 74.21875 
Q 44.046875 74.21875 50.515625 64.515625 
Q 56.984375 54.828125 56.984375 36.375 
Q 56.984375 17.96875 50.515625 8.265625 
Q 44.046875 -1.421875 31.78125 -1.421875 
Q 19.53125 -1.421875 13.0625 8.265625 
Q 6.59375 17.96875 6.59375 36.375 
Q 6.59375 54.828125 13.0625 64.515625 
Q 19.53125 74.21875 31.78125 74.21875 
z
" id="DejaVuSans-48"/>
      </defs>
      <g transform="translate(199.029773 462.956562)scale(0.3 -0.3)">
       <use xlink:href="#DejaVuSans-49"/>
       <use x="63.623047" xlink:href="#DejaVuSans-48"/>
      </g>
     </g>
    </g>
    <g id="xtick_3">
     <g id="line2d_3">
      <g>
       <use style="stroke:#000000;stroke-width:0.8;" x="277.299091" xlink:href="#m1fe1f7646d" y="433.16125"/>
      </g>
     </g>
     <g id="text_3">
      <!-- 15 -->
      <g transform="translate(258.211591 462.956562)scale(0.3 -0.3)">
       <use xlink:href="#DejaVuSans-49"/>
       <use x="63.623047" xlink:href="#DejaVuSans-53"/>
      </g>
     </g>
    </g>
    <g id="xtick_4">
     <g id="line2d_4">
      <g>
       <use style="stroke:#000000;stroke-width:0.8;" x="336.480909" xlink:href="#m1fe1f7646d" y="433.16125"/>
      </g>
     </g>
     <g id="text_4">
      <!-- 20 -->
      <defs>
       <path d="M 19.1875 8.296875 
L 53.609375 8.296875 
L 53.609375 0 
L 7.328125 0 
L 7.328125 8.296875 
Q 12.9375 14.109375 22.625 23.890625 
Q 32.328125 33.6875 34.8125 36.53125 
Q 39.546875 41.84375 41.421875 45.53125 
Q 43.3125 49.21875 43.3125 52.78125 
Q 43.3125 58.59375 39.234375 62.25 
Q 35.15625 65.921875 28.609375 65.921875 
Q 23.96875 65.921875 18.8125 64.3125 
Q 13.671875 62.703125 7.8125 59.421875 
L 7.8125 69.390625 
Q 13.765625 71.78125 18.9375 73 
Q 24.125 74.21875 28.421875 74.21875 
Q 39.75 74.21875 46.484375 68.546875 
Q 53.21875 62.890625 53.21875 53.421875 
Q 53.21875 48.921875 51.53125 44.890625 
Q 49.859375 40.875 45.40625 35.40625 
Q 44.1875 33.984375 37.640625 27.21875 
Q 31.109375 20.453125 19.1875 8.296875 
z
" id="DejaVuSans-50"/>
      </defs>
      <g transform="translate(317.393409 462.956562)scale(0.3 -0.3)">
       <use xlink:href="#DejaVuSans-50"/>
       <use x="63.623047" xlink:href="#DejaVuSans-48"/>
      </g>
     </g>
    </g>
    <g id="xtick_5">
     <g id="line2d_5">
      <g>
       <use style="stroke:#000000;stroke-width:0.8;" x="395.662727" xlink:href="#m1fe1f7646d" y="433.16125"/>
      </g>
     </g>
     <g id="text_5">
      <!-- 25 -->
      <g transform="translate(376.575227 462.956562)scale(0.3 -0.3)">
       <use xlink:href="#DejaVuSans-50"/>
       <use x="63.623047" xlink:href="#DejaVuSans-53"/>
      </g>
     </g>
    </g>
    <g id="xtick_6">
     <g id="line2d_6">
      <g>
       <use style="stroke:#000000;stroke-width:0.8;" x="454.844545" xlink:href="#m1fe1f7646d" y="433.16125"/>
      </g>
     </g>
     <g id="text_6">
      <!-- 30 -->
      <defs>
       <path d="M 40.578125 39.3125 
Q 47.65625 37.796875 51.625 33 
Q 55.609375 28.21875 55.609375 21.1875 
Q 55.609375 10.40625 48.1875 4.484375 
Q 40.765625 -1.421875 27.09375 -1.421875 
Q 22.515625 -1.421875 17.65625 -0.515625 
Q 12.796875 0.390625 7.625 2.203125 
L 7.625 11.71875 
Q 11.71875 9.328125 16.59375 8.109375 
Q 21.484375 6.890625 26.8125 6.890625 
Q 36.078125 6.890625 40.9375 10.546875 
Q 45.796875 14.203125 45.796875 21.1875 
Q 45.796875 27.640625 41.28125 31.265625 
Q 36.765625 34.90625 28.71875 34.90625 
L 20.21875 34.90625 
L 20.21875 43.015625 
L 29.109375 43.015625 
Q 36.375 43.015625 40.234375 45.921875 
Q 44.09375 48.828125 44.09375 54.296875 
Q 44.09375 59.90625 40.109375 62.90625 
Q 36.140625 65.921875 28.71875 65.921875 
Q 24.65625 65.921875 20.015625 65.03125 
Q 15.375 64.15625 9.8125 62.3125 
L 9.8125 71.09375 
Q 15.4375 72.65625 20.34375 73.4375 
Q 25.25 74.21875 29.59375 74.21875 
Q 40.828125 74.21875 47.359375 69.109375 
Q 53.90625 64.015625 53.90625 55.328125 
Q 53.90625 49.265625 50.4375 45.09375 
Q 46.96875 40.921875 40.578125 39.3125 
z
" id="DejaVuSans-51"/>
      </defs>
      <g transform="translate(435.757045 462.956562)scale(0.3 -0.3)">
       <use xlink:href="#DejaVuSans-51"/>
       <use x="63.623047" xlink:href="#DejaVuSans-48"/>
      </g>
     </g>
    </g>
    <g id="text_7">
     <!-- RADIUS -->
     <defs>
      <path d="M 7.328125 0 
L 7.328125 71.578125 
L 37.75 71.578125 
Q 49.21875 71.578125 54.421875 69.640625 
Q 59.625 67.71875 62.75 62.78125 
Q 65.875 57.859375 65.875 51.515625 
Q 65.875 43.453125 61.125 38.203125 
Q 56.390625 32.953125 46.96875 31.59375 
Q 51.65625 28.859375 54.703125 25.578125 
Q 57.765625 22.3125 62.9375 13.96875 
L 71.6875 0 
L 54.390625 0 
L 43.953125 15.578125 
Q 38.375 23.921875 36.328125 26.09375 
Q 34.28125 28.265625 31.984375 29.078125 
Q 29.6875 29.890625 24.703125 29.890625 
L 21.78125 29.890625 
L 21.78125 0 
z
M 21.78125 41.3125 
L 32.46875 41.3125 
Q 42.875 41.3125 45.453125 42.1875 
Q 48.046875 43.0625 49.515625 45.203125 
Q 50.984375 47.359375 50.984375 50.59375 
Q 50.984375 54.203125 49.046875 56.421875 
Q 47.125 58.640625 43.609375 59.234375 
Q 41.84375 59.46875 33.0625 59.46875 
L 21.78125 59.46875 
z
" id="Arial-BoldMT-82"/>
      <path d="M 71.828125 0 
L 56.109375 0 
L 49.859375 16.265625 
L 21.234375 16.265625 
L 15.328125 0 
L 0 0 
L 27.875 71.578125 
L 43.171875 71.578125 
z
M 45.21875 28.328125 
L 35.359375 54.890625 
L 25.6875 28.328125 
z
" id="Arial-BoldMT-65"/>
      <path d="M 7.234375 71.578125 
L 33.640625 71.578125 
Q 42.578125 71.578125 47.265625 70.21875 
Q 53.5625 68.359375 58.046875 63.625 
Q 62.546875 58.890625 64.890625 52.03125 
Q 67.234375 45.171875 67.234375 35.109375 
Q 67.234375 26.265625 65.046875 19.875 
Q 62.359375 12.0625 57.375 7.234375 
Q 53.609375 3.5625 47.21875 1.515625 
Q 42.4375 0 34.421875 0 
L 7.234375 0 
z
M 21.6875 59.46875 
L 21.6875 12.0625 
L 32.46875 12.0625 
Q 38.53125 12.0625 41.21875 12.75 
Q 44.734375 13.625 47.046875 15.71875 
Q 49.359375 17.828125 50.828125 22.625 
Q 52.296875 27.4375 52.296875 35.75 
Q 52.296875 44.046875 50.828125 48.484375 
Q 49.359375 52.9375 46.71875 55.421875 
Q 44.09375 57.90625 40.046875 58.796875 
Q 37.015625 59.46875 28.171875 59.46875 
z
" id="Arial-BoldMT-68"/>
      <path d="M 6.84375 0 
L 6.84375 71.578125 
L 21.296875 71.578125 
L 21.296875 0 
z
" id="Arial-BoldMT-73"/>
      <path d="M 7.171875 71.578125 
L 21.625 71.578125 
L 21.625 32.8125 
Q 21.625 23.578125 22.171875 20.84375 
Q 23.09375 16.453125 26.578125 13.796875 
Q 30.078125 11.140625 36.140625 11.140625 
Q 42.28125 11.140625 45.40625 13.640625 
Q 48.53125 16.15625 49.171875 19.8125 
Q 49.8125 23.484375 49.8125 31.984375 
L 49.8125 71.578125 
L 64.265625 71.578125 
L 64.265625 33.984375 
Q 64.265625 21.09375 63.09375 15.765625 
Q 61.921875 10.453125 58.765625 6.78125 
Q 55.609375 3.125 50.328125 0.953125 
Q 45.0625 -1.21875 36.578125 -1.21875 
Q 26.3125 -1.21875 21.015625 1.140625 
Q 15.71875 3.515625 12.640625 7.296875 
Q 9.578125 11.078125 8.59375 15.234375 
Q 7.171875 21.390625 7.171875 33.40625 
z
" id="Arial-BoldMT-85"/>
      <path d="M 3.609375 23.296875 
L 17.671875 24.65625 
Q 18.953125 17.578125 22.828125 14.25 
Q 26.703125 10.9375 33.296875 10.9375 
Q 40.28125 10.9375 43.8125 13.890625 
Q 47.359375 16.84375 47.359375 20.796875 
Q 47.359375 23.34375 45.875 25.125 
Q 44.390625 26.90625 40.671875 28.21875 
Q 38.140625 29.109375 29.109375 31.34375 
Q 17.484375 34.234375 12.796875 38.421875 
Q 6.203125 44.34375 6.203125 52.828125 
Q 6.203125 58.296875 9.296875 63.0625 
Q 12.40625 67.828125 18.234375 70.3125 
Q 24.078125 72.796875 32.328125 72.796875 
Q 45.796875 72.796875 52.609375 66.890625 
Q 59.421875 60.984375 59.765625 51.125 
L 45.3125 50.484375 
Q 44.390625 56 41.328125 58.421875 
Q 38.28125 60.84375 32.171875 60.84375 
Q 25.875 60.84375 22.3125 58.25 
Q 20.015625 56.59375 20.015625 53.8125 
Q 20.015625 51.265625 22.171875 49.46875 
Q 24.90625 47.171875 35.453125 44.671875 
Q 46 42.1875 51.046875 39.515625 
Q 56.109375 36.859375 58.953125 32.25 
Q 61.8125 27.640625 61.8125 20.84375 
Q 61.8125 14.703125 58.390625 9.328125 
Q 54.984375 3.953125 48.734375 1.34375 
Q 42.484375 -1.265625 33.15625 -1.265625 
Q 19.578125 -1.265625 12.296875 5 
Q 5.03125 11.28125 3.609375 23.296875 
z
" id="Arial-BoldMT-83"/>
     </defs>
     <g transform="translate(268.554062 493.51125)scale(0.2 -0.2)">
      <use xlink:href="#Arial-BoldMT-82"/>
      <use x="72.216797" xlink:href="#Arial-BoldMT-65"/>
      <use x="144.433594" xlink:href="#Arial-BoldMT-68"/>
      <use x="216.650391" xlink:href="#Arial-BoldMT-73"/>
      <use x="244.433594" xlink:href="#Arial-BoldMT-85"/>
      <use x="316.650391" xlink:href="#Arial-BoldMT-83"/>
     </g>
    </g>
   </g>
   <g id="matplotlib.axis_2">
    <g id="ytick_1">
     <g id="line2d_7">
      <defs>
       <path d="M 0 0 
L -3.5 0 
" id="m5aa90673cf" style="stroke:#000000;stroke-width:0.8;"/>
      </defs>
      <g>
       <use style="stroke:#000000;stroke-width:0.8;" x="111.59" xlink:href="#m5aa90673cf" y="433.16125"/>
      </g>
     </g>
     <g id="text_8">
      <!-- 0.0 -->
      <defs>
       <path d="M 10.6875 12.40625 
L 21 12.40625 
L 21 0 
L 10.6875 0 
z
" id="DejaVuSans-46"/>
      </defs>
      <g transform="translate(56.880625 444.558906)scale(0.3 -0.3)">
       <use xlink:href="#DejaVuSans-48"/>
       <use x="63.623047" xlink:href="#DejaVuSans-46"/>
       <use x="95.410156" xlink:href="#DejaVuSans-48"/>
      </g>
     </g>
    </g>
    <g id="ytick_2">
     <g id="line2d_8">
      <g>
       <use style="stroke:#000000;stroke-width:0.8;" x="111.59" xlink:href="#m5aa90673cf" y="369.74125"/>
      </g>
     </g>
     <g id="text_9">
      <!-- 0.5 -->
      <g transform="translate(56.880625 381.138906)scale(0.3 -0.3)">
       <use xlink:href="#DejaVuSans-48"/>
       <use x="63.623047" xlink:href="#DejaVuSans-46"/>
       <use x="95.410156" xlink:href="#DejaVuSans-53"/>
      </g>
     </g>
    </g>
    <g id="ytick_3">
     <g id="line2d_9">
      <g>
       <use style="stroke:#000000;stroke-width:0.8;" x="111.59" xlink:href="#m5aa90673cf" y="306.32125"/>
      </g>
     </g>
     <g id="text_10">
      <!-- 1.0 -->
      <g transform="translate(56.880625 317.718906)scale(0.3 -0.3)">
       <use xlink:href="#DejaVuSans-49"/>
       <use x="63.623047" xlink:href="#DejaVuSans-46"/>
       <use x="95.410156" xlink:href="#DejaVuSans-48"/>
      </g>
     </g>
    </g>
    <g id="ytick_4">
     <g id="line2d_10">
      <g>
       <use style="stroke:#000000;stroke-width:0.8;" x="111.59" xlink:href="#m5aa90673cf" y="242.90125"/>
      </g>
     </g>
     <g id="text_11">
      <!-- 1.5 -->
      <g transform="translate(56.880625 254.298906)scale(0.3 -0.3)">
       <use xlink:href="#DejaVuSans-49"/>
       <use x="63.623047" xlink:href="#DejaVuSans-46"/>
       <use x="95.410156" xlink:href="#DejaVuSans-53"/>
      </g>
     </g>
    </g>
    <g id="ytick_5">
     <g id="line2d_11">
      <g>
       <use style="stroke:#000000;stroke-width:0.8;" x="111.59" xlink:href="#m5aa90673cf" y="179.48125"/>
      </g>
     </g>
     <g id="text_12">
      <!-- 2.0 -->
      <g transform="translate(56.880625 190.878906)scale(0.3 -0.3)">
       <use xlink:href="#DejaVuSans-50"/>
       <use x="63.623047" xlink:href="#DejaVuSans-46"/>
       <use x="95.410156" xlink:href="#DejaVuSans-48"/>
      </g>
     </g>
    </g>
    <g id="ytick_6">
     <g id="line2d_12">
      <g>
       <use style="stroke:#000000;stroke-width:0.8;" x="111.59" xlink:href="#m5aa90673cf" y="116.06125"/>
      </g>
     </g>
     <g id="text_13">
      <!-- 2.5 -->
      <g transform="translate(56.880625 127.458906)scale(0.3 -0.3)">
       <use xlink:href="#DejaVuSans-50"/>
       <use x="63.623047" xlink:href="#DejaVuSans-46"/>
       <use x="95.410156" xlink:href="#DejaVuSans-53"/>
      </g>
     </g>
    </g>
    <g id="ytick_7">
     <g id="line2d_13">
      <g>
       <use style="stroke:#000000;stroke-width:0.8;" x="111.59" xlink:href="#m5aa90673cf" y="52.64125"/>
      </g>
     </g>
     <g id="text_14">
      <!-- 3.0 -->
      <g transform="translate(56.880625 64.038906)scale(0.3 -0.3)">
       <use xlink:href="#DejaVuSans-51"/>
       <use x="63.623047" xlink:href="#DejaVuSans-46"/>
       <use x="95.410156" xlink:href="#DejaVuSans-48"/>
      </g>
     </g>
    </g>
    <g id="text_15">
     <!-- CANCER NORMALIZED -->
     <defs>
      <path d="M 53.078125 26.3125 
L 67.09375 21.875 
Q 63.875 10.15625 56.375 4.46875 
Q 48.875 -1.21875 37.359375 -1.21875 
Q 23.09375 -1.21875 13.90625 8.515625 
Q 4.734375 18.265625 4.734375 35.15625 
Q 4.734375 53.03125 13.953125 62.90625 
Q 23.1875 72.796875 38.234375 72.796875 
Q 51.375 72.796875 59.578125 65.046875 
Q 64.453125 60.453125 66.890625 51.859375 
L 52.59375 48.4375 
Q 51.3125 54 47.28125 57.21875 
Q 43.265625 60.453125 37.5 60.453125 
Q 29.546875 60.453125 24.578125 54.734375 
Q 19.625 49.03125 19.625 36.234375 
Q 19.625 22.65625 24.5 16.890625 
Q 29.390625 11.140625 37.203125 11.140625 
Q 42.96875 11.140625 47.109375 14.796875 
Q 51.265625 18.453125 53.078125 26.3125 
z
" id="Arial-BoldMT-67"/>
      <path d="M 7.421875 0 
L 7.421875 71.578125 
L 21.484375 71.578125 
L 50.78125 23.78125 
L 50.78125 71.578125 
L 64.203125 71.578125 
L 64.203125 0 
L 49.703125 0 
L 20.84375 46.6875 
L 20.84375 0 
z
" id="Arial-BoldMT-78"/>
      <path d="M 7.28125 0 
L 7.28125 71.578125 
L 60.359375 71.578125 
L 60.359375 59.46875 
L 21.734375 59.46875 
L 21.734375 43.609375 
L 57.671875 43.609375 
L 57.671875 31.546875 
L 21.734375 31.546875 
L 21.734375 12.0625 
L 61.71875 12.0625 
L 61.71875 0 
z
" id="Arial-BoldMT-69"/>
      <path id="Arial-BoldMT-32"/>
      <path d="M 4.34375 35.359375 
Q 4.34375 46.296875 7.625 53.71875 
Q 10.0625 59.1875 14.28125 63.53125 
Q 18.5 67.875 23.53125 69.96875 
Q 30.21875 72.796875 38.96875 72.796875 
Q 54.78125 72.796875 64.28125 62.984375 
Q 73.78125 53.171875 73.78125 35.6875 
Q 73.78125 18.359375 64.359375 8.5625 
Q 54.9375 -1.21875 39.15625 -1.21875 
Q 23.1875 -1.21875 13.765625 8.515625 
Q 4.34375 18.265625 4.34375 35.359375 
z
M 19.234375 35.84375 
Q 19.234375 23.6875 24.84375 17.40625 
Q 30.46875 11.140625 39.109375 11.140625 
Q 47.75 11.140625 53.296875 17.359375 
Q 58.84375 23.578125 58.84375 36.03125 
Q 58.84375 48.34375 53.4375 54.390625 
Q 48.046875 60.453125 39.109375 60.453125 
Q 30.171875 60.453125 24.703125 54.3125 
Q 19.234375 48.1875 19.234375 35.84375 
z
" id="Arial-BoldMT-79"/>
      <path d="M 7.078125 0 
L 7.078125 71.578125 
L 28.71875 71.578125 
L 41.703125 22.75 
L 54.546875 71.578125 
L 76.21875 71.578125 
L 76.21875 0 
L 62.796875 0 
L 62.796875 56.34375 
L 48.578125 0 
L 34.671875 0 
L 20.515625 56.34375 
L 20.515625 0 
z
" id="Arial-BoldMT-77"/>
      <path d="M 7.671875 0 
L 7.671875 71 
L 22.125 71 
L 22.125 12.0625 
L 58.0625 12.0625 
L 58.0625 0 
z
" id="Arial-BoldMT-76"/>
      <path d="M 1.078125 0 
L 1.078125 13.03125 
L 38.671875 59.46875 
L 5.328125 59.46875 
L 5.328125 71.578125 
L 57.71875 71.578125 
L 57.71875 60.359375 
L 18.5 12.0625 
L 59.234375 12.0625 
L 59.234375 0 
z
" id="Arial-BoldMT-90"/>
     </defs>
     <g transform="translate(21.253125 355.118437)rotate(-90)scale(0.2 -0.2)">
      <use xlink:href="#Arial-BoldMT-67"/>
      <use x="72.216797" xlink:href="#Arial-BoldMT-65"/>
      <use x="144.433594" xlink:href="#Arial-BoldMT-78"/>
      <use x="216.650391" xlink:href="#Arial-BoldMT-67"/>
      <use x="288.867188" xlink:href="#Arial-BoldMT-69"/>
      <use x="355.566406" xlink:href="#Arial-BoldMT-82"/>
      <use x="427.783203" xlink:href="#Arial-BoldMT-32"/>
      <use x="455.566406" xlink:href="#Arial-BoldMT-78"/>
      <use x="527.783203" xlink:href="#Arial-BoldMT-79"/>
      <use x="605.566406" xlink:href="#Arial-BoldMT-82"/>
      <use x="677.783203" xlink:href="#Arial-BoldMT-77"/>
      <use x="761.083984" xlink:href="#Arial-BoldMT-65"/>
      <use x="833.300781" xlink:href="#Arial-BoldMT-76"/>
      <use x="894.384766" xlink:href="#Arial-BoldMT-73"/>
      <use x="922.167969" xlink:href="#Arial-BoldMT-90"/>
      <use x="983.251953" xlink:href="#Arial-BoldMT-69"/>
      <use x="1049.951172" xlink:href="#Arial-BoldMT-68"/>
     </g>
     <!-- CELL COUNTS (NUMBERS) -->
     <defs>
      <path d="M 23.390625 0 
L 23.390625 59.46875 
L 2.15625 59.46875 
L 2.15625 71.578125 
L 59.03125 71.578125 
L 59.03125 59.46875 
L 37.84375 59.46875 
L 37.84375 0 
z
" id="Arial-BoldMT-84"/>
      <path d="M 29.9375 -21.046875 
L 20.515625 -21.046875 
Q 13.03125 -9.765625 9.125 2.390625 
Q 5.21875 14.546875 5.21875 25.921875 
Q 5.21875 40.046875 10.0625 52.640625 
Q 14.265625 63.578125 20.703125 72.796875 
L 30.078125 72.796875 
Q 23.390625 58.015625 20.875 47.625 
Q 18.359375 37.25 18.359375 25.640625 
Q 18.359375 17.625 19.84375 9.21875 
Q 21.34375 0.828125 23.921875 -6.734375 
Q 25.640625 -11.71875 29.9375 -21.046875 
z
" id="Arial-BoldMT-40"/>
      <path d="M 7.328125 71.578125 
L 35.9375 71.578125 
Q 44.4375 71.578125 48.609375 70.875 
Q 52.78125 70.171875 56.078125 67.921875 
Q 59.375 65.671875 61.5625 61.9375 
Q 63.765625 58.203125 63.765625 53.5625 
Q 63.765625 48.53125 61.046875 44.328125 
Q 58.34375 40.140625 53.71875 38.03125 
Q 60.25 36.140625 63.765625 31.546875 
Q 67.28125 26.953125 67.28125 20.75 
Q 67.28125 15.875 65.015625 11.25 
Q 62.75 6.640625 58.8125 3.875 
Q 54.890625 1.125 49.125 0.484375 
Q 45.515625 0.09375 31.6875 0 
L 7.328125 0 
z
M 21.78125 59.671875 
L 21.78125 43.109375 
L 31.25 43.109375 
Q 39.703125 43.109375 41.75 43.359375 
Q 45.453125 43.796875 47.578125 45.921875 
Q 49.703125 48.046875 49.703125 51.515625 
Q 49.703125 54.828125 47.875 56.90625 
Q 46.046875 58.984375 42.4375 59.421875 
Q 40.28125 59.671875 30.078125 59.671875 
z
M 21.78125 31.203125 
L 21.78125 12.0625 
L 35.15625 12.0625 
Q 42.96875 12.0625 45.0625 12.5 
Q 48.296875 13.09375 50.3125 15.359375 
Q 52.34375 17.625 52.34375 21.4375 
Q 52.34375 24.65625 50.78125 26.90625 
Q 49.21875 29.15625 46.265625 30.171875 
Q 43.3125 31.203125 33.453125 31.203125 
z
" id="Arial-BoldMT-66"/>
      <path d="M 3.375 -21.046875 
Q 7.421875 -12.359375 9.078125 -7.71875 
Q 10.75 -3.078125 12.15625 2.96875 
Q 13.578125 9.03125 14.25 14.46875 
Q 14.9375 19.921875 14.9375 25.640625 
Q 14.9375 37.25 12.453125 47.625 
Q 9.96875 58.015625 3.265625 72.796875 
L 12.59375 72.796875 
Q 19.96875 62.3125 24.046875 50.53125 
Q 28.125 38.765625 28.125 26.65625 
Q 28.125 16.453125 24.90625 4.78125 
Q 21.234375 -8.296875 12.84375 -21.046875 
z
" id="Arial-BoldMT-41"/>
     </defs>
     <g transform="translate(42.67125 374.002812)rotate(-90)scale(0.2 -0.2)">
      <use xlink:href="#Arial-BoldMT-67"/>
      <use x="72.216797" xlink:href="#Arial-BoldMT-69"/>
      <use x="138.916016" xlink:href="#Arial-BoldMT-76"/>
      <use x="200" xlink:href="#Arial-BoldMT-76"/>
      <use x="261.068359" xlink:href="#Arial-BoldMT-32"/>
      <use x="288.851562" xlink:href="#Arial-BoldMT-67"/>
      <use x="361.068359" xlink:href="#Arial-BoldMT-79"/>
      <use x="438.851562" xlink:href="#Arial-BoldMT-85"/>
      <use x="511.068359" xlink:href="#Arial-BoldMT-78"/>
      <use x="583.285156" xlink:href="#Arial-BoldMT-84"/>
      <use x="644.369141" xlink:href="#Arial-BoldMT-83"/>
      <use x="711.068359" xlink:href="#Arial-BoldMT-32"/>
      <use x="738.851562" xlink:href="#Arial-BoldMT-40"/>
      <use x="772.152344" xlink:href="#Arial-BoldMT-78"/>
      <use x="844.369141" xlink:href="#Arial-BoldMT-85"/>
      <use x="916.585938" xlink:href="#Arial-BoldMT-77"/>
      <use x="999.886719" xlink:href="#Arial-BoldMT-66"/>
      <use x="1072.103516" xlink:href="#Arial-BoldMT-69"/>
      <use x="1138.802734" xlink:href="#Arial-BoldMT-82"/>
      <use x="1211.019531" xlink:href="#Arial-BoldMT-83"/>
      <use x="1277.71875" xlink:href="#Arial-BoldMT-41"/>
     </g>
    </g>
   </g>
   <g id="line2d_14">
    <path clip-path="url(#p1ea613ece2)" d="M 111.59 179.48125 
L 123.426364 242.90125 
L 135.262727 306.32125 
L 147.099091 306.32125 
L 158.935455 279.89625 
L 170.771818 323.23325 
L 182.608182 345.077917 
L 194.444545 321.42125 
L 206.280909 332.74625 
L 218.117273 332.159028 
L 229.953636 327.46125 
L 241.79 344.757614 
L 253.626364 343.31625 
L 265.462727 351.853558 
L 277.299091 351.62125 
L 289.135455 345.782583 
L 300.971818 359.17125 
L 312.808182 361.036544 
L 324.644545 349.775694 
L 336.480909 356.389671 
L 348.317273 359.17125 
L 360.153636 353.634583 
L 371.99 362.053977 
L 383.826364 357.792554 
L 395.662727 347.720417 
L 407.499091 351.98365 
L 419.335455 333.965865 
L 431.171818 343.903472 
L 443.008182 339.54125 
L 454.844545 347.872284 
L 466.680909 356.352583 
L 478.517273 375.878669 
L 490.353636 389.56 
L 502.19 390.240644 
" style="fill:none;stroke:#08306b;stroke-linecap:square;stroke-width:1.5;"/>
   </g>
   <g id="line2d_15">
    <path clip-path="url(#p1ea613ece2)" d="M 111.59 52.64125 
L 123.426364 264.04125 
L 135.262727 253.47125 
L 147.099091 285.18125 
L 158.935455 306.32125 
L 170.771818 331.68925 
L 182.608182 316.89125 
L 194.444545 330.48125 
L 206.280909 335.38875 
L 218.117273 322.763472 
L 229.953636 342.25925 
L 241.79 354.366705 
L 253.626364 355.647917 
L 265.462727 376.245865 
L 277.299091 365.21125 
L 289.135455 358.466583 
L 300.971818 353.88625 
L 312.808182 352.331838 
L 324.644545 340.380139 
L 336.480909 357.502303 
L 348.317273 347.54425 
L 360.153636 358.667917 
L 371.99 354.366705 
L 383.826364 352.277772 
L 395.662727 347.720417 
L 407.499091 343.52765 
L 419.335455 338.844327 
L 431.171818 340.77162 
L 443.008182 341.05125 
L 454.844545 344.956422 
L 466.680909 359.17125 
L 478.517273 380.652218 
L 490.353636 394.845 
L 502.19 391.521856 
" style="fill:none;stroke:#08306b;stroke-linecap:square;stroke-width:1.5;"/>
   </g>
   <g id="line2d_16">
    <path clip-path="url(#p1ea613ece2)" d="M 111.59 306.32125 
L 123.426364 369.74125 
L 135.262727 285.18125 
L 147.099091 306.32125 
L 158.935455 322.17625 
L 170.771818 340.14525 
L 182.608182 345.077917 
L 194.444545 336.52125 
L 206.280909 351.24375 
L 218.117273 357.996806 
L 229.953636 342.25925 
L 241.79 354.366705 
L 253.626364 345.077917 
L 265.462727 333.965865 
L 277.299091 341.05125 
L 289.135455 344.37325 
L 300.971818 352.565 
L 312.808182 354.818897 
L 324.644545 361.520139 
L 336.480909 345.263355 
L 348.317273 344.37325 
L 360.153636 344.574583 
L 371.99 344.757614 
L 383.826364 343.086467 
L 395.662727 339.792917 
L 407.499091 348.60125 
L 419.335455 353.479712 
L 431.171818 361.91162 
L 443.008182 351.62125 
L 454.844545 354.432974 
L 466.680909 369.036583 
L 478.517273 376.560605 
L 490.353636 404.09375 
L 502.19 399.849735 
" style="fill:none;stroke:#08306b;stroke-linecap:square;stroke-width:1.5;"/>
   </g>
   <g id="line2d_17">
    <path clip-path="url(#p1ea613ece2)" d="M 111.59 179.48125 
L 123.426364 306.32125 
L 135.262727 295.75125 
L 147.099091 369.74125 
L 158.935455 369.74125 
L 170.771818 378.19725 
L 182.608182 359.17125 
L 194.444545 339.54125 
L 206.280909 335.38875 
L 218.117273 329.810139 
L 229.953636 352.82925 
L 241.79 337.070341 
L 253.626364 343.31625 
L 265.462727 343.722788 
L 277.299091 338.03125 
L 289.135455 338.735917 
L 300.971818 341.995 
L 312.808182 359.793015 
L 324.644545 350.950139 
L 336.480909 340.812829 
L 348.317273 350.71525 
L 360.153636 336.52125 
L 371.99 333.226705 
L 383.826364 335.733424 
L 395.662727 331.865417 
L 407.499091 335.91725 
L 419.335455 334.778942 
L 431.171818 350.167176 
L 443.008182 353.88625 
L 454.844545 354.432974 
L 466.680909 361.28525 
L 478.517273 383.37996 
L 490.353636 396.16625 
L 502.19 392.803068 
" style="fill:none;stroke:#08306b;stroke-linecap:square;stroke-width:1.5;"/>
   </g>
   <g id="line2d_18">
    <path clip-path="url(#p1ea613ece2)" d="M 111.59 433.16125 
L 123.426364 390.88125 
L 135.262727 359.17125 
L 147.099091 376.787917 
L 158.935455 343.31625 
L 170.771818 331.68925 
L 182.608182 316.89125 
L 194.444545 324.44125 
L 206.280909 301.03625 
L 218.117273 320.414583 
L 229.953636 310.54925 
L 241.79 325.539432 
L 253.626364 334.507917 
L 265.462727 346.975096 
L 277.299091 351.62125 
L 289.135455 350.010583 
L 300.971818 356.52875 
L 312.808182 354.818897 
L 324.644545 363.869028 
L 336.480909 344.150724 
L 348.317273 324.29025 
L 360.153636 324.44125 
L 371.99 314.008523 
L 383.826364 320.108207 
L 395.662727 334.507917 
L 407.499091 353.67485 
L 419.335455 363.236635 
L 431.171818 362.694583 
L 443.008182 348.60125 
L 454.844545 360.264698 
L 466.680909 362.694583 
L 478.517273 373.150927 
L 490.353636 386.256875 
L 502.19 385.756402 
" style="fill:none;stroke:#08306b;stroke-linecap:square;stroke-width:1.5;"/>
   </g>
   <g id="line2d_19">
    <path clip-path="url(#p1ea613ece2)" d="M 111.59 179.48125 
L 123.426364 285.18125 
L 135.262727 338.03125 
L 147.099091 306.32125 
L 158.935455 311.60625 
L 170.771818 289.40925 
L 182.608182 288.704583 
L 194.444545 300.28125 
L 206.280909 303.67875 
L 218.117273 325.112361 
L 229.953636 340.14525 
L 241.79 348.60125 
L 253.626364 339.792917 
L 265.462727 351.853558 
L 277.299091 345.58125 
L 289.135455 371.150583 
L 300.971818 359.17125 
L 312.808182 353.575368 
L 324.644545 343.903472 
L 336.480909 349.713882 
L 348.317273 353.88625 
L 360.153636 356.654583 
L 371.99 347.640341 
L 383.826364 345.843859 
L 395.662727 346.839583 
L 407.499091 329.15245 
L 419.335455 327.46125 
L 431.171818 329.810139 
L 443.008182 331.23625 
L 454.844545 336.208836 
L 466.680909 345.077917 
L 478.517273 369.059315 
L 490.353636 382.95375 
L 502.19 391.521856 
" style="fill:none;stroke:#08306b;stroke-linecap:square;stroke-width:1.5;"/>
   </g>
   <g id="line2d_20">
    <path clip-path="url(#p1ea613ece2)" d="M 111.59 179.48125 
L 123.426364 200.62125 
L 135.262727 253.47125 
L 147.099091 285.18125 
L 158.935455 295.75125 
L 170.771818 319.00525 
L 182.608182 345.077917 
L 194.444545 357.66125 
L 206.280909 361.81375 
L 218.117273 362.694583 
L 229.953636 361.28525 
L 241.79 352.444886 
L 253.626364 352.124583 
L 265.462727 350.227404 
L 277.299091 348.60125 
L 289.135455 347.191917 
L 300.971818 351.24375 
L 312.808182 359.793015 
L 324.644545 343.903472 
L 336.480909 354.164408 
L 348.317273 358.11425 
L 360.153636 353.634583 
L 371.99 357.249432 
L 383.826364 346.762989 
L 395.662727 345.95875 
L 407.499091 340.14525 
L 419.335455 333.965865 
L 431.171818 339.205694 
L 443.008182 346.33625 
L 454.844545 354.432974 
L 466.680909 350.010583 
L 478.517273 369.059315 
L 490.353636 382.293125 
L 502.19 388.959432 
" style="fill:none;stroke:#08306b;stroke-linecap:square;stroke-width:1.5;"/>
   </g>
   <g id="line2d_21">
    <path clip-path="url(#p1ea613ece2)" d="M 111.59 306.32125 
L 123.426364 327.46125 
L 135.262727 380.31125 
L 147.099091 362.694583 
L 158.935455 327.46125 
L 170.771818 361.28525 
L 182.608182 345.077917 
L 194.444545 348.60125 
L 206.280909 361.81375 
L 218.117273 334.507917 
L 229.953636 342.25925 
L 241.79 337.070341 
L 253.626364 332.74625 
L 265.462727 329.087404 
L 277.299091 338.03125 
L 289.135455 321.823917 
L 300.971818 338.03125 
L 312.808182 343.627132 
L 324.644545 355.647917 
L 336.480909 349.713882 
L 348.317273 349.65825 
L 360.153636 338.534583 
L 371.99 342.835795 
L 383.826364 346.762989 
L 395.662727 340.67375 
L 407.499091 357.05725 
L 419.335455 340.470481 
L 431.171818 343.903472 
L 443.008182 332.74625 
L 454.844545 337.666767 
L 466.680909 354.94325 
L 478.517273 372.468992 
L 490.353636 388.899375 
L 502.19 397.287311 
" style="fill:none;stroke:#08306b;stroke-linecap:square;stroke-width:1.5;"/>
   </g>
   <g id="line2d_22">
    <path clip-path="url(#p1ea613ece2)" d="M 111.59 306.32125 
L 123.426364 348.60125 
L 135.262727 359.17125 
L 147.099091 320.414583 
L 158.935455 316.89125 
L 170.771818 310.54925 
L 182.608182 313.367917 
L 194.444545 312.36125 
L 206.280909 322.17625 
L 218.117273 334.507917 
L 229.953636 331.68925 
L 241.79 333.226705 
L 253.626364 338.03125 
L 265.462727 338.844327 
L 277.299091 339.54125 
L 289.135455 347.191917 
L 300.971818 353.88625 
L 312.808182 343.627132 
L 324.644545 349.775694 
L 336.480909 354.164408 
L 348.317273 348.60125 
L 360.153636 336.52125 
L 371.99 340.913977 
L 383.826364 341.248207 
L 395.662727 345.95875 
L 407.499091 350.29245 
L 419.335455 355.918942 
L 431.171818 352.516065 
L 443.008182 345.58125 
L 454.844545 351.517112 
L 466.680909 365.51325 
L 478.517273 376.560605 
L 490.353636 391.541875 
L 502.19 397.287311 
" style="fill:none;stroke:#08306b;stroke-linecap:square;stroke-width:1.5;"/>
   </g>
   <g id="line2d_23">
    <path clip-path="url(#p1ea613ece2)" d="M 111.59 179.48125 
L 123.426364 264.04125 
L 135.262727 285.18125 
L 147.099091 292.227917 
L 158.935455 306.32125 
L 170.771818 335.91725 
L 182.608182 345.077917 
L 194.444545 339.54125 
L 206.280909 348.60125 
L 218.117273 343.903472 
L 229.953636 363.39925 
L 241.79 358.210341 
L 253.626364 359.17125 
L 265.462727 343.722788 
L 277.299091 333.50125 
L 289.135455 337.326583 
L 300.971818 338.03125 
L 312.808182 331.191838 
L 324.644545 340.380139 
L 336.480909 350.826513 
L 348.317273 345.43025 
L 360.153636 358.667917 
L 371.99 363.975795 
L 383.826364 354.116033 
L 395.662727 350.362917 
L 407.499091 347.75565 
L 419.335455 344.535865 
L 431.171818 348.60125 
L 443.008182 343.31625 
L 454.844545 350.059181 
L 466.680909 376.08325 
L 478.517273 386.789637 
L 490.353636 398.148125 
L 502.19 394.724886 
" style="fill:none;stroke:#08306b;stroke-linecap:square;stroke-width:1.5;"/>
   </g>
   <g id="line2d_24">
    <path clip-path="url(#p1ea613ece2)" d="M 111.59 306.32125 
L 123.426364 221.76125 
L 135.262727 242.90125 
L 147.099091 256.994583 
L 158.935455 242.90125 
L 170.771818 272.49725 
L 182.608182 260.517917 
L 194.444545 251.96125 
L 206.280909 258.75625 
L 218.117273 261.692361 
L 229.953636 266.15525 
L 241.79 252.510341 
L 253.626364 262.279583 
L 265.462727 259.162788 
L 277.299091 270.08125 
L 289.135455 259.81325 
L 300.971818 269.32625 
L 312.808182 277.720074 
L 324.644545 268.739028 
L 336.480909 272.942303 
L 348.317273 283.06725 
L 360.153636 276.12125 
L 371.99 281.337614 
L 383.826364 274.151685 
L 395.662727 268.445417 
L 407.499091 269.11485 
L 419.335455 268.919712 
L 431.171818 271.87088 
L 443.008182 271.59125 
L 454.844545 274.975733 
L 466.680909 286.590583 
L 478.517273 316.550282 
L 490.353636 338.03125 
L 502.19 357.569735 
" style="fill:none;stroke:#4a98c9;stroke-linecap:square;stroke-width:1.5;"/>
   </g>
   <g id="line2d_25">
    <path clip-path="url(#p1ea613ece2)" d="M 111.59 52.64125 
L 123.426364 200.62125 
L 135.262727 211.19125 
L 147.099091 264.04125 
L 158.935455 253.47125 
L 170.771818 285.18125 
L 182.608182 299.274583 
L 194.444545 288.20125 
L 206.280909 279.89625 
L 218.117273 259.343472 
L 229.953636 259.81325 
L 241.79 265.963068 
L 253.626364 276.372917 
L 265.462727 285.18125 
L 277.299091 277.63125 
L 289.135455 268.26925 
L 300.971818 282.53875 
L 312.808182 273.989485 
L 324.644545 286.355694 
L 336.480909 274.054934 
L 348.317273 268.26925 
L 360.153636 273.10125 
L 371.99 270.767614 
L 383.826364 270.475163 
L 395.662727 272.849583 
L 407.499091 273.34285 
L 419.335455 272.985096 
L 431.171818 271.87088 
L 443.008182 273.85625 
L 454.844545 291.74194 
L 466.680909 302.797917 
L 478.517273 327.46125 
L 490.353636 341.995 
L 502.19 354.366705 
" style="fill:none;stroke:#4a98c9;stroke-linecap:square;stroke-width:1.5;"/>
   </g>
   <g id="line2d_26">
    <path clip-path="url(#p1ea613ece2)" d="M 111.59 306.32125 
L 123.426364 242.90125 
L 135.262727 232.33125 
L 147.099091 256.994583 
L 158.935455 248.18625 
L 170.771818 251.35725 
L 182.608182 271.087917 
L 194.444545 273.10125 
L 206.280909 266.68375 
L 218.117273 280.483472 
L 229.953636 283.06725 
L 241.79 277.493977 
L 253.626364 271.087917 
L 265.462727 265.667404 
L 277.299091 270.08125 
L 289.135455 282.362583 
L 300.971818 271.96875 
L 312.808182 275.233015 
L 324.644545 269.913472 
L 336.480909 270.717039 
L 348.317273 258.75625 
L 360.153636 278.134583 
L 371.99 268.845795 
L 383.826364 264.04125 
L 395.662727 263.160417 
L 407.499091 267.42365 
L 419.335455 264.04125 
L 431.171818 269.521991 
L 443.008182 262.53125 
L 454.844545 279.349526 
L 466.680909 297.86525 
L 478.517273 330.870927 
L 490.353636 338.03125 
L 502.19 360.132159 
" style="fill:none;stroke:#4a98c9;stroke-linecap:square;stroke-width:1.5;"/>
   </g>
   <g id="line2d_27">
    <path clip-path="url(#p1ea613ece2)" d="M 111.59 306.32125 
L 123.426364 285.18125 
L 135.262727 274.61125 
L 147.099091 285.18125 
L 158.935455 290.46625 
L 170.771818 285.18125 
L 182.608182 292.227917 
L 194.444545 282.16125 
L 206.280909 266.68375 
L 218.117273 256.994583 
L 229.953636 257.69925 
L 241.79 262.119432 
L 253.626364 274.61125 
L 265.462727 273.798173 
L 277.299091 259.51125 
L 289.135455 271.087917 
L 300.971818 264.04125 
L 312.808182 257.823603 
L 324.644545 267.564583 
L 336.480909 271.829671 
L 348.317273 267.21225 
L 360.153636 266.054583 
L 371.99 275.572159 
L 383.826364 275.070815 
L 395.662727 279.89625 
L 407.499091 284.33565 
L 419.335455 275.424327 
L 431.171818 266.390139 
L 443.008182 275.36625 
L 454.844545 280.807457 
L 466.680909 295.046583 
L 478.517273 319.278024 
L 490.353636 338.691875 
L 502.19 349.241856 
" style="fill:none;stroke:#4a98c9;stroke-linecap:square;stroke-width:1.5;"/>
   </g>
   <g id="line2d_28">
    <path clip-path="url(#p1ea613ece2)" d="M 111.59 433.16125 
L 123.426364 306.32125 
L 135.262727 316.89125 
L 147.099091 334.507917 
L 158.935455 274.61125 
L 170.771818 259.81325 
L 182.608182 256.994583 
L 194.444545 261.02125 
L 206.280909 250.82875 
L 218.117273 254.645694 
L 229.953636 268.26925 
L 241.79 271.728523 
L 253.626364 290.46625 
L 265.462727 281.928942 
L 277.299091 267.06125 
L 289.135455 282.362583 
L 300.971818 274.61125 
L 312.808182 273.989485 
L 324.644545 278.134583 
L 336.480909 265.153882 
L 348.317273 260.87025 
L 360.153636 264.04125 
L 371.99 266.923977 
L 383.826364 275.989946 
L 395.662727 277.25375 
L 407.499091 281.79885 
L 419.335455 277.050481 
L 431.171818 279.700509 
L 443.008182 273.10125 
L 454.844545 285.910216 
L 466.680909 285.18125 
L 478.517273 303.593508 
L 490.353636 324.81875 
L 502.19 343.476402 
" style="fill:none;stroke:#4a98c9;stroke-linecap:square;stroke-width:1.5;"/>
   </g>
   <g id="line2d_29">
    <path clip-path="url(#p1ea613ece2)" d="M 111.59 179.48125 
L 123.426364 179.48125 
L 135.262727 211.19125 
L 147.099091 235.854583 
L 158.935455 242.90125 
L 170.771818 234.44525 
L 182.608182 235.854583 
L 194.444545 254.98125 
L 206.280909 264.04125 
L 218.117273 264.04125 
L 229.953636 264.04125 
L 241.79 264.04125 
L 253.626364 271.087917 
L 265.462727 281.928942 
L 277.299091 285.18125 
L 289.135455 280.95325 
L 300.971818 283.86 
L 312.808182 275.233015 
L 324.644545 280.483472 
L 336.480909 286.293882 
L 348.317273 285.18125 
L 360.153636 289.207917 
L 371.99 275.572159 
L 383.826364 283.342989 
L 395.662727 266.68375 
L 407.499091 268.26925 
L 419.335455 261.602019 
L 431.171818 266.390139 
L 443.008182 261.02125 
L 454.844545 277.891595 
L 466.680909 302.797917 
L 478.517273 323.369637 
L 490.353636 329.443125 
L 502.19 351.163674 
" style="fill:none;stroke:#4a98c9;stroke-linecap:square;stroke-width:1.5;"/>
   </g>
   <g id="line2d_30">
    <path clip-path="url(#p1ea613ece2)" d="M 111.59 179.48125 
L 123.426364 179.48125 
L 135.262727 232.33125 
L 147.099091 221.76125 
L 158.935455 242.90125 
L 170.771818 251.35725 
L 182.608182 264.04125 
L 194.444545 285.18125 
L 206.280909 290.46625 
L 218.117273 273.436806 
L 229.953636 278.83925 
L 241.79 285.18125 
L 253.626364 260.517917 
L 265.462727 275.424327 
L 277.299091 279.14125 
L 289.135455 272.49725 
L 300.971818 279.89625 
L 312.808182 290.155368 
L 324.644545 273.436806 
L 336.480909 266.266513 
L 348.317273 272.49725 
L 360.153636 274.107917 
L 371.99 281.337614 
L 383.826364 274.151685 
L 395.662727 273.730417 
L 407.499091 277.57085 
L 419.335455 279.489712 
L 431.171818 282.832361 
L 443.008182 284.42625 
L 454.844545 274.975733 
L 466.680909 289.40925 
L 478.517273 303.593508 
L 490.353636 327.46125 
L 502.19 342.835795 
" style="fill:none;stroke:#4a98c9;stroke-linecap:square;stroke-width:1.5;"/>
   </g>
   <g id="line2d_31">
    <path clip-path="url(#p1ea613ece2)" d="M 111.59 179.48125 
L 123.426364 306.32125 
L 135.262727 264.04125 
L 147.099091 271.087917 
L 158.935455 269.32625 
L 170.771818 268.26925 
L 182.608182 264.04125 
L 194.444545 254.98125 
L 206.280909 261.39875 
L 218.117273 271.087917 
L 229.953636 276.72525 
L 241.79 275.572159 
L 253.626364 281.657917 
L 265.462727 281.928942 
L 277.299091 265.55125 
L 289.135455 272.49725 
L 300.971818 278.575 
L 312.808182 281.450662 
L 324.644545 276.960139 
L 336.480909 268.491776 
L 348.317273 286.23825 
L 360.153636 270.08125 
L 371.99 281.337614 
L 383.826364 270.475163 
L 395.662727 268.445417 
L 407.499091 270.80605 
L 419.335455 272.985096 
L 431.171818 273.436806 
L 443.008182 278.38625 
L 454.844545 278.62056 
L 466.680909 297.160583 
L 478.517273 316.550282 
L 490.353636 336.71 
L 502.19 365.897614 
" style="fill:none;stroke:#4a98c9;stroke-linecap:square;stroke-width:1.5;"/>
   </g>
   <g id="line2d_32">
    <path clip-path="url(#p1ea613ece2)" d="M 111.59 306.32125 
L 123.426364 264.04125 
L 135.262727 242.90125 
L 147.099091 249.947917 
L 158.935455 237.61625 
L 170.771818 230.21725 
L 182.608182 253.47125 
L 194.444545 254.98125 
L 206.280909 256.11375 
L 218.117273 282.832361 
L 229.953636 276.72525 
L 241.79 277.493977 
L 253.626364 281.657917 
L 265.462727 283.555096 
L 277.299091 280.65125 
L 289.135455 282.362583 
L 300.971818 275.9325 
L 312.808182 273.989485 
L 324.644545 268.739028 
L 336.480909 278.505461 
L 348.317273 280.95325 
L 360.153636 282.16125 
L 371.99 282.298523 
L 383.826364 282.423859 
L 395.662727 274.61125 
L 407.499091 269.96045 
L 419.335455 266.480481 
L 431.171818 274.219769 
L 443.008182 276.12125 
L 454.844545 279.349526 
L 466.680909 294.341917 
L 478.517273 318.596089 
L 490.353636 338.03125 
L 502.19 357.569735 
" style="fill:none;stroke:#4a98c9;stroke-linecap:square;stroke-width:1.5;"/>
   </g>
   <g id="line2d_33">
    <path clip-path="url(#p1ea613ece2)" d="M 111.59 52.64125 
L 123.426364 179.48125 
L 135.262727 211.19125 
L 147.099091 264.04125 
L 158.935455 242.90125 
L 170.771818 297.86525 
L 182.608182 295.75125 
L 194.444545 303.30125 
L 206.280909 290.46625 
L 218.117273 280.483472 
L 229.953636 270.38325 
L 241.79 292.868523 
L 253.626364 276.372917 
L 265.462727 278.676635 
L 277.299091 273.10125 
L 289.135455 275.315917 
L 300.971818 273.29 
L 312.808182 265.284779 
L 324.644545 268.739028 
L 336.480909 264.04125 
L 348.317273 273.55425 
L 360.153636 275.114583 
L 371.99 267.884886 
L 383.826364 257.607337 
L 395.662727 277.25375 
L 407.499091 266.57805 
L 419.335455 271.358942 
L 431.171818 270.304954 
L 443.008182 283.67125 
L 454.844545 286.639181 
L 466.680909 302.09325 
L 478.517273 319.95996 
L 490.353636 343.976875 
L 502.19 378.069129 
" style="fill:none;stroke:#4a98c9;stroke-linecap:square;stroke-width:1.5;"/>
   </g>
   <g id="line2d_34">
    <path clip-path="url(#p1ea613ece2)" d="M 111.59 179.48125 
L 123.426364 242.90125 
L 135.262727 253.47125 
L 147.099091 249.947917 
L 158.935455 232.33125 
L 170.771818 259.81325 
L 182.608182 256.994583 
L 194.444545 251.96125 
L 206.280909 232.33125 
L 218.117273 271.087917 
L 229.953636 268.26925 
L 241.79 242.90125 
L 253.626364 264.04125 
L 265.462727 259.162788 
L 277.299091 253.47125 
L 289.135455 248.538583 
L 300.971818 257.435 
L 312.808182 265.284779 
L 324.644545 258.169028 
L 336.480909 260.703355 
L 348.317273 258.75625 
L 360.153636 261.02125 
L 371.99 253.47125 
L 383.826364 261.283859 
L 395.662727 262.279583 
L 407.499091 258.12205 
L 419.335455 267.293558 
L 431.171818 260.909398 
L 443.008182 264.79625 
L 454.844545 266.957112 
L 466.680909 277.429917 
L 478.517273 296.092218 
L 490.353636 323.4975 
L 502.19 349.882462 
" style="fill:none;stroke:#d0e1f2;stroke-linecap:square;stroke-width:1.5;"/>
   </g>
   <g id="line2d_35">
    <path clip-path="url(#p1ea613ece2)" d="M 111.59 52.64125 
L 123.426364 242.90125 
L 135.262727 200.62125 
L 147.099091 235.854583 
L 158.935455 253.47125 
L 170.771818 285.18125 
L 182.608182 274.61125 
L 194.444545 248.94125 
L 206.280909 256.11375 
L 218.117273 259.343472 
L 229.953636 264.04125 
L 241.79 250.588523 
L 253.626364 264.04125 
L 265.462727 272.172019 
L 277.299091 264.04125 
L 289.135455 261.222583 
L 300.971818 260.0775 
L 312.808182 259.067132 
L 324.644545 264.04125 
L 336.480909 261.815987 
L 348.317273 257.69925 
L 360.153636 256.994583 
L 371.99 267.884886 
L 383.826364 265.879511 
L 395.662727 267.564583 
L 407.499091 253.89405 
L 419.335455 262.415096 
L 431.171818 253.862731 
L 443.008182 256.49125 
L 454.844545 273.517802 
L 466.680909 275.315917 
L 478.517273 300.865766 
L 490.353636 335.38875 
L 502.19 369.100644 
" style="fill:none;stroke:#d0e1f2;stroke-linecap:square;stroke-width:1.5;"/>
   </g>
   <g id="line2d_36">
    <path clip-path="url(#p1ea613ece2)" d="M 111.59 306.32125 
L 123.426364 242.90125 
L 135.262727 253.47125 
L 147.099091 264.04125 
L 158.935455 248.18625 
L 170.771818 238.67325 
L 182.608182 278.134583 
L 194.444545 261.02125 
L 206.280909 258.75625 
L 218.117273 282.832361 
L 229.953636 255.58525 
L 241.79 256.353977 
L 253.626364 262.279583 
L 265.462727 260.788942 
L 277.299091 253.47125 
L 289.135455 273.906583 
L 300.971818 270.6475 
L 312.808182 272.745956 
L 324.644545 265.215694 
L 336.480909 260.703355 
L 348.317273 257.69925 
L 360.153636 269.074583 
L 371.99 252.510341 
L 383.826364 254.849946 
L 395.662727 252.590417 
L 407.499091 258.12205 
L 419.335455 251.845096 
L 431.171818 262.475324 
L 443.008182 261.77625 
L 454.844545 277.891595 
L 466.680909 276.020583 
L 478.517273 302.229637 
L 490.353636 325.479375 
L 502.19 356.929129 
" style="fill:none;stroke:#d0e1f2;stroke-linecap:square;stroke-width:1.5;"/>
   </g>
   <g id="line2d_37">
    <path clip-path="url(#p1ea613ece2)" d="M 111.59 179.48125 
L 123.426364 221.76125 
L 135.262727 232.33125 
L 147.099091 249.947917 
L 158.935455 221.76125 
L 170.771818 255.58525 
L 182.608182 249.947917 
L 194.444545 254.98125 
L 206.280909 258.75625 
L 218.117273 264.04125 
L 229.953636 249.24325 
L 241.79 242.90125 
L 253.626364 255.232917 
L 265.462727 264.04125 
L 277.299091 245.92125 
L 289.135455 258.403917 
L 300.971818 257.435 
L 312.808182 254.093015 
L 324.644545 255.820139 
L 336.480909 259.590724 
L 348.317273 261.92725 
L 360.153636 255.987917 
L 371.99 256.353977 
L 383.826364 254.849946 
L 395.662727 255.232917 
L 407.499091 258.96765 
L 419.335455 259.162788 
L 431.171818 262.475324 
L 443.008182 270.08125 
L 454.844545 282.265388 
L 466.680909 295.75125 
L 478.517273 310.412863 
L 490.353636 336.049375 
L 502.19 350.523068 
" style="fill:none;stroke:#d0e1f2;stroke-linecap:square;stroke-width:1.5;"/>
   </g>
   <g id="line2d_38">
    <path clip-path="url(#p1ea613ece2)" d="M 111.59 179.48125 
L 123.426364 200.62125 
L 135.262727 221.76125 
L 147.099091 249.947917 
L 158.935455 232.33125 
L 170.771818 238.67325 
L 182.608182 239.377917 
L 194.444545 258.00125 
L 206.280909 224.40375 
L 218.117273 247.599028 
L 229.953636 251.35725 
L 241.79 256.353977 
L 253.626364 269.32625 
L 265.462727 273.798173 
L 277.299091 261.02125 
L 289.135455 264.04125 
L 300.971818 260.0775 
L 312.808182 271.502426 
L 324.644545 251.122361 
L 336.480909 254.027566 
L 348.317273 254.52825 
L 360.153636 253.974583 
L 371.99 254.432159 
L 383.826364 264.04125 
L 395.662727 271.96875 
L 407.499091 261.50445 
L 419.335455 261.602019 
L 431.171818 268.739028 
L 443.008182 262.53125 
L 454.844545 266.228147 
L 466.680909 271.792583 
L 478.517273 294.728347 
L 490.353636 313.588125 
L 502.19 349.882462 
" style="fill:none;stroke:#d0e1f2;stroke-linecap:square;stroke-width:1.5;"/>
   </g>
   <g id="line2d_39">
    <path clip-path="url(#p1ea613ece2)" d="M 111.59 179.48125 
L 123.426364 200.62125 
L 135.262727 221.76125 
L 147.099091 228.807917 
L 158.935455 258.75625 
L 170.771818 225.98925 
L 182.608182 249.947917 
L 194.444545 248.94125 
L 206.280909 245.54375 
L 218.117273 240.552361 
L 229.953636 240.78725 
L 241.79 258.275795 
L 253.626364 274.61125 
L 265.462727 257.536635 
L 277.299091 274.61125 
L 289.135455 271.087917 
L 300.971818 257.435 
L 312.808182 260.310662 
L 324.644545 262.866806 
L 336.480909 270.717039 
L 348.317273 267.21225 
L 360.153636 270.08125 
L 371.99 256.353977 
L 383.826364 261.283859 
L 395.662727 253.47125 
L 407.499091 257.27645 
L 419.335455 255.097404 
L 431.171818 262.475324 
L 443.008182 253.47125 
L 454.844545 266.957112 
L 466.680909 273.906583 
L 478.517273 297.456089 
L 490.353636 324.158125 
L 502.19 347.960644 
" style="fill:none;stroke:#d0e1f2;stroke-linecap:square;stroke-width:1.5;"/>
   </g>
   <g id="line2d_40">
    <path clip-path="url(#p1ea613ece2)" d="M 111.59 179.48125 
L 123.426364 200.62125 
L 135.262727 232.33125 
L 147.099091 235.854583 
L 158.935455 248.18625 
L 170.771818 234.44525 
L 182.608182 242.90125 
L 194.444545 264.04125 
L 206.280909 271.96875 
L 218.117273 261.692361 
L 229.953636 274.61125 
L 241.79 256.353977 
L 253.626364 244.662917 
L 265.462727 265.667404 
L 277.299091 250.45125 
L 289.135455 268.26925 
L 300.971818 264.04125 
L 312.808182 271.502426 
L 324.644545 273.436806 
L 336.480909 262.928618 
L 348.317273 261.92725 
L 360.153636 262.027917 
L 371.99 269.806705 
L 383.826364 251.173424 
L 395.662727 262.279583 
L 407.499091 264.04125 
L 419.335455 258.349712 
L 431.171818 264.04125 
L 443.008182 268.57125 
L 454.844545 266.228147 
L 466.680909 278.83925 
L 478.517273 292.68254 
L 490.353636 310.285 
L 502.19 340.913977 
" style="fill:none;stroke:#d0e1f2;stroke-linecap:square;stroke-width:1.5;"/>
   </g>
   <g id="line2d_41">
    <path clip-path="url(#p1ea613ece2)" d="M 111.59 306.32125 
L 123.426364 264.04125 
L 135.262727 264.04125 
L 147.099091 256.994583 
L 158.935455 242.90125 
L 170.771818 264.04125 
L 182.608182 249.947917 
L 194.444545 242.90125 
L 206.280909 248.18625 
L 218.117273 261.692361 
L 229.953636 257.69925 
L 241.79 262.119432 
L 253.626364 265.802917 
L 265.462727 265.667404 
L 277.299091 264.04125 
L 289.135455 252.766583 
L 300.971818 258.75625 
L 312.808182 261.554191 
L 324.644545 267.564583 
L 336.480909 245.126513 
L 348.317273 256.64225 
L 360.153636 254.98125 
L 371.99 268.845795 
L 383.826364 269.556033 
L 395.662727 257.875417 
L 407.499091 267.42365 
L 419.335455 265.667404 
L 431.171818 259.343472 
L 443.008182 266.30625 
L 454.844545 265.499181 
L 466.680909 283.771917 
L 478.517273 299.501895 
L 490.353636 314.24875 
L 502.19 367.819432 
" style="fill:none;stroke:#d0e1f2;stroke-linecap:square;stroke-width:1.5;"/>
   </g>
   <g id="line2d_42">
    <path clip-path="url(#p1ea613ece2)" d="M 111.59 179.48125 
L 123.426364 242.90125 
L 135.262727 200.62125 
L 147.099091 207.667917 
L 158.935455 248.18625 
L 170.771818 247.12925 
L 182.608182 253.47125 
L 194.444545 233.84125 
L 206.280909 245.54375 
L 218.117273 261.692361 
L 229.953636 266.15525 
L 241.79 262.119432 
L 253.626364 264.04125 
L 265.462727 264.04125 
L 277.299091 254.98125 
L 289.135455 271.087917 
L 300.971818 265.3625 
L 312.808182 264.04125 
L 324.644545 256.994583 
L 336.480909 264.04125 
L 348.317273 262.98425 
L 360.153636 268.067917 
L 371.99 264.04125 
L 383.826364 264.04125 
L 395.662727 257.875417 
L 407.499091 258.96765 
L 419.335455 254.284327 
L 431.171818 263.258287 
L 443.008182 261.77625 
L 454.844545 263.312284 
L 466.680909 283.06725 
L 478.517273 311.776734 
L 490.353636 336.71 
L 502.19 360.772765 
" style="fill:none;stroke:#d0e1f2;stroke-linecap:square;stroke-width:1.5;"/>
   </g>
   <g id="line2d_43">
    <path clip-path="url(#p1ea613ece2)" d="M 111.59 52.64125 
L 123.426364 179.48125 
L 135.262727 200.62125 
L 147.099091 256.994583 
L 158.935455 242.90125 
L 170.771818 247.12925 
L 182.608182 274.61125 
L 194.444545 276.12125 
L 206.280909 269.32625 
L 218.117273 261.692361 
L 229.953636 249.24325 
L 241.79 267.884886 
L 253.626364 264.04125 
L 265.462727 259.162788 
L 277.299091 258.00125 
L 289.135455 240.082583 
L 300.971818 246.865 
L 312.808182 261.554191 
L 324.644545 258.169028 
L 336.480909 252.914934 
L 348.317273 246.07225 
L 360.153636 251.96125 
L 371.99 252.510341 
L 383.826364 250.254293 
L 395.662727 256.11375 
L 407.499091 257.27645 
L 419.335455 266.480481 
L 431.171818 254.645694 
L 443.008182 273.85625 
L 454.844545 275.704698 
L 466.680909 290.113917 
L 478.517273 308.367056 
L 490.353636 331.425 
L 502.19 372.94428 
" style="fill:none;stroke:#d0e1f2;stroke-linecap:square;stroke-width:1.5;"/>
   </g>
   <g id="line2d_44">
    <path clip-path="url(#p1ea613ece2)" d="M 111.59 306.32125 
L 123.426364 242.90125 
L 135.262727 274.61125 
L 147.099091 306.32125 
L 158.935455 295.75125 
L 170.771818 297.86525 
L 182.608182 338.03125 
L 194.444545 333.50125 
L 206.280909 324.81875 
L 218.117273 320.414583 
L 229.953636 314.77725 
L 241.79 302.477614 
L 253.626364 295.75125 
L 265.462727 319.330481 
L 277.299091 321.42125 
L 289.135455 331.68925 
L 300.971818 335.38875 
L 312.808182 322.487132 
L 324.644545 325.112361 
L 336.480909 330.799145 
L 348.317273 321.11925 
L 360.153636 317.394583 
L 371.99 320.734886 
L 383.826364 314.593424 
L 395.662727 318.652917 
L 407.499091 308.85805 
L 419.335455 311.199712 
L 431.171818 311.801991 
L 443.008182 311.60625 
L 454.844545 317.255733 
L 466.680909 324.642583 
L 478.517273 347.237379 
L 490.353636 370.401875 
L 502.19 367.178826 
" style="fill:none;stroke:#1764ab;stroke-linecap:square;stroke-width:1.5;"/>
   </g>
   <g id="line2d_45">
    <path clip-path="url(#p1ea613ece2)" d="M 111.59 433.16125 
L 123.426364 327.46125 
L 135.262727 327.46125 
L 147.099091 292.227917 
L 158.935455 332.74625 
L 170.771818 340.14525 
L 182.608182 348.60125 
L 194.444545 336.52125 
L 206.280909 324.81875 
L 218.117273 303.972361 
L 229.953636 319.00525 
L 241.79 333.226705 
L 253.626364 341.554583 
L 265.462727 329.087404 
L 277.299091 354.64125 
L 289.135455 331.68925 
L 300.971818 320.855 
L 312.808182 332.435368 
L 324.644545 321.589028 
L 336.480909 319.672829 
L 348.317273 314.77725 
L 360.153636 308.334583 
L 371.99 328.422159 
L 383.826364 321.946467 
L 395.662727 319.53375 
L 407.499091 314.77725 
L 419.335455 314.452019 
L 431.171818 303.189398 
L 443.008182 302.54625 
L 454.844545 311.424009 
L 466.680909 315.481917 
L 478.517273 351.328992 
L 490.353636 365.7775 
L 502.19 376.787917 
" style="fill:none;stroke:#1764ab;stroke-linecap:square;stroke-width:1.5;"/>
   </g>
   <g id="line2d_46">
    <path clip-path="url(#p1ea613ece2)" d="M 111.59 306.32125 
L 123.426364 221.76125 
L 135.262727 253.47125 
L 147.099091 299.274583 
L 158.935455 279.89625 
L 170.771818 293.63725 
L 182.608182 302.797917 
L 194.444545 303.30125 
L 206.280909 324.81875 
L 218.117273 327.46125 
L 229.953636 316.89125 
L 241.79 331.304886 
L 253.626364 323.937917 
L 265.462727 314.452019 
L 277.299091 310.85125 
L 289.135455 316.186583 
L 300.971818 319.53375 
L 312.808182 329.948309 
L 324.644545 323.937917 
L 336.480909 314.109671 
L 348.317273 311.60625 
L 360.153636 314.374583 
L 371.99 324.578523 
L 383.826364 308.159511 
L 395.662727 301.03625 
L 407.499091 311.39485 
L 419.335455 302.255865 
L 431.171818 303.189398 
L 443.008182 316.13625 
L 454.844545 342.04056 
L 466.680909 343.668583 
L 478.517273 356.784476 
L 490.353636 366.438125 
L 502.19 383.193977 
" style="fill:none;stroke:#1764ab;stroke-linecap:square;stroke-width:1.5;"/>
   </g>
   <g id="line2d_47">
    <path clip-path="url(#p1ea613ece2)" d="M 111.59 179.48125 
L 123.426364 242.90125 
L 135.262727 285.18125 
L 147.099091 299.274583 
L 158.935455 343.31625 
L 170.771818 327.46125 
L 182.608182 334.507917 
L 194.444545 306.32125 
L 206.280909 293.10875 
L 218.117273 294.576806 
L 229.953636 285.18125 
L 241.79 306.32125 
L 253.626364 306.32125 
L 265.462727 338.844327 
L 277.299091 318.40125 
L 289.135455 320.414583 
L 300.971818 314.24875 
L 312.808182 303.834191 
L 324.644545 323.937917 
L 336.480909 316.334934 
L 348.317273 311.60625 
L 360.153636 306.32125 
L 371.99 327.46125 
L 383.826364 317.350815 
L 395.662727 321.295417 
L 407.499091 322.38765 
L 419.335455 317.704327 
L 431.171818 314.933843 
L 443.008182 322.93125 
L 454.844545 332.564009 
L 466.680909 337.326583 
L 478.517273 355.420605 
L 490.353636 375.02625 
L 502.19 376.147311 
" style="fill:none;stroke:#1764ab;stroke-linecap:square;stroke-width:1.5;"/>
   </g>
   <g id="line2d_48">
    <path clip-path="url(#p1ea613ece2)" d="M 111.59 52.64125 
L 123.426364 306.32125 
L 135.262727 390.88125 
L 147.099091 376.787917 
L 158.935455 338.03125 
L 170.771818 310.54925 
L 182.608182 309.844583 
L 194.444545 300.28125 
L 206.280909 282.53875 
L 218.117273 289.879028 
L 229.953636 283.06725 
L 241.79 310.164886 
L 253.626364 304.559583 
L 265.462727 309.573558 
L 277.299091 310.85125 
L 289.135455 330.279917 
L 300.971818 341.995 
L 312.808182 323.730662 
L 324.644545 325.112361 
L 336.480909 310.771776 
L 348.317273 290.46625 
L 360.153636 298.267917 
L 371.99 303.438523 
L 383.826364 316.431685 
L 395.662727 329.222917 
L 407.499091 336.76285 
L 419.335455 328.274327 
L 431.171818 321.197546 
L 443.008182 318.40125 
L 454.844545 325.274353 
L 466.680909 338.735917 
L 478.517273 352.010927 
L 490.353636 368.42 
L 502.19 367.178826 
" style="fill:none;stroke:#1764ab;stroke-linecap:square;stroke-width:1.5;"/>
   </g>
   <g id="line2d_49">
    <path clip-path="url(#p1ea613ece2)" d="M 111.59 306.32125 
L 123.426364 306.32125 
L 135.262727 338.03125 
L 147.099091 292.227917 
L 158.935455 279.89625 
L 170.771818 272.49725 
L 182.608182 264.04125 
L 194.444545 267.06125 
L 206.280909 290.46625 
L 218.117273 294.576806 
L 229.953636 308.43525 
L 241.79 308.243068 
L 253.626364 318.652917 
L 265.462727 312.825865 
L 277.299091 328.97125 
L 289.135455 320.414583 
L 300.971818 318.2125 
L 312.808182 324.974191 
L 324.644545 321.589028 
L 336.480909 328.573882 
L 348.317273 329.57525 
L 360.153636 325.447917 
L 371.99 326.500341 
L 383.826364 330.218641 
L 395.662727 306.32125 
L 407.499091 308.01245 
L 419.335455 305.508173 
L 431.171818 309.453102 
L 443.008182 310.09625 
L 454.844545 322.358491 
L 466.680909 335.91725 
L 478.517273 358.148347 
L 490.353636 369.74125 
L 502.19 370.381856 
" style="fill:none;stroke:#1764ab;stroke-linecap:square;stroke-width:1.5;"/>
   </g>
   <g id="line2d_50">
    <path clip-path="url(#p1ea613ece2)" d="M 111.59 179.48125 
L 123.426364 158.34125 
L 135.262727 253.47125 
L 147.099091 264.04125 
L 158.935455 290.46625 
L 170.771818 314.77725 
L 182.608182 309.844583 
L 194.444545 321.42125 
L 206.280909 345.95875 
L 218.117273 341.554583 
L 229.953636 348.60125 
L 241.79 337.070341 
L 253.626364 338.03125 
L 265.462727 333.965865 
L 277.299091 328.97125 
L 289.135455 331.68925 
L 300.971818 322.17625 
L 312.808182 323.730662 
L 324.644545 321.589028 
L 336.480909 323.010724 
L 348.317273 340.14525 
L 360.153636 330.48125 
L 371.99 328.422159 
L 383.826364 325.622989 
L 395.662727 338.912083 
L 407.499091 332.53485 
L 419.335455 325.022019 
L 431.171818 327.46125 
L 443.008182 322.93125 
L 454.844545 316.526767 
L 466.680909 330.279917 
L 478.517273 345.191573 
L 490.353636 361.81375 
L 502.19 368.460038 
" style="fill:none;stroke:#1764ab;stroke-linecap:square;stroke-width:1.5;"/>
   </g>
   <g id="line2d_51">
    <path clip-path="url(#p1ea613ece2)" d="M 111.59 179.48125 
L 123.426364 264.04125 
L 135.262727 295.75125 
L 147.099091 327.46125 
L 158.935455 327.46125 
L 170.771818 335.91725 
L 182.608182 341.554583 
L 194.444545 354.64125 
L 206.280909 335.38875 
L 218.117273 332.159028 
L 229.953636 340.14525 
L 241.79 325.539432 
L 253.626364 322.17625 
L 265.462727 309.573558 
L 277.299091 303.30125 
L 289.135455 307.730583 
L 300.971818 318.2125 
L 312.808182 315.025956 
L 324.644545 321.589028 
L 336.480909 328.573882 
L 348.317273 313.72025 
L 360.153636 314.374583 
L 371.99 311.125795 
L 383.826364 311.836033 
L 395.662727 330.984583 
L 407.499091 323.23325 
L 419.335455 325.835096 
L 431.171818 322.763472 
L 443.008182 320.66625 
L 454.844545 323.087457 
L 466.680909 333.80325 
L 478.517273 358.148347 
L 490.353636 381.6325 
L 502.19 374.866098 
" style="fill:none;stroke:#1764ab;stroke-linecap:square;stroke-width:1.5;"/>
   </g>
   <g id="line2d_52">
    <path clip-path="url(#p1ea613ece2)" d="M 111.59 306.32125 
L 123.426364 285.18125 
L 135.262727 253.47125 
L 147.099091 242.90125 
L 158.935455 264.04125 
L 170.771818 285.18125 
L 182.608182 306.32125 
L 194.444545 318.40125 
L 206.280909 306.32125 
L 218.117273 322.763472 
L 229.953636 323.23325 
L 241.79 321.695795 
L 253.626364 336.269583 
L 265.462727 322.582788 
L 277.299091 319.91125 
L 289.135455 327.46125 
L 300.971818 328.7825 
L 312.808182 338.653015 
L 324.644545 328.635694 
L 336.480909 326.348618 
L 348.317273 312.66325 
L 360.153636 320.414583 
L 371.99 308.243068 
L 383.826364 309.078641 
L 395.662727 325.699583 
L 407.499091 310.54925 
L 419.335455 315.265096 
L 431.171818 323.546435 
L 443.008182 327.46125 
L 454.844545 328.190216 
L 466.680909 330.984583 
L 478.517273 351.328992 
L 490.353636 368.42 
L 502.19 382.553371 
" style="fill:none;stroke:#1764ab;stroke-linecap:square;stroke-width:1.5;"/>
   </g>
   <g id="line2d_53">
    <path clip-path="url(#p1ea613ece2)" d="M 111.59 52.64125 
L 123.426364 200.62125 
L 135.262727 253.47125 
L 147.099091 264.04125 
L 158.935455 290.46625 
L 170.771818 302.09325 
L 182.608182 330.984583 
L 194.444545 321.42125 
L 206.280909 327.46125 
L 218.117273 315.716806 
L 229.953636 306.32125 
L 241.79 306.32125 
L 253.626364 318.652917 
L 265.462727 317.704327 
L 277.299091 319.91125 
L 289.135455 316.186583 
L 300.971818 318.2125 
L 312.808182 313.782426 
L 324.644545 313.367917 
L 336.480909 316.334934 
L 348.317273 316.89125 
L 360.153636 324.44125 
L 371.99 321.695795 
L 383.826364 326.54212 
L 395.662727 316.010417 
L 407.499091 324.92445 
L 419.335455 336.405096 
L 431.171818 331.376065 
L 443.008182 321.42125 
L 454.844545 332.564009 
L 466.680909 348.60125 
L 478.517273 364.285766 
L 490.353636 382.95375 
L 502.19 391.521856 
" style="fill:none;stroke:#1764ab;stroke-linecap:square;stroke-width:1.5;"/>
   </g>
   <g id="line2d_54">
    <path clip-path="url(#p1ea613ece2)" d="M 111.59 306.32125 
L 123.426364 200.62125 
L 135.262727 285.18125 
L 147.099091 256.994583 
L 158.935455 253.47125 
L 170.771818 264.04125 
L 182.608182 246.424583 
L 194.444545 248.94125 
L 206.280909 248.18625 
L 218.117273 261.692361 
L 229.953636 266.15525 
L 241.79 265.963068 
L 253.626364 248.18625 
L 265.462727 259.162788 
L 277.299091 258.00125 
L 289.135455 264.04125 
L 300.971818 257.435 
L 312.808182 275.233015 
L 324.644545 275.785694 
L 336.480909 268.491776 
L 348.317273 265.09825 
L 360.153636 262.027917 
L 371.99 273.650341 
L 383.826364 263.12212 
L 395.662727 262.279583 
L 407.499091 264.04125 
L 419.335455 268.919712 
L 431.171818 267.173102 
L 443.008182 269.32625 
L 454.844545 273.517802 
L 466.680909 291.52325 
L 478.517273 300.865766 
L 490.353636 326.14 
L 502.19 347.960644 
" style="fill:none;stroke:#94c4df;stroke-linecap:square;stroke-width:1.5;"/>
   </g>
   <g id="line2d_55">
    <path clip-path="url(#p1ea613ece2)" d="M 111.59 52.64125 
L 123.426364 221.76125 
L 135.262727 253.47125 
L 147.099091 214.714583 
L 158.935455 237.61625 
L 170.771818 259.81325 
L 182.608182 267.564583 
L 194.444545 279.14125 
L 206.280909 271.96875 
L 218.117273 256.994583 
L 229.953636 264.04125 
L 241.79 265.963068 
L 253.626364 281.657917 
L 265.462727 281.928942 
L 277.299091 264.04125 
L 289.135455 248.538583 
L 300.971818 262.72 
L 312.808182 261.554191 
L 324.644545 266.390139 
L 336.480909 260.703355 
L 348.317273 266.15525 
L 360.153636 265.047917 
L 371.99 252.510341 
L 383.826364 271.394293 
L 395.662727 270.207083 
L 407.499091 264.88685 
L 419.335455 259.162788 
L 431.171818 268.739028 
L 443.008182 270.08125 
L 454.844545 272.788836 
L 466.680909 290.113917 
L 478.517273 307.003185 
L 490.353636 327.46125 
L 502.19 358.210341 
" style="fill:none;stroke:#94c4df;stroke-linecap:square;stroke-width:1.5;"/>
   </g>
   <g id="line2d_56">
    <path clip-path="url(#p1ea613ece2)" d="M 111.59 306.32125 
L 123.426364 264.04125 
L 135.262727 253.47125 
L 147.099091 235.854583 
L 158.935455 242.90125 
L 170.771818 251.35725 
L 182.608182 271.087917 
L 194.444545 270.08125 
L 206.280909 269.32625 
L 218.117273 282.832361 
L 229.953636 268.26925 
L 241.79 271.728523 
L 253.626364 262.279583 
L 265.462727 267.293558 
L 277.299091 274.61125 
L 289.135455 272.49725 
L 300.971818 283.86 
L 312.808182 287.668309 
L 324.644545 284.006806 
L 336.480909 269.604408 
L 348.317273 265.09825 
L 360.153636 262.027917 
L 371.99 268.845795 
L 383.826364 265.879511 
L 395.662727 265.802917 
L 407.499091 257.27645 
L 419.335455 261.602019 
L 431.171818 262.475324 
L 443.008182 267.06125 
L 454.844545 283.723319 
L 466.680909 290.113917 
L 478.517273 305.639315 
L 490.353636 328.7825 
L 502.19 347.960644 
" style="fill:none;stroke:#94c4df;stroke-linecap:square;stroke-width:1.5;"/>
   </g>
   <g id="line2d_57">
    <path clip-path="url(#p1ea613ece2)" d="M 111.59 179.48125 
L 123.426364 242.90125 
L 135.262727 242.90125 
L 147.099091 271.087917 
L 158.935455 242.90125 
L 170.771818 259.81325 
L 182.608182 271.087917 
L 194.444545 273.10125 
L 206.280909 248.18625 
L 218.117273 266.390139 
L 229.953636 249.24325 
L 241.79 260.197614 
L 253.626364 269.32625 
L 265.462727 272.172019 
L 277.299091 258.00125 
L 289.135455 265.450583 
L 300.971818 262.72 
L 312.808182 249.118897 
L 324.644545 261.692361 
L 336.480909 268.491776 
L 348.317273 262.98425 
L 360.153636 253.974583 
L 371.99 272.689432 
L 383.826364 268.636902 
L 395.662727 258.75625 
L 407.499091 269.11485 
L 419.335455 266.480481 
L 431.171818 264.824213 
L 443.008182 279.89625 
L 454.844545 285.18125 
L 466.680909 291.52325 
L 478.517273 314.504476 
L 490.353636 334.728125 
L 502.19 360.772765 
" style="fill:none;stroke:#94c4df;stroke-linecap:square;stroke-width:1.5;"/>
   </g>
   <g id="line2d_58">
    <path clip-path="url(#p1ea613ece2)" d="M 111.59 179.48125 
L 123.426364 242.90125 
L 135.262727 232.33125 
L 147.099091 271.087917 
L 158.935455 248.18625 
L 170.771818 264.04125 
L 182.608182 246.424583 
L 194.444545 251.96125 
L 206.280909 240.25875 
L 218.117273 240.552361 
L 229.953636 270.38325 
L 241.79 267.884886 
L 253.626364 272.849583 
L 265.462727 285.18125 
L 277.299091 262.53125 
L 289.135455 269.678583 
L 300.971818 266.68375 
L 312.808182 270.258897 
L 324.644545 260.517917 
L 336.480909 260.703355 
L 348.317273 261.92725 
L 360.153636 254.98125 
L 371.99 270.767614 
L 383.826364 267.717772 
L 395.662727 276.372917 
L 407.499091 279.26205 
L 419.335455 274.61125 
L 431.171818 265.607176 
L 443.008182 268.57125 
L 454.844545 271.330905 
L 466.680909 290.113917 
L 478.517273 302.911573 
L 490.353636 324.158125 
L 502.19 345.39822 
" style="fill:none;stroke:#94c4df;stroke-linecap:square;stroke-width:1.5;"/>
   </g>
   <g id="line2d_59">
    <path clip-path="url(#p1ea613ece2)" d="M 111.59 179.48125 
L 123.426364 200.62125 
L 135.262727 242.90125 
L 147.099091 235.854583 
L 158.935455 253.47125 
L 170.771818 238.67325 
L 182.608182 235.854583 
L 194.444545 251.96125 
L 206.280909 258.75625 
L 218.117273 254.645694 
L 229.953636 247.12925 
L 241.79 256.353977 
L 253.626364 264.04125 
L 265.462727 265.667404 
L 277.299091 262.53125 
L 289.135455 273.906583 
L 300.971818 270.6475 
L 312.808182 275.233015 
L 324.644545 262.866806 
L 336.480909 275.167566 
L 348.317273 273.55425 
L 360.153636 266.054583 
L 371.99 264.04125 
L 383.826364 275.070815 
L 395.662727 262.279583 
L 407.499091 273.34285 
L 419.335455 269.732788 
L 431.171818 271.087917 
L 443.008182 268.57125 
L 454.844545 277.891595 
L 466.680909 279.543917 
L 478.517273 303.593508 
L 490.353636 324.158125 
L 502.19 349.882462 
" style="fill:none;stroke:#94c4df;stroke-linecap:square;stroke-width:1.5;"/>
   </g>
   <g id="line2d_60">
    <path clip-path="url(#p1ea613ece2)" d="M 111.59 179.48125 
L 123.426364 200.62125 
L 135.262727 232.33125 
L 147.099091 221.76125 
L 158.935455 253.47125 
L 170.771818 247.12925 
L 182.608182 267.564583 
L 194.444545 279.14125 
L 206.280909 266.68375 
L 218.117273 287.530139 
L 229.953636 278.83925 
L 241.79 275.572159 
L 253.626364 262.279583 
L 265.462727 273.798173 
L 277.299091 279.14125 
L 289.135455 258.403917 
L 300.971818 269.32625 
L 312.808182 280.207132 
L 324.644545 266.390139 
L 336.480909 270.717039 
L 348.317273 275.66825 
L 360.153636 275.114583 
L 371.99 272.689432 
L 383.826364 264.04125 
L 395.662727 264.922083 
L 407.499091 271.65165 
L 419.335455 274.61125 
L 431.171818 268.739028 
L 443.008182 268.57125 
L 454.844545 264.04125 
L 466.680909 278.83925 
L 478.517273 300.183831 
L 490.353636 312.266875 
L 502.19 344.117008 
" style="fill:none;stroke:#94c4df;stroke-linecap:square;stroke-width:1.5;"/>
   </g>
   <g id="line2d_61">
    <path clip-path="url(#p1ea613ece2)" d="M 111.59 179.48125 
L 123.426364 264.04125 
L 135.262727 242.90125 
L 147.099091 249.947917 
L 158.935455 258.75625 
L 170.771818 272.49725 
L 182.608182 285.18125 
L 194.444545 276.12125 
L 206.280909 287.82375 
L 218.117273 287.530139 
L 229.953636 272.49725 
L 241.79 260.197614 
L 253.626364 265.802917 
L 265.462727 270.545865 
L 277.299091 261.02125 
L 289.135455 264.04125 
L 300.971818 275.9325 
L 312.808182 265.284779 
L 324.644545 261.692361 
L 336.480909 255.140197 
L 348.317273 265.09825 
L 360.153636 256.994583 
L 371.99 274.61125 
L 383.826364 275.070815 
L 395.662727 261.39875 
L 407.499091 269.11485 
L 419.335455 267.293558 
L 431.171818 271.087917 
L 443.008182 276.12125 
L 454.844545 268.415043 
L 466.680909 282.362583 
L 478.517273 310.412863 
L 490.353636 334.728125 
L 502.19 363.335189 
" style="fill:none;stroke:#94c4df;stroke-linecap:square;stroke-width:1.5;"/>
   </g>
   <g id="line2d_62">
    <path clip-path="url(#p1ea613ece2)" d="M 111.59 433.16125 
L 123.426364 348.60125 
L 135.262727 253.47125 
L 147.099091 242.90125 
L 158.935455 248.18625 
L 170.771818 234.44525 
L 182.608182 239.377917 
L 194.444545 261.02125 
L 206.280909 248.18625 
L 218.117273 285.18125 
L 229.953636 270.38325 
L 241.79 279.415795 
L 253.626364 272.849583 
L 265.462727 272.172019 
L 277.299091 265.55125 
L 289.135455 287.999917 
L 300.971818 270.6475 
L 312.808182 273.989485 
L 324.644545 265.215694 
L 336.480909 267.379145 
L 348.317273 258.75625 
L 360.153636 264.04125 
L 371.99 259.236705 
L 383.826364 268.636902 
L 395.662727 259.637083 
L 407.499091 262.35005 
L 419.335455 264.854327 
L 431.171818 267.173102 
L 443.008182 264.79625 
L 454.844545 274.975733 
L 466.680909 295.75125 
L 478.517273 312.458669 
L 490.353636 334.0675 
L 502.19 359.491553 
" style="fill:none;stroke:#94c4df;stroke-linecap:square;stroke-width:1.5;"/>
   </g>
   <g id="line2d_63">
    <path clip-path="url(#p1ea613ece2)" d="M 111.59 52.64125 
L 123.426364 179.48125 
L 135.262727 200.62125 
L 147.099091 221.76125 
L 158.935455 221.76125 
L 170.771818 264.04125 
L 182.608182 285.18125 
L 194.444545 273.10125 
L 206.280909 266.68375 
L 218.117273 268.739028 
L 229.953636 272.49725 
L 241.79 260.197614 
L 253.626364 272.849583 
L 265.462727 273.798173 
L 277.299091 258.00125 
L 289.135455 264.04125 
L 300.971818 273.29 
L 312.808182 261.554191 
L 324.644545 264.04125 
L 336.480909 270.717039 
L 348.317273 268.26925 
L 360.153636 261.02125 
L 371.99 267.884886 
L 383.826364 262.202989 
L 395.662727 262.279583 
L 407.499091 260.65885 
L 419.335455 269.732788 
L 431.171818 264.824213 
L 443.008182 279.89625 
L 454.844545 288.097112 
L 466.680909 300.683917 
L 478.517273 321.323831 
L 490.353636 341.995 
L 502.19 372.94428 
" style="fill:none;stroke:#94c4df;stroke-linecap:square;stroke-width:1.5;"/>
   </g>
   <g id="line2d_64">
    <path clip-path="url(#p1ea613ece2)" d="M 111.59 306.32125 
L 123.426364 221.76125 
L 135.262727 211.19125 
L 147.099091 242.90125 
L 158.935455 227.04625 
L 170.771818 221.76125 
L 182.608182 218.237917 
L 194.444545 221.76125 
L 206.280909 211.19125 
L 218.117273 228.807917 
L 229.953636 234.44525 
L 241.79 244.823068 
L 253.626364 212.952917 
L 265.462727 234.770481 
L 277.299091 232.33125 
L 289.135455 210.486583 
L 300.971818 233.6525 
L 312.808182 234.196544 
L 324.644545 229.982361 
L 336.480909 223.986513 
L 348.317273 237.61625 
L 360.153636 230.82125 
L 371.99 241.940341 
L 383.826364 241.98212 
L 395.662727 236.735417 
L 407.499091 231.90845 
L 419.335455 247.779712 
L 431.171818 235.07162 
L 443.008182 225.53625 
L 454.844545 247.275043 
L 466.680909 261.92725 
L 478.517273 282.453508 
L 490.353636 330.10375 
L 502.19 375.506705 
" style="fill:none;stroke:#000000;stroke-linecap:square;stroke-width:1.5;"/>
   </g>
   <g id="line2d_65">
    <path clip-path="url(#p1ea613ece2)" d="M 111.59 179.48125 
L 123.426364 200.62125 
L 135.262727 211.19125 
L 147.099091 214.714583 
L 158.935455 237.61625 
L 170.771818 247.12925 
L 182.608182 242.90125 
L 194.444545 218.74125 
L 206.280909 232.33125 
L 218.117273 242.90125 
L 229.953636 234.44525 
L 241.79 233.292159 
L 253.626364 230.569583 
L 265.462727 244.527404 
L 277.299091 238.37125 
L 289.135455 227.398583 
L 300.971818 245.54375 
L 312.808182 244.144779 
L 324.644545 234.680139 
L 336.480909 223.986513 
L 348.317273 241.84425 
L 360.153636 231.827917 
L 371.99 232.33125 
L 383.826364 234.629076 
L 395.662727 242.020417 
L 407.499091 232.75405 
L 419.335455 229.892019 
L 431.171818 238.203472 
L 443.008182 236.10625 
L 454.844545 255.293664 
L 466.680909 261.92725 
L 478.517273 292.68254 
L 490.353636 325.479375 
L 502.19 396.646705 
" style="fill:none;stroke:#000000;stroke-linecap:square;stroke-width:1.5;"/>
   </g>
   <g id="line2d_66">
    <path clip-path="url(#p1ea613ece2)" d="M 111.59 306.32125 
L 123.426364 242.90125 
L 135.262727 211.19125 
L 147.099091 221.76125 
L 158.935455 216.47625 
L 170.771818 242.90125 
L 182.608182 232.33125 
L 194.444545 224.78125 
L 206.280909 224.40375 
L 218.117273 238.203472 
L 229.953636 238.67325 
L 241.79 223.683068 
L 253.626364 212.952917 
L 265.462727 223.387404 
L 277.299091 227.80125 
L 289.135455 237.263917 
L 300.971818 241.58 
L 312.808182 254.093015 
L 324.644545 237.029028 
L 336.480909 230.662303 
L 348.317273 231.27425 
L 360.153636 240.887917 
L 371.99 234.253068 
L 383.826364 220.84212 
L 395.662727 234.092917 
L 407.499091 231.06285 
L 419.335455 226.639712 
L 431.171818 230.373843 
L 443.008182 236.86125 
L 454.844545 256.022629 
L 466.680909 255.58525 
L 478.517273 283.135444 
L 490.353636 328.121875 
L 502.19 389.600038 
" style="fill:none;stroke:#000000;stroke-linecap:square;stroke-width:1.5;"/>
   </g>
   <g id="line2d_67">
    <path clip-path="url(#p1ea613ece2)" d="M 111.59 179.48125 
L 123.426364 179.48125 
L 135.262727 190.05125 
L 147.099091 221.76125 
L 158.935455 211.19125 
L 170.771818 217.53325 
L 182.608182 221.76125 
L 194.444545 209.68125 
L 206.280909 224.40375 
L 218.117273 238.203472 
L 229.953636 228.10325 
L 241.79 235.213977 
L 253.626364 239.377917 
L 265.462727 218.508942 
L 277.299091 221.76125 
L 289.135455 238.67325 
L 300.971818 228.3675 
L 312.808182 237.927132 
L 324.644545 235.854583 
L 336.480909 249.577039 
L 348.317273 234.44525 
L 360.153636 226.794583 
L 371.99 237.135795 
L 383.826364 228.195163 
L 395.662727 224.40375 
L 407.499091 239.51885 
L 419.335455 238.022788 
L 431.171818 237.420509 
L 443.008182 253.47125 
L 454.844545 250.190905 
L 466.680909 269.678583 
L 478.517273 294.046411 
L 490.353636 338.03125 
L 502.19 387.037614 
" style="fill:none;stroke:#000000;stroke-linecap:square;stroke-width:1.5;"/>
   </g>
   <g id="line2d_68">
    <path clip-path="url(#p1ea613ece2)" d="M 111.59 179.48125 
L 123.426364 158.34125 
L 135.262727 190.05125 
L 147.099091 221.76125 
L 158.935455 237.61625 
L 170.771818 225.98925 
L 182.608182 235.854583 
L 194.444545 242.90125 
L 206.280909 224.40375 
L 218.117273 219.412361 
L 229.953636 221.76125 
L 241.79 231.370341 
L 253.626364 232.33125 
L 265.462727 238.022788 
L 277.299091 238.37125 
L 289.135455 231.626583 
L 300.971818 236.295 
L 312.808182 227.978897 
L 324.644545 228.807917 
L 336.480909 230.662303 
L 348.317273 233.38825 
L 360.153636 241.894583 
L 371.99 234.253068 
L 383.826364 240.143859 
L 395.662727 251.709583 
L 407.499091 231.90845 
L 419.335455 233.957404 
L 431.171818 245.250139 
L 443.008182 239.12625 
L 454.844545 246.546078 
L 466.680909 247.833917 
L 478.517273 281.089637 
L 490.353636 317.551875 
L 502.19 380.631553 
" style="fill:none;stroke:#000000;stroke-linecap:square;stroke-width:1.5;"/>
   </g>
   <g id="line2d_69">
    <path clip-path="url(#p1ea613ece2)" d="M 111.59 179.48125 
L 123.426364 200.62125 
L 135.262727 200.62125 
L 147.099091 221.76125 
L 158.935455 232.33125 
L 170.771818 217.53325 
L 182.608182 218.237917 
L 194.444545 215.72125 
L 206.280909 219.11875 
L 218.117273 221.76125 
L 229.953636 225.98925 
L 241.79 237.135795 
L 253.626364 253.47125 
L 265.462727 229.892019 
L 277.299091 238.37125 
L 289.135455 233.035917 
L 300.971818 236.295 
L 312.808182 229.222426 
L 324.644545 245.250139 
L 336.480909 238.450724 
L 348.317273 237.61625 
L 360.153636 232.834583 
L 371.99 238.096705 
L 383.826364 237.386467 
L 395.662727 228.807917 
L 407.499091 241.21005 
L 419.335455 226.639712 
L 431.171818 235.854583 
L 443.008182 233.84125 
L 454.844545 247.275043 
L 466.680909 259.81325 
L 478.517273 283.817379 
L 490.353636 324.81875 
L 502.19 373.584886 
" style="fill:none;stroke:#000000;stroke-linecap:square;stroke-width:1.5;"/>
   </g>
   <g id="line2d_70">
    <path clip-path="url(#p1ea613ece2)" d="M 111.59 179.48125 
L 123.426364 221.76125 
L 135.262727 211.19125 
L 147.099091 214.714583 
L 158.935455 232.33125 
L 170.771818 217.53325 
L 182.608182 225.284583 
L 194.444545 242.90125 
L 206.280909 240.25875 
L 218.117273 219.412361 
L 229.953636 221.76125 
L 241.79 239.057614 
L 253.626364 219.999583 
L 265.462727 231.518173 
L 277.299091 241.39125 
L 289.135455 235.854583 
L 300.971818 242.90125 
L 312.808182 239.170662 
L 324.644545 235.854583 
L 336.480909 239.563355 
L 348.317273 254.52825 
L 360.153636 233.84125 
L 371.99 245.783977 
L 383.826364 234.629076 
L 395.662727 238.497083 
L 407.499091 239.51885 
L 419.335455 247.779712 
L 431.171818 240.552361 
L 443.008182 240.63625 
L 454.844545 243.630216 
L 466.680909 254.880583 
L 478.517273 284.499315 
L 490.353636 313.588125 
L 502.19 368.460038 
" style="fill:none;stroke:#000000;stroke-linecap:square;stroke-width:1.5;"/>
   </g>
   <g id="line2d_71">
    <path clip-path="url(#p1ea613ece2)" d="M 111.59 179.48125 
L 123.426364 221.76125 
L 135.262727 221.76125 
L 147.099091 221.76125 
L 158.935455 232.33125 
L 170.771818 225.98925 
L 182.608182 249.947917 
L 194.444545 209.68125 
L 206.280909 232.33125 
L 218.117273 233.505694 
L 229.953636 240.78725 
L 241.79 229.448523 
L 253.626364 230.569583 
L 265.462727 244.527404 
L 277.299091 241.39125 
L 289.135455 233.035917 
L 300.971818 234.97375 
L 312.808182 227.978897 
L 324.644545 238.203472 
L 336.480909 234.000197 
L 348.317273 238.67325 
L 360.153636 230.82125 
L 371.99 246.744886 
L 383.826364 239.224728 
L 395.662727 237.61625 
L 407.499091 242.90125 
L 419.335455 233.957404 
L 431.171818 240.552361 
L 443.008182 240.63625 
L 454.844545 247.275043 
L 466.680909 264.745917 
L 478.517273 289.272863 
L 490.353636 327.46125 
L 502.19 383.834583 
" style="fill:none;stroke:#000000;stroke-linecap:square;stroke-width:1.5;"/>
   </g>
   <g id="line2d_72">
    <path clip-path="url(#p1ea613ece2)" d="M 111.59 179.48125 
L 123.426364 200.62125 
L 135.262727 211.19125 
L 147.099091 221.76125 
L 158.935455 221.76125 
L 170.771818 209.07725 
L 182.608182 228.807917 
L 194.444545 227.80125 
L 206.280909 224.40375 
L 218.117273 247.599028 
L 229.953636 234.44525 
L 241.79 233.292159 
L 253.626364 228.807917 
L 265.462727 226.639712 
L 277.299091 230.82125 
L 289.135455 244.310583 
L 300.971818 231.01 
L 312.808182 235.440074 
L 324.644545 239.377917 
L 336.480909 236.225461 
L 348.317273 237.61625 
L 360.153636 235.854583 
L 371.99 247.705795 
L 383.826364 241.98212 
L 395.662727 226.165417 
L 407.499091 224.29805 
L 419.335455 236.396635 
L 431.171818 234.288657 
L 443.008182 234.59625 
L 454.844545 246.546078 
L 466.680909 265.450583 
L 478.517273 285.863185 
L 490.353636 324.158125 
L 502.19 396.006098 
" style="fill:none;stroke:#000000;stroke-linecap:square;stroke-width:1.5;"/>
   </g>
   <g id="line2d_73">
    <path clip-path="url(#p1ea613ece2)" d="M 111.59 52.64125 
L 123.426364 158.34125 
L 135.262727 211.19125 
L 147.099091 214.714583 
L 158.935455 216.47625 
L 170.771818 230.21725 
L 182.608182 246.424583 
L 194.444545 236.86125 
L 206.280909 240.25875 
L 218.117273 226.459028 
L 229.953636 225.98925 
L 241.79 239.057614 
L 253.626364 239.377917 
L 265.462727 238.022788 
L 277.299091 230.82125 
L 289.135455 242.90125 
L 300.971818 228.3675 
L 312.808182 235.440074 
L 324.644545 228.807917 
L 336.480909 231.774934 
L 348.317273 225.98925 
L 360.153636 230.82125 
L 371.99 230.409432 
L 383.826364 225.437772 
L 395.662727 231.450417 
L 407.499091 241.21005 
L 419.335455 251.032019 
L 431.171818 235.854583 
L 443.008182 246.67625 
L 454.844545 252.377802 
L 466.680909 271.792583 
L 478.517273 305.639315 
L 490.353636 351.24375 
L 502.19 387.037614 
" style="fill:none;stroke:#000000;stroke-linecap:square;stroke-width:1.5;"/>
   </g>
   <g id="line2d_74">
    <path clip-path="url(#p1ea613ece2)" d="M 99.753636 433.16125 
" style="fill:none;stroke:#000000;stroke-linecap:square;stroke-width:1.5;"/>
   </g>
   <g id="line2d_75">
    <path clip-path="url(#p1ea613ece2)" d="M 99.753636 433.16125 
" style="fill:none;stroke:#d0e1f2;stroke-linecap:square;stroke-width:1.5;"/>
   </g>
   <g id="line2d_76">
    <path clip-path="url(#p1ea613ece2)" d="M 99.753636 433.16125 
" style="fill:none;stroke:#94c4df;stroke-linecap:square;stroke-width:1.5;"/>
   </g>
   <g id="line2d_77">
    <path clip-path="url(#p1ea613ece2)" d="M 99.753636 433.16125 
" style="fill:none;stroke:#4a98c9;stroke-linecap:square;stroke-width:1.5;"/>
   </g>
   <g id="line2d_78">
    <path clip-path="url(#p1ea613ece2)" d="M 99.753636 433.16125 
" style="fill:none;stroke:#1764ab;stroke-linecap:square;stroke-width:1.5;"/>
   </g>
   <g id="line2d_79">
    <path clip-path="url(#p1ea613ece2)" d="M 99.753636 433.16125 
" style="fill:none;stroke:#08306b;stroke-linecap:square;stroke-width:1.5;"/>
   </g>
   <g id="line2d_80">
    <path clip-path="url(#p1ea613ece2)" d="M 99.753636 433.16125 
" style="fill:none;stroke:#000000;stroke-linecap:square;stroke-width:1.5;"/>
   </g>
   <g id="line2d_81">
    <path clip-path="url(#p1ea613ece2)" d="M 99.753636 433.16125 
" style="fill:none;stroke:#000000;stroke-dasharray:1.5,2.475;stroke-dashoffset:0;stroke-width:1.5;"/>
   </g>
   <g id="line2d_82">
    <path clip-path="url(#p1ea613ece2)" d="M 99.753636 433.16125 
" style="fill:none;stroke:#000000;stroke-linecap:square;stroke-width:1.5;"/>
   </g>
   <g id="line2d_83">
    <path clip-path="url(#p1ea613ece2)" d="M 99.753636 433.16125 
" style="fill:none;stroke:#000000;stroke-dasharray:5.55,2.4;stroke-dashoffset:0;stroke-width:1.5;"/>
   </g>
   <g id="line2d_84">
    <path clip-path="url(#p1ea613ece2)" d="M 99.753636 433.16125 
" style="fill:none;stroke:#000000;stroke-dasharray:9.6,2.4,1.5,2.4;stroke-dashoffset:0;stroke-width:1.5;"/>
   </g>
   <g id="line2d_85">
    <path clip-path="url(#p1ea613ece2)" d="M 99.753636 433.16125 
" style="fill:none;stroke:#000000;stroke-dasharray:9.6,2.4,1.5,2.4;stroke-dashoffset:0;stroke-width:1.5;"/>
   </g>
   <g id="patch_3">
    <path d="M 111.59 433.16125 
L 111.59 52.64125 
" style="fill:none;stroke:#000000;stroke-linecap:square;stroke-linejoin:miter;stroke-width:0.8;"/>
   </g>
   <g id="patch_4">
    <path d="M 502.19 433.16125 
L 502.19 52.64125 
" style="fill:none;stroke:#000000;stroke-linecap:square;stroke-linejoin:miter;stroke-width:0.8;"/>
   </g>
   <g id="patch_5">
    <path d="M 111.59 433.16125 
L 502.19 433.16125 
" style="fill:none;stroke:#000000;stroke-linecap:square;stroke-linejoin:miter;stroke-width:0.8;"/>
   </g>
   <g id="patch_6">
    <path d="M 111.59 52.64125 
L 502.19 52.64125 
" style="fill:none;stroke:#000000;stroke-linecap:square;stroke-linejoin:miter;stroke-width:0.8;"/>
   </g>
   <g id="text_16">
    <!-- CANCER NORMALIZED COUNT -->
    <g transform="translate(156.343125 21.515625)scale(0.2 -0.2)">
     <use xlink:href="#Arial-BoldMT-67"/>
     <use x="72.216797" xlink:href="#Arial-BoldMT-65"/>
     <use x="144.433594" xlink:href="#Arial-BoldMT-78"/>
     <use x="216.650391" xlink:href="#Arial-BoldMT-67"/>
     <use x="288.867188" xlink:href="#Arial-BoldMT-69"/>
     <use x="355.566406" xlink:href="#Arial-BoldMT-82"/>
     <use x="427.783203" xlink:href="#Arial-BoldMT-32"/>
     <use x="455.566406" xlink:href="#Arial-BoldMT-78"/>
     <use x="527.783203" xlink:href="#Arial-BoldMT-79"/>
     <use x="605.566406" xlink:href="#Arial-BoldMT-82"/>
     <use x="677.783203" xlink:href="#Arial-BoldMT-77"/>
     <use x="761.083984" xlink:href="#Arial-BoldMT-65"/>
     <use x="833.300781" xlink:href="#Arial-BoldMT-76"/>
     <use x="894.384766" xlink:href="#Arial-BoldMT-73"/>
     <use x="922.167969" xlink:href="#Arial-BoldMT-90"/>
     <use x="983.251953" xlink:href="#Arial-BoldMT-69"/>
     <use x="1049.951172" xlink:href="#Arial-BoldMT-68"/>
     <use x="1122.167969" xlink:href="#Arial-BoldMT-32"/>
     <use x="1149.951172" xlink:href="#Arial-BoldMT-67"/>
     <use x="1222.167969" xlink:href="#Arial-BoldMT-79"/>
     <use x="1299.951172" xlink:href="#Arial-BoldMT-85"/>
     <use x="1372.167969" xlink:href="#Arial-BoldMT-78"/>
     <use x="1444.384766" xlink:href="#Arial-BoldMT-84"/>
    </g>
    <!-- ACROSS RADIUS AT TIME 4 -->
    <defs>
     <path d="M 31.15625 0 
L 31.15625 14.40625 
L 1.859375 14.40625 
L 1.859375 26.421875 
L 32.90625 71.875 
L 44.4375 71.875 
L 44.4375 26.46875 
L 53.328125 26.46875 
L 53.328125 14.40625 
L 44.4375 14.40625 
L 44.4375 0 
z
M 31.15625 26.46875 
L 31.15625 50.921875 
L 14.703125 26.46875 
z
" id="Arial-BoldMT-52"/>
    </defs>
    <g transform="translate(171.89625 42.64125)scale(0.2 -0.2)">
     <use xlink:href="#Arial-BoldMT-65"/>
     <use x="72.216797" xlink:href="#Arial-BoldMT-67"/>
     <use x="144.433594" xlink:href="#Arial-BoldMT-82"/>
     <use x="216.650391" xlink:href="#Arial-BoldMT-79"/>
     <use x="294.433594" xlink:href="#Arial-BoldMT-83"/>
     <use x="361.132812" xlink:href="#Arial-BoldMT-83"/>
     <use x="427.832031" xlink:href="#Arial-BoldMT-32"/>
     <use x="455.615234" xlink:href="#Arial-BoldMT-82"/>
     <use x="527.832031" xlink:href="#Arial-BoldMT-65"/>
     <use x="600.048828" xlink:href="#Arial-BoldMT-68"/>
     <use x="672.265625" xlink:href="#Arial-BoldMT-73"/>
     <use x="700.048828" xlink:href="#Arial-BoldMT-85"/>
     <use x="772.265625" xlink:href="#Arial-BoldMT-83"/>
     <use x="838.964844" xlink:href="#Arial-BoldMT-32"/>
     <use x="866.701172" xlink:href="#Arial-BoldMT-65"/>
     <use x="938.808594" xlink:href="#Arial-BoldMT-84"/>
     <use x="999.892578" xlink:href="#Arial-BoldMT-32"/>
     <use x="1027.675781" xlink:href="#Arial-BoldMT-84"/>
     <use x="1088.759766" xlink:href="#Arial-BoldMT-73"/>
     <use x="1116.542969" xlink:href="#Arial-BoldMT-77"/>
     <use x="1199.84375" xlink:href="#Arial-BoldMT-69"/>
     <use x="1266.542969" xlink:href="#Arial-BoldMT-32"/>
     <use x="1294.326172" xlink:href="#Arial-BoldMT-52"/>
    </g>
   </g>
   <g id="legend_1">
    <g id="line2d_86">
     <path d="M 511.19 65.739687 
L 531.19 65.739687 
" style="fill:none;stroke:#000000;stroke-linecap:square;stroke-width:1.5;"/>
    </g>
    <g id="line2d_87"/>
    <g id="text_17">
     <!-- 0 -->
     <g transform="translate(539.19 69.239687)scale(0.1 -0.1)">
      <use xlink:href="#DejaVuSans-48"/>
     </g>
    </g>
    <g id="line2d_88">
     <path d="M 511.19 80.417812 
L 531.19 80.417812 
" style="fill:none;stroke:#d0e1f2;stroke-linecap:square;stroke-width:1.5;"/>
    </g>
    <g id="line2d_89"/>
    <g id="text_18">
     <!-- 100 -->
     <g transform="translate(539.19 83.917812)scale(0.1 -0.1)">
      <use xlink:href="#DejaVuSans-49"/>
      <use x="63.623047" xlink:href="#DejaVuSans-48"/>
      <use x="127.246094" xlink:href="#DejaVuSans-48"/>
     </g>
    </g>
    <g id="line2d_90">
     <path d="M 511.19 95.095937 
L 531.19 95.095937 
" style="fill:none;stroke:#94c4df;stroke-linecap:square;stroke-width:1.5;"/>
    </g>
    <g id="line2d_91"/>
    <g id="text_19">
     <!-- 500 -->
     <g transform="translate(539.19 98.595937)scale(0.1 -0.1)">
      <use xlink:href="#DejaVuSans-53"/>
      <use x="63.623047" xlink:href="#DejaVuSans-48"/>
      <use x="127.246094" xlink:href="#DejaVuSans-48"/>
     </g>
    </g>
    <g id="line2d_92">
     <path d="M 511.19 109.774062 
L 531.19 109.774062 
" style="fill:none;stroke:#4a98c9;stroke-linecap:square;stroke-width:1.5;"/>
    </g>
    <g id="line2d_93"/>
    <g id="text_20">
     <!-- 1000 -->
     <g transform="translate(539.19 113.274062)scale(0.1 -0.1)">
      <use xlink:href="#DejaVuSans-49"/>
      <use x="63.623047" xlink:href="#DejaVuSans-48"/>
      <use x="127.246094" xlink:href="#DejaVuSans-48"/>
      <use x="190.869141" xlink:href="#DejaVuSans-48"/>
     </g>
    </g>
    <g id="line2d_94">
     <path d="M 511.19 124.452187 
L 531.19 124.452187 
" style="fill:none;stroke:#1764ab;stroke-linecap:square;stroke-width:1.5;"/>
    </g>
    <g id="line2d_95"/>
    <g id="text_21">
     <!-- 5000 -->
     <g transform="translate(539.19 127.952187)scale(0.1 -0.1)">
      <use xlink:href="#DejaVuSans-53"/>
      <use x="63.623047" xlink:href="#DejaVuSans-48"/>
      <use x="127.246094" xlink:href="#DejaVuSans-48"/>
      <use x="190.869141" xlink:href="#DejaVuSans-48"/>
     </g>
    </g>
    <g id="line2d_96">
     <path d="M 511.19 139.130312 
L 531.19 139.130312 
" style="fill:none;stroke:#08306b;stroke-linecap:square;stroke-width:1.5;"/>
    </g>
    <g id="line2d_97"/>
    <g id="text_22">
     <!-- 10000 -->
     <g transform="translate(539.19 142.630312)scale(0.1 -0.1)">
      <use xlink:href="#DejaVuSans-49"/>
      <use x="63.623047" xlink:href="#DejaVuSans-48"/>
      <use x="127.246094" xlink:href="#DejaVuSans-48"/>
      <use x="190.869141" xlink:href="#DejaVuSans-48"/>
      <use x="254.492188" xlink:href="#DejaVuSans-48"/>
     </g>
    </g>
    <g id="line2d_98">
     <path d="M 511.19 153.808437 
L 531.19 153.808437 
" style="fill:none;stroke:#000000;stroke-linecap:square;stroke-width:1.5;"/>
    </g>
    <g id="line2d_99"/>
    <g id="text_23">
     <!-- 0 -->
     <g transform="translate(539.19 157.308437)scale(0.1 -0.1)">
      <use xlink:href="#DejaVuSans-48"/>
     </g>
    </g>
    <g id="line2d_100">
     <path d="M 511.19 168.486562 
L 531.19 168.486562 
" style="fill:none;stroke:#000000;stroke-dasharray:1.5,2.475;stroke-dashoffset:0;stroke-width:1.5;"/>
    </g>
    <g id="line2d_101"/>
    <g id="text_24">
     <!-- 250 -->
     <g transform="translate(539.19 171.986562)scale(0.1 -0.1)">
      <use xlink:href="#DejaVuSans-50"/>
      <use x="63.623047" xlink:href="#DejaVuSans-53"/>
      <use x="127.246094" xlink:href="#DejaVuSans-48"/>
     </g>
    </g>
    <g id="line2d_102">
     <path d="M 511.19 183.164687 
L 531.19 183.164687 
" style="fill:none;stroke:#000000;stroke-linecap:square;stroke-width:1.5;"/>
    </g>
    <g id="line2d_103"/>
    <g id="text_25">
     <!-- 500 -->
     <g transform="translate(539.19 186.664687)scale(0.1 -0.1)">
      <use xlink:href="#DejaVuSans-53"/>
      <use x="63.623047" xlink:href="#DejaVuSans-48"/>
      <use x="127.246094" xlink:href="#DejaVuSans-48"/>
     </g>
    </g>
    <g id="line2d_104">
     <path d="M 511.19 197.842812 
L 531.19 197.842812 
" style="fill:none;stroke:#000000;stroke-dasharray:5.55,2.4;stroke-dashoffset:0;stroke-width:1.5;"/>
    </g>
    <g id="line2d_105"/>
    <g id="text_26">
     <!-- 1000 -->
     <g transform="translate(539.19 201.342812)scale(0.1 -0.1)">
      <use xlink:href="#DejaVuSans-49"/>
      <use x="63.623047" xlink:href="#DejaVuSans-48"/>
      <use x="127.246094" xlink:href="#DejaVuSans-48"/>
      <use x="190.869141" xlink:href="#DejaVuSans-48"/>
     </g>
    </g>
    <g id="line2d_106">
     <path d="M 511.19 212.520937 
L 531.19 212.520937 
" style="fill:none;stroke:#000000;stroke-dasharray:9.6,2.4,1.5,2.4;stroke-dashoffset:0;stroke-width:1.5;"/>
    </g>
    <g id="line2d_107"/>
    <g id="text_27">
     <!-- 5000 -->
     <g transform="translate(539.19 216.020937)scale(0.1 -0.1)">
      <use xlink:href="#DejaVuSans-53"/>
      <use x="63.623047" xlink:href="#DejaVuSans-48"/>
      <use x="127.246094" xlink:href="#DejaVuSans-48"/>
      <use x="190.869141" xlink:href="#DejaVuSans-48"/>
     </g>
    </g>
    <g id="line2d_108">
     <path d="M 511.19 227.199062 
L 531.19 227.199062 
" style="fill:none;stroke:#000000;stroke-dasharray:9.6,2.4,1.5,2.4;stroke-dashoffset:0;stroke-width:1.5;"/>
    </g>
    <g id="line2d_109"/>
    <g id="text_28">
     <!-- 10000 -->
     <g transform="translate(539.19 230.699062)scale(0.1 -0.1)">
      <use xlink:href="#DejaVuSans-49"/>
      <use x="63.623047" xlink:href="#DejaVuSans-48"/>
      <use x="127.246094" xlink:href="#DejaVuSans-48"/>
      <use x="190.869141" xlink:href="#DejaVuSans-48"/>
      <use x="254.492188" xlink:href="#DejaVuSans-48"/>
     </g>
    </g>
   </g>
  </g>
 </g>
 <defs>
  <clipPath id="p1ea613ece2">
   <rect height="380.52" width="390.6" x="111.59" y="52.64125"/>
  </clipPath>
 </defs>
</svg>
