<?xml version="1.0" encoding="utf-8" standalone="no"?>
<!DOCTYPE svg PUBLIC "-//W3C//DTD SVG 1.1//EN"
  "http://www.w3.org/Graphics/SVG/1.1/DTD/svg11.dtd">
<!-- Created with matplotlib (https://matplotlib.org/) -->
<svg height="504.658125pt" version="1.1" viewBox="0 0 610.843125 504.658125" width="610.843125pt" xmlns="http://www.w3.org/2000/svg" xmlns:xlink="http://www.w3.org/1999/xlink">
 <defs>
  <style type="text/css">
*{stroke-linecap:butt;stroke-linejoin:round;}
  </style>
 </defs>
 <g id="figure_1">
  <g id="patch_1">
   <path d="M 0 504.658125 
L 610.843125 504.658125 
L 610.843125 -0 
L 0 -0 
z
" style="fill:#ffffff;"/>
  </g>
  <g id="axes_1">
   <g id="patch_2">
    <path d="M 140.230625 433.16125 
L 530.830625 433.16125 
L 530.830625 52.64125 
L 140.230625 52.64125 
z
" style="fill:#ffffff;"/>
   </g>
   <g id="matplotlib.axis_1">
    <g id="xtick_1">
     <g id="line2d_1">
      <defs>
       <path d="M 0 0 
L 0 3.5 
" id="m5af1f40216" style="stroke:#000000;stroke-width:0.8;"/>
      </defs>
      <g>
       <use style="stroke:#000000;stroke-width:0.8;" x="187.57608" xlink:href="#m5af1f40216" y="433.16125"/>
      </g>
     </g>
     <g id="text_1">
      <!-- 5 -->
      <defs>
       <path d="M 10.796875 72.90625 
L 49.515625 72.90625 
L 49.515625 64.59375 
L 19.828125 64.59375 
L 19.828125 46.734375 
Q 21.96875 47.46875 24.109375 47.828125 
Q 26.265625 48.1875 28.421875 48.1875 
Q 40.625 48.1875 47.75 41.5 
Q 54.890625 34.8125 54.890625 23.390625 
Q 54.890625 11.625 47.5625 5.09375 
Q 40.234375 -1.421875 26.90625 -1.421875 
Q 22.3125 -1.421875 17.546875 -0.640625 
Q 12.796875 0.140625 7.71875 1.703125 
L 7.71875 11.625 
Q 12.109375 9.234375 16.796875 8.0625 
Q 21.484375 6.890625 26.703125 6.890625 
Q 35.15625 6.890625 40.078125 11.328125 
Q 45.015625 15.765625 45.015625 23.390625 
Q 45.015625 31 40.078125 35.4375 
Q 35.15625 39.890625 26.703125 39.890625 
Q 22.75 39.890625 18.8125 39.015625 
Q 14.890625 38.140625 10.796875 36.28125 
z
" id="DejaVuSans-53"/>
      </defs>
      <g transform="translate(178.03233 462.956562)scale(0.3 -0.3)">
       <use xlink:href="#DejaVuSans-53"/>
      </g>
     </g>
    </g>
    <g id="xtick_2">
     <g id="line2d_2">
      <g>
       <use style="stroke:#000000;stroke-width:0.8;" x="246.757898" xlink:href="#m5af1f40216" y="433.16125"/>
      </g>
     </g>
     <g id="text_2">
      <!-- 10 -->
      <defs>
       <path d="M 12.40625 8.296875 
L 28.515625 8.296875 
L 28.515625 63.921875 
L 10.984375 60.40625 
L 10.984375 69.390625 
L 28.421875 72.90625 
L 38.28125 72.90625 
L 38.28125 8.296875 
L 54.390625 8.296875 
L 54.390625 0 
L 12.40625 0 
z
" id="DejaVuSans-49"/>
       <path d="M 31.78125 66.40625 
Q 24.171875 66.40625 20.328125 58.90625 
Q 16.5 51.421875 16.5 36.375 
Q 16.5 21.390625 20.328125 13.890625 
Q 24.171875 6.390625 31.78125 6.390625 
Q 39.453125 6.390625 43.28125 13.890625 
Q 47.125 21.390625 47.125 36.375 
Q 47.125 51.421875 43.28125 58.90625 
Q 39.453125 66.40625 31.78125 66.40625 
z
M 31.78125 74.21875 
Q 44.046875 74.21875 50.515625 64.515625 
Q 56.984375 54.828125 56.984375 36.375 
Q 56.984375 17.96875 50.515625 8.265625 
Q 44.046875 -1.421875 31.78125 -1.421875 
Q 19.53125 -1.421875 13.0625 8.265625 
Q 6.59375 17.96875 6.59375 36.375 
Q 6.59375 54.828125 13.0625 64.515625 
Q 19.53125 74.21875 31.78125 74.21875 
z
" id="DejaVuSans-48"/>
      </defs>
      <g transform="translate(227.670398 462.956562)scale(0.3 -0.3)">
       <use xlink:href="#DejaVuSans-49"/>
       <use x="63.623047" xlink:href="#DejaVuSans-48"/>
      </g>
     </g>
    </g>
    <g id="xtick_3">
     <g id="line2d_3">
      <g>
       <use style="stroke:#000000;stroke-width:0.8;" x="305.939716" xlink:href="#m5af1f40216" y="433.16125"/>
      </g>
     </g>
     <g id="text_3">
      <!-- 15 -->
      <g transform="translate(286.852216 462.956562)scale(0.3 -0.3)">
       <use xlink:href="#DejaVuSans-49"/>
       <use x="63.623047" xlink:href="#DejaVuSans-53"/>
      </g>
     </g>
    </g>
    <g id="xtick_4">
     <g id="line2d_4">
      <g>
       <use style="stroke:#000000;stroke-width:0.8;" x="365.121534" xlink:href="#m5af1f40216" y="433.16125"/>
      </g>
     </g>
     <g id="text_4">
      <!-- 20 -->
      <defs>
       <path d="M 19.1875 8.296875 
L 53.609375 8.296875 
L 53.609375 0 
L 7.328125 0 
L 7.328125 8.296875 
Q 12.9375 14.109375 22.625 23.890625 
Q 32.328125 33.6875 34.8125 36.53125 
Q 39.546875 41.84375 41.421875 45.53125 
Q 43.3125 49.21875 43.3125 52.78125 
Q 43.3125 58.59375 39.234375 62.25 
Q 35.15625 65.921875 28.609375 65.921875 
Q 23.96875 65.921875 18.8125 64.3125 
Q 13.671875 62.703125 7.8125 59.421875 
L 7.8125 69.390625 
Q 13.765625 71.78125 18.9375 73 
Q 24.125 74.21875 28.421875 74.21875 
Q 39.75 74.21875 46.484375 68.546875 
Q 53.21875 62.890625 53.21875 53.421875 
Q 53.21875 48.921875 51.53125 44.890625 
Q 49.859375 40.875 45.40625 35.40625 
Q 44.1875 33.984375 37.640625 27.21875 
Q 31.109375 20.453125 19.1875 8.296875 
z
" id="DejaVuSans-50"/>
      </defs>
      <g transform="translate(346.034034 462.956562)scale(0.3 -0.3)">
       <use xlink:href="#DejaVuSans-50"/>
       <use x="63.623047" xlink:href="#DejaVuSans-48"/>
      </g>
     </g>
    </g>
    <g id="xtick_5">
     <g id="line2d_5">
      <g>
       <use style="stroke:#000000;stroke-width:0.8;" x="424.303352" xlink:href="#m5af1f40216" y="433.16125"/>
      </g>
     </g>
     <g id="text_5">
      <!-- 25 -->
      <g transform="translate(405.215852 462.956562)scale(0.3 -0.3)">
       <use xlink:href="#DejaVuSans-50"/>
       <use x="63.623047" xlink:href="#DejaVuSans-53"/>
      </g>
     </g>
    </g>
    <g id="xtick_6">
     <g id="line2d_6">
      <g>
       <use style="stroke:#000000;stroke-width:0.8;" x="483.48517" xlink:href="#m5af1f40216" y="433.16125"/>
      </g>
     </g>
     <g id="text_6">
      <!-- 30 -->
      <defs>
       <path d="M 40.578125 39.3125 
Q 47.65625 37.796875 51.625 33 
Q 55.609375 28.21875 55.609375 21.1875 
Q 55.609375 10.40625 48.1875 4.484375 
Q 40.765625 -1.421875 27.09375 -1.421875 
Q 22.515625 -1.421875 17.65625 -0.515625 
Q 12.796875 0.390625 7.625 2.203125 
L 7.625 11.71875 
Q 11.71875 9.328125 16.59375 8.109375 
Q 21.484375 6.890625 26.8125 6.890625 
Q 36.078125 6.890625 40.9375 10.546875 
Q 45.796875 14.203125 45.796875 21.1875 
Q 45.796875 27.640625 41.28125 31.265625 
Q 36.765625 34.90625 28.71875 34.90625 
L 20.21875 34.90625 
L 20.21875 43.015625 
L 29.109375 43.015625 
Q 36.375 43.015625 40.234375 45.921875 
Q 44.09375 48.828125 44.09375 54.296875 
Q 44.09375 59.90625 40.109375 62.90625 
Q 36.140625 65.921875 28.71875 65.921875 
Q 24.65625 65.921875 20.015625 65.03125 
Q 15.375 64.15625 9.8125 62.3125 
L 9.8125 71.09375 
Q 15.4375 72.65625 20.34375 73.4375 
Q 25.25 74.21875 29.59375 74.21875 
Q 40.828125 74.21875 47.359375 69.109375 
Q 53.90625 64.015625 53.90625 55.328125 
Q 53.90625 49.265625 50.4375 45.09375 
Q 46.96875 40.921875 40.578125 39.3125 
z
" id="DejaVuSans-51"/>
      </defs>
      <g transform="translate(464.39767 462.956562)scale(0.3 -0.3)">
       <use xlink:href="#DejaVuSans-51"/>
       <use x="63.623047" xlink:href="#DejaVuSans-48"/>
      </g>
     </g>
    </g>
    <g id="text_7">
     <!-- RADIUS -->
     <defs>
      <path d="M 7.328125 0 
L 7.328125 71.578125 
L 37.75 71.578125 
Q 49.21875 71.578125 54.421875 69.640625 
Q 59.625 67.71875 62.75 62.78125 
Q 65.875 57.859375 65.875 51.515625 
Q 65.875 43.453125 61.125 38.203125 
Q 56.390625 32.953125 46.96875 31.59375 
Q 51.65625 28.859375 54.703125 25.578125 
Q 57.765625 22.3125 62.9375 13.96875 
L 71.6875 0 
L 54.390625 0 
L 43.953125 15.578125 
Q 38.375 23.921875 36.328125 26.09375 
Q 34.28125 28.265625 31.984375 29.078125 
Q 29.6875 29.890625 24.703125 29.890625 
L 21.78125 29.890625 
L 21.78125 0 
z
M 21.78125 41.3125 
L 32.46875 41.3125 
Q 42.875 41.3125 45.453125 42.1875 
Q 48.046875 43.0625 49.515625 45.203125 
Q 50.984375 47.359375 50.984375 50.59375 
Q 50.984375 54.203125 49.046875 56.421875 
Q 47.125 58.640625 43.609375 59.234375 
Q 41.84375 59.46875 33.0625 59.46875 
L 21.78125 59.46875 
z
" id="Arial-BoldMT-82"/>
      <path d="M 71.828125 0 
L 56.109375 0 
L 49.859375 16.265625 
L 21.234375 16.265625 
L 15.328125 0 
L 0 0 
L 27.875 71.578125 
L 43.171875 71.578125 
z
M 45.21875 28.328125 
L 35.359375 54.890625 
L 25.6875 28.328125 
z
" id="Arial-BoldMT-65"/>
      <path d="M 7.234375 71.578125 
L 33.640625 71.578125 
Q 42.578125 71.578125 47.265625 70.21875 
Q 53.5625 68.359375 58.046875 63.625 
Q 62.546875 58.890625 64.890625 52.03125 
Q 67.234375 45.171875 67.234375 35.109375 
Q 67.234375 26.265625 65.046875 19.875 
Q 62.359375 12.0625 57.375 7.234375 
Q 53.609375 3.5625 47.21875 1.515625 
Q 42.4375 0 34.421875 0 
L 7.234375 0 
z
M 21.6875 59.46875 
L 21.6875 12.0625 
L 32.46875 12.0625 
Q 38.53125 12.0625 41.21875 12.75 
Q 44.734375 13.625 47.046875 15.71875 
Q 49.359375 17.828125 50.828125 22.625 
Q 52.296875 27.4375 52.296875 35.75 
Q 52.296875 44.046875 50.828125 48.484375 
Q 49.359375 52.9375 46.71875 55.421875 
Q 44.09375 57.90625 40.046875 58.796875 
Q 37.015625 59.46875 28.171875 59.46875 
z
" id="Arial-BoldMT-68"/>
      <path d="M 6.84375 0 
L 6.84375 71.578125 
L 21.296875 71.578125 
L 21.296875 0 
z
" id="Arial-BoldMT-73"/>
      <path d="M 7.171875 71.578125 
L 21.625 71.578125 
L 21.625 32.8125 
Q 21.625 23.578125 22.171875 20.84375 
Q 23.09375 16.453125 26.578125 13.796875 
Q 30.078125 11.140625 36.140625 11.140625 
Q 42.28125 11.140625 45.40625 13.640625 
Q 48.53125 16.15625 49.171875 19.8125 
Q 49.8125 23.484375 49.8125 31.984375 
L 49.8125 71.578125 
L 64.265625 71.578125 
L 64.265625 33.984375 
Q 64.265625 21.09375 63.09375 15.765625 
Q 61.921875 10.453125 58.765625 6.78125 
Q 55.609375 3.125 50.328125 0.953125 
Q 45.0625 -1.21875 36.578125 -1.21875 
Q 26.3125 -1.21875 21.015625 1.140625 
Q 15.71875 3.515625 12.640625 7.296875 
Q 9.578125 11.078125 8.59375 15.234375 
Q 7.171875 21.390625 7.171875 33.40625 
z
" id="Arial-BoldMT-85"/>
      <path d="M 3.609375 23.296875 
L 17.671875 24.65625 
Q 18.953125 17.578125 22.828125 14.25 
Q 26.703125 10.9375 33.296875 10.9375 
Q 40.28125 10.9375 43.8125 13.890625 
Q 47.359375 16.84375 47.359375 20.796875 
Q 47.359375 23.34375 45.875 25.125 
Q 44.390625 26.90625 40.671875 28.21875 
Q 38.140625 29.109375 29.109375 31.34375 
Q 17.484375 34.234375 12.796875 38.421875 
Q 6.203125 44.34375 6.203125 52.828125 
Q 6.203125 58.296875 9.296875 63.0625 
Q 12.40625 67.828125 18.234375 70.3125 
Q 24.078125 72.796875 32.328125 72.796875 
Q 45.796875 72.796875 52.609375 66.890625 
Q 59.421875 60.984375 59.765625 51.125 
L 45.3125 50.484375 
Q 44.390625 56 41.328125 58.421875 
Q 38.28125 60.84375 32.171875 60.84375 
Q 25.875 60.84375 22.3125 58.25 
Q 20.015625 56.59375 20.015625 53.8125 
Q 20.015625 51.265625 22.171875 49.46875 
Q 24.90625 47.171875 35.453125 44.671875 
Q 46 42.1875 51.046875 39.515625 
Q 56.109375 36.859375 58.953125 32.25 
Q 61.8125 27.640625 61.8125 20.84375 
Q 61.8125 14.703125 58.390625 9.328125 
Q 54.984375 3.953125 48.734375 1.34375 
Q 42.484375 -1.265625 33.15625 -1.265625 
Q 19.578125 -1.265625 12.296875 5 
Q 5.03125 11.28125 3.609375 23.296875 
z
" id="Arial-BoldMT-83"/>
     </defs>
     <g transform="translate(297.194687 493.51125)scale(0.2 -0.2)">
      <use xlink:href="#Arial-BoldMT-82"/>
      <use x="72.216797" xlink:href="#Arial-BoldMT-65"/>
      <use x="144.433594" xlink:href="#Arial-BoldMT-68"/>
      <use x="216.650391" xlink:href="#Arial-BoldMT-73"/>
      <use x="244.433594" xlink:href="#Arial-BoldMT-85"/>
      <use x="316.650391" xlink:href="#Arial-BoldMT-83"/>
     </g>
    </g>
   </g>
   <g id="matplotlib.axis_2">
    <g id="ytick_1">
     <g id="line2d_7">
      <defs>
       <path d="M 0 0 
L -3.5 0 
" id="me0eed4c192" style="stroke:#000000;stroke-width:0.8;"/>
      </defs>
      <g>
       <use style="stroke:#000000;stroke-width:0.8;" x="140.230625" xlink:href="#me0eed4c192" y="433.16125"/>
      </g>
     </g>
     <g id="text_8">
      <!-- 0 -->
      <g transform="translate(114.143125 444.558906)scale(0.3 -0.3)">
       <use xlink:href="#DejaVuSans-48"/>
      </g>
     </g>
    </g>
    <g id="ytick_2">
     <g id="line2d_8">
      <g>
       <use style="stroke:#000000;stroke-width:0.8;" x="140.230625" xlink:href="#me0eed4c192" y="365.092129"/>
      </g>
     </g>
     <g id="text_9">
      <!-- 500 -->
      <g transform="translate(75.968125 376.489785)scale(0.3 -0.3)">
       <use xlink:href="#DejaVuSans-53"/>
       <use x="63.623047" xlink:href="#DejaVuSans-48"/>
       <use x="127.246094" xlink:href="#DejaVuSans-48"/>
      </g>
     </g>
    </g>
    <g id="ytick_3">
     <g id="line2d_9">
      <g>
       <use style="stroke:#000000;stroke-width:0.8;" x="140.230625" xlink:href="#me0eed4c192" y="297.023008"/>
      </g>
     </g>
     <g id="text_10">
      <!-- 1000 -->
      <g transform="translate(56.880625 308.420664)scale(0.3 -0.3)">
       <use xlink:href="#DejaVuSans-49"/>
       <use x="63.623047" xlink:href="#DejaVuSans-48"/>
       <use x="127.246094" xlink:href="#DejaVuSans-48"/>
       <use x="190.869141" xlink:href="#DejaVuSans-48"/>
      </g>
     </g>
    </g>
    <g id="ytick_4">
     <g id="line2d_10">
      <g>
       <use style="stroke:#000000;stroke-width:0.8;" x="140.230625" xlink:href="#me0eed4c192" y="228.953887"/>
      </g>
     </g>
     <g id="text_11">
      <!-- 1500 -->
      <g transform="translate(56.880625 240.351543)scale(0.3 -0.3)">
       <use xlink:href="#DejaVuSans-49"/>
       <use x="63.623047" xlink:href="#DejaVuSans-53"/>
       <use x="127.246094" xlink:href="#DejaVuSans-48"/>
       <use x="190.869141" xlink:href="#DejaVuSans-48"/>
      </g>
     </g>
    </g>
    <g id="ytick_5">
     <g id="line2d_11">
      <g>
       <use style="stroke:#000000;stroke-width:0.8;" x="140.230625" xlink:href="#me0eed4c192" y="160.884766"/>
      </g>
     </g>
     <g id="text_12">
      <!-- 2000 -->
      <g transform="translate(56.880625 172.282422)scale(0.3 -0.3)">
       <use xlink:href="#DejaVuSans-50"/>
       <use x="63.623047" xlink:href="#DejaVuSans-48"/>
       <use x="127.246094" xlink:href="#DejaVuSans-48"/>
       <use x="190.869141" xlink:href="#DejaVuSans-48"/>
      </g>
     </g>
    </g>
    <g id="ytick_6">
     <g id="line2d_12">
      <g>
       <use style="stroke:#000000;stroke-width:0.8;" x="140.230625" xlink:href="#me0eed4c192" y="92.815645"/>
      </g>
     </g>
     <g id="text_13">
      <!-- 2500 -->
      <g transform="translate(56.880625 104.213301)scale(0.3 -0.3)">
       <use xlink:href="#DejaVuSans-50"/>
       <use x="63.623047" xlink:href="#DejaVuSans-53"/>
       <use x="127.246094" xlink:href="#DejaVuSans-48"/>
       <use x="190.869141" xlink:href="#DejaVuSans-48"/>
      </g>
     </g>
    </g>
    <g id="text_14">
     <!-- CD8 LIVE -->
     <defs>
      <path d="M 53.078125 26.3125 
L 67.09375 21.875 
Q 63.875 10.15625 56.375 4.46875 
Q 48.875 -1.21875 37.359375 -1.21875 
Q 23.09375 -1.21875 13.90625 8.515625 
Q 4.734375 18.265625 4.734375 35.15625 
Q 4.734375 53.03125 13.953125 62.90625 
Q 23.1875 72.796875 38.234375 72.796875 
Q 51.375 72.796875 59.578125 65.046875 
Q 64.453125 60.453125 66.890625 51.859375 
L 52.59375 48.4375 
Q 51.3125 54 47.28125 57.21875 
Q 43.265625 60.453125 37.5 60.453125 
Q 29.546875 60.453125 24.578125 54.734375 
Q 19.625 49.03125 19.625 36.234375 
Q 19.625 22.65625 24.5 16.890625 
Q 29.390625 11.140625 37.203125 11.140625 
Q 42.96875 11.140625 47.109375 14.796875 
Q 51.265625 18.453125 53.078125 26.3125 
z
" id="Arial-BoldMT-67"/>
      <path d="M 16.015625 38.625 
Q 10.6875 40.875 8.265625 44.796875 
Q 5.859375 48.734375 5.859375 53.421875 
Q 5.859375 61.421875 11.453125 66.640625 
Q 17.046875 71.875 27.34375 71.875 
Q 37.546875 71.875 43.1875 66.640625 
Q 48.828125 61.421875 48.828125 53.421875 
Q 48.828125 48.4375 46.234375 44.546875 
Q 43.65625 40.671875 38.96875 38.625 
Q 44.921875 36.234375 48.015625 31.640625 
Q 51.125 27.046875 51.125 21.046875 
Q 51.125 11.140625 44.796875 4.9375 
Q 38.484375 -1.265625 27.984375 -1.265625 
Q 18.21875 -1.265625 11.71875 3.859375 
Q 4.046875 9.90625 4.046875 20.453125 
Q 4.046875 26.265625 6.921875 31.125 
Q 9.8125 35.984375 16.015625 38.625 
z
M 18.84375 52.4375 
Q 18.84375 48.34375 21.15625 46.046875 
Q 23.484375 43.75 27.34375 43.75 
Q 31.25 43.75 33.59375 46.0625 
Q 35.9375 48.390625 35.9375 52.484375 
Q 35.9375 56.34375 33.609375 58.65625 
Q 31.296875 60.984375 27.484375 60.984375 
Q 23.53125 60.984375 21.1875 58.640625 
Q 18.84375 56.296875 18.84375 52.4375 
z
M 17.578125 21.78125 
Q 17.578125 16.109375 20.484375 12.9375 
Q 23.390625 9.765625 27.734375 9.765625 
Q 31.984375 9.765625 34.765625 12.8125 
Q 37.546875 15.875 37.546875 21.625 
Q 37.546875 26.65625 34.71875 29.703125 
Q 31.890625 32.765625 27.546875 32.765625 
Q 22.515625 32.765625 20.046875 29.296875 
Q 17.578125 25.828125 17.578125 21.78125 
z
" id="Arial-BoldMT-56"/>
      <path id="Arial-BoldMT-32"/>
      <path d="M 7.671875 0 
L 7.671875 71 
L 22.125 71 
L 22.125 12.0625 
L 58.0625 12.0625 
L 58.0625 0 
z
" id="Arial-BoldMT-76"/>
      <path d="M 25.53125 0 
L -0.046875 71.578125 
L 15.625 71.578125 
L 33.734375 18.609375 
L 51.265625 71.578125 
L 66.609375 71.578125 
L 40.96875 0 
z
" id="Arial-BoldMT-86"/>
      <path d="M 7.28125 0 
L 7.28125 71.578125 
L 60.359375 71.578125 
L 60.359375 59.46875 
L 21.734375 59.46875 
L 21.734375 43.609375 
L 57.671875 43.609375 
L 57.671875 31.546875 
L 21.734375 31.546875 
L 21.734375 12.0625 
L 61.71875 12.0625 
L 61.71875 0 
z
" id="Arial-BoldMT-69"/>
     </defs>
     <g transform="translate(21.253125 287.910625)rotate(-90)scale(0.2 -0.2)">
      <use xlink:href="#Arial-BoldMT-67"/>
      <use x="72.216797" xlink:href="#Arial-BoldMT-68"/>
      <use x="144.433594" xlink:href="#Arial-BoldMT-56"/>
      <use x="200.048828" xlink:href="#Arial-BoldMT-32"/>
      <use x="227.832031" xlink:href="#Arial-BoldMT-76"/>
      <use x="288.916016" xlink:href="#Arial-BoldMT-73"/>
      <use x="316.699219" xlink:href="#Arial-BoldMT-86"/>
      <use x="383.398438" xlink:href="#Arial-BoldMT-69"/>
     </g>
     <!-- CELL COUNTS (NUMBERS) -->
     <defs>
      <path d="M 4.34375 35.359375 
Q 4.34375 46.296875 7.625 53.71875 
Q 10.0625 59.1875 14.28125 63.53125 
Q 18.5 67.875 23.53125 69.96875 
Q 30.21875 72.796875 38.96875 72.796875 
Q 54.78125 72.796875 64.28125 62.984375 
Q 73.78125 53.171875 73.78125 35.6875 
Q 73.78125 18.359375 64.359375 8.5625 
Q 54.9375 -1.21875 39.15625 -1.21875 
Q 23.1875 -1.21875 13.765625 8.515625 
Q 4.34375 18.265625 4.34375 35.359375 
z
M 19.234375 35.84375 
Q 19.234375 23.6875 24.84375 17.40625 
Q 30.46875 11.140625 39.109375 11.140625 
Q 47.75 11.140625 53.296875 17.359375 
Q 58.84375 23.578125 58.84375 36.03125 
Q 58.84375 48.34375 53.4375 54.390625 
Q 48.046875 60.453125 39.109375 60.453125 
Q 30.171875 60.453125 24.703125 54.3125 
Q 19.234375 48.1875 19.234375 35.84375 
z
" id="Arial-BoldMT-79"/>
      <path d="M 7.421875 0 
L 7.421875 71.578125 
L 21.484375 71.578125 
L 50.78125 23.78125 
L 50.78125 71.578125 
L 64.203125 71.578125 
L 64.203125 0 
L 49.703125 0 
L 20.84375 46.6875 
L 20.84375 0 
z
" id="Arial-BoldMT-78"/>
      <path d="M 23.390625 0 
L 23.390625 59.46875 
L 2.15625 59.46875 
L 2.15625 71.578125 
L 59.03125 71.578125 
L 59.03125 59.46875 
L 37.84375 59.46875 
L 37.84375 0 
z
" id="Arial-BoldMT-84"/>
      <path d="M 29.9375 -21.046875 
L 20.515625 -21.046875 
Q 13.03125 -9.765625 9.125 2.390625 
Q 5.21875 14.546875 5.21875 25.921875 
Q 5.21875 40.046875 10.0625 52.640625 
Q 14.265625 63.578125 20.703125 72.796875 
L 30.078125 72.796875 
Q 23.390625 58.015625 20.875 47.625 
Q 18.359375 37.25 18.359375 25.640625 
Q 18.359375 17.625 19.84375 9.21875 
Q 21.34375 0.828125 23.921875 -6.734375 
Q 25.640625 -11.71875 29.9375 -21.046875 
z
" id="Arial-BoldMT-40"/>
      <path d="M 7.078125 0 
L 7.078125 71.578125 
L 28.71875 71.578125 
L 41.703125 22.75 
L 54.546875 71.578125 
L 76.21875 71.578125 
L 76.21875 0 
L 62.796875 0 
L 62.796875 56.34375 
L 48.578125 0 
L 34.671875 0 
L 20.515625 56.34375 
L 20.515625 0 
z
" id="Arial-BoldMT-77"/>
      <path d="M 7.328125 71.578125 
L 35.9375 71.578125 
Q 44.4375 71.578125 48.609375 70.875 
Q 52.78125 70.171875 56.078125 67.921875 
Q 59.375 65.671875 61.5625 61.9375 
Q 63.765625 58.203125 63.765625 53.5625 
Q 63.765625 48.53125 61.046875 44.328125 
Q 58.34375 40.140625 53.71875 38.03125 
Q 60.25 36.140625 63.765625 31.546875 
Q 67.28125 26.953125 67.28125 20.75 
Q 67.28125 15.875 65.015625 11.25 
Q 62.75 6.640625 58.8125 3.875 
Q 54.890625 1.125 49.125 0.484375 
Q 45.515625 0.09375 31.6875 0 
L 7.328125 0 
z
M 21.78125 59.671875 
L 21.78125 43.109375 
L 31.25 43.109375 
Q 39.703125 43.109375 41.75 43.359375 
Q 45.453125 43.796875 47.578125 45.921875 
Q 49.703125 48.046875 49.703125 51.515625 
Q 49.703125 54.828125 47.875 56.90625 
Q 46.046875 58.984375 42.4375 59.421875 
Q 40.28125 59.671875 30.078125 59.671875 
z
M 21.78125 31.203125 
L 21.78125 12.0625 
L 35.15625 12.0625 
Q 42.96875 12.0625 45.0625 12.5 
Q 48.296875 13.09375 50.3125 15.359375 
Q 52.34375 17.625 52.34375 21.4375 
Q 52.34375 24.65625 50.78125 26.90625 
Q 49.21875 29.15625 46.265625 30.171875 
Q 43.3125 31.203125 33.453125 31.203125 
z
" id="Arial-BoldMT-66"/>
      <path d="M 3.375 -21.046875 
Q 7.421875 -12.359375 9.078125 -7.71875 
Q 10.75 -3.078125 12.15625 2.96875 
Q 13.578125 9.03125 14.25 14.46875 
Q 14.9375 19.921875 14.9375 25.640625 
Q 14.9375 37.25 12.453125 47.625 
Q 9.96875 58.015625 3.265625 72.796875 
L 12.59375 72.796875 
Q 19.96875 62.3125 24.046875 50.53125 
Q 28.125 38.765625 28.125 26.65625 
Q 28.125 16.453125 24.90625 4.78125 
Q 21.234375 -8.296875 12.84375 -21.046875 
z
" id="Arial-BoldMT-41"/>
     </defs>
     <g transform="translate(42.67125 374.002812)rotate(-90)scale(0.2 -0.2)">
      <use xlink:href="#Arial-BoldMT-67"/>
      <use x="72.216797" xlink:href="#Arial-BoldMT-69"/>
      <use x="138.916016" xlink:href="#Arial-BoldMT-76"/>
      <use x="200" xlink:href="#Arial-BoldMT-76"/>
      <use x="261.068359" xlink:href="#Arial-BoldMT-32"/>
      <use x="288.851562" xlink:href="#Arial-BoldMT-67"/>
      <use x="361.068359" xlink:href="#Arial-BoldMT-79"/>
      <use x="438.851562" xlink:href="#Arial-BoldMT-85"/>
      <use x="511.068359" xlink:href="#Arial-BoldMT-78"/>
      <use x="583.285156" xlink:href="#Arial-BoldMT-84"/>
      <use x="644.369141" xlink:href="#Arial-BoldMT-83"/>
      <use x="711.068359" xlink:href="#Arial-BoldMT-32"/>
      <use x="738.851562" xlink:href="#Arial-BoldMT-40"/>
      <use x="772.152344" xlink:href="#Arial-BoldMT-78"/>
      <use x="844.369141" xlink:href="#Arial-BoldMT-85"/>
      <use x="916.585938" xlink:href="#Arial-BoldMT-77"/>
      <use x="999.886719" xlink:href="#Arial-BoldMT-66"/>
      <use x="1072.103516" xlink:href="#Arial-BoldMT-69"/>
      <use x="1138.802734" xlink:href="#Arial-BoldMT-82"/>
      <use x="1211.019531" xlink:href="#Arial-BoldMT-83"/>
      <use x="1277.71875" xlink:href="#Arial-BoldMT-41"/>
     </g>
    </g>
   </g>
   <g id="line2d_13">
    <path clip-path="url(#pe7bf1325db)" d="M 140.230625 431.799868 
L 152.066989 423.223158 
L 163.903352 411.51527 
L 175.739716 395.042542 
L 187.57608 374.485668 
L 199.412443 363.594608 
L 211.248807 365.77282 
L 223.08517 364.955991 
L 234.921534 358.557493 
L 246.757898 346.168913 
L 258.594261 342.765457 
L 270.430625 324.386795 
L 282.266989 299.473496 
L 294.103352 284.49829 
L 305.939716 256.58995 
L 317.77608 244.20137 
L 329.612443 244.609785 
L 341.448807 238.075149 
L 353.28517 228.000919 
L 365.121534 218.743519 
L 376.957898 208.669289 
L 388.794261 187.704 
L 400.630625 210.030671 
L 412.466989 201.862377 
L 424.303352 204.585142 
L 436.139716 202.270792 
L 447.97608 200.773271 
L 459.812443 188.929244 
L 471.648807 172.456517 
L 483.48517 176.676802 
L 495.321534 189.065382 
L 507.157898 190.699041 
L 518.994261 194.102497 
L 530.830625 160.748628 
" style="fill:none;stroke:#08306b;stroke-linecap:square;stroke-width:1.5;"/>
   </g>
   <g id="line2d_14">
    <path clip-path="url(#pe7bf1325db)" d="M 140.230625 430.983038 
L 152.066989 421.181085 
L 163.903352 405.797463 
L 175.739716 390.413842 
L 187.57608 392.86433 
L 199.412443 397.901445 
L 211.248807 390.958395 
L 223.08517 378.569815 
L 234.921534 371.490626 
L 246.757898 349.708508 
L 258.594261 339.634278 
L 270.430625 322.072445 
L 282.266989 285.587396 
L 294.103352 272.790401 
L 305.939716 264.34983 
L 317.77608 262.852309 
L 329.612443 274.151783 
L 341.448807 269.523083 
L 353.28517 260.401821 
L 365.121534 237.802873 
L 376.957898 229.49844 
L 388.794261 227.592505 
L 400.630625 206.218801 
L 412.466989 191.788147 
L 424.303352 178.855014 
L 436.139716 173.954037 
L 447.97608 165.649605 
L 459.812443 160.067937 
L 471.648807 157.889725 
L 483.48517 167.283264 
L 495.321534 141.689274 
L 507.157898 157.617448 
L 518.994261 147.270942 
L 530.830625 132.840288 
" style="fill:none;stroke:#08306b;stroke-linecap:square;stroke-width:1.5;"/>
   </g>
   <g id="line2d_15">
    <path clip-path="url(#pe7bf1325db)" d="M 140.230625 433.025112 
L 152.066989 429.077103 
L 163.903352 419.819702 
L 175.739716 406.478155 
L 187.57608 393.68116 
L 199.412443 375.030221 
L 211.248807 355.970867 
L 223.08517 342.493181 
L 234.921534 329.696186 
L 246.757898 340.859522 
L 258.594261 330.649154 
L 270.430625 326.973421 
L 282.266989 312.542768 
L 294.103352 303.421505 
L 305.939716 293.074999 
L 317.77608 284.49829 
L 329.612443 269.523083 
L 341.448807 265.166659 
L 353.28517 272.790401 
L 365.121534 270.203774 
L 376.957898 261.082512 
L 388.794261 247.33255 
L 400.630625 219.015795 
L 412.466989 204.72128 
L 424.303352 196.825262 
L 436.139716 176.81294 
L 447.97608 140.872445 
L 459.812443 125.216547 
L 471.648807 116.231423 
L 483.48517 129.436832 
L 495.321534 123.310611 
L 507.157898 135.83533 
L 518.994261 146.998665 
L 530.830625 138.694233 
" style="fill:none;stroke:#08306b;stroke-linecap:square;stroke-width:1.5;"/>
   </g>
   <g id="line2d_16">
    <path clip-path="url(#pe7bf1325db)" d="M 140.230625 430.983038 
L 152.066989 422.678605 
L 163.903352 411.651408 
L 175.739716 400.488072 
L 187.57608 385.649004 
L 199.412443 373.396562 
L 211.248807 368.495585 
L 223.08517 347.802572 
L 234.921534 339.362001 
L 246.757898 343.854563 
L 258.594261 337.456066 
L 270.430625 328.470942 
L 282.266989 316.899191 
L 294.103352 307.369514 
L 305.939716 288.854714 
L 317.77608 272.10971 
L 329.612443 249.102347 
L 341.448807 239.981085 
L 353.28517 219.832625 
L 365.121534 211.66433 
L 376.957898 224.733602 
L 388.794261 225.414293 
L 400.630625 217.518275 
L 412.466989 213.161851 
L 424.303352 177.765908 
L 436.139716 177.902046 
L 447.97608 146.998665 
L 459.812443 149.313016 
L 471.648807 159.523384 
L 483.48517 150.946674 
L 495.321534 143.595209 
L 507.157898 163.199116 
L 518.994261 173.273346 
L 530.830625 181.441641 
" style="fill:none;stroke:#08306b;stroke-linecap:square;stroke-width:1.5;"/>
   </g>
   <g id="line2d_17">
    <path clip-path="url(#pe7bf1325db)" d="M 140.230625 431.936006 
L 152.066989 426.354338 
L 163.903352 410.562302 
L 175.739716 404.436081 
L 187.57608 395.042542 
L 199.412443 381.700995 
L 211.248807 371.762903 
L 223.08517 375.030221 
L 234.921534 367.406479 
L 246.757898 366.725788 
L 258.594261 349.436231 
L 270.430625 325.475901 
L 282.266989 310.364556 
L 294.103352 297.295285 
L 305.939716 269.386945 
L 317.77608 237.666735 
L 329.612443 233.038034 
L 341.448807 221.330146 
L 353.28517 240.253361 
L 365.121534 234.263279 
L 376.957898 260.946374 
L 388.794261 278.508207 
L 400.630625 281.639387 
L 412.466989 254.003324 
L 424.303352 220.513316 
L 436.139716 194.238635 
L 447.97608 152.171919 
L 459.812443 133.112565 
L 471.648807 105.068087 
L 483.48517 121.813091 
L 495.321534 127.803173 
L 507.157898 173.137208 
L 518.994261 199.820303 
L 530.830625 162.790702 
" style="fill:none;stroke:#08306b;stroke-linecap:square;stroke-width:1.5;"/>
   </g>
   <g id="line2d_18">
    <path clip-path="url(#pe7bf1325db)" d="M 140.230625 430.302347 
L 152.066989 415.191002 
L 163.903352 396.267786 
L 175.739716 385.92128 
L 187.57608 384.968312 
L 199.412443 379.522783 
L 211.248807 379.386644 
L 223.08517 374.757944 
L 234.921534 367.678756 
L 246.757898 345.62436 
L 258.594261 324.114518 
L 270.430625 292.938861 
L 282.266989 294.980934 
L 294.103352 295.389349 
L 305.939716 286.81264 
L 317.77608 276.329995 
L 329.612443 250.055315 
L 341.448807 240.525638 
L 353.28517 223.916772 
L 365.121534 243.248403 
L 376.957898 235.216246 
L 388.794261 234.535555 
L 400.630625 236.169214 
L 412.466989 235.216246 
L 424.303352 217.790551 
L 436.139716 219.696487 
L 447.97608 191.788147 
L 459.812443 211.936607 
L 471.648807 187.567862 
L 483.48517 149.585292 
L 495.321534 125.352685 
L 507.157898 88.050807 
L 518.994261 79.065683 
L 530.830625 70.76125 
" style="fill:none;stroke:#08306b;stroke-linecap:square;stroke-width:1.5;"/>
   </g>
   <g id="line2d_19">
    <path clip-path="url(#pe7bf1325db)" d="M 140.230625 429.485517 
L 152.066989 416.007832 
L 163.903352 406.342016 
L 175.739716 390.54998 
L 187.57608 386.057418 
L 199.412443 382.245548 
L 211.248807 377.616847 
L 223.08517 366.045097 
L 234.921534 361.960949 
L 246.757898 350.389199 
L 258.594261 341.404075 
L 270.430625 336.094684 
L 282.266989 327.245698 
L 294.103352 314.584841 
L 305.939716 294.57252 
L 317.77608 267.072595 
L 329.612443 246.787997 
L 341.448807 224.325187 
L 353.28517 212.889575 
L 365.121534 220.104901 
L 376.957898 229.226164 
L 388.794261 213.434128 
L 400.630625 217.790551 
L 412.466989 199.956442 
L 424.303352 204.449004 
L 436.139716 208.124736 
L 447.97608 176.676802 
L 459.812443 174.907005 
L 471.648807 176.540664 
L 483.48517 169.86989 
L 495.321534 161.973872 
L 507.157898 168.508508 
L 518.994261 133.929394 
L 530.830625 137.060574 
" style="fill:none;stroke:#08306b;stroke-linecap:square;stroke-width:1.5;"/>
   </g>
   <g id="line2d_20">
    <path clip-path="url(#pe7bf1325db)" d="M 140.230625 430.8469 
L 152.066989 424.176126 
L 163.903352 414.782587 
L 175.739716 399.671242 
L 187.57608 382.245548 
L 199.412443 361.960949 
L 211.248807 340.587245 
L 223.08517 312.951182 
L 234.921534 318.53285 
L 246.757898 339.906554 
L 258.594261 334.324886 
L 270.430625 316.763053 
L 282.266989 318.668989 
L 294.103352 318.668989 
L 305.939716 307.369514 
L 317.77608 288.718575 
L 329.612443 284.49829 
L 341.448807 274.015645 
L 353.28517 246.51572 
L 365.121534 228.953887 
L 376.957898 221.057869 
L 388.794261 214.387095 
L 400.630625 231.676652 
L 412.466989 227.320228 
L 424.303352 204.040589 
L 436.139716 187.023309 
L 447.97608 178.718876 
L 459.812443 183.619853 
L 471.648807 199.411889 
L 483.48517 197.914368 
L 495.321534 178.855014 
L 507.157898 183.347576 
L 518.994261 167.691678 
L 530.830625 138.966509 
" style="fill:none;stroke:#08306b;stroke-linecap:square;stroke-width:1.5;"/>
   </g>
   <g id="line2d_21">
    <path clip-path="url(#pe7bf1325db)" d="M 140.230625 432.208282 
L 152.066989 426.762753 
L 163.903352 422.270191 
L 175.739716 411.923684 
L 187.57608 397.765307 
L 199.412443 382.926239 
L 211.248807 374.485668 
L 223.08517 371.21835 
L 234.921534 366.317373 
L 246.757898 348.074849 
L 258.594261 331.329845 
L 270.430625 335.005578 
L 282.266989 326.428868 
L 294.103352 310.636832 
L 305.939716 299.473496 
L 317.77608 295.117073 
L 329.612443 286.131949 
L 341.448807 262.307756 
L 353.28517 269.931498 
L 365.121534 257.40678 
L 376.957898 253.050356 
L 388.794261 220.104901 
L 400.630625 186.88717 
L 412.466989 202.815345 
L 424.303352 200.228718 
L 436.139716 183.755991 
L 447.97608 165.649605 
L 459.812443 141.144721 
L 471.648807 145.228868 
L 483.48517 143.459071 
L 495.321534 121.676952 
L 507.157898 131.342768 
L 518.994261 143.186795 
L 530.830625 112.55569 
" style="fill:none;stroke:#08306b;stroke-linecap:square;stroke-width:1.5;"/>
   </g>
   <g id="line2d_22">
    <path clip-path="url(#pe7bf1325db)" d="M 140.230625 432.208282 
L 152.066989 427.851859 
L 163.903352 417.777629 
L 175.739716 416.14397 
L 187.57608 407.294984 
L 199.412443 393.545022 
L 211.248807 371.21835 
L 223.08517 362.505502 
L 234.921534 357.059973 
L 246.757898 331.874398 
L 258.594261 311.5898 
L 270.430625 315.946224 
L 282.266989 299.745773 
L 294.103352 292.938861 
L 305.939716 291.305202 
L 317.77608 288.718575 
L 329.612443 301.51557 
L 341.448807 286.131949 
L 353.28517 249.510762 
L 365.121534 222.283113 
L 376.957898 194.783188 
L 388.794261 186.751032 
L 400.630625 174.770867 
L 412.466989 174.090176 
L 424.303352 188.656968 
L 436.139716 211.936607 
L 447.97608 218.879657 
L 459.812443 198.595059 
L 471.648807 161.429319 
L 483.48517 130.117523 
L 495.321534 120.179432 
L 507.157898 143.459071 
L 518.994261 157.209034 
L 530.830625 156.936757 
" style="fill:none;stroke:#08306b;stroke-linecap:square;stroke-width:1.5;"/>
   </g>
   <g id="line2d_23">
    <path clip-path="url(#pe7bf1325db)" d="M 140.230625 432.616697 
L 152.066989 425.537508 
L 163.903352 413.148928 
L 175.739716 397.356892 
L 187.57608 385.649004 
L 199.412443 376.119327 
L 211.248807 372.443594 
L 223.08517 370.673797 
L 234.921534 367.134203 
L 246.757898 357.740664 
L 258.594261 346.985743 
L 270.430625 337.864481 
L 282.266989 318.941265 
L 294.103352 311.862076 
L 305.939716 292.802723 
L 317.77608 279.733451 
L 329.612443 289.671543 
L 341.448807 295.253211 
L 353.28517 295.253211 
L 365.121534 296.750732 
L 376.957898 297.431423 
L 388.794261 267.48101 
L 400.630625 243.656817 
L 412.466989 229.362302 
L 424.303352 218.743519 
L 436.139716 218.471242 
L 447.97608 240.661776 
L 459.812443 225.686569 
L 471.648807 219.560348 
L 483.48517 228.137058 
L 495.321534 230.451408 
L 507.157898 217.10986 
L 518.994261 219.832625 
L 530.830625 207.716321 
" style="fill:none;stroke:#4a98c9;stroke-linecap:square;stroke-width:1.5;"/>
   </g>
   <g id="line2d_24">
    <path clip-path="url(#pe7bf1325db)" d="M 140.230625 431.527591 
L 152.066989 422.542467 
L 163.903352 414.374173 
L 175.739716 402.394007 
L 187.57608 398.990551 
L 199.412443 391.911363 
L 211.248807 393.817298 
L 223.08517 393.817298 
L 234.921534 393.272745 
L 246.757898 388.099492 
L 258.594261 381.29258 
L 270.430625 345.215946 
L 282.266989 315.401671 
L 294.103352 288.174022 
L 305.939716 266.936457 
L 317.77608 258.223609 
L 329.612443 273.471092 
L 341.448807 278.235931 
L 353.28517 288.854714 
L 365.121534 282.456216 
L 376.957898 308.186344 
L 388.794261 270.884466 
L 400.630625 259.993406 
L 412.466989 236.44149 
L 424.303352 237.802873 
L 436.139716 238.347426 
L 447.97608 229.362302 
L 459.812443 235.488523 
L 471.648807 208.260874 
L 483.48517 208.260874 
L 495.321534 190.426765 
L 507.157898 193.421806 
L 518.994261 210.030671 
L 530.830625 225.958846 
" style="fill:none;stroke:#4a98c9;stroke-linecap:square;stroke-width:1.5;"/>
   </g>
   <g id="line2d_25">
    <path clip-path="url(#pe7bf1325db)" d="M 140.230625 433.16125 
L 152.066989 431.119176 
L 163.903352 422.270191 
L 175.739716 408.247952 
L 187.57608 393.817298 
L 199.412443 371.354488 
L 211.248807 367.951032 
L 223.08517 354.881761 
L 234.921534 341.676351 
L 246.757898 346.713466 
L 258.594261 338.68131 
L 270.430625 350.525337 
L 282.266989 335.277854 
L 294.103352 336.775375 
L 305.939716 321.66403 
L 317.77608 325.203624 
L 329.612443 307.369514 
L 341.448807 297.975976 
L 353.28517 296.88687 
L 365.121534 289.535405 
L 376.957898 273.60723 
L 388.794261 274.151783 
L 400.630625 253.594909 
L 412.466989 243.656817 
L 424.303352 234.399417 
L 436.139716 217.245998 
L 447.97608 194.783188 
L 459.812443 194.783188 
L 471.648807 201.317824 
L 483.48517 194.783188 
L 495.321534 208.941566 
L 507.157898 205.53811 
L 518.994261 205.129695 
L 530.830625 204.449004 
" style="fill:none;stroke:#4a98c9;stroke-linecap:square;stroke-width:1.5;"/>
   </g>
   <g id="line2d_26">
    <path clip-path="url(#pe7bf1325db)" d="M 140.230625 431.527591 
L 152.066989 421.181085 
L 163.903352 415.054864 
L 175.739716 408.792505 
L 187.57608 385.649004 
L 199.412443 372.171318 
L 211.248807 365.636682 
L 223.08517 351.614443 
L 234.921534 351.614443 
L 246.757898 350.253061 
L 258.594261 343.173872 
L 270.430625 332.010536 
L 282.266989 322.208583 
L 294.103352 317.852159 
L 305.939716 313.90415 
L 317.77608 320.030371 
L 329.612443 295.389349 
L 341.448807 286.948778 
L 353.28517 267.617148 
L 365.121534 253.322632 
L 376.957898 224.86974 
L 388.794261 207.444045 
L 400.630625 202.270792 
L 412.466989 190.290626 
L 424.303352 190.699041 
L 436.139716 182.25847 
L 447.97608 189.065382 
L 459.812443 199.820303 
L 471.648807 223.916772 
L 483.48517 232.62962 
L 495.321534 225.414293 
L 507.157898 217.790551 
L 518.994261 216.429169 
L 530.830625 234.399417 
" style="fill:none;stroke:#4a98c9;stroke-linecap:square;stroke-width:1.5;"/>
   </g>
   <g id="line2d_27">
    <path clip-path="url(#pe7bf1325db)" d="M 140.230625 430.574623 
L 152.066989 421.589499 
L 163.903352 413.01279 
L 175.739716 404.572219 
L 187.57608 389.188598 
L 199.412443 379.386644 
L 211.248807 378.842091 
L 223.08517 368.767862 
L 234.921534 369.720829 
L 246.757898 366.317373 
L 258.594261 360.735705 
L 270.430625 356.923835 
L 282.266989 339.089725 
L 294.103352 318.124436 
L 305.939716 299.745773 
L 317.77608 279.188898 
L 329.612443 274.151783 
L 341.448807 258.495886 
L 353.28517 250.872144 
L 365.121534 258.359747 
L 376.957898 278.644345 
L 388.794261 281.503248 
L 400.630625 290.352234 
L 412.466989 279.325037 
L 424.303352 279.05276 
L 436.139716 241.478605 
L 447.97608 202.815345 
L 459.812443 180.897088 
L 471.648807 163.607531 
L 483.48517 165.24119 
L 495.321534 171.231273 
L 507.157898 181.441641 
L 518.994261 204.449004 
L 530.830625 223.099943 
" style="fill:none;stroke:#4a98c9;stroke-linecap:square;stroke-width:1.5;"/>
   </g>
   <g id="line2d_28">
    <path clip-path="url(#pe7bf1325db)" d="M 140.230625 431.391453 
L 152.066989 422.270191 
L 163.903352 407.294984 
L 175.739716 395.99551 
L 187.57608 400.215795 
L 199.412443 391.36681 
L 211.248807 384.696036 
L 223.08517 381.700995 
L 234.921534 370.809935 
L 246.757898 369.448553 
L 258.594261 347.530296 
L 270.430625 336.775375 
L 282.266989 328.334804 
L 294.103352 309.003173 
L 305.939716 301.243294 
L 317.77608 282.864631 
L 329.612443 268.025563 
L 341.448807 251.416697 
L 353.28517 247.196412 
L 365.121534 239.844946 
L 376.957898 217.245998 
L 388.794261 224.461325 
L 400.630625 225.686569 
L 412.466989 247.877103 
L 424.303352 257.815194 
L 436.139716 271.565157 
L 447.97608 260.401821 
L 459.812443 262.988448 
L 471.648807 255.500844 
L 483.48517 231.268237 
L 495.321534 193.830221 
L 507.157898 152.171919 
L 518.994261 115.414593 
L 530.830625 114.733902 
" style="fill:none;stroke:#4a98c9;stroke-linecap:square;stroke-width:1.5;"/>
   </g>
   <g id="line2d_29">
    <path clip-path="url(#pe7bf1325db)" d="M 140.230625 430.03007 
L 152.066989 420.77267 
L 163.903352 412.604375 
L 175.739716 408.928643 
L 187.57608 405.661325 
L 199.412443 396.131648 
L 211.248807 383.879206 
L 223.08517 368.08717 
L 234.921534 360.191152 
L 246.757898 352.431273 
L 258.594261 345.215946 
L 270.430625 354.881761 
L 282.266989 344.399116 
L 294.103352 331.602122 
L 305.939716 314.176427 
L 317.77608 295.253211 
L 329.612443 288.854714 
L 341.448807 271.565157 
L 353.28517 262.716171 
L 365.121534 243.248403 
L 376.957898 244.473647 
L 388.794261 240.797914 
L 400.630625 244.745923 
L 412.466989 246.379582 
L 424.303352 246.51572 
L 436.139716 233.174173 
L 447.97608 215.884616 
L 459.812443 191.788147 
L 471.648807 190.290626 
L 483.48517 181.169364 
L 495.321534 182.122332 
L 507.157898 177.085217 
L 518.994261 157.617448 
L 530.830625 159.931798 
" style="fill:none;stroke:#4a98c9;stroke-linecap:square;stroke-width:1.5;"/>
   </g>
   <g id="line2d_30">
    <path clip-path="url(#pe7bf1325db)" d="M 140.230625 431.255315 
L 152.066989 423.223158 
L 163.903352 409.473196 
L 175.739716 396.812339 
L 187.57608 376.800018 
L 199.412443 367.406479 
L 211.248807 353.656517 
L 223.08517 339.089725 
L 234.921534 342.220904 
L 246.757898 332.010536 
L 258.594261 323.025412 
L 270.430625 305.463579 
L 282.266989 306.008132 
L 294.103352 308.867035 
L 305.939716 307.914067 
L 317.77608 304.238335 
L 329.612443 291.577478 
L 341.448807 259.72113 
L 353.28517 232.62962 
L 365.121534 208.805427 
L 376.957898 222.146975 
L 388.794261 205.401971 
L 400.630625 228.273196 
L 412.466989 226.775675 
L 424.303352 235.760799 
L 436.139716 227.864781 
L 447.97608 230.859823 
L 459.812443 222.283113 
L 471.648807 222.146975 
L 483.48517 217.245998 
L 495.321534 209.894533 
L 507.157898 201.862377 
L 518.994261 187.159447 
L 530.830625 186.342617 
" style="fill:none;stroke:#4a98c9;stroke-linecap:square;stroke-width:1.5;"/>
   </g>
   <g id="line2d_31">
    <path clip-path="url(#pe7bf1325db)" d="M 140.230625 432.344421 
L 152.066989 426.490476 
L 163.903352 420.500394 
L 175.739716 415.735555 
L 187.57608 412.195961 
L 199.412443 398.445998 
L 211.248807 393.953436 
L 223.08517 378.025262 
L 234.921534 365.500544 
L 246.757898 363.594608 
L 258.594261 351.750581 
L 270.430625 354.609484 
L 282.266989 330.649154 
L 294.103352 324.795209 
L 305.939716 304.102197 
L 317.77608 302.196261 
L 329.612443 311.317523 
L 341.448807 298.520529 
L 353.28517 287.493331 
L 365.121534 269.114668 
L 376.957898 250.599868 
L 388.794261 230.859823 
L 400.630625 201.317824 
L 412.466989 201.453962 
L 424.303352 185.38965 
L 436.139716 185.253511 
L 447.97608 190.154488 
L 459.812443 183.0753 
L 471.648807 163.199116 
L 483.48517 166.330296 
L 495.321534 156.256066 
L 507.157898 154.758545 
L 518.994261 137.877403 
L 530.830625 139.102647 
" style="fill:none;stroke:#4a98c9;stroke-linecap:square;stroke-width:1.5;"/>
   </g>
   <g id="line2d_32">
    <path clip-path="url(#pe7bf1325db)" d="M 140.230625 433.025112 
L 152.066989 432.616697 
L 163.903352 430.710762 
L 175.739716 424.312264 
L 187.57608 413.693481 
L 199.412443 395.99551 
L 211.248807 382.517824 
L 223.08517 365.77282 
L 234.921534 360.599567 
L 246.757898 345.896637 
L 258.594261 333.099642 
L 270.430625 329.287771 
L 282.266989 312.406629 
L 294.103352 305.191303 
L 305.939716 290.216096 
L 317.77608 290.624511 
L 329.612443 296.88687 
L 341.448807 291.985893 
L 353.28517 287.765608 
L 365.121534 271.156742 
L 376.957898 235.760799 
L 388.794261 216.973722 
L 400.630625 233.310311 
L 412.466989 227.864781 
L 424.303352 221.330146 
L 436.139716 215.612339 
L 447.97608 204.449004 
L 459.812443 188.929244 
L 471.648807 183.347576 
L 483.48517 167.147125 
L 495.321534 167.55554 
L 507.157898 162.790702 
L 518.994261 153.533301 
L 530.830625 161.837734 
" style="fill:none;stroke:#4a98c9;stroke-linecap:square;stroke-width:1.5;"/>
   </g>
   <g id="line2d_33">
    <path clip-path="url(#pe7bf1325db)" d="M 140.230625 432.480559 
L 152.066989 432.072144 
L 163.903352 428.668688 
L 175.739716 424.176126 
L 187.57608 421.181085 
L 199.412443 414.101896 
L 211.248807 413.557343 
L 223.08517 408.928643 
L 234.921534 409.745472 
L 246.757898 404.572219 
L 258.594261 402.93856 
L 270.430625 396.403925 
L 282.266989 386.73811 
L 294.103352 390.005427 
L 305.939716 387.282662 
L 317.77608 378.433677 
L 329.612443 374.213391 
L 341.448807 378.97823 
L 353.28517 374.894082 
L 365.121534 367.678756 
L 376.957898 373.5327 
L 388.794261 367.134203 
L 400.630625 347.258019 
L 412.466989 335.686269 
L 424.303352 312.270491 
L 436.139716 318.124436 
L 447.97608 317.852159 
L 459.812443 327.381836 
L 471.648807 324.386795 
L 483.48517 346.577328 
L 495.321534 337.183789 
L 507.157898 331.329845 
L 518.994261 324.795209 
L 530.830625 323.706103 
" style="fill:none;stroke:#d0e1f2;stroke-linecap:square;stroke-width:1.5;"/>
   </g>
   <g id="line2d_34">
    <path clip-path="url(#pe7bf1325db)" d="M 140.230625 433.16125 
L 152.066989 432.072144 
L 163.903352 428.260273 
L 175.739716 425.945923 
L 187.57608 421.589499 
L 199.412443 418.049905 
L 211.248807 417.777629 
L 223.08517 412.195961 
L 234.921534 416.688523 
L 246.757898 412.604375 
L 258.594261 407.975675 
L 270.430625 391.36681 
L 282.266989 370.946073 
L 294.103352 376.936156 
L 305.939716 370.537659 
L 317.77608 371.899041 
L 329.612443 371.762903 
L 341.448807 370.129244 
L 353.28517 373.941115 
L 365.121534 368.223309 
L 376.957898 360.735705 
L 388.794261 361.14412 
L 400.630625 353.928793 
L 412.466989 362.505502 
L 424.303352 355.69859 
L 436.139716 350.797614 
L 447.97608 343.990702 
L 459.812443 343.582287 
L 471.648807 347.938711 
L 483.48517 345.352084 
L 495.321534 334.869439 
L 507.157898 326.020454 
L 518.994261 308.867035 
L 530.830625 313.087321 
" style="fill:none;stroke:#d0e1f2;stroke-linecap:square;stroke-width:1.5;"/>
   </g>
   <g id="line2d_35">
    <path clip-path="url(#pe7bf1325db)" d="M 140.230625 433.16125 
L 152.066989 429.757794 
L 163.903352 425.129094 
L 175.739716 423.90385 
L 187.57608 418.322182 
L 199.412443 418.322182 
L 211.248807 415.735555 
L 223.08517 406.614293 
L 234.921534 409.473196 
L 246.757898 402.93856 
L 258.594261 397.356892 
L 270.430625 393.953436 
L 282.266989 383.60693 
L 294.103352 385.376727 
L 305.939716 383.60693 
L 317.77608 389.05246 
L 329.612443 382.653962 
L 341.448807 383.743068 
L 353.28517 380.067336 
L 365.121534 361.280258 
L 376.957898 368.223309 
L 388.794261 371.626765 
L 400.630625 373.260424 
L 412.466989 362.233226 
L 424.303352 361.007982 
L 436.139716 357.332249 
L 447.97608 341.81249 
L 459.812443 331.465983 
L 471.648807 328.60708 
L 483.48517 318.668989 
L 495.321534 288.174022 
L 507.157898 290.216096 
L 518.994261 287.357193 
L 530.830625 307.641791 
" style="fill:none;stroke:#d0e1f2;stroke-linecap:square;stroke-width:1.5;"/>
   </g>
   <g id="line2d_36">
    <path clip-path="url(#pe7bf1325db)" d="M 140.230625 432.616697 
L 152.066989 431.391453 
L 163.903352 427.035029 
L 175.739716 427.987997 
L 187.57608 421.997914 
L 199.412443 418.322182 
L 211.248807 416.14397 
L 223.08517 402.121731 
L 234.921534 401.168763 
L 246.757898 402.121731 
L 258.594261 405.389049 
L 270.430625 404.027666 
L 282.266989 402.802422 
L 294.103352 387.691077 
L 305.939716 373.941115 
L 317.77608 375.574774 
L 329.612443 349.708508 
L 341.448807 353.928793 
L 353.28517 352.839687 
L 365.121534 353.520378 
L 376.957898 359.238185 
L 388.794261 342.493181 
L 400.630625 342.629319 
L 412.466989 341.540213 
L 424.303352 334.05261 
L 436.139716 342.765457 
L 447.97608 343.31001 
L 459.812443 345.352084 
L 471.648807 330.104601 
L 483.48517 324.931348 
L 495.321534 308.322482 
L 507.157898 315.129394 
L 518.994261 299.609635 
L 530.830625 306.688823 
" style="fill:none;stroke:#d0e1f2;stroke-linecap:square;stroke-width:1.5;"/>
   </g>
   <g id="line2d_37">
    <path clip-path="url(#pe7bf1325db)" d="M 140.230625 432.344421 
L 152.066989 431.255315 
L 163.903352 427.579582 
L 175.739716 423.359297 
L 187.57608 422.270191 
L 199.412443 421.317223 
L 211.248807 419.275149 
L 223.08517 416.688523 
L 234.921534 413.965758 
L 246.757898 410.834578 
L 258.594261 407.839537 
L 270.430625 408.111813 
L 282.266989 408.38409 
L 294.103352 396.267786 
L 305.939716 391.230671 
L 317.77608 380.203474 
L 329.612443 356.651558 
L 341.448807 351.614443 
L 353.28517 342.629319 
L 365.121534 347.666434 
L 376.957898 352.158996 
L 388.794261 364.547576 
L 400.630625 377.480709 
L 412.466989 374.621806 
L 424.303352 368.767862 
L 436.139716 368.495585 
L 447.97608 357.059973 
L 459.812443 347.938711 
L 471.648807 333.780333 
L 483.48517 330.92143 
L 495.321534 305.327441 
L 507.157898 288.310161 
L 518.994261 283.273046 
L 530.830625 298.656667 
" style="fill:none;stroke:#d0e1f2;stroke-linecap:square;stroke-width:1.5;"/>
   </g>
   <g id="line2d_38">
    <path clip-path="url(#pe7bf1325db)" d="M 140.230625 433.025112 
L 152.066989 432.616697 
L 163.903352 428.124135 
L 175.739716 424.720679 
L 187.57608 425.673647 
L 199.412443 420.908808 
L 211.248807 416.960799 
L 223.08517 417.913767 
L 234.921534 408.928643 
L 246.757898 409.473196 
L 258.594261 390.277704 
L 270.430625 380.611889 
L 282.266989 378.297539 
L 294.103352 388.371768 
L 305.939716 382.517824 
L 317.77608 381.020303 
L 329.612443 369.584691 
L 341.448807 367.270341 
L 353.28517 357.196111 
L 365.121534 363.050055 
L 376.957898 355.834729 
L 388.794261 363.050055 
L 400.630625 355.017899 
L 412.466989 360.599567 
L 424.303352 349.572369 
L 436.139716 357.876802 
L 447.97608 348.074849 
L 459.812443 348.891678 
L 471.648807 340.178831 
L 483.48517 333.099642 
L 495.321534 311.045247 
L 507.157898 287.901746 
L 518.994261 265.166659 
L 530.830625 287.221055 
" style="fill:none;stroke:#d0e1f2;stroke-linecap:square;stroke-width:1.5;"/>
   </g>
   <g id="line2d_39">
    <path clip-path="url(#pe7bf1325db)" d="M 140.230625 433.16125 
L 152.066989 431.119176 
L 163.903352 426.762753 
L 175.739716 422.950882 
L 187.57608 423.08702 
L 199.412443 423.223158 
L 211.248807 420.364255 
L 223.08517 415.463279 
L 234.921534 415.191002 
L 246.757898 404.844496 
L 258.594261 390.413842 
L 270.430625 388.507907 
L 282.266989 374.485668 
L 294.103352 377.752986 
L 305.939716 380.611889 
L 317.77608 377.344571 
L 329.612443 390.005427 
L 341.448807 376.391603 
L 353.28517 358.557493 
L 365.121534 356.107005 
L 376.957898 361.007982 
L 388.794261 345.760499 
L 400.630625 351.88672 
L 412.466989 347.802572 
L 424.303352 348.483264 
L 436.139716 360.191152 
L 447.97608 353.928793 
L 459.812443 354.064931 
L 471.648807 342.357043 
L 483.48517 341.676351 
L 495.321534 323.161551 
L 507.157898 318.260574 
L 518.994261 301.107155 
L 530.830625 313.631874 
" style="fill:none;stroke:#d0e1f2;stroke-linecap:square;stroke-width:1.5;"/>
   </g>
   <g id="line2d_40">
    <path clip-path="url(#pe7bf1325db)" d="M 140.230625 433.16125 
L 152.066989 431.663729 
L 163.903352 426.626614 
L 175.739716 422.270191 
L 187.57608 417.096937 
L 199.412443 413.557343 
L 211.248807 403.891528 
L 223.08517 400.215795 
L 234.921534 395.042542 
L 246.757898 393.953436 
L 258.594261 395.314819 
L 270.430625 384.015345 
L 282.266989 391.775224 
L 294.103352 387.691077 
L 305.939716 380.748027 
L 317.77608 382.381686 
L 329.612443 370.129244 
L 341.448807 365.908958 
L 353.28517 370.809935 
L 365.121534 364.2753 
L 376.957898 356.651558 
L 388.794261 362.777779 
L 400.630625 369.856968 
L 412.466989 363.730747 
L 424.303352 357.604526 
L 436.139716 351.342167 
L 447.97608 349.844646 
L 459.812443 346.985743 
L 471.648807 342.493181 
L 483.48517 341.948628 
L 495.321534 332.555089 
L 507.157898 317.579883 
L 518.994261 283.136907 
L 530.830625 297.567561 
" style="fill:none;stroke:#d0e1f2;stroke-linecap:square;stroke-width:1.5;"/>
   </g>
   <g id="line2d_41">
    <path clip-path="url(#pe7bf1325db)" d="M 140.230625 433.16125 
L 152.066989 432.752835 
L 163.903352 430.710762 
L 175.739716 429.893932 
L 187.57608 425.945923 
L 199.412443 414.510311 
L 211.248807 410.562302 
L 223.08517 393.408883 
L 234.921534 392.86433 
L 246.757898 394.906404 
L 258.594261 397.765307 
L 270.430625 392.047501 
L 282.266989 391.36681 
L 294.103352 393.272745 
L 305.939716 392.728192 
L 317.77608 386.465833 
L 329.612443 381.700995 
L 341.448807 377.344571 
L 353.28517 369.176276 
L 365.121534 362.505502 
L 376.957898 358.965908 
L 388.794261 352.431273 
L 400.630625 343.037734 
L 412.466989 338.136757 
L 424.303352 337.864481 
L 436.139716 349.708508 
L 447.97608 351.750581 
L 459.812443 349.708508 
L 471.648807 345.760499 
L 483.48517 336.775375 
L 495.321534 327.10956 
L 507.157898 306.280409 
L 518.994261 284.362152 
L 530.830625 290.216096 
" style="fill:none;stroke:#d0e1f2;stroke-linecap:square;stroke-width:1.5;"/>
   </g>
   <g id="line2d_42">
    <path clip-path="url(#pe7bf1325db)" d="M 140.230625 432.888974 
L 152.066989 432.072144 
L 163.903352 430.302347 
L 175.739716 429.621656 
L 187.57608 428.124135 
L 199.412443 423.08702 
L 211.248807 408.792505 
L 223.08517 400.488072 
L 234.921534 391.911363 
L 246.757898 393.272745 
L 258.594261 389.188598 
L 270.430625 385.785142 
L 282.266989 383.879206 
L 294.103352 388.099492 
L 305.939716 389.188598 
L 317.77608 389.869289 
L 329.612443 388.23563 
L 341.448807 381.29258 
L 353.28517 374.485668 
L 365.121534 370.673797 
L 376.957898 371.082212 
L 388.794261 350.116922 
L 400.630625 352.431273 
L 412.466989 350.933752 
L 424.303352 353.38424 
L 436.139716 350.797614 
L 447.97608 353.111964 
L 459.812443 344.943669 
L 471.648807 347.394158 
L 483.48517 325.475901 
L 495.321534 314.584841 
L 507.157898 290.896787 
L 518.994261 294.436381 
L 530.830625 302.468538 
" style="fill:none;stroke:#d0e1f2;stroke-linecap:square;stroke-width:1.5;"/>
   </g>
   <g id="line2d_43">
    <path clip-path="url(#pe7bf1325db)" d="M 140.230625 432.752835 
L 152.066989 429.213241 
L 163.903352 412.332099 
L 175.739716 405.525187 
L 187.57608 391.911363 
L 199.412443 371.899041 
L 211.248807 363.186194 
L 223.08517 360.735705 
L 234.921534 359.510461 
L 246.757898 364.683714 
L 258.594261 360.871844 
L 270.430625 344.671393 
L 282.266989 327.654113 
L 294.103352 312.951182 
L 305.939716 277.282963 
L 317.77608 259.72113 
L 329.612443 259.448853 
L 341.448807 264.894383 
L 353.28517 252.505803 
L 365.121534 240.525638 
L 376.957898 226.503399 
L 388.794261 202.951483 
L 400.630625 207.444045 
L 412.466989 205.401971 
L 424.303352 187.976276 
L 436.139716 187.431723 
L 447.97608 192.3327 
L 459.812443 186.342617 
L 471.648807 165.785743 
L 483.48517 168.916922 
L 495.321534 168.100093 
L 507.157898 174.226314 
L 518.994261 201.453962 
L 530.830625 189.882212 
" style="fill:none;stroke:#1764ab;stroke-linecap:square;stroke-width:1.5;"/>
   </g>
   <g id="line2d_44">
    <path clip-path="url(#pe7bf1325db)" d="M 140.230625 432.344421 
L 152.066989 427.171167 
L 163.903352 412.468237 
L 175.739716 400.351934 
L 187.57608 401.304901 
L 199.412443 395.723233 
L 211.248807 394.906404 
L 223.08517 382.7901 
L 234.921534 371.626765 
L 246.757898 355.426314 
L 258.594261 341.540213 
L 270.430625 325.612039 
L 282.266989 297.703699 
L 294.103352 271.156742 
L 305.939716 250.872144 
L 317.77608 243.656817 
L 329.612443 253.186494 
L 341.448807 242.295435 
L 353.28517 234.399417 
L 365.121534 228.953887 
L 376.957898 245.971167 
L 388.794261 238.755841 
L 400.630625 222.283113 
L 412.466989 192.741115 
L 424.303352 210.983639 
L 436.139716 198.731197 
L 447.97608 183.755991 
L 459.812443 175.31542 
L 471.648807 175.043143 
L 483.48517 191.379732 
L 495.321534 206.763354 
L 507.157898 199.548027 
L 518.994261 185.934203 
L 530.830625 196.144571 
" style="fill:none;stroke:#1764ab;stroke-linecap:square;stroke-width:1.5;"/>
   </g>
   <g id="line2d_45">
    <path clip-path="url(#pe7bf1325db)" d="M 140.230625 432.480559 
L 152.066989 425.40137 
L 163.903352 419.275149 
L 175.739716 405.525187 
L 187.57608 396.403925 
L 199.412443 381.020303 
L 211.248807 369.040138 
L 223.08517 363.186194 
L 234.921534 348.619402 
L 246.757898 325.884315 
L 258.594261 310.636832 
L 270.430625 312.134353 
L 282.266989 296.88687 
L 294.103352 308.45862 
L 305.939716 294.027967 
L 317.77608 288.037884 
L 329.612443 270.203774 
L 341.448807 280.414143 
L 353.28517 267.617148 
L 365.121534 257.134503 
L 376.957898 247.604826 
L 388.794261 235.216246 
L 400.630625 228.953887 
L 412.466989 216.565307 
L 424.303352 223.644496 
L 436.139716 218.335104 
L 447.97608 184.164406 
L 459.812443 166.738711 
L 471.648807 148.496186 
L 483.48517 144.820454 
L 495.321534 125.624961 
L 507.157898 132.976427 
L 518.994261 150.402122 
L 530.830625 143.459071 
" style="fill:none;stroke:#1764ab;stroke-linecap:square;stroke-width:1.5;"/>
   </g>
   <g id="line2d_46">
    <path clip-path="url(#pe7bf1325db)" d="M 140.230625 432.344421 
L 152.066989 429.621656 
L 163.903352 420.500394 
L 175.739716 407.703399 
L 187.57608 392.047501 
L 199.412443 373.804977 
L 211.248807 365.500544 
L 223.08517 349.027816 
L 234.921534 348.210987 
L 246.757898 358.149079 
L 258.594261 362.913917 
L 270.430625 352.022858 
L 282.266989 337.456066 
L 294.103352 309.956141 
L 305.939716 274.560198 
L 317.77608 269.386945 
L 329.612443 241.478605 
L 341.448807 227.864781 
L 353.28517 237.394458 
L 365.121534 226.367261 
L 376.957898 210.847501 
L 388.794261 177.357493 
L 400.630625 171.639687 
L 412.466989 154.077854 
L 424.303352 157.209034 
L 436.139716 174.770867 
L 447.97608 170.006028 
L 459.812443 179.263429 
L 471.648807 176.132249 
L 483.48517 166.466434 
L 495.321534 169.325337 
L 507.157898 184.708958 
L 518.994261 165.513466 
L 530.830625 164.968913 
" style="fill:none;stroke:#1764ab;stroke-linecap:square;stroke-width:1.5;"/>
   </g>
   <g id="line2d_47">
    <path clip-path="url(#pe7bf1325db)" d="M 140.230625 430.302347 
L 152.066989 421.861776 
L 163.903352 410.426164 
L 175.739716 402.666284 
L 187.57608 386.329695 
L 199.412443 382.245548 
L 211.248807 374.757944 
L 223.08517 376.527741 
L 234.921534 374.213391 
L 246.757898 362.369364 
L 258.594261 360.871844 
L 270.430625 334.869439 
L 282.266989 332.691227 
L 294.103352 308.867035 
L 305.939716 283.000769 
L 317.77608 274.015645 
L 329.612443 250.599868 
L 341.448807 242.70385 
L 353.28517 241.478605 
L 365.121534 239.028117 
L 376.957898 242.976126 
L 388.794261 254.139462 
L 400.630625 260.401821 
L 412.466989 251.552835 
L 424.303352 236.033076 
L 436.139716 195.736156 
L 447.97608 166.194158 
L 459.812443 161.837734 
L 471.648807 143.050656 
L 483.48517 125.897238 
L 495.321534 119.498741 
L 507.157898 121.676952 
L 518.994261 141.961551 
L 530.830625 128.07545 
" style="fill:none;stroke:#1764ab;stroke-linecap:square;stroke-width:1.5;"/>
   </g>
   <g id="line2d_48">
    <path clip-path="url(#pe7bf1325db)" d="M 140.230625 431.527591 
L 152.066989 421.317223 
L 163.903352 409.609334 
L 175.739716 391.911363 
L 187.57608 386.465833 
L 199.412443 367.678756 
L 211.248807 367.270341 
L 223.08517 375.983188 
L 234.921534 379.250506 
L 246.757898 363.322332 
L 258.594261 347.530296 
L 270.430625 324.795209 
L 282.266989 316.490777 
L 294.103352 289.671543 
L 305.939716 278.644345 
L 317.77608 261.21865 
L 329.612443 256.998365 
L 341.448807 262.443895 
L 353.28517 248.693932 
L 365.121534 251.416697 
L 376.957898 241.478605 
L 388.794261 230.179131 
L 400.630625 217.518275 
L 412.466989 229.770717 
L 424.303352 218.335104 
L 436.139716 226.911813 
L 447.97608 216.429169 
L 459.812443 208.669289 
L 471.648807 181.713917 
L 483.48517 183.483714 
L 495.321534 157.753587 
L 507.157898 115.823008 
L 518.994261 108.335405 
L 530.830625 87.642392 
" style="fill:none;stroke:#1764ab;stroke-linecap:square;stroke-width:1.5;"/>
   </g>
   <g id="line2d_49">
    <path clip-path="url(#pe7bf1325db)" d="M 140.230625 430.166209 
L 152.066989 421.044946 
L 163.903352 412.059823 
L 175.739716 401.304901 
L 187.57608 395.99551 
L 199.412443 387.418801 
L 211.248807 386.329695 
L 223.08517 380.47575 
L 234.921534 371.490626 
L 246.757898 342.629319 
L 258.594261 334.869439 
L 270.430625 329.287771 
L 282.266989 311.045247 
L 294.103352 299.609635 
L 305.939716 301.651708 
L 317.77608 299.20122 
L 329.612443 282.728493 
L 341.448807 272.518125 
L 353.28517 242.976126 
L 365.121534 215.340063 
L 376.957898 207.988598 
L 388.794261 192.468838 
L 400.630625 197.642091 
L 412.466989 170.142167 
L 424.303352 167.283264 
L 436.139716 175.043143 
L 447.97608 176.132249 
L 459.812443 193.421806 
L 471.648807 187.295585 
L 483.48517 178.310461 
L 495.321534 156.119928 
L 507.157898 136.788297 
L 518.994261 99.078004 
L 530.830625 111.194308 
" style="fill:none;stroke:#1764ab;stroke-linecap:square;stroke-width:1.5;"/>
   </g>
   <g id="line2d_50">
    <path clip-path="url(#pe7bf1325db)" d="M 140.230625 430.8469 
L 152.066989 421.453361 
L 163.903352 409.200919 
L 175.739716 393.000469 
L 187.57608 376.527741 
L 199.412443 370.537659 
L 211.248807 356.787696 
L 223.08517 332.691227 
L 234.921534 324.522933 
L 246.757898 335.550131 
L 258.594261 320.438786 
L 270.430625 308.186344 
L 282.266989 302.060123 
L 294.103352 299.20122 
L 305.939716 304.374473 
L 317.77608 306.280409 
L 329.612443 297.703699 
L 341.448807 297.159146 
L 353.28517 269.114668 
L 365.121534 243.384541 
L 376.957898 242.431573 
L 388.794261 245.835029 
L 400.630625 250.327591 
L 412.466989 242.159297 
L 424.303352 201.317824 
L 436.139716 179.127291 
L 447.97608 160.61249 
L 459.812443 169.86989 
L 471.648807 169.189199 
L 483.48517 185.934203 
L 495.321534 187.295585 
L 507.157898 183.211438 
L 518.994261 165.649605 
L 530.830625 142.369965 
" style="fill:none;stroke:#1764ab;stroke-linecap:square;stroke-width:1.5;"/>
   </g>
   <g id="line2d_51">
    <path clip-path="url(#pe7bf1325db)" d="M 140.230625 432.616697 
L 152.066989 427.035029 
L 163.903352 424.856817 
L 175.739716 419.547426 
L 187.57608 416.960799 
L 199.412443 405.933602 
L 211.248807 398.037584 
L 223.08517 383.60693 
L 234.921534 370.265382 
L 246.757898 368.631723 
L 258.594261 342.084766 
L 270.430625 347.530296 
L 282.266989 335.277854 
L 294.103352 320.574924 
L 305.939716 305.191303 
L 317.77608 311.862076 
L 329.612443 286.948778 
L 341.448807 267.753286 
L 353.28517 254.820153 
L 365.121534 250.055315 
L 376.957898 243.384541 
L 388.794261 223.372219 
L 400.630625 219.832625 
L 412.466989 212.072745 
L 424.303352 206.082662 
L 436.139716 207.85246 
L 447.97608 205.129695 
L 459.812443 190.699041 
L 471.648807 186.206479 
L 483.48517 157.209034 
L 495.321534 133.52098 
L 507.157898 119.771017 
L 518.994261 118.818049 
L 530.830625 111.738861 
" style="fill:none;stroke:#1764ab;stroke-linecap:square;stroke-width:1.5;"/>
   </g>
   <g id="line2d_52">
    <path clip-path="url(#pe7bf1325db)" d="M 140.230625 432.072144 
L 152.066989 427.171167 
L 163.903352 423.08702 
L 175.739716 416.824661 
L 187.57608 405.797463 
L 199.412443 394.361851 
L 211.248807 382.381686 
L 223.08517 359.646599 
L 234.921534 356.107005 
L 246.757898 322.889274 
L 258.594261 309.003173 
L 270.430625 313.495735 
L 282.266989 322.480859 
L 294.103352 319.485818 
L 305.939716 295.797764 
L 317.77608 297.975976 
L 329.612443 284.906705 
L 341.448807 280.278004 
L 353.28517 256.58995 
L 365.121534 232.62962 
L 376.957898 223.099943 
L 388.794261 200.500995 
L 400.630625 194.102497 
L 412.466989 181.986194 
L 424.303352 197.914368 
L 436.139716 220.649454 
L 447.97608 205.946524 
L 459.812443 185.117373 
L 471.648807 163.062978 
L 483.48517 144.139762 
L 495.321534 133.112565 
L 507.157898 137.468989 
L 518.994261 138.14968 
L 530.830625 136.243744 
" style="fill:none;stroke:#1764ab;stroke-linecap:square;stroke-width:1.5;"/>
   </g>
   <g id="line2d_53">
    <path clip-path="url(#pe7bf1325db)" d="M 140.230625 433.16125 
L 152.066989 430.166209 
L 163.903352 423.631573 
L 175.739716 415.054864 
L 187.57608 395.178681 
L 199.412443 389.733151 
L 211.248807 381.564856 
L 223.08517 388.916321 
L 234.921534 380.203474 
L 246.757898 371.21835 
L 258.594261 369.856968 
L 270.430625 362.233226 
L 282.266989 339.906554 
L 294.103352 335.822407 
L 305.939716 313.90415 
L 317.77608 312.134353 
L 329.612443 297.975976 
L 341.448807 303.421505 
L 353.28517 311.181385 
L 365.121534 320.438786 
L 376.957898 310.364556 
L 388.794261 301.787847 
L 400.630625 290.896787 
L 412.466989 287.765608 
L 424.303352 283.409184 
L 436.139716 287.901746 
L 447.97608 284.089875 
L 459.812443 270.203774 
L 471.648807 268.570116 
L 483.48517 287.221055 
L 495.321534 266.936457 
L 507.157898 246.107306 
L 518.994261 251.008282 
L 530.830625 242.70385 
" style="fill:none;stroke:#94c4df;stroke-linecap:square;stroke-width:1.5;"/>
   </g>
   <g id="line2d_54">
    <path clip-path="url(#pe7bf1325db)" d="M 140.230625 433.025112 
L 152.066989 432.208282 
L 163.903352 426.762753 
L 175.739716 424.176126 
L 187.57608 422.950882 
L 199.412443 419.139011 
L 211.248807 412.195961 
L 223.08517 397.356892 
L 234.921534 389.188598 
L 246.757898 381.700995 
L 258.594261 363.866885 
L 270.430625 337.047651 
L 282.266989 308.594759 
L 294.103352 308.45862 
L 305.939716 308.730897 
L 317.77608 300.290326 
L 329.612443 310.500694 
L 341.448807 314.448703 
L 353.28517 309.27545 
L 365.121534 306.008132 
L 376.957898 310.636832 
L 388.794261 289.12699 
L 400.630625 289.535405 
L 412.466989 271.565157 
L 424.303352 281.503248 
L 436.139716 276.73841 
L 447.97608 260.401821 
L 459.812443 252.505803 
L 471.648807 249.919176 
L 483.48517 251.280559 
L 495.321534 254.820153 
L 507.157898 268.706254 
L 518.994261 247.196412 
L 530.830625 271.973572 
" style="fill:none;stroke:#94c4df;stroke-linecap:square;stroke-width:1.5;"/>
   </g>
   <g id="line2d_55">
    <path clip-path="url(#pe7bf1325db)" d="M 140.230625 433.16125 
L 152.066989 431.391453 
L 163.903352 423.631573 
L 175.739716 403.210837 
L 187.57608 403.619252 
L 199.412443 383.60693 
L 211.248807 378.842091 
L 223.08517 368.767862 
L 234.921534 365.092129 
L 246.757898 366.725788 
L 258.594261 372.579732 
L 270.430625 372.852009 
L 282.266989 364.139161 
L 294.103352 362.233226 
L 305.939716 355.834729 
L 317.77608 351.206028 
L 329.612443 333.508057 
L 341.448807 328.470942 
L 353.28517 320.983339 
L 365.121534 311.045247 
L 376.957898 307.641791 
L 388.794261 301.651708 
L 400.630625 301.379432 
L 412.466989 292.25817 
L 424.303352 293.347276 
L 436.139716 293.347276 
L 447.97608 274.560198 
L 459.812443 263.260724 
L 471.648807 245.426614 
L 483.48517 232.493481 
L 495.321534 227.047952 
L 507.157898 212.345022 
L 518.994261 201.998515 
L 530.830625 229.770717 
" style="fill:none;stroke:#94c4df;stroke-linecap:square;stroke-width:1.5;"/>
   </g>
   <g id="line2d_56">
    <path clip-path="url(#pe7bf1325db)" d="M 140.230625 431.255315 
L 152.066989 429.077103 
L 163.903352 422.678605 
L 175.739716 418.186043 
L 187.57608 404.299943 
L 199.412443 395.042542 
L 211.248807 388.916321 
L 223.08517 381.156442 
L 234.921534 370.129244 
L 246.757898 384.559898 
L 258.594261 390.958395 
L 270.430625 379.795059 
L 282.266989 373.668838 
L 294.103352 350.797614 
L 305.939716 341.540213 
L 317.77608 333.916472 
L 329.612443 320.574924 
L 341.448807 318.668989 
L 353.28517 304.374473 
L 365.121534 295.389349 
L 376.957898 288.990852 
L 388.794261 282.18394 
L 400.630625 293.75569 
L 412.466989 286.404225 
L 424.303352 278.644345 
L 436.139716 266.800318 
L 447.97608 249.374623 
L 459.812443 258.632024 
L 471.648807 249.374623 
L 483.48517 252.505803 
L 495.321534 264.34983 
L 507.157898 228.953887 
L 518.994261 234.12714 
L 530.830625 251.96125 
" style="fill:none;stroke:#94c4df;stroke-linecap:square;stroke-width:1.5;"/>
   </g>
   <g id="line2d_57">
    <path clip-path="url(#pe7bf1325db)" d="M 140.230625 430.166209 
L 152.066989 420.091979 
L 163.903352 406.205878 
L 175.739716 397.493031 
L 187.57608 395.723233 
L 199.412443 398.037584 
L 211.248807 400.079657 
L 223.08517 405.661325 
L 234.921534 399.262828 
L 246.757898 386.465833 
L 258.594261 368.904 
L 270.430625 356.923835 
L 282.266989 342.084766 
L 294.103352 335.277854 
L 305.939716 316.2185 
L 317.77608 308.050206 
L 329.612443 316.354638 
L 341.448807 302.604676 
L 353.28517 301.51557 
L 365.121534 297.975976 
L 376.957898 306.688823 
L 388.794261 307.777929 
L 400.630625 308.867035 
L 412.466989 282.320078 
L 424.303352 280.414143 
L 436.139716 265.030521 
L 447.97608 229.226164 
L 459.812443 220.649454 
L 471.648807 212.48116 
L 483.48517 217.10986 
L 495.321534 235.488523 
L 507.157898 253.458771 
L 518.994261 254.2756 
L 530.830625 289.263128 
" style="fill:none;stroke:#94c4df;stroke-linecap:square;stroke-width:1.5;"/>
   </g>
   <g id="line2d_58">
    <path clip-path="url(#pe7bf1325db)" d="M 140.230625 431.799868 
L 152.066989 425.809785 
L 163.903352 411.923684 
L 175.739716 405.661325 
L 187.57608 400.896487 
L 199.412443 404.163804 
L 211.248807 403.619252 
L 223.08517 398.30986 
L 234.921534 390.277704 
L 246.757898 372.988147 
L 258.594261 360.871844 
L 270.430625 350.253061 
L 282.266989 352.431273 
L 294.103352 344.943669 
L 305.939716 340.451107 
L 317.77608 325.475901 
L 329.612443 287.765608 
L 341.448807 266.119627 
L 353.28517 259.584992 
L 365.121534 267.208733 
L 376.957898 254.2756 
L 388.794261 261.354789 
L 400.630625 264.622106 
L 412.466989 290.352234 
L 424.303352 304.510611 
L 436.139716 304.102197 
L 447.97608 306.9611 
L 459.812443 295.933902 
L 471.648807 269.114668 
L 483.48517 246.787997 
L 495.321534 226.775675 
L 507.157898 193.013391 
L 518.994261 190.154488 
L 530.830625 207.85246 
" style="fill:none;stroke:#94c4df;stroke-linecap:square;stroke-width:1.5;"/>
   </g>
   <g id="line2d_59">
    <path clip-path="url(#pe7bf1325db)" d="M 140.230625 433.16125 
L 152.066989 428.260273 
L 163.903352 424.584541 
L 175.739716 415.735555 
L 187.57608 403.346975 
L 199.412443 400.351934 
L 211.248807 401.577178 
L 223.08517 395.450957 
L 234.921534 387.554939 
L 246.757898 381.156442 
L 258.594261 366.861926 
L 270.430625 361.688673 
L 282.266989 356.787696 
L 294.103352 344.535255 
L 305.939716 327.654113 
L 317.77608 320.166509 
L 329.612443 311.045247 
L 341.448807 301.651708 
L 353.28517 285.587396 
L 365.121534 283.273046 
L 376.957898 289.263128 
L 388.794261 288.037884 
L 400.630625 286.676502 
L 412.466989 272.518125 
L 424.303352 274.287922 
L 436.139716 267.889424 
L 447.97608 277.010687 
L 459.812443 294.57252 
L 471.648807 284.226013 
L 483.48517 280.958696 
L 495.321534 270.203774 
L 507.157898 266.255765 
L 518.994261 222.146975 
L 530.830625 240.934052 
" style="fill:none;stroke:#94c4df;stroke-linecap:square;stroke-width:1.5;"/>
   </g>
   <g id="line2d_60">
    <path clip-path="url(#pe7bf1325db)" d="M 140.230625 431.255315 
L 152.066989 425.537508 
L 163.903352 412.468237 
L 175.739716 406.06974 
L 187.57608 389.733151 
L 199.412443 379.250506 
L 211.248807 370.537659 
L 223.08517 356.243143 
L 234.921534 356.651558 
L 246.757898 357.332249 
L 258.594261 350.525337 
L 270.430625 340.99566 
L 282.266989 343.854563 
L 294.103352 348.074849 
L 305.939716 348.210987 
L 317.77608 350.661475 
L 329.612443 339.362001 
L 341.448807 330.92143 
L 353.28517 320.166509 
L 365.121534 303.149229 
L 376.957898 301.379432 
L 388.794261 303.966058 
L 400.630625 299.881911 
L 412.466989 291.713617 
L 424.303352 254.820153 
L 436.139716 235.624661 
L 447.97608 220.649454 
L 459.812443 234.807832 
L 471.648807 234.263279 
L 483.48517 240.525638 
L 495.321534 243.929094 
L 507.157898 255.636983 
L 518.994261 259.312715 
L 530.830625 267.753286 
" style="fill:none;stroke:#94c4df;stroke-linecap:square;stroke-width:1.5;"/>
   </g>
   <g id="line2d_61">
    <path clip-path="url(#pe7bf1325db)" d="M 140.230625 432.752835 
L 152.066989 431.119176 
L 163.903352 428.53255 
L 175.739716 428.804826 
L 187.57608 426.762753 
L 199.412443 413.82962 
L 211.248807 410.970717 
L 223.08517 396.540063 
L 234.921534 380.47575 
L 246.757898 375.438635 
L 258.594261 364.819853 
L 270.430625 353.928793 
L 282.266989 329.015495 
L 294.103352 335.141716 
L 305.939716 333.23578 
L 317.77608 327.926389 
L 329.612443 314.040288 
L 341.448807 306.008132 
L 353.28517 293.75569 
L 365.121534 280.005728 
L 376.957898 284.634428 
L 388.794261 285.587396 
L 400.630625 277.419101 
L 412.466989 272.926539 
L 424.303352 250.055315 
L 436.139716 242.567711 
L 447.97608 250.463729 
L 459.812443 255.909259 
L 471.648807 257.542918 
L 483.48517 253.731047 
L 495.321534 238.619702 
L 507.157898 230.859823 
L 518.994261 218.607381 
L 530.830625 231.676652 
" style="fill:none;stroke:#94c4df;stroke-linecap:square;stroke-width:1.5;"/>
   </g>
   <g id="line2d_62">
    <path clip-path="url(#pe7bf1325db)" d="M 140.230625 432.344421 
L 152.066989 430.438485 
L 163.903352 428.124135 
L 175.739716 425.537508 
L 187.57608 420.091979 
L 199.412443 409.473196 
L 211.248807 397.220754 
L 223.08517 367.951032 
L 234.921534 349.436231 
L 246.757898 325.203624 
L 258.594261 324.931348 
L 270.430625 317.443744 
L 282.266989 307.641791 
L 294.103352 308.594759 
L 305.939716 316.354638 
L 317.77608 319.213542 
L 329.612443 318.668989 
L 341.448807 298.248252 
L 353.28517 287.493331 
L 365.121534 272.654263 
L 376.957898 267.889424 
L 388.794261 254.547877 
L 400.630625 261.490927 
L 412.466989 263.669139 
L 424.303352 263.260724 
L 436.139716 272.381986 
L 447.97608 254.547877 
L 459.812443 229.090025 
L 471.648807 240.934052 
L 483.48517 223.508357 
L 495.321534 233.854864 
L 507.157898 228.000919 
L 518.994261 216.565307 
L 530.830625 228.953887 
" style="fill:none;stroke:#94c4df;stroke-linecap:square;stroke-width:1.5;"/>
   </g>
   <g id="line2d_63">
    <path clip-path="url(#pe7bf1325db)" d="M 140.230625 433.16125 
L 152.066989 433.16125 
L 163.903352 433.16125 
L 175.739716 433.16125 
L 187.57608 433.16125 
L 199.412443 433.16125 
L 211.248807 433.16125 
L 223.08517 433.16125 
L 234.921534 433.16125 
L 246.757898 433.16125 
L 258.594261 433.16125 
L 270.430625 433.16125 
L 282.266989 433.16125 
L 294.103352 433.16125 
L 305.939716 433.16125 
L 317.77608 433.16125 
L 329.612443 433.16125 
L 341.448807 433.16125 
L 353.28517 433.16125 
L 365.121534 433.16125 
L 376.957898 433.16125 
L 388.794261 433.16125 
L 400.630625 433.16125 
L 412.466989 433.16125 
L 424.303352 433.16125 
L 436.139716 433.16125 
L 447.97608 433.16125 
L 459.812443 433.16125 
L 471.648807 433.16125 
L 483.48517 433.16125 
L 495.321534 433.16125 
L 507.157898 433.16125 
L 518.994261 433.16125 
L 530.830625 433.16125 
" style="fill:none;stroke:#000000;stroke-linecap:square;stroke-width:1.5;"/>
   </g>
   <g id="line2d_64">
    <path clip-path="url(#pe7bf1325db)" d="M 140.230625 433.16125 
L 152.066989 433.16125 
L 163.903352 433.16125 
L 175.739716 433.16125 
L 187.57608 433.16125 
L 199.412443 433.16125 
L 211.248807 433.16125 
L 223.08517 433.16125 
L 234.921534 433.16125 
L 246.757898 433.16125 
L 258.594261 433.16125 
L 270.430625 433.16125 
L 282.266989 433.16125 
L 294.103352 433.16125 
L 305.939716 433.16125 
L 317.77608 433.16125 
L 329.612443 433.16125 
L 341.448807 433.16125 
L 353.28517 433.16125 
L 365.121534 433.16125 
L 376.957898 433.16125 
L 388.794261 433.16125 
L 400.630625 433.16125 
L 412.466989 433.16125 
L 424.303352 433.16125 
L 436.139716 433.16125 
L 447.97608 433.16125 
L 459.812443 433.16125 
L 471.648807 433.16125 
L 483.48517 433.16125 
L 495.321534 433.16125 
L 507.157898 433.16125 
L 518.994261 433.16125 
L 530.830625 433.16125 
" style="fill:none;stroke:#000000;stroke-linecap:square;stroke-width:1.5;"/>
   </g>
   <g id="line2d_65">
    <path clip-path="url(#pe7bf1325db)" d="M 140.230625 433.16125 
L 152.066989 433.16125 
L 163.903352 433.16125 
L 175.739716 433.16125 
L 187.57608 433.16125 
L 199.412443 433.16125 
L 211.248807 433.16125 
L 223.08517 433.16125 
L 234.921534 433.16125 
L 246.757898 433.16125 
L 258.594261 433.16125 
L 270.430625 433.16125 
L 282.266989 433.16125 
L 294.103352 433.16125 
L 305.939716 433.16125 
L 317.77608 433.16125 
L 329.612443 433.16125 
L 341.448807 433.16125 
L 353.28517 433.16125 
L 365.121534 433.16125 
L 376.957898 433.16125 
L 388.794261 433.16125 
L 400.630625 433.16125 
L 412.466989 433.16125 
L 424.303352 433.16125 
L 436.139716 433.16125 
L 447.97608 433.16125 
L 459.812443 433.16125 
L 471.648807 433.16125 
L 483.48517 433.16125 
L 495.321534 433.16125 
L 507.157898 433.16125 
L 518.994261 433.16125 
L 530.830625 433.16125 
" style="fill:none;stroke:#000000;stroke-linecap:square;stroke-width:1.5;"/>
   </g>
   <g id="line2d_66">
    <path clip-path="url(#pe7bf1325db)" d="M 140.230625 433.16125 
L 152.066989 433.16125 
L 163.903352 433.16125 
L 175.739716 433.16125 
L 187.57608 433.16125 
L 199.412443 433.16125 
L 211.248807 433.16125 
L 223.08517 433.16125 
L 234.921534 433.16125 
L 246.757898 433.16125 
L 258.594261 433.16125 
L 270.430625 433.16125 
L 282.266989 433.16125 
L 294.103352 433.16125 
L 305.939716 433.16125 
L 317.77608 433.16125 
L 329.612443 433.16125 
L 341.448807 433.16125 
L 353.28517 433.16125 
L 365.121534 433.16125 
L 376.957898 433.16125 
L 388.794261 433.16125 
L 400.630625 433.16125 
L 412.466989 433.16125 
L 424.303352 433.16125 
L 436.139716 433.16125 
L 447.97608 433.16125 
L 459.812443 433.16125 
L 471.648807 433.16125 
L 483.48517 433.16125 
L 495.321534 433.16125 
L 507.157898 433.16125 
L 518.994261 433.16125 
L 530.830625 433.16125 
" style="fill:none;stroke:#000000;stroke-linecap:square;stroke-width:1.5;"/>
   </g>
   <g id="line2d_67">
    <path clip-path="url(#pe7bf1325db)" d="M 140.230625 433.16125 
L 152.066989 433.16125 
L 163.903352 433.16125 
L 175.739716 433.16125 
L 187.57608 433.16125 
L 199.412443 433.16125 
L 211.248807 433.16125 
L 223.08517 433.16125 
L 234.921534 433.16125 
L 246.757898 433.16125 
L 258.594261 433.16125 
L 270.430625 433.16125 
L 282.266989 433.16125 
L 294.103352 433.16125 
L 305.939716 433.16125 
L 317.77608 433.16125 
L 329.612443 433.16125 
L 341.448807 433.16125 
L 353.28517 433.16125 
L 365.121534 433.16125 
L 376.957898 433.16125 
L 388.794261 433.16125 
L 400.630625 433.16125 
L 412.466989 433.16125 
L 424.303352 433.16125 
L 436.139716 433.16125 
L 447.97608 433.16125 
L 459.812443 433.16125 
L 471.648807 433.16125 
L 483.48517 433.16125 
L 495.321534 433.16125 
L 507.157898 433.16125 
L 518.994261 433.16125 
L 530.830625 433.16125 
" style="fill:none;stroke:#000000;stroke-linecap:square;stroke-width:1.5;"/>
   </g>
   <g id="line2d_68">
    <path clip-path="url(#pe7bf1325db)" d="M 140.230625 433.16125 
L 152.066989 433.16125 
L 163.903352 433.16125 
L 175.739716 433.16125 
L 187.57608 433.16125 
L 199.412443 433.16125 
L 211.248807 433.16125 
L 223.08517 433.16125 
L 234.921534 433.16125 
L 246.757898 433.16125 
L 258.594261 433.16125 
L 270.430625 433.16125 
L 282.266989 433.16125 
L 294.103352 433.16125 
L 305.939716 433.16125 
L 317.77608 433.16125 
L 329.612443 433.16125 
L 341.448807 433.16125 
L 353.28517 433.16125 
L 365.121534 433.16125 
L 376.957898 433.16125 
L 388.794261 433.16125 
L 400.630625 433.16125 
L 412.466989 433.16125 
L 424.303352 433.16125 
L 436.139716 433.16125 
L 447.97608 433.16125 
L 459.812443 433.16125 
L 471.648807 433.16125 
L 483.48517 433.16125 
L 495.321534 433.16125 
L 507.157898 433.16125 
L 518.994261 433.16125 
L 530.830625 433.16125 
" style="fill:none;stroke:#000000;stroke-linecap:square;stroke-width:1.5;"/>
   </g>
   <g id="line2d_69">
    <path clip-path="url(#pe7bf1325db)" d="M 140.230625 433.16125 
L 152.066989 433.16125 
L 163.903352 433.16125 
L 175.739716 433.16125 
L 187.57608 433.16125 
L 199.412443 433.16125 
L 211.248807 433.16125 
L 223.08517 433.16125 
L 234.921534 433.16125 
L 246.757898 433.16125 
L 258.594261 433.16125 
L 270.430625 433.16125 
L 282.266989 433.16125 
L 294.103352 433.16125 
L 305.939716 433.16125 
L 317.77608 433.16125 
L 329.612443 433.16125 
L 341.448807 433.16125 
L 353.28517 433.16125 
L 365.121534 433.16125 
L 376.957898 433.16125 
L 388.794261 433.16125 
L 400.630625 433.16125 
L 412.466989 433.16125 
L 424.303352 433.16125 
L 436.139716 433.16125 
L 447.97608 433.16125 
L 459.812443 433.16125 
L 471.648807 433.16125 
L 483.48517 433.16125 
L 495.321534 433.16125 
L 507.157898 433.16125 
L 518.994261 433.16125 
L 530.830625 433.16125 
" style="fill:none;stroke:#000000;stroke-linecap:square;stroke-width:1.5;"/>
   </g>
   <g id="line2d_70">
    <path clip-path="url(#pe7bf1325db)" d="M 140.230625 433.16125 
L 152.066989 433.16125 
L 163.903352 433.16125 
L 175.739716 433.16125 
L 187.57608 433.16125 
L 199.412443 433.16125 
L 211.248807 433.16125 
L 223.08517 433.16125 
L 234.921534 433.16125 
L 246.757898 433.16125 
L 258.594261 433.16125 
L 270.430625 433.16125 
L 282.266989 433.16125 
L 294.103352 433.16125 
L 305.939716 433.16125 
L 317.77608 433.16125 
L 329.612443 433.16125 
L 341.448807 433.16125 
L 353.28517 433.16125 
L 365.121534 433.16125 
L 376.957898 433.16125 
L 388.794261 433.16125 
L 400.630625 433.16125 
L 412.466989 433.16125 
L 424.303352 433.16125 
L 436.139716 433.16125 
L 447.97608 433.16125 
L 459.812443 433.16125 
L 471.648807 433.16125 
L 483.48517 433.16125 
L 495.321534 433.16125 
L 507.157898 433.16125 
L 518.994261 433.16125 
L 530.830625 433.16125 
" style="fill:none;stroke:#000000;stroke-linecap:square;stroke-width:1.5;"/>
   </g>
   <g id="line2d_71">
    <path clip-path="url(#pe7bf1325db)" d="M 140.230625 433.16125 
L 152.066989 433.16125 
L 163.903352 433.16125 
L 175.739716 433.16125 
L 187.57608 433.16125 
L 199.412443 433.16125 
L 211.248807 433.16125 
L 223.08517 433.16125 
L 234.921534 433.16125 
L 246.757898 433.16125 
L 258.594261 433.16125 
L 270.430625 433.16125 
L 282.266989 433.16125 
L 294.103352 433.16125 
L 305.939716 433.16125 
L 317.77608 433.16125 
L 329.612443 433.16125 
L 341.448807 433.16125 
L 353.28517 433.16125 
L 365.121534 433.16125 
L 376.957898 433.16125 
L 388.794261 433.16125 
L 400.630625 433.16125 
L 412.466989 433.16125 
L 424.303352 433.16125 
L 436.139716 433.16125 
L 447.97608 433.16125 
L 459.812443 433.16125 
L 471.648807 433.16125 
L 483.48517 433.16125 
L 495.321534 433.16125 
L 507.157898 433.16125 
L 518.994261 433.16125 
L 530.830625 433.16125 
" style="fill:none;stroke:#000000;stroke-linecap:square;stroke-width:1.5;"/>
   </g>
   <g id="line2d_72">
    <path clip-path="url(#pe7bf1325db)" d="M 140.230625 433.16125 
L 152.066989 433.16125 
L 163.903352 433.16125 
L 175.739716 433.16125 
L 187.57608 433.16125 
L 199.412443 433.16125 
L 211.248807 433.16125 
L 223.08517 433.16125 
L 234.921534 433.16125 
L 246.757898 433.16125 
L 258.594261 433.16125 
L 270.430625 433.16125 
L 282.266989 433.16125 
L 294.103352 433.16125 
L 305.939716 433.16125 
L 317.77608 433.16125 
L 329.612443 433.16125 
L 341.448807 433.16125 
L 353.28517 433.16125 
L 365.121534 433.16125 
L 376.957898 433.16125 
L 388.794261 433.16125 
L 400.630625 433.16125 
L 412.466989 433.16125 
L 424.303352 433.16125 
L 436.139716 433.16125 
L 447.97608 433.16125 
L 459.812443 433.16125 
L 471.648807 433.16125 
L 483.48517 433.16125 
L 495.321534 433.16125 
L 507.157898 433.16125 
L 518.994261 433.16125 
L 530.830625 433.16125 
" style="fill:none;stroke:#000000;stroke-linecap:square;stroke-width:1.5;"/>
   </g>
   <g id="line2d_73">
    <path clip-path="url(#pe7bf1325db)" d="M 128.394261 433.16125 
" style="fill:none;stroke:#000000;stroke-linecap:square;stroke-width:1.5;"/>
   </g>
   <g id="line2d_74">
    <path clip-path="url(#pe7bf1325db)" d="M 128.394261 433.16125 
" style="fill:none;stroke:#d0e1f2;stroke-linecap:square;stroke-width:1.5;"/>
   </g>
   <g id="line2d_75">
    <path clip-path="url(#pe7bf1325db)" d="M 128.394261 433.16125 
" style="fill:none;stroke:#94c4df;stroke-linecap:square;stroke-width:1.5;"/>
   </g>
   <g id="line2d_76">
    <path clip-path="url(#pe7bf1325db)" d="M 128.394261 433.16125 
" style="fill:none;stroke:#4a98c9;stroke-linecap:square;stroke-width:1.5;"/>
   </g>
   <g id="line2d_77">
    <path clip-path="url(#pe7bf1325db)" d="M 128.394261 433.16125 
" style="fill:none;stroke:#1764ab;stroke-linecap:square;stroke-width:1.5;"/>
   </g>
   <g id="line2d_78">
    <path clip-path="url(#pe7bf1325db)" d="M 128.394261 433.16125 
" style="fill:none;stroke:#08306b;stroke-linecap:square;stroke-width:1.5;"/>
   </g>
   <g id="line2d_79">
    <path clip-path="url(#pe7bf1325db)" d="M 128.394261 433.16125 
" style="fill:none;stroke:#000000;stroke-linecap:square;stroke-width:1.5;"/>
   </g>
   <g id="line2d_80">
    <path clip-path="url(#pe7bf1325db)" d="M 128.394261 433.16125 
" style="fill:none;stroke:#000000;stroke-dasharray:1.5,2.475;stroke-dashoffset:0;stroke-width:1.5;"/>
   </g>
   <g id="line2d_81">
    <path clip-path="url(#pe7bf1325db)" d="M 128.394261 433.16125 
" style="fill:none;stroke:#000000;stroke-linecap:square;stroke-width:1.5;"/>
   </g>
   <g id="line2d_82">
    <path clip-path="url(#pe7bf1325db)" d="M 128.394261 433.16125 
" style="fill:none;stroke:#000000;stroke-dasharray:5.55,2.4;stroke-dashoffset:0;stroke-width:1.5;"/>
   </g>
   <g id="line2d_83">
    <path clip-path="url(#pe7bf1325db)" d="M 128.394261 433.16125 
" style="fill:none;stroke:#000000;stroke-dasharray:9.6,2.4,1.5,2.4;stroke-dashoffset:0;stroke-width:1.5;"/>
   </g>
   <g id="line2d_84">
    <path clip-path="url(#pe7bf1325db)" d="M 128.394261 433.16125 
" style="fill:none;stroke:#000000;stroke-dasharray:9.6,2.4,1.5,2.4;stroke-dashoffset:0;stroke-width:1.5;"/>
   </g>
   <g id="patch_3">
    <path d="M 140.230625 433.16125 
L 140.230625 52.64125 
" style="fill:none;stroke:#000000;stroke-linecap:square;stroke-linejoin:miter;stroke-width:0.8;"/>
   </g>
   <g id="patch_4">
    <path d="M 530.830625 433.16125 
L 530.830625 52.64125 
" style="fill:none;stroke:#000000;stroke-linecap:square;stroke-linejoin:miter;stroke-width:0.8;"/>
   </g>
   <g id="patch_5">
    <path d="M 140.230625 433.16125 
L 530.830625 433.16125 
" style="fill:none;stroke:#000000;stroke-linecap:square;stroke-linejoin:miter;stroke-width:0.8;"/>
   </g>
   <g id="patch_6">
    <path d="M 140.230625 52.64125 
L 530.830625 52.64125 
" style="fill:none;stroke:#000000;stroke-linecap:square;stroke-linejoin:miter;stroke-width:0.8;"/>
   </g>
   <g id="text_15">
    <!-- CD8 LIVE COUNT -->
    <g transform="translate(252.191562 21.515625)scale(0.2 -0.2)">
     <use xlink:href="#Arial-BoldMT-67"/>
     <use x="72.216797" xlink:href="#Arial-BoldMT-68"/>
     <use x="144.433594" xlink:href="#Arial-BoldMT-56"/>
     <use x="200.048828" xlink:href="#Arial-BoldMT-32"/>
     <use x="227.832031" xlink:href="#Arial-BoldMT-76"/>
     <use x="288.916016" xlink:href="#Arial-BoldMT-73"/>
     <use x="316.699219" xlink:href="#Arial-BoldMT-86"/>
     <use x="383.398438" xlink:href="#Arial-BoldMT-69"/>
     <use x="450.097656" xlink:href="#Arial-BoldMT-32"/>
     <use x="477.880859" xlink:href="#Arial-BoldMT-67"/>
     <use x="550.097656" xlink:href="#Arial-BoldMT-79"/>
     <use x="627.880859" xlink:href="#Arial-BoldMT-85"/>
     <use x="700.097656" xlink:href="#Arial-BoldMT-78"/>
     <use x="772.314453" xlink:href="#Arial-BoldMT-84"/>
    </g>
    <!-- ACROSS RADIUS AT TIME 7 -->
    <defs>
     <path d="M 4.25 57.859375 
L 4.25 70.609375 
L 51.171875 70.609375 
L 51.171875 60.640625 
Q 45.359375 54.9375 39.34375 44.234375 
Q 33.34375 33.546875 30.1875 21.5 
Q 27.046875 9.46875 27.09375 0 
L 13.875 0 
Q 14.203125 14.84375 19.984375 30.265625 
Q 25.78125 45.703125 35.453125 57.859375 
z
" id="Arial-BoldMT-55"/>
    </defs>
    <g transform="translate(200.536875 42.64125)scale(0.2 -0.2)">
     <use xlink:href="#Arial-BoldMT-65"/>
     <use x="72.216797" xlink:href="#Arial-BoldMT-67"/>
     <use x="144.433594" xlink:href="#Arial-BoldMT-82"/>
     <use x="216.650391" xlink:href="#Arial-BoldMT-79"/>
     <use x="294.433594" xlink:href="#Arial-BoldMT-83"/>
     <use x="361.132812" xlink:href="#Arial-BoldMT-83"/>
     <use x="427.832031" xlink:href="#Arial-BoldMT-32"/>
     <use x="455.615234" xlink:href="#Arial-BoldMT-82"/>
     <use x="527.832031" xlink:href="#Arial-BoldMT-65"/>
     <use x="600.048828" xlink:href="#Arial-BoldMT-68"/>
     <use x="672.265625" xlink:href="#Arial-BoldMT-73"/>
     <use x="700.048828" xlink:href="#Arial-BoldMT-85"/>
     <use x="772.265625" xlink:href="#Arial-BoldMT-83"/>
     <use x="838.964844" xlink:href="#Arial-BoldMT-32"/>
     <use x="866.701172" xlink:href="#Arial-BoldMT-65"/>
     <use x="938.808594" xlink:href="#Arial-BoldMT-84"/>
     <use x="999.892578" xlink:href="#Arial-BoldMT-32"/>
     <use x="1027.675781" xlink:href="#Arial-BoldMT-84"/>
     <use x="1088.759766" xlink:href="#Arial-BoldMT-73"/>
     <use x="1116.542969" xlink:href="#Arial-BoldMT-77"/>
     <use x="1199.84375" xlink:href="#Arial-BoldMT-69"/>
     <use x="1266.542969" xlink:href="#Arial-BoldMT-32"/>
     <use x="1294.326172" xlink:href="#Arial-BoldMT-55"/>
    </g>
   </g>
   <g id="legend_1">
    <g id="line2d_85">
     <path d="M 539.830625 65.739687 
L 559.830625 65.739687 
" style="fill:none;stroke:#000000;stroke-linecap:square;stroke-width:1.5;"/>
    </g>
    <g id="line2d_86"/>
    <g id="text_16">
     <!-- 0 -->
     <g transform="translate(567.830625 69.239687)scale(0.1 -0.1)">
      <use xlink:href="#DejaVuSans-48"/>
     </g>
    </g>
    <g id="line2d_87">
     <path d="M 539.830625 80.417812 
L 559.830625 80.417812 
" style="fill:none;stroke:#d0e1f2;stroke-linecap:square;stroke-width:1.5;"/>
    </g>
    <g id="line2d_88"/>
    <g id="text_17">
     <!-- 100 -->
     <g transform="translate(567.830625 83.917812)scale(0.1 -0.1)">
      <use xlink:href="#DejaVuSans-49"/>
      <use x="63.623047" xlink:href="#DejaVuSans-48"/>
      <use x="127.246094" xlink:href="#DejaVuSans-48"/>
     </g>
    </g>
    <g id="line2d_89">
     <path d="M 539.830625 95.095937 
L 559.830625 95.095937 
" style="fill:none;stroke:#94c4df;stroke-linecap:square;stroke-width:1.5;"/>
    </g>
    <g id="line2d_90"/>
    <g id="text_18">
     <!-- 500 -->
     <g transform="translate(567.830625 98.595937)scale(0.1 -0.1)">
      <use xlink:href="#DejaVuSans-53"/>
      <use x="63.623047" xlink:href="#DejaVuSans-48"/>
      <use x="127.246094" xlink:href="#DejaVuSans-48"/>
     </g>
    </g>
    <g id="line2d_91">
     <path d="M 539.830625 109.774062 
L 559.830625 109.774062 
" style="fill:none;stroke:#4a98c9;stroke-linecap:square;stroke-width:1.5;"/>
    </g>
    <g id="line2d_92"/>
    <g id="text_19">
     <!-- 1000 -->
     <g transform="translate(567.830625 113.274062)scale(0.1 -0.1)">
      <use xlink:href="#DejaVuSans-49"/>
      <use x="63.623047" xlink:href="#DejaVuSans-48"/>
      <use x="127.246094" xlink:href="#DejaVuSans-48"/>
      <use x="190.869141" xlink:href="#DejaVuSans-48"/>
     </g>
    </g>
    <g id="line2d_93">
     <path d="M 539.830625 124.452187 
L 559.830625 124.452187 
" style="fill:none;stroke:#1764ab;stroke-linecap:square;stroke-width:1.5;"/>
    </g>
    <g id="line2d_94"/>
    <g id="text_20">
     <!-- 5000 -->
     <g transform="translate(567.830625 127.952187)scale(0.1 -0.1)">
      <use xlink:href="#DejaVuSans-53"/>
      <use x="63.623047" xlink:href="#DejaVuSans-48"/>
      <use x="127.246094" xlink:href="#DejaVuSans-48"/>
      <use x="190.869141" xlink:href="#DejaVuSans-48"/>
     </g>
    </g>
    <g id="line2d_95">
     <path d="M 539.830625 139.130312 
L 559.830625 139.130312 
" style="fill:none;stroke:#08306b;stroke-linecap:square;stroke-width:1.5;"/>
    </g>
    <g id="line2d_96"/>
    <g id="text_21">
     <!-- 10000 -->
     <g transform="translate(567.830625 142.630312)scale(0.1 -0.1)">
      <use xlink:href="#DejaVuSans-49"/>
      <use x="63.623047" xlink:href="#DejaVuSans-48"/>
      <use x="127.246094" xlink:href="#DejaVuSans-48"/>
      <use x="190.869141" xlink:href="#DejaVuSans-48"/>
      <use x="254.492188" xlink:href="#DejaVuSans-48"/>
     </g>
    </g>
    <g id="line2d_97">
     <path d="M 539.830625 153.808437 
L 559.830625 153.808437 
" style="fill:none;stroke:#000000;stroke-linecap:square;stroke-width:1.5;"/>
    </g>
    <g id="line2d_98"/>
    <g id="text_22">
     <!-- 0 -->
     <g transform="translate(567.830625 157.308437)scale(0.1 -0.1)">
      <use xlink:href="#DejaVuSans-48"/>
     </g>
    </g>
    <g id="line2d_99">
     <path d="M 539.830625 168.486562 
L 559.830625 168.486562 
" style="fill:none;stroke:#000000;stroke-dasharray:1.5,2.475;stroke-dashoffset:0;stroke-width:1.5;"/>
    </g>
    <g id="line2d_100"/>
    <g id="text_23">
     <!-- 250 -->
     <g transform="translate(567.830625 171.986562)scale(0.1 -0.1)">
      <use xlink:href="#DejaVuSans-50"/>
      <use x="63.623047" xlink:href="#DejaVuSans-53"/>
      <use x="127.246094" xlink:href="#DejaVuSans-48"/>
     </g>
    </g>
    <g id="line2d_101">
     <path d="M 539.830625 183.164687 
L 559.830625 183.164687 
" style="fill:none;stroke:#000000;stroke-linecap:square;stroke-width:1.5;"/>
    </g>
    <g id="line2d_102"/>
    <g id="text_24">
     <!-- 500 -->
     <g transform="translate(567.830625 186.664687)scale(0.1 -0.1)">
      <use xlink:href="#DejaVuSans-53"/>
      <use x="63.623047" xlink:href="#DejaVuSans-48"/>
      <use x="127.246094" xlink:href="#DejaVuSans-48"/>
     </g>
    </g>
    <g id="line2d_103">
     <path d="M 539.830625 197.842812 
L 559.830625 197.842812 
" style="fill:none;stroke:#000000;stroke-dasharray:5.55,2.4;stroke-dashoffset:0;stroke-width:1.5;"/>
    </g>
    <g id="line2d_104"/>
    <g id="text_25">
     <!-- 1000 -->
     <g transform="translate(567.830625 201.342812)scale(0.1 -0.1)">
      <use xlink:href="#DejaVuSans-49"/>
      <use x="63.623047" xlink:href="#DejaVuSans-48"/>
      <use x="127.246094" xlink:href="#DejaVuSans-48"/>
      <use x="190.869141" xlink:href="#DejaVuSans-48"/>
     </g>
    </g>
    <g id="line2d_105">
     <path d="M 539.830625 212.520937 
L 559.830625 212.520937 
" style="fill:none;stroke:#000000;stroke-dasharray:9.6,2.4,1.5,2.4;stroke-dashoffset:0;stroke-width:1.5;"/>
    </g>
    <g id="line2d_106"/>
    <g id="text_26">
     <!-- 5000 -->
     <g transform="translate(567.830625 216.020937)scale(0.1 -0.1)">
      <use xlink:href="#DejaVuSans-53"/>
      <use x="63.623047" xlink:href="#DejaVuSans-48"/>
      <use x="127.246094" xlink:href="#DejaVuSans-48"/>
      <use x="190.869141" xlink:href="#DejaVuSans-48"/>
     </g>
    </g>
    <g id="line2d_107">
     <path d="M 539.830625 227.199062 
L 559.830625 227.199062 
" style="fill:none;stroke:#000000;stroke-dasharray:9.6,2.4,1.5,2.4;stroke-dashoffset:0;stroke-width:1.5;"/>
    </g>
    <g id="line2d_108"/>
    <g id="text_27">
     <!-- 10000 -->
     <g transform="translate(567.830625 230.699062)scale(0.1 -0.1)">
      <use xlink:href="#DejaVuSans-49"/>
      <use x="63.623047" xlink:href="#DejaVuSans-48"/>
      <use x="127.246094" xlink:href="#DejaVuSans-48"/>
      <use x="190.869141" xlink:href="#DejaVuSans-48"/>
      <use x="254.492188" xlink:href="#DejaVuSans-48"/>
     </g>
    </g>
   </g>
  </g>
 </g>
 <defs>
  <clipPath id="pe7bf1325db">
   <rect height="380.52" width="390.6" x="140.230625" y="52.64125"/>
  </clipPath>
 </defs>
</svg>
