<?xml version="1.0" encoding="utf-8" standalone="no"?>
<!DOCTYPE svg PUBLIC "-//W3C//DTD SVG 1.1//EN"
  "http://www.w3.org/Graphics/SVG/1.1/DTD/svg11.dtd">
<!-- Created with matplotlib (https://matplotlib.org/) -->
<svg height="504.658125pt" version="1.1" viewBox="0 0 610.843125 504.658125" width="610.843125pt" xmlns="http://www.w3.org/2000/svg" xmlns:xlink="http://www.w3.org/1999/xlink">
 <defs>
  <style type="text/css">
*{stroke-linecap:butt;stroke-linejoin:round;}
  </style>
 </defs>
 <g id="figure_1">
  <g id="patch_1">
   <path d="M 0 504.658125 
L 610.843125 504.658125 
L 610.843125 -0 
L 0 -0 
z
" style="fill:#ffffff;"/>
  </g>
  <g id="axes_1">
   <g id="patch_2">
    <path d="M 140.230625 433.16125 
L 530.830625 433.16125 
L 530.830625 52.64125 
L 140.230625 52.64125 
z
" style="fill:#ffffff;"/>
   </g>
   <g id="matplotlib.axis_1">
    <g id="xtick_1">
     <g id="line2d_1">
      <defs>
       <path d="M 0 0 
L 0 3.5 
" id="mf27c29336a" style="stroke:#000000;stroke-width:0.8;"/>
      </defs>
      <g>
       <use style="stroke:#000000;stroke-width:0.8;" x="187.57608" xlink:href="#mf27c29336a" y="433.16125"/>
      </g>
     </g>
     <g id="text_1">
      <!-- 5 -->
      <defs>
       <path d="M 10.796875 72.90625 
L 49.515625 72.90625 
L 49.515625 64.59375 
L 19.828125 64.59375 
L 19.828125 46.734375 
Q 21.96875 47.46875 24.109375 47.828125 
Q 26.265625 48.1875 28.421875 48.1875 
Q 40.625 48.1875 47.75 41.5 
Q 54.890625 34.8125 54.890625 23.390625 
Q 54.890625 11.625 47.5625 5.09375 
Q 40.234375 -1.421875 26.90625 -1.421875 
Q 22.3125 -1.421875 17.546875 -0.640625 
Q 12.796875 0.140625 7.71875 1.703125 
L 7.71875 11.625 
Q 12.109375 9.234375 16.796875 8.0625 
Q 21.484375 6.890625 26.703125 6.890625 
Q 35.15625 6.890625 40.078125 11.328125 
Q 45.015625 15.765625 45.015625 23.390625 
Q 45.015625 31 40.078125 35.4375 
Q 35.15625 39.890625 26.703125 39.890625 
Q 22.75 39.890625 18.8125 39.015625 
Q 14.890625 38.140625 10.796875 36.28125 
z
" id="DejaVuSans-53"/>
      </defs>
      <g transform="translate(178.03233 462.956562)scale(0.3 -0.3)">
       <use xlink:href="#DejaVuSans-53"/>
      </g>
     </g>
    </g>
    <g id="xtick_2">
     <g id="line2d_2">
      <g>
       <use style="stroke:#000000;stroke-width:0.8;" x="246.757898" xlink:href="#mf27c29336a" y="433.16125"/>
      </g>
     </g>
     <g id="text_2">
      <!-- 10 -->
      <defs>
       <path d="M 12.40625 8.296875 
L 28.515625 8.296875 
L 28.515625 63.921875 
L 10.984375 60.40625 
L 10.984375 69.390625 
L 28.421875 72.90625 
L 38.28125 72.90625 
L 38.28125 8.296875 
L 54.390625 8.296875 
L 54.390625 0 
L 12.40625 0 
z
" id="DejaVuSans-49"/>
       <path d="M 31.78125 66.40625 
Q 24.171875 66.40625 20.328125 58.90625 
Q 16.5 51.421875 16.5 36.375 
Q 16.5 21.390625 20.328125 13.890625 
Q 24.171875 6.390625 31.78125 6.390625 
Q 39.453125 6.390625 43.28125 13.890625 
Q 47.125 21.390625 47.125 36.375 
Q 47.125 51.421875 43.28125 58.90625 
Q 39.453125 66.40625 31.78125 66.40625 
z
M 31.78125 74.21875 
Q 44.046875 74.21875 50.515625 64.515625 
Q 56.984375 54.828125 56.984375 36.375 
Q 56.984375 17.96875 50.515625 8.265625 
Q 44.046875 -1.421875 31.78125 -1.421875 
Q 19.53125 -1.421875 13.0625 8.265625 
Q 6.59375 17.96875 6.59375 36.375 
Q 6.59375 54.828125 13.0625 64.515625 
Q 19.53125 74.21875 31.78125 74.21875 
z
" id="DejaVuSans-48"/>
      </defs>
      <g transform="translate(227.670398 462.956562)scale(0.3 -0.3)">
       <use xlink:href="#DejaVuSans-49"/>
       <use x="63.623047" xlink:href="#DejaVuSans-48"/>
      </g>
     </g>
    </g>
    <g id="xtick_3">
     <g id="line2d_3">
      <g>
       <use style="stroke:#000000;stroke-width:0.8;" x="305.939716" xlink:href="#mf27c29336a" y="433.16125"/>
      </g>
     </g>
     <g id="text_3">
      <!-- 15 -->
      <g transform="translate(286.852216 462.956562)scale(0.3 -0.3)">
       <use xlink:href="#DejaVuSans-49"/>
       <use x="63.623047" xlink:href="#DejaVuSans-53"/>
      </g>
     </g>
    </g>
    <g id="xtick_4">
     <g id="line2d_4">
      <g>
       <use style="stroke:#000000;stroke-width:0.8;" x="365.121534" xlink:href="#mf27c29336a" y="433.16125"/>
      </g>
     </g>
     <g id="text_4">
      <!-- 20 -->
      <defs>
       <path d="M 19.1875 8.296875 
L 53.609375 8.296875 
L 53.609375 0 
L 7.328125 0 
L 7.328125 8.296875 
Q 12.9375 14.109375 22.625 23.890625 
Q 32.328125 33.6875 34.8125 36.53125 
Q 39.546875 41.84375 41.421875 45.53125 
Q 43.3125 49.21875 43.3125 52.78125 
Q 43.3125 58.59375 39.234375 62.25 
Q 35.15625 65.921875 28.609375 65.921875 
Q 23.96875 65.921875 18.8125 64.3125 
Q 13.671875 62.703125 7.8125 59.421875 
L 7.8125 69.390625 
Q 13.765625 71.78125 18.9375 73 
Q 24.125 74.21875 28.421875 74.21875 
Q 39.75 74.21875 46.484375 68.546875 
Q 53.21875 62.890625 53.21875 53.421875 
Q 53.21875 48.921875 51.53125 44.890625 
Q 49.859375 40.875 45.40625 35.40625 
Q 44.1875 33.984375 37.640625 27.21875 
Q 31.109375 20.453125 19.1875 8.296875 
z
" id="DejaVuSans-50"/>
      </defs>
      <g transform="translate(346.034034 462.956562)scale(0.3 -0.3)">
       <use xlink:href="#DejaVuSans-50"/>
       <use x="63.623047" xlink:href="#DejaVuSans-48"/>
      </g>
     </g>
    </g>
    <g id="xtick_5">
     <g id="line2d_5">
      <g>
       <use style="stroke:#000000;stroke-width:0.8;" x="424.303352" xlink:href="#mf27c29336a" y="433.16125"/>
      </g>
     </g>
     <g id="text_5">
      <!-- 25 -->
      <g transform="translate(405.215852 462.956562)scale(0.3 -0.3)">
       <use xlink:href="#DejaVuSans-50"/>
       <use x="63.623047" xlink:href="#DejaVuSans-53"/>
      </g>
     </g>
    </g>
    <g id="xtick_6">
     <g id="line2d_6">
      <g>
       <use style="stroke:#000000;stroke-width:0.8;" x="483.48517" xlink:href="#mf27c29336a" y="433.16125"/>
      </g>
     </g>
     <g id="text_6">
      <!-- 30 -->
      <defs>
       <path d="M 40.578125 39.3125 
Q 47.65625 37.796875 51.625 33 
Q 55.609375 28.21875 55.609375 21.1875 
Q 55.609375 10.40625 48.1875 4.484375 
Q 40.765625 -1.421875 27.09375 -1.421875 
Q 22.515625 -1.421875 17.65625 -0.515625 
Q 12.796875 0.390625 7.625 2.203125 
L 7.625 11.71875 
Q 11.71875 9.328125 16.59375 8.109375 
Q 21.484375 6.890625 26.8125 6.890625 
Q 36.078125 6.890625 40.9375 10.546875 
Q 45.796875 14.203125 45.796875 21.1875 
Q 45.796875 27.640625 41.28125 31.265625 
Q 36.765625 34.90625 28.71875 34.90625 
L 20.21875 34.90625 
L 20.21875 43.015625 
L 29.109375 43.015625 
Q 36.375 43.015625 40.234375 45.921875 
Q 44.09375 48.828125 44.09375 54.296875 
Q 44.09375 59.90625 40.109375 62.90625 
Q 36.140625 65.921875 28.71875 65.921875 
Q 24.65625 65.921875 20.015625 65.03125 
Q 15.375 64.15625 9.8125 62.3125 
L 9.8125 71.09375 
Q 15.4375 72.65625 20.34375 73.4375 
Q 25.25 74.21875 29.59375 74.21875 
Q 40.828125 74.21875 47.359375 69.109375 
Q 53.90625 64.015625 53.90625 55.328125 
Q 53.90625 49.265625 50.4375 45.09375 
Q 46.96875 40.921875 40.578125 39.3125 
z
" id="DejaVuSans-51"/>
      </defs>
      <g transform="translate(464.39767 462.956562)scale(0.3 -0.3)">
       <use xlink:href="#DejaVuSans-51"/>
       <use x="63.623047" xlink:href="#DejaVuSans-48"/>
      </g>
     </g>
    </g>
    <g id="text_7">
     <!-- RADIUS -->
     <defs>
      <path d="M 7.328125 0 
L 7.328125 71.578125 
L 37.75 71.578125 
Q 49.21875 71.578125 54.421875 69.640625 
Q 59.625 67.71875 62.75 62.78125 
Q 65.875 57.859375 65.875 51.515625 
Q 65.875 43.453125 61.125 38.203125 
Q 56.390625 32.953125 46.96875 31.59375 
Q 51.65625 28.859375 54.703125 25.578125 
Q 57.765625 22.3125 62.9375 13.96875 
L 71.6875 0 
L 54.390625 0 
L 43.953125 15.578125 
Q 38.375 23.921875 36.328125 26.09375 
Q 34.28125 28.265625 31.984375 29.078125 
Q 29.6875 29.890625 24.703125 29.890625 
L 21.78125 29.890625 
L 21.78125 0 
z
M 21.78125 41.3125 
L 32.46875 41.3125 
Q 42.875 41.3125 45.453125 42.1875 
Q 48.046875 43.0625 49.515625 45.203125 
Q 50.984375 47.359375 50.984375 50.59375 
Q 50.984375 54.203125 49.046875 56.421875 
Q 47.125 58.640625 43.609375 59.234375 
Q 41.84375 59.46875 33.0625 59.46875 
L 21.78125 59.46875 
z
" id="Arial-BoldMT-82"/>
      <path d="M 71.828125 0 
L 56.109375 0 
L 49.859375 16.265625 
L 21.234375 16.265625 
L 15.328125 0 
L 0 0 
L 27.875 71.578125 
L 43.171875 71.578125 
z
M 45.21875 28.328125 
L 35.359375 54.890625 
L 25.6875 28.328125 
z
" id="Arial-BoldMT-65"/>
      <path d="M 7.234375 71.578125 
L 33.640625 71.578125 
Q 42.578125 71.578125 47.265625 70.21875 
Q 53.5625 68.359375 58.046875 63.625 
Q 62.546875 58.890625 64.890625 52.03125 
Q 67.234375 45.171875 67.234375 35.109375 
Q 67.234375 26.265625 65.046875 19.875 
Q 62.359375 12.0625 57.375 7.234375 
Q 53.609375 3.5625 47.21875 1.515625 
Q 42.4375 0 34.421875 0 
L 7.234375 0 
z
M 21.6875 59.46875 
L 21.6875 12.0625 
L 32.46875 12.0625 
Q 38.53125 12.0625 41.21875 12.75 
Q 44.734375 13.625 47.046875 15.71875 
Q 49.359375 17.828125 50.828125 22.625 
Q 52.296875 27.4375 52.296875 35.75 
Q 52.296875 44.046875 50.828125 48.484375 
Q 49.359375 52.9375 46.71875 55.421875 
Q 44.09375 57.90625 40.046875 58.796875 
Q 37.015625 59.46875 28.171875 59.46875 
z
" id="Arial-BoldMT-68"/>
      <path d="M 6.84375 0 
L 6.84375 71.578125 
L 21.296875 71.578125 
L 21.296875 0 
z
" id="Arial-BoldMT-73"/>
      <path d="M 7.171875 71.578125 
L 21.625 71.578125 
L 21.625 32.8125 
Q 21.625 23.578125 22.171875 20.84375 
Q 23.09375 16.453125 26.578125 13.796875 
Q 30.078125 11.140625 36.140625 11.140625 
Q 42.28125 11.140625 45.40625 13.640625 
Q 48.53125 16.15625 49.171875 19.8125 
Q 49.8125 23.484375 49.8125 31.984375 
L 49.8125 71.578125 
L 64.265625 71.578125 
L 64.265625 33.984375 
Q 64.265625 21.09375 63.09375 15.765625 
Q 61.921875 10.453125 58.765625 6.78125 
Q 55.609375 3.125 50.328125 0.953125 
Q 45.0625 -1.21875 36.578125 -1.21875 
Q 26.3125 -1.21875 21.015625 1.140625 
Q 15.71875 3.515625 12.640625 7.296875 
Q 9.578125 11.078125 8.59375 15.234375 
Q 7.171875 21.390625 7.171875 33.40625 
z
" id="Arial-BoldMT-85"/>
      <path d="M 3.609375 23.296875 
L 17.671875 24.65625 
Q 18.953125 17.578125 22.828125 14.25 
Q 26.703125 10.9375 33.296875 10.9375 
Q 40.28125 10.9375 43.8125 13.890625 
Q 47.359375 16.84375 47.359375 20.796875 
Q 47.359375 23.34375 45.875 25.125 
Q 44.390625 26.90625 40.671875 28.21875 
Q 38.140625 29.109375 29.109375 31.34375 
Q 17.484375 34.234375 12.796875 38.421875 
Q 6.203125 44.34375 6.203125 52.828125 
Q 6.203125 58.296875 9.296875 63.0625 
Q 12.40625 67.828125 18.234375 70.3125 
Q 24.078125 72.796875 32.328125 72.796875 
Q 45.796875 72.796875 52.609375 66.890625 
Q 59.421875 60.984375 59.765625 51.125 
L 45.3125 50.484375 
Q 44.390625 56 41.328125 58.421875 
Q 38.28125 60.84375 32.171875 60.84375 
Q 25.875 60.84375 22.3125 58.25 
Q 20.015625 56.59375 20.015625 53.8125 
Q 20.015625 51.265625 22.171875 49.46875 
Q 24.90625 47.171875 35.453125 44.671875 
Q 46 42.1875 51.046875 39.515625 
Q 56.109375 36.859375 58.953125 32.25 
Q 61.8125 27.640625 61.8125 20.84375 
Q 61.8125 14.703125 58.390625 9.328125 
Q 54.984375 3.953125 48.734375 1.34375 
Q 42.484375 -1.265625 33.15625 -1.265625 
Q 19.578125 -1.265625 12.296875 5 
Q 5.03125 11.28125 3.609375 23.296875 
z
" id="Arial-BoldMT-83"/>
     </defs>
     <g transform="translate(297.194687 493.51125)scale(0.2 -0.2)">
      <use xlink:href="#Arial-BoldMT-82"/>
      <use x="72.216797" xlink:href="#Arial-BoldMT-65"/>
      <use x="144.433594" xlink:href="#Arial-BoldMT-68"/>
      <use x="216.650391" xlink:href="#Arial-BoldMT-73"/>
      <use x="244.433594" xlink:href="#Arial-BoldMT-85"/>
      <use x="316.650391" xlink:href="#Arial-BoldMT-83"/>
     </g>
    </g>
   </g>
   <g id="matplotlib.axis_2">
    <g id="ytick_1">
     <g id="line2d_7">
      <defs>
       <path d="M 0 0 
L -3.5 0 
" id="m5d76de8af3" style="stroke:#000000;stroke-width:0.8;"/>
      </defs>
      <g>
       <use style="stroke:#000000;stroke-width:0.8;" x="140.230625" xlink:href="#m5d76de8af3" y="433.16125"/>
      </g>
     </g>
     <g id="text_8">
      <!-- 0 -->
      <g transform="translate(114.143125 444.558906)scale(0.3 -0.3)">
       <use xlink:href="#DejaVuSans-48"/>
      </g>
     </g>
    </g>
    <g id="ytick_2">
     <g id="line2d_8">
      <g>
       <use style="stroke:#000000;stroke-width:0.8;" x="140.230625" xlink:href="#m5d76de8af3" y="388.114637"/>
      </g>
     </g>
     <g id="text_9">
      <!-- 200 -->
      <g transform="translate(75.968125 399.512293)scale(0.3 -0.3)">
       <use xlink:href="#DejaVuSans-50"/>
       <use x="63.623047" xlink:href="#DejaVuSans-48"/>
       <use x="127.246094" xlink:href="#DejaVuSans-48"/>
      </g>
     </g>
    </g>
    <g id="ytick_3">
     <g id="line2d_9">
      <g>
       <use style="stroke:#000000;stroke-width:0.8;" x="140.230625" xlink:href="#m5d76de8af3" y="343.068024"/>
      </g>
     </g>
     <g id="text_10">
      <!-- 400 -->
      <defs>
       <path d="M 37.796875 64.3125 
L 12.890625 25.390625 
L 37.796875 25.390625 
z
M 35.203125 72.90625 
L 47.609375 72.90625 
L 47.609375 25.390625 
L 58.015625 25.390625 
L 58.015625 17.1875 
L 47.609375 17.1875 
L 47.609375 0 
L 37.796875 0 
L 37.796875 17.1875 
L 4.890625 17.1875 
L 4.890625 26.703125 
z
" id="DejaVuSans-52"/>
      </defs>
      <g transform="translate(75.968125 354.465681)scale(0.3 -0.3)">
       <use xlink:href="#DejaVuSans-52"/>
       <use x="63.623047" xlink:href="#DejaVuSans-48"/>
       <use x="127.246094" xlink:href="#DejaVuSans-48"/>
      </g>
     </g>
    </g>
    <g id="ytick_4">
     <g id="line2d_10">
      <g>
       <use style="stroke:#000000;stroke-width:0.8;" x="140.230625" xlink:href="#m5d76de8af3" y="298.021412"/>
      </g>
     </g>
     <g id="text_11">
      <!-- 600 -->
      <defs>
       <path d="M 33.015625 40.375 
Q 26.375 40.375 22.484375 35.828125 
Q 18.609375 31.296875 18.609375 23.390625 
Q 18.609375 15.53125 22.484375 10.953125 
Q 26.375 6.390625 33.015625 6.390625 
Q 39.65625 6.390625 43.53125 10.953125 
Q 47.40625 15.53125 47.40625 23.390625 
Q 47.40625 31.296875 43.53125 35.828125 
Q 39.65625 40.375 33.015625 40.375 
z
M 52.59375 71.296875 
L 52.59375 62.3125 
Q 48.875 64.0625 45.09375 64.984375 
Q 41.3125 65.921875 37.59375 65.921875 
Q 27.828125 65.921875 22.671875 59.328125 
Q 17.53125 52.734375 16.796875 39.40625 
Q 19.671875 43.65625 24.015625 45.921875 
Q 28.375 48.1875 33.59375 48.1875 
Q 44.578125 48.1875 50.953125 41.515625 
Q 57.328125 34.859375 57.328125 23.390625 
Q 57.328125 12.15625 50.6875 5.359375 
Q 44.046875 -1.421875 33.015625 -1.421875 
Q 20.359375 -1.421875 13.671875 8.265625 
Q 6.984375 17.96875 6.984375 36.375 
Q 6.984375 53.65625 15.1875 63.9375 
Q 23.390625 74.21875 37.203125 74.21875 
Q 40.921875 74.21875 44.703125 73.484375 
Q 48.484375 72.75 52.59375 71.296875 
z
" id="DejaVuSans-54"/>
      </defs>
      <g transform="translate(75.968125 309.419068)scale(0.3 -0.3)">
       <use xlink:href="#DejaVuSans-54"/>
       <use x="63.623047" xlink:href="#DejaVuSans-48"/>
       <use x="127.246094" xlink:href="#DejaVuSans-48"/>
      </g>
     </g>
    </g>
    <g id="ytick_5">
     <g id="line2d_11">
      <g>
       <use style="stroke:#000000;stroke-width:0.8;" x="140.230625" xlink:href="#m5d76de8af3" y="252.974799"/>
      </g>
     </g>
     <g id="text_12">
      <!-- 800 -->
      <defs>
       <path d="M 31.78125 34.625 
Q 24.75 34.625 20.71875 30.859375 
Q 16.703125 27.09375 16.703125 20.515625 
Q 16.703125 13.921875 20.71875 10.15625 
Q 24.75 6.390625 31.78125 6.390625 
Q 38.8125 6.390625 42.859375 10.171875 
Q 46.921875 13.96875 46.921875 20.515625 
Q 46.921875 27.09375 42.890625 30.859375 
Q 38.875 34.625 31.78125 34.625 
z
M 21.921875 38.8125 
Q 15.578125 40.375 12.03125 44.71875 
Q 8.5 49.078125 8.5 55.328125 
Q 8.5 64.0625 14.71875 69.140625 
Q 20.953125 74.21875 31.78125 74.21875 
Q 42.671875 74.21875 48.875 69.140625 
Q 55.078125 64.0625 55.078125 55.328125 
Q 55.078125 49.078125 51.53125 44.71875 
Q 48 40.375 41.703125 38.8125 
Q 48.828125 37.15625 52.796875 32.3125 
Q 56.78125 27.484375 56.78125 20.515625 
Q 56.78125 9.90625 50.3125 4.234375 
Q 43.84375 -1.421875 31.78125 -1.421875 
Q 19.734375 -1.421875 13.25 4.234375 
Q 6.78125 9.90625 6.78125 20.515625 
Q 6.78125 27.484375 10.78125 32.3125 
Q 14.796875 37.15625 21.921875 38.8125 
z
M 18.3125 54.390625 
Q 18.3125 48.734375 21.84375 45.5625 
Q 25.390625 42.390625 31.78125 42.390625 
Q 38.140625 42.390625 41.71875 45.5625 
Q 45.3125 48.734375 45.3125 54.390625 
Q 45.3125 60.0625 41.71875 63.234375 
Q 38.140625 66.40625 31.78125 66.40625 
Q 25.390625 66.40625 21.84375 63.234375 
Q 18.3125 60.0625 18.3125 54.390625 
z
" id="DejaVuSans-56"/>
      </defs>
      <g transform="translate(75.968125 264.372455)scale(0.3 -0.3)">
       <use xlink:href="#DejaVuSans-56"/>
       <use x="63.623047" xlink:href="#DejaVuSans-48"/>
       <use x="127.246094" xlink:href="#DejaVuSans-48"/>
      </g>
     </g>
    </g>
    <g id="ytick_6">
     <g id="line2d_12">
      <g>
       <use style="stroke:#000000;stroke-width:0.8;" x="140.230625" xlink:href="#m5d76de8af3" y="207.928186"/>
      </g>
     </g>
     <g id="text_13">
      <!-- 1000 -->
      <g transform="translate(56.880625 219.325842)scale(0.3 -0.3)">
       <use xlink:href="#DejaVuSans-49"/>
       <use x="63.623047" xlink:href="#DejaVuSans-48"/>
       <use x="127.246094" xlink:href="#DejaVuSans-48"/>
       <use x="190.869141" xlink:href="#DejaVuSans-48"/>
      </g>
     </g>
    </g>
    <g id="ytick_7">
     <g id="line2d_13">
      <g>
       <use style="stroke:#000000;stroke-width:0.8;" x="140.230625" xlink:href="#m5d76de8af3" y="162.881573"/>
      </g>
     </g>
     <g id="text_14">
      <!-- 1200 -->
      <g transform="translate(56.880625 174.279229)scale(0.3 -0.3)">
       <use xlink:href="#DejaVuSans-49"/>
       <use x="63.623047" xlink:href="#DejaVuSans-50"/>
       <use x="127.246094" xlink:href="#DejaVuSans-48"/>
       <use x="190.869141" xlink:href="#DejaVuSans-48"/>
      </g>
     </g>
    </g>
    <g id="ytick_8">
     <g id="line2d_14">
      <g>
       <use style="stroke:#000000;stroke-width:0.8;" x="140.230625" xlink:href="#m5d76de8af3" y="117.83496"/>
      </g>
     </g>
     <g id="text_15">
      <!-- 1400 -->
      <g transform="translate(56.880625 129.232617)scale(0.3 -0.3)">
       <use xlink:href="#DejaVuSans-49"/>
       <use x="63.623047" xlink:href="#DejaVuSans-52"/>
       <use x="127.246094" xlink:href="#DejaVuSans-48"/>
       <use x="190.869141" xlink:href="#DejaVuSans-48"/>
      </g>
     </g>
    </g>
    <g id="ytick_9">
     <g id="line2d_15">
      <g>
       <use style="stroke:#000000;stroke-width:0.8;" x="140.230625" xlink:href="#m5d76de8af3" y="72.788348"/>
      </g>
     </g>
     <g id="text_16">
      <!-- 1600 -->
      <g transform="translate(56.880625 84.186004)scale(0.3 -0.3)">
       <use xlink:href="#DejaVuSans-49"/>
       <use x="63.623047" xlink:href="#DejaVuSans-54"/>
       <use x="127.246094" xlink:href="#DejaVuSans-48"/>
       <use x="190.869141" xlink:href="#DejaVuSans-48"/>
      </g>
     </g>
    </g>
    <g id="text_17">
     <!-- CD4 -->
     <defs>
      <path d="M 53.078125 26.3125 
L 67.09375 21.875 
Q 63.875 10.15625 56.375 4.46875 
Q 48.875 -1.21875 37.359375 -1.21875 
Q 23.09375 -1.21875 13.90625 8.515625 
Q 4.734375 18.265625 4.734375 35.15625 
Q 4.734375 53.03125 13.953125 62.90625 
Q 23.1875 72.796875 38.234375 72.796875 
Q 51.375 72.796875 59.578125 65.046875 
Q 64.453125 60.453125 66.890625 51.859375 
L 52.59375 48.4375 
Q 51.3125 54 47.28125 57.21875 
Q 43.265625 60.453125 37.5 60.453125 
Q 29.546875 60.453125 24.578125 54.734375 
Q 19.625 49.03125 19.625 36.234375 
Q 19.625 22.65625 24.5 16.890625 
Q 29.390625 11.140625 37.203125 11.140625 
Q 42.96875 11.140625 47.109375 14.796875 
Q 51.265625 18.453125 53.078125 26.3125 
z
" id="Arial-BoldMT-67"/>
      <path d="M 31.15625 0 
L 31.15625 14.40625 
L 1.859375 14.40625 
L 1.859375 26.421875 
L 32.90625 71.875 
L 44.4375 71.875 
L 44.4375 26.46875 
L 53.328125 26.46875 
L 53.328125 14.40625 
L 44.4375 14.40625 
L 44.4375 0 
z
M 31.15625 26.46875 
L 31.15625 50.921875 
L 14.703125 26.46875 
z
" id="Arial-BoldMT-52"/>
     </defs>
     <g transform="translate(21.253125 262.905937)rotate(-90)scale(0.2 -0.2)">
      <use xlink:href="#Arial-BoldMT-67"/>
      <use x="72.216797" xlink:href="#Arial-BoldMT-68"/>
      <use x="144.433594" xlink:href="#Arial-BoldMT-52"/>
     </g>
     <!-- CELL COUNTS (NUMBERS) -->
     <defs>
      <path d="M 7.28125 0 
L 7.28125 71.578125 
L 60.359375 71.578125 
L 60.359375 59.46875 
L 21.734375 59.46875 
L 21.734375 43.609375 
L 57.671875 43.609375 
L 57.671875 31.546875 
L 21.734375 31.546875 
L 21.734375 12.0625 
L 61.71875 12.0625 
L 61.71875 0 
z
" id="Arial-BoldMT-69"/>
      <path d="M 7.671875 0 
L 7.671875 71 
L 22.125 71 
L 22.125 12.0625 
L 58.0625 12.0625 
L 58.0625 0 
z
" id="Arial-BoldMT-76"/>
      <path id="Arial-BoldMT-32"/>
      <path d="M 4.34375 35.359375 
Q 4.34375 46.296875 7.625 53.71875 
Q 10.0625 59.1875 14.28125 63.53125 
Q 18.5 67.875 23.53125 69.96875 
Q 30.21875 72.796875 38.96875 72.796875 
Q 54.78125 72.796875 64.28125 62.984375 
Q 73.78125 53.171875 73.78125 35.6875 
Q 73.78125 18.359375 64.359375 8.5625 
Q 54.9375 -1.21875 39.15625 -1.21875 
Q 23.1875 -1.21875 13.765625 8.515625 
Q 4.34375 18.265625 4.34375 35.359375 
z
M 19.234375 35.84375 
Q 19.234375 23.6875 24.84375 17.40625 
Q 30.46875 11.140625 39.109375 11.140625 
Q 47.75 11.140625 53.296875 17.359375 
Q 58.84375 23.578125 58.84375 36.03125 
Q 58.84375 48.34375 53.4375 54.390625 
Q 48.046875 60.453125 39.109375 60.453125 
Q 30.171875 60.453125 24.703125 54.3125 
Q 19.234375 48.1875 19.234375 35.84375 
z
" id="Arial-BoldMT-79"/>
      <path d="M 7.421875 0 
L 7.421875 71.578125 
L 21.484375 71.578125 
L 50.78125 23.78125 
L 50.78125 71.578125 
L 64.203125 71.578125 
L 64.203125 0 
L 49.703125 0 
L 20.84375 46.6875 
L 20.84375 0 
z
" id="Arial-BoldMT-78"/>
      <path d="M 23.390625 0 
L 23.390625 59.46875 
L 2.15625 59.46875 
L 2.15625 71.578125 
L 59.03125 71.578125 
L 59.03125 59.46875 
L 37.84375 59.46875 
L 37.84375 0 
z
" id="Arial-BoldMT-84"/>
      <path d="M 29.9375 -21.046875 
L 20.515625 -21.046875 
Q 13.03125 -9.765625 9.125 2.390625 
Q 5.21875 14.546875 5.21875 25.921875 
Q 5.21875 40.046875 10.0625 52.640625 
Q 14.265625 63.578125 20.703125 72.796875 
L 30.078125 72.796875 
Q 23.390625 58.015625 20.875 47.625 
Q 18.359375 37.25 18.359375 25.640625 
Q 18.359375 17.625 19.84375 9.21875 
Q 21.34375 0.828125 23.921875 -6.734375 
Q 25.640625 -11.71875 29.9375 -21.046875 
z
" id="Arial-BoldMT-40"/>
      <path d="M 7.078125 0 
L 7.078125 71.578125 
L 28.71875 71.578125 
L 41.703125 22.75 
L 54.546875 71.578125 
L 76.21875 71.578125 
L 76.21875 0 
L 62.796875 0 
L 62.796875 56.34375 
L 48.578125 0 
L 34.671875 0 
L 20.515625 56.34375 
L 20.515625 0 
z
" id="Arial-BoldMT-77"/>
      <path d="M 7.328125 71.578125 
L 35.9375 71.578125 
Q 44.4375 71.578125 48.609375 70.875 
Q 52.78125 70.171875 56.078125 67.921875 
Q 59.375 65.671875 61.5625 61.9375 
Q 63.765625 58.203125 63.765625 53.5625 
Q 63.765625 48.53125 61.046875 44.328125 
Q 58.34375 40.140625 53.71875 38.03125 
Q 60.25 36.140625 63.765625 31.546875 
Q 67.28125 26.953125 67.28125 20.75 
Q 67.28125 15.875 65.015625 11.25 
Q 62.75 6.640625 58.8125 3.875 
Q 54.890625 1.125 49.125 0.484375 
Q 45.515625 0.09375 31.6875 0 
L 7.328125 0 
z
M 21.78125 59.671875 
L 21.78125 43.109375 
L 31.25 43.109375 
Q 39.703125 43.109375 41.75 43.359375 
Q 45.453125 43.796875 47.578125 45.921875 
Q 49.703125 48.046875 49.703125 51.515625 
Q 49.703125 54.828125 47.875 56.90625 
Q 46.046875 58.984375 42.4375 59.421875 
Q 40.28125 59.671875 30.078125 59.671875 
z
M 21.78125 31.203125 
L 21.78125 12.0625 
L 35.15625 12.0625 
Q 42.96875 12.0625 45.0625 12.5 
Q 48.296875 13.09375 50.3125 15.359375 
Q 52.34375 17.625 52.34375 21.4375 
Q 52.34375 24.65625 50.78125 26.90625 
Q 49.21875 29.15625 46.265625 30.171875 
Q 43.3125 31.203125 33.453125 31.203125 
z
" id="Arial-BoldMT-66"/>
      <path d="M 3.375 -21.046875 
Q 7.421875 -12.359375 9.078125 -7.71875 
Q 10.75 -3.078125 12.15625 2.96875 
Q 13.578125 9.03125 14.25 14.46875 
Q 14.9375 19.921875 14.9375 25.640625 
Q 14.9375 37.25 12.453125 47.625 
Q 9.96875 58.015625 3.265625 72.796875 
L 12.59375 72.796875 
Q 19.96875 62.3125 24.046875 50.53125 
Q 28.125 38.765625 28.125 26.65625 
Q 28.125 16.453125 24.90625 4.78125 
Q 21.234375 -8.296875 12.84375 -21.046875 
z
" id="Arial-BoldMT-41"/>
     </defs>
     <g transform="translate(42.67125 374.002812)rotate(-90)scale(0.2 -0.2)">
      <use xlink:href="#Arial-BoldMT-67"/>
      <use x="72.216797" xlink:href="#Arial-BoldMT-69"/>
      <use x="138.916016" xlink:href="#Arial-BoldMT-76"/>
      <use x="200" xlink:href="#Arial-BoldMT-76"/>
      <use x="261.068359" xlink:href="#Arial-BoldMT-32"/>
      <use x="288.851562" xlink:href="#Arial-BoldMT-67"/>
      <use x="361.068359" xlink:href="#Arial-BoldMT-79"/>
      <use x="438.851562" xlink:href="#Arial-BoldMT-85"/>
      <use x="511.068359" xlink:href="#Arial-BoldMT-78"/>
      <use x="583.285156" xlink:href="#Arial-BoldMT-84"/>
      <use x="644.369141" xlink:href="#Arial-BoldMT-83"/>
      <use x="711.068359" xlink:href="#Arial-BoldMT-32"/>
      <use x="738.851562" xlink:href="#Arial-BoldMT-40"/>
      <use x="772.152344" xlink:href="#Arial-BoldMT-78"/>
      <use x="844.369141" xlink:href="#Arial-BoldMT-85"/>
      <use x="916.585938" xlink:href="#Arial-BoldMT-77"/>
      <use x="999.886719" xlink:href="#Arial-BoldMT-66"/>
      <use x="1072.103516" xlink:href="#Arial-BoldMT-69"/>
      <use x="1138.802734" xlink:href="#Arial-BoldMT-82"/>
      <use x="1211.019531" xlink:href="#Arial-BoldMT-83"/>
      <use x="1277.71875" xlink:href="#Arial-BoldMT-41"/>
     </g>
    </g>
   </g>
   <g id="line2d_16">
    <path clip-path="url(#pcaefc07add)" d="M 140.230625 433.16125 
L 152.066989 430.007987 
L 163.903352 420.097732 
L 175.739716 422.12483 
L 187.57608 416.719236 
L 199.412443 415.142605 
L 211.248807 405.682816 
L 223.08517 392.619298 
L 234.921534 370.546458 
L 246.757898 372.798789 
L 258.594261 358.609106 
L 270.430625 350.050249 
L 282.266989 352.527813 
L 294.103352 362.888534 
L 305.939716 358.15864 
L 317.77608 362.212835 
L 329.612443 350.951182 
L 341.448807 323.697981 
L 353.28517 297.796179 
L 365.121534 267.840181 
L 376.957898 283.381262 
L 388.794261 279.5523 
L 400.630625 268.065414 
L 412.466989 280.678466 
L 424.303352 272.344842 
L 436.139716 264.461685 
L 447.97608 296.895246 
L 459.812443 255.001896 
L 471.648807 226.847763 
L 483.48517 203.648758 
L 495.321534 173.017061 
L 507.157898 106.79854 
L 518.994261 87.65373 
L 530.830625 70.76125 
" style="fill:none;stroke:#08306b;stroke-linecap:square;stroke-width:1.5;"/>
   </g>
   <g id="line2d_17">
    <path clip-path="url(#pcaefc07add)" d="M 140.230625 433.16125 
L 152.066989 427.530423 
L 163.903352 426.629491 
L 175.739716 420.773431 
L 187.57608 408.385613 
L 199.412443 390.592201 
L 211.248807 389.240803 
L 223.08517 379.330548 
L 234.921534 377.528683 
L 246.757898 375.051119 
L 258.594261 372.348323 
L 270.430625 373.249255 
L 282.266989 387.889404 
L 294.103352 384.285675 
L 305.939716 372.573556 
L 317.77608 341.040927 
L 329.612443 331.355905 
L 341.448807 325.049379 
L 353.28517 320.544718 
L 365.121534 311.084929 
L 376.957898 304.778404 
L 388.794261 262.434587 
L 400.630625 275.723338 
L 412.466989 281.579398 
L 424.303352 281.579398 
L 436.139716 259.731791 
L 447.97608 246.893506 
L 459.812443 242.163612 
L 471.648807 260.182257 
L 483.48517 265.813083 
L 495.321534 230.001026 
L 507.157898 159.953543 
L 518.994261 137.65547 
L 530.830625 177.071256 
" style="fill:none;stroke:#08306b;stroke-linecap:square;stroke-width:1.5;"/>
   </g>
   <g id="line2d_18">
    <path clip-path="url(#pcaefc07add)" d="M 140.230625 433.16125 
L 152.066989 427.530423 
L 163.903352 426.629491 
L 175.739716 418.971567 
L 187.57608 410.187477 
L 199.412443 409.962244 
L 211.248807 405.682816 
L 223.08517 403.205252 
L 234.921534 397.349193 
L 246.757898 391.493133 
L 258.594261 383.15951 
L 270.430625 358.15864 
L 282.266989 351.626881 
L 294.103352 332.48207 
L 305.939716 327.30171 
L 317.77608 333.15777 
L 329.612443 323.022282 
L 341.448807 306.580268 
L 353.28517 281.804631 
L 365.121534 257.929926 
L 376.957898 267.840181 
L 388.794261 257.254227 
L 400.630625 257.254227 
L 412.466989 267.389715 
L 424.303352 257.704693 
L 436.139716 280.678466 
L 447.97608 277.750436 
L 459.812443 256.353295 
L 471.648807 253.425265 
L 483.48517 241.487913 
L 495.321534 206.351555 
L 507.157898 180.224519 
L 518.994261 148.241424 
L 530.830625 199.594563 
" style="fill:none;stroke:#08306b;stroke-linecap:square;stroke-width:1.5;"/>
   </g>
   <g id="line2d_19">
    <path clip-path="url(#pcaefc07add)" d="M 140.230625 433.16125 
L 152.066989 425.278093 
L 163.903352 418.971567 
L 175.739716 418.070635 
L 187.57608 419.1968 
L 199.412443 401.403388 
L 211.248807 404.781884 
L 223.08517 393.970697 
L 234.921534 377.979149 
L 246.757898 376.852984 
L 258.594261 364.915632 
L 270.430625 365.591331 
L 282.266989 354.554911 
L 294.103352 359.059572 
L 305.939716 352.753046 
L 317.77608 358.834339 
L 329.612443 341.26616 
L 341.448807 324.598913 
L 353.28517 327.526943 
L 365.121534 349.599783 
L 376.957898 324.824146 
L 388.794261 331.130672 
L 400.630625 320.094252 
L 412.466989 293.741983 
L 424.303352 272.344842 
L 436.139716 264.011219 
L 447.97608 260.40749 
L 459.812443 228.424395 
L 471.648807 233.154289 
L 483.48517 210.630983 
L 495.321534 166.710535 
L 507.157898 112.879833 
L 518.994261 110.402269 
L 530.830625 118.285427 
" style="fill:none;stroke:#08306b;stroke-linecap:square;stroke-width:1.5;"/>
   </g>
   <g id="line2d_20">
    <path clip-path="url(#pcaefc07add)" d="M 140.230625 429.557521 
L 152.066989 423.926694 
L 163.903352 420.773431 
L 175.739716 409.061312 
L 187.57608 412.665041 
L 199.412443 411.764109 
L 211.248807 406.808982 
L 223.08517 396.898727 
L 234.921534 389.015569 
L 246.757898 373.249255 
L 258.594261 373.924954 
L 270.430625 373.699721 
L 282.266989 355.681076 
L 294.103352 330.004507 
L 305.939716 357.257707 
L 317.77608 355.906309 
L 329.612443 352.077347 
L 341.448807 354.104445 
L 353.28517 332.031604 
L 365.121534 311.985862 
L 376.957898 300.498975 
L 388.794261 273.245775 
L 400.630625 266.26355 
L 412.466989 273.696241 
L 424.303352 243.289777 
L 436.139716 237.65895 
L 447.97608 242.839311 
L 459.812443 257.47946 
L 471.648807 246.668273 
L 483.48517 232.253357 
L 495.321534 200.945961 
L 507.157898 164.908671 
L 518.994261 102.293879 
L 530.830625 139.907801 
" style="fill:none;stroke:#08306b;stroke-linecap:square;stroke-width:1.5;"/>
   </g>
   <g id="line2d_21">
    <path clip-path="url(#pcaefc07add)" d="M 140.230625 433.16125 
L 152.066989 430.458453 
L 163.903352 427.079957 
L 175.739716 424.377161 
L 187.57608 418.746334 
L 199.412443 414.692139 
L 211.248807 413.34074 
L 223.08517 397.574426 
L 234.921534 388.33987 
L 246.757898 371.44739 
L 258.594261 381.808111 
L 270.430625 376.402518 
L 282.266989 380.006247 
L 294.103352 345.320355 
L 305.939716 348.924084 
L 317.77608 338.112897 
L 329.612443 353.879211 
L 341.448807 347.572686 
L 353.28517 320.769951 
L 365.121534 302.30084 
L 376.957898 301.625141 
L 388.794261 304.327937 
L 400.630625 288.786856 
L 412.466989 260.632723 
L 424.303352 212.432847 
L 436.139716 237.433717 
L 447.97608 216.712275 
L 459.812443 232.929056 
L 471.648807 224.595433 
L 483.48517 225.496365 
L 495.321534 208.378652 
L 507.157898 205.675855 
L 518.994261 191.035706 
L 530.830625 220.991704 
" style="fill:none;stroke:#08306b;stroke-linecap:square;stroke-width:1.5;"/>
   </g>
   <g id="line2d_22">
    <path clip-path="url(#pcaefc07add)" d="M 140.230625 433.16125 
L 152.066989 433.16125 
L 163.903352 432.710784 
L 175.739716 427.755656 
L 187.57608 418.971567 
L 199.412443 413.115507 
L 211.248807 383.835209 
L 223.08517 372.798789 
L 234.921534 366.041797 
L 246.757898 362.663301 
L 258.594261 369.19506 
L 270.430625 354.329678 
L 282.266989 346.671753 
L 294.103352 332.707303 
L 305.939716 330.454973 
L 317.77608 343.968957 
L 329.612443 331.130672 
L 341.448807 328.427875 
L 353.28517 329.779274 
L 365.121534 318.067154 
L 376.957898 309.733531 
L 388.794261 282.930796 
L 400.630625 265.813083 
L 412.466989 249.596303 
L 424.303352 265.362617 
L 436.139716 280.002766 
L 447.97608 237.884183 
L 459.812443 235.181387 
L 471.648807 225.721598 
L 483.48517 217.387975 
L 495.321534 232.253357 
L 507.157898 198.017931 
L 518.994261 190.134774 
L 530.830625 221.892636 
" style="fill:none;stroke:#08306b;stroke-linecap:square;stroke-width:1.5;"/>
   </g>
   <g id="line2d_23">
    <path clip-path="url(#pcaefc07add)" d="M 140.230625 432.936017 
L 152.066989 431.134152 
L 163.903352 420.773431 
L 175.739716 415.818304 
L 187.57608 418.971567 
L 199.412443 421.223898 
L 211.248807 410.412711 
L 223.08517 412.890274 
L 234.921534 394.421163 
L 246.757898 384.285675 
L 258.594261 361.311903 
L 270.430625 370.321225 
L 282.266989 365.591331 
L 294.103352 354.554911 
L 305.939716 322.571816 
L 317.77608 329.103574 
L 329.612443 317.841921 
L 341.448807 305.679336 
L 353.28517 306.129802 
L 365.121534 313.562493 
L 376.957898 300.048509 
L 388.794261 281.354165 
L 400.630625 255.902829 
L 412.466989 249.596303 
L 424.303352 277.750436 
L 436.139716 266.939249 
L 447.97608 255.452362 
L 459.812443 238.559883 
L 471.648807 217.838441 
L 483.48517 187.882443 
L 495.321534 186.080579 
L 507.157898 173.467527 
L 518.994261 177.296489 
L 530.830625 220.541238 
" style="fill:none;stroke:#08306b;stroke-linecap:square;stroke-width:1.5;"/>
   </g>
   <g id="line2d_24">
    <path clip-path="url(#pcaefc07add)" d="M 140.230625 433.16125 
L 152.066989 428.656589 
L 163.903352 408.385613 
L 175.739716 401.853854 
L 187.57608 408.610846 
L 199.412443 399.151057 
L 211.248807 401.178155 
L 223.08517 382.258578 
L 234.921534 384.961374 
L 246.757898 381.132412 
L 258.594261 358.15864 
L 270.430625 348.023152 
L 282.266989 332.932537 
L 294.103352 331.806371 
L 305.939716 331.355905 
L 317.77608 337.211965 
L 329.612443 318.968087 
L 341.448807 311.985862 
L 353.28517 282.930796 
L 365.121534 262.885054 
L 376.957898 275.272872 
L 388.794261 295.769081 
L 400.630625 296.670013 
L 412.466989 291.26442 
L 424.303352 257.254227 
L 436.139716 252.2991 
L 447.97608 254.326197 
L 459.812443 261.984121 
L 471.648807 248.244904 
L 483.48517 240.136514 
L 495.321534 210.630983 
L 507.157898 193.738503 
L 518.994261 193.738503 
L 530.830625 186.981511 
" style="fill:none;stroke:#08306b;stroke-linecap:square;stroke-width:1.5;"/>
   </g>
   <g id="line2d_25">
    <path clip-path="url(#pcaefc07add)" d="M 140.230625 433.16125 
L 152.066989 429.332288 
L 163.903352 420.773431 
L 175.739716 414.917372 
L 187.57608 404.331418 
L 199.412443 392.394065 
L 211.248807 393.745464 
L 223.08517 391.493133 
L 234.921534 383.609976 
L 246.757898 379.105315 
L 258.594261 366.492263 
L 270.430625 364.465165 
L 282.266989 354.780144 
L 294.103352 333.383003 
L 305.939716 322.571816 
L 317.77608 330.454973 
L 329.612443 313.562493 
L 341.448807 320.094252 
L 353.28517 338.112897 
L 365.121534 332.707303 
L 376.957898 312.436328 
L 388.794261 305.454103 
L 400.630625 289.012089 
L 412.466989 270.317745 
L 424.303352 249.145837 
L 436.139716 214.234712 
L 447.97608 214.685178 
L 459.812443 194.639435 
L 471.648807 244.415942 
L 483.48517 204.099224 
L 495.321534 176.170324 
L 507.157898 128.646147 
L 518.994261 119.636825 
L 530.830625 164.007739 
" style="fill:none;stroke:#08306b;stroke-linecap:square;stroke-width:1.5;"/>
   </g>
   <g id="line2d_26">
    <path clip-path="url(#pcaefc07add)" d="M 140.230625 431.809852 
L 152.066989 429.782754 
L 163.903352 427.755656 
L 175.739716 426.629491 
L 187.57608 427.079957 
L 199.412443 423.476228 
L 211.248807 419.647266 
L 223.08517 410.187477 
L 234.921534 401.628621 
L 246.757898 392.168832 
L 258.594261 385.637073 
L 270.430625 397.12396 
L 282.266989 392.844532 
L 294.103352 384.961374 
L 305.939716 398.475358 
L 317.77608 390.366968 
L 329.612443 389.916502 
L 341.448807 378.654849 
L 353.28517 373.249255 
L 365.121534 358.383873 
L 376.957898 361.311903 
L 388.794261 356.356775 
L 400.630625 349.825016 
L 412.466989 342.842791 
L 424.303352 346.896986 
L 436.139716 354.554911 
L 447.97608 351.176415 
L 459.812443 327.526943 
L 471.648807 320.769951 
L 483.48517 303.652238 
L 495.321534 294.19245 
L 507.157898 272.795308 
L 518.994261 290.138254 
L 530.830625 334.283935 
" style="fill:none;stroke:#4a98c9;stroke-linecap:square;stroke-width:1.5;"/>
   </g>
   <g id="line2d_27">
    <path clip-path="url(#pcaefc07add)" d="M 140.230625 433.16125 
L 152.066989 431.134152 
L 163.903352 431.359385 
L 175.739716 419.1968 
L 187.57608 417.169702 
L 199.412443 407.034215 
L 211.248807 390.592201 
L 223.08517 399.151057 
L 234.921534 395.997794 
L 246.757898 402.529553 
L 258.594261 399.601523 
L 270.430625 403.205252 
L 282.266989 405.23235 
L 294.103352 411.538876 
L 305.939716 398.700591 
L 317.77608 393.970697 
L 329.612443 389.466036 
L 341.448807 374.600653 
L 353.28517 355.455843 
L 365.121534 348.023152 
L 376.957898 359.059572 
L 388.794261 362.888534 
L 400.630625 363.564233 
L 412.466989 349.825016 
L 424.303352 336.311032 
L 436.139716 322.797049 
L 447.97608 314.012959 
L 459.812443 297.570945 
L 471.648807 289.913021 
L 483.48517 295.543848 
L 495.321534 281.579398 
L 507.157898 261.984121 
L 518.994261 247.118739 
L 530.830625 280.002766 
" style="fill:none;stroke:#4a98c9;stroke-linecap:square;stroke-width:1.5;"/>
   </g>
   <g id="line2d_28">
    <path clip-path="url(#pcaefc07add)" d="M 140.230625 433.16125 
L 152.066989 431.134152 
L 163.903352 430.007987 
L 175.739716 428.656589 
L 187.57608 427.98089 
L 199.412443 423.701461 
L 211.248807 418.971567 
L 223.08517 411.08841 
L 234.921534 409.962244 
L 246.757898 403.430486 
L 258.594261 398.700591 
L 270.430625 393.970697 
L 282.266989 387.664171 
L 294.103352 381.808111 
L 305.939716 363.564233 
L 317.77608 366.041797 
L 329.612443 361.987602 
L 341.448807 372.12309 
L 353.28517 375.952052 
L 365.121534 350.725949 
L 376.957898 350.050249 
L 388.794261 351.401648 
L 400.630625 348.023152 
L 412.466989 348.248385 
L 424.303352 357.933407 
L 436.139716 367.393195 
L 447.97608 349.599783 
L 459.812443 352.077347 
L 471.648807 337.662431 
L 483.48517 304.102704 
L 495.321534 278.200902 
L 507.157898 241.938379 
L 518.994261 243.51501 
L 530.830625 298.021412 
" style="fill:none;stroke:#4a98c9;stroke-linecap:square;stroke-width:1.5;"/>
   </g>
   <g id="line2d_29">
    <path clip-path="url(#pcaefc07add)" d="M 140.230625 433.16125 
L 152.066989 432.485551 
L 163.903352 429.332288 
L 175.739716 427.079957 
L 187.57608 420.322965 
L 199.412443 420.548198 
L 211.248807 415.367838 
L 223.08517 417.620169 
L 234.921534 410.187477 
L 246.757898 409.962244 
L 258.594261 400.277223 
L 270.430625 398.925824 
L 282.266989 388.33987 
L 294.103352 383.15951 
L 305.939716 387.889404 
L 317.77608 385.862307 
L 329.612443 386.988472 
L 341.448807 386.538006 
L 353.28517 387.213705 
L 365.121534 395.096862 
L 376.957898 382.934277 
L 388.794261 374.600653 
L 400.630625 364.915632 
L 412.466989 350.500716 
L 424.303352 345.320355 
L 436.139716 347.797919 
L 447.97608 335.184867 
L 459.812443 325.950312 
L 471.648807 333.833469 
L 483.48517 299.147577 
L 495.321534 276.624271 
L 507.157898 248.244904 
L 518.994261 261.083189 
L 530.830625 317.841921 
" style="fill:none;stroke:#4a98c9;stroke-linecap:square;stroke-width:1.5;"/>
   </g>
   <g id="line2d_30">
    <path clip-path="url(#pcaefc07add)" d="M 140.230625 432.035085 
L 152.066989 430.908919 
L 163.903352 428.881822 
L 175.739716 425.503326 
L 187.57608 427.530423 
L 199.412443 422.800529 
L 211.248807 415.142605 
L 223.08517 412.439808 
L 234.921534 399.826757 
L 246.757898 395.547328 
L 258.594261 392.619298 
L 270.430625 392.394065 
L 282.266989 383.15951 
L 294.103352 379.105315 
L 305.939716 395.322095 
L 317.77608 382.934277 
L 329.612443 394.19593 
L 341.448807 380.681946 
L 353.28517 366.041797 
L 365.121534 342.392325 
L 376.957898 356.356775 
L 388.794261 331.581138 
L 400.630625 328.427875 
L 412.466989 316.715756 
L 424.303352 322.346583 
L 436.139716 328.427875 
L 447.97608 339.914761 
L 459.812443 346.671753 
L 471.648807 330.454973 
L 483.48517 333.833469 
L 495.321534 301.625141 
L 507.157898 291.489653 
L 518.994261 275.723338 
L 530.830625 315.814824 
" style="fill:none;stroke:#4a98c9;stroke-linecap:square;stroke-width:1.5;"/>
   </g>
   <g id="line2d_31">
    <path clip-path="url(#pcaefc07add)" d="M 140.230625 433.16125 
L 152.066989 432.485551 
L 163.903352 425.503326 
L 175.739716 419.1968 
L 187.57608 427.079957 
L 199.412443 421.674364 
L 211.248807 417.169702 
L 223.08517 407.484681 
L 234.921534 409.737011 
L 246.757898 403.655719 
L 258.594261 405.23235 
L 270.430625 393.520231 
L 282.266989 404.556651 
L 294.103352 394.421163 
L 305.939716 396.673494 
L 317.77608 392.619298 
L 329.612443 386.312773 
L 341.448807 373.924954 
L 353.28517 370.095992 
L 365.121534 360.41097 
L 376.957898 363.113767 
L 388.794261 357.257707 
L 400.630625 349.37455 
L 412.466989 341.491393 
L 424.303352 326.626011 
L 436.139716 321.896116 
L 447.97608 314.238192 
L 459.812443 285.633593 
L 471.648807 291.039187 
L 483.48517 300.949441 
L 495.321534 276.624271 
L 507.157898 279.777533 
L 518.994261 297.570945 
L 530.830625 318.067154 
" style="fill:none;stroke:#4a98c9;stroke-linecap:square;stroke-width:1.5;"/>
   </g>
   <g id="line2d_32">
    <path clip-path="url(#pcaefc07add)" d="M 140.230625 433.16125 
L 152.066989 433.16125 
L 163.903352 433.16125 
L 175.739716 430.458453 
L 187.57608 425.728559 
L 199.412443 418.971567 
L 211.248807 397.799659 
L 223.08517 389.691269 
L 234.921534 385.637073 
L 246.757898 379.105315 
L 258.594261 384.961374 
L 270.430625 381.582878 
L 282.266989 386.312773 
L 294.103352 384.060442 
L 305.939716 387.664171 
L 317.77608 378.204382 
L 329.612443 368.744594 
L 341.448807 366.26703 
L 353.28517 378.429615 
L 365.121534 374.825886 
L 376.957898 377.30345 
L 388.794261 352.077347 
L 400.630625 347.347453 
L 412.466989 349.149317 
L 424.303352 357.48294 
L 436.139716 341.941859 
L 447.97608 320.094252 
L 459.812443 304.778404 
L 471.648807 300.949441 
L 483.48517 302.075607 
L 495.321534 285.858826 
L 507.157898 288.561623 
L 518.994261 256.803761 
L 530.830625 291.489653 
" style="fill:none;stroke:#4a98c9;stroke-linecap:square;stroke-width:1.5;"/>
   </g>
   <g id="line2d_33">
    <path clip-path="url(#pcaefc07add)" d="M 140.230625 432.936017 
L 152.066989 432.035085 
L 163.903352 428.206123 
L 175.739716 423.926694 
L 187.57608 425.728559 
L 199.412443 424.827627 
L 211.248807 420.773431 
L 223.08517 412.665041 
L 234.921534 403.880952 
L 246.757898 401.403388 
L 258.594261 391.943599 
L 270.430625 398.475358 
L 282.266989 405.007117 
L 294.103352 387.664171 
L 305.939716 382.483811 
L 317.77608 372.573556 
L 329.612443 369.645526 
L 341.448807 366.041797 
L 353.28517 371.44739 
L 365.121534 364.690399 
L 376.957898 364.915632 
L 388.794261 352.077347 
L 400.630625 338.788596 
L 412.466989 334.959634 
L 424.303352 351.852114 
L 436.139716 344.419423 
L 447.97608 340.590461 
L 459.812443 322.571816 
L 471.648807 310.183997 
L 483.48517 294.417683 
L 495.321534 260.632723 
L 507.157898 278.651368 
L 518.994261 311.084929 
L 530.830625 359.284805 
" style="fill:none;stroke:#4a98c9;stroke-linecap:square;stroke-width:1.5;"/>
   </g>
   <g id="line2d_34">
    <path clip-path="url(#pcaefc07add)" d="M 140.230625 432.035085 
L 152.066989 428.881822 
L 163.903352 426.404258 
L 175.739716 420.773431 
L 187.57608 417.169702 
L 199.412443 407.484681 
L 211.248807 403.880952 
L 223.08517 402.079087 
L 234.921534 405.007117 
L 246.757898 401.628621 
L 258.594261 398.250125 
L 270.430625 394.646396 
L 282.266989 386.312773 
L 294.103352 384.736141 
L 305.939716 378.880082 
L 317.77608 379.105315 
L 329.612443 370.321225 
L 341.448807 356.131542 
L 353.28517 362.888534 
L 365.121534 351.176415 
L 376.957898 357.257707 
L 388.794261 359.510038 
L 400.630625 356.131542 
L 412.466989 365.591331 
L 424.303352 346.221287 
L 436.139716 344.869889 
L 447.97608 340.590461 
L 459.812443 328.427875 
L 471.648807 334.058702 
L 483.48517 330.680206 
L 495.321534 306.355035 
L 507.157898 302.526073 
L 518.994261 294.642916 
L 530.830625 323.022282 
" style="fill:none;stroke:#4a98c9;stroke-linecap:square;stroke-width:1.5;"/>
   </g>
   <g id="line2d_35">
    <path clip-path="url(#pcaefc07add)" d="M 140.230625 432.936017 
L 152.066989 432.485551 
L 163.903352 423.476228 
L 175.739716 419.647266 
L 187.57608 421.899597 
L 199.412443 417.394936 
L 211.248807 417.394936 
L 223.08517 415.367838 
L 234.921534 408.836079 
L 246.757898 411.08841 
L 258.594261 409.962244 
L 270.430625 387.438938 
L 282.266989 396.673494 
L 294.103352 382.483811 
L 305.939716 372.348323 
L 317.77608 371.897857 
L 329.612443 374.37542 
L 341.448807 365.366098 
L 353.28517 382.258578 
L 365.121534 385.41184 
L 376.957898 366.041797 
L 388.794261 361.987602 
L 400.630625 357.257707 
L 412.466989 349.37455 
L 424.303352 324.598913 
L 436.139716 329.103574 
L 447.97608 314.913891 
L 459.812443 314.688658 
L 471.648807 303.877471 
L 483.48517 303.652238 
L 495.321534 298.471878 
L 507.157898 298.246645 
L 518.994261 296.670013 
L 530.830625 309.283065 
" style="fill:none;stroke:#4a98c9;stroke-linecap:square;stroke-width:1.5;"/>
   </g>
   <g id="line2d_36">
    <path clip-path="url(#pcaefc07add)" d="M 140.230625 433.16125 
L 152.066989 430.683686 
L 163.903352 431.134152 
L 175.739716 425.503326 
L 187.57608 426.854724 
L 199.412443 424.151927 
L 211.248807 423.476228 
L 223.08517 411.764109 
L 234.921534 414.466906 
L 246.757898 403.430486 
L 258.594261 405.007117 
L 270.430625 410.863177 
L 282.266989 400.502456 
L 294.103352 403.880952 
L 305.939716 409.962244 
L 317.77608 402.754786 
L 329.612443 397.12396 
L 341.448807 394.19593 
L 353.28517 376.402518 
L 365.121534 377.979149 
L 376.957898 380.23148 
L 388.794261 377.753916 
L 400.630625 376.177285 
L 412.466989 379.105315 
L 424.303352 369.19506 
L 436.139716 364.239932 
L 447.97608 364.239932 
L 459.812443 359.735271 
L 471.648807 345.545588 
L 483.48517 339.239062 
L 495.321534 334.509168 
L 507.157898 326.175545 
L 518.994261 354.329678 
L 530.830625 373.474488 
" style="fill:none;stroke:#d0e1f2;stroke-linecap:square;stroke-width:1.5;"/>
   </g>
   <g id="line2d_37">
    <path clip-path="url(#pcaefc07add)" d="M 140.230625 433.16125 
L 152.066989 430.683686 
L 163.903352 431.584619 
L 175.739716 430.458453 
L 187.57608 428.431356 
L 199.412443 420.548198 
L 211.248807 411.989342 
L 223.08517 409.286545 
L 234.921534 409.962244 
L 246.757898 409.061312 
L 258.594261 412.890274 
L 270.430625 414.01644 
L 282.266989 403.655719 
L 294.103352 408.16038 
L 305.939716 402.529553 
L 317.77608 405.682816 
L 329.612443 403.205252 
L 341.448807 395.322095 
L 353.28517 386.312773 
L 365.121534 379.555781 
L 376.957898 379.555781 
L 388.794261 383.384743 
L 400.630625 384.510908 
L 412.466989 376.627751 
L 424.303352 375.276353 
L 436.139716 353.653978 
L 447.97608 366.717496 
L 459.812443 360.185737 
L 471.648807 351.852114 
L 483.48517 346.44652 
L 495.321534 349.149317 
L 507.157898 348.248385 
L 518.994261 343.068024 
L 530.830625 376.402518 
" style="fill:none;stroke:#d0e1f2;stroke-linecap:square;stroke-width:1.5;"/>
   </g>
   <g id="line2d_38">
    <path clip-path="url(#pcaefc07add)" d="M 140.230625 433.16125 
L 152.066989 432.035085 
L 163.903352 430.458453 
L 175.739716 429.107055 
L 187.57608 430.23322 
L 199.412443 426.404258 
L 211.248807 418.295868 
L 223.08517 419.1968 
L 234.921534 417.169702 
L 246.757898 409.737011 
L 258.594261 411.08841 
L 270.430625 408.836079 
L 282.266989 401.178155 
L 294.103352 400.277223 
L 305.939716 398.024892 
L 317.77608 398.475358 
L 329.612443 385.862307 
L 341.448807 388.33987 
L 353.28517 374.600653 
L 365.121534 374.150187 
L 376.957898 374.825886 
L 388.794261 381.808111 
L 400.630625 373.249255 
L 412.466989 359.510038 
L 424.303352 358.383873 
L 436.139716 358.15864 
L 447.97608 359.059572 
L 459.812443 364.690399 
L 471.648807 364.465165 
L 483.48517 346.221287 
L 495.321534 340.139995 
L 507.157898 334.283935 
L 518.994261 345.320355 
L 530.830625 387.664171 
" style="fill:none;stroke:#d0e1f2;stroke-linecap:square;stroke-width:1.5;"/>
   </g>
   <g id="line2d_39">
    <path clip-path="url(#pcaefc07add)" d="M 140.230625 433.16125 
L 152.066989 431.134152 
L 163.903352 428.656589 
L 175.739716 425.503326 
L 187.57608 424.827627 
L 199.412443 420.998665 
L 211.248807 417.620169 
L 223.08517 414.466906 
L 234.921534 408.836079 
L 246.757898 409.737011 
L 258.594261 409.061312 
L 270.430625 407.935147 
L 282.266989 401.628621 
L 294.103352 401.853854 
L 305.939716 396.223028 
L 317.77608 394.646396 
L 329.612443 388.790336 
L 341.448807 391.042667 
L 353.28517 396.898727 
L 365.121534 397.799659 
L 376.957898 395.322095 
L 388.794261 397.349193 
L 400.630625 392.844532 
L 412.466989 385.41184 
L 424.303352 366.717496 
L 436.139716 371.897857 
L 447.97608 353.879211 
L 459.812443 354.104445 
L 471.648807 350.725949 
L 483.48517 326.851244 
L 495.321534 319.643786 
L 507.157898 320.995184 
L 518.994261 325.499845 
L 530.830625 361.537136 
" style="fill:none;stroke:#d0e1f2;stroke-linecap:square;stroke-width:1.5;"/>
   </g>
   <g id="line2d_40">
    <path clip-path="url(#pcaefc07add)" d="M 140.230625 432.936017 
L 152.066989 432.260318 
L 163.903352 429.107055 
L 175.739716 423.701461 
L 187.57608 423.926694 
L 199.412443 419.1968 
L 211.248807 421.674364 
L 223.08517 418.971567 
L 234.921534 417.620169 
L 246.757898 409.286545 
L 258.594261 408.610846 
L 270.430625 407.484681 
L 282.266989 406.583748 
L 294.103352 393.069765 
L 305.939716 410.412711 
L 317.77608 408.16038 
L 329.612443 401.403388 
L 341.448807 402.079087 
L 353.28517 388.33987 
L 365.121534 393.520231 
L 376.957898 386.538006 
L 388.794261 379.330548 
L 400.630625 368.294128 
L 412.466989 348.023152 
L 424.303352 355.455843 
L 436.139716 360.861436 
L 447.97608 355.681076 
L 459.812443 370.321225 
L 471.648807 359.735271 
L 483.48517 352.978279 
L 495.321534 340.815694 
L 507.157898 340.815694 
L 518.994261 338.563363 
L 530.830625 369.645526 
" style="fill:none;stroke:#d0e1f2;stroke-linecap:square;stroke-width:1.5;"/>
   </g>
   <g id="line2d_41">
    <path clip-path="url(#pcaefc07add)" d="M 140.230625 432.936017 
L 152.066989 432.710784 
L 163.903352 427.530423 
L 175.739716 423.926694 
L 187.57608 423.476228 
L 199.412443 427.98089 
L 211.248807 422.350063 
L 223.08517 417.620169 
L 234.921534 419.872499 
L 246.757898 412.890274 
L 258.594261 414.241673 
L 270.430625 415.142605 
L 282.266989 413.791206 
L 294.103352 401.178155 
L 305.939716 392.844532 
L 317.77608 396.448261 
L 329.612443 394.646396 
L 341.448807 391.943599 
L 353.28517 392.844532 
L 365.121534 382.483811 
L 376.957898 377.753916 
L 388.794261 369.19506 
L 400.630625 371.672624 
L 412.466989 366.942729 
L 424.303352 352.753046 
L 436.139716 353.879211 
L 447.97608 334.283935 
L 459.812443 337.662431 
L 471.648807 343.968957 
L 483.48517 338.563363 
L 495.321534 347.12222 
L 507.157898 357.933407 
L 518.994261 357.708174 
L 530.830625 372.348323 
" style="fill:none;stroke:#d0e1f2;stroke-linecap:square;stroke-width:1.5;"/>
   </g>
   <g id="line2d_42">
    <path clip-path="url(#pcaefc07add)" d="M 140.230625 433.16125 
L 152.066989 433.16125 
L 163.903352 432.485551 
L 175.739716 430.458453 
L 187.57608 428.431356 
L 199.412443 424.377161 
L 211.248807 411.08841 
L 223.08517 404.106185 
L 234.921534 403.430486 
L 246.757898 401.628621 
L 258.594261 398.250125 
L 270.430625 404.781884 
L 282.266989 398.250125 
L 294.103352 390.817434 
L 305.939716 396.673494 
L 317.77608 397.574426 
L 329.612443 398.700591 
L 341.448807 397.349193 
L 353.28517 387.438938 
L 365.121534 383.609976 
L 376.957898 388.790336 
L 388.794261 379.105315 
L 400.630625 379.105315 
L 412.466989 369.870759 
L 424.303352 361.762369 
L 436.139716 361.537136 
L 447.97608 348.698851 
L 459.812443 357.933407 
L 471.648807 341.716626 
L 483.48517 349.149317 
L 495.321534 350.951182 
L 507.157898 341.716626 
L 518.994261 337.662431 
L 530.830625 333.15777 
" style="fill:none;stroke:#d0e1f2;stroke-linecap:square;stroke-width:1.5;"/>
   </g>
   <g id="line2d_43">
    <path clip-path="url(#pcaefc07add)" d="M 140.230625 433.16125 
L 152.066989 432.260318 
L 163.903352 430.23322 
L 175.739716 427.079957 
L 187.57608 429.107055 
L 199.412443 424.151927 
L 211.248807 423.250995 
L 223.08517 420.548198 
L 234.921534 416.494003 
L 246.757898 403.205252 
L 258.594261 415.142605 
L 270.430625 405.682816 
L 282.266989 400.05199 
L 294.103352 397.799659 
L 305.939716 381.808111 
L 317.77608 390.592201 
L 329.612443 383.384743 
L 341.448807 381.132412 
L 353.28517 379.105315 
L 365.121534 378.204382 
L 376.957898 380.006247 
L 388.794261 366.942729 
L 400.630625 364.014699 
L 412.466989 358.15864 
L 424.303352 370.996924 
L 436.139716 381.808111 
L 447.97608 369.870759 
L 459.812443 345.770821 
L 471.648807 344.19419 
L 483.48517 338.788596 
L 495.321534 324.598913 
L 507.157898 343.068024 
L 518.994261 365.816564 
L 530.830625 397.12396 
" style="fill:none;stroke:#d0e1f2;stroke-linecap:square;stroke-width:1.5;"/>
   </g>
   <g id="line2d_44">
    <path clip-path="url(#pcaefc07add)" d="M 140.230625 432.936017 
L 152.066989 430.007987 
L 163.903352 427.530423 
L 175.739716 428.431356 
L 187.57608 418.070635 
L 199.412443 418.295868 
L 211.248807 417.394936 
L 223.08517 415.142605 
L 234.921534 417.394936 
L 246.757898 413.34074 
L 258.594261 399.37629 
L 270.430625 403.655719 
L 282.266989 399.151057 
L 294.103352 392.394065 
L 305.939716 393.520231 
L 317.77608 392.394065 
L 329.612443 385.41184 
L 341.448807 385.186607 
L 353.28517 380.907179 
L 365.121534 372.798789 
L 376.957898 374.825886 
L 388.794261 379.105315 
L 400.630625 390.817434 
L 412.466989 372.798789 
L 424.303352 353.203512 
L 436.139716 352.077347 
L 447.97608 354.329678 
L 459.812443 356.356775 
L 471.648807 350.951182 
L 483.48517 360.185737 
L 495.321534 361.537136 
L 507.157898 332.48207 
L 518.994261 348.023152 
L 530.830625 377.979149 
" style="fill:none;stroke:#d0e1f2;stroke-linecap:square;stroke-width:1.5;"/>
   </g>
   <g id="line2d_45">
    <path clip-path="url(#pcaefc07add)" d="M 140.230625 433.16125 
L 152.066989 432.936017 
L 163.903352 429.332288 
L 175.739716 420.548198 
L 187.57608 419.872499 
L 199.412443 426.179025 
L 211.248807 423.025762 
L 223.08517 416.26877 
L 234.921534 414.692139 
L 246.757898 415.818304 
L 258.594261 416.26877 
L 270.430625 413.115507 
L 282.266989 403.205252 
L 294.103352 396.898727 
L 305.939716 389.691269 
L 317.77608 392.394065 
L 329.612443 389.015569 
L 341.448807 389.466036 
L 353.28517 393.745464 
L 365.121534 392.619298 
L 376.957898 389.015569 
L 388.794261 372.348323 
L 400.630625 369.645526 
L 412.466989 368.969827 
L 424.303352 361.762369 
L 436.139716 352.527813 
L 447.97608 343.743724 
L 459.812443 345.545588 
L 471.648807 341.716626 
L 483.48517 337.887664 
L 495.321534 334.283935 
L 507.157898 320.769951 
L 518.994261 348.924084 
L 530.830625 380.23148 
" style="fill:none;stroke:#d0e1f2;stroke-linecap:square;stroke-width:1.5;"/>
   </g>
   <g id="line2d_46">
    <path clip-path="url(#pcaefc07add)" d="M 140.230625 432.710784 
L 152.066989 431.584619 
L 163.903352 427.079957 
L 175.739716 418.746334 
L 187.57608 414.466906 
L 199.412443 418.295868 
L 211.248807 398.700591 
L 223.08517 380.456713 
L 234.921534 370.321225 
L 246.757898 364.014699 
L 258.594261 363.789466 
L 270.430625 360.861436 
L 282.266989 367.393195 
L 294.103352 365.816564 
L 305.939716 365.816564 
L 317.77608 368.068894 
L 329.612443 363.339 
L 341.448807 331.130672 
L 353.28517 323.923214 
L 365.121534 330.004507 
L 376.957898 347.347453 
L 388.794261 336.536266 
L 400.630625 316.26529 
L 412.466989 305.454103 
L 424.303352 302.075607 
L 436.139716 302.30084 
L 447.97608 289.687788 
L 459.812443 275.272872 
L 471.648807 253.200032 
L 483.48517 254.776663 
L 495.321534 223.018801 
L 507.157898 182.702083 
L 518.994261 164.007739 
L 530.830625 205.225389 
" style="fill:none;stroke:#1764ab;stroke-linecap:square;stroke-width:1.5;"/>
   </g>
   <g id="line2d_47">
    <path clip-path="url(#pcaefc07add)" d="M 140.230625 432.936017 
L 152.066989 428.206123 
L 163.903352 425.953792 
L 175.739716 419.1968 
L 187.57608 407.709914 
L 199.412443 398.475358 
L 211.248807 393.970697 
L 223.08517 384.961374 
L 234.921534 382.709044 
L 246.757898 373.699721 
L 258.594261 361.762369 
L 270.430625 365.591331 
L 282.266989 370.546458 
L 294.103352 378.429615 
L 305.939716 355.681076 
L 317.77608 360.636203 
L 329.612443 362.663301 
L 341.448807 351.176415 
L 353.28517 350.275482 
L 365.121534 322.571816 
L 376.957898 339.013829 
L 388.794261 325.049379 
L 400.630625 310.859696 
L 412.466989 302.075607 
L 424.303352 291.489653 
L 436.139716 281.354165 
L 447.97608 281.804631 
L 459.812443 283.156029 
L 471.648807 272.795308 
L 483.48517 266.26355 
L 495.321534 244.190709 
L 507.157898 165.809603 
L 518.994261 145.088161 
L 530.830625 156.80028 
" style="fill:none;stroke:#1764ab;stroke-linecap:square;stroke-width:1.5;"/>
   </g>
   <g id="line2d_48">
    <path clip-path="url(#pcaefc07add)" d="M 140.230625 433.16125 
L 152.066989 430.908919 
L 163.903352 427.98089 
L 175.739716 422.350063 
L 187.57608 427.079957 
L 199.412443 418.295868 
L 211.248807 416.494003 
L 223.08517 409.962244 
L 234.921534 400.952922 
L 246.757898 393.069765 
L 258.594261 394.19593 
L 270.430625 379.555781 
L 282.266989 361.762369 
L 294.103352 362.663301 
L 305.939716 360.861436 
L 317.77608 361.311903 
L 329.612443 344.869889 
L 341.448807 325.725078 
L 353.28517 327.076477 
L 365.121534 311.084929 
L 376.957898 301.625141 
L 388.794261 305.003637 
L 400.630625 280.453233 
L 412.466989 292.841051 
L 424.303352 311.985862 
L 436.139716 312.436328 
L 447.97608 313.112027 
L 459.812443 302.751306 
L 471.648807 279.327067 
L 483.48517 233.379522 
L 495.321534 225.496365 
L 507.157898 166.485302 
L 518.994261 174.818926 
L 530.830625 216.036576 
" style="fill:none;stroke:#1764ab;stroke-linecap:square;stroke-width:1.5;"/>
   </g>
   <g id="line2d_49">
    <path clip-path="url(#pcaefc07add)" d="M 140.230625 432.936017 
L 152.066989 424.151927 
L 163.903352 422.12483 
L 175.739716 417.394936 
L 187.57608 400.277223 
L 199.412443 409.061312 
L 211.248807 408.610846 
L 223.08517 407.935147 
L 234.921534 400.952922 
L 246.757898 391.943599 
L 258.594261 381.357645 
L 270.430625 358.609106 
L 282.266989 352.527813 
L 294.103352 344.869889 
L 305.939716 360.41097 
L 317.77608 361.08667 
L 329.612443 358.834339 
L 341.448807 362.888534 
L 353.28517 347.347453 
L 365.121534 348.248385 
L 376.957898 352.978279 
L 388.794261 357.933407 
L 400.630625 347.347453 
L 412.466989 349.37455 
L 424.303352 322.346583 
L 436.139716 303.652238 
L 447.97608 302.751306 
L 459.812443 298.697111 
L 471.648807 299.598043 
L 483.48517 267.164482 
L 495.321534 261.758888 
L 507.157898 190.58524 
L 518.994261 138.556402 
L 530.830625 163.782505 
" style="fill:none;stroke:#1764ab;stroke-linecap:square;stroke-width:1.5;"/>
   </g>
   <g id="line2d_50">
    <path clip-path="url(#pcaefc07add)" d="M 140.230625 433.16125 
L 152.066989 428.206123 
L 163.903352 416.26877 
L 175.739716 412.890274 
L 187.57608 420.548198 
L 199.412443 413.34074 
L 211.248807 409.061312 
L 223.08517 400.502456 
L 234.921534 386.538006 
L 246.757898 391.493133 
L 258.594261 385.862307 
L 270.430625 375.726819 
L 282.266989 373.924954 
L 294.103352 368.068894 
L 305.939716 353.653978 
L 317.77608 357.708174 
L 329.612443 339.689528 
L 341.448807 363.339 
L 353.28517 351.176415 
L 365.121534 344.19419 
L 376.957898 323.022282 
L 388.794261 306.129802 
L 400.630625 286.984991 
L 412.466989 274.597173 
L 424.303352 268.065414 
L 436.139716 291.26442 
L 447.97608 287.885924 
L 459.812443 300.724208 
L 471.648807 264.011219 
L 483.48517 267.614948 
L 495.321534 238.785116 
L 507.157898 198.243164 
L 518.994261 129.997546 
L 530.830625 152.746085 
" style="fill:none;stroke:#1764ab;stroke-linecap:square;stroke-width:1.5;"/>
   </g>
   <g id="line2d_51">
    <path clip-path="url(#pcaefc07add)" d="M 140.230625 433.16125 
L 152.066989 430.23322 
L 163.903352 415.593071 
L 175.739716 421.899597 
L 187.57608 424.377161 
L 199.412443 425.503326 
L 211.248807 414.917372 
L 223.08517 403.205252 
L 234.921534 386.763239 
L 246.757898 384.285675 
L 258.594261 378.204382 
L 270.430625 389.691269 
L 282.266989 389.466036 
L 294.103352 369.870759 
L 305.939716 346.671753 
L 317.77608 348.698851 
L 329.612443 362.888534 
L 341.448807 343.968957 
L 353.28517 350.500716 
L 365.121534 324.598913 
L 376.957898 322.571816 
L 388.794261 317.841921 
L 400.630625 297.796179 
L 412.466989 291.039187 
L 424.303352 288.111157 
L 436.139716 259.957024 
L 447.97608 268.741113 
L 459.812443 245.992574 
L 471.648807 254.100964 
L 483.48517 255.452362 
L 495.321534 235.40662 
L 507.157898 202.297359 
L 518.994261 188.332909 
L 530.830625 240.58698 
" style="fill:none;stroke:#1764ab;stroke-linecap:square;stroke-width:1.5;"/>
   </g>
   <g id="line2d_52">
    <path clip-path="url(#pcaefc07add)" d="M 140.230625 433.16125 
L 152.066989 432.710784 
L 163.903352 432.035085 
L 175.739716 428.881822 
L 187.57608 422.350063 
L 199.412443 412.665041 
L 211.248807 395.322095 
L 223.08517 386.538006 
L 234.921534 389.466036 
L 246.757898 378.654849 
L 258.594261 358.834339 
L 270.430625 370.771691 
L 282.266989 359.284805 
L 294.103352 343.068024 
L 305.939716 341.716626 
L 317.77608 345.545588 
L 329.612443 346.44652 
L 341.448807 330.454973 
L 353.28517 350.725949 
L 365.121534 342.842791 
L 376.957898 327.076477 
L 388.794261 322.797049 
L 400.630625 318.51762 
L 412.466989 296.895246 
L 424.303352 285.183127 
L 436.139716 294.417683 
L 447.97608 275.047639 
L 459.812443 267.389715 
L 471.648807 270.092512 
L 483.48517 268.51588 
L 495.321534 231.802891 
L 507.157898 219.415072 
L 518.994261 185.630113 
L 530.830625 216.036576 
" style="fill:none;stroke:#1764ab;stroke-linecap:square;stroke-width:1.5;"/>
   </g>
   <g id="line2d_53">
    <path clip-path="url(#pcaefc07add)" d="M 140.230625 432.035085 
L 152.066989 432.035085 
L 163.903352 425.503326 
L 175.739716 417.620169 
L 187.57608 416.944469 
L 199.412443 414.466906 
L 211.248807 408.610846 
L 223.08517 392.394065 
L 234.921534 395.096862 
L 246.757898 382.483811 
L 258.594261 389.015569 
L 270.430625 393.970697 
L 282.266989 389.466036 
L 294.103352 373.924954 
L 305.939716 360.41097 
L 317.77608 340.139995 
L 329.612443 342.842791 
L 341.448807 321.670883 
L 353.28517 324.37368 
L 365.121534 324.148447 
L 376.957898 326.400778 
L 388.794261 301.174674 
L 400.630625 318.51762 
L 412.466989 273.471008 
L 424.303352 274.37194 
L 436.139716 314.463425 
L 447.97608 300.273742 
L 459.812443 258.380392 
L 471.648807 239.911281 
L 483.48517 250.947701 
L 495.321534 227.523463 
L 507.157898 177.296489 
L 518.994261 202.973059 
L 530.830625 279.327067 
" style="fill:none;stroke:#1764ab;stroke-linecap:square;stroke-width:1.5;"/>
   </g>
   <g id="line2d_54">
    <path clip-path="url(#pcaefc07add)" d="M 140.230625 431.809852 
L 152.066989 427.755656 
L 163.903352 420.322965 
L 175.739716 417.620169 
L 187.57608 408.836079 
L 199.412443 402.980019 
L 211.248807 398.475358 
L 223.08517 397.799659 
L 234.921534 393.069765 
L 246.757898 387.438938 
L 258.594261 366.717496 
L 270.430625 369.645526 
L 282.266989 367.393195 
L 294.103352 357.933407 
L 305.939716 343.293257 
L 317.77608 340.815694 
L 329.612443 325.274612 
L 341.448807 313.787726 
L 353.28517 322.571816 
L 365.121534 310.634463 
L 376.957898 328.202642 
L 388.794261 339.464295 
L 400.630625 335.635333 
L 412.466989 327.30171 
L 424.303352 292.390585 
L 436.139716 279.777533 
L 447.97608 285.858826 
L 459.812443 277.975669 
L 471.648807 274.822406 
L 483.48517 272.570075 
L 495.321534 262.659821 
L 507.157898 229.55056 
L 518.994261 205.675855 
L 530.830625 216.937509 
" style="fill:none;stroke:#1764ab;stroke-linecap:square;stroke-width:1.5;"/>
   </g>
   <g id="line2d_55">
    <path clip-path="url(#pcaefc07add)" d="M 140.230625 433.16125 
L 152.066989 429.782754 
L 163.903352 421.674364 
L 175.739716 413.791206 
L 187.57608 398.925824 
L 199.412443 398.250125 
L 211.248807 397.12396 
L 223.08517 396.223028 
L 234.921534 391.943599 
L 246.757898 392.619298 
L 258.594261 391.2679 
L 270.430625 391.943599 
L 282.266989 386.312773 
L 294.103352 376.177285 
L 305.939716 361.311903 
L 317.77608 356.582008 
L 329.612443 334.283935 
L 341.448807 338.112897 
L 353.28517 349.37455 
L 365.121534 353.203512 
L 376.957898 352.30258 
L 388.794261 337.887664 
L 400.630625 316.715756 
L 412.466989 294.868149 
L 424.303352 308.156899 
L 436.139716 259.731791 
L 447.97608 257.47946 
L 459.812443 257.47946 
L 471.648807 265.362617 
L 483.48517 242.388845 
L 495.321534 226.847763 
L 507.157898 200.945961 
L 518.994261 213.784246 
L 530.830625 219.415072 
" style="fill:none;stroke:#1764ab;stroke-linecap:square;stroke-width:1.5;"/>
   </g>
   <g id="line2d_56">
    <path clip-path="url(#pcaefc07add)" d="M 140.230625 431.809852 
L 152.066989 432.485551 
L 163.903352 427.530423 
L 175.739716 430.007987 
L 187.57608 426.629491 
L 199.412443 424.151927 
L 211.248807 420.998665 
L 223.08517 411.313643 
L 234.921534 406.358515 
L 246.757898 394.421163 
L 258.594261 394.421163 
L 270.430625 401.178155 
L 282.266989 401.628621 
L 294.103352 400.727689 
L 305.939716 403.430486 
L 317.77608 400.952922 
L 329.612443 394.871629 
L 341.448807 379.105315 
L 353.28517 357.257707 
L 365.121534 366.26703 
L 376.957898 368.969827 
L 388.794261 362.438068 
L 400.630625 344.419423 
L 412.466989 346.896986 
L 424.303352 347.797919 
L 436.139716 359.510038 
L 447.97608 353.879211 
L 459.812443 335.4101 
L 471.648807 314.238192 
L 483.48517 336.761499 
L 495.321534 323.247515 
L 507.157898 304.327937 
L 518.994261 318.742853 
L 530.830625 352.077347 
" style="fill:none;stroke:#94c4df;stroke-linecap:square;stroke-width:1.5;"/>
   </g>
   <g id="line2d_57">
    <path clip-path="url(#pcaefc07add)" d="M 140.230625 433.16125 
L 152.066989 432.260318 
L 163.903352 430.683686 
L 175.739716 426.179025 
L 187.57608 423.476228 
L 199.412443 421.899597 
L 211.248807 416.043537 
L 223.08517 406.358515 
L 234.921534 405.23235 
L 246.757898 401.853854 
L 258.594261 399.37629 
L 270.430625 396.223028 
L 282.266989 401.403388 
L 294.103352 409.737011 
L 305.939716 406.133282 
L 317.77608 398.250125 
L 329.612443 394.421163 
L 341.448807 385.41184 
L 353.28517 373.924954 
L 365.121534 375.051119 
L 376.957898 371.672624 
L 388.794261 362.212835 
L 400.630625 368.068894 
L 412.466989 357.933407 
L 424.303352 370.095992 
L 436.139716 350.050249 
L 447.97608 362.438068 
L 459.812443 357.933407 
L 471.648807 336.536266 
L 483.48517 342.617558 
L 495.321534 311.760628 
L 507.157898 300.498975 
L 518.994261 310.40923 
L 530.830625 332.48207 
" style="fill:none;stroke:#94c4df;stroke-linecap:square;stroke-width:1.5;"/>
   </g>
   <g id="line2d_58">
    <path clip-path="url(#pcaefc07add)" d="M 140.230625 432.936017 
L 152.066989 427.755656 
L 163.903352 427.530423 
L 175.739716 425.05286 
L 187.57608 428.656589 
L 199.412443 429.557521 
L 211.248807 423.250995 
L 223.08517 421.449131 
L 234.921534 416.944469 
L 246.757898 408.16038 
L 258.594261 399.151057 
L 270.430625 385.41184 
L 282.266989 369.420293 
L 294.103352 373.699721 
L 305.939716 362.438068 
L 317.77608 378.654849 
L 329.612443 370.546458 
L 341.448807 361.762369 
L 353.28517 356.582008 
L 365.121534 348.924084 
L 376.957898 340.365228 
L 388.794261 350.725949 
L 400.630625 326.851244 
L 412.466989 347.572686 
L 424.303352 347.12222 
L 436.139716 358.15864 
L 447.97608 363.113767 
L 459.812443 356.131542 
L 471.648807 342.617558 
L 483.48517 315.814824 
L 495.321534 306.580268 
L 507.157898 266.26355 
L 518.994261 276.624271 
L 530.830625 344.644656 
" style="fill:none;stroke:#94c4df;stroke-linecap:square;stroke-width:1.5;"/>
   </g>
   <g id="line2d_59">
    <path clip-path="url(#pcaefc07add)" d="M 140.230625 433.16125 
L 152.066989 430.458453 
L 163.903352 430.23322 
L 175.739716 426.854724 
L 187.57608 423.476228 
L 199.412443 418.746334 
L 211.248807 419.1968 
L 223.08517 411.313643 
L 234.921534 414.917372 
L 246.757898 413.565973 
L 258.594261 409.962244 
L 270.430625 400.952922 
L 282.266989 387.438938 
L 294.103352 391.493133 
L 305.939716 396.223028 
L 317.77608 384.736141 
L 329.612443 375.051119 
L 341.448807 373.699721 
L 353.28517 373.699721 
L 365.121534 383.835209 
L 376.957898 377.979149 
L 388.794261 377.078217 
L 400.630625 365.366098 
L 412.466989 350.275482 
L 424.303352 338.563363 
L 436.139716 350.725949 
L 447.97608 344.644656 
L 459.812443 350.725949 
L 471.648807 346.44652 
L 483.48517 341.941859 
L 495.321534 328.427875 
L 507.157898 305.454103 
L 518.994261 292.615818 
L 530.830625 334.283935 
" style="fill:none;stroke:#94c4df;stroke-linecap:square;stroke-width:1.5;"/>
   </g>
   <g id="line2d_60">
    <path clip-path="url(#pcaefc07add)" d="M 140.230625 433.16125 
L 152.066989 432.035085 
L 163.903352 426.854724 
L 175.739716 425.05286 
L 187.57608 425.728559 
L 199.412443 420.998665 
L 211.248807 419.647266 
L 223.08517 416.26877 
L 234.921534 404.106185 
L 246.757898 398.700591 
L 258.594261 391.718366 
L 270.430625 391.493133 
L 282.266989 393.520231 
L 294.103352 380.907179 
L 305.939716 400.502456 
L 317.77608 389.691269 
L 329.612443 389.691269 
L 341.448807 387.213705 
L 353.28517 387.438938 
L 365.121534 373.024022 
L 376.957898 360.636203 
L 388.794261 355.455843 
L 400.630625 342.617558 
L 412.466989 340.815694 
L 424.303352 327.977409 
L 436.139716 341.491393 
L 447.97608 339.464295 
L 459.812443 344.869889 
L 471.648807 332.48207 
L 483.48517 340.590461 
L 495.321534 311.760628 
L 507.157898 281.128932 
L 518.994261 276.849504 
L 530.830625 334.509168 
" style="fill:none;stroke:#94c4df;stroke-linecap:square;stroke-width:1.5;"/>
   </g>
   <g id="line2d_61">
    <path clip-path="url(#pcaefc07add)" d="M 140.230625 433.16125 
L 152.066989 432.035085 
L 163.903352 425.278093 
L 175.739716 426.629491 
L 187.57608 430.23322 
L 199.412443 426.629491 
L 211.248807 422.12483 
L 223.08517 411.989342 
L 234.921534 410.637944 
L 246.757898 418.521101 
L 258.594261 410.187477 
L 270.430625 409.962244 
L 282.266989 403.430486 
L 294.103352 399.601523 
L 305.939716 399.37629 
L 317.77608 391.2679 
L 329.612443 390.592201 
L 341.448807 382.258578 
L 353.28517 382.934277 
L 365.121534 378.204382 
L 376.957898 370.321225 
L 388.794261 367.167962 
L 400.630625 363.789466 
L 412.466989 352.30258 
L 424.303352 330.004507 
L 436.139716 322.571816 
L 447.97608 315.364358 
L 459.812443 307.706433 
L 471.648807 317.841921 
L 483.48517 316.26529 
L 495.321534 308.607366 
L 507.157898 309.057832 
L 518.994261 319.19332 
L 530.830625 347.347453 
" style="fill:none;stroke:#94c4df;stroke-linecap:square;stroke-width:1.5;"/>
   </g>
   <g id="line2d_62">
    <path clip-path="url(#pcaefc07add)" d="M 140.230625 433.16125 
L 152.066989 432.710784 
L 163.903352 431.134152 
L 175.739716 430.23322 
L 187.57608 423.701461 
L 199.412443 420.322965 
L 211.248807 408.385613 
L 223.08517 407.935147 
L 234.921534 411.989342 
L 246.757898 400.05199 
L 258.594261 401.628621 
L 270.430625 396.223028 
L 282.266989 396.673494 
L 294.103352 384.510908 
L 305.939716 377.979149 
L 317.77608 388.33987 
L 329.612443 382.258578 
L 341.448807 377.979149 
L 353.28517 380.907179 
L 365.121534 374.150187 
L 376.957898 373.699721 
L 388.794261 367.843661 
L 400.630625 362.888534 
L 412.466989 335.860566 
L 424.303352 339.239062 
L 436.139716 341.941859 
L 447.97608 341.040927 
L 459.812443 335.4101 
L 471.648807 331.130672 
L 483.48517 351.401648 
L 495.321534 343.068024 
L 507.157898 329.554041 
L 518.994261 328.653108 
L 530.830625 347.797919 
" style="fill:none;stroke:#94c4df;stroke-linecap:square;stroke-width:1.5;"/>
   </g>
   <g id="line2d_63">
    <path clip-path="url(#pcaefc07add)" d="M 140.230625 433.16125 
L 152.066989 432.035085 
L 163.903352 430.23322 
L 175.739716 427.079957 
L 187.57608 427.079957 
L 199.412443 427.079957 
L 211.248807 422.575296 
L 223.08517 414.692139 
L 234.921534 396.223028 
L 246.757898 396.448261 
L 258.594261 394.871629 
L 270.430625 404.781884 
L 282.266989 402.980019 
L 294.103352 395.772561 
L 305.939716 389.916502 
L 317.77608 375.952052 
L 329.612443 373.924954 
L 341.448807 370.546458 
L 353.28517 365.816564 
L 365.121534 364.239932 
L 376.957898 355.005377 
L 388.794261 346.221287 
L 400.630625 337.437198 
L 412.466989 325.499845 
L 424.303352 346.221287 
L 436.139716 351.852114 
L 447.97608 336.761499 
L 459.812443 326.400778 
L 471.648807 310.634463 
L 483.48517 304.778404 
L 495.321534 285.633593 
L 507.157898 286.309292 
L 518.994261 302.526073 
L 530.830625 360.41097 
" style="fill:none;stroke:#94c4df;stroke-linecap:square;stroke-width:1.5;"/>
   </g>
   <g id="line2d_64">
    <path clip-path="url(#pcaefc07add)" d="M 140.230625 432.035085 
L 152.066989 429.557521 
L 163.903352 425.278093 
L 175.739716 424.602394 
L 187.57608 420.548198 
L 199.412443 414.466906 
L 211.248807 419.422033 
L 223.08517 407.484681 
L 234.921534 406.808982 
L 246.757898 403.655719 
L 258.594261 398.024892 
L 270.430625 401.178155 
L 282.266989 391.2679 
L 294.103352 387.213705 
L 305.939716 386.988472 
L 317.77608 383.384743 
L 329.612443 374.600653 
L 341.448807 376.852984 
L 353.28517 370.996924 
L 365.121534 353.428745 
L 376.957898 374.825886 
L 388.794261 377.753916 
L 400.630625 390.141735 
L 412.466989 373.024022 
L 424.303352 368.744594 
L 436.139716 356.807241 
L 447.97608 356.356775 
L 459.812443 353.653978 
L 471.648807 354.329678 
L 483.48517 344.644656 
L 495.321534 333.383003 
L 507.157898 324.37368 
L 518.994261 328.202642 
L 530.830625 358.834339 
" style="fill:none;stroke:#94c4df;stroke-linecap:square;stroke-width:1.5;"/>
   </g>
   <g id="line2d_65">
    <path clip-path="url(#pcaefc07add)" d="M 140.230625 433.16125 
L 152.066989 431.809852 
L 163.903352 426.179025 
L 175.739716 425.503326 
L 187.57608 415.818304 
L 199.412443 422.575296 
L 211.248807 418.295868 
L 223.08517 415.818304 
L 234.921534 416.26877 
L 246.757898 410.412711 
L 258.594261 402.980019 
L 270.430625 400.502456 
L 282.266989 393.069765 
L 294.103352 393.970697 
L 305.939716 395.096862 
L 317.77608 391.042667 
L 329.612443 380.681946 
L 341.448807 386.988472 
L 353.28517 384.961374 
L 365.121534 389.015569 
L 376.957898 393.745464 
L 388.794261 386.538006 
L 400.630625 372.348323 
L 412.466989 359.510038 
L 424.303352 341.040927 
L 436.139716 348.924084 
L 447.97608 322.571816 
L 459.812443 319.19332 
L 471.648807 326.175545 
L 483.48517 309.057832 
L 495.321534 295.769081 
L 507.157898 297.796179 
L 518.994261 296.219547 
L 530.830625 330.22974 
" style="fill:none;stroke:#94c4df;stroke-linecap:square;stroke-width:1.5;"/>
   </g>
   <g id="line2d_66">
    <path clip-path="url(#pcaefc07add)" d="M 140.230625 433.16125 
L 152.066989 433.16125 
L 163.903352 433.16125 
L 175.739716 433.16125 
L 187.57608 433.16125 
L 199.412443 433.16125 
L 211.248807 433.16125 
L 223.08517 433.16125 
L 234.921534 433.16125 
L 246.757898 433.16125 
L 258.594261 433.16125 
L 270.430625 433.16125 
L 282.266989 433.16125 
L 294.103352 433.16125 
L 305.939716 433.16125 
L 317.77608 433.16125 
L 329.612443 433.16125 
L 341.448807 433.16125 
L 353.28517 433.16125 
L 365.121534 433.16125 
L 376.957898 433.16125 
L 388.794261 433.16125 
L 400.630625 433.16125 
L 412.466989 433.16125 
L 424.303352 433.16125 
L 436.139716 433.16125 
L 447.97608 433.16125 
L 459.812443 433.16125 
L 471.648807 433.16125 
L 483.48517 433.16125 
L 495.321534 433.16125 
L 507.157898 433.16125 
L 518.994261 433.16125 
L 530.830625 433.16125 
" style="fill:none;stroke:#000000;stroke-linecap:square;stroke-width:1.5;"/>
   </g>
   <g id="line2d_67">
    <path clip-path="url(#pcaefc07add)" d="M 140.230625 433.16125 
L 152.066989 433.16125 
L 163.903352 433.16125 
L 175.739716 433.16125 
L 187.57608 433.16125 
L 199.412443 433.16125 
L 211.248807 433.16125 
L 223.08517 433.16125 
L 234.921534 433.16125 
L 246.757898 433.16125 
L 258.594261 433.16125 
L 270.430625 433.16125 
L 282.266989 433.16125 
L 294.103352 433.16125 
L 305.939716 433.16125 
L 317.77608 433.16125 
L 329.612443 433.16125 
L 341.448807 433.16125 
L 353.28517 433.16125 
L 365.121534 433.16125 
L 376.957898 433.16125 
L 388.794261 433.16125 
L 400.630625 433.16125 
L 412.466989 433.16125 
L 424.303352 433.16125 
L 436.139716 433.16125 
L 447.97608 433.16125 
L 459.812443 433.16125 
L 471.648807 433.16125 
L 483.48517 433.16125 
L 495.321534 433.16125 
L 507.157898 433.16125 
L 518.994261 433.16125 
L 530.830625 433.16125 
" style="fill:none;stroke:#000000;stroke-linecap:square;stroke-width:1.5;"/>
   </g>
   <g id="line2d_68">
    <path clip-path="url(#pcaefc07add)" d="M 140.230625 433.16125 
L 152.066989 433.16125 
L 163.903352 433.16125 
L 175.739716 433.16125 
L 187.57608 433.16125 
L 199.412443 433.16125 
L 211.248807 433.16125 
L 223.08517 433.16125 
L 234.921534 433.16125 
L 246.757898 433.16125 
L 258.594261 433.16125 
L 270.430625 433.16125 
L 282.266989 433.16125 
L 294.103352 433.16125 
L 305.939716 433.16125 
L 317.77608 433.16125 
L 329.612443 433.16125 
L 341.448807 433.16125 
L 353.28517 433.16125 
L 365.121534 433.16125 
L 376.957898 433.16125 
L 388.794261 433.16125 
L 400.630625 433.16125 
L 412.466989 433.16125 
L 424.303352 433.16125 
L 436.139716 433.16125 
L 447.97608 433.16125 
L 459.812443 433.16125 
L 471.648807 433.16125 
L 483.48517 433.16125 
L 495.321534 433.16125 
L 507.157898 433.16125 
L 518.994261 433.16125 
L 530.830625 433.16125 
" style="fill:none;stroke:#000000;stroke-linecap:square;stroke-width:1.5;"/>
   </g>
   <g id="line2d_69">
    <path clip-path="url(#pcaefc07add)" d="M 140.230625 433.16125 
L 152.066989 433.16125 
L 163.903352 433.16125 
L 175.739716 433.16125 
L 187.57608 433.16125 
L 199.412443 433.16125 
L 211.248807 433.16125 
L 223.08517 433.16125 
L 234.921534 433.16125 
L 246.757898 433.16125 
L 258.594261 433.16125 
L 270.430625 433.16125 
L 282.266989 433.16125 
L 294.103352 433.16125 
L 305.939716 433.16125 
L 317.77608 433.16125 
L 329.612443 433.16125 
L 341.448807 433.16125 
L 353.28517 433.16125 
L 365.121534 433.16125 
L 376.957898 433.16125 
L 388.794261 433.16125 
L 400.630625 433.16125 
L 412.466989 433.16125 
L 424.303352 433.16125 
L 436.139716 433.16125 
L 447.97608 433.16125 
L 459.812443 433.16125 
L 471.648807 433.16125 
L 483.48517 433.16125 
L 495.321534 433.16125 
L 507.157898 433.16125 
L 518.994261 433.16125 
L 530.830625 433.16125 
" style="fill:none;stroke:#000000;stroke-linecap:square;stroke-width:1.5;"/>
   </g>
   <g id="line2d_70">
    <path clip-path="url(#pcaefc07add)" d="M 140.230625 433.16125 
L 152.066989 433.16125 
L 163.903352 433.16125 
L 175.739716 433.16125 
L 187.57608 433.16125 
L 199.412443 433.16125 
L 211.248807 433.16125 
L 223.08517 433.16125 
L 234.921534 433.16125 
L 246.757898 433.16125 
L 258.594261 433.16125 
L 270.430625 433.16125 
L 282.266989 433.16125 
L 294.103352 433.16125 
L 305.939716 433.16125 
L 317.77608 433.16125 
L 329.612443 433.16125 
L 341.448807 433.16125 
L 353.28517 433.16125 
L 365.121534 433.16125 
L 376.957898 433.16125 
L 388.794261 433.16125 
L 400.630625 433.16125 
L 412.466989 433.16125 
L 424.303352 433.16125 
L 436.139716 433.16125 
L 447.97608 433.16125 
L 459.812443 433.16125 
L 471.648807 433.16125 
L 483.48517 433.16125 
L 495.321534 433.16125 
L 507.157898 433.16125 
L 518.994261 433.16125 
L 530.830625 433.16125 
" style="fill:none;stroke:#000000;stroke-linecap:square;stroke-width:1.5;"/>
   </g>
   <g id="line2d_71">
    <path clip-path="url(#pcaefc07add)" d="M 140.230625 433.16125 
L 152.066989 433.16125 
L 163.903352 433.16125 
L 175.739716 433.16125 
L 187.57608 433.16125 
L 199.412443 433.16125 
L 211.248807 433.16125 
L 223.08517 433.16125 
L 234.921534 433.16125 
L 246.757898 433.16125 
L 258.594261 433.16125 
L 270.430625 433.16125 
L 282.266989 433.16125 
L 294.103352 433.16125 
L 305.939716 433.16125 
L 317.77608 433.16125 
L 329.612443 433.16125 
L 341.448807 433.16125 
L 353.28517 433.16125 
L 365.121534 433.16125 
L 376.957898 433.16125 
L 388.794261 433.16125 
L 400.630625 433.16125 
L 412.466989 433.16125 
L 424.303352 433.16125 
L 436.139716 433.16125 
L 447.97608 433.16125 
L 459.812443 433.16125 
L 471.648807 433.16125 
L 483.48517 433.16125 
L 495.321534 433.16125 
L 507.157898 433.16125 
L 518.994261 433.16125 
L 530.830625 433.16125 
" style="fill:none;stroke:#000000;stroke-linecap:square;stroke-width:1.5;"/>
   </g>
   <g id="line2d_72">
    <path clip-path="url(#pcaefc07add)" d="M 140.230625 433.16125 
L 152.066989 433.16125 
L 163.903352 433.16125 
L 175.739716 433.16125 
L 187.57608 433.16125 
L 199.412443 433.16125 
L 211.248807 433.16125 
L 223.08517 433.16125 
L 234.921534 433.16125 
L 246.757898 433.16125 
L 258.594261 433.16125 
L 270.430625 433.16125 
L 282.266989 433.16125 
L 294.103352 433.16125 
L 305.939716 433.16125 
L 317.77608 433.16125 
L 329.612443 433.16125 
L 341.448807 433.16125 
L 353.28517 433.16125 
L 365.121534 433.16125 
L 376.957898 433.16125 
L 388.794261 433.16125 
L 400.630625 433.16125 
L 412.466989 433.16125 
L 424.303352 433.16125 
L 436.139716 433.16125 
L 447.97608 433.16125 
L 459.812443 433.16125 
L 471.648807 433.16125 
L 483.48517 433.16125 
L 495.321534 433.16125 
L 507.157898 433.16125 
L 518.994261 433.16125 
L 530.830625 433.16125 
" style="fill:none;stroke:#000000;stroke-linecap:square;stroke-width:1.5;"/>
   </g>
   <g id="line2d_73">
    <path clip-path="url(#pcaefc07add)" d="M 140.230625 433.16125 
L 152.066989 433.16125 
L 163.903352 433.16125 
L 175.739716 433.16125 
L 187.57608 433.16125 
L 199.412443 433.16125 
L 211.248807 433.16125 
L 223.08517 433.16125 
L 234.921534 433.16125 
L 246.757898 433.16125 
L 258.594261 433.16125 
L 270.430625 433.16125 
L 282.266989 433.16125 
L 294.103352 433.16125 
L 305.939716 433.16125 
L 317.77608 433.16125 
L 329.612443 433.16125 
L 341.448807 433.16125 
L 353.28517 433.16125 
L 365.121534 433.16125 
L 376.957898 433.16125 
L 388.794261 433.16125 
L 400.630625 433.16125 
L 412.466989 433.16125 
L 424.303352 433.16125 
L 436.139716 433.16125 
L 447.97608 433.16125 
L 459.812443 433.16125 
L 471.648807 433.16125 
L 483.48517 433.16125 
L 495.321534 433.16125 
L 507.157898 433.16125 
L 518.994261 433.16125 
L 530.830625 433.16125 
" style="fill:none;stroke:#000000;stroke-linecap:square;stroke-width:1.5;"/>
   </g>
   <g id="line2d_74">
    <path clip-path="url(#pcaefc07add)" d="M 140.230625 433.16125 
L 152.066989 433.16125 
L 163.903352 433.16125 
L 175.739716 433.16125 
L 187.57608 433.16125 
L 199.412443 433.16125 
L 211.248807 433.16125 
L 223.08517 433.16125 
L 234.921534 433.16125 
L 246.757898 433.16125 
L 258.594261 433.16125 
L 270.430625 433.16125 
L 282.266989 433.16125 
L 294.103352 433.16125 
L 305.939716 433.16125 
L 317.77608 433.16125 
L 329.612443 433.16125 
L 341.448807 433.16125 
L 353.28517 433.16125 
L 365.121534 433.16125 
L 376.957898 433.16125 
L 388.794261 433.16125 
L 400.630625 433.16125 
L 412.466989 433.16125 
L 424.303352 433.16125 
L 436.139716 433.16125 
L 447.97608 433.16125 
L 459.812443 433.16125 
L 471.648807 433.16125 
L 483.48517 433.16125 
L 495.321534 433.16125 
L 507.157898 433.16125 
L 518.994261 433.16125 
L 530.830625 433.16125 
" style="fill:none;stroke:#000000;stroke-linecap:square;stroke-width:1.5;"/>
   </g>
   <g id="line2d_75">
    <path clip-path="url(#pcaefc07add)" d="M 140.230625 433.16125 
L 152.066989 433.16125 
L 163.903352 433.16125 
L 175.739716 433.16125 
L 187.57608 433.16125 
L 199.412443 433.16125 
L 211.248807 433.16125 
L 223.08517 433.16125 
L 234.921534 433.16125 
L 246.757898 433.16125 
L 258.594261 433.16125 
L 270.430625 433.16125 
L 282.266989 433.16125 
L 294.103352 433.16125 
L 305.939716 433.16125 
L 317.77608 433.16125 
L 329.612443 433.16125 
L 341.448807 433.16125 
L 353.28517 433.16125 
L 365.121534 433.16125 
L 376.957898 433.16125 
L 388.794261 433.16125 
L 400.630625 433.16125 
L 412.466989 433.16125 
L 424.303352 433.16125 
L 436.139716 433.16125 
L 447.97608 433.16125 
L 459.812443 433.16125 
L 471.648807 433.16125 
L 483.48517 433.16125 
L 495.321534 433.16125 
L 507.157898 433.16125 
L 518.994261 433.16125 
L 530.830625 433.16125 
" style="fill:none;stroke:#000000;stroke-linecap:square;stroke-width:1.5;"/>
   </g>
   <g id="line2d_76">
    <path clip-path="url(#pcaefc07add)" d="M 128.394261 433.16125 
" style="fill:none;stroke:#000000;stroke-linecap:square;stroke-width:1.5;"/>
   </g>
   <g id="line2d_77">
    <path clip-path="url(#pcaefc07add)" d="M 128.394261 433.16125 
" style="fill:none;stroke:#d0e1f2;stroke-linecap:square;stroke-width:1.5;"/>
   </g>
   <g id="line2d_78">
    <path clip-path="url(#pcaefc07add)" d="M 128.394261 433.16125 
" style="fill:none;stroke:#94c4df;stroke-linecap:square;stroke-width:1.5;"/>
   </g>
   <g id="line2d_79">
    <path clip-path="url(#pcaefc07add)" d="M 128.394261 433.16125 
" style="fill:none;stroke:#4a98c9;stroke-linecap:square;stroke-width:1.5;"/>
   </g>
   <g id="line2d_80">
    <path clip-path="url(#pcaefc07add)" d="M 128.394261 433.16125 
" style="fill:none;stroke:#1764ab;stroke-linecap:square;stroke-width:1.5;"/>
   </g>
   <g id="line2d_81">
    <path clip-path="url(#pcaefc07add)" d="M 128.394261 433.16125 
" style="fill:none;stroke:#08306b;stroke-linecap:square;stroke-width:1.5;"/>
   </g>
   <g id="line2d_82">
    <path clip-path="url(#pcaefc07add)" d="M 128.394261 433.16125 
" style="fill:none;stroke:#000000;stroke-linecap:square;stroke-width:1.5;"/>
   </g>
   <g id="line2d_83">
    <path clip-path="url(#pcaefc07add)" d="M 128.394261 433.16125 
" style="fill:none;stroke:#000000;stroke-dasharray:1.5,2.475;stroke-dashoffset:0;stroke-width:1.5;"/>
   </g>
   <g id="line2d_84">
    <path clip-path="url(#pcaefc07add)" d="M 128.394261 433.16125 
" style="fill:none;stroke:#000000;stroke-linecap:square;stroke-width:1.5;"/>
   </g>
   <g id="line2d_85">
    <path clip-path="url(#pcaefc07add)" d="M 128.394261 433.16125 
" style="fill:none;stroke:#000000;stroke-dasharray:5.55,2.4;stroke-dashoffset:0;stroke-width:1.5;"/>
   </g>
   <g id="line2d_86">
    <path clip-path="url(#pcaefc07add)" d="M 128.394261 433.16125 
" style="fill:none;stroke:#000000;stroke-dasharray:9.6,2.4,1.5,2.4;stroke-dashoffset:0;stroke-width:1.5;"/>
   </g>
   <g id="line2d_87">
    <path clip-path="url(#pcaefc07add)" d="M 128.394261 433.16125 
" style="fill:none;stroke:#000000;stroke-dasharray:9.6,2.4,1.5,2.4;stroke-dashoffset:0;stroke-width:1.5;"/>
   </g>
   <g id="patch_3">
    <path d="M 140.230625 433.16125 
L 140.230625 52.64125 
" style="fill:none;stroke:#000000;stroke-linecap:square;stroke-linejoin:miter;stroke-width:0.8;"/>
   </g>
   <g id="patch_4">
    <path d="M 530.830625 433.16125 
L 530.830625 52.64125 
" style="fill:none;stroke:#000000;stroke-linecap:square;stroke-linejoin:miter;stroke-width:0.8;"/>
   </g>
   <g id="patch_5">
    <path d="M 140.230625 433.16125 
L 530.830625 433.16125 
" style="fill:none;stroke:#000000;stroke-linecap:square;stroke-linejoin:miter;stroke-width:0.8;"/>
   </g>
   <g id="patch_6">
    <path d="M 140.230625 52.64125 
L 530.830625 52.64125 
" style="fill:none;stroke:#000000;stroke-linecap:square;stroke-linejoin:miter;stroke-width:0.8;"/>
   </g>
   <g id="text_18">
    <!-- CD4 COUNT -->
    <g transform="translate(277.19625 21.515625)scale(0.2 -0.2)">
     <use xlink:href="#Arial-BoldMT-67"/>
     <use x="72.216797" xlink:href="#Arial-BoldMT-68"/>
     <use x="144.433594" xlink:href="#Arial-BoldMT-52"/>
     <use x="200.048828" xlink:href="#Arial-BoldMT-32"/>
     <use x="227.832031" xlink:href="#Arial-BoldMT-67"/>
     <use x="300.048828" xlink:href="#Arial-BoldMT-79"/>
     <use x="377.832031" xlink:href="#Arial-BoldMT-85"/>
     <use x="450.048828" xlink:href="#Arial-BoldMT-78"/>
     <use x="522.265625" xlink:href="#Arial-BoldMT-84"/>
    </g>
    <!-- ACROSS RADIUS AT TIME 4 -->
    <g transform="translate(200.536875 42.64125)scale(0.2 -0.2)">
     <use xlink:href="#Arial-BoldMT-65"/>
     <use x="72.216797" xlink:href="#Arial-BoldMT-67"/>
     <use x="144.433594" xlink:href="#Arial-BoldMT-82"/>
     <use x="216.650391" xlink:href="#Arial-BoldMT-79"/>
     <use x="294.433594" xlink:href="#Arial-BoldMT-83"/>
     <use x="361.132812" xlink:href="#Arial-BoldMT-83"/>
     <use x="427.832031" xlink:href="#Arial-BoldMT-32"/>
     <use x="455.615234" xlink:href="#Arial-BoldMT-82"/>
     <use x="527.832031" xlink:href="#Arial-BoldMT-65"/>
     <use x="600.048828" xlink:href="#Arial-BoldMT-68"/>
     <use x="672.265625" xlink:href="#Arial-BoldMT-73"/>
     <use x="700.048828" xlink:href="#Arial-BoldMT-85"/>
     <use x="772.265625" xlink:href="#Arial-BoldMT-83"/>
     <use x="838.964844" xlink:href="#Arial-BoldMT-32"/>
     <use x="866.701172" xlink:href="#Arial-BoldMT-65"/>
     <use x="938.808594" xlink:href="#Arial-BoldMT-84"/>
     <use x="999.892578" xlink:href="#Arial-BoldMT-32"/>
     <use x="1027.675781" xlink:href="#Arial-BoldMT-84"/>
     <use x="1088.759766" xlink:href="#Arial-BoldMT-73"/>
     <use x="1116.542969" xlink:href="#Arial-BoldMT-77"/>
     <use x="1199.84375" xlink:href="#Arial-BoldMT-69"/>
     <use x="1266.542969" xlink:href="#Arial-BoldMT-32"/>
     <use x="1294.326172" xlink:href="#Arial-BoldMT-52"/>
    </g>
   </g>
   <g id="legend_1">
    <g id="line2d_88">
     <path d="M 539.830625 65.739687 
L 559.830625 65.739687 
" style="fill:none;stroke:#000000;stroke-linecap:square;stroke-width:1.5;"/>
    </g>
    <g id="line2d_89"/>
    <g id="text_19">
     <!-- 0 -->
     <g transform="translate(567.830625 69.239687)scale(0.1 -0.1)">
      <use xlink:href="#DejaVuSans-48"/>
     </g>
    </g>
    <g id="line2d_90">
     <path d="M 539.830625 80.417812 
L 559.830625 80.417812 
" style="fill:none;stroke:#d0e1f2;stroke-linecap:square;stroke-width:1.5;"/>
    </g>
    <g id="line2d_91"/>
    <g id="text_20">
     <!-- 100 -->
     <g transform="translate(567.830625 83.917812)scale(0.1 -0.1)">
      <use xlink:href="#DejaVuSans-49"/>
      <use x="63.623047" xlink:href="#DejaVuSans-48"/>
      <use x="127.246094" xlink:href="#DejaVuSans-48"/>
     </g>
    </g>
    <g id="line2d_92">
     <path d="M 539.830625 95.095937 
L 559.830625 95.095937 
" style="fill:none;stroke:#94c4df;stroke-linecap:square;stroke-width:1.5;"/>
    </g>
    <g id="line2d_93"/>
    <g id="text_21">
     <!-- 500 -->
     <g transform="translate(567.830625 98.595937)scale(0.1 -0.1)">
      <use xlink:href="#DejaVuSans-53"/>
      <use x="63.623047" xlink:href="#DejaVuSans-48"/>
      <use x="127.246094" xlink:href="#DejaVuSans-48"/>
     </g>
    </g>
    <g id="line2d_94">
     <path d="M 539.830625 109.774062 
L 559.830625 109.774062 
" style="fill:none;stroke:#4a98c9;stroke-linecap:square;stroke-width:1.5;"/>
    </g>
    <g id="line2d_95"/>
    <g id="text_22">
     <!-- 1000 -->
     <g transform="translate(567.830625 113.274062)scale(0.1 -0.1)">
      <use xlink:href="#DejaVuSans-49"/>
      <use x="63.623047" xlink:href="#DejaVuSans-48"/>
      <use x="127.246094" xlink:href="#DejaVuSans-48"/>
      <use x="190.869141" xlink:href="#DejaVuSans-48"/>
     </g>
    </g>
    <g id="line2d_96">
     <path d="M 539.830625 124.452187 
L 559.830625 124.452187 
" style="fill:none;stroke:#1764ab;stroke-linecap:square;stroke-width:1.5;"/>
    </g>
    <g id="line2d_97"/>
    <g id="text_23">
     <!-- 5000 -->
     <g transform="translate(567.830625 127.952187)scale(0.1 -0.1)">
      <use xlink:href="#DejaVuSans-53"/>
      <use x="63.623047" xlink:href="#DejaVuSans-48"/>
      <use x="127.246094" xlink:href="#DejaVuSans-48"/>
      <use x="190.869141" xlink:href="#DejaVuSans-48"/>
     </g>
    </g>
    <g id="line2d_98">
     <path d="M 539.830625 139.130312 
L 559.830625 139.130312 
" style="fill:none;stroke:#08306b;stroke-linecap:square;stroke-width:1.5;"/>
    </g>
    <g id="line2d_99"/>
    <g id="text_24">
     <!-- 10000 -->
     <g transform="translate(567.830625 142.630312)scale(0.1 -0.1)">
      <use xlink:href="#DejaVuSans-49"/>
      <use x="63.623047" xlink:href="#DejaVuSans-48"/>
      <use x="127.246094" xlink:href="#DejaVuSans-48"/>
      <use x="190.869141" xlink:href="#DejaVuSans-48"/>
      <use x="254.492188" xlink:href="#DejaVuSans-48"/>
     </g>
    </g>
    <g id="line2d_100">
     <path d="M 539.830625 153.808437 
L 559.830625 153.808437 
" style="fill:none;stroke:#000000;stroke-linecap:square;stroke-width:1.5;"/>
    </g>
    <g id="line2d_101"/>
    <g id="text_25">
     <!-- 0 -->
     <g transform="translate(567.830625 157.308437)scale(0.1 -0.1)">
      <use xlink:href="#DejaVuSans-48"/>
     </g>
    </g>
    <g id="line2d_102">
     <path d="M 539.830625 168.486562 
L 559.830625 168.486562 
" style="fill:none;stroke:#000000;stroke-dasharray:1.5,2.475;stroke-dashoffset:0;stroke-width:1.5;"/>
    </g>
    <g id="line2d_103"/>
    <g id="text_26">
     <!-- 250 -->
     <g transform="translate(567.830625 171.986562)scale(0.1 -0.1)">
      <use xlink:href="#DejaVuSans-50"/>
      <use x="63.623047" xlink:href="#DejaVuSans-53"/>
      <use x="127.246094" xlink:href="#DejaVuSans-48"/>
     </g>
    </g>
    <g id="line2d_104">
     <path d="M 539.830625 183.164687 
L 559.830625 183.164687 
" style="fill:none;stroke:#000000;stroke-linecap:square;stroke-width:1.5;"/>
    </g>
    <g id="line2d_105"/>
    <g id="text_27">
     <!-- 500 -->
     <g transform="translate(567.830625 186.664687)scale(0.1 -0.1)">
      <use xlink:href="#DejaVuSans-53"/>
      <use x="63.623047" xlink:href="#DejaVuSans-48"/>
      <use x="127.246094" xlink:href="#DejaVuSans-48"/>
     </g>
    </g>
    <g id="line2d_106">
     <path d="M 539.830625 197.842812 
L 559.830625 197.842812 
" style="fill:none;stroke:#000000;stroke-dasharray:5.55,2.4;stroke-dashoffset:0;stroke-width:1.5;"/>
    </g>
    <g id="line2d_107"/>
    <g id="text_28">
     <!-- 1000 -->
     <g transform="translate(567.830625 201.342812)scale(0.1 -0.1)">
      <use xlink:href="#DejaVuSans-49"/>
      <use x="63.623047" xlink:href="#DejaVuSans-48"/>
      <use x="127.246094" xlink:href="#DejaVuSans-48"/>
      <use x="190.869141" xlink:href="#DejaVuSans-48"/>
     </g>
    </g>
    <g id="line2d_108">
     <path d="M 539.830625 212.520937 
L 559.830625 212.520937 
" style="fill:none;stroke:#000000;stroke-dasharray:9.6,2.4,1.5,2.4;stroke-dashoffset:0;stroke-width:1.5;"/>
    </g>
    <g id="line2d_109"/>
    <g id="text_29">
     <!-- 5000 -->
     <g transform="translate(567.830625 216.020937)scale(0.1 -0.1)">
      <use xlink:href="#DejaVuSans-53"/>
      <use x="63.623047" xlink:href="#DejaVuSans-48"/>
      <use x="127.246094" xlink:href="#DejaVuSans-48"/>
      <use x="190.869141" xlink:href="#DejaVuSans-48"/>
     </g>
    </g>
    <g id="line2d_110">
     <path d="M 539.830625 227.199062 
L 559.830625 227.199062 
" style="fill:none;stroke:#000000;stroke-dasharray:9.6,2.4,1.5,2.4;stroke-dashoffset:0;stroke-width:1.5;"/>
    </g>
    <g id="line2d_111"/>
    <g id="text_30">
     <!-- 10000 -->
     <g transform="translate(567.830625 230.699062)scale(0.1 -0.1)">
      <use xlink:href="#DejaVuSans-49"/>
      <use x="63.623047" xlink:href="#DejaVuSans-48"/>
      <use x="127.246094" xlink:href="#DejaVuSans-48"/>
      <use x="190.869141" xlink:href="#DejaVuSans-48"/>
      <use x="254.492188" xlink:href="#DejaVuSans-48"/>
     </g>
    </g>
   </g>
  </g>
 </g>
 <defs>
  <clipPath id="pcaefc07add">
   <rect height="380.52" width="390.6" x="140.230625" y="52.64125"/>
  </clipPath>
 </defs>
</svg>
