<?xml version="1.0" encoding="utf-8" standalone="no"?>
<!DOCTYPE svg PUBLIC "-//W3C//DTD SVG 1.1//EN"
  "http://www.w3.org/Graphics/SVG/1.1/DTD/svg11.dtd">
<!-- Created with matplotlib (https://matplotlib.org/) -->
<svg height="504.658125pt" version="1.1" viewBox="0 0 503.355625 504.658125" width="503.355625pt" xmlns="http://www.w3.org/2000/svg" xmlns:xlink="http://www.w3.org/1999/xlink">
 <defs>
  <style type="text/css">
*{stroke-linecap:butt;stroke-linejoin:round;}
  </style>
 </defs>
 <g id="figure_1">
  <g id="patch_1">
   <path d="M 0 504.658125 
L 503.355625 504.658125 
L 503.355625 -0 
L 0 -0 
z
" style="fill:#ffffff;"/>
  </g>
  <g id="axes_1">
   <g id="patch_2">
    <path d="M 102.055625 433.16125 
L 492.655625 433.16125 
L 492.655625 52.64125 
L 102.055625 52.64125 
z
" style="fill:#ffffff;"/>
   </g>
   <g id="matplotlib.axis_1">
    <g id="xtick_1">
     <g id="line2d_1">
      <defs>
       <path d="M 0 0 
L 0 3.5 
" id="m35259d8678" style="stroke:#000000;stroke-width:0.8;"/>
      </defs>
      <g>
       <use style="stroke:#000000;stroke-width:0.8;" x="149.40108" xlink:href="#m35259d8678" y="433.16125"/>
      </g>
     </g>
     <g id="text_1">
      <!-- 5 -->
      <defs>
       <path d="M 10.796875 72.90625 
L 49.515625 72.90625 
L 49.515625 64.59375 
L 19.828125 64.59375 
L 19.828125 46.734375 
Q 21.96875 47.46875 24.109375 47.828125 
Q 26.265625 48.1875 28.421875 48.1875 
Q 40.625 48.1875 47.75 41.5 
Q 54.890625 34.8125 54.890625 23.390625 
Q 54.890625 11.625 47.5625 5.09375 
Q 40.234375 -1.421875 26.90625 -1.421875 
Q 22.3125 -1.421875 17.546875 -0.640625 
Q 12.796875 0.140625 7.71875 1.703125 
L 7.71875 11.625 
Q 12.109375 9.234375 16.796875 8.0625 
Q 21.484375 6.890625 26.703125 6.890625 
Q 35.15625 6.890625 40.078125 11.328125 
Q 45.015625 15.765625 45.015625 23.390625 
Q 45.015625 31 40.078125 35.4375 
Q 35.15625 39.890625 26.703125 39.890625 
Q 22.75 39.890625 18.8125 39.015625 
Q 14.890625 38.140625 10.796875 36.28125 
z
" id="DejaVuSans-53"/>
      </defs>
      <g transform="translate(139.85733 462.956562)scale(0.3 -0.3)">
       <use xlink:href="#DejaVuSans-53"/>
      </g>
     </g>
    </g>
    <g id="xtick_2">
     <g id="line2d_2">
      <g>
       <use style="stroke:#000000;stroke-width:0.8;" x="208.582898" xlink:href="#m35259d8678" y="433.16125"/>
      </g>
     </g>
     <g id="text_2">
      <!-- 10 -->
      <defs>
       <path d="M 12.40625 8.296875 
L 28.515625 8.296875 
L 28.515625 63.921875 
L 10.984375 60.40625 
L 10.984375 69.390625 
L 28.421875 72.90625 
L 38.28125 72.90625 
L 38.28125 8.296875 
L 54.390625 8.296875 
L 54.390625 0 
L 12.40625 0 
z
" id="DejaVuSans-49"/>
       <path d="M 31.78125 66.40625 
Q 24.171875 66.40625 20.328125 58.90625 
Q 16.5 51.421875 16.5 36.375 
Q 16.5 21.390625 20.328125 13.890625 
Q 24.171875 6.390625 31.78125 6.390625 
Q 39.453125 6.390625 43.28125 13.890625 
Q 47.125 21.390625 47.125 36.375 
Q 47.125 51.421875 43.28125 58.90625 
Q 39.453125 66.40625 31.78125 66.40625 
z
M 31.78125 74.21875 
Q 44.046875 74.21875 50.515625 64.515625 
Q 56.984375 54.828125 56.984375 36.375 
Q 56.984375 17.96875 50.515625 8.265625 
Q 44.046875 -1.421875 31.78125 -1.421875 
Q 19.53125 -1.421875 13.0625 8.265625 
Q 6.59375 17.96875 6.59375 36.375 
Q 6.59375 54.828125 13.0625 64.515625 
Q 19.53125 74.21875 31.78125 74.21875 
z
" id="DejaVuSans-48"/>
      </defs>
      <g transform="translate(189.495398 462.956562)scale(0.3 -0.3)">
       <use xlink:href="#DejaVuSans-49"/>
       <use x="63.623047" xlink:href="#DejaVuSans-48"/>
      </g>
     </g>
    </g>
    <g id="xtick_3">
     <g id="line2d_3">
      <g>
       <use style="stroke:#000000;stroke-width:0.8;" x="267.764716" xlink:href="#m35259d8678" y="433.16125"/>
      </g>
     </g>
     <g id="text_3">
      <!-- 15 -->
      <g transform="translate(248.677216 462.956562)scale(0.3 -0.3)">
       <use xlink:href="#DejaVuSans-49"/>
       <use x="63.623047" xlink:href="#DejaVuSans-53"/>
      </g>
     </g>
    </g>
    <g id="xtick_4">
     <g id="line2d_4">
      <g>
       <use style="stroke:#000000;stroke-width:0.8;" x="326.946534" xlink:href="#m35259d8678" y="433.16125"/>
      </g>
     </g>
     <g id="text_4">
      <!-- 20 -->
      <defs>
       <path d="M 19.1875 8.296875 
L 53.609375 8.296875 
L 53.609375 0 
L 7.328125 0 
L 7.328125 8.296875 
Q 12.9375 14.109375 22.625 23.890625 
Q 32.328125 33.6875 34.8125 36.53125 
Q 39.546875 41.84375 41.421875 45.53125 
Q 43.3125 49.21875 43.3125 52.78125 
Q 43.3125 58.59375 39.234375 62.25 
Q 35.15625 65.921875 28.609375 65.921875 
Q 23.96875 65.921875 18.8125 64.3125 
Q 13.671875 62.703125 7.8125 59.421875 
L 7.8125 69.390625 
Q 13.765625 71.78125 18.9375 73 
Q 24.125 74.21875 28.421875 74.21875 
Q 39.75 74.21875 46.484375 68.546875 
Q 53.21875 62.890625 53.21875 53.421875 
Q 53.21875 48.921875 51.53125 44.890625 
Q 49.859375 40.875 45.40625 35.40625 
Q 44.1875 33.984375 37.640625 27.21875 
Q 31.109375 20.453125 19.1875 8.296875 
z
" id="DejaVuSans-50"/>
      </defs>
      <g transform="translate(307.859034 462.956562)scale(0.3 -0.3)">
       <use xlink:href="#DejaVuSans-50"/>
       <use x="63.623047" xlink:href="#DejaVuSans-48"/>
      </g>
     </g>
    </g>
    <g id="xtick_5">
     <g id="line2d_5">
      <g>
       <use style="stroke:#000000;stroke-width:0.8;" x="386.128352" xlink:href="#m35259d8678" y="433.16125"/>
      </g>
     </g>
     <g id="text_5">
      <!-- 25 -->
      <g transform="translate(367.040852 462.956562)scale(0.3 -0.3)">
       <use xlink:href="#DejaVuSans-50"/>
       <use x="63.623047" xlink:href="#DejaVuSans-53"/>
      </g>
     </g>
    </g>
    <g id="xtick_6">
     <g id="line2d_6">
      <g>
       <use style="stroke:#000000;stroke-width:0.8;" x="445.31017" xlink:href="#m35259d8678" y="433.16125"/>
      </g>
     </g>
     <g id="text_6">
      <!-- 30 -->
      <defs>
       <path d="M 40.578125 39.3125 
Q 47.65625 37.796875 51.625 33 
Q 55.609375 28.21875 55.609375 21.1875 
Q 55.609375 10.40625 48.1875 4.484375 
Q 40.765625 -1.421875 27.09375 -1.421875 
Q 22.515625 -1.421875 17.65625 -0.515625 
Q 12.796875 0.390625 7.625 2.203125 
L 7.625 11.71875 
Q 11.71875 9.328125 16.59375 8.109375 
Q 21.484375 6.890625 26.8125 6.890625 
Q 36.078125 6.890625 40.9375 10.546875 
Q 45.796875 14.203125 45.796875 21.1875 
Q 45.796875 27.640625 41.28125 31.265625 
Q 36.765625 34.90625 28.71875 34.90625 
L 20.21875 34.90625 
L 20.21875 43.015625 
L 29.109375 43.015625 
Q 36.375 43.015625 40.234375 45.921875 
Q 44.09375 48.828125 44.09375 54.296875 
Q 44.09375 59.90625 40.109375 62.90625 
Q 36.140625 65.921875 28.71875 65.921875 
Q 24.65625 65.921875 20.015625 65.03125 
Q 15.375 64.15625 9.8125 62.3125 
L 9.8125 71.09375 
Q 15.4375 72.65625 20.34375 73.4375 
Q 25.25 74.21875 29.59375 74.21875 
Q 40.828125 74.21875 47.359375 69.109375 
Q 53.90625 64.015625 53.90625 55.328125 
Q 53.90625 49.265625 50.4375 45.09375 
Q 46.96875 40.921875 40.578125 39.3125 
z
" id="DejaVuSans-51"/>
      </defs>
      <g transform="translate(426.22267 462.956562)scale(0.3 -0.3)">
       <use xlink:href="#DejaVuSans-51"/>
       <use x="63.623047" xlink:href="#DejaVuSans-48"/>
      </g>
     </g>
    </g>
    <g id="text_7">
     <!-- RADIUS -->
     <defs>
      <path d="M 7.328125 0 
L 7.328125 71.578125 
L 37.75 71.578125 
Q 49.21875 71.578125 54.421875 69.640625 
Q 59.625 67.71875 62.75 62.78125 
Q 65.875 57.859375 65.875 51.515625 
Q 65.875 43.453125 61.125 38.203125 
Q 56.390625 32.953125 46.96875 31.59375 
Q 51.65625 28.859375 54.703125 25.578125 
Q 57.765625 22.3125 62.9375 13.96875 
L 71.6875 0 
L 54.390625 0 
L 43.953125 15.578125 
Q 38.375 23.921875 36.328125 26.09375 
Q 34.28125 28.265625 31.984375 29.078125 
Q 29.6875 29.890625 24.703125 29.890625 
L 21.78125 29.890625 
L 21.78125 0 
z
M 21.78125 41.3125 
L 32.46875 41.3125 
Q 42.875 41.3125 45.453125 42.1875 
Q 48.046875 43.0625 49.515625 45.203125 
Q 50.984375 47.359375 50.984375 50.59375 
Q 50.984375 54.203125 49.046875 56.421875 
Q 47.125 58.640625 43.609375 59.234375 
Q 41.84375 59.46875 33.0625 59.46875 
L 21.78125 59.46875 
z
" id="Arial-BoldMT-82"/>
      <path d="M 71.828125 0 
L 56.109375 0 
L 49.859375 16.265625 
L 21.234375 16.265625 
L 15.328125 0 
L 0 0 
L 27.875 71.578125 
L 43.171875 71.578125 
z
M 45.21875 28.328125 
L 35.359375 54.890625 
L 25.6875 28.328125 
z
" id="Arial-BoldMT-65"/>
      <path d="M 7.234375 71.578125 
L 33.640625 71.578125 
Q 42.578125 71.578125 47.265625 70.21875 
Q 53.5625 68.359375 58.046875 63.625 
Q 62.546875 58.890625 64.890625 52.03125 
Q 67.234375 45.171875 67.234375 35.109375 
Q 67.234375 26.265625 65.046875 19.875 
Q 62.359375 12.0625 57.375 7.234375 
Q 53.609375 3.5625 47.21875 1.515625 
Q 42.4375 0 34.421875 0 
L 7.234375 0 
z
M 21.6875 59.46875 
L 21.6875 12.0625 
L 32.46875 12.0625 
Q 38.53125 12.0625 41.21875 12.75 
Q 44.734375 13.625 47.046875 15.71875 
Q 49.359375 17.828125 50.828125 22.625 
Q 52.296875 27.4375 52.296875 35.75 
Q 52.296875 44.046875 50.828125 48.484375 
Q 49.359375 52.9375 46.71875 55.421875 
Q 44.09375 57.90625 40.046875 58.796875 
Q 37.015625 59.46875 28.171875 59.46875 
z
" id="Arial-BoldMT-68"/>
      <path d="M 6.84375 0 
L 6.84375 71.578125 
L 21.296875 71.578125 
L 21.296875 0 
z
" id="Arial-BoldMT-73"/>
      <path d="M 7.171875 71.578125 
L 21.625 71.578125 
L 21.625 32.8125 
Q 21.625 23.578125 22.171875 20.84375 
Q 23.09375 16.453125 26.578125 13.796875 
Q 30.078125 11.140625 36.140625 11.140625 
Q 42.28125 11.140625 45.40625 13.640625 
Q 48.53125 16.15625 49.171875 19.8125 
Q 49.8125 23.484375 49.8125 31.984375 
L 49.8125 71.578125 
L 64.265625 71.578125 
L 64.265625 33.984375 
Q 64.265625 21.09375 63.09375 15.765625 
Q 61.921875 10.453125 58.765625 6.78125 
Q 55.609375 3.125 50.328125 0.953125 
Q 45.0625 -1.21875 36.578125 -1.21875 
Q 26.3125 -1.21875 21.015625 1.140625 
Q 15.71875 3.515625 12.640625 7.296875 
Q 9.578125 11.078125 8.59375 15.234375 
Q 7.171875 21.390625 7.171875 33.40625 
z
" id="Arial-BoldMT-85"/>
      <path d="M 3.609375 23.296875 
L 17.671875 24.65625 
Q 18.953125 17.578125 22.828125 14.25 
Q 26.703125 10.9375 33.296875 10.9375 
Q 40.28125 10.9375 43.8125 13.890625 
Q 47.359375 16.84375 47.359375 20.796875 
Q 47.359375 23.34375 45.875 25.125 
Q 44.390625 26.90625 40.671875 28.21875 
Q 38.140625 29.109375 29.109375 31.34375 
Q 17.484375 34.234375 12.796875 38.421875 
Q 6.203125 44.34375 6.203125 52.828125 
Q 6.203125 58.296875 9.296875 63.0625 
Q 12.40625 67.828125 18.234375 70.3125 
Q 24.078125 72.796875 32.328125 72.796875 
Q 45.796875 72.796875 52.609375 66.890625 
Q 59.421875 60.984375 59.765625 51.125 
L 45.3125 50.484375 
Q 44.390625 56 41.328125 58.421875 
Q 38.28125 60.84375 32.171875 60.84375 
Q 25.875 60.84375 22.3125 58.25 
Q 20.015625 56.59375 20.015625 53.8125 
Q 20.015625 51.265625 22.171875 49.46875 
Q 24.90625 47.171875 35.453125 44.671875 
Q 46 42.1875 51.046875 39.515625 
Q 56.109375 36.859375 58.953125 32.25 
Q 61.8125 27.640625 61.8125 20.84375 
Q 61.8125 14.703125 58.390625 9.328125 
Q 54.984375 3.953125 48.734375 1.34375 
Q 42.484375 -1.265625 33.15625 -1.265625 
Q 19.578125 -1.265625 12.296875 5 
Q 5.03125 11.28125 3.609375 23.296875 
z
" id="Arial-BoldMT-83"/>
     </defs>
     <g transform="translate(259.019688 493.51125)scale(0.2 -0.2)">
      <use xlink:href="#Arial-BoldMT-82"/>
      <use x="72.216797" xlink:href="#Arial-BoldMT-65"/>
      <use x="144.433594" xlink:href="#Arial-BoldMT-68"/>
      <use x="216.650391" xlink:href="#Arial-BoldMT-73"/>
      <use x="244.433594" xlink:href="#Arial-BoldMT-85"/>
      <use x="316.650391" xlink:href="#Arial-BoldMT-83"/>
     </g>
    </g>
   </g>
   <g id="matplotlib.axis_2">
    <g id="ytick_1">
     <g id="line2d_7">
      <defs>
       <path d="M 0 0 
L -3.5 0 
" id="mfc04cf42ad" style="stroke:#000000;stroke-width:0.8;"/>
      </defs>
      <g>
       <use style="stroke:#000000;stroke-width:0.8;" x="102.055625" xlink:href="#mfc04cf42ad" y="433.16125"/>
      </g>
     </g>
     <g id="text_8">
      <!-- 0 -->
      <g transform="translate(75.968125 444.558906)scale(0.3 -0.3)">
       <use xlink:href="#DejaVuSans-48"/>
      </g>
     </g>
    </g>
    <g id="ytick_2">
     <g id="line2d_8">
      <g>
       <use style="stroke:#000000;stroke-width:0.8;" x="102.055625" xlink:href="#mfc04cf42ad" y="369.74125"/>
      </g>
     </g>
     <g id="text_9">
      <!-- 5 -->
      <g transform="translate(75.968125 381.138906)scale(0.3 -0.3)">
       <use xlink:href="#DejaVuSans-53"/>
      </g>
     </g>
    </g>
    <g id="ytick_3">
     <g id="line2d_9">
      <g>
       <use style="stroke:#000000;stroke-width:0.8;" x="102.055625" xlink:href="#mfc04cf42ad" y="306.32125"/>
      </g>
     </g>
     <g id="text_10">
      <!-- 10 -->
      <g transform="translate(56.880625 317.718906)scale(0.3 -0.3)">
       <use xlink:href="#DejaVuSans-49"/>
       <use x="63.623047" xlink:href="#DejaVuSans-48"/>
      </g>
     </g>
    </g>
    <g id="ytick_4">
     <g id="line2d_10">
      <g>
       <use style="stroke:#000000;stroke-width:0.8;" x="102.055625" xlink:href="#mfc04cf42ad" y="242.90125"/>
      </g>
     </g>
     <g id="text_11">
      <!-- 15 -->
      <g transform="translate(56.880625 254.298906)scale(0.3 -0.3)">
       <use xlink:href="#DejaVuSans-49"/>
       <use x="63.623047" xlink:href="#DejaVuSans-53"/>
      </g>
     </g>
    </g>
    <g id="ytick_5">
     <g id="line2d_11">
      <g>
       <use style="stroke:#000000;stroke-width:0.8;" x="102.055625" xlink:href="#mfc04cf42ad" y="179.48125"/>
      </g>
     </g>
     <g id="text_12">
      <!-- 20 -->
      <g transform="translate(56.880625 190.878906)scale(0.3 -0.3)">
       <use xlink:href="#DejaVuSans-50"/>
       <use x="63.623047" xlink:href="#DejaVuSans-48"/>
      </g>
     </g>
    </g>
    <g id="ytick_6">
     <g id="line2d_12">
      <g>
       <use style="stroke:#000000;stroke-width:0.8;" x="102.055625" xlink:href="#mfc04cf42ad" y="116.06125"/>
      </g>
     </g>
     <g id="text_13">
      <!-- 25 -->
      <g transform="translate(56.880625 127.458906)scale(0.3 -0.3)">
       <use xlink:href="#DejaVuSans-50"/>
       <use x="63.623047" xlink:href="#DejaVuSans-53"/>
      </g>
     </g>
    </g>
    <g id="ytick_7">
     <g id="line2d_13">
      <g>
       <use style="stroke:#000000;stroke-width:0.8;" x="102.055625" xlink:href="#mfc04cf42ad" y="52.64125"/>
      </g>
     </g>
     <g id="text_14">
      <!-- 30 -->
      <g transform="translate(56.880625 64.038906)scale(0.3 -0.3)">
       <use xlink:href="#DejaVuSans-51"/>
       <use x="63.623047" xlink:href="#DejaVuSans-48"/>
      </g>
     </g>
    </g>
    <g id="text_15">
     <!-- CD8 LIVE NORMALIZED -->
     <defs>
      <path d="M 53.078125 26.3125 
L 67.09375 21.875 
Q 63.875 10.15625 56.375 4.46875 
Q 48.875 -1.21875 37.359375 -1.21875 
Q 23.09375 -1.21875 13.90625 8.515625 
Q 4.734375 18.265625 4.734375 35.15625 
Q 4.734375 53.03125 13.953125 62.90625 
Q 23.1875 72.796875 38.234375 72.796875 
Q 51.375 72.796875 59.578125 65.046875 
Q 64.453125 60.453125 66.890625 51.859375 
L 52.59375 48.4375 
Q 51.3125 54 47.28125 57.21875 
Q 43.265625 60.453125 37.5 60.453125 
Q 29.546875 60.453125 24.578125 54.734375 
Q 19.625 49.03125 19.625 36.234375 
Q 19.625 22.65625 24.5 16.890625 
Q 29.390625 11.140625 37.203125 11.140625 
Q 42.96875 11.140625 47.109375 14.796875 
Q 51.265625 18.453125 53.078125 26.3125 
z
" id="Arial-BoldMT-67"/>
      <path d="M 16.015625 38.625 
Q 10.6875 40.875 8.265625 44.796875 
Q 5.859375 48.734375 5.859375 53.421875 
Q 5.859375 61.421875 11.453125 66.640625 
Q 17.046875 71.875 27.34375 71.875 
Q 37.546875 71.875 43.1875 66.640625 
Q 48.828125 61.421875 48.828125 53.421875 
Q 48.828125 48.4375 46.234375 44.546875 
Q 43.65625 40.671875 38.96875 38.625 
Q 44.921875 36.234375 48.015625 31.640625 
Q 51.125 27.046875 51.125 21.046875 
Q 51.125 11.140625 44.796875 4.9375 
Q 38.484375 -1.265625 27.984375 -1.265625 
Q 18.21875 -1.265625 11.71875 3.859375 
Q 4.046875 9.90625 4.046875 20.453125 
Q 4.046875 26.265625 6.921875 31.125 
Q 9.8125 35.984375 16.015625 38.625 
z
M 18.84375 52.4375 
Q 18.84375 48.34375 21.15625 46.046875 
Q 23.484375 43.75 27.34375 43.75 
Q 31.25 43.75 33.59375 46.0625 
Q 35.9375 48.390625 35.9375 52.484375 
Q 35.9375 56.34375 33.609375 58.65625 
Q 31.296875 60.984375 27.484375 60.984375 
Q 23.53125 60.984375 21.1875 58.640625 
Q 18.84375 56.296875 18.84375 52.4375 
z
M 17.578125 21.78125 
Q 17.578125 16.109375 20.484375 12.9375 
Q 23.390625 9.765625 27.734375 9.765625 
Q 31.984375 9.765625 34.765625 12.8125 
Q 37.546875 15.875 37.546875 21.625 
Q 37.546875 26.65625 34.71875 29.703125 
Q 31.890625 32.765625 27.546875 32.765625 
Q 22.515625 32.765625 20.046875 29.296875 
Q 17.578125 25.828125 17.578125 21.78125 
z
" id="Arial-BoldMT-56"/>
      <path id="Arial-BoldMT-32"/>
      <path d="M 7.671875 0 
L 7.671875 71 
L 22.125 71 
L 22.125 12.0625 
L 58.0625 12.0625 
L 58.0625 0 
z
" id="Arial-BoldMT-76"/>
      <path d="M 25.53125 0 
L -0.046875 71.578125 
L 15.625 71.578125 
L 33.734375 18.609375 
L 51.265625 71.578125 
L 66.609375 71.578125 
L 40.96875 0 
z
" id="Arial-BoldMT-86"/>
      <path d="M 7.28125 0 
L 7.28125 71.578125 
L 60.359375 71.578125 
L 60.359375 59.46875 
L 21.734375 59.46875 
L 21.734375 43.609375 
L 57.671875 43.609375 
L 57.671875 31.546875 
L 21.734375 31.546875 
L 21.734375 12.0625 
L 61.71875 12.0625 
L 61.71875 0 
z
" id="Arial-BoldMT-69"/>
      <path d="M 7.421875 0 
L 7.421875 71.578125 
L 21.484375 71.578125 
L 50.78125 23.78125 
L 50.78125 71.578125 
L 64.203125 71.578125 
L 64.203125 0 
L 49.703125 0 
L 20.84375 46.6875 
L 20.84375 0 
z
" id="Arial-BoldMT-78"/>
      <path d="M 4.34375 35.359375 
Q 4.34375 46.296875 7.625 53.71875 
Q 10.0625 59.1875 14.28125 63.53125 
Q 18.5 67.875 23.53125 69.96875 
Q 30.21875 72.796875 38.96875 72.796875 
Q 54.78125 72.796875 64.28125 62.984375 
Q 73.78125 53.171875 73.78125 35.6875 
Q 73.78125 18.359375 64.359375 8.5625 
Q 54.9375 -1.21875 39.15625 -1.21875 
Q 23.1875 -1.21875 13.765625 8.515625 
Q 4.34375 18.265625 4.34375 35.359375 
z
M 19.234375 35.84375 
Q 19.234375 23.6875 24.84375 17.40625 
Q 30.46875 11.140625 39.109375 11.140625 
Q 47.75 11.140625 53.296875 17.359375 
Q 58.84375 23.578125 58.84375 36.03125 
Q 58.84375 48.34375 53.4375 54.390625 
Q 48.046875 60.453125 39.109375 60.453125 
Q 30.171875 60.453125 24.703125 54.3125 
Q 19.234375 48.1875 19.234375 35.84375 
z
" id="Arial-BoldMT-79"/>
      <path d="M 7.078125 0 
L 7.078125 71.578125 
L 28.71875 71.578125 
L 41.703125 22.75 
L 54.546875 71.578125 
L 76.21875 71.578125 
L 76.21875 0 
L 62.796875 0 
L 62.796875 56.34375 
L 48.578125 0 
L 34.671875 0 
L 20.515625 56.34375 
L 20.515625 0 
z
" id="Arial-BoldMT-77"/>
      <path d="M 1.078125 0 
L 1.078125 13.03125 
L 38.671875 59.46875 
L 5.328125 59.46875 
L 5.328125 71.578125 
L 57.71875 71.578125 
L 57.71875 60.359375 
L 18.5 12.0625 
L 59.234375 12.0625 
L 59.234375 0 
z
" id="Arial-BoldMT-90"/>
     </defs>
     <g transform="translate(21.253125 357.348125)rotate(-90)scale(0.2 -0.2)">
      <use xlink:href="#Arial-BoldMT-67"/>
      <use x="72.216797" xlink:href="#Arial-BoldMT-68"/>
      <use x="144.433594" xlink:href="#Arial-BoldMT-56"/>
      <use x="200.048828" xlink:href="#Arial-BoldMT-32"/>
      <use x="227.832031" xlink:href="#Arial-BoldMT-76"/>
      <use x="288.916016" xlink:href="#Arial-BoldMT-73"/>
      <use x="316.699219" xlink:href="#Arial-BoldMT-86"/>
      <use x="383.398438" xlink:href="#Arial-BoldMT-69"/>
      <use x="450.097656" xlink:href="#Arial-BoldMT-32"/>
      <use x="477.880859" xlink:href="#Arial-BoldMT-78"/>
      <use x="550.097656" xlink:href="#Arial-BoldMT-79"/>
      <use x="627.880859" xlink:href="#Arial-BoldMT-82"/>
      <use x="700.097656" xlink:href="#Arial-BoldMT-77"/>
      <use x="783.398438" xlink:href="#Arial-BoldMT-65"/>
      <use x="855.615234" xlink:href="#Arial-BoldMT-76"/>
      <use x="916.699219" xlink:href="#Arial-BoldMT-73"/>
      <use x="944.482422" xlink:href="#Arial-BoldMT-90"/>
      <use x="1005.566406" xlink:href="#Arial-BoldMT-69"/>
      <use x="1072.265625" xlink:href="#Arial-BoldMT-68"/>
     </g>
     <!-- CELL COUNTS (NUMBERS) -->
     <defs>
      <path d="M 23.390625 0 
L 23.390625 59.46875 
L 2.15625 59.46875 
L 2.15625 71.578125 
L 59.03125 71.578125 
L 59.03125 59.46875 
L 37.84375 59.46875 
L 37.84375 0 
z
" id="Arial-BoldMT-84"/>
      <path d="M 29.9375 -21.046875 
L 20.515625 -21.046875 
Q 13.03125 -9.765625 9.125 2.390625 
Q 5.21875 14.546875 5.21875 25.921875 
Q 5.21875 40.046875 10.0625 52.640625 
Q 14.265625 63.578125 20.703125 72.796875 
L 30.078125 72.796875 
Q 23.390625 58.015625 20.875 47.625 
Q 18.359375 37.25 18.359375 25.640625 
Q 18.359375 17.625 19.84375 9.21875 
Q 21.34375 0.828125 23.921875 -6.734375 
Q 25.640625 -11.71875 29.9375 -21.046875 
z
" id="Arial-BoldMT-40"/>
      <path d="M 7.328125 71.578125 
L 35.9375 71.578125 
Q 44.4375 71.578125 48.609375 70.875 
Q 52.78125 70.171875 56.078125 67.921875 
Q 59.375 65.671875 61.5625 61.9375 
Q 63.765625 58.203125 63.765625 53.5625 
Q 63.765625 48.53125 61.046875 44.328125 
Q 58.34375 40.140625 53.71875 38.03125 
Q 60.25 36.140625 63.765625 31.546875 
Q 67.28125 26.953125 67.28125 20.75 
Q 67.28125 15.875 65.015625 11.25 
Q 62.75 6.640625 58.8125 3.875 
Q 54.890625 1.125 49.125 0.484375 
Q 45.515625 0.09375 31.6875 0 
L 7.328125 0 
z
M 21.78125 59.671875 
L 21.78125 43.109375 
L 31.25 43.109375 
Q 39.703125 43.109375 41.75 43.359375 
Q 45.453125 43.796875 47.578125 45.921875 
Q 49.703125 48.046875 49.703125 51.515625 
Q 49.703125 54.828125 47.875 56.90625 
Q 46.046875 58.984375 42.4375 59.421875 
Q 40.28125 59.671875 30.078125 59.671875 
z
M 21.78125 31.203125 
L 21.78125 12.0625 
L 35.15625 12.0625 
Q 42.96875 12.0625 45.0625 12.5 
Q 48.296875 13.09375 50.3125 15.359375 
Q 52.34375 17.625 52.34375 21.4375 
Q 52.34375 24.65625 50.78125 26.90625 
Q 49.21875 29.15625 46.265625 30.171875 
Q 43.3125 31.203125 33.453125 31.203125 
z
" id="Arial-BoldMT-66"/>
      <path d="M 3.375 -21.046875 
Q 7.421875 -12.359375 9.078125 -7.71875 
Q 10.75 -3.078125 12.15625 2.96875 
Q 13.578125 9.03125 14.25 14.46875 
Q 14.9375 19.921875 14.9375 25.640625 
Q 14.9375 37.25 12.453125 47.625 
Q 9.96875 58.015625 3.265625 72.796875 
L 12.59375 72.796875 
Q 19.96875 62.3125 24.046875 50.53125 
Q 28.125 38.765625 28.125 26.65625 
Q 28.125 16.453125 24.90625 4.78125 
Q 21.234375 -8.296875 12.84375 -21.046875 
z
" id="Arial-BoldMT-41"/>
     </defs>
     <g transform="translate(42.67125 374.002812)rotate(-90)scale(0.2 -0.2)">
      <use xlink:href="#Arial-BoldMT-67"/>
      <use x="72.216797" xlink:href="#Arial-BoldMT-69"/>
      <use x="138.916016" xlink:href="#Arial-BoldMT-76"/>
      <use x="200" xlink:href="#Arial-BoldMT-76"/>
      <use x="261.068359" xlink:href="#Arial-BoldMT-32"/>
      <use x="288.851562" xlink:href="#Arial-BoldMT-67"/>
      <use x="361.068359" xlink:href="#Arial-BoldMT-79"/>
      <use x="438.851562" xlink:href="#Arial-BoldMT-85"/>
      <use x="511.068359" xlink:href="#Arial-BoldMT-78"/>
      <use x="583.285156" xlink:href="#Arial-BoldMT-84"/>
      <use x="644.369141" xlink:href="#Arial-BoldMT-83"/>
      <use x="711.068359" xlink:href="#Arial-BoldMT-32"/>
      <use x="738.851562" xlink:href="#Arial-BoldMT-40"/>
      <use x="772.152344" xlink:href="#Arial-BoldMT-78"/>
      <use x="844.369141" xlink:href="#Arial-BoldMT-85"/>
      <use x="916.585938" xlink:href="#Arial-BoldMT-77"/>
      <use x="999.886719" xlink:href="#Arial-BoldMT-66"/>
      <use x="1072.103516" xlink:href="#Arial-BoldMT-69"/>
      <use x="1138.802734" xlink:href="#Arial-BoldMT-82"/>
      <use x="1211.019531" xlink:href="#Arial-BoldMT-83"/>
      <use x="1277.71875" xlink:href="#Arial-BoldMT-41"/>
     </g>
    </g>
   </g>
   <g id="line2d_14">
    <path clip-path="url(#p2c0758a24f)" d="M 102.055625 306.32125 
L 113.891989 278.83925 
L 125.728352 265.09825 
L 137.564716 235.854583 
L 149.40108 205.37775 
L 161.237443 217.11045 
L 173.073807 258.75625 
L 184.91017 281.85925 
L 196.746534 288.35225 
L 208.582898 283.06725 
L 220.419261 292.79165 
L 232.255625 279.607977 
L 244.091989 260.165583 
L 255.928352 255.58525 
L 267.764716 237.31425 
L 279.60108 237.545783 
L 291.437443 250.168125 
L 303.273807 254.963485 
L 315.11017 256.172472 
L 326.946534 257.921776 
L 338.782898 258.86195 
L 350.619261 251.65925 
L 362.455625 275.66825 
L 374.291989 277.000989 
L 386.128352 285.269333 
L 397.964716 289.74749 
L 409.80108 294.369019 
L 421.637443 292.697694 
L 433.473807 288.57875 
L 445.31017 295.824147 
L 457.146534 306.814517 
L 468.982898 311.70854 
L 480.819261 317.1555 
L 492.655625 304.975977 
" style="fill:none;stroke:#08306b;stroke-linecap:square;stroke-width:1.5;"/>
   </g>
   <g id="line2d_15">
    <path clip-path="url(#p2c0758a24f)" d="M 102.055625 230.21725 
L 113.891989 247.12925 
L 125.728352 220.70425 
L 137.564716 211.895917 
L 149.40108 276.72525 
L 161.237443 323.65605 
L 173.073807 323.937917 
L 184.91017 312.05925 
L 196.746534 313.456 
L 208.582898 289.174361 
L 220.419261 287.92945 
L 232.255625 276.340886 
L 244.091989 242.196583 
L 255.928352 241.600327 
L 267.764716 245.92125 
L 279.60108 256.85365 
L 291.437443 278.83925 
L 303.273807 283.689015 
L 315.11017 284.12425 
L 326.946534 273.498618 
L 338.782898 275.03405 
L 350.619261 281.154583 
L 362.455625 272.977705 
L 374.291989 270.199424 
L 386.128352 268.621583 
L 397.964716 272.15901 
L 409.80108 273.391635 
L 421.637443 276.09888 
L 433.473807 280.50025 
L 445.31017 290.794284 
L 457.146534 282.292117 
L 468.982898 295.137508 
L 480.819261 294.43 
L 492.655625 291.843553 
" style="fill:none;stroke:#08306b;stroke-linecap:square;stroke-width:1.5;"/>
   </g>
   <g id="line2d_16">
    <path clip-path="url(#p2c0758a24f)" d="M 102.055625 420.47725 
L 113.891989 369.74125 
L 125.728352 329.57525 
L 137.564716 295.046583 
L 149.40108 279.89625 
L 161.237443 252.62565 
L 173.073807 233.38825 
L 184.91017 232.02925 
L 196.746534 232.33125 
L 208.582898 273.906583 
L 220.419261 273.97705 
L 232.255625 283.259432 
L 244.091989 277.077583 
L 255.928352 278.188788 
L 267.764716 277.78225 
L 279.60108 279.26205 
L 291.437443 274.347 
L 303.273807 279.709721 
L 315.11017 294.811694 
L 326.946534 299.97925 
L 338.782898 299.55645 
L 350.619261 295.75125 
L 362.455625 282.01025 
L 374.291989 278.931163 
L 386.128352 280.248583 
L 397.964716 273.93477 
L 409.80108 258.593635 
L 421.637443 256.055028 
L 433.473807 257.39725 
L 445.31017 270.529043 
L 457.146534 272.779117 
L 468.982898 284.22654 
L 480.819261 294.297875 
L 492.655625 294.598159 
" style="fill:none;stroke:#08306b;stroke-linecap:square;stroke-width:1.5;"/>
   </g>
   <g id="line2d_17">
    <path clip-path="url(#p2c0758a24f)" d="M 102.055625 230.21725 
L 113.891989 270.38325 
L 125.728352 266.15525 
L 137.564716 264.04125 
L 149.40108 248.71475 
L 161.237443 247.55205 
L 173.073807 265.802917 
L 184.91017 243.80725 
L 196.746534 251.093 
L 208.582898 279.074139 
L 220.419261 284.54705 
L 232.255625 285.373432 
L 244.091989 282.714917 
L 255.928352 282.904635 
L 267.764716 273.10125 
L 279.60108 266.437117 
L 291.437443 254.52825 
L 303.273807 256.704426 
L 315.11017 249.125806 
L 326.946534 252.136092 
L 338.782898 271.33455 
L 350.619261 279.543917 
L 362.455625 280.95325 
L 374.291989 284.629772 
L 386.128352 267.916917 
L 397.964716 274.61125 
L 409.80108 262.252481 
L 421.637443 269.913472 
L 433.473807 281.40625 
L 445.31017 282.046698 
L 457.146534 283.27865 
L 468.982898 297.933444 
L 480.819261 307.047937 
L 492.655625 314.713189 
" style="fill:none;stroke:#08306b;stroke-linecap:square;stroke-width:1.5;"/>
   </g>
   <g id="line2d_18">
    <path clip-path="url(#p2c0758a24f)" d="M 102.055625 319.00525 
L 113.891989 327.46125 
L 125.728352 257.69925 
L 137.564716 284.476583 
L 149.40108 285.18125 
L 161.237443 273.34285 
L 173.073807 274.258917 
L 184.91017 304.20725 
L 196.746534 305.5285 
L 208.582898 318.535472 
L 220.419261 303.15025 
L 232.255625 281.145432 
L 244.091989 274.258917 
L 255.928352 270.871096 
L 267.764716 251.50825 
L 279.60108 230.780983 
L 291.437443 238.9375 
L 303.273807 239.668074 
L 315.11017 266.742472 
L 326.946534 270.605776 
L 338.782898 299.45075 
L 350.619261 318.803917 
L 362.455625 326.212068 
L 374.291989 312.203685 
L 386.128352 295.575083 
L 397.964716 284.75845 
L 409.80108 265.342173 
L 421.637443 260.596213 
L 433.473807 251.20625 
L 445.31017 266.446836 
L 457.146534 275.104517 
L 468.982898 302.911573 
L 480.819261 319.930125 
L 492.655625 305.936886 
" style="fill:none;stroke:#08306b;stroke-linecap:square;stroke-width:1.5;"/>
   </g>
   <g id="line2d_19">
    <path clip-path="url(#p2c0758a24f)" d="M 102.055625 166.79725 
L 113.891989 154.11325 
L 125.728352 146.71425 
L 137.564716 188.641917 
L 149.40108 246.07225 
L 161.237443 266.57805 
L 173.073807 293.989583 
L 184.91017 303.60325 
L 196.746534 306.057 
L 208.582898 282.127694 
L 220.419261 263.82985 
L 232.255625 235.213977 
L 244.091989 254.352083 
L 255.928352 268.594481 
L 267.764716 270.83625 
L 279.60108 270.80605 
L 291.437443 255.453125 
L 303.273807 257.201838 
L 315.11017 252.649139 
L 326.946534 277.949145 
L 338.782898 279.47345 
L 350.619261 286.288583 
L 362.455625 294.117705 
L 374.291989 299.519685 
L 386.128352 293.813417 
L 397.964716 300.57117 
L 409.80108 289.002712 
L 421.637443 305.929769 
L 433.473807 296.95925 
L 445.31017 281.317733 
L 457.146534 273.836117 
L 468.982898 260.290605 
L 480.819261 261.332687 
L 492.655625 262.631917 
" style="fill:none;stroke:#08306b;stroke-linecap:square;stroke-width:1.5;"/>
   </g>
   <g id="line2d_20">
    <path clip-path="url(#p2c0758a24f)" d="M 102.055625 90.69325 
L 113.891989 166.79725 
L 125.728352 224.93225 
L 137.564716 212.600583 
L 149.40108 250.30025 
L 161.237443 275.03405 
L 173.073807 289.40925 
L 184.91017 284.27525 
L 196.746534 294.9585 
L 208.582898 290.348806 
L 220.419261 290.67765 
L 232.255625 296.135614 
L 244.091989 296.103583 
L 255.928352 291.52325 
L 267.764716 279.44325 
L 279.60108 261.222583 
L 291.437443 252.282125 
L 303.273807 242.403838 
L 315.11017 243.136139 
L 326.946534 259.034408 
L 338.782898 274.82265 
L 350.619261 270.68525 
L 362.455625 281.145432 
L 374.291989 275.714207 
L 386.128352 285.18125 
L 397.964716 293.38357 
L 409.80108 279.977558 
L 421.637443 284.633176 
L 433.473807 290.84375 
L 445.31017 292.179319 
L 457.146534 292.79165 
L 468.982898 300.592992 
L 480.819261 287.955875 
L 492.655625 293.829432 
" style="fill:none;stroke:#08306b;stroke-linecap:square;stroke-width:1.5;"/>
   </g>
   <g id="line2d_21">
    <path clip-path="url(#p2c0758a24f)" d="M 102.055625 217.53325 
L 113.891989 293.63725 
L 125.728352 290.46625 
L 137.564716 259.81325 
L 149.40108 235.50225 
L 161.237443 212.03685 
L 173.073807 193.574583 
L 184.91017 166.49525 
L 196.746534 210.66275 
L 208.582898 272.262361 
L 220.419261 279.68485 
L 232.255625 268.845795 
L 244.091989 285.005083 
L 255.928352 296.401712 
L 267.764716 293.63725 
L 279.60108 283.630983 
L 291.437443 288.88075 
L 303.273807 287.792662 
L 315.11017 272.144917 
L 326.946534 266.266513 
L 338.782898 268.48065 
L 350.619261 271.389917 
L 362.455625 290.946705 
L 374.291989 294.188728 
L 386.128352 284.917 
L 397.964716 280.27677 
L 409.80108 281.197173 
L 421.637443 289.644139 
L 433.473807 303.52775 
L 445.31017 307.196009 
L 457.146534 301.529517 
L 468.982898 308.026089 
L 480.819261 304.339375 
L 492.655625 294.72628 
" style="fill:none;stroke:#08306b;stroke-linecap:square;stroke-width:1.5;"/>
   </g>
   <g id="line2d_22">
    <path clip-path="url(#p2c0758a24f)" d="M 102.055625 344.37325 
L 113.891989 333.80325 
L 125.728352 348.60125 
L 137.564716 323.23325 
L 149.40108 295.75125 
L 161.237443 277.14805 
L 173.073807 281.305583 
L 184.91017 295.75125 
L 196.746534 303.4145 
L 208.582898 286.355694 
L 220.419261 275.03405 
L 232.255625 294.598159 
L 244.091989 295.046583 
L 255.928352 286.807404 
L 267.764716 284.87925 
L 279.60108 290.25485 
L 291.437443 290.46625 
L 303.273807 277.098309 
L 315.11017 292.345361 
L 326.946534 289.520513 
L 338.782898 293.32015 
L 350.619261 275.617917 
L 362.455625 259.332795 
L 374.291989 277.64438 
L 386.128352 282.450667 
L 397.964716 278.24733 
L 409.80108 273.391635 
L 421.637443 265.215694 
L 433.473807 273.47875 
L 445.31017 278.037388 
L 457.146534 271.933517 
L 468.982898 281.976153 
L 480.819261 292.448125 
L 492.655625 282.298523 
" style="fill:none;stroke:#08306b;stroke-linecap:square;stroke-width:1.5;"/>
   </g>
   <g id="line2d_23">
    <path clip-path="url(#p2c0758a24f)" d="M 102.055625 344.37325 
L 113.891989 350.71525 
L 125.728352 313.72025 
L 137.564716 345.077917 
L 149.40108 332.74625 
L 161.237443 310.12645 
L 173.073807 272.849583 
L 184.91017 276.42325 
L 196.746534 285.4455 
L 208.582898 258.403917 
L 220.419261 244.38105 
L 232.255625 267.692705 
L 244.091989 260.517917 
L 255.928352 265.667404 
L 267.764716 275.81925 
L 279.60108 283.630983 
L 291.437443 305.396375 
L 303.273807 298.860074 
L 315.11017 274.728694 
L 326.946534 260.814618 
L 338.782898 248.08055 
L 350.619261 250.954583 
L 362.455625 250.780705 
L 374.291989 258.250728 
L 386.128352 274.963583 
L 397.964716 295.75125 
L 409.80108 305.182942 
L 421.637443 298.256731 
L 433.473807 282.46325 
L 445.31017 270.893526 
L 457.146534 271.158383 
L 468.982898 288.045379 
L 480.819261 299.252562 
L 492.655625 303.18228 
" style="fill:none;stroke:#08306b;stroke-linecap:square;stroke-width:1.5;"/>
   </g>
   <g id="line2d_24">
    <path clip-path="url(#p2c0758a24f)" d="M 102.055625 382.42525 
L 113.891989 314.77725 
L 125.728352 277.78225 
L 137.564716 247.833917 
L 149.40108 248.71475 
L 161.237443 256.00805 
L 173.073807 276.020583 
L 184.91017 294.54325 
L 196.746534 305 
L 208.582898 303.032806 
L 220.419261 299.34505 
L 232.255625 298.633977 
L 244.091989 285.357417 
L 255.928352 288.270942 
L 267.764716 277.48025 
L 279.60108 274.329383 
L 291.437443 293.9015 
L 303.273807 307.191721 
L 315.11017 314.190028 
L 326.946534 321.675566 
L 338.782898 327.77835 
L 350.619261 310.649917 
L 362.455625 299.402705 
L 374.291989 295.567424 
L 386.128352 294.43 
L 397.964716 299.81013 
L 409.80108 318.192173 
L 421.637443 313.837694 
L 433.473807 314.70175 
L 445.31017 323.379043 
L 457.146534 328.236383 
L 468.982898 324.938089 
L 480.819261 329.641312 
L 492.655625 327.076886 
" style="fill:none;stroke:#4a98c9;stroke-linecap:square;stroke-width:1.5;"/>
   </g>
   <g id="line2d_25">
    <path clip-path="url(#p2c0758a24f)" d="M 102.055625 280.95325 
L 113.891989 268.26925 
L 125.728352 287.29525 
L 137.564716 273.906583 
L 149.40108 300.50775 
L 161.237443 305.05285 
L 173.073807 331.336917 
L 184.91017 345.88325 
L 196.746534 355.736 
L 208.582898 355.413028 
L 220.419261 352.61785 
L 232.255625 309.011795 
L 244.091989 280.777083 
L 255.928352 259.975865 
L 267.764716 248.79025 
L 279.60108 252.061917 
L 291.437443 278.178625 
L 303.273807 291.647603 
L 315.11017 308.670139 
L 326.946534 309.992934 
L 338.782898 336.12865 
L 350.619261 313.166583 
L 362.455625 310.933614 
L 374.291989 300.346902 
L 386.128352 306.761667 
L 397.964716 312.15589 
L 409.80108 311.443635 
L 421.637443 319.475028 
L 433.473807 308.43525 
L 445.31017 312.736147 
L 457.146534 307.519183 
L 468.982898 313.072411 
L 480.819261 324.884812 
L 492.655625 335.661008 
" style="fill:none;stroke:#4a98c9;stroke-linecap:square;stroke-width:1.5;"/>
   </g>
   <g id="line2d_26">
    <path clip-path="url(#p2c0758a24f)" d="M 102.055625 433.16125 
L 113.891989 401.45125 
L 125.728352 348.60125 
L 137.564716 304.20725 
L 149.40108 280.42475 
L 161.237443 241.21005 
L 173.073807 264.393583 
L 184.91017 259.51125 
L 196.746534 255.58525 
L 208.582898 284.006806 
L 220.419261 286.44965 
L 232.255625 316.506886 
L 244.091989 306.497417 
L 255.928352 318.029558 
L 267.764716 309.49225 
L 279.60108 321.401117 
L 291.437443 311.07775 
L 303.273807 309.678779 
L 315.11017 315.599361 
L 326.946534 315.778618 
L 338.782898 309.28085 
L 350.619261 315.582583 
L 362.455625 306.417341 
L 374.291989 305.218293 
L 386.128352 304.559583 
L 397.964716 299.04909 
L 409.80108 290.791481 
L 421.637443 296.064435 
L 433.473807 304.58475 
L 445.31017 305.519388 
L 457.146534 317.10265 
L 468.982898 319.141637 
L 480.819261 322.506562 
L 492.655625 325.539432 
" style="fill:none;stroke:#4a98c9;stroke-linecap:square;stroke-width:1.5;"/>
   </g>
   <g id="line2d_27">
    <path clip-path="url(#p2c0758a24f)" d="M 102.055625 280.95325 
L 113.891989 247.12925 
L 125.728352 292.58025 
L 137.564716 307.025917 
L 149.40108 248.71475 
L 161.237443 243.74685 
L 173.073807 258.403917 
L 184.91017 252.26325 
L 196.746534 274.8755 
L 208.582898 290.113917 
L 220.419261 293.42585 
L 232.255625 290.370159 
L 244.091989 289.585417 
L 255.928352 295.426019 
L 267.764716 300.88525 
L 279.60108 316.04565 
L 291.437443 299.45075 
L 303.273807 299.606191 
L 315.11017 290.348806 
L 326.946534 286.182618 
L 338.782898 271.44025 
L 350.619261 266.255917 
L 362.455625 270.191068 
L 374.291989 269.18838 
L 386.128352 276.284833 
L 397.964716 277.31717 
L 409.80108 287.376558 
L 421.637443 298.961398 
L 433.473807 317.11775 
L 445.31017 325.784629 
L 457.146534 325.629117 
L 468.982898 325.279056 
L 480.819261 327.98975 
L 492.655625 339.632765 
" style="fill:none;stroke:#4a98c9;stroke-linecap:square;stroke-width:1.5;"/>
   </g>
   <g id="line2d_28">
    <path clip-path="url(#p2c0758a24f)" d="M 102.055625 192.16525 
L 113.891989 253.47125 
L 125.728352 276.72525 
L 137.564716 285.18125 
L 149.40108 262.45575 
L 161.237443 266.15525 
L 173.073807 292.58025 
L 184.91017 290.31525 
L 196.746534 310.02075 
L 208.582898 317.830806 
L 220.419261 320.69645 
L 232.255625 325.539432 
L 244.091989 311.430083 
L 255.928352 295.75125 
L 267.764716 285.18125 
L 279.60108 273.76565 
L 291.437443 278.83925 
L 303.273807 273.616426 
L 315.11017 275.903139 
L 326.946534 290.299355 
L 338.782898 313.19175 
L 350.619261 321.018583 
L 362.455625 332.361886 
L 374.291989 329.299511 
L 386.128352 333.450917 
L 397.964716 314.10077 
L 409.80108 295.588635 
L 421.637443 288.078213 
L 433.473807 283.67125 
L 445.31017 289.700836 
L 457.146534 297.583383 
L 468.982898 307.071379 
L 480.819261 322.17625 
L 492.655625 334.315735 
" style="fill:none;stroke:#4a98c9;stroke-linecap:square;stroke-width:1.5;"/>
   </g>
   <g id="line2d_29">
    <path clip-path="url(#p2c0758a24f)" d="M 102.055625 268.26925 
L 113.891989 264.04125 
L 125.728352 232.33125 
L 137.564716 240.78725 
L 149.40108 305.26425 
L 161.237443 303.36165 
L 173.073807 307.730583 
L 184.91017 319.00525 
L 196.746534 312.13475 
L 208.582898 323.23325 
L 220.419261 300.19065 
L 232.255625 297.096523 
L 244.091989 297.512917 
L 255.928352 284.856019 
L 267.764716 286.84225 
L 279.60108 277.57085 
L 291.437443 272.893625 
L 303.273807 267.150074 
L 315.11017 272.732139 
L 326.946534 275.167566 
L 338.782898 265.52105 
L 350.619261 278.83925 
L 362.455625 286.718705 
L 374.291989 308.067598 
L 386.128352 319.709917 
L 397.964716 332.78853 
L 409.80108 329.981788 
L 421.637443 335.29088 
L 433.473807 334.63375 
L 445.31017 325.055664 
L 457.146534 309.28085 
L 468.982898 292.409766 
L 480.819261 278.971375 
L 492.655625 283.323492 
" style="fill:none;stroke:#4a98c9;stroke-linecap:square;stroke-width:1.5;"/>
   </g>
   <g id="line2d_30">
    <path clip-path="url(#p2c0758a24f)" d="M 102.055625 141.42925 
L 113.891989 240.78725 
L 125.728352 273.55425 
L 137.564716 307.730583 
L 149.40108 326.40425 
L 161.237443 318.15965 
L 173.073807 305.616583 
L 184.91017 288.80525 
L 196.746534 291.52325 
L 208.582898 293.872139 
L 220.419261 296.59685 
L 232.255625 322.656705 
L 244.091989 318.300583 
L 255.928352 311.850173 
L 267.764716 301.18725 
L 279.60108 290.395783 
L 291.437443 293.10875 
L 303.273807 285.554309 
L 315.11017 286.120806 
L 326.946534 277.949145 
L 338.782898 286.66105 
L 350.619261 290.91925 
L 362.455625 300.171432 
L 374.291989 307.056554 
L 386.128352 312.399 
L 397.964716 308.94261 
L 409.80108 303.394173 
L 421.637443 294.341917 
L 433.473807 298.46925 
L 445.31017 298.229733 
L 457.146534 303.220717 
L 468.982898 304.889185 
L 480.819261 299.45075 
L 492.655625 304.591614 
" style="fill:none;stroke:#4a98c9;stroke-linecap:square;stroke-width:1.5;"/>
   </g>
   <g id="line2d_31">
    <path clip-path="url(#p2c0758a24f)" d="M 102.055625 255.58525 
L 113.891989 278.83925 
L 125.728352 249.24325 
L 137.564716 245.01525 
L 149.40108 214.36225 
L 161.237443 228.94885 
L 173.073807 227.398583 
L 184.91017 224.47925 
L 196.746534 256.64225 
L 208.582898 258.638806 
L 220.419261 262.13865 
L 232.255625 252.894705 
L 244.091989 268.621583 
L 255.928352 284.693404 
L 267.764716 294.24125 
L 279.60108 299.697383 
L 291.437443 295.75125 
L 303.273807 274.735603 
L 315.11017 260.165583 
L 326.946534 249.799566 
L 338.782898 269.32625 
L 350.619261 264.745917 
L 362.455625 288.544432 
L 374.291989 293.821076 
L 386.128352 305.440417 
L 397.964716 305.64477 
L 409.80108 312.338019 
L 421.637443 311.880287 
L 433.473807 316.13625 
L 445.31017 317.547319 
L 457.146534 317.595917 
L 468.982898 317.300411 
L 480.819261 313.786312 
L 492.655625 317.019371 
" style="fill:none;stroke:#4a98c9;stroke-linecap:square;stroke-width:1.5;"/>
   </g>
   <g id="line2d_32">
    <path clip-path="url(#p2c0758a24f)" d="M 102.055625 357.05725 
L 113.891989 329.57525 
L 125.728352 334.86025 
L 137.564716 342.963917 
L 149.40108 351.77225 
L 161.237443 325.34725 
L 173.073807 331.68925 
L 184.91017 310.85125 
L 196.746534 301.829 
L 208.582898 313.133028 
L 220.419261 306.74405 
L 232.255625 322.272341 
L 244.091989 300.50775 
L 255.928352 303.719404 
L 267.764716 290.01325 
L 279.60108 297.583383 
L 291.437443 314.909375 
L 303.273807 310.176191 
L 315.11017 307.495694 
L 326.946534 299.089145 
L 338.782898 291.41755 
L 350.619261 283.570583 
L 362.455625 269.518432 
L 374.291989 276.72525 
L 386.128352 272.849583 
L 397.964716 279.17749 
L 409.80108 288.027019 
L 421.637443 289.330954 
L 433.473807 283.44475 
L 445.31017 290.284009 
L 457.146534 289.83205 
L 468.982898 293.705444 
L 480.819261 289.871687 
L 492.655625 294.790341 
" style="fill:none;stroke:#4a98c9;stroke-linecap:square;stroke-width:1.5;"/>
   </g>
   <g id="line2d_33">
    <path clip-path="url(#p2c0758a24f)" d="M 102.055625 420.47725 
L 113.891989 424.70525 
L 125.728352 414.13525 
L 137.564716 387.357917 
L 149.40108 357.58575 
L 161.237443 317.73685 
L 173.073807 302.09325 
L 184.91017 283.67125 
L 196.746534 292.316 
L 208.582898 282.597472 
L 220.419261 277.78225 
L 232.255625 286.526523 
L 244.091989 276.901417 
L 255.928352 280.302788 
L 267.764716 274.61125 
L 279.60108 285.60405 
L 291.437443 300.904125 
L 303.273807 304.20725 
L 315.11017 307.730583 
L 326.946534 300.758092 
L 338.782898 279.89625 
L 350.619261 273.302583 
L 362.455625 292.099795 
L 374.291989 294.55638 
L 386.128352 296.103583 
L 397.964716 298.03437 
L 409.80108 296.564327 
L 421.637443 292.697694 
L 433.473807 294.61875 
L 445.31017 290.721388 
L 457.146534 295.680783 
L 468.982898 297.728863 
L 480.819261 297.468875 
L 492.655625 305.488462 
" style="fill:none;stroke:#4a98c9;stroke-linecap:square;stroke-width:1.5;"/>
   </g>
   <g id="line2d_34">
    <path clip-path="url(#p2c0758a24f)" d="M 102.055625 369.74125 
L 113.891989 416.24925 
L 125.728352 398.28025 
L 137.564716 386.65325 
L 149.40108 386.65325 
L 161.237443 373.96925 
L 173.073807 382.42525 
L 184.91017 379.40525 
L 196.746534 387.71025 
L 208.582898 383.834583 
L 220.419261 386.23045 
L 232.255625 381.272159 
L 244.091989 373.088417 
L 255.928352 381.612173 
L 267.764716 382.27425 
L 279.60108 376.50605 
L 291.437443 375.951125 
L 303.273807 383.668779 
L 315.11017 382.895028 
L 326.946534 379.643671 
L 338.782898 386.86465 
L 350.619261 384.337917 
L 362.455625 372.527886 
L 374.291989 367.351511 
L 386.128352 354.94325 
L 397.964716 361.70805 
L 409.80108 364.293635 
L 421.637443 372.325028 
L 433.473807 372.83675 
L 445.31017 386.799043 
L 457.146534 383.48225 
L 468.982898 382.152476 
L 480.819261 380.5755 
L 492.655625 381.656523 
" style="fill:none;stroke:#d0e1f2;stroke-linecap:square;stroke-width:1.5;"/>
   </g>
   <g id="line2d_35">
    <path clip-path="url(#p2c0758a24f)" d="M 102.055625 433.16125 
L 113.891989 416.24925 
L 125.728352 395.10925 
L 137.564716 395.813917 
L 149.40108 388.23875 
L 161.237443 386.23045 
L 173.073807 393.347583 
L 184.91017 386.65325 
L 196.746534 401.187 
L 208.582898 397.693028 
L 220.419261 394.05225 
L 232.255625 374.161432 
L 244.091989 352.653083 
L 255.928352 366.001096 
L 267.764716 363.70125 
L 279.60108 369.74125 
L 291.437443 373.572875 
L 303.273807 375.585838 
L 315.11017 382.072917 
L 326.946534 380.088724 
L 338.782898 376.92885 
L 350.619261 379.908583 
L 362.455625 377.236341 
L 374.291989 385.45838 
L 386.128352 383.041833 
L 397.964716 382.00245 
L 409.80108 379.904712 
L 421.637443 381.642287 
L 433.473807 385.89825 
L 445.31017 386.142974 
L 457.146534 382.284317 
L 468.982898 379.492927 
L 480.819261 372.846187 
L 492.655625 376.659795 
" style="fill:none;stroke:#d0e1f2;stroke-linecap:square;stroke-width:1.5;"/>
   </g>
   <g id="line2d_36">
    <path clip-path="url(#p2c0758a24f)" d="M 102.055625 433.16125 
L 113.891989 380.31125 
L 125.728352 370.79825 
L 137.564716 385.243917 
L 149.40108 375.55475 
L 161.237443 387.07605 
L 173.073807 388.062583 
L 184.91017 374.27125 
L 196.746534 387.18175 
L 208.582898 381.015917 
L 220.419261 377.56305 
L 232.255625 377.812886 
L 244.091989 369.036583 
L 255.928352 376.08325 
L 267.764716 378.19725 
L 279.60108 387.49885 
L 291.437443 384.142875 
L 303.273807 388.021132 
L 315.11017 387.357917 
L 326.946534 374.414303 
L 338.782898 382.74235 
L 350.619261 387.659917 
L 362.455625 390.88125 
L 374.291989 385.274554 
L 386.128352 386.477083 
L 397.964716 386.06133 
L 409.80108 378.603788 
L 421.637443 374.673917 
L 433.473807 375.17725 
L 445.31017 371.85525 
L 457.146534 358.11425 
L 468.982898 361.558024 
L 480.819261 362.408312 
L 492.655625 374.097371 
" style="fill:none;stroke:#d0e1f2;stroke-linecap:square;stroke-width:1.5;"/>
   </g>
   <g id="line2d_37">
    <path clip-path="url(#p2c0758a24f)" d="M 102.055625 382.42525 
L 113.891989 405.67925 
L 125.728352 385.59625 
L 137.564716 406.383917 
L 149.40108 389.82425 
L 161.237443 387.07605 
L 173.073807 389.119583 
L 184.91017 364.30525 
L 196.746534 371.0625 
L 208.582898 379.606583 
L 220.419261 390.03565 
L 232.255625 392.034341 
L 244.091989 393.876083 
L 255.928352 378.847712 
L 267.764716 367.47625 
L 279.60108 373.54645 
L 291.437443 352.168625 
L 303.273807 360.787838 
L 315.11017 363.869028 
L 326.946534 368.072303 
L 338.782898 375.76615 
L 350.619261 366.11725 
L 362.455625 369.260795 
L 374.291989 371.303772 
L 386.128352 369.036583 
L 397.964716 377.01341 
L 409.80108 379.498173 
L 421.637443 382.660139 
L 433.473807 376.00775 
L 445.31017 375.208491 
L 457.146534 368.543317 
L 468.982898 374.037444 
L 480.819261 368.353937 
L 492.655625 373.648947 
" style="fill:none;stroke:#d0e1f2;stroke-linecap:square;stroke-width:1.5;"/>
   </g>
   <g id="line2d_38">
    <path clip-path="url(#p2c0758a24f)" d="M 102.055625 357.05725 
L 113.891989 403.56525 
L 125.728352 389.82425 
L 137.564716 382.42525 
L 149.40108 390.88125 
L 161.237443 396.37765 
L 173.073807 397.22325 
L 184.91017 396.61925 
L 196.746534 395.902 
L 208.582898 394.639472 
L 220.419261 393.84085 
L 232.255625 397.799795 
L 244.091989 401.098917 
L 255.928352 389.092481 
L 267.764716 386.65325 
L 279.60108 378.338183 
L 291.437443 358.907 
L 303.273807 358.673838 
L 315.11017 355.060694 
L 326.946534 363.287987 
L 338.782898 370.26975 
L 350.619261 382.42525 
L 362.455625 393.860068 
L 374.291989 393.638641 
L 386.128352 391.497833 
L 397.964716 392.99525 
L 409.80108 387.71025 
L 421.637443 384.147769 
L 433.473807 378.04625 
L 445.31017 378.41594 
L 457.146534 366.99305 
L 468.982898 360.603315 
L 480.819261 360.426437 
L 492.655625 369.869371 
" style="fill:none;stroke:#d0e1f2;stroke-linecap:square;stroke-width:1.5;"/>
   </g>
   <g id="line2d_39">
    <path clip-path="url(#p2c0758a24f)" d="M 102.055625 420.47725 
L 113.891989 424.70525 
L 125.728352 394.05225 
L 137.564716 389.471917 
L 149.40108 404.09375 
L 161.237443 395.10925 
L 173.073807 391.233583 
L 184.91017 399.33725 
L 196.746534 386.12475 
L 208.582898 392.290583 
L 220.419261 366.57025 
L 232.255625 358.979068 
L 244.091989 362.166083 
L 255.928352 379.660788 
L 267.764716 376.98925 
L 279.60108 379.183783 
L 291.437443 371.458875 
L 303.273807 372.974426 
L 315.11017 367.62725 
L 326.946534 375.860724 
L 338.782898 373.12365 
L 350.619261 381.317917 
L 362.455625 378.005068 
L 374.291989 384.171598 
L 386.128352 379.078083 
L 397.964716 386.39957 
L 409.80108 382.343942 
L 421.637443 384.695843 
L 433.473807 381.59475 
L 445.31017 379.582284 
L 457.146534 369.95265 
L 468.982898 360.398734 
L 480.819261 351.640125 
L 492.655625 364.48828 
" style="fill:none;stroke:#d0e1f2;stroke-linecap:square;stroke-width:1.5;"/>
   </g>
   <g id="line2d_40">
    <path clip-path="url(#p2c0758a24f)" d="M 102.055625 433.16125 
L 113.891989 401.45125 
L 125.728352 383.48225 
L 137.564716 380.31125 
L 149.40108 394.05225 
L 161.237443 402.29685 
L 173.073807 400.041917 
L 184.91017 393.90125 
L 196.746534 398.28025 
L 208.582898 384.304361 
L 220.419261 366.78165 
L 232.255625 370.125614 
L 244.091989 357.233417 
L 255.928352 366.976788 
L 267.764716 374.87525 
L 279.60108 375.378583 
L 291.437443 391.277625 
L 303.273807 381.306074 
L 315.11017 368.801694 
L 326.946534 370.186303 
L 338.782898 377.14025 
L 350.619261 368.53325 
L 362.455625 375.794977 
L 374.291989 375.531772 
L 386.128352 378.373417 
L 397.964716 387.83709 
L 409.80108 385.840173 
L 421.637443 387.671102 
L 433.473807 382.80275 
L 445.31017 384.174767 
L 457.146534 376.224183 
L 468.982898 375.605895 
L 480.819261 369.080625 
L 492.655625 376.916038 
" style="fill:none;stroke:#d0e1f2;stroke-linecap:square;stroke-width:1.5;"/>
   </g>
   <g id="line2d_41">
    <path clip-path="url(#p2c0758a24f)" d="M 102.055625 433.16125 
L 113.891989 409.90725 
L 125.728352 382.42525 
L 137.564716 376.787917 
L 149.40108 370.79825 
L 161.237443 372.27805 
L 173.073807 357.409583 
L 184.91017 360.07725 
L 196.746534 359.17125 
L 208.582898 365.51325 
L 220.419261 374.39205 
L 232.255625 363.783614 
L 244.091989 379.606583 
L 255.928352 378.847712 
L 267.764716 375.02625 
L 279.60108 380.593117 
L 291.437443 371.987375 
L 303.273807 371.730897 
L 315.11017 379.371694 
L 326.946534 376.862092 
L 338.782898 373.75785 
L 350.619261 381.116583 
L 362.455625 388.478977 
L 374.291989 386.285598 
L 386.128352 384.275 
L 397.964716 382.34069 
L 409.80108 383.400942 
L 421.637443 383.599694 
L 433.473807 382.87825 
L 445.31017 384.32056 
L 457.146534 381.086383 
L 468.982898 375.264927 
L 480.819261 360.360375 
L 492.655625 369.356886 
" style="fill:none;stroke:#d0e1f2;stroke-linecap:square;stroke-width:1.5;"/>
   </g>
   <g id="line2d_42">
    <path clip-path="url(#p2c0758a24f)" d="M 102.055625 433.16125 
L 113.891989 426.81925 
L 125.728352 414.13525 
L 137.564716 416.24925 
L 149.40108 405.15075 
L 161.237443 375.23765 
L 173.073807 374.673917 
L 184.91017 344.97725 
L 196.746534 354.94325 
L 208.582898 367.157472 
L 220.419261 378.19725 
L 232.255625 375.122341 
L 244.091989 379.078083 
L 255.928352 385.514942 
L 267.764716 388.31425 
L 279.60108 384.821117 
L 291.437443 383.218 
L 303.273807 382.176544 
L 315.11017 377.962361 
L 326.946534 375.415671 
L 338.782898 375.55475 
L 350.619261 373.465917 
L 362.455625 369.549068 
L 374.291989 369.005946 
L 386.128352 371.502917 
L 397.964716 381.32597 
L 409.80108 384.53925 
L 421.637443 385.16562 
L 433.473807 384.69025 
L 445.31017 381.550491 
L 457.146534 378.267717 
L 468.982898 369.604863 
L 480.819261 360.954937 
L 492.655625 365.897614 
" style="fill:none;stroke:#d0e1f2;stroke-linecap:square;stroke-width:1.5;"/>
   </g>
   <g id="line2d_43">
    <path clip-path="url(#p2c0758a24f)" d="M 102.055625 407.79325 
L 113.891989 416.24925 
L 125.728352 410.96425 
L 137.564716 414.839917 
L 149.40108 413.60675 
L 161.237443 401.87405 
L 173.073807 370.093583 
L 184.91017 360.68125 
L 196.746534 353.0935 
L 208.582898 364.338806 
L 220.419261 364.87905 
L 232.255625 366.281977 
L 244.091989 369.388917 
L 255.928352 379.335558 
L 267.764716 384.38825 
L 279.60108 388.34445 
L 291.437443 389.56 
L 303.273807 385.782779 
L 315.11017 382.542694 
L 326.946534 382.091461 
L 338.782898 384.96205 
L 350.619261 371.754583 
L 362.455625 376.179341 
L 374.291989 377.645772 
L 386.128352 381.544417 
L 397.964716 382.00245 
L 409.80108 385.352327 
L 421.637443 382.42525 
L 433.473807 385.59625 
L 445.31017 375.500078 
L 457.146534 371.784783 
L 468.982898 361.898992 
L 480.819261 365.843562 
L 492.655625 371.663068 
" style="fill:none;stroke:#d0e1f2;stroke-linecap:square;stroke-width:1.5;"/>
   </g>
   <g id="line2d_44">
    <path clip-path="url(#p2c0758a24f)" d="M 102.055625 395.10925 
L 113.891989 371.85525 
L 125.728352 271.44025 
L 137.564716 290.113917 
L 149.40108 273.02575 
L 161.237443 242.90125 
L 173.073807 252.061917 
L 184.91017 272.49725 
L 196.746534 290.202 
L 208.582898 315.012139 
L 220.419261 320.90785 
L 232.255625 308.243068 
L 244.091989 296.632083 
L 255.928352 289.571865 
L 267.764716 260.26625 
L 279.60108 253.612183 
L 291.437443 264.56975 
L 303.273807 279.461015 
L 315.11017 277.312472 
L 326.946534 275.723882 
L 338.782898 272.70865 
L 350.619261 262.933917 
L 362.455625 273.842523 
L 374.291989 279.390728 
L 386.128352 274.523167 
L 397.964716 280.53045 
L 409.80108 289.327942 
L 421.637443 291.210065 
L 433.473807 284.87925 
L 445.31017 291.669043 
L 457.146534 295.96265 
L 468.982898 303.457121 
L 480.819261 320.722875 
L 492.655625 318.684947 
" style="fill:none;stroke:#1764ab;stroke-linecap:square;stroke-width:1.5;"/>
   </g>
   <g id="line2d_45">
    <path clip-path="url(#p2c0758a24f)" d="M 102.055625 357.05725 
L 113.891989 340.14525 
L 125.728352 272.49725 
L 137.564716 263.336583 
L 149.40108 309.49225 
L 161.237443 316.89125 
L 173.073807 334.155583 
L 184.91017 321.42125 
L 196.746534 313.72025 
L 208.582898 299.039694 
L 220.419261 290.88905 
L 232.255625 281.337614 
L 244.091989 257.875417 
L 255.928352 239.648942 
L 267.764716 230.97225 
L 279.60108 236.98205 
L 291.437443 258.492 
L 303.273807 258.818426 
L 315.11017 261.692361 
L 326.946534 266.266513 
L 338.782898 287.82375 
L 350.619261 289.40925 
L 362.455625 284.316432 
L 374.291989 270.842815 
L 386.128352 289.40925 
L 397.964716 287.54893 
L 409.80108 284.205558 
L 421.637443 284.868065 
L 433.473807 290.01325 
L 445.31017 303.696974 
L 457.146534 315.975183 
L 468.982898 316.141121 
L 480.819261 313.19175 
L 492.655625 321.631735 
" style="fill:none;stroke:#1764ab;stroke-linecap:square;stroke-width:1.5;"/>
   </g>
   <g id="line2d_46">
    <path clip-path="url(#p2c0758a24f)" d="M 102.055625 369.74125 
L 113.891989 312.66325 
L 125.728352 325.34725 
L 137.564716 290.113917 
L 149.40108 290.46625 
L 161.237443 271.22885 
L 173.073807 267.21225 
L 184.91017 277.93325 
L 196.746534 269.062 
L 208.582898 248.068806 
L 220.419261 242.90125 
L 232.255625 262.311614 
L 244.091989 256.818417 
L 255.928352 284.205558 
L 267.764716 278.83925 
L 279.60108 282.926317 
L 291.437443 275.007625 
L 303.273807 293.63725 
L 315.11017 290.348806 
L 326.946534 289.297987 
L 338.782898 289.09215 
L 350.619261 286.791917 
L 362.455625 289.024886 
L 374.291989 286.927598 
L 386.128352 297.601 
L 397.964716 299.72557 
L 409.80108 284.449481 
L 421.637443 279.935398 
L 433.473807 275.29075 
L 445.31017 278.766353 
L 457.146534 273.97705 
L 468.982898 282.794476 
L 480.819261 295.949437 
L 492.655625 296.84028 
" style="fill:none;stroke:#1764ab;stroke-linecap:square;stroke-width:1.5;"/>
   </g>
   <g id="line2d_47">
    <path clip-path="url(#p2c0758a24f)" d="M 102.055625 357.05725 
L 113.891989 378.19725 
L 125.728352 334.86025 
L 137.564716 301.388583 
L 149.40108 273.55425 
L 161.237443 248.82045 
L 173.073807 258.051583 
L 184.91017 246.52525 
L 196.746534 268.26925 
L 208.582898 303.737472 
L 220.419261 324.07885 
L 232.255625 318.620886 
L 244.091989 309.316083 
L 255.928352 285.994327 
L 267.764716 257.24625 
L 279.60108 263.61845 
L 291.437443 247.12925 
L 303.273807 245.637015 
L 315.11017 264.276139 
L 326.946534 264.152513 
L 338.782898 260.55315 
L 350.619261 244.008583 
L 362.455625 248.570614 
L 374.291989 244.739511 
L 386.128352 254.616333 
L 397.964716 272.66637 
L 409.80108 275.993481 
L 421.637443 287.138657 
L 433.473807 290.61725 
L 445.31017 290.356905 
L 457.146534 296.59685 
L 468.982898 308.708024 
L 480.819261 303.282375 
L 492.655625 306.961856 
" style="fill:none;stroke:#1764ab;stroke-linecap:square;stroke-width:1.5;"/>
   </g>
   <g id="line2d_48">
    <path clip-path="url(#p2c0758a24f)" d="M 102.055625 166.79725 
L 113.891989 257.69925 
L 125.728352 256.64225 
L 137.564716 275.315917 
L 149.40108 251.35725 
L 161.237443 275.03405 
L 173.073807 282.01025 
L 184.91017 307.52925 
L 196.746534 318.741 
L 208.582898 311.019028 
L 220.419261 320.90785 
L 232.255625 294.405977 
L 244.091989 303.15025 
L 255.928352 284.693404 
L 267.764716 266.60825 
L 279.60108 268.410183 
L 291.437443 255.981625 
L 303.273807 259.191485 
L 315.11017 267.799472 
L 326.946534 274.499987 
L 338.782898 285.49835 
L 350.619261 300.784583 
L 362.455625 311.221886 
L 374.291989 310.54925 
L 386.128352 305.616583 
L 397.964716 285.68861 
L 409.80108 273.716865 
L 421.637443 277.116731 
L 433.473807 272.27075 
L 445.31017 268.633733 
L 457.146534 270.80605 
L 468.982898 277.134411 
L 480.819261 291.853562 
L 492.655625 289.601432 
" style="fill:none;stroke:#1764ab;stroke-linecap:square;stroke-width:1.5;"/>
   </g>
   <g id="line2d_49">
    <path clip-path="url(#p2c0758a24f)" d="M 102.055625 280.95325 
L 113.891989 249.24325 
L 125.728352 250.30025 
L 137.564716 219.64725 
L 149.40108 251.88575 
L 161.237443 229.79445 
L 173.073807 262.631917 
L 184.91017 306.32125 
L 196.746534 328.51825 
L 208.582898 312.66325 
L 220.419261 300.19065 
L 232.255625 280.184523 
L 244.091989 282.186417 
L 255.928352 261.764635 
L 267.764716 261.77625 
L 279.60108 255.16245 
L 291.437443 262.1915 
L 303.273807 277.222662 
L 315.11017 274.024028 
L 326.946534 284.624934 
L 338.782898 284.33565 
L 350.619261 283.06725 
L 362.455625 280.95325 
L 374.291989 295.843163 
L 386.128352 294.16575 
L 397.964716 305.05285 
L 409.80108 303.719404 
L 421.637443 304.050657 
L 433.473807 293.71275 
L 445.31017 299.468974 
L 457.146534 290.607183 
L 468.982898 274.202089 
L 480.819261 275.536125 
L 492.655625 270.575432 
" style="fill:none;stroke:#1764ab;stroke-linecap:square;stroke-width:1.5;"/>
   </g>
   <g id="line2d_50">
    <path clip-path="url(#p2c0758a24f)" d="M 102.055625 154.11325 
L 113.891989 245.01525 
L 125.728352 269.32625 
L 137.564716 268.26925 
L 149.40108 288.88075 
L 161.237443 291.10045 
L 173.073807 311.958583 
L 184.91017 316.28725 
L 196.746534 313.456 
L 208.582898 276.960139 
L 220.419261 280.53045 
L 232.255625 286.526523 
L 244.091989 275.13975 
L 255.928352 273.635558 
L 267.764716 287.29525 
L 279.60108 294.48285 
L 291.437443 287.163125 
L 303.273807 286.424779 
L 315.11017 269.091361 
L 326.946534 255.140197 
L 338.782898 258.33345 
L 350.619261 255.182583 
L 362.455625 266.923977 
L 374.291989 255.58525 
L 386.128352 261.1345 
L 397.964716 272.83549 
L 409.80108 279.652327 
L 421.637443 295.281472 
L 433.473807 296.80825 
L 445.31017 296.698905 
L 457.146534 289.761583 
L 468.982898 284.703895 
L 480.819261 271.043875 
L 492.655625 281.657917 
" style="fill:none;stroke:#1764ab;stroke-linecap:square;stroke-width:1.5;"/>
   </g>
   <g id="line2d_51">
    <path clip-path="url(#p2c0758a24f)" d="M 102.055625 217.53325 
L 113.891989 251.35725 
L 125.728352 247.12925 
L 137.564716 225.284583 
L 149.40108 213.30525 
L 161.237443 238.67325 
L 173.073807 235.50225 
L 184.91017 210.28525 
L 196.746534 222.28975 
L 208.582898 264.745917 
L 220.419261 258.12205 
L 232.255625 256.738341 
L 244.091989 263.51275 
L 255.928352 273.147712 
L 267.764716 290.31525 
L 279.60108 301.811383 
L 291.437443 301.696875 
L 303.273807 308.932662 
L 315.11017 291.640694 
L 326.946534 278.060408 
L 338.782898 285.07555 
L 350.619261 294.643917 
L 362.455625 304.111159 
L 374.291989 304.20725 
L 386.128352 283.155333 
L 397.964716 275.37229 
L 409.80108 270.38325 
L 421.637443 281.736213 
L 433.473807 286.76675 
L 445.31017 300.781112 
L 457.146534 305.89845 
L 468.982898 307.957895 
L 480.819261 303.348437 
L 492.655625 296.327795 
" style="fill:none;stroke:#1764ab;stroke-linecap:square;stroke-width:1.5;"/>
   </g>
   <g id="line2d_52">
    <path clip-path="url(#p2c0758a24f)" d="M 102.055625 382.42525 
L 113.891989 338.03125 
L 125.728352 368.68425 
L 137.564716 362.694583 
L 149.40108 370.26975 
L 161.237443 348.60125 
L 173.073807 342.25925 
L 184.91017 323.23325 
L 196.746534 311.07775 
L 208.582898 321.823917 
L 220.419261 291.73465 
L 232.255625 312.278886 
L 244.091989 306.497417 
L 255.928352 298.678327 
L 267.764716 291.22125 
L 279.60108 307.58965 
L 291.437443 291.259 
L 303.273807 282.072426 
L 315.11017 279.309028 
L 326.946534 283.512303 
L 338.782898 285.81545 
L 350.619261 278.033917 
L 362.455625 282.586795 
L 374.291989 283.894467 
L 386.128352 286.23825 
L 397.964716 293.21445 
L 409.80108 296.970865 
L 421.637443 293.715546 
L 433.473807 296.20425 
L 445.31017 285.39994 
L 457.146534 278.064117 
L 468.982898 276.179702 
L 480.819261 280.622937 
L 492.655625 281.914159 
" style="fill:none;stroke:#1764ab;stroke-linecap:square;stroke-width:1.5;"/>
   </g>
   <g id="line2d_53">
    <path clip-path="url(#p2c0758a24f)" d="M 102.055625 331.68925 
L 113.891989 340.14525 
L 125.728352 354.94325 
L 137.564716 348.60125 
L 149.40108 326.93275 
L 161.237443 312.66325 
L 173.073807 301.740917 
L 184.91017 270.08125 
L 196.746534 283.59575 
L 208.582898 242.90125 
L 220.419261 240.36445 
L 232.255625 264.233432 
L 244.091989 289.93775 
L 255.928352 297.377404 
L 267.764716 280.80225 
L 279.60108 293.21445 
L 291.437443 289.277125 
L 303.273807 293.512897 
L 315.11017 280.835806 
L 326.946534 269.270618 
L 338.782898 270.06615 
L 350.619261 261.121917 
L 362.455625 264.425614 
L 374.291989 263.581685 
L 386.128352 280.95325 
L 397.964716 301.16309 
L 409.80108 297.458712 
L 421.637443 290.505398 
L 433.473807 283.36925 
L 445.31017 278.401871 
L 457.146534 277.852717 
L 468.982898 285.044863 
L 480.819261 290.003812 
L 492.655625 293.445068 
" style="fill:none;stroke:#1764ab;stroke-linecap:square;stroke-width:1.5;"/>
   </g>
   <g id="line2d_54">
    <path clip-path="url(#p2c0758a24f)" d="M 102.055625 433.16125 
L 113.891989 386.65325 
L 125.728352 359.17125 
L 137.564716 339.440583 
L 149.40108 285.70975 
L 161.237443 298.28805 
L 173.073807 299.626917 
L 184.91017 335.01125 
L 196.746534 330.368 
L 208.582898 326.286806 
L 220.419261 334.86025 
L 232.255625 333.034523 
L 244.091989 312.487083 
L 255.928352 316.89125 
L 267.764716 300.88525 
L 279.60108 307.871517 
L 291.437443 301.961125 
L 303.273807 314.652897 
L 315.11017 327.931028 
L 326.946534 341.035355 
L 338.782898 337.81985 
L 350.619261 336.017917 
L 362.455625 332.74625 
L 374.291989 334.99812 
L 386.128352 336.269583 
L 397.964716 342.93573 
L 409.80108 344.129327 
L 421.637443 339.440583 
L 433.473807 341.88175 
L 445.31017 355.016147 
L 457.146534 347.12145 
L 468.982898 339.463315 
L 480.819261 344.769625 
L 492.655625 343.540462 
" style="fill:none;stroke:#94c4df;stroke-linecap:square;stroke-width:1.5;"/>
   </g>
   <g id="line2d_55">
    <path clip-path="url(#p2c0758a24f)" d="M 102.055625 420.47725 
L 113.891989 418.36325 
L 125.728352 383.48225 
L 137.564716 386.65325 
L 149.40108 393.52375 
L 161.237443 389.61285 
L 173.073807 378.901917 
L 184.91017 353.73525 
L 196.746534 347.8085 
L 208.582898 344.37325 
L 220.419261 325.55865 
L 232.255625 297.480886 
L 244.091989 271.96875 
L 255.928352 284.205558 
L 267.764716 295.14725 
L 279.60108 295.610317 
L 291.437443 314.116625 
L 303.273807 324.725485 
L 315.11017 326.286806 
L 326.946534 329.241461 
L 338.782898 338.03125 
L 350.619261 326.655917 
L 362.455625 331.785341 
L 374.291989 324.060467 
L 386.128352 335.036417 
L 397.964716 336.00181 
L 409.80108 329.981788 
L 421.637443 329.262065 
L 433.473807 331.53825 
L 445.31017 335.771457 
L 457.146534 340.849917 
L 468.982898 350.783444 
L 480.819261 342.919875 
L 492.655625 357.313492 
" style="fill:none;stroke:#94c4df;stroke-linecap:square;stroke-width:1.5;"/>
   </g>
   <g id="line2d_56">
    <path clip-path="url(#p2c0758a24f)" d="M 102.055625 433.16125 
L 113.891989 405.67925 
L 125.728352 359.17125 
L 137.564716 278.134583 
L 149.40108 318.47675 
L 161.237443 279.26205 
L 173.073807 292.58025 
L 184.91017 290.31525 
L 196.746534 301.03625 
L 208.582898 318.535472 
L 220.419261 339.08825 
L 232.255625 348.024705 
L 244.091989 343.84475 
L 255.928352 348.438635 
L 267.764716 347.39325 
L 279.60108 348.319383 
L 291.437443 336.44575 
L 303.273807 337.533838 
L 315.11017 336.387028 
L 326.946534 333.358197 
L 338.782898 335.70585 
L 350.619261 335.91725 
L 362.455625 340.14525 
L 374.291989 338.03125 
L 386.128352 342.699667 
L 397.964716 346.31813 
L 409.80108 338.437788 
L 421.637443 335.447472 
L 433.473807 329.04675 
L 445.31017 325.711733 
L 457.146534 326.474717 
L 468.982898 322.551315 
L 480.819261 320.987125 
L 492.655625 337.454705 
" style="fill:none;stroke:#94c4df;stroke-linecap:square;stroke-width:1.5;"/>
   </g>
   <g id="line2d_57">
    <path clip-path="url(#p2c0758a24f)" d="M 102.055625 255.58525 
L 113.891989 369.74125 
L 125.728352 351.77225 
L 137.564716 355.647917 
L 149.40108 321.11925 
L 161.237443 314.77725 
L 173.073807 318.652917 
L 184.91017 317.79725 
L 196.746534 310.8135 
L 208.582898 349.305917 
L 220.419261 367.62725 
L 232.255625 357.825977 
L 244.091989 356.176417 
L 255.928352 334.778942 
L 267.764716 331.53825 
L 279.60108 330.42085 
L 291.437443 323.893875 
L 303.273807 328.580426 
L 315.11017 322.058806 
L 326.946534 320.562934 
L 338.782898 321.22495 
L 350.619261 321.521917 
L 362.455625 334.764159 
L 374.291989 334.078989 
L 386.128352 333.186667 
L 397.964716 329.82893 
L 409.80108 323.395865 
L 421.637443 332.785398 
L 433.473807 331.23625 
L 445.31017 336.427526 
L 457.146534 345.782583 
L 468.982898 330.870927 
L 480.819261 336.577875 
L 492.655625 347.896583 
" style="fill:none;stroke:#94c4df;stroke-linecap:square;stroke-width:1.5;"/>
   </g>
   <g id="line2d_58">
    <path clip-path="url(#p2c0758a24f)" d="M 102.055625 154.11325 
L 113.891989 230.21725 
L 125.728352 223.87525 
L 137.564716 248.538583 
L 149.40108 287.82375 
L 161.237443 324.07885 
L 173.073807 347.54425 
L 184.91017 372.15725 
L 196.746534 367.363 
L 208.582898 352.594361 
L 220.419261 333.38045 
L 232.255625 325.539432 
L 244.091989 315.30575 
L 255.928352 316.240788 
L 267.764716 303.45225 
L 279.60108 303.643517 
L 291.437443 319.798 
L 303.273807 313.906779 
L 315.11017 319.592472 
L 326.946534 322.676934 
L 338.782898 334.96595 
L 350.619261 340.44725 
L 362.455625 345.43025 
L 374.291989 331.321598 
L 386.128352 334.33175 
L 397.964716 328.72965 
L 409.80108 311.362327 
L 421.637443 310.940731 
L 433.473807 310.77575 
L 445.31017 317.474422 
L 457.146534 330.84365 
L 468.982898 343.145766 
L 480.819261 346.355125 
L 492.655625 365.449189 
" style="fill:none;stroke:#94c4df;stroke-linecap:square;stroke-width:1.5;"/>
   </g>
   <g id="line2d_59">
    <path clip-path="url(#p2c0758a24f)" d="M 102.055625 306.32125 
L 113.891989 319.00525 
L 125.728352 268.26925 
L 137.564716 290.818583 
L 149.40108 307.90675 
L 161.237443 343.10485 
L 173.073807 356.704917 
L 184.91017 355.84925 
L 196.746534 349.9225 
L 208.582898 329.340361 
L 220.419261 320.90785 
L 232.255625 316.122523 
L 244.091989 328.694417 
L 255.928352 327.786481 
L 267.764716 330.33025 
L 279.60108 321.682983 
L 291.437443 292.05175 
L 303.273807 280.580191 
L 315.11017 283.419583 
L 326.946534 297.531461 
L 338.782898 294.27145 
L 350.619261 306.119917 
L 362.455625 314.200705 
L 374.291989 336.744467 
L 386.128352 349.9225 
L 397.964716 352.99837 
L 409.80108 357.789019 
L 421.637443 354.238583 
L 433.473807 342.18375 
L 445.31017 333.365871 
L 457.146534 326.333783 
L 468.982898 312.867831 
L 480.819261 315.239687 
L 492.655625 327.140947 
" style="fill:none;stroke:#94c4df;stroke-linecap:square;stroke-width:1.5;"/>
   </g>
   <g id="line2d_60">
    <path clip-path="url(#p2c0758a24f)" d="M 102.055625 433.16125 
L 113.891989 357.05725 
L 125.728352 366.57025 
L 137.564716 342.963917 
L 149.40108 317.41975 
L 161.237443 331.26645 
L 173.073807 351.419917 
L 184.91017 349.50725 
L 196.746534 344.6375 
L 208.582898 343.433694 
L 220.419261 330.20945 
L 232.255625 332.265795 
L 244.091989 334.33175 
L 255.928352 327.298635 
L 267.764716 316.13625 
L 279.60108 316.186583 
L 291.437443 314.645125 
L 303.273807 313.036309 
L 315.11017 305.851472 
L 326.946534 310.660513 
L 338.782898 321.43635 
L 350.619261 325.850583 
L 362.455625 329.767432 
L 374.291989 324.703859 
L 386.128352 330.368 
L 397.964716 330.50541 
L 409.80108 339.901327 
L 421.637443 353.45562 
L 433.473807 350.56425 
L 445.31017 351.662905 
L 457.146534 348.81265 
L 468.982898 349.55596 
L 480.819261 330.764375 
L 492.655625 342.707674 
" style="fill:none;stroke:#94c4df;stroke-linecap:square;stroke-width:1.5;"/>
   </g>
   <g id="line2d_61">
    <path clip-path="url(#p2c0758a24f)" d="M 102.055625 255.58525 
L 113.891989 314.77725 
L 125.728352 272.49725 
L 137.564716 292.932583 
L 149.40108 264.56975 
L 161.237443 265.73245 
L 173.073807 271.087917 
L 184.91017 262.53125 
L 196.746534 284.65275 
L 208.582898 302.328139 
L 220.419261 304.84145 
L 232.255625 303.054159 
L 244.091989 317.595917 
L 255.928352 331.526635 
L 267.764716 338.93725 
L 279.60108 347.75565 
L 291.437443 342.127125 
L 303.273807 339.772191 
L 315.11017 335.682361 
L 326.946534 326.904934 
L 338.782898 330.84365 
L 350.619261 337.628583 
L 362.455625 339.08825 
L 374.291989 337.663598 
L 386.128352 317.772083 
L 397.964716 310.46469 
L 409.80108 306.239942 
L 421.637443 319.083546 
L 433.473807 322.85575 
L 445.31017 330.012629 
L 457.146534 335.212583 
L 468.982898 344.236863 
L 480.819261 348.799437 
L 492.655625 355.327614 
" style="fill:none;stroke:#94c4df;stroke-linecap:square;stroke-width:1.5;"/>
   </g>
   <g id="line2d_62">
    <path clip-path="url(#p2c0758a24f)" d="M 102.055625 395.10925 
L 113.891989 401.45125 
L 125.728352 397.22325 
L 137.564716 410.611917 
L 149.40108 408.32175 
L 161.237443 373.12365 
L 173.073807 375.730917 
L 184.91017 351.92325 
L 196.746534 330.8965 
L 208.582898 333.568361 
L 220.419261 327.03845 
L 232.255625 321.311432 
L 244.091989 298.39375 
L 255.928352 316.078173 
L 267.764716 322.32725 
L 279.60108 324.219783 
L 291.437443 317.551875 
L 303.273807 317.015603 
L 315.11017 312.898139 
L 326.946534 307.990197 
L 338.782898 317.84255 
L 350.619261 324.038583 
L 362.455625 323.23325 
L 374.291989 324.979598 
L 386.128352 314.689167 
L 397.964716 314.77725 
L 409.80108 324.046327 
L 421.637443 331.219472 
L 433.473807 335.76625 
L 445.31017 337.083595 
L 457.146534 332.464383 
L 468.982898 331.825637 
L 480.819261 329.04675 
L 492.655625 338.351553 
" style="fill:none;stroke:#94c4df;stroke-linecap:square;stroke-width:1.5;"/>
   </g>
   <g id="line2d_63">
    <path clip-path="url(#p2c0758a24f)" d="M 102.055625 357.05725 
L 113.891989 390.88125 
L 125.728352 394.05225 
L 137.564716 393.699917 
L 149.40108 382.42525 
L 161.237443 359.59405 
L 173.073807 340.14525 
L 184.91017 288.50325 
L 196.746534 270.6475 
L 208.582898 246.894361 
L 220.419261 265.09825 
L 232.255625 269.806705 
L 244.091989 270.735583 
L 255.928352 284.368173 
L 267.764716 303.60325 
L 279.60108 315.20005 
L 291.437443 322.044125 
L 303.273807 309.927485 
L 315.11017 307.495694 
L 326.946534 301.981987 
L 338.782898 304.84145 
L 350.619261 301.086583 
L 362.455625 311.990614 
L 374.291989 318.729511 
L 386.128352 323.23325 
L 397.964716 333.29589 
L 409.80108 326.485558 
L 421.637443 315.795102 
L 433.473807 326.55525 
L 445.31017 320.90056 
L 457.146534 329.99805 
L 468.982898 330.393573 
L 480.819261 328.055812 
L 492.655625 337.070341 
" style="fill:none;stroke:#94c4df;stroke-linecap:square;stroke-width:1.5;"/>
   </g>
   <g id="line2d_64">
    <path clip-path="url(#p2c0758a24f)" d="M 102.055625 433.16125 
L 113.891989 433.16125 
L 125.728352 433.16125 
L 137.564716 433.16125 
L 149.40108 433.16125 
L 161.237443 433.16125 
L 173.073807 433.16125 
L 184.91017 433.16125 
L 196.746534 433.16125 
L 208.582898 433.16125 
L 220.419261 433.16125 
L 232.255625 433.16125 
L 244.091989 433.16125 
L 255.928352 433.16125 
L 267.764716 433.16125 
L 279.60108 433.16125 
L 291.437443 433.16125 
L 303.273807 433.16125 
L 315.11017 433.16125 
L 326.946534 433.16125 
L 338.782898 433.16125 
L 350.619261 433.16125 
L 362.455625 433.16125 
L 374.291989 433.16125 
L 386.128352 433.16125 
L 397.964716 433.16125 
L 409.80108 433.16125 
L 421.637443 433.16125 
L 433.473807 433.16125 
L 445.31017 433.16125 
L 457.146534 433.16125 
L 468.982898 433.16125 
L 480.819261 433.16125 
L 492.655625 433.16125 
" style="fill:none;stroke:#000000;stroke-linecap:square;stroke-width:1.5;"/>
   </g>
   <g id="line2d_65">
    <path clip-path="url(#p2c0758a24f)" d="M 102.055625 433.16125 
L 113.891989 433.16125 
L 125.728352 433.16125 
L 137.564716 433.16125 
L 149.40108 433.16125 
L 161.237443 433.16125 
L 173.073807 433.16125 
L 184.91017 433.16125 
L 196.746534 433.16125 
L 208.582898 433.16125 
L 220.419261 433.16125 
L 232.255625 433.16125 
L 244.091989 433.16125 
L 255.928352 433.16125 
L 267.764716 433.16125 
L 279.60108 433.16125 
L 291.437443 433.16125 
L 303.273807 433.16125 
L 315.11017 433.16125 
L 326.946534 433.16125 
L 338.782898 433.16125 
L 350.619261 433.16125 
L 362.455625 433.16125 
L 374.291989 433.16125 
L 386.128352 433.16125 
L 397.964716 433.16125 
L 409.80108 433.16125 
L 421.637443 433.16125 
L 433.473807 433.16125 
L 445.31017 433.16125 
L 457.146534 433.16125 
L 468.982898 433.16125 
L 480.819261 433.16125 
L 492.655625 433.16125 
" style="fill:none;stroke:#000000;stroke-linecap:square;stroke-width:1.5;"/>
   </g>
   <g id="line2d_66">
    <path clip-path="url(#p2c0758a24f)" d="M 102.055625 433.16125 
L 113.891989 433.16125 
L 125.728352 433.16125 
L 137.564716 433.16125 
L 149.40108 433.16125 
L 161.237443 433.16125 
L 173.073807 433.16125 
L 184.91017 433.16125 
L 196.746534 433.16125 
L 208.582898 433.16125 
L 220.419261 433.16125 
L 232.255625 433.16125 
L 244.091989 433.16125 
L 255.928352 433.16125 
L 267.764716 433.16125 
L 279.60108 433.16125 
L 291.437443 433.16125 
L 303.273807 433.16125 
L 315.11017 433.16125 
L 326.946534 433.16125 
L 338.782898 433.16125 
L 350.619261 433.16125 
L 362.455625 433.16125 
L 374.291989 433.16125 
L 386.128352 433.16125 
L 397.964716 433.16125 
L 409.80108 433.16125 
L 421.637443 433.16125 
L 433.473807 433.16125 
L 445.31017 433.16125 
L 457.146534 433.16125 
L 468.982898 433.16125 
L 480.819261 433.16125 
L 492.655625 433.16125 
" style="fill:none;stroke:#000000;stroke-linecap:square;stroke-width:1.5;"/>
   </g>
   <g id="line2d_67">
    <path clip-path="url(#p2c0758a24f)" d="M 102.055625 433.16125 
L 113.891989 433.16125 
L 125.728352 433.16125 
L 137.564716 433.16125 
L 149.40108 433.16125 
L 161.237443 433.16125 
L 173.073807 433.16125 
L 184.91017 433.16125 
L 196.746534 433.16125 
L 208.582898 433.16125 
L 220.419261 433.16125 
L 232.255625 433.16125 
L 244.091989 433.16125 
L 255.928352 433.16125 
L 267.764716 433.16125 
L 279.60108 433.16125 
L 291.437443 433.16125 
L 303.273807 433.16125 
L 315.11017 433.16125 
L 326.946534 433.16125 
L 338.782898 433.16125 
L 350.619261 433.16125 
L 362.455625 433.16125 
L 374.291989 433.16125 
L 386.128352 433.16125 
L 397.964716 433.16125 
L 409.80108 433.16125 
L 421.637443 433.16125 
L 433.473807 433.16125 
L 445.31017 433.16125 
L 457.146534 433.16125 
L 468.982898 433.16125 
L 480.819261 433.16125 
L 492.655625 433.16125 
" style="fill:none;stroke:#000000;stroke-linecap:square;stroke-width:1.5;"/>
   </g>
   <g id="line2d_68">
    <path clip-path="url(#p2c0758a24f)" d="M 102.055625 433.16125 
L 113.891989 433.16125 
L 125.728352 433.16125 
L 137.564716 433.16125 
L 149.40108 433.16125 
L 161.237443 433.16125 
L 173.073807 433.16125 
L 184.91017 433.16125 
L 196.746534 433.16125 
L 208.582898 433.16125 
L 220.419261 433.16125 
L 232.255625 433.16125 
L 244.091989 433.16125 
L 255.928352 433.16125 
L 267.764716 433.16125 
L 279.60108 433.16125 
L 291.437443 433.16125 
L 303.273807 433.16125 
L 315.11017 433.16125 
L 326.946534 433.16125 
L 338.782898 433.16125 
L 350.619261 433.16125 
L 362.455625 433.16125 
L 374.291989 433.16125 
L 386.128352 433.16125 
L 397.964716 433.16125 
L 409.80108 433.16125 
L 421.637443 433.16125 
L 433.473807 433.16125 
L 445.31017 433.16125 
L 457.146534 433.16125 
L 468.982898 433.16125 
L 480.819261 433.16125 
L 492.655625 433.16125 
" style="fill:none;stroke:#000000;stroke-linecap:square;stroke-width:1.5;"/>
   </g>
   <g id="line2d_69">
    <path clip-path="url(#p2c0758a24f)" d="M 102.055625 433.16125 
L 113.891989 433.16125 
L 125.728352 433.16125 
L 137.564716 433.16125 
L 149.40108 433.16125 
L 161.237443 433.16125 
L 173.073807 433.16125 
L 184.91017 433.16125 
L 196.746534 433.16125 
L 208.582898 433.16125 
L 220.419261 433.16125 
L 232.255625 433.16125 
L 244.091989 433.16125 
L 255.928352 433.16125 
L 267.764716 433.16125 
L 279.60108 433.16125 
L 291.437443 433.16125 
L 303.273807 433.16125 
L 315.11017 433.16125 
L 326.946534 433.16125 
L 338.782898 433.16125 
L 350.619261 433.16125 
L 362.455625 433.16125 
L 374.291989 433.16125 
L 386.128352 433.16125 
L 397.964716 433.16125 
L 409.80108 433.16125 
L 421.637443 433.16125 
L 433.473807 433.16125 
L 445.31017 433.16125 
L 457.146534 433.16125 
L 468.982898 433.16125 
L 480.819261 433.16125 
L 492.655625 433.16125 
" style="fill:none;stroke:#000000;stroke-linecap:square;stroke-width:1.5;"/>
   </g>
   <g id="line2d_70">
    <path clip-path="url(#p2c0758a24f)" d="M 102.055625 433.16125 
L 113.891989 433.16125 
L 125.728352 433.16125 
L 137.564716 433.16125 
L 149.40108 433.16125 
L 161.237443 433.16125 
L 173.073807 433.16125 
L 184.91017 433.16125 
L 196.746534 433.16125 
L 208.582898 433.16125 
L 220.419261 433.16125 
L 232.255625 433.16125 
L 244.091989 433.16125 
L 255.928352 433.16125 
L 267.764716 433.16125 
L 279.60108 433.16125 
L 291.437443 433.16125 
L 303.273807 433.16125 
L 315.11017 433.16125 
L 326.946534 433.16125 
L 338.782898 433.16125 
L 350.619261 433.16125 
L 362.455625 433.16125 
L 374.291989 433.16125 
L 386.128352 433.16125 
L 397.964716 433.16125 
L 409.80108 433.16125 
L 421.637443 433.16125 
L 433.473807 433.16125 
L 445.31017 433.16125 
L 457.146534 433.16125 
L 468.982898 433.16125 
L 480.819261 433.16125 
L 492.655625 433.16125 
" style="fill:none;stroke:#000000;stroke-linecap:square;stroke-width:1.5;"/>
   </g>
   <g id="line2d_71">
    <path clip-path="url(#p2c0758a24f)" d="M 102.055625 433.16125 
L 113.891989 433.16125 
L 125.728352 433.16125 
L 137.564716 433.16125 
L 149.40108 433.16125 
L 161.237443 433.16125 
L 173.073807 433.16125 
L 184.91017 433.16125 
L 196.746534 433.16125 
L 208.582898 433.16125 
L 220.419261 433.16125 
L 232.255625 433.16125 
L 244.091989 433.16125 
L 255.928352 433.16125 
L 267.764716 433.16125 
L 279.60108 433.16125 
L 291.437443 433.16125 
L 303.273807 433.16125 
L 315.11017 433.16125 
L 326.946534 433.16125 
L 338.782898 433.16125 
L 350.619261 433.16125 
L 362.455625 433.16125 
L 374.291989 433.16125 
L 386.128352 433.16125 
L 397.964716 433.16125 
L 409.80108 433.16125 
L 421.637443 433.16125 
L 433.473807 433.16125 
L 445.31017 433.16125 
L 457.146534 433.16125 
L 468.982898 433.16125 
L 480.819261 433.16125 
L 492.655625 433.16125 
" style="fill:none;stroke:#000000;stroke-linecap:square;stroke-width:1.5;"/>
   </g>
   <g id="line2d_72">
    <path clip-path="url(#p2c0758a24f)" d="M 102.055625 433.16125 
L 113.891989 433.16125 
L 125.728352 433.16125 
L 137.564716 433.16125 
L 149.40108 433.16125 
L 161.237443 433.16125 
L 173.073807 433.16125 
L 184.91017 433.16125 
L 196.746534 433.16125 
L 208.582898 433.16125 
L 220.419261 433.16125 
L 232.255625 433.16125 
L 244.091989 433.16125 
L 255.928352 433.16125 
L 267.764716 433.16125 
L 279.60108 433.16125 
L 291.437443 433.16125 
L 303.273807 433.16125 
L 315.11017 433.16125 
L 326.946534 433.16125 
L 338.782898 433.16125 
L 350.619261 433.16125 
L 362.455625 433.16125 
L 374.291989 433.16125 
L 386.128352 433.16125 
L 397.964716 433.16125 
L 409.80108 433.16125 
L 421.637443 433.16125 
L 433.473807 433.16125 
L 445.31017 433.16125 
L 457.146534 433.16125 
L 468.982898 433.16125 
L 480.819261 433.16125 
L 492.655625 433.16125 
" style="fill:none;stroke:#000000;stroke-linecap:square;stroke-width:1.5;"/>
   </g>
   <g id="line2d_73">
    <path clip-path="url(#p2c0758a24f)" d="M 102.055625 433.16125 
L 113.891989 433.16125 
L 125.728352 433.16125 
L 137.564716 433.16125 
L 149.40108 433.16125 
L 161.237443 433.16125 
L 173.073807 433.16125 
L 184.91017 433.16125 
L 196.746534 433.16125 
L 208.582898 433.16125 
L 220.419261 433.16125 
L 232.255625 433.16125 
L 244.091989 433.16125 
L 255.928352 433.16125 
L 267.764716 433.16125 
L 279.60108 433.16125 
L 291.437443 433.16125 
L 303.273807 433.16125 
L 315.11017 433.16125 
L 326.946534 433.16125 
L 338.782898 433.16125 
L 350.619261 433.16125 
L 362.455625 433.16125 
L 374.291989 433.16125 
L 386.128352 433.16125 
L 397.964716 433.16125 
L 409.80108 433.16125 
L 421.637443 433.16125 
L 433.473807 433.16125 
L 445.31017 433.16125 
L 457.146534 433.16125 
L 468.982898 433.16125 
L 480.819261 433.16125 
L 492.655625 433.16125 
" style="fill:none;stroke:#000000;stroke-linecap:square;stroke-width:1.5;"/>
   </g>
   <g id="line2d_74">
    <path clip-path="url(#p2c0758a24f)" d="M 90.219261 433.16125 
" style="fill:none;stroke:#000000;stroke-linecap:square;stroke-width:1.5;"/>
   </g>
   <g id="line2d_75">
    <path clip-path="url(#p2c0758a24f)" d="M 90.219261 433.16125 
" style="fill:none;stroke:#d0e1f2;stroke-linecap:square;stroke-width:1.5;"/>
   </g>
   <g id="line2d_76">
    <path clip-path="url(#p2c0758a24f)" d="M 90.219261 433.16125 
" style="fill:none;stroke:#94c4df;stroke-linecap:square;stroke-width:1.5;"/>
   </g>
   <g id="line2d_77">
    <path clip-path="url(#p2c0758a24f)" d="M 90.219261 433.16125 
" style="fill:none;stroke:#4a98c9;stroke-linecap:square;stroke-width:1.5;"/>
   </g>
   <g id="line2d_78">
    <path clip-path="url(#p2c0758a24f)" d="M 90.219261 433.16125 
" style="fill:none;stroke:#1764ab;stroke-linecap:square;stroke-width:1.5;"/>
   </g>
   <g id="line2d_79">
    <path clip-path="url(#p2c0758a24f)" d="M 90.219261 433.16125 
" style="fill:none;stroke:#08306b;stroke-linecap:square;stroke-width:1.5;"/>
   </g>
   <g id="line2d_80">
    <path clip-path="url(#p2c0758a24f)" d="M 90.219261 433.16125 
" style="fill:none;stroke:#000000;stroke-linecap:square;stroke-width:1.5;"/>
   </g>
   <g id="line2d_81">
    <path clip-path="url(#p2c0758a24f)" d="M 90.219261 433.16125 
" style="fill:none;stroke:#000000;stroke-dasharray:1.5,2.475;stroke-dashoffset:0;stroke-width:1.5;"/>
   </g>
   <g id="line2d_82">
    <path clip-path="url(#p2c0758a24f)" d="M 90.219261 433.16125 
" style="fill:none;stroke:#000000;stroke-linecap:square;stroke-width:1.5;"/>
   </g>
   <g id="line2d_83">
    <path clip-path="url(#p2c0758a24f)" d="M 90.219261 433.16125 
" style="fill:none;stroke:#000000;stroke-dasharray:5.55,2.4;stroke-dashoffset:0;stroke-width:1.5;"/>
   </g>
   <g id="line2d_84">
    <path clip-path="url(#p2c0758a24f)" d="M 90.219261 433.16125 
" style="fill:none;stroke:#000000;stroke-dasharray:9.6,2.4,1.5,2.4;stroke-dashoffset:0;stroke-width:1.5;"/>
   </g>
   <g id="line2d_85">
    <path clip-path="url(#p2c0758a24f)" d="M 90.219261 433.16125 
" style="fill:none;stroke:#000000;stroke-dasharray:9.6,2.4,1.5,2.4;stroke-dashoffset:0;stroke-width:1.5;"/>
   </g>
   <g id="patch_3">
    <path d="M 102.055625 433.16125 
L 102.055625 52.64125 
" style="fill:none;stroke:#000000;stroke-linecap:square;stroke-linejoin:miter;stroke-width:0.8;"/>
   </g>
   <g id="patch_4">
    <path d="M 492.655625 433.16125 
L 492.655625 52.64125 
" style="fill:none;stroke:#000000;stroke-linecap:square;stroke-linejoin:miter;stroke-width:0.8;"/>
   </g>
   <g id="patch_5">
    <path d="M 102.055625 433.16125 
L 492.655625 433.16125 
" style="fill:none;stroke:#000000;stroke-linecap:square;stroke-linejoin:miter;stroke-width:0.8;"/>
   </g>
   <g id="patch_6">
    <path d="M 102.055625 52.64125 
L 492.655625 52.64125 
" style="fill:none;stroke:#000000;stroke-linecap:square;stroke-linejoin:miter;stroke-width:0.8;"/>
   </g>
   <g id="text_16">
    <!-- CD8 LIVE NORMALIZED COUNT -->
    <g transform="translate(144.579063 21.515625)scale(0.2 -0.2)">
     <use xlink:href="#Arial-BoldMT-67"/>
     <use x="72.216797" xlink:href="#Arial-BoldMT-68"/>
     <use x="144.433594" xlink:href="#Arial-BoldMT-56"/>
     <use x="200.048828" xlink:href="#Arial-BoldMT-32"/>
     <use x="227.832031" xlink:href="#Arial-BoldMT-76"/>
     <use x="288.916016" xlink:href="#Arial-BoldMT-73"/>
     <use x="316.699219" xlink:href="#Arial-BoldMT-86"/>
     <use x="383.398438" xlink:href="#Arial-BoldMT-69"/>
     <use x="450.097656" xlink:href="#Arial-BoldMT-32"/>
     <use x="477.880859" xlink:href="#Arial-BoldMT-78"/>
     <use x="550.097656" xlink:href="#Arial-BoldMT-79"/>
     <use x="627.880859" xlink:href="#Arial-BoldMT-82"/>
     <use x="700.097656" xlink:href="#Arial-BoldMT-77"/>
     <use x="783.398438" xlink:href="#Arial-BoldMT-65"/>
     <use x="855.615234" xlink:href="#Arial-BoldMT-76"/>
     <use x="916.699219" xlink:href="#Arial-BoldMT-73"/>
     <use x="944.482422" xlink:href="#Arial-BoldMT-90"/>
     <use x="1005.566406" xlink:href="#Arial-BoldMT-69"/>
     <use x="1072.265625" xlink:href="#Arial-BoldMT-68"/>
     <use x="1144.482422" xlink:href="#Arial-BoldMT-32"/>
     <use x="1172.265625" xlink:href="#Arial-BoldMT-67"/>
     <use x="1244.482422" xlink:href="#Arial-BoldMT-79"/>
     <use x="1322.265625" xlink:href="#Arial-BoldMT-85"/>
     <use x="1394.482422" xlink:href="#Arial-BoldMT-78"/>
     <use x="1466.699219" xlink:href="#Arial-BoldMT-84"/>
    </g>
    <!-- ACROSS RADIUS AT TIME 7 -->
    <defs>
     <path d="M 4.25 57.859375 
L 4.25 70.609375 
L 51.171875 70.609375 
L 51.171875 60.640625 
Q 45.359375 54.9375 39.34375 44.234375 
Q 33.34375 33.546875 30.1875 21.5 
Q 27.046875 9.46875 27.09375 0 
L 13.875 0 
Q 14.203125 14.84375 19.984375 30.265625 
Q 25.78125 45.703125 35.453125 57.859375 
z
" id="Arial-BoldMT-55"/>
    </defs>
    <g transform="translate(162.361875 42.64125)scale(0.2 -0.2)">
     <use xlink:href="#Arial-BoldMT-65"/>
     <use x="72.216797" xlink:href="#Arial-BoldMT-67"/>
     <use x="144.433594" xlink:href="#Arial-BoldMT-82"/>
     <use x="216.650391" xlink:href="#Arial-BoldMT-79"/>
     <use x="294.433594" xlink:href="#Arial-BoldMT-83"/>
     <use x="361.132812" xlink:href="#Arial-BoldMT-83"/>
     <use x="427.832031" xlink:href="#Arial-BoldMT-32"/>
     <use x="455.615234" xlink:href="#Arial-BoldMT-82"/>
     <use x="527.832031" xlink:href="#Arial-BoldMT-65"/>
     <use x="600.048828" xlink:href="#Arial-BoldMT-68"/>
     <use x="672.265625" xlink:href="#Arial-BoldMT-73"/>
     <use x="700.048828" xlink:href="#Arial-BoldMT-85"/>
     <use x="772.265625" xlink:href="#Arial-BoldMT-83"/>
     <use x="838.964844" xlink:href="#Arial-BoldMT-32"/>
     <use x="866.701172" xlink:href="#Arial-BoldMT-65"/>
     <use x="938.808594" xlink:href="#Arial-BoldMT-84"/>
     <use x="999.892578" xlink:href="#Arial-BoldMT-32"/>
     <use x="1027.675781" xlink:href="#Arial-BoldMT-84"/>
     <use x="1088.759766" xlink:href="#Arial-BoldMT-73"/>
     <use x="1116.542969" xlink:href="#Arial-BoldMT-77"/>
     <use x="1199.84375" xlink:href="#Arial-BoldMT-69"/>
     <use x="1266.542969" xlink:href="#Arial-BoldMT-32"/>
     <use x="1294.326172" xlink:href="#Arial-BoldMT-55"/>
    </g>
   </g>
   <g id="legend_1">
    <g id="line2d_86">
     <path d="M 423.843125 65.739687 
L 443.843125 65.739687 
" style="fill:none;stroke:#000000;stroke-linecap:square;stroke-width:1.5;"/>
    </g>
    <g id="line2d_87"/>
    <g id="text_17">
     <!-- 0 -->
     <g transform="translate(451.843125 69.239687)scale(0.1 -0.1)">
      <use xlink:href="#DejaVuSans-48"/>
     </g>
    </g>
    <g id="line2d_88">
     <path d="M 423.843125 80.417812 
L 443.843125 80.417812 
" style="fill:none;stroke:#d0e1f2;stroke-linecap:square;stroke-width:1.5;"/>
    </g>
    <g id="line2d_89"/>
    <g id="text_18">
     <!-- 100 -->
     <g transform="translate(451.843125 83.917812)scale(0.1 -0.1)">
      <use xlink:href="#DejaVuSans-49"/>
      <use x="63.623047" xlink:href="#DejaVuSans-48"/>
      <use x="127.246094" xlink:href="#DejaVuSans-48"/>
     </g>
    </g>
    <g id="line2d_90">
     <path d="M 423.843125 95.095937 
L 443.843125 95.095937 
" style="fill:none;stroke:#94c4df;stroke-linecap:square;stroke-width:1.5;"/>
    </g>
    <g id="line2d_91"/>
    <g id="text_19">
     <!-- 500 -->
     <g transform="translate(451.843125 98.595937)scale(0.1 -0.1)">
      <use xlink:href="#DejaVuSans-53"/>
      <use x="63.623047" xlink:href="#DejaVuSans-48"/>
      <use x="127.246094" xlink:href="#DejaVuSans-48"/>
     </g>
    </g>
    <g id="line2d_92">
     <path d="M 423.843125 109.774062 
L 443.843125 109.774062 
" style="fill:none;stroke:#4a98c9;stroke-linecap:square;stroke-width:1.5;"/>
    </g>
    <g id="line2d_93"/>
    <g id="text_20">
     <!-- 1000 -->
     <g transform="translate(451.843125 113.274062)scale(0.1 -0.1)">
      <use xlink:href="#DejaVuSans-49"/>
      <use x="63.623047" xlink:href="#DejaVuSans-48"/>
      <use x="127.246094" xlink:href="#DejaVuSans-48"/>
      <use x="190.869141" xlink:href="#DejaVuSans-48"/>
     </g>
    </g>
    <g id="line2d_94">
     <path d="M 423.843125 124.452187 
L 443.843125 124.452187 
" style="fill:none;stroke:#1764ab;stroke-linecap:square;stroke-width:1.5;"/>
    </g>
    <g id="line2d_95"/>
    <g id="text_21">
     <!-- 5000 -->
     <g transform="translate(451.843125 127.952187)scale(0.1 -0.1)">
      <use xlink:href="#DejaVuSans-53"/>
      <use x="63.623047" xlink:href="#DejaVuSans-48"/>
      <use x="127.246094" xlink:href="#DejaVuSans-48"/>
      <use x="190.869141" xlink:href="#DejaVuSans-48"/>
     </g>
    </g>
    <g id="line2d_96">
     <path d="M 423.843125 139.130312 
L 443.843125 139.130312 
" style="fill:none;stroke:#08306b;stroke-linecap:square;stroke-width:1.5;"/>
    </g>
    <g id="line2d_97"/>
    <g id="text_22">
     <!-- 10000 -->
     <g transform="translate(451.843125 142.630312)scale(0.1 -0.1)">
      <use xlink:href="#DejaVuSans-49"/>
      <use x="63.623047" xlink:href="#DejaVuSans-48"/>
      <use x="127.246094" xlink:href="#DejaVuSans-48"/>
      <use x="190.869141" xlink:href="#DejaVuSans-48"/>
      <use x="254.492188" xlink:href="#DejaVuSans-48"/>
     </g>
    </g>
    <g id="line2d_98">
     <path d="M 423.843125 153.808437 
L 443.843125 153.808437 
" style="fill:none;stroke:#000000;stroke-linecap:square;stroke-width:1.5;"/>
    </g>
    <g id="line2d_99"/>
    <g id="text_23">
     <!-- 0 -->
     <g transform="translate(451.843125 157.308437)scale(0.1 -0.1)">
      <use xlink:href="#DejaVuSans-48"/>
     </g>
    </g>
    <g id="line2d_100">
     <path d="M 423.843125 168.486562 
L 443.843125 168.486562 
" style="fill:none;stroke:#000000;stroke-dasharray:1.5,2.475;stroke-dashoffset:0;stroke-width:1.5;"/>
    </g>
    <g id="line2d_101"/>
    <g id="text_24">
     <!-- 250 -->
     <g transform="translate(451.843125 171.986562)scale(0.1 -0.1)">
      <use xlink:href="#DejaVuSans-50"/>
      <use x="63.623047" xlink:href="#DejaVuSans-53"/>
      <use x="127.246094" xlink:href="#DejaVuSans-48"/>
     </g>
    </g>
    <g id="line2d_102">
     <path d="M 423.843125 183.164687 
L 443.843125 183.164687 
" style="fill:none;stroke:#000000;stroke-linecap:square;stroke-width:1.5;"/>
    </g>
    <g id="line2d_103"/>
    <g id="text_25">
     <!-- 500 -->
     <g transform="translate(451.843125 186.664687)scale(0.1 -0.1)">
      <use xlink:href="#DejaVuSans-53"/>
      <use x="63.623047" xlink:href="#DejaVuSans-48"/>
      <use x="127.246094" xlink:href="#DejaVuSans-48"/>
     </g>
    </g>
    <g id="line2d_104">
     <path d="M 423.843125 197.842812 
L 443.843125 197.842812 
" style="fill:none;stroke:#000000;stroke-dasharray:5.55,2.4;stroke-dashoffset:0;stroke-width:1.5;"/>
    </g>
    <g id="line2d_105"/>
    <g id="text_26">
     <!-- 1000 -->
     <g transform="translate(451.843125 201.342812)scale(0.1 -0.1)">
      <use xlink:href="#DejaVuSans-49"/>
      <use x="63.623047" xlink:href="#DejaVuSans-48"/>
      <use x="127.246094" xlink:href="#DejaVuSans-48"/>
      <use x="190.869141" xlink:href="#DejaVuSans-48"/>
     </g>
    </g>
    <g id="line2d_106">
     <path d="M 423.843125 212.520937 
L 443.843125 212.520937 
" style="fill:none;stroke:#000000;stroke-dasharray:9.6,2.4,1.5,2.4;stroke-dashoffset:0;stroke-width:1.5;"/>
    </g>
    <g id="line2d_107"/>
    <g id="text_27">
     <!-- 5000 -->
     <g transform="translate(451.843125 216.020937)scale(0.1 -0.1)">
      <use xlink:href="#DejaVuSans-53"/>
      <use x="63.623047" xlink:href="#DejaVuSans-48"/>
      <use x="127.246094" xlink:href="#DejaVuSans-48"/>
      <use x="190.869141" xlink:href="#DejaVuSans-48"/>
     </g>
    </g>
    <g id="line2d_108">
     <path d="M 423.843125 227.199062 
L 443.843125 227.199062 
" style="fill:none;stroke:#000000;stroke-dasharray:9.6,2.4,1.5,2.4;stroke-dashoffset:0;stroke-width:1.5;"/>
    </g>
    <g id="line2d_109"/>
    <g id="text_28">
     <!-- 10000 -->
     <g transform="translate(451.843125 230.699062)scale(0.1 -0.1)">
      <use xlink:href="#DejaVuSans-49"/>
      <use x="63.623047" xlink:href="#DejaVuSans-48"/>
      <use x="127.246094" xlink:href="#DejaVuSans-48"/>
      <use x="190.869141" xlink:href="#DejaVuSans-48"/>
      <use x="254.492188" xlink:href="#DejaVuSans-48"/>
     </g>
    </g>
   </g>
  </g>
 </g>
 <defs>
  <clipPath id="p2c0758a24f">
   <rect height="380.52" width="390.6" x="102.055625" y="52.64125"/>
  </clipPath>
 </defs>
</svg>
