<?xml version="1.0" encoding="utf-8" standalone="no"?>
<!DOCTYPE svg PUBLIC "-//W3C//DTD SVG 1.1//EN"
  "http://www.w3.org/Graphics/SVG/1.1/DTD/svg11.dtd">
<!-- Created with matplotlib (https://matplotlib.org/) -->
<svg height="504.658125pt" version="1.1" viewBox="0 0 503.355625 504.658125" width="503.355625pt" xmlns="http://www.w3.org/2000/svg" xmlns:xlink="http://www.w3.org/1999/xlink">
 <defs>
  <style type="text/css">
*{stroke-linecap:butt;stroke-linejoin:round;}
  </style>
 </defs>
 <g id="figure_1">
  <g id="patch_1">
   <path d="M 0 504.658125 
L 503.355625 504.658125 
L 503.355625 -0 
L 0 -0 
z
" style="fill:#ffffff;"/>
  </g>
  <g id="axes_1">
   <g id="patch_2">
    <path d="M 102.055625 433.16125 
L 492.655625 433.16125 
L 492.655625 52.64125 
L 102.055625 52.64125 
z
" style="fill:#ffffff;"/>
   </g>
   <g id="matplotlib.axis_1">
    <g id="xtick_1">
     <g id="line2d_1">
      <defs>
       <path d="M 0 0 
L 0 3.5 
" id="m748ddfd92a" style="stroke:#000000;stroke-width:0.8;"/>
      </defs>
      <g>
       <use style="stroke:#000000;stroke-width:0.8;" x="149.40108" xlink:href="#m748ddfd92a" y="433.16125"/>
      </g>
     </g>
     <g id="text_1">
      <!-- 5 -->
      <defs>
       <path d="M 10.796875 72.90625 
L 49.515625 72.90625 
L 49.515625 64.59375 
L 19.828125 64.59375 
L 19.828125 46.734375 
Q 21.96875 47.46875 24.109375 47.828125 
Q 26.265625 48.1875 28.421875 48.1875 
Q 40.625 48.1875 47.75 41.5 
Q 54.890625 34.8125 54.890625 23.390625 
Q 54.890625 11.625 47.5625 5.09375 
Q 40.234375 -1.421875 26.90625 -1.421875 
Q 22.3125 -1.421875 17.546875 -0.640625 
Q 12.796875 0.140625 7.71875 1.703125 
L 7.71875 11.625 
Q 12.109375 9.234375 16.796875 8.0625 
Q 21.484375 6.890625 26.703125 6.890625 
Q 35.15625 6.890625 40.078125 11.328125 
Q 45.015625 15.765625 45.015625 23.390625 
Q 45.015625 31 40.078125 35.4375 
Q 35.15625 39.890625 26.703125 39.890625 
Q 22.75 39.890625 18.8125 39.015625 
Q 14.890625 38.140625 10.796875 36.28125 
z
" id="DejaVuSans-53"/>
      </defs>
      <g transform="translate(139.85733 462.956562)scale(0.3 -0.3)">
       <use xlink:href="#DejaVuSans-53"/>
      </g>
     </g>
    </g>
    <g id="xtick_2">
     <g id="line2d_2">
      <g>
       <use style="stroke:#000000;stroke-width:0.8;" x="208.582898" xlink:href="#m748ddfd92a" y="433.16125"/>
      </g>
     </g>
     <g id="text_2">
      <!-- 10 -->
      <defs>
       <path d="M 12.40625 8.296875 
L 28.515625 8.296875 
L 28.515625 63.921875 
L 10.984375 60.40625 
L 10.984375 69.390625 
L 28.421875 72.90625 
L 38.28125 72.90625 
L 38.28125 8.296875 
L 54.390625 8.296875 
L 54.390625 0 
L 12.40625 0 
z
" id="DejaVuSans-49"/>
       <path d="M 31.78125 66.40625 
Q 24.171875 66.40625 20.328125 58.90625 
Q 16.5 51.421875 16.5 36.375 
Q 16.5 21.390625 20.328125 13.890625 
Q 24.171875 6.390625 31.78125 6.390625 
Q 39.453125 6.390625 43.28125 13.890625 
Q 47.125 21.390625 47.125 36.375 
Q 47.125 51.421875 43.28125 58.90625 
Q 39.453125 66.40625 31.78125 66.40625 
z
M 31.78125 74.21875 
Q 44.046875 74.21875 50.515625 64.515625 
Q 56.984375 54.828125 56.984375 36.375 
Q 56.984375 17.96875 50.515625 8.265625 
Q 44.046875 -1.421875 31.78125 -1.421875 
Q 19.53125 -1.421875 13.0625 8.265625 
Q 6.59375 17.96875 6.59375 36.375 
Q 6.59375 54.828125 13.0625 64.515625 
Q 19.53125 74.21875 31.78125 74.21875 
z
" id="DejaVuSans-48"/>
      </defs>
      <g transform="translate(189.495398 462.956562)scale(0.3 -0.3)">
       <use xlink:href="#DejaVuSans-49"/>
       <use x="63.623047" xlink:href="#DejaVuSans-48"/>
      </g>
     </g>
    </g>
    <g id="xtick_3">
     <g id="line2d_3">
      <g>
       <use style="stroke:#000000;stroke-width:0.8;" x="267.764716" xlink:href="#m748ddfd92a" y="433.16125"/>
      </g>
     </g>
     <g id="text_3">
      <!-- 15 -->
      <g transform="translate(248.677216 462.956562)scale(0.3 -0.3)">
       <use xlink:href="#DejaVuSans-49"/>
       <use x="63.623047" xlink:href="#DejaVuSans-53"/>
      </g>
     </g>
    </g>
    <g id="xtick_4">
     <g id="line2d_4">
      <g>
       <use style="stroke:#000000;stroke-width:0.8;" x="326.946534" xlink:href="#m748ddfd92a" y="433.16125"/>
      </g>
     </g>
     <g id="text_4">
      <!-- 20 -->
      <defs>
       <path d="M 19.1875 8.296875 
L 53.609375 8.296875 
L 53.609375 0 
L 7.328125 0 
L 7.328125 8.296875 
Q 12.9375 14.109375 22.625 23.890625 
Q 32.328125 33.6875 34.8125 36.53125 
Q 39.546875 41.84375 41.421875 45.53125 
Q 43.3125 49.21875 43.3125 52.78125 
Q 43.3125 58.59375 39.234375 62.25 
Q 35.15625 65.921875 28.609375 65.921875 
Q 23.96875 65.921875 18.8125 64.3125 
Q 13.671875 62.703125 7.8125 59.421875 
L 7.8125 69.390625 
Q 13.765625 71.78125 18.9375 73 
Q 24.125 74.21875 28.421875 74.21875 
Q 39.75 74.21875 46.484375 68.546875 
Q 53.21875 62.890625 53.21875 53.421875 
Q 53.21875 48.921875 51.53125 44.890625 
Q 49.859375 40.875 45.40625 35.40625 
Q 44.1875 33.984375 37.640625 27.21875 
Q 31.109375 20.453125 19.1875 8.296875 
z
" id="DejaVuSans-50"/>
      </defs>
      <g transform="translate(307.859034 462.956562)scale(0.3 -0.3)">
       <use xlink:href="#DejaVuSans-50"/>
       <use x="63.623047" xlink:href="#DejaVuSans-48"/>
      </g>
     </g>
    </g>
    <g id="xtick_5">
     <g id="line2d_5">
      <g>
       <use style="stroke:#000000;stroke-width:0.8;" x="386.128352" xlink:href="#m748ddfd92a" y="433.16125"/>
      </g>
     </g>
     <g id="text_5">
      <!-- 25 -->
      <g transform="translate(367.040852 462.956562)scale(0.3 -0.3)">
       <use xlink:href="#DejaVuSans-50"/>
       <use x="63.623047" xlink:href="#DejaVuSans-53"/>
      </g>
     </g>
    </g>
    <g id="xtick_6">
     <g id="line2d_6">
      <g>
       <use style="stroke:#000000;stroke-width:0.8;" x="445.31017" xlink:href="#m748ddfd92a" y="433.16125"/>
      </g>
     </g>
     <g id="text_6">
      <!-- 30 -->
      <defs>
       <path d="M 40.578125 39.3125 
Q 47.65625 37.796875 51.625 33 
Q 55.609375 28.21875 55.609375 21.1875 
Q 55.609375 10.40625 48.1875 4.484375 
Q 40.765625 -1.421875 27.09375 -1.421875 
Q 22.515625 -1.421875 17.65625 -0.515625 
Q 12.796875 0.390625 7.625 2.203125 
L 7.625 11.71875 
Q 11.71875 9.328125 16.59375 8.109375 
Q 21.484375 6.890625 26.8125 6.890625 
Q 36.078125 6.890625 40.9375 10.546875 
Q 45.796875 14.203125 45.796875 21.1875 
Q 45.796875 27.640625 41.28125 31.265625 
Q 36.765625 34.90625 28.71875 34.90625 
L 20.21875 34.90625 
L 20.21875 43.015625 
L 29.109375 43.015625 
Q 36.375 43.015625 40.234375 45.921875 
Q 44.09375 48.828125 44.09375 54.296875 
Q 44.09375 59.90625 40.109375 62.90625 
Q 36.140625 65.921875 28.71875 65.921875 
Q 24.65625 65.921875 20.015625 65.03125 
Q 15.375 64.15625 9.8125 62.3125 
L 9.8125 71.09375 
Q 15.4375 72.65625 20.34375 73.4375 
Q 25.25 74.21875 29.59375 74.21875 
Q 40.828125 74.21875 47.359375 69.109375 
Q 53.90625 64.015625 53.90625 55.328125 
Q 53.90625 49.265625 50.4375 45.09375 
Q 46.96875 40.921875 40.578125 39.3125 
z
" id="DejaVuSans-51"/>
      </defs>
      <g transform="translate(426.22267 462.956562)scale(0.3 -0.3)">
       <use xlink:href="#DejaVuSans-51"/>
       <use x="63.623047" xlink:href="#DejaVuSans-48"/>
      </g>
     </g>
    </g>
    <g id="text_7">
     <!-- RADIUS -->
     <defs>
      <path d="M 7.328125 0 
L 7.328125 71.578125 
L 37.75 71.578125 
Q 49.21875 71.578125 54.421875 69.640625 
Q 59.625 67.71875 62.75 62.78125 
Q 65.875 57.859375 65.875 51.515625 
Q 65.875 43.453125 61.125 38.203125 
Q 56.390625 32.953125 46.96875 31.59375 
Q 51.65625 28.859375 54.703125 25.578125 
Q 57.765625 22.3125 62.9375 13.96875 
L 71.6875 0 
L 54.390625 0 
L 43.953125 15.578125 
Q 38.375 23.921875 36.328125 26.09375 
Q 34.28125 28.265625 31.984375 29.078125 
Q 29.6875 29.890625 24.703125 29.890625 
L 21.78125 29.890625 
L 21.78125 0 
z
M 21.78125 41.3125 
L 32.46875 41.3125 
Q 42.875 41.3125 45.453125 42.1875 
Q 48.046875 43.0625 49.515625 45.203125 
Q 50.984375 47.359375 50.984375 50.59375 
Q 50.984375 54.203125 49.046875 56.421875 
Q 47.125 58.640625 43.609375 59.234375 
Q 41.84375 59.46875 33.0625 59.46875 
L 21.78125 59.46875 
z
" id="Arial-BoldMT-82"/>
      <path d="M 71.828125 0 
L 56.109375 0 
L 49.859375 16.265625 
L 21.234375 16.265625 
L 15.328125 0 
L 0 0 
L 27.875 71.578125 
L 43.171875 71.578125 
z
M 45.21875 28.328125 
L 35.359375 54.890625 
L 25.6875 28.328125 
z
" id="Arial-BoldMT-65"/>
      <path d="M 7.234375 71.578125 
L 33.640625 71.578125 
Q 42.578125 71.578125 47.265625 70.21875 
Q 53.5625 68.359375 58.046875 63.625 
Q 62.546875 58.890625 64.890625 52.03125 
Q 67.234375 45.171875 67.234375 35.109375 
Q 67.234375 26.265625 65.046875 19.875 
Q 62.359375 12.0625 57.375 7.234375 
Q 53.609375 3.5625 47.21875 1.515625 
Q 42.4375 0 34.421875 0 
L 7.234375 0 
z
M 21.6875 59.46875 
L 21.6875 12.0625 
L 32.46875 12.0625 
Q 38.53125 12.0625 41.21875 12.75 
Q 44.734375 13.625 47.046875 15.71875 
Q 49.359375 17.828125 50.828125 22.625 
Q 52.296875 27.4375 52.296875 35.75 
Q 52.296875 44.046875 50.828125 48.484375 
Q 49.359375 52.9375 46.71875 55.421875 
Q 44.09375 57.90625 40.046875 58.796875 
Q 37.015625 59.46875 28.171875 59.46875 
z
" id="Arial-BoldMT-68"/>
      <path d="M 6.84375 0 
L 6.84375 71.578125 
L 21.296875 71.578125 
L 21.296875 0 
z
" id="Arial-BoldMT-73"/>
      <path d="M 7.171875 71.578125 
L 21.625 71.578125 
L 21.625 32.8125 
Q 21.625 23.578125 22.171875 20.84375 
Q 23.09375 16.453125 26.578125 13.796875 
Q 30.078125 11.140625 36.140625 11.140625 
Q 42.28125 11.140625 45.40625 13.640625 
Q 48.53125 16.15625 49.171875 19.8125 
Q 49.8125 23.484375 49.8125 31.984375 
L 49.8125 71.578125 
L 64.265625 71.578125 
L 64.265625 33.984375 
Q 64.265625 21.09375 63.09375 15.765625 
Q 61.921875 10.453125 58.765625 6.78125 
Q 55.609375 3.125 50.328125 0.953125 
Q 45.0625 -1.21875 36.578125 -1.21875 
Q 26.3125 -1.21875 21.015625 1.140625 
Q 15.71875 3.515625 12.640625 7.296875 
Q 9.578125 11.078125 8.59375 15.234375 
Q 7.171875 21.390625 7.171875 33.40625 
z
" id="Arial-BoldMT-85"/>
      <path d="M 3.609375 23.296875 
L 17.671875 24.65625 
Q 18.953125 17.578125 22.828125 14.25 
Q 26.703125 10.9375 33.296875 10.9375 
Q 40.28125 10.9375 43.8125 13.890625 
Q 47.359375 16.84375 47.359375 20.796875 
Q 47.359375 23.34375 45.875 25.125 
Q 44.390625 26.90625 40.671875 28.21875 
Q 38.140625 29.109375 29.109375 31.34375 
Q 17.484375 34.234375 12.796875 38.421875 
Q 6.203125 44.34375 6.203125 52.828125 
Q 6.203125 58.296875 9.296875 63.0625 
Q 12.40625 67.828125 18.234375 70.3125 
Q 24.078125 72.796875 32.328125 72.796875 
Q 45.796875 72.796875 52.609375 66.890625 
Q 59.421875 60.984375 59.765625 51.125 
L 45.3125 50.484375 
Q 44.390625 56 41.328125 58.421875 
Q 38.28125 60.84375 32.171875 60.84375 
Q 25.875 60.84375 22.3125 58.25 
Q 20.015625 56.59375 20.015625 53.8125 
Q 20.015625 51.265625 22.171875 49.46875 
Q 24.90625 47.171875 35.453125 44.671875 
Q 46 42.1875 51.046875 39.515625 
Q 56.109375 36.859375 58.953125 32.25 
Q 61.8125 27.640625 61.8125 20.84375 
Q 61.8125 14.703125 58.390625 9.328125 
Q 54.984375 3.953125 48.734375 1.34375 
Q 42.484375 -1.265625 33.15625 -1.265625 
Q 19.578125 -1.265625 12.296875 5 
Q 5.03125 11.28125 3.609375 23.296875 
z
" id="Arial-BoldMT-83"/>
     </defs>
     <g transform="translate(259.019688 493.51125)scale(0.2 -0.2)">
      <use xlink:href="#Arial-BoldMT-82"/>
      <use x="72.216797" xlink:href="#Arial-BoldMT-65"/>
      <use x="144.433594" xlink:href="#Arial-BoldMT-68"/>
      <use x="216.650391" xlink:href="#Arial-BoldMT-73"/>
      <use x="244.433594" xlink:href="#Arial-BoldMT-85"/>
      <use x="316.650391" xlink:href="#Arial-BoldMT-83"/>
     </g>
    </g>
   </g>
   <g id="matplotlib.axis_2">
    <g id="ytick_1">
     <g id="line2d_7">
      <defs>
       <path d="M 0 0 
L -3.5 0 
" id="mc9946aac87" style="stroke:#000000;stroke-width:0.8;"/>
      </defs>
      <g>
       <use style="stroke:#000000;stroke-width:0.8;" x="102.055625" xlink:href="#mc9946aac87" y="433.16125"/>
      </g>
     </g>
     <g id="text_8">
      <!-- 0 -->
      <g transform="translate(75.968125 444.558906)scale(0.3 -0.3)">
       <use xlink:href="#DejaVuSans-48"/>
      </g>
     </g>
    </g>
    <g id="ytick_2">
     <g id="line2d_8">
      <g>
       <use style="stroke:#000000;stroke-width:0.8;" x="102.055625" xlink:href="#mc9946aac87" y="369.74125"/>
      </g>
     </g>
     <g id="text_9">
      <!-- 5 -->
      <g transform="translate(75.968125 381.138906)scale(0.3 -0.3)">
       <use xlink:href="#DejaVuSans-53"/>
      </g>
     </g>
    </g>
    <g id="ytick_3">
     <g id="line2d_9">
      <g>
       <use style="stroke:#000000;stroke-width:0.8;" x="102.055625" xlink:href="#mc9946aac87" y="306.32125"/>
      </g>
     </g>
     <g id="text_10">
      <!-- 10 -->
      <g transform="translate(56.880625 317.718906)scale(0.3 -0.3)">
       <use xlink:href="#DejaVuSans-49"/>
       <use x="63.623047" xlink:href="#DejaVuSans-48"/>
      </g>
     </g>
    </g>
    <g id="ytick_4">
     <g id="line2d_10">
      <g>
       <use style="stroke:#000000;stroke-width:0.8;" x="102.055625" xlink:href="#mc9946aac87" y="242.90125"/>
      </g>
     </g>
     <g id="text_11">
      <!-- 15 -->
      <g transform="translate(56.880625 254.298906)scale(0.3 -0.3)">
       <use xlink:href="#DejaVuSans-49"/>
       <use x="63.623047" xlink:href="#DejaVuSans-53"/>
      </g>
     </g>
    </g>
    <g id="ytick_5">
     <g id="line2d_11">
      <g>
       <use style="stroke:#000000;stroke-width:0.8;" x="102.055625" xlink:href="#mc9946aac87" y="179.48125"/>
      </g>
     </g>
     <g id="text_12">
      <!-- 20 -->
      <g transform="translate(56.880625 190.878906)scale(0.3 -0.3)">
       <use xlink:href="#DejaVuSans-50"/>
       <use x="63.623047" xlink:href="#DejaVuSans-48"/>
      </g>
     </g>
    </g>
    <g id="ytick_6">
     <g id="line2d_12">
      <g>
       <use style="stroke:#000000;stroke-width:0.8;" x="102.055625" xlink:href="#mc9946aac87" y="116.06125"/>
      </g>
     </g>
     <g id="text_13">
      <!-- 25 -->
      <g transform="translate(56.880625 127.458906)scale(0.3 -0.3)">
       <use xlink:href="#DejaVuSans-50"/>
       <use x="63.623047" xlink:href="#DejaVuSans-53"/>
      </g>
     </g>
    </g>
    <g id="ytick_7">
     <g id="line2d_13">
      <g>
       <use style="stroke:#000000;stroke-width:0.8;" x="102.055625" xlink:href="#mc9946aac87" y="52.64125"/>
      </g>
     </g>
     <g id="text_14">
      <!-- 30 -->
      <g transform="translate(56.880625 64.038906)scale(0.3 -0.3)">
       <use xlink:href="#DejaVuSans-51"/>
       <use x="63.623047" xlink:href="#DejaVuSans-48"/>
      </g>
     </g>
    </g>
    <g id="text_15">
     <!-- CD8 NORMALIZED -->
     <defs>
      <path d="M 53.078125 26.3125 
L 67.09375 21.875 
Q 63.875 10.15625 56.375 4.46875 
Q 48.875 -1.21875 37.359375 -1.21875 
Q 23.09375 -1.21875 13.90625 8.515625 
Q 4.734375 18.265625 4.734375 35.15625 
Q 4.734375 53.03125 13.953125 62.90625 
Q 23.1875 72.796875 38.234375 72.796875 
Q 51.375 72.796875 59.578125 65.046875 
Q 64.453125 60.453125 66.890625 51.859375 
L 52.59375 48.4375 
Q 51.3125 54 47.28125 57.21875 
Q 43.265625 60.453125 37.5 60.453125 
Q 29.546875 60.453125 24.578125 54.734375 
Q 19.625 49.03125 19.625 36.234375 
Q 19.625 22.65625 24.5 16.890625 
Q 29.390625 11.140625 37.203125 11.140625 
Q 42.96875 11.140625 47.109375 14.796875 
Q 51.265625 18.453125 53.078125 26.3125 
z
" id="Arial-BoldMT-67"/>
      <path d="M 16.015625 38.625 
Q 10.6875 40.875 8.265625 44.796875 
Q 5.859375 48.734375 5.859375 53.421875 
Q 5.859375 61.421875 11.453125 66.640625 
Q 17.046875 71.875 27.34375 71.875 
Q 37.546875 71.875 43.1875 66.640625 
Q 48.828125 61.421875 48.828125 53.421875 
Q 48.828125 48.4375 46.234375 44.546875 
Q 43.65625 40.671875 38.96875 38.625 
Q 44.921875 36.234375 48.015625 31.640625 
Q 51.125 27.046875 51.125 21.046875 
Q 51.125 11.140625 44.796875 4.9375 
Q 38.484375 -1.265625 27.984375 -1.265625 
Q 18.21875 -1.265625 11.71875 3.859375 
Q 4.046875 9.90625 4.046875 20.453125 
Q 4.046875 26.265625 6.921875 31.125 
Q 9.8125 35.984375 16.015625 38.625 
z
M 18.84375 52.4375 
Q 18.84375 48.34375 21.15625 46.046875 
Q 23.484375 43.75 27.34375 43.75 
Q 31.25 43.75 33.59375 46.0625 
Q 35.9375 48.390625 35.9375 52.484375 
Q 35.9375 56.34375 33.609375 58.65625 
Q 31.296875 60.984375 27.484375 60.984375 
Q 23.53125 60.984375 21.1875 58.640625 
Q 18.84375 56.296875 18.84375 52.4375 
z
M 17.578125 21.78125 
Q 17.578125 16.109375 20.484375 12.9375 
Q 23.390625 9.765625 27.734375 9.765625 
Q 31.984375 9.765625 34.765625 12.8125 
Q 37.546875 15.875 37.546875 21.625 
Q 37.546875 26.65625 34.71875 29.703125 
Q 31.890625 32.765625 27.546875 32.765625 
Q 22.515625 32.765625 20.046875 29.296875 
Q 17.578125 25.828125 17.578125 21.78125 
z
" id="Arial-BoldMT-56"/>
      <path id="Arial-BoldMT-32"/>
      <path d="M 7.421875 0 
L 7.421875 71.578125 
L 21.484375 71.578125 
L 50.78125 23.78125 
L 50.78125 71.578125 
L 64.203125 71.578125 
L 64.203125 0 
L 49.703125 0 
L 20.84375 46.6875 
L 20.84375 0 
z
" id="Arial-BoldMT-78"/>
      <path d="M 4.34375 35.359375 
Q 4.34375 46.296875 7.625 53.71875 
Q 10.0625 59.1875 14.28125 63.53125 
Q 18.5 67.875 23.53125 69.96875 
Q 30.21875 72.796875 38.96875 72.796875 
Q 54.78125 72.796875 64.28125 62.984375 
Q 73.78125 53.171875 73.78125 35.6875 
Q 73.78125 18.359375 64.359375 8.5625 
Q 54.9375 -1.21875 39.15625 -1.21875 
Q 23.1875 -1.21875 13.765625 8.515625 
Q 4.34375 18.265625 4.34375 35.359375 
z
M 19.234375 35.84375 
Q 19.234375 23.6875 24.84375 17.40625 
Q 30.46875 11.140625 39.109375 11.140625 
Q 47.75 11.140625 53.296875 17.359375 
Q 58.84375 23.578125 58.84375 36.03125 
Q 58.84375 48.34375 53.4375 54.390625 
Q 48.046875 60.453125 39.109375 60.453125 
Q 30.171875 60.453125 24.703125 54.3125 
Q 19.234375 48.1875 19.234375 35.84375 
z
" id="Arial-BoldMT-79"/>
      <path d="M 7.078125 0 
L 7.078125 71.578125 
L 28.71875 71.578125 
L 41.703125 22.75 
L 54.546875 71.578125 
L 76.21875 71.578125 
L 76.21875 0 
L 62.796875 0 
L 62.796875 56.34375 
L 48.578125 0 
L 34.671875 0 
L 20.515625 56.34375 
L 20.515625 0 
z
" id="Arial-BoldMT-77"/>
      <path d="M 7.671875 0 
L 7.671875 71 
L 22.125 71 
L 22.125 12.0625 
L 58.0625 12.0625 
L 58.0625 0 
z
" id="Arial-BoldMT-76"/>
      <path d="M 1.078125 0 
L 1.078125 13.03125 
L 38.671875 59.46875 
L 5.328125 59.46875 
L 5.328125 71.578125 
L 57.71875 71.578125 
L 57.71875 60.359375 
L 18.5 12.0625 
L 59.234375 12.0625 
L 59.234375 0 
z
" id="Arial-BoldMT-90"/>
      <path d="M 7.28125 0 
L 7.28125 71.578125 
L 60.359375 71.578125 
L 60.359375 59.46875 
L 21.734375 59.46875 
L 21.734375 43.609375 
L 57.671875 43.609375 
L 57.671875 31.546875 
L 21.734375 31.546875 
L 21.734375 12.0625 
L 61.71875 12.0625 
L 61.71875 0 
z
" id="Arial-BoldMT-69"/>
     </defs>
     <g transform="translate(21.253125 332.343437)rotate(-90)scale(0.2 -0.2)">
      <use xlink:href="#Arial-BoldMT-67"/>
      <use x="72.216797" xlink:href="#Arial-BoldMT-68"/>
      <use x="144.433594" xlink:href="#Arial-BoldMT-56"/>
      <use x="200.048828" xlink:href="#Arial-BoldMT-32"/>
      <use x="227.832031" xlink:href="#Arial-BoldMT-78"/>
      <use x="300.048828" xlink:href="#Arial-BoldMT-79"/>
      <use x="377.832031" xlink:href="#Arial-BoldMT-82"/>
      <use x="450.048828" xlink:href="#Arial-BoldMT-77"/>
      <use x="533.349609" xlink:href="#Arial-BoldMT-65"/>
      <use x="605.566406" xlink:href="#Arial-BoldMT-76"/>
      <use x="666.650391" xlink:href="#Arial-BoldMT-73"/>
      <use x="694.433594" xlink:href="#Arial-BoldMT-90"/>
      <use x="755.517578" xlink:href="#Arial-BoldMT-69"/>
      <use x="822.216797" xlink:href="#Arial-BoldMT-68"/>
     </g>
     <!-- CELL COUNTS (NUMBERS) -->
     <defs>
      <path d="M 23.390625 0 
L 23.390625 59.46875 
L 2.15625 59.46875 
L 2.15625 71.578125 
L 59.03125 71.578125 
L 59.03125 59.46875 
L 37.84375 59.46875 
L 37.84375 0 
z
" id="Arial-BoldMT-84"/>
      <path d="M 29.9375 -21.046875 
L 20.515625 -21.046875 
Q 13.03125 -9.765625 9.125 2.390625 
Q 5.21875 14.546875 5.21875 25.921875 
Q 5.21875 40.046875 10.0625 52.640625 
Q 14.265625 63.578125 20.703125 72.796875 
L 30.078125 72.796875 
Q 23.390625 58.015625 20.875 47.625 
Q 18.359375 37.25 18.359375 25.640625 
Q 18.359375 17.625 19.84375 9.21875 
Q 21.34375 0.828125 23.921875 -6.734375 
Q 25.640625 -11.71875 29.9375 -21.046875 
z
" id="Arial-BoldMT-40"/>
      <path d="M 7.328125 71.578125 
L 35.9375 71.578125 
Q 44.4375 71.578125 48.609375 70.875 
Q 52.78125 70.171875 56.078125 67.921875 
Q 59.375 65.671875 61.5625 61.9375 
Q 63.765625 58.203125 63.765625 53.5625 
Q 63.765625 48.53125 61.046875 44.328125 
Q 58.34375 40.140625 53.71875 38.03125 
Q 60.25 36.140625 63.765625 31.546875 
Q 67.28125 26.953125 67.28125 20.75 
Q 67.28125 15.875 65.015625 11.25 
Q 62.75 6.640625 58.8125 3.875 
Q 54.890625 1.125 49.125 0.484375 
Q 45.515625 0.09375 31.6875 0 
L 7.328125 0 
z
M 21.78125 59.671875 
L 21.78125 43.109375 
L 31.25 43.109375 
Q 39.703125 43.109375 41.75 43.359375 
Q 45.453125 43.796875 47.578125 45.921875 
Q 49.703125 48.046875 49.703125 51.515625 
Q 49.703125 54.828125 47.875 56.90625 
Q 46.046875 58.984375 42.4375 59.421875 
Q 40.28125 59.671875 30.078125 59.671875 
z
M 21.78125 31.203125 
L 21.78125 12.0625 
L 35.15625 12.0625 
Q 42.96875 12.0625 45.0625 12.5 
Q 48.296875 13.09375 50.3125 15.359375 
Q 52.34375 17.625 52.34375 21.4375 
Q 52.34375 24.65625 50.78125 26.90625 
Q 49.21875 29.15625 46.265625 30.171875 
Q 43.3125 31.203125 33.453125 31.203125 
z
" id="Arial-BoldMT-66"/>
      <path d="M 3.375 -21.046875 
Q 7.421875 -12.359375 9.078125 -7.71875 
Q 10.75 -3.078125 12.15625 2.96875 
Q 13.578125 9.03125 14.25 14.46875 
Q 14.9375 19.921875 14.9375 25.640625 
Q 14.9375 37.25 12.453125 47.625 
Q 9.96875 58.015625 3.265625 72.796875 
L 12.59375 72.796875 
Q 19.96875 62.3125 24.046875 50.53125 
Q 28.125 38.765625 28.125 26.65625 
Q 28.125 16.453125 24.90625 4.78125 
Q 21.234375 -8.296875 12.84375 -21.046875 
z
" id="Arial-BoldMT-41"/>
     </defs>
     <g transform="translate(42.67125 374.002812)rotate(-90)scale(0.2 -0.2)">
      <use xlink:href="#Arial-BoldMT-67"/>
      <use x="72.216797" xlink:href="#Arial-BoldMT-69"/>
      <use x="138.916016" xlink:href="#Arial-BoldMT-76"/>
      <use x="200" xlink:href="#Arial-BoldMT-76"/>
      <use x="261.068359" xlink:href="#Arial-BoldMT-32"/>
      <use x="288.851562" xlink:href="#Arial-BoldMT-67"/>
      <use x="361.068359" xlink:href="#Arial-BoldMT-79"/>
      <use x="438.851562" xlink:href="#Arial-BoldMT-85"/>
      <use x="511.068359" xlink:href="#Arial-BoldMT-78"/>
      <use x="583.285156" xlink:href="#Arial-BoldMT-84"/>
      <use x="644.369141" xlink:href="#Arial-BoldMT-83"/>
      <use x="711.068359" xlink:href="#Arial-BoldMT-32"/>
      <use x="738.851562" xlink:href="#Arial-BoldMT-40"/>
      <use x="772.152344" xlink:href="#Arial-BoldMT-78"/>
      <use x="844.369141" xlink:href="#Arial-BoldMT-85"/>
      <use x="916.585938" xlink:href="#Arial-BoldMT-77"/>
      <use x="999.886719" xlink:href="#Arial-BoldMT-66"/>
      <use x="1072.103516" xlink:href="#Arial-BoldMT-69"/>
      <use x="1138.802734" xlink:href="#Arial-BoldMT-82"/>
      <use x="1211.019531" xlink:href="#Arial-BoldMT-83"/>
      <use x="1277.71875" xlink:href="#Arial-BoldMT-41"/>
     </g>
    </g>
   </g>
   <g id="line2d_14">
    <path clip-path="url(#pba705be2fd)" d="M 102.055625 331.68925 
L 113.891989 350.71525 
L 125.728352 380.31125 
L 137.564716 357.761917 
L 149.40108 280.42475 
L 161.237443 275.87965 
L 173.073807 342.25925 
L 184.91017 346.18525 
L 196.746534 357.05725 
L 208.582898 362.929472 
L 220.419261 358.53705 
L 232.255625 352.637068 
L 244.091989 345.782583 
L 255.928352 351.690942 
L 267.764716 355.39625 
L 279.60108 329.434317 
L 291.437443 330.235875 
L 303.273807 329.326544 
L 315.11017 318.418028 
L 326.946534 333.024408 
L 338.782898 333.59185 
L 350.619261 332.393917 
L 362.455625 337.358614 
L 374.291989 346.946815 
L 386.128352 357.05725 
L 397.964716 356.12709 
L 409.80108 366.082404 
L 421.637443 362.537991 
L 433.473807 359.92625 
L 445.31017 363.107664 
L 457.146534 363.82205 
L 468.982898 358.01196 
L 480.819261 355.339625 
L 492.655625 360.132159 
" style="fill:none;stroke:#08306b;stroke-linecap:square;stroke-width:1.5;"/>
   </g>
   <g id="line2d_15">
    <path clip-path="url(#pba705be2fd)" d="M 102.055625 357.05725 
L 113.891989 348.60125 
L 125.728352 344.37325 
L 137.564716 340.849917 
L 149.40108 382.42525 
L 161.237443 401.45125 
L 173.073807 379.25425 
L 184.91017 374.27125 
L 196.746534 380.5755 
L 208.582898 385.948583 
L 220.419261 368.26145 
L 232.255625 340.529614 
L 244.091989 322.528583 
L 255.928352 314.289404 
L 267.764716 317.34425 
L 279.60108 332.11205 
L 291.437443 334.199625 
L 303.273807 349.098662 
L 315.11017 348.248917 
L 326.946534 350.826513 
L 338.782898 342.57635 
L 350.619261 353.332583 
L 362.455625 349.466068 
L 374.291989 344.189424 
L 386.128352 354.1505 
L 397.964716 345.21885 
L 409.80108 345.755481 
L 421.637443 350.558657 
L 433.473807 357.58575 
L 445.31017 354.505871 
L 457.146534 346.06445 
L 468.982898 344.782411 
L 480.819261 343.118062 
L 492.655625 356.03228 
" style="fill:none;stroke:#08306b;stroke-linecap:square;stroke-width:1.5;"/>
   </g>
   <g id="line2d_16">
    <path clip-path="url(#pba705be2fd)" d="M 102.055625 433.16125 
L 113.891989 433.16125 
L 125.728352 424.70525 
L 137.564716 387.357917 
L 149.40108 387.18175 
L 161.237443 359.59405 
L 173.073807 338.03125 
L 184.91017 304.20725 
L 196.746534 304.20725 
L 208.582898 338.970806 
L 220.419261 342.68205 
L 232.255625 344.37325 
L 244.091989 340.849917 
L 255.928352 349.902173 
L 267.764716 362.64425 
L 279.60108 358.607517 
L 291.437443 353.622 
L 303.273807 352.953603 
L 315.11017 356.704917 
L 326.946534 367.515987 
L 338.782898 365.93605 
L 350.619261 369.74125 
L 362.455625 351.580068 
L 374.291989 349.152728 
L 386.128352 350.9795 
L 397.964716 346.31813 
L 409.80108 343.31625 
L 421.637443 337.40488 
L 433.473807 335.69075 
L 445.31017 329.721043 
L 457.146534 341.131783 
L 468.982898 344.577831 
L 480.819261 349.261875 
L 492.655625 355.135432 
" style="fill:none;stroke:#08306b;stroke-linecap:square;stroke-width:1.5;"/>
   </g>
   <g id="line2d_17">
    <path clip-path="url(#pba705be2fd)" d="M 102.055625 293.63725 
L 113.891989 348.60125 
L 125.728352 354.94325 
L 137.564716 354.94325 
L 149.40108 317.41975 
L 161.237443 332.11205 
L 173.073807 339.08825 
L 184.91017 312.36125 
L 196.746534 341.4665 
L 208.582898 362.694583 
L 220.419261 370.37545 
L 232.255625 359.17125 
L 244.091989 345.782583 
L 255.928352 353.967558 
L 267.764716 343.31625 
L 279.60108 337.890317 
L 291.437443 320.722875 
L 303.273807 328.953485 
L 315.11017 340.497583 
L 326.946534 346.598513 
L 338.782898 349.65825 
L 350.619261 359.070583 
L 362.455625 370.221705 
L 374.291989 360.182293 
L 386.128352 349.482083 
L 397.964716 348.34757 
L 409.80108 346.48725 
L 421.637443 357.213843 
L 433.473807 349.35625 
L 445.31017 342.113457 
L 457.146534 336.692383 
L 468.982898 338.03125 
L 480.819261 343.052 
L 492.655625 352.957371 
" style="fill:none;stroke:#08306b;stroke-linecap:square;stroke-width:1.5;"/>
   </g>
   <g id="line2d_18">
    <path clip-path="url(#pba705be2fd)" d="M 102.055625 331.68925 
L 113.891989 382.42525 
L 125.728352 329.57525 
L 137.564716 342.963917 
L 149.40108 350.18675 
L 161.237443 350.29245 
L 173.073807 334.155583 
L 184.91017 376.98925 
L 196.746534 378.4615 
L 208.582898 389.941694 
L 220.419261 376.08325 
L 232.255625 360.516523 
L 244.091989 356.176417 
L 255.928352 346.812481 
L 267.764716 326.85725 
L 279.60108 322.81045 
L 291.437443 325.743625 
L 303.273807 331.813603 
L 315.11017 338.618472 
L 326.946534 361.396513 
L 338.782898 376.29465 
L 350.619261 376.485917 
L 362.455625 389.535977 
L 374.291989 373.325859 
L 386.128352 359.69975 
L 397.964716 345.72621 
L 409.80108 335.022865 
L 421.637443 338.65762 
L 433.473807 331.08525 
L 445.31017 341.894767 
L 457.146534 338.735917 
L 468.982898 346.760024 
L 480.819261 354.94325 
L 492.655625 360.452462 
" style="fill:none;stroke:#08306b;stroke-linecap:square;stroke-width:1.5;"/>
   </g>
   <g id="line2d_19">
    <path clip-path="url(#pba705be2fd)" d="M 102.055625 433.16125 
L 113.891989 344.37325 
L 125.728352 285.18125 
L 137.564716 316.186583 
L 149.40108 347.54425 
L 161.237443 379.46565 
L 173.073807 377.14025 
L 184.91017 388.46525 
L 196.746534 383.7465 
L 208.582898 359.641028 
L 220.419261 350.08105 
L 232.255625 343.604523 
L 244.091989 349.65825 
L 255.928352 340.307865 
L 267.764716 356.30225 
L 279.60108 344.655117 
L 291.437443 343.84475 
L 303.273807 331.813603 
L 315.11017 350.010583 
L 326.946534 353.830618 
L 338.782898 354.83755 
L 350.619261 356.956583 
L 362.455625 362.246159 
L 374.291989 357.516815 
L 386.128352 360.75675 
L 397.964716 361.03157 
L 409.80108 368.196404 
L 421.637443 375.065398 
L 433.473807 368.83525 
L 445.31017 359.608629 
L 457.146534 342.822983 
L 468.982898 320.573702 
L 480.819261 318.542812 
L 492.655625 333.611068 
" style="fill:none;stroke:#08306b;stroke-linecap:square;stroke-width:1.5;"/>
   </g>
   <g id="line2d_20">
    <path clip-path="url(#pba705be2fd)" d="M 102.055625 433.16125 
L 113.891989 414.13525 
L 125.728352 398.28025 
L 137.564716 366.217917 
L 149.40108 338.55975 
L 161.237443 368.89565 
L 173.073807 349.65825 
L 184.91017 345.27925 
L 196.746534 354.679 
L 208.582898 339.205694 
L 220.419261 367.62725 
L 232.255625 375.314523 
L 244.091989 362.166083 
L 255.928352 363.074019 
L 267.764716 353.28225 
L 279.60108 343.52765 
L 291.437443 347.412125 
L 303.273807 342.010544 
L 315.11017 340.262694 
L 326.946534 336.028513 
L 338.782898 335.91725 
L 350.619261 343.16525 
L 362.455625 348.793432 
L 374.291989 347.774033 
L 386.128352 354.41475 
L 397.964716 353.75941 
L 409.80108 344.779788 
L 421.637443 351.419917 
L 433.473807 354.33925 
L 445.31017 355.453526 
L 457.146534 351.701783 
L 468.982898 346.760024 
L 480.819261 343.84475 
L 492.655625 355.071371 
" style="fill:none;stroke:#08306b;stroke-linecap:square;stroke-width:1.5;"/>
   </g>
   <g id="line2d_21">
    <path clip-path="url(#pba705be2fd)" d="M 102.055625 369.74125 
L 113.891989 403.56525 
L 125.728352 353.88625 
L 137.564716 344.37325 
L 149.40108 336.97425 
L 161.237443 305.89845 
L 173.073807 264.04125 
L 184.91017 267.66525 
L 196.746534 311.8705 
L 208.582898 343.433694 
L 220.419261 355.36605 
L 232.255625 356.480705 
L 244.091989 358.64275 
L 255.928352 371.530019 
L 267.764716 369.13725 
L 279.60108 354.09765 
L 291.437443 363.92775 
L 303.273807 350.963956 
L 315.11017 343.433694 
L 326.946534 347.266092 
L 338.782898 330.73795 
L 350.619261 344.473917 
L 362.455625 357.153341 
L 374.291989 351.174815 
L 386.128352 349.482083 
L 397.964716 345.47253 
L 409.80108 349.170404 
L 421.637443 354.31688 
L 433.473807 365.06025 
L 445.31017 369.012284 
L 457.146534 356.84585 
L 468.982898 348.192089 
L 480.819261 344.307187 
L 492.655625 350.266826 
" style="fill:none;stroke:#08306b;stroke-linecap:square;stroke-width:1.5;"/>
   </g>
   <g id="line2d_22">
    <path clip-path="url(#pba705be2fd)" d="M 102.055625 357.05725 
L 113.891989 378.19725 
L 125.728352 384.53925 
L 137.564716 393.699917 
L 149.40108 382.42525 
L 161.237443 342.68205 
L 173.073807 358.818917 
L 184.91017 369.13725 
L 196.746534 373.705 
L 208.582898 350.480361 
L 220.419261 352.40645 
L 232.255625 363.014886 
L 244.091989 361.461417 
L 255.928352 368.440327 
L 267.764716 358.56725 
L 279.60108 362.694583 
L 291.437443 362.6065 
L 303.273807 360.041721 
L 315.11017 358.466583 
L 326.946534 350.937776 
L 338.782898 368.26145 
L 350.619261 345.681917 
L 362.455625 340.241341 
L 374.291989 343.637946 
L 386.128352 344.197083 
L 397.964716 347.84021 
L 409.80108 340.14525 
L 421.637443 334.664509 
L 433.473807 339.46575 
L 445.31017 342.25925 
L 457.146534 334.86025 
L 468.982898 339.667895 
L 480.819261 337.700937 
L 492.655625 332.137674 
" style="fill:none;stroke:#08306b;stroke-linecap:square;stroke-width:1.5;"/>
   </g>
   <g id="line2d_23">
    <path clip-path="url(#pba705be2fd)" d="M 102.055625 433.16125 
L 113.891989 422.59125 
L 125.728352 387.71025 
L 137.564716 394.404583 
L 149.40108 403.03675 
L 161.237443 382.00245 
L 173.073807 336.621917 
L 184.91017 331.08525 
L 196.746534 340.14525 
L 208.582898 336.152139 
L 220.419261 308.85805 
L 232.255625 343.604523 
L 244.091989 350.71525 
L 255.928352 349.251712 
L 267.764716 346.48725 
L 279.60108 352.124583 
L 291.437443 358.774875 
L 303.273807 359.544309 
L 315.11017 361.402694 
L 326.946534 359.505039 
L 338.782898 335.60015 
L 350.619261 343.064583 
L 362.455625 335.628977 
L 374.291989 349.244641 
L 386.128352 355.119417 
L 397.964716 362.13085 
L 409.80108 369.172096 
L 421.637443 361.520139 
L 433.473807 350.03575 
L 445.31017 336.719112 
L 457.146534 335.423983 
L 468.982898 339.395121 
L 480.819261 357.05725 
L 492.655625 368.139735 
" style="fill:none;stroke:#08306b;stroke-linecap:square;stroke-width:1.5;"/>
   </g>
   <g id="line2d_24">
    <path clip-path="url(#pba705be2fd)" d="M 102.055625 433.16125 
L 113.891989 428.93325 
L 125.728352 415.19225 
L 137.564716 384.53925 
L 149.40108 381.36825 
L 161.237443 402.29685 
L 173.073807 398.984917 
L 184.91017 405.07525 
L 196.746534 397.75175 
L 208.582898 398.867472 
L 220.419261 398.91445 
L 232.255625 402.988705 
L 244.091989 398.80875 
L 255.928352 402.589558 
L 267.764716 391.03225 
L 279.60108 386.935117 
L 291.437443 388.370875 
L 303.273807 390.259485 
L 315.11017 400.864028 
L 326.946534 403.008934 
L 338.782898 395.00355 
L 350.619261 396.820583 
L 362.455625 394.917068 
L 374.291989 392.443772 
L 386.128352 391.233583 
L 397.964716 402.88877 
L 409.80108 400.39425 
L 421.637443 403.017176 
L 433.473807 396.01525 
L 445.31017 401.305457 
L 457.146534 400.323783 
L 468.982898 399.405444 
L 480.819261 401.517312 
L 492.655625 412.405614 
" style="fill:none;stroke:#4a98c9;stroke-linecap:square;stroke-width:1.5;"/>
   </g>
   <g id="line2d_25">
    <path clip-path="url(#pba705be2fd)" d="M 102.055625 420.47725 
L 113.891989 399.33725 
L 125.728352 394.05225 
L 137.564716 411.316583 
L 149.40108 393.52375 
L 161.237443 396.80045 
L 173.073807 404.62225 
L 184.91017 402.96125 
L 196.746534 413.60675 
L 208.582898 419.537694 
L 220.419261 419.42025 
L 232.255625 403.757432 
L 244.091989 385.243917 
L 255.928352 388.279404 
L 267.764716 373.51625 
L 279.60108 384.257383 
L 291.437443 399.86575 
L 303.273807 400.207721 
L 315.11017 400.159361 
L 326.946534 399.782303 
L 338.782898 407.05335 
L 350.619261 405.578583 
L 362.455625 397.607614 
L 374.291989 397.407076 
L 386.128352 394.845 
L 397.964716 395.44749 
L 409.80108 400.39425 
L 421.637443 402.155917 
L 433.473807 395.41125 
L 445.31017 395.619526 
L 457.146534 390.45845 
L 468.982898 389.585573 
L 480.819261 391.806125 
L 492.655625 407.857311 
" style="fill:none;stroke:#4a98c9;stroke-linecap:square;stroke-width:1.5;"/>
   </g>
   <g id="line2d_26">
    <path clip-path="url(#pba705be2fd)" d="M 102.055625 433.16125 
L 113.891989 431.04725 
L 125.728352 425.76225 
L 137.564716 405.67925 
L 149.40108 399.86575 
L 161.237443 384.53925 
L 173.073807 395.461583 
L 184.91017 378.19725 
L 196.746534 390.35275 
L 208.582898 396.753472 
L 220.419261 392.36105 
L 232.255625 397.799795 
L 244.091989 394.933083 
L 255.928352 399.825096 
L 267.764716 399.33725 
L 279.60108 402.155917 
L 291.437443 395.3735 
L 303.273807 398.218074 
L 315.11017 396.283694 
L 326.946534 394.664197 
L 338.782898 401.66265 
L 350.619261 404.974583 
L 362.455625 396.646705 
L 374.291989 393.91438 
L 386.128352 401.098917 
L 397.964716 394.43277 
L 409.80108 395.027942 
L 421.637443 396.048806 
L 433.473807 395.10925 
L 445.31017 396.567181 
L 457.146534 395.32065 
L 468.982898 394.700089 
L 480.819261 397.4875 
L 492.655625 410.163492 
" style="fill:none;stroke:#4a98c9;stroke-linecap:square;stroke-width:1.5;"/>
   </g>
   <g id="line2d_27">
    <path clip-path="url(#pba705be2fd)" d="M 102.055625 433.16125 
L 113.891989 418.36325 
L 125.728352 405.67925 
L 137.564716 386.65325 
L 149.40108 354.94325 
L 161.237443 372.27805 
L 173.073807 374.673917 
L 184.91017 379.70725 
L 196.746534 392.731 
L 208.582898 395.813917 
L 220.419261 403.14245 
L 232.255625 393.956159 
L 244.091989 395.813917 
L 255.928352 398.036327 
L 267.764716 404.01825 
L 279.60108 407.37045 
L 291.437443 399.6015 
L 303.273807 392.622191 
L 315.11017 391.820806 
L 326.946534 393.440303 
L 338.782898 391.09265 
L 350.619261 390.478583 
L 362.455625 392.130432 
L 374.291989 385.45838 
L 386.128352 384.451167 
L 397.964716 385.63853 
L 409.80108 388.279404 
L 421.637443 393.230139 
L 433.473807 401.14925 
L 445.31017 400.649388 
L 457.146534 398.49165 
L 468.982898 398.996282 
L 480.819261 400.526375 
L 492.655625 409.330705 
" style="fill:none;stroke:#4a98c9;stroke-linecap:square;stroke-width:1.5;"/>
   </g>
   <g id="line2d_28">
    <path clip-path="url(#pba705be2fd)" d="M 102.055625 420.47725 
L 113.891989 386.65325 
L 125.728352 382.42525 
L 137.564716 392.290583 
L 149.40108 391.93825 
L 161.237443 383.69365 
L 173.073807 398.984917 
L 184.91017 412.92725 
L 196.746534 409.90725 
L 208.582898 410.377028 
L 220.419261 401.23985 
L 232.255625 399.33725 
L 244.091989 400.570417 
L 255.928352 392.832635 
L 267.764716 386.20025 
L 279.60108 382.988983 
L 291.437443 385.332 
L 303.273807 380.808662 
L 315.11017 385.713694 
L 326.946534 393.440303 
L 338.782898 408.95595 
L 350.619261 404.873917 
L 362.455625 408.369795 
L 374.291989 402.094641 
L 386.128352 398.896833 
L 397.964716 400.94389 
L 409.80108 387.628942 
L 421.637443 387.27962 
L 433.473807 384.23725 
L 445.31017 394.817664 
L 457.146534 388.908183 
L 468.982898 393.131637 
L 480.819261 402.244 
L 492.655625 413.494644 
" style="fill:none;stroke:#4a98c9;stroke-linecap:square;stroke-width:1.5;"/>
   </g>
   <g id="line2d_29">
    <path clip-path="url(#pba705be2fd)" d="M 102.055625 433.16125 
L 113.891989 420.47725 
L 125.728352 400.39425 
L 137.564716 405.67925 
L 149.40108 421.00575 
L 161.237443 415.40365 
L 173.073807 409.90725 
L 184.91017 418.06125 
L 196.746534 401.97975 
L 208.582898 405.209472 
L 220.419261 396.37765 
L 232.255625 405.487068 
L 244.091989 403.389083 
L 255.928352 396.898019 
L 267.764716 388.76725 
L 279.60108 381.57965 
L 291.437443 379.386375 
L 303.273807 378.943368 
L 315.11017 380.781028 
L 326.946534 381.201355 
L 338.782898 379.46565 
L 350.619261 381.116583 
L 362.455625 387.421977 
L 374.291989 395.201163 
L 386.128352 404.09375 
L 397.964716 405.00277 
L 409.80108 410.882942 
L 421.637443 405.835843 
L 433.473807 408.09525 
L 445.31017 403.200767 
L 457.146534 390.951717 
L 468.982898 373.901056 
L 480.819261 372.714062 
L 492.655625 382.809614 
" style="fill:none;stroke:#4a98c9;stroke-linecap:square;stroke-width:1.5;"/>
   </g>
   <g id="line2d_30">
    <path clip-path="url(#pba705be2fd)" d="M 102.055625 433.16125 
L 113.891989 409.90725 
L 125.728352 416.24925 
L 137.564716 421.886583 
L 149.40108 406.20775 
L 161.237443 392.99525 
L 173.073807 394.05225 
L 184.91017 402.65925 
L 196.746534 401.97975 
L 208.582898 392.525472 
L 220.419261 391.72685 
L 232.255625 396.262341 
L 244.091989 396.16625 
L 255.928352 396.735404 
L 267.764716 399.03525 
L 279.60108 392.008717 
L 291.437443 390.220625 
L 303.273807 389.264662 
L 315.11017 396.753472 
L 326.946534 400.894934 
L 338.782898 392.67815 
L 350.619261 391.585917 
L 362.455625 390.785159 
L 374.291989 391.432728 
L 386.128352 396.959 
L 397.964716 396.63133 
L 409.80108 398.930712 
L 421.637443 395.579028 
L 433.473807 397.44975 
L 445.31017 399.701733 
L 457.146534 400.323783 
L 468.982898 393.881766 
L 480.819261 393.325562 
L 492.655625 406.191735 
" style="fill:none;stroke:#4a98c9;stroke-linecap:square;stroke-width:1.5;"/>
   </g>
   <g id="line2d_31">
    <path clip-path="url(#pba705be2fd)" d="M 102.055625 420.47725 
L 113.891989 397.22325 
L 125.728352 398.28025 
L 137.564716 404.974583 
L 149.40108 389.29575 
L 161.237443 374.39205 
L 173.073807 370.79825 
L 184.91017 379.10325 
L 196.746534 394.58075 
L 208.582898 379.841472 
L 220.419261 387.07605 
L 232.255625 388.382886 
L 244.091989 395.10925 
L 255.928352 390.88125 
L 267.764716 395.56225 
L 279.60108 396.518583 
L 291.437443 397.619625 
L 303.273807 381.430426 
L 315.11017 379.958917 
L 326.946534 371.410197 
L 338.782898 374.18065 
L 350.619261 378.599917 
L 362.455625 388.863341 
L 374.291989 393.454815 
L 386.128352 388.591083 
L 397.964716 391.98053 
L 409.80108 395.434481 
L 421.637443 404.269917 
L 433.473807 404.62225 
L 445.31017 399.045664 
L 457.146534 392.501983 
L 468.982898 394.222734 
L 480.819261 398.016 
L 492.655625 404.782402 
" style="fill:none;stroke:#4a98c9;stroke-linecap:square;stroke-width:1.5;"/>
   </g>
   <g id="line2d_32">
    <path clip-path="url(#pba705be2fd)" d="M 102.055625 407.79325 
L 113.891989 414.13525 
L 125.728352 419.42025 
L 137.564716 424.000583 
L 149.40108 416.77775 
L 161.237443 408.21605 
L 173.073807 408.85025 
L 184.91017 407.49125 
L 196.746534 399.6015 
L 208.582898 399.572139 
L 220.419261 385.59625 
L 232.255625 400.105977 
L 244.091989 403.212917 
L 255.928352 395.10925 
L 267.764716 390.27725 
L 279.60108 401.310317 
L 291.437443 398.148125 
L 303.273807 401.45125 
L 315.11017 394.639472 
L 326.946534 394.775461 
L 338.782898 388.76725 
L 350.619261 390.88125 
L 362.455625 381.656523 
L 374.291989 392.351859 
L 386.128352 384.363083 
L 397.964716 390.12021 
L 409.80108 392.99525 
L 421.637443 394.48288 
L 433.473807 391.25875 
L 445.31017 393.141043 
L 457.146534 386.723717 
L 468.982898 381.197766 
L 480.819261 376.809937 
L 492.655625 391.97028 
" style="fill:none;stroke:#4a98c9;stroke-linecap:square;stroke-width:1.5;"/>
   </g>
   <g id="line2d_33">
    <path clip-path="url(#pba705be2fd)" d="M 102.055625 433.16125 
L 113.891989 433.16125 
L 125.728352 433.16125 
L 137.564716 423.295917 
L 149.40108 417.30625 
L 161.237443 416.24925 
L 173.073807 391.93825 
L 184.91017 393.59925 
L 196.746534 393.788 
L 208.582898 391.820806 
L 220.419261 391.72685 
L 232.255625 393.379614 
L 244.091989 393.171417 
L 255.928352 395.10925 
L 267.764716 389.52225 
L 279.60108 392.99525 
L 291.437443 402.376125 
L 303.273807 402.321721 
L 315.11017 404.269917 
L 326.946534 397.668303 
L 338.782898 397.01185 
L 350.619261 391.18325 
L 362.455625 390.977341 
L 374.291989 390.145946 
L 386.128352 389.912333 
L 397.964716 397.47693 
L 409.80108 394.702712 
L 421.637443 391.977398 
L 433.473807 387.18175 
L 445.31017 386.43456 
L 457.146534 389.40145 
L 468.982898 385.562153 
L 480.819261 391.343687 
L 492.655625 401.771553 
" style="fill:none;stroke:#4a98c9;stroke-linecap:square;stroke-width:1.5;"/>
   </g>
   <g id="line2d_34">
    <path clip-path="url(#pba705be2fd)" d="M 102.055625 344.37325 
L 113.891989 431.04725 
L 125.728352 421.53425 
L 137.564716 419.067917 
L 149.40108 408.32175 
L 161.237443 400.18285 
L 173.073807 399.33725 
L 184.91017 396.61925 
L 196.746534 403.03675 
L 208.582898 407.323472 
L 220.419261 412.65545 
L 232.255625 413.750886 
L 244.091989 407.617083 
L 255.928352 410.557712 
L 267.764716 404.47125 
L 279.60108 403.706183 
L 291.437443 403.8295 
L 303.273807 409.285485 
L 315.11017 404.62225 
L 326.946534 405.567987 
L 338.782898 407.37045 
L 350.619261 408.195917 
L 362.455625 408.561977 
L 374.291989 406.414554 
L 386.128352 402.155917 
L 397.964716 406.69397 
L 409.80108 404.947481 
L 421.637443 405.522657 
L 433.473807 406.13225 
L 445.31017 409.542767 
L 457.146534 406.172517 
L 468.982898 410.86196 
L 480.819261 417.30625 
L 492.655625 418.042947 
" style="fill:none;stroke:#d0e1f2;stroke-linecap:square;stroke-width:1.5;"/>
   </g>
   <g id="line2d_35">
    <path clip-path="url(#pba705be2fd)" d="M 102.055625 433.16125 
L 113.891989 416.24925 
L 125.728352 415.19225 
L 137.564716 407.79325 
L 149.40108 409.37875 
L 161.237443 412.02125 
L 173.073807 417.30625 
L 184.91017 413.83325 
L 196.746534 416.5135 
L 208.582898 420.47725 
L 220.419261 418.57465 
L 232.255625 408.177614 
L 244.091989 396.870917 
L 255.928352 398.849404 
L 267.764716 394.05225 
L 279.60108 402.29685 
L 291.437443 401.97975 
L 303.273807 408.166309 
L 315.11017 416.24925 
L 326.946534 409.90725 
L 338.782898 408.53315 
L 350.619261 407.79325 
L 362.455625 406.351886 
L 374.291989 409.539598 
L 386.128352 407.440917 
L 397.964716 408.21605 
L 409.80108 407.142788 
L 421.637443 411.942954 
L 433.473807 410.81325 
L 445.31017 411.80256 
L 457.146534 406.242983 
L 468.982898 408.475185 
L 480.819261 413.540687 
L 492.655625 422.399068 
" style="fill:none;stroke:#d0e1f2;stroke-linecap:square;stroke-width:1.5;"/>
   </g>
   <g id="line2d_36">
    <path clip-path="url(#pba705be2fd)" d="M 102.055625 433.16125 
L 113.891989 424.70525 
L 125.728352 410.96425 
L 137.564716 417.658583 
L 149.40108 408.32175 
L 161.237443 409.06165 
L 173.073807 411.316583 
L 184.91017 404.77325 
L 196.746534 410.96425 
L 208.582898 406.383917 
L 220.419261 401.66265 
L 232.255625 403.180886 
L 244.091989 398.80875 
L 255.928352 407.955865 
L 267.764716 405.67925 
L 279.60108 410.33005 
L 291.437443 409.510875 
L 303.273807 410.777721 
L 315.11017 409.202583 
L 326.946534 409.350934 
L 338.782898 406.31345 
L 350.619261 411.71925 
L 362.455625 410.291614 
L 374.291989 412.94038 
L 386.128352 409.643 
L 397.964716 410.58373 
L 409.80108 408.85025 
L 421.637443 403.56525 
L 433.473807 402.81025 
L 445.31017 403.56525 
L 457.146534 400.676117 
L 468.982898 401.110282 
L 480.819261 408.718125 
L 492.655625 418.107008 
" style="fill:none;stroke:#d0e1f2;stroke-linecap:square;stroke-width:1.5;"/>
   </g>
   <g id="line2d_37">
    <path clip-path="url(#pba705be2fd)" d="M 102.055625 420.47725 
L 113.891989 405.67925 
L 125.728352 408.85025 
L 137.564716 416.953917 
L 149.40108 405.15075 
L 161.237443 399.33725 
L 173.073807 404.62225 
L 184.91017 401.45125 
L 196.746534 398.5445 
L 208.582898 410.142139 
L 220.419261 407.79325 
L 232.255625 416.825795 
L 244.091989 418.36325 
L 255.928352 408.443712 
L 267.764716 402.65925 
L 279.60108 405.961117 
L 291.437443 400.262125 
L 303.273807 403.56525 
L 315.11017 402.860583 
L 326.946534 405.790513 
L 338.782898 405.25645 
L 350.619261 403.967917 
L 362.455625 409.618977 
L 374.291989 403.932902 
L 386.128352 406.383917 
L 397.964716 407.28589 
L 409.80108 407.061481 
L 421.637443 411.629769 
L 433.473807 408.77475 
L 445.31017 405.67925 
L 457.146534 403.35385 
L 468.982898 405.67925 
L 480.819261 409.312687 
L 492.655625 419.196038 
" style="fill:none;stroke:#d0e1f2;stroke-linecap:square;stroke-width:1.5;"/>
   </g>
   <g id="line2d_38">
    <path clip-path="url(#pba705be2fd)" d="M 102.055625 407.79325 
L 113.891989 422.59125 
L 125.728352 400.39425 
L 137.564716 397.927917 
L 149.40108 414.13525 
L 161.237443 413.28965 
L 173.073807 410.259583 
L 184.91017 417.15525 
L 196.746534 415.4565 
L 208.582898 413.430583 
L 220.419261 415.61505 
L 232.255625 412.02125 
L 244.091989 412.902083 
L 255.928352 405.028788 
L 267.764716 405.67925 
L 279.60108 402.71965 
L 291.437443 393.127375 
L 303.273807 398.591132 
L 315.11017 397.22325 
L 326.946534 402.563882 
L 338.782898 408.00465 
L 350.619261 411.014583 
L 362.455625 415.960977 
L 374.291989 416.616902 
L 386.128352 412.990167 
L 397.964716 411.68301 
L 409.80108 406.492327 
L 421.637443 404.817991 
L 433.473807 403.71625 
L 445.31017 404.585802 
L 457.146534 402.93105 
L 468.982898 401.792218 
L 480.819261 409.180562 
L 492.655625 421.245977 
" style="fill:none;stroke:#d0e1f2;stroke-linecap:square;stroke-width:1.5;"/>
   </g>
   <g id="line2d_39">
    <path clip-path="url(#pba705be2fd)" d="M 102.055625 420.47725 
L 113.891989 422.59125 
L 125.728352 414.13525 
L 137.564716 410.611917 
L 149.40108 421.53425 
L 161.237443 422.59125 
L 173.073807 416.953917 
L 184.91017 425.61125 
L 196.746534 421.53425 
L 208.582898 414.370139 
L 220.419261 409.48445 
L 232.255625 405.487068 
L 244.091989 409.554917 
L 255.928352 409.256788 
L 267.764716 408.39725 
L 279.60108 406.52485 
L 291.437443 393.655875 
L 303.273807 397.098897 
L 315.11017 402.390806 
L 326.946534 404.789145 
L 338.782898 401.97975 
L 350.619261 406.182583 
L 362.455625 407.216705 
L 374.291989 411.10212 
L 386.128352 403.8295 
L 397.964716 406.94765 
L 409.80108 409.175481 
L 421.637443 410.063843 
L 433.473807 411.79475 
L 445.31017 414.426836 
L 457.146534 406.665783 
L 468.982898 395.041056 
L 480.819261 400.856687 
L 492.655625 411.508765 
" style="fill:none;stroke:#d0e1f2;stroke-linecap:square;stroke-width:1.5;"/>
   </g>
   <g id="line2d_40">
    <path clip-path="url(#pba705be2fd)" d="M 102.055625 433.16125 
L 113.891989 428.93325 
L 125.728352 416.24925 
L 137.564716 419.067917 
L 149.40108 415.72075 
L 161.237443 414.55805 
L 173.073807 401.803583 
L 184.91017 412.92725 
L 196.746534 414.13525 
L 208.582898 410.142139 
L 220.419261 399.97145 
L 232.255625 396.646705 
L 244.091989 394.05225 
L 255.928352 393.970942 
L 267.764716 403.71625 
L 279.60108 409.48445 
L 291.437443 415.72075 
L 303.273807 411.150779 
L 315.11017 404.974583 
L 326.946534 404.566618 
L 338.782898 412.54975 
L 350.619261 401.350583 
L 362.455625 407.312795 
L 374.291989 400.807859 
L 386.128352 403.917583 
L 397.964716 406.60941 
L 409.80108 408.037173 
L 421.637443 409.515769 
L 433.473807 408.69925 
L 445.31017 410.636216 
L 457.146534 406.94765 
L 468.982898 409.498089 
L 480.819261 410.105437 
L 492.655625 419.324159 
" style="fill:none;stroke:#d0e1f2;stroke-linecap:square;stroke-width:1.5;"/>
   </g>
   <g id="line2d_41">
    <path clip-path="url(#pba705be2fd)" d="M 102.055625 420.47725 
L 113.891989 416.24925 
L 125.728352 406.73625 
L 137.564716 402.155917 
L 149.40108 394.58075 
L 161.237443 405.25645 
L 173.073807 396.16625 
L 184.91017 394.20325 
L 196.746534 391.93825 
L 208.582898 404.269917 
L 220.419261 400.39425 
L 232.255625 401.643432 
L 244.091989 408.497917 
L 255.928352 409.744635 
L 267.764716 409.15225 
L 279.60108 412.303117 
L 291.437443 407.529 
L 303.273807 406.798426 
L 315.11017 406.501361 
L 326.946534 407.570724 
L 338.782898 401.45125 
L 350.619261 406.786583 
L 362.455625 412.886068 
L 374.291989 410.274902 
L 386.128352 406.73625 
L 397.964716 407.96237 
L 409.80108 404.866173 
L 421.637443 409.985546 
L 433.473807 414.66375 
L 445.31017 412.896009 
L 457.146534 410.893783 
L 468.982898 407.452282 
L 480.819261 411.955187 
L 492.655625 419.900705 
" style="fill:none;stroke:#d0e1f2;stroke-linecap:square;stroke-width:1.5;"/>
   </g>
   <g id="line2d_42">
    <path clip-path="url(#pba705be2fd)" d="M 102.055625 433.16125 
L 113.891989 433.16125 
L 125.728352 417.30625 
L 137.564716 425.409917 
L 149.40108 416.24925 
L 161.237443 417.94045 
L 173.073807 418.36325 
L 184.91017 411.71925 
L 196.746534 402.7725 
L 208.582898 408.967694 
L 220.419261 406.31345 
L 232.255625 404.141795 
L 244.091989 401.45125 
L 255.928352 406.492327 
L 267.764716 409.30325 
L 279.60108 405.820183 
L 291.437443 405.9435 
L 303.273807 409.161132 
L 315.11017 407.675806 
L 326.946534 405.122934 
L 338.782898 411.28135 
L 350.619261 404.77325 
L 362.455625 406.351886 
L 374.291989 406.966033 
L 386.128352 408.938333 
L 397.964716 408.55429 
L 409.80108 406.573635 
L 421.637443 409.90725 
L 433.473807 410.88875 
L 445.31017 411.656767 
L 457.146534 406.454383 
L 468.982898 403.497056 
L 480.819261 408.0575 
L 492.655625 416.24925 
" style="fill:none;stroke:#d0e1f2;stroke-linecap:square;stroke-width:1.5;"/>
   </g>
   <g id="line2d_43">
    <path clip-path="url(#pba705be2fd)" d="M 102.055625 433.16125 
L 113.891989 431.04725 
L 125.728352 420.47725 
L 137.564716 426.114583 
L 149.40108 424.17675 
L 161.237443 417.94045 
L 173.073807 408.497917 
L 184.91017 395.10925 
L 196.746534 395.3735 
L 208.582898 398.397694 
L 220.419261 399.33725 
L 232.255625 403.56525 
L 244.091989 411.668917 
L 255.928352 406.980173 
L 267.764716 405.98125 
L 279.60108 411.316583 
L 291.437443 411.757 
L 303.273807 415.005721 
L 315.11017 410.494472 
L 326.946534 407.570724 
L 338.782898 411.80985 
L 350.619261 402.860583 
L 362.455625 404.333977 
L 374.291989 406.506467 
L 386.128352 406.20775 
L 397.964716 411.09109 
L 409.80108 410.232481 
L 421.637443 411.551472 
L 433.473807 408.17075 
L 445.31017 404.367112 
L 457.146534 404.904117 
L 468.982898 407.520476 
L 480.819261 413.012187 
L 492.655625 420.605371 
" style="fill:none;stroke:#d0e1f2;stroke-linecap:square;stroke-width:1.5;"/>
   </g>
   <g id="line2d_44">
    <path clip-path="url(#pba705be2fd)" d="M 102.055625 433.16125 
L 113.891989 431.04725 
L 125.728352 386.65325 
L 137.564716 376.08325 
L 149.40108 365.51325 
L 161.237443 360.86245 
L 173.073807 368.68425 
L 184.91017 370.94925 
L 196.746534 365.249 
L 208.582898 390.646361 
L 220.419261 401.02845 
L 232.255625 391.649977 
L 244.091989 381.720583 
L 255.928352 379.823404 
L 267.764716 363.55025 
L 279.60108 349.587783 
L 291.437443 364.588375 
L 303.273807 371.979603 
L 315.11017 368.214472 
L 326.946534 372.077776 
L 338.782898 367.20445 
L 350.619261 361.28525 
L 362.455625 370.79825 
L 374.291989 368.454467 
L 386.128352 371.414833 
L 397.964716 368.98021 
L 409.80108 372.261788 
L 421.637443 371.85525 
L 433.473807 365.73975 
L 445.31017 369.158078 
L 457.146534 371.996183 
L 468.982898 366.945315 
L 480.819261 378.4615 
L 492.655625 388.76725 
" style="fill:none;stroke:#1764ab;stroke-linecap:square;stroke-width:1.5;"/>
   </g>
   <g id="line2d_45">
    <path clip-path="url(#pba705be2fd)" d="M 102.055625 433.16125 
L 113.891989 392.99525 
L 125.728352 359.17125 
L 137.564716 359.875917 
L 149.40108 378.19725 
L 161.237443 387.92165 
L 173.073807 379.606583 
L 184.91017 378.49925 
L 196.746534 392.2025 
L 208.582898 401.216361 
L 220.419261 385.80765 
L 232.255625 374.161432 
L 244.091989 348.953583 
L 255.928352 346.324635 
L 267.764716 344.22225 
L 279.60108 348.17845 
L 291.437443 349.65825 
L 303.273807 364.642779 
L 315.11017 353.181583 
L 326.946534 361.619039 
L 338.782898 376.82315 
L 350.619261 378.901917 
L 362.455625 369.645159 
L 374.291989 361.193337 
L 386.128352 367.451083 
L 397.964716 370.67141 
L 409.80108 373.318788 
L 421.637443 377.335991 
L 433.473807 377.97075 
L 445.31017 383.227112 
L 457.146534 377.281183 
L 468.982898 372.80996 
L 480.819261 368.882437 
L 492.655625 389.920341 
" style="fill:none;stroke:#1764ab;stroke-linecap:square;stroke-width:1.5;"/>
   </g>
   <g id="line2d_46">
    <path clip-path="url(#pba705be2fd)" d="M 102.055625 420.47725 
L 113.891989 401.45125 
L 125.728352 402.50825 
L 137.564716 390.88125 
L 149.40108 394.05225 
L 161.237443 379.88845 
L 173.073807 379.606583 
L 184.91017 387.86125 
L 196.746534 358.907 
L 208.582898 343.198806 
L 220.419261 348.38985 
L 232.255625 355.904159 
L 244.091989 363.223083 
L 255.928352 368.602942 
L 267.764716 369.89225 
L 279.60108 371.291517 
L 291.437443 360.888875 
L 303.273807 368.497721 
L 315.11017 371.268028 
L 326.946534 375.304408 
L 338.782898 368.15575 
L 350.619261 363.09725 
L 362.455625 371.663068 
L 374.291989 370.292728 
L 386.128352 372.736083 
L 397.964716 386.31501 
L 409.80108 369.578635 
L 421.637443 363.869028 
L 433.473807 364.83375 
L 445.31017 358.223595 
L 457.146534 361.214783 
L 468.982898 349.896927 
L 480.819261 357.982125 
L 492.655625 375.634826 
" style="fill:none;stroke:#1764ab;stroke-linecap:square;stroke-width:1.5;"/>
   </g>
   <g id="line2d_47">
    <path clip-path="url(#pba705be2fd)" d="M 102.055625 433.16125 
L 113.891989 414.13525 
L 125.728352 405.67925 
L 137.564716 373.264583 
L 149.40108 349.65825 
L 161.237443 337.18565 
L 173.073807 347.896583 
L 184.91017 355.84925 
L 196.746534 367.363 
L 208.582898 381.015917 
L 220.419261 388.76725 
L 232.255625 390.689068 
L 244.091989 390.528917 
L 255.928352 374.294481 
L 267.764716 370.64725 
L 279.60108 353.815783 
L 291.437443 346.223 
L 303.273807 346.984662 
L 315.11017 369.976139 
L 326.946534 362.286618 
L 338.782898 352.82925 
L 350.619261 354.238583 
L 362.455625 350.523068 
L 374.291989 343.17838 
L 386.128352 355.824083 
L 397.964716 361.87717 
L 409.80108 367.139404 
L 421.637443 363.869028 
L 433.473807 369.81675 
L 445.31017 367.262767 
L 457.146534 371.150583 
L 468.982898 370.627766 
L 480.819261 365.050812 
L 492.655625 374.545795 
" style="fill:none;stroke:#1764ab;stroke-linecap:square;stroke-width:1.5;"/>
   </g>
   <g id="line2d_48">
    <path clip-path="url(#pba705be2fd)" d="M 102.055625 331.68925 
L 113.891989 323.23325 
L 125.728352 308.43525 
L 137.564716 343.668583 
L 149.40108 343.84475 
L 161.237443 367.62725 
L 173.073807 375.02625 
L 184.91017 392.39125 
L 196.746534 390.617 
L 208.582898 396.753472 
L 220.419261 400.18285 
L 232.255625 384.53925 
L 244.091989 380.663583 
L 255.928352 378.19725 
L 267.764716 373.51625 
L 279.60108 363.117383 
L 291.437443 344.6375 
L 303.273807 345.119368 
L 315.11017 359.758472 
L 326.946534 361.396513 
L 338.782898 375.34335 
L 350.619261 379.10325 
L 362.455625 385.115795 
L 374.291989 388.675337 
L 386.128352 379.342333 
L 397.964716 362.46909 
L 409.80108 354.130173 
L 421.637443 365.200065 
L 433.473807 364.75825 
L 445.31017 362.743181 
L 457.146534 351.842717 
L 468.982898 345.396153 
L 480.819261 353.88625 
L 492.655625 372.303674 
" style="fill:none;stroke:#1764ab;stroke-linecap:square;stroke-width:1.5;"/>
   </g>
   <g id="line2d_49">
    <path clip-path="url(#pba705be2fd)" d="M 102.055625 344.37325 
L 113.891989 382.42525 
L 125.728352 347.54425 
L 137.564716 354.94325 
L 149.40108 371.85525 
L 161.237443 367.20445 
L 173.073807 388.414917 
L 184.91017 402.96125 
L 196.746534 400.39425 
L 208.582898 395.813917 
L 220.419261 387.71025 
L 232.255625 371.470886 
L 244.091989 364.103917 
L 255.928352 355.918942 
L 267.764716 354.49025 
L 279.60108 348.742183 
L 291.437443 344.6375 
L 303.273807 358.798191 
L 315.11017 366.687694 
L 326.946534 364.178092 
L 338.782898 368.68425 
L 350.619261 362.392583 
L 362.455625 363.591432 
L 374.291989 369.189772 
L 386.128352 371.943333 
L 397.964716 380.98773 
L 409.80108 373.562712 
L 421.637443 382.42525 
L 433.473807 376.61175 
L 445.31017 382.935526 
L 457.146534 366.57025 
L 468.982898 347.44196 
L 480.819261 345.033875 
L 492.655625 361.925856 
" style="fill:none;stroke:#1764ab;stroke-linecap:square;stroke-width:1.5;"/>
   </g>
   <g id="line2d_50">
    <path clip-path="url(#pba705be2fd)" d="M 102.055625 433.16125 
L 113.891989 407.79325 
L 125.728352 405.67925 
L 137.564716 393.699917 
L 149.40108 383.48225 
L 161.237443 387.07605 
L 173.073807 378.19725 
L 184.91017 378.49925 
L 196.746534 380.31125 
L 208.582898 361.755028 
L 220.419261 359.59405 
L 232.255625 359.555614 
L 244.091989 359.17125 
L 255.928352 366.814173 
L 267.764716 385.14325 
L 279.60108 379.88845 
L 291.437443 371.723125 
L 303.273807 367.129838 
L 315.11017 348.483806 
L 326.946534 346.709776 
L 338.782898 355.78885 
L 350.619261 347.795917 
L 362.455625 351.195705 
L 374.291989 356.781511 
L 386.128352 359.611667 
L 397.964716 349.10861 
L 409.80108 364.45625 
L 421.637443 371.620361 
L 433.473807 367.17425 
L 445.31017 374.844009 
L 457.146534 357.973317 
L 468.982898 357.807379 
L 480.819261 348.07275 
L 492.655625 353.469856 
" style="fill:none;stroke:#1764ab;stroke-linecap:square;stroke-width:1.5;"/>
   </g>
   <g id="line2d_51">
    <path clip-path="url(#pba705be2fd)" d="M 102.055625 407.79325 
L 113.891989 390.88125 
L 125.728352 370.79825 
L 137.564716 340.14525 
L 149.40108 356.00025 
L 161.237443 342.68205 
L 173.073807 353.533917 
L 184.91017 335.31325 
L 196.746534 348.8655 
L 208.582898 359.406139 
L 220.419261 354.09765 
L 232.255625 347.255977 
L 244.091989 355.295583 
L 255.928352 373.318788 
L 267.764716 368.53325 
L 279.60108 375.096717 
L 291.437443 382.028875 
L 303.273807 372.725721 
L 315.11017 365.748139 
L 326.946534 363.287987 
L 338.782898 360.22825 
L 350.619261 374.069917 
L 362.455625 376.467614 
L 374.291989 374.520728 
L 386.128352 366.394083 
L 397.964716 364.07573 
L 409.80108 359.333865 
L 421.637443 370.759102 
L 433.473807 367.77825 
L 445.31017 375.281388 
L 457.146534 370.727783 
L 468.982898 371.787056 
L 480.819261 367.693312 
L 492.655625 376.595735 
" style="fill:none;stroke:#1764ab;stroke-linecap:square;stroke-width:1.5;"/>
   </g>
   <g id="line2d_52">
    <path clip-path="url(#pba705be2fd)" d="M 102.055625 382.42525 
L 113.891989 405.67925 
L 125.728352 422.59125 
L 137.564716 423.295917 
L 149.40108 412.02125 
L 161.237443 407.37045 
L 173.073807 407.440917 
L 184.91017 393.90125 
L 196.746534 383.48225 
L 208.582898 396.753472 
L 220.419261 382.42525 
L 232.255625 382.42525 
L 244.091989 387.886417 
L 255.928352 383.563558 
L 267.764716 373.21425 
L 279.60108 378.62005 
L 291.437443 370.137625 
L 303.273807 364.518426 
L 315.11017 358.818917 
L 326.946534 358.837461 
L 338.782898 366.99305 
L 350.619261 368.53325 
L 362.455625 375.987159 
L 374.291989 368.178728 
L 386.128352 376.523667 
L 397.964716 377.09797 
L 409.80108 378.359865 
L 421.637443 375.613472 
L 433.473807 373.66725 
L 445.31017 370.616009 
L 457.146534 366.499783 
L 468.982898 352.147315 
L 480.819261 355.802062 
L 492.655625 367.371008 
" style="fill:none;stroke:#1764ab;stroke-linecap:square;stroke-width:1.5;"/>
   </g>
   <g id="line2d_53">
    <path clip-path="url(#pba705be2fd)" d="M 102.055625 357.05725 
L 113.891989 403.56525 
L 125.728352 405.67925 
L 137.564716 415.544583 
L 149.40108 404.09375 
L 161.237443 403.56525 
L 173.073807 381.015917 
L 184.91017 354.64125 
L 196.746534 370.79825 
L 208.582898 350.950139 
L 220.419261 361.28525 
L 232.255625 367.819432 
L 244.091989 385.772417 
L 255.928352 366.488942 
L 267.764716 366.41925 
L 279.60108 365.93605 
L 291.437443 366.8345 
L 303.273807 366.508074 
L 315.11017 376.670472 
L 326.946534 363.510513 
L 338.782898 361.60235 
L 350.619261 359.573917 
L 362.455625 358.306432 
L 374.291989 354.207946 
L 386.128352 364.632417 
L 397.964716 372.02437 
L 409.80108 370.879558 
L 421.637443 360.737176 
L 433.473807 367.24975 
L 445.31017 350.49656 
L 457.146534 346.06445 
L 468.982898 348.192089 
L 480.819261 358.3785 
L 492.655625 364.616402 
" style="fill:none;stroke:#1764ab;stroke-linecap:square;stroke-width:1.5;"/>
   </g>
   <g id="line2d_54">
    <path clip-path="url(#pba705be2fd)" d="M 102.055625 420.47725 
L 113.891989 431.04725 
L 125.728352 409.90725 
L 137.564716 409.90725 
L 149.40108 401.97975 
L 161.237443 392.57245 
L 173.073807 396.518583 
L 184.91017 400.24325 
L 196.746534 400.92275 
L 208.582898 406.853694 
L 220.419261 404.41085 
L 232.255625 407.024523 
L 244.091989 400.39425 
L 255.928352 401.288635 
L 267.764716 400.69625 
L 279.60108 395.53205 
L 291.437443 398.80875 
L 303.273807 398.218074 
L 315.11017 398.397694 
L 326.946534 398.002092 
L 338.782898 401.87405 
L 350.619261 401.652583 
L 362.455625 408.658068 
L 374.291989 405.67925 
L 386.128352 406.472 
L 397.964716 409.14621 
L 409.80108 406.654942 
L 421.637443 407.79325 
L 433.473807 402.73475 
L 445.31017 411.219388 
L 457.146534 403.001517 
L 468.982898 399.950992 
L 480.819261 410.633937 
L 492.655625 415.864886 
" style="fill:none;stroke:#94c4df;stroke-linecap:square;stroke-width:1.5;"/>
   </g>
   <g id="line2d_55">
    <path clip-path="url(#pba705be2fd)" d="M 102.055625 433.16125 
L 113.891989 420.47725 
L 125.728352 421.53425 
L 137.564716 416.953917 
L 149.40108 411.49275 
L 161.237443 419.63165 
L 173.073807 415.896917 
L 184.91017 405.37725 
L 196.746534 414.3995 
L 208.582898 410.846806 
L 220.419261 403.14245 
L 232.255625 392.610886 
L 244.091989 385.243917 
L 255.928352 388.76725 
L 267.764716 393.75025 
L 279.60108 392.14965 
L 291.437443 397.75175 
L 303.273807 402.073015 
L 315.11017 404.62225 
L 326.946534 407.014408 
L 338.782898 408.85025 
L 350.619261 404.269917 
L 362.455625 399.145068 
L 374.291989 400.348293 
L 386.128352 403.917583 
L 397.964716 406.44029 
L 409.80108 402.914788 
L 421.637443 402.234213 
L 433.473807 399.48825 
L 445.31017 403.054974 
L 457.146534 403.847117 
L 468.982898 404.110798 
L 480.819261 406.934437 
L 492.655625 420.285068 
" style="fill:none;stroke:#94c4df;stroke-linecap:square;stroke-width:1.5;"/>
   </g>
   <g id="line2d_56">
    <path clip-path="url(#pba705be2fd)" d="M 102.055625 433.16125 
L 113.891989 433.16125 
L 125.728352 418.36325 
L 137.564716 408.497917 
L 149.40108 405.15075 
L 161.237443 398.49165 
L 173.073807 399.689583 
L 184.91017 399.63925 
L 196.746534 391.1455 
L 208.582898 404.035028 
L 220.419261 402.08545 
L 232.255625 403.56525 
L 244.091989 404.269917 
L 255.928352 402.101712 
L 267.764716 404.32025 
L 279.60108 406.94765 
L 291.437443 404.8865 
L 303.273807 402.694779 
L 315.11017 403.800139 
L 326.946534 404.010303 
L 338.782898 408.11035 
L 350.619261 404.571917 
L 362.455625 405.006614 
L 374.291989 408.804293 
L 386.128352 403.03675 
L 397.964716 408.13149 
L 409.80108 402.914788 
L 421.637443 401.999324 
L 433.473807 400.62075 
L 445.31017 396.202698 
L 457.146534 392.57245 
L 468.982898 395.586605 
L 480.819261 397.883875 
L 492.655625 412.533735 
" style="fill:none;stroke:#94c4df;stroke-linecap:square;stroke-width:1.5;"/>
   </g>
   <g id="line2d_57">
    <path clip-path="url(#pba705be2fd)" d="M 102.055625 420.47725 
L 113.891989 409.90725 
L 125.728352 418.36325 
L 137.564716 417.658583 
L 149.40108 401.45125 
L 161.237443 395.10925 
L 173.073807 400.041917 
L 184.91017 396.92125 
L 196.746534 394.58075 
L 208.582898 408.967694 
L 220.419261 412.23265 
L 232.255625 413.366523 
L 244.091989 413.782917 
L 255.928352 408.281096 
L 267.764716 402.20625 
L 279.60108 408.497917 
L 291.437443 401.7155 
L 303.273807 402.819132 
L 315.11017 406.149028 
L 326.946534 406.903145 
L 338.782898 401.87405 
L 350.619261 395.10925 
L 362.455625 408.561977 
L 374.291989 407.425598 
L 386.128352 407.0005 
L 397.964716 404.32629 
L 409.80108 398.768096 
L 421.637443 401.372954 
L 433.473807 403.48975 
L 445.31017 397.733526 
L 457.146534 393.699917 
L 468.982898 395.518411 
L 480.819261 401.649437 
L 492.655625 411.060341 
" style="fill:none;stroke:#94c4df;stroke-linecap:square;stroke-width:1.5;"/>
   </g>
   <g id="line2d_58">
    <path clip-path="url(#pba705be2fd)" d="M 102.055625 230.21725 
L 113.891989 399.33725 
L 125.728352 349.65825 
L 137.564716 383.834583 
L 149.40108 414.66375 
L 161.237443 405.67925 
L 173.073807 412.725917 
L 184.91017 418.66525 
L 196.746534 417.5705 
L 208.582898 415.544583 
L 220.419261 408.21605 
L 232.255625 403.373068 
L 244.091989 403.03675 
L 255.928352 397.22325 
L 267.764716 387.71025 
L 279.60108 392.14965 
L 291.437443 400.39425 
L 303.273807 403.938309 
L 315.11017 402.50825 
L 326.946534 404.900408 
L 338.782898 405.46785 
L 350.619261 409.30325 
L 362.455625 406.447977 
L 374.291989 403.381424 
L 386.128352 401.539333 
L 397.964716 401.87405 
L 409.80108 394.540096 
L 421.637443 399.33725 
L 433.473807 398.12925 
L 445.31017 397.879319 
L 457.146534 397.505117 
L 468.982898 400.087379 
L 480.819261 407.0005 
L 492.655625 417.530462 
" style="fill:none;stroke:#94c4df;stroke-linecap:square;stroke-width:1.5;"/>
   </g>
   <g id="line2d_59">
    <path clip-path="url(#pba705be2fd)" d="M 102.055625 433.16125 
L 113.891989 433.16125 
L 125.728352 381.36825 
L 137.564716 403.56525 
L 149.40108 413.60675 
L 161.237443 422.16845 
L 173.073807 423.295917 
L 184.91017 421.38325 
L 196.746534 418.36325 
L 208.582898 409.672361 
L 220.419261 400.18285 
L 232.255625 400.105977 
L 244.091989 405.67925 
L 255.928352 395.922327 
L 267.764716 406.43425 
L 279.60108 402.29685 
L 291.437443 389.82425 
L 303.273807 388.394191 
L 315.11017 389.82425 
L 326.946534 392.99525 
L 338.782898 397.01185 
L 350.619261 391.384583 
L 362.455625 396.550614 
L 374.291989 401.818902 
L 386.128352 406.383917 
L 397.964716 404.32629 
L 409.80108 403.402635 
L 421.637443 408.263028 
L 433.473807 406.66075 
L 445.31017 404.440009 
L 457.146534 396.37765 
L 468.982898 383.243573 
L 480.819261 392.863125 
L 492.655625 404.974583 
" style="fill:none;stroke:#94c4df;stroke-linecap:square;stroke-width:1.5;"/>
   </g>
   <g id="line2d_60">
    <path clip-path="url(#pba705be2fd)" d="M 102.055625 433.16125 
L 113.891989 418.36325 
L 125.728352 418.36325 
L 137.564716 421.181917 
L 149.40108 409.37875 
L 161.237443 397.64605 
L 173.073807 406.383917 
L 184.91017 407.49125 
L 196.746534 407.79325 
L 208.582898 397.693028 
L 220.419261 399.97145 
L 232.255625 403.373068 
L 244.091989 404.269917 
L 255.928352 402.264327 
L 267.764716 408.39725 
L 279.60108 406.242983 
L 291.437443 404.358 
L 303.273807 402.073015 
L 315.11017 399.102361 
L 326.946534 404.232829 
L 338.782898 405.36215 
L 350.619261 400.84725 
L 362.455625 400.39425 
L 374.291989 400.899772 
L 386.128352 401.45125 
L 397.964716 408.21605 
L 409.80108 404.62225 
L 421.637443 407.558361 
L 433.473807 408.17075 
L 445.31017 407.428767 
L 457.146534 409.48445 
L 468.982898 410.180024 
L 480.819261 410.766062 
L 492.655625 416.633614 
" style="fill:none;stroke:#94c4df;stroke-linecap:square;stroke-width:1.5;"/>
   </g>
   <g id="line2d_61">
    <path clip-path="url(#pba705be2fd)" d="M 102.055625 407.79325 
L 113.891989 414.13525 
L 125.728352 398.28025 
L 137.564716 398.632583 
L 149.40108 388.23875 
L 161.237443 395.95485 
L 173.073807 378.901917 
L 184.91017 384.23725 
L 196.746534 388.23875 
L 208.582898 398.162806 
L 220.419261 400.18285 
L 232.255625 398.184159 
L 244.091989 409.026417 
L 255.928352 406.329712 
L 267.764716 404.47125 
L 279.60108 409.766317 
L 291.437443 407.396875 
L 303.273807 398.964191 
L 315.11017 406.149028 
L 326.946534 399.003461 
L 338.782898 399.76005 
L 350.619261 407.390583 
L 362.455625 407.024523 
L 374.291989 408.98812 
L 386.128352 405.326917 
L 397.964716 399.33725 
L 409.80108 394.784019 
L 421.637443 405.600954 
L 433.473807 402.88575 
L 445.31017 401.66994 
L 457.146534 402.860583 
L 468.982898 406.63396 
L 480.819261 410.7 
L 492.655625 421.374098 
" style="fill:none;stroke:#94c4df;stroke-linecap:square;stroke-width:1.5;"/>
   </g>
   <g id="line2d_62">
    <path clip-path="url(#pba705be2fd)" d="M 102.055625 407.79325 
L 113.891989 424.70525 
L 125.728352 428.93325 
L 137.564716 424.000583 
L 149.40108 419.42025 
L 161.237443 423.43685 
L 173.073807 419.42025 
L 184.91017 413.53125 
L 196.746534 402.244 
L 208.582898 410.377028 
L 220.419261 397.64605 
L 232.255625 407.216705 
L 244.091989 396.870917 
L 255.928352 393.970942 
L 267.764716 397.67625 
L 279.60108 398.91445 
L 291.437443 404.225875 
L 303.273807 402.694779 
L 315.11017 397.22325 
L 326.946534 396.444408 
L 338.782898 397.96315 
L 350.619261 398.028583 
L 362.455625 399.817705 
L 374.291989 402.186554 
L 386.128352 397.75175 
L 397.964716 399.08357 
L 409.80108 406.411019 
L 421.637443 405.05288 
L 433.473807 409.22775 
L 445.31017 398.972767 
L 457.146534 402.226383 
L 468.982898 397.359637 
L 480.819261 403.102812 
L 492.655625 411.572826 
" style="fill:none;stroke:#94c4df;stroke-linecap:square;stroke-width:1.5;"/>
   </g>
   <g id="line2d_63">
    <path clip-path="url(#pba705be2fd)" d="M 102.055625 433.16125 
L 113.891989 424.70525 
L 125.728352 425.76225 
L 137.564716 426.81925 
L 149.40108 424.17675 
L 161.237443 407.79325 
L 173.073807 406.031583 
L 184.91017 389.37125 
L 196.746534 382.95375 
L 208.582898 373.734361 
L 220.419261 393.62945 
L 232.255625 389.728159 
L 244.091989 388.591083 
L 255.928352 392.670019 
L 267.764716 390.57925 
L 279.60108 402.437783 
L 291.437443 405.9435 
L 303.273807 400.829485 
L 315.11017 398.750028 
L 326.946534 406.569355 
L 338.782898 392.36105 
L 350.619261 398.229917 
L 362.455625 399.048977 
L 374.291989 398.693859 
L 386.128352 401.539333 
L 397.964716 404.07261 
L 409.80108 400.638173 
L 421.637443 398.397694 
L 433.473807 397.90275 
L 445.31017 388.111181 
L 457.146534 393.277117 
L 468.982898 391.699573 
L 480.819261 400.39425 
L 492.655625 409.330705 
" style="fill:none;stroke:#94c4df;stroke-linecap:square;stroke-width:1.5;"/>
   </g>
   <g id="line2d_64">
    <path clip-path="url(#pba705be2fd)" d="M 102.055625 433.16125 
L 113.891989 433.16125 
L 125.728352 433.16125 
L 137.564716 433.16125 
L 149.40108 433.16125 
L 161.237443 433.16125 
L 173.073807 433.16125 
L 184.91017 433.16125 
L 196.746534 433.16125 
L 208.582898 433.16125 
L 220.419261 433.16125 
L 232.255625 433.16125 
L 244.091989 433.16125 
L 255.928352 433.16125 
L 267.764716 433.16125 
L 279.60108 433.16125 
L 291.437443 433.16125 
L 303.273807 433.16125 
L 315.11017 433.16125 
L 326.946534 433.16125 
L 338.782898 433.16125 
L 350.619261 433.16125 
L 362.455625 433.16125 
L 374.291989 433.16125 
L 386.128352 433.16125 
L 397.964716 433.16125 
L 409.80108 433.16125 
L 421.637443 433.16125 
L 433.473807 433.16125 
L 445.31017 433.16125 
L 457.146534 433.16125 
L 468.982898 433.16125 
L 480.819261 433.16125 
L 492.655625 433.16125 
" style="fill:none;stroke:#000000;stroke-linecap:square;stroke-width:1.5;"/>
   </g>
   <g id="line2d_65">
    <path clip-path="url(#pba705be2fd)" d="M 102.055625 433.16125 
L 113.891989 433.16125 
L 125.728352 433.16125 
L 137.564716 433.16125 
L 149.40108 433.16125 
L 161.237443 433.16125 
L 173.073807 433.16125 
L 184.91017 433.16125 
L 196.746534 433.16125 
L 208.582898 433.16125 
L 220.419261 433.16125 
L 232.255625 433.16125 
L 244.091989 433.16125 
L 255.928352 433.16125 
L 267.764716 433.16125 
L 279.60108 433.16125 
L 291.437443 433.16125 
L 303.273807 433.16125 
L 315.11017 433.16125 
L 326.946534 433.16125 
L 338.782898 433.16125 
L 350.619261 433.16125 
L 362.455625 433.16125 
L 374.291989 433.16125 
L 386.128352 433.16125 
L 397.964716 433.16125 
L 409.80108 433.16125 
L 421.637443 433.16125 
L 433.473807 433.16125 
L 445.31017 433.16125 
L 457.146534 433.16125 
L 468.982898 433.16125 
L 480.819261 433.16125 
L 492.655625 433.16125 
" style="fill:none;stroke:#000000;stroke-linecap:square;stroke-width:1.5;"/>
   </g>
   <g id="line2d_66">
    <path clip-path="url(#pba705be2fd)" d="M 102.055625 433.16125 
L 113.891989 433.16125 
L 125.728352 433.16125 
L 137.564716 433.16125 
L 149.40108 433.16125 
L 161.237443 433.16125 
L 173.073807 433.16125 
L 184.91017 433.16125 
L 196.746534 433.16125 
L 208.582898 433.16125 
L 220.419261 433.16125 
L 232.255625 433.16125 
L 244.091989 433.16125 
L 255.928352 433.16125 
L 267.764716 433.16125 
L 279.60108 433.16125 
L 291.437443 433.16125 
L 303.273807 433.16125 
L 315.11017 433.16125 
L 326.946534 433.16125 
L 338.782898 433.16125 
L 350.619261 433.16125 
L 362.455625 433.16125 
L 374.291989 433.16125 
L 386.128352 433.16125 
L 397.964716 433.16125 
L 409.80108 433.16125 
L 421.637443 433.16125 
L 433.473807 433.16125 
L 445.31017 433.16125 
L 457.146534 433.16125 
L 468.982898 433.16125 
L 480.819261 433.16125 
L 492.655625 433.16125 
" style="fill:none;stroke:#000000;stroke-linecap:square;stroke-width:1.5;"/>
   </g>
   <g id="line2d_67">
    <path clip-path="url(#pba705be2fd)" d="M 102.055625 433.16125 
L 113.891989 433.16125 
L 125.728352 433.16125 
L 137.564716 433.16125 
L 149.40108 433.16125 
L 161.237443 433.16125 
L 173.073807 433.16125 
L 184.91017 433.16125 
L 196.746534 433.16125 
L 208.582898 433.16125 
L 220.419261 433.16125 
L 232.255625 433.16125 
L 244.091989 433.16125 
L 255.928352 433.16125 
L 267.764716 433.16125 
L 279.60108 433.16125 
L 291.437443 433.16125 
L 303.273807 433.16125 
L 315.11017 433.16125 
L 326.946534 433.16125 
L 338.782898 433.16125 
L 350.619261 433.16125 
L 362.455625 433.16125 
L 374.291989 433.16125 
L 386.128352 433.16125 
L 397.964716 433.16125 
L 409.80108 433.16125 
L 421.637443 433.16125 
L 433.473807 433.16125 
L 445.31017 433.16125 
L 457.146534 433.16125 
L 468.982898 433.16125 
L 480.819261 433.16125 
L 492.655625 433.16125 
" style="fill:none;stroke:#000000;stroke-linecap:square;stroke-width:1.5;"/>
   </g>
   <g id="line2d_68">
    <path clip-path="url(#pba705be2fd)" d="M 102.055625 433.16125 
L 113.891989 433.16125 
L 125.728352 433.16125 
L 137.564716 433.16125 
L 149.40108 433.16125 
L 161.237443 433.16125 
L 173.073807 433.16125 
L 184.91017 433.16125 
L 196.746534 433.16125 
L 208.582898 433.16125 
L 220.419261 433.16125 
L 232.255625 433.16125 
L 244.091989 433.16125 
L 255.928352 433.16125 
L 267.764716 433.16125 
L 279.60108 433.16125 
L 291.437443 433.16125 
L 303.273807 433.16125 
L 315.11017 433.16125 
L 326.946534 433.16125 
L 338.782898 433.16125 
L 350.619261 433.16125 
L 362.455625 433.16125 
L 374.291989 433.16125 
L 386.128352 433.16125 
L 397.964716 433.16125 
L 409.80108 433.16125 
L 421.637443 433.16125 
L 433.473807 433.16125 
L 445.31017 433.16125 
L 457.146534 433.16125 
L 468.982898 433.16125 
L 480.819261 433.16125 
L 492.655625 433.16125 
" style="fill:none;stroke:#000000;stroke-linecap:square;stroke-width:1.5;"/>
   </g>
   <g id="line2d_69">
    <path clip-path="url(#pba705be2fd)" d="M 102.055625 433.16125 
L 113.891989 433.16125 
L 125.728352 433.16125 
L 137.564716 433.16125 
L 149.40108 433.16125 
L 161.237443 433.16125 
L 173.073807 433.16125 
L 184.91017 433.16125 
L 196.746534 433.16125 
L 208.582898 433.16125 
L 220.419261 433.16125 
L 232.255625 433.16125 
L 244.091989 433.16125 
L 255.928352 433.16125 
L 267.764716 433.16125 
L 279.60108 433.16125 
L 291.437443 433.16125 
L 303.273807 433.16125 
L 315.11017 433.16125 
L 326.946534 433.16125 
L 338.782898 433.16125 
L 350.619261 433.16125 
L 362.455625 433.16125 
L 374.291989 433.16125 
L 386.128352 433.16125 
L 397.964716 433.16125 
L 409.80108 433.16125 
L 421.637443 433.16125 
L 433.473807 433.16125 
L 445.31017 433.16125 
L 457.146534 433.16125 
L 468.982898 433.16125 
L 480.819261 433.16125 
L 492.655625 433.16125 
" style="fill:none;stroke:#000000;stroke-linecap:square;stroke-width:1.5;"/>
   </g>
   <g id="line2d_70">
    <path clip-path="url(#pba705be2fd)" d="M 102.055625 433.16125 
L 113.891989 433.16125 
L 125.728352 433.16125 
L 137.564716 433.16125 
L 149.40108 433.16125 
L 161.237443 433.16125 
L 173.073807 433.16125 
L 184.91017 433.16125 
L 196.746534 433.16125 
L 208.582898 433.16125 
L 220.419261 433.16125 
L 232.255625 433.16125 
L 244.091989 433.16125 
L 255.928352 433.16125 
L 267.764716 433.16125 
L 279.60108 433.16125 
L 291.437443 433.16125 
L 303.273807 433.16125 
L 315.11017 433.16125 
L 326.946534 433.16125 
L 338.782898 433.16125 
L 350.619261 433.16125 
L 362.455625 433.16125 
L 374.291989 433.16125 
L 386.128352 433.16125 
L 397.964716 433.16125 
L 409.80108 433.16125 
L 421.637443 433.16125 
L 433.473807 433.16125 
L 445.31017 433.16125 
L 457.146534 433.16125 
L 468.982898 433.16125 
L 480.819261 433.16125 
L 492.655625 433.16125 
" style="fill:none;stroke:#000000;stroke-linecap:square;stroke-width:1.5;"/>
   </g>
   <g id="line2d_71">
    <path clip-path="url(#pba705be2fd)" d="M 102.055625 433.16125 
L 113.891989 433.16125 
L 125.728352 433.16125 
L 137.564716 433.16125 
L 149.40108 433.16125 
L 161.237443 433.16125 
L 173.073807 433.16125 
L 184.91017 433.16125 
L 196.746534 433.16125 
L 208.582898 433.16125 
L 220.419261 433.16125 
L 232.255625 433.16125 
L 244.091989 433.16125 
L 255.928352 433.16125 
L 267.764716 433.16125 
L 279.60108 433.16125 
L 291.437443 433.16125 
L 303.273807 433.16125 
L 315.11017 433.16125 
L 326.946534 433.16125 
L 338.782898 433.16125 
L 350.619261 433.16125 
L 362.455625 433.16125 
L 374.291989 433.16125 
L 386.128352 433.16125 
L 397.964716 433.16125 
L 409.80108 433.16125 
L 421.637443 433.16125 
L 433.473807 433.16125 
L 445.31017 433.16125 
L 457.146534 433.16125 
L 468.982898 433.16125 
L 480.819261 433.16125 
L 492.655625 433.16125 
" style="fill:none;stroke:#000000;stroke-linecap:square;stroke-width:1.5;"/>
   </g>
   <g id="line2d_72">
    <path clip-path="url(#pba705be2fd)" d="M 102.055625 433.16125 
L 113.891989 433.16125 
L 125.728352 433.16125 
L 137.564716 433.16125 
L 149.40108 433.16125 
L 161.237443 433.16125 
L 173.073807 433.16125 
L 184.91017 433.16125 
L 196.746534 433.16125 
L 208.582898 433.16125 
L 220.419261 433.16125 
L 232.255625 433.16125 
L 244.091989 433.16125 
L 255.928352 433.16125 
L 267.764716 433.16125 
L 279.60108 433.16125 
L 291.437443 433.16125 
L 303.273807 433.16125 
L 315.11017 433.16125 
L 326.946534 433.16125 
L 338.782898 433.16125 
L 350.619261 433.16125 
L 362.455625 433.16125 
L 374.291989 433.16125 
L 386.128352 433.16125 
L 397.964716 433.16125 
L 409.80108 433.16125 
L 421.637443 433.16125 
L 433.473807 433.16125 
L 445.31017 433.16125 
L 457.146534 433.16125 
L 468.982898 433.16125 
L 480.819261 433.16125 
L 492.655625 433.16125 
" style="fill:none;stroke:#000000;stroke-linecap:square;stroke-width:1.5;"/>
   </g>
   <g id="line2d_73">
    <path clip-path="url(#pba705be2fd)" d="M 102.055625 433.16125 
L 113.891989 433.16125 
L 125.728352 433.16125 
L 137.564716 433.16125 
L 149.40108 433.16125 
L 161.237443 433.16125 
L 173.073807 433.16125 
L 184.91017 433.16125 
L 196.746534 433.16125 
L 208.582898 433.16125 
L 220.419261 433.16125 
L 232.255625 433.16125 
L 244.091989 433.16125 
L 255.928352 433.16125 
L 267.764716 433.16125 
L 279.60108 433.16125 
L 291.437443 433.16125 
L 303.273807 433.16125 
L 315.11017 433.16125 
L 326.946534 433.16125 
L 338.782898 433.16125 
L 350.619261 433.16125 
L 362.455625 433.16125 
L 374.291989 433.16125 
L 386.128352 433.16125 
L 397.964716 433.16125 
L 409.80108 433.16125 
L 421.637443 433.16125 
L 433.473807 433.16125 
L 445.31017 433.16125 
L 457.146534 433.16125 
L 468.982898 433.16125 
L 480.819261 433.16125 
L 492.655625 433.16125 
" style="fill:none;stroke:#000000;stroke-linecap:square;stroke-width:1.5;"/>
   </g>
   <g id="line2d_74">
    <path clip-path="url(#pba705be2fd)" d="M 90.219261 433.16125 
" style="fill:none;stroke:#000000;stroke-linecap:square;stroke-width:1.5;"/>
   </g>
   <g id="line2d_75">
    <path clip-path="url(#pba705be2fd)" d="M 90.219261 433.16125 
" style="fill:none;stroke:#d0e1f2;stroke-linecap:square;stroke-width:1.5;"/>
   </g>
   <g id="line2d_76">
    <path clip-path="url(#pba705be2fd)" d="M 90.219261 433.16125 
" style="fill:none;stroke:#94c4df;stroke-linecap:square;stroke-width:1.5;"/>
   </g>
   <g id="line2d_77">
    <path clip-path="url(#pba705be2fd)" d="M 90.219261 433.16125 
" style="fill:none;stroke:#4a98c9;stroke-linecap:square;stroke-width:1.5;"/>
   </g>
   <g id="line2d_78">
    <path clip-path="url(#pba705be2fd)" d="M 90.219261 433.16125 
" style="fill:none;stroke:#1764ab;stroke-linecap:square;stroke-width:1.5;"/>
   </g>
   <g id="line2d_79">
    <path clip-path="url(#pba705be2fd)" d="M 90.219261 433.16125 
" style="fill:none;stroke:#08306b;stroke-linecap:square;stroke-width:1.5;"/>
   </g>
   <g id="line2d_80">
    <path clip-path="url(#pba705be2fd)" d="M 90.219261 433.16125 
" style="fill:none;stroke:#000000;stroke-linecap:square;stroke-width:1.5;"/>
   </g>
   <g id="line2d_81">
    <path clip-path="url(#pba705be2fd)" d="M 90.219261 433.16125 
" style="fill:none;stroke:#000000;stroke-dasharray:1.5,2.475;stroke-dashoffset:0;stroke-width:1.5;"/>
   </g>
   <g id="line2d_82">
    <path clip-path="url(#pba705be2fd)" d="M 90.219261 433.16125 
" style="fill:none;stroke:#000000;stroke-linecap:square;stroke-width:1.5;"/>
   </g>
   <g id="line2d_83">
    <path clip-path="url(#pba705be2fd)" d="M 90.219261 433.16125 
" style="fill:none;stroke:#000000;stroke-dasharray:5.55,2.4;stroke-dashoffset:0;stroke-width:1.5;"/>
   </g>
   <g id="line2d_84">
    <path clip-path="url(#pba705be2fd)" d="M 90.219261 433.16125 
" style="fill:none;stroke:#000000;stroke-dasharray:9.6,2.4,1.5,2.4;stroke-dashoffset:0;stroke-width:1.5;"/>
   </g>
   <g id="line2d_85">
    <path clip-path="url(#pba705be2fd)" d="M 90.219261 433.16125 
" style="fill:none;stroke:#000000;stroke-dasharray:9.6,2.4,1.5,2.4;stroke-dashoffset:0;stroke-width:1.5;"/>
   </g>
   <g id="patch_3">
    <path d="M 102.055625 433.16125 
L 102.055625 52.64125 
" style="fill:none;stroke:#000000;stroke-linecap:square;stroke-linejoin:miter;stroke-width:0.8;"/>
   </g>
   <g id="patch_4">
    <path d="M 492.655625 433.16125 
L 492.655625 52.64125 
" style="fill:none;stroke:#000000;stroke-linecap:square;stroke-linejoin:miter;stroke-width:0.8;"/>
   </g>
   <g id="patch_5">
    <path d="M 102.055625 433.16125 
L 492.655625 433.16125 
" style="fill:none;stroke:#000000;stroke-linecap:square;stroke-linejoin:miter;stroke-width:0.8;"/>
   </g>
   <g id="patch_6">
    <path d="M 102.055625 52.64125 
L 492.655625 52.64125 
" style="fill:none;stroke:#000000;stroke-linecap:square;stroke-linejoin:miter;stroke-width:0.8;"/>
   </g>
   <g id="text_16">
    <!-- CD8 NORMALIZED COUNT -->
    <g transform="translate(169.58375 21.515625)scale(0.2 -0.2)">
     <use xlink:href="#Arial-BoldMT-67"/>
     <use x="72.216797" xlink:href="#Arial-BoldMT-68"/>
     <use x="144.433594" xlink:href="#Arial-BoldMT-56"/>
     <use x="200.048828" xlink:href="#Arial-BoldMT-32"/>
     <use x="227.832031" xlink:href="#Arial-BoldMT-78"/>
     <use x="300.048828" xlink:href="#Arial-BoldMT-79"/>
     <use x="377.832031" xlink:href="#Arial-BoldMT-82"/>
     <use x="450.048828" xlink:href="#Arial-BoldMT-77"/>
     <use x="533.349609" xlink:href="#Arial-BoldMT-65"/>
     <use x="605.566406" xlink:href="#Arial-BoldMT-76"/>
     <use x="666.650391" xlink:href="#Arial-BoldMT-73"/>
     <use x="694.433594" xlink:href="#Arial-BoldMT-90"/>
     <use x="755.517578" xlink:href="#Arial-BoldMT-69"/>
     <use x="822.216797" xlink:href="#Arial-BoldMT-68"/>
     <use x="894.433594" xlink:href="#Arial-BoldMT-32"/>
     <use x="922.216797" xlink:href="#Arial-BoldMT-67"/>
     <use x="994.433594" xlink:href="#Arial-BoldMT-79"/>
     <use x="1072.216797" xlink:href="#Arial-BoldMT-85"/>
     <use x="1144.433594" xlink:href="#Arial-BoldMT-78"/>
     <use x="1216.650391" xlink:href="#Arial-BoldMT-84"/>
    </g>
    <!-- ACROSS RADIUS AT TIME 4 -->
    <defs>
     <path d="M 31.15625 0 
L 31.15625 14.40625 
L 1.859375 14.40625 
L 1.859375 26.421875 
L 32.90625 71.875 
L 44.4375 71.875 
L 44.4375 26.46875 
L 53.328125 26.46875 
L 53.328125 14.40625 
L 44.4375 14.40625 
L 44.4375 0 
z
M 31.15625 26.46875 
L 31.15625 50.921875 
L 14.703125 26.46875 
z
" id="Arial-BoldMT-52"/>
    </defs>
    <g transform="translate(162.361875 42.64125)scale(0.2 -0.2)">
     <use xlink:href="#Arial-BoldMT-65"/>
     <use x="72.216797" xlink:href="#Arial-BoldMT-67"/>
     <use x="144.433594" xlink:href="#Arial-BoldMT-82"/>
     <use x="216.650391" xlink:href="#Arial-BoldMT-79"/>
     <use x="294.433594" xlink:href="#Arial-BoldMT-83"/>
     <use x="361.132812" xlink:href="#Arial-BoldMT-83"/>
     <use x="427.832031" xlink:href="#Arial-BoldMT-32"/>
     <use x="455.615234" xlink:href="#Arial-BoldMT-82"/>
     <use x="527.832031" xlink:href="#Arial-BoldMT-65"/>
     <use x="600.048828" xlink:href="#Arial-BoldMT-68"/>
     <use x="672.265625" xlink:href="#Arial-BoldMT-73"/>
     <use x="700.048828" xlink:href="#Arial-BoldMT-85"/>
     <use x="772.265625" xlink:href="#Arial-BoldMT-83"/>
     <use x="838.964844" xlink:href="#Arial-BoldMT-32"/>
     <use x="866.701172" xlink:href="#Arial-BoldMT-65"/>
     <use x="938.808594" xlink:href="#Arial-BoldMT-84"/>
     <use x="999.892578" xlink:href="#Arial-BoldMT-32"/>
     <use x="1027.675781" xlink:href="#Arial-BoldMT-84"/>
     <use x="1088.759766" xlink:href="#Arial-BoldMT-73"/>
     <use x="1116.542969" xlink:href="#Arial-BoldMT-77"/>
     <use x="1199.84375" xlink:href="#Arial-BoldMT-69"/>
     <use x="1266.542969" xlink:href="#Arial-BoldMT-32"/>
     <use x="1294.326172" xlink:href="#Arial-BoldMT-52"/>
    </g>
   </g>
   <g id="legend_1">
    <g id="line2d_86">
     <path d="M 423.843125 65.739687 
L 443.843125 65.739687 
" style="fill:none;stroke:#000000;stroke-linecap:square;stroke-width:1.5;"/>
    </g>
    <g id="line2d_87"/>
    <g id="text_17">
     <!-- 0 -->
     <g transform="translate(451.843125 69.239687)scale(0.1 -0.1)">
      <use xlink:href="#DejaVuSans-48"/>
     </g>
    </g>
    <g id="line2d_88">
     <path d="M 423.843125 80.417812 
L 443.843125 80.417812 
" style="fill:none;stroke:#d0e1f2;stroke-linecap:square;stroke-width:1.5;"/>
    </g>
    <g id="line2d_89"/>
    <g id="text_18">
     <!-- 100 -->
     <g transform="translate(451.843125 83.917812)scale(0.1 -0.1)">
      <use xlink:href="#DejaVuSans-49"/>
      <use x="63.623047" xlink:href="#DejaVuSans-48"/>
      <use x="127.246094" xlink:href="#DejaVuSans-48"/>
     </g>
    </g>
    <g id="line2d_90">
     <path d="M 423.843125 95.095937 
L 443.843125 95.095937 
" style="fill:none;stroke:#94c4df;stroke-linecap:square;stroke-width:1.5;"/>
    </g>
    <g id="line2d_91"/>
    <g id="text_19">
     <!-- 500 -->
     <g transform="translate(451.843125 98.595937)scale(0.1 -0.1)">
      <use xlink:href="#DejaVuSans-53"/>
      <use x="63.623047" xlink:href="#DejaVuSans-48"/>
      <use x="127.246094" xlink:href="#DejaVuSans-48"/>
     </g>
    </g>
    <g id="line2d_92">
     <path d="M 423.843125 109.774062 
L 443.843125 109.774062 
" style="fill:none;stroke:#4a98c9;stroke-linecap:square;stroke-width:1.5;"/>
    </g>
    <g id="line2d_93"/>
    <g id="text_20">
     <!-- 1000 -->
     <g transform="translate(451.843125 113.274062)scale(0.1 -0.1)">
      <use xlink:href="#DejaVuSans-49"/>
      <use x="63.623047" xlink:href="#DejaVuSans-48"/>
      <use x="127.246094" xlink:href="#DejaVuSans-48"/>
      <use x="190.869141" xlink:href="#DejaVuSans-48"/>
     </g>
    </g>
    <g id="line2d_94">
     <path d="M 423.843125 124.452187 
L 443.843125 124.452187 
" style="fill:none;stroke:#1764ab;stroke-linecap:square;stroke-width:1.5;"/>
    </g>
    <g id="line2d_95"/>
    <g id="text_21">
     <!-- 5000 -->
     <g transform="translate(451.843125 127.952187)scale(0.1 -0.1)">
      <use xlink:href="#DejaVuSans-53"/>
      <use x="63.623047" xlink:href="#DejaVuSans-48"/>
      <use x="127.246094" xlink:href="#DejaVuSans-48"/>
      <use x="190.869141" xlink:href="#DejaVuSans-48"/>
     </g>
    </g>
    <g id="line2d_96">
     <path d="M 423.843125 139.130312 
L 443.843125 139.130312 
" style="fill:none;stroke:#08306b;stroke-linecap:square;stroke-width:1.5;"/>
    </g>
    <g id="line2d_97"/>
    <g id="text_22">
     <!-- 10000 -->
     <g transform="translate(451.843125 142.630312)scale(0.1 -0.1)">
      <use xlink:href="#DejaVuSans-49"/>
      <use x="63.623047" xlink:href="#DejaVuSans-48"/>
      <use x="127.246094" xlink:href="#DejaVuSans-48"/>
      <use x="190.869141" xlink:href="#DejaVuSans-48"/>
      <use x="254.492188" xlink:href="#DejaVuSans-48"/>
     </g>
    </g>
    <g id="line2d_98">
     <path d="M 423.843125 153.808437 
L 443.843125 153.808437 
" style="fill:none;stroke:#000000;stroke-linecap:square;stroke-width:1.5;"/>
    </g>
    <g id="line2d_99"/>
    <g id="text_23">
     <!-- 0 -->
     <g transform="translate(451.843125 157.308437)scale(0.1 -0.1)">
      <use xlink:href="#DejaVuSans-48"/>
     </g>
    </g>
    <g id="line2d_100">
     <path d="M 423.843125 168.486562 
L 443.843125 168.486562 
" style="fill:none;stroke:#000000;stroke-dasharray:1.5,2.475;stroke-dashoffset:0;stroke-width:1.5;"/>
    </g>
    <g id="line2d_101"/>
    <g id="text_24">
     <!-- 250 -->
     <g transform="translate(451.843125 171.986562)scale(0.1 -0.1)">
      <use xlink:href="#DejaVuSans-50"/>
      <use x="63.623047" xlink:href="#DejaVuSans-53"/>
      <use x="127.246094" xlink:href="#DejaVuSans-48"/>
     </g>
    </g>
    <g id="line2d_102">
     <path d="M 423.843125 183.164687 
L 443.843125 183.164687 
" style="fill:none;stroke:#000000;stroke-linecap:square;stroke-width:1.5;"/>
    </g>
    <g id="line2d_103"/>
    <g id="text_25">
     <!-- 500 -->
     <g transform="translate(451.843125 186.664687)scale(0.1 -0.1)">
      <use xlink:href="#DejaVuSans-53"/>
      <use x="63.623047" xlink:href="#DejaVuSans-48"/>
      <use x="127.246094" xlink:href="#DejaVuSans-48"/>
     </g>
    </g>
    <g id="line2d_104">
     <path d="M 423.843125 197.842812 
L 443.843125 197.842812 
" style="fill:none;stroke:#000000;stroke-dasharray:5.55,2.4;stroke-dashoffset:0;stroke-width:1.5;"/>
    </g>
    <g id="line2d_105"/>
    <g id="text_26">
     <!-- 1000 -->
     <g transform="translate(451.843125 201.342812)scale(0.1 -0.1)">
      <use xlink:href="#DejaVuSans-49"/>
      <use x="63.623047" xlink:href="#DejaVuSans-48"/>
      <use x="127.246094" xlink:href="#DejaVuSans-48"/>
      <use x="190.869141" xlink:href="#DejaVuSans-48"/>
     </g>
    </g>
    <g id="line2d_106">
     <path d="M 423.843125 212.520937 
L 443.843125 212.520937 
" style="fill:none;stroke:#000000;stroke-dasharray:9.6,2.4,1.5,2.4;stroke-dashoffset:0;stroke-width:1.5;"/>
    </g>
    <g id="line2d_107"/>
    <g id="text_27">
     <!-- 5000 -->
     <g transform="translate(451.843125 216.020937)scale(0.1 -0.1)">
      <use xlink:href="#DejaVuSans-53"/>
      <use x="63.623047" xlink:href="#DejaVuSans-48"/>
      <use x="127.246094" xlink:href="#DejaVuSans-48"/>
      <use x="190.869141" xlink:href="#DejaVuSans-48"/>
     </g>
    </g>
    <g id="line2d_108">
     <path d="M 423.843125 227.199062 
L 443.843125 227.199062 
" style="fill:none;stroke:#000000;stroke-dasharray:9.6,2.4,1.5,2.4;stroke-dashoffset:0;stroke-width:1.5;"/>
    </g>
    <g id="line2d_109"/>
    <g id="text_28">
     <!-- 10000 -->
     <g transform="translate(451.843125 230.699062)scale(0.1 -0.1)">
      <use xlink:href="#DejaVuSans-49"/>
      <use x="63.623047" xlink:href="#DejaVuSans-48"/>
      <use x="127.246094" xlink:href="#DejaVuSans-48"/>
      <use x="190.869141" xlink:href="#DejaVuSans-48"/>
      <use x="254.492188" xlink:href="#DejaVuSans-48"/>
     </g>
    </g>
   </g>
  </g>
 </g>
 <defs>
  <clipPath id="pba705be2fd">
   <rect height="380.52" width="390.6" x="102.055625" y="52.64125"/>
  </clipPath>
 </defs>
</svg>
