<?xml version="1.0" encoding="utf-8" standalone="no"?>
<!DOCTYPE svg PUBLIC "-//W3C//DTD SVG 1.1//EN"
  "http://www.w3.org/Graphics/SVG/1.1/DTD/svg11.dtd">
<!-- Created with matplotlib (https://matplotlib.org/) -->
<svg height="504.658125pt" version="1.1" viewBox="0 0 610.843125 504.658125" width="610.843125pt" xmlns="http://www.w3.org/2000/svg" xmlns:xlink="http://www.w3.org/1999/xlink">
 <defs>
  <style type="text/css">
*{stroke-linecap:butt;stroke-linejoin:round;}
  </style>
 </defs>
 <g id="figure_1">
  <g id="patch_1">
   <path d="M 0 504.658125 
L 610.843125 504.658125 
L 610.843125 -0 
L 0 -0 
z
" style="fill:#ffffff;"/>
  </g>
  <g id="axes_1">
   <g id="patch_2">
    <path d="M 140.230625 433.16125 
L 530.830625 433.16125 
L 530.830625 52.64125 
L 140.230625 52.64125 
z
" style="fill:#ffffff;"/>
   </g>
   <g id="matplotlib.axis_1">
    <g id="xtick_1">
     <g id="line2d_1">
      <defs>
       <path d="M 0 0 
L 0 3.5 
" id="ma2c24b3438" style="stroke:#000000;stroke-width:0.8;"/>
      </defs>
      <g>
       <use style="stroke:#000000;stroke-width:0.8;" x="187.57608" xlink:href="#ma2c24b3438" y="433.16125"/>
      </g>
     </g>
     <g id="text_1">
      <!-- 5 -->
      <defs>
       <path d="M 10.796875 72.90625 
L 49.515625 72.90625 
L 49.515625 64.59375 
L 19.828125 64.59375 
L 19.828125 46.734375 
Q 21.96875 47.46875 24.109375 47.828125 
Q 26.265625 48.1875 28.421875 48.1875 
Q 40.625 48.1875 47.75 41.5 
Q 54.890625 34.8125 54.890625 23.390625 
Q 54.890625 11.625 47.5625 5.09375 
Q 40.234375 -1.421875 26.90625 -1.421875 
Q 22.3125 -1.421875 17.546875 -0.640625 
Q 12.796875 0.140625 7.71875 1.703125 
L 7.71875 11.625 
Q 12.109375 9.234375 16.796875 8.0625 
Q 21.484375 6.890625 26.703125 6.890625 
Q 35.15625 6.890625 40.078125 11.328125 
Q 45.015625 15.765625 45.015625 23.390625 
Q 45.015625 31 40.078125 35.4375 
Q 35.15625 39.890625 26.703125 39.890625 
Q 22.75 39.890625 18.8125 39.015625 
Q 14.890625 38.140625 10.796875 36.28125 
z
" id="DejaVuSans-53"/>
      </defs>
      <g transform="translate(178.03233 462.956562)scale(0.3 -0.3)">
       <use xlink:href="#DejaVuSans-53"/>
      </g>
     </g>
    </g>
    <g id="xtick_2">
     <g id="line2d_2">
      <g>
       <use style="stroke:#000000;stroke-width:0.8;" x="246.757898" xlink:href="#ma2c24b3438" y="433.16125"/>
      </g>
     </g>
     <g id="text_2">
      <!-- 10 -->
      <defs>
       <path d="M 12.40625 8.296875 
L 28.515625 8.296875 
L 28.515625 63.921875 
L 10.984375 60.40625 
L 10.984375 69.390625 
L 28.421875 72.90625 
L 38.28125 72.90625 
L 38.28125 8.296875 
L 54.390625 8.296875 
L 54.390625 0 
L 12.40625 0 
z
" id="DejaVuSans-49"/>
       <path d="M 31.78125 66.40625 
Q 24.171875 66.40625 20.328125 58.90625 
Q 16.5 51.421875 16.5 36.375 
Q 16.5 21.390625 20.328125 13.890625 
Q 24.171875 6.390625 31.78125 6.390625 
Q 39.453125 6.390625 43.28125 13.890625 
Q 47.125 21.390625 47.125 36.375 
Q 47.125 51.421875 43.28125 58.90625 
Q 39.453125 66.40625 31.78125 66.40625 
z
M 31.78125 74.21875 
Q 44.046875 74.21875 50.515625 64.515625 
Q 56.984375 54.828125 56.984375 36.375 
Q 56.984375 17.96875 50.515625 8.265625 
Q 44.046875 -1.421875 31.78125 -1.421875 
Q 19.53125 -1.421875 13.0625 8.265625 
Q 6.59375 17.96875 6.59375 36.375 
Q 6.59375 54.828125 13.0625 64.515625 
Q 19.53125 74.21875 31.78125 74.21875 
z
" id="DejaVuSans-48"/>
      </defs>
      <g transform="translate(227.670398 462.956562)scale(0.3 -0.3)">
       <use xlink:href="#DejaVuSans-49"/>
       <use x="63.623047" xlink:href="#DejaVuSans-48"/>
      </g>
     </g>
    </g>
    <g id="xtick_3">
     <g id="line2d_3">
      <g>
       <use style="stroke:#000000;stroke-width:0.8;" x="305.939716" xlink:href="#ma2c24b3438" y="433.16125"/>
      </g>
     </g>
     <g id="text_3">
      <!-- 15 -->
      <g transform="translate(286.852216 462.956562)scale(0.3 -0.3)">
       <use xlink:href="#DejaVuSans-49"/>
       <use x="63.623047" xlink:href="#DejaVuSans-53"/>
      </g>
     </g>
    </g>
    <g id="xtick_4">
     <g id="line2d_4">
      <g>
       <use style="stroke:#000000;stroke-width:0.8;" x="365.121534" xlink:href="#ma2c24b3438" y="433.16125"/>
      </g>
     </g>
     <g id="text_4">
      <!-- 20 -->
      <defs>
       <path d="M 19.1875 8.296875 
L 53.609375 8.296875 
L 53.609375 0 
L 7.328125 0 
L 7.328125 8.296875 
Q 12.9375 14.109375 22.625 23.890625 
Q 32.328125 33.6875 34.8125 36.53125 
Q 39.546875 41.84375 41.421875 45.53125 
Q 43.3125 49.21875 43.3125 52.78125 
Q 43.3125 58.59375 39.234375 62.25 
Q 35.15625 65.921875 28.609375 65.921875 
Q 23.96875 65.921875 18.8125 64.3125 
Q 13.671875 62.703125 7.8125 59.421875 
L 7.8125 69.390625 
Q 13.765625 71.78125 18.9375 73 
Q 24.125 74.21875 28.421875 74.21875 
Q 39.75 74.21875 46.484375 68.546875 
Q 53.21875 62.890625 53.21875 53.421875 
Q 53.21875 48.921875 51.53125 44.890625 
Q 49.859375 40.875 45.40625 35.40625 
Q 44.1875 33.984375 37.640625 27.21875 
Q 31.109375 20.453125 19.1875 8.296875 
z
" id="DejaVuSans-50"/>
      </defs>
      <g transform="translate(346.034034 462.956562)scale(0.3 -0.3)">
       <use xlink:href="#DejaVuSans-50"/>
       <use x="63.623047" xlink:href="#DejaVuSans-48"/>
      </g>
     </g>
    </g>
    <g id="xtick_5">
     <g id="line2d_5">
      <g>
       <use style="stroke:#000000;stroke-width:0.8;" x="424.303352" xlink:href="#ma2c24b3438" y="433.16125"/>
      </g>
     </g>
     <g id="text_5">
      <!-- 25 -->
      <g transform="translate(405.215852 462.956562)scale(0.3 -0.3)">
       <use xlink:href="#DejaVuSans-50"/>
       <use x="63.623047" xlink:href="#DejaVuSans-53"/>
      </g>
     </g>
    </g>
    <g id="xtick_6">
     <g id="line2d_6">
      <g>
       <use style="stroke:#000000;stroke-width:0.8;" x="483.48517" xlink:href="#ma2c24b3438" y="433.16125"/>
      </g>
     </g>
     <g id="text_6">
      <!-- 30 -->
      <defs>
       <path d="M 40.578125 39.3125 
Q 47.65625 37.796875 51.625 33 
Q 55.609375 28.21875 55.609375 21.1875 
Q 55.609375 10.40625 48.1875 4.484375 
Q 40.765625 -1.421875 27.09375 -1.421875 
Q 22.515625 -1.421875 17.65625 -0.515625 
Q 12.796875 0.390625 7.625 2.203125 
L 7.625 11.71875 
Q 11.71875 9.328125 16.59375 8.109375 
Q 21.484375 6.890625 26.8125 6.890625 
Q 36.078125 6.890625 40.9375 10.546875 
Q 45.796875 14.203125 45.796875 21.1875 
Q 45.796875 27.640625 41.28125 31.265625 
Q 36.765625 34.90625 28.71875 34.90625 
L 20.21875 34.90625 
L 20.21875 43.015625 
L 29.109375 43.015625 
Q 36.375 43.015625 40.234375 45.921875 
Q 44.09375 48.828125 44.09375 54.296875 
Q 44.09375 59.90625 40.109375 62.90625 
Q 36.140625 65.921875 28.71875 65.921875 
Q 24.65625 65.921875 20.015625 65.03125 
Q 15.375 64.15625 9.8125 62.3125 
L 9.8125 71.09375 
Q 15.4375 72.65625 20.34375 73.4375 
Q 25.25 74.21875 29.59375 74.21875 
Q 40.828125 74.21875 47.359375 69.109375 
Q 53.90625 64.015625 53.90625 55.328125 
Q 53.90625 49.265625 50.4375 45.09375 
Q 46.96875 40.921875 40.578125 39.3125 
z
" id="DejaVuSans-51"/>
      </defs>
      <g transform="translate(464.39767 462.956562)scale(0.3 -0.3)">
       <use xlink:href="#DejaVuSans-51"/>
       <use x="63.623047" xlink:href="#DejaVuSans-48"/>
      </g>
     </g>
    </g>
    <g id="text_7">
     <!-- RADIUS -->
     <defs>
      <path d="M 7.328125 0 
L 7.328125 71.578125 
L 37.75 71.578125 
Q 49.21875 71.578125 54.421875 69.640625 
Q 59.625 67.71875 62.75 62.78125 
Q 65.875 57.859375 65.875 51.515625 
Q 65.875 43.453125 61.125 38.203125 
Q 56.390625 32.953125 46.96875 31.59375 
Q 51.65625 28.859375 54.703125 25.578125 
Q 57.765625 22.3125 62.9375 13.96875 
L 71.6875 0 
L 54.390625 0 
L 43.953125 15.578125 
Q 38.375 23.921875 36.328125 26.09375 
Q 34.28125 28.265625 31.984375 29.078125 
Q 29.6875 29.890625 24.703125 29.890625 
L 21.78125 29.890625 
L 21.78125 0 
z
M 21.78125 41.3125 
L 32.46875 41.3125 
Q 42.875 41.3125 45.453125 42.1875 
Q 48.046875 43.0625 49.515625 45.203125 
Q 50.984375 47.359375 50.984375 50.59375 
Q 50.984375 54.203125 49.046875 56.421875 
Q 47.125 58.640625 43.609375 59.234375 
Q 41.84375 59.46875 33.0625 59.46875 
L 21.78125 59.46875 
z
" id="Arial-BoldMT-82"/>
      <path d="M 71.828125 0 
L 56.109375 0 
L 49.859375 16.265625 
L 21.234375 16.265625 
L 15.328125 0 
L 0 0 
L 27.875 71.578125 
L 43.171875 71.578125 
z
M 45.21875 28.328125 
L 35.359375 54.890625 
L 25.6875 28.328125 
z
" id="Arial-BoldMT-65"/>
      <path d="M 7.234375 71.578125 
L 33.640625 71.578125 
Q 42.578125 71.578125 47.265625 70.21875 
Q 53.5625 68.359375 58.046875 63.625 
Q 62.546875 58.890625 64.890625 52.03125 
Q 67.234375 45.171875 67.234375 35.109375 
Q 67.234375 26.265625 65.046875 19.875 
Q 62.359375 12.0625 57.375 7.234375 
Q 53.609375 3.5625 47.21875 1.515625 
Q 42.4375 0 34.421875 0 
L 7.234375 0 
z
M 21.6875 59.46875 
L 21.6875 12.0625 
L 32.46875 12.0625 
Q 38.53125 12.0625 41.21875 12.75 
Q 44.734375 13.625 47.046875 15.71875 
Q 49.359375 17.828125 50.828125 22.625 
Q 52.296875 27.4375 52.296875 35.75 
Q 52.296875 44.046875 50.828125 48.484375 
Q 49.359375 52.9375 46.71875 55.421875 
Q 44.09375 57.90625 40.046875 58.796875 
Q 37.015625 59.46875 28.171875 59.46875 
z
" id="Arial-BoldMT-68"/>
      <path d="M 6.84375 0 
L 6.84375 71.578125 
L 21.296875 71.578125 
L 21.296875 0 
z
" id="Arial-BoldMT-73"/>
      <path d="M 7.171875 71.578125 
L 21.625 71.578125 
L 21.625 32.8125 
Q 21.625 23.578125 22.171875 20.84375 
Q 23.09375 16.453125 26.578125 13.796875 
Q 30.078125 11.140625 36.140625 11.140625 
Q 42.28125 11.140625 45.40625 13.640625 
Q 48.53125 16.15625 49.171875 19.8125 
Q 49.8125 23.484375 49.8125 31.984375 
L 49.8125 71.578125 
L 64.265625 71.578125 
L 64.265625 33.984375 
Q 64.265625 21.09375 63.09375 15.765625 
Q 61.921875 10.453125 58.765625 6.78125 
Q 55.609375 3.125 50.328125 0.953125 
Q 45.0625 -1.21875 36.578125 -1.21875 
Q 26.3125 -1.21875 21.015625 1.140625 
Q 15.71875 3.515625 12.640625 7.296875 
Q 9.578125 11.078125 8.59375 15.234375 
Q 7.171875 21.390625 7.171875 33.40625 
z
" id="Arial-BoldMT-85"/>
      <path d="M 3.609375 23.296875 
L 17.671875 24.65625 
Q 18.953125 17.578125 22.828125 14.25 
Q 26.703125 10.9375 33.296875 10.9375 
Q 40.28125 10.9375 43.8125 13.890625 
Q 47.359375 16.84375 47.359375 20.796875 
Q 47.359375 23.34375 45.875 25.125 
Q 44.390625 26.90625 40.671875 28.21875 
Q 38.140625 29.109375 29.109375 31.34375 
Q 17.484375 34.234375 12.796875 38.421875 
Q 6.203125 44.34375 6.203125 52.828125 
Q 6.203125 58.296875 9.296875 63.0625 
Q 12.40625 67.828125 18.234375 70.3125 
Q 24.078125 72.796875 32.328125 72.796875 
Q 45.796875 72.796875 52.609375 66.890625 
Q 59.421875 60.984375 59.765625 51.125 
L 45.3125 50.484375 
Q 44.390625 56 41.328125 58.421875 
Q 38.28125 60.84375 32.171875 60.84375 
Q 25.875 60.84375 22.3125 58.25 
Q 20.015625 56.59375 20.015625 53.8125 
Q 20.015625 51.265625 22.171875 49.46875 
Q 24.90625 47.171875 35.453125 44.671875 
Q 46 42.1875 51.046875 39.515625 
Q 56.109375 36.859375 58.953125 32.25 
Q 61.8125 27.640625 61.8125 20.84375 
Q 61.8125 14.703125 58.390625 9.328125 
Q 54.984375 3.953125 48.734375 1.34375 
Q 42.484375 -1.265625 33.15625 -1.265625 
Q 19.578125 -1.265625 12.296875 5 
Q 5.03125 11.28125 3.609375 23.296875 
z
" id="Arial-BoldMT-83"/>
     </defs>
     <g transform="translate(297.194687 493.51125)scale(0.2 -0.2)">
      <use xlink:href="#Arial-BoldMT-82"/>
      <use x="72.216797" xlink:href="#Arial-BoldMT-65"/>
      <use x="144.433594" xlink:href="#Arial-BoldMT-68"/>
      <use x="216.650391" xlink:href="#Arial-BoldMT-73"/>
      <use x="244.433594" xlink:href="#Arial-BoldMT-85"/>
      <use x="316.650391" xlink:href="#Arial-BoldMT-83"/>
     </g>
    </g>
   </g>
   <g id="matplotlib.axis_2">
    <g id="ytick_1">
     <g id="line2d_7">
      <defs>
       <path d="M 0 0 
L -3.5 0 
" id="mff1588a725" style="stroke:#000000;stroke-width:0.8;"/>
      </defs>
      <g>
       <use style="stroke:#000000;stroke-width:0.8;" x="140.230625" xlink:href="#mff1588a725" y="433.16125"/>
      </g>
     </g>
     <g id="text_8">
      <!-- 0 -->
      <g transform="translate(114.143125 444.558906)scale(0.3 -0.3)">
       <use xlink:href="#DejaVuSans-48"/>
      </g>
     </g>
    </g>
    <g id="ytick_2">
     <g id="line2d_8">
      <g>
       <use style="stroke:#000000;stroke-width:0.8;" x="140.230625" xlink:href="#mff1588a725" y="357.535207"/>
      </g>
     </g>
     <g id="text_9">
      <!-- 1000 -->
      <g transform="translate(56.880625 368.932863)scale(0.3 -0.3)">
       <use xlink:href="#DejaVuSans-49"/>
       <use x="63.623047" xlink:href="#DejaVuSans-48"/>
       <use x="127.246094" xlink:href="#DejaVuSans-48"/>
       <use x="190.869141" xlink:href="#DejaVuSans-48"/>
      </g>
     </g>
    </g>
    <g id="ytick_3">
     <g id="line2d_9">
      <g>
       <use style="stroke:#000000;stroke-width:0.8;" x="140.230625" xlink:href="#mff1588a725" y="281.909163"/>
      </g>
     </g>
     <g id="text_10">
      <!-- 2000 -->
      <g transform="translate(56.880625 293.306819)scale(0.3 -0.3)">
       <use xlink:href="#DejaVuSans-50"/>
       <use x="63.623047" xlink:href="#DejaVuSans-48"/>
       <use x="127.246094" xlink:href="#DejaVuSans-48"/>
       <use x="190.869141" xlink:href="#DejaVuSans-48"/>
      </g>
     </g>
    </g>
    <g id="ytick_4">
     <g id="line2d_10">
      <g>
       <use style="stroke:#000000;stroke-width:0.8;" x="140.230625" xlink:href="#mff1588a725" y="206.28312"/>
      </g>
     </g>
     <g id="text_11">
      <!-- 3000 -->
      <g transform="translate(56.880625 217.680776)scale(0.3 -0.3)">
       <use xlink:href="#DejaVuSans-51"/>
       <use x="63.623047" xlink:href="#DejaVuSans-48"/>
       <use x="127.246094" xlink:href="#DejaVuSans-48"/>
       <use x="190.869141" xlink:href="#DejaVuSans-48"/>
      </g>
     </g>
    </g>
    <g id="ytick_5">
     <g id="line2d_11">
      <g>
       <use style="stroke:#000000;stroke-width:0.8;" x="140.230625" xlink:href="#mff1588a725" y="130.657076"/>
      </g>
     </g>
     <g id="text_12">
      <!-- 4000 -->
      <defs>
       <path d="M 37.796875 64.3125 
L 12.890625 25.390625 
L 37.796875 25.390625 
z
M 35.203125 72.90625 
L 47.609375 72.90625 
L 47.609375 25.390625 
L 58.015625 25.390625 
L 58.015625 17.1875 
L 47.609375 17.1875 
L 47.609375 0 
L 37.796875 0 
L 37.796875 17.1875 
L 4.890625 17.1875 
L 4.890625 26.703125 
z
" id="DejaVuSans-52"/>
      </defs>
      <g transform="translate(56.880625 142.054733)scale(0.3 -0.3)">
       <use xlink:href="#DejaVuSans-52"/>
       <use x="63.623047" xlink:href="#DejaVuSans-48"/>
       <use x="127.246094" xlink:href="#DejaVuSans-48"/>
       <use x="190.869141" xlink:href="#DejaVuSans-48"/>
      </g>
     </g>
    </g>
    <g id="ytick_6">
     <g id="line2d_12">
      <g>
       <use style="stroke:#000000;stroke-width:0.8;" x="140.230625" xlink:href="#mff1588a725" y="55.031033"/>
      </g>
     </g>
     <g id="text_13">
      <!-- 5000 -->
      <g transform="translate(56.880625 66.428689)scale(0.3 -0.3)">
       <use xlink:href="#DejaVuSans-53"/>
       <use x="63.623047" xlink:href="#DejaVuSans-48"/>
       <use x="127.246094" xlink:href="#DejaVuSans-48"/>
       <use x="190.869141" xlink:href="#DejaVuSans-48"/>
      </g>
     </g>
    </g>
    <g id="text_14">
     <!-- T-CELL LIVE -->
     <defs>
      <path d="M 23.390625 0 
L 23.390625 59.46875 
L 2.15625 59.46875 
L 2.15625 71.578125 
L 59.03125 71.578125 
L 59.03125 59.46875 
L 37.84375 59.46875 
L 37.84375 0 
z
" id="Arial-BoldMT-84"/>
      <path d="M 5.609375 19.09375 
L 5.609375 32.8125 
L 32.5625 32.8125 
L 32.5625 19.09375 
z
" id="Arial-BoldMT-45"/>
      <path d="M 53.078125 26.3125 
L 67.09375 21.875 
Q 63.875 10.15625 56.375 4.46875 
Q 48.875 -1.21875 37.359375 -1.21875 
Q 23.09375 -1.21875 13.90625 8.515625 
Q 4.734375 18.265625 4.734375 35.15625 
Q 4.734375 53.03125 13.953125 62.90625 
Q 23.1875 72.796875 38.234375 72.796875 
Q 51.375 72.796875 59.578125 65.046875 
Q 64.453125 60.453125 66.890625 51.859375 
L 52.59375 48.4375 
Q 51.3125 54 47.28125 57.21875 
Q 43.265625 60.453125 37.5 60.453125 
Q 29.546875 60.453125 24.578125 54.734375 
Q 19.625 49.03125 19.625 36.234375 
Q 19.625 22.65625 24.5 16.890625 
Q 29.390625 11.140625 37.203125 11.140625 
Q 42.96875 11.140625 47.109375 14.796875 
Q 51.265625 18.453125 53.078125 26.3125 
z
" id="Arial-BoldMT-67"/>
      <path d="M 7.28125 0 
L 7.28125 71.578125 
L 60.359375 71.578125 
L 60.359375 59.46875 
L 21.734375 59.46875 
L 21.734375 43.609375 
L 57.671875 43.609375 
L 57.671875 31.546875 
L 21.734375 31.546875 
L 21.734375 12.0625 
L 61.71875 12.0625 
L 61.71875 0 
z
" id="Arial-BoldMT-69"/>
      <path d="M 7.671875 0 
L 7.671875 71 
L 22.125 71 
L 22.125 12.0625 
L 58.0625 12.0625 
L 58.0625 0 
z
" id="Arial-BoldMT-76"/>
      <path id="Arial-BoldMT-32"/>
      <path d="M 25.53125 0 
L -0.046875 71.578125 
L 15.625 71.578125 
L 33.734375 18.609375 
L 51.265625 71.578125 
L 66.609375 71.578125 
L 40.96875 0 
z
" id="Arial-BoldMT-86"/>
     </defs>
     <g transform="translate(21.253125 303.441875)rotate(-90)scale(0.2 -0.2)">
      <use xlink:href="#Arial-BoldMT-84"/>
      <use x="61.005859" xlink:href="#Arial-BoldMT-45"/>
      <use x="94.306641" xlink:href="#Arial-BoldMT-67"/>
      <use x="166.523438" xlink:href="#Arial-BoldMT-69"/>
      <use x="233.222656" xlink:href="#Arial-BoldMT-76"/>
      <use x="294.306641" xlink:href="#Arial-BoldMT-76"/>
      <use x="355.375" xlink:href="#Arial-BoldMT-32"/>
      <use x="383.158203" xlink:href="#Arial-BoldMT-76"/>
      <use x="444.242188" xlink:href="#Arial-BoldMT-73"/>
      <use x="472.025391" xlink:href="#Arial-BoldMT-86"/>
      <use x="538.724609" xlink:href="#Arial-BoldMT-69"/>
     </g>
     <!-- CELL COUNTS (NUMBERS) -->
     <defs>
      <path d="M 4.34375 35.359375 
Q 4.34375 46.296875 7.625 53.71875 
Q 10.0625 59.1875 14.28125 63.53125 
Q 18.5 67.875 23.53125 69.96875 
Q 30.21875 72.796875 38.96875 72.796875 
Q 54.78125 72.796875 64.28125 62.984375 
Q 73.78125 53.171875 73.78125 35.6875 
Q 73.78125 18.359375 64.359375 8.5625 
Q 54.9375 -1.21875 39.15625 -1.21875 
Q 23.1875 -1.21875 13.765625 8.515625 
Q 4.34375 18.265625 4.34375 35.359375 
z
M 19.234375 35.84375 
Q 19.234375 23.6875 24.84375 17.40625 
Q 30.46875 11.140625 39.109375 11.140625 
Q 47.75 11.140625 53.296875 17.359375 
Q 58.84375 23.578125 58.84375 36.03125 
Q 58.84375 48.34375 53.4375 54.390625 
Q 48.046875 60.453125 39.109375 60.453125 
Q 30.171875 60.453125 24.703125 54.3125 
Q 19.234375 48.1875 19.234375 35.84375 
z
" id="Arial-BoldMT-79"/>
      <path d="M 7.421875 0 
L 7.421875 71.578125 
L 21.484375 71.578125 
L 50.78125 23.78125 
L 50.78125 71.578125 
L 64.203125 71.578125 
L 64.203125 0 
L 49.703125 0 
L 20.84375 46.6875 
L 20.84375 0 
z
" id="Arial-BoldMT-78"/>
      <path d="M 29.9375 -21.046875 
L 20.515625 -21.046875 
Q 13.03125 -9.765625 9.125 2.390625 
Q 5.21875 14.546875 5.21875 25.921875 
Q 5.21875 40.046875 10.0625 52.640625 
Q 14.265625 63.578125 20.703125 72.796875 
L 30.078125 72.796875 
Q 23.390625 58.015625 20.875 47.625 
Q 18.359375 37.25 18.359375 25.640625 
Q 18.359375 17.625 19.84375 9.21875 
Q 21.34375 0.828125 23.921875 -6.734375 
Q 25.640625 -11.71875 29.9375 -21.046875 
z
" id="Arial-BoldMT-40"/>
      <path d="M 7.078125 0 
L 7.078125 71.578125 
L 28.71875 71.578125 
L 41.703125 22.75 
L 54.546875 71.578125 
L 76.21875 71.578125 
L 76.21875 0 
L 62.796875 0 
L 62.796875 56.34375 
L 48.578125 0 
L 34.671875 0 
L 20.515625 56.34375 
L 20.515625 0 
z
" id="Arial-BoldMT-77"/>
      <path d="M 7.328125 71.578125 
L 35.9375 71.578125 
Q 44.4375 71.578125 48.609375 70.875 
Q 52.78125 70.171875 56.078125 67.921875 
Q 59.375 65.671875 61.5625 61.9375 
Q 63.765625 58.203125 63.765625 53.5625 
Q 63.765625 48.53125 61.046875 44.328125 
Q 58.34375 40.140625 53.71875 38.03125 
Q 60.25 36.140625 63.765625 31.546875 
Q 67.28125 26.953125 67.28125 20.75 
Q 67.28125 15.875 65.015625 11.25 
Q 62.75 6.640625 58.8125 3.875 
Q 54.890625 1.125 49.125 0.484375 
Q 45.515625 0.09375 31.6875 0 
L 7.328125 0 
z
M 21.78125 59.671875 
L 21.78125 43.109375 
L 31.25 43.109375 
Q 39.703125 43.109375 41.75 43.359375 
Q 45.453125 43.796875 47.578125 45.921875 
Q 49.703125 48.046875 49.703125 51.515625 
Q 49.703125 54.828125 47.875 56.90625 
Q 46.046875 58.984375 42.4375 59.421875 
Q 40.28125 59.671875 30.078125 59.671875 
z
M 21.78125 31.203125 
L 21.78125 12.0625 
L 35.15625 12.0625 
Q 42.96875 12.0625 45.0625 12.5 
Q 48.296875 13.09375 50.3125 15.359375 
Q 52.34375 17.625 52.34375 21.4375 
Q 52.34375 24.65625 50.78125 26.90625 
Q 49.21875 29.15625 46.265625 30.171875 
Q 43.3125 31.203125 33.453125 31.203125 
z
" id="Arial-BoldMT-66"/>
      <path d="M 3.375 -21.046875 
Q 7.421875 -12.359375 9.078125 -7.71875 
Q 10.75 -3.078125 12.15625 2.96875 
Q 13.578125 9.03125 14.25 14.46875 
Q 14.9375 19.921875 14.9375 25.640625 
Q 14.9375 37.25 12.453125 47.625 
Q 9.96875 58.015625 3.265625 72.796875 
L 12.59375 72.796875 
Q 19.96875 62.3125 24.046875 50.53125 
Q 28.125 38.765625 28.125 26.65625 
Q 28.125 16.453125 24.90625 4.78125 
Q 21.234375 -8.296875 12.84375 -21.046875 
z
" id="Arial-BoldMT-41"/>
     </defs>
     <g transform="translate(42.67125 374.002812)rotate(-90)scale(0.2 -0.2)">
      <use xlink:href="#Arial-BoldMT-67"/>
      <use x="72.216797" xlink:href="#Arial-BoldMT-69"/>
      <use x="138.916016" xlink:href="#Arial-BoldMT-76"/>
      <use x="200" xlink:href="#Arial-BoldMT-76"/>
      <use x="261.068359" xlink:href="#Arial-BoldMT-32"/>
      <use x="288.851562" xlink:href="#Arial-BoldMT-67"/>
      <use x="361.068359" xlink:href="#Arial-BoldMT-79"/>
      <use x="438.851562" xlink:href="#Arial-BoldMT-85"/>
      <use x="511.068359" xlink:href="#Arial-BoldMT-78"/>
      <use x="583.285156" xlink:href="#Arial-BoldMT-84"/>
      <use x="644.369141" xlink:href="#Arial-BoldMT-83"/>
      <use x="711.068359" xlink:href="#Arial-BoldMT-32"/>
      <use x="738.851562" xlink:href="#Arial-BoldMT-40"/>
      <use x="772.152344" xlink:href="#Arial-BoldMT-78"/>
      <use x="844.369141" xlink:href="#Arial-BoldMT-85"/>
      <use x="916.585938" xlink:href="#Arial-BoldMT-77"/>
      <use x="999.886719" xlink:href="#Arial-BoldMT-66"/>
      <use x="1072.103516" xlink:href="#Arial-BoldMT-69"/>
      <use x="1138.802734" xlink:href="#Arial-BoldMT-82"/>
      <use x="1211.019531" xlink:href="#Arial-BoldMT-83"/>
      <use x="1277.71875" xlink:href="#Arial-BoldMT-41"/>
     </g>
    </g>
   </g>
   <g id="line2d_13">
    <path clip-path="url(#pc028b41430)" d="M 140.230625 432.026859 
L 152.066989 421.741717 
L 163.903352 412.51534 
L 175.739716 400.642051 
L 187.57608 388.163754 
L 199.412443 378.407995 
L 211.248807 365.551567 
L 223.08517 353.527026 
L 234.921534 344.981283 
L 246.757898 333.561751 
L 258.594261 319.117177 
L 270.430625 306.941384 
L 282.266989 303.38696 
L 294.103352 288.715507 
L 305.939716 272.60716 
L 317.77608 267.540215 
L 329.612443 250.751233 
L 341.448807 241.0711 
L 353.28517 228.744055 
L 365.121534 216.114505 
L 376.957898 198.644889 
L 388.794261 194.031701 
L 400.630625 181.402152 
L 412.466989 171.041384 
L 424.303352 159.243721 
L 436.139716 157.655574 
L 447.97608 139.354071 
L 459.812443 136.026525 
L 471.648807 113.792469 
L 483.48517 109.254906 
L 495.321534 111.523687 
L 507.157898 99.574773 
L 518.994261 99.42352 
L 530.830625 93.070933 
" style="fill:none;stroke:#08306b;stroke-linecap:square;stroke-width:1.5;"/>
   </g>
   <g id="line2d_14">
    <path clip-path="url(#pc028b41430)" d="M 140.230625 431.043721 
L 152.066989 421.514839 
L 163.903352 409.641551 
L 175.739716 398.600148 
L 187.57608 389.449397 
L 199.412443 379.315507 
L 211.248807 368.879113 
L 223.08517 357.157076 
L 234.921534 345.586292 
L 246.757898 333.864255 
L 258.594261 322.066592 
L 270.430625 312.008328 
L 282.266989 297.563754 
L 294.103352 289.244889 
L 305.939716 278.808495 
L 317.77608 259.59948 
L 329.612443 249.768095 
L 341.448807 243.491133 
L 353.28517 229.273437 
L 365.121534 216.568262 
L 376.957898 207.03938 
L 388.794261 196.300482 
L 400.630625 187.603487 
L 412.466989 171.419514 
L 424.303352 169.831367 
L 436.139716 158.033704 
L 447.97608 139.354071 
L 459.812443 133.379614 
L 471.648807 130.278946 
L 483.48517 106.607995 
L 495.321534 96.549731 
L 507.157898 96.625357 
L 518.994261 83.163921 
L 530.830625 81.122018 
" style="fill:none;stroke:#08306b;stroke-linecap:square;stroke-width:1.5;"/>
   </g>
   <g id="line2d_15">
    <path clip-path="url(#pc028b41430)" d="M 140.230625 431.119347 
L 152.066989 421.287961 
L 163.903352 409.944055 
L 175.739716 398.675774 
L 187.57608 388.088128 
L 199.412443 374.47544 
L 211.248807 359.501484 
L 223.08517 352.090131 
L 234.921534 344.603153 
L 246.757898 334.771768 
L 258.594261 321.234706 
L 270.430625 308.605157 
L 282.266989 302.857577 
L 294.103352 285.539213 
L 305.939716 272.98529 
L 317.77608 265.800816 
L 329.612443 254.456909 
L 341.448807 247.196809 
L 353.28517 231.69347 
L 365.121534 219.820182 
L 376.957898 209.610666 
L 388.794261 204.392469 
L 400.630625 193.502318 
L 412.466989 165.747561 
L 424.303352 155.538045 
L 436.139716 146.916676 
L 447.97608 134.287126 
L 459.812443 123.018846 
L 471.648807 112.658078 
L 483.48517 106.986125 
L 495.321534 103.507327 
L 507.157898 93.297811 
L 518.994261 75.374439 
L 530.830625 78.475106 
" style="fill:none;stroke:#08306b;stroke-linecap:square;stroke-width:1.5;"/>
   </g>
   <g id="line2d_16">
    <path clip-path="url(#pc028b41430)" d="M 140.230625 431.346225 
L 152.066989 421.666091 
L 163.903352 411.229697 
L 175.739716 397.541384 
L 187.57608 387.936876 
L 199.412443 375.534205 
L 211.248807 365.702819 
L 223.08517 355.493303 
L 234.921534 345.208162 
L 246.757898 337.569931 
L 258.594261 322.822853 
L 270.430625 312.310833 
L 282.266989 300.286292 
L 294.103352 287.051734 
L 305.939716 274.270933 
L 317.77608 265.34706 
L 329.612443 244.625524 
L 341.448807 235.247894 
L 353.28517 232.374105 
L 365.121534 217.022018 
L 376.957898 208.930031 
L 388.794261 199.552402 
L 400.630625 188.586626 
L 412.466989 173.990799 
L 424.303352 155.764923 
L 436.139716 153.571768 
L 447.97608 138.219681 
L 459.812443 128.388295 
L 471.648807 122.413838 
L 483.48517 113.565591 
L 495.321534 106.759247 
L 507.157898 88.079614 
L 518.994261 84.298312 
L 530.830625 78.777611 
" style="fill:none;stroke:#08306b;stroke-linecap:square;stroke-width:1.5;"/>
   </g>
   <g id="line2d_17">
    <path clip-path="url(#pc028b41430)" d="M 140.230625 431.421851 
L 152.066989 421.89297 
L 163.903352 410.019681 
L 175.739716 398.827026 
L 187.57608 388.995641 
L 199.412443 378.483621 
L 211.248807 365.854071 
L 223.08517 358.064589 
L 234.921534 343.695641 
L 246.757898 330.536709 
L 258.594261 318.965924 
L 270.430625 312.008328 
L 282.266989 295.370599 
L 294.103352 284.631701 
L 305.939716 278.354739 
L 317.77608 262.47327 
L 329.612443 248.179948 
L 341.448807 248.255574 
L 353.28517 240.541717 
L 365.121534 219.895808 
L 376.957898 213.770098 
L 388.794261 206.207494 
L 400.630625 190.552903 
L 412.466989 182.687794 
L 424.303352 167.940716 
L 436.139716 150.773604 
L 447.97608 136.177778 
L 459.812443 129.371434 
L 471.648807 115.909998 
L 483.48517 109.17928 
L 495.321534 97.759747 
L 507.157898 90.045891 
L 518.994261 84.827694 
L 530.830625 91.104656 
" style="fill:none;stroke:#08306b;stroke-linecap:square;stroke-width:1.5;"/>
   </g>
   <g id="line2d_18">
    <path clip-path="url(#pc028b41430)" d="M 140.230625 431.043721 
L 152.066989 421.212335 
L 163.903352 412.212836 
L 175.739716 400.642051 
L 187.57608 389.146893 
L 199.412443 373.946058 
L 211.248807 365.097811 
L 223.08517 354.283287 
L 234.921534 345.056909 
L 246.757898 335.452402 
L 258.594261 326.301651 
L 270.430625 309.285791 
L 282.266989 297.63938 
L 294.103352 287.656742 
L 305.939716 278.884121 
L 317.77608 266.708328 
L 329.612443 256.801317 
L 341.448807 247.801818 
L 353.28517 229.575941 
L 365.121534 223.29898 
L 376.957898 206.509998 
L 388.794261 195.39297 
L 400.630625 193.199814 
L 412.466989 186.317844 
L 424.303352 172.024522 
L 436.139716 158.033704 
L 447.97608 152.664255 
L 459.812443 136.631534 
L 471.648807 122.716342 
L 483.48517 114.246225 
L 495.321534 106.834873 
L 507.157898 93.373437 
L 518.994261 85.432702 
L 530.830625 79.382619 
" style="fill:none;stroke:#08306b;stroke-linecap:square;stroke-width:1.5;"/>
   </g>
   <g id="line2d_19">
    <path clip-path="url(#pc028b41430)" d="M 140.230625 431.119347 
L 152.066989 420.456075 
L 163.903352 410.397811 
L 175.739716 399.356409 
L 187.57608 390.130031 
L 199.412443 376.895474 
L 211.248807 364.644055 
L 223.08517 354.737043 
L 234.921534 341.729364 
L 246.757898 329.326692 
L 258.594261 320.175941 
L 270.430625 311.554572 
L 282.266989 296.051233 
L 294.103352 285.236709 
L 305.939716 269.430866 
L 317.77608 265.34706 
L 329.612443 254.83504 
L 341.448807 240.163587 
L 353.28517 231.390966 
L 365.121534 219.895808 
L 376.957898 209.686292 
L 388.794261 200.15741 
L 400.630625 188.284121 
L 412.466989 170.285123 
L 424.303352 167.86509 
L 436.139716 159.168095 
L 447.97608 140.866592 
L 459.812443 133.45524 
L 471.648807 110.994305 
L 483.48517 105.776108 
L 495.321534 94.356576 
L 507.157898 94.885958 
L 518.994261 90.650899 
L 530.830625 96.700983 
" style="fill:none;stroke:#08306b;stroke-linecap:square;stroke-width:1.5;"/>
   </g>
   <g id="line2d_20">
    <path clip-path="url(#pc028b41430)" d="M 140.230625 431.270599 
L 152.066989 422.119848 
L 163.903352 411.154071 
L 175.739716 399.432035 
L 187.57608 390.583788 
L 199.412443 378.710499 
L 211.248807 364.870933 
L 223.08517 353.980783 
L 234.921534 343.241884 
L 246.757898 336.813671 
L 258.594261 320.100315 
L 270.430625 312.991467 
L 282.266989 302.706325 
L 294.103352 291.967427 
L 305.939716 283.346058 
L 317.77608 265.800816 
L 329.612443 252.112502 
L 341.448807 233.811 
L 353.28517 221.786459 
L 365.121534 210.442552 
L 376.957898 204.543721 
L 388.794261 202.426192 
L 400.630625 193.426692 
L 412.466989 187.452235 
L 424.303352 166.579447 
L 436.139716 167.108829 
L 447.97608 157.126192 
L 459.812443 142.000983 
L 471.648807 116.666258 
L 483.48517 99.952903 
L 495.321534 89.440883 
L 507.157898 88.760248 
L 518.994261 79.306993 
L 530.830625 81.727026 
" style="fill:none;stroke:#08306b;stroke-linecap:square;stroke-width:1.5;"/>
   </g>
   <g id="line2d_21">
    <path clip-path="url(#pc028b41430)" d="M 140.230625 430.892469 
L 152.066989 421.061083 
L 163.903352 409.565924 
L 175.739716 400.717677 
L 187.57608 388.995641 
L 199.412443 376.9711 
L 211.248807 367.669096 
L 223.08517 356.627694 
L 234.921534 345.737544 
L 246.757898 336.05741 
L 258.594261 320.024689 
L 270.430625 309.663921 
L 282.266989 298.320015 
L 294.103352 287.354238 
L 305.939716 274.346559 
L 317.77608 261.71701 
L 329.612443 243.113003 
L 341.448807 236.987293 
L 353.28517 226.626525 
L 365.121534 220.349564 
L 376.957898 202.350566 
L 388.794261 200.081784 
L 400.630625 190.099146 
L 412.466989 170.738879 
L 424.303352 167.789464 
L 436.139716 148.504823 
L 447.97608 137.46342 
L 459.812443 126.875774 
L 471.648807 115.078111 
L 483.48517 107.893637 
L 495.321534 101.692302 
L 507.157898 85.130198 
L 518.994261 80.668262 
L 530.830625 79.004489 
" style="fill:none;stroke:#08306b;stroke-linecap:square;stroke-width:1.5;"/>
   </g>
   <g id="line2d_22">
    <path clip-path="url(#pc028b41430)" d="M 140.230625 431.194973 
L 152.066989 421.968596 
L 163.903352 412.666592 
L 175.739716 398.524522 
L 187.57608 389.978779 
L 199.412443 379.996141 
L 211.248807 368.425357 
L 223.08517 351.106993 
L 234.921534 339.006826 
L 246.757898 325.318512 
L 258.594261 313.067093 
L 270.430625 301.874439 
L 282.266989 286.74923 
L 294.103352 286.144222 
L 305.939716 273.817177 
L 317.77608 267.086459 
L 329.612443 259.070098 
L 341.448807 247.877444 
L 353.28517 237.81918 
L 365.121534 225.416509 
L 376.957898 210.140048 
L 388.794261 197.661751 
L 400.630625 184.427193 
L 412.466989 169.528863 
L 424.303352 160.378111 
L 436.139716 152.588629 
L 447.97608 147.672936 
L 459.812443 131.186459 
L 471.648807 124.985123 
L 483.48517 112.733704 
L 495.321534 107.969263 
L 507.157898 94.961584 
L 518.994261 80.743888 
L 530.830625 72.651901 
" style="fill:none;stroke:#08306b;stroke-linecap:square;stroke-width:1.5;"/>
   </g>
   <g id="line2d_23">
    <path clip-path="url(#pc028b41430)" d="M 140.230625 432.026859 
L 152.066989 424.539881 
L 163.903352 416.901651 
L 175.739716 404.574606 
L 187.57608 391.188796 
L 199.412443 381.433036 
L 211.248807 375.761083 
L 223.08517 371.072268 
L 234.921534 360.257744 
L 246.757898 354.283287 
L 258.594261 346.645056 
L 270.430625 341.502485 
L 282.266989 327.511667 
L 294.103352 313.067093 
L 305.939716 298.168763 
L 317.77608 289.093637 
L 329.612443 285.312335 
L 341.448807 276.23721 
L 353.28517 266.708328 
L 365.121534 256.650065 
L 376.957898 248.784956 
L 388.794261 235.32352 
L 400.630625 232.449731 
L 412.466989 223.374606 
L 424.303352 204.694973 
L 436.139716 209.232535 
L 447.97608 195.544222 
L 459.812443 187.300983 
L 471.648807 175.427694 
L 483.48517 169.982619 
L 495.321534 159.621851 
L 507.157898 164.461918 
L 518.994261 155.764923 
L 530.830625 164.688796 
" style="fill:none;stroke:#4a98c9;stroke-linecap:square;stroke-width:1.5;"/>
   </g>
   <g id="line2d_24">
    <path clip-path="url(#pc028b41430)" d="M 140.230625 431.724355 
L 152.066989 423.556742 
L 163.903352 416.221016 
L 175.739716 406.843387 
L 187.57608 396.482619 
L 199.412443 392.247561 
L 211.248807 382.643053 
L 223.08517 375.004823 
L 234.921534 368.500983 
L 246.757898 358.064589 
L 258.594261 345.586292 
L 270.430625 329.553571 
L 282.266989 313.445223 
L 294.103352 307.243888 
L 305.939716 296.807494 
L 317.77608 279.564756 
L 329.612443 274.649063 
L 341.448807 269.960248 
L 353.28517 256.498813 
L 365.121534 252.868763 
L 376.957898 246.138045 
L 388.794261 235.172268 
L 400.630625 219.820182 
L 412.466989 221.710833 
L 424.303352 215.812001 
L 436.139716 195.39297 
L 447.97608 195.014839 
L 459.812443 183.897811 
L 471.648807 177.015841 
L 483.48517 171.192636 
L 495.321534 155.613671 
L 507.157898 161.966258 
L 518.994261 146.538545 
L 530.830625 154.630532 
" style="fill:none;stroke:#4a98c9;stroke-linecap:square;stroke-width:1.5;"/>
   </g>
   <g id="line2d_25">
    <path clip-path="url(#pc028b41430)" d="M 140.230625 431.951233 
L 152.066989 425.447394 
L 163.903352 419.624188 
L 175.739716 408.582786 
L 187.57608 398.146392 
L 199.412443 386.197477 
L 211.248807 379.164255 
L 223.08517 369.484121 
L 234.921534 356.778946 
L 246.757898 346.115674 
L 258.594261 342.334372 
L 270.430625 328.646058 
L 282.266989 317.453404 
L 294.103352 317.377778 
L 305.939716 308.1514 
L 317.77608 307.243888 
L 329.612443 300.361918 
L 341.448807 286.900482 
L 353.28517 276.99347 
L 365.121534 270.792135 
L 376.957898 254.078779 
L 388.794261 251.129364 
L 400.630625 237.44105 
L 412.466989 220.500816 
L 424.303352 211.501317 
L 436.139716 206.509998 
L 447.97608 198.569263 
L 459.812443 197.737377 
L 471.648807 184.880949 
L 483.48517 175.88145 
L 495.321534 166.957577 
L 507.157898 140.639714 
L 518.994261 138.522185 
L 530.830625 150.622352 
" style="fill:none;stroke:#4a98c9;stroke-linecap:square;stroke-width:1.5;"/>
   </g>
   <g id="line2d_26">
    <path clip-path="url(#pc028b41430)" d="M 140.230625 431.194973 
L 152.066989 422.951734 
L 163.903352 412.590966 
L 175.739716 403.213337 
L 187.57608 393.003821 
L 199.412443 383.248061 
L 211.248807 374.324188 
L 223.08517 367.290966 
L 234.921534 354.963921 
L 246.757898 359.425858 
L 258.594261 348.308829 
L 270.430625 346.342552 
L 282.266989 329.402318 
L 294.103352 314.957744 
L 305.939716 310.571434 
L 317.77608 304.823854 
L 329.612443 290.530532 
L 341.448807 284.329197 
L 353.28517 269.808996 
L 365.121534 253.776275 
L 376.957898 244.020515 
L 388.794261 231.466592 
L 400.630625 220.727694 
L 412.466989 207.190632 
L 424.303352 193.199814 
L 436.139716 191.989798 
L 447.97608 172.327026 
L 459.812443 180.267761 
L 471.648807 187.679113 
L 483.48517 166.881951 
L 495.321534 162.11751 
L 507.157898 156.445557 
L 518.994261 144.269764 
L 530.830625 162.420015 
" style="fill:none;stroke:#4a98c9;stroke-linecap:square;stroke-width:1.5;"/>
   </g>
   <g id="line2d_27">
    <path clip-path="url(#pc028b41430)" d="M 140.230625 431.497477 
L 152.066989 423.707995 
L 163.903352 413.498479 
L 175.739716 403.969597 
L 187.57608 391.340048 
L 199.412443 380.147394 
L 211.248807 375.080449 
L 223.08517 368.198479 
L 234.921534 358.140215 
L 246.757898 353.82953 
L 258.594261 338.250566 
L 270.430625 325.92352 
L 282.266989 313.142719 
L 294.103352 307.622018 
L 305.939716 301.118178 
L 317.77608 283.194806 
L 329.612443 276.539714 
L 341.448807 273.514672 
L 353.28517 262.397644 
L 365.121534 253.700649 
L 376.957898 259.448228 
L 388.794261 248.255574 
L 400.630625 240.012335 
L 412.466989 225.265257 
L 424.303352 208.778779 
L 436.139716 189.64539 
L 447.97608 170.965758 
L 459.812443 169.906993 
L 471.648807 154.781784 
L 483.48517 148.958579 
L 495.321534 151.832369 
L 507.157898 176.410833 
L 518.994261 160.226859 
L 530.830625 171.87327 
" style="fill:none;stroke:#4a98c9;stroke-linecap:square;stroke-width:1.5;"/>
   </g>
   <g id="line2d_28">
    <path clip-path="url(#pc028b41430)" d="M 140.230625 431.119347 
L 152.066989 425.674272 
L 163.903352 413.271601 
L 175.739716 407.524021 
L 187.57608 407.297143 
L 199.412443 395.953237 
L 211.248807 384.836208 
L 223.08517 381.73554 
L 234.921534 363.055908 
L 246.757898 357.308328 
L 258.594261 345.43504 
L 270.430625 333.334873 
L 282.266989 321.839714 
L 294.103352 312.159581 
L 305.939716 311.857076 
L 317.77608 304.823854 
L 329.612443 280.321016 
L 341.448807 273.136542 
L 353.28517 258.46509 
L 365.121534 245.911167 
L 376.957898 231.466592 
L 388.794261 225.719013 
L 400.630625 212.938212 
L 412.466989 217.702652 
L 424.303352 209.308162 
L 436.139716 205.829364 
L 447.97608 191.157911 
L 459.812443 192.670432 
L 471.648807 198.569263 
L 483.48517 175.805824 
L 495.321534 156.218679 
L 507.157898 148.656075 
L 518.994261 138.900315 
L 530.830625 148.656075 
" style="fill:none;stroke:#4a98c9;stroke-linecap:square;stroke-width:1.5;"/>
   </g>
   <g id="line2d_29">
    <path clip-path="url(#pc028b41430)" d="M 140.230625 432.631868 
L 152.066989 426.430532 
L 163.903352 414.405991 
L 175.739716 407.145891 
L 187.57608 395.49948 
L 199.412443 389.600649 
L 211.248807 374.626692 
L 223.08517 365.702819 
L 234.921534 363.736542 
L 246.757898 343.241884 
L 258.594261 336.662419 
L 270.430625 323.805991 
L 282.266989 309.815173 
L 294.103352 302.781951 
L 305.939716 295.446225 
L 317.77608 289.62302 
L 329.612443 289.698646 
L 341.448807 270.187126 
L 353.28517 257.103821 
L 365.121534 243.793637 
L 376.957898 237.062919 
L 388.794261 231.995975 
L 400.630625 228.744055 
L 412.466989 219.290799 
L 424.303352 208.325023 
L 436.139716 199.930532 
L 447.97608 196.300482 
L 459.812443 185.712836 
L 471.648807 184.880949 
L 483.48517 162.268763 
L 495.321534 162.495641 
L 507.157898 168.772602 
L 518.994261 148.656075 
L 530.830625 168.091968 
" style="fill:none;stroke:#4a98c9;stroke-linecap:square;stroke-width:1.5;"/>
   </g>
   <g id="line2d_30">
    <path clip-path="url(#pc028b41430)" d="M 140.230625 431.421851 
L 152.066989 422.800482 
L 163.903352 413.422853 
L 175.739716 401.776442 
L 187.57608 392.852569 
L 199.412443 381.659914 
L 211.248807 370.08913 
L 223.08517 359.501484 
L 234.921534 346.645056 
L 246.757898 345.737544 
L 258.594261 334.771768 
L 270.430625 326.226025 
L 282.266989 322.595975 
L 294.103352 311.176442 
L 305.939716 298.546893 
L 317.77608 280.018512 
L 329.612443 274.195307 
L 341.448807 267.767093 
L 353.28517 256.952569 
L 365.121534 254.759414 
L 376.957898 243.944889 
L 388.794261 236.004155 
L 400.630625 236.987293 
L 412.466989 225.794639 
L 424.303352 214.980115 
L 436.139716 201.669931 
L 447.97608 197.661751 
L 459.812443 187.527861 
L 471.648807 189.040382 
L 483.48517 167.789464 
L 495.321534 154.025524 
L 507.157898 150.017343 
L 518.994261 132.547727 
L 530.830625 156.748061 
" style="fill:none;stroke:#4a98c9;stroke-linecap:square;stroke-width:1.5;"/>
   </g>
   <g id="line2d_31">
    <path clip-path="url(#pc028b41430)" d="M 140.230625 430.665591 
L 152.066989 422.573604 
L 163.903352 414.179113 
L 175.739716 400.490799 
L 187.57608 398.146392 
L 199.412443 389.525023 
L 211.248807 382.869931 
L 223.08517 372.509163 
L 234.921534 365.400315 
L 246.757898 350.955741 
L 258.594261 336.284288 
L 270.430625 327.133537 
L 282.266989 320.175941 
L 294.103352 306.941384 
L 305.939716 298.168763 
L 317.77608 296.126859 
L 329.612443 278.430365 
L 341.448807 267.993971 
L 353.28517 248.104322 
L 365.121534 239.256075 
L 376.957898 230.634706 
L 388.794261 213.089464 
L 400.630625 211.728195 
L 412.466989 198.947394 
L 424.303352 185.334706 
L 436.139716 176.940215 
L 447.97608 181.553404 
L 459.812443 171.268262 
L 471.648807 168.545724 
L 483.48517 162.344389 
L 495.321534 151.983621 
L 507.157898 150.84923 
L 518.994261 127.858913 
L 530.830625 140.034706 
" style="fill:none;stroke:#4a98c9;stroke-linecap:square;stroke-width:1.5;"/>
   </g>
   <g id="line2d_32">
    <path clip-path="url(#pc028b41430)" d="M 140.230625 431.875607 
L 152.066989 428.623687 
L 163.903352 419.77544 
L 175.739716 409.187794 
L 187.57608 398.448896 
L 199.412443 385.289965 
L 211.248807 369.408495 
L 223.08517 356.098312 
L 234.921534 345.586292 
L 246.757898 333.788629 
L 258.594261 323.503487 
L 270.430625 316.470265 
L 282.266989 312.008328 
L 294.103352 313.89898 
L 305.939716 302.328195 
L 317.77608 313.067093 
L 329.612443 291.513671 
L 341.448807 271.019013 
L 353.28517 255.5913 
L 365.121534 247.423687 
L 376.957898 243.188629 
L 388.794261 234.56726 
L 400.630625 220.122686 
L 412.466989 218.156409 
L 424.303352 214.29948 
L 436.139716 203.182452 
L 447.97608 188.586626 
L 459.812443 183.217177 
L 471.648807 161.058746 
L 483.48517 149.790465 
L 495.321534 146.084789 
L 507.157898 128.388295 
L 518.994261 137.539046 
L 530.830625 158.033704 
" style="fill:none;stroke:#4a98c9;stroke-linecap:square;stroke-width:1.5;"/>
   </g>
   <g id="line2d_33">
    <path clip-path="url(#pc028b41430)" d="M 140.230625 432.631868 
L 152.066989 429.90933 
L 163.903352 423.783621 
L 175.739716 419.01918 
L 187.57608 417.582285 
L 199.412443 408.734038 
L 211.248807 409.036542 
L 223.08517 403.818345 
L 234.921534 407.750899 
L 246.757898 394.289464 
L 258.594261 393.230699 
L 270.430625 398.600148 
L 282.266989 390.130031 
L 294.103352 388.768763 
L 305.939716 384.836208 
L 317.77608 372.282285 
L 329.612443 367.669096 
L 341.448807 364.039046 
L 353.28517 362.299647 
L 365.121534 359.728362 
L 376.957898 369.030365 
L 388.794261 362.299647 
L 400.630625 359.803988 
L 412.466989 355.190799 
L 424.303352 331.595474 
L 436.139716 339.384956 
L 447.97608 330.234205 
L 459.812443 320.705323 
L 471.648807 315.184622 
L 483.48517 304.218846 
L 495.321534 287.429864 
L 507.157898 270.1115 
L 518.994261 266.10332 
L 530.830625 268.825858 
" style="fill:none;stroke:#d0e1f2;stroke-linecap:square;stroke-width:1.5;"/>
   </g>
   <g id="line2d_34">
    <path clip-path="url(#pc028b41430)" d="M 140.230625 433.16125 
L 152.066989 429.5312 
L 163.903352 422.951734 
L 175.739716 417.355407 
L 187.57608 410.397811 
L 199.412443 404.347727 
L 211.248807 401.776442 
L 223.08517 399.583287 
L 234.921534 400.490799 
L 246.757898 398.222018 
L 258.594261 397.163253 
L 270.430625 384.079948 
L 282.266989 385.063086 
L 294.103352 388.012502 
L 305.939716 379.088629 
L 317.77608 370.08913 
L 329.612443 384.079948 
L 341.448807 373.114172 
L 353.28517 370.240382 
L 365.121534 367.139714 
L 376.957898 366.232202 
L 388.794261 353.4514 
L 400.630625 347.250065 
L 412.466989 334.318011 
L 424.303352 335.30115 
L 436.139716 325.999146 
L 447.97608 334.166759 
L 459.812443 330.914839 
L 471.648807 323.427861 
L 483.48517 317.52903 
L 495.321534 301.723187 
L 507.157898 294.614338 
L 518.994261 260.885123 
L 530.830625 280.62352 
" style="fill:none;stroke:#d0e1f2;stroke-linecap:square;stroke-width:1.5;"/>
   </g>
   <g id="line2d_35">
    <path clip-path="url(#pc028b41430)" d="M 140.230625 432.858746 
L 152.066989 426.65741 
L 163.903352 421.136709 
L 175.739716 413.876609 
L 187.57608 412.13721 
L 199.412443 408.50716 
L 211.248807 405.330866 
L 223.08517 413.271601 
L 234.921534 402.532702 
L 246.757898 399.356409 
L 258.594261 397.314505 
L 270.430625 388.012502 
L 282.266989 378.181116 
L 294.103352 370.618512 
L 305.939716 369.181617 
L 317.77608 367.669096 
L 329.612443 367.971601 
L 341.448807 372.282285 
L 353.28517 371.526025 
L 365.121534 365.929697 
L 376.957898 362.980282 
L 388.794261 361.694639 
L 400.630625 357.232702 
L 412.466989 348.081951 
L 424.303352 338.174939 
L 436.139716 351.409497 
L 447.97608 332.502986 
L 459.812443 333.107995 
L 471.648807 324.032869 
L 483.48517 312.764589 
L 495.321534 304.218846 
L 507.157898 277.900983 
L 518.994261 267.842719 
L 530.830625 290.076776 
" style="fill:none;stroke:#d0e1f2;stroke-linecap:square;stroke-width:1.5;"/>
   </g>
   <g id="line2d_36">
    <path clip-path="url(#pc028b41430)" d="M 140.230625 433.16125 
L 152.066989 431.119347 
L 163.903352 428.018679 
L 175.739716 424.010499 
L 187.57608 420.153571 
L 199.412443 416.447894 
L 211.248807 410.775941 
L 223.08517 401.398312 
L 234.921534 408.280282 
L 246.757898 401.927694 
L 258.594261 399.356409 
L 270.430625 393.457577 
L 282.266989 388.995641 
L 294.103352 378.861751 
L 305.939716 382.945557 
L 317.77608 378.861751 
L 329.612443 370.164756 
L 341.448807 363.812168 
L 353.28517 361.240883 
L 365.121534 357.459581 
L 376.957898 355.871434 
L 388.794261 350.123854 
L 400.630625 352.468262 
L 412.466989 347.325691 
L 424.303352 336.586793 
L 436.139716 339.914338 
L 447.97608 318.587794 
L 459.812443 316.243387 
L 471.648807 313.218345 
L 483.48517 289.320515 
L 495.321534 286.522352 
L 507.157898 268.372101 
L 518.994261 246.364923 
L 530.830625 264.742051 
" style="fill:none;stroke:#d0e1f2;stroke-linecap:square;stroke-width:1.5;"/>
   </g>
   <g id="line2d_37">
    <path clip-path="url(#pc028b41430)" d="M 140.230625 432.858746 
L 152.066989 431.346225 
L 163.903352 426.808662 
L 175.739716 422.800482 
L 187.57608 422.951734 
L 199.412443 414.859747 
L 211.248807 411.456576 
L 223.08517 410.549063 
L 234.921534 408.431534 
L 246.757898 400.415173 
L 258.594261 401.776442 
L 270.430625 396.709497 
L 282.266989 391.566926 
L 294.103352 380.374272 
L 305.939716 376.744222 
L 317.77608 364.568429 
L 329.612443 358.669597 
L 341.448807 349.518846 
L 353.28517 343.695641 
L 365.121534 338.477444 
L 376.957898 334.393637 
L 388.794261 329.099814 
L 400.630625 335.67928 
L 412.466989 333.788629 
L 424.303352 343.998145 
L 436.139716 348.611333 
L 447.97608 332.578612 
L 459.812443 327.814172 
L 471.648807 321.764088 
L 483.48517 326.755407 
L 495.321534 310.798312 
L 507.157898 301.723187 
L 518.994261 286.295474 
L 530.830625 289.396141 
" style="fill:none;stroke:#d0e1f2;stroke-linecap:square;stroke-width:1.5;"/>
   </g>
   <g id="line2d_38">
    <path clip-path="url(#pc028b41430)" d="M 140.230625 432.102485 
L 152.066989 428.774939 
L 163.903352 426.808662 
L 175.739716 424.842385 
L 187.57608 422.951734 
L 199.412443 420.304823 
L 211.248807 414.859747 
L 223.08517 408.12903 
L 234.921534 402.457076 
L 246.757898 392.776943 
L 258.594261 388.012502 
L 270.430625 379.693637 
L 282.266989 379.013003 
L 294.103352 377.954238 
L 305.939716 378.256742 
L 317.77608 382.264923 
L 329.612443 371.299146 
L 341.448807 362.224021 
L 353.28517 358.291467 
L 365.121534 354.737043 
L 376.957898 349.140716 
L 388.794261 354.963921 
L 400.630625 353.527026 
L 412.466989 347.476943 
L 424.303352 341.199981 
L 436.139716 344.149397 
L 447.97608 326.150399 
L 459.812443 328.948562 
L 471.648807 334.166759 
L 483.48517 300.210666 
L 495.321534 302.781951 
L 507.157898 279.337878 
L 518.994261 242.281116 
L 530.830625 277.371601 
" style="fill:none;stroke:#d0e1f2;stroke-linecap:square;stroke-width:1.5;"/>
   </g>
   <g id="line2d_39">
    <path clip-path="url(#pc028b41430)" d="M 140.230625 433.16125 
L 152.066989 429.984956 
L 163.903352 425.371768 
L 175.739716 425.447394 
L 187.57608 418.036041 
L 199.412443 417.733537 
L 211.248807 408.50716 
L 223.08517 404.120849 
L 234.921534 401.020182 
L 246.757898 394.213838 
L 258.594261 392.625691 
L 270.430625 390.508162 
L 282.266989 393.98696 
L 294.103352 383.626192 
L 305.939716 377.273604 
L 317.77608 371.374773 
L 329.612443 366.383454 
L 341.448807 362.602152 
L 353.28517 353.4514 
L 365.121534 354.812669 
L 376.957898 354.888295 
L 388.794261 352.69514 
L 400.630625 346.796308 
L 412.466989 347.476943 
L 424.303352 348.611333 
L 436.139716 345.359414 
L 447.97608 327.436041 
L 459.812443 334.544889 
L 471.648807 312.008328 
L 483.48517 315.940883 
L 495.321534 306.865758 
L 507.157898 298.546893 
L 518.994261 273.060916 
L 530.830625 281.455407 
" style="fill:none;stroke:#d0e1f2;stroke-linecap:square;stroke-width:1.5;"/>
   </g>
   <g id="line2d_40">
    <path clip-path="url(#pc028b41430)" d="M 140.230625 431.043721 
L 152.066989 423.859247 
L 163.903352 419.170432 
L 175.739716 410.473437 
L 187.57608 406.540883 
L 199.412443 403.667093 
L 211.248807 402.154572 
L 223.08517 399.205157 
L 234.921534 398.37327 
L 246.757898 392.247561 
L 258.594261 398.146392 
L 270.430625 392.474439 
L 282.266989 385.138712 
L 294.103352 387.331868 
L 305.939716 382.189297 
L 317.77608 385.668095 
L 329.612443 376.063587 
L 341.448807 367.517844 
L 353.28517 364.114672 
L 365.121534 360.635874 
L 376.957898 355.94706 
L 388.794261 350.955741 
L 400.630625 349.44322 
L 412.466989 335.30115 
L 424.303352 330.839213 
L 436.139716 323.276609 
L 447.97608 323.654739 
L 459.812443 320.175941 
L 471.648807 317.453404 
L 483.48517 315.335874 
L 495.321534 306.412001 
L 507.157898 295.748729 
L 518.994261 270.565257 
L 530.830625 295.975607 
" style="fill:none;stroke:#d0e1f2;stroke-linecap:square;stroke-width:1.5;"/>
   </g>
   <g id="line2d_41">
    <path clip-path="url(#pc028b41430)" d="M 140.230625 433.009998 
L 152.066989 430.968095 
L 163.903352 429.228696 
L 175.739716 428.548061 
L 187.57608 420.834205 
L 199.412443 414.481617 
L 211.248807 411.229697 
L 223.08517 406.389631 
L 234.921534 398.448896 
L 246.757898 394.667594 
L 258.594261 385.289965 
L 270.430625 390.205657 
L 282.266989 384.079948 
L 294.103352 377.878612 
L 305.939716 377.424856 
L 317.77608 377.954238 
L 329.612443 376.139213 
L 341.448807 369.559747 
L 353.28517 364.568429 
L 365.121534 357.005824 
L 376.957898 347.023187 
L 388.794261 348.913838 
L 400.630625 352.014505 
L 412.466989 342.485624 
L 424.303352 340.065591 
L 436.139716 347.552569 
L 447.97608 338.779948 
L 459.812443 325.696642 
L 471.648807 316.470265 
L 483.48517 299.303153 
L 495.321534 290.984288 
L 507.157898 267.388963 
L 518.994261 246.062419 
L 530.830625 262.8514 
" style="fill:none;stroke:#d0e1f2;stroke-linecap:square;stroke-width:1.5;"/>
   </g>
   <g id="line2d_42">
    <path clip-path="url(#pc028b41430)" d="M 140.230625 433.16125 
L 152.066989 431.497477 
L 163.903352 429.758078 
L 175.739716 425.069263 
L 187.57608 418.187293 
L 199.412443 417.582285 
L 211.248807 406.0115 
L 223.08517 391.642552 
L 234.921534 388.61751 
L 246.757898 383.626192 
L 258.594261 378.407995 
L 270.430625 379.315507 
L 282.266989 380.752402 
L 294.103352 377.878612 
L 305.939716 371.904155 
L 317.77608 377.954238 
L 329.612443 370.769764 
L 341.448807 370.316008 
L 353.28517 367.820348 
L 365.121534 363.282786 
L 376.957898 366.685958 
L 388.794261 362.753404 
L 400.630625 352.770766 
L 412.466989 355.644556 
L 424.303352 334.847394 
L 436.139716 335.67928 
L 447.97608 328.872936 
L 459.812443 323.957243 
L 471.648807 309.285791 
L 483.48517 305.655741 
L 495.321534 299.151901 
L 507.157898 272.077778 
L 518.994261 253.322519 
L 530.830625 278.884121 
" style="fill:none;stroke:#d0e1f2;stroke-linecap:square;stroke-width:1.5;"/>
   </g>
   <g id="line2d_43">
    <path clip-path="url(#pc028b41430)" d="M 140.230625 430.968095 
L 152.066989 422.346726 
L 163.903352 411.834706 
L 175.739716 400.566425 
L 187.57608 389.373771 
L 199.412443 378.786125 
L 211.248807 365.627193 
L 223.08517 355.266425 
L 234.921534 343.241884 
L 246.757898 338.628696 
L 258.594261 328.872936 
L 270.430625 318.587794 
L 282.266989 306.109497 
L 294.103352 294.689965 
L 305.939716 279.111 
L 317.77608 263.607661 
L 329.612443 251.58312 
L 341.448807 250.751233 
L 353.28517 235.928529 
L 365.121534 224.660248 
L 376.957898 216.038879 
L 388.794261 208.930031 
L 400.630625 194.863587 
L 412.466989 179.057744 
L 424.303352 166.957577 
L 436.139716 162.268763 
L 447.97608 148.807327 
L 459.812443 141.320348 
L 471.648807 126.57327 
L 483.48517 136.102152 
L 495.321534 122.262586 
L 507.157898 114.094973 
L 518.994261 105.624856 
L 530.830625 102.902318 
" style="fill:none;stroke:#1764ab;stroke-linecap:square;stroke-width:1.5;"/>
   </g>
   <g id="line2d_44">
    <path clip-path="url(#pc028b41430)" d="M 140.230625 431.194973 
L 152.066989 420.909831 
L 163.903352 411.305323 
L 175.739716 400.642051 
L 187.57608 391.188796 
L 199.412443 382.340549 
L 211.248807 376.063587 
L 223.08517 361.543387 
L 234.921534 349.140716 
L 246.757898 335.981784 
L 258.594261 324.259747 
L 270.430625 311.630198 
L 282.266989 304.067594 
L 294.103352 292.194305 
L 305.939716 278.430365 
L 317.77608 264.742051 
L 329.612443 253.171267 
L 341.448807 241.44923 
L 353.28517 237.138545 
L 365.121534 224.05524 
L 376.957898 216.870766 
L 388.794261 199.552402 
L 400.630625 189.872268 
L 412.466989 180.645891 
L 424.303352 173.915173 
L 436.139716 152.588629 
L 447.97608 152.059247 
L 459.812443 146.387293 
L 471.648807 142.076609 
L 483.48517 130.430198 
L 495.321534 115.909998 
L 507.157898 106.229864 
L 518.994261 92.087794 
L 530.830625 93.902819 
" style="fill:none;stroke:#1764ab;stroke-linecap:square;stroke-width:1.5;"/>
   </g>
   <g id="line2d_45">
    <path clip-path="url(#pc028b41430)" d="M 140.230625 432.329364 
L 152.066989 423.254238 
L 163.903352 414.708495 
L 175.739716 404.87711 
L 187.57608 393.835707 
L 199.412443 380.147394 
L 211.248807 367.366592 
L 223.08517 354.812669 
L 234.921534 342.788128 
L 246.757898 334.92302 
L 258.594261 322.974105 
L 270.430625 315.638379 
L 282.266989 304.596976 
L 294.103352 298.01751 
L 305.939716 279.716008 
L 317.77608 272.153404 
L 329.612443 258.46509 
L 341.448807 249.919347 
L 353.28517 237.743554 
L 365.121534 225.189631 
L 376.957898 217.92953 
L 388.794261 208.854405 
L 400.630625 202.123687 
L 412.466989 184.956576 
L 424.303352 169.906993 
L 436.139716 160.302485 
L 447.97608 147.521684 
L 459.812443 139.656576 
L 471.648807 126.270766 
L 483.48517 109.784288 
L 495.321534 101.314172 
L 507.157898 89.138379 
L 518.994261 82.407661 
L 530.830625 87.096475 
" style="fill:none;stroke:#1764ab;stroke-linecap:square;stroke-width:1.5;"/>
   </g>
   <g id="line2d_46">
    <path clip-path="url(#pc028b41430)" d="M 140.230625 430.892469 
L 152.066989 421.136709 
L 163.903352 411.380949 
L 175.739716 402.078946 
L 187.57608 391.415674 
L 199.412443 380.449898 
L 211.248807 368.198479 
L 223.08517 356.249564 
L 234.921534 346.040048 
L 246.757898 333.107995 
L 258.594261 326.301651 
L 270.430625 320.554071 
L 282.266989 310.798312 
L 294.103352 297.866258 
L 305.939716 285.085457 
L 317.77608 276.23721 
L 329.612443 262.170766 
L 341.448807 249.08746 
L 353.28517 239.634205 
L 365.121534 229.273437 
L 376.957898 214.375106 
L 388.794261 196.073604 
L 400.630625 188.813504 
L 412.466989 184.200315 
L 424.303352 171.419514 
L 436.139716 166.201317 
L 447.97608 145.177277 
L 459.812443 141.774105 
L 471.648807 120.825691 
L 483.48517 111.599313 
L 495.321534 107.439881 
L 507.157898 106.078612 
L 518.994261 88.835874 
L 530.830625 87.096475 
" style="fill:none;stroke:#1764ab;stroke-linecap:square;stroke-width:1.5;"/>
   </g>
   <g id="line2d_47">
    <path clip-path="url(#pc028b41430)" d="M 140.230625 430.968095 
L 152.066989 422.2711 
L 163.903352 410.927193 
L 175.739716 399.507661 
L 187.57608 392.247561 
L 199.412443 377.34923 
L 211.248807 371.147894 
L 223.08517 362.072769 
L 234.921534 349.216342 
L 246.757898 339.158078 
L 258.594261 331.444222 
L 270.430625 315.714005 
L 282.266989 304.672602 
L 294.103352 292.421183 
L 305.939716 285.841717 
L 317.77608 270.489631 
L 329.612443 259.826359 
L 341.448807 257.481951 
L 353.28517 244.625524 
L 365.121534 228.365924 
L 376.957898 219.820182 
L 388.794261 214.29948 
L 400.630625 196.981116 
L 412.466989 184.956576 
L 424.303352 179.360248 
L 436.139716 156.596809 
L 447.97608 141.09347 
L 459.812443 131.413337 
L 471.648807 123.245724 
L 483.48517 120.901317 
L 495.321534 105.246726 
L 507.157898 98.062252 
L 518.994261 90.877778 
L 530.830625 90.348395 
" style="fill:none;stroke:#1764ab;stroke-linecap:square;stroke-width:1.5;"/>
   </g>
   <g id="line2d_48">
    <path clip-path="url(#pc028b41430)" d="M 140.230625 431.194973 
L 152.066989 422.2711 
L 163.903352 409.868429 
L 175.739716 399.053904 
L 187.57608 391.11317 
L 199.412443 376.9711 
L 211.248807 371.601651 
L 223.08517 361.543387 
L 234.921534 353.375774 
L 246.757898 341.578111 
L 258.594261 326.604155 
L 270.430625 316.545891 
L 282.266989 308.756409 
L 294.103352 295.219347 
L 305.939716 282.589798 
L 317.77608 271.926525 
L 329.612443 260.582619 
L 341.448807 253.020015 
L 353.28517 238.19731 
L 365.121534 230.710332 
L 376.957898 212.560081 
L 388.794261 196.90549 
L 400.630625 188.88913 
L 412.466989 192.89731 
L 424.303352 177.99898 
L 436.139716 170.663253 
L 447.97608 159.924355 
L 459.812443 148.882953 
L 471.648807 134.816509 
L 483.48517 120.598813 
L 495.321534 105.700482 
L 507.157898 96.398479 
L 518.994261 87.625858 
L 530.830625 76.584455 
" style="fill:none;stroke:#1764ab;stroke-linecap:square;stroke-width:1.5;"/>
   </g>
   <g id="line2d_49">
    <path clip-path="url(#pc028b41430)" d="M 140.230625 433.16125 
L 152.066989 423.707995 
L 163.903352 413.347227 
L 175.739716 399.280783 
L 187.57608 386.726859 
L 199.412443 378.332369 
L 211.248807 370.84539 
L 223.08517 359.047727 
L 234.921534 341.80499 
L 246.757898 328.872936 
L 258.594261 322.974105 
L 270.430625 309.663921 
L 282.266989 297.412502 
L 294.103352 291.816175 
L 305.939716 277.598479 
L 317.77608 267.842719 
L 329.612443 258.162586 
L 341.448807 246.516175 
L 353.28517 241.524856 
L 365.121534 230.785958 
L 376.957898 220.42519 
L 388.794261 208.249397 
L 400.630625 196.376108 
L 412.466989 184.502819 
L 424.303352 167.411333 
L 436.139716 162.873771 
L 447.97608 145.631033 
L 459.812443 136.782786 
L 471.648807 130.354572 
L 483.48517 116.515006 
L 495.321534 105.92736 
L 507.157898 107.061751 
L 518.994261 97.003487 
L 530.830625 96.020348 
" style="fill:none;stroke:#1764ab;stroke-linecap:square;stroke-width:1.5;"/>
   </g>
   <g id="line2d_50">
    <path clip-path="url(#pc028b41430)" d="M 140.230625 431.119347 
L 152.066989 422.724856 
L 163.903352 412.969096 
L 175.739716 402.532702 
L 187.57608 389.146893 
L 199.412443 375.458579 
L 211.248807 364.265924 
L 223.08517 352.165758 
L 234.921534 339.460582 
L 246.757898 331.595474 
L 258.594261 323.881617 
L 270.430625 307.168262 
L 282.266989 305.655741 
L 294.103352 291.967427 
L 305.939716 277.295975 
L 317.77608 265.271434 
L 329.612443 261.036375 
L 341.448807 247.196809 
L 353.28517 238.348562 
L 365.121534 225.492135 
L 376.957898 212.78696 
L 388.794261 199.174272 
L 400.630625 198.947394 
L 412.466989 186.469096 
L 424.303352 175.578946 
L 436.139716 165.898813 
L 447.97608 148.277944 
L 459.812443 144.647894 
L 471.648807 140.564088 
L 483.48517 124.606993 
L 495.321534 110.162419 
L 507.157898 90.121517 
L 518.994261 77.794472 
L 530.830625 82.785791 
" style="fill:none;stroke:#1764ab;stroke-linecap:square;stroke-width:1.5;"/>
   </g>
   <g id="line2d_51">
    <path clip-path="url(#pc028b41430)" d="M 140.230625 431.799981 
L 152.066989 423.481116 
L 163.903352 408.582786 
L 175.739716 398.37327 
L 187.57608 390.205657 
L 199.412443 378.559247 
L 211.248807 368.349731 
L 223.08517 356.627694 
L 234.921534 342.93938 
L 246.757898 332.881116 
L 258.594261 321.007828 
L 270.430625 311.252068 
L 282.266989 304.294472 
L 294.103352 296.807494 
L 305.939716 280.62352 
L 317.77608 270.867761 
L 329.612443 256.423187 
L 341.448807 243.339881 
L 353.28517 235.247894 
L 365.121534 223.979614 
L 376.957898 216.946392 
L 388.794261 204.846225 
L 400.630625 190.401651 
L 412.466989 178.603988 
L 424.303352 169.075106 
L 436.139716 155.689297 
L 447.97608 153.193637 
L 459.812443 142.832869 
L 471.648807 133.379614 
L 483.48517 123.69948 
L 495.321534 113.338712 
L 507.157898 117.120015 
L 518.994261 96.247227 
L 530.830625 86.945223 
" style="fill:none;stroke:#1764ab;stroke-linecap:square;stroke-width:1.5;"/>
   </g>
   <g id="line2d_52">
    <path clip-path="url(#pc028b41430)" d="M 140.230625 431.421851 
L 152.066989 422.951734 
L 163.903352 417.355407 
L 175.739716 403.515841 
L 187.57608 390.73504 
L 199.412443 379.315507 
L 211.248807 371.072268 
L 223.08517 356.173938 
L 234.921534 342.485624 
L 246.757898 332.729864 
L 258.594261 325.318512 
L 270.430625 312.840215 
L 282.266989 302.479447 
L 294.103352 287.12736 
L 305.939716 275.707828 
L 317.77608 268.447727 
L 329.612443 259.59948 
L 341.448807 244.32302 
L 353.28517 237.516676 
L 365.121534 222.542719 
L 376.957898 211.803821 
L 388.794261 204.392469 
L 400.630625 185.25908 
L 412.466989 186.317844 
L 424.303352 181.855908 
L 436.139716 169.831367 
L 447.97608 153.344889 
L 459.812443 137.236542 
L 471.648807 124.077611 
L 483.48517 111.977444 
L 495.321534 103.507327 
L 507.157898 96.398479 
L 518.994261 79.533871 
L 530.830625 70.76125 
" style="fill:none;stroke:#1764ab;stroke-linecap:square;stroke-width:1.5;"/>
   </g>
   <g id="line2d_53">
    <path clip-path="url(#pc028b41430)" d="M 140.230625 432.178111 
L 152.066989 427.338045 
L 163.903352 417.733537 
L 175.739716 411.75908 
L 187.57608 402.078946 
L 199.412443 393.835707 
L 211.248807 383.021183 
L 223.08517 386.651233 
L 234.921534 383.928696 
L 246.757898 375.609831 
L 258.594261 363.282786 
L 270.430625 354.510165 
L 282.266989 345.43504 
L 294.103352 332.881116 
L 305.939716 329.251066 
L 317.77608 313.067093 
L 329.612443 292.648061 
L 341.448807 287.50549 
L 353.28517 272.077778 
L 365.121534 278.732869 
L 376.957898 272.304656 
L 388.794261 264.061417 
L 400.630625 261.112001 
L 412.466989 251.280616 
L 424.303352 240.012335 
L 436.139716 246.969931 
L 447.97608 228.744055 
L 459.812443 216.643888 
L 471.648807 207.871267 
L 483.48517 212.78696 
L 495.321534 208.325023 
L 507.157898 197.283621 
L 518.994261 198.342385 
L 530.830625 204.543721 
" style="fill:none;stroke:#94c4df;stroke-linecap:square;stroke-width:1.5;"/>
   </g>
   <g id="line2d_54">
    <path clip-path="url(#pc028b41430)" d="M 140.230625 431.421851 
L 152.066989 424.615507 
L 163.903352 417.431033 
L 175.739716 408.280282 
L 187.57608 402.683955 
L 199.412443 400.415173 
L 211.248807 395.12135 
L 223.08517 384.760582 
L 234.921534 377.802986 
L 246.757898 366.685958 
L 258.594261 361.014005 
L 270.430625 339.384956 
L 282.266989 330.007327 
L 294.103352 329.931701 
L 305.939716 329.402318 
L 317.77608 313.672101 
L 329.612443 311.478946 
L 341.448807 301.647561 
L 353.28517 292.874939 
L 365.121534 296.807494 
L 376.957898 301.042552 
L 388.794261 297.941884 
L 400.630625 285.161083 
L 412.466989 270.262753 
L 424.303352 245.684288 
L 436.139716 241.222352 
L 447.97608 238.726692 
L 459.812443 227.68529 
L 471.648807 227.534038 
L 483.48517 241.222352 
L 495.321534 238.121684 
L 507.157898 249.541217 
L 518.994261 235.399146 
L 530.830625 238.802318 
" style="fill:none;stroke:#94c4df;stroke-linecap:square;stroke-width:1.5;"/>
   </g>
   <g id="line2d_55">
    <path clip-path="url(#pc028b41430)" d="M 140.230625 432.556242 
L 152.066989 426.65741 
L 163.903352 419.246058 
L 175.739716 409.187794 
L 187.57608 406.0115 
L 199.412443 391.188796 
L 211.248807 386.348729 
L 223.08517 375.987961 
L 234.921534 361.089631 
L 246.757898 355.190799 
L 258.594261 350.123854 
L 270.430625 350.501985 
L 282.266989 339.233704 
L 294.103352 332.351734 
L 305.939716 326.377277 
L 317.77608 330.385457 
L 329.612443 326.150399 
L 341.448807 316.167761 
L 353.28517 309.815173 
L 365.121534 295.824355 
L 376.957898 292.572435 
L 388.794261 287.656742 
L 400.630625 289.169263 
L 412.466989 280.321016 
L 424.303352 260.885123 
L 436.139716 245.759914 
L 447.97608 233.886626 
L 459.812443 218.080783 
L 471.648807 212.484455 
L 483.48517 221.105824 
L 495.321534 208.551901 
L 507.157898 193.653571 
L 518.994261 190.099146 
L 530.830625 220.576442 
" style="fill:none;stroke:#94c4df;stroke-linecap:square;stroke-width:1.5;"/>
   </g>
   <g id="line2d_56">
    <path clip-path="url(#pc028b41430)" d="M 140.230625 431.421851 
L 152.066989 425.674272 
L 163.903352 417.355407 
L 175.739716 406.994639 
L 187.57608 392.550065 
L 199.412443 391.718178 
L 211.248807 380.525524 
L 223.08517 370.769764 
L 234.921534 369.635374 
L 246.757898 363.58529 
L 258.594261 359.123354 
L 270.430625 348.460081 
L 282.266989 340.368095 
L 294.103352 330.461083 
L 305.939716 322.142218 
L 317.77608 320.327193 
L 329.612443 308.000148 
L 341.448807 302.403821 
L 353.28517 302.555073 
L 365.121534 302.479447 
L 376.957898 287.732369 
L 388.794261 285.312335 
L 400.630625 279.942886 
L 412.466989 256.876943 
L 424.303352 253.020015 
L 436.139716 252.944389 
L 447.97608 237.592302 
L 459.812443 227.080282 
L 471.648807 211.425691 
L 483.48517 195.7711 
L 495.321534 189.040382 
L 507.157898 196.678612 
L 518.994261 177.772101 
L 530.830625 207.871267 
" style="fill:none;stroke:#94c4df;stroke-linecap:square;stroke-width:1.5;"/>
   </g>
   <g id="line2d_57">
    <path clip-path="url(#pc028b41430)" d="M 140.230625 431.724355 
L 152.066989 422.876108 
L 163.903352 414.405991 
L 175.739716 405.103988 
L 187.57608 395.575106 
L 199.412443 393.079447 
L 211.248807 397.390131 
L 223.08517 393.457577 
L 234.921534 382.567427 
L 246.757898 378.332369 
L 258.594261 370.46726 
L 270.430625 358.367093 
L 282.266989 344.225023 
L 294.103352 334.166759 
L 305.939716 316.243387 
L 317.77608 301.042552 
L 329.612443 299.454405 
L 341.448807 299.908162 
L 353.28517 293.404322 
L 365.121534 291.891801 
L 376.957898 297.866258 
L 388.794261 296.202485 
L 400.630625 289.849898 
L 412.466989 271.775273 
L 424.303352 264.288295 
L 436.139716 249.238712 
L 447.97608 251.431868 
L 459.812443 242.054238 
L 471.648807 238.651066 
L 483.48517 240.541717 
L 495.321534 214.601985 
L 507.157898 212.106325 
L 518.994261 191.914172 
L 530.830625 222.467093 
" style="fill:none;stroke:#94c4df;stroke-linecap:square;stroke-width:1.5;"/>
   </g>
   <g id="line2d_58">
    <path clip-path="url(#pc028b41430)" d="M 140.230625 431.346225 
L 152.066989 428.926192 
L 163.903352 414.179113 
L 175.739716 411.380949 
L 187.57608 409.868429 
L 199.412443 399.734539 
L 211.248807 392.776943 
L 223.08517 387.936876 
L 234.921534 384.98746 
L 246.757898 372.962919 
L 258.594261 354.737043 
L 270.430625 347.930699 
L 282.266989 348.384455 
L 294.103352 345.964422 
L 305.939716 325.469764 
L 317.77608 310.722686 
L 329.612443 290.152402 
L 341.448807 288.715507 
L 353.28517 281.077277 
L 365.121534 281.909163 
L 376.957898 272.455908 
L 388.794261 269.203988 
L 400.630625 259.523854 
L 412.466989 258.389464 
L 424.303352 266.178946 
L 436.139716 263.22953 
L 447.97608 255.364422 
L 459.812443 242.583621 
L 471.648807 230.332202 
L 483.48517 223.601484 
L 495.321534 204.089965 
L 507.157898 207.568763 
L 518.994261 185.788462 
L 530.830625 213.996976 
" style="fill:none;stroke:#94c4df;stroke-linecap:square;stroke-width:1.5;"/>
   </g>
   <g id="line2d_59">
    <path clip-path="url(#pc028b41430)" d="M 140.230625 432.253737 
L 152.066989 427.111167 
L 163.903352 421.439213 
L 175.739716 414.254739 
L 187.57608 406.087126 
L 199.412443 393.306325 
L 211.248807 379.164255 
L 223.08517 369.559747 
L 234.921534 361.316509 
L 246.757898 345.964422 
L 258.594261 340.292469 
L 270.430625 331.444222 
L 282.266989 332.502986 
L 294.103352 324.184121 
L 305.939716 314.579614 
L 317.77608 320.932202 
L 329.612443 320.478445 
L 341.448807 310.344556 
L 353.28517 300.059414 
L 365.121534 290.228028 
L 376.957898 283.648562 
L 388.794261 280.774773 
L 400.630625 264.666425 
L 412.466989 259.22135 
L 424.303352 255.515674 
L 436.139716 242.356742 
L 447.97608 240.69297 
L 459.812443 236.987293 
L 471.648807 225.567761 
L 483.48517 229.575941 
L 495.321534 208.703153 
L 507.157898 207.03938 
L 518.994261 206.963754 
L 530.830625 234.416008 
" style="fill:none;stroke:#94c4df;stroke-linecap:square;stroke-width:1.5;"/>
   </g>
   <g id="line2d_60">
    <path clip-path="url(#pc028b41430)" d="M 140.230625 432.40499 
L 152.066989 425.976776 
L 163.903352 414.784121 
L 175.739716 404.725858 
L 187.57608 390.659414 
L 199.412443 386.726859 
L 211.248807 379.088629 
L 223.08517 371.677277 
L 234.921534 367.59347 
L 246.757898 355.115173 
L 258.594261 351.712001 
L 270.430625 341.426859 
L 282.266989 336.586793 
L 294.103352 320.780949 
L 305.939716 319.268429 
L 317.77608 315.638379 
L 329.612443 317.150899 
L 341.448807 311.252068 
L 353.28517 300.437544 
L 365.121534 302.328195 
L 376.957898 295.597477 
L 388.794261 285.539213 
L 400.630625 269.506492 
L 412.466989 258.767594 
L 424.303352 244.549898 
L 436.139716 238.424188 
L 447.97608 225.114005 
L 459.812443 225.114005 
L 471.648807 225.189631 
L 483.48517 219.895808 
L 495.321534 230.407828 
L 507.157898 218.685791 
L 518.994261 197.359247 
L 530.830625 231.164088 
" style="fill:none;stroke:#94c4df;stroke-linecap:square;stroke-width:1.5;"/>
   </g>
   <g id="line2d_61">
    <path clip-path="url(#pc028b41430)" d="M 140.230625 431.194973 
L 152.066989 421.89297 
L 163.903352 414.179113 
L 175.739716 407.599647 
L 187.57608 402.986459 
L 199.412443 400.415173 
L 211.248807 393.230699 
L 223.08517 380.22302 
L 234.921534 373.794806 
L 246.757898 365.173437 
L 258.594261 349.972602 
L 270.430625 342.18312 
L 282.266989 338.477444 
L 294.103352 324.259747 
L 305.939716 316.319013 
L 317.77608 310.042051 
L 329.612443 295.219347 
L 341.448807 301.571934 
L 353.28517 302.479447 
L 365.121534 292.572435 
L 376.957898 287.656742 
L 388.794261 278.959747 
L 400.630625 285.614839 
L 412.466989 276.085958 
L 424.303352 256.347561 
L 436.139716 249.843721 
L 447.97608 254.230031 
L 459.812443 238.499814 
L 471.648807 228.441551 
L 483.48517 212.78696 
L 495.321534 198.569263 
L 507.157898 190.099146 
L 518.994261 168.318846 
L 530.830625 203.182452 
" style="fill:none;stroke:#94c4df;stroke-linecap:square;stroke-width:1.5;"/>
   </g>
   <g id="line2d_62">
    <path clip-path="url(#pc028b41430)" d="M 140.230625 432.631868 
L 152.066989 430.816843 
L 163.903352 424.918011 
L 175.739716 421.136709 
L 187.57608 409.26342 
L 199.412443 397.919514 
L 211.248807 389.525023 
L 223.08517 374.626692 
L 234.921534 357.686459 
L 246.757898 350.880115 
L 258.594261 337.116175 
L 270.430625 334.091133 
L 282.266989 321.688462 
L 294.103352 321.385958 
L 305.939716 307.924522 
L 317.77608 305.731367 
L 329.612443 307.848896 
L 341.448807 298.093136 
L 353.28517 297.941884 
L 365.121534 278.354739 
L 376.957898 276.23721 
L 388.794261 255.666926 
L 400.630625 257.860081 
L 412.466989 260.355741 
L 424.303352 258.313838 
L 436.139716 257.028195 
L 447.97608 240.466091 
L 459.812443 219.442051 
L 471.648807 204.770599 
L 483.48517 193.048562 
L 495.321534 174.217677 
L 507.157898 158.033704 
L 518.994261 144.72352 
L 530.830625 174.671434 
" style="fill:none;stroke:#94c4df;stroke-linecap:square;stroke-width:1.5;"/>
   </g>
   <g id="line2d_63">
    <path clip-path="url(#pc028b41430)" d="M 140.230625 433.16125 
L 152.066989 433.16125 
L 163.903352 433.16125 
L 175.739716 433.16125 
L 187.57608 433.16125 
L 199.412443 433.16125 
L 211.248807 433.16125 
L 223.08517 433.16125 
L 234.921534 433.16125 
L 246.757898 433.16125 
L 258.594261 433.16125 
L 270.430625 433.16125 
L 282.266989 433.16125 
L 294.103352 433.16125 
L 305.939716 433.16125 
L 317.77608 433.16125 
L 329.612443 433.16125 
L 341.448807 433.16125 
L 353.28517 433.16125 
L 365.121534 433.16125 
L 376.957898 433.16125 
L 388.794261 433.16125 
L 400.630625 433.16125 
L 412.466989 433.16125 
L 424.303352 433.16125 
L 436.139716 433.16125 
L 447.97608 433.16125 
L 459.812443 433.16125 
L 471.648807 433.16125 
L 483.48517 433.16125 
L 495.321534 433.16125 
L 507.157898 433.16125 
L 518.994261 433.16125 
L 530.830625 433.16125 
" style="fill:none;stroke:#000000;stroke-linecap:square;stroke-width:1.5;"/>
   </g>
   <g id="line2d_64">
    <path clip-path="url(#pc028b41430)" d="M 140.230625 433.16125 
L 152.066989 433.16125 
L 163.903352 433.16125 
L 175.739716 433.16125 
L 187.57608 433.16125 
L 199.412443 433.16125 
L 211.248807 433.16125 
L 223.08517 433.16125 
L 234.921534 433.16125 
L 246.757898 433.16125 
L 258.594261 433.16125 
L 270.430625 433.16125 
L 282.266989 433.16125 
L 294.103352 433.16125 
L 305.939716 433.16125 
L 317.77608 433.16125 
L 329.612443 433.16125 
L 341.448807 433.16125 
L 353.28517 433.16125 
L 365.121534 433.16125 
L 376.957898 433.16125 
L 388.794261 433.16125 
L 400.630625 433.16125 
L 412.466989 433.16125 
L 424.303352 433.16125 
L 436.139716 433.16125 
L 447.97608 433.16125 
L 459.812443 433.16125 
L 471.648807 433.16125 
L 483.48517 433.16125 
L 495.321534 433.16125 
L 507.157898 433.16125 
L 518.994261 433.16125 
L 530.830625 433.16125 
" style="fill:none;stroke:#000000;stroke-linecap:square;stroke-width:1.5;"/>
   </g>
   <g id="line2d_65">
    <path clip-path="url(#pc028b41430)" d="M 140.230625 433.16125 
L 152.066989 433.16125 
L 163.903352 433.16125 
L 175.739716 433.16125 
L 187.57608 433.16125 
L 199.412443 433.16125 
L 211.248807 433.16125 
L 223.08517 433.16125 
L 234.921534 433.16125 
L 246.757898 433.16125 
L 258.594261 433.16125 
L 270.430625 433.16125 
L 282.266989 433.16125 
L 294.103352 433.16125 
L 305.939716 433.16125 
L 317.77608 433.16125 
L 329.612443 433.16125 
L 341.448807 433.16125 
L 353.28517 433.16125 
L 365.121534 433.16125 
L 376.957898 433.16125 
L 388.794261 433.16125 
L 400.630625 433.16125 
L 412.466989 433.16125 
L 424.303352 433.16125 
L 436.139716 433.16125 
L 447.97608 433.16125 
L 459.812443 433.16125 
L 471.648807 433.16125 
L 483.48517 433.16125 
L 495.321534 433.16125 
L 507.157898 433.16125 
L 518.994261 433.16125 
L 530.830625 433.16125 
" style="fill:none;stroke:#000000;stroke-linecap:square;stroke-width:1.5;"/>
   </g>
   <g id="line2d_66">
    <path clip-path="url(#pc028b41430)" d="M 140.230625 433.16125 
L 152.066989 433.16125 
L 163.903352 433.16125 
L 175.739716 433.16125 
L 187.57608 433.16125 
L 199.412443 433.16125 
L 211.248807 433.16125 
L 223.08517 433.16125 
L 234.921534 433.16125 
L 246.757898 433.16125 
L 258.594261 433.16125 
L 270.430625 433.16125 
L 282.266989 433.16125 
L 294.103352 433.16125 
L 305.939716 433.16125 
L 317.77608 433.16125 
L 329.612443 433.16125 
L 341.448807 433.16125 
L 353.28517 433.16125 
L 365.121534 433.16125 
L 376.957898 433.16125 
L 388.794261 433.16125 
L 400.630625 433.16125 
L 412.466989 433.16125 
L 424.303352 433.16125 
L 436.139716 433.16125 
L 447.97608 433.16125 
L 459.812443 433.16125 
L 471.648807 433.16125 
L 483.48517 433.16125 
L 495.321534 433.16125 
L 507.157898 433.16125 
L 518.994261 433.16125 
L 530.830625 433.16125 
" style="fill:none;stroke:#000000;stroke-linecap:square;stroke-width:1.5;"/>
   </g>
   <g id="line2d_67">
    <path clip-path="url(#pc028b41430)" d="M 140.230625 433.16125 
L 152.066989 433.16125 
L 163.903352 433.16125 
L 175.739716 433.16125 
L 187.57608 433.16125 
L 199.412443 433.16125 
L 211.248807 433.16125 
L 223.08517 433.16125 
L 234.921534 433.16125 
L 246.757898 433.16125 
L 258.594261 433.16125 
L 270.430625 433.16125 
L 282.266989 433.16125 
L 294.103352 433.16125 
L 305.939716 433.16125 
L 317.77608 433.16125 
L 329.612443 433.16125 
L 341.448807 433.16125 
L 353.28517 433.16125 
L 365.121534 433.16125 
L 376.957898 433.16125 
L 388.794261 433.16125 
L 400.630625 433.16125 
L 412.466989 433.16125 
L 424.303352 433.16125 
L 436.139716 433.16125 
L 447.97608 433.16125 
L 459.812443 433.16125 
L 471.648807 433.16125 
L 483.48517 433.16125 
L 495.321534 433.16125 
L 507.157898 433.16125 
L 518.994261 433.16125 
L 530.830625 433.16125 
" style="fill:none;stroke:#000000;stroke-linecap:square;stroke-width:1.5;"/>
   </g>
   <g id="line2d_68">
    <path clip-path="url(#pc028b41430)" d="M 140.230625 433.16125 
L 152.066989 433.16125 
L 163.903352 433.16125 
L 175.739716 433.16125 
L 187.57608 433.16125 
L 199.412443 433.16125 
L 211.248807 433.16125 
L 223.08517 433.16125 
L 234.921534 433.16125 
L 246.757898 433.16125 
L 258.594261 433.16125 
L 270.430625 433.16125 
L 282.266989 433.16125 
L 294.103352 433.16125 
L 305.939716 433.16125 
L 317.77608 433.16125 
L 329.612443 433.16125 
L 341.448807 433.16125 
L 353.28517 433.16125 
L 365.121534 433.16125 
L 376.957898 433.16125 
L 388.794261 433.16125 
L 400.630625 433.16125 
L 412.466989 433.16125 
L 424.303352 433.16125 
L 436.139716 433.16125 
L 447.97608 433.16125 
L 459.812443 433.16125 
L 471.648807 433.16125 
L 483.48517 433.16125 
L 495.321534 433.16125 
L 507.157898 433.16125 
L 518.994261 433.16125 
L 530.830625 433.16125 
" style="fill:none;stroke:#000000;stroke-linecap:square;stroke-width:1.5;"/>
   </g>
   <g id="line2d_69">
    <path clip-path="url(#pc028b41430)" d="M 140.230625 433.16125 
L 152.066989 433.16125 
L 163.903352 433.16125 
L 175.739716 433.16125 
L 187.57608 433.16125 
L 199.412443 433.16125 
L 211.248807 433.16125 
L 223.08517 433.16125 
L 234.921534 433.16125 
L 246.757898 433.16125 
L 258.594261 433.16125 
L 270.430625 433.16125 
L 282.266989 433.16125 
L 294.103352 433.16125 
L 305.939716 433.16125 
L 317.77608 433.16125 
L 329.612443 433.16125 
L 341.448807 433.16125 
L 353.28517 433.16125 
L 365.121534 433.16125 
L 376.957898 433.16125 
L 388.794261 433.16125 
L 400.630625 433.16125 
L 412.466989 433.16125 
L 424.303352 433.16125 
L 436.139716 433.16125 
L 447.97608 433.16125 
L 459.812443 433.16125 
L 471.648807 433.16125 
L 483.48517 433.16125 
L 495.321534 433.16125 
L 507.157898 433.16125 
L 518.994261 433.16125 
L 530.830625 433.16125 
" style="fill:none;stroke:#000000;stroke-linecap:square;stroke-width:1.5;"/>
   </g>
   <g id="line2d_70">
    <path clip-path="url(#pc028b41430)" d="M 140.230625 433.16125 
L 152.066989 433.16125 
L 163.903352 433.16125 
L 175.739716 433.16125 
L 187.57608 433.16125 
L 199.412443 433.16125 
L 211.248807 433.16125 
L 223.08517 433.16125 
L 234.921534 433.16125 
L 246.757898 433.16125 
L 258.594261 433.16125 
L 270.430625 433.16125 
L 282.266989 433.16125 
L 294.103352 433.16125 
L 305.939716 433.16125 
L 317.77608 433.16125 
L 329.612443 433.16125 
L 341.448807 433.16125 
L 353.28517 433.16125 
L 365.121534 433.16125 
L 376.957898 433.16125 
L 388.794261 433.16125 
L 400.630625 433.16125 
L 412.466989 433.16125 
L 424.303352 433.16125 
L 436.139716 433.16125 
L 447.97608 433.16125 
L 459.812443 433.16125 
L 471.648807 433.16125 
L 483.48517 433.16125 
L 495.321534 433.16125 
L 507.157898 433.16125 
L 518.994261 433.16125 
L 530.830625 433.16125 
" style="fill:none;stroke:#000000;stroke-linecap:square;stroke-width:1.5;"/>
   </g>
   <g id="line2d_71">
    <path clip-path="url(#pc028b41430)" d="M 140.230625 433.16125 
L 152.066989 433.16125 
L 163.903352 433.16125 
L 175.739716 433.16125 
L 187.57608 433.16125 
L 199.412443 433.16125 
L 211.248807 433.16125 
L 223.08517 433.16125 
L 234.921534 433.16125 
L 246.757898 433.16125 
L 258.594261 433.16125 
L 270.430625 433.16125 
L 282.266989 433.16125 
L 294.103352 433.16125 
L 305.939716 433.16125 
L 317.77608 433.16125 
L 329.612443 433.16125 
L 341.448807 433.16125 
L 353.28517 433.16125 
L 365.121534 433.16125 
L 376.957898 433.16125 
L 388.794261 433.16125 
L 400.630625 433.16125 
L 412.466989 433.16125 
L 424.303352 433.16125 
L 436.139716 433.16125 
L 447.97608 433.16125 
L 459.812443 433.16125 
L 471.648807 433.16125 
L 483.48517 433.16125 
L 495.321534 433.16125 
L 507.157898 433.16125 
L 518.994261 433.16125 
L 530.830625 433.16125 
" style="fill:none;stroke:#000000;stroke-linecap:square;stroke-width:1.5;"/>
   </g>
   <g id="line2d_72">
    <path clip-path="url(#pc028b41430)" d="M 140.230625 433.16125 
L 152.066989 433.16125 
L 163.903352 433.16125 
L 175.739716 433.16125 
L 187.57608 433.16125 
L 199.412443 433.16125 
L 211.248807 433.16125 
L 223.08517 433.16125 
L 234.921534 433.16125 
L 246.757898 433.16125 
L 258.594261 433.16125 
L 270.430625 433.16125 
L 282.266989 433.16125 
L 294.103352 433.16125 
L 305.939716 433.16125 
L 317.77608 433.16125 
L 329.612443 433.16125 
L 341.448807 433.16125 
L 353.28517 433.16125 
L 365.121534 433.16125 
L 376.957898 433.16125 
L 388.794261 433.16125 
L 400.630625 433.16125 
L 412.466989 433.16125 
L 424.303352 433.16125 
L 436.139716 433.16125 
L 447.97608 433.16125 
L 459.812443 433.16125 
L 471.648807 433.16125 
L 483.48517 433.16125 
L 495.321534 433.16125 
L 507.157898 433.16125 
L 518.994261 433.16125 
L 530.830625 433.16125 
" style="fill:none;stroke:#000000;stroke-linecap:square;stroke-width:1.5;"/>
   </g>
   <g id="line2d_73">
    <path clip-path="url(#pc028b41430)" d="M 128.394261 433.16125 
" style="fill:none;stroke:#000000;stroke-linecap:square;stroke-width:1.5;"/>
   </g>
   <g id="line2d_74">
    <path clip-path="url(#pc028b41430)" d="M 128.394261 433.16125 
" style="fill:none;stroke:#d0e1f2;stroke-linecap:square;stroke-width:1.5;"/>
   </g>
   <g id="line2d_75">
    <path clip-path="url(#pc028b41430)" d="M 128.394261 433.16125 
" style="fill:none;stroke:#94c4df;stroke-linecap:square;stroke-width:1.5;"/>
   </g>
   <g id="line2d_76">
    <path clip-path="url(#pc028b41430)" d="M 128.394261 433.16125 
" style="fill:none;stroke:#4a98c9;stroke-linecap:square;stroke-width:1.5;"/>
   </g>
   <g id="line2d_77">
    <path clip-path="url(#pc028b41430)" d="M 128.394261 433.16125 
" style="fill:none;stroke:#1764ab;stroke-linecap:square;stroke-width:1.5;"/>
   </g>
   <g id="line2d_78">
    <path clip-path="url(#pc028b41430)" d="M 128.394261 433.16125 
" style="fill:none;stroke:#08306b;stroke-linecap:square;stroke-width:1.5;"/>
   </g>
   <g id="line2d_79">
    <path clip-path="url(#pc028b41430)" d="M 128.394261 433.16125 
" style="fill:none;stroke:#000000;stroke-linecap:square;stroke-width:1.5;"/>
   </g>
   <g id="line2d_80">
    <path clip-path="url(#pc028b41430)" d="M 128.394261 433.16125 
" style="fill:none;stroke:#000000;stroke-dasharray:1.5,2.475;stroke-dashoffset:0;stroke-width:1.5;"/>
   </g>
   <g id="line2d_81">
    <path clip-path="url(#pc028b41430)" d="M 128.394261 433.16125 
" style="fill:none;stroke:#000000;stroke-linecap:square;stroke-width:1.5;"/>
   </g>
   <g id="line2d_82">
    <path clip-path="url(#pc028b41430)" d="M 128.394261 433.16125 
" style="fill:none;stroke:#000000;stroke-dasharray:5.55,2.4;stroke-dashoffset:0;stroke-width:1.5;"/>
   </g>
   <g id="line2d_83">
    <path clip-path="url(#pc028b41430)" d="M 128.394261 433.16125 
" style="fill:none;stroke:#000000;stroke-dasharray:9.6,2.4,1.5,2.4;stroke-dashoffset:0;stroke-width:1.5;"/>
   </g>
   <g id="line2d_84">
    <path clip-path="url(#pc028b41430)" d="M 128.394261 433.16125 
" style="fill:none;stroke:#000000;stroke-dasharray:9.6,2.4,1.5,2.4;stroke-dashoffset:0;stroke-width:1.5;"/>
   </g>
   <g id="patch_3">
    <path d="M 140.230625 433.16125 
L 140.230625 52.64125 
" style="fill:none;stroke:#000000;stroke-linecap:square;stroke-linejoin:miter;stroke-width:0.8;"/>
   </g>
   <g id="patch_4">
    <path d="M 530.830625 433.16125 
L 530.830625 52.64125 
" style="fill:none;stroke:#000000;stroke-linecap:square;stroke-linejoin:miter;stroke-width:0.8;"/>
   </g>
   <g id="patch_5">
    <path d="M 140.230625 433.16125 
L 530.830625 433.16125 
" style="fill:none;stroke:#000000;stroke-linecap:square;stroke-linejoin:miter;stroke-width:0.8;"/>
   </g>
   <g id="patch_6">
    <path d="M 140.230625 52.64125 
L 530.830625 52.64125 
" style="fill:none;stroke:#000000;stroke-linecap:square;stroke-linejoin:miter;stroke-width:0.8;"/>
   </g>
   <g id="text_15">
    <!-- T-CELL LIVE COUNT -->
    <g transform="translate(236.660312 21.515625)scale(0.2 -0.2)">
     <use xlink:href="#Arial-BoldMT-84"/>
     <use x="61.005859" xlink:href="#Arial-BoldMT-45"/>
     <use x="94.306641" xlink:href="#Arial-BoldMT-67"/>
     <use x="166.523438" xlink:href="#Arial-BoldMT-69"/>
     <use x="233.222656" xlink:href="#Arial-BoldMT-76"/>
     <use x="294.306641" xlink:href="#Arial-BoldMT-76"/>
     <use x="355.375" xlink:href="#Arial-BoldMT-32"/>
     <use x="383.158203" xlink:href="#Arial-BoldMT-76"/>
     <use x="444.242188" xlink:href="#Arial-BoldMT-73"/>
     <use x="472.025391" xlink:href="#Arial-BoldMT-86"/>
     <use x="538.724609" xlink:href="#Arial-BoldMT-69"/>
     <use x="605.423828" xlink:href="#Arial-BoldMT-32"/>
     <use x="633.207031" xlink:href="#Arial-BoldMT-67"/>
     <use x="705.423828" xlink:href="#Arial-BoldMT-79"/>
     <use x="783.207031" xlink:href="#Arial-BoldMT-85"/>
     <use x="855.423828" xlink:href="#Arial-BoldMT-78"/>
     <use x="927.640625" xlink:href="#Arial-BoldMT-84"/>
    </g>
    <!-- ACROSS RADIUS AT TIME 7 -->
    <defs>
     <path d="M 4.25 57.859375 
L 4.25 70.609375 
L 51.171875 70.609375 
L 51.171875 60.640625 
Q 45.359375 54.9375 39.34375 44.234375 
Q 33.34375 33.546875 30.1875 21.5 
Q 27.046875 9.46875 27.09375 0 
L 13.875 0 
Q 14.203125 14.84375 19.984375 30.265625 
Q 25.78125 45.703125 35.453125 57.859375 
z
" id="Arial-BoldMT-55"/>
    </defs>
    <g transform="translate(200.536875 42.64125)scale(0.2 -0.2)">
     <use xlink:href="#Arial-BoldMT-65"/>
     <use x="72.216797" xlink:href="#Arial-BoldMT-67"/>
     <use x="144.433594" xlink:href="#Arial-BoldMT-82"/>
     <use x="216.650391" xlink:href="#Arial-BoldMT-79"/>
     <use x="294.433594" xlink:href="#Arial-BoldMT-83"/>
     <use x="361.132812" xlink:href="#Arial-BoldMT-83"/>
     <use x="427.832031" xlink:href="#Arial-BoldMT-32"/>
     <use x="455.615234" xlink:href="#Arial-BoldMT-82"/>
     <use x="527.832031" xlink:href="#Arial-BoldMT-65"/>
     <use x="600.048828" xlink:href="#Arial-BoldMT-68"/>
     <use x="672.265625" xlink:href="#Arial-BoldMT-73"/>
     <use x="700.048828" xlink:href="#Arial-BoldMT-85"/>
     <use x="772.265625" xlink:href="#Arial-BoldMT-83"/>
     <use x="838.964844" xlink:href="#Arial-BoldMT-32"/>
     <use x="866.701172" xlink:href="#Arial-BoldMT-65"/>
     <use x="938.808594" xlink:href="#Arial-BoldMT-84"/>
     <use x="999.892578" xlink:href="#Arial-BoldMT-32"/>
     <use x="1027.675781" xlink:href="#Arial-BoldMT-84"/>
     <use x="1088.759766" xlink:href="#Arial-BoldMT-73"/>
     <use x="1116.542969" xlink:href="#Arial-BoldMT-77"/>
     <use x="1199.84375" xlink:href="#Arial-BoldMT-69"/>
     <use x="1266.542969" xlink:href="#Arial-BoldMT-32"/>
     <use x="1294.326172" xlink:href="#Arial-BoldMT-55"/>
    </g>
   </g>
   <g id="legend_1">
    <g id="line2d_85">
     <path d="M 539.830625 65.739687 
L 559.830625 65.739687 
" style="fill:none;stroke:#000000;stroke-linecap:square;stroke-width:1.5;"/>
    </g>
    <g id="line2d_86"/>
    <g id="text_16">
     <!-- 0 -->
     <g transform="translate(567.830625 69.239687)scale(0.1 -0.1)">
      <use xlink:href="#DejaVuSans-48"/>
     </g>
    </g>
    <g id="line2d_87">
     <path d="M 539.830625 80.417812 
L 559.830625 80.417812 
" style="fill:none;stroke:#d0e1f2;stroke-linecap:square;stroke-width:1.5;"/>
    </g>
    <g id="line2d_88"/>
    <g id="text_17">
     <!-- 100 -->
     <g transform="translate(567.830625 83.917812)scale(0.1 -0.1)">
      <use xlink:href="#DejaVuSans-49"/>
      <use x="63.623047" xlink:href="#DejaVuSans-48"/>
      <use x="127.246094" xlink:href="#DejaVuSans-48"/>
     </g>
    </g>
    <g id="line2d_89">
     <path d="M 539.830625 95.095937 
L 559.830625 95.095937 
" style="fill:none;stroke:#94c4df;stroke-linecap:square;stroke-width:1.5;"/>
    </g>
    <g id="line2d_90"/>
    <g id="text_18">
     <!-- 500 -->
     <g transform="translate(567.830625 98.595937)scale(0.1 -0.1)">
      <use xlink:href="#DejaVuSans-53"/>
      <use x="63.623047" xlink:href="#DejaVuSans-48"/>
      <use x="127.246094" xlink:href="#DejaVuSans-48"/>
     </g>
    </g>
    <g id="line2d_91">
     <path d="M 539.830625 109.774062 
L 559.830625 109.774062 
" style="fill:none;stroke:#4a98c9;stroke-linecap:square;stroke-width:1.5;"/>
    </g>
    <g id="line2d_92"/>
    <g id="text_19">
     <!-- 1000 -->
     <g transform="translate(567.830625 113.274062)scale(0.1 -0.1)">
      <use xlink:href="#DejaVuSans-49"/>
      <use x="63.623047" xlink:href="#DejaVuSans-48"/>
      <use x="127.246094" xlink:href="#DejaVuSans-48"/>
      <use x="190.869141" xlink:href="#DejaVuSans-48"/>
     </g>
    </g>
    <g id="line2d_93">
     <path d="M 539.830625 124.452187 
L 559.830625 124.452187 
" style="fill:none;stroke:#1764ab;stroke-linecap:square;stroke-width:1.5;"/>
    </g>
    <g id="line2d_94"/>
    <g id="text_20">
     <!-- 5000 -->
     <g transform="translate(567.830625 127.952187)scale(0.1 -0.1)">
      <use xlink:href="#DejaVuSans-53"/>
      <use x="63.623047" xlink:href="#DejaVuSans-48"/>
      <use x="127.246094" xlink:href="#DejaVuSans-48"/>
      <use x="190.869141" xlink:href="#DejaVuSans-48"/>
     </g>
    </g>
    <g id="line2d_95">
     <path d="M 539.830625 139.130312 
L 559.830625 139.130312 
" style="fill:none;stroke:#08306b;stroke-linecap:square;stroke-width:1.5;"/>
    </g>
    <g id="line2d_96"/>
    <g id="text_21">
     <!-- 10000 -->
     <g transform="translate(567.830625 142.630312)scale(0.1 -0.1)">
      <use xlink:href="#DejaVuSans-49"/>
      <use x="63.623047" xlink:href="#DejaVuSans-48"/>
      <use x="127.246094" xlink:href="#DejaVuSans-48"/>
      <use x="190.869141" xlink:href="#DejaVuSans-48"/>
      <use x="254.492188" xlink:href="#DejaVuSans-48"/>
     </g>
    </g>
    <g id="line2d_97">
     <path d="M 539.830625 153.808437 
L 559.830625 153.808437 
" style="fill:none;stroke:#000000;stroke-linecap:square;stroke-width:1.5;"/>
    </g>
    <g id="line2d_98"/>
    <g id="text_22">
     <!-- 0 -->
     <g transform="translate(567.830625 157.308437)scale(0.1 -0.1)">
      <use xlink:href="#DejaVuSans-48"/>
     </g>
    </g>
    <g id="line2d_99">
     <path d="M 539.830625 168.486562 
L 559.830625 168.486562 
" style="fill:none;stroke:#000000;stroke-dasharray:1.5,2.475;stroke-dashoffset:0;stroke-width:1.5;"/>
    </g>
    <g id="line2d_100"/>
    <g id="text_23">
     <!-- 250 -->
     <g transform="translate(567.830625 171.986562)scale(0.1 -0.1)">
      <use xlink:href="#DejaVuSans-50"/>
      <use x="63.623047" xlink:href="#DejaVuSans-53"/>
      <use x="127.246094" xlink:href="#DejaVuSans-48"/>
     </g>
    </g>
    <g id="line2d_101">
     <path d="M 539.830625 183.164687 
L 559.830625 183.164687 
" style="fill:none;stroke:#000000;stroke-linecap:square;stroke-width:1.5;"/>
    </g>
    <g id="line2d_102"/>
    <g id="text_24">
     <!-- 500 -->
     <g transform="translate(567.830625 186.664687)scale(0.1 -0.1)">
      <use xlink:href="#DejaVuSans-53"/>
      <use x="63.623047" xlink:href="#DejaVuSans-48"/>
      <use x="127.246094" xlink:href="#DejaVuSans-48"/>
     </g>
    </g>
    <g id="line2d_103">
     <path d="M 539.830625 197.842812 
L 559.830625 197.842812 
" style="fill:none;stroke:#000000;stroke-dasharray:5.55,2.4;stroke-dashoffset:0;stroke-width:1.5;"/>
    </g>
    <g id="line2d_104"/>
    <g id="text_25">
     <!-- 1000 -->
     <g transform="translate(567.830625 201.342812)scale(0.1 -0.1)">
      <use xlink:href="#DejaVuSans-49"/>
      <use x="63.623047" xlink:href="#DejaVuSans-48"/>
      <use x="127.246094" xlink:href="#DejaVuSans-48"/>
      <use x="190.869141" xlink:href="#DejaVuSans-48"/>
     </g>
    </g>
    <g id="line2d_105">
     <path d="M 539.830625 212.520937 
L 559.830625 212.520937 
" style="fill:none;stroke:#000000;stroke-dasharray:9.6,2.4,1.5,2.4;stroke-dashoffset:0;stroke-width:1.5;"/>
    </g>
    <g id="line2d_106"/>
    <g id="text_26">
     <!-- 5000 -->
     <g transform="translate(567.830625 216.020937)scale(0.1 -0.1)">
      <use xlink:href="#DejaVuSans-53"/>
      <use x="63.623047" xlink:href="#DejaVuSans-48"/>
      <use x="127.246094" xlink:href="#DejaVuSans-48"/>
      <use x="190.869141" xlink:href="#DejaVuSans-48"/>
     </g>
    </g>
    <g id="line2d_107">
     <path d="M 539.830625 227.199062 
L 559.830625 227.199062 
" style="fill:none;stroke:#000000;stroke-dasharray:9.6,2.4,1.5,2.4;stroke-dashoffset:0;stroke-width:1.5;"/>
    </g>
    <g id="line2d_108"/>
    <g id="text_27">
     <!-- 10000 -->
     <g transform="translate(567.830625 230.699062)scale(0.1 -0.1)">
      <use xlink:href="#DejaVuSans-49"/>
      <use x="63.623047" xlink:href="#DejaVuSans-48"/>
      <use x="127.246094" xlink:href="#DejaVuSans-48"/>
      <use x="190.869141" xlink:href="#DejaVuSans-48"/>
      <use x="254.492188" xlink:href="#DejaVuSans-48"/>
     </g>
    </g>
   </g>
  </g>
 </g>
 <defs>
  <clipPath id="pc028b41430">
   <rect height="380.52" width="390.6" x="140.230625" y="52.64125"/>
  </clipPath>
 </defs>
</svg>
