<?xml version="1.0" encoding="utf-8" standalone="no"?>
<!DOCTYPE svg PUBLIC "-//W3C//DTD SVG 1.1//EN"
  "http://www.w3.org/Graphics/SVG/1.1/DTD/svg11.dtd">
<!-- Created with matplotlib (https://matplotlib.org/) -->
<svg height="504.658125pt" version="1.1" viewBox="0 0 610.843125 504.658125" width="610.843125pt" xmlns="http://www.w3.org/2000/svg" xmlns:xlink="http://www.w3.org/1999/xlink">
 <defs>
  <style type="text/css">
*{stroke-linecap:butt;stroke-linejoin:round;}
  </style>
 </defs>
 <g id="figure_1">
  <g id="patch_1">
   <path d="M 0 504.658125 
L 610.843125 504.658125 
L 610.843125 -0 
L 0 -0 
z
" style="fill:#ffffff;"/>
  </g>
  <g id="axes_1">
   <g id="patch_2">
    <path d="M 140.230625 433.16125 
L 530.830625 433.16125 
L 530.830625 52.64125 
L 140.230625 52.64125 
z
" style="fill:#ffffff;"/>
   </g>
   <g id="matplotlib.axis_1">
    <g id="xtick_1">
     <g id="line2d_1">
      <defs>
       <path d="M 0 0 
L 0 3.5 
" id="me3012c68e6" style="stroke:#000000;stroke-width:0.8;"/>
      </defs>
      <g>
       <use style="stroke:#000000;stroke-width:0.8;" x="187.57608" xlink:href="#me3012c68e6" y="433.16125"/>
      </g>
     </g>
     <g id="text_1">
      <!-- 5 -->
      <defs>
       <path d="M 10.796875 72.90625 
L 49.515625 72.90625 
L 49.515625 64.59375 
L 19.828125 64.59375 
L 19.828125 46.734375 
Q 21.96875 47.46875 24.109375 47.828125 
Q 26.265625 48.1875 28.421875 48.1875 
Q 40.625 48.1875 47.75 41.5 
Q 54.890625 34.8125 54.890625 23.390625 
Q 54.890625 11.625 47.5625 5.09375 
Q 40.234375 -1.421875 26.90625 -1.421875 
Q 22.3125 -1.421875 17.546875 -0.640625 
Q 12.796875 0.140625 7.71875 1.703125 
L 7.71875 11.625 
Q 12.109375 9.234375 16.796875 8.0625 
Q 21.484375 6.890625 26.703125 6.890625 
Q 35.15625 6.890625 40.078125 11.328125 
Q 45.015625 15.765625 45.015625 23.390625 
Q 45.015625 31 40.078125 35.4375 
Q 35.15625 39.890625 26.703125 39.890625 
Q 22.75 39.890625 18.8125 39.015625 
Q 14.890625 38.140625 10.796875 36.28125 
z
" id="DejaVuSans-53"/>
      </defs>
      <g transform="translate(178.03233 462.956562)scale(0.3 -0.3)">
       <use xlink:href="#DejaVuSans-53"/>
      </g>
     </g>
    </g>
    <g id="xtick_2">
     <g id="line2d_2">
      <g>
       <use style="stroke:#000000;stroke-width:0.8;" x="246.757898" xlink:href="#me3012c68e6" y="433.16125"/>
      </g>
     </g>
     <g id="text_2">
      <!-- 10 -->
      <defs>
       <path d="M 12.40625 8.296875 
L 28.515625 8.296875 
L 28.515625 63.921875 
L 10.984375 60.40625 
L 10.984375 69.390625 
L 28.421875 72.90625 
L 38.28125 72.90625 
L 38.28125 8.296875 
L 54.390625 8.296875 
L 54.390625 0 
L 12.40625 0 
z
" id="DejaVuSans-49"/>
       <path d="M 31.78125 66.40625 
Q 24.171875 66.40625 20.328125 58.90625 
Q 16.5 51.421875 16.5 36.375 
Q 16.5 21.390625 20.328125 13.890625 
Q 24.171875 6.390625 31.78125 6.390625 
Q 39.453125 6.390625 43.28125 13.890625 
Q 47.125 21.390625 47.125 36.375 
Q 47.125 51.421875 43.28125 58.90625 
Q 39.453125 66.40625 31.78125 66.40625 
z
M 31.78125 74.21875 
Q 44.046875 74.21875 50.515625 64.515625 
Q 56.984375 54.828125 56.984375 36.375 
Q 56.984375 17.96875 50.515625 8.265625 
Q 44.046875 -1.421875 31.78125 -1.421875 
Q 19.53125 -1.421875 13.0625 8.265625 
Q 6.59375 17.96875 6.59375 36.375 
Q 6.59375 54.828125 13.0625 64.515625 
Q 19.53125 74.21875 31.78125 74.21875 
z
" id="DejaVuSans-48"/>
      </defs>
      <g transform="translate(227.670398 462.956562)scale(0.3 -0.3)">
       <use xlink:href="#DejaVuSans-49"/>
       <use x="63.623047" xlink:href="#DejaVuSans-48"/>
      </g>
     </g>
    </g>
    <g id="xtick_3">
     <g id="line2d_3">
      <g>
       <use style="stroke:#000000;stroke-width:0.8;" x="305.939716" xlink:href="#me3012c68e6" y="433.16125"/>
      </g>
     </g>
     <g id="text_3">
      <!-- 15 -->
      <g transform="translate(286.852216 462.956562)scale(0.3 -0.3)">
       <use xlink:href="#DejaVuSans-49"/>
       <use x="63.623047" xlink:href="#DejaVuSans-53"/>
      </g>
     </g>
    </g>
    <g id="xtick_4">
     <g id="line2d_4">
      <g>
       <use style="stroke:#000000;stroke-width:0.8;" x="365.121534" xlink:href="#me3012c68e6" y="433.16125"/>
      </g>
     </g>
     <g id="text_4">
      <!-- 20 -->
      <defs>
       <path d="M 19.1875 8.296875 
L 53.609375 8.296875 
L 53.609375 0 
L 7.328125 0 
L 7.328125 8.296875 
Q 12.9375 14.109375 22.625 23.890625 
Q 32.328125 33.6875 34.8125 36.53125 
Q 39.546875 41.84375 41.421875 45.53125 
Q 43.3125 49.21875 43.3125 52.78125 
Q 43.3125 58.59375 39.234375 62.25 
Q 35.15625 65.921875 28.609375 65.921875 
Q 23.96875 65.921875 18.8125 64.3125 
Q 13.671875 62.703125 7.8125 59.421875 
L 7.8125 69.390625 
Q 13.765625 71.78125 18.9375 73 
Q 24.125 74.21875 28.421875 74.21875 
Q 39.75 74.21875 46.484375 68.546875 
Q 53.21875 62.890625 53.21875 53.421875 
Q 53.21875 48.921875 51.53125 44.890625 
Q 49.859375 40.875 45.40625 35.40625 
Q 44.1875 33.984375 37.640625 27.21875 
Q 31.109375 20.453125 19.1875 8.296875 
z
" id="DejaVuSans-50"/>
      </defs>
      <g transform="translate(346.034034 462.956562)scale(0.3 -0.3)">
       <use xlink:href="#DejaVuSans-50"/>
       <use x="63.623047" xlink:href="#DejaVuSans-48"/>
      </g>
     </g>
    </g>
    <g id="xtick_5">
     <g id="line2d_5">
      <g>
       <use style="stroke:#000000;stroke-width:0.8;" x="424.303352" xlink:href="#me3012c68e6" y="433.16125"/>
      </g>
     </g>
     <g id="text_5">
      <!-- 25 -->
      <g transform="translate(405.215852 462.956562)scale(0.3 -0.3)">
       <use xlink:href="#DejaVuSans-50"/>
       <use x="63.623047" xlink:href="#DejaVuSans-53"/>
      </g>
     </g>
    </g>
    <g id="xtick_6">
     <g id="line2d_6">
      <g>
       <use style="stroke:#000000;stroke-width:0.8;" x="483.48517" xlink:href="#me3012c68e6" y="433.16125"/>
      </g>
     </g>
     <g id="text_6">
      <!-- 30 -->
      <defs>
       <path d="M 40.578125 39.3125 
Q 47.65625 37.796875 51.625 33 
Q 55.609375 28.21875 55.609375 21.1875 
Q 55.609375 10.40625 48.1875 4.484375 
Q 40.765625 -1.421875 27.09375 -1.421875 
Q 22.515625 -1.421875 17.65625 -0.515625 
Q 12.796875 0.390625 7.625 2.203125 
L 7.625 11.71875 
Q 11.71875 9.328125 16.59375 8.109375 
Q 21.484375 6.890625 26.8125 6.890625 
Q 36.078125 6.890625 40.9375 10.546875 
Q 45.796875 14.203125 45.796875 21.1875 
Q 45.796875 27.640625 41.28125 31.265625 
Q 36.765625 34.90625 28.71875 34.90625 
L 20.21875 34.90625 
L 20.21875 43.015625 
L 29.109375 43.015625 
Q 36.375 43.015625 40.234375 45.921875 
Q 44.09375 48.828125 44.09375 54.296875 
Q 44.09375 59.90625 40.109375 62.90625 
Q 36.140625 65.921875 28.71875 65.921875 
Q 24.65625 65.921875 20.015625 65.03125 
Q 15.375 64.15625 9.8125 62.3125 
L 9.8125 71.09375 
Q 15.4375 72.65625 20.34375 73.4375 
Q 25.25 74.21875 29.59375 74.21875 
Q 40.828125 74.21875 47.359375 69.109375 
Q 53.90625 64.015625 53.90625 55.328125 
Q 53.90625 49.265625 50.4375 45.09375 
Q 46.96875 40.921875 40.578125 39.3125 
z
" id="DejaVuSans-51"/>
      </defs>
      <g transform="translate(464.39767 462.956562)scale(0.3 -0.3)">
       <use xlink:href="#DejaVuSans-51"/>
       <use x="63.623047" xlink:href="#DejaVuSans-48"/>
      </g>
     </g>
    </g>
    <g id="text_7">
     <!-- RADIUS -->
     <defs>
      <path d="M 7.328125 0 
L 7.328125 71.578125 
L 37.75 71.578125 
Q 49.21875 71.578125 54.421875 69.640625 
Q 59.625 67.71875 62.75 62.78125 
Q 65.875 57.859375 65.875 51.515625 
Q 65.875 43.453125 61.125 38.203125 
Q 56.390625 32.953125 46.96875 31.59375 
Q 51.65625 28.859375 54.703125 25.578125 
Q 57.765625 22.3125 62.9375 13.96875 
L 71.6875 0 
L 54.390625 0 
L 43.953125 15.578125 
Q 38.375 23.921875 36.328125 26.09375 
Q 34.28125 28.265625 31.984375 29.078125 
Q 29.6875 29.890625 24.703125 29.890625 
L 21.78125 29.890625 
L 21.78125 0 
z
M 21.78125 41.3125 
L 32.46875 41.3125 
Q 42.875 41.3125 45.453125 42.1875 
Q 48.046875 43.0625 49.515625 45.203125 
Q 50.984375 47.359375 50.984375 50.59375 
Q 50.984375 54.203125 49.046875 56.421875 
Q 47.125 58.640625 43.609375 59.234375 
Q 41.84375 59.46875 33.0625 59.46875 
L 21.78125 59.46875 
z
" id="Arial-BoldMT-82"/>
      <path d="M 71.828125 0 
L 56.109375 0 
L 49.859375 16.265625 
L 21.234375 16.265625 
L 15.328125 0 
L 0 0 
L 27.875 71.578125 
L 43.171875 71.578125 
z
M 45.21875 28.328125 
L 35.359375 54.890625 
L 25.6875 28.328125 
z
" id="Arial-BoldMT-65"/>
      <path d="M 7.234375 71.578125 
L 33.640625 71.578125 
Q 42.578125 71.578125 47.265625 70.21875 
Q 53.5625 68.359375 58.046875 63.625 
Q 62.546875 58.890625 64.890625 52.03125 
Q 67.234375 45.171875 67.234375 35.109375 
Q 67.234375 26.265625 65.046875 19.875 
Q 62.359375 12.0625 57.375 7.234375 
Q 53.609375 3.5625 47.21875 1.515625 
Q 42.4375 0 34.421875 0 
L 7.234375 0 
z
M 21.6875 59.46875 
L 21.6875 12.0625 
L 32.46875 12.0625 
Q 38.53125 12.0625 41.21875 12.75 
Q 44.734375 13.625 47.046875 15.71875 
Q 49.359375 17.828125 50.828125 22.625 
Q 52.296875 27.4375 52.296875 35.75 
Q 52.296875 44.046875 50.828125 48.484375 
Q 49.359375 52.9375 46.71875 55.421875 
Q 44.09375 57.90625 40.046875 58.796875 
Q 37.015625 59.46875 28.171875 59.46875 
z
" id="Arial-BoldMT-68"/>
      <path d="M 6.84375 0 
L 6.84375 71.578125 
L 21.296875 71.578125 
L 21.296875 0 
z
" id="Arial-BoldMT-73"/>
      <path d="M 7.171875 71.578125 
L 21.625 71.578125 
L 21.625 32.8125 
Q 21.625 23.578125 22.171875 20.84375 
Q 23.09375 16.453125 26.578125 13.796875 
Q 30.078125 11.140625 36.140625 11.140625 
Q 42.28125 11.140625 45.40625 13.640625 
Q 48.53125 16.15625 49.171875 19.8125 
Q 49.8125 23.484375 49.8125 31.984375 
L 49.8125 71.578125 
L 64.265625 71.578125 
L 64.265625 33.984375 
Q 64.265625 21.09375 63.09375 15.765625 
Q 61.921875 10.453125 58.765625 6.78125 
Q 55.609375 3.125 50.328125 0.953125 
Q 45.0625 -1.21875 36.578125 -1.21875 
Q 26.3125 -1.21875 21.015625 1.140625 
Q 15.71875 3.515625 12.640625 7.296875 
Q 9.578125 11.078125 8.59375 15.234375 
Q 7.171875 21.390625 7.171875 33.40625 
z
" id="Arial-BoldMT-85"/>
      <path d="M 3.609375 23.296875 
L 17.671875 24.65625 
Q 18.953125 17.578125 22.828125 14.25 
Q 26.703125 10.9375 33.296875 10.9375 
Q 40.28125 10.9375 43.8125 13.890625 
Q 47.359375 16.84375 47.359375 20.796875 
Q 47.359375 23.34375 45.875 25.125 
Q 44.390625 26.90625 40.671875 28.21875 
Q 38.140625 29.109375 29.109375 31.34375 
Q 17.484375 34.234375 12.796875 38.421875 
Q 6.203125 44.34375 6.203125 52.828125 
Q 6.203125 58.296875 9.296875 63.0625 
Q 12.40625 67.828125 18.234375 70.3125 
Q 24.078125 72.796875 32.328125 72.796875 
Q 45.796875 72.796875 52.609375 66.890625 
Q 59.421875 60.984375 59.765625 51.125 
L 45.3125 50.484375 
Q 44.390625 56 41.328125 58.421875 
Q 38.28125 60.84375 32.171875 60.84375 
Q 25.875 60.84375 22.3125 58.25 
Q 20.015625 56.59375 20.015625 53.8125 
Q 20.015625 51.265625 22.171875 49.46875 
Q 24.90625 47.171875 35.453125 44.671875 
Q 46 42.1875 51.046875 39.515625 
Q 56.109375 36.859375 58.953125 32.25 
Q 61.8125 27.640625 61.8125 20.84375 
Q 61.8125 14.703125 58.390625 9.328125 
Q 54.984375 3.953125 48.734375 1.34375 
Q 42.484375 -1.265625 33.15625 -1.265625 
Q 19.578125 -1.265625 12.296875 5 
Q 5.03125 11.28125 3.609375 23.296875 
z
" id="Arial-BoldMT-83"/>
     </defs>
     <g transform="translate(297.194687 493.51125)scale(0.2 -0.2)">
      <use xlink:href="#Arial-BoldMT-82"/>
      <use x="72.216797" xlink:href="#Arial-BoldMT-65"/>
      <use x="144.433594" xlink:href="#Arial-BoldMT-68"/>
      <use x="216.650391" xlink:href="#Arial-BoldMT-73"/>
      <use x="244.433594" xlink:href="#Arial-BoldMT-85"/>
      <use x="316.650391" xlink:href="#Arial-BoldMT-83"/>
     </g>
    </g>
   </g>
   <g id="matplotlib.axis_2">
    <g id="ytick_1">
     <g id="line2d_7">
      <defs>
       <path d="M 0 0 
L -3.5 0 
" id="m5144f4f58f" style="stroke:#000000;stroke-width:0.8;"/>
      </defs>
      <g>
       <use style="stroke:#000000;stroke-width:0.8;" x="140.230625" xlink:href="#m5144f4f58f" y="433.16125"/>
      </g>
     </g>
     <g id="text_8">
      <!-- 0 -->
      <g transform="translate(114.143125 444.558906)scale(0.3 -0.3)">
       <use xlink:href="#DejaVuSans-48"/>
      </g>
     </g>
    </g>
    <g id="ytick_2">
     <g id="line2d_8">
      <g>
       <use style="stroke:#000000;stroke-width:0.8;" x="140.230625" xlink:href="#m5144f4f58f" y="370.678491"/>
      </g>
     </g>
     <g id="text_9">
      <!-- 500 -->
      <g transform="translate(75.968125 382.076148)scale(0.3 -0.3)">
       <use xlink:href="#DejaVuSans-53"/>
       <use x="63.623047" xlink:href="#DejaVuSans-48"/>
       <use x="127.246094" xlink:href="#DejaVuSans-48"/>
      </g>
     </g>
    </g>
    <g id="ytick_3">
     <g id="line2d_9">
      <g>
       <use style="stroke:#000000;stroke-width:0.8;" x="140.230625" xlink:href="#m5144f4f58f" y="308.195733"/>
      </g>
     </g>
     <g id="text_10">
      <!-- 1000 -->
      <g transform="translate(56.880625 319.593389)scale(0.3 -0.3)">
       <use xlink:href="#DejaVuSans-49"/>
       <use x="63.623047" xlink:href="#DejaVuSans-48"/>
       <use x="127.246094" xlink:href="#DejaVuSans-48"/>
       <use x="190.869141" xlink:href="#DejaVuSans-48"/>
      </g>
     </g>
    </g>
    <g id="ytick_4">
     <g id="line2d_10">
      <g>
       <use style="stroke:#000000;stroke-width:0.8;" x="140.230625" xlink:href="#m5144f4f58f" y="245.712974"/>
      </g>
     </g>
     <g id="text_11">
      <!-- 1500 -->
      <g transform="translate(56.880625 257.11063)scale(0.3 -0.3)">
       <use xlink:href="#DejaVuSans-49"/>
       <use x="63.623047" xlink:href="#DejaVuSans-53"/>
       <use x="127.246094" xlink:href="#DejaVuSans-48"/>
       <use x="190.869141" xlink:href="#DejaVuSans-48"/>
      </g>
     </g>
    </g>
    <g id="ytick_5">
     <g id="line2d_11">
      <g>
       <use style="stroke:#000000;stroke-width:0.8;" x="140.230625" xlink:href="#m5144f4f58f" y="183.230216"/>
      </g>
     </g>
     <g id="text_12">
      <!-- 2000 -->
      <g transform="translate(56.880625 194.627872)scale(0.3 -0.3)">
       <use xlink:href="#DejaVuSans-50"/>
       <use x="63.623047" xlink:href="#DejaVuSans-48"/>
       <use x="127.246094" xlink:href="#DejaVuSans-48"/>
       <use x="190.869141" xlink:href="#DejaVuSans-48"/>
      </g>
     </g>
    </g>
    <g id="ytick_6">
     <g id="line2d_12">
      <g>
       <use style="stroke:#000000;stroke-width:0.8;" x="140.230625" xlink:href="#m5144f4f58f" y="120.747457"/>
      </g>
     </g>
     <g id="text_13">
      <!-- 2500 -->
      <g transform="translate(56.880625 132.145113)scale(0.3 -0.3)">
       <use xlink:href="#DejaVuSans-50"/>
       <use x="63.623047" xlink:href="#DejaVuSans-53"/>
       <use x="127.246094" xlink:href="#DejaVuSans-48"/>
       <use x="190.869141" xlink:href="#DejaVuSans-48"/>
      </g>
     </g>
    </g>
    <g id="ytick_7">
     <g id="line2d_13">
      <g>
       <use style="stroke:#000000;stroke-width:0.8;" x="140.230625" xlink:href="#m5144f4f58f" y="58.264698"/>
      </g>
     </g>
     <g id="text_14">
      <!-- 3000 -->
      <g transform="translate(56.880625 69.662355)scale(0.3 -0.3)">
       <use xlink:href="#DejaVuSans-51"/>
       <use x="63.623047" xlink:href="#DejaVuSans-48"/>
       <use x="127.246094" xlink:href="#DejaVuSans-48"/>
       <use x="190.869141" xlink:href="#DejaVuSans-48"/>
      </g>
     </g>
    </g>
    <g id="text_15">
     <!-- T-CELL LIVE -->
     <defs>
      <path d="M 23.390625 0 
L 23.390625 59.46875 
L 2.15625 59.46875 
L 2.15625 71.578125 
L 59.03125 71.578125 
L 59.03125 59.46875 
L 37.84375 59.46875 
L 37.84375 0 
z
" id="Arial-BoldMT-84"/>
      <path d="M 5.609375 19.09375 
L 5.609375 32.8125 
L 32.5625 32.8125 
L 32.5625 19.09375 
z
" id="Arial-BoldMT-45"/>
      <path d="M 53.078125 26.3125 
L 67.09375 21.875 
Q 63.875 10.15625 56.375 4.46875 
Q 48.875 -1.21875 37.359375 -1.21875 
Q 23.09375 -1.21875 13.90625 8.515625 
Q 4.734375 18.265625 4.734375 35.15625 
Q 4.734375 53.03125 13.953125 62.90625 
Q 23.1875 72.796875 38.234375 72.796875 
Q 51.375 72.796875 59.578125 65.046875 
Q 64.453125 60.453125 66.890625 51.859375 
L 52.59375 48.4375 
Q 51.3125 54 47.28125 57.21875 
Q 43.265625 60.453125 37.5 60.453125 
Q 29.546875 60.453125 24.578125 54.734375 
Q 19.625 49.03125 19.625 36.234375 
Q 19.625 22.65625 24.5 16.890625 
Q 29.390625 11.140625 37.203125 11.140625 
Q 42.96875 11.140625 47.109375 14.796875 
Q 51.265625 18.453125 53.078125 26.3125 
z
" id="Arial-BoldMT-67"/>
      <path d="M 7.28125 0 
L 7.28125 71.578125 
L 60.359375 71.578125 
L 60.359375 59.46875 
L 21.734375 59.46875 
L 21.734375 43.609375 
L 57.671875 43.609375 
L 57.671875 31.546875 
L 21.734375 31.546875 
L 21.734375 12.0625 
L 61.71875 12.0625 
L 61.71875 0 
z
" id="Arial-BoldMT-69"/>
      <path d="M 7.671875 0 
L 7.671875 71 
L 22.125 71 
L 22.125 12.0625 
L 58.0625 12.0625 
L 58.0625 0 
z
" id="Arial-BoldMT-76"/>
      <path id="Arial-BoldMT-32"/>
      <path d="M 25.53125 0 
L -0.046875 71.578125 
L 15.625 71.578125 
L 33.734375 18.609375 
L 51.265625 71.578125 
L 66.609375 71.578125 
L 40.96875 0 
z
" id="Arial-BoldMT-86"/>
     </defs>
     <g transform="translate(21.253125 303.441875)rotate(-90)scale(0.2 -0.2)">
      <use xlink:href="#Arial-BoldMT-84"/>
      <use x="61.005859" xlink:href="#Arial-BoldMT-45"/>
      <use x="94.306641" xlink:href="#Arial-BoldMT-67"/>
      <use x="166.523438" xlink:href="#Arial-BoldMT-69"/>
      <use x="233.222656" xlink:href="#Arial-BoldMT-76"/>
      <use x="294.306641" xlink:href="#Arial-BoldMT-76"/>
      <use x="355.375" xlink:href="#Arial-BoldMT-32"/>
      <use x="383.158203" xlink:href="#Arial-BoldMT-76"/>
      <use x="444.242188" xlink:href="#Arial-BoldMT-73"/>
      <use x="472.025391" xlink:href="#Arial-BoldMT-86"/>
      <use x="538.724609" xlink:href="#Arial-BoldMT-69"/>
     </g>
     <!-- CELL COUNTS (NUMBERS) -->
     <defs>
      <path d="M 4.34375 35.359375 
Q 4.34375 46.296875 7.625 53.71875 
Q 10.0625 59.1875 14.28125 63.53125 
Q 18.5 67.875 23.53125 69.96875 
Q 30.21875 72.796875 38.96875 72.796875 
Q 54.78125 72.796875 64.28125 62.984375 
Q 73.78125 53.171875 73.78125 35.6875 
Q 73.78125 18.359375 64.359375 8.5625 
Q 54.9375 -1.21875 39.15625 -1.21875 
Q 23.1875 -1.21875 13.765625 8.515625 
Q 4.34375 18.265625 4.34375 35.359375 
z
M 19.234375 35.84375 
Q 19.234375 23.6875 24.84375 17.40625 
Q 30.46875 11.140625 39.109375 11.140625 
Q 47.75 11.140625 53.296875 17.359375 
Q 58.84375 23.578125 58.84375 36.03125 
Q 58.84375 48.34375 53.4375 54.390625 
Q 48.046875 60.453125 39.109375 60.453125 
Q 30.171875 60.453125 24.703125 54.3125 
Q 19.234375 48.1875 19.234375 35.84375 
z
" id="Arial-BoldMT-79"/>
      <path d="M 7.421875 0 
L 7.421875 71.578125 
L 21.484375 71.578125 
L 50.78125 23.78125 
L 50.78125 71.578125 
L 64.203125 71.578125 
L 64.203125 0 
L 49.703125 0 
L 20.84375 46.6875 
L 20.84375 0 
z
" id="Arial-BoldMT-78"/>
      <path d="M 29.9375 -21.046875 
L 20.515625 -21.046875 
Q 13.03125 -9.765625 9.125 2.390625 
Q 5.21875 14.546875 5.21875 25.921875 
Q 5.21875 40.046875 10.0625 52.640625 
Q 14.265625 63.578125 20.703125 72.796875 
L 30.078125 72.796875 
Q 23.390625 58.015625 20.875 47.625 
Q 18.359375 37.25 18.359375 25.640625 
Q 18.359375 17.625 19.84375 9.21875 
Q 21.34375 0.828125 23.921875 -6.734375 
Q 25.640625 -11.71875 29.9375 -21.046875 
z
" id="Arial-BoldMT-40"/>
      <path d="M 7.078125 0 
L 7.078125 71.578125 
L 28.71875 71.578125 
L 41.703125 22.75 
L 54.546875 71.578125 
L 76.21875 71.578125 
L 76.21875 0 
L 62.796875 0 
L 62.796875 56.34375 
L 48.578125 0 
L 34.671875 0 
L 20.515625 56.34375 
L 20.515625 0 
z
" id="Arial-BoldMT-77"/>
      <path d="M 7.328125 71.578125 
L 35.9375 71.578125 
Q 44.4375 71.578125 48.609375 70.875 
Q 52.78125 70.171875 56.078125 67.921875 
Q 59.375 65.671875 61.5625 61.9375 
Q 63.765625 58.203125 63.765625 53.5625 
Q 63.765625 48.53125 61.046875 44.328125 
Q 58.34375 40.140625 53.71875 38.03125 
Q 60.25 36.140625 63.765625 31.546875 
Q 67.28125 26.953125 67.28125 20.75 
Q 67.28125 15.875 65.015625 11.25 
Q 62.75 6.640625 58.8125 3.875 
Q 54.890625 1.125 49.125 0.484375 
Q 45.515625 0.09375 31.6875 0 
L 7.328125 0 
z
M 21.78125 59.671875 
L 21.78125 43.109375 
L 31.25 43.109375 
Q 39.703125 43.109375 41.75 43.359375 
Q 45.453125 43.796875 47.578125 45.921875 
Q 49.703125 48.046875 49.703125 51.515625 
Q 49.703125 54.828125 47.875 56.90625 
Q 46.046875 58.984375 42.4375 59.421875 
Q 40.28125 59.671875 30.078125 59.671875 
z
M 21.78125 31.203125 
L 21.78125 12.0625 
L 35.15625 12.0625 
Q 42.96875 12.0625 45.0625 12.5 
Q 48.296875 13.09375 50.3125 15.359375 
Q 52.34375 17.625 52.34375 21.4375 
Q 52.34375 24.65625 50.78125 26.90625 
Q 49.21875 29.15625 46.265625 30.171875 
Q 43.3125 31.203125 33.453125 31.203125 
z
" id="Arial-BoldMT-66"/>
      <path d="M 3.375 -21.046875 
Q 7.421875 -12.359375 9.078125 -7.71875 
Q 10.75 -3.078125 12.15625 2.96875 
Q 13.578125 9.03125 14.25 14.46875 
Q 14.9375 19.921875 14.9375 25.640625 
Q 14.9375 37.25 12.453125 47.625 
Q 9.96875 58.015625 3.265625 72.796875 
L 12.59375 72.796875 
Q 19.96875 62.3125 24.046875 50.53125 
Q 28.125 38.765625 28.125 26.65625 
Q 28.125 16.453125 24.90625 4.78125 
Q 21.234375 -8.296875 12.84375 -21.046875 
z
" id="Arial-BoldMT-41"/>
     </defs>
     <g transform="translate(42.67125 374.002812)rotate(-90)scale(0.2 -0.2)">
      <use xlink:href="#Arial-BoldMT-67"/>
      <use x="72.216797" xlink:href="#Arial-BoldMT-69"/>
      <use x="138.916016" xlink:href="#Arial-BoldMT-76"/>
      <use x="200" xlink:href="#Arial-BoldMT-76"/>
      <use x="261.068359" xlink:href="#Arial-BoldMT-32"/>
      <use x="288.851562" xlink:href="#Arial-BoldMT-67"/>
      <use x="361.068359" xlink:href="#Arial-BoldMT-79"/>
      <use x="438.851562" xlink:href="#Arial-BoldMT-85"/>
      <use x="511.068359" xlink:href="#Arial-BoldMT-78"/>
      <use x="583.285156" xlink:href="#Arial-BoldMT-84"/>
      <use x="644.369141" xlink:href="#Arial-BoldMT-83"/>
      <use x="711.068359" xlink:href="#Arial-BoldMT-32"/>
      <use x="738.851562" xlink:href="#Arial-BoldMT-40"/>
      <use x="772.152344" xlink:href="#Arial-BoldMT-78"/>
      <use x="844.369141" xlink:href="#Arial-BoldMT-85"/>
      <use x="916.585938" xlink:href="#Arial-BoldMT-77"/>
      <use x="999.886719" xlink:href="#Arial-BoldMT-66"/>
      <use x="1072.103516" xlink:href="#Arial-BoldMT-69"/>
      <use x="1138.802734" xlink:href="#Arial-BoldMT-82"/>
      <use x="1211.019531" xlink:href="#Arial-BoldMT-83"/>
      <use x="1277.71875" xlink:href="#Arial-BoldMT-41"/>
     </g>
    </g>
   </g>
   <g id="line2d_14">
    <path clip-path="url(#pd1550c12a9)" d="M 140.230625 433.16125 
L 152.066989 431.286767 
L 163.903352 423.288974 
L 175.739716 420.414767 
L 187.57608 409.292836 
L 199.412443 398.795733 
L 211.248807 385.924284 
L 223.08517 389.048422 
L 234.921534 366.054767 
L 246.757898 366.679595 
L 258.594261 352.058629 
L 270.430625 339.936974 
L 282.266989 338.812284 
L 294.103352 329.689802 
L 305.939716 315.568698 
L 317.77608 301.57256 
L 329.612443 284.952147 
L 341.448807 275.079871 
L 353.28517 263.832974 
L 365.121534 237.965112 
L 376.957898 238.090078 
L 388.794261 236.090629 
L 400.630625 221.969526 
L 412.466989 225.218629 
L 424.303352 207.473526 
L 436.139716 211.222491 
L 447.97608 224.968698 
L 459.812443 203.849526 
L 471.648807 194.976974 
L 483.48517 179.606216 
L 495.321534 162.360974 
L 507.157898 99.128422 
L 518.994261 93.130078 
L 530.830625 109.50056 
" style="fill:none;stroke:#08306b;stroke-linecap:square;stroke-width:1.5;"/>
   </g>
   <g id="line2d_15">
    <path clip-path="url(#pd1550c12a9)" d="M 140.230625 433.16125 
L 152.066989 428.037664 
L 163.903352 424.913526 
L 175.739716 415.791043 
L 187.57608 409.417802 
L 199.412443 397.796009 
L 211.248807 393.547181 
L 223.08517 377.67656 
L 234.921534 372.053112 
L 246.757898 365.304974 
L 258.594261 348.309664 
L 270.430625 330.939457 
L 282.266989 320.442353 
L 294.103352 315.318767 
L 305.939716 307.320974 
L 317.77608 283.827457 
L 329.612443 295.199319 
L 341.448807 284.827181 
L 353.28517 280.703319 
L 365.121534 261.583595 
L 376.957898 267.332009 
L 388.794261 236.840422 
L 400.630625 236.840422 
L 412.466989 236.965388 
L 424.303352 233.341388 
L 436.139716 229.842353 
L 447.97608 214.221664 
L 459.812443 211.347457 
L 471.648807 202.34994 
L 483.48517 187.479043 
L 495.321534 164.735319 
L 507.157898 116.873526 
L 518.994261 104.376974 
L 530.830625 127.62056 
" style="fill:none;stroke:#08306b;stroke-linecap:square;stroke-width:1.5;"/>
   </g>
   <g id="line2d_16">
    <path clip-path="url(#pd1550c12a9)" d="M 140.230625 433.16125 
L 152.066989 423.039043 
L 163.903352 420.914629 
L 175.739716 412.167043 
L 187.57608 405.168974 
L 199.412443 391.922629 
L 211.248807 384.424698 
L 223.08517 376.551871 
L 234.921534 362.930629 
L 246.757898 351.683733 
L 258.594261 355.682629 
L 270.430625 330.56456 
L 282.266989 328.190216 
L 294.103352 311.819733 
L 305.939716 296.199043 
L 317.77608 308.445664 
L 329.612443 290.200698 
L 341.448807 284.57725 
L 353.28517 262.583319 
L 365.121534 253.335871 
L 376.957898 256.584974 
L 388.794261 246.962629 
L 400.630625 233.966216 
L 412.466989 226.59325 
L 424.303352 224.468836 
L 436.139716 210.597664 
L 447.97608 181.98056 
L 459.812443 168.484284 
L 471.648807 169.484009 
L 483.48517 164.610353 
L 495.321534 139.367319 
L 507.157898 119.122905 
L 518.994261 99.878216 
L 530.830625 154.363181 
" style="fill:none;stroke:#08306b;stroke-linecap:square;stroke-width:1.5;"/>
   </g>
   <g id="line2d_17">
    <path clip-path="url(#pd1550c12a9)" d="M 140.230625 433.16125 
L 152.066989 425.288422 
L 163.903352 418.66525 
L 175.739716 404.544147 
L 187.57608 388.173664 
L 199.412443 372.178078 
L 211.248807 380.550767 
L 223.08517 375.052284 
L 234.921534 365.679871 
L 246.757898 372.178078 
L 258.594261 341.561526 
L 270.430625 348.059733 
L 282.266989 327.190491 
L 294.103352 317.443181 
L 305.939716 313.444284 
L 317.77608 313.819181 
L 329.612443 284.57725 
L 341.448807 267.332009 
L 353.28517 271.080974 
L 365.121534 302.447319 
L 376.957898 265.832422 
L 388.794261 275.454767 
L 400.630625 258.959319 
L 412.466989 236.715457 
L 424.303352 219.720147 
L 436.139716 214.096698 
L 447.97608 210.597664 
L 459.812443 185.979457 
L 471.648807 176.98194 
L 483.48517 159.361802 
L 495.321534 133.618905 
L 507.157898 108.250905 
L 518.994261 96.254216 
L 530.830625 123.746629 
" style="fill:none;stroke:#08306b;stroke-linecap:square;stroke-width:1.5;"/>
   </g>
   <g id="line2d_18">
    <path clip-path="url(#pd1550c12a9)" d="M 140.230625 430.162078 
L 152.066989 423.039043 
L 163.903352 412.167043 
L 175.739716 401.170078 
L 187.57608 402.669664 
L 199.412443 397.421112 
L 211.248807 396.171457 
L 223.08517 388.798491 
L 234.921534 385.549388 
L 246.757898 370.42856 
L 258.594261 357.307181 
L 270.430625 354.682905 
L 282.266989 340.311871 
L 294.103352 307.196009 
L 305.939716 313.694216 
L 317.77608 301.322629 
L 329.612443 281.703043 
L 341.448807 272.455595 
L 353.28517 264.082905 
L 365.121534 266.207319 
L 376.957898 278.45394 
L 388.794261 283.077664 
L 400.630625 282.327871 
L 412.466989 275.454767 
L 424.303352 239.589664 
L 436.139716 209.59794 
L 447.97608 181.730629 
L 459.812443 182.105526 
L 471.648807 178.35656 
L 483.48517 153.488422 
L 495.321534 132.744147 
L 507.157898 107.376147 
L 518.994261 70.76125 
L 530.830625 111.874905 
" style="fill:none;stroke:#08306b;stroke-linecap:square;stroke-width:1.5;"/>
   </g>
   <g id="line2d_19">
    <path clip-path="url(#pd1550c12a9)" d="M 140.230625 433.16125 
L 152.066989 428.41256 
L 163.903352 417.040698 
L 175.739716 412.416974 
L 187.57608 411.042353 
L 199.412443 406.418629 
L 211.248807 406.293664 
L 223.08517 390.298078 
L 234.921534 383.050078 
L 246.757898 368.554078 
L 258.594261 358.056974 
L 270.430625 336.188009 
L 282.266989 340.561802 
L 294.103352 318.068009 
L 305.939716 316.06856 
L 317.77608 295.44925 
L 329.612443 285.951871 
L 341.448807 283.202629 
L 353.28517 273.080422 
L 365.121534 244.963181 
L 376.957898 260.084009 
L 388.794261 246.712698 
L 400.630625 244.088422 
L 412.466989 241.589112 
L 424.303352 218.970353 
L 436.139716 245.83794 
L 447.97608 235.590767 
L 459.812443 230.21725 
L 471.648807 218.595457 
L 483.48517 194.976974 
L 495.321534 166.359871 
L 507.157898 151.239043 
L 518.994261 131.869388 
L 530.830625 149.989388 
" style="fill:none;stroke:#08306b;stroke-linecap:square;stroke-width:1.5;"/>
   </g>
   <g id="line2d_20">
    <path clip-path="url(#pd1550c12a9)" d="M 140.230625 433.16125 
L 152.066989 432.161526 
L 163.903352 429.912147 
L 175.739716 421.789388 
L 187.57608 408.043181 
L 199.412443 397.671043 
L 211.248807 374.927319 
L 223.08517 365.679871 
L 234.921534 351.933664 
L 246.757898 336.188009 
L 258.594261 340.436836 
L 270.430625 333.188836 
L 282.266989 323.066629 
L 294.103352 311.444836 
L 305.939716 304.196836 
L 317.77608 300.447871 
L 329.612443 283.952422 
L 341.448807 267.58194 
L 353.28517 274.455043 
L 365.121534 247.462491 
L 376.957898 249.711871 
L 388.794261 231.591871 
L 400.630625 224.09394 
L 412.466989 229.717388 
L 424.303352 217.720698 
L 436.139716 229.467457 
L 447.97608 211.847319 
L 459.812443 203.474629 
L 471.648807 192.85256 
L 483.48517 158.487043 
L 495.321534 165.610078 
L 507.157898 136.493112 
L 518.994261 111.500009 
L 530.830625 132.244284 
" style="fill:none;stroke:#08306b;stroke-linecap:square;stroke-width:1.5;"/>
   </g>
   <g id="line2d_21">
    <path clip-path="url(#pd1550c12a9)" d="M 140.230625 432.161526 
L 152.066989 428.037664 
L 163.903352 414.791319 
L 175.739716 404.919043 
L 187.57608 400.795181 
L 199.412443 389.67325 
L 211.248807 374.177526 
L 223.08517 369.678767 
L 234.921534 353.808147 
L 246.757898 363.555457 
L 258.594261 350.808974 
L 270.430625 334.938353 
L 282.266989 337.437664 
L 294.103352 339.562078 
L 305.939716 315.943595 
L 317.77608 321.192147 
L 329.612443 304.071871 
L 341.448807 288.701112 
L 353.28517 264.582767 
L 365.121534 255.460284 
L 376.957898 245.463043 
L 388.794261 249.46194 
L 400.630625 241.214216 
L 412.466989 237.215319 
L 424.303352 237.090353 
L 436.139716 209.847871 
L 447.97608 215.971181 
L 459.812443 205.099181 
L 471.648807 195.726767 
L 483.48517 174.107733 
L 495.321534 147.98994 
L 507.157898 119.872698 
L 518.994261 103.752147 
L 530.830625 143.24125 
" style="fill:none;stroke:#08306b;stroke-linecap:square;stroke-width:1.5;"/>
   </g>
   <g id="line2d_22">
    <path clip-path="url(#pd1550c12a9)" d="M 140.230625 433.16125 
L 152.066989 426.288147 
L 163.903352 410.542491 
L 175.739716 408.91794 
L 187.57608 411.542216 
L 199.412443 403.419457 
L 211.248807 400.670216 
L 223.08517 386.174216 
L 234.921534 379.426078 
L 246.757898 371.428284 
L 258.594261 352.558491 
L 270.430625 349.309388 
L 282.266989 326.94056 
L 294.103352 315.943595 
L 305.939716 304.571733 
L 317.77608 310.320147 
L 329.612443 293.949664 
L 341.448807 297.573664 
L 353.28517 272.080698 
L 365.121534 251.211457 
L 376.957898 240.964284 
L 388.794261 252.086216 
L 400.630625 245.338078 
L 412.466989 238.58994 
L 424.303352 208.598216 
L 436.139716 208.47325 
L 447.97608 196.976422 
L 459.812443 199.850629 
L 471.648807 185.354629 
L 483.48517 171.233526 
L 495.321534 142.11656 
L 507.157898 114.499181 
L 518.994261 108.375871 
L 530.830625 91.130629 
" style="fill:none;stroke:#08306b;stroke-linecap:square;stroke-width:1.5;"/>
   </g>
   <g id="line2d_23">
    <path clip-path="url(#pd1550c12a9)" d="M 140.230625 433.16125 
L 152.066989 429.662216 
L 163.903352 419.914905 
L 175.739716 417.165664 
L 187.57608 406.66856 
L 199.412443 394.172009 
L 211.248807 384.299733 
L 223.08517 370.303595 
L 234.921534 366.054767 
L 246.757898 346.810078 
L 258.594261 324.941112 
L 270.430625 331.189388 
L 282.266989 332.189112 
L 294.103352 321.067181 
L 305.939716 314.818905 
L 317.77608 305.696422 
L 329.612443 297.573664 
L 341.448807 301.447595 
L 353.28517 296.448974 
L 365.121534 270.456147 
L 376.957898 261.333664 
L 388.794261 242.588836 
L 400.630625 223.469112 
L 412.466989 210.97256 
L 424.303352 216.720974 
L 436.139716 205.97394 
L 447.97608 206.348836 
L 459.812443 183.355181 
L 471.648807 196.851457 
L 483.48517 150.48925 
L 495.321534 127.62056 
L 507.157898 93.879871 
L 518.994261 103.752147 
L 530.830625 150.739181 
" style="fill:none;stroke:#08306b;stroke-linecap:square;stroke-width:1.5;"/>
   </g>
   <g id="line2d_24">
    <path clip-path="url(#pd1550c12a9)" d="M 140.230625 432.411457 
L 152.066989 431.286767 
L 163.903352 427.912698 
L 175.739716 422.414216 
L 187.57608 418.66525 
L 199.412443 414.291457 
L 211.248807 409.292836 
L 223.08517 404.419181 
L 234.921534 401.919871 
L 246.757898 400.170353 
L 258.594261 395.296698 
L 270.430625 401.170078 
L 282.266989 391.797664 
L 294.103352 381.30056 
L 305.939716 383.674905 
L 317.77608 375.802078 
L 329.612443 370.803457 
L 341.448807 358.431871 
L 353.28517 362.180836 
L 365.121534 343.935871 
L 376.957898 348.309664 
L 388.794261 343.68594 
L 400.630625 336.312974 
L 412.466989 339.812009 
L 424.303352 335.563181 
L 436.139716 336.687871 
L 447.97608 333.313802 
L 459.812443 318.192974 
L 471.648807 307.570905 
L 483.48517 302.947181 
L 495.321534 285.576974 
L 507.157898 258.08456 
L 518.994261 272.955457 
L 530.830625 296.948836 
" style="fill:none;stroke:#4a98c9;stroke-linecap:square;stroke-width:1.5;"/>
   </g>
   <g id="line2d_25">
    <path clip-path="url(#pd1550c12a9)" d="M 140.230625 433.16125 
L 152.066989 431.161802 
L 163.903352 429.412284 
L 175.739716 418.165388 
L 187.57608 418.540284 
L 199.412443 410.542491 
L 211.248807 396.546353 
L 223.08517 400.170353 
L 234.921534 402.294767 
L 246.757898 399.920422 
L 258.594261 400.54525 
L 270.430625 393.922078 
L 282.266989 381.175595 
L 294.103352 385.799319 
L 305.939716 371.55325 
L 317.77608 361.80594 
L 329.612443 360.806216 
L 341.448807 357.05725 
L 353.28517 347.184974 
L 365.121534 346.935043 
L 376.957898 356.432422 
L 388.794261 349.80925 
L 400.630625 344.685664 
L 412.466989 341.186629 
L 424.303352 325.815871 
L 436.139716 325.066078 
L 447.97608 315.318767 
L 459.812443 299.573112 
L 471.648807 294.32456 
L 483.48517 292.450078 
L 495.321534 269.081526 
L 507.157898 250.461664 
L 518.994261 241.589112 
L 530.830625 283.577526 
" style="fill:none;stroke:#4a98c9;stroke-linecap:square;stroke-width:1.5;"/>
   </g>
   <g id="line2d_26">
    <path clip-path="url(#pd1550c12a9)" d="M 140.230625 433.16125 
L 152.066989 430.66194 
L 163.903352 428.787457 
L 175.739716 424.413664 
L 187.57608 419.664974 
L 199.412443 418.790216 
L 211.248807 412.042078 
L 223.08517 404.044284 
L 234.921534 401.794905 
L 246.757898 392.922353 
L 258.594261 385.174491 
L 270.430625 384.549664 
L 282.266989 383.175043 
L 294.103352 377.426629 
L 305.939716 368.804009 
L 317.77608 373.052836 
L 329.612443 366.554629 
L 341.448807 368.054216 
L 353.28517 371.053388 
L 365.121534 352.808422 
L 376.957898 349.434353 
L 388.794261 346.810078 
L 400.630625 340.811733 
L 412.466989 336.937802 
L 424.303352 334.813388 
L 436.139716 338.812284 
L 447.97608 326.94056 
L 459.812443 330.064698 
L 471.648807 328.190216 
L 483.48517 303.696974 
L 495.321534 279.703595 
L 507.157898 239.089802 
L 518.994261 249.711871 
L 530.830625 309.570353 
" style="fill:none;stroke:#4a98c9;stroke-linecap:square;stroke-width:1.5;"/>
   </g>
   <g id="line2d_27">
    <path clip-path="url(#pd1550c12a9)" d="M 140.230625 432.661388 
L 152.066989 431.036836 
L 163.903352 426.288147 
L 175.739716 419.540009 
L 187.57608 410.042629 
L 199.412443 411.042353 
L 211.248807 403.294491 
L 223.08517 405.668836 
L 234.921534 400.170353 
L 246.757898 409.417802 
L 258.594261 402.419733 
L 270.430625 396.171457 
L 282.266989 380.800698 
L 294.103352 377.301664 
L 305.939716 381.425526 
L 317.77608 378.426353 
L 329.612443 374.927319 
L 341.448807 366.304698 
L 353.28517 363.680422 
L 365.121534 360.931181 
L 376.957898 359.181664 
L 388.794261 348.559595 
L 400.630625 340.686767 
L 412.466989 318.192974 
L 424.303352 303.572009 
L 436.139716 311.569802 
L 447.97608 317.19325 
L 459.812443 319.317664 
L 471.648807 320.192422 
L 483.48517 293.074905 
L 495.321534 277.204284 
L 507.157898 257.709664 
L 518.994261 266.707181 
L 530.830625 317.693112 
" style="fill:none;stroke:#4a98c9;stroke-linecap:square;stroke-width:1.5;"/>
   </g>
   <g id="line2d_28">
    <path clip-path="url(#pd1550c12a9)" d="M 140.230625 432.161526 
L 152.066989 430.162078 
L 163.903352 424.163733 
L 175.739716 422.664147 
L 187.57608 420.789664 
L 199.412443 414.041526 
L 211.248807 409.042905 
L 223.08517 409.542767 
L 234.921534 403.04456 
L 246.757898 397.546078 
L 258.594261 389.923181 
L 270.430625 381.30056 
L 282.266989 376.801802 
L 294.103352 371.303319 
L 305.939716 377.926491 
L 317.77608 359.681526 
L 329.612443 359.931457 
L 341.448807 356.182491 
L 353.28517 347.934767 
L 365.121534 342.436284 
L 376.957898 360.181388 
L 388.794261 347.060009 
L 400.630625 353.058353 
L 412.466989 337.687595 
L 424.303352 330.064698 
L 436.139716 322.441802 
L 447.97608 311.694767 
L 459.812443 315.818629 
L 471.648807 297.573664 
L 483.48517 308.695595 
L 495.321534 280.95325 
L 507.157898 276.579457 
L 518.994261 275.704698 
L 530.830625 323.691457 
" style="fill:none;stroke:#4a98c9;stroke-linecap:square;stroke-width:1.5;"/>
   </g>
   <g id="line2d_29">
    <path clip-path="url(#pd1550c12a9)" d="M 140.230625 433.16125 
L 152.066989 432.661388 
L 163.903352 425.538353 
L 175.739716 419.78994 
L 187.57608 427.162905 
L 199.412443 422.28925 
L 211.248807 417.415595 
L 223.08517 412.54194 
L 234.921534 409.042905 
L 246.757898 401.045112 
L 258.594261 398.420836 
L 270.430625 389.67325 
L 282.266989 394.921802 
L 294.103352 378.301388 
L 305.939716 377.051733 
L 317.77608 367.554353 
L 329.612443 355.182767 
L 341.448807 348.184698 
L 353.28517 347.684836 
L 365.121534 338.062491 
L 376.957898 337.562629 
L 388.794261 327.815319 
L 400.630625 330.939457 
L 412.466989 335.188284 
L 424.303352 316.568422 
L 436.139716 334.313526 
L 447.97608 329.439871 
L 459.812443 311.694767 
L 471.648807 314.943871 
L 483.48517 311.194905 
L 495.321534 271.080974 
L 507.157898 246.087871 
L 518.994261 259.584147 
L 530.830625 287.07656 
" style="fill:none;stroke:#4a98c9;stroke-linecap:square;stroke-width:1.5;"/>
   </g>
   <g id="line2d_30">
    <path clip-path="url(#pd1550c12a9)" d="M 140.230625 433.16125 
L 152.066989 432.661388 
L 163.903352 431.161802 
L 175.739716 425.663319 
L 187.57608 422.164284 
L 199.412443 417.915457 
L 211.248807 406.168698 
L 223.08517 399.670491 
L 234.921534 397.671043 
L 246.757898 386.424147 
L 258.594261 386.924009 
L 270.430625 380.675733 
L 282.266989 379.301112 
L 294.103352 373.802629 
L 305.939716 368.554078 
L 317.77608 373.177802 
L 329.612443 363.055595 
L 341.448807 354.058078 
L 353.28517 352.558491 
L 365.121534 349.434353 
L 376.957898 359.55656 
L 388.794261 334.813388 
L 400.630625 336.562905 
L 412.466989 334.563457 
L 424.303352 342.436284 
L 436.139716 328.06525 
L 447.97608 319.567595 
L 459.812443 303.072147 
L 471.648807 303.572009 
L 483.48517 297.448698 
L 495.321534 284.827181 
L 507.157898 273.455319 
L 518.994261 251.586353 
L 530.830625 295.074353 
" style="fill:none;stroke:#4a98c9;stroke-linecap:square;stroke-width:1.5;"/>
   </g>
   <g id="line2d_31">
    <path clip-path="url(#pd1550c12a9)" d="M 140.230625 432.786353 
L 152.066989 429.412284 
L 163.903352 426.912974 
L 175.739716 420.914629 
L 187.57608 418.415319 
L 199.412443 416.415871 
L 211.248807 413.416698 
L 223.08517 403.294491 
L 234.921534 396.92125 
L 246.757898 395.421664 
L 258.594261 383.424974 
L 270.430625 380.300836 
L 282.266989 385.924284 
L 294.103352 379.92594 
L 305.939716 373.552698 
L 317.77608 363.805388 
L 329.612443 351.308836 
L 341.448807 346.935043 
L 353.28517 354.183043 
L 365.121534 349.684284 
L 376.957898 342.311319 
L 388.794261 338.062491 
L 400.630625 340.686767 
L 412.466989 337.937526 
L 424.303352 334.18856 
L 436.139716 326.565664 
L 447.97608 322.691733 
L 459.812443 320.067457 
L 471.648807 313.319319 
L 483.48517 302.69725 
L 495.321534 265.832422 
L 507.157898 275.204836 
L 518.994261 287.07656 
L 530.830625 334.938353 
" style="fill:none;stroke:#4a98c9;stroke-linecap:square;stroke-width:1.5;"/>
   </g>
   <g id="line2d_32">
    <path clip-path="url(#pd1550c12a9)" d="M 140.230625 432.03656 
L 152.066989 429.162353 
L 163.903352 426.788009 
L 175.739716 423.164009 
L 187.57608 420.539733 
L 199.412443 414.166491 
L 211.248807 412.416974 
L 223.08517 405.29394 
L 234.921534 404.794078 
L 246.757898 396.92125 
L 258.594261 384.174767 
L 270.430625 383.175043 
L 282.266989 374.177526 
L 294.103352 376.426905 
L 305.939716 363.18056 
L 317.77608 369.05394 
L 329.612443 358.681802 
L 341.448807 355.682629 
L 353.28517 355.182767 
L 365.121534 333.688698 
L 376.957898 341.811457 
L 388.794261 338.687319 
L 400.630625 331.939181 
L 412.466989 329.064974 
L 424.303352 315.068836 
L 436.139716 315.943595 
L 447.97608 316.568422 
L 459.812443 312.319595 
L 471.648807 310.695043 
L 483.48517 321.567043 
L 495.321534 283.702491 
L 507.157898 262.958216 
L 518.994261 254.085664 
L 530.830625 293.949664 
" style="fill:none;stroke:#4a98c9;stroke-linecap:square;stroke-width:1.5;"/>
   </g>
   <g id="line2d_33">
    <path clip-path="url(#pd1550c12a9)" d="M 140.230625 433.036284 
L 152.066989 432.786353 
L 163.903352 427.287871 
L 175.739716 424.163733 
L 187.57608 422.539181 
L 199.412443 414.291457 
L 211.248807 411.667181 
L 223.08517 398.170905 
L 234.921534 391.547733 
L 246.757898 387.798767 
L 258.594261 389.67325 
L 270.430625 380.300836 
L 282.266989 379.176147 
L 294.103352 378.926216 
L 305.939716 370.553526 
L 317.77608 368.304147 
L 329.612443 368.304147 
L 341.448807 367.429388 
L 353.28517 362.930629 
L 365.121534 363.18056 
L 376.957898 348.309664 
L 388.794261 344.935595 
L 400.630625 337.562629 
L 412.466989 344.560698 
L 424.303352 319.442629 
L 436.139716 332.564009 
L 447.97608 316.318491 
L 459.812443 303.946905 
L 471.648807 287.201526 
L 483.48517 286.701664 
L 495.321534 275.454767 
L 507.157898 261.458629 
L 518.994261 270.456147 
L 530.830625 293.574767 
" style="fill:none;stroke:#4a98c9;stroke-linecap:square;stroke-width:1.5;"/>
   </g>
   <g id="line2d_34">
    <path clip-path="url(#pd1550c12a9)" d="M 140.230625 433.16125 
L 152.066989 431.411733 
L 163.903352 427.412836 
L 175.739716 422.789112 
L 187.57608 422.039319 
L 199.412443 418.165388 
L 211.248807 415.166216 
L 223.08517 408.168147 
L 234.921534 410.917388 
L 246.757898 400.420284 
L 258.594261 402.794629 
L 270.430625 410.542491 
L 282.266989 395.671595 
L 294.103352 398.420836 
L 305.939716 399.170629 
L 317.77608 387.298905 
L 329.612443 384.299733 
L 341.448807 379.800974 
L 353.28517 373.802629 
L 365.121534 372.053112 
L 376.957898 372.927871 
L 388.794261 370.678491 
L 400.630625 370.803457 
L 412.466989 370.553526 
L 424.303352 360.056422 
L 436.139716 359.931457 
L 447.97608 352.808422 
L 459.812443 354.55794 
L 471.648807 344.060836 
L 483.48517 335.688147 
L 495.321534 326.190767 
L 507.157898 318.442905 
L 518.994261 345.935319 
L 530.830625 371.55325 
" style="fill:none;stroke:#d0e1f2;stroke-linecap:square;stroke-width:1.5;"/>
   </g>
   <g id="line2d_35">
    <path clip-path="url(#pd1550c12a9)" d="M 140.230625 433.16125 
L 152.066989 430.536974 
L 163.903352 430.66194 
L 175.739716 422.914078 
L 187.57608 419.540009 
L 199.412443 414.541388 
L 211.248807 408.792974 
L 223.08517 410.167595 
L 234.921534 413.91656 
L 246.757898 409.417802 
L 258.594261 409.792698 
L 270.430625 399.170629 
L 282.266989 392.422491 
L 294.103352 391.922629 
L 305.939716 385.174491 
L 317.77608 381.800422 
L 329.612443 390.173112 
L 341.448807 391.672698 
L 353.28517 381.175595 
L 365.121534 379.800974 
L 376.957898 377.67656 
L 388.794261 374.302491 
L 400.630625 367.429388 
L 412.466989 363.805388 
L 424.303352 365.804836 
L 436.139716 346.310216 
L 447.97608 348.934491 
L 459.812443 349.934216 
L 471.648807 339.187181 
L 483.48517 337.187733 
L 495.321534 339.062216 
L 507.157898 341.186629 
L 518.994261 337.312698 
L 530.830625 370.553526 
" style="fill:none;stroke:#d0e1f2;stroke-linecap:square;stroke-width:1.5;"/>
   </g>
   <g id="line2d_36">
    <path clip-path="url(#pd1550c12a9)" d="M 140.230625 433.16125 
L 152.066989 431.286767 
L 163.903352 428.037664 
L 175.739716 424.288698 
L 187.57608 422.789112 
L 199.412443 419.165112 
L 211.248807 413.91656 
L 223.08517 415.416147 
L 234.921534 408.91794 
L 246.757898 403.294491 
L 258.594261 404.544147 
L 270.430625 402.919595 
L 282.266989 391.047871 
L 294.103352 388.298629 
L 305.939716 387.298905 
L 317.77608 389.048422 
L 329.612443 374.802353 
L 341.448807 382.300284 
L 353.28517 374.927319 
L 365.121534 374.05256 
L 376.957898 374.05256 
L 388.794261 379.551043 
L 400.630625 373.052836 
L 412.466989 361.431043 
L 424.303352 357.182216 
L 436.139716 357.182216 
L 447.97608 352.683457 
L 459.812443 349.934216 
L 471.648807 348.934491 
L 483.48517 335.563181 
L 495.321534 330.439595 
L 507.157898 313.069388 
L 518.994261 337.937526 
L 530.830625 380.425802 
" style="fill:none;stroke:#d0e1f2;stroke-linecap:square;stroke-width:1.5;"/>
   </g>
   <g id="line2d_37">
    <path clip-path="url(#pd1550c12a9)" d="M 140.230625 433.16125 
L 152.066989 430.66194 
L 163.903352 427.912698 
L 175.739716 424.663595 
L 187.57608 422.414216 
L 199.412443 416.040974 
L 211.248807 415.666078 
L 223.08517 406.043733 
L 234.921534 408.293112 
L 246.757898 408.543043 
L 258.594261 406.66856 
L 270.430625 404.544147 
L 282.266989 397.296147 
L 294.103352 391.297802 
L 305.939716 392.047595 
L 317.77608 386.299181 
L 329.612443 380.050905 
L 341.448807 376.801802 
L 353.28517 380.675733 
L 365.121534 387.17394 
L 376.957898 383.674905 
L 388.794261 383.924836 
L 400.630625 383.54994 
L 412.466989 367.554353 
L 424.303352 361.181112 
L 436.139716 363.430491 
L 447.97608 348.059733 
L 459.812443 344.810629 
L 471.648807 339.687043 
L 483.48517 314.69394 
L 495.321534 304.071871 
L 507.157898 310.195181 
L 518.994261 324.691181 
L 530.830625 357.807043 
" style="fill:none;stroke:#d0e1f2;stroke-linecap:square;stroke-width:1.5;"/>
   </g>
   <g id="line2d_38">
    <path clip-path="url(#pd1550c12a9)" d="M 140.230625 433.036284 
L 152.066989 431.536698 
L 163.903352 426.288147 
L 175.739716 423.913802 
L 187.57608 424.288698 
L 199.412443 418.415319 
L 211.248807 420.039871 
L 223.08517 418.415319 
L 234.921534 415.791043 
L 246.757898 410.792422 
L 258.594261 410.542491 
L 270.430625 405.543871 
L 282.266989 402.669664 
L 294.103352 389.173388 
L 305.939716 393.797112 
L 317.77608 383.54994 
L 329.612443 382.675181 
L 341.448807 377.301664 
L 353.28517 368.304147 
L 365.121534 381.425526 
L 376.957898 373.677664 
L 388.794261 371.803181 
L 400.630625 375.052284 
L 412.466989 360.556284 
L 424.303352 356.182491 
L 436.139716 359.306629 
L 447.97608 346.310216 
L 459.812443 353.683181 
L 471.648807 341.186629 
L 483.48517 340.311871 
L 495.321534 328.940009 
L 507.157898 332.938905 
L 518.994261 340.686767 
L 530.830625 371.178353 
" style="fill:none;stroke:#d0e1f2;stroke-linecap:square;stroke-width:1.5;"/>
   </g>
   <g id="line2d_39">
    <path clip-path="url(#pd1550c12a9)" d="M 140.230625 432.286491 
L 152.066989 432.786353 
L 163.903352 426.413112 
L 175.739716 423.913802 
L 187.57608 425.038491 
L 199.412443 428.037664 
L 211.248807 424.288698 
L 223.08517 417.290629 
L 234.921534 418.415319 
L 246.757898 408.293112 
L 258.594261 403.04456 
L 270.430625 398.295871 
L 282.266989 398.170905 
L 294.103352 394.172009 
L 305.939716 390.922905 
L 317.77608 386.424147 
L 329.612443 380.550767 
L 341.448807 372.178078 
L 353.28517 374.427457 
L 365.121534 363.555457 
L 376.957898 362.805664 
L 388.794261 360.931181 
L 400.630625 362.555733 
L 412.466989 363.055595 
L 424.303352 356.807319 
L 436.139716 356.307457 
L 447.97608 339.187181 
L 459.812443 347.559871 
L 471.648807 355.057802 
L 483.48517 339.936974 
L 495.321534 334.938353 
L 507.157898 323.441526 
L 518.994261 321.192147 
L 530.830625 355.682629 
" style="fill:none;stroke:#d0e1f2;stroke-linecap:square;stroke-width:1.5;"/>
   </g>
   <g id="line2d_40">
    <path clip-path="url(#pd1550c12a9)" d="M 140.230625 433.16125 
L 152.066989 432.161526 
L 163.903352 431.911595 
L 175.739716 427.787733 
L 187.57608 425.413388 
L 199.412443 424.288698 
L 211.248807 412.416974 
L 223.08517 407.168422 
L 234.921534 406.793526 
L 246.757898 396.046491 
L 258.594261 392.797388 
L 270.430625 397.671043 
L 282.266989 393.672147 
L 294.103352 388.423595 
L 305.939716 392.17256 
L 317.77608 386.924009 
L 329.612443 390.672974 
L 341.448807 382.050353 
L 353.28517 372.802905 
L 365.121534 370.928422 
L 376.957898 379.051181 
L 388.794261 367.429388 
L 400.630625 366.179733 
L 412.466989 359.931457 
L 424.303352 358.306905 
L 436.139716 358.431871 
L 447.97608 349.684284 
L 459.812443 353.933112 
L 471.648807 337.562629 
L 483.48517 342.936147 
L 495.321534 341.311595 
L 507.157898 328.06525 
L 518.994261 328.440147 
L 530.830625 346.310216 
" style="fill:none;stroke:#d0e1f2;stroke-linecap:square;stroke-width:1.5;"/>
   </g>
   <g id="line2d_41">
    <path clip-path="url(#pd1550c12a9)" d="M 140.230625 431.661664 
L 152.066989 430.412009 
L 163.903352 425.038491 
L 175.739716 421.539457 
L 187.57608 419.290078 
L 199.412443 417.54056 
L 211.248807 414.166491 
L 223.08517 409.792698 
L 234.921534 408.418078 
L 246.757898 398.420836 
L 258.594261 405.044009 
L 270.430625 395.296698 
L 282.266989 393.172284 
L 294.103352 396.796284 
L 305.939716 387.423871 
L 317.77608 391.172836 
L 329.612443 386.924009 
L 341.448807 382.925112 
L 353.28517 376.426905 
L 365.121534 370.053664 
L 376.957898 362.930629 
L 388.794261 365.929802 
L 400.630625 359.931457 
L 412.466989 355.557664 
L 424.303352 352.058629 
L 436.139716 351.558767 
L 447.97608 347.934767 
L 459.812443 349.559319 
L 471.648807 344.560698 
L 483.48517 336.43794 
L 495.321534 330.314629 
L 507.157898 343.186078 
L 518.994261 355.682629 
L 530.830625 396.046491 
" style="fill:none;stroke:#d0e1f2;stroke-linecap:square;stroke-width:1.5;"/>
   </g>
   <g id="line2d_42">
    <path clip-path="url(#pd1550c12a9)" d="M 140.230625 432.911319 
L 152.066989 430.911871 
L 163.903352 429.662216 
L 175.739716 429.912147 
L 187.57608 421.914353 
L 199.412443 419.914905 
L 211.248807 416.665802 
L 223.08517 413.541664 
L 234.921534 413.166767 
L 246.757898 409.167871 
L 258.594261 393.29725 
L 270.430625 400.420284 
L 282.266989 392.17256 
L 294.103352 387.423871 
L 305.939716 384.92456 
L 317.77608 386.674078 
L 329.612443 382.175319 
L 341.448807 382.175319 
L 353.28517 380.050905 
L 365.121534 370.803457 
L 376.957898 368.928974 
L 388.794261 368.304147 
L 400.630625 378.051457 
L 412.466989 364.555181 
L 424.303352 350.684009 
L 436.139716 358.056974 
L 447.97608 354.682905 
L 459.812443 351.308836 
L 471.648807 343.935871 
L 483.48517 342.811181 
L 495.321534 334.438491 
L 507.157898 316.193526 
L 518.994261 328.06525 
L 530.830625 367.054491 
" style="fill:none;stroke:#d0e1f2;stroke-linecap:square;stroke-width:1.5;"/>
   </g>
   <g id="line2d_43">
    <path clip-path="url(#pd1550c12a9)" d="M 140.230625 433.16125 
L 152.066989 432.661388 
L 163.903352 430.162078 
L 175.739716 425.038491 
L 187.57608 421.664422 
L 199.412443 422.28925 
L 211.248807 417.290629 
L 223.08517 401.66994 
L 234.921534 406.043733 
L 246.757898 400.670216 
L 258.594261 401.420009 
L 270.430625 401.794905 
L 282.266989 398.420836 
L 294.103352 394.921802 
L 305.939716 385.299457 
L 317.77608 389.548284 
L 329.612443 389.048422 
L 341.448807 380.175871 
L 353.28517 379.800974 
L 365.121534 379.426078 
L 376.957898 379.176147 
L 388.794261 370.803457 
L 400.630625 363.18056 
L 412.466989 363.305526 
L 424.303352 356.682353 
L 436.139716 357.932009 
L 447.97608 347.060009 
L 459.812443 347.434905 
L 471.648807 338.687319 
L 483.48517 326.315733 
L 495.321534 327.815319 
L 507.157898 322.066905 
L 518.994261 341.811457 
L 530.830625 374.427457 
" style="fill:none;stroke:#d0e1f2;stroke-linecap:square;stroke-width:1.5;"/>
   </g>
   <g id="line2d_44">
    <path clip-path="url(#pd1550c12a9)" d="M 140.230625 432.536422 
L 152.066989 430.911871 
L 163.903352 423.788836 
L 175.739716 414.916284 
L 187.57608 405.418905 
L 199.412443 404.794078 
L 211.248807 388.298629 
L 223.08517 372.802905 
L 234.921534 368.304147 
L 246.757898 367.554353 
L 258.594261 367.179457 
L 270.430625 367.554353 
L 282.266989 377.301664 
L 294.103352 351.933664 
L 305.939716 330.689526 
L 317.77608 311.319871 
L 329.612443 304.571733 
L 341.448807 299.573112 
L 353.28517 289.076009 
L 365.121534 278.328974 
L 376.957898 287.576422 
L 388.794261 284.57725 
L 400.630625 278.703871 
L 412.466989 276.079595 
L 424.303352 268.331733 
L 436.139716 276.704422 
L 447.97608 266.207319 
L 459.812443 245.088147 
L 471.648807 227.343043 
L 483.48517 237.340284 
L 495.321534 206.223871 
L 507.157898 174.73256 
L 518.994261 157.612284 
L 530.830625 207.34856 
" style="fill:none;stroke:#1764ab;stroke-linecap:square;stroke-width:1.5;"/>
   </g>
   <g id="line2d_45">
    <path clip-path="url(#pd1550c12a9)" d="M 140.230625 432.911319 
L 152.066989 428.662491 
L 163.903352 425.288422 
L 175.739716 416.040974 
L 187.57608 402.919595 
L 199.412443 398.420836 
L 211.248807 389.423319 
L 223.08517 380.300836 
L 234.921534 382.925112 
L 246.757898 376.926767 
L 258.594261 358.431871 
L 270.430625 343.935871 
L 282.266989 341.43656 
L 294.103352 345.810353 
L 305.939716 312.944422 
L 317.77608 314.444009 
L 329.612443 321.067181 
L 341.448807 305.446491 
L 353.28517 309.195457 
L 365.121534 302.072422 
L 376.957898 309.820284 
L 388.794261 302.197388 
L 400.630625 275.579733 
L 412.466989 261.333664 
L 424.303352 249.212009 
L 436.139716 238.839871 
L 447.97608 255.960147 
L 459.812443 268.831595 
L 471.648807 253.585802 
L 483.48517 249.336974 
L 495.321534 237.965112 
L 507.157898 183.230216 
L 518.994261 165.235181 
L 530.830625 191.602905 
" style="fill:none;stroke:#1764ab;stroke-linecap:square;stroke-width:1.5;"/>
   </g>
   <g id="line2d_46">
    <path clip-path="url(#pd1550c12a9)" d="M 140.230625 433.16125 
L 152.066989 431.786629 
L 163.903352 428.537526 
L 175.739716 416.040974 
L 187.57608 418.540284 
L 199.412443 402.919595 
L 211.248807 399.42056 
L 223.08517 392.547457 
L 234.921534 373.177802 
L 246.757898 366.80456 
L 258.594261 362.055871 
L 270.430625 350.309112 
L 282.266989 338.812284 
L 294.103352 343.560974 
L 305.939716 333.313802 
L 317.77608 340.936698 
L 329.612443 324.066353 
L 341.448807 305.19656 
L 353.28517 303.572009 
L 365.121534 289.076009 
L 376.957898 288.951043 
L 388.794261 299.573112 
L 400.630625 267.207043 
L 412.466989 274.330078 
L 424.303352 274.455043 
L 436.139716 262.83325 
L 447.97608 273.70525 
L 459.812443 263.583043 
L 471.648807 232.71656 
L 483.48517 196.226629 
L 495.321534 183.605112 
L 507.157898 140.367043 
L 518.994261 135.493388 
L 530.830625 157.612284 
" style="fill:none;stroke:#1764ab;stroke-linecap:square;stroke-width:1.5;"/>
   </g>
   <g id="line2d_47">
    <path clip-path="url(#pd1550c12a9)" d="M 140.230625 432.911319 
L 152.066989 427.787733 
L 163.903352 424.413664 
L 175.739716 420.789664 
L 187.57608 399.045664 
L 199.412443 398.920698 
L 211.248807 388.423595 
L 223.08517 387.17394 
L 234.921534 388.673526 
L 246.757898 388.798491 
L 258.594261 387.798767 
L 270.430625 370.42856 
L 282.266989 361.181112 
L 294.103352 337.437664 
L 305.939716 348.809526 
L 317.77608 344.560698 
L 329.612443 318.068009 
L 341.448807 320.567319 
L 353.28517 301.197664 
L 365.121534 307.945802 
L 376.957898 308.82056 
L 388.794261 299.07325 
L 400.630625 278.328974 
L 412.466989 270.331181 
L 424.303352 256.085112 
L 436.139716 246.462767 
L 447.97608 250.83656 
L 459.812443 251.461388 
L 471.648807 252.336147 
L 483.48517 211.472422 
L 495.321534 200.225526 
L 507.157898 170.858629 
L 518.994261 144.865802 
L 530.830625 172.983043 
" style="fill:none;stroke:#1764ab;stroke-linecap:square;stroke-width:1.5;"/>
   </g>
   <g id="line2d_48">
    <path clip-path="url(#pd1550c12a9)" d="M 140.230625 433.16125 
L 152.066989 427.787733 
L 163.903352 416.16594 
L 175.739716 408.668009 
L 187.57608 411.917112 
L 199.412443 402.044836 
L 211.248807 394.921802 
L 223.08517 397.796009 
L 234.921534 390.423043 
L 246.757898 391.172836 
L 258.594261 381.175595 
L 270.430625 363.555457 
L 282.266989 359.806491 
L 294.103352 351.683733 
L 305.939716 338.687319 
L 317.77608 328.815043 
L 329.612443 303.946905 
L 341.448807 320.067457 
L 353.28517 302.947181 
L 365.121534 306.071319 
L 376.957898 308.695595 
L 388.794261 305.321526 
L 400.630625 304.571733 
L 412.466989 279.703595 
L 424.303352 252.586078 
L 436.139716 249.46194 
L 447.97608 227.343043 
L 459.812443 243.463595 
L 471.648807 213.846767 
L 483.48517 218.970353 
L 495.321534 175.357388 
L 507.157898 165.360147 
L 518.994261 148.864698 
L 530.830625 182.105526 
" style="fill:none;stroke:#1764ab;stroke-linecap:square;stroke-width:1.5;"/>
   </g>
   <g id="line2d_49">
    <path clip-path="url(#pd1550c12a9)" d="M 140.230625 433.036284 
L 152.066989 427.787733 
L 163.903352 411.917112 
L 175.739716 413.666629 
L 187.57608 417.915457 
L 199.412443 415.791043 
L 211.248807 411.042353 
L 223.08517 407.418353 
L 234.921534 389.423319 
L 246.757898 383.799871 
L 258.594261 371.303319 
L 270.430625 369.178905 
L 282.266989 367.179457 
L 294.103352 346.935043 
L 305.939716 334.938353 
L 317.77608 324.191319 
L 329.612443 316.443457 
L 341.448807 298.198491 
L 353.28517 304.696698 
L 365.121534 286.326767 
L 376.957898 281.453112 
L 388.794261 282.07794 
L 400.630625 274.330078 
L 412.466989 275.204836 
L 424.303352 282.452836 
L 436.139716 269.456422 
L 447.97608 267.831871 
L 459.812443 236.965388 
L 471.648807 244.588284 
L 483.48517 231.966767 
L 495.321534 187.104147 
L 507.157898 157.862216 
L 518.994261 125.371181 
L 530.830625 167.359595 
" style="fill:none;stroke:#1764ab;stroke-linecap:square;stroke-width:1.5;"/>
   </g>
   <g id="line2d_50">
    <path clip-path="url(#pd1550c12a9)" d="M 140.230625 433.16125 
L 152.066989 432.661388 
L 163.903352 431.661664 
L 175.739716 423.663871 
L 187.57608 411.042353 
L 199.412443 404.044284 
L 211.248807 395.171733 
L 223.08517 383.799871 
L 234.921534 381.925388 
L 246.757898 352.058629 
L 258.594261 340.436836 
L 270.430625 345.310491 
L 282.266989 326.565664 
L 294.103352 332.688974 
L 305.939716 327.565388 
L 317.77608 320.567319 
L 329.612443 320.442353 
L 341.448807 302.197388 
L 353.28517 312.819457 
L 365.121534 301.322629 
L 376.957898 290.075733 
L 388.794261 270.831043 
L 400.630625 276.454491 
L 412.466989 255.710216 
L 424.303352 239.589664 
L 436.139716 239.589664 
L 447.97608 227.218078 
L 459.812443 226.218353 
L 471.648807 230.092284 
L 483.48517 230.092284 
L 495.321534 191.352974 
L 507.157898 175.107457 
L 518.994261 154.11325 
L 530.830625 189.853388 
" style="fill:none;stroke:#1764ab;stroke-linecap:square;stroke-width:1.5;"/>
   </g>
   <g id="line2d_51">
    <path clip-path="url(#pd1550c12a9)" d="M 140.230625 432.536422 
L 152.066989 430.66194 
L 163.903352 421.789388 
L 175.739716 411.167319 
L 187.57608 405.918767 
L 199.412443 398.295871 
L 211.248807 382.800147 
L 223.08517 369.553802 
L 234.921534 373.052836 
L 246.757898 360.306353 
L 258.594261 350.059181 
L 270.430625 348.559595 
L 282.266989 350.184147 
L 294.103352 348.184698 
L 305.939716 349.80925 
L 317.77608 329.564836 
L 329.612443 324.066353 
L 341.448807 316.193526 
L 353.28517 305.696422 
L 365.121534 291.700284 
L 376.957898 306.696147 
L 388.794261 281.828009 
L 400.630625 309.445388 
L 412.466989 273.455319 
L 424.303352 248.462216 
L 436.139716 265.207595 
L 447.97608 246.087871 
L 459.812443 243.338629 
L 471.648807 234.216147 
L 483.48517 226.843181 
L 495.321534 203.599595 
L 507.157898 153.238491 
L 518.994261 152.738629 
L 530.830625 207.34856 
" style="fill:none;stroke:#1764ab;stroke-linecap:square;stroke-width:1.5;"/>
   </g>
   <g id="line2d_52">
    <path clip-path="url(#pd1550c12a9)" d="M 140.230625 432.161526 
L 152.066989 429.662216 
L 163.903352 425.163457 
L 175.739716 423.288974 
L 187.57608 415.416147 
L 199.412443 403.169526 
L 211.248807 397.796009 
L 223.08517 387.17394 
L 234.921534 381.925388 
L 246.757898 378.051457 
L 258.594261 356.307457 
L 270.430625 352.433526 
L 282.266989 343.560974 
L 294.103352 335.688147 
L 305.939716 324.566216 
L 317.77608 331.189388 
L 329.612443 321.442078 
L 341.448807 303.696974 
L 353.28517 296.448974 
L 365.121534 289.950767 
L 376.957898 301.947457 
L 388.794261 289.575871 
L 400.630625 292.824974 
L 412.466989 285.202078 
L 424.303352 251.336422 
L 436.139716 258.08456 
L 447.97608 251.336422 
L 459.812443 231.716836 
L 471.648807 210.847595 
L 483.48517 215.846216 
L 495.321534 209.223043 
L 507.157898 177.731733 
L 518.994261 166.984698 
L 530.830625 202.100009 
" style="fill:none;stroke:#1764ab;stroke-linecap:square;stroke-width:1.5;"/>
   </g>
   <g id="line2d_53">
    <path clip-path="url(#pd1550c12a9)" d="M 140.230625 433.16125 
L 152.066989 431.286767 
L 163.903352 424.538629 
L 175.739716 420.914629 
L 187.57608 409.167871 
L 199.412443 405.543871 
L 211.248807 388.423595 
L 223.08517 379.92594 
L 234.921534 376.801802 
L 246.757898 371.053388 
L 258.594261 365.929802 
L 270.430625 364.30525 
L 282.266989 349.684284 
L 294.103352 334.813388 
L 305.939716 329.064974 
L 317.77608 336.812836 
L 329.612443 324.44125 
L 341.448807 315.318767 
L 353.28517 315.693664 
L 365.121534 308.070767 
L 376.957898 299.323181 
L 388.794261 281.203181 
L 400.630625 271.705802 
L 412.466989 256.210078 
L 424.303352 268.081802 
L 436.139716 231.216974 
L 447.97608 228.967595 
L 459.812443 218.845388 
L 471.648807 231.591871 
L 483.48517 202.224974 
L 495.321534 179.231319 
L 507.157898 149.864422 
L 518.994261 162.48594 
L 530.830625 177.356836 
" style="fill:none;stroke:#1764ab;stroke-linecap:square;stroke-width:1.5;"/>
   </g>
   <g id="line2d_54">
    <path clip-path="url(#pd1550c12a9)" d="M 140.230625 432.161526 
L 152.066989 431.661664 
L 163.903352 424.413664 
L 175.739716 424.413664 
L 187.57608 418.415319 
L 199.412443 416.665802 
L 211.248807 416.040974 
L 223.08517 411.167319 
L 234.921534 408.792974 
L 246.757898 399.920422 
L 258.594261 400.795181 
L 270.430625 402.544698 
L 282.266989 395.296698 
L 294.103352 387.548836 
L 305.939716 388.798491 
L 317.77608 376.30194 
L 329.612443 377.801526 
L 341.448807 356.057526 
L 353.28517 344.310767 
L 365.121534 349.80925 
L 376.957898 350.808974 
L 388.794261 350.309112 
L 400.630625 338.93725 
L 412.466989 345.935319 
L 424.303352 336.43794 
L 436.139716 346.560147 
L 447.97608 345.435457 
L 459.812443 327.315457 
L 471.648807 312.569526 
L 483.48517 318.942767 
L 495.321534 291.325388 
L 507.157898 286.576698 
L 518.994261 307.695871 
L 530.830625 341.936422 
" style="fill:none;stroke:#94c4df;stroke-linecap:square;stroke-width:1.5;"/>
   </g>
   <g id="line2d_55">
    <path clip-path="url(#pd1550c12a9)" d="M 140.230625 433.16125 
L 152.066989 431.286767 
L 163.903352 424.78856 
L 175.739716 425.663319 
L 187.57608 422.039319 
L 199.412443 418.915181 
L 211.248807 414.041526 
L 223.08517 404.544147 
L 234.921534 404.919043 
L 246.757898 404.919043 
L 258.594261 399.670491 
L 270.430625 390.298078 
L 282.266989 384.674629 
L 294.103352 385.924284 
L 305.939716 385.674353 
L 317.77608 379.426078 
L 329.612443 375.677112 
L 341.448807 369.178905 
L 353.28517 363.055595 
L 365.121534 366.929526 
L 376.957898 366.679595 
L 388.794261 365.42994 
L 400.630625 361.556009 
L 412.466989 349.559319 
L 424.303352 352.183595 
L 436.139716 333.688698 
L 447.97608 340.186905 
L 459.812443 335.438216 
L 471.648807 326.440698 
L 483.48517 337.562629 
L 495.321534 313.944147 
L 507.157898 309.070491 
L 518.994261 322.191871 
L 530.830625 350.808974 
" style="fill:none;stroke:#94c4df;stroke-linecap:square;stroke-width:1.5;"/>
   </g>
   <g id="line2d_56">
    <path clip-path="url(#pd1550c12a9)" d="M 140.230625 433.036284 
L 152.066989 429.912147 
L 163.903352 428.912422 
L 175.739716 425.163457 
L 187.57608 423.164009 
L 199.412443 420.039871 
L 211.248807 411.667181 
L 223.08517 407.79325 
L 234.921534 398.420836 
L 246.757898 393.922078 
L 258.594261 389.548284 
L 270.430625 384.299733 
L 282.266989 377.051733 
L 294.103352 374.427457 
L 305.939716 366.429664 
L 317.77608 375.927043 
L 329.612443 363.805388 
L 341.448807 356.807319 
L 353.28517 354.183043 
L 365.121534 353.808147 
L 376.957898 354.432974 
L 388.794261 361.431043 
L 400.630625 347.060009 
L 412.466989 345.685388 
L 424.303352 336.063043 
L 436.139716 337.437664 
L 447.97608 335.188284 
L 459.812443 337.062767 
L 471.648807 319.442629 
L 483.48517 313.944147 
L 495.321534 300.19794 
L 507.157898 279.328698 
L 518.994261 290.075733 
L 530.830625 344.185802 
" style="fill:none;stroke:#94c4df;stroke-linecap:square;stroke-width:1.5;"/>
   </g>
   <g id="line2d_57">
    <path clip-path="url(#pd1550c12a9)" d="M 140.230625 433.16125 
L 152.066989 430.162078 
L 163.903352 428.41256 
L 175.739716 425.663319 
L 187.57608 420.539733 
L 199.412443 413.166767 
L 211.248807 410.917388 
L 223.08517 401.544974 
L 234.921534 406.543595 
L 246.757898 407.668284 
L 258.594261 404.419181 
L 270.430625 397.046216 
L 282.266989 386.799043 
L 294.103352 378.551319 
L 305.939716 384.424698 
L 317.77608 377.551595 
L 329.612443 368.304147 
L 341.448807 366.054767 
L 353.28517 370.178629 
L 365.121534 375.17725 
L 376.957898 368.304147 
L 388.794261 369.678767 
L 400.630625 362.930629 
L 412.466989 343.436009 
L 424.303352 336.937802 
L 436.139716 340.06194 
L 447.97608 335.813112 
L 459.812443 335.438216 
L 471.648807 322.316836 
L 483.48517 305.821388 
L 495.321534 301.322629 
L 507.157898 285.576974 
L 518.994261 295.699181 
L 530.830625 336.687871 
" style="fill:none;stroke:#94c4df;stroke-linecap:square;stroke-width:1.5;"/>
   </g>
   <g id="line2d_58">
    <path clip-path="url(#pd1550c12a9)" d="M 140.230625 433.16125 
L 152.066989 430.911871 
L 163.903352 422.28925 
L 175.739716 420.039871 
L 187.57608 420.914629 
L 199.412443 414.541388 
L 211.248807 417.165664 
L 223.08517 416.415871 
L 234.921534 409.417802 
L 246.757898 404.419181 
L 258.594261 396.046491 
L 270.430625 392.547457 
L 282.266989 390.922905 
L 294.103352 376.052009 
L 305.939716 384.299733 
L 317.77608 369.303871 
L 329.612443 360.306353 
L 341.448807 363.430491 
L 353.28517 369.803733 
L 365.121534 363.305526 
L 376.957898 364.055319 
L 388.794261 365.304974 
L 400.630625 357.432147 
L 412.466989 350.684009 
L 424.303352 331.314353 
L 436.139716 331.814216 
L 447.97608 324.691181 
L 459.812443 331.564284 
L 471.648807 316.943319 
L 483.48517 320.942216 
L 495.321534 294.199595 
L 507.157898 292.94994 
L 518.994261 295.44925 
L 530.830625 347.060009 
" style="fill:none;stroke:#94c4df;stroke-linecap:square;stroke-width:1.5;"/>
   </g>
   <g id="line2d_59">
    <path clip-path="url(#pd1550c12a9)" d="M 140.230625 433.16125 
L 152.066989 432.536422 
L 163.903352 425.788284 
L 175.739716 424.78856 
L 187.57608 427.412836 
L 199.412443 426.788009 
L 211.248807 422.28925 
L 223.08517 415.416147 
L 234.921534 413.041802 
L 246.757898 411.792147 
L 258.594261 405.044009 
L 270.430625 400.920147 
L 282.266989 393.547181 
L 294.103352 388.923457 
L 305.939716 390.79794 
L 317.77608 376.052009 
L 329.612443 364.30525 
L 341.448807 354.308009 
L 353.28517 359.056698 
L 365.121534 355.182767 
L 376.957898 351.808698 
L 388.794261 350.184147 
L 400.630625 345.435457 
L 412.466989 343.436009 
L 424.303352 331.064422 
L 436.139716 330.939457 
L 447.97608 328.940009 
L 459.812443 321.067181 
L 471.648807 324.44125 
L 483.48517 321.94194 
L 495.321534 305.071595 
L 507.157898 287.326491 
L 518.994261 290.450629 
L 530.830625 327.565388 
" style="fill:none;stroke:#94c4df;stroke-linecap:square;stroke-width:1.5;"/>
   </g>
   <g id="line2d_60">
    <path clip-path="url(#pd1550c12a9)" d="M 140.230625 433.16125 
L 152.066989 432.161526 
L 163.903352 429.912147 
L 175.739716 427.537802 
L 187.57608 421.539457 
L 199.412443 415.791043 
L 211.248807 407.043457 
L 223.08517 401.919871 
L 234.921534 405.793802 
L 246.757898 384.674629 
L 258.594261 384.174767 
L 270.430625 377.301664 
L 282.266989 387.048974 
L 294.103352 383.300009 
L 305.939716 374.677388 
L 317.77608 381.175595 
L 329.612443 372.67794 
L 341.448807 372.053112 
L 353.28517 365.804836 
L 365.121534 357.682078 
L 376.957898 357.182216 
L 388.794261 352.683457 
L 400.630625 347.684836 
L 412.466989 340.186905 
L 424.303352 335.188284 
L 436.139716 336.43794 
L 447.97608 335.813112 
L 459.812443 331.314353 
L 471.648807 323.816422 
L 483.48517 338.312422 
L 495.321534 332.189112 
L 507.157898 325.440974 
L 518.994261 317.568147 
L 530.830625 342.56125 
" style="fill:none;stroke:#94c4df;stroke-linecap:square;stroke-width:1.5;"/>
   </g>
   <g id="line2d_61">
    <path clip-path="url(#pd1550c12a9)" d="M 140.230625 433.036284 
L 152.066989 431.536698 
L 163.903352 428.037664 
L 175.739716 423.164009 
L 187.57608 416.415871 
L 199.412443 414.666353 
L 211.248807 410.167595 
L 223.08517 402.669664 
L 234.921534 395.046767 
L 246.757898 391.547733 
L 258.594261 391.297802 
L 270.430625 390.173112 
L 282.266989 391.922629 
L 294.103352 386.924009 
L 305.939716 381.925388 
L 317.77608 375.17725 
L 329.612443 369.178905 
L 341.448807 364.30525 
L 353.28517 365.180009 
L 365.121534 358.431871 
L 376.957898 358.931733 
L 388.794261 347.809802 
L 400.630625 340.936698 
L 412.466989 325.56594 
L 424.303352 340.311871 
L 436.139716 342.061388 
L 447.97608 331.189388 
L 459.812443 323.941388 
L 471.648807 307.945802 
L 483.48517 308.445664 
L 495.321534 289.076009 
L 507.157898 293.699733 
L 518.994261 311.569802 
L 530.830625 368.054216 
" style="fill:none;stroke:#94c4df;stroke-linecap:square;stroke-width:1.5;"/>
   </g>
   <g id="line2d_62">
    <path clip-path="url(#pd1550c12a9)" d="M 140.230625 432.03656 
L 152.066989 425.91325 
L 163.903352 424.663595 
L 175.739716 425.91325 
L 187.57608 422.414216 
L 199.412443 419.165112 
L 211.248807 420.039871 
L 223.08517 410.042629 
L 234.921534 408.168147 
L 246.757898 399.170629 
L 258.594261 390.79794 
L 270.430625 391.047871 
L 282.266989 379.676009 
L 294.103352 376.676836 
L 305.939716 372.178078 
L 317.77608 373.677664 
L 329.612443 366.054767 
L 341.448807 372.303043 
L 353.28517 364.680147 
L 365.121534 350.434078 
L 376.957898 366.179733 
L 388.794261 363.055595 
L 400.630625 374.05256 
L 412.466989 358.431871 
L 424.303352 356.932284 
L 436.139716 342.311319 
L 447.97608 345.810353 
L 459.812443 344.060836 
L 471.648807 340.311871 
L 483.48517 327.690353 
L 495.321534 304.196836 
L 507.157898 296.57394 
L 518.994261 307.570905 
L 530.830625 357.182216 
" style="fill:none;stroke:#94c4df;stroke-linecap:square;stroke-width:1.5;"/>
   </g>
   <g id="line2d_63">
    <path clip-path="url(#pd1550c12a9)" d="M 140.230625 433.16125 
L 152.066989 432.161526 
L 163.903352 428.287595 
L 175.739716 427.912698 
L 187.57608 419.290078 
L 199.412443 420.414767 
L 211.248807 414.291457 
L 223.08517 400.54525 
L 234.921534 399.545526 
L 246.757898 393.047319 
L 258.594261 383.424974 
L 270.430625 394.921802 
L 282.266989 384.674629 
L 294.103352 378.80125 
L 305.939716 378.301388 
L 317.77608 378.426353 
L 329.612443 374.552422 
L 341.448807 374.05256 
L 353.28517 372.927871 
L 365.121534 364.680147 
L 376.957898 359.306629 
L 388.794261 362.055871 
L 400.630625 351.933664 
L 412.466989 345.685388 
L 424.303352 343.68594 
L 436.139716 348.559595 
L 447.97608 325.815871 
L 459.812443 317.19325 
L 471.648807 309.195457 
L 483.48517 289.32594 
L 495.321534 274.954905 
L 507.157898 268.706629 
L 518.994261 280.95325 
L 530.830625 309.94525 
" style="fill:none;stroke:#94c4df;stroke-linecap:square;stroke-width:1.5;"/>
   </g>
   <g id="line2d_64">
    <path clip-path="url(#pd1550c12a9)" d="M 140.230625 433.16125 
L 152.066989 433.16125 
L 163.903352 433.16125 
L 175.739716 433.16125 
L 187.57608 433.16125 
L 199.412443 433.16125 
L 211.248807 433.16125 
L 223.08517 433.16125 
L 234.921534 433.16125 
L 246.757898 433.16125 
L 258.594261 433.16125 
L 270.430625 433.16125 
L 282.266989 433.16125 
L 294.103352 433.16125 
L 305.939716 433.16125 
L 317.77608 433.16125 
L 329.612443 433.16125 
L 341.448807 433.16125 
L 353.28517 433.16125 
L 365.121534 433.16125 
L 376.957898 433.16125 
L 388.794261 433.16125 
L 400.630625 433.16125 
L 412.466989 433.16125 
L 424.303352 433.16125 
L 436.139716 433.16125 
L 447.97608 433.16125 
L 459.812443 433.16125 
L 471.648807 433.16125 
L 483.48517 433.16125 
L 495.321534 433.16125 
L 507.157898 433.16125 
L 518.994261 433.16125 
L 530.830625 433.16125 
" style="fill:none;stroke:#000000;stroke-linecap:square;stroke-width:1.5;"/>
   </g>
   <g id="line2d_65">
    <path clip-path="url(#pd1550c12a9)" d="M 140.230625 433.16125 
L 152.066989 433.16125 
L 163.903352 433.16125 
L 175.739716 433.16125 
L 187.57608 433.16125 
L 199.412443 433.16125 
L 211.248807 433.16125 
L 223.08517 433.16125 
L 234.921534 433.16125 
L 246.757898 433.16125 
L 258.594261 433.16125 
L 270.430625 433.16125 
L 282.266989 433.16125 
L 294.103352 433.16125 
L 305.939716 433.16125 
L 317.77608 433.16125 
L 329.612443 433.16125 
L 341.448807 433.16125 
L 353.28517 433.16125 
L 365.121534 433.16125 
L 376.957898 433.16125 
L 388.794261 433.16125 
L 400.630625 433.16125 
L 412.466989 433.16125 
L 424.303352 433.16125 
L 436.139716 433.16125 
L 447.97608 433.16125 
L 459.812443 433.16125 
L 471.648807 433.16125 
L 483.48517 433.16125 
L 495.321534 433.16125 
L 507.157898 433.16125 
L 518.994261 433.16125 
L 530.830625 433.16125 
" style="fill:none;stroke:#000000;stroke-linecap:square;stroke-width:1.5;"/>
   </g>
   <g id="line2d_66">
    <path clip-path="url(#pd1550c12a9)" d="M 140.230625 433.16125 
L 152.066989 433.16125 
L 163.903352 433.16125 
L 175.739716 433.16125 
L 187.57608 433.16125 
L 199.412443 433.16125 
L 211.248807 433.16125 
L 223.08517 433.16125 
L 234.921534 433.16125 
L 246.757898 433.16125 
L 258.594261 433.16125 
L 270.430625 433.16125 
L 282.266989 433.16125 
L 294.103352 433.16125 
L 305.939716 433.16125 
L 317.77608 433.16125 
L 329.612443 433.16125 
L 341.448807 433.16125 
L 353.28517 433.16125 
L 365.121534 433.16125 
L 376.957898 433.16125 
L 388.794261 433.16125 
L 400.630625 433.16125 
L 412.466989 433.16125 
L 424.303352 433.16125 
L 436.139716 433.16125 
L 447.97608 433.16125 
L 459.812443 433.16125 
L 471.648807 433.16125 
L 483.48517 433.16125 
L 495.321534 433.16125 
L 507.157898 433.16125 
L 518.994261 433.16125 
L 530.830625 433.16125 
" style="fill:none;stroke:#000000;stroke-linecap:square;stroke-width:1.5;"/>
   </g>
   <g id="line2d_67">
    <path clip-path="url(#pd1550c12a9)" d="M 140.230625 433.16125 
L 152.066989 433.16125 
L 163.903352 433.16125 
L 175.739716 433.16125 
L 187.57608 433.16125 
L 199.412443 433.16125 
L 211.248807 433.16125 
L 223.08517 433.16125 
L 234.921534 433.16125 
L 246.757898 433.16125 
L 258.594261 433.16125 
L 270.430625 433.16125 
L 282.266989 433.16125 
L 294.103352 433.16125 
L 305.939716 433.16125 
L 317.77608 433.16125 
L 329.612443 433.16125 
L 341.448807 433.16125 
L 353.28517 433.16125 
L 365.121534 433.16125 
L 376.957898 433.16125 
L 388.794261 433.16125 
L 400.630625 433.16125 
L 412.466989 433.16125 
L 424.303352 433.16125 
L 436.139716 433.16125 
L 447.97608 433.16125 
L 459.812443 433.16125 
L 471.648807 433.16125 
L 483.48517 433.16125 
L 495.321534 433.16125 
L 507.157898 433.16125 
L 518.994261 433.16125 
L 530.830625 433.16125 
" style="fill:none;stroke:#000000;stroke-linecap:square;stroke-width:1.5;"/>
   </g>
   <g id="line2d_68">
    <path clip-path="url(#pd1550c12a9)" d="M 140.230625 433.16125 
L 152.066989 433.16125 
L 163.903352 433.16125 
L 175.739716 433.16125 
L 187.57608 433.16125 
L 199.412443 433.16125 
L 211.248807 433.16125 
L 223.08517 433.16125 
L 234.921534 433.16125 
L 246.757898 433.16125 
L 258.594261 433.16125 
L 270.430625 433.16125 
L 282.266989 433.16125 
L 294.103352 433.16125 
L 305.939716 433.16125 
L 317.77608 433.16125 
L 329.612443 433.16125 
L 341.448807 433.16125 
L 353.28517 433.16125 
L 365.121534 433.16125 
L 376.957898 433.16125 
L 388.794261 433.16125 
L 400.630625 433.16125 
L 412.466989 433.16125 
L 424.303352 433.16125 
L 436.139716 433.16125 
L 447.97608 433.16125 
L 459.812443 433.16125 
L 471.648807 433.16125 
L 483.48517 433.16125 
L 495.321534 433.16125 
L 507.157898 433.16125 
L 518.994261 433.16125 
L 530.830625 433.16125 
" style="fill:none;stroke:#000000;stroke-linecap:square;stroke-width:1.5;"/>
   </g>
   <g id="line2d_69">
    <path clip-path="url(#pd1550c12a9)" d="M 140.230625 433.16125 
L 152.066989 433.16125 
L 163.903352 433.16125 
L 175.739716 433.16125 
L 187.57608 433.16125 
L 199.412443 433.16125 
L 211.248807 433.16125 
L 223.08517 433.16125 
L 234.921534 433.16125 
L 246.757898 433.16125 
L 258.594261 433.16125 
L 270.430625 433.16125 
L 282.266989 433.16125 
L 294.103352 433.16125 
L 305.939716 433.16125 
L 317.77608 433.16125 
L 329.612443 433.16125 
L 341.448807 433.16125 
L 353.28517 433.16125 
L 365.121534 433.16125 
L 376.957898 433.16125 
L 388.794261 433.16125 
L 400.630625 433.16125 
L 412.466989 433.16125 
L 424.303352 433.16125 
L 436.139716 433.16125 
L 447.97608 433.16125 
L 459.812443 433.16125 
L 471.648807 433.16125 
L 483.48517 433.16125 
L 495.321534 433.16125 
L 507.157898 433.16125 
L 518.994261 433.16125 
L 530.830625 433.16125 
" style="fill:none;stroke:#000000;stroke-linecap:square;stroke-width:1.5;"/>
   </g>
   <g id="line2d_70">
    <path clip-path="url(#pd1550c12a9)" d="M 140.230625 433.16125 
L 152.066989 433.16125 
L 163.903352 433.16125 
L 175.739716 433.16125 
L 187.57608 433.16125 
L 199.412443 433.16125 
L 211.248807 433.16125 
L 223.08517 433.16125 
L 234.921534 433.16125 
L 246.757898 433.16125 
L 258.594261 433.16125 
L 270.430625 433.16125 
L 282.266989 433.16125 
L 294.103352 433.16125 
L 305.939716 433.16125 
L 317.77608 433.16125 
L 329.612443 433.16125 
L 341.448807 433.16125 
L 353.28517 433.16125 
L 365.121534 433.16125 
L 376.957898 433.16125 
L 388.794261 433.16125 
L 400.630625 433.16125 
L 412.466989 433.16125 
L 424.303352 433.16125 
L 436.139716 433.16125 
L 447.97608 433.16125 
L 459.812443 433.16125 
L 471.648807 433.16125 
L 483.48517 433.16125 
L 495.321534 433.16125 
L 507.157898 433.16125 
L 518.994261 433.16125 
L 530.830625 433.16125 
" style="fill:none;stroke:#000000;stroke-linecap:square;stroke-width:1.5;"/>
   </g>
   <g id="line2d_71">
    <path clip-path="url(#pd1550c12a9)" d="M 140.230625 433.16125 
L 152.066989 433.16125 
L 163.903352 433.16125 
L 175.739716 433.16125 
L 187.57608 433.16125 
L 199.412443 433.16125 
L 211.248807 433.16125 
L 223.08517 433.16125 
L 234.921534 433.16125 
L 246.757898 433.16125 
L 258.594261 433.16125 
L 270.430625 433.16125 
L 282.266989 433.16125 
L 294.103352 433.16125 
L 305.939716 433.16125 
L 317.77608 433.16125 
L 329.612443 433.16125 
L 341.448807 433.16125 
L 353.28517 433.16125 
L 365.121534 433.16125 
L 376.957898 433.16125 
L 388.794261 433.16125 
L 400.630625 433.16125 
L 412.466989 433.16125 
L 424.303352 433.16125 
L 436.139716 433.16125 
L 447.97608 433.16125 
L 459.812443 433.16125 
L 471.648807 433.16125 
L 483.48517 433.16125 
L 495.321534 433.16125 
L 507.157898 433.16125 
L 518.994261 433.16125 
L 530.830625 433.16125 
" style="fill:none;stroke:#000000;stroke-linecap:square;stroke-width:1.5;"/>
   </g>
   <g id="line2d_72">
    <path clip-path="url(#pd1550c12a9)" d="M 140.230625 433.16125 
L 152.066989 433.16125 
L 163.903352 433.16125 
L 175.739716 433.16125 
L 187.57608 433.16125 
L 199.412443 433.16125 
L 211.248807 433.16125 
L 223.08517 433.16125 
L 234.921534 433.16125 
L 246.757898 433.16125 
L 258.594261 433.16125 
L 270.430625 433.16125 
L 282.266989 433.16125 
L 294.103352 433.16125 
L 305.939716 433.16125 
L 317.77608 433.16125 
L 329.612443 433.16125 
L 341.448807 433.16125 
L 353.28517 433.16125 
L 365.121534 433.16125 
L 376.957898 433.16125 
L 388.794261 433.16125 
L 400.630625 433.16125 
L 412.466989 433.16125 
L 424.303352 433.16125 
L 436.139716 433.16125 
L 447.97608 433.16125 
L 459.812443 433.16125 
L 471.648807 433.16125 
L 483.48517 433.16125 
L 495.321534 433.16125 
L 507.157898 433.16125 
L 518.994261 433.16125 
L 530.830625 433.16125 
" style="fill:none;stroke:#000000;stroke-linecap:square;stroke-width:1.5;"/>
   </g>
   <g id="line2d_73">
    <path clip-path="url(#pd1550c12a9)" d="M 140.230625 433.16125 
L 152.066989 433.16125 
L 163.903352 433.16125 
L 175.739716 433.16125 
L 187.57608 433.16125 
L 199.412443 433.16125 
L 211.248807 433.16125 
L 223.08517 433.16125 
L 234.921534 433.16125 
L 246.757898 433.16125 
L 258.594261 433.16125 
L 270.430625 433.16125 
L 282.266989 433.16125 
L 294.103352 433.16125 
L 305.939716 433.16125 
L 317.77608 433.16125 
L 329.612443 433.16125 
L 341.448807 433.16125 
L 353.28517 433.16125 
L 365.121534 433.16125 
L 376.957898 433.16125 
L 388.794261 433.16125 
L 400.630625 433.16125 
L 412.466989 433.16125 
L 424.303352 433.16125 
L 436.139716 433.16125 
L 447.97608 433.16125 
L 459.812443 433.16125 
L 471.648807 433.16125 
L 483.48517 433.16125 
L 495.321534 433.16125 
L 507.157898 433.16125 
L 518.994261 433.16125 
L 530.830625 433.16125 
" style="fill:none;stroke:#000000;stroke-linecap:square;stroke-width:1.5;"/>
   </g>
   <g id="line2d_74">
    <path clip-path="url(#pd1550c12a9)" d="M 128.394261 433.16125 
" style="fill:none;stroke:#000000;stroke-linecap:square;stroke-width:1.5;"/>
   </g>
   <g id="line2d_75">
    <path clip-path="url(#pd1550c12a9)" d="M 128.394261 433.16125 
" style="fill:none;stroke:#d0e1f2;stroke-linecap:square;stroke-width:1.5;"/>
   </g>
   <g id="line2d_76">
    <path clip-path="url(#pd1550c12a9)" d="M 128.394261 433.16125 
" style="fill:none;stroke:#94c4df;stroke-linecap:square;stroke-width:1.5;"/>
   </g>
   <g id="line2d_77">
    <path clip-path="url(#pd1550c12a9)" d="M 128.394261 433.16125 
" style="fill:none;stroke:#4a98c9;stroke-linecap:square;stroke-width:1.5;"/>
   </g>
   <g id="line2d_78">
    <path clip-path="url(#pd1550c12a9)" d="M 128.394261 433.16125 
" style="fill:none;stroke:#1764ab;stroke-linecap:square;stroke-width:1.5;"/>
   </g>
   <g id="line2d_79">
    <path clip-path="url(#pd1550c12a9)" d="M 128.394261 433.16125 
" style="fill:none;stroke:#08306b;stroke-linecap:square;stroke-width:1.5;"/>
   </g>
   <g id="line2d_80">
    <path clip-path="url(#pd1550c12a9)" d="M 128.394261 433.16125 
" style="fill:none;stroke:#000000;stroke-linecap:square;stroke-width:1.5;"/>
   </g>
   <g id="line2d_81">
    <path clip-path="url(#pd1550c12a9)" d="M 128.394261 433.16125 
" style="fill:none;stroke:#000000;stroke-dasharray:1.5,2.475;stroke-dashoffset:0;stroke-width:1.5;"/>
   </g>
   <g id="line2d_82">
    <path clip-path="url(#pd1550c12a9)" d="M 128.394261 433.16125 
" style="fill:none;stroke:#000000;stroke-linecap:square;stroke-width:1.5;"/>
   </g>
   <g id="line2d_83">
    <path clip-path="url(#pd1550c12a9)" d="M 128.394261 433.16125 
" style="fill:none;stroke:#000000;stroke-dasharray:5.55,2.4;stroke-dashoffset:0;stroke-width:1.5;"/>
   </g>
   <g id="line2d_84">
    <path clip-path="url(#pd1550c12a9)" d="M 128.394261 433.16125 
" style="fill:none;stroke:#000000;stroke-dasharray:9.6,2.4,1.5,2.4;stroke-dashoffset:0;stroke-width:1.5;"/>
   </g>
   <g id="line2d_85">
    <path clip-path="url(#pd1550c12a9)" d="M 128.394261 433.16125 
" style="fill:none;stroke:#000000;stroke-dasharray:9.6,2.4,1.5,2.4;stroke-dashoffset:0;stroke-width:1.5;"/>
   </g>
   <g id="patch_3">
    <path d="M 140.230625 433.16125 
L 140.230625 52.64125 
" style="fill:none;stroke:#000000;stroke-linecap:square;stroke-linejoin:miter;stroke-width:0.8;"/>
   </g>
   <g id="patch_4">
    <path d="M 530.830625 433.16125 
L 530.830625 52.64125 
" style="fill:none;stroke:#000000;stroke-linecap:square;stroke-linejoin:miter;stroke-width:0.8;"/>
   </g>
   <g id="patch_5">
    <path d="M 140.230625 433.16125 
L 530.830625 433.16125 
" style="fill:none;stroke:#000000;stroke-linecap:square;stroke-linejoin:miter;stroke-width:0.8;"/>
   </g>
   <g id="patch_6">
    <path d="M 140.230625 52.64125 
L 530.830625 52.64125 
" style="fill:none;stroke:#000000;stroke-linecap:square;stroke-linejoin:miter;stroke-width:0.8;"/>
   </g>
   <g id="text_16">
    <!-- T-CELL LIVE COUNT -->
    <g transform="translate(236.660312 21.515625)scale(0.2 -0.2)">
     <use xlink:href="#Arial-BoldMT-84"/>
     <use x="61.005859" xlink:href="#Arial-BoldMT-45"/>
     <use x="94.306641" xlink:href="#Arial-BoldMT-67"/>
     <use x="166.523438" xlink:href="#Arial-BoldMT-69"/>
     <use x="233.222656" xlink:href="#Arial-BoldMT-76"/>
     <use x="294.306641" xlink:href="#Arial-BoldMT-76"/>
     <use x="355.375" xlink:href="#Arial-BoldMT-32"/>
     <use x="383.158203" xlink:href="#Arial-BoldMT-76"/>
     <use x="444.242188" xlink:href="#Arial-BoldMT-73"/>
     <use x="472.025391" xlink:href="#Arial-BoldMT-86"/>
     <use x="538.724609" xlink:href="#Arial-BoldMT-69"/>
     <use x="605.423828" xlink:href="#Arial-BoldMT-32"/>
     <use x="633.207031" xlink:href="#Arial-BoldMT-67"/>
     <use x="705.423828" xlink:href="#Arial-BoldMT-79"/>
     <use x="783.207031" xlink:href="#Arial-BoldMT-85"/>
     <use x="855.423828" xlink:href="#Arial-BoldMT-78"/>
     <use x="927.640625" xlink:href="#Arial-BoldMT-84"/>
    </g>
    <!-- ACROSS RADIUS AT TIME 4 -->
    <defs>
     <path d="M 31.15625 0 
L 31.15625 14.40625 
L 1.859375 14.40625 
L 1.859375 26.421875 
L 32.90625 71.875 
L 44.4375 71.875 
L 44.4375 26.46875 
L 53.328125 26.46875 
L 53.328125 14.40625 
L 44.4375 14.40625 
L 44.4375 0 
z
M 31.15625 26.46875 
L 31.15625 50.921875 
L 14.703125 26.46875 
z
" id="Arial-BoldMT-52"/>
    </defs>
    <g transform="translate(200.536875 42.64125)scale(0.2 -0.2)">
     <use xlink:href="#Arial-BoldMT-65"/>
     <use x="72.216797" xlink:href="#Arial-BoldMT-67"/>
     <use x="144.433594" xlink:href="#Arial-BoldMT-82"/>
     <use x="216.650391" xlink:href="#Arial-BoldMT-79"/>
     <use x="294.433594" xlink:href="#Arial-BoldMT-83"/>
     <use x="361.132812" xlink:href="#Arial-BoldMT-83"/>
     <use x="427.832031" xlink:href="#Arial-BoldMT-32"/>
     <use x="455.615234" xlink:href="#Arial-BoldMT-82"/>
     <use x="527.832031" xlink:href="#Arial-BoldMT-65"/>
     <use x="600.048828" xlink:href="#Arial-BoldMT-68"/>
     <use x="672.265625" xlink:href="#Arial-BoldMT-73"/>
     <use x="700.048828" xlink:href="#Arial-BoldMT-85"/>
     <use x="772.265625" xlink:href="#Arial-BoldMT-83"/>
     <use x="838.964844" xlink:href="#Arial-BoldMT-32"/>
     <use x="866.701172" xlink:href="#Arial-BoldMT-65"/>
     <use x="938.808594" xlink:href="#Arial-BoldMT-84"/>
     <use x="999.892578" xlink:href="#Arial-BoldMT-32"/>
     <use x="1027.675781" xlink:href="#Arial-BoldMT-84"/>
     <use x="1088.759766" xlink:href="#Arial-BoldMT-73"/>
     <use x="1116.542969" xlink:href="#Arial-BoldMT-77"/>
     <use x="1199.84375" xlink:href="#Arial-BoldMT-69"/>
     <use x="1266.542969" xlink:href="#Arial-BoldMT-32"/>
     <use x="1294.326172" xlink:href="#Arial-BoldMT-52"/>
    </g>
   </g>
   <g id="legend_1">
    <g id="line2d_86">
     <path d="M 539.830625 65.739687 
L 559.830625 65.739687 
" style="fill:none;stroke:#000000;stroke-linecap:square;stroke-width:1.5;"/>
    </g>
    <g id="line2d_87"/>
    <g id="text_17">
     <!-- 0 -->
     <g transform="translate(567.830625 69.239687)scale(0.1 -0.1)">
      <use xlink:href="#DejaVuSans-48"/>
     </g>
    </g>
    <g id="line2d_88">
     <path d="M 539.830625 80.417812 
L 559.830625 80.417812 
" style="fill:none;stroke:#d0e1f2;stroke-linecap:square;stroke-width:1.5;"/>
    </g>
    <g id="line2d_89"/>
    <g id="text_18">
     <!-- 100 -->
     <g transform="translate(567.830625 83.917812)scale(0.1 -0.1)">
      <use xlink:href="#DejaVuSans-49"/>
      <use x="63.623047" xlink:href="#DejaVuSans-48"/>
      <use x="127.246094" xlink:href="#DejaVuSans-48"/>
     </g>
    </g>
    <g id="line2d_90">
     <path d="M 539.830625 95.095937 
L 559.830625 95.095937 
" style="fill:none;stroke:#94c4df;stroke-linecap:square;stroke-width:1.5;"/>
    </g>
    <g id="line2d_91"/>
    <g id="text_19">
     <!-- 500 -->
     <g transform="translate(567.830625 98.595937)scale(0.1 -0.1)">
      <use xlink:href="#DejaVuSans-53"/>
      <use x="63.623047" xlink:href="#DejaVuSans-48"/>
      <use x="127.246094" xlink:href="#DejaVuSans-48"/>
     </g>
    </g>
    <g id="line2d_92">
     <path d="M 539.830625 109.774062 
L 559.830625 109.774062 
" style="fill:none;stroke:#4a98c9;stroke-linecap:square;stroke-width:1.5;"/>
    </g>
    <g id="line2d_93"/>
    <g id="text_20">
     <!-- 1000 -->
     <g transform="translate(567.830625 113.274062)scale(0.1 -0.1)">
      <use xlink:href="#DejaVuSans-49"/>
      <use x="63.623047" xlink:href="#DejaVuSans-48"/>
      <use x="127.246094" xlink:href="#DejaVuSans-48"/>
      <use x="190.869141" xlink:href="#DejaVuSans-48"/>
     </g>
    </g>
    <g id="line2d_94">
     <path d="M 539.830625 124.452187 
L 559.830625 124.452187 
" style="fill:none;stroke:#1764ab;stroke-linecap:square;stroke-width:1.5;"/>
    </g>
    <g id="line2d_95"/>
    <g id="text_21">
     <!-- 5000 -->
     <g transform="translate(567.830625 127.952187)scale(0.1 -0.1)">
      <use xlink:href="#DejaVuSans-53"/>
      <use x="63.623047" xlink:href="#DejaVuSans-48"/>
      <use x="127.246094" xlink:href="#DejaVuSans-48"/>
      <use x="190.869141" xlink:href="#DejaVuSans-48"/>
     </g>
    </g>
    <g id="line2d_96">
     <path d="M 539.830625 139.130312 
L 559.830625 139.130312 
" style="fill:none;stroke:#08306b;stroke-linecap:square;stroke-width:1.5;"/>
    </g>
    <g id="line2d_97"/>
    <g id="text_22">
     <!-- 10000 -->
     <g transform="translate(567.830625 142.630312)scale(0.1 -0.1)">
      <use xlink:href="#DejaVuSans-49"/>
      <use x="63.623047" xlink:href="#DejaVuSans-48"/>
      <use x="127.246094" xlink:href="#DejaVuSans-48"/>
      <use x="190.869141" xlink:href="#DejaVuSans-48"/>
      <use x="254.492188" xlink:href="#DejaVuSans-48"/>
     </g>
    </g>
    <g id="line2d_98">
     <path d="M 539.830625 153.808437 
L 559.830625 153.808437 
" style="fill:none;stroke:#000000;stroke-linecap:square;stroke-width:1.5;"/>
    </g>
    <g id="line2d_99"/>
    <g id="text_23">
     <!-- 0 -->
     <g transform="translate(567.830625 157.308437)scale(0.1 -0.1)">
      <use xlink:href="#DejaVuSans-48"/>
     </g>
    </g>
    <g id="line2d_100">
     <path d="M 539.830625 168.486562 
L 559.830625 168.486562 
" style="fill:none;stroke:#000000;stroke-dasharray:1.5,2.475;stroke-dashoffset:0;stroke-width:1.5;"/>
    </g>
    <g id="line2d_101"/>
    <g id="text_24">
     <!-- 250 -->
     <g transform="translate(567.830625 171.986562)scale(0.1 -0.1)">
      <use xlink:href="#DejaVuSans-50"/>
      <use x="63.623047" xlink:href="#DejaVuSans-53"/>
      <use x="127.246094" xlink:href="#DejaVuSans-48"/>
     </g>
    </g>
    <g id="line2d_102">
     <path d="M 539.830625 183.164687 
L 559.830625 183.164687 
" style="fill:none;stroke:#000000;stroke-linecap:square;stroke-width:1.5;"/>
    </g>
    <g id="line2d_103"/>
    <g id="text_25">
     <!-- 500 -->
     <g transform="translate(567.830625 186.664687)scale(0.1 -0.1)">
      <use xlink:href="#DejaVuSans-53"/>
      <use x="63.623047" xlink:href="#DejaVuSans-48"/>
      <use x="127.246094" xlink:href="#DejaVuSans-48"/>
     </g>
    </g>
    <g id="line2d_104">
     <path d="M 539.830625 197.842812 
L 559.830625 197.842812 
" style="fill:none;stroke:#000000;stroke-dasharray:5.55,2.4;stroke-dashoffset:0;stroke-width:1.5;"/>
    </g>
    <g id="line2d_105"/>
    <g id="text_26">
     <!-- 1000 -->
     <g transform="translate(567.830625 201.342812)scale(0.1 -0.1)">
      <use xlink:href="#DejaVuSans-49"/>
      <use x="63.623047" xlink:href="#DejaVuSans-48"/>
      <use x="127.246094" xlink:href="#DejaVuSans-48"/>
      <use x="190.869141" xlink:href="#DejaVuSans-48"/>
     </g>
    </g>
    <g id="line2d_106">
     <path d="M 539.830625 212.520937 
L 559.830625 212.520937 
" style="fill:none;stroke:#000000;stroke-dasharray:9.6,2.4,1.5,2.4;stroke-dashoffset:0;stroke-width:1.5;"/>
    </g>
    <g id="line2d_107"/>
    <g id="text_27">
     <!-- 5000 -->
     <g transform="translate(567.830625 216.020937)scale(0.1 -0.1)">
      <use xlink:href="#DejaVuSans-53"/>
      <use x="63.623047" xlink:href="#DejaVuSans-48"/>
      <use x="127.246094" xlink:href="#DejaVuSans-48"/>
      <use x="190.869141" xlink:href="#DejaVuSans-48"/>
     </g>
    </g>
    <g id="line2d_108">
     <path d="M 539.830625 227.199062 
L 559.830625 227.199062 
" style="fill:none;stroke:#000000;stroke-dasharray:9.6,2.4,1.5,2.4;stroke-dashoffset:0;stroke-width:1.5;"/>
    </g>
    <g id="line2d_109"/>
    <g id="text_28">
     <!-- 10000 -->
     <g transform="translate(567.830625 230.699062)scale(0.1 -0.1)">
      <use xlink:href="#DejaVuSans-49"/>
      <use x="63.623047" xlink:href="#DejaVuSans-48"/>
      <use x="127.246094" xlink:href="#DejaVuSans-48"/>
      <use x="190.869141" xlink:href="#DejaVuSans-48"/>
      <use x="254.492188" xlink:href="#DejaVuSans-48"/>
     </g>
    </g>
   </g>
  </g>
 </g>
 <defs>
  <clipPath id="pd1550c12a9">
   <rect height="380.52" width="390.6" x="140.230625" y="52.64125"/>
  </clipPath>
 </defs>
</svg>
