<?xml version="1.0" encoding="utf-8" standalone="no"?>
<!DOCTYPE svg PUBLIC "-//W3C//DTD SVG 1.1//EN"
  "http://www.w3.org/Graphics/SVG/1.1/DTD/svg11.dtd">
<!-- Created with matplotlib (https://matplotlib.org/) -->
<svg height="504.658125pt" version="1.1" viewBox="0 0 503.355625 504.658125" width="503.355625pt" xmlns="http://www.w3.org/2000/svg" xmlns:xlink="http://www.w3.org/1999/xlink">
 <defs>
  <style type="text/css">
*{stroke-linecap:butt;stroke-linejoin:round;}
  </style>
 </defs>
 <g id="figure_1">
  <g id="patch_1">
   <path d="M 0 504.658125 
L 503.355625 504.658125 
L 503.355625 -0 
L 0 -0 
z
" style="fill:#ffffff;"/>
  </g>
  <g id="axes_1">
   <g id="patch_2">
    <path d="M 102.055625 433.16125 
L 492.655625 433.16125 
L 492.655625 52.64125 
L 102.055625 52.64125 
z
" style="fill:#ffffff;"/>
   </g>
   <g id="matplotlib.axis_1">
    <g id="xtick_1">
     <g id="line2d_1">
      <defs>
       <path d="M 0 0 
L 0 3.5 
" id="m9031e28cf4" style="stroke:#000000;stroke-width:0.8;"/>
      </defs>
      <g>
       <use style="stroke:#000000;stroke-width:0.8;" x="149.40108" xlink:href="#m9031e28cf4" y="433.16125"/>
      </g>
     </g>
     <g id="text_1">
      <!-- 5 -->
      <defs>
       <path d="M 10.796875 72.90625 
L 49.515625 72.90625 
L 49.515625 64.59375 
L 19.828125 64.59375 
L 19.828125 46.734375 
Q 21.96875 47.46875 24.109375 47.828125 
Q 26.265625 48.1875 28.421875 48.1875 
Q 40.625 48.1875 47.75 41.5 
Q 54.890625 34.8125 54.890625 23.390625 
Q 54.890625 11.625 47.5625 5.09375 
Q 40.234375 -1.421875 26.90625 -1.421875 
Q 22.3125 -1.421875 17.546875 -0.640625 
Q 12.796875 0.140625 7.71875 1.703125 
L 7.71875 11.625 
Q 12.109375 9.234375 16.796875 8.0625 
Q 21.484375 6.890625 26.703125 6.890625 
Q 35.15625 6.890625 40.078125 11.328125 
Q 45.015625 15.765625 45.015625 23.390625 
Q 45.015625 31 40.078125 35.4375 
Q 35.15625 39.890625 26.703125 39.890625 
Q 22.75 39.890625 18.8125 39.015625 
Q 14.890625 38.140625 10.796875 36.28125 
z
" id="DejaVuSans-53"/>
      </defs>
      <g transform="translate(139.85733 462.956562)scale(0.3 -0.3)">
       <use xlink:href="#DejaVuSans-53"/>
      </g>
     </g>
    </g>
    <g id="xtick_2">
     <g id="line2d_2">
      <g>
       <use style="stroke:#000000;stroke-width:0.8;" x="208.582898" xlink:href="#m9031e28cf4" y="433.16125"/>
      </g>
     </g>
     <g id="text_2">
      <!-- 10 -->
      <defs>
       <path d="M 12.40625 8.296875 
L 28.515625 8.296875 
L 28.515625 63.921875 
L 10.984375 60.40625 
L 10.984375 69.390625 
L 28.421875 72.90625 
L 38.28125 72.90625 
L 38.28125 8.296875 
L 54.390625 8.296875 
L 54.390625 0 
L 12.40625 0 
z
" id="DejaVuSans-49"/>
       <path d="M 31.78125 66.40625 
Q 24.171875 66.40625 20.328125 58.90625 
Q 16.5 51.421875 16.5 36.375 
Q 16.5 21.390625 20.328125 13.890625 
Q 24.171875 6.390625 31.78125 6.390625 
Q 39.453125 6.390625 43.28125 13.890625 
Q 47.125 21.390625 47.125 36.375 
Q 47.125 51.421875 43.28125 58.90625 
Q 39.453125 66.40625 31.78125 66.40625 
z
M 31.78125 74.21875 
Q 44.046875 74.21875 50.515625 64.515625 
Q 56.984375 54.828125 56.984375 36.375 
Q 56.984375 17.96875 50.515625 8.265625 
Q 44.046875 -1.421875 31.78125 -1.421875 
Q 19.53125 -1.421875 13.0625 8.265625 
Q 6.59375 17.96875 6.59375 36.375 
Q 6.59375 54.828125 13.0625 64.515625 
Q 19.53125 74.21875 31.78125 74.21875 
z
" id="DejaVuSans-48"/>
      </defs>
      <g transform="translate(189.495398 462.956562)scale(0.3 -0.3)">
       <use xlink:href="#DejaVuSans-49"/>
       <use x="63.623047" xlink:href="#DejaVuSans-48"/>
      </g>
     </g>
    </g>
    <g id="xtick_3">
     <g id="line2d_3">
      <g>
       <use style="stroke:#000000;stroke-width:0.8;" x="267.764716" xlink:href="#m9031e28cf4" y="433.16125"/>
      </g>
     </g>
     <g id="text_3">
      <!-- 15 -->
      <g transform="translate(248.677216 462.956562)scale(0.3 -0.3)">
       <use xlink:href="#DejaVuSans-49"/>
       <use x="63.623047" xlink:href="#DejaVuSans-53"/>
      </g>
     </g>
    </g>
    <g id="xtick_4">
     <g id="line2d_4">
      <g>
       <use style="stroke:#000000;stroke-width:0.8;" x="326.946534" xlink:href="#m9031e28cf4" y="433.16125"/>
      </g>
     </g>
     <g id="text_4">
      <!-- 20 -->
      <defs>
       <path d="M 19.1875 8.296875 
L 53.609375 8.296875 
L 53.609375 0 
L 7.328125 0 
L 7.328125 8.296875 
Q 12.9375 14.109375 22.625 23.890625 
Q 32.328125 33.6875 34.8125 36.53125 
Q 39.546875 41.84375 41.421875 45.53125 
Q 43.3125 49.21875 43.3125 52.78125 
Q 43.3125 58.59375 39.234375 62.25 
Q 35.15625 65.921875 28.609375 65.921875 
Q 23.96875 65.921875 18.8125 64.3125 
Q 13.671875 62.703125 7.8125 59.421875 
L 7.8125 69.390625 
Q 13.765625 71.78125 18.9375 73 
Q 24.125 74.21875 28.421875 74.21875 
Q 39.75 74.21875 46.484375 68.546875 
Q 53.21875 62.890625 53.21875 53.421875 
Q 53.21875 48.921875 51.53125 44.890625 
Q 49.859375 40.875 45.40625 35.40625 
Q 44.1875 33.984375 37.640625 27.21875 
Q 31.109375 20.453125 19.1875 8.296875 
z
" id="DejaVuSans-50"/>
      </defs>
      <g transform="translate(307.859034 462.956562)scale(0.3 -0.3)">
       <use xlink:href="#DejaVuSans-50"/>
       <use x="63.623047" xlink:href="#DejaVuSans-48"/>
      </g>
     </g>
    </g>
    <g id="xtick_5">
     <g id="line2d_5">
      <g>
       <use style="stroke:#000000;stroke-width:0.8;" x="386.128352" xlink:href="#m9031e28cf4" y="433.16125"/>
      </g>
     </g>
     <g id="text_5">
      <!-- 25 -->
      <g transform="translate(367.040852 462.956562)scale(0.3 -0.3)">
       <use xlink:href="#DejaVuSans-50"/>
       <use x="63.623047" xlink:href="#DejaVuSans-53"/>
      </g>
     </g>
    </g>
    <g id="xtick_6">
     <g id="line2d_6">
      <g>
       <use style="stroke:#000000;stroke-width:0.8;" x="445.31017" xlink:href="#m9031e28cf4" y="433.16125"/>
      </g>
     </g>
     <g id="text_6">
      <!-- 30 -->
      <defs>
       <path d="M 40.578125 39.3125 
Q 47.65625 37.796875 51.625 33 
Q 55.609375 28.21875 55.609375 21.1875 
Q 55.609375 10.40625 48.1875 4.484375 
Q 40.765625 -1.421875 27.09375 -1.421875 
Q 22.515625 -1.421875 17.65625 -0.515625 
Q 12.796875 0.390625 7.625 2.203125 
L 7.625 11.71875 
Q 11.71875 9.328125 16.59375 8.109375 
Q 21.484375 6.890625 26.8125 6.890625 
Q 36.078125 6.890625 40.9375 10.546875 
Q 45.796875 14.203125 45.796875 21.1875 
Q 45.796875 27.640625 41.28125 31.265625 
Q 36.765625 34.90625 28.71875 34.90625 
L 20.21875 34.90625 
L 20.21875 43.015625 
L 29.109375 43.015625 
Q 36.375 43.015625 40.234375 45.921875 
Q 44.09375 48.828125 44.09375 54.296875 
Q 44.09375 59.90625 40.109375 62.90625 
Q 36.140625 65.921875 28.71875 65.921875 
Q 24.65625 65.921875 20.015625 65.03125 
Q 15.375 64.15625 9.8125 62.3125 
L 9.8125 71.09375 
Q 15.4375 72.65625 20.34375 73.4375 
Q 25.25 74.21875 29.59375 74.21875 
Q 40.828125 74.21875 47.359375 69.109375 
Q 53.90625 64.015625 53.90625 55.328125 
Q 53.90625 49.265625 50.4375 45.09375 
Q 46.96875 40.921875 40.578125 39.3125 
z
" id="DejaVuSans-51"/>
      </defs>
      <g transform="translate(426.22267 462.956562)scale(0.3 -0.3)">
       <use xlink:href="#DejaVuSans-51"/>
       <use x="63.623047" xlink:href="#DejaVuSans-48"/>
      </g>
     </g>
    </g>
    <g id="text_7">
     <!-- RADIUS -->
     <defs>
      <path d="M 7.328125 0 
L 7.328125 71.578125 
L 37.75 71.578125 
Q 49.21875 71.578125 54.421875 69.640625 
Q 59.625 67.71875 62.75 62.78125 
Q 65.875 57.859375 65.875 51.515625 
Q 65.875 43.453125 61.125 38.203125 
Q 56.390625 32.953125 46.96875 31.59375 
Q 51.65625 28.859375 54.703125 25.578125 
Q 57.765625 22.3125 62.9375 13.96875 
L 71.6875 0 
L 54.390625 0 
L 43.953125 15.578125 
Q 38.375 23.921875 36.328125 26.09375 
Q 34.28125 28.265625 31.984375 29.078125 
Q 29.6875 29.890625 24.703125 29.890625 
L 21.78125 29.890625 
L 21.78125 0 
z
M 21.78125 41.3125 
L 32.46875 41.3125 
Q 42.875 41.3125 45.453125 42.1875 
Q 48.046875 43.0625 49.515625 45.203125 
Q 50.984375 47.359375 50.984375 50.59375 
Q 50.984375 54.203125 49.046875 56.421875 
Q 47.125 58.640625 43.609375 59.234375 
Q 41.84375 59.46875 33.0625 59.46875 
L 21.78125 59.46875 
z
" id="Arial-BoldMT-82"/>
      <path d="M 71.828125 0 
L 56.109375 0 
L 49.859375 16.265625 
L 21.234375 16.265625 
L 15.328125 0 
L 0 0 
L 27.875 71.578125 
L 43.171875 71.578125 
z
M 45.21875 28.328125 
L 35.359375 54.890625 
L 25.6875 28.328125 
z
" id="Arial-BoldMT-65"/>
      <path d="M 7.234375 71.578125 
L 33.640625 71.578125 
Q 42.578125 71.578125 47.265625 70.21875 
Q 53.5625 68.359375 58.046875 63.625 
Q 62.546875 58.890625 64.890625 52.03125 
Q 67.234375 45.171875 67.234375 35.109375 
Q 67.234375 26.265625 65.046875 19.875 
Q 62.359375 12.0625 57.375 7.234375 
Q 53.609375 3.5625 47.21875 1.515625 
Q 42.4375 0 34.421875 0 
L 7.234375 0 
z
M 21.6875 59.46875 
L 21.6875 12.0625 
L 32.46875 12.0625 
Q 38.53125 12.0625 41.21875 12.75 
Q 44.734375 13.625 47.046875 15.71875 
Q 49.359375 17.828125 50.828125 22.625 
Q 52.296875 27.4375 52.296875 35.75 
Q 52.296875 44.046875 50.828125 48.484375 
Q 49.359375 52.9375 46.71875 55.421875 
Q 44.09375 57.90625 40.046875 58.796875 
Q 37.015625 59.46875 28.171875 59.46875 
z
" id="Arial-BoldMT-68"/>
      <path d="M 6.84375 0 
L 6.84375 71.578125 
L 21.296875 71.578125 
L 21.296875 0 
z
" id="Arial-BoldMT-73"/>
      <path d="M 7.171875 71.578125 
L 21.625 71.578125 
L 21.625 32.8125 
Q 21.625 23.578125 22.171875 20.84375 
Q 23.09375 16.453125 26.578125 13.796875 
Q 30.078125 11.140625 36.140625 11.140625 
Q 42.28125 11.140625 45.40625 13.640625 
Q 48.53125 16.15625 49.171875 19.8125 
Q 49.8125 23.484375 49.8125 31.984375 
L 49.8125 71.578125 
L 64.265625 71.578125 
L 64.265625 33.984375 
Q 64.265625 21.09375 63.09375 15.765625 
Q 61.921875 10.453125 58.765625 6.78125 
Q 55.609375 3.125 50.328125 0.953125 
Q 45.0625 -1.21875 36.578125 -1.21875 
Q 26.3125 -1.21875 21.015625 1.140625 
Q 15.71875 3.515625 12.640625 7.296875 
Q 9.578125 11.078125 8.59375 15.234375 
Q 7.171875 21.390625 7.171875 33.40625 
z
" id="Arial-BoldMT-85"/>
      <path d="M 3.609375 23.296875 
L 17.671875 24.65625 
Q 18.953125 17.578125 22.828125 14.25 
Q 26.703125 10.9375 33.296875 10.9375 
Q 40.28125 10.9375 43.8125 13.890625 
Q 47.359375 16.84375 47.359375 20.796875 
Q 47.359375 23.34375 45.875 25.125 
Q 44.390625 26.90625 40.671875 28.21875 
Q 38.140625 29.109375 29.109375 31.34375 
Q 17.484375 34.234375 12.796875 38.421875 
Q 6.203125 44.34375 6.203125 52.828125 
Q 6.203125 58.296875 9.296875 63.0625 
Q 12.40625 67.828125 18.234375 70.3125 
Q 24.078125 72.796875 32.328125 72.796875 
Q 45.796875 72.796875 52.609375 66.890625 
Q 59.421875 60.984375 59.765625 51.125 
L 45.3125 50.484375 
Q 44.390625 56 41.328125 58.421875 
Q 38.28125 60.84375 32.171875 60.84375 
Q 25.875 60.84375 22.3125 58.25 
Q 20.015625 56.59375 20.015625 53.8125 
Q 20.015625 51.265625 22.171875 49.46875 
Q 24.90625 47.171875 35.453125 44.671875 
Q 46 42.1875 51.046875 39.515625 
Q 56.109375 36.859375 58.953125 32.25 
Q 61.8125 27.640625 61.8125 20.84375 
Q 61.8125 14.703125 58.390625 9.328125 
Q 54.984375 3.953125 48.734375 1.34375 
Q 42.484375 -1.265625 33.15625 -1.265625 
Q 19.578125 -1.265625 12.296875 5 
Q 5.03125 11.28125 3.609375 23.296875 
z
" id="Arial-BoldMT-83"/>
     </defs>
     <g transform="translate(259.019688 493.51125)scale(0.2 -0.2)">
      <use xlink:href="#Arial-BoldMT-82"/>
      <use x="72.216797" xlink:href="#Arial-BoldMT-65"/>
      <use x="144.433594" xlink:href="#Arial-BoldMT-68"/>
      <use x="216.650391" xlink:href="#Arial-BoldMT-73"/>
      <use x="244.433594" xlink:href="#Arial-BoldMT-85"/>
      <use x="316.650391" xlink:href="#Arial-BoldMT-83"/>
     </g>
    </g>
   </g>
   <g id="matplotlib.axis_2">
    <g id="ytick_1">
     <g id="line2d_7">
      <defs>
       <path d="M 0 0 
L -3.5 0 
" id="m7458d20807" style="stroke:#000000;stroke-width:0.8;"/>
      </defs>
      <g>
       <use style="stroke:#000000;stroke-width:0.8;" x="102.055625" xlink:href="#m7458d20807" y="433.16125"/>
      </g>
     </g>
     <g id="text_8">
      <!-- 0 -->
      <g transform="translate(75.968125 444.558906)scale(0.3 -0.3)">
       <use xlink:href="#DejaVuSans-48"/>
      </g>
     </g>
    </g>
    <g id="ytick_2">
     <g id="line2d_8">
      <g>
       <use style="stroke:#000000;stroke-width:0.8;" x="102.055625" xlink:href="#m7458d20807" y="369.74125"/>
      </g>
     </g>
     <g id="text_9">
      <!-- 5 -->
      <g transform="translate(75.968125 381.138906)scale(0.3 -0.3)">
       <use xlink:href="#DejaVuSans-53"/>
      </g>
     </g>
    </g>
    <g id="ytick_3">
     <g id="line2d_9">
      <g>
       <use style="stroke:#000000;stroke-width:0.8;" x="102.055625" xlink:href="#m7458d20807" y="306.32125"/>
      </g>
     </g>
     <g id="text_10">
      <!-- 10 -->
      <g transform="translate(56.880625 317.718906)scale(0.3 -0.3)">
       <use xlink:href="#DejaVuSans-49"/>
       <use x="63.623047" xlink:href="#DejaVuSans-48"/>
      </g>
     </g>
    </g>
    <g id="ytick_4">
     <g id="line2d_10">
      <g>
       <use style="stroke:#000000;stroke-width:0.8;" x="102.055625" xlink:href="#m7458d20807" y="242.90125"/>
      </g>
     </g>
     <g id="text_11">
      <!-- 15 -->
      <g transform="translate(56.880625 254.298906)scale(0.3 -0.3)">
       <use xlink:href="#DejaVuSans-49"/>
       <use x="63.623047" xlink:href="#DejaVuSans-53"/>
      </g>
     </g>
    </g>
    <g id="ytick_5">
     <g id="line2d_11">
      <g>
       <use style="stroke:#000000;stroke-width:0.8;" x="102.055625" xlink:href="#m7458d20807" y="179.48125"/>
      </g>
     </g>
     <g id="text_12">
      <!-- 20 -->
      <g transform="translate(56.880625 190.878906)scale(0.3 -0.3)">
       <use xlink:href="#DejaVuSans-50"/>
       <use x="63.623047" xlink:href="#DejaVuSans-48"/>
      </g>
     </g>
    </g>
    <g id="ytick_6">
     <g id="line2d_12">
      <g>
       <use style="stroke:#000000;stroke-width:0.8;" x="102.055625" xlink:href="#m7458d20807" y="116.06125"/>
      </g>
     </g>
     <g id="text_13">
      <!-- 25 -->
      <g transform="translate(56.880625 127.458906)scale(0.3 -0.3)">
       <use xlink:href="#DejaVuSans-50"/>
       <use x="63.623047" xlink:href="#DejaVuSans-53"/>
      </g>
     </g>
    </g>
    <g id="ytick_7">
     <g id="line2d_13">
      <g>
       <use style="stroke:#000000;stroke-width:0.8;" x="102.055625" xlink:href="#m7458d20807" y="52.64125"/>
      </g>
     </g>
     <g id="text_14">
      <!-- 30 -->
      <g transform="translate(56.880625 64.038906)scale(0.3 -0.3)">
       <use xlink:href="#DejaVuSans-51"/>
       <use x="63.623047" xlink:href="#DejaVuSans-48"/>
      </g>
     </g>
    </g>
    <g id="text_15">
     <!-- CD4 NORMALIZED -->
     <defs>
      <path d="M 53.078125 26.3125 
L 67.09375 21.875 
Q 63.875 10.15625 56.375 4.46875 
Q 48.875 -1.21875 37.359375 -1.21875 
Q 23.09375 -1.21875 13.90625 8.515625 
Q 4.734375 18.265625 4.734375 35.15625 
Q 4.734375 53.03125 13.953125 62.90625 
Q 23.1875 72.796875 38.234375 72.796875 
Q 51.375 72.796875 59.578125 65.046875 
Q 64.453125 60.453125 66.890625 51.859375 
L 52.59375 48.4375 
Q 51.3125 54 47.28125 57.21875 
Q 43.265625 60.453125 37.5 60.453125 
Q 29.546875 60.453125 24.578125 54.734375 
Q 19.625 49.03125 19.625 36.234375 
Q 19.625 22.65625 24.5 16.890625 
Q 29.390625 11.140625 37.203125 11.140625 
Q 42.96875 11.140625 47.109375 14.796875 
Q 51.265625 18.453125 53.078125 26.3125 
z
" id="Arial-BoldMT-67"/>
      <path d="M 31.15625 0 
L 31.15625 14.40625 
L 1.859375 14.40625 
L 1.859375 26.421875 
L 32.90625 71.875 
L 44.4375 71.875 
L 44.4375 26.46875 
L 53.328125 26.46875 
L 53.328125 14.40625 
L 44.4375 14.40625 
L 44.4375 0 
z
M 31.15625 26.46875 
L 31.15625 50.921875 
L 14.703125 26.46875 
z
" id="Arial-BoldMT-52"/>
      <path id="Arial-BoldMT-32"/>
      <path d="M 7.421875 0 
L 7.421875 71.578125 
L 21.484375 71.578125 
L 50.78125 23.78125 
L 50.78125 71.578125 
L 64.203125 71.578125 
L 64.203125 0 
L 49.703125 0 
L 20.84375 46.6875 
L 20.84375 0 
z
" id="Arial-BoldMT-78"/>
      <path d="M 4.34375 35.359375 
Q 4.34375 46.296875 7.625 53.71875 
Q 10.0625 59.1875 14.28125 63.53125 
Q 18.5 67.875 23.53125 69.96875 
Q 30.21875 72.796875 38.96875 72.796875 
Q 54.78125 72.796875 64.28125 62.984375 
Q 73.78125 53.171875 73.78125 35.6875 
Q 73.78125 18.359375 64.359375 8.5625 
Q 54.9375 -1.21875 39.15625 -1.21875 
Q 23.1875 -1.21875 13.765625 8.515625 
Q 4.34375 18.265625 4.34375 35.359375 
z
M 19.234375 35.84375 
Q 19.234375 23.6875 24.84375 17.40625 
Q 30.46875 11.140625 39.109375 11.140625 
Q 47.75 11.140625 53.296875 17.359375 
Q 58.84375 23.578125 58.84375 36.03125 
Q 58.84375 48.34375 53.4375 54.390625 
Q 48.046875 60.453125 39.109375 60.453125 
Q 30.171875 60.453125 24.703125 54.3125 
Q 19.234375 48.1875 19.234375 35.84375 
z
" id="Arial-BoldMT-79"/>
      <path d="M 7.078125 0 
L 7.078125 71.578125 
L 28.71875 71.578125 
L 41.703125 22.75 
L 54.546875 71.578125 
L 76.21875 71.578125 
L 76.21875 0 
L 62.796875 0 
L 62.796875 56.34375 
L 48.578125 0 
L 34.671875 0 
L 20.515625 56.34375 
L 20.515625 0 
z
" id="Arial-BoldMT-77"/>
      <path d="M 7.671875 0 
L 7.671875 71 
L 22.125 71 
L 22.125 12.0625 
L 58.0625 12.0625 
L 58.0625 0 
z
" id="Arial-BoldMT-76"/>
      <path d="M 1.078125 0 
L 1.078125 13.03125 
L 38.671875 59.46875 
L 5.328125 59.46875 
L 5.328125 71.578125 
L 57.71875 71.578125 
L 57.71875 60.359375 
L 18.5 12.0625 
L 59.234375 12.0625 
L 59.234375 0 
z
" id="Arial-BoldMT-90"/>
      <path d="M 7.28125 0 
L 7.28125 71.578125 
L 60.359375 71.578125 
L 60.359375 59.46875 
L 21.734375 59.46875 
L 21.734375 43.609375 
L 57.671875 43.609375 
L 57.671875 31.546875 
L 21.734375 31.546875 
L 21.734375 12.0625 
L 61.71875 12.0625 
L 61.71875 0 
z
" id="Arial-BoldMT-69"/>
     </defs>
     <g transform="translate(21.253125 332.343437)rotate(-90)scale(0.2 -0.2)">
      <use xlink:href="#Arial-BoldMT-67"/>
      <use x="72.216797" xlink:href="#Arial-BoldMT-68"/>
      <use x="144.433594" xlink:href="#Arial-BoldMT-52"/>
      <use x="200.048828" xlink:href="#Arial-BoldMT-32"/>
      <use x="227.832031" xlink:href="#Arial-BoldMT-78"/>
      <use x="300.048828" xlink:href="#Arial-BoldMT-79"/>
      <use x="377.832031" xlink:href="#Arial-BoldMT-82"/>
      <use x="450.048828" xlink:href="#Arial-BoldMT-77"/>
      <use x="533.349609" xlink:href="#Arial-BoldMT-65"/>
      <use x="605.566406" xlink:href="#Arial-BoldMT-76"/>
      <use x="666.650391" xlink:href="#Arial-BoldMT-73"/>
      <use x="694.433594" xlink:href="#Arial-BoldMT-90"/>
      <use x="755.517578" xlink:href="#Arial-BoldMT-69"/>
      <use x="822.216797" xlink:href="#Arial-BoldMT-68"/>
     </g>
     <!-- CELL COUNTS (NUMBERS) -->
     <defs>
      <path d="M 23.390625 0 
L 23.390625 59.46875 
L 2.15625 59.46875 
L 2.15625 71.578125 
L 59.03125 71.578125 
L 59.03125 59.46875 
L 37.84375 59.46875 
L 37.84375 0 
z
" id="Arial-BoldMT-84"/>
      <path d="M 29.9375 -21.046875 
L 20.515625 -21.046875 
Q 13.03125 -9.765625 9.125 2.390625 
Q 5.21875 14.546875 5.21875 25.921875 
Q 5.21875 40.046875 10.0625 52.640625 
Q 14.265625 63.578125 20.703125 72.796875 
L 30.078125 72.796875 
Q 23.390625 58.015625 20.875 47.625 
Q 18.359375 37.25 18.359375 25.640625 
Q 18.359375 17.625 19.84375 9.21875 
Q 21.34375 0.828125 23.921875 -6.734375 
Q 25.640625 -11.71875 29.9375 -21.046875 
z
" id="Arial-BoldMT-40"/>
      <path d="M 7.328125 71.578125 
L 35.9375 71.578125 
Q 44.4375 71.578125 48.609375 70.875 
Q 52.78125 70.171875 56.078125 67.921875 
Q 59.375 65.671875 61.5625 61.9375 
Q 63.765625 58.203125 63.765625 53.5625 
Q 63.765625 48.53125 61.046875 44.328125 
Q 58.34375 40.140625 53.71875 38.03125 
Q 60.25 36.140625 63.765625 31.546875 
Q 67.28125 26.953125 67.28125 20.75 
Q 67.28125 15.875 65.015625 11.25 
Q 62.75 6.640625 58.8125 3.875 
Q 54.890625 1.125 49.125 0.484375 
Q 45.515625 0.09375 31.6875 0 
L 7.328125 0 
z
M 21.78125 59.671875 
L 21.78125 43.109375 
L 31.25 43.109375 
Q 39.703125 43.109375 41.75 43.359375 
Q 45.453125 43.796875 47.578125 45.921875 
Q 49.703125 48.046875 49.703125 51.515625 
Q 49.703125 54.828125 47.875 56.90625 
Q 46.046875 58.984375 42.4375 59.421875 
Q 40.28125 59.671875 30.078125 59.671875 
z
M 21.78125 31.203125 
L 21.78125 12.0625 
L 35.15625 12.0625 
Q 42.96875 12.0625 45.0625 12.5 
Q 48.296875 13.09375 50.3125 15.359375 
Q 52.34375 17.625 52.34375 21.4375 
Q 52.34375 24.65625 50.78125 26.90625 
Q 49.21875 29.15625 46.265625 30.171875 
Q 43.3125 31.203125 33.453125 31.203125 
z
" id="Arial-BoldMT-66"/>
      <path d="M 3.375 -21.046875 
Q 7.421875 -12.359375 9.078125 -7.71875 
Q 10.75 -3.078125 12.15625 2.96875 
Q 13.578125 9.03125 14.25 14.46875 
Q 14.9375 19.921875 14.9375 25.640625 
Q 14.9375 37.25 12.453125 47.625 
Q 9.96875 58.015625 3.265625 72.796875 
L 12.59375 72.796875 
Q 19.96875 62.3125 24.046875 50.53125 
Q 28.125 38.765625 28.125 26.65625 
Q 28.125 16.453125 24.90625 4.78125 
Q 21.234375 -8.296875 12.84375 -21.046875 
z
" id="Arial-BoldMT-41"/>
     </defs>
     <g transform="translate(42.67125 374.002812)rotate(-90)scale(0.2 -0.2)">
      <use xlink:href="#Arial-BoldMT-67"/>
      <use x="72.216797" xlink:href="#Arial-BoldMT-69"/>
      <use x="138.916016" xlink:href="#Arial-BoldMT-76"/>
      <use x="200" xlink:href="#Arial-BoldMT-76"/>
      <use x="261.068359" xlink:href="#Arial-BoldMT-32"/>
      <use x="288.851562" xlink:href="#Arial-BoldMT-67"/>
      <use x="361.068359" xlink:href="#Arial-BoldMT-79"/>
      <use x="438.851562" xlink:href="#Arial-BoldMT-85"/>
      <use x="511.068359" xlink:href="#Arial-BoldMT-78"/>
      <use x="583.285156" xlink:href="#Arial-BoldMT-84"/>
      <use x="644.369141" xlink:href="#Arial-BoldMT-83"/>
      <use x="711.068359" xlink:href="#Arial-BoldMT-32"/>
      <use x="738.851562" xlink:href="#Arial-BoldMT-40"/>
      <use x="772.152344" xlink:href="#Arial-BoldMT-78"/>
      <use x="844.369141" xlink:href="#Arial-BoldMT-85"/>
      <use x="916.585938" xlink:href="#Arial-BoldMT-77"/>
      <use x="999.886719" xlink:href="#Arial-BoldMT-66"/>
      <use x="1072.103516" xlink:href="#Arial-BoldMT-69"/>
      <use x="1138.802734" xlink:href="#Arial-BoldMT-82"/>
      <use x="1211.019531" xlink:href="#Arial-BoldMT-83"/>
      <use x="1277.71875" xlink:href="#Arial-BoldMT-41"/>
     </g>
    </g>
   </g>
   <g id="line2d_14">
    <path clip-path="url(#pb02d42904c)" d="M 102.055625 306.32125 
L 113.891989 316.89125 
L 125.728352 328.51825 
L 137.564716 345.782583 
L 149.40108 363.39925 
L 161.237443 352.82925 
L 173.073807 324.994917 
L 184.91017 289.71125 
L 196.746534 267.21225 
L 208.582898 272.49725 
L 220.419261 269.32625 
L 232.255625 296.904341 
L 244.091989 309.316083 
L 255.928352 323.395865 
L 267.764716 339.39025 
L 279.60108 339.863383 
L 291.437443 338.691875 
L 303.273807 327.336897 
L 315.11017 323.585583 
L 326.946534 323.010724 
L 338.782898 323.76175 
L 350.619261 317.897917 
L 362.455625 309.203977 
L 374.291989 299.97925 
L 386.128352 294.341917 
L 397.964716 290.76221 
L 409.80108 284.042942 
L 421.637443 273.515102 
L 433.473807 276.04575 
L 445.31017 281.099043 
L 457.146534 270.524183 
L 468.982898 283.544605 
L 480.819261 287.163125 
L 492.655625 289.729553 
" style="fill:none;stroke:#08306b;stroke-linecap:square;stroke-width:1.5;"/>
   </g>
   <g id="line2d_15">
    <path clip-path="url(#pb02d42904c)" d="M 102.055625 357.05725 
L 113.891989 335.91725 
L 125.728352 378.19725 
L 137.564716 330.279917 
L 149.40108 295.75125 
L 161.237443 249.66605 
L 173.073807 255.58525 
L 184.91017 282.16125 
L 196.746534 285.4455 
L 208.582898 300.683917 
L 220.419261 311.81765 
L 232.255625 321.311432 
L 244.091989 334.155583 
L 255.928352 346.649865 
L 267.764716 321.11925 
L 279.60108 313.649783 
L 291.437443 302.489625 
L 303.273807 304.829015 
L 315.11017 298.217583 
L 326.946534 297.531461 
L 338.782898 295.64555 
L 350.619261 298.16725 
L 362.455625 304.111159 
L 374.291989 304.023424 
L 386.128352 300.067333 
L 397.964716 291.60781 
L 409.80108 289.084019 
L 421.637443 292.854287 
L 433.473807 288.05025 
L 445.31017 295.75125 
L 457.146534 300.120183 
L 468.982898 300.456605 
L 480.819261 293.240875 
L 492.655625 292.227917 
" style="fill:none;stroke:#08306b;stroke-linecap:square;stroke-width:1.5;"/>
   </g>
   <g id="line2d_16">
    <path clip-path="url(#pb02d42904c)" d="M 102.055625 242.90125 
L 113.891989 219.64725 
L 125.728352 241.84425 
L 137.564716 264.745917 
L 149.40108 291.52325 
L 161.237443 323.65605 
L 173.073807 334.155583 
L 184.91017 352.22525 
L 196.746534 335.91725 
L 208.582898 315.012139 
L 220.419261 294.06005 
L 232.255625 289.40925 
L 244.091989 280.600917 
L 255.928352 279.814942 
L 267.764716 278.08425 
L 279.60108 296.878717 
L 291.437443 299.582875 
L 303.273807 311.295368 
L 315.11017 299.626917 
L 326.946534 289.965566 
L 338.782898 290.36055 
L 350.619261 286.590583 
L 362.455625 294.021614 
L 374.291989 282.240033 
L 386.128352 287.5595 
L 397.964716 302.51605 
L 409.80108 311.037096 
L 421.637443 320.884361 
L 433.473807 311.60625 
L 445.31017 306.612836 
L 457.146534 290.113917 
L 468.982898 289.136476 
L 480.819261 283.463625 
L 492.655625 287.423371 
" style="fill:none;stroke:#08306b;stroke-linecap:square;stroke-width:1.5;"/>
   </g>
   <g id="line2d_17">
    <path clip-path="url(#pb02d42904c)" d="M 102.055625 357.05725 
L 113.891989 333.80325 
L 125.728352 324.29025 
L 137.564716 333.098583 
L 149.40108 334.33175 
L 161.237443 327.03845 
L 173.073807 330.279917 
L 184.91017 334.10525 
L 196.746534 315.57 
L 208.582898 314.307472 
L 220.419261 303.99585 
L 232.255625 293.252886 
L 244.091989 297.512917 
L 255.928352 300.792327 
L 267.764716 300.43225 
L 279.60108 311.535783 
L 291.437443 317.684 
L 303.273807 313.285015 
L 315.11017 309.139917 
L 326.946534 324.457145 
L 338.782898 307.48395 
L 350.619261 304.81125 
L 362.455625 295.174705 
L 374.291989 292.626207 
L 386.128352 304.647667 
L 397.964716 299.38733 
L 409.80108 295.75125 
L 421.637443 301.46688 
L 433.473807 301.11175 
L 445.31017 289.62794 
L 457.146534 305.757517 
L 468.982898 302.706992 
L 480.819261 287.097062 
L 492.655625 278.070523 
" style="fill:none;stroke:#08306b;stroke-linecap:square;stroke-width:1.5;"/>
   </g>
   <g id="line2d_18">
    <path clip-path="url(#pb02d42904c)" d="M 102.055625 255.58525 
L 113.891989 338.03125 
L 125.728352 310.54925 
L 137.564716 314.072583 
L 149.40108 322.70475 
L 161.237443 328.72965 
L 173.073807 321.11925 
L 184.91017 293.33525 
L 196.746534 269.32625 
L 208.582898 255.820139 
L 220.419261 263.61845 
L 232.255625 290.946705 
L 244.091989 302.62175 
L 255.928352 308.110019 
L 267.764716 325.04525 
L 279.60108 335.635383 
L 291.437443 334.463875 
L 303.273807 333.430191 
L 315.11017 316.421472 
L 326.946534 310.883039 
L 338.782898 293.00305 
L 350.619261 261.423917 
L 362.455625 258.852341 
L 374.291989 266.430989 
L 386.128352 289.056917 
L 397.964716 298.28805 
L 409.80108 306.32125 
L 421.637443 319.553324 
L 433.473807 313.64475 
L 445.31017 311.351112 
L 457.146534 286.87245 
L 468.982898 280.885056 
L 480.819261 270.845687 
L 492.655625 274.931553 
" style="fill:none;stroke:#08306b;stroke-linecap:square;stroke-width:1.5;"/>
   </g>
   <g id="line2d_19">
    <path clip-path="url(#pb02d42904c)" d="M 102.055625 395.10925 
L 113.891989 397.22325 
L 125.728352 386.65325 
L 137.564716 364.808583 
L 149.40108 347.01575 
L 161.237443 285.18125 
L 173.073807 256.64225 
L 184.91017 246.82725 
L 196.746534 273.8185 
L 208.582898 298.100139 
L 220.419261 321.33065 
L 232.255625 329.57525 
L 244.091989 332.21775 
L 255.928352 318.029558 
L 267.764716 319.45825 
L 279.60108 318.723383 
L 291.437443 321.11925 
L 303.273807 321.367956 
L 315.11017 325.112361 
L 326.946534 304.986092 
L 338.782898 287.18955 
L 350.619261 289.207917 
L 362.455625 279.992341 
L 374.291989 280.677511 
L 386.128352 274.699333 
L 397.964716 273.25829 
L 409.80108 285.831712 
L 421.637443 270.774731 
L 433.473807 274.91325 
L 445.31017 293.272767 
L 457.146534 306.180317 
L 468.982898 327.393056 
L 480.819261 326.40425 
L 492.655625 318.364644 
" style="fill:none;stroke:#08306b;stroke-linecap:square;stroke-width:1.5;"/>
   </g>
   <g id="line2d_20">
    <path clip-path="url(#pb02d42904c)" d="M 102.055625 395.10925 
L 113.891989 392.99525 
L 125.728352 380.31125 
L 137.564716 364.808583 
L 149.40108 315.30575 
L 161.237443 288.14085 
L 173.073807 282.01025 
L 184.91017 283.97325 
L 196.746534 294.69425 
L 208.582898 280.95325 
L 220.419261 291.94605 
L 232.255625 289.601432 
L 244.091989 267.74075 
L 255.928352 277.863558 
L 267.764716 288.65425 
L 279.60108 318.723383 
L 291.437443 323.629625 
L 303.273807 336.912074 
L 315.11017 333.80325 
L 326.946534 323.567039 
L 338.782898 327.67265 
L 350.619261 313.26725 
L 362.455625 309.49225 
L 374.291989 300.622641 
L 386.128352 293.020667 
L 397.964716 286.53421 
L 409.80108 291.198019 
L 421.637443 296.612509 
L 433.473807 288.27675 
L 445.31017 273.882284 
L 457.146534 287.92945 
L 468.982898 289.40925 
L 480.819261 289.607437 
L 492.655625 303.694765 
" style="fill:none;stroke:#08306b;stroke-linecap:square;stroke-width:1.5;"/>
   </g>
   <g id="line2d_21">
    <path clip-path="url(#pb02d42904c)" d="M 102.055625 344.37325 
L 113.891989 342.25925 
L 125.728352 324.29025 
L 137.564716 342.25925 
L 149.40108 352.30075 
L 161.237443 373.54645 
L 173.073807 402.155917 
L 184.91017 386.35125 
L 196.746534 349.9225 
L 208.582898 315.481917 
L 220.419261 296.17405 
L 232.255625 304.975977 
L 244.091989 285.005083 
L 255.928352 288.921404 
L 267.764716 287.89925 
L 279.60108 289.691117 
L 291.437443 281.085375 
L 303.273807 287.170897 
L 315.11017 305.734028 
L 326.946534 305.542408 
L 338.782898 308.43525 
L 350.619261 293.838583 
L 362.455625 285.949977 
L 374.291989 288.49012 
L 386.128352 296.0155 
L 397.964716 308.35069 
L 409.80108 309.248327 
L 421.637443 292.462806 
L 433.473807 277.17825 
L 445.31017 265.644974 
L 457.146534 264.67545 
L 468.982898 284.567508 
L 480.819261 288.814687 
L 492.655625 295.943432 
" style="fill:none;stroke:#08306b;stroke-linecap:square;stroke-width:1.5;"/>
   </g>
   <g id="line2d_22">
    <path clip-path="url(#pb02d42904c)" d="M 102.055625 293.63725 
L 113.891989 253.47125 
L 125.728352 223.87525 
L 137.564716 254.880583 
L 149.40108 277.78225 
L 161.237443 285.60405 
L 173.073807 280.248583 
L 184.91017 274.91325 
L 196.746534 290.99475 
L 208.582898 300.683917 
L 220.419261 286.44965 
L 232.255625 285.565614 
L 244.091989 279.191583 
L 255.928352 286.156942 
L 267.764716 281.40625 
L 279.60108 300.542983 
L 291.437443 289.145 
L 303.273807 293.63725 
L 315.11017 285.063806 
L 326.946534 277.392829 
L 338.782898 282.75015 
L 350.619261 297.361917 
L 362.455625 316.699068 
L 374.291989 305.953598 
L 386.128352 288.792667 
L 397.964716 299.04909 
L 409.80108 315.915558 
L 421.637443 315.325324 
L 433.473807 303.90525 
L 445.31017 303.405388 
L 457.146534 304.700517 
L 468.982898 302.843379 
L 480.819261 300.177437 
L 492.655625 308.819614 
" style="fill:none;stroke:#08306b;stroke-linecap:square;stroke-width:1.5;"/>
   </g>
   <g id="line2d_23">
    <path clip-path="url(#pb02d42904c)" d="M 102.055625 204.84925 
L 113.891989 242.90125 
L 125.728352 259.81325 
L 137.564716 219.64725 
L 149.40108 220.17575 
L 161.237443 270.80605 
L 173.073807 313.015583 
L 184.91017 314.77725 
L 196.746534 302.886 
L 208.582898 304.20725 
L 220.419261 316.25705 
L 232.255625 325.731614 
L 244.091989 306.673583 
L 255.928352 308.272635 
L 267.764716 291.52325 
L 279.60108 293.355383 
L 291.437443 278.971375 
L 303.273807 283.315956 
L 315.11017 311.60625 
L 326.946534 325.34725 
L 338.782898 338.77115 
L 350.619261 332.796583 
L 362.455625 328.710432 
L 374.291989 314.501511 
L 386.128352 296.632083 
L 397.964716 279.43117 
L 409.80108 266.968327 
L 421.637443 263.649769 
L 433.473807 292.05175 
L 445.31017 303.405388 
L 457.146534 308.153383 
L 468.982898 296.024024 
L 480.819261 284.12425 
L 492.655625 266.475553 
" style="fill:none;stroke:#08306b;stroke-linecap:square;stroke-width:1.5;"/>
   </g>
   <g id="line2d_24">
    <path clip-path="url(#pb02d42904c)" d="M 102.055625 293.63725 
L 113.891989 297.86525 
L 125.728352 335.91725 
L 137.564716 359.17125 
L 149.40108 338.55975 
L 161.237443 340.56805 
L 173.073807 332.74625 
L 184.91017 312.66325 
L 196.746534 321.64775 
L 208.582898 328.635694 
L 220.419261 323.02185 
L 232.255625 319.00525 
L 244.091989 321.64775 
L 255.928352 319.493096 
L 267.764716 328.06525 
L 279.60108 306.180317 
L 291.437443 307.246125 
L 303.273807 297.740897 
L 315.11017 287.530139 
L 326.946534 284.513671 
L 338.782898 300.93055 
L 350.619261 296.455917 
L 362.455625 300.075341 
L 374.291989 301.449859 
L 386.128352 295.839333 
L 397.964716 312.91693 
L 409.80108 306.402558 
L 421.637443 301.310287 
L 433.473807 293.78825 
L 445.31017 297.063388 
L 457.146534 294.06005 
L 468.982898 291.182282 
L 480.819261 293.174812 
L 492.655625 309.652402 
" style="fill:none;stroke:#4a98c9;stroke-linecap:square;stroke-width:1.5;"/>
   </g>
   <g id="line2d_25">
    <path clip-path="url(#pb02d42904c)" d="M 102.055625 319.00525 
L 113.891989 306.32125 
L 125.728352 325.34725 
L 137.564716 305.616583 
L 149.40108 310.02075 
L 161.237443 325.34725 
L 173.073807 319.709917 
L 184.91017 299.97925 
L 196.746534 291.259 
L 208.582898 287.530139 
L 220.419261 281.79885 
L 232.255625 293.445068 
L 244.091989 316.36275 
L 255.928352 348.763865 
L 267.764716 353.88625 
L 279.60108 333.521383 
L 291.437443 330.63225 
L 303.273807 300.227956 
L 315.11017 305.26425 
L 326.946534 304.095987 
L 338.782898 297.86525 
L 350.619261 299.777917 
L 362.455625 307.474341 
L 374.291989 311.836033 
L 386.128352 319.53375 
L 397.964716 310.46469 
L 409.80108 306.565173 
L 421.637443 296.142731 
L 433.473807 296.73275 
L 445.31017 303.186698 
L 457.146534 297.01965 
L 468.982898 297.86525 
L 480.819261 274.743375 
L 492.655625 294.341917 
" style="fill:none;stroke:#4a98c9;stroke-linecap:square;stroke-width:1.5;"/>
   </g>
   <g id="line2d_26">
    <path clip-path="url(#pb02d42904c)" d="M 102.055625 433.16125 
L 113.891989 342.25925 
L 125.728352 342.25925 
L 137.564716 279.543917 
L 149.40108 327.46125 
L 161.237443 346.48725 
L 173.073807 345.077917 
L 184.91017 318.09925 
L 196.746534 318.741 
L 208.582898 319.240139 
L 220.419261 301.88185 
L 232.255625 300.363614 
L 244.091989 285.357417 
L 255.928352 302.255865 
L 267.764716 292.58025 
L 279.60108 292.932583 
L 291.437443 287.955875 
L 303.273807 303.834191 
L 315.11017 291.52325 
L 326.946534 293.748513 
L 338.782898 305.15855 
L 350.619261 313.770583 
L 362.455625 319.485705 
L 374.291989 295.567424 
L 386.128352 303.062167 
L 397.964716 304.71461 
L 409.80108 319.493096 
L 421.637443 322.058806 
L 433.473807 308.13325 
L 445.31017 309.091319 
L 457.146534 307.941983 
L 468.982898 297.319702 
L 480.819261 297.931312 
L 492.655625 316.122523 
" style="fill:none;stroke:#4a98c9;stroke-linecap:square;stroke-width:1.5;"/>
   </g>
   <g id="line2d_27">
    <path clip-path="url(#pb02d42904c)" d="M 102.055625 280.95325 
L 113.891989 331.68925 
L 125.728352 280.95325 
L 137.564716 293.63725 
L 149.40108 340.14525 
L 161.237443 349.02405 
L 173.073807 350.71525 
L 184.91017 344.97725 
L 196.746534 328.51825 
L 208.582898 316.656361 
L 220.419261 323.44465 
L 232.255625 327.46125 
L 244.091989 317.067417 
L 255.928352 308.43525 
L 267.764716 301.48925 
L 279.60108 298.992717 
L 291.437443 301.56475 
L 303.273807 306.445603 
L 315.11017 313.367917 
L 326.946534 331.132934 
L 338.782898 331.47785 
L 350.619261 335.61525 
L 362.455625 340.049159 
L 374.291989 329.942902 
L 386.128352 332.21775 
L 397.964716 333.12677 
L 409.80108 318.923942 
L 421.637443 309.296509 
L 433.473807 300.13025 
L 445.31017 291.012974 
L 457.146534 286.02685 
L 468.982898 296.501379 
L 480.819261 292.58025 
L 492.655625 307.922765 
" style="fill:none;stroke:#4a98c9;stroke-linecap:square;stroke-width:1.5;"/>
   </g>
   <g id="line2d_28">
    <path clip-path="url(#pb02d42904c)" d="M 102.055625 395.10925 
L 113.891989 367.62725 
L 125.728352 314.77725 
L 137.564716 310.54925 
L 149.40108 325.87575 
L 161.237443 330.42085 
L 173.073807 289.056917 
L 184.91017 299.97925 
L 196.746534 287.29525 
L 208.582898 300.449028 
L 220.419261 283.49005 
L 232.255625 281.721977 
L 244.091989 299.626917 
L 255.928352 286.644788 
L 267.764716 308.88825 
L 279.60108 319.991783 
L 291.437443 324.950875 
L 303.273807 321.492309 
L 315.11017 309.49225 
L 326.946534 306.543776 
L 338.782898 276.61955 
L 350.619261 273.70525 
L 362.455625 279.704068 
L 374.291989 278.195859 
L 386.128352 292.492167 
L 397.964716 297.78069 
L 409.80108 301.117558 
L 421.637443 320.727769 
L 433.473807 306.01925 
L 445.31017 303.186698 
L 457.146534 295.610317 
L 468.982898 298.138024 
L 480.819261 288.6165 
L 492.655625 300.812038 
" style="fill:none;stroke:#4a98c9;stroke-linecap:square;stroke-width:1.5;"/>
   </g>
   <g id="line2d_29">
    <path clip-path="url(#pb02d42904c)" d="M 102.055625 268.26925 
L 113.891989 323.23325 
L 125.728352 347.54425 
L 137.564716 326.051917 
L 149.40108 298.92225 
L 161.237443 309.28085 
L 173.073807 336.269583 
L 184.91017 316.58925 
L 196.746534 322.17625 
L 208.582898 304.442139 
L 220.419261 300.40205 
L 232.255625 314.585068 
L 244.091989 335.036417 
L 255.928352 319.818327 
L 267.764716 335.46425 
L 279.60108 335.49445 
L 291.437443 334.728125 
L 303.273807 330.445721 
L 315.11017 332.041583 
L 326.946534 327.127461 
L 338.782898 327.88405 
L 350.619261 328.266583 
L 362.455625 313.239795 
L 374.291989 302.920467 
L 386.128352 284.476583 
L 397.964716 287.04157 
L 409.80108 285.018635 
L 421.637443 283.06725 
L 433.473807 274.30925 
L 445.31017 274.82994 
L 457.146534 283.560517 
L 468.982898 309.526347 
L 480.819261 319.731937 
L 492.655625 332.906402 
" style="fill:none;stroke:#4a98c9;stroke-linecap:square;stroke-width:1.5;"/>
   </g>
   <g id="line2d_30">
    <path clip-path="url(#pb02d42904c)" d="M 102.055625 433.16125 
L 113.891989 409.90725 
L 125.728352 388.76725 
L 137.564716 367.62725 
L 149.40108 344.37325 
L 161.237443 324.07885 
L 173.073807 316.186583 
L 184.91017 319.30725 
L 196.746534 329.8395 
L 208.582898 304.442139 
L 220.419261 295.32845 
L 232.255625 287.871795 
L 244.091989 291.347083 
L 255.928352 295.426019 
L 267.764716 296.80825 
L 279.60108 319.709917 
L 291.437443 322.308375 
L 303.273807 316.393838 
L 315.11017 301.506028 
L 326.946534 312.440724 
L 338.782898 327.46125 
L 350.619261 315.783917 
L 362.455625 310.453159 
L 374.291989 298.416728 
L 386.128352 303.15025 
L 397.964716 303.10797 
L 409.80108 308.597865 
L 421.637443 321.510731 
L 433.473807 312.43675 
L 445.31017 306.831526 
L 457.146534 305.827983 
L 468.982898 318.732476 
L 480.819261 312.332937 
L 492.655625 330.215856 
" style="fill:none;stroke:#4a98c9;stroke-linecap:square;stroke-width:1.5;"/>
   </g>
   <g id="line2d_31">
    <path clip-path="url(#pb02d42904c)" d="M 102.055625 306.32125 
L 113.891989 354.94325 
L 125.728352 368.68425 
L 137.564716 368.331917 
L 149.40108 370.26975 
L 161.237443 391.30405 
L 173.073807 371.150583 
L 184.91017 356.45325 
L 196.746534 335.38875 
L 208.582898 333.098583 
L 220.419261 346.91005 
L 232.255625 352.252705 
L 244.091989 338.55975 
L 255.928352 324.696788 
L 267.764716 319.76025 
L 279.60108 306.462183 
L 291.437443 306.5855 
L 303.273807 317.139956 
L 315.11017 334.038139 
L 326.946534 336.251039 
L 338.782898 326.82705 
L 350.619261 319.709917 
L 362.455625 312.374977 
L 374.291989 298.78438 
L 386.128352 287.5595 
L 397.964716 294.56741 
L 409.80108 283.880327 
L 421.637443 282.049398 
L 433.473807 279.97175 
L 445.31017 280.95325 
L 457.146534 299.274583 
L 468.982898 297.86525 
L 480.819261 313.852375 
L 492.655625 338.992159 
" style="fill:none;stroke:#4a98c9;stroke-linecap:square;stroke-width:1.5;"/>
   </g>
   <g id="line2d_32">
    <path clip-path="url(#pb02d42904c)" d="M 102.055625 344.37325 
L 113.891989 278.83925 
L 125.728352 269.32625 
L 137.564716 296.455917 
L 149.40108 290.99475 
L 161.237443 285.18125 
L 173.073807 291.52325 
L 184.91017 299.37525 
L 196.746534 310.54925 
L 208.582898 327.931028 
L 220.419261 329.15245 
L 232.255625 309.396159 
L 244.091989 303.15025 
L 255.928352 311.524942 
L 267.764716 311.90825 
L 279.60108 307.16685 
L 291.437443 281.085375 
L 303.273807 279.709721 
L 315.11017 281.657917 
L 326.946534 294.861145 
L 338.782898 307.27255 
L 350.619261 318.300583 
L 362.455625 331.400977 
L 374.291989 341.34012 
L 386.128352 327.98975 
L 397.964716 322.89501 
L 409.80108 322.908019 
L 421.637443 317.047843 
L 433.473807 316.96675 
L 445.31017 313.975388 
L 457.146534 307.307783 
L 468.982898 305.707508 
L 480.819261 304.867875 
L 492.655625 311.894523 
" style="fill:none;stroke:#4a98c9;stroke-linecap:square;stroke-width:1.5;"/>
   </g>
   <g id="line2d_33">
    <path clip-path="url(#pb02d42904c)" d="M 102.055625 268.26925 
L 113.891989 350.71525 
L 125.728352 295.75125 
L 137.564716 301.388583 
L 149.40108 295.22275 
L 161.237443 297.44245 
L 173.073807 318.652917 
L 184.91017 306.62325 
L 196.746534 312.399 
L 208.582898 318.300583 
L 220.419261 329.15245 
L 232.255625 316.699068 
L 244.091989 328.51825 
L 255.928352 328.599558 
L 267.764716 335.61525 
L 279.60108 325.910983 
L 291.437443 305.660625 
L 303.273807 311.046662 
L 315.11017 317.008694 
L 326.946534 323.567039 
L 338.782898 317.63115 
L 350.619261 315.179917 
L 362.455625 313.431977 
L 374.291989 305.953598 
L 386.128352 300.067333 
L 397.964716 308.94261 
L 409.80108 305.833404 
L 421.637443 300.449028 
L 433.473807 304.28275 
L 445.31017 300.926905 
L 457.146534 292.650717 
L 468.982898 293.091702 
L 480.819261 300.970187 
L 492.655625 315.738159 
" style="fill:none;stroke:#4a98c9;stroke-linecap:square;stroke-width:1.5;"/>
   </g>
   <g id="line2d_34">
    <path clip-path="url(#pb02d42904c)" d="M 102.055625 369.74125 
L 113.891989 405.67925 
L 125.728352 392.99525 
L 137.564716 404.269917 
L 149.40108 403.03675 
L 161.237443 400.18285 
L 173.073807 403.212917 
L 184.91017 390.27725 
L 196.746534 387.446 
L 208.582898 390.646361 
L 220.419261 387.92165 
L 232.255625 397.415432 
L 244.091989 387.534083 
L 255.928352 394.133558 
L 267.764716 399.79025 
L 279.60108 391.022183 
L 291.437443 392.2025 
L 303.273807 390.135132 
L 315.11017 387.475361 
L 326.946534 379.977461 
L 338.782898 386.97035 
L 350.619261 382.525917 
L 362.455625 376.851977 
L 374.291989 377.921511 
L 386.128352 376.787917 
L 397.964716 386.14589 
L 409.80108 387.791558 
L 421.637443 378.19725 
L 433.473807 371.77975 
L 445.31017 367.40856 
L 457.146534 359.875917 
L 468.982898 351.533573 
L 480.819261 346.685437 
L 492.655625 353.597977 
" style="fill:none;stroke:#d0e1f2;stroke-linecap:square;stroke-width:1.5;"/>
   </g>
   <g id="line2d_35">
    <path clip-path="url(#pb02d42904c)" d="M 102.055625 433.16125 
L 113.891989 416.24925 
L 125.728352 386.65325 
L 137.564716 398.632583 
L 149.40108 383.48225 
L 161.237443 362.13085 
L 173.073807 383.48225 
L 184.91017 369.13725 
L 196.746534 381.6325 
L 208.582898 385.478806 
L 220.419261 393.41805 
L 232.255625 397.799795 
L 244.091989 388.76725 
L 255.928352 398.036327 
L 267.764716 396.16625 
L 279.60108 396.095783 
L 291.437443 394.05225 
L 303.273807 390.508191 
L 315.11017 388.76725 
L 326.946534 380.978829 
L 338.782898 387.07605 
L 350.619261 386.95525 
L 362.455625 387.133705 
L 374.291989 394.465859 
L 386.128352 389.119583 
L 397.964716 380.98773 
L 409.80108 383.970096 
L 421.637443 382.503546 
L 433.473807 381.06625 
L 445.31017 381.623388 
L 457.146534 372.137117 
L 468.982898 370.559573 
L 480.819261 355.075375 
L 492.655625 366.794462 
" style="fill:none;stroke:#d0e1f2;stroke-linecap:square;stroke-width:1.5;"/>
   </g>
   <g id="line2d_36">
    <path clip-path="url(#pb02d42904c)" d="M 102.055625 433.16125 
L 113.891989 426.81925 
L 125.728352 399.33725 
L 137.564716 398.632583 
L 149.40108 390.88125 
L 161.237443 404.83365 
L 173.073807 398.28025 
L 184.91017 385.14325 
L 196.746534 389.82425 
L 208.582898 391.585917 
L 220.419261 384.32785 
L 232.255625 384.154886 
L 244.091989 377.316417 
L 255.928352 381.449558 
L 267.764716 376.08325 
L 279.60108 376.224183 
L 291.437443 385.06775 
L 303.273807 381.181721 
L 315.11017 380.31125 
L 326.946534 379.866197 
L 338.782898 383.90505 
L 350.619261 391.48525 
L 362.455625 382.905705 
L 374.291989 384.631163 
L 386.128352 378.285333 
L 397.964716 381.57965 
L 409.80108 381.205635 
L 421.637443 384.069472 
L 433.473807 381.44375 
L 445.31017 376.885112 
L 457.146534 375.308117 
L 468.982898 363.058282 
L 480.819261 357.783937 
L 492.655625 367.819432 
" style="fill:none;stroke:#d0e1f2;stroke-linecap:square;stroke-width:1.5;"/>
   </g>
   <g id="line2d_37">
    <path clip-path="url(#pb02d42904c)" d="M 102.055625 420.47725 
L 113.891989 395.10925 
L 125.728352 401.45125 
L 137.564716 400.746583 
L 149.40108 389.82425 
L 161.237443 384.11645 
L 173.073807 384.186917 
L 184.91017 396.01525 
L 196.746534 390.0885 
L 208.582898 391.351028 
L 220.419261 383.69365 
L 232.255625 389.728159 
L 244.091989 390.176583 
L 255.928352 392.019558 
L 267.764716 388.91825 
L 279.60108 390.599383 
L 291.437443 389.692125 
L 303.273807 385.161015 
L 315.11017 387.71025 
L 326.946534 397.22325 
L 338.782898 391.83255 
L 350.619261 392.189917 
L 362.455625 398.184159 
L 374.291989 392.627598 
L 386.128352 384.627333 
L 397.964716 388.85181 
L 409.80108 386.897173 
L 421.637443 382.503546 
L 433.473807 379.02775 
L 445.31017 372.438422 
L 457.146534 364.45625 
L 468.982898 360.194153 
L 480.819261 346.289062 
L 492.655625 364.167977 
" style="fill:none;stroke:#d0e1f2;stroke-linecap:square;stroke-width:1.5;"/>
   </g>
   <g id="line2d_38">
    <path clip-path="url(#pb02d42904c)" d="M 102.055625 319.00525 
L 113.891989 403.56525 
L 125.728352 380.31125 
L 137.564716 387.357917 
L 149.40108 396.69475 
L 161.237443 387.49885 
L 173.073807 397.575583 
L 184.91017 382.72725 
L 196.746534 380.83975 
L 208.582898 386.183472 
L 220.419261 369.95265 
L 232.255625 375.506705 
L 244.091989 382.249083 
L 255.928352 372.343096 
L 267.764716 385.29425 
L 279.60108 384.96205 
L 291.437443 392.99525 
L 303.273807 390.383838 
L 315.11017 389.706806 
L 326.946534 385.985671 
L 338.782898 378.93715 
L 350.619261 380.61325 
L 362.455625 375.987159 
L 374.291989 377.370033 
L 386.128352 379.430417 
L 397.964716 384.28557 
L 409.80108 382.100019 
L 421.637443 385.087324 
L 433.473807 385.14325 
L 445.31017 384.101871 
L 457.146534 378.62005 
L 468.982898 374.992153 
L 480.819261 363.068937 
L 492.655625 364.42422 
" style="fill:none;stroke:#d0e1f2;stroke-linecap:square;stroke-width:1.5;"/>
   </g>
   <g id="line2d_39">
    <path clip-path="url(#pb02d42904c)" d="M 102.055625 395.10925 
L 113.891989 412.02125 
L 125.728352 392.99525 
L 137.564716 384.53925 
L 149.40108 401.97975 
L 161.237443 392.14965 
L 173.073807 400.041917 
L 184.91017 391.78725 
L 196.746534 385.59625 
L 208.582898 397.22325 
L 220.419261 397.01185 
L 232.255625 393.379614 
L 244.091989 382.601417 
L 255.928352 382.913096 
L 267.764716 390.12625 
L 279.60108 395.10925 
L 291.437443 394.58075 
L 303.273807 392.497838 
L 315.11017 389.471917 
L 326.946534 388.76725 
L 338.782898 384.53925 
L 350.619261 386.753917 
L 362.455625 380.887795 
L 374.291989 380.862728 
L 386.128352 373.528833 
L 397.964716 380.56493 
L 409.80108 374.944942 
L 421.637443 376.239843 
L 433.473807 373.66725 
L 445.31017 373.240284 
L 457.146534 376.153717 
L 468.982898 378.674605 
L 480.819261 372.053437 
L 492.655625 377.236341 
" style="fill:none;stroke:#d0e1f2;stroke-linecap:square;stroke-width:1.5;"/>
   </g>
   <g id="line2d_40">
    <path clip-path="url(#pb02d42904c)" d="M 102.055625 433.16125 
L 113.891989 407.79325 
L 125.728352 412.02125 
L 137.564716 405.67925 
L 149.40108 394.58075 
L 161.237443 365.51325 
L 173.073807 363.39925 
L 184.91017 374.57325 
L 196.746534 381.104 
L 208.582898 372.794806 
L 220.419261 373.75785 
L 232.255625 379.542523 
L 244.091989 372.031417 
L 255.928352 384.864481 
L 267.764716 380.46225 
L 279.60108 388.76725 
L 291.437443 388.76725 
L 303.273807 386.528897 
L 315.11017 387.240472 
L 326.946534 393.885355 
L 338.782898 401.45125 
L 350.619261 392.69325 
L 362.455625 396.070159 
L 374.291989 385.550293 
L 386.128352 376.171333 
L 397.964716 385.13117 
L 409.80108 374.457096 
L 421.637443 377.962361 
L 433.473807 378.42375 
L 445.31017 380.602836 
L 457.146534 378.549583 
L 468.982898 372.80996 
L 480.819261 368.15575 
L 492.655625 374.353614 
" style="fill:none;stroke:#d0e1f2;stroke-linecap:square;stroke-width:1.5;"/>
   </g>
   <g id="line2d_41">
    <path clip-path="url(#pb02d42904c)" d="M 102.055625 395.10925 
L 113.891989 407.79325 
L 125.728352 408.85025 
L 137.564716 408.497917 
L 149.40108 410.43575 
L 161.237443 412.86685 
L 173.073807 403.56525 
L 184.91017 402.35725 
L 196.746534 393.52375 
L 208.582898 396.518583 
L 220.419261 396.16625 
L 232.255625 392.803068 
L 244.091989 390.176583 
L 255.928352 389.580327 
L 267.764716 389.82425 
L 279.60108 384.398317 
L 291.437443 387.313875 
L 303.273807 380.559956 
L 315.11017 385.478806 
L 326.946534 385.874408 
L 338.782898 383.69365 
L 350.619261 385.042583 
L 362.455625 384.923614 
L 374.291989 384.263511 
L 386.128352 383.48225 
L 397.964716 387.24517 
L 409.80108 389.499019 
L 421.637443 383.364806 
L 433.473807 383.55775 
L 445.31017 374.844009 
L 457.146534 366.711183 
L 468.982898 369.536669 
L 480.819261 359.567625 
L 492.655625 371.022462 
" style="fill:none;stroke:#d0e1f2;stroke-linecap:square;stroke-width:1.5;"/>
   </g>
   <g id="line2d_42">
    <path clip-path="url(#pb02d42904c)" d="M 102.055625 407.79325 
L 113.891989 392.99525 
L 125.728352 351.77225 
L 137.564716 386.65325 
L 149.40108 382.42525 
L 161.237443 365.93605 
L 173.073807 382.777583 
L 184.91017 375.17725 
L 196.746534 386.389 
L 208.582898 382.660139 
L 220.419261 380.73405 
L 232.255625 368.972523 
L 244.091989 375.55475 
L 255.928352 384.214019 
L 267.764716 390.88125 
L 279.60108 387.780717 
L 291.437443 392.46675 
L 303.273807 380.559956 
L 315.11017 380.898472 
L 326.946534 388.655987 
L 338.782898 379.57135 
L 350.619261 378.80125 
L 362.455625 383.962705 
L 374.291989 385.090728 
L 386.128352 383.834583 
L 397.964716 386.65325 
L 409.80108 381.612173 
L 421.637443 383.208213 
L 433.473807 381.21725 
L 445.31017 387.600905 
L 457.146534 377.492583 
L 468.982898 367.218089 
L 480.819261 366.04175 
L 492.655625 371.599008 
" style="fill:none;stroke:#d0e1f2;stroke-linecap:square;stroke-width:1.5;"/>
   </g>
   <g id="line2d_43">
    <path clip-path="url(#pb02d42904c)" d="M 102.055625 420.47725 
L 113.891989 382.42525 
L 125.728352 372.91225 
L 137.564716 382.42525 
L 149.40108 368.15575 
L 161.237443 389.19005 
L 173.073807 398.28025 
L 184.91017 395.41125 
L 196.746534 396.16625 
L 208.582898 401.686139 
L 220.419261 397.43465 
L 232.255625 396.070159 
L 244.091989 395.461583 
L 255.928352 386.815865 
L 267.764716 389.22025 
L 279.60108 389.753783 
L 291.437443 391.93825 
L 303.273807 392.373485 
L 315.11017 392.99525 
L 326.946534 393.885355 
L 338.782898 396.48335 
L 350.619261 386.35125 
L 362.455625 381.36825 
L 374.291989 386.469424 
L 386.128352 382.249083 
L 397.964716 382.42525 
L 409.80108 376.896327 
L 421.637443 377.727472 
L 433.473807 379.25425 
L 445.31017 373.458974 
L 457.146534 373.828317 
L 468.982898 358.898476 
L 480.819261 358.510625 
L 492.655625 363.527371 
" style="fill:none;stroke:#d0e1f2;stroke-linecap:square;stroke-width:1.5;"/>
   </g>
   <g id="line2d_44">
    <path clip-path="url(#pb02d42904c)" d="M 102.055625 268.26925 
L 113.891989 230.21725 
L 125.728352 298.92225 
L 137.564716 310.54925 
L 149.40108 320.59075 
L 161.237443 336.34005 
L 173.073807 318.300583 
L 184.91017 276.72525 
L 196.746534 256.64225 
L 208.582898 247.833917 
L 220.419261 256.00805 
L 232.255625 288.256159 
L 244.091989 290.642417 
L 255.928352 310.061404 
L 267.764716 330.48125 
L 279.60108 326.61565 
L 291.437443 325.743625 
L 303.273807 307.191721 
L 315.11017 307.848028 
L 326.946534 318.003882 
L 338.782898 320.80215 
L 350.619261 318.602583 
L 362.455625 316.122523 
L 374.291989 315.052989 
L 386.128352 304.4715 
L 397.964716 294.06005 
L 409.80108 294.856865 
L 421.637443 299.666065 
L 433.473807 292.12725 
L 445.31017 306.758629 
L 457.146534 292.650717 
L 468.982898 290.977702 
L 480.819261 276.9895 
L 492.655625 269.29422 
" style="fill:none;stroke:#1764ab;stroke-linecap:square;stroke-width:1.5;"/>
   </g>
   <g id="line2d_45">
    <path clip-path="url(#pb02d42904c)" d="M 102.055625 154.11325 
L 113.891989 204.84925 
L 125.728352 267.21225 
L 137.564716 279.543917 
L 149.40108 278.31075 
L 161.237443 285.18125 
L 173.073807 292.932583 
L 184.91017 268.87325 
L 196.746534 262.1915 
L 208.582898 284.711472 
L 220.419261 295.32845 
L 232.255625 308.050886 
L 244.091989 308.787583 
L 255.928352 330.713558 
L 267.764716 338.93725 
L 279.60108 313.367917 
L 291.437443 323.101125 
L 303.273807 325.595956 
L 315.11017 322.998361 
L 326.946534 303.317145 
L 338.782898 293.21445 
L 350.619261 294.54325 
L 362.455625 303.342432 
L 374.291989 302.185163 
L 386.128352 301.388583 
L 397.964716 294.31373 
L 409.80108 285.343865 
L 421.637443 293.872139 
L 433.473807 293.33525 
L 445.31017 291.377457 
L 457.146534 271.65165 
L 468.982898 268.882992 
L 480.819261 261.663 
L 492.655625 254.368098 
" style="fill:none;stroke:#1764ab;stroke-linecap:square;stroke-width:1.5;"/>
   </g>
   <g id="line2d_46">
    <path clip-path="url(#pb02d42904c)" d="M 102.055625 331.68925 
L 113.891989 280.95325 
L 125.728352 232.33125 
L 137.564716 264.04125 
L 149.40108 268.26925 
L 161.237443 299.97925 
L 173.073807 309.139917 
L 184.91017 288.50325 
L 196.746534 296.80825 
L 208.582898 321.354139 
L 220.419261 327.88405 
L 232.255625 324.770705 
L 244.091989 298.746083 
L 255.928352 289.571865 
L 267.764716 294.39225 
L 279.60108 309.985517 
L 291.437443 308.6995 
L 303.273807 296.994779 
L 315.11017 283.889361 
L 326.946534 293.414724 
L 338.782898 294.27145 
L 350.619261 299.37525 
L 362.455625 291.619341 
L 374.291989 285.089337 
L 386.128352 283.3315 
L 397.964716 276.55613 
L 409.80108 286.156942 
L 421.637443 300.370731 
L 433.473807 309.49225 
L 445.31017 312.371664 
L 457.146534 304.84145 
L 468.982898 296.296798 
L 480.819261 287.427375 
L 492.655625 298.121492 
" style="fill:none;stroke:#1764ab;stroke-linecap:square;stroke-width:1.5;"/>
   </g>
   <g id="line2d_47">
    <path clip-path="url(#pb02d42904c)" d="M 102.055625 204.84925 
L 113.891989 219.64725 
L 125.728352 234.44525 
L 137.564716 274.61125 
L 149.40108 302.62175 
L 161.237443 317.31405 
L 173.073807 328.870583 
L 184.91017 332.89725 
L 196.746534 307.37825 
L 208.582898 293.63725 
L 220.419261 273.97705 
L 232.255625 279.607977 
L 244.091989 280.248583 
L 255.928352 305.020327 
L 267.764716 311.30425 
L 279.60108 326.756583 
L 291.437443 332.482 
L 303.273807 322.487132 
L 315.11017 309.962028 
L 326.946534 318.782724 
L 338.782898 323.44465 
L 350.619261 331.487917 
L 362.455625 338.415614 
L 374.291989 332.88412 
L 386.128352 322.528583 
L 397.964716 304.96829 
L 409.80108 295.588635 
L 421.637443 285.337843 
L 433.473807 295.29825 
L 445.31017 291.158767 
L 457.146534 289.972983 
L 468.982898 281.771573 
L 480.819261 279.499875 
L 492.655625 287.679614 
" style="fill:none;stroke:#1764ab;stroke-linecap:square;stroke-width:1.5;"/>
   </g>
   <g id="line2d_48">
    <path clip-path="url(#pb02d42904c)" d="M 102.055625 331.68925 
L 113.891989 329.57525 
L 125.728352 357.05725 
L 137.564716 318.300583 
L 149.40108 338.03125 
L 161.237443 303.36165 
L 173.073807 308.43525 
L 184.91017 293.93925 
L 196.746534 264.56975 
L 208.582898 274.141472 
L 220.419261 271.22885 
L 232.255625 277.301795 
L 244.091989 286.414417 
L 255.928352 285.669096 
L 267.764716 305.11325 
L 279.60108 312.804183 
L 291.437443 329.04675 
L 303.273807 325.720309 
L 315.11017 319.00525 
L 326.946534 309.547882 
L 338.782898 297.23105 
L 350.619261 286.791917 
L 362.455625 273.265977 
L 374.291989 270.475163 
L 386.128352 291.435167 
L 397.964716 299.30277 
L 409.80108 303.475481 
L 421.637443 309.766287 
L 433.473807 307.37825 
L 445.31017 308.581043 
L 457.146534 300.120183 
L 468.982898 304.139056 
L 480.819261 289.343187 
L 492.655625 282.554765 
" style="fill:none;stroke:#1764ab;stroke-linecap:square;stroke-width:1.5;"/>
   </g>
   <g id="line2d_49">
    <path clip-path="url(#pb02d42904c)" d="M 102.055625 331.68925 
L 113.891989 314.77725 
L 125.728352 305.26425 
L 137.564716 304.911917 
L 149.40108 350.18675 
L 161.237443 324.50165 
L 173.073807 286.23825 
L 184.91017 254.67925 
L 196.746534 243.1655 
L 208.582898 262.162139 
L 220.419261 283.70145 
L 232.255625 299.594886 
L 244.091989 311.782417 
L 255.928352 314.452019 
L 267.764716 323.53525 
L 279.60108 326.756583 
L 291.437443 316.759125 
L 303.273807 310.176191 
L 315.11017 314.190028 
L 326.946534 308.880303 
L 338.782898 306.74405 
L 350.619261 309.441917 
L 362.455625 299.97925 
L 374.291989 294.55638 
L 386.128352 292.404083 
L 397.964716 285.85773 
L 409.80108 288.270942 
L 421.637443 282.127694 
L 433.473807 278.23525 
L 445.31017 276.798147 
L 457.146534 289.127383 
L 468.982898 302.979766 
L 480.819261 301.895062 
L 492.655625 306.833735 
" style="fill:none;stroke:#1764ab;stroke-linecap:square;stroke-width:1.5;"/>
   </g>
   <g id="line2d_50">
    <path clip-path="url(#pb02d42904c)" d="M 102.055625 407.79325 
L 113.891989 363.39925 
L 125.728352 352.82925 
L 137.564716 339.440583 
L 149.40108 303.67875 
L 161.237443 290.67765 
L 173.073807 254.175917 
L 184.91017 262.53125 
L 196.746534 282.53875 
L 208.582898 281.423028 
L 220.419261 304.84145 
L 232.255625 307.858705 
L 244.091989 295.046583 
L 255.928352 301.605404 
L 267.764716 286.99325 
L 279.60108 294.48285 
L 291.437443 290.99475 
L 303.273807 302.963721 
L 315.11017 322.411139 
L 326.946534 326.793671 
L 338.782898 337.18565 
L 350.619261 335.413917 
L 362.455625 329.286977 
L 374.291989 323.23325 
L 386.128352 312.575167 
L 397.964716 317.90597 
L 409.80108 304.776404 
L 421.637443 290.270509 
L 433.473807 278.83925 
L 445.31017 269.800078 
L 457.146534 286.308717 
L 468.982898 310.208282 
L 480.819261 300.705937 
L 492.655625 312.791371 
" style="fill:none;stroke:#1764ab;stroke-linecap:square;stroke-width:1.5;"/>
   </g>
   <g id="line2d_51">
    <path clip-path="url(#pb02d42904c)" d="M 102.055625 280.95325 
L 113.891989 352.82925 
L 125.728352 346.48725 
L 137.564716 357.05725 
L 149.40108 336.97425 
L 161.237443 351.98365 
L 173.073807 366.217917 
L 184.91017 357.66125 
L 196.746534 359.964 
L 208.582898 321.823917 
L 220.419261 323.44465 
L 232.255625 334.571977 
L 244.091989 317.067417 
L 255.928352 312.66325 
L 267.764716 297.11025 
L 279.60108 285.60405 
L 291.437443 280.42475 
L 303.273807 280.207132 
L 315.11017 295.046583 
L 326.946534 292.747145 
L 338.782898 306.10985 
L 350.619261 288.50325 
L 362.455625 295.366886 
L 374.291989 286.835685 
L 386.128352 306.761667 
L 397.964716 314.01621 
L 409.80108 313.395019 
L 421.637443 298.726509 
L 433.473807 301.18725 
L 445.31017 281.317733 
L 457.146534 274.963583 
L 468.982898 272.770024 
L 480.819261 280.556875 
L 492.655625 293.188826 
" style="fill:none;stroke:#1764ab;stroke-linecap:square;stroke-width:1.5;"/>
   </g>
   <g id="line2d_52">
    <path clip-path="url(#pb02d42904c)" d="M 102.055625 293.63725 
L 113.891989 194.27925 
L 125.728352 178.42425 
L 137.564716 209.07725 
L 149.40108 189.52275 
L 161.237443 218.37885 
L 173.073807 234.092917 
L 184.91017 255.88725 
L 196.746534 265.62675 
L 208.582898 294.107028 
L 220.419261 286.44965 
L 232.255625 278.647068 
L 244.091989 272.321083 
L 255.928352 278.026173 
L 267.764716 281.70825 
L 279.60108 284.617517 
L 291.437443 284.3885 
L 303.273807 289.036191 
L 315.11017 303.620028 
L 326.946534 295.417461 
L 338.782898 298.18235 
L 350.619261 291.321917 
L 362.455625 303.726795 
L 374.291989 297.681424 
L 386.128352 288.968833 
L 397.964716 292.11517 
L 409.80108 283.799019 
L 421.637443 288.626287 
L 433.473807 286.31375 
L 445.31017 295.605457 
L 457.146534 298.781317 
L 468.982898 301.547702 
L 480.819261 301.56475 
L 492.655625 298.633977 
" style="fill:none;stroke:#1764ab;stroke-linecap:square;stroke-width:1.5;"/>
   </g>
   <g id="line2d_53">
    <path clip-path="url(#pb02d42904c)" d="M 102.055625 230.21725 
L 113.891989 255.58525 
L 125.728352 245.01525 
L 137.564716 228.10325 
L 149.40108 241.84425 
L 161.237443 264.88685 
L 173.073807 304.559583 
L 184.91017 313.87125 
L 196.746534 319.2695 
L 208.582898 335.91725 
L 220.419261 337.18565 
L 232.255625 327.653432 
L 244.091989 298.92225 
L 255.928352 276.887865 
L 267.764716 278.23525 
L 279.60108 285.744983 
L 291.437443 288.88075 
L 303.273807 291.647603 
L 315.11017 293.284917 
L 326.946534 300.535566 
L 338.782898 309.59795 
L 350.619261 319.407917 
L 362.455625 315.545977 
L 374.291989 316.431685 
L 386.128352 304.647667 
L 397.964716 287.88717 
L 409.80108 286.156942 
L 421.637443 287.92162 
L 433.473807 291.82525 
L 445.31017 299.833457 
L 457.146534 306.884983 
L 468.982898 303.661702 
L 480.819261 292.249937 
L 492.655625 280.248583 
" style="fill:none;stroke:#1764ab;stroke-linecap:square;stroke-width:1.5;"/>
   </g>
   <g id="line2d_54">
    <path clip-path="url(#pb02d42904c)" d="M 102.055625 344.37325 
L 113.891989 386.65325 
L 125.728352 363.39925 
L 137.564716 360.580583 
L 149.40108 371.85525 
L 161.237443 374.81485 
L 173.073807 362.694583 
L 184.91017 360.07725 
L 196.746534 357.3215 
L 208.582898 335.212583 
L 220.419261 339.51105 
L 232.255625 351.483977 
L 244.091989 351.067583 
L 255.928352 351.365712 
L 267.764716 352.22525 
L 279.60108 344.936983 
L 291.437443 346.355125 
L 303.273807 338.901721 
L 315.11017 339.558028 
L 326.946534 340.256513 
L 338.782898 338.66545 
L 350.619261 343.366583 
L 362.455625 339.760886 
L 374.291989 332.700293 
L 386.128352 331.16075 
L 397.964716 333.63413 
L 409.80108 342.991019 
L 421.637443 332.159028 
L 433.473807 325.64925 
L 445.31017 329.79394 
L 457.146534 325.488183 
L 468.982898 320.914669 
L 480.819261 318.873125 
L 492.655625 334.443856 
" style="fill:none;stroke:#94c4df;stroke-linecap:square;stroke-width:1.5;"/>
   </g>
   <g id="line2d_55">
    <path clip-path="url(#pb02d42904c)" d="M 102.055625 344.37325 
L 113.891989 367.62725 
L 125.728352 375.02625 
L 137.564716 338.03125 
L 149.40108 323.76175 
L 161.237443 316.46845 
L 173.073807 298.569917 
L 184.91017 296.35525 
L 196.746534 312.13475 
L 208.582898 345.547694 
L 220.419261 340.77945 
L 232.255625 349.369977 
L 244.091989 355.295583 
L 255.928352 370.229096 
L 267.764716 359.02025 
L 279.60108 346.346317 
L 291.437443 342.391375 
L 303.273807 330.321368 
L 315.11017 330.63225 
L 326.946534 332.690618 
L 338.782898 337.18565 
L 350.619261 330.78325 
L 362.455625 325.923795 
L 374.291989 335.733424 
L 386.128352 322.880917 
L 397.964716 329.57525 
L 409.80108 348.032096 
L 421.637443 346.643843 
L 433.473807 350.86625 
L 445.31017 351.444216 
L 457.146534 347.896583 
L 468.982898 340.690798 
L 480.819261 328.584312 
L 492.655625 345.974765 
" style="fill:none;stroke:#94c4df;stroke-linecap:square;stroke-width:1.5;"/>
   </g>
   <g id="line2d_56">
    <path clip-path="url(#pb02d42904c)" d="M 102.055625 407.79325 
L 113.891989 319.00525 
L 125.728352 353.88625 
L 137.564716 338.735917 
L 149.40108 366.57025 
L 161.237443 368.05005 
L 173.073807 364.45625 
L 184.91017 352.82925 
L 196.746534 343.052 
L 208.582898 325.582139 
L 220.419261 325.34725 
L 232.255625 334.187614 
L 244.091989 317.41975 
L 255.928352 318.842635 
L 267.764716 308.43525 
L 279.60108 325.629117 
L 291.437443 325.215125 
L 303.273807 327.088191 
L 315.11017 337.561472 
L 326.946534 326.793671 
L 338.782898 315.62285 
L 350.619261 336.319917 
L 362.455625 343.027977 
L 374.291989 337.571685 
L 386.128352 330.808417 
L 397.964716 337.94669 
L 409.80108 335.91725 
L 421.637443 345.86088 
L 433.473807 353.50875 
L 445.31017 361.358147 
L 457.146534 352.547383 
L 468.982898 341.986476 
L 480.819261 337.172437 
L 492.655625 355.327614 
" style="fill:none;stroke:#94c4df;stroke-linecap:square;stroke-width:1.5;"/>
   </g>
   <g id="line2d_57">
    <path clip-path="url(#pb02d42904c)" d="M 102.055625 331.68925 
L 113.891989 392.99525 
L 125.728352 380.31125 
L 137.564716 374.673917 
L 149.40108 349.12975 
L 161.237443 368.47285 
L 173.073807 361.989917 
L 184.91017 370.34525 
L 196.746534 357.3215 
L 208.582898 340.849917 
L 220.419261 346.91005 
L 232.255625 347.063795 
L 244.091989 342.963917 
L 255.928352 345.023712 
L 267.764716 348.60125 
L 279.60108 352.124583 
L 291.437443 353.88625 
L 303.273807 354.197132 
L 315.11017 351.419917 
L 326.946534 347.154829 
L 338.782898 346.48725 
L 350.619261 344.97725 
L 362.455625 344.661523 
L 374.291989 339.777598 
L 386.128352 331.248833 
L 397.964716 344.62693 
L 409.80108 339.820019 
L 421.637443 343.355398 
L 433.473807 344.44875 
L 445.31017 336.063043 
L 457.146534 320.69645 
L 468.982898 320.573702 
L 480.819261 308.501312 
L 492.655625 327.973735 
" style="fill:none;stroke:#94c4df;stroke-linecap:square;stroke-width:1.5;"/>
   </g>
   <g id="line2d_58">
    <path clip-path="url(#pb02d42904c)" d="M 102.055625 319.00525 
L 113.891989 365.51325 
L 125.728352 349.65825 
L 137.564716 335.212583 
L 149.40108 324.81875 
L 161.237443 310.97205 
L 173.073807 321.471583 
L 184.91017 338.63525 
L 196.746534 344.37325 
L 208.582898 322.528583 
L 220.419261 330.20945 
L 232.255625 344.949795 
L 244.091989 342.78775 
L 255.928352 344.048019 
L 267.764716 355.69825 
L 279.60108 365.09045 
L 291.437443 354.282625 
L 303.273807 354.818897 
L 315.11017 341.084806 
L 326.946534 347.711145 
L 338.782898 345.11315 
L 350.619261 328.06525 
L 362.455625 332.457977 
L 374.291989 325.531076 
L 386.128352 320.238417 
L 397.964716 334.56429 
L 409.80108 330.469635 
L 421.637443 340.536731 
L 433.473807 343.99575 
L 445.31017 347.799388 
L 457.146534 332.53485 
L 468.982898 326.574734 
L 480.819261 321.713812 
L 492.655625 333.034523 
" style="fill:none;stroke:#94c4df;stroke-linecap:square;stroke-width:1.5;"/>
   </g>
   <g id="line2d_59">
    <path clip-path="url(#pb02d42904c)" d="M 102.055625 242.90125 
L 113.891989 287.29525 
L 125.728352 330.63225 
L 137.564716 327.46125 
L 149.40108 332.74625 
L 161.237443 358.32565 
L 173.073807 362.694583 
L 184.91017 347.99725 
L 196.746534 369.21275 
L 208.582898 350.950139 
L 220.419261 351.98365 
L 232.255625 337.646886 
L 244.091989 342.435417 
L 255.928352 338.356481 
L 267.764716 330.48125 
L 279.60108 353.25205 
L 291.437443 351.24375 
L 303.273807 352.953603 
L 315.11017 352.946694 
L 326.946534 350.492724 
L 338.782898 344.37325 
L 350.619261 344.574583 
L 362.455625 335.91725 
L 374.291989 329.115685 
L 386.128352 320.766917 
L 397.964716 326.70021 
L 409.80108 330.144404 
L 421.637443 317.987398 
L 433.473807 315.38125 
L 445.31017 318.713664 
L 457.146534 326.61565 
L 468.982898 334.553379 
L 480.819261 332.878375 
L 492.655625 344.629492 
" style="fill:none;stroke:#94c4df;stroke-linecap:square;stroke-width:1.5;"/>
   </g>
   <g id="line2d_60">
    <path clip-path="url(#pb02d42904c)" d="M 102.055625 433.16125 
L 113.891989 401.45125 
L 125.728352 366.57025 
L 137.564716 353.533917 
L 149.40108 377.14025 
L 161.237443 359.59405 
L 173.073807 332.74625 
L 184.91017 341.05125 
L 196.746534 339.61675 
L 208.582898 325.817028 
L 220.419261 337.60845 
L 232.255625 337.070341 
L 244.091989 346.134917 
L 255.928352 344.861096 
L 267.764716 340.14525 
L 279.60108 357.620983 
L 291.437443 363.39925 
L 303.273807 354.570191 
L 315.11017 350.362917 
L 326.946534 345.040829 
L 338.782898 345.32455 
L 350.619261 345.27925 
L 362.455625 343.220159 
L 374.291989 343.45412 
L 386.128352 340.321417 
L 397.964716 336.42461 
L 409.80108 334.616327 
L 421.637443 349.853991 
L 433.473807 338.63525 
L 445.31017 344.081664 
L 457.146534 341.20225 
L 468.982898 338.713185 
L 480.819261 339.154312 
L 492.655625 353.405795 
" style="fill:none;stroke:#94c4df;stroke-linecap:square;stroke-width:1.5;"/>
   </g>
   <g id="line2d_61">
    <path clip-path="url(#pb02d42904c)" d="M 102.055625 331.68925 
L 113.891989 373.96925 
L 125.728352 354.94325 
L 137.564716 348.60125 
L 149.40108 352.30075 
L 161.237443 353.67485 
L 173.073807 343.31625 
L 184.91017 341.05125 
L 196.746534 329.04675 
L 208.582898 333.333472 
L 220.419261 333.80325 
L 232.255625 339.376523 
L 244.091989 329.222917 
L 255.928352 345.348942 
L 267.764716 334.40725 
L 279.60108 333.239517 
L 291.437443 338.163375 
L 303.273807 330.197015 
L 315.11017 336.856806 
L 326.946534 350.047671 
L 338.782898 346.80435 
L 350.619261 340.648583 
L 362.455625 331.497068 
L 374.291989 329.299511 
L 386.128352 331.68925 
L 397.964716 344.11957 
L 409.80108 338.925635 
L 421.637443 337.091694 
L 433.473807 336.37025 
L 445.31017 330.377112 
L 457.146534 334.86025 
L 468.982898 324.597121 
L 480.819261 331.821375 
L 492.655625 345.718523 
" style="fill:none;stroke:#94c4df;stroke-linecap:square;stroke-width:1.5;"/>
   </g>
   <g id="line2d_62">
    <path clip-path="url(#pb02d42904c)" d="M 102.055625 331.68925 
L 113.891989 333.80325 
L 125.728352 308.43525 
L 137.564716 359.17125 
L 149.40108 328.51825 
L 161.237443 306.32125 
L 173.073807 326.756583 
L 184.91017 337.72925 
L 196.746534 353.622 
L 208.582898 357.05725 
L 220.419261 348.38985 
L 232.255625 348.60125 
L 244.091989 343.140083 
L 255.928352 332.664942 
L 267.764716 333.04825 
L 279.60108 324.219783 
L 291.437443 310.417125 
L 303.273807 311.419721 
L 315.11017 327.696139 
L 326.946534 328.017566 
L 338.782898 319.85085 
L 350.619261 338.131917 
L 362.455625 340.721795 
L 374.291989 348.417424 
L 386.128352 340.321417 
L 397.964716 342.85117 
L 409.80108 340.063942 
L 421.637443 333.020287 
L 433.473807 336.29475 
L 445.31017 347.289112 
L 457.146534 341.62505 
L 468.982898 338.98596 
L 480.819261 332.349875 
L 492.655625 345.206038 
" style="fill:none;stroke:#94c4df;stroke-linecap:square;stroke-width:1.5;"/>
   </g>
   <g id="line2d_63">
    <path clip-path="url(#pb02d42904c)" d="M 102.055625 344.37325 
L 113.891989 323.23325 
L 125.728352 311.60625 
L 137.564716 346.48725 
L 149.40108 316.36275 
L 161.237443 330.84365 
L 173.073807 342.963917 
L 184.91017 320.51525 
L 196.746534 339.3525 
L 208.582898 352.82925 
L 220.419261 369.74125 
L 232.255625 361.477432 
L 244.091989 366.57025 
L 255.928352 354.455404 
L 267.764716 336.67225 
L 279.60108 336.199117 
L 291.437443 334.0675 
L 303.273807 338.155603 
L 315.11017 339.910361 
L 326.946534 341.702934 
L 338.782898 358.74845 
L 350.619261 345.88325 
L 362.455625 343.220159 
L 374.291989 331.68925 
L 386.128352 322.4405 
L 397.964716 328.64509 
L 409.80108 323.721096 
L 421.637443 333.333472 
L 433.473807 341.05125 
L 445.31017 329.137871 
L 457.146534 335.91725 
L 468.982898 335.098927 
L 480.819261 321.912 
L 492.655625 341.938947 
" style="fill:none;stroke:#94c4df;stroke-linecap:square;stroke-width:1.5;"/>
   </g>
   <g id="line2d_64">
    <path clip-path="url(#pb02d42904c)" d="M 102.055625 433.16125 
L 113.891989 433.16125 
L 125.728352 433.16125 
L 137.564716 433.16125 
L 149.40108 433.16125 
L 161.237443 433.16125 
L 173.073807 433.16125 
L 184.91017 433.16125 
L 196.746534 433.16125 
L 208.582898 433.16125 
L 220.419261 433.16125 
L 232.255625 433.16125 
L 244.091989 433.16125 
L 255.928352 433.16125 
L 267.764716 433.16125 
L 279.60108 433.16125 
L 291.437443 433.16125 
L 303.273807 433.16125 
L 315.11017 433.16125 
L 326.946534 433.16125 
L 338.782898 433.16125 
L 350.619261 433.16125 
L 362.455625 433.16125 
L 374.291989 433.16125 
L 386.128352 433.16125 
L 397.964716 433.16125 
L 409.80108 433.16125 
L 421.637443 433.16125 
L 433.473807 433.16125 
L 445.31017 433.16125 
L 457.146534 433.16125 
L 468.982898 433.16125 
L 480.819261 433.16125 
L 492.655625 433.16125 
" style="fill:none;stroke:#000000;stroke-linecap:square;stroke-width:1.5;"/>
   </g>
   <g id="line2d_65">
    <path clip-path="url(#pb02d42904c)" d="M 102.055625 433.16125 
L 113.891989 433.16125 
L 125.728352 433.16125 
L 137.564716 433.16125 
L 149.40108 433.16125 
L 161.237443 433.16125 
L 173.073807 433.16125 
L 184.91017 433.16125 
L 196.746534 433.16125 
L 208.582898 433.16125 
L 220.419261 433.16125 
L 232.255625 433.16125 
L 244.091989 433.16125 
L 255.928352 433.16125 
L 267.764716 433.16125 
L 279.60108 433.16125 
L 291.437443 433.16125 
L 303.273807 433.16125 
L 315.11017 433.16125 
L 326.946534 433.16125 
L 338.782898 433.16125 
L 350.619261 433.16125 
L 362.455625 433.16125 
L 374.291989 433.16125 
L 386.128352 433.16125 
L 397.964716 433.16125 
L 409.80108 433.16125 
L 421.637443 433.16125 
L 433.473807 433.16125 
L 445.31017 433.16125 
L 457.146534 433.16125 
L 468.982898 433.16125 
L 480.819261 433.16125 
L 492.655625 433.16125 
" style="fill:none;stroke:#000000;stroke-linecap:square;stroke-width:1.5;"/>
   </g>
   <g id="line2d_66">
    <path clip-path="url(#pb02d42904c)" d="M 102.055625 433.16125 
L 113.891989 433.16125 
L 125.728352 433.16125 
L 137.564716 433.16125 
L 149.40108 433.16125 
L 161.237443 433.16125 
L 173.073807 433.16125 
L 184.91017 433.16125 
L 196.746534 433.16125 
L 208.582898 433.16125 
L 220.419261 433.16125 
L 232.255625 433.16125 
L 244.091989 433.16125 
L 255.928352 433.16125 
L 267.764716 433.16125 
L 279.60108 433.16125 
L 291.437443 433.16125 
L 303.273807 433.16125 
L 315.11017 433.16125 
L 326.946534 433.16125 
L 338.782898 433.16125 
L 350.619261 433.16125 
L 362.455625 433.16125 
L 374.291989 433.16125 
L 386.128352 433.16125 
L 397.964716 433.16125 
L 409.80108 433.16125 
L 421.637443 433.16125 
L 433.473807 433.16125 
L 445.31017 433.16125 
L 457.146534 433.16125 
L 468.982898 433.16125 
L 480.819261 433.16125 
L 492.655625 433.16125 
" style="fill:none;stroke:#000000;stroke-linecap:square;stroke-width:1.5;"/>
   </g>
   <g id="line2d_67">
    <path clip-path="url(#pb02d42904c)" d="M 102.055625 433.16125 
L 113.891989 433.16125 
L 125.728352 433.16125 
L 137.564716 433.16125 
L 149.40108 433.16125 
L 161.237443 433.16125 
L 173.073807 433.16125 
L 184.91017 433.16125 
L 196.746534 433.16125 
L 208.582898 433.16125 
L 220.419261 433.16125 
L 232.255625 433.16125 
L 244.091989 433.16125 
L 255.928352 433.16125 
L 267.764716 433.16125 
L 279.60108 433.16125 
L 291.437443 433.16125 
L 303.273807 433.16125 
L 315.11017 433.16125 
L 326.946534 433.16125 
L 338.782898 433.16125 
L 350.619261 433.16125 
L 362.455625 433.16125 
L 374.291989 433.16125 
L 386.128352 433.16125 
L 397.964716 433.16125 
L 409.80108 433.16125 
L 421.637443 433.16125 
L 433.473807 433.16125 
L 445.31017 433.16125 
L 457.146534 433.16125 
L 468.982898 433.16125 
L 480.819261 433.16125 
L 492.655625 433.16125 
" style="fill:none;stroke:#000000;stroke-linecap:square;stroke-width:1.5;"/>
   </g>
   <g id="line2d_68">
    <path clip-path="url(#pb02d42904c)" d="M 102.055625 433.16125 
L 113.891989 433.16125 
L 125.728352 433.16125 
L 137.564716 433.16125 
L 149.40108 433.16125 
L 161.237443 433.16125 
L 173.073807 433.16125 
L 184.91017 433.16125 
L 196.746534 433.16125 
L 208.582898 433.16125 
L 220.419261 433.16125 
L 232.255625 433.16125 
L 244.091989 433.16125 
L 255.928352 433.16125 
L 267.764716 433.16125 
L 279.60108 433.16125 
L 291.437443 433.16125 
L 303.273807 433.16125 
L 315.11017 433.16125 
L 326.946534 433.16125 
L 338.782898 433.16125 
L 350.619261 433.16125 
L 362.455625 433.16125 
L 374.291989 433.16125 
L 386.128352 433.16125 
L 397.964716 433.16125 
L 409.80108 433.16125 
L 421.637443 433.16125 
L 433.473807 433.16125 
L 445.31017 433.16125 
L 457.146534 433.16125 
L 468.982898 433.16125 
L 480.819261 433.16125 
L 492.655625 433.16125 
" style="fill:none;stroke:#000000;stroke-linecap:square;stroke-width:1.5;"/>
   </g>
   <g id="line2d_69">
    <path clip-path="url(#pb02d42904c)" d="M 102.055625 433.16125 
L 113.891989 433.16125 
L 125.728352 433.16125 
L 137.564716 433.16125 
L 149.40108 433.16125 
L 161.237443 433.16125 
L 173.073807 433.16125 
L 184.91017 433.16125 
L 196.746534 433.16125 
L 208.582898 433.16125 
L 220.419261 433.16125 
L 232.255625 433.16125 
L 244.091989 433.16125 
L 255.928352 433.16125 
L 267.764716 433.16125 
L 279.60108 433.16125 
L 291.437443 433.16125 
L 303.273807 433.16125 
L 315.11017 433.16125 
L 326.946534 433.16125 
L 338.782898 433.16125 
L 350.619261 433.16125 
L 362.455625 433.16125 
L 374.291989 433.16125 
L 386.128352 433.16125 
L 397.964716 433.16125 
L 409.80108 433.16125 
L 421.637443 433.16125 
L 433.473807 433.16125 
L 445.31017 433.16125 
L 457.146534 433.16125 
L 468.982898 433.16125 
L 480.819261 433.16125 
L 492.655625 433.16125 
" style="fill:none;stroke:#000000;stroke-linecap:square;stroke-width:1.5;"/>
   </g>
   <g id="line2d_70">
    <path clip-path="url(#pb02d42904c)" d="M 102.055625 433.16125 
L 113.891989 433.16125 
L 125.728352 433.16125 
L 137.564716 433.16125 
L 149.40108 433.16125 
L 161.237443 433.16125 
L 173.073807 433.16125 
L 184.91017 433.16125 
L 196.746534 433.16125 
L 208.582898 433.16125 
L 220.419261 433.16125 
L 232.255625 433.16125 
L 244.091989 433.16125 
L 255.928352 433.16125 
L 267.764716 433.16125 
L 279.60108 433.16125 
L 291.437443 433.16125 
L 303.273807 433.16125 
L 315.11017 433.16125 
L 326.946534 433.16125 
L 338.782898 433.16125 
L 350.619261 433.16125 
L 362.455625 433.16125 
L 374.291989 433.16125 
L 386.128352 433.16125 
L 397.964716 433.16125 
L 409.80108 433.16125 
L 421.637443 433.16125 
L 433.473807 433.16125 
L 445.31017 433.16125 
L 457.146534 433.16125 
L 468.982898 433.16125 
L 480.819261 433.16125 
L 492.655625 433.16125 
" style="fill:none;stroke:#000000;stroke-linecap:square;stroke-width:1.5;"/>
   </g>
   <g id="line2d_71">
    <path clip-path="url(#pb02d42904c)" d="M 102.055625 433.16125 
L 113.891989 433.16125 
L 125.728352 433.16125 
L 137.564716 433.16125 
L 149.40108 433.16125 
L 161.237443 433.16125 
L 173.073807 433.16125 
L 184.91017 433.16125 
L 196.746534 433.16125 
L 208.582898 433.16125 
L 220.419261 433.16125 
L 232.255625 433.16125 
L 244.091989 433.16125 
L 255.928352 433.16125 
L 267.764716 433.16125 
L 279.60108 433.16125 
L 291.437443 433.16125 
L 303.273807 433.16125 
L 315.11017 433.16125 
L 326.946534 433.16125 
L 338.782898 433.16125 
L 350.619261 433.16125 
L 362.455625 433.16125 
L 374.291989 433.16125 
L 386.128352 433.16125 
L 397.964716 433.16125 
L 409.80108 433.16125 
L 421.637443 433.16125 
L 433.473807 433.16125 
L 445.31017 433.16125 
L 457.146534 433.16125 
L 468.982898 433.16125 
L 480.819261 433.16125 
L 492.655625 433.16125 
" style="fill:none;stroke:#000000;stroke-linecap:square;stroke-width:1.5;"/>
   </g>
   <g id="line2d_72">
    <path clip-path="url(#pb02d42904c)" d="M 102.055625 433.16125 
L 113.891989 433.16125 
L 125.728352 433.16125 
L 137.564716 433.16125 
L 149.40108 433.16125 
L 161.237443 433.16125 
L 173.073807 433.16125 
L 184.91017 433.16125 
L 196.746534 433.16125 
L 208.582898 433.16125 
L 220.419261 433.16125 
L 232.255625 433.16125 
L 244.091989 433.16125 
L 255.928352 433.16125 
L 267.764716 433.16125 
L 279.60108 433.16125 
L 291.437443 433.16125 
L 303.273807 433.16125 
L 315.11017 433.16125 
L 326.946534 433.16125 
L 338.782898 433.16125 
L 350.619261 433.16125 
L 362.455625 433.16125 
L 374.291989 433.16125 
L 386.128352 433.16125 
L 397.964716 433.16125 
L 409.80108 433.16125 
L 421.637443 433.16125 
L 433.473807 433.16125 
L 445.31017 433.16125 
L 457.146534 433.16125 
L 468.982898 433.16125 
L 480.819261 433.16125 
L 492.655625 433.16125 
" style="fill:none;stroke:#000000;stroke-linecap:square;stroke-width:1.5;"/>
   </g>
   <g id="line2d_73">
    <path clip-path="url(#pb02d42904c)" d="M 102.055625 433.16125 
L 113.891989 433.16125 
L 125.728352 433.16125 
L 137.564716 433.16125 
L 149.40108 433.16125 
L 161.237443 433.16125 
L 173.073807 433.16125 
L 184.91017 433.16125 
L 196.746534 433.16125 
L 208.582898 433.16125 
L 220.419261 433.16125 
L 232.255625 433.16125 
L 244.091989 433.16125 
L 255.928352 433.16125 
L 267.764716 433.16125 
L 279.60108 433.16125 
L 291.437443 433.16125 
L 303.273807 433.16125 
L 315.11017 433.16125 
L 326.946534 433.16125 
L 338.782898 433.16125 
L 350.619261 433.16125 
L 362.455625 433.16125 
L 374.291989 433.16125 
L 386.128352 433.16125 
L 397.964716 433.16125 
L 409.80108 433.16125 
L 421.637443 433.16125 
L 433.473807 433.16125 
L 445.31017 433.16125 
L 457.146534 433.16125 
L 468.982898 433.16125 
L 480.819261 433.16125 
L 492.655625 433.16125 
" style="fill:none;stroke:#000000;stroke-linecap:square;stroke-width:1.5;"/>
   </g>
   <g id="line2d_74">
    <path clip-path="url(#pb02d42904c)" d="M 90.219261 433.16125 
" style="fill:none;stroke:#000000;stroke-linecap:square;stroke-width:1.5;"/>
   </g>
   <g id="line2d_75">
    <path clip-path="url(#pb02d42904c)" d="M 90.219261 433.16125 
" style="fill:none;stroke:#d0e1f2;stroke-linecap:square;stroke-width:1.5;"/>
   </g>
   <g id="line2d_76">
    <path clip-path="url(#pb02d42904c)" d="M 90.219261 433.16125 
" style="fill:none;stroke:#94c4df;stroke-linecap:square;stroke-width:1.5;"/>
   </g>
   <g id="line2d_77">
    <path clip-path="url(#pb02d42904c)" d="M 90.219261 433.16125 
" style="fill:none;stroke:#4a98c9;stroke-linecap:square;stroke-width:1.5;"/>
   </g>
   <g id="line2d_78">
    <path clip-path="url(#pb02d42904c)" d="M 90.219261 433.16125 
" style="fill:none;stroke:#1764ab;stroke-linecap:square;stroke-width:1.5;"/>
   </g>
   <g id="line2d_79">
    <path clip-path="url(#pb02d42904c)" d="M 90.219261 433.16125 
" style="fill:none;stroke:#08306b;stroke-linecap:square;stroke-width:1.5;"/>
   </g>
   <g id="line2d_80">
    <path clip-path="url(#pb02d42904c)" d="M 90.219261 433.16125 
" style="fill:none;stroke:#000000;stroke-linecap:square;stroke-width:1.5;"/>
   </g>
   <g id="line2d_81">
    <path clip-path="url(#pb02d42904c)" d="M 90.219261 433.16125 
" style="fill:none;stroke:#000000;stroke-dasharray:1.5,2.475;stroke-dashoffset:0;stroke-width:1.5;"/>
   </g>
   <g id="line2d_82">
    <path clip-path="url(#pb02d42904c)" d="M 90.219261 433.16125 
" style="fill:none;stroke:#000000;stroke-linecap:square;stroke-width:1.5;"/>
   </g>
   <g id="line2d_83">
    <path clip-path="url(#pb02d42904c)" d="M 90.219261 433.16125 
" style="fill:none;stroke:#000000;stroke-dasharray:5.55,2.4;stroke-dashoffset:0;stroke-width:1.5;"/>
   </g>
   <g id="line2d_84">
    <path clip-path="url(#pb02d42904c)" d="M 90.219261 433.16125 
" style="fill:none;stroke:#000000;stroke-dasharray:9.6,2.4,1.5,2.4;stroke-dashoffset:0;stroke-width:1.5;"/>
   </g>
   <g id="line2d_85">
    <path clip-path="url(#pb02d42904c)" d="M 90.219261 433.16125 
" style="fill:none;stroke:#000000;stroke-dasharray:9.6,2.4,1.5,2.4;stroke-dashoffset:0;stroke-width:1.5;"/>
   </g>
   <g id="patch_3">
    <path d="M 102.055625 433.16125 
L 102.055625 52.64125 
" style="fill:none;stroke:#000000;stroke-linecap:square;stroke-linejoin:miter;stroke-width:0.8;"/>
   </g>
   <g id="patch_4">
    <path d="M 492.655625 433.16125 
L 492.655625 52.64125 
" style="fill:none;stroke:#000000;stroke-linecap:square;stroke-linejoin:miter;stroke-width:0.8;"/>
   </g>
   <g id="patch_5">
    <path d="M 102.055625 433.16125 
L 492.655625 433.16125 
" style="fill:none;stroke:#000000;stroke-linecap:square;stroke-linejoin:miter;stroke-width:0.8;"/>
   </g>
   <g id="patch_6">
    <path d="M 102.055625 52.64125 
L 492.655625 52.64125 
" style="fill:none;stroke:#000000;stroke-linecap:square;stroke-linejoin:miter;stroke-width:0.8;"/>
   </g>
   <g id="text_16">
    <!-- CD4 NORMALIZED COUNT -->
    <g transform="translate(169.58375 21.515625)scale(0.2 -0.2)">
     <use xlink:href="#Arial-BoldMT-67"/>
     <use x="72.216797" xlink:href="#Arial-BoldMT-68"/>
     <use x="144.433594" xlink:href="#Arial-BoldMT-52"/>
     <use x="200.048828" xlink:href="#Arial-BoldMT-32"/>
     <use x="227.832031" xlink:href="#Arial-BoldMT-78"/>
     <use x="300.048828" xlink:href="#Arial-BoldMT-79"/>
     <use x="377.832031" xlink:href="#Arial-BoldMT-82"/>
     <use x="450.048828" xlink:href="#Arial-BoldMT-77"/>
     <use x="533.349609" xlink:href="#Arial-BoldMT-65"/>
     <use x="605.566406" xlink:href="#Arial-BoldMT-76"/>
     <use x="666.650391" xlink:href="#Arial-BoldMT-73"/>
     <use x="694.433594" xlink:href="#Arial-BoldMT-90"/>
     <use x="755.517578" xlink:href="#Arial-BoldMT-69"/>
     <use x="822.216797" xlink:href="#Arial-BoldMT-68"/>
     <use x="894.433594" xlink:href="#Arial-BoldMT-32"/>
     <use x="922.216797" xlink:href="#Arial-BoldMT-67"/>
     <use x="994.433594" xlink:href="#Arial-BoldMT-79"/>
     <use x="1072.216797" xlink:href="#Arial-BoldMT-85"/>
     <use x="1144.433594" xlink:href="#Arial-BoldMT-78"/>
     <use x="1216.650391" xlink:href="#Arial-BoldMT-84"/>
    </g>
    <!-- ACROSS RADIUS AT TIME 7 -->
    <defs>
     <path d="M 4.25 57.859375 
L 4.25 70.609375 
L 51.171875 70.609375 
L 51.171875 60.640625 
Q 45.359375 54.9375 39.34375 44.234375 
Q 33.34375 33.546875 30.1875 21.5 
Q 27.046875 9.46875 27.09375 0 
L 13.875 0 
Q 14.203125 14.84375 19.984375 30.265625 
Q 25.78125 45.703125 35.453125 57.859375 
z
" id="Arial-BoldMT-55"/>
    </defs>
    <g transform="translate(162.361875 42.64125)scale(0.2 -0.2)">
     <use xlink:href="#Arial-BoldMT-65"/>
     <use x="72.216797" xlink:href="#Arial-BoldMT-67"/>
     <use x="144.433594" xlink:href="#Arial-BoldMT-82"/>
     <use x="216.650391" xlink:href="#Arial-BoldMT-79"/>
     <use x="294.433594" xlink:href="#Arial-BoldMT-83"/>
     <use x="361.132812" xlink:href="#Arial-BoldMT-83"/>
     <use x="427.832031" xlink:href="#Arial-BoldMT-32"/>
     <use x="455.615234" xlink:href="#Arial-BoldMT-82"/>
     <use x="527.832031" xlink:href="#Arial-BoldMT-65"/>
     <use x="600.048828" xlink:href="#Arial-BoldMT-68"/>
     <use x="672.265625" xlink:href="#Arial-BoldMT-73"/>
     <use x="700.048828" xlink:href="#Arial-BoldMT-85"/>
     <use x="772.265625" xlink:href="#Arial-BoldMT-83"/>
     <use x="838.964844" xlink:href="#Arial-BoldMT-32"/>
     <use x="866.701172" xlink:href="#Arial-BoldMT-65"/>
     <use x="938.808594" xlink:href="#Arial-BoldMT-84"/>
     <use x="999.892578" xlink:href="#Arial-BoldMT-32"/>
     <use x="1027.675781" xlink:href="#Arial-BoldMT-84"/>
     <use x="1088.759766" xlink:href="#Arial-BoldMT-73"/>
     <use x="1116.542969" xlink:href="#Arial-BoldMT-77"/>
     <use x="1199.84375" xlink:href="#Arial-BoldMT-69"/>
     <use x="1266.542969" xlink:href="#Arial-BoldMT-32"/>
     <use x="1294.326172" xlink:href="#Arial-BoldMT-55"/>
    </g>
   </g>
   <g id="legend_1">
    <g id="line2d_86">
     <path d="M 423.843125 65.739687 
L 443.843125 65.739687 
" style="fill:none;stroke:#000000;stroke-linecap:square;stroke-width:1.5;"/>
    </g>
    <g id="line2d_87"/>
    <g id="text_17">
     <!-- 0 -->
     <g transform="translate(451.843125 69.239687)scale(0.1 -0.1)">
      <use xlink:href="#DejaVuSans-48"/>
     </g>
    </g>
    <g id="line2d_88">
     <path d="M 423.843125 80.417812 
L 443.843125 80.417812 
" style="fill:none;stroke:#d0e1f2;stroke-linecap:square;stroke-width:1.5;"/>
    </g>
    <g id="line2d_89"/>
    <g id="text_18">
     <!-- 100 -->
     <g transform="translate(451.843125 83.917812)scale(0.1 -0.1)">
      <use xlink:href="#DejaVuSans-49"/>
      <use x="63.623047" xlink:href="#DejaVuSans-48"/>
      <use x="127.246094" xlink:href="#DejaVuSans-48"/>
     </g>
    </g>
    <g id="line2d_90">
     <path d="M 423.843125 95.095937 
L 443.843125 95.095937 
" style="fill:none;stroke:#94c4df;stroke-linecap:square;stroke-width:1.5;"/>
    </g>
    <g id="line2d_91"/>
    <g id="text_19">
     <!-- 500 -->
     <g transform="translate(451.843125 98.595937)scale(0.1 -0.1)">
      <use xlink:href="#DejaVuSans-53"/>
      <use x="63.623047" xlink:href="#DejaVuSans-48"/>
      <use x="127.246094" xlink:href="#DejaVuSans-48"/>
     </g>
    </g>
    <g id="line2d_92">
     <path d="M 423.843125 109.774062 
L 443.843125 109.774062 
" style="fill:none;stroke:#4a98c9;stroke-linecap:square;stroke-width:1.5;"/>
    </g>
    <g id="line2d_93"/>
    <g id="text_20">
     <!-- 1000 -->
     <g transform="translate(451.843125 113.274062)scale(0.1 -0.1)">
      <use xlink:href="#DejaVuSans-49"/>
      <use x="63.623047" xlink:href="#DejaVuSans-48"/>
      <use x="127.246094" xlink:href="#DejaVuSans-48"/>
      <use x="190.869141" xlink:href="#DejaVuSans-48"/>
     </g>
    </g>
    <g id="line2d_94">
     <path d="M 423.843125 124.452187 
L 443.843125 124.452187 
" style="fill:none;stroke:#1764ab;stroke-linecap:square;stroke-width:1.5;"/>
    </g>
    <g id="line2d_95"/>
    <g id="text_21">
     <!-- 5000 -->
     <g transform="translate(451.843125 127.952187)scale(0.1 -0.1)">
      <use xlink:href="#DejaVuSans-53"/>
      <use x="63.623047" xlink:href="#DejaVuSans-48"/>
      <use x="127.246094" xlink:href="#DejaVuSans-48"/>
      <use x="190.869141" xlink:href="#DejaVuSans-48"/>
     </g>
    </g>
    <g id="line2d_96">
     <path d="M 423.843125 139.130312 
L 443.843125 139.130312 
" style="fill:none;stroke:#08306b;stroke-linecap:square;stroke-width:1.5;"/>
    </g>
    <g id="line2d_97"/>
    <g id="text_22">
     <!-- 10000 -->
     <g transform="translate(451.843125 142.630312)scale(0.1 -0.1)">
      <use xlink:href="#DejaVuSans-49"/>
      <use x="63.623047" xlink:href="#DejaVuSans-48"/>
      <use x="127.246094" xlink:href="#DejaVuSans-48"/>
      <use x="190.869141" xlink:href="#DejaVuSans-48"/>
      <use x="254.492188" xlink:href="#DejaVuSans-48"/>
     </g>
    </g>
    <g id="line2d_98">
     <path d="M 423.843125 153.808437 
L 443.843125 153.808437 
" style="fill:none;stroke:#000000;stroke-linecap:square;stroke-width:1.5;"/>
    </g>
    <g id="line2d_99"/>
    <g id="text_23">
     <!-- 0 -->
     <g transform="translate(451.843125 157.308437)scale(0.1 -0.1)">
      <use xlink:href="#DejaVuSans-48"/>
     </g>
    </g>
    <g id="line2d_100">
     <path d="M 423.843125 168.486562 
L 443.843125 168.486562 
" style="fill:none;stroke:#000000;stroke-dasharray:1.5,2.475;stroke-dashoffset:0;stroke-width:1.5;"/>
    </g>
    <g id="line2d_101"/>
    <g id="text_24">
     <!-- 250 -->
     <g transform="translate(451.843125 171.986562)scale(0.1 -0.1)">
      <use xlink:href="#DejaVuSans-50"/>
      <use x="63.623047" xlink:href="#DejaVuSans-53"/>
      <use x="127.246094" xlink:href="#DejaVuSans-48"/>
     </g>
    </g>
    <g id="line2d_102">
     <path d="M 423.843125 183.164687 
L 443.843125 183.164687 
" style="fill:none;stroke:#000000;stroke-linecap:square;stroke-width:1.5;"/>
    </g>
    <g id="line2d_103"/>
    <g id="text_25">
     <!-- 500 -->
     <g transform="translate(451.843125 186.664687)scale(0.1 -0.1)">
      <use xlink:href="#DejaVuSans-53"/>
      <use x="63.623047" xlink:href="#DejaVuSans-48"/>
      <use x="127.246094" xlink:href="#DejaVuSans-48"/>
     </g>
    </g>
    <g id="line2d_104">
     <path d="M 423.843125 197.842812 
L 443.843125 197.842812 
" style="fill:none;stroke:#000000;stroke-dasharray:5.55,2.4;stroke-dashoffset:0;stroke-width:1.5;"/>
    </g>
    <g id="line2d_105"/>
    <g id="text_26">
     <!-- 1000 -->
     <g transform="translate(451.843125 201.342812)scale(0.1 -0.1)">
      <use xlink:href="#DejaVuSans-49"/>
      <use x="63.623047" xlink:href="#DejaVuSans-48"/>
      <use x="127.246094" xlink:href="#DejaVuSans-48"/>
      <use x="190.869141" xlink:href="#DejaVuSans-48"/>
     </g>
    </g>
    <g id="line2d_106">
     <path d="M 423.843125 212.520937 
L 443.843125 212.520937 
" style="fill:none;stroke:#000000;stroke-dasharray:9.6,2.4,1.5,2.4;stroke-dashoffset:0;stroke-width:1.5;"/>
    </g>
    <g id="line2d_107"/>
    <g id="text_27">
     <!-- 5000 -->
     <g transform="translate(451.843125 216.020937)scale(0.1 -0.1)">
      <use xlink:href="#DejaVuSans-53"/>
      <use x="63.623047" xlink:href="#DejaVuSans-48"/>
      <use x="127.246094" xlink:href="#DejaVuSans-48"/>
      <use x="190.869141" xlink:href="#DejaVuSans-48"/>
     </g>
    </g>
    <g id="line2d_108">
     <path d="M 423.843125 227.199062 
L 443.843125 227.199062 
" style="fill:none;stroke:#000000;stroke-dasharray:9.6,2.4,1.5,2.4;stroke-dashoffset:0;stroke-width:1.5;"/>
    </g>
    <g id="line2d_109"/>
    <g id="text_28">
     <!-- 10000 -->
     <g transform="translate(451.843125 230.699062)scale(0.1 -0.1)">
      <use xlink:href="#DejaVuSans-49"/>
      <use x="63.623047" xlink:href="#DejaVuSans-48"/>
      <use x="127.246094" xlink:href="#DejaVuSans-48"/>
      <use x="190.869141" xlink:href="#DejaVuSans-48"/>
      <use x="254.492188" xlink:href="#DejaVuSans-48"/>
     </g>
    </g>
   </g>
  </g>
 </g>
 <defs>
  <clipPath id="pb02d42904c">
   <rect height="380.52" width="390.6" x="102.055625" y="52.64125"/>
  </clipPath>
 </defs>
</svg>
