<?xml version="1.0" encoding="utf-8" standalone="no"?>
<!DOCTYPE svg PUBLIC "-//W3C//DTD SVG 1.1//EN"
  "http://www.w3.org/Graphics/SVG/1.1/DTD/svg11.dtd">
<!-- Created with matplotlib (https://matplotlib.org/) -->
<svg height="504.658125pt" version="1.1" viewBox="0 0 503.355625 504.658125" width="503.355625pt" xmlns="http://www.w3.org/2000/svg" xmlns:xlink="http://www.w3.org/1999/xlink">
 <defs>
  <style type="text/css">
*{stroke-linecap:butt;stroke-linejoin:round;}
  </style>
 </defs>
 <g id="figure_1">
  <g id="patch_1">
   <path d="M 0 504.658125 
L 503.355625 504.658125 
L 503.355625 -0 
L 0 -0 
z
" style="fill:#ffffff;"/>
  </g>
  <g id="axes_1">
   <g id="patch_2">
    <path d="M 102.055625 433.16125 
L 492.655625 433.16125 
L 492.655625 52.64125 
L 102.055625 52.64125 
z
" style="fill:#ffffff;"/>
   </g>
   <g id="matplotlib.axis_1">
    <g id="xtick_1">
     <g id="line2d_1">
      <defs>
       <path d="M 0 0 
L 0 3.5 
" id="me68ad89342" style="stroke:#000000;stroke-width:0.8;"/>
      </defs>
      <g>
       <use style="stroke:#000000;stroke-width:0.8;" x="149.40108" xlink:href="#me68ad89342" y="433.16125"/>
      </g>
     </g>
     <g id="text_1">
      <!-- 5 -->
      <defs>
       <path d="M 10.796875 72.90625 
L 49.515625 72.90625 
L 49.515625 64.59375 
L 19.828125 64.59375 
L 19.828125 46.734375 
Q 21.96875 47.46875 24.109375 47.828125 
Q 26.265625 48.1875 28.421875 48.1875 
Q 40.625 48.1875 47.75 41.5 
Q 54.890625 34.8125 54.890625 23.390625 
Q 54.890625 11.625 47.5625 5.09375 
Q 40.234375 -1.421875 26.90625 -1.421875 
Q 22.3125 -1.421875 17.546875 -0.640625 
Q 12.796875 0.140625 7.71875 1.703125 
L 7.71875 11.625 
Q 12.109375 9.234375 16.796875 8.0625 
Q 21.484375 6.890625 26.703125 6.890625 
Q 35.15625 6.890625 40.078125 11.328125 
Q 45.015625 15.765625 45.015625 23.390625 
Q 45.015625 31 40.078125 35.4375 
Q 35.15625 39.890625 26.703125 39.890625 
Q 22.75 39.890625 18.8125 39.015625 
Q 14.890625 38.140625 10.796875 36.28125 
z
" id="DejaVuSans-53"/>
      </defs>
      <g transform="translate(139.85733 462.956562)scale(0.3 -0.3)">
       <use xlink:href="#DejaVuSans-53"/>
      </g>
     </g>
    </g>
    <g id="xtick_2">
     <g id="line2d_2">
      <g>
       <use style="stroke:#000000;stroke-width:0.8;" x="208.582898" xlink:href="#me68ad89342" y="433.16125"/>
      </g>
     </g>
     <g id="text_2">
      <!-- 10 -->
      <defs>
       <path d="M 12.40625 8.296875 
L 28.515625 8.296875 
L 28.515625 63.921875 
L 10.984375 60.40625 
L 10.984375 69.390625 
L 28.421875 72.90625 
L 38.28125 72.90625 
L 38.28125 8.296875 
L 54.390625 8.296875 
L 54.390625 0 
L 12.40625 0 
z
" id="DejaVuSans-49"/>
       <path d="M 31.78125 66.40625 
Q 24.171875 66.40625 20.328125 58.90625 
Q 16.5 51.421875 16.5 36.375 
Q 16.5 21.390625 20.328125 13.890625 
Q 24.171875 6.390625 31.78125 6.390625 
Q 39.453125 6.390625 43.28125 13.890625 
Q 47.125 21.390625 47.125 36.375 
Q 47.125 51.421875 43.28125 58.90625 
Q 39.453125 66.40625 31.78125 66.40625 
z
M 31.78125 74.21875 
Q 44.046875 74.21875 50.515625 64.515625 
Q 56.984375 54.828125 56.984375 36.375 
Q 56.984375 17.96875 50.515625 8.265625 
Q 44.046875 -1.421875 31.78125 -1.421875 
Q 19.53125 -1.421875 13.0625 8.265625 
Q 6.59375 17.96875 6.59375 36.375 
Q 6.59375 54.828125 13.0625 64.515625 
Q 19.53125 74.21875 31.78125 74.21875 
z
" id="DejaVuSans-48"/>
      </defs>
      <g transform="translate(189.495398 462.956562)scale(0.3 -0.3)">
       <use xlink:href="#DejaVuSans-49"/>
       <use x="63.623047" xlink:href="#DejaVuSans-48"/>
      </g>
     </g>
    </g>
    <g id="xtick_3">
     <g id="line2d_3">
      <g>
       <use style="stroke:#000000;stroke-width:0.8;" x="267.764716" xlink:href="#me68ad89342" y="433.16125"/>
      </g>
     </g>
     <g id="text_3">
      <!-- 15 -->
      <g transform="translate(248.677216 462.956562)scale(0.3 -0.3)">
       <use xlink:href="#DejaVuSans-49"/>
       <use x="63.623047" xlink:href="#DejaVuSans-53"/>
      </g>
     </g>
    </g>
    <g id="xtick_4">
     <g id="line2d_4">
      <g>
       <use style="stroke:#000000;stroke-width:0.8;" x="326.946534" xlink:href="#me68ad89342" y="433.16125"/>
      </g>
     </g>
     <g id="text_4">
      <!-- 20 -->
      <defs>
       <path d="M 19.1875 8.296875 
L 53.609375 8.296875 
L 53.609375 0 
L 7.328125 0 
L 7.328125 8.296875 
Q 12.9375 14.109375 22.625 23.890625 
Q 32.328125 33.6875 34.8125 36.53125 
Q 39.546875 41.84375 41.421875 45.53125 
Q 43.3125 49.21875 43.3125 52.78125 
Q 43.3125 58.59375 39.234375 62.25 
Q 35.15625 65.921875 28.609375 65.921875 
Q 23.96875 65.921875 18.8125 64.3125 
Q 13.671875 62.703125 7.8125 59.421875 
L 7.8125 69.390625 
Q 13.765625 71.78125 18.9375 73 
Q 24.125 74.21875 28.421875 74.21875 
Q 39.75 74.21875 46.484375 68.546875 
Q 53.21875 62.890625 53.21875 53.421875 
Q 53.21875 48.921875 51.53125 44.890625 
Q 49.859375 40.875 45.40625 35.40625 
Q 44.1875 33.984375 37.640625 27.21875 
Q 31.109375 20.453125 19.1875 8.296875 
z
" id="DejaVuSans-50"/>
      </defs>
      <g transform="translate(307.859034 462.956562)scale(0.3 -0.3)">
       <use xlink:href="#DejaVuSans-50"/>
       <use x="63.623047" xlink:href="#DejaVuSans-48"/>
      </g>
     </g>
    </g>
    <g id="xtick_5">
     <g id="line2d_5">
      <g>
       <use style="stroke:#000000;stroke-width:0.8;" x="386.128352" xlink:href="#me68ad89342" y="433.16125"/>
      </g>
     </g>
     <g id="text_5">
      <!-- 25 -->
      <g transform="translate(367.040852 462.956562)scale(0.3 -0.3)">
       <use xlink:href="#DejaVuSans-50"/>
       <use x="63.623047" xlink:href="#DejaVuSans-53"/>
      </g>
     </g>
    </g>
    <g id="xtick_6">
     <g id="line2d_6">
      <g>
       <use style="stroke:#000000;stroke-width:0.8;" x="445.31017" xlink:href="#me68ad89342" y="433.16125"/>
      </g>
     </g>
     <g id="text_6">
      <!-- 30 -->
      <defs>
       <path d="M 40.578125 39.3125 
Q 47.65625 37.796875 51.625 33 
Q 55.609375 28.21875 55.609375 21.1875 
Q 55.609375 10.40625 48.1875 4.484375 
Q 40.765625 -1.421875 27.09375 -1.421875 
Q 22.515625 -1.421875 17.65625 -0.515625 
Q 12.796875 0.390625 7.625 2.203125 
L 7.625 11.71875 
Q 11.71875 9.328125 16.59375 8.109375 
Q 21.484375 6.890625 26.8125 6.890625 
Q 36.078125 6.890625 40.9375 10.546875 
Q 45.796875 14.203125 45.796875 21.1875 
Q 45.796875 27.640625 41.28125 31.265625 
Q 36.765625 34.90625 28.71875 34.90625 
L 20.21875 34.90625 
L 20.21875 43.015625 
L 29.109375 43.015625 
Q 36.375 43.015625 40.234375 45.921875 
Q 44.09375 48.828125 44.09375 54.296875 
Q 44.09375 59.90625 40.109375 62.90625 
Q 36.140625 65.921875 28.71875 65.921875 
Q 24.65625 65.921875 20.015625 65.03125 
Q 15.375 64.15625 9.8125 62.3125 
L 9.8125 71.09375 
Q 15.4375 72.65625 20.34375 73.4375 
Q 25.25 74.21875 29.59375 74.21875 
Q 40.828125 74.21875 47.359375 69.109375 
Q 53.90625 64.015625 53.90625 55.328125 
Q 53.90625 49.265625 50.4375 45.09375 
Q 46.96875 40.921875 40.578125 39.3125 
z
" id="DejaVuSans-51"/>
      </defs>
      <g transform="translate(426.22267 462.956562)scale(0.3 -0.3)">
       <use xlink:href="#DejaVuSans-51"/>
       <use x="63.623047" xlink:href="#DejaVuSans-48"/>
      </g>
     </g>
    </g>
    <g id="text_7">
     <!-- RADIUS -->
     <defs>
      <path d="M 7.328125 0 
L 7.328125 71.578125 
L 37.75 71.578125 
Q 49.21875 71.578125 54.421875 69.640625 
Q 59.625 67.71875 62.75 62.78125 
Q 65.875 57.859375 65.875 51.515625 
Q 65.875 43.453125 61.125 38.203125 
Q 56.390625 32.953125 46.96875 31.59375 
Q 51.65625 28.859375 54.703125 25.578125 
Q 57.765625 22.3125 62.9375 13.96875 
L 71.6875 0 
L 54.390625 0 
L 43.953125 15.578125 
Q 38.375 23.921875 36.328125 26.09375 
Q 34.28125 28.265625 31.984375 29.078125 
Q 29.6875 29.890625 24.703125 29.890625 
L 21.78125 29.890625 
L 21.78125 0 
z
M 21.78125 41.3125 
L 32.46875 41.3125 
Q 42.875 41.3125 45.453125 42.1875 
Q 48.046875 43.0625 49.515625 45.203125 
Q 50.984375 47.359375 50.984375 50.59375 
Q 50.984375 54.203125 49.046875 56.421875 
Q 47.125 58.640625 43.609375 59.234375 
Q 41.84375 59.46875 33.0625 59.46875 
L 21.78125 59.46875 
z
" id="Arial-BoldMT-82"/>
      <path d="M 71.828125 0 
L 56.109375 0 
L 49.859375 16.265625 
L 21.234375 16.265625 
L 15.328125 0 
L 0 0 
L 27.875 71.578125 
L 43.171875 71.578125 
z
M 45.21875 28.328125 
L 35.359375 54.890625 
L 25.6875 28.328125 
z
" id="Arial-BoldMT-65"/>
      <path d="M 7.234375 71.578125 
L 33.640625 71.578125 
Q 42.578125 71.578125 47.265625 70.21875 
Q 53.5625 68.359375 58.046875 63.625 
Q 62.546875 58.890625 64.890625 52.03125 
Q 67.234375 45.171875 67.234375 35.109375 
Q 67.234375 26.265625 65.046875 19.875 
Q 62.359375 12.0625 57.375 7.234375 
Q 53.609375 3.5625 47.21875 1.515625 
Q 42.4375 0 34.421875 0 
L 7.234375 0 
z
M 21.6875 59.46875 
L 21.6875 12.0625 
L 32.46875 12.0625 
Q 38.53125 12.0625 41.21875 12.75 
Q 44.734375 13.625 47.046875 15.71875 
Q 49.359375 17.828125 50.828125 22.625 
Q 52.296875 27.4375 52.296875 35.75 
Q 52.296875 44.046875 50.828125 48.484375 
Q 49.359375 52.9375 46.71875 55.421875 
Q 44.09375 57.90625 40.046875 58.796875 
Q 37.015625 59.46875 28.171875 59.46875 
z
" id="Arial-BoldMT-68"/>
      <path d="M 6.84375 0 
L 6.84375 71.578125 
L 21.296875 71.578125 
L 21.296875 0 
z
" id="Arial-BoldMT-73"/>
      <path d="M 7.171875 71.578125 
L 21.625 71.578125 
L 21.625 32.8125 
Q 21.625 23.578125 22.171875 20.84375 
Q 23.09375 16.453125 26.578125 13.796875 
Q 30.078125 11.140625 36.140625 11.140625 
Q 42.28125 11.140625 45.40625 13.640625 
Q 48.53125 16.15625 49.171875 19.8125 
Q 49.8125 23.484375 49.8125 31.984375 
L 49.8125 71.578125 
L 64.265625 71.578125 
L 64.265625 33.984375 
Q 64.265625 21.09375 63.09375 15.765625 
Q 61.921875 10.453125 58.765625 6.78125 
Q 55.609375 3.125 50.328125 0.953125 
Q 45.0625 -1.21875 36.578125 -1.21875 
Q 26.3125 -1.21875 21.015625 1.140625 
Q 15.71875 3.515625 12.640625 7.296875 
Q 9.578125 11.078125 8.59375 15.234375 
Q 7.171875 21.390625 7.171875 33.40625 
z
" id="Arial-BoldMT-85"/>
      <path d="M 3.609375 23.296875 
L 17.671875 24.65625 
Q 18.953125 17.578125 22.828125 14.25 
Q 26.703125 10.9375 33.296875 10.9375 
Q 40.28125 10.9375 43.8125 13.890625 
Q 47.359375 16.84375 47.359375 20.796875 
Q 47.359375 23.34375 45.875 25.125 
Q 44.390625 26.90625 40.671875 28.21875 
Q 38.140625 29.109375 29.109375 31.34375 
Q 17.484375 34.234375 12.796875 38.421875 
Q 6.203125 44.34375 6.203125 52.828125 
Q 6.203125 58.296875 9.296875 63.0625 
Q 12.40625 67.828125 18.234375 70.3125 
Q 24.078125 72.796875 32.328125 72.796875 
Q 45.796875 72.796875 52.609375 66.890625 
Q 59.421875 60.984375 59.765625 51.125 
L 45.3125 50.484375 
Q 44.390625 56 41.328125 58.421875 
Q 38.28125 60.84375 32.171875 60.84375 
Q 25.875 60.84375 22.3125 58.25 
Q 20.015625 56.59375 20.015625 53.8125 
Q 20.015625 51.265625 22.171875 49.46875 
Q 24.90625 47.171875 35.453125 44.671875 
Q 46 42.1875 51.046875 39.515625 
Q 56.109375 36.859375 58.953125 32.25 
Q 61.8125 27.640625 61.8125 20.84375 
Q 61.8125 14.703125 58.390625 9.328125 
Q 54.984375 3.953125 48.734375 1.34375 
Q 42.484375 -1.265625 33.15625 -1.265625 
Q 19.578125 -1.265625 12.296875 5 
Q 5.03125 11.28125 3.609375 23.296875 
z
" id="Arial-BoldMT-83"/>
     </defs>
     <g transform="translate(259.019688 493.51125)scale(0.2 -0.2)">
      <use xlink:href="#Arial-BoldMT-82"/>
      <use x="72.216797" xlink:href="#Arial-BoldMT-65"/>
      <use x="144.433594" xlink:href="#Arial-BoldMT-68"/>
      <use x="216.650391" xlink:href="#Arial-BoldMT-73"/>
      <use x="244.433594" xlink:href="#Arial-BoldMT-85"/>
      <use x="316.650391" xlink:href="#Arial-BoldMT-83"/>
     </g>
    </g>
   </g>
   <g id="matplotlib.axis_2">
    <g id="ytick_1">
     <g id="line2d_7">
      <defs>
       <path d="M 0 0 
L -3.5 0 
" id="mfec955c605" style="stroke:#000000;stroke-width:0.8;"/>
      </defs>
      <g>
       <use style="stroke:#000000;stroke-width:0.8;" x="102.055625" xlink:href="#mfec955c605" y="433.16125"/>
      </g>
     </g>
     <g id="text_8">
      <!-- 0 -->
      <g transform="translate(75.968125 444.558906)scale(0.3 -0.3)">
       <use xlink:href="#DejaVuSans-48"/>
      </g>
     </g>
    </g>
    <g id="ytick_2">
     <g id="line2d_8">
      <g>
       <use style="stroke:#000000;stroke-width:0.8;" x="102.055625" xlink:href="#mfec955c605" y="369.74125"/>
      </g>
     </g>
     <g id="text_9">
      <!-- 5 -->
      <g transform="translate(75.968125 381.138906)scale(0.3 -0.3)">
       <use xlink:href="#DejaVuSans-53"/>
      </g>
     </g>
    </g>
    <g id="ytick_3">
     <g id="line2d_9">
      <g>
       <use style="stroke:#000000;stroke-width:0.8;" x="102.055625" xlink:href="#mfec955c605" y="306.32125"/>
      </g>
     </g>
     <g id="text_10">
      <!-- 10 -->
      <g transform="translate(56.880625 317.718906)scale(0.3 -0.3)">
       <use xlink:href="#DejaVuSans-49"/>
       <use x="63.623047" xlink:href="#DejaVuSans-48"/>
      </g>
     </g>
    </g>
    <g id="ytick_4">
     <g id="line2d_10">
      <g>
       <use style="stroke:#000000;stroke-width:0.8;" x="102.055625" xlink:href="#mfec955c605" y="242.90125"/>
      </g>
     </g>
     <g id="text_11">
      <!-- 15 -->
      <g transform="translate(56.880625 254.298906)scale(0.3 -0.3)">
       <use xlink:href="#DejaVuSans-49"/>
       <use x="63.623047" xlink:href="#DejaVuSans-53"/>
      </g>
     </g>
    </g>
    <g id="ytick_5">
     <g id="line2d_11">
      <g>
       <use style="stroke:#000000;stroke-width:0.8;" x="102.055625" xlink:href="#mfec955c605" y="179.48125"/>
      </g>
     </g>
     <g id="text_12">
      <!-- 20 -->
      <g transform="translate(56.880625 190.878906)scale(0.3 -0.3)">
       <use xlink:href="#DejaVuSans-50"/>
       <use x="63.623047" xlink:href="#DejaVuSans-48"/>
      </g>
     </g>
    </g>
    <g id="ytick_6">
     <g id="line2d_12">
      <g>
       <use style="stroke:#000000;stroke-width:0.8;" x="102.055625" xlink:href="#mfec955c605" y="116.06125"/>
      </g>
     </g>
     <g id="text_13">
      <!-- 25 -->
      <g transform="translate(56.880625 127.458906)scale(0.3 -0.3)">
       <use xlink:href="#DejaVuSans-50"/>
       <use x="63.623047" xlink:href="#DejaVuSans-53"/>
      </g>
     </g>
    </g>
    <g id="ytick_7">
     <g id="line2d_13">
      <g>
       <use style="stroke:#000000;stroke-width:0.8;" x="102.055625" xlink:href="#mfec955c605" y="52.64125"/>
      </g>
     </g>
     <g id="text_14">
      <!-- 30 -->
      <g transform="translate(56.880625 64.038906)scale(0.3 -0.3)">
       <use xlink:href="#DejaVuSans-51"/>
       <use x="63.623047" xlink:href="#DejaVuSans-48"/>
      </g>
     </g>
    </g>
    <g id="text_15">
     <!-- CD4 LIVE NORMALIZED -->
     <defs>
      <path d="M 53.078125 26.3125 
L 67.09375 21.875 
Q 63.875 10.15625 56.375 4.46875 
Q 48.875 -1.21875 37.359375 -1.21875 
Q 23.09375 -1.21875 13.90625 8.515625 
Q 4.734375 18.265625 4.734375 35.15625 
Q 4.734375 53.03125 13.953125 62.90625 
Q 23.1875 72.796875 38.234375 72.796875 
Q 51.375 72.796875 59.578125 65.046875 
Q 64.453125 60.453125 66.890625 51.859375 
L 52.59375 48.4375 
Q 51.3125 54 47.28125 57.21875 
Q 43.265625 60.453125 37.5 60.453125 
Q 29.546875 60.453125 24.578125 54.734375 
Q 19.625 49.03125 19.625 36.234375 
Q 19.625 22.65625 24.5 16.890625 
Q 29.390625 11.140625 37.203125 11.140625 
Q 42.96875 11.140625 47.109375 14.796875 
Q 51.265625 18.453125 53.078125 26.3125 
z
" id="Arial-BoldMT-67"/>
      <path d="M 31.15625 0 
L 31.15625 14.40625 
L 1.859375 14.40625 
L 1.859375 26.421875 
L 32.90625 71.875 
L 44.4375 71.875 
L 44.4375 26.46875 
L 53.328125 26.46875 
L 53.328125 14.40625 
L 44.4375 14.40625 
L 44.4375 0 
z
M 31.15625 26.46875 
L 31.15625 50.921875 
L 14.703125 26.46875 
z
" id="Arial-BoldMT-52"/>
      <path id="Arial-BoldMT-32"/>
      <path d="M 7.671875 0 
L 7.671875 71 
L 22.125 71 
L 22.125 12.0625 
L 58.0625 12.0625 
L 58.0625 0 
z
" id="Arial-BoldMT-76"/>
      <path d="M 25.53125 0 
L -0.046875 71.578125 
L 15.625 71.578125 
L 33.734375 18.609375 
L 51.265625 71.578125 
L 66.609375 71.578125 
L 40.96875 0 
z
" id="Arial-BoldMT-86"/>
      <path d="M 7.28125 0 
L 7.28125 71.578125 
L 60.359375 71.578125 
L 60.359375 59.46875 
L 21.734375 59.46875 
L 21.734375 43.609375 
L 57.671875 43.609375 
L 57.671875 31.546875 
L 21.734375 31.546875 
L 21.734375 12.0625 
L 61.71875 12.0625 
L 61.71875 0 
z
" id="Arial-BoldMT-69"/>
      <path d="M 7.421875 0 
L 7.421875 71.578125 
L 21.484375 71.578125 
L 50.78125 23.78125 
L 50.78125 71.578125 
L 64.203125 71.578125 
L 64.203125 0 
L 49.703125 0 
L 20.84375 46.6875 
L 20.84375 0 
z
" id="Arial-BoldMT-78"/>
      <path d="M 4.34375 35.359375 
Q 4.34375 46.296875 7.625 53.71875 
Q 10.0625 59.1875 14.28125 63.53125 
Q 18.5 67.875 23.53125 69.96875 
Q 30.21875 72.796875 38.96875 72.796875 
Q 54.78125 72.796875 64.28125 62.984375 
Q 73.78125 53.171875 73.78125 35.6875 
Q 73.78125 18.359375 64.359375 8.5625 
Q 54.9375 -1.21875 39.15625 -1.21875 
Q 23.1875 -1.21875 13.765625 8.515625 
Q 4.34375 18.265625 4.34375 35.359375 
z
M 19.234375 35.84375 
Q 19.234375 23.6875 24.84375 17.40625 
Q 30.46875 11.140625 39.109375 11.140625 
Q 47.75 11.140625 53.296875 17.359375 
Q 58.84375 23.578125 58.84375 36.03125 
Q 58.84375 48.34375 53.4375 54.390625 
Q 48.046875 60.453125 39.109375 60.453125 
Q 30.171875 60.453125 24.703125 54.3125 
Q 19.234375 48.1875 19.234375 35.84375 
z
" id="Arial-BoldMT-79"/>
      <path d="M 7.078125 0 
L 7.078125 71.578125 
L 28.71875 71.578125 
L 41.703125 22.75 
L 54.546875 71.578125 
L 76.21875 71.578125 
L 76.21875 0 
L 62.796875 0 
L 62.796875 56.34375 
L 48.578125 0 
L 34.671875 0 
L 20.515625 56.34375 
L 20.515625 0 
z
" id="Arial-BoldMT-77"/>
      <path d="M 1.078125 0 
L 1.078125 13.03125 
L 38.671875 59.46875 
L 5.328125 59.46875 
L 5.328125 71.578125 
L 57.71875 71.578125 
L 57.71875 60.359375 
L 18.5 12.0625 
L 59.234375 12.0625 
L 59.234375 0 
z
" id="Arial-BoldMT-90"/>
     </defs>
     <g transform="translate(21.253125 357.348125)rotate(-90)scale(0.2 -0.2)">
      <use xlink:href="#Arial-BoldMT-67"/>
      <use x="72.216797" xlink:href="#Arial-BoldMT-68"/>
      <use x="144.433594" xlink:href="#Arial-BoldMT-52"/>
      <use x="200.048828" xlink:href="#Arial-BoldMT-32"/>
      <use x="227.832031" xlink:href="#Arial-BoldMT-76"/>
      <use x="288.916016" xlink:href="#Arial-BoldMT-73"/>
      <use x="316.699219" xlink:href="#Arial-BoldMT-86"/>
      <use x="383.398438" xlink:href="#Arial-BoldMT-69"/>
      <use x="450.097656" xlink:href="#Arial-BoldMT-32"/>
      <use x="477.880859" xlink:href="#Arial-BoldMT-78"/>
      <use x="550.097656" xlink:href="#Arial-BoldMT-79"/>
      <use x="627.880859" xlink:href="#Arial-BoldMT-82"/>
      <use x="700.097656" xlink:href="#Arial-BoldMT-77"/>
      <use x="783.398438" xlink:href="#Arial-BoldMT-65"/>
      <use x="855.615234" xlink:href="#Arial-BoldMT-76"/>
      <use x="916.699219" xlink:href="#Arial-BoldMT-73"/>
      <use x="944.482422" xlink:href="#Arial-BoldMT-90"/>
      <use x="1005.566406" xlink:href="#Arial-BoldMT-69"/>
      <use x="1072.265625" xlink:href="#Arial-BoldMT-68"/>
     </g>
     <!-- CELL COUNTS (NUMBERS) -->
     <defs>
      <path d="M 23.390625 0 
L 23.390625 59.46875 
L 2.15625 59.46875 
L 2.15625 71.578125 
L 59.03125 71.578125 
L 59.03125 59.46875 
L 37.84375 59.46875 
L 37.84375 0 
z
" id="Arial-BoldMT-84"/>
      <path d="M 29.9375 -21.046875 
L 20.515625 -21.046875 
Q 13.03125 -9.765625 9.125 2.390625 
Q 5.21875 14.546875 5.21875 25.921875 
Q 5.21875 40.046875 10.0625 52.640625 
Q 14.265625 63.578125 20.703125 72.796875 
L 30.078125 72.796875 
Q 23.390625 58.015625 20.875 47.625 
Q 18.359375 37.25 18.359375 25.640625 
Q 18.359375 17.625 19.84375 9.21875 
Q 21.34375 0.828125 23.921875 -6.734375 
Q 25.640625 -11.71875 29.9375 -21.046875 
z
" id="Arial-BoldMT-40"/>
      <path d="M 7.328125 71.578125 
L 35.9375 71.578125 
Q 44.4375 71.578125 48.609375 70.875 
Q 52.78125 70.171875 56.078125 67.921875 
Q 59.375 65.671875 61.5625 61.9375 
Q 63.765625 58.203125 63.765625 53.5625 
Q 63.765625 48.53125 61.046875 44.328125 
Q 58.34375 40.140625 53.71875 38.03125 
Q 60.25 36.140625 63.765625 31.546875 
Q 67.28125 26.953125 67.28125 20.75 
Q 67.28125 15.875 65.015625 11.25 
Q 62.75 6.640625 58.8125 3.875 
Q 54.890625 1.125 49.125 0.484375 
Q 45.515625 0.09375 31.6875 0 
L 7.328125 0 
z
M 21.78125 59.671875 
L 21.78125 43.109375 
L 31.25 43.109375 
Q 39.703125 43.109375 41.75 43.359375 
Q 45.453125 43.796875 47.578125 45.921875 
Q 49.703125 48.046875 49.703125 51.515625 
Q 49.703125 54.828125 47.875 56.90625 
Q 46.046875 58.984375 42.4375 59.421875 
Q 40.28125 59.671875 30.078125 59.671875 
z
M 21.78125 31.203125 
L 21.78125 12.0625 
L 35.15625 12.0625 
Q 42.96875 12.0625 45.0625 12.5 
Q 48.296875 13.09375 50.3125 15.359375 
Q 52.34375 17.625 52.34375 21.4375 
Q 52.34375 24.65625 50.78125 26.90625 
Q 49.21875 29.15625 46.265625 30.171875 
Q 43.3125 31.203125 33.453125 31.203125 
z
" id="Arial-BoldMT-66"/>
      <path d="M 3.375 -21.046875 
Q 7.421875 -12.359375 9.078125 -7.71875 
Q 10.75 -3.078125 12.15625 2.96875 
Q 13.578125 9.03125 14.25 14.46875 
Q 14.9375 19.921875 14.9375 25.640625 
Q 14.9375 37.25 12.453125 47.625 
Q 9.96875 58.015625 3.265625 72.796875 
L 12.59375 72.796875 
Q 19.96875 62.3125 24.046875 50.53125 
Q 28.125 38.765625 28.125 26.65625 
Q 28.125 16.453125 24.90625 4.78125 
Q 21.234375 -8.296875 12.84375 -21.046875 
z
" id="Arial-BoldMT-41"/>
     </defs>
     <g transform="translate(42.67125 374.002812)rotate(-90)scale(0.2 -0.2)">
      <use xlink:href="#Arial-BoldMT-67"/>
      <use x="72.216797" xlink:href="#Arial-BoldMT-69"/>
      <use x="138.916016" xlink:href="#Arial-BoldMT-76"/>
      <use x="200" xlink:href="#Arial-BoldMT-76"/>
      <use x="261.068359" xlink:href="#Arial-BoldMT-32"/>
      <use x="288.851562" xlink:href="#Arial-BoldMT-67"/>
      <use x="361.068359" xlink:href="#Arial-BoldMT-79"/>
      <use x="438.851562" xlink:href="#Arial-BoldMT-85"/>
      <use x="511.068359" xlink:href="#Arial-BoldMT-78"/>
      <use x="583.285156" xlink:href="#Arial-BoldMT-84"/>
      <use x="644.369141" xlink:href="#Arial-BoldMT-83"/>
      <use x="711.068359" xlink:href="#Arial-BoldMT-32"/>
      <use x="738.851562" xlink:href="#Arial-BoldMT-40"/>
      <use x="772.152344" xlink:href="#Arial-BoldMT-78"/>
      <use x="844.369141" xlink:href="#Arial-BoldMT-85"/>
      <use x="916.585938" xlink:href="#Arial-BoldMT-77"/>
      <use x="999.886719" xlink:href="#Arial-BoldMT-66"/>
      <use x="1072.103516" xlink:href="#Arial-BoldMT-69"/>
      <use x="1138.802734" xlink:href="#Arial-BoldMT-82"/>
      <use x="1211.019531" xlink:href="#Arial-BoldMT-83"/>
      <use x="1277.71875" xlink:href="#Arial-BoldMT-41"/>
     </g>
    </g>
   </g>
   <g id="line2d_14">
    <path clip-path="url(#p72d6a9b034)" d="M 102.055625 306.32125 
L 113.891989 316.89125 
L 125.728352 328.51825 
L 137.564716 345.782583 
L 149.40108 363.92775 
L 161.237443 354.52045 
L 173.073807 327.46125 
L 184.91017 290.61725 
L 196.746534 269.5905 
L 208.582898 280.248583 
L 220.419261 277.99365 
L 232.255625 299.210523 
L 244.091989 310.725417 
L 255.928352 324.696788 
L 267.764716 340.14525 
L 279.60108 340.14525 
L 291.437443 338.956125 
L 303.273807 327.834309 
L 315.11017 323.820472 
L 326.946534 323.344513 
L 338.782898 324.81875 
L 350.619261 318.09925 
L 362.455625 309.49225 
L 374.291989 300.163076 
L 386.128352 295.046583 
L 397.964716 291.10045 
L 409.80108 285.099942 
L 421.637443 275.785694 
L 433.473807 278.68825 
L 445.31017 284.160698 
L 457.146534 273.76565 
L 468.982898 286.954282 
L 480.819261 291.589312 
L 492.655625 293.573189 
" style="fill:none;stroke:#08306b;stroke-linecap:square;stroke-width:1.5;"/>
   </g>
   <g id="line2d_15">
    <path clip-path="url(#p72d6a9b034)" d="M 102.055625 357.05725 
L 113.891989 335.91725 
L 125.728352 378.19725 
L 137.564716 330.279917 
L 149.40108 296.80825 
L 161.237443 256.00805 
L 173.073807 258.75625 
L 184.91017 286.69125 
L 196.746534 287.5595 
L 208.582898 301.858361 
L 220.419261 312.24045 
L 232.255625 321.503614 
L 244.091989 334.155583 
L 255.928352 347.625558 
L 267.764716 323.98825 
L 279.60108 314.495383 
L 291.437443 303.15025 
L 303.273807 305.450779 
L 315.11017 300.566472 
L 326.946534 301.425671 
L 338.782898 298.92225 
L 350.619261 299.07325 
L 362.455625 304.111159 
L 374.291989 304.115337 
L 386.128352 300.948167 
L 397.964716 294.14461 
L 409.80108 290.141019 
L 421.637443 294.889991 
L 433.473807 289.93775 
L 445.31017 297.354974 
L 457.146534 302.09325 
L 468.982898 302.843379 
L 480.819261 295.883375 
L 492.655625 295.430947 
" style="fill:none;stroke:#08306b;stroke-linecap:square;stroke-width:1.5;"/>
   </g>
   <g id="line2d_16">
    <path clip-path="url(#p72d6a9b034)" d="M 102.055625 242.90125 
L 113.891989 219.64725 
L 125.728352 255.58525 
L 137.564716 284.476583 
L 149.40108 310.54925 
L 161.237443 335.07165 
L 173.073807 341.906917 
L 184.91017 356.75525 
L 196.746534 338.824 
L 208.582898 316.186583 
L 220.419261 298.92225 
L 232.255625 294.213795 
L 244.091989 284.828917 
L 255.928352 281.603712 
L 267.764716 280.80225 
L 279.60108 298.71085 
L 291.437443 301.829 
L 303.273807 312.414544 
L 315.11017 300.801361 
L 326.946534 290.966934 
L 338.782898 290.57195 
L 350.619261 288.603917 
L 362.455625 295.943432 
L 374.291989 284.26212 
L 386.128352 289.40925 
L 397.964716 303.86901 
L 409.80108 311.687558 
L 421.637443 320.884361 
L 433.473807 312.05925 
L 445.31017 307.487595 
L 457.146534 291.94605 
L 468.982898 292.136992 
L 480.819261 289.805625 
L 492.655625 291.907614 
" style="fill:none;stroke:#08306b;stroke-linecap:square;stroke-width:1.5;"/>
   </g>
   <g id="line2d_17">
    <path clip-path="url(#p72d6a9b034)" d="M 102.055625 357.05725 
L 113.891989 333.80325 
L 125.728352 324.29025 
L 137.564716 333.098583 
L 149.40108 334.33175 
L 161.237443 327.46125 
L 173.073807 330.279917 
L 184.91017 336.52125 
L 196.746534 320.855 
L 208.582898 316.89125 
L 220.419261 305.89845 
L 232.255625 295.75125 
L 244.091989 300.50775 
L 255.928352 301.605404 
L 267.764716 300.58325 
L 279.60108 312.381383 
L 291.437443 318.873125 
L 303.273807 314.155485 
L 315.11017 313.367917 
L 326.946534 329.57525 
L 338.782898 315.30575 
L 350.619261 310.24725 
L 362.455625 299.018341 
L 374.291989 295.75125 
L 386.128352 306.84975 
L 397.964716 300.31749 
L 409.80108 297.133481 
L 421.637443 302.484731 
L 433.473807 302.24425 
L 445.31017 290.138216 
L 457.146534 306.039383 
L 468.982898 303.729895 
L 480.819261 287.493437 
L 492.655625 278.967371 
" style="fill:none;stroke:#08306b;stroke-linecap:square;stroke-width:1.5;"/>
   </g>
   <g id="line2d_18">
    <path clip-path="url(#p72d6a9b034)" d="M 102.055625 255.58525 
L 113.891989 338.03125 
L 125.728352 311.60625 
L 137.564716 314.072583 
L 149.40108 322.70475 
L 161.237443 328.72965 
L 173.073807 322.528583 
L 184.91017 294.84525 
L 196.746534 270.6475 
L 208.582898 256.055028 
L 220.419261 264.88685 
L 232.255625 292.291977 
L 244.091989 302.62175 
L 255.928352 308.110019 
L 267.764716 325.19625 
L 279.60108 335.635383 
L 291.437443 334.728125 
L 303.273807 334.673721 
L 315.11017 319.357583 
L 326.946534 312.551987 
L 338.782898 295.53985 
L 350.619261 265.047917 
L 362.455625 261.158523 
L 374.291989 269.096467 
L 386.128352 290.202 
L 397.964716 298.71085 
L 409.80108 306.32125 
L 421.637443 319.63162 
L 433.473807 314.02225 
L 445.31017 311.788491 
L 457.146534 288.35225 
L 468.982898 284.499315 
L 480.819261 275.66825 
L 492.655625 280.376705 
" style="fill:none;stroke:#08306b;stroke-linecap:square;stroke-width:1.5;"/>
   </g>
   <g id="line2d_19">
    <path clip-path="url(#p72d6a9b034)" d="M 102.055625 395.10925 
L 113.891989 397.22325 
L 125.728352 388.76725 
L 137.564716 364.808583 
L 149.40108 349.12975 
L 161.237443 298.71085 
L 173.073807 278.486917 
L 184.91017 261.62525 
L 196.746534 281.746 
L 208.582898 301.858361 
L 220.419261 324.50165 
L 232.255625 332.842341 
L 244.091989 333.450917 
L 255.928352 318.029558 
L 267.764716 319.60925 
L 279.60108 319.991783 
L 291.437443 321.64775 
L 303.273807 321.616662 
L 315.11017 325.34725 
L 326.946534 305.208618 
L 338.782898 289.09215 
L 350.619261 291.120583 
L 362.455625 282.01025 
L 374.291989 282.423859 
L 386.128352 275.580167 
L 397.964716 273.76565 
L 409.80108 286.563481 
L 421.637443 272.732139 
L 433.473807 276.04575 
L 445.31017 294.876491 
L 457.146534 309.06945 
L 468.982898 329.097895 
L 480.819261 328.7825 
L 492.655625 319.902098 
" style="fill:none;stroke:#08306b;stroke-linecap:square;stroke-width:1.5;"/>
   </g>
   <g id="line2d_20">
    <path clip-path="url(#p72d6a9b034)" d="M 102.055625 395.10925 
L 113.891989 399.33725 
L 125.728352 387.71025 
L 137.564716 370.445917 
L 149.40108 327.98975 
L 161.237443 294.90565 
L 173.073807 286.590583 
L 184.91017 283.97325 
L 196.746534 294.69425 
L 208.582898 280.95325 
L 220.419261 291.94605 
L 232.255625 289.601432 
L 244.091989 269.502417 
L 255.928352 280.465404 
L 267.764716 289.71125 
L 279.60108 320.414583 
L 291.437443 326.40425 
L 303.273807 340.518309 
L 315.11017 337.444028 
L 326.946534 324.790934 
L 338.782898 328.20115 
L 350.619261 314.072583 
L 362.455625 311.029705 
L 374.291989 302.552815 
L 386.128352 294.9585 
L 397.964716 288.98645 
L 409.80108 293.474635 
L 421.637443 297.86525 
L 433.473807 289.10725 
L 445.31017 275.631802 
L 457.146534 289.972983 
L 468.982898 293.910024 
L 480.819261 296.411875 
L 492.655625 308.883674 
" style="fill:none;stroke:#08306b;stroke-linecap:square;stroke-width:1.5;"/>
   </g>
   <g id="line2d_21">
    <path clip-path="url(#p72d6a9b034)" d="M 102.055625 344.37325 
L 113.891989 342.25925 
L 125.728352 324.29025 
L 137.564716 342.25925 
L 149.40108 352.30075 
L 161.237443 373.54645 
L 173.073807 402.155917 
L 184.91017 386.35125 
L 196.746534 349.9225 
L 208.582898 315.481917 
L 220.419261 296.38545 
L 232.255625 305.168159 
L 244.091989 287.119083 
L 255.928352 292.173712 
L 267.764716 290.91925 
L 279.60108 293.073517 
L 291.437443 283.199375 
L 303.273807 287.668309 
L 315.11017 305.734028 
L 326.946534 306.098724 
L 338.782898 309.91505 
L 350.619261 295.75125 
L 362.455625 287.103068 
L 374.291989 289.501163 
L 386.128352 296.720167 
L 397.964716 308.94261 
L 409.80108 310.711865 
L 421.637443 294.733398 
L 433.473807 278.68825 
L 445.31017 266.665526 
L 457.146534 269.608117 
L 468.982898 289.954798 
L 480.819261 296.676125 
L 492.655625 305.29628 
" style="fill:none;stroke:#08306b;stroke-linecap:square;stroke-width:1.5;"/>
   </g>
   <g id="line2d_22">
    <path clip-path="url(#p72d6a9b034)" d="M 102.055625 293.63725 
L 113.891989 253.47125 
L 125.728352 223.87525 
L 137.564716 254.880583 
L 149.40108 277.78225 
L 161.237443 285.60405 
L 173.073807 280.248583 
L 184.91017 275.81925 
L 196.746534 292.05175 
L 208.582898 301.623472 
L 220.419261 290.46625 
L 232.255625 287.871795 
L 244.091989 280.072417 
L 255.928352 286.319558 
L 267.764716 282.61425 
L 279.60108 300.82485 
L 291.437443 289.277125 
L 303.273807 293.761603 
L 315.11017 285.063806 
L 326.946534 277.949145 
L 338.782898 283.06725 
L 350.619261 299.67725 
L 362.455625 317.852159 
L 374.291989 307.699946 
L 386.128352 290.113917 
L 397.964716 299.38733 
L 409.80108 315.915558 
L 421.637443 315.481917 
L 433.473807 304.88675 
L 445.31017 305.227802 
L 457.146534 308.153383 
L 468.982898 305.639315 
L 480.819261 302.489625 
L 492.655625 311.189856 
" style="fill:none;stroke:#08306b;stroke-linecap:square;stroke-width:1.5;"/>
   </g>
   <g id="line2d_23">
    <path clip-path="url(#p72d6a9b034)" d="M 102.055625 204.84925 
L 113.891989 242.90125 
L 125.728352 264.04125 
L 137.564716 224.579917 
L 149.40108 221.23275 
L 161.237443 271.22885 
L 173.073807 314.424917 
L 184.91017 315.98525 
L 196.746534 303.943 
L 208.582898 304.20725 
L 220.419261 316.25705 
L 232.255625 326.115977 
L 244.091989 307.37825 
L 255.928352 309.410942 
L 267.764716 292.88225 
L 279.60108 296.455917 
L 291.437443 284.917 
L 303.273807 288.911838 
L 315.11017 314.542361 
L 326.946534 326.904934 
L 338.782898 339.61675 
L 350.619261 333.400583 
L 362.455625 328.998705 
L 374.291989 314.869163 
L 386.128352 296.80825 
L 397.964716 279.76941 
L 409.80108 267.781404 
L 421.637443 263.962954 
L 433.473807 292.65575 
L 445.31017 304.061457 
L 457.146534 309.210383 
L 468.982898 297.933444 
L 480.819261 288.154062 
L 492.655625 271.023856 
" style="fill:none;stroke:#08306b;stroke-linecap:square;stroke-width:1.5;"/>
   </g>
   <g id="line2d_24">
    <path clip-path="url(#p72d6a9b034)" d="M 102.055625 293.63725 
L 113.891989 299.97925 
L 125.728352 342.25925 
L 137.564716 361.989917 
L 149.40108 340.67375 
L 161.237443 342.68205 
L 173.073807 339.792917 
L 184.91017 320.51525 
L 196.746534 330.10375 
L 208.582898 338.266139 
L 220.419261 336.55145 
L 232.255625 330.343977 
L 244.091989 329.399083 
L 255.928352 327.949096 
L 267.764716 337.42725 
L 279.60108 317.73685 
L 291.437443 316.89125 
L 303.273807 307.689132 
L 315.11017 304.559583 
L 326.946534 301.759461 
L 338.782898 315.41145 
L 350.619261 309.34125 
L 362.455625 311.702341 
L 374.291989 315.512554 
L 386.128352 309.139917 
L 397.964716 325.68549 
L 409.80108 320.631404 
L 421.637443 313.837694 
L 433.473807 307.98225 
L 445.31017 311.569802 
L 457.146534 310.901583 
L 468.982898 304.957379 
L 480.819261 303.15025 
L 492.655625 318.364644 
" style="fill:none;stroke:#4a98c9;stroke-linecap:square;stroke-width:1.5;"/>
   </g>
   <g id="line2d_25">
    <path clip-path="url(#p72d6a9b034)" d="M 102.055625 319.00525 
L 113.891989 316.89125 
L 125.728352 326.40425 
L 137.564716 313.367917 
L 149.40108 322.17625 
L 161.237443 335.07165 
L 173.073807 326.051917 
L 184.91017 306.32125 
L 196.746534 302.886 
L 208.582898 300.683917 
L 220.419261 298.07665 
L 232.255625 307.474341 
L 244.091989 330.63225 
L 255.928352 357.707712 
L 267.764716 359.17125 
L 279.60108 338.735917 
L 291.437443 341.20225 
L 303.273807 312.66325 
L 315.11017 318.183139 
L 326.946534 315.222303 
L 338.782898 311.81765 
L 350.619261 311.15325 
L 362.455625 318.428705 
L 374.291989 322.589859 
L 386.128352 325.87575 
L 397.964716 319.93541 
L 409.80108 319.167865 
L 421.637443 309.296509 
L 433.473807 309.86975 
L 445.31017 318.713664 
L 457.146534 311.324383 
L 468.982898 307.207766 
L 480.819261 285.4455 
L 492.655625 301.580765 
" style="fill:none;stroke:#4a98c9;stroke-linecap:square;stroke-width:1.5;"/>
   </g>
   <g id="line2d_26">
    <path clip-path="url(#p72d6a9b034)" d="M 102.055625 433.16125 
L 113.891989 348.60125 
L 125.728352 347.54425 
L 137.564716 297.86525 
L 149.40108 342.25925 
L 161.237443 357.90285 
L 173.073807 355.647917 
L 184.91017 332.29325 
L 196.746534 334.33175 
L 208.582898 328.635694 
L 220.419261 315.20005 
L 232.255625 316.699068 
L 244.091989 301.388583 
L 255.928352 312.825865 
L 267.764716 302.84825 
L 279.60108 304.20725 
L 291.437443 299.1865 
L 303.273807 312.66325 
L 315.11017 303.032806 
L 326.946534 303.317145 
L 338.782898 315.20005 
L 350.619261 323.23325 
L 362.455625 329.286977 
L 374.291989 311.74412 
L 386.128352 318.917167 
L 397.964716 319.08981 
L 409.80108 329.981788 
L 421.637443 333.020287 
L 433.473807 319.08075 
L 445.31017 321.33794 
L 457.146534 318.441517 
L 468.982898 307.48054 
L 480.819261 307.312187 
L 492.655625 321.887977 
" style="fill:none;stroke:#4a98c9;stroke-linecap:square;stroke-width:1.5;"/>
   </g>
   <g id="line2d_27">
    <path clip-path="url(#p72d6a9b034)" d="M 102.055625 280.95325 
L 113.891989 342.25925 
L 125.728352 293.63725 
L 137.564716 301.388583 
L 149.40108 348.60125 
L 161.237443 353.67485 
L 173.073807 353.88625 
L 184.91017 351.01725 
L 196.746534 339.3525 
L 208.582898 330.984583 
L 220.419261 336.76285 
L 232.255625 339.760886 
L 244.091989 329.57525 
L 255.928352 318.842635 
L 267.764716 314.77725 
L 279.60108 315.904717 
L 291.437443 317.287625 
L 303.273807 320.746191 
L 315.11017 324.172806 
L 326.946534 343.928197 
L 338.782898 341.09655 
L 350.619261 344.473917 
L 362.455625 349.177795 
L 374.291989 340.237163 
L 386.128352 339.3525 
L 397.964716 340.14525 
L 409.80108 325.265942 
L 421.637443 316.89125 
L 433.473807 311.98375 
L 445.31017 308.726836 
L 457.146534 299.55645 
L 468.982898 307.685121 
L 480.819261 301.829 
L 492.655625 314.008523 
" style="fill:none;stroke:#4a98c9;stroke-linecap:square;stroke-width:1.5;"/>
   </g>
   <g id="line2d_28">
    <path clip-path="url(#p72d6a9b034)" d="M 102.055625 395.10925 
L 113.891989 367.62725 
L 125.728352 315.83425 
L 137.564716 313.367917 
L 149.40108 334.86025 
L 161.237443 340.99085 
L 173.073807 304.911917 
L 184.91017 318.09925 
L 196.746534 307.37825 
L 208.582898 318.300583 
L 220.419261 301.03625 
L 232.255625 295.943432 
L 244.091989 313.19175 
L 255.928352 299.491404 
L 267.764716 322.47825 
L 279.60108 333.521383 
L 291.437443 336.842125 
L 303.273807 334.051956 
L 315.11017 324.172806 
L 326.946534 318.782724 
L 338.782898 292.05175 
L 350.619261 286.99325 
L 362.455625 289.505341 
L 374.291989 288.030554 
L 386.128352 301.829 
L 397.964716 306.32125 
L 409.80108 312.175404 
L 421.637443 332.237324 
L 433.473807 318.55225 
L 445.31017 315.506216 
L 457.146534 308.64665 
L 468.982898 310.344669 
L 480.819261 300.705937 
L 492.655625 309.716462 
" style="fill:none;stroke:#4a98c9;stroke-linecap:square;stroke-width:1.5;"/>
   </g>
   <g id="line2d_29">
    <path clip-path="url(#p72d6a9b034)" d="M 102.055625 306.32125 
L 113.891989 335.91725 
L 125.728352 356.00025 
L 137.564716 335.212583 
L 149.40108 313.72025 
L 161.237443 327.03845 
L 173.073807 345.43025 
L 184.91017 324.13925 
L 196.746534 333.80325 
L 208.582898 323.468139 
L 220.419261 321.75345 
L 232.255625 328.806523 
L 244.091989 345.43025 
L 255.928352 334.128481 
L 267.764716 346.94025 
L 279.60108 343.386717 
L 291.437443 342.25925 
L 303.273807 339.896544 
L 315.11017 339.675472 
L 326.946534 335.91725 
L 338.782898 336.76285 
L 350.619261 336.420583 
L 362.455625 323.905886 
L 374.291989 313.214728 
L 386.128352 293.461083 
L 397.964716 296.17405 
L 409.80108 298.190481 
L 421.637443 297.395472 
L 433.473807 291.07025 
L 445.31017 292.252216 
L 457.146534 296.949183 
L 468.982898 319.482605 
L 480.819261 327.527312 
L 492.655625 336.878159 
" style="fill:none;stroke:#4a98c9;stroke-linecap:square;stroke-width:1.5;"/>
   </g>
   <g id="line2d_30">
    <path clip-path="url(#p72d6a9b034)" d="M 102.055625 433.16125 
L 113.891989 409.90725 
L 125.728352 394.05225 
L 137.564716 373.96925 
L 149.40108 348.60125 
L 161.237443 328.30685 
L 173.073807 318.652917 
L 184.91017 325.34725 
L 196.746534 337.2385 
L 208.582898 311.019028 
L 220.419261 309.70365 
L 232.255625 299.787068 
L 244.091989 308.43525 
L 255.928352 308.43525 
L 267.764716 309.79425 
L 279.60108 331.68925 
L 291.437443 333.539 
L 303.273807 327.585603 
L 315.11017 315.481917 
L 326.946534 321.786829 
L 338.782898 336.23435 
L 350.619261 327.058583 
L 362.455625 320.446614 
L 374.291989 312.019859 
L 386.128352 316.803167 
L 397.964716 321.28837 
L 409.80108 323.883712 
L 421.637443 332.393917 
L 433.473807 322.70475 
L 445.31017 317.620216 
L 457.146534 316.961717 
L 468.982898 329.097895 
L 480.819261 322.572625 
L 492.655625 335.020402 
" style="fill:none;stroke:#4a98c9;stroke-linecap:square;stroke-width:1.5;"/>
   </g>
   <g id="line2d_31">
    <path clip-path="url(#p72d6a9b034)" d="M 102.055625 306.32125 
L 113.891989 359.17125 
L 125.728352 369.74125 
L 137.564716 369.036583 
L 149.40108 371.32675 
L 161.237443 394.26365 
L 173.073807 375.378583 
L 184.91017 363.09725 
L 196.746534 342.5235 
L 208.582898 343.198806 
L 220.419261 354.52045 
L 232.255625 357.05725 
L 244.091989 344.90175 
L 255.928352 332.339712 
L 267.764716 329.57525 
L 279.60108 311.676717 
L 291.437443 311.738375 
L 303.273807 323.108897 
L 315.11017 341.084806 
L 326.946534 343.149355 
L 338.782898 336.02295 
L 350.619261 328.36725 
L 362.455625 320.446614 
L 374.291989 310.365424 
L 386.128352 305.79275 
L 397.964716 313.76253 
L 409.80108 301.686712 
L 421.637443 298.648213 
L 433.473807 292.73125 
L 445.31017 295.678353 
L 457.146534 310.97205 
L 468.982898 309.59454 
L 480.819261 322.044125 
L 492.655625 344.885735 
" style="fill:none;stroke:#4a98c9;stroke-linecap:square;stroke-width:1.5;"/>
   </g>
   <g id="line2d_32">
    <path clip-path="url(#p72d6a9b034)" d="M 102.055625 344.37325 
L 113.891989 287.29525 
L 125.728352 278.83925 
L 137.564716 309.139917 
L 149.40108 302.09325 
L 161.237443 302.51605 
L 173.073807 309.844583 
L 184.91017 316.89125 
L 196.746534 324.026 
L 208.582898 337.561472 
L 220.419261 338.03125 
L 232.255625 320.734886 
L 244.091989 316.715083 
L 255.928352 321.607096 
L 267.764716 319.00525 
L 279.60108 312.945117 
L 291.437443 295.487 
L 303.273807 293.388544 
L 315.11017 296.573361 
L 326.946534 306.988829 
L 338.782898 320.48505 
L 350.619261 326.655917 
L 362.455625 339.568705 
L 374.291989 349.336554 
L 386.128352 335.829167 
L 397.964716 332.70397 
L 409.80108 331.68925 
L 421.637443 326.678287 
L 433.473807 327.83875 
L 445.31017 326.732284 
L 457.146534 320.132717 
L 468.982898 316.482089 
L 480.819261 317.353687 
L 492.655625 323.617614 
" style="fill:none;stroke:#4a98c9;stroke-linecap:square;stroke-width:1.5;"/>
   </g>
   <g id="line2d_33">
    <path clip-path="url(#p72d6a9b034)" d="M 102.055625 280.95325 
L 113.891989 354.94325 
L 125.728352 301.03625 
L 137.564716 305.616583 
L 149.40108 301.03625 
L 161.237443 306.32125 
L 173.073807 328.165917 
L 184.91017 313.26725 
L 196.746534 320.3265 
L 208.582898 329.810139 
L 220.419261 337.60845 
L 232.255625 330.728341 
L 244.091989 341.906917 
L 255.928352 340.307865 
L 267.764716 345.73225 
L 279.60108 339.158717 
L 291.437443 322.70475 
L 303.273807 324.103721 
L 315.11017 327.578694 
L 326.946534 331.244197 
L 338.782898 327.24985 
L 350.619261 327.46125 
L 362.455625 323.329341 
L 374.291989 316.523598 
L 386.128352 309.404167 
L 397.964716 316.80669 
L 409.80108 313.557635 
L 421.637443 307.730583 
L 433.473807 312.88975 
L 445.31017 312.152974 
L 457.146534 305.47565 
L 468.982898 307.27596 
L 480.819261 311.60625 
L 492.655625 324.514462 
" style="fill:none;stroke:#4a98c9;stroke-linecap:square;stroke-width:1.5;"/>
   </g>
   <g id="line2d_34">
    <path clip-path="url(#p72d6a9b034)" d="M 102.055625 369.74125 
L 113.891989 405.67925 
L 125.728352 392.99525 
L 137.564716 404.269917 
L 149.40108 403.03675 
L 161.237443 400.60565 
L 173.073807 403.212917 
L 184.91017 390.27725 
L 196.746534 387.71025 
L 208.582898 390.646361 
L 220.419261 387.92165 
L 232.255625 397.415432 
L 244.091989 388.414917 
L 255.928352 395.10925 
L 267.764716 400.24325 
L 279.60108 391.444983 
L 291.437443 392.46675 
L 303.273807 390.259485 
L 315.11017 387.475361 
L 326.946534 379.977461 
L 338.782898 387.49885 
L 350.619261 383.733917 
L 362.455625 378.389432 
L 374.291989 380.495076 
L 386.128352 377.316417 
L 397.964716 386.14589 
L 409.80108 388.360712 
L 421.637443 379.68488 
L 433.473807 373.36525 
L 445.31017 369.449664 
L 457.146534 361.848983 
L 468.982898 352.82925 
L 480.819261 348.403062 
L 492.655625 355.199492 
" style="fill:none;stroke:#d0e1f2;stroke-linecap:square;stroke-width:1.5;"/>
   </g>
   <g id="line2d_35">
    <path clip-path="url(#p72d6a9b034)" d="M 102.055625 433.16125 
L 113.891989 416.24925 
L 125.728352 386.65325 
L 137.564716 400.041917 
L 149.40108 386.12475 
L 161.237443 363.82205 
L 173.073807 383.834583 
L 184.91017 369.74125 
L 196.746534 382.6895 
L 208.582898 385.948583 
L 220.419261 393.62945 
L 232.255625 397.991977 
L 244.091989 389.29575 
L 255.928352 399.012019 
L 267.764716 396.92125 
L 279.60108 396.80045 
L 291.437443 394.3165 
L 303.273807 391.254309 
L 315.11017 389.471917 
L 326.946534 381.757671 
L 338.782898 387.92165 
L 350.619261 387.458583 
L 362.455625 388.094614 
L 374.291989 395.017337 
L 386.128352 389.207667 
L 397.964716 381.24141 
L 409.80108 384.457942 
L 421.637443 383.364806 
L 433.473807 381.67025 
L 445.31017 382.498147 
L 457.146534 372.48945 
L 468.982898 370.559573 
L 480.819261 355.802062 
L 492.655625 366.986644 
" style="fill:none;stroke:#d0e1f2;stroke-linecap:square;stroke-width:1.5;"/>
   </g>
   <g id="line2d_36">
    <path clip-path="url(#p72d6a9b034)" d="M 102.055625 433.16125 
L 113.891989 426.81925 
L 125.728352 399.33725 
L 137.564716 399.33725 
L 149.40108 390.88125 
L 161.237443 405.25645 
L 173.073807 398.632583 
L 184.91017 385.44525 
L 196.746534 390.35275 
L 208.582898 392.99525 
L 220.419261 385.17345 
L 232.255625 384.923614 
L 244.091989 378.021083 
L 255.928352 381.937404 
L 267.764716 376.68725 
L 279.60108 377.35165 
L 291.437443 385.59625 
L 303.273807 382.922662 
L 315.11017 381.603139 
L 326.946534 380.867566 
L 338.782898 384.96205 
L 350.619261 391.887917 
L 362.455625 383.386159 
L 374.291989 385.274554 
L 386.128352 378.99 
L 397.964716 383.27085 
L 409.80108 382.181327 
L 421.637443 384.617546 
L 433.473807 383.78425 
L 445.31017 378.634629 
L 457.146534 376.50605 
L 468.982898 364.285766 
L 480.819261 358.3785 
L 492.655625 368.139735 
" style="fill:none;stroke:#d0e1f2;stroke-linecap:square;stroke-width:1.5;"/>
   </g>
   <g id="line2d_37">
    <path clip-path="url(#p72d6a9b034)" d="M 102.055625 420.47725 
L 113.891989 395.10925 
L 125.728352 401.45125 
L 137.564716 401.45125 
L 149.40108 389.82425 
L 161.237443 387.49885 
L 173.073807 385.59625 
L 184.91017 397.22325 
L 196.746534 391.1455 
L 208.582898 392.055694 
L 220.419261 384.32785 
L 232.255625 389.920341 
L 244.091989 390.528917 
L 255.928352 393.320481 
L 267.764716 389.67325 
L 279.60108 390.740317 
L 291.437443 390.484875 
L 303.273807 385.782779 
L 315.11017 387.827694 
L 326.946534 397.445776 
L 338.782898 391.93825 
L 350.619261 392.491917 
L 362.455625 398.568523 
L 374.291989 393.179076 
L 386.128352 385.772417 
L 397.964716 389.69741 
L 409.80108 388.035481 
L 421.637443 383.05162 
L 433.473807 379.78275 
L 445.31017 372.948698 
L 457.146534 364.808583 
L 468.982898 360.262347 
L 480.819261 347.213937 
L 492.655625 364.616402 
" style="fill:none;stroke:#d0e1f2;stroke-linecap:square;stroke-width:1.5;"/>
   </g>
   <g id="line2d_38">
    <path clip-path="url(#p72d6a9b034)" d="M 102.055625 344.37325 
L 113.891989 405.67925 
L 125.728352 380.31125 
L 137.564716 387.357917 
L 149.40108 397.22325 
L 161.237443 388.76725 
L 173.073807 398.28025 
L 184.91017 384.53925 
L 196.746534 382.42525 
L 208.582898 388.062583 
L 220.419261 373.54645 
L 232.255625 377.812886 
L 244.091989 383.129917 
L 255.928352 374.944942 
L 267.764716 387.25725 
L 279.60108 386.65325 
L 291.437443 392.99525 
L 303.273807 390.88125 
L 315.11017 389.941694 
L 326.946534 386.096934 
L 338.782898 379.25425 
L 350.619261 381.720583 
L 362.455625 376.371523 
L 374.291989 377.645772 
L 386.128352 380.047 
L 397.964716 385.04661 
L 409.80108 382.831788 
L 421.637443 386.105176 
L 433.473807 385.67175 
L 445.31017 384.32056 
L 457.146534 379.04285 
L 468.982898 375.537702 
L 480.819261 363.333187 
L 492.655625 364.744523 
" style="fill:none;stroke:#d0e1f2;stroke-linecap:square;stroke-width:1.5;"/>
   </g>
   <g id="line2d_39">
    <path clip-path="url(#p72d6a9b034)" d="M 102.055625 395.10925 
L 113.891989 412.02125 
L 125.728352 392.99525 
L 137.564716 384.53925 
L 149.40108 401.97975 
L 161.237443 392.99525 
L 173.073807 400.39425 
L 184.91017 391.78725 
L 196.746534 385.59625 
L 208.582898 397.22325 
L 220.419261 397.22325 
L 232.255625 393.763977 
L 244.091989 384.186917 
L 255.928352 383.726173 
L 267.764716 390.42825 
L 279.60108 395.250183 
L 291.437443 394.58075 
L 303.273807 392.622191 
L 315.11017 389.82425 
L 326.946534 389.434829 
L 338.782898 384.75065 
L 350.619261 386.95525 
L 362.455625 382.136977 
L 374.291989 382.42525 
L 386.128352 375.02625 
L 397.964716 381.74877 
L 409.80108 376.001942 
L 421.637443 376.474731 
L 433.473807 373.96925 
L 445.31017 373.823457 
L 457.146534 376.999317 
L 468.982898 378.879185 
L 480.819261 372.053437 
L 492.655625 377.300402 
" style="fill:none;stroke:#d0e1f2;stroke-linecap:square;stroke-width:1.5;"/>
   </g>
   <g id="line2d_40">
    <path clip-path="url(#p72d6a9b034)" d="M 102.055625 433.16125 
L 113.891989 407.79325 
L 125.728352 412.02125 
L 137.564716 406.383917 
L 149.40108 396.69475 
L 161.237443 367.20445 
L 173.073807 364.808583 
L 184.91017 375.47925 
L 196.746534 381.6325 
L 208.582898 373.029694 
L 220.419261 373.96925 
L 232.255625 379.542523 
L 244.091989 372.38375 
L 255.928352 384.864481 
L 267.764716 381.06625 
L 279.60108 389.049117 
L 291.437443 389.29575 
L 303.273807 387.399368 
L 315.11017 388.180028 
L 326.946534 394.219145 
L 338.782898 401.66265 
L 350.619261 392.69325 
L 362.455625 396.454523 
L 374.291989 386.469424 
L 386.128352 377.933 
L 397.964716 386.23045 
L 409.80108 375.595404 
L 421.637443 379.058509 
L 433.473807 379.40525 
L 445.31017 381.040216 
L 457.146534 379.113317 
L 468.982898 373.01454 
L 480.819261 368.486062 
L 492.655625 374.609856 
" style="fill:none;stroke:#d0e1f2;stroke-linecap:square;stroke-width:1.5;"/>
   </g>
   <g id="line2d_41">
    <path clip-path="url(#p72d6a9b034)" d="M 102.055625 395.10925 
L 113.891989 412.02125 
L 125.728352 412.02125 
L 137.564716 408.497917 
L 149.40108 410.43575 
L 161.237443 412.86685 
L 173.073807 403.56525 
L 184.91017 402.35725 
L 196.746534 393.52375 
L 208.582898 396.518583 
L 220.419261 396.37765 
L 232.255625 393.187432 
L 244.091989 390.528917 
L 255.928352 391.369096 
L 267.764716 391.18325 
L 279.60108 385.80765 
L 291.437443 389.163625 
L 303.273807 381.057368 
L 315.11017 386.183472 
L 326.946534 386.430724 
L 338.782898 384.85635 
L 350.619261 386.250583 
L 362.455625 385.788432 
L 374.291989 384.814989 
L 386.128352 384.186917 
L 397.964716 388.42901 
L 409.80108 390.312096 
L 421.637443 383.677991 
L 433.473807 384.08625 
L 445.31017 375.427181 
L 457.146534 367.486317 
L 468.982898 369.945831 
L 480.819261 360.294312 
L 492.655625 371.406826 
" style="fill:none;stroke:#d0e1f2;stroke-linecap:square;stroke-width:1.5;"/>
   </g>
   <g id="line2d_42">
    <path clip-path="url(#p72d6a9b034)" d="M 102.055625 407.79325 
L 113.891989 395.10925 
L 125.728352 354.94325 
L 137.564716 388.062583 
L 149.40108 382.42525 
L 161.237443 366.78165 
L 173.073807 383.129917 
L 184.91017 376.98925 
L 196.746534 387.9745 
L 208.582898 383.599694 
L 220.419261 381.79105 
L 232.255625 371.086523 
L 244.091989 378.72575 
L 255.928352 385.840173 
L 267.764716 391.48525 
L 279.60108 388.203517 
L 291.437443 393.2595 
L 303.273807 381.181721 
L 315.11017 381.603139 
L 326.946534 389.434829 
L 338.782898 381.26255 
L 350.619261 381.317917 
L 362.455625 385.404068 
L 374.291989 386.928989 
L 386.128352 384.451167 
L 397.964716 387.32973 
L 409.80108 382.750481 
L 421.637443 384.53925 
L 433.473807 382.27425 
L 445.31017 388.329871 
L 457.146534 379.536117 
L 468.982898 369.604863 
L 480.819261 367.8915 
L 492.655625 373.392705 
" style="fill:none;stroke:#d0e1f2;stroke-linecap:square;stroke-width:1.5;"/>
   </g>
   <g id="line2d_43">
    <path clip-path="url(#p72d6a9b034)" d="M 102.055625 420.47725 
L 113.891989 384.53925 
L 125.728352 375.02625 
L 137.564716 386.65325 
L 149.40108 372.91225 
L 161.237443 392.57245 
L 173.073807 398.632583 
L 184.91017 395.41125 
L 196.746534 396.69475 
L 208.582898 401.686139 
L 220.419261 397.43465 
L 232.255625 396.070159 
L 244.091989 395.461583 
L 255.928352 387.628942 
L 267.764716 389.67325 
L 279.60108 390.740317 
L 291.437443 392.46675 
L 303.273807 392.870897 
L 315.11017 393.230139 
L 326.946534 394.219145 
L 338.782898 397.75175 
L 350.619261 387.156583 
L 362.455625 382.136977 
L 374.291989 386.837076 
L 386.128352 383.218 
L 397.964716 383.35541 
L 409.80108 377.058942 
L 421.637443 378.82362 
L 433.473807 379.55625 
L 445.31017 373.604767 
L 457.146534 374.321583 
L 468.982898 360.12596 
L 480.819261 360.162187 
L 492.655625 364.48828 
" style="fill:none;stroke:#d0e1f2;stroke-linecap:square;stroke-width:1.5;"/>
   </g>
   <g id="line2d_44">
    <path clip-path="url(#p72d6a9b034)" d="M 102.055625 268.26925 
L 113.891989 230.21725 
L 125.728352 298.92225 
L 137.564716 310.54925 
L 149.40108 320.59075 
L 161.237443 336.76285 
L 173.073807 321.471583 
L 184.91017 287.59725 
L 196.746534 274.08275 
L 208.582898 264.276139 
L 220.419261 269.74905 
L 232.255625 295.943432 
L 244.091989 294.69425 
L 255.928352 310.061404 
L 267.764716 331.08525 
L 279.60108 326.756583 
L 291.437443 326.272125 
L 303.273807 308.186544 
L 315.11017 308.905028 
L 326.946534 319.116513 
L 338.782898 322.81045 
L 350.619261 321.521917 
L 362.455625 319.101341 
L 374.291989 316.89125 
L 386.128352 309.228 
L 397.964716 300.40205 
L 409.80108 298.759635 
L 421.637443 301.936657 
L 433.473807 296.05325 
L 445.31017 311.496905 
L 457.146534 299.76785 
L 468.982898 297.115121 
L 480.819261 283.59575 
L 492.655625 274.739371 
" style="fill:none;stroke:#1764ab;stroke-linecap:square;stroke-width:1.5;"/>
   </g>
   <g id="line2d_45">
    <path clip-path="url(#p72d6a9b034)" d="M 102.055625 154.11325 
L 113.891989 206.96325 
L 125.728352 271.44025 
L 137.564716 282.362583 
L 149.40108 278.83925 
L 161.237443 287.71805 
L 173.073807 293.63725 
L 184.91017 275.51725 
L 196.746534 269.5905 
L 208.582898 286.825472 
L 220.419261 297.01965 
L 232.255625 308.819614 
L 244.091989 311.253917 
L 255.928352 332.177096 
L 267.764716 339.84325 
L 279.60108 315.763783 
L 291.437443 324.686625 
L 303.273807 326.466426 
L 315.11017 323.820472 
L 326.946534 305.208618 
L 338.782898 296.80825 
L 350.619261 298.871917 
L 362.455625 306.129068 
L 374.291989 303.747685 
L 386.128352 303.766833 
L 397.964716 299.72557 
L 409.80108 291.441942 
L 421.637443 297.160583 
L 433.473807 295.82675 
L 445.31017 295.095181 
L 457.146534 276.866183 
L 468.982898 273.315573 
L 480.819261 267.344375 
L 492.655625 261.286644 
" style="fill:none;stroke:#1764ab;stroke-linecap:square;stroke-width:1.5;"/>
   </g>
   <g id="line2d_46">
    <path clip-path="url(#p72d6a9b034)" d="M 102.055625 331.68925 
L 113.891989 287.29525 
L 125.728352 242.90125 
L 137.564716 276.72525 
L 149.40108 282.01025 
L 161.237443 305.89845 
L 173.073807 312.310917 
L 184.91017 291.22125 
L 196.746534 299.1865 
L 208.582898 324.877472 
L 220.419261 333.38045 
L 232.255625 333.226705 
L 244.091989 304.559583 
L 255.928352 291.685865 
L 267.764716 294.54325 
L 279.60108 311.958583 
L 291.437443 311.738375 
L 303.273807 300.974074 
L 315.11017 287.999917 
L 326.946534 296.975145 
L 338.782898 297.33675 
L 350.619261 303.90525 
L 362.455625 295.366886 
L 374.291989 287.019511 
L 386.128352 286.414417 
L 397.964716 279.34661 
L 409.80108 287.457865 
L 421.637443 302.797917 
L 433.473807 310.09625 
L 445.31017 313.538009 
L 457.146534 306.74405 
L 468.982898 300.115637 
L 480.819261 291.655375 
L 492.655625 302.029189 
" style="fill:none;stroke:#1764ab;stroke-linecap:square;stroke-width:1.5;"/>
   </g>
   <g id="line2d_47">
    <path clip-path="url(#p72d6a9b034)" d="M 102.055625 204.84925 
L 113.891989 219.64725 
L 125.728352 237.61625 
L 137.564716 274.61125 
L 149.40108 303.67875 
L 161.237443 324.50165 
L 173.073807 333.098583 
L 184.91017 338.63525 
L 196.746534 310.54925 
L 208.582898 296.690806 
L 220.419261 278.41645 
L 232.255625 284.604705 
L 244.091989 286.23825 
L 255.928352 308.597865 
L 267.764716 314.92825 
L 279.60108 329.293383 
L 291.437443 335.785125 
L 303.273807 327.585603 
L 315.11017 315.481917 
L 326.946534 322.454408 
L 338.782898 326.93275 
L 350.619261 336.420583 
L 362.455625 341.970977 
L 374.291989 335.549598 
L 386.128352 324.466417 
L 397.964716 306.74405 
L 409.80108 297.052173 
L 421.637443 287.451843 
L 433.473807 298.24275 
L 445.31017 295.022284 
L 457.146534 294.06005 
L 468.982898 285.999573 
L 480.819261 283.59575 
L 492.655625 290.754523 
" style="fill:none;stroke:#1764ab;stroke-linecap:square;stroke-width:1.5;"/>
   </g>
   <g id="line2d_48">
    <path clip-path="url(#p72d6a9b034)" d="M 102.055625 331.68925 
L 113.891989 329.57525 
L 125.728352 357.05725 
L 137.564716 318.300583 
L 149.40108 338.03125 
L 161.237443 303.78445 
L 173.073807 308.43525 
L 184.91017 296.95925 
L 196.746534 267.74075 
L 208.582898 282.362583 
L 220.419261 282.64445 
L 232.255625 284.412523 
L 244.091989 291.875583 
L 255.928352 286.807404 
L 267.764716 305.26425 
L 279.60108 313.367917 
L 291.437443 329.04675 
L 303.273807 325.844662 
L 315.11017 320.179694 
L 326.946534 311.328092 
L 338.782898 299.34505 
L 350.619261 288.100583 
L 362.455625 274.61125 
L 374.291989 272.772989 
L 386.128352 292.756417 
L 397.964716 300.23293 
L 409.80108 304.451173 
L 421.637443 310.470954 
L 433.473807 309.34125 
L 445.31017 310.476353 
L 457.146534 303.432117 
L 468.982898 308.162476 
L 480.819261 294.16575 
L 492.655625 287.231189 
" style="fill:none;stroke:#1764ab;stroke-linecap:square;stroke-width:1.5;"/>
   </g>
   <g id="line2d_49">
    <path clip-path="url(#p72d6a9b034)" d="M 102.055625 331.68925 
L 113.891989 327.46125 
L 125.728352 307.37825 
L 137.564716 312.66325 
L 149.40108 353.88625 
L 161.237443 329.57525 
L 173.073807 292.58025 
L 184.91017 266.45725 
L 196.746534 257.17075 
L 208.582898 272.732139 
L 220.419261 291.10045 
L 232.255625 303.630705 
L 244.091989 313.367917 
L 255.928352 317.216481 
L 267.764716 324.89425 
L 279.60108 328.30685 
L 291.437443 318.080375 
L 303.273807 311.419721 
L 315.11017 314.659806 
L 326.946534 309.881671 
L 338.782898 307.80105 
L 350.619261 310.750583 
L 362.455625 302.381523 
L 374.291989 296.762293 
L 386.128352 295.22275 
L 397.964716 288.64821 
L 409.80108 290.141019 
L 421.637443 283.928509 
L 433.473807 281.40625 
L 445.31017 282.775664 
L 457.146534 295.11705 
L 468.982898 309.38996 
L 480.819261 306.915812 
L 492.655625 310.421129 
" style="fill:none;stroke:#1764ab;stroke-linecap:square;stroke-width:1.5;"/>
   </g>
   <g id="line2d_50">
    <path clip-path="url(#p72d6a9b034)" d="M 102.055625 407.79325 
L 113.891989 365.51325 
L 125.728352 352.82925 
L 137.564716 340.849917 
L 149.40108 307.90675 
L 161.237443 296.17405 
L 173.073807 262.98425 
L 184.91017 266.75925 
L 196.746534 284.12425 
L 208.582898 282.597472 
L 220.419261 305.05285 
L 232.255625 308.819614 
L 244.091989 296.27975 
L 255.928352 302.581096 
L 267.764716 288.65425 
L 279.60108 296.033117 
L 291.437443 292.448125 
L 303.273807 305.823838 
L 315.11017 326.40425 
L 326.946534 327.795039 
L 338.782898 338.66545 
L 350.619261 337.72925 
L 362.455625 330.920523 
L 374.291989 324.887685 
L 386.128352 314.953417 
L 397.964716 320.35821 
L 409.80108 307.296942 
L 421.637443 291.52325 
L 433.473807 283.89775 
L 445.31017 276.798147 
L 457.146534 293.989583 
L 468.982898 315.663766 
L 480.819261 306.981875 
L 492.655625 317.659977 
" style="fill:none;stroke:#1764ab;stroke-linecap:square;stroke-width:1.5;"/>
   </g>
   <g id="line2d_51">
    <path clip-path="url(#p72d6a9b034)" d="M 102.055625 280.95325 
L 113.891989 352.82925 
L 125.728352 346.48725 
L 137.564716 357.05725 
L 149.40108 336.97425 
L 161.237443 351.98365 
L 173.073807 366.217917 
L 184.91017 357.66125 
L 196.746534 359.964 
L 208.582898 322.058806 
L 220.419261 324.07885 
L 232.255625 334.764159 
L 244.091989 319.181417 
L 255.928352 315.265096 
L 267.764716 298.77125 
L 279.60108 287.577117 
L 291.437443 282.406625 
L 303.273807 282.569838 
L 315.11017 296.455917 
L 326.946534 294.193566 
L 338.782898 308.43525 
L 350.619261 290.415917 
L 362.455625 297.288705 
L 374.291989 289.868815 
L 386.128352 308.611417 
L 397.964716 315.62285 
L 409.80108 315.265096 
L 421.637443 301.623472 
L 433.473807 304.13175 
L 445.31017 284.889664 
L 457.146534 279.05065 
L 468.982898 280.816863 
L 480.819261 290.46625 
L 492.655625 300.683917 
" style="fill:none;stroke:#1764ab;stroke-linecap:square;stroke-width:1.5;"/>
   </g>
   <g id="line2d_52">
    <path clip-path="url(#p72d6a9b034)" d="M 102.055625 293.63725 
L 113.891989 194.27925 
L 125.728352 178.42425 
L 137.564716 209.781917 
L 149.40108 194.27925 
L 161.237443 227.25765 
L 173.073807 237.968583 
L 184.91017 260.11525 
L 196.746534 269.85475 
L 208.582898 297.86525 
L 220.419261 293.00305 
L 232.255625 285.18125 
L 244.091989 277.077583 
L 255.928352 280.302788 
L 267.764716 284.72825 
L 279.60108 288.14085 
L 291.437443 285.974 
L 303.273807 292.891132 
L 315.11017 307.848028 
L 326.946534 299.089145 
L 338.782898 300.08495 
L 350.619261 296.153917 
L 362.455625 307.089977 
L 374.291989 301.449859 
L 386.128352 292.139833 
L 397.964716 296.17405 
L 409.80108 288.108327 
L 421.637443 291.52325 
L 433.473807 289.63575 
L 445.31017 300.343733 
L 457.146534 305.123317 
L 468.982898 310.617444 
L 480.819261 309.690437 
L 492.655625 306.000947 
" style="fill:none;stroke:#1764ab;stroke-linecap:square;stroke-width:1.5;"/>
   </g>
   <g id="line2d_53">
    <path clip-path="url(#p72d6a9b034)" d="M 102.055625 230.21725 
L 113.891989 255.58525 
L 125.728352 246.07225 
L 137.564716 230.21725 
L 149.40108 243.95825 
L 161.237443 265.73245 
L 173.073807 304.559583 
L 184.91017 313.87125 
L 196.746534 320.59075 
L 208.582898 336.856806 
L 220.419261 338.66545 
L 232.255625 328.422159 
L 244.091989 299.97925 
L 255.928352 284.693404 
L 267.764716 287.44625 
L 279.60108 292.650717 
L 291.437443 293.9015 
L 303.273807 293.512897 
L 315.11017 297.512917 
L 326.946534 302.760829 
L 338.782898 311.28915 
L 350.619261 320.313917 
L 362.455625 316.506886 
L 374.291989 317.166989 
L 386.128352 306.32125 
L 397.964716 289.83205 
L 409.80108 288.108327 
L 421.637443 289.800731 
L 433.473807 293.48625 
L 445.31017 302.822216 
L 457.146534 313.226983 
L 468.982898 310.208282 
L 480.819261 298.591937 
L 492.655625 285.501553 
" style="fill:none;stroke:#1764ab;stroke-linecap:square;stroke-width:1.5;"/>
   </g>
   <g id="line2d_54">
    <path clip-path="url(#p72d6a9b034)" d="M 102.055625 344.37325 
L 113.891989 388.76725 
L 125.728352 373.96925 
L 137.564716 372.559917 
L 149.40108 376.61175 
L 161.237443 378.62005 
L 173.073807 364.808583 
L 184.91017 361.28525 
L 196.746534 359.69975 
L 208.582898 338.266139 
L 220.419261 344.16185 
L 232.255625 357.05725 
L 244.091989 355.47175 
L 255.928352 356.732019 
L 267.764716 356.00025 
L 279.60108 349.86965 
L 291.437443 351.375875 
L 303.273807 342.881015 
L 315.11017 346.252361 
L 326.946534 347.933671 
L 338.782898 348.07275 
L 350.619261 349.50725 
L 362.455625 345.526341 
L 374.291989 340.053337 
L 386.128352 339.969083 
L 397.964716 342.17469 
L 409.80108 351.447019 
L 421.637443 341.711176 
L 433.473807 336.44575 
L 445.31017 340.291043 
L 457.146534 336.269583 
L 468.982898 330.939121 
L 480.819261 326.998812 
L 492.655625 338.223432 
" style="fill:none;stroke:#94c4df;stroke-linecap:square;stroke-width:1.5;"/>
   </g>
   <g id="line2d_55">
    <path clip-path="url(#p72d6a9b034)" d="M 102.055625 344.37325 
L 113.891989 371.85525 
L 125.728352 378.19725 
L 137.564716 344.37325 
L 149.40108 331.68925 
L 161.237443 325.34725 
L 173.073807 312.310917 
L 184.91017 313.87125 
L 196.746534 329.8395 
L 208.582898 355.413028 
L 220.419261 345.43025 
L 232.255625 357.05725 
L 244.091989 363.39925 
L 255.928352 374.457096 
L 267.764716 364.90925 
L 279.60108 355.506983 
L 291.437443 348.997625 
L 303.273807 339.274779 
L 315.11017 340.027806 
L 326.946534 340.14525 
L 338.782898 344.69035 
L 350.619261 341.65525 
L 362.455625 338.799977 
L 374.291989 343.913685 
L 386.128352 329.751417 
L 397.964716 336.59373 
L 409.80108 354.048865 
L 421.637443 353.847102 
L 433.473807 355.92475 
L 445.31017 355.818009 
L 457.146534 354.027183 
L 468.982898 346.828218 
L 480.819261 333.0105 
L 492.655625 349.241856 
" style="fill:none;stroke:#94c4df;stroke-linecap:square;stroke-width:1.5;"/>
   </g>
   <g id="line2d_56">
    <path clip-path="url(#p72d6a9b034)" d="M 102.055625 407.79325 
L 113.891989 329.57525 
L 125.728352 358.11425 
L 137.564716 344.37325 
L 149.40108 375.02625 
L 161.237443 374.39205 
L 173.073807 367.62725 
L 184.91017 362.79525 
L 196.746534 355.47175 
L 208.582898 342.494139 
L 220.419261 337.81985 
L 232.255625 344.565432 
L 244.091989 326.580417 
L 255.928352 329.087404 
L 267.764716 317.79725 
L 279.60108 333.662317 
L 291.437443 335.91725 
L 303.273807 332.311015 
L 315.11017 344.843028 
L 326.946534 334.915882 
L 338.782898 325.03015 
L 350.619261 342.25925 
L 362.455625 348.024705 
L 374.291989 345.384293 
L 386.128352 339.792917 
L 397.964716 348.00933 
L 409.80108 342.828404 
L 421.637443 351.028435 
L 433.473807 357.58575 
L 445.31017 364.274009 
L 457.146534 356.704917 
L 468.982898 348.055702 
L 480.819261 341.004062 
L 492.655625 357.954098 
" style="fill:none;stroke:#94c4df;stroke-linecap:square;stroke-width:1.5;"/>
   </g>
   <g id="line2d_57">
    <path clip-path="url(#p72d6a9b034)" d="M 102.055625 331.68925 
L 113.891989 392.99525 
L 125.728352 380.31125 
L 137.564716 375.378583 
L 149.40108 349.65825 
L 161.237443 369.31845 
L 173.073807 362.694583 
L 184.91017 372.76125 
L 196.746534 363.6635 
L 208.582898 353.533917 
L 220.419261 354.52045 
L 232.255625 350.71525 
L 244.091989 351.596083 
L 255.928352 355.268481 
L 267.764716 352.82925 
L 279.60108 357.90285 
L 291.437443 361.81375 
L 303.273807 361.036544 
L 315.11017 358.936361 
L 326.946534 355.944618 
L 338.782898 353.99195 
L 350.619261 354.540583 
L 362.455625 353.213614 
L 374.291989 349.244641 
L 386.128352 342.78775 
L 397.964716 353.84397 
L 409.80108 347.300327 
L 421.637443 349.384213 
L 433.473807 349.65825 
L 445.31017 341.748974 
L 457.146534 328.09545 
L 468.982898 328.143185 
L 480.819261 317.816125 
L 492.655625 331.304886 
" style="fill:none;stroke:#94c4df;stroke-linecap:square;stroke-width:1.5;"/>
   </g>
   <g id="line2d_58">
    <path clip-path="url(#p72d6a9b034)" d="M 102.055625 331.68925 
L 113.891989 367.62725 
L 125.728352 357.05725 
L 137.564716 340.849917 
L 149.40108 335.38875 
L 161.237443 328.30685 
L 173.073807 335.91725 
L 184.91017 345.27925 
L 196.746534 350.451 
L 208.582898 332.159028 
L 220.419261 337.39705 
L 232.255625 348.60125 
L 244.091989 346.48725 
L 255.928352 352.341404 
L 267.764716 360.83225 
L 279.60108 369.600317 
L 291.437443 359.964 
L 303.273807 360.414779 
L 315.11017 348.60125 
L 326.946534 352.606724 
L 338.782898 349.97535 
L 350.619261 335.111917 
L 362.455625 342.067068 
L 374.291989 334.99812 
L 386.128352 330.279917 
L 397.964716 342.59749 
L 409.80108 337.299481 
L 421.637443 349.305917 
L 433.473807 350.86625 
L 445.31017 353.120836 
L 457.146534 340.427117 
L 468.982898 335.644476 
L 480.819261 328.914625 
L 492.655625 336.750038 
" style="fill:none;stroke:#94c4df;stroke-linecap:square;stroke-width:1.5;"/>
   </g>
   <g id="line2d_59">
    <path clip-path="url(#p72d6a9b034)" d="M 102.055625 255.58525 
L 113.891989 316.89125 
L 125.728352 352.82925 
L 137.564716 359.17125 
L 149.40108 345.95875 
L 161.237443 360.01685 
L 173.073807 365.865583 
L 184.91017 356.45325 
L 196.746534 377.4045 
L 208.582898 361.050361 
L 220.419261 363.39925 
L 232.255625 348.216886 
L 244.091989 350.891417 
L 255.928352 346.975096 
L 267.764716 341.20225 
L 279.60108 361.144317 
L 291.437443 357.453625 
L 303.273807 359.046897 
L 315.11017 359.758472 
L 326.946534 356.945987 
L 338.782898 350.18675 
L 350.619261 349.406583 
L 362.455625 341.394432 
L 374.291989 334.354728 
L 386.128352 327.197 
L 397.964716 334.73341 
L 409.80108 338.356481 
L 421.637443 328.244213 
L 433.473807 325.57375 
L 445.31017 328.992078 
L 457.146534 338.45405 
L 468.982898 344.714218 
L 480.819261 339.814937 
L 492.655625 350.202765 
" style="fill:none;stroke:#94c4df;stroke-linecap:square;stroke-width:1.5;"/>
   </g>
   <g id="line2d_60">
    <path clip-path="url(#p72d6a9b034)" d="M 102.055625 433.16125 
L 113.891989 412.02125 
L 125.728352 373.96925 
L 137.564716 357.761917 
L 149.40108 379.78275 
L 161.237443 364.24485 
L 173.073807 341.20225 
L 184.91017 347.99725 
L 196.746534 345.95875 
L 208.582898 332.159028 
L 220.419261 341.20225 
L 232.255625 340.529614 
L 244.091989 349.482083 
L 255.928352 347.950788 
L 267.764716 346.33625 
L 279.60108 360.86245 
L 291.437443 367.230875 
L 303.273807 359.419956 
L 315.11017 357.292139 
L 326.946534 354.164408 
L 338.782898 354.30905 
L 350.619261 352.82925 
L 362.455625 350.907432 
L 374.291989 349.336554 
L 386.128352 345.43025 
L 397.964716 343.52765 
L 409.80108 342.421865 
L 421.637443 356.195991 
L 433.473807 346.03425 
L 445.31017 353.339526 
L 457.146534 349.305917 
L 468.982898 346.146282 
L 480.819261 345.496312 
L 492.655625 358.466583 
" style="fill:none;stroke:#94c4df;stroke-linecap:square;stroke-width:1.5;"/>
   </g>
   <g id="line2d_61">
    <path clip-path="url(#p72d6a9b034)" d="M 102.055625 331.68925 
L 113.891989 373.96925 
L 125.728352 354.94325 
L 137.564716 356.352583 
L 149.40108 364.98475 
L 161.237443 359.59405 
L 173.073807 348.60125 
L 184.91017 349.50725 
L 196.746534 339.3525 
L 208.582898 342.729028 
L 220.419261 338.87685 
L 232.255625 348.216886 
L 244.091989 336.798083 
L 255.928352 352.016173 
L 267.764716 343.31625 
L 279.60108 340.14525 
L 291.437443 343.448375 
L 303.273807 335.171132 
L 315.11017 342.25925 
L 326.946534 355.833355 
L 338.782898 352.93495 
L 350.619261 346.587917 
L 362.455625 342.931886 
L 374.291989 338.582728 
L 386.128352 340.321417 
L 397.964716 350.88437 
L 409.80108 346.405942 
L 421.637443 342.024361 
L 433.473807 342.41025 
L 445.31017 337.520974 
L 457.146534 341.272717 
L 468.982898 332.780347 
L 480.819261 337.2385 
L 492.655625 346.807553 
" style="fill:none;stroke:#94c4df;stroke-linecap:square;stroke-width:1.5;"/>
   </g>
   <g id="line2d_62">
    <path clip-path="url(#p72d6a9b034)" d="M 102.055625 331.68925 
L 113.891989 340.14525 
L 125.728352 317.94825 
L 137.564716 362.694583 
L 149.40108 335.38875 
L 161.237443 319.00525 
L 173.073807 337.326583 
L 184.91017 343.46725 
L 196.746534 357.85 
L 208.582898 363.634139 
L 220.419261 353.04065 
L 232.255625 354.751068 
L 244.091989 350.18675 
L 255.928352 340.470481 
L 267.764716 340.90025 
L 279.60108 335.353517 
L 291.437443 323.23325 
L 303.273807 321.616662 
L 315.11017 338.618472 
L 326.946534 336.362303 
L 338.782898 326.93275 
L 350.619261 344.07125 
L 362.455625 346.967705 
L 374.291989 354.207946 
L 386.128352 346.399167 
L 397.964716 348.17845 
L 409.80108 346.731173 
L 421.637443 341.63288 
L 433.473807 346.10975 
L 445.31017 353.849802 
L 457.146534 350.151517 
L 468.982898 349.55596 
L 480.819261 338.55975 
L 492.655625 348.409068 
" style="fill:none;stroke:#94c4df;stroke-linecap:square;stroke-width:1.5;"/>
   </g>
   <g id="line2d_63">
    <path clip-path="url(#p72d6a9b034)" d="M 102.055625 344.37325 
L 113.891989 325.34725 
L 125.728352 313.72025 
L 137.564716 352.124583 
L 149.40108 321.64775 
L 161.237443 335.91725 
L 173.073807 352.476917 
L 184.91017 333.19925 
L 196.746534 348.60125 
L 208.582898 357.292139 
L 220.419261 372.91225 
L 232.255625 367.435068 
L 244.091989 370.445917 
L 255.928352 358.683404 
L 267.764716 345.12825 
L 279.60108 346.346317 
L 291.437443 340.541625 
L 303.273807 344.621956 
L 315.11017 346.017472 
L 326.946534 347.933671 
L 338.782898 362.13085 
L 350.619261 353.533917 
L 362.455625 350.234795 
L 374.291989 339.042293 
L 386.128352 332.129667 
L 397.964716 340.56805 
L 409.80108 331.770558 
L 421.637443 339.049102 
L 433.473807 347.24225 
L 445.31017 337.083595 
L 457.146534 344.302783 
L 468.982898 341.30454 
L 480.819261 325.743625 
L 492.655625 344.245129 
" style="fill:none;stroke:#94c4df;stroke-linecap:square;stroke-width:1.5;"/>
   </g>
   <g id="line2d_64">
    <path clip-path="url(#p72d6a9b034)" d="M 102.055625 433.16125 
L 113.891989 433.16125 
L 125.728352 433.16125 
L 137.564716 433.16125 
L 149.40108 433.16125 
L 161.237443 433.16125 
L 173.073807 433.16125 
L 184.91017 433.16125 
L 196.746534 433.16125 
L 208.582898 433.16125 
L 220.419261 433.16125 
L 232.255625 433.16125 
L 244.091989 433.16125 
L 255.928352 433.16125 
L 267.764716 433.16125 
L 279.60108 433.16125 
L 291.437443 433.16125 
L 303.273807 433.16125 
L 315.11017 433.16125 
L 326.946534 433.16125 
L 338.782898 433.16125 
L 350.619261 433.16125 
L 362.455625 433.16125 
L 374.291989 433.16125 
L 386.128352 433.16125 
L 397.964716 433.16125 
L 409.80108 433.16125 
L 421.637443 433.16125 
L 433.473807 433.16125 
L 445.31017 433.16125 
L 457.146534 433.16125 
L 468.982898 433.16125 
L 480.819261 433.16125 
L 492.655625 433.16125 
" style="fill:none;stroke:#000000;stroke-linecap:square;stroke-width:1.5;"/>
   </g>
   <g id="line2d_65">
    <path clip-path="url(#p72d6a9b034)" d="M 102.055625 433.16125 
L 113.891989 433.16125 
L 125.728352 433.16125 
L 137.564716 433.16125 
L 149.40108 433.16125 
L 161.237443 433.16125 
L 173.073807 433.16125 
L 184.91017 433.16125 
L 196.746534 433.16125 
L 208.582898 433.16125 
L 220.419261 433.16125 
L 232.255625 433.16125 
L 244.091989 433.16125 
L 255.928352 433.16125 
L 267.764716 433.16125 
L 279.60108 433.16125 
L 291.437443 433.16125 
L 303.273807 433.16125 
L 315.11017 433.16125 
L 326.946534 433.16125 
L 338.782898 433.16125 
L 350.619261 433.16125 
L 362.455625 433.16125 
L 374.291989 433.16125 
L 386.128352 433.16125 
L 397.964716 433.16125 
L 409.80108 433.16125 
L 421.637443 433.16125 
L 433.473807 433.16125 
L 445.31017 433.16125 
L 457.146534 433.16125 
L 468.982898 433.16125 
L 480.819261 433.16125 
L 492.655625 433.16125 
" style="fill:none;stroke:#000000;stroke-linecap:square;stroke-width:1.5;"/>
   </g>
   <g id="line2d_66">
    <path clip-path="url(#p72d6a9b034)" d="M 102.055625 433.16125 
L 113.891989 433.16125 
L 125.728352 433.16125 
L 137.564716 433.16125 
L 149.40108 433.16125 
L 161.237443 433.16125 
L 173.073807 433.16125 
L 184.91017 433.16125 
L 196.746534 433.16125 
L 208.582898 433.16125 
L 220.419261 433.16125 
L 232.255625 433.16125 
L 244.091989 433.16125 
L 255.928352 433.16125 
L 267.764716 433.16125 
L 279.60108 433.16125 
L 291.437443 433.16125 
L 303.273807 433.16125 
L 315.11017 433.16125 
L 326.946534 433.16125 
L 338.782898 433.16125 
L 350.619261 433.16125 
L 362.455625 433.16125 
L 374.291989 433.16125 
L 386.128352 433.16125 
L 397.964716 433.16125 
L 409.80108 433.16125 
L 421.637443 433.16125 
L 433.473807 433.16125 
L 445.31017 433.16125 
L 457.146534 433.16125 
L 468.982898 433.16125 
L 480.819261 433.16125 
L 492.655625 433.16125 
" style="fill:none;stroke:#000000;stroke-linecap:square;stroke-width:1.5;"/>
   </g>
   <g id="line2d_67">
    <path clip-path="url(#p72d6a9b034)" d="M 102.055625 433.16125 
L 113.891989 433.16125 
L 125.728352 433.16125 
L 137.564716 433.16125 
L 149.40108 433.16125 
L 161.237443 433.16125 
L 173.073807 433.16125 
L 184.91017 433.16125 
L 196.746534 433.16125 
L 208.582898 433.16125 
L 220.419261 433.16125 
L 232.255625 433.16125 
L 244.091989 433.16125 
L 255.928352 433.16125 
L 267.764716 433.16125 
L 279.60108 433.16125 
L 291.437443 433.16125 
L 303.273807 433.16125 
L 315.11017 433.16125 
L 326.946534 433.16125 
L 338.782898 433.16125 
L 350.619261 433.16125 
L 362.455625 433.16125 
L 374.291989 433.16125 
L 386.128352 433.16125 
L 397.964716 433.16125 
L 409.80108 433.16125 
L 421.637443 433.16125 
L 433.473807 433.16125 
L 445.31017 433.16125 
L 457.146534 433.16125 
L 468.982898 433.16125 
L 480.819261 433.16125 
L 492.655625 433.16125 
" style="fill:none;stroke:#000000;stroke-linecap:square;stroke-width:1.5;"/>
   </g>
   <g id="line2d_68">
    <path clip-path="url(#p72d6a9b034)" d="M 102.055625 433.16125 
L 113.891989 433.16125 
L 125.728352 433.16125 
L 137.564716 433.16125 
L 149.40108 433.16125 
L 161.237443 433.16125 
L 173.073807 433.16125 
L 184.91017 433.16125 
L 196.746534 433.16125 
L 208.582898 433.16125 
L 220.419261 433.16125 
L 232.255625 433.16125 
L 244.091989 433.16125 
L 255.928352 433.16125 
L 267.764716 433.16125 
L 279.60108 433.16125 
L 291.437443 433.16125 
L 303.273807 433.16125 
L 315.11017 433.16125 
L 326.946534 433.16125 
L 338.782898 433.16125 
L 350.619261 433.16125 
L 362.455625 433.16125 
L 374.291989 433.16125 
L 386.128352 433.16125 
L 397.964716 433.16125 
L 409.80108 433.16125 
L 421.637443 433.16125 
L 433.473807 433.16125 
L 445.31017 433.16125 
L 457.146534 433.16125 
L 468.982898 433.16125 
L 480.819261 433.16125 
L 492.655625 433.16125 
" style="fill:none;stroke:#000000;stroke-linecap:square;stroke-width:1.5;"/>
   </g>
   <g id="line2d_69">
    <path clip-path="url(#p72d6a9b034)" d="M 102.055625 433.16125 
L 113.891989 433.16125 
L 125.728352 433.16125 
L 137.564716 433.16125 
L 149.40108 433.16125 
L 161.237443 433.16125 
L 173.073807 433.16125 
L 184.91017 433.16125 
L 196.746534 433.16125 
L 208.582898 433.16125 
L 220.419261 433.16125 
L 232.255625 433.16125 
L 244.091989 433.16125 
L 255.928352 433.16125 
L 267.764716 433.16125 
L 279.60108 433.16125 
L 291.437443 433.16125 
L 303.273807 433.16125 
L 315.11017 433.16125 
L 326.946534 433.16125 
L 338.782898 433.16125 
L 350.619261 433.16125 
L 362.455625 433.16125 
L 374.291989 433.16125 
L 386.128352 433.16125 
L 397.964716 433.16125 
L 409.80108 433.16125 
L 421.637443 433.16125 
L 433.473807 433.16125 
L 445.31017 433.16125 
L 457.146534 433.16125 
L 468.982898 433.16125 
L 480.819261 433.16125 
L 492.655625 433.16125 
" style="fill:none;stroke:#000000;stroke-linecap:square;stroke-width:1.5;"/>
   </g>
   <g id="line2d_70">
    <path clip-path="url(#p72d6a9b034)" d="M 102.055625 433.16125 
L 113.891989 433.16125 
L 125.728352 433.16125 
L 137.564716 433.16125 
L 149.40108 433.16125 
L 161.237443 433.16125 
L 173.073807 433.16125 
L 184.91017 433.16125 
L 196.746534 433.16125 
L 208.582898 433.16125 
L 220.419261 433.16125 
L 232.255625 433.16125 
L 244.091989 433.16125 
L 255.928352 433.16125 
L 267.764716 433.16125 
L 279.60108 433.16125 
L 291.437443 433.16125 
L 303.273807 433.16125 
L 315.11017 433.16125 
L 326.946534 433.16125 
L 338.782898 433.16125 
L 350.619261 433.16125 
L 362.455625 433.16125 
L 374.291989 433.16125 
L 386.128352 433.16125 
L 397.964716 433.16125 
L 409.80108 433.16125 
L 421.637443 433.16125 
L 433.473807 433.16125 
L 445.31017 433.16125 
L 457.146534 433.16125 
L 468.982898 433.16125 
L 480.819261 433.16125 
L 492.655625 433.16125 
" style="fill:none;stroke:#000000;stroke-linecap:square;stroke-width:1.5;"/>
   </g>
   <g id="line2d_71">
    <path clip-path="url(#p72d6a9b034)" d="M 102.055625 433.16125 
L 113.891989 433.16125 
L 125.728352 433.16125 
L 137.564716 433.16125 
L 149.40108 433.16125 
L 161.237443 433.16125 
L 173.073807 433.16125 
L 184.91017 433.16125 
L 196.746534 433.16125 
L 208.582898 433.16125 
L 220.419261 433.16125 
L 232.255625 433.16125 
L 244.091989 433.16125 
L 255.928352 433.16125 
L 267.764716 433.16125 
L 279.60108 433.16125 
L 291.437443 433.16125 
L 303.273807 433.16125 
L 315.11017 433.16125 
L 326.946534 433.16125 
L 338.782898 433.16125 
L 350.619261 433.16125 
L 362.455625 433.16125 
L 374.291989 433.16125 
L 386.128352 433.16125 
L 397.964716 433.16125 
L 409.80108 433.16125 
L 421.637443 433.16125 
L 433.473807 433.16125 
L 445.31017 433.16125 
L 457.146534 433.16125 
L 468.982898 433.16125 
L 480.819261 433.16125 
L 492.655625 433.16125 
" style="fill:none;stroke:#000000;stroke-linecap:square;stroke-width:1.5;"/>
   </g>
   <g id="line2d_72">
    <path clip-path="url(#p72d6a9b034)" d="M 102.055625 433.16125 
L 113.891989 433.16125 
L 125.728352 433.16125 
L 137.564716 433.16125 
L 149.40108 433.16125 
L 161.237443 433.16125 
L 173.073807 433.16125 
L 184.91017 433.16125 
L 196.746534 433.16125 
L 208.582898 433.16125 
L 220.419261 433.16125 
L 232.255625 433.16125 
L 244.091989 433.16125 
L 255.928352 433.16125 
L 267.764716 433.16125 
L 279.60108 433.16125 
L 291.437443 433.16125 
L 303.273807 433.16125 
L 315.11017 433.16125 
L 326.946534 433.16125 
L 338.782898 433.16125 
L 350.619261 433.16125 
L 362.455625 433.16125 
L 374.291989 433.16125 
L 386.128352 433.16125 
L 397.964716 433.16125 
L 409.80108 433.16125 
L 421.637443 433.16125 
L 433.473807 433.16125 
L 445.31017 433.16125 
L 457.146534 433.16125 
L 468.982898 433.16125 
L 480.819261 433.16125 
L 492.655625 433.16125 
" style="fill:none;stroke:#000000;stroke-linecap:square;stroke-width:1.5;"/>
   </g>
   <g id="line2d_73">
    <path clip-path="url(#p72d6a9b034)" d="M 102.055625 433.16125 
L 113.891989 433.16125 
L 125.728352 433.16125 
L 137.564716 433.16125 
L 149.40108 433.16125 
L 161.237443 433.16125 
L 173.073807 433.16125 
L 184.91017 433.16125 
L 196.746534 433.16125 
L 208.582898 433.16125 
L 220.419261 433.16125 
L 232.255625 433.16125 
L 244.091989 433.16125 
L 255.928352 433.16125 
L 267.764716 433.16125 
L 279.60108 433.16125 
L 291.437443 433.16125 
L 303.273807 433.16125 
L 315.11017 433.16125 
L 326.946534 433.16125 
L 338.782898 433.16125 
L 350.619261 433.16125 
L 362.455625 433.16125 
L 374.291989 433.16125 
L 386.128352 433.16125 
L 397.964716 433.16125 
L 409.80108 433.16125 
L 421.637443 433.16125 
L 433.473807 433.16125 
L 445.31017 433.16125 
L 457.146534 433.16125 
L 468.982898 433.16125 
L 480.819261 433.16125 
L 492.655625 433.16125 
" style="fill:none;stroke:#000000;stroke-linecap:square;stroke-width:1.5;"/>
   </g>
   <g id="line2d_74">
    <path clip-path="url(#p72d6a9b034)" d="M 90.219261 433.16125 
" style="fill:none;stroke:#000000;stroke-linecap:square;stroke-width:1.5;"/>
   </g>
   <g id="line2d_75">
    <path clip-path="url(#p72d6a9b034)" d="M 90.219261 433.16125 
" style="fill:none;stroke:#d0e1f2;stroke-linecap:square;stroke-width:1.5;"/>
   </g>
   <g id="line2d_76">
    <path clip-path="url(#p72d6a9b034)" d="M 90.219261 433.16125 
" style="fill:none;stroke:#94c4df;stroke-linecap:square;stroke-width:1.5;"/>
   </g>
   <g id="line2d_77">
    <path clip-path="url(#p72d6a9b034)" d="M 90.219261 433.16125 
" style="fill:none;stroke:#4a98c9;stroke-linecap:square;stroke-width:1.5;"/>
   </g>
   <g id="line2d_78">
    <path clip-path="url(#p72d6a9b034)" d="M 90.219261 433.16125 
" style="fill:none;stroke:#1764ab;stroke-linecap:square;stroke-width:1.5;"/>
   </g>
   <g id="line2d_79">
    <path clip-path="url(#p72d6a9b034)" d="M 90.219261 433.16125 
" style="fill:none;stroke:#08306b;stroke-linecap:square;stroke-width:1.5;"/>
   </g>
   <g id="line2d_80">
    <path clip-path="url(#p72d6a9b034)" d="M 90.219261 433.16125 
" style="fill:none;stroke:#000000;stroke-linecap:square;stroke-width:1.5;"/>
   </g>
   <g id="line2d_81">
    <path clip-path="url(#p72d6a9b034)" d="M 90.219261 433.16125 
" style="fill:none;stroke:#000000;stroke-dasharray:1.5,2.475;stroke-dashoffset:0;stroke-width:1.5;"/>
   </g>
   <g id="line2d_82">
    <path clip-path="url(#p72d6a9b034)" d="M 90.219261 433.16125 
" style="fill:none;stroke:#000000;stroke-linecap:square;stroke-width:1.5;"/>
   </g>
   <g id="line2d_83">
    <path clip-path="url(#p72d6a9b034)" d="M 90.219261 433.16125 
" style="fill:none;stroke:#000000;stroke-dasharray:5.55,2.4;stroke-dashoffset:0;stroke-width:1.5;"/>
   </g>
   <g id="line2d_84">
    <path clip-path="url(#p72d6a9b034)" d="M 90.219261 433.16125 
" style="fill:none;stroke:#000000;stroke-dasharray:9.6,2.4,1.5,2.4;stroke-dashoffset:0;stroke-width:1.5;"/>
   </g>
   <g id="line2d_85">
    <path clip-path="url(#p72d6a9b034)" d="M 90.219261 433.16125 
" style="fill:none;stroke:#000000;stroke-dasharray:9.6,2.4,1.5,2.4;stroke-dashoffset:0;stroke-width:1.5;"/>
   </g>
   <g id="patch_3">
    <path d="M 102.055625 433.16125 
L 102.055625 52.64125 
" style="fill:none;stroke:#000000;stroke-linecap:square;stroke-linejoin:miter;stroke-width:0.8;"/>
   </g>
   <g id="patch_4">
    <path d="M 492.655625 433.16125 
L 492.655625 52.64125 
" style="fill:none;stroke:#000000;stroke-linecap:square;stroke-linejoin:miter;stroke-width:0.8;"/>
   </g>
   <g id="patch_5">
    <path d="M 102.055625 433.16125 
L 492.655625 433.16125 
" style="fill:none;stroke:#000000;stroke-linecap:square;stroke-linejoin:miter;stroke-width:0.8;"/>
   </g>
   <g id="patch_6">
    <path d="M 102.055625 52.64125 
L 492.655625 52.64125 
" style="fill:none;stroke:#000000;stroke-linecap:square;stroke-linejoin:miter;stroke-width:0.8;"/>
   </g>
   <g id="text_16">
    <!-- CD4 LIVE NORMALIZED COUNT -->
    <g transform="translate(144.579063 21.515625)scale(0.2 -0.2)">
     <use xlink:href="#Arial-BoldMT-67"/>
     <use x="72.216797" xlink:href="#Arial-BoldMT-68"/>
     <use x="144.433594" xlink:href="#Arial-BoldMT-52"/>
     <use x="200.048828" xlink:href="#Arial-BoldMT-32"/>
     <use x="227.832031" xlink:href="#Arial-BoldMT-76"/>
     <use x="288.916016" xlink:href="#Arial-BoldMT-73"/>
     <use x="316.699219" xlink:href="#Arial-BoldMT-86"/>
     <use x="383.398438" xlink:href="#Arial-BoldMT-69"/>
     <use x="450.097656" xlink:href="#Arial-BoldMT-32"/>
     <use x="477.880859" xlink:href="#Arial-BoldMT-78"/>
     <use x="550.097656" xlink:href="#Arial-BoldMT-79"/>
     <use x="627.880859" xlink:href="#Arial-BoldMT-82"/>
     <use x="700.097656" xlink:href="#Arial-BoldMT-77"/>
     <use x="783.398438" xlink:href="#Arial-BoldMT-65"/>
     <use x="855.615234" xlink:href="#Arial-BoldMT-76"/>
     <use x="916.699219" xlink:href="#Arial-BoldMT-73"/>
     <use x="944.482422" xlink:href="#Arial-BoldMT-90"/>
     <use x="1005.566406" xlink:href="#Arial-BoldMT-69"/>
     <use x="1072.265625" xlink:href="#Arial-BoldMT-68"/>
     <use x="1144.482422" xlink:href="#Arial-BoldMT-32"/>
     <use x="1172.265625" xlink:href="#Arial-BoldMT-67"/>
     <use x="1244.482422" xlink:href="#Arial-BoldMT-79"/>
     <use x="1322.265625" xlink:href="#Arial-BoldMT-85"/>
     <use x="1394.482422" xlink:href="#Arial-BoldMT-78"/>
     <use x="1466.699219" xlink:href="#Arial-BoldMT-84"/>
    </g>
    <!-- ACROSS RADIUS AT TIME 7 -->
    <defs>
     <path d="M 4.25 57.859375 
L 4.25 70.609375 
L 51.171875 70.609375 
L 51.171875 60.640625 
Q 45.359375 54.9375 39.34375 44.234375 
Q 33.34375 33.546875 30.1875 21.5 
Q 27.046875 9.46875 27.09375 0 
L 13.875 0 
Q 14.203125 14.84375 19.984375 30.265625 
Q 25.78125 45.703125 35.453125 57.859375 
z
" id="Arial-BoldMT-55"/>
    </defs>
    <g transform="translate(162.361875 42.64125)scale(0.2 -0.2)">
     <use xlink:href="#Arial-BoldMT-65"/>
     <use x="72.216797" xlink:href="#Arial-BoldMT-67"/>
     <use x="144.433594" xlink:href="#Arial-BoldMT-82"/>
     <use x="216.650391" xlink:href="#Arial-BoldMT-79"/>
     <use x="294.433594" xlink:href="#Arial-BoldMT-83"/>
     <use x="361.132812" xlink:href="#Arial-BoldMT-83"/>
     <use x="427.832031" xlink:href="#Arial-BoldMT-32"/>
     <use x="455.615234" xlink:href="#Arial-BoldMT-82"/>
     <use x="527.832031" xlink:href="#Arial-BoldMT-65"/>
     <use x="600.048828" xlink:href="#Arial-BoldMT-68"/>
     <use x="672.265625" xlink:href="#Arial-BoldMT-73"/>
     <use x="700.048828" xlink:href="#Arial-BoldMT-85"/>
     <use x="772.265625" xlink:href="#Arial-BoldMT-83"/>
     <use x="838.964844" xlink:href="#Arial-BoldMT-32"/>
     <use x="866.701172" xlink:href="#Arial-BoldMT-65"/>
     <use x="938.808594" xlink:href="#Arial-BoldMT-84"/>
     <use x="999.892578" xlink:href="#Arial-BoldMT-32"/>
     <use x="1027.675781" xlink:href="#Arial-BoldMT-84"/>
     <use x="1088.759766" xlink:href="#Arial-BoldMT-73"/>
     <use x="1116.542969" xlink:href="#Arial-BoldMT-77"/>
     <use x="1199.84375" xlink:href="#Arial-BoldMT-69"/>
     <use x="1266.542969" xlink:href="#Arial-BoldMT-32"/>
     <use x="1294.326172" xlink:href="#Arial-BoldMT-55"/>
    </g>
   </g>
   <g id="legend_1">
    <g id="line2d_86">
     <path d="M 423.843125 65.739687 
L 443.843125 65.739687 
" style="fill:none;stroke:#000000;stroke-linecap:square;stroke-width:1.5;"/>
    </g>
    <g id="line2d_87"/>
    <g id="text_17">
     <!-- 0 -->
     <g transform="translate(451.843125 69.239687)scale(0.1 -0.1)">
      <use xlink:href="#DejaVuSans-48"/>
     </g>
    </g>
    <g id="line2d_88">
     <path d="M 423.843125 80.417812 
L 443.843125 80.417812 
" style="fill:none;stroke:#d0e1f2;stroke-linecap:square;stroke-width:1.5;"/>
    </g>
    <g id="line2d_89"/>
    <g id="text_18">
     <!-- 100 -->
     <g transform="translate(451.843125 83.917812)scale(0.1 -0.1)">
      <use xlink:href="#DejaVuSans-49"/>
      <use x="63.623047" xlink:href="#DejaVuSans-48"/>
      <use x="127.246094" xlink:href="#DejaVuSans-48"/>
     </g>
    </g>
    <g id="line2d_90">
     <path d="M 423.843125 95.095937 
L 443.843125 95.095937 
" style="fill:none;stroke:#94c4df;stroke-linecap:square;stroke-width:1.5;"/>
    </g>
    <g id="line2d_91"/>
    <g id="text_19">
     <!-- 500 -->
     <g transform="translate(451.843125 98.595937)scale(0.1 -0.1)">
      <use xlink:href="#DejaVuSans-53"/>
      <use x="63.623047" xlink:href="#DejaVuSans-48"/>
      <use x="127.246094" xlink:href="#DejaVuSans-48"/>
     </g>
    </g>
    <g id="line2d_92">
     <path d="M 423.843125 109.774062 
L 443.843125 109.774062 
" style="fill:none;stroke:#4a98c9;stroke-linecap:square;stroke-width:1.5;"/>
    </g>
    <g id="line2d_93"/>
    <g id="text_20">
     <!-- 1000 -->
     <g transform="translate(451.843125 113.274062)scale(0.1 -0.1)">
      <use xlink:href="#DejaVuSans-49"/>
      <use x="63.623047" xlink:href="#DejaVuSans-48"/>
      <use x="127.246094" xlink:href="#DejaVuSans-48"/>
      <use x="190.869141" xlink:href="#DejaVuSans-48"/>
     </g>
    </g>
    <g id="line2d_94">
     <path d="M 423.843125 124.452187 
L 443.843125 124.452187 
" style="fill:none;stroke:#1764ab;stroke-linecap:square;stroke-width:1.5;"/>
    </g>
    <g id="line2d_95"/>
    <g id="text_21">
     <!-- 5000 -->
     <g transform="translate(451.843125 127.952187)scale(0.1 -0.1)">
      <use xlink:href="#DejaVuSans-53"/>
      <use x="63.623047" xlink:href="#DejaVuSans-48"/>
      <use x="127.246094" xlink:href="#DejaVuSans-48"/>
      <use x="190.869141" xlink:href="#DejaVuSans-48"/>
     </g>
    </g>
    <g id="line2d_96">
     <path d="M 423.843125 139.130312 
L 443.843125 139.130312 
" style="fill:none;stroke:#08306b;stroke-linecap:square;stroke-width:1.5;"/>
    </g>
    <g id="line2d_97"/>
    <g id="text_22">
     <!-- 10000 -->
     <g transform="translate(451.843125 142.630312)scale(0.1 -0.1)">
      <use xlink:href="#DejaVuSans-49"/>
      <use x="63.623047" xlink:href="#DejaVuSans-48"/>
      <use x="127.246094" xlink:href="#DejaVuSans-48"/>
      <use x="190.869141" xlink:href="#DejaVuSans-48"/>
      <use x="254.492188" xlink:href="#DejaVuSans-48"/>
     </g>
    </g>
    <g id="line2d_98">
     <path d="M 423.843125 153.808437 
L 443.843125 153.808437 
" style="fill:none;stroke:#000000;stroke-linecap:square;stroke-width:1.5;"/>
    </g>
    <g id="line2d_99"/>
    <g id="text_23">
     <!-- 0 -->
     <g transform="translate(451.843125 157.308437)scale(0.1 -0.1)">
      <use xlink:href="#DejaVuSans-48"/>
     </g>
    </g>
    <g id="line2d_100">
     <path d="M 423.843125 168.486562 
L 443.843125 168.486562 
" style="fill:none;stroke:#000000;stroke-dasharray:1.5,2.475;stroke-dashoffset:0;stroke-width:1.5;"/>
    </g>
    <g id="line2d_101"/>
    <g id="text_24">
     <!-- 250 -->
     <g transform="translate(451.843125 171.986562)scale(0.1 -0.1)">
      <use xlink:href="#DejaVuSans-50"/>
      <use x="63.623047" xlink:href="#DejaVuSans-53"/>
      <use x="127.246094" xlink:href="#DejaVuSans-48"/>
     </g>
    </g>
    <g id="line2d_102">
     <path d="M 423.843125 183.164687 
L 443.843125 183.164687 
" style="fill:none;stroke:#000000;stroke-linecap:square;stroke-width:1.5;"/>
    </g>
    <g id="line2d_103"/>
    <g id="text_25">
     <!-- 500 -->
     <g transform="translate(451.843125 186.664687)scale(0.1 -0.1)">
      <use xlink:href="#DejaVuSans-53"/>
      <use x="63.623047" xlink:href="#DejaVuSans-48"/>
      <use x="127.246094" xlink:href="#DejaVuSans-48"/>
     </g>
    </g>
    <g id="line2d_104">
     <path d="M 423.843125 197.842812 
L 443.843125 197.842812 
" style="fill:none;stroke:#000000;stroke-dasharray:5.55,2.4;stroke-dashoffset:0;stroke-width:1.5;"/>
    </g>
    <g id="line2d_105"/>
    <g id="text_26">
     <!-- 1000 -->
     <g transform="translate(451.843125 201.342812)scale(0.1 -0.1)">
      <use xlink:href="#DejaVuSans-49"/>
      <use x="63.623047" xlink:href="#DejaVuSans-48"/>
      <use x="127.246094" xlink:href="#DejaVuSans-48"/>
      <use x="190.869141" xlink:href="#DejaVuSans-48"/>
     </g>
    </g>
    <g id="line2d_106">
     <path d="M 423.843125 212.520937 
L 443.843125 212.520937 
" style="fill:none;stroke:#000000;stroke-dasharray:9.6,2.4,1.5,2.4;stroke-dashoffset:0;stroke-width:1.5;"/>
    </g>
    <g id="line2d_107"/>
    <g id="text_27">
     <!-- 5000 -->
     <g transform="translate(451.843125 216.020937)scale(0.1 -0.1)">
      <use xlink:href="#DejaVuSans-53"/>
      <use x="63.623047" xlink:href="#DejaVuSans-48"/>
      <use x="127.246094" xlink:href="#DejaVuSans-48"/>
      <use x="190.869141" xlink:href="#DejaVuSans-48"/>
     </g>
    </g>
    <g id="line2d_108">
     <path d="M 423.843125 227.199062 
L 443.843125 227.199062 
" style="fill:none;stroke:#000000;stroke-dasharray:9.6,2.4,1.5,2.4;stroke-dashoffset:0;stroke-width:1.5;"/>
    </g>
    <g id="line2d_109"/>
    <g id="text_28">
     <!-- 10000 -->
     <g transform="translate(451.843125 230.699062)scale(0.1 -0.1)">
      <use xlink:href="#DejaVuSans-49"/>
      <use x="63.623047" xlink:href="#DejaVuSans-48"/>
      <use x="127.246094" xlink:href="#DejaVuSans-48"/>
      <use x="190.869141" xlink:href="#DejaVuSans-48"/>
      <use x="254.492188" xlink:href="#DejaVuSans-48"/>
     </g>
    </g>
   </g>
  </g>
 </g>
 <defs>
  <clipPath id="p72d6a9b034">
   <rect height="380.52" width="390.6" x="102.055625" y="52.64125"/>
  </clipPath>
 </defs>
</svg>
