<?xml version="1.0" encoding="utf-8" standalone="no"?>
<!DOCTYPE svg PUBLIC "-//W3C//DTD SVG 1.1//EN"
  "http://www.w3.org/Graphics/SVG/1.1/DTD/svg11.dtd">
<!-- Created with matplotlib (https://matplotlib.org/) -->
<svg height="504.658125pt" version="1.1" viewBox="0 0 610.843125 504.658125" width="610.843125pt" xmlns="http://www.w3.org/2000/svg" xmlns:xlink="http://www.w3.org/1999/xlink">
 <defs>
  <style type="text/css">
*{stroke-linecap:butt;stroke-linejoin:round;}
  </style>
 </defs>
 <g id="figure_1">
  <g id="patch_1">
   <path d="M 0 504.658125 
L 610.843125 504.658125 
L 610.843125 -0 
L 0 -0 
z
" style="fill:#ffffff;"/>
  </g>
  <g id="axes_1">
   <g id="patch_2">
    <path d="M 140.230625 433.16125 
L 530.830625 433.16125 
L 530.830625 52.64125 
L 140.230625 52.64125 
z
" style="fill:#ffffff;"/>
   </g>
   <g id="matplotlib.axis_1">
    <g id="xtick_1">
     <g id="line2d_1">
      <defs>
       <path d="M 0 0 
L 0 3.5 
" id="mc5e02da909" style="stroke:#000000;stroke-width:0.8;"/>
      </defs>
      <g>
       <use style="stroke:#000000;stroke-width:0.8;" x="187.57608" xlink:href="#mc5e02da909" y="433.16125"/>
      </g>
     </g>
     <g id="text_1">
      <!-- 5 -->
      <defs>
       <path d="M 10.796875 72.90625 
L 49.515625 72.90625 
L 49.515625 64.59375 
L 19.828125 64.59375 
L 19.828125 46.734375 
Q 21.96875 47.46875 24.109375 47.828125 
Q 26.265625 48.1875 28.421875 48.1875 
Q 40.625 48.1875 47.75 41.5 
Q 54.890625 34.8125 54.890625 23.390625 
Q 54.890625 11.625 47.5625 5.09375 
Q 40.234375 -1.421875 26.90625 -1.421875 
Q 22.3125 -1.421875 17.546875 -0.640625 
Q 12.796875 0.140625 7.71875 1.703125 
L 7.71875 11.625 
Q 12.109375 9.234375 16.796875 8.0625 
Q 21.484375 6.890625 26.703125 6.890625 
Q 35.15625 6.890625 40.078125 11.328125 
Q 45.015625 15.765625 45.015625 23.390625 
Q 45.015625 31 40.078125 35.4375 
Q 35.15625 39.890625 26.703125 39.890625 
Q 22.75 39.890625 18.8125 39.015625 
Q 14.890625 38.140625 10.796875 36.28125 
z
" id="DejaVuSans-53"/>
      </defs>
      <g transform="translate(178.03233 462.956562)scale(0.3 -0.3)">
       <use xlink:href="#DejaVuSans-53"/>
      </g>
     </g>
    </g>
    <g id="xtick_2">
     <g id="line2d_2">
      <g>
       <use style="stroke:#000000;stroke-width:0.8;" x="246.757898" xlink:href="#mc5e02da909" y="433.16125"/>
      </g>
     </g>
     <g id="text_2">
      <!-- 10 -->
      <defs>
       <path d="M 12.40625 8.296875 
L 28.515625 8.296875 
L 28.515625 63.921875 
L 10.984375 60.40625 
L 10.984375 69.390625 
L 28.421875 72.90625 
L 38.28125 72.90625 
L 38.28125 8.296875 
L 54.390625 8.296875 
L 54.390625 0 
L 12.40625 0 
z
" id="DejaVuSans-49"/>
       <path d="M 31.78125 66.40625 
Q 24.171875 66.40625 20.328125 58.90625 
Q 16.5 51.421875 16.5 36.375 
Q 16.5 21.390625 20.328125 13.890625 
Q 24.171875 6.390625 31.78125 6.390625 
Q 39.453125 6.390625 43.28125 13.890625 
Q 47.125 21.390625 47.125 36.375 
Q 47.125 51.421875 43.28125 58.90625 
Q 39.453125 66.40625 31.78125 66.40625 
z
M 31.78125 74.21875 
Q 44.046875 74.21875 50.515625 64.515625 
Q 56.984375 54.828125 56.984375 36.375 
Q 56.984375 17.96875 50.515625 8.265625 
Q 44.046875 -1.421875 31.78125 -1.421875 
Q 19.53125 -1.421875 13.0625 8.265625 
Q 6.59375 17.96875 6.59375 36.375 
Q 6.59375 54.828125 13.0625 64.515625 
Q 19.53125 74.21875 31.78125 74.21875 
z
" id="DejaVuSans-48"/>
      </defs>
      <g transform="translate(227.670398 462.956562)scale(0.3 -0.3)">
       <use xlink:href="#DejaVuSans-49"/>
       <use x="63.623047" xlink:href="#DejaVuSans-48"/>
      </g>
     </g>
    </g>
    <g id="xtick_3">
     <g id="line2d_3">
      <g>
       <use style="stroke:#000000;stroke-width:0.8;" x="305.939716" xlink:href="#mc5e02da909" y="433.16125"/>
      </g>
     </g>
     <g id="text_3">
      <!-- 15 -->
      <g transform="translate(286.852216 462.956562)scale(0.3 -0.3)">
       <use xlink:href="#DejaVuSans-49"/>
       <use x="63.623047" xlink:href="#DejaVuSans-53"/>
      </g>
     </g>
    </g>
    <g id="xtick_4">
     <g id="line2d_4">
      <g>
       <use style="stroke:#000000;stroke-width:0.8;" x="365.121534" xlink:href="#mc5e02da909" y="433.16125"/>
      </g>
     </g>
     <g id="text_4">
      <!-- 20 -->
      <defs>
       <path d="M 19.1875 8.296875 
L 53.609375 8.296875 
L 53.609375 0 
L 7.328125 0 
L 7.328125 8.296875 
Q 12.9375 14.109375 22.625 23.890625 
Q 32.328125 33.6875 34.8125 36.53125 
Q 39.546875 41.84375 41.421875 45.53125 
Q 43.3125 49.21875 43.3125 52.78125 
Q 43.3125 58.59375 39.234375 62.25 
Q 35.15625 65.921875 28.609375 65.921875 
Q 23.96875 65.921875 18.8125 64.3125 
Q 13.671875 62.703125 7.8125 59.421875 
L 7.8125 69.390625 
Q 13.765625 71.78125 18.9375 73 
Q 24.125 74.21875 28.421875 74.21875 
Q 39.75 74.21875 46.484375 68.546875 
Q 53.21875 62.890625 53.21875 53.421875 
Q 53.21875 48.921875 51.53125 44.890625 
Q 49.859375 40.875 45.40625 35.40625 
Q 44.1875 33.984375 37.640625 27.21875 
Q 31.109375 20.453125 19.1875 8.296875 
z
" id="DejaVuSans-50"/>
      </defs>
      <g transform="translate(346.034034 462.956562)scale(0.3 -0.3)">
       <use xlink:href="#DejaVuSans-50"/>
       <use x="63.623047" xlink:href="#DejaVuSans-48"/>
      </g>
     </g>
    </g>
    <g id="xtick_5">
     <g id="line2d_5">
      <g>
       <use style="stroke:#000000;stroke-width:0.8;" x="424.303352" xlink:href="#mc5e02da909" y="433.16125"/>
      </g>
     </g>
     <g id="text_5">
      <!-- 25 -->
      <g transform="translate(405.215852 462.956562)scale(0.3 -0.3)">
       <use xlink:href="#DejaVuSans-50"/>
       <use x="63.623047" xlink:href="#DejaVuSans-53"/>
      </g>
     </g>
    </g>
    <g id="xtick_6">
     <g id="line2d_6">
      <g>
       <use style="stroke:#000000;stroke-width:0.8;" x="483.48517" xlink:href="#mc5e02da909" y="433.16125"/>
      </g>
     </g>
     <g id="text_6">
      <!-- 30 -->
      <defs>
       <path d="M 40.578125 39.3125 
Q 47.65625 37.796875 51.625 33 
Q 55.609375 28.21875 55.609375 21.1875 
Q 55.609375 10.40625 48.1875 4.484375 
Q 40.765625 -1.421875 27.09375 -1.421875 
Q 22.515625 -1.421875 17.65625 -0.515625 
Q 12.796875 0.390625 7.625 2.203125 
L 7.625 11.71875 
Q 11.71875 9.328125 16.59375 8.109375 
Q 21.484375 6.890625 26.8125 6.890625 
Q 36.078125 6.890625 40.9375 10.546875 
Q 45.796875 14.203125 45.796875 21.1875 
Q 45.796875 27.640625 41.28125 31.265625 
Q 36.765625 34.90625 28.71875 34.90625 
L 20.21875 34.90625 
L 20.21875 43.015625 
L 29.109375 43.015625 
Q 36.375 43.015625 40.234375 45.921875 
Q 44.09375 48.828125 44.09375 54.296875 
Q 44.09375 59.90625 40.109375 62.90625 
Q 36.140625 65.921875 28.71875 65.921875 
Q 24.65625 65.921875 20.015625 65.03125 
Q 15.375 64.15625 9.8125 62.3125 
L 9.8125 71.09375 
Q 15.4375 72.65625 20.34375 73.4375 
Q 25.25 74.21875 29.59375 74.21875 
Q 40.828125 74.21875 47.359375 69.109375 
Q 53.90625 64.015625 53.90625 55.328125 
Q 53.90625 49.265625 50.4375 45.09375 
Q 46.96875 40.921875 40.578125 39.3125 
z
" id="DejaVuSans-51"/>
      </defs>
      <g transform="translate(464.39767 462.956562)scale(0.3 -0.3)">
       <use xlink:href="#DejaVuSans-51"/>
       <use x="63.623047" xlink:href="#DejaVuSans-48"/>
      </g>
     </g>
    </g>
    <g id="text_7">
     <!-- RADIUS -->
     <defs>
      <path d="M 7.328125 0 
L 7.328125 71.578125 
L 37.75 71.578125 
Q 49.21875 71.578125 54.421875 69.640625 
Q 59.625 67.71875 62.75 62.78125 
Q 65.875 57.859375 65.875 51.515625 
Q 65.875 43.453125 61.125 38.203125 
Q 56.390625 32.953125 46.96875 31.59375 
Q 51.65625 28.859375 54.703125 25.578125 
Q 57.765625 22.3125 62.9375 13.96875 
L 71.6875 0 
L 54.390625 0 
L 43.953125 15.578125 
Q 38.375 23.921875 36.328125 26.09375 
Q 34.28125 28.265625 31.984375 29.078125 
Q 29.6875 29.890625 24.703125 29.890625 
L 21.78125 29.890625 
L 21.78125 0 
z
M 21.78125 41.3125 
L 32.46875 41.3125 
Q 42.875 41.3125 45.453125 42.1875 
Q 48.046875 43.0625 49.515625 45.203125 
Q 50.984375 47.359375 50.984375 50.59375 
Q 50.984375 54.203125 49.046875 56.421875 
Q 47.125 58.640625 43.609375 59.234375 
Q 41.84375 59.46875 33.0625 59.46875 
L 21.78125 59.46875 
z
" id="Arial-BoldMT-82"/>
      <path d="M 71.828125 0 
L 56.109375 0 
L 49.859375 16.265625 
L 21.234375 16.265625 
L 15.328125 0 
L 0 0 
L 27.875 71.578125 
L 43.171875 71.578125 
z
M 45.21875 28.328125 
L 35.359375 54.890625 
L 25.6875 28.328125 
z
" id="Arial-BoldMT-65"/>
      <path d="M 7.234375 71.578125 
L 33.640625 71.578125 
Q 42.578125 71.578125 47.265625 70.21875 
Q 53.5625 68.359375 58.046875 63.625 
Q 62.546875 58.890625 64.890625 52.03125 
Q 67.234375 45.171875 67.234375 35.109375 
Q 67.234375 26.265625 65.046875 19.875 
Q 62.359375 12.0625 57.375 7.234375 
Q 53.609375 3.5625 47.21875 1.515625 
Q 42.4375 0 34.421875 0 
L 7.234375 0 
z
M 21.6875 59.46875 
L 21.6875 12.0625 
L 32.46875 12.0625 
Q 38.53125 12.0625 41.21875 12.75 
Q 44.734375 13.625 47.046875 15.71875 
Q 49.359375 17.828125 50.828125 22.625 
Q 52.296875 27.4375 52.296875 35.75 
Q 52.296875 44.046875 50.828125 48.484375 
Q 49.359375 52.9375 46.71875 55.421875 
Q 44.09375 57.90625 40.046875 58.796875 
Q 37.015625 59.46875 28.171875 59.46875 
z
" id="Arial-BoldMT-68"/>
      <path d="M 6.84375 0 
L 6.84375 71.578125 
L 21.296875 71.578125 
L 21.296875 0 
z
" id="Arial-BoldMT-73"/>
      <path d="M 7.171875 71.578125 
L 21.625 71.578125 
L 21.625 32.8125 
Q 21.625 23.578125 22.171875 20.84375 
Q 23.09375 16.453125 26.578125 13.796875 
Q 30.078125 11.140625 36.140625 11.140625 
Q 42.28125 11.140625 45.40625 13.640625 
Q 48.53125 16.15625 49.171875 19.8125 
Q 49.8125 23.484375 49.8125 31.984375 
L 49.8125 71.578125 
L 64.265625 71.578125 
L 64.265625 33.984375 
Q 64.265625 21.09375 63.09375 15.765625 
Q 61.921875 10.453125 58.765625 6.78125 
Q 55.609375 3.125 50.328125 0.953125 
Q 45.0625 -1.21875 36.578125 -1.21875 
Q 26.3125 -1.21875 21.015625 1.140625 
Q 15.71875 3.515625 12.640625 7.296875 
Q 9.578125 11.078125 8.59375 15.234375 
Q 7.171875 21.390625 7.171875 33.40625 
z
" id="Arial-BoldMT-85"/>
      <path d="M 3.609375 23.296875 
L 17.671875 24.65625 
Q 18.953125 17.578125 22.828125 14.25 
Q 26.703125 10.9375 33.296875 10.9375 
Q 40.28125 10.9375 43.8125 13.890625 
Q 47.359375 16.84375 47.359375 20.796875 
Q 47.359375 23.34375 45.875 25.125 
Q 44.390625 26.90625 40.671875 28.21875 
Q 38.140625 29.109375 29.109375 31.34375 
Q 17.484375 34.234375 12.796875 38.421875 
Q 6.203125 44.34375 6.203125 52.828125 
Q 6.203125 58.296875 9.296875 63.0625 
Q 12.40625 67.828125 18.234375 70.3125 
Q 24.078125 72.796875 32.328125 72.796875 
Q 45.796875 72.796875 52.609375 66.890625 
Q 59.421875 60.984375 59.765625 51.125 
L 45.3125 50.484375 
Q 44.390625 56 41.328125 58.421875 
Q 38.28125 60.84375 32.171875 60.84375 
Q 25.875 60.84375 22.3125 58.25 
Q 20.015625 56.59375 20.015625 53.8125 
Q 20.015625 51.265625 22.171875 49.46875 
Q 24.90625 47.171875 35.453125 44.671875 
Q 46 42.1875 51.046875 39.515625 
Q 56.109375 36.859375 58.953125 32.25 
Q 61.8125 27.640625 61.8125 20.84375 
Q 61.8125 14.703125 58.390625 9.328125 
Q 54.984375 3.953125 48.734375 1.34375 
Q 42.484375 -1.265625 33.15625 -1.265625 
Q 19.578125 -1.265625 12.296875 5 
Q 5.03125 11.28125 3.609375 23.296875 
z
" id="Arial-BoldMT-83"/>
     </defs>
     <g transform="translate(297.194687 493.51125)scale(0.2 -0.2)">
      <use xlink:href="#Arial-BoldMT-82"/>
      <use x="72.216797" xlink:href="#Arial-BoldMT-65"/>
      <use x="144.433594" xlink:href="#Arial-BoldMT-68"/>
      <use x="216.650391" xlink:href="#Arial-BoldMT-73"/>
      <use x="244.433594" xlink:href="#Arial-BoldMT-85"/>
      <use x="316.650391" xlink:href="#Arial-BoldMT-83"/>
     </g>
    </g>
   </g>
   <g id="matplotlib.axis_2">
    <g id="ytick_1">
     <g id="line2d_7">
      <defs>
       <path d="M 0 0 
L -3.5 0 
" id="m2ae228226d" style="stroke:#000000;stroke-width:0.8;"/>
      </defs>
      <g>
       <use style="stroke:#000000;stroke-width:0.8;" x="140.230625" xlink:href="#m2ae228226d" y="433.16125"/>
      </g>
     </g>
     <g id="text_8">
      <!-- 0 -->
      <g transform="translate(114.143125 444.558906)scale(0.3 -0.3)">
       <use xlink:href="#DejaVuSans-48"/>
      </g>
     </g>
    </g>
    <g id="ytick_2">
     <g id="line2d_8">
      <g>
       <use style="stroke:#000000;stroke-width:0.8;" x="140.230625" xlink:href="#m2ae228226d" y="366.198944"/>
      </g>
     </g>
     <g id="text_9">
      <!-- 500 -->
      <g transform="translate(75.968125 377.5966)scale(0.3 -0.3)">
       <use xlink:href="#DejaVuSans-53"/>
       <use x="63.623047" xlink:href="#DejaVuSans-48"/>
       <use x="127.246094" xlink:href="#DejaVuSans-48"/>
      </g>
     </g>
    </g>
    <g id="ytick_3">
     <g id="line2d_9">
      <g>
       <use style="stroke:#000000;stroke-width:0.8;" x="140.230625" xlink:href="#m2ae228226d" y="299.236638"/>
      </g>
     </g>
     <g id="text_10">
      <!-- 1000 -->
      <g transform="translate(56.880625 310.634294)scale(0.3 -0.3)">
       <use xlink:href="#DejaVuSans-49"/>
       <use x="63.623047" xlink:href="#DejaVuSans-48"/>
       <use x="127.246094" xlink:href="#DejaVuSans-48"/>
       <use x="190.869141" xlink:href="#DejaVuSans-48"/>
      </g>
     </g>
    </g>
    <g id="ytick_4">
     <g id="line2d_10">
      <g>
       <use style="stroke:#000000;stroke-width:0.8;" x="140.230625" xlink:href="#m2ae228226d" y="232.274332"/>
      </g>
     </g>
     <g id="text_11">
      <!-- 1500 -->
      <g transform="translate(56.880625 243.671988)scale(0.3 -0.3)">
       <use xlink:href="#DejaVuSans-49"/>
       <use x="63.623047" xlink:href="#DejaVuSans-53"/>
       <use x="127.246094" xlink:href="#DejaVuSans-48"/>
       <use x="190.869141" xlink:href="#DejaVuSans-48"/>
      </g>
     </g>
    </g>
    <g id="ytick_5">
     <g id="line2d_11">
      <g>
       <use style="stroke:#000000;stroke-width:0.8;" x="140.230625" xlink:href="#m2ae228226d" y="165.312026"/>
      </g>
     </g>
     <g id="text_12">
      <!-- 2000 -->
      <g transform="translate(56.880625 176.709682)scale(0.3 -0.3)">
       <use xlink:href="#DejaVuSans-50"/>
       <use x="63.623047" xlink:href="#DejaVuSans-48"/>
       <use x="127.246094" xlink:href="#DejaVuSans-48"/>
       <use x="190.869141" xlink:href="#DejaVuSans-48"/>
      </g>
     </g>
    </g>
    <g id="ytick_6">
     <g id="line2d_12">
      <g>
       <use style="stroke:#000000;stroke-width:0.8;" x="140.230625" xlink:href="#m2ae228226d" y="98.34972"/>
      </g>
     </g>
     <g id="text_13">
      <!-- 2500 -->
      <g transform="translate(56.880625 109.747376)scale(0.3 -0.3)">
       <use xlink:href="#DejaVuSans-50"/>
       <use x="63.623047" xlink:href="#DejaVuSans-53"/>
       <use x="127.246094" xlink:href="#DejaVuSans-48"/>
       <use x="190.869141" xlink:href="#DejaVuSans-48"/>
      </g>
     </g>
    </g>
    <g id="text_14">
     <!-- CD8 -->
     <defs>
      <path d="M 53.078125 26.3125 
L 67.09375 21.875 
Q 63.875 10.15625 56.375 4.46875 
Q 48.875 -1.21875 37.359375 -1.21875 
Q 23.09375 -1.21875 13.90625 8.515625 
Q 4.734375 18.265625 4.734375 35.15625 
Q 4.734375 53.03125 13.953125 62.90625 
Q 23.1875 72.796875 38.234375 72.796875 
Q 51.375 72.796875 59.578125 65.046875 
Q 64.453125 60.453125 66.890625 51.859375 
L 52.59375 48.4375 
Q 51.3125 54 47.28125 57.21875 
Q 43.265625 60.453125 37.5 60.453125 
Q 29.546875 60.453125 24.578125 54.734375 
Q 19.625 49.03125 19.625 36.234375 
Q 19.625 22.65625 24.5 16.890625 
Q 29.390625 11.140625 37.203125 11.140625 
Q 42.96875 11.140625 47.109375 14.796875 
Q 51.265625 18.453125 53.078125 26.3125 
z
" id="Arial-BoldMT-67"/>
      <path d="M 16.015625 38.625 
Q 10.6875 40.875 8.265625 44.796875 
Q 5.859375 48.734375 5.859375 53.421875 
Q 5.859375 61.421875 11.453125 66.640625 
Q 17.046875 71.875 27.34375 71.875 
Q 37.546875 71.875 43.1875 66.640625 
Q 48.828125 61.421875 48.828125 53.421875 
Q 48.828125 48.4375 46.234375 44.546875 
Q 43.65625 40.671875 38.96875 38.625 
Q 44.921875 36.234375 48.015625 31.640625 
Q 51.125 27.046875 51.125 21.046875 
Q 51.125 11.140625 44.796875 4.9375 
Q 38.484375 -1.265625 27.984375 -1.265625 
Q 18.21875 -1.265625 11.71875 3.859375 
Q 4.046875 9.90625 4.046875 20.453125 
Q 4.046875 26.265625 6.921875 31.125 
Q 9.8125 35.984375 16.015625 38.625 
z
M 18.84375 52.4375 
Q 18.84375 48.34375 21.15625 46.046875 
Q 23.484375 43.75 27.34375 43.75 
Q 31.25 43.75 33.59375 46.0625 
Q 35.9375 48.390625 35.9375 52.484375 
Q 35.9375 56.34375 33.609375 58.65625 
Q 31.296875 60.984375 27.484375 60.984375 
Q 23.53125 60.984375 21.1875 58.640625 
Q 18.84375 56.296875 18.84375 52.4375 
z
M 17.578125 21.78125 
Q 17.578125 16.109375 20.484375 12.9375 
Q 23.390625 9.765625 27.734375 9.765625 
Q 31.984375 9.765625 34.765625 12.8125 
Q 37.546875 15.875 37.546875 21.625 
Q 37.546875 26.65625 34.71875 29.703125 
Q 31.890625 32.765625 27.546875 32.765625 
Q 22.515625 32.765625 20.046875 29.296875 
Q 17.578125 25.828125 17.578125 21.78125 
z
" id="Arial-BoldMT-56"/>
     </defs>
     <g transform="translate(21.253125 262.905937)rotate(-90)scale(0.2 -0.2)">
      <use xlink:href="#Arial-BoldMT-67"/>
      <use x="72.216797" xlink:href="#Arial-BoldMT-68"/>
      <use x="144.433594" xlink:href="#Arial-BoldMT-56"/>
     </g>
     <!-- CELL COUNTS (NUMBERS) -->
     <defs>
      <path d="M 7.28125 0 
L 7.28125 71.578125 
L 60.359375 71.578125 
L 60.359375 59.46875 
L 21.734375 59.46875 
L 21.734375 43.609375 
L 57.671875 43.609375 
L 57.671875 31.546875 
L 21.734375 31.546875 
L 21.734375 12.0625 
L 61.71875 12.0625 
L 61.71875 0 
z
" id="Arial-BoldMT-69"/>
      <path d="M 7.671875 0 
L 7.671875 71 
L 22.125 71 
L 22.125 12.0625 
L 58.0625 12.0625 
L 58.0625 0 
z
" id="Arial-BoldMT-76"/>
      <path id="Arial-BoldMT-32"/>
      <path d="M 4.34375 35.359375 
Q 4.34375 46.296875 7.625 53.71875 
Q 10.0625 59.1875 14.28125 63.53125 
Q 18.5 67.875 23.53125 69.96875 
Q 30.21875 72.796875 38.96875 72.796875 
Q 54.78125 72.796875 64.28125 62.984375 
Q 73.78125 53.171875 73.78125 35.6875 
Q 73.78125 18.359375 64.359375 8.5625 
Q 54.9375 -1.21875 39.15625 -1.21875 
Q 23.1875 -1.21875 13.765625 8.515625 
Q 4.34375 18.265625 4.34375 35.359375 
z
M 19.234375 35.84375 
Q 19.234375 23.6875 24.84375 17.40625 
Q 30.46875 11.140625 39.109375 11.140625 
Q 47.75 11.140625 53.296875 17.359375 
Q 58.84375 23.578125 58.84375 36.03125 
Q 58.84375 48.34375 53.4375 54.390625 
Q 48.046875 60.453125 39.109375 60.453125 
Q 30.171875 60.453125 24.703125 54.3125 
Q 19.234375 48.1875 19.234375 35.84375 
z
" id="Arial-BoldMT-79"/>
      <path d="M 7.421875 0 
L 7.421875 71.578125 
L 21.484375 71.578125 
L 50.78125 23.78125 
L 50.78125 71.578125 
L 64.203125 71.578125 
L 64.203125 0 
L 49.703125 0 
L 20.84375 46.6875 
L 20.84375 0 
z
" id="Arial-BoldMT-78"/>
      <path d="M 23.390625 0 
L 23.390625 59.46875 
L 2.15625 59.46875 
L 2.15625 71.578125 
L 59.03125 71.578125 
L 59.03125 59.46875 
L 37.84375 59.46875 
L 37.84375 0 
z
" id="Arial-BoldMT-84"/>
      <path d="M 29.9375 -21.046875 
L 20.515625 -21.046875 
Q 13.03125 -9.765625 9.125 2.390625 
Q 5.21875 14.546875 5.21875 25.921875 
Q 5.21875 40.046875 10.0625 52.640625 
Q 14.265625 63.578125 20.703125 72.796875 
L 30.078125 72.796875 
Q 23.390625 58.015625 20.875 47.625 
Q 18.359375 37.25 18.359375 25.640625 
Q 18.359375 17.625 19.84375 9.21875 
Q 21.34375 0.828125 23.921875 -6.734375 
Q 25.640625 -11.71875 29.9375 -21.046875 
z
" id="Arial-BoldMT-40"/>
      <path d="M 7.078125 0 
L 7.078125 71.578125 
L 28.71875 71.578125 
L 41.703125 22.75 
L 54.546875 71.578125 
L 76.21875 71.578125 
L 76.21875 0 
L 62.796875 0 
L 62.796875 56.34375 
L 48.578125 0 
L 34.671875 0 
L 20.515625 56.34375 
L 20.515625 0 
z
" id="Arial-BoldMT-77"/>
      <path d="M 7.328125 71.578125 
L 35.9375 71.578125 
Q 44.4375 71.578125 48.609375 70.875 
Q 52.78125 70.171875 56.078125 67.921875 
Q 59.375 65.671875 61.5625 61.9375 
Q 63.765625 58.203125 63.765625 53.5625 
Q 63.765625 48.53125 61.046875 44.328125 
Q 58.34375 40.140625 53.71875 38.03125 
Q 60.25 36.140625 63.765625 31.546875 
Q 67.28125 26.953125 67.28125 20.75 
Q 67.28125 15.875 65.015625 11.25 
Q 62.75 6.640625 58.8125 3.875 
Q 54.890625 1.125 49.125 0.484375 
Q 45.515625 0.09375 31.6875 0 
L 7.328125 0 
z
M 21.78125 59.671875 
L 21.78125 43.109375 
L 31.25 43.109375 
Q 39.703125 43.109375 41.75 43.359375 
Q 45.453125 43.796875 47.578125 45.921875 
Q 49.703125 48.046875 49.703125 51.515625 
Q 49.703125 54.828125 47.875 56.90625 
Q 46.046875 58.984375 42.4375 59.421875 
Q 40.28125 59.671875 30.078125 59.671875 
z
M 21.78125 31.203125 
L 21.78125 12.0625 
L 35.15625 12.0625 
Q 42.96875 12.0625 45.0625 12.5 
Q 48.296875 13.09375 50.3125 15.359375 
Q 52.34375 17.625 52.34375 21.4375 
Q 52.34375 24.65625 50.78125 26.90625 
Q 49.21875 29.15625 46.265625 30.171875 
Q 43.3125 31.203125 33.453125 31.203125 
z
" id="Arial-BoldMT-66"/>
      <path d="M 3.375 -21.046875 
Q 7.421875 -12.359375 9.078125 -7.71875 
Q 10.75 -3.078125 12.15625 2.96875 
Q 13.578125 9.03125 14.25 14.46875 
Q 14.9375 19.921875 14.9375 25.640625 
Q 14.9375 37.25 12.453125 47.625 
Q 9.96875 58.015625 3.265625 72.796875 
L 12.59375 72.796875 
Q 19.96875 62.3125 24.046875 50.53125 
Q 28.125 38.765625 28.125 26.65625 
Q 28.125 16.453125 24.90625 4.78125 
Q 21.234375 -8.296875 12.84375 -21.046875 
z
" id="Arial-BoldMT-41"/>
     </defs>
     <g transform="translate(42.67125 374.002812)rotate(-90)scale(0.2 -0.2)">
      <use xlink:href="#Arial-BoldMT-67"/>
      <use x="72.216797" xlink:href="#Arial-BoldMT-69"/>
      <use x="138.916016" xlink:href="#Arial-BoldMT-76"/>
      <use x="200" xlink:href="#Arial-BoldMT-76"/>
      <use x="261.068359" xlink:href="#Arial-BoldMT-32"/>
      <use x="288.851562" xlink:href="#Arial-BoldMT-67"/>
      <use x="361.068359" xlink:href="#Arial-BoldMT-79"/>
      <use x="438.851562" xlink:href="#Arial-BoldMT-85"/>
      <use x="511.068359" xlink:href="#Arial-BoldMT-78"/>
      <use x="583.285156" xlink:href="#Arial-BoldMT-84"/>
      <use x="644.369141" xlink:href="#Arial-BoldMT-83"/>
      <use x="711.068359" xlink:href="#Arial-BoldMT-32"/>
      <use x="738.851562" xlink:href="#Arial-BoldMT-40"/>
      <use x="772.152344" xlink:href="#Arial-BoldMT-78"/>
      <use x="844.369141" xlink:href="#Arial-BoldMT-85"/>
      <use x="916.585938" xlink:href="#Arial-BoldMT-77"/>
      <use x="999.886719" xlink:href="#Arial-BoldMT-66"/>
      <use x="1072.103516" xlink:href="#Arial-BoldMT-69"/>
      <use x="1138.802734" xlink:href="#Arial-BoldMT-82"/>
      <use x="1211.019531" xlink:href="#Arial-BoldMT-83"/>
      <use x="1277.71875" xlink:href="#Arial-BoldMT-41"/>
     </g>
    </g>
   </g>
   <g id="line2d_13">
    <path clip-path="url(#pfee4388df2)" d="M 140.230625 431.822004 
L 152.066989 423.384753 
L 163.903352 411.867237 
L 175.739716 395.662359 
L 187.57608 375.439742 
L 199.412443 364.457924 
L 211.248807 366.600718 
L 223.08517 365.931095 
L 234.921534 359.234864 
L 246.757898 346.244177 
L 258.594261 342.092514 
L 270.430625 322.405596 
L 282.266989 296.69207 
L 294.103352 283.03176 
L 305.939716 257.586084 
L 317.77608 246.604266 
L 329.612443 246.872115 
L 341.448807 239.372336 
L 353.28517 229.060141 
L 365.121534 221.024665 
L 376.957898 210.71247 
L 388.794261 189.686305 
L 400.630625 212.721339 
L 412.466989 203.614465 
L 424.303352 206.426882 
L 436.139716 205.087636 
L 447.97608 202.00737 
L 459.812443 191.427325 
L 471.648807 175.222447 
L 483.48517 178.034864 
L 495.321534 190.222004 
L 507.157898 191.829099 
L 518.994261 195.445064 
L 530.830625 161.963911 
" style="fill:none;stroke:#08306b;stroke-linecap:square;stroke-width:1.5;"/>
   </g>
   <g id="line2d_14">
    <path clip-path="url(#pfee4388df2)" d="M 140.230625 431.018456 
L 152.066989 421.375884 
L 163.903352 406.242403 
L 175.739716 391.108922 
L 187.57608 393.251716 
L 199.412443 398.340851 
L 211.248807 391.64462 
L 223.08517 378.787858 
L 234.921534 372.225552 
L 246.757898 350.797614 
L 258.594261 341.155042 
L 270.430625 323.878767 
L 282.266989 287.317348 
L 294.103352 273.790962 
L 305.939716 266.291183 
L 317.77608 265.62156 
L 329.612443 276.603379 
L 341.448807 271.514243 
L 353.28517 259.594953 
L 365.121534 236.55992 
L 376.957898 230.131538 
L 388.794261 229.729764 
L 400.630625 209.239299 
L 412.466989 194.507591 
L 424.303352 179.106261 
L 436.139716 172.811804 
L 447.97608 167.320895 
L 459.812443 160.892514 
L 471.648807 157.0087 
L 483.48517 165.981649 
L 495.321534 142.678767 
L 507.157898 156.339077 
L 518.994261 143.08054 
L 530.830625 124.465019 
" style="fill:none;stroke:#08306b;stroke-linecap:square;stroke-width:1.5;"/>
   </g>
   <g id="line2d_15">
    <path clip-path="url(#pfee4388df2)" d="M 140.230625 433.027325 
L 152.066989 428.473889 
L 163.903352 419.634864 
L 175.739716 406.108478 
L 187.57608 393.519565 
L 199.412443 373.163024 
L 211.248807 351.199387 
L 223.08517 338.878323 
L 234.921534 329.77145 
L 246.757898 341.422891 
L 258.594261 330.708922 
L 270.430625 328.164354 
L 282.266989 313.834421 
L 294.103352 302.049055 
L 305.939716 289.99584 
L 317.77608 284.638855 
L 329.612443 270.710696 
L 341.448807 267.36258 
L 353.28517 275.264132 
L 365.121534 272.451716 
L 376.957898 263.478767 
L 388.794261 249.282758 
L 400.630625 220.488966 
L 412.466989 206.694731 
L 424.303352 199.730651 
L 436.139716 180.043733 
L 447.97608 143.884088 
L 459.812443 129.554155 
L 471.648807 119.643733 
L 483.48517 132.500496 
L 495.321534 121.920452 
L 507.157898 135.580762 
L 518.994261 146.83043 
L 530.830625 140.669897 
" style="fill:none;stroke:#08306b;stroke-linecap:square;stroke-width:1.5;"/>
   </g>
   <g id="line2d_16">
    <path clip-path="url(#pfee4388df2)" d="M 140.230625 431.018456 
L 152.066989 422.849055 
L 163.903352 412.001161 
L 175.739716 401.019343 
L 187.57608 386.42156 
L 199.412443 374.100496 
L 211.248807 369.413135 
L 223.08517 348.788744 
L 234.921534 339.681871 
L 246.757898 344.771006 
L 258.594261 337.539077 
L 270.430625 329.77145 
L 282.266989 318.789631 
L 294.103352 308.87921 
L 305.939716 290.799387 
L 317.77608 274.594509 
L 329.612443 250.488079 
L 341.448807 240.711583 
L 353.28517 215.533756 
L 365.121534 207.766128 
L 376.957898 221.694288 
L 388.794261 222.497835 
L 400.630625 216.337303 
L 412.466989 213.524886 
L 424.303352 179.909809 
L 436.139716 181.382979 
L 447.97608 150.982093 
L 459.812443 151.383866 
L 471.648807 161.428212 
L 483.48517 152.857037 
L 495.321534 146.160807 
L 507.157898 163.303157 
L 518.994261 172.945729 
L 530.830625 180.981206 
" style="fill:none;stroke:#08306b;stroke-linecap:square;stroke-width:1.5;"/>
   </g>
   <g id="line2d_17">
    <path clip-path="url(#pfee4388df2)" d="M 140.230625 431.955928 
L 152.066989 426.465019 
L 163.903352 410.929764 
L 175.739716 404.769232 
L 187.57608 395.662359 
L 199.412443 382.537747 
L 211.248807 371.957702 
L 223.08517 375.841516 
L 234.921534 368.475662 
L 246.757898 367.806039 
L 258.594261 350.529764 
L 270.430625 326.825108 
L 282.266989 312.36125 
L 294.103352 299.102713 
L 305.939716 271.380319 
L 317.77608 239.506261 
L 329.612443 235.354598 
L 341.448807 223.971006 
L 353.28517 242.586527 
L 365.121534 235.890297 
L 376.957898 262.40737 
L 388.794261 279.683645 
L 400.630625 283.835308 
L 412.466989 255.577215 
L 424.303352 222.765685 
L 436.139716 197.721782 
L 447.97608 155.535529 
L 459.812443 137.455707 
L 471.648807 108.79584 
L 483.48517 124.331095 
L 495.321534 130.625552 
L 507.157898 172.811804 
L 518.994261 197.186084 
L 530.830625 159.017569 
" style="fill:none;stroke:#08306b;stroke-linecap:square;stroke-width:1.5;"/>
   </g>
   <g id="line2d_18">
    <path clip-path="url(#pfee4388df2)" d="M 140.230625 430.348833 
L 152.066989 415.483201 
L 163.903352 396.733756 
L 175.739716 386.68941 
L 187.57608 382.671671 
L 199.412443 374.770119 
L 211.248807 375.573667 
L 223.08517 369.948833 
L 234.921534 365.127547 
L 246.757898 343.029986 
L 258.594261 323.878767 
L 270.430625 294.549277 
L 282.266989 296.156372 
L 294.103352 296.95992 
L 305.939716 288.656594 
L 317.77608 278.210474 
L 329.612443 252.630873 
L 341.448807 242.720452 
L 353.28517 225.578101 
L 365.121534 244.595396 
L 376.957898 236.693844 
L 388.794261 236.158146 
L 400.630625 238.702713 
L 412.466989 237.229543 
L 424.303352 221.024665 
L 436.139716 222.497835 
L 447.97608 195.177215 
L 459.812443 214.060585 
L 471.648807 187.409587 
L 483.48517 149.107148 
L 495.321534 124.331095 
L 507.157898 84.42156 
L 518.994261 73.305818 
L 530.830625 70.76125 
" style="fill:none;stroke:#08306b;stroke-linecap:square;stroke-width:1.5;"/>
   </g>
   <g id="line2d_19">
    <path clip-path="url(#pfee4388df2)" d="M 140.230625 428.741738 
L 152.066989 411.733312 
L 163.903352 399.947946 
L 175.739716 387.225108 
L 187.57608 383.743068 
L 199.412443 382.002048 
L 211.248807 377.448611 
L 223.08517 367.002492 
L 234.921534 362.984753 
L 246.757898 351.735086 
L 258.594261 342.628212 
L 270.430625 337.539077 
L 282.266989 328.432203 
L 294.103352 313.834421 
L 305.939716 294.013578 
L 317.77608 267.63043 
L 329.612443 247.006039 
L 341.448807 223.167458 
L 353.28517 212.721339 
L 365.121534 221.962137 
L 376.957898 231.738634 
L 388.794261 215.399831 
L 400.630625 219.283645 
L 412.466989 201.873445 
L 424.303352 206.96258 
L 436.139716 210.71247 
L 447.97608 178.302713 
L 459.812443 178.034864 
L 471.648807 178.704487 
L 483.48517 168.927991 
L 495.321534 154.598057 
L 507.157898 159.553268 
L 518.994261 126.339964 
L 530.830625 134.509365 
" style="fill:none;stroke:#08306b;stroke-linecap:square;stroke-width:1.5;"/>
   </g>
   <g id="line2d_20">
    <path clip-path="url(#pfee4388df2)" d="M 140.230625 430.750607 
L 152.066989 423.920452 
L 163.903352 415.081427 
L 175.739716 400.215795 
L 187.57608 383.073445 
L 199.412443 363.118678 
L 211.248807 341.958589 
L 223.08517 314.905818 
L 234.921534 320.262802 
L 246.757898 341.155042 
L 258.594261 335.530208 
L 270.430625 318.521782 
L 282.266989 320.396727 
L 294.103352 318.789631 
L 305.939716 307.272115 
L 317.77608 289.058368 
L 329.612443 285.710252 
L 341.448807 276.201605 
L 353.28517 249.282758 
L 365.121534 231.738634 
L 376.957898 224.238855 
L 388.794261 217.810474 
L 400.630625 234.015352 
L 412.466989 230.533312 
L 424.303352 206.96258 
L 436.139716 190.757702 
L 447.97608 181.516904 
L 459.812443 186.33819 
L 471.648807 202.676993 
L 483.48517 199.730651 
L 495.321534 179.775884 
L 507.157898 179.775884 
L 518.994261 163.303157 
L 530.830625 139.330651 
" style="fill:none;stroke:#08306b;stroke-linecap:square;stroke-width:1.5;"/>
   </g>
   <g id="line2d_21">
    <path clip-path="url(#pfee4388df2)" d="M 140.230625 432.223778 
L 152.066989 426.866793 
L 163.903352 422.447281 
L 175.739716 412.269011 
L 187.57608 398.340851 
L 199.412443 383.743068 
L 211.248807 375.305818 
L 223.08517 372.225552 
L 234.921534 366.734642 
L 246.757898 349.190518 
L 258.594261 332.316017 
L 270.430625 336.065906 
L 282.266989 328.03043 
L 294.103352 312.629099 
L 305.939716 301.111583 
L 317.77608 296.95992 
L 329.612443 287.853046 
L 341.448807 264.818013 
L 353.28517 272.183866 
L 365.121534 260.130651 
L 376.957898 255.577215 
L 388.794261 222.63176 
L 400.630625 188.480984 
L 412.466989 204.953711 
L 424.303352 202.944842 
L 436.139716 187.543512 
L 447.97608 166.919121 
L 459.812443 141.205596 
L 471.648807 146.83043 
L 483.48517 142.678767 
L 495.321534 121.384753 
L 507.157898 128.884532 
L 518.994261 140.000274 
L 530.830625 111.206483 
" style="fill:none;stroke:#08306b;stroke-linecap:square;stroke-width:1.5;"/>
   </g>
   <g id="line2d_22">
    <path clip-path="url(#pfee4388df2)" d="M 140.230625 432.223778 
L 152.066989 427.93819 
L 163.903352 418.027769 
L 175.739716 416.0189 
L 187.57608 407.715574 
L 199.412443 394.055263 
L 211.248807 371.957702 
L 223.08517 363.252603 
L 234.921534 358.163467 
L 246.757898 333.253489 
L 258.594261 313.432647 
L 270.430625 317.852159 
L 282.266989 299.370563 
L 294.103352 291.335086 
L 305.939716 291.335086 
L 317.77608 289.058368 
L 329.612443 301.781206 
L 341.448807 286.245951 
L 353.28517 251.827325 
L 365.121534 224.104931 
L 376.957898 196.516461 
L 388.794261 188.614909 
L 400.630625 177.63309 
L 412.466989 176.829543 
L 424.303352 191.829099 
L 436.139716 214.596283 
L 447.97608 221.158589 
L 459.812443 201.605596 
L 471.648807 165.579875 
L 483.48517 134.509365 
L 495.321534 120.982979 
L 507.157898 138.661028 
L 518.994261 151.249942 
L 530.830625 155.26768 
" style="fill:none;stroke:#08306b;stroke-linecap:square;stroke-width:1.5;"/>
   </g>
   <g id="line2d_23">
    <path clip-path="url(#pfee4388df2)" d="M 140.230625 432.625552 
L 152.066989 424.857924 
L 163.903352 410.260141 
L 175.739716 396.064132 
L 187.57608 380.662802 
L 199.412443 370.484532 
L 211.248807 366.065019 
L 223.08517 366.466793 
L 234.921534 363.252603 
L 246.757898 354.413578 
L 258.594261 343.967458 
L 270.430625 330.976771 
L 282.266989 308.477436 
L 294.103352 295.620674 
L 305.939716 278.612248 
L 317.77608 265.755485 
L 329.612443 280.755042 
L 341.448807 289.058368 
L 353.28517 287.451272 
L 365.121534 290.799387 
L 376.957898 289.058368 
L 388.794261 259.193179 
L 400.630625 233.07788 
L 412.466989 213.92666 
L 424.303352 198.123556 
L 436.139716 197.186084 
L 447.97608 223.167458 
L 459.812443 212.989188 
L 471.648807 206.828656 
L 483.48517 213.792736 
L 495.321534 216.605152 
L 507.157898 198.52533 
L 518.994261 199.328877 
L 530.830625 197.721782 
" style="fill:none;stroke:#4a98c9;stroke-linecap:square;stroke-width:1.5;"/>
   </g>
   <g id="line2d_24">
    <path clip-path="url(#pfee4388df2)" d="M 140.230625 431.286305 
L 152.066989 421.911583 
L 163.903352 412.804709 
L 175.739716 396.86768 
L 187.57608 394.189188 
L 199.412443 388.296505 
L 211.248807 392.849942 
L 223.08517 392.582093 
L 234.921534 391.91247 
L 246.757898 386.823334 
L 258.594261 377.716461 
L 270.430625 338.074775 
L 282.266989 302.986527 
L 294.103352 274.996283 
L 305.939716 253.032647 
L 317.77608 248.747059 
L 329.612443 260.264576 
L 341.448807 265.487636 
L 353.28517 280.888966 
L 365.121534 275.264132 
L 376.957898 299.504487 
L 388.794261 261.469897 
L 400.630625 247.675662 
L 412.466989 219.14972 
L 424.303352 221.694288 
L 436.139716 219.685419 
L 447.97608 208.569676 
L 459.812443 212.855263 
L 471.648807 192.632647 
L 483.48517 189.016682 
L 495.321534 170.802935 
L 507.157898 179.64196 
L 518.994261 200.802048 
L 530.830625 220.488966 
" style="fill:none;stroke:#4a98c9;stroke-linecap:square;stroke-width:1.5;"/>
   </g>
   <g id="line2d_25">
    <path clip-path="url(#pfee4388df2)" d="M 140.230625 433.16125 
L 152.066989 431.018456 
L 163.903352 421.108035 
L 175.739716 403.697835 
L 187.57608 383.609144 
L 199.412443 358.699166 
L 211.248807 357.761693 
L 223.08517 346.512026 
L 234.921534 330.708922 
L 246.757898 333.253489 
L 258.594261 329.369676 
L 270.430625 338.476549 
L 282.266989 325.351937 
L 294.103352 327.896505 
L 305.939716 314.236195 
L 317.77608 318.521782 
L 329.612443 299.370563 
L 341.448807 288.120895 
L 353.28517 286.245951 
L 365.121534 279.54972 
L 376.957898 261.737747 
L 388.794261 263.88054 
L 400.630625 245.398944 
L 412.466989 232.81003 
L 424.303352 218.480097 
L 436.139716 199.328877 
L 447.97608 174.4189 
L 459.812443 175.356372 
L 471.648807 185.668567 
L 483.48517 177.767015 
L 495.321534 184.865019 
L 507.157898 190.355928 
L 518.994261 192.364798 
L 530.830625 194.507591 
" style="fill:none;stroke:#4a98c9;stroke-linecap:square;stroke-width:1.5;"/>
   </g>
   <g id="line2d_26">
    <path clip-path="url(#pfee4388df2)" d="M 140.230625 431.554155 
L 152.066989 421.108035 
L 163.903352 413.608257 
L 175.739716 406.778101 
L 187.57608 383.743068 
L 199.412443 370.618456 
L 211.248807 361.377658 
L 223.08517 348.119121 
L 234.921534 345.038855 
L 246.757898 341.021117 
L 258.594261 327.896505 
L 270.430625 318.521782 
L 282.266989 308.343512 
L 294.103352 303.254376 
L 305.939716 305.263246 
L 317.77608 309.548833 
L 329.612443 280.888966 
L 341.448807 273.255263 
L 353.28517 252.229099 
L 365.121534 238.167015 
L 376.957898 205.22156 
L 388.794261 190.489853 
L 400.630625 190.489853 
L 412.466989 174.820674 
L 424.303352 169.061915 
L 436.139716 161.294288 
L 447.97608 167.856594 
L 459.812443 178.302713 
L 471.648807 201.739521 
L 483.48517 216.203379 
L 495.321534 210.71247 
L 507.157898 202.141294 
L 518.994261 204.819787 
L 530.830625 224.37278 
" style="fill:none;stroke:#4a98c9;stroke-linecap:square;stroke-width:1.5;"/>
   </g>
   <g id="line2d_27">
    <path clip-path="url(#pfee4388df2)" d="M 140.230625 430.616682 
L 152.066989 421.509809 
L 163.903352 413.340407 
L 175.739716 404.501383 
L 187.57608 386.957259 
L 199.412443 376.511139 
L 211.248807 375.975441 
L 223.08517 364.05615 
L 234.921534 364.591849 
L 246.757898 360.306261 
L 258.594261 355.217126 
L 270.430625 350.261915 
L 282.266989 330.039299 
L 294.103352 313.834421 
L 305.939716 289.058368 
L 317.77608 265.085862 
L 329.612443 256.514687 
L 341.448807 241.381206 
L 353.28517 233.613578 
L 365.121534 241.51513 
L 376.957898 262.541294 
L 388.794261 273.255263 
L 400.630625 280.353268 
L 412.466989 271.380319 
L 424.303352 271.380319 
L 436.139716 233.747503 
L 447.97608 189.82023 
L 459.812443 157.946172 
L 471.648807 135.848611 
L 483.48517 140.402048 
L 495.321534 143.214465 
L 507.157898 160.49074 
L 518.994261 187.811361 
L 530.830625 215.265906 
" style="fill:none;stroke:#4a98c9;stroke-linecap:square;stroke-width:1.5;"/>
   </g>
   <g id="line2d_28">
    <path clip-path="url(#pfee4388df2)" d="M 140.230625 431.018456 
L 152.066989 419.634864 
L 163.903352 402.760363 
L 175.739716 389.367902 
L 187.57608 395.796283 
L 199.412443 387.091183 
L 211.248807 376.778988 
L 223.08517 370.350607 
L 234.921534 362.582979 
L 246.757898 360.038412 
L 258.594261 330.842846 
L 270.430625 319.32533 
L 282.266989 314.370119 
L 294.103352 296.825995 
L 305.939716 292.004709 
L 317.77608 268.567902 
L 329.612443 253.166572 
L 341.448807 238.702713 
L 353.28517 234.015352 
L 365.121534 227.85482 
L 376.957898 202.810917 
L 388.794261 209.774997 
L 400.630625 210.176771 
L 412.466989 241.649055 
L 424.303352 248.47921 
L 436.139716 263.344842 
L 447.97608 248.077436 
L 459.812443 250.622004 
L 471.648807 240.577658 
L 483.48517 210.71247 
L 495.321534 175.088523 
L 507.157898 129.822004 
L 518.994261 93.394509 
L 530.830625 96.340851 
" style="fill:none;stroke:#4a98c9;stroke-linecap:square;stroke-width:1.5;"/>
   </g>
   <g id="line2d_29">
    <path clip-path="url(#pfee4388df2)" d="M 140.230625 429.947059 
L 152.066989 419.50094 
L 163.903352 411.063689 
L 175.739716 406.376328 
L 187.57608 401.287192 
L 199.412443 392.582093 
L 211.248807 381.868124 
L 223.08517 365.663246 
L 234.921534 354.279654 
L 246.757898 345.842403 
L 258.594261 339.815795 
L 270.430625 350.39584 
L 282.266989 336.869454 
L 294.103352 325.753711 
L 305.939716 302.584753 
L 317.77608 278.210474 
L 329.612443 271.246394 
L 341.448807 258.255707 
L 353.28517 249.818456 
L 365.121534 227.453046 
L 376.957898 224.37278 
L 388.794261 220.89074 
L 400.630625 227.185197 
L 412.466989 237.095618 
L 424.303352 238.836638 
L 436.139716 223.033534 
L 447.97608 197.052159 
L 459.812443 170.93686 
L 471.648807 174.4189 
L 483.48517 164.106705 
L 495.321534 160.356815 
L 507.157898 156.339077 
L 518.994261 134.375441 
L 530.830625 145.08941 
" style="fill:none;stroke:#4a98c9;stroke-linecap:square;stroke-width:1.5;"/>
   </g>
   <g id="line2d_30">
    <path clip-path="url(#pfee4388df2)" d="M 140.230625 431.286305 
L 152.066989 423.384753 
L 163.903352 409.322669 
L 175.739716 394.590962 
L 187.57608 370.886305 
L 199.412443 356.958146 
L 211.248807 343.297835 
L 223.08517 331.646394 
L 234.921534 333.923113 
L 246.757898 326.02156 
L 258.594261 316.646838 
L 270.430625 298.43309 
L 282.266989 297.629543 
L 294.103352 304.057924 
L 305.939716 302.852603 
L 317.77608 302.450829 
L 329.612443 284.371006 
L 341.448807 252.630873 
L 353.28517 220.622891 
L 365.121534 195.578988 
L 376.957898 214.596283 
L 388.794261 196.516461 
L 400.630625 216.337303 
L 412.466989 214.730208 
L 424.303352 224.908478 
L 436.139716 217.4087 
L 447.97608 216.605152 
L 459.812443 206.426882 
L 471.648807 205.757259 
L 483.48517 196.248611 
L 495.321534 193.168345 
L 507.157898 186.606039 
L 518.994261 170.669011 
L 530.830625 164.776328 
" style="fill:none;stroke:#4a98c9;stroke-linecap:square;stroke-width:1.5;"/>
   </g>
   <g id="line2d_31">
    <path clip-path="url(#pfee4388df2)" d="M 140.230625 432.089853 
L 152.066989 425.661472 
L 163.903352 419.768789 
L 175.739716 414.813578 
L 187.57608 409.188744 
L 199.412443 394.724886 
L 211.248807 386.42156 
L 223.08517 372.627325 
L 234.921534 362.716904 
L 246.757898 360.57411 
L 258.594261 347.181649 
L 270.430625 343.565685 
L 282.266989 319.459254 
L 294.103352 316.512913 
L 305.939716 301.379432 
L 317.77608 298.834864 
L 329.612443 304.191849 
L 341.448807 286.915574 
L 353.28517 275.933756 
L 365.121534 259.461028 
L 376.957898 235.890297 
L 388.794261 216.337303 
L 400.630625 185.132869 
L 412.466989 176.561693 
L 424.303352 162.633534 
L 436.139716 162.23176 
L 447.97608 170.802935 
L 459.812443 162.23176 
L 471.648807 137.723556 
L 483.48517 139.062802 
L 495.321534 133.705818 
L 507.157898 129.42023 
L 518.994261 112.813578 
L 530.830625 124.063246 
" style="fill:none;stroke:#4a98c9;stroke-linecap:square;stroke-width:1.5;"/>
   </g>
   <g id="line2d_32">
    <path clip-path="url(#pfee4388df2)" d="M 140.230625 433.027325 
L 152.066989 432.223778 
L 163.903352 430.750607 
L 175.739716 424.322226 
L 187.57608 412.804709 
L 199.412443 394.992736 
L 211.248807 379.993179 
L 223.08517 359.234864 
L 234.921534 351.869011 
L 246.757898 337.539077 
L 258.594261 323.878767 
L 270.430625 317.986084 
L 282.266989 296.558146 
L 294.103352 287.317348 
L 305.939716 270.710696 
L 317.77608 276.469454 
L 329.612443 287.317348 
L 341.448807 281.826438 
L 353.28517 274.058811 
L 365.121534 251.559476 
L 376.957898 219.283645 
L 388.794261 201.069897 
L 400.630625 216.203379 
L 412.466989 213.123113 
L 424.303352 209.239299 
L 436.139716 208.837525 
L 447.97608 195.712913 
L 459.812443 173.347503 
L 471.648807 156.205152 
L 483.48517 142.812691 
L 495.321534 146.696505 
L 507.157898 142.143068 
L 518.994261 137.187858 
L 530.830625 150.848168 
" style="fill:none;stroke:#4a98c9;stroke-linecap:square;stroke-width:1.5;"/>
   </g>
   <g id="line2d_33">
    <path clip-path="url(#pfee4388df2)" d="M 140.230625 432.491627 
L 152.066989 432.089853 
L 163.903352 428.741738 
L 175.739716 424.322226 
L 187.57608 421.375884 
L 199.412443 414.01003 
L 211.248807 413.340407 
L 223.08517 409.05482 
L 234.921534 410.126217 
L 246.757898 404.501383 
L 258.594261 401.153268 
L 270.430625 392.716017 
L 282.266989 383.609144 
L 294.103352 387.894731 
L 305.939716 386.823334 
L 317.77608 378.252159 
L 329.612443 373.296948 
L 341.448807 378.118234 
L 353.28517 374.904044 
L 365.121534 367.806039 
L 376.957898 373.163024 
L 388.794261 366.868567 
L 400.630625 346.244177 
L 412.466989 330.842846 
L 424.303352 300.843733 
L 436.139716 302.584753 
L 447.97608 308.745285 
L 459.812443 321.200274 
L 471.648807 322.405596 
L 483.48517 346.779875 
L 495.321534 337.137303 
L 507.157898 330.708922 
L 518.994261 323.209144 
L 530.830625 321.468124 
" style="fill:none;stroke:#d0e1f2;stroke-linecap:square;stroke-width:1.5;"/>
   </g>
   <g id="line2d_34">
    <path clip-path="url(#pfee4388df2)" d="M 140.230625 433.16125 
L 152.066989 432.089853 
L 163.903352 427.93819 
L 175.739716 425.527547 
L 187.57608 421.108035 
L 199.412443 417.75992 
L 211.248807 415.884975 
L 223.08517 410.929764 
L 234.921534 416.688523 
L 246.757898 412.269011 
L 258.594261 407.581649 
L 270.430625 390.974997 
L 282.266989 370.350607 
L 294.103352 373.832647 
L 305.939716 368.207813 
L 317.77608 368.743512 
L 329.612443 368.743512 
L 341.448807 368.877436 
L 353.28517 373.296948 
L 365.121534 365.395396 
L 376.957898 353.208257 
L 388.794261 357.09207 
L 400.630625 350.529764 
L 412.466989 360.440186 
L 424.303352 354.145729 
L 436.139716 347.449498 
L 447.97608 340.351494 
L 459.812443 340.485419 
L 471.648807 345.574554 
L 483.48517 342.896062 
L 495.321534 334.458811 
L 507.157898 324.816239 
L 518.994261 308.477436 
L 530.830625 313.432647 
" style="fill:none;stroke:#d0e1f2;stroke-linecap:square;stroke-width:1.5;"/>
   </g>
   <g id="line2d_35">
    <path clip-path="url(#pfee4388df2)" d="M 140.230625 433.16125 
L 152.066989 429.813135 
L 163.903352 425.259698 
L 175.739716 423.920452 
L 187.57608 417.75992 
L 199.412443 418.027769 
L 211.248807 414.679654 
L 223.08517 404.635308 
L 234.921534 407.849498 
L 246.757898 402.09074 
L 258.594261 397.269454 
L 270.430625 391.91247 
L 282.266989 381.600274 
L 294.103352 381.600274 
L 305.939716 378.520008 
L 317.77608 385.484088 
L 329.612443 377.716461 
L 341.448807 379.72533 
L 353.28517 377.180762 
L 365.121534 360.84196 
L 376.957898 365.79717 
L 388.794261 371.288079 
L 400.630625 372.895175 
L 412.466989 360.038412 
L 424.303352 358.967015 
L 436.139716 357.493844 
L 447.97608 342.494288 
L 459.812443 332.316017 
L 471.648807 325.753711 
L 483.48517 314.10227 
L 495.321534 280.888966 
L 507.157898 288.656594 
L 518.994261 284.77278 
L 530.830625 306.468567 
" style="fill:none;stroke:#d0e1f2;stroke-linecap:square;stroke-width:1.5;"/>
   </g>
   <g id="line2d_36">
    <path clip-path="url(#pfee4388df2)" d="M 140.230625 432.625552 
L 152.066989 431.42023 
L 163.903352 427.000718 
L 175.739716 428.072115 
L 187.57608 422.179432 
L 199.412443 418.295618 
L 211.248807 415.75105 
L 223.08517 400.885419 
L 234.921534 398.742625 
L 246.757898 400.483645 
L 258.594261 405.438855 
L 270.430625 404.233534 
L 282.266989 402.760363 
L 294.103352 386.823334 
L 305.939716 373.296948 
L 317.77608 373.430873 
L 329.612443 343.297835 
L 341.448807 347.583423 
L 353.28517 348.520895 
L 365.121534 349.190518 
L 376.957898 351.199387 
L 388.794261 335.798057 
L 400.630625 336.199831 
L 412.466989 335.798057 
L 424.303352 327.628656 
L 436.139716 337.806926 
L 447.97608 341.958589 
L 459.812443 343.43176 
L 471.648807 325.351937 
L 483.48517 318.655707 
L 495.321534 302.316904 
L 507.157898 308.075662 
L 518.994261 298.165241 
L 530.830625 306.200718 
" style="fill:none;stroke:#d0e1f2;stroke-linecap:square;stroke-width:1.5;"/>
   </g>
   <g id="line2d_37">
    <path clip-path="url(#pfee4388df2)" d="M 140.230625 432.357702 
L 152.066989 431.286305 
L 163.903352 427.670341 
L 175.739716 423.518678 
L 187.57608 422.447281 
L 199.412443 421.375884 
L 211.248807 419.367015 
L 223.08517 416.286749 
L 234.921534 414.143955 
L 246.757898 410.929764 
L 258.594261 407.849498 
L 270.430625 408.251272 
L 282.266989 408.786971 
L 294.103352 396.86768 
L 305.939716 391.778545 
L 317.77608 380.528877 
L 329.612443 355.886749 
L 341.448807 349.324443 
L 353.28517 337.673002 
L 365.121534 344.369232 
L 376.957898 349.994066 
L 388.794261 363.252603 
L 400.630625 375.975441 
L 412.466989 374.770119 
L 424.303352 369.680984 
L 436.139716 369.413135 
L 447.97608 358.163467 
L 459.812443 348.520895 
L 471.648807 332.851716 
L 483.48517 327.360807 
L 495.321534 301.379432 
L 507.157898 283.969232 
L 518.994261 279.147946 
L 530.830625 296.825995 
" style="fill:none;stroke:#d0e1f2;stroke-linecap:square;stroke-width:1.5;"/>
   </g>
   <g id="line2d_38">
    <path clip-path="url(#pfee4388df2)" d="M 140.230625 433.027325 
L 152.066989 432.625552 
L 163.903352 428.206039 
L 175.739716 424.723999 
L 187.57608 425.259698 
L 199.412443 420.170563 
L 211.248807 416.286749 
L 223.08517 417.893844 
L 234.921534 408.786971 
L 246.757898 408.786971 
L 258.594261 386.823334 
L 270.430625 376.109365 
L 282.266989 373.029099 
L 294.103352 386.957259 
L 305.939716 381.868124 
L 317.77608 381.46635 
L 329.612443 368.609587 
L 341.448807 365.261472 
L 353.28517 355.6189 
L 365.121534 360.440186 
L 376.957898 353.074332 
L 388.794261 363.118678 
L 400.630625 355.35105 
L 412.466989 360.57411 
L 424.303352 348.386971 
L 436.139716 354.145729 
L 447.97608 341.556815 
L 459.812443 343.565685 
L 471.648807 335.798057 
L 483.48517 330.574997 
L 495.321534 305.932869 
L 507.157898 278.344399 
L 518.994261 259.193179 
L 530.830625 284.638855 
" style="fill:none;stroke:#d0e1f2;stroke-linecap:square;stroke-width:1.5;"/>
   </g>
   <g id="line2d_39">
    <path clip-path="url(#pfee4388df2)" d="M 140.230625 433.16125 
L 152.066989 431.018456 
L 163.903352 425.527547 
L 175.739716 421.108035 
L 187.57608 423.116904 
L 199.412443 423.384753 
L 211.248807 420.572336 
L 223.08517 415.75105 
L 234.921534 415.483201 
L 246.757898 404.501383 
L 258.594261 387.626882 
L 270.430625 387.359033 
L 282.266989 373.029099 
L 294.103352 377.046838 
L 305.939716 380.127104 
L 317.77608 377.582536 
L 329.612443 389.9036 
L 341.448807 373.966572 
L 353.28517 354.011804 
L 365.121534 350.931538 
L 376.957898 357.895618 
L 388.794261 343.833534 
L 400.630625 349.860141 
L 412.466989 345.708478 
L 424.303352 346.9138 
L 436.139716 360.172336 
L 447.97608 352.940407 
L 459.812443 349.056594 
L 471.648807 337.539077 
L 483.48517 338.074775 
L 495.321534 316.245064 
L 507.157898 316.914687 
L 518.994261 299.370563 
L 530.830625 311.557702 
" style="fill:none;stroke:#d0e1f2;stroke-linecap:square;stroke-width:1.5;"/>
   </g>
   <g id="line2d_40">
    <path clip-path="url(#pfee4388df2)" d="M 140.230625 433.16125 
L 152.066989 431.688079 
L 163.903352 426.732869 
L 175.739716 422.447281 
L 187.57608 417.358146 
L 199.412443 413.608257 
L 211.248807 403.162137 
L 223.08517 398.742625 
L 234.921534 393.921339 
L 246.757898 392.849942 
L 258.594261 393.117791 
L 270.430625 382.537747 
L 282.266989 386.957259 
L 294.103352 382.805596 
L 305.939716 379.189631 
L 317.77608 381.600274 
L 329.612443 368.475662 
L 341.448807 363.520452 
L 353.28517 369.011361 
L 365.121534 360.708035 
L 376.957898 352.002935 
L 388.794261 359.636638 
L 400.630625 369.814909 
L 412.466989 363.654376 
L 424.303352 356.288523 
L 436.139716 349.860141 
L 447.97608 348.253046 
L 459.812443 344.235308 
L 471.648807 339.280097 
L 483.48517 339.280097 
L 495.321534 328.298279 
L 507.157898 314.10227 
L 518.994261 278.076549 
L 530.830625 294.013578 
" style="fill:none;stroke:#d0e1f2;stroke-linecap:square;stroke-width:1.5;"/>
   </g>
   <g id="line2d_41">
    <path clip-path="url(#pfee4388df2)" d="M 140.230625 433.16125 
L 152.066989 432.759476 
L 163.903352 430.750607 
L 175.739716 429.813135 
L 187.57608 424.991849 
L 199.412443 410.527991 
L 211.248807 406.644177 
L 223.08517 389.501826 
L 234.921534 387.760807 
L 246.757898 391.376771 
L 258.594261 394.724886 
L 270.430625 391.91247 
L 282.266989 391.242846 
L 294.103352 393.38564 
L 305.939716 392.314243 
L 317.77608 386.153711 
L 329.612443 380.796727 
L 341.448807 376.377215 
L 353.28517 369.145285 
L 365.121534 359.502713 
L 376.957898 354.011804 
L 388.794261 343.43176 
L 400.630625 334.458811 
L 412.466989 327.494731 
L 424.303352 329.101826 
L 436.139716 346.378101 
L 447.97608 350.931538 
L 459.812443 349.592292 
L 471.648807 344.637081 
L 483.48517 334.458811 
L 495.321534 326.02156 
L 507.157898 306.602492 
L 518.994261 282.496062 
L 530.830625 290.397614 
" style="fill:none;stroke:#d0e1f2;stroke-linecap:square;stroke-width:1.5;"/>
   </g>
   <g id="line2d_42">
    <path clip-path="url(#pfee4388df2)" d="M 140.230625 432.893401 
L 152.066989 432.089853 
L 163.903352 430.348833 
L 175.739716 429.67921 
L 187.57608 428.206039 
L 199.412443 422.982979 
L 211.248807 408.251272 
L 223.08517 398.073002 
L 234.921534 389.769676 
L 246.757898 391.510696 
L 258.594261 386.153711 
L 270.430625 381.868124 
L 282.266989 382.002048 
L 294.103352 387.760807 
L 305.939716 388.564354 
L 317.77608 390.17145 
L 329.612443 387.760807 
L 341.448807 379.055707 
L 353.28517 370.350607 
L 365.121534 370.216682 
L 376.957898 370.082758 
L 388.794261 348.119121 
L 400.630625 349.324443 
L 412.466989 347.181649 
L 424.303352 347.985197 
L 436.139716 347.181649 
L 447.97608 348.119121 
L 459.812443 340.217569 
L 471.648807 343.297835 
L 483.48517 321.735973 
L 495.321534 309.816682 
L 507.157898 288.522669 
L 518.994261 295.352824 
L 530.830625 304.057924 
" style="fill:none;stroke:#d0e1f2;stroke-linecap:square;stroke-width:1.5;"/>
   </g>
   <g id="line2d_43">
    <path clip-path="url(#pfee4388df2)" d="M 140.230625 432.759476 
L 152.066989 429.277436 
L 163.903352 412.670784 
L 175.739716 405.706705 
L 187.57608 392.582093 
L 199.412443 372.359476 
L 211.248807 362.582979 
L 223.08517 358.029543 
L 234.921534 356.824221 
L 246.757898 360.57411 
L 258.594261 358.029543 
L 270.430625 341.69074 
L 282.266989 324.146616 
L 294.103352 310.888079 
L 305.939716 272.719565 
L 317.77608 256.514687 
L 329.612443 257.987858 
L 341.448807 265.755485 
L 353.28517 251.157702 
L 365.121534 240.711583 
L 376.957898 227.051272 
L 388.794261 203.212691 
L 400.630625 210.176771 
L 412.466989 207.498279 
L 424.303352 188.748833 
L 436.139716 186.204266 
L 447.97608 191.159476 
L 459.812443 186.472115 
L 471.648807 166.249498 
L 483.48517 168.526217 
L 495.321534 161.963911 
L 507.157898 164.106705 
L 518.994261 192.900496 
L 530.830625 184.329321 
" style="fill:none;stroke:#1764ab;stroke-linecap:square;stroke-width:1.5;"/>
   </g>
   <g id="line2d_44">
    <path clip-path="url(#pfee4388df2)" d="M 140.230625 432.357702 
L 152.066989 427.134642 
L 163.903352 412.269011 
L 175.739716 399.680097 
L 187.57608 401.822891 
L 199.412443 396.331982 
L 211.248807 395.12666 
L 223.08517 382.537747 
L 234.921534 370.484532 
L 246.757898 353.87788 
L 258.594261 340.887192 
L 270.430625 326.423334 
L 282.266989 297.763467 
L 294.103352 270.174997 
L 305.939716 251.291627 
L 317.77608 245.131095 
L 329.612443 255.309365 
L 341.448807 244.059698 
L 353.28517 236.29207 
L 365.121534 229.194066 
L 376.957898 243.523999 
L 388.794261 236.29207 
L 400.630625 221.828212 
L 412.466989 193.034421 
L 424.303352 210.44462 
L 436.139716 197.855707 
L 447.97608 181.784753 
L 459.812443 170.535086 
L 471.648807 172.543955 
L 483.48517 188.748833 
L 495.321534 204.819787 
L 507.157898 193.436195 
L 518.994261 180.579432 
L 530.830625 193.168345 
" style="fill:none;stroke:#1764ab;stroke-linecap:square;stroke-width:1.5;"/>
   </g>
   <g id="line2d_45">
    <path clip-path="url(#pfee4388df2)" d="M 140.230625 432.491627 
L 152.066989 425.527547 
L 163.903352 419.367015 
L 175.739716 405.840629 
L 187.57608 396.599831 
L 199.412443 379.055707 
L 211.248807 364.05615 
L 223.08517 360.306261 
L 234.921534 347.047725 
L 246.757898 325.753711 
L 258.594261 310.486305 
L 270.430625 311.691627 
L 282.266989 296.558146 
L 294.103352 309.013135 
L 305.939716 294.013578 
L 317.77608 289.192292 
L 329.612443 270.576771 
L 341.448807 280.888966 
L 353.28517 267.36258 
L 365.121534 256.916461 
L 376.957898 246.872115 
L 388.794261 236.425995 
L 400.630625 229.997614 
L 412.466989 219.14972 
L 424.303352 225.176328 
L 436.139716 219.819343 
L 447.97608 187.141738 
L 459.812443 169.999387 
L 471.648807 152.053489 
L 483.48517 147.500053 
L 495.321534 126.206039 
L 507.157898 131.16125 
L 518.994261 147.500053 
L 530.830625 140.402048 
" style="fill:none;stroke:#1764ab;stroke-linecap:square;stroke-width:1.5;"/>
   </g>
   <g id="line2d_46">
    <path clip-path="url(#pfee4388df2)" d="M 140.230625 432.357702 
L 152.066989 429.67921 
L 163.903352 420.706261 
L 175.739716 408.117348 
L 187.57608 392.716017 
L 199.412443 374.636195 
L 211.248807 366.198944 
L 223.08517 349.190518 
L 234.921534 347.851272 
L 246.757898 357.627769 
L 258.594261 361.913356 
L 270.430625 349.994066 
L 282.266989 334.994509 
L 294.103352 310.218456 
L 305.939716 273.657037 
L 317.77608 267.36258 
L 329.612443 238.434864 
L 341.448807 220.355042 
L 353.28517 228.792292 
L 365.121534 220.89074 
L 376.957898 209.373223 
L 388.794261 175.356372 
L 400.630625 169.19584 
L 412.466989 153.794509 
L 424.303352 155.803379 
L 436.139716 174.552824 
L 447.97608 171.204709 
L 459.812443 179.240186 
L 471.648807 177.767015 
L 483.48517 168.392292 
L 495.321534 169.061915 
L 507.157898 180.177658 
L 518.994261 161.160363 
L 530.830625 164.642403 
" style="fill:none;stroke:#1764ab;stroke-linecap:square;stroke-width:1.5;"/>
   </g>
   <g id="line2d_47">
    <path clip-path="url(#pfee4388df2)" d="M 140.230625 430.348833 
L 152.066989 422.045507 
L 163.903352 410.527991 
L 175.739716 402.626438 
L 187.57608 386.957259 
L 199.412443 383.073445 
L 211.248807 375.707591 
L 223.08517 377.180762 
L 234.921534 374.50227 
L 246.757898 362.984753 
L 258.594261 359.10094 
L 270.430625 334.190962 
L 282.266989 332.182093 
L 294.103352 310.218456 
L 305.939716 285.308478 
L 317.77608 276.201605 
L 329.612443 253.032647 
L 341.448807 244.461472 
L 353.28517 243.791849 
L 365.121534 239.640186 
L 376.957898 243.925773 
L 388.794261 256.782536 
L 400.630625 262.675219 
L 412.466989 253.300496 
L 424.303352 236.961693 
L 436.139716 197.453933 
L 447.97608 169.329764 
L 459.812443 162.097835 
L 471.648807 137.991405 
L 483.48517 124.866793 
L 495.321534 119.108035 
L 507.157898 114.0189 
L 518.994261 129.554155 
L 530.830625 121.250829 
" style="fill:none;stroke:#1764ab;stroke-linecap:square;stroke-width:1.5;"/>
   </g>
   <g id="line2d_48">
    <path clip-path="url(#pfee4388df2)" d="M 140.230625 431.42023 
L 152.066989 421.108035 
L 163.903352 409.590518 
L 175.739716 391.91247 
L 187.57608 382.537747 
L 199.412443 363.654376 
L 211.248807 364.190075 
L 223.08517 373.296948 
L 234.921534 373.296948 
L 246.757898 354.815352 
L 258.594261 346.378101 
L 270.430625 324.012691 
L 282.266989 316.646838 
L 294.103352 291.201161 
L 305.939716 279.415795 
L 317.77608 262.139521 
L 329.612443 257.720008 
L 341.448807 264.14839 
L 353.28517 250.755928 
L 365.121534 253.166572 
L 376.957898 243.390075 
L 388.794261 232.542181 
L 400.630625 219.953268 
L 412.466989 232.408257 
L 424.303352 220.221117 
L 436.139716 226.783423 
L 447.97608 214.596283 
L 459.812443 206.560807 
L 471.648807 179.775884 
L 483.48517 177.767015 
L 495.321534 152.857037 
L 507.157898 112.947503 
L 518.994261 104.242403 
L 530.830625 83.082314 
" style="fill:none;stroke:#1764ab;stroke-linecap:square;stroke-width:1.5;"/>
   </g>
   <g id="line2d_49">
    <path clip-path="url(#pfee4388df2)" d="M 140.230625 429.947059 
L 152.066989 419.634864 
L 163.903352 411.733312 
L 175.739716 400.081871 
L 187.57608 396.198057 
L 199.412443 385.885862 
L 211.248807 385.082314 
L 223.08517 380.796727 
L 234.921534 372.225552 
L 246.757898 343.43176 
L 258.594261 336.065906 
L 270.430625 330.976771 
L 282.266989 312.495175 
L 294.103352 300.308035 
L 305.939716 299.102713 
L 317.77608 296.156372 
L 329.612443 280.888966 
L 341.448807 271.380319 
L 353.28517 243.25615 
L 365.121534 216.873002 
L 376.957898 207.23043 
L 388.794261 193.570119 
L 400.630625 198.793179 
L 412.466989 172.543955 
L 424.303352 170.401161 
L 436.139716 177.231317 
L 447.97608 176.15992 
L 459.812443 194.641516 
L 471.648807 185.534642 
L 483.48517 176.561693 
L 495.321534 147.098279 
L 507.157898 127.545285 
L 518.994261 83.751937 
L 530.830625 103.840629 
" style="fill:none;stroke:#1764ab;stroke-linecap:square;stroke-width:1.5;"/>
   </g>
   <g id="line2d_50">
    <path clip-path="url(#pfee4388df2)" d="M 140.230625 430.884532 
L 152.066989 421.643733 
L 163.903352 409.590518 
L 175.739716 393.653489 
L 187.57608 377.314687 
L 199.412443 371.555928 
L 211.248807 358.029543 
L 223.08517 334.190962 
L 234.921534 326.02156 
L 246.757898 337.003379 
L 258.594261 321.334199 
L 270.430625 306.066793 
L 282.266989 300.977658 
L 294.103352 299.504487 
L 305.939716 305.129321 
L 317.77608 307.406039 
L 329.612443 298.70094 
L 341.448807 298.031317 
L 353.28517 271.246394 
L 365.121534 245.532869 
L 376.957898 245.131095 
L 388.794261 248.747059 
L 400.630625 252.764798 
L 412.466989 243.390075 
L 424.303352 200.400274 
L 436.139716 179.106261 
L 447.97608 160.758589 
L 459.812443 169.731538 
L 471.648807 169.865463 
L 483.48517 185.534642 
L 495.321534 189.016682 
L 507.157898 180.713356 
L 518.994261 163.838855 
L 530.830625 138.259254 
" style="fill:none;stroke:#1764ab;stroke-linecap:square;stroke-width:1.5;"/>
   </g>
   <g id="line2d_51">
    <path clip-path="url(#pfee4388df2)" d="M 140.230625 432.625552 
L 152.066989 427.134642 
L 163.903352 424.991849 
L 175.739716 419.50094 
L 187.57608 417.090297 
L 199.412443 405.974554 
L 211.248807 397.671228 
L 223.08517 384.412691 
L 234.921534 371.288079 
L 246.757898 369.011361 
L 258.594261 342.360363 
L 270.430625 348.119121 
L 282.266989 334.324886 
L 294.103352 321.06635 
L 305.939716 306.736416 
L 317.77608 312.629099 
L 329.612443 288.388744 
L 341.448807 270.041073 
L 353.28517 255.44329 
L 365.121534 252.229099 
L 376.957898 245.800718 
L 388.794261 226.1138 
L 400.630625 221.426438 
L 412.466989 213.257037 
L 424.303352 207.23043 
L 436.139716 208.033977 
L 447.97608 205.48941 
L 459.812443 190.623778 
L 471.648807 183.391849 
L 483.48517 149.241073 
L 495.321534 129.152381 
L 507.157898 105.849498 
L 518.994261 106.653046 
L 530.830625 104.108478 
" style="fill:none;stroke:#1764ab;stroke-linecap:square;stroke-width:1.5;"/>
   </g>
   <g id="line2d_52">
    <path clip-path="url(#pfee4388df2)" d="M 140.230625 432.089853 
L 152.066989 427.268567 
L 163.903352 422.849055 
L 175.739716 416.420674 
L 187.57608 405.706705 
L 199.412443 394.992736 
L 211.248807 382.805596 
L 223.08517 358.967015 
L 234.921534 354.815352 
L 246.757898 322.271671 
L 258.594261 308.343512 
L 270.430625 313.566572 
L 282.266989 322.941294 
L 294.103352 316.646838 
L 305.939716 289.594066 
L 317.77608 295.084975 
L 329.612443 283.165685 
L 341.448807 279.147946 
L 353.28517 254.639742 
L 365.121534 232.542181 
L 376.957898 224.908478 
L 388.794261 201.605596 
L 400.630625 195.311139 
L 412.466989 183.659698 
L 424.303352 199.061028 
L 436.139716 220.087192 
L 447.97608 203.882314 
L 459.812443 186.33819 
L 471.648807 165.312026 
L 483.48517 145.223334 
L 495.321534 130.893401 
L 507.157898 126.875662 
L 518.994261 128.750607 
L 530.830625 130.491627 
" style="fill:none;stroke:#1764ab;stroke-linecap:square;stroke-width:1.5;"/>
   </g>
   <g id="line2d_53">
    <path clip-path="url(#pfee4388df2)" d="M 140.230625 433.16125 
L 152.066989 430.214909 
L 163.903352 423.518678 
L 175.739716 412.804709 
L 187.57608 390.305374 
L 199.412443 381.600274 
L 211.248807 373.564798 
L 223.08517 383.743068 
L 234.921534 375.439742 
L 246.757898 367.939964 
L 258.594261 365.127547 
L 270.430625 354.145729 
L 282.266989 327.896505 
L 294.103352 320.932425 
L 305.939716 302.718678 
L 317.77608 302.852603 
L 329.612443 289.058368 
L 341.448807 295.754598 
L 353.28517 304.593623 
L 365.121534 307.539964 
L 376.957898 295.888523 
L 388.794261 286.915574 
L 400.630625 275.264132 
L 412.466989 270.978545 
L 424.303352 261.202048 
L 436.139716 268.300053 
L 447.97608 266.425108 
L 459.812443 252.630873 
L 471.648807 245.131095 
L 483.48517 270.308922 
L 495.321534 248.077436 
L 507.157898 224.908478 
L 518.994261 233.345729 
L 530.830625 226.649498 
" style="fill:none;stroke:#94c4df;stroke-linecap:square;stroke-width:1.5;"/>
   </g>
   <g id="line2d_54">
    <path clip-path="url(#pfee4388df2)" d="M 140.230625 433.027325 
L 152.066989 432.223778 
L 163.903352 426.866793 
L 175.739716 424.188301 
L 187.57608 422.581206 
L 199.412443 418.295618 
L 211.248807 409.858368 
L 223.08517 395.12666 
L 234.921534 387.492957 
L 246.757898 378.787858 
L 258.594261 355.484975 
L 270.430625 328.03043 
L 282.266989 299.370563 
L 294.103352 296.558146 
L 305.939716 294.415352 
L 317.77608 288.522669 
L 329.612443 294.549277 
L 341.448807 305.39717 
L 353.28517 298.299166 
L 365.121534 289.861915 
L 376.957898 297.361693 
L 388.794261 273.255263 
L 400.630625 276.469454 
L 412.466989 263.210917 
L 424.303352 271.782093 
L 436.139716 264.282314 
L 447.97608 242.586527 
L 459.812443 232.274332 
L 471.648807 227.85482 
L 483.48517 232.408257 
L 495.321534 238.03309 
L 507.157898 258.121782 
L 518.994261 240.04196 
L 530.830625 268.701826 
" style="fill:none;stroke:#94c4df;stroke-linecap:square;stroke-width:1.5;"/>
   </g>
   <g id="line2d_55">
    <path clip-path="url(#pfee4388df2)" d="M 140.230625 433.16125 
L 152.066989 430.884532 
L 163.903352 423.116904 
L 175.739716 399.546172 
L 187.57608 399.412248 
L 199.412443 375.975441 
L 211.248807 371.422004 
L 223.08517 357.761693 
L 234.921534 356.556372 
L 246.757898 359.10094 
L 258.594261 363.520452 
L 270.430625 361.645507 
L 282.266989 354.413578 
L 294.103352 352.538634 
L 305.939716 346.512026 
L 317.77608 344.503157 
L 329.612443 328.432203 
L 341.448807 323.744842 
L 353.28517 311.691627 
L 365.121534 298.968789 
L 376.957898 291.73686 
L 388.794261 285.174554 
L 400.630625 285.442403 
L 412.466989 278.076549 
L 424.303352 275.665906 
L 436.139716 279.817569 
L 447.97608 259.327104 
L 459.812443 252.764798 
L 471.648807 234.8189 
L 483.48517 222.899609 
L 495.321534 213.390962 
L 507.157898 194.909365 
L 518.994261 191.025552 
L 530.830625 218.480097 
" style="fill:none;stroke:#94c4df;stroke-linecap:square;stroke-width:1.5;"/>
   </g>
   <g id="line2d_56">
    <path clip-path="url(#pfee4388df2)" d="M 140.230625 431.286305 
L 152.066989 429.009587 
L 163.903352 422.447281 
L 175.739716 416.956372 
L 187.57608 402.358589 
L 199.412443 392.716017 
L 211.248807 386.555485 
L 223.08517 379.457481 
L 234.921534 365.931095 
L 246.757898 382.269897 
L 258.594261 388.43043 
L 270.430625 373.832647 
L 282.266989 363.386527 
L 294.103352 333.387414 
L 305.939716 326.959033 
L 317.77608 320.932425 
L 329.612443 308.075662 
L 341.448807 304.727547 
L 353.28517 291.201161 
L 365.121534 283.701383 
L 376.957898 272.719565 
L 388.794261 261.603822 
L 400.630625 280.755042 
L 412.466989 273.389188 
L 424.303352 259.461028 
L 436.139716 247.541738 
L 447.97608 228.256594 
L 459.812443 234.283201 
L 471.648807 227.453046 
L 483.48517 235.354598 
L 495.321534 255.309365 
L 507.157898 218.346172 
L 518.994261 220.622891 
L 530.830625 247.407813 
" style="fill:none;stroke:#94c4df;stroke-linecap:square;stroke-width:1.5;"/>
   </g>
   <g id="line2d_57">
    <path clip-path="url(#pfee4388df2)" d="M 140.230625 430.080984 
L 152.066989 417.625995 
L 163.903352 400.751494 
L 175.739716 393.117791 
L 187.57608 390.707148 
L 199.412443 392.716017 
L 211.248807 395.796283 
L 223.08517 403.563911 
L 234.921534 397.537303 
L 246.757898 382.805596 
L 258.594261 360.975884 
L 270.430625 346.779875 
L 282.266989 328.432203 
L 294.103352 323.209144 
L 305.939716 308.87921 
L 317.77608 299.638412 
L 329.612443 304.861472 
L 341.448807 288.522669 
L 353.28517 289.99584 
L 365.121534 284.906705 
L 376.957898 295.2189 
L 388.794261 297.093844 
L 400.630625 296.95992 
L 412.466989 267.764354 
L 424.303352 268.701826 
L 436.139716 249.282758 
L 447.97608 209.507148 
L 459.812443 197.052159 
L 471.648807 187.811361 
L 483.48517 201.605596 
L 495.321534 218.614022 
L 507.157898 242.050829 
L 518.994261 247.809587 
L 530.830625 284.638855 
" style="fill:none;stroke:#94c4df;stroke-linecap:square;stroke-width:1.5;"/>
   </g>
   <g id="line2d_58">
    <path clip-path="url(#pfee4388df2)" d="M 140.230625 431.152381 
L 152.066989 421.911583 
L 163.903352 404.635308 
L 175.739716 395.260585 
L 187.57608 394.992736 
L 199.412443 402.224665 
L 211.248807 402.760363 
L 223.08517 394.457037 
L 234.921534 383.743068 
L 246.757898 366.332869 
L 258.594261 352.940407 
L 270.430625 343.163911 
L 282.266989 340.351494 
L 294.103352 332.316017 
L 305.939716 329.905374 
L 317.77608 313.834421 
L 329.612443 273.523113 
L 341.448807 249.282758 
L 353.28517 238.568789 
L 365.121534 250.889853 
L 376.957898 237.765241 
L 388.794261 252.898722 
L 400.630625 257.586084 
L 412.466989 282.228212 
L 424.303352 293.343955 
L 436.139716 298.43309 
L 447.97608 299.772336 
L 459.812443 287.049498 
L 471.648807 253.434421 
L 483.48517 233.613578 
L 495.321534 212.453489 
L 507.157898 177.767015 
L 518.994261 178.034864 
L 530.830625 202.275219 
" style="fill:none;stroke:#94c4df;stroke-linecap:square;stroke-width:1.5;"/>
   </g>
   <g id="line2d_59">
    <path clip-path="url(#pfee4388df2)" d="M 140.230625 433.16125 
L 152.066989 428.206039 
L 163.903352 424.322226 
L 175.739716 415.349277 
L 187.57608 401.688966 
L 199.412443 396.198057 
L 211.248807 397.805152 
L 223.08517 389.635751 
L 234.921534 381.868124 
L 246.757898 378.252159 
L 258.594261 362.449055 
L 270.430625 355.217126 
L 282.266989 349.994066 
L 294.103352 335.931982 
L 305.939716 316.378988 
L 317.77608 310.754155 
L 329.612443 293.879654 
L 341.448807 285.174554 
L 353.28517 271.380319 
L 365.121534 264.684088 
L 376.957898 268.701826 
L 388.794261 271.916017 
L 400.630625 268.433977 
L 412.466989 252.764798 
L 424.303352 256.380762 
L 436.139716 251.425552 
L 447.97608 264.951937 
L 459.812443 283.835308 
L 471.648807 274.728434 
L 483.48517 268.166128 
L 495.321534 258.92533 
L 507.157898 250.22023 
L 518.994261 201.069897 
L 530.830625 221.426438 
" style="fill:none;stroke:#94c4df;stroke-linecap:square;stroke-width:1.5;"/>
   </g>
   <g id="line2d_60">
    <path clip-path="url(#pfee4388df2)" d="M 140.230625 431.286305 
L 152.066989 425.661472 
L 163.903352 412.001161 
L 175.739716 404.501383 
L 187.57608 387.225108 
L 199.412443 371.555928 
L 211.248807 361.913356 
L 223.08517 342.226438 
L 234.921534 345.976328 
L 246.757898 347.985197 
L 258.594261 342.762137 
L 270.430625 334.860585 
L 282.266989 337.137303 
L 294.103352 337.940851 
L 305.939716 337.003379 
L 317.77608 340.485419 
L 329.612443 330.708922 
L 341.448807 320.932425 
L 353.28517 305.665019 
L 365.121534 283.03176 
L 376.957898 282.897835 
L 388.794261 285.844177 
L 400.630625 283.969232 
L 412.466989 273.389188 
L 424.303352 233.479654 
L 436.139716 211.248168 
L 447.97608 196.248611 
L 459.812443 212.319565 
L 471.648807 214.998057 
L 483.48517 221.426438 
L 495.321534 228.926217 
L 507.157898 245.398944 
L 518.994261 250.755928 
L 530.830625 257.318234 
" style="fill:none;stroke:#94c4df;stroke-linecap:square;stroke-width:1.5;"/>
   </g>
   <g id="line2d_61">
    <path clip-path="url(#pfee4388df2)" d="M 140.230625 432.759476 
L 152.066989 430.884532 
L 163.903352 428.072115 
L 175.739716 428.206039 
L 187.57608 426.598944 
L 199.412443 413.474332 
L 211.248807 409.858368 
L 223.08517 394.323113 
L 234.921534 377.314687 
L 246.757898 371.823778 
L 258.594261 362.716904 
L 270.430625 349.056594 
L 282.266989 321.735973 
L 294.103352 327.628656 
L 305.939716 327.226882 
L 317.77608 320.396727 
L 329.612443 306.334642 
L 341.448807 288.924443 
L 353.28517 271.916017 
L 365.121534 261.335973 
L 376.957898 267.764354 
L 388.794261 265.487636 
L 400.630625 263.88054 
L 412.466989 255.309365 
L 424.303352 229.060141 
L 436.139716 222.63176 
L 447.97608 233.479654 
L 459.812443 244.595396 
L 471.648807 245.131095 
L 483.48517 239.908035 
L 495.321534 223.167458 
L 507.157898 212.319565 
L 518.994261 203.078767 
L 530.830625 218.346172 
" style="fill:none;stroke:#94c4df;stroke-linecap:square;stroke-width:1.5;"/>
   </g>
   <g id="line2d_62">
    <path clip-path="url(#pfee4388df2)" d="M 140.230625 432.357702 
L 152.066989 430.482758 
L 163.903352 428.206039 
L 175.739716 425.661472 
L 187.57608 419.902713 
L 199.412443 408.653046 
L 211.248807 395.12666 
L 223.08517 363.654376 
L 234.921534 336.46768 
L 246.757898 313.298722 
L 258.594261 311.155928 
L 270.430625 297.227769 
L 282.266989 290.129764 
L 294.103352 295.888523 
L 305.939716 294.683201 
L 317.77608 300.17411 
L 329.612443 300.575884 
L 341.448807 283.03176 
L 353.28517 270.442846 
L 365.121534 253.70227 
L 376.957898 254.104044 
L 388.794261 235.756372 
L 400.630625 243.791849 
L 412.466989 245.666793 
L 424.303352 242.720452 
L 436.139716 254.773667 
L 447.97608 235.756372 
L 459.812443 212.721339 
L 471.648807 223.971006 
L 483.48517 208.301826 
L 495.321534 220.622891 
L 507.157898 216.203379 
L 518.994261 208.837525 
L 530.830625 221.426438 
" style="fill:none;stroke:#94c4df;stroke-linecap:square;stroke-width:1.5;"/>
   </g>
   <g id="line2d_63">
    <path clip-path="url(#pfee4388df2)" d="M 140.230625 433.16125 
L 152.066989 433.16125 
L 163.903352 433.16125 
L 175.739716 433.16125 
L 187.57608 433.16125 
L 199.412443 433.16125 
L 211.248807 433.16125 
L 223.08517 433.16125 
L 234.921534 433.16125 
L 246.757898 433.16125 
L 258.594261 433.16125 
L 270.430625 433.16125 
L 282.266989 433.16125 
L 294.103352 433.16125 
L 305.939716 433.16125 
L 317.77608 433.16125 
L 329.612443 433.16125 
L 341.448807 433.16125 
L 353.28517 433.16125 
L 365.121534 433.16125 
L 376.957898 433.16125 
L 388.794261 433.16125 
L 400.630625 433.16125 
L 412.466989 433.16125 
L 424.303352 433.16125 
L 436.139716 433.16125 
L 447.97608 433.16125 
L 459.812443 433.16125 
L 471.648807 433.16125 
L 483.48517 433.16125 
L 495.321534 433.16125 
L 507.157898 433.16125 
L 518.994261 433.16125 
L 530.830625 433.16125 
" style="fill:none;stroke:#000000;stroke-linecap:square;stroke-width:1.5;"/>
   </g>
   <g id="line2d_64">
    <path clip-path="url(#pfee4388df2)" d="M 140.230625 433.16125 
L 152.066989 433.16125 
L 163.903352 433.16125 
L 175.739716 433.16125 
L 187.57608 433.16125 
L 199.412443 433.16125 
L 211.248807 433.16125 
L 223.08517 433.16125 
L 234.921534 433.16125 
L 246.757898 433.16125 
L 258.594261 433.16125 
L 270.430625 433.16125 
L 282.266989 433.16125 
L 294.103352 433.16125 
L 305.939716 433.16125 
L 317.77608 433.16125 
L 329.612443 433.16125 
L 341.448807 433.16125 
L 353.28517 433.16125 
L 365.121534 433.16125 
L 376.957898 433.16125 
L 388.794261 433.16125 
L 400.630625 433.16125 
L 412.466989 433.16125 
L 424.303352 433.16125 
L 436.139716 433.16125 
L 447.97608 433.16125 
L 459.812443 433.16125 
L 471.648807 433.16125 
L 483.48517 433.16125 
L 495.321534 433.16125 
L 507.157898 433.16125 
L 518.994261 433.16125 
L 530.830625 433.16125 
" style="fill:none;stroke:#000000;stroke-linecap:square;stroke-width:1.5;"/>
   </g>
   <g id="line2d_65">
    <path clip-path="url(#pfee4388df2)" d="M 140.230625 433.16125 
L 152.066989 433.16125 
L 163.903352 433.16125 
L 175.739716 433.16125 
L 187.57608 433.16125 
L 199.412443 433.16125 
L 211.248807 433.16125 
L 223.08517 433.16125 
L 234.921534 433.16125 
L 246.757898 433.16125 
L 258.594261 433.16125 
L 270.430625 433.16125 
L 282.266989 433.16125 
L 294.103352 433.16125 
L 305.939716 433.16125 
L 317.77608 433.16125 
L 329.612443 433.16125 
L 341.448807 433.16125 
L 353.28517 433.16125 
L 365.121534 433.16125 
L 376.957898 433.16125 
L 388.794261 433.16125 
L 400.630625 433.16125 
L 412.466989 433.16125 
L 424.303352 433.16125 
L 436.139716 433.16125 
L 447.97608 433.16125 
L 459.812443 433.16125 
L 471.648807 433.16125 
L 483.48517 433.16125 
L 495.321534 433.16125 
L 507.157898 433.16125 
L 518.994261 433.16125 
L 530.830625 433.16125 
" style="fill:none;stroke:#000000;stroke-linecap:square;stroke-width:1.5;"/>
   </g>
   <g id="line2d_66">
    <path clip-path="url(#pfee4388df2)" d="M 140.230625 433.16125 
L 152.066989 433.16125 
L 163.903352 433.16125 
L 175.739716 433.16125 
L 187.57608 433.16125 
L 199.412443 433.16125 
L 211.248807 433.16125 
L 223.08517 433.16125 
L 234.921534 433.16125 
L 246.757898 433.16125 
L 258.594261 433.16125 
L 270.430625 433.16125 
L 282.266989 433.16125 
L 294.103352 433.16125 
L 305.939716 433.16125 
L 317.77608 433.16125 
L 329.612443 433.16125 
L 341.448807 433.16125 
L 353.28517 433.16125 
L 365.121534 433.16125 
L 376.957898 433.16125 
L 388.794261 433.16125 
L 400.630625 433.16125 
L 412.466989 433.16125 
L 424.303352 433.16125 
L 436.139716 433.16125 
L 447.97608 433.16125 
L 459.812443 433.16125 
L 471.648807 433.16125 
L 483.48517 433.16125 
L 495.321534 433.16125 
L 507.157898 433.16125 
L 518.994261 433.16125 
L 530.830625 433.16125 
" style="fill:none;stroke:#000000;stroke-linecap:square;stroke-width:1.5;"/>
   </g>
   <g id="line2d_67">
    <path clip-path="url(#pfee4388df2)" d="M 140.230625 433.16125 
L 152.066989 433.16125 
L 163.903352 433.16125 
L 175.739716 433.16125 
L 187.57608 433.16125 
L 199.412443 433.16125 
L 211.248807 433.16125 
L 223.08517 433.16125 
L 234.921534 433.16125 
L 246.757898 433.16125 
L 258.594261 433.16125 
L 270.430625 433.16125 
L 282.266989 433.16125 
L 294.103352 433.16125 
L 305.939716 433.16125 
L 317.77608 433.16125 
L 329.612443 433.16125 
L 341.448807 433.16125 
L 353.28517 433.16125 
L 365.121534 433.16125 
L 376.957898 433.16125 
L 388.794261 433.16125 
L 400.630625 433.16125 
L 412.466989 433.16125 
L 424.303352 433.16125 
L 436.139716 433.16125 
L 447.97608 433.16125 
L 459.812443 433.16125 
L 471.648807 433.16125 
L 483.48517 433.16125 
L 495.321534 433.16125 
L 507.157898 433.16125 
L 518.994261 433.16125 
L 530.830625 433.16125 
" style="fill:none;stroke:#000000;stroke-linecap:square;stroke-width:1.5;"/>
   </g>
   <g id="line2d_68">
    <path clip-path="url(#pfee4388df2)" d="M 140.230625 433.16125 
L 152.066989 433.16125 
L 163.903352 433.16125 
L 175.739716 433.16125 
L 187.57608 433.16125 
L 199.412443 433.16125 
L 211.248807 433.16125 
L 223.08517 433.16125 
L 234.921534 433.16125 
L 246.757898 433.16125 
L 258.594261 433.16125 
L 270.430625 433.16125 
L 282.266989 433.16125 
L 294.103352 433.16125 
L 305.939716 433.16125 
L 317.77608 433.16125 
L 329.612443 433.16125 
L 341.448807 433.16125 
L 353.28517 433.16125 
L 365.121534 433.16125 
L 376.957898 433.16125 
L 388.794261 433.16125 
L 400.630625 433.16125 
L 412.466989 433.16125 
L 424.303352 433.16125 
L 436.139716 433.16125 
L 447.97608 433.16125 
L 459.812443 433.16125 
L 471.648807 433.16125 
L 483.48517 433.16125 
L 495.321534 433.16125 
L 507.157898 433.16125 
L 518.994261 433.16125 
L 530.830625 433.16125 
" style="fill:none;stroke:#000000;stroke-linecap:square;stroke-width:1.5;"/>
   </g>
   <g id="line2d_69">
    <path clip-path="url(#pfee4388df2)" d="M 140.230625 433.16125 
L 152.066989 433.16125 
L 163.903352 433.16125 
L 175.739716 433.16125 
L 187.57608 433.16125 
L 199.412443 433.16125 
L 211.248807 433.16125 
L 223.08517 433.16125 
L 234.921534 433.16125 
L 246.757898 433.16125 
L 258.594261 433.16125 
L 270.430625 433.16125 
L 282.266989 433.16125 
L 294.103352 433.16125 
L 305.939716 433.16125 
L 317.77608 433.16125 
L 329.612443 433.16125 
L 341.448807 433.16125 
L 353.28517 433.16125 
L 365.121534 433.16125 
L 376.957898 433.16125 
L 388.794261 433.16125 
L 400.630625 433.16125 
L 412.466989 433.16125 
L 424.303352 433.16125 
L 436.139716 433.16125 
L 447.97608 433.16125 
L 459.812443 433.16125 
L 471.648807 433.16125 
L 483.48517 433.16125 
L 495.321534 433.16125 
L 507.157898 433.16125 
L 518.994261 433.16125 
L 530.830625 433.16125 
" style="fill:none;stroke:#000000;stroke-linecap:square;stroke-width:1.5;"/>
   </g>
   <g id="line2d_70">
    <path clip-path="url(#pfee4388df2)" d="M 140.230625 433.16125 
L 152.066989 433.16125 
L 163.903352 433.16125 
L 175.739716 433.16125 
L 187.57608 433.16125 
L 199.412443 433.16125 
L 211.248807 433.16125 
L 223.08517 433.16125 
L 234.921534 433.16125 
L 246.757898 433.16125 
L 258.594261 433.16125 
L 270.430625 433.16125 
L 282.266989 433.16125 
L 294.103352 433.16125 
L 305.939716 433.16125 
L 317.77608 433.16125 
L 329.612443 433.16125 
L 341.448807 433.16125 
L 353.28517 433.16125 
L 365.121534 433.16125 
L 376.957898 433.16125 
L 388.794261 433.16125 
L 400.630625 433.16125 
L 412.466989 433.16125 
L 424.303352 433.16125 
L 436.139716 433.16125 
L 447.97608 433.16125 
L 459.812443 433.16125 
L 471.648807 433.16125 
L 483.48517 433.16125 
L 495.321534 433.16125 
L 507.157898 433.16125 
L 518.994261 433.16125 
L 530.830625 433.16125 
" style="fill:none;stroke:#000000;stroke-linecap:square;stroke-width:1.5;"/>
   </g>
   <g id="line2d_71">
    <path clip-path="url(#pfee4388df2)" d="M 140.230625 433.16125 
L 152.066989 433.16125 
L 163.903352 433.16125 
L 175.739716 433.16125 
L 187.57608 433.16125 
L 199.412443 433.16125 
L 211.248807 433.16125 
L 223.08517 433.16125 
L 234.921534 433.16125 
L 246.757898 433.16125 
L 258.594261 433.16125 
L 270.430625 433.16125 
L 282.266989 433.16125 
L 294.103352 433.16125 
L 305.939716 433.16125 
L 317.77608 433.16125 
L 329.612443 433.16125 
L 341.448807 433.16125 
L 353.28517 433.16125 
L 365.121534 433.16125 
L 376.957898 433.16125 
L 388.794261 433.16125 
L 400.630625 433.16125 
L 412.466989 433.16125 
L 424.303352 433.16125 
L 436.139716 433.16125 
L 447.97608 433.16125 
L 459.812443 433.16125 
L 471.648807 433.16125 
L 483.48517 433.16125 
L 495.321534 433.16125 
L 507.157898 433.16125 
L 518.994261 433.16125 
L 530.830625 433.16125 
" style="fill:none;stroke:#000000;stroke-linecap:square;stroke-width:1.5;"/>
   </g>
   <g id="line2d_72">
    <path clip-path="url(#pfee4388df2)" d="M 140.230625 433.16125 
L 152.066989 433.16125 
L 163.903352 433.16125 
L 175.739716 433.16125 
L 187.57608 433.16125 
L 199.412443 433.16125 
L 211.248807 433.16125 
L 223.08517 433.16125 
L 234.921534 433.16125 
L 246.757898 433.16125 
L 258.594261 433.16125 
L 270.430625 433.16125 
L 282.266989 433.16125 
L 294.103352 433.16125 
L 305.939716 433.16125 
L 317.77608 433.16125 
L 329.612443 433.16125 
L 341.448807 433.16125 
L 353.28517 433.16125 
L 365.121534 433.16125 
L 376.957898 433.16125 
L 388.794261 433.16125 
L 400.630625 433.16125 
L 412.466989 433.16125 
L 424.303352 433.16125 
L 436.139716 433.16125 
L 447.97608 433.16125 
L 459.812443 433.16125 
L 471.648807 433.16125 
L 483.48517 433.16125 
L 495.321534 433.16125 
L 507.157898 433.16125 
L 518.994261 433.16125 
L 530.830625 433.16125 
" style="fill:none;stroke:#000000;stroke-linecap:square;stroke-width:1.5;"/>
   </g>
   <g id="line2d_73">
    <path clip-path="url(#pfee4388df2)" d="M 128.394261 433.16125 
" style="fill:none;stroke:#000000;stroke-linecap:square;stroke-width:1.5;"/>
   </g>
   <g id="line2d_74">
    <path clip-path="url(#pfee4388df2)" d="M 128.394261 433.16125 
" style="fill:none;stroke:#d0e1f2;stroke-linecap:square;stroke-width:1.5;"/>
   </g>
   <g id="line2d_75">
    <path clip-path="url(#pfee4388df2)" d="M 128.394261 433.16125 
" style="fill:none;stroke:#94c4df;stroke-linecap:square;stroke-width:1.5;"/>
   </g>
   <g id="line2d_76">
    <path clip-path="url(#pfee4388df2)" d="M 128.394261 433.16125 
" style="fill:none;stroke:#4a98c9;stroke-linecap:square;stroke-width:1.5;"/>
   </g>
   <g id="line2d_77">
    <path clip-path="url(#pfee4388df2)" d="M 128.394261 433.16125 
" style="fill:none;stroke:#1764ab;stroke-linecap:square;stroke-width:1.5;"/>
   </g>
   <g id="line2d_78">
    <path clip-path="url(#pfee4388df2)" d="M 128.394261 433.16125 
" style="fill:none;stroke:#08306b;stroke-linecap:square;stroke-width:1.5;"/>
   </g>
   <g id="line2d_79">
    <path clip-path="url(#pfee4388df2)" d="M 128.394261 433.16125 
" style="fill:none;stroke:#000000;stroke-linecap:square;stroke-width:1.5;"/>
   </g>
   <g id="line2d_80">
    <path clip-path="url(#pfee4388df2)" d="M 128.394261 433.16125 
" style="fill:none;stroke:#000000;stroke-dasharray:1.5,2.475;stroke-dashoffset:0;stroke-width:1.5;"/>
   </g>
   <g id="line2d_81">
    <path clip-path="url(#pfee4388df2)" d="M 128.394261 433.16125 
" style="fill:none;stroke:#000000;stroke-linecap:square;stroke-width:1.5;"/>
   </g>
   <g id="line2d_82">
    <path clip-path="url(#pfee4388df2)" d="M 128.394261 433.16125 
" style="fill:none;stroke:#000000;stroke-dasharray:5.55,2.4;stroke-dashoffset:0;stroke-width:1.5;"/>
   </g>
   <g id="line2d_83">
    <path clip-path="url(#pfee4388df2)" d="M 128.394261 433.16125 
" style="fill:none;stroke:#000000;stroke-dasharray:9.6,2.4,1.5,2.4;stroke-dashoffset:0;stroke-width:1.5;"/>
   </g>
   <g id="line2d_84">
    <path clip-path="url(#pfee4388df2)" d="M 128.394261 433.16125 
" style="fill:none;stroke:#000000;stroke-dasharray:9.6,2.4,1.5,2.4;stroke-dashoffset:0;stroke-width:1.5;"/>
   </g>
   <g id="patch_3">
    <path d="M 140.230625 433.16125 
L 140.230625 52.64125 
" style="fill:none;stroke:#000000;stroke-linecap:square;stroke-linejoin:miter;stroke-width:0.8;"/>
   </g>
   <g id="patch_4">
    <path d="M 530.830625 433.16125 
L 530.830625 52.64125 
" style="fill:none;stroke:#000000;stroke-linecap:square;stroke-linejoin:miter;stroke-width:0.8;"/>
   </g>
   <g id="patch_5">
    <path d="M 140.230625 433.16125 
L 530.830625 433.16125 
" style="fill:none;stroke:#000000;stroke-linecap:square;stroke-linejoin:miter;stroke-width:0.8;"/>
   </g>
   <g id="patch_6">
    <path d="M 140.230625 52.64125 
L 530.830625 52.64125 
" style="fill:none;stroke:#000000;stroke-linecap:square;stroke-linejoin:miter;stroke-width:0.8;"/>
   </g>
   <g id="text_15">
    <!-- CD8 COUNT -->
    <g transform="translate(277.19625 21.515625)scale(0.2 -0.2)">
     <use xlink:href="#Arial-BoldMT-67"/>
     <use x="72.216797" xlink:href="#Arial-BoldMT-68"/>
     <use x="144.433594" xlink:href="#Arial-BoldMT-56"/>
     <use x="200.048828" xlink:href="#Arial-BoldMT-32"/>
     <use x="227.832031" xlink:href="#Arial-BoldMT-67"/>
     <use x="300.048828" xlink:href="#Arial-BoldMT-79"/>
     <use x="377.832031" xlink:href="#Arial-BoldMT-85"/>
     <use x="450.048828" xlink:href="#Arial-BoldMT-78"/>
     <use x="522.265625" xlink:href="#Arial-BoldMT-84"/>
    </g>
    <!-- ACROSS RADIUS AT TIME 7 -->
    <defs>
     <path d="M 4.25 57.859375 
L 4.25 70.609375 
L 51.171875 70.609375 
L 51.171875 60.640625 
Q 45.359375 54.9375 39.34375 44.234375 
Q 33.34375 33.546875 30.1875 21.5 
Q 27.046875 9.46875 27.09375 0 
L 13.875 0 
Q 14.203125 14.84375 19.984375 30.265625 
Q 25.78125 45.703125 35.453125 57.859375 
z
" id="Arial-BoldMT-55"/>
    </defs>
    <g transform="translate(200.536875 42.64125)scale(0.2 -0.2)">
     <use xlink:href="#Arial-BoldMT-65"/>
     <use x="72.216797" xlink:href="#Arial-BoldMT-67"/>
     <use x="144.433594" xlink:href="#Arial-BoldMT-82"/>
     <use x="216.650391" xlink:href="#Arial-BoldMT-79"/>
     <use x="294.433594" xlink:href="#Arial-BoldMT-83"/>
     <use x="361.132812" xlink:href="#Arial-BoldMT-83"/>
     <use x="427.832031" xlink:href="#Arial-BoldMT-32"/>
     <use x="455.615234" xlink:href="#Arial-BoldMT-82"/>
     <use x="527.832031" xlink:href="#Arial-BoldMT-65"/>
     <use x="600.048828" xlink:href="#Arial-BoldMT-68"/>
     <use x="672.265625" xlink:href="#Arial-BoldMT-73"/>
     <use x="700.048828" xlink:href="#Arial-BoldMT-85"/>
     <use x="772.265625" xlink:href="#Arial-BoldMT-83"/>
     <use x="838.964844" xlink:href="#Arial-BoldMT-32"/>
     <use x="866.701172" xlink:href="#Arial-BoldMT-65"/>
     <use x="938.808594" xlink:href="#Arial-BoldMT-84"/>
     <use x="999.892578" xlink:href="#Arial-BoldMT-32"/>
     <use x="1027.675781" xlink:href="#Arial-BoldMT-84"/>
     <use x="1088.759766" xlink:href="#Arial-BoldMT-73"/>
     <use x="1116.542969" xlink:href="#Arial-BoldMT-77"/>
     <use x="1199.84375" xlink:href="#Arial-BoldMT-69"/>
     <use x="1266.542969" xlink:href="#Arial-BoldMT-32"/>
     <use x="1294.326172" xlink:href="#Arial-BoldMT-55"/>
    </g>
   </g>
   <g id="legend_1">
    <g id="line2d_85">
     <path d="M 539.830625 65.739687 
L 559.830625 65.739687 
" style="fill:none;stroke:#000000;stroke-linecap:square;stroke-width:1.5;"/>
    </g>
    <g id="line2d_86"/>
    <g id="text_16">
     <!-- 0 -->
     <g transform="translate(567.830625 69.239687)scale(0.1 -0.1)">
      <use xlink:href="#DejaVuSans-48"/>
     </g>
    </g>
    <g id="line2d_87">
     <path d="M 539.830625 80.417812 
L 559.830625 80.417812 
" style="fill:none;stroke:#d0e1f2;stroke-linecap:square;stroke-width:1.5;"/>
    </g>
    <g id="line2d_88"/>
    <g id="text_17">
     <!-- 100 -->
     <g transform="translate(567.830625 83.917812)scale(0.1 -0.1)">
      <use xlink:href="#DejaVuSans-49"/>
      <use x="63.623047" xlink:href="#DejaVuSans-48"/>
      <use x="127.246094" xlink:href="#DejaVuSans-48"/>
     </g>
    </g>
    <g id="line2d_89">
     <path d="M 539.830625 95.095937 
L 559.830625 95.095937 
" style="fill:none;stroke:#94c4df;stroke-linecap:square;stroke-width:1.5;"/>
    </g>
    <g id="line2d_90"/>
    <g id="text_18">
     <!-- 500 -->
     <g transform="translate(567.830625 98.595937)scale(0.1 -0.1)">
      <use xlink:href="#DejaVuSans-53"/>
      <use x="63.623047" xlink:href="#DejaVuSans-48"/>
      <use x="127.246094" xlink:href="#DejaVuSans-48"/>
     </g>
    </g>
    <g id="line2d_91">
     <path d="M 539.830625 109.774062 
L 559.830625 109.774062 
" style="fill:none;stroke:#4a98c9;stroke-linecap:square;stroke-width:1.5;"/>
    </g>
    <g id="line2d_92"/>
    <g id="text_19">
     <!-- 1000 -->
     <g transform="translate(567.830625 113.274062)scale(0.1 -0.1)">
      <use xlink:href="#DejaVuSans-49"/>
      <use x="63.623047" xlink:href="#DejaVuSans-48"/>
      <use x="127.246094" xlink:href="#DejaVuSans-48"/>
      <use x="190.869141" xlink:href="#DejaVuSans-48"/>
     </g>
    </g>
    <g id="line2d_93">
     <path d="M 539.830625 124.452187 
L 559.830625 124.452187 
" style="fill:none;stroke:#1764ab;stroke-linecap:square;stroke-width:1.5;"/>
    </g>
    <g id="line2d_94"/>
    <g id="text_20">
     <!-- 5000 -->
     <g transform="translate(567.830625 127.952187)scale(0.1 -0.1)">
      <use xlink:href="#DejaVuSans-53"/>
      <use x="63.623047" xlink:href="#DejaVuSans-48"/>
      <use x="127.246094" xlink:href="#DejaVuSans-48"/>
      <use x="190.869141" xlink:href="#DejaVuSans-48"/>
     </g>
    </g>
    <g id="line2d_95">
     <path d="M 539.830625 139.130312 
L 559.830625 139.130312 
" style="fill:none;stroke:#08306b;stroke-linecap:square;stroke-width:1.5;"/>
    </g>
    <g id="line2d_96"/>
    <g id="text_21">
     <!-- 10000 -->
     <g transform="translate(567.830625 142.630312)scale(0.1 -0.1)">
      <use xlink:href="#DejaVuSans-49"/>
      <use x="63.623047" xlink:href="#DejaVuSans-48"/>
      <use x="127.246094" xlink:href="#DejaVuSans-48"/>
      <use x="190.869141" xlink:href="#DejaVuSans-48"/>
      <use x="254.492188" xlink:href="#DejaVuSans-48"/>
     </g>
    </g>
    <g id="line2d_97">
     <path d="M 539.830625 153.808437 
L 559.830625 153.808437 
" style="fill:none;stroke:#000000;stroke-linecap:square;stroke-width:1.5;"/>
    </g>
    <g id="line2d_98"/>
    <g id="text_22">
     <!-- 0 -->
     <g transform="translate(567.830625 157.308437)scale(0.1 -0.1)">
      <use xlink:href="#DejaVuSans-48"/>
     </g>
    </g>
    <g id="line2d_99">
     <path d="M 539.830625 168.486562 
L 559.830625 168.486562 
" style="fill:none;stroke:#000000;stroke-dasharray:1.5,2.475;stroke-dashoffset:0;stroke-width:1.5;"/>
    </g>
    <g id="line2d_100"/>
    <g id="text_23">
     <!-- 250 -->
     <g transform="translate(567.830625 171.986562)scale(0.1 -0.1)">
      <use xlink:href="#DejaVuSans-50"/>
      <use x="63.623047" xlink:href="#DejaVuSans-53"/>
      <use x="127.246094" xlink:href="#DejaVuSans-48"/>
     </g>
    </g>
    <g id="line2d_101">
     <path d="M 539.830625 183.164687 
L 559.830625 183.164687 
" style="fill:none;stroke:#000000;stroke-linecap:square;stroke-width:1.5;"/>
    </g>
    <g id="line2d_102"/>
    <g id="text_24">
     <!-- 500 -->
     <g transform="translate(567.830625 186.664687)scale(0.1 -0.1)">
      <use xlink:href="#DejaVuSans-53"/>
      <use x="63.623047" xlink:href="#DejaVuSans-48"/>
      <use x="127.246094" xlink:href="#DejaVuSans-48"/>
     </g>
    </g>
    <g id="line2d_103">
     <path d="M 539.830625 197.842812 
L 559.830625 197.842812 
" style="fill:none;stroke:#000000;stroke-dasharray:5.55,2.4;stroke-dashoffset:0;stroke-width:1.5;"/>
    </g>
    <g id="line2d_104"/>
    <g id="text_25">
     <!-- 1000 -->
     <g transform="translate(567.830625 201.342812)scale(0.1 -0.1)">
      <use xlink:href="#DejaVuSans-49"/>
      <use x="63.623047" xlink:href="#DejaVuSans-48"/>
      <use x="127.246094" xlink:href="#DejaVuSans-48"/>
      <use x="190.869141" xlink:href="#DejaVuSans-48"/>
     </g>
    </g>
    <g id="line2d_105">
     <path d="M 539.830625 212.520937 
L 559.830625 212.520937 
" style="fill:none;stroke:#000000;stroke-dasharray:9.6,2.4,1.5,2.4;stroke-dashoffset:0;stroke-width:1.5;"/>
    </g>
    <g id="line2d_106"/>
    <g id="text_26">
     <!-- 5000 -->
     <g transform="translate(567.830625 216.020937)scale(0.1 -0.1)">
      <use xlink:href="#DejaVuSans-53"/>
      <use x="63.623047" xlink:href="#DejaVuSans-48"/>
      <use x="127.246094" xlink:href="#DejaVuSans-48"/>
      <use x="190.869141" xlink:href="#DejaVuSans-48"/>
     </g>
    </g>
    <g id="line2d_107">
     <path d="M 539.830625 227.199062 
L 559.830625 227.199062 
" style="fill:none;stroke:#000000;stroke-dasharray:9.6,2.4,1.5,2.4;stroke-dashoffset:0;stroke-width:1.5;"/>
    </g>
    <g id="line2d_108"/>
    <g id="text_27">
     <!-- 10000 -->
     <g transform="translate(567.830625 230.699062)scale(0.1 -0.1)">
      <use xlink:href="#DejaVuSans-49"/>
      <use x="63.623047" xlink:href="#DejaVuSans-48"/>
      <use x="127.246094" xlink:href="#DejaVuSans-48"/>
      <use x="190.869141" xlink:href="#DejaVuSans-48"/>
      <use x="254.492188" xlink:href="#DejaVuSans-48"/>
     </g>
    </g>
   </g>
  </g>
 </g>
 <defs>
  <clipPath id="pfee4388df2">
   <rect height="380.52" width="390.6" x="140.230625" y="52.64125"/>
  </clipPath>
 </defs>
</svg>
