<?xml version="1.0" encoding="utf-8" standalone="no"?>
<!DOCTYPE svg PUBLIC "-//W3C//DTD SVG 1.1//EN"
  "http://www.w3.org/Graphics/SVG/1.1/DTD/svg11.dtd">
<!-- Created with matplotlib (https://matplotlib.org/) -->
<svg height="504.658125pt" version="1.1" viewBox="0 0 503.355625 504.658125" width="503.355625pt" xmlns="http://www.w3.org/2000/svg" xmlns:xlink="http://www.w3.org/1999/xlink">
 <defs>
  <style type="text/css">
*{stroke-linecap:butt;stroke-linejoin:round;}
  </style>
 </defs>
 <g id="figure_1">
  <g id="patch_1">
   <path d="M 0 504.658125 
L 503.355625 504.658125 
L 503.355625 -0 
L 0 -0 
z
" style="fill:#ffffff;"/>
  </g>
  <g id="axes_1">
   <g id="patch_2">
    <path d="M 102.055625 433.16125 
L 492.655625 433.16125 
L 492.655625 52.64125 
L 102.055625 52.64125 
z
" style="fill:#ffffff;"/>
   </g>
   <g id="matplotlib.axis_1">
    <g id="xtick_1">
     <g id="line2d_1">
      <defs>
       <path d="M 0 0 
L 0 3.5 
" id="mb62eadd073" style="stroke:#000000;stroke-width:0.8;"/>
      </defs>
      <g>
       <use style="stroke:#000000;stroke-width:0.8;" x="149.40108" xlink:href="#mb62eadd073" y="433.16125"/>
      </g>
     </g>
     <g id="text_1">
      <!-- 5 -->
      <defs>
       <path d="M 10.796875 72.90625 
L 49.515625 72.90625 
L 49.515625 64.59375 
L 19.828125 64.59375 
L 19.828125 46.734375 
Q 21.96875 47.46875 24.109375 47.828125 
Q 26.265625 48.1875 28.421875 48.1875 
Q 40.625 48.1875 47.75 41.5 
Q 54.890625 34.8125 54.890625 23.390625 
Q 54.890625 11.625 47.5625 5.09375 
Q 40.234375 -1.421875 26.90625 -1.421875 
Q 22.3125 -1.421875 17.546875 -0.640625 
Q 12.796875 0.140625 7.71875 1.703125 
L 7.71875 11.625 
Q 12.109375 9.234375 16.796875 8.0625 
Q 21.484375 6.890625 26.703125 6.890625 
Q 35.15625 6.890625 40.078125 11.328125 
Q 45.015625 15.765625 45.015625 23.390625 
Q 45.015625 31 40.078125 35.4375 
Q 35.15625 39.890625 26.703125 39.890625 
Q 22.75 39.890625 18.8125 39.015625 
Q 14.890625 38.140625 10.796875 36.28125 
z
" id="DejaVuSans-53"/>
      </defs>
      <g transform="translate(139.85733 462.956562)scale(0.3 -0.3)">
       <use xlink:href="#DejaVuSans-53"/>
      </g>
     </g>
    </g>
    <g id="xtick_2">
     <g id="line2d_2">
      <g>
       <use style="stroke:#000000;stroke-width:0.8;" x="208.582898" xlink:href="#mb62eadd073" y="433.16125"/>
      </g>
     </g>
     <g id="text_2">
      <!-- 10 -->
      <defs>
       <path d="M 12.40625 8.296875 
L 28.515625 8.296875 
L 28.515625 63.921875 
L 10.984375 60.40625 
L 10.984375 69.390625 
L 28.421875 72.90625 
L 38.28125 72.90625 
L 38.28125 8.296875 
L 54.390625 8.296875 
L 54.390625 0 
L 12.40625 0 
z
" id="DejaVuSans-49"/>
       <path d="M 31.78125 66.40625 
Q 24.171875 66.40625 20.328125 58.90625 
Q 16.5 51.421875 16.5 36.375 
Q 16.5 21.390625 20.328125 13.890625 
Q 24.171875 6.390625 31.78125 6.390625 
Q 39.453125 6.390625 43.28125 13.890625 
Q 47.125 21.390625 47.125 36.375 
Q 47.125 51.421875 43.28125 58.90625 
Q 39.453125 66.40625 31.78125 66.40625 
z
M 31.78125 74.21875 
Q 44.046875 74.21875 50.515625 64.515625 
Q 56.984375 54.828125 56.984375 36.375 
Q 56.984375 17.96875 50.515625 8.265625 
Q 44.046875 -1.421875 31.78125 -1.421875 
Q 19.53125 -1.421875 13.0625 8.265625 
Q 6.59375 17.96875 6.59375 36.375 
Q 6.59375 54.828125 13.0625 64.515625 
Q 19.53125 74.21875 31.78125 74.21875 
z
" id="DejaVuSans-48"/>
      </defs>
      <g transform="translate(189.495398 462.956562)scale(0.3 -0.3)">
       <use xlink:href="#DejaVuSans-49"/>
       <use x="63.623047" xlink:href="#DejaVuSans-48"/>
      </g>
     </g>
    </g>
    <g id="xtick_3">
     <g id="line2d_3">
      <g>
       <use style="stroke:#000000;stroke-width:0.8;" x="267.764716" xlink:href="#mb62eadd073" y="433.16125"/>
      </g>
     </g>
     <g id="text_3">
      <!-- 15 -->
      <g transform="translate(248.677216 462.956562)scale(0.3 -0.3)">
       <use xlink:href="#DejaVuSans-49"/>
       <use x="63.623047" xlink:href="#DejaVuSans-53"/>
      </g>
     </g>
    </g>
    <g id="xtick_4">
     <g id="line2d_4">
      <g>
       <use style="stroke:#000000;stroke-width:0.8;" x="326.946534" xlink:href="#mb62eadd073" y="433.16125"/>
      </g>
     </g>
     <g id="text_4">
      <!-- 20 -->
      <defs>
       <path d="M 19.1875 8.296875 
L 53.609375 8.296875 
L 53.609375 0 
L 7.328125 0 
L 7.328125 8.296875 
Q 12.9375 14.109375 22.625 23.890625 
Q 32.328125 33.6875 34.8125 36.53125 
Q 39.546875 41.84375 41.421875 45.53125 
Q 43.3125 49.21875 43.3125 52.78125 
Q 43.3125 58.59375 39.234375 62.25 
Q 35.15625 65.921875 28.609375 65.921875 
Q 23.96875 65.921875 18.8125 64.3125 
Q 13.671875 62.703125 7.8125 59.421875 
L 7.8125 69.390625 
Q 13.765625 71.78125 18.9375 73 
Q 24.125 74.21875 28.421875 74.21875 
Q 39.75 74.21875 46.484375 68.546875 
Q 53.21875 62.890625 53.21875 53.421875 
Q 53.21875 48.921875 51.53125 44.890625 
Q 49.859375 40.875 45.40625 35.40625 
Q 44.1875 33.984375 37.640625 27.21875 
Q 31.109375 20.453125 19.1875 8.296875 
z
" id="DejaVuSans-50"/>
      </defs>
      <g transform="translate(307.859034 462.956562)scale(0.3 -0.3)">
       <use xlink:href="#DejaVuSans-50"/>
       <use x="63.623047" xlink:href="#DejaVuSans-48"/>
      </g>
     </g>
    </g>
    <g id="xtick_5">
     <g id="line2d_5">
      <g>
       <use style="stroke:#000000;stroke-width:0.8;" x="386.128352" xlink:href="#mb62eadd073" y="433.16125"/>
      </g>
     </g>
     <g id="text_5">
      <!-- 25 -->
      <g transform="translate(367.040852 462.956562)scale(0.3 -0.3)">
       <use xlink:href="#DejaVuSans-50"/>
       <use x="63.623047" xlink:href="#DejaVuSans-53"/>
      </g>
     </g>
    </g>
    <g id="xtick_6">
     <g id="line2d_6">
      <g>
       <use style="stroke:#000000;stroke-width:0.8;" x="445.31017" xlink:href="#mb62eadd073" y="433.16125"/>
      </g>
     </g>
     <g id="text_6">
      <!-- 30 -->
      <defs>
       <path d="M 40.578125 39.3125 
Q 47.65625 37.796875 51.625 33 
Q 55.609375 28.21875 55.609375 21.1875 
Q 55.609375 10.40625 48.1875 4.484375 
Q 40.765625 -1.421875 27.09375 -1.421875 
Q 22.515625 -1.421875 17.65625 -0.515625 
Q 12.796875 0.390625 7.625 2.203125 
L 7.625 11.71875 
Q 11.71875 9.328125 16.59375 8.109375 
Q 21.484375 6.890625 26.8125 6.890625 
Q 36.078125 6.890625 40.9375 10.546875 
Q 45.796875 14.203125 45.796875 21.1875 
Q 45.796875 27.640625 41.28125 31.265625 
Q 36.765625 34.90625 28.71875 34.90625 
L 20.21875 34.90625 
L 20.21875 43.015625 
L 29.109375 43.015625 
Q 36.375 43.015625 40.234375 45.921875 
Q 44.09375 48.828125 44.09375 54.296875 
Q 44.09375 59.90625 40.109375 62.90625 
Q 36.140625 65.921875 28.71875 65.921875 
Q 24.65625 65.921875 20.015625 65.03125 
Q 15.375 64.15625 9.8125 62.3125 
L 9.8125 71.09375 
Q 15.4375 72.65625 20.34375 73.4375 
Q 25.25 74.21875 29.59375 74.21875 
Q 40.828125 74.21875 47.359375 69.109375 
Q 53.90625 64.015625 53.90625 55.328125 
Q 53.90625 49.265625 50.4375 45.09375 
Q 46.96875 40.921875 40.578125 39.3125 
z
" id="DejaVuSans-51"/>
      </defs>
      <g transform="translate(426.22267 462.956562)scale(0.3 -0.3)">
       <use xlink:href="#DejaVuSans-51"/>
       <use x="63.623047" xlink:href="#DejaVuSans-48"/>
      </g>
     </g>
    </g>
    <g id="text_7">
     <!-- RADIUS -->
     <defs>
      <path d="M 7.328125 0 
L 7.328125 71.578125 
L 37.75 71.578125 
Q 49.21875 71.578125 54.421875 69.640625 
Q 59.625 67.71875 62.75 62.78125 
Q 65.875 57.859375 65.875 51.515625 
Q 65.875 43.453125 61.125 38.203125 
Q 56.390625 32.953125 46.96875 31.59375 
Q 51.65625 28.859375 54.703125 25.578125 
Q 57.765625 22.3125 62.9375 13.96875 
L 71.6875 0 
L 54.390625 0 
L 43.953125 15.578125 
Q 38.375 23.921875 36.328125 26.09375 
Q 34.28125 28.265625 31.984375 29.078125 
Q 29.6875 29.890625 24.703125 29.890625 
L 21.78125 29.890625 
L 21.78125 0 
z
M 21.78125 41.3125 
L 32.46875 41.3125 
Q 42.875 41.3125 45.453125 42.1875 
Q 48.046875 43.0625 49.515625 45.203125 
Q 50.984375 47.359375 50.984375 50.59375 
Q 50.984375 54.203125 49.046875 56.421875 
Q 47.125 58.640625 43.609375 59.234375 
Q 41.84375 59.46875 33.0625 59.46875 
L 21.78125 59.46875 
z
" id="Arial-BoldMT-82"/>
      <path d="M 71.828125 0 
L 56.109375 0 
L 49.859375 16.265625 
L 21.234375 16.265625 
L 15.328125 0 
L 0 0 
L 27.875 71.578125 
L 43.171875 71.578125 
z
M 45.21875 28.328125 
L 35.359375 54.890625 
L 25.6875 28.328125 
z
" id="Arial-BoldMT-65"/>
      <path d="M 7.234375 71.578125 
L 33.640625 71.578125 
Q 42.578125 71.578125 47.265625 70.21875 
Q 53.5625 68.359375 58.046875 63.625 
Q 62.546875 58.890625 64.890625 52.03125 
Q 67.234375 45.171875 67.234375 35.109375 
Q 67.234375 26.265625 65.046875 19.875 
Q 62.359375 12.0625 57.375 7.234375 
Q 53.609375 3.5625 47.21875 1.515625 
Q 42.4375 0 34.421875 0 
L 7.234375 0 
z
M 21.6875 59.46875 
L 21.6875 12.0625 
L 32.46875 12.0625 
Q 38.53125 12.0625 41.21875 12.75 
Q 44.734375 13.625 47.046875 15.71875 
Q 49.359375 17.828125 50.828125 22.625 
Q 52.296875 27.4375 52.296875 35.75 
Q 52.296875 44.046875 50.828125 48.484375 
Q 49.359375 52.9375 46.71875 55.421875 
Q 44.09375 57.90625 40.046875 58.796875 
Q 37.015625 59.46875 28.171875 59.46875 
z
" id="Arial-BoldMT-68"/>
      <path d="M 6.84375 0 
L 6.84375 71.578125 
L 21.296875 71.578125 
L 21.296875 0 
z
" id="Arial-BoldMT-73"/>
      <path d="M 7.171875 71.578125 
L 21.625 71.578125 
L 21.625 32.8125 
Q 21.625 23.578125 22.171875 20.84375 
Q 23.09375 16.453125 26.578125 13.796875 
Q 30.078125 11.140625 36.140625 11.140625 
Q 42.28125 11.140625 45.40625 13.640625 
Q 48.53125 16.15625 49.171875 19.8125 
Q 49.8125 23.484375 49.8125 31.984375 
L 49.8125 71.578125 
L 64.265625 71.578125 
L 64.265625 33.984375 
Q 64.265625 21.09375 63.09375 15.765625 
Q 61.921875 10.453125 58.765625 6.78125 
Q 55.609375 3.125 50.328125 0.953125 
Q 45.0625 -1.21875 36.578125 -1.21875 
Q 26.3125 -1.21875 21.015625 1.140625 
Q 15.71875 3.515625 12.640625 7.296875 
Q 9.578125 11.078125 8.59375 15.234375 
Q 7.171875 21.390625 7.171875 33.40625 
z
" id="Arial-BoldMT-85"/>
      <path d="M 3.609375 23.296875 
L 17.671875 24.65625 
Q 18.953125 17.578125 22.828125 14.25 
Q 26.703125 10.9375 33.296875 10.9375 
Q 40.28125 10.9375 43.8125 13.890625 
Q 47.359375 16.84375 47.359375 20.796875 
Q 47.359375 23.34375 45.875 25.125 
Q 44.390625 26.90625 40.671875 28.21875 
Q 38.140625 29.109375 29.109375 31.34375 
Q 17.484375 34.234375 12.796875 38.421875 
Q 6.203125 44.34375 6.203125 52.828125 
Q 6.203125 58.296875 9.296875 63.0625 
Q 12.40625 67.828125 18.234375 70.3125 
Q 24.078125 72.796875 32.328125 72.796875 
Q 45.796875 72.796875 52.609375 66.890625 
Q 59.421875 60.984375 59.765625 51.125 
L 45.3125 50.484375 
Q 44.390625 56 41.328125 58.421875 
Q 38.28125 60.84375 32.171875 60.84375 
Q 25.875 60.84375 22.3125 58.25 
Q 20.015625 56.59375 20.015625 53.8125 
Q 20.015625 51.265625 22.171875 49.46875 
Q 24.90625 47.171875 35.453125 44.671875 
Q 46 42.1875 51.046875 39.515625 
Q 56.109375 36.859375 58.953125 32.25 
Q 61.8125 27.640625 61.8125 20.84375 
Q 61.8125 14.703125 58.390625 9.328125 
Q 54.984375 3.953125 48.734375 1.34375 
Q 42.484375 -1.265625 33.15625 -1.265625 
Q 19.578125 -1.265625 12.296875 5 
Q 5.03125 11.28125 3.609375 23.296875 
z
" id="Arial-BoldMT-83"/>
     </defs>
     <g transform="translate(259.019688 493.51125)scale(0.2 -0.2)">
      <use xlink:href="#Arial-BoldMT-82"/>
      <use x="72.216797" xlink:href="#Arial-BoldMT-65"/>
      <use x="144.433594" xlink:href="#Arial-BoldMT-68"/>
      <use x="216.650391" xlink:href="#Arial-BoldMT-73"/>
      <use x="244.433594" xlink:href="#Arial-BoldMT-85"/>
      <use x="316.650391" xlink:href="#Arial-BoldMT-83"/>
     </g>
    </g>
   </g>
   <g id="matplotlib.axis_2">
    <g id="ytick_1">
     <g id="line2d_7">
      <defs>
       <path d="M 0 0 
L -3.5 0 
" id="m4719387897" style="stroke:#000000;stroke-width:0.8;"/>
      </defs>
      <g>
       <use style="stroke:#000000;stroke-width:0.8;" x="102.055625" xlink:href="#m4719387897" y="433.16125"/>
      </g>
     </g>
     <g id="text_8">
      <!-- 0 -->
      <g transform="translate(75.968125 444.558906)scale(0.3 -0.3)">
       <use xlink:href="#DejaVuSans-48"/>
      </g>
     </g>
    </g>
    <g id="ytick_2">
     <g id="line2d_8">
      <g>
       <use style="stroke:#000000;stroke-width:0.8;" x="102.055625" xlink:href="#m4719387897" y="369.74125"/>
      </g>
     </g>
     <g id="text_9">
      <!-- 5 -->
      <g transform="translate(75.968125 381.138906)scale(0.3 -0.3)">
       <use xlink:href="#DejaVuSans-53"/>
      </g>
     </g>
    </g>
    <g id="ytick_3">
     <g id="line2d_9">
      <g>
       <use style="stroke:#000000;stroke-width:0.8;" x="102.055625" xlink:href="#m4719387897" y="306.32125"/>
      </g>
     </g>
     <g id="text_10">
      <!-- 10 -->
      <g transform="translate(56.880625 317.718906)scale(0.3 -0.3)">
       <use xlink:href="#DejaVuSans-49"/>
       <use x="63.623047" xlink:href="#DejaVuSans-48"/>
      </g>
     </g>
    </g>
    <g id="ytick_4">
     <g id="line2d_10">
      <g>
       <use style="stroke:#000000;stroke-width:0.8;" x="102.055625" xlink:href="#m4719387897" y="242.90125"/>
      </g>
     </g>
     <g id="text_11">
      <!-- 15 -->
      <g transform="translate(56.880625 254.298906)scale(0.3 -0.3)">
       <use xlink:href="#DejaVuSans-49"/>
       <use x="63.623047" xlink:href="#DejaVuSans-53"/>
      </g>
     </g>
    </g>
    <g id="ytick_5">
     <g id="line2d_11">
      <g>
       <use style="stroke:#000000;stroke-width:0.8;" x="102.055625" xlink:href="#m4719387897" y="179.48125"/>
      </g>
     </g>
     <g id="text_12">
      <!-- 20 -->
      <g transform="translate(56.880625 190.878906)scale(0.3 -0.3)">
       <use xlink:href="#DejaVuSans-50"/>
       <use x="63.623047" xlink:href="#DejaVuSans-48"/>
      </g>
     </g>
    </g>
    <g id="ytick_6">
     <g id="line2d_12">
      <g>
       <use style="stroke:#000000;stroke-width:0.8;" x="102.055625" xlink:href="#m4719387897" y="116.06125"/>
      </g>
     </g>
     <g id="text_13">
      <!-- 25 -->
      <g transform="translate(56.880625 127.458906)scale(0.3 -0.3)">
       <use xlink:href="#DejaVuSans-50"/>
       <use x="63.623047" xlink:href="#DejaVuSans-53"/>
      </g>
     </g>
    </g>
    <g id="ytick_7">
     <g id="line2d_13">
      <g>
       <use style="stroke:#000000;stroke-width:0.8;" x="102.055625" xlink:href="#m4719387897" y="52.64125"/>
      </g>
     </g>
     <g id="text_14">
      <!-- 30 -->
      <g transform="translate(56.880625 64.038906)scale(0.3 -0.3)">
       <use xlink:href="#DejaVuSans-51"/>
       <use x="63.623047" xlink:href="#DejaVuSans-48"/>
      </g>
     </g>
    </g>
    <g id="text_15">
     <!-- T-CELL NORMALIZED -->
     <defs>
      <path d="M 23.390625 0 
L 23.390625 59.46875 
L 2.15625 59.46875 
L 2.15625 71.578125 
L 59.03125 71.578125 
L 59.03125 59.46875 
L 37.84375 59.46875 
L 37.84375 0 
z
" id="Arial-BoldMT-84"/>
      <path d="M 5.609375 19.09375 
L 5.609375 32.8125 
L 32.5625 32.8125 
L 32.5625 19.09375 
z
" id="Arial-BoldMT-45"/>
      <path d="M 53.078125 26.3125 
L 67.09375 21.875 
Q 63.875 10.15625 56.375 4.46875 
Q 48.875 -1.21875 37.359375 -1.21875 
Q 23.09375 -1.21875 13.90625 8.515625 
Q 4.734375 18.265625 4.734375 35.15625 
Q 4.734375 53.03125 13.953125 62.90625 
Q 23.1875 72.796875 38.234375 72.796875 
Q 51.375 72.796875 59.578125 65.046875 
Q 64.453125 60.453125 66.890625 51.859375 
L 52.59375 48.4375 
Q 51.3125 54 47.28125 57.21875 
Q 43.265625 60.453125 37.5 60.453125 
Q 29.546875 60.453125 24.578125 54.734375 
Q 19.625 49.03125 19.625 36.234375 
Q 19.625 22.65625 24.5 16.890625 
Q 29.390625 11.140625 37.203125 11.140625 
Q 42.96875 11.140625 47.109375 14.796875 
Q 51.265625 18.453125 53.078125 26.3125 
z
" id="Arial-BoldMT-67"/>
      <path d="M 7.28125 0 
L 7.28125 71.578125 
L 60.359375 71.578125 
L 60.359375 59.46875 
L 21.734375 59.46875 
L 21.734375 43.609375 
L 57.671875 43.609375 
L 57.671875 31.546875 
L 21.734375 31.546875 
L 21.734375 12.0625 
L 61.71875 12.0625 
L 61.71875 0 
z
" id="Arial-BoldMT-69"/>
      <path d="M 7.671875 0 
L 7.671875 71 
L 22.125 71 
L 22.125 12.0625 
L 58.0625 12.0625 
L 58.0625 0 
z
" id="Arial-BoldMT-76"/>
      <path id="Arial-BoldMT-32"/>
      <path d="M 7.421875 0 
L 7.421875 71.578125 
L 21.484375 71.578125 
L 50.78125 23.78125 
L 50.78125 71.578125 
L 64.203125 71.578125 
L 64.203125 0 
L 49.703125 0 
L 20.84375 46.6875 
L 20.84375 0 
z
" id="Arial-BoldMT-78"/>
      <path d="M 4.34375 35.359375 
Q 4.34375 46.296875 7.625 53.71875 
Q 10.0625 59.1875 14.28125 63.53125 
Q 18.5 67.875 23.53125 69.96875 
Q 30.21875 72.796875 38.96875 72.796875 
Q 54.78125 72.796875 64.28125 62.984375 
Q 73.78125 53.171875 73.78125 35.6875 
Q 73.78125 18.359375 64.359375 8.5625 
Q 54.9375 -1.21875 39.15625 -1.21875 
Q 23.1875 -1.21875 13.765625 8.515625 
Q 4.34375 18.265625 4.34375 35.359375 
z
M 19.234375 35.84375 
Q 19.234375 23.6875 24.84375 17.40625 
Q 30.46875 11.140625 39.109375 11.140625 
Q 47.75 11.140625 53.296875 17.359375 
Q 58.84375 23.578125 58.84375 36.03125 
Q 58.84375 48.34375 53.4375 54.390625 
Q 48.046875 60.453125 39.109375 60.453125 
Q 30.171875 60.453125 24.703125 54.3125 
Q 19.234375 48.1875 19.234375 35.84375 
z
" id="Arial-BoldMT-79"/>
      <path d="M 7.078125 0 
L 7.078125 71.578125 
L 28.71875 71.578125 
L 41.703125 22.75 
L 54.546875 71.578125 
L 76.21875 71.578125 
L 76.21875 0 
L 62.796875 0 
L 62.796875 56.34375 
L 48.578125 0 
L 34.671875 0 
L 20.515625 56.34375 
L 20.515625 0 
z
" id="Arial-BoldMT-77"/>
      <path d="M 1.078125 0 
L 1.078125 13.03125 
L 38.671875 59.46875 
L 5.328125 59.46875 
L 5.328125 71.578125 
L 57.71875 71.578125 
L 57.71875 60.359375 
L 18.5 12.0625 
L 59.234375 12.0625 
L 59.234375 0 
z
" id="Arial-BoldMT-90"/>
     </defs>
     <g transform="translate(21.253125 347.874687)rotate(-90)scale(0.2 -0.2)">
      <use xlink:href="#Arial-BoldMT-84"/>
      <use x="61.005859" xlink:href="#Arial-BoldMT-45"/>
      <use x="94.306641" xlink:href="#Arial-BoldMT-67"/>
      <use x="166.523438" xlink:href="#Arial-BoldMT-69"/>
      <use x="233.222656" xlink:href="#Arial-BoldMT-76"/>
      <use x="294.306641" xlink:href="#Arial-BoldMT-76"/>
      <use x="355.375" xlink:href="#Arial-BoldMT-32"/>
      <use x="383.158203" xlink:href="#Arial-BoldMT-78"/>
      <use x="455.375" xlink:href="#Arial-BoldMT-79"/>
      <use x="533.158203" xlink:href="#Arial-BoldMT-82"/>
      <use x="605.375" xlink:href="#Arial-BoldMT-77"/>
      <use x="688.675781" xlink:href="#Arial-BoldMT-65"/>
      <use x="760.892578" xlink:href="#Arial-BoldMT-76"/>
      <use x="821.976562" xlink:href="#Arial-BoldMT-73"/>
      <use x="849.759766" xlink:href="#Arial-BoldMT-90"/>
      <use x="910.84375" xlink:href="#Arial-BoldMT-69"/>
      <use x="977.542969" xlink:href="#Arial-BoldMT-68"/>
     </g>
     <!-- CELL COUNTS (NUMBERS) -->
     <defs>
      <path d="M 29.9375 -21.046875 
L 20.515625 -21.046875 
Q 13.03125 -9.765625 9.125 2.390625 
Q 5.21875 14.546875 5.21875 25.921875 
Q 5.21875 40.046875 10.0625 52.640625 
Q 14.265625 63.578125 20.703125 72.796875 
L 30.078125 72.796875 
Q 23.390625 58.015625 20.875 47.625 
Q 18.359375 37.25 18.359375 25.640625 
Q 18.359375 17.625 19.84375 9.21875 
Q 21.34375 0.828125 23.921875 -6.734375 
Q 25.640625 -11.71875 29.9375 -21.046875 
z
" id="Arial-BoldMT-40"/>
      <path d="M 7.328125 71.578125 
L 35.9375 71.578125 
Q 44.4375 71.578125 48.609375 70.875 
Q 52.78125 70.171875 56.078125 67.921875 
Q 59.375 65.671875 61.5625 61.9375 
Q 63.765625 58.203125 63.765625 53.5625 
Q 63.765625 48.53125 61.046875 44.328125 
Q 58.34375 40.140625 53.71875 38.03125 
Q 60.25 36.140625 63.765625 31.546875 
Q 67.28125 26.953125 67.28125 20.75 
Q 67.28125 15.875 65.015625 11.25 
Q 62.75 6.640625 58.8125 3.875 
Q 54.890625 1.125 49.125 0.484375 
Q 45.515625 0.09375 31.6875 0 
L 7.328125 0 
z
M 21.78125 59.671875 
L 21.78125 43.109375 
L 31.25 43.109375 
Q 39.703125 43.109375 41.75 43.359375 
Q 45.453125 43.796875 47.578125 45.921875 
Q 49.703125 48.046875 49.703125 51.515625 
Q 49.703125 54.828125 47.875 56.90625 
Q 46.046875 58.984375 42.4375 59.421875 
Q 40.28125 59.671875 30.078125 59.671875 
z
M 21.78125 31.203125 
L 21.78125 12.0625 
L 35.15625 12.0625 
Q 42.96875 12.0625 45.0625 12.5 
Q 48.296875 13.09375 50.3125 15.359375 
Q 52.34375 17.625 52.34375 21.4375 
Q 52.34375 24.65625 50.78125 26.90625 
Q 49.21875 29.15625 46.265625 30.171875 
Q 43.3125 31.203125 33.453125 31.203125 
z
" id="Arial-BoldMT-66"/>
      <path d="M 3.375 -21.046875 
Q 7.421875 -12.359375 9.078125 -7.71875 
Q 10.75 -3.078125 12.15625 2.96875 
Q 13.578125 9.03125 14.25 14.46875 
Q 14.9375 19.921875 14.9375 25.640625 
Q 14.9375 37.25 12.453125 47.625 
Q 9.96875 58.015625 3.265625 72.796875 
L 12.59375 72.796875 
Q 19.96875 62.3125 24.046875 50.53125 
Q 28.125 38.765625 28.125 26.65625 
Q 28.125 16.453125 24.90625 4.78125 
Q 21.234375 -8.296875 12.84375 -21.046875 
z
" id="Arial-BoldMT-41"/>
     </defs>
     <g transform="translate(42.67125 374.002812)rotate(-90)scale(0.2 -0.2)">
      <use xlink:href="#Arial-BoldMT-67"/>
      <use x="72.216797" xlink:href="#Arial-BoldMT-69"/>
      <use x="138.916016" xlink:href="#Arial-BoldMT-76"/>
      <use x="200" xlink:href="#Arial-BoldMT-76"/>
      <use x="261.068359" xlink:href="#Arial-BoldMT-32"/>
      <use x="288.851562" xlink:href="#Arial-BoldMT-67"/>
      <use x="361.068359" xlink:href="#Arial-BoldMT-79"/>
      <use x="438.851562" xlink:href="#Arial-BoldMT-85"/>
      <use x="511.068359" xlink:href="#Arial-BoldMT-78"/>
      <use x="583.285156" xlink:href="#Arial-BoldMT-84"/>
      <use x="644.369141" xlink:href="#Arial-BoldMT-83"/>
      <use x="711.068359" xlink:href="#Arial-BoldMT-32"/>
      <use x="738.851562" xlink:href="#Arial-BoldMT-40"/>
      <use x="772.152344" xlink:href="#Arial-BoldMT-78"/>
      <use x="844.369141" xlink:href="#Arial-BoldMT-85"/>
      <use x="916.585938" xlink:href="#Arial-BoldMT-77"/>
      <use x="999.886719" xlink:href="#Arial-BoldMT-66"/>
      <use x="1072.103516" xlink:href="#Arial-BoldMT-69"/>
      <use x="1138.802734" xlink:href="#Arial-BoldMT-82"/>
      <use x="1211.019531" xlink:href="#Arial-BoldMT-83"/>
      <use x="1277.71875" xlink:href="#Arial-BoldMT-41"/>
     </g>
    </g>
   </g>
   <g id="line2d_14">
    <path clip-path="url(#p980518b6b1)" d="M 102.055625 433.16125 
L 113.891989 426.81925 
L 125.728352 429.99025 
L 137.564716 432.456583 
L 149.40108 427.34775 
L 161.237443 427.66485 
L 173.073807 428.580917 
L 184.91017 428.93325 
L 196.746534 429.1975 
L 208.582898 429.872806 
L 220.419261 428.93325 
L 232.255625 429.894159 
L 244.091989 429.99025 
L 255.928352 429.908942 
L 267.764716 429.83925 
L 279.60108 430.20165 
L 291.437443 429.065375 
L 303.273807 428.93325 
L 315.11017 427.758806 
L 326.946534 428.710724 
L 338.782898 429.03895 
L 350.619261 429.939917 
L 362.455625 429.221523 
L 374.291989 429.760467 
L 386.128352 430.2545 
L 397.964716 429.10237 
L 409.80108 429.421096 
L 421.637443 430.577472 
L 433.473807 429.99025 
L 445.31017 429.808009 
L 457.146534 429.708383 
L 468.982898 429.751573 
L 480.819261 429.131437 
L 492.655625 429.701977 
" style="fill:none;stroke:#08306b;stroke-linecap:square;stroke-width:1.5;"/>
   </g>
   <g id="line2d_15">
    <path clip-path="url(#p980518b6b1)" d="M 102.055625 433.16125 
L 113.891989 428.93325 
L 125.728352 428.93325 
L 137.564716 432.456583 
L 149.40108 429.99025 
L 161.237443 431.04725 
L 173.073807 428.228583 
L 184.91017 428.32925 
L 196.746534 429.46175 
L 208.582898 430.342583 
L 220.419261 430.83585 
L 232.255625 430.855068 
L 244.091989 426.29075 
L 255.928352 429.095865 
L 267.764716 429.08425 
L 279.60108 429.215117 
L 291.437443 429.593875 
L 303.273807 430.425485 
L 315.11017 430.225139 
L 326.946534 429.044513 
L 338.782898 429.35605 
L 350.619261 430.040583 
L 362.455625 429.605886 
L 374.291989 428.197946 
L 386.128352 431.487667 
L 397.964716 428.93325 
L 409.80108 427.307096 
L 421.637443 430.968954 
L 433.473807 430.21675 
L 445.31017 428.641664 
L 457.146534 428.93325 
L 468.982898 429.956153 
L 480.819261 429.065375 
L 492.655625 429.830098 
" style="fill:none;stroke:#08306b;stroke-linecap:square;stroke-width:1.5;"/>
   </g>
   <g id="line2d_16">
    <path clip-path="url(#p980518b6b1)" d="M 102.055625 433.16125 
L 113.891989 433.16125 
L 125.728352 428.93325 
L 137.564716 431.751917 
L 149.40108 429.99025 
L 161.237443 431.04725 
L 173.073807 431.04725 
L 184.91017 430.14125 
L 196.746534 427.612 
L 208.582898 429.637917 
L 220.419261 429.77885 
L 232.255625 429.125432 
L 244.091989 427.523917 
L 255.928352 430.884635 
L 267.764716 430.74525 
L 279.60108 428.792317 
L 291.437443 429.46175 
L 303.273807 427.441015 
L 315.11017 429.050694 
L 326.946534 429.378303 
L 338.782898 430.51875 
L 350.619261 429.335917 
L 362.455625 429.413705 
L 374.291989 429.300902 
L 386.128352 429.373667 
L 397.964716 431.04725 
L 409.80108 428.851942 
L 421.637443 429.872806 
L 433.473807 429.99025 
L 445.31017 429.15194 
L 457.146534 428.369517 
L 468.982898 430.228927 
L 480.819261 428.801125 
L 492.655625 430.406644 
" style="fill:none;stroke:#08306b;stroke-linecap:square;stroke-width:1.5;"/>
   </g>
   <g id="line2d_17">
    <path clip-path="url(#p980518b6b1)" d="M 102.055625 433.16125 
L 113.891989 433.16125 
L 125.728352 427.87625 
L 137.564716 430.342583 
L 149.40108 428.93325 
L 161.237443 427.24205 
L 173.073807 427.87625 
L 184.91017 429.23525 
L 196.746534 429.46175 
L 208.582898 430.342583 
L 220.419261 431.47005 
L 232.255625 430.086341 
L 244.091989 428.052417 
L 255.928352 428.93325 
L 267.764716 430.14125 
L 279.60108 429.919783 
L 291.437443 428.93325 
L 303.273807 429.057603 
L 315.11017 429.285583 
L 326.946534 430.824724 
L 338.782898 430.62445 
L 350.619261 430.946583 
L 362.455625 429.317614 
L 374.291989 428.841337 
L 386.128352 431.04725 
L 397.964716 429.69429 
L 409.80108 429.095865 
L 421.637443 429.403028 
L 433.473807 429.38625 
L 445.31017 429.224836 
L 457.146534 429.074183 
L 468.982898 429.001444 
L 480.819261 428.999312 
L 492.655625 429.445735 
" style="fill:none;stroke:#08306b;stroke-linecap:square;stroke-width:1.5;"/>
   </g>
   <g id="line2d_18">
    <path clip-path="url(#p980518b6b1)" d="M 102.055625 433.16125 
L 113.891989 433.16125 
L 125.728352 423.64825 
L 137.564716 427.523917 
L 149.40108 432.10425 
L 161.237443 428.93325 
L 173.073807 427.523917 
L 184.91017 430.74525 
L 196.746534 430.783 
L 208.582898 431.282139 
L 220.419261 429.14465 
L 232.255625 430.086341 
L 244.091989 428.052417 
L 255.928352 430.234173 
L 267.764716 430.59425 
L 279.60108 429.074183 
L 291.437443 428.669 
L 303.273807 429.679368 
L 315.11017 428.698361 
L 326.946534 430.157145 
L 338.782898 430.20165 
L 350.619261 430.543917 
L 362.455625 430.566795 
L 374.291989 428.93325 
L 386.128352 428.669 
L 397.964716 428.93325 
L 409.80108 429.339788 
L 421.637443 429.403028 
L 433.473807 429.15975 
L 445.31017 429.589319 
L 457.146534 429.56745 
L 468.982898 428.865056 
L 480.819261 429.527812 
L 492.655625 429.830098 
" style="fill:none;stroke:#08306b;stroke-linecap:square;stroke-width:1.5;"/>
   </g>
   <g id="line2d_19">
    <path clip-path="url(#p980518b6b1)" d="M 102.055625 433.16125 
L 113.891989 433.16125 
L 125.728352 424.70525 
L 137.564716 427.523917 
L 149.40108 432.63275 
L 161.237443 431.47005 
L 173.073807 431.399583 
L 184.91017 431.04725 
L 196.746534 431.04725 
L 208.582898 430.812361 
L 220.419261 429.77885 
L 232.255625 431.04725 
L 244.091989 430.342583 
L 255.928352 429.095865 
L 267.764716 430.29225 
L 279.60108 427.946717 
L 291.437443 430.51875 
L 303.273807 428.187132 
L 315.11017 429.050694 
L 326.946534 429.823355 
L 338.782898 428.29905 
L 350.619261 429.53725 
L 362.455625 428.548886 
L 374.291989 428.473685 
L 386.128352 427.964333 
L 397.964716 431.30093 
L 409.80108 428.201481 
L 421.637443 430.185991 
L 433.473807 430.14125 
L 445.31017 429.516422 
L 457.146534 429.919783 
L 468.982898 429.546992 
L 480.819261 428.801125 
L 492.655625 429.381674 
" style="fill:none;stroke:#08306b;stroke-linecap:square;stroke-width:1.5;"/>
   </g>
   <g id="line2d_20">
    <path clip-path="url(#p980518b6b1)" d="M 102.055625 433.16125 
L 113.891989 433.16125 
L 125.728352 433.16125 
L 137.564716 431.751917 
L 149.40108 432.10425 
L 161.237443 431.47005 
L 173.073807 427.523917 
L 184.91017 427.42325 
L 196.746534 428.93325 
L 208.582898 430.107694 
L 220.419261 426.60785 
L 232.255625 429.317614 
L 244.091989 428.580917 
L 255.928352 429.421096 
L 267.764716 428.48025 
L 279.60108 430.20165 
L 291.437443 429.99025 
L 303.273807 429.555015 
L 315.11017 429.637917 
L 326.946534 429.823355 
L 338.782898 430.20165 
L 350.619261 428.228583 
L 362.455625 428.068432 
L 374.291989 429.668554 
L 386.128352 428.845167 
L 397.964716 429.60973 
L 409.80108 429.339788 
L 421.637443 428.854954 
L 433.473807 430.06575 
L 445.31017 428.641664 
L 457.146534 430.765383 
L 468.982898 429.88796 
L 480.819261 430.122375 
L 492.655625 430.278523 
" style="fill:none;stroke:#08306b;stroke-linecap:square;stroke-width:1.5;"/>
   </g>
   <g id="line2d_21">
    <path clip-path="url(#p980518b6b1)" d="M 102.055625 433.16125 
L 113.891989 431.04725 
L 125.728352 426.81925 
L 137.564716 429.637917 
L 149.40108 427.34775 
L 161.237443 430.62445 
L 173.073807 428.580917 
L 184.91017 428.02725 
L 196.746534 428.669 
L 208.582898 427.054139 
L 220.419261 430.20165 
L 232.255625 430.086341 
L 244.091989 430.694917 
L 255.928352 427.794942 
L 267.764716 430.14125 
L 279.60108 431.04725 
L 291.437443 429.593875 
L 303.273807 429.306309 
L 315.11017 428.815806 
L 326.946534 428.93325 
L 338.782898 428.51045 
L 350.619261 429.83925 
L 362.455625 429.701977 
L 374.291989 430.036207 
L 386.128352 428.669 
L 397.964716 430.45533 
L 409.80108 428.770635 
L 421.637443 427.44562 
L 433.473807 430.36775 
L 445.31017 431.04725 
L 457.146534 429.426517 
L 468.982898 429.819766 
L 480.819261 429.263562 
L 492.655625 430.470705 
" style="fill:none;stroke:#08306b;stroke-linecap:square;stroke-width:1.5;"/>
   </g>
   <g id="line2d_22">
    <path clip-path="url(#p980518b6b1)" d="M 102.055625 433.16125 
L 113.891989 416.24925 
L 125.728352 431.04725 
L 137.564716 430.342583 
L 149.40108 428.93325 
L 161.237443 431.04725 
L 173.073807 431.751917 
L 184.91017 429.23525 
L 196.746534 431.04725 
L 208.582898 429.168139 
L 220.419261 426.60785 
L 232.255625 429.894159 
L 244.091989 427.34775 
L 255.928352 428.93325 
L 267.764716 430.14125 
L 279.60108 429.637917 
L 291.437443 429.329625 
L 303.273807 428.808897 
L 315.11017 428.111139 
L 326.946534 429.044513 
L 338.782898 429.46175 
L 350.619261 429.637917 
L 362.455625 430.758977 
L 374.291989 429.484728 
L 386.128352 429.373667 
L 397.964716 429.27149 
L 409.80108 429.827635 
L 421.637443 430.734065 
L 433.473807 428.63125 
L 445.31017 429.880905 
L 457.146534 430.41305 
L 468.982898 429.956153 
L 480.819261 429.858125 
L 492.655625 428.548886 
" style="fill:none;stroke:#08306b;stroke-linecap:square;stroke-width:1.5;"/>
   </g>
   <g id="line2d_23">
    <path clip-path="url(#p980518b6b1)" d="M 102.055625 433.16125 
L 113.891989 428.93325 
L 125.728352 428.93325 
L 137.564716 431.751917 
L 149.40108 431.04725 
L 161.237443 428.08765 
L 173.073807 429.99025 
L 184.91017 428.93325 
L 196.746534 428.40475 
L 208.582898 429.168139 
L 220.419261 429.35605 
L 232.255625 429.701977 
L 244.091989 430.342583 
L 255.928352 429.908942 
L 267.764716 429.68825 
L 279.60108 429.496983 
L 291.437443 430.2545 
L 303.273807 428.808897 
L 315.11017 430.225139 
L 326.946534 431.269776 
L 338.782898 429.67315 
L 350.619261 429.83925 
L 362.455625 428.356705 
L 374.291989 430.12812 
L 386.128352 427.700083 
L 397.964716 429.35605 
L 409.80108 430.396788 
L 421.637443 428.150287 
L 433.473807 430.14125 
L 445.31017 429.224836 
L 457.146534 429.708383 
L 468.982898 429.88796 
L 480.819261 428.1405 
L 492.655625 429.830098 
" style="fill:none;stroke:#08306b;stroke-linecap:square;stroke-width:1.5;"/>
   </g>
   <g id="line2d_24">
    <path clip-path="url(#p980518b6b1)" d="M 102.055625 433.16125 
L 113.891989 426.81925 
L 125.728352 431.04725 
L 137.564716 429.637917 
L 149.40108 429.46175 
L 161.237443 428.08765 
L 173.073807 428.580917 
L 184.91017 430.14125 
L 196.746534 428.669 
L 208.582898 428.93325 
L 220.419261 428.51045 
L 232.255625 429.894159 
L 244.091989 430.694917 
L 255.928352 429.258481 
L 267.764716 429.99025 
L 279.60108 429.919783 
L 291.437443 428.93325 
L 303.273807 428.808897 
L 315.11017 429.168139 
L 326.946534 427.931882 
L 338.782898 429.03895 
L 350.619261 429.53725 
L 362.455625 428.741068 
L 374.291989 430.863424 
L 386.128352 429.726 
L 397.964716 429.94797 
L 409.80108 428.770635 
L 421.637443 430.029398 
L 433.473807 429.46175 
L 445.31017 429.735112 
L 457.146534 429.496983 
L 468.982898 430.160734 
L 480.819261 428.801125 
L 492.655625 430.534765 
" style="fill:none;stroke:#4a98c9;stroke-linecap:square;stroke-width:1.5;"/>
   </g>
   <g id="line2d_25">
    <path clip-path="url(#p980518b6b1)" d="M 102.055625 433.16125 
L 113.891989 428.93325 
L 125.728352 432.10425 
L 137.564716 432.456583 
L 149.40108 428.40475 
L 161.237443 429.77885 
L 173.073807 428.580917 
L 184.91017 427.72525 
L 196.746534 430.2545 
L 208.582898 431.04725 
L 220.419261 430.41305 
L 232.255625 431.04725 
L 244.091989 426.466917 
L 255.928352 429.746327 
L 267.764716 427.42325 
L 279.60108 430.20165 
L 291.437443 428.93325 
L 303.273807 430.549838 
L 315.11017 429.872806 
L 326.946534 429.712092 
L 338.782898 429.14465 
L 350.619261 430.946583 
L 362.455625 429.317614 
L 374.291989 428.841337 
L 386.128352 430.166417 
L 397.964716 429.10237 
L 409.80108 428.364096 
L 421.637443 430.890657 
L 433.473807 429.91475 
L 445.31017 428.350078 
L 457.146534 429.003717 
L 468.982898 429.751573 
L 480.819261 429.659937 
L 492.655625 429.573856 
" style="fill:none;stroke:#4a98c9;stroke-linecap:square;stroke-width:1.5;"/>
   </g>
   <g id="line2d_26">
    <path clip-path="url(#p980518b6b1)" d="M 102.055625 433.16125 
L 113.891989 433.16125 
L 125.728352 426.81925 
L 137.564716 431.751917 
L 149.40108 429.99025 
L 161.237443 430.62445 
L 173.073807 432.10425 
L 184.91017 428.63125 
L 196.746534 428.1405 
L 208.582898 430.812361 
L 220.419261 429.35605 
L 232.255625 429.317614 
L 244.091989 427.523917 
L 255.928352 430.396788 
L 267.764716 430.44325 
L 279.60108 428.93325 
L 291.437443 429.329625 
L 303.273807 428.187132 
L 315.11017 428.815806 
L 326.946534 429.155776 
L 338.782898 430.20165 
L 350.619261 429.53725 
L 362.455625 428.93325 
L 374.291989 429.300902 
L 386.128352 429.726 
L 397.964716 430.96269 
L 409.80108 429.014558 
L 421.637443 430.107694 
L 433.473807 429.91475 
L 445.31017 428.568767 
L 457.146534 429.215117 
L 468.982898 429.751573 
L 480.819261 429.065375 
L 492.655625 430.086341 
" style="fill:none;stroke:#4a98c9;stroke-linecap:square;stroke-width:1.5;"/>
   </g>
   <g id="line2d_27">
    <path clip-path="url(#p980518b6b1)" d="M 102.055625 433.16125 
L 113.891989 433.16125 
L 125.728352 431.04725 
L 137.564716 431.751917 
L 149.40108 426.29075 
L 161.237443 427.24205 
L 173.073807 428.93325 
L 184.91017 427.72525 
L 196.746534 430.2545 
L 208.582898 429.637917 
L 220.419261 431.68145 
L 232.255625 430.855068 
L 244.091989 426.995417 
L 255.928352 430.396788 
L 267.764716 429.83925 
L 279.60108 429.496983 
L 291.437443 428.93325 
L 303.273807 430.052426 
L 315.11017 429.520472 
L 326.946534 430.268408 
L 338.782898 429.88455 
L 350.619261 430.644583 
L 362.455625 428.93325 
L 374.291989 429.300902 
L 386.128352 430.430667 
L 397.964716 430.28621 
L 409.80108 429.177173 
L 421.637443 428.93325 
L 433.473807 429.76375 
L 445.31017 428.568767 
L 457.146534 429.849317 
L 468.982898 428.865056 
L 480.819261 429.329625 
L 492.655625 429.125432 
" style="fill:none;stroke:#4a98c9;stroke-linecap:square;stroke-width:1.5;"/>
   </g>
   <g id="line2d_28">
    <path clip-path="url(#p980518b6b1)" d="M 102.055625 433.16125 
L 113.891989 431.04725 
L 125.728352 422.59125 
L 137.564716 428.93325 
L 149.40108 431.57575 
L 161.237443 429.77885 
L 173.073807 428.580917 
L 184.91017 430.74525 
L 196.746534 431.3115 
L 208.582898 431.282139 
L 220.419261 428.51045 
L 232.255625 428.93325 
L 244.091989 429.99025 
L 255.928352 429.583712 
L 267.764716 429.68825 
L 279.60108 428.08765 
L 291.437443 429.329625 
L 303.273807 429.555015 
L 315.11017 429.403028 
L 326.946534 430.268408 
L 338.782898 429.88455 
L 350.619261 430.644583 
L 362.455625 430.086341 
L 374.291989 429.85238 
L 386.128352 428.669 
L 397.964716 428.67957 
L 409.80108 429.014558 
L 421.637443 429.246435 
L 433.473807 428.85775 
L 445.31017 429.735112 
L 457.146534 429.708383 
L 468.982898 428.865056 
L 480.819261 430.122375 
L 492.655625 429.253553 
" style="fill:none;stroke:#4a98c9;stroke-linecap:square;stroke-width:1.5;"/>
   </g>
   <g id="line2d_29">
    <path clip-path="url(#p980518b6b1)" d="M 102.055625 433.16125 
L 113.891989 431.04725 
L 125.728352 424.70525 
L 137.564716 429.637917 
L 149.40108 432.63275 
L 161.237443 431.89285 
L 173.073807 431.04725 
L 184.91017 430.74525 
L 196.746534 430.783 
L 208.582898 430.812361 
L 220.419261 429.56745 
L 232.255625 430.470705 
L 244.091989 430.166417 
L 255.928352 429.908942 
L 267.764716 430.59425 
L 279.60108 428.369517 
L 291.437443 429.593875 
L 303.273807 428.435838 
L 315.11017 429.755361 
L 326.946534 429.489566 
L 338.782898 428.19335 
L 350.619261 429.53725 
L 362.455625 429.509795 
L 374.291989 429.208989 
L 386.128352 426.81925 
L 397.964716 430.87813 
L 409.80108 428.851942 
L 421.637443 429.716213 
L 433.473807 429.91475 
L 445.31017 428.787457 
L 457.146534 430.553983 
L 468.982898 429.478798 
L 480.819261 428.735062 
L 492.655625 429.701977 
" style="fill:none;stroke:#4a98c9;stroke-linecap:square;stroke-width:1.5;"/>
   </g>
   <g id="line2d_30">
    <path clip-path="url(#p980518b6b1)" d="M 102.055625 433.16125 
L 113.891989 433.16125 
L 125.728352 433.16125 
L 137.564716 433.16125 
L 149.40108 430.51875 
L 161.237443 430.62445 
L 173.073807 427.523917 
L 184.91017 427.42325 
L 196.746534 429.46175 
L 208.582898 430.107694 
L 220.419261 427.66485 
L 232.255625 428.741068 
L 244.091989 428.052417 
L 255.928352 429.746327 
L 267.764716 429.23525 
L 279.60108 429.77885 
L 291.437443 429.99025 
L 303.273807 428.560191 
L 315.11017 429.755361 
L 326.946534 430.045882 
L 338.782898 430.09595 
L 350.619261 428.63125 
L 362.455625 429.125432 
L 374.291989 428.473685 
L 386.128352 429.285583 
L 397.964716 430.28621 
L 409.80108 429.258481 
L 421.637443 429.246435 
L 433.473807 429.61275 
L 445.31017 428.568767 
L 457.146534 430.553983 
L 468.982898 430.433508 
L 480.819261 429.924187 
L 492.655625 430.150402 
" style="fill:none;stroke:#4a98c9;stroke-linecap:square;stroke-width:1.5;"/>
   </g>
   <g id="line2d_31">
    <path clip-path="url(#p980518b6b1)" d="M 102.055625 433.16125 
L 113.891989 431.04725 
L 125.728352 424.70525 
L 137.564716 430.342583 
L 149.40108 428.40475 
L 161.237443 428.93325 
L 173.073807 428.93325 
L 184.91017 428.32925 
L 196.746534 429.99025 
L 208.582898 426.81925 
L 220.419261 429.99025 
L 232.255625 429.894159 
L 244.091989 430.166417 
L 255.928352 428.120173 
L 267.764716 429.23525 
L 279.60108 431.329117 
L 291.437443 429.1975 
L 303.273807 428.93325 
L 315.11017 428.93325 
L 326.946534 428.93325 
L 338.782898 428.72185 
L 350.619261 429.637917 
L 362.455625 429.605886 
L 374.291989 430.036207 
L 386.128352 429.373667 
L 397.964716 430.20165 
L 409.80108 429.014558 
L 421.637443 427.993694 
L 433.473807 430.36775 
L 445.31017 430.318284 
L 457.146534 429.708383 
L 468.982898 429.615185 
L 480.819261 429.858125 
L 492.655625 430.598826 
" style="fill:none;stroke:#4a98c9;stroke-linecap:square;stroke-width:1.5;"/>
   </g>
   <g id="line2d_32">
    <path clip-path="url(#p980518b6b1)" d="M 102.055625 433.16125 
L 113.891989 420.47725 
L 125.728352 431.04725 
L 137.564716 431.04725 
L 149.40108 429.46175 
L 161.237443 428.93325 
L 173.073807 431.399583 
L 184.91017 431.34925 
L 196.746534 429.726 
L 208.582898 429.872806 
L 220.419261 425.55085 
L 232.255625 429.125432 
L 244.091989 428.228583 
L 255.928352 429.095865 
L 267.764716 429.99025 
L 279.60108 430.060717 
L 291.437443 428.93325 
L 303.273807 428.187132 
L 315.11017 429.168139 
L 326.946534 428.821987 
L 338.782898 429.03895 
L 350.619261 429.53725 
L 362.455625 429.99025 
L 374.291989 430.771511 
L 386.128352 429.549833 
L 397.964716 427.58029 
L 409.80108 430.152865 
L 421.637443 430.107694 
L 433.473807 430.21675 
L 445.31017 429.516422 
L 457.146534 431.25865 
L 468.982898 430.024347 
L 480.819261 429.593875 
L 492.655625 428.484826 
" style="fill:none;stroke:#4a98c9;stroke-linecap:square;stroke-width:1.5;"/>
   </g>
   <g id="line2d_33">
    <path clip-path="url(#p980518b6b1)" d="M 102.055625 433.16125 
L 113.891989 431.04725 
L 125.728352 428.93325 
L 137.564716 431.04725 
L 149.40108 429.99025 
L 161.237443 429.35605 
L 173.073807 429.99025 
L 184.91017 428.02725 
L 196.746534 428.669 
L 208.582898 428.698361 
L 220.419261 429.99025 
L 232.255625 430.278523 
L 244.091989 429.46175 
L 255.928352 430.071558 
L 267.764716 429.23525 
L 279.60108 429.919783 
L 291.437443 430.386625 
L 303.273807 428.560191 
L 315.11017 429.520472 
L 326.946534 431.269776 
L 338.782898 429.99025 
L 350.619261 429.436583 
L 362.455625 428.452795 
L 374.291989 429.760467 
L 386.128352 428.93325 
L 397.964716 429.10237 
L 409.80108 429.665019 
L 421.637443 428.385176 
L 433.473807 430.06575 
L 445.31017 429.808009 
L 457.146534 429.637917 
L 468.982898 429.956153 
L 480.819261 428.801125 
L 492.655625 429.509795 
" style="fill:none;stroke:#4a98c9;stroke-linecap:square;stroke-width:1.5;"/>
   </g>
   <g id="line2d_34">
    <path clip-path="url(#p980518b6b1)" d="M 102.055625 433.16125 
L 113.891989 428.93325 
L 125.728352 429.99025 
L 137.564716 431.751917 
L 149.40108 431.57575 
L 161.237443 428.08765 
L 173.073807 426.466917 
L 184.91017 429.23525 
L 196.746534 428.93325 
L 208.582898 428.93325 
L 220.419261 429.35605 
L 232.255625 430.278523 
L 244.091989 429.814083 
L 255.928352 430.396788 
L 267.764716 429.23525 
L 279.60108 430.906317 
L 291.437443 429.858125 
L 303.273807 428.311485 
L 315.11017 429.050694 
L 326.946534 428.93325 
L 338.782898 427.87625 
L 350.619261 429.637917 
L 362.455625 429.509795 
L 374.291989 430.587685 
L 386.128352 429.373667 
L 397.964716 430.28621 
L 409.80108 429.665019 
L 421.637443 429.794509 
L 433.473807 429.38625 
L 445.31017 429.662216 
L 457.146534 429.708383 
L 468.982898 430.160734 
L 480.819261 429.527812 
L 492.655625 429.637917 
" style="fill:none;stroke:#d0e1f2;stroke-linecap:square;stroke-width:1.5;"/>
   </g>
   <g id="line2d_35">
    <path clip-path="url(#p980518b6b1)" d="M 102.055625 433.16125 
L 113.891989 428.93325 
L 125.728352 432.10425 
L 137.564716 429.637917 
L 149.40108 429.46175 
L 161.237443 431.04725 
L 173.073807 428.228583 
L 184.91017 428.63125 
L 196.746534 430.783 
L 208.582898 431.04725 
L 220.419261 430.83585 
L 232.255625 430.278523 
L 244.091989 427.700083 
L 255.928352 428.120173 
L 267.764716 429.08425 
L 279.60108 430.060717 
L 291.437443 429.99025 
L 303.273807 430.052426 
L 315.11017 429.285583 
L 326.946534 428.599461 
L 338.782898 429.99025 
L 350.619261 430.74525 
L 362.455625 429.701977 
L 374.291989 428.749424 
L 386.128352 430.871083 
L 397.964716 429.01781 
L 409.80108 428.445404 
L 421.637443 430.029398 
L 433.473807 430.06575 
L 445.31017 429.370629 
L 457.146534 428.580917 
L 468.982898 429.478798 
L 480.819261 429.726 
L 492.655625 429.830098 
" style="fill:none;stroke:#d0e1f2;stroke-linecap:square;stroke-width:1.5;"/>
   </g>
   <g id="line2d_36">
    <path clip-path="url(#p980518b6b1)" d="M 102.055625 433.16125 
L 113.891989 433.16125 
L 125.728352 428.93325 
L 137.564716 431.751917 
L 149.40108 430.51875 
L 161.237443 430.62445 
L 173.073807 430.342583 
L 184.91017 429.83925 
L 196.746534 429.46175 
L 208.582898 430.812361 
L 220.419261 428.72185 
L 232.255625 428.93325 
L 244.091989 428.228583 
L 255.928352 429.908942 
L 267.764716 430.14125 
L 279.60108 429.215117 
L 291.437443 428.93325 
L 303.273807 427.938426 
L 315.11017 429.520472 
L 326.946534 428.710724 
L 338.782898 430.73015 
L 350.619261 429.939917 
L 362.455625 428.644977 
L 374.291989 429.85238 
L 386.128352 429.902167 
L 397.964716 431.21637 
L 409.80108 428.364096 
L 421.637443 429.403028 
L 433.473807 430.14125 
L 445.31017 429.006147 
L 457.146534 428.72185 
L 468.982898 429.342411 
L 480.819261 429.46175 
L 492.655625 430.214462 
" style="fill:none;stroke:#d0e1f2;stroke-linecap:square;stroke-width:1.5;"/>
   </g>
   <g id="line2d_37">
    <path clip-path="url(#p980518b6b1)" d="M 102.055625 433.16125 
L 113.891989 431.04725 
L 125.728352 429.99025 
L 137.564716 429.637917 
L 149.40108 427.87625 
L 161.237443 428.08765 
L 173.073807 428.580917 
L 184.91017 427.12125 
L 196.746534 429.726 
L 208.582898 429.403028 
L 220.419261 431.04725 
L 232.255625 431.04725 
L 244.091989 427.87625 
L 255.928352 430.396788 
L 267.764716 429.23525 
L 279.60108 429.77885 
L 291.437443 429.065375 
L 303.273807 430.052426 
L 315.11017 429.168139 
L 326.946534 430.713461 
L 338.782898 429.56745 
L 350.619261 430.44325 
L 362.455625 430.470705 
L 374.291989 429.576641 
L 386.128352 429.285583 
L 397.964716 430.45533 
L 409.80108 430.478096 
L 421.637443 428.854954 
L 433.473807 428.70675 
L 445.31017 428.495871 
L 457.146534 429.849317 
L 468.982898 428.524089 
L 480.819261 429.593875 
L 492.655625 429.253553 
" style="fill:none;stroke:#d0e1f2;stroke-linecap:square;stroke-width:1.5;"/>
   </g>
   <g id="line2d_38">
    <path clip-path="url(#p980518b6b1)" d="M 102.055625 433.16125 
L 113.891989 431.04725 
L 125.728352 422.59125 
L 137.564716 427.523917 
L 149.40108 431.57575 
L 161.237443 428.93325 
L 173.073807 427.87625 
L 184.91017 431.95325 
L 196.746534 429.99025 
L 208.582898 431.751917 
L 220.419261 428.93325 
L 232.255625 429.317614 
L 244.091989 430.342583 
L 255.928352 428.770635 
L 267.764716 430.29225 
L 279.60108 429.496983 
L 291.437443 427.215625 
L 303.273807 429.306309 
L 315.11017 430.107694 
L 326.946534 430.490934 
L 338.782898 430.09595 
L 350.619261 430.946583 
L 362.455625 429.798068 
L 374.291989 428.841337 
L 386.128352 428.052417 
L 397.964716 429.35605 
L 409.80108 428.93325 
L 421.637443 429.716213 
L 433.473807 429.00875 
L 445.31017 430.026698 
L 457.146534 429.919783 
L 468.982898 429.683379 
L 480.819261 429.46175 
L 492.655625 429.381674 
" style="fill:none;stroke:#d0e1f2;stroke-linecap:square;stroke-width:1.5;"/>
   </g>
   <g id="line2d_39">
    <path clip-path="url(#p980518b6b1)" d="M 102.055625 433.16125 
L 113.891989 433.16125 
L 125.728352 423.64825 
L 137.564716 428.228583 
L 149.40108 433.16125 
L 161.237443 432.31565 
L 173.073807 429.99025 
L 184.91017 431.65125 
L 196.746534 431.04725 
L 208.582898 430.812361 
L 220.419261 430.83585 
L 232.255625 429.894159 
L 244.091989 430.342583 
L 255.928352 429.095865 
L 267.764716 430.29225 
L 279.60108 429.35605 
L 291.437443 429.1975 
L 303.273807 428.93325 
L 315.11017 429.99025 
L 326.946534 429.267039 
L 338.782898 427.98195 
L 350.619261 429.23525 
L 362.455625 428.93325 
L 374.291989 429.668554 
L 386.128352 427.259667 
L 397.964716 430.28621 
L 409.80108 428.770635 
L 421.637443 429.637917 
L 433.473807 429.38625 
L 445.31017 429.589319 
L 457.146534 430.906317 
L 468.982898 429.819766 
L 480.819261 428.735062 
L 492.655625 429.573856 
" style="fill:none;stroke:#d0e1f2;stroke-linecap:square;stroke-width:1.5;"/>
   </g>
   <g id="line2d_40">
    <path clip-path="url(#p980518b6b1)" d="M 102.055625 433.16125 
L 113.891989 433.16125 
L 125.728352 433.16125 
L 137.564716 432.456583 
L 149.40108 431.04725 
L 161.237443 431.04725 
L 173.073807 427.87625 
L 184.91017 427.72525 
L 196.746534 428.669 
L 208.582898 430.342583 
L 220.419261 428.08765 
L 232.255625 429.317614 
L 244.091989 428.580917 
L 255.928352 428.445404 
L 267.764716 428.48025 
L 279.60108 431.329117 
L 291.437443 430.51875 
L 303.273807 428.560191 
L 315.11017 429.755361 
L 326.946534 429.489566 
L 338.782898 431.04725 
L 350.619261 428.127917 
L 362.455625 428.644977 
L 374.291989 429.484728 
L 386.128352 429.1975 
L 397.964716 429.77885 
L 409.80108 429.583712 
L 421.637443 428.463472 
L 433.473807 429.99025 
L 445.31017 428.641664 
L 457.146534 430.41305 
L 468.982898 430.638089 
L 480.819261 430.386625 
L 492.655625 430.086341 
" style="fill:none;stroke:#d0e1f2;stroke-linecap:square;stroke-width:1.5;"/>
   </g>
   <g id="line2d_41">
    <path clip-path="url(#p980518b6b1)" d="M 102.055625 433.16125 
L 113.891989 433.16125 
L 125.728352 426.81925 
L 137.564716 430.342583 
L 149.40108 427.87625 
L 161.237443 431.47005 
L 173.073807 428.580917 
L 184.91017 427.72525 
L 196.746534 428.669 
L 208.582898 427.289028 
L 220.419261 431.25865 
L 232.255625 428.356705 
L 244.091989 431.04725 
L 255.928352 429.258481 
L 267.764716 428.93325 
L 279.60108 431.329117 
L 291.437443 428.93325 
L 303.273807 428.93325 
L 315.11017 429.050694 
L 326.946534 428.821987 
L 338.782898 428.51045 
L 350.619261 429.738583 
L 362.455625 429.99025 
L 374.291989 430.403859 
L 386.128352 428.228583 
L 397.964716 430.28621 
L 409.80108 428.770635 
L 421.637443 428.385176 
L 433.473807 430.66975 
L 445.31017 430.974353 
L 457.146534 429.426517 
L 468.982898 429.615185 
L 480.819261 429.395687 
L 492.655625 430.470705 
" style="fill:none;stroke:#d0e1f2;stroke-linecap:square;stroke-width:1.5;"/>
   </g>
   <g id="line2d_42">
    <path clip-path="url(#p980518b6b1)" d="M 102.055625 433.16125 
L 113.891989 418.36325 
L 125.728352 429.99025 
L 137.564716 430.342583 
L 149.40108 429.99025 
L 161.237443 430.20165 
L 173.073807 430.694917 
L 184.91017 431.65125 
L 196.746534 429.46175 
L 208.582898 429.168139 
L 220.419261 425.97365 
L 232.255625 430.086341 
L 244.091989 427.171583 
L 255.928352 429.908942 
L 267.764716 429.53725 
L 279.60108 430.62445 
L 291.437443 428.536875 
L 303.273807 428.93325 
L 315.11017 429.403028 
L 326.946534 428.93325 
L 338.782898 428.51045 
L 350.619261 429.738583 
L 362.455625 430.086341 
L 374.291989 430.955337 
L 386.128352 429.46175 
L 397.964716 428.76413 
L 409.80108 429.339788 
L 421.637443 430.264287 
L 433.473807 429.83925 
L 445.31017 429.370629 
L 457.146534 431.399583 
L 468.982898 429.274218 
L 480.819261 429.792062 
L 492.655625 428.997311 
" style="fill:none;stroke:#d0e1f2;stroke-linecap:square;stroke-width:1.5;"/>
   </g>
   <g id="line2d_43">
    <path clip-path="url(#p980518b6b1)" d="M 102.055625 433.16125 
L 113.891989 426.81925 
L 125.728352 428.93325 
L 137.564716 431.04725 
L 149.40108 431.04725 
L 161.237443 429.35605 
L 173.073807 429.285583 
L 184.91017 429.83925 
L 196.746534 427.612 
L 208.582898 429.168139 
L 220.419261 430.20165 
L 232.255625 429.894159 
L 244.091989 429.637917 
L 255.928352 429.746327 
L 267.764716 429.23525 
L 279.60108 429.35605 
L 291.437443 430.915125 
L 303.273807 429.679368 
L 315.11017 429.637917 
L 326.946534 430.490934 
L 338.782898 430.62445 
L 350.619261 429.53725 
L 362.455625 427.87625 
L 374.291989 429.576641 
L 386.128352 429.99025 
L 397.964716 429.60973 
L 409.80108 429.258481 
L 421.637443 428.698361 
L 433.473807 429.61275 
L 445.31017 429.516422 
L 457.146534 429.56745 
L 468.982898 429.88796 
L 480.819261 428.272625 
L 492.655625 430.086341 
" style="fill:none;stroke:#d0e1f2;stroke-linecap:square;stroke-width:1.5;"/>
   </g>
   <g id="line2d_44">
    <path clip-path="url(#p980518b6b1)" d="M 102.055625 433.16125 
L 113.891989 426.81925 
L 125.728352 431.04725 
L 137.564716 428.93325 
L 149.40108 428.40475 
L 161.237443 429.77885 
L 173.073807 428.228583 
L 184.91017 429.83925 
L 196.746534 427.612 
L 208.582898 429.637917 
L 220.419261 429.35605 
L 232.255625 430.470705 
L 244.091989 430.51875 
L 255.928352 429.583712 
L 267.764716 428.93325 
L 279.60108 430.62445 
L 291.437443 428.536875 
L 303.273807 430.301132 
L 315.11017 428.346028 
L 326.946534 427.709355 
L 338.782898 429.03895 
L 350.619261 428.93325 
L 362.455625 428.93325 
L 374.291989 430.679598 
L 386.128352 429.285583 
L 397.964716 430.53989 
L 409.80108 429.258481 
L 421.637443 430.655769 
L 433.473807 429.23525 
L 445.31017 429.808009 
L 457.146534 429.496983 
L 468.982898 429.956153 
L 480.819261 429.1975 
L 492.655625 429.509795 
" style="fill:none;stroke:#1764ab;stroke-linecap:square;stroke-width:1.5;"/>
   </g>
   <g id="line2d_45">
    <path clip-path="url(#p980518b6b1)" d="M 102.055625 433.16125 
L 113.891989 428.93325 
L 125.728352 431.04725 
L 137.564716 432.456583 
L 149.40108 428.40475 
L 161.237443 430.62445 
L 173.073807 428.228583 
L 184.91017 428.02725 
L 196.746534 429.99025 
L 208.582898 431.04725 
L 220.419261 430.83585 
L 232.255625 429.509795 
L 244.091989 427.87625 
L 255.928352 428.445404 
L 267.764716 428.02725 
L 279.60108 429.919783 
L 291.437443 429.065375 
L 303.273807 430.922897 
L 315.11017 429.872806 
L 326.946534 429.600829 
L 338.782898 429.46175 
L 350.619261 430.14125 
L 362.455625 429.509795 
L 374.291989 428.749424 
L 386.128352 430.166417 
L 397.964716 429.60973 
L 409.80108 427.87625 
L 421.637443 430.655769 
L 433.473807 430.14125 
L 445.31017 428.641664 
L 457.146534 429.426517 
L 468.982898 429.615185 
L 480.819261 429.065375 
L 492.655625 430.150402 
" style="fill:none;stroke:#1764ab;stroke-linecap:square;stroke-width:1.5;"/>
   </g>
   <g id="line2d_46">
    <path clip-path="url(#p980518b6b1)" d="M 102.055625 433.16125 
L 113.891989 433.16125 
L 125.728352 425.76225 
L 137.564716 431.04725 
L 149.40108 430.51875 
L 161.237443 431.47005 
L 173.073807 431.399583 
L 184.91017 429.83925 
L 196.746534 428.669 
L 208.582898 429.872806 
L 220.419261 429.77885 
L 232.255625 429.894159 
L 244.091989 427.34775 
L 255.928352 429.746327 
L 267.764716 429.99025 
L 279.60108 429.35605 
L 291.437443 429.1975 
L 303.273807 429.057603 
L 315.11017 428.111139 
L 326.946534 429.044513 
L 338.782898 431.04725 
L 350.619261 429.939917 
L 362.455625 428.452795 
L 374.291989 428.93325 
L 386.128352 429.726 
L 397.964716 431.30093 
L 409.80108 428.689327 
L 421.637443 430.029398 
L 433.473807 429.46175 
L 445.31017 429.079043 
L 457.146534 428.51045 
L 468.982898 430.160734 
L 480.819261 429.1975 
L 492.655625 429.95822 
" style="fill:none;stroke:#1764ab;stroke-linecap:square;stroke-width:1.5;"/>
   </g>
   <g id="line2d_47">
    <path clip-path="url(#p980518b6b1)" d="M 102.055625 433.16125 
L 113.891989 433.16125 
L 125.728352 427.87625 
L 137.564716 430.342583 
L 149.40108 428.93325 
L 161.237443 426.39645 
L 173.073807 428.93325 
L 184.91017 428.32925 
L 196.746534 429.46175 
L 208.582898 428.93325 
L 220.419261 431.89285 
L 232.255625 430.278523 
L 244.091989 428.580917 
L 255.928352 429.583712 
L 267.764716 430.29225 
L 279.60108 429.919783 
L 291.437443 428.40475 
L 303.273807 429.430662 
L 315.11017 429.872806 
L 326.946534 430.157145 
L 338.782898 429.99025 
L 350.619261 430.44325 
L 362.455625 429.99025 
L 374.291989 428.841337 
L 386.128352 429.902167 
L 397.964716 430.28621 
L 409.80108 429.827635 
L 421.637443 429.011546 
L 433.473807 429.00875 
L 445.31017 428.71456 
L 457.146534 429.496983 
L 468.982898 429.206024 
L 480.819261 429.46175 
L 492.655625 428.741068 
" style="fill:none;stroke:#1764ab;stroke-linecap:square;stroke-width:1.5;"/>
   </g>
   <g id="line2d_48">
    <path clip-path="url(#p980518b6b1)" d="M 102.055625 433.16125 
L 113.891989 428.93325 
L 125.728352 423.64825 
L 137.564716 426.81925 
L 149.40108 432.63275 
L 161.237443 429.77885 
L 173.073807 426.81925 
L 184.91017 431.04725 
L 196.746534 430.51875 
L 208.582898 431.517028 
L 220.419261 429.56745 
L 232.255625 429.125432 
L 244.091989 429.814083 
L 255.928352 429.421096 
L 267.764716 429.53725 
L 279.60108 428.93325 
L 291.437443 428.93325 
L 303.273807 429.679368 
L 315.11017 429.520472 
L 326.946534 429.823355 
L 338.782898 430.09595 
L 350.619261 430.74525 
L 362.455625 429.605886 
L 374.291989 429.392815 
L 386.128352 428.669 
L 397.964716 428.34133 
L 409.80108 428.770635 
L 421.637443 430.342583 
L 433.473807 429.38625 
L 445.31017 429.15194 
L 457.146534 430.131183 
L 468.982898 429.410605 
L 480.819261 429.527812 
L 492.655625 429.317614 
" style="fill:none;stroke:#1764ab;stroke-linecap:square;stroke-width:1.5;"/>
   </g>
   <g id="line2d_49">
    <path clip-path="url(#p980518b6b1)" d="M 102.055625 433.16125 
L 113.891989 433.16125 
L 125.728352 425.76225 
L 137.564716 425.409917 
L 149.40108 433.16125 
L 161.237443 431.89285 
L 173.073807 431.751917 
L 184.91017 431.65125 
L 196.746534 431.04725 
L 208.582898 430.577472 
L 220.419261 429.35605 
L 232.255625 430.662886 
L 244.091989 430.342583 
L 255.928352 429.421096 
L 267.764716 429.68825 
L 279.60108 429.77885 
L 291.437443 428.93325 
L 303.273807 428.187132 
L 315.11017 429.755361 
L 326.946534 428.821987 
L 338.782898 428.61615 
L 350.619261 429.23525 
L 362.455625 429.701977 
L 374.291989 428.749424 
L 386.128352 428.1405 
L 397.964716 430.20165 
L 409.80108 428.526712 
L 421.637443 429.716213 
L 433.473807 430.29225 
L 445.31017 429.006147 
L 457.146534 429.708383 
L 468.982898 429.751573 
L 480.819261 428.801125 
L 492.655625 429.637917 
" style="fill:none;stroke:#1764ab;stroke-linecap:square;stroke-width:1.5;"/>
   </g>
   <g id="line2d_50">
    <path clip-path="url(#p980518b6b1)" d="M 102.055625 433.16125 
L 113.891989 433.16125 
L 125.728352 433.16125 
L 137.564716 431.751917 
L 149.40108 431.57575 
L 161.237443 430.62445 
L 173.073807 428.228583 
L 184.91017 427.42325 
L 196.746534 428.1405 
L 208.582898 428.463472 
L 220.419261 428.72185 
L 232.255625 429.125432 
L 244.091989 429.285583 
L 255.928352 428.608019 
L 267.764716 429.38625 
L 279.60108 430.342583 
L 291.437443 429.1975 
L 303.273807 429.803721 
L 315.11017 429.168139 
L 326.946534 430.157145 
L 338.782898 429.88455 
L 350.619261 429.23525 
L 362.455625 428.164523 
L 374.291989 429.025163 
L 386.128352 429.1975 
L 397.964716 428.93325 
L 409.80108 429.502404 
L 421.637443 429.403028 
L 433.473807 430.51875 
L 445.31017 428.495871 
L 457.146534 429.849317 
L 468.982898 430.365315 
L 480.819261 430.320562 
L 492.655625 430.214462 
" style="fill:none;stroke:#1764ab;stroke-linecap:square;stroke-width:1.5;"/>
   </g>
   <g id="line2d_51">
    <path clip-path="url(#p980518b6b1)" d="M 102.055625 433.16125 
L 113.891989 431.04725 
L 125.728352 425.76225 
L 137.564716 428.93325 
L 149.40108 427.87625 
L 161.237443 430.62445 
L 173.073807 427.87625 
L 184.91017 428.32925 
L 196.746534 429.99025 
L 208.582898 427.289028 
L 220.419261 430.41305 
L 232.255625 428.93325 
L 244.091989 431.57575 
L 255.928352 427.794942 
L 267.764716 430.44325 
L 279.60108 429.637917 
L 291.437443 429.1975 
L 303.273807 429.679368 
L 315.11017 428.93325 
L 326.946534 427.820618 
L 338.782898 430.09595 
L 350.619261 430.14125 
L 362.455625 429.317614 
L 374.291989 429.484728 
L 386.128352 428.93325 
L 397.964716 429.77885 
L 409.80108 428.526712 
L 421.637443 429.403028 
L 433.473807 430.66975 
L 445.31017 430.245388 
L 457.146534 429.285583 
L 468.982898 429.274218 
L 480.819261 429.395687 
L 492.655625 430.791008 
" style="fill:none;stroke:#1764ab;stroke-linecap:square;stroke-width:1.5;"/>
   </g>
   <g id="line2d_52">
    <path clip-path="url(#p980518b6b1)" d="M 102.055625 433.16125 
L 113.891989 422.59125 
L 125.728352 431.04725 
L 137.564716 430.342583 
L 149.40108 427.87625 
L 161.237443 431.04725 
L 173.073807 432.10425 
L 184.91017 429.83925 
L 196.746534 429.46175 
L 208.582898 429.637917 
L 220.419261 427.87625 
L 232.255625 428.93325 
L 244.091989 426.643083 
L 255.928352 429.746327 
L 267.764716 428.93325 
L 279.60108 430.483517 
L 291.437443 428.93325 
L 303.273807 429.181956 
L 315.11017 428.346028 
L 326.946534 429.267039 
L 338.782898 428.29905 
L 350.619261 429.83925 
L 362.455625 430.278523 
L 374.291989 430.220033 
L 386.128352 428.845167 
L 397.964716 429.35605 
L 409.80108 429.665019 
L 421.637443 430.107694 
L 433.473807 429.61275 
L 445.31017 429.516422 
L 457.146534 431.329117 
L 468.982898 429.751573 
L 480.819261 429.593875 
L 492.655625 428.741068 
" style="fill:none;stroke:#1764ab;stroke-linecap:square;stroke-width:1.5;"/>
   </g>
   <g id="line2d_53">
    <path clip-path="url(#p980518b6b1)" d="M 102.055625 433.16125 
L 113.891989 431.04725 
L 125.728352 428.93325 
L 137.564716 431.04725 
L 149.40108 431.04725 
L 161.237443 428.08765 
L 173.073807 430.342583 
L 184.91017 427.42325 
L 196.746534 428.669 
L 208.582898 427.758806 
L 220.419261 430.83585 
L 232.255625 430.086341 
L 244.091989 430.342583 
L 255.928352 429.095865 
L 267.764716 429.53725 
L 279.60108 429.35605 
L 291.437443 430.783 
L 303.273807 429.555015 
L 315.11017 429.637917 
L 326.946534 430.713461 
L 338.782898 429.77885 
L 350.619261 428.93325 
L 362.455625 427.972341 
L 374.291989 429.668554 
L 386.128352 429.637917 
L 397.964716 429.94797 
L 409.80108 429.665019 
L 421.637443 428.93325 
L 433.473807 428.78225 
L 445.31017 429.516422 
L 457.146534 429.35605 
L 468.982898 431.04725 
L 480.819261 428.93325 
L 492.655625 428.805129 
" style="fill:none;stroke:#1764ab;stroke-linecap:square;stroke-width:1.5;"/>
   </g>
   <g id="line2d_54">
    <path clip-path="url(#p980518b6b1)" d="M 102.055625 433.16125 
L 113.891989 428.93325 
L 125.728352 429.99025 
L 137.564716 431.04725 
L 149.40108 429.46175 
L 161.237443 427.66485 
L 173.073807 428.228583 
L 184.91017 428.93325 
L 196.746534 427.87625 
L 208.582898 429.168139 
L 220.419261 428.93325 
L 232.255625 429.894159 
L 244.091989 430.694917 
L 255.928352 429.746327 
L 267.764716 429.68825 
L 279.60108 429.35605 
L 291.437443 430.2545 
L 303.273807 429.181956 
L 315.11017 428.463472 
L 326.946534 428.488197 
L 338.782898 428.93325 
L 350.619261 429.436583 
L 362.455625 429.029341 
L 374.291989 430.495772 
L 386.128352 429.637917 
L 397.964716 429.52517 
L 409.80108 430.234173 
L 421.637443 429.951102 
L 433.473807 429.31075 
L 445.31017 429.953802 
L 457.146534 429.919783 
L 468.982898 430.160734 
L 480.819261 429.1975 
L 492.655625 429.381674 
" style="fill:none;stroke:#94c4df;stroke-linecap:square;stroke-width:1.5;"/>
   </g>
   <g id="line2d_55">
    <path clip-path="url(#p980518b6b1)" d="M 102.055625 433.16125 
L 113.891989 428.93325 
L 125.728352 431.04725 
L 137.564716 431.04725 
L 149.40108 429.99025 
L 161.237443 428.93325 
L 173.073807 428.93325 
L 184.91017 428.93325 
L 196.746534 429.46175 
L 208.582898 430.107694 
L 220.419261 430.62445 
L 232.255625 430.855068 
L 244.091989 428.580917 
L 255.928352 426.81925 
L 267.764716 428.48025 
L 279.60108 429.496983 
L 291.437443 429.726 
L 303.273807 430.922897 
L 315.11017 429.168139 
L 326.946534 430.045882 
L 338.782898 429.88455 
L 350.619261 430.241917 
L 362.455625 428.548886 
L 374.291989 428.93325 
L 386.128352 431.399583 
L 397.964716 429.52517 
L 409.80108 427.469712 
L 421.637443 430.499176 
L 433.473807 430.51875 
L 445.31017 428.350078 
L 457.146534 428.93325 
L 468.982898 430.228927 
L 480.819261 429.329625 
L 492.655625 429.766038 
" style="fill:none;stroke:#94c4df;stroke-linecap:square;stroke-width:1.5;"/>
   </g>
   <g id="line2d_56">
    <path clip-path="url(#p980518b6b1)" d="M 102.055625 433.16125 
L 113.891989 433.16125 
L 125.728352 428.93325 
L 137.564716 431.751917 
L 149.40108 429.46175 
L 161.237443 431.04725 
L 173.073807 431.04725 
L 184.91017 428.93325 
L 196.746534 429.1975 
L 208.582898 429.872806 
L 220.419261 429.35605 
L 232.255625 429.509795 
L 244.091989 428.228583 
L 255.928352 429.095865 
L 267.764716 430.29225 
L 279.60108 429.496983 
L 291.437443 429.858125 
L 303.273807 427.316662 
L 315.11017 429.050694 
L 326.946534 430.045882 
L 338.782898 429.67315 
L 350.619261 429.83925 
L 362.455625 428.356705 
L 374.291989 429.208989 
L 386.128352 430.606833 
L 397.964716 430.79357 
L 409.80108 428.038865 
L 421.637443 429.951102 
L 433.473807 430.06575 
L 445.31017 429.15194 
L 457.146534 428.792317 
L 468.982898 429.88796 
L 480.819261 428.93325 
L 492.655625 430.214462 
" style="fill:none;stroke:#94c4df;stroke-linecap:square;stroke-width:1.5;"/>
   </g>
   <g id="line2d_57">
    <path clip-path="url(#p980518b6b1)" d="M 102.055625 433.16125 
L 113.891989 433.16125 
L 125.728352 428.93325 
L 137.564716 429.637917 
L 149.40108 427.34775 
L 161.237443 427.66485 
L 173.073807 429.637917 
L 184.91017 428.02725 
L 196.746534 429.726 
L 208.582898 429.872806 
L 220.419261 430.20165 
L 232.255625 430.662886 
L 244.091989 428.580917 
L 255.928352 430.884635 
L 267.764716 428.48025 
L 279.60108 430.483517 
L 291.437443 429.1975 
L 303.273807 429.430662 
L 315.11017 429.520472 
L 326.946534 430.268408 
L 338.782898 429.99025 
L 350.619261 430.14125 
L 362.455625 430.086341 
L 374.291989 429.392815 
L 386.128352 429.902167 
L 397.964716 430.11709 
L 409.80108 429.258481 
L 421.637443 429.324731 
L 433.473807 429.53725 
L 445.31017 428.860353 
L 457.146534 429.003717 
L 468.982898 429.069637 
L 480.819261 429.395687 
L 492.655625 429.125432 
" style="fill:none;stroke:#94c4df;stroke-linecap:square;stroke-width:1.5;"/>
   </g>
   <g id="line2d_58">
    <path clip-path="url(#p980518b6b1)" d="M 102.055625 433.16125 
L 113.891989 433.16125 
L 125.728352 420.47725 
L 137.564716 428.93325 
L 149.40108 432.10425 
L 161.237443 430.62445 
L 173.073807 427.523917 
L 184.91017 430.14125 
L 196.746534 431.04725 
L 208.582898 430.812361 
L 220.419261 429.35605 
L 232.255625 428.93325 
L 244.091989 429.637917 
L 255.928352 429.746327 
L 267.764716 430.14125 
L 279.60108 429.215117 
L 291.437443 428.93325 
L 303.273807 429.306309 
L 315.11017 428.228583 
L 326.946534 430.379671 
L 338.782898 430.20165 
L 350.619261 430.946583 
L 362.455625 429.317614 
L 374.291989 429.85238 
L 386.128352 429.373667 
L 397.964716 427.58029 
L 409.80108 428.770635 
L 421.637443 430.185991 
L 433.473807 429.15975 
L 445.31017 429.808009 
L 457.146534 429.708383 
L 468.982898 429.478798 
L 480.819261 429.858125 
L 492.655625 429.125432 
" style="fill:none;stroke:#94c4df;stroke-linecap:square;stroke-width:1.5;"/>
   </g>
   <g id="line2d_59">
    <path clip-path="url(#p980518b6b1)" d="M 102.055625 433.16125 
L 113.891989 433.16125 
L 125.728352 423.64825 
L 137.564716 429.637917 
L 149.40108 432.10425 
L 161.237443 432.31565 
L 173.073807 432.10425 
L 184.91017 431.95325 
L 196.746534 430.2545 
L 208.582898 430.342583 
L 220.419261 429.35605 
L 232.255625 430.855068 
L 244.091989 429.99025 
L 255.928352 429.583712 
L 267.764716 431.34925 
L 279.60108 429.074183 
L 291.437443 429.593875 
L 303.273807 428.435838 
L 315.11017 428.463472 
L 326.946534 430.157145 
L 338.782898 429.14465 
L 350.619261 429.033917 
L 362.455625 428.164523 
L 374.291989 429.300902 
L 386.128352 427.87625 
L 397.964716 430.96269 
L 409.80108 428.282788 
L 421.637443 429.951102 
L 433.473807 429.61275 
L 445.31017 429.15194 
L 457.146534 430.272117 
L 468.982898 429.546992 
L 480.819261 429.263562 
L 492.655625 429.189492 
" style="fill:none;stroke:#94c4df;stroke-linecap:square;stroke-width:1.5;"/>
   </g>
   <g id="line2d_60">
    <path clip-path="url(#p980518b6b1)" d="M 102.055625 433.16125 
L 113.891989 433.16125 
L 125.728352 433.16125 
L 137.564716 433.16125 
L 149.40108 431.04725 
L 161.237443 431.47005 
L 173.073807 426.81925 
L 184.91017 427.12125 
L 196.746534 428.1405 
L 208.582898 429.872806 
L 220.419261 428.29905 
L 232.255625 428.548886 
L 244.091989 429.637917 
L 255.928352 427.957558 
L 267.764716 429.53725 
L 279.60108 431.04725 
L 291.437443 429.726 
L 303.273807 428.560191 
L 315.11017 430.107694 
L 326.946534 429.823355 
L 338.782898 430.83585 
L 350.619261 428.832583 
L 362.455625 428.356705 
L 374.291989 428.473685 
L 386.128352 429.1975 
L 397.964716 430.70901 
L 409.80108 428.445404 
L 421.637443 428.93325 
L 433.473807 429.76375 
L 445.31017 428.422974 
L 457.146534 431.117717 
L 468.982898 430.160734 
L 480.819261 429.858125 
L 492.655625 430.214462 
" style="fill:none;stroke:#94c4df;stroke-linecap:square;stroke-width:1.5;"/>
   </g>
   <g id="line2d_61">
    <path clip-path="url(#p980518b6b1)" d="M 102.055625 407.79325 
L 113.891989 433.16125 
L 125.728352 427.87625 
L 137.564716 428.228583 
L 149.40108 428.40475 
L 161.237443 429.77885 
L 173.073807 428.93325 
L 184.91017 426.51725 
L 196.746534 430.783 
L 208.582898 427.523917 
L 220.419261 430.41305 
L 232.255625 429.125432 
L 244.091989 430.871083 
L 255.928352 427.794942 
L 267.764716 429.83925 
L 279.60108 430.342583 
L 291.437443 429.46175 
L 303.273807 428.93325 
L 315.11017 428.698361 
L 326.946534 428.821987 
L 338.782898 428.72185 
L 350.619261 430.14125 
L 362.455625 429.605886 
L 374.291989 430.311946 
L 386.128352 428.669 
L 397.964716 430.96269 
L 409.80108 428.689327 
L 421.637443 428.463472 
L 433.473807 430.06575 
L 445.31017 430.318284 
L 457.146534 429.849317 
L 468.982898 429.546992 
L 480.819261 429.131437 
L 492.655625 430.919129 
" style="fill:none;stroke:#94c4df;stroke-linecap:square;stroke-width:1.5;"/>
   </g>
   <g id="line2d_62">
    <path clip-path="url(#p980518b6b1)" d="M 102.055625 433.16125 
L 113.891989 420.47725 
L 125.728352 431.04725 
L 137.564716 430.342583 
L 149.40108 428.93325 
L 161.237443 430.20165 
L 173.073807 431.04725 
L 184.91017 430.44325 
L 196.746534 430.2545 
L 208.582898 429.403028 
L 220.419261 427.66485 
L 232.255625 428.93325 
L 244.091989 428.40475 
L 255.928352 429.258481 
L 267.764716 428.63125 
L 279.60108 429.215117 
L 291.437443 428.801125 
L 303.273807 428.808897 
L 315.11017 429.168139 
L 326.946534 429.600829 
L 338.782898 428.72185 
L 350.619261 429.83925 
L 362.455625 429.894159 
L 374.291989 430.679598 
L 386.128352 429.726 
L 397.964716 428.08765 
L 409.80108 430.152865 
L 421.637443 430.185991 
L 433.473807 428.78225 
L 445.31017 430.026698 
L 457.146534 430.976783 
L 468.982898 430.024347 
L 480.819261 429.726 
L 492.655625 428.356705 
" style="fill:none;stroke:#94c4df;stroke-linecap:square;stroke-width:1.5;"/>
   </g>
   <g id="line2d_63">
    <path clip-path="url(#p980518b6b1)" d="M 102.055625 433.16125 
L 113.891989 433.16125 
L 125.728352 427.87625 
L 137.564716 430.342583 
L 149.40108 430.51875 
L 161.237443 429.35605 
L 173.073807 430.694917 
L 184.91017 427.42325 
L 196.746534 429.726 
L 208.582898 428.228583 
L 220.419261 430.41305 
L 232.255625 429.509795 
L 244.091989 429.814083 
L 255.928352 430.071558 
L 267.764716 428.93325 
L 279.60108 429.77885 
L 291.437443 430.915125 
L 303.273807 429.057603 
L 315.11017 429.99025 
L 326.946534 430.379671 
L 338.782898 429.99025 
L 350.619261 429.436583 
L 362.455625 428.644977 
L 374.291989 430.036207 
L 386.128352 429.109417 
L 397.964716 429.52517 
L 409.80108 429.99025 
L 421.637443 427.993694 
L 433.473807 429.76375 
L 445.31017 429.079043 
L 457.146534 429.77885 
L 468.982898 429.546992 
L 480.819261 428.93325 
L 492.655625 429.701977 
" style="fill:none;stroke:#94c4df;stroke-linecap:square;stroke-width:1.5;"/>
   </g>
   <g id="line2d_64">
    <path clip-path="url(#p980518b6b1)" d="M 102.055625 433.16125 
L 113.891989 433.16125 
L 125.728352 433.16125 
L 137.564716 433.16125 
L 149.40108 433.16125 
L 161.237443 433.16125 
L 173.073807 433.16125 
L 184.91017 433.16125 
L 196.746534 433.16125 
L 208.582898 433.16125 
L 220.419261 433.16125 
L 232.255625 433.16125 
L 244.091989 433.16125 
L 255.928352 433.16125 
L 267.764716 433.16125 
L 279.60108 433.16125 
L 291.437443 433.16125 
L 303.273807 433.16125 
L 315.11017 433.16125 
L 326.946534 433.16125 
L 338.782898 433.16125 
L 350.619261 433.16125 
L 362.455625 433.16125 
L 374.291989 433.16125 
L 386.128352 433.16125 
L 397.964716 433.16125 
L 409.80108 433.16125 
L 421.637443 433.16125 
L 433.473807 433.16125 
L 445.31017 433.16125 
L 457.146534 433.16125 
L 468.982898 433.16125 
L 480.819261 433.16125 
L 492.655625 433.16125 
" style="fill:none;stroke:#000000;stroke-linecap:square;stroke-width:1.5;"/>
   </g>
   <g id="line2d_65">
    <path clip-path="url(#p980518b6b1)" d="M 102.055625 433.16125 
L 113.891989 433.16125 
L 125.728352 433.16125 
L 137.564716 433.16125 
L 149.40108 433.16125 
L 161.237443 433.16125 
L 173.073807 433.16125 
L 184.91017 433.16125 
L 196.746534 433.16125 
L 208.582898 433.16125 
L 220.419261 433.16125 
L 232.255625 433.16125 
L 244.091989 433.16125 
L 255.928352 433.16125 
L 267.764716 433.16125 
L 279.60108 433.16125 
L 291.437443 433.16125 
L 303.273807 433.16125 
L 315.11017 433.16125 
L 326.946534 433.16125 
L 338.782898 433.16125 
L 350.619261 433.16125 
L 362.455625 433.16125 
L 374.291989 433.16125 
L 386.128352 433.16125 
L 397.964716 433.16125 
L 409.80108 433.16125 
L 421.637443 433.16125 
L 433.473807 433.16125 
L 445.31017 433.16125 
L 457.146534 433.16125 
L 468.982898 433.16125 
L 480.819261 433.16125 
L 492.655625 433.16125 
" style="fill:none;stroke:#000000;stroke-linecap:square;stroke-width:1.5;"/>
   </g>
   <g id="line2d_66">
    <path clip-path="url(#p980518b6b1)" d="M 102.055625 433.16125 
L 113.891989 433.16125 
L 125.728352 433.16125 
L 137.564716 433.16125 
L 149.40108 433.16125 
L 161.237443 433.16125 
L 173.073807 433.16125 
L 184.91017 433.16125 
L 196.746534 433.16125 
L 208.582898 433.16125 
L 220.419261 433.16125 
L 232.255625 433.16125 
L 244.091989 433.16125 
L 255.928352 433.16125 
L 267.764716 433.16125 
L 279.60108 433.16125 
L 291.437443 433.16125 
L 303.273807 433.16125 
L 315.11017 433.16125 
L 326.946534 433.16125 
L 338.782898 433.16125 
L 350.619261 433.16125 
L 362.455625 433.16125 
L 374.291989 433.16125 
L 386.128352 433.16125 
L 397.964716 433.16125 
L 409.80108 433.16125 
L 421.637443 433.16125 
L 433.473807 433.16125 
L 445.31017 433.16125 
L 457.146534 433.16125 
L 468.982898 433.16125 
L 480.819261 433.16125 
L 492.655625 433.16125 
" style="fill:none;stroke:#000000;stroke-linecap:square;stroke-width:1.5;"/>
   </g>
   <g id="line2d_67">
    <path clip-path="url(#p980518b6b1)" d="M 102.055625 433.16125 
L 113.891989 433.16125 
L 125.728352 433.16125 
L 137.564716 433.16125 
L 149.40108 433.16125 
L 161.237443 433.16125 
L 173.073807 433.16125 
L 184.91017 433.16125 
L 196.746534 433.16125 
L 208.582898 433.16125 
L 220.419261 433.16125 
L 232.255625 433.16125 
L 244.091989 433.16125 
L 255.928352 433.16125 
L 267.764716 433.16125 
L 279.60108 433.16125 
L 291.437443 433.16125 
L 303.273807 433.16125 
L 315.11017 433.16125 
L 326.946534 433.16125 
L 338.782898 433.16125 
L 350.619261 433.16125 
L 362.455625 433.16125 
L 374.291989 433.16125 
L 386.128352 433.16125 
L 397.964716 433.16125 
L 409.80108 433.16125 
L 421.637443 433.16125 
L 433.473807 433.16125 
L 445.31017 433.16125 
L 457.146534 433.16125 
L 468.982898 433.16125 
L 480.819261 433.16125 
L 492.655625 433.16125 
" style="fill:none;stroke:#000000;stroke-linecap:square;stroke-width:1.5;"/>
   </g>
   <g id="line2d_68">
    <path clip-path="url(#p980518b6b1)" d="M 102.055625 433.16125 
L 113.891989 433.16125 
L 125.728352 433.16125 
L 137.564716 433.16125 
L 149.40108 433.16125 
L 161.237443 433.16125 
L 173.073807 433.16125 
L 184.91017 433.16125 
L 196.746534 433.16125 
L 208.582898 433.16125 
L 220.419261 433.16125 
L 232.255625 433.16125 
L 244.091989 433.16125 
L 255.928352 433.16125 
L 267.764716 433.16125 
L 279.60108 433.16125 
L 291.437443 433.16125 
L 303.273807 433.16125 
L 315.11017 433.16125 
L 326.946534 433.16125 
L 338.782898 433.16125 
L 350.619261 433.16125 
L 362.455625 433.16125 
L 374.291989 433.16125 
L 386.128352 433.16125 
L 397.964716 433.16125 
L 409.80108 433.16125 
L 421.637443 433.16125 
L 433.473807 433.16125 
L 445.31017 433.16125 
L 457.146534 433.16125 
L 468.982898 433.16125 
L 480.819261 433.16125 
L 492.655625 433.16125 
" style="fill:none;stroke:#000000;stroke-linecap:square;stroke-width:1.5;"/>
   </g>
   <g id="line2d_69">
    <path clip-path="url(#p980518b6b1)" d="M 102.055625 433.16125 
L 113.891989 433.16125 
L 125.728352 433.16125 
L 137.564716 433.16125 
L 149.40108 433.16125 
L 161.237443 433.16125 
L 173.073807 433.16125 
L 184.91017 433.16125 
L 196.746534 433.16125 
L 208.582898 433.16125 
L 220.419261 433.16125 
L 232.255625 433.16125 
L 244.091989 433.16125 
L 255.928352 433.16125 
L 267.764716 433.16125 
L 279.60108 433.16125 
L 291.437443 433.16125 
L 303.273807 433.16125 
L 315.11017 433.16125 
L 326.946534 433.16125 
L 338.782898 433.16125 
L 350.619261 433.16125 
L 362.455625 433.16125 
L 374.291989 433.16125 
L 386.128352 433.16125 
L 397.964716 433.16125 
L 409.80108 433.16125 
L 421.637443 433.16125 
L 433.473807 433.16125 
L 445.31017 433.16125 
L 457.146534 433.16125 
L 468.982898 433.16125 
L 480.819261 433.16125 
L 492.655625 433.16125 
" style="fill:none;stroke:#000000;stroke-linecap:square;stroke-width:1.5;"/>
   </g>
   <g id="line2d_70">
    <path clip-path="url(#p980518b6b1)" d="M 102.055625 433.16125 
L 113.891989 433.16125 
L 125.728352 433.16125 
L 137.564716 433.16125 
L 149.40108 433.16125 
L 161.237443 433.16125 
L 173.073807 433.16125 
L 184.91017 433.16125 
L 196.746534 433.16125 
L 208.582898 433.16125 
L 220.419261 433.16125 
L 232.255625 433.16125 
L 244.091989 433.16125 
L 255.928352 433.16125 
L 267.764716 433.16125 
L 279.60108 433.16125 
L 291.437443 433.16125 
L 303.273807 433.16125 
L 315.11017 433.16125 
L 326.946534 433.16125 
L 338.782898 433.16125 
L 350.619261 433.16125 
L 362.455625 433.16125 
L 374.291989 433.16125 
L 386.128352 433.16125 
L 397.964716 433.16125 
L 409.80108 433.16125 
L 421.637443 433.16125 
L 433.473807 433.16125 
L 445.31017 433.16125 
L 457.146534 433.16125 
L 468.982898 433.16125 
L 480.819261 433.16125 
L 492.655625 433.16125 
" style="fill:none;stroke:#000000;stroke-linecap:square;stroke-width:1.5;"/>
   </g>
   <g id="line2d_71">
    <path clip-path="url(#p980518b6b1)" d="M 102.055625 433.16125 
L 113.891989 433.16125 
L 125.728352 433.16125 
L 137.564716 433.16125 
L 149.40108 433.16125 
L 161.237443 433.16125 
L 173.073807 433.16125 
L 184.91017 433.16125 
L 196.746534 433.16125 
L 208.582898 433.16125 
L 220.419261 433.16125 
L 232.255625 433.16125 
L 244.091989 433.16125 
L 255.928352 433.16125 
L 267.764716 433.16125 
L 279.60108 433.16125 
L 291.437443 433.16125 
L 303.273807 433.16125 
L 315.11017 433.16125 
L 326.946534 433.16125 
L 338.782898 433.16125 
L 350.619261 433.16125 
L 362.455625 433.16125 
L 374.291989 433.16125 
L 386.128352 433.16125 
L 397.964716 433.16125 
L 409.80108 433.16125 
L 421.637443 433.16125 
L 433.473807 433.16125 
L 445.31017 433.16125 
L 457.146534 433.16125 
L 468.982898 433.16125 
L 480.819261 433.16125 
L 492.655625 433.16125 
" style="fill:none;stroke:#000000;stroke-linecap:square;stroke-width:1.5;"/>
   </g>
   <g id="line2d_72">
    <path clip-path="url(#p980518b6b1)" d="M 102.055625 433.16125 
L 113.891989 433.16125 
L 125.728352 433.16125 
L 137.564716 433.16125 
L 149.40108 433.16125 
L 161.237443 433.16125 
L 173.073807 433.16125 
L 184.91017 433.16125 
L 196.746534 433.16125 
L 208.582898 433.16125 
L 220.419261 433.16125 
L 232.255625 433.16125 
L 244.091989 433.16125 
L 255.928352 433.16125 
L 267.764716 433.16125 
L 279.60108 433.16125 
L 291.437443 433.16125 
L 303.273807 433.16125 
L 315.11017 433.16125 
L 326.946534 433.16125 
L 338.782898 433.16125 
L 350.619261 433.16125 
L 362.455625 433.16125 
L 374.291989 433.16125 
L 386.128352 433.16125 
L 397.964716 433.16125 
L 409.80108 433.16125 
L 421.637443 433.16125 
L 433.473807 433.16125 
L 445.31017 433.16125 
L 457.146534 433.16125 
L 468.982898 433.16125 
L 480.819261 433.16125 
L 492.655625 433.16125 
" style="fill:none;stroke:#000000;stroke-linecap:square;stroke-width:1.5;"/>
   </g>
   <g id="line2d_73">
    <path clip-path="url(#p980518b6b1)" d="M 102.055625 433.16125 
L 113.891989 433.16125 
L 125.728352 433.16125 
L 137.564716 433.16125 
L 149.40108 433.16125 
L 161.237443 433.16125 
L 173.073807 433.16125 
L 184.91017 433.16125 
L 196.746534 433.16125 
L 208.582898 433.16125 
L 220.419261 433.16125 
L 232.255625 433.16125 
L 244.091989 433.16125 
L 255.928352 433.16125 
L 267.764716 433.16125 
L 279.60108 433.16125 
L 291.437443 433.16125 
L 303.273807 433.16125 
L 315.11017 433.16125 
L 326.946534 433.16125 
L 338.782898 433.16125 
L 350.619261 433.16125 
L 362.455625 433.16125 
L 374.291989 433.16125 
L 386.128352 433.16125 
L 397.964716 433.16125 
L 409.80108 433.16125 
L 421.637443 433.16125 
L 433.473807 433.16125 
L 445.31017 433.16125 
L 457.146534 433.16125 
L 468.982898 433.16125 
L 480.819261 433.16125 
L 492.655625 433.16125 
" style="fill:none;stroke:#000000;stroke-linecap:square;stroke-width:1.5;"/>
   </g>
   <g id="line2d_74">
    <path clip-path="url(#p980518b6b1)" d="M 90.219261 433.16125 
" style="fill:none;stroke:#000000;stroke-linecap:square;stroke-width:1.5;"/>
   </g>
   <g id="line2d_75">
    <path clip-path="url(#p980518b6b1)" d="M 90.219261 433.16125 
" style="fill:none;stroke:#d0e1f2;stroke-linecap:square;stroke-width:1.5;"/>
   </g>
   <g id="line2d_76">
    <path clip-path="url(#p980518b6b1)" d="M 90.219261 433.16125 
" style="fill:none;stroke:#94c4df;stroke-linecap:square;stroke-width:1.5;"/>
   </g>
   <g id="line2d_77">
    <path clip-path="url(#p980518b6b1)" d="M 90.219261 433.16125 
" style="fill:none;stroke:#4a98c9;stroke-linecap:square;stroke-width:1.5;"/>
   </g>
   <g id="line2d_78">
    <path clip-path="url(#p980518b6b1)" d="M 90.219261 433.16125 
" style="fill:none;stroke:#1764ab;stroke-linecap:square;stroke-width:1.5;"/>
   </g>
   <g id="line2d_79">
    <path clip-path="url(#p980518b6b1)" d="M 90.219261 433.16125 
" style="fill:none;stroke:#08306b;stroke-linecap:square;stroke-width:1.5;"/>
   </g>
   <g id="line2d_80">
    <path clip-path="url(#p980518b6b1)" d="M 90.219261 433.16125 
" style="fill:none;stroke:#000000;stroke-linecap:square;stroke-width:1.5;"/>
   </g>
   <g id="line2d_81">
    <path clip-path="url(#p980518b6b1)" d="M 90.219261 433.16125 
" style="fill:none;stroke:#000000;stroke-dasharray:1.5,2.475;stroke-dashoffset:0;stroke-width:1.5;"/>
   </g>
   <g id="line2d_82">
    <path clip-path="url(#p980518b6b1)" d="M 90.219261 433.16125 
" style="fill:none;stroke:#000000;stroke-linecap:square;stroke-width:1.5;"/>
   </g>
   <g id="line2d_83">
    <path clip-path="url(#p980518b6b1)" d="M 90.219261 433.16125 
" style="fill:none;stroke:#000000;stroke-dasharray:5.55,2.4;stroke-dashoffset:0;stroke-width:1.5;"/>
   </g>
   <g id="line2d_84">
    <path clip-path="url(#p980518b6b1)" d="M 90.219261 433.16125 
" style="fill:none;stroke:#000000;stroke-dasharray:9.6,2.4,1.5,2.4;stroke-dashoffset:0;stroke-width:1.5;"/>
   </g>
   <g id="line2d_85">
    <path clip-path="url(#p980518b6b1)" d="M 90.219261 433.16125 
" style="fill:none;stroke:#000000;stroke-dasharray:9.6,2.4,1.5,2.4;stroke-dashoffset:0;stroke-width:1.5;"/>
   </g>
   <g id="patch_3">
    <path d="M 102.055625 433.16125 
L 102.055625 52.64125 
" style="fill:none;stroke:#000000;stroke-linecap:square;stroke-linejoin:miter;stroke-width:0.8;"/>
   </g>
   <g id="patch_4">
    <path d="M 492.655625 433.16125 
L 492.655625 52.64125 
" style="fill:none;stroke:#000000;stroke-linecap:square;stroke-linejoin:miter;stroke-width:0.8;"/>
   </g>
   <g id="patch_5">
    <path d="M 102.055625 433.16125 
L 492.655625 433.16125 
" style="fill:none;stroke:#000000;stroke-linecap:square;stroke-linejoin:miter;stroke-width:0.8;"/>
   </g>
   <g id="patch_6">
    <path d="M 102.055625 52.64125 
L 492.655625 52.64125 
" style="fill:none;stroke:#000000;stroke-linecap:square;stroke-linejoin:miter;stroke-width:0.8;"/>
   </g>
   <g id="text_16">
    <!-- T-CELL NORMALIZED COUNT -->
    <g transform="translate(154.0525 21.515625)scale(0.2 -0.2)">
     <use xlink:href="#Arial-BoldMT-84"/>
     <use x="61.005859" xlink:href="#Arial-BoldMT-45"/>
     <use x="94.306641" xlink:href="#Arial-BoldMT-67"/>
     <use x="166.523438" xlink:href="#Arial-BoldMT-69"/>
     <use x="233.222656" xlink:href="#Arial-BoldMT-76"/>
     <use x="294.306641" xlink:href="#Arial-BoldMT-76"/>
     <use x="355.375" xlink:href="#Arial-BoldMT-32"/>
     <use x="383.158203" xlink:href="#Arial-BoldMT-78"/>
     <use x="455.375" xlink:href="#Arial-BoldMT-79"/>
     <use x="533.158203" xlink:href="#Arial-BoldMT-82"/>
     <use x="605.375" xlink:href="#Arial-BoldMT-77"/>
     <use x="688.675781" xlink:href="#Arial-BoldMT-65"/>
     <use x="760.892578" xlink:href="#Arial-BoldMT-76"/>
     <use x="821.976562" xlink:href="#Arial-BoldMT-73"/>
     <use x="849.759766" xlink:href="#Arial-BoldMT-90"/>
     <use x="910.84375" xlink:href="#Arial-BoldMT-69"/>
     <use x="977.542969" xlink:href="#Arial-BoldMT-68"/>
     <use x="1049.759766" xlink:href="#Arial-BoldMT-32"/>
     <use x="1077.542969" xlink:href="#Arial-BoldMT-67"/>
     <use x="1149.759766" xlink:href="#Arial-BoldMT-79"/>
     <use x="1227.542969" xlink:href="#Arial-BoldMT-85"/>
     <use x="1299.759766" xlink:href="#Arial-BoldMT-78"/>
     <use x="1371.976562" xlink:href="#Arial-BoldMT-84"/>
    </g>
    <!-- ACROSS RADIUS AT TIME 1 -->
    <defs>
     <path d="M 39.359375 0 
L 25.640625 0 
L 25.640625 51.703125 
Q 18.109375 44.671875 7.90625 41.3125 
L 7.90625 53.765625 
Q 13.28125 55.515625 19.578125 60.421875 
Q 25.875 65.328125 28.21875 71.875 
L 39.359375 71.875 
z
" id="Arial-BoldMT-49"/>
    </defs>
    <g transform="translate(162.361875 42.64125)scale(0.2 -0.2)">
     <use xlink:href="#Arial-BoldMT-65"/>
     <use x="72.216797" xlink:href="#Arial-BoldMT-67"/>
     <use x="144.433594" xlink:href="#Arial-BoldMT-82"/>
     <use x="216.650391" xlink:href="#Arial-BoldMT-79"/>
     <use x="294.433594" xlink:href="#Arial-BoldMT-83"/>
     <use x="361.132812" xlink:href="#Arial-BoldMT-83"/>
     <use x="427.832031" xlink:href="#Arial-BoldMT-32"/>
     <use x="455.615234" xlink:href="#Arial-BoldMT-82"/>
     <use x="527.832031" xlink:href="#Arial-BoldMT-65"/>
     <use x="600.048828" xlink:href="#Arial-BoldMT-68"/>
     <use x="672.265625" xlink:href="#Arial-BoldMT-73"/>
     <use x="700.048828" xlink:href="#Arial-BoldMT-85"/>
     <use x="772.265625" xlink:href="#Arial-BoldMT-83"/>
     <use x="838.964844" xlink:href="#Arial-BoldMT-32"/>
     <use x="866.701172" xlink:href="#Arial-BoldMT-65"/>
     <use x="938.808594" xlink:href="#Arial-BoldMT-84"/>
     <use x="999.892578" xlink:href="#Arial-BoldMT-32"/>
     <use x="1027.675781" xlink:href="#Arial-BoldMT-84"/>
     <use x="1088.759766" xlink:href="#Arial-BoldMT-73"/>
     <use x="1116.542969" xlink:href="#Arial-BoldMT-77"/>
     <use x="1199.84375" xlink:href="#Arial-BoldMT-69"/>
     <use x="1266.542969" xlink:href="#Arial-BoldMT-32"/>
     <use x="1294.326172" xlink:href="#Arial-BoldMT-49"/>
    </g>
   </g>
   <g id="legend_1">
    <g id="line2d_86">
     <path d="M 423.843125 65.739687 
L 443.843125 65.739687 
" style="fill:none;stroke:#000000;stroke-linecap:square;stroke-width:1.5;"/>
    </g>
    <g id="line2d_87"/>
    <g id="text_17">
     <!-- 0 -->
     <g transform="translate(451.843125 69.239687)scale(0.1 -0.1)">
      <use xlink:href="#DejaVuSans-48"/>
     </g>
    </g>
    <g id="line2d_88">
     <path d="M 423.843125 80.417812 
L 443.843125 80.417812 
" style="fill:none;stroke:#d0e1f2;stroke-linecap:square;stroke-width:1.5;"/>
    </g>
    <g id="line2d_89"/>
    <g id="text_18">
     <!-- 100 -->
     <g transform="translate(451.843125 83.917812)scale(0.1 -0.1)">
      <use xlink:href="#DejaVuSans-49"/>
      <use x="63.623047" xlink:href="#DejaVuSans-48"/>
      <use x="127.246094" xlink:href="#DejaVuSans-48"/>
     </g>
    </g>
    <g id="line2d_90">
     <path d="M 423.843125 95.095937 
L 443.843125 95.095937 
" style="fill:none;stroke:#94c4df;stroke-linecap:square;stroke-width:1.5;"/>
    </g>
    <g id="line2d_91"/>
    <g id="text_19">
     <!-- 500 -->
     <g transform="translate(451.843125 98.595937)scale(0.1 -0.1)">
      <use xlink:href="#DejaVuSans-53"/>
      <use x="63.623047" xlink:href="#DejaVuSans-48"/>
      <use x="127.246094" xlink:href="#DejaVuSans-48"/>
     </g>
    </g>
    <g id="line2d_92">
     <path d="M 423.843125 109.774062 
L 443.843125 109.774062 
" style="fill:none;stroke:#4a98c9;stroke-linecap:square;stroke-width:1.5;"/>
    </g>
    <g id="line2d_93"/>
    <g id="text_20">
     <!-- 1000 -->
     <g transform="translate(451.843125 113.274062)scale(0.1 -0.1)">
      <use xlink:href="#DejaVuSans-49"/>
      <use x="63.623047" xlink:href="#DejaVuSans-48"/>
      <use x="127.246094" xlink:href="#DejaVuSans-48"/>
      <use x="190.869141" xlink:href="#DejaVuSans-48"/>
     </g>
    </g>
    <g id="line2d_94">
     <path d="M 423.843125 124.452187 
L 443.843125 124.452187 
" style="fill:none;stroke:#1764ab;stroke-linecap:square;stroke-width:1.5;"/>
    </g>
    <g id="line2d_95"/>
    <g id="text_21">
     <!-- 5000 -->
     <g transform="translate(451.843125 127.952187)scale(0.1 -0.1)">
      <use xlink:href="#DejaVuSans-53"/>
      <use x="63.623047" xlink:href="#DejaVuSans-48"/>
      <use x="127.246094" xlink:href="#DejaVuSans-48"/>
      <use x="190.869141" xlink:href="#DejaVuSans-48"/>
     </g>
    </g>
    <g id="line2d_96">
     <path d="M 423.843125 139.130312 
L 443.843125 139.130312 
" style="fill:none;stroke:#08306b;stroke-linecap:square;stroke-width:1.5;"/>
    </g>
    <g id="line2d_97"/>
    <g id="text_22">
     <!-- 10000 -->
     <g transform="translate(451.843125 142.630312)scale(0.1 -0.1)">
      <use xlink:href="#DejaVuSans-49"/>
      <use x="63.623047" xlink:href="#DejaVuSans-48"/>
      <use x="127.246094" xlink:href="#DejaVuSans-48"/>
      <use x="190.869141" xlink:href="#DejaVuSans-48"/>
      <use x="254.492188" xlink:href="#DejaVuSans-48"/>
     </g>
    </g>
    <g id="line2d_98">
     <path d="M 423.843125 153.808437 
L 443.843125 153.808437 
" style="fill:none;stroke:#000000;stroke-linecap:square;stroke-width:1.5;"/>
    </g>
    <g id="line2d_99"/>
    <g id="text_23">
     <!-- 0 -->
     <g transform="translate(451.843125 157.308437)scale(0.1 -0.1)">
      <use xlink:href="#DejaVuSans-48"/>
     </g>
    </g>
    <g id="line2d_100">
     <path d="M 423.843125 168.486562 
L 443.843125 168.486562 
" style="fill:none;stroke:#000000;stroke-dasharray:1.5,2.475;stroke-dashoffset:0;stroke-width:1.5;"/>
    </g>
    <g id="line2d_101"/>
    <g id="text_24">
     <!-- 250 -->
     <g transform="translate(451.843125 171.986562)scale(0.1 -0.1)">
      <use xlink:href="#DejaVuSans-50"/>
      <use x="63.623047" xlink:href="#DejaVuSans-53"/>
      <use x="127.246094" xlink:href="#DejaVuSans-48"/>
     </g>
    </g>
    <g id="line2d_102">
     <path d="M 423.843125 183.164687 
L 443.843125 183.164687 
" style="fill:none;stroke:#000000;stroke-linecap:square;stroke-width:1.5;"/>
    </g>
    <g id="line2d_103"/>
    <g id="text_25">
     <!-- 500 -->
     <g transform="translate(451.843125 186.664687)scale(0.1 -0.1)">
      <use xlink:href="#DejaVuSans-53"/>
      <use x="63.623047" xlink:href="#DejaVuSans-48"/>
      <use x="127.246094" xlink:href="#DejaVuSans-48"/>
     </g>
    </g>
    <g id="line2d_104">
     <path d="M 423.843125 197.842812 
L 443.843125 197.842812 
" style="fill:none;stroke:#000000;stroke-dasharray:5.55,2.4;stroke-dashoffset:0;stroke-width:1.5;"/>
    </g>
    <g id="line2d_105"/>
    <g id="text_26">
     <!-- 1000 -->
     <g transform="translate(451.843125 201.342812)scale(0.1 -0.1)">
      <use xlink:href="#DejaVuSans-49"/>
      <use x="63.623047" xlink:href="#DejaVuSans-48"/>
      <use x="127.246094" xlink:href="#DejaVuSans-48"/>
      <use x="190.869141" xlink:href="#DejaVuSans-48"/>
     </g>
    </g>
    <g id="line2d_106">
     <path d="M 423.843125 212.520937 
L 443.843125 212.520937 
" style="fill:none;stroke:#000000;stroke-dasharray:9.6,2.4,1.5,2.4;stroke-dashoffset:0;stroke-width:1.5;"/>
    </g>
    <g id="line2d_107"/>
    <g id="text_27">
     <!-- 5000 -->
     <g transform="translate(451.843125 216.020937)scale(0.1 -0.1)">
      <use xlink:href="#DejaVuSans-53"/>
      <use x="63.623047" xlink:href="#DejaVuSans-48"/>
      <use x="127.246094" xlink:href="#DejaVuSans-48"/>
      <use x="190.869141" xlink:href="#DejaVuSans-48"/>
     </g>
    </g>
    <g id="line2d_108">
     <path d="M 423.843125 227.199062 
L 443.843125 227.199062 
" style="fill:none;stroke:#000000;stroke-dasharray:9.6,2.4,1.5,2.4;stroke-dashoffset:0;stroke-width:1.5;"/>
    </g>
    <g id="line2d_109"/>
    <g id="text_28">
     <!-- 10000 -->
     <g transform="translate(451.843125 230.699062)scale(0.1 -0.1)">
      <use xlink:href="#DejaVuSans-49"/>
      <use x="63.623047" xlink:href="#DejaVuSans-48"/>
      <use x="127.246094" xlink:href="#DejaVuSans-48"/>
      <use x="190.869141" xlink:href="#DejaVuSans-48"/>
      <use x="254.492188" xlink:href="#DejaVuSans-48"/>
     </g>
    </g>
   </g>
  </g>
 </g>
 <defs>
  <clipPath id="p980518b6b1">
   <rect height="380.52" width="390.6" x="102.055625" y="52.64125"/>
  </clipPath>
 </defs>
</svg>
