<?xml version="1.0" encoding="utf-8" standalone="no"?>
<!DOCTYPE svg PUBLIC "-//W3C//DTD SVG 1.1//EN"
  "http://www.w3.org/Graphics/SVG/1.1/DTD/svg11.dtd">
<!-- Created with matplotlib (https://matplotlib.org/) -->
<svg height="504.658125pt" version="1.1" viewBox="0 0 610.843125 504.658125" width="610.843125pt" xmlns="http://www.w3.org/2000/svg" xmlns:xlink="http://www.w3.org/1999/xlink">
 <defs>
  <style type="text/css">
*{stroke-linecap:butt;stroke-linejoin:round;}
  </style>
 </defs>
 <g id="figure_1">
  <g id="patch_1">
   <path d="M 0 504.658125 
L 610.843125 504.658125 
L 610.843125 -0 
L 0 -0 
z
" style="fill:#ffffff;"/>
  </g>
  <g id="axes_1">
   <g id="patch_2">
    <path d="M 140.230625 433.16125 
L 530.830625 433.16125 
L 530.830625 52.64125 
L 140.230625 52.64125 
z
" style="fill:#ffffff;"/>
   </g>
   <g id="matplotlib.axis_1">
    <g id="xtick_1">
     <g id="line2d_1">
      <defs>
       <path d="M 0 0 
L 0 3.5 
" id="ma97d7811fc" style="stroke:#000000;stroke-width:0.8;"/>
      </defs>
      <g>
       <use style="stroke:#000000;stroke-width:0.8;" x="187.57608" xlink:href="#ma97d7811fc" y="433.16125"/>
      </g>
     </g>
     <g id="text_1">
      <!-- 5 -->
      <defs>
       <path d="M 10.796875 72.90625 
L 49.515625 72.90625 
L 49.515625 64.59375 
L 19.828125 64.59375 
L 19.828125 46.734375 
Q 21.96875 47.46875 24.109375 47.828125 
Q 26.265625 48.1875 28.421875 48.1875 
Q 40.625 48.1875 47.75 41.5 
Q 54.890625 34.8125 54.890625 23.390625 
Q 54.890625 11.625 47.5625 5.09375 
Q 40.234375 -1.421875 26.90625 -1.421875 
Q 22.3125 -1.421875 17.546875 -0.640625 
Q 12.796875 0.140625 7.71875 1.703125 
L 7.71875 11.625 
Q 12.109375 9.234375 16.796875 8.0625 
Q 21.484375 6.890625 26.703125 6.890625 
Q 35.15625 6.890625 40.078125 11.328125 
Q 45.015625 15.765625 45.015625 23.390625 
Q 45.015625 31 40.078125 35.4375 
Q 35.15625 39.890625 26.703125 39.890625 
Q 22.75 39.890625 18.8125 39.015625 
Q 14.890625 38.140625 10.796875 36.28125 
z
" id="DejaVuSans-53"/>
      </defs>
      <g transform="translate(178.03233 462.956562)scale(0.3 -0.3)">
       <use xlink:href="#DejaVuSans-53"/>
      </g>
     </g>
    </g>
    <g id="xtick_2">
     <g id="line2d_2">
      <g>
       <use style="stroke:#000000;stroke-width:0.8;" x="246.757898" xlink:href="#ma97d7811fc" y="433.16125"/>
      </g>
     </g>
     <g id="text_2">
      <!-- 10 -->
      <defs>
       <path d="M 12.40625 8.296875 
L 28.515625 8.296875 
L 28.515625 63.921875 
L 10.984375 60.40625 
L 10.984375 69.390625 
L 28.421875 72.90625 
L 38.28125 72.90625 
L 38.28125 8.296875 
L 54.390625 8.296875 
L 54.390625 0 
L 12.40625 0 
z
" id="DejaVuSans-49"/>
       <path d="M 31.78125 66.40625 
Q 24.171875 66.40625 20.328125 58.90625 
Q 16.5 51.421875 16.5 36.375 
Q 16.5 21.390625 20.328125 13.890625 
Q 24.171875 6.390625 31.78125 6.390625 
Q 39.453125 6.390625 43.28125 13.890625 
Q 47.125 21.390625 47.125 36.375 
Q 47.125 51.421875 43.28125 58.90625 
Q 39.453125 66.40625 31.78125 66.40625 
z
M 31.78125 74.21875 
Q 44.046875 74.21875 50.515625 64.515625 
Q 56.984375 54.828125 56.984375 36.375 
Q 56.984375 17.96875 50.515625 8.265625 
Q 44.046875 -1.421875 31.78125 -1.421875 
Q 19.53125 -1.421875 13.0625 8.265625 
Q 6.59375 17.96875 6.59375 36.375 
Q 6.59375 54.828125 13.0625 64.515625 
Q 19.53125 74.21875 31.78125 74.21875 
z
" id="DejaVuSans-48"/>
      </defs>
      <g transform="translate(227.670398 462.956562)scale(0.3 -0.3)">
       <use xlink:href="#DejaVuSans-49"/>
       <use x="63.623047" xlink:href="#DejaVuSans-48"/>
      </g>
     </g>
    </g>
    <g id="xtick_3">
     <g id="line2d_3">
      <g>
       <use style="stroke:#000000;stroke-width:0.8;" x="305.939716" xlink:href="#ma97d7811fc" y="433.16125"/>
      </g>
     </g>
     <g id="text_3">
      <!-- 15 -->
      <g transform="translate(286.852216 462.956562)scale(0.3 -0.3)">
       <use xlink:href="#DejaVuSans-49"/>
       <use x="63.623047" xlink:href="#DejaVuSans-53"/>
      </g>
     </g>
    </g>
    <g id="xtick_4">
     <g id="line2d_4">
      <g>
       <use style="stroke:#000000;stroke-width:0.8;" x="365.121534" xlink:href="#ma97d7811fc" y="433.16125"/>
      </g>
     </g>
     <g id="text_4">
      <!-- 20 -->
      <defs>
       <path d="M 19.1875 8.296875 
L 53.609375 8.296875 
L 53.609375 0 
L 7.328125 0 
L 7.328125 8.296875 
Q 12.9375 14.109375 22.625 23.890625 
Q 32.328125 33.6875 34.8125 36.53125 
Q 39.546875 41.84375 41.421875 45.53125 
Q 43.3125 49.21875 43.3125 52.78125 
Q 43.3125 58.59375 39.234375 62.25 
Q 35.15625 65.921875 28.609375 65.921875 
Q 23.96875 65.921875 18.8125 64.3125 
Q 13.671875 62.703125 7.8125 59.421875 
L 7.8125 69.390625 
Q 13.765625 71.78125 18.9375 73 
Q 24.125 74.21875 28.421875 74.21875 
Q 39.75 74.21875 46.484375 68.546875 
Q 53.21875 62.890625 53.21875 53.421875 
Q 53.21875 48.921875 51.53125 44.890625 
Q 49.859375 40.875 45.40625 35.40625 
Q 44.1875 33.984375 37.640625 27.21875 
Q 31.109375 20.453125 19.1875 8.296875 
z
" id="DejaVuSans-50"/>
      </defs>
      <g transform="translate(346.034034 462.956562)scale(0.3 -0.3)">
       <use xlink:href="#DejaVuSans-50"/>
       <use x="63.623047" xlink:href="#DejaVuSans-48"/>
      </g>
     </g>
    </g>
    <g id="xtick_5">
     <g id="line2d_5">
      <g>
       <use style="stroke:#000000;stroke-width:0.8;" x="424.303352" xlink:href="#ma97d7811fc" y="433.16125"/>
      </g>
     </g>
     <g id="text_5">
      <!-- 25 -->
      <g transform="translate(405.215852 462.956562)scale(0.3 -0.3)">
       <use xlink:href="#DejaVuSans-50"/>
       <use x="63.623047" xlink:href="#DejaVuSans-53"/>
      </g>
     </g>
    </g>
    <g id="xtick_6">
     <g id="line2d_6">
      <g>
       <use style="stroke:#000000;stroke-width:0.8;" x="483.48517" xlink:href="#ma97d7811fc" y="433.16125"/>
      </g>
     </g>
     <g id="text_6">
      <!-- 30 -->
      <defs>
       <path d="M 40.578125 39.3125 
Q 47.65625 37.796875 51.625 33 
Q 55.609375 28.21875 55.609375 21.1875 
Q 55.609375 10.40625 48.1875 4.484375 
Q 40.765625 -1.421875 27.09375 -1.421875 
Q 22.515625 -1.421875 17.65625 -0.515625 
Q 12.796875 0.390625 7.625 2.203125 
L 7.625 11.71875 
Q 11.71875 9.328125 16.59375 8.109375 
Q 21.484375 6.890625 26.8125 6.890625 
Q 36.078125 6.890625 40.9375 10.546875 
Q 45.796875 14.203125 45.796875 21.1875 
Q 45.796875 27.640625 41.28125 31.265625 
Q 36.765625 34.90625 28.71875 34.90625 
L 20.21875 34.90625 
L 20.21875 43.015625 
L 29.109375 43.015625 
Q 36.375 43.015625 40.234375 45.921875 
Q 44.09375 48.828125 44.09375 54.296875 
Q 44.09375 59.90625 40.109375 62.90625 
Q 36.140625 65.921875 28.71875 65.921875 
Q 24.65625 65.921875 20.015625 65.03125 
Q 15.375 64.15625 9.8125 62.3125 
L 9.8125 71.09375 
Q 15.4375 72.65625 20.34375 73.4375 
Q 25.25 74.21875 29.59375 74.21875 
Q 40.828125 74.21875 47.359375 69.109375 
Q 53.90625 64.015625 53.90625 55.328125 
Q 53.90625 49.265625 50.4375 45.09375 
Q 46.96875 40.921875 40.578125 39.3125 
z
" id="DejaVuSans-51"/>
      </defs>
      <g transform="translate(464.39767 462.956562)scale(0.3 -0.3)">
       <use xlink:href="#DejaVuSans-51"/>
       <use x="63.623047" xlink:href="#DejaVuSans-48"/>
      </g>
     </g>
    </g>
    <g id="text_7">
     <!-- RADIUS -->
     <defs>
      <path d="M 7.328125 0 
L 7.328125 71.578125 
L 37.75 71.578125 
Q 49.21875 71.578125 54.421875 69.640625 
Q 59.625 67.71875 62.75 62.78125 
Q 65.875 57.859375 65.875 51.515625 
Q 65.875 43.453125 61.125 38.203125 
Q 56.390625 32.953125 46.96875 31.59375 
Q 51.65625 28.859375 54.703125 25.578125 
Q 57.765625 22.3125 62.9375 13.96875 
L 71.6875 0 
L 54.390625 0 
L 43.953125 15.578125 
Q 38.375 23.921875 36.328125 26.09375 
Q 34.28125 28.265625 31.984375 29.078125 
Q 29.6875 29.890625 24.703125 29.890625 
L 21.78125 29.890625 
L 21.78125 0 
z
M 21.78125 41.3125 
L 32.46875 41.3125 
Q 42.875 41.3125 45.453125 42.1875 
Q 48.046875 43.0625 49.515625 45.203125 
Q 50.984375 47.359375 50.984375 50.59375 
Q 50.984375 54.203125 49.046875 56.421875 
Q 47.125 58.640625 43.609375 59.234375 
Q 41.84375 59.46875 33.0625 59.46875 
L 21.78125 59.46875 
z
" id="Arial-BoldMT-82"/>
      <path d="M 71.828125 0 
L 56.109375 0 
L 49.859375 16.265625 
L 21.234375 16.265625 
L 15.328125 0 
L 0 0 
L 27.875 71.578125 
L 43.171875 71.578125 
z
M 45.21875 28.328125 
L 35.359375 54.890625 
L 25.6875 28.328125 
z
" id="Arial-BoldMT-65"/>
      <path d="M 7.234375 71.578125 
L 33.640625 71.578125 
Q 42.578125 71.578125 47.265625 70.21875 
Q 53.5625 68.359375 58.046875 63.625 
Q 62.546875 58.890625 64.890625 52.03125 
Q 67.234375 45.171875 67.234375 35.109375 
Q 67.234375 26.265625 65.046875 19.875 
Q 62.359375 12.0625 57.375 7.234375 
Q 53.609375 3.5625 47.21875 1.515625 
Q 42.4375 0 34.421875 0 
L 7.234375 0 
z
M 21.6875 59.46875 
L 21.6875 12.0625 
L 32.46875 12.0625 
Q 38.53125 12.0625 41.21875 12.75 
Q 44.734375 13.625 47.046875 15.71875 
Q 49.359375 17.828125 50.828125 22.625 
Q 52.296875 27.4375 52.296875 35.75 
Q 52.296875 44.046875 50.828125 48.484375 
Q 49.359375 52.9375 46.71875 55.421875 
Q 44.09375 57.90625 40.046875 58.796875 
Q 37.015625 59.46875 28.171875 59.46875 
z
" id="Arial-BoldMT-68"/>
      <path d="M 6.84375 0 
L 6.84375 71.578125 
L 21.296875 71.578125 
L 21.296875 0 
z
" id="Arial-BoldMT-73"/>
      <path d="M 7.171875 71.578125 
L 21.625 71.578125 
L 21.625 32.8125 
Q 21.625 23.578125 22.171875 20.84375 
Q 23.09375 16.453125 26.578125 13.796875 
Q 30.078125 11.140625 36.140625 11.140625 
Q 42.28125 11.140625 45.40625 13.640625 
Q 48.53125 16.15625 49.171875 19.8125 
Q 49.8125 23.484375 49.8125 31.984375 
L 49.8125 71.578125 
L 64.265625 71.578125 
L 64.265625 33.984375 
Q 64.265625 21.09375 63.09375 15.765625 
Q 61.921875 10.453125 58.765625 6.78125 
Q 55.609375 3.125 50.328125 0.953125 
Q 45.0625 -1.21875 36.578125 -1.21875 
Q 26.3125 -1.21875 21.015625 1.140625 
Q 15.71875 3.515625 12.640625 7.296875 
Q 9.578125 11.078125 8.59375 15.234375 
Q 7.171875 21.390625 7.171875 33.40625 
z
" id="Arial-BoldMT-85"/>
      <path d="M 3.609375 23.296875 
L 17.671875 24.65625 
Q 18.953125 17.578125 22.828125 14.25 
Q 26.703125 10.9375 33.296875 10.9375 
Q 40.28125 10.9375 43.8125 13.890625 
Q 47.359375 16.84375 47.359375 20.796875 
Q 47.359375 23.34375 45.875 25.125 
Q 44.390625 26.90625 40.671875 28.21875 
Q 38.140625 29.109375 29.109375 31.34375 
Q 17.484375 34.234375 12.796875 38.421875 
Q 6.203125 44.34375 6.203125 52.828125 
Q 6.203125 58.296875 9.296875 63.0625 
Q 12.40625 67.828125 18.234375 70.3125 
Q 24.078125 72.796875 32.328125 72.796875 
Q 45.796875 72.796875 52.609375 66.890625 
Q 59.421875 60.984375 59.765625 51.125 
L 45.3125 50.484375 
Q 44.390625 56 41.328125 58.421875 
Q 38.28125 60.84375 32.171875 60.84375 
Q 25.875 60.84375 22.3125 58.25 
Q 20.015625 56.59375 20.015625 53.8125 
Q 20.015625 51.265625 22.171875 49.46875 
Q 24.90625 47.171875 35.453125 44.671875 
Q 46 42.1875 51.046875 39.515625 
Q 56.109375 36.859375 58.953125 32.25 
Q 61.8125 27.640625 61.8125 20.84375 
Q 61.8125 14.703125 58.390625 9.328125 
Q 54.984375 3.953125 48.734375 1.34375 
Q 42.484375 -1.265625 33.15625 -1.265625 
Q 19.578125 -1.265625 12.296875 5 
Q 5.03125 11.28125 3.609375 23.296875 
z
" id="Arial-BoldMT-83"/>
     </defs>
     <g transform="translate(297.194687 493.51125)scale(0.2 -0.2)">
      <use xlink:href="#Arial-BoldMT-82"/>
      <use x="72.216797" xlink:href="#Arial-BoldMT-65"/>
      <use x="144.433594" xlink:href="#Arial-BoldMT-68"/>
      <use x="216.650391" xlink:href="#Arial-BoldMT-73"/>
      <use x="244.433594" xlink:href="#Arial-BoldMT-85"/>
      <use x="316.650391" xlink:href="#Arial-BoldMT-83"/>
     </g>
    </g>
   </g>
   <g id="matplotlib.axis_2">
    <g id="ytick_1">
     <g id="line2d_7">
      <defs>
       <path d="M 0 0 
L -3.5 0 
" id="m6f24bd9fe9" style="stroke:#000000;stroke-width:0.8;"/>
      </defs>
      <g>
       <use style="stroke:#000000;stroke-width:0.8;" x="140.230625" xlink:href="#m6f24bd9fe9" y="433.16125"/>
      </g>
     </g>
     <g id="text_8">
      <!-- 0 -->
      <g transform="translate(114.143125 444.558906)scale(0.3 -0.3)">
       <use xlink:href="#DejaVuSans-48"/>
      </g>
     </g>
    </g>
    <g id="ytick_2">
     <g id="line2d_8">
      <g>
       <use style="stroke:#000000;stroke-width:0.8;" x="140.230625" xlink:href="#m6f24bd9fe9" y="389.073659"/>
      </g>
     </g>
     <g id="text_9">
      <!-- 200 -->
      <g transform="translate(75.968125 400.471315)scale(0.3 -0.3)">
       <use xlink:href="#DejaVuSans-50"/>
       <use x="63.623047" xlink:href="#DejaVuSans-48"/>
       <use x="127.246094" xlink:href="#DejaVuSans-48"/>
      </g>
     </g>
    </g>
    <g id="ytick_3">
     <g id="line2d_9">
      <g>
       <use style="stroke:#000000;stroke-width:0.8;" x="140.230625" xlink:href="#m6f24bd9fe9" y="344.986068"/>
      </g>
     </g>
     <g id="text_10">
      <!-- 400 -->
      <defs>
       <path d="M 37.796875 64.3125 
L 12.890625 25.390625 
L 37.796875 25.390625 
z
M 35.203125 72.90625 
L 47.609375 72.90625 
L 47.609375 25.390625 
L 58.015625 25.390625 
L 58.015625 17.1875 
L 47.609375 17.1875 
L 47.609375 0 
L 37.796875 0 
L 37.796875 17.1875 
L 4.890625 17.1875 
L 4.890625 26.703125 
z
" id="DejaVuSans-52"/>
      </defs>
      <g transform="translate(75.968125 356.383724)scale(0.3 -0.3)">
       <use xlink:href="#DejaVuSans-52"/>
       <use x="63.623047" xlink:href="#DejaVuSans-48"/>
       <use x="127.246094" xlink:href="#DejaVuSans-48"/>
      </g>
     </g>
    </g>
    <g id="ytick_4">
     <g id="line2d_10">
      <g>
       <use style="stroke:#000000;stroke-width:0.8;" x="140.230625" xlink:href="#m6f24bd9fe9" y="300.898476"/>
      </g>
     </g>
     <g id="text_11">
      <!-- 600 -->
      <defs>
       <path d="M 33.015625 40.375 
Q 26.375 40.375 22.484375 35.828125 
Q 18.609375 31.296875 18.609375 23.390625 
Q 18.609375 15.53125 22.484375 10.953125 
Q 26.375 6.390625 33.015625 6.390625 
Q 39.65625 6.390625 43.53125 10.953125 
Q 47.40625 15.53125 47.40625 23.390625 
Q 47.40625 31.296875 43.53125 35.828125 
Q 39.65625 40.375 33.015625 40.375 
z
M 52.59375 71.296875 
L 52.59375 62.3125 
Q 48.875 64.0625 45.09375 64.984375 
Q 41.3125 65.921875 37.59375 65.921875 
Q 27.828125 65.921875 22.671875 59.328125 
Q 17.53125 52.734375 16.796875 39.40625 
Q 19.671875 43.65625 24.015625 45.921875 
Q 28.375 48.1875 33.59375 48.1875 
Q 44.578125 48.1875 50.953125 41.515625 
Q 57.328125 34.859375 57.328125 23.390625 
Q 57.328125 12.15625 50.6875 5.359375 
Q 44.046875 -1.421875 33.015625 -1.421875 
Q 20.359375 -1.421875 13.671875 8.265625 
Q 6.984375 17.96875 6.984375 36.375 
Q 6.984375 53.65625 15.1875 63.9375 
Q 23.390625 74.21875 37.203125 74.21875 
Q 40.921875 74.21875 44.703125 73.484375 
Q 48.484375 72.75 52.59375 71.296875 
z
" id="DejaVuSans-54"/>
      </defs>
      <g transform="translate(75.968125 312.296133)scale(0.3 -0.3)">
       <use xlink:href="#DejaVuSans-54"/>
       <use x="63.623047" xlink:href="#DejaVuSans-48"/>
       <use x="127.246094" xlink:href="#DejaVuSans-48"/>
      </g>
     </g>
    </g>
    <g id="ytick_5">
     <g id="line2d_11">
      <g>
       <use style="stroke:#000000;stroke-width:0.8;" x="140.230625" xlink:href="#m6f24bd9fe9" y="256.810885"/>
      </g>
     </g>
     <g id="text_12">
      <!-- 800 -->
      <defs>
       <path d="M 31.78125 34.625 
Q 24.75 34.625 20.71875 30.859375 
Q 16.703125 27.09375 16.703125 20.515625 
Q 16.703125 13.921875 20.71875 10.15625 
Q 24.75 6.390625 31.78125 6.390625 
Q 38.8125 6.390625 42.859375 10.171875 
Q 46.921875 13.96875 46.921875 20.515625 
Q 46.921875 27.09375 42.890625 30.859375 
Q 38.875 34.625 31.78125 34.625 
z
M 21.921875 38.8125 
Q 15.578125 40.375 12.03125 44.71875 
Q 8.5 49.078125 8.5 55.328125 
Q 8.5 64.0625 14.71875 69.140625 
Q 20.953125 74.21875 31.78125 74.21875 
Q 42.671875 74.21875 48.875 69.140625 
Q 55.078125 64.0625 55.078125 55.328125 
Q 55.078125 49.078125 51.53125 44.71875 
Q 48 40.375 41.703125 38.8125 
Q 48.828125 37.15625 52.796875 32.3125 
Q 56.78125 27.484375 56.78125 20.515625 
Q 56.78125 9.90625 50.3125 4.234375 
Q 43.84375 -1.421875 31.78125 -1.421875 
Q 19.734375 -1.421875 13.25 4.234375 
Q 6.78125 9.90625 6.78125 20.515625 
Q 6.78125 27.484375 10.78125 32.3125 
Q 14.796875 37.15625 21.921875 38.8125 
z
M 18.3125 54.390625 
Q 18.3125 48.734375 21.84375 45.5625 
Q 25.390625 42.390625 31.78125 42.390625 
Q 38.140625 42.390625 41.71875 45.5625 
Q 45.3125 48.734375 45.3125 54.390625 
Q 45.3125 60.0625 41.71875 63.234375 
Q 38.140625 66.40625 31.78125 66.40625 
Q 25.390625 66.40625 21.84375 63.234375 
Q 18.3125 60.0625 18.3125 54.390625 
z
" id="DejaVuSans-56"/>
      </defs>
      <g transform="translate(75.968125 268.208541)scale(0.3 -0.3)">
       <use xlink:href="#DejaVuSans-56"/>
       <use x="63.623047" xlink:href="#DejaVuSans-48"/>
       <use x="127.246094" xlink:href="#DejaVuSans-48"/>
      </g>
     </g>
    </g>
    <g id="ytick_6">
     <g id="line2d_12">
      <g>
       <use style="stroke:#000000;stroke-width:0.8;" x="140.230625" xlink:href="#m6f24bd9fe9" y="212.723294"/>
      </g>
     </g>
     <g id="text_13">
      <!-- 1000 -->
      <g transform="translate(56.880625 224.12095)scale(0.3 -0.3)">
       <use xlink:href="#DejaVuSans-49"/>
       <use x="63.623047" xlink:href="#DejaVuSans-48"/>
       <use x="127.246094" xlink:href="#DejaVuSans-48"/>
       <use x="190.869141" xlink:href="#DejaVuSans-48"/>
      </g>
     </g>
    </g>
    <g id="ytick_7">
     <g id="line2d_13">
      <g>
       <use style="stroke:#000000;stroke-width:0.8;" x="140.230625" xlink:href="#m6f24bd9fe9" y="168.635703"/>
      </g>
     </g>
     <g id="text_14">
      <!-- 1200 -->
      <g transform="translate(56.880625 180.033359)scale(0.3 -0.3)">
       <use xlink:href="#DejaVuSans-49"/>
       <use x="63.623047" xlink:href="#DejaVuSans-50"/>
       <use x="127.246094" xlink:href="#DejaVuSans-48"/>
       <use x="190.869141" xlink:href="#DejaVuSans-48"/>
      </g>
     </g>
    </g>
    <g id="ytick_8">
     <g id="line2d_14">
      <g>
       <use style="stroke:#000000;stroke-width:0.8;" x="140.230625" xlink:href="#m6f24bd9fe9" y="124.548111"/>
      </g>
     </g>
     <g id="text_15">
      <!-- 1400 -->
      <g transform="translate(56.880625 135.945768)scale(0.3 -0.3)">
       <use xlink:href="#DejaVuSans-49"/>
       <use x="63.623047" xlink:href="#DejaVuSans-52"/>
       <use x="127.246094" xlink:href="#DejaVuSans-48"/>
       <use x="190.869141" xlink:href="#DejaVuSans-48"/>
      </g>
     </g>
    </g>
    <g id="ytick_9">
     <g id="line2d_15">
      <g>
       <use style="stroke:#000000;stroke-width:0.8;" x="140.230625" xlink:href="#m6f24bd9fe9" y="80.46052"/>
      </g>
     </g>
     <g id="text_16">
      <!-- 1600 -->
      <g transform="translate(56.880625 91.858176)scale(0.3 -0.3)">
       <use xlink:href="#DejaVuSans-49"/>
       <use x="63.623047" xlink:href="#DejaVuSans-54"/>
       <use x="127.246094" xlink:href="#DejaVuSans-48"/>
       <use x="190.869141" xlink:href="#DejaVuSans-48"/>
      </g>
     </g>
    </g>
    <g id="text_17">
     <!-- CD8 -->
     <defs>
      <path d="M 53.078125 26.3125 
L 67.09375 21.875 
Q 63.875 10.15625 56.375 4.46875 
Q 48.875 -1.21875 37.359375 -1.21875 
Q 23.09375 -1.21875 13.90625 8.515625 
Q 4.734375 18.265625 4.734375 35.15625 
Q 4.734375 53.03125 13.953125 62.90625 
Q 23.1875 72.796875 38.234375 72.796875 
Q 51.375 72.796875 59.578125 65.046875 
Q 64.453125 60.453125 66.890625 51.859375 
L 52.59375 48.4375 
Q 51.3125 54 47.28125 57.21875 
Q 43.265625 60.453125 37.5 60.453125 
Q 29.546875 60.453125 24.578125 54.734375 
Q 19.625 49.03125 19.625 36.234375 
Q 19.625 22.65625 24.5 16.890625 
Q 29.390625 11.140625 37.203125 11.140625 
Q 42.96875 11.140625 47.109375 14.796875 
Q 51.265625 18.453125 53.078125 26.3125 
z
" id="Arial-BoldMT-67"/>
      <path d="M 16.015625 38.625 
Q 10.6875 40.875 8.265625 44.796875 
Q 5.859375 48.734375 5.859375 53.421875 
Q 5.859375 61.421875 11.453125 66.640625 
Q 17.046875 71.875 27.34375 71.875 
Q 37.546875 71.875 43.1875 66.640625 
Q 48.828125 61.421875 48.828125 53.421875 
Q 48.828125 48.4375 46.234375 44.546875 
Q 43.65625 40.671875 38.96875 38.625 
Q 44.921875 36.234375 48.015625 31.640625 
Q 51.125 27.046875 51.125 21.046875 
Q 51.125 11.140625 44.796875 4.9375 
Q 38.484375 -1.265625 27.984375 -1.265625 
Q 18.21875 -1.265625 11.71875 3.859375 
Q 4.046875 9.90625 4.046875 20.453125 
Q 4.046875 26.265625 6.921875 31.125 
Q 9.8125 35.984375 16.015625 38.625 
z
M 18.84375 52.4375 
Q 18.84375 48.34375 21.15625 46.046875 
Q 23.484375 43.75 27.34375 43.75 
Q 31.25 43.75 33.59375 46.0625 
Q 35.9375 48.390625 35.9375 52.484375 
Q 35.9375 56.34375 33.609375 58.65625 
Q 31.296875 60.984375 27.484375 60.984375 
Q 23.53125 60.984375 21.1875 58.640625 
Q 18.84375 56.296875 18.84375 52.4375 
z
M 17.578125 21.78125 
Q 17.578125 16.109375 20.484375 12.9375 
Q 23.390625 9.765625 27.734375 9.765625 
Q 31.984375 9.765625 34.765625 12.8125 
Q 37.546875 15.875 37.546875 21.625 
Q 37.546875 26.65625 34.71875 29.703125 
Q 31.890625 32.765625 27.546875 32.765625 
Q 22.515625 32.765625 20.046875 29.296875 
Q 17.578125 25.828125 17.578125 21.78125 
z
" id="Arial-BoldMT-56"/>
     </defs>
     <g transform="translate(21.253125 262.905937)rotate(-90)scale(0.2 -0.2)">
      <use xlink:href="#Arial-BoldMT-67"/>
      <use x="72.216797" xlink:href="#Arial-BoldMT-68"/>
      <use x="144.433594" xlink:href="#Arial-BoldMT-56"/>
     </g>
     <!-- CELL COUNTS (NUMBERS) -->
     <defs>
      <path d="M 7.28125 0 
L 7.28125 71.578125 
L 60.359375 71.578125 
L 60.359375 59.46875 
L 21.734375 59.46875 
L 21.734375 43.609375 
L 57.671875 43.609375 
L 57.671875 31.546875 
L 21.734375 31.546875 
L 21.734375 12.0625 
L 61.71875 12.0625 
L 61.71875 0 
z
" id="Arial-BoldMT-69"/>
      <path d="M 7.671875 0 
L 7.671875 71 
L 22.125 71 
L 22.125 12.0625 
L 58.0625 12.0625 
L 58.0625 0 
z
" id="Arial-BoldMT-76"/>
      <path id="Arial-BoldMT-32"/>
      <path d="M 4.34375 35.359375 
Q 4.34375 46.296875 7.625 53.71875 
Q 10.0625 59.1875 14.28125 63.53125 
Q 18.5 67.875 23.53125 69.96875 
Q 30.21875 72.796875 38.96875 72.796875 
Q 54.78125 72.796875 64.28125 62.984375 
Q 73.78125 53.171875 73.78125 35.6875 
Q 73.78125 18.359375 64.359375 8.5625 
Q 54.9375 -1.21875 39.15625 -1.21875 
Q 23.1875 -1.21875 13.765625 8.515625 
Q 4.34375 18.265625 4.34375 35.359375 
z
M 19.234375 35.84375 
Q 19.234375 23.6875 24.84375 17.40625 
Q 30.46875 11.140625 39.109375 11.140625 
Q 47.75 11.140625 53.296875 17.359375 
Q 58.84375 23.578125 58.84375 36.03125 
Q 58.84375 48.34375 53.4375 54.390625 
Q 48.046875 60.453125 39.109375 60.453125 
Q 30.171875 60.453125 24.703125 54.3125 
Q 19.234375 48.1875 19.234375 35.84375 
z
" id="Arial-BoldMT-79"/>
      <path d="M 7.421875 0 
L 7.421875 71.578125 
L 21.484375 71.578125 
L 50.78125 23.78125 
L 50.78125 71.578125 
L 64.203125 71.578125 
L 64.203125 0 
L 49.703125 0 
L 20.84375 46.6875 
L 20.84375 0 
z
" id="Arial-BoldMT-78"/>
      <path d="M 23.390625 0 
L 23.390625 59.46875 
L 2.15625 59.46875 
L 2.15625 71.578125 
L 59.03125 71.578125 
L 59.03125 59.46875 
L 37.84375 59.46875 
L 37.84375 0 
z
" id="Arial-BoldMT-84"/>
      <path d="M 29.9375 -21.046875 
L 20.515625 -21.046875 
Q 13.03125 -9.765625 9.125 2.390625 
Q 5.21875 14.546875 5.21875 25.921875 
Q 5.21875 40.046875 10.0625 52.640625 
Q 14.265625 63.578125 20.703125 72.796875 
L 30.078125 72.796875 
Q 23.390625 58.015625 20.875 47.625 
Q 18.359375 37.25 18.359375 25.640625 
Q 18.359375 17.625 19.84375 9.21875 
Q 21.34375 0.828125 23.921875 -6.734375 
Q 25.640625 -11.71875 29.9375 -21.046875 
z
" id="Arial-BoldMT-40"/>
      <path d="M 7.078125 0 
L 7.078125 71.578125 
L 28.71875 71.578125 
L 41.703125 22.75 
L 54.546875 71.578125 
L 76.21875 71.578125 
L 76.21875 0 
L 62.796875 0 
L 62.796875 56.34375 
L 48.578125 0 
L 34.671875 0 
L 20.515625 56.34375 
L 20.515625 0 
z
" id="Arial-BoldMT-77"/>
      <path d="M 7.328125 71.578125 
L 35.9375 71.578125 
Q 44.4375 71.578125 48.609375 70.875 
Q 52.78125 70.171875 56.078125 67.921875 
Q 59.375 65.671875 61.5625 61.9375 
Q 63.765625 58.203125 63.765625 53.5625 
Q 63.765625 48.53125 61.046875 44.328125 
Q 58.34375 40.140625 53.71875 38.03125 
Q 60.25 36.140625 63.765625 31.546875 
Q 67.28125 26.953125 67.28125 20.75 
Q 67.28125 15.875 65.015625 11.25 
Q 62.75 6.640625 58.8125 3.875 
Q 54.890625 1.125 49.125 0.484375 
Q 45.515625 0.09375 31.6875 0 
L 7.328125 0 
z
M 21.78125 59.671875 
L 21.78125 43.109375 
L 31.25 43.109375 
Q 39.703125 43.109375 41.75 43.359375 
Q 45.453125 43.796875 47.578125 45.921875 
Q 49.703125 48.046875 49.703125 51.515625 
Q 49.703125 54.828125 47.875 56.90625 
Q 46.046875 58.984375 42.4375 59.421875 
Q 40.28125 59.671875 30.078125 59.671875 
z
M 21.78125 31.203125 
L 21.78125 12.0625 
L 35.15625 12.0625 
Q 42.96875 12.0625 45.0625 12.5 
Q 48.296875 13.09375 50.3125 15.359375 
Q 52.34375 17.625 52.34375 21.4375 
Q 52.34375 24.65625 50.78125 26.90625 
Q 49.21875 29.15625 46.265625 30.171875 
Q 43.3125 31.203125 33.453125 31.203125 
z
" id="Arial-BoldMT-66"/>
      <path d="M 3.375 -21.046875 
Q 7.421875 -12.359375 9.078125 -7.71875 
Q 10.75 -3.078125 12.15625 2.96875 
Q 13.578125 9.03125 14.25 14.46875 
Q 14.9375 19.921875 14.9375 25.640625 
Q 14.9375 37.25 12.453125 47.625 
Q 9.96875 58.015625 3.265625 72.796875 
L 12.59375 72.796875 
Q 19.96875 62.3125 24.046875 50.53125 
Q 28.125 38.765625 28.125 26.65625 
Q 28.125 16.453125 24.90625 4.78125 
Q 21.234375 -8.296875 12.84375 -21.046875 
z
" id="Arial-BoldMT-41"/>
     </defs>
     <g transform="translate(42.67125 374.002812)rotate(-90)scale(0.2 -0.2)">
      <use xlink:href="#Arial-BoldMT-67"/>
      <use x="72.216797" xlink:href="#Arial-BoldMT-69"/>
      <use x="138.916016" xlink:href="#Arial-BoldMT-76"/>
      <use x="200" xlink:href="#Arial-BoldMT-76"/>
      <use x="261.068359" xlink:href="#Arial-BoldMT-32"/>
      <use x="288.851562" xlink:href="#Arial-BoldMT-67"/>
      <use x="361.068359" xlink:href="#Arial-BoldMT-79"/>
      <use x="438.851562" xlink:href="#Arial-BoldMT-85"/>
      <use x="511.068359" xlink:href="#Arial-BoldMT-78"/>
      <use x="583.285156" xlink:href="#Arial-BoldMT-84"/>
      <use x="644.369141" xlink:href="#Arial-BoldMT-83"/>
      <use x="711.068359" xlink:href="#Arial-BoldMT-32"/>
      <use x="738.851562" xlink:href="#Arial-BoldMT-40"/>
      <use x="772.152344" xlink:href="#Arial-BoldMT-78"/>
      <use x="844.369141" xlink:href="#Arial-BoldMT-85"/>
      <use x="916.585938" xlink:href="#Arial-BoldMT-77"/>
      <use x="999.886719" xlink:href="#Arial-BoldMT-66"/>
      <use x="1072.103516" xlink:href="#Arial-BoldMT-69"/>
      <use x="1138.802734" xlink:href="#Arial-BoldMT-82"/>
      <use x="1211.019531" xlink:href="#Arial-BoldMT-83"/>
      <use x="1277.71875" xlink:href="#Arial-BoldMT-41"/>
     </g>
    </g>
   </g>
   <g id="line2d_16">
    <path clip-path="url(#p5e444bac21)" d="M 140.230625 433.16125 
L 152.066989 432.940812 
L 163.903352 428.532053 
L 175.739716 421.478038 
L 187.57608 407.149571 
L 199.412443 390.175849 
L 211.248807 376.729133 
L 223.08517 395.025484 
L 234.921534 376.067819 
L 246.757898 374.96563 
L 258.594261 363.06198 
L 270.430625 350.056141 
L 282.266989 345.647381 
L 294.103352 319.415265 
L 305.939716 298.914535 
L 317.77608 270.478038 
L 329.612443 251.96125 
L 341.448807 261.440082 
L 353.28517 266.951031 
L 365.121534 250.418184 
L 376.957898 235.648841 
L 388.794261 235.869279 
L 400.630625 222.202126 
L 412.466989 215.368549 
L 424.303352 192.443002 
L 436.139716 206.771469 
L 447.97608 199.276578 
L 459.812443 203.024024 
L 471.648807 214.707235 
L 483.48517 210.298476 
L 495.321534 210.078038 
L 507.157898 163.345192 
L 518.994261 171.501396 
L 530.830625 216.911615 
" style="fill:none;stroke:#08306b;stroke-linecap:square;stroke-width:1.5;"/>
   </g>
   <g id="line2d_17">
    <path clip-path="url(#p5e444bac21)" d="M 140.230625 433.16125 
L 152.066989 429.634243 
L 163.903352 425.005046 
L 175.739716 414.644462 
L 187.57608 415.526214 
L 199.412443 412.440082 
L 211.248807 406.047381 
L 223.08517 387.971469 
L 234.921534 379.815265 
L 246.757898 370.336432 
L 258.594261 343.002126 
L 270.430625 311.479498 
L 282.266989 278.634243 
L 294.103352 273.123294 
L 305.939716 270.478038 
L 317.77608 259.897016 
L 329.612443 289.435703 
L 341.448807 277.311615 
L 353.28517 274.445922 
L 365.121534 249.977308 
L 376.957898 266.289717 
L 388.794261 253.945192 
L 400.630625 240.939352 
L 412.466989 235.428403 
L 424.303352 228.815265 
L 436.139716 244.245922 
L 447.97608 229.035703 
L 459.812443 228.815265 
L 471.648807 194.867819 
L 483.48517 162.904316 
L 495.321534 157.393367 
L 507.157898 142.183148 
L 518.994261 142.403586 
L 530.830625 144.828403 
" style="fill:none;stroke:#08306b;stroke-linecap:square;stroke-width:1.5;"/>
   </g>
   <g id="line2d_18">
    <path clip-path="url(#p5e444bac21)" d="M 140.230625 433.16125 
L 152.066989 420.816724 
L 163.903352 417.951031 
L 175.739716 410.015265 
L 187.57608 406.267819 
L 199.412443 383.121834 
L 211.248807 374.083878 
L 223.08517 362.621104 
L 234.921534 344.324754 
L 246.757898 330.216724 
L 258.594261 345.426943 
L 270.430625 325.587527 
L 282.266989 327.791907 
L 294.103352 317.431323 
L 305.939716 295.167089 
L 317.77608 310.597746 
L 329.612443 288.774389 
L 341.448807 294.946651 
L 353.28517 280.397746 
L 365.121534 287.451761 
L 376.957898 283.483878 
L 388.794261 276.870739 
L 400.630625 252.843002 
L 412.466989 231.019644 
L 424.303352 236.751031 
L 436.139716 189.797746 
L 447.97608 141.96271 
L 459.812443 139.317454 
L 471.648807 143.946651 
L 483.48517 146.591907 
L 495.321534 136.892637 
L 507.157898 126.752491 
L 518.994261 123.886797 
L 530.830625 169.95833 
" style="fill:none;stroke:#08306b;stroke-linecap:square;stroke-width:1.5;"/>
   </g>
   <g id="line2d_19">
    <path clip-path="url(#p5e444bac21)" d="M 140.230625 433.16125 
L 152.066989 426.988987 
L 163.903352 421.478038 
L 175.739716 397.450301 
L 187.57608 367.470739 
L 199.412443 356.669279 
L 211.248807 368.132053 
L 223.08517 369.013805 
L 234.921534 368.132053 
L 246.757898 380.697016 
L 258.594261 338.152491 
L 270.430625 349.174389 
L 282.266989 323.16271 
L 294.103352 301.118914 
L 305.939716 300.678038 
L 317.77608 295.387527 
L 329.612443 260.999206 
L 341.448807 246.891177 
L 353.28517 250.638622 
L 365.121534 284.36563 
L 376.957898 243.805046 
L 388.794261 254.826943 
L 400.630625 236.530593 
L 412.466989 223.083878 
L 424.303352 213.605046 
L 436.139716 212.282418 
L 447.97608 209.416724 
L 459.812443 197.513075 
L 471.648807 177.012345 
L 483.48517 167.974389 
L 495.321534 165.549571 
L 507.157898 173.485338 
L 518.994261 154.086797 
L 530.830625 194.647381 
" style="fill:none;stroke:#08306b;stroke-linecap:square;stroke-width:1.5;"/>
   </g>
   <g id="line2d_20">
    <path clip-path="url(#p5e444bac21)" d="M 140.230625 431.397746 
L 152.066989 424.343732 
L 163.903352 408.251761 
L 175.739716 400.315995 
L 187.57608 399.434243 
L 199.412443 391.0576 
L 211.248807 393.702856 
L 223.08517 390.396286 
L 234.921534 392.380228 
L 246.757898 380.917454 
L 258.594261 357.330593 
L 270.430625 352.701396 
L 282.266989 344.76563 
L 294.103352 311.920374 
L 305.939716 296.710155 
L 317.77608 276.209425 
L 329.612443 245.348111 
L 341.448807 226.831323 
L 353.28517 233.6649 
L 365.121534 257.251761 
L 376.957898 290.097016 
L 388.794261 324.705776 
L 400.630625 330.437162 
L 412.466989 310.818184 
L 424.303352 276.870739 
L 436.139716 230.137892 
L 447.97608 175.910155 
L 459.812443 162.022564 
L 471.648807 166.210885 
L 483.48517 136.231323 
L 495.321534 130.499936 
L 507.157898 121.021104 
L 518.994261 117.714535 
L 530.830625 153.205046 
" style="fill:none;stroke:#08306b;stroke-linecap:square;stroke-width:1.5;"/>
   </g>
   <g id="line2d_21">
    <path clip-path="url(#p5e444bac21)" d="M 140.230625 433.16125 
L 152.066989 427.429863 
L 163.903352 410.676578 
L 175.739716 405.16563 
L 187.57608 408.251761 
L 199.412443 403.843002 
L 211.248807 405.16563 
L 223.08517 392.380228 
L 234.921534 388.632783 
L 246.757898 379.594827 
L 258.594261 350.937892 
L 270.430625 317.651761 
L 282.266989 321.840082 
L 294.103352 316.108695 
L 305.939716 309.054681 
L 317.77608 283.26344 
L 329.612443 250.85906 
L 341.448807 252.402126 
L 353.28517 260.778768 
L 365.121534 229.256141 
L 376.957898 256.590447 
L 388.794261 230.137892 
L 400.630625 240.939352 
L 412.466989 264.085338 
L 424.303352 271.139352 
L 436.139716 294.285338 
L 447.97608 296.048841 
L 459.812443 270.918914 
L 471.648807 258.574389 
L 483.48517 216.250301 
L 495.321534 182.302856 
L 507.157898 158.495557 
L 518.994261 138.656141 
L 530.830625 141.301396 
" style="fill:none;stroke:#08306b;stroke-linecap:square;stroke-width:1.5;"/>
   </g>
   <g id="line2d_22">
    <path clip-path="url(#p5e444bac21)" d="M 140.230625 433.16125 
L 152.066989 431.397746 
L 163.903352 427.870739 
L 175.739716 418.391907 
L 187.57608 402.740812 
L 199.412443 390.175849 
L 211.248807 378.713075 
L 223.08517 372.981688 
L 234.921534 355.567089 
L 246.757898 331.098476 
L 258.594261 331.980228 
L 270.430625 333.96417 
L 282.266989 323.603586 
L 294.103352 316.770009 
L 305.939716 306.188987 
L 317.77608 286.129133 
L 329.612443 269.816724 
L 341.448807 243.584608 
L 353.28517 254.386068 
L 365.121534 218.234243 
L 376.957898 230.137892 
L 388.794261 224.626943 
L 400.630625 228.153951 
L 412.466989 253.724754 
L 424.303352 217.132053 
L 436.139716 223.745192 
L 447.97608 233.885338 
L 459.812443 221.76125 
L 471.648807 212.282418 
L 483.48517 159.818184 
L 495.321534 157.613805 
L 507.157898 139.978768 
L 518.994261 103.386068 
L 530.830625 109.117454 
" style="fill:none;stroke:#08306b;stroke-linecap:square;stroke-width:1.5;"/>
   </g>
   <g id="line2d_23">
    <path clip-path="url(#p5e444bac21)" d="M 140.230625 431.618184 
L 152.066989 426.107235 
L 163.903352 412.880958 
L 175.739716 400.315995 
L 187.57608 389.955411 
L 199.412443 368.132053 
L 211.248807 351.378768 
L 223.08517 341.018184 
L 234.921534 331.098476 
L 246.757898 357.991907 
L 258.594261 358.212345 
L 270.430625 321.399206 
L 282.266989 330.216724 
L 294.103352 344.986068 
L 305.939716 334.625484 
L 317.77608 337.270739 
L 329.612443 318.313075 
L 341.448807 302.882418 
L 353.28517 260.117454 
L 365.121534 236.751031 
L 376.957898 232.342272 
L 388.794261 257.692637 
L 400.630625 268.053221 
L 412.466989 267.171469 
L 424.303352 239.396286 
L 436.139716 201.921834 
L 447.97608 223.96563 
L 459.812443 221.099936 
L 471.648807 224.847381 
L 483.48517 216.250301 
L 495.321534 171.942272 
L 507.157898 134.688257 
L 518.994261 102.283878 
L 530.830625 129.838622 
" style="fill:none;stroke:#08306b;stroke-linecap:square;stroke-width:1.5;"/>
   </g>
   <g id="line2d_24">
    <path clip-path="url(#p5e444bac21)" d="M 140.230625 433.16125 
L 152.066989 425.445922 
L 163.903352 417.510155 
L 175.739716 421.037162 
L 187.57608 418.832783 
L 199.412443 413.76271 
L 211.248807 407.149571 
L 223.08517 400.095557 
L 234.921534 385.546651 
L 246.757898 375.186068 
L 258.594261 364.384608 
L 270.430625 368.572929 
L 282.266989 343.883878 
L 294.103352 325.587527 
L 305.939716 305.968549 
L 317.77608 310.377308 
L 329.612443 299.355411 
L 341.448807 312.581688 
L 353.28517 296.048841 
L 365.121534 278.854681 
L 376.957898 248.654681 
L 388.794261 248.213805 
L 400.630625 235.428403 
L 412.466989 228.815265 
L 424.303352 209.196286 
L 436.139716 213.605046 
L 447.97608 191.340812 
L 459.812443 188.915995 
L 471.648807 176.791907 
L 483.48517 159.818184 
L 495.321534 137.553951 
L 507.157898 105.370009 
L 518.994261 94.568549 
L 530.830625 70.76125 
" style="fill:none;stroke:#08306b;stroke-linecap:square;stroke-width:1.5;"/>
   </g>
   <g id="line2d_25">
    <path clip-path="url(#p5e444bac21)" d="M 140.230625 433.16125 
L 152.066989 430.736432 
L 163.903352 421.918914 
L 175.739716 422.800666 
L 187.57608 414.644462 
L 199.412443 404.283878 
L 211.248807 385.546651 
L 223.08517 362.841542 
L 234.921534 363.282418 
L 246.757898 333.523294 
L 258.594261 307.511615 
L 270.430625 320.517454 
L 282.266989 331.75979 
L 294.103352 333.082418 
L 305.939716 332.641542 
L 317.77608 308.834243 
L 329.612443 310.597746 
L 341.448807 311.479498 
L 353.28517 285.026943 
L 365.121534 244.466359 
L 376.957898 248.213805 
L 388.794261 221.981688 
L 400.630625 204.346651 
L 412.466989 200.599206 
L 424.303352 231.240082 
L 436.139716 246.670739 
L 447.97608 246.891177 
L 459.812443 225.949571 
L 471.648807 201.040082 
L 483.48517 158.715995 
L 495.321534 145.489717 
L 507.157898 132.704316 
L 518.994261 158.054681 
L 530.830625 195.970009 
" style="fill:none;stroke:#08306b;stroke-linecap:square;stroke-width:1.5;"/>
   </g>
   <g id="line2d_26">
    <path clip-path="url(#p5e444bac21)" d="M 140.230625 433.16125 
L 152.066989 433.16125 
L 163.903352 429.193367 
L 175.739716 420.596286 
L 187.57608 413.542272 
L 199.412443 409.353951 
L 211.248807 404.283878 
L 223.08517 404.945192 
L 234.921534 408.913075 
L 246.757898 415.085338 
L 258.594261 412.880958 
L 270.430625 411.999206 
L 282.266989 399.654681 
L 294.103352 388.853221 
L 305.939716 379.594827 
L 317.77608 373.86344 
L 329.612443 365.486797 
L 341.448807 354.685338 
L 353.28517 366.588987 
L 365.121534 348.953951 
L 376.957898 353.803586 
L 388.794261 350.497016 
L 400.630625 343.883878 
L 412.466989 356.889717 
L 424.303352 345.426943 
L 436.139716 339.915995 
L 447.97608 337.270739 
L 459.812443 333.743732 
L 471.648807 321.619644 
L 483.48517 330.216724 
L 495.321534 308.834243 
L 507.157898 281.279498 
L 518.994261 290.537892 
L 530.830625 289.656141 
" style="fill:none;stroke:#4a98c9;stroke-linecap:square;stroke-width:1.5;"/>
   </g>
   <g id="line2d_27">
    <path clip-path="url(#p5e444bac21)" d="M 140.230625 433.16125 
L 152.066989 431.618184 
L 163.903352 428.311615 
L 175.739716 420.375849 
L 187.57608 423.021104 
L 199.412443 418.832783 
L 211.248807 410.015265 
L 223.08517 408.251761 
L 234.921534 414.8649 
L 246.757898 404.504316 
L 258.594261 408.472199 
L 270.430625 393.26198 
L 282.266989 368.793367 
L 294.103352 370.777308 
L 305.939716 358.212345 
L 317.77608 345.647381 
L 329.612443 348.292637 
L 341.448807 356.228403 
L 353.28517 357.551031 
L 365.121534 364.384608 
L 376.957898 370.336432 
L 388.794261 354.905776 
L 400.630625 345.206505 
L 412.466989 352.480958 
L 424.303352 338.593367 
L 436.139716 350.276578 
L 447.97608 341.899936 
L 459.812443 330.216724 
L 471.648807 328.453221 
L 483.48517 319.635703 
L 495.321534 292.080958 
L 507.157898 278.413805 
L 518.994261 277.311615 
L 530.830625 319.194827 
" style="fill:none;stroke:#4a98c9;stroke-linecap:square;stroke-width:1.5;"/>
   </g>
   <g id="line2d_28">
    <path clip-path="url(#p5e444bac21)" d="M 140.230625 433.16125 
L 152.066989 430.736432 
L 163.903352 428.532053 
L 175.739716 422.139352 
L 187.57608 414.424024 
L 199.412443 417.069279 
L 211.248807 409.794827 
L 223.08517 403.402126 
L 234.921534 400.536432 
L 246.757898 391.278038 
L 258.594261 382.240082 
L 270.430625 385.767089 
L 282.266989 389.514535 
L 294.103352 385.105776 
L 305.939716 387.751031 
L 317.77608 392.821104 
L 329.612443 385.326214 
L 341.448807 377.831323 
L 353.28517 379.594827 
L 365.121534 372.099936 
L 376.957898 366.588987 
L 388.794261 360.8576 
L 400.630625 353.583148 
L 412.466989 346.529133 
L 424.303352 333.082418 
L 436.139716 331.098476 
L 447.97608 327.571469 
L 459.812443 330.6576 
L 471.648807 341.45906 
L 483.48517 331.098476 
L 495.321534 314.124754 
L 507.157898 277.972929 
L 518.994261 295.167089 
L 530.830625 347.410885 
" style="fill:none;stroke:#4a98c9;stroke-linecap:square;stroke-width:1.5;"/>
   </g>
   <g id="line2d_29">
    <path clip-path="url(#p5e444bac21)" d="M 140.230625 432.279498 
L 152.066989 430.075119 
L 163.903352 424.784608 
L 175.739716 414.8649 
L 187.57608 404.945192 
L 199.412443 406.488257 
L 211.248807 397.891177 
L 223.08517 399.875119 
L 234.921534 397.450301 
L 246.757898 413.983148 
L 258.594261 411.117454 
L 270.430625 401.418184 
L 282.266989 384.6649 
L 294.103352 383.56271 
L 305.939716 386.207965 
L 317.77608 382.680958 
L 329.612443 375.626943 
L 341.448807 360.8576 
L 353.28517 355.567089 
L 365.121534 343.002126 
L 376.957898 351.819644 
L 388.794261 341.238622 
L 400.630625 336.829863 
L 412.466989 311.038622 
L 424.303352 290.537892 
L 436.139716 302.221104 
L 447.97608 324.485338 
L 459.812443 337.270739 
L 471.648807 330.878038 
L 483.48517 317.210885 
L 495.321534 311.25906 
L 507.157898 304.645922 
L 518.994261 307.952491 
L 530.830625 342.340812 
" style="fill:none;stroke:#4a98c9;stroke-linecap:square;stroke-width:1.5;"/>
   </g>
   <g id="line2d_30">
    <path clip-path="url(#p5e444bac21)" d="M 140.230625 432.499936 
L 152.066989 430.075119 
L 163.903352 421.478038 
L 175.739716 422.139352 
L 187.57608 416.848841 
L 199.412443 409.574389 
L 211.248807 408.251761 
L 223.08517 411.778768 
L 234.921534 412.66052 
L 246.757898 407.149571 
L 258.594261 396.568549 
L 270.430625 381.578768 
L 282.266989 382.680958 
L 294.103352 376.949571 
L 305.939716 372.76125 
L 317.77608 352.701396 
L 329.612443 341.899936 
L 341.448807 348.733513 
L 353.28517 348.513075 
L 365.121534 361.95979 
L 376.957898 379.594827 
L 388.794261 380.697016 
L 400.630625 394.36417 
L 412.466989 378.713075 
L 424.303352 359.534973 
L 436.139716 340.35687 
L 447.97608 310.15687 
L 459.812443 310.818184 
L 471.648807 294.505776 
L 483.48517 310.818184 
L 495.321534 293.403586 
L 507.157898 295.607965 
L 518.994261 309.495557 
L 530.830625 354.905776 
" style="fill:none;stroke:#4a98c9;stroke-linecap:square;stroke-width:1.5;"/>
   </g>
   <g id="line2d_31">
    <path clip-path="url(#p5e444bac21)" d="M 140.230625 433.16125 
L 152.066989 432.940812 
L 163.903352 427.209425 
L 175.739716 423.241542 
L 187.57608 428.532053 
L 199.412443 425.225484 
L 211.248807 421.037162 
L 223.08517 421.918914 
L 234.921534 413.542272 
L 246.757898 405.386068 
L 258.594261 399.213805 
L 270.430625 395.245922 
L 282.266989 393.702856 
L 294.103352 374.304316 
L 305.939716 369.895557 
L 317.77608 357.110155 
L 329.612443 341.45906 
L 341.448807 341.238622 
L 353.28517 344.104316 
L 365.121534 336.609425 
L 376.957898 333.082418 
L 388.794261 321.619644 
L 400.630625 334.845922 
L 412.466989 350.056141 
L 424.303352 331.539352 
L 436.139716 367.470739 
L 447.97608 366.588987 
L 459.812443 363.282418 
L 471.648807 363.723294 
L 483.48517 347.410885 
L 495.321534 300.4576 
L 507.157898 253.283878 
L 518.994261 259.676578 
L 530.830625 288.113075 
" style="fill:none;stroke:#4a98c9;stroke-linecap:square;stroke-width:1.5;"/>
   </g>
   <g id="line2d_32">
    <path clip-path="url(#p5e444bac21)" d="M 140.230625 433.16125 
L 152.066989 432.279498 
L 163.903352 429.634243 
L 175.739716 422.580228 
L 187.57608 421.037162 
L 199.412443 420.155411 
L 211.248807 420.155411 
L 223.08517 416.628403 
L 234.921534 417.069279 
L 246.757898 403.622564 
L 258.594261 398.552491 
L 270.430625 391.0576 
L 282.266989 384.003586 
L 294.103352 376.508695 
L 305.939716 363.723294 
L 317.77608 381.137892 
L 329.612443 372.540812 
L 341.448807 359.094097 
L 353.28517 344.545192 
L 365.121534 342.56125 
L 376.957898 357.991907 
L 388.794261 339.034243 
L 400.630625 346.529133 
L 412.466989 341.45906 
L 424.303352 347.190447 
L 436.139716 336.829863 
L 447.97608 343.222564 
L 459.812443 329.114535 
L 471.648807 333.96417 
L 483.48517 322.06052 
L 495.321534 315.667819 
L 507.157898 292.96271 
L 518.994261 285.467819 
L 530.830625 328.232783 
" style="fill:none;stroke:#4a98c9;stroke-linecap:square;stroke-width:1.5;"/>
   </g>
   <g id="line2d_33">
    <path clip-path="url(#p5e444bac21)" d="M 140.230625 432.720374 
L 152.066989 427.650301 
L 163.903352 426.988987 
L 175.739716 420.596286 
L 187.57608 414.424024 
L 199.412443 411.778768 
L 211.248807 410.456141 
L 223.08517 400.536432 
L 234.921534 397.891177 
L 246.757898 397.670739 
L 258.594261 385.767089 
L 270.430625 373.86344 
L 282.266989 377.390447 
L 294.103352 383.783148 
L 305.939716 377.610885 
L 317.77608 370.115995 
L 329.612443 350.717454 
L 341.448807 346.749571 
L 353.28517 354.024024 
L 365.121534 352.921834 
L 376.957898 339.695557 
L 388.794261 344.76563 
L 400.630625 362.400666 
L 412.466989 361.298476 
L 424.303352 338.152491 
L 436.139716 331.980228 
L 447.97608 328.894097 
L 459.812443 341.679498 
L 471.648807 342.120374 
L 483.48517 338.813805 
L 495.321534 306.850301 
L 507.157898 305.748111 
L 518.994261 294.946651 
L 530.830625 332.200666 
" style="fill:none;stroke:#4a98c9;stroke-linecap:square;stroke-width:1.5;"/>
   </g>
   <g id="line2d_34">
    <path clip-path="url(#p5e444bac21)" d="M 140.230625 432.279498 
L 152.066989 430.295557 
L 163.903352 428.532053 
L 175.739716 427.650301 
L 187.57608 426.548111 
L 199.412443 424.784608 
L 211.248807 425.225484 
L 223.08517 414.424024 
L 234.921534 410.676578 
L 246.757898 400.095557 
L 258.594261 380.917454 
L 270.430625 382.680958 
L 282.266989 374.96563 
L 294.103352 380.476578 
L 305.939716 362.841542 
L 317.77608 372.981688 
L 329.612443 363.282418 
L 341.448807 371.879498 
L 353.28517 364.384608 
L 365.121534 337.932053 
L 376.957898 346.308695 
L 388.794261 338.593367 
L 400.630625 329.775849 
L 412.466989 315.667819 
L 424.303352 309.715995 
L 436.139716 312.802126 
L 447.97608 318.092637 
L 459.812443 322.501396 
L 471.648807 314.124754 
L 483.48517 336.609425 
L 495.321534 293.624024 
L 507.157898 260.55833 
L 518.994261 252.843002 
L 530.830625 295.387527 
" style="fill:none;stroke:#4a98c9;stroke-linecap:square;stroke-width:1.5;"/>
   </g>
   <g id="line2d_35">
    <path clip-path="url(#p5e444bac21)" d="M 140.230625 433.16125 
L 152.066989 433.16125 
L 163.903352 432.279498 
L 175.739716 430.515995 
L 187.57608 425.445922 
L 199.412443 415.305776 
L 211.248807 410.676578 
L 223.08517 388.853221 
L 234.921534 383.56271 
L 246.757898 374.745192 
L 258.594261 378.933513 
L 270.430625 384.6649 
L 282.266989 373.643002 
L 294.103352 387.089717 
L 305.939716 382.240082 
L 317.77608 378.492637 
L 329.612443 376.288257 
L 341.448807 383.56271 
L 353.28517 359.094097 
L 365.121534 356.448841 
L 376.957898 349.174389 
L 388.794261 346.970009 
L 400.630625 338.813805 
L 412.466989 358.873659 
L 424.303352 338.813805 
L 436.139716 357.551031 
L 447.97608 342.781688 
L 459.812443 321.178768 
L 471.648807 302.000666 
L 483.48517 301.55979 
L 495.321534 286.790447 
L 507.157898 262.321834 
L 518.994261 279.736432 
L 530.830625 308.172929 
" style="fill:none;stroke:#4a98c9;stroke-linecap:square;stroke-width:1.5;"/>
   </g>
   <g id="line2d_36">
    <path clip-path="url(#p5e444bac21)" d="M 140.230625 433.16125 
L 152.066989 432.499936 
L 163.903352 425.005046 
L 175.739716 422.35979 
L 187.57608 419.714535 
L 199.412443 415.526214 
L 211.248807 410.897016 
L 223.08517 410.015265 
L 234.921534 412.219644 
L 246.757898 404.504316 
L 258.594261 407.149571 
L 270.430625 415.085338 
L 282.266989 398.993367 
L 294.103352 400.536432 
L 305.939716 395.907235 
L 317.77608 381.799206 
L 329.612443 382.240082 
L 341.448807 377.170009 
L 353.28517 384.003586 
L 365.121534 379.374389 
L 376.957898 378.713075 
L 388.794261 377.170009 
L 400.630625 378.933513 
L 412.466989 375.626943 
L 424.303352 366.809425 
L 436.139716 371.438622 
L 447.97608 358.873659 
L 459.812443 366.368549 
L 471.648807 361.739352 
L 483.48517 353.142272 
L 495.321534 341.018184 
L 507.157898 335.507235 
L 518.994261 356.448841 
L 530.830625 382.901396 
" style="fill:none;stroke:#d0e1f2;stroke-linecap:square;stroke-width:1.5;"/>
   </g>
   <g id="line2d_37">
    <path clip-path="url(#p5e444bac21)" d="M 140.230625 433.16125 
L 152.066989 430.95687 
L 163.903352 430.295557 
L 175.739716 417.730593 
L 187.57608 413.76271 
L 199.412443 412.66052 
L 211.248807 410.897016 
L 223.08517 415.967089 
L 234.921534 421.918914 
L 246.757898 414.8649 
L 258.594261 411.778768 
L 270.430625 391.939352 
L 282.266989 390.175849 
L 294.103352 384.885338 
L 305.939716 378.492637 
L 317.77608 369.454681 
L 329.612443 386.648841 
L 341.448807 397.009425 
L 353.28517 387.310155 
L 365.121534 391.498476 
L 376.957898 387.751031 
L 388.794261 378.051761 
L 400.630625 364.825484 
L 412.466989 366.148111 
L 424.303352 370.997746 
L 436.139716 357.771469 
L 447.97608 349.615265 
L 459.812443 357.771469 
L 471.648807 346.970009 
L 483.48517 348.733513 
L 495.321534 349.394827 
L 507.157898 354.024024 
L 518.994261 352.26052 
L 530.830625 378.272199 
" style="fill:none;stroke:#d0e1f2;stroke-linecap:square;stroke-width:1.5;"/>
   </g>
   <g id="line2d_38">
    <path clip-path="url(#p5e444bac21)" d="M 140.230625 433.16125 
L 152.066989 430.95687 
L 163.903352 426.768549 
L 175.739716 421.478038 
L 187.57608 417.730593 
L 199.412443 415.085338 
L 211.248807 413.76271 
L 223.08517 415.526214 
L 234.921534 406.047381 
L 246.757898 403.402126 
L 258.594261 404.283878 
L 270.430625 403.622564 
L 282.266989 390.175849 
L 294.103352 386.207965 
L 305.939716 386.648841 
L 317.77608 389.294097 
L 329.612443 376.508695 
L 341.448807 387.310155 
L 353.28517 387.751031 
L 365.121534 386.648841 
L 376.957898 385.987527 
L 388.794261 388.853221 
L 400.630625 385.767089 
L 412.466989 378.713075 
L 424.303352 372.320374 
L 436.139716 372.540812 
L 447.97608 363.723294 
L 459.812443 353.36271 
L 471.648807 351.819644 
L 483.48517 346.088257 
L 495.321534 343.002126 
L 507.157898 318.092637 
L 518.994261 351.15833 
L 530.830625 384.6649 
" style="fill:none;stroke:#d0e1f2;stroke-linecap:square;stroke-width:1.5;"/>
   </g>
   <g id="line2d_39">
    <path clip-path="url(#p5e444bac21)" d="M 140.230625 433.16125 
L 152.066989 430.736432 
L 163.903352 428.311615 
L 175.739716 425.666359 
L 187.57608 422.35979 
L 199.412443 414.8649 
L 211.248807 417.510155 
L 223.08517 403.622564 
L 234.921534 413.101396 
L 246.757898 412.66052 
L 258.594261 410.015265 
L 270.430625 407.370009 
L 282.266989 400.75687 
L 294.103352 389.955411 
L 305.939716 396.788987 
L 317.77608 388.191907 
L 329.612443 382.901396 
L 341.448807 374.96563 
L 353.28517 376.067819 
L 365.121534 386.648841 
L 376.957898 382.901396 
L 388.794261 381.35833 
L 400.630625 385.105776 
L 412.466989 364.16417 
L 424.303352 371.218184 
L 436.139716 370.115995 
L 447.97608 360.637162 
L 459.812443 354.685338 
L 471.648807 348.953951 
L 483.48517 328.232783 
L 495.321534 316.549571 
L 507.157898 326.028403 
L 518.994261 347.190447 
L 530.830625 370.336432 
" style="fill:none;stroke:#d0e1f2;stroke-linecap:square;stroke-width:1.5;"/>
   </g>
   <g id="line2d_40">
    <path clip-path="url(#p5e444bac21)" d="M 140.230625 433.16125 
L 152.066989 431.177308 
L 163.903352 425.005046 
L 175.739716 426.107235 
L 187.57608 426.548111 
L 199.412443 420.816724 
L 211.248807 421.2576 
L 223.08517 421.037162 
L 234.921534 417.730593 
L 246.757898 417.069279 
L 258.594261 417.289717 
L 270.430625 409.574389 
L 282.266989 405.386068 
L 294.103352 394.805046 
L 305.939716 385.987527 
L 317.77608 370.115995 
L 329.612443 375.186068 
L 341.448807 365.045922 
L 353.28517 362.400666 
L 365.121534 380.697016 
L 376.957898 373.86344 
L 388.794261 377.610885 
L 400.630625 394.143732 
L 412.466989 388.412345 
L 424.303352 373.422564 
L 436.139716 373.643002 
L 447.97608 355.787527 
L 459.812443 354.4649 
L 471.648807 342.781688 
L 483.48517 347.851761 
L 495.321534 339.695557 
L 507.157898 346.749571 
L 518.994261 362.621104 
L 530.830625 385.987527 
" style="fill:none;stroke:#d0e1f2;stroke-linecap:square;stroke-width:1.5;"/>
   </g>
   <g id="line2d_41">
    <path clip-path="url(#p5e444bac21)" d="M 140.230625 431.838622 
L 152.066989 432.940812 
L 163.903352 426.768549 
L 175.739716 425.886797 
L 187.57608 428.311615 
L 199.412443 429.193367 
L 211.248807 428.091177 
L 223.08517 420.375849 
L 234.921534 420.155411 
L 246.757898 409.133513 
L 258.594261 398.552491 
L 270.430625 389.294097 
L 282.266989 390.396286 
L 294.103352 395.686797 
L 305.939716 398.111615 
L 317.77608 386.648841 
L 329.612443 378.051761 
L 341.448807 365.927673 
L 353.28517 369.013805 
L 365.121534 359.975849 
L 376.957898 363.282418 
L 388.794261 368.352491 
L 400.630625 368.793367 
L 412.466989 374.304316 
L 424.303352 377.170009 
L 436.139716 375.186068 
L 447.97608 364.16417 
L 459.812443 375.626943 
L 471.648807 382.680958 
L 483.48517 361.298476 
L 495.321534 344.104316 
L 507.157898 313.243002 
L 518.994261 309.495557 
L 530.830625 356.007965 
" style="fill:none;stroke:#d0e1f2;stroke-linecap:square;stroke-width:1.5;"/>
   </g>
   <g id="line2d_42">
    <path clip-path="url(#p5e444bac21)" d="M 140.230625 433.16125 
L 152.066989 431.397746 
L 163.903352 431.618184 
L 175.739716 426.327673 
L 187.57608 424.123294 
L 199.412443 426.107235 
L 211.248807 418.171469 
L 223.08517 415.746651 
L 234.921534 415.746651 
L 246.757898 398.552491 
L 258.594261 396.127673 
L 270.430625 398.332053 
L 282.266989 397.670739 
L 294.103352 395.686797 
L 305.939716 396.568549 
L 317.77608 386.428403 
L 329.612443 391.939352 
L 341.448807 378.051761 
L 353.28517 371.438622 
L 365.121534 371.879498 
L 376.957898 381.137892 
L 388.794261 370.115995 
L 400.630625 367.911615 
L 412.466989 365.927673 
L 424.303352 370.997746 
L 436.139716 371.438622 
L 447.97608 368.572929 
L 459.812443 367.029863 
L 471.648807 354.024024 
L 483.48517 356.228403 
L 495.321534 351.599206 
L 507.157898 337.270739 
L 518.994261 341.899936 
L 530.830625 377.831323 
" style="fill:none;stroke:#d0e1f2;stroke-linecap:square;stroke-width:1.5;"/>
   </g>
   <g id="line2d_43">
    <path clip-path="url(#p5e444bac21)" d="M 140.230625 430.515995 
L 152.066989 429.193367 
L 163.903352 421.698476 
L 175.739716 418.612345 
L 187.57608 412.66052 
L 199.412443 414.424024 
L 211.248807 409.353951 
L 223.08517 404.283878 
L 234.921534 405.826943 
L 246.757898 401.197746 
L 258.594261 401.197746 
L 270.430625 393.26198 
L 282.266989 395.025484 
L 294.103352 403.622564 
L 305.939716 402.740812 
L 317.77608 400.75687 
L 329.612443 400.315995 
L 341.448807 395.466359 
L 353.28517 385.987527 
L 365.121534 375.626943 
L 376.957898 361.298476 
L 388.794261 379.374389 
L 400.630625 371.65906 
L 412.466989 369.675119 
L 424.303352 350.937892 
L 436.139716 339.475119 
L 447.97608 344.76563 
L 459.812443 371.218184 
L 471.648807 363.943732 
L 483.48517 354.905776 
L 495.321534 357.991907 
L 507.157898 362.621104 
L 518.994261 362.400666 
L 530.830625 402.96125 
" style="fill:none;stroke:#d0e1f2;stroke-linecap:square;stroke-width:1.5;"/>
   </g>
   <g id="line2d_44">
    <path clip-path="url(#p5e444bac21)" d="M 140.230625 432.940812 
L 152.066989 432.279498 
L 163.903352 432.499936 
L 175.739716 432.05906 
L 187.57608 428.091177 
L 199.412443 424.343732 
L 211.248807 419.494097 
L 223.08517 416.187527 
L 234.921534 413.321834 
L 246.757898 410.235703 
L 258.594261 395.907235 
L 270.430625 404.283878 
L 282.266989 394.143732 
L 294.103352 392.380228 
L 305.939716 386.869279 
L 317.77608 391.0576 
L 329.612443 389.955411 
L 341.448807 390.175849 
L 353.28517 390.616724 
L 365.121534 382.240082 
L 376.957898 376.949571 
L 388.794261 371.65906 
L 400.630625 377.390447 
L 412.466989 371.218184 
L 424.303352 365.927673 
L 436.139716 380.035703 
L 447.97608 371.879498 
L 459.812443 363.943732 
L 471.648807 356.228403 
L 483.48517 345.206505 
L 495.321534 329.114535 
L 507.157898 325.367089 
L 518.994261 331.098476 
L 530.830625 370.55687 
" style="fill:none;stroke:#d0e1f2;stroke-linecap:square;stroke-width:1.5;"/>
   </g>
   <g id="line2d_45">
    <path clip-path="url(#p5e444bac21)" d="M 140.230625 433.16125 
L 152.066989 432.499936 
L 163.903352 431.618184 
L 175.739716 431.177308 
L 187.57608 425.886797 
L 199.412443 420.816724 
L 211.248807 415.085338 
L 223.08517 394.143732 
L 234.921534 403.402126 
L 246.757898 392.821104 
L 258.594261 393.702856 
L 270.430625 397.450301 
L 282.266989 401.197746 
L 294.103352 401.197746 
L 305.939716 391.278038 
L 317.77608 396.127673 
L 329.612443 398.552491 
L 341.448807 382.46052 
L 353.28517 377.610885 
L 365.121534 378.051761 
L 376.957898 381.137892 
L 388.794261 382.680958 
L 400.630625 371.879498 
L 412.466989 372.76125 
L 424.303352 368.132053 
L 436.139716 379.374389 
L 447.97608 368.793367 
L 459.812443 367.691177 
L 471.648807 356.007965 
L 483.48517 337.932053 
L 495.321534 344.104316 
L 507.157898 347.190447 
L 518.994261 354.4649 
L 530.830625 381.35833 
" style="fill:none;stroke:#d0e1f2;stroke-linecap:square;stroke-width:1.5;"/>
   </g>
   <g id="line2d_46">
    <path clip-path="url(#p5e444bac21)" d="M 140.230625 432.499936 
L 152.066989 430.736432 
L 163.903352 422.580228 
L 175.739716 415.085338 
L 187.57608 402.520374 
L 199.412443 397.450301 
L 211.248807 387.751031 
L 223.08517 378.272199 
L 234.921534 380.256141 
L 246.757898 385.105776 
L 258.594261 384.6649 
L 270.430625 388.191907 
L 282.266989 398.993367 
L 294.103352 355.787527 
L 305.939716 318.313075 
L 317.77608 281.940812 
L 329.612443 274.666359 
L 341.448807 297.371469 
L 353.28517 285.908695 
L 365.121534 260.999206 
L 376.957898 260.337892 
L 388.794261 265.628403 
L 400.630625 275.107235 
L 412.466989 281.05906 
L 424.303352 270.478038 
L 436.139716 285.247381 
L 447.97608 278.634243 
L 459.812443 255.267819 
L 471.648807 246.009425 
L 483.48517 262.321834 
L 495.321534 238.514535 
L 507.157898 222.202126 
L 518.994261 210.518914 
L 530.830625 257.913075 
" style="fill:none;stroke:#1764ab;stroke-linecap:square;stroke-width:1.5;"/>
   </g>
   <g id="line2d_47">
    <path clip-path="url(#p5e444bac21)" d="M 140.230625 432.940812 
L 152.066989 430.075119 
L 163.903352 426.327673 
L 175.739716 416.628403 
L 187.57608 404.724754 
L 199.412443 405.826943 
L 211.248807 394.36417 
L 223.08517 387.089717 
L 234.921534 393.923294 
L 246.757898 392.15979 
L 258.594261 371.218184 
L 270.430625 341.899936 
L 282.266989 332.421104 
L 294.103352 332.641542 
L 305.939716 296.930593 
L 317.77608 294.726214 
L 329.612443 304.425484 
L 341.448807 288.113075 
L 353.28517 295.387527 
L 365.121534 310.15687 
L 376.957898 307.732053 
L 388.794261 307.952491 
L 400.630625 274.886797 
L 412.466989 257.913075 
L 424.303352 247.332053 
L 436.139716 238.955411 
L 447.97608 268.714535 
L 459.812443 290.097016 
L 471.648807 273.343732 
L 483.48517 272.021104 
L 495.321534 273.56417 
L 507.157898 253.724754 
L 518.994261 242.482418 
L 530.830625 277.532053 
" style="fill:none;stroke:#1764ab;stroke-linecap:square;stroke-width:1.5;"/>
   </g>
   <g id="line2d_48">
    <path clip-path="url(#p5e444bac21)" d="M 140.230625 433.16125 
L 152.066989 432.940812 
L 163.903352 430.075119 
L 175.739716 413.542272 
L 187.57608 413.321834 
L 199.412443 394.36417 
L 211.248807 389.955411 
L 223.08517 384.224024 
L 234.921534 358.873659 
L 246.757898 355.346651 
L 258.594261 345.867819 
L 270.430625 339.475119 
L 282.266989 336.609425 
L 294.103352 344.104316 
L 305.939716 327.791907 
L 317.77608 340.797746 
L 329.612443 326.910155 
L 341.448807 312.581688 
L 353.28517 308.172929 
L 365.121534 298.473659 
L 376.957898 307.291177 
L 388.794261 322.721834 
L 400.630625 289.876578 
L 412.466989 290.097016 
L 424.303352 271.800666 
L 436.139716 250.638622 
L 447.97608 269.375849 
L 459.812443 261.66052 
L 471.648807 230.137892 
L 483.48517 210.739352 
L 495.321534 196.190447 
L 507.157898 177.673659 
L 518.994261 160.920374 
L 530.830625 159.597746 
" style="fill:none;stroke:#1764ab;stroke-linecap:square;stroke-width:1.5;"/>
   </g>
   <g id="line2d_49">
    <path clip-path="url(#p5e444bac21)" d="M 140.230625 432.940812 
L 152.066989 432.499936 
L 163.903352 428.532053 
L 175.739716 426.768549 
L 187.57608 404.945192 
L 199.412443 396.348111 
L 211.248807 378.272199 
L 223.08517 376.729133 
L 234.921534 386.207965 
L 246.757898 395.245922 
L 258.594261 403.843002 
L 270.430625 395.025484 
L 282.266989 385.105776 
L 294.103352 350.717454 
L 305.939716 355.126214 
L 317.77608 347.410885 
L 329.612443 302.882418 
L 341.448807 303.323294 
L 353.28517 284.36563 
L 365.121534 295.387527 
L 376.957898 292.301396 
L 388.794261 270.2576 
L 400.630625 244.025484 
L 412.466989 227.713075 
L 424.303352 229.035703 
L 436.139716 230.578768 
L 447.97608 239.175849 
L 459.812443 244.245922 
L 471.648807 244.907235 
L 483.48517 204.567089 
L 495.321534 190.018184 
L 507.157898 207.873659 
L 518.994261 212.943732 
L 530.830625 237.632783 
" style="fill:none;stroke:#1764ab;stroke-linecap:square;stroke-width:1.5;"/>
   </g>
   <g id="line2d_50">
    <path clip-path="url(#p5e444bac21)" d="M 140.230625 433.16125 
L 152.066989 428.532053 
L 163.903352 419.714535 
L 175.739716 409.794827 
L 187.57608 408.031323 
L 199.412443 397.670739 
L 211.248807 389.294097 
L 223.08517 402.740812 
L 234.921534 403.402126 
L 246.757898 399.654681 
L 258.594261 387.751031 
L 270.430625 366.588987 
L 282.266989 361.739352 
L 294.103352 353.142272 
L 305.939716 344.324754 
L 317.77608 322.942272 
L 329.612443 296.710155 
L 341.448807 302.000666 
L 353.28517 283.704316 
L 365.121534 295.828403 
L 376.957898 321.399206 
L 388.794261 331.980228 
L 400.630625 349.174389 
L 412.466989 317.431323 
L 424.303352 275.988987 
L 436.139716 247.993367 
L 447.97608 212.282418 
L 459.812443 228.153951 
L 471.648807 211.841542 
L 483.48517 217.352491 
L 495.321534 168.194827 
L 507.157898 190.679498 
L 518.994261 228.374389 
L 530.830625 264.746651 
" style="fill:none;stroke:#1764ab;stroke-linecap:square;stroke-width:1.5;"/>
   </g>
   <g id="line2d_51">
    <path clip-path="url(#p5e444bac21)" d="M 140.230625 432.940812 
L 152.066989 426.548111 
L 163.903352 412.880958 
L 175.739716 409.794827 
L 187.57608 414.8649 
L 199.412443 410.015265 
L 211.248807 411.999206 
L 223.08517 417.069279 
L 234.921534 401.197746 
L 246.757898 393.923294 
L 258.594261 377.831323 
L 270.430625 362.841542 
L 282.266989 359.534973 
L 294.103352 343.002126 
L 305.939716 344.545192 
L 317.77608 323.603586 
L 329.612443 295.607965 
L 341.448807 282.381688 
L 353.28517 287.231323 
L 365.121534 280.397746 
L 376.957898 273.784608 
L 388.794261 279.295557 
L 400.630625 285.467819 
L 412.466989 293.624024 
L 424.303352 309.275119 
L 436.139716 313.683878 
L 447.97608 302.221104 
L 459.812443 269.816724 
L 471.648807 275.548111 
L 483.48517 252.181688 
L 495.321534 192.66344 
L 507.157898 173.485338 
L 518.994261 129.838622 
L 530.830625 152.76417 
" style="fill:none;stroke:#1764ab;stroke-linecap:square;stroke-width:1.5;"/>
   </g>
   <g id="line2d_52">
    <path clip-path="url(#p5e444bac21)" d="M 140.230625 433.16125 
L 152.066989 432.720374 
L 163.903352 431.618184 
L 175.739716 420.596286 
L 187.57608 404.724754 
L 199.412443 401.85906 
L 211.248807 402.96125 
L 223.08517 391.718914 
L 234.921534 385.546651 
L 246.757898 343.443002 
L 258.594261 342.340812 
L 270.430625 339.254681 
L 282.266989 317.431323 
L 294.103352 344.104316 
L 305.939716 336.388987 
L 317.77608 320.076578 
L 329.612443 319.194827 
L 341.448807 302.66198 
L 353.28517 301.55979 
L 365.121534 288.994827 
L 376.957898 284.586068 
L 388.794261 254.606505 
L 400.630625 268.934973 
L 412.466989 253.504316 
L 424.303352 236.530593 
L 436.139716 227.272199 
L 447.97608 224.406505 
L 459.812443 230.137892 
L 471.648807 234.326214 
L 483.48517 236.089717 
L 495.321534 203.685338 
L 507.157898 186.932053 
L 518.994261 182.96417 
L 530.830625 216.470739 
" style="fill:none;stroke:#1764ab;stroke-linecap:square;stroke-width:1.5;"/>
   </g>
   <g id="line2d_53">
    <path clip-path="url(#p5e444bac21)" d="M 140.230625 433.16125 
L 152.066989 429.854681 
L 163.903352 420.596286 
L 175.739716 409.574389 
L 187.57608 400.977308 
L 199.412443 389.955411 
L 211.248807 368.352491 
L 223.08517 360.8576 
L 234.921534 364.384608 
L 246.757898 354.244462 
L 258.594261 329.775849 
L 270.430625 322.280958 
L 282.266989 329.555411 
L 294.103352 341.238622 
L 305.939716 357.110155 
L 317.77608 341.238622 
L 329.612443 329.114535 
L 341.448807 335.948111 
L 353.28517 314.56563 
L 365.121534 290.097016 
L 376.957898 314.345192 
L 388.794261 295.387527 
L 400.630625 326.910155 
L 412.466989 307.732053 
L 424.303352 262.76271 
L 436.139716 252.843002 
L 447.97608 233.224024 
L 459.812443 269.155411 
L 471.648807 271.35979 
L 483.48517 247.552491 
L 495.321534 229.256141 
L 507.157898 189.797746 
L 518.994261 163.786068 
L 530.830625 185.168549 
" style="fill:none;stroke:#1764ab;stroke-linecap:square;stroke-width:1.5;"/>
   </g>
   <g id="line2d_54">
    <path clip-path="url(#p5e444bac21)" d="M 140.230625 432.720374 
L 152.066989 432.05906 
L 163.903352 431.618184 
L 175.739716 430.95687 
L 187.57608 425.666359 
L 199.412443 409.794827 
L 211.248807 404.504316 
L 223.08517 386.648841 
L 234.921534 382.019644 
L 246.757898 380.697016 
L 258.594261 362.621104 
L 270.430625 352.921834 
L 282.266989 339.475119 
L 294.103352 334.845922 
L 305.939716 329.555411 
L 317.77608 343.66344 
L 329.612443 341.679498 
L 341.448807 321.619644 
L 353.28517 300.237162 
L 365.121534 300.237162 
L 376.957898 304.425484 
L 388.794261 271.580228 
L 400.630625 281.05906 
L 412.466989 275.768549 
L 424.303352 250.197746 
L 436.139716 274.225484 
L 447.97608 256.370009 
L 459.812443 229.697016 
L 471.648807 195.749571 
L 483.48517 206.991907 
L 495.321534 205.007965 
L 507.157898 181.641542 
L 518.994261 186.270739 
L 530.830625 237.191907 
" style="fill:none;stroke:#1764ab;stroke-linecap:square;stroke-width:1.5;"/>
   </g>
   <g id="line2d_55">
    <path clip-path="url(#p5e444bac21)" d="M 140.230625 433.16125 
L 152.066989 433.16125 
L 163.903352 429.193367 
L 175.739716 430.515995 
L 187.57608 424.123294 
L 199.412443 418.612345 
L 211.248807 389.514535 
L 223.08517 375.406505 
L 234.921534 374.083878 
L 246.757898 363.282418 
L 258.594261 355.567089 
L 270.430625 352.040082 
L 282.266989 331.75979 
L 294.103352 315.447381 
L 305.939716 319.856141 
L 317.77608 338.152491 
L 329.612443 337.932053 
L 341.448807 318.313075 
L 353.28517 307.952491 
L 365.121534 290.75833 
L 376.957898 275.988987 
L 388.794261 258.353951 
L 400.630625 262.101396 
L 412.466989 256.370009 
L 424.303352 264.305776 
L 436.139716 246.450301 
L 447.97608 244.907235 
L 459.812443 227.051761 
L 471.648807 241.821104 
L 483.48517 212.282418 
L 495.321534 187.152491 
L 507.157898 160.699936 
L 518.994261 170.399206 
L 530.830625 191.120374 
" style="fill:none;stroke:#1764ab;stroke-linecap:square;stroke-width:1.5;"/>
   </g>
   <g id="line2d_56">
    <path clip-path="url(#p5e444bac21)" d="M 140.230625 432.720374 
L 152.066989 431.177308 
L 163.903352 423.241542 
L 175.739716 420.816724 
L 187.57608 413.542272 
L 199.412443 412.880958 
L 211.248807 414.8649 
L 223.08517 415.746651 
L 234.921534 416.407965 
L 246.757898 412.440082 
L 258.594261 413.983148 
L 270.430625 410.456141 
L 282.266989 397.229863 
L 294.103352 384.444462 
L 305.939716 384.003586 
L 317.77608 364.384608 
L 329.612443 372.981688 
L 341.448807 350.056141 
L 353.28517 350.717454 
L 365.121534 351.599206 
L 376.957898 350.717454 
L 388.794261 356.228403 
L 400.630625 353.803586 
L 412.466989 363.723294 
L 424.303352 346.088257 
L 436.139716 352.480958 
L 447.97608 355.787527 
L 459.812443 341.899936 
L 471.648807 336.829863 
L 483.48517 326.028403 
L 495.321534 290.537892 
L 507.157898 300.678038 
L 518.994261 323.824024 
L 530.830625 351.599206 
" style="fill:none;stroke:#94c4df;stroke-linecap:square;stroke-width:1.5;"/>
   </g>
   <g id="line2d_57">
    <path clip-path="url(#p5e444bac21)" d="M 140.230625 433.16125 
L 152.066989 430.736432 
L 163.903352 420.816724 
L 175.739716 426.768549 
L 187.57608 423.021104 
L 199.412443 419.053221 
L 211.248807 416.187527 
L 223.08517 408.913075 
L 234.921534 410.676578 
L 246.757898 413.76271 
L 258.594261 406.929133 
L 270.430625 393.482418 
L 282.266989 378.713075 
L 294.103352 372.76125 
L 305.939716 375.847381 
L 317.77608 372.540812 
L 329.612443 369.454681 
L 341.448807 367.029863 
L 353.28517 367.250301 
L 365.121534 373.202126 
L 376.957898 376.067819 
L 388.794261 383.121834 
L 400.630625 370.55687 
L 412.466989 359.314535 
L 424.303352 352.040082 
L 436.139716 339.034243 
L 447.97608 338.372929 
L 459.812443 334.405046 
L 471.648807 339.475119 
L 483.48517 353.142272 
L 495.321534 341.679498 
L 507.157898 344.104316 
L 518.994261 357.551031 
L 530.830625 386.428403 
" style="fill:none;stroke:#94c4df;stroke-linecap:square;stroke-width:1.5;"/>
   </g>
   <g id="line2d_58">
    <path clip-path="url(#p5e444bac21)" d="M 140.230625 433.16125 
L 152.066989 432.720374 
L 163.903352 431.177308 
L 175.739716 426.988987 
L 187.57608 419.934973 
L 199.412443 413.542272 
L 211.248807 404.945192 
L 223.08517 399.875119 
L 234.921534 387.751031 
L 246.757898 388.412345 
L 258.594261 389.514535 
L 270.430625 393.702856 
L 282.266989 396.568549 
L 294.103352 387.751031 
L 305.939716 384.6649 
L 317.77608 385.546651 
L 329.612443 372.099936 
L 341.448807 368.352491 
L 353.28517 368.793367 
L 365.121534 375.626943 
L 376.957898 385.105776 
L 388.794261 387.310155 
L 400.630625 385.326214 
L 412.466989 362.621104 
L 424.303352 346.088257 
L 436.139716 337.711615 
L 447.97608 328.894097 
L 459.812443 339.034243 
L 471.648807 321.178768 
L 483.48517 337.711615 
L 495.321534 322.501396 
L 507.157898 325.146651 
L 518.994261 333.96417 
L 530.830625 362.841542 
" style="fill:none;stroke:#94c4df;stroke-linecap:square;stroke-width:1.5;"/>
   </g>
   <g id="line2d_59">
    <path clip-path="url(#p5e444bac21)" d="M 140.230625 433.16125 
L 152.066989 430.515995 
L 163.903352 427.650301 
L 175.739716 426.107235 
L 187.57608 420.375849 
L 199.412443 411.999206 
L 211.248807 407.590447 
L 223.08517 398.772929 
L 234.921534 404.06344 
L 246.757898 407.370009 
L 258.594261 405.16563 
L 270.430625 400.977308 
L 282.266989 396.127673 
L 294.103352 377.610885 
L 305.939716 383.342272 
L 317.77608 382.46052 
L 329.612443 375.626943 
L 341.448807 372.981688 
L 353.28517 380.256141 
L 365.121534 379.153951 
L 376.957898 372.76125 
L 388.794261 376.067819 
L 400.630625 375.626943 
L 412.466989 356.007965 
L 424.303352 356.007965 
L 436.139716 349.615265 
L 447.97608 348.072199 
L 459.812443 341.45906 
L 471.648807 322.501396 
L 483.48517 297.591907 
L 495.321534 303.102856 
L 507.157898 297.812345 
L 518.994261 328.232783 
L 530.830625 359.755411 
" style="fill:none;stroke:#94c4df;stroke-linecap:square;stroke-width:1.5;"/>
   </g>
   <g id="line2d_60">
    <path clip-path="url(#p5e444bac21)" d="M 140.230625 433.16125 
L 152.066989 430.295557 
L 163.903352 420.155411 
L 175.739716 417.951031 
L 187.57608 418.832783 
L 199.412443 412.219644 
L 211.248807 418.171469 
L 223.08517 420.155411 
L 234.921534 419.714535 
L 246.757898 416.187527 
L 258.594261 408.251761 
L 270.430625 402.299936 
L 282.266989 397.450301 
L 294.103352 383.56271 
L 305.939716 378.933513 
L 317.77608 363.06198 
L 329.612443 347.190447 
L 341.448807 355.126214 
L 353.28517 366.148111 
L 365.121534 368.793367 
L 376.957898 382.240082 
L 388.794261 389.514535 
L 400.630625 388.191907 
L 412.466989 378.051761 
L 424.303352 356.448841 
L 436.139716 344.104316 
L 447.97608 333.523294 
L 459.812443 340.35687 
L 471.648807 326.689717 
L 483.48517 325.807965 
L 495.321534 306.850301 
L 507.157898 334.625484 
L 518.994261 343.222564 
L 530.830625 377.831323 
" style="fill:none;stroke:#94c4df;stroke-linecap:square;stroke-width:1.5;"/>
   </g>
   <g id="line2d_61">
    <path clip-path="url(#p5e444bac21)" d="M 140.230625 433.16125 
L 152.066989 433.16125 
L 163.903352 427.870739 
L 175.739716 424.784608 
L 187.57608 425.886797 
L 199.412443 428.311615 
L 211.248807 424.784608 
L 223.08517 422.580228 
L 234.921534 419.714535 
L 246.757898 409.794827 
L 258.594261 406.047381 
L 270.430625 398.993367 
L 282.266989 392.380228 
L 294.103352 387.971469 
L 305.939716 391.498476 
L 317.77608 373.202126 
L 329.612443 353.36271 
L 341.448807 343.883878 
L 353.28517 351.599206 
L 365.121534 349.394827 
L 376.957898 351.15833 
L 388.794261 351.378768 
L 400.630625 346.308695 
L 412.466989 354.024024 
L 424.303352 354.024024 
L 436.139716 361.078038 
L 447.97608 364.384608 
L 459.812443 358.212345 
L 471.648807 354.244462 
L 483.48517 351.15833 
L 495.321534 329.114535 
L 507.157898 297.371469 
L 518.994261 292.96271 
L 530.830625 330.878038 
" style="fill:none;stroke:#94c4df;stroke-linecap:square;stroke-width:1.5;"/>
   </g>
   <g id="line2d_62">
    <path clip-path="url(#p5e444bac21)" d="M 140.230625 433.16125 
L 152.066989 431.838622 
L 163.903352 429.413805 
L 175.739716 426.107235 
L 187.57608 421.918914 
L 199.412443 415.085338 
L 211.248807 411.337892 
L 223.08517 402.740812 
L 234.921534 405.606505 
L 246.757898 380.035703 
L 258.594261 377.610885 
L 270.430625 370.777308 
L 282.266989 387.530593 
L 294.103352 392.821104 
L 305.939716 384.003586 
L 317.77608 385.326214 
L 329.612443 376.288257 
L 341.448807 379.374389 
L 353.28517 365.486797 
L 365.121534 357.771469 
L 376.957898 357.330593 
L 388.794261 355.126214 
L 400.630625 351.15833 
L 412.466989 364.384608 
L 424.303352 352.26052 
L 436.139716 351.819644 
L 447.97608 351.599206 
L 459.812443 349.174389 
L 471.648807 340.136432 
L 483.48517 345.867819 
L 495.321534 343.222564 
L 507.157898 344.545192 
L 518.994261 331.539352 
L 530.830625 356.889717 
" style="fill:none;stroke:#94c4df;stroke-linecap:square;stroke-width:1.5;"/>
   </g>
   <g id="line2d_63">
    <path clip-path="url(#p5e444bac21)" d="M 140.230625 432.940812 
L 152.066989 431.397746 
L 163.903352 426.988987 
L 175.739716 421.478038 
L 187.57608 409.574389 
L 199.412443 406.488257 
L 211.248807 402.96125 
L 223.08517 397.450301 
L 234.921534 402.079498 
L 246.757898 395.686797 
L 258.594261 396.788987 
L 270.430625 385.105776 
L 282.266989 389.955411 
L 294.103352 388.191907 
L 305.939716 385.105776 
L 317.77608 386.648841 
L 329.612443 378.272199 
L 341.448807 372.981688 
L 353.28517 379.153951 
L 365.121534 368.793367 
L 376.957898 378.492637 
L 388.794261 367.691177 
L 400.630625 364.16417 
L 412.466989 348.733513 
L 424.303352 354.4649 
L 436.139716 352.040082 
L 447.97608 347.631323 
L 459.812443 344.986068 
L 471.648807 332.200666 
L 483.48517 338.813805 
L 495.321534 323.383148 
L 507.157898 330.878038 
L 518.994261 346.529133 
L 530.830625 389.514535 
" style="fill:none;stroke:#94c4df;stroke-linecap:square;stroke-width:1.5;"/>
   </g>
   <g id="line2d_64">
    <path clip-path="url(#p5e444bac21)" d="M 140.230625 432.279498 
L 152.066989 423.902856 
L 163.903352 425.886797 
L 175.739716 428.752491 
L 187.57608 426.548111 
L 199.412443 426.768549 
L 211.248807 423.46198 
L 223.08517 417.510155 
L 234.921534 414.8649 
L 246.757898 402.079498 
L 258.594261 392.821104 
L 270.430625 390.175849 
L 282.266989 379.815265 
L 294.103352 378.492637 
L 305.939716 370.777308 
L 317.77608 376.949571 
L 329.612443 372.099936 
L 341.448807 380.917454 
L 353.28517 373.202126 
L 365.121534 365.266359 
L 376.957898 372.099936 
L 388.794261 363.723294 
L 400.630625 370.997746 
L 412.466989 360.196286 
L 424.303352 361.739352 
L 436.139716 347.631323 
L 447.97608 354.244462 
L 459.812443 353.803586 
L 471.648807 346.529133 
L 483.48517 333.743732 
L 495.321534 303.323294 
L 507.157898 298.694097 
L 518.994261 314.345192 
L 530.830625 371.879498 
" style="fill:none;stroke:#94c4df;stroke-linecap:square;stroke-width:1.5;"/>
   </g>
   <g id="line2d_65">
    <path clip-path="url(#p5e444bac21)" d="M 140.230625 433.16125 
L 152.066989 432.720374 
L 163.903352 431.397746 
L 175.739716 431.397746 
L 187.57608 425.666359 
L 199.412443 421.037162 
L 211.248807 414.424024 
L 223.08517 392.600666 
L 234.921534 390.396286 
L 246.757898 384.6649 
L 258.594261 374.745192 
L 270.430625 397.670739 
L 282.266989 386.869279 
L 294.103352 375.626943 
L 305.939716 373.643002 
L 317.77608 377.831323 
L 329.612443 381.137892 
L 341.448807 374.083878 
L 353.28517 374.083878 
L 365.121534 355.567089 
L 376.957898 341.45906 
L 388.794261 353.36271 
L 400.630625 349.394827 
L 412.466989 350.937892 
L 424.303352 365.266359 
L 436.139716 366.368549 
L 447.97608 352.040082 
L 459.812443 340.136432 
L 471.648807 319.194827 
L 483.48517 300.898476 
L 495.321534 288.553951 
L 507.157898 275.548111 
L 518.994261 298.694097 
L 530.830625 316.549571 
" style="fill:none;stroke:#94c4df;stroke-linecap:square;stroke-width:1.5;"/>
   </g>
   <g id="line2d_66">
    <path clip-path="url(#p5e444bac21)" d="M 140.230625 433.16125 
L 152.066989 433.16125 
L 163.903352 433.16125 
L 175.739716 433.16125 
L 187.57608 433.16125 
L 199.412443 433.16125 
L 211.248807 433.16125 
L 223.08517 433.16125 
L 234.921534 433.16125 
L 246.757898 433.16125 
L 258.594261 433.16125 
L 270.430625 433.16125 
L 282.266989 433.16125 
L 294.103352 433.16125 
L 305.939716 433.16125 
L 317.77608 433.16125 
L 329.612443 433.16125 
L 341.448807 433.16125 
L 353.28517 433.16125 
L 365.121534 433.16125 
L 376.957898 433.16125 
L 388.794261 433.16125 
L 400.630625 433.16125 
L 412.466989 433.16125 
L 424.303352 433.16125 
L 436.139716 433.16125 
L 447.97608 433.16125 
L 459.812443 433.16125 
L 471.648807 433.16125 
L 483.48517 433.16125 
L 495.321534 433.16125 
L 507.157898 433.16125 
L 518.994261 433.16125 
L 530.830625 433.16125 
" style="fill:none;stroke:#000000;stroke-linecap:square;stroke-width:1.5;"/>
   </g>
   <g id="line2d_67">
    <path clip-path="url(#p5e444bac21)" d="M 140.230625 433.16125 
L 152.066989 433.16125 
L 163.903352 433.16125 
L 175.739716 433.16125 
L 187.57608 433.16125 
L 199.412443 433.16125 
L 211.248807 433.16125 
L 223.08517 433.16125 
L 234.921534 433.16125 
L 246.757898 433.16125 
L 258.594261 433.16125 
L 270.430625 433.16125 
L 282.266989 433.16125 
L 294.103352 433.16125 
L 305.939716 433.16125 
L 317.77608 433.16125 
L 329.612443 433.16125 
L 341.448807 433.16125 
L 353.28517 433.16125 
L 365.121534 433.16125 
L 376.957898 433.16125 
L 388.794261 433.16125 
L 400.630625 433.16125 
L 412.466989 433.16125 
L 424.303352 433.16125 
L 436.139716 433.16125 
L 447.97608 433.16125 
L 459.812443 433.16125 
L 471.648807 433.16125 
L 483.48517 433.16125 
L 495.321534 433.16125 
L 507.157898 433.16125 
L 518.994261 433.16125 
L 530.830625 433.16125 
" style="fill:none;stroke:#000000;stroke-linecap:square;stroke-width:1.5;"/>
   </g>
   <g id="line2d_68">
    <path clip-path="url(#p5e444bac21)" d="M 140.230625 433.16125 
L 152.066989 433.16125 
L 163.903352 433.16125 
L 175.739716 433.16125 
L 187.57608 433.16125 
L 199.412443 433.16125 
L 211.248807 433.16125 
L 223.08517 433.16125 
L 234.921534 433.16125 
L 246.757898 433.16125 
L 258.594261 433.16125 
L 270.430625 433.16125 
L 282.266989 433.16125 
L 294.103352 433.16125 
L 305.939716 433.16125 
L 317.77608 433.16125 
L 329.612443 433.16125 
L 341.448807 433.16125 
L 353.28517 433.16125 
L 365.121534 433.16125 
L 376.957898 433.16125 
L 388.794261 433.16125 
L 400.630625 433.16125 
L 412.466989 433.16125 
L 424.303352 433.16125 
L 436.139716 433.16125 
L 447.97608 433.16125 
L 459.812443 433.16125 
L 471.648807 433.16125 
L 483.48517 433.16125 
L 495.321534 433.16125 
L 507.157898 433.16125 
L 518.994261 433.16125 
L 530.830625 433.16125 
" style="fill:none;stroke:#000000;stroke-linecap:square;stroke-width:1.5;"/>
   </g>
   <g id="line2d_69">
    <path clip-path="url(#p5e444bac21)" d="M 140.230625 433.16125 
L 152.066989 433.16125 
L 163.903352 433.16125 
L 175.739716 433.16125 
L 187.57608 433.16125 
L 199.412443 433.16125 
L 211.248807 433.16125 
L 223.08517 433.16125 
L 234.921534 433.16125 
L 246.757898 433.16125 
L 258.594261 433.16125 
L 270.430625 433.16125 
L 282.266989 433.16125 
L 294.103352 433.16125 
L 305.939716 433.16125 
L 317.77608 433.16125 
L 329.612443 433.16125 
L 341.448807 433.16125 
L 353.28517 433.16125 
L 365.121534 433.16125 
L 376.957898 433.16125 
L 388.794261 433.16125 
L 400.630625 433.16125 
L 412.466989 433.16125 
L 424.303352 433.16125 
L 436.139716 433.16125 
L 447.97608 433.16125 
L 459.812443 433.16125 
L 471.648807 433.16125 
L 483.48517 433.16125 
L 495.321534 433.16125 
L 507.157898 433.16125 
L 518.994261 433.16125 
L 530.830625 433.16125 
" style="fill:none;stroke:#000000;stroke-linecap:square;stroke-width:1.5;"/>
   </g>
   <g id="line2d_70">
    <path clip-path="url(#p5e444bac21)" d="M 140.230625 433.16125 
L 152.066989 433.16125 
L 163.903352 433.16125 
L 175.739716 433.16125 
L 187.57608 433.16125 
L 199.412443 433.16125 
L 211.248807 433.16125 
L 223.08517 433.16125 
L 234.921534 433.16125 
L 246.757898 433.16125 
L 258.594261 433.16125 
L 270.430625 433.16125 
L 282.266989 433.16125 
L 294.103352 433.16125 
L 305.939716 433.16125 
L 317.77608 433.16125 
L 329.612443 433.16125 
L 341.448807 433.16125 
L 353.28517 433.16125 
L 365.121534 433.16125 
L 376.957898 433.16125 
L 388.794261 433.16125 
L 400.630625 433.16125 
L 412.466989 433.16125 
L 424.303352 433.16125 
L 436.139716 433.16125 
L 447.97608 433.16125 
L 459.812443 433.16125 
L 471.648807 433.16125 
L 483.48517 433.16125 
L 495.321534 433.16125 
L 507.157898 433.16125 
L 518.994261 433.16125 
L 530.830625 433.16125 
" style="fill:none;stroke:#000000;stroke-linecap:square;stroke-width:1.5;"/>
   </g>
   <g id="line2d_71">
    <path clip-path="url(#p5e444bac21)" d="M 140.230625 433.16125 
L 152.066989 433.16125 
L 163.903352 433.16125 
L 175.739716 433.16125 
L 187.57608 433.16125 
L 199.412443 433.16125 
L 211.248807 433.16125 
L 223.08517 433.16125 
L 234.921534 433.16125 
L 246.757898 433.16125 
L 258.594261 433.16125 
L 270.430625 433.16125 
L 282.266989 433.16125 
L 294.103352 433.16125 
L 305.939716 433.16125 
L 317.77608 433.16125 
L 329.612443 433.16125 
L 341.448807 433.16125 
L 353.28517 433.16125 
L 365.121534 433.16125 
L 376.957898 433.16125 
L 388.794261 433.16125 
L 400.630625 433.16125 
L 412.466989 433.16125 
L 424.303352 433.16125 
L 436.139716 433.16125 
L 447.97608 433.16125 
L 459.812443 433.16125 
L 471.648807 433.16125 
L 483.48517 433.16125 
L 495.321534 433.16125 
L 507.157898 433.16125 
L 518.994261 433.16125 
L 530.830625 433.16125 
" style="fill:none;stroke:#000000;stroke-linecap:square;stroke-width:1.5;"/>
   </g>
   <g id="line2d_72">
    <path clip-path="url(#p5e444bac21)" d="M 140.230625 433.16125 
L 152.066989 433.16125 
L 163.903352 433.16125 
L 175.739716 433.16125 
L 187.57608 433.16125 
L 199.412443 433.16125 
L 211.248807 433.16125 
L 223.08517 433.16125 
L 234.921534 433.16125 
L 246.757898 433.16125 
L 258.594261 433.16125 
L 270.430625 433.16125 
L 282.266989 433.16125 
L 294.103352 433.16125 
L 305.939716 433.16125 
L 317.77608 433.16125 
L 329.612443 433.16125 
L 341.448807 433.16125 
L 353.28517 433.16125 
L 365.121534 433.16125 
L 376.957898 433.16125 
L 388.794261 433.16125 
L 400.630625 433.16125 
L 412.466989 433.16125 
L 424.303352 433.16125 
L 436.139716 433.16125 
L 447.97608 433.16125 
L 459.812443 433.16125 
L 471.648807 433.16125 
L 483.48517 433.16125 
L 495.321534 433.16125 
L 507.157898 433.16125 
L 518.994261 433.16125 
L 530.830625 433.16125 
" style="fill:none;stroke:#000000;stroke-linecap:square;stroke-width:1.5;"/>
   </g>
   <g id="line2d_73">
    <path clip-path="url(#p5e444bac21)" d="M 140.230625 433.16125 
L 152.066989 433.16125 
L 163.903352 433.16125 
L 175.739716 433.16125 
L 187.57608 433.16125 
L 199.412443 433.16125 
L 211.248807 433.16125 
L 223.08517 433.16125 
L 234.921534 433.16125 
L 246.757898 433.16125 
L 258.594261 433.16125 
L 270.430625 433.16125 
L 282.266989 433.16125 
L 294.103352 433.16125 
L 305.939716 433.16125 
L 317.77608 433.16125 
L 329.612443 433.16125 
L 341.448807 433.16125 
L 353.28517 433.16125 
L 365.121534 433.16125 
L 376.957898 433.16125 
L 388.794261 433.16125 
L 400.630625 433.16125 
L 412.466989 433.16125 
L 424.303352 433.16125 
L 436.139716 433.16125 
L 447.97608 433.16125 
L 459.812443 433.16125 
L 471.648807 433.16125 
L 483.48517 433.16125 
L 495.321534 433.16125 
L 507.157898 433.16125 
L 518.994261 433.16125 
L 530.830625 433.16125 
" style="fill:none;stroke:#000000;stroke-linecap:square;stroke-width:1.5;"/>
   </g>
   <g id="line2d_74">
    <path clip-path="url(#p5e444bac21)" d="M 140.230625 433.16125 
L 152.066989 433.16125 
L 163.903352 433.16125 
L 175.739716 433.16125 
L 187.57608 433.16125 
L 199.412443 433.16125 
L 211.248807 433.16125 
L 223.08517 433.16125 
L 234.921534 433.16125 
L 246.757898 433.16125 
L 258.594261 433.16125 
L 270.430625 433.16125 
L 282.266989 433.16125 
L 294.103352 433.16125 
L 305.939716 433.16125 
L 317.77608 433.16125 
L 329.612443 433.16125 
L 341.448807 433.16125 
L 353.28517 433.16125 
L 365.121534 433.16125 
L 376.957898 433.16125 
L 388.794261 433.16125 
L 400.630625 433.16125 
L 412.466989 433.16125 
L 424.303352 433.16125 
L 436.139716 433.16125 
L 447.97608 433.16125 
L 459.812443 433.16125 
L 471.648807 433.16125 
L 483.48517 433.16125 
L 495.321534 433.16125 
L 507.157898 433.16125 
L 518.994261 433.16125 
L 530.830625 433.16125 
" style="fill:none;stroke:#000000;stroke-linecap:square;stroke-width:1.5;"/>
   </g>
   <g id="line2d_75">
    <path clip-path="url(#p5e444bac21)" d="M 140.230625 433.16125 
L 152.066989 433.16125 
L 163.903352 433.16125 
L 175.739716 433.16125 
L 187.57608 433.16125 
L 199.412443 433.16125 
L 211.248807 433.16125 
L 223.08517 433.16125 
L 234.921534 433.16125 
L 246.757898 433.16125 
L 258.594261 433.16125 
L 270.430625 433.16125 
L 282.266989 433.16125 
L 294.103352 433.16125 
L 305.939716 433.16125 
L 317.77608 433.16125 
L 329.612443 433.16125 
L 341.448807 433.16125 
L 353.28517 433.16125 
L 365.121534 433.16125 
L 376.957898 433.16125 
L 388.794261 433.16125 
L 400.630625 433.16125 
L 412.466989 433.16125 
L 424.303352 433.16125 
L 436.139716 433.16125 
L 447.97608 433.16125 
L 459.812443 433.16125 
L 471.648807 433.16125 
L 483.48517 433.16125 
L 495.321534 433.16125 
L 507.157898 433.16125 
L 518.994261 433.16125 
L 530.830625 433.16125 
" style="fill:none;stroke:#000000;stroke-linecap:square;stroke-width:1.5;"/>
   </g>
   <g id="line2d_76">
    <path clip-path="url(#p5e444bac21)" d="M 128.394261 433.16125 
" style="fill:none;stroke:#000000;stroke-linecap:square;stroke-width:1.5;"/>
   </g>
   <g id="line2d_77">
    <path clip-path="url(#p5e444bac21)" d="M 128.394261 433.16125 
" style="fill:none;stroke:#d0e1f2;stroke-linecap:square;stroke-width:1.5;"/>
   </g>
   <g id="line2d_78">
    <path clip-path="url(#p5e444bac21)" d="M 128.394261 433.16125 
" style="fill:none;stroke:#94c4df;stroke-linecap:square;stroke-width:1.5;"/>
   </g>
   <g id="line2d_79">
    <path clip-path="url(#p5e444bac21)" d="M 128.394261 433.16125 
" style="fill:none;stroke:#4a98c9;stroke-linecap:square;stroke-width:1.5;"/>
   </g>
   <g id="line2d_80">
    <path clip-path="url(#p5e444bac21)" d="M 128.394261 433.16125 
" style="fill:none;stroke:#1764ab;stroke-linecap:square;stroke-width:1.5;"/>
   </g>
   <g id="line2d_81">
    <path clip-path="url(#p5e444bac21)" d="M 128.394261 433.16125 
" style="fill:none;stroke:#08306b;stroke-linecap:square;stroke-width:1.5;"/>
   </g>
   <g id="line2d_82">
    <path clip-path="url(#p5e444bac21)" d="M 128.394261 433.16125 
" style="fill:none;stroke:#000000;stroke-linecap:square;stroke-width:1.5;"/>
   </g>
   <g id="line2d_83">
    <path clip-path="url(#p5e444bac21)" d="M 128.394261 433.16125 
" style="fill:none;stroke:#000000;stroke-dasharray:1.5,2.475;stroke-dashoffset:0;stroke-width:1.5;"/>
   </g>
   <g id="line2d_84">
    <path clip-path="url(#p5e444bac21)" d="M 128.394261 433.16125 
" style="fill:none;stroke:#000000;stroke-linecap:square;stroke-width:1.5;"/>
   </g>
   <g id="line2d_85">
    <path clip-path="url(#p5e444bac21)" d="M 128.394261 433.16125 
" style="fill:none;stroke:#000000;stroke-dasharray:5.55,2.4;stroke-dashoffset:0;stroke-width:1.5;"/>
   </g>
   <g id="line2d_86">
    <path clip-path="url(#p5e444bac21)" d="M 128.394261 433.16125 
" style="fill:none;stroke:#000000;stroke-dasharray:9.6,2.4,1.5,2.4;stroke-dashoffset:0;stroke-width:1.5;"/>
   </g>
   <g id="line2d_87">
    <path clip-path="url(#p5e444bac21)" d="M 128.394261 433.16125 
" style="fill:none;stroke:#000000;stroke-dasharray:9.6,2.4,1.5,2.4;stroke-dashoffset:0;stroke-width:1.5;"/>
   </g>
   <g id="patch_3">
    <path d="M 140.230625 433.16125 
L 140.230625 52.64125 
" style="fill:none;stroke:#000000;stroke-linecap:square;stroke-linejoin:miter;stroke-width:0.8;"/>
   </g>
   <g id="patch_4">
    <path d="M 530.830625 433.16125 
L 530.830625 52.64125 
" style="fill:none;stroke:#000000;stroke-linecap:square;stroke-linejoin:miter;stroke-width:0.8;"/>
   </g>
   <g id="patch_5">
    <path d="M 140.230625 433.16125 
L 530.830625 433.16125 
" style="fill:none;stroke:#000000;stroke-linecap:square;stroke-linejoin:miter;stroke-width:0.8;"/>
   </g>
   <g id="patch_6">
    <path d="M 140.230625 52.64125 
L 530.830625 52.64125 
" style="fill:none;stroke:#000000;stroke-linecap:square;stroke-linejoin:miter;stroke-width:0.8;"/>
   </g>
   <g id="text_18">
    <!-- CD8 COUNT -->
    <g transform="translate(277.19625 21.515625)scale(0.2 -0.2)">
     <use xlink:href="#Arial-BoldMT-67"/>
     <use x="72.216797" xlink:href="#Arial-BoldMT-68"/>
     <use x="144.433594" xlink:href="#Arial-BoldMT-56"/>
     <use x="200.048828" xlink:href="#Arial-BoldMT-32"/>
     <use x="227.832031" xlink:href="#Arial-BoldMT-67"/>
     <use x="300.048828" xlink:href="#Arial-BoldMT-79"/>
     <use x="377.832031" xlink:href="#Arial-BoldMT-85"/>
     <use x="450.048828" xlink:href="#Arial-BoldMT-78"/>
     <use x="522.265625" xlink:href="#Arial-BoldMT-84"/>
    </g>
    <!-- ACROSS RADIUS AT TIME 4 -->
    <defs>
     <path d="M 31.15625 0 
L 31.15625 14.40625 
L 1.859375 14.40625 
L 1.859375 26.421875 
L 32.90625 71.875 
L 44.4375 71.875 
L 44.4375 26.46875 
L 53.328125 26.46875 
L 53.328125 14.40625 
L 44.4375 14.40625 
L 44.4375 0 
z
M 31.15625 26.46875 
L 31.15625 50.921875 
L 14.703125 26.46875 
z
" id="Arial-BoldMT-52"/>
    </defs>
    <g transform="translate(200.536875 42.64125)scale(0.2 -0.2)">
     <use xlink:href="#Arial-BoldMT-65"/>
     <use x="72.216797" xlink:href="#Arial-BoldMT-67"/>
     <use x="144.433594" xlink:href="#Arial-BoldMT-82"/>
     <use x="216.650391" xlink:href="#Arial-BoldMT-79"/>
     <use x="294.433594" xlink:href="#Arial-BoldMT-83"/>
     <use x="361.132812" xlink:href="#Arial-BoldMT-83"/>
     <use x="427.832031" xlink:href="#Arial-BoldMT-32"/>
     <use x="455.615234" xlink:href="#Arial-BoldMT-82"/>
     <use x="527.832031" xlink:href="#Arial-BoldMT-65"/>
     <use x="600.048828" xlink:href="#Arial-BoldMT-68"/>
     <use x="672.265625" xlink:href="#Arial-BoldMT-73"/>
     <use x="700.048828" xlink:href="#Arial-BoldMT-85"/>
     <use x="772.265625" xlink:href="#Arial-BoldMT-83"/>
     <use x="838.964844" xlink:href="#Arial-BoldMT-32"/>
     <use x="866.701172" xlink:href="#Arial-BoldMT-65"/>
     <use x="938.808594" xlink:href="#Arial-BoldMT-84"/>
     <use x="999.892578" xlink:href="#Arial-BoldMT-32"/>
     <use x="1027.675781" xlink:href="#Arial-BoldMT-84"/>
     <use x="1088.759766" xlink:href="#Arial-BoldMT-73"/>
     <use x="1116.542969" xlink:href="#Arial-BoldMT-77"/>
     <use x="1199.84375" xlink:href="#Arial-BoldMT-69"/>
     <use x="1266.542969" xlink:href="#Arial-BoldMT-32"/>
     <use x="1294.326172" xlink:href="#Arial-BoldMT-52"/>
    </g>
   </g>
   <g id="legend_1">
    <g id="line2d_88">
     <path d="M 539.830625 65.739687 
L 559.830625 65.739687 
" style="fill:none;stroke:#000000;stroke-linecap:square;stroke-width:1.5;"/>
    </g>
    <g id="line2d_89"/>
    <g id="text_19">
     <!-- 0 -->
     <g transform="translate(567.830625 69.239687)scale(0.1 -0.1)">
      <use xlink:href="#DejaVuSans-48"/>
     </g>
    </g>
    <g id="line2d_90">
     <path d="M 539.830625 80.417812 
L 559.830625 80.417812 
" style="fill:none;stroke:#d0e1f2;stroke-linecap:square;stroke-width:1.5;"/>
    </g>
    <g id="line2d_91"/>
    <g id="text_20">
     <!-- 100 -->
     <g transform="translate(567.830625 83.917812)scale(0.1 -0.1)">
      <use xlink:href="#DejaVuSans-49"/>
      <use x="63.623047" xlink:href="#DejaVuSans-48"/>
      <use x="127.246094" xlink:href="#DejaVuSans-48"/>
     </g>
    </g>
    <g id="line2d_92">
     <path d="M 539.830625 95.095937 
L 559.830625 95.095937 
" style="fill:none;stroke:#94c4df;stroke-linecap:square;stroke-width:1.5;"/>
    </g>
    <g id="line2d_93"/>
    <g id="text_21">
     <!-- 500 -->
     <g transform="translate(567.830625 98.595937)scale(0.1 -0.1)">
      <use xlink:href="#DejaVuSans-53"/>
      <use x="63.623047" xlink:href="#DejaVuSans-48"/>
      <use x="127.246094" xlink:href="#DejaVuSans-48"/>
     </g>
    </g>
    <g id="line2d_94">
     <path d="M 539.830625 109.774062 
L 559.830625 109.774062 
" style="fill:none;stroke:#4a98c9;stroke-linecap:square;stroke-width:1.5;"/>
    </g>
    <g id="line2d_95"/>
    <g id="text_22">
     <!-- 1000 -->
     <g transform="translate(567.830625 113.274062)scale(0.1 -0.1)">
      <use xlink:href="#DejaVuSans-49"/>
      <use x="63.623047" xlink:href="#DejaVuSans-48"/>
      <use x="127.246094" xlink:href="#DejaVuSans-48"/>
      <use x="190.869141" xlink:href="#DejaVuSans-48"/>
     </g>
    </g>
    <g id="line2d_96">
     <path d="M 539.830625 124.452187 
L 559.830625 124.452187 
" style="fill:none;stroke:#1764ab;stroke-linecap:square;stroke-width:1.5;"/>
    </g>
    <g id="line2d_97"/>
    <g id="text_23">
     <!-- 5000 -->
     <g transform="translate(567.830625 127.952187)scale(0.1 -0.1)">
      <use xlink:href="#DejaVuSans-53"/>
      <use x="63.623047" xlink:href="#DejaVuSans-48"/>
      <use x="127.246094" xlink:href="#DejaVuSans-48"/>
      <use x="190.869141" xlink:href="#DejaVuSans-48"/>
     </g>
    </g>
    <g id="line2d_98">
     <path d="M 539.830625 139.130312 
L 559.830625 139.130312 
" style="fill:none;stroke:#08306b;stroke-linecap:square;stroke-width:1.5;"/>
    </g>
    <g id="line2d_99"/>
    <g id="text_24">
     <!-- 10000 -->
     <g transform="translate(567.830625 142.630312)scale(0.1 -0.1)">
      <use xlink:href="#DejaVuSans-49"/>
      <use x="63.623047" xlink:href="#DejaVuSans-48"/>
      <use x="127.246094" xlink:href="#DejaVuSans-48"/>
      <use x="190.869141" xlink:href="#DejaVuSans-48"/>
      <use x="254.492188" xlink:href="#DejaVuSans-48"/>
     </g>
    </g>
    <g id="line2d_100">
     <path d="M 539.830625 153.808437 
L 559.830625 153.808437 
" style="fill:none;stroke:#000000;stroke-linecap:square;stroke-width:1.5;"/>
    </g>
    <g id="line2d_101"/>
    <g id="text_25">
     <!-- 0 -->
     <g transform="translate(567.830625 157.308437)scale(0.1 -0.1)">
      <use xlink:href="#DejaVuSans-48"/>
     </g>
    </g>
    <g id="line2d_102">
     <path d="M 539.830625 168.486562 
L 559.830625 168.486562 
" style="fill:none;stroke:#000000;stroke-dasharray:1.5,2.475;stroke-dashoffset:0;stroke-width:1.5;"/>
    </g>
    <g id="line2d_103"/>
    <g id="text_26">
     <!-- 250 -->
     <g transform="translate(567.830625 171.986562)scale(0.1 -0.1)">
      <use xlink:href="#DejaVuSans-50"/>
      <use x="63.623047" xlink:href="#DejaVuSans-53"/>
      <use x="127.246094" xlink:href="#DejaVuSans-48"/>
     </g>
    </g>
    <g id="line2d_104">
     <path d="M 539.830625 183.164687 
L 559.830625 183.164687 
" style="fill:none;stroke:#000000;stroke-linecap:square;stroke-width:1.5;"/>
    </g>
    <g id="line2d_105"/>
    <g id="text_27">
     <!-- 500 -->
     <g transform="translate(567.830625 186.664687)scale(0.1 -0.1)">
      <use xlink:href="#DejaVuSans-53"/>
      <use x="63.623047" xlink:href="#DejaVuSans-48"/>
      <use x="127.246094" xlink:href="#DejaVuSans-48"/>
     </g>
    </g>
    <g id="line2d_106">
     <path d="M 539.830625 197.842812 
L 559.830625 197.842812 
" style="fill:none;stroke:#000000;stroke-dasharray:5.55,2.4;stroke-dashoffset:0;stroke-width:1.5;"/>
    </g>
    <g id="line2d_107"/>
    <g id="text_28">
     <!-- 1000 -->
     <g transform="translate(567.830625 201.342812)scale(0.1 -0.1)">
      <use xlink:href="#DejaVuSans-49"/>
      <use x="63.623047" xlink:href="#DejaVuSans-48"/>
      <use x="127.246094" xlink:href="#DejaVuSans-48"/>
      <use x="190.869141" xlink:href="#DejaVuSans-48"/>
     </g>
    </g>
    <g id="line2d_108">
     <path d="M 539.830625 212.520937 
L 559.830625 212.520937 
" style="fill:none;stroke:#000000;stroke-dasharray:9.6,2.4,1.5,2.4;stroke-dashoffset:0;stroke-width:1.5;"/>
    </g>
    <g id="line2d_109"/>
    <g id="text_29">
     <!-- 5000 -->
     <g transform="translate(567.830625 216.020937)scale(0.1 -0.1)">
      <use xlink:href="#DejaVuSans-53"/>
      <use x="63.623047" xlink:href="#DejaVuSans-48"/>
      <use x="127.246094" xlink:href="#DejaVuSans-48"/>
      <use x="190.869141" xlink:href="#DejaVuSans-48"/>
     </g>
    </g>
    <g id="line2d_110">
     <path d="M 539.830625 227.199062 
L 559.830625 227.199062 
" style="fill:none;stroke:#000000;stroke-dasharray:9.6,2.4,1.5,2.4;stroke-dashoffset:0;stroke-width:1.5;"/>
    </g>
    <g id="line2d_111"/>
    <g id="text_30">
     <!-- 10000 -->
     <g transform="translate(567.830625 230.699062)scale(0.1 -0.1)">
      <use xlink:href="#DejaVuSans-49"/>
      <use x="63.623047" xlink:href="#DejaVuSans-48"/>
      <use x="127.246094" xlink:href="#DejaVuSans-48"/>
      <use x="190.869141" xlink:href="#DejaVuSans-48"/>
      <use x="254.492188" xlink:href="#DejaVuSans-48"/>
     </g>
    </g>
   </g>
  </g>
 </g>
 <defs>
  <clipPath id="p5e444bac21">
   <rect height="380.52" width="390.6" x="140.230625" y="52.64125"/>
  </clipPath>
 </defs>
</svg>
