<?xml version="1.0" encoding="utf-8" standalone="no"?>
<!DOCTYPE svg PUBLIC "-//W3C//DTD SVG 1.1//EN"
  "http://www.w3.org/Graphics/SVG/1.1/DTD/svg11.dtd">
<!-- Created with matplotlib (https://matplotlib.org/) -->
<svg height="504.658125pt" version="1.1" viewBox="0 0 572.668125 504.658125" width="572.668125pt" xmlns="http://www.w3.org/2000/svg" xmlns:xlink="http://www.w3.org/1999/xlink">
 <defs>
  <style type="text/css">
*{stroke-linecap:butt;stroke-linejoin:round;}
  </style>
 </defs>
 <g id="figure_1">
  <g id="patch_1">
   <path d="M 0 504.658125 
L 572.668125 504.658125 
L 572.668125 -0 
L 0 -0 
z
" style="fill:#ffffff;"/>
  </g>
  <g id="axes_1">
   <g id="patch_2">
    <path d="M 102.055625 433.16125 
L 492.655625 433.16125 
L 492.655625 52.64125 
L 102.055625 52.64125 
z
" style="fill:#ffffff;"/>
   </g>
   <g id="matplotlib.axis_1">
    <g id="xtick_1">
     <g id="line2d_1">
      <defs>
       <path d="M 0 0 
L 0 3.5 
" id="mb156c8af4a" style="stroke:#000000;stroke-width:0.8;"/>
      </defs>
      <g>
       <use style="stroke:#000000;stroke-width:0.8;" x="149.40108" xlink:href="#mb156c8af4a" y="433.16125"/>
      </g>
     </g>
     <g id="text_1">
      <!-- 5 -->
      <defs>
       <path d="M 10.796875 72.90625 
L 49.515625 72.90625 
L 49.515625 64.59375 
L 19.828125 64.59375 
L 19.828125 46.734375 
Q 21.96875 47.46875 24.109375 47.828125 
Q 26.265625 48.1875 28.421875 48.1875 
Q 40.625 48.1875 47.75 41.5 
Q 54.890625 34.8125 54.890625 23.390625 
Q 54.890625 11.625 47.5625 5.09375 
Q 40.234375 -1.421875 26.90625 -1.421875 
Q 22.3125 -1.421875 17.546875 -0.640625 
Q 12.796875 0.140625 7.71875 1.703125 
L 7.71875 11.625 
Q 12.109375 9.234375 16.796875 8.0625 
Q 21.484375 6.890625 26.703125 6.890625 
Q 35.15625 6.890625 40.078125 11.328125 
Q 45.015625 15.765625 45.015625 23.390625 
Q 45.015625 31 40.078125 35.4375 
Q 35.15625 39.890625 26.703125 39.890625 
Q 22.75 39.890625 18.8125 39.015625 
Q 14.890625 38.140625 10.796875 36.28125 
z
" id="DejaVuSans-53"/>
      </defs>
      <g transform="translate(139.85733 462.956562)scale(0.3 -0.3)">
       <use xlink:href="#DejaVuSans-53"/>
      </g>
     </g>
    </g>
    <g id="xtick_2">
     <g id="line2d_2">
      <g>
       <use style="stroke:#000000;stroke-width:0.8;" x="208.582898" xlink:href="#mb156c8af4a" y="433.16125"/>
      </g>
     </g>
     <g id="text_2">
      <!-- 10 -->
      <defs>
       <path d="M 12.40625 8.296875 
L 28.515625 8.296875 
L 28.515625 63.921875 
L 10.984375 60.40625 
L 10.984375 69.390625 
L 28.421875 72.90625 
L 38.28125 72.90625 
L 38.28125 8.296875 
L 54.390625 8.296875 
L 54.390625 0 
L 12.40625 0 
z
" id="DejaVuSans-49"/>
       <path d="M 31.78125 66.40625 
Q 24.171875 66.40625 20.328125 58.90625 
Q 16.5 51.421875 16.5 36.375 
Q 16.5 21.390625 20.328125 13.890625 
Q 24.171875 6.390625 31.78125 6.390625 
Q 39.453125 6.390625 43.28125 13.890625 
Q 47.125 21.390625 47.125 36.375 
Q 47.125 51.421875 43.28125 58.90625 
Q 39.453125 66.40625 31.78125 66.40625 
z
M 31.78125 74.21875 
Q 44.046875 74.21875 50.515625 64.515625 
Q 56.984375 54.828125 56.984375 36.375 
Q 56.984375 17.96875 50.515625 8.265625 
Q 44.046875 -1.421875 31.78125 -1.421875 
Q 19.53125 -1.421875 13.0625 8.265625 
Q 6.59375 17.96875 6.59375 36.375 
Q 6.59375 54.828125 13.0625 64.515625 
Q 19.53125 74.21875 31.78125 74.21875 
z
" id="DejaVuSans-48"/>
      </defs>
      <g transform="translate(189.495398 462.956562)scale(0.3 -0.3)">
       <use xlink:href="#DejaVuSans-49"/>
       <use x="63.623047" xlink:href="#DejaVuSans-48"/>
      </g>
     </g>
    </g>
    <g id="xtick_3">
     <g id="line2d_3">
      <g>
       <use style="stroke:#000000;stroke-width:0.8;" x="267.764716" xlink:href="#mb156c8af4a" y="433.16125"/>
      </g>
     </g>
     <g id="text_3">
      <!-- 15 -->
      <g transform="translate(248.677216 462.956562)scale(0.3 -0.3)">
       <use xlink:href="#DejaVuSans-49"/>
       <use x="63.623047" xlink:href="#DejaVuSans-53"/>
      </g>
     </g>
    </g>
    <g id="xtick_4">
     <g id="line2d_4">
      <g>
       <use style="stroke:#000000;stroke-width:0.8;" x="326.946534" xlink:href="#mb156c8af4a" y="433.16125"/>
      </g>
     </g>
     <g id="text_4">
      <!-- 20 -->
      <defs>
       <path d="M 19.1875 8.296875 
L 53.609375 8.296875 
L 53.609375 0 
L 7.328125 0 
L 7.328125 8.296875 
Q 12.9375 14.109375 22.625 23.890625 
Q 32.328125 33.6875 34.8125 36.53125 
Q 39.546875 41.84375 41.421875 45.53125 
Q 43.3125 49.21875 43.3125 52.78125 
Q 43.3125 58.59375 39.234375 62.25 
Q 35.15625 65.921875 28.609375 65.921875 
Q 23.96875 65.921875 18.8125 64.3125 
Q 13.671875 62.703125 7.8125 59.421875 
L 7.8125 69.390625 
Q 13.765625 71.78125 18.9375 73 
Q 24.125 74.21875 28.421875 74.21875 
Q 39.75 74.21875 46.484375 68.546875 
Q 53.21875 62.890625 53.21875 53.421875 
Q 53.21875 48.921875 51.53125 44.890625 
Q 49.859375 40.875 45.40625 35.40625 
Q 44.1875 33.984375 37.640625 27.21875 
Q 31.109375 20.453125 19.1875 8.296875 
z
" id="DejaVuSans-50"/>
      </defs>
      <g transform="translate(307.859034 462.956562)scale(0.3 -0.3)">
       <use xlink:href="#DejaVuSans-50"/>
       <use x="63.623047" xlink:href="#DejaVuSans-48"/>
      </g>
     </g>
    </g>
    <g id="xtick_5">
     <g id="line2d_5">
      <g>
       <use style="stroke:#000000;stroke-width:0.8;" x="386.128352" xlink:href="#mb156c8af4a" y="433.16125"/>
      </g>
     </g>
     <g id="text_5">
      <!-- 25 -->
      <g transform="translate(367.040852 462.956562)scale(0.3 -0.3)">
       <use xlink:href="#DejaVuSans-50"/>
       <use x="63.623047" xlink:href="#DejaVuSans-53"/>
      </g>
     </g>
    </g>
    <g id="xtick_6">
     <g id="line2d_6">
      <g>
       <use style="stroke:#000000;stroke-width:0.8;" x="445.31017" xlink:href="#mb156c8af4a" y="433.16125"/>
      </g>
     </g>
     <g id="text_6">
      <!-- 30 -->
      <defs>
       <path d="M 40.578125 39.3125 
Q 47.65625 37.796875 51.625 33 
Q 55.609375 28.21875 55.609375 21.1875 
Q 55.609375 10.40625 48.1875 4.484375 
Q 40.765625 -1.421875 27.09375 -1.421875 
Q 22.515625 -1.421875 17.65625 -0.515625 
Q 12.796875 0.390625 7.625 2.203125 
L 7.625 11.71875 
Q 11.71875 9.328125 16.59375 8.109375 
Q 21.484375 6.890625 26.8125 6.890625 
Q 36.078125 6.890625 40.9375 10.546875 
Q 45.796875 14.203125 45.796875 21.1875 
Q 45.796875 27.640625 41.28125 31.265625 
Q 36.765625 34.90625 28.71875 34.90625 
L 20.21875 34.90625 
L 20.21875 43.015625 
L 29.109375 43.015625 
Q 36.375 43.015625 40.234375 45.921875 
Q 44.09375 48.828125 44.09375 54.296875 
Q 44.09375 59.90625 40.109375 62.90625 
Q 36.140625 65.921875 28.71875 65.921875 
Q 24.65625 65.921875 20.015625 65.03125 
Q 15.375 64.15625 9.8125 62.3125 
L 9.8125 71.09375 
Q 15.4375 72.65625 20.34375 73.4375 
Q 25.25 74.21875 29.59375 74.21875 
Q 40.828125 74.21875 47.359375 69.109375 
Q 53.90625 64.015625 53.90625 55.328125 
Q 53.90625 49.265625 50.4375 45.09375 
Q 46.96875 40.921875 40.578125 39.3125 
z
" id="DejaVuSans-51"/>
      </defs>
      <g transform="translate(426.22267 462.956562)scale(0.3 -0.3)">
       <use xlink:href="#DejaVuSans-51"/>
       <use x="63.623047" xlink:href="#DejaVuSans-48"/>
      </g>
     </g>
    </g>
    <g id="text_7">
     <!-- RADIUS -->
     <defs>
      <path d="M 7.328125 0 
L 7.328125 71.578125 
L 37.75 71.578125 
Q 49.21875 71.578125 54.421875 69.640625 
Q 59.625 67.71875 62.75 62.78125 
Q 65.875 57.859375 65.875 51.515625 
Q 65.875 43.453125 61.125 38.203125 
Q 56.390625 32.953125 46.96875 31.59375 
Q 51.65625 28.859375 54.703125 25.578125 
Q 57.765625 22.3125 62.9375 13.96875 
L 71.6875 0 
L 54.390625 0 
L 43.953125 15.578125 
Q 38.375 23.921875 36.328125 26.09375 
Q 34.28125 28.265625 31.984375 29.078125 
Q 29.6875 29.890625 24.703125 29.890625 
L 21.78125 29.890625 
L 21.78125 0 
z
M 21.78125 41.3125 
L 32.46875 41.3125 
Q 42.875 41.3125 45.453125 42.1875 
Q 48.046875 43.0625 49.515625 45.203125 
Q 50.984375 47.359375 50.984375 50.59375 
Q 50.984375 54.203125 49.046875 56.421875 
Q 47.125 58.640625 43.609375 59.234375 
Q 41.84375 59.46875 33.0625 59.46875 
L 21.78125 59.46875 
z
" id="Arial-BoldMT-82"/>
      <path d="M 71.828125 0 
L 56.109375 0 
L 49.859375 16.265625 
L 21.234375 16.265625 
L 15.328125 0 
L 0 0 
L 27.875 71.578125 
L 43.171875 71.578125 
z
M 45.21875 28.328125 
L 35.359375 54.890625 
L 25.6875 28.328125 
z
" id="Arial-BoldMT-65"/>
      <path d="M 7.234375 71.578125 
L 33.640625 71.578125 
Q 42.578125 71.578125 47.265625 70.21875 
Q 53.5625 68.359375 58.046875 63.625 
Q 62.546875 58.890625 64.890625 52.03125 
Q 67.234375 45.171875 67.234375 35.109375 
Q 67.234375 26.265625 65.046875 19.875 
Q 62.359375 12.0625 57.375 7.234375 
Q 53.609375 3.5625 47.21875 1.515625 
Q 42.4375 0 34.421875 0 
L 7.234375 0 
z
M 21.6875 59.46875 
L 21.6875 12.0625 
L 32.46875 12.0625 
Q 38.53125 12.0625 41.21875 12.75 
Q 44.734375 13.625 47.046875 15.71875 
Q 49.359375 17.828125 50.828125 22.625 
Q 52.296875 27.4375 52.296875 35.75 
Q 52.296875 44.046875 50.828125 48.484375 
Q 49.359375 52.9375 46.71875 55.421875 
Q 44.09375 57.90625 40.046875 58.796875 
Q 37.015625 59.46875 28.171875 59.46875 
z
" id="Arial-BoldMT-68"/>
      <path d="M 6.84375 0 
L 6.84375 71.578125 
L 21.296875 71.578125 
L 21.296875 0 
z
" id="Arial-BoldMT-73"/>
      <path d="M 7.171875 71.578125 
L 21.625 71.578125 
L 21.625 32.8125 
Q 21.625 23.578125 22.171875 20.84375 
Q 23.09375 16.453125 26.578125 13.796875 
Q 30.078125 11.140625 36.140625 11.140625 
Q 42.28125 11.140625 45.40625 13.640625 
Q 48.53125 16.15625 49.171875 19.8125 
Q 49.8125 23.484375 49.8125 31.984375 
L 49.8125 71.578125 
L 64.265625 71.578125 
L 64.265625 33.984375 
Q 64.265625 21.09375 63.09375 15.765625 
Q 61.921875 10.453125 58.765625 6.78125 
Q 55.609375 3.125 50.328125 0.953125 
Q 45.0625 -1.21875 36.578125 -1.21875 
Q 26.3125 -1.21875 21.015625 1.140625 
Q 15.71875 3.515625 12.640625 7.296875 
Q 9.578125 11.078125 8.59375 15.234375 
Q 7.171875 21.390625 7.171875 33.40625 
z
" id="Arial-BoldMT-85"/>
      <path d="M 3.609375 23.296875 
L 17.671875 24.65625 
Q 18.953125 17.578125 22.828125 14.25 
Q 26.703125 10.9375 33.296875 10.9375 
Q 40.28125 10.9375 43.8125 13.890625 
Q 47.359375 16.84375 47.359375 20.796875 
Q 47.359375 23.34375 45.875 25.125 
Q 44.390625 26.90625 40.671875 28.21875 
Q 38.140625 29.109375 29.109375 31.34375 
Q 17.484375 34.234375 12.796875 38.421875 
Q 6.203125 44.34375 6.203125 52.828125 
Q 6.203125 58.296875 9.296875 63.0625 
Q 12.40625 67.828125 18.234375 70.3125 
Q 24.078125 72.796875 32.328125 72.796875 
Q 45.796875 72.796875 52.609375 66.890625 
Q 59.421875 60.984375 59.765625 51.125 
L 45.3125 50.484375 
Q 44.390625 56 41.328125 58.421875 
Q 38.28125 60.84375 32.171875 60.84375 
Q 25.875 60.84375 22.3125 58.25 
Q 20.015625 56.59375 20.015625 53.8125 
Q 20.015625 51.265625 22.171875 49.46875 
Q 24.90625 47.171875 35.453125 44.671875 
Q 46 42.1875 51.046875 39.515625 
Q 56.109375 36.859375 58.953125 32.25 
Q 61.8125 27.640625 61.8125 20.84375 
Q 61.8125 14.703125 58.390625 9.328125 
Q 54.984375 3.953125 48.734375 1.34375 
Q 42.484375 -1.265625 33.15625 -1.265625 
Q 19.578125 -1.265625 12.296875 5 
Q 5.03125 11.28125 3.609375 23.296875 
z
" id="Arial-BoldMT-83"/>
     </defs>
     <g transform="translate(259.019688 493.51125)scale(0.2 -0.2)">
      <use xlink:href="#Arial-BoldMT-82"/>
      <use x="72.216797" xlink:href="#Arial-BoldMT-65"/>
      <use x="144.433594" xlink:href="#Arial-BoldMT-68"/>
      <use x="216.650391" xlink:href="#Arial-BoldMT-73"/>
      <use x="244.433594" xlink:href="#Arial-BoldMT-85"/>
      <use x="316.650391" xlink:href="#Arial-BoldMT-83"/>
     </g>
    </g>
   </g>
   <g id="matplotlib.axis_2">
    <g id="ytick_1">
     <g id="line2d_7">
      <defs>
       <path d="M 0 0 
L -3.5 0 
" id="m81514ac417" style="stroke:#000000;stroke-width:0.8;"/>
      </defs>
      <g>
       <use style="stroke:#000000;stroke-width:0.8;" x="102.055625" xlink:href="#m81514ac417" y="433.16125"/>
      </g>
     </g>
     <g id="text_8">
      <!-- 0 -->
      <g transform="translate(75.968125 444.558906)scale(0.3 -0.3)">
       <use xlink:href="#DejaVuSans-48"/>
      </g>
     </g>
    </g>
    <g id="ytick_2">
     <g id="line2d_8">
      <g>
       <use style="stroke:#000000;stroke-width:0.8;" x="102.055625" xlink:href="#m81514ac417" y="369.74125"/>
      </g>
     </g>
     <g id="text_9">
      <!-- 5 -->
      <g transform="translate(75.968125 381.138906)scale(0.3 -0.3)">
       <use xlink:href="#DejaVuSans-53"/>
      </g>
     </g>
    </g>
    <g id="ytick_3">
     <g id="line2d_9">
      <g>
       <use style="stroke:#000000;stroke-width:0.8;" x="102.055625" xlink:href="#m81514ac417" y="306.32125"/>
      </g>
     </g>
     <g id="text_10">
      <!-- 10 -->
      <g transform="translate(56.880625 317.718906)scale(0.3 -0.3)">
       <use xlink:href="#DejaVuSans-49"/>
       <use x="63.623047" xlink:href="#DejaVuSans-48"/>
      </g>
     </g>
    </g>
    <g id="ytick_4">
     <g id="line2d_10">
      <g>
       <use style="stroke:#000000;stroke-width:0.8;" x="102.055625" xlink:href="#m81514ac417" y="242.90125"/>
      </g>
     </g>
     <g id="text_11">
      <!-- 15 -->
      <g transform="translate(56.880625 254.298906)scale(0.3 -0.3)">
       <use xlink:href="#DejaVuSans-49"/>
       <use x="63.623047" xlink:href="#DejaVuSans-53"/>
      </g>
     </g>
    </g>
    <g id="ytick_5">
     <g id="line2d_11">
      <g>
       <use style="stroke:#000000;stroke-width:0.8;" x="102.055625" xlink:href="#m81514ac417" y="179.48125"/>
      </g>
     </g>
     <g id="text_12">
      <!-- 20 -->
      <g transform="translate(56.880625 190.878906)scale(0.3 -0.3)">
       <use xlink:href="#DejaVuSans-50"/>
       <use x="63.623047" xlink:href="#DejaVuSans-48"/>
      </g>
     </g>
    </g>
    <g id="ytick_6">
     <g id="line2d_12">
      <g>
       <use style="stroke:#000000;stroke-width:0.8;" x="102.055625" xlink:href="#m81514ac417" y="116.06125"/>
      </g>
     </g>
     <g id="text_13">
      <!-- 25 -->
      <g transform="translate(56.880625 127.458906)scale(0.3 -0.3)">
       <use xlink:href="#DejaVuSans-50"/>
       <use x="63.623047" xlink:href="#DejaVuSans-53"/>
      </g>
     </g>
    </g>
    <g id="ytick_7">
     <g id="line2d_13">
      <g>
       <use style="stroke:#000000;stroke-width:0.8;" x="102.055625" xlink:href="#m81514ac417" y="52.64125"/>
      </g>
     </g>
     <g id="text_14">
      <!-- 30 -->
      <g transform="translate(56.880625 64.038906)scale(0.3 -0.3)">
       <use xlink:href="#DejaVuSans-51"/>
       <use x="63.623047" xlink:href="#DejaVuSans-48"/>
      </g>
     </g>
    </g>
    <g id="text_15">
     <!-- CD8 NORMALIZED -->
     <defs>
      <path d="M 53.078125 26.3125 
L 67.09375 21.875 
Q 63.875 10.15625 56.375 4.46875 
Q 48.875 -1.21875 37.359375 -1.21875 
Q 23.09375 -1.21875 13.90625 8.515625 
Q 4.734375 18.265625 4.734375 35.15625 
Q 4.734375 53.03125 13.953125 62.90625 
Q 23.1875 72.796875 38.234375 72.796875 
Q 51.375 72.796875 59.578125 65.046875 
Q 64.453125 60.453125 66.890625 51.859375 
L 52.59375 48.4375 
Q 51.3125 54 47.28125 57.21875 
Q 43.265625 60.453125 37.5 60.453125 
Q 29.546875 60.453125 24.578125 54.734375 
Q 19.625 49.03125 19.625 36.234375 
Q 19.625 22.65625 24.5 16.890625 
Q 29.390625 11.140625 37.203125 11.140625 
Q 42.96875 11.140625 47.109375 14.796875 
Q 51.265625 18.453125 53.078125 26.3125 
z
" id="Arial-BoldMT-67"/>
      <path d="M 16.015625 38.625 
Q 10.6875 40.875 8.265625 44.796875 
Q 5.859375 48.734375 5.859375 53.421875 
Q 5.859375 61.421875 11.453125 66.640625 
Q 17.046875 71.875 27.34375 71.875 
Q 37.546875 71.875 43.1875 66.640625 
Q 48.828125 61.421875 48.828125 53.421875 
Q 48.828125 48.4375 46.234375 44.546875 
Q 43.65625 40.671875 38.96875 38.625 
Q 44.921875 36.234375 48.015625 31.640625 
Q 51.125 27.046875 51.125 21.046875 
Q 51.125 11.140625 44.796875 4.9375 
Q 38.484375 -1.265625 27.984375 -1.265625 
Q 18.21875 -1.265625 11.71875 3.859375 
Q 4.046875 9.90625 4.046875 20.453125 
Q 4.046875 26.265625 6.921875 31.125 
Q 9.8125 35.984375 16.015625 38.625 
z
M 18.84375 52.4375 
Q 18.84375 48.34375 21.15625 46.046875 
Q 23.484375 43.75 27.34375 43.75 
Q 31.25 43.75 33.59375 46.0625 
Q 35.9375 48.390625 35.9375 52.484375 
Q 35.9375 56.34375 33.609375 58.65625 
Q 31.296875 60.984375 27.484375 60.984375 
Q 23.53125 60.984375 21.1875 58.640625 
Q 18.84375 56.296875 18.84375 52.4375 
z
M 17.578125 21.78125 
Q 17.578125 16.109375 20.484375 12.9375 
Q 23.390625 9.765625 27.734375 9.765625 
Q 31.984375 9.765625 34.765625 12.8125 
Q 37.546875 15.875 37.546875 21.625 
Q 37.546875 26.65625 34.71875 29.703125 
Q 31.890625 32.765625 27.546875 32.765625 
Q 22.515625 32.765625 20.046875 29.296875 
Q 17.578125 25.828125 17.578125 21.78125 
z
" id="Arial-BoldMT-56"/>
      <path id="Arial-BoldMT-32"/>
      <path d="M 7.421875 0 
L 7.421875 71.578125 
L 21.484375 71.578125 
L 50.78125 23.78125 
L 50.78125 71.578125 
L 64.203125 71.578125 
L 64.203125 0 
L 49.703125 0 
L 20.84375 46.6875 
L 20.84375 0 
z
" id="Arial-BoldMT-78"/>
      <path d="M 4.34375 35.359375 
Q 4.34375 46.296875 7.625 53.71875 
Q 10.0625 59.1875 14.28125 63.53125 
Q 18.5 67.875 23.53125 69.96875 
Q 30.21875 72.796875 38.96875 72.796875 
Q 54.78125 72.796875 64.28125 62.984375 
Q 73.78125 53.171875 73.78125 35.6875 
Q 73.78125 18.359375 64.359375 8.5625 
Q 54.9375 -1.21875 39.15625 -1.21875 
Q 23.1875 -1.21875 13.765625 8.515625 
Q 4.34375 18.265625 4.34375 35.359375 
z
M 19.234375 35.84375 
Q 19.234375 23.6875 24.84375 17.40625 
Q 30.46875 11.140625 39.109375 11.140625 
Q 47.75 11.140625 53.296875 17.359375 
Q 58.84375 23.578125 58.84375 36.03125 
Q 58.84375 48.34375 53.4375 54.390625 
Q 48.046875 60.453125 39.109375 60.453125 
Q 30.171875 60.453125 24.703125 54.3125 
Q 19.234375 48.1875 19.234375 35.84375 
z
" id="Arial-BoldMT-79"/>
      <path d="M 7.078125 0 
L 7.078125 71.578125 
L 28.71875 71.578125 
L 41.703125 22.75 
L 54.546875 71.578125 
L 76.21875 71.578125 
L 76.21875 0 
L 62.796875 0 
L 62.796875 56.34375 
L 48.578125 0 
L 34.671875 0 
L 20.515625 56.34375 
L 20.515625 0 
z
" id="Arial-BoldMT-77"/>
      <path d="M 7.671875 0 
L 7.671875 71 
L 22.125 71 
L 22.125 12.0625 
L 58.0625 12.0625 
L 58.0625 0 
z
" id="Arial-BoldMT-76"/>
      <path d="M 1.078125 0 
L 1.078125 13.03125 
L 38.671875 59.46875 
L 5.328125 59.46875 
L 5.328125 71.578125 
L 57.71875 71.578125 
L 57.71875 60.359375 
L 18.5 12.0625 
L 59.234375 12.0625 
L 59.234375 0 
z
" id="Arial-BoldMT-90"/>
      <path d="M 7.28125 0 
L 7.28125 71.578125 
L 60.359375 71.578125 
L 60.359375 59.46875 
L 21.734375 59.46875 
L 21.734375 43.609375 
L 57.671875 43.609375 
L 57.671875 31.546875 
L 21.734375 31.546875 
L 21.734375 12.0625 
L 61.71875 12.0625 
L 61.71875 0 
z
" id="Arial-BoldMT-69"/>
     </defs>
     <g transform="translate(21.253125 332.343437)rotate(-90)scale(0.2 -0.2)">
      <use xlink:href="#Arial-BoldMT-67"/>
      <use x="72.216797" xlink:href="#Arial-BoldMT-68"/>
      <use x="144.433594" xlink:href="#Arial-BoldMT-56"/>
      <use x="200.048828" xlink:href="#Arial-BoldMT-32"/>
      <use x="227.832031" xlink:href="#Arial-BoldMT-78"/>
      <use x="300.048828" xlink:href="#Arial-BoldMT-79"/>
      <use x="377.832031" xlink:href="#Arial-BoldMT-82"/>
      <use x="450.048828" xlink:href="#Arial-BoldMT-77"/>
      <use x="533.349609" xlink:href="#Arial-BoldMT-65"/>
      <use x="605.566406" xlink:href="#Arial-BoldMT-76"/>
      <use x="666.650391" xlink:href="#Arial-BoldMT-73"/>
      <use x="694.433594" xlink:href="#Arial-BoldMT-90"/>
      <use x="755.517578" xlink:href="#Arial-BoldMT-69"/>
      <use x="822.216797" xlink:href="#Arial-BoldMT-68"/>
     </g>
     <!-- CELL COUNTS (NUMBERS) -->
     <defs>
      <path d="M 23.390625 0 
L 23.390625 59.46875 
L 2.15625 59.46875 
L 2.15625 71.578125 
L 59.03125 71.578125 
L 59.03125 59.46875 
L 37.84375 59.46875 
L 37.84375 0 
z
" id="Arial-BoldMT-84"/>
      <path d="M 29.9375 -21.046875 
L 20.515625 -21.046875 
Q 13.03125 -9.765625 9.125 2.390625 
Q 5.21875 14.546875 5.21875 25.921875 
Q 5.21875 40.046875 10.0625 52.640625 
Q 14.265625 63.578125 20.703125 72.796875 
L 30.078125 72.796875 
Q 23.390625 58.015625 20.875 47.625 
Q 18.359375 37.25 18.359375 25.640625 
Q 18.359375 17.625 19.84375 9.21875 
Q 21.34375 0.828125 23.921875 -6.734375 
Q 25.640625 -11.71875 29.9375 -21.046875 
z
" id="Arial-BoldMT-40"/>
      <path d="M 7.328125 71.578125 
L 35.9375 71.578125 
Q 44.4375 71.578125 48.609375 70.875 
Q 52.78125 70.171875 56.078125 67.921875 
Q 59.375 65.671875 61.5625 61.9375 
Q 63.765625 58.203125 63.765625 53.5625 
Q 63.765625 48.53125 61.046875 44.328125 
Q 58.34375 40.140625 53.71875 38.03125 
Q 60.25 36.140625 63.765625 31.546875 
Q 67.28125 26.953125 67.28125 20.75 
Q 67.28125 15.875 65.015625 11.25 
Q 62.75 6.640625 58.8125 3.875 
Q 54.890625 1.125 49.125 0.484375 
Q 45.515625 0.09375 31.6875 0 
L 7.328125 0 
z
M 21.78125 59.671875 
L 21.78125 43.109375 
L 31.25 43.109375 
Q 39.703125 43.109375 41.75 43.359375 
Q 45.453125 43.796875 47.578125 45.921875 
Q 49.703125 48.046875 49.703125 51.515625 
Q 49.703125 54.828125 47.875 56.90625 
Q 46.046875 58.984375 42.4375 59.421875 
Q 40.28125 59.671875 30.078125 59.671875 
z
M 21.78125 31.203125 
L 21.78125 12.0625 
L 35.15625 12.0625 
Q 42.96875 12.0625 45.0625 12.5 
Q 48.296875 13.09375 50.3125 15.359375 
Q 52.34375 17.625 52.34375 21.4375 
Q 52.34375 24.65625 50.78125 26.90625 
Q 49.21875 29.15625 46.265625 30.171875 
Q 43.3125 31.203125 33.453125 31.203125 
z
" id="Arial-BoldMT-66"/>
      <path d="M 3.375 -21.046875 
Q 7.421875 -12.359375 9.078125 -7.71875 
Q 10.75 -3.078125 12.15625 2.96875 
Q 13.578125 9.03125 14.25 14.46875 
Q 14.9375 19.921875 14.9375 25.640625 
Q 14.9375 37.25 12.453125 47.625 
Q 9.96875 58.015625 3.265625 72.796875 
L 12.59375 72.796875 
Q 19.96875 62.3125 24.046875 50.53125 
Q 28.125 38.765625 28.125 26.65625 
Q 28.125 16.453125 24.90625 4.78125 
Q 21.234375 -8.296875 12.84375 -21.046875 
z
" id="Arial-BoldMT-41"/>
     </defs>
     <g transform="translate(42.67125 374.002812)rotate(-90)scale(0.2 -0.2)">
      <use xlink:href="#Arial-BoldMT-67"/>
      <use x="72.216797" xlink:href="#Arial-BoldMT-69"/>
      <use x="138.916016" xlink:href="#Arial-BoldMT-76"/>
      <use x="200" xlink:href="#Arial-BoldMT-76"/>
      <use x="261.068359" xlink:href="#Arial-BoldMT-32"/>
      <use x="288.851562" xlink:href="#Arial-BoldMT-67"/>
      <use x="361.068359" xlink:href="#Arial-BoldMT-79"/>
      <use x="438.851562" xlink:href="#Arial-BoldMT-85"/>
      <use x="511.068359" xlink:href="#Arial-BoldMT-78"/>
      <use x="583.285156" xlink:href="#Arial-BoldMT-84"/>
      <use x="644.369141" xlink:href="#Arial-BoldMT-83"/>
      <use x="711.068359" xlink:href="#Arial-BoldMT-32"/>
      <use x="738.851562" xlink:href="#Arial-BoldMT-40"/>
      <use x="772.152344" xlink:href="#Arial-BoldMT-78"/>
      <use x="844.369141" xlink:href="#Arial-BoldMT-85"/>
      <use x="916.585938" xlink:href="#Arial-BoldMT-77"/>
      <use x="999.886719" xlink:href="#Arial-BoldMT-66"/>
      <use x="1072.103516" xlink:href="#Arial-BoldMT-69"/>
      <use x="1138.802734" xlink:href="#Arial-BoldMT-82"/>
      <use x="1211.019531" xlink:href="#Arial-BoldMT-83"/>
      <use x="1277.71875" xlink:href="#Arial-BoldMT-41"/>
     </g>
    </g>
   </g>
   <g id="line2d_14">
    <path clip-path="url(#p63ef12496a)" d="M 102.055625 369.74125 
L 113.891989 357.05725 
L 125.728352 322.17625 
L 137.564716 279.543917 
L 149.40108 229.68875 
L 161.237443 225.56645 
L 173.073807 238.320917 
L 184.91017 282.76525 
L 196.746534 293.63725 
L 208.582898 290.348806 
L 220.419261 271.86305 
L 232.255625 275.956523 
L 244.091989 268.093083 
L 255.928352 242.413404 
L 267.764716 233.38825 
L 279.60108 234.44525 
L 291.437443 229.820875 
L 303.273807 248.497132 
L 315.11017 256.524806 
L 326.946534 255.251461 
L 338.782898 248.82045 
L 350.619261 252.162583 
L 362.455625 250.204159 
L 374.291989 243.268902 
L 386.128352 247.65775 
L 397.964716 263.19565 
L 409.80108 258.105788 
L 421.637443 268.817324 
L 433.473807 269.62825 
L 445.31017 277.016836 
L 457.146534 286.590583 
L 468.982898 287.431637 
L 480.819261 289.343187 
L 492.655625 299.594886 
" style="fill:none;stroke:#08306b;stroke-linecap:square;stroke-width:1.5;"/>
   </g>
   <g id="line2d_15">
    <path clip-path="url(#p63ef12496a)" d="M 102.055625 306.32125 
L 113.891989 259.81325 
L 125.728352 251.35725 
L 137.564716 255.58525 
L 149.40108 305.26425 
L 161.237443 328.72965 
L 173.073807 324.29025 
L 184.91017 307.22725 
L 196.746534 286.76675 
L 208.582898 257.464361 
L 220.419261 232.96545 
L 232.255625 215.611432 
L 244.091989 206.43475 
L 255.928352 204.84925 
L 267.764716 217.08025 
L 279.60108 232.472183 
L 291.437443 244.751 
L 303.273807 248.621485 
L 315.11017 252.296806 
L 326.946534 241.677355 
L 338.782898 253.89405 
L 350.619261 254.578583 
L 362.455625 253.47125 
L 374.291989 255.125685 
L 386.128352 263.160417 
L 397.964716 268.69205 
L 409.80108 269.732788 
L 421.637443 266.625028 
L 433.473807 253.84875 
L 445.31017 244.140491 
L 457.146534 259.108583 
L 468.982898 267.928282 
L 480.819261 268.335312 
L 492.655625 267.436462 
" style="fill:none;stroke:#08306b;stroke-linecap:square;stroke-width:1.5;"/>
   </g>
   <g id="line2d_16">
    <path clip-path="url(#p63ef12496a)" d="M 102.055625 242.90125 
L 113.891989 198.50725 
L 125.728352 208.02025 
L 137.564716 220.351917 
L 149.40108 247.12925 
L 161.237443 223.45245 
L 173.073807 184.76625 
L 184.91017 205.45325 
L 196.746534 211.19125 
L 208.582898 220.351917 
L 220.419261 245.43805 
L 232.255625 251.933795 
L 244.091989 268.79775 
L 255.928352 252.658173 
L 267.764716 252.56525 
L 279.60108 256.994583 
L 291.437443 261.002375 
L 303.273807 277.098309 
L 315.11017 282.362583 
L 326.946534 293.525987 
L 338.782898 295.43415 
L 350.619261 288.704583 
L 362.455625 282.586795 
L 374.291989 260.364728 
L 386.128352 255.409083 
L 397.964716 241.88653 
L 409.80108 232.006019 
L 421.637443 235.463102 
L 433.473807 239.35275 
L 445.31017 243.848905 
L 457.146534 249.24325 
L 468.982898 257.494669 
L 480.819261 265.428562 
L 492.655625 275.251856 
" style="fill:none;stroke:#08306b;stroke-linecap:square;stroke-width:1.5;"/>
   </g>
   <g id="line2d_17">
    <path clip-path="url(#p63ef12496a)" d="M 102.055625 357.05725 
L 113.891989 293.63725 
L 125.728352 276.72525 
L 137.564716 216.123917 
L 149.40108 193.75075 
L 161.237443 208.65445 
L 173.073807 225.636917 
L 184.91017 253.16925 
L 196.746534 268.5335 
L 208.582898 276.960139 
L 220.419261 257.69925 
L 232.255625 259.428886 
L 244.091989 256.818417 
L 255.928352 252.495558 
L 267.764716 244.41125 
L 279.60108 238.814183 
L 291.437443 232.33125 
L 303.273807 239.170662 
L 315.11017 240.669806 
L 326.946534 234.222724 
L 338.782898 239.62455 
L 350.619261 236.156583 
L 362.455625 244.246523 
L 374.291989 251.816815 
L 386.128352 249.24325 
L 397.964716 259.55957 
L 409.80108 265.423481 
L 421.637443 257.07288 
L 433.473807 258.75625 
L 445.31017 268.196353 
L 457.146534 279.26205 
L 468.982898 287.908992 
L 480.819261 289.739562 
L 492.655625 298.505856 
" style="fill:none;stroke:#08306b;stroke-linecap:square;stroke-width:1.5;"/>
   </g>
   <g id="line2d_18">
    <path clip-path="url(#p63ef12496a)" d="M 102.055625 331.68925 
L 113.891989 255.58525 
L 125.728352 229.16025 
L 137.564716 233.035917 
L 149.40108 224.40375 
L 161.237443 242.47845 
L 173.073807 262.631917 
L 184.91017 278.23525 
L 196.746534 285.4455 
L 208.582898 301.153694 
L 220.419261 260.87025 
L 232.255625 259.621068 
L 244.091989 250.82875 
L 255.928352 251.032019 
L 267.764716 242.75025 
L 279.60108 216.969517 
L 291.437443 213.173125 
L 303.273807 221.015132 
L 315.11017 233.740583 
L 326.946534 248.130618 
L 338.782898 272.60295 
L 350.619261 298.368583 
L 362.455625 306.897795 
L 374.291989 306.229337 
L 386.128352 288.440333 
L 397.964716 270.12957 
L 409.80108 250.30025 
L 421.637443 244.075694 
L 433.473807 243.27875 
L 445.31017 252.013319 
L 457.146534 260.095117 
L 468.982898 270.178669 
L 480.819261 282.2745 
L 492.655625 288.256159 
" style="fill:none;stroke:#08306b;stroke-linecap:square;stroke-width:1.5;"/>
   </g>
   <g id="line2d_19">
    <path clip-path="url(#p63ef12496a)" d="M 102.055625 141.42925 
L 113.891989 160.45525 
L 125.728352 178.42425 
L 137.564716 183.004583 
L 149.40108 219.11875 
L 161.237443 222.60685 
L 173.073807 270.030917 
L 184.91017 277.63125 
L 196.746534 265.3625 
L 208.582898 260.048139 
L 220.419261 249.03185 
L 232.255625 224.451795 
L 244.091989 226.165417 
L 255.928352 244.039558 
L 267.764716 251.50825 
L 279.60108 233.740583 
L 291.437443 225.46075 
L 303.273807 234.320897 
L 315.11017 233.505694 
L 326.946534 250.578408 
L 338.782898 244.59245 
L 350.619261 240.48525 
L 362.455625 266.059159 
L 374.291989 279.574554 
L 386.128352 295.398917 
L 397.964716 303.02341 
L 409.80108 304.125942 
L 421.637443 292.541102 
L 433.473807 288.42775 
L 445.31017 274.173871 
L 457.146534 265.239183 
L 468.982898 263.154734 
L 480.819261 253.669437 
L 492.655625 254.304038 
" style="fill:none;stroke:#08306b;stroke-linecap:square;stroke-width:1.5;"/>
   </g>
   <g id="line2d_20">
    <path clip-path="url(#p63ef12496a)" d="M 103.880678 -1 
L 113.891989 52.64125 
L 125.728352 150.94225 
L 137.564716 204.84925 
L 149.40108 254.52825 
L 161.237443 238.67325 
L 173.073807 263.688917 
L 184.91017 283.36925 
L 196.746534 278.0465 
L 208.582898 258.169028 
L 220.419261 245.86085 
L 232.255625 250.780705 
L 244.091989 256.466083 
L 255.928352 265.504788 
L 267.764716 259.81325 
L 279.60108 251.35725 
L 291.437443 244.883125 
L 303.273807 228.973721 
L 315.11017 227.516028 
L 326.946534 229.549671 
L 338.782898 238.67325 
L 350.619261 252.86725 
L 362.455625 262.407705 
L 374.291989 269.280293 
L 386.128352 264.3055 
L 397.964716 271.73621 
L 409.80108 276.074788 
L 421.637443 278.134583 
L 433.473807 267.58975 
L 445.31017 257.116078 
L 457.146534 256.712717 
L 468.982898 258.381185 
L 480.819261 253.7355 
L 492.655625 259.749189 
" style="fill:none;stroke:#08306b;stroke-linecap:square;stroke-width:1.5;"/>
   </g>
   <g id="line2d_21">
    <path clip-path="url(#p63ef12496a)" d="M 102.055625 268.26925 
L 113.891989 194.27925 
L 125.728352 235.50225 
L 137.564716 223.87525 
L 149.40108 208.54875 
L 161.237443 184.55485 
L 173.073807 178.071917 
L 184.91017 183.70925 
L 196.746534 204.585 
L 208.582898 254.645694 
L 220.419261 248.18625 
L 232.255625 246.937068 
L 244.091989 255.409083 
L 255.928352 267.944019 
L 267.764716 281.25525 
L 279.60108 274.470317 
L 291.437443 278.971375 
L 303.273807 260.683721 
L 315.11017 243.605917 
L 326.946534 234.222724 
L 338.782898 244.06395 
L 350.619261 270.584583 
L 362.455625 281.049341 
L 374.291989 290.144554 
L 386.128352 259.549 
L 397.964716 263.36477 
L 409.80108 275.66825 
L 421.637443 278.134583 
L 433.473807 277.63125 
L 445.31017 281.536422 
L 457.146534 275.738717 
L 468.982898 269.769508 
L 480.819261 264.900062 
L 492.655625 260.774159 
" style="fill:none;stroke:#08306b;stroke-linecap:square;stroke-width:1.5;"/>
   </g>
   <g id="line2d_22">
    <path clip-path="url(#p63ef12496a)" d="M 102.055625 103.37725 
L 113.891989 245.01525 
L 125.728352 297.86525 
L 137.564716 328.165917 
L 149.40108 307.90675 
L 161.237443 322.38765 
L 173.073807 311.958583 
L 184.91017 292.73125 
L 196.746534 278.575 
L 208.582898 282.597472 
L 220.419261 280.95325 
L 232.255625 282.106341 
L 244.091989 286.76675 
L 255.928352 277.050481 
L 267.764716 267.81625 
L 279.60108 259.81325 
L 291.437443 249.111125 
L 303.273807 267.025721 
L 315.11017 281.423028 
L 326.946534 288.630408 
L 338.782898 266.04955 
L 350.619261 259.20925 
L 362.455625 252.894705 
L 374.291989 247.496902 
L 386.128352 265.186333 
L 397.964716 261.75813 
L 409.80108 252.41425 
L 421.637443 247.677324 
L 433.473807 240.10775 
L 445.31017 251.284353 
L 457.146534 257.69925 
L 468.982898 244.06054 
L 480.819261 245.2795 
L 492.655625 252.190038 
" style="fill:none;stroke:#08306b;stroke-linecap:square;stroke-width:1.5;"/>
   </g>
   <g id="line2d_23">
    <path clip-path="url(#p63ef12496a)" d="M 102.055625 319.00525 
L 113.891989 325.34725 
L 125.728352 331.68925 
L 137.564716 306.32125 
L 149.40108 308.96375 
L 161.237443 296.59685 
L 173.073807 261.92725 
L 184.91017 228.70725 
L 196.746534 225.725 
L 208.582898 204.379472 
L 220.419261 202.52385 
L 232.255625 206.771068 
L 244.091989 234.092917 
L 255.928352 257.69925 
L 267.764716 270.83625 
L 279.60108 278.557383 
L 291.437443 270.515375 
L 303.273807 264.538662 
L 315.11017 248.773472 
L 326.946534 244.013882 
L 338.782898 239.62455 
L 350.619261 235.35125 
L 362.455625 238.67325 
L 374.291989 241.798293 
L 386.128352 266.4195 
L 397.964716 285.77317 
L 409.80108 294.775558 
L 421.637443 283.537028 
L 433.473807 272.64825 
L 445.31017 268.779526 
L 457.146534 272.70865 
L 468.982898 273.247379 
L 480.819261 280.887187 
L 492.655625 286.718705 
" style="fill:none;stroke:#08306b;stroke-linecap:square;stroke-width:1.5;"/>
   </g>
   <g id="line2d_24">
    <path clip-path="url(#p63ef12496a)" d="M 102.055625 382.42525 
L 113.891989 344.37325 
L 125.728352 246.07225 
L 137.564716 204.144583 
L 149.40108 195.86475 
L 161.237443 217.53325 
L 173.073807 242.196583 
L 184.91017 271.89325 
L 196.746534 300.50775 
L 208.582898 343.433694 
L 220.419261 347.33285 
L 232.255625 317.659977 
L 244.091989 299.45075 
L 255.928352 285.506481 
L 267.764716 270.68525 
L 279.60108 260.799783 
L 291.437443 261.39875 
L 303.273807 265.160426 
L 315.11017 256.055028 
L 326.946534 254.472618 
L 338.782898 265.83815 
L 350.619261 274.510583 
L 362.455625 279.127523 
L 374.291989 286.835685 
L 386.128352 279.1035 
L 397.964716 283.49005 
L 409.80108 284.693404 
L 421.637443 291.679843 
L 433.473807 289.56025 
L 445.31017 291.52325 
L 457.146534 282.573983 
L 468.982898 290.704927 
L 480.819261 293.240875 
L 492.655625 299.274583 
" style="fill:none;stroke:#4a98c9;stroke-linecap:square;stroke-width:1.5;"/>
   </g>
   <g id="line2d_25">
    <path clip-path="url(#p63ef12496a)" d="M 102.055625 242.90125 
L 113.891989 232.33125 
L 125.728352 267.21225 
L 137.564716 287.999917 
L 149.40108 298.39375 
L 161.237443 338.87685 
L 173.073807 343.668583 
L 184.91017 322.93125 
L 196.746534 323.23325 
L 208.582898 298.804806 
L 220.419261 277.57085 
L 232.255625 255.008705 
L 244.091989 236.735417 
L 255.928352 220.297712 
L 267.764716 224.78125 
L 279.60108 221.76125 
L 291.437443 236.162875 
L 303.273807 259.440191 
L 315.11017 268.386694 
L 326.946534 280.619461 
L 338.782898 284.54705 
L 350.619261 273.10125 
L 362.455625 265.482614 
L 374.291989 275.438467 
L 386.128352 286.23825 
L 397.964716 278.58557 
L 409.80108 293.393327 
L 421.637443 294.889991 
L 433.473807 291.37225 
L 445.31017 294.366216 
L 457.146534 285.251717 
L 468.982898 291.52325 
L 480.819261 289.871687 
L 492.655625 305.360341 
" style="fill:none;stroke:#4a98c9;stroke-linecap:square;stroke-width:1.5;"/>
   </g>
   <g id="line2d_26">
    <path clip-path="url(#p63ef12496a)" d="M 102.055625 331.68925 
L 113.891989 357.05725 
L 125.728352 332.74625 
L 137.564716 309.139917 
L 149.40108 285.70975 
L 161.237443 250.08885 
L 173.073807 268.973917 
L 184.91017 265.24925 
L 196.746534 262.1915 
L 208.582898 264.04125 
L 220.419261 273.76565 
L 232.255625 277.301795 
L 244.091989 291.875583 
L 255.928352 309.248327 
L 267.764716 325.19625 
L 279.60108 305.616583 
L 291.437443 294.826375 
L 303.273807 295.005132 
L 315.11017 300.096694 
L 326.946534 306.766303 
L 338.782898 290.78335 
L 350.619261 292.328583 
L 362.455625 293.060705 
L 374.291989 278.655424 
L 386.128352 257.69925 
L 397.964716 254.65509 
L 409.80108 256.64225 
L 421.637443 263.884657 
L 433.473807 277.10275 
L 445.31017 284.525181 
L 457.146534 292.15745 
L 468.982898 287.977185 
L 480.819261 290.46625 
L 492.655625 299.658947 
" style="fill:none;stroke:#4a98c9;stroke-linecap:square;stroke-width:1.5;"/>
   </g>
   <g id="line2d_27">
    <path clip-path="url(#p63ef12496a)" d="M 102.055625 141.42925 
L 113.891989 185.82325 
L 125.728352 239.73025 
L 137.564716 233.740583 
L 149.40108 224.93225 
L 161.237443 221.33845 
L 173.073807 222.81825 
L 184.91017 225.68725 
L 196.746534 249.24325 
L 208.582898 294.107028 
L 220.419261 295.11705 
L 232.255625 304.20725 
L 244.091989 281.834083 
L 255.928352 282.579404 
L 267.764716 292.73125 
L 279.60108 283.208183 
L 291.437443 264.3055 
L 303.273807 255.212191 
L 315.11017 238.555806 
L 326.946534 227.880724 
L 338.782898 229.37165 
L 350.619261 232.02925 
L 362.455625 234.44525 
L 374.291989 229.02238 
L 386.128352 245.808 
L 397.964716 250.00429 
L 409.80108 251.113327 
L 421.637443 274.141472 
L 433.473807 294.46775 
L 445.31017 296.990491 
L 457.146534 304.136783 
L 468.982898 306.184863 
L 480.819261 309.49225 
L 492.655625 310.036765 
" style="fill:none;stroke:#4a98c9;stroke-linecap:square;stroke-width:1.5;"/>
   </g>
   <g id="line2d_28">
    <path clip-path="url(#p63ef12496a)" d="M 102.055625 242.90125 
L 113.891989 242.90125 
L 125.728352 240.78725 
L 137.564716 209.07725 
L 149.40108 209.07725 
L 161.237443 226.41205 
L 173.073807 280.248583 
L 184.91017 305.71725 
L 196.746534 307.114 
L 208.582898 320.414583 
L 220.419261 293.21445 
L 232.255625 274.995614 
L 244.091989 289.761583 
L 255.928352 276.562635 
L 267.764716 254.83025 
L 279.60108 236.841117 
L 291.437443 235.7665 
L 303.273807 247.004897 
L 315.11017 254.880583 
L 326.946534 269.826934 
L 338.782898 297.33675 
L 350.619261 314.575917 
L 362.455625 332.265795 
L 374.291989 333.987076 
L 386.128352 314.513 
L 397.964716 283.82829 
L 409.80108 264.854327 
L 421.637443 261.222583 
L 433.473807 263.36175 
L 445.31017 261.70856 
L 457.146534 278.134583 
L 468.982898 302.638798 
L 480.819261 302.753875 
L 492.655625 316.763129 
" style="fill:none;stroke:#4a98c9;stroke-linecap:square;stroke-width:1.5;"/>
   </g>
   <g id="line2d_29">
    <path clip-path="url(#p63ef12496a)" d="M 102.055625 204.84925 
L 113.891989 310.54925 
L 125.728352 295.75125 
L 137.564716 302.797917 
L 149.40108 335.38875 
L 161.237443 309.70365 
L 173.073807 291.170917 
L 184.91017 314.77725 
L 196.746534 290.46625 
L 208.582898 286.355694 
L 220.419261 271.86305 
L 232.255625 274.995614 
L 244.091989 255.58525 
L 255.928352 247.291865 
L 267.764716 264.64525 
L 279.60108 271.933517 
L 291.437443 253.603375 
L 303.273807 253.595603 
L 315.11017 250.182806 
L 326.946534 249.465776 
L 338.782898 242.79555 
L 350.619261 244.914583 
L 362.455625 250.972886 
L 374.291989 268.453076 
L 386.128352 284.300417 
L 397.964716 299.97925 
L 409.80108 306.32125 
L 421.637443 322.841769 
L 433.473807 326.02675 
L 445.31017 304.280147 
L 457.146534 294.200983 
L 468.982898 282.794476 
L 480.819261 269.85475 
L 492.655625 277.81428 
" style="fill:none;stroke:#4a98c9;stroke-linecap:square;stroke-width:1.5;"/>
   </g>
   <g id="line2d_30">
    <path clip-path="url(#p63ef12496a)" d="M 102.055625 331.68925 
L 113.891989 270.38325 
L 125.728352 201.67825 
L 137.564716 251.35725 
L 149.40108 237.08775 
L 161.237443 298.71085 
L 173.073807 322.17625 
L 184.91017 328.97125 
L 196.746534 338.2955 
L 208.582898 319.00525 
L 220.419261 313.50885 
L 232.255625 300.747977 
L 244.091989 274.61125 
L 255.928352 269.244942 
L 267.764716 253.92425 
L 279.60108 270.242317 
L 291.437443 285.974 
L 303.273807 257.574897 
L 315.11017 240.317472 
L 326.946534 244.570197 
L 338.782898 259.17905 
L 350.619261 268.772583 
L 362.455625 277.590068 
L 374.291989 269.18838 
L 386.128352 275.9325 
L 397.964716 286.11141 
L 409.80108 295.913865 
L 421.637443 297.317176 
L 433.473807 296.73275 
L 445.31017 289.044767 
L 457.146534 288.56365 
L 468.982898 294.864734 
L 480.819261 290.664437 
L 492.655625 303.822886 
" style="fill:none;stroke:#4a98c9;stroke-linecap:square;stroke-width:1.5;"/>
   </g>
   <g id="line2d_31">
    <path clip-path="url(#p63ef12496a)" d="M 102.055625 319.00525 
L 113.891989 270.38325 
L 125.728352 247.12925 
L 137.564716 228.807917 
L 149.40108 223.87525 
L 161.237443 207.80885 
L 173.073807 212.952917 
L 184.91017 243.20325 
L 196.746534 264.56975 
L 208.582898 276.960139 
L 220.419261 257.06505 
L 232.255625 264.425614 
L 244.091989 262.631917 
L 255.928352 274.773865 
L 267.764716 273.70525 
L 279.60108 260.940717 
L 291.437443 254.660375 
L 303.273807 259.937603 
L 315.11017 259.460917 
L 326.946534 261.92725 
L 338.782898 261.71585 
L 350.619261 273.906583 
L 362.455625 290.177977 
L 374.291989 288.122467 
L 386.128352 277.25375 
L 397.964716 271.56709 
L 409.80108 266.724404 
L 421.637443 277.977991 
L 433.473807 291.14575 
L 445.31017 289.700836 
L 457.146534 286.87245 
L 468.982898 295.137508 
L 480.819261 281.679937 
L 492.655625 296.007492 
" style="fill:none;stroke:#4a98c9;stroke-linecap:square;stroke-width:1.5;"/>
   </g>
   <g id="line2d_32">
    <path clip-path="url(#p63ef12496a)" d="M 102.055625 242.90125 
L 113.891989 304.20725 
L 125.728352 336.97425 
L 137.564716 319.00525 
L 149.40108 359.17125 
L 161.237443 356.63445 
L 173.073807 334.155583 
L 184.91017 322.93125 
L 196.746534 294.16575 
L 208.582898 274.376361 
L 220.419261 251.56865 
L 232.255625 255.200886 
L 244.091989 259.637083 
L 255.928352 263.390788 
L 267.764716 278.99025 
L 279.60108 280.248583 
L 291.437443 273.55425 
L 303.273807 288.538779 
L 315.11017 270.030917 
L 326.946534 260.814618 
L 338.782898 254.21115 
L 350.619261 240.686583 
L 362.455625 245.591795 
L 374.291989 244.09612 
L 386.128352 238.849417 
L 397.964716 246.11453 
L 409.80108 253.959096 
L 421.637443 254.802287 
L 433.473807 275.13975 
L 445.31017 278.912147 
L 457.146534 278.83925 
L 468.982898 278.361895 
L 480.819261 265.3625 
L 492.655625 274.098765 
" style="fill:none;stroke:#4a98c9;stroke-linecap:square;stroke-width:1.5;"/>
   </g>
   <g id="line2d_33">
    <path clip-path="url(#p63ef12496a)" d="M 102.055625 382.42525 
L 113.891989 418.36325 
L 125.728352 400.39425 
L 137.564716 380.31125 
L 149.40108 322.70475 
L 161.237443 271.22885 
L 173.073807 213.30525 
L 184.91017 198.80925 
L 196.746534 218.326 
L 208.582898 209.547028 
L 220.419261 230.64005 
L 232.255625 232.33125 
L 244.091989 253.118917 
L 255.928352 266.643096 
L 267.764716 264.34325 
L 279.60108 286.731517 
L 291.437443 276.461 
L 303.273807 258.445368 
L 315.11017 243.371028 
L 326.946534 242.567461 
L 338.782898 256.00805 
L 350.619261 270.38325 
L 362.455625 277.493977 
L 374.291989 286.743772 
L 386.128352 303.590667 
L 397.964716 307.25141 
L 409.80108 299.654019 
L 421.637443 298.335028 
L 433.473807 285.25675 
L 445.31017 267.831871 
L 457.146534 275.597783 
L 468.982898 272.156282 
L 480.819261 283.06725 
L 492.655625 296.648098 
" style="fill:none;stroke:#4a98c9;stroke-linecap:square;stroke-width:1.5;"/>
   </g>
   <g id="line2d_34">
    <path clip-path="url(#p63ef12496a)" d="M 102.055625 369.74125 
L 113.891989 376.08325 
L 125.728352 349.65825 
L 137.564716 331.68925 
L 149.40108 331.68925 
L 161.237443 325.77005 
L 173.073807 344.725583 
L 184.91017 348.29925 
L 196.746534 378.4615 
L 208.582898 354.003694 
L 220.419261 372.27805 
L 232.255625 384.347068 
L 244.091989 383.48225 
L 255.928352 385.352327 
L 267.764716 376.83825 
L 279.60108 356.493517 
L 291.437443 352.82925 
L 303.273807 355.440662 
L 315.11017 369.858694 
L 326.946534 372.634092 
L 338.782898 382.74235 
L 350.619261 384.035917 
L 362.455625 383.193977 
L 374.291989 380.219337 
L 386.128352 365.689417 
L 397.964716 371.60157 
L 409.80108 374.457096 
L 421.637443 369.584657 
L 433.473807 371.25125 
L 445.31017 364.638491 
L 457.146534 356.282117 
L 468.982898 355.284218 
L 480.819261 355.537812 
L 492.655625 362.246159 
" style="fill:none;stroke:#d0e1f2;stroke-linecap:square;stroke-width:1.5;"/>
   </g>
   <g id="line2d_35">
    <path clip-path="url(#p63ef12496a)" d="M 102.055625 433.16125 
L 113.891989 373.96925 
L 125.728352 324.29025 
L 137.564716 315.481917 
L 149.40108 306.84975 
L 161.237443 336.34005 
L 173.073807 354.238583 
L 184.91017 357.66125 
L 196.746534 356.793 
L 208.582898 359.17125 
L 220.419261 369.52985 
L 232.255625 352.637068 
L 244.091989 357.761917 
L 255.928352 368.115096 
L 267.764716 359.32225 
L 279.60108 354.238583 
L 291.437443 386.12475 
L 303.273807 378.072897 
L 315.11017 382.42525 
L 326.946534 381.980197 
L 338.782898 380.83975 
L 350.619261 369.640583 
L 362.455625 366.474159 
L 374.291989 359.630815 
L 386.128352 364.7205 
L 397.964716 362.55365 
L 409.80108 374.050558 
L 421.637443 371.307176 
L 433.473807 368.45775 
L 445.31017 370.543112 
L 457.146534 361.426183 
L 468.982898 363.876605 
L 480.819261 358.774875 
L 492.655625 369.356886 
" style="fill:none;stroke:#d0e1f2;stroke-linecap:square;stroke-width:1.5;"/>
   </g>
   <g id="line2d_36">
    <path clip-path="url(#p63ef12496a)" d="M 102.055625 382.42525 
L 113.891989 264.04125 
L 125.728352 282.01025 
L 137.564716 280.248583 
L 149.40108 319.00525 
L 161.237443 340.56805 
L 173.073807 352.476917 
L 184.91017 386.04925 
L 196.746534 371.591 
L 208.582898 365.748139 
L 220.419261 370.37545 
L 232.255625 356.480705 
L 244.091989 351.419917 
L 255.928352 339.982635 
L 267.764716 337.42725 
L 279.60108 355.78885 
L 291.437443 369.21275 
L 303.273807 383.171368 
L 315.11017 385.361361 
L 326.946534 386.987039 
L 338.782898 385.27915 
L 350.619261 386.451917 
L 362.455625 384.923614 
L 374.291989 384.263511 
L 386.128352 377.844917 
L 397.964716 389.52829 
L 409.80108 370.879558 
L 421.637443 375.378583 
L 433.473807 369.96775 
L 445.31017 366.606698 
L 457.146534 364.24485 
L 468.982898 360.194153 
L 480.819261 355.339625 
L 492.655625 367.371008 
" style="fill:none;stroke:#d0e1f2;stroke-linecap:square;stroke-width:1.5;"/>
   </g>
   <g id="line2d_37">
    <path clip-path="url(#p63ef12496a)" d="M 102.055625 433.16125 
L 113.891989 401.45125 
L 125.728352 388.76725 
L 137.564716 390.176583 
L 149.40108 382.95375 
L 161.237443 370.58685 
L 173.073807 367.274917 
L 184.91017 361.88925 
L 196.746534 389.29575 
L 208.582898 386.183472 
L 220.419261 381.15685 
L 232.255625 380.31125 
L 244.091989 370.974417 
L 255.928352 366.001096 
L 267.764716 371.55325 
L 279.60108 370.16405 
L 291.437443 367.8915 
L 303.273807 361.28525 
L 315.11017 362.224806 
L 326.946534 355.722092 
L 338.782898 361.28525 
L 350.619261 360.98325 
L 362.455625 368.395977 
L 374.291989 366.156641 
L 386.128352 367.010667 
L 397.964716 374.73029 
L 409.80108 366.651558 
L 421.637443 366.296213 
L 433.473807 357.81225 
L 445.31017 352.246078 
L 457.146534 353.181583 
L 468.982898 354.329508 
L 480.819261 354.745062 
L 492.655625 366.858523 
" style="fill:none;stroke:#d0e1f2;stroke-linecap:square;stroke-width:1.5;"/>
   </g>
   <g id="line2d_38">
    <path clip-path="url(#p63ef12496a)" d="M 102.055625 420.47725 
L 113.891989 412.02125 
L 125.728352 383.48225 
L 137.564716 388.062583 
L 149.40108 393.52375 
L 161.237443 376.50605 
L 173.073807 371.502917 
L 184.91017 378.49925 
L 196.746534 385.59625 
L 208.582898 386.65325 
L 220.419261 389.19005 
L 232.255625 384.347068 
L 244.091989 377.316417 
L 255.928352 363.236635 
L 267.764716 360.68125 
L 279.60108 345.923517 
L 291.437443 341.4665 
L 303.273807 336.787721 
L 315.11017 336.621917 
L 326.946534 338.253776 
L 338.782898 336.76285 
L 350.619261 344.574583 
L 362.455625 360.036068 
L 374.291989 368.362554 
L 386.128352 380.663583 
L 397.964716 385.30029 
L 409.80108 372.343096 
L 421.637443 368.958287 
L 433.473807 371.47775 
L 445.31017 370.907595 
L 457.146534 373.33505 
L 468.982898 372.673573 
L 480.819261 373.572875 
L 492.655625 373.008341 
" style="fill:none;stroke:#d0e1f2;stroke-linecap:square;stroke-width:1.5;"/>
   </g>
   <g id="line2d_39">
    <path clip-path="url(#p63ef12496a)" d="M 102.055625 268.26925 
L 113.891989 357.05725 
L 125.728352 396.16625 
L 137.564716 410.611917 
L 149.40108 404.09375 
L 161.237443 398.06885 
L 173.073807 388.062583 
L 184.91017 377.59325 
L 196.746534 345.166 
L 208.582898 344.138361 
L 220.419261 337.60845 
L 232.255625 334.379795 
L 244.091989 343.84475 
L 255.928352 365.51325 
L 267.764716 370.64725 
L 279.60108 374.673917 
L 291.437443 366.57025 
L 303.273807 356.186779 
L 315.11017 359.758472 
L 326.946534 360.506408 
L 338.782898 359.27695 
L 350.619261 373.566583 
L 362.455625 381.272159 
L 374.291989 380.403163 
L 386.128352 376.964083 
L 397.964716 378.36637 
L 409.80108 373.644019 
L 421.637443 376.474731 
L 433.473807 388.16325 
L 445.31017 368.793595 
L 457.146534 363.751583 
L 468.982898 349.078605 
L 480.819261 330.169812 
L 492.655625 348.985614 
" style="fill:none;stroke:#d0e1f2;stroke-linecap:square;stroke-width:1.5;"/>
   </g>
   <g id="line2d_40">
    <path clip-path="url(#p63ef12496a)" d="M 102.055625 433.16125 
L 113.891989 352.82925 
L 125.728352 336.97425 
L 137.564716 388.76725 
L 149.40108 376.08325 
L 161.237443 377.77445 
L 173.073807 357.761917 
L 184.91017 357.96325 
L 196.746534 377.14025 
L 208.582898 373.264583 
L 220.419261 377.35165 
L 232.255625 375.122341 
L 244.091989 385.06775 
L 255.928352 376.245865 
L 267.764716 372.91225 
L 279.60108 359.59405 
L 291.437443 350.318875 
L 303.273807 355.067603 
L 315.11017 353.768806 
L 326.946534 363.176724 
L 338.782898 369.10705 
L 350.619261 370.546583 
L 362.455625 368.107705 
L 374.291989 373.785424 
L 386.128352 382.95375 
L 397.964716 380.05757 
L 409.80108 373.644019 
L 421.637443 374.439028 
L 433.473807 366.11725 
L 445.31017 366.825388 
L 457.146534 365.372317 
L 468.982898 364.149379 
L 480.819261 355.934187 
L 492.655625 365.705432 
" style="fill:none;stroke:#d0e1f2;stroke-linecap:square;stroke-width:1.5;"/>
   </g>
   <g id="line2d_41">
    <path clip-path="url(#p63ef12496a)" d="M 102.055625 52.64125 
L 113.891989 128.74525 
L 125.728352 215.41925 
L 137.564716 235.854583 
L 149.40108 275.66825 
L 161.237443 299.97925 
L 173.073807 303.854917 
L 184.91017 329.87725 
L 196.746534 342.78775 
L 208.582898 344.138361 
L 220.419261 361.28525 
L 232.255625 363.014886 
L 244.091989 369.21275 
L 255.928352 381.774788 
L 267.764716 382.57625 
L 279.60108 394.122717 
L 291.437443 390.35275 
L 303.273807 380.559956 
L 315.11017 378.079806 
L 326.946534 376.973355 
L 338.782898 376.18895 
L 350.619261 376.08325 
L 362.455625 375.122341 
L 374.291989 362.112467 
L 386.128352 357.497667 
L 397.964716 356.80357 
L 409.80108 367.789865 
L 421.637443 369.036583 
L 433.473807 371.25125 
L 445.31017 374.916905 
L 457.146534 374.110183 
L 468.982898 374.037444 
L 480.819261 362.276187 
L 492.655625 375.762947 
" style="fill:none;stroke:#d0e1f2;stroke-linecap:square;stroke-width:1.5;"/>
   </g>
   <g id="line2d_42">
    <path clip-path="url(#p63ef12496a)" d="M 102.055625 433.16125 
L 113.891989 424.70525 
L 125.728352 422.59125 
L 137.564716 419.067917 
L 149.40108 403.56525 
L 161.237443 390.03565 
L 173.073807 371.502917 
L 184.91017 374.87525 
L 196.746534 345.95875 
L 208.582898 353.768806 
L 220.419261 349.02405 
L 232.255625 369.549068 
L 244.091989 367.803417 
L 255.928352 362.911404 
L 267.764716 367.02325 
L 279.60108 369.036583 
L 291.437443 373.1765 
L 303.273807 376.456309 
L 315.11017 375.378583 
L 326.946534 372.522829 
L 338.782898 362.55365 
L 350.619261 359.976583 
L 362.455625 369.356886 
L 374.291989 373.509685 
L 386.128352 378.637667 
L 397.964716 385.55397 
L 409.80108 379.25425 
L 421.637443 370.993991 
L 433.473807 365.96625 
L 445.31017 356.401181 
L 457.146534 348.81265 
L 468.982898 341.440927 
L 480.819261 333.472937 
L 492.655625 349.498098 
" style="fill:none;stroke:#d0e1f2;stroke-linecap:square;stroke-width:1.5;"/>
   </g>
   <g id="line2d_43">
    <path clip-path="url(#p63ef12496a)" d="M 102.055625 433.16125 
L 113.891989 418.36325 
L 125.728352 415.19225 
L 137.564716 402.860583 
L 149.40108 383.48225 
L 161.237443 371.85525 
L 173.073807 330.63225 
L 184.91017 301.48925 
L 196.746534 302.62175 
L 208.582898 308.200361 
L 220.419261 304.41865 
L 232.255625 330.536159 
L 244.091989 353.005417 
L 255.928352 371.042173 
L 267.764716 370.94925 
L 279.60108 377.915383 
L 291.437443 369.344875 
L 303.273807 370.860426 
L 315.11017 366.57025 
L 326.946534 365.290724 
L 338.782898 379.04285 
L 350.619261 379.807917 
L 362.455625 378.965977 
L 374.291989 386.377511 
L 386.128352 374.145417 
L 397.964716 377.26709 
L 409.80108 371.773942 
L 421.637443 368.488509 
L 433.473807 363.92775 
L 445.31017 363.909526 
L 457.146534 363.892517 
L 468.982898 359.989573 
L 480.819261 352.30075 
L 492.655625 366.153856 
" style="fill:none;stroke:#d0e1f2;stroke-linecap:square;stroke-width:1.5;"/>
   </g>
   <g id="line2d_44">
    <path clip-path="url(#p63ef12496a)" d="M 102.055625 204.84925 
L 113.891989 247.12925 
L 125.728352 242.90125 
L 137.564716 233.740583 
L 149.40108 227.04625 
L 161.237443 249.24325 
L 173.073807 245.01525 
L 184.91017 255.58525 
L 196.746534 287.031 
L 208.582898 288.234806 
L 220.419261 300.82485 
L 232.255625 307.666523 
L 244.091989 287.119083 
L 255.928352 257.861865 
L 267.764716 227.04625 
L 279.60108 217.674183 
L 291.437443 219.779375 
L 303.273807 251.481603 
L 315.11017 251.239806 
L 326.946534 237.783145 
L 338.782898 235.18515 
L 350.619261 247.028583 
L 362.455625 261.446795 
L 374.291989 256.596293 
L 386.128352 259.901333 
L 397.964716 275.37229 
L 409.80108 273.635558 
L 421.637443 272.888731 
L 433.473807 272.95025 
L 445.31017 280.078491 
L 457.146534 280.95325 
L 468.982898 286.749702 
L 480.819261 291.060812 
L 492.655625 296.77622 
" style="fill:none;stroke:#1764ab;stroke-linecap:square;stroke-width:1.5;"/>
   </g>
   <g id="line2d_45">
    <path clip-path="url(#p63ef12496a)" d="M 102.055625 280.95325 
L 113.891989 302.09325 
L 125.728352 279.89625 
L 137.564716 263.336583 
L 149.40108 290.46625 
L 161.237443 301.67045 
L 173.073807 312.310917 
L 184.91017 306.92525 
L 196.746534 298.39375 
L 208.582898 280.718361 
L 220.419261 264.46405 
L 232.255625 250.396341 
L 244.091989 241.31575 
L 255.928352 242.738635 
L 267.764716 243.95825 
L 279.60108 237.82765 
L 291.437443 228.3675 
L 303.273807 233.450426 
L 315.11017 226.928806 
L 326.946534 248.464408 
L 338.782898 261.18735 
L 350.619261 254.07525 
L 362.455625 250.780705 
L 374.291989 260.640467 
L 386.128352 259.901333 
L 397.964716 261.67357 
L 409.80108 271.115019 
L 421.637443 272.027472 
L 433.473807 272.95025 
L 445.31017 277.818698 
L 457.146534 282.573983 
L 468.982898 290.159379 
L 480.819261 296.676125 
L 492.655625 301.580765 
" style="fill:none;stroke:#1764ab;stroke-linecap:square;stroke-width:1.5;"/>
   </g>
   <g id="line2d_46">
    <path clip-path="url(#p63ef12496a)" d="M 102.055625 407.79325 
L 113.891989 344.37325 
L 125.728352 314.77725 
L 137.564716 292.227917 
L 149.40108 252.94275 
L 161.237443 245.86085 
L 173.073807 233.035917 
L 184.91017 223.27125 
L 196.746534 210.13425 
L 208.582898 230.687028 
L 220.419261 230.00585 
L 232.255625 235.598341 
L 244.091989 256.64225 
L 255.928352 262.415096 
L 267.764716 246.37425 
L 279.60108 251.639117 
L 291.437443 260.209625 
L 303.273807 265.036074 
L 315.11017 265.920361 
L 326.946534 267.267882 
L 338.782898 280.21335 
L 350.619261 290.415917 
L 362.455625 290.274068 
L 374.291989 277.460554 
L 386.128352 256.466083 
L 397.964716 248.14397 
L 409.80108 253.227327 
L 421.637443 251.435546 
L 433.473807 252.79175 
L 445.31017 243.557319 
L 457.146534 247.270183 
L 468.982898 259.267702 
L 480.819261 265.230375 
L 492.655625 266.795856 
" style="fill:none;stroke:#1764ab;stroke-linecap:square;stroke-width:1.5;"/>
   </g>
   <g id="line2d_47">
    <path clip-path="url(#p63ef12496a)" d="M 102.055625 293.63725 
L 113.891989 376.08325 
L 125.728352 346.48725 
L 137.564716 315.481917 
L 149.40108 305.26425 
L 161.237443 269.11485 
L 173.073807 235.50225 
L 184.91017 215.11725 
L 196.746534 238.409 
L 208.582898 270.853028 
L 220.419261 312.66325 
L 232.255625 320.542705 
L 244.091989 308.43525 
L 255.928352 289.734481 
L 267.764716 277.32925 
L 279.60108 266.014317 
L 291.437443 236.8235 
L 303.273807 236.932309 
L 315.11017 243.371028 
L 326.946534 239.118303 
L 338.782898 232.54265 
L 350.619261 223.87525 
L 362.455625 227.526705 
L 374.291989 230.21725 
L 386.128352 237.08775 
L 397.964716 250.17341 
L 409.80108 248.18625 
L 421.637443 254.567398 
L 433.473807 246.37425 
L 445.31017 249.680629 
L 457.146534 258.262983 
L 468.982898 276.316089 
L 480.819261 287.625562 
L 492.655625 302.157311 
" style="fill:none;stroke:#1764ab;stroke-linecap:square;stroke-width:1.5;"/>
   </g>
   <g id="line2d_48">
    <path clip-path="url(#p63ef12496a)" d="M 102.055625 319.00525 
L 113.891989 293.63725 
L 125.728352 273.55425 
L 137.564716 249.24325 
L 149.40108 253.99975 
L 161.237443 247.55205 
L 173.073807 272.849583 
L 184.91017 289.40925 
L 196.746534 303.15025 
L 208.582898 298.100139 
L 220.419261 283.06725 
L 232.255625 264.809977 
L 244.091989 250.124083 
L 255.928352 269.082327 
L 267.764716 268.11825 
L 279.60108 257.69925 
L 291.437443 258.22775 
L 303.273807 253.844309 
L 315.11017 239.495361 
L 326.946534 255.251461 
L 338.782898 276.83095 
L 350.619261 293.838583 
L 362.455625 310.068795 
L 374.291989 300.163076 
L 386.128352 287.5595 
L 397.964716 259.81325 
L 409.80108 242.657327 
L 421.637443 235.93288 
L 433.473807 246.14775 
L 445.31017 252.523595 
L 457.146534 255.726183 
L 468.982898 267.587315 
L 480.819261 287.5595 
L 492.655625 309.139917 
" style="fill:none;stroke:#1764ab;stroke-linecap:square;stroke-width:1.5;"/>
   </g>
   <g id="line2d_49">
    <path clip-path="url(#p63ef12496a)" d="M 102.055625 217.53325 
L 113.891989 240.78725 
L 125.728352 241.84425 
L 137.564716 228.807917 
L 149.40108 242.90125 
L 161.237443 222.60685 
L 173.073807 256.994583 
L 184.91017 288.20125 
L 196.746534 280.689 
L 208.582898 274.846139 
L 220.419261 268.05785 
L 232.255625 243.862159 
L 244.091989 241.491917 
L 255.928352 256.073096 
L 267.764716 264.49425 
L 279.60108 253.330317 
L 291.437443 232.991875 
L 303.273807 240.662897 
L 315.11017 247.481583 
L 326.946534 253.805039 
L 338.782898 247.97485 
L 350.619261 251.860583 
L 362.455625 263.945159 
L 374.291989 284.905511 
L 386.128352 292.227917 
L 397.964716 307.25141 
L 409.80108 301.686712 
L 421.637443 298.804806 
L 433.473807 292.12725 
L 445.31017 275.486009 
L 457.146534 261.645383 
L 468.982898 256.880927 
L 480.819261 252.017875 
L 492.655625 252.38222 
" style="fill:none;stroke:#1764ab;stroke-linecap:square;stroke-width:1.5;"/>
   </g>
   <g id="line2d_50">
    <path clip-path="url(#p63ef12496a)" d="M 102.055625 433.16125 
L 113.891989 257.69925 
L 125.728352 231.27425 
L 137.564716 211.895917 
L 149.40108 230.21725 
L 161.237443 262.35005 
L 173.073807 293.63725 
L 184.91017 285.78525 
L 196.746534 264.56975 
L 208.582898 236.55925 
L 220.419261 262.56145 
L 232.255625 249.627614 
L 244.091989 257.17075 
L 255.928352 265.992635 
L 267.764716 258.45425 
L 279.60108 244.733383 
L 291.437443 240.523 
L 303.273807 241.409015 
L 315.11017 250.182806 
L 326.946534 248.130618 
L 338.782898 245.64945 
L 350.619261 250.551917 
L 362.455625 258.083614 
L 374.291989 260.548554 
L 386.128352 251.973833 
L 397.964716 258.03749 
L 409.80108 259.975865 
L 421.637443 258.795398 
L 433.473807 261.39875 
L 445.31017 267.030009 
L 457.146534 266.718983 
L 468.982898 274.406669 
L 480.819261 273.950625 
L 492.655625 272.112886 
" style="fill:none;stroke:#1764ab;stroke-linecap:square;stroke-width:1.5;"/>
   </g>
   <g id="line2d_51">
    <path clip-path="url(#p63ef12496a)" d="M 102.055625 242.90125 
L 113.891989 266.15525 
L 125.728352 249.24325 
L 137.564716 244.310583 
L 149.40108 222.28975 
L 161.237443 196.39325 
L 173.073807 190.755917 
L 184.91017 218.74125 
L 196.746534 232.067 
L 208.582898 235.149917 
L 220.419261 221.54985 
L 232.255625 206.96325 
L 244.091989 226.165417 
L 255.928352 250.056327 
L 267.764716 259.05825 
L 279.60108 278.980183 
L 291.437443 284.65275 
L 303.273807 278.466191 
L 315.11017 262.866806 
L 326.946534 264.152513 
L 338.782898 270.70035 
L 350.619261 278.53725 
L 362.455625 292.868523 
L 374.291989 292.534293 
L 386.128352 270.38325 
L 397.964716 255.50069 
L 409.80108 248.999327 
L 421.637443 273.280213 
L 433.473807 288.20125 
L 445.31017 279.859802 
L 457.146534 274.963583 
L 468.982898 264.177637 
L 480.819261 253.074875 
L 492.655625 248.730765 
" style="fill:none;stroke:#1764ab;stroke-linecap:square;stroke-width:1.5;"/>
   </g>
   <g id="line2d_52">
    <path clip-path="url(#p63ef12496a)" d="M 102.055625 407.79325 
L 113.891989 399.33725 
L 125.728352 379.25425 
L 137.564716 378.901917 
L 149.40108 360.75675 
L 161.237443 320.69645 
L 173.073807 292.227917 
L 184.91017 280.34925 
L 196.746534 269.062 
L 208.582898 284.006806 
L 220.419261 276.72525 
L 232.255625 266.923977 
L 244.091989 255.232917 
L 255.928352 265.179558 
L 267.764716 272.19525 
L 279.60108 271.933517 
L 291.437443 275.271875 
L 303.273807 271.626779 
L 315.11017 268.856472 
L 326.946534 268.491776 
L 338.782898 257.48785 
L 350.619261 234.74725 
L 362.455625 232.33125 
L 374.291989 247.404989 
L 386.128352 258.580083 
L 397.964716 259.55957 
L 409.80108 264.366481 
L 421.637443 250.965769 
L 433.473807 250.30025 
L 445.31017 249.24325 
L 457.146534 246.847383 
L 468.982898 258.449379 
L 480.819261 256.576187 
L 492.655625 263.336583 
" style="fill:none;stroke:#1764ab;stroke-linecap:square;stroke-width:1.5;"/>
   </g>
   <g id="line2d_53">
    <path clip-path="url(#p63ef12496a)" d="M 102.055625 268.26925 
L 113.891989 357.05725 
L 125.728352 380.31125 
L 137.564716 379.606583 
L 149.40108 338.03125 
L 161.237443 308.85805 
L 173.073807 266.507583 
L 184.91017 247.12925 
L 196.746534 233.38825 
L 208.582898 229.747472 
L 220.419261 224.50945 
L 232.255625 218.494159 
L 244.091989 215.243083 
L 255.928352 226.151865 
L 267.764716 235.50225 
L 279.60108 256.289917 
L 291.437443 270.6475 
L 303.273807 259.937603 
L 315.11017 239.377917 
L 326.946534 228.659566 
L 338.782898 228.31465 
L 350.619261 241.592583 
L 362.455625 245.783977 
L 374.291989 255.860989 
L 386.128352 266.243333 
L 397.964716 273.25829 
L 409.80108 267.537481 
L 421.637443 271.479398 
L 433.473807 266.60825 
L 445.31017 256.387112 
L 457.146534 256.21945 
L 468.982898 262.540992 
L 480.819261 259.28475 
L 492.655625 260.197614 
" style="fill:none;stroke:#1764ab;stroke-linecap:square;stroke-width:1.5;"/>
   </g>
   <g id="line2d_54">
    <path clip-path="url(#p63ef12496a)" d="M 102.055625 319.00525 
L 113.891989 312.66325 
L 125.728352 261.92725 
L 137.564716 264.745917 
L 149.40108 265.62675 
L 161.237443 273.34285 
L 173.073807 285.533583 
L 184.91017 339.23925 
L 196.746534 359.17125 
L 208.582898 365.748139 
L 220.419261 350.29245 
L 232.255625 319.197432 
L 244.091989 282.53875 
L 255.928352 266.480481 
L 267.764716 266.91025 
L 279.60108 262.209117 
L 291.437443 256.378 
L 303.273807 266.528309 
L 315.11017 273.319361 
L 326.946534 280.396934 
L 338.782898 278.20505 
L 350.619261 288.50325 
L 362.455625 299.690977 
L 374.291989 301.725598 
L 386.128352 302.62175 
L 397.964716 308.43525 
L 409.80108 307.134327 
L 421.637443 306.008065 
L 433.473807 301.79125 
L 445.31017 299.833457 
L 457.146534 299.415517 
L 468.982898 310.54925 
L 480.819261 311.408062 
L 492.655625 323.425432 
" style="fill:none;stroke:#94c4df;stroke-linecap:square;stroke-width:1.5;"/>
   </g>
   <g id="line2d_55">
    <path clip-path="url(#p63ef12496a)" d="M 102.055625 65.32525 
L 113.891989 190.05125 
L 125.728352 266.15525 
L 137.564716 278.134583 
L 149.40108 305.79275 
L 161.237443 321.96485 
L 173.073807 330.279917 
L 184.91017 320.81725 
L 196.746534 326.14 
L 208.582898 319.240139 
L 220.419261 304.84145 
L 232.255625 264.809977 
L 244.091989 261.222583 
L 255.928352 271.033712 
L 267.764716 291.07025 
L 279.60108 275.03405 
L 291.437443 281.746 
L 303.273807 280.704544 
L 315.11017 287.29525 
L 326.946534 307.322618 
L 338.782898 329.78665 
L 350.619261 335.31325 
L 362.455625 326.019886 
L 374.291989 317.534641 
L 386.128352 300.067333 
L 397.964716 291.69237 
L 409.80108 296.483019 
L 421.637443 295.203176 
L 433.473807 307.83125 
L 445.31017 329.648147 
L 457.146534 336.692383 
L 468.982898 352.556476 
L 480.819261 352.82925 
L 492.655625 360.644644 
" style="fill:none;stroke:#94c4df;stroke-linecap:square;stroke-width:1.5;"/>
   </g>
   <g id="line2d_56">
    <path clip-path="url(#p63ef12496a)" d="M 102.055625 369.74125 
L 113.891989 403.56525 
L 125.728352 367.62725 
L 137.564716 307.025917 
L 149.40108 286.23825 
L 161.237443 245.43805 
L 173.073807 262.631917 
L 184.91017 263.73925 
L 196.746534 249.5075 
L 208.582898 265.685472 
L 220.419261 283.06725 
L 232.255625 304.015068 
L 244.091989 300.683917 
L 255.928352 306.971712 
L 267.764716 306.17025 
L 279.60108 310.12645 
L 291.437443 319.137375 
L 303.273807 313.906779 
L 315.11017 312.780694 
L 326.946534 330.131566 
L 338.782898 342.04785 
L 350.619261 346.990583 
L 362.455625 343.027977 
L 374.291989 327.093598 
L 386.128352 314.072583 
L 397.964716 305.30653 
L 409.80108 297.783942 
L 421.637443 292.932583 
L 433.473807 291.14575 
L 445.31017 311.861388 
L 457.146534 321.54205 
L 468.982898 322.551315 
L 480.819261 328.187937 
L 492.655625 334.443856 
" style="fill:none;stroke:#94c4df;stroke-linecap:square;stroke-width:1.5;"/>
   </g>
   <g id="line2d_57">
    <path clip-path="url(#p63ef12496a)" d="M 102.055625 230.21725 
L 113.891989 257.69925 
L 125.728352 255.58525 
L 137.564716 259.108583 
L 149.40108 256.64225 
L 161.237443 264.88685 
L 173.073807 248.538583 
L 184.91017 261.92725 
L 196.746534 280.42475 
L 208.582898 276.020583 
L 220.419261 288.56365 
L 232.255625 276.917432 
L 244.091989 276.020583 
L 255.928352 271.521558 
L 267.764716 269.47725 
L 279.60108 274.047517 
L 291.437443 282.670875 
L 303.273807 298.487015 
L 315.11017 310.196917 
L 326.946534 307.990197 
L 338.782898 291.73465 
L 350.619261 292.328583 
L 362.455625 292.676341 
L 374.291989 289.041598 
L 386.128352 298.569917 
L 397.964716 308.85805 
L 409.80108 306.483865 
L 421.637443 300.918806 
L 433.473807 285.63425 
L 445.31017 279.859802 
L 457.146534 293.63725 
L 468.982898 306.253056 
L 480.819261 315.57 
L 492.655625 345.654462 
" style="fill:none;stroke:#94c4df;stroke-linecap:square;stroke-width:1.5;"/>
   </g>
   <g id="line2d_58">
    <path clip-path="url(#p63ef12496a)" d="M 102.055625 166.79725 
L 113.891989 202.73525 
L 125.728352 227.04625 
L 137.564716 261.92725 
L 149.40108 263.51275 
L 161.237443 280.53045 
L 173.073807 330.63225 
L 184.91017 346.18525 
L 196.746534 340.4095 
L 208.582898 344.138361 
L 220.419261 341.62505 
L 232.255625 328.229977 
L 244.091989 305.088083 
L 255.928352 288.596173 
L 267.764716 271.89325 
L 279.60108 256.712717 
L 291.437443 258.492 
L 303.273807 272.994662 
L 315.11017 288.704583 
L 326.946534 300.535566 
L 338.782898 321.96485 
L 350.619261 331.789917 
L 362.455625 332.169705 
L 374.291989 327.277424 
L 386.128352 327.813583 
L 397.964716 325.00901 
L 409.80108 325.591173 
L 421.637443 316.812954 
L 433.473807 314.47525 
L 445.31017 319.734216 
L 457.146534 318.511983 
L 468.982898 330.120798 
L 480.819261 333.539 
L 492.655625 347.960644 
" style="fill:none;stroke:#94c4df;stroke-linecap:square;stroke-width:1.5;"/>
   </g>
   <g id="line2d_59">
    <path clip-path="url(#p63ef12496a)" d="M 102.055625 242.90125 
L 113.891989 338.03125 
L 125.728352 247.12925 
L 137.564716 265.450583 
L 149.40108 303.15025 
L 161.237443 308.43525 
L 173.073807 305.26425 
L 184.91017 340.74925 
L 196.746534 333.27475 
L 208.582898 316.656361 
L 220.419261 286.02685 
L 232.255625 287.103068 
L 244.091989 301.388583 
L 255.928352 307.947404 
L 267.764716 300.43225 
L 279.60108 286.87245 
L 291.437443 261.39875 
L 303.273807 263.170779 
L 315.11017 259.226028 
L 326.946534 272.163461 
L 338.782898 283.38435 
L 350.619261 285.684583 
L 362.455625 282.106341 
L 374.291989 299.611598 
L 386.128352 316.010417 
L 397.964716 336.50917 
L 409.80108 337.380788 
L 421.637443 333.959843 
L 433.473807 332.44425 
L 445.31017 330.887388 
L 457.146534 320.48505 
L 468.982898 319.823573 
L 480.819261 313.72025 
L 492.655625 325.475371 
" style="fill:none;stroke:#94c4df;stroke-linecap:square;stroke-width:1.5;"/>
   </g>
   <g id="line2d_60">
    <path clip-path="url(#p63ef12496a)" d="M 102.055625 357.05725 
L 113.891989 314.77725 
L 125.728352 319.00525 
L 137.564716 310.54925 
L 149.40108 315.30575 
L 161.237443 305.89845 
L 173.073807 278.134583 
L 184.91017 268.87325 
L 196.746534 263.51275 
L 208.582898 242.196583 
L 220.419261 250.93445 
L 232.255625 277.686159 
L 244.091989 284.300417 
L 255.928352 289.734481 
L 267.764716 288.20125 
L 279.60108 304.489117 
L 291.437443 309.624375 
L 303.273807 308.559603 
L 315.11017 303.620028 
L 326.946534 298.421566 
L 338.782898 298.81655 
L 350.619261 306.824583 
L 362.455625 297.961341 
L 374.291989 309.170554 
L 386.128352 311.8705 
L 397.964716 305.89845 
L 409.80108 306.971712 
L 421.637443 310.705843 
L 433.473807 310.54925 
L 445.31017 315.579112 
L 457.146534 305.193783 
L 468.982898 317.504992 
L 480.819261 323.365375 
L 492.655625 337.262523 
" style="fill:none;stroke:#94c4df;stroke-linecap:square;stroke-width:1.5;"/>
   </g>
   <g id="line2d_61">
    <path clip-path="url(#p63ef12496a)" d="M 102.055625 331.68925 
L 113.891989 259.81325 
L 125.728352 230.21725 
L 137.564716 237.263917 
L 149.40108 176.31025 
L 161.237443 219.22445 
L 173.073807 246.424583 
L 184.91017 253.16925 
L 196.746534 268.26925 
L 208.582898 279.778806 
L 220.419261 276.30245 
L 232.255625 281.914159 
L 244.091989 297.512917 
L 255.928352 284.368173 
L 267.764716 286.84225 
L 279.60108 316.609383 
L 291.437443 322.308375 
L 303.273807 327.088191 
L 315.11017 322.880917 
L 326.946534 328.796408 
L 338.782898 329.68095 
L 350.619261 326.051917 
L 362.455625 321.791886 
L 374.291989 307.608033 
L 386.128352 296.191667 
L 397.964716 303.19253 
L 409.80108 297.377404 
L 421.637443 301.153694 
L 433.473807 316.66475 
L 445.31017 323.889319 
L 457.146534 332.816717 
L 468.982898 344.236863 
L 480.819261 340.475562 
L 492.655625 352.444886 
" style="fill:none;stroke:#94c4df;stroke-linecap:square;stroke-width:1.5;"/>
   </g>
   <g id="line2d_62">
    <path clip-path="url(#p63ef12496a)" d="M 102.055625 78.00925 
L 113.891989 143.54325 
L 125.728352 246.07225 
L 137.564716 334.507917 
L 149.40108 358.11425 
L 161.237443 377.35165 
L 173.073807 325.699583 
L 184.91017 309.34125 
L 196.746534 309.7565 
L 208.582898 320.884361 
L 220.419261 303.57305 
L 232.255625 295.943432 
L 244.091989 282.186417 
L 255.928352 267.944019 
L 267.764716 277.02725 
L 279.60108 286.590583 
L 291.437443 291.391125 
L 303.273807 302.590662 
L 315.11017 313.72025 
L 326.946534 312.329461 
L 338.782898 308.22385 
L 350.619261 303.200583 
L 362.455625 318.524795 
L 374.291989 318.178033 
L 386.128352 302.533667 
L 397.964716 302.26237 
L 409.80108 317.135173 
L 421.637443 311.332213 
L 433.473807 305.18875 
L 445.31017 301.947457 
L 457.146534 292.650717 
L 468.982898 293.910024 
L 480.819261 287.955875 
L 492.655625 307.922765 
" style="fill:none;stroke:#94c4df;stroke-linecap:square;stroke-width:1.5;"/>
   </g>
   <g id="line2d_63">
    <path clip-path="url(#p63ef12496a)" d="M 102.055625 420.47725 
L 113.891989 422.59125 
L 125.728352 406.73625 
L 137.564716 402.155917 
L 149.40108 352.82925 
L 161.237443 329.57525 
L 173.073807 308.43525 
L 184.91017 267.96725 
L 196.746534 242.90125 
L 208.582898 233.270806 
L 220.419261 237.61625 
L 232.255625 255.969614 
L 244.091989 264.393583 
L 255.928352 266.15525 
L 267.764716 256.49125 
L 279.60108 254.73965 
L 291.437443 286.76675 
L 303.273807 278.093132 
L 315.11017 286.355694 
L 326.946534 275.723882 
L 338.782898 277.67655 
L 350.619261 267.765917 
L 362.455625 288.832705 
L 374.291989 302.368989 
L 386.128352 315.129583 
L 397.964716 321.62661 
L 409.80108 321.688404 
L 421.637443 307.965472 
L 433.473807 298.69575 
L 445.31017 293.710147 
L 457.146534 289.19785 
L 468.982898 288.931895 
L 480.819261 294.496062 
L 492.655625 302.477614 
" style="fill:none;stroke:#94c4df;stroke-linecap:square;stroke-width:1.5;"/>
   </g>
   <g id="line2d_64">
    <path clip-path="url(#p63ef12496a)" d="M 102.055625 433.16125 
L 113.891989 433.16125 
L 125.728352 433.16125 
L 137.564716 433.16125 
L 149.40108 433.16125 
L 161.237443 433.16125 
L 173.073807 433.16125 
L 184.91017 433.16125 
L 196.746534 433.16125 
L 208.582898 433.16125 
L 220.419261 433.16125 
L 232.255625 433.16125 
L 244.091989 433.16125 
L 255.928352 433.16125 
L 267.764716 433.16125 
L 279.60108 433.16125 
L 291.437443 433.16125 
L 303.273807 433.16125 
L 315.11017 433.16125 
L 326.946534 433.16125 
L 338.782898 433.16125 
L 350.619261 433.16125 
L 362.455625 433.16125 
L 374.291989 433.16125 
L 386.128352 433.16125 
L 397.964716 433.16125 
L 409.80108 433.16125 
L 421.637443 433.16125 
L 433.473807 433.16125 
L 445.31017 433.16125 
L 457.146534 433.16125 
L 468.982898 433.16125 
L 480.819261 433.16125 
L 492.655625 433.16125 
" style="fill:none;stroke:#000000;stroke-linecap:square;stroke-width:1.5;"/>
   </g>
   <g id="line2d_65">
    <path clip-path="url(#p63ef12496a)" d="M 102.055625 433.16125 
L 113.891989 433.16125 
L 125.728352 433.16125 
L 137.564716 433.16125 
L 149.40108 433.16125 
L 161.237443 433.16125 
L 173.073807 433.16125 
L 184.91017 433.16125 
L 196.746534 433.16125 
L 208.582898 433.16125 
L 220.419261 433.16125 
L 232.255625 433.16125 
L 244.091989 433.16125 
L 255.928352 433.16125 
L 267.764716 433.16125 
L 279.60108 433.16125 
L 291.437443 433.16125 
L 303.273807 433.16125 
L 315.11017 433.16125 
L 326.946534 433.16125 
L 338.782898 433.16125 
L 350.619261 433.16125 
L 362.455625 433.16125 
L 374.291989 433.16125 
L 386.128352 433.16125 
L 397.964716 433.16125 
L 409.80108 433.16125 
L 421.637443 433.16125 
L 433.473807 433.16125 
L 445.31017 433.16125 
L 457.146534 433.16125 
L 468.982898 433.16125 
L 480.819261 433.16125 
L 492.655625 433.16125 
" style="fill:none;stroke:#000000;stroke-linecap:square;stroke-width:1.5;"/>
   </g>
   <g id="line2d_66">
    <path clip-path="url(#p63ef12496a)" d="M 102.055625 433.16125 
L 113.891989 433.16125 
L 125.728352 433.16125 
L 137.564716 433.16125 
L 149.40108 433.16125 
L 161.237443 433.16125 
L 173.073807 433.16125 
L 184.91017 433.16125 
L 196.746534 433.16125 
L 208.582898 433.16125 
L 220.419261 433.16125 
L 232.255625 433.16125 
L 244.091989 433.16125 
L 255.928352 433.16125 
L 267.764716 433.16125 
L 279.60108 433.16125 
L 291.437443 433.16125 
L 303.273807 433.16125 
L 315.11017 433.16125 
L 326.946534 433.16125 
L 338.782898 433.16125 
L 350.619261 433.16125 
L 362.455625 433.16125 
L 374.291989 433.16125 
L 386.128352 433.16125 
L 397.964716 433.16125 
L 409.80108 433.16125 
L 421.637443 433.16125 
L 433.473807 433.16125 
L 445.31017 433.16125 
L 457.146534 433.16125 
L 468.982898 433.16125 
L 480.819261 433.16125 
L 492.655625 433.16125 
" style="fill:none;stroke:#000000;stroke-linecap:square;stroke-width:1.5;"/>
   </g>
   <g id="line2d_67">
    <path clip-path="url(#p63ef12496a)" d="M 102.055625 433.16125 
L 113.891989 433.16125 
L 125.728352 433.16125 
L 137.564716 433.16125 
L 149.40108 433.16125 
L 161.237443 433.16125 
L 173.073807 433.16125 
L 184.91017 433.16125 
L 196.746534 433.16125 
L 208.582898 433.16125 
L 220.419261 433.16125 
L 232.255625 433.16125 
L 244.091989 433.16125 
L 255.928352 433.16125 
L 267.764716 433.16125 
L 279.60108 433.16125 
L 291.437443 433.16125 
L 303.273807 433.16125 
L 315.11017 433.16125 
L 326.946534 433.16125 
L 338.782898 433.16125 
L 350.619261 433.16125 
L 362.455625 433.16125 
L 374.291989 433.16125 
L 386.128352 433.16125 
L 397.964716 433.16125 
L 409.80108 433.16125 
L 421.637443 433.16125 
L 433.473807 433.16125 
L 445.31017 433.16125 
L 457.146534 433.16125 
L 468.982898 433.16125 
L 480.819261 433.16125 
L 492.655625 433.16125 
" style="fill:none;stroke:#000000;stroke-linecap:square;stroke-width:1.5;"/>
   </g>
   <g id="line2d_68">
    <path clip-path="url(#p63ef12496a)" d="M 102.055625 433.16125 
L 113.891989 433.16125 
L 125.728352 433.16125 
L 137.564716 433.16125 
L 149.40108 433.16125 
L 161.237443 433.16125 
L 173.073807 433.16125 
L 184.91017 433.16125 
L 196.746534 433.16125 
L 208.582898 433.16125 
L 220.419261 433.16125 
L 232.255625 433.16125 
L 244.091989 433.16125 
L 255.928352 433.16125 
L 267.764716 433.16125 
L 279.60108 433.16125 
L 291.437443 433.16125 
L 303.273807 433.16125 
L 315.11017 433.16125 
L 326.946534 433.16125 
L 338.782898 433.16125 
L 350.619261 433.16125 
L 362.455625 433.16125 
L 374.291989 433.16125 
L 386.128352 433.16125 
L 397.964716 433.16125 
L 409.80108 433.16125 
L 421.637443 433.16125 
L 433.473807 433.16125 
L 445.31017 433.16125 
L 457.146534 433.16125 
L 468.982898 433.16125 
L 480.819261 433.16125 
L 492.655625 433.16125 
" style="fill:none;stroke:#000000;stroke-linecap:square;stroke-width:1.5;"/>
   </g>
   <g id="line2d_69">
    <path clip-path="url(#p63ef12496a)" d="M 102.055625 433.16125 
L 113.891989 433.16125 
L 125.728352 433.16125 
L 137.564716 433.16125 
L 149.40108 433.16125 
L 161.237443 433.16125 
L 173.073807 433.16125 
L 184.91017 433.16125 
L 196.746534 433.16125 
L 208.582898 433.16125 
L 220.419261 433.16125 
L 232.255625 433.16125 
L 244.091989 433.16125 
L 255.928352 433.16125 
L 267.764716 433.16125 
L 279.60108 433.16125 
L 291.437443 433.16125 
L 303.273807 433.16125 
L 315.11017 433.16125 
L 326.946534 433.16125 
L 338.782898 433.16125 
L 350.619261 433.16125 
L 362.455625 433.16125 
L 374.291989 433.16125 
L 386.128352 433.16125 
L 397.964716 433.16125 
L 409.80108 433.16125 
L 421.637443 433.16125 
L 433.473807 433.16125 
L 445.31017 433.16125 
L 457.146534 433.16125 
L 468.982898 433.16125 
L 480.819261 433.16125 
L 492.655625 433.16125 
" style="fill:none;stroke:#000000;stroke-linecap:square;stroke-width:1.5;"/>
   </g>
   <g id="line2d_70">
    <path clip-path="url(#p63ef12496a)" d="M 102.055625 433.16125 
L 113.891989 433.16125 
L 125.728352 433.16125 
L 137.564716 433.16125 
L 149.40108 433.16125 
L 161.237443 433.16125 
L 173.073807 433.16125 
L 184.91017 433.16125 
L 196.746534 433.16125 
L 208.582898 433.16125 
L 220.419261 433.16125 
L 232.255625 433.16125 
L 244.091989 433.16125 
L 255.928352 433.16125 
L 267.764716 433.16125 
L 279.60108 433.16125 
L 291.437443 433.16125 
L 303.273807 433.16125 
L 315.11017 433.16125 
L 326.946534 433.16125 
L 338.782898 433.16125 
L 350.619261 433.16125 
L 362.455625 433.16125 
L 374.291989 433.16125 
L 386.128352 433.16125 
L 397.964716 433.16125 
L 409.80108 433.16125 
L 421.637443 433.16125 
L 433.473807 433.16125 
L 445.31017 433.16125 
L 457.146534 433.16125 
L 468.982898 433.16125 
L 480.819261 433.16125 
L 492.655625 433.16125 
" style="fill:none;stroke:#000000;stroke-linecap:square;stroke-width:1.5;"/>
   </g>
   <g id="line2d_71">
    <path clip-path="url(#p63ef12496a)" d="M 102.055625 433.16125 
L 113.891989 433.16125 
L 125.728352 433.16125 
L 137.564716 433.16125 
L 149.40108 433.16125 
L 161.237443 433.16125 
L 173.073807 433.16125 
L 184.91017 433.16125 
L 196.746534 433.16125 
L 208.582898 433.16125 
L 220.419261 433.16125 
L 232.255625 433.16125 
L 244.091989 433.16125 
L 255.928352 433.16125 
L 267.764716 433.16125 
L 279.60108 433.16125 
L 291.437443 433.16125 
L 303.273807 433.16125 
L 315.11017 433.16125 
L 326.946534 433.16125 
L 338.782898 433.16125 
L 350.619261 433.16125 
L 362.455625 433.16125 
L 374.291989 433.16125 
L 386.128352 433.16125 
L 397.964716 433.16125 
L 409.80108 433.16125 
L 421.637443 433.16125 
L 433.473807 433.16125 
L 445.31017 433.16125 
L 457.146534 433.16125 
L 468.982898 433.16125 
L 480.819261 433.16125 
L 492.655625 433.16125 
" style="fill:none;stroke:#000000;stroke-linecap:square;stroke-width:1.5;"/>
   </g>
   <g id="line2d_72">
    <path clip-path="url(#p63ef12496a)" d="M 102.055625 433.16125 
L 113.891989 433.16125 
L 125.728352 433.16125 
L 137.564716 433.16125 
L 149.40108 433.16125 
L 161.237443 433.16125 
L 173.073807 433.16125 
L 184.91017 433.16125 
L 196.746534 433.16125 
L 208.582898 433.16125 
L 220.419261 433.16125 
L 232.255625 433.16125 
L 244.091989 433.16125 
L 255.928352 433.16125 
L 267.764716 433.16125 
L 279.60108 433.16125 
L 291.437443 433.16125 
L 303.273807 433.16125 
L 315.11017 433.16125 
L 326.946534 433.16125 
L 338.782898 433.16125 
L 350.619261 433.16125 
L 362.455625 433.16125 
L 374.291989 433.16125 
L 386.128352 433.16125 
L 397.964716 433.16125 
L 409.80108 433.16125 
L 421.637443 433.16125 
L 433.473807 433.16125 
L 445.31017 433.16125 
L 457.146534 433.16125 
L 468.982898 433.16125 
L 480.819261 433.16125 
L 492.655625 433.16125 
" style="fill:none;stroke:#000000;stroke-linecap:square;stroke-width:1.5;"/>
   </g>
   <g id="line2d_73">
    <path clip-path="url(#p63ef12496a)" d="M 102.055625 433.16125 
L 113.891989 433.16125 
L 125.728352 433.16125 
L 137.564716 433.16125 
L 149.40108 433.16125 
L 161.237443 433.16125 
L 173.073807 433.16125 
L 184.91017 433.16125 
L 196.746534 433.16125 
L 208.582898 433.16125 
L 220.419261 433.16125 
L 232.255625 433.16125 
L 244.091989 433.16125 
L 255.928352 433.16125 
L 267.764716 433.16125 
L 279.60108 433.16125 
L 291.437443 433.16125 
L 303.273807 433.16125 
L 315.11017 433.16125 
L 326.946534 433.16125 
L 338.782898 433.16125 
L 350.619261 433.16125 
L 362.455625 433.16125 
L 374.291989 433.16125 
L 386.128352 433.16125 
L 397.964716 433.16125 
L 409.80108 433.16125 
L 421.637443 433.16125 
L 433.473807 433.16125 
L 445.31017 433.16125 
L 457.146534 433.16125 
L 468.982898 433.16125 
L 480.819261 433.16125 
L 492.655625 433.16125 
" style="fill:none;stroke:#000000;stroke-linecap:square;stroke-width:1.5;"/>
   </g>
   <g id="line2d_74">
    <path clip-path="url(#p63ef12496a)" d="M 90.219261 433.16125 
" style="fill:none;stroke:#000000;stroke-linecap:square;stroke-width:1.5;"/>
   </g>
   <g id="line2d_75">
    <path clip-path="url(#p63ef12496a)" d="M 90.219261 433.16125 
" style="fill:none;stroke:#d0e1f2;stroke-linecap:square;stroke-width:1.5;"/>
   </g>
   <g id="line2d_76">
    <path clip-path="url(#p63ef12496a)" d="M 90.219261 433.16125 
" style="fill:none;stroke:#94c4df;stroke-linecap:square;stroke-width:1.5;"/>
   </g>
   <g id="line2d_77">
    <path clip-path="url(#p63ef12496a)" d="M 90.219261 433.16125 
" style="fill:none;stroke:#4a98c9;stroke-linecap:square;stroke-width:1.5;"/>
   </g>
   <g id="line2d_78">
    <path clip-path="url(#p63ef12496a)" d="M 90.219261 433.16125 
" style="fill:none;stroke:#1764ab;stroke-linecap:square;stroke-width:1.5;"/>
   </g>
   <g id="line2d_79">
    <path clip-path="url(#p63ef12496a)" d="M 90.219261 433.16125 
" style="fill:none;stroke:#08306b;stroke-linecap:square;stroke-width:1.5;"/>
   </g>
   <g id="line2d_80">
    <path clip-path="url(#p63ef12496a)" d="M 90.219261 433.16125 
" style="fill:none;stroke:#000000;stroke-linecap:square;stroke-width:1.5;"/>
   </g>
   <g id="line2d_81">
    <path clip-path="url(#p63ef12496a)" d="M 90.219261 433.16125 
" style="fill:none;stroke:#000000;stroke-dasharray:1.5,2.475;stroke-dashoffset:0;stroke-width:1.5;"/>
   </g>
   <g id="line2d_82">
    <path clip-path="url(#p63ef12496a)" d="M 90.219261 433.16125 
" style="fill:none;stroke:#000000;stroke-linecap:square;stroke-width:1.5;"/>
   </g>
   <g id="line2d_83">
    <path clip-path="url(#p63ef12496a)" d="M 90.219261 433.16125 
" style="fill:none;stroke:#000000;stroke-dasharray:5.55,2.4;stroke-dashoffset:0;stroke-width:1.5;"/>
   </g>
   <g id="line2d_84">
    <path clip-path="url(#p63ef12496a)" d="M 90.219261 433.16125 
" style="fill:none;stroke:#000000;stroke-dasharray:9.6,2.4,1.5,2.4;stroke-dashoffset:0;stroke-width:1.5;"/>
   </g>
   <g id="line2d_85">
    <path clip-path="url(#p63ef12496a)" d="M 90.219261 433.16125 
" style="fill:none;stroke:#000000;stroke-dasharray:9.6,2.4,1.5,2.4;stroke-dashoffset:0;stroke-width:1.5;"/>
   </g>
   <g id="patch_3">
    <path d="M 102.055625 433.16125 
L 102.055625 52.64125 
" style="fill:none;stroke:#000000;stroke-linecap:square;stroke-linejoin:miter;stroke-width:0.8;"/>
   </g>
   <g id="patch_4">
    <path d="M 492.655625 433.16125 
L 492.655625 52.64125 
" style="fill:none;stroke:#000000;stroke-linecap:square;stroke-linejoin:miter;stroke-width:0.8;"/>
   </g>
   <g id="patch_5">
    <path d="M 102.055625 433.16125 
L 492.655625 433.16125 
" style="fill:none;stroke:#000000;stroke-linecap:square;stroke-linejoin:miter;stroke-width:0.8;"/>
   </g>
   <g id="patch_6">
    <path d="M 102.055625 52.64125 
L 492.655625 52.64125 
" style="fill:none;stroke:#000000;stroke-linecap:square;stroke-linejoin:miter;stroke-width:0.8;"/>
   </g>
   <g id="text_16">
    <!-- CD8 NORMALIZED COUNT -->
    <g transform="translate(169.58375 21.515625)scale(0.2 -0.2)">
     <use xlink:href="#Arial-BoldMT-67"/>
     <use x="72.216797" xlink:href="#Arial-BoldMT-68"/>
     <use x="144.433594" xlink:href="#Arial-BoldMT-56"/>
     <use x="200.048828" xlink:href="#Arial-BoldMT-32"/>
     <use x="227.832031" xlink:href="#Arial-BoldMT-78"/>
     <use x="300.048828" xlink:href="#Arial-BoldMT-79"/>
     <use x="377.832031" xlink:href="#Arial-BoldMT-82"/>
     <use x="450.048828" xlink:href="#Arial-BoldMT-77"/>
     <use x="533.349609" xlink:href="#Arial-BoldMT-65"/>
     <use x="605.566406" xlink:href="#Arial-BoldMT-76"/>
     <use x="666.650391" xlink:href="#Arial-BoldMT-73"/>
     <use x="694.433594" xlink:href="#Arial-BoldMT-90"/>
     <use x="755.517578" xlink:href="#Arial-BoldMT-69"/>
     <use x="822.216797" xlink:href="#Arial-BoldMT-68"/>
     <use x="894.433594" xlink:href="#Arial-BoldMT-32"/>
     <use x="922.216797" xlink:href="#Arial-BoldMT-67"/>
     <use x="994.433594" xlink:href="#Arial-BoldMT-79"/>
     <use x="1072.216797" xlink:href="#Arial-BoldMT-85"/>
     <use x="1144.433594" xlink:href="#Arial-BoldMT-78"/>
     <use x="1216.650391" xlink:href="#Arial-BoldMT-84"/>
    </g>
    <!-- ACROSS RADIUS AT TIME 7 -->
    <defs>
     <path d="M 4.25 57.859375 
L 4.25 70.609375 
L 51.171875 70.609375 
L 51.171875 60.640625 
Q 45.359375 54.9375 39.34375 44.234375 
Q 33.34375 33.546875 30.1875 21.5 
Q 27.046875 9.46875 27.09375 0 
L 13.875 0 
Q 14.203125 14.84375 19.984375 30.265625 
Q 25.78125 45.703125 35.453125 57.859375 
z
" id="Arial-BoldMT-55"/>
    </defs>
    <g transform="translate(162.361875 42.64125)scale(0.2 -0.2)">
     <use xlink:href="#Arial-BoldMT-65"/>
     <use x="72.216797" xlink:href="#Arial-BoldMT-67"/>
     <use x="144.433594" xlink:href="#Arial-BoldMT-82"/>
     <use x="216.650391" xlink:href="#Arial-BoldMT-79"/>
     <use x="294.433594" xlink:href="#Arial-BoldMT-83"/>
     <use x="361.132812" xlink:href="#Arial-BoldMT-83"/>
     <use x="427.832031" xlink:href="#Arial-BoldMT-32"/>
     <use x="455.615234" xlink:href="#Arial-BoldMT-82"/>
     <use x="527.832031" xlink:href="#Arial-BoldMT-65"/>
     <use x="600.048828" xlink:href="#Arial-BoldMT-68"/>
     <use x="672.265625" xlink:href="#Arial-BoldMT-73"/>
     <use x="700.048828" xlink:href="#Arial-BoldMT-85"/>
     <use x="772.265625" xlink:href="#Arial-BoldMT-83"/>
     <use x="838.964844" xlink:href="#Arial-BoldMT-32"/>
     <use x="866.701172" xlink:href="#Arial-BoldMT-65"/>
     <use x="938.808594" xlink:href="#Arial-BoldMT-84"/>
     <use x="999.892578" xlink:href="#Arial-BoldMT-32"/>
     <use x="1027.675781" xlink:href="#Arial-BoldMT-84"/>
     <use x="1088.759766" xlink:href="#Arial-BoldMT-73"/>
     <use x="1116.542969" xlink:href="#Arial-BoldMT-77"/>
     <use x="1199.84375" xlink:href="#Arial-BoldMT-69"/>
     <use x="1266.542969" xlink:href="#Arial-BoldMT-32"/>
     <use x="1294.326172" xlink:href="#Arial-BoldMT-55"/>
    </g>
   </g>
   <g id="legend_1">
    <g id="line2d_86">
     <path d="M 501.655625 65.739687 
L 521.655625 65.739687 
" style="fill:none;stroke:#000000;stroke-linecap:square;stroke-width:1.5;"/>
    </g>
    <g id="line2d_87"/>
    <g id="text_17">
     <!-- 0 -->
     <g transform="translate(529.655625 69.239687)scale(0.1 -0.1)">
      <use xlink:href="#DejaVuSans-48"/>
     </g>
    </g>
    <g id="line2d_88">
     <path d="M 501.655625 80.417812 
L 521.655625 80.417812 
" style="fill:none;stroke:#d0e1f2;stroke-linecap:square;stroke-width:1.5;"/>
    </g>
    <g id="line2d_89"/>
    <g id="text_18">
     <!-- 100 -->
     <g transform="translate(529.655625 83.917812)scale(0.1 -0.1)">
      <use xlink:href="#DejaVuSans-49"/>
      <use x="63.623047" xlink:href="#DejaVuSans-48"/>
      <use x="127.246094" xlink:href="#DejaVuSans-48"/>
     </g>
    </g>
    <g id="line2d_90">
     <path d="M 501.655625 95.095937 
L 521.655625 95.095937 
" style="fill:none;stroke:#94c4df;stroke-linecap:square;stroke-width:1.5;"/>
    </g>
    <g id="line2d_91"/>
    <g id="text_19">
     <!-- 500 -->
     <g transform="translate(529.655625 98.595937)scale(0.1 -0.1)">
      <use xlink:href="#DejaVuSans-53"/>
      <use x="63.623047" xlink:href="#DejaVuSans-48"/>
      <use x="127.246094" xlink:href="#DejaVuSans-48"/>
     </g>
    </g>
    <g id="line2d_92">
     <path d="M 501.655625 109.774062 
L 521.655625 109.774062 
" style="fill:none;stroke:#4a98c9;stroke-linecap:square;stroke-width:1.5;"/>
    </g>
    <g id="line2d_93"/>
    <g id="text_20">
     <!-- 1000 -->
     <g transform="translate(529.655625 113.274062)scale(0.1 -0.1)">
      <use xlink:href="#DejaVuSans-49"/>
      <use x="63.623047" xlink:href="#DejaVuSans-48"/>
      <use x="127.246094" xlink:href="#DejaVuSans-48"/>
      <use x="190.869141" xlink:href="#DejaVuSans-48"/>
     </g>
    </g>
    <g id="line2d_94">
     <path d="M 501.655625 124.452187 
L 521.655625 124.452187 
" style="fill:none;stroke:#1764ab;stroke-linecap:square;stroke-width:1.5;"/>
    </g>
    <g id="line2d_95"/>
    <g id="text_21">
     <!-- 5000 -->
     <g transform="translate(529.655625 127.952187)scale(0.1 -0.1)">
      <use xlink:href="#DejaVuSans-53"/>
      <use x="63.623047" xlink:href="#DejaVuSans-48"/>
      <use x="127.246094" xlink:href="#DejaVuSans-48"/>
      <use x="190.869141" xlink:href="#DejaVuSans-48"/>
     </g>
    </g>
    <g id="line2d_96">
     <path d="M 501.655625 139.130312 
L 521.655625 139.130312 
" style="fill:none;stroke:#08306b;stroke-linecap:square;stroke-width:1.5;"/>
    </g>
    <g id="line2d_97"/>
    <g id="text_22">
     <!-- 10000 -->
     <g transform="translate(529.655625 142.630312)scale(0.1 -0.1)">
      <use xlink:href="#DejaVuSans-49"/>
      <use x="63.623047" xlink:href="#DejaVuSans-48"/>
      <use x="127.246094" xlink:href="#DejaVuSans-48"/>
      <use x="190.869141" xlink:href="#DejaVuSans-48"/>
      <use x="254.492188" xlink:href="#DejaVuSans-48"/>
     </g>
    </g>
    <g id="line2d_98">
     <path d="M 501.655625 153.808437 
L 521.655625 153.808437 
" style="fill:none;stroke:#000000;stroke-linecap:square;stroke-width:1.5;"/>
    </g>
    <g id="line2d_99"/>
    <g id="text_23">
     <!-- 0 -->
     <g transform="translate(529.655625 157.308437)scale(0.1 -0.1)">
      <use xlink:href="#DejaVuSans-48"/>
     </g>
    </g>
    <g id="line2d_100">
     <path d="M 501.655625 168.486562 
L 521.655625 168.486562 
" style="fill:none;stroke:#000000;stroke-dasharray:1.5,2.475;stroke-dashoffset:0;stroke-width:1.5;"/>
    </g>
    <g id="line2d_101"/>
    <g id="text_24">
     <!-- 250 -->
     <g transform="translate(529.655625 171.986562)scale(0.1 -0.1)">
      <use xlink:href="#DejaVuSans-50"/>
      <use x="63.623047" xlink:href="#DejaVuSans-53"/>
      <use x="127.246094" xlink:href="#DejaVuSans-48"/>
     </g>
    </g>
    <g id="line2d_102">
     <path d="M 501.655625 183.164687 
L 521.655625 183.164687 
" style="fill:none;stroke:#000000;stroke-linecap:square;stroke-width:1.5;"/>
    </g>
    <g id="line2d_103"/>
    <g id="text_25">
     <!-- 500 -->
     <g transform="translate(529.655625 186.664687)scale(0.1 -0.1)">
      <use xlink:href="#DejaVuSans-53"/>
      <use x="63.623047" xlink:href="#DejaVuSans-48"/>
      <use x="127.246094" xlink:href="#DejaVuSans-48"/>
     </g>
    </g>
    <g id="line2d_104">
     <path d="M 501.655625 197.842812 
L 521.655625 197.842812 
" style="fill:none;stroke:#000000;stroke-dasharray:5.55,2.4;stroke-dashoffset:0;stroke-width:1.5;"/>
    </g>
    <g id="line2d_105"/>
    <g id="text_26">
     <!-- 1000 -->
     <g transform="translate(529.655625 201.342812)scale(0.1 -0.1)">
      <use xlink:href="#DejaVuSans-49"/>
      <use x="63.623047" xlink:href="#DejaVuSans-48"/>
      <use x="127.246094" xlink:href="#DejaVuSans-48"/>
      <use x="190.869141" xlink:href="#DejaVuSans-48"/>
     </g>
    </g>
    <g id="line2d_106">
     <path d="M 501.655625 212.520937 
L 521.655625 212.520937 
" style="fill:none;stroke:#000000;stroke-dasharray:9.6,2.4,1.5,2.4;stroke-dashoffset:0;stroke-width:1.5;"/>
    </g>
    <g id="line2d_107"/>
    <g id="text_27">
     <!-- 5000 -->
     <g transform="translate(529.655625 216.020937)scale(0.1 -0.1)">
      <use xlink:href="#DejaVuSans-53"/>
      <use x="63.623047" xlink:href="#DejaVuSans-48"/>
      <use x="127.246094" xlink:href="#DejaVuSans-48"/>
      <use x="190.869141" xlink:href="#DejaVuSans-48"/>
     </g>
    </g>
    <g id="line2d_108">
     <path d="M 501.655625 227.199062 
L 521.655625 227.199062 
" style="fill:none;stroke:#000000;stroke-dasharray:9.6,2.4,1.5,2.4;stroke-dashoffset:0;stroke-width:1.5;"/>
    </g>
    <g id="line2d_109"/>
    <g id="text_28">
     <!-- 10000 -->
     <g transform="translate(529.655625 230.699062)scale(0.1 -0.1)">
      <use xlink:href="#DejaVuSans-49"/>
      <use x="63.623047" xlink:href="#DejaVuSans-48"/>
      <use x="127.246094" xlink:href="#DejaVuSans-48"/>
      <use x="190.869141" xlink:href="#DejaVuSans-48"/>
      <use x="254.492188" xlink:href="#DejaVuSans-48"/>
     </g>
    </g>
   </g>
  </g>
 </g>
 <defs>
  <clipPath id="p63ef12496a">
   <rect height="380.52" width="390.6" x="102.055625" y="52.64125"/>
  </clipPath>
 </defs>
</svg>
