<?xml version="1.0" encoding="utf-8" standalone="no"?>
<!DOCTYPE svg PUBLIC "-//W3C//DTD SVG 1.1//EN"
  "http://www.w3.org/Graphics/SVG/1.1/DTD/svg11.dtd">
<!-- Created with matplotlib (https://matplotlib.org/) -->
<svg height="504.658125pt" version="1.1" viewBox="0 0 591.755625 504.658125" width="591.755625pt" xmlns="http://www.w3.org/2000/svg" xmlns:xlink="http://www.w3.org/1999/xlink">
 <defs>
  <style type="text/css">
*{stroke-linecap:butt;stroke-linejoin:round;}
  </style>
 </defs>
 <g id="figure_1">
  <g id="patch_1">
   <path d="M -0 504.658125 
L 591.755625 504.658125 
L 591.755625 -0 
L -0 -0 
z
" style="fill:#ffffff;"/>
  </g>
  <g id="axes_1">
   <g id="patch_2">
    <path d="M 121.143125 433.16125 
L 511.743125 433.16125 
L 511.743125 52.64125 
L 121.143125 52.64125 
z
" style="fill:#ffffff;"/>
   </g>
   <g id="matplotlib.axis_1">
    <g id="xtick_1">
     <g id="line2d_1">
      <defs>
       <path d="M 0 0 
L 0 3.5 
" id="m347de61c3d" style="stroke:#000000;stroke-width:0.8;"/>
      </defs>
      <g>
       <use style="stroke:#000000;stroke-width:0.8;" x="168.48858" xlink:href="#m347de61c3d" y="433.16125"/>
      </g>
     </g>
     <g id="text_1">
      <!-- 5 -->
      <defs>
       <path d="M 10.796875 72.90625 
L 49.515625 72.90625 
L 49.515625 64.59375 
L 19.828125 64.59375 
L 19.828125 46.734375 
Q 21.96875 47.46875 24.109375 47.828125 
Q 26.265625 48.1875 28.421875 48.1875 
Q 40.625 48.1875 47.75 41.5 
Q 54.890625 34.8125 54.890625 23.390625 
Q 54.890625 11.625 47.5625 5.09375 
Q 40.234375 -1.421875 26.90625 -1.421875 
Q 22.3125 -1.421875 17.546875 -0.640625 
Q 12.796875 0.140625 7.71875 1.703125 
L 7.71875 11.625 
Q 12.109375 9.234375 16.796875 8.0625 
Q 21.484375 6.890625 26.703125 6.890625 
Q 35.15625 6.890625 40.078125 11.328125 
Q 45.015625 15.765625 45.015625 23.390625 
Q 45.015625 31 40.078125 35.4375 
Q 35.15625 39.890625 26.703125 39.890625 
Q 22.75 39.890625 18.8125 39.015625 
Q 14.890625 38.140625 10.796875 36.28125 
z
" id="DejaVuSans-53"/>
      </defs>
      <g transform="translate(158.94483 462.956562)scale(0.3 -0.3)">
       <use xlink:href="#DejaVuSans-53"/>
      </g>
     </g>
    </g>
    <g id="xtick_2">
     <g id="line2d_2">
      <g>
       <use style="stroke:#000000;stroke-width:0.8;" x="227.670398" xlink:href="#m347de61c3d" y="433.16125"/>
      </g>
     </g>
     <g id="text_2">
      <!-- 10 -->
      <defs>
       <path d="M 12.40625 8.296875 
L 28.515625 8.296875 
L 28.515625 63.921875 
L 10.984375 60.40625 
L 10.984375 69.390625 
L 28.421875 72.90625 
L 38.28125 72.90625 
L 38.28125 8.296875 
L 54.390625 8.296875 
L 54.390625 0 
L 12.40625 0 
z
" id="DejaVuSans-49"/>
       <path d="M 31.78125 66.40625 
Q 24.171875 66.40625 20.328125 58.90625 
Q 16.5 51.421875 16.5 36.375 
Q 16.5 21.390625 20.328125 13.890625 
Q 24.171875 6.390625 31.78125 6.390625 
Q 39.453125 6.390625 43.28125 13.890625 
Q 47.125 21.390625 47.125 36.375 
Q 47.125 51.421875 43.28125 58.90625 
Q 39.453125 66.40625 31.78125 66.40625 
z
M 31.78125 74.21875 
Q 44.046875 74.21875 50.515625 64.515625 
Q 56.984375 54.828125 56.984375 36.375 
Q 56.984375 17.96875 50.515625 8.265625 
Q 44.046875 -1.421875 31.78125 -1.421875 
Q 19.53125 -1.421875 13.0625 8.265625 
Q 6.59375 17.96875 6.59375 36.375 
Q 6.59375 54.828125 13.0625 64.515625 
Q 19.53125 74.21875 31.78125 74.21875 
z
" id="DejaVuSans-48"/>
      </defs>
      <g transform="translate(208.582898 462.956562)scale(0.3 -0.3)">
       <use xlink:href="#DejaVuSans-49"/>
       <use x="63.623047" xlink:href="#DejaVuSans-48"/>
      </g>
     </g>
    </g>
    <g id="xtick_3">
     <g id="line2d_3">
      <g>
       <use style="stroke:#000000;stroke-width:0.8;" x="286.852216" xlink:href="#m347de61c3d" y="433.16125"/>
      </g>
     </g>
     <g id="text_3">
      <!-- 15 -->
      <g transform="translate(267.764716 462.956562)scale(0.3 -0.3)">
       <use xlink:href="#DejaVuSans-49"/>
       <use x="63.623047" xlink:href="#DejaVuSans-53"/>
      </g>
     </g>
    </g>
    <g id="xtick_4">
     <g id="line2d_4">
      <g>
       <use style="stroke:#000000;stroke-width:0.8;" x="346.034034" xlink:href="#m347de61c3d" y="433.16125"/>
      </g>
     </g>
     <g id="text_4">
      <!-- 20 -->
      <defs>
       <path d="M 19.1875 8.296875 
L 53.609375 8.296875 
L 53.609375 0 
L 7.328125 0 
L 7.328125 8.296875 
Q 12.9375 14.109375 22.625 23.890625 
Q 32.328125 33.6875 34.8125 36.53125 
Q 39.546875 41.84375 41.421875 45.53125 
Q 43.3125 49.21875 43.3125 52.78125 
Q 43.3125 58.59375 39.234375 62.25 
Q 35.15625 65.921875 28.609375 65.921875 
Q 23.96875 65.921875 18.8125 64.3125 
Q 13.671875 62.703125 7.8125 59.421875 
L 7.8125 69.390625 
Q 13.765625 71.78125 18.9375 73 
Q 24.125 74.21875 28.421875 74.21875 
Q 39.75 74.21875 46.484375 68.546875 
Q 53.21875 62.890625 53.21875 53.421875 
Q 53.21875 48.921875 51.53125 44.890625 
Q 49.859375 40.875 45.40625 35.40625 
Q 44.1875 33.984375 37.640625 27.21875 
Q 31.109375 20.453125 19.1875 8.296875 
z
" id="DejaVuSans-50"/>
      </defs>
      <g transform="translate(326.946534 462.956562)scale(0.3 -0.3)">
       <use xlink:href="#DejaVuSans-50"/>
       <use x="63.623047" xlink:href="#DejaVuSans-48"/>
      </g>
     </g>
    </g>
    <g id="xtick_5">
     <g id="line2d_5">
      <g>
       <use style="stroke:#000000;stroke-width:0.8;" x="405.215852" xlink:href="#m347de61c3d" y="433.16125"/>
      </g>
     </g>
     <g id="text_5">
      <!-- 25 -->
      <g transform="translate(386.128352 462.956562)scale(0.3 -0.3)">
       <use xlink:href="#DejaVuSans-50"/>
       <use x="63.623047" xlink:href="#DejaVuSans-53"/>
      </g>
     </g>
    </g>
    <g id="xtick_6">
     <g id="line2d_6">
      <g>
       <use style="stroke:#000000;stroke-width:0.8;" x="464.39767" xlink:href="#m347de61c3d" y="433.16125"/>
      </g>
     </g>
     <g id="text_6">
      <!-- 30 -->
      <defs>
       <path d="M 40.578125 39.3125 
Q 47.65625 37.796875 51.625 33 
Q 55.609375 28.21875 55.609375 21.1875 
Q 55.609375 10.40625 48.1875 4.484375 
Q 40.765625 -1.421875 27.09375 -1.421875 
Q 22.515625 -1.421875 17.65625 -0.515625 
Q 12.796875 0.390625 7.625 2.203125 
L 7.625 11.71875 
Q 11.71875 9.328125 16.59375 8.109375 
Q 21.484375 6.890625 26.8125 6.890625 
Q 36.078125 6.890625 40.9375 10.546875 
Q 45.796875 14.203125 45.796875 21.1875 
Q 45.796875 27.640625 41.28125 31.265625 
Q 36.765625 34.90625 28.71875 34.90625 
L 20.21875 34.90625 
L 20.21875 43.015625 
L 29.109375 43.015625 
Q 36.375 43.015625 40.234375 45.921875 
Q 44.09375 48.828125 44.09375 54.296875 
Q 44.09375 59.90625 40.109375 62.90625 
Q 36.140625 65.921875 28.71875 65.921875 
Q 24.65625 65.921875 20.015625 65.03125 
Q 15.375 64.15625 9.8125 62.3125 
L 9.8125 71.09375 
Q 15.4375 72.65625 20.34375 73.4375 
Q 25.25 74.21875 29.59375 74.21875 
Q 40.828125 74.21875 47.359375 69.109375 
Q 53.90625 64.015625 53.90625 55.328125 
Q 53.90625 49.265625 50.4375 45.09375 
Q 46.96875 40.921875 40.578125 39.3125 
z
" id="DejaVuSans-51"/>
      </defs>
      <g transform="translate(445.31017 462.956562)scale(0.3 -0.3)">
       <use xlink:href="#DejaVuSans-51"/>
       <use x="63.623047" xlink:href="#DejaVuSans-48"/>
      </g>
     </g>
    </g>
    <g id="text_7">
     <!-- RADIUS -->
     <defs>
      <path d="M 7.328125 0 
L 7.328125 71.578125 
L 37.75 71.578125 
Q 49.21875 71.578125 54.421875 69.640625 
Q 59.625 67.71875 62.75 62.78125 
Q 65.875 57.859375 65.875 51.515625 
Q 65.875 43.453125 61.125 38.203125 
Q 56.390625 32.953125 46.96875 31.59375 
Q 51.65625 28.859375 54.703125 25.578125 
Q 57.765625 22.3125 62.9375 13.96875 
L 71.6875 0 
L 54.390625 0 
L 43.953125 15.578125 
Q 38.375 23.921875 36.328125 26.09375 
Q 34.28125 28.265625 31.984375 29.078125 
Q 29.6875 29.890625 24.703125 29.890625 
L 21.78125 29.890625 
L 21.78125 0 
z
M 21.78125 41.3125 
L 32.46875 41.3125 
Q 42.875 41.3125 45.453125 42.1875 
Q 48.046875 43.0625 49.515625 45.203125 
Q 50.984375 47.359375 50.984375 50.59375 
Q 50.984375 54.203125 49.046875 56.421875 
Q 47.125 58.640625 43.609375 59.234375 
Q 41.84375 59.46875 33.0625 59.46875 
L 21.78125 59.46875 
z
" id="Arial-BoldMT-82"/>
      <path d="M 71.828125 0 
L 56.109375 0 
L 49.859375 16.265625 
L 21.234375 16.265625 
L 15.328125 0 
L 0 0 
L 27.875 71.578125 
L 43.171875 71.578125 
z
M 45.21875 28.328125 
L 35.359375 54.890625 
L 25.6875 28.328125 
z
" id="Arial-BoldMT-65"/>
      <path d="M 7.234375 71.578125 
L 33.640625 71.578125 
Q 42.578125 71.578125 47.265625 70.21875 
Q 53.5625 68.359375 58.046875 63.625 
Q 62.546875 58.890625 64.890625 52.03125 
Q 67.234375 45.171875 67.234375 35.109375 
Q 67.234375 26.265625 65.046875 19.875 
Q 62.359375 12.0625 57.375 7.234375 
Q 53.609375 3.5625 47.21875 1.515625 
Q 42.4375 0 34.421875 0 
L 7.234375 0 
z
M 21.6875 59.46875 
L 21.6875 12.0625 
L 32.46875 12.0625 
Q 38.53125 12.0625 41.21875 12.75 
Q 44.734375 13.625 47.046875 15.71875 
Q 49.359375 17.828125 50.828125 22.625 
Q 52.296875 27.4375 52.296875 35.75 
Q 52.296875 44.046875 50.828125 48.484375 
Q 49.359375 52.9375 46.71875 55.421875 
Q 44.09375 57.90625 40.046875 58.796875 
Q 37.015625 59.46875 28.171875 59.46875 
z
" id="Arial-BoldMT-68"/>
      <path d="M 6.84375 0 
L 6.84375 71.578125 
L 21.296875 71.578125 
L 21.296875 0 
z
" id="Arial-BoldMT-73"/>
      <path d="M 7.171875 71.578125 
L 21.625 71.578125 
L 21.625 32.8125 
Q 21.625 23.578125 22.171875 20.84375 
Q 23.09375 16.453125 26.578125 13.796875 
Q 30.078125 11.140625 36.140625 11.140625 
Q 42.28125 11.140625 45.40625 13.640625 
Q 48.53125 16.15625 49.171875 19.8125 
Q 49.8125 23.484375 49.8125 31.984375 
L 49.8125 71.578125 
L 64.265625 71.578125 
L 64.265625 33.984375 
Q 64.265625 21.09375 63.09375 15.765625 
Q 61.921875 10.453125 58.765625 6.78125 
Q 55.609375 3.125 50.328125 0.953125 
Q 45.0625 -1.21875 36.578125 -1.21875 
Q 26.3125 -1.21875 21.015625 1.140625 
Q 15.71875 3.515625 12.640625 7.296875 
Q 9.578125 11.078125 8.59375 15.234375 
Q 7.171875 21.390625 7.171875 33.40625 
z
" id="Arial-BoldMT-85"/>
      <path d="M 3.609375 23.296875 
L 17.671875 24.65625 
Q 18.953125 17.578125 22.828125 14.25 
Q 26.703125 10.9375 33.296875 10.9375 
Q 40.28125 10.9375 43.8125 13.890625 
Q 47.359375 16.84375 47.359375 20.796875 
Q 47.359375 23.34375 45.875 25.125 
Q 44.390625 26.90625 40.671875 28.21875 
Q 38.140625 29.109375 29.109375 31.34375 
Q 17.484375 34.234375 12.796875 38.421875 
Q 6.203125 44.34375 6.203125 52.828125 
Q 6.203125 58.296875 9.296875 63.0625 
Q 12.40625 67.828125 18.234375 70.3125 
Q 24.078125 72.796875 32.328125 72.796875 
Q 45.796875 72.796875 52.609375 66.890625 
Q 59.421875 60.984375 59.765625 51.125 
L 45.3125 50.484375 
Q 44.390625 56 41.328125 58.421875 
Q 38.28125 60.84375 32.171875 60.84375 
Q 25.875 60.84375 22.3125 58.25 
Q 20.015625 56.59375 20.015625 53.8125 
Q 20.015625 51.265625 22.171875 49.46875 
Q 24.90625 47.171875 35.453125 44.671875 
Q 46 42.1875 51.046875 39.515625 
Q 56.109375 36.859375 58.953125 32.25 
Q 61.8125 27.640625 61.8125 20.84375 
Q 61.8125 14.703125 58.390625 9.328125 
Q 54.984375 3.953125 48.734375 1.34375 
Q 42.484375 -1.265625 33.15625 -1.265625 
Q 19.578125 -1.265625 12.296875 5 
Q 5.03125 11.28125 3.609375 23.296875 
z
" id="Arial-BoldMT-83"/>
     </defs>
     <g transform="translate(278.107188 493.51125)scale(0.2 -0.2)">
      <use xlink:href="#Arial-BoldMT-82"/>
      <use x="72.216797" xlink:href="#Arial-BoldMT-65"/>
      <use x="144.433594" xlink:href="#Arial-BoldMT-68"/>
      <use x="216.650391" xlink:href="#Arial-BoldMT-73"/>
      <use x="244.433594" xlink:href="#Arial-BoldMT-85"/>
      <use x="316.650391" xlink:href="#Arial-BoldMT-83"/>
     </g>
    </g>
   </g>
   <g id="matplotlib.axis_2">
    <g id="ytick_1">
     <g id="line2d_7">
      <defs>
       <path d="M 0 0 
L -3.5 0 
" id="m292486a907" style="stroke:#000000;stroke-width:0.8;"/>
      </defs>
      <g>
       <use style="stroke:#000000;stroke-width:0.8;" x="121.143125" xlink:href="#m292486a907" y="433.16125"/>
      </g>
     </g>
     <g id="text_8">
      <!-- 0 -->
      <g transform="translate(95.055625 444.558906)scale(0.3 -0.3)">
       <use xlink:href="#DejaVuSans-48"/>
      </g>
     </g>
    </g>
    <g id="ytick_2">
     <g id="line2d_8">
      <g>
       <use style="stroke:#000000;stroke-width:0.8;" x="121.143125" xlink:href="#m292486a907" y="367.270341"/>
      </g>
     </g>
     <g id="text_9">
      <!-- 50 -->
      <g transform="translate(75.968125 378.667997)scale(0.3 -0.3)">
       <use xlink:href="#DejaVuSans-53"/>
       <use x="63.623047" xlink:href="#DejaVuSans-48"/>
      </g>
     </g>
    </g>
    <g id="ytick_3">
     <g id="line2d_9">
      <g>
       <use style="stroke:#000000;stroke-width:0.8;" x="121.143125" xlink:href="#m292486a907" y="301.379432"/>
      </g>
     </g>
     <g id="text_10">
      <!-- 100 -->
      <g transform="translate(56.880625 312.777088)scale(0.3 -0.3)">
       <use xlink:href="#DejaVuSans-49"/>
       <use x="63.623047" xlink:href="#DejaVuSans-48"/>
       <use x="127.246094" xlink:href="#DejaVuSans-48"/>
      </g>
     </g>
    </g>
    <g id="ytick_4">
     <g id="line2d_10">
      <g>
       <use style="stroke:#000000;stroke-width:0.8;" x="121.143125" xlink:href="#m292486a907" y="235.488523"/>
      </g>
     </g>
     <g id="text_11">
      <!-- 150 -->
      <g transform="translate(56.880625 246.886179)scale(0.3 -0.3)">
       <use xlink:href="#DejaVuSans-49"/>
       <use x="63.623047" xlink:href="#DejaVuSans-53"/>
       <use x="127.246094" xlink:href="#DejaVuSans-48"/>
      </g>
     </g>
    </g>
    <g id="ytick_5">
     <g id="line2d_11">
      <g>
       <use style="stroke:#000000;stroke-width:0.8;" x="121.143125" xlink:href="#m292486a907" y="169.597614"/>
      </g>
     </g>
     <g id="text_12">
      <!-- 200 -->
      <g transform="translate(56.880625 180.99527)scale(0.3 -0.3)">
       <use xlink:href="#DejaVuSans-50"/>
       <use x="63.623047" xlink:href="#DejaVuSans-48"/>
       <use x="127.246094" xlink:href="#DejaVuSans-48"/>
      </g>
     </g>
    </g>
    <g id="ytick_6">
     <g id="line2d_12">
      <g>
       <use style="stroke:#000000;stroke-width:0.8;" x="121.143125" xlink:href="#m292486a907" y="103.706705"/>
      </g>
     </g>
     <g id="text_13">
      <!-- 250 -->
      <g transform="translate(56.880625 115.104361)scale(0.3 -0.3)">
       <use xlink:href="#DejaVuSans-50"/>
       <use x="63.623047" xlink:href="#DejaVuSans-53"/>
       <use x="127.246094" xlink:href="#DejaVuSans-48"/>
      </g>
     </g>
    </g>
    <g id="text_14">
     <!-- CANCER LIVE -->
     <defs>
      <path d="M 53.078125 26.3125 
L 67.09375 21.875 
Q 63.875 10.15625 56.375 4.46875 
Q 48.875 -1.21875 37.359375 -1.21875 
Q 23.09375 -1.21875 13.90625 8.515625 
Q 4.734375 18.265625 4.734375 35.15625 
Q 4.734375 53.03125 13.953125 62.90625 
Q 23.1875 72.796875 38.234375 72.796875 
Q 51.375 72.796875 59.578125 65.046875 
Q 64.453125 60.453125 66.890625 51.859375 
L 52.59375 48.4375 
Q 51.3125 54 47.28125 57.21875 
Q 43.265625 60.453125 37.5 60.453125 
Q 29.546875 60.453125 24.578125 54.734375 
Q 19.625 49.03125 19.625 36.234375 
Q 19.625 22.65625 24.5 16.890625 
Q 29.390625 11.140625 37.203125 11.140625 
Q 42.96875 11.140625 47.109375 14.796875 
Q 51.265625 18.453125 53.078125 26.3125 
z
" id="Arial-BoldMT-67"/>
      <path d="M 7.421875 0 
L 7.421875 71.578125 
L 21.484375 71.578125 
L 50.78125 23.78125 
L 50.78125 71.578125 
L 64.203125 71.578125 
L 64.203125 0 
L 49.703125 0 
L 20.84375 46.6875 
L 20.84375 0 
z
" id="Arial-BoldMT-78"/>
      <path d="M 7.28125 0 
L 7.28125 71.578125 
L 60.359375 71.578125 
L 60.359375 59.46875 
L 21.734375 59.46875 
L 21.734375 43.609375 
L 57.671875 43.609375 
L 57.671875 31.546875 
L 21.734375 31.546875 
L 21.734375 12.0625 
L 61.71875 12.0625 
L 61.71875 0 
z
" id="Arial-BoldMT-69"/>
      <path id="Arial-BoldMT-32"/>
      <path d="M 7.671875 0 
L 7.671875 71 
L 22.125 71 
L 22.125 12.0625 
L 58.0625 12.0625 
L 58.0625 0 
z
" id="Arial-BoldMT-76"/>
      <path d="M 25.53125 0 
L -0.046875 71.578125 
L 15.625 71.578125 
L 33.734375 18.609375 
L 51.265625 71.578125 
L 66.609375 71.578125 
L 40.96875 0 
z
" id="Arial-BoldMT-86"/>
     </defs>
     <g transform="translate(21.253125 310.685625)rotate(-90)scale(0.2 -0.2)">
      <use xlink:href="#Arial-BoldMT-67"/>
      <use x="72.216797" xlink:href="#Arial-BoldMT-65"/>
      <use x="144.433594" xlink:href="#Arial-BoldMT-78"/>
      <use x="216.650391" xlink:href="#Arial-BoldMT-67"/>
      <use x="288.867188" xlink:href="#Arial-BoldMT-69"/>
      <use x="355.566406" xlink:href="#Arial-BoldMT-82"/>
      <use x="427.783203" xlink:href="#Arial-BoldMT-32"/>
      <use x="455.566406" xlink:href="#Arial-BoldMT-76"/>
      <use x="516.650391" xlink:href="#Arial-BoldMT-73"/>
      <use x="544.433594" xlink:href="#Arial-BoldMT-86"/>
      <use x="611.132812" xlink:href="#Arial-BoldMT-69"/>
     </g>
     <!-- CELL COUNTS (NUMBERS) -->
     <defs>
      <path d="M 4.34375 35.359375 
Q 4.34375 46.296875 7.625 53.71875 
Q 10.0625 59.1875 14.28125 63.53125 
Q 18.5 67.875 23.53125 69.96875 
Q 30.21875 72.796875 38.96875 72.796875 
Q 54.78125 72.796875 64.28125 62.984375 
Q 73.78125 53.171875 73.78125 35.6875 
Q 73.78125 18.359375 64.359375 8.5625 
Q 54.9375 -1.21875 39.15625 -1.21875 
Q 23.1875 -1.21875 13.765625 8.515625 
Q 4.34375 18.265625 4.34375 35.359375 
z
M 19.234375 35.84375 
Q 19.234375 23.6875 24.84375 17.40625 
Q 30.46875 11.140625 39.109375 11.140625 
Q 47.75 11.140625 53.296875 17.359375 
Q 58.84375 23.578125 58.84375 36.03125 
Q 58.84375 48.34375 53.4375 54.390625 
Q 48.046875 60.453125 39.109375 60.453125 
Q 30.171875 60.453125 24.703125 54.3125 
Q 19.234375 48.1875 19.234375 35.84375 
z
" id="Arial-BoldMT-79"/>
      <path d="M 23.390625 0 
L 23.390625 59.46875 
L 2.15625 59.46875 
L 2.15625 71.578125 
L 59.03125 71.578125 
L 59.03125 59.46875 
L 37.84375 59.46875 
L 37.84375 0 
z
" id="Arial-BoldMT-84"/>
      <path d="M 29.9375 -21.046875 
L 20.515625 -21.046875 
Q 13.03125 -9.765625 9.125 2.390625 
Q 5.21875 14.546875 5.21875 25.921875 
Q 5.21875 40.046875 10.0625 52.640625 
Q 14.265625 63.578125 20.703125 72.796875 
L 30.078125 72.796875 
Q 23.390625 58.015625 20.875 47.625 
Q 18.359375 37.25 18.359375 25.640625 
Q 18.359375 17.625 19.84375 9.21875 
Q 21.34375 0.828125 23.921875 -6.734375 
Q 25.640625 -11.71875 29.9375 -21.046875 
z
" id="Arial-BoldMT-40"/>
      <path d="M 7.078125 0 
L 7.078125 71.578125 
L 28.71875 71.578125 
L 41.703125 22.75 
L 54.546875 71.578125 
L 76.21875 71.578125 
L 76.21875 0 
L 62.796875 0 
L 62.796875 56.34375 
L 48.578125 0 
L 34.671875 0 
L 20.515625 56.34375 
L 20.515625 0 
z
" id="Arial-BoldMT-77"/>
      <path d="M 7.328125 71.578125 
L 35.9375 71.578125 
Q 44.4375 71.578125 48.609375 70.875 
Q 52.78125 70.171875 56.078125 67.921875 
Q 59.375 65.671875 61.5625 61.9375 
Q 63.765625 58.203125 63.765625 53.5625 
Q 63.765625 48.53125 61.046875 44.328125 
Q 58.34375 40.140625 53.71875 38.03125 
Q 60.25 36.140625 63.765625 31.546875 
Q 67.28125 26.953125 67.28125 20.75 
Q 67.28125 15.875 65.015625 11.25 
Q 62.75 6.640625 58.8125 3.875 
Q 54.890625 1.125 49.125 0.484375 
Q 45.515625 0.09375 31.6875 0 
L 7.328125 0 
z
M 21.78125 59.671875 
L 21.78125 43.109375 
L 31.25 43.109375 
Q 39.703125 43.109375 41.75 43.359375 
Q 45.453125 43.796875 47.578125 45.921875 
Q 49.703125 48.046875 49.703125 51.515625 
Q 49.703125 54.828125 47.875 56.90625 
Q 46.046875 58.984375 42.4375 59.421875 
Q 40.28125 59.671875 30.078125 59.671875 
z
M 21.78125 31.203125 
L 21.78125 12.0625 
L 35.15625 12.0625 
Q 42.96875 12.0625 45.0625 12.5 
Q 48.296875 13.09375 50.3125 15.359375 
Q 52.34375 17.625 52.34375 21.4375 
Q 52.34375 24.65625 50.78125 26.90625 
Q 49.21875 29.15625 46.265625 30.171875 
Q 43.3125 31.203125 33.453125 31.203125 
z
" id="Arial-BoldMT-66"/>
      <path d="M 3.375 -21.046875 
Q 7.421875 -12.359375 9.078125 -7.71875 
Q 10.75 -3.078125 12.15625 2.96875 
Q 13.578125 9.03125 14.25 14.46875 
Q 14.9375 19.921875 14.9375 25.640625 
Q 14.9375 37.25 12.453125 47.625 
Q 9.96875 58.015625 3.265625 72.796875 
L 12.59375 72.796875 
Q 19.96875 62.3125 24.046875 50.53125 
Q 28.125 38.765625 28.125 26.65625 
Q 28.125 16.453125 24.90625 4.78125 
Q 21.234375 -8.296875 12.84375 -21.046875 
z
" id="Arial-BoldMT-41"/>
     </defs>
     <g transform="translate(42.67125 374.002812)rotate(-90)scale(0.2 -0.2)">
      <use xlink:href="#Arial-BoldMT-67"/>
      <use x="72.216797" xlink:href="#Arial-BoldMT-69"/>
      <use x="138.916016" xlink:href="#Arial-BoldMT-76"/>
      <use x="200" xlink:href="#Arial-BoldMT-76"/>
      <use x="261.068359" xlink:href="#Arial-BoldMT-32"/>
      <use x="288.851562" xlink:href="#Arial-BoldMT-67"/>
      <use x="361.068359" xlink:href="#Arial-BoldMT-79"/>
      <use x="438.851562" xlink:href="#Arial-BoldMT-85"/>
      <use x="511.068359" xlink:href="#Arial-BoldMT-78"/>
      <use x="583.285156" xlink:href="#Arial-BoldMT-84"/>
      <use x="644.369141" xlink:href="#Arial-BoldMT-83"/>
      <use x="711.068359" xlink:href="#Arial-BoldMT-32"/>
      <use x="738.851562" xlink:href="#Arial-BoldMT-40"/>
      <use x="772.152344" xlink:href="#Arial-BoldMT-78"/>
      <use x="844.369141" xlink:href="#Arial-BoldMT-85"/>
      <use x="916.585938" xlink:href="#Arial-BoldMT-77"/>
      <use x="999.886719" xlink:href="#Arial-BoldMT-66"/>
      <use x="1072.103516" xlink:href="#Arial-BoldMT-69"/>
      <use x="1138.802734" xlink:href="#Arial-BoldMT-82"/>
      <use x="1211.019531" xlink:href="#Arial-BoldMT-83"/>
      <use x="1277.71875" xlink:href="#Arial-BoldMT-41"/>
     </g>
    </g>
   </g>
   <g id="line2d_13">
    <path clip-path="url(#p7754e2eed4)" d="M 121.143125 433.16125 
L 132.979489 433.16125 
L 144.815852 433.16125 
L 156.652216 433.16125 
L 168.48858 427.889977 
L 180.324943 429.207795 
L 192.161307 427.889977 
L 203.99767 417.347432 
L 215.834034 416.029614 
L 227.670398 414.711795 
L 239.506761 410.758341 
L 251.343125 412.076159 
L 263.179489 417.347432 
L 275.015852 425.254341 
L 286.852216 414.711795 
L 298.68858 419.983068 
L 310.524943 416.029614 
L 322.361307 416.029614 
L 334.19767 417.347432 
L 346.034034 414.711795 
L 357.870398 413.393977 
L 369.706761 417.347432 
L 381.543125 419.983068 
L 393.379489 425.254341 
L 405.215852 413.393977 
L 417.052216 390.991068 
L 428.88858 379.130705 
L 440.724943 381.766341 
L 452.561307 396.262341 
L 464.39767 375.17725 
L 476.234034 375.17725 
L 488.070398 360.68125 
L 499.906761 375.17725 
L 511.743125 364.634705 
" style="fill:none;stroke:#08306b;stroke-linecap:square;stroke-width:1.5;"/>
   </g>
   <g id="line2d_14">
    <path clip-path="url(#p7754e2eed4)" d="M 121.143125 433.16125 
L 132.979489 433.16125 
L 144.815852 431.843432 
L 156.652216 430.525614 
L 168.48858 430.525614 
L 180.324943 422.618705 
L 192.161307 418.66525 
L 203.99767 426.572159 
L 215.834034 419.983068 
L 227.670398 421.300886 
L 239.506761 423.936523 
L 251.343125 425.254341 
L 263.179489 427.889977 
L 275.015852 425.254341 
L 286.852216 418.66525 
L 298.68858 422.618705 
L 310.524943 414.711795 
L 322.361307 418.66525 
L 334.19767 413.393977 
L 346.034034 416.029614 
L 357.870398 413.393977 
L 369.706761 410.758341 
L 381.543125 412.076159 
L 393.379489 409.440523 
L 405.215852 409.440523 
L 417.052216 406.804886 
L 428.88858 405.487068 
L 440.724943 405.487068 
L 452.561307 408.122705 
L 464.39767 404.16925 
L 476.234034 393.626705 
L 488.070398 388.355432 
L 499.906761 384.401977 
L 511.743125 380.448523 
" style="fill:none;stroke:#08306b;stroke-linecap:square;stroke-width:1.5;"/>
   </g>
   <g id="line2d_15">
    <path clip-path="url(#p7754e2eed4)" d="M 121.143125 430.525614 
L 132.979489 423.936523 
L 144.815852 417.347432 
L 156.652216 421.300886 
L 168.48858 418.66525 
L 180.324943 423.936523 
L 192.161307 431.843432 
L 203.99767 431.843432 
L 215.834034 430.525614 
L 227.670398 425.254341 
L 239.506761 423.936523 
L 251.343125 416.029614 
L 263.179489 418.66525 
L 275.015852 422.618705 
L 286.852216 419.983068 
L 298.68858 417.347432 
L 310.524943 417.347432 
L 322.361307 414.711795 
L 334.19767 417.347432 
L 346.034034 410.758341 
L 357.870398 406.804886 
L 369.706761 402.851432 
L 381.543125 405.487068 
L 393.379489 410.758341 
L 405.215852 409.440523 
L 417.052216 409.440523 
L 428.88858 409.440523 
L 440.724943 419.983068 
L 452.561307 410.758341 
L 464.39767 409.440523 
L 476.234034 405.487068 
L 488.070398 381.766341 
L 499.906761 389.67325 
L 511.743125 379.130705 
" style="fill:none;stroke:#08306b;stroke-linecap:square;stroke-width:1.5;"/>
   </g>
   <g id="line2d_16">
    <path clip-path="url(#p7754e2eed4)" d="M 121.143125 433.16125 
L 132.979489 433.16125 
L 144.815852 431.843432 
L 156.652216 429.207795 
L 168.48858 430.525614 
L 180.324943 429.207795 
L 192.161307 430.525614 
L 203.99767 430.525614 
L 215.834034 430.525614 
L 227.670398 419.983068 
L 239.506761 414.711795 
L 251.343125 413.393977 
L 263.179489 417.347432 
L 275.015852 417.347432 
L 286.852216 405.487068 
L 298.68858 401.533614 
L 310.524943 402.851432 
L 322.361307 408.122705 
L 334.19767 408.122705 
L 346.034034 404.16925 
L 357.870398 396.262341 
L 369.706761 379.130705 
L 381.543125 388.355432 
L 393.379489 400.215795 
L 405.215852 400.215795 
L 417.052216 406.804886 
L 428.88858 404.16925 
L 440.724943 402.851432 
L 452.561307 402.851432 
L 464.39767 405.487068 
L 476.234034 392.308886 
L 488.070398 406.804886 
L 499.906761 402.851432 
L 511.743125 400.215795 
" style="fill:none;stroke:#08306b;stroke-linecap:square;stroke-width:1.5;"/>
   </g>
   <g id="line2d_17">
    <path clip-path="url(#p7754e2eed4)" d="M 121.143125 433.16125 
L 132.979489 433.16125 
L 144.815852 431.843432 
L 156.652216 431.843432 
L 168.48858 431.843432 
L 180.324943 429.207795 
L 192.161307 429.207795 
L 203.99767 422.618705 
L 215.834034 417.347432 
L 227.670398 417.347432 
L 239.506761 419.983068 
L 251.343125 421.300886 
L 263.179489 423.936523 
L 275.015852 422.618705 
L 286.852216 426.572159 
L 298.68858 429.207795 
L 310.524943 425.254341 
L 322.361307 422.618705 
L 334.19767 408.122705 
L 346.034034 401.533614 
L 357.870398 385.719795 
L 369.706761 380.448523 
L 381.543125 385.719795 
L 393.379489 397.580159 
L 405.215852 414.711795 
L 417.052216 421.300886 
L 428.88858 425.254341 
L 440.724943 421.300886 
L 452.561307 416.029614 
L 464.39767 410.758341 
L 476.234034 394.944523 
L 488.070398 383.084159 
L 499.906761 384.401977 
L 511.743125 372.541614 
" style="fill:none;stroke:#08306b;stroke-linecap:square;stroke-width:1.5;"/>
   </g>
   <g id="line2d_18">
    <path clip-path="url(#p7754e2eed4)" d="M 121.143125 433.16125 
L 132.979489 431.843432 
L 144.815852 431.843432 
L 156.652216 425.254341 
L 168.48858 426.572159 
L 180.324943 409.440523 
L 192.161307 402.851432 
L 203.99767 404.16925 
L 215.834034 402.851432 
L 227.670398 402.851432 
L 239.506761 404.16925 
L 251.343125 416.029614 
L 263.179489 412.076159 
L 275.015852 421.300886 
L 286.852216 416.029614 
L 298.68858 410.758341 
L 310.524943 416.029614 
L 322.361307 416.029614 
L 334.19767 405.487068 
L 346.034034 412.076159 
L 357.870398 416.029614 
L 369.706761 413.393977 
L 381.543125 409.440523 
L 393.379489 409.440523 
L 405.215852 413.393977 
L 417.052216 417.347432 
L 428.88858 402.851432 
L 440.724943 393.626705 
L 452.561307 381.766341 
L 464.39767 369.905977 
L 476.234034 373.859432 
L 488.070398 390.991068 
L 499.906761 390.991068 
L 511.743125 394.944523 
" style="fill:none;stroke:#08306b;stroke-linecap:square;stroke-width:1.5;"/>
   </g>
   <g id="line2d_19">
    <path clip-path="url(#p7754e2eed4)" d="M 121.143125 431.843432 
L 132.979489 429.207795 
L 144.815852 427.889977 
L 156.652216 423.936523 
L 168.48858 419.983068 
L 180.324943 421.300886 
L 192.161307 430.525614 
L 203.99767 427.889977 
L 215.834034 430.525614 
L 227.670398 430.525614 
L 239.506761 430.525614 
L 251.343125 427.889977 
L 263.179489 430.525614 
L 275.015852 425.254341 
L 286.852216 417.347432 
L 298.68858 409.440523 
L 310.524943 404.16925 
L 322.361307 401.533614 
L 334.19767 404.16925 
L 346.034034 402.851432 
L 357.870398 402.851432 
L 369.706761 396.262341 
L 381.543125 398.897977 
L 393.379489 404.16925 
L 405.215852 406.804886 
L 417.052216 409.440523 
L 428.88858 409.440523 
L 440.724943 406.804886 
L 452.561307 414.711795 
L 464.39767 397.580159 
L 476.234034 385.719795 
L 488.070398 373.859432 
L 499.906761 369.905977 
L 511.743125 373.859432 
" style="fill:none;stroke:#08306b;stroke-linecap:square;stroke-width:1.5;"/>
   </g>
   <g id="line2d_20">
    <path clip-path="url(#p7754e2eed4)" d="M 121.143125 433.16125 
L 132.979489 430.525614 
L 144.815852 430.525614 
L 156.652216 433.16125 
L 168.48858 433.16125 
L 180.324943 433.16125 
L 192.161307 433.16125 
L 203.99767 433.16125 
L 215.834034 431.843432 
L 227.670398 429.207795 
L 239.506761 426.572159 
L 251.343125 414.711795 
L 263.179489 414.711795 
L 275.015852 409.440523 
L 286.852216 416.029614 
L 298.68858 423.936523 
L 310.524943 418.66525 
L 322.361307 422.618705 
L 334.19767 423.936523 
L 346.034034 422.618705 
L 357.870398 422.618705 
L 369.706761 421.300886 
L 381.543125 414.711795 
L 393.379489 397.580159 
L 405.215852 397.580159 
L 417.052216 396.262341 
L 428.88858 398.897977 
L 440.724943 388.355432 
L 452.561307 384.401977 
L 464.39767 385.719795 
L 476.234034 375.17725 
L 488.070398 368.588159 
L 499.906761 365.952523 
L 511.743125 383.084159 
" style="fill:none;stroke:#08306b;stroke-linecap:square;stroke-width:1.5;"/>
   </g>
   <g id="line2d_21">
    <path clip-path="url(#p7754e2eed4)" d="M 121.143125 433.16125 
L 132.979489 431.843432 
L 144.815852 430.525614 
L 156.652216 430.525614 
L 168.48858 427.889977 
L 180.324943 423.936523 
L 192.161307 427.889977 
L 203.99767 426.572159 
L 215.834034 423.936523 
L 227.670398 413.393977 
L 239.506761 417.347432 
L 251.343125 422.618705 
L 263.179489 421.300886 
L 275.015852 417.347432 
L 286.852216 410.758341 
L 298.68858 417.347432 
L 310.524943 417.347432 
L 322.361307 409.440523 
L 334.19767 410.758341 
L 346.034034 405.487068 
L 357.870398 401.533614 
L 369.706761 402.851432 
L 381.543125 392.308886 
L 393.379489 393.626705 
L 405.215852 398.897977 
L 417.052216 406.804886 
L 428.88858 413.393977 
L 440.724943 414.711795 
L 452.561307 405.487068 
L 464.39767 400.215795 
L 476.234034 390.991068 
L 488.070398 394.944523 
L 499.906761 406.804886 
L 511.743125 393.626705 
" style="fill:none;stroke:#08306b;stroke-linecap:square;stroke-width:1.5;"/>
   </g>
   <g id="line2d_22">
    <path clip-path="url(#p7754e2eed4)" d="M 121.143125 431.843432 
L 132.979489 427.889977 
L 144.815852 426.572159 
L 156.652216 422.618705 
L 168.48858 429.207795 
L 180.324943 426.572159 
L 192.161307 429.207795 
L 203.99767 431.843432 
L 215.834034 430.525614 
L 227.670398 427.889977 
L 239.506761 429.207795 
L 251.343125 423.936523 
L 263.179489 414.711795 
L 275.015852 409.440523 
L 286.852216 408.122705 
L 298.68858 414.711795 
L 310.524943 408.122705 
L 322.361307 405.487068 
L 334.19767 406.804886 
L 346.034034 405.487068 
L 357.870398 408.122705 
L 369.706761 417.347432 
L 381.543125 421.300886 
L 393.379489 427.889977 
L 405.215852 422.618705 
L 417.052216 402.851432 
L 428.88858 409.440523 
L 440.724943 398.897977 
L 452.561307 406.804886 
L 464.39767 393.626705 
L 476.234034 398.897977 
L 488.070398 389.67325 
L 499.906761 405.487068 
L 511.743125 389.67325 
" style="fill:none;stroke:#08306b;stroke-linecap:square;stroke-width:1.5;"/>
   </g>
   <g id="line2d_23">
    <path clip-path="url(#p7754e2eed4)" d="M 121.143125 431.843432 
L 132.979489 421.300886 
L 144.815852 417.347432 
L 156.652216 416.029614 
L 168.48858 414.711795 
L 180.324943 394.944523 
L 192.161307 377.812886 
L 203.99767 383.084159 
L 215.834034 369.905977 
L 227.670398 372.541614 
L 239.506761 364.634705 
L 251.343125 356.727795 
L 263.179489 336.960523 
L 275.015852 335.642705 
L 286.852216 338.278341 
L 298.68858 326.417977 
L 310.524943 326.417977 
L 322.361307 318.511068 
L 334.19767 300.061614 
L 346.034034 280.294341 
L 357.870398 273.70525 
L 369.706761 276.340886 
L 381.543125 268.433977 
L 393.379489 269.751795 
L 405.215852 255.255795 
L 417.052216 240.759795 
L 428.88858 219.674705 
L 440.724943 214.403432 
L 452.561307 205.178705 
L 464.39767 190.682705 
L 476.234034 202.543068 
L 488.070398 210.449977 
L 499.906761 243.395432 
L 511.743125 282.929977 
" style="fill:none;stroke:#4a98c9;stroke-linecap:square;stroke-width:1.5;"/>
   </g>
   <g id="line2d_24">
    <path clip-path="url(#p7754e2eed4)" d="M 121.143125 431.843432 
L 132.979489 426.572159 
L 144.815852 423.936523 
L 156.652216 408.122705 
L 168.48858 413.393977 
L 180.324943 404.16925 
L 192.161307 392.308886 
L 203.99767 387.037614 
L 215.834034 375.17725 
L 227.670398 351.456523 
L 239.506761 327.735795 
L 251.343125 344.867432 
L 263.179489 342.231795 
L 275.015852 356.727795 
L 286.852216 358.045614 
L 298.68858 361.999068 
L 310.524943 335.642705 
L 322.361307 327.735795 
L 334.19767 306.650705 
L 346.034034 273.70525 
L 357.870398 273.70525 
L 369.706761 257.891432 
L 381.543125 263.162705 
L 393.379489 255.255795 
L 405.215852 261.844886 
L 417.052216 243.395432 
L 428.88858 234.170705 
L 440.724943 248.666705 
L 452.561307 251.302341 
L 464.39767 235.488523 
L 476.234034 236.806341 
L 488.070398 243.395432 
L 499.906761 271.069614 
L 511.743125 296.108159 
" style="fill:none;stroke:#4a98c9;stroke-linecap:square;stroke-width:1.5;"/>
   </g>
   <g id="line2d_25">
    <path clip-path="url(#p7754e2eed4)" d="M 121.143125 431.843432 
L 132.979489 422.618705 
L 144.815852 409.440523 
L 156.652216 409.440523 
L 168.48858 405.487068 
L 180.324943 398.897977 
L 192.161307 394.944523 
L 203.99767 387.037614 
L 215.834034 380.448523 
L 227.670398 369.905977 
L 239.506761 367.270341 
L 251.343125 346.18525 
L 263.179489 342.231795 
L 275.015852 336.960523 
L 286.852216 329.053614 
L 298.68858 322.464523 
L 310.524943 323.782341 
L 322.361307 331.68925 
L 334.19767 330.371432 
L 346.034034 309.286341 
L 357.870398 304.015068 
L 369.706761 297.425977 
L 381.543125 286.883432 
L 393.379489 255.255795 
L 405.215852 249.984523 
L 417.052216 259.20925 
L 428.88858 232.852886 
L 440.724943 240.759795 
L 452.561307 218.356886 
L 464.39767 206.496523 
L 476.234034 222.310341 
L 488.070398 219.674705 
L 499.906761 252.620159 
L 511.743125 293.472523 
" style="fill:none;stroke:#4a98c9;stroke-linecap:square;stroke-width:1.5;"/>
   </g>
   <g id="line2d_26">
    <path clip-path="url(#p7754e2eed4)" d="M 121.143125 431.843432 
L 132.979489 427.889977 
L 144.815852 423.936523 
L 156.652216 418.66525 
L 168.48858 421.300886 
L 180.324943 414.711795 
L 192.161307 406.804886 
L 203.99767 394.944523 
L 215.834034 388.355432 
L 227.670398 358.045614 
L 239.506761 360.68125 
L 251.343125 365.952523 
L 263.179489 359.363432 
L 275.015852 342.231795 
L 286.852216 334.324886 
L 298.68858 311.921977 
L 310.524943 302.69725 
L 322.361307 301.379432 
L 334.19767 304.015068 
L 346.034034 304.015068 
L 357.870398 289.519068 
L 369.706761 268.433977 
L 381.543125 275.023068 
L 393.379489 272.387432 
L 405.215852 243.395432 
L 417.052216 251.302341 
L 428.88858 228.899432 
L 440.724943 209.132159 
L 452.561307 197.271795 
L 464.39767 188.047068 
L 476.234034 190.682705 
L 488.070398 226.263795 
L 499.906761 240.759795 
L 511.743125 273.70525 
" style="fill:none;stroke:#4a98c9;stroke-linecap:square;stroke-width:1.5;"/>
   </g>
   <g id="line2d_27">
    <path clip-path="url(#p7754e2eed4)" d="M 121.143125 431.843432 
L 132.979489 430.525614 
L 144.815852 425.254341 
L 156.652216 416.029614 
L 168.48858 405.487068 
L 180.324943 401.533614 
L 192.161307 385.719795 
L 203.99767 371.223795 
L 215.834034 354.092159 
L 227.670398 343.549614 
L 239.506761 344.867432 
L 251.343125 343.549614 
L 263.179489 351.456523 
L 275.015852 342.231795 
L 286.852216 331.68925 
L 298.68858 340.913977 
L 310.524943 327.735795 
L 322.361307 323.782341 
L 334.19767 307.968523 
L 346.034034 281.612159 
L 357.870398 256.573614 
L 369.706761 256.573614 
L 381.543125 247.348886 
L 393.379489 267.116159 
L 405.215852 278.976523 
L 417.052216 278.976523 
L 428.88858 276.340886 
L 440.724943 268.433977 
L 452.561307 238.124159 
L 464.39767 201.22525 
L 476.234034 207.814341 
L 488.070398 194.636159 
L 499.906761 213.085614 
L 511.743125 248.666705 
" style="fill:none;stroke:#4a98c9;stroke-linecap:square;stroke-width:1.5;"/>
   </g>
   <g id="line2d_28">
    <path clip-path="url(#p7754e2eed4)" d="M 121.143125 431.843432 
L 132.979489 425.254341 
L 144.815852 427.889977 
L 156.652216 414.711795 
L 168.48858 394.944523 
L 180.324943 389.67325 
L 192.161307 371.223795 
L 203.99767 363.316886 
L 215.834034 360.68125 
L 227.670398 351.456523 
L 239.506761 352.774341 
L 251.343125 326.417977 
L 263.179489 323.782341 
L 275.015852 319.828886 
L 286.852216 338.278341 
L 298.68858 321.146705 
L 310.524943 333.007068 
L 322.361307 335.642705 
L 334.19767 346.18525 
L 346.034034 342.231795 
L 357.870398 322.464523 
L 369.706761 329.053614 
L 381.543125 309.286341 
L 393.379489 282.929977 
L 405.215852 247.348886 
L 417.052216 235.488523 
L 428.88858 217.039068 
L 440.724943 209.132159 
L 452.561307 182.775795 
L 464.39767 210.449977 
L 476.234034 235.488523 
L 488.070398 256.573614 
L 499.906761 273.70525 
L 511.743125 281.612159 
" style="fill:none;stroke:#4a98c9;stroke-linecap:square;stroke-width:1.5;"/>
   </g>
   <g id="line2d_29">
    <path clip-path="url(#p7754e2eed4)" d="M 121.143125 430.525614 
L 132.979489 422.618705 
L 144.815852 414.711795 
L 156.652216 396.262341 
L 168.48858 398.897977 
L 180.324943 396.262341 
L 192.161307 401.533614 
L 203.99767 384.401977 
L 215.834034 389.67325 
L 227.670398 380.448523 
L 239.506761 369.905977 
L 251.343125 365.952523 
L 263.179489 351.456523 
L 275.015852 336.960523 
L 286.852216 323.782341 
L 298.68858 318.511068 
L 310.524943 307.968523 
L 322.361307 286.883432 
L 334.19767 284.247795 
L 346.034034 285.565614 
L 357.870398 293.472523 
L 369.706761 276.340886 
L 381.543125 277.658705 
L 393.379489 257.891432 
L 405.215852 257.891432 
L 417.052216 256.573614 
L 428.88858 238.124159 
L 440.724943 222.310341 
L 452.561307 205.178705 
L 464.39767 197.271795 
L 476.234034 173.551068 
L 488.070398 214.403432 
L 499.906761 218.356886 
L 511.743125 265.798341 
" style="fill:none;stroke:#4a98c9;stroke-linecap:square;stroke-width:1.5;"/>
   </g>
   <g id="line2d_30">
    <path clip-path="url(#p7754e2eed4)" d="M 121.143125 431.843432 
L 132.979489 422.618705 
L 144.815852 418.66525 
L 156.652216 416.029614 
L 168.48858 406.804886 
L 180.324943 406.804886 
L 192.161307 398.897977 
L 203.99767 392.308886 
L 215.834034 385.719795 
L 227.670398 384.401977 
L 239.506761 375.17725 
L 251.343125 367.270341 
L 263.179489 358.045614 
L 275.015852 348.820886 
L 286.852216 334.324886 
L 298.68858 333.007068 
L 310.524943 344.867432 
L 322.361307 356.727795 
L 334.19767 354.092159 
L 346.034034 347.503068 
L 357.870398 352.774341 
L 369.706761 331.68925 
L 381.543125 321.146705 
L 393.379489 305.332886 
L 405.215852 271.069614 
L 417.052216 285.565614 
L 428.88858 265.798341 
L 440.724943 240.759795 
L 452.561307 228.899432 
L 464.39767 210.449977 
L 476.234034 219.674705 
L 488.070398 218.356886 
L 499.906761 231.535068 
L 511.743125 284.247795 
" style="fill:none;stroke:#4a98c9;stroke-linecap:square;stroke-width:1.5;"/>
   </g>
   <g id="line2d_31">
    <path clip-path="url(#p7754e2eed4)" d="M 121.143125 431.843432 
L 132.979489 426.572159 
L 144.815852 416.029614 
L 156.652216 404.16925 
L 168.48858 396.262341 
L 180.324943 385.719795 
L 192.161307 389.67325 
L 203.99767 375.17725 
L 215.834034 373.859432 
L 227.670398 377.812886 
L 239.506761 360.68125 
L 251.343125 350.138705 
L 263.179489 340.913977 
L 275.015852 336.960523 
L 286.852216 317.19325 
L 298.68858 325.100159 
L 310.524943 309.286341 
L 322.361307 313.239795 
L 334.19767 300.061614 
L 346.034034 297.425977 
L 357.870398 296.108159 
L 369.706761 301.379432 
L 381.543125 296.108159 
L 393.379489 281.612159 
L 405.215852 261.844886 
L 417.052216 242.077614 
L 428.88858 228.899432 
L 440.724943 231.535068 
L 452.561307 234.170705 
L 464.39767 226.263795 
L 476.234034 235.488523 
L 488.070398 251.302341 
L 499.906761 281.612159 
L 511.743125 297.425977 
" style="fill:none;stroke:#4a98c9;stroke-linecap:square;stroke-width:1.5;"/>
   </g>
   <g id="line2d_32">
    <path clip-path="url(#p7754e2eed4)" d="M 121.143125 430.525614 
L 132.979489 417.347432 
L 144.815852 410.758341 
L 156.652216 402.851432 
L 168.48858 392.308886 
L 180.324943 398.897977 
L 192.161307 397.580159 
L 203.99767 394.944523 
L 215.834034 390.991068 
L 227.670398 372.541614 
L 239.506761 358.045614 
L 251.343125 348.820886 
L 263.179489 343.549614 
L 275.015852 338.278341 
L 286.852216 333.007068 
L 298.68858 318.511068 
L 310.524943 310.604159 
L 322.361307 296.108159 
L 334.19767 281.612159 
L 346.034034 286.883432 
L 357.870398 272.387432 
L 369.706761 289.519068 
L 381.543125 294.790341 
L 393.379489 278.976523 
L 405.215852 257.891432 
L 417.052216 249.984523 
L 428.88858 259.20925 
L 440.724943 248.666705 
L 452.561307 248.666705 
L 464.39767 217.039068 
L 476.234034 236.806341 
L 488.070398 251.302341 
L 499.906761 260.527068 
L 511.743125 306.650705 
" style="fill:none;stroke:#4a98c9;stroke-linecap:square;stroke-width:1.5;"/>
   </g>
   <g id="line2d_33">
    <path clip-path="url(#p7754e2eed4)" d="M 121.143125 431.843432 
L 132.979489 418.66525 
L 144.815852 412.076159 
L 156.652216 400.215795 
L 168.48858 385.719795 
L 180.324943 377.812886 
L 192.161307 361.999068 
L 203.99767 358.045614 
L 215.834034 346.18525 
L 227.670398 327.735795 
L 239.506761 323.782341 
L 251.343125 314.557614 
L 263.179489 309.286341 
L 275.015852 286.883432 
L 286.852216 273.70525 
L 298.68858 269.751795 
L 310.524943 259.20925 
L 322.361307 243.395432 
L 334.19767 247.348886 
L 346.034034 231.535068 
L 357.870398 218.356886 
L 369.706761 185.411432 
L 381.543125 190.682705 
L 393.379489 198.589614 
L 405.215852 180.140159 
L 417.052216 173.551068 
L 428.88858 172.23325 
L 440.724943 155.101614 
L 452.561307 132.698705 
L 464.39767 132.698705 
L 476.234034 131.380886 
L 488.070398 164.326341 
L 499.906761 217.039068 
L 511.743125 261.844886 
" style="fill:none;stroke:#d0e1f2;stroke-linecap:square;stroke-width:1.5;"/>
   </g>
   <g id="line2d_34">
    <path clip-path="url(#p7754e2eed4)" d="M 121.143125 429.207795 
L 132.979489 417.347432 
L 144.815852 405.487068 
L 156.652216 393.626705 
L 168.48858 389.67325 
L 180.324943 379.130705 
L 192.161307 371.223795 
L 203.99767 356.727795 
L 215.834034 342.231795 
L 227.670398 334.324886 
L 239.506761 318.511068 
L 251.343125 310.604159 
L 263.179489 323.782341 
L 275.015852 310.604159 
L 286.852216 292.154705 
L 298.68858 268.433977 
L 310.524943 271.069614 
L 322.361307 243.395432 
L 334.19767 222.310341 
L 346.034034 228.899432 
L 357.870398 224.945977 
L 369.706761 206.496523 
L 381.543125 192.000523 
L 393.379489 182.775795 
L 405.215852 180.140159 
L 417.052216 172.23325 
L 428.88858 152.465977 
L 440.724943 132.698705 
L 452.561307 134.016523 
L 464.39767 134.016523 
L 476.234034 152.465977 
L 488.070398 170.915432 
L 499.906761 224.945977 
L 511.743125 302.69725 
" style="fill:none;stroke:#d0e1f2;stroke-linecap:square;stroke-width:1.5;"/>
   </g>
   <g id="line2d_35">
    <path clip-path="url(#p7754e2eed4)" d="M 121.143125 431.843432 
L 132.979489 422.618705 
L 144.815852 408.122705 
L 156.652216 393.626705 
L 168.48858 385.719795 
L 180.324943 379.130705 
L 192.161307 365.952523 
L 203.99767 363.316886 
L 215.834034 346.18525 
L 227.670398 339.596159 
L 239.506761 334.324886 
L 251.343125 305.332886 
L 263.179489 302.69725 
L 275.015852 289.519068 
L 286.852216 281.612159 
L 298.68858 273.70525 
L 310.524943 271.069614 
L 322.361307 267.116159 
L 334.19767 253.937977 
L 346.034034 238.124159 
L 357.870398 220.992523 
L 369.706761 197.271795 
L 381.543125 194.636159 
L 393.379489 176.186705 
L 405.215852 166.961977 
L 417.052216 160.372886 
L 428.88858 144.559068 
L 440.724943 143.24125 
L 452.561307 137.969977 
L 464.39767 160.372886 
L 476.234034 151.148159 
L 488.070398 180.140159 
L 499.906761 213.085614 
L 511.743125 276.340886 
" style="fill:none;stroke:#d0e1f2;stroke-linecap:square;stroke-width:1.5;"/>
   </g>
   <g id="line2d_36">
    <path clip-path="url(#p7754e2eed4)" d="M 121.143125 430.525614 
L 132.979489 419.983068 
L 144.815852 408.122705 
L 156.652216 394.944523 
L 168.48858 381.766341 
L 180.324943 379.130705 
L 192.161307 367.270341 
L 203.99767 356.727795 
L 215.834034 336.960523 
L 227.670398 340.913977 
L 239.506761 326.417977 
L 251.343125 307.968523 
L 263.179489 301.379432 
L 275.015852 289.519068 
L 286.852216 273.70525 
L 298.68858 281.612159 
L 310.524943 263.162705 
L 322.361307 247.348886 
L 334.19767 238.124159 
L 346.034034 236.806341 
L 357.870398 223.628159 
L 369.706761 192.000523 
L 381.543125 186.72925 
L 393.379489 181.457977 
L 405.215852 172.23325 
L 417.052216 165.644159 
L 428.88858 148.512523 
L 440.724943 141.923432 
L 452.561307 148.512523 
L 464.39767 137.969977 
L 476.234034 168.279795 
L 488.070398 185.411432 
L 499.906761 242.077614 
L 511.743125 286.883432 
" style="fill:none;stroke:#d0e1f2;stroke-linecap:square;stroke-width:1.5;"/>
   </g>
   <g id="line2d_37">
    <path clip-path="url(#p7754e2eed4)" d="M 121.143125 430.525614 
L 132.979489 419.983068 
L 144.815852 406.804886 
L 156.652216 394.944523 
L 168.48858 387.037614 
L 180.324943 369.905977 
L 192.161307 359.363432 
L 203.99767 358.045614 
L 215.834034 338.278341 
L 227.670398 330.371432 
L 239.506761 319.828886 
L 251.343125 315.875432 
L 263.179489 297.425977 
L 275.015852 290.836886 
L 286.852216 273.70525 
L 298.68858 271.069614 
L 310.524943 267.116159 
L 322.361307 259.20925 
L 334.19767 252.620159 
L 346.034034 243.395432 
L 357.870398 209.132159 
L 369.706761 199.907432 
L 381.543125 195.953977 
L 393.379489 186.72925 
L 405.215852 189.364886 
L 417.052216 174.868886 
L 428.88858 149.830341 
L 440.724943 155.101614 
L 452.561307 143.24125 
L 464.39767 143.24125 
L 476.234034 135.334341 
L 488.070398 185.411432 
L 499.906761 207.814341 
L 511.743125 271.069614 
" style="fill:none;stroke:#d0e1f2;stroke-linecap:square;stroke-width:1.5;"/>
   </g>
   <g id="line2d_38">
    <path clip-path="url(#p7754e2eed4)" d="M 121.143125 430.525614 
L 132.979489 417.347432 
L 144.815852 405.487068 
L 156.652216 394.944523 
L 168.48858 383.084159 
L 180.324943 369.905977 
L 192.161307 352.774341 
L 203.99767 348.820886 
L 215.834034 342.231795 
L 227.670398 321.146705 
L 239.506761 330.371432 
L 251.343125 315.875432 
L 263.179489 310.604159 
L 275.015852 297.425977 
L 286.852216 294.790341 
L 298.68858 276.340886 
L 310.524943 269.751795 
L 322.361307 244.71325 
L 334.19767 253.937977 
L 346.034034 251.302341 
L 357.870398 218.356886 
L 369.706761 210.449977 
L 381.543125 207.814341 
L 393.379489 194.636159 
L 405.215852 174.868886 
L 417.052216 173.551068 
L 428.88858 148.512523 
L 440.724943 164.326341 
L 452.561307 155.101614 
L 464.39767 135.334341 
L 476.234034 127.427432 
L 488.070398 170.915432 
L 499.906761 206.496523 
L 511.743125 275.023068 
" style="fill:none;stroke:#d0e1f2;stroke-linecap:square;stroke-width:1.5;"/>
   </g>
   <g id="line2d_39">
    <path clip-path="url(#p7754e2eed4)" d="M 121.143125 430.525614 
L 132.979489 417.347432 
L 144.815852 406.804886 
L 156.652216 393.626705 
L 168.48858 381.766341 
L 180.324943 379.130705 
L 192.161307 372.541614 
L 203.99767 358.045614 
L 215.834034 351.456523 
L 227.670398 331.68925 
L 239.506761 330.371432 
L 251.343125 327.735795 
L 263.179489 309.286341 
L 275.015852 300.061614 
L 286.852216 281.612159 
L 298.68858 281.612159 
L 310.524943 268.433977 
L 322.361307 257.891432 
L 334.19767 234.170705 
L 346.034034 230.21725 
L 357.870398 223.628159 
L 369.706761 218.356886 
L 381.543125 209.132159 
L 393.379489 189.364886 
L 405.215852 186.72925 
L 417.052216 168.279795 
L 428.88858 159.055068 
L 440.724943 156.419432 
L 452.561307 144.559068 
L 464.39767 127.427432 
L 476.234034 140.605614 
L 488.070398 156.419432 
L 499.906761 188.047068 
L 511.743125 251.302341 
" style="fill:none;stroke:#d0e1f2;stroke-linecap:square;stroke-width:1.5;"/>
   </g>
   <g id="line2d_40">
    <path clip-path="url(#p7754e2eed4)" d="M 121.143125 430.525614 
L 132.979489 422.618705 
L 144.815852 409.440523 
L 156.652216 397.580159 
L 168.48858 384.401977 
L 180.324943 380.448523 
L 192.161307 367.270341 
L 203.99767 351.456523 
L 215.834034 347.503068 
L 227.670398 331.68925 
L 239.506761 331.68925 
L 251.343125 306.650705 
L 263.179489 304.015068 
L 275.015852 289.519068 
L 286.852216 282.929977 
L 298.68858 260.527068 
L 310.524943 264.480523 
L 322.361307 242.077614 
L 334.19767 243.395432 
L 346.034034 228.899432 
L 357.870398 230.21725 
L 369.706761 199.907432 
L 381.543125 201.22525 
L 393.379489 170.915432 
L 405.215852 170.915432 
L 417.052216 170.915432 
L 428.88858 163.008523 
L 440.724943 139.287795 
L 452.561307 124.791795 
L 464.39767 119.520523 
L 476.234034 137.969977 
L 488.070398 177.504523 
L 499.906761 218.356886 
L 511.743125 305.332886 
" style="fill:none;stroke:#d0e1f2;stroke-linecap:square;stroke-width:1.5;"/>
   </g>
   <g id="line2d_41">
    <path clip-path="url(#p7754e2eed4)" d="M 121.143125 430.525614 
L 132.979489 418.66525 
L 144.815852 410.758341 
L 156.652216 392.308886 
L 168.48858 383.084159 
L 180.324943 369.905977 
L 192.161307 360.68125 
L 203.99767 348.820886 
L 215.834034 346.18525 
L 227.670398 340.913977 
L 239.506761 322.464523 
L 251.343125 317.19325 
L 263.179489 305.332886 
L 275.015852 294.790341 
L 286.852216 271.069614 
L 298.68858 282.929977 
L 310.524943 255.255795 
L 322.361307 253.937977 
L 334.19767 255.255795 
L 346.034034 232.852886 
L 357.870398 227.581614 
L 369.706761 213.085614 
L 381.543125 205.178705 
L 393.379489 188.047068 
L 405.215852 173.551068 
L 417.052216 166.961977 
L 428.88858 161.690705 
L 440.724943 143.24125 
L 452.561307 134.016523 
L 464.39767 135.334341 
L 476.234034 152.465977 
L 488.070398 182.775795 
L 499.906761 227.581614 
L 511.743125 288.20125 
" style="fill:none;stroke:#d0e1f2;stroke-linecap:square;stroke-width:1.5;"/>
   </g>
   <g id="line2d_42">
    <path clip-path="url(#p7754e2eed4)" d="M 121.143125 429.207795 
L 132.979489 416.029614 
L 144.815852 406.804886 
L 156.652216 394.944523 
L 168.48858 376.495068 
L 180.324943 376.495068 
L 192.161307 375.17725 
L 203.99767 355.409977 
L 215.834034 356.727795 
L 227.670398 334.324886 
L 239.506761 327.735795 
L 251.343125 322.464523 
L 263.179489 307.968523 
L 275.015852 292.154705 
L 286.852216 276.340886 
L 298.68858 273.70525 
L 310.524943 252.620159 
L 322.361307 246.031068 
L 334.19767 234.170705 
L 346.034034 214.403432 
L 357.870398 197.271795 
L 369.706761 207.814341 
L 381.543125 206.496523 
L 393.379489 173.551068 
L 405.215852 169.597614 
L 417.052216 166.961977 
L 428.88858 159.055068 
L 440.724943 136.652159 
L 452.561307 136.652159 
L 464.39767 135.334341 
L 476.234034 159.055068 
L 488.070398 182.775795 
L 499.906761 248.666705 
L 511.743125 311.921977 
" style="fill:none;stroke:#d0e1f2;stroke-linecap:square;stroke-width:1.5;"/>
   </g>
   <g id="line2d_43">
    <path clip-path="url(#p7754e2eed4)" d="M 121.143125 431.843432 
L 132.979489 430.525614 
L 144.815852 431.843432 
L 156.652216 430.525614 
L 168.48858 433.16125 
L 180.324943 429.207795 
L 192.161307 422.618705 
L 203.99767 412.076159 
L 215.834034 413.393977 
L 227.670398 398.897977 
L 239.506761 393.626705 
L 251.343125 392.308886 
L 263.179489 402.851432 
L 275.015852 413.393977 
L 286.852216 413.393977 
L 298.68858 410.758341 
L 310.524943 409.440523 
L 322.361307 404.16925 
L 334.19767 408.122705 
L 346.034034 400.215795 
L 357.870398 394.944523 
L 369.706761 384.401977 
L 381.543125 384.401977 
L 393.379489 385.719795 
L 405.215852 379.130705 
L 417.052216 380.448523 
L 428.88858 351.456523 
L 440.724943 352.774341 
L 452.561307 356.727795 
L 464.39767 351.456523 
L 476.234034 327.735795 
L 488.070398 326.417977 
L 499.906761 336.960523 
L 511.743125 321.146705 
" style="fill:none;stroke:#1764ab;stroke-linecap:square;stroke-width:1.5;"/>
   </g>
   <g id="line2d_44">
    <path clip-path="url(#p7754e2eed4)" d="M 121.143125 433.16125 
L 132.979489 431.843432 
L 144.815852 430.525614 
L 156.652216 425.254341 
L 168.48858 423.936523 
L 180.324943 418.66525 
L 192.161307 409.440523 
L 203.99767 409.440523 
L 215.834034 405.487068 
L 227.670398 408.122705 
L 239.506761 417.347432 
L 251.343125 421.300886 
L 263.179489 426.572159 
L 275.015852 425.254341 
L 286.852216 417.347432 
L 298.68858 422.618705 
L 310.524943 418.66525 
L 322.361307 410.758341 
L 334.19767 409.440523 
L 346.034034 393.626705 
L 357.870398 384.401977 
L 369.706761 383.084159 
L 381.543125 385.719795 
L 393.379489 388.355432 
L 405.215852 385.719795 
L 417.052216 371.223795 
L 428.88858 355.409977 
L 440.724943 344.867432 
L 452.561307 346.18525 
L 464.39767 334.324886 
L 476.234034 343.549614 
L 488.070398 333.007068 
L 499.906761 348.820886 
L 511.743125 336.960523 
" style="fill:none;stroke:#1764ab;stroke-linecap:square;stroke-width:1.5;"/>
   </g>
   <g id="line2d_45">
    <path clip-path="url(#p7754e2eed4)" d="M 121.143125 431.843432 
L 132.979489 427.889977 
L 144.815852 422.618705 
L 156.652216 419.983068 
L 168.48858 416.029614 
L 180.324943 422.618705 
L 192.161307 418.66525 
L 203.99767 418.66525 
L 215.834034 416.029614 
L 227.670398 418.66525 
L 239.506761 418.66525 
L 251.343125 417.347432 
L 263.179489 413.393977 
L 275.015852 400.215795 
L 286.852216 397.580159 
L 298.68858 396.262341 
L 310.524943 400.215795 
L 322.361307 402.851432 
L 334.19767 402.851432 
L 346.034034 392.308886 
L 357.870398 380.448523 
L 369.706761 381.766341 
L 381.543125 376.495068 
L 393.379489 372.541614 
L 405.215852 381.766341 
L 417.052216 379.130705 
L 428.88858 390.991068 
L 440.724943 392.308886 
L 452.561307 397.580159 
L 464.39767 375.17725 
L 476.234034 372.541614 
L 488.070398 367.270341 
L 499.906761 350.138705 
L 511.743125 347.503068 
" style="fill:none;stroke:#1764ab;stroke-linecap:square;stroke-width:1.5;"/>
   </g>
   <g id="line2d_46">
    <path clip-path="url(#p7754e2eed4)" d="M 121.143125 431.843432 
L 132.979489 426.572159 
L 144.815852 426.572159 
L 156.652216 426.572159 
L 168.48858 426.572159 
L 180.324943 429.207795 
L 192.161307 426.572159 
L 203.99767 419.983068 
L 215.834034 419.983068 
L 227.670398 417.347432 
L 239.506761 414.711795 
L 251.343125 412.076159 
L 263.179489 400.215795 
L 275.015852 417.347432 
L 286.852216 401.533614 
L 298.68858 401.533614 
L 310.524943 394.944523 
L 322.361307 404.16925 
L 334.19767 398.897977 
L 346.034034 400.215795 
L 357.870398 390.991068 
L 369.706761 388.355432 
L 381.543125 394.944523 
L 393.379489 394.944523 
L 405.215852 393.626705 
L 417.052216 389.67325 
L 428.88858 383.084159 
L 440.724943 375.17725 
L 452.561307 369.905977 
L 464.39767 373.859432 
L 476.234034 368.588159 
L 488.070398 367.270341 
L 499.906761 376.495068 
L 511.743125 368.588159 
" style="fill:none;stroke:#1764ab;stroke-linecap:square;stroke-width:1.5;"/>
   </g>
   <g id="line2d_47">
    <path clip-path="url(#p7754e2eed4)" d="M 121.143125 433.16125 
L 132.979489 433.16125 
L 144.815852 433.16125 
L 156.652216 433.16125 
L 168.48858 433.16125 
L 180.324943 429.207795 
L 192.161307 429.207795 
L 203.99767 422.618705 
L 215.834034 405.487068 
L 227.670398 390.991068 
L 239.506761 398.897977 
L 251.343125 394.944523 
L 263.179489 394.944523 
L 275.015852 394.944523 
L 286.852216 402.851432 
L 298.68858 413.393977 
L 310.524943 423.936523 
L 322.361307 421.300886 
L 334.19767 409.440523 
L 346.034034 396.262341 
L 357.870398 404.16925 
L 369.706761 401.533614 
L 381.543125 380.448523 
L 393.379489 390.991068 
L 405.215852 389.67325 
L 417.052216 393.626705 
L 428.88858 396.262341 
L 440.724943 398.897977 
L 452.561307 392.308886 
L 464.39767 384.401977 
L 476.234034 371.223795 
L 488.070398 368.588159 
L 499.906761 367.270341 
L 511.743125 351.456523 
" style="fill:none;stroke:#1764ab;stroke-linecap:square;stroke-width:1.5;"/>
   </g>
   <g id="line2d_48">
    <path clip-path="url(#p7754e2eed4)" d="M 121.143125 433.16125 
L 132.979489 433.16125 
L 144.815852 431.843432 
L 156.652216 429.207795 
L 168.48858 423.936523 
L 180.324943 418.66525 
L 192.161307 404.16925 
L 203.99767 384.401977 
L 215.834034 383.084159 
L 227.670398 383.084159 
L 239.506761 402.851432 
L 251.343125 405.487068 
L 263.179489 405.487068 
L 275.015852 405.487068 
L 286.852216 404.16925 
L 298.68858 408.122705 
L 310.524943 417.347432 
L 322.361307 408.122705 
L 334.19767 412.076159 
L 346.034034 401.533614 
L 357.870398 394.944523 
L 369.706761 401.533614 
L 381.543125 405.487068 
L 393.379489 405.487068 
L 405.215852 390.991068 
L 417.052216 393.626705 
L 428.88858 375.17725 
L 440.724943 368.588159 
L 452.561307 354.092159 
L 464.39767 347.503068 
L 476.234034 359.363432 
L 488.070398 352.774341 
L 499.906761 359.363432 
L 511.743125 352.774341 
" style="fill:none;stroke:#1764ab;stroke-linecap:square;stroke-width:1.5;"/>
   </g>
   <g id="line2d_49">
    <path clip-path="url(#p7754e2eed4)" d="M 121.143125 433.16125 
L 132.979489 427.889977 
L 144.815852 419.983068 
L 156.652216 418.66525 
L 168.48858 416.029614 
L 180.324943 417.347432 
L 192.161307 423.936523 
L 203.99767 425.254341 
L 215.834034 430.525614 
L 227.670398 423.936523 
L 239.506761 425.254341 
L 251.343125 421.300886 
L 263.179489 421.300886 
L 275.015852 423.936523 
L 286.852216 410.758341 
L 298.68858 406.804886 
L 310.524943 401.533614 
L 322.361307 392.308886 
L 334.19767 392.308886 
L 346.034034 398.897977 
L 357.870398 405.487068 
L 369.706761 392.308886 
L 381.543125 398.897977 
L 393.379489 409.440523 
L 405.215852 398.897977 
L 417.052216 398.897977 
L 428.88858 392.308886 
L 440.724943 409.440523 
L 452.561307 376.495068 
L 464.39767 365.952523 
L 476.234034 348.820886 
L 488.070398 344.867432 
L 499.906761 351.456523 
L 511.743125 358.045614 
" style="fill:none;stroke:#1764ab;stroke-linecap:square;stroke-width:1.5;"/>
   </g>
   <g id="line2d_50">
    <path clip-path="url(#p7754e2eed4)" d="M 121.143125 433.16125 
L 132.979489 433.16125 
L 144.815852 433.16125 
L 156.652216 433.16125 
L 168.48858 433.16125 
L 180.324943 433.16125 
L 192.161307 433.16125 
L 203.99767 431.843432 
L 215.834034 430.525614 
L 227.670398 431.843432 
L 239.506761 427.889977 
L 251.343125 421.300886 
L 263.179489 419.983068 
L 275.015852 417.347432 
L 286.852216 406.804886 
L 298.68858 400.215795 
L 310.524943 396.262341 
L 322.361307 404.16925 
L 334.19767 401.533614 
L 346.034034 397.580159 
L 357.870398 400.215795 
L 369.706761 385.719795 
L 381.543125 381.766341 
L 393.379489 369.905977 
L 405.215852 375.17725 
L 417.052216 381.766341 
L 428.88858 392.308886 
L 440.724943 385.719795 
L 452.561307 372.541614 
L 464.39767 375.17725 
L 476.234034 352.774341 
L 488.070398 342.231795 
L 499.906761 354.092159 
L 511.743125 336.960523 
" style="fill:none;stroke:#1764ab;stroke-linecap:square;stroke-width:1.5;"/>
   </g>
   <g id="line2d_51">
    <path clip-path="url(#p7754e2eed4)" d="M 121.143125 433.16125 
L 132.979489 430.525614 
L 144.815852 419.983068 
L 156.652216 416.029614 
L 168.48858 412.076159 
L 180.324943 405.487068 
L 192.161307 408.122705 
L 203.99767 413.393977 
L 215.834034 413.393977 
L 227.670398 412.076159 
L 239.506761 412.076159 
L 251.343125 409.440523 
L 263.179489 400.215795 
L 275.015852 405.487068 
L 286.852216 400.215795 
L 298.68858 409.440523 
L 310.524943 414.711795 
L 322.361307 401.533614 
L 334.19767 394.944523 
L 346.034034 401.533614 
L 357.870398 388.355432 
L 369.706761 394.944523 
L 381.543125 383.084159 
L 393.379489 389.67325 
L 405.215852 383.084159 
L 417.052216 379.130705 
L 428.88858 377.812886 
L 440.724943 373.859432 
L 452.561307 351.456523 
L 464.39767 356.727795 
L 476.234034 347.503068 
L 488.070398 352.774341 
L 499.906761 361.999068 
L 511.743125 347.503068 
" style="fill:none;stroke:#1764ab;stroke-linecap:square;stroke-width:1.5;"/>
   </g>
   <g id="line2d_52">
    <path clip-path="url(#p7754e2eed4)" d="M 121.143125 433.16125 
L 132.979489 430.525614 
L 144.815852 419.983068 
L 156.652216 414.711795 
L 168.48858 417.347432 
L 180.324943 417.347432 
L 192.161307 426.572159 
L 203.99767 429.207795 
L 215.834034 427.889977 
L 227.670398 418.66525 
L 239.506761 410.758341 
L 251.343125 404.16925 
L 263.179489 396.262341 
L 275.015852 406.804886 
L 286.852216 397.580159 
L 298.68858 400.215795 
L 310.524943 400.215795 
L 322.361307 385.719795 
L 334.19767 384.401977 
L 346.034034 377.812886 
L 357.870398 400.215795 
L 369.706761 401.533614 
L 381.543125 404.16925 
L 393.379489 401.533614 
L 405.215852 383.084159 
L 417.052216 387.037614 
L 428.88858 387.037614 
L 440.724943 398.897977 
L 452.561307 393.626705 
L 464.39767 401.533614 
L 476.234034 387.037614 
L 488.070398 372.541614 
L 499.906761 363.316886 
L 511.743125 361.999068 
" style="fill:none;stroke:#1764ab;stroke-linecap:square;stroke-width:1.5;"/>
   </g>
   <g id="line2d_53">
    <path clip-path="url(#p7754e2eed4)" d="M 121.143125 431.843432 
L 132.979489 419.983068 
L 144.815852 412.076159 
L 156.652216 398.897977 
L 168.48858 388.355432 
L 180.324943 381.766341 
L 192.161307 379.130705 
L 203.99767 369.905977 
L 215.834034 352.774341 
L 227.670398 338.278341 
L 239.506761 340.913977 
L 251.343125 323.782341 
L 263.179489 315.875432 
L 275.015852 309.286341 
L 286.852216 310.604159 
L 298.68858 292.154705 
L 310.524943 275.023068 
L 322.361307 275.023068 
L 334.19767 264.480523 
L 346.034034 256.573614 
L 357.870398 235.488523 
L 369.706761 219.674705 
L 381.543125 227.581614 
L 393.379489 199.907432 
L 405.215852 185.411432 
L 417.052216 172.23325 
L 428.88858 172.23325 
L 440.724943 159.055068 
L 452.561307 148.512523 
L 464.39767 144.559068 
L 476.234034 156.419432 
L 488.070398 182.775795 
L 499.906761 240.759795 
L 511.743125 264.480523 
" style="fill:none;stroke:#94c4df;stroke-linecap:square;stroke-width:1.5;"/>
   </g>
   <g id="line2d_54">
    <path clip-path="url(#p7754e2eed4)" d="M 121.143125 429.207795 
L 132.979489 418.66525 
L 144.815852 406.804886 
L 156.652216 394.944523 
L 168.48858 389.67325 
L 180.324943 385.719795 
L 192.161307 373.859432 
L 203.99767 373.859432 
L 215.834034 361.999068 
L 227.670398 351.456523 
L 239.506761 336.960523 
L 251.343125 336.960523 
L 263.179489 330.371432 
L 275.015852 336.960523 
L 286.852216 327.735795 
L 298.68858 288.20125 
L 310.524943 289.519068 
L 322.361307 268.433977 
L 334.19767 249.984523 
L 346.034034 247.348886 
L 357.870398 253.937977 
L 369.706761 236.806341 
L 381.543125 231.535068 
L 393.379489 228.899432 
L 405.215852 218.356886 
L 417.052216 188.047068 
L 428.88858 190.682705 
L 440.724943 174.868886 
L 452.561307 182.775795 
L 464.39767 169.597614 
L 476.234034 180.140159 
L 488.070398 188.047068 
L 499.906761 234.170705 
L 511.743125 285.565614 
" style="fill:none;stroke:#94c4df;stroke-linecap:square;stroke-width:1.5;"/>
   </g>
   <g id="line2d_55">
    <path clip-path="url(#p7754e2eed4)" d="M 121.143125 431.843432 
L 132.979489 421.300886 
L 144.815852 410.758341 
L 156.652216 396.262341 
L 168.48858 393.626705 
L 180.324943 377.812886 
L 192.161307 379.130705 
L 203.99767 359.363432 
L 215.834034 350.138705 
L 227.670398 335.642705 
L 239.506761 326.417977 
L 251.343125 322.464523 
L 263.179489 304.015068 
L 275.015852 307.968523 
L 286.852216 294.790341 
L 298.68858 296.108159 
L 310.524943 288.20125 
L 322.361307 290.836886 
L 334.19767 268.433977 
L 346.034034 272.387432 
L 357.870398 247.348886 
L 369.706761 240.759795 
L 381.543125 209.132159 
L 393.379489 207.814341 
L 405.215852 210.449977 
L 417.052216 186.72925 
L 428.88858 174.868886 
L 440.724943 152.465977 
L 452.561307 145.876886 
L 464.39767 161.690705 
L 476.234034 166.961977 
L 488.070398 192.000523 
L 499.906761 235.488523 
L 511.743125 288.20125 
" style="fill:none;stroke:#94c4df;stroke-linecap:square;stroke-width:1.5;"/>
   </g>
   <g id="line2d_56">
    <path clip-path="url(#p7754e2eed4)" d="M 121.143125 430.525614 
L 132.979489 422.618705 
L 144.815852 408.122705 
L 156.652216 397.580159 
L 168.48858 387.037614 
L 180.324943 392.308886 
L 192.161307 379.130705 
L 203.99767 376.495068 
L 215.834034 354.092159 
L 227.670398 343.549614 
L 239.506761 329.053614 
L 251.343125 311.921977 
L 263.179489 307.968523 
L 275.015852 281.612159 
L 286.852216 284.247795 
L 298.68858 269.751795 
L 310.524943 267.116159 
L 322.361307 243.395432 
L 334.19767 243.395432 
L 346.034034 249.984523 
L 357.870398 226.263795 
L 369.706761 210.449977 
L 381.543125 209.132159 
L 393.379489 188.047068 
L 405.215852 164.326341 
L 417.052216 174.868886 
L 428.88858 182.775795 
L 440.724943 176.186705 
L 452.561307 172.23325 
L 464.39767 180.140159 
L 476.234034 190.682705 
L 488.070398 217.039068 
L 499.906761 238.124159 
L 511.743125 289.519068 
" style="fill:none;stroke:#94c4df;stroke-linecap:square;stroke-width:1.5;"/>
   </g>
   <g id="line2d_57">
    <path clip-path="url(#p7754e2eed4)" d="M 121.143125 433.16125 
L 132.979489 430.525614 
L 144.815852 423.936523 
L 156.652216 418.66525 
L 168.48858 396.262341 
L 180.324943 379.130705 
L 192.161307 363.316886 
L 203.99767 355.409977 
L 215.834034 340.913977 
L 227.670398 346.18525 
L 239.506761 336.960523 
L 251.343125 333.007068 
L 263.179489 326.417977 
L 275.015852 323.782341 
L 286.852216 306.650705 
L 298.68858 294.790341 
L 310.524943 281.612159 
L 322.361307 268.433977 
L 334.19767 248.666705 
L 346.034034 259.20925 
L 357.870398 235.488523 
L 369.706761 231.535068 
L 381.543125 238.124159 
L 393.379489 243.395432 
L 405.215852 240.759795 
L 417.052216 226.263795 
L 428.88858 210.449977 
L 440.724943 209.132159 
L 452.561307 169.597614 
L 464.39767 165.644159 
L 476.234034 143.24125 
L 488.070398 190.682705 
L 499.906761 214.403432 
L 511.743125 256.573614 
" style="fill:none;stroke:#94c4df;stroke-linecap:square;stroke-width:1.5;"/>
   </g>
   <g id="line2d_58">
    <path clip-path="url(#p7754e2eed4)" d="M 121.143125 430.525614 
L 132.979489 423.936523 
L 144.815852 413.393977 
L 156.652216 404.16925 
L 168.48858 393.626705 
L 180.324943 369.905977 
L 192.161307 359.363432 
L 203.99767 348.820886 
L 215.834034 343.549614 
L 227.670398 330.371432 
L 239.506761 326.417977 
L 251.343125 310.604159 
L 263.179489 317.19325 
L 275.015852 315.875432 
L 286.852216 297.425977 
L 298.68858 302.69725 
L 310.524943 298.743795 
L 322.361307 294.790341 
L 334.19767 292.154705 
L 346.034034 278.976523 
L 357.870398 269.751795 
L 369.706761 261.844886 
L 381.543125 239.441977 
L 393.379489 228.899432 
L 405.215852 215.72125 
L 417.052216 194.636159 
L 428.88858 186.72925 
L 440.724943 189.364886 
L 452.561307 178.822341 
L 464.39767 185.411432 
L 476.234034 186.72925 
L 488.070398 206.496523 
L 499.906761 231.535068 
L 511.743125 281.612159 
" style="fill:none;stroke:#94c4df;stroke-linecap:square;stroke-width:1.5;"/>
   </g>
   <g id="line2d_59">
    <path clip-path="url(#p7754e2eed4)" d="M 121.143125 430.525614 
L 132.979489 416.029614 
L 144.815852 409.440523 
L 156.652216 398.897977 
L 168.48858 394.944523 
L 180.324943 388.355432 
L 192.161307 380.448523 
L 203.99767 365.952523 
L 215.834034 358.045614 
L 227.670398 334.324886 
L 239.506761 326.417977 
L 251.343125 323.782341 
L 263.179489 301.379432 
L 275.015852 293.472523 
L 286.852216 290.836886 
L 298.68858 280.294341 
L 310.524943 272.387432 
L 322.361307 272.387432 
L 334.19767 261.844886 
L 346.034034 228.899432 
L 357.870398 257.891432 
L 369.706761 234.170705 
L 381.543125 240.759795 
L 393.379489 192.000523 
L 405.215852 199.907432 
L 417.052216 176.186705 
L 428.88858 159.055068 
L 440.724943 156.419432 
L 452.561307 143.24125 
L 464.39767 126.109614 
L 476.234034 141.923432 
L 488.070398 173.551068 
L 499.906761 192.000523 
L 511.743125 249.984523 
" style="fill:none;stroke:#94c4df;stroke-linecap:square;stroke-width:1.5;"/>
   </g>
   <g id="line2d_60">
    <path clip-path="url(#p7754e2eed4)" d="M 121.143125 431.843432 
L 132.979489 422.618705 
L 144.815852 409.440523 
L 156.652216 405.487068 
L 168.48858 393.626705 
L 180.324943 392.308886 
L 192.161307 387.037614 
L 203.99767 376.495068 
L 215.834034 372.541614 
L 227.670398 355.409977 
L 239.506761 350.138705 
L 251.343125 330.371432 
L 263.179489 319.828886 
L 275.015852 294.790341 
L 286.852216 296.108159 
L 298.68858 278.976523 
L 310.524943 265.798341 
L 322.361307 259.20925 
L 334.19767 259.20925 
L 346.034034 242.077614 
L 357.870398 230.21725 
L 369.706761 205.178705 
L 381.543125 222.310341 
L 393.379489 203.860886 
L 405.215852 218.356886 
L 417.052216 239.441977 
L 428.88858 238.124159 
L 440.724943 218.356886 
L 452.561307 194.636159 
L 464.39767 165.644159 
L 476.234034 176.186705 
L 488.070398 194.636159 
L 499.906761 224.945977 
L 511.743125 296.108159 
" style="fill:none;stroke:#94c4df;stroke-linecap:square;stroke-width:1.5;"/>
   </g>
   <g id="line2d_61">
    <path clip-path="url(#p7754e2eed4)" d="M 121.143125 430.525614 
L 132.979489 418.66525 
L 144.815852 408.122705 
L 156.652216 396.262341 
L 168.48858 384.401977 
L 180.324943 372.541614 
L 192.161307 365.952523 
L 203.99767 358.045614 
L 215.834034 358.045614 
L 227.670398 350.138705 
L 239.506761 336.960523 
L 251.343125 329.053614 
L 263.179489 339.596159 
L 275.015852 331.68925 
L 286.852216 310.604159 
L 298.68858 321.146705 
L 310.524943 298.743795 
L 322.361307 284.247795 
L 334.19767 292.154705 
L 346.034034 273.70525 
L 357.870398 259.20925 
L 369.706761 242.077614 
L 381.543125 232.852886 
L 393.379489 217.039068 
L 405.215852 201.22525 
L 417.052216 188.047068 
L 428.88858 188.047068 
L 440.724943 190.682705 
L 452.561307 164.326341 
L 464.39767 164.326341 
L 476.234034 165.644159 
L 488.070398 189.364886 
L 499.906761 251.302341 
L 511.743125 282.929977 
" style="fill:none;stroke:#94c4df;stroke-linecap:square;stroke-width:1.5;"/>
   </g>
   <g id="line2d_62">
    <path clip-path="url(#p7754e2eed4)" d="M 121.143125 430.525614 
L 132.979489 418.66525 
L 144.815852 410.758341 
L 156.652216 397.580159 
L 168.48858 387.037614 
L 180.324943 383.084159 
L 192.161307 379.130705 
L 203.99767 377.812886 
L 215.834034 375.17725 
L 227.670398 371.223795 
L 239.506761 364.634705 
L 251.343125 352.774341 
L 263.179489 340.913977 
L 275.015852 321.146705 
L 286.852216 311.921977 
L 298.68858 288.20125 
L 310.524943 292.154705 
L 322.361307 277.658705 
L 334.19767 275.023068 
L 346.034034 253.937977 
L 357.870398 253.937977 
L 369.706761 239.441977 
L 381.543125 232.852886 
L 393.379489 222.310341 
L 405.215852 205.178705 
L 417.052216 203.860886 
L 428.88858 205.178705 
L 440.724943 186.72925 
L 452.561307 190.682705 
L 464.39767 185.411432 
L 476.234034 201.22525 
L 488.070398 224.945977 
L 499.906761 265.798341 
L 511.743125 307.968523 
" style="fill:none;stroke:#94c4df;stroke-linecap:square;stroke-width:1.5;"/>
   </g>
   <g id="line2d_63">
    <path clip-path="url(#p7754e2eed4)" d="M 121.143125 431.843432 
L 132.979489 419.983068 
L 144.815852 405.487068 
L 156.652216 397.580159 
L 168.48858 381.766341 
L 180.324943 367.270341 
L 192.161307 352.774341 
L 203.99767 340.913977 
L 215.834034 322.464523 
L 227.670398 318.511068 
L 239.506761 309.286341 
L 251.343125 304.015068 
L 263.179489 268.433977 
L 275.015852 273.70525 
L 286.852216 257.891432 
L 298.68858 224.945977 
L 310.524943 234.170705 
L 322.361307 222.310341 
L 334.19767 205.178705 
L 346.034034 185.411432 
L 357.870398 189.364886 
L 369.706761 168.279795 
L 381.543125 170.915432 
L 393.379489 160.372886 
L 405.215852 139.287795 
L 417.052216 119.520523 
L 428.88858 132.698705 
L 440.724943 101.071068 
L 452.561307 70.76125 
L 464.39767 97.117614 
L 476.234034 112.931432 
L 488.070398 143.24125 
L 499.906761 228.899432 
L 511.743125 314.557614 
" style="fill:none;stroke:#000000;stroke-linecap:square;stroke-width:1.5;"/>
   </g>
   <g id="line2d_64">
    <path clip-path="url(#p7754e2eed4)" d="M 121.143125 430.525614 
L 132.979489 418.66525 
L 144.815852 405.487068 
L 156.652216 392.308886 
L 168.48858 384.401977 
L 180.324943 375.17725 
L 192.161307 363.316886 
L 203.99767 339.596159 
L 215.834034 333.007068 
L 227.670398 326.417977 
L 239.506761 309.286341 
L 251.343125 296.108159 
L 263.179489 281.612159 
L 275.015852 281.612159 
L 286.852216 264.480523 
L 298.68858 242.077614 
L 310.524943 246.031068 
L 322.361307 232.852886 
L 334.19767 210.449977 
L 346.034034 185.411432 
L 357.870398 195.953977 
L 369.706761 170.915432 
L 381.543125 157.73725 
L 393.379489 148.512523 
L 405.215852 151.148159 
L 417.052216 122.156159 
L 428.88858 103.706705 
L 440.724943 105.024523 
L 452.561307 89.210705 
L 464.39767 111.613614 
L 476.234034 114.24925 
L 488.070398 163.008523 
L 499.906761 218.356886 
L 511.743125 358.045614 
" style="fill:none;stroke:#000000;stroke-linecap:square;stroke-width:1.5;"/>
   </g>
   <g id="line2d_65">
    <path clip-path="url(#p7754e2eed4)" d="M 121.143125 431.843432 
L 132.979489 421.300886 
L 144.815852 405.487068 
L 156.652216 394.944523 
L 168.48858 379.130705 
L 180.324943 373.859432 
L 192.161307 358.045614 
L 203.99767 342.231795 
L 215.834034 329.053614 
L 227.670398 323.782341 
L 239.506761 311.921977 
L 251.343125 289.519068 
L 263.179489 268.433977 
L 275.015852 263.162705 
L 286.852216 253.937977 
L 298.68858 249.984523 
L 310.524943 242.077614 
L 322.361307 243.395432 
L 334.19767 213.085614 
L 346.034034 194.636159 
L 357.870398 181.457977 
L 369.706761 181.457977 
L 381.543125 161.690705 
L 393.379489 130.063068 
L 405.215852 136.652159 
L 417.052216 118.202705 
L 428.88858 98.435432 
L 440.724943 91.846341 
L 452.561307 90.528523 
L 464.39767 112.931432 
L 476.234034 103.706705 
L 488.070398 143.24125 
L 499.906761 224.945977 
L 511.743125 344.867432 
" style="fill:none;stroke:#000000;stroke-linecap:square;stroke-width:1.5;"/>
   </g>
   <g id="line2d_66">
    <path clip-path="url(#p7754e2eed4)" d="M 121.143125 430.525614 
L 132.979489 417.347432 
L 144.815852 404.16925 
L 156.652216 393.626705 
L 168.48858 377.812886 
L 180.324943 365.952523 
L 192.161307 354.092159 
L 203.99767 335.642705 
L 215.834034 329.053614 
L 227.670398 323.782341 
L 239.506761 306.650705 
L 251.343125 297.425977 
L 263.179489 289.519068 
L 275.015852 259.20925 
L 286.852216 248.666705 
L 298.68858 251.302341 
L 310.524943 228.899432 
L 322.361307 226.263795 
L 334.19767 211.767795 
L 346.034034 217.039068 
L 357.870398 188.047068 
L 369.706761 163.008523 
L 381.543125 164.326341 
L 393.379489 140.605614 
L 405.215852 122.156159 
L 417.052216 131.380886 
L 428.88858 116.884886 
L 440.724943 105.024523 
L 452.561307 119.520523 
L 464.39767 102.388886 
L 476.234034 127.427432 
L 488.070398 164.326341 
L 499.906761 243.395432 
L 511.743125 338.278341 
" style="fill:none;stroke:#000000;stroke-linecap:square;stroke-width:1.5;"/>
   </g>
   <g id="line2d_67">
    <path clip-path="url(#p7754e2eed4)" d="M 121.143125 430.525614 
L 132.979489 416.029614 
L 144.815852 402.851432 
L 156.652216 393.626705 
L 168.48858 384.401977 
L 180.324943 368.588159 
L 192.161307 359.363432 
L 203.99767 350.138705 
L 215.834034 330.371432 
L 227.670398 313.239795 
L 239.506761 301.379432 
L 251.343125 294.790341 
L 263.179489 282.929977 
L 275.015852 276.340886 
L 286.852216 263.162705 
L 298.68858 244.71325 
L 310.524943 236.806341 
L 322.361307 215.72125 
L 334.19767 203.860886 
L 346.034034 193.318341 
L 357.870398 184.093614 
L 369.706761 184.093614 
L 381.543125 160.372886 
L 393.379489 156.419432 
L 405.215852 161.690705 
L 417.052216 119.520523 
L 428.88858 110.295795 
L 440.724943 118.202705 
L 452.561307 94.481977 
L 464.39767 97.117614 
L 476.234034 89.210705 
L 488.070398 139.287795 
L 499.906761 203.860886 
L 511.743125 325.100159 
" style="fill:none;stroke:#000000;stroke-linecap:square;stroke-width:1.5;"/>
   </g>
   <g id="line2d_68">
    <path clip-path="url(#p7754e2eed4)" d="M 121.143125 430.525614 
L 132.979489 418.66525 
L 144.815852 404.16925 
L 156.652216 393.626705 
L 168.48858 383.084159 
L 180.324943 365.952523 
L 192.161307 352.774341 
L 203.99767 339.596159 
L 215.834034 326.417977 
L 227.670398 314.557614 
L 239.506761 305.332886 
L 251.343125 298.743795 
L 263.179489 298.743795 
L 275.015852 268.433977 
L 286.852216 263.162705 
L 298.68858 246.031068 
L 310.524943 236.806341 
L 322.361307 217.039068 
L 334.19767 223.628159 
L 346.034034 202.543068 
L 357.870398 190.682705 
L 369.706761 170.915432 
L 381.543125 165.644159 
L 393.379489 152.465977 
L 405.215852 128.74525 
L 417.052216 135.334341 
L 428.88858 98.435432 
L 440.724943 101.071068 
L 452.561307 87.892886 
L 464.39767 97.117614 
L 476.234034 111.613614 
L 488.070398 144.559068 
L 499.906761 218.356886 
L 511.743125 311.921977 
" style="fill:none;stroke:#000000;stroke-linecap:square;stroke-width:1.5;"/>
   </g>
   <g id="line2d_69">
    <path clip-path="url(#p7754e2eed4)" d="M 121.143125 430.525614 
L 132.979489 419.983068 
L 144.815852 405.487068 
L 156.652216 392.308886 
L 168.48858 383.084159 
L 180.324943 365.952523 
L 192.161307 355.409977 
L 203.99767 350.138705 
L 215.834034 336.960523 
L 227.670398 314.557614 
L 239.506761 302.69725 
L 251.343125 300.061614 
L 263.179489 273.70525 
L 275.015852 269.751795 
L 286.852216 265.798341 
L 298.68858 249.984523 
L 310.524943 243.395432 
L 322.361307 227.581614 
L 334.19767 211.767795 
L 346.034034 203.860886 
L 357.870398 210.449977 
L 369.706761 172.23325 
L 381.543125 178.822341 
L 393.379489 148.512523 
L 405.215852 141.923432 
L 417.052216 131.380886 
L 428.88858 132.698705 
L 440.724943 108.977977 
L 452.561307 98.435432 
L 464.39767 90.528523 
L 476.234034 101.071068 
L 488.070398 145.876886 
L 499.906761 194.636159 
L 511.743125 300.061614 
" style="fill:none;stroke:#000000;stroke-linecap:square;stroke-width:1.5;"/>
   </g>
   <g id="line2d_70">
    <path clip-path="url(#p7754e2eed4)" d="M 121.143125 430.525614 
L 132.979489 419.983068 
L 144.815852 406.804886 
L 156.652216 393.626705 
L 168.48858 383.084159 
L 180.324943 368.588159 
L 192.161307 364.634705 
L 203.99767 335.642705 
L 215.834034 333.007068 
L 227.670398 321.146705 
L 239.506761 313.239795 
L 251.343125 293.472523 
L 263.179489 282.929977 
L 275.015852 281.612159 
L 286.852216 265.798341 
L 298.68858 246.031068 
L 310.524943 235.488523 
L 322.361307 215.72125 
L 334.19767 215.72125 
L 346.034034 197.271795 
L 357.870398 192.000523 
L 369.706761 169.597614 
L 381.543125 178.822341 
L 393.379489 155.101614 
L 405.215852 140.605614 
L 417.052216 137.969977 
L 428.88858 110.295795 
L 440.724943 108.977977 
L 452.561307 98.435432 
L 464.39767 97.117614 
L 476.234034 118.202705 
L 488.070398 155.101614 
L 499.906761 222.310341 
L 511.743125 333.007068 
" style="fill:none;stroke:#000000;stroke-linecap:square;stroke-width:1.5;"/>
   </g>
   <g id="line2d_71">
    <path clip-path="url(#p7754e2eed4)" d="M 121.143125 430.525614 
L 132.979489 418.66525 
L 144.815852 405.487068 
L 156.652216 393.626705 
L 168.48858 380.448523 
L 180.324943 363.316886 
L 192.161307 356.727795 
L 203.99767 343.549614 
L 215.834034 329.053614 
L 227.670398 329.053614 
L 239.506761 309.286341 
L 251.343125 296.108159 
L 263.179489 280.294341 
L 275.015852 265.798341 
L 286.852216 256.573614 
L 298.68858 256.573614 
L 310.524943 231.535068 
L 322.361307 223.628159 
L 334.19767 217.039068 
L 346.034034 199.907432 
L 357.870398 189.364886 
L 369.706761 174.868886 
L 381.543125 180.140159 
L 393.379489 160.372886 
L 405.215852 124.791795 
L 417.052216 107.660159 
L 428.88858 114.24925 
L 440.724943 99.75325 
L 452.561307 87.892886 
L 464.39767 97.117614 
L 476.234034 119.520523 
L 488.070398 148.512523 
L 499.906761 217.039068 
L 511.743125 356.727795 
" style="fill:none;stroke:#000000;stroke-linecap:square;stroke-width:1.5;"/>
   </g>
   <g id="line2d_72">
    <path clip-path="url(#p7754e2eed4)" d="M 121.143125 429.207795 
L 132.979489 416.029614 
L 144.815852 405.487068 
L 156.652216 392.308886 
L 168.48858 379.130705 
L 180.324943 369.905977 
L 192.161307 364.634705 
L 203.99767 347.503068 
L 215.834034 336.960523 
L 227.670398 317.19325 
L 239.506761 304.015068 
L 251.343125 300.061614 
L 263.179489 288.20125 
L 275.015852 275.023068 
L 286.852216 256.573614 
L 298.68858 255.255795 
L 310.524943 231.535068 
L 322.361307 223.628159 
L 334.19767 203.860886 
L 346.034034 194.636159 
L 357.870398 174.868886 
L 369.706761 169.597614 
L 381.543125 157.73725 
L 393.379489 136.652159 
L 405.215852 132.698705 
L 417.052216 134.016523 
L 428.88858 139.287795 
L 440.724943 101.071068 
L 452.561307 107.660159 
L 464.39767 106.342341 
L 476.234034 131.380886 
L 488.070398 188.047068 
L 499.906761 269.751795 
L 511.743125 339.596159 
" style="fill:none;stroke:#000000;stroke-linecap:square;stroke-width:1.5;"/>
   </g>
   <g id="line2d_73">
    <path clip-path="url(#p7754e2eed4)" d="M 109.306761 433.16125 
" style="fill:none;stroke:#000000;stroke-linecap:square;stroke-width:1.5;"/>
   </g>
   <g id="line2d_74">
    <path clip-path="url(#p7754e2eed4)" d="M 109.306761 433.16125 
" style="fill:none;stroke:#d0e1f2;stroke-linecap:square;stroke-width:1.5;"/>
   </g>
   <g id="line2d_75">
    <path clip-path="url(#p7754e2eed4)" d="M 109.306761 433.16125 
" style="fill:none;stroke:#94c4df;stroke-linecap:square;stroke-width:1.5;"/>
   </g>
   <g id="line2d_76">
    <path clip-path="url(#p7754e2eed4)" d="M 109.306761 433.16125 
" style="fill:none;stroke:#4a98c9;stroke-linecap:square;stroke-width:1.5;"/>
   </g>
   <g id="line2d_77">
    <path clip-path="url(#p7754e2eed4)" d="M 109.306761 433.16125 
" style="fill:none;stroke:#1764ab;stroke-linecap:square;stroke-width:1.5;"/>
   </g>
   <g id="line2d_78">
    <path clip-path="url(#p7754e2eed4)" d="M 109.306761 433.16125 
" style="fill:none;stroke:#08306b;stroke-linecap:square;stroke-width:1.5;"/>
   </g>
   <g id="line2d_79">
    <path clip-path="url(#p7754e2eed4)" d="M 109.306761 433.16125 
" style="fill:none;stroke:#000000;stroke-linecap:square;stroke-width:1.5;"/>
   </g>
   <g id="line2d_80">
    <path clip-path="url(#p7754e2eed4)" d="M 109.306761 433.16125 
" style="fill:none;stroke:#000000;stroke-dasharray:1.5,2.475;stroke-dashoffset:0;stroke-width:1.5;"/>
   </g>
   <g id="line2d_81">
    <path clip-path="url(#p7754e2eed4)" d="M 109.306761 433.16125 
" style="fill:none;stroke:#000000;stroke-linecap:square;stroke-width:1.5;"/>
   </g>
   <g id="line2d_82">
    <path clip-path="url(#p7754e2eed4)" d="M 109.306761 433.16125 
" style="fill:none;stroke:#000000;stroke-dasharray:5.55,2.4;stroke-dashoffset:0;stroke-width:1.5;"/>
   </g>
   <g id="line2d_83">
    <path clip-path="url(#p7754e2eed4)" d="M 109.306761 433.16125 
" style="fill:none;stroke:#000000;stroke-dasharray:9.6,2.4,1.5,2.4;stroke-dashoffset:0;stroke-width:1.5;"/>
   </g>
   <g id="line2d_84">
    <path clip-path="url(#p7754e2eed4)" d="M 109.306761 433.16125 
" style="fill:none;stroke:#000000;stroke-dasharray:9.6,2.4,1.5,2.4;stroke-dashoffset:0;stroke-width:1.5;"/>
   </g>
   <g id="patch_3">
    <path d="M 121.143125 433.16125 
L 121.143125 52.64125 
" style="fill:none;stroke:#000000;stroke-linecap:square;stroke-linejoin:miter;stroke-width:0.8;"/>
   </g>
   <g id="patch_4">
    <path d="M 511.743125 433.16125 
L 511.743125 52.64125 
" style="fill:none;stroke:#000000;stroke-linecap:square;stroke-linejoin:miter;stroke-width:0.8;"/>
   </g>
   <g id="patch_5">
    <path d="M 121.143125 433.16125 
L 511.743125 433.16125 
" style="fill:none;stroke:#000000;stroke-linecap:square;stroke-linejoin:miter;stroke-width:0.8;"/>
   </g>
   <g id="patch_6">
    <path d="M 121.143125 52.64125 
L 511.743125 52.64125 
" style="fill:none;stroke:#000000;stroke-linecap:square;stroke-linejoin:miter;stroke-width:0.8;"/>
   </g>
   <g id="text_15">
    <!-- CANCER LIVE COUNT -->
    <g transform="translate(210.329063 21.515625)scale(0.2 -0.2)">
     <use xlink:href="#Arial-BoldMT-67"/>
     <use x="72.216797" xlink:href="#Arial-BoldMT-65"/>
     <use x="144.433594" xlink:href="#Arial-BoldMT-78"/>
     <use x="216.650391" xlink:href="#Arial-BoldMT-67"/>
     <use x="288.867188" xlink:href="#Arial-BoldMT-69"/>
     <use x="355.566406" xlink:href="#Arial-BoldMT-82"/>
     <use x="427.783203" xlink:href="#Arial-BoldMT-32"/>
     <use x="455.566406" xlink:href="#Arial-BoldMT-76"/>
     <use x="516.650391" xlink:href="#Arial-BoldMT-73"/>
     <use x="544.433594" xlink:href="#Arial-BoldMT-86"/>
     <use x="611.132812" xlink:href="#Arial-BoldMT-69"/>
     <use x="677.832031" xlink:href="#Arial-BoldMT-32"/>
     <use x="705.615234" xlink:href="#Arial-BoldMT-67"/>
     <use x="777.832031" xlink:href="#Arial-BoldMT-79"/>
     <use x="855.615234" xlink:href="#Arial-BoldMT-85"/>
     <use x="927.832031" xlink:href="#Arial-BoldMT-78"/>
     <use x="1000.048828" xlink:href="#Arial-BoldMT-84"/>
    </g>
    <!-- ACROSS RADIUS AT TIME 4 -->
    <defs>
     <path d="M 31.15625 0 
L 31.15625 14.40625 
L 1.859375 14.40625 
L 1.859375 26.421875 
L 32.90625 71.875 
L 44.4375 71.875 
L 44.4375 26.46875 
L 53.328125 26.46875 
L 53.328125 14.40625 
L 44.4375 14.40625 
L 44.4375 0 
z
M 31.15625 26.46875 
L 31.15625 50.921875 
L 14.703125 26.46875 
z
" id="Arial-BoldMT-52"/>
    </defs>
    <g transform="translate(181.449375 42.64125)scale(0.2 -0.2)">
     <use xlink:href="#Arial-BoldMT-65"/>
     <use x="72.216797" xlink:href="#Arial-BoldMT-67"/>
     <use x="144.433594" xlink:href="#Arial-BoldMT-82"/>
     <use x="216.650391" xlink:href="#Arial-BoldMT-79"/>
     <use x="294.433594" xlink:href="#Arial-BoldMT-83"/>
     <use x="361.132812" xlink:href="#Arial-BoldMT-83"/>
     <use x="427.832031" xlink:href="#Arial-BoldMT-32"/>
     <use x="455.615234" xlink:href="#Arial-BoldMT-82"/>
     <use x="527.832031" xlink:href="#Arial-BoldMT-65"/>
     <use x="600.048828" xlink:href="#Arial-BoldMT-68"/>
     <use x="672.265625" xlink:href="#Arial-BoldMT-73"/>
     <use x="700.048828" xlink:href="#Arial-BoldMT-85"/>
     <use x="772.265625" xlink:href="#Arial-BoldMT-83"/>
     <use x="838.964844" xlink:href="#Arial-BoldMT-32"/>
     <use x="866.701172" xlink:href="#Arial-BoldMT-65"/>
     <use x="938.808594" xlink:href="#Arial-BoldMT-84"/>
     <use x="999.892578" xlink:href="#Arial-BoldMT-32"/>
     <use x="1027.675781" xlink:href="#Arial-BoldMT-84"/>
     <use x="1088.759766" xlink:href="#Arial-BoldMT-73"/>
     <use x="1116.542969" xlink:href="#Arial-BoldMT-77"/>
     <use x="1199.84375" xlink:href="#Arial-BoldMT-69"/>
     <use x="1266.542969" xlink:href="#Arial-BoldMT-32"/>
     <use x="1294.326172" xlink:href="#Arial-BoldMT-52"/>
    </g>
   </g>
   <g id="legend_1">
    <g id="line2d_85">
     <path d="M 520.743125 65.739687 
L 540.743125 65.739687 
" style="fill:none;stroke:#000000;stroke-linecap:square;stroke-width:1.5;"/>
    </g>
    <g id="line2d_86"/>
    <g id="text_16">
     <!-- 0 -->
     <g transform="translate(548.743125 69.239687)scale(0.1 -0.1)">
      <use xlink:href="#DejaVuSans-48"/>
     </g>
    </g>
    <g id="line2d_87">
     <path d="M 520.743125 80.417812 
L 540.743125 80.417812 
" style="fill:none;stroke:#d0e1f2;stroke-linecap:square;stroke-width:1.5;"/>
    </g>
    <g id="line2d_88"/>
    <g id="text_17">
     <!-- 100 -->
     <g transform="translate(548.743125 83.917812)scale(0.1 -0.1)">
      <use xlink:href="#DejaVuSans-49"/>
      <use x="63.623047" xlink:href="#DejaVuSans-48"/>
      <use x="127.246094" xlink:href="#DejaVuSans-48"/>
     </g>
    </g>
    <g id="line2d_89">
     <path d="M 520.743125 95.095937 
L 540.743125 95.095937 
" style="fill:none;stroke:#94c4df;stroke-linecap:square;stroke-width:1.5;"/>
    </g>
    <g id="line2d_90"/>
    <g id="text_18">
     <!-- 500 -->
     <g transform="translate(548.743125 98.595937)scale(0.1 -0.1)">
      <use xlink:href="#DejaVuSans-53"/>
      <use x="63.623047" xlink:href="#DejaVuSans-48"/>
      <use x="127.246094" xlink:href="#DejaVuSans-48"/>
     </g>
    </g>
    <g id="line2d_91">
     <path d="M 520.743125 109.774062 
L 540.743125 109.774062 
" style="fill:none;stroke:#4a98c9;stroke-linecap:square;stroke-width:1.5;"/>
    </g>
    <g id="line2d_92"/>
    <g id="text_19">
     <!-- 1000 -->
     <g transform="translate(548.743125 113.274062)scale(0.1 -0.1)">
      <use xlink:href="#DejaVuSans-49"/>
      <use x="63.623047" xlink:href="#DejaVuSans-48"/>
      <use x="127.246094" xlink:href="#DejaVuSans-48"/>
      <use x="190.869141" xlink:href="#DejaVuSans-48"/>
     </g>
    </g>
    <g id="line2d_93">
     <path d="M 520.743125 124.452187 
L 540.743125 124.452187 
" style="fill:none;stroke:#1764ab;stroke-linecap:square;stroke-width:1.5;"/>
    </g>
    <g id="line2d_94"/>
    <g id="text_20">
     <!-- 5000 -->
     <g transform="translate(548.743125 127.952187)scale(0.1 -0.1)">
      <use xlink:href="#DejaVuSans-53"/>
      <use x="63.623047" xlink:href="#DejaVuSans-48"/>
      <use x="127.246094" xlink:href="#DejaVuSans-48"/>
      <use x="190.869141" xlink:href="#DejaVuSans-48"/>
     </g>
    </g>
    <g id="line2d_95">
     <path d="M 520.743125 139.130312 
L 540.743125 139.130312 
" style="fill:none;stroke:#08306b;stroke-linecap:square;stroke-width:1.5;"/>
    </g>
    <g id="line2d_96"/>
    <g id="text_21">
     <!-- 10000 -->
     <g transform="translate(548.743125 142.630312)scale(0.1 -0.1)">
      <use xlink:href="#DejaVuSans-49"/>
      <use x="63.623047" xlink:href="#DejaVuSans-48"/>
      <use x="127.246094" xlink:href="#DejaVuSans-48"/>
      <use x="190.869141" xlink:href="#DejaVuSans-48"/>
      <use x="254.492188" xlink:href="#DejaVuSans-48"/>
     </g>
    </g>
    <g id="line2d_97">
     <path d="M 520.743125 153.808437 
L 540.743125 153.808437 
" style="fill:none;stroke:#000000;stroke-linecap:square;stroke-width:1.5;"/>
    </g>
    <g id="line2d_98"/>
    <g id="text_22">
     <!-- 0 -->
     <g transform="translate(548.743125 157.308437)scale(0.1 -0.1)">
      <use xlink:href="#DejaVuSans-48"/>
     </g>
    </g>
    <g id="line2d_99">
     <path d="M 520.743125 168.486562 
L 540.743125 168.486562 
" style="fill:none;stroke:#000000;stroke-dasharray:1.5,2.475;stroke-dashoffset:0;stroke-width:1.5;"/>
    </g>
    <g id="line2d_100"/>
    <g id="text_23">
     <!-- 250 -->
     <g transform="translate(548.743125 171.986562)scale(0.1 -0.1)">
      <use xlink:href="#DejaVuSans-50"/>
      <use x="63.623047" xlink:href="#DejaVuSans-53"/>
      <use x="127.246094" xlink:href="#DejaVuSans-48"/>
     </g>
    </g>
    <g id="line2d_101">
     <path d="M 520.743125 183.164687 
L 540.743125 183.164687 
" style="fill:none;stroke:#000000;stroke-linecap:square;stroke-width:1.5;"/>
    </g>
    <g id="line2d_102"/>
    <g id="text_24">
     <!-- 500 -->
     <g transform="translate(548.743125 186.664687)scale(0.1 -0.1)">
      <use xlink:href="#DejaVuSans-53"/>
      <use x="63.623047" xlink:href="#DejaVuSans-48"/>
      <use x="127.246094" xlink:href="#DejaVuSans-48"/>
     </g>
    </g>
    <g id="line2d_103">
     <path d="M 520.743125 197.842812 
L 540.743125 197.842812 
" style="fill:none;stroke:#000000;stroke-dasharray:5.55,2.4;stroke-dashoffset:0;stroke-width:1.5;"/>
    </g>
    <g id="line2d_104"/>
    <g id="text_25">
     <!-- 1000 -->
     <g transform="translate(548.743125 201.342812)scale(0.1 -0.1)">
      <use xlink:href="#DejaVuSans-49"/>
      <use x="63.623047" xlink:href="#DejaVuSans-48"/>
      <use x="127.246094" xlink:href="#DejaVuSans-48"/>
      <use x="190.869141" xlink:href="#DejaVuSans-48"/>
     </g>
    </g>
    <g id="line2d_105">
     <path d="M 520.743125 212.520937 
L 540.743125 212.520937 
" style="fill:none;stroke:#000000;stroke-dasharray:9.6,2.4,1.5,2.4;stroke-dashoffset:0;stroke-width:1.5;"/>
    </g>
    <g id="line2d_106"/>
    <g id="text_26">
     <!-- 5000 -->
     <g transform="translate(548.743125 216.020937)scale(0.1 -0.1)">
      <use xlink:href="#DejaVuSans-53"/>
      <use x="63.623047" xlink:href="#DejaVuSans-48"/>
      <use x="127.246094" xlink:href="#DejaVuSans-48"/>
      <use x="190.869141" xlink:href="#DejaVuSans-48"/>
     </g>
    </g>
    <g id="line2d_107">
     <path d="M 520.743125 227.199062 
L 540.743125 227.199062 
" style="fill:none;stroke:#000000;stroke-dasharray:9.6,2.4,1.5,2.4;stroke-dashoffset:0;stroke-width:1.5;"/>
    </g>
    <g id="line2d_108"/>
    <g id="text_27">
     <!-- 10000 -->
     <g transform="translate(548.743125 230.699062)scale(0.1 -0.1)">
      <use xlink:href="#DejaVuSans-49"/>
      <use x="63.623047" xlink:href="#DejaVuSans-48"/>
      <use x="127.246094" xlink:href="#DejaVuSans-48"/>
      <use x="190.869141" xlink:href="#DejaVuSans-48"/>
      <use x="254.492188" xlink:href="#DejaVuSans-48"/>
     </g>
    </g>
   </g>
  </g>
 </g>
 <defs>
  <clipPath id="p7754e2eed4">
   <rect height="380.52" width="390.6" x="121.143125" y="52.64125"/>
  </clipPath>
 </defs>
</svg>
