<?xml version="1.0" encoding="utf-8" standalone="no"?>
<!DOCTYPE svg PUBLIC "-//W3C//DTD SVG 1.1//EN"
  "http://www.w3.org/Graphics/SVG/1.1/DTD/svg11.dtd">
<!-- Created with matplotlib (https://matplotlib.org/) -->
<svg height="504.658125pt" version="1.1" viewBox="0 0 582.2025 504.658125" width="582.2025pt" xmlns="http://www.w3.org/2000/svg" xmlns:xlink="http://www.w3.org/1999/xlink">
 <defs>
  <style type="text/css">
*{stroke-linecap:butt;stroke-linejoin:round;}
  </style>
 </defs>
 <g id="figure_1">
  <g id="patch_1">
   <path d="M 0 504.658125 
L 582.2025 504.658125 
L 582.2025 -0 
L 0 -0 
z
" style="fill:#ffffff;"/>
  </g>
  <g id="axes_1">
   <g id="patch_2">
    <path d="M 111.59 433.16125 
L 502.19 433.16125 
L 502.19 52.64125 
L 111.59 52.64125 
z
" style="fill:#ffffff;"/>
   </g>
   <g id="matplotlib.axis_1">
    <g id="xtick_1">
     <g id="line2d_1">
      <defs>
       <path d="M 0 0 
L 0 3.5 
" id="m5600e2a65a" style="stroke:#000000;stroke-width:0.8;"/>
      </defs>
      <g>
       <use style="stroke:#000000;stroke-width:0.8;" x="158.935455" xlink:href="#m5600e2a65a" y="433.16125"/>
      </g>
     </g>
     <g id="text_1">
      <!-- 5 -->
      <defs>
       <path d="M 10.796875 72.90625 
L 49.515625 72.90625 
L 49.515625 64.59375 
L 19.828125 64.59375 
L 19.828125 46.734375 
Q 21.96875 47.46875 24.109375 47.828125 
Q 26.265625 48.1875 28.421875 48.1875 
Q 40.625 48.1875 47.75 41.5 
Q 54.890625 34.8125 54.890625 23.390625 
Q 54.890625 11.625 47.5625 5.09375 
Q 40.234375 -1.421875 26.90625 -1.421875 
Q 22.3125 -1.421875 17.546875 -0.640625 
Q 12.796875 0.140625 7.71875 1.703125 
L 7.71875 11.625 
Q 12.109375 9.234375 16.796875 8.0625 
Q 21.484375 6.890625 26.703125 6.890625 
Q 35.15625 6.890625 40.078125 11.328125 
Q 45.015625 15.765625 45.015625 23.390625 
Q 45.015625 31 40.078125 35.4375 
Q 35.15625 39.890625 26.703125 39.890625 
Q 22.75 39.890625 18.8125 39.015625 
Q 14.890625 38.140625 10.796875 36.28125 
z
" id="DejaVuSans-53"/>
      </defs>
      <g transform="translate(149.391705 462.956562)scale(0.3 -0.3)">
       <use xlink:href="#DejaVuSans-53"/>
      </g>
     </g>
    </g>
    <g id="xtick_2">
     <g id="line2d_2">
      <g>
       <use style="stroke:#000000;stroke-width:0.8;" x="218.117273" xlink:href="#m5600e2a65a" y="433.16125"/>
      </g>
     </g>
     <g id="text_2">
      <!-- 10 -->
      <defs>
       <path d="M 12.40625 8.296875 
L 28.515625 8.296875 
L 28.515625 63.921875 
L 10.984375 60.40625 
L 10.984375 69.390625 
L 28.421875 72.90625 
L 38.28125 72.90625 
L 38.28125 8.296875 
L 54.390625 8.296875 
L 54.390625 0 
L 12.40625 0 
z
" id="DejaVuSans-49"/>
       <path d="M 31.78125 66.40625 
Q 24.171875 66.40625 20.328125 58.90625 
Q 16.5 51.421875 16.5 36.375 
Q 16.5 21.390625 20.328125 13.890625 
Q 24.171875 6.390625 31.78125 6.390625 
Q 39.453125 6.390625 43.28125 13.890625 
Q 47.125 21.390625 47.125 36.375 
Q 47.125 51.421875 43.28125 58.90625 
Q 39.453125 66.40625 31.78125 66.40625 
z
M 31.78125 74.21875 
Q 44.046875 74.21875 50.515625 64.515625 
Q 56.984375 54.828125 56.984375 36.375 
Q 56.984375 17.96875 50.515625 8.265625 
Q 44.046875 -1.421875 31.78125 -1.421875 
Q 19.53125 -1.421875 13.0625 8.265625 
Q 6.59375 17.96875 6.59375 36.375 
Q 6.59375 54.828125 13.0625 64.515625 
Q 19.53125 74.21875 31.78125 74.21875 
z
" id="DejaVuSans-48"/>
      </defs>
      <g transform="translate(199.029773 462.956562)scale(0.3 -0.3)">
       <use xlink:href="#DejaVuSans-49"/>
       <use x="63.623047" xlink:href="#DejaVuSans-48"/>
      </g>
     </g>
    </g>
    <g id="xtick_3">
     <g id="line2d_3">
      <g>
       <use style="stroke:#000000;stroke-width:0.8;" x="277.299091" xlink:href="#m5600e2a65a" y="433.16125"/>
      </g>
     </g>
     <g id="text_3">
      <!-- 15 -->
      <g transform="translate(258.211591 462.956562)scale(0.3 -0.3)">
       <use xlink:href="#DejaVuSans-49"/>
       <use x="63.623047" xlink:href="#DejaVuSans-53"/>
      </g>
     </g>
    </g>
    <g id="xtick_4">
     <g id="line2d_4">
      <g>
       <use style="stroke:#000000;stroke-width:0.8;" x="336.480909" xlink:href="#m5600e2a65a" y="433.16125"/>
      </g>
     </g>
     <g id="text_4">
      <!-- 20 -->
      <defs>
       <path d="M 19.1875 8.296875 
L 53.609375 8.296875 
L 53.609375 0 
L 7.328125 0 
L 7.328125 8.296875 
Q 12.9375 14.109375 22.625 23.890625 
Q 32.328125 33.6875 34.8125 36.53125 
Q 39.546875 41.84375 41.421875 45.53125 
Q 43.3125 49.21875 43.3125 52.78125 
Q 43.3125 58.59375 39.234375 62.25 
Q 35.15625 65.921875 28.609375 65.921875 
Q 23.96875 65.921875 18.8125 64.3125 
Q 13.671875 62.703125 7.8125 59.421875 
L 7.8125 69.390625 
Q 13.765625 71.78125 18.9375 73 
Q 24.125 74.21875 28.421875 74.21875 
Q 39.75 74.21875 46.484375 68.546875 
Q 53.21875 62.890625 53.21875 53.421875 
Q 53.21875 48.921875 51.53125 44.890625 
Q 49.859375 40.875 45.40625 35.40625 
Q 44.1875 33.984375 37.640625 27.21875 
Q 31.109375 20.453125 19.1875 8.296875 
z
" id="DejaVuSans-50"/>
      </defs>
      <g transform="translate(317.393409 462.956562)scale(0.3 -0.3)">
       <use xlink:href="#DejaVuSans-50"/>
       <use x="63.623047" xlink:href="#DejaVuSans-48"/>
      </g>
     </g>
    </g>
    <g id="xtick_5">
     <g id="line2d_5">
      <g>
       <use style="stroke:#000000;stroke-width:0.8;" x="395.662727" xlink:href="#m5600e2a65a" y="433.16125"/>
      </g>
     </g>
     <g id="text_5">
      <!-- 25 -->
      <g transform="translate(376.575227 462.956562)scale(0.3 -0.3)">
       <use xlink:href="#DejaVuSans-50"/>
       <use x="63.623047" xlink:href="#DejaVuSans-53"/>
      </g>
     </g>
    </g>
    <g id="xtick_6">
     <g id="line2d_6">
      <g>
       <use style="stroke:#000000;stroke-width:0.8;" x="454.844545" xlink:href="#m5600e2a65a" y="433.16125"/>
      </g>
     </g>
     <g id="text_6">
      <!-- 30 -->
      <defs>
       <path d="M 40.578125 39.3125 
Q 47.65625 37.796875 51.625 33 
Q 55.609375 28.21875 55.609375 21.1875 
Q 55.609375 10.40625 48.1875 4.484375 
Q 40.765625 -1.421875 27.09375 -1.421875 
Q 22.515625 -1.421875 17.65625 -0.515625 
Q 12.796875 0.390625 7.625 2.203125 
L 7.625 11.71875 
Q 11.71875 9.328125 16.59375 8.109375 
Q 21.484375 6.890625 26.8125 6.890625 
Q 36.078125 6.890625 40.9375 10.546875 
Q 45.796875 14.203125 45.796875 21.1875 
Q 45.796875 27.640625 41.28125 31.265625 
Q 36.765625 34.90625 28.71875 34.90625 
L 20.21875 34.90625 
L 20.21875 43.015625 
L 29.109375 43.015625 
Q 36.375 43.015625 40.234375 45.921875 
Q 44.09375 48.828125 44.09375 54.296875 
Q 44.09375 59.90625 40.109375 62.90625 
Q 36.140625 65.921875 28.71875 65.921875 
Q 24.65625 65.921875 20.015625 65.03125 
Q 15.375 64.15625 9.8125 62.3125 
L 9.8125 71.09375 
Q 15.4375 72.65625 20.34375 73.4375 
Q 25.25 74.21875 29.59375 74.21875 
Q 40.828125 74.21875 47.359375 69.109375 
Q 53.90625 64.015625 53.90625 55.328125 
Q 53.90625 49.265625 50.4375 45.09375 
Q 46.96875 40.921875 40.578125 39.3125 
z
" id="DejaVuSans-51"/>
      </defs>
      <g transform="translate(435.757045 462.956562)scale(0.3 -0.3)">
       <use xlink:href="#DejaVuSans-51"/>
       <use x="63.623047" xlink:href="#DejaVuSans-48"/>
      </g>
     </g>
    </g>
    <g id="text_7">
     <!-- RADIUS -->
     <defs>
      <path d="M 7.328125 0 
L 7.328125 71.578125 
L 37.75 71.578125 
Q 49.21875 71.578125 54.421875 69.640625 
Q 59.625 67.71875 62.75 62.78125 
Q 65.875 57.859375 65.875 51.515625 
Q 65.875 43.453125 61.125 38.203125 
Q 56.390625 32.953125 46.96875 31.59375 
Q 51.65625 28.859375 54.703125 25.578125 
Q 57.765625 22.3125 62.9375 13.96875 
L 71.6875 0 
L 54.390625 0 
L 43.953125 15.578125 
Q 38.375 23.921875 36.328125 26.09375 
Q 34.28125 28.265625 31.984375 29.078125 
Q 29.6875 29.890625 24.703125 29.890625 
L 21.78125 29.890625 
L 21.78125 0 
z
M 21.78125 41.3125 
L 32.46875 41.3125 
Q 42.875 41.3125 45.453125 42.1875 
Q 48.046875 43.0625 49.515625 45.203125 
Q 50.984375 47.359375 50.984375 50.59375 
Q 50.984375 54.203125 49.046875 56.421875 
Q 47.125 58.640625 43.609375 59.234375 
Q 41.84375 59.46875 33.0625 59.46875 
L 21.78125 59.46875 
z
" id="Arial-BoldMT-82"/>
      <path d="M 71.828125 0 
L 56.109375 0 
L 49.859375 16.265625 
L 21.234375 16.265625 
L 15.328125 0 
L 0 0 
L 27.875 71.578125 
L 43.171875 71.578125 
z
M 45.21875 28.328125 
L 35.359375 54.890625 
L 25.6875 28.328125 
z
" id="Arial-BoldMT-65"/>
      <path d="M 7.234375 71.578125 
L 33.640625 71.578125 
Q 42.578125 71.578125 47.265625 70.21875 
Q 53.5625 68.359375 58.046875 63.625 
Q 62.546875 58.890625 64.890625 52.03125 
Q 67.234375 45.171875 67.234375 35.109375 
Q 67.234375 26.265625 65.046875 19.875 
Q 62.359375 12.0625 57.375 7.234375 
Q 53.609375 3.5625 47.21875 1.515625 
Q 42.4375 0 34.421875 0 
L 7.234375 0 
z
M 21.6875 59.46875 
L 21.6875 12.0625 
L 32.46875 12.0625 
Q 38.53125 12.0625 41.21875 12.75 
Q 44.734375 13.625 47.046875 15.71875 
Q 49.359375 17.828125 50.828125 22.625 
Q 52.296875 27.4375 52.296875 35.75 
Q 52.296875 44.046875 50.828125 48.484375 
Q 49.359375 52.9375 46.71875 55.421875 
Q 44.09375 57.90625 40.046875 58.796875 
Q 37.015625 59.46875 28.171875 59.46875 
z
" id="Arial-BoldMT-68"/>
      <path d="M 6.84375 0 
L 6.84375 71.578125 
L 21.296875 71.578125 
L 21.296875 0 
z
" id="Arial-BoldMT-73"/>
      <path d="M 7.171875 71.578125 
L 21.625 71.578125 
L 21.625 32.8125 
Q 21.625 23.578125 22.171875 20.84375 
Q 23.09375 16.453125 26.578125 13.796875 
Q 30.078125 11.140625 36.140625 11.140625 
Q 42.28125 11.140625 45.40625 13.640625 
Q 48.53125 16.15625 49.171875 19.8125 
Q 49.8125 23.484375 49.8125 31.984375 
L 49.8125 71.578125 
L 64.265625 71.578125 
L 64.265625 33.984375 
Q 64.265625 21.09375 63.09375 15.765625 
Q 61.921875 10.453125 58.765625 6.78125 
Q 55.609375 3.125 50.328125 0.953125 
Q 45.0625 -1.21875 36.578125 -1.21875 
Q 26.3125 -1.21875 21.015625 1.140625 
Q 15.71875 3.515625 12.640625 7.296875 
Q 9.578125 11.078125 8.59375 15.234375 
Q 7.171875 21.390625 7.171875 33.40625 
z
" id="Arial-BoldMT-85"/>
      <path d="M 3.609375 23.296875 
L 17.671875 24.65625 
Q 18.953125 17.578125 22.828125 14.25 
Q 26.703125 10.9375 33.296875 10.9375 
Q 40.28125 10.9375 43.8125 13.890625 
Q 47.359375 16.84375 47.359375 20.796875 
Q 47.359375 23.34375 45.875 25.125 
Q 44.390625 26.90625 40.671875 28.21875 
Q 38.140625 29.109375 29.109375 31.34375 
Q 17.484375 34.234375 12.796875 38.421875 
Q 6.203125 44.34375 6.203125 52.828125 
Q 6.203125 58.296875 9.296875 63.0625 
Q 12.40625 67.828125 18.234375 70.3125 
Q 24.078125 72.796875 32.328125 72.796875 
Q 45.796875 72.796875 52.609375 66.890625 
Q 59.421875 60.984375 59.765625 51.125 
L 45.3125 50.484375 
Q 44.390625 56 41.328125 58.421875 
Q 38.28125 60.84375 32.171875 60.84375 
Q 25.875 60.84375 22.3125 58.25 
Q 20.015625 56.59375 20.015625 53.8125 
Q 20.015625 51.265625 22.171875 49.46875 
Q 24.90625 47.171875 35.453125 44.671875 
Q 46 42.1875 51.046875 39.515625 
Q 56.109375 36.859375 58.953125 32.25 
Q 61.8125 27.640625 61.8125 20.84375 
Q 61.8125 14.703125 58.390625 9.328125 
Q 54.984375 3.953125 48.734375 1.34375 
Q 42.484375 -1.265625 33.15625 -1.265625 
Q 19.578125 -1.265625 12.296875 5 
Q 5.03125 11.28125 3.609375 23.296875 
z
" id="Arial-BoldMT-83"/>
     </defs>
     <g transform="translate(268.554062 493.51125)scale(0.2 -0.2)">
      <use xlink:href="#Arial-BoldMT-82"/>
      <use x="72.216797" xlink:href="#Arial-BoldMT-65"/>
      <use x="144.433594" xlink:href="#Arial-BoldMT-68"/>
      <use x="216.650391" xlink:href="#Arial-BoldMT-73"/>
      <use x="244.433594" xlink:href="#Arial-BoldMT-85"/>
      <use x="316.650391" xlink:href="#Arial-BoldMT-83"/>
     </g>
    </g>
   </g>
   <g id="matplotlib.axis_2">
    <g id="ytick_1">
     <g id="line2d_7">
      <defs>
       <path d="M 0 0 
L -3.5 0 
" id="m62bf07baf4" style="stroke:#000000;stroke-width:0.8;"/>
      </defs>
      <g>
       <use style="stroke:#000000;stroke-width:0.8;" x="111.59" xlink:href="#m62bf07baf4" y="433.16125"/>
      </g>
     </g>
     <g id="text_8">
      <!-- 0.0 -->
      <defs>
       <path d="M 10.6875 12.40625 
L 21 12.40625 
L 21 0 
L 10.6875 0 
z
" id="DejaVuSans-46"/>
      </defs>
      <g transform="translate(56.880625 444.558906)scale(0.3 -0.3)">
       <use xlink:href="#DejaVuSans-48"/>
       <use x="63.623047" xlink:href="#DejaVuSans-46"/>
       <use x="95.410156" xlink:href="#DejaVuSans-48"/>
      </g>
     </g>
    </g>
    <g id="ytick_2">
     <g id="line2d_8">
      <g>
       <use style="stroke:#000000;stroke-width:0.8;" x="111.59" xlink:href="#m62bf07baf4" y="369.74125"/>
      </g>
     </g>
     <g id="text_9">
      <!-- 0.5 -->
      <g transform="translate(56.880625 381.138906)scale(0.3 -0.3)">
       <use xlink:href="#DejaVuSans-48"/>
       <use x="63.623047" xlink:href="#DejaVuSans-46"/>
       <use x="95.410156" xlink:href="#DejaVuSans-53"/>
      </g>
     </g>
    </g>
    <g id="ytick_3">
     <g id="line2d_9">
      <g>
       <use style="stroke:#000000;stroke-width:0.8;" x="111.59" xlink:href="#m62bf07baf4" y="306.32125"/>
      </g>
     </g>
     <g id="text_10">
      <!-- 1.0 -->
      <g transform="translate(56.880625 317.718906)scale(0.3 -0.3)">
       <use xlink:href="#DejaVuSans-49"/>
       <use x="63.623047" xlink:href="#DejaVuSans-46"/>
       <use x="95.410156" xlink:href="#DejaVuSans-48"/>
      </g>
     </g>
    </g>
    <g id="ytick_4">
     <g id="line2d_10">
      <g>
       <use style="stroke:#000000;stroke-width:0.8;" x="111.59" xlink:href="#m62bf07baf4" y="242.90125"/>
      </g>
     </g>
     <g id="text_11">
      <!-- 1.5 -->
      <g transform="translate(56.880625 254.298906)scale(0.3 -0.3)">
       <use xlink:href="#DejaVuSans-49"/>
       <use x="63.623047" xlink:href="#DejaVuSans-46"/>
       <use x="95.410156" xlink:href="#DejaVuSans-53"/>
      </g>
     </g>
    </g>
    <g id="ytick_5">
     <g id="line2d_11">
      <g>
       <use style="stroke:#000000;stroke-width:0.8;" x="111.59" xlink:href="#m62bf07baf4" y="179.48125"/>
      </g>
     </g>
     <g id="text_12">
      <!-- 2.0 -->
      <g transform="translate(56.880625 190.878906)scale(0.3 -0.3)">
       <use xlink:href="#DejaVuSans-50"/>
       <use x="63.623047" xlink:href="#DejaVuSans-46"/>
       <use x="95.410156" xlink:href="#DejaVuSans-48"/>
      </g>
     </g>
    </g>
    <g id="ytick_6">
     <g id="line2d_12">
      <g>
       <use style="stroke:#000000;stroke-width:0.8;" x="111.59" xlink:href="#m62bf07baf4" y="116.06125"/>
      </g>
     </g>
     <g id="text_13">
      <!-- 2.5 -->
      <g transform="translate(56.880625 127.458906)scale(0.3 -0.3)">
       <use xlink:href="#DejaVuSans-50"/>
       <use x="63.623047" xlink:href="#DejaVuSans-46"/>
       <use x="95.410156" xlink:href="#DejaVuSans-53"/>
      </g>
     </g>
    </g>
    <g id="ytick_7">
     <g id="line2d_13">
      <g>
       <use style="stroke:#000000;stroke-width:0.8;" x="111.59" xlink:href="#m62bf07baf4" y="52.64125"/>
      </g>
     </g>
     <g id="text_14">
      <!-- 3.0 -->
      <g transform="translate(56.880625 64.038906)scale(0.3 -0.3)">
       <use xlink:href="#DejaVuSans-51"/>
       <use x="63.623047" xlink:href="#DejaVuSans-46"/>
       <use x="95.410156" xlink:href="#DejaVuSans-48"/>
      </g>
     </g>
    </g>
    <g id="text_15">
     <!-- CANCER LIVE NORMALIZED -->
     <defs>
      <path d="M 53.078125 26.3125 
L 67.09375 21.875 
Q 63.875 10.15625 56.375 4.46875 
Q 48.875 -1.21875 37.359375 -1.21875 
Q 23.09375 -1.21875 13.90625 8.515625 
Q 4.734375 18.265625 4.734375 35.15625 
Q 4.734375 53.03125 13.953125 62.90625 
Q 23.1875 72.796875 38.234375 72.796875 
Q 51.375 72.796875 59.578125 65.046875 
Q 64.453125 60.453125 66.890625 51.859375 
L 52.59375 48.4375 
Q 51.3125 54 47.28125 57.21875 
Q 43.265625 60.453125 37.5 60.453125 
Q 29.546875 60.453125 24.578125 54.734375 
Q 19.625 49.03125 19.625 36.234375 
Q 19.625 22.65625 24.5 16.890625 
Q 29.390625 11.140625 37.203125 11.140625 
Q 42.96875 11.140625 47.109375 14.796875 
Q 51.265625 18.453125 53.078125 26.3125 
z
" id="Arial-BoldMT-67"/>
      <path d="M 7.421875 0 
L 7.421875 71.578125 
L 21.484375 71.578125 
L 50.78125 23.78125 
L 50.78125 71.578125 
L 64.203125 71.578125 
L 64.203125 0 
L 49.703125 0 
L 20.84375 46.6875 
L 20.84375 0 
z
" id="Arial-BoldMT-78"/>
      <path d="M 7.28125 0 
L 7.28125 71.578125 
L 60.359375 71.578125 
L 60.359375 59.46875 
L 21.734375 59.46875 
L 21.734375 43.609375 
L 57.671875 43.609375 
L 57.671875 31.546875 
L 21.734375 31.546875 
L 21.734375 12.0625 
L 61.71875 12.0625 
L 61.71875 0 
z
" id="Arial-BoldMT-69"/>
      <path id="Arial-BoldMT-32"/>
      <path d="M 7.671875 0 
L 7.671875 71 
L 22.125 71 
L 22.125 12.0625 
L 58.0625 12.0625 
L 58.0625 0 
z
" id="Arial-BoldMT-76"/>
      <path d="M 25.53125 0 
L -0.046875 71.578125 
L 15.625 71.578125 
L 33.734375 18.609375 
L 51.265625 71.578125 
L 66.609375 71.578125 
L 40.96875 0 
z
" id="Arial-BoldMT-86"/>
      <path d="M 4.34375 35.359375 
Q 4.34375 46.296875 7.625 53.71875 
Q 10.0625 59.1875 14.28125 63.53125 
Q 18.5 67.875 23.53125 69.96875 
Q 30.21875 72.796875 38.96875 72.796875 
Q 54.78125 72.796875 64.28125 62.984375 
Q 73.78125 53.171875 73.78125 35.6875 
Q 73.78125 18.359375 64.359375 8.5625 
Q 54.9375 -1.21875 39.15625 -1.21875 
Q 23.1875 -1.21875 13.765625 8.515625 
Q 4.34375 18.265625 4.34375 35.359375 
z
M 19.234375 35.84375 
Q 19.234375 23.6875 24.84375 17.40625 
Q 30.46875 11.140625 39.109375 11.140625 
Q 47.75 11.140625 53.296875 17.359375 
Q 58.84375 23.578125 58.84375 36.03125 
Q 58.84375 48.34375 53.4375 54.390625 
Q 48.046875 60.453125 39.109375 60.453125 
Q 30.171875 60.453125 24.703125 54.3125 
Q 19.234375 48.1875 19.234375 35.84375 
z
" id="Arial-BoldMT-79"/>
      <path d="M 7.078125 0 
L 7.078125 71.578125 
L 28.71875 71.578125 
L 41.703125 22.75 
L 54.546875 71.578125 
L 76.21875 71.578125 
L 76.21875 0 
L 62.796875 0 
L 62.796875 56.34375 
L 48.578125 0 
L 34.671875 0 
L 20.515625 56.34375 
L 20.515625 0 
z
" id="Arial-BoldMT-77"/>
      <path d="M 1.078125 0 
L 1.078125 13.03125 
L 38.671875 59.46875 
L 5.328125 59.46875 
L 5.328125 71.578125 
L 57.71875 71.578125 
L 57.71875 60.359375 
L 18.5 12.0625 
L 59.234375 12.0625 
L 59.234375 0 
z
" id="Arial-BoldMT-90"/>
     </defs>
     <g transform="translate(21.253125 380.123125)rotate(-90)scale(0.2 -0.2)">
      <use xlink:href="#Arial-BoldMT-67"/>
      <use x="72.216797" xlink:href="#Arial-BoldMT-65"/>
      <use x="144.433594" xlink:href="#Arial-BoldMT-78"/>
      <use x="216.650391" xlink:href="#Arial-BoldMT-67"/>
      <use x="288.867188" xlink:href="#Arial-BoldMT-69"/>
      <use x="355.566406" xlink:href="#Arial-BoldMT-82"/>
      <use x="427.783203" xlink:href="#Arial-BoldMT-32"/>
      <use x="455.566406" xlink:href="#Arial-BoldMT-76"/>
      <use x="516.650391" xlink:href="#Arial-BoldMT-73"/>
      <use x="544.433594" xlink:href="#Arial-BoldMT-86"/>
      <use x="611.132812" xlink:href="#Arial-BoldMT-69"/>
      <use x="677.832031" xlink:href="#Arial-BoldMT-32"/>
      <use x="705.615234" xlink:href="#Arial-BoldMT-78"/>
      <use x="777.832031" xlink:href="#Arial-BoldMT-79"/>
      <use x="855.615234" xlink:href="#Arial-BoldMT-82"/>
      <use x="927.832031" xlink:href="#Arial-BoldMT-77"/>
      <use x="1011.132812" xlink:href="#Arial-BoldMT-65"/>
      <use x="1083.349609" xlink:href="#Arial-BoldMT-76"/>
      <use x="1144.433594" xlink:href="#Arial-BoldMT-73"/>
      <use x="1172.216797" xlink:href="#Arial-BoldMT-90"/>
      <use x="1233.300781" xlink:href="#Arial-BoldMT-69"/>
      <use x="1300" xlink:href="#Arial-BoldMT-68"/>
     </g>
     <!-- CELL COUNTS (NUMBERS) -->
     <defs>
      <path d="M 23.390625 0 
L 23.390625 59.46875 
L 2.15625 59.46875 
L 2.15625 71.578125 
L 59.03125 71.578125 
L 59.03125 59.46875 
L 37.84375 59.46875 
L 37.84375 0 
z
" id="Arial-BoldMT-84"/>
      <path d="M 29.9375 -21.046875 
L 20.515625 -21.046875 
Q 13.03125 -9.765625 9.125 2.390625 
Q 5.21875 14.546875 5.21875 25.921875 
Q 5.21875 40.046875 10.0625 52.640625 
Q 14.265625 63.578125 20.703125 72.796875 
L 30.078125 72.796875 
Q 23.390625 58.015625 20.875 47.625 
Q 18.359375 37.25 18.359375 25.640625 
Q 18.359375 17.625 19.84375 9.21875 
Q 21.34375 0.828125 23.921875 -6.734375 
Q 25.640625 -11.71875 29.9375 -21.046875 
z
" id="Arial-BoldMT-40"/>
      <path d="M 7.328125 71.578125 
L 35.9375 71.578125 
Q 44.4375 71.578125 48.609375 70.875 
Q 52.78125 70.171875 56.078125 67.921875 
Q 59.375 65.671875 61.5625 61.9375 
Q 63.765625 58.203125 63.765625 53.5625 
Q 63.765625 48.53125 61.046875 44.328125 
Q 58.34375 40.140625 53.71875 38.03125 
Q 60.25 36.140625 63.765625 31.546875 
Q 67.28125 26.953125 67.28125 20.75 
Q 67.28125 15.875 65.015625 11.25 
Q 62.75 6.640625 58.8125 3.875 
Q 54.890625 1.125 49.125 0.484375 
Q 45.515625 0.09375 31.6875 0 
L 7.328125 0 
z
M 21.78125 59.671875 
L 21.78125 43.109375 
L 31.25 43.109375 
Q 39.703125 43.109375 41.75 43.359375 
Q 45.453125 43.796875 47.578125 45.921875 
Q 49.703125 48.046875 49.703125 51.515625 
Q 49.703125 54.828125 47.875 56.90625 
Q 46.046875 58.984375 42.4375 59.421875 
Q 40.28125 59.671875 30.078125 59.671875 
z
M 21.78125 31.203125 
L 21.78125 12.0625 
L 35.15625 12.0625 
Q 42.96875 12.0625 45.0625 12.5 
Q 48.296875 13.09375 50.3125 15.359375 
Q 52.34375 17.625 52.34375 21.4375 
Q 52.34375 24.65625 50.78125 26.90625 
Q 49.21875 29.15625 46.265625 30.171875 
Q 43.3125 31.203125 33.453125 31.203125 
z
" id="Arial-BoldMT-66"/>
      <path d="M 3.375 -21.046875 
Q 7.421875 -12.359375 9.078125 -7.71875 
Q 10.75 -3.078125 12.15625 2.96875 
Q 13.578125 9.03125 14.25 14.46875 
Q 14.9375 19.921875 14.9375 25.640625 
Q 14.9375 37.25 12.453125 47.625 
Q 9.96875 58.015625 3.265625 72.796875 
L 12.59375 72.796875 
Q 19.96875 62.3125 24.046875 50.53125 
Q 28.125 38.765625 28.125 26.65625 
Q 28.125 16.453125 24.90625 4.78125 
Q 21.234375 -8.296875 12.84375 -21.046875 
z
" id="Arial-BoldMT-41"/>
     </defs>
     <g transform="translate(42.67125 374.002812)rotate(-90)scale(0.2 -0.2)">
      <use xlink:href="#Arial-BoldMT-67"/>
      <use x="72.216797" xlink:href="#Arial-BoldMT-69"/>
      <use x="138.916016" xlink:href="#Arial-BoldMT-76"/>
      <use x="200" xlink:href="#Arial-BoldMT-76"/>
      <use x="261.068359" xlink:href="#Arial-BoldMT-32"/>
      <use x="288.851562" xlink:href="#Arial-BoldMT-67"/>
      <use x="361.068359" xlink:href="#Arial-BoldMT-79"/>
      <use x="438.851562" xlink:href="#Arial-BoldMT-85"/>
      <use x="511.068359" xlink:href="#Arial-BoldMT-78"/>
      <use x="583.285156" xlink:href="#Arial-BoldMT-84"/>
      <use x="644.369141" xlink:href="#Arial-BoldMT-83"/>
      <use x="711.068359" xlink:href="#Arial-BoldMT-32"/>
      <use x="738.851562" xlink:href="#Arial-BoldMT-40"/>
      <use x="772.152344" xlink:href="#Arial-BoldMT-78"/>
      <use x="844.369141" xlink:href="#Arial-BoldMT-85"/>
      <use x="916.585938" xlink:href="#Arial-BoldMT-77"/>
      <use x="999.886719" xlink:href="#Arial-BoldMT-66"/>
      <use x="1072.103516" xlink:href="#Arial-BoldMT-69"/>
      <use x="1138.802734" xlink:href="#Arial-BoldMT-82"/>
      <use x="1211.019531" xlink:href="#Arial-BoldMT-83"/>
      <use x="1277.71875" xlink:href="#Arial-BoldMT-41"/>
     </g>
    </g>
   </g>
   <g id="line2d_14">
    <path clip-path="url(#p52a9caa6a6)" d="M 111.59 433.16125 
L 123.426364 433.16125 
L 135.262727 433.16125 
L 147.099091 433.16125 
L 158.935455 412.02125 
L 170.771818 420.47725 
L 182.608182 419.067917 
L 194.444545 396.92125 
L 206.280909 398.80875 
L 218.117273 400.276806 
L 229.953636 397.22325 
L 241.79 402.412159 
L 253.626364 412.02125 
L 265.462727 423.404327 
L 277.299091 412.02125 
L 289.135455 419.067917 
L 300.971818 415.985 
L 312.808182 416.995368 
L 324.644545 419.067917 
L 336.480909 417.584408 
L 348.317273 417.30625 
L 360.153636 421.08125 
L 371.99 423.552159 
L 383.826364 427.646467 
L 395.662727 419.94875 
L 407.499091 406.10205 
L 419.335455 399.825096 
L 431.171818 402.625694 
L 443.008182 412.02125 
L 454.844545 401.086767 
L 466.680909 402.155917 
L 478.517273 395.654798 
L 490.353636 404.09375 
L 502.19 399.849735 
" style="fill:none;stroke:#08306b;stroke-linecap:square;stroke-width:1.5;"/>
   </g>
   <g id="line2d_15">
    <path clip-path="url(#p52a9caa6a6)" d="M 111.59 433.16125 
L 123.426364 433.16125 
L 135.262727 422.59125 
L 147.099091 419.067917 
L 158.935455 422.59125 
L 170.771818 399.33725 
L 182.608182 394.404583 
L 194.444545 418.06125 
L 206.280909 406.73625 
L 218.117273 412.02125 
L 229.953636 418.36325 
L 241.79 421.630341 
L 253.626364 426.114583 
L 265.462727 423.404327 
L 277.299091 416.55125 
L 289.135455 421.886583 
L 300.971818 414.66375 
L 312.808182 419.482426 
L 324.644545 415.544583 
L 336.480909 418.697039 
L 348.317273 417.30625 
L 360.153636 416.047917 
L 371.99 417.786705 
L 383.826364 416.616902 
L 395.662727 417.30625 
L 407.499091 416.24925 
L 419.335455 416.086635 
L 431.171818 416.719028 
L 443.008182 418.81625 
L 454.844545 417.124009 
L 466.680909 412.02125 
L 478.517273 409.975444 
L 490.353636 408.718125 
L 502.19 407.537008 
" style="fill:none;stroke:#08306b;stroke-linecap:square;stroke-width:1.5;"/>
   </g>
   <g id="line2d_16">
    <path clip-path="url(#p52a9caa6a6)" d="M 111.59 179.48125 
L 123.426364 285.18125 
L 135.262727 306.32125 
L 147.099091 369.74125 
L 158.935455 375.02625 
L 170.771818 403.56525 
L 182.608182 429.637917 
L 194.444545 430.14125 
L 206.280909 427.87625 
L 218.117273 419.067917 
L 229.953636 418.36325 
L 241.79 408.177614 
L 253.626364 413.782917 
L 265.462727 420.152019 
L 277.299091 418.06125 
L 289.135455 416.24925 
L 300.971818 417.30625 
L 312.808182 415.751838 
L 324.644545 419.067917 
L 336.480909 414.246513 
L 348.317273 412.02125 
L 360.153636 410.007917 
L 371.99 412.982159 
L 383.826364 417.536033 
L 395.662727 417.30625 
L 407.499091 417.94045 
L 419.335455 418.525865 
L 431.171818 425.33162 
L 443.008182 420.32625 
L 454.844545 420.039871 
L 466.680909 418.36325 
L 478.517273 406.565766 
L 490.353636 411.360625 
L 502.19 406.896402 
" style="fill:none;stroke:#08306b;stroke-linecap:square;stroke-width:1.5;"/>
   </g>
   <g id="line2d_17">
    <path clip-path="url(#p52a9caa6a6)" d="M 111.59 433.16125 
L 123.426364 433.16125 
L 135.262727 422.59125 
L 147.099091 412.02125 
L 158.935455 422.59125 
L 170.771818 420.47725 
L 182.608182 426.114583 
L 194.444545 427.12125 
L 206.280909 427.87625 
L 218.117273 409.672361 
L 229.953636 403.56525 
L 241.79 404.333977 
L 253.626364 412.02125 
L 265.462727 413.647404 
L 277.299091 401.45125 
L 289.135455 399.33725 
L 300.971818 402.7725 
L 312.808182 409.534191 
L 324.644545 410.846806 
L 336.480909 408.683355 
L 348.317273 403.56525 
L 360.153636 391.887917 
L 371.99 400.490341 
L 383.826364 410.182989 
L 395.662727 411.140417 
L 407.499091 416.24925 
L 419.335455 415.273558 
L 431.171818 415.153102 
L 443.008182 415.79625 
L 454.844545 417.852974 
L 466.680909 411.316583 
L 478.517273 419.52254 
L 490.353636 417.966875 
L 502.19 417.146098 
" style="fill:none;stroke:#08306b;stroke-linecap:square;stroke-width:1.5;"/>
   </g>
   <g id="line2d_18">
    <path clip-path="url(#p52a9caa6a6)" d="M 111.59 433.16125 
L 123.426364 433.16125 
L 135.262727 422.59125 
L 147.099091 426.114583 
L 158.935455 427.87625 
L 170.771818 420.47725 
L 182.608182 422.59125 
L 194.444545 409.00125 
L 206.280909 401.45125 
L 218.117273 404.974583 
L 229.953636 412.02125 
L 241.79 415.864886 
L 253.626364 420.829583 
L 265.462727 420.152019 
L 277.299091 425.61125 
L 289.135455 428.93325 
L 300.971818 425.23375 
L 312.808182 423.213015 
L 324.644545 410.846806 
L 336.480909 406.458092 
L 348.317273 395.10925 
L 360.153636 392.894583 
L 371.99 398.568523 
L 383.826364 408.344728 
L 395.662727 420.829583 
L 407.499091 425.55085 
L 419.335455 428.282788 
L 431.171818 426.114583 
L 443.008182 423.34625 
L 454.844545 420.768836 
L 466.680909 412.725917 
L 478.517273 407.247702 
L 490.353636 408.718125 
L 502.19 403.693371 
" style="fill:none;stroke:#08306b;stroke-linecap:square;stroke-width:1.5;"/>
   </g>
   <g id="line2d_19">
    <path clip-path="url(#p52a9caa6a6)" d="M 111.59 433.16125 
L 123.426364 412.02125 
L 135.262727 422.59125 
L 147.099091 390.88125 
L 158.935455 406.73625 
L 170.771818 357.05725 
L 182.608182 352.124583 
L 194.444545 366.72125 
L 206.280909 372.38375 
L 218.117273 379.136806 
L 229.953636 386.65325 
L 241.79 408.177614 
L 253.626364 404.974583 
L 265.462727 418.525865 
L 277.299091 413.53125 
L 289.135455 409.202583 
L 300.971818 415.985 
L 312.808182 416.995368 
L 324.644545 408.497917 
L 336.480909 415.359145 
L 348.317273 419.42025 
L 360.153636 418.06125 
L 371.99 415.864886 
L 383.826364 416.616902 
L 395.662727 419.94875 
L 407.499091 423.01405 
L 419.335455 414.460481 
L 431.171818 409.672361 
L 443.008182 403.71625 
L 454.844545 398.170905 
L 466.680909 401.45125 
L 478.517273 411.339315 
L 490.353636 412.02125 
L 502.19 414.583674 
" style="fill:none;stroke:#08306b;stroke-linecap:square;stroke-width:1.5;"/>
   </g>
   <g id="line2d_20">
    <path clip-path="url(#p52a9caa6a6)" d="M 111.59 306.32125 
L 123.426364 369.74125 
L 135.262727 390.88125 
L 147.099091 383.834583 
L 158.935455 380.31125 
L 170.771818 395.10925 
L 182.608182 426.114583 
L 194.444545 421.08125 
L 206.280909 427.87625 
L 218.117273 428.463472 
L 229.953636 428.93325 
L 241.79 425.473977 
L 253.626364 429.637917 
L 265.462727 423.404327 
L 277.299091 415.04125 
L 289.135455 407.79325 
L 300.971818 404.09375 
L 312.808182 403.316544 
L 324.644545 407.323472 
L 336.480909 407.570724 
L 348.317273 408.85025 
L 360.153636 404.974583 
L 371.99 408.177614 
L 383.826364 412.94038 
L 395.662727 415.544583 
L 407.499091 417.94045 
L 419.335455 418.525865 
L 431.171818 417.501991 
L 443.008182 422.59125 
L 454.844545 413.479181 
L 466.680909 407.79325 
L 478.517273 402.474153 
L 490.353636 401.45125 
L 502.19 404.333977 
" style="fill:none;stroke:#08306b;stroke-linecap:square;stroke-width:1.5;"/>
   </g>
   <g id="line2d_21">
    <path clip-path="url(#p52a9caa6a6)" d="M 111.59 433.16125 
L 123.426364 390.88125 
L 135.262727 412.02125 
L 147.099091 433.16125 
L 158.935455 433.16125 
L 170.771818 433.16125 
L 182.608182 433.16125 
L 194.444545 433.16125 
L 206.280909 430.51875 
L 218.117273 426.114583 
L 229.953636 422.59125 
L 241.79 406.255795 
L 253.626364 408.497917 
L 265.462727 403.890481 
L 277.299091 413.53125 
L 289.135455 423.295917 
L 300.971818 418.6275 
L 312.808182 423.213015 
L 324.644545 424.940139 
L 336.480909 424.260197 
L 348.317273 424.70525 
L 360.153636 424.10125 
L 371.99 419.708523 
L 383.826364 408.344728 
L 395.662727 409.37875 
L 407.499091 409.48445 
L 419.335455 412.02125 
L 431.171818 406.540509 
L 443.008182 405.22625 
L 454.844545 406.918491 
L 466.680909 402.155917 
L 478.517273 399.746411 
L 490.353636 399.469375 
L 502.19 408.81822 
" style="fill:none;stroke:#08306b;stroke-linecap:square;stroke-width:1.5;"/>
   </g>
   <g id="line2d_22">
    <path clip-path="url(#p52a9caa6a6)" d="M 111.59 433.16125 
L 123.426364 412.02125 
L 135.262727 412.02125 
L 147.099091 419.067917 
L 158.935455 412.02125 
L 170.771818 403.56525 
L 182.608182 419.067917 
L 194.444545 418.06125 
L 206.280909 414.66375 
L 218.117273 397.927917 
L 229.953636 407.79325 
L 241.79 417.786705 
L 253.626364 417.30625 
L 265.462727 413.647404 
L 277.299091 407.49125 
L 289.135455 416.24925 
L 300.971818 417.30625 
L 312.808182 410.777721 
L 324.644545 413.195694 
L 336.480909 409.795987 
L 348.317273 407.79325 
L 360.153636 410.007917 
L 371.99 403.373068 
L 383.826364 405.587337 
L 395.662727 410.259583 
L 407.499091 416.24925 
L 419.335455 420.965096 
L 431.171818 422.199769 
L 443.008182 417.30625 
L 454.844545 414.937112 
L 466.680909 410.611917 
L 478.517273 413.385121 
L 490.353636 419.94875 
L 502.19 413.943068 
" style="fill:none;stroke:#08306b;stroke-linecap:square;stroke-width:1.5;"/>
   </g>
   <g id="line2d_23">
    <path clip-path="url(#p52a9caa6a6)" d="M 111.59 306.32125 
L 123.426364 348.60125 
L 135.262727 380.31125 
L 147.099091 376.787917 
L 158.935455 417.30625 
L 170.771818 412.02125 
L 182.608182 422.59125 
L 194.444545 430.14125 
L 206.280909 427.87625 
L 218.117273 423.765694 
L 229.953636 426.81925 
L 241.79 419.708523 
L 253.626364 408.497917 
L 265.462727 403.890481 
L 277.299091 404.47125 
L 289.135455 413.430583 
L 300.971818 408.0575 
L 312.808182 407.047132 
L 324.644545 409.672361 
L 336.480909 409.795987 
L 348.317273 413.07825 
L 360.153636 421.08125 
L 371.99 424.513068 
L 383.826364 429.484728 
L 395.662727 426.114583 
L 407.499091 413.71245 
L 419.335455 418.525865 
L 431.171818 412.804213 
L 443.008182 418.06125 
L 454.844545 411.292284 
L 466.680909 414.839917 
L 478.517273 410.657379 
L 490.353636 419.288125 
L 502.19 412.02125 
" style="fill:none;stroke:#08306b;stroke-linecap:square;stroke-width:1.5;"/>
   </g>
   <g id="line2d_24">
    <path clip-path="url(#p52a9caa6a6)" d="M 111.59 306.32125 
L 123.426364 242.90125 
L 135.262727 306.32125 
L 147.099091 341.554583 
L 158.935455 359.17125 
L 170.771818 310.54925 
L 182.608182 285.18125 
L 194.444545 318.40125 
L 206.280909 306.32125 
L 218.117273 325.112361 
L 229.953636 323.23325 
L 241.79 321.695795 
L 253.626364 304.559583 
L 265.462727 312.825865 
L 277.299091 324.44125 
L 289.135455 319.00525 
L 300.971818 326.14 
L 312.808182 324.974191 
L 324.644545 314.542361 
L 336.480909 304.095987 
L 348.317273 305.26425 
L 360.153636 313.367917 
L 371.99 313.047614 
L 383.826364 319.189076 
L 395.662727 314.24875 
L 407.499091 309.70365 
L 419.335455 301.442788 
L 431.171818 303.189398 
L 443.008182 302.54625 
L 454.844545 299.031595 
L 466.680909 309.844583 
L 478.517273 317.914153 
L 490.353636 338.03125 
L 502.19 360.132159 
" style="fill:none;stroke:#4a98c9;stroke-linecap:square;stroke-width:1.5;"/>
   </g>
   <g id="line2d_25">
    <path clip-path="url(#p52a9caa6a6)" d="M 111.59 306.32125 
L 123.426364 327.46125 
L 135.262727 359.17125 
L 147.099091 299.274583 
L 158.935455 353.88625 
L 170.771818 340.14525 
L 182.608182 323.937917 
L 194.444545 327.46125 
L 206.280909 316.89125 
L 218.117273 287.530139 
L 229.953636 264.04125 
L 241.79 304.399432 
L 253.626364 311.60625 
L 265.462727 338.844327 
L 277.299091 347.09125 
L 289.135455 357.05725 
L 300.971818 335.38875 
L 312.808182 333.678897 
L 324.644545 320.414583 
L 336.480909 298.532829 
L 348.317273 305.26425 
L 360.153636 299.274583 
L 371.99 309.203977 
L 383.826364 309.078641 
L 395.662727 318.652917 
L 407.499091 311.39485 
L 419.335455 310.386635 
L 431.171818 323.546435 
L 443.008182 328.97125 
L 454.844545 323.816422 
L 466.680909 328.165917 
L 478.517273 334.96254 
L 490.353636 351.904375 
L 502.19 366.53822 
" style="fill:none;stroke:#4a98c9;stroke-linecap:square;stroke-width:1.5;"/>
   </g>
   <g id="line2d_26">
    <path clip-path="url(#p52a9caa6a6)" d="M 111.59 306.32125 
L 123.426364 264.04125 
L 135.262727 242.90125 
L 147.099091 306.32125 
L 158.935455 322.17625 
L 170.771818 323.23325 
L 182.608182 330.984583 
L 194.444545 327.46125 
L 206.280909 327.46125 
L 218.117273 320.414583 
L 229.953636 327.46125 
L 241.79 306.32125 
L 253.626364 311.60625 
L 265.462727 314.452019 
L 277.299091 313.87125 
L 289.135455 314.77725 
L 300.971818 323.4975 
L 312.808182 337.409485 
L 324.644545 341.554583 
L 336.480909 328.573882 
L 348.317273 329.57525 
L 360.153636 329.474583 
L 371.99 326.500341 
L 383.826364 309.078641 
L 395.662727 310.725417 
L 407.499091 321.54205 
L 419.335455 309.573558 
L 431.171818 318.848657 
L 443.008182 310.09625 
L 454.844545 307.779181 
L 466.680909 320.414583 
L 478.517273 322.687702 
L 490.353636 342.655625 
L 502.19 365.257008 
" style="fill:none;stroke:#4a98c9;stroke-linecap:square;stroke-width:1.5;"/>
   </g>
   <g id="line2d_27">
    <path clip-path="url(#p52a9caa6a6)" d="M 111.59 306.32125 
L 123.426364 348.60125 
L 135.262727 359.17125 
L 147.099091 355.647917 
L 158.935455 385.59625 
L 170.771818 373.96925 
L 182.608182 362.694583 
L 194.444545 345.58125 
L 206.280909 343.31625 
L 218.117273 299.274583 
L 229.953636 316.89125 
L 241.79 335.148523 
L 253.626364 334.507917 
L 265.462727 320.956635 
L 277.299091 319.91125 
L 289.135455 303.502583 
L 300.971818 302.3575 
L 312.808182 308.808309 
L 324.644545 318.065694 
L 336.480909 324.123355 
L 348.317273 317.94825 
L 360.153636 307.327917 
L 371.99 317.852159 
L 383.826364 321.027337 
L 395.662727 306.32125 
L 407.499091 316.46845 
L 419.335455 307.134327 
L 431.171818 300.057546 
L 443.008182 298.01625 
L 454.844545 297.573664 
L 466.680909 303.502583 
L 478.517273 326.097379 
L 490.353636 336.71 
L 502.19 355.647917 
" style="fill:none;stroke:#4a98c9;stroke-linecap:square;stroke-width:1.5;"/>
   </g>
   <g id="line2d_28">
    <path clip-path="url(#p52a9caa6a6)" d="M 111.59 306.32125 
L 123.426364 390.88125 
L 135.262727 369.74125 
L 147.099091 341.554583 
L 158.935455 322.17625 
L 170.771818 331.68925 
L 182.608182 306.32125 
L 194.444545 291.22125 
L 206.280909 274.61125 
L 218.117273 273.436806 
L 229.953636 291.52325 
L 241.79 302.477614 
L 253.626364 323.937917 
L 265.462727 320.956635 
L 277.299091 316.89125 
L 289.135455 334.507917 
L 300.971818 327.46125 
L 312.808182 329.948309 
L 324.644545 321.589028 
L 336.480909 305.208618 
L 348.317273 291.52325 
L 360.153636 298.267917 
L 371.99 297.673068 
L 383.826364 317.350815 
L 395.662727 330.10375 
L 407.499091 334.22605 
L 419.335455 336.405096 
L 431.171818 335.29088 
L 443.008182 321.42125 
L 454.844545 304.863319 
L 466.680909 312.66325 
L 478.517273 309.730927 
L 490.353636 322.836875 
L 502.19 343.476402 
" style="fill:none;stroke:#4a98c9;stroke-linecap:square;stroke-width:1.5;"/>
   </g>
   <g id="line2d_29">
    <path clip-path="url(#p52a9caa6a6)" d="M 111.59 306.32125 
L 123.426364 306.32125 
L 135.262727 390.88125 
L 147.099091 334.507917 
L 158.935455 279.89625 
L 170.771818 293.63725 
L 182.608182 267.564583 
L 194.444545 273.10125 
L 206.280909 287.82375 
L 218.117273 287.530139 
L 229.953636 304.20725 
L 241.79 277.493977 
L 253.626364 286.942917 
L 265.462727 293.312019 
L 277.299091 324.44125 
L 289.135455 313.367917 
L 300.971818 332.74625 
L 312.808182 341.140074 
L 324.644545 355.647917 
L 336.480909 356.389671 
L 348.317273 344.37325 
L 360.153636 353.634583 
L 371.99 342.835795 
L 383.826364 328.38038 
L 395.662727 308.96375 
L 407.499091 306.32125 
L 419.335455 299.816635 
L 431.171818 300.057546 
L 443.008182 289.71125 
L 454.844545 309.966078 
L 466.680909 327.46125 
L 478.517273 341.781895 
L 490.353636 353.225625 
L 502.19 359.491553 
" style="fill:none;stroke:#4a98c9;stroke-linecap:square;stroke-width:1.5;"/>
   </g>
   <g id="line2d_30">
    <path clip-path="url(#p52a9caa6a6)" d="M 111.59 179.48125 
L 123.426364 264.04125 
L 135.262727 285.18125 
L 147.099091 235.854583 
L 158.935455 295.75125 
L 170.771818 314.77725 
L 182.608182 348.60125 
L 194.444545 321.42125 
L 206.280909 345.95875 
L 218.117273 339.205694 
L 229.953636 331.68925 
L 241.79 335.148523 
L 253.626364 323.937917 
L 265.462727 314.452019 
L 277.299091 307.83125 
L 289.135455 310.54925 
L 300.971818 307.6425 
L 312.808182 295.129485 
L 324.644545 300.449028 
L 336.480909 308.546513 
L 348.317273 321.11925 
L 360.153636 313.367917 
L 371.99 319.773977 
L 383.826364 310.916902 
L 395.662727 316.010417 
L 407.499091 319.85085 
L 419.335455 312.825865 
L 431.171818 307.887176 
L 443.008182 302.54625 
L 454.844545 302.676422 
L 466.680909 294.341917 
L 478.517273 319.95996 
L 490.353636 325.479375 
L 502.19 351.80428 
" style="fill:none;stroke:#4a98c9;stroke-linecap:square;stroke-width:1.5;"/>
   </g>
   <g id="line2d_31">
    <path clip-path="url(#p52a9caa6a6)" d="M 111.59 306.32125 
L 123.426364 264.04125 
L 135.262727 316.89125 
L 147.099091 341.554583 
L 158.935455 327.46125 
L 170.771818 348.60125 
L 182.608182 341.554583 
L 194.444545 339.54125 
L 206.280909 338.03125 
L 218.117273 346.252361 
L 229.953636 340.14525 
L 241.79 337.070341 
L 253.626364 332.74625 
L 265.462727 329.087404 
L 277.299091 319.91125 
L 289.135455 326.051917 
L 300.971818 344.6375 
L 312.808182 361.036544 
L 324.644545 362.694583 
L 336.480909 360.840197 
L 348.317273 368.68425 
L 360.153636 355.647917 
L 371.99 351.483977 
L 383.826364 344.005598 
L 395.662727 324.81875 
L 407.499091 338.45405 
L 419.335455 329.900481 
L 431.171818 318.848657 
L 443.008182 316.13625 
L 454.844545 309.966078 
L 466.680909 319.00525 
L 478.517273 322.005766 
L 490.353636 332.085625 
L 502.19 360.772765 
" style="fill:none;stroke:#4a98c9;stroke-linecap:square;stroke-width:1.5;"/>
   </g>
   <g id="line2d_32">
    <path clip-path="url(#p52a9caa6a6)" d="M 111.59 306.32125 
L 123.426364 327.46125 
L 135.262727 295.75125 
L 147.099091 278.134583 
L 158.935455 285.18125 
L 170.771818 280.95325 
L 182.608182 316.89125 
L 194.444545 300.28125 
L 206.280909 314.24875 
L 218.117273 334.507917 
L 229.953636 316.89125 
L 241.79 312.086705 
L 253.626364 309.844583 
L 265.462727 314.452019 
L 277.299091 300.28125 
L 289.135455 317.595917 
L 300.971818 308.96375 
L 312.808182 320.000074 
L 324.644545 314.542361 
L 336.480909 318.560197 
L 348.317273 323.23325 
L 360.153636 332.494583 
L 371.99 333.226705 
L 383.826364 327.46125 
L 395.662727 318.652917 
L 407.499091 310.54925 
L 419.335455 307.134327 
L 431.171818 313.367917 
L 443.008182 319.15625 
L 454.844545 318.713664 
L 466.680909 327.46125 
L 478.517273 339.054153 
L 490.353636 357.189375 
L 502.19 367.178826 
" style="fill:none;stroke:#4a98c9;stroke-linecap:square;stroke-width:1.5;"/>
   </g>
   <g id="line2d_33">
    <path clip-path="url(#p52a9caa6a6)" d="M 111.59 179.48125 
L 123.426364 179.48125 
L 135.262727 253.47125 
L 147.099091 271.087917 
L 158.935455 269.32625 
L 170.771818 323.23325 
L 182.608182 338.03125 
L 194.444545 345.58125 
L 206.280909 348.60125 
L 218.117273 325.112361 
L 229.953636 312.66325 
L 241.79 310.164886 
L 253.626364 313.367917 
L 265.462727 316.078173 
L 277.299091 318.40125 
L 289.135455 310.54925 
L 300.971818 310.285 
L 312.808182 303.834191 
L 324.644545 298.100139 
L 336.480909 309.659145 
L 348.317273 304.20725 
L 360.153636 323.434583 
L 371.99 332.265795 
L 383.826364 325.622989 
L 395.662727 316.010417 
L 407.499091 315.62285 
L 419.335455 325.835096 
L 431.171818 323.546435 
L 443.008182 327.46125 
L 454.844545 313.610905 
L 466.680909 328.165917 
L 478.517273 339.054153 
L 490.353636 346.619375 
L 502.19 371.663068 
" style="fill:none;stroke:#4a98c9;stroke-linecap:square;stroke-width:1.5;"/>
   </g>
   <g id="line2d_34">
    <path clip-path="url(#p52a9caa6a6)" d="M 111.59 306.32125 
L 123.426364 200.62125 
L 135.262727 264.04125 
L 147.099091 256.994583 
L 158.935455 242.90125 
L 170.771818 255.58525 
L 182.608182 242.90125 
L 194.444545 261.02125 
L 206.280909 258.75625 
L 218.117273 245.250139 
L 229.953636 257.69925 
L 241.79 260.197614 
L 253.626364 267.564583 
L 265.462727 252.658173 
L 277.299091 250.45125 
L 289.135455 258.403917 
L 300.971818 258.75625 
L 312.808182 254.093015 
L 324.644545 267.564583 
L 336.480909 262.928618 
L 348.317273 260.87025 
L 360.153636 243.907917 
L 371.99 256.353977 
L 383.826364 269.556033 
L 395.662727 264.04125 
L 407.499091 266.57805 
L 419.335455 272.172019 
L 431.171818 267.956065 
L 443.008182 261.02125 
L 454.844545 266.957112 
L 466.680909 271.792583 
L 478.517273 294.046411 
L 490.353636 324.81875 
L 502.19 349.882462 
" style="fill:none;stroke:#d0e1f2;stroke-linecap:square;stroke-width:1.5;"/>
   </g>
   <g id="line2d_35">
    <path clip-path="url(#p52a9caa6a6)" d="M 111.59 52.64125 
L 123.426364 179.48125 
L 135.262727 211.19125 
L 147.099091 221.76125 
L 158.935455 258.75625 
L 170.771818 259.81325 
L 182.608182 267.564583 
L 194.444545 258.00125 
L 206.280909 250.82875 
L 218.117273 256.994583 
L 229.953636 249.24325 
L 241.79 254.432159 
L 253.626364 286.942917 
L 265.462727 281.928942 
L 277.299091 271.59125 
L 289.135455 256.994583 
L 300.971818 270.6475 
L 312.808182 254.093015 
L 324.644545 245.250139 
L 336.480909 260.703355 
L 348.317273 266.15525 
L 360.153636 260.014583 
L 371.99 257.314886 
L 383.826364 258.526467 
L 395.662727 264.04125 
L 407.499091 265.73245 
L 419.335455 259.975865 
L 431.171818 254.645694 
L 443.008182 261.77625 
L 454.844545 267.686078 
L 466.680909 283.06725 
L 478.517273 297.456089 
L 490.353636 328.7825 
L 502.19 369.74125 
" style="fill:none;stroke:#d0e1f2;stroke-linecap:square;stroke-width:1.5;"/>
   </g>
   <g id="line2d_36">
    <path clip-path="url(#p52a9caa6a6)" d="M 111.59 306.32125 
L 123.426364 264.04125 
L 135.262727 232.33125 
L 147.099091 221.76125 
L 158.935455 242.90125 
L 170.771818 259.81325 
L 182.608182 253.47125 
L 194.444545 273.10125 
L 206.280909 258.75625 
L 218.117273 266.390139 
L 229.953636 274.61125 
L 241.79 246.744886 
L 253.626364 258.75625 
L 265.462727 255.910481 
L 277.299091 259.51125 
L 289.135455 262.631917 
L 300.971818 270.6475 
L 312.808182 276.476544 
L 324.644545 273.436806 
L 336.480909 268.491776 
L 348.317273 262.98425 
L 360.153636 252.967917 
L 371.99 259.236705 
L 383.826364 253.930815 
L 395.662727 255.232917 
L 407.499091 258.12205 
L 419.335455 255.097404 
L 431.171818 260.909398 
L 443.008182 264.04125 
L 454.844545 282.265388 
L 466.680909 282.362583 
L 478.517273 302.229637 
L 490.353636 322.836875 
L 502.19 356.929129 
" style="fill:none;stroke:#d0e1f2;stroke-linecap:square;stroke-width:1.5;"/>
   </g>
   <g id="line2d_37">
    <path clip-path="url(#p52a9caa6a6)" d="M 111.59 179.48125 
L 123.426364 221.76125 
L 135.262727 232.33125 
L 147.099091 228.807917 
L 158.935455 227.04625 
L 170.771818 259.81325 
L 182.608182 256.994583 
L 194.444545 258.00125 
L 206.280909 240.25875 
L 218.117273 268.739028 
L 229.953636 261.92725 
L 241.79 250.588523 
L 253.626364 256.994583 
L 265.462727 255.910481 
L 277.299091 250.45125 
L 289.135455 271.087917 
L 300.971818 262.72 
L 312.808182 257.823603 
L 324.644545 259.343472 
L 336.480909 267.379145 
L 348.317273 265.09825 
L 360.153636 248.94125 
L 371.99 253.47125 
L 383.826364 257.607337 
L 395.662727 258.75625 
L 407.499091 261.50445 
L 419.335455 257.536635 
L 431.171818 260.126435 
L 443.008182 270.08125 
L 454.844545 269.872974 
L 466.680909 291.52325 
L 478.517273 304.957379 
L 490.353636 337.370625 
L 502.19 362.053977 
" style="fill:none;stroke:#d0e1f2;stroke-linecap:square;stroke-width:1.5;"/>
   </g>
   <g id="line2d_38">
    <path clip-path="url(#p52a9caa6a6)" d="M 111.59 179.48125 
L 123.426364 221.76125 
L 135.262727 221.76125 
L 147.099091 228.807917 
L 158.935455 248.18625 
L 170.771818 230.21725 
L 182.608182 235.854583 
L 194.444545 261.02125 
L 206.280909 242.90125 
L 218.117273 249.947917 
L 229.953636 251.35725 
L 241.79 262.119432 
L 253.626364 251.709583 
L 265.462727 257.536635 
L 277.299091 250.45125 
L 289.135455 259.81325 
L 300.971818 266.68375 
L 312.808182 269.015368 
L 324.644545 272.262361 
L 336.480909 272.942303 
L 348.317273 253.47125 
L 360.153636 254.98125 
L 371.99 260.197614 
L 383.826364 261.283859 
L 395.662727 270.207083 
L 407.499091 267.42365 
L 419.335455 258.349712 
L 431.171818 267.956065 
L 443.008182 267.06125 
L 454.844545 272.788836 
L 466.680909 273.906583 
L 478.517273 304.957379 
L 490.353636 320.194375 
L 502.19 354.366705 
" style="fill:none;stroke:#d0e1f2;stroke-linecap:square;stroke-width:1.5;"/>
   </g>
   <g id="line2d_39">
    <path clip-path="url(#p52a9caa6a6)" d="M 111.59 179.48125 
L 123.426364 179.48125 
L 135.262727 211.19125 
L 147.099091 228.807917 
L 158.935455 232.33125 
L 170.771818 230.21725 
L 182.608182 218.237917 
L 194.444545 239.88125 
L 206.280909 250.82875 
L 218.117273 233.505694 
L 229.953636 268.26925 
L 241.79 262.119432 
L 253.626364 269.32625 
L 265.462727 265.667404 
L 277.299091 274.61125 
L 289.135455 265.450583 
L 300.971818 269.32625 
L 312.808182 255.336544 
L 324.644545 273.436806 
L 336.480909 279.618092 
L 348.317273 260.87025 
L 360.153636 263.034583 
L 371.99 268.845795 
L 383.826364 266.798641 
L 395.662727 260.517917 
L 407.499091 266.57805 
L 419.335455 257.536635 
L 431.171818 273.436806 
L 443.008182 273.85625 
L 454.844545 268.415043 
L 466.680909 269.678583 
L 478.517273 297.456089 
L 490.353636 319.53375 
L 502.19 356.288523 
" style="fill:none;stroke:#d0e1f2;stroke-linecap:square;stroke-width:1.5;"/>
   </g>
   <g id="line2d_40">
    <path clip-path="url(#p52a9caa6a6)" d="M 111.59 179.48125 
L 123.426364 179.48125 
L 135.262727 221.76125 
L 147.099091 221.76125 
L 158.935455 227.04625 
L 170.771818 259.81325 
L 182.608182 271.087917 
L 194.444545 261.02125 
L 206.280909 269.32625 
L 218.117273 252.296806 
L 229.953636 268.26925 
L 241.79 279.415795 
L 253.626364 267.564583 
L 265.462727 268.919712 
L 277.299091 259.51125 
L 289.135455 271.087917 
L 300.971818 268.005 
L 312.808182 267.771838 
L 324.644545 255.820139 
L 336.480909 261.815987 
L 348.317273 265.09825 
L 360.153636 269.074583 
L 371.99 269.806705 
L 383.826364 263.12212 
L 395.662727 268.445417 
L 407.499091 263.19565 
L 419.335455 264.04125 
L 431.171818 268.739028 
L 443.008182 267.81625 
L 454.844545 264.04125 
L 466.680909 276.72525 
L 478.517273 289.954798 
L 490.353636 310.285 
L 502.19 344.757614 
" style="fill:none;stroke:#d0e1f2;stroke-linecap:square;stroke-width:1.5;"/>
   </g>
   <g id="line2d_41">
    <path clip-path="url(#p52a9caa6a6)" d="M 111.59 179.48125 
L 123.426364 264.04125 
L 135.262727 242.90125 
L 147.099091 242.90125 
L 158.935455 237.61625 
L 170.771818 264.04125 
L 182.608182 256.994583 
L 194.444545 245.92125 
L 206.280909 261.39875 
L 218.117273 252.296806 
L 229.953636 270.38325 
L 241.79 248.666705 
L 253.626364 260.517917 
L 265.462727 255.910481 
L 277.299091 261.02125 
L 289.135455 248.538583 
L 300.971818 264.04125 
L 312.808182 252.849485 
L 324.644545 264.04125 
L 336.480909 260.703355 
L 348.317273 270.38325 
L 360.153636 254.98125 
L 371.99 264.04125 
L 383.826364 250.254293 
L 395.662727 257.875417 
L 407.499091 264.88685 
L 419.335455 266.480481 
L 431.171818 258.560509 
L 443.008182 256.49125 
L 454.844545 259.667457 
L 466.680909 275.315917 
L 478.517273 300.865766 
L 490.353636 325.479375 
L 502.19 371.022462 
" style="fill:none;stroke:#d0e1f2;stroke-linecap:square;stroke-width:1.5;"/>
   </g>
   <g id="line2d_42">
    <path clip-path="url(#p52a9caa6a6)" d="M 111.59 179.48125 
L 123.426364 200.62125 
L 135.262727 253.47125 
L 147.099091 214.714583 
L 158.935455 232.33125 
L 170.771818 230.21725 
L 182.608182 239.377917 
L 194.444545 239.88125 
L 206.280909 258.75625 
L 218.117273 268.739028 
L 229.953636 255.58525 
L 241.79 264.04125 
L 253.626364 262.279583 
L 265.462727 262.415096 
L 277.299091 247.43125 
L 289.135455 272.49725 
L 300.971818 254.7925 
L 312.808182 264.04125 
L 324.644545 274.61125 
L 336.480909 264.04125 
L 348.317273 268.26925 
L 360.153636 265.047917 
L 371.99 266.923977 
L 383.826364 262.202989 
L 395.662727 259.637083 
L 407.499091 262.35005 
L 419.335455 265.667404 
L 431.171818 260.909398 
L 443.008182 261.77625 
L 454.844545 268.415043 
L 466.680909 283.06725 
L 478.517273 303.593508 
L 490.353636 330.10375 
L 502.19 362.694583 
" style="fill:none;stroke:#d0e1f2;stroke-linecap:square;stroke-width:1.5;"/>
   </g>
   <g id="line2d_43">
    <path clip-path="url(#p52a9caa6a6)" d="M 111.59 52.64125 
L 123.426364 158.34125 
L 135.262727 221.76125 
L 147.099091 228.807917 
L 158.935455 205.90625 
L 170.771818 251.35725 
L 182.608182 278.134583 
L 194.444545 254.98125 
L 206.280909 279.89625 
L 218.117273 256.994583 
L 229.953636 264.04125 
L 241.79 271.728523 
L 253.626364 265.802917 
L 265.462727 259.162788 
L 277.299091 253.47125 
L 289.135455 262.631917 
L 300.971818 252.15 
L 312.808182 256.580074 
L 324.644545 255.820139 
L 336.480909 248.464408 
L 348.317273 243.95825 
L 360.153636 261.02125 
L 371.99 267.884886 
L 383.826364 252.092554 
L 395.662727 256.994583 
L 407.499091 262.35005 
L 419.335455 264.04125 
L 431.171818 256.994583 
L 443.008182 263.28625 
L 454.844545 268.415043 
L 466.680909 286.590583 
L 478.517273 303.593508 
L 490.353636 340.67375 
L 502.19 374.225492 
" style="fill:none;stroke:#d0e1f2;stroke-linecap:square;stroke-width:1.5;"/>
   </g>
   <g id="line2d_44">
    <path clip-path="url(#p52a9caa6a6)" d="M 111.59 306.32125 
L 123.426364 390.88125 
L 135.262727 422.59125 
L 147.099091 419.067917 
L 158.935455 433.16125 
L 170.771818 420.47725 
L 182.608182 404.974583 
L 194.444545 384.84125 
L 206.280909 393.52375 
L 218.117273 372.090139 
L 229.953636 369.74125 
L 241.79 373.584886 
L 253.626364 392.642917 
L 265.462727 408.768942 
L 277.299091 410.51125 
L 289.135455 409.202583 
L 300.971818 409.37875 
L 312.808182 405.803603 
L 324.644545 410.846806 
L 336.480909 405.345461 
L 348.317273 402.50825 
L 360.153636 395.914583 
L 371.99 397.607614 
L 383.826364 400.072554 
L 395.662727 397.047083 
L 407.499091 399.33725 
L 419.335455 382.750481 
L 431.171818 385.400509 
L 443.008182 389.37125 
L 454.844545 387.965388 
L 466.680909 376.787917 
L 478.517273 377.924476 
L 490.353636 384.935625 
L 502.19 378.709735 
" style="fill:none;stroke:#1764ab;stroke-linecap:square;stroke-width:1.5;"/>
   </g>
   <g id="line2d_45">
    <path clip-path="url(#p52a9caa6a6)" d="M 111.59 433.16125 
L 123.426364 412.02125 
L 135.262727 412.02125 
L 147.099091 390.88125 
L 158.935455 396.16625 
L 170.771818 386.65325 
L 182.608182 369.74125 
L 194.444545 378.80125 
L 206.280909 377.66875 
L 218.117273 388.532361 
L 229.953636 407.79325 
L 241.79 415.864886 
L 253.626364 424.352917 
L 265.462727 423.404327 
L 277.299091 415.04125 
L 289.135455 421.886583 
L 300.971818 418.6275 
L 312.808182 412.02125 
L 324.644545 412.02125 
L 336.480909 399.782303 
L 348.317273 394.05225 
L 360.153636 394.907917 
L 371.99 398.568523 
L 383.826364 401.910815 
L 395.662727 401.45125 
L 407.499091 393.41805 
L 419.335455 385.189712 
L 431.171818 380.702731 
L 443.008182 383.33125 
L 454.844545 378.488836 
L 466.680909 385.243917 
L 478.517273 381.334153 
L 490.353636 390.88125 
L 502.19 386.397008 
" style="fill:none;stroke:#1764ab;stroke-linecap:square;stroke-width:1.5;"/>
   </g>
   <g id="line2d_46">
    <path clip-path="url(#p52a9caa6a6)" d="M 111.59 306.32125 
L 123.426364 348.60125 
L 135.262727 348.60125 
L 147.099091 362.694583 
L 158.935455 364.45625 
L 170.771818 399.33725 
L 182.608182 394.404583 
L 194.444545 399.94125 
L 206.280909 398.80875 
L 218.117273 407.323472 
L 229.953636 409.90725 
L 241.79 410.099432 
L 253.626364 406.73625 
L 265.462727 392.507404 
L 277.299091 392.39125 
L 289.135455 393.699917 
L 300.971818 400.13 
L 312.808182 404.560074 
L 324.644545 406.149028 
L 336.480909 398.669671 
L 348.317273 390.88125 
L 360.153636 393.90125 
L 371.99 391.842159 
L 383.826364 390.88125 
L 395.662727 398.80875 
L 407.499091 398.49165 
L 419.335455 407.142788 
L 431.171818 408.889398 
L 443.008182 412.77625 
L 454.844545 401.086767 
L 466.680909 400.746583 
L 478.517273 399.064476 
L 490.353636 391.541875 
L 502.19 391.521856 
" style="fill:none;stroke:#1764ab;stroke-linecap:square;stroke-width:1.5;"/>
   </g>
   <g id="line2d_47">
    <path clip-path="url(#p52a9caa6a6)" d="M 111.59 306.32125 
L 123.426364 327.46125 
L 135.262727 380.31125 
L 147.099091 397.927917 
L 158.935455 406.73625 
L 170.771818 420.47725 
L 182.608182 415.544583 
L 194.444545 402.96125 
L 206.280909 406.73625 
L 218.117273 404.974583 
L 229.953636 403.56525 
L 241.79 402.412159 
L 253.626364 389.119583 
L 265.462727 413.647404 
L 277.299091 396.92125 
L 289.135455 399.33725 
L 300.971818 394.845 
L 312.808182 405.803603 
L 324.644545 402.625694 
L 336.480909 405.345461 
L 348.317273 399.33725 
L 360.153636 398.934583 
L 371.99 405.294886 
L 383.826364 406.506467 
L 395.662727 406.73625 
L 407.499091 405.25645 
L 419.335455 402.264327 
L 431.171818 398.71088 
L 443.008182 396.92125 
L 454.844545 400.357802 
L 466.680909 398.632583 
L 478.517273 399.064476 
L 490.353636 404.754375 
L 502.19 401.771553 
" style="fill:none;stroke:#1764ab;stroke-linecap:square;stroke-width:1.5;"/>
   </g>
   <g id="line2d_48">
    <path clip-path="url(#p52a9caa6a6)" d="M 111.59 433.16125 
L 123.426364 433.16125 
L 135.262727 433.16125 
L 147.099091 433.16125 
L 158.935455 433.16125 
L 170.771818 420.47725 
L 182.608182 422.59125 
L 194.444545 409.00125 
L 206.280909 377.66875 
L 218.117273 357.996806 
L 229.953636 378.19725 
L 241.79 377.428523 
L 253.626364 382.072917 
L 265.462727 386.002788 
L 277.299091 398.43125 
L 289.135455 412.02125 
L 300.971818 423.9125 
L 312.808182 421.969485 
L 324.644545 412.02125 
L 336.480909 402.007566 
L 348.317273 409.90725 
L 360.153636 409.00125 
L 371.99 394.724886 
L 383.826364 403.749076 
L 395.662727 404.09375 
L 407.499091 407.79325 
L 419.335455 410.395096 
L 431.171818 412.804213 
L 443.008182 409.75625 
L 454.844545 406.189526 
L 466.680909 400.041917 
L 478.517273 399.746411 
L 490.353636 400.13 
L 502.19 393.443674 
" style="fill:none;stroke:#1764ab;stroke-linecap:square;stroke-width:1.5;"/>
   </g>
   <g id="line2d_49">
    <path clip-path="url(#p52a9caa6a6)" d="M 111.59 433.16125 
L 123.426364 433.16125 
L 135.262727 422.59125 
L 147.099091 412.02125 
L 158.935455 396.16625 
L 170.771818 386.65325 
L 182.608182 355.647917 
L 194.444545 321.42125 
L 206.280909 332.74625 
L 218.117273 343.903472 
L 229.953636 384.53925 
L 241.79 392.803068 
L 253.626364 396.16625 
L 265.462727 399.012019 
L 277.299091 399.94125 
L 289.135455 406.383917 
L 300.971818 417.30625 
L 312.808182 409.534191 
L 324.644545 414.370139 
L 336.480909 406.458092 
L 348.317273 402.50825 
L 360.153636 409.00125 
L 371.99 412.982159 
L 383.826364 413.859511 
L 395.662727 404.974583 
L 407.499091 407.79325 
L 419.335455 397.385865 
L 431.171818 394.796065 
L 443.008182 387.86125 
L 454.844545 385.778491 
L 466.680909 393.699917 
L 478.517273 391.563185 
L 490.353636 396.16625 
L 502.19 394.08428 
" style="fill:none;stroke:#1764ab;stroke-linecap:square;stroke-width:1.5;"/>
   </g>
   <g id="line2d_50">
    <path clip-path="url(#p52a9caa6a6)" d="M 111.59 433.16125 
L 123.426364 348.60125 
L 135.262727 327.46125 
L 147.099091 355.647917 
L 158.935455 364.45625 
L 170.771818 382.42525 
L 182.608182 408.497917 
L 194.444545 415.04125 
L 206.280909 427.87625 
L 218.117273 416.719028 
L 229.953636 420.47725 
L 241.79 415.864886 
L 253.626364 417.30625 
L 265.462727 421.778173 
L 277.299091 407.49125 
L 289.135455 404.974583 
L 300.971818 401.45125 
L 312.808182 394.611838 
L 324.644545 396.753472 
L 336.480909 404.232829 
L 348.317273 410.96425 
L 360.153636 401.954583 
L 371.99 408.177614 
L 383.826364 416.616902 
L 395.662727 410.259583 
L 407.499091 411.17565 
L 419.335455 407.955865 
L 431.171818 419.067917 
L 443.008182 400.69625 
L 454.844545 395.984009 
L 466.680909 388.062583 
L 478.517273 387.471573 
L 490.353636 392.2025 
L 502.19 396.646705 
" style="fill:none;stroke:#1764ab;stroke-linecap:square;stroke-width:1.5;"/>
   </g>
   <g id="line2d_51">
    <path clip-path="url(#p52a9caa6a6)" d="M 111.59 433.16125 
L 123.426364 433.16125 
L 135.262727 433.16125 
L 147.099091 433.16125 
L 158.935455 433.16125 
L 170.771818 433.16125 
L 182.608182 433.16125 
L 194.444545 430.14125 
L 206.280909 427.87625 
L 218.117273 430.812361 
L 229.953636 424.70525 
L 241.79 415.864886 
L 253.626364 415.544583 
L 265.462727 413.647404 
L 277.299091 402.96125 
L 289.135455 397.927917 
L 300.971818 396.16625 
L 312.808182 405.803603 
L 324.644545 404.974583 
L 336.480909 403.120197 
L 348.317273 406.73625 
L 360.153636 396.92125 
L 371.99 395.685795 
L 383.826364 389.042989 
L 395.662727 394.404583 
L 407.499091 400.18285 
L 419.335455 407.955865 
L 431.171818 404.974583 
L 443.008182 398.43125 
L 454.844545 401.086767 
L 466.680909 390.176583 
L 478.517273 386.107702 
L 490.353636 393.52375 
L 502.19 386.397008 
" style="fill:none;stroke:#1764ab;stroke-linecap:square;stroke-width:1.5;"/>
   </g>
   <g id="line2d_52">
    <path clip-path="url(#p52a9caa6a6)" d="M 111.59 433.16125 
L 123.426364 390.88125 
L 135.262727 327.46125 
L 147.099091 341.554583 
L 158.935455 348.60125 
L 170.771818 344.37325 
L 182.608182 366.217917 
L 194.444545 387.86125 
L 206.280909 393.52375 
L 218.117273 395.579028 
L 229.953636 399.33725 
L 241.79 398.568523 
L 253.626364 389.119583 
L 265.462727 399.012019 
L 277.299091 395.41125 
L 289.135455 407.79325 
L 300.971818 414.66375 
L 312.808182 403.316544 
L 324.644545 399.102361 
L 336.480909 406.458092 
L 348.317273 397.22325 
L 360.153636 403.967917 
L 371.99 396.646705 
L 383.826364 402.829946 
L 395.662727 399.689583 
L 407.499091 398.49165 
L 419.335455 399.012019 
L 431.171818 397.927917 
L 443.008182 386.35125 
L 454.844545 390.88125 
L 466.680909 387.357917 
L 478.517273 391.563185 
L 490.353636 397.4875 
L 502.19 391.521856 
" style="fill:none;stroke:#1764ab;stroke-linecap:square;stroke-width:1.5;"/>
   </g>
   <g id="line2d_53">
    <path clip-path="url(#p52a9caa6a6)" d="M 111.59 433.16125 
L 123.426364 390.88125 
L 135.262727 327.46125 
L 147.099091 334.507917 
L 158.935455 369.74125 
L 170.771818 382.42525 
L 182.608182 415.544583 
L 194.444545 424.10125 
L 206.280909 422.59125 
L 218.117273 407.323472 
L 229.953636 397.22325 
L 241.79 390.88125 
L 253.626364 383.834583 
L 265.462727 400.638173 
L 277.299091 392.39125 
L 289.135455 397.927917 
L 300.971818 400.13 
L 312.808182 388.394191 
L 324.644545 389.706806 
L 336.480909 386.430724 
L 348.317273 406.73625 
L 360.153636 409.00125 
L 371.99 412.02125 
L 383.826364 411.10212 
L 395.662727 399.689583 
L 407.499091 403.56525 
L 419.335455 404.703558 
L 431.171818 412.804213 
L 443.008182 410.51125 
L 454.844545 415.666078 
L 466.680909 408.497917 
L 478.517273 401.792218 
L 490.353636 398.148125 
L 502.19 398.568523 
" style="fill:none;stroke:#1764ab;stroke-linecap:square;stroke-width:1.5;"/>
   </g>
   <g id="line2d_54">
    <path clip-path="url(#p52a9caa6a6)" d="M 111.59 306.32125 
L 123.426364 221.76125 
L 135.262727 264.04125 
L 147.099091 249.947917 
L 158.935455 253.47125 
L 170.771818 268.26925 
L 182.608182 288.704583 
L 194.444545 288.20125 
L 206.280909 271.96875 
L 218.117273 264.04125 
L 229.953636 285.18125 
L 241.79 273.650341 
L 253.626364 276.372917 
L 265.462727 280.302788 
L 277.299091 292.73125 
L 289.135455 282.362583 
L 300.971818 274.61125 
L 312.808182 283.937721 
L 324.644545 282.832361 
L 336.480909 284.068618 
L 348.317273 274.61125 
L 360.153636 270.08125 
L 371.99 283.259432 
L 383.826364 270.475163 
L 395.662727 267.564583 
L 407.499091 265.73245 
L 419.335455 272.172019 
L 431.171818 270.304954 
L 443.008182 270.08125 
L 454.844545 273.517802 
L 466.680909 285.18125 
L 478.517273 303.593508 
L 490.353636 336.71 
L 502.19 351.163674 
" style="fill:none;stroke:#94c4df;stroke-linecap:square;stroke-width:1.5;"/>
   </g>
   <g id="line2d_55">
    <path clip-path="url(#p52a9caa6a6)" d="M 111.59 52.64125 
L 123.426364 200.62125 
L 135.262727 221.76125 
L 147.099091 228.807917 
L 158.935455 258.75625 
L 170.771818 280.95325 
L 182.608182 274.61125 
L 194.444545 297.26125 
L 206.280909 290.46625 
L 218.117273 287.530139 
L 229.953636 278.83925 
L 241.79 292.868523 
L 253.626364 295.75125 
L 265.462727 314.452019 
L 277.299091 312.36125 
L 289.135455 278.134583 
L 300.971818 289.145 
L 312.808182 277.720074 
L 324.644545 269.913472 
L 336.480909 276.280197 
L 348.317273 289.40925 
L 360.153636 283.167917 
L 371.99 286.142159 
L 383.826364 290.696033 
L 395.662727 289.585417 
L 407.499091 275.87965 
L 419.335455 283.555096 
L 431.171818 279.700509 
L 443.008182 289.71125 
L 454.844545 287.368147 
L 466.680909 297.86525 
L 478.517273 306.32125 
L 490.353636 333.406875 
L 502.19 361.413371 
" style="fill:none;stroke:#94c4df;stroke-linecap:square;stroke-width:1.5;"/>
   </g>
   <g id="line2d_56">
    <path clip-path="url(#p52a9caa6a6)" d="M 111.59 306.32125 
L 123.426364 242.90125 
L 135.262727 253.47125 
L 147.099091 235.854583 
L 158.935455 274.61125 
L 170.771818 255.58525 
L 182.608182 288.704583 
L 194.444545 264.04125 
L 206.280909 266.68375 
L 218.117273 259.343472 
L 229.953636 261.92725 
L 241.79 271.728523 
L 253.626364 260.517917 
L 265.462727 278.676635 
L 277.299091 274.61125 
L 289.135455 286.590583 
L 300.971818 287.82375 
L 312.808182 298.860074 
L 324.644545 286.355694 
L 336.480909 297.420197 
L 348.317273 284.12425 
L 360.153636 286.187917 
L 371.99 269.806705 
L 383.826364 275.989946 
L 395.662727 284.300417 
L 407.499091 275.03405 
L 419.335455 273.798173 
L 431.171818 266.390139 
L 443.008182 268.57125 
L 454.844545 282.994353 
L 466.680909 290.818583 
L 478.517273 308.367056 
L 490.353636 334.0675 
L 502.19 362.694583 
" style="fill:none;stroke:#94c4df;stroke-linecap:square;stroke-width:1.5;"/>
   </g>
   <g id="line2d_57">
    <path clip-path="url(#p52a9caa6a6)" d="M 111.59 179.48125 
L 123.426364 264.04125 
L 135.262727 232.33125 
L 147.099091 242.90125 
L 158.935455 248.18625 
L 170.771818 302.09325 
L 182.608182 288.704583 
L 194.444545 303.30125 
L 206.280909 274.61125 
L 218.117273 273.436806 
L 229.953636 266.15525 
L 241.79 256.353977 
L 253.626364 265.802917 
L 265.462727 246.153558 
L 277.299091 262.53125 
L 289.135455 258.403917 
L 300.971818 266.68375 
L 312.808182 254.093015 
L 324.644545 264.04125 
L 336.480909 278.505461 
L 348.317273 267.21225 
L 360.153636 263.034583 
L 371.99 269.806705 
L 383.826364 262.202989 
L 395.662727 253.47125 
L 407.499091 267.42365 
L 419.335455 278.676635 
L 431.171818 280.483472 
L 443.008182 283.67125 
L 454.844545 293.199871 
L 466.680909 303.502583 
L 478.517273 321.323831 
L 490.353636 335.38875 
L 502.19 363.335189 
" style="fill:none;stroke:#94c4df;stroke-linecap:square;stroke-width:1.5;"/>
   </g>
   <g id="line2d_58">
    <path clip-path="url(#p52a9caa6a6)" d="M 111.59 433.16125 
L 123.426364 390.88125 
L 135.262727 359.17125 
L 147.099091 355.647917 
L 158.935455 285.18125 
L 170.771818 259.81325 
L 182.608182 246.424583 
L 194.444545 254.98125 
L 206.280909 248.18625 
L 218.117273 278.134583 
L 229.953636 278.83925 
L 241.79 287.103068 
L 253.626364 290.46625 
L 265.462727 298.190481 
L 277.299091 288.20125 
L 289.135455 285.18125 
L 300.971818 281.2175 
L 312.808182 277.720074 
L 324.644545 268.739028 
L 336.480909 286.293882 
L 348.317273 274.61125 
L 360.153636 279.14125 
L 371.99 290.946705 
L 383.826364 300.806467 
L 395.662727 304.559583 
L 407.499091 300.40205 
L 419.335455 295.75125 
L 431.171818 300.057546 
L 443.008182 282.16125 
L 454.844545 285.18125 
L 466.680909 278.134583 
L 478.517273 307.685121 
L 490.353636 323.4975 
L 502.19 347.320038 
" style="fill:none;stroke:#94c4df;stroke-linecap:square;stroke-width:1.5;"/>
   </g>
   <g id="line2d_59">
    <path clip-path="url(#p52a9caa6a6)" d="M 111.59 179.48125 
L 123.426364 285.18125 
L 135.262727 274.61125 
L 147.099091 278.134583 
L 158.935455 274.61125 
L 170.771818 230.21725 
L 182.608182 235.854583 
L 194.444545 239.88125 
L 206.280909 253.47125 
L 218.117273 249.947917 
L 229.953636 261.92725 
L 241.79 254.432159 
L 253.626364 278.134583 
L 265.462727 288.433558 
L 277.299091 277.63125 
L 289.135455 293.63725 
L 300.971818 298.39375 
L 312.808182 302.590662 
L 324.644545 307.495694 
L 336.480909 302.983355 
L 348.317273 302.09325 
L 360.153636 302.294583 
L 371.99 291.907614 
L 383.826364 290.696033 
L 395.662727 287.82375 
L 407.499091 280.10765 
L 419.335455 281.115865 
L 431.171818 288.313102 
L 443.008182 287.44625 
L 454.844545 296.115733 
L 466.680909 301.388583 
L 478.517273 315.868347 
L 490.353636 332.085625 
L 502.19 359.491553 
" style="fill:none;stroke:#94c4df;stroke-linecap:square;stroke-width:1.5;"/>
   </g>
   <g id="line2d_60">
    <path clip-path="url(#p52a9caa6a6)" d="M 111.59 179.48125 
L 123.426364 158.34125 
L 135.262727 242.90125 
L 147.099091 249.947917 
L 158.935455 279.89625 
L 170.771818 289.40925 
L 182.608182 292.227917 
L 194.444545 279.14125 
L 206.280909 282.53875 
L 218.117273 256.994583 
L 229.953636 261.92725 
L 241.79 273.650341 
L 253.626364 256.994583 
L 265.462727 260.788942 
L 277.299091 270.08125 
L 289.135455 269.678583 
L 300.971818 271.96875 
L 312.808182 281.450662 
L 324.644545 280.483472 
L 336.480909 260.703355 
L 348.317273 292.58025 
L 360.153636 281.154583 
L 371.99 292.868523 
L 383.826364 264.96038 
L 395.662727 277.25375 
L 407.499091 268.26925 
L 419.335455 264.04125 
L 431.171818 268.739028 
L 443.008182 267.06125 
L 454.844545 263.312284 
L 466.680909 277.429917 
L 478.517273 298.81996 
L 490.353636 312.266875 
L 502.19 344.117008 
" style="fill:none;stroke:#94c4df;stroke-linecap:square;stroke-width:1.5;"/>
   </g>
   <g id="line2d_61">
    <path clip-path="url(#p52a9caa6a6)" d="M 111.59 306.32125 
L 123.426364 264.04125 
L 135.262727 242.90125 
L 147.099091 285.18125 
L 158.935455 274.61125 
L 170.771818 302.09325 
L 182.608182 309.844583 
L 194.444545 303.30125 
L 206.280909 311.60625 
L 218.117273 294.576806 
L 229.953636 299.97925 
L 241.79 283.259432 
L 253.626364 281.657917 
L 265.462727 262.415096 
L 277.299091 276.12125 
L 289.135455 268.26925 
L 300.971818 265.3625 
L 312.808182 269.015368 
L 324.644545 278.134583 
L 336.480909 271.829671 
L 348.317273 270.38325 
L 360.153636 259.007917 
L 371.99 279.415795 
L 383.826364 273.232554 
L 395.662727 289.585417 
L 407.499091 308.85805 
L 419.335455 312.825865 
L 431.171818 305.538287 
L 443.008182 296.50625 
L 454.844545 285.18125 
L 466.680909 295.75125 
L 478.517273 309.730927 
L 490.353636 328.7825 
L 502.19 366.53822 
" style="fill:none;stroke:#94c4df;stroke-linecap:square;stroke-width:1.5;"/>
   </g>
   <g id="line2d_62">
    <path clip-path="url(#p52a9caa6a6)" d="M 111.59 179.48125 
L 123.426364 200.62125 
L 135.262727 232.33125 
L 147.099091 235.854583 
L 158.935455 237.61625 
L 170.771818 238.67325 
L 182.608182 253.47125 
L 194.444545 261.02125 
L 206.280909 282.53875 
L 218.117273 285.18125 
L 229.953636 278.83925 
L 241.79 281.337614 
L 253.626364 308.082917 
L 265.462727 307.947404 
L 277.299091 292.73125 
L 289.135455 313.367917 
L 300.971818 298.39375 
L 312.808182 292.642426 
L 324.644545 307.495694 
L 336.480909 298.532829 
L 348.317273 293.63725 
L 360.153636 287.194583 
L 371.99 287.103068 
L 383.826364 282.423859 
L 395.662727 278.134583 
L 407.499091 275.87965 
L 419.335455 281.928942 
L 431.171818 289.096065 
L 443.008182 279.14125 
L 454.844545 284.452284 
L 466.680909 290.113917 
L 478.517273 307.003185 
L 490.353636 341.995 
L 502.19 360.132159 
" style="fill:none;stroke:#94c4df;stroke-linecap:square;stroke-width:1.5;"/>
   </g>
   <g id="line2d_63">
    <path clip-path="url(#p52a9caa6a6)" d="M 111.59 179.48125 
L 123.426364 200.62125 
L 135.262727 253.47125 
L 147.099091 242.90125 
L 158.935455 248.18625 
L 170.771818 272.49725 
L 182.608182 288.704583 
L 194.444545 306.32125 
L 206.280909 316.89125 
L 218.117273 322.763472 
L 229.953636 323.23325 
L 241.79 315.930341 
L 253.626364 309.844583 
L 265.462727 294.938173 
L 277.299091 294.24125 
L 289.135455 278.134583 
L 300.971818 291.7875 
L 312.808182 286.424779 
L 324.644545 292.227917 
L 336.480909 281.843355 
L 348.317273 289.40925 
L 360.153636 285.18125 
L 371.99 287.103068 
L 383.826364 286.10038 
L 395.662727 280.777083 
L 407.499091 286.02685 
L 419.335455 292.498942 
L 431.171818 286.747176 
L 443.008182 294.24125 
L 454.844545 296.115733 
L 466.680909 309.139917 
L 478.517273 325.415444 
L 490.353636 349.261875 
L 502.19 372.303674 
" style="fill:none;stroke:#94c4df;stroke-linecap:square;stroke-width:1.5;"/>
   </g>
   <g id="line2d_64">
    <path clip-path="url(#p52a9caa6a6)" d="M 111.59 306.32125 
L 123.426364 221.76125 
L 135.262727 211.19125 
L 147.099091 242.90125 
L 158.935455 227.04625 
L 170.771818 221.76125 
L 182.608182 218.237917 
L 194.444545 221.76125 
L 206.280909 211.19125 
L 218.117273 228.807917 
L 229.953636 234.44525 
L 241.79 244.823068 
L 253.626364 212.952917 
L 265.462727 236.396635 
L 277.299091 232.33125 
L 289.135455 210.486583 
L 300.971818 233.6525 
L 312.808182 234.196544 
L 324.644545 229.982361 
L 336.480909 223.986513 
L 348.317273 237.61625 
L 360.153636 230.82125 
L 371.99 241.940341 
L 383.826364 242.90125 
L 395.662727 236.735417 
L 407.499091 231.90845 
L 419.335455 247.779712 
L 431.171818 235.854583 
L 443.008182 225.53625 
L 454.844545 247.275043 
L 466.680909 261.92725 
L 478.517273 283.135444 
L 490.353636 330.764375 
L 502.19 375.506705 
" style="fill:none;stroke:#000000;stroke-linecap:square;stroke-width:1.5;"/>
   </g>
   <g id="line2d_65">
    <path clip-path="url(#p52a9caa6a6)" d="M 111.59 179.48125 
L 123.426364 200.62125 
L 135.262727 211.19125 
L 147.099091 214.714583 
L 158.935455 237.61625 
L 170.771818 247.12925 
L 182.608182 246.424583 
L 194.444545 218.74125 
L 206.280909 232.33125 
L 218.117273 242.90125 
L 229.953636 234.44525 
L 241.79 233.292159 
L 253.626364 230.569583 
L 265.462727 246.153558 
L 277.299091 239.88125 
L 289.135455 228.807917 
L 300.971818 245.54375 
L 312.808182 244.144779 
L 324.644545 234.680139 
L 336.480909 223.986513 
L 348.317273 242.90125 
L 360.153636 232.834583 
L 371.99 232.33125 
L 383.826364 234.629076 
L 395.662727 244.662917 
L 407.499091 233.59965 
L 419.335455 229.892019 
L 431.171818 238.203472 
L 443.008182 236.10625 
L 454.844545 255.293664 
L 466.680909 262.631917 
L 478.517273 293.364476 
L 490.353636 325.479375 
L 502.19 396.646705 
" style="fill:none;stroke:#000000;stroke-linecap:square;stroke-width:1.5;"/>
   </g>
   <g id="line2d_66">
    <path clip-path="url(#p52a9caa6a6)" d="M 111.59 306.32125 
L 123.426364 242.90125 
L 135.262727 211.19125 
L 147.099091 228.807917 
L 158.935455 216.47625 
L 170.771818 242.90125 
L 182.608182 232.33125 
L 194.444545 224.78125 
L 206.280909 224.40375 
L 218.117273 238.203472 
L 229.953636 238.67325 
L 241.79 223.683068 
L 253.626364 212.952917 
L 265.462727 223.387404 
L 277.299091 227.80125 
L 289.135455 237.263917 
L 300.971818 241.58 
L 312.808182 254.093015 
L 324.644545 237.029028 
L 336.480909 231.774934 
L 348.317273 231.27425 
L 360.153636 240.887917 
L 371.99 235.213977 
L 383.826364 221.76125 
L 395.662727 234.97375 
L 407.499091 231.06285 
L 419.335455 226.639712 
L 431.171818 230.373843 
L 443.008182 236.86125 
L 454.844545 256.022629 
L 466.680909 256.994583 
L 478.517273 283.135444 
L 490.353636 328.7825 
L 502.19 390.240644 
" style="fill:none;stroke:#000000;stroke-linecap:square;stroke-width:1.5;"/>
   </g>
   <g id="line2d_67">
    <path clip-path="url(#p52a9caa6a6)" d="M 111.59 179.48125 
L 123.426364 179.48125 
L 135.262727 200.62125 
L 147.099091 221.76125 
L 158.935455 211.19125 
L 170.771818 217.53325 
L 182.608182 221.76125 
L 194.444545 209.68125 
L 206.280909 224.40375 
L 218.117273 238.203472 
L 229.953636 230.21725 
L 241.79 235.213977 
L 253.626364 241.139583 
L 265.462727 218.508942 
L 277.299091 221.76125 
L 289.135455 238.67325 
L 300.971818 228.3675 
L 312.808182 237.927132 
L 324.644545 235.854583 
L 336.480909 250.689671 
L 348.317273 236.55925 
L 360.153636 226.794583 
L 371.99 237.135795 
L 383.826364 229.114293 
L 395.662727 225.284583 
L 407.499091 239.51885 
L 419.335455 238.022788 
L 431.171818 238.203472 
L 443.008182 253.47125 
L 454.844545 250.190905 
L 466.680909 269.678583 
L 478.517273 294.046411 
L 490.353636 338.03125 
L 502.19 387.037614 
" style="fill:none;stroke:#000000;stroke-linecap:square;stroke-width:1.5;"/>
   </g>
   <g id="line2d_68">
    <path clip-path="url(#p52a9caa6a6)" d="M 111.59 179.48125 
L 123.426364 158.34125 
L 135.262727 190.05125 
L 147.099091 221.76125 
L 158.935455 237.61625 
L 170.771818 225.98925 
L 182.608182 235.854583 
L 194.444545 242.90125 
L 206.280909 227.04625 
L 218.117273 219.412361 
L 229.953636 221.76125 
L 241.79 231.370341 
L 253.626364 232.33125 
L 265.462727 239.648942 
L 277.299091 238.37125 
L 289.135455 231.626583 
L 300.971818 236.295 
L 312.808182 227.978897 
L 324.644545 228.807917 
L 336.480909 230.662303 
L 348.317273 233.38825 
L 360.153636 242.90125 
L 371.99 234.253068 
L 383.826364 240.143859 
L 395.662727 251.709583 
L 407.499091 231.90845 
L 419.335455 233.957404 
L 431.171818 246.033102 
L 443.008182 239.12625 
L 454.844545 247.275043 
L 466.680909 249.24325 
L 478.517273 281.089637 
L 490.353636 318.2125 
L 502.19 380.631553 
" style="fill:none;stroke:#000000;stroke-linecap:square;stroke-width:1.5;"/>
   </g>
   <g id="line2d_69">
    <path clip-path="url(#p52a9caa6a6)" d="M 111.59 179.48125 
L 123.426364 200.62125 
L 135.262727 200.62125 
L 147.099091 221.76125 
L 158.935455 232.33125 
L 170.771818 217.53325 
L 182.608182 218.237917 
L 194.444545 218.74125 
L 206.280909 219.11875 
L 218.117273 221.76125 
L 229.953636 228.10325 
L 241.79 237.135795 
L 253.626364 253.47125 
L 265.462727 229.892019 
L 277.299091 238.37125 
L 289.135455 233.035917 
L 300.971818 236.295 
L 312.808182 229.222426 
L 324.644545 246.424583 
L 336.480909 238.450724 
L 348.317273 238.67325 
L 360.153636 232.834583 
L 371.99 238.096705 
L 383.826364 237.386467 
L 395.662727 229.68875 
L 407.499091 242.05565 
L 419.335455 226.639712 
L 431.171818 235.854583 
L 443.008182 235.35125 
L 454.844545 247.275043 
L 466.680909 261.222583 
L 478.517273 283.817379 
L 490.353636 325.479375 
L 502.19 374.225492 
" style="fill:none;stroke:#000000;stroke-linecap:square;stroke-width:1.5;"/>
   </g>
   <g id="line2d_70">
    <path clip-path="url(#p52a9caa6a6)" d="M 111.59 179.48125 
L 123.426364 221.76125 
L 135.262727 211.19125 
L 147.099091 214.714583 
L 158.935455 232.33125 
L 170.771818 217.53325 
L 182.608182 225.284583 
L 194.444545 242.90125 
L 206.280909 240.25875 
L 218.117273 221.76125 
L 229.953636 223.87525 
L 241.79 239.057614 
L 253.626364 219.999583 
L 265.462727 231.518173 
L 277.299091 241.39125 
L 289.135455 237.263917 
L 300.971818 242.90125 
L 312.808182 239.170662 
L 324.644545 235.854583 
L 336.480909 239.563355 
L 348.317273 254.52825 
L 360.153636 233.84125 
L 371.99 247.705795 
L 383.826364 234.629076 
L 395.662727 238.497083 
L 407.499091 239.51885 
L 419.335455 247.779712 
L 431.171818 240.552361 
L 443.008182 241.39125 
L 454.844545 243.630216 
L 466.680909 255.58525 
L 478.517273 284.499315 
L 490.353636 313.588125 
L 502.19 368.460038 
" style="fill:none;stroke:#000000;stroke-linecap:square;stroke-width:1.5;"/>
   </g>
   <g id="line2d_71">
    <path clip-path="url(#p52a9caa6a6)" d="M 111.59 179.48125 
L 123.426364 221.76125 
L 135.262727 221.76125 
L 147.099091 221.76125 
L 158.935455 232.33125 
L 170.771818 225.98925 
L 182.608182 249.947917 
L 194.444545 209.68125 
L 206.280909 232.33125 
L 218.117273 233.505694 
L 229.953636 240.78725 
L 241.79 229.448523 
L 253.626364 232.33125 
L 265.462727 246.153558 
L 277.299091 241.39125 
L 289.135455 233.035917 
L 300.971818 234.97375 
L 312.808182 227.978897 
L 324.644545 239.377917 
L 336.480909 234.000197 
L 348.317273 239.73025 
L 360.153636 231.827917 
L 371.99 247.705795 
L 383.826364 239.224728 
L 395.662727 237.61625 
L 407.499091 243.74685 
L 419.335455 233.957404 
L 431.171818 240.552361 
L 443.008182 241.39125 
L 454.844545 247.275043 
L 466.680909 264.745917 
L 478.517273 289.272863 
L 490.353636 327.46125 
L 502.19 384.475189 
" style="fill:none;stroke:#000000;stroke-linecap:square;stroke-width:1.5;"/>
   </g>
   <g id="line2d_72">
    <path clip-path="url(#p52a9caa6a6)" d="M 111.59 179.48125 
L 123.426364 200.62125 
L 135.262727 211.19125 
L 147.099091 221.76125 
L 158.935455 221.76125 
L 170.771818 209.07725 
L 182.608182 228.807917 
L 194.444545 227.80125 
L 206.280909 224.40375 
L 218.117273 247.599028 
L 229.953636 234.44525 
L 241.79 233.292159 
L 253.626364 228.807917 
L 265.462727 226.639712 
L 277.299091 230.82125 
L 289.135455 244.310583 
L 300.971818 231.01 
L 312.808182 235.440074 
L 324.644545 240.552361 
L 336.480909 236.225461 
L 348.317273 237.61625 
L 360.153636 235.854583 
L 371.99 248.666705 
L 383.826364 242.90125 
L 395.662727 227.04625 
L 407.499091 224.29805 
L 419.335455 236.396635 
L 431.171818 235.07162 
L 443.008182 235.35125 
L 454.844545 247.275043 
L 466.680909 265.450583 
L 478.517273 285.863185 
L 490.353636 324.81875 
L 502.19 396.006098 
" style="fill:none;stroke:#000000;stroke-linecap:square;stroke-width:1.5;"/>
   </g>
   <g id="line2d_73">
    <path clip-path="url(#p52a9caa6a6)" d="M 111.59 52.64125 
L 123.426364 158.34125 
L 135.262727 211.19125 
L 147.099091 214.714583 
L 158.935455 216.47625 
L 170.771818 230.21725 
L 182.608182 249.947917 
L 194.444545 236.86125 
L 206.280909 240.25875 
L 218.117273 226.459028 
L 229.953636 225.98925 
L 241.79 239.057614 
L 253.626364 239.377917 
L 265.462727 238.022788 
L 277.299091 230.82125 
L 289.135455 242.90125 
L 300.971818 231.01 
L 312.808182 235.440074 
L 324.644545 228.807917 
L 336.480909 231.774934 
L 348.317273 225.98925 
L 360.153636 231.827917 
L 371.99 232.33125 
L 383.826364 226.356902 
L 395.662727 232.33125 
L 407.499091 241.21005 
L 419.335455 251.845096 
L 431.171818 235.854583 
L 443.008182 246.67625 
L 454.844545 252.377802 
L 466.680909 271.792583 
L 478.517273 306.32125 
L 490.353636 351.24375 
L 502.19 387.67822 
" style="fill:none;stroke:#000000;stroke-linecap:square;stroke-width:1.5;"/>
   </g>
   <g id="line2d_74">
    <path clip-path="url(#p52a9caa6a6)" d="M 99.753636 433.16125 
" style="fill:none;stroke:#000000;stroke-linecap:square;stroke-width:1.5;"/>
   </g>
   <g id="line2d_75">
    <path clip-path="url(#p52a9caa6a6)" d="M 99.753636 433.16125 
" style="fill:none;stroke:#d0e1f2;stroke-linecap:square;stroke-width:1.5;"/>
   </g>
   <g id="line2d_76">
    <path clip-path="url(#p52a9caa6a6)" d="M 99.753636 433.16125 
" style="fill:none;stroke:#94c4df;stroke-linecap:square;stroke-width:1.5;"/>
   </g>
   <g id="line2d_77">
    <path clip-path="url(#p52a9caa6a6)" d="M 99.753636 433.16125 
" style="fill:none;stroke:#4a98c9;stroke-linecap:square;stroke-width:1.5;"/>
   </g>
   <g id="line2d_78">
    <path clip-path="url(#p52a9caa6a6)" d="M 99.753636 433.16125 
" style="fill:none;stroke:#1764ab;stroke-linecap:square;stroke-width:1.5;"/>
   </g>
   <g id="line2d_79">
    <path clip-path="url(#p52a9caa6a6)" d="M 99.753636 433.16125 
" style="fill:none;stroke:#08306b;stroke-linecap:square;stroke-width:1.5;"/>
   </g>
   <g id="line2d_80">
    <path clip-path="url(#p52a9caa6a6)" d="M 99.753636 433.16125 
" style="fill:none;stroke:#000000;stroke-linecap:square;stroke-width:1.5;"/>
   </g>
   <g id="line2d_81">
    <path clip-path="url(#p52a9caa6a6)" d="M 99.753636 433.16125 
" style="fill:none;stroke:#000000;stroke-dasharray:1.5,2.475;stroke-dashoffset:0;stroke-width:1.5;"/>
   </g>
   <g id="line2d_82">
    <path clip-path="url(#p52a9caa6a6)" d="M 99.753636 433.16125 
" style="fill:none;stroke:#000000;stroke-linecap:square;stroke-width:1.5;"/>
   </g>
   <g id="line2d_83">
    <path clip-path="url(#p52a9caa6a6)" d="M 99.753636 433.16125 
" style="fill:none;stroke:#000000;stroke-dasharray:5.55,2.4;stroke-dashoffset:0;stroke-width:1.5;"/>
   </g>
   <g id="line2d_84">
    <path clip-path="url(#p52a9caa6a6)" d="M 99.753636 433.16125 
" style="fill:none;stroke:#000000;stroke-dasharray:9.6,2.4,1.5,2.4;stroke-dashoffset:0;stroke-width:1.5;"/>
   </g>
   <g id="line2d_85">
    <path clip-path="url(#p52a9caa6a6)" d="M 99.753636 433.16125 
" style="fill:none;stroke:#000000;stroke-dasharray:9.6,2.4,1.5,2.4;stroke-dashoffset:0;stroke-width:1.5;"/>
   </g>
   <g id="patch_3">
    <path d="M 111.59 433.16125 
L 111.59 52.64125 
" style="fill:none;stroke:#000000;stroke-linecap:square;stroke-linejoin:miter;stroke-width:0.8;"/>
   </g>
   <g id="patch_4">
    <path d="M 502.19 433.16125 
L 502.19 52.64125 
" style="fill:none;stroke:#000000;stroke-linecap:square;stroke-linejoin:miter;stroke-width:0.8;"/>
   </g>
   <g id="patch_5">
    <path d="M 111.59 433.16125 
L 502.19 433.16125 
" style="fill:none;stroke:#000000;stroke-linecap:square;stroke-linejoin:miter;stroke-width:0.8;"/>
   </g>
   <g id="patch_6">
    <path d="M 111.59 52.64125 
L 502.19 52.64125 
" style="fill:none;stroke:#000000;stroke-linecap:square;stroke-linejoin:miter;stroke-width:0.8;"/>
   </g>
   <g id="text_16">
    <!-- CANCER LIVE NORMALIZED COUNT -->
    <g transform="translate(131.338437 21.515625)scale(0.2 -0.2)">
     <use xlink:href="#Arial-BoldMT-67"/>
     <use x="72.216797" xlink:href="#Arial-BoldMT-65"/>
     <use x="144.433594" xlink:href="#Arial-BoldMT-78"/>
     <use x="216.650391" xlink:href="#Arial-BoldMT-67"/>
     <use x="288.867188" xlink:href="#Arial-BoldMT-69"/>
     <use x="355.566406" xlink:href="#Arial-BoldMT-82"/>
     <use x="427.783203" xlink:href="#Arial-BoldMT-32"/>
     <use x="455.566406" xlink:href="#Arial-BoldMT-76"/>
     <use x="516.650391" xlink:href="#Arial-BoldMT-73"/>
     <use x="544.433594" xlink:href="#Arial-BoldMT-86"/>
     <use x="611.132812" xlink:href="#Arial-BoldMT-69"/>
     <use x="677.832031" xlink:href="#Arial-BoldMT-32"/>
     <use x="705.615234" xlink:href="#Arial-BoldMT-78"/>
     <use x="777.832031" xlink:href="#Arial-BoldMT-79"/>
     <use x="855.615234" xlink:href="#Arial-BoldMT-82"/>
     <use x="927.832031" xlink:href="#Arial-BoldMT-77"/>
     <use x="1011.132812" xlink:href="#Arial-BoldMT-65"/>
     <use x="1083.349609" xlink:href="#Arial-BoldMT-76"/>
     <use x="1144.433594" xlink:href="#Arial-BoldMT-73"/>
     <use x="1172.216797" xlink:href="#Arial-BoldMT-90"/>
     <use x="1233.300781" xlink:href="#Arial-BoldMT-69"/>
     <use x="1300" xlink:href="#Arial-BoldMT-68"/>
     <use x="1372.216797" xlink:href="#Arial-BoldMT-32"/>
     <use x="1400" xlink:href="#Arial-BoldMT-67"/>
     <use x="1472.216797" xlink:href="#Arial-BoldMT-79"/>
     <use x="1550" xlink:href="#Arial-BoldMT-85"/>
     <use x="1622.216797" xlink:href="#Arial-BoldMT-78"/>
     <use x="1694.433594" xlink:href="#Arial-BoldMT-84"/>
    </g>
    <!-- ACROSS RADIUS AT TIME 4 -->
    <defs>
     <path d="M 31.15625 0 
L 31.15625 14.40625 
L 1.859375 14.40625 
L 1.859375 26.421875 
L 32.90625 71.875 
L 44.4375 71.875 
L 44.4375 26.46875 
L 53.328125 26.46875 
L 53.328125 14.40625 
L 44.4375 14.40625 
L 44.4375 0 
z
M 31.15625 26.46875 
L 31.15625 50.921875 
L 14.703125 26.46875 
z
" id="Arial-BoldMT-52"/>
    </defs>
    <g transform="translate(171.89625 42.64125)scale(0.2 -0.2)">
     <use xlink:href="#Arial-BoldMT-65"/>
     <use x="72.216797" xlink:href="#Arial-BoldMT-67"/>
     <use x="144.433594" xlink:href="#Arial-BoldMT-82"/>
     <use x="216.650391" xlink:href="#Arial-BoldMT-79"/>
     <use x="294.433594" xlink:href="#Arial-BoldMT-83"/>
     <use x="361.132812" xlink:href="#Arial-BoldMT-83"/>
     <use x="427.832031" xlink:href="#Arial-BoldMT-32"/>
     <use x="455.615234" xlink:href="#Arial-BoldMT-82"/>
     <use x="527.832031" xlink:href="#Arial-BoldMT-65"/>
     <use x="600.048828" xlink:href="#Arial-BoldMT-68"/>
     <use x="672.265625" xlink:href="#Arial-BoldMT-73"/>
     <use x="700.048828" xlink:href="#Arial-BoldMT-85"/>
     <use x="772.265625" xlink:href="#Arial-BoldMT-83"/>
     <use x="838.964844" xlink:href="#Arial-BoldMT-32"/>
     <use x="866.701172" xlink:href="#Arial-BoldMT-65"/>
     <use x="938.808594" xlink:href="#Arial-BoldMT-84"/>
     <use x="999.892578" xlink:href="#Arial-BoldMT-32"/>
     <use x="1027.675781" xlink:href="#Arial-BoldMT-84"/>
     <use x="1088.759766" xlink:href="#Arial-BoldMT-73"/>
     <use x="1116.542969" xlink:href="#Arial-BoldMT-77"/>
     <use x="1199.84375" xlink:href="#Arial-BoldMT-69"/>
     <use x="1266.542969" xlink:href="#Arial-BoldMT-32"/>
     <use x="1294.326172" xlink:href="#Arial-BoldMT-52"/>
    </g>
   </g>
   <g id="legend_1">
    <g id="line2d_86">
     <path d="M 511.19 65.739687 
L 531.19 65.739687 
" style="fill:none;stroke:#000000;stroke-linecap:square;stroke-width:1.5;"/>
    </g>
    <g id="line2d_87"/>
    <g id="text_17">
     <!-- 0 -->
     <g transform="translate(539.19 69.239687)scale(0.1 -0.1)">
      <use xlink:href="#DejaVuSans-48"/>
     </g>
    </g>
    <g id="line2d_88">
     <path d="M 511.19 80.417812 
L 531.19 80.417812 
" style="fill:none;stroke:#d0e1f2;stroke-linecap:square;stroke-width:1.5;"/>
    </g>
    <g id="line2d_89"/>
    <g id="text_18">
     <!-- 100 -->
     <g transform="translate(539.19 83.917812)scale(0.1 -0.1)">
      <use xlink:href="#DejaVuSans-49"/>
      <use x="63.623047" xlink:href="#DejaVuSans-48"/>
      <use x="127.246094" xlink:href="#DejaVuSans-48"/>
     </g>
    </g>
    <g id="line2d_90">
     <path d="M 511.19 95.095937 
L 531.19 95.095937 
" style="fill:none;stroke:#94c4df;stroke-linecap:square;stroke-width:1.5;"/>
    </g>
    <g id="line2d_91"/>
    <g id="text_19">
     <!-- 500 -->
     <g transform="translate(539.19 98.595937)scale(0.1 -0.1)">
      <use xlink:href="#DejaVuSans-53"/>
      <use x="63.623047" xlink:href="#DejaVuSans-48"/>
      <use x="127.246094" xlink:href="#DejaVuSans-48"/>
     </g>
    </g>
    <g id="line2d_92">
     <path d="M 511.19 109.774062 
L 531.19 109.774062 
" style="fill:none;stroke:#4a98c9;stroke-linecap:square;stroke-width:1.5;"/>
    </g>
    <g id="line2d_93"/>
    <g id="text_20">
     <!-- 1000 -->
     <g transform="translate(539.19 113.274062)scale(0.1 -0.1)">
      <use xlink:href="#DejaVuSans-49"/>
      <use x="63.623047" xlink:href="#DejaVuSans-48"/>
      <use x="127.246094" xlink:href="#DejaVuSans-48"/>
      <use x="190.869141" xlink:href="#DejaVuSans-48"/>
     </g>
    </g>
    <g id="line2d_94">
     <path d="M 511.19 124.452187 
L 531.19 124.452187 
" style="fill:none;stroke:#1764ab;stroke-linecap:square;stroke-width:1.5;"/>
    </g>
    <g id="line2d_95"/>
    <g id="text_21">
     <!-- 5000 -->
     <g transform="translate(539.19 127.952187)scale(0.1 -0.1)">
      <use xlink:href="#DejaVuSans-53"/>
      <use x="63.623047" xlink:href="#DejaVuSans-48"/>
      <use x="127.246094" xlink:href="#DejaVuSans-48"/>
      <use x="190.869141" xlink:href="#DejaVuSans-48"/>
     </g>
    </g>
    <g id="line2d_96">
     <path d="M 511.19 139.130312 
L 531.19 139.130312 
" style="fill:none;stroke:#08306b;stroke-linecap:square;stroke-width:1.5;"/>
    </g>
    <g id="line2d_97"/>
    <g id="text_22">
     <!-- 10000 -->
     <g transform="translate(539.19 142.630312)scale(0.1 -0.1)">
      <use xlink:href="#DejaVuSans-49"/>
      <use x="63.623047" xlink:href="#DejaVuSans-48"/>
      <use x="127.246094" xlink:href="#DejaVuSans-48"/>
      <use x="190.869141" xlink:href="#DejaVuSans-48"/>
      <use x="254.492188" xlink:href="#DejaVuSans-48"/>
     </g>
    </g>
    <g id="line2d_98">
     <path d="M 511.19 153.808437 
L 531.19 153.808437 
" style="fill:none;stroke:#000000;stroke-linecap:square;stroke-width:1.5;"/>
    </g>
    <g id="line2d_99"/>
    <g id="text_23">
     <!-- 0 -->
     <g transform="translate(539.19 157.308437)scale(0.1 -0.1)">
      <use xlink:href="#DejaVuSans-48"/>
     </g>
    </g>
    <g id="line2d_100">
     <path d="M 511.19 168.486562 
L 531.19 168.486562 
" style="fill:none;stroke:#000000;stroke-dasharray:1.5,2.475;stroke-dashoffset:0;stroke-width:1.5;"/>
    </g>
    <g id="line2d_101"/>
    <g id="text_24">
     <!-- 250 -->
     <g transform="translate(539.19 171.986562)scale(0.1 -0.1)">
      <use xlink:href="#DejaVuSans-50"/>
      <use x="63.623047" xlink:href="#DejaVuSans-53"/>
      <use x="127.246094" xlink:href="#DejaVuSans-48"/>
     </g>
    </g>
    <g id="line2d_102">
     <path d="M 511.19 183.164687 
L 531.19 183.164687 
" style="fill:none;stroke:#000000;stroke-linecap:square;stroke-width:1.5;"/>
    </g>
    <g id="line2d_103"/>
    <g id="text_25">
     <!-- 500 -->
     <g transform="translate(539.19 186.664687)scale(0.1 -0.1)">
      <use xlink:href="#DejaVuSans-53"/>
      <use x="63.623047" xlink:href="#DejaVuSans-48"/>
      <use x="127.246094" xlink:href="#DejaVuSans-48"/>
     </g>
    </g>
    <g id="line2d_104">
     <path d="M 511.19 197.842812 
L 531.19 197.842812 
" style="fill:none;stroke:#000000;stroke-dasharray:5.55,2.4;stroke-dashoffset:0;stroke-width:1.5;"/>
    </g>
    <g id="line2d_105"/>
    <g id="text_26">
     <!-- 1000 -->
     <g transform="translate(539.19 201.342812)scale(0.1 -0.1)">
      <use xlink:href="#DejaVuSans-49"/>
      <use x="63.623047" xlink:href="#DejaVuSans-48"/>
      <use x="127.246094" xlink:href="#DejaVuSans-48"/>
      <use x="190.869141" xlink:href="#DejaVuSans-48"/>
     </g>
    </g>
    <g id="line2d_106">
     <path d="M 511.19 212.520937 
L 531.19 212.520937 
" style="fill:none;stroke:#000000;stroke-dasharray:9.6,2.4,1.5,2.4;stroke-dashoffset:0;stroke-width:1.5;"/>
    </g>
    <g id="line2d_107"/>
    <g id="text_27">
     <!-- 5000 -->
     <g transform="translate(539.19 216.020937)scale(0.1 -0.1)">
      <use xlink:href="#DejaVuSans-53"/>
      <use x="63.623047" xlink:href="#DejaVuSans-48"/>
      <use x="127.246094" xlink:href="#DejaVuSans-48"/>
      <use x="190.869141" xlink:href="#DejaVuSans-48"/>
     </g>
    </g>
    <g id="line2d_108">
     <path d="M 511.19 227.199062 
L 531.19 227.199062 
" style="fill:none;stroke:#000000;stroke-dasharray:9.6,2.4,1.5,2.4;stroke-dashoffset:0;stroke-width:1.5;"/>
    </g>
    <g id="line2d_109"/>
    <g id="text_28">
     <!-- 10000 -->
     <g transform="translate(539.19 230.699062)scale(0.1 -0.1)">
      <use xlink:href="#DejaVuSans-49"/>
      <use x="63.623047" xlink:href="#DejaVuSans-48"/>
      <use x="127.246094" xlink:href="#DejaVuSans-48"/>
      <use x="190.869141" xlink:href="#DejaVuSans-48"/>
      <use x="254.492188" xlink:href="#DejaVuSans-48"/>
     </g>
    </g>
   </g>
  </g>
 </g>
 <defs>
  <clipPath id="p52a9caa6a6">
   <rect height="380.52" width="390.6" x="111.59" y="52.64125"/>
  </clipPath>
 </defs>
</svg>
